<?xml version="1.0" encoding="UTF-8"?>
<!-- Generator: Adobe Illustrator 26.2.1, SVG Export Plug-In . SVG Version: 6.00 Build 0)  -->
<svg width=".7in" height="1.1521in" enable-background="new 0 0 50.4 82.954" version="1.1" viewBox="0 0 50.4 82.954" xml:space="preserve" xmlns="http://www.w3.org/2000/svg" xmlns:xml="http://www.w3.org/XML/1998/namespace">
    <desc>
        <referenceFile>CP2102N-24 Rev A_breadboard.svg</referenceFile>
    </desc>
    <desc>Fritzing breadboard generated by brd2svg</desc>
    <g id="breadboard">
        <g id="icon">
            <path d="m0 82.954v-73.8c0-2.9823 2.4177-5.4 5.4-5.4h39.6c2.9823 0 5.4 2.4177 5.4 5.4v73.8h-50.4m16.087-63.918c-0.0011 0.5088 0.4105 0.9221 0.9193 0.9232s0.9221-0.4105 0.9232-0.9193v-4e-3c0.0011-0.5088-0.4105-0.9221-0.9193-0.9232s-0.9221 0.4105-0.9232 0.9193v4e-3zm16.384 0c-8e-4 0.5088 0.411 0.9219 0.9198 0.9227s0.9219-0.411 0.9227-0.9198v-3e-3c8e-4 -0.5088-0.411-0.9219-0.9198-0.9227s-0.9219 0.411-0.9227 0.9198v3e-3zm-26.688 56.718c0 0.7828 0.6346 1.4173 1.4173 1.4173s1.4173-0.6346 1.4173-1.4173-0.6345-1.4173-1.4173-1.4173-1.4173 0.6346-1.4173 1.4173zm7.2 0c0 0.7828 0.6346 1.4173 1.4173 1.4173s1.4173-0.6346 1.4173-1.4173c0-0.7828-0.6346-1.4173-1.4173-1.4173s-1.4173 0.6346-1.4173 1.4173zm7.2 0c0 0.7828 0.6346 1.4173 1.4173 1.4173 0.7828 0 1.4173-0.6346 1.4173-1.4173 0-0.7828-0.6346-1.4173-1.4173-1.4173s-1.4173 0.6346-1.4173 1.4173zm7.2 0c0 0.7828 0.6346 1.4173 1.4173 1.4173 0.7828 0 1.4173-0.6346 1.4173-1.4173 0-0.7828-0.6346-1.4173-1.4173-1.4173s-1.4173 0.6346-1.4173 1.4173zm7.2 0c0 0.7828 0.6346 1.4173 1.4173 1.4173 0.7828 0 1.4173-0.6346 1.4173-1.4173s-0.6345-1.4173-1.4173-1.4173-1.4173 0.6346-1.4173 1.4173zm7.2 0c0 0.7828 0.6346 1.4173 1.4173 1.4173s1.4173-0.6346 1.4173-1.4173-0.6346-1.4173-1.4173-1.4173-1.4173 0.6346-1.4173 1.4173zm0-7.2c0 0.7828 0.6346 1.4173 1.4173 1.4173s1.4173-0.6346 1.4173-1.4173c0-0.7828-0.6346-1.4173-1.4173-1.4173s-1.4173 0.6346-1.4173 1.4173zm0-7.2c0 0.7828 0.6346 1.4173 1.4173 1.4173s1.4173-0.6346 1.4173-1.4173c0-0.7828-0.6346-1.4173-1.4173-1.4173s-1.4173 0.6346-1.4173 1.4173zm0-7.2c0 0.7828 0.6346 1.4173 1.4173 1.4173s1.4173-0.6346 1.4173-1.4173c0-0.7828-0.6346-1.4173-1.4173-1.4173s-1.4173 0.6346-1.4173 1.4173zm0-7.2c0 0.7828 0.6346 1.4173 1.4173 1.4173s1.4173-0.6346 1.4173-1.4173c0-0.7828-0.6346-1.4173-1.4173-1.4173s-1.4173 0.6346-1.4173 1.4173zm0-7.2c0 0.7828 0.6346 1.4173 1.4173 1.4173s1.4173-0.6346 1.4173-1.4173-0.6346-1.4173-1.4173-1.4173-1.4173 0.6346-1.4173 1.4173zm0-7.2c0 0.7828 0.6346 1.4173 1.4173 1.4173s1.4173-0.6346 1.4173-1.4173c0-0.7828-0.6346-1.4173-1.4173-1.4173s-1.4173 0.6346-1.4173 1.4173zm0-7.2c0 0.7828 0.6346 1.4173 1.4173 1.4173s1.4173-0.6346 1.4173-1.4173c0-0.7828-0.6346-1.4173-1.4173-1.4173s-1.4173 0.6346-1.4173 1.4173zm0-7.2c0 0.7828 0.6346 1.4173 1.4173 1.4173s1.4173-0.6346 1.4173-1.4173-0.6346-1.4173-1.4173-1.4173-1.4173 0.6346-1.4173 1.4173zm-36 0c0 0.7828 0.6346 1.4173 1.4173 1.4173s1.4173-0.6346 1.4173-1.4173-0.6345-1.4173-1.4173-1.4173-1.4173 0.6346-1.4173 1.4173zm0 7.2c0 0.7828 0.6346 1.4173 1.4173 1.4173s1.4173-0.6346 1.4173-1.4173-0.6345-1.4173-1.4173-1.4173-1.4173 0.6346-1.4173 1.4173zm0 7.2c0 0.7828 0.6346 1.4173 1.4173 1.4173s1.4173-0.6346 1.4173-1.4173c0-0.7828-0.6346-1.4173-1.4173-1.4173s-1.4173 0.6346-1.4173 1.4173zm0 7.2c0 0.7828 0.6346 1.4173 1.4173 1.4173s1.4173-0.6346 1.4173-1.4173-0.6345-1.4173-1.4173-1.4173-1.4173 0.6346-1.4173 1.4173zm0 7.2c0 0.7828 0.6346 1.4173 1.4173 1.4173s1.4173-0.6346 1.4173-1.4173-0.6345-1.4173-1.4173-1.4173-1.4173 0.6346-1.4173 1.4173zm0 7.2c0 0.7828 0.6346 1.4173 1.4173 1.4173s1.4173-0.6346 1.4173-1.4173-0.6345-1.4173-1.4173-1.4173-1.4173 0.6346-1.4173 1.4173zm0 7.2c0 0.7828 0.6346 1.4173 1.4173 1.4173s1.4173-0.6346 1.4173-1.4173-0.6345-1.4173-1.4173-1.4173-1.4173 0.6346-1.4173 1.4173zm0 7.2c0 0.7828 0.6346 1.4173 1.4173 1.4173s1.4173-0.6346 1.4173-1.4173-0.6345-1.4173-1.4173-1.4173-1.4173 0.6346-1.4173 1.4173zm35.739-59.04c0 1.7221 1.396 3.1181 3.1181 3.1181s3.1181-1.396 3.1181-3.1181-1.396-3.1181-3.1181-3.1181-3.1181 1.3961-3.1181 3.1181zm-38.88 0c0 1.7221 1.396 3.1181 3.1181 3.1181s3.1181-1.396 3.1181-3.1181-1.396-3.1181-3.1181-3.1181-3.1181 1.3961-3.1181 3.1181zm33.953 10.939c-0.0011 0.4697 0.3787 0.8513 0.8483 0.8525 0.4697 0.0011 0.8513-0.3787 0.8525-0.8483v-0.0041c0.0011-0.4697-0.3787-0.8513-0.8483-0.8525-0.4697-0.0011-0.8513 0.3787-0.8525 0.8483v0.0041zm-24.491 0c-1e-3 0.4697 0.3789 0.8512 0.8485 0.8522 0.4697 1e-3 0.8512-0.3789 0.8522-0.8485v-0.0037c1e-3 -0.4697-0.3789-0.8512-0.8485-0.8522-0.4697-1e-3 -0.8512 0.3789-0.8522 0.8485v0.0037zm24.491-11.849c-0.0011 0.4697 0.3787 0.8513 0.8483 0.8525 0.4697 0.0011 0.8513-0.3787 0.8525-0.8483v-0.0041c0.0011-0.4697-0.3787-0.8513-0.8483-0.8525-0.4697-0.0012-0.8514 0.3786-0.8525 0.8483v0.0041zm-24.491 0c-1e-3 0.4697 0.3789 0.8512 0.8485 0.8522 0.4697 1e-3 0.8512-0.3789 0.8522-0.8485v-0.0037c1e-3 -0.4697-0.3789-0.8512-0.8485-0.8522-0.4697-1e-3 -0.8512 0.3789-0.8522 0.8485v0.0037z"/>
            
                
                    <path d="m12.96 72.154 1.44-2.16 1.44 2.16h-2.88" fill="none" stroke="#fff" stroke-linecap="round" stroke-width=".72"/>
                
                
                    <path d="m30.24 69.994-1.44 2.16-1.44-2.16h2.88" fill="none" stroke="#fff" stroke-linecap="round" stroke-width=".72"/>
                
                
                    <path d="m34.56 81.514 1.44-2.16 1.44 2.16h-2.88" fill="none" stroke="#fff" stroke-linecap="round" stroke-width=".72"/>
                
                
                    <path d="m49.68 73.954-1.44 2.88-1.44-2.88h2.88" fill="none" stroke="#fff" stroke-linecap="round" stroke-width=".72"/>
                
                
                    <g transform="translate(14.75 59.122)">
                        <text fill="#FFFFFF" font-family="'OCRA'" font-size="3.3408">CP2102N</text>
                    </g>
                
                
                    <g transform="translate(2.177 82.464)">
                        <text fill="#FFFFFF" font-family="'OCRA'" font-size="2.6726">GND</text>
                    </g>
                
                
                    <g transform="translate(10.817 82.464)">
                        <text fill="#FFFFFF" font-family="'OCRA'" font-size="2.6726">CTS</text>
                    </g>
                
                
                    <g transform="translate(19.211 72.384)">
                        <text fill="#FFFFFF" font-family="'OCRA'" font-size="2.6726">5V</text>
                    </g>
                
                
                    <g transform="translate(25.217 82.464)">
                        <text fill="#FFFFFF" font-family="'OCRA'" font-size="2.6726">TXD</text>
                    </g>
                
                
                    <g transform="translate(32.417 72.384)">
                        <text fill="#FFFFFF" font-family="'OCRA'" font-size="2.6726">RXD</text>
                    </g>
                
                
                    <g transform="translate(39.617 82.464)">
                        <text fill="#FFFFFF" font-family="'OCRA'" font-size="2.6726">RTS</text>
                    </g>
                
                
                    <g transform="translate(3.8304 16.2)">
                        
                            <g transform="rotate(270)">
                                
                                    <g transform="translate(-3.6229 4.4336e-5)">
                                        <text fill="#FFFFFF" font-family="'OCRA'" font-size="2.6726">5V</text>
                                    </g>
                                
                            </g>
                        
                    </g>
                
                
                    <g transform="translate(13.91 24.48)">
                        
                            <g transform="rotate(270)">
                                
                                    <g transform="translate(-3.6232)">
                                        <text fill="#FFFFFF" font-family="'OCRA'" font-size="2.6726">3V</text>
                                    </g>
                                
                            </g>
                        
                    </g>
                
                
                    <g transform="translate(3.8304 31.32)">
                        
                            <g transform="rotate(270)">
                                
                                    <g transform="translate(-4.8174 4.4336e-5)">
                                        <text fill="#FFFFFF" font-family="'OCRA'" font-size="2.6726">GND</text>
                                    </g>
                                
                            </g>
                        
                    </g>
                
                
                    <g transform="translate(13.91 38.52)">
                        
                            <g transform="rotate(270)">
                                
                                    <g transform="translate(-4.8166)">
                                        <text fill="#FFFFFF" font-family="'OCRA'" font-size="2.6726">RST</text>
                                    </g>
                                
                            </g>
                        
                    </g>
                
                
                    <g transform="translate(3.8304 60.84)">
                        
                            <g transform="rotate(270)">
                                
                                    <g transform="translate(-4.8169 4.4336e-5)">
                                        <text fill="#FFFFFF" font-family="'OCRA'" font-size="2.6726">#SU</text>
                                    </g>
                                
                            </g>
                        
                    </g>
                
                
                    <g transform="translate(13.19 66.6)">
                        
                            <g transform="rotate(270)">
                                
                                    <g transform="translate(-3.6223 2.9688e-5)">
                                        <text fill="#FFFFFF" font-family="'OCRA'" font-size="2.6726">SU</text>
                                    </g>
                                
                            </g>
                        
                    </g>
                
                
                    <g transform="translate(49.91 37.8)">
                        
                            <g transform="rotate(270)">
                                
                                    <g transform="translate(-4.8169)">
                                        <text fill="#FFFFFF" font-family="'OCRA'" font-size="2.6726">DSR</text>
                                    </g>
                                
                            </g>
                        
                    </g>
                
                
                    <g transform="translate(40.55 31.32)">
                        
                            <g transform="rotate(270)">
                                
                                    <g transform="translate(-4.8174 1.5039e-5)">
                                        <text fill="#FFFFFF" font-family="'OCRA'" font-size="2.6726">DTR</text>
                                    </g>
                                
                            </g>
                        
                    </g>
                
                
                    <g transform="translate(49.91 24.12)">
                        
                            <g transform="rotate(270)">
                                
                                    <g transform="translate(-4.8172)">
                                        <text fill="#FFFFFF" font-family="'OCRA'" font-size="2.6726">DCD</text>
                                    </g>
                                
                            </g>
                        
                    </g>
                
                
                    <g transform="translate(49.91 16.56)">
                        
                            <g transform="rotate(270)">
                                
                                    <g transform="translate(-3.6223)">
                                        <text fill="#FFFFFF" font-family="'OCRA'" font-size="2.6726">RI</text>
                                    </g>
                                
                            </g>
                        
                    </g>
                
                
                    <g transform="translate(4.5504 45)">
                        
                            <g transform="rotate(270)">
                                
                                    <g transform="translate(-4.8171 1.5039e-5)">
                                        <text fill="#FFFFFF" font-family="'OCRA'" font-size="2.6726">IO3</text>
                                    </g>
                                
                            </g>
                        
                    </g>
                
                
                    <g transform="translate(13.91 52.92)">
                        
                            <g transform="rotate(270)">
                                
                                    <g transform="translate(-4.817)">
                                        <text fill="#FFFFFF" font-family="'OCRA'" font-size="2.6726">IO2</text>
                                    </g>
                                
                            </g>
                        
                    </g>
                
                
                    <g transform="translate(40.55 45.72)">
                        
                            <g transform="rotate(270)">
                                
                                    <g transform="translate(-4.8168 1.5039e-5)">
                                        <text fill="#FFFFFF" font-family="'OCRA'" font-size="2.6726">TXD</text>
                                    </g>
                                
                            </g>
                        
                    </g>
                
                
                    <g transform="translate(49.91 52.92)">
                        
                            <g transform="rotate(270)">
                                
                                    <g transform="translate(-4.817)">
                                        <text fill="#FFFFFF" font-family="'OCRA'" font-size="2.6726">RXD</text>
                                    </g>
                                
                            </g>
                        
                    </g>
                
                
                    <g transform="translate(40.55 59.4)">
                        
                            <g transform="rotate(270)">
                                
                                    <g transform="translate(-4.8174 1.5039e-5)">
                                        <text fill="#FFFFFF" font-family="'OCRA'" font-size="2.6726">RTS</text>
                                    </g>
                                
                            </g>
                        
                    </g>
                
                
                    <g transform="translate(49.91 66.6)">
                        
                            <g transform="rotate(270)">
                                
                                    <g transform="translate(-4.8167)">
                                        <text fill="#FFFFFF" font-family="'OCRA'" font-size="2.6726">CTS</text>
                                    </g>
                                
                            </g>
                        
                    </g>
                
                
                    <g transform="translate(28.181 59.04)">
                        
                            <g transform="rotate(270)">
                                
                                    <g transform="translate(-3.6228 -1.2867e-5)">
                                        <text fill="#FFFFFF" font-family="'OCRA'" font-size="2.6726">T</text>
                                    </g>
                                
                            </g>
                        
                    </g>
                
                
                    <g transform="translate(24.581 59.04)">
                        
                            <g transform="rotate(270)">
                                
                                    <g transform="translate(-3.6228 1.1547e-5)">
                                        <text fill="#FFFFFF" font-family="'OCRA'" font-size="2.6726">R</text>
                                    </g>
                                
                            </g>
                        
                    </g>
                
                
                    
                        <line x1="18" x2="18" y1="38.548" y2="36.28" fill="none" stroke="#fff" stroke-linecap="round" stroke-width=".864"/>
                    
                
                
                    
                        <line x1="35.1" x2="32.22" y1="30.934" y2="30.934" fill="none" stroke="#fff" stroke-linecap="round" stroke-width=".864"/>
                    
                
                
                    
                        <line x1="17.28" x2="14.4" y1="30.754" y2="30.754" fill="none" stroke="#fff" stroke-linecap="round" stroke-width=".864"/>
                    
                
                
                    
                        <line x1="13.806" x2="16.074" y1="64.954" y2="64.954" fill="none" stroke="#fff" stroke-linecap="round" stroke-width=".864"/>
                    
                
                
                    
                        <line x1="36.18" x2="33.3" y1="64.414" y2="64.414" fill="none" stroke="#fff" stroke-linecap="round" stroke-width=".864"/>
                    
                
                
                    
                        
                            <path d="m26.46 65.278 0.72 0.9h-1.44l0.72-0.9" fill="none" stroke="#fff" stroke-linecap="round" stroke-width=".432"/>
                        
                        <rect x="25.38" y="65.278" width="2.16" height=".36" fill="#fff"/>
                    
                
                
                    
                        
                            <path d="m23.22 65.278 0.72 0.9h-1.44l0.72-0.9" fill="none" stroke="#fff" stroke-linecap="round" stroke-width=".432"/>
                        
                        <rect x="22.14" y="65.278" width="2.16" height=".36" fill="#fff"/>
                    
                
                
                    <g fill="none" stroke="#fff" stroke-width=".576">
                        <line x1="24.571" x2="24.571" y1="52.711" y2="53.703" stroke-linecap="round"/>
                        <line x1="25.563" x2="24.571" y1="53.703" y2="53.703" stroke-linecap="round"/>
                        <line x1="24.571" x2="24.571" y1="43.357" y2="42.365" stroke-linecap="round"/>
                        <line x1="24.571" x2="25.563" y1="42.365" y2="42.365" stroke-linecap="round"/>
                        <line x1="34.917" x2="35.909" y1="53.703" y2="53.703" stroke-linecap="round"/>
                        <line x1="35.909" x2="35.909" y1="53.703" y2="52.711" stroke-linecap="round"/>
                        <line x1="35.909" x2="34.917" y1="43.357" y2="42.365" stroke-linecap="round"/>
                        <circle cx="36.144" cy="42.13" r=".36"/>
                    </g>
                
                
                    
                        <line x1="29.106" x2="31.374" y1="65.134" y2="65.134" fill="none" stroke="#fff" stroke-linecap="round" stroke-width=".864"/>
                    
                
                
                    
                        <line x1="18.126" x2="20.394" y1="64.954" y2="64.954" fill="none" stroke="#fff" stroke-linecap="round" stroke-width=".864"/>
                    
                
                
                    
                        <line x1="20.646" x2="22.914" y1="30.754" y2="30.754" fill="none" stroke="#fff" stroke-linecap="round" stroke-width=".864"/>
                    
                
                
                    
                        <line x1="27.126" x2="29.394" y1="31.114" y2="31.114" fill="none" stroke="#fff" stroke-linecap="round" stroke-width=".864"/>
                    
                
                
                    
                        <line x1="17.28" x2="17.28" y1="45.64" y2="47.908" fill="none" stroke="#fff" stroke-linecap="round" stroke-width=".864"/>
                    
                
                
                    
                        <line x1="18.18" x2="18.18" y1="41.32" y2="43.588" fill="none" stroke="#fff" stroke-linecap="round" stroke-width=".864"/>
                    
                
                
                    
                        <circle cx="44.64" cy="9.514" r="5.1024" fill="none" stroke="#fff" stroke-width=".576"/>
                    
                
                
                    
                        <circle cx="5.76" cy="9.514" r="5.1024" fill="none" stroke="#fff" stroke-width=".576"/>
                    
                
                
                    <g fill="none" stroke="#fff" stroke-linecap="round" stroke-width=".288">
                        <line x1="37.871" x2="37.871" y1="12.573" y2="16.399"/>
                        <line x1="12.529" x2="12.529" y1="16.399" y2="12.573"/>
                        <line x1="12.529" x2="37.871" y1="1.234" y2="1.234"/>
                        <line x1="37.871" x2="37.871" y1="1.234" y2="5.0608"/>
                        <line x1="12.529" x2="12.529" y1="5.0608" y2="1.234"/>
                    </g>
                
            
            <g transform="matrix(-1 0 0 -1 40.819 72.36)">
                
                    <rect id="connector5pin" x="18.886" y="33.529" width="3.0472" height="2.8347" fill="#9A916C"/>
                
            </g>
            <g transform="matrix(-1 0 0 -1 31.181 72.36)">
                
                    <rect id="connector6pin" x="14.067" y="33.529" width="3.0472" height="2.8347" fill="#9A916C"/>
                
            </g>
            <g transform="matrix(0 1 -1 0 60.667 -6.6529)">
                
                    <g transform="matrix(2.5352e-6 1 -1 2.5352e-6 61.901 -7.8871)">
                        <rect id="connector7pin" x="32.768" y="25.25" width="4.252" height="3.515" fill="#9A916C"/>
                    </g>
                
            </g>
            <g transform="matrix(0 1 -1 0 66.053 -1.2671)">
                
                    <g transform="matrix(2.5352e-6 1 -1 2.5352e-6 67.287 -2.5013)">
                        <rect id="connector8pin" x="32.768" y="30.635" width="4.252" height="3.515" fill="#9A916C"/>
                    </g>
                
            </g>
            <g transform="matrix(0 1 -1 0 42.667 10.987)">
                
                    <g transform="matrix(2.5352e-6 1 -1 2.5352e-6 43.901 9.7529)">
                        <rect id="connector9pin" x="14.948" y="25.07" width="4.252" height="3.515" fill="#9A916C"/>
                    </g>
                
            </g>
            <g transform="matrix(0 1 -1 0 48.053 16.373)">
                
                    <g transform="matrix(2.5352e-6 1 -1 2.5352e-6 49.287 15.139)">
                        <rect id="connector10pin" x="14.948" y="30.455" width="4.252" height="3.515" fill="#9A916C"/>
                    </g>
                
            </g>
            <g transform="matrix(0 -1 1 0 -51.19 81.069)">
                
                    <g transform="matrix(-2.5352e-6 -1 1 -2.5352e-6 -52.424 79.836)">
                        <rect id="connector11pin" x="12.289" y="64.606" width="2.8346" height="3.0472" fill="#9A916C"/>
                    </g>
                
            </g>
            <g transform="matrix(0 -1 1 0 -46.37 76.251)">
                
                    <g transform="matrix(-2.5352e-6 -1 1 -2.5352e-6 -47.604 75.017)">
                        <rect id="connector12pin" x="12.289" y="59.787" width="2.8347" height="3.0472" fill="#9A916C"/>
                    </g>
                
            </g>
            <g transform="matrix(0 1 -1 0 95.227 25.747)">
                
                    <g transform="matrix(2.5352e-6 1 -1 2.5352e-6 96.461 24.513)">
                        <rect id="connector13pin" x="33.848" y="58.73" width="4.252" height="3.515" fill="#9A916C"/>
                    </g>
                
            </g>
            <g transform="matrix(0 1 -1 0 100.61 31.133)">
                
                    <g transform="matrix(2.5352e-6 1 -1 2.5352e-6 101.85 29.899)">
                        <rect id="connector14pin" x="33.848" y="64.115" width="4.252" height="3.515" fill="#9A916C"/>
                    </g>
                
            </g>
            <rect id="connector15pin" x="25.326" y="66.666" width="2.2677" height="2.2677" fill="#9A916C"/>
            <rect id="connector16pin" x="25.326" y="62.414" width="2.2677" height="2.2677" fill="#9A916C"/>
            <rect id="connector17pin" x="22.086" y="66.666" width="2.2677" height="2.2677" fill="#9A916C"/>
            <rect id="connector18pin" x="22.086" y="62.414" width="2.2677" height="2.2677" fill="#9A916C"/>
            <path id="connector19pin" d="m2.52 70.377c0.7828 0 1.4173 0.6346 1.4173 1.4173 0 0.7828-0.6346 1.4173-1.4173 1.4173-0.7828 0-1.4173-0.6346-1.4173-1.4173s0.6345-1.4173 1.4173-1.4173z" fill="#9A916C"/>
            <path id="connector20pin" d="m34.02 36.897c0.7828 0 1.4173 0.6346 1.4173 1.4173 0 0.7828-0.6346 1.4173-1.4173 1.4173-0.7828 0-1.4173-0.6346-1.4173-1.4173s0.6346-1.4173 1.4173-1.4173z" fill="#9A916C"/>
            <g transform="matrix(0 -1 1 0 -7.3474 74.914)">
                
                    <path id="connector21pin" d="m31.614 40.734h1.8709c0.1096 0 0.1984 0.0888 0.1984 0.1984v0.3968c0 0.1096-0.0888 0.1984-0.1984 0.1984h-1.8709c-0.1096 0-0.1984-0.0888-0.1984-0.1984v-0.3968c0-0.1096 0.0888-0.1984 0.1984-0.1984z" fill="#9A916C"/>
                
            </g>
            <g transform="matrix(0 -1 1 0 -8.7647 73.497)">
                
                    <path id="connector22pin" d="m30.197 40.734h1.8709c0.1096 0 0.1984 0.0888 0.1984 0.1984v0.3968c0 0.1096-0.0888 0.1984-0.1984 0.1984h-1.8709c-0.1096 0-0.1984-0.0888-0.1984-0.1984v-0.3968c0-0.1096 0.0888-0.1984 0.1984-0.1984z" fill="#9A916C"/>
                
            </g>
            <g transform="matrix(0 -1 1 0 -10.182 72.079)">
                
                    <path id="connector23pin" d="m28.779 40.734h1.8708c0.1096 0 0.1984 0.0888 0.1984 0.1984v0.3968c0 0.1096-0.0888 0.1984-0.1984 0.1984h-1.8709c-0.1096 0-0.1984-0.0888-0.1984-0.1984v-0.3968c1e-4 -0.1096 0.0889-0.1984 0.1985-0.1984z" fill="#9A916C"/>
                
            </g>
            <g transform="matrix(0 -1 1 0 -11.599 70.662)">
                
                    <path id="connector24pin" d="m27.362 40.734h1.8709c0.1096 0 0.1984 0.0888 0.1984 0.1984v0.3968c0 0.1096-0.0888 0.1984-0.1984 0.1984h-1.8709c-0.1096 0-0.1984-0.0888-0.1984-0.1984v-0.3968c0-0.1096 0.0888-0.1984 0.1984-0.1984z" fill="#9A916C"/>
                
            </g>
            <g transform="matrix(0 -1 1 0 -13.017 69.245)">
                
                    <path id="connector25pin" d="m25.944 40.734h1.8709c0.1096 0 0.1984 0.0888 0.1984 0.1984v0.3968c0 0.1096-0.0888 0.1984-0.1984 0.1984h-1.8709c-0.1096 0-0.1984-0.0888-0.1984-0.1984v-0.3968c0-0.1096 0.0888-0.1984 0.1984-0.1984z" fill="#9A916C"/>
                
            </g>
            <g transform="matrix(0 -1 1 0 -14.434 67.827)">
                
                    <path id="connector26pin" d="m24.527 40.734h1.8709c0.1096 0 0.1984 0.0888 0.1984 0.1984v0.3968c0 0.1096-0.0888 0.1984-0.1984 0.1984h-1.8709c-0.1096 0-0.1984-0.0888-0.1984-0.1984v-0.3968c0-0.1096 0.0888-0.1984 0.1984-0.1984z" fill="#9A916C"/>
                
            </g>
            <path id="connector27pin" d="m23.635 44.094h1.8709c0.1096 0 0.1984 0.0888 0.1984 0.1984v0.3968c0 0.1096-0.0888 0.1984-0.1984 0.1984h-1.8709c-0.1096 0-0.1984-0.0888-0.1984-0.1984v-0.3968c0-0.1095 0.0888-0.1984 0.1984-0.1984z" fill="#9A916C"/>
            <path id="connector28pin" d="m23.635 45.511h1.8709c0.1096 0 0.1984 0.0888 0.1984 0.1984v0.3968c0 0.1096-0.0888 0.1984-0.1984 0.1984h-1.8709c-0.1096 0-0.1984-0.0888-0.1984-0.1984v-0.3968c0-0.1095 0.0888-0.1984 0.1984-0.1984z" fill="#9A916C"/>
            <path id="connector29pin" d="m23.635 46.928h1.8709c0.1096 0 0.1984 0.0888 0.1984 0.1984v0.3968c0 0.1096-0.0888 0.1984-0.1984 0.1984h-1.8709c-0.1096 0-0.1984-0.0888-0.1984-0.1984v-0.3967c0-0.1096 0.0888-0.1985 0.1984-0.1985z" fill="#9A916C"/>
            <path id="connector30pin" d="m23.635 48.346h1.8709c0.1096 0 0.1984 0.0888 0.1984 0.1984v0.3968c0 0.1096-0.0888 0.1984-0.1984 0.1984h-1.8709c-0.1096 0-0.1984-0.0888-0.1984-0.1984v-0.3968c0-0.1095 0.0888-0.1984 0.1984-0.1984z" fill="#9A916C"/>
            <path id="connector31pin" d="m23.635 49.763h1.8709c0.1096 0 0.1984 0.0888 0.1984 0.1984v0.3968c0 0.1096-0.0888 0.1984-0.1984 0.1984h-1.8709c-0.1096 0-0.1984-0.0888-0.1984-0.1984v-0.3968c0-0.1095 0.0888-0.1984 0.1984-0.1984z" fill="#9A916C"/>
            <path id="connector32pin" d="m23.635 51.18h1.8709c0.1096 0 0.1984 0.0888 0.1984 0.1984v0.3968c0 0.1096-0.0888 0.1984-0.1984 0.1984h-1.8709c-0.1096 0-0.1984-0.0888-0.1984-0.1984v-0.3967c0-0.1096 0.0888-0.1985 0.1984-0.1985z" fill="#9A916C"/>
            <g transform="matrix(0 1 -1 0 79.166 25.773)">
                
                    <path id="connector33pin" d="m26.995 52.072h1.8709c0.1096 0 0.1984 0.0888 0.1984 0.1984v0.3968c0 0.1096-0.0888 0.1984-0.1984 0.1984h-1.8709c-0.1096 0-0.1984-0.0888-0.1984-0.1984v-0.3968c-1e-4 -0.1096 0.0888-0.1984 0.1984-0.1984z" fill="#9A916C"/>
                
            </g>
            <g transform="matrix(0 1 -1 0 80.583 24.355)">
                
                    <path id="connector34pin" d="m28.413 52.072h1.8709c0.1096 0 0.1984 0.0888 0.1984 0.1984v0.3968c0 0.1096-0.0888 0.1984-0.1984 0.1984h-1.8709c-0.1096 0-0.1984-0.0888-0.1984-0.1984v-0.3968c-1e-4 -0.1096 0.0888-0.1984 0.1984-0.1984z" fill="#9A916C"/>
                
            </g>
            <g transform="matrix(0 1 -1 0 82.001 22.938)">
                
                    <path id="connector35pin" d="m29.83 52.072h1.8709c0.1096 0 0.1984 0.0888 0.1984 0.1984v0.3968c0 0.1096-0.0888 0.1984-0.1984 0.1984h-1.8709c-0.1096 0-0.1984-0.0888-0.1984-0.1984v-0.3968c-1e-4 -0.1096 0.0888-0.1984 0.1984-0.1984z" fill="#9A916C"/>
                
            </g>
            <g transform="matrix(0 1 -1 0 83.418 21.521)">
                
                    <path id="connector36pin" d="m31.247 52.072h1.8709c0.1096 0 0.1984 0.0888 0.1984 0.1984v0.3968c0 0.1096-0.0888 0.1984-0.1984 0.1984h-1.8709c-0.1096 0-0.1984-0.0888-0.1984-0.1984v-0.3968c-1e-4 -0.1096 0.0888-0.1984 0.1984-0.1984z" fill="#9A916C"/>
                
            </g>
            <g transform="matrix(0 1 -1 0 84.835 20.103)">
                
                    <path id="connector37pin" d="m32.665 52.072h1.8709c0.1096 0 0.1984 0.0888 0.1984 0.1984v0.3968c0 0.1096-0.0888 0.1984-0.1984 0.1984h-1.8709c-0.1096 0-0.1984-0.0888-0.1984-0.1984v-0.3968c-1e-4 -0.1096 0.0888-0.1984 0.1984-0.1984z" fill="#9A916C"/>
                
            </g>
            <g transform="matrix(0 1 -1 0 86.252 18.686)">
                
                    <path id="connector38pin" d="m34.082 52.072h1.8709c0.1096 0 0.1984 0.0888 0.1984 0.1984v0.3968c0 0.1096-0.0888 0.1984-0.1984 0.1984h-1.8709c-0.1096 0-0.1984-0.0888-0.1984-0.1984v-0.3968c-1e-4 -0.1096 0.0888-0.1984 0.1984-0.1984z" fill="#9A916C"/>
                
            </g>
            <g transform="matrix(-1 0 0 -1 71.819 100.69)">
                
                    <path id="connector39pin" d="m34.974 48.712h1.8709c0.1096 0 0.1984 0.0888 0.1984 0.1984v0.3968c0 0.1096-0.0888 0.1984-0.1984 0.1984h-1.8709c-0.1096 0-0.1984-0.0888-0.1984-0.1984v-0.3968c0-0.1096 0.0888-0.1984 0.1984-0.1984z" fill="#9A916C"/>
                
            </g>
            <g transform="matrix(-1 0 0 -1 71.819 97.852)">
                
                    <path id="connector40pin" d="m34.974 47.295h1.8709c0.1096 0 0.1984 0.0888 0.1984 0.1984v0.3968c0 0.1096-0.0888 0.1984-0.1984 0.1984h-1.8709c-0.1096 0-0.1984-0.0888-0.1984-0.1984v-0.3968c0-0.1096 0.0888-0.1984 0.1984-0.1984z" fill="#9A916C"/>
                
            </g>
            <g transform="matrix(-1 0 0 -1 71.819 95.018)">
                
                    <path id="connector41pin" d="m34.974 45.878h1.8709c0.1096 0 0.1984 0.0888 0.1984 0.1984v0.3968c0 0.1096-0.0888 0.1984-0.1984 0.1984h-1.8709c-0.1096 0-0.1984-0.0888-0.1984-0.1984v-0.3968c0-0.1096 0.0888-0.1984 0.1984-0.1984z" fill="#9A916C"/>
                
            </g>
            <g transform="matrix(-1 0 0 -1 71.819 92.182)">
                
                    <path id="connector42pin" d="m34.974 44.46h1.8709c0.1096 0 0.1984 0.0888 0.1984 0.1984v0.3968c0 0.1096-0.0888 0.1984-0.1984 0.1984h-1.8709c-0.1096 0-0.1984-0.0888-0.1984-0.1984v-0.3968c0-0.1096 0.0888-0.1984 0.1984-0.1984z" fill="#9A916C"/>
                
            </g>
            <g transform="matrix(-1 0 0 -1 71.819 89.348)">
                
                    <path id="connector43pin" d="m34.974 43.043h1.8709c0.1096 0 0.1984 0.0888 0.1984 0.1984v0.3968c0 0.1096-0.0888 0.1984-0.1984 0.1984h-1.8709c-0.1096 0-0.1984-0.0888-0.1984-0.1984v-0.3968c0-0.1096 0.0888-0.1984 0.1984-0.1984z" fill="#9A916C"/>
                
            </g>
            <g transform="matrix(-1 0 0 -1 71.819 86.513)">
                
                    <path id="connector44pin" d="m34.974 41.626h1.8709c0.1096 0 0.1984 0.0888 0.1984 0.1984v0.3968c0 0.1096-0.0888 0.1984-0.1984 0.1984h-1.8709c-0.1096 0-0.1984-0.0888-0.1984-0.1984v-0.3968c0-0.1096 0.0888-0.1984 0.1984-0.1984z" fill="#9A916C"/>
                
            </g>
            <g transform="matrix(0 1 -1 0 77.04 16.56)">
                
                    <g transform="matrix(2.5352e-6 1 -1 2.5352e-6 78.274 15.326)">
                        <rect id="connector45pin" x="27.931" y="43.257" width="7.0866" height="7.0866" fill="#9A916C"/>
                    </g>
                
            </g>
            <circle id="connector46pin" cx="7.2" cy="75.754" r="2.0767" fill="none" stroke="#9A916C" stroke-width="1.3187"/>
            <circle id="connector47pin" cx="14.4" cy="75.754" r="2.0767" fill="none" stroke="#9A916C" stroke-width="1.3187"/>
            <circle id="connector48pin" cx="21.6" cy="75.754" r="2.0767" fill="none" stroke="#9A916C" stroke-width="1.3187"/>
            <rect id="connector48terminal" x="21.489" y="75.748" width=".010944" height=".010944" fill="none" stroke-width="0"/>
            <circle id="connector49pin" cx="28.8" cy="75.754" r="2.0767" fill="none" stroke="#9A916C" stroke-width="1.3187"/>
            <rect id="connector49terminal" x="28.689" y="75.748" width=".010944" height=".010944" fill="none" stroke-width="0"/>
            <circle id="connector50pin" cx="36" cy="75.754" r="2.0767" fill="none" stroke="#9A916C" stroke-width="1.3187"/>
            <circle id="connector51pin" cx="43.2" cy="75.754" r="2.0767" fill="none" stroke="#9A916C" stroke-width="1.3187"/>
            <circle id="connector52pin" cx="43.2" cy="68.554" r="1.9687" fill="none" stroke="#9A916C" stroke-width="1.1027"/>
            <circle id="connector53pin" cx="43.2" cy="61.354" r="1.9687" fill="none" stroke="#9A916C" stroke-width="1.1027"/>
            <circle id="connector54pin" cx="43.2" cy="54.154" r="1.9687" fill="none" stroke="#9A916C" stroke-width="1.1027"/>
            <circle id="connector55pin" cx="43.2" cy="46.954" r="1.9687" fill="none" stroke="#9A916C" stroke-width="1.1027"/>
            <circle id="connector56pin" cx="43.2" cy="39.754" r="1.9687" fill="none" stroke="#9A916C" stroke-width="1.1027"/>
            <circle id="connector57pin" cx="43.2" cy="32.554" r="1.9687" fill="none" stroke="#9A916C" stroke-width="1.1027"/>
            <circle id="connector58pin" cx="43.2" cy="25.354" r="1.9687" fill="none" stroke="#9A916C" stroke-width="1.1027"/>
            <circle id="connector59pin" cx="43.2" cy="18.154" r="1.9687" fill="none" stroke="#9A916C" stroke-width="1.1027"/>
            <circle id="connector60pin" cx="7.2" cy="18.154" r="1.9687" fill="none" stroke="#9A916C" stroke-width="1.1027"/>
            <circle id="connector61pin" cx="7.2" cy="25.354" r="1.9687" fill="none" stroke="#9A916C" stroke-width="1.1027"/>
            <circle id="connector62pin" cx="7.2" cy="32.554" r="1.9687" fill="none" stroke="#9A916C" stroke-width="1.1027"/>
            <circle id="connector63pin" cx="7.2" cy="39.754" r="1.9687" fill="none" stroke="#9A916C" stroke-width="1.1027"/>
            <circle id="connector64pin" cx="7.2" cy="46.954" r="1.9687" fill="none" stroke="#9A916C" stroke-width="1.1027"/>
            <circle id="connector65pin" cx="7.2" cy="54.154" r="1.9687" fill="none" stroke="#9A916C" stroke-width="1.1027"/>
            <circle id="connector66pin" cx="7.2" cy="61.354" r="1.9687" fill="none" stroke="#9A916C" stroke-width="1.1027"/>
            <circle id="connector67pin" cx="7.2" cy="68.554" r="1.9687" fill="none" stroke="#9A916C" stroke-width="1.1027"/>
            <g transform="matrix(0 -1 1 0 -36.07 96.549)">
                
                    <g transform="matrix(-2.5352e-6 -1 1 -2.5352e-6 -37.304 95.316)">
                        <rect id="connector68pin" x="27.589" y="64.786" width="2.8346" height="3.0472" fill="#9A916C"/>
                    </g>
                
            </g>
            <g transform="matrix(0 -1 1 0 -31.25 91.731)">
                
                    <g transform="matrix(-2.5352e-6 -1 1 -2.5352e-6 -32.484 90.497)">
                        <rect id="connector69pin" x="27.589" y="59.967" width="2.8347" height="3.0472" fill="#9A916C"/>
                    </g>
                
            </g>
            <g transform="matrix(0 -1 1 0 -46.87 85.389)">
                
                    <g transform="matrix(-2.5352e-6 -1 1 -2.5352e-6 -48.104 84.156)">
                        <rect id="connector70pin" x="16.609" y="64.606" width="2.8346" height="3.0472" fill="#9A916C"/>
                    </g>
                
            </g>
            <g transform="matrix(0 -1 1 0 -42.05 80.571)">
                
                    <g transform="matrix(-2.5352e-6 -1 1 -2.5352e-6 -43.284 79.337)">
                        <rect id="connector71pin" x="16.609" y="59.787" width="2.8347" height="3.0472" fill="#9A916C"/>
                    </g>
                
            </g>
            <g transform="matrix(0 -1 1 0 -10.15 53.71)">
                
                    <g transform="matrix(-2.5352e-6 -1 1 -2.5352e-6 -11.384 52.476)">
                        <rect id="connector72pin" x="19.129" y="30.406" width="2.8346" height="3.0472" fill="#9A916C"/>
                    </g>
                
            </g>
            <g transform="matrix(0 -1 1 0 -5.3306 48.89)">
                
                    <g transform="matrix(-2.5352e-6 -1 1 -2.5352e-6 -6.5645 47.657)">
                        <rect id="connector73pin" x="19.129" y="25.587" width="2.8347" height="3.0472" fill="#9A916C"/>
                    </g>
                
            </g>
            <g transform="matrix(0 -1 1 0 -4.0294 60.55)">
                
                    <g transform="matrix(-2.5352e-6 -1 1 -2.5352e-6 -5.2635 59.316)">
                        <rect id="connector74pin" x="25.609" y="30.766" width="2.8346" height="3.0472" fill="#9A916C"/>
                    </g>
                
            </g>
            <g transform="matrix(0 -1 1 0 .78945 55.73)">
                
                    <g transform="matrix(-2.5352e-6 -1 1 -2.5352e-6 -.4445 54.497)">
                        <rect id="connector75pin" x="25.609" y="25.947" width="2.8347" height="3.0472" fill="#9A916C"/>
                    </g>
                
            </g>
            <rect id="connector76pin" x="13.347" y="45.357" width="3.0472" height="2.8347" fill="#9A916C"/>
            <rect id="connector77pin" x="18.166" y="45.357" width="3.0472" height="2.8347" fill="#9A916C"/>
            <rect id="connector78pin" x="14.247" y="41.037" width="3.0472" height="2.8347" fill="#9A916C"/>
            <rect id="connector79pin" x="19.066" y="41.037" width="3.0472" height="2.8347" fill="#9A916C"/>
            <circle id="connector80pin" cx="44.64" cy="9.514" r="3.8381" fill="none" stroke="#9A916C" stroke-width="1.44"/>
            <circle id="connector81pin" cx="5.76" cy="9.514" r="3.8381" fill="none" stroke="#9A916C" stroke-width="1.44"/>
            <g transform="matrix(-1 0 0 -1 68.542 41.698)">
                
                    <rect id="connector82pin" x="33.456" y="17.985" width="1.6299" height="3.2598" fill="#9A916C"/>
                
            </g>
            <g transform="matrix(-1 0 0 -1 64.006 41.698)">
                
                    <rect id="connector83pin" x="31.188" y="17.985" width="1.6299" height="3.2598" fill="#9A916C"/>
                
            </g>
            <g transform="matrix(-1 0 0 -1 57.487 41.698)">
                
                    <rect id="connector84pin" x="28.354" y="17.985" width=".7795" height="3.2598" fill="#9A916C"/>
                
            </g>
            <g transform="matrix(-1 0 0 -1 51.817 41.698)">
                
                    <rect id="connector85pin" x="25.519" y="17.985" width=".7795" height="3.2598" fill="#9A916C"/>
                
            </g>
            <g transform="matrix(-1 0 0 -1 48.983 41.698)">
                
                    <rect id="connector86pin" x="24.102" y="17.985" width=".7795" height="3.2598" fill="#9A916C"/>
                
            </g>
            <g transform="matrix(-1 0 0 -1 43.313 41.698)">
                
                    <rect id="connector87pin" x="21.267" y="17.985" width=".7795" height="3.2598" fill="#9A916C"/>
                
            </g>
            <g transform="matrix(-1 0 0 -1 32.258 41.698)">
                
                    <rect id="connector88pin" x="15.314" y="17.985" width="1.6299" height="3.2598" fill="#9A916C"/>
                
            </g>
            <g transform="matrix(-1 0 0 -1 36.794 41.698)">
                
                    <rect id="connector89pin" x="17.582" y="17.985" width="1.6299" height="3.2598" fill="#9A916C"/>
                
            </g>
            <g transform="matrix(-1 0 0 -1 40.479 41.698)">
                
                    <rect id="connector90pin" x="19.85" y="17.985" width=".7795" height="3.2598" fill="#9A916C"/>
                
            </g>
            <g transform="matrix(-1 0 0 -1 46.148 41.698)">
                
                    <rect id="connector91pin" x="22.684" y="17.985" width=".7795" height="3.2598" fill="#9A916C"/>
                
            </g>
            <g transform="matrix(-1 0 0 -1 54.652 41.698)">
                
                    <rect id="connector92pin" x="26.936" y="17.985" width=".7795" height="3.2598" fill="#9A916C"/>
                
            </g>
            <g transform="matrix(-1 0 0 -1 60.321 41.698)">
                
                    <rect id="connector93pin" x="29.771" y="17.985" width=".7795" height="3.2598" fill="#9A916C"/>
                
            </g>
            <circle id="connector94pin" cx="37.446" cy="20.453" r="1.2104" fill="none" stroke="#9A916C" stroke-width=".72"/>
            <path d="m36.235 17.669h2.4208v5.5678h-2.4208v-5.5678m0 2.7839c0 0.6685 0.5419 1.2104 1.2104 1.2104s1.2104-0.5419 1.2104-1.2104-0.5419-1.2104-1.2104-1.2104c-0.6685 1e-4 -1.2104 0.542-1.2104 1.2104z" fill="#9A916C"/>
            <circle id="connector95pin" cx="12.954" cy="20.453" r="1.2104" fill="none" stroke="#9A916C" stroke-width=".72"/>
            <path d="m11.744 17.669h2.4208v5.5678h-2.4208v-5.5678m0 2.7839c0 0.6685 0.5419 1.2104 1.2104 1.2104s1.2104-0.5419 1.2104-1.2104-0.5419-1.2104-1.2104-1.2104-1.2104 0.542-1.2104 1.2104z" fill="#9A916C"/>
            <circle id="connector96pin" cx="37.446" cy="8.6041" r="1.2104" fill="none" stroke="#9A916C" stroke-width=".72"/>
            <path d="m36.235 5.8202h2.4208v5.5678h-2.4208v-5.5678m0 2.7839c0 0.6685 0.5419 1.2104 1.2104 1.2104s1.2104-0.5419 1.2104-1.2104-0.5419-1.2104-1.2104-1.2104-1.2104 0.5419-1.2104 1.2104z" fill="#9A916C"/>
            <circle id="connector97pin" cx="12.954" cy="8.6041" r="1.2104" fill="none" stroke="#9A916C" stroke-width=".72"/>
            <path d="m11.744 5.8202h2.4208v5.5678h-2.4208v-5.5678m0 2.7839c0 0.6685 0.5419 1.2104 1.2104 1.2104s1.2104-0.5419 1.2104-1.2104-0.5419-1.2104-1.2104-1.2104-1.2104 0.5419-1.2104 1.2104z" fill="#9A916C"/>
        </g>
        <g transform="translate(15.732 35.046)">
            
                <g transform="matrix(-1 0 0 -1 4.535 2.268)">
                    
                        <path d="m4.245 1.034h-3.955c-0.16 0-0.29-0.13-0.29-0.291v-1.687c0-0.16 0.13-0.29 0.29-0.29h3.955c0.16 0 0.29 0.13 0.29 0.29v1.687c0 0.161-0.13 0.291-0.29 0.291z" fill="#DCDCDC"/>
                        <rect x="1.134" y="-1.234" width="2.268" height="2.268" fill="#6E554B"/>
                    
                </g>
            
        </g>
        <g transform="translate(30.826 27.928)">
            
                <g transform="matrix(0 1 -1 0 4.606 -1.063)">
                    
                        <path d="M6.62,3.543H1.517c-0.156,0-0.283-0.127-0.283-0.283V0.283C1.234,0.127,1.361,0,1.517,0h5.102c0.157,0,0.283,0.127,0.283,0.283V3.26C6.903,3.416,6.776,3.543,6.62,3.543z" fill="#DCDCDC"/>
                        <g transform="matrix(2.5352e-6 1 -1 2.5352e-6 5.84 -2.2971)">
                            <rect x="2.297" width="3.543" height="3.543" fill="#6E554B"/>
                        </g>
                    
                </g>
            
        </g>
        <g transform="translate(13.006 27.748)">
            
                <g transform="matrix(0 1 -1 0 4.606 -1.063)">
                    
                        <path d="M6.62,3.543H1.517c-0.156,0-0.283-0.127-0.283-0.283V0.283C1.234,0.127,1.361,0,1.517,0h5.102c0.157,0,0.283,0.127,0.283,0.283V3.26C6.903,3.416,6.776,3.543,6.62,3.543z" fill="#DCDCDC"/>
                        <g transform="matrix(2.5352e-6 1 -1 2.5352e-6 5.84 -2.2971)">
                            <rect x="2.297" width="3.543" height="3.543" fill="#6E554B"/>
                        </g>
                    
                </g>
            
        </g>
        <g transform="translate(12.672 62.586)">
            
                <g transform="matrix(0 -1 1 0 1.1335 3.4015)">
                    
                        <path d="m3.011 2.268h-3.955c-0.16 0-0.29-0.13-0.29-0.291v-1.687c0-0.16 0.13-0.29 0.29-0.29h3.955c0.16 0 0.29 0.13 0.29 0.29v1.687c0 0.161-0.13 0.291-0.29 0.291z" fill="#DCDCDC"/>
                        <g transform="matrix(-2.5352e-6 -1 1 -2.5352e-6 -.1 2.168)">
                            <rect x="-.1" width="2.268" height="2.268" fill="#6E554B"/>
                        </g>
                    
                </g>
            
        </g>
        <g transform="translate(31.906 61.408)">
            
                <g transform="matrix(0 1 -1 0 4.606 -1.063)">
                    
                        <path d="M6.62,3.543H1.517c-0.156,0-0.283-0.127-0.283-0.283V0.283C1.234,0.127,1.361,0,1.517,0h5.102c0.157,0,0.283,0.127,0.283,0.283V3.26C6.903,3.416,6.776,3.543,6.62,3.543z" fill="#DCDCDC"/>
                        <g transform="matrix(2.5352e-6 1 -1 2.5352e-6 5.84 -2.2971)">
                            <rect x="2.297" width="3.543" height="3.543" fill="#6E554B"/>
                        </g>
                    
                </g>
            
        </g>
        <g transform="translate(25.326 62.172)">
            
                <path d="m2.268 1.524v3.955c0 0.16-0.13 0.29-0.29 0.29h-1.688c-0.16 0-0.29-0.13-0.29-0.29v-3.955c0-0.16 0.13-0.29 0.29-0.29h1.687c0.161 0 0.291 0.13 0.291 0.29z" fill="#DCDCDC"/>
                <rect x="1e-4" y="2.3676" width="2.268" height="2.268" fill="#f00"/>
                <circle cx="1.134" cy="3.502" r=".354" fill="#A00000"/>
            
        </g>
        <g transform="translate(22.086 62.172)">
            
                <path d="m2.268 1.524v3.955c0 0.16-0.13 0.29-0.29 0.29h-1.688c-0.16 0-0.29-0.13-0.29-0.29v-3.955c0-0.16 0.13-0.29 0.29-0.29h1.687c0.161 0 0.291 0.13 0.291 0.29z" fill="#DCDCDC"/>
                <rect x="1e-4" y="2.3676" width="2.268" height="2.268" fill="#0f0"/>
                <circle cx="1.134" cy="3.502" r=".354" fill="#00B400"/>
            
        </g>
        <g transform="translate(24.571 41.131)">
            
                <g transform="matrix(0 1 -1 0 11.339 0)">
                    
                        
                            <path d="M1.801,0h10.2047c0.3131,0,0.5669,0.2538,0.5669,0.5669v10.2047c0,0.3131-0.2538,0.5669-0.5669,0.5669H1.801c-0.3131,0-0.5669-0.2538-0.5669-0.5669V0.5669C1.234,0.2538,1.4879,0,1.801,0z" fill="#333"/>
                            <circle cx="2.5025" cy="1.3208" r=".5381" fill="#666"/>
                        
                    
                </g>
            
        </g>
        <g transform="translate(27.972 62.766)">
            
                <g transform="matrix(0 -1 1 0 1.1335 3.4015)">
                    
                        <path d="m3.011 2.268h-3.955c-0.16 0-0.29-0.13-0.29-0.291v-1.687c0-0.16 0.13-0.29 0.29-0.29h3.955c0.16 0 0.29 0.13 0.29 0.29v1.687c0 0.161-0.13 0.291-0.29 0.291z" fill="#DCDCDC"/>
                        <g transform="matrix(-2.5352e-6 -1 1 -2.5352e-6 -.1 2.168)">
                            <rect x="-.1" width="2.268" height="2.268" fill="#333"/>
                        </g>
                    
                </g>
            
        </g>
        <g transform="translate(16.992 62.586)">
            
                <g transform="matrix(0 -1 1 0 1.1335 3.4015)">
                    
                        <path d="m3.011 2.268h-3.955c-0.16 0-0.29-0.13-0.29-0.291v-1.687c0-0.16 0.13-0.29 0.29-0.29h3.955c0.16 0 0.29 0.13 0.29 0.29v1.687c0 0.161-0.13 0.291-0.29 0.291z" fill="#DCDCDC"/>
                        <g transform="matrix(-2.5352e-6 -1 1 -2.5352e-6 -.1 2.168)">
                            <rect x="-.1" width="2.268" height="2.268" fill="#333"/>
                        </g>
                    
                </g>
            
        </g>
        <g transform="translate(19.512 28.386)">
            
                <g transform="matrix(0 -1 1 0 1.1335 3.4015)">
                    
                        <path d="m3.011 2.268h-3.955c-0.16 0-0.29-0.13-0.29-0.291v-1.687c0-0.16 0.13-0.29 0.29-0.29h3.955c0.16 0 0.29 0.13 0.29 0.29v1.687c0 0.161-0.13 0.291-0.29 0.291z" fill="#DCDCDC"/>
                        <g transform="matrix(-2.5352e-6 -1 1 -2.5352e-6 -.1 2.168)">
                            <rect x="-.1" width="2.268" height="2.268" fill="#333"/>
                        </g>
                    
                </g>
            
        </g>
        <g transform="translate(25.992 28.746)">
            
                <g transform="matrix(0 -1 1 0 1.1335 3.4015)">
                    
                        <path d="m3.011 2.268h-3.955c-0.16 0-0.29-0.13-0.29-0.291v-1.687c0-0.16 0.13-0.29 0.29-0.29h3.955c0.16 0 0.29 0.13 0.29 0.29v1.687c0 0.161-0.13 0.291-0.29 0.291z" fill="#DCDCDC"/>
                        <g transform="matrix(-2.5352e-6 -1 1 -2.5352e-6 -.1 2.168)">
                            <rect x="-.1" width="2.268" height="2.268" fill="#333"/>
                        </g>
                    
                </g>
            
        </g>
        <g transform="translate(15.012 44.406)">
            
                <path d="m4.245 3.502h-3.955c-0.16 0-0.29-0.13-0.29-0.291v-1.687c0-0.16 0.13-0.29 0.29-0.29h3.955c0.16 0 0.29 0.13 0.29 0.29v1.687c0 0.161-0.13 0.291-0.29 0.291z" fill="#DCDCDC"/>
                <rect x="1.134" y="1.234" width="2.268" height="2.268" fill="#333"/>
            
        </g>
        <g transform="translate(15.912 40.086)">
            
                <path d="m4.245 3.502h-3.955c-0.16 0-0.29-0.13-0.29-0.291v-1.687c0-0.16 0.13-0.29 0.29-0.29h3.955c0.16 0 0.29 0.13 0.29 0.29v1.687c0 0.161-0.13 0.291-0.29 0.291z" fill="#DCDCDC"/>
                <rect x="1.134" y="1.234" width="2.268" height="2.268" fill="#333"/>
            
        </g>
        <g transform="translate(12.605 47.104)">
            
                <path d="m9.747 4.316c-0.023-0.142-0.1-0.183-0.286-0.243-0.142-0.045-1.089-0.347-1.089-0.347s-0.66-0.249-1.15 0.103c-0.066 0.048-0.134 0.102-0.203 0.16 0.058-0.069 0.112-0.137 0.159-0.203 0.352-0.49 0.101-1.15 0.101-1.15s-0.303-0.947-0.349-1.089c-0.06-0.186-0.1-0.263-0.243-0.285-0.142-0.023-0.204 0.038-0.318 0.197-0.087 0.12-0.667 0.928-0.667 0.928s-0.441 0.551-0.257 1.126c0.025 0.077 0.055 0.159 0.089 0.242-0.048-0.076-0.096-0.149-0.144-0.214-0.358-0.486-1.062-0.452-1.062-0.452s-0.995-4e-3 -1.143-4e-3c-0.195 0-0.281 0.014-0.347 0.143-0.065 0.128-0.027 0.206 0.089 0.364 0.088 0.12 0.677 0.921 0.677 0.921s0.388 0.59 0.991 0.592c0.081 0 0.168-3e-3 0.257-0.01-0.087 0.022-0.171 0.046-0.248 0.071-0.573 0.19-0.758 0.871-0.758 0.871s-0.31 0.944-0.357 1.085c-0.061 0.186-0.073 0.272 0.029 0.374s0.188 0.09 0.374 0.028c0.141-0.046 1.085-0.359 1.085-0.359s0.681-0.187 0.869-0.76c0.025-0.077 0.049-0.16 0.07-0.247-6e-3 0.09-9e-3 0.176-9e-3 0.257 4e-3 0.603 0.594 0.99 0.594 0.99s0.802 0.588 0.922 0.675c0.158 0.116 0.236 0.154 0.365 0.089 0.128-0.066 0.143-0.152 0.142-0.347-1e-3 -0.149-6e-3 -1.143-6e-3 -1.143s0.033-0.705-0.454-1.062c-0.065-0.048-0.138-0.096-0.214-0.143 0.083 0.034 0.165 0.064 0.242 0.088 0.575 0.183 1.125-0.259 1.125-0.259s0.807-0.581 0.927-0.668c0.159-0.115 0.219-0.177 0.197-0.319zm-3.425-0.732c0.108 0.017 0.162 0.248 0.12 0.515s-0.164 0.47-0.273 0.453c-0.108-0.017-0.162-0.248-0.12-0.515 0.042-0.268 0.164-0.471 0.273-0.453zm-1.389 0.709c0.05-0.098 0.286-0.078 0.527 0.045s0.397 0.302 0.347 0.399c-0.05 0.098-0.286 0.078-0.527-0.045-0.242-0.123-0.397-0.301-0.347-0.399zm0.732 1.334c-0.191 0.191-0.409 0.284-0.487 0.206-0.077-0.078 0.015-0.296 0.206-0.487 0.191-0.192 0.409-0.285 0.487-0.207s-0.014 0.296-0.206 0.488zm1.054 0.449c-0.098 0.05-0.277-0.105-0.4-0.346-0.123-0.242-0.144-0.478-0.046-0.528s0.277 0.105 0.4 0.346c0.123 0.242 0.144 0.478 0.046 0.528zm0.254-1.117c-0.267 0.042-0.498-0.011-0.516-0.119-0.017-0.109 0.186-0.231 0.453-0.274s0.498 0.011 0.515 0.119c0.018 0.109-0.185 0.231-0.452 0.274z" fill="#DCDCDC"/>
            
        </g>
        <g transform="translate(12.529 .46585)">
            
                <g transform="matrix(-1 0 0 -1 25.342 21.572)">
                    
                        
                            <rect y="-.497" width="25.342" height="20.835" fill="#DCDCDC"/>
                            <path d="m3.458 0.07h-0.567v-1.304h0.567v1.304zm0.851-1.304h-0.567v1.304h0.567v-1.304zm1.417 0h-0.567v1.304h0.567v-1.304zm0.85 0h-0.567v1.304h0.567v-1.304zm1.418 0h-0.567v1.304h0.567v-1.304zm1.417 0h-0.567v1.304h0.567v-1.304zm1.417 0h-0.567v1.304h0.567v-1.304zm1.418 0h-0.567v1.304h0.567v-1.304zm1.417 0h-0.567v1.304h0.567v-1.304zm1.417 0h-0.567v1.304h0.567v-1.304zm1.418 0h-0.567v1.304h0.567v-1.304zm1.417 0h-0.567v1.304h0.567v-1.304zm1.417 0h-0.567v1.304h0.567v-1.304zm0.851 0h-0.567v1.304h0.567v-1.304zm1.417 0h-0.567v1.304h0.567v-1.304zm0.85 0h-0.567v1.304h0.567v-1.304z" fill="#DCDCDC"/>
                            <rect x="2.044" y="-.497" width="1.297" height="20.835" fill="#F0F0F0"/>
                            <rect x="22" y="-.497" width="1.297" height="20.835" fill="#BEBEBE"/>
                            <path d="m25.342-0.497v1.998h-0.283c-0.344 0-0.624-0.279-0.624-0.624v-0.532c0-0.344-0.279-0.624-0.624-0.624h-2.831c-0.344 0-0.624 0.279-0.624 0.624v2.021c0 0.344-0.279 0.624-0.624 0.624h-3.413c-0.344 0-0.624-0.279-0.624-0.624v-0.047c0-0.344 0.279-0.624 0.624-0.624h1.536c0.344 0 0.624-0.279 0.624-0.624v-0.726c0-0.344-0.279-0.624-0.624-0.624h-10.37c-0.344 0-0.624 0.279-0.624 0.624v0.727c0 0.344 0.279 0.624 0.624 0.624h1.536c0.344 0 0.624 0.279 0.624 0.624v0.046c0 0.344-0.279 0.624-0.624 0.624h-3.413c-0.344 0-0.624-0.279-0.624-0.624v-2.021c0-0.344-0.279-0.624-0.624-0.624h-2.83c-0.344 0-0.624 0.279-0.624 0.624v0.533c0 0.344-0.279 0.624-0.624 0.624h-0.282v-1.999h25.342z" fill="#8C8C8C"/>
                            <rect x="5.89" y="5.32" width="3.463" height="1.424" fill="#8C8C8C"/>
                            <rect x="15.989" y="5.3207" width="3.463" height="1.424" fill="#8C8C8C"/>
                        
                    
                </g>
            
        </g>
    </g>
</svg>
