<?xml version="1.0" encoding="UTF-8"?>
<!-- Generator: Adobe Illustrator 22.1.0, SVG Export Plug-In . SVG Version: 6.00 Build 0)  -->
<svg width=".7in" height=".65007in" enable-background="new 0 0 50.4 46.805" version="1.1" viewBox="0 0 50.4 46.805" xml:space="preserve" xmlns="http://www.w3.org/2000/svg" xmlns:xml="http://www.w3.org/XML/1998/namespace">
    <desc>
        <referenceFile>Adafruit MPRLS Sensor Breakout_breadboard.svg</referenceFile>
    </desc>
    <style type="text/css">
	.st0{fill:#014CB1;}
	.st1{fill:#FFFFFF;}
	.st2{font-family:'OCRA';}
	.st3{font-size:3.3408px;}
	.st4{font-size:5.0112px;}
	.st5{font-size:3.7584px;}
	.st6{fill:none;stroke:#FFFFFF;stroke-width:0.864;stroke-linecap:round;}
	.st7{fill:none;stroke:#FFFFFF;stroke-width:0.576;stroke-linecap:round;}
	.st8{fill:none;stroke:#FFFFFF;stroke-width:0.576;}
	.st9{fill:none;stroke:#FFFFFF;stroke-width:0.36;stroke-linecap:round;}
	.st10{fill:none;stroke:#FFFFFF;stroke-width:0.36;}
	.st11{fill:#9A916C;}
	.st12{fill:none;stroke:#9A916C;stroke-width:1.1027;}
	.st13{fill:none;stroke:#9A916C;stroke-width:1.44;}
	.st14{fill:#DCDCDC;}
	.st15{fill:#6E554B;}
	.st16{fill:#303030;}
	.st17{fill:#666666;}
	.st18{fill:#333333;}
	.st19{fill:#00800A;}
	.st20{fill:#B4B4B4;}
	.st21{fill:#646464;}
</style>
    <desc>Fritzing breadboard generated by brd2svg</desc>
    <g id="breadboard">
        <g id="icon">
            <path class="st0" d="m50.4 6.842v33.12c-0.099 3.877-3.323 6.939-7.2 6.84h-36c-3.976 0-7.2-3.224-7.2-7.2v-32.4c0-3.976 3.224-7.2 7.2-7.2h36c3.877-0.099 7.101 2.963 7.2 6.84m-26.592 17.056c0 0.783 0.635 1.417 1.417 1.417 0.783 0 1.417-0.635 1.417-1.417 0-0.783-0.635-1.417-1.417-1.417s-1.417 0.635-1.417 1.417zm-21.625 15.704c0 0.783 0.635 1.417 1.417 1.417s1.417-0.635 1.417-1.417-0.634-1.417-1.417-1.417-1.417 0.635-1.417 1.417zm7.2 0c0 0.783 0.635 1.417 1.417 1.417s1.417-0.635 1.417-1.417c0-0.783-0.635-1.417-1.417-1.417s-1.417 0.635-1.417 1.417zm7.2 0c0 0.783 0.635 1.417 1.417 1.417 0.783 0 1.417-0.635 1.417-1.417 0-0.783-0.635-1.417-1.417-1.417-0.783 0-1.417 0.635-1.417 1.417zm7.2 0c0 0.783 0.635 1.417 1.417 1.417 0.783 0 1.417-0.635 1.417-1.417 0-0.783-0.635-1.417-1.417-1.417-0.783 0-1.417 0.635-1.417 1.417zm7.2 0c0 0.783 0.635 1.417 1.417 1.417 0.783 0 1.417-0.635 1.417-1.417s-0.635-1.417-1.417-1.417c-0.783 0-1.417 0.635-1.417 1.417zm7.2 0c0 0.783 0.635 1.417 1.417 1.417s1.417-0.635 1.417-1.417-0.635-1.417-1.417-1.417-1.417 0.635-1.417 1.417zm7.2 0c0 0.783 0.635 1.417 1.417 1.417 0.783 0 1.417-0.635 1.417-1.417s-0.635-1.417-1.417-1.417-1.417 0.635-1.417 1.417zm-41.726-32.4c-3e-3 1.957 1.58 3.546 3.537 3.549s3.546-1.58 3.549-3.537v-0.012c3e-3 -1.957-1.58-3.546-3.537-3.549s-3.546 1.581-3.549 3.537v0.012zm36 0c-3e-3 1.957 1.58 3.546 3.537 3.55s3.546-1.58 3.55-3.537v-0.012c3e-3 -1.957-1.58-3.546-3.537-3.55-1.957-3e-3 -3.546 1.58-3.55 3.537v0.012z"/>
            <g>
                <title>layer 21</title>
                <g>
                    <title>text:VIN</title>
                    <g transform="translate(.6969 36.593)">
                        <text class="st1 st2 st3">VIN</text>
                    </g>
                </g>
                <g>
                    <title>text:3Vo</title>
                    <g transform="translate(7.897 45.953)">
                        <text class="st1 st2 st3">3Vo</text>
                    </g>
                </g>
                <g>
                    <title>text:GND</title>
                    <g transform="translate(14.737 36.593)">
                        <text class="st1 st2 st3">GND</text>
                    </g>
                </g>
                <g>
                    <title>text:SDA</title>
                    <g transform="translate(29.137 36.593)">
                        <text class="st1 st2 st3">SDA</text>
                    </g>
                </g>
                <g>
                    <title>text:SCL</title>
                    <g transform="translate(21.937 45.953)">
                        <text class="st1 st2 st3">SCL</text>
                    </g>
                </g>
                <g>
                    <title>text:MPRLS</title>
                    <g transform="translate(16.142 6.108)">
                        <text class="st1 st2 st4">MPRLS</text>
                    </g>
                </g>
                <g>
                    <title>text:EOC</title>
                    <g transform="translate(36.337 45.953)">
                        <text class="st1 st2 st3">EOC</text>
                    </g>
                </g>
                <g>
                    <title>text:RST</title>
                    <g transform="translate(42.817 36.593)">
                        <text class="st1 st2 st3">RST</text>
                    </g>
                </g>
                <g>
                    <title>text:pressure</title>
                    <g transform="translate(14.331 9.8016)">
                        <text class="st1 st2 st5">pressure</text>
                    </g>
                </g>
                <g>
                    <title>element:C1</title>
                    <g>
                        <title>package:0603-NO</title>
                        <line class="st6" x1="25.92" x2="25.92" y1="13.376" y2="11.108"/>
                    </g>
                </g>
                <g>
                    <title>element:C2</title>
                    <g>
                        <title>package:0805-NO</title>
                        <line class="st6" x1="6.48" x2="6.48" y1="29.162" y2="32.042"/>
                    </g>
                </g>
                <g>
                    <title>element:C3</title>
                    <g>
                        <title>package:0805-NO</title>
                        <line class="st6" x1="7.2" x2="7.2" y1="17.642" y2="14.762"/>
                    </g>
                </g>
                <g>
                    <title>element:C4</title>
                    <g>
                        <title>package:0603-NO</title>
                        <line class="st6" x1="25.56" x2="25.56" y1="30.188" y2="32.456"/>
                    </g>
                </g>
                <g>
                    <title>element:D1</title>
                    <g>
                        <title>package:SOD-323</title>
                        <line class="st7" x1="13.136" x2="13.136" y1="24.437" y2="18.768"/>
                        <line class="st7" x1="17.104" x2="17.104" y1="18.768" y2="24.437"/>
                        <line class="st7" x1="15.12" x2="13.986" y1="22.311" y2="20.61"/>
                        <line class="st7" x1="13.986" x2="16.254" y1="20.61" y2="20.61"/>
                        <line class="st7" x1="16.254" x2="15.12" y1="20.61" y2="22.311"/>
                        <g>
                            <title>polygon</title>
                            <path class="st7" d="m15.12 21.886-0.567-0.85h1.134l-0.567 0.85v-0.85 0.85"/>
                        </g>
                    </g>
                </g>
                <g>
                    <title>element:FID1</title>
                    <g>
                        <title>package:FIDUCIAL_1MM</title>
                    </g>
                </g>
                <g>
                    <title>element:FID2</title>
                    <g>
                        <title>package:FIDUCIAL_1MM</title>
                    </g>
                </g>
                <g>
                    <title>element:JP1</title>
                    <g>
                        <title>package:1X07_ROUND_70</title>
                    </g>
                </g>
                <g>
                    <title>element:Q2</title>
                    <g>
                        <title>package:SOT363</title>
                        <line class="st7" x1="38.324" x2="40.876" y1="31.56" y2="31.56"/>
                        <line class="st7" x1="38.324" x2="40.876" y1="25.324" y2="25.324"/>
                        <circle class="st8" cx="40.592" cy="32.694" r=".283"/>
                    </g>
                </g>
                <g>
                    <title>element:R1</title>
                    <g>
                        <title>package:0603-NO</title>
                        <line class="st6" x1="16.92" x2="16.92" y1="13.376" y2="11.108"/>
                    </g>
                </g>
                <g>
                    <title>element:R3</title>
                    <g>
                        <title>package:RESPACK_4X0603</title>
                        <line class="st7" x1="35.654" x2="35.654" y1="23.051" y2="15.114"/>
                        <line class="st7" x1="46.426" x2="46.426" y1="15.114" y2="23.051"/>
                    </g>
                </g>
                <g>
                    <title>element:U$1</title>
                    <g>
                        <title>package:ADAFRUIT_3.5MM</title>
                    </g>
                </g>
                <g>
                    <title>element:U$3</title>
                    <g>
                        <title>package:MOUNTINGHOLE_2.5_PLATED</title>
                        <circle class="st8" cx="7.2" cy="7.202" r="5.669"/>
                    </g>
                </g>
                <g>
                    <title>element:U$4</title>
                    <g>
                        <title>package:MOUNTINGHOLE_2.5_PLATED</title>
                        <circle class="st8" cx="43.2" cy="7.202" r="5.669"/>
                    </g>
                </g>
                <g>
                    <title>element:U$8</title>
                    <g>
                        <title>package:ADAFRUIT_2.5MM</title>
                    </g>
                </g>
                <g>
                    <title>element:U$18</title>
                    <g>
                        <title>package:MPR_SERIES_I2C_PRESSURE</title>
                        <line class="st9" x1="23.667" x2="27.635" y1="17.152" y2="17.152"/>
                        <line class="st9" x1="27.635" x2="29.903" y1="17.152" y2="19.42"/>
                        <line class="st9" x1="29.903" x2="29.903" y1="19.42" y2="23.105"/>
                        <path class="st10" d="m27.068 25.939c1.566 0 2.835-1.269 2.835-2.835"/>
                        <line class="st9" x1="27.068" x2="23.667" y1="25.939" y2="25.939"/>
                        <path class="st10" d="m20.832 23.105c0 1.566 1.269 2.835 2.835 2.835"/>
                        <line class="st9" x1="20.832" x2="20.832" y1="23.105" y2="19.987"/>
                        <path class="st10" d="m23.667 17.152c-1.566 0-2.835 1.269-2.835 2.835"/>
                        <circle class="st10" cx="25.367" cy="21.546" r="3.543"/>
                    </g>
                </g>
                <g>
                    <title>element:U$27</title>
                    <g>
                        <title>package:PCBFEAT-REV-040</title>
                    </g>
                </g>
                <g>
                    <title>element:U2</title>
                    <g>
                        <title>package:SOT23-5</title>
                        <line class="st7" x1="9.468" x2="4.932" y1="18.725" y2="18.725"/>
                        <line class="st7" x1="9.468" x2="4.932" y1="28.08" y2="28.08"/>
                        <line class="st7" x1="10.176" x2="10.176" y1="22.268" y2="24.536"/>
                    </g>
                </g>
            </g>
            <g transform="matrix(-1 0 0 -1 56.659 24.485)">
                
                    <rect id="connector5pin" class="st11" x="26.806" y="10.825" width="3.047" height="2.835"/>
                
            </g>
            <g transform="matrix(-1 0 0 -1 47.021 24.485)">
                
                    <rect id="connector6pin" class="st11" x="21.987" y="10.825" width="3.047" height="2.835"/>
                
            </g>
            <rect id="connector7pin" class="st11" x="2.03" y="28.476" width="3.515" height="4.252"/>
            <rect id="connector8pin" class="st11" x="7.415" y="28.476" width="3.515" height="4.252"/>
            <g transform="matrix(-1 0 0 -1 19.786 32.405)">
                
                    <rect id="connector9pin" class="st11" x="8.135" y="14.076" width="3.515" height="4.252"/>
                
            </g>
            <g transform="matrix(-1 0 0 -1 9.0142 32.405)">
                
                    <rect id="connector10pin" class="st11" x="2.75" y="14.076" width="3.515" height="4.252"/>
                
            </g>
            <rect id="connector11pin" class="st11" x="21.627" y="29.905" width="3.047" height="2.835"/>
            <rect id="connector12pin" class="st11" x="26.446" y="29.905" width="3.047" height="2.835"/>
            <g transform="matrix(0 -1 1 0 -2.8823 33.122)">
                
                    <g transform="matrix(-2.5352e-6 -1 1 -2.5352e-6 -2.8823 33.122)">
                        <rect id="connector13pin" class="st11" x="13.986" y="16.089" width="2.268" height="3.827"/>
                    </g>
                
            </g>
            <g transform="matrix(0 -1 1 0 -10.082 40.322)">
                
                    <g transform="matrix(-2.5352e-6 -1 1 -2.5352e-6 -10.082 40.322)">
                        <rect id="connector14pin" class="st11" x="13.986" y="23.289" width="2.268" height="3.827"/>
                    </g>
                
            </g>
            <path id="connector15pin" class="st11" d="m34.92 10.465c0.783 0 1.417 0.635 1.417 1.417 0 0.783-0.635 1.417-1.417 1.417-0.783 0-1.417-0.635-1.417-1.417s0.634-1.417 1.417-1.417z"/>
            <path id="connector16pin" class="st11" d="m16.56 29.185c0.783 0 1.417 0.635 1.417 1.417 0 0.783-0.635 1.417-1.417 1.417-0.783 0-1.417-0.635-1.417-1.417s0.634-1.417 1.417-1.417z"/>
            <circle id="connector17pin" class="st12" cx="3.6" cy="39.602" r="1.969"/>
            <circle id="connector18pin" class="st12" cx="10.8" cy="39.602" r="1.969"/>
            <circle id="connector19pin" class="st12" cx="18" cy="39.602" r="1.969"/>
            <circle id="connector20pin" class="st12" cx="25.2" cy="39.602" r="1.969"/>
            <circle id="connector21pin" class="st12" cx="32.4" cy="39.602" r="1.969"/>
            <circle id="connector22pin" class="st12" cx="39.6" cy="39.602" r="1.969"/>
            <circle id="connector23pin" class="st12" cx="46.8" cy="39.602" r="1.969"/>
            <g transform="matrix(0 -1 1 0 11.583 72.719)">
                
                    <g transform="matrix(-2.5352e-6 -1 1 -2.5352e-6 11.583 72.72)">
                        <rect id="connector24pin" class="st11" x="41.443" y="29.86" width="1.417" height="1.417"/>
                    </g>
                
            </g>
            <g transform="matrix(0 -1 1 0 13.709 70.594)">
                
                    <g transform="matrix(-2.5352e-6 -1 1 -2.5352e-6 13.709 70.593)">
                        <rect id="connector25pin" class="st11" x="41.442" y="27.875" width="1.417" height="1.134"/>
                    </g>
                
            </g>
            <g transform="matrix(0 -1 1 0 15.835 68.468)">
                
                    <g transform="matrix(-2.5352e-6 -1 1 -2.5352e-6 15.835 68.468)">
                        <rect id="connector26pin" class="st11" x="41.443" y="25.608" width="1.417" height="1.417"/>
                    </g>
                
            </g>
            <g transform="matrix(0 -1 1 0 10.732 63.365)">
                
                    <g transform="matrix(-2.5352e-6 -1 1 -2.5352e-6 10.732 63.365)">
                        <rect id="connector27pin" class="st11" x="36.34" y="25.608" width="1.417" height="1.417"/>
                    </g>
                
            </g>
            <g transform="matrix(0 -1 1 0 8.6065 65.491)">
                
                    <g transform="matrix(-2.5352e-6 -1 1 -2.5352e-6 8.6066 65.491)">
                        <rect id="connector28pin" class="st11" x="36.34" y="27.875" width="1.417" height="1.134"/>
                    </g>
                
            </g>
            <g transform="matrix(0 -1 1 0 6.4805 67.617)">
                
                    <g transform="matrix(-2.5352e-6 -1 1 -2.5352e-6 6.4805 67.617)">
                        <rect id="connector29pin" class="st11" x="36.34" y="29.86" width="1.417" height="1.417"/>
                    </g>
                
            </g>
            <g transform="matrix(-1 0 0 -1 38.659 24.485)">
                
                    <rect id="connector30pin" class="st11" x="17.806" y="10.825" width="3.047" height="2.835"/>
                
            </g>
            <g transform="matrix(-1 0 0 -1 29.021 24.485)">
                
                    <rect id="connector31pin" class="st11" x="12.987" y="10.825" width="3.047" height="2.835"/>
                
            </g>
            <g transform="matrix(-1 0 0 -1 89.45 33.346)">
                
                    <rect id="connector32pin" class="st11" x="44.087" y="15.397" width="1.276" height="2.551"/>
                
            </g>
            <g transform="matrix(-1 0 0 -1 84.348 33.346)">
                
                    <rect id="connector33pin" class="st11" x="41.536" y="15.397" width="1.276" height="2.551"/>
                
            </g>
            <g transform="matrix(-1 0 0 -1 79.812 33.346)">
                
                    <rect id="connector34pin" class="st11" x="39.268" y="15.397" width="1.276" height="2.551"/>
                
            </g>
            <g transform="matrix(-1 0 0 -1 74.71 33.346)">
                
                    <rect id="connector35pin" class="st11" x="36.717" y="15.397" width="1.276" height="2.551"/>
                
            </g>
            <g transform="matrix(-1 0 0 -1 74.71 42.984)">
                
                    <rect id="connector36pin" class="st11" x="36.717" y="20.216" width="1.276" height="2.551"/>
                
            </g>
            <g transform="matrix(-1 0 0 -1 79.812 42.984)">
                
                    <rect id="connector37pin" class="st11" x="39.268" y="20.216" width="1.276" height="2.551"/>
                
            </g>
            <g transform="matrix(-1 0 0 -1 84.348 42.984)">
                
                    <rect id="connector38pin" class="st11" x="41.536" y="20.216" width="1.276" height="2.551"/>
                
            </g>
            <g transform="matrix(-1 0 0 -1 89.45 42.984)">
                
                    <rect id="connector39pin" class="st11" x="44.087" y="20.216" width="1.276" height="2.551"/>
                
            </g>
            <circle id="connector40pin" class="st13" cx="7.2" cy="7.202" r="4.263"/>
            <circle id="connector41pin" class="st13" cx="43.2" cy="7.202" r="4.263"/>
            <g transform="matrix(0 -1 1 0 13.318 49.322)">
                
                    <g transform="matrix(-2.5352e-6 -1 1 -2.5352e-6 13.318 49.322)">
                        <rect id="connector42pin" class="st11" x="30.399" y="17.01" width="1.843" height="1.984"/>
                    </g>
                
            </g>
            <g transform="matrix(0 -1 1 0 9.7177 52.922)">
                
                    <g transform="matrix(-2.5352e-6 -1 1 -2.5352e-6 9.7176 52.922)">
                        <rect id="connector43pin" class="st11" x="30.399" y="20.61" width="1.843" height="1.984"/>
                    </g>
                
            </g>
            <g transform="matrix(0 -1 1 0 6.1177 56.522)">
                
                    <g transform="matrix(-2.5352e-6 -1 1 -2.5352e-6 6.1176 56.522)">
                        <rect id="connector44pin" class="st11" x="30.399" y="24.21" width="1.843" height="1.984"/>
                    </g>
                
            </g>
            <g transform="matrix(0 -1 1 0 1.5539 56.38)">
                
                    <g transform="matrix(-2.5352e-6 -1 1 -2.5352e-6 1.554 56.38)">
                        <rect id="connector45pin" class="st11" x="28.046" y="26.492" width="1.843" height="1.843"/>
                    </g>
                
            </g>
            <g transform="matrix(0 -1 1 0 -2.0461 52.78)">
                
                    <g transform="matrix(-2.5352e-6 -1 1 -2.5352e-6 -2.046 52.78)">
                        <rect id="connector46pin" class="st11" x="24.446" y="26.421" width="1.843" height="1.984"/>
                    </g>
                
            </g>
            <g transform="matrix(0 -1 1 0 -5.6461 49.18)">
                
                    <g transform="matrix(-2.5352e-6 -1 1 -2.5352e-6 -5.646 49.18)">
                        <rect id="connector47pin" class="st11" x="20.846" y="26.492" width="1.843" height="1.843"/>
                    </g>
                
            </g>
            <g transform="matrix(0 -1 1 0 -5.7878 44.617)">
                
                    <g transform="matrix(-2.5352e-6 -1 1 -2.5352e-6 -5.7878 44.617)">
                        <rect id="connector48pin" class="st11" x="18.493" y="24.21" width="1.843" height="1.984"/>
                    </g>
                
            </g>
            <g transform="matrix(0 -1 1 0 -2.1878 41.017)">
                
                    <g transform="matrix(-2.5352e-6 -1 1 -2.5352e-6 -2.1878 41.017)">
                        <rect id="connector49pin" class="st11" x="18.493" y="20.61" width="1.843" height="1.984"/>
                    </g>
                
            </g>
            <g transform="matrix(0 -1 1 0 1.4122 37.417)">
                
                    <g transform="matrix(-2.5352e-6 -1 1 -2.5352e-6 1.4122 37.417)">
                        <rect id="connector50pin" class="st11" x="18.493" y="17.01" width="1.843" height="1.984"/>
                    </g>
                
            </g>
            <g transform="matrix(0 -1 1 0 6.1177 37.417)">
                
                    <g transform="matrix(-2.5352e-6 -1 1 -2.5352e-6 6.1177 37.417)">
                        <rect id="connector51pin" class="st11" x="20.846" y="14.657" width="1.843" height="1.984"/>
                    </g>
                
            </g>
            <g transform="matrix(0 -1 1 0 9.7177 41.017)">
                
                    <g transform="matrix(-2.5352e-6 -1 1 -2.5352e-6 9.7177 41.017)">
                        <rect id="connector52pin" class="st11" x="24.446" y="14.657" width="1.843" height="1.984"/>
                    </g>
                
            </g>
            <g transform="matrix(0 -1 1 0 13.318 44.617)">
                
                    <g transform="matrix(-2.5352e-6 -1 1 -2.5352e-6 13.318 44.617)">
                        <rect id="connector53pin" class="st11" x="28.046" y="14.657" width="1.843" height="1.984"/>
                    </g>
                
            </g>
            <g transform="matrix(0 1 -1 0 24.224 17.195)">
                
                    <g transform="matrix(2.5352e-6 1 -1 2.5352e-6 24.224 17.195)">
                        <rect id="connector54pin" class="st11" x="1.814" y="19.93" width="3.402" height="1.559"/>
                    </g>
                
            </g>
            <g transform="matrix(0 1 -1 0 26.917 19.888)">
                
                    <g transform="matrix(2.5352e-6 1 -1 2.5352e-6 26.917 19.888)">
                        <rect id="connector55pin" class="st11" x="1.814" y="22.623" width="3.402" height="1.559"/>
                    </g>
                
            </g>
            <g transform="matrix(0 1 -1 0 29.61 22.581)">
                
                    <g transform="matrix(2.5352e-6 1 -1 2.5352e-6 29.61 22.58)">
                        <rect id="connector56pin" class="st11" x="1.814" y="25.316" width="3.402" height="1.559"/>
                    </g>
                
            </g>
            <g transform="matrix(0 1 -1 0 36.981 15.21)">
                
                    <g transform="matrix(2.5352e-6 1 -1 2.5352e-6 36.981 15.21)">
                        <rect id="connector57pin" class="st11" x="9.185" y="25.316" width="3.402" height="1.559"/>
                    </g>
                
            </g>
            <g transform="matrix(0 1 -1 0 31.595 9.824)">
                
                    <g transform="matrix(2.5352e-6 1 -1 2.5352e-6 31.595 9.824)">
                        <rect id="connector58pin" class="st11" x="9.185" y="19.93" width="3.402" height="1.559"/>
                    </g>
                
            </g>
        </g>
        <g transform="translate(23.652 11.108)">
            
                <g transform="matrix(-1 0 0 -1 4.535 2.268)">
                    
                        <path class="st14" d="M4.245,2.268H0.29C0.13,2.268,0,2.138,0,1.977V0.29C0,0.13,0.13,0,0.29,0h3.955c0.16,0,0.29,0.13,0.29,0.29v1.687C4.535,2.138,4.405,2.268,4.245,2.268z"/>
                        <rect class="st15" x="1.134" width="2.268" height="2.268"/>
                    
                </g>
            
        </g>
        <g transform="translate(3.6455 28.831)">
            
                <path class="st14" d="M5.386,3.543H0.283C0.127,3.543,0,3.416,0,3.26V0.283C0,0.127,0.127,0,0.283,0h5.102c0.157,0,0.283,0.127,0.283,0.283V3.26C5.669,3.416,5.542,3.543,5.386,3.543z"/>
                <rect class="st15" x="1.063" width="3.543" height="3.543"/>
            
        </g>
        <g transform="translate(4.3655 14.431)">
            
                <g transform="matrix(-1 0 0 -1 5.669 3.543)">
                    
                        <path class="st14" d="M5.386,3.543H0.283C0.127,3.543,0,3.416,0,3.26V0.283C0,0.127,0.127,0,0.283,0h5.102c0.157,0,0.283,0.127,0.283,0.283V3.26C5.669,3.416,5.542,3.543,5.386,3.543z"/>
                        <rect class="st15" x="1.063" width="3.543" height="3.543"/>
                    
                </g>
            
        </g>
        <g transform="translate(23.292 30.188)">
            
                <path class="st14" d="M4.245,2.268H0.29C0.13,2.268,0,2.138,0,1.977V0.29C0,0.13,0.13,0,0.29,0h3.955c0.16,0,0.29,0.13,0.29,0.29v1.687C4.535,2.138,4.405,2.268,4.245,2.268z"/>
                <rect class="st15" x="1.134" width="2.268" height="2.268"/>
            
        </g>
        <g transform="translate(11.576 19.831)">
            
                <g transform="matrix(0 -1 1 0 1.772 5.315)">
                    
                        <g transform="matrix(-2.5352e-6 -1 1 -2.5352e-6 1.7725 5.3145)">
                            <rect class="st14" x="3.118" y="-1.772" width=".85" height="7.087"/>
                        </g>
                        <g transform="matrix(-2.5352e-6 -1 1 -2.5352e-6 1.772 5.3149)">
                            <rect class="st16" x="1.772" y="-.638" width="3.543" height="4.819"/>
                        </g>
                        <g transform="matrix(-2.5352e-6 -1 1 -2.5352e-6 .0857 3.6647)">
                            <rect class="st17" x=".097" y="1.473" width="3.556" height=".633"/>
                        </g>
                    
                </g>
            
        </g>
        <g transform="translate(36.056 25.633)">
            
                <g transform="matrix(0 -1 1 0 .567 6.52)">
                    
                        
                            <g transform="matrix(-2.5352e-6 -1 1 -2.5352e-6 .7346 6.6876)">
                                <rect class="st14" x=".735" y="2.622" width="5.953" height=".709"/>
                            </g>
                            <g transform="matrix(-2.5352e-6 -1 1 -2.5352e-6 2.5776 8.5306)">
                                <rect class="st14" x="2.578" y="2.622" width="5.953" height=".709"/>
                            </g>
                            <g transform="matrix(-2.5352e-6 -1 1 -2.5352e-6 -1.1074 4.8456)">
                                <rect class="st14" x="-1.107" y="2.622" width="5.953" height=".709"/>
                            </g>
                            <g transform="matrix(-2.5352e-6 -1 1 -2.5352e-6 .7346 6.6876)">
                                <rect class="st16" x="1.94" y=".142" width="3.543" height="5.669"/>
                            </g>
                        
                    
                </g>
            
        </g>
        <g transform="translate(14.652 11.108)">
            
                <g transform="matrix(-1 0 0 -1 4.535 2.268)">
                    
                        <path class="st14" d="M4.245,2.268H0.29C0.13,2.268,0,2.138,0,1.977V0.29C0,0.13,0.13,0,0.29,0h3.955c0.16,0,0.29,0.13,0.29,0.29v1.687C4.535,2.138,4.405,2.268,4.245,2.268z"/>
                        <rect class="st18" x="1.134" width="2.268" height="2.268"/>
                    
                </g>
            
        </g>
        <g transform="translate(36.504 16.815)">
            
                <g transform="matrix(-1 0 0 -1 9.071 4.535)">
                    
                        
                            <rect class="st14" width="1.843" height="4.535"/>
                            <rect class="st14" x="2.693" width="1.417" height="4.535"/>
                            <rect class="st14" x="4.961" width="1.417" height="4.535"/>
                            <rect class="st14" x="7.228" width="1.843" height="4.535"/>
                            <rect class="st16" y=".85" width="9.071" height="2.835"/>
                        
                    
                </g>
            
        </g>
        <g transform="translate(40.325 23.706)">
            
                <path class="st14" d="m9.747 3.082c-0.023-0.142-0.1-0.183-0.286-0.243-0.142-0.045-1.089-0.347-1.089-0.347s-0.66-0.249-1.15 0.103c-0.066 0.048-0.134 0.102-0.203 0.16 0.058-0.069 0.112-0.137 0.159-0.203 0.352-0.49 0.101-1.15 0.101-1.15s-0.303-0.947-0.349-1.089c-0.06-0.186-0.1-0.263-0.243-0.285-0.142-0.023-0.204 0.038-0.318 0.197-0.087 0.12-0.667 0.928-0.667 0.928s-0.441 0.551-0.257 1.126c0.025 0.077 0.055 0.159 0.089 0.242-0.048-0.076-0.096-0.149-0.144-0.214-0.358-0.486-1.062-0.452-1.062-0.452s-0.995-4e-3 -1.143-4e-3c-0.195 0-0.281 0.014-0.347 0.143-0.065 0.128-0.027 0.206 0.089 0.364 0.088 0.12 0.677 0.921 0.677 0.921s0.388 0.59 0.991 0.592c0.081 0 0.168-3e-3 0.257-0.01-0.087 0.022-0.171 0.046-0.248 0.071-0.573 0.19-0.758 0.871-0.758 0.871s-0.31 0.944-0.357 1.085c-0.061 0.186-0.073 0.272 0.029 0.374s0.188 0.09 0.374 0.028c0.141-0.046 1.085-0.359 1.085-0.359s0.681-0.187 0.869-0.76c0.025-0.077 0.049-0.16 0.07-0.247-6e-3 0.09-9e-3 0.176-9e-3 0.257 4e-3 0.603 0.594 0.99 0.594 0.99s0.802 0.588 0.922 0.675c0.158 0.116 0.236 0.154 0.365 0.089 0.128-0.066 0.143-0.152 0.142-0.347-1e-3 -0.149-6e-3 -1.143-6e-3 -1.143s0.033-0.705-0.454-1.062c-0.065-0.048-0.138-0.096-0.214-0.143 0.083 0.034 0.165 0.064 0.242 0.088 0.575 0.183 1.125-0.259 1.125-0.259s0.807-0.581 0.927-0.668c0.159-0.115 0.219-0.177 0.197-0.319zm-3.425-0.732c0.108 0.017 0.162 0.248 0.12 0.515s-0.164 0.47-0.273 0.453c-0.108-0.017-0.162-0.248-0.12-0.515 0.042-0.268 0.164-0.471 0.273-0.453zm-1.389 0.709c0.05-0.098 0.286-0.078 0.527 0.045s0.397 0.302 0.347 0.399c-0.05 0.098-0.286 0.078-0.527-0.045-0.242-0.123-0.397-0.301-0.347-0.399zm0.732 1.334c-0.191 0.191-0.409 0.284-0.487 0.206-0.077-0.078 0.015-0.296 0.206-0.487 0.191-0.192 0.409-0.285 0.487-0.207s-0.014 0.296-0.206 0.488zm1.054 0.449c-0.098 0.05-0.277-0.105-0.4-0.346-0.123-0.242-0.144-0.478-0.046-0.528s0.277 0.105 0.4 0.346c0.123 0.242 0.144 0.478 0.046 0.528zm0.254-1.117c-0.267 0.042-0.498-0.011-0.516-0.119-0.017-0.109 0.186-0.231 0.453-0.274s0.498 0.011 0.515 0.119c0.018 0.109-0.185 0.231-0.452 0.274z"/>
            
        </g>
        <g transform="translate(18.281 14.445)">
            
                <g transform="matrix(0 1 -1 0 14.173 0)">
                    
                        
                            <g transform="matrix(2.5352e-6 1 -1 2.5352e-6 14.173 -7.1327e-5)">
                                <rect class="st19" width="14.173" height="14.173"/>
                            </g>
                            <path class="st20" d="m4.961 0.709h4.252c2.348 0 4.252 1.904 4.252 4.252v4.252c0 2.348-1.904 4.252-4.252 4.252h-4.252c-2.348 0-4.252-1.904-4.252-4.252v-4.252c0-2.349 1.903-4.252 4.252-4.252z"/>
                            <path class="st14" d="m9.213 1.417c1.957 0 3.543 1.586 3.543 3.543v4.252c0 1.957-1.586 3.543-3.543 3.543h-4.252c-1.957 0-3.543-1.586-3.543-3.543v-4.252l3.543-3.543h4.252z"/>
                            <circle class="st20" cx="7.087" cy="7.087" r="4.252"/>
                            <circle class="st21" cx="7.087" cy="7.087" r="3.543"/>
                        
                    
                </g>
            
        </g>
        <g transform="translate(3.09 19.575)">
            
                <g transform="matrix(0 1 -1 0 7.9371 -.283)">
                    
                        
                            <g transform="matrix(2.5352e-6 1 -1 2.5352e-6 5.2441 2.4099)">
                                <rect class="st14" x="-2.41" y="3.26" width="7.654" height="1.134"/>
                            </g>
                            <g transform="matrix(2.5352e-6 1 -1 2.5352e-6 10.63 -2.976)">
                                <rect class="st14" x="2.976" y="3.26" width="7.654" height="1.134"/>
                            </g>
                            <g transform="matrix(2.5352e-6 1 -1 2.5352e-6 10.204 1.9839)">
                                <rect class="st14" x="2.551" y="5.527" width="3.118" height="1.134"/>
                            </g>
                            <g transform="matrix(2.5352e-6 1 -1 2.5352e-6 7.9366 -.2836)">
                                <rect class="st16" x="1.843" y="-.284" width="4.535" height="8.22"/>
                            </g>
                        
                    
                </g>
            
        </g>
    </g>
</svg>
