<?xml version="1.0" encoding="UTF-8"?>
<!-- Created with Fritzing (http://www.fritzing.org/) -->
<svg width="1.1001in" height=".975in" baseProfile="tiny" version="1.2" viewBox="0 0 79.204 70.2" xmlns="http://www.w3.org/2000/svg">
 <desc>
  <referenceFile>prefix0000_4a65f43fa6380d4b809ee2a01fe1387f_1_breadboard.svg</referenceFile>
 </desc>
 <desc>Fritzing breadboard generated by brd2svg</desc>
 <g id="breadboard">
  <g id="icon">
   <path d="m0.0021969 63v-52.2a7.3822 7.3822 0 0 1 7.2-7.56h12.415a7.0363 7.0363 0 0 1 4.7412 1.4214l6.0082 3.9971a9.4792 9.4792 0 0 0 6.1812 2.5014h6.65a7.2 7.2 0 0 0 4.9714-1.9918l5.1866-3.5764a11.019 11.019 0 0 1 7.8514-2.3518h10.795a7.3822 7.3822 0 0 1 7.2 7.56v52.2a7.2 7.2 0 0 1-7.2 7.2h-64.8a7.2 7.2 0 0 1-7.2-7.2m48.24 2.16a1.44 1.44 0 1 0 2.88 0 1.44 1.44 0 1 0-2.88 0zm-7.2 0a1.44 1.44 0 1 0 2.88 0 1.44 1.44 0 1 0-2.88 0zm-7.2 0a1.44 1.44 0 1 0 2.88 0 1.44 1.44 0 1 0-2.88 0zm-7.2 0a1.44 1.44 0 1 0 2.88 0 1.44 1.44 0 1 0-2.88 0zm-22.983-54a3.5433 3.5433 0 1 0 7.0866 0 3.5433 3.5433 0 1 0-7.0866 0zm65.52 0a3.5433 3.5433 0 1 0 7.0866 0 3.5433 3.5433 0 1 0-7.0866 0zm-65.52 51.84a3.5433 3.5433 0 1 0 7.0866 0 3.5433 3.5433 0 1 0-7.0866 0zm64.8 0a3.5433 3.5433 0 1 0 7.0866 0 3.5433 3.5433 0 1 0-7.0866 0z" fill="#014cb1" stroke-width="0"/>
   <g>
    <title>layer 21</title>
    <g>
     <title>text:</title>
    </g>
    <g>
     <title>text:CR2032</title>
     <text x="11.5222" y="55.008" fill="#ffffff" font-family="OCRA" font-size="4.176" stroke-width="0" text-anchor="middle">CR2032</text>
    </g>
    <g>
     <title>text:3V</title>
     <text x="28.8022" y="61.56" fill="#ffffff" font-family="OCRA" font-size="4.176" stroke-width="0">3V</text>
    </g>
    <g>
     <title>text:GND</title>
     <text x="41.7622" y="61.56" fill="#ffffff" font-family="OCRA" font-size="4.176" stroke-width="0">GND</text>
    </g>
    <g>
     <title>text:Coin
Cell</title>
     <g transform="translate(0 -3.3408)">
      <text x="2.1622" y="49.32" fill="#ffffff" font-family="OCRA" font-size="3.3408" stroke-width="0">Coin</text>
     </g>
     <g transform="translate(0)">
      <text x="2.1622" y="49.32" fill="#ffffff" font-family="OCRA" font-size="3.3408" stroke-width="0">Cell</text>
     </g>
    </g>
    <g>
     <title>element:B1</title>
     <g>
      <title>package:CR2032_SMT_BAT-HLD-001</title>
      <line x1="60.862" x2="18.909" y1="49.21" y2="49.21" stroke="#fff" stroke-linecap="round" stroke-width=".36"/>
      <line x1="18.059" x2="10.405" y1="49.21" y2="41.556" stroke="#fff" stroke-linecap="round" stroke-width=".36"/>
      <line x1="10.405" x2="10.405" y1="41.556" y2="35.603" stroke="#fff" stroke-linecap="round" stroke-width=".36"/>
      <line x1="10.405" x2="10.405" y1="21.43" y2="16.894" stroke="#fff" stroke-linecap="round" stroke-width=".36"/>
      <line x1="10.405" x2="18.909" y1="16.894" y2="8.3905" stroke="#fff" stroke-linecap="round" stroke-width=".36"/>
      <path d="m27.413 7.5401a6.7481 6.7481 0 0 0-8.5039 0.85039" fill="none" stroke="#fff" stroke-width=".36"/>
      <path d="m27.413 7.5401a22.807 22.807 0 0 0 25.228 0" fill="none" stroke="#fff" stroke-width=".36"/>
      <path d="m61.146 8.3905a6.7481 6.7481 0 0 0-8.5039-0.85039" fill="none" stroke="#fff" stroke-width=".36"/>
      <line x1="61.146" x2="69.082" y1="8.3905" y2="16.328" stroke="#fff" stroke-linecap="round" stroke-width=".36"/>
      <line x1="69.082" x2="69.082" y1="16.328" y2="21.43" stroke="#fff" stroke-linecap="round" stroke-width=".36"/>
      <line x1="69.082" x2="69.082" y1="35.887" y2="40.989" stroke="#fff" stroke-linecap="round" stroke-width=".36"/>
      <line x1="69.082" x2="60.862" y1="40.989" y2="49.21" stroke="#fff" stroke-linecap="round" stroke-width=".36"/>
     </g>
    </g>
    <g>
     <title>element:CN1</title>
     <g>
      <title>package:1X04-CLEANBIG</title>
     </g>
    </g>
    <g>
     <title>element:FID1</title>
     <g>
      <title>package:FIDUCIAL_1MM</title>
     </g>
    </g>
    <g>
     <title>element:FID2</title>
     <g>
      <title>package:FIDUCIAL_1MM</title>
     </g>
    </g>
    <g>
     <title>element:U$1</title>
     <g>
      <title>package:MOUNTINGHOLE_2.5_PLATED</title>
      <circle cx="7.2022" cy="11.16" r="5.6693" fill="none" stroke="#fff" stroke-width=".576"/>
     </g>
    </g>
    <g>
     <title>element:U$2</title>
     <g>
      <title>package:MOUNTINGHOLE_2.5_PLATED</title>
      <circle cx="72.722" cy="11.16" r="5.6693" fill="none" stroke="#fff" stroke-width=".576"/>
     </g>
    </g>
    <g>
     <title>element:U$3</title>
     <g>
      <title>package:MOUNTINGHOLE_2.5_PLATED</title>
      <circle cx="7.2022" cy="63" r="5.6693" fill="none" stroke="#fff" stroke-width=".576"/>
     </g>
    </g>
    <g>
     <title>element:U$4</title>
     <g>
      <title>package:ADAFRUIT_5MM</title>
     </g>
    </g>
    <g>
     <title>element:U$5</title>
     <g>
      <title>package:MOUNTINGHOLE_2.5_PLATED</title>
      <circle cx="72.002" cy="63" r="5.6693" fill="none" stroke="#fff" stroke-width=".576"/>
     </g>
    </g>
    <g>
     <title>element:U$6</title>
     <g>
      <title>package:SYMBOL_PLUS</title>
      <line x1="23.087" x2="20.837" y1="65.16" y2="65.16" stroke="#fff" stroke-linecap="round" stroke-width=".864"/>
      <line x1="21.962" x2="21.962" y1="64.035" y2="66.285" stroke="#fff" stroke-linecap="round" stroke-width=".864"/>
      <circle cx="21.962" cy="65.16" r="2.2158" fill="none" stroke="#fff" stroke-width=".576"/>
     </g>
    </g>
    <g>
     <title>element:U$7</title>
     <g>
      <title>package:SYMBOL_MINUS</title>
      <line x1="56.927" x2="54.677" y1="65.16" y2="65.16" stroke="#fff" stroke-linecap="round" stroke-width=".864"/>
      <circle cx="55.802" cy="65.16" r="2.2158" fill="none" stroke="#fff" stroke-width=".576"/>
     </g>
    </g>
   </g>
   <g transform="matrix(-1 0 0 -1 144 57.6)">
    <rect id="connector0pin" x="68.402" y="21.6" width="7.2" height="14.4" fill="#9A916C" stroke-width="0"/>
   </g>
   <g transform="matrix(-1 0 0 -1 14.404 57.6)">
    <rect id="connector1pin" x="3.6022" y="21.6" width="7.2" height="14.4" fill="#9A916C" stroke-width="0"/>
   </g>
   <g transform="matrix(-1 0 0 -1 79.204 57.6)">
    <rect id="connector2pin" x="25.202" y="14.4" width="28.8" height="28.8" rx="14.4" ry="14.4" fill="#9A916C" stroke-width="0"/>
   </g>
   <circle id="connector3pin" cx="49.682" cy="65.16" r="1.98" fill="none" stroke="#9A916C" stroke-width="1.08" connectorname="GND"/>
   <rect id="connector3terminal" x="49.677" y="67.675" width=".01008" height=".01008" fill="none" stroke-width="0"/>
   <circle id="connector4pin" cx="42.482" cy="65.16" r="1.98" fill="none" stroke="#9A916C" stroke-width="1.08" connectorname="GND"/>
   <rect id="connector4terminal" x="42.477" y="67.675" width=".01008" height=".01008" fill="none" stroke-width="0"/>
   <circle id="connector5pin" cx="35.282" cy="65.16" r="1.98" fill="none" stroke="#9A916C" stroke-width="1.08" connectorname="V+"/>
   <rect id="connector5terminal" x="35.277" y="67.675" width=".01008" height=".01008" fill="none" stroke-width="0"/>
   <circle id="connector6pin" cx="28.082" cy="65.16" r="1.98" fill="none" stroke="#9A916C" stroke-width="1.08" connectorname="V+"/>
   <rect id="connector6terminal" x="28.077" y="67.675" width=".01008" height=".01008" fill="none" stroke-width="0"/>
   <rect id="connector7pin" x="57.625" y="53.663" width="2.8346" height="2.8346" rx="1.4173" ry="1.4173" fill="#9A916C" stroke-width="0"/>
   <rect id="connector8pin" x="13.705" y="5.4227" width="2.8346" height="2.8346" rx="1.4173" ry="1.4173" fill="#9A916C" stroke-width="0"/>
   <circle id="connector9pin" cx="7.2022" cy="11.16" r="4.2633" fill="none" stroke="#9A916C" stroke-width="1.44" connectorname="P$1"/>
   <circle id="connector10pin" cx="72.722" cy="11.16" r="4.2633" fill="none" stroke="#9A916C" stroke-width="1.44" connectorname="P$1"/>
   <circle id="connector11pin" cx="7.2022" cy="63" r="4.2633" fill="none" stroke="#9A916C" stroke-width="1.44" connectorname="P$1"/>
   <circle id="connector12pin" cx="72.002" cy="63" r="4.2633" fill="none" stroke="#9A916C" stroke-width="1.44" connectorname="P$1"/>
  </g>
  <g transform="translate(8.6617 -2.0415)">
   <g transform="matrix(-1 0 0 -1 61.881 61.683)">
    <circle cx="30.94" cy="31.475" r="29.619" fill="#686868"/>
    <g opacity=".5">
     <path d="m30.94 60.178c-3.443 0-6.822-0.577-10.042-1.715-0.26-0.093-0.397-0.378-0.305-0.639 0.091-0.261 0.377-0.396 0.638-0.305 4.595 1.625 9.629 2.061 14.436 1.276 0.267-0.048 0.53 0.14 0.574 0.412 0.045 0.272-0.14 0.53-0.412 0.574-1.603 0.264-3.249 0.397-4.889 0.397z" fill="#C6C6C6"/>
    </g>
    <g opacity=".43">
     <path d="m4.497 28.04c0-5.565 4.511-10.076 10.076-10.076 3.583 0 6.721 1.875 8.507 4.692-1.603-3.441-5.082-5.832-9.129-5.832-5.565 0-10.076 4.511-10.076 10.076 0 1.982 0.581 3.826 1.569 5.385-0.601-1.292-0.947-2.726-0.947-4.245z" fill="#020202"/>
     <path d="m38.409 28.04c0-5.565 4.511-10.076 10.076-10.076 3.583 0 6.721 1.875 8.507 4.692-1.603-3.441-5.082-5.832-9.129-5.832-5.565 0-10.076 4.511-10.076 10.076 0 1.982 0.58 3.826 1.569 5.385-0.601-1.292-0.947-2.726-0.947-4.245z" fill="#020202"/>
    </g>
    <g fill="#9B9B9B">
     <path d="m9.283 24.307c0-2.246 2.02-4.066 4.512-4.066s4.513 1.82 4.513 4.066v4.799h-9.025v-4.799z"/>
     <path d="m43.195 24.307c0-2.246 2.021-4.066 4.513-4.066s4.513 1.82 4.513 4.066v4.799h-9.025l-2e-5 -4.799z"/>
    </g>
    <rect x="43.195" y="29.105" width="9.025" height="21.642" fill="#898989"/>
    <rect x="9.283" y="29.105" width="9.025" height="21.642" fill="#898989"/>
    <path d="m42.543 1.418v-1.418h-23.696v1.418l-18.847 16.765v35.065c0 4.639 3.71 8.435 8.243 8.435 4.532 0 10.607-7.75 21.809-7.75s17.482 7.75 22.267 7.75h0.864c4.784 0 8.698-3.796 8.698-8.435l-2e-5 -35.065-19.338-16.765zm-23.559 33.509v15.521h-10.378v-15.521c-2.737-1.727-4.562-4.769-4.562-8.244 0-5.385 4.365-9.75 9.75-9.75s9.75 4.365 9.75 9.75c9.4e-4 3.475-1.8221 6.517-4.5601 8.244zm33.912 0v15.521h-10.377v-15.521c-2.737-1.727-4.562-4.769-4.562-8.244 0-5.385 4.365-9.75 9.75-9.75s9.75 4.365 9.75 9.75c-4e-5 3.475-1.823 6.517-4.561 8.244z" fill="#898989"/>
    <rect x="18.847" width="23.696" height="1.418" enable-background="new    " fill="#fff" opacity=".3"/>
    <path d="m13.795 16.933c-5.385 0-9.75 4.365-9.75 9.75 0 3.476 1.824 6.519 4.562 8.245v15.521h10.378l2e-5 -15.522c2.737-1.728 4.561-4.769 4.561-8.244-1e-3 -5.385-4.366-9.75-9.751-9.75z" fill="none"/>
    <path d="m47.707 16.933c-5.385 0-9.75 4.365-9.75 9.75 0 3.476 1.824 6.519 4.562 8.245v15.521h10.378l2e-5 -15.522c2.737-1.728 4.561-4.769 4.561-8.244-1e-3 -5.385-4.366-9.75-9.751-9.75z" fill="none"/>
    <path d="m0 18.183v35.065c0 1.55 0.421 3 1.142 4.252v-40.333l-1.142 1.016z" fill="#898989"/>
    <path d="m0 18.183v35.065c0 1.55 0.421 3 1.142 4.252v-40.333l-1.142 1.016z" enable-background="new    " fill="#fff" opacity=".3"/>
    <path d="m61.881 18.183-1.142-0.989v40.206c0.723-1.229 1.142-2.645 1.142-4.152v-35.065z" fill="#898989"/>
    <path d="m61.881 18.183-1.142-0.989v40.206c0.723-1.229 1.142-2.645 1.142-4.152v-35.065z" enable-background="new    " fill="#fff" opacity=".3"/>
    <g opacity=".5">
     <path d="m31.426 4.588v5.397h5.2v0.882h-5.2v5.441h-0.947v-5.441h-5.2l2e-6 -0.88197h5.2v-5.397h0.947z" fill="#fff"/>
    </g>
    <path d="m17.049 29.426h-6.517c-0.276 0-0.5-0.224-0.5-0.5s0.224-0.5 0.5-0.5h6.517c0.276 0 0.5 0.224 0.5 0.5s-0.224 0.5-0.5 0.5z" fill="#828282"/>
    <path d="m50.966 29.426h-6.517c-0.276 0-0.5-0.224-0.5-0.5s0.224-0.5 0.5-0.5h6.517c0.276 0 0.5 0.224 0.5 0.5s-0.224 0.5-0.5 0.5z" fill="#828282"/>
    <path d="m9.294 24.028c0-2.078 2.041-3.77 4.501-3.77 2.461 0 4.486 1.691 4.486 3.77 0-1.792-2.312-3.25-4.486-3.25-2.174 0-4.501 1.458-4.501 3.25z" fill="#fff" opacity=".3"/>
    <path d="m43.214 24.028c0-2.078 2.041-3.77 4.501-3.77 2.461 0 4.486 1.691 4.486 3.77 0-1.792-2.312-3.25-4.486-3.25s-4.501 1.458-4.501 3.25z" fill="#fff" opacity=".3"/>
   </g>
  </g>
  <g transform="translate(64.688 42.616)">
   <path d="m14.022 6.179c-0.046-0.288-0.202-0.37-0.578-0.49-0.286-0.091-2.2-0.701-2.2-0.701s-1.333-0.504-2.323 0.208c-0.13299 0.096-0.27101 0.205-0.41004 0.322 0.117-0.139 0.226-0.277 0.322-0.41 0.711-0.99 0.205-2.323 0.205-2.323s-0.61297-1.914-0.706-2.199c-0.12096-0.376-0.20296-0.532-0.49096-0.577-0.287-0.045-0.413 0.078-0.64402 0.398-0.175 0.244-1.347 1.876-1.347 1.876s-0.891 1.113-0.519 2.274c0.05 0.156 0.111 0.321 0.18 0.489-0.096-0.154-0.194-0.3-0.291-0.433-0.723-0.981-2.147-0.912-2.147-0.912s-2.009-8e-3 -2.309-9e-3c-0.395-1e-3 -0.568 0.029-0.7 0.289-0.132 0.259-0.053999 0.417 0.179 0.735 0.177 0.242 1.367 1.861 1.367 1.861s0.783 1.191 2.002 1.196c0.164 1e-3 0.339-7e-3 0.52-0.02-0.176 0.044-0.345 0.091-0.5 0.143-1.156 0.385-1.53 1.76-1.53 1.76s-0.629 1.908-0.722 2.194c-0.123 0.375-0.148 0.549 0.058 0.755s0.38 0.18 0.755 0.057c0.285-0.094 2.192-0.726 2.192-0.726s1.375-0.377 1.757-1.535c0.051-0.155 0.098-0.324 0.142-0.499-0.012 0.18-0.02 0.355-0.019 0.519 7e-3 1.219 1.2 2 1.2 2s1.621 1.187 1.863 1.364c0.319 0.233 0.477 0.31 0.736 0.178s0.289-0.306 0.287-0.701c-1e-3 -0.3-0.013-2.309-0.013-2.309s0.067-1.424-0.917-2.145c-0.13098-0.096001-0.27599-0.19298-0.43-0.28903 0.168 0.068 0.332 0.129 0.488 0.178 1.161 0.37 2.273-0.523 2.273-0.523s1.63-1.174 1.873-1.35c0.32-0.23197 0.443-0.35797 0.397-0.64497zm-6.919-1.479c0.219 0.034 0.328 0.5 0.243 1.04s-0.332 0.95-0.551 0.916-0.328-0.5-0.243-1.041c0.085-0.54 0.332-0.95 0.551-0.915zm-2.806 1.432c0.101-0.198 0.577-0.157 1.065 0.091 0.487 0.248 0.801 0.61 0.701 0.807-0.101 0.19801-0.578 0.157-1.066-0.089998-0.487-0.248-0.801-0.61-0.7-0.808zm1.479 2.695c-0.386 0.387-0.827 0.57399-0.984 0.41703-0.157-0.15603 0.029-0.59703 0.416-0.98403 0.386-0.387 0.827-0.574 0.984-0.417 0.157 0.156-0.029002 0.597-0.416 0.984zm2.129 0.908c-0.198 0.1-0.559-0.213-0.808-0.7-0.24902-0.487-0.29002-0.964-0.093022-1.065 0.198-0.101 0.559 0.213 0.808 0.7 0.24898 0.48706 0.29102 0.96406 0.093022 1.065zm0.513-2.257c-0.54 0.086-1.006-0.022-1.041-0.241-0.03504-0.21899 0.375-0.46599 0.915-0.55199s1.006 0.022 1.041 0.241c0.03497 0.219-0.375 0.46602-0.915 0.55199z" fill="#DCDCDC"/>
  </g>
 </g>
</svg>
