<?xml version="1.0" encoding="UTF-8"?>
<!-- Created with Fritzing (http://www.fritzing.org/) -->
<svg width=".9in" height=".65in" baseProfile="tiny" version="1.2" viewBox="0 0 64.8 46.8" xmlns="http://www.w3.org/2000/svg">
 <desc>
  <referenceFile>prefix0000_048c34de92eb062e3d1564e9e542b1cf_1_breadboard.svg</referenceFile>
 </desc>
 <desc>Fritzing breadboard generated by brd2svg</desc>
 <g id="breadboard">
  <g id="icon">
   <path d="m7.2 0h9.3088a3.6 3.6 0 0 1 2.5456 1.0544l2.9312 2.9312a3.6 3.6 0 0 0 2.5456 1.0544h15.738a3.6 3.6 0 0 0 2.5456-1.0544l2.9312-2.9312a3.6 3.6 0 0 1 2.5456-1.0544h9.3088a7.2 7.2 0 0 1 7.2 7.2v32.4a7.2 7.2 0 0 1-7.2 7.2h-50.4a7.2 7.2 0 0 1-7.2-7.2v-32.4a7.2 7.2 0 0 1 7.2-7.2m34.56 43.2a1.44 1.44 0 1 0 2.88 0 1.44 1.44 0 1 0-2.88 0zm-7.2 0a1.44 1.44 0 1 0 2.88 0 1.44 1.44 0 1 0-2.88 0zm-7.2 0a1.44 1.44 0 1 0 2.88 0 1.44 1.44 0 1 0-2.88 0zm-7.2 0a1.44 1.44 0 1 0 2.88 0 1.44 1.44 0 1 0-2.88 0zm-16.503-36a3.5433 3.5433 0 1 0 7.0866 0 3.5433 3.5433 0 1 0-7.0866 0zm50.4 0a3.5433 3.5433 0 1 0 7.0866 0 3.5433 3.5433 0 1 0-7.0866 0zm-50.4 32.4a3.5433 3.5433 0 1 0 7.0866 0 3.5433 3.5433 0 1 0-7.0866 0zm50.4 0a3.5433 3.5433 0 1 0 7.0866 0 3.5433 3.5433 0 1 0-7.0866 0z" fill="#014cb1" stroke-width="0"/>
   <g>
    <title>layer 21</title>
    <g>
     <title>text:Coin
Cell</title>
     <g transform="translate(0 -1.6704)">
      <text x="7.2" y="31.1904" fill="#ffffff" font-family="OCRA" font-size="3.3408" stroke-width="0" text-anchor="middle">Coin</text>
     </g>
     <g transform="translate(0 1.6704)">
      <text x="7.2" y="31.1904" fill="#ffffff" font-family="OCRA" font-size="3.3408" stroke-width="0" text-anchor="middle">Cell</text>
     </g>
    </g>
    <g>
     <title>element:B1</title>
     <g>
      <title>package:CR1220</title>
      <line x1="3.6" x2="13.68" y1="24.84" y2="24.84" stroke="#fff" stroke-linecap="round" stroke-width=".576"/>
      <line x1="13.68" x2="13.68" y1="24.84" y2="30.6" stroke="#fff" stroke-linecap="round" stroke-width=".576"/>
      <line x1="13.68" x2="21.6" y1="30.6" y2="38.52" stroke="#fff" stroke-linecap="round" stroke-width=".576"/>
      <line x1="21.6" x2="43.2" y1="38.52" y2="38.52" stroke="#fff" stroke-linecap="round" stroke-width=".576"/>
      <line x1="43.2" x2="51.12" y1="38.52" y2="30.6" stroke="#fff" stroke-linecap="round" stroke-width=".576"/>
      <line x1="51.12" x2="51.12" y1="30.6" y2="24.84" stroke="#fff" stroke-linecap="round" stroke-width=".576"/>
      <line x1="51.12" x2="61.2" y1="24.84" y2="24.84" stroke="#fff" stroke-linecap="round" stroke-width=".576"/>
      <line x1="61.2" x2="61.2" y1="24.84" y2="14.76" stroke="#fff" stroke-linecap="round" stroke-width=".576"/>
      <line x1="61.2" x2="51.12" y1="14.76" y2="14.76" stroke="#fff" stroke-linecap="round" stroke-width=".576"/>
      <line x1="51.12" x2="51.12" y1="14.76" y2="1.08" stroke="#fff" stroke-linecap="round" stroke-width=".576"/>
      <line x1="13.68" x2="13.68" y1="1.08" y2="14.76" stroke="#fff" stroke-linecap="round" stroke-width=".576"/>
      <line x1="13.68" x2="3.6" y1="14.76" y2="14.76" stroke="#fff" stroke-linecap="round" stroke-width=".576"/>
      <line x1="3.6" x2="3.6" y1="14.76" y2="24.84" stroke="#fff" stroke-linecap="round" stroke-width=".576"/>
     </g>
    </g>
    <g>
     <title>element:CN1</title>
     <g>
      <title>package:1X04-CLEANBIG</title>
     </g>
    </g>
    <g>
     <title>element:FID1</title>
     <g>
      <title>package:FIDUCIAL_1MM</title>
     </g>
    </g>
    <g>
     <title>element:FID2</title>
     <g>
      <title>package:FIDUCIAL_1MM</title>
     </g>
    </g>
    <g>
     <title>element:U$1</title>
     <g>
      <title>package:MOUNTINGHOLE_2.5_PLATED</title>
      <circle cx="7.2" cy="7.2" r="5.6693" fill="none" stroke="#fff" stroke-width=".576"/>
     </g>
    </g>
    <g>
     <title>element:U$2</title>
     <g>
      <title>package:MOUNTINGHOLE_2.5_PLATED</title>
      <circle cx="57.6" cy="7.2" r="5.6693" fill="none" stroke="#fff" stroke-width=".576"/>
     </g>
    </g>
    <g>
     <title>element:U$3</title>
     <g>
      <title>package:MOUNTINGHOLE_2.5_PLATED</title>
      <circle cx="7.2" cy="39.6" r="5.6693" fill="none" stroke="#fff" stroke-width=".576"/>
     </g>
    </g>
    <g>
     <title>element:U$4</title>
     <g>
      <title>package:ADAFRUIT_5MM</title>
     </g>
    </g>
    <g>
     <title>element:U$5</title>
     <g>
      <title>package:MOUNTINGHOLE_2.5_PLATED</title>
      <circle cx="57.6" cy="39.6" r="5.6693" fill="none" stroke="#fff" stroke-width=".576"/>
     </g>
    </g>
    <g>
     <title>element:U$6</title>
     <g>
      <title>package:SYMBOL_PLUS</title>
      <line x1="18.045" x2="15.795" y1="39.6" y2="39.6" stroke="#fff" stroke-linecap="round" stroke-width=".864"/>
      <line x1="16.92" x2="16.92" y1="38.475" y2="40.725" stroke="#fff" stroke-linecap="round" stroke-width=".864"/>
      <circle cx="16.92" cy="39.6" r="2.2158" fill="none" stroke="#fff" stroke-width=".576"/>
     </g>
    </g>
    <g>
     <title>element:U$7</title>
     <g>
      <title>package:SYMBOL_MINUS</title>
      <line x1="49.005" x2="46.755" y1="39.6" y2="39.6" stroke="#fff" stroke-linecap="round" stroke-width=".864"/>
      <circle cx="47.88" cy="39.6" r="2.2158" fill="none" stroke="#fff" stroke-width=".576"/>
     </g>
    </g>
    <g>
     <title>element:U$8</title>
     <g>
      <title>package:ADAFRUIT_2.5MM</title>
     </g>
    </g>
   </g>
   <rect id="connector0pin" x="4.5485" y="15.265" width="9.0708" height="9.0708" fill="#9A916C" stroke-width="0"/>
   <rect id="connector1pin" x="51.181" y="15.265" width="9.0708" height="9.0708" fill="#9A916C" stroke-width="0"/>
   <rect id="connector2pin" x="23.4" y="10.8" width="18" height="18" rx="9" ry="9" fill="#9A916C" stroke-width="0"/>
   <circle id="connector3pin" cx="43.2" cy="43.2" r="1.98" fill="none" stroke="#9A916C" stroke-width="1.08" connectorname="GND"/>
   <rect id="connector3terminal" x="43.195" y="45.715" width=".01008" height=".01008" fill="none" stroke-width="0"/>
   <circle id="connector4pin" cx="36" cy="43.2" r="1.98" fill="none" stroke="#9A916C" stroke-width="1.08" connectorname="GND"/>
   <rect id="connector4terminal" x="35.995" y="45.715" width=".01008" height=".01008" fill="none" stroke-width="0"/>
   <circle id="connector5pin" cx="28.8" cy="43.2" r="1.98" fill="none" stroke="#9A916C" stroke-width="1.08" connectorname="V+"/>
   <rect id="connector5terminal" x="28.795" y="45.715" width=".01008" height=".01008" fill="none" stroke-width="0"/>
   <circle id="connector6pin" cx="21.6" cy="43.2" r="1.98" fill="none" stroke="#9A916C" stroke-width="1.08" connectorname="V+"/>
   <rect id="connector6terminal" x="21.595" y="45.715" width=".01008" height=".01008" fill="none" stroke-width="0"/>
   <rect id="connector7pin" x="15.503" y="3.6227" width="2.8346" height="2.8346" rx="1.4173" ry="1.4173" fill="#9A916C" stroke-width="0"/>
   <rect id="connector8pin" x="46.463" y="3.6227" width="2.8346" height="2.8346" rx="1.4173" ry="1.4173" fill="#9A916C" stroke-width="0"/>
   <circle id="connector9pin" cx="7.2" cy="7.2" r="4.2633" fill="none" stroke="#9A916C" stroke-width="1.44" connectorname="P$1"/>
   <circle id="connector10pin" cx="57.6" cy="7.2" r="4.2633" fill="none" stroke="#9A916C" stroke-width="1.44" connectorname="P$1"/>
   <circle id="connector11pin" cx="7.2" cy="39.6" r="4.2633" fill="none" stroke="#9A916C" stroke-width="1.44" connectorname="P$1"/>
   <circle id="connector12pin" cx="57.6" cy="39.6" r="4.2633" fill="none" stroke="#9A916C" stroke-width="1.44" connectorname="P$1"/>
  </g>
  <g transform="translate(14.864 2.0605)">
   <g transform="translate(36.575 101.85)">
    <g transform="matrix(-1 0 0 -1 61.881 61.684)">
     <circle cx="80.92" cy="146.75" r="16.788" fill="#686868"/>
     <g opacity=".5">
      <path d="m80.92 163.02c-1.951 0-3.866-0.325-5.691-0.973-0.146-0.054-0.225-0.215-0.172-0.361 0.051-0.147 0.213-0.224 0.36-0.172 2.604 0.92 5.458 1.168 8.184 0.722 0.149-0.026 0.299 0.08 0.323 0.233 0.025 0.153-0.08 0.301-0.231 0.324-0.91112 0.153-1.8428 0.227-2.773 0.227z" fill="#C6C6C6"/>
     </g>
     <g opacity=".43">
      <path d="m65.934 144.8c0-3.153 2.557-5.711 5.71-5.711 2.03 0 3.81 1.062 4.821 2.658-0.908-1.95-2.88-3.306-5.174-3.306-3.154 0-5.711 2.557-5.711 5.711 0 1.123 0.33 2.169 0.889 3.052-0.34-0.731-0.535-1.544-0.535-2.404z" fill="#020202"/>
      <path d="m85.153 144.8c0-3.153 2.557-5.711 5.711-5.711 2.03 0 3.811 1.062 4.822 2.658-0.909-1.95-2.882-3.306-5.177-3.306-3.151 0-5.709 2.557-5.709 5.711 0 1.123 0.328 2.169 0.89 3.052-0.3398-0.731-0.537-1.544-0.537-2.404z" fill="#020202"/>
     </g>
     <g fill="#9B9B9B">
      <path d="m68.646 142.69c0-1.273 1.145-2.305 2.558-2.305s2.558 1.03 2.558 2.305v2.719h-5.114l-2e-3 -2.719z"/>
      <path d="m87.866 142.69c0-1.273 1.145-2.305 2.559-2.305 1.412 0 2.559 1.03 2.559 2.305v2.719h-5.114v-2.719h-4e-3z"/>
     </g>
     <rect x="87.867" y="145.4" width="5.115" height="12.268" fill="#898989"/>
     <rect x="68.646" y="145.4" width="5.114" height="12.268" fill="#898989"/>
     <path d="m91.939 128.86v-0.803l-22.205 2e-6v0.803l-6.35 6.448v22.173c0 2.631 2.104 4.782 4.671 4.782 2.568 0 6.013-4.395 12.361-4.395 6.35 0 9.908 4.395 12.621 4.395h0.489c2.712 0 4.93-2.151 4.93-4.782v-22.173l-6.517-6.448zm-17.795 19.844v8.798h-5.883v-8.798c-1.551-0.977-2.585-2.702-2.585-4.671 0-3.053 2.475-5.527 5.526-5.527s5.526 2.476 5.526 5.527c8e-4 1.969-1.0324 3.695-2.584 4.671zm19.22 0v8.798h-5.881v-8.798c-1.551-0.977-2.586-2.702-2.586-4.671 0-3.053 2.473-5.527 5.526-5.527 3.052 0 5.525 2.476 5.525 5.527 0.0023 1.969-1.0316 3.695-2.584 4.671z" fill="#898989"/>
     <rect x="69.734" y="128.06" width="22.205" height=".803" enable-background="new    " fill="#fff" opacity=".3"/>
     <path d="m71.202 138.5c-3.052 0-5.525 2.475-5.525 5.527 0 1.97 1.033 3.695 2.584 4.671v8.798h5.883v-8.798c1.552-0.978 2.586-2.702 2.586-4.671-1e-3 -3.051-2.475-5.527-5.528-5.527z" fill="none"/>
     <path d="m90.424 138.5c-3.055 0-5.526 2.475-5.526 5.527 0 1.97 1.034 3.695 2.586 4.671v8.798h5.883v-8.798c1.551-0.978 2.585-2.702 2.585-4.671-2e-3 -3.051-2.4759-5.527-5.528-5.527z" fill="none"/>
     <path d="m63.384 135.31v22.173c0 0.879 0.238 1.7 0.646 2.41v-25.158l-0.646 0.575z" fill="#898989"/>
     <path d="m63.384 135.31v22.173c0 0.879 0.238 1.7 0.646 2.41v-25.158l-0.646 0.575z" enable-background="new    " fill="#fff" opacity=".3"/>
     <path d="m98.456 135.31-0.646-0.561v25.086c0.409-0.696 0.646-1.499 0.646-2.354v-22.171z" fill="#898989"/>
     <path d="m98.456 135.31-0.646-0.561v25.086c0.409-0.696 0.646-1.499 0.646-2.354v-22.171z" enable-background="new    " fill="#fff" opacity=".3"/>
     <g opacity=".5">
      <path d="m81.196 131.51v3.06h2.947v0.5h-2.947v3.084h-0.537v-3.084h-2.947v-0.5h2.947v-3.06h0.537z" fill="#fff"/>
     </g>
     <path d="m73.046 145.59h-3.693c-0.156 0-0.283-0.126-0.283-0.282 0-0.154 0.127-0.282 0.283-0.282h3.693c0.156 0 0.283 0.128 0.283 0.282 6e-4 0.156-0.1261 0.282-0.283 0.282z" fill="#828282"/>
     <path d="m92.271 145.59h-3.693c-0.156 0-0.283-0.126-0.283-0.282 0-0.154 0.127-0.282 0.283-0.282h3.693c0.155 0 0.282 0.128 0.282 0.282 2e-4 0.156-0.1272 0.282-0.282 0.282z" fill="#828282"/>
     <path d="m68.652 142.53c0-1.177 1.157-2.137 2.551-2.137 1.395 0 2.542 0.957 2.542 2.137 0-1.015-1.311-1.842-2.542-1.842s-2.551 0.827-2.551 1.842z" enable-background="new    " fill="#fff" opacity=".3"/>
     <path d="m87.876 142.53c0-1.177 1.157-2.137 2.552-2.137 1.396 0 2.542 0.957 2.542 2.137 0-1.015-1.31-1.842-2.542-1.842-1.2308 0-2.552 0.827-2.552 1.842z" enable-background="new    " fill="#fff" opacity=".3"/>
    </g>
   </g>
  </g>
  <g transform="translate(52.202 24.426)">
   <path d="m9.747 3.082c-0.023-0.142-0.1-0.183-0.286-0.243-0.14197-0.045-1.089-0.347-1.089-0.347s-0.66-0.249-1.15 0.103c-0.066 0.048-0.134 0.102-0.203 0.16 0.058-0.069 0.112-0.137 0.159-0.203 0.352-0.49 0.101-1.15 0.101-1.15s-0.30302-0.947-0.34902-1.089c-0.06-0.186-0.1-0.263-0.243-0.285-0.142-0.023-0.204 0.038-0.318 0.197-0.087 0.12-0.667 0.928-0.667 0.928s-0.441 0.551-0.257 1.126c0.025 0.077 0.055 0.159 0.089 0.242-0.048-0.076-0.096-0.149-0.144-0.214-0.358-0.486-1.062-0.452-1.062-0.452s-0.995-4e-3 -1.143-4e-3c-0.195 0-0.281 0.014-0.347 0.143-0.065 0.128-0.027 0.206 0.089 0.364 0.088 0.12 0.677 0.921 0.677 0.921s0.388 0.59 0.991 0.592c0.081 0 0.168-3e-3 0.257-0.01-0.087001 0.021998-0.171 0.045998-0.248 0.070998-0.573 0.19-0.758 0.871-0.758 0.871s-0.31 0.944-0.357 1.085c-0.060998 0.186-0.072998 0.272 0.029002 0.374s0.188 0.09 0.374 0.028c0.141-0.046 1.085-0.359 1.085-0.359s0.681-0.187 0.869-0.76c0.025-0.077 0.049-0.16 0.07-0.247-0.005997 0.090003-0.008997 0.176-0.008997 0.257 4e-3 0.603 0.594 0.99 0.594 0.99s0.802 0.588 0.922 0.675c0.15802 0.116 0.236 0.154 0.36502 0.089 0.12795-0.066 0.143-0.152 0.14199-0.347-0.00101-0.149-0.00598-1.143-0.00598-1.143s0.03298-0.705-0.45403-1.062c-0.06502-0.048-0.13802-0.096-0.21398-0.143 0.083 0.034 0.165 0.064 0.242 0.088 0.575 0.183 1.125-0.259 1.125-0.259s0.80696-0.581 0.92699-0.668c0.15897-0.115 0.21902-0.177 0.19699-0.319zm-3.425-0.732c0.108 0.017 0.162 0.248 0.12 0.515s-0.164 0.47-0.273 0.453c-0.108-0.017-0.162-0.248-0.12-0.515 0.042-0.268 0.164-0.471 0.273-0.453zm-1.389 0.709c0.05-0.098 0.286-0.078 0.527 0.045 0.241 0.123 0.397 0.302 0.347 0.399-0.05 0.098-0.286 0.078-0.527-0.045-0.242-0.123-0.397-0.301-0.347-0.399zm0.732 1.334c-0.191 0.191-0.409 0.284-0.487 0.206-0.077-0.078 0.015-0.296 0.206-0.487 0.191-0.192 0.409-0.285 0.487-0.207s-0.014 0.296-0.206 0.488zm1.054 0.449c-0.098 0.05-0.277-0.105-0.4-0.346-0.123-0.242-0.144-0.478-0.046-0.528 0.098-0.05 0.277 0.105 0.4 0.346 0.123 0.242 0.144 0.478 0.046 0.528zm0.254-1.117c-0.267 0.042-0.498-0.011-0.516-0.119-0.017-0.109 0.186-0.231 0.453-0.274s0.498 0.011 0.515 0.119c0.018 0.109-0.18497 0.231-0.452 0.274z" fill="#DCDCDC"/>
  </g>
 </g>
</svg>
