<?xml version="1.0" encoding="UTF-8"?>
<!DOCTYPE svg>
<!-- Generator: Adobe Illustrator 26.2.1, SVG Export Plug-In . SVG Version: 6.00 Build 0)  -->
<svg width="1in" height=".7in" enable-background="new 0 0 72 50.4" version="1.1" viewBox="0 0 72 50.4" xml:space="preserve" xmlns="http://www.w3.org/2000/svg" xmlns:xml="http://www.w3.org/XML/1998/namespace">
    <desc>
        <referenceFile>Adafruit Stemma QT 5 Port Hub_breadboard.svg</referenceFile>
    </desc>
    <metadata>
        <sfw>
            <slices/>
            <sliceSourceBounds x="0" y="0" width="72" height="50.4" bottomLeftOrigin="true"/>
        </sfw>
    </metadata>
    <desc>Fritzing breadboard generated by brd2svg</desc>
    <g id="breadboard">
        <g id="icon">
            <path d="m0 7.2c0-3.9765 3.2235-7.2 7.2-7.2h57.6c3.9765 0 7.2 3.2236 7.2 7.2v36c0 3.9764-3.2235 7.2-7.2 7.2h-57.6c-3.9765 0-7.2-3.2235-7.2-7.2v-36m45.383 0c0 0.7828 0.6346 1.4173 1.4173 1.4173 0.7828 0 1.4173-0.6346 1.4173-1.4173 0-0.7828-0.6346-1.4173-1.4173-1.4173s-1.4173 0.6345-1.4173 1.4173zm-7.2 0c0 0.7828 0.6346 1.4173 1.4173 1.4173s1.4173-0.6345 1.4173-1.4173-0.6345-1.4173-1.4173-1.4173-1.4173 0.6345-1.4173 1.4173zm-7.2 0c0 0.7828 0.6346 1.4173 1.4173 1.4173 0.7828 0 1.4173-0.6346 1.4173-1.4173s-0.6345-1.4173-1.4173-1.4173c-0.7827 0-1.4173 0.6345-1.4173 1.4173zm-7.2 0c0 0.7828 0.6346 1.4173 1.4173 1.4173 0.7828 0 1.4173-0.6346 1.4173-1.4173s-0.6345-1.4173-1.4173-1.4173c-0.7827 0-1.4173 0.6345-1.4173 1.4173zm0 36c0 0.7828 0.6346 1.4173 1.4173 1.4173 0.7828 0 1.4173-0.6346 1.4173-1.4173s-0.6346-1.4173-1.4173-1.4173-1.4173 0.6345-1.4173 1.4173zm7.2 0c0 0.7828 0.6346 1.4173 1.4173 1.4173 0.7828 0 1.4173-0.6346 1.4173-1.4173s-0.6346-1.4173-1.4173-1.4173-1.4173 0.6345-1.4173 1.4173zm7.2 0c0 0.7828 0.6346 1.4173 1.4173 1.4173s1.4173-0.6346 1.4173-1.4173-0.6346-1.4173-1.4173-1.4173-1.4173 0.6345-1.4173 1.4173zm7.2 0c0 0.7828 0.6346 1.4173 1.4173 1.4173 0.7828 0 1.4173-0.6346 1.4173-1.4173s-0.6346-1.4173-1.4173-1.4173-1.4173 0.6345-1.4173 1.4173zm-41.726-36c-0.0033 1.9569 1.5804 3.546 3.5373 3.5493s3.546-1.5804 3.5493-3.5373v-0.012c0.0033-1.9569-1.5804-3.546-3.5374-3.5493-1.9569-0.0032-3.5459 1.5805-3.5492 3.5374v0.0119zm57.6 0c-0.0034 1.9569 1.5802 3.5461 3.5371 3.5495s3.5461-1.5802 3.5495-3.5371v-0.0124c0.0034-1.9569-1.5802-3.5461-3.5371-3.5495s-3.5461 1.5802-3.5495 3.5371v0.0124zm-57.6 36c-0.0033 1.9569 1.5804 3.546 3.5373 3.5493s3.546-1.5804 3.5493-3.5373v-0.012c0.0033-1.9569-1.5804-3.546-3.5374-3.5493s-3.546 1.5804-3.5493 3.5374c1e-4 4e-3 1e-4 0.0079 1e-4 0.0119zm57.6 0c-0.0034 1.9569 1.5802 3.5461 3.5371 3.5495s3.5461-1.5802 3.5495-3.5371v-0.0125c0.0034-1.9569-1.5802-3.5461-3.5371-3.5495s-3.5461 1.5802-3.5495 3.5371v0.0125z"/>
            
                
                    <g transform="translate(21.617 49.55)">
                        <text fill="#FFFFFF" font-family="'OCRA'" font-size="2.6726">VIN</text>
                    </g>
                
                
                    <g transform="translate(28.817 40.19)">
                        <text fill="#FFFFFF" font-family="'OCRA'" font-size="2.6726">GND</text>
                    </g>
                
                
                    <g transform="translate(36.017 49.55)">
                        <text fill="#FFFFFF" font-family="'OCRA'" font-size="2.6726">SCL</text>
                    </g>
                
                
                    <g transform="translate(43.217 40.19)">
                        <text fill="#FFFFFF" font-family="'OCRA'" font-size="2.6726">SDA</text>
                    </g>
                
                
                    <g transform="translate(12.863 11.621)">
                        <text fill="#FFFFFF" font-family="'OCRA'" font-size="2.6726">on</text>
                    </g>
                
                
                    <g transform="translate(46.8 10.21)">
                        
                            <g transform="rotate(180)">
                                
                                    <g transform="translate(-3.5828 6e-4)">
                                        <text fill="#FFFFFF" font-family="'OCRA'" font-size="2.6726">VIN</text>
                                    </g>
                                
                            </g>
                        
                    </g>
                
                
                    <g transform="translate(39.6 .8496)">
                        
                            <g transform="rotate(180)">
                                
                                    <g transform="translate(-3.5826 -9.375e-6)">
                                        <text fill="#FFFFFF" font-family="'OCRA'" font-size="2.6726">GND</text>
                                    </g>
                                
                            </g>
                        
                    </g>
                
                
                    <g transform="translate(32.4 10.21)">
                        
                            <g transform="rotate(180)">
                                
                                    <g transform="translate(-3.5834 6e-4)">
                                        <text fill="#FFFFFF" font-family="'OCRA'" font-size="2.6726">SCL</text>
                                    </g>
                                
                            </g>
                        
                    </g>
                
                
                    <g transform="translate(24.84 .8496)">
                        
                            <g transform="rotate(180)">
                                
                                    <g transform="translate(-3.5829 -9.375e-6)">
                                        <text fill="#FFFFFF" font-family="'OCRA'" font-size="2.6726">SDA</text>
                                    </g>
                                
                            </g>
                        
                    </g>
                
                
                    <g transform="translate(0 -2.088)">
                        
                            <g transform="translate(50.005 46.706)">
                                <text fill="#FFFFFF" font-family="'OCRA'" font-size="3.3408">I2C</text>
                            </g>
                        
                    </g>
                    <g transform="translate(0 2.088)">
                        
                            <g transform="translate(50.477 46.728)">
                                <text fill="#FFFFFF" font-family="'OCRA'" font-size="3.3408">Hub</text>
                            </g>
                        
                    </g>
                
                
                    <g fill="none" stroke="#fff" stroke-linecap="round" stroke-width=".432">
                        <line x1="21.127" x2="24.528" y1="16.696" y2="16.696"/>
                        <line x1="24.528" x2="24.528" y1="16.696" y2="19.814"/>
                        <line x1="24.528" x2="24.528" y1="30.586" y2="33.987"/>
                        <line x1="24.528" x2="21.127" y1="33.987" y2="33.987"/>
                        <line x1="16.308" x2="16.308" y1="19.247" y2="31.153"/>
                    </g>
                
                
                    <g fill="none" stroke="#fff" stroke-linecap="round" stroke-width=".432">
                        <line x1="49.927" x2="53.328" y1="16.696" y2="16.696"/>
                        <line x1="53.328" x2="53.328" y1="16.696" y2="19.814"/>
                        <line x1="53.328" x2="53.328" y1="30.586" y2="33.987"/>
                        <line x1="53.328" x2="49.927" y1="33.987" y2="33.987"/>
                        <line x1="45.108" x2="45.108" y1="19.247" y2="31.153"/>
                    </g>
                
                
                    <g fill="none" stroke="#fff" stroke-linecap="round" stroke-width=".432">
                        <line x1="64.327" x2="67.728" y1="16.696" y2="16.696"/>
                        <line x1="67.728" x2="67.728" y1="16.696" y2="19.814"/>
                        <line x1="67.728" x2="67.728" y1="30.586" y2="33.987"/>
                        <line x1="67.728" x2="64.327" y1="33.987" y2="33.987"/>
                        <line x1="59.508" x2="59.508" y1="19.247" y2="31.153"/>
                    </g>
                
                
                    <g fill="none" stroke="#fff" stroke-linecap="round" stroke-width=".432">
                        <line x1="6.7266" x2="10.128" y1="16.696" y2="16.696"/>
                        <line x1="10.128" x2="10.128" y1="16.696" y2="19.814"/>
                        <line x1="10.128" x2="10.128" y1="30.586" y2="33.987"/>
                        <line x1="10.128" x2="6.7266" y1="33.987" y2="33.987"/>
                        <line x1="1.9077" x2="1.9077" y1="19.247" y2="31.153"/>
                    </g>
                
                
                    <g fill="none" stroke="#fff" stroke-linecap="round" stroke-width=".432">
                        <line x1="35.527" x2="38.928" y1="16.696" y2="16.696"/>
                        <line x1="38.928" x2="38.928" y1="16.696" y2="19.814"/>
                        <line x1="38.928" x2="38.928" y1="30.586" y2="33.987"/>
                        <line x1="38.928" x2="35.527" y1="33.987" y2="33.987"/>
                        <line x1="30.708" x2="30.708" y1="19.247" y2="31.153"/>
                    </g>
                
                
                    
                        
                            <path d="m15.444 12.96 0.9-0.72v1.44l-0.9-0.72" fill="none" stroke="#fff" stroke-linecap="round" stroke-width=".432"/>
                        
                        <g transform="matrix(0 -1 1 0 15.264 12.96)">
                            
                                <g transform="matrix(-2.5352e-6 -1 1 -2.5352e-6 2.2888e-8 -9.9182e-8)">
                                    <rect x="-.18" y="-1.08" width=".36" height="2.16" fill="#fff"/>
                                </g>
                            
                        </g>
                    
                
                
                    
                        <line x1="24.12" x2="24.12" y1="14.094" y2="11.826" fill="none" stroke="#fff" stroke-linecap="round" stroke-width=".864"/>
                    
                
                
                    
                        <circle cx="7.2" cy="7.2" r="5.6693" fill="none" stroke="#fff" stroke-width=".576"/>
                    
                
                
                    
                        <circle cx="64.8" cy="7.2" r="5.6693" fill="none" stroke="#fff" stroke-width=".576"/>
                    
                
                
                    
                        <circle cx="7.2" cy="43.2" r="5.6693" fill="none" stroke="#fff" stroke-width=".576"/>
                    
                
                
                    
                        <circle cx="64.8" cy="43.2" r="5.6693" fill="none" stroke="#fff" stroke-width=".576"/>
                    
                
            
            <g transform="matrix(-1 0 0 -1 50.598 58.904)">
                
                    <rect x="23.102" y="28.602" width="4.3937" height="1.7008" fill="#9A916C"/>
                
            </g>
            <g transform="matrix(-1 0 0 -1 50.598 53.235)">
                
                    <rect x="23.102" y="25.767" width="4.3937" height="1.7008" fill="#9A916C"/>
                
            </g>
            <g transform="matrix(-1 0 0 -1 50.598 47.565)">
                
                    <rect x="23.102" y="22.932" width="4.3937" height="1.7008" fill="#9A916C"/>
                
            </g>
            <g transform="matrix(-1 0 0 -1 50.598 41.896)">
                
                    <rect x="23.102" y="20.098" width="4.3937" height="1.7008" fill="#9A916C"/>
                
            </g>
            <rect id="connector9pin" x="15.525" y="15.562" width="5.1024" height="3.4016" fill="#9A916C"/>
            <rect id="connector10pin" x="15.525" y="31.436" width="5.1024" height="3.4016" fill="#9A916C"/>
            <g transform="matrix(-1 0 0 -1 108.2 58.904)">
                
                    <rect x="51.902" y="28.602" width="4.3937" height="1.7008" fill="#9A916C"/>
                
            </g>
            <g transform="matrix(-1 0 0 -1 108.2 53.235)">
                
                    <rect x="51.902" y="25.767" width="4.3937" height="1.7008" fill="#9A916C"/>
                
            </g>
            <g transform="matrix(-1 0 0 -1 108.2 47.565)">
                
                    <rect x="51.902" y="22.932" width="4.3937" height="1.7008" fill="#9A916C"/>
                
            </g>
            <g transform="matrix(-1 0 0 -1 108.2 41.896)">
                
                    <rect x="51.902" y="20.098" width="4.3937" height="1.7008" fill="#9A916C"/>
                
            </g>
            <rect id="connector15pin" x="44.325" y="15.562" width="5.1024" height="3.4016" fill="#9A916C"/>
            <rect id="connector16pin" x="44.325" y="31.436" width="5.1024" height="3.4016" fill="#9A916C"/>
            <g transform="matrix(-1 0 0 -1 137 58.904)">
                
                    <rect x="66.302" y="28.602" width="4.3937" height="1.7008" fill="#9A916C"/>
                
            </g>
            <g transform="matrix(-1 0 0 -1 137 53.235)">
                
                    <rect x="66.302" y="25.767" width="4.3937" height="1.7008" fill="#9A916C"/>
                
            </g>
            <g transform="matrix(-1 0 0 -1 137 47.565)">
                
                    <rect x="66.302" y="22.932" width="4.3937" height="1.7008" fill="#9A916C"/>
                
            </g>
            <g transform="matrix(-1 0 0 -1 137 41.896)">
                
                    <rect x="66.302" y="20.098" width="4.3937" height="1.7008" fill="#9A916C"/>
                
            </g>
            <rect id="connector21pin" x="58.725" y="15.562" width="5.1024" height="3.4016" fill="#9A916C"/>
            <rect id="connector22pin" x="58.725" y="31.436" width="5.1024" height="3.4016" fill="#9A916C"/>
            <g transform="matrix(-1 0 0 -1 21.798 58.904)">
                
                    <rect x="8.7023" y="28.602" width="4.3937" height="1.7008" fill="#9A916C"/>
                
            </g>
            <g transform="matrix(-1 0 0 -1 21.798 53.235)">
                
                    <rect x="8.7023" y="25.767" width="4.3937" height="1.7008" fill="#9A916C"/>
                
            </g>
            <g transform="matrix(-1 0 0 -1 21.798 47.565)">
                
                    <rect x="8.7023" y="22.932" width="4.3937" height="1.7008" fill="#9A916C"/>
                
            </g>
            <g transform="matrix(-1 0 0 -1 21.798 41.896)">
                
                    <rect x="8.7023" y="20.098" width="4.3937" height="1.7008" fill="#9A916C"/>
                
            </g>
            <rect id="connector27pin" x="1.1248" y="15.562" width="5.1024" height="3.4016" fill="#9A916C"/>
            <rect id="connector28pin" x="1.1248" y="31.436" width="5.1024" height="3.4016" fill="#9A916C"/>
            <g transform="matrix(-1 0 0 -1 79.399 58.904)">
                
                    <rect x="37.502" y="28.602" width="4.3937" height="1.7008" fill="#9A916C"/>
                
            </g>
            <g transform="matrix(-1 0 0 -1 79.399 53.235)">
                
                    <rect x="37.502" y="25.767" width="4.3937" height="1.7008" fill="#9A916C"/>
                
            </g>
            <g transform="matrix(-1 0 0 -1 79.399 47.565)">
                
                    <rect x="37.502" y="22.932" width="4.3937" height="1.7008" fill="#9A916C"/>
                
            </g>
            <g transform="matrix(-1 0 0 -1 79.399 41.896)">
                
                    <rect x="37.502" y="20.098" width="4.3937" height="1.7008" fill="#9A916C"/>
                
            </g>
            <rect id="connector33pin" x="29.925" y="15.562" width="5.1024" height="3.4016" fill="#9A916C"/>
            <rect id="connector34pin" x="29.925" y="31.436" width="5.1024" height="3.4016" fill="#9A916C"/>
            <g transform="matrix(0 -1 1 0 5.006 30.926)">
                
                    <g transform="matrix(-2.5352e-6 -1 1 -2.5352e-6 5.0061 30.926)">
                        <rect id="connector35pin" x="16.832" y="11.826" width="2.2677" height="2.2677" fill="#9A916C"/>
                    </g>
                
            </g>
            <g transform="matrix(0 -1 1 0 .75401 26.674)">
                
                    <g transform="matrix(-2.5352e-6 -1 1 -2.5352e-6 .754 26.674)">
                        <rect id="connector36pin" x="12.58" y="11.826" width="2.2677" height="2.2677" fill="#9A916C"/>
                    </g>
                
            </g>
            <path id="connector37pin" d="m55.08 35.303c0.7828 0 1.4173 0.6346 1.4173 1.4173 0 0.7828-0.6346 1.4173-1.4173 1.4173-0.7828 0-1.4173-0.6346-1.4173-1.4173s0.6346-1.4173 1.4173-1.4173z" fill="#9A916C"/>
            <path id="connector38pin" d="m14.4 1.1027c0.7828 0 1.4173 0.6346 1.4173 1.4173 0 0.7828-0.6346 1.4173-1.4173 1.4173-0.7828 0-1.4173-0.6346-1.4173-1.4173 0-0.7828 0.6346-1.4173 1.4173-1.4173z" fill="#9A916C"/>
            <circle id="connector39pin" cx="46.8" cy="7.2" r="2.0767" fill="none" stroke="#9A916C" stroke-width="1.3187"/>
            <circle id="connector40pin" cx="39.6" cy="7.2" r="2.0767" fill="none" stroke="#9A916C" stroke-width="1.3187"/>
            <circle id="connector41pin" cx="32.4" cy="7.2" r="2.0767" fill="none" stroke="#9A916C" stroke-width="1.3187"/>
            <circle id="connector42pin" cx="25.2" cy="7.2" r="2.0767" fill="none" stroke="#9A916C" stroke-width="1.3187"/>
            <circle id="connector43pin" cx="25.2" cy="43.2" r="2.0767" fill="none" stroke="#9A916C" stroke-width="1.3187"/>
            <circle id="connector44pin" cx="32.4" cy="43.2" r="2.0767" fill="none" stroke="#9A916C" stroke-width="1.3187"/>
            <circle id="connector45pin" cx="39.6" cy="43.2" r="2.0767" fill="none" stroke="#9A916C" stroke-width="1.3187"/>
            <circle id="connector46pin" cx="46.8" cy="43.2" r="2.0767" fill="none" stroke="#9A916C" stroke-width="1.3187"/>
            <g transform="matrix(-1 0 0 -1 53.059 25.92)">
                
                    <rect id="connector47pin" x="25.006" y="11.543" width="3.0472" height="2.8347" fill="#9A916C"/>
                
            </g>
            <g transform="matrix(-1 0 0 -1 43.421 25.92)">
                
                    <rect id="connector48pin" x="20.187" y="11.543" width="3.0472" height="2.8347" fill="#9A916C"/>
                
            </g>
            <circle id="connector49pin" cx="7.2" cy="7.2" r="4.2633" fill="none" stroke="#9A916C" stroke-width="1.44"/>
            <circle id="connector50pin" cx="64.8" cy="7.2" r="4.2633" fill="none" stroke="#9A916C" stroke-width="1.44"/>
            <circle id="connector51pin" cx="7.2" cy="43.2" r="4.2633" fill="none" stroke="#9A916C" stroke-width="1.44"/>
            <circle id="connector52pin" cx="64.8" cy="43.2" r="4.2633" fill="none" stroke="#9A916C" stroke-width="1.44"/>
        </g>
        <g transform="translate(13.045 19.576)">
            
                <g transform="matrix(0 1 -1 0 14.089 -2.842)">
                    
                        
                            <g transform="matrix(1.0506 0 0 -.86004 11.805 12.759)">
                                
                                    <path d="m3.5338 12.598-13.426 0.0161-0.0018-1.3547-1.3424 0.0016-0.0129-9.4834 16.111-0.0194 0.0129 9.4835-1.342 0.0015 0.0018 1.3548z" fill="#666"/>
                                    <polygon points="-9.2391 5.8821 -7.8967 5.873 -7.8662 10.01 -9.2086 10.019"/>
                                    <polygon points="1.4985 5.809 2.841 5.7998 2.8714 9.9371 1.5291 9.9462"/>
                                    <polygon points="-9.2086 10.019 -7.8662 10.01 -7.856 11.389 -9.1985 11.399" fill="#333"/>
                                    <polygon points="1.5291 9.9462 2.8714 9.9371 2.8816 11.316 1.5392 11.325" fill="#333"/>
                                    <polygon points="-7.6548 11.388 -6.7154 11.382 -6.69 14.83 -7.6294 14.836" fill="#DCDCDC"/>
                                    <polygon points="-4.9706 11.37 -4.0312 11.363 -4.0058 14.811 -4.9452 14.818" fill="#DCDCDC"/>
                                    <polygon points="-4.9706 11.37 -4.0312 11.363 -4.0058 14.811 -4.9452 14.818" fill="#DCDCDC"/>
                                    <polygon points="-2.2861 11.352 -1.3467 11.345 -1.3212 14.793 -2.2607 14.799" fill="#DCDCDC"/>
                                    <polygon points="0.3983 11.333 1.3378 11.327 1.3631 14.775 0.4237 14.781" fill="#DCDCDC"/>
                                    <path d="m4.8607 6.3835c1e-4 2.5421 0.0041 4.6737 9e-3 4.7367l0.0089 0.1147h-1.3528v1.3626h-1.0823-1.0822l-0.0092-0.3232c-5e-3 -0.1779-0.0092-0.4657-0.0092-0.6396v-0.3163h-0.212c-0.1167 0-0.3293 0.0042-0.4727 0.0092l-0.2607 0.0092v1.261h-1.7198l-0.0092-0.219c-5e-3 -0.1204-0.0091-0.402-0.0092-0.6257l-1e-4 -0.4067h-0.9454v1.2514h-1.7242l-0.0017-0.1043c-1e-3 -0.0574-0.0034-0.1106-0.0052-0.1181-0.0019-0.0077-0.0042-0.2393-0.0052-0.5147l-0.0018-0.5007-0.9478 0.0074 0.0032 1.2306h-0.8611c-0.7724 0-0.862-0.0023-0.8695-0.022-0.0045-0.0122-0.0083-0.2876-0.0083-0.612v-0.5898h-0.2898c-0.1594 0-0.3737 4e-3 -0.4762 0.0089l-0.1864 0.0089 0.0084 1.2196h-2.2398v-1.3626h-1.3302l-0.0093-1.5666c-0.0051-0.8616-0.0093-2.9922-0.0093-4.7344v-3.1681h3.0763c1.692 0 5.3147-0.0042 8.0506-0.0093l4.9743-0.0093-1e-4 4.6222zm-3.3649-0.2966c-2e-4 0.5158 0.0273 4.026 0.0363 4.6459l0.0088 0.6032 0.6692-0.0101c0.368-0.0056 0.6709-0.0118 0.6731-0.0138 0.0052-0.0049-0.0223-4.038-0.0332-4.8567l-0.0087-0.657h-0.6727-0.6728v0.2885zm-10.729-0.2006c-0.011 0.011 0.0195 5.1936 0.0317 5.3878l0.0081 0.1296 0.6649-0.0044c0.3657-0.0024 0.6679-0.0076 0.6716-0.0114 0.0064-0.0066-0.0043-1.785-0.026-4.3783l-0.0096-1.1455-0.6656 0.0064c-0.366 0.0034-0.6698 0.0106-0.6751 0.0158z"/>
                                    <path d="m2.8776 10.025c0.0047 0.0497 0.0086 0.3572 0.0086 0.6832l1e-4 0.5928-0.0522 0.0067c-0.0697 0.0089-0.4539 0.0159-0.9154 0.0166l-0.3767 7e-4 -0.0086-0.4936c-0.0047-0.2714-0.0048-0.5827-2e-4 -0.6915l0.0085-0.1979 1.3272-0.0076 0.0087 0.0906z"/>
                                    <path d="m-7.8708 10.201c5e-3 0.1044 0.0091 0.4141 0.0091 0.6882l-1e-4 0.4984-0.1008 0.0033c-0.0554 0.0018-0.3558 0.0033-0.6673 0.0034l-0.5666 2e-4 -0.0016-0.0904c-8e-4 -0.0497-0.0025-0.361-0.0035-0.6918l-2e-3 -0.6014h1.3236l0.0092 0.1901z"/>
                                
                            </g>
                            <circle id="connector8pin" cx="2.0789" cy="8.5091" r="1.5677" fill="#ff0"/>
                            <circle id="connector6pin" cx="10.519" cy="8.5091" r="1.5677" fill="#f00"/>
                            <circle id="connector7pin" cx="6.299" cy="8.5091" r="1.5677" fill="#0019FF"/>
                            <circle id="connector5pin" cx="14.711" cy="8.5091" r="1.5677" fill="#494949"/>
                        
                    
                </g>
            
        </g>
        <g transform="translate(41.845 19.576)">
            
                <g transform="matrix(0 1 -1 0 14.089 -2.842)">
                    
                        
                            <g transform="matrix(1.0506 0 0 -.86004 11.805 12.759)">
                                
                                    <path d="m3.5338 12.598-13.426 0.0161-0.0018-1.3547-1.3424 0.0016-0.0129-9.4834 16.111-0.0194 0.0129 9.4835-1.342 0.0015 0.0018 1.3548z" fill="#666"/>
                                    <polygon points="-9.2391 5.8821 -7.8967 5.873 -7.8662 10.01 -9.2086 10.019"/>
                                    <polygon points="1.4985 5.809 2.841 5.7998 2.8714 9.9371 1.5291 9.9462"/>
                                    <polygon points="-9.2086 10.019 -7.8662 10.01 -7.856 11.389 -9.1985 11.399" fill="#333"/>
                                    <polygon points="1.5291 9.9462 2.8714 9.9371 2.8816 11.316 1.5392 11.325" fill="#333"/>
                                    <polygon points="-7.6548 11.388 -6.7154 11.382 -6.69 14.83 -7.6294 14.836" fill="#DCDCDC"/>
                                    <polygon points="-4.9706 11.37 -4.0312 11.363 -4.0058 14.811 -4.9452 14.818" fill="#DCDCDC"/>
                                    <polygon points="-4.9706 11.37 -4.0312 11.363 -4.0058 14.811 -4.9452 14.818" fill="#DCDCDC"/>
                                    <polygon points="-2.2861 11.352 -1.3467 11.345 -1.3212 14.793 -2.2607 14.799" fill="#DCDCDC"/>
                                    <polygon points="0.3983 11.333 1.3378 11.327 1.3631 14.775 0.4237 14.781" fill="#DCDCDC"/>
                                    <path d="m4.8607 6.3835c1e-4 2.5421 0.0041 4.6737 9e-3 4.7367l0.0089 0.1147h-1.3528v1.3626h-1.0823-1.0822l-0.0092-0.3232c-5e-3 -0.1779-0.0092-0.4657-0.0092-0.6396v-0.3163h-0.212c-0.1167 0-0.3293 0.0042-0.4727 0.0092l-0.2607 0.0092v1.261h-1.7198l-0.0092-0.219c-5e-3 -0.1204-0.0091-0.402-0.0092-0.6257l-1e-4 -0.4067h-0.9454v1.2514h-1.7242l-0.0017-0.1043c-1e-3 -0.0574-0.0034-0.1106-0.0052-0.1181-0.0019-0.0077-0.0042-0.2393-0.0052-0.5147l-0.0018-0.5007-0.9478 0.0074 0.0032 1.2306h-0.8611c-0.7724 0-0.862-0.0023-0.8695-0.022-0.0045-0.0122-0.0083-0.2876-0.0083-0.612v-0.5898h-0.2898c-0.1594 0-0.3737 4e-3 -0.4762 0.0089l-0.1864 0.0089 0.0084 1.2196h-2.2398v-1.3626h-1.3302l-0.0093-1.5666c-0.0051-0.8616-0.0093-2.9922-0.0093-4.7344v-3.1681h3.0763c1.692 0 5.3147-0.0042 8.0506-0.0093l4.9743-0.0093-1e-4 4.6222zm-3.3649-0.2966c-2e-4 0.5158 0.0273 4.026 0.0363 4.6459l0.0088 0.6032 0.6692-0.0101c0.368-0.0056 0.6709-0.0118 0.6731-0.0138 0.0052-0.0049-0.0223-4.038-0.0332-4.8567l-0.0087-0.657h-0.6727-0.6728v0.2885zm-10.729-0.2006c-0.011 0.011 0.0195 5.1936 0.0317 5.3878l0.0081 0.1296 0.6649-0.0044c0.3657-0.0024 0.6679-0.0076 0.6716-0.0114 0.0064-0.0066-0.0043-1.785-0.026-4.3783l-0.0096-1.1455-0.6656 0.0064c-0.366 0.0034-0.6698 0.0106-0.6751 0.0158z"/>
                                    <path d="m2.8776 10.025c0.0047 0.0497 0.0086 0.3572 0.0086 0.6832l1e-4 0.5928-0.0522 0.0067c-0.0697 0.0089-0.4539 0.0159-0.9154 0.0166l-0.3767 7e-4 -0.0086-0.4936c-0.0047-0.2714-0.0048-0.5827-2e-4 -0.6915l0.0085-0.1979 1.3272-0.0076 0.0087 0.0906z"/>
                                    <path d="m-7.8708 10.201c5e-3 0.1044 0.0091 0.4141 0.0091 0.6882l-1e-4 0.4984-0.1008 0.0033c-0.0554 0.0018-0.3558 0.0033-0.6673 0.0034l-0.5666 2e-4 -0.0016-0.0904c-8e-4 -0.0497-0.0025-0.361-0.0035-0.6918l-2e-3 -0.6014h1.3236l0.0092 0.1901z"/>
                                
                            </g>
                            <circle id="connector14pin" cx="2.0789" cy="8.5091" r="1.9151" fill="#ff0"/>
                            <circle id="connector12pin" cx="10.519" cy="8.5091" r="1.9151" fill="#f00"/>
                            <circle id="connector13pin" cx="6.299" cy="8.5091" r="1.9151" fill="#0019FF"/>
                            <circle id="connector11pin" cx="14.711" cy="8.5091" r="1.9151" fill="#494949"/>
                        
                    
                </g>
            
        </g>
        <g transform="translate(56.245 19.576)">
            
                <g transform="matrix(0 1 -1 0 14.089 -2.842)">
                    
                        
                            <g transform="matrix(1.0506 0 0 -.86004 11.805 12.759)">
                                
                                    <path d="m3.5338 12.598-13.426 0.0161-0.0018-1.3547-1.3424 0.0016-0.0129-9.4834 16.111-0.0194 0.0129 9.4835-1.342 0.0015 0.0018 1.3548z" fill="#666"/>
                                    <polygon points="-9.2391 5.8821 -7.8967 5.873 -7.8662 10.01 -9.2086 10.019"/>
                                    <polygon points="1.4985 5.809 2.841 5.7998 2.8714 9.9371 1.5291 9.9462"/>
                                    <polygon points="-9.2086 10.019 -7.8662 10.01 -7.856 11.389 -9.1985 11.399" fill="#333"/>
                                    <polygon points="1.5291 9.9462 2.8714 9.9371 2.8816 11.316 1.5392 11.325" fill="#333"/>
                                    <polygon points="-7.6548 11.388 -6.7154 11.382 -6.69 14.83 -7.6294 14.836" fill="#DCDCDC"/>
                                    <polygon points="-4.9706 11.37 -4.0312 11.363 -4.0058 14.811 -4.9452 14.818" fill="#DCDCDC"/>
                                    <polygon points="-4.9706 11.37 -4.0312 11.363 -4.0058 14.811 -4.9452 14.818" fill="#DCDCDC"/>
                                    <polygon points="-2.2861 11.352 -1.3467 11.345 -1.3212 14.793 -2.2607 14.799" fill="#DCDCDC"/>
                                    <polygon points="0.3983 11.333 1.3378 11.327 1.3631 14.775 0.4237 14.781" fill="#DCDCDC"/>
                                    <path d="m4.8607 6.3835c1e-4 2.5421 0.0041 4.6737 9e-3 4.7367l0.0089 0.1147h-1.3528v1.3626h-1.0823-1.0822l-0.0092-0.3232c-5e-3 -0.1779-0.0092-0.4657-0.0092-0.6396v-0.3163h-0.212c-0.1167 0-0.3293 0.0042-0.4727 0.0092l-0.2607 0.0092v1.261h-1.7198l-0.0092-0.219c-5e-3 -0.1204-0.0091-0.402-0.0092-0.6257l-1e-4 -0.4067h-0.9454v1.2514h-1.7242l-0.0017-0.1043c-1e-3 -0.0574-0.0034-0.1106-0.0052-0.1181-0.0019-0.0077-0.0042-0.2393-0.0052-0.5147l-0.0018-0.5007-0.9478 0.0074 0.0032 1.2306h-0.8611c-0.7724 0-0.862-0.0023-0.8695-0.022-0.0045-0.0122-0.0083-0.2876-0.0083-0.612v-0.5898h-0.2898c-0.1594 0-0.3737 4e-3 -0.4762 0.0089l-0.1864 0.0089 0.0084 1.2196h-2.2398v-1.3626h-1.3302l-0.0093-1.5666c-0.0051-0.8616-0.0093-2.9922-0.0093-4.7344v-3.1681h3.0763c1.692 0 5.3147-0.0042 8.0506-0.0093l4.9743-0.0093-1e-4 4.6222zm-3.3649-0.2966c-2e-4 0.5158 0.0273 4.026 0.0363 4.6459l0.0088 0.6032 0.6692-0.0101c0.368-0.0056 0.6709-0.0118 0.6731-0.0138 0.0052-0.0049-0.0223-4.038-0.0332-4.8567l-0.0087-0.657h-0.6727-0.6728v0.2885zm-10.729-0.2006c-0.011 0.011 0.0195 5.1936 0.0317 5.3878l0.0081 0.1296 0.6649-0.0044c0.3657-0.0024 0.6679-0.0076 0.6716-0.0114 0.0064-0.0066-0.0043-1.785-0.026-4.3783l-0.0096-1.1455-0.6656 0.0064c-0.366 0.0034-0.6698 0.0106-0.6751 0.0158z"/>
                                    <path d="m2.8776 10.025c0.0047 0.0497 0.0086 0.3572 0.0086 0.6832l1e-4 0.5928-0.0522 0.0067c-0.0697 0.0089-0.4539 0.0159-0.9154 0.0166l-0.3767 7e-4 -0.0086-0.4936c-0.0047-0.2714-0.0048-0.5827-2e-4 -0.6915l0.0085-0.1979 1.3272-0.0076 0.0087 0.0906z"/>
                                    <path d="m-7.8708 10.201c5e-3 0.1044 0.0091 0.4141 0.0091 0.6882l-1e-4 0.4984-0.1008 0.0033c-0.0554 0.0018-0.3558 0.0033-0.6673 0.0034l-0.5666 2e-4 -0.0016-0.0904c-8e-4 -0.0497-0.0025-0.361-0.0035-0.6918l-2e-3 -0.6014h1.3236l0.0092 0.1901z"/>
                                
                            </g>
                            <circle id="connector20pin" cx="2.0789" cy="8.5091" r="1.5677" fill="#ff0"/>
                            <circle id="connector18pin" cx="10.519" cy="8.5091" r="1.5677" fill="#f00"/>
                            <circle id="connector19pin" cx="6.299" cy="8.5091" r="1.5677" fill="#0019FF"/>
                            <circle id="connector17pin" cx="14.711" cy="8.5091" r="1.5677" fill="#494949"/>
                        
                    
                </g>
            
        </g>
        <g transform="translate(-1.355 19.576)">
            
                <g transform="matrix(0 1 -1 0 14.089 -2.842)">
                    
                        
                            <g transform="matrix(1.0506 0 0 -.86004 11.805 12.759)">
                                
                                    <path d="m3.5338 12.598-13.426 0.0161-0.0018-1.3547-1.3424 0.0016-0.0129-9.4834 16.111-0.0194 0.0129 9.4835-1.342 0.0015 0.0018 1.3548z" fill="#666"/>
                                    <polygon points="-9.2391 5.8821 -7.8967 5.873 -7.8662 10.01 -9.2086 10.019"/>
                                    <polygon points="1.4985 5.809 2.841 5.7998 2.8714 9.9371 1.5291 9.9462"/>
                                    <polygon points="-9.2086 10.019 -7.8662 10.01 -7.856 11.389 -9.1985 11.399" fill="#333"/>
                                    <polygon points="1.5291 9.9462 2.8714 9.9371 2.8816 11.316 1.5392 11.325" fill="#333"/>
                                    <polygon points="-7.6548 11.388 -6.7154 11.382 -6.69 14.83 -7.6294 14.836" fill="#DCDCDC"/>
                                    <polygon points="-4.9706 11.37 -4.0312 11.363 -4.0058 14.811 -4.9452 14.818" fill="#DCDCDC"/>
                                    <polygon points="-4.9706 11.37 -4.0312 11.363 -4.0058 14.811 -4.9452 14.818" fill="#DCDCDC"/>
                                    <polygon points="-2.2861 11.352 -1.3467 11.345 -1.3212 14.793 -2.2607 14.799" fill="#DCDCDC"/>
                                    <polygon points="0.3983 11.333 1.3378 11.327 1.3631 14.775 0.4237 14.781" fill="#DCDCDC"/>
                                    <path d="m4.8607 6.3835c1e-4 2.5421 0.0041 4.6737 9e-3 4.7367l0.0089 0.1147h-1.3528v1.3626h-1.0823-1.0822l-0.0092-0.3232c-5e-3 -0.1779-0.0092-0.4657-0.0092-0.6396v-0.3163h-0.212c-0.1167 0-0.3293 0.0042-0.4727 0.0092l-0.2607 0.0092v1.261h-1.7198l-0.0092-0.219c-5e-3 -0.1204-0.0091-0.402-0.0092-0.6257l-1e-4 -0.4067h-0.9454v1.2514h-1.7242l-0.0017-0.1043c-1e-3 -0.0574-0.0034-0.1106-0.0052-0.1181-0.0019-0.0077-0.0042-0.2393-0.0052-0.5147l-0.0018-0.5007-0.9478 0.0074 0.0032 1.2306h-0.8611c-0.7724 0-0.862-0.0023-0.8695-0.022-0.0045-0.0122-0.0083-0.2876-0.0083-0.612v-0.5898h-0.2898c-0.1594 0-0.3737 4e-3 -0.4762 0.0089l-0.1864 0.0089 0.0084 1.2196h-2.2398v-1.3626h-1.3302l-0.0093-1.5666c-0.0051-0.8616-0.0093-2.9922-0.0093-4.7344v-3.1681h3.0763c1.692 0 5.3147-0.0042 8.0506-0.0093l4.9743-0.0093-1e-4 4.6222zm-3.3649-0.2966c-2e-4 0.5158 0.0273 4.026 0.0363 4.6459l0.0088 0.6032 0.6692-0.0101c0.368-0.0056 0.6709-0.0118 0.6731-0.0138 0.0052-0.0049-0.0223-4.038-0.0332-4.8567l-0.0087-0.657h-0.6727-0.6728v0.2885zm-10.729-0.2006c-0.011 0.011 0.0195 5.1936 0.0317 5.3878l0.0081 0.1296 0.6649-0.0044c0.3657-0.0024 0.6679-0.0076 0.6716-0.0114 0.0064-0.0066-0.0043-1.785-0.026-4.3783l-0.0096-1.1455-0.6656 0.0064c-0.366 0.0034-0.6698 0.0106-0.6751 0.0158z"/>
                                    <path d="m2.8776 10.025c0.0047 0.0497 0.0086 0.3572 0.0086 0.6832l1e-4 0.5928-0.0522 0.0067c-0.0697 0.0089-0.4539 0.0159-0.9154 0.0166l-0.3767 7e-4 -0.0086-0.4936c-0.0047-0.2714-0.0048-0.5827-2e-4 -0.6915l0.0085-0.1979 1.3272-0.0076 0.0087 0.0906z"/>
                                    <path d="m-7.8708 10.201c5e-3 0.1044 0.0091 0.4141 0.0091 0.6882l-1e-4 0.4984-0.1008 0.0033c-0.0554 0.0018-0.3558 0.0033-0.6673 0.0034l-0.5666 2e-4 -0.0016-0.0904c-8e-4 -0.0497-0.0025-0.361-0.0035-0.6918l-2e-3 -0.6014h1.3236l0.0092 0.1901z"/>
                                
                            </g>
                            <circle id="connector26pin" cx="2.0789" cy="8.5091" r="1.9151" fill="#ff0"/>
                            <circle id="connector24pin" cx="10.519" cy="8.5091" r="1.9151" fill="#f00"/>
                            <circle id="connector25pin" cx="6.299" cy="8.5091" r="1.9151" fill="#0019FF"/>
                            <circle id="connector23pin" cx="14.711" cy="8.5091" r="1.9151" fill="#494949"/>
                        
                    
                </g>
            
        </g>
        <g transform="translate(27.445 19.576)">
            
                <g transform="matrix(0 1 -1 0 14.089 -2.842)">
                    
                        
                            <g transform="matrix(1.0506 0 0 -.86004 11.805 12.759)">
                                
                                    <path d="m3.5338 12.598-13.426 0.0161-0.0018-1.3547-1.3424 0.0016-0.0129-9.4834 16.111-0.0194 0.0129 9.4835-1.342 0.0015 0.0018 1.3548z" fill="#666"/>
                                    <polygon points="-9.2391 5.8821 -7.8967 5.873 -7.8662 10.01 -9.2086 10.019"/>
                                    <polygon points="1.4985 5.809 2.841 5.7998 2.8714 9.9371 1.5291 9.9462"/>
                                    <polygon points="-9.2086 10.019 -7.8662 10.01 -7.856 11.389 -9.1985 11.399" fill="#333"/>
                                    <polygon points="1.5291 9.9462 2.8714 9.9371 2.8816 11.316 1.5392 11.325" fill="#333"/>
                                    <polygon points="-7.6548 11.388 -6.7154 11.382 -6.69 14.83 -7.6294 14.836" fill="#DCDCDC"/>
                                    <polygon points="-4.9706 11.37 -4.0312 11.363 -4.0058 14.811 -4.9452 14.818" fill="#DCDCDC"/>
                                    <polygon points="-4.9706 11.37 -4.0312 11.363 -4.0058 14.811 -4.9452 14.818" fill="#DCDCDC"/>
                                    <polygon points="-2.2861 11.352 -1.3467 11.345 -1.3212 14.793 -2.2607 14.799" fill="#DCDCDC"/>
                                    <polygon points="0.3983 11.333 1.3378 11.327 1.3631 14.775 0.4237 14.781" fill="#DCDCDC"/>
                                    <path d="m4.8607 6.3835c1e-4 2.5421 0.0041 4.6737 9e-3 4.7367l0.0089 0.1147h-1.3528v1.3626h-1.0823-1.0822l-0.0092-0.3232c-5e-3 -0.1779-0.0092-0.4657-0.0092-0.6396v-0.3163h-0.212c-0.1167 0-0.3293 0.0042-0.4727 0.0092l-0.2607 0.0092v1.261h-1.7198l-0.0092-0.219c-5e-3 -0.1204-0.0091-0.402-0.0092-0.6257l-1e-4 -0.4067h-0.9454v1.2514h-1.7242l-0.0017-0.1043c-1e-3 -0.0574-0.0034-0.1106-0.0052-0.1181-0.0019-0.0077-0.0042-0.2393-0.0052-0.5147l-0.0018-0.5007-0.9478 0.0074 0.0032 1.2306h-0.8611c-0.7724 0-0.862-0.0023-0.8695-0.022-0.0045-0.0122-0.0083-0.2876-0.0083-0.612v-0.5898h-0.2898c-0.1594 0-0.3737 4e-3 -0.4762 0.0089l-0.1864 0.0089 0.0084 1.2196h-2.2398v-1.3626h-1.3302l-0.0093-1.5666c-0.0051-0.8616-0.0093-2.9922-0.0093-4.7344v-3.1681h3.0763c1.692 0 5.3147-0.0042 8.0506-0.0093l4.9743-0.0093-1e-4 4.6222zm-3.3649-0.2966c-2e-4 0.5158 0.0273 4.026 0.0363 4.6459l0.0088 0.6032 0.6692-0.0101c0.368-0.0056 0.6709-0.0118 0.6731-0.0138 0.0052-0.0049-0.0223-4.038-0.0332-4.8567l-0.0087-0.657h-0.6727-0.6728v0.2885zm-10.729-0.2006c-0.011 0.011 0.0195 5.1936 0.0317 5.3878l0.0081 0.1296 0.6649-0.0044c0.3657-0.0024 0.6679-0.0076 0.6716-0.0114 0.0064-0.0066-0.0043-1.785-0.026-4.3783l-0.0096-1.1455-0.6656 0.0064c-0.366 0.0034-0.6698 0.0106-0.6751 0.0158z"/>
                                    <path d="m2.8776 10.025c0.0047 0.0497 0.0086 0.3572 0.0086 0.6832l1e-4 0.5928-0.0522 0.0067c-0.0697 0.0089-0.4539 0.0159-0.9154 0.0166l-0.3767 7e-4 -0.0086-0.4936c-0.0047-0.2714-0.0048-0.5827-2e-4 -0.6915l0.0085-0.1979 1.3272-0.0076 0.0087 0.0906z"/>
                                    <path d="m-7.8708 10.201c5e-3 0.1044 0.0091 0.4141 0.0091 0.6882l-1e-4 0.4984-0.1008 0.0033c-0.0554 0.0018-0.3558 0.0033-0.6673 0.0034l-0.5666 2e-4 -0.0016-0.0904c-8e-4 -0.0497-0.0025-0.361-0.0035-0.6918l-2e-3 -0.6014h1.3236l0.0092 0.1901z"/>
                                
                            </g>
                            <circle id="connector32pin" cx="2.0789" cy="8.5091" r="1.5677" fill="#ff0"/>
                            <circle id="connector30pin" cx="10.519" cy="8.5091" r="1.5677" fill="#f00"/>
                            <circle id="connector31pin" cx="6.299" cy="8.5091" r="1.5677" fill="#0019FF"/>
                            <circle id="connector29pin" cx="14.711" cy="8.5091" r="1.5677" fill="#494949"/>
                        
                    
                </g>
            
        </g>
        <g transform="translate(14.706 10.692)">
            
                <g transform="matrix(0 -1 1 0 -1.1335 3.4015)">
                    
                        <path d="M2.268,0.29v3.955c0,0.16-0.13,0.29-0.29,0.29H0.29C0.13,4.535,0,4.405,0,4.245V0.29C0,0.13,0.13,0,0.29,0h1.687C2.138,0,2.268,0.13,2.268,0.29z" fill="#DCDCDC"/>
                        <g transform="matrix(2.5352e-6 1 -1 2.5352e-6 3.4017 1.1335)">
                            <rect x="-.2512" y="1.3393" width="2.7706" height="1.8566" fill="#0f0"/>
                        </g>
                        <circle cx="1.134" cy="2.268" r=".4324" fill="#00B400"/>
                    
                </g>
            
        </g>
        <g transform="translate(21.852 11.826)">
            
                <g transform="matrix(-1 0 0 -1 4.535 2.268)">
                    
                        <path d="M4.245,2.268H0.29C0.13,2.268,0,2.138,0,1.977V0.29C0,0.13,0.13,0,0.29,0h3.955c0.16,0,0.29,0.13,0.29,0.29v1.687C4.535,2.138,4.405,2.268,4.245,2.268z" fill="#DCDCDC"/>
                        <rect x=".8827" y=".2057" width="2.7706" height="1.8566" fill="#333"/>
                    
                </g>
            
        </g>
        <g transform="translate(11.288 37.254)">
            
                <path d="m11.703 2.3543c-0.032-0.2-0.141-0.257-0.403-0.341-0.199-0.064-1.533-0.489-1.533-0.489s-0.93-0.351-1.619 0.146c-0.093 0.066-0.189 0.143-0.286 0.224 0.082-0.097 0.158-0.193 0.224-0.286 0.495-0.69 0.143-1.619 0.143-1.619s-0.427-1.334-0.492-1.533c-0.085-0.262-0.142-0.37-0.342-0.402s-0.288 0.054-0.449 0.277c-0.122 0.17-0.939 1.307-0.939 1.307s-0.621 0.777-0.361 1.586c0.034 0.109 0.077 0.224 0.125 0.341-0.067-0.108-0.135-0.209-0.203-0.302-0.503-0.684-1.496-0.636-1.496-0.636s-1.4-6e-3 -1.61-6e-3c-0.275-1e-3 -0.396 0.02-0.488 0.201-0.091 0.181-0.037 0.291 0.126 0.513 0.124 0.169 0.953 1.297 0.953 1.297s0.546 0.83 1.395 0.834c0.114 0 0.236-5e-3 0.362-0.014-0.122 0.03-0.24 0.064-0.348 0.1-0.806 0.267-1.067 1.226-1.067 1.226s-0.438 1.33-0.503 1.529c-0.086 0.261-0.103 0.383 0.04 0.526 0.144 0.143 0.265 0.126 0.526 0.04 0.199-0.065 1.528-0.506 1.528-0.506s0.958-0.263 1.224-1.07c0.036-0.108 0.069-0.225 0.1-0.348-9e-3 0.126-0.014 0.248-0.013 0.362 5e-3 0.849 0.836 1.394 0.836 1.394s1.13 0.827 1.298 0.951c0.223 0.162 0.333 0.216 0.514 0.124s0.201-0.213 0.2-0.488c-1e-3 -0.21-9e-3 -1.61-9e-3 -1.61s0.047-0.993-0.639-1.495c-0.092-0.067-0.194-0.135-0.301-0.202 0.117 0.047 0.232 0.09 0.34 0.124 0.81 0.258 1.584-0.364 1.584-0.364s1.136-0.819 1.306-0.941c0.223-0.161 0.309-0.249 0.277-0.45zm-4.822-1.031c0.152 0.024 0.228 0.349 0.169 0.726s-0.231 0.662-0.384 0.638-0.229-0.349-0.169-0.725c0.059-0.377 0.231-0.663 0.384-0.639zm-1.956 0.999c0.07-0.138 0.402-0.11 0.742 0.063s0.558 0.425 0.488 0.563-0.402 0.11-0.742-0.063-0.558-0.425-0.488-0.563zm1.031 1.878c-0.269 0.27-0.577 0.4-0.686 0.291s0.02-0.416 0.29-0.686c0.269-0.27 0.576-0.4 0.686-0.291 0.109 0.109-0.021 0.416-0.29 0.686zm1.484 0.633c-0.138 0.07-0.39-0.148-0.563-0.487-0.174-0.34-0.203-0.673-0.065-0.743s0.39 0.148 0.563 0.487c0.173 0.34 0.202 0.672 0.065 0.743zm0.357-1.573c-0.377 0.06-0.701-0.015-0.726-0.168-0.024-0.153 0.262-0.325 0.638-0.385 0.377-0.06 0.701 0.015 0.726 0.168 0.024 0.153-0.261 0.325-0.638 0.385z" fill="#DCDCDC"/>
            
        </g>
        <g transform="translate(49.088 5.529)">
            
                <g transform="matrix(0 1 -1 0 9.7785 -.001476)">
                    
                        <path d="m11.962 3.2039c-0.032-0.2-0.141-0.257-0.403-0.341-0.199-0.064-1.533-0.489-1.533-0.489s-0.93-0.351-1.619 0.146c-0.093 0.066-0.189 0.143-0.286 0.224 0.082-0.097 0.158-0.193 0.224-0.286 0.495-0.69 0.143-1.619 0.143-1.619s-0.427-1.334-0.492-1.533c-0.085-0.262-0.142-0.37-0.342-0.402s-0.288 0.054-0.449 0.277c-0.122 0.17-0.939 1.307-0.939 1.307s-0.621 0.777-0.361 1.586c0.034 0.109 0.077 0.224 0.125 0.341-0.067-0.108-0.135-0.209-0.203-0.302-0.503-0.684-1.496-0.636-1.496-0.636s-1.4-6e-3 -1.61-6e-3c-0.275-1e-3 -0.396 0.02-0.488 0.201-0.091 0.181-0.037 0.291 0.126 0.513 0.124 0.169 0.953 1.297 0.953 1.297s0.546 0.83 1.395 0.834c0.114 0 0.236-5e-3 0.362-0.014-0.122 0.03-0.24 0.064-0.348 0.1-0.806 0.267-1.067 1.226-1.067 1.226s-0.438 1.33-0.503 1.529c-0.086 0.261-0.103 0.383 0.04 0.526 0.144 0.143 0.265 0.126 0.526 0.04 0.199-0.065 1.528-0.506 1.528-0.506s0.958-0.263 1.224-1.07c0.036-0.108 0.069-0.225 0.1-0.348-9e-3 0.126-0.014 0.248-0.013 0.362 5e-3 0.849 0.836 1.394 0.836 1.394s1.13 0.827 1.298 0.951c0.223 0.162 0.333 0.216 0.514 0.124s0.201-0.213 0.2-0.488c-1e-3 -0.21-9e-3 -1.61-9e-3 -1.61s0.047-0.993-0.639-1.495c-0.092-0.067-0.194-0.135-0.301-0.202 0.117 0.047 0.232 0.09 0.34 0.124 0.81 0.258 1.584-0.364 1.584-0.364s1.136-0.819 1.306-0.941c0.223-0.161 0.309-0.249 0.277-0.45zm-4.822-1.031c0.152 0.024 0.228 0.349 0.169 0.726s-0.231 0.662-0.384 0.638-0.229-0.349-0.169-0.725c0.059-0.377 0.231-0.663 0.384-0.639zm-1.956 0.999c0.07-0.138 0.402-0.11 0.742 0.063s0.558 0.425 0.488 0.563-0.402 0.11-0.742-0.063-0.558-0.425-0.488-0.563zm1.031 1.878c-0.269 0.27-0.577 0.4-0.686 0.291s0.02-0.416 0.29-0.686c0.269-0.27 0.576-0.4 0.686-0.291 0.109 0.109-0.021 0.416-0.29 0.686zm1.484 0.633c-0.138 0.07-0.39-0.148-0.563-0.487-0.174-0.34-0.203-0.673-0.065-0.743s0.39 0.148 0.563 0.487c0.173 0.34 0.202 0.672 0.065 0.743zm0.357-1.573c-0.377 0.06-0.701-0.015-0.726-0.168-0.024-0.153 0.262-0.325 0.638-0.385 0.377-0.06 0.701 0.015 0.726 0.168 0.024 0.153-0.261 0.325-0.638 0.385z" fill="#DCDCDC"/>
                    
                </g>
            
        </g>
    </g>
</svg>
