<?xml version="1.0" encoding="UTF-8"?>
<!-- Created with Fritzing (http://www.fritzing.org/) -->
<svg width=".8in" height="1.15in" version="1.2" viewBox="0 0 57.6 82.8" xmlns="http://www.w3.org/2000/svg">
 <desc>
  <referenceFile>Adafruit AT42QT1012_breadboard.svg</referenceFile>
 </desc>
 <metadata>
  <rdf:RDF xmlns:rdf="http://www.w3.org/1999/02/22-rdf-syntax-ns#">
   <cc:Work rdf:about="" xmlns:cc="http://creativecommons.org/ns#" xmlns:rdf="http://www.w3.org/1999/02/22-rdf-syntax-ns#">
    <dc:format xmlns:dc="http://purl.org/dc/elements/1.1/">image/svg+xml</dc:format>
    <dc:type rdf:resource="http://purl.org/dc/dcmitype/StillImage" xmlns:dc="http://purl.org/dc/elements/1.1/" xmlns:rdf="http://www.w3.org/1999/02/22-rdf-syntax-ns#"/>
   </cc:Work>
  </rdf:RDF>
 </metadata>
 <desc>Fritzing breadboard generated by brd2svg</desc>
 <ellipse cx="28.331" cy="6.3153" rx="5.175" ry="5.6136" fill="#f55"/>
 <g id="breadboard">
  <g id="icon">
   <path d="m0 7.2a7.2 7.2 0 0 1 7.2-7.2h43.2a7.2 7.2 0 0 1 7.2 7.2v68.4a7.2 7.2 0 0 1-7.2 7.2h-43.2a7.2 7.2 0 0 1-7.2-7.2v-68.4m25.058-1.012a3.5433 3.5433 0 1 0 7.0866 0 3.5433 3.5433 0 1 0-7.0866 0zm16.554 71.212a1.4173 1.4173 0 1 0 2.8346 0 1.4173 1.4173 0 1 0-2.8346 0zm-7.2 0a1.4173 1.4173 0 1 0 2.8346 0 1.4173 1.4173 0 1 0-2.8346 0zm-7.2 0a1.4173 1.4173 0 1 0 2.8346 0 1.4173 1.4173 0 1 0-2.8346 0zm-7.2 0a1.4173 1.4173 0 1 0 2.8346 0 1.4173 1.4173 0 1 0-2.8346 0zm-7.2 0a1.4173 1.4173 0 1 0 2.8346 0 1.4173 1.4173 0 1 0-2.8346 0zm-9.1559-9.72a3.5433 3.5433 0 1 0 7.0866 0 3.5433 3.5433 0 1 0-7.0866 0zm43.2 0a3.5433 3.5433 0 1 0 7.0866 0 3.5433 3.5433 0 1 0-7.0866 0zm-43.2-60.48a3.5433 3.5433 0 1 0 7.0866 0 3.5433 3.5433 0 1 0-7.0866 0zm43.2 0a3.5433 3.5433 0 1 0 7.0866 0 3.5433 3.5433 0 1 0-7.0866 0zm-10.806 46.295a1.2756 1.2756 0 1 0 2.5512 0 1.2756 1.2756 0 1 0-2.5512 0z" fill="#014cb1" stroke-width="0"/>
   <g>
    <title>layer 21</title>
    <g>
     <title>text:VDD</title>
     <g transform="translate(37.65 72.669)">
      <g transform="rotate(270)">
       <text fill="#ffffff" font-family="OCRA" font-size="3.3408" stroke-width="0">VDD</text>
      </g>
     </g>
    </g>
    <g>
     <title>text:GND</title>
     <g transform="translate(15.993 72.783)">
      <g transform="rotate(270)">
       <text fill="#ffffff" font-family="OCRA" font-size="3.3408" stroke-width="0">GND</text>
      </g>
     </g>
    </g>
    <g>
     <title>text:OUT</title>
     <g transform="translate(23.488 72.896)">
      <g transform="rotate(270)">
       <text fill="#ffffff" font-family="OCRA" font-size="3.3408" stroke-width="0">OUT</text>
      </g>
     </g>
    </g>
    <g>
     <title>text:AT42QT1012</title>
     <text x="13.8416" y="60.2674" fill="#ffffff" font-family="OCRA" font-size="4.176" stroke-width="0">AT42QT1012</text>
    </g>
    <g>
     <title>text:LEDA</title>
     <g transform="translate(44.13 72.669)">
      <g transform="rotate(270)">
       <text fill="#ffffff" font-family="OCRA" font-size="3.3408" stroke-width="0">LEDA</text>
      </g>
     </g>
    </g>
    <g>
     <title>text:TIME</title>
     <g transform="translate(30.688 72.896)">
      <g transform="rotate(270)">
       <text fill="#ffffff" font-family="OCRA" font-size="3.3408" stroke-width="0">TIME</text>
      </g>
     </g>
    </g>
    <g>
     <title>element:C1</title>
     <g>
      <title>package:_0805</title>
     </g>
    </g>
    <g>
     <title>element:C3</title>
     <g>
      <title>package:_0805</title>
     </g>
    </g>
    <g>
     <title>element:FID1</title>
     <g>
      <title>package:FIDUCIAL_1MM</title>
     </g>
    </g>
    <g>
     <title>element:FID2</title>
     <g>
      <title>package:FIDUCIAL_1MM</title>
     </g>
    </g>
    <g>
     <title>element:JP1</title>
     <g>
      <title>package:1X05_ROUND_70</title>
     </g>
    </g>
    <g>
     <title>element:LED1</title>
     <g>
      <title>package:PLCC2_REVMOUNT</title>
     </g>
    </g>
    <g>
     <title>element:R1</title>
     <g>
      <title>package:_0805</title>
     </g>
    </g>
    <g>
     <title>element:R2</title>
     <g>
      <title>package:_0805</title>
     </g>
    </g>
    <g>
     <title>element:R3</title>
     <g>
      <title>package:_0805</title>
     </g>
    </g>
    <g>
     <title>element:R4</title>
     <g>
      <title>package:_0805</title>
     </g>
    </g>
    <g>
     <title>element:SJ1</title>
     <g>
      <title>package:SOLDERJUMPER_CLOSEDWIRE</title>
     </g>
    </g>
    <g>
     <title>element:SJ2</title>
     <g>
      <title>package:SOLDERJUMPER_CLOSEDWIRE</title>
     </g>
    </g>
    <g>
     <title>element:SW1</title>
     <g>
      <title>package:CAPTOUCH_SIMPLE_12.5MM</title>
      <path d="m19.389 12.626a9.2126 9.2126 0 0 0-9.2126 9.2126" fill="none" stroke="#fff" stroke-width=".36"/>
      <line x1="19.389" x2="37.814" y1="12.626" y2="12.626" stroke="#fff" stroke-linecap="round" stroke-width=".36"/>
      <path d="m47.027 21.838a9.2126 9.2126 0 0 0-9.2126-9.2126" fill="none" stroke="#fff" stroke-width=".36"/>
      <line x1="47.027" x2="47.027" y1="21.838" y2="40.263" stroke="#fff" stroke-linecap="round" stroke-width=".36"/>
      <path d="m37.814 49.476a9.2126 9.2126 0 0 0 9.2126-9.2126" fill="none" stroke="#fff" stroke-width=".36"/>
      <line x1="37.814" x2="19.389" y1="49.476" y2="49.476" stroke="#fff" stroke-linecap="round" stroke-width=".36"/>
      <path d="m10.176 40.263a9.2126 9.2126 0 0 0 9.2126 9.2126" fill="none" stroke="#fff" stroke-width=".36"/>
      <line x1="10.176" x2="10.176" y1="40.263" y2="21.838" stroke="#fff" stroke-linecap="round" stroke-width=".36"/>
     </g>
    </g>
    <g>
     <title>element:U$6</title>
     <g>
      <title>package:MOUNTINGHOLE_2.5_PLATED</title>
     </g>
    </g>
    <g>
     <title>element:U$9</title>
     <g>
      <title>package:MOUNTINGHOLE_2.5_PLATED</title>
     </g>
    </g>
    <g>
     <title>element:U$10</title>
     <g>
      <title>package:MOUNTINGHOLE_2.5_PLATED</title>
     </g>
    </g>
    <g>
     <title>element:U$11</title>
     <g>
      <title>package:MOUNTINGHOLE_2.5_PLATED</title>
     </g>
    </g>
    <g>
     <title>element:U$12</title>
     <g>
      <title>package:ADAFRUIT_3.5MM</title>
     </g>
    </g>
    <g>
     <title>element:U1</title>
     <g>
      <title>package:SOT23-6</title>
     </g>
    </g>
   </g>
   <circle id="connector0pin" cx="43.03" cy="77.4" r="1.9687" fill="none" stroke="#9A916C" stroke-width="1.1027" connectorname="LEDA"/>
   <circle id="connector1pin" cx="35.83" cy="77.4" r="1.9687" fill="none" stroke="#9A916C" stroke-width="1.1027" connectorname="VDD"/>
   <circle id="connector2pin" cx="28.63" cy="77.4" r="1.9687" fill="none" stroke="#9A916C" stroke-width="1.1027" connectorname="TIME"/>
   <circle id="connector3pin" cx="21.43" cy="77.4" r="1.9687" fill="none" stroke="#9A916C" stroke-width="1.1027" connectorname="OUT"/>
   <circle id="connector4pin" cx="14.23" cy="77.4" r="1.9687" fill="none" stroke="#9A916C" stroke-width="1.1027" connectorname="GND"/>
   <rect id="connector5pin" x="26.802" y="47.017" width="3.6" height="1.8" fill="#9A916C" stroke-width="0"/>
   <circle id="connector6pin" cx="7.2" cy="67.68" r="4.2633" fill="none" stroke="#9A916C" stroke-width="1.44" connectorname="P$1"/>
   <circle id="connector7pin" cx="50.4" cy="67.68" r="4.2633" fill="none" stroke="#9A916C" stroke-width="1.44" connectorname="P$1"/>
   <circle id="connector8pin" cx="7.2" cy="7.2" r="4.2633" fill="none" stroke="#9A916C" stroke-width="1.44" connectorname="P$1"/>
   <circle id="connector9pin" cx="50.4" cy="7.2" r="4.2633" fill="none" stroke="#9A916C" stroke-width="1.44" connectorname="P$1"/>
   <circle id="connector10pin" cx="37.327" cy="53.495" r="1.8258" fill="none" stroke="#9A916C" stroke-width="1.1004" connectorname="CAPPAD"/>
  </g>
 </g>
</svg>
