<?xml version="1.0" encoding="UTF-8"?>
<svg width="36.192mm" height="42.279mm" version="1.1" viewBox="0 0 102.59 119.85" xmlns="http://www.w3.org/2000/svg">
 <desc>
  <referenceFile>Adafruit 1.28 240x240 Round Display_breadboard.svg</referenceFile>
 </desc>
 <!-- Generator: Adobe Illustrator 28.7.4, SVG Export Plug-In . SVG Version: 1.2.0 Build 166)  -->
 <g id="breadboard">
  <g id="icon">
   <path d="m92.168 119.85h-81.72v-37.8c-16.951-22.514-12.44-54.507 10.074-71.458 8.8523-6.6647 19.633-10.267 30.714-10.262h0.144c28.182-0.0122 51.038 22.824 51.05 51.006 0.0048 11.081-3.5973 21.862-10.262 30.714v37.8m-56.451-30.132c0 0.7828 0.6346 1.4173 1.4173 1.4173s1.4173-0.6346 1.4173-1.4173-0.6346-1.4173-1.4173-1.4173-1.4173 0.6346-1.4173 1.4173zm28.346 0c0 0.7828 0.6346 1.4173 1.4173 1.4173s1.4173-0.6346 1.4173-1.4173-0.6346-1.4173-1.4173-1.4173-1.4173 0.6346-1.4173 1.4173zm-50.173 24.732c0 0.7828 0.6346 1.4173 1.4173 1.4173s1.4173-0.6346 1.4173-1.4173c0-0.7828-0.6346-1.4173-1.4173-1.4173s-1.4173 0.6346-1.4173 1.4173zm7.2 0c0 0.7828 0.6346 1.4173 1.4173 1.4173s1.4173-0.6346 1.4173-1.4173c0-0.7828-0.6346-1.4173-1.4173-1.4173s-1.4173 0.6346-1.4173 1.4173zm7.2 0c0 0.7828 0.6346 1.4173 1.4173 1.4173s1.4173-0.6346 1.4173-1.4173c0-0.7828-0.6346-1.4173-1.4173-1.4173s-1.4173 0.6346-1.4173 1.4173zm7.2 0c0 0.7828 0.6346 1.4173 1.4173 1.4173s1.4173-0.6346 1.4173-1.4173-0.6346-1.4173-1.4173-1.4173-1.4173 0.6346-1.4173 1.4173zm7.2 0c0 0.7828 0.6346 1.4173 1.4173 1.4173s1.4173-0.6346 1.4173-1.4173-0.6346-1.4173-1.4173-1.4173-1.4173 0.6346-1.4173 1.4173zm7.2 0c0 0.7828 0.6346 1.4173 1.4173 1.4173s1.4173-0.6346 1.4173-1.4173-0.6346-1.4173-1.4173-1.4173-1.4173 0.6346-1.4173 1.4173zm7.2 0c0 0.7828 0.6346 1.4173 1.4173 1.4173s1.4173-0.6346 1.4173-1.4173-0.6346-1.4173-1.4173-1.4173-1.4173 0.6346-1.4173 1.4173zm7.2 0c0 0.7828 0.6346 1.4173 1.4173 1.4173s1.4173-0.6346 1.4173-1.4173-0.6346-1.4173-1.4173-1.4173-1.4173 0.6346-1.4173 1.4173zm7.2 0c0 0.7828 0.6346 1.4173 1.4173 1.4173s1.4173-0.6346 1.4173-1.4173-0.6346-1.4173-1.4173-1.4173-1.4173 0.6346-1.4173 1.4173zm7.1998 0c0 0.7828 0.6346 1.4173 1.4173 1.4173s1.4173-0.6346 1.4173-1.4173-0.6346-1.4173-1.4173-1.4173-1.4173 0.6346-1.4173 1.4173zm7.2 0c0 0.7828 0.6346 1.4173 1.4173 1.4173s1.4173-0.6346 1.4173-1.4173-0.6346-1.4173-1.4173-1.4173-1.4173 0.6346-1.4173 1.4173zm-70.526-12.6c-0.0033 1.9569 1.5804 3.546 3.5374 3.5493 1.9569 0.0033 3.546-1.5804 3.5493-3.5374v-0.0119c0.0033-1.9569-1.5804-3.546-3.5374-3.5493-1.9569-0.0033-3.546 1.5804-3.5493 3.5374v0.0119zm64.8 0c-0.0034 1.9569 1.5802 3.5461 3.5371 3.5495s3.5461-1.5802 3.5495-3.5371v-0.0125c0.0034-1.9569-1.5802-3.5461-3.5371-3.5495s-3.5461 1.5802-3.5495 3.5371v0.0125z"/>
   <g fill="none" stroke="#fff">
    <g stroke-width=".432">
     <line x1="67.606" x2="67.606" y1="106.72" y2="82.628" stroke-linecap="round"/>
     <path d="m67.606 82.628c-2e-4 -2.3481-1.9038-4.2516-4.2519-4.2516"/>
     <line x1="63.355" x2="39.26" y1="78.376" y2="78.376" stroke-linecap="round"/>
     <path d="m39.26 78.376c-2.3482 0-4.2518 1.9034-4.252 4.2516"/>
     <line x1="35.008" x2="35.008" y1="82.628" y2="106.72" stroke-linecap="round"/>
     <line x1="34.3" x2="68.315" y1="109.56" y2="109.56" stroke-linecap="round"/>
     <line x1="68.315" x2="73.985" y1="109.56" y2="96.801" stroke-linecap="round"/>
     <line x1="34.3" x2="28.63" y1="109.56" y2="96.801" stroke-linecap="round"/>
     <circle cx="51.307" cy="51.447" r="48.614"/>
     <circle cx="51.307" cy="51.447" r="49.89"/>
     <circle cx="51.307" cy="51.447" r="50.457"/>
    </g>
    <circle cx="18.907" cy="101.85" r="5.6693" stroke-width=".576"/>
    <circle cx="83.708" cy="101.85" r="5.6693" stroke-width=".576"/>
   </g>
   <g fill="#fff">
    <rect x="12.067" y="108.25" width=".652" height=".0567"/>
    <rect x="13.995" y="108.25" width=".652" height=".0567"/>
    <rect x="12.124" y="108.34" width=".5953" height=".085"/>
    <rect x="13.995" y="108.34" width=".5953" height=".085"/>
    <rect x="12.124" y="108.4" width=".652" height=".0567"/>
    <rect x="13.995" y="108.4" width=".5953" height=".0567"/>
    <rect x="12.124" y="108.45" width=".652" height=".0567"/>
    <rect x="13.938" y="108.45" width=".652" height=".0567"/>
    <rect x="12.181" y="108.51" width=".5953" height=".0567"/>
    <rect x="13.938" y="108.51" width=".5953" height=".0567"/>
    <rect x="12.181" y="108.57" width=".6803" height=".0567"/>
    <rect x="13.938" y="108.57" width=".5953" height=".0567"/>
    <rect x="12.181" y="108.62" width=".6803" height=".0567"/>
    <rect x="13.882" y="108.62" width=".652" height=".0567"/>
    <rect x="12.238" y="108.68" width=".6236" height=".0567"/>
    <rect x="13.882" y="108.68" width=".5953" height=".0567"/>
    <rect x="12.238" y="108.74" width=".6236" height=".0567"/>
    <rect x="13.882" y="108.74" width=".5953" height=".0567"/>
    <rect x="16.092" y="108.74" width=".3685" height=".0567"/>
    <rect x="12.294" y="108.79" width=".6236" height=".0567"/>
    <rect x="13.796" y="108.79" width=".6803" height=".0567"/>
    <rect x="16.092" y="108.79" width=".3685" height=".0567"/>
    <rect x="12.294" y="108.88" width=".6236" height=".085"/>
    <rect x="13.796" y="108.88" width=".6236" height=".085"/>
    <rect x="16.092" y="108.88" width=".3685" height=".085"/>
    <rect x="12.294" y="108.93" width=".6236" height=".0567"/>
    <rect x="13.796" y="108.93" width=".6236" height=".0567"/>
    <rect x="16.092" y="108.93" width=".3685" height=".0567"/>
    <rect x="12.379" y="108.99" width=".5953" height=".0567"/>
    <rect x="13.74" y="108.99" width=".5953" height=".0567"/>
    <rect x="16.092" y="108.99" width=".3685" height=".0567"/>
    <rect x="12.379" y="109.05" width=".5953" height=".0567"/>
    <rect x="13.74" y="109.05" width=".5953" height=".0567"/>
    <rect x="16.092" y="109.05" width=".3685" height=".0567"/>
    <rect x="12.379" y="109.1" width=".5953" height=".0567"/>
    <rect x="13.74" y="109.1" width=".5953" height=".0567"/>
    <rect x="16.092" y="109.1" width=".3685" height=".0567"/>
    <rect x="12.436" y="109.16" width=".5953" height=".0567"/>
    <rect x="13.683" y="109.16" width=".5953" height=".0567"/>
    <rect x="16.092" y="109.16" width=".3685" height=".0567"/>
    <rect x="12.436" y="109.22" width=".5953" height=".0567"/>
    <rect x="13.683" y="109.22" width=".5953" height=".0567"/>
    <rect x="16.092" y="109.22" width=".3685" height=".0567"/>
    <rect x="12.436" y="109.27" width=".5953" height=".0567"/>
    <rect x="13.683" y="109.27" width=".5953" height=".0567"/>
    <rect x="16.092" y="109.27" width=".3685" height=".0567"/>
    <rect x="12.492" y="109.36" width=".5953" height=".085"/>
    <rect x="13.626" y="109.36" width=".5953" height=".085"/>
    <rect x="16.092" y="109.36" width=".3685" height=".085"/>
    <rect x="12.492" y="109.42" width=".5953" height=".0567"/>
    <rect x="13.626" y="109.42" width=".5953" height=".0567"/>
    <rect x="16.092" y="109.42" width=".3685" height=".0567"/>
    <rect x="12.549" y="109.47" width=".5386" height=".0567"/>
    <rect x="13.626" y="109.47" width=".5386" height=".0567"/>
    <rect x="16.092" y="109.47" width=".3685" height=".0567"/>
    <rect x="12.549" y="109.53" width=".5953" height=".0567"/>
    <rect x="13.626" y="109.53" width=".5386" height=".0567"/>
    <rect x="16.092" y="109.53" width=".3685" height=".0567"/>
    <rect x="12.549" y="109.59" width=".5953" height=".0567"/>
    <rect x="13.57" y="109.59" width=".5953" height=".0567"/>
    <rect x="16.092" y="109.59" width=".3685" height=".0567"/>
    <rect x="12.606" y="109.64" width=".5386" height=".0567"/>
    <rect x="13.57" y="109.64" width=".5386" height=".0567"/>
    <rect x="16.092" y="109.64" width=".3685" height=".0567"/>
    <rect x="12.606" y="109.7" width=".5386" height=".0567"/>
    <rect x="13.57" y="109.7" width=".5386" height=".0567"/>
    <rect x="15.129" y="109.7" width="2.2677" height=".0567"/>
    <rect x="12.606" y="109.76" width=".5953" height=".0567"/>
    <rect x="13.513" y="109.76" width=".5953" height=".0567"/>
    <rect x="15.129" y="109.76" width="2.2677" height=".0567"/>
    <rect x="12.663" y="109.81" width=".5386" height=".0567"/>
    <rect x="13.513" y="109.81" width=".5386" height=".0567"/>
    <rect x="15.129" y="109.81" width="2.2677" height=".0567"/>
    <rect x="12.663" y="109.9" width=".5386" height=".085"/>
    <rect x="13.513" y="109.9" width=".5386" height=".085"/>
    <rect x="15.129" y="109.9" width="2.2677" height=".085"/>
    <rect x="12.719" y="109.96" width=".5386" height=".0567"/>
    <rect x="13.456" y="109.96" width=".5386" height=".0567"/>
    <rect x="15.129" y="109.96" width="2.2677" height=".0567"/>
    <rect x="12.719" y="110.01" width=".5386" height=".0567"/>
    <rect x="13.456" y="110.01" width=".5386" height=".0567"/>
    <rect x="15.129" y="110.01" width="2.2677" height=".0567"/>
    <rect x="12.719" y="110.07" width=".5386" height=".0567"/>
    <rect x="13.456" y="110.07" width=".5386" height=".0567"/>
    <rect x="16.092" y="110.07" width=".3685" height=".0567"/>
    <rect x="12.776" y="110.13" width=".4819" height=".0567"/>
    <rect x="13.456" y="110.13" width=".4819" height=".0567"/>
    <rect x="16.092" y="110.13" width=".3685" height=".0567"/>
    <rect x="12.776" y="110.18" width=".5386" height=".0567"/>
    <rect x="13.4" y="110.18" width=".5386" height=".0567"/>
    <rect x="16.092" y="110.18" width=".3685" height=".0567"/>
    <rect x="12.776" y="110.24" width=".5386" height=".0567"/>
    <rect x="13.4" y="110.24" width=".5386" height=".0567"/>
    <rect x="16.092" y="110.24" width=".3685" height=".0567"/>
    <rect x="12.861" y="110.29" width=".4535" height=".0567"/>
    <rect x="13.4" y="110.29" width=".4819" height=".0567"/>
    <rect x="16.092" y="110.29" width=".3685" height=".0567"/>
    <rect x="12.861" y="110.38" width=".4535" height=".085"/>
    <rect x="13.4" y="110.38" width=".4819" height=".085"/>
    <rect x="16.092" y="110.38" width=".3685" height=".085"/>
    <rect x="12.861" y="110.44" width=".4535" height=".0567"/>
    <rect x="13.4" y="110.44" width=".4819" height=".0567"/>
    <rect x="16.092" y="110.44" width=".3685" height=".0567"/>
    <rect x="12.918" y="110.49" width=".8787" height=".0567"/>
    <rect x="16.092" y="110.49" width=".3685" height=".0567"/>
    <rect x="12.918" y="110.55" width=".8787" height=".0567"/>
    <rect x="16.092" y="110.55" width=".3685" height=".0567"/>
    <rect x="12.974" y="110.61" width=".7654" height=".0567"/>
    <rect x="16.092" y="110.61" width=".3685" height=".0567"/>
    <rect x="12.974" y="110.66" width=".7654" height=".0567"/>
    <rect x="16.092" y="110.66" width=".3685" height=".0567"/>
    <rect x="12.974" y="110.72" width=".7654" height=".0567"/>
    <rect x="16.092" y="110.72" width=".3685" height=".0567"/>
    <rect x="13.031" y="110.78" width=".652" height=".0567"/>
    <rect x="16.092" y="110.78" width=".3685" height=".0567"/>
    <rect x="13.031" y="110.83" width=".652" height=".0567"/>
    <rect x="16.092" y="110.83" width=".3685" height=".0567"/>
    <rect x="13.031" y="110.92" width=".652" height=".085"/>
    <rect x="16.092" y="110.92" width=".3685" height=".085"/>
    <rect x="13.088" y="110.98" width=".5386" height=".0567"/>
    <rect x="16.092" y="110.98" width=".3685" height=".0567"/>
    <rect x="20.894" y="108.25" width=".5953" height=".0567"/>
    <rect x="22.34" y="108.25" width=".652" height=".0567"/>
    <rect x="24.239" y="108.25" width=".6803" height=".0567"/>
    <rect x="20.696" y="108.34" width=".9071" height=".085"/>
    <rect x="22.397" y="108.34" width=".5953" height=".085"/>
    <rect x="24.239" y="108.34" width=".5953" height=".085"/>
    <rect x="20.583" y="108.4" width="1.1339" height=".0567"/>
    <rect x="22.397" y="108.4" width=".652" height=".0567"/>
    <rect x="24.239" y="108.4" width=".5953" height=".0567"/>
    <rect x="20.526" y="108.45" width="1.2756" height=".0567"/>
    <rect x="22.397" y="108.45" width=".652" height=".0567"/>
    <rect x="24.183" y="108.45" width=".652" height=".0567"/>
    <rect x="20.469" y="108.51" width="1.389" height=".0567"/>
    <rect x="22.454" y="108.51" width=".5953" height=".0567"/>
    <rect x="24.183" y="108.51" width=".5953" height=".0567"/>
    <rect x="20.412" y="108.57" width="1.5024" height=".0567"/>
    <rect x="22.454" y="108.57" width=".652" height=".0567"/>
    <rect x="24.183" y="108.57" width=".5953" height=".0567"/>
    <rect x="20.356" y="108.62" width="1.6157" height=".0567"/>
    <rect x="22.454" y="108.62" width=".652" height=".0567"/>
    <rect x="24.126" y="108.62" width=".652" height=".0567"/>
    <rect x="20.356" y="108.68" width="1.6157" height=".0567"/>
    <rect x="22.51" y="108.68" width=".5953" height=".0567"/>
    <rect x="24.126" y="108.68" width=".5953" height=".0567"/>
    <rect x="20.356" y="108.74" width=".652" height=".0567"/>
    <rect x="21.32" y="108.74" width=".7087" height=".0567"/>
    <rect x="22.51" y="108.74" width=".5953" height=".0567"/>
    <rect x="24.126" y="108.74" width=".5953" height=".0567"/>
    <rect x="20.299" y="108.79" width=".5953" height=".0567"/>
    <rect x="21.433" y="108.79" width=".5953" height=".0567"/>
    <rect x="22.567" y="108.79" width=".5953" height=".0567"/>
    <rect x="24.069" y="108.79" width=".652" height=".0567"/>
    <rect x="20.299" y="108.88" width=".5386" height=".085"/>
    <rect x="21.433" y="108.88" width=".5953" height=".085"/>
    <rect x="22.567" y="108.88" width=".5953" height=".085"/>
    <rect x="24.069" y="108.88" width=".5953" height=".085"/>
    <rect x="20.299" y="108.93" width=".5386" height=".0567"/>
    <rect x="21.49" y="108.93" width=".5386" height=".0567"/>
    <rect x="22.567" y="108.93" width=".5953" height=".0567"/>
    <rect x="24.069" y="108.93" width=".5953" height=".0567"/>
    <rect x="21.49" y="108.99" width=".5386" height=".0567"/>
    <rect x="22.624" y="108.99" width=".5953" height=".0567"/>
    <rect x="24.012" y="108.99" width=".5953" height=".0567"/>
    <rect x="21.49" y="109.05" width=".5386" height=".0567"/>
    <rect x="22.624" y="109.05" width=".5953" height=".0567"/>
    <rect x="24.012" y="109.05" width=".5953" height=".0567"/>
    <rect x="21.49" y="109.1" width=".5386" height=".0567"/>
    <rect x="22.624" y="109.1" width=".5953" height=".0567"/>
    <rect x="24.012" y="109.1" width=".5953" height=".0567"/>
    <rect x="21.433" y="109.16" width=".5386" height=".0567"/>
    <rect x="22.68" y="109.16" width=".5953" height=".0567"/>
    <rect x="23.956" y="109.16" width=".5953" height=".0567"/>
    <rect x="21.433" y="109.22" width=".5386" height=".0567"/>
    <rect x="22.68" y="109.22" width=".5953" height=".0567"/>
    <rect x="23.956" y="109.22" width=".5953" height=".0567"/>
    <rect x="21.32" y="109.27" width=".652" height=".0567"/>
    <rect x="22.68" y="109.27" width=".5953" height=".0567"/>
    <rect x="23.956" y="109.27" width=".5953" height=".0567"/>
    <rect x="21.064" y="109.36" width=".8504" height=".085"/>
    <rect x="22.737" y="109.36" width=".6236" height=".085"/>
    <rect x="23.899" y="109.36" width=".5953" height=".085"/>
    <rect x="21.064" y="109.42" width=".7937" height=".0567"/>
    <rect x="22.737" y="109.42" width=".6236" height=".0567"/>
    <rect x="23.899" y="109.42" width=".5953" height=".0567"/>
    <rect x="21.064" y="109.47" width=".737" height=".0567"/>
    <rect x="22.794" y="109.47" width=".5669" height=".0567"/>
    <rect x="23.899" y="109.47" width=".5386" height=".0567"/>
    <rect x="21.064" y="109.53" width=".5386" height=".0567"/>
    <rect x="22.794" y="109.53" width=".6236" height=".0567"/>
    <rect x="23.899" y="109.53" width=".5386" height=".0567"/>
    <rect x="21.064" y="109.59" width=".652" height=".0567"/>
    <rect x="22.794" y="109.59" width=".6236" height=".0567"/>
    <rect x="23.814" y="109.59" width=".6236" height=".0567"/>
    <rect x="21.064" y="109.64" width=".7937" height=".0567"/>
    <rect x="22.879" y="109.64" width=".5386" height=".0567"/>
    <rect x="23.814" y="109.64" width=".5669" height=".0567"/>
    <rect x="21.064" y="109.7" width=".8504" height=".0567"/>
    <rect x="22.879" y="109.7" width=".5386" height=".0567"/>
    <rect x="23.814" y="109.7" width=".5669" height=".0567"/>
    <rect x="21.064" y="109.76" width=".9071" height=".0567"/>
    <rect x="22.879" y="109.76" width=".5953" height=".0567"/>
    <rect x="23.758" y="109.76" width=".6236" height=".0567"/>
    <rect x="21.32" y="109.81" width=".652" height=".0567"/>
    <rect x="22.935" y="109.81" width=".5386" height=".0567"/>
    <rect x="23.758" y="109.81" width=".5386" height=".0567"/>
    <rect x="21.433" y="109.9" width=".5953" height=".085"/>
    <rect x="22.935" y="109.9" width=".5386" height=".085"/>
    <rect x="23.758" y="109.9" width=".5386" height=".085"/>
    <rect x="21.49" y="109.96" width=".5386" height=".0567"/>
    <rect x="22.992" y="109.96" width=".5386" height=".0567"/>
    <rect x="23.701" y="109.96" width=".5386" height=".0567"/>
    <rect x="21.546" y="110.01" width=".5386" height=".0567"/>
    <rect x="22.992" y="110.01" width=".5386" height=".0567"/>
    <rect x="23.701" y="110.01" width=".5386" height=".0567"/>
    <rect x="21.546" y="110.07" width=".5386" height=".0567"/>
    <rect x="22.992" y="110.07" width=".5386" height=".0567"/>
    <rect x="23.701" y="110.07" width=".5386" height=".0567"/>
    <rect x="21.546" y="110.13" width=".5386" height=".0567"/>
    <rect x="23.049" y="110.13" width=".4819" height=".0567"/>
    <rect x="23.701" y="110.13" width=".4819" height=".0567"/>
    <rect x="21.546" y="110.18" width=".5386" height=".0567"/>
    <rect x="23.049" y="110.18" width=".5386" height=".0567"/>
    <rect x="23.644" y="110.18" width=".5386" height=".0567"/>
    <rect x="20.158" y="110.24" width=".5386" height=".0567"/>
    <rect x="21.546" y="110.24" width=".5386" height=".0567"/>
    <rect x="23.049" y="110.24" width=".5386" height=".0567"/>
    <rect x="23.644" y="110.24" width=".5386" height=".0567"/>
    <rect x="20.158" y="110.29" width=".5386" height=".0567"/>
    <rect x="21.546" y="110.29" width=".5386" height=".0567"/>
    <rect x="23.105" y="110.29" width=".4819" height=".0567"/>
    <rect x="23.644" y="110.29" width=".4819" height=".0567"/>
    <rect x="20.158" y="110.38" width=".6236" height=".085"/>
    <rect x="21.49" y="110.38" width=".5953" height=".085"/>
    <rect x="23.105" y="110.38" width=".4819" height=".085"/>
    <rect x="23.644" y="110.38" width=".4819" height=".085"/>
    <rect x="20.158" y="110.44" width=".6803" height=".0567"/>
    <rect x="21.433" y="110.44" width=".652" height=".0567"/>
    <rect x="23.105" y="110.44" width=".4819" height=".0567"/>
    <rect x="23.644" y="110.44" width=".4819" height=".0567"/>
    <rect x="20.214" y="110.49" width=".737" height=".0567"/>
    <rect x="21.32" y="110.49" width=".7087" height=".0567"/>
    <rect x="23.162" y="110.49" width=".9071" height=".0567"/>
    <rect x="20.214" y="110.55" width="1.8142" height=".0567"/>
    <rect x="23.162" y="110.55" width=".9071" height=".0567"/>
    <rect x="20.299" y="110.61" width="1.6724" height=".0567"/>
    <rect x="23.219" y="110.61" width=".7937" height=".0567"/>
    <rect x="20.299" y="110.66" width="1.6724" height=".0567"/>
    <rect x="23.219" y="110.66" width=".7937" height=".0567"/>
    <rect x="20.356" y="110.72" width="1.559" height=".0567"/>
    <rect x="23.219" y="110.72" width=".7937" height=".0567"/>
    <rect x="20.412" y="110.78" width="1.4457" height=".0567"/>
    <rect x="23.276" y="110.78" width=".6803" height=".0567"/>
    <rect x="20.526" y="110.83" width="1.1905" height=".0567"/>
    <rect x="23.276" y="110.83" width=".6803" height=".0567"/>
    <rect x="20.583" y="110.92" width="1.0205" height=".085"/>
    <rect x="23.276" y="110.92" width=".6803" height=".085"/>
    <rect x="20.781" y="110.98" width=".652" height=".0567"/>
    <rect x="23.361" y="110.98" width=".5386" height=".0567"/>
    <rect x="29.24" y="107.87" width=".5953" height=".0567"/>
    <rect x="28.984" y="107.92" width="1.0772" height=".0567"/>
    <rect x="28.871" y="108.01" width="1.3039" height=".085"/>
    <rect x="28.758" y="108.06" width="1.559" height=".0567"/>
    <rect x="28.616" y="108.12" width="1.7575" height=".0567"/>
    <rect x="28.559" y="108.18" width="1.9276" height=".0567"/>
    <rect x="28.503" y="108.23" width="2.041" height=".0567"/>
    <rect x="28.446" y="108.29" width="2.1543" height=".0567"/>
    <rect x="28.389" y="108.35" width=".9638" height=".0567"/>
    <rect x="29.835" y="108.35" width=".822" height=".0567"/>
    <rect x="28.332" y="108.4" width=".822" height=".0567"/>
    <rect x="29.948" y="108.4" width=".7087" height=".0567"/>
    <rect x="28.332" y="108.49" width=".7087" height=".085"/>
    <rect x="30.062" y="108.49" width=".5386" height=".085"/>
    <rect x="28.276" y="108.55" width=".7087" height=".0567"/>
    <rect x="30.118" y="108.55" width=".3685" height=".0567"/>
    <rect x="28.219" y="108.6" width=".7087" height=".0567"/>
    <rect x="30.175" y="108.6" width=".2551" height=".0567"/>
    <rect x="28.219" y="108.66" width=".652" height=".0567"/>
    <rect x="30.26" y="108.66" width=".1134" height=".0567"/>
    <rect x="28.219" y="108.72" width=".5953" height=".0567"/>
    <rect x="30.26" y="108.72" width=".0567" height=".0567"/>
    <rect x="28.134" y="108.77" width=".6803" height=".0567"/>
    <rect x="28.134" y="108.83" width=".6236" height=".0567"/>
    <rect x="28.134" y="108.89" width=".6236" height=".0567"/>
    <rect x="28.078" y="108.94" width=".6803" height=".0567"/>
    <rect x="28.078" y="109.03" width=".6236" height=".085"/>
    <rect x="28.078" y="109.08" width=".6236" height=".0567"/>
    <rect x="28.078" y="109.14" width=".6236" height=".0567"/>
    <rect x="28.078" y="109.2" width=".6236" height=".0567"/>
    <rect x="28.078" y="109.25" width=".6236" height=".0567"/>
    <rect x="29.58" y="109.25" width="1.2756" height=".0567"/>
    <rect x="28.078" y="109.31" width=".6236" height=".0567"/>
    <rect x="29.58" y="109.31" width="1.2756" height=".0567"/>
    <rect x="28.078" y="109.37" width=".6236" height=".0567"/>
    <rect x="29.58" y="109.37" width="1.2756" height=".0567"/>
    <rect x="28.078" y="109.43" width=".6236" height=".0567"/>
    <rect x="29.58" y="109.43" width="1.2756" height=".0567"/>
    <rect x="28.078" y="109.51" width=".6236" height=".085"/>
    <rect x="29.58" y="109.51" width="1.2756" height=".085"/>
    <rect x="28.078" y="109.57" width=".6803" height=".0567"/>
    <rect x="29.58" y="109.57" width="1.2756" height=".0567"/>
    <rect x="28.134" y="109.62" width=".6236" height=".0567"/>
    <rect x="29.58" y="109.62" width="1.2756" height=".0567"/>
    <rect x="28.134" y="109.68" width=".6236" height=".0567"/>
    <rect x="29.58" y="109.68" width="1.2189" height=".0567"/>
    <rect x="28.134" y="109.74" width=".6803" height=".0567"/>
    <rect x="30.26" y="109.74" width=".5386" height=".0567"/>
    <rect x="28.219" y="109.79" width=".5953" height=".0567"/>
    <rect x="30.26" y="109.79" width=".5386" height=".0567"/>
    <rect x="28.219" y="109.85" width=".652" height=".0567"/>
    <rect x="30.26" y="109.85" width=".5386" height=".0567"/>
    <rect x="28.276" y="109.91" width=".652" height=".0567"/>
    <rect x="30.175" y="109.91" width=".5386" height=".0567"/>
    <rect x="28.276" y="109.96" width=".7087" height=".0567"/>
    <rect x="30.175" y="109.96" width=".5386" height=".0567"/>
    <rect x="28.332" y="110.05" width=".7087" height=".085"/>
    <rect x="30.062" y="110.05" width=".5953" height=".085"/>
    <rect x="28.332" y="110.1" width=".822" height=".0567"/>
    <rect x="30.005" y="110.1" width=".652" height=".0567"/>
    <rect x="28.389" y="110.16" width=".9638" height=".0567"/>
    <rect x="29.835" y="110.16" width=".7654" height=".0567"/>
    <rect x="28.446" y="110.22" width="2.0976" height=".0567"/>
    <rect x="28.503" y="110.28" width="1.9843" height=".0567"/>
    <rect x="28.559" y="110.33" width="1.9276" height=".0567"/>
    <rect x="28.701" y="110.39" width="1.6724" height=".0567"/>
    <rect x="28.758" y="110.45" width="1.559" height=".0567"/>
    <rect x="28.871" y="110.53" width="1.3039" height=".085"/>
    <rect x="28.984" y="110.59" width="1.0772" height=".0567"/>
    <rect x="29.24" y="110.64" width=".652" height=".0567"/>
    <rect x="73.863" y="107.87" width=".737" height=".0567"/>
    <rect x="69.979" y="107.92" width="1.2472" height=".0567"/>
    <rect x="73.692" y="107.92" width="1.1339" height=".0567"/>
    <rect x="69.979" y="108.01" width="1.5591" height=".085"/>
    <rect x="73.494" y="108.01" width="1.4457" height=".085"/>
    <rect x="69.979" y="108.06" width="1.6724" height=".0567"/>
    <rect x="73.38" y="108.06" width="1.7008" height=".0567"/>
    <rect x="69.979" y="108.12" width="1.7858" height=".0567"/>
    <rect x="73.324" y="108.12" width="1.7575" height=".0567"/>
    <rect x="69.979" y="108.18" width="1.8992" height=".0567"/>
    <rect x="73.211" y="108.18" width="1.8709" height=".0567"/>
    <rect x="69.979" y="108.23" width="1.9559" height=".0567"/>
    <rect x="73.154" y="108.23" width="1.9276" height=".0567"/>
    <rect x="69.979" y="108.29" width="2.0409" height=".0567"/>
    <rect x="73.098" y="108.29" width="1.9843" height=".0567"/>
    <rect x="69.979" y="108.35" width="2.0976" height=".0567"/>
    <rect x="73.041" y="108.35" width="1.0205" height=".0567"/>
    <rect x="74.514" y="108.35" width=".5669" height=".0567"/>
    <rect x="69.979" y="108.4" width=".5953" height=".0567"/>
    <rect x="71.17" y="108.4" width=".9638" height=".0567"/>
    <rect x="72.956" y="108.4" width=".9071" height=".0567"/>
    <rect x="74.769" y="108.4" width=".3118" height=".0567"/>
    <rect x="69.979" y="108.49" width=".5953" height=".085"/>
    <rect x="71.34" y="108.49" width=".7937" height=".085"/>
    <rect x="72.956" y="108.49" width=".7937" height=".085"/>
    <rect x="74.826" y="108.49" width=".2551" height=".085"/>
    <rect x="69.979" y="108.55" width=".5953" height=".0567"/>
    <rect x="71.482" y="108.55" width=".7087" height=".0567"/>
    <rect x="72.899" y="108.55" width=".737" height=".0567"/>
    <rect x="74.94" y="108.55" width=".1417" height=".0567"/>
    <rect x="69.979" y="108.6" width=".5953" height=".0567"/>
    <rect x="71.538" y="108.6" width=".652" height=".0567"/>
    <rect x="72.899" y="108.6" width=".6803" height=".0567"/>
    <rect x="74.996" y="108.6" width=".085" height=".0567"/>
    <rect x="69.979" y="108.66" width=".5953" height=".0567"/>
    <rect x="71.595" y="108.66" width=".652" height=".0567"/>
    <rect x="72.842" y="108.66" width=".652" height=".0567"/>
    <rect x="69.979" y="108.72" width=".5953" height=".0567"/>
    <rect x="71.652" y="108.72" width=".5953" height=".0567"/>
    <rect x="72.842" y="108.72" width=".652" height=".0567"/>
    <rect x="69.979" y="108.77" width=".5953" height=".0567"/>
    <rect x="71.652" y="108.77" width=".652" height=".0567"/>
    <rect x="72.786" y="108.77" width=".652" height=".0567"/>
    <rect x="69.979" y="108.83" width=".5953" height=".0567"/>
    <rect x="71.708" y="108.83" width=".5953" height=".0567"/>
    <rect x="72.786" y="108.83" width=".5953" height=".0567"/>
    <rect x="69.979" y="108.89" width=".5953" height=".0567"/>
    <rect x="71.708" y="108.89" width=".5953" height=".0567"/>
    <rect x="72.786" y="108.89" width=".5953" height=".0567"/>
    <rect x="69.979" y="108.94" width=".5953" height=".0567"/>
    <rect x="71.708" y="108.94" width=".5953" height=".0567"/>
    <rect x="72.729" y="108.94" width=".652" height=".0567"/>
    <rect x="69.979" y="109.03" width=".5953" height=".085"/>
    <rect x="71.765" y="109.03" width=".5953" height=".085"/>
    <rect x="72.729" y="109.03" width=".5953" height=".085"/>
    <rect x="69.979" y="109.08" width=".5953" height=".0567"/>
    <rect x="71.765" y="109.08" width=".5953" height=".0567"/>
    <rect x="72.729" y="109.08" width=".5953" height=".0567"/>
    <rect x="69.979" y="109.14" width=".5953" height=".0567"/>
    <rect x="71.765" y="109.14" width=".5953" height=".0567"/>
    <rect x="72.729" y="109.14" width=".5953" height=".0567"/>
    <rect x="69.979" y="109.2" width=".5953" height=".0567"/>
    <rect x="71.765" y="109.2" width=".5953" height=".0567"/>
    <rect x="72.729" y="109.2" width=".5953" height=".0567"/>
    <rect x="69.979" y="109.25" width=".5953" height=".0567"/>
    <rect x="71.765" y="109.25" width=".5953" height=".0567"/>
    <rect x="72.729" y="109.25" width=".5953" height=".0567"/>
    <rect x="69.979" y="109.31" width=".5953" height=".0567"/>
    <rect x="71.765" y="109.31" width=".5953" height=".0567"/>
    <rect x="72.729" y="109.31" width=".5953" height=".0567"/>
    <rect x="69.979" y="109.37" width=".5953" height=".0567"/>
    <rect x="71.765" y="109.37" width=".5953" height=".0567"/>
    <rect x="72.729" y="109.37" width=".5953" height=".0567"/>
    <rect x="69.979" y="109.43" width=".5953" height=".0567"/>
    <rect x="71.765" y="109.43" width=".5953" height=".0567"/>
    <rect x="72.729" y="109.43" width=".5953" height=".0567"/>
    <rect x="69.979" y="109.51" width=".5953" height=".085"/>
    <rect x="71.765" y="109.51" width=".5953" height=".085"/>
    <rect x="72.729" y="109.51" width=".5953" height=".085"/>
    <rect x="69.979" y="109.57" width=".5953" height=".0567"/>
    <rect x="71.765" y="109.57" width=".5953" height=".0567"/>
    <rect x="72.729" y="109.57" width=".652" height=".0567"/>
    <rect x="69.979" y="109.62" width=".5953" height=".0567"/>
    <rect x="71.708" y="109.62" width=".652" height=".0567"/>
    <rect x="72.786" y="109.62" width=".5953" height=".0567"/>
    <rect x="69.979" y="109.68" width=".5953" height=".0567"/>
    <rect x="71.708" y="109.68" width=".5953" height=".0567"/>
    <rect x="72.786" y="109.68" width=".5953" height=".0567"/>
    <rect x="69.979" y="109.74" width=".5953" height=".0567"/>
    <rect x="71.708" y="109.74" width=".5953" height=".0567"/>
    <rect x="72.786" y="109.74" width=".652" height=".0567"/>
    <rect x="69.979" y="109.79" width=".5953" height=".0567"/>
    <rect x="71.652" y="109.79" width=".652" height=".0567"/>
    <rect x="72.842" y="109.79" width=".5953" height=".0567"/>
    <rect x="69.979" y="109.85" width=".5953" height=".0567"/>
    <rect x="71.652" y="109.85" width=".5953" height=".0567"/>
    <rect x="72.842" y="109.85" width=".652" height=".0567"/>
    <rect x="74.996" y="109.85" width=".085" height=".0567"/>
    <rect x="69.979" y="109.91" width=".5953" height=".0567"/>
    <rect x="71.595" y="109.91" width=".652" height=".0567"/>
    <rect x="72.899" y="109.91" width=".6803" height=".0567"/>
    <rect x="74.94" y="109.91" width=".1417" height=".0567"/>
    <rect x="69.979" y="109.96" width=".5953" height=".0567"/>
    <rect x="71.538" y="109.96" width=".7087" height=".0567"/>
    <rect x="72.899" y="109.96" width=".737" height=".0567"/>
    <rect x="74.883" y="109.96" width=".1984" height=".0567"/>
    <rect x="69.979" y="110.05" width=".5953" height=".085"/>
    <rect x="71.482" y="110.05" width=".7087" height=".085"/>
    <rect x="72.956" y="110.05" width=".737" height=".085"/>
    <rect x="74.826" y="110.05" width=".2551" height=".085"/>
    <rect x="69.979" y="110.1" width=".5953" height=".0567"/>
    <rect x="71.34" y="110.1" width=".7937" height=".0567"/>
    <rect x="72.956" y="110.1" width=".8504" height=".0567"/>
    <rect x="74.713" y="110.1" width=".3685" height=".0567"/>
    <rect x="69.979" y="110.16" width=".5953" height=".0567"/>
    <rect x="71.226" y="110.16" width=".9071" height=".0567"/>
    <rect x="73.041" y="110.16" width=".9354" height=".0567"/>
    <rect x="74.514" y="110.16" width=".5669" height=".0567"/>
    <rect x="69.979" y="110.22" width="2.0976" height=".0567"/>
    <rect x="73.098" y="110.22" width="1.9843" height=".0567"/>
    <rect x="69.979" y="110.28" width="2.0409" height=".0567"/>
    <rect x="73.154" y="110.28" width="1.9276" height=".0567"/>
    <rect x="69.979" y="110.33" width="1.9559" height=".0567"/>
    <rect x="73.211" y="110.33" width="1.8709" height=".0567"/>
    <rect x="69.979" y="110.39" width="1.8992" height=".0567"/>
    <rect x="73.324" y="110.39" width="1.7575" height=".0567"/>
    <rect x="69.979" y="110.45" width="1.7858" height=".0567"/>
    <rect x="73.38" y="110.45" width="1.7008" height=".0567"/>
    <rect x="69.979" y="110.53" width="1.7291" height=".085"/>
    <rect x="73.494" y="110.53" width="1.4457" height=".085"/>
    <rect x="69.979" y="110.59" width="1.5591" height=".0567"/>
    <rect x="73.636" y="110.59" width="1.1906" height=".0567"/>
    <rect x="69.979" y="110.64" width="1.3039" height=".0567"/>
    <rect x="73.863" y="110.64" width=".737" height=".0567"/>
    <rect x="78.56" y="107.87" width=".7087" height=".0567"/>
    <rect x="81.309" y="107.87" width=".7087" height=".0567"/>
    <rect x="78.362" y="107.92" width="1.1339" height=".0567"/>
    <rect x="81.139" y="107.92" width="1.1339" height=".0567"/>
    <rect x="78.191" y="108.01" width="1.4457" height=".085"/>
    <rect x="80.94" y="108.01" width="1.4457" height=".085"/>
    <rect x="78.078" y="108.06" width="1.6724" height=".0567"/>
    <rect x="80.828" y="108.06" width="1.6724" height=".0567"/>
    <rect x="78.021" y="108.12" width="1.7291" height=".0567"/>
    <rect x="80.771" y="108.12" width="1.7291" height=".0567"/>
    <rect x="77.879" y="108.18" width="1.8709" height=".0567"/>
    <rect x="80.658" y="108.18" width="1.8425" height=".0567"/>
    <rect x="77.823" y="108.23" width="1.9276" height=".0567"/>
    <rect x="80.601" y="108.23" width="1.8992" height=".0567"/>
    <rect x="77.766" y="108.29" width="1.9843" height=".0567"/>
    <rect x="80.516" y="108.29" width="1.9843" height=".0567"/>
    <rect x="77.709" y="108.35" width="1.0205" height=".0567"/>
    <rect x="79.212" y="108.35" width=".5386" height=".0567"/>
    <rect x="80.459" y="108.35" width="1.0205" height=".0567"/>
    <rect x="81.962" y="108.35" width=".5386" height=".0567"/>
    <rect x="77.652" y="108.4" width=".9071" height=".0567"/>
    <rect x="79.439" y="108.4" width=".3118" height=".0567"/>
    <rect x="80.402" y="108.4" width=".9071" height=".0567"/>
    <rect x="82.216" y="108.4" width=".2835" height=".0567"/>
    <rect x="77.652" y="108.49" width=".7654" height=".085"/>
    <rect x="79.495" y="108.49" width=".2551" height=".085"/>
    <rect x="80.402" y="108.49" width=".7937" height=".085"/>
    <rect x="82.273" y="108.49" width=".2268" height=".085"/>
    <rect x="77.596" y="108.55" width=".7087" height=".0567"/>
    <rect x="79.637" y="108.55" width=".1134" height=".0567"/>
    <rect x="80.346" y="108.55" width=".7087" height=".0567"/>
    <rect x="82.386" y="108.55" width=".1134" height=".0567"/>
    <rect x="77.596" y="108.6" width=".652" height=".0567"/>
    <rect x="79.694" y="108.6" width=".0567" height=".0567"/>
    <rect x="80.346" y="108.6" width=".652" height=".0567"/>
    <rect x="82.443" y="108.6" width=".0567" height=".0567"/>
    <rect x="77.539" y="108.66" width=".652" height=".0567"/>
    <rect x="80.289" y="108.66" width=".652" height=".0567"/>
    <rect x="77.539" y="108.72" width=".652" height=".0567"/>
    <rect x="80.289" y="108.72" width=".652" height=".0567"/>
    <rect x="77.454" y="108.77" width=".6803" height=".0567"/>
    <rect x="80.232" y="108.77" width=".652" height=".0567"/>
    <rect x="77.454" y="108.83" width=".6236" height=".0567"/>
    <rect x="80.232" y="108.83" width=".5953" height=".0567"/>
    <rect x="77.454" y="108.89" width=".6236" height=".0567"/>
    <rect x="80.232" y="108.89" width=".5953" height=".0567"/>
    <rect x="77.397" y="108.94" width=".6803" height=".0567"/>
    <rect x="80.175" y="108.94" width=".652" height=".0567"/>
    <rect x="77.397" y="109.03" width=".6236" height=".085"/>
    <rect x="80.175" y="109.03" width=".5953" height=".085"/>
    <rect x="77.397" y="109.08" width=".6236" height=".0567"/>
    <rect x="80.175" y="109.08" width=".5953" height=".0567"/>
    <rect x="77.397" y="109.14" width=".6236" height=".0567"/>
    <rect x="80.175" y="109.14" width=".5953" height=".0567"/>
    <rect x="77.397" y="109.2" width=".6236" height=".0567"/>
    <rect x="80.175" y="109.2" width=".5953" height=".0567"/>
    <rect x="77.397" y="109.25" width=".6236" height=".0567"/>
    <rect x="80.175" y="109.25" width=".5953" height=".0567"/>
    <rect x="77.397" y="109.31" width=".6236" height=".0567"/>
    <rect x="80.175" y="109.31" width=".5953" height=".0567"/>
    <rect x="77.397" y="109.37" width=".6236" height=".0567"/>
    <rect x="80.175" y="109.37" width=".5953" height=".0567"/>
    <rect x="77.397" y="109.43" width=".6236" height=".0567"/>
    <rect x="80.175" y="109.43" width=".5953" height=".0567"/>
    <rect x="77.397" y="109.51" width=".6236" height=".085"/>
    <rect x="80.175" y="109.51" width=".5953" height=".085"/>
    <rect x="77.397" y="109.57" width=".6803" height=".0567"/>
    <rect x="80.175" y="109.57" width=".652" height=".0567"/>
    <rect x="77.454" y="109.62" width=".6236" height=".0567"/>
    <rect x="80.232" y="109.62" width=".5953" height=".0567"/>
    <rect x="77.454" y="109.68" width=".6236" height=".0567"/>
    <rect x="80.232" y="109.68" width=".5953" height=".0567"/>
    <rect x="77.454" y="109.74" width=".6803" height=".0567"/>
    <rect x="80.232" y="109.74" width=".652" height=".0567"/>
    <rect x="77.539" y="109.79" width=".5953" height=".0567"/>
    <rect x="80.289" y="109.79" width=".5953" height=".0567"/>
    <rect x="77.539" y="109.85" width=".652" height=".0567"/>
    <rect x="79.694" y="109.85" width=".0567" height=".0567"/>
    <rect x="80.289" y="109.85" width=".652" height=".0567"/>
    <rect x="82.443" y="109.85" width=".0567" height=".0567"/>
    <rect x="77.596" y="109.91" width=".652" height=".0567"/>
    <rect x="79.637" y="109.91" width=".1134" height=".0567"/>
    <rect x="80.346" y="109.91" width=".652" height=".0567"/>
    <rect x="82.386" y="109.91" width=".1134" height=".0567"/>
    <rect x="77.596" y="109.96" width=".7087" height=".0567"/>
    <rect x="79.58" y="109.96" width=".1701" height=".0567"/>
    <rect x="80.346" y="109.96" width=".7087" height=".0567"/>
    <rect x="82.329" y="109.96" width=".1701" height=".0567"/>
    <rect x="77.652" y="110.05" width=".7087" height=".085"/>
    <rect x="79.495" y="110.05" width=".2551" height=".085"/>
    <rect x="80.402" y="110.05" width=".737" height=".085"/>
    <rect x="82.273" y="110.05" width=".2268" height=".085"/>
    <rect x="77.652" y="110.1" width=".822" height=".0567"/>
    <rect x="79.382" y="110.1" width=".3685" height=".0567"/>
    <rect x="80.402" y="110.1" width=".8504" height=".0567"/>
    <rect x="82.16" y="110.1" width=".3402" height=".0567"/>
    <rect x="77.709" y="110.16" width=".9638" height=".0567"/>
    <rect x="79.212" y="110.16" width=".5386" height=".0567"/>
    <rect x="80.459" y="110.16" width=".9638" height=".0567"/>
    <rect x="81.962" y="110.16" width=".5386" height=".0567"/>
    <rect x="77.766" y="110.22" width="1.9843" height=".0567"/>
    <rect x="80.516" y="110.22" width="1.9843" height=".0567"/>
    <rect x="77.823" y="110.28" width="1.9276" height=".0567"/>
    <rect x="80.601" y="110.28" width="1.8992" height=".0567"/>
    <rect x="77.879" y="110.33" width="1.8709" height=".0567"/>
    <rect x="80.658" y="110.33" width="1.8425" height=".0567"/>
    <rect x="78.021" y="110.39" width="1.7291" height=".0567"/>
    <rect x="80.771" y="110.39" width="1.7291" height=".0567"/>
    <rect x="78.078" y="110.45" width="1.6724" height=".0567"/>
    <rect x="80.828" y="110.45" width="1.6724" height=".0567"/>
    <rect x="78.191" y="110.53" width="1.4457" height=".085"/>
    <rect x="80.94" y="110.53" width="1.4457" height=".085"/>
    <rect x="78.305" y="110.59" width="1.1906" height=".0567"/>
    <rect x="81.054" y="110.59" width="1.2189" height=".0567"/>
    <rect x="78.56" y="110.64" width=".7087" height=".0567"/>
    <rect x="81.309" y="110.64" width=".7087" height=".0567"/>
    <rect x="86.179" y="107.89" width="1.0772" height=".0567"/>
    <rect x="88.447" y="107.89" width=".5953" height=".0567"/>
    <rect x="86.179" y="107.98" width="1.3039" height=".085"/>
    <rect x="88.447" y="107.98" width=".5953" height=".085"/>
    <rect x="86.179" y="108.04" width="1.4173" height=".0567"/>
    <rect x="88.447" y="108.04" width=".5953" height=".0567"/>
    <rect x="86.179" y="108.09" width="1.5024" height=".0567"/>
    <rect x="88.447" y="108.09" width=".5953" height=".0567"/>
    <rect x="86.179" y="108.15" width="1.5591" height=".0567"/>
    <rect x="88.447" y="108.15" width=".5953" height=".0567"/>
    <rect x="86.179" y="108.21" width="1.6157" height=".0567"/>
    <rect x="88.447" y="108.21" width=".5953" height=".0567"/>
    <rect x="86.179" y="108.26" width="1.6724" height=".0567"/>
    <rect x="88.447" y="108.26" width=".5953" height=".0567"/>
    <rect x="86.179" y="108.32" width="1.6724" height=".0567"/>
    <rect x="88.447" y="108.32" width=".5953" height=".0567"/>
    <rect x="86.179" y="108.38" width=".5953" height=".0567"/>
    <rect x="87.2" y="108.38" width=".7087" height=".0567"/>
    <rect x="88.447" y="108.38" width=".5953" height=".0567"/>
    <rect x="86.179" y="108.43" width=".5953" height=".0567"/>
    <rect x="87.313" y="108.43" width=".5953" height=".0567"/>
    <rect x="88.447" y="108.43" width=".5953" height=".0567"/>
    <rect x="86.179" y="108.52" width=".5953" height=".085"/>
    <rect x="87.313" y="108.52" width=".5953" height=".085"/>
    <rect x="88.447" y="108.52" width=".5953" height=".085"/>
    <rect x="86.179" y="108.57" width=".5953" height=".0567"/>
    <rect x="87.369" y="108.57" width=".5386" height=".0567"/>
    <rect x="88.447" y="108.57" width=".5953" height=".0567"/>
    <rect x="86.179" y="108.63" width=".5953" height=".0567"/>
    <rect x="87.369" y="108.63" width=".5386" height=".0567"/>
    <rect x="88.447" y="108.63" width=".5953" height=".0567"/>
    <rect x="86.179" y="108.69" width=".5953" height=".0567"/>
    <rect x="87.369" y="108.69" width=".5386" height=".0567"/>
    <rect x="88.447" y="108.69" width=".5953" height=".0567"/>
    <rect x="86.179" y="108.74" width=".5953" height=".0567"/>
    <rect x="87.369" y="108.74" width=".5386" height=".0567"/>
    <rect x="88.447" y="108.74" width=".5953" height=".0567"/>
    <rect x="86.179" y="108.8" width=".5953" height=".0567"/>
    <rect x="87.313" y="108.8" width=".5386" height=".0567"/>
    <rect x="88.447" y="108.8" width=".5953" height=".0567"/>
    <rect x="86.179" y="108.86" width=".5953" height=".0567"/>
    <rect x="87.313" y="108.86" width=".5386" height=".0567"/>
    <rect x="88.447" y="108.86" width=".5953" height=".0567"/>
    <rect x="86.179" y="108.91" width=".5953" height=".0567"/>
    <rect x="87.2" y="108.91" width=".5953" height=".0567"/>
    <rect x="88.447" y="108.91" width=".5953" height=".0567"/>
    <rect x="86.179" y="109" width="1.5591" height=".085"/>
    <rect x="88.447" y="109" width=".5953" height=".085"/>
    <rect x="86.179" y="109.06" width="1.5024" height=".0567"/>
    <rect x="88.447" y="109.06" width=".5953" height=".0567"/>
    <rect x="86.179" y="109.11" width="1.3606" height=".0567"/>
    <rect x="88.447" y="109.11" width=".5953" height=".0567"/>
    <rect x="86.179" y="109.17" width="1.1906" height=".0567"/>
    <rect x="88.447" y="109.17" width=".5953" height=".0567"/>
    <rect x="86.179" y="109.23" width="1.3606" height=".0567"/>
    <rect x="88.447" y="109.23" width=".5953" height=".0567"/>
    <rect x="86.179" y="109.28" width="1.5591" height=".0567"/>
    <rect x="88.447" y="109.28" width=".5953" height=".0567"/>
    <rect x="86.179" y="109.34" width="1.6157" height=".0567"/>
    <rect x="88.447" y="109.34" width=".5953" height=".0567"/>
    <rect x="86.179" y="109.4" width="1.6724" height=".0567"/>
    <rect x="88.447" y="109.4" width=".5953" height=".0567"/>
    <rect x="86.179" y="109.45" width=".5953" height=".0567"/>
    <rect x="87.2" y="109.45" width=".7087" height=".0567"/>
    <rect x="88.447" y="109.45" width=".5953" height=".0567"/>
    <rect x="86.179" y="109.54" width=".5953" height=".085"/>
    <rect x="87.313" y="109.54" width=".652" height=".085"/>
    <rect x="88.447" y="109.54" width=".5953" height=".085"/>
    <rect x="86.179" y="109.6" width=".5953" height=".0567"/>
    <rect x="87.369" y="109.6" width=".5953" height=".0567"/>
    <rect x="88.447" y="109.6" width=".5953" height=".0567"/>
    <rect x="86.179" y="109.65" width=".5953" height=".0567"/>
    <rect x="87.426" y="109.65" width=".5953" height=".0567"/>
    <rect x="88.447" y="109.65" width=".5953" height=".0567"/>
    <rect x="86.179" y="109.71" width=".5953" height=".0567"/>
    <rect x="87.426" y="109.71" width=".5953" height=".0567"/>
    <rect x="88.447" y="109.71" width=".5953" height=".0567"/>
    <rect x="86.179" y="109.77" width=".5953" height=".0567"/>
    <rect x="87.426" y="109.77" width=".5953" height=".0567"/>
    <rect x="88.447" y="109.77" width=".5953" height=".0567"/>
    <rect x="86.179" y="109.82" width=".5953" height=".0567"/>
    <rect x="87.426" y="109.82" width=".5953" height=".0567"/>
    <rect x="88.447" y="109.82" width=".5953" height=".0567"/>
    <rect x="86.179" y="109.88" width=".5953" height=".0567"/>
    <rect x="87.426" y="109.88" width=".5953" height=".0567"/>
    <rect x="88.447" y="109.88" width=".5953" height=".0567"/>
    <rect x="86.179" y="109.93" width=".5953" height=".0567"/>
    <rect x="87.426" y="109.93" width=".5953" height=".0567"/>
    <rect x="88.447" y="109.93" width=".5953" height=".0567"/>
    <rect x="86.179" y="110.02" width=".5953" height=".085"/>
    <rect x="87.369" y="110.02" width=".652" height=".085"/>
    <rect x="88.447" y="110.02" width=".5953" height=".085"/>
    <rect x="86.179" y="110.08" width=".5953" height=".0567"/>
    <rect x="87.313" y="110.08" width=".652" height=".0567"/>
    <rect x="88.447" y="110.08" width=".5953" height=".0567"/>
    <rect x="86.179" y="110.13" width=".5953" height=".0567"/>
    <rect x="87.2" y="110.13" width=".7654" height=".0567"/>
    <rect x="88.447" y="110.13" width=".5953" height=".0567"/>
    <rect x="86.179" y="110.19" width="1.7858" height=".0567"/>
    <rect x="88.447" y="110.19" width="1.5024" height=".0567"/>
    <rect x="86.179" y="110.25" width="1.7291" height=".0567"/>
    <rect x="88.447" y="110.25" width="1.5024" height=".0567"/>
    <rect x="86.179" y="110.3" width="1.6724" height=".0567"/>
    <rect x="88.447" y="110.3" width="1.5024" height=".0567"/>
    <rect x="86.179" y="110.36" width="1.6157" height=".0567"/>
    <rect x="88.447" y="110.36" width="1.5024" height=".0567"/>
    <rect x="86.179" y="110.42" width="1.5591" height=".0567"/>
    <rect x="88.447" y="110.42" width="1.5024" height=".0567"/>
    <rect x="86.179" y="110.47" width="1.5024" height=".0567"/>
    <rect x="88.447" y="110.47" width="1.5024" height=".0567"/>
    <rect x="86.179" y="110.56" width="1.3039" height=".085"/>
    <rect x="88.447" y="110.56" width="1.5024" height=".085"/>
    <rect x="86.179" y="110.62" width="1.0772" height=".0567"/>
    <rect x="88.447" y="110.62" width="1.5024" height=".0567"/>
   </g>
   <rect id="connector5pin" x="61.654" y="75.542" width="1.1339" height="5.6693" fill="#9a916c"/>
   <rect id="connector6pin" x="59.669" y="75.541" width="1.1339" height="5.6693" fill="#9a916c"/>
   <rect id="connector7pin" x="57.685" y="75.541" width="1.1339" height="5.6693" fill="#9a916c"/>
   <rect id="connector8pin" x="55.701" y="75.542" width="1.1339" height="5.6693" fill="#9a916c"/>
   <rect id="connector9pin" x="53.717" y="75.541" width="1.1339" height="5.6693" fill="#9a916c"/>
   <rect id="connector10pin" x="51.732" y="75.541" width="1.1339" height="5.6693" fill="#9a916c"/>
   <rect id="connector11pin" x="49.748" y="75.541" width="1.1339" height="5.6693" fill="#9a916c"/>
   <rect id="connector12pin" x="47.764" y="75.542" width="1.1339" height="5.6693" fill="#9a916c"/>
   <rect id="connector13pin" x="45.78" y="75.542" width="1.1339" height="5.6693" fill="#9a916c"/>
   <rect id="connector14pin" x="43.795" y="75.541" width="1.1339" height="5.6693" fill="#9a916c"/>
   <rect id="connector15pin" x="41.811" y="75.541" width="1.1339" height="5.6693" fill="#9a916c"/>
   <rect id="connector16pin" x="39.827" y="75.542" width="1.1339" height="5.6693" fill="#9a916c"/>
   <circle id="connector17pin" cx="15.307" cy="114.45" r="2.0767" fill="none" stroke="#9a916c" stroke-width="1.3187"/>
   <circle id="connector18pin" cx="22.507" cy="114.45" r="2.0767" fill="none" stroke="#9a916c" stroke-width="1.3187"/>
   <circle id="connector19pin" cx="29.707" cy="114.45" r="2.0767" fill="none" stroke="#9a916c" stroke-width="1.3187"/>
   <circle id="connector20pin" cx="36.907" cy="114.45" r="2.0767" fill="none" stroke="#9a916c" stroke-width="1.3187"/>
   <circle id="connector21pin" cx="44.107" cy="114.45" r="2.0767" fill="none" stroke="#9a916c" stroke-width="1.3187"/>
   <circle id="connector22pin" cx="51.307" cy="114.45" r="2.0767" fill="none" stroke="#9a916c" stroke-width="1.3187"/>
   <circle id="connector23pin" cx="58.507" cy="114.45" r="2.0767" fill="none" stroke="#9a916c" stroke-width="1.3187"/>
   <circle id="connector24pin" cx="65.707" cy="114.45" r="2.0767" fill="none" stroke="#9a916c" stroke-width="1.3187"/>
   <circle id="connector25pin" cx="72.908" cy="114.45" r="2.0767" fill="none" stroke="#9a916c" stroke-width="1.3187"/>
   <circle id="connector26pin" cx="80.108" cy="114.45" r="2.0767" fill="none" stroke="#9a916c" stroke-width="1.3187"/>
   <circle id="connector27pin" cx="87.308" cy="114.45" r="2.0767" fill="none" stroke="#9a916c" stroke-width="1.3187"/>
   <circle id="connector28pin" cx="18.907" cy="101.85" r="4.2633" fill="none" stroke="#9a916c" stroke-width="1.44"/>
   <circle id="connector29pin" cx="83.708" cy="101.85" r="4.2633" fill="none" stroke="#9a916c" stroke-width="1.44"/>
  </g>
 </g>
 <polygon points="73.994 96.882 28.64 96.882 34.309 109.64 68.325 109.64" fill="#161616"/>
 <rect x="34.664" y="107.15" width="33.307" height="2.1276" fill="#e6aa50"/>
 <rect x="33.298" y="97.037" width="36.037" height="10.56" rx="1.0284" ry="1.0284" fill="#212121"/>
 <circle cx="51.307" cy="51.527" r="51.201" fill="#161616"/>
 <circle cx="51.309" cy="51.527" r="49.727" fill="#2d2d2d"/>
 <g transform="translate(26.649 46.504)">
  <g fill="#fff" font-family="Noto Sans" font-size="12" isolation="isolate">
   <text>1.28" TFT</text>
   <text x="1.8398" y="14.3999">240x240</text>
  </g>
 </g>
 <metadata>
  <sfw>
   <slices/>
   <sliceSourceBounds x="-0.08" y="0" width="102.4" height="119.52" bottomLeftOrigin="true"/>
  </sfw>
 </metadata>
</svg>
