<?xml version="1.0" encoding="UTF-8"?>
<!-- Generator: Adobe Illustrator 26.2.1, SVG Export Plug-In . SVG Version: 6.00 Build 0)  -->
<svg width="1.0842in" height=".7in" enable-background="new 0 0 78.0628 50.4" version="1.1" viewBox="0 0 78.063 50.4" xml:space="preserve" xmlns="http://www.w3.org/2000/svg" xmlns:xml="http://www.w3.org/XML/1998/namespace">
    <desc>
        <referenceFile>MMC56x3 rev A_breadboard.svg</referenceFile>
    </desc>
    <desc>Fritzing breadboard generated by brd2svg</desc>
    <g id="breadboard">
        <g id="icon">
            <path d="m3.0101 7.2c0-3.9765 3.2235-7.2 7.2-7.2h57.6c3.9764 0 7.2 3.2236 7.2 7.2v36c0 3.9764-3.2235 7.2-7.2 7.2h-57.6c-3.9764 0-7.2-3.2235-7.2-7.2v-36m20.183 36c0 0.7828 0.6346 1.4173 1.4173 1.4173 0.7828 0 1.4173-0.6346 1.4173-1.4173s-0.6346-1.4173-1.4173-1.4173c-0.7828 0-1.4173 0.6345-1.4173 1.4173zm7.2 0c0 0.7828 0.6346 1.4173 1.4173 1.4173 0.7828 0 1.4173-0.6346 1.4173-1.4173s-0.6346-1.4173-1.4173-1.4173c-0.7828 0-1.4173 0.6345-1.4173 1.4173zm7.2 0c0 0.7828 0.6346 1.4173 1.4173 1.4173 0.7828 0 1.4173-0.6346 1.4173-1.4173s-0.6346-1.4173-1.4173-1.4173-1.4173 0.6345-1.4173 1.4173zm7.2 0c0 0.7828 0.6346 1.4173 1.4173 1.4173s1.4173-0.6346 1.4173-1.4173-0.6346-1.4173-1.4173-1.4173-1.4173 0.6345-1.4173 1.4173zm7.2 0c0 0.7828 0.6346 1.4173 1.4173 1.4173 0.7828 0 1.4173-0.6346 1.4173-1.4173s-0.6346-1.4173-1.4173-1.4173-1.4173 0.6345-1.4173 1.4173zm-45.326-36c-0.0033 1.9569 1.5804 3.546 3.5373 3.5493s3.546-1.5804 3.5493-3.5373v-0.012c0.0033-1.9569-1.5804-3.546-3.5374-3.5493-1.9569-0.0033-3.546 1.5804-3.5493 3.5374 1e-4 4e-3 1e-4 0.0079 1e-4 0.0119zm0 36c-0.0033 1.9569 1.5804 3.546 3.5373 3.5493s3.546-1.5804 3.5493-3.5373v-0.012c0.0033-1.9569-1.5804-3.546-3.5374-3.5493s-3.546 1.5804-3.5493 3.5374c1e-4 4e-3 1e-4 0.0079 1e-4 0.0119zm57.6 0c-0.0034 1.9569 1.5802 3.5461 3.5371 3.5495s3.5461-1.5802 3.5495-3.5371v-0.0125c0.0034-1.9569-1.5802-3.5461-3.5371-3.5495s-3.5461 1.5802-3.5495 3.5371v0.0125zm0-36c-0.0034 1.9569 1.5802 3.5461 3.5371 3.5495s3.5461-1.5802 3.5495-3.5371v-0.0124c0.0034-1.9569-1.5802-3.5461-3.5371-3.5495s-3.5461 1.5802-3.5495 3.5371v0.0124z"/>
            
                <path d="m47.653 32.389c0-1.7894-1.4506-3.24-3.24-3.24" fill="none" stroke="#fff" stroke-width=".72"/>
                <path d="m44.413 35.629c1.7894 0 3.24-1.4506 3.24-3.24" fill="none" stroke="#fff" stroke-width=".72"/>
                <path d="m41.173 32.389c0 1.7894 1.4506 3.24 3.24 3.24" fill="none" stroke="#fff" stroke-width=".72"/>
                <path d="m44.413 29.149c-1.7587-0.0307-3.2093 1.3701-3.24 3.1288-6e-4 0.0371-6e-4 0.0741 0 0.1112" fill="none" stroke="#fff" stroke-width=".72"/>
                
                    <path d="m44.773 28.789h-0.72v-1.8h-0.72l1.08-1.44 1.08 1.44h-0.72v1.8" fill="none" stroke="#fff" stroke-linecap="round" stroke-width=".72"/>
                
                
                    <path d="m40.807 32.051v0.72h-1.8v0.72l-1.44-1.08 1.44-1.08v0.72h1.8" fill="none" stroke="#fff" stroke-linecap="round" stroke-width=".72"/>
                
                
                    <g transform="translate(21.387 49.55)">
                        <text fill="#FFFFFF" font-family="'OCRA'" font-size="2.6726">VIN</text>
                    </g>
                
                
                    <g transform="translate(35.787 49.55)">
                        <text fill="#FFFFFF" font-family="'OCRA'" font-size="2.6726">GND</text>
                    </g>
                
                
                    <g transform="translate(42.627 40.19)">
                        <text fill="#FFFFFF" font-family="'OCRA'" font-size="2.6726">SCL</text>
                    </g>
                
                
                    <g transform="translate(50.187 49.55)">
                        <text fill="#FFFFFF" font-family="'OCRA'" font-size="2.6726">SDA</text>
                    </g>
                
                
                    <g transform="translate(27.198 10.67)">
                        <text fill="#FFFFFF" font-family="'OCRA'" font-size="2.6726">Magnetometer</text>
                    </g>
                
                
                    <g transform="translate(4.4501 15.12)">
                        <text fill="#FFFFFF" font-family="'OCRA'" font-size="2.6726">on</text>
                    </g>
                
                
                    <g transform="translate(29.106 6.6586)">
                        <text fill="#FFFFFF" font-family="'OCRA'" font-size="3.7417">MMC56x3</text>
                    </g>
                
                
                    <g transform="translate(35.579 31.677)">
                        <text fill="#FFFFFF" font-family="'OCRA'" font-size="3.3408">Y</text>
                    </g>
                
                
                    <g transform="translate(43.416 25.059)">
                        <text fill="#FFFFFF" font-family="'OCRA'" font-size="3.3408">X</text>
                    </g>
                
                
                    <g transform="translate(42.959 34.017)">
                        <text fill="#FFFFFF" font-family="'OCRA'" font-size="3.3408">Z</text>
                    </g>
                
                
                    <g transform="translate(28.587 39.83)">
                        <text fill="#FFFFFF" font-family="'OCRA'" font-size="2.6726">3vo</text>
                    </g>
                
                
                    
                        <line x1="34.024" x2="31.756" y1="28.44" y2="28.44" fill="none" stroke="#fff" stroke-linecap="round" stroke-width=".864"/>
                    
                
                
                    
                        <line x1="25.834" x2="25.834" y1="32.832" y2="35.712" fill="none" stroke="#fff" stroke-linecap="round" stroke-width=".864"/>
                    
                
                
                    
                        <line x1="25.69" x2="25.69" y1="14.4" y2="17.28" fill="none" stroke="#fff" stroke-linecap="round" stroke-width=".864"/>
                    
                
                
                    
                        <line x1="31.936" x2="34.204" y1="18.72" y2="18.72" fill="none" stroke="#fff" stroke-linecap="round" stroke-width=".864"/>
                    
                
                
                    <g fill="none" stroke="#fff" stroke-linecap="round" stroke-width=".432">
                        <line x1="68.904" x2="61.534" y1="33.704" y2="33.704"/>
                        <line x1="61.534" x2="61.534" y1="33.704" y2="30.586"/>
                        <line x1="61.534" x2="61.534" y1="19.814" y2="16.413"/>
                        <line x1="61.534" x2="68.904" y1="16.413" y2="16.413"/>
                        <line x1="73.723" x2="73.723" y1="31.153" y2="19.247"/>
                    </g>
                
                
                    <g fill="none" stroke="#fff" stroke-linecap="round" stroke-width=".432">
                        <line x1="9.1159" x2="16.486" y1="16.696" y2="16.696"/>
                        <line x1="16.486" x2="16.486" y1="16.696" y2="19.814"/>
                        <line x1="16.486" x2="16.486" y1="30.586" y2="33.987"/>
                        <line x1="16.486" x2="9.1159" y1="33.987" y2="33.987"/>
                        <line x1="4.297" x2="4.297" y1="19.247" y2="31.153"/>
                    </g>
                
                
                    
                        
                            <path d="m12.694 14.76 0.9-0.72v1.44l-0.9-0.72" fill="none" stroke="#fff" stroke-linecap="round" stroke-width=".432"/>
                        
                        <g transform="matrix(0 -1 1 0 9.504 14.76)">
                            
                                <g transform="matrix(-2.5352e-6 -1 1 -2.5352e-6 -3.0101 3.0101)">
                                    <rect x="-.18" y="1.9301" width=".36" height="2.16" fill="#fff"/>
                                </g>
                            
                        </g>
                    
                
                
                    <g fill="none" stroke="#fff" stroke-width=".576">
                        <line x1="51.27" x2="53.822" y1="32.134" y2="32.134" stroke-linecap="round"/>
                        <line x1="51.27" x2="53.822" y1="25.898" y2="25.898" stroke-linecap="round"/>
                        <circle cx="53.538" cy="33.268" r=".2835"/>
                    </g>
                
                
                    
                        <line x1="19.984" x2="17.716" y1="15.12" y2="15.12" fill="none" stroke="#fff" stroke-linecap="round" stroke-width=".864"/>
                    
                
                
                    <g fill="none" stroke="#fff" stroke-linecap="round" stroke-width=".576">
                        <line x1="47.304" x2="47.304" y1="22.328" y2="14.392"/>
                        <line x1="58.076" x2="58.076" y1="14.392" y2="22.328"/>
                    </g>
                
                
                    
                        <circle cx="10.21" cy="7.2" r="5.6693" fill="none" stroke="#fff" stroke-width=".576"/>
                    
                
                
                    
                        <circle cx="10.21" cy="43.2" r="5.6693" fill="none" stroke="#fff" stroke-width=".576"/>
                    
                
                
                    
                        <circle cx="67.81" cy="43.2" r="5.6693" fill="none" stroke="#fff" stroke-width=".576"/>
                    
                
                
                    
                        <circle cx="67.81" cy="7.2" r="5.6693" fill="none" stroke="#fff" stroke-width=".576"/>
                    
                
                
                    <g fill="none" stroke="#fff" stroke-linecap="round" stroke-width=".576">
                        <line x1="21.157" x2="21.157" y1="23.292" y2="27.828"/>
                        <line x1="30.511" x2="30.511" y1="23.292" y2="27.828"/>
                        <line x1="24.7" x2="26.968" y1="22.584" y2="22.584"/>
                    </g>
                
                
                    <g fill="none" stroke="#fff" stroke-width=".432">
                        <line x1="37.82" x2="40.201" y1="24.01" y2="24.01" stroke-linecap="round"/>
                        <line x1="40.201" x2="40.201" y1="24.01" y2="26.39" stroke-linecap="round"/>
                        <line x1="40.201" x2="37.82" y1="26.39" y2="26.39" stroke-linecap="round"/>
                        <line x1="37.82" x2="37.82" y1="26.39" y2="24.01" stroke-linecap="round"/>
                        <circle cx="37.734" cy="23.924" r=".3169"/>
                    </g>
                
            
            <g transform="matrix(0 1 -1 0 55.91 -3.8494)">
                
                    <g transform="matrix(2.5352e-6 1 -1 2.5352e-6 52.9 -6.8596)">
                        <rect id="connector5pin" x="28.463" y="21.497" width="2.8347" height="3.0472" fill="#9A916C"/>
                    </g>
                
            </g>
            <g transform="matrix(0 1 -1 0 60.73 .96945)">
                
                    <g transform="matrix(2.5352e-6 1 -1 2.5352e-6 57.719 -2.0407)">
                        <rect id="connector6pin" x="28.463" y="26.316" width="2.8347" height="3.0472" fill="#9A916C"/>
                    </g>
                
            </g>
            <rect id="connector7pin" x="21.384" y="32.146" width="3.515" height="4.252" fill="#9A916C"/>
            <rect id="connector8pin" x="26.77" y="32.146" width="3.515" height="4.252" fill="#9A916C"/>
            <rect id="connector9pin" x="21.24" y="13.714" width="3.515" height="4.252" fill="#9A916C"/>
            <rect id="connector10pin" x="26.626" y="13.714" width="3.515" height="4.252" fill="#9A916C"/>
            <g transform="matrix(0 -1 1 0 8.9305 51.19)">
                
                    <g transform="matrix(-2.5352e-6 -1 1 -2.5352e-6 5.9205 54.2)">
                        <rect id="connector11pin" x="28.643" y="22.616" width="2.8347" height="3.0472" fill="#9A916C"/>
                    </g>
                
            </g>
            <g transform="matrix(0 -1 1 0 13.75 46.37)">
                
                    <g transform="matrix(-2.5352e-6 -1 1 -2.5352e-6 10.74 49.381)">
                        <rect id="connector12pin" x="28.643" y="17.797" width="2.8347" height="3.0472" fill="#9A916C"/>
                    </g>
                
            </g>
            <g transform="matrix(-1 0 0 -1 115.35 58.904)">
                
                    <rect x="52.467" y="28.602" width="4.3937" height="1.7008" fill="#9A916C"/>
                
            </g>
            <g transform="matrix(-1 0 0 -1 115.35 53.235)">
                
                    <rect x="52.467" y="25.767" width="4.3937" height="1.7008" fill="#9A916C"/>
                
            </g>
            <g transform="matrix(-1 0 0 -1 115.35 47.565)">
                
                    <rect x="52.467" y="22.932" width="4.3937" height="1.7008" fill="#9A916C"/>
                
            </g>
            <g transform="matrix(-1 0 0 -1 115.35 41.896)">
                
                    <rect x="52.467" y="20.098" width="4.3937" height="1.7008" fill="#9A916C"/>
                
            </g>
            <g transform="matrix(-1 0 0 -1 137.46 66.274)">
                
                    <rect id="connector17pin" x="63.168" y="31.436" width="5.1024" height="3.4016" fill="#9A916C"/>
                
            </g>
            <g transform="matrix(-1 0 0 -1 137.46 34.526)">
                
                    <rect id="connector18pin" x="63.168" y="15.562" width="5.1024" height="3.4016" fill="#9A916C"/>
                
            </g>
            <rect x="15.14" y="20.098" width="4.3937" height="1.7008" fill="#9A916C"/>
            <rect x="15.14" y="22.932" width="4.3937" height="1.7008" fill="#9A916C"/>
            <rect x="15.14" y="25.767" width="4.3937" height="1.7008" fill="#9A916C"/>
            <rect x="15.14" y="28.602" width="4.3937" height="1.7008" fill="#9A916C"/>
            <rect id="connector23pin" x="3.7301" y="15.562" width="5.1024" height="3.4016" fill="#9A916C"/>
            <rect id="connector24pin" x="3.7301" y="31.436" width="5.1024" height="3.4016" fill="#9A916C"/>
            <g transform="matrix(0 -1 1 0 -2.554 26.966)">
                
                    <g transform="matrix(-2.5352e-6 -1 1 -2.5352e-6 -5.564 29.976)">
                        <rect id="connector25pin" x="11.072" y="16.636" width="2.2677" height="2.2677" fill="#9A916C"/>
                    </g>
                
            </g>
            <g transform="matrix(0 -1 1 0 -6.806 22.714)">
                
                    <g transform="matrix(-2.5352e-6 -1 1 -2.5352e-6 -9.816 25.724)">
                        <rect id="connector26pin" x="6.8202" y="16.636" width="2.2677" height="2.2677" fill="#9A916C"/>
                    </g>
                
            </g>
            <path id="connector27pin" d="m18.49 34.223c0.7828 0 1.4173 0.6346 1.4173 1.4173 0 0.7828-0.6346 1.4173-1.4173 1.4173-0.7828 0-1.4173-0.6346-1.4173-1.4173s0.6345-1.4173 1.4173-1.4173z" fill="#9A916C"/>
            <path id="connector28pin" d="m60.97 11.795c0.7828 0 1.4173 0.6346 1.4173 1.4173 0 0.7828-0.6346 1.4173-1.4173 1.4173-0.7828 0-1.4173-0.6346-1.4173-1.4173s0.6345-1.4173 1.4173-1.4173z" fill="#9A916C"/>
            <circle id="connector29pin" cx="24.61" cy="43.2" r="1.9687" fill="none" stroke="#9A916C" stroke-width="1.1027"/>
            <circle id="connector30pin" cx="31.81" cy="43.2" r="1.9687" fill="none" stroke="#9A916C" stroke-width="1.1027"/>
            <circle id="connector31pin" cx="39.01" cy="43.2" r="1.9687" fill="none" stroke="#9A916C" stroke-width="1.1027"/>
            <circle id="connector32pin" cx="46.21" cy="43.2" r="1.9687" fill="none" stroke="#9A916C" stroke-width="1.1027"/>
            <circle id="connector33pin" cx="53.41" cy="43.2" r="1.9687" fill="none" stroke="#9A916C" stroke-width="1.1027"/>
            <g transform="matrix(0 -1 1 0 20.945 83.229)">
                
                    <g transform="matrix(-2.5352e-6 -1 1 -2.5352e-6 17.935 86.239)">
                        <rect id="connector34pin" x="51.379" y="33.443" width="1.4173" height="1.4173" fill="#9A916C"/>
                    </g>
                
            </g>
            <g transform="matrix(0 -1 1 0 23.071 81.103)">
                
                    <g transform="matrix(-2.5352e-6 -1 1 -2.5352e-6 20.061 84.113)">
                        <rect id="connector35pin" x="51.378" y="31.459" width="1.4173" height="1.1339" fill="#9A916C"/>
                    </g>
                
            </g>
            <g transform="matrix(0 -1 1 0 25.197 78.978)">
                
                    <g transform="matrix(-2.5352e-6 -1 1 -2.5352e-6 22.187 81.988)">
                        <rect id="connector36pin" x="51.379" y="29.192" width="1.4173" height="1.4173" fill="#9A916C"/>
                    </g>
                
            </g>
            <g transform="matrix(0 -1 1 0 20.095 73.875)">
                
                    <g transform="matrix(-2.5352e-6 -1 1 -2.5352e-6 17.085 76.885)">
                        <rect id="connector37pin" x="46.276" y="29.192" width="1.4173" height="1.4173" fill="#9A916C"/>
                    </g>
                
            </g>
            <g transform="matrix(0 -1 1 0 17.969 76.001)">
                
                    <g transform="matrix(-2.5352e-6 -1 1 -2.5352e-6 14.959 79.011)">
                        <rect id="connector38pin" x="46.276" y="31.459" width="1.4173" height="1.1339" fill="#9A916C"/>
                    </g>
                
            </g>
            <g transform="matrix(0 -1 1 0 15.843 78.126)">
                
                    <g transform="matrix(-2.5352e-6 -1 1 -2.5352e-6 12.833 81.137)">
                        <rect id="connector39pin" x="46.276" y="33.443" width="1.4173" height="1.4173" fill="#9A916C"/>
                    </g>
                
            </g>
            <g transform="matrix(0 1 -1 0 28.55 -3.1294)">
                
                    <g transform="matrix(2.5352e-6 1 -1 2.5352e-6 25.54 -6.1396)">
                        <rect id="connector40pin" x="14.423" y="8.1768" width="2.8347" height="3.0472" fill="#9A916C"/>
                    </g>
                
            </g>
            <g transform="matrix(0 1 -1 0 33.37 1.6894)">
                
                    <g transform="matrix(2.5352e-6 1 -1 2.5352e-6 30.359 -1.3206)">
                        <rect id="connector41pin" x="14.423" y="12.996" width="2.8347" height="3.0472" fill="#9A916C"/>
                    </g>
                
            </g>
            <g transform="matrix(-1 0 0 -1 106.73 31.901)">
                
                    <rect id="connector42pin" x="49.717" y="14.675" width="1.2756" height="2.5512" fill="#9A916C"/>
                
            </g>
            <g transform="matrix(-1 0 0 -1 101.63 31.901)">
                
                    <rect id="connector43pin" x="47.166" y="14.675" width="1.2756" height="2.5512" fill="#9A916C"/>
                
            </g>
            <g transform="matrix(-1 0 0 -1 97.092 31.901)">
                
                    <rect id="connector44pin" x="44.898" y="14.675" width="1.2756" height="2.5512" fill="#9A916C"/>
                
            </g>
            <g transform="matrix(-1 0 0 -1 91.99 31.901)">
                
                    <rect id="connector45pin" x="42.347" y="14.675" width="1.2756" height="2.5512" fill="#9A916C"/>
                
            </g>
            <g transform="matrix(-1 0 0 -1 91.99 41.539)">
                
                    <rect id="connector46pin" x="42.347" y="19.494" width="1.2756" height="2.5512" fill="#9A916C"/>
                
            </g>
            <g transform="matrix(-1 0 0 -1 97.092 41.539)">
                
                    <rect id="connector47pin" x="44.898" y="19.494" width="1.2756" height="2.5512" fill="#9A916C"/>
                
            </g>
            <g transform="matrix(-1 0 0 -1 101.63 41.539)">
                
                    <rect id="connector48pin" x="47.166" y="19.494" width="1.2756" height="2.5512" fill="#9A916C"/>
                
            </g>
            <g transform="matrix(-1 0 0 -1 106.73 41.539)">
                
                    <rect id="connector49pin" x="49.717" y="19.494" width="1.2756" height="2.5512" fill="#9A916C"/>
                
            </g>
            <circle id="connector50pin" cx="10.21" cy="7.2" r="4.0748" fill="none" stroke="#9A916C" stroke-width="1.063"/>
            <circle id="connector51pin" cx="10.21" cy="43.2" r="4.0748" fill="none" stroke="#9A916C" stroke-width="1.063"/>
            <circle id="connector52pin" cx="67.81" cy="43.2" r="4.0748" fill="none" stroke="#9A916C" stroke-width="1.063"/>
            <circle id="connector53pin" cx="67.81" cy="7.2" r="4.0748" fill="none" stroke="#9A916C" stroke-width="1.063"/>
            <rect id="connector54pin" x="22.362" y="27.544" width="1.559" height="3.4016" fill="#9A916C"/>
            <rect id="connector55pin" x="25.055" y="27.544" width="1.559" height="3.4016" fill="#9A916C"/>
            <rect id="connector56pin" x="27.748" y="27.544" width="1.559" height="3.4016" fill="#9A916C"/>
            <rect id="connector57pin" x="27.748" y="20.174" width="1.559" height="3.4016" fill="#9A916C"/>
            <rect id="connector58pin" x="22.362" y="20.174" width="1.559" height="3.4016" fill="#9A916C"/>
            <path id="connector59pin" d="m38.443 24.307c0.18 0 0.326 0.1459 0.326 0.326 0 0.18-0.146 0.326-0.326 0.326s-0.326-0.1459-0.326-0.326 0.1459-0.326 0.326-0.326z" fill="#9A916C"/>
            <path id="connector60pin" d="m38.443 25.441c0.18 0 0.326 0.1459 0.326 0.326 0 0.18-0.146 0.326-0.326 0.326s-0.326-0.1459-0.326-0.326 0.1459-0.326 0.326-0.326z" fill="#9A916C"/>
            <path id="connector61pin" d="m39.577 24.307c0.18 0 0.326 0.1459 0.326 0.326 0 0.18-0.146 0.326-0.326 0.326s-0.326-0.1459-0.326-0.326 0.1459-0.326 0.326-0.326z" fill="#9A916C"/>
            <path id="connector62pin" d="m39.577 25.441c0.18 0 0.326 0.1459 0.326 0.326 0 0.18-0.146 0.326-0.326 0.326s-0.326-0.1459-0.326-0.326 0.1459-0.326 0.326-0.326z" fill="#9A916C"/>
        </g>
        <g transform="translate(27.612 27.306)">
            
                <g transform="matrix(0 1 -1 0 3.4015 -1.1335)">
                    
                        <path d="m4.245-0.7421h-3.955c-0.16 0-0.29-0.13-0.29-0.291v-1.687c0-0.16 0.13-0.29 0.29-0.29h3.955c0.16 0 0.29 0.13 0.29 0.29v1.687c0 0.161-0.13 0.291-0.29 0.291z" fill="#DCDCDC"/>
                        <g transform="matrix(2.5352e-6 1 -1 2.5352e-6 .3919 -4.1441)">
                            <rect x="1.134" y="-3.0101" width="2.268" height="2.268" fill="#6E554B"/>
                        </g>
                    
                </g>
            
        </g>
        <g transform="translate(19.99 32.5)">
            
                <path d="m8.3961 3.543h-5.103c-0.156 0-0.283-0.127-0.283-0.283v-2.977c0-0.156 0.127-0.283 0.283-0.283h5.102c0.157 0 0.283 0.127 0.283 0.283v2.977c1e-3 0.156-0.126 0.283-0.282 0.283z" fill="#DCDCDC"/>
                <rect x="4.0731" width="3.543" height="3.543" fill="#6E554B"/>
            
        </g>
        <g transform="translate(19.846 14.068)">
            
                <path d="m8.3961 3.543h-5.103c-0.156 0-0.283-0.127-0.283-0.283v-2.977c0-0.156 0.127-0.283 0.283-0.283h5.102c0.157 0 0.283 0.127 0.283 0.283v2.977c1e-3 0.156-0.126 0.283-0.282 0.283z" fill="#DCDCDC"/>
                <rect x="4.0731" width="3.543" height="3.543" fill="#6E554B"/>
            
        </g>
        <g transform="translate(27.792 17.586)">
            
                <g transform="matrix(0 -1 1 0 1.1335 3.4015)">
                    
                        <path d="m4.245 5.2781h-3.955c-0.16 0-0.29-0.13-0.29-0.291v-1.687c0-0.16 0.13-0.29 0.29-0.29h3.955c0.16 0 0.29 0.13 0.29 0.29v1.687c0 0.161-0.13 0.291-0.29 0.291z" fill="#DCDCDC"/>
                        <g transform="matrix(-2.5352e-6 -1 1 -2.5352e-6 -1.8761 6.4121)">
                            <rect x="1.134" y="3.0101" width="2.268" height="2.268" fill="#6E554B"/>
                        </g>
                    
                </g>
            
        </g>
        <g transform="translate(54.778 18.3)">
            
                <g transform="matrix(0 -1 1 0 1.7 15.5)">
                    
                        <path d="m1.6 5.4101h14.2v1.4h1.4v10h-17v-10h1.4v-1.4z" fill="#666" connector-curvature="0"/>
                        <g transform="matrix(-.0068 -1 1 -.0068 4.0873 24.681)">
                            <rect x="12.1" y="9.6106" width="4.4001" height="1.4"/>
                        </g>
                        <g transform="matrix(-.0068 -1 1 -.0068 -7.3892 13.481)">
                            <rect x=".8002" y="9.7102" width="4.4001" height="1.4"/>
                        </g>
                        <g transform="matrix(-.0068 -1 1 -.0068 7.0373 21.71)">
                            <rect x="13.55" y="6.6604" width="1.5" height="1.4" fill="#333"/>
                        </g>
                        <g transform="matrix(-.0068 -1 1 -.0068 -4.4393 10.511)">
                            <rect x="2.2501" y="6.76" width="1.5" height="1.4" fill="#333"/>
                        </g>
                        <g transform="matrix(-.0068 -1 1 -.0068 8.1779 17.743)">
                            <rect x="11.1" y="4.31" width="3.6001" height="1" fill="#DCDCDC"/>
                        </g>
                        <g transform="matrix(-.0068 -1 1 -.0068 5.3589 14.942)" fill="#DCDCDC">
                            <rect x="8.2999" y="4.3098" width="3.6001" height="1"/>
                        
                        
                            <rect x="8.2999" y="4.3098" width="3.6001" height="1"/>
                        </g>
                        <g transform="matrix(-.0068 -1 1 -.0068 2.4386 12.042)">
                            <rect x="5.3997" y="4.3102" width="3.6001" height="1" fill="#DCDCDC"/>
                        </g>
                        <g transform="matrix(-.0068 -1 1 -.0068 -.4797 9.3434)">
                            <rect x="2.6002" y="4.4099" width="3.6001" height="1" fill="#DCDCDC"/>
                        </g>
                        <path d="m0.2 11.91v-5-0.1h1.4v-0.7-0.7h2.2v0.3 0.7 0.3h0.2 0.5 0.3v-1.3h1.8v0.2 0.7 0.4h1v-0.7-0.6h1.8v0.1 0.1s0 0.3 0 0.5v0.5h1v-1.4h0.9 0.9s0 0.3 0 0.6v0.6h0.3 0.5 0.2v-1.2h2.4v1.4h1.4v1.7 5 3.4h-3.3-8.5-5.3l0.3-4.8zm3.5 0.4v-4.9-0.6l-0.7-0.1h-0.7s0 4.3 0 5.1v0.7h0.7 0.7v-0.2zm11.4 0.2v-5.7-0.1h-0.7-0.7s0 1.9 0 4.6v1.2h0.7 0.7z" connector-curvature="0"/>
                        <path d="m2.3 8.1101v-0.7-0.6h0.1 1 0.4v0.5 0.7 0.2h-0.8l-0.7-0.1z" connector-curvature="0"/>
                        <path d="m13.6 7.9101v-0.7-0.6h0.1 0.7 0.6v0.1 0.7 0.6h-1.4v-0.1z" connector-curvature="0"/>
                        <g transform="matrix(-2.5352e-6 -1 1 -2.5352e-6 -17.21 21.21)">
                            <ellipse id="connector13pin" cx="2" cy="19.21" rx="2" ry="2"/>
                        </g>
                        <g transform="matrix(-2.5352e-6 -1 1 -2.5352e-6 -12.71 25.71)">
                            <ellipse id="connector14pin" cx="6.5" cy="19.21" rx="2" ry="2" fill="#f00"/>
                        </g>
                        <g transform="matrix(-2.5352e-6 -1 1 -2.5352e-6 -8.1101 30.31)">
                            <ellipse id="connector15pin" cx="11.1" cy="19.21" rx="2" ry="2" fill="#00f"/>
                        </g>
                        <g transform="matrix(-2.5352e-6 -1 1 -2.5352e-6 -3.6101 34.81)">
                            <ellipse id="connector16pin" cx="15.6" cy="19.21" rx="2" ry="2" fill="#ff0"/>
                        </g>
                    
                </g>
            
        </g>
        <g transform="translate(.021571 18.3)">
            
                <g transform="matrix(0 1 -1 0 15.5 -1.7)">
                    
                        <path d="m1.6-0.6101h14.2v1.4h1.4v10h-17v-10h1.4v-1.4z" fill="#666" connector-curvature="0"/>
                        <g transform="matrix(.0068 1 -1 .0068 18.493 -10.039)">
                            <rect x="12.1" y="3.5904" width="4.4001" height="1.4"/>
                        </g>
                        <g transform="matrix(.0068 1 -1 .0068 7.3698 1.3599)">
                            <rect x=".8002" y="3.69" width="4.4001" height="1.4"/>
                        </g>
                        <g transform="matrix(.0068 1 -1 .0068 15.543 -12.969)">
                            <rect x="13.55" y=".6402" width="1.5" height="1.4" fill="#333"/>
                        </g>
                        <g transform="matrix(.0068 1 -1 .0068 4.4194 -1.57)">
                            <rect x="2.2501" y=".7398" width="1.5" height="1.4" fill="#333"/>
                        </g>
                        <g transform="matrix(.0068 1 -1 .0068 11.602 -14.102)">
                            <rect x="11.1" y="-1.7101" width="3.6001" height="1" fill="#DCDCDC"/>
                        </g>
                        <g transform="matrix(.0068 1 -1 .0068 8.8208 -11.302)" fill="#DCDCDC">
                            <rect x="8.2999" y="-1.7104" width="3.6001" height="1"/>
                        
                        
                            <rect x="8.2999" y="-1.7104" width="3.6001" height="1"/>
                        </g>
                        <g transform="matrix(.0068 1 -1 .0068 5.9408 -8.4013)">
                            <rect x="5.3997" y="-1.71" width="3.6001" height="1" fill="#DCDCDC"/>
                        </g>
                        <g transform="matrix(.0068 1 -1 .0068 3.26 -5.5028)">
                            <rect x="2.6002" y="-1.6103" width="3.6001" height="1" fill="#DCDCDC"/>
                        </g>
                        <path d="m0.2 5.8899v-5-0.1h1.4v-0.7-0.7h2.2v0.3 0.7 0.3h0.2 0.5 0.3v-1.3h1.8v0.2 0.7 0.4h1v-0.7-0.6h1.8v0.1 0.1s0 0.3 0 0.5v0.5h1v-1.4h0.9 0.9s0 0.3 0 0.6v0.6h0.3 0.5 0.2v-1.2h2.4v1.4h1.4v1.7 5 3.4h-3.3-8.5-5.3l0.3-4.8zm3.5 0.4v-4.9-0.6l-0.7-0.1h-0.7s0 4.3 0 5.1v0.7h0.7 0.7v-0.2zm11.4 0.2v-5.7-0.1h-0.7-0.7s0 1.9 0 4.6v1.2h0.7 0.7z" connector-curvature="0"/>
                        <path d="m2.3 2.0899v-0.7-0.6h0.1 1 0.4v0.5 0.7 0.2h-0.8l-0.7-0.1z" connector-curvature="0"/>
                        <path d="m13.6 1.8899v-0.7-0.6h0.1 0.7 0.6v0.1 0.7 0.6h-1.4v-0.1z" connector-curvature="0"/>
                        <g transform="matrix(2.5352e-6 1 -1 2.5352e-6 15.19 11.19)">
                            <ellipse id="connector19pin" cx="2" cy="13.19" rx="2" ry="2"/>
                        </g>
                        <g transform="matrix(2.5352e-6 1 -1 2.5352e-6 19.69 6.6899)">
                            <ellipse id="connector20pin" cx="6.5" cy="13.19" rx="2" ry="2" fill="#f00"/>
                        </g>
                        <g transform="matrix(2.5352e-6 1 -1 2.5352e-6 24.29 2.0899)">
                            <ellipse id="connector21pin" cx="11.1" cy="13.19" rx="2" ry="2" fill="#00f"/>
                        </g>
                        <g transform="matrix(2.5352e-6 1 -1 2.5352e-6 28.79 -2.4101)">
                            <ellipse id="connector22pin" cx="15.6" cy="13.19" rx="2" ry="2" fill="#ff0"/>
                        </g>
                    
                </g>
            
        </g>
        <g transform="translate(8.946 12.492)">
            
                <g transform="matrix(0 -1 1 0 -1.1335 3.4015)">
                    
                        <path d="m2.268 3.3001v3.955c0 0.16-0.13 0.29-0.29 0.29h-1.688c-0.16 0-0.29-0.13-0.29-0.29v-3.955c0-0.16 0.13-0.29 0.29-0.29h1.687c0.161 0 0.291 0.13 0.291 0.29z" fill="#DCDCDC"/>
                        <g transform="matrix(-2.5352e-6 -1 1 -2.5352e-6 -4.1436 6.4118)">
                            <rect x="1e-4" y="4.1437" width="2.268" height="2.268" fill="#0f0"/>
                        </g>
                        <circle cx="1.134" cy="5.2781" r=".354" fill="#00B400"/>
                    
                </g>
            
        </g>
        <g transform="translate(45.992 26.748)">
            
                <g transform="matrix(0 -1 1 0 .567 6.52)">
                    
                        
                            <g transform="matrix(-2.5352e-6 -1 1 -2.5352e-6 -1.7341 10.239)">
                                <rect x="1.276" y="5.6321" width="5.953" height=".709" fill="#DCDCDC"/>
                            </g>
                            <g transform="matrix(-2.5352e-6 -1 1 -2.5352e-6 .1089 12.082)">
                                <rect x="3.119" y="5.6321" width="5.953" height=".709" fill="#DCDCDC"/>
                            </g>
                            <g transform="matrix(-2.5352e-6 -1 1 -2.5352e-6 -3.5761 8.3971)">
                                <rect x="-.566" y="5.6321" width="5.953" height=".709" fill="#DCDCDC"/>
                            </g>
                            <g transform="matrix(-2.5352e-6 -1 1 -2.5352e-6 -1.7341 10.239)">
                                <rect x="2.481" y="3.1521" width="3.543" height="5.669" fill="#303030"/>
                            </g>
                        
                    
                </g>
            
        </g>
        <g transform="translate(13.572 13.986)">
            
                <g transform="matrix(0 1 -1 0 3.4015 -1.1335)">
                    
                        <path d="m4.245-0.7421h-3.955c-0.16 0-0.29-0.13-0.29-0.291v-1.687c0-0.16 0.13-0.29 0.29-0.29h3.955c0.16 0 0.29 0.13 0.29 0.29v1.687c0 0.161-0.13 0.291-0.29 0.291z" fill="#DCDCDC"/>
                        <g transform="matrix(2.5352e-6 1 -1 2.5352e-6 .3919 -4.1441)">
                            <rect x="1.134" y="-3.0101" width="2.268" height="2.268" fill="#333"/>
                        </g>
                    
                </g>
            
        </g>
        <g transform="translate(45.144 16.092)">
            
                <g transform="matrix(-1 0 0 -1 9.071 4.535)">
                    
                        
                            <rect x="-3.0101" width="1.843" height="4.535" fill="#DCDCDC"/>
                            <rect x="-.3171" width="1.417" height="4.535" fill="#DCDCDC"/>
                            <rect x="1.9509" width="1.417" height="4.535" fill="#DCDCDC"/>
                            <rect x="4.2179" width="1.843" height="4.535" fill="#DCDCDC"/>
                            <rect x="-3.0101" y=".85" width="9.071" height="2.835" fill="#303030"/>
                        
                    
                </g>
            
        </g>
        <g transform="translate(11.648 2.694)">
            
                <path d="m14.96 2.5057c-0.032-0.2-0.141-0.257-0.403-0.341-0.199-0.064-1.533-0.489-1.533-0.489s-0.93-0.351-1.619 0.146c-0.093 0.066-0.189 0.143-0.286 0.224 0.082-0.097 0.158-0.193 0.224-0.286 0.495-0.69 0.143-1.619 0.143-1.619s-0.427-1.334-0.492-1.533c-0.085-0.262-0.142-0.37-0.342-0.402s-0.288 0.054-0.449 0.277c-0.122 0.17-0.939 1.307-0.939 1.307s-0.621 0.777-0.361 1.586c0.034 0.109 0.077 0.224 0.125 0.341-0.067-0.108-0.135-0.209-0.203-0.302-0.503-0.684-1.496-0.636-1.496-0.636s-1.4-6e-3 -1.61-6e-3c-0.275-1e-3 -0.396 0.02-0.488 0.201-0.091 0.181-0.037 0.291 0.126 0.513 0.124 0.169 0.953 1.297 0.953 1.297s0.546 0.83 1.395 0.834c0.114 0 0.236-5e-3 0.362-0.014-0.122 0.03-0.24 0.064-0.348 0.1-0.806 0.267-1.067 1.226-1.067 1.226s-0.438 1.33-0.503 1.529c-0.086 0.261-0.103 0.383 0.04 0.526 0.144 0.143 0.265 0.126 0.526 0.04 0.199-0.065 1.528-0.506 1.528-0.506s0.958-0.263 1.224-1.07c0.036-0.108 0.069-0.225 0.1-0.348-9e-3 0.126-0.014 0.248-0.013 0.362 5e-3 0.849 0.836 1.394 0.836 1.394s1.13 0.827 1.298 0.951c0.223 0.162 0.333 0.216 0.514 0.124s0.201-0.213 0.2-0.488c-1e-3 -0.21-9e-3 -1.61-9e-3 -1.61s0.047-0.993-0.639-1.495c-0.092-0.067-0.194-0.135-0.301-0.202 0.117 0.047 0.232 0.09 0.34 0.124 0.81 0.258 1.584-0.364 1.584-0.364s1.136-0.819 1.306-0.941c0.223-0.161 0.309-0.249 0.277-0.45zm-4.822-1.031c0.152 0.024 0.228 0.349 0.169 0.726s-0.231 0.662-0.384 0.638-0.229-0.349-0.169-0.725c0.059-0.377 0.231-0.663 0.384-0.639zm-1.956 0.999c0.07-0.138 0.402-0.11 0.742 0.063s0.558 0.425 0.488 0.563-0.402 0.11-0.742-0.063-0.558-0.425-0.488-0.563zm1.031 1.878c-0.269 0.27-0.577 0.4-0.686 0.291s0.02-0.416 0.29-0.686c0.269-0.27 0.576-0.4 0.686-0.291 0.109 0.109-0.021 0.416-0.29 0.686zm1.484 0.633c-0.138 0.07-0.39-0.148-0.563-0.487-0.174-0.34-0.203-0.673-0.065-0.743s0.39 0.148 0.563 0.487c0.173 0.34 0.202 0.672 0.065 0.743zm0.357-1.573c-0.377 0.06-0.701-0.015-0.726-0.168-0.024-0.153 0.262-0.325 0.638-0.385 0.377-0.06 0.701 0.015 0.726 0.168 0.024 0.153-0.261 0.325-0.638 0.385z" fill="#DCDCDC"/>
            
        </g>
        <g transform="translate(18.714 21.733)">
            
                
                    <rect x="3.8601" width="1.134" height="7.654" fill="#DCDCDC"/>
                    <rect x="9.2461" width="1.134" height="7.654" fill="#DCDCDC"/>
                    <rect x="6.5531" y="4.535" width="1.134" height="3.118" fill="#DCDCDC"/>
                    <rect x="3.0101" y="1.559" width="8.22" height="4.535" fill="#303030"/>
                
            
        </g>
    </g>
    <rect x="37.876" y="24.066" width="2.268" height="2.268" fill="#333"/>
</svg>
