<?xml version="1.0" encoding="UTF-8"?>
<!-- Generator: Adobe Illustrator 20.0.0, SVG Export Plug-In . SVG Version: 6.00 Build 0)  -->
<svg width=".9in" height=".7in" baseProfile="tiny" version="1.2" viewBox="0 0 64.8 50.4" xml:space="preserve" xmlns="http://www.w3.org/2000/svg" xmlns:xml="http://www.w3.org/XML/1998/namespace">
    <desc>
        <referenceFile>DS3231 rev A_breadboard.svg</referenceFile>
    </desc>
    <desc>Fritzing breadboard generated by brd2svg</desc>
    <g id="breadboard">
        <g id="icon">
            <path d="m7.2 0h50.4c3.976 0 7.2 3.224 7.2 7.2v36c0 3.976-3.224 7.2-7.2 7.2h-50.4c-3.976 0-7.2-3.224-7.2-7.2v-36c0-3.976 3.224-7.2 7.2-7.2m-1.417 43.2c0 0.783 0.635 1.417 1.417 1.417s1.417-0.635 1.417-1.417-0.634-1.417-1.417-1.417-1.417 0.634-1.417 1.417zm7.2 0c0 0.783 0.635 1.417 1.417 1.417s1.417-0.635 1.417-1.417-0.635-1.417-1.417-1.417-1.417 0.634-1.417 1.417zm7.2 0c0 0.783 0.635 1.417 1.417 1.417 0.783 0 1.417-0.635 1.417-1.417s-0.635-1.417-1.417-1.417c-0.783 0-1.417 0.634-1.417 1.417zm7.2 0c0 0.783 0.635 1.417 1.417 1.417 0.783 0 1.417-0.635 1.417-1.417s-0.635-1.417-1.417-1.417c-0.783 0-1.417 0.634-1.417 1.417zm7.2 0c0 0.783 0.635 1.417 1.417 1.417 0.783 0 1.417-0.635 1.417-1.417s-0.634-1.417-1.417-1.417-1.417 0.634-1.417 1.417zm7.2 0c0 0.783 0.635 1.417 1.417 1.417s1.417-0.635 1.417-1.417-0.635-1.417-1.417-1.417-1.417 0.634-1.417 1.417zm7.2 0c0 0.783 0.635 1.417 1.417 1.417 0.783 0 1.417-0.635 1.417-1.417s-0.635-1.417-1.417-1.417-1.417 0.634-1.417 1.417zm7.2 0c0 0.783 0.635 1.417 1.417 1.417s1.417-0.635 1.417-1.417-0.635-1.417-1.417-1.417-1.417 0.634-1.417 1.417zm-2.126-36c-3e-3 1.957 1.58 3.546 3.537 3.55s3.546-1.58 3.55-3.537v-0.012c3e-3 -1.957-1.58-3.546-3.537-3.55-1.957-3e-3 -3.546 1.58-3.55 3.537v0.012zm-50.4 0c-3e-3 1.957 1.58 3.546 3.537 3.549s3.546-1.58 3.549-3.537v-0.012c3e-3 -1.957-1.58-3.546-3.537-3.549-1.957-4e-3 -3.546 1.58-3.549 3.537v0.012z" fill="#014CB1"/>
            <g>
                <title>layer 21</title>
                <circle cx="38.88" cy="33.12" r=".805" fill="none" stroke="#fff" stroke-width="1.152"/>
                <g>
                    <title>text:SQW</title>
                    <g transform="translate(46.777 40.19)">
                        <text fill="#FFFFFF" font-family="'OCRA'" font-size="2.6726">SQW</text>
                    </g>
                </g>
                <g>
                    <title>text:32K</title>
                    <g transform="translate(40.297 49.91)">
                        <text fill="#FFFFFF" font-family="'OCRA'" font-size="2.6726">32K</text>
                    </g>
                </g>
                <g>
                    <title>text:!RST</title>
                    <g transform="translate(53.611 49.91)">
                        <text fill="#FFFFFF" font-family="'OCRA'" font-size="2.6726">RST</text>
                    </g>
                </g>
                <g>
                    <title>text:BAT</title>
                    <g transform="translate(32.377 39.83)">
                        <text fill="#FFFFFF" font-family="'OCRA'" font-size="2.6726">BAT</text>
                    </g>
                </g>
                <g>
                    <title>text:SDA</title>
                    <g transform="translate(25.177 49.91)">
                        <text fill="#FFFFFF" font-family="'OCRA'" font-size="2.6726">SDA</text>
                    </g>
                </g>
                <g>
                    <title>text:SCL</title>
                    <g transform="translate(17.977 39.83)">
                        <text fill="#FFFFFF" font-family="'OCRA'" font-size="2.6726">SCL</text>
                    </g>
                </g>
                <g>
                    <title>text:Vin</title>
                    <g transform="translate(3.937 39.83)">
                        <text fill="#FFFFFF" font-family="'OCRA'" font-size="2.6726">Vin</text>
                    </g>
                </g>
                <g>
                    <title>text:GND</title>
                    <g transform="translate(11.137 49.55)">
                        <text fill="#FFFFFF" font-family="'OCRA'" font-size="2.6726">GND</text>
                    </g>
                </g>
                <g>
                    <title>text:DS3231</title>
                    <g transform="translate(21.535 5.2186)">
                        <text fill="#FFFFFF" font-family="'OCRA'" font-size="3.7417">DS3231</text>
                    </g>
                </g>
                <g>
                    <title>text:Precision
I2C RTC</title>
                    <g transform="translate(57.881 27.36)">
                        
                            
                                
                                    <g transform="rotate(90)">
                                        
                                            
                                                
                                                    <g transform="translate(0 -1.8792)">
                                                        
                                                            
                                                                
                                                                    <g transform="translate(-12.228 .00023238)">
                                                                        <text fill="#FFFFFF" font-family="'OCRA'" font-size="3.0067">Precision</text>
                                                                    </g>
                                                                
                                                            
                                                        
                                                    </g>
                                                    <g transform="translate(0 1.8792)">
                                                        
                                                            
                                                                
                                                                    <g transform="translate(-9.5105 -.00035512)">
                                                                        <text fill="#FFFFFF" font-family="'OCRA'" font-size="3.0067">I2C RTC</text>
                                                                    </g>
                                                                
                                                            
                                                        
                                                    </g>
                                                
                                            
                                        
                                    </g>
                                
                            
                        
                    </g>
                </g>
                <g>
                    <title>element:B1</title>
                    <g>
                        <title>package:CR1220</title>
                    </g>
                </g>
                <g>
                    <title>element:C1</title>
                    <g>
                        <title>package:0805-NO</title>
                        <line x1="50.4" x2="53.28" y1="31.68" y2="31.68" fill="none" stroke="#fff" stroke-linecap="round" stroke-width=".864"/>
                    </g>
                </g>
                <g>
                    <title>element:FID1</title>
                    <g>
                        <title>package:FIDUCIAL_1MM</title>
                    </g>
                </g>
                <g>
                    <title>element:FID2</title>
                    <g>
                        <title>package:FIDUCIAL_1MM</title>
                    </g>
                </g>
                <g>
                    <title>element:FID3</title>
                    <g>
                        <title>package:FIDUCIAL_1MM</title>
                    </g>
                </g>
                <g>
                    <title>element:FID4</title>
                    <g>
                        <title>package:FIDUCIAL_1MM</title>
                    </g>
                </g>
                <g>
                    <title>element:IC1</title>
                    <g>
                        <title>package:SO16W</title>
                    </g>
                </g>
                <g>
                    <title>element:JP1</title>
                    <g>
                        <title>package:1X08_ROUND_70</title>
                    </g>
                </g>
                <g>
                    <title>element:R1</title>
                    <g>
                        <title>package:0805-NO</title>
                        <line x1="8.64" x2="8.64" y1="25.92" y2="28.8" fill="none" stroke="#fff" stroke-linecap="round" stroke-width=".864"/>
                    </g>
                </g>
                <g>
                    <title>element:R2</title>
                    <g>
                        <title>package:0805-NO</title>
                        <line x1="8.64" x2="8.64" y1="31.68" y2="34.56" fill="none" stroke="#fff" stroke-linecap="round" stroke-width=".864"/>
                    </g>
                </g>
                <g>
                    <title>element:U$6</title>
                    <g>
                        <title>package:MOUNTINGHOLE_2.5_PLATED</title>
                        <circle cx="57.6" cy="7.2" r="5.669" fill="none" stroke="#fff" stroke-width=".576"/>
                    </g>
                </g>
                <g>
                    <title>element:U$7</title>
                    <g>
                        <title>package:MOUNTINGHOLE_2.5_PLATED</title>
                        <circle cx="7.2" cy="7.2" r="5.669" fill="none" stroke="#fff" stroke-width=".576"/>
                    </g>
                </g>
                <g>
                    <title>element:U$8</title>
                    <g>
                        <title>package:ADAFRUIT_3.5MM</title>
                    </g>
                </g>
                <g>
                    <title>element:U$9</title>
                    <g>
                        <title>text:A</title>
                        <g transform="translate(45.572 4.781)">
                            <text fill="#FFFFFF" font-family="'OCRA'" font-size="2.6726">A</text>
                        </g>
                    </g>
                    <g>
                        <title>package:PCBFEAT-REV-040</title>
                        <circle cx="46.8" cy="3.6" r="2.546" fill="none" stroke="#fff" stroke-width=".864"/>
                    </g>
                </g>
            </g>
            <g transform="matrix(0 -1 1 0 17.467 86.213)">
                
                    
                        
                            <g transform="matrix(-2.5352e-6 -1 1 -2.5352e-6 17.467 86.213)">
                                <rect id="connector0pin" x="49.714" y="32.53" width="4.252" height="3.685" fill="#9A916C"/>
                            </g>
                        
                    
                
            </g>
            <g transform="matrix(0 -1 1 0 22.853 80.827)">
                
                    
                        
                            <g transform="matrix(-2.5352e-6 -1 1 -2.5352e-6 22.853 80.827)">
                                <rect id="connector1pin" x="49.714" y="27.145" width="4.252" height="3.685" fill="#9A916C"/>
                            </g>
                        
                    
                
            </g>
            <path id="connector2pin" d="m26.64 9.383c0.783 0 1.417 0.635 1.417 1.417 0 0.783-0.635 1.417-1.417 1.417-0.783 0-1.417-0.635-1.417-1.417 0-0.783 0.634-1.417 1.417-1.417z" fill="#9A916C"/>
            <path id="connector3pin" d="m51.84 17.303c0.783 0 1.417 0.635 1.417 1.417 0 0.783-0.635 1.417-1.417 1.417-0.783 0-1.417-0.635-1.417-1.417 0-0.783 0.634-1.417 1.417-1.417z" fill="#9A916C"/>
            <g transform="matrix(0 -1 1 0 11.239 78.199)">
                
                    
                        
                            <g transform="matrix(-2.5352e-6 -1 1 -2.5352e-6 11.24 78.2)">
                                <rect id="connector4pin" x="41.601" y="32.63" width="6.236" height="1.701" fill="#9A916C"/>
                            </g>
                        
                    
                
            </g>
            <g transform="matrix(0 -1 1 0 14.839 74.599)">
                
                    
                        
                            <g transform="matrix(-2.5352e-6 -1 1 -2.5352e-6 14.84 74.6)">
                                <rect id="connector5pin" x="41.601" y="29.03" width="6.236" height="1.701" fill="#9A916C"/>
                            </g>
                        
                    
                
            </g>
            <g transform="matrix(0 -1 1 0 18.439 70.999)">
                
                    
                        
                            <g transform="matrix(-2.5352e-6 -1 1 -2.5352e-6 18.44 71)">
                                <rect id="connector6pin" x="41.601" y="25.43" width="6.236" height="1.701" fill="#9A916C"/>
                            </g>
                        
                    
                
            </g>
            <g transform="matrix(0 -1 1 0 22.039 67.399)">
                
                    
                        
                            <g transform="matrix(-2.5352e-6 -1 1 -2.5352e-6 22.04 67.4)">
                                <rect id="connector7pin" x="41.601" y="21.83" width="6.236" height="1.701" fill="#9A916C"/>
                            </g>
                        
                    
                
            </g>
            <g transform="matrix(0 -1 1 0 25.639 63.799)">
                
                    
                        
                            <g transform="matrix(-2.5352e-6 -1 1 -2.5352e-6 25.64 63.799)">
                                <rect id="connector8pin" x="41.601" y="18.23" width="6.236" height="1.701" fill="#9A916C"/>
                            </g>
                        
                    
                
            </g>
            <g transform="matrix(0 -1 1 0 29.239 60.199)">
                
                    
                        
                            <g transform="matrix(-2.5352e-6 -1 1 -2.5352e-6 29.24 60.199)">
                                <rect id="connector9pin" x="41.601" y="14.63" width="6.236" height="1.701" fill="#9A916C"/>
                            </g>
                        
                    
                
            </g>
            <g transform="matrix(0 -1 1 0 32.839 56.599)">
                
                    
                        
                            <g transform="matrix(-2.5352e-6 -1 1 -2.5352e-6 32.84 56.599)">
                                <rect id="connector10pin" x="41.601" y="11.03" width="6.236" height="1.701" fill="#9A916C"/>
                            </g>
                        
                    
                
            </g>
            <g transform="matrix(0 -1 1 0 36.439 52.999)">
                
                    
                        
                            <g transform="matrix(-2.5352e-6 -1 1 -2.5352e-6 36.44 52.999)">
                                <rect id="connector11pin" x="41.601" y="7.43" width="6.236" height="1.701" fill="#9A916C"/>
                            </g>
                        
                    
                
            </g>
            <g transform="matrix(0 -1 1 0 10.361 26.921)">
                
                    
                        
                            <g transform="matrix(-2.5352e-6 -1 1 -2.5352e-6 10.361 26.921)">
                                <rect id="connector12pin" x="15.523" y="7.43" width="6.236" height="1.701" fill="#9A916C"/>
                            </g>
                        
                    
                
            </g>
            <g transform="matrix(0 -1 1 0 6.7606 30.521)">
                
                    
                        
                            <g transform="matrix(-2.5352e-6 -1 1 -2.5352e-6 6.7607 30.521)">
                                <rect id="connector13pin" x="15.523" y="11.03" width="6.236" height="1.701" fill="#9A916C"/>
                            </g>
                        
                    
                
            </g>
            <g transform="matrix(0 -1 1 0 3.1606 34.121)">
                
                    
                        
                            <g transform="matrix(-2.5352e-6 -1 1 -2.5352e-6 3.1607 34.121)">
                                <rect id="connector14pin" x="15.523" y="14.63" width="6.236" height="1.701" fill="#9A916C"/>
                            </g>
                        
                    
                
            </g>
            <g transform="matrix(0 -1 1 0 -.43937 37.721)">
                
                    
                        
                            <g transform="matrix(-2.5352e-6 -1 1 -2.5352e-6 -.4393 37.721)">
                                <rect id="connector15pin" x="15.523" y="18.23" width="6.236" height="1.701" fill="#9A916C"/>
                            </g>
                        
                    
                
            </g>
            <g transform="matrix(0 -1 1 0 -4.0394 41.321)">
                
                    
                        
                            <g transform="matrix(-2.5352e-6 -1 1 -2.5352e-6 -4.0393 41.321)">
                                <rect id="connector16pin" x="15.523" y="21.83" width="6.236" height="1.701" fill="#9A916C"/>
                            </g>
                        
                    
                
            </g>
            <g transform="matrix(0 -1 1 0 -7.6393 44.921)">
                
                    
                        
                            <g transform="matrix(-2.5352e-6 -1 1 -2.5352e-6 -7.6393 44.921)">
                                <rect id="connector17pin" x="15.523" y="25.43" width="6.236" height="1.701" fill="#9A916C"/>
                            </g>
                        
                    
                
            </g>
            <g transform="matrix(0 -1 1 0 -11.239 48.521)">
                
                    
                        
                            <g transform="matrix(-2.5352e-6 -1 1 -2.5352e-6 -11.239 48.521)">
                                <rect id="connector18pin" x="15.523" y="29.03" width="6.236" height="1.701" fill="#9A916C"/>
                            </g>
                        
                    
                
            </g>
            <g transform="matrix(0 -1 1 0 -14.839 52.121)">
                
                    
                        
                            <g transform="matrix(-2.5352e-6 -1 1 -2.5352e-6 -14.839 52.121)">
                                <rect id="connector19pin" x="15.523" y="32.63" width="6.236" height="1.701" fill="#9A916C"/>
                            </g>
                        
                    
                
            </g>
            <circle id="connector20pin" cx="7.2" cy="43.2" r="1.969" fill="none" stroke="#9A916C" stroke-width="1.1027"/>
            <circle id="connector21pin" cx="14.4" cy="43.2" r="1.969" fill="none" stroke="#9A916C" stroke-width="1.1027"/>
            <circle id="connector22pin" cx="21.6" cy="43.2" r="1.969" fill="none" stroke="#9A916C" stroke-width="1.1027"/>
            <circle id="connector23pin" cx="28.8" cy="43.2" r="1.969" fill="none" stroke="#9A916C" stroke-width="1.1027"/>
            <circle id="connector24pin" cx="36" cy="43.2" r="1.969" fill="none" stroke="#9A916C" stroke-width="1.1027"/>
            <circle id="connector25pin" cx="43.2" cy="43.2" r="1.969" fill="none" stroke="#9A916C" stroke-width="1.1027"/>
            <circle id="connector26pin" cx="50.4" cy="43.2" r="1.969" fill="none" stroke="#9A916C" stroke-width="1.1027"/>
            <circle id="connector27pin" cx="57.6" cy="43.2" r="1.969" fill="none" stroke="#9A916C" stroke-width="1.1027"/>
            <rect id="connector28pin" x="4.105" y="25.234" width="3.685" height="4.252" fill="#9A916C"/>
            <rect id="connector29pin" x="9.49" y="25.234" width="3.685" height="4.252" fill="#9A916C"/>
            <rect id="connector30pin" x="4.105" y="30.994" width="3.685" height="4.252" fill="#9A916C"/>
            <rect id="connector31pin" x="9.49" y="30.994" width="3.685" height="4.252" fill="#9A916C"/>
            <circle id="connector32pin" cx="57.6" cy="7.2" r="4.263" fill="none" stroke="#9A916C" stroke-width="1.44"/>
            <circle id="connector33pin" cx="7.2" cy="7.2" r="4.263" fill="none" stroke="#9A916C" stroke-width="1.44"/>
        </g>
        <g transform="translate(49.006 29.908)">
            
                
                    
                        <g transform="matrix(0 -1 1 0 1.063 4.606)">
                            
                                
                                    
                                        <path d="M5.386,3.543H0.283C0.127,3.543,0,3.416,0,3.26V0.283C0,0.127,0.127,0,0.283,0h5.102c0.157,0,0.283,0.127,0.283,0.283V3.26C5.669,3.416,5.542,3.543,5.386,3.543z" fill="#DCDCDC"/>
                                        <g transform="matrix(-2.5352e-6 -1 1 -2.5352e-6 1.063 4.606)">
                                            <rect x="1.063" width="3.543" height="3.543" fill="#6E554B"/>
                                        </g>
                                    
                                
                            
                        </g>
                    
                
            
        </g>
        <g transform="translate(17.082 6.2815)">
            
                
                    
                        <g transform="matrix(0 -1 1 0 0 29.197)">
                            
                                
                                    
                                        
                                            <g transform="matrix(8.9806e-11 -1 1 8.9806e-11 -12.6 16.597)">
                                                
                                                    
                                                        <rect x="-12.6" y="14.031" width="29.197" height="1.134" fill="#DCDCDC"/>
                                                    
                                                
                                            </g>
                                            <g transform="matrix(8.9806e-11 -1 1 8.9806e-11 -9 20.197)">
                                                
                                                    
                                                        <rect x="-9" y="14.031" width="29.197" height="1.134" fill="#DCDCDC"/>
                                                    
                                                
                                            </g>
                                            <g transform="matrix(8.9806e-11 -1 1 8.9806e-11 -5.4 23.797)">
                                                
                                                    
                                                        <rect x="-5.4" y="14.031" width="29.197" height="1.134" fill="#DCDCDC"/>
                                                    
                                                
                                            </g>
                                            <g transform="matrix(8.9806e-11 -1 1 8.9806e-11 -1.8 27.397)">
                                                
                                                    
                                                        <rect x="-1.8" y="14.031" width="29.197" height="1.134" fill="#DCDCDC"/>
                                                    
                                                
                                            </g>
                                            <g transform="matrix(8.9806e-11 -1 1 8.9806e-11 1.8 30.997)">
                                                
                                                    
                                                        <rect x="1.8" y="14.031" width="29.197" height="1.134" fill="#DCDCDC"/>
                                                    
                                                
                                            </g>
                                            <g transform="matrix(8.9806e-11 -1 1 8.9806e-11 5.4 34.597)">
                                                
                                                    
                                                        <rect x="5.4" y="14.031" width="29.197" height="1.134" fill="#DCDCDC"/>
                                                    
                                                
                                            </g>
                                            <g transform="matrix(8.9806e-11 -1 1 8.9806e-11 9 38.197)">
                                                
                                                    
                                                        <rect x="9" y="14.031" width="29.197" height="1.134" fill="#DCDCDC"/>
                                                    
                                                
                                            </g>
                                            <g transform="matrix(8.9806e-11 -1 1 8.9806e-11 12.6 41.797)">
                                                
                                                    
                                                        <rect x="12.6" y="14.031" width="29.197" height="1.134" fill="#DCDCDC"/>
                                                    
                                                
                                            </g>
                                            <g transform="matrix(8.9795e-11 -1 1 8.9795e-11 -1.5391e-9 29.197)">
                                                
                                                    
                                                        <rect x="3.969" width="21.26" height="29.197" fill="#333"/>
                                                    
                                                
                                            </g>
                                            <g transform="matrix(8.9838e-11 -1 1 8.9838e-11 -9.9213 39.118)">
                                                
                                                    
                                                        <rect x="13.89" y="9.921" width="1.417" height="29.197" fill="#505050"/>
                                                    
                                                
                                            </g>
                                            <path d="M0,16.866c1.252,0,2.268-1.015,2.268-2.268S1.252,12.331,0,12.331V16.866z"/>
                                        
                                    
                                
                            
                        </g>
                    
                
            
        </g>
        <g transform="translate(5.8055 25.588)">
            
                
                    
                        <path d="M5.386,3.543H0.283C0.127,3.543,0,3.416,0,3.26V0.283C0,0.127,0.127,0,0.283,0h5.102c0.157,0,0.283,0.127,0.283,0.283V3.26C5.669,3.416,5.542,3.543,5.386,3.543z" fill="#DCDCDC"/>
                        <rect x="1.063" width="3.543" height="3.543" fill="#333"/>
                    
                
            
        </g>
        <g transform="translate(5.8055 31.348)">
            
                
                    
                        <path d="M5.386,3.543H0.283C0.127,3.543,0,3.416,0,3.26V0.283C0,0.127,0.127,0,0.283,0h5.102c0.157,0,0.283,0.127,0.283,0.283V3.26C5.669,3.416,5.542,3.543,5.386,3.543z" fill="#DCDCDC"/>
                        <rect x="1.063" width="3.543" height="3.543" fill="#333"/>
                    
                
            
        </g>
        <g transform="translate(1.9275 14.934)">
            
                
                    
                        <path d="m10.786 3.604c-0.032-0.2-0.141-0.257-0.403-0.341-0.199-0.064-1.533-0.489-1.533-0.489s-0.93-0.351-1.619 0.146c-0.093 0.066-0.189 0.143-0.286 0.224 0.082-0.097 0.158-0.193 0.224-0.286 0.495-0.69 0.143-1.619 0.143-1.619s-0.427-1.334-0.492-1.533c-0.085-0.262-0.142-0.37-0.342-0.402s-0.288 0.054-0.449 0.277c-0.122 0.17-0.939 1.307-0.939 1.307s-0.621 0.777-0.361 1.586c0.034 0.109 0.077 0.224 0.125 0.341-0.067-0.108-0.135-0.209-0.203-0.302-0.503-0.684-1.496-0.636-1.496-0.636s-1.4-6e-3 -1.61-6e-3c-0.275-1e-3 -0.396 0.02-0.488 0.201-0.091 0.181-0.037 0.291 0.126 0.513 0.124 0.169 0.953 1.297 0.953 1.297s0.546 0.83 1.395 0.834c0.114 0 0.236-5e-3 0.362-0.014-0.122 0.03-0.24 0.064-0.348 0.1-0.806 0.267-1.067 1.226-1.067 1.226s-0.438 1.33-0.503 1.529c-0.086 0.261-0.103 0.383 0.04 0.526 0.144 0.143 0.265 0.126 0.526 0.04 0.199-0.065 1.528-0.506 1.528-0.506s0.958-0.263 1.224-1.07c0.036-0.108 0.069-0.225 0.1-0.348-9e-3 0.126-0.014 0.248-0.013 0.362 5e-3 0.849 0.836 1.394 0.836 1.394s1.13 0.827 1.298 0.951c0.223 0.162 0.333 0.216 0.514 0.124s0.201-0.213 0.2-0.488c-1e-3 -0.21-9e-3 -1.61-9e-3 -1.61s0.047-0.993-0.639-1.495c-0.092-0.067-0.194-0.135-0.301-0.202 0.117 0.047 0.232 0.09 0.34 0.124 0.81 0.258 1.584-0.364 1.584-0.364s1.136-0.819 1.306-0.941c0.223-0.161 0.309-0.249 0.277-0.45zm-4.822-1.031c0.152 0.024 0.228 0.349 0.169 0.726s-0.231 0.662-0.384 0.638-0.229-0.349-0.169-0.725c0.059-0.377 0.231-0.663 0.384-0.639zm-1.956 0.999c0.07-0.138 0.402-0.11 0.742 0.063s0.558 0.425 0.488 0.563-0.402 0.11-0.742-0.063-0.558-0.425-0.488-0.563zm1.031 1.878c-0.269 0.27-0.577 0.4-0.686 0.291s0.02-0.416 0.29-0.686c0.269-0.27 0.576-0.4 0.686-0.291 0.109 0.109-0.021 0.416-0.29 0.686zm1.484 0.633c-0.138 0.07-0.39-0.148-0.563-0.487-0.174-0.34-0.203-0.673-0.065-0.743s0.39 0.148 0.563 0.487c0.173 0.34 0.202 0.672 0.065 0.743zm0.357-1.573c-0.377 0.06-0.701-0.015-0.726-0.168-0.024-0.153 0.262-0.325 0.638-0.385 0.377-0.06 0.701 0.015 0.726 0.168 0.024 0.153-0.261 0.325-0.638 0.385z" fill="#DCDCDC"/>
                    
                
            
        </g>
    </g>
</svg>
