<?xml version="1.0" encoding="UTF-8"?>
<!-- Created with Fritzing (http://www.fritzing.org/) -->
<svg width=".7in" height=".7in" version="1.2" viewBox="0 0 50.4 50.4" xmlns="http://www.w3.org/2000/svg">
 <desc>
  <referenceFile>Adafruit_BMP183_breadboard.svg</referenceFile>
 </desc>
 <desc>Fritzing breadboard generated by brd2svg</desc>
 <g id="breadboard">
  <g id="icon">
   <path d="m43.2 50.4h-36a7.2 7.2 0 0 1-7.2-7.2v-36a7.2 7.2 0 0 1 7.2-7.2h36a7.2 7.2 0 0 1 7.2 7.2v36a7.2 7.2 0 0 1-7.2 7.2m-41.017-7.2a1.4173 1.4173 0 1 0 2.8346 0 1.4173 1.4173 0 1 0-2.8346 0zm7.2 0a1.4173 1.4173 0 1 0 2.8346 0 1.4173 1.4173 0 1 0-2.8346 0zm7.2 0a1.4173 1.4173 0 1 0 2.8346 0 1.4173 1.4173 0 1 0-2.8346 0zm7.2 0a1.4173 1.4173 0 1 0 2.8346 0 1.4173 1.4173 0 1 0-2.8346 0zm7.2 0a1.4173 1.4173 0 1 0 2.8346 0 1.4173 1.4173 0 1 0-2.8346 0zm7.2 0a1.4173 1.4173 0 1 0 2.8346 0 1.4173 1.4173 0 1 0-2.8346 0zm7.2 0a1.4173 1.4173 0 1 0 2.8346 0 1.4173 1.4173 0 1 0-2.8346 0zm-41.301-36a3.1181 3.1181 0 1 0 6.2362 0 3.1181 3.1181 0 1 0-6.2362 0zm36 0a3.1181 3.1181 0 1 0 6.2362 0 3.1181 3.1181 0 1 0-6.2362 0z" fill="#014cb1" stroke-width="0"/>
   <g>
    <title>layer 21</title>
    <g>
     <title>text:BMP183</title>
     <text x="18" y="4.32" fill="#ffffff" font-family="OCRA" font-size="3.3408" stroke-width="0">BMP183</text>
    </g>
    <g>
     <title>text:PRESSURE</title>
     <text x="15.48" y="8.28" fill="#ffffff" font-family="OCRA" font-size="3.3408" stroke-width="0">PRESSURE</text>
    </g>
    <g>
     <title>text:SENSOR</title>
     <text x="18" y="11.88" fill="#ffffff" font-family="OCRA" font-size="3.3408" stroke-width="0">SENSOR</text>
    </g>
    <g>
     <title>text:VIN</title>
     <text x="7.56" y="40.4208" fill="#ffffff" font-family="OCRA" font-size="3.3408" stroke-width="0" text-anchor="end">VIN</text>
    </g>
    <g>
     <title>text:3Vo</title>
     <text x="14.4" y="49.7808" fill="#ffffff" font-family="OCRA" font-size="3.3408" stroke-width="0" text-anchor="end">3Vo</text>
    </g>
    <g>
     <title>text:GND</title>
     <text x="22.32" y="40.4208" fill="#ffffff" font-family="OCRA" font-size="3.3408" stroke-width="0" text-anchor="end">GND</text>
    </g>
    <g>
     <title>text:SCK</title>
     <text x="29.16" y="49.7808" fill="#ffffff" font-family="OCRA" font-size="3.3408" stroke-width="0" text-anchor="end">SCK</text>
    </g>
    <g>
     <title>text:SDO</title>
     <text x="36.72" y="40.4208" fill="#ffffff" font-family="OCRA" font-size="3.3408" stroke-width="0" text-anchor="end">SDO</text>
    </g>
    <g>
     <title>text:SDI</title>
     <text x="43.2" y="49.7808" fill="#ffffff" font-family="OCRA" font-size="3.3408" stroke-width="0" text-anchor="end">SDI</text>
    </g>
    <g>
     <title>text:CS</title>
     <text x="49.68" y="40.4208" fill="#ffffff" font-family="OCRA" font-size="3.3408" stroke-width="0" text-anchor="end">CS</text>
    </g>
    <g>
     <title>element:C1</title>
     <g>
      <title>package:0805-NO</title>
      <line x1="8.28" x2="8.28" y1="16.2" y2="19.08" stroke="#fff" stroke-linecap="round" stroke-width=".864"/>
     </g>
    </g>
    <g>
     <title>element:C2</title>
     <g>
      <title>package:0805-NO</title>
      <line x1="9" x2="9" y1="36" y2="33.12" stroke="#fff" stroke-linecap="round" stroke-width=".864"/>
     </g>
    </g>
    <g>
     <title>element:D1</title>
     <g>
      <title>package:SOD-323</title>
      <line x1="41.936" x2="41.936" y1="33.795" y2="28.125" stroke="#fff" stroke-linecap="round" stroke-width=".576"/>
      <line x1="45.904" x2="45.904" y1="28.125" y2="33.795" stroke="#fff" stroke-linecap="round" stroke-width=".576"/>
      <line x1="43.92" x2="42.786" y1="31.669" y2="29.968" stroke="#fff" stroke-linecap="round" stroke-width=".576"/>
      <line x1="42.786" x2="45.054" y1="29.968" y2="29.968" stroke="#fff" stroke-linecap="round" stroke-width=".576"/>
      <line x1="45.054" x2="43.92" y1="29.968" y2="31.669" stroke="#fff" stroke-linecap="round" stroke-width=".576"/>
      <g>
       <title>polygon</title>
       <path d="m43.92 31.244-0.5669-0.8504h1.1338l-0.5669 0.8504v-0.8504 0.8504" fill="none" stroke="#fff" stroke-linecap="round" stroke-width=".576"/>
      </g>
     </g>
    </g>
    <g>
     <title>element:D2</title>
     <g>
      <title>package:SOD-323</title>
      <line x1="17.325" x2="22.995" y1="30.416" y2="30.416" stroke="#fff" stroke-linecap="round" stroke-width=".576"/>
      <line x1="22.995" x2="17.325" y1="34.384" y2="34.384" stroke="#fff" stroke-linecap="round" stroke-width=".576"/>
      <line x1="19.451" x2="21.152" y1="32.4" y2="31.266" stroke="#fff" stroke-linecap="round" stroke-width=".576"/>
      <line x1="21.152" x2="21.152" y1="31.266" y2="33.534" stroke="#fff" stroke-linecap="round" stroke-width=".576"/>
      <line x1="21.152" x2="19.451" y1="33.534" y2="32.4" stroke="#fff" stroke-linecap="round" stroke-width=".576"/>
      <g>
       <title>polygon</title>
       <path d="m19.876 32.4 0.8504-0.5669v1.1338l-0.8504-0.5669h0.8504-0.8504" fill="none" stroke="#fff" stroke-linecap="round" stroke-width=".576"/>
      </g>
     </g>
    </g>
    <g>
     <title>element:D3</title>
     <g>
      <title>package:SOD-323</title>
      <line x1="36.176" x2="36.176" y1="32.715" y2="27.045" stroke="#fff" stroke-linecap="round" stroke-width=".576"/>
      <line x1="40.144" x2="40.144" y1="27.045" y2="32.715" stroke="#fff" stroke-linecap="round" stroke-width=".576"/>
      <line x1="38.16" x2="37.026" y1="30.589" y2="28.888" stroke="#fff" stroke-linecap="round" stroke-width=".576"/>
      <line x1="37.026" x2="39.294" y1="28.888" y2="28.888" stroke="#fff" stroke-linecap="round" stroke-width=".576"/>
      <line x1="39.294" x2="38.16" y1="28.888" y2="30.589" stroke="#fff" stroke-linecap="round" stroke-width=".576"/>
      <g>
       <title>polygon</title>
       <path d="m38.16 30.164-0.5669-0.8504h1.1338l-0.5669 0.8504v-0.8504 0.8504" fill="none" stroke="#fff" stroke-linecap="round" stroke-width=".576"/>
      </g>
     </g>
    </g>
    <g>
     <title>element:JP2</title>
     <g>
      <title>package:1X07_ROUND_70</title>
     </g>
    </g>
    <g>
     <title>element:R1</title>
     <g>
      <title>package:0805-NO</title>
      <line x1="30.96" x2="30.96" y1="30.96" y2="33.84" stroke="#fff" stroke-linecap="round" stroke-width=".864"/>
     </g>
    </g>
    <g>
     <title>element:R4</title>
     <g>
      <title>package:0805-NO</title>
      <line x1="37.44" x2="37.44" y1="18" y2="15.12" stroke="#fff" stroke-linecap="round" stroke-width=".864"/>
     </g>
    </g>
    <g>
     <title>element:U$2</title>
     <g>
      <title>package:ADAFRUIT_2.5MM</title>
     </g>
    </g>
    <g>
     <title>element:U$5</title>
     <g>
      <title>package:FIDUCIAL_1MM</title>
     </g>
    </g>
    <g>
     <title>element:U$6</title>
     <g>
      <title>package:ADAFRUIT_2.5MM</title>
     </g>
    </g>
    <g>
     <title>element:U$7</title>
     <g>
      <title>package:MOUNTINGHOLE_2.0_PLATED</title>
      <circle cx="7.2" cy="7.2" r="5.1024" fill="none" stroke="#fff" stroke-width=".576"/>
     </g>
    </g>
    <g>
     <title>element:U$8</title>
     <g>
      <title>package:MOUNTINGHOLE_2.0_PLATED</title>
      <circle cx="43.2" cy="7.2" r="5.1024" fill="none" stroke="#fff" stroke-width=".576"/>
     </g>
    </g>
    <g>
     <title>element:U$15</title>
     <g>
      <title>package:FIDUCIAL_1MM</title>
     </g>
    </g>
    <g>
     <title>element:U2</title>
     <g>
      <title>package:SOT23-5</title>
      <line x1="3.2428" x2="3.2428" y1="24.012" y2="28.548" stroke="#fff" stroke-linecap="round" stroke-width=".576"/>
      <line x1="12.597" x2="12.597" y1="24.012" y2="28.548" stroke="#fff" stroke-linecap="round" stroke-width=".576"/>
      <line x1="6.7861" x2="9.0539" y1="23.304" y2="23.304" stroke="#fff" stroke-linecap="round" stroke-width=".576"/>
     </g>
    </g>
    <g>
     <title>element:U3</title>
     <g>
      <title>package:BMP18X_EXTENDED</title>
      <line x1="30.728" x2="30.728" y1="15.789" y2="27.411" stroke="#fff" stroke-linecap="round" stroke-width=".36"/>
      <line x1="30.728" x2="19.672" y1="27.411" y2="27.411" stroke="#fff" stroke-linecap="round" stroke-width=".36"/>
      <line x1="19.672" x2="19.672" y1="27.411" y2="15.789" stroke="#fff" stroke-linecap="round" stroke-width=".36"/>
      <line x1="19.672" x2="30.728" y1="15.789" y2="15.789" stroke="#fff" stroke-linecap="round" stroke-width=".36"/>
      <circle cx="20.948" cy="13.238" r=".56693" fill="none" stroke="#fff" stroke-width=".99212"/>
     </g>
    </g>
   </g>
   <rect id="connector0pin" x="3.7446" y="15.514" width="3.685" height="4.252" fill="#9A916C" stroke-width="0"/>
   <rect id="connector1pin" x="9.1304" y="15.514" width="3.685" height="4.252" fill="#9A916C" stroke-width="0"/>
   <g transform="matrix(-1 0 0 -1 23.386 69.12)">
    <rect id="connector2pin" x="9.8504" y="32.434" width="3.685" height="4.252" fill="#9A916C" stroke-width="0"/>
   </g>
   <g transform="matrix(-1 0 0 -1 12.614 69.12)">
    <rect id="connector3pin" x="4.4646" y="32.434" width="3.685" height="4.252" fill="#9A916C" stroke-width="0"/>
   </g>
   <g transform="matrix(0 -1 1 0 16.56 71.28)">
    <rect id="connector4pin" x="42.007" y="26.226" width="3.8268" height="2.2677" fill="#9A916C" stroke-width="0"/>
   </g>
   <g transform="matrix(0 -1 1 0 9.36 78.48)">
    <rect id="connector5pin" x="42.007" y="33.426" width="3.8268" height="2.2677" fill="#9A916C" stroke-width="0"/>
   </g>
   <rect id="connector6pin" x="21.847" y="31.266" width="3.8268" height="2.2677" fill="#9A916C" stroke-width="0"/>
   <rect id="connector7pin" x="14.647" y="31.266" width="3.8268" height="2.2677" fill="#9A916C" stroke-width="0"/>
   <g transform="matrix(0 -1 1 0 11.88 64.44)">
    <rect id="connector8pin" x="36.247" y="25.146" width="3.8268" height="2.2677" fill="#9A916C" stroke-width="0"/>
   </g>
   <g transform="matrix(0 -1 1 0 4.68 71.64)">
    <rect id="connector9pin" x="36.247" y="32.346" width="3.8268" height="2.2677" fill="#9A916C" stroke-width="0"/>
   </g>
   <circle id="connector10pin" cx="3.6" cy="43.2" r="1.9687" fill="none" stroke="#9A916C" stroke-width="1.1027" connectorname="VIN"/>
   <circle id="connector11pin" cx="10.8" cy="43.2" r="1.9687" fill="none" stroke="#9A916C" stroke-width="1.1027" connectorname="+3V3"/>
   <circle id="connector12pin" cx="18" cy="43.2" r="1.9687" fill="none" stroke="#9A916C" stroke-width="1.1027" connectorname="GND"/>
   <circle id="connector13pin" cx="25.2" cy="43.2" r="1.9687" fill="none" stroke="#9A916C" stroke-width="1.1027" connectorname="SCK"/>
   <circle id="connector14pin" cx="32.4" cy="43.2" r="1.9687" fill="none" stroke="#9A916C" stroke-width="1.1027" connectorname="SDO"/>
   <circle id="connector15pin" cx="39.6" cy="43.2" r="1.9687" fill="none" stroke="#9A916C" stroke-width="1.1027" connectorname="SDI"/>
   <circle id="connector16pin" cx="46.8" cy="43.2" r="1.9687" fill="none" stroke="#9A916C" stroke-width="1.1027" connectorname="CS"/>
   <rect id="connector17pin" x="26.425" y="30.274" width="3.685" height="4.252" fill="#9A916C" stroke-width="0"/>
   <rect id="connector18pin" x="31.81" y="30.274" width="3.685" height="4.252" fill="#9A916C" stroke-width="0"/>
   <g transform="matrix(-1 0 0 -1 80.266 33.12)">
    <rect id="connector19pin" x="38.29" y="14.434" width="3.685" height="4.252" fill="#9A916C" stroke-width="0"/>
   </g>
   <g transform="matrix(-1 0 0 -1 69.494 33.12)">
    <rect id="connector20pin" x="32.905" y="14.434" width="3.685" height="4.252" fill="#9A916C" stroke-width="0"/>
   </g>
   <rect id="connector21pin" x="14.783" y="17.303" width="2.8346" height="2.8346" rx="1.4173" ry="1.4173" fill="#9A916C" stroke-width="0"/>
   <circle id="connector22pin" cx="7.2" cy="7.2" r="3.8381" fill="none" stroke="#9A916C" stroke-width="1.44" connectorname="P$1"/>
   <circle id="connector23pin" cx="43.2" cy="7.2" r="3.8381" fill="none" stroke="#9A916C" stroke-width="1.44" connectorname="P$1"/>
   <rect id="connector24pin" x="45.383" y="14.063" width="2.8346" height="2.8346" rx="1.4173" ry="1.4173" fill="#9A916C" stroke-width="0"/>
   <rect id="connector25pin" x="4.4476" y="28.264" width="1.559" height="3.4016" fill="#9A916C" stroke-width="0"/>
   <rect id="connector26pin" x="7.1405" y="28.264" width="1.559" height="3.4016" fill="#9A916C" stroke-width="0"/>
   <rect id="connector27pin" x="9.8334" y="28.264" width="1.559" height="3.4016" fill="#9A916C" stroke-width="0"/>
   <rect id="connector28pin" x="9.8334" y="20.894" width="1.559" height="3.4016" fill="#9A916C" stroke-width="0"/>
   <rect id="connector29pin" x="4.4476" y="20.894" width="1.559" height="3.4016" fill="#9A916C" stroke-width="0"/>
   <g transform="matrix(0 1 -1 0 37.587 -4.5921)">
    <rect id="connector30pin" x="19.389" y="15.789" width="3.4016" height="1.4173" fill="#9A916C" stroke-width="0"/>
   </g>
   <g transform="matrix(0 1 -1 0 41.839 1.3606)">
    <rect id="connector31pin" x="19.389" y="20.041" width="1.7008" height="3.1181" fill="#9A916C" stroke-width="0"/>
   </g>
   <g transform="matrix(0 1 -1 0 47.792 5.6126)">
    <rect id="connector32pin" x="19.389" y="25.994" width="3.4016" height="1.4173" fill="#9A916C" stroke-width="0"/>
   </g>
   <g transform="matrix(0 1 -1 0 56.013 -2.6079)">
    <rect id="connector33pin" x="27.61" y="25.994" width="3.4016" height="1.4173" fill="#9A916C" stroke-width="0"/>
   </g>
   <g transform="matrix(0 1 -1 0 51.761 -8.5607)">
    <rect id="connector34pin" x="29.31" y="20.041" width="1.7008" height="3.1181" fill="#9A916C" stroke-width="0"/>
   </g>
   <g transform="matrix(0 1 -1 0 45.808 -12.813)">
    <rect id="connector35pin" x="27.61" y="15.789" width="3.4016" height="1.4173" fill="#9A916C" stroke-width="0"/>
   </g>
   <g transform="matrix(0 1 -1 0 41.698 -8.7024)">
    <rect id="connector36pin" x="23.641" y="15.647" width="3.1181" height="1.7008" fill="#9A916C" stroke-width="0"/>
   </g>
  </g>
  <g transform="translate(5.4455 15.868)">
   <path d="m5.386 3.543h-5.103c-0.156 0-0.283-0.127-0.283-0.283v-2.977c0-0.156 0.127-0.283 0.283-0.283h5.102c0.157 0 0.283 0.127 0.283 0.283v2.977c1e-3 0.156-0.126 0.283-0.282 0.283z" fill="#DCDCDC"/>
   <rect x="1.063" width="3.543" height="3.543" fill="#6E554B"/>
  </g>
  <g transform="translate(6.1655 32.788)">
   <g transform="matrix(-1 0 0 -1 5.669 3.543)">
    <path d="m5.386 3.543h-5.103c-0.156 0-0.283-0.127-0.283-0.283v-2.977c0-0.156 0.127-0.283 0.283-0.283h5.102c0.157 0 0.283 0.127 0.283 0.283v2.977c1e-3 0.156-0.126 0.283-0.282 0.283z" fill="#DCDCDC"/>
    <rect x="1.063" width="3.543" height="3.543" fill="#6E554B"/>
   </g>
  </g>
  <g transform="translate(40.376 29.188)">
   <g transform="matrix(0 -1 1 0 1.772 5.315)">
    <rect y="1.346" width="7.087" height=".85" fill="#DCDCDC"/>
    <rect x="1.134" width="4.819" height="3.543" fill="#303030"/>
   </g>
  </g>
  <g transform="translate(16.616 30.628)">
   <rect y="1.346" width="7.087" height=".85" fill="#DCDCDC"/>
   <rect x="1.134" width="4.819" height="3.543" fill="#303030"/>
  </g>
  <g transform="translate(34.616 28.108)">
   <g transform="matrix(0 -1 1 0 1.772 5.315)">
    <rect y="1.346" width="7.087" height=".85" fill="#DCDCDC"/>
    <rect x="1.134" width="4.819" height="3.543" fill="#303030"/>
   </g>
  </g>
  <g transform="translate(28.126 30.628)">
   <path d="m5.386 3.543h-5.103c-0.156 0-0.283-0.127-0.283-0.283v-2.977c0-0.156 0.127-0.283 0.283-0.283h5.102c0.157 0 0.283 0.127 0.283 0.283v2.977c1e-3 0.156-0.126 0.283-0.282 0.283z" fill="#DCDCDC"/>
   <rect x="1.063" width="3.543" height="3.543" fill="#333"/>
  </g>
  <g transform="translate(34.606 14.788)">
   <g transform="matrix(-1 0 0 -1 5.669 3.543)">
    <path d="m5.386 3.543h-5.103c-0.156 0-0.283-0.127-0.283-0.283v-2.977c0-0.156 0.127-0.283 0.283-0.283h5.102c0.157 0 0.283 0.127 0.283 0.283v2.977c1e-3 0.156-0.126 0.283-0.282 0.283z" fill="#DCDCDC"/>
    <rect x="1.063" width="3.543" height="3.543" fill="#333"/>
   </g>
  </g>
  <g transform="translate(39.037 18.026)">
   <path d="m9.747 3.082c-0.023-0.142-0.1-0.183-0.286-0.243-0.14197-0.045-1.089-0.347-1.089-0.347s-0.66-0.249-1.15 0.103c-0.06602 0.048-0.13402 0.102-0.20302 0.16 0.058-0.069 0.112-0.137 0.159-0.203 0.352-0.49 0.101-1.15 0.101-1.15s-0.303-0.947-0.349-1.089c-0.06-0.186-0.1-0.263-0.243-0.285-0.142-0.023-0.204 0.038-0.318 0.197-0.087 0.12-0.667 0.928-0.667 0.928s-0.441 0.551-0.257 1.126c0.025 0.077 0.055 0.159 0.089 0.242-0.048-0.076-0.096-0.149-0.144-0.214-0.358-0.486-1.062-0.452-1.062-0.452s-0.995-4e-3 -1.143-4e-3c-0.195 0-0.281 0.014-0.347 0.143-0.065 0.128-0.027 0.206 0.089 0.364 0.088 0.12 0.677 0.921 0.677 0.921s0.388 0.59 0.991 0.592c0.081 0 0.168-3e-3 0.257-0.01-0.087001 0.021998-0.171 0.045998-0.248 0.070998-0.573 0.19-0.758 0.871-0.758 0.871s-0.31 0.944-0.357 1.085c-0.061 0.186-0.073 0.272 0.029 0.374s0.188 0.09 0.374 0.028c0.141-0.046 1.085-0.359 1.085-0.359s0.681-0.187 0.869-0.76c0.025-0.077 0.049-0.16 0.07-0.247-0.005997 0.090003-0.008997 0.176-0.008997 0.257 4e-3 0.603 0.594 0.99 0.594 0.99s0.802 0.588 0.922 0.675c0.15802 0.116 0.236 0.154 0.36502 0.089 0.12795-0.066 0.143-0.152 0.14199-0.347-0.00101-0.149-0.00598-1.143-0.00598-1.143s0.03298-0.705-0.45403-1.062c-0.06502-0.048-0.13802-0.096-0.21398-0.143 0.083 0.034 0.165 0.064 0.242 0.088 0.575 0.183 1.125-0.259 1.125-0.259s0.80696-0.581 0.92699-0.668c0.15897-0.115 0.21902-0.177 0.19699-0.319zm-3.425-0.732c0.108 0.017 0.162 0.248 0.12 0.515s-0.164 0.47-0.273 0.453c-0.108-0.017-0.162-0.248-0.12-0.515 0.042-0.268 0.164-0.471 0.273-0.453zm-1.389 0.709c0.05-0.098 0.286-0.078 0.527 0.045s0.397 0.302 0.347 0.399c-0.05 0.098-0.286 0.078-0.527-0.045-0.242-0.123-0.397-0.301-0.347-0.399zm0.732 1.334c-0.191 0.191-0.409 0.284-0.487 0.206-0.077-0.078 0.015-0.296 0.206-0.487 0.191-0.192 0.409-0.285 0.487-0.207s-0.014 0.296-0.206 0.488zm1.054 0.449c-0.098 0.05-0.277-0.105-0.4-0.346-0.123-0.242-0.144-0.478-0.046-0.528s0.277 0.105 0.4 0.346c0.123 0.242 0.144 0.478 0.046 0.528zm0.254-1.117c-0.267 0.042-0.498-0.011-0.516-0.119-0.017-0.109 0.186-0.231 0.453-0.274s0.498 0.011 0.515 0.119c0.018 0.109-0.18497 0.231-0.452 0.274z" fill="#9fbbe0"/>
  </g>
  <g transform="translate(3.81 22.453)">
   <rect x=".85" width="1.134" height="7.654" fill="#DCDCDC"/>
   <rect x="6.236" width="1.134" height="7.654" fill="#DCDCDC"/>
   <rect x="3.543" y="4.535" width="1.134" height="3.118" fill="#DCDCDC"/>
   <rect y="1.559" width="8.22" height="4.535" fill="#303030"/>
  </g>
  <g transform="translate(19.748 16.454)">
   <g transform="matrix(0 1 -1 0 10.488 -.28346)">
    <metadata>
     <rdf:RDF xmlns:rdf="http://www.w3.org/1999/02/22-rdf-syntax-ns#">
      <cc:Work rdf:about="" xmlns:cc="http://creativecommons.org/ns#" xmlns:rdf="http://www.w3.org/1999/02/22-rdf-syntax-ns#">
       <dc:format xmlns:dc="http://purl.org/dc/elements/1.1/">image/svg+xml</dc:format>
       <dc:type rdf:resource="http://purl.org/dc/dcmitype/StillImage" xmlns:dc="http://purl.org/dc/elements/1.1/" xmlns:rdf="http://www.w3.org/1999/02/22-rdf-syntax-ns#"/>
       <dc:title xmlns:dc="http://purl.org/dc/elements/1.1/"/>
      </cc:Work>
     </rdf:RDF>
    </metadata>
    <g transform="matrix(1.5624 0 0 1.4474 0 .0288)">
     <path d="m0 6.4616v-5.9127c0-0.31449 0.25085-0.5688 0.56105-0.5688h5.7723c0.30941 0 0.56105 0.25432 0.56105 0.5688v5.9127c-2e-6 0.31368-0.25084 0.5688-0.56104 0.5688h-5.7723c-0.3102-8e-4 -0.56105-0.25512-0.56105-0.5688z" fill="#b4b4b4" connector-curvature="0"/>
     <path d="m0.33631 0.54891c0-0.12515 0.1005-0.22784 0.22394-0.22784h5.7523c0.12345 0 0.22394 0.10269 0.22394 0.22784v5.9127c0 0.12515-0.1005 0.22784-0.22394 0.22784h-5.7523c-0.12345 0-0.22394-0.10269-0.22394-0.22784z" fill="#dcdcdc" connector-curvature="0"/>
     <ellipse cx="5.3788" cy="1.4474" rx=".44866" ry=".49099"/>
    </g>
   </g>
  </g>
 </g>
</svg>
