<?xml version="1.0" encoding="UTF-8"?>
<!-- Created with Fritzing (http://www.fritzing.org/) -->
<svg width=".7in" height=".6in" version="1.2" viewBox="0 0 50.4 43.2" xmlns="http://www.w3.org/2000/svg">
 <desc>
  <referenceFile>Adafruit AVR 6-ISP Breakout_breadboard.svg</referenceFile>
 </desc>
 <metadata>
  <rdf:RDF xmlns:rdf="http://www.w3.org/1999/02/22-rdf-syntax-ns#">
   <cc:Work rdf:about="" xmlns:cc="http://creativecommons.org/ns#" xmlns:rdf="http://www.w3.org/1999/02/22-rdf-syntax-ns#">
    <dc:format xmlns:dc="http://purl.org/dc/elements/1.1/">image/svg+xml</dc:format>
    <dc:type rdf:resource="http://purl.org/dc/dcmitype/StillImage" xmlns:dc="http://purl.org/dc/elements/1.1/" xmlns:rdf="http://www.w3.org/1999/02/22-rdf-syntax-ns#"/>
    <dc:title xmlns:dc="http://purl.org/dc/elements/1.1/"/>
   </cc:Work>
  </rdf:RDF>
 </metadata>
 <desc>Fritzing breadboard generated by brd2svg</desc>
 <g id="breadboard">
  <g id="icon">
   <path d="m0 7.2a7.2 7.2 0 0 1 7.2-7.2h36a7.2 7.2 0 0 1 7.2 7.2v28.8a7.2 7.2 0 0 1-7.2 7.2h-36a7.2 7.2 0 0 1-7.2-7.2v-28.8m19.964 7.2a1.2756 1.2756 0 1 0 2.5512 0 1.2756 1.2756 0 1 0-2.5512 0zm7.92 0a1.2756 1.2756 0 1 0 2.5512 0 1.2756 1.2756 0 1 0-2.5512 0zm-7.2 7.2a1.2756 1.2756 0 1 0 2.5512 0 1.2756 1.2756 0 1 0-2.5512 0zm6.48 0a1.2756 1.2756 0 1 0 2.5512 0 1.2756 1.2756 0 1 0-2.5512 0zm-7.2 7.2a1.2756 1.2756 0 1 0 2.5512 0 1.2756 1.2756 0 1 0-2.5512 0zm7.92 0a1.2756 1.2756 0 1 0 2.5512 0 1.2756 1.2756 0 1 0-2.5512 0zm-25.724 0a1.44 1.44 0 1 0 2.88 0 1.44 1.44 0 1 0-2.88 0zm0-7.2a1.44 1.44 0 1 0 2.88 0 1.44 1.44 0 1 0-2.88 0zm0-7.2a1.44 1.44 0 1 0 2.88 0 1.44 1.44 0 1 0-2.88 0zm43.2 0a1.44 1.44 0 1 0 2.88 0 1.44 1.44 0 1 0-2.88 0zm0 7.2a1.44 1.44 0 1 0 2.88 0 1.44 1.44 0 1 0-2.88 0zm0 7.2a1.44 1.44 0 1 0 2.88 0 1.44 1.44 0 1 0-2.88 0z" fill="#014cb1" stroke-width="0"/>
   <g>
    <title>layer 21</title>
    <circle cx="19.44" cy="6.48" r="2.16" fill="none" stroke="#fff" stroke-width="1.152"/>
    <g>
     <title>text:MISO</title>
     <text x="0.72" y="11.448" fill="#ffffff" font-family="OCRA" font-size="4.176" stroke-width="0">MISO</text>
    </g>
    <g>
     <title>text:SCK</title>
     <g transform="translate(11.448 25.92)">
      <g transform="rotate(270)">
       <text fill="#ffffff" font-family="OCRA" font-size="4.176" stroke-width="0">SCK</text>
      </g>
     </g>
    </g>
    <g>
     <title>text:RST</title>
     <text x="0.72" y="35.928" fill="#ffffff" font-family="OCRA" font-size="4.176" stroke-width="0">RST</text>
    </g>
    <g>
     <title>text:MOSI</title>
     <g transform="translate(43.128 28.08)">
      <g transform="rotate(270)">
       <text fill="#ffffff" font-family="OCRA" font-size="4.176" stroke-width="0">MOSI</text>
      </g>
     </g>
    </g>
    <g>
     <title>text:VCC</title>
     <text x="50.4" y="11.448" fill="#ffffff" font-family="OCRA" font-size="4.176" stroke-width="0" text-anchor="end">VCC</text>
    </g>
    <g>
     <title>text:GND</title>
     <text x="50.4" y="35.928" fill="#ffffff" font-family="OCRA" font-size="4.176" stroke-width="0" text-anchor="end">GND</text>
    </g>
    <g>
     <title>element:ISP1</title>
     <g>
      <title>package:AVRISP-BOX</title>
      <line x1="12.728" x2="37.672" y1=".056693" y2=".056693" stroke="#fff" stroke-linecap="round" stroke-width=".36"/>
      <line x1="37.672" x2="37.672" y1=".056693" y2="43.143" stroke="#fff" stroke-linecap="round" stroke-width=".36"/>
      <line x1="37.672" x2="12.728" y1="43.143" y2="43.143" stroke="#fff" stroke-linecap="round" stroke-width=".36"/>
      <line x1="12.728" x2="12.728" y1="43.143" y2="25.852" stroke="#fff" stroke-linecap="round" stroke-width=".36"/>
      <line x1="12.728" x2="12.728" y1="25.852" y2="17.348" stroke="#fff" stroke-linecap="round" stroke-width=".36"/>
      <line x1="12.728" x2="12.728" y1="17.348" y2=".056693" stroke="#fff" stroke-linecap="round" stroke-width=".36"/>
      <line x1="12.728" x2="15.846" y1="17.348" y2="17.348" stroke="#fff" stroke-linecap="round" stroke-width=".36"/>
      <line x1="15.846" x2="15.846" y1="17.348" y2="25.852" stroke="#fff" stroke-linecap="round" stroke-width=".36"/>
      <line x1="15.846" x2="12.728" y1="25.852" y2="25.852" stroke="#fff" stroke-linecap="round" stroke-width=".36"/>
      <line x1="16.129" x2="34.271" y1="3.1748" y2="3.1748" stroke="#fff" stroke-linecap="round" stroke-width=".36"/>
      <line x1="34.271" x2="34.271" y1="3.1748" y2="40.025" stroke="#fff" stroke-linecap="round" stroke-width=".36"/>
      <line x1="34.271" x2="16.129" y1="40.025" y2="40.025" stroke="#fff" stroke-linecap="round" stroke-width=".36"/>
      <line x1="16.129" x2="16.129" y1="40.025" y2="3.1748" stroke="#fff" stroke-linecap="round" stroke-width=".36"/>
     </g>
    </g>
    <g>
     <title>element:JP1</title>
     <g>
      <title>package:1X03-CLEANBIG</title>
     </g>
    </g>
    <g>
     <title>element:JP2</title>
     <g>
      <title>package:1X03-CLEANBIG</title>
     </g>
    </g>
    <g>
     <title>element:U$1</title>
     <g>
      <title>package:ADAFRUIT_3.5MM</title>
     </g>
    </g>
   </g>
   <circle cx="21.24" cy="14.4" r="1.9236" fill="none" stroke="#9A916C" stroke-width="1.296" connectorname="MISO"/>
   <circle cx="29.16" cy="14.4" r="1.9236" fill="none" stroke="#9A916C" stroke-width="1.296" connectorname="VCC"/>
   <circle cx="21.96" cy="21.6" r="1.9236" fill="none" stroke="#9A916C" stroke-width="1.296" connectorname="SCK"/>
   <circle cx="28.44" cy="21.6" r="1.9236" fill="none" stroke="#9A916C" stroke-width="1.296" connectorname="MOSI"/>
   <circle cx="21.24" cy="28.8" r="1.9236" fill="none" stroke="#9A916C" stroke-width="1.296" connectorname="RST"/>
   <circle cx="29.16" cy="28.8" r="1.9236" fill="none" stroke="#9A916C" stroke-width="1.296" connectorname="GND"/>
   <circle id="connector6pin" cx="3.6" cy="28.8" r="2.088" fill="none" stroke="#9A916C" stroke-width="1.296" connectorname="RST"/>
   <circle id="connector7pin" cx="3.6" cy="21.6" r="2.088" fill="none" stroke="#9A916C" stroke-width="1.296" connectorname="SCK"/>
   <circle id="connector8pin" cx="3.6" cy="14.4" r="2.088" fill="none" stroke="#9A916C" stroke-width="1.296" connectorname="MISO"/>
   <circle id="connector9pin" cx="46.8" cy="14.4" r="2.088" fill="none" stroke="#9A916C" stroke-width="1.296" connectorname="VCC"/>
   <circle id="connector10pin" cx="46.8" cy="21.6" r="2.088" fill="none" stroke="#9A916C" stroke-width="1.296" connectorname="MOSI"/>
   <circle id="connector11pin" cx="46.8" cy="28.8" r="2.088" fill="none" stroke="#9A916C" stroke-width="1.296" connectorname="GND"/>
  </g>
 </g>
 <g transform="matrix(0 .8 -.8 0 37.763 -2.1512e-6)">
  <rect y=".0332" width="53.28" height="31.358" fill="#1a1a1a"/>
  <rect y=".0332" width="54" height="3.4975" fill="#2a2a29"/>
  <rect y="27.893" width="53.91" height="3.4975" fill="#595959"/>
  <path d="m1.8652e-6 0.033199v31.358l3.4975-3.4975v-24.363z" fill="#373737"/>
  <path d="m53.987 0.049975v31.358l-3.4975-3.4975v-24.363z" fill="#474747"/>
  <rect y="-1.9073e-6" width="54" height="2.2475" fill="#404040"/>
  <rect y="29.143" width="53.73" height="2.2475" fill="#404040"/>
  <rect y=".0332" width="2.2475" height="31.358" fill="#404040"/>
  <rect x="51.74" y=".049976" width="2.2475" height="31.358" fill="#404040"/>
  <rect id="connector1pin" x="15.626" y="8.6707" width="4.7488" height="4.7488" fill="#141414"/>
  <rect id="connector9pin-4" x="16.563" y="9.6082" width="2.8738" height="2.8738" fill="#8c8663"/>
  <rect x="16.563" y="9.6082" width="2.8738" height=".6975" fill="#b8af82"/>
  <rect x="16.563" y="11.784" width="2.8738" height=".6975" fill="#5e5b43"/>
  <path d="m16.563 9.6082v2.8737l0.6975-0.6975v-1.4788z" fill="#9a916c"/>
  <path d="m19.437 9.6082v2.8737l-0.6975-0.6975v-1.4788z" fill="#9a916c"/>
  <rect id="connector3pin" x="24.626" y="8.6707" width="4.7488" height="4.7488" fill="#141414"/>
  <rect id="connector8pin-0" x="25.563" y="9.6082" width="2.8738" height="2.8738" fill="#8c8663"/>
  <rect x="25.563" y="9.6082" width="2.8738" height=".6975" fill="#b8af82"/>
  <rect x="25.563" y="11.784" width="2.8738" height=".6975" fill="#5e5b43"/>
  <path d="m25.563 9.6082v2.8737l0.6975-0.6975v-1.4788z" fill="#9a916c"/>
  <path d="m28.437 9.6082v2.8737l-0.6975-0.6975v-1.4788z" fill="#9a916c"/>
  <rect id="connector5pin" x="33.626" y="8.6707" width="4.7488" height="4.7488" fill="#141414"/>
  <rect id="connector7pin-3" x="34.563" y="9.6082" width="2.8738" height="2.8738" fill="#8c8663"/>
  <rect x="34.563" y="9.6082" width="2.8738" height=".6975" fill="#b8af82"/>
  <rect x="34.563" y="11.784" width="2.8738" height=".6975" fill="#5e5b43"/>
  <path d="m34.563 9.6082v2.8737l0.6975-0.6975v-1.4788z" fill="#9a916c"/>
  <path d="m37.437 9.6082v2.8737l-0.6975-0.6975v-1.4788z" fill="#9a916c"/>
  <rect id="connector0pin" x="15.626" y="17.671" width="4.7488" height="4.7488" fill="#141414"/>
  <rect id="connector0pin-5" x="16.563" y="18.608" width="2.8738" height="2.8738" fill="#8c8663"/>
  <rect x="16.563" y="18.608" width="2.8738" height=".6975" fill="#b8af82"/>
  <rect x="16.563" y="20.784" width="2.8738" height=".6975" fill="#5e5b43"/>
  <path d="m16.563 18.608v2.8738l0.6975-0.6975v-1.4788z" fill="#9a916c"/>
  <path d="m19.437 18.608v2.8738l-0.6975-0.6975v-1.4788z" fill="#9a916c"/>
  <rect id="connector2pin" x="24.626" y="17.671" width="4.7488" height="4.7488" fill="#141414"/>
  <rect id="connector1pin-5" x="25.563" y="18.608" width="2.8738" height="2.8738" fill="#8c8663"/>
  <rect x="25.563" y="18.608" width="2.8738" height=".6975" fill="#b8af82"/>
  <rect x="25.563" y="20.784" width="2.8738" height=".6975" fill="#5e5b43"/>
  <path d="m25.563 18.608v2.8738l0.6975-0.6975v-1.4788z" fill="#9a916c"/>
  <path d="m28.437 18.608v2.8738l-0.6975-0.6975v-1.4788z" fill="#9a916c"/>
  <rect id="connector4pin" x="33.626" y="17.671" width="4.7488" height="4.7488" fill="#141414"/>
  <rect id="connector2pin-9" x="34.563" y="18.608" width="2.8738" height="2.8738" fill="#8c8663"/>
  <rect x="34.563" y="18.608" width="2.8738" height=".6975" fill="#b8af82"/>
  <rect x="34.563" y="20.784" width="2.8738" height=".6975" fill="#5e5b43"/>
  <path d="m34.563 18.608v2.8738l0.6975-0.6975v-1.4788z" fill="#9a916c"/>
  <path d="m37.437 18.608v2.8738l-0.6975-0.6975v-1.4788z" fill="#9a916c"/>
  <rect x="19.44" y="25.278" width="15.129" height="6.1127" fill="#1a1a1a"/>
 </g>
</svg>
