<?xml version="1.0" encoding="UTF-8"?>
<!-- Created with Fritzing (http://www.fritzing.org/) -->
<svg width=".3in" height=".4in" baseProfile="tiny" version="1.2" viewBox="0 0 21.6 28.8" xmlns="http://www.w3.org/2000/svg">
 <desc>
  <referenceFile>ALSPT19315C_breadboard.svg</referenceFile>
 </desc>
 <desc>Fritzing breadboard generated by brd2svg</desc>
 <g id="breadboard">
  <g id="icon">
   <path d="m21.6 7.2v14.4a7.2 7.2 0 0 1-7.2 7.2h-7.2a7.2 7.2 0 0 1-7.2-7.2v-14.4a7.2 7.2 0 0 1 7.2-7.2h7.2a7.2 7.2 0 0 1 7.2 7.2m-19.417 15.84a1.4173 1.4173 0 1 0 2.8346 0 1.4173 1.4173 0 1 0-2.8346 0zm7.2 0a1.4173 1.4173 0 1 0 2.8346 0 1.4173 1.4173 0 1 0-2.8346 0zm7.2 0a1.4173 1.4173 0 1 0 2.8346 0 1.4173 1.4173 0 1 0-2.8346 0zm-8.9008-16.56a3.1181 3.1181 0 1 0 6.2362 0 3.1181 3.1181 0 1 0-6.2362 0z" fill="#014cb1" stroke-width="0"/>
   <g>
    <title>layer 21</title>
    <g>
     <title>text:-</title>
     <text x="3.6" y="20.7504" fill="#ffffff" font-family="OCRA" font-size="3.3408" stroke-width="0" text-anchor="middle">-</text>
    </g>
    <g>
     <title>text:+</title>
     <text x="18.36" y="20.6251" fill="#ffffff" font-family="OCRA" font-size="3.0902" stroke-width="0" text-anchor="middle">+</text>
    </g>
    <g>
     <title>text:out</title>
     <text x="10.8" y="20.3904" fill="#ffffff" font-family="OCRA" font-size="3.3408" stroke-width="0" text-anchor="middle">out</text>
    </g>
    <g>
     <title>text:ALS</title>
     <g transform="translate(4.5504 7.2)">
      <g transform="rotate(270)">
       <text fill="#ffffff" font-family="OCRA" font-size="3.3408" stroke-width="0" text-anchor="middle">ALS</text>
      </g>
     </g>
    </g>
    <g>
     <title>text:PT19</title>
     <g transform="translate(20.182 7.2)">
      <g transform="rotate(270)">
       <text fill="#ffffff" font-family="OCRA" font-size="2.9232" stroke-width="0" text-anchor="middle">PT19</text>
      </g>
     </g>
    </g>
    <g>
     <title>element:FID1</title>
     <g>
      <title>package:FIDUCIAL_1MM</title>
     </g>
    </g>
    <g>
     <title>element:JP2</title>
     <g>
      <title>package:1X03_ROUND</title>
     </g>
    </g>
    <g>
     <title>element:R1</title>
     <g>
      <title>package:0603-NO</title>
     </g>
    </g>
    <g>
     <title>element:U$1</title>
     <g>
      <title>package:ADAFRUIT_2.5MM</title>
     </g>
    </g>
    <g>
     <title>element:U$2</title>
     <g>
      <title>package:MOUNTINGHOLE_2.0_PLATED</title>
      <circle cx="10.8" cy="6.48" r="5.1024" fill="none" stroke="#fff" stroke-width=".576"/>
     </g>
    </g>
    <g>
     <title>element:U$3</title>
     <g>
      <title>package:PCBFEAT-REV-040</title>
     </g>
    </g>
    <g>
     <title>element:U1</title>
     <g>
      <title>package:ALS-PT19-315C</title>
      <line x1="17.813" x2="15.687" y1="17.185" y2="17.185" stroke="#fff" stroke-linecap="round" stroke-width=".36"/>
      <line x1="15.687" x2="15.404" y1="17.185" y2="17.185" stroke="#fff" stroke-linecap="round" stroke-width=".36"/>
      <line x1="15.404" x2="12.427" y1="17.185" y2="17.185" stroke="#fff" stroke-linecap="round" stroke-width=".36"/>
      <line x1="12.427" x2="12.427" y1="17.185" y2="13.775" stroke="#fff" stroke-linecap="round" stroke-width=".36"/>
      <line x1="12.427" x2="15.404" y1="13.775" y2="13.775" stroke="#fff" stroke-linecap="round" stroke-width=".36"/>
      <line x1="15.687" x2="17.813" y1="13.775" y2="13.775" stroke="#fff" stroke-linecap="round" stroke-width=".36"/>
      <line x1="17.813" x2="17.813" y1="13.775" y2="17.185" stroke="#fff" stroke-linecap="round" stroke-width=".36"/>
      <line x1="15.687" x2="15.687" y1="17.185" y2="13.775" stroke="#fff" stroke-linecap="round" stroke-width=".36"/>
      <line x1="15.687" x2="15.404" y1="13.775" y2="13.775" stroke="#fff" stroke-linecap="round" stroke-width=".36"/>
      <line x1="15.404" x2="15.404" y1="13.775" y2="17.185" stroke="#fff" stroke-linecap="round" stroke-width=".36"/>
     </g>
    </g>
   </g>
   <rect id="connector0pin" x="5.7827" y="25.223" width="2.8346" height="2.8346" rx="1.4173" ry="1.4173" fill="#9A916C" stroke-width="0"/>
   <circle id="connector1pin" cx="3.6" cy="23.04" r="1.8967" fill="none" stroke="#9A916C" stroke-width=".95868" connectorname="GND"/>
   <circle id="connector2pin" cx="10.8" cy="23.04" r="1.8967" fill="none" stroke="#9A916C" stroke-width=".95868" connectorname="OUT"/>
   <circle id="connector3pin" cx="18" cy="23.04" r="1.8967" fill="none" stroke="#9A916C" stroke-width=".95868" connectorname="VCC"/>
   <rect id="connector4pin" x="2.1515" y="14.063" width="3.1181" height="2.8346" fill="#9A916C" stroke-width="0"/>
   <rect id="connector5pin" x="6.9704" y="14.063" width="3.1181" height="2.8346" fill="#9A916C" stroke-width="0"/>
   <circle id="connector6pin" cx="10.8" cy="6.48" r="3.8381" fill="none" stroke="#9A916C" stroke-width="1.44" connectorname="P$1"/>
   <g transform="matrix(-1 0 0 -1 34.492 30.96)">
    <rect id="connector7pin" x="16.112" y="14.346" width="2.2677" height="2.2677" fill="#9A916C" stroke-width="0"/>
   </g>
   <g transform="matrix(-1 0 0 -1 25.988 30.96)">
    <rect id="connector8pin" x="11.86" y="14.346" width="2.2677" height="2.2677" fill="#9A916C" stroke-width="0"/>
   </g>
  </g>
  <g transform="translate(3.8525 14.346)">
   <path d="m4.245 2.268h-3.955c-0.16 0-0.29-0.13-0.29-0.291v-1.687c0-0.16 0.13-0.29 0.29-0.29h3.955c0.16 0 0.29 0.13 0.29 0.29v1.687c0 0.161-0.13 0.291-0.29 0.291z" fill="#DCDCDC"/>
   <rect x="1.134" width="2.268" height="2.268" fill="#333"/>
  </g>
  <g transform="translate(12.852 14.346)">
   <g transform="matrix(-1 0 0 -1 4.535 2.268)">
    <path d="m4.252 2.268h-3.969c-0.156 0-0.283-0.127-0.283-0.284v-1.701c0-0.156 0.127-0.283 0.283-0.283h3.969c0.157 0 0.283 0.127 0.283 0.283v1.701c0 0.157-0.126 0.284-0.283 0.284z" fill="#DCDCDC"/>
    <rect x=".567" width="3.402" height="2.268" fill="#fff"/>
    <rect x=".85" y=".283" width="1.701" height="1.701"/>
    <circle cx="1.701" cy="1.134" r=".354" fill="#fff"/>
   </g>
  </g>
 </g>
</svg>
