<?xml version="1.0" encoding="UTF-8"?>
<!-- Generator: Adobe Illustrator 23.0.3, SVG Export Plug-In . SVG Version: 6.00 Build 0)  -->
<svg width="1.4in" height="1.5in" enable-background="new 0 0 100.8 108" version="1.1" viewBox="0 0 100.8 108" xml:space="preserve" xmlns="http://www.w3.org/2000/svg" xmlns:xml="http://www.w3.org/XML/1998/namespace">
    <desc>
        <referenceFile>1.3in SPI rev C_breadboard.svg</referenceFile>
    </desc>
    <desc>Fritzing breadboard generated by brd2svg</desc>
    <g id="breadboard">
        <g id="icon">
            <path d="m14.4 93.6v7.2c0 3.9765-3.2236 7.2-7.2 7.2s-7.2-3.2235-7.2-7.2v-93.6c0-3.9764 3.2235-7.2 7.2-7.2 3.9764 0 7.2 3.2235 7.2 7.2v7.2h72v-7.2c0-3.9764 3.2235-7.2 7.2-7.2 3.9764 0 7.2 3.2235 7.2 7.2v93.6c0 3.9765-3.2235 7.2-7.2 7.2-3.9764 0-7.2-3.2235-7.2-7.2v-7.2h-72m-8.6173-75.6c0 0.7828 0.6346 1.4173 1.4173 1.4173s1.4173-0.6345 1.4173-1.4173-0.6345-1.4173-1.4173-1.4173-1.4173 0.6345-1.4173 1.4173zm0 7.2c0 0.7828 0.6346 1.4173 1.4173 1.4173s1.4173-0.6345 1.4173-1.4173-0.6345-1.4173-1.4173-1.4173-1.4173 0.6345-1.4173 1.4173zm0 7.2c0 0.7828 0.6346 1.4173 1.4173 1.4173s1.4173-0.6345 1.4173-1.4173-0.6346-1.4173-1.4173-1.4173-1.4173 0.6345-1.4173 1.4173zm0 7.2c0 0.7828 0.6346 1.4173 1.4173 1.4173s1.4173-0.6345 1.4173-1.4173-0.6345-1.4173-1.4173-1.4173-1.4173 0.6345-1.4173 1.4173zm0 7.2c0 0.7828 0.6346 1.4173 1.4173 1.4173s1.4173-0.6345 1.4173-1.4173-0.6345-1.4173-1.4173-1.4173-1.4173 0.6345-1.4173 1.4173zm0 7.2c0 0.7828 0.6346 1.4173 1.4173 1.4173s1.4173-0.6345 1.4173-1.4173-0.6345-1.4173-1.4173-1.4173-1.4173 0.6345-1.4173 1.4173zm0 7.2c0 0.7828 0.6346 1.4173 1.4173 1.4173s1.4173-0.6345 1.4173-1.4173-0.6345-1.4173-1.4173-1.4173-1.4173 0.6345-1.4173 1.4173zm0 7.2c0 0.7828 0.6346 1.4173 1.4173 1.4173s1.4173-0.6345 1.4173-1.4173-0.6346-1.4173-1.4173-1.4173-1.4173 0.6345-1.4173 1.4173zm0 7.2c0 0.7828 0.6346 1.4173 1.4173 1.4173s1.4173-0.6345 1.4173-1.4173-0.6346-1.4173-1.4173-1.4173-1.4173 0.6345-1.4173 1.4173zm0 7.2c0 0.7828 0.6346 1.4173 1.4173 1.4173s1.4173-0.6345 1.4173-1.4173-0.6346-1.4173-1.4173-1.4173-1.4173 0.6345-1.4173 1.4173zm0 7.2c0 0.7828 0.6346 1.4173 1.4173 1.4173s1.4173-0.6345 1.4173-1.4173-0.6346-1.4173-1.4173-1.4173-1.4173 0.6345-1.4173 1.4173zm84.274-82.8c-0.0034 1.9569 1.5802 3.5461 3.5371 3.5495s3.5461-1.5802 3.5495-3.5371v-0.0124c0.0034-1.9569-1.5802-3.5461-3.5371-3.5495s-3.5461 1.5802-3.5495 3.5371v0.0124zm0 93.6c-0.0034 1.9569 1.5802 3.5461 3.5371 3.5495s3.5461-1.5802 3.5495-3.5371v-0.0125c0.0034-1.9569-1.5802-3.5461-3.5371-3.5495s-3.5461 1.5802-3.5495 3.5371v0.0125zm-86.4-93.6c-0.0033 1.9569 1.5804 3.546 3.5373 3.5493s3.546-1.5803 3.5493-3.5373v-0.012c0.0033-1.9569-1.5804-3.546-3.5374-3.5493-1.9569-0.0032-3.5459 1.5805-3.5492 3.5374v0.0119zm0 93.6c-0.0033 1.9569 1.5804 3.546 3.5373 3.5493s3.546-1.5804 3.5493-3.5373v-0.012c0.0033-1.9569-1.5804-3.546-3.5374-3.5493-1.9569-0.0033-3.546 1.5804-3.5493 3.5374 1e-4 4e-3 1e-4 0.0079 1e-4 0.0119z"/>
            <g>
                <title>layer 21</title>
                <g>
                    <title>text:Vin</title>
                    <g transform="translate(3.6504 21.6)">
                        
                            
                                <g transform="rotate(270)">
                                    
                                        
                                            <g transform="translate(4e-4 -9.375e-6)">
                                                
                                                    <text fill="#FFFFFF" font-family="'OCRA'" font-size="2.6726">Vin</text>
                                                
                                            </g>
                                        
                                    
                                </g>
                            
                        
                    </g>
                </g>
                <g>
                    <title>text:3v3</title>
                    <g transform="translate(13.55 20.88)">
                        
                            
                                <g transform="rotate(270)">
                                    
                                        
                                            <g transform="translate(-7.246 1.5039e-5)">
                                                
                                                    <text fill="#FFFFFF" font-family="'OCRA'" font-size="2.6726">3v3</text>
                                                
                                            </g>
                                        
                                    
                                </g>
                            
                        
                    </g>
                </g>
                <g>
                    <title>text:Gnd</title>
                    <g transform="translate(3.6504 28.44)">
                        
                            
                                <g transform="rotate(270)">
                                    
                                        
                                            <g transform="translate(-7.2465 -9.375e-6)">
                                                
                                                    <text fill="#FFFFFF" font-family="'OCRA'" font-size="2.6726">Gnd</text>
                                                
                                            </g>
                                        
                                    
                                </g>
                            
                        
                    </g>
                </g>
                <g>
                    <title>text:SCK</title>
                    <g transform="translate(13.55 35.28)">
                        
                            
                                <g transform="rotate(270)">
                                    
                                        
                                            <g transform="translate(-7.2464 1.5039e-5)">
                                                
                                                    <text fill="#FFFFFF" font-family="'OCRA'" font-size="2.6726">SCK</text>
                                                
                                            </g>
                                        
                                    
                                </g>
                            
                        
                    </g>
                </g>
                <g>
                    <title>text:SO</title>
                    <g transform="translate(3.6504 43.92)">
                        
                            
                                <g transform="rotate(270)">
                                    
                                        
                                            <g transform="translate(-4.831 -9.375e-6)">
                                                
                                                    <text fill="#FFFFFF" font-family="'OCRA'" font-size="2.6726">SO</text>
                                                
                                            </g>
                                        
                                    
                                </g>
                            
                        
                    </g>
                </g>
                <g>
                    <title>text:SI</title>
                    <g transform="translate(13.55 51.12)">
                        
                            
                                <g transform="rotate(270)">
                                    
                                        
                                            <g transform="translate(-4.8312 1.5039e-5)">
                                                
                                                    <text fill="#FFFFFF" font-family="'OCRA'" font-size="2.6726">SI</text>
                                                
                                            </g>
                                        
                                    
                                </g>
                            
                        
                    </g>
                </g>
                <g>
                    <title>text:TCS</title>
                    <g transform="translate(3.6504 57.24)">
                        
                            
                                <g transform="rotate(270)">
                                    
                                        
                                            <g transform="translate(-7.2463 -9.375e-6)">
                                                
                                                    <text fill="#FFFFFF" font-family="'OCRA'" font-size="2.6726">TCS</text>
                                                
                                            </g>
                                        
                                    
                                </g>
                            
                        
                    </g>
                </g>
                <g>
                    <title>text:RST</title>
                    <g transform="translate(13.55 63.72)">
                        
                            
                                <g transform="rotate(270)">
                                    
                                        
                                            <g transform="translate(-7.2458 1.5039e-5)">
                                                
                                                    <text fill="#FFFFFF" font-family="'OCRA'" font-size="2.6726">RST</text>
                                                
                                            </g>
                                        
                                    
                                </g>
                            
                        
                    </g>
                </g>
                <g>
                    <title>text:D/C</title>
                    <g transform="translate(4.0104 71.28)">
                        
                            
                                <g transform="rotate(270)">
                                    
                                        
                                            <g transform="translate(-7.2464 -2.4023e-5)">
                                                
                                                    <text fill="#FFFFFF" font-family="'OCRA'" font-size="2.6726">D/C</text>
                                                
                                            </g>
                                        
                                    
                                </g>
                            
                        
                    </g>
                </g>
                <g>
                    <title>text:CCS</title>
                    <g transform="translate(13.55 78.48)">
                        
                            
                                <g transform="rotate(270)">
                                    
                                        
                                            <g transform="translate(-7.2466 1.5039e-5)">
                                                
                                                    <text fill="#FFFFFF" font-family="'OCRA'" font-size="2.6726">CCS</text>
                                                
                                            </g>
                                        
                                    
                                </g>
                            
                        
                    </g>
                </g>
                <g>
                    <title>text:Lite</title>
                    <g transform="translate(3.6504 84.96)">
                        
                            
                                <g transform="rotate(270)">
                                    
                                        
                                            <g transform="translate(-9.6611 -9.375e-6)">
                                                
                                                    <text fill="#FFFFFF" font-family="'OCRA'" font-size="2.6726">Lite</text>
                                                
                                            </g>
                                        
                                    
                                </g>
                            
                        
                    </g>
                </g>
                <g>
                    <title>element:C1</title>
                    <g>
                        <title>package:0805-NO</title>
                    </g>
                </g>
                <g>
                    <title>element:C2</title>
                    <g>
                        <title>package:0805-NO</title>
                    </g>
                </g>
                <g>
                    <title>element:C4</title>
                    <g>
                        <title>package:0603-NO</title>
                    </g>
                </g>
                <g>
                    <title>element:DISPLAY1</title>
                    <g>
                        <title>package:TFT_1.3IN_240X240_24P</title>
                        <line x1="16.109" x2="16.109" y1="91.345" y2="17.077" fill="none" stroke="#fff" stroke-linecap="round" stroke-width=".36"/>
                        <line x1="16.109" x2="98.994" y1="17.077" y2="17.077" fill="none" stroke="#fff" stroke-linecap="round" stroke-width=".36"/>
                        <line x1="98.994" x2="98.994" y1="17.077" y2="91.345" fill="none" stroke="#fff" stroke-linecap="round" stroke-width=".36"/>
                        <line x1="98.994" x2="16.109" y1="91.345" y2="91.345" fill="none" stroke="#fff" stroke-linecap="round" stroke-width=".36"/>
                        <line x1="19.653" x2="19.653" y1="87.376" y2="84.447" fill="none" stroke="#fff" stroke-linecap="round" stroke-width=".36"/>
                        <line x1="19.653" x2="19.653" y1="81.613" y2="78.684" fill="none" stroke="#fff" stroke-linecap="round" stroke-width=".36"/>
                        <line x1="19.653" x2="19.653" y1="75.849" y2="72.92" fill="none" stroke="#fff" stroke-linecap="round" stroke-width=".36"/>
                        <line x1="19.653" x2="19.653" y1="70.085" y2="67.156" fill="none" stroke="#fff" stroke-linecap="round" stroke-width=".36"/>
                        <line x1="19.653" x2="19.653" y1="64.321" y2="61.392" fill="none" stroke="#fff" stroke-linecap="round" stroke-width=".36"/>
                        <line x1="19.653" x2="19.653" y1="58.558" y2="55.628" fill="none" stroke="#fff" stroke-linecap="round" stroke-width=".36"/>
                        <line x1="19.653" x2="19.653" y1="52.794" y2="49.865" fill="none" stroke="#fff" stroke-linecap="round" stroke-width=".36"/>
                        <line x1="19.653" x2="19.653" y1="47.03" y2="44.101" fill="none" stroke="#fff" stroke-linecap="round" stroke-width=".36"/>
                        <line x1="19.653" x2="19.653" y1="41.266" y2="38.337" fill="none" stroke="#fff" stroke-linecap="round" stroke-width=".36"/>
                        <line x1="19.653" x2="19.653" y1="35.503" y2="32.573" fill="none" stroke="#fff" stroke-linecap="round" stroke-width=".36"/>
                        <line x1="19.653" x2="19.653" y1="29.739" y2="26.81" fill="none" stroke="#fff" stroke-linecap="round" stroke-width=".36"/>
                        <line x1="19.653" x2="19.653" y1="23.975" y2="21.046" fill="none" stroke="#fff" stroke-linecap="round" stroke-width=".36"/>
                        <line x1="19.653" x2="22.582" y1="21.046" y2="21.046" fill="none" stroke="#fff" stroke-linecap="round" stroke-width=".36"/>
                        <line x1="25.416" x2="28.346" y1="21.046" y2="21.046" fill="none" stroke="#fff" stroke-linecap="round" stroke-width=".36"/>
                        <line x1="31.18" x2="34.109" y1="21.046" y2="21.046" fill="none" stroke="#fff" stroke-linecap="round" stroke-width=".36"/>
                        <line x1="36.944" x2="39.873" y1="21.046" y2="21.046" fill="none" stroke="#fff" stroke-linecap="round" stroke-width=".36"/>
                        <line x1="42.708" x2="45.637" y1="21.046" y2="21.046" fill="none" stroke="#fff" stroke-linecap="round" stroke-width=".36"/>
                        <line x1="48.472" x2="51.401" y1="21.046" y2="21.046" fill="none" stroke="#fff" stroke-linecap="round" stroke-width=".36"/>
                        <line x1="54.235" x2="57.164" y1="21.046" y2="21.046" fill="none" stroke="#fff" stroke-linecap="round" stroke-width=".36"/>
                        <line x1="59.999" x2="62.928" y1="21.046" y2="21.046" fill="none" stroke="#fff" stroke-linecap="round" stroke-width=".36"/>
                        <line x1="65.763" x2="68.692" y1="21.046" y2="21.046" fill="none" stroke="#fff" stroke-linecap="round" stroke-width=".36"/>
                        <line x1="71.527" x2="74.456" y1="21.046" y2="21.046" fill="none" stroke="#fff" stroke-linecap="round" stroke-width=".36"/>
                        <line x1="77.291" x2="80.22" y1="21.046" y2="21.046" fill="none" stroke="#fff" stroke-linecap="round" stroke-width=".36"/>
                        <line x1="83.054" x2="85.983" y1="21.046" y2="21.046" fill="none" stroke="#fff" stroke-linecap="round" stroke-width=".36"/>
                        <line x1="85.983" x2="85.983" y1="21.046" y2="23.975" fill="none" stroke="#fff" stroke-linecap="round" stroke-width=".36"/>
                        <line x1="85.983" x2="85.983" y1="26.81" y2="29.739" fill="none" stroke="#fff" stroke-linecap="round" stroke-width=".36"/>
                        <line x1="85.983" x2="85.983" y1="32.573" y2="35.503" fill="none" stroke="#fff" stroke-linecap="round" stroke-width=".36"/>
                        <line x1="85.983" x2="85.983" y1="38.337" y2="41.266" fill="none" stroke="#fff" stroke-linecap="round" stroke-width=".36"/>
                        <line x1="85.983" x2="85.983" y1="44.101" y2="47.03" fill="none" stroke="#fff" stroke-linecap="round" stroke-width=".36"/>
                        <line x1="85.983" x2="85.983" y1="49.865" y2="52.794" fill="none" stroke="#fff" stroke-linecap="round" stroke-width=".36"/>
                        <line x1="85.983" x2="85.983" y1="55.628" y2="58.558" fill="none" stroke="#fff" stroke-linecap="round" stroke-width=".36"/>
                        <line x1="85.983" x2="85.983" y1="61.392" y2="64.321" fill="none" stroke="#fff" stroke-linecap="round" stroke-width=".36"/>
                        <line x1="85.983" x2="85.983" y1="67.156" y2="70.085" fill="none" stroke="#fff" stroke-linecap="round" stroke-width=".36"/>
                        <line x1="85.983" x2="85.983" y1="72.92" y2="75.849" fill="none" stroke="#fff" stroke-linecap="round" stroke-width=".36"/>
                        <line x1="85.983" x2="85.983" y1="78.684" y2="81.613" fill="none" stroke="#fff" stroke-linecap="round" stroke-width=".36"/>
                        <line x1="85.983" x2="85.983" y1="84.447" y2="87.376" fill="none" stroke="#fff" stroke-linecap="round" stroke-width=".36"/>
                        <line x1="85.983" x2="83.054" y1="87.376" y2="87.376" fill="none" stroke="#fff" stroke-linecap="round" stroke-width=".36"/>
                        <line x1="80.22" x2="77.291" y1="87.376" y2="87.376" fill="none" stroke="#fff" stroke-linecap="round" stroke-width=".36"/>
                        <line x1="74.456" x2="71.527" y1="87.376" y2="87.376" fill="none" stroke="#fff" stroke-linecap="round" stroke-width=".36"/>
                        <line x1="68.692" x2="65.763" y1="87.376" y2="87.376" fill="none" stroke="#fff" stroke-linecap="round" stroke-width=".36"/>
                        <line x1="62.928" x2="59.999" y1="87.376" y2="87.376" fill="none" stroke="#fff" stroke-linecap="round" stroke-width=".36"/>
                        <line x1="57.164" x2="54.235" y1="87.376" y2="87.376" fill="none" stroke="#fff" stroke-linecap="round" stroke-width=".36"/>
                        <line x1="51.401" x2="48.472" y1="87.376" y2="87.376" fill="none" stroke="#fff" stroke-linecap="round" stroke-width=".36"/>
                        <line x1="45.637" x2="42.708" y1="87.376" y2="87.376" fill="none" stroke="#fff" stroke-linecap="round" stroke-width=".36"/>
                        <line x1="39.873" x2="36.944" y1="87.376" y2="87.376" fill="none" stroke="#fff" stroke-linecap="round" stroke-width=".36"/>
                        <line x1="34.109" x2="31.18" y1="87.376" y2="87.376" fill="none" stroke="#fff" stroke-linecap="round" stroke-width=".36"/>
                        <line x1="28.346" x2="25.416" y1="87.376" y2="87.376" fill="none" stroke="#fff" stroke-linecap="round" stroke-width=".36"/>
                        <line x1="22.582" x2="19.653" y1="87.376" y2="87.376" fill="none" stroke="#fff" stroke-linecap="round" stroke-width=".36"/>
                    </g>
                </g>
                <g>
                    <title>element:IC2</title>
                    <g>
                        <title>package:SOT23-5L</title>
                    </g>
                </g>
                <g>
                    <title>element:IC4</title>
                    <g>
                        <title>package:SOT23</title>
                    </g>
                </g>
                <g>
                    <title>element:JP1</title>
                    <g>
                        <title>package:1X11_ROUND_76</title>
                    </g>
                </g>
                <g>
                    <title>element:Q2</title>
                    <g>
                        <title>package:MICROSD</title>
                    </g>
                </g>
                <g>
                    <title>element:Q3</title>
                    <g>
                        <title>package:SOT23-WIDE</title>
                    </g>
                </g>
                <g>
                    <title>element:R1</title>
                    <g>
                        <title>package:0603-NO</title>
                    </g>
                </g>
                <g>
                    <title>element:R2</title>
                    <g>
                        <title>package:0603-NO</title>
                    </g>
                </g>
                <g>
                    <title>element:R3</title>
                    <g>
                        <title>package:0603-NO</title>
                    </g>
                </g>
                <g>
                    <title>element:R4</title>
                    <g>
                        <title>package:0603-NO</title>
                    </g>
                </g>
                <g>
                    <title>element:R5</title>
                    <g>
                        <title>package:0603-NO</title>
                    </g>
                </g>
                <g>
                    <title>element:TP1</title>
                    <g>
                        <title>package:TESTPOINT_ROUND_1.5MM</title>
                    </g>
                </g>
                <g>
                    <title>element:U$2</title>
                    <g>
                        <title>package:PCBFEAT-REV-040</title>
                    </g>
                </g>
                <g>
                    <title>element:U$3</title>
                    <g>
                        <title>package:FIDUCIAL_1MM</title>
                    </g>
                </g>
                <g>
                    <title>element:U$4</title>
                    <g>
                        <title>package:FIDUCIAL_1MM</title>
                    </g>
                </g>
                <g>
                    <title>element:U$5</title>
                    <g>
                        <title>package:FIDUCIAL_1MM</title>
                    </g>
                </g>
                <g>
                    <title>element:U$7</title>
                    <g>
                        <title>package:MOUNTINGHOLE_2.5_PLATED</title>
                    </g>
                </g>
                <g>
                    <title>element:U$8</title>
                    <g>
                        <title>package:MOUNTINGHOLE_2.5_PLATED</title>
                    </g>
                </g>
                <g>
                    <title>element:U$9</title>
                    <g>
                        <title>package:MOUNTINGHOLE_2.5_PLATED</title>
                    </g>
                </g>
                <g>
                    <title>element:U$10</title>
                    <g>
                        <title>package:MOUNTINGHOLE_2.5_PLATED</title>
                    </g>
                </g>
                <g>
                    <title>element:U1</title>
                    <g>
                        <title>package:TSSOP16</title>
                    </g>
                </g>
            </g>
            <circle id="connector5pin" cx="7.2" cy="18" r="2.0767" fill="none" stroke="#9A916C" stroke-width="1.3187"/>
            <circle id="connector6pin" cx="7.2" cy="25.2" r="2.0767" fill="none" stroke="#9A916C" stroke-width="1.3187"/>
            <circle id="connector7pin" cx="7.2" cy="32.4" r="2.0767" fill="none" stroke="#9A916C" stroke-width="1.3187"/>
            <circle id="connector8pin" cx="7.2" cy="39.6" r="2.0767" fill="none" stroke="#9A916C" stroke-width="1.3187"/>
            <circle id="connector9pin" cx="7.2" cy="46.8" r="2.0767" fill="none" stroke="#9A916C" stroke-width="1.3187"/>
            <circle id="connector10pin" cx="7.2" cy="54" r="2.0767" fill="none" stroke="#9A916C" stroke-width="1.3187"/>
            <circle id="connector11pin" cx="7.2" cy="61.2" r="2.0767" fill="none" stroke="#9A916C" stroke-width="1.3187"/>
            <circle id="connector12pin" cx="7.2" cy="68.4" r="2.0767" fill="none" stroke="#9A916C" stroke-width="1.3187"/>
            <circle id="connector13pin" cx="7.2" cy="75.6" r="2.0767" fill="none" stroke="#9A916C" stroke-width="1.3187"/>
            <circle id="connector14pin" cx="7.2" cy="82.8" r="2.0767" fill="none" stroke="#9A916C" stroke-width="1.3187"/>
            <circle id="connector15pin" cx="7.2" cy="90" r="2.0767" fill="none" stroke="#9A916C" stroke-width="1.3187"/>
            <circle id="connector16pin" cx="93.6" cy="7.2" r="4.2633" fill="none" stroke="#9A916C" stroke-width="1.44"/>
            <circle id="connector17pin" cx="93.6" cy="100.8" r="4.2633" fill="none" stroke="#9A916C" stroke-width="1.44"/>
            <circle id="connector18pin" cx="7.2" cy="7.2" r="4.2633" fill="none" stroke="#9A916C" stroke-width="1.44"/>
            <circle id="connector19pin" cx="7.2" cy="100.8" r="4.2633" fill="none" stroke="#9A916C" stroke-width="1.44"/>
        </g>
    </g>
    
        <g transform="matrix(-1.3468e-10 1 -1 -1.3468e-10 110.38 -2.3754)">
            
                <rect x="19.32" y="14.591" width="74.112" height="78.817" fill="#DCDCDC"/>
            
        </g>
        <g transform="matrix(-1.3919e-10 1 -1 -1.3919e-10 109.22 -1.215)">
            
                <rect x="19.453" y="17.046" width="71.524" height="73.908" fill="#0C0C0C"/>
            
        </g>
        <g transform="matrix(-1.3919e-10 1 -1 -1.3919e-10 149.2 -41.204)">
            
                <rect x="59.442" y="50.835" width="71.524" height="6.3298" fill="#1C1C1C"/>
            
        </g>
        <g transform="matrix(-4.7976e-11 1 -1 -4.7976e-11 150.46 -39.95)">
            
                <rect x="73.441" y="54.162" width="43.526" height="2.1838" fill="#2B2B2B"/>
            
        </g>
        <rect x="98.369" y="32.119" width="2.4312" height="47.055" fill="#2B2B2B"/>
        <rect x="98.369" y="25.061" width="2.4312" height="4.7055" fill="#2B2B2B"/>
        <g transform="matrix(1 -.0048 .0048 1 28.795 51.068)">
            
                <g enable-background="new    " fill="#FFFFFF" font-family="Noto Sans" font-size="7.968">
                    <text>1.3" IPS TFT</text>
                    <text x="7.2197" y="11.9521">240x240</text>
                </g>
            
        </g>
    
</svg>
