<?xml version="1.0" encoding="UTF-8"?>
<!-- Generator: Adobe Illustrator 26.2.1, SVG Export Plug-In . SVG Version: 6.00 Build 0)  -->
<svg width="1.0798in" height=".7in" enable-background="new 0 0 77.7462 50.4" version="1.1" viewBox="0 0 77.746 50.4" xml:space="preserve" xmlns="http://www.w3.org/2000/svg" xmlns:xml="http://www.w3.org/XML/1998/namespace">
    <desc>
        <referenceFile>ADS1115 ADC rev C_breadboard.svg</referenceFile>
    </desc>
    <desc>Fritzing breadboard generated by brd2svg</desc>
    <g id="breadboard">
        <g id="icon">
            <path d="m2.8518 7.2c0-3.9765 3.2235-7.2 7.2-7.2h57.6c3.9764 0 7.2 3.2236 7.2 7.2v36c0 3.9764-3.2235 7.2-7.2 7.2h-57.6c-3.9764 0-7.2-3.2235-7.2-7.2v-36m16.583 0c0 0.7828 0.6346 1.4173 1.4173 1.4173 0.7828 0 1.4173-0.6346 1.4173-1.4173s-0.6346-1.4173-1.4173-1.4173c-0.7828 0-1.4173 0.6345-1.4173 1.4173zm7.2 0c0 0.7828 0.6346 1.4173 1.4173 1.4173 0.7828 0 1.4173-0.6346 1.4173-1.4173s-0.6346-1.4173-1.4173-1.4173c-0.7828 0-1.4173 0.6345-1.4173 1.4173zm7.2 0c0 0.7828 0.6346 1.4173 1.4173 1.4173s1.4173-0.6345 1.4173-1.4173-0.6346-1.4173-1.4173-1.4173c-0.7828 0-1.4173 0.6345-1.4173 1.4173zm7.2 0c0 0.7828 0.6346 1.4173 1.4173 1.4173s1.4173-0.6345 1.4173-1.4173-0.6346-1.4173-1.4173-1.4173-1.4173 0.6345-1.4173 1.4173zm7.2 0c0 0.7828 0.6346 1.4173 1.4173 1.4173 0.7828 0 1.4173-0.6346 1.4173-1.4173 0-0.7828-0.6346-1.4173-1.4173-1.4173s-1.4173 0.6345-1.4173 1.4173zm7.2 0c0 0.7828 0.6346 1.4173 1.4173 1.4173 0.7828 0 1.4173-0.6346 1.4173-1.4173 0-0.7828-0.6346-1.4173-1.4173-1.4173s-1.4173 0.6345-1.4173 1.4173zm-36 36c0 0.7828 0.6346 1.4173 1.4173 1.4173 0.7828 0 1.4173-0.6346 1.4173-1.4173s-0.6346-1.4173-1.4173-1.4173c-0.7828 0-1.4173 0.6345-1.4173 1.4173zm7.2 0c0 0.7828 0.6346 1.4173 1.4173 1.4173 0.7828 0 1.4173-0.6346 1.4173-1.4173s-0.6346-1.4173-1.4173-1.4173c-0.7828 0-1.4173 0.6345-1.4173 1.4173zm7.2 0c0 0.7828 0.6346 1.4173 1.4173 1.4173s1.4173-0.6346 1.4173-1.4173-0.6346-1.4173-1.4173-1.4173c-0.7828 0-1.4173 0.6345-1.4173 1.4173zm7.2 0c0 0.7828 0.6346 1.4173 1.4173 1.4173s1.4173-0.6346 1.4173-1.4173-0.6346-1.4173-1.4173-1.4173-1.4173 0.6345-1.4173 1.4173zm7.2 0c0 0.7828 0.6346 1.4173 1.4173 1.4173 0.7828 0 1.4173-0.6346 1.4173-1.4173s-0.6346-1.4173-1.4173-1.4173-1.4173 0.6345-1.4173 1.4173zm7.2 0c0 0.7828 0.6346 1.4173 1.4173 1.4173 0.7828 0 1.4173-0.6346 1.4173-1.4173s-0.6346-1.4173-1.4173-1.4173-1.4173 0.6345-1.4173 1.4173zm-48.926-36c-0.0033 1.9569 1.5804 3.546 3.5373 3.5493s3.546-1.5804 3.5493-3.5373v-0.012c0.0033-1.9569-1.5804-3.546-3.5374-3.5493-1.9569-0.0033-3.546 1.5804-3.5493 3.5374 1e-4 4e-3 1e-4 0.0079 1e-4 0.0119zm57.6 0c-0.0034 1.9569 1.5802 3.5461 3.5371 3.5495s3.5461-1.5802 3.5495-3.5371v-0.0124c0.0034-1.9569-1.5802-3.5461-3.5371-3.5495s-3.5461 1.5802-3.5495 3.5371v0.0124zm-57.6 36c-0.0033 1.9569 1.5804 3.546 3.5373 3.5493s3.546-1.5804 3.5493-3.5373v-0.012c0.0033-1.9569-1.5804-3.546-3.5374-3.5493s-3.546 1.5804-3.5493 3.5374c1e-4 4e-3 1e-4 0.0079 1e-4 0.0119zm57.6 0c-0.0034 1.9569 1.5802 3.5461 3.5371 3.5495s3.5461-1.5802 3.5495-3.5371v-0.0125c0.0034-1.9569-1.5802-3.5461-3.5371-3.5495s-3.5461 1.5802-3.5495 3.5371v0.0125z"/>
            
                
                    <g transform="translate(17.269 49.55)">
                        <text fill="#FFFFFF" font-family="'OCRA'" font-size="2.6726">VIN</text>
                    </g>
                
                
                    <g transform="translate(45.234 49.55)">
                        <text fill="#FFFFFF" font-family="'OCRA'" font-size="2.6726">ADDR</text>
                    </g>
                
                
                    <g transform="translate(24.829 40.19)">
                        <text fill="#FFFFFF" font-family="'OCRA'" font-size="2.6726">GND</text>
                    </g>
                
                
                    <g transform="translate(32.029 49.55)">
                        <text fill="#FFFFFF" font-family="'OCRA'" font-size="2.6726">SCL</text>
                    </g>
                
                
                    <g transform="translate(39.229 40.19)">
                        <text fill="#FFFFFF" font-family="'OCRA'" font-size="2.6726">SDA</text>
                    </g>
                
                
                    <g transform="translate(52.794 40.19)">
                        <text fill="#FFFFFF" font-family="'OCRA'" font-size="2.6726">ALRT</text>
                    </g>
                
                
                    <g transform="translate(32.129 15.022)">
                        <text fill="#FFFFFF" font-family="'OCRA'" font-size="3.8754">ADS1115</text>
                    </g>
                
                
                    <g transform="translate(32.128 18.95)">
                        <text fill="#FFFFFF" font-family="'OCRA'" font-size="2.6726">16-bit ADC</text>
                    </g>
                
                
                    <g transform="translate(3.9318 15.12)">
                        <text fill="#FFFFFF" font-family="'OCRA'" font-size="2.6726">on</text>
                    </g>
                
                
                    <g transform="translate(18.103 4.1904)">
                        <text fill="#FFFFFF" font-family="'OCRA'" font-size="2.6726">A+</text>
                    </g>
                
                
                    <g transform="translate(25.663 4.1904)">
                        <text fill="#FFFFFF" font-family="'OCRA'" font-size="2.6726">A3</text>
                    </g>
                
                
                    <g transform="translate(33.223 4.1904)">
                        <text fill="#FFFFFF" font-family="'OCRA'" font-size="2.6726">A2</text>
                    </g>
                
                
                    <g transform="translate(40.063 4.1904)">
                        <text fill="#FFFFFF" font-family="'OCRA'" font-size="2.6726">A1</text>
                    </g>
                
                
                    <g transform="translate(47.623 4.1904)">
                        <text fill="#FFFFFF" font-family="'OCRA'" font-size="2.6726">A0</text>
                    </g>
                
                
                    <g transform="translate(54.823 4.1904)">
                        <text fill="#FFFFFF" font-family="'OCRA'" font-size="2.6726">A-</text>
                    </g>
                
                
                    
                        <line x1="25.892" x2="25.892" y1="15.12" y2="18" fill="none" stroke="#fff" stroke-linecap="round" stroke-width=".864"/>
                    
                
                
                    
                        <line x1="26.252" x2="26.252" y1="32.76" y2="35.64" fill="none" stroke="#fff" stroke-linecap="round" stroke-width=".864"/>
                    
                
                
                    
                        <line x1="25.892" x2="25.892" y1="23.094" y2="20.826" fill="none" stroke="#fff" stroke-linecap="round" stroke-width=".864"/>
                    
                
                
                    <g fill="none" stroke="#fff" stroke-linecap="round" stroke-width=".432">
                        <line x1="68.386" x2="61.016" y1="33.704" y2="33.704"/>
                        <line x1="61.016" x2="61.016" y1="33.704" y2="30.586"/>
                        <line x1="61.016" x2="61.016" y1="19.814" y2="16.413"/>
                        <line x1="61.016" x2="68.386" y1="16.413" y2="16.413"/>
                        <line x1="73.205" x2="73.205" y1="31.153" y2="19.247"/>
                    </g>
                
                
                    <g fill="none" stroke="#fff" stroke-linecap="round" stroke-width=".432">
                        <line x1="9.3176" x2="16.688" y1="16.696" y2="16.696"/>
                        <line x1="16.688" x2="16.688" y1="16.696" y2="19.814"/>
                        <line x1="16.688" x2="16.688" y1="30.586" y2="33.987"/>
                        <line x1="16.688" x2="9.3176" y1="33.987" y2="33.987"/>
                        <line x1="4.4987" x2="4.4987" y1="19.247" y2="31.153"/>
                    </g>
                
                
                    
                        
                            <path d="m12.536 14.76 0.9-0.72v1.44l-0.9-0.72" fill="none" stroke="#fff" stroke-linecap="round" stroke-width=".432"/>
                        
                        <g transform="matrix(0 -1 1 0 9.504 14.76)">
                            
                                <g transform="matrix(-2.5352e-6 -1 1 -2.5352e-6 -2.8518 2.8518)">
                                    <rect x="-.18" y="1.7718" width=".36" height="2.16" fill="#fff"/>
                                </g>
                            
                        </g>
                    
                
                
                    
                        <line x1="25.532" x2="25.532" y1="25.326" y2="27.594" fill="none" stroke="#fff" stroke-linecap="round" stroke-width=".864"/>
                    
                
                
                    
                        <line x1="52.712" x2="52.712" y1="24.534" y2="22.266" fill="none" stroke="#fff" stroke-linecap="round" stroke-width=".864"/>
                    
                
                
                    <g fill="none" stroke="#fff" stroke-linecap="round" stroke-width=".576">
                        <line x1="33.466" x2="33.466" y1="36.188" y2="28.252"/>
                        <line x1="44.238" x2="44.238" y1="28.252" y2="36.188"/>
                    </g>
                
                
                    
                        <line x1="17.558" x2="19.826" y1="15.48" y2="15.48" fill="none" stroke="#fff" stroke-linecap="round" stroke-width=".864"/>
                    
                
                
                    
                        <circle cx="10.052" cy="7.2" r="5.6693" fill="none" stroke="#fff" stroke-width=".576"/>
                    
                
                
                    
                        <circle cx="67.652" cy="7.2" r="5.6693" fill="none" stroke="#fff" stroke-width=".576"/>
                    
                
                
                    
                        <circle cx="10.052" cy="43.2" r="5.6693" fill="none" stroke="#fff" stroke-width=".576"/>
                    
                
                
                    
                        <circle cx="67.652" cy="43.2" r="5.6693" fill="none" stroke="#fff" stroke-width=".576"/>
                    
                
                
                    <g fill="none" stroke="#fff" stroke-width=".576">
                        <line x1="35.603" x2="35.603" y1="27.368" y2="19.432" stroke-linecap="round"/>
                        <line x1="35.603" x2="43.54" y1="19.432" y2="19.432" stroke-linecap="round"/>
                        <line x1="43.54" x2="43.54" y1="19.432" y2="27.368" stroke-linecap="round"/>
                        <line x1="43.54" x2="35.603" y1="27.368" y2="27.368" stroke-linecap="round"/>
                        <path d="m40.989 25.668c0 0.4697 0.3807 0.8504 0.8504 0.8504s0.8504-0.3807 0.8504-0.8504"/>
                        <line x1="40.989" x2="42.69" y1="25.668" y2="25.668" stroke-linecap="round"/>
                    </g>
                
            
            <rect id="connector5pin" x="21.441" y="14.434" width="3.515" height="4.252" fill="#9A916C"/>
            <rect id="connector6pin" x="26.827" y="14.434" width="3.515" height="4.252" fill="#9A916C"/>
            <rect id="connector7pin" x="21.801" y="32.074" width="3.515" height="4.252" fill="#9A916C"/>
            <rect id="connector8pin" x="27.187" y="32.074" width="3.515" height="4.252" fill="#9A916C"/>
            <g transform="matrix(-1 0 0 -1 50.899 43.92)">
                
                    <rect id="connector9pin" x="21.074" y="20.543" width="3.0472" height="2.8347" fill="#9A916C"/>
                
            </g>
            <g transform="matrix(-1 0 0 -1 41.261 43.92)">
                
                    <rect id="connector10pin" x="16.255" y="20.543" width="3.0472" height="2.8347" fill="#9A916C"/>
                
            </g>
            <g transform="matrix(-1 0 0 -1 114.63 58.904)">
                
                    <rect x="52.265" y="28.602" width="4.3937" height="1.7008" fill="#9A916C"/>
                
            </g>
            <g transform="matrix(-1 0 0 -1 114.63 53.235)">
                
                    <rect x="52.265" y="25.767" width="4.3937" height="1.7008" fill="#9A916C"/>
                
            </g>
            <g transform="matrix(-1 0 0 -1 114.63 47.565)">
                
                    <rect x="52.265" y="22.932" width="4.3937" height="1.7008" fill="#9A916C"/>
                
            </g>
            <g transform="matrix(-1 0 0 -1 114.63 41.896)">
                
                    <rect x="52.265" y="20.098" width="4.3937" height="1.7008" fill="#9A916C"/>
                
            </g>
            <g transform="matrix(-1 0 0 -1 136.74 66.274)">
                
                    <rect id="connector15pin" x="62.966" y="31.436" width="5.1024" height="3.4016" fill="#9A916C"/>
                
            </g>
            <g transform="matrix(-1 0 0 -1 136.74 34.526)">
                
                    <rect id="connector16pin" x="62.966" y="15.562" width="5.1024" height="3.4016" fill="#9A916C"/>
                
            </g>
            <rect x="15.341" y="20.098" width="4.3937" height="1.7008" fill="#9A916C"/>
            <rect x="15.341" y="22.932" width="4.3937" height="1.7008" fill="#9A916C"/>
            <rect x="15.341" y="25.767" width="4.3937" height="1.7008" fill="#9A916C"/>
            <rect x="15.341" y="28.602" width="4.3937" height="1.7008" fill="#9A916C"/>
            <rect id="connector21pin" x="3.9318" y="15.562" width="5.1024" height="3.4016" fill="#9A916C"/>
            <rect id="connector22pin" x="3.9318" y="31.436" width="5.1024" height="3.4016" fill="#9A916C"/>
            <g transform="matrix(0 -1 1 0 -2.554 26.966)">
                
                    <g transform="matrix(-2.5352e-6 -1 1 -2.5352e-6 -5.4057 29.818)">
                        <rect id="connector23pin" x="11.072" y="16.478" width="2.2677" height="2.2677" fill="#9A916C"/>
                    </g>
                
            </g>
            <g transform="matrix(0 -1 1 0 -6.806 22.714)">
                
                    <g transform="matrix(-2.5352e-6 -1 1 -2.5352e-6 -9.6577 25.566)">
                        <rect id="connector24pin" x="6.8202" y="16.478" width="2.2677" height="2.2677" fill="#9A916C"/>
                    </g>
                
            </g>
            <rect id="connector25pin" x="21.599" y="25.043" width="3.0472" height="2.8347" fill="#9A916C"/>
            <rect id="connector26pin" x="26.418" y="25.043" width="3.0472" height="2.8347" fill="#9A916C"/>
            <g transform="matrix(-1 0 0 -1 104.54 46.8)">
                
                    <rect id="connector27pin" x="47.894" y="21.983" width="3.0472" height="2.8347" fill="#9A916C"/>
                
            </g>
            <g transform="matrix(-1 0 0 -1 94.901 46.8)">
                
                    <rect id="connector28pin" x="43.075" y="21.983" width="3.0472" height="2.8347" fill="#9A916C"/>
                
            </g>
            <path id="connector29pin" d="m17.252 35.303c0.7828 0 1.4173 0.6346 1.4173 1.4173 0 0.7828-0.6346 1.4173-1.4173 1.4173-0.7828 0-1.4173-0.6346-1.4173-1.4173s0.6345-1.4173 1.4173-1.4173z" fill="#9A916C"/>
            <path id="connector30pin" d="m60.452 12.263c0.7828 0 1.4173 0.6346 1.4173 1.4173 0 0.7828-0.6346 1.4173-1.4173 1.4173-0.7828 0-1.4173-0.6346-1.4173-1.4173s0.6345-1.4173 1.4173-1.4173z" fill="#9A916C"/>
            <circle id="connector31pin" cx="20.852" cy="7.2" r="1.9687" fill="none" stroke="#9A916C" stroke-width="1.1027"/>
            <circle id="connector32pin" cx="28.052" cy="7.2" r="1.9687" fill="none" stroke="#9A916C" stroke-width="1.1027"/>
            <circle id="connector33pin" cx="35.252" cy="7.2" r="1.9687" fill="none" stroke="#9A916C" stroke-width="1.1027"/>
            <circle id="connector34pin" cx="42.452" cy="7.2" r="1.9687" fill="none" stroke="#9A916C" stroke-width="1.1027"/>
            <circle id="connector35pin" cx="49.652" cy="7.2" r="1.9687" fill="none" stroke="#9A916C" stroke-width="1.1027"/>
            <circle id="connector36pin" cx="56.852" cy="7.2" r="1.9687" fill="none" stroke="#9A916C" stroke-width="1.1027"/>
            <circle id="connector37pin" cx="20.852" cy="43.2" r="1.9687" fill="none" stroke="#9A916C" stroke-width="1.1027"/>
            <circle id="connector38pin" cx="28.052" cy="43.2" r="1.9687" fill="none" stroke="#9A916C" stroke-width="1.1027"/>
            <circle id="connector39pin" cx="35.252" cy="43.2" r="1.9687" fill="none" stroke="#9A916C" stroke-width="1.1027"/>
            <circle id="connector40pin" cx="42.452" cy="43.2" r="1.9687" fill="none" stroke="#9A916C" stroke-width="1.1027"/>
            <circle id="connector41pin" cx="49.652" cy="43.2" r="1.9687" fill="none" stroke="#9A916C" stroke-width="1.1027"/>
            <circle id="connector42pin" cx="56.852" cy="43.2" r="1.9687" fill="none" stroke="#9A916C" stroke-width="1.1027"/>
            <g transform="matrix(-1 0 0 -1 79.37 59.621)">
                
                    <rect id="connector43pin" x="36.196" y="28.535" width="1.2756" height="2.5512" fill="#9A916C"/>
                
            </g>
            <g transform="matrix(-1 0 0 -1 74.268 59.621)">
                
                    <rect id="connector44pin" x="33.644" y="28.535" width="1.2756" height="2.5512" fill="#9A916C"/>
                
            </g>
            <g transform="matrix(-1 0 0 -1 69.732 59.621)">
                
                    <rect id="connector45pin" x="31.377" y="28.535" width="1.2756" height="2.5512" fill="#9A916C"/>
                
            </g>
            <g transform="matrix(-1 0 0 -1 64.63 59.621)">
                
                    <rect id="connector46pin" x="28.825" y="28.535" width="1.2756" height="2.5512" fill="#9A916C"/>
                
            </g>
            <g transform="matrix(-1 0 0 -1 64.63 69.259)">
                
                    <rect id="connector47pin" x="28.825" y="33.354" width="1.2756" height="2.5512" fill="#9A916C"/>
                
            </g>
            <g transform="matrix(-1 0 0 -1 69.732 69.259)">
                
                    <rect id="connector48pin" x="31.377" y="33.354" width="1.2756" height="2.5512" fill="#9A916C"/>
                
            </g>
            <g transform="matrix(-1 0 0 -1 74.268 69.259)">
                
                    <rect id="connector49pin" x="33.644" y="33.354" width="1.2756" height="2.5512" fill="#9A916C"/>
                
            </g>
            <g transform="matrix(-1 0 0 -1 79.37 69.259)">
                
                    <rect id="connector50pin" x="36.196" y="33.354" width="1.2756" height="2.5512" fill="#9A916C"/>
                
            </g>
            <g transform="matrix(0 -1 1 0 -2.0494 33.73)">
                
                    <g transform="matrix(-2.5352e-6 -1 1 -2.5352e-6 -4.9012 36.581)">
                        <rect id="connector51pin" x="14.423" y="19.218" width="2.8347" height="3.0472" fill="#9A916C"/>
                    </g>
                
            </g>
            <g transform="matrix(0 -1 1 0 2.7694 28.91)">
                
                    <g transform="matrix(-2.5352e-6 -1 1 -2.5352e-6 -.0822 31.762)">
                        <rect id="connector52pin" x="14.423" y="14.399" width="2.8347" height="3.0472" fill="#9A916C"/>
                    </g>
                
            </g>
            <circle id="connector53pin" cx="10.052" cy="7.2" r="4.2633" fill="none" stroke="#9A916C" stroke-width="1.44"/>
            <circle id="connector54pin" cx="67.652" cy="7.2" r="4.2633" fill="none" stroke="#9A916C" stroke-width="1.44"/>
            <circle id="connector55pin" cx="10.052" cy="43.2" r="4.2633" fill="none" stroke="#9A916C" stroke-width="1.44"/>
            <circle id="connector56pin" cx="67.652" cy="43.2" r="4.2633" fill="none" stroke="#9A916C" stroke-width="1.44"/>
            <g transform="matrix(0 -1 1 0 16.475 68.944)">
                
                    <g transform="matrix(-2.5352e-6 -1 1 -2.5352e-6 13.624 71.796)">
                        <rect id="connector57pin" x="41.293" y="28.732" width="2.8347" height=".7087" fill="#9A916C"/>
                    </g>
                
            </g>
            <g transform="matrix(0 -1 1 0 17.893 67.527)">
                
                    <g transform="matrix(-2.5352e-6 -1 1 -2.5352e-6 15.041 70.379)">
                        <rect id="connector58pin" x="41.293" y="27.315" width="2.8347" height=".7087" fill="#9A916C"/>
                    </g>
                
            </g>
            <g transform="matrix(0 -1 1 0 19.31 66.11)">
                
                    <g transform="matrix(-2.5352e-6 -1 1 -2.5352e-6 16.458 68.962)">
                        <rect id="connector59pin" x="41.293" y="25.898" width="2.8347" height=".7087" fill="#9A916C"/>
                    </g>
                
            </g>
            <g transform="matrix(0 -1 1 0 20.727 64.693)">
                
                    <g transform="matrix(-2.5352e-6 -1 1 -2.5352e-6 17.876 67.544)">
                        <rect id="connector60pin" x="41.293" y="24.48" width="2.8347" height=".7087" fill="#9A916C"/>
                    </g>
                
            </g>
            <g transform="matrix(0 -1 1 0 22.144 63.275)">
                
                    <g transform="matrix(-2.5352e-6 -1 1 -2.5352e-6 19.293 66.127)">
                        <rect id="connector61pin" x="41.293" y="23.063" width="2.8347" height=".7087" fill="#9A916C"/>
                    </g>
                
            </g>
            <g transform="matrix(0 1 -1 0 51.296 -10.165)">
                
                    <g transform="matrix(2.5352e-6 1 -1 2.5352e-6 48.444 -13.017)">
                        <rect id="connector62pin" x="29.313" y="17.359" width="2.8347" height=".7087" fill="#9A916C"/>
                    </g>
                
            </g>
            <g transform="matrix(0 1 -1 0 52.713 -8.7474)">
                
                    <g transform="matrix(2.5352e-6 1 -1 2.5352e-6 49.861 -11.599)">
                        <rect id="connector63pin" x="29.313" y="18.777" width="2.8347" height=".7087" fill="#9A916C"/>
                    </g>
                
            </g>
            <g transform="matrix(0 1 -1 0 54.13 -7.3301)">
                
                    <g transform="matrix(2.5352e-6 1 -1 2.5352e-6 51.278 -10.182)">
                        <rect id="connector64pin" x="29.313" y="20.194" width="2.8347" height=".7087" fill="#9A916C"/>
                    </g>
                
            </g>
            <g transform="matrix(0 1 -1 0 55.547 -5.9128)">
                
                    <g transform="matrix(2.5352e-6 1 -1 2.5352e-6 52.696 -8.7646)">
                        <rect id="connector65pin" x="29.313" y="21.611" width="2.8347" height=".7087" fill="#9A916C"/>
                    </g>
                
            </g>
            <g transform="matrix(0 1 -1 0 56.965 -4.4955)">
                
                    <g transform="matrix(2.5352e-6 1 -1 2.5352e-6 54.113 -7.3473)">
                        <rect id="connector66pin" x="29.313" y="23.028" width="2.8347" height=".7087" fill="#9A916C"/>
                    </g>
                
            </g>
        </g>
        <g transform="translate(20.206 14.788)">
            
                <path d="m8.2378 3.543h-5.103c-0.156 0-0.283-0.127-0.283-0.283v-2.977c0-0.156 0.127-0.283 0.283-0.283h5.102c0.157 0 0.283 0.127 0.283 0.283v2.977c1e-3 0.156-0.126 0.283-0.282 0.283z" fill="#DCDCDC"/>
                <rect x="3.9148" width="3.543" height="3.543" fill="#6E554B"/>
            
        </g>
        <g transform="translate(20.566 32.428)">
            
                <path d="m8.2378 3.543h-5.103c-0.156 0-0.283-0.127-0.283-0.283v-2.977c0-0.156 0.127-0.283 0.283-0.283h5.102c0.157 0 0.283 0.127 0.283 0.283v2.977c1e-3 0.156-0.126 0.283-0.282 0.283z" fill="#DCDCDC"/>
                <rect x="3.9148" width="3.543" height="3.543" fill="#6E554B"/>
            
        </g>
        <g transform="translate(20.772 20.826)">
            
                <g transform="matrix(-1 0 0 -1 4.535 2.268)">
                    
                        <path d="m1.3932 2.268h-3.955c-0.16 0-0.29-0.13-0.29-0.291v-1.687c0-0.16 0.13-0.29 0.29-0.29h3.955c0.16 0 0.29 0.13 0.29 0.29v1.687c0 0.161-0.13 0.291-0.29 0.291z" fill="#DCDCDC"/>
                        <rect x="-1.7178" width="2.268" height="2.268" fill="#6E554B"/>
                    
                </g>
            
        </g>
        <g transform="translate(54.418 18.3)">
            
                <g transform="matrix(0 -1 1 0 1.7 15.5)">
                    
                        <path d="m1.6 5.2518h14.2v1.4h1.4v10h-17v-10h1.4v-1.4z" fill="#666"/>
                        <g transform="matrix(-.0068 -1 1 -.0068 4.2456 24.521)">
                            <rect x="12.1" y="9.4523" width="4.4001" height="1.4"/>
                        </g>
                        <g transform="matrix(-.0068 -1 1 -.0068 -7.2309 13.322)">
                            <rect x=".8002" y="9.5519" width="4.4001" height="1.4"/>
                        </g>
                        <g transform="matrix(-.0068 -1 1 -.0068 7.1956 21.551)">
                            <rect x="13.55" y="6.5021" width="1.5" height="1.4" fill="#333"/>
                        </g>
                        <g transform="matrix(-.0068 -1 1 -.0068 -4.281 10.351)">
                            <rect x="2.2501" y="6.6016" width="1.5" height="1.4" fill="#333"/>
                        </g>
                        <g transform="matrix(-.0068 -1 1 -.0068 8.3362 17.583)">
                            <rect x="11.1" y="4.1517" width="3.6001" height="1" fill="#DCDCDC"/>
                        </g>
                        <g transform="matrix(-.0068 -1 1 -.0068 5.5172 14.783)" fill="#DCDCDC">
                            <rect x="8.2999" y="4.1515" width="3.6001" height="1"/>
                        
                        
                            <rect x="8.2999" y="4.1515" width="3.6001" height="1"/>
                        </g>
                        <g transform="matrix(-.0068 -1 1 -.0068 2.5969 11.883)">
                            <rect x="5.3997" y="4.1519" width="3.6001" height="1" fill="#DCDCDC"/>
                        </g>
                        <g transform="matrix(-.0068 -1 1 -.0068 -.3214 9.184)">
                            <rect x="2.6002" y="4.2516" width="3.6001" height="1" fill="#DCDCDC"/>
                        </g>
                        <path d="m0.2 11.752v-5-0.1h1.4v-0.7-0.7h2.2v0.3 0.7 0.3h0.2 0.5 0.3v-1.3h1.8v0.2 0.7 0.4h1v-0.7-0.6h1.8v0.1 0.1s0 0.3 0 0.5v0.5h1v-1.4h0.9 0.9s0 0.3 0 0.6v0.6h0.3 0.5 0.2v-1.2h2.4v1.4h1.4v1.7 5 3.4h-3.3-8.5-5.3l0.3-4.8zm3.5 0.4v-4.9-0.6l-0.7-0.1h-0.7s0 4.3 0 5.1v0.7h0.7 0.7v-0.2zm11.4 0.2v-5.7-0.1h-0.7-0.7s0 1.9 0 4.6v1.2h0.7 0.7z"/>
                        <path d="m2.3 7.9518v-0.7-0.6h0.1 1 0.4v0.5 0.7 0.2h-0.8l-0.7-0.1z"/>
                        <path d="m13.6 7.7518v-0.7-0.6h0.1 0.7 0.6v0.1 0.7 0.6h-1.4v-0.1z"/>
                        <g transform="matrix(-2.5352e-6 -1 1 -2.5352e-6 -17.052 21.052)">
                            <ellipse id="connector11pin" cx="2" cy="19.052" rx="2" ry="2"/>
                        </g>
                        <g transform="matrix(-2.5352e-6 -1 1 -2.5352e-6 -12.552 25.552)">
                            <ellipse id="connector12pin" cx="6.5" cy="19.052" rx="2" ry="2" fill="#f00"/>
                        </g>
                        <g transform="matrix(-2.5352e-6 -1 1 -2.5352e-6 -7.9518 30.152)">
                            <ellipse id="connector13pin" cx="11.1" cy="19.052" rx="2" ry="2" fill="#00f"/>
                        </g>
                        <g transform="matrix(-2.5352e-6 -1 1 -2.5352e-6 -3.4517 34.652)">
                            <ellipse id="connector14pin" cx="15.6" cy="19.052" rx="2" ry="2" fill="#ff0"/>
                        </g>
                    
                </g>
            
        </g>
        <g transform="translate(.38157 18.3)">
            
                <g transform="matrix(0 1 -1 0 15.5 -1.7)">
                    
                        <path d="m1.6-0.4518h14.2v1.4h1.4v10h-17v-10h1.4v-1.4z" fill="#666"/>
                        <g transform="matrix(.0068 1 -1 .0068 18.652 -9.8816)">
                            <rect x="12.1" y="3.7487" width="4.4001" height="1.4"/>
                        </g>
                        <g transform="matrix(.0068 1 -1 .0068 7.5281 1.5171)">
                            <rect x=".8002" y="3.8483" width="4.4001" height="1.4"/>
                        </g>
                        <g transform="matrix(.0068 1 -1 .0068 15.701 -12.812)">
                            <rect x="13.55" y=".7985" width="1.5" height="1.4" fill="#333"/>
                        </g>
                        <g transform="matrix(.0068 1 -1 .0068 4.5777 -1.4128)">
                            <rect x="2.2501" y=".8981" width="1.5" height="1.4" fill="#333"/>
                        </g>
                        <g transform="matrix(.0068 1 -1 .0068 11.761 -13.944)">
                            <rect x="11.1" y="-1.5518" width="3.6001" height="1" fill="#DCDCDC"/>
                        </g>
                        <g transform="matrix(.0068 1 -1 .0068 8.9791 -11.145)" fill="#DCDCDC">
                            <rect x="8.2999" y="-1.5521" width="3.6001" height="1"/>
                        
                        
                            <rect x="8.2999" y="-1.5521" width="3.6001" height="1"/>
                        </g>
                        <g transform="matrix(.0068 1 -1 .0068 6.0991 -8.2441)">
                            <rect x="5.3997" y="-1.5517" width="3.6001" height="1" fill="#DCDCDC"/>
                        </g>
                        <g transform="matrix(.0068 1 -1 .0068 3.4183 -5.3456)">
                            <rect x="2.6002" y="-1.452" width="3.6001" height="1" fill="#DCDCDC"/>
                        </g>
                        <path d="m0.2 6.0482v-5-0.1h1.4v-0.7-0.7h2.2v0.3 0.7 0.3h0.2 0.5 0.3v-1.3h1.8v0.2 0.7 0.4h1v-0.7-0.6h1.8v0.1 0.1s0 0.3 0 0.5v0.5h1v-1.4h0.9 0.9s0 0.3 0 0.6v0.6h0.3 0.5 0.2v-1.2h2.4v1.4h1.4v1.7 5 3.4h-3.3-8.5-5.3l0.3-4.8zm3.5 0.4v-4.9-0.6l-0.7-0.1h-0.7s0 4.3 0 5.1v0.7h0.7 0.7v-0.2zm11.4 0.2v-5.7-0.1h-0.7-0.7s0 1.9 0 4.6v1.2h0.7 0.7z"/>
                        <path d="m2.3 2.2482v-0.7-0.6h0.1 1 0.4v0.5 0.7 0.2h-0.8l-0.7-0.1z"/>
                        <path d="m13.6 2.0482v-0.7-0.6h0.1 0.7 0.6v0.1 0.7 0.6h-1.4v-0.1z"/>
                        <g transform="matrix(2.5352e-6 1 -1 2.5352e-6 15.348 11.348)">
                            <ellipse id="connector17pin" cx="2" cy="13.348" rx="2" ry="2"/>
                        </g>
                        <g transform="matrix(2.5352e-6 1 -1 2.5352e-6 19.848 6.8482)">
                            <ellipse id="connector18pin" cx="6.5" cy="13.348" rx="2" ry="2" fill="#f00"/>
                        </g>
                        <g transform="matrix(2.5352e-6 1 -1 2.5352e-6 24.448 2.2482)">
                            <ellipse id="connector19pin" cx="11.1" cy="13.348" rx="2" ry="2" fill="#00f"/>
                        </g>
                        <g transform="matrix(2.5352e-6 1 -1 2.5352e-6 28.948 -2.2518)">
                            <ellipse id="connector20pin" cx="15.6" cy="13.348" rx="2" ry="2" fill="#ff0"/>
                        </g>
                    
                </g>
            
        </g>
        <g transform="translate(8.946 12.492)">
            
                <g transform="matrix(0 -1 1 0 -1.1335 3.4015)">
                    
                        <path d="m2.268 3.1418v3.955c0 0.16-0.13 0.29-0.29 0.29h-1.688c-0.16 0-0.29-0.13-0.29-0.29v-3.955c0-0.16 0.13-0.29 0.29-0.29h1.687c0.161 0 0.291 0.13 0.291 0.29z" fill="#DCDCDC"/>
                        <g transform="matrix(-2.5352e-6 -1 1 -2.5352e-6 -3.9853 6.2535)">
                            <rect x="1e-4" y="3.9854" width="2.268" height="2.268" fill="#0f0"/>
                        </g>
                        <circle cx="1.134" cy="5.1198" r=".354" fill="#00B400"/>
                    
                </g>
            
        </g>
        <g transform="translate(31.464 29.952)">
            
                <g transform="matrix(-1 0 0 -1 9.071 4.535)">
                    
                        
                            <rect x="-2.8518" width="1.843" height="4.535" fill="#DCDCDC"/>
                            <rect x="-.1588" width="1.417" height="4.535" fill="#DCDCDC"/>
                            <rect x="2.1092" width="1.417" height="4.535" fill="#DCDCDC"/>
                            <rect x="4.3762" width="1.843" height="4.535" fill="#DCDCDC"/>
                            <rect x="-2.8518" y=".85" width="9.071" height="2.835" fill="#303030"/>
                        
                    
                </g>
            
        </g>
        <g transform="translate(13.572 14.346)">
            
                <g transform="matrix(0 -1 1 0 1.1335 3.4015)">
                    
                        <path d="m4.245 5.1198h-3.955c-0.16 0-0.29-0.13-0.29-0.291v-1.687c0-0.16 0.13-0.29 0.29-0.29h3.955c0.16 0 0.29 0.13 0.29 0.29v1.687c0 0.161-0.13 0.291-0.29 0.291z" fill="#DCDCDC"/>
                        <g transform="matrix(-2.5352e-6 -1 1 -2.5352e-6 -1.7178 6.2538)">
                            <rect x="1.134" y="2.8518" width="2.268" height="2.268" fill="#333"/>
                        </g>
                    
                </g>
            
        </g>
        <g transform="translate(42.248 27.534)">
            
                <path d="m12.625 4.306c-0.032-0.2-0.141-0.257-0.403-0.341-0.199-0.064-1.533-0.489-1.533-0.489s-0.93-0.351-1.619 0.146c-0.093 0.066-0.189 0.143-0.286 0.224 0.082-0.097 0.158-0.193 0.224-0.286 0.495-0.69 0.143-1.619 0.143-1.619s-0.427-1.334-0.492-1.533c-0.085-0.262-0.142-0.37-0.342-0.402s-0.288 0.054-0.449 0.277c-0.122 0.17-0.939 1.307-0.939 1.307s-0.621 0.777-0.361 1.586c0.034 0.109 0.077 0.224 0.125 0.341-0.067-0.108-0.135-0.209-0.203-0.302-0.503-0.684-1.496-0.636-1.496-0.636s-1.4-6e-3 -1.61-6e-3c-0.275-1e-3 -0.396 0.02-0.488 0.201-0.091 0.181-0.037 0.291 0.126 0.513 0.124 0.169 0.953 1.297 0.953 1.297s0.546 0.83 1.395 0.834c0.114 0 0.236-5e-3 0.362-0.014-0.122 0.03-0.24 0.064-0.348 0.1-0.806 0.267-1.067 1.226-1.067 1.226s-0.438 1.33-0.503 1.529c-0.086 0.261-0.103 0.383 0.04 0.526 0.144 0.143 0.265 0.126 0.526 0.04 0.199-0.065 1.528-0.506 1.528-0.506s0.958-0.263 1.224-1.07c0.036-0.108 0.069-0.225 0.1-0.348-9e-3 0.126-0.014 0.248-0.013 0.362 5e-3 0.849 0.836 1.394 0.836 1.394s1.13 0.827 1.298 0.951c0.223 0.162 0.333 0.216 0.514 0.124s0.201-0.213 0.2-0.488c-1e-3 -0.21-9e-3 -1.61-9e-3 -1.61s0.047-0.993-0.639-1.495c-0.092-0.067-0.194-0.135-0.301-0.202 0.117 0.047 0.232 0.09 0.34 0.124 0.81 0.258 1.584-0.364 1.584-0.364s1.136-0.819 1.306-0.941c0.223-0.161 0.309-0.249 0.277-0.45zm-4.822-1.031c0.152 0.024 0.228 0.349 0.169 0.726s-0.231 0.662-0.384 0.638-0.229-0.349-0.169-0.725c0.059-0.377 0.231-0.663 0.384-0.639zm-1.956 0.999c0.07-0.138 0.402-0.11 0.742 0.063s0.558 0.425 0.488 0.563-0.402 0.11-0.742-0.063-0.558-0.425-0.488-0.563zm1.031 1.878c-0.269 0.27-0.577 0.4-0.686 0.291s0.02-0.416 0.29-0.686c0.269-0.27 0.576-0.4 0.686-0.291 0.109 0.109-0.021 0.416-0.29 0.686zm1.484 0.633c-0.138 0.07-0.39-0.148-0.563-0.487-0.174-0.34-0.203-0.673-0.065-0.743s0.39 0.148 0.563 0.487c0.173 0.34 0.202 0.672 0.065 0.743zm0.357-1.573c-0.377 0.06-0.701-0.015-0.726-0.168-0.024-0.153 0.262-0.325 0.638-0.385 0.377-0.06 0.701 0.015 0.726 0.168 0.024 0.153-0.261 0.325-0.638 0.385z" fill="#DCDCDC"/>
            
        </g>
        <g transform="translate(32.612 17.844)">
            
                <g transform="matrix(0 -1 1 0 -1.4481 9.6639)">
                    
                        <g transform="matrix(-2.5352e-6 -1 1 -2.5352e-6 -1.3695 15.446)">
                            <rect x="1.4823" y="8.0678" width="11.112" height=".68" fill="#DCDCDC"/>
                        </g>
                        <g transform="matrix(-2.5352e-6 -1 1 -2.5352e-6 -7.2086 9.607)">
                            <rect x="-4.3568" y="8.0678" width="11.112" height=".68" fill="#DCDCDC"/>
                        </g>
                        <g transform="matrix(-2.5352e-6 -1 1 -2.5352e-6 -5.735 11.081)">
                            <rect x="-2.8832" y="8.0678" width="11.112" height=".68" fill="#DCDCDC"/>
                        </g>
                        <g transform="matrix(-2.5352e-6 -1 1 -2.5352e-6 -4.2606 12.555)">
                            <rect x="-1.4088" y="8.0678" width="11.112" height=".68" fill="#DCDCDC"/>
                        </g>
                        <g transform="matrix(-2.5352e-6 -1 1 -2.5352e-6 -2.787 14.029)">
                            <rect x=".0648" y="8.0678" width="11.112" height=".68" fill="#DCDCDC"/>
                        </g>
                        <path d="M8.2158,5.435v5.896c0,0.2504-0.2032,0.4536-0.4536,0.4536H0.4536C0.2032,11.7846,0,11.5814,0,11.331V5.435c0-0.2504,0.2032-0.4536,0.4536-0.4536h7.3086C8.0126,4.9814,8.2158,5.1846,8.2158,5.435z" fill="#333"/>
                        <circle cx="1.1336" cy="10.65" r=".5672"/>
                    
                </g>
            
        </g>
    </g>
    <path d="m23.554 25.326h3.955c0.16 0 0.29 0.13 0.29 0.291v1.687c0 0.16-0.13 0.29-0.29 0.29h-3.955c-0.16 0-0.29-0.13-0.29-0.29v-1.687c0-0.161 0.13-0.291 0.29-0.291z" fill="#DCDCDC"/>
    <polyline points="26.665 27.594 24.397 27.594 24.397 25.326 26.665 25.326" fill="#303030"/>
    <path d="m50.734 22.266h3.955c0.16 0 0.29 0.13 0.29 0.291v1.687c0 0.16-0.13 0.29-0.29 0.29h-3.955c-0.16 0-0.29-0.13-0.29-0.29v-1.687c0-0.161 0.13-0.291 0.29-0.291z" fill="#DCDCDC"/>
    <polyline points="53.845 24.534 51.577 24.534 51.577 22.266 53.845 22.266" fill="#303030"/>
</svg>
