<?xml version="1.0" encoding="UTF-8"?>
<!-- Created with Fritzing (http://www.fritzing.org/) -->
<svg width="1.2in" height=".85in" version="1.2" viewBox="0 0 86.4 61.2" xmlns="http://www.w3.org/2000/svg">
 <desc>
  <referenceFile>Adafruit Si5351A Clock Generator_breadboard.svg</referenceFile>
 </desc>
 <desc>Fritzing breadboard generated by brd2svg</desc>
 <g transform="translate(-6.1035e-6 -24.66)">
  <g id="breadboard">
   <g id="icon">
    <path d="m0 78.66v-46.8a7.2 7.2 0 0 1 7.2-7.2h72a7.2 7.2 0 0 1 7.2 7.2v46.8a7.2 7.2 0 0 1-7.2 7.2h-72a7.2 7.2 0 0 1-7.2-7.2m63.383 0a1.4173 1.4173 0 1 0 2.8346 0 1.4173 1.4173 0 1 0-2.8346 0zm-7.2 0a1.4173 1.4173 0 1 0 2.8346 0 1.4173 1.4173 0 1 0-2.8346 0zm-7.2 0a1.4173 1.4173 0 1 0 2.8346 0 1.4173 1.4173 0 1 0-2.8346 0zm-7.2 0a1.4173 1.4173 0 1 0 2.8346 0 1.4173 1.4173 0 1 0-2.8346 0zm-7.2 0a1.4173 1.4173 0 1 0 2.8346 0 1.4173 1.4173 0 1 0-2.8346 0zm-7.2 0a1.4173 1.4173 0 1 0 2.8346 0 1.4173 1.4173 0 1 0-2.8346 0zm-7.2 0a1.4173 1.4173 0 1 0 2.8346 0 1.4173 1.4173 0 1 0-2.8346 0zm55.474 0a3.5433 3.5433 0 1 0 7.0866 0 3.5433 3.5433 0 1 0-7.0866 0zm-72 0a3.5433 3.5433 0 1 0 7.0866 0 3.5433 3.5433 0 1 0-7.0866 0z" fill="#014cb1"/>
    <g>
     <title>layer 21</title>
     <g>
      <title>text:CLK0</title>
      <text x="13.68" y="42.588001" fill="#ffffff" font-family="OCRA" font-size="4.176px" stroke-width="0" text-anchor="middle">CLK0</text>
     </g>
     <g>
      <title>text:CLK1</title>
      <text x="43.200001" y="42.588001" fill="#ffffff" font-family="OCRA" font-size="4.176px" stroke-width="0" text-anchor="middle">CLK1</text>
     </g>
     <g>
      <title>text:CLK2</title>
      <text x="72.720001" y="42.588001" fill="#ffffff" font-family="OCRA" font-size="4.176px" stroke-width="0" text-anchor="middle">CLK2</text>
     </g>
     <g>
      <title>text:SCL</title>
      <text x="43.200001" y="75.290398" fill="#ffffff" font-family="OCRA" font-size="3.3408px" stroke-width="0" text-anchor="middle">SCL</text>
     </g>
     <g>
      <title>text:SDA</title>
      <text x="50.400002" y="85.370399" fill="#ffffff" font-family="OCRA" font-size="3.3408px" stroke-width="0" text-anchor="middle">SDA</text>
     </g>
     <g>
      <title>text:GND</title>
      <text x="57.599998" y="75.290398" fill="#ffffff" font-family="OCRA" font-size="3.3408px" stroke-width="0" text-anchor="middle">GND</text>
     </g>
     <g>
      <title>text:VIN</title>
      <text x="64.800003" y="85.370399" fill="#ffffff" font-family="OCRA" font-size="3.3408px" stroke-width="0" text-anchor="middle">VIN</text>
     </g>
     <g>
      <title>text:2</title>
      <text x="36" y="85.370399" fill="#ffffff" font-family="OCRA" font-size="3.3408px" stroke-width="0" text-anchor="middle">2</text>
     </g>
     <g>
      <title>text:1</title>
      <text x="28.799999" y="75.290398" fill="#ffffff" font-family="OCRA" font-size="3.3408px" stroke-width="0" text-anchor="middle">1</text>
     </g>
     <g>
      <title>text:0</title>
      <text x="21.6" y="85.370399" fill="#ffffff" font-family="OCRA" font-size="3.3408px" stroke-width="0" text-anchor="middle">0</text>
     </g>
     <g>
      <title>text:SI5351
Clock Gen</title>
      <g transform="translate(0,-1.6704)">
       <text x="19.440001" y="58.7304" fill="#ffffff" font-family="OCRA" font-size="3.3408px" stroke-width="0" text-anchor="middle">SI5351</text>
      </g>
      <g transform="translate(0,1.6704)">
       <text x="19.440001" y="58.7304" fill="#ffffff" font-family="OCRA" font-size="3.3408px" stroke-width="0" text-anchor="middle">Clock Gen</text>
      </g>
     </g>
     <g>
      <title>text:25MHz Xtal
8kHz-160 MHz</title>
      <g transform="translate(0,-1.6704)">
       <text x="19.440001" y="68.090401" fill="#ffffff" font-family="OCRA" font-size="3.3408px" stroke-width="0" text-anchor="middle">25MHz Xtal</text>
      </g>
      <g transform="translate(0,1.6704)">
       <text x="19.440001" y="68.090401" fill="#ffffff" font-family="OCRA" font-size="3.3408px" stroke-width="0" text-anchor="middle">8kHz-160 MHz</text>
      </g>
     </g>
     <g>
      <title>element:C1</title>
      <g>
       <title>package:0805-NO</title>
       <line x1="34.56" x2="37.44" y1="52.02" y2="52.02" stroke="#fff" stroke-linecap="round" stroke-width=".864"/>
      </g>
     </g>
     <g>
      <title>element:C2</title>
      <g>
       <title>package:0805-NO</title>
       <line x1="55.44" x2="55.44" y1="48.42" y2="45.54" stroke="#fff" stroke-linecap="round" stroke-width=".864"/>
      </g>
     </g>
     <g>
      <title>element:C3</title>
      <g>
       <title>package:0805-NO</title>
       <line x1="78.48" x2="78.48" y1="52.74" y2="49.86" stroke="#fff" stroke-linecap="round" stroke-width=".864"/>
      </g>
     </g>
     <g>
      <title>element:C5</title>
      <g>
       <title>package:0805-NO</title>
       <line x1="77.76" x2="77.76" y1="65.7" y2="68.58" stroke="#fff" stroke-linecap="round" stroke-width=".864"/>
      </g>
     </g>
     <g>
      <title>element:FID1</title>
      <g>
       <title>package:FIDUCIAL_1MM</title>
      </g>
     </g>
     <g>
      <title>element:FID2</title>
      <g>
       <title>package:FIDUCIAL_1MM</title>
      </g>
     </g>
     <g>
      <title>element:JP1</title>
      <g>
       <title>package:1X07_ROUND_76</title>
      </g>
     </g>
     <g>
      <title>element:Q1</title>
      <g>
       <title>package:SOT23-WIDE</title>
       <line x1="71.701" x2="71.701" y1="52.331" y2="56.052" stroke="#fff" stroke-linecap="round" stroke-width=".576"/>
       <line x1="71.701" x2="68.983" y1="56.052" y2="56.052" stroke="#fff" stroke-linecap="round" stroke-width=".576"/>
       <line x1="62.219" x2="62.219" y1="56.052" y2="52.331" stroke="#fff" stroke-linecap="round" stroke-width=".576"/>
       <line x1="64.937" x2="62.219" y1="56.052" y2="56.052" stroke="#fff" stroke-linecap="round" stroke-width=".576"/>
       <line x1="66.33" x2="67.63" y1="52.308" y2="52.308" stroke="#fff" stroke-linecap="round" stroke-width=".576"/>
      </g>
     </g>
     <g>
      <title>element:Q2</title>
      <g>
       <title>package:SOT23-WIDE</title>
       <line x1="60.181" x2="60.181" y1="58.811" y2="62.532" stroke="#fff" stroke-linecap="round" stroke-width=".576"/>
       <line x1="60.181" x2="57.463" y1="62.532" y2="62.532" stroke="#fff" stroke-linecap="round" stroke-width=".576"/>
       <line x1="50.699" x2="50.699" y1="62.532" y2="58.811" stroke="#fff" stroke-linecap="round" stroke-width=".576"/>
       <line x1="53.417" x2="50.699" y1="62.532" y2="62.532" stroke="#fff" stroke-linecap="round" stroke-width=".576"/>
       <line x1="54.81" x2="56.11" y1="58.788" y2="58.788" stroke="#fff" stroke-linecap="round" stroke-width=".576"/>
      </g>
     </g>
     <g>
      <title>element:R5</title>
      <g>
       <title>package:0805-NO</title>
       <line x1="55.44" x2="55.44" y1="51.3" y2="54.18" stroke="#fff" stroke-linecap="round" stroke-width=".864"/>
      </g>
     </g>
     <g>
      <title>element:R6</title>
      <g>
       <title>package:0805-NO</title>
       <line x1="66.96" x2="66.96" y1="44.82" y2="47.7" stroke="#fff" stroke-linecap="round" stroke-width=".864"/>
      </g>
     </g>
     <g>
      <title>element:R7</title>
      <g>
       <title>package:0805-NO</title>
       <line x1="68.4" x2="65.52" y1="64.98" y2="64.98" stroke="#fff" stroke-linecap="round" stroke-width=".864"/>
      </g>
     </g>
     <g>
      <title>element:R8</title>
      <g>
       <title>package:0805-NO</title>
       <line x1="57.6" x2="57.6" y1="67.86" y2="70.74" stroke="#fff" stroke-linecap="round" stroke-width=".864"/>
      </g>
     </g>
     <g>
      <title>element:U$10</title>
      <g>
       <title>package:MOUNTINGHOLE_2.5_PLATED</title>
       <circle cx="79.2" cy="78.66" r="5.6693" fill="none" stroke="#fff" stroke-width=".576"/>
      </g>
     </g>
     <g>
      <title>element:U$11</title>
      <g>
       <title>package:MOUNTINGHOLE_2.5_PLATED</title>
       <circle cx="7.2" cy="78.66" r="5.6693" fill="none" stroke="#fff" stroke-width=".576"/>
      </g>
     </g>
     <g>
      <title>element:U$12</title>
      <g>
       <title>package:ADAFRUIT_3.5MM</title>
      </g>
     </g>
     <g>
      <title>element:U$23</title>
      <g>
       <title>package:ADAFRUIT_TEXT_20MM</title>
      </g>
     </g>
     <g>
      <title>element:U1</title>
      <g>
       <title>package:MSOP10</title>
       <line x1="39.952" x2="47.888" y1="47.332" y2="47.332" stroke="#fff" stroke-linecap="round" stroke-width=".576"/>
       <line x1="47.888" x2="47.888" y1="47.332" y2="55.269" stroke="#fff" stroke-linecap="round" stroke-width=".576"/>
       <line x1="47.888" x2="39.952" y1="55.269" y2="55.269" stroke="#fff" stroke-linecap="round" stroke-width=".576"/>
       <line x1="39.952" x2="39.952" y1="55.269" y2="47.332" stroke="#fff" stroke-linecap="round" stroke-width=".576"/>
       <path d="m41.652 52.717a0.8504 0.8504 0 1 0 0 1.7008" fill="none" stroke="#fff" stroke-width=".576"/>
       <line x1="41.652" x2="41.652" y1="52.717" y2="54.418" stroke="#fff" stroke-linecap="round" stroke-width=".576"/>
      </g>
     </g>
     <g>
      <title>element:U2</title>
      <g>
       <title>package:SOT23-5</title>
       <line x1="80.028" x2="75.492" y1="54.543" y2="54.543" stroke="#fff" stroke-linecap="round" stroke-width=".576"/>
       <line x1="80.028" x2="75.492" y1="63.897" y2="63.897" stroke="#fff" stroke-linecap="round" stroke-width=".576"/>
       <line x1="80.737" x2="80.737" y1="58.086" y2="60.354" stroke="#fff" stroke-linecap="round" stroke-width=".576"/>
      </g>
     </g>
     <g>
      <title>element:X1</title>
      <g>
       <title>package:SMA_EDGELAUNCH</title>
      </g>
     </g>
     <g>
      <title>element:X2</title>
      <g>
       <title>package:SMA_EDGELAUNCH</title>
      </g>
     </g>
     <g>
      <title>element:X3</title>
      <g>
       <title>package:SMA_EDGELAUNCH</title>
      </g>
     </g>
     <g>
      <title>element:Y1</title>
      <g>
       <title>package:CRYSTAL_3.2X2.5</title>
       <line x1="49.011" x2="37.389" y1="69.657" y2="69.657" stroke="#fff" stroke-linecap="round" stroke-width=".576"/>
       <line x1="49.011" x2="37.389" y1="60.303" y2="60.303" stroke="#fff" stroke-linecap="round" stroke-width=".576"/>
       <line x1="49.011" x2="49.011" y1="69.657" y2="60.303" stroke="#fff" stroke-linecap="round" stroke-width=".576"/>
       <line x1="37.389" x2="37.389" y1="69.657" y2="60.303" stroke="#fff" stroke-linecap="round" stroke-width=".576"/>
      </g>
     </g>
    </g>
    <g transform="matrix(0 -1 1 0 -18.713 90.713)">
     <rect id="connector0pin" x="34.157" y="52.587" width="3.685" height="4.252" fill="#9a916c"/>
    </g>
    <g transform="matrix(0 -1 1 0 -13.327 85.327)">
     <rect id="connector1pin" x="34.157" y="47.201" width="3.685" height="4.252" fill="#9a916c"/>
    </g>
    <g transform="matrix(-1 0 0 -1 116.27 93.96)">
     <rect id="connector2pin" x="56.29" y="44.854" width="3.685" height="4.252" fill="#9a916c"/>
    </g>
    <g transform="matrix(-1 0 0 -1 105.49 93.96)">
     <rect id="connector3pin" x="50.905" y="44.854" width="3.685" height="4.252" fill="#9a916c"/>
    </g>
    <g transform="matrix(-1 0 0 -1 162.35 102.6)">
     <rect id="connector4pin" x="79.33" y="49.174" width="3.685" height="4.252" fill="#9a916c"/>
    </g>
    <g transform="matrix(-1 0 0 -1 151.57 102.6)">
     <rect id="connector5pin" x="73.945" y="49.174" width="3.685" height="4.252" fill="#9a916c"/>
    </g>
    <rect id="connector6pin" x="73.225" y="65.014" width="3.685" height="4.252" fill="#9a916c"/>
    <rect id="connector7pin" x="78.61" y="65.014" width="3.685" height="4.252" fill="#9a916c"/>
    <g transform="matrix(-1,0,0,-1,164.16,89.64)">
     <rect id="connector8pin" x="80.662" y="43.403" width="2.8346" height="2.8346" rx="1.4173" ry="1.4173" fill="#9a916c"/>
    </g>
    <g transform="matrix(-1,0,0,-1,31.68,164.52)">
     <rect id="connector9pin" x="14.423" y="80.842" width="2.8346" height="2.8346" rx="1.4173" ry="1.4173" fill="#9a916c"/>
    </g>
    <circle id="connector10pin" cx="64.8" cy="78.66" r="2.0767" fill="none" stroke="#9a916c" stroke-width="1.3187" connectorname="VIN"/>
    <rect x="62.723" y="76.584" width="4.1533" height="4.1533" fill="none" stroke="#9a916c" stroke-width="1.3187"/>
    <circle id="connector11pin" cx="57.6" cy="78.66" r="2.0767" fill="none" stroke="#9a916c" stroke-width="1.3187" connectorname="GND"/>
    <circle id="connector12pin" cx="50.4" cy="78.66" r="2.0767" fill="none" stroke="#9a916c" stroke-width="1.3187" connectorname="SDA"/>
    <circle id="connector13pin" cx="43.2" cy="78.66" r="2.0767" fill="none" stroke="#9a916c" stroke-width="1.3187" connectorname="SCL"/>
    <circle id="connector14pin" cx="36" cy="78.66" r="2.0767" fill="none" stroke="#9a916c" stroke-width="1.3187" connectorname="CLK2"/>
    <circle id="connector15pin" cx="28.8" cy="78.66" r="2.0767" fill="none" stroke="#9a916c" stroke-width="1.3187" connectorname="CLK1"/>
    <circle id="connector16pin" cx="21.6" cy="78.66" r="2.0767" fill="none" stroke="#9a916c" stroke-width="1.3187" connectorname="CLK0"/>
    <g transform="matrix(-1 0 0 -1 139.31 102.69)">
     <rect id="connector17pin" x="68.236" y="49.645" width="2.8346" height="3.4016" fill="#9a916c"/>
    </g>
    <g transform="matrix(-1 0 0 -1 128.53 102.69)">
     <rect id="connector18pin" x="62.85" y="49.645" width="2.8346" height="3.4016" fill="#9a916c"/>
    </g>
    <g transform="matrix(-1 0 0 -1 133.92 114.03)">
     <rect id="connector19pin" x="65.543" y="55.314" width="2.8346" height="3.4016" fill="#9a916c"/>
    </g>
    <g transform="matrix(-1 0 0 -1 116.27 115.65)">
     <rect id="connector20pin" x="56.716" y="56.125" width="2.8346" height="3.4016" fill="#9a916c"/>
    </g>
    <g transform="matrix(-1 0 0 -1 105.49 115.65)">
     <rect id="connector21pin" x="51.33" y="56.125" width="2.8346" height="3.4016" fill="#9a916c"/>
    </g>
    <g transform="matrix(-1 0 0 -1 110.88 126.99)">
     <rect id="connector22pin" x="54.023" y="61.794" width="2.8346" height="3.4016" fill="#9a916c"/>
    </g>
    <rect id="connector23pin" x="50.905" y="50.614" width="3.685" height="4.252" fill="#9a916c"/>
    <rect id="connector24pin" x="56.29" y="50.614" width="3.685" height="4.252" fill="#9a916c"/>
    <rect id="connector25pin" x="62.425" y="44.134" width="3.685" height="4.252" fill="#9a916c"/>
    <rect id="connector26pin" x="67.81" y="44.134" width="3.685" height="4.252" fill="#9a916c"/>
    <g transform="matrix(0 1 -1 0 129.25 -4.6729)">
     <rect id="connector27pin" x="65.117" y="60.161" width="3.685" height="4.252" fill="#9a916c"/>
    </g>
    <g transform="matrix(0 1 -1 0 134.63 .71291)">
     <rect id="connector28pin" x="65.117" y="65.547" width="3.685" height="4.252" fill="#9a916c"/>
    </g>
    <rect id="connector29pin" x="53.065" y="67.174" width="3.685" height="4.252" fill="#9a916c"/>
    <rect id="connector30pin" x="58.45" y="67.174" width="3.685" height="4.252" fill="#9a916c"/>
    <circle id="connector31pin" cx="79.2" cy="78.66" r="4.2633" fill="none" stroke="#9a916c" stroke-width="1.44" connectorname="P$1"/>
    <circle id="connector32pin" cx="7.2" cy="78.66" r="4.2633" fill="none" stroke="#9a916c" stroke-width="1.44" connectorname="P$1"/>
    <rect id="connector33pin" x="40.731" y="55.873" width=".70866" height="2.8346" fill="#9a916c"/>
    <rect id="connector34pin" x="42.148" y="55.873" width=".70866" height="2.8346" fill="#9a916c"/>
    <rect id="connector35pin" x="43.566" y="55.873" width=".70866" height="2.8346" fill="#9a916c"/>
    <rect id="connector36pin" x="44.983" y="55.873" width=".70866" height="2.8346" fill="#9a916c"/>
    <rect id="connector37pin" x="46.4" y="55.873" width=".70866" height="2.8346" fill="#9a916c"/>
    <g transform="matrix(-1 0 0 -1 93.509 90.62)">
     <rect id="connector38pin" x="46.4" y="43.893" width=".70866" height="2.8346" fill="#9a916c"/>
    </g>
    <g transform="matrix(-1 0 0 -1 90.675 90.62)">
     <rect id="connector39pin" x="44.983" y="43.893" width=".70866" height="2.8346" fill="#9a916c"/>
    </g>
    <g transform="matrix(-1 0 0 -1 87.84 90.62)">
     <rect id="connector40pin" x="43.566" y="43.893" width=".70866" height="2.8346" fill="#9a916c"/>
    </g>
    <g transform="matrix(-1 0 0 -1 85.005 90.62)">
     <rect id="connector41pin" x="42.148" y="43.893" width=".70866" height="2.8346" fill="#9a916c"/>
    </g>
    <g transform="matrix(-1 0 0 -1 82.171 90.62)">
     <rect id="connector42pin" x="40.731" y="43.893" width=".70866" height="2.8346" fill="#9a916c"/>
    </g>
    <g transform="matrix(0 1 -1 0 130.6 -17.548)">
     <rect id="connector43pin" x="73.295" y="54.826" width="1.559" height="3.4016" fill="#9a916c"/>
    </g>
    <g transform="matrix(0 1 -1 0 133.29 -14.855)">
     <rect id="connector44pin" x="73.295" y="57.519" width="1.559" height="3.4016" fill="#9a916c"/>
    </g>
    <g transform="matrix(0 1 -1 0 135.99 -12.162)">
     <rect id="connector45pin" x="73.295" y="60.212" width="1.559" height="3.4016" fill="#9a916c"/>
    </g>
    <g transform="matrix(0 1 -1 0 143.36 -19.532)">
     <rect id="connector46pin" x="80.666" y="60.212" width="1.559" height="3.4016" fill="#9a916c"/>
    </g>
    <g transform="matrix(0 1 -1 0 137.97 -24.918)">
     <rect id="connector47pin" x="80.666" y="54.826" width="1.559" height="3.4016" fill="#9a916c"/>
    </g>
    <rect id="connector48pin" x="5.04" y="26.1" width="4.32" height="11.52" fill="#9a916c"/>
    <rect id="connector49pin" x="19.44" y="26.1" width="4.32" height="11.52" fill="#9a916c"/>
    <rect id="connector50pin" x="12.6" y="26.1" width="3.6" height="11.52" fill="#9a916c"/>
    <rect id="connector51pin" x="33.84" y="26.1" width="4.32" height="11.52" fill="#9a916c"/>
    <rect id="connector52pin" x="48.24" y="26.1" width="4.32" height="11.52" fill="#9a916c"/>
    <rect id="connector53pin" x="41.4" y="26.1" width="3.6" height="11.52" fill="#9a916c"/>
    <rect id="connector54pin" x="62.64" y="26.1" width="4.32" height="11.52" fill="#9a916c"/>
    <rect id="connector55pin" x="77.04" y="26.1" width="4.32" height="11.52" fill="#9a916c"/>
    <rect id="connector56pin" x="70.2" y="26.1" width="3.6" height="11.52" fill="#9a916c"/>
    <g transform="matrix(-1 0 0 -1 92.636 125.42)">
     <rect id="connector57pin" x="44.334" y="61.012" width="3.9685" height="3.4016" fill="#9a916c"/>
    </g>
    <g transform="matrix(-1 0 0 -1 80.164 134.5)">
     <rect id="connector58pin" x="38.098" y="65.547" width="3.9685" height="3.4016" fill="#9a916c"/>
    </g>
    <g transform="matrix(-1 0 0 -1 92.636 134.5)">
     <rect id="connector59pin" x="44.334" y="65.547" width="3.9685" height="3.4016" fill="#9a916c"/>
    </g>
    <g transform="matrix(-1 0 0 -1 80.164 125.42)">
     <rect id="connector60pin" x="38.098" y="61.012" width="3.9685" height="3.4016" fill="#9a916c"/>
    </g>
   </g>
   <g transform="translate(33.166 50.248)">
    <g transform="matrix(0,-1,1,0,1.063,4.606)">
     <path d="m5.386 3.543h-5.103c-0.156 0-0.283-0.127-0.283-0.283v-2.977c0-0.156 0.127-0.283 0.283-0.283h5.102c0.157 0 0.283 0.127 0.283 0.283v2.977c1e-3 0.156-0.126 0.283-0.282 0.283z" fill="#dcdcdc"/>
     <rect x="1.063" width="3.543" height="3.543" fill="#6e554b"/>
    </g>
   </g>
   <g transform="translate(52.606 45.208)">
    <g transform="matrix(-1,0,0,-1,5.669,3.543)">
     <path d="m5.386 3.543h-5.103c-0.156 0-0.283-0.127-0.283-0.283v-2.977c0-0.156 0.127-0.283 0.283-0.283h5.102c0.157 0 0.283 0.127 0.283 0.283v2.977c1e-3 0.156-0.126 0.283-0.282 0.283z" fill="#dcdcdc"/>
     <rect x="1.063" width="3.543" height="3.543" fill="#6e554b"/>
    </g>
   </g>
   <g transform="translate(75.645 49.528)">
    <g transform="matrix(-1,0,0,-1,5.669,3.543)">
     <path d="m5.386 3.543h-5.103c-0.156 0-0.283-0.127-0.283-0.283v-2.977c0-0.156 0.127-0.283 0.283-0.283h5.102c0.157 0 0.283 0.127 0.283 0.283v2.977c1e-3 0.156-0.126 0.283-0.282 0.283z" fill="#dcdcdc"/>
     <rect x="1.063" width="3.543" height="3.543" fill="#6e554b"/>
    </g>
   </g>
   <g transform="translate(74.925 65.368)">
    <path d="m5.386 3.543h-5.103c-0.156 0-0.283-0.127-0.283-0.283v-2.977c0-0.156 0.127-0.283 0.283-0.283h5.102c0.157 0 0.283 0.127 0.283 0.283v2.977c1e-3 0.156-0.126 0.283-0.282 0.283z" fill="#dcdcdc"/>
    <rect x="1.063" width="3.543" height="3.543" fill="#6e554b"/>
   </g>
   <g transform="translate(62.708,50.353)">
    <g transform="matrix(-1 0 0 -1 8.504 7.654)">
     <rect x=".85" y="4.677" width="1.417" height="2.976" fill="#dcdcdc"/>
     <rect x="6.236" y="4.677" width="1.417" height="2.976" fill="#dcdcdc"/>
     <rect x="3.543" width="1.417" height="3.118" fill="#dcdcdc"/>
     <rect y="1.984" width="8.504" height="3.685" fill="#303030"/>
    </g>
   </g>
   <g transform="translate(51.188,56.833)">
    <g transform="matrix(-1 0 0 -1 8.504 7.654)">
     <rect x=".85" y="4.677" width="1.417" height="2.976" fill="#dcdcdc"/>
     <rect x="6.236" y="4.677" width="1.417" height="2.976" fill="#dcdcdc"/>
     <rect x="3.543" width="1.417" height="3.118" fill="#dcdcdc"/>
     <rect y="1.984" width="8.504" height="3.685" fill="#303030"/>
    </g>
   </g>
   <g transform="translate(52.606 50.968)">
    <path d="m5.386 3.543h-5.103c-0.156 0-0.283-0.127-0.283-0.283v-2.977c0-0.156 0.127-0.283 0.283-0.283h5.102c0.157 0 0.283 0.127 0.283 0.283v2.977c1e-3 0.156-0.126 0.283-0.282 0.283z" fill="#dcdcdc"/>
    <rect x="1.063" width="3.543" height="3.543" fill="#333"/>
   </g>
   <g transform="translate(64.126 44.488)">
    <path d="m5.386 3.543h-5.103c-0.156 0-0.283-0.127-0.283-0.283v-2.977c0-0.156 0.127-0.283 0.283-0.283h5.102c0.157 0 0.283 0.127 0.283 0.283v2.977c1e-3 0.156-0.126 0.283-0.282 0.283z" fill="#dcdcdc"/>
    <rect x="1.063" width="3.543" height="3.543" fill="#333"/>
   </g>
   <g transform="translate(64.126 63.208)">
    <g transform="matrix(0,1,-1,0,4.606,-1.063)">
     <path d="m5.386 3.543h-5.103c-0.156 0-0.283-0.127-0.283-0.283v-2.977c0-0.156 0.127-0.283 0.283-0.283h5.102c0.157 0 0.283 0.127 0.283 0.283v2.977c1e-3 0.156-0.126 0.283-0.282 0.283z" fill="#dcdcdc"/>
     <rect x="1.063" width="3.543" height="3.543" fill="#333"/>
    </g>
   </g>
   <g transform="translate(54.766 67.528)">
    <path d="m5.386 3.543h-5.103c-0.156 0-0.283-0.127-0.283-0.283v-2.977c0-0.156 0.127-0.283 0.283-0.283h5.102c0.157 0 0.283 0.127 0.283 0.283v2.977c1e-3 0.156-0.126 0.283-0.282 0.283z" fill="#dcdcdc"/>
    <rect x="1.063" width="3.543" height="3.543" fill="#333"/>
   </g>
   <g transform="translate(1.95 45.332)">
    <path d="m9.773 4.306c-0.032-0.2-0.141-0.257-0.403-0.341-0.19899-0.064-1.533-0.489-1.533-0.489s-0.93-0.351-1.619 0.146c-0.09298 0.066-0.18898 0.143-0.28598 0.224 0.082-0.097 0.158-0.193 0.224-0.286 0.495-0.69 0.143-1.619 0.143-1.619s-0.427-1.334-0.492-1.533c-0.085-0.262-0.142-0.37-0.342-0.402s-0.288 0.054-0.449 0.277c-0.122 0.17-0.939 1.307-0.939 1.307s-0.621 0.777-0.361 1.586c0.034 0.109 0.077 0.224 0.125 0.341-0.067-0.108-0.135-0.209-0.203-0.302-0.503-0.684-1.496-0.636-1.496-0.636s-1.4-6e-3 -1.61-6e-3c-0.275-1e-3 -0.396 0.02-0.488 0.201-0.091 0.181-0.037 0.291 0.126 0.513 0.124 0.169 0.953 1.297 0.953 1.297s0.546 0.83 1.395 0.834c0.114 0 0.236-5e-3 0.362-0.014-0.122 0.03-0.24 0.064-0.348 0.1-0.806 0.267-1.067 1.226-1.067 1.226s-0.438 1.33-0.503 1.529c-0.085997 0.261-0.103 0.38304 0.040001 0.52603 0.144 0.143 0.265 0.126 0.526 0.04 0.199-0.06499 1.528-0.50599 1.528-0.50599s0.958-0.263 1.224-1.07c0.036-0.108 0.069-0.225 0.1-0.348-9e-3 0.12598-0.014 0.24798-0.013 0.36198 5e-3 0.849 0.836 1.394 0.836 1.394s1.13 0.827 1.298 0.951c0.223 0.16197 0.333 0.21597 0.514 0.12402 0.181-0.092 0.201-0.213 0.2-0.488-1e-3 -0.21-9e-3 -1.61-9e-3 -1.61s0.047-0.993-0.639-1.495c-0.092-0.06702-0.194-0.13502-0.301-0.20202 0.117 0.047 0.232 0.09 0.34 0.124 0.81 0.258 1.584-0.364 1.584-0.364s1.136-0.819 1.306-0.941c0.22299-0.161 0.30903-0.249 0.27699-0.45zm-4.822-1.031c0.152 0.024 0.228 0.349 0.169 0.726s-0.231 0.662-0.384 0.638-0.229-0.349-0.169-0.725c0.059-0.377 0.231-0.663 0.384-0.639zm-1.956 0.999c0.07-0.138 0.402-0.11 0.742 0.063 0.34 0.173 0.558 0.425 0.488 0.563s-0.402 0.11-0.742-0.063-0.558-0.425-0.488-0.563zm1.031 1.878c-0.269 0.27-0.577 0.4-0.686 0.291s0.02-0.416 0.29-0.686c0.269-0.27 0.576-0.4 0.686-0.291 0.109 0.109-0.021 0.416-0.29 0.686zm1.484 0.633c-0.138 0.07-0.39-0.148-0.563-0.487-0.174-0.34-0.203-0.673-0.065-0.743s0.39 0.148 0.563 0.487c0.173 0.34 0.202 0.672 0.065 0.743zm0.357-1.573c-0.377 0.06-0.701-0.015-0.726-0.168-0.024-0.153 0.262-0.325 0.638-0.385 0.377-0.06 0.701 0.015 0.726 0.168 0.024002 0.153-0.261 0.325-0.638 0.385z" fill="#dcdcdc"/>
   </g>
   <g transform="translate(39.812 45.744)">
    <metadata>
     <rdf:RDF xmlns:rdf="http://www.w3.org/1999/02/22-rdf-syntax-ns#">
      <cc:Work rdf:about="" xmlns:cc="http://creativecommons.org/ns#" xmlns:rdf="http://www.w3.org/1999/02/22-rdf-syntax-ns#">
       <dc:format xmlns:dc="http://purl.org/dc/elements/1.1/">image/svg+xml</dc:format>
       <dc:type rdf:resource="http://purl.org/dc/dcmitype/StillImage" xmlns:dc="http://purl.org/dc/elements/1.1/" xmlns:rdf="http://www.w3.org/1999/02/22-rdf-syntax-ns#"/>
       <dc:title xmlns:dc="http://purl.org/dc/elements/1.1/"/>
      </cc:Work>
     </rdf:RDF>
    </metadata>
    <rect x="6.6983" width=".68" height="11.112" fill="#dcdcdc"/>
    <rect x=".8592" width=".68" height="11.112" fill="#dcdcdc"/>
    <rect x="2.3328" width=".68" height="11.112" fill="#dcdcdc"/>
    <rect x="3.8072" width=".68" height="11.112" fill="#dcdcdc"/>
    <rect x="5.2808" width=".68" height="11.112" fill="#dcdcdc"/>
    <path d="m8.2158 2.5832v5.896c0 0.2504-0.2032 0.4536-0.4536 0.4536h-7.3086c-0.2504 2e-5 -0.4536-0.20323-0.4536-0.45358v-5.896c0-0.2504 0.2032-0.4536 0.4536-0.4536h7.3086c0.2504 0 0.4536 0.2032 0.4536 0.4536z" fill="#333" connector-curvature="0" nodetypes="sssssssss"/>
    <circle cx="1.1336" cy="7.7984" r=".5672"/>
   </g>
   <g transform="translate(73.65 55.393)">
    <g transform="matrix(0 1 -1 0 7.9371 -.283)">
     <rect x=".85" width="1.134" height="7.654" fill="#dcdcdc"/>
     <rect x="6.236" width="1.134" height="7.654" fill="#dcdcdc"/>
     <rect x="3.543" y="4.535" width="1.134" height="3.118" fill="#dcdcdc"/>
     <rect y="1.559" width="8.22" height="4.535" fill="#303030"/>
    </g>
   </g>
   <g transform="translate(38.665 61.437)">
    <g transform="matrix(-1 0 0 -1 9.0708 7.0866)">
     <metadata>
      <rdf:RDF xmlns:rdf="http://www.w3.org/1999/02/22-rdf-syntax-ns#">
       <cc:Work rdf:about="" xmlns:cc="http://creativecommons.org/ns#" xmlns:rdf="http://www.w3.org/1999/02/22-rdf-syntax-ns#">
        <dc:format xmlns:dc="http://purl.org/dc/elements/1.1/">image/svg+xml</dc:format>
        <dc:type rdf:resource="http://purl.org/dc/dcmitype/StillImage" xmlns:dc="http://purl.org/dc/elements/1.1/" xmlns:rdf="http://www.w3.org/1999/02/22-rdf-syntax-ns#"/>
        <dc:title xmlns:dc="http://purl.org/dc/elements/1.1/"/>
       </cc:Work>
      </rdf:RDF>
     </metadata>
     <g transform="translate(-356.41 -209.61)">
      <g groupmode="layer" label="Layer 1">
       <rect x="356.41" y="209.61" width="9.0709" height="7.0866" rx=".28346" ry=".28346" fill="#483737" stroke-width="0"/>
      </g>
     </g>
    </g>
   </g>
  </g>
 </g>
</svg>
