<?xml version="1.0" encoding="UTF-8"?>
<!-- Generator: Adobe Illustrator 20.0.0, SVG Export Plug-In . SVG Version: 6.00 Build 0)  -->
<svg width="3.95in" height=".5in" baseProfile="tiny" version="1.2" viewBox="0 0 284.4 36" xml:space="preserve" xmlns="http://www.w3.org/2000/svg" xmlns:xml="http://www.w3.org/XML/1998/namespace">
    <desc>
        <referenceFile>Adafruit Bi-Color 24-Bar Bargraph w I2C Backpack_breadboard.svg</referenceFile>
    </desc>
    <desc>Fritzing breadboard generated by brd2svg</desc>
    <g id="breadboard">
        <g id="icon">
            <path d="m0 7.2c0-3.976 3.224-7.2 7.2-7.2h270c3.976 0 7.2 3.224 7.2 7.2v21.6c0 3.976-3.224 7.2-7.2 7.2h-270c-3.976 0-7.2-3.224-7.2-7.2v-21.6m18.72 0c-1e-3 0.795 0.644 1.441 1.439 1.441 0.795 1e-3 1.441-0.644 1.441-1.439v-2e-3c0-0.795-0.645-1.44-1.44-1.44s-1.44 0.645-1.44 1.44zm0 7.2c-1e-3 0.795 0.644 1.441 1.439 1.441 0.795 1e-3 1.441-0.644 1.441-1.439v-2e-3c0-0.795-0.645-1.44-1.44-1.44s-1.44 0.645-1.44 1.44zm0 7.2c-1e-3 0.795 0.644 1.441 1.439 1.441 0.795 1e-3 1.441-0.644 1.441-1.439v-2e-3c0-0.795-0.645-1.44-1.44-1.44s-1.44 0.645-1.44 1.44zm0 7.2c-1e-3 0.795 0.644 1.441 1.439 1.441 0.795 1e-3 1.441-0.644 1.441-1.439v-2e-3c0-0.795-0.645-1.44-1.44-1.44s-1.44 0.645-1.44 1.44zm254.94-10.8c-3e-3 1.957 1.58 3.546 3.537 3.55 1.957 3e-3 3.546-1.58 3.55-3.537v-0.012c3e-3 -1.957-1.58-3.546-3.537-3.55s-3.546 1.58-3.55 3.537v0.012zm-270 0c-3e-3 1.957 1.58 3.546 3.537 3.549s3.546-1.58 3.549-3.537v-0.012c3e-3 -1.957-1.58-3.546-3.537-3.549s-3.546 1.58-3.549 3.537v0.012z" fill="#014CB1"/>
            <g>
                <title>layer 21</title>
                <g>
                    <title>text:SCL</title>
                    <g transform="translate(10.034 8.6414)">
                        <text fill="#FFFFFF" font-family="'OCRA'" font-size="2.6726">SCL</text>
                    </g>
                </g>
                <g>
                    <title>text:SDA</title>
                    <g transform="translate(16.56 17.28)">
                        
                            <g transform="rotate(270)">
                                
                                    <g transform="translate(-.72)">
                                        <text fill="#FFFFFF" font-family="'OCRA'" font-size="2.6726">SDA</text>
                                    </g>
                                
                            </g>
                        
                    </g>
                </g>
                <g>
                    <title>text:G</title>
                    <g transform="translate(14.4 23.04)">
                        <text fill="#FFFFFF" font-family="'OCRA'" font-size="2.6726">G</text>
                    </g>
                </g>
                <g>
                    <title>text:VCC</title>
                    <g transform="translate(10.034 30.241)">
                        <text fill="#FFFFFF" font-family="'OCRA'" font-size="2.6726">VCC</text>
                    </g>
                </g>
                <g>
                    <title>element:A0</title>
                    <g>
                        <title>package:SOLDERJUMPER_REFLOW_NOPASTE</title>
                    </g>
                </g>
                <g>
                    <title>element:A1</title>
                    <g>
                        <title>package:SOLDERJUMPER_REFLOW_NOPASTE</title>
                    </g>
                </g>
                <g>
                    <title>element:A2</title>
                    <g>
                        <title>package:SOLDERJUMPER_REFLOW_NOPASTE</title>
                    </g>
                </g>
                <g>
                    <title>element:C1</title>
                    <g>
                        <title>package:0805-NO</title>
                        <line x1="36" x2="36" y1="5.04" y2="2.16" fill="none" stroke="#fff" stroke-linecap="round" stroke-width=".864"/>
                    </g>
                </g>
                <g>
                    <title>element:CN1</title>
                    <g>
                        <title>package:1X04-CLEANBIG</title>
                    </g>
                </g>
                <g>
                    <title>element:D1</title>
                    <g>
                        <title>package:SOD-323F</title>
                        <line x1="26.237" x2="26.237" y1="20.41" y2="15.59" fill="none" stroke="#fff" stroke-linecap="round" stroke-width=".36"/>
                        <line x1="26.237" x2="29.923" y1="15.59" y2="15.59" fill="none" stroke="#fff" stroke-linecap="round" stroke-width=".36"/>
                        <line x1="29.923" x2="29.923" y1="15.59" y2="20.41" fill="none" stroke="#fff" stroke-linecap="round" stroke-width=".36"/>
                        <line x1="29.923" x2="26.237" y1="20.41" y2="20.41" fill="none" stroke="#fff" stroke-linecap="round" stroke-width=".36"/>
                        <line x1="26.379" x2="29.781" y1="16.866" y2="16.866" fill="none" stroke="#fff" stroke-linecap="round" stroke-width=".36"/>
                        <line x1="29.781" x2="29.781" y1="16.866" y2="17.15" fill="none" stroke="#fff" stroke-linecap="round" stroke-width=".36"/>
                        <line x1="29.781" x2="26.379" y1="17.15" y2="17.15" fill="none" stroke="#fff" stroke-linecap="round" stroke-width=".36"/>
                    </g>
                </g>
                <g>
                    <title>element:LED1</title>
                    <g>
                        <title>package:SEGMENT_BICOL_BL-AR12Z3010</title>
                        <line x1="184.43" x2="184.43" y1="3.685" y2="32.315" fill="none" stroke="#fff" stroke-linecap="round" stroke-width=".576"/>
                        <line x1="184.43" x2="270.61" y1="32.315" y2="32.315" fill="none" stroke="#fff" stroke-linecap="round" stroke-width=".576"/>
                        <line x1="270.61" x2="270.61" y1="32.315" y2="8.348" fill="none" stroke="#fff" stroke-linecap="round" stroke-width=".576"/>
                        <line x1="270.61" x2="266" y1="8.348" y2="3.685" fill="none" stroke="#fff" stroke-linecap="round" stroke-width=".576"/>
                        <line x1="266" x2="184.43" y1="3.685" y2="3.685" fill="none" stroke="#fff" stroke-linecap="round" stroke-width=".576"/>
                    </g>
                </g>
                <g>
                    <title>element:LED2</title>
                    <g>
                        <title>package:SEGMENT_BICOL_BL-AR12Z3010</title>
                        <line x1="97.673" x2="97.673" y1="3.685" y2="32.315" fill="none" stroke="#fff" stroke-linecap="round" stroke-width=".576"/>
                        <line x1="97.673" x2="183.85" y1="32.315" y2="32.315" fill="none" stroke="#fff" stroke-linecap="round" stroke-width=".576"/>
                        <line x1="183.85" x2="183.85" y1="32.315" y2="8.348" fill="none" stroke="#fff" stroke-linecap="round" stroke-width=".576"/>
                        <line x1="183.85" x2="179.24" y1="8.348" y2="3.685" fill="none" stroke="#fff" stroke-linecap="round" stroke-width=".576"/>
                        <line x1="179.24" x2="97.673" y1="3.685" y2="3.685" fill="none" stroke="#fff" stroke-linecap="round" stroke-width=".576"/>
                    </g>
                </g>
                <g>
                    <title>element:R1</title>
                    <g>
                        <title>package:0805-NO</title>
                        <line x1="36" x2="36" y1="13.68" y2="16.56" fill="none" stroke="#fff" stroke-linecap="round" stroke-width=".864"/>
                    </g>
                </g>
                <g>
                    <title>element:R2</title>
                    <g>
                        <title>package:0805-NO</title>
                        <line x1="36" x2="36" y1="7.92" y2="10.8" fill="none" stroke="#fff" stroke-linecap="round" stroke-width=".864"/>
                    </g>
                </g>
                <g>
                    <title>element:R3</title>
                    <g>
                        <title>package:0805-NO</title>
                        <line x1="36" x2="36" y1="25.2" y2="28.08" fill="none" stroke="#fff" stroke-linecap="round" stroke-width=".864"/>
                    </g>
                </g>
                <g>
                    <title>element:R4</title>
                    <g>
                        <title>package:0805-NO</title>
                        <line x1="36" x2="36" y1="30.96" y2="33.84" fill="none" stroke="#fff" stroke-linecap="round" stroke-width=".864"/>
                    </g>
                </g>
                <g>
                    <title>element:R5</title>
                    <g>
                        <title>package:0805-NO</title>
                        <line x1="36" x2="36" y1="19.44" y2="22.32" fill="none" stroke="#fff" stroke-linecap="round" stroke-width=".864"/>
                    </g>
                </g>
                <g>
                    <title>element:U$1</title>
                    <g>
                        <title>package:FIDUCIAL_1MM</title>
                    </g>
                </g>
                <g>
                    <title>element:U$2</title>
                    <g>
                        <title>package:FIDUCIAL_1MM</title>
                    </g>
                </g>
                <g>
                    <title>element:U$3</title>
                    <g>
                        <title>package:MOUNTINGHOLE_2.5_PLATED</title>
                        <circle cx="277.2" cy="18" r="5.669" fill="none" stroke="#fff" stroke-width=".576"/>
                    </g>
                </g>
                <g>
                    <title>element:U$4</title>
                    <g>
                        <title>package:MOUNTINGHOLE_2.5_PLATED</title>
                        <circle cx="7.2" cy="18" r="5.669" fill="none" stroke="#fff" stroke-width=".576"/>
                    </g>
                </g>
                <g>
                    <title>element:U$5</title>
                    <g>
                        <title>package:ADAFRUIT_TEXT_20MM</title>
                    </g>
                </g>
                <g>
                    <title>element:U$6</title>
                    <g>
                        <title>package:ADAFRUIT_3.5MM</title>
                    </g>
                </g>
                <g>
                    <title>element:U2</title>
                    <g>
                        <title>package:SOP28_300MIL</title>
                        <line x1="96.192" x2="44.928" y1="7.2" y2="7.2" fill="none" stroke="#fff" stroke-linecap="round" stroke-width=".576"/>
                        <line x1="44.928" x2="44.928" y1="7.2" y2="28.8" fill="none" stroke="#fff" stroke-linecap="round" stroke-width=".576"/>
                        <line x1="96.192" x2="96.192" y1="28.8" y2="7.2" fill="none" stroke="#fff" stroke-linecap="round" stroke-width=".576"/>
                        <line x1="44.928" x2="96.192" y1="28.8" y2="28.8" fill="none" stroke="#fff" stroke-linecap="round" stroke-width=".576"/>
                    </g>
                </g>
            </g>
            <g transform="matrix(-1 0 0 -1 77.386 7.2)">
                
                    <rect id="connector5pin" x="36.85" y="1.474" width="3.685" height="4.252" fill="#9A916C"/>
                
            </g>
            <g transform="matrix(-1 0 0 -1 66.614 7.2)">
                
                    <rect id="connector6pin" x="31.465" y="1.474" width="3.685" height="4.252" fill="#9A916C"/>
                
            </g>
            <circle id="connector7pin" cx="20.16" cy="7.2" r="1.98" fill="none" stroke="#9A916C" stroke-width="1.08"/>
            <circle id="connector8pin" cx="20.16" cy="14.4" r="1.98" fill="none" stroke="#9A916C" stroke-width="1.08"/>
            <circle id="connector9pin" cx="20.16" cy="21.6" r="1.98" fill="none" stroke="#9A916C" stroke-width="1.08"/>
            <circle id="connector10pin" cx="20.16" cy="28.8" r="1.98" fill="none" stroke="#9A916C" stroke-width="1.08"/>
            <g transform="matrix(0 -1 1 0 7.2454 48.915)">
                
                    <g transform="matrix(-2.5352e-6 -1 1 -2.5352e-6 7.2454 48.915)">
                        <rect id="connector11pin" x="26.946" y="19.417" width="2.268" height="2.835" fill="#9A916C"/>
                    </g>
                
            </g>
            <g transform="matrix(0 -1 1 0 12.915 43.245)">
                
                    <g transform="matrix(-2.5352e-6 -1 1 -2.5352e-6 12.915 43.245)">
                        <rect id="connector12pin" x="26.946" y="13.748" width="2.268" height="2.835" fill="#9A916C"/>
                    </g>
                
            </g>
            <rect id="connector41pin" x="31.465" y="12.994" width="3.685" height="4.252" fill="#9A916C"/>
            <rect id="connector42pin" x="36.85" y="12.994" width="3.685" height="4.252" fill="#9A916C"/>
            <rect id="connector43pin" x="31.465" y="7.234" width="3.685" height="4.252" fill="#9A916C"/>
            <rect id="connector44pin" x="36.85" y="7.234" width="3.685" height="4.252" fill="#9A916C"/>
            <rect id="connector45pin" x="31.465" y="24.514" width="3.685" height="4.252" fill="#9A916C"/>
            <rect id="connector46pin" x="36.85" y="24.514" width="3.685" height="4.252" fill="#9A916C"/>
            <rect id="connector47pin" x="31.465" y="30.274" width="3.685" height="4.252" fill="#9A916C"/>
            <rect id="connector48pin" x="36.85" y="30.274" width="3.685" height="4.252" fill="#9A916C"/>
            <rect id="connector49pin" x="31.465" y="18.754" width="3.685" height="4.252" fill="#9A916C"/>
            <rect id="connector50pin" x="36.85" y="18.754" width="3.685" height="4.252" fill="#9A916C"/>
            <g transform="matrix(0 1 -1 0 138.96 -75.6)">
                
                    <path id="connector51pin" d="m107.28 30.263c0.783 0 1.417 0.635 1.417 1.417 0 0.783-0.635 1.417-1.417 1.417-0.783 0-1.417-0.635-1.417-1.417 0-0.783 0.635-1.417 1.417-1.417z" fill="#9A916C"/>
                
            </g>
            <g transform="matrix(0 1 -1 0 111.6 -102.96)">
                
                    <path id="connector52pin" d="m107.28 2.903c0.783 0 1.417 0.635 1.417 1.417 0 0.783-0.635 1.417-1.417 1.417-0.783 0-1.417-0.635-1.417-1.417 0-0.783 0.635-1.417 1.417-1.417z" fill="#9A916C"/>
                
            </g>
            <circle id="connector53pin" cx="277.2" cy="18" r="4.263" fill="none" stroke="#9A916C" stroke-width="1.44"/>
            <circle id="connector54pin" cx="7.2" cy="18" r="4.263" fill="none" stroke="#9A916C" stroke-width="1.44"/>
            <rect id="connector55pin" x="46.26" y="29.16" width="1.8" height="6.48" fill="#9A916C"/>
            <rect id="connector56pin" x="49.86" y="29.16" width="1.8" height="6.48" fill="#9A916C"/>
            <rect id="connector57pin" x="53.46" y="29.16" width="1.8" height="6.48" fill="#9A916C"/>
            <rect id="connector58pin" x="57.06" y="29.16" width="1.8" height="6.48" fill="#9A916C"/>
            <rect id="connector59pin" x="60.66" y="29.16" width="1.8" height="6.48" fill="#9A916C"/>
            <rect id="connector60pin" x="64.26" y="29.16" width="1.8" height="6.48" fill="#9A916C"/>
            <rect id="connector61pin" x="67.86" y="29.16" width="1.8" height="6.48" fill="#9A916C"/>
            <rect id="connector62pin" x="71.46" y="29.16" width="1.8" height="6.48" fill="#9A916C"/>
            <rect id="connector63pin" x="75.06" y="29.16" width="1.8" height="6.48" fill="#9A916C"/>
            <rect id="connector64pin" x="78.66" y="29.16" width="1.8" height="6.48" fill="#9A916C"/>
            <rect id="connector65pin" x="82.26" y="29.16" width="1.8" height="6.48" fill="#9A916C"/>
            <rect id="connector66pin" x="85.86" y="29.16" width="1.8" height="6.48" fill="#9A916C"/>
            <rect id="connector67pin" x="89.46" y="29.16" width="1.8" height="6.48" fill="#9A916C"/>
            <rect id="connector68pin" x="93.06" y="29.16" width="1.8" height="6.48" fill="#9A916C"/>
            <g transform="matrix(-1 0 0 -1 187.92 7.2)">
                
                    <rect id="connector69pin" x="93.06" y=".36" width="1.8" height="6.48" fill="#9A916C"/>
                
            </g>
            <g transform="matrix(-1 0 0 -1 180.72 7.2)">
                
                    <rect id="connector70pin" x="89.46" y=".36" width="1.8" height="6.48" fill="#9A916C"/>
                
            </g>
            <g transform="matrix(-1 0 0 -1 173.52 7.2)">
                
                    <rect id="connector71pin" x="85.86" y=".36" width="1.8" height="6.48" fill="#9A916C"/>
                
            </g>
            <g transform="matrix(-1 0 0 -1 166.32 7.2)">
                
                    <rect id="connector72pin" x="82.26" y=".36" width="1.8" height="6.48" fill="#9A916C"/>
                
            </g>
            <g transform="matrix(-1 0 0 -1 159.12 7.2)">
                
                    <rect id="connector73pin" x="78.66" y=".36" width="1.8" height="6.48" fill="#9A916C"/>
                
            </g>
            <g transform="matrix(-1 0 0 -1 151.92 7.2)">
                
                    <rect id="connector74pin" x="75.06" y=".36" width="1.8" height="6.48" fill="#9A916C"/>
                
            </g>
            <g transform="matrix(-1 0 0 -1 144.72 7.2)">
                
                    <rect id="connector75pin" x="71.46" y=".36" width="1.8" height="6.48" fill="#9A916C"/>
                
            </g>
            <g transform="matrix(-1 0 0 -1 137.52 7.2)">
                
                    <rect id="connector76pin" x="67.86" y=".36" width="1.8" height="6.48" fill="#9A916C"/>
                
            </g>
            <g transform="matrix(-1 0 0 -1 130.32 7.2)">
                
                    <rect id="connector77pin" x="64.26" y=".36" width="1.8" height="6.48" fill="#9A916C"/>
                
            </g>
            <g transform="matrix(-1 0 0 -1 123.12 7.2)">
                
                    <rect id="connector78pin" x="60.66" y=".36" width="1.8" height="6.48" fill="#9A916C"/>
                
            </g>
            <g transform="matrix(-1 0 0 -1 115.92 7.2)">
                
                    <rect id="connector79pin" x="57.06" y=".36" width="1.8" height="6.48" fill="#9A916C"/>
                
            </g>
            <g transform="matrix(-1 0 0 -1 108.72 7.2)">
                
                    <rect id="connector80pin" x="53.46" y=".36" width="1.8" height="6.48" fill="#9A916C"/>
                
            </g>
            <g transform="matrix(-1 0 0 -1 101.52 7.2)">
                
                    <rect id="connector81pin" x="49.86" y=".36" width="1.8" height="6.48" fill="#9A916C"/>
                
            </g>
            <g transform="matrix(-1 0 0 -1 94.32 7.2)">
                
                    <rect id="connector82pin" x="46.26" y=".36" width="1.8" height="6.48" fill="#9A916C"/>
                
            </g>
        </g>
        <g transform="translate(33.166 1.8285)">
            
                <g transform="matrix(-1 0 0 -1 5.669 3.543)">
                    
                        <path d="M5.386,3.543H0.283C0.127,3.543,0,3.416,0,3.26V0.283C0,0.127,0.127,0,0.283,0h5.102c0.157,0,0.283,0.127,0.283,0.283V3.26C5.669,3.416,5.542,3.543,5.386,3.543z" fill="#DCDCDC"/>
                        <rect x="1.063" width="3.543" height="3.543" fill="#6E554B"/>
                    
                </g>
            
        </g>
        <g transform="translate(24.536 16.228)">
            
                <g transform="matrix(0 -1 1 0 1.772 5.315)">
                    
                        <g transform="matrix(-2.5352e-6 -1 1 -2.5352e-6 1.7725 5.3145)">
                            <rect x="3.118" y="-1.772" width=".85" height="7.087" fill="#DCDCDC"/>
                        </g>
                        <g transform="matrix(-2.5352e-6 -1 1 -2.5352e-6 1.772 5.315)">
                            <rect x="1.772" y="-.638" width="3.543" height="4.819" fill="#303030"/>
                        </g>
                        <g transform="matrix(-2.5352e-6 -1 1 -2.5352e-6 .0857 3.6648)">
                            <rect x=".097" y="1.473" width="3.556" height=".633" fill="#666"/>
                        </g>
                    
                </g>
            
        </g>
        <g transform="translate(213.2 -25.087)">
            
                <g transform="matrix(0 1 -1 0 57.402 28.772)">
                    
                        
                            <path d="m0 86.173v-84.047l2.126-2.126h26.504v86.173h-28.63z" fill="#141414"/>
                            <g transform="matrix(2.5352e-6 1 -1 2.5352e-6 17.802 -10.828)">
                                <rect x="11.849" y="-3.671" width="4.932" height="14.315" fill="#0f0"/>
                            </g>
                            <g transform="matrix(2.5352e-6 1 -1 2.5352e-6 25.002 -3.6284)">
                                <rect x="11.849" y="3.529" width="4.932" height="14.315" fill="#FFE119"/>
                            </g>
                            <g transform="matrix(2.5352e-6 1 -1 2.5352e-6 32.202 3.5716)">
                                <rect x="11.849" y="10.729" width="4.932" height="14.315" fill="#FF1E00"/>
                            </g>
                            <g transform="matrix(2.5352e-6 1 -1 2.5352e-6 39.402 10.772)">
                                <rect x="11.849" y="17.929" width="4.932" height="14.315" fill="#FFE119"/>
                            </g>
                            <g transform="matrix(2.5352e-6 1 -1 2.5352e-6 46.602 17.972)">
                                <rect x="11.849" y="25.129" width="4.932" height="14.315" fill="#0f0"/>
                            </g>
                            <g transform="matrix(2.5352e-6 1 -1 2.5352e-6 53.802 25.172)">
                                <rect x="11.849" y="32.329" width="4.932" height="14.315" fill="#FFE119"/>
                            </g>
                            <g transform="matrix(2.5352e-6 1 -1 2.5352e-6 61.002 32.372)">
                                <rect x="11.849" y="39.529" width="4.932" height="14.315" fill="#FF1E00"/>
                            </g>
                            <g transform="matrix(2.5352e-6 1 -1 2.5352e-6 68.202 39.572)">
                                <rect x="11.849" y="46.729" width="4.932" height="14.315" fill="#FFE119"/>
                            </g>
                            <g transform="matrix(2.5352e-6 1 -1 2.5352e-6 75.402 46.772)">
                                <rect x="11.849" y="53.929" width="4.932" height="14.315" fill="#0f0"/>
                            </g>
                            <g transform="matrix(2.5352e-6 1 -1 2.5352e-6 82.602 53.972)">
                                <rect x="11.849" y="61.129" width="4.932" height="14.315" fill="#FFE119"/>
                            </g>
                            <g transform="matrix(2.5352e-6 1 -1 2.5352e-6 89.802 61.172)">
                                <rect x="11.849" y="68.329" width="4.932" height="14.315" fill="#FF1E00"/>
                            </g>
                            <g transform="matrix(2.5352e-6 1 -1 2.5352e-6 97.002 68.371)">
                                <rect x="11.849" y="75.529" width="4.932" height="14.315" fill="#FFE119"/>
                            </g>
                        
                    
                </g>
            
        </g>
        <g transform="translate(126.44 -25.087)">
            
                <g transform="matrix(0 1 -1 0 57.402 28.772)">
                    
                        
                            <path d="m0 86.173v-84.047l2.126-2.126h26.504v86.173h-28.63z" fill="#141414"/>
                            <g transform="matrix(2.5352e-6 1 -1 2.5352e-6 17.802 -10.828)">
                                <rect x="11.849" y="-3.671" width="4.932" height="14.315" fill="#0f0"/>
                            </g>
                            <g transform="matrix(2.5352e-6 1 -1 2.5352e-6 25.002 -3.6284)">
                                <rect x="11.849" y="3.529" width="4.932" height="14.315" fill="#FFE119"/>
                            </g>
                            <g transform="matrix(2.5352e-6 1 -1 2.5352e-6 32.202 3.5716)">
                                <rect x="11.849" y="10.729" width="4.932" height="14.315" fill="#FF1E00"/>
                            </g>
                            <g transform="matrix(2.5352e-6 1 -1 2.5352e-6 39.402 10.772)">
                                <rect x="11.849" y="17.929" width="4.932" height="14.315" fill="#FFE119"/>
                            </g>
                            <g transform="matrix(2.5352e-6 1 -1 2.5352e-6 46.602 17.972)">
                                <rect x="11.849" y="25.129" width="4.932" height="14.315" fill="#0f0"/>
                            </g>
                            <g transform="matrix(2.5352e-6 1 -1 2.5352e-6 53.802 25.172)">
                                <rect x="11.849" y="32.329" width="4.932" height="14.315" fill="#FFE119"/>
                            </g>
                            <g transform="matrix(2.5352e-6 1 -1 2.5352e-6 61.002 32.372)">
                                <rect x="11.849" y="39.529" width="4.932" height="14.315" fill="#FF1E00"/>
                            </g>
                            <g transform="matrix(2.5352e-6 1 -1 2.5352e-6 68.202 39.572)">
                                <rect x="11.849" y="46.729" width="4.932" height="14.315" fill="#FFE119"/>
                            </g>
                            <g transform="matrix(2.5352e-6 1 -1 2.5352e-6 75.402 46.772)">
                                <rect x="11.849" y="53.929" width="4.932" height="14.315" fill="#0f0"/>
                            </g>
                            <g transform="matrix(2.5352e-6 1 -1 2.5352e-6 82.602 53.972)">
                                <rect x="11.849" y="61.129" width="4.932" height="14.315" fill="#FFE119"/>
                            </g>
                            <g transform="matrix(2.5352e-6 1 -1 2.5352e-6 89.802 61.172)">
                                <rect x="11.849" y="68.329" width="4.932" height="14.315" fill="#FF1E00"/>
                            </g>
                            <g transform="matrix(2.5352e-6 1 -1 2.5352e-6 97.002 68.371)">
                                <rect x="11.849" y="75.529" width="4.932" height="14.315" fill="#FFE119"/>
                            </g>
                        
                    
                </g>
            
        </g>
        <g transform="translate(33.166 13.348)">
            
                <path d="M5.386,3.543H0.283C0.127,3.543,0,3.416,0,3.26V0.283C0,0.127,0.127,0,0.283,0h5.102c0.157,0,0.283,0.127,0.283,0.283V3.26C5.669,3.416,5.542,3.543,5.386,3.543z" fill="#DCDCDC"/>
                <rect x="1.063" width="3.543" height="3.543" fill="#333"/>
            
        </g>
        <g transform="translate(33.166 7.5885)">
            
                <path d="M5.386,3.543H0.283C0.127,3.543,0,3.416,0,3.26V0.283C0,0.127,0.127,0,0.283,0h5.102c0.157,0,0.283,0.127,0.283,0.283V3.26C5.669,3.416,5.542,3.543,5.386,3.543z" fill="#DCDCDC"/>
                <rect x="1.063" width="3.543" height="3.543" fill="#333"/>
            
        </g>
        <g transform="translate(33.166 24.868)">
            
                <path d="M5.386,3.543H0.283C0.127,3.543,0,3.416,0,3.26V0.283C0,0.127,0.127,0,0.283,0h5.102c0.157,0,0.283,0.127,0.283,0.283V3.26C5.669,3.416,5.542,3.543,5.386,3.543z" fill="#DCDCDC"/>
                <rect x="1.063" width="3.543" height="3.543" fill="#333"/>
            
        </g>
        <g transform="translate(33.166 30.628)">
            
                <path d="M5.386,3.543H0.283C0.127,3.543,0,3.416,0,3.26V0.283C0,0.127,0.127,0,0.283,0h5.102c0.157,0,0.283,0.127,0.283,0.283V3.26C5.669,3.416,5.542,3.543,5.386,3.543z" fill="#DCDCDC"/>
                <rect x="1.063" width="3.543" height="3.543" fill="#333"/>
            
        </g>
        <g transform="translate(33.166 19.108)">
            
                <path d="M5.386,3.543H0.283C0.127,3.543,0,3.416,0,3.26V0.283C0,0.127,0.127,0,0.283,0h5.102c0.157,0,0.283,0.127,0.283,0.283V3.26C5.669,3.416,5.542,3.543,5.386,3.543z" fill="#DCDCDC"/>
                <rect x="1.063" width="3.543" height="3.543" fill="#333"/>
            
        </g>
        <g transform="translate(271.21 3.414)">
            
                <path d="m11.065 2.044c-0.032-0.2-0.141-0.257-0.403-0.341-0.199-0.064-1.533-0.489-1.533-0.489s-0.93-0.351-1.619 0.146c-0.093 0.066-0.189 0.143-0.286 0.224 0.082-0.097 0.158-0.193 0.224-0.286 0.495-0.69 0.143-1.619 0.143-1.619s-0.427-1.334-0.492-1.533c-0.085-0.262-0.142-0.37-0.342-0.402s-0.288 0.054-0.449 0.277c-0.122 0.17-0.939 1.307-0.939 1.307s-0.621 0.777-0.361 1.586c0.034 0.109 0.077 0.224 0.125 0.341-0.067-0.108-0.135-0.209-0.203-0.302-0.503-0.684-1.496-0.636-1.496-0.636s-1.4-6e-3 -1.61-6e-3c-0.275-1e-3 -0.396 0.02-0.488 0.201-0.091 0.181-0.037 0.291 0.126 0.513 0.124 0.169 0.953 1.297 0.953 1.297s0.546 0.83 1.395 0.834c0.114 0 0.236-5e-3 0.362-0.014-0.122 0.03-0.24 0.064-0.348 0.1-0.806 0.267-1.067 1.226-1.067 1.226s-0.438 1.33-0.503 1.529c-0.086 0.261-0.103 0.383 0.04 0.526 0.144 0.143 0.265 0.126 0.526 0.04 0.199-0.065 1.528-0.506 1.528-0.506s0.958-0.263 1.224-1.07c0.036-0.108 0.069-0.225 0.1-0.348-9e-3 0.126-0.014 0.248-0.013 0.362 5e-3 0.849 0.836 1.394 0.836 1.394s1.13 0.827 1.298 0.951c0.223 0.162 0.333 0.216 0.514 0.124s0.201-0.213 0.2-0.488c-1e-3 -0.21-9e-3 -1.61-9e-3 -1.61s0.047-0.993-0.639-1.495c-0.092-0.067-0.194-0.135-0.301-0.202 0.117 0.047 0.232 0.09 0.34 0.124 0.81 0.258 1.584-0.364 1.584-0.364s1.136-0.819 1.306-0.941c0.223-0.161 0.309-0.249 0.277-0.45zm-4.822-1.031c0.152 0.024 0.228 0.349 0.169 0.726s-0.231 0.662-0.384 0.638-0.229-0.349-0.169-0.725c0.059-0.377 0.231-0.663 0.384-0.639zm-1.956 0.999c0.07-0.138 0.402-0.11 0.742 0.063s0.558 0.425 0.488 0.563-0.402 0.11-0.742-0.063-0.558-0.425-0.488-0.563zm1.031 1.878c-0.269 0.27-0.577 0.4-0.686 0.291s0.02-0.416 0.29-0.686c0.269-0.27 0.576-0.4 0.686-0.291 0.109 0.109-0.021 0.416-0.29 0.686zm1.484 0.633c-0.138 0.07-0.39-0.148-0.563-0.487-0.174-0.34-0.203-0.673-0.065-0.743s0.39 0.148 0.563 0.487c0.173 0.34 0.202 0.672 0.065 0.743zm0.357-1.573c-0.377 0.06-0.701-0.015-0.726-0.168-0.024-0.153 0.262-0.325 0.638-0.385 0.377-0.06 0.701 0.015 0.726 0.168 0.024 0.153-0.261 0.325-0.638 0.385z" fill="#DCDCDC"/>
            
        </g>
        <g transform="translate(44.34 3.9685)">
            
                
                    <rect x="2.254" width="1.134" height="28.063" fill="#DCDCDC"/>
                    <rect x="5.854" width="1.134" height="28.063" fill="#DCDCDC"/>
                    <rect x="9.454" width="1.134" height="28.063" fill="#DCDCDC"/>
                    <rect x="13.054" width="1.134" height="28.063" fill="#DCDCDC"/>
                    <rect x="16.654" width="1.134" height="28.063" fill="#DCDCDC"/>
                    <rect x="20.254" width="1.134" height="28.063" fill="#DCDCDC"/>
                    <rect x="23.854" width="1.134" height="28.063" fill="#DCDCDC"/>
                    <rect x="27.454" width="1.134" height="28.063" fill="#DCDCDC"/>
                    <rect x="31.054" width="1.134" height="28.063" fill="#DCDCDC"/>
                    <rect x="34.654" width="1.134" height="28.063" fill="#DCDCDC"/>
                    <rect x="38.254" width="1.134" height="28.063" fill="#DCDCDC"/>
                    <rect x="41.854" width="1.134" height="28.063" fill="#DCDCDC"/>
                    <rect x="45.454" width="1.134" height="28.063" fill="#DCDCDC"/>
                    <rect x="49.054" width="1.134" height="28.063" fill="#DCDCDC"/>
                    <rect y="3.402" width="52.441" height="21.26" fill="#333"/>
                    <circle cx="2.835" cy="21.827" r="1.134"/>
                
            
        </g>
    </g>
</svg>
