<?xml version="1.0" encoding="UTF-8"?>
<!-- Generator: Adobe Illustrator 20.0.0, SVG Export Plug-In . SVG Version: 6.00 Build 0)  -->
<svg width="1.3014in" height="1.6in" baseProfile="tiny" version="1.2" viewBox="0 0 93.701 115.2" xml:space="preserve" xmlns="http://www.w3.org/2000/svg" xmlns:xml="http://www.w3.org/XML/1998/namespace">
    <desc>
        <referenceFile>Adafruit Bicolor 8x8 LED Matrix Backpack_breadboard.svg</referenceFile>
    </desc>
    <desc>Fritzing breadboard generated by brd2svg</desc>
    <g id="breadboard">
        <g id="icon">
            <path d="m86.45 115.2h-79.2c-4.473-0.497-7.697-4.526-7.2-9v-97.2c-0.497-4.473 2.726-8.503 7.2-9h79.2c4.473 0.497 7.697 4.526 7.2 9v97.2c0.497 4.473-2.726 8.503-7.2 9m-79.199-8.235c-1.566-3e-3 -2.837 1.263-2.84 2.829s1.263 2.837 2.829 2.84h0.011c1.566 3e-3 2.837-1.263 2.84-2.829s-1.263-2.837-2.829-2.84h-0.011zm0-104.4c-1.566-3e-3 -2.837 1.264-2.84 2.829-3e-3 1.566 1.263 2.838 2.829 2.841h0.011c1.566 3e-3 2.837-1.264 2.84-2.829 3e-3 -1.566-1.264-2.837-2.829-2.84-4e-3 -1e-3 -8e-3 -1e-3 -0.011-1e-3zm79.199 104.4c-1.566-3e-3 -2.837 1.263-2.84 2.829s1.263 2.837 2.829 2.84h0.011c1.566 3e-3 2.837-1.263 2.84-2.829s-1.263-2.837-2.829-2.84h-0.011zm0-104.4c-1.566-3e-3 -2.837 1.264-2.84 2.829-3e-3 1.566 1.264 2.837 2.829 2.84h0.011c1.566 3e-3 2.837-1.264 2.84-2.829 3e-3 -1.566-1.264-2.837-2.829-2.84h-0.011zm-28.8 1.395c-0.795 0-1.44 0.645-1.44 1.44s0.645 1.44 1.44 1.44 1.44-0.645 1.44-1.44-0.644-1.44-1.44-1.44zm-7.2 0c-0.795 0-1.44 0.645-1.44 1.44s0.645 1.44 1.44 1.44 1.44-0.645 1.44-1.44-0.644-1.44-1.44-1.44zm-7.2 0c-0.795 0-1.44 0.645-1.44 1.44s0.645 1.44 1.44 1.44 1.44-0.645 1.44-1.44-0.644-1.44-1.44-1.44zm-7.2 0c-0.795 0-1.44 0.645-1.44 1.44s0.645 1.44 1.44 1.44 1.44-0.645 1.44-1.44-0.644-1.44-1.44-1.44z" fill="#014CB1"/>
            <g>
                <title>layer 21</title>
                <g>
                    <title>text:8x8 Bi-Color LED Matrix</title>
                    <g transform="translate(111.6 81.77)">
                        
                            <g transform="rotate(270)">
                                
                                    <g transform="matrix(0 1 -1 0 -29.83 -99.669)">
                                        <text fill="#FFFFFF" font-family="'OCRA'" font-size="3.3408">8x8 Bi-Color LED Matrix</text>
                                    </g>
                                
                            </g>
                        
                    </g>
                </g>
                <g>
                    <title>element:A0</title>
                    <g>
                        <title>package:SOLDERJUMPER_REFLOW_NOPASTE</title>
                    </g>
                </g>
                <g>
                    <title>element:A1</title>
                    <g>
                        <title>package:SOLDERJUMPER_REFLOW_NOPASTE</title>
                    </g>
                </g>
                <g>
                    <title>element:A2</title>
                    <g>
                        <title>package:SOLDERJUMPER_REFLOW_NOPASTE</title>
                    </g>
                </g>
                <g>
                    <title>element:C1</title>
                    <g>
                        <title>package:C0805</title>
                    </g>
                </g>
                <g>
                    <title>element:CN1</title>
                    <g>
                        <title>package:1X04-CLEANBIG</title>
                    </g>
                </g>
                <g>
                    <title>element:D1</title>
                    <g>
                        <title>package:SOD-323F</title>
                    </g>
                </g>
                <g>
                    <title>element:LED2</title>
                    <g>
                        <title>package:SEGMENT_BICOL_BL-M12A883XX</title>
                        <line x1="93.197" x2="93.197" y1="11.253" y2="103.95" fill="none" stroke="#fff" stroke-linecap="round" stroke-width=".36"/>
                        <line x1="93.197" x2=".504" y1="103.95" y2="103.95" fill="none" stroke="#fff" stroke-linecap="round" stroke-width=".36"/>
                        <line x1=".504" x2=".504" y1="103.95" y2="11.253" fill="none" stroke="#fff" stroke-linecap="round" stroke-width=".36"/>
                        <line x1=".504" x2="93.197" y1="11.253" y2="11.253" fill="none" stroke="#fff" stroke-linecap="round" stroke-width=".36"/>
                    </g>
                </g>
                <g>
                    <title>element:R1</title>
                    <g>
                        <title>package:R0805</title>
                    </g>
                </g>
                <g>
                    <title>element:R2</title>
                    <g>
                        <title>package:R0805</title>
                    </g>
                </g>
                <g>
                    <title>element:R3</title>
                    <g>
                        <title>package:R0805</title>
                    </g>
                </g>
                <g>
                    <title>element:R4</title>
                    <g>
                        <title>package:R0805</title>
                    </g>
                </g>
                <g>
                    <title>element:R5</title>
                    <g>
                        <title>package:R0805</title>
                    </g>
                </g>
                <g>
                    <title>element:U$1</title>
                    <g>
                        <title>package:FIDUCIAL_1MM</title>
                    </g>
                </g>
                <g>
                    <title>element:U$2</title>
                    <g>
                        <title>package:FIDUCIAL_1MM</title>
                    </g>
                </g>
                <g>
                    <title>element:U$3</title>
                    <g>
                        <title>package:ADAFRUIT_5MM</title>
                    </g>
                </g>
                <g>
                    <title>element:U2</title>
                    <g>
                        <title>package:SOP28_300MIL</title>
                    </g>
                </g>
            </g>
            <circle id="connector5pin" cx="57.65" cy="5.4" r="1.98" fill="none" stroke="#9A916C" stroke-width="1.08"/>
            <circle id="connector6pin" cx="50.45" cy="5.4" r="1.98" fill="none" stroke="#9A916C" stroke-width="1.08"/>
            <circle id="connector7pin" cx="43.25" cy="5.4" r="1.98" fill="none" stroke="#9A916C" stroke-width="1.08"/>
            <circle id="connector8pin" cx="36.05" cy="5.4" r="1.98" fill="none" stroke="#9A916C" stroke-width="1.08"/>
        </g>
    </g>
    <g>
        <title>text:C</title>
        <g transform="translate(59.972 3.8009)">
            <text fill="#FFFFFF" font-family="'OCRA'" font-size="2.6726">C</text>
        </g>
    </g>
    <g>
        <title>text:D</title>
        <g transform="translate(53.132 3.8009)">
            <text fill="#FFFFFF" font-family="'OCRA'" font-size="2.6726">D</text>
        </g>
    </g>
    <g>
        <title>text:-</title>
        <g transform="translate(38.732 3.8009)">
            <text fill="#FFFFFF" font-family="'OCRA'" font-size="2.6726">-</text>
        </g>
    </g>
    <g>
        <title>text:+</title>
        <g transform="translate(31.532 3.8009)">
            <text fill="#FFFFFF" font-family="'OCRA'" font-size="2.6726">+</text>
        </g>
    </g>
    
        <rect x="1.922" y="12.671" width="89.858" height="89.858" fill="#141414"/>
        
            <rect x="2.914" y="13.663" width="8.504" height="8.504" fill="#FF1E00"/>
            <rect x="14.253" y="13.663" width="8.504" height="8.504" fill="#FFE119"/>
            <rect x="25.591" y="13.663" width="8.504" height="8.504" fill="#0f0"/>
            <rect x="36.93" y="13.663" width="8.504" height="8.504" fill="#FFE119"/>
            <rect x="48.268" y="13.663" width="8.504" height="8.504" fill="#FF1E00"/>
            <rect x="59.607" y="13.663" width="8.504" height="8.504" fill="#FFE119"/>
            <rect x="70.946" y="13.663" width="8.504" height="8.504" fill="#0f0"/>
            <rect x="82.284" y="13.663" width="8.504" height="8.504" fill="#FFE119"/>
            <rect x="2.914" y="25.002" width="8.504" height="8.504" fill="#FFE119"/>
            <rect x="14.253" y="25.002" width="8.504" height="8.504" fill="#0f0"/>
            <rect x="25.591" y="25.002" width="8.504" height="8.504" fill="#FFE119"/>
            <rect x="36.93" y="25.002" width="8.504" height="8.504" fill="#FF1E00"/>
            <rect x="48.268" y="25.002" width="8.504" height="8.504" fill="#FFE119"/>
            <rect x="59.607" y="25.002" width="8.504" height="8.504" fill="#0f0"/>
            <rect x="70.946" y="25.002" width="8.504" height="8.504" fill="#FFE119"/>
            <rect x="82.284" y="25.002" width="8.504" height="8.504" fill="#FF1E00"/>
            <rect x="2.914" y="36.34" width="8.504" height="8.504" fill="#0f0"/>
            <rect x="14.253" y="36.34" width="8.504" height="8.504" fill="#FFE119"/>
            <rect x="25.591" y="36.34" width="8.504" height="8.504" fill="#FF1E00"/>
            <rect x="36.93" y="36.34" width="8.504" height="8.504" fill="#FFE119"/>
            <rect x="48.268" y="36.34" width="8.504" height="8.504" fill="#0f0"/>
            <rect x="59.607" y="36.34" width="8.504" height="8.504" fill="#FFE119"/>
            <rect x="70.946" y="36.34" width="8.504" height="8.504" fill="#FF1E00"/>
            <rect x="82.284" y="36.34" width="8.504" height="8.504" fill="#FFE119"/>
            <rect x="2.914" y="47.679" width="8.504" height="8.504" fill="#FFE119"/>
            <rect x="14.253" y="47.679" width="8.504" height="8.504" fill="#FF1E00"/>
            <rect x="25.591" y="47.679" width="8.504" height="8.504" fill="#FFE119"/>
            <rect x="36.93" y="47.679" width="8.504" height="8.504" fill="#0f0"/>
            <rect x="48.268" y="47.679" width="8.504" height="8.504" fill="#FFE119"/>
            <rect x="59.607" y="47.679" width="8.504" height="8.504" fill="#FF1E00"/>
            <rect x="70.946" y="47.679" width="8.504" height="8.504" fill="#FFE119"/>
            <rect x="82.284" y="47.679" width="8.504" height="8.504" fill="#0f0"/>
            <rect x="2.914" y="59.017" width="8.504" height="8.504" fill="#FF1E00"/>
            <rect x="14.253" y="59.017" width="8.504" height="8.504" fill="#FFE119"/>
            <rect x="25.591" y="59.017" width="8.504" height="8.504" fill="#0f0"/>
            <rect x="36.93" y="59.017" width="8.504" height="8.504" fill="#FFE119"/>
            <rect x="48.268" y="59.017" width="8.504" height="8.504" fill="#FF1E00"/>
            <rect x="59.607" y="59.017" width="8.504" height="8.504" fill="#FFE119"/>
            <rect x="70.946" y="59.017" width="8.504" height="8.504" fill="#0f0"/>
            <rect x="82.284" y="59.017" width="8.504" height="8.504" fill="#FFE119"/>
            <rect x="2.914" y="70.356" width="8.504" height="8.504" fill="#FFE119"/>
            <rect x="14.253" y="70.356" width="8.504" height="8.504" fill="#0f0"/>
            <rect x="25.591" y="70.356" width="8.504" height="8.504" fill="#FFE119"/>
            <rect x="36.93" y="70.356" width="8.504" height="8.504" fill="#FF1E00"/>
            <rect x="48.268" y="70.356" width="8.504" height="8.504" fill="#FFE119"/>
            <rect x="59.607" y="70.356" width="8.504" height="8.504" fill="#0f0"/>
            <rect x="70.946" y="70.356" width="8.504" height="8.504" fill="#FFE119"/>
            <rect x="82.284" y="70.356" width="8.504" height="8.504" fill="#FF1E00"/>
            <rect x="2.914" y="81.695" width="8.504" height="8.504" fill="#0f0"/>
            <rect x="14.253" y="81.695" width="8.504" height="8.504" fill="#FFE119"/>
            <rect x="25.591" y="81.695" width="8.504" height="8.504" fill="#FF1E00"/>
            <rect x="36.93" y="81.695" width="8.504" height="8.504" fill="#FFE119"/>
            <rect x="48.268" y="81.695" width="8.504" height="8.504" fill="#0f0"/>
            <rect x="59.607" y="81.695" width="8.504" height="8.504" fill="#FFE119"/>
            <rect x="70.946" y="81.695" width="8.504" height="8.504" fill="#FF1E00"/>
            <rect x="82.284" y="81.695" width="8.504" height="8.504" fill="#FFE119"/>
            <rect x="2.914" y="93.033" width="8.504" height="8.504" fill="#FFE119"/>
            <rect x="14.253" y="93.033" width="8.504" height="8.504" fill="#FF1E00"/>
            <rect x="25.591" y="93.033" width="8.504" height="8.504" fill="#FFE119"/>
            <rect x="36.93" y="93.033" width="8.504" height="8.504" fill="#0f0"/>
            <rect x="48.268" y="93.033" width="8.504" height="8.504" fill="#FFE119"/>
            <rect x="59.607" y="93.033" width="8.504" height="8.504" fill="#FF1E00"/>
            <rect x="70.946" y="93.033" width="8.504" height="8.504" fill="#FFE119"/>
            <rect x="82.284" y="93.033" width="8.504" height="8.504" fill="#0f0"/>
        
    
</svg>
