<?xml version="1.0" encoding="UTF-8"?>
<!-- Generator: Adobe Illustrator 23.0.6, SVG Export Plug-In . SVG Version: 6.00 Build 0)  -->
<svg width=".945in" height=".75003in" enable-background="new 0 0 68.04 54.0023" version="1.1" viewBox="0 0 68.04 54.002" xml:space="preserve" xmlns="http://www.w3.org/2000/svg" xmlns:xml="http://www.w3.org/XML/1998/namespace">
    <desc>
        <referenceFile>USB C MicroLipo rev A_breadboard.svg</referenceFile>
    </desc>
    <desc>Fritzing breadboard generated by brd2svg</desc>
    
        <g id="breadboard">
            <g id="icon">
                <path d="m10.44 0h50.4c3.9765 0 7.2 3.2235 7.2 7.2v39.96c-0.0994 3.877-3.323 6.9394-7.2 6.84h-50.4c-3.9764 0-7.2-3.2235-7.2-7.2v-39.6c0-3.9764 3.2235-7.2 7.2-7.2m6.4403 35.192c-0.0011 0.5088 0.4105 0.9221 0.9193 0.9232s0.9221-0.4105 0.9232-0.9193v-4e-3c0.0011-0.5088-0.4105-0.9221-0.9193-0.9232s-0.9221 0.4105-0.9232 0.9193v4e-3zm0-16.384c-0.0011 0.5088 0.4105 0.9221 0.9193 0.9232s0.9221-0.4105 0.9232-0.9193v-4e-3c0.0011-0.5088-0.4105-0.9221-0.9193-0.9232s-0.9221 0.4105-0.9232 0.9193v4e-3zm2.9424-11.608c0 0.7828 0.6346 1.4173 1.4173 1.4173 0.7828 0 1.4173-0.6346 1.4173-1.4173s-0.6345-1.4173-1.4173-1.4173c-0.7827 0-1.4173 0.6345-1.4173 1.4173zm7.2 0c0 0.7828 0.6346 1.4173 1.4173 1.4173 0.7828 0 1.4173-0.6346 1.4173-1.4173s-0.6345-1.4173-1.4173-1.4173c-0.7827 0-1.4173 0.6345-1.4173 1.4173zm7.2 0c0 0.7828 0.6346 1.4173 1.4173 1.4173 0.7828 0 1.4173-0.6346 1.4173-1.4173 0-0.7828-0.6346-1.4173-1.4173-1.4173s-1.4173 0.6345-1.4173 1.4173zm7.2 0c0 0.7828 0.6346 1.4173 1.4173 1.4173s1.4173-0.6345 1.4173-1.4173-0.6345-1.4173-1.4173-1.4173-1.4173 0.6345-1.4173 1.4173zm7.2 0c0 0.7828 0.6346 1.4173 1.4173 1.4173 0.7828 0 1.4173-0.6346 1.4173-1.4173 0-0.7828-0.6346-1.4173-1.4173-1.4173s-1.4173 0.6345-1.4173 1.4173zm8.674 39.6c-0.0034 1.9569 1.5802 3.5461 3.5371 3.5495s3.5461-1.5802 3.5495-3.5371v-0.0125c0.0034-1.9569-1.5802-3.5461-3.5371-3.5495s-3.5461 1.5802-3.5495 3.5371v0.0125zm0-39.6c-0.0034 1.9569 1.5802 3.5461 3.5371 3.5495s3.5461-1.5802 3.5495-3.5371v-0.0124c0.0034-1.9569-1.5802-3.5461-3.5371-3.5495s-3.5461 1.5802-3.5495 3.5371v0.0124zm-50.4 39.6c-0.0034 1.9569 1.5803 3.546 3.5372 3.5494s3.546-1.5803 3.5494-3.5372v-0.0122c0.0033-1.9569-1.5804-3.546-3.5374-3.5493-1.9569-0.0032-3.5459 1.5805-3.5492 3.5374v0.0119zm0-39.6c-0.0034 1.9569 1.5803 3.546 3.5372 3.5494s3.546-1.5803 3.5494-3.5372v-0.0122c0.0033-1.9569-1.5804-3.546-3.5374-3.5493-1.9569-0.0032-3.5459 1.5805-3.5492 3.5374v0.0119zm11.472 7.5543c-9e-4 0.4697 0.3791 0.8511 0.8488 0.852s0.8511-0.3791 0.852-0.8488v-0.0032c9e-4 -0.4697-0.3791-0.8511-0.8488-0.852s-0.8511 0.3791-0.852 0.8488v0.0032zm0 24.491c-9e-4 0.4697 0.3791 0.8511 0.8488 0.852s0.8511-0.3791 0.852-0.8488v-0.0032c9e-4 -0.4697-0.3791-0.8511-0.8488-0.852s-0.8511 0.3791-0.852 0.8488v0.0032zm-11.849-24.491c-1e-3 0.4697 0.379 0.8512 0.8486 0.8521s0.8512-0.379 0.8521-0.8486v-0.0035c1e-3 -0.4697-0.3789-0.8512-0.8485-0.8522s-0.8512 0.3789-0.8522 0.8485v0.0037zm0 24.491c-1e-3 0.4697 0.379 0.8512 0.8486 0.8521 0.4697 1e-3 0.8512-0.379 0.8521-0.8486v-0.0035c1e-3 -0.4697-0.3789-0.8512-0.8485-0.8522-0.4697-1e-3 -0.8512 0.3789-0.8522 0.8485v0.0037z" fill="#014CB1"/>
                <g>
                    <title>layer 21</title>
                    <g>
                        <title>text:CHG</title>
                        <g transform="translate(49.68 52.2)">
                            
                                <g transform="rotate(270)">
                                    
                                        <g transform="translate(-2e-4 5.3711e-5)">
                                            <text fill="#FFFFFF" font-family="'OCRA'" font-size="2.6726">CHG</text>
                                        </g>
                                    
                                </g>
                            
                        </g>
                    </g>
                    <g>
                        <title>text:DONE</title>
                        <g transform="translate(41.76 52.2)">
                            
                                <g transform="rotate(270)">
                                    
                                        <g transform="translate(-2e-4 1.1766e-5)">
                                            <text fill="#FFFFFF" font-family="'OCRA'" font-size="2.6726">DONE</text>
                                        </g>
                                    
                                </g>
                            
                        </g>
                    </g>
                    <g>
                        <title>text:+</title>
                        <g transform="translate(45 35.64)">
                            <text fill="#FFFFFF" font-family="'OCRA'" font-size="3.7417">+</text>
                        </g>
                    </g>
                    <g>
                        <title>text:-</title>
                        <g transform="translate(45 22.32)">
                            <text fill="#FFFFFF" font-family="'OCRA'" font-size="3.7417">-</text>
                        </g>
                    </g>
                    <g>
                        <title>text:500mA</title>
                        <g transform="translate(26.002 47.39)">
                            <text fill="#FFFFFF" font-family="'OCRA'" font-size="2.6726">500mA</text>
                        </g>
                    </g>
                    <g>
                        <title>text:5V</title>
                        <g transform="translate(18.825 4.1904)">
                            <text fill="#FFFFFF" font-family="'OCRA'" font-size="2.6726">5V</text>
                        </g>
                    </g>
                    <g>
                        <title>text:GND</title>
                        <g transform="translate(39.577 13.91)">
                            <text fill="#FFFFFF" font-family="'OCRA'" font-size="2.6726">GND</text>
                        </g>
                    </g>
                    <g>
                        <title>text:BAT</title>
                        <g transform="translate(46.777 4.1904)">
                            <text fill="#FFFFFF" font-family="'OCRA'" font-size="2.6726">BAT</text>
                        </g>
                    </g>
                    <g>
                        <title>text:D-</title>
                        <g transform="translate(26.385 4.1904)">
                            <text fill="#FFFFFF" font-family="'OCRA'" font-size="2.6726">D-</text>
                        </g>
                    </g>
                    <g>
                        <title>text:D+</title>
                        <g transform="translate(33.225 4.1904)">
                            <text fill="#FFFFFF" font-family="'OCRA'" font-size="2.6726">D+</text>
                        </g>
                    </g>
                    <g>
                        <title>element:C1</title>
                        <g>
                            <title>package:0805-NO@1</title>
                            <line x1="27.72" x2="30.6" y1="16.02" y2="16.02" fill="none" stroke="#fff" stroke-linecap="round" stroke-width=".864"/>
                        </g>
                    </g>
                    <g>
                        <title>element:C2</title>
                        <g>
                            <title>package:0805-NO@1</title>
                            <line x1="33.84" x2="36.72" y1="16.02" y2="16.02" fill="none" stroke="#fff" stroke-linecap="round" stroke-width=".864"/>
                        </g>
                    </g>
                    <g>
                        <title>element:CN2</title>
                        <g>
                            <title>package:JSTPH2</title>
                            <line x1="66.464" x2="66.464" y1="20.622" y2="33.378" fill="none" stroke="#fff" stroke-linecap="round" stroke-width=".576"/>
                            <line x1="56.543" x2="45.204" y1="38.339" y2="38.339" fill="none" stroke="#fff" stroke-linecap="round" stroke-width=".576"/>
                            <line x1="45.204" x2="45.204" y1="38.339" y2="35.929" fill="none" stroke="#fff" stroke-linecap="round" stroke-width=".576"/>
                            <line x1="45.204" x2="52.291" y1="35.929" y2="35.929" fill="none" stroke="#fff" stroke-linecap="round" stroke-width=".576"/>
                            <line x1="52.291" x2="52.291" y1="35.929" y2="31.961" fill="none" stroke="#fff" stroke-linecap="round" stroke-width=".576"/>
                            <line x1="52.291" x2="52.291" y1="22.039" y2="18.071" fill="none" stroke="#fff" stroke-linecap="round" stroke-width=".576"/>
                            <line x1="52.291" x2="45.204" y1="18.071" y2="18.071" fill="none" stroke="#fff" stroke-linecap="round" stroke-width=".576"/>
                            <line x1="45.204" x2="45.204" y1="18.071" y2="15.661" fill="none" stroke="#fff" stroke-linecap="round" stroke-width=".576"/>
                            <line x1="45.204" x2="56.543" y1="15.661" y2="15.661" fill="none" stroke="#fff" stroke-linecap="round" stroke-width=".576"/>
                        </g>
                    </g>
                    <g>
                        <title>element:FID1</title>
                        <g>
                            <title>package:FIDUCIAL_1MM</title>
                        </g>
                    </g>
                    <g>
                        <title>element:FID2</title>
                        <g>
                            <title>package:FIDUCIAL_1MM</title>
                        </g>
                    </g>
                    <g>
                        <title>element:JP4</title>
                        <g>
                            <title>package:1X05_ROUND_70</title>
                        </g>
                    </g>
                    <g>
                        <title>element:LED1</title>
                        <g>
                            <title>package:CHIPLED_0805_NOOUTLINE</title>
                            <g>
                                <title>polygon</title>
                                <path d="m51.84 48.06-1.08-1.44h2.16l-1.08 1.44" fill="none" stroke="#fff" stroke-linecap="round" stroke-width=".432"/>
                            </g>
                        </g>
                    </g>
                    <g>
                        <title>element:LED2</title>
                        <g>
                            <title>package:CHIPLED_0805_NOOUTLINE</title>
                            <g>
                                <title>polygon</title>
                                <path d="m44.28 48.06-1.08-1.44h2.16l-1.08 1.44" fill="none" stroke="#fff" stroke-linecap="round" stroke-width=".432"/>
                            </g>
                        </g>
                    </g>
                    <g>
                        <title>element:R1</title>
                        <g>
                            <title>package:0603-NO</title>
                            <line x1="40.986" x2="43.254" y1="37.26" y2="37.26" fill="none" stroke="#fff" stroke-linecap="round" stroke-width=".864"/>
                        </g>
                    </g>
                    <g>
                        <title>element:R2</title>
                        <g>
                            <title>package:0603-NO</title>
                            <line x1="36.666" x2="38.934" y1="37.26" y2="37.26" fill="none" stroke="#fff" stroke-linecap="round" stroke-width=".864"/>
                        </g>
                    </g>
                    <g>
                        <title>element:R3</title>
                        <g>
                            <title>package:0603-NO</title>
                            <line x1="31.14" x2="31.14" y1="31.626" y2="33.894" fill="none" stroke="#fff" stroke-linecap="round" stroke-width=".864"/>
                        </g>
                    </g>
                    <g>
                        <title>element:R4</title>
                        <g>
                            <title>package:0603-NO</title>
                            <line x1="21.906" x2="24.174" y1="48.24" y2="48.24" fill="none" stroke="#fff" stroke-linecap="round" stroke-width=".864"/>
                        </g>
                    </g>
                    <g>
                        <title>element:R5</title>
                        <g>
                            <title>package:0603-NO</title>
                            <line x1="30.24" x2="30.24" y1="38.934" y2="36.666" fill="none" stroke="#fff" stroke-linecap="round" stroke-width=".864"/>
                        </g>
                    </g>
                    <g>
                        <title>element:R6</title>
                        <g>
                            <title>package:0603-NO</title>
                            <line x1="30.24" x2="30.24" y1="43.254" y2="40.986" fill="none" stroke="#fff" stroke-linecap="round" stroke-width=".864"/>
                        </g>
                    </g>
                    <g>
                        <title>element:SJ1</title>
                        <g>
                            <title>package:SOLDERJUMPER_ARROW_NOPASTE</title>
                            <line x1="34.92" x2="27" y1="53.64" y2="53.64" fill="none" stroke="#fff" stroke-linecap="round" stroke-width=".576"/>
                            <path d="m35.64 48.6c0-0.3976-0.3224-0.72-0.72-0.72" fill="none" stroke="#fff" stroke-width=".576"/>
                            <path d="m27 47.88c-0.3976 0-0.72 0.3223-0.72 0.72" fill="none" stroke="#fff" stroke-width=".576"/>
                            <path d="m26.28 52.92c0 0.3976 0.3224 0.72 0.72 0.72" fill="none" stroke="#fff" stroke-width=".576"/>
                            <path d="m34.92 53.64c0.3976 0 0.72-0.3223 0.72-0.72" fill="none" stroke="#fff" stroke-width=".576"/>
                            <line x1="35.64" x2="35.64" y1="52.92" y2="48.6" fill="none" stroke="#fff" stroke-linecap="round" stroke-width=".576"/>
                            <line x1="26.28" x2="26.28" y1="52.92" y2="48.6" fill="none" stroke="#fff" stroke-linecap="round" stroke-width=".576"/>
                            <line x1="27" x2="34.92" y1="47.88" y2="47.88" fill="none" stroke="#fff" stroke-linecap="round" stroke-width=".576"/>
                        </g>
                    </g>
                    <g>
                        <title>element:U$2</title>
                        <g>
                            <title>package:ADAFRUIT_2.5MM</title>
                        </g>
                    </g>
                    <g>
                        <title>element:U$9</title>
                        <g>
                            <title>package:MOUNTINGHOLE_2.5_PLATED</title>
                            <circle cx="60.84" cy="46.8" r="5.6693" fill="none" stroke="#fff" stroke-width=".576"/>
                        </g>
                    </g>
                    <g>
                        <title>element:U$10</title>
                        <g>
                            <title>package:MOUNTINGHOLE_2.5_PLATED</title>
                            <circle cx="60.84" cy="7.2" r="5.6693" fill="none" stroke="#fff" stroke-width=".576"/>
                        </g>
                    </g>
                    <g>
                        <title>element:U$11</title>
                        <g>
                            <title>package:MOUNTINGHOLE_2.5_PLATED</title>
                            <circle cx="10.44" cy="46.8" r="5.6693" fill="none" stroke="#fff" stroke-width=".576"/>
                        </g>
                    </g>
                    <g>
                        <title>element:U$12</title>
                        <g>
                            <title>package:MOUNTINGHOLE_2.5_PLATED</title>
                            <circle cx="10.44" cy="7.2" r="5.6693" fill="none" stroke="#fff" stroke-width=".576"/>
                        </g>
                    </g>
                    <g>
                        <title>element:U$13</title>
                        <g>
                            <title>package:ADAFRUIT_5MM</title>
                        </g>
                    </g>
                    <g>
                        <title>element:U$16</title>
                        <g>
                            <title>package:PCBFEAT-REV-040</title>
                        </g>
                    </g>
                    <g>
                        <title>element:U1</title>
                        <g>
                            <title>package:SOT23-5</title>
                            <line x1="30.132" x2="34.668" y1="30.597" y2="30.597" fill="none" stroke="#fff" stroke-linecap="round" stroke-width=".576"/>
                            <line x1="30.132" x2="34.668" y1="21.243" y2="21.243" fill="none" stroke="#fff" stroke-linecap="round" stroke-width=".576"/>
                            <line x1="29.424" x2="29.424" y1="27.054" y2="24.786" fill="none" stroke="#fff" stroke-linecap="round" stroke-width=".576"/>
                        </g>
                    </g>
                    <g>
                        <title>element:X2</title>
                        <g>
                            <title>package:USB_C_CUSB31-CFM2AX-01-X</title>
                            <line x1="11.339" x2="15.165" y1="14.329" y2="14.329" fill="none" stroke="#fff" stroke-linecap="round" stroke-width=".288"/>
                            <line x1="15.165" x2="11.339" y1="39.671" y2="39.671" fill="none" stroke="#fff" stroke-linecap="round" stroke-width=".288"/>
                            <line y1="39.671" y2="14.329" fill="none" stroke="#fff" stroke-linecap="round" stroke-width=".288"/>
                            <line x2="3.8268" y1="14.329" y2="14.329" fill="none" stroke="#fff" stroke-linecap="round" stroke-width=".288"/>
                            <line x1="3.8268" y1="39.671" y2="39.671" fill="none" stroke="#fff" stroke-linecap="round" stroke-width=".288"/>
                        </g>
                    </g>
                </g>
                <g transform="matrix(0 -1 1 0 10.447 47.873)">
                    
                        <g transform="matrix(-2.5352e-6 -1 1 -2.5352e-6 10.447 47.873)">
                            <rect id="connector5pin" x="27.034" y="16.87" width="4.252" height="3.685" fill="#9A916C"/>
                        </g>
                    
                </g>
                <g transform="matrix(0 -1 1 0 15.833 42.487)">
                    
                        <g transform="matrix(-2.5352e-6 -1 1 -2.5352e-6 15.833 42.487)">
                            <rect id="connector6pin" x="27.034" y="11.485" width="4.252" height="3.685" fill="#9A916C"/>
                        </g>
                    
                </g>
                <g transform="matrix(0 -1 1 0 16.567 53.993)">
                    
                        <g transform="matrix(-2.5352e-6 -1 1 -2.5352e-6 16.567 53.993)">
                            <rect id="connector7pin" x="33.154" y="16.87" width="4.252" height="3.685" fill="#9A916C"/>
                        </g>
                    
                </g>
                <g transform="matrix(0 -1 1 0 21.953 48.607)">
                    
                        <g transform="matrix(-2.5352e-6 -1 1 -2.5352e-6 21.953 48.607)">
                            <rect id="connector8pin" x="33.154" y="11.485" width="4.252" height="3.685" fill="#9A916C"/>
                        </g>
                    
                </g>
                <g transform="matrix(0 1 -1 0 71.637 -23.306)">
                    
                        <g transform="matrix(2.5352e-6 1 -1 2.5352e-6 71.637 -23.306)">
                            <rect id="connector9pin" x="40.952" y="22.748" width="13.039" height="2.8347" fill="#9A916C"/>
                        </g>
                    
                </g>
                <g transform="matrix(0 1 -1 0 77.306 -17.637)">
                    
                        <g transform="matrix(2.5352e-6 1 -1 2.5352e-6 77.306 -17.637)">
                            <rect id="connector10pin" x="40.952" y="28.417" width="13.039" height="2.8347" fill="#9A916C"/>
                        </g>
                    
                </g>
                <rect id="connector11pin" x="57.393" y="15.094" width="9.6378" height="4.5354" fill="#9A916C"/>
                <rect id="connector12pin" x="57.393" y="34.37" width="9.6378" height="4.5354" fill="#9A916C"/>
                <path id="connector13pin" d="m18 49.883c0.7828 0 1.4173 0.6346 1.4173 1.4173 0 0.7828-0.6346 1.4173-1.4173 1.4173-0.7828 0-1.4173-0.6346-1.4173-1.4173s0.6346-1.4173 1.4173-1.4173z" fill="#9A916C"/>
                <path id="connector14pin" d="m53.64 11.183c0.7828 0 1.4173 0.6346 1.4173 1.4173 0 0.7828-0.6346 1.4173-1.4173 1.4173-0.7828 0-1.4173-0.6346-1.4173-1.4173s0.6346-1.4173 1.4173-1.4173z" fill="#9A916C"/>
                <circle id="connector15pin" cx="21.24" cy="7.2" r="1.9687" fill="none" stroke="#9A916C" stroke-width="1.1027"/>
                <circle id="connector16pin" cx="28.44" cy="7.2" r="1.9687" fill="none" stroke="#9A916C" stroke-width="1.1027"/>
                <circle id="connector17pin" cx="35.64" cy="7.2" r="1.9687" fill="none" stroke="#9A916C" stroke-width="1.1027"/>
                <circle id="connector18pin" cx="42.84" cy="7.2" r="1.9687" fill="none" stroke="#9A916C" stroke-width="1.1027"/>
                <circle id="connector19pin" cx="50.04" cy="7.2" r="1.9687" fill="none" stroke="#9A916C" stroke-width="1.1027"/>
                <g transform="matrix(-1 0 0 -1 103.68 88.727)">
                    
                        <rect id="connector20pin" x="50.139" y="42.663" width="3.4016" height="3.4016" fill="#9A916C"/>
                    
                </g>
                <g transform="matrix(-1 0 0 -1 103.68 100.63)">
                    
                        <rect id="connector21pin" x="50.139" y="48.616" width="3.4016" height="3.4016" fill="#9A916C"/>
                    
                </g>
                <g transform="matrix(-1 0 0 -1 88.56 88.727)">
                    
                        <rect id="connector22pin" x="42.579" y="42.663" width="3.4016" height="3.4016" fill="#9A916C"/>
                    
                </g>
                <g transform="matrix(-1 0 0 -1 88.56 100.63)">
                    
                        <rect id="connector23pin" x="42.579" y="48.616" width="3.4016" height="3.4016" fill="#9A916C"/>
                    
                </g>
                <g transform="matrix(0 -1 1 0 2.4506 81.789)">
                    
                        <g transform="matrix(-2.5352e-6 -1 1 -2.5352e-6 2.4506 81.79)">
                            <rect id="connector24pin" x="40.703" y="38.146" width="2.8347" height="3.0472" fill="#9A916C"/>
                        </g>
                    
                </g>
                <g transform="matrix(0 -1 1 0 7.2695 76.971)">
                    
                        <g transform="matrix(-2.5352e-6 -1 1 -2.5352e-6 7.2696 76.971)">
                            <rect id="connector25pin" x="40.703" y="33.327" width="2.8347" height="3.0472" fill="#9A916C"/>
                        </g>
                    
                </g>
                <g transform="matrix(0 -1 1 0 -1.8694 77.469)">
                    
                        <g transform="matrix(-2.5352e-6 -1 1 -2.5352e-6 -1.8694 77.47)">
                            <rect id="connector26pin" x="36.383" y="38.146" width="2.8347" height="3.0472" fill="#9A916C"/>
                        </g>
                    
                </g>
                <g transform="matrix(0 -1 1 0 2.9494 72.651)">
                    
                        <g transform="matrix(-2.5352e-6 -1 1 -2.5352e-6 2.9496 72.651)">
                            <rect id="connector27pin" x="36.383" y="33.327" width="2.8347" height="3.0472" fill="#9A916C"/>
                        </g>
                    
                </g>
                <rect id="connector28pin" x="27.207" y="31.343" width="3.0472" height="2.8347" fill="#9A916C"/>
                <rect id="connector29pin" x="32.026" y="31.343" width="3.0472" height="2.8347" fill="#9A916C"/>
                <g transform="matrix(0 -1 1 0 -27.61 73.689)">
                    
                        <g transform="matrix(-2.5352e-6 -1 1 -2.5352e-6 -27.609 73.69)">
                            <rect id="connector30pin" x="21.623" y="49.126" width="2.8346" height="3.0472" fill="#9A916C"/>
                        </g>
                    
                </g>
                <g transform="matrix(0 -1 1 0 -22.79 68.87)">
                    
                        <g transform="matrix(-2.5352e-6 -1 1 -2.5352e-6 -22.79 68.871)">
                            <rect id="connector31pin" x="21.623" y="44.307" width="2.8346" height="3.0472" fill="#9A916C"/>
                        </g>
                    
                </g>
                <g transform="matrix(-1 0 0 -1 65.299 75.6)">
                    
                        <rect id="connector32pin" x="31.126" y="36.383" width="3.0472" height="2.8347" fill="#9A916C"/>
                    
                </g>
                <g transform="matrix(-1 0 0 -1 55.661 75.6)">
                    
                        <rect id="connector33pin" x="26.307" y="36.383" width="3.0472" height="2.8347" fill="#9A916C"/>
                    
                </g>
                <g transform="matrix(-1 0 0 -1 65.299 84.24)">
                    
                        <rect id="connector34pin" x="31.126" y="40.703" width="3.0472" height="2.8347" fill="#9A916C"/>
                    
                </g>
                <g transform="matrix(-1 0 0 -1 55.661 84.24)">
                    
                        <rect id="connector35pin" x="26.307" y="40.703" width="3.0472" height="2.8347" fill="#9A916C"/>
                    
                </g>
                <path id="connector36pin" d="m27.54 48.6h1.08c0.2982 0 0.54 0.2418 0.54 0.54v3.24c0 0.2982-0.2418 0.54-0.54 0.54h-1.08c-0.2982 0-0.54-0.2418-0.54-0.54v-3.24c0-0.2982 0.2418-0.54 0.54-0.54z" fill="#9A916C"/>
                <path id="connector37pin" d="m33.3 48.6h1.08c0.2982 0 0.54 0.2418 0.54 0.54v3.24c0 0.2982-0.2418 0.54-0.54 0.54h-1.08c-0.2982 0-0.54-0.2418-0.54-0.54v-3.24c0-0.2982 0.2418-0.54 0.54-0.54z" fill="#9A916C"/>
                <circle id="connector38pin" cx="60.84" cy="46.8" r="4.2633" fill="none" stroke="#9A916C" stroke-width="1.44"/>
                <circle id="connector39pin" cx="60.84" cy="7.2" r="4.2633" fill="none" stroke="#9A916C" stroke-width="1.44"/>
                <circle id="connector40pin" cx="10.44" cy="46.8" r="4.2633" fill="none" stroke="#9A916C" stroke-width="1.44"/>
                <circle id="connector41pin" cx="10.44" cy="7.2" r="4.2633" fill="none" stroke="#9A916C" stroke-width="1.44"/>
                <g transform="matrix(0 -1 1 0 7.4724 64.698)">
                    
                        <g transform="matrix(-2.5352e-6 -1 1 -2.5352e-6 7.4724 64.698)">
                            <rect id="connector42pin" x="34.384" y="27.834" width="3.4016" height="1.5591" fill="#9A916C"/>
                        </g>
                    
                </g>
                <g transform="matrix(0 -1 1 0 10.165 62.005)">
                    
                        <g transform="matrix(-2.5352e-6 -1 1 -2.5352e-6 10.165 62.005)">
                            <rect id="connector43pin" x="34.384" y="25.14" width="3.4016" height="1.5591" fill="#9A916C"/>
                        </g>
                    
                </g>
                <g transform="matrix(0 -1 1 0 12.858 59.312)">
                    
                        <g transform="matrix(-2.5352e-6 -1 1 -2.5352e-6 12.858 59.312)">
                            <rect id="connector44pin" x="34.384" y="22.448" width="3.4016" height="1.5591" fill="#9A916C"/>
                        </g>
                    
                </g>
                <g transform="matrix(0 -1 1 0 5.4876 51.942)">
                    
                        <g transform="matrix(-2.5352e-6 -1 1 -2.5352e-6 5.4876 51.942)">
                            <rect id="connector45pin" x="27.014" y="22.448" width="3.4016" height="1.559" fill="#9A916C"/>
                        </g>
                    
                </g>
                <g transform="matrix(0 -1 1 0 .10176 57.328)">
                    
                        <g transform="matrix(-2.5352e-6 -1 1 -2.5352e-6 .1017 57.328)">
                            <rect id="connector46pin" x="27.014" y="27.834" width="3.4016" height="1.559" fill="#9A916C"/>
                        </g>
                    
                </g>
                <g transform="matrix(0 1 -1 0 38.778 -2.9197)">
                    
                        <g transform="matrix(2.5352e-6 1 -1 2.5352e-6 38.778 -2.9198)">
                            <rect id="connector47pin" x="19.219" y="17.114" width="3.2598" height="1.6299" fill="#9A916C"/>
                        </g>
                    
                </g>
                <g transform="matrix(0 1 -1 0 41.046 -.65197)">
                    
                        <g transform="matrix(2.5352e-6 1 -1 2.5352e-6 41.046 -.6521)">
                            <rect id="connector48pin" x="19.219" y="19.382" width="3.2598" height="1.6299" fill="#9A916C"/>
                        </g>
                    
                </g>
                <g transform="matrix(0 1 -1 0 44.306 2.6079)">
                    
                        <g transform="matrix(2.5352e-6 1 -1 2.5352e-6 44.306 2.6078)">
                            <rect id="connector49pin" x="19.219" y="23.067" width="3.2598" height=".7795" fill="#9A916C"/>
                        </g>
                    
                </g>
                <g transform="matrix(0 1 -1 0 47.14 5.4425)">
                    
                        <g transform="matrix(2.5352e-6 1 -1 2.5352e-6 47.14 5.4424)">
                            <rect id="connector50pin" x="19.219" y="25.902" width="3.2598" height=".7795" fill="#9A916C"/>
                        </g>
                    
                </g>
                <g transform="matrix(0 1 -1 0 48.557 6.8598)">
                    
                        <g transform="matrix(2.5352e-6 1 -1 2.5352e-6 48.558 6.8598)">
                            <rect id="connector51pin" x="19.219" y="27.319" width="3.2598" height=".7795" fill="#9A916C"/>
                        </g>
                    
                </g>
                <g transform="matrix(0 1 -1 0 51.392 9.6945)">
                    
                        <g transform="matrix(2.5352e-6 1 -1 2.5352e-6 51.392 9.6944)">
                            <rect id="connector52pin" x="19.219" y="30.154" width="3.2598" height=".7795" fill="#9A916C"/>
                        </g>
                    
                </g>
                <g transform="matrix(0 1 -1 0 56.92 15.222)">
                    
                        <g transform="matrix(2.5352e-6 1 -1 2.5352e-6 56.92 15.222)">
                            <rect id="connector53pin" x="19.219" y="35.256" width="3.2598" height="1.6299" fill="#9A916C"/>
                        </g>
                    
                </g>
                <g transform="matrix(0 1 -1 0 54.652 12.954)">
                    
                        <g transform="matrix(2.5352e-6 1 -1 2.5352e-6 54.652 12.954)">
                            <rect id="connector54pin" x="19.219" y="32.988" width="3.2598" height="1.6299" fill="#9A916C"/>
                        </g>
                    
                </g>
                <g transform="matrix(0 1 -1 0 52.81 11.112)">
                    
                        <g transform="matrix(2.5352e-6 1 -1 2.5352e-6 52.809 11.112)">
                            <rect id="connector55pin" x="19.219" y="31.571" width="3.2598" height=".7795" fill="#9A916C"/>
                        </g>
                    
                </g>
                <g transform="matrix(0 1 -1 0 49.975 8.2772)">
                    
                        <g transform="matrix(2.5352e-6 1 -1 2.5352e-6 49.975 8.2771)">
                            <rect id="connector56pin" x="19.219" y="28.736" width="3.2598" height=".7795" fill="#9A916C"/>
                        </g>
                    
                </g>
                <g transform="matrix(0 1 -1 0 45.723 4.0252)">
                    
                        <g transform="matrix(2.5352e-6 1 -1 2.5352e-6 45.723 4.0251)">
                            <rect id="connector57pin" x="19.219" y="24.484" width="3.2598" height=".7795" fill="#9A916C"/>
                        </g>
                    
                </g>
                <g transform="matrix(0 1 -1 0 42.888 1.1906)">
                    
                        <g transform="matrix(2.5352e-6 1 -1 2.5352e-6 42.888 1.1905)">
                            <rect id="connector58pin" x="19.219" y="21.65" width="3.2598" height=".7795" fill="#9A916C"/>
                        </g>
                    
                </g>
                <circle id="connector59pin" cx="19.219" cy="14.754" r="1.2104" fill="none" stroke="#9A916C" stroke-width=".72"/>
                <path d="m16.435 13.544h5.5678v2.4208h-5.5678v-2.4208m1.5735 1.2104c0 0.6685 0.5419 1.2104 1.2104 1.2104s1.2104-0.5419 1.2104-1.2104-0.5419-1.2104-1.2104-1.2104-1.2104 0.5419-1.2104 1.2104z" fill="#9A916C"/>
                <circle id="connector60pin" cx="19.219" cy="39.246" r="1.2104" fill="none" stroke="#9A916C" stroke-width=".72"/>
                <path d="m16.435 38.035h5.5678v2.4208h-5.5678v-2.4208m1.5735 1.2104c0 0.6685 0.5419 1.2104 1.2104 1.2104s1.2104-0.5419 1.2104-1.2104-0.5419-1.2104-1.2104-1.2104-1.2104 0.5419-1.2104 1.2104z" fill="#9A916C"/>
                <circle id="connector61pin" cx="7.3701" cy="14.754" r="1.2104" fill="none" stroke="#9A916C" stroke-width=".72"/>
                <path d="m4.5862 13.544h5.5678v2.4208h-5.5678v-2.4208m1.5735 1.2104c0 0.6685 0.5419 1.2104 1.2104 1.2104s1.2104-0.5419 1.2104-1.2104-0.5419-1.2104-1.2104-1.2104-1.2104 0.5419-1.2104 1.2104z" fill="#9A916C"/>
                <circle id="connector62pin" cx="7.3701" cy="39.246" r="1.2104" fill="none" stroke="#9A916C" stroke-width=".72"/>
                <path d="m4.5862 38.035h5.5678v2.4208h-5.5678v-2.4208m1.5735 1.2104c0 0.6685 0.5419 1.2104 1.2104 1.2104s1.2104-0.5419 1.2104-1.2104-0.5419-1.2104-1.2104-1.2104-1.2104 0.5419-1.2104 1.2104z" fill="#9A916C"/>
            </g>
            <g transform="translate(42.653 14.244)">
                
                    <g transform="matrix(0 1 -1 0 24.094 1.4175)">
                        
                            
                                <polygon points="19.843 0 2.835 0 2.835 2.126 0 2.126 0 17.008 22.677 17.008 22.677 2.126 19.843 2.126" fill="#666"/>
                                <g transform="matrix(2.5352e-6 1 -1 2.5352e-6 15.59 4.2515)">
                                    <rect x="1.4175" y="8.5035" width="8.504" height="2.835"/>
                                </g>
                                <g transform="matrix(2.5352e-6 1 -1 2.5352e-6 26.93 -7.0875)">
                                    <rect x="12.756" y="8.5035" width="8.504" height="2.835"/>
                                </g>
                                <g transform="matrix(2.5352e-6 1 -1 2.5352e-6 21.26 9.921)">
                                    <rect x="4.252" y="14.173" width="2.835" height="2.835" fill="#333"/>
                                </g>
                                <g transform="matrix(2.5352e-6 1 -1 2.5352e-6 32.599 -1.418)">
                                    <rect x="15.591" y="14.173" width="2.835" height="2.835" fill="#333"/>
                                </g>
                                <g transform="matrix(2.5352e-6 1 -1 2.5352e-6 20.268 18)">
                                    <rect x="-.992" y="18" width="4.252" height="2.268" fill="#333"/>
                                </g>
                                <g transform="matrix(2.5352e-6 1 -1 2.5352e-6 40.677 -2.4091)">
                                    <rect x="19.417" y="18" width="4.252" height="2.268" fill="#333"/>
                                </g>
                                <g transform="matrix(2.5352e-6 1 -1 2.5352e-6 29.056 12.048)">
                                    <rect x="4.9605" y="19.56" width="7.087" height="1.984" fill="#DCDCDC"/>
                                </g>
                                <g transform="matrix(2.5352e-6 1 -1 2.5352e-6 34.724 6.3784)">
                                    <rect x="10.63" y="19.56" width="7.087" height="1.984" fill="#DCDCDC"/>
                                </g>
                            
                        
                    </g>
                
            </g>
            <g transform="translate(50.068 44.506)">
                
                    <g transform="matrix(-1 0 0 -1 3.543 5.668)">
                        
                            <path d="M3.543,0.282v5.103c0,0.156-0.127,0.283-0.283,0.283H0.283C0.127,5.668,0,5.541,0,5.385V0.283C0,0.126,0.127,0,0.283,0H3.26C3.416-0.001,3.543,0.126,3.543,0.282z" fill="#DCDCDC"/>
                            <rect y="1.062" width="3.543" height="3.543" fill="#f00"/>
                            <circle cx="1.772" cy="2.833" r=".567" fill="#A00000"/>
                        
                    </g>
                
            </g>
            <g transform="translate(42.508 44.506)">
                
                    <g transform="matrix(-1 0 0 -1 3.543 5.668)">
                        
                            <path d="M3.543,0.282v5.103c0,0.156-0.127,0.283-0.283,0.283H0.283C0.127,5.668,0,5.541,0,5.385V0.283C0,0.126,0.127,0,0.283,0H3.26C3.416-0.001,3.543,0.126,3.543,0.282z" fill="#DCDCDC"/>
                            <rect y="1.062" width="3.543" height="3.543" fill="#0f0"/>
                            <circle cx="1.772" cy="2.833" r=".567" fill="#00B400"/>
                        
                    </g>
                
            </g>
            <g transform="translate(39.852 36.126)">
                
                    <g transform="matrix(0 -1 1 0 1.1335 3.4015)">
                        
                            <path d="M4.245,2.268H0.29C0.13,2.268,0,2.138,0,1.977V0.29C0,0.13,0.13,0,0.29,0h3.955c0.16,0,0.29,0.13,0.29,0.29v1.687C4.535,2.138,4.405,2.268,4.245,2.268z" fill="#DCDCDC"/>
                            <g transform="matrix(-2.5352e-6 -1 1 -2.5352e-6 1.134 3.402)">
                                <rect x="1.134" width="2.268" height="2.268" fill="#333"/>
                            </g>
                        
                    </g>
                
            </g>
            <g transform="translate(35.532 36.126)">
                
                    <g transform="matrix(0 -1 1 0 1.1335 3.4015)">
                        
                            <path d="M4.245,2.268H0.29C0.13,2.268,0,2.138,0,1.977V0.29C0,0.13,0.13,0,0.29,0h3.955c0.16,0,0.29,0.13,0.29,0.29v1.687C4.535,2.138,4.405,2.268,4.245,2.268z" fill="#DCDCDC"/>
                            <g transform="matrix(-2.5352e-6 -1 1 -2.5352e-6 1.134 3.402)">
                                <rect x="1.134" width="2.268" height="2.268" fill="#333"/>
                            </g>
                        
                    </g>
                
            </g>
            <g transform="translate(28.872 31.626)">
                
                    <path d="M4.245,2.268H0.29C0.13,2.268,0,2.138,0,1.977V0.29C0,0.13,0.13,0,0.29,0h3.955c0.16,0,0.29,0.13,0.29,0.29v1.687C4.535,2.138,4.405,2.268,4.245,2.268z" fill="#DCDCDC"/>
                    <rect x="1.134" width="2.268" height="2.268" fill="#333"/>
                
            </g>
            <g transform="translate(20.772 47.106)">
                
                    <g transform="matrix(0 -1 1 0 1.1335 3.4015)">
                        
                            <path d="M4.245,2.268H0.29C0.13,2.268,0,2.138,0,1.977V0.29C0,0.13,0.13,0,0.29,0h3.955c0.16,0,0.29,0.13,0.29,0.29v1.687C4.535,2.138,4.405,2.268,4.245,2.268z" fill="#DCDCDC"/>
                            <g transform="matrix(-2.5352e-6 -1 1 -2.5352e-6 1.134 3.402)">
                                <rect x="1.134" width="2.268" height="2.268" fill="#333"/>
                            </g>
                        
                    </g>
                
            </g>
            <g transform="translate(27.972 36.666)">
                
                    <g transform="matrix(-1 0 0 -1 4.535 2.268)">
                        
                            <path d="M4.245,2.268H0.29C0.13,2.268,0,2.138,0,1.977V0.29C0,0.13,0.13,0,0.29,0h3.955c0.16,0,0.29,0.13,0.29,0.29v1.687C4.535,2.138,4.405,2.268,4.245,2.268z" fill="#DCDCDC"/>
                            <rect x="1.134" width="2.268" height="2.268" fill="#333"/>
                        
                    </g>
                
            </g>
            <g transform="translate(27.972 40.986)">
                
                    <g transform="matrix(-1 0 0 -1 4.535 2.268)">
                        
                            <path d="M4.245,2.268H0.29C0.13,2.268,0,2.138,0,1.977V0.29C0,0.13,0.13,0,0.29,0h3.955c0.16,0,0.29,0.13,0.29,0.29v1.687C4.535,2.138,4.405,2.268,4.245,2.268z" fill="#DCDCDC"/>
                            <rect x="1.134" width="2.268" height="2.268" fill="#333"/>
                        
                    </g>
                
            </g>
            <g transform="translate(34.925 15.424)">
                
                    <path d="m9.747 3.082c-0.023-0.142-0.1-0.183-0.286-0.243-0.142-0.045-1.089-0.347-1.089-0.347s-0.66-0.249-1.15 0.103c-0.066 0.048-0.134 0.102-0.203 0.16 0.058-0.069 0.112-0.137 0.159-0.203 0.352-0.49 0.101-1.15 0.101-1.15s-0.303-0.947-0.349-1.089c-0.06-0.186-0.1-0.263-0.243-0.285-0.142-0.023-0.204 0.038-0.318 0.197-0.087 0.12-0.667 0.928-0.667 0.928s-0.441 0.551-0.257 1.126c0.025 0.077 0.055 0.159 0.089 0.242-0.048-0.076-0.096-0.149-0.144-0.214-0.358-0.486-1.062-0.452-1.062-0.452s-0.995-4e-3 -1.143-4e-3c-0.195 0-0.281 0.014-0.347 0.143-0.065 0.128-0.027 0.206 0.089 0.364 0.088 0.12 0.677 0.921 0.677 0.921s0.388 0.59 0.991 0.592c0.081 0 0.168-3e-3 0.257-0.01-0.087 0.022-0.171 0.046-0.248 0.071-0.573 0.19-0.758 0.871-0.758 0.871s-0.31 0.944-0.357 1.085c-0.061 0.186-0.073 0.272 0.029 0.374s0.188 0.09 0.374 0.028c0.141-0.046 1.085-0.359 1.085-0.359s0.681-0.187 0.869-0.76c0.025-0.077 0.049-0.16 0.07-0.247-6e-3 0.09-9e-3 0.176-9e-3 0.257 4e-3 0.603 0.594 0.99 0.594 0.99s0.802 0.588 0.922 0.675c0.158 0.116 0.236 0.154 0.365 0.089 0.128-0.066 0.143-0.152 0.142-0.347-1e-3 -0.149-6e-3 -1.143-6e-3 -1.143s0.033-0.705-0.454-1.062c-0.065-0.048-0.138-0.096-0.214-0.143 0.083 0.034 0.165 0.064 0.242 0.088 0.575 0.183 1.125-0.259 1.125-0.259s0.807-0.581 0.927-0.668c0.159-0.115 0.219-0.177 0.197-0.319zm-3.425-0.732c0.108 0.017 0.162 0.248 0.12 0.515s-0.164 0.47-0.273 0.453c-0.108-0.017-0.162-0.248-0.12-0.515 0.042-0.268 0.164-0.471 0.273-0.453zm-1.389 0.709c0.05-0.098 0.286-0.078 0.527 0.045s0.397 0.302 0.347 0.399c-0.05 0.098-0.286 0.078-0.527-0.045-0.242-0.123-0.397-0.301-0.347-0.399zm0.732 1.334c-0.191 0.191-0.409 0.284-0.487 0.206-0.077-0.078 0.015-0.296 0.206-0.487 0.191-0.192 0.409-0.285 0.487-0.207s-0.014 0.296-0.206 0.488zm1.054 0.449c-0.098 0.05-0.277-0.105-0.4-0.346-0.123-0.242-0.144-0.478-0.046-0.528s0.277 0.105 0.4 0.346c0.123 0.242 0.144 0.478 0.046 0.528zm0.254-1.117c-0.267 0.042-0.498-0.011-0.516-0.119-0.017-0.109 0.186-0.231 0.453-0.274s0.498 0.011 0.515 0.119c0.018 0.109-0.185 0.231-0.452 0.274z" fill="#DCDCDC"/>
                
            </g>
            <g transform="translate(28.29 22.093)">
                
                    <g transform="matrix(0 -1 1 0 .283 7.9371)">
                        
                            
                                <g transform="matrix(-2.5352e-6 -1 1 -2.5352e-6 -2.41 5.244)">
                                    <rect x="-2.41" y="3.26" width="7.654" height="1.134" fill="#DCDCDC"/>
                                </g>
                                <g transform="matrix(-2.5352e-6 -1 1 -2.5352e-6 2.976 10.63)">
                                    <rect x="2.976" y="3.26" width="7.654" height="1.134" fill="#DCDCDC"/>
                                </g>
                                <g transform="matrix(-2.5352e-6 -1 1 -2.5352e-6 -1.984 10.204)">
                                    <rect x="2.551" y="5.527" width="3.118" height="1.134" fill="#DCDCDC"/>
                                </g>
                                <g transform="matrix(-2.5352e-6 -1 1 -2.5352e-6 .2835 7.9365)">
                                    <rect x="1.8425" y="-.2835" width="4.535" height="8.22" fill="#303030"/>
                                </g>
                            
                        
                    </g>
                
            </g>
        </g>
        
            <g transform="matrix(-1 -8.9795e-11 8.9795e-11 -1 57.6 20.835)">
                
                    <rect x="36.765" y="-18.837" width="20.835" height="25.342" fill="#DCDCDC"/>
                
            </g>
            <path d="m20.268 17.788v-0.567h1.304v0.567h-1.304zm1.304 0.851v-0.567h-1.304v0.567h1.304zm0 1.417v-0.567h-1.304v0.567h1.304zm0 0.851v-0.567h-1.304v0.567h1.304zm0 1.417v-0.567h-1.304v0.567h1.304zm0 1.417v-0.567h-1.304v0.567h1.304zm0 1.417v-0.567h-1.304v0.567h1.304zm0 1.418v-0.567h-1.304v0.567h1.304zm0 1.417v-0.567h-1.304v0.567h1.304zm0 1.417v-0.567h-1.304v0.567h1.304zm0 1.418v-0.567h-1.304v0.567h1.304zm0 1.417v-0.567h-1.304v0.567h1.304zm0 1.417v-0.567h-1.304v0.567h1.304zm0 0.851v-0.567h-1.304v0.567h1.304zm0 1.417v-0.567h-1.304v0.567h1.304zm0 0.851v-0.567h-1.304v0.567h1.304z" fill="#DCDCDC"/>
            <g transform="matrix(-1 -8.9735e-11 8.9735e-11 -1 77.556 20.835)">
                
                    <rect x="56.721" y="3.1638" width="20.835" height="1.297" fill="#F0F0F0"/>
                
            </g>
            <g transform="matrix(-1 -8.9735e-11 8.9735e-11 -1 37.644 20.835)">
                
                    <rect x="16.809" y="-16.793" width="20.835" height="1.297" fill="#BEBEBE"/>
                
            </g>
            <path d="m20.835 39.672h-1.998v-0.283c0-0.344 0.279-0.624 0.624-0.624h0.533c0.344 0 0.624-0.279 0.624-0.624v-2.831c0-0.344-0.279-0.624-0.624-0.624h-2.022c-0.344 0-0.624-0.279-0.624-0.624v-3.413c0-0.344 0.279-0.624 0.624-0.624h0.047c0.344 0 0.624 0.279 0.624 0.624v1.536c0 0.344 0.279 0.624 0.624 0.624h0.727c0.344 0 0.624-0.279 0.624-0.624v-10.372c0-0.344-0.279-0.624-0.624-0.624h-0.727c-0.344 0-0.624 0.279-0.624 0.624v1.538c0 0.344-0.279 0.624-0.624 0.624h-0.047c-0.344 0-0.624-0.279-0.624-0.624v-3.413c0-0.344 0.279-0.624 0.624-0.624h2.022c0.344 0 0.624-0.279 0.624-0.624v-2.831c0-0.344-0.279-0.624-0.624-0.624h-0.534c-0.344 0-0.624-0.279-0.624-0.624v-0.283h1.998v25.344h1e-3z" fill="#8C8C8C"/>
            <g transform="matrix(-1 -8.9294e-11 8.9294e-11 -1 67.698 28.611)">
                
                    <rect x="52.68" y="4.9275" width="1.424" height="3.463" fill="#8C8C8C"/>
                
            </g>
            <rect x="13.593" y="30.318" width="1.424" height="3.463" fill="#8C8C8C"/>
        
    
</svg>
