<?xml version="1.0" encoding="UTF-8"?>
<!-- Created with Fritzing (http://www.fritzing.org/) -->
<svg width="1.1in" height="1.2in" baseProfile="tiny" version="1.2" viewBox="0 0 79.2 86.4" xmlns="http://www.w3.org/2000/svg">
 <desc>
  <referenceFile>prefix0000_648beb604f1b0478e5946f2a4b9ca676_1_breadboard.svg</referenceFile>
 </desc>
 <desc>Fritzing breadboard generated by brd2svg</desc>
 <g id="breadboard">
  <g id="icon">
   <path d="m79.2 10.8v68.4a7.2 7.2 0 0 1-7.2 7.2h-64.8a7.2 7.2 0 0 1-7.2-7.2v-68.4a7.2 7.2 0 0 1 7.2-7.2h10.125a10.931 10.931 0 0 1 6.0534 1.1435l6.5224 4.193a7.2 7.2 0 0 0 3.8934 1.1435h12.196a7.2 7.2 0 0 0 4.0983-1.2802l6.3816-3.9196a9.5322 9.5322 0 0 1 5.5383-1.2802h9.9909a7.2 7.2 0 0 1 7.2 7.2m-69.097 56.092a1.4173 1.4173 0 1 0 2.8346 0 1.4173 1.4173 0 1 0-2.8346 0zm0-8.504a1.4173 1.4173 0 1 0 2.8346 0 1.4173 1.4173 0 1 0-2.8346 0zm38.857 22.252a1.44 1.44 0 1 0 2.88 0 1.44 1.44 0 1 0-2.88 0zm-7.2 0a1.44 1.44 0 1 0 2.88 0 1.44 1.44 0 1 0-2.88 0zm-7.2 0a1.44 1.44 0 1 0 2.88 0 1.44 1.44 0 1 0-2.88 0zm-7.2 0a1.44 1.44 0 1 0 2.88 0 1.44 1.44 0 1 0-2.88 0zm-23.703-69.84a3.5433 3.5433 0 1 0 7.0866 0 3.5433 3.5433 0 1 0-7.0866 0zm64.8 0a3.5433 3.5433 0 1 0 7.0866 0 3.5433 3.5433 0 1 0-7.0866 0zm-64.8 68.4a3.5433 3.5433 0 1 0 7.0866 0 3.5433 3.5433 0 1 0-7.0866 0zm64.8 0a3.5433 3.5433 0 1 0 7.0866 0 3.5433 3.5433 0 1 0-7.0866 0z" fill="#014cb1" stroke-width="0"/>
   <g>
    <title>layer 21</title>
    <g>
     <title>text:Coin
Cell</title>
     <g transform="translate(0 -3.3408)">
      <text x="0.72" y="45.72" fill="#ffffff" font-family="OCRA" font-size="3.3408" stroke-width="0">Coin</text>
     </g>
     <g transform="translate(0)">
      <text x="0.72" y="45.72" fill="#ffffff" font-family="OCRA" font-size="3.3408" stroke-width="0">Cell</text>
     </g>
    </g>
    <g>
     <title>text:CR2302</title>
     <text x="8.64" y="51.3504" fill="#ffffff" font-family="OCRA" font-size="3.3408" stroke-width="0" text-anchor="middle">CR2302</text>
    </g>
    <g>
     <title>text:Gnd</title>
     <g transform="translate(52.07 73.8)">
      <g transform="rotate(270)">
       <text fill="#ffffff" font-family="OCRA" font-size="3.3408" stroke-width="0" text-anchor="middle">Gnd</text>
      </g>
     </g>
    </g>
    <g>
     <title>text:Gnd</title>
     <g transform="translate(44.87 73.8)">
      <g transform="rotate(270)">
       <text fill="#ffffff" font-family="OCRA" font-size="3.3408" stroke-width="0" text-anchor="middle">Gnd</text>
      </g>
     </g>
    </g>
    <g>
     <title>text:On</title>
     <g transform="translate(37.8 74.304)">
      <g transform="rotate(270)">
       <text fill="#ffffff" font-family="OCRA" font-size="4.176" stroke-width="0" text-anchor="middle">On</text>
      </g>
     </g>
    </g>
    <g>
     <title>text:Sw</title>
     <g transform="translate(30.528 74.16)">
      <g transform="rotate(270)">
       <text fill="#ffffff" font-family="OCRA" font-size="4.176" stroke-width="0" text-anchor="middle">Sw</text>
      </g>
     </g>
    </g>
    <g>
     <title>text:On: Always On</title>
     <text x="35.28" y="68.04" fill="#ffffff" font-family="OCRA" font-size="4.176" stroke-width="0">On: Always On</text>
    </g>
    <g>
     <title>text:Sw: 3V Switched</title>
     <text x="32.4" y="63" fill="#ffffff" font-family="OCRA" font-size="4.176" stroke-width="0">Sw: 3V Switched</text>
    </g>
    <g>
     <title>text:On</title>
     <g transform="translate(25.2 70.56)">
      <g transform="rotate(270)">
       <text fill="#ffffff" font-family="OCRA" font-size="3.3408" stroke-width="0">On</text>
      </g>
     </g>
    </g>
    <g>
     <title>text:Off</title>
     <g transform="translate(25.2 60.48)">
      <g transform="rotate(270)">
       <text fill="#ffffff" font-family="OCRA" font-size="3.3408" stroke-width="0">Off</text>
      </g>
     </g>
    </g>
    <g>
     <title>element:B1</title>
     <g>
      <title>package:CR2032_SMT_BAT-HLD-001</title>
      <line x1="60.86" x2="18.907" y1="49.21" y2="49.21" stroke="#fff" stroke-linecap="round" stroke-width=".36"/>
      <line x1="18.057" x2="10.403" y1="49.21" y2="41.556" stroke="#fff" stroke-linecap="round" stroke-width=".36"/>
      <line x1="10.403" x2="10.403" y1="41.556" y2="35.603" stroke="#fff" stroke-linecap="round" stroke-width=".36"/>
      <line x1="10.403" x2="10.403" y1="21.43" y2="16.894" stroke="#fff" stroke-linecap="round" stroke-width=".36"/>
      <line x1="10.403" x2="18.907" y1="16.894" y2="8.3905" stroke="#fff" stroke-linecap="round" stroke-width=".36"/>
      <path d="m27.411 7.5401a6.7481 6.7481 0 0 0-8.5039 0.85039" fill="none" stroke="#fff" stroke-width=".36"/>
      <path d="m27.411 7.5401a22.807 22.807 0 0 0 25.228 0" fill="none" stroke="#fff" stroke-width=".36"/>
      <path d="m61.143 8.3905a6.7481 6.7481 0 0 0-8.504-0.85039" fill="none" stroke="#fff" stroke-width=".36"/>
      <line x1="61.143" x2="69.08" y1="8.3905" y2="16.328" stroke="#fff" stroke-linecap="round" stroke-width=".36"/>
      <line x1="69.08" x2="69.08" y1="16.328" y2="21.43" stroke="#fff" stroke-linecap="round" stroke-width=".36"/>
      <line x1="69.08" x2="69.08" y1="35.887" y2="40.989" stroke="#fff" stroke-linecap="round" stroke-width=".36"/>
      <line x1="69.08" x2="60.86" y1="40.989" y2="49.21" stroke="#fff" stroke-linecap="round" stroke-width=".36"/>
     </g>
    </g>
    <g>
     <title>element:CN1</title>
     <g>
      <title>package:1X04-CLEANBIG</title>
     </g>
    </g>
    <g>
     <title>element:FID1</title>
     <g>
      <title>package:FIDUCIAL_1MM</title>
     </g>
    </g>
    <g>
     <title>element:FID2</title>
     <g>
      <title>package:FIDUCIAL_1MM</title>
     </g>
    </g>
    <g>
     <title>element:SW1</title>
     <g>
      <title>package:EG1390</title>
      <line x1="16.481" x2="16.481" y1="52.435" y2="72.845" stroke="#fff" stroke-linecap="round" stroke-width=".36"/>
      <line x1="16.481" x2="6.5594" y1="72.845" y2="72.845" stroke="#fff" stroke-linecap="round" stroke-width=".36"/>
      <line x1="6.5594" x2="6.5594" y1="72.845" y2="52.435" stroke="#fff" stroke-linecap="round" stroke-width=".36"/>
      <line x1="6.5594" x2="16.481" y1="52.435" y2="52.435" stroke="#fff" stroke-linecap="round" stroke-width=".36"/>
     </g>
    </g>
    <g>
     <title>element:U$1</title>
     <g>
      <title>package:MOUNTINGHOLE_2.5_PLATED</title>
      <circle cx="7.2" cy="10.8" r="5.6693" fill="none" stroke="#fff" stroke-width=".576"/>
     </g>
    </g>
    <g>
     <title>element:U$2</title>
     <g>
      <title>package:MOUNTINGHOLE_2.5_PLATED</title>
      <circle cx="72" cy="10.8" r="5.6693" fill="none" stroke="#fff" stroke-width=".576"/>
     </g>
    </g>
    <g>
     <title>element:U$3</title>
     <g>
      <title>package:MOUNTINGHOLE_2.5_PLATED</title>
      <circle cx="7.2" cy="79.2" r="5.6693" fill="none" stroke="#fff" stroke-width=".576"/>
     </g>
    </g>
    <g>
     <title>element:U$5</title>
     <g>
      <title>package:MOUNTINGHOLE_2.5_PLATED</title>
      <circle cx="72" cy="79.2" r="5.6693" fill="none" stroke="#fff" stroke-width=".576"/>
     </g>
    </g>
    <g>
     <title>element:U$6</title>
     <g>
      <title>package:SYMBOL_PLUS</title>
      <line x1="23.445" x2="21.195" y1="80.64" y2="80.64" stroke="#fff" stroke-linecap="round" stroke-width=".864"/>
      <line x1="22.32" x2="22.32" y1="79.515" y2="81.765" stroke="#fff" stroke-linecap="round" stroke-width=".864"/>
      <circle cx="22.32" cy="80.64" r="2.2158" fill="none" stroke="#fff" stroke-width=".576"/>
     </g>
    </g>
    <g>
     <title>element:U$7</title>
     <g>
      <title>package:SYMBOL_MINUS</title>
      <line x1="58.005" x2="55.755" y1="80.64" y2="80.64" stroke="#fff" stroke-linecap="round" stroke-width=".864"/>
      <circle cx="56.88" cy="80.64" r="2.2158" fill="none" stroke="#fff" stroke-width=".576"/>
     </g>
    </g>
    <g>
     <title>element:U$8</title>
     <g>
      <title>package:ADAFRUIT_5MM</title>
     </g>
    </g>
   </g>
   <g transform="matrix(-1 0 0 -1 144 57.6)">
    <rect id="connector0pin" x="68.4" y="21.6" width="7.2" height="14.4" fill="#9A916C" stroke-width="0"/>
   </g>
   <g transform="matrix(-1 0 0 -1 14.4 57.6)">
    <rect id="connector1pin" x="3.6" y="21.6" width="7.2" height="14.4" fill="#9A916C" stroke-width="0"/>
   </g>
   <g transform="matrix(-1 0 0 -1 79.2 57.6)">
    <rect id="connector2pin" x="25.2" y="14.4" width="28.8" height="28.8" rx="14.4" ry="14.4" fill="#9A916C" stroke-width="0"/>
   </g>
   <circle id="connector3pin" cx="50.4" cy="80.64" r="1.98" fill="none" stroke="#9A916C" stroke-width="1.08" connectorname="GND"/>
   <rect id="connector3terminal" x="50.395" y="83.155" width=".01008" height=".01008" fill="none" stroke-width="0"/>
   <circle id="connector4pin" cx="43.2" cy="80.64" r="1.98" fill="none" stroke="#9A916C" stroke-width="1.08" connectorname="GND"/>
   <rect id="connector4terminal" x="43.195" y="83.155" width=".01008" height=".01008" fill="none" stroke-width="0"/>
   <circle id="connector5pin" cx="36" cy="80.64" r="1.98" fill="none" stroke="#9A916C" stroke-width="1.08" connectorname="ON"/>
   <rect id="connector5terminal" x="35.995" y="83.155" width=".01008" height=".01008" fill="none" stroke-width="0"/>
   <circle id="connector6pin" cx="28.8" cy="80.64" r="1.98" fill="none" stroke="#9A916C" stroke-width="1.08" connectorname="SW"/>
   <rect id="connector6terminal" x="28.795" y="83.155" width=".01008" height=".01008" fill="none" stroke-width="0"/>
   <rect id="connector7pin" x="59.063" y="73.462" width="2.8346" height="2.8346" rx="1.4173" ry="1.4173" fill="#9A916C" stroke-width="0"/>
   <rect id="connector8pin" x="14.423" y="5.7827" width="2.8346" height="2.8346" rx="1.4173" ry="1.4173" fill="#9A916C" stroke-width="0"/>
   <g transform="matrix(0 1 -1 0 75.01 36.096)">
    <rect id="connector9pin" x="18.04" y="53.427" width="2.8346" height="4.252" fill="#9A916C" stroke-width="0"/>
   </g>
   <g transform="matrix(0 1 -1 0 59.136 51.97)">
    <rect id="connector10pin" x="2.1657" y="53.427" width="2.8346" height="4.252" fill="#9A916C" stroke-width="0"/>
   </g>
   <g transform="matrix(0 1 -1 0 82.097 43.183)">
    <rect id="connector11pin" x="18.04" y="60.514" width="2.8346" height="4.252" fill="#9A916C" stroke-width="0"/>
   </g>
   <g transform="matrix(0 1 -1 0 66.223 59.057)">
    <rect id="connector12pin" x="2.1657" y="60.514" width="2.8346" height="4.252" fill="#9A916C" stroke-width="0"/>
   </g>
   <g transform="matrix(0 1 -1 0 89.184 50.27)">
    <rect id="connector13pin" x="18.04" y="67.601" width="2.8346" height="4.252" fill="#9A916C" stroke-width="0"/>
   </g>
   <g transform="matrix(0 1 -1 0 73.31 66.144)">
    <rect id="connector14pin" x="2.1657" y="67.601" width="2.8346" height="4.252" fill="#9A916C" stroke-width="0"/>
   </g>
   <circle id="connector15pin" cx="7.2" cy="10.8" r="4.2633" fill="none" stroke="#9A916C" stroke-width="1.44" connectorname="P$1"/>
   <circle id="connector16pin" cx="72" cy="10.8" r="4.2633" fill="none" stroke="#9A916C" stroke-width="1.44" connectorname="P$1"/>
   <circle id="connector17pin" cx="7.2" cy="79.2" r="4.2633" fill="none" stroke="#9A916C" stroke-width="1.44" connectorname="P$1"/>
   <circle id="connector18pin" cx="72" cy="79.2" r="4.2633" fill="none" stroke="#9A916C" stroke-width="1.44" connectorname="P$1"/>
  </g>
  <g transform="translate(8.6595 -2.0415)">
   <g transform="matrix(-1 0 0 -1 61.881 61.683)">
    <circle cx="30.94" cy="31.475" r="29.619" fill="#686868"/>
    <g opacity=".5">
     <path d="m30.94 60.178c-3.443 0-6.822-0.577-10.042-1.715-0.26-0.093-0.397-0.378-0.305-0.639 0.091-0.261 0.377-0.396 0.638-0.305 4.595 1.625 9.629 2.061 14.436 1.276 0.267-0.048 0.53 0.14 0.574 0.412 0.045 0.272-0.14 0.53-0.412 0.574-1.603 0.264-3.249 0.397-4.889 0.397z" fill="#C6C6C6"/>
    </g>
    <g opacity=".43">
     <path d="m4.497 28.04c0-5.565 4.511-10.076 10.076-10.076 3.583 0 6.721 1.875 8.507 4.692-1.603-3.441-5.082-5.832-9.129-5.832-5.565 0-10.076 4.511-10.076 10.076 0 1.982 0.581 3.826 1.569 5.385-0.601-1.292-0.947-2.726-0.947-4.245z" fill="#020202"/>
     <path d="m38.409 28.04c0-5.565 4.511-10.076 10.076-10.076 3.583 0 6.721 1.875 8.507 4.692-1.603-3.441-5.082-5.832-9.129-5.832-5.565 0-10.076 4.511-10.076 10.076 0 1.982 0.58 3.826 1.569 5.385-0.601-1.292-0.947-2.726-0.947-4.245z" fill="#020202"/>
    </g>
    <g fill="#9B9B9B">
     <path d="m9.283 24.307c0-2.246 2.02-4.066 4.512-4.066s4.513 1.82 4.513 4.066v4.799h-9.025v-4.799z"/>
     <path d="m43.195 24.307c0-2.246 2.021-4.066 4.513-4.066s4.513 1.82 4.513 4.066v4.799h-9.025l-2e-5 -4.799z"/>
    </g>
    <rect x="43.195" y="29.105" width="9.025" height="21.642" fill="#898989"/>
    <rect x="9.283" y="29.105" width="9.025" height="21.642" fill="#898989"/>
    <path d="m42.543 1.418v-1.418h-23.696v1.418l-18.847 16.765v35.065c0 4.639 3.71 8.435 8.243 8.435 4.532 0 10.607-7.75 21.809-7.75s17.482 7.75 22.267 7.75h0.864c4.784 0 8.698-3.796 8.698-8.435l-2e-5 -35.065-19.338-16.765zm-23.559 33.509v15.521h-10.378v-15.521c-2.737-1.727-4.562-4.769-4.562-8.244 0-5.385 4.365-9.75 9.75-9.75s9.75 4.365 9.75 9.75c9.4e-4 3.475-1.8221 6.517-4.5601 8.244zm33.912 0v15.521h-10.377v-15.521c-2.737-1.727-4.562-4.769-4.562-8.244 0-5.385 4.365-9.75 9.75-9.75s9.75 4.365 9.75 9.75c-4e-5 3.475-1.823 6.517-4.561 8.244z" fill="#898989"/>
    <rect x="18.847" width="23.696" height="1.418" enable-background="new    " fill="#fff" opacity=".3"/>
    <path d="m13.795 16.933c-5.385 0-9.75 4.365-9.75 9.75 0 3.476 1.824 6.519 4.562 8.245v15.521h10.378l2e-5 -15.522c2.737-1.728 4.561-4.769 4.561-8.244-1e-3 -5.385-4.366-9.75-9.751-9.75z" fill="none"/>
    <path d="m47.707 16.933c-5.385 0-9.75 4.365-9.75 9.75 0 3.476 1.824 6.519 4.562 8.245v15.521h10.378l2e-5 -15.522c2.737-1.728 4.561-4.769 4.561-8.244-1e-3 -5.385-4.366-9.75-9.751-9.75z" fill="none"/>
    <path d="m0 18.183v35.065c0 1.55 0.421 3 1.142 4.252v-40.333l-1.142 1.016z" fill="#898989"/>
    <path d="m0 18.183v35.065c0 1.55 0.421 3 1.142 4.252v-40.333l-1.142 1.016z" enable-background="new    " fill="#fff" opacity=".3"/>
    <path d="m61.881 18.183-1.142-0.989v40.206c0.723-1.229 1.142-2.645 1.142-4.152v-35.065z" fill="#898989"/>
    <path d="m61.881 18.183-1.142-0.989v40.206c0.723-1.229 1.142-2.645 1.142-4.152v-35.065z" enable-background="new    " fill="#fff" opacity=".3"/>
    <g opacity=".5">
     <path d="m31.426 4.588v5.397h5.2v0.882h-5.2v5.441h-0.947v-5.441h-5.2l2e-6 -0.88197h5.2v-5.397h0.947z" fill="#fff"/>
    </g>
    <path d="m17.049 29.426h-6.517c-0.276 0-0.5-0.224-0.5-0.5s0.224-0.5 0.5-0.5h6.517c0.276 0 0.5 0.224 0.5 0.5s-0.224 0.5-0.5 0.5z" fill="#828282"/>
    <path d="m50.966 29.426h-6.517c-0.276 0-0.5-0.224-0.5-0.5s0.224-0.5 0.5-0.5h6.517c0.276 0 0.5 0.224 0.5 0.5s-0.224 0.5-0.5 0.5z" fill="#828282"/>
    <path d="m9.294 24.028c0-2.078 2.041-3.77 4.501-3.77 2.461 0 4.486 1.691 4.486 3.77 0-1.792-2.312-3.25-4.486-3.25-2.174 0-4.501 1.458-4.501 3.25z" fill="#fff" opacity=".3"/>
    <path d="m43.214 24.028c0-2.078 2.041-3.77 4.501-3.77 2.461 0 4.486 1.691 4.486 3.77 0-1.792-2.312-3.25-4.486-3.25s-4.501 1.458-4.501 3.25z" fill="#fff" opacity=".3"/>
   </g>
  </g>
  <g transform="translate(1.62 54.14)">
   <g transform="matrix(0 1 -1 0 18.4 -1.4)">
    <style type="text/css">.st0{fill:#DCDCDC;}
	.st1{fill:#B4B4B4;}
	.st2{fill:#333333;}</style>
    <rect class="st0" x="15.9" width="2.3" height="17"/>
    <rect class="st0" x="8.8" width="2.3" height="17"/>
    <rect class="st0" x="1.7" width="2.3" height="17"/>
    <rect class="st1" x="15.9" y="2.8" width="2.3" height="11.3"/>
    <rect class="st1" x="8.8" y="2.8" width="2.3" height="11.3"/>
    <rect class="st1" x="1.7" y="2.8" width="2.3" height="11.3"/>
    <rect y="3.5" width="19.8" height="9.9"/>
    <polygon class="st0" points="1.4 10.6 1.4 13.5 18.4 13.5 18.4 10.6 19.8 10.6 19.8 6.4 18.4 6.4 18.4 3.5 14.2 3.5 14.2 6.4 5.7 6.4 5.7 3.5 1.4 3.5 1.4 6.4 0 6.4 0 10.6"/>
    <rect class="st2" x="9.9" y="3.5" width="4.3" height="2.8"/>
    <circle class="st1" cx="7.8" cy="8.5" r="1.4"/>
    <circle class="st1" cx="12" cy="8.5" r="1.4"/>
   </g>
  </g>
  <g transform="translate(64.686 42.256)">
   <path d="m14.022 6.179c-0.046-0.288-0.202-0.37-0.578-0.49-0.286-0.091-2.2-0.701-2.2-0.701s-1.333-0.504-2.323 0.208c-0.13299 0.096-0.27101 0.205-0.41004 0.322 0.117-0.139 0.226-0.277 0.322-0.41 0.711-0.99 0.205-2.323 0.205-2.323s-0.61297-1.914-0.706-2.199c-0.12096-0.376-0.20296-0.532-0.49096-0.577-0.287-0.045-0.413 0.078-0.64402 0.398-0.175 0.244-1.347 1.876-1.347 1.876s-0.891 1.113-0.519 2.274c0.05 0.156 0.111 0.321 0.18 0.489-0.096-0.154-0.194-0.3-0.291-0.433-0.723-0.981-2.147-0.912-2.147-0.912s-2.009-8e-3 -2.309-9e-3c-0.395-1e-3 -0.568 0.029-0.7 0.289-0.132 0.259-0.053999 0.417 0.179 0.735 0.177 0.242 1.367 1.861 1.367 1.861s0.783 1.191 2.002 1.196c0.164 1e-3 0.339-7e-3 0.52-0.02-0.176 0.044-0.345 0.091-0.5 0.143-1.156 0.385-1.53 1.76-1.53 1.76s-0.629 1.908-0.722 2.194c-0.123 0.375-0.148 0.549 0.058 0.755s0.38 0.18 0.755 0.057c0.285-0.094 2.192-0.726 2.192-0.726s1.375-0.377 1.757-1.535c0.051-0.155 0.098-0.324 0.142-0.499-0.012 0.18-0.02 0.355-0.019 0.519 7e-3 1.219 1.2 2 1.2 2s1.621 1.187 1.863 1.364c0.319 0.233 0.477 0.31 0.736 0.178s0.289-0.306 0.287-0.701c-1e-3 -0.3-0.013-2.309-0.013-2.309s0.067-1.424-0.917-2.145c-0.13098-0.096001-0.27599-0.19298-0.43-0.28903 0.168 0.068 0.332 0.129 0.488 0.178 1.161 0.37 2.273-0.523 2.273-0.523s1.63-1.174 1.873-1.35c0.32-0.23197 0.443-0.35797 0.397-0.64497zm-6.919-1.479c0.219 0.034 0.328 0.5 0.243 1.04s-0.332 0.95-0.551 0.916-0.328-0.5-0.243-1.041c0.085-0.54 0.332-0.95 0.551-0.915zm-2.806 1.432c0.101-0.198 0.577-0.157 1.065 0.091 0.487 0.248 0.801 0.61 0.701 0.807-0.101 0.19801-0.578 0.157-1.066-0.089998-0.487-0.248-0.801-0.61-0.7-0.808zm1.479 2.695c-0.386 0.387-0.827 0.57399-0.984 0.41703-0.157-0.15603 0.029-0.59703 0.416-0.98403 0.386-0.387 0.827-0.574 0.984-0.417 0.157 0.156-0.029002 0.597-0.416 0.984zm2.129 0.908c-0.198 0.1-0.559-0.213-0.808-0.7-0.24902-0.487-0.29002-0.964-0.093022-1.065 0.198-0.101 0.559 0.213 0.808 0.7 0.24898 0.48706 0.29102 0.96406 0.093022 1.065zm0.513-2.257c-0.54 0.086-1.006-0.022-1.041-0.241-0.03504-0.21899 0.375-0.46599 0.915-0.55199s1.006 0.022 1.041 0.241c0.03497 0.219-0.375 0.46602-0.915 0.55199z" fill="#DCDCDC"/>
  </g>
 </g>
</svg>
