<?xml version="1.0" encoding="UTF-8"?>
<!-- Generator: Adobe Illustrator 20.0.0, SVG Export Plug-In . SVG Version: 6.00 Build 0)  -->
<svg width="1.3779in" height="1.398in" baseProfile="tiny" version="1.2" viewBox="0 0 99.212 100.65" xml:space="preserve" xmlns="http://www.w3.org/2000/svg" xmlns:xml="http://www.w3.org/XML/1998/namespace">
    <desc>
        <referenceFile>Adafruit OLED Monochrome 128x64 1.3 inch_breadboard.svg</referenceFile>
    </desc>
    <desc>Fritzing breadboard generated by brd2svg</desc>
    <g id="breadboard">
        <g id="icon">
            <path d="m82.205 94.985v-11.339h-65.197v11.339c0 3.131-2.538 5.669-5.669 5.669-6.262 0-11.339-5.076-11.339-11.339v-79.37c0.392-5.871 5.468-10.313 11.339-9.921h76.535c6.262 0 11.339 5.076 11.339 11.339v77.953c0 6.262-5.076 11.339-11.339 11.339-3.131-1e-3 -5.669-2.539-5.669-5.67m-59.216-86.259c0 0.783 0.635 1.417 1.417 1.417 0.783 0 1.417-0.635 1.417-1.417s-0.635-1.417-1.417-1.417-1.417 0.634-1.417 1.417zm7.2 0c0 0.783 0.635 1.417 1.417 1.417 0.783 0 1.417-0.635 1.417-1.417s-0.635-1.417-1.417-1.417-1.417 0.634-1.417 1.417zm7.2 0c0 0.783 0.635 1.417 1.417 1.417s1.417-0.635 1.417-1.417-0.635-1.417-1.417-1.417-1.417 0.634-1.417 1.417zm7.2 0c0 0.783 0.635 1.417 1.417 1.417 0.783 0 1.417-0.635 1.417-1.417 0-0.783-0.635-1.417-1.417-1.417s-1.417 0.634-1.417 1.417zm7.2 0c0 0.783 0.635 1.417 1.417 1.417s1.417-0.635 1.417-1.417-0.635-1.417-1.417-1.417-1.417 0.634-1.417 1.417zm7.2 0c0 0.783 0.635 1.417 1.417 1.417s1.417-0.635 1.417-1.417-0.635-1.417-1.417-1.417-1.417 0.634-1.417 1.417zm7.2 0c0 0.783 0.635 1.417 1.417 1.417 0.783 0 1.417-0.635 1.417-1.417s-0.635-1.417-1.417-1.417-1.417 0.634-1.417 1.417zm7.2 0c0 0.783 0.635 1.417 1.417 1.417 0.783 0 1.417-0.635 1.417-1.417s-0.635-1.417-1.417-1.417-1.417 0.634-1.417 1.417zm13.776-0.198c-3e-3 1.957 1.58 3.546 3.537 3.55 1.957 3e-3 3.546-1.58 3.55-3.537v-0.012c3e-3 -1.957-1.58-3.546-3.537-3.55-1.957-3e-3 -3.546 1.58-3.55 3.537v0.012zm-82.204 83.622c-3e-3 1.957 1.58 3.546 3.537 3.549s3.546-1.58 3.549-3.537v-0.012c3e-3 -1.957-1.58-3.546-3.537-3.549s-3.546 1.58-3.549 3.537v0.012zm82.204 0c-3e-3 1.957 1.58 3.546 3.537 3.55 1.957 3e-3 3.546-1.58 3.55-3.537v-0.012c3e-3 -1.957-1.58-3.546-3.537-3.55-1.957-3e-3 -3.546 1.58-3.55 3.537v0.012zm-82.204-83.622c-3e-3 1.957 1.58 3.546 3.537 3.549s3.546-1.58 3.549-3.537v-0.012c3e-3 -1.957-1.58-3.546-3.537-3.549s-3.546 1.58-3.549 3.537v0.012z" fill="#014CB1"/>
            <g>
                <title>layer 21</title>
                <g>
                    <title>text:Gnd</title>
                    <g transform="translate(71.416 15.694)">
                        
                            <text fill="#FFFFFF" font-family="'OCRA'" font-size="2.6726">Gnd</text>
                        
                    </g>
                </g>
                <g>
                    <title>text:Vin</title>
                    <g transform="translate(64.576 4.8935)">
                        
                            <text fill="#FFFFFF" font-family="'OCRA'" font-size="2.6726">Vin</text>
                        
                    </g>
                </g>
                <g>
                    <title>text:3v3</title>
                    <g transform="translate(57.016 15.694)">
                        
                            <text fill="#FFFFFF" font-family="'OCRA'" font-size="2.6726">3v3</text>
                        
                    </g>
                </g>
                <g>
                    <title>text:CS</title>
                    <g transform="translate(50.896 4.8935)">
                        
                            <text fill="#FFFFFF" font-family="'OCRA'" font-size="2.6726">CS</text>
                        
                    </g>
                </g>
                <g>
                    <title>text:Rst</title>
                    <g transform="translate(43.696 15.694)">
                        
                            <text fill="#FFFFFF" font-family="'OCRA'" font-size="2.6726">Rst</text>
                        
                    </g>
                </g>
                <g>
                    <title>text:SA0</title>
                    <g transform="translate(35.056 4.8935)">
                        
                            <text fill="#FFFFFF" font-family="'OCRA'" font-size="2.6726">SA0</text>
                        
                    </g>
                </g>
                <g>
                    <title>text:Clk</title>
                    <g transform="translate(27.856 15.694)">
                        
                            <text fill="#FFFFFF" font-family="'OCRA'" font-size="2.6726">Clk</text>
                        
                    </g>
                </g>
                <g>
                    <title>text:Data</title>
                    <g transform="translate(20.296 4.8935)">
                        
                            <text fill="#FFFFFF" font-family="'OCRA'" font-size="2.6726">Data</text>
                        
                    </g>
                </g>
                <g>
                    <title>text:DC</title>
                    <g transform="translate(36.496 15.694)">
                        
                            <text fill="#FFFFFF" font-family="'OCRA'" font-size="2.6726">DC</text>
                        
                    </g>
                </g>
                <g>
                    <title>element:C1</title>
                    <g>
                        <title>package:0805</title>
                    </g>
                </g>
                <g>
                    <title>element:C2</title>
                    <g>
                        <title>package:0805</title>
                    </g>
                </g>
                <g>
                    <title>element:C3</title>
                    <g>
                        <title>package:0805</title>
                    </g>
                </g>
                <g>
                    <title>element:C4</title>
                    <g>
                        <title>package:0805</title>
                    </g>
                </g>
                <g>
                    <title>element:C5</title>
                    <g>
                        <title>package:0805</title>
                    </g>
                </g>
                <g>
                    <title>element:C6</title>
                    <g>
                        <title>package:0805</title>
                    </g>
                </g>
                <g>
                    <title>element:C7</title>
                    <g>
                        <title>package:0805</title>
                    </g>
                </g>
                <g>
                    <title>element:C8</title>
                    <g>
                        <title>package:0805</title>
                    </g>
                </g>
                <g>
                    <title>element:D1</title>
                    <g>
                        <title>package:SOD-323</title>
                    </g>
                </g>
                <g>
                    <title>element:D2</title>
                    <g>
                        <title>package:SOD-323</title>
                    </g>
                </g>
                <g>
                    <title>element:D3</title>
                    <g>
                        <title>package:SOD-323</title>
                    </g>
                </g>
                <g>
                    <title>element:FID1</title>
                    <g>
                        <title>package:FIDUCIAL_1MM</title>
                    </g>
                </g>
                <g>
                    <title>element:FID2</title>
                    <g>
                        <title>package:FIDUCIAL_1MM</title>
                    </g>
                </g>
                <g>
                    <title>element:JP1</title>
                    <g>
                        <title>package:1X08_ROUND_70</title>
                    </g>
                </g>
                <g>
                    <title>element:Q1</title>
                    <g>
                        <title>package:SOT23-WIDE</title>
                    </g>
                </g>
                <g>
                    <title>element:Q2</title>
                    <g>
                        <title>package:SOT23-WIDE</title>
                    </g>
                </g>
                <g>
                    <title>element:R2</title>
                    <g>
                        <title>package:0805</title>
                    </g>
                </g>
                <g>
                    <title>element:R3</title>
                    <g>
                        <title>package:0805</title>
                    </g>
                </g>
                <g>
                    <title>element:R4</title>
                    <g>
                        <title>package:0805</title>
                    </g>
                </g>
                <g>
                    <title>element:R5</title>
                    <g>
                        <title>package:0805</title>
                    </g>
                </g>
                <g>
                    <title>element:R6</title>
                    <g>
                        <title>package:0805</title>
                    </g>
                </g>
                <g>
                    <title>element:R11</title>
                    <g>
                        <title>package:0805</title>
                    </g>
                </g>
                <g>
                    <title>element:R12</title>
                    <g>
                        <title>package:0805</title>
                    </g>
                </g>
                <g>
                    <title>element:R13</title>
                    <g>
                        <title>package:0805</title>
                    </g>
                </g>
                <g>
                    <title>element:R14</title>
                    <g>
                        <title>package:0805</title>
                    </g>
                </g>
                <g>
                    <title>element:SJ1</title>
                    <g>
                        <title>package:SOLDERJUMPER_REFLOW_NOPASTE</title>
                    </g>
                </g>
                <g>
                    <title>element:SJ2</title>
                    <g>
                        <title>package:SOLDERJUMPER_REFLOW_NOPASTE</title>
                    </g>
                </g>
                <g>
                    <title>element:U$23</title>
                    <g>
                        <title>package:MOUNTINGHOLE_2.5_PLATED</title>
                        <circle cx="90.709" cy="8.528" r="4.961" fill="none" stroke="#fff" stroke-width=".432"/>
                    </g>
                </g>
                <g>
                    <title>element:U$24</title>
                    <g>
                        <title>package:MOUNTINGHOLE_2.5_PLATED</title>
                        <circle cx="8.504" cy="92.15" r="4.961" fill="none" stroke="#fff" stroke-width=".432"/>
                    </g>
                </g>
                <g>
                    <title>element:U$25</title>
                    <g>
                        <title>package:MOUNTINGHOLE_2.5_PLATED</title>
                        <circle cx="90.709" cy="92.15" r="4.961" fill="none" stroke="#fff" stroke-width=".432"/>
                    </g>
                </g>
                <g>
                    <title>element:U$26</title>
                    <g>
                        <title>package:MOUNTINGHOLE_2.5_PLATED</title>
                        <circle cx="8.504" cy="8.528" r="4.961" fill="none" stroke="#fff" stroke-width=".432"/>
                    </g>
                </g>
                <g>
                    <title>element:U$27</title>
                    <g>
                        <title>package:ADAFRUIT_2.5MM</title>
                    </g>
                </g>
                <g>
                    <title>element:U$28</title>
                    <g>
                        <title>package:LOGIC_5VREADY_5MM</title>
                    </g>
                </g>
                <g>
                    <title>element:U1</title>
                    <g>
                        <title>package:UG-2864HSWEG01_1.3_WRAPAROUND</title>
                        <line x1=".856" x2="98.652" y1="18.33" y2="18.33" fill="none" stroke="#fff" stroke-linecap="round" stroke-width=".36"/>
                        <line x1="98.652" x2="98.652" y1="18.33" y2="83.526" fill="none" stroke="#fff" stroke-linecap="round" stroke-width=".36"/>
                        <line x1="98.652" x2=".856" y1="83.526" y2="83.526" fill="none" stroke="#fff" stroke-linecap="round" stroke-width=".36"/>
                        <line x1=".856" x2=".856" y1="83.526" y2="18.33" fill="none" stroke="#fff" stroke-linecap="round" stroke-width=".36"/>
                    </g>
                </g>
                <g>
                    <title>element:U2</title>
                    <g>
                        <title>package:SOT23-5</title>
                    </g>
                </g>
            </g>
            <circle id="connector5pin" cx="24.406" cy="8.726" r="1.969" fill="none" stroke="#9A916C" stroke-width="1.1027"/>
            <circle id="connector6pin" cx="31.606" cy="8.726" r="1.969" fill="none" stroke="#9A916C" stroke-width="1.1027"/>
            <circle id="connector7pin" cx="38.806" cy="8.726" r="1.969" fill="none" stroke="#9A916C" stroke-width="1.1027"/>
            <circle id="connector8pin" cx="46.006" cy="8.726" r="1.969" fill="none" stroke="#9A916C" stroke-width="1.1027"/>
            <circle id="connector9pin" cx="53.206" cy="8.726" r="1.969" fill="none" stroke="#9A916C" stroke-width="1.1027"/>
            <circle id="connector10pin" cx="60.406" cy="8.726" r="1.969" fill="none" stroke="#9A916C" stroke-width="1.1027"/>
            <circle id="connector11pin" cx="67.606" cy="8.726" r="1.969" fill="none" stroke="#9A916C" stroke-width="1.1027"/>
            <circle id="connector12pin" cx="74.807" cy="8.726" r="1.969" fill="none" stroke="#9A916C" stroke-width="1.1027"/>
            <circle id="connector13pin" cx="90.709" cy="8.528" r="4.039" fill="none" stroke="#9A916C" stroke-width=".9921"/>
            <circle id="connector14pin" cx="8.504" cy="92.15" r="4.039" fill="none" stroke="#9A916C" stroke-width=".9921"/>
            <circle id="connector15pin" cx="90.709" cy="92.15" r="4.039" fill="none" stroke="#9A916C" stroke-width=".9921"/>
            <circle id="connector16pin" cx="8.504" cy="8.528" r="4.039" fill="none" stroke="#9A916C" stroke-width=".9921"/>
        </g>
        <g transform="translate(74.958 4.3711)">
            
                
                    <g transform="matrix(0 1 -1 0 9.777 0)">
                        
                            
                                <path d="m9.747 3.082c-0.023-0.142-0.1-0.183-0.286-0.243-0.142-0.045-1.089-0.347-1.089-0.347s-0.66-0.249-1.15 0.103c-0.066 0.048-0.134 0.102-0.203 0.16 0.058-0.069 0.112-0.137 0.159-0.203 0.352-0.49 0.101-1.15 0.101-1.15s-0.303-0.947-0.349-1.089c-0.06-0.186-0.1-0.263-0.243-0.285-0.142-0.023-0.204 0.038-0.318 0.197-0.087 0.12-0.667 0.928-0.667 0.928s-0.441 0.551-0.257 1.126c0.025 0.077 0.055 0.159 0.089 0.242-0.048-0.076-0.096-0.149-0.144-0.214-0.358-0.486-1.062-0.452-1.062-0.452s-0.995-4e-3 -1.143-4e-3c-0.195 0-0.281 0.014-0.347 0.143-0.065 0.128-0.027 0.206 0.089 0.364 0.088 0.12 0.677 0.921 0.677 0.921s0.388 0.59 0.991 0.592c0.081 0 0.168-3e-3 0.257-0.01-0.087 0.022-0.171 0.046-0.248 0.071-0.573 0.19-0.758 0.871-0.758 0.871s-0.31 0.944-0.357 1.085c-0.061 0.186-0.073 0.272 0.029 0.374s0.188 0.09 0.374 0.028c0.141-0.046 1.085-0.359 1.085-0.359s0.681-0.187 0.869-0.76c0.025-0.077 0.049-0.16 0.07-0.247-6e-3 0.09-9e-3 0.176-9e-3 0.257 4e-3 0.603 0.594 0.99 0.594 0.99s0.802 0.588 0.922 0.675c0.158 0.116 0.236 0.154 0.365 0.089 0.128-0.066 0.143-0.152 0.142-0.347-1e-3 -0.149-6e-3 -1.143-6e-3 -1.143s0.033-0.705-0.454-1.062c-0.065-0.048-0.138-0.096-0.214-0.143 0.083 0.034 0.165 0.064 0.242 0.088 0.575 0.183 1.125-0.259 1.125-0.259s0.807-0.581 0.927-0.668c0.159-0.115 0.219-0.177 0.197-0.319zm-3.425-0.732c0.108 0.017 0.162 0.248 0.12 0.515s-0.164 0.47-0.273 0.453c-0.108-0.017-0.162-0.248-0.12-0.515 0.042-0.268 0.164-0.471 0.273-0.453zm-1.389 0.709c0.05-0.098 0.286-0.078 0.527 0.045s0.397 0.302 0.347 0.399c-0.05 0.098-0.286 0.078-0.527-0.045-0.242-0.123-0.397-0.301-0.347-0.399zm0.732 1.334c-0.191 0.191-0.409 0.284-0.487 0.206-0.077-0.078 0.015-0.296 0.206-0.487 0.191-0.192 0.409-0.285 0.487-0.207s-0.014 0.296-0.206 0.488zm1.054 0.449c-0.098 0.05-0.277-0.105-0.4-0.346-0.123-0.242-0.144-0.478-0.046-0.528s0.277 0.105 0.4 0.346c0.123 0.242 0.144 0.478 0.046 0.528zm0.254-1.117c-0.267 0.042-0.498-0.011-0.516-0.119-0.017-0.109 0.186-0.231 0.453-0.274s0.498 0.011 0.515 0.119c0.018 0.109-0.185 0.231-0.452 0.274z" fill="#DCDCDC"/>
                            
                        
                    </g>
                
            
        </g>
    </g>
    <rect x=".797" y="18.33" width="97.795" height="65.09" fill="#416699" stroke="#00f" stroke-miterlimit="10" stroke-width=".0361"/>
    <rect x="2.215" y="19.749" width="94.961" height="51.304" fill="#140A14"/>
    <rect x="7.796" y="24.277" width="83.764" height="41.303" fill="#333"/>
    <g transform="translate(19.883 47.91)">
        
            <text fill="#FFFFFF" font-family="Noto Sans" font-size="8">128x64 OLED</text>
        
    </g>
    <path d="m32.666 83.419v0.946l0.135 0.338 0.27 0.203c0.752 0.256 1.089 0.921 1.007 1.542h31.226v-0.461l0.169-0.439 0.338-0.405 0.473-0.237 0.304-0.203 0.101-0.338v-1.993h-34.023v1.047z" fill="#E6AA50"/>
    <polygon points="64.291 86.448 64.291 84.433 64.427 83.892 64.731 83.419 65.204 83.115 65.744 82.98 69.529 82.98 70.069 82.879 70.508 82.575 70.846 82.102 70.948 81.595 70.948 74.229 70.846 73.655 70.508 73.182 70.069 72.911 69.529 72.776 29.828 72.776 29.321 72.911 28.848 73.182 28.544 73.655 28.409 74.229 28.409 81.595 28.544 82.102 28.848 82.575 29.321 82.879 29.828 82.98 33.646 82.98 34.186 83.115 34.626 83.419 34.963 83.892 35.065 84.433 35.065 86.448"/>
</svg>
