<?xml version="1.0" encoding="UTF-8"?>
<!-- Generator: Adobe Illustrator 20.0.0, SVG Export Plug-In . SVG Version: 6.00 Build 0)  -->
<svg width=".5in" height=".5in" baseProfile="tiny" version="1.2" viewBox="0 0 36 36" xml:space="preserve" xmlns="http://www.w3.org/2000/svg" xmlns:xml="http://www.w3.org/XML/1998/namespace">
    <desc>
        <referenceFile>Adafruit Touch Screen Breakout_breadboard.svg</referenceFile>
    </desc>
    <desc>Fritzing breadboard generated by brd2svg</desc>
    <g id="breadboard">
        <g id="icon">
            <path d="m7.2 0h21.6c3.976 0 7.2 3.224 7.2 7.2v21.6c0 3.976-3.224 7.2-7.2 7.2h-21.6c-3.976 0-7.2-3.224-7.2-7.2v-21.6c0-3.976 3.224-7.2 7.2-7.2m-4.689 19.44c-3e-3 2.192 1.771 3.971 3.962 3.975s3.971-1.771 3.975-3.962v-0.012c3e-3 -2.192-1.77-3.971-3.962-3.975-2.192-3e-3 -3.971 1.77-3.975 3.962v0.012zm23.76 0c-4e-3 2.192 1.77 3.971 3.962 3.975s3.971-1.77 3.975-3.962v-0.013c4e-3 -2.192-1.77-3.971-3.962-3.975s-3.971 1.77-3.975 3.962v0.013zm-20.511 11.52c0 0.795 0.645 1.44 1.44 1.44s1.44-0.645 1.44-1.44-0.645-1.44-1.44-1.44-1.44 0.645-1.44 1.44zm7.2 0c0 0.795 0.645 1.44 1.44 1.44s1.44-0.645 1.44-1.44-0.645-1.44-1.44-1.44-1.44 0.645-1.44 1.44zm7.2 0c0 0.795 0.645 1.44 1.44 1.44s1.44-0.645 1.44-1.44-0.645-1.44-1.44-1.44-1.44 0.645-1.44 1.44zm7.2 0c0 0.795 0.645 1.44 1.44 1.44s1.44-0.645 1.44-1.44-0.645-1.44-1.44-1.44-1.44 0.645-1.44 1.44z" fill="#014CB1"/>
            <g>
                <title>layer 21</title>
                <g>
                    <title>text:X-</title>
                    <g transform="translate(5.04 27.36)">
                        
                            <text fill="#FFFFFF" font-family="'OCRA'" font-size="2.6726">X-</text>
                        
                    </g>
                </g>
                <g>
                    <title>text:Y+</title>
                    <g transform="translate(12.24 27.36)">
                        
                            <text fill="#FFFFFF" font-family="'OCRA'" font-size="2.6726">Y+</text>
                        
                    </g>
                </g>
                <g>
                    <title>text:X+</title>
                    <g transform="translate(19.44 27.36)">
                        
                            <text fill="#FFFFFF" font-family="'OCRA'" font-size="2.6726">X+</text>
                        
                    </g>
                </g>
                <g>
                    <title>text:Y-</title>
                    <g transform="translate(26.64 27.36)">
                        
                            <text fill="#FFFFFF" font-family="'OCRA'" font-size="2.6726">Y-</text>
                        
                    </g>
                </g>
                <g>
                    <title>text:touch</title>
                    <g transform="translate(12.24 19.44)">
                        
                            <text fill="#FFFFFF" font-family="'OCRA'" font-size="2.6726">touch</text>
                        
                    </g>
                </g>
                <g>
                    <title>text:screen</title>
                    <g transform="translate(10.8 22.32)">
                        
                            <text fill="#FFFFFF" font-family="'OCRA'" font-size="2.6726">screen</text>
                        
                    </g>
                </g>
                <g>
                    <title>element:CN1</title>
                    <g>
                        <title>package:FPC_0.5MM-4</title>
                        <line x1="24.945" x2="10.205" y1="13.3" y2="13.3" fill="none" stroke="#fff" stroke-linecap="round" stroke-width=".36"/>
                        <line x1="10.205" x2="8.787" y1="13.3" y2="11.883" fill="none" stroke="#fff" stroke-linecap="round" stroke-width=".36"/>
                        <line x1="8.787" x2="8.787" y1="11.883" y2=".544" fill="none" stroke="#fff" stroke-linecap="round" stroke-width=".36"/>
                        <line x1="8.787" x2="26.504" y1=".544" y2=".544" fill="none" stroke="#fff" stroke-linecap="round" stroke-width=".36"/>
                        <line x1="26.504" x2="26.504" y1=".544" y2="3.804" fill="none" stroke="#fff" stroke-linecap="round" stroke-width=".36"/>
                        <line x1="26.504" x2="26.504" y1="3.804" y2="11.741" fill="none" stroke="#fff" stroke-linecap="round" stroke-width=".36"/>
                        <line x1="26.504" x2="24.945" y1="11.741" y2="13.3" fill="none" stroke="#fff" stroke-linecap="round" stroke-width=".36"/>
                        <line x1="26.504" x2="22.394" y1="3.804" y2="3.804" fill="none" stroke="#fff" stroke-linecap="round" stroke-width=".36"/>
                        <line x1="22.394" x2="22.394" y1="3.804" y2=".686" fill="none" stroke="#fff" stroke-linecap="round" stroke-width=".36"/>
                        <line x1="8.929" x2="12.756" y1="3.804" y2="3.804" fill="none" stroke="#fff" stroke-linecap="round" stroke-width=".36"/>
                        <line x1="12.756" x2="12.756" y1="3.804" y2=".686" fill="none" stroke="#fff" stroke-linecap="round" stroke-width=".36"/>
                    </g>
                </g>
                <g>
                    <title>element:JP1</title>
                    <g>
                        <title>package:1X04-CLEANBIG</title>
                    </g>
                </g>
                <g>
                    <title>element:U$1</title>
                    <g>
                        <title>package:ADAFRUIT200MIL</title>
                    </g>
                </g>
                <g>
                    <title>element:U$2</title>
                    <g>
                        <title>package:FIDUCIAL_1MM</title>
                    </g>
                </g>
                <g>
                    <title>element:U$3</title>
                    <g>
                        <title>package:FIDUCIAL_1MM</title>
                    </g>
                </g>
            </g>
            <g transform="matrix(0 1 -1 0 35.41 -4.8416)">
                
                    
                        <g transform="matrix(2.5352e-6 1 -1 2.5352e-6 35.41 -4.8416)">
                            
                                <rect id="connector5pin" x="19.701" y="13.513" width=".85" height="3.543" fill="#9A916C"/>
                            
                        </g>
                    
                
            </g>
            <g transform="matrix(0 1 -1 0 33.993 -3.4243)">
                
                    
                        <g transform="matrix(2.5352e-6 1 -1 2.5352e-6 33.993 -3.4243)">
                            
                                <rect id="connector6pin" x="18.283" y="13.513" width=".85" height="3.543" fill="#9A916C"/>
                            
                        </g>
                    
                
            </g>
            <g transform="matrix(0 1 -1 0 32.576 -2.0069)">
                
                    
                        <g transform="matrix(2.5352e-6 1 -1 2.5352e-6 32.576 -2.007)">
                            
                                <rect id="connector7pin" x="16.866" y="13.513" width=".85" height="3.543" fill="#9A916C"/>
                            
                        </g>
                    
                
            </g>
            <g transform="matrix(0 1 -1 0 31.158 -.58961)">
                
                    
                        <g transform="matrix(2.5352e-6 1 -1 2.5352e-6 31.158 -.5897)">
                            
                                <rect id="connector8pin" x="15.449" y="13.513" width=".85" height="3.543" fill="#9A916C"/>
                            
                        </g>
                    
                
            </g>
            <g transform="matrix(0 1 -1 0 36.261 -15.046)">
                
                    
                        <g transform="matrix(2.5352e-6 1 -1 2.5352e-6 36.261 -15.046)">
                            
                                <rect id="connector9pin" x="23.031" y="6.922" width="5.244" height="7.37" fill="#9A916C"/>
                            
                        </g>
                    
                
            </g>
            <g transform="matrix(0 1 -1 0 20.954 .26079)">
                
                    
                        <g transform="matrix(2.5352e-6 1 -1 2.5352e-6 20.954 .2608)">
                            
                                <rect id="connector10pin" x="7.724" y="6.922" width="5.244" height="7.37" fill="#9A916C"/>
                            
                        </g>
                    
                
            </g>
            <circle id="connector11pin" cx="7.2" cy="30.96" r="1.98" fill="none" stroke="#9A916C" stroke-width="1.08"/>
            <circle id="connector12pin" cx="14.4" cy="30.96" r="1.98" fill="none" stroke="#9A916C" stroke-width="1.08"/>
            <circle id="connector13pin" cx="21.6" cy="30.96" r="1.98" fill="none" stroke="#9A916C" stroke-width="1.08"/>
            <circle id="connector14pin" cx="28.8" cy="30.96" r="1.98" fill="none" stroke="#9A916C" stroke-width="1.08"/>
            <path id="connector15pin" d="m3.6 5.783c0.783 0 1.417 0.635 1.417 1.417 0 0.783-0.635 1.417-1.417 1.417-0.783 0-1.417-0.635-1.417-1.417 0-0.783 0.634-1.417 1.417-1.417z" fill="#9A916C"/>
            <path id="connector16pin" d="m32.4 5.783c0.783 0 1.417 0.635 1.417 1.417 0 0.783-0.635 1.417-1.417 1.417-0.783 0-1.417-0.635-1.417-1.417 0-0.783 0.634-1.417 1.417-1.417z" fill="#9A916C"/>
        </g>
    </g>
    
        <rect x="15.615" y="13.361" width=".567" height="2.835" fill="#DCDCDC"/>
        <rect x="17.032" y="13.361" width=".567" height="2.835" fill="#DCDCDC"/>
        <rect x="18.45" y="13.361" width=".567" height="2.835" fill="#DCDCDC"/>
        <rect x="19.867" y="13.361" width=".567" height="2.835" fill="#DCDCDC"/>
        <rect x="8.419" y="7.504" width="4.521" height="6.604" fill="#DCDCDC"/>
        <g transform="matrix(-1 -4.4662e-11 4.4662e-11 -1 50.74 21.612)">
            
                <rect x="23.109" y="7.504" width="4.521" height="6.604" fill="#DCDCDC"/>
            
        </g>
        <rect x="10.725" y="6.548" width="14.599" height="6.955" fill="#F0F0EB"/>
        <path d="m21.443 0.628 0.567-0.567h5.44v3.804h-0.29v6.352h-18.271v-6.352h-0.29v-3.804h5.44l0.567 0.567h6.837z" fill="#333"/>
        <polygon points="26.883 4.006 21.443 4.006 21.443 0.747 14.606 0.747 14.606 4.006 9.166 4.006 9.166 7.125 14.033 7.125 14.033 13.502 22.015 13.502 22.015 7.125 26.883 7.125" fill="#FAFAF5"/>
        <rect x="13.466" y="10.358" width=".567" height="3.144" fill="#DCDCDC"/>
        <rect x="22.015" y="10.358" width=".567" height="3.144" fill="#DCDCDC"/>
    
</svg>
