<?xml version="1.0" encoding="UTF-8"?>
<!-- Generator: Adobe Illustrator 20.0.0, SVG Export Plug-In . SVG Version: 6.00 Build 0)  -->
<svg width=".95in" height=".775in" baseProfile="tiny" version="1.2" viewBox="0 0 68.4 55.8" xml:space="preserve" xmlns="http://www.w3.org/2000/svg" xmlns:xml="http://www.w3.org/XML/1998/namespace">
    <desc>
        <referenceFile>Pixie_breadboard.svg</referenceFile>
    </desc>
    <desc>Fritzing breadboard generated by brd2svg</desc>
    <g id="breadboard">
        <g id="icon">
            <path d="m6.3 21.6v-7.2c0-3.976 3.224-7.2 7.2-7.2h3.6c1.988 0 3.6-1.612 3.6-3.6s1.612-3.6 3.6-3.6h19.8c1.988 0 3.6 1.612 3.6 3.6s1.612 3.6 3.6 3.6h3.6c3.976 0 7.2 3.224 7.2 7.2v7.2c3.479 0 6.3 2.82 6.3 6.3s-2.82 6.3-6.3 6.3v7.2c0 3.976-3.224 7.2-7.2 7.2h-3.6c-1.988 0-3.6 1.612-3.6 3.6s-1.612 3.6-3.6 3.6h-19.8c-1.988 0-3.6-1.612-3.6-3.6s-1.612-3.6-3.6-3.6h-3.6c-3.976 0-7.2-3.224-7.2-7.2v-7.2c-3.479 0-6.3-2.82-6.3-6.3s2.82-6.3 6.3-6.3m-3.735 6.3c-3e-3 1.566 1.264 2.837 2.829 2.84 1.566 3e-3 2.837-1.264 2.84-2.829v-0.011c3e-3 -1.566-1.264-2.837-2.829-2.84-1.566-3e-3 -2.837 1.264-2.84 2.829v0.011zm57.6 0c-3e-3 1.566 1.264 2.837 2.83 2.839 1.566 3e-3 2.837-1.264 2.839-2.83v-9e-3c3e-3 -1.566-1.263-2.837-2.829-2.84s-2.837 1.263-2.84 2.829v0.011zm-21.316 21.6c0 1.409 1.142 2.551 2.551 2.551s2.551-1.142 2.551-2.551-1.142-2.551-2.551-2.551-2.551 1.142-2.551 2.551zm-6.089 0c0 0.795 0.645 1.44 1.44 1.44s1.44-0.645 1.44-1.44-0.645-1.44-1.44-1.44-1.44 0.645-1.44 1.44zm-8.311 0c0 1.409 1.142 2.551 2.551 2.551s2.551-1.142 2.551-2.551-1.142-2.551-2.551-2.551-2.551 1.142-2.551 2.551zm14.4-43.2c0 1.409 1.142 2.551 2.551 2.551s2.551-1.142 2.551-2.551-1.142-2.551-2.551-2.551-2.551 1.142-2.551 2.551zm-6.089 0c0 0.795 0.645 1.44 1.44 1.44s1.44-0.645 1.44-1.44-0.645-1.44-1.44-1.44-1.44 0.645-1.44 1.44zm-8.311 0c0 1.409 1.142 2.551 2.551 2.551s2.551-1.142 2.551-2.551-1.142-2.551-2.551-2.551-2.551 1.142-2.551 2.551z" fill="#0A0A0A"/>
            <g>
                <title>layer 21</title>
                <g>
                    <title>text:+</title>
                    <g transform="translate(43.2 55.541)">
                        
                            
                                <text fill="#FFFFFF" font-family="'OCRA'" font-size="2.6726">+</text>
                            
                        
                    </g>
                </g>
                <g>
                    <title>text:in</title>
                    <g transform="translate(31.785 55.541)">
                        
                            
                                <text fill="#FFFFFF" font-family="'OCRA'" font-size="2.6726">in</text>
                            
                        
                    </g>
                </g>
                <g>
                    <title>text:-</title>
                    <g transform="translate(22.785 55.541)">
                        
                            
                                <text fill="#FFFFFF" font-family="'OCRA'" font-size="2.6726">-</text>
                            
                        
                    </g>
                </g>
                <g>
                    <title>text:+</title>
                    <g transform="translate(46.541 3.6)">
                        
                            
                                
                                    <g transform="rotate(270)">
                                        
                                            
                                                
                                                    <g transform="translate(.00039062 -2.6516e-5)">
                                                        
                                                            
                                                                <text fill="#FFFFFF" font-family="'OCRA'" font-size="2.6726">+</text>
                                                            
                                                        
                                                    </g>
                                                
                                            
                                        
                                    </g>
                                
                            
                        
                    </g>
                </g>
                <g>
                    <title>text:out</title>
                    <g transform="translate(30.577 3.6)">
                        
                            
                                <text fill="#FFFFFF" font-family="'OCRA'" font-size="2.6726">out</text>
                            
                        
                    </g>
                </g>
                <g>
                    <title>text:-</title>
                    <g transform="translate(22.335 3.6)">
                        
                            
                                <text fill="#FFFFFF" font-family="'OCRA'" font-size="2.6726">-</text>
                            
                        
                    </g>
                </g>
                <g>
                    <title>element:!MCLR</title>
                    <g>
                        <title>package:PAD.03X.04</title>
                    </g>
                </g>
                <g>
                    <title>element:IN</title>
                    <g>
                        <title>package:1X03-0.1PWR+SIG</title>
                    </g>
                </g>
                <g>
                    <title>element:LED1</title>
                    <g>
                        <title>package:RGBLED3W4PIN</title>
                    </g>
                </g>
                <g>
                    <title>element:OUT</title>
                    <g>
                        <title>package:1X03-0.1PWR+SIG</title>
                    </g>
                </g>
                <g>
                    <title>element:PGC</title>
                    <g>
                        <title>package:PAD.03X.04</title>
                    </g>
                </g>
                <g>
                    <title>element:PGD</title>
                    <g>
                        <title>package:PAD.03X.04</title>
                    </g>
                </g>
                <g>
                    <title>element:R1</title>
                    <g>
                        <title>package:1206</title>
                    </g>
                </g>
                <g>
                    <title>element:R2</title>
                    <g>
                        <title>package:0603-RES</title>
                    </g>
                </g>
                <g>
                    <title>element:R3</title>
                    <g>
                        <title>package:1206</title>
                    </g>
                </g>
                <g>
                    <title>element:R4</title>
                    <g>
                        <title>package:0603-RES</title>
                    </g>
                </g>
                <g>
                    <title>element:R5</title>
                    <g>
                        <title>package:1206</title>
                    </g>
                </g>
                <g>
                    <title>element:R6</title>
                    <g>
                        <title>package:0603-RES</title>
                    </g>
                </g>
                <g>
                    <title>element:R7</title>
                    <g>
                        <title>package:0603-RES</title>
                    </g>
                </g>
                <g>
                    <title>element:R8</title>
                    <g>
                        <title>package:0603-RES</title>
                    </g>
                </g>
                <g>
                    <title>element:U$1</title>
                    <g>
                        <title>package:ALIGN_CROSS</title>
                    </g>
                </g>
                <g>
                    <title>element:U$2</title>
                    <g>
                        <title>package:ALIGN_CROSS</title>
                    </g>
                </g>
                <g>
                    <title>element:U$3</title>
                    <g>
                        <title>package:ALIGN_CROSS</title>
                    </g>
                </g>
                <g>
                    <title>element:U$4</title>
                    <g>
                        <title>package:ALIGN_CROSS</title>
                    </g>
                </g>
                <g>
                    <title>element:U$5</title>
                    <g>
                        <title>package:PIXIE-LOGO</title>
                    </g>
                </g>
                <g>
                    <title>element:U$6</title>
                    <g>
                        <title>package:FIDUCIAL_1MM</title>
                    </g>
                </g>
                <g>
                    <title>element:U$7</title>
                    <g>
                        <title>package:FIDUCIAL_1MM</title>
                    </g>
                </g>
            </g>
            <circle id="connector13pin" cx="41.4" cy="49.5" r="3.189" fill="none" stroke="#9A916C" stroke-width="1.2756"/>
            <circle id="connector14pin" cx="34.2" cy="49.5" r="1.8" fill="none" stroke="#9A916C" stroke-width=".72"/>
            <circle id="connector15pin" cx="27" cy="49.5" r="3.189" fill="none" stroke="#9A916C" stroke-width="1.2756"/>
            <circle id="connector16pin" cx="41.4" cy="6.3" r="3.189" fill="none" stroke="#9A916C" stroke-width="1.2756"/>
            <circle id="connector17pin" cx="34.2" cy="6.3" r="1.8" fill="none" stroke="#9A916C" stroke-width=".72"/>
            <circle id="connector18pin" cx="27" cy="6.3" r="3.189" fill="none" stroke="#9A916C" stroke-width="1.2756"/>
        </g>
    </g>
    <rect x="10.111" y="20.797" width="14.173" height="5.669" fill="#9A916C"/>
    <rect x="10.111" y="29.301" width="14.173" height="5.669" fill="#9A916C"/>
    <rect x="44.127" y="20.797" width="14.173" height="5.669" fill="#9A916C"/>
    <rect x="44.127" y="29.301" width="14.173" height="5.669" fill="#9A916C"/>
    <rect x="10.111" y="20.797" width="48.189" height="5.669" fill="#9A916C"/>
    <g transform="matrix(-1.837e-16 1 -1 -1.837e-16 58.121 -10.29)">
        
            
                <rect x="32.788" y=".955" width="2.835" height="45.921" fill="#C8C8C8"/>
            
        
    </g>
    <rect x="10.111" y="29.301" width="48.189" height="5.669" fill="#9A916C"/>
    <g transform="matrix(-1.837e-16 1 -1 -1.837e-16 66.058 -2.353)">
        
            
                <rect x="32.788" y="8.892" width="2.835" height="45.921" fill="#C8C8C8"/>
            
        
    </g>
    <path d="m44.127 22.399c-1.933-3.489-5.65-5.854-9.921-5.854-4.272 0-7.988 2.364-9.921 5.854v10.97c1.933 3.489 5.65 5.854 9.921 5.854 4.272 0 7.988-2.364 9.921-5.854v-10.97z" fill="#F0F0F0"/>
    <path d="m43.418 27.884c0-4.609-3.388-8.416-7.807-9.094 3e-3 -0.04 0.012-0.078 0.012-0.118 0-0.783-0.635-1.417-1.417-1.417-0.783 0-1.417 0.635-1.417 1.417 0 0.041 9e-3 0.079 0.012 0.118-4.419 0.678-7.807 4.485-7.807 9.094s3.388 8.416 7.807 9.094c-3e-3 0.04-0.012 0.078-0.012 0.118 0 0.783 0.635 1.417 1.417 1.417 0.783 0 1.417-0.635 1.417-1.417 0-0.041-9e-3 -0.079-0.012-0.118 4.419-0.678 7.807-4.485 7.807-9.094z" fill="#FAFAFA"/>
    <circle cx="34.205" cy="27.884" r="6.378" fill="#C8C8C8"/>
    <rect x="34.772" y="24.341" width="2.835" height="2.835" fill="#0f0"/>
    <rect x="30.804" y="24.341" width="2.835" height="2.835" fill="#f00"/>
    <rect x="32.788" y="28.593" width="2.835" height="2.835" fill="#00f"/>
    <circle cx="34.205" cy="21.506" r="1.417" fill="#fff"/>
</svg>
