<?xml version="1.0" encoding="UTF-8"?>
<!-- Created with Fritzing (http://www.fritzing.org/) -->
<svg width="2.0512in" height="1.2in" baseProfile="tiny" version="1.2" viewBox="0 0 147.68 86.4" xmlns="http://www.w3.org/2000/svg">
 <desc>
  <referenceFile>Adafruit USB Isolator_breadboard.svg</referenceFile>
 </desc>
 <desc>Fritzing breadboard generated by brd2svg</desc>
 <g id="breadboard">
  <g id="icon">
   <path d="m0 75.6v-64.8a10.8 10.8 0 0 1 10.8-10.8h108a10.8 10.8 0 0 1 10.8 10.8v64.8a10.8 10.8 0 0 1-10.8 10.8h-108a10.8 10.8 0 0 1-10.8-10.8m63.383-36.652a1.4173 1.4173 0 1 0 2.8346 0 1.4173 1.4173 0 1 0-2.8346 0zm0 8.504a1.4173 1.4173 0 1 0 2.8346 0 1.4173 1.4173 0 1 0-2.8346 0zm-47.565-10.488a1.4173 1.4173 0 1 0 2.8346 0 1.4173 1.4173 0 1 0-2.8346 0zm0 12.472a1.4173 1.4173 0 1 0 2.8346 0 1.4173 1.4173 0 1 0-2.8346 0zm99.44-38.636a3.5433 3.5433 0 1 0 7.0866 0 3.5433 3.5433 0 1 0-7.0866 0zm-108 64.8a3.5433 3.5433 0 1 0 7.0866 0 3.5433 3.5433 0 1 0-7.0866 0zm0-64.8a3.5433 3.5433 0 1 0 7.0866 0 3.5433 3.5433 0 1 0-7.0866 0zm108 64.8a3.5433 3.5433 0 1 0 7.0866 0 3.5433 3.5433 0 1 0-7.0866 0zm-5.485-35.235a1.3465 1.3465 0 1 0 2.6929 0 1.3465 1.3465 0 1 0-2.6929 0zm0 5.6692a1.3465 1.3465 0 1 0 2.6929 0 1.3465 1.3465 0 1 0-2.6929 0zm0-12.756a1.3465 1.3465 0 1 0 2.6929 0 1.3465 1.3465 0 1 0-2.6929 0zm5.768 28.545a3.2598 3.2598 0 1 0 6.5197 0 3.2598 3.2598 0 1 0-6.5197 0zm0-37.247a3.2598 3.2598 0 1 0 6.5197 0 3.2598 3.2598 0 1 0-6.5197 0zm-5.768 28.545a1.3465 1.3465 0 1 0 2.6929 0 1.3465 1.3465 0 1 0-2.6929 0z" fill="#014cb1" stroke-width="0"/>
   <g>
    <title>layer 21</title>
    <g>
     <title>text:100mA Full-Speed
USB Isolator</title>
     <g transform="translate(102.42 42.48)">
      <g transform="rotate(270)">
       <g transform="translate(0 -2.3386)">
        <text fill="#ffffff" font-family="OCRA" font-size="4.6771" stroke-width="0" text-anchor="middle">100mA Full-Speed</text>
       </g>
       <g transform="translate(0 2.3386)">
        <text fill="#ffffff" font-family="OCRA" font-size="4.6771" stroke-width="0" text-anchor="middle">USB Isolator</text>
       </g>
      </g>
     </g>
    </g>
    <g>
     <title>text:FULL</title>
     <g transform="translate(79.2 41.76)">
      <g transform="rotate(270)">
       <text fill="#ffffff" font-family="OCRA" font-size="3.3408" stroke-width="0">FULL</text>
      </g>
     </g>
    </g>
    <g>
     <title>text:LOW</title>
     <g transform="translate(79.2 53.28)">
      <g transform="rotate(270)">
       <text fill="#ffffff" font-family="OCRA" font-size="3.3408" stroke-width="0">LOW</text>
      </g>
     </g>
    </g>
    <g>
     <title>text:USB
SPEED
SELECT</title>
     <g transform="translate(48.47 43.2)">
      <g transform="rotate(270)">
       <g transform="translate(0 -3.3408)">
        <text fill="#ffffff" font-family="OCRA" font-size="3.3408" stroke-width="0" text-anchor="middle">USB</text>
       </g>
       <g transform="translate(0)">
        <text fill="#ffffff" font-family="OCRA" font-size="3.3408" stroke-width="0" text-anchor="middle">SPEED</text>
       </g>
       <g transform="translate(0 3.3408)">
        <text fill="#ffffff" font-family="OCRA" font-size="3.3408" stroke-width="0" text-anchor="middle">SELECT</text>
       </g>
      </g>
     </g>
    </g>
    <g>
     <title>text:VOUT</title>
     <g transform="translate(97.92 83.52)">
      <g transform="rotate(270)">
       <text fill="#ffffff" font-family="OCRA" font-size="3.3408" stroke-width="0">VOUT</text>
      </g>
     </g>
    </g>
    <g>
     <title>element:C1</title>
     <g>
      <title>package:0805-NO</title>
      <line x1="44.64" x2="41.76" y1="7.2" y2="7.2" stroke="#fff" stroke-linecap="round" stroke-width=".864"/>
     </g>
    </g>
    <g>
     <title>element:C2</title>
     <g>
      <title>package:0805-NO</title>
      <line x1="39.6" x2="39.6" y1="18" y2="15.12" stroke="#fff" stroke-linecap="round" stroke-width=".864"/>
     </g>
    </g>
    <g>
     <title>element:C3</title>
     <g>
      <title>package:0805-NO</title>
      <line x1="84.96" x2="87.84" y1="7.2" y2="7.2" stroke="#fff" stroke-linecap="round" stroke-width=".864"/>
     </g>
    </g>
    <g>
     <title>element:C4</title>
     <g>
      <title>package:0805-NO</title>
      <line x1="90" x2="90" y1="18" y2="15.12" stroke="#fff" stroke-linecap="round" stroke-width=".864"/>
     </g>
    </g>
    <g>
     <title>element:C5</title>
     <g>
      <title>package:0805-NO</title>
      <line x1="87.84" x2="84.96" y1="61.2" y2="61.2" stroke="#fff" stroke-linecap="round" stroke-width=".864"/>
     </g>
    </g>
    <g>
     <title>element:C6</title>
     <g>
      <title>package:0805-NO</title>
      <line x1="93.6" x2="90.72" y1="61.2" y2="61.2" stroke="#fff" stroke-linecap="round" stroke-width=".864"/>
     </g>
    </g>
    <g>
     <title>element:C7</title>
     <g>
      <title>package:0805-NO</title>
      <line x1="84.96" x2="87.84" y1="79.2" y2="79.2" stroke="#fff" stroke-linecap="round" stroke-width=".864"/>
     </g>
    </g>
    <g>
     <title>element:C8</title>
     <g>
      <title>package:0805-NO</title>
      <line x1="44.64" x2="41.76" y1="61.2" y2="61.2" stroke="#fff" stroke-linecap="round" stroke-width=".864"/>
     </g>
    </g>
    <g>
     <title>element:C9</title>
     <g>
      <title>package:0805-NO</title>
      <line x1="37.44" x2="34.56" y1="61.2" y2="61.2" stroke="#fff" stroke-linecap="round" stroke-width=".864"/>
     </g>
    </g>
    <g>
     <title>element:C10</title>
     <g>
      <title>package:0805-NO</title>
      <line x1="41.76" x2="44.64" y1="79.2" y2="79.2" stroke="#fff" stroke-linecap="round" stroke-width=".864"/>
     </g>
    </g>
    <g>
     <title>element:D1</title>
     <g>
      <title>package:CHIPLED_0805_NOOUTLINE</title>
      <g>
       <title>polygon</title>
       <path d="m101.52 78.48 1.08 1.44h-2.16l1.08-1.44m-0.864 1.152h1.728-1.728m0.324-0.432h1.08-1.08" fill="none" stroke="#fff" stroke-linecap="round" stroke-width=".432"/>
      </g>
     </g>
    </g>
    <g>
     <title>element:FID1</title>
     <g>
      <title>package:FIDUCIAL_1MM</title>
     </g>
    </g>
    <g>
     <title>element:FID2</title>
     <g>
      <title>package:FIDUCIAL_1MM</title>
     </g>
    </g>
    <g>
     <title>element:FID3</title>
     <g>
      <title>package:FIDUCIAL_1MM</title>
     </g>
    </g>
    <g>
     <title>element:R1</title>
     <g>
      <title>package:0805-NO</title>
      <line x1="39.6" x2="39.6" y1="23.76" y2="26.64" stroke="#fff" stroke-linecap="round" stroke-width=".864"/>
     </g>
    </g>
    <g>
     <title>element:R2</title>
     <g>
      <title>package:0805-NO</title>
      <line x1="39.6" x2="39.6" y1="30.96" y2="33.84" stroke="#fff" stroke-linecap="round" stroke-width=".864"/>
     </g>
    </g>
    <g>
     <title>element:R3</title>
     <g>
      <title>package:0805-NO</title>
      <line x1="90" x2="90" y1="23.76" y2="26.64" stroke="#fff" stroke-linecap="round" stroke-width=".864"/>
     </g>
    </g>
    <g>
     <title>element:R4</title>
     <g>
      <title>package:_0805MP</title>
      <line x1="90" x2="90" y1="30.96" y2="33.84" stroke="#fff" stroke-linecap="round" stroke-width=".576"/>
     </g>
    </g>
    <g>
     <title>element:R5</title>
     <g>
      <title>package:0805-NO</title>
      <line x1="109.44" x2="106.56" y1="79.2" y2="79.2" stroke="#fff" stroke-linecap="round" stroke-width=".864"/>
     </g>
    </g>
    <g>
     <title>element:SW1</title>
     <g>
      <title>package:EG1390</title>
      <line x1="59.839" x2="59.839" y1="53.405" y2="32.995" stroke="#fff" stroke-linecap="round" stroke-width=".36"/>
      <line x1="59.839" x2="69.761" y1="32.995" y2="32.995" stroke="#fff" stroke-linecap="round" stroke-width=".36"/>
      <line x1="69.761" x2="69.761" y1="32.995" y2="53.405" stroke="#fff" stroke-linecap="round" stroke-width=".36"/>
      <line x1="69.761" x2="59.839" y1="53.405" y2="53.405" stroke="#fff" stroke-linecap="round" stroke-width=".36"/>
     </g>
    </g>
    <g>
     <title>element:U$7</title>
     <g>
      <title>package:MOUNTINGHOLE_2.5_PLATED_THICK</title>
      <circle cx="118.8" cy="10.8" r="6.378" fill="none" stroke="#fff" stroke-width=".576"/>
     </g>
    </g>
    <g>
     <title>element:U$8</title>
     <g>
      <title>package:MOUNTINGHOLE_2.5_PLATED_THICK</title>
      <circle cx="10.8" cy="75.6" r="6.378" fill="none" stroke="#fff" stroke-width=".576"/>
     </g>
    </g>
    <g>
     <title>element:U$9</title>
     <g>
      <title>package:MOUNTINGHOLE_2.5_PLATED_THICK</title>
      <circle cx="10.8" cy="10.8" r="6.378" fill="none" stroke="#fff" stroke-width=".576"/>
     </g>
    </g>
    <g>
     <title>element:U$10</title>
     <g>
      <title>package:MOUNTINGHOLE_2.5_PLATED_THICK</title>
      <circle cx="118.8" cy="75.6" r="6.378" fill="none" stroke="#fff" stroke-width=".576"/>
     </g>
    </g>
    <g>
     <title>element:U$14</title>
     <g>
      <title>package:ADAFRUIT_5MM</title>
     </g>
    </g>
    <g>
     <title>element:U$16</title>
     <g>
      <title>package:ADAFRUIT_TEXT_30MM</title>
     </g>
    </g>
    <g>
     <title>element:U1</title>
     <g>
      <title>package:SOIC16WIDE</title>
      <line x1="75.384" x2="75.384" y1="30.24" y2="2.88" stroke="#fff" stroke-linecap="round" stroke-width=".576"/>
      <path d="m54.216 30.24a1.08 1.08 0 0 0 1.08 1.08" fill="none" stroke="#fff" stroke-width=".576"/>
      <path d="m75.384 2.88a1.08 1.08 0 0 0-1.08-1.08" fill="none" stroke="#fff" stroke-width=".576"/>
      <path d="m74.304 31.32a1.08 1.08 0 0 0 1.08-1.08" fill="none" stroke="#fff" stroke-width=".576"/>
      <path d="m55.296 1.8a1.08 1.08 0 0 0-1.08 1.08" fill="none" stroke="#fff" stroke-width=".576"/>
      <line x1="54.216" x2="54.216" y1="2.88" y2="30.24" stroke="#fff" stroke-linecap="round" stroke-width=".576"/>
      <line x1="55.296" x2="74.304" y1="31.32" y2="31.32" stroke="#fff" stroke-linecap="round" stroke-width=".576"/>
      <line x1="74.304" x2="68.4" y1="1.8" y2="1.8" stroke="#fff" stroke-linecap="round" stroke-width=".576"/>
      <line x1="68.4" x2="61.2" y1="1.8" y2="1.8" stroke="#fff" stroke-linecap="round" stroke-width=".576"/>
      <line x1="61.2" x2="55.296" y1="1.8" y2="1.8" stroke="#fff" stroke-linecap="round" stroke-width=".576"/>
      <line x1="55.224" x2="55.224" y1="1.8" y2="31.32" stroke="#fff" stroke-linecap="round" stroke-width=".144"/>
      <path d="m61.2 1.8a3.6 3.6 0 1 0 7.2 0" fill="none" stroke="#fff" stroke-width=".576"/>
      <circle cx="57.146" cy="3.8041" r=".63384" fill="none" stroke="#fff" stroke-width=".36"/>
     </g>
    </g>
    <g>
     <title>element:U2</title>
     <g>
      <title>package:SOIC16WIDE</title>
      <line x1="75.384" x2="75.384" y1="83.52" y2="56.16" stroke="#fff" stroke-linecap="round" stroke-width=".576"/>
      <path d="m54.216 83.52a1.08 1.08 0 0 0 1.08 1.08" fill="none" stroke="#fff" stroke-width=".576"/>
      <path d="m75.384 56.16a1.08 1.08 0 0 0-1.08-1.08" fill="none" stroke="#fff" stroke-width=".576"/>
      <path d="m74.304 84.6a1.08 1.08 0 0 0 1.08-1.08" fill="none" stroke="#fff" stroke-width=".576"/>
      <path d="m55.296 55.08a1.08 1.08 0 0 0-1.08 1.08" fill="none" stroke="#fff" stroke-width=".576"/>
      <line x1="54.216" x2="54.216" y1="56.16" y2="83.52" stroke="#fff" stroke-linecap="round" stroke-width=".576"/>
      <line x1="55.296" x2="74.304" y1="84.6" y2="84.6" stroke="#fff" stroke-linecap="round" stroke-width=".576"/>
      <line x1="74.304" x2="68.4" y1="55.08" y2="55.08" stroke="#fff" stroke-linecap="round" stroke-width=".576"/>
      <line x1="68.4" x2="61.2" y1="55.08" y2="55.08" stroke="#fff" stroke-linecap="round" stroke-width=".576"/>
      <line x1="61.2" x2="55.296" y1="55.08" y2="55.08" stroke="#fff" stroke-linecap="round" stroke-width=".576"/>
      <line x1="55.224" x2="55.224" y1="55.08" y2="84.6" stroke="#fff" stroke-linecap="round" stroke-width=".144"/>
      <path d="m61.2 55.08a3.6 3.6 0 1 0 7.2 0" fill="none" stroke="#fff" stroke-width=".576"/>
      <circle cx="57.146" cy="57.084" r=".63384" fill="none" stroke="#fff" stroke-width=".36"/>
     </g>
    </g>
    <g>
     <title>element:X2</title>
     <g>
      <title>package:USB_HOST-PTH</title>
      <line x1="107.15" x2="107.15" y1="22.224" y2="64.176" stroke="#fff" stroke-linecap="round" stroke-width=".576"/>
      <line x1="107.28" x2="123.84" y1="64.08" y2="64.08" stroke="#fff" stroke-linecap="round" stroke-width=".36"/>
      <line x1="107.28" x2="123.84" y1="22.32" y2="22.32" stroke="#fff" stroke-linecap="round" stroke-width=".36"/>
     </g>
    </g>
    <g>
     <title>element:X3</title>
     <g>
      <title>package:USB-MINIB_LARGER</title>
      <line x1="12.699" x2="20.353" y1="32.145" y2="32.145" stroke="#fff" stroke-linecap="round" stroke-width=".576"/>
      <line x1="20.353" x2="12.699" y1="54.255" y2="54.255" stroke="#fff" stroke-linecap="round" stroke-width=".576"/>
      <line x1="27.439" x2="27.439" y1="34.129" y2="37.247" stroke="#fff" stroke-linecap="round" stroke-width=".576"/>
      <line x1="27.439" x2="27.439" y1="49.153" y2="52.271" stroke="#fff" stroke-linecap="round" stroke-width=".576"/>
     </g>
    </g>
   </g>
   <g transform="matrix(0 1 -1 0 47.707 -38.693)">
    <rect id="connector0pin" x="41.357" y="2.3811" width="3.685" height="4.252" fill="#9A916C" stroke-width="0"/>
   </g>
   <g transform="matrix(0 1 -1 0 53.093 -33.307)">
    <rect id="connector1pin" x="41.357" y="7.7669" width="3.685" height="4.252" fill="#9A916C" stroke-width="0"/>
   </g>
   <g transform="matrix(-1 0 0 -1 84.586 33.12)">
    <rect id="connector2pin" x="40.45" y="14.434" width="3.685" height="4.252" fill="#9A916C" stroke-width="0"/>
   </g>
   <g transform="matrix(-1 0 0 -1 73.814 33.12)">
    <rect id="connector3pin" x="35.065" y="14.434" width="3.685" height="4.252" fill="#9A916C" stroke-width="0"/>
   </g>
   <g transform="matrix(0 -1 1 0 76.507 96.293)">
    <rect id="connector4pin" x="84.558" y="7.7669" width="3.685" height="4.252" fill="#9A916C" stroke-width="0"/>
   </g>
   <g transform="matrix(0 -1 1 0 81.893 90.907)">
    <rect id="connector5pin" x="84.558" y="2.3811" width="3.685" height="4.252" fill="#9A916C" stroke-width="0"/>
   </g>
   <g transform="matrix(-1 0 0 -1 185.39 33.12)">
    <rect id="connector6pin" x="90.85" y="14.434" width="3.685" height="4.252" fill="#9A916C" stroke-width="0"/>
   </g>
   <g transform="matrix(-1 0 0 -1 174.61 33.12)">
    <rect id="connector7pin" x="85.465" y="14.434" width="3.685" height="4.252" fill="#9A916C" stroke-width="0"/>
   </g>
   <g transform="matrix(0 1 -1 0 144.91 -27.893)">
    <rect id="connector8pin" x="84.558" y="56.381" width="3.685" height="4.252" fill="#9A916C" stroke-width="0"/>
   </g>
   <g transform="matrix(0 1 -1 0 150.29 -22.507)">
    <rect id="connector9pin" x="84.558" y="61.767" width="3.685" height="4.252" fill="#9A916C" stroke-width="0"/>
   </g>
   <g transform="matrix(0 1 -1 0 150.67 -33.653)">
    <rect id="connector10pin" x="90.318" y="56.381" width="3.685" height="4.252" fill="#9A916C" stroke-width="0"/>
   </g>
   <g transform="matrix(0 1 -1 0 156.05 -28.267)">
    <rect id="connector11pin" x="90.318" y="61.767" width="3.685" height="4.252" fill="#9A916C" stroke-width="0"/>
   </g>
   <g transform="matrix(0 -1 1 0 4.5071 168.29)">
    <rect id="connector12pin" x="84.558" y="79.767" width="3.685" height="4.252" fill="#9A916C" stroke-width="0"/>
   </g>
   <g transform="matrix(0 -1 1 0 9.8929 162.91)">
    <rect id="connector13pin" x="84.558" y="74.381" width="3.685" height="4.252" fill="#9A916C" stroke-width="0"/>
   </g>
   <g transform="matrix(0 1 -1 0 101.71 15.307)">
    <rect id="connector14pin" x="41.357" y="56.381" width="3.685" height="4.252" fill="#9A916C" stroke-width="0"/>
   </g>
   <g transform="matrix(0 1 -1 0 107.09 20.693)">
    <rect id="connector15pin" x="41.357" y="61.767" width="3.685" height="4.252" fill="#9A916C" stroke-width="0"/>
   </g>
   <g transform="matrix(0 1 -1 0 94.507 22.507)">
    <rect id="connector16pin" x="34.157" y="56.381" width="3.685" height="4.252" fill="#9A916C" stroke-width="0"/>
   </g>
   <g transform="matrix(0 1 -1 0 99.893 27.893)">
    <rect id="connector17pin" x="34.157" y="61.767" width="3.685" height="4.252" fill="#9A916C" stroke-width="0"/>
   </g>
   <g transform="matrix(0 -1 1 0 -38.693 125.09)">
    <rect id="connector18pin" x="41.357" y="79.767" width="3.685" height="4.252" fill="#9A916C" stroke-width="0"/>
   </g>
   <g transform="matrix(0 -1 1 0 -33.307 119.71)">
    <rect id="connector19pin" x="41.357" y="74.381" width="3.685" height="4.252" fill="#9A916C" stroke-width="0"/>
   </g>
   <rect id="connector20pin" x="99.819" y="80.476" width="3.4016" height="3.4016" fill="#9A916C" stroke-width="0"/>
   <rect id="connector21pin" x="99.819" y="74.523" width="3.4016" height="3.4016" fill="#9A916C" stroke-width="0"/>
   <rect id="connector22pin" x="20.903" y="71.303" width="2.8346" height="2.8346" rx="1.4173" ry="1.4173" fill="#9A916C" stroke-width="0"/>
   <rect id="connector23pin" x="105.14" y="9.3827" width="2.8346" height="2.8346" rx="1.4173" ry="1.4173" fill="#9A916C" stroke-width="0"/>
   <rect id="connector24pin" x="3.6227" y="18.743" width="2.8346" height="2.8346" rx="1.4173" ry="1.4173" fill="#9A916C" stroke-width="0"/>
   <rect id="connector25pin" x="35.065" y="23.074" width="3.685" height="4.252" fill="#9A916C" stroke-width="0"/>
   <rect id="connector26pin" x="40.45" y="23.074" width="3.685" height="4.252" fill="#9A916C" stroke-width="0"/>
   <rect id="connector27pin" x="35.065" y="30.274" width="3.685" height="4.252" fill="#9A916C" stroke-width="0"/>
   <rect id="connector28pin" x="40.45" y="30.274" width="3.685" height="4.252" fill="#9A916C" stroke-width="0"/>
   <rect id="connector29pin" x="85.465" y="23.074" width="3.685" height="4.252" fill="#9A916C" stroke-width="0"/>
   <rect id="connector30pin" x="90.85" y="23.074" width="3.685" height="4.252" fill="#9A916C" stroke-width="0"/>
   <rect id="connector31pin" x="85.419" y="30.557" width="3.4016" height="3.685" fill="#9A916C" stroke-width="0"/>
   <rect id="connector32pin" x="91.179" y="30.557" width="3.4016" height="3.685" fill="#9A916C" stroke-width="0"/>
   <g transform="matrix(0 1 -1 0 184.51 -31.493)">
    <rect id="connector33pin" x="106.16" y="74.381" width="3.685" height="4.252" fill="#9A916C" stroke-width="0"/>
   </g>
   <g transform="matrix(0 1 -1 0 189.89 -26.107)">
    <rect id="connector34pin" x="106.16" y="79.767" width="3.685" height="4.252" fill="#9A916C" stroke-width="0"/>
   </g>
   <g transform="matrix(0 -1 1 0 6.5764 107.15)">
    <rect id="connector35pin" x="55.446" y="48.161" width="2.8346" height="4.252" fill="#9A916C" stroke-width="0"/>
   </g>
   <g transform="matrix(0 -1 1 0 22.45 123.02)">
    <rect id="connector36pin" x="71.32" y="48.161" width="2.8346" height="4.252" fill="#9A916C" stroke-width="0"/>
   </g>
   <g transform="matrix(0 -1 1 0 13.663 100.06)">
    <rect id="connector37pin" x="55.446" y="41.074" width="2.8346" height="4.252" fill="#9A916C" stroke-width="0"/>
   </g>
   <g transform="matrix(0 -1 1 0 29.537 115.94)">
    <rect id="connector38pin" x="71.32" y="41.074" width="2.8346" height="4.252" fill="#9A916C" stroke-width="0"/>
   </g>
   <g transform="matrix(0 -1 1 0 20.75 92.976)">
    <rect id="connector39pin" x="55.446" y="33.987" width="2.8346" height="4.252" fill="#9A916C" stroke-width="0"/>
   </g>
   <g transform="matrix(0 -1 1 0 36.624 108.85)">
    <rect id="connector40pin" x="71.32" y="33.987" width="2.8346" height="4.252" fill="#9A916C" stroke-width="0"/>
   </g>
   <circle id="connector41pin" cx="118.8" cy="10.8" r="4.6063" fill="none" stroke="#9A916C" stroke-width="2.126" connectorname="P$1"/>
   <circle id="connector42pin" cx="10.8" cy="75.6" r="4.6063" fill="none" stroke="#9A916C" stroke-width="2.126" connectorname="P$1"/>
   <circle id="connector43pin" cx="10.8" cy="10.8" r="4.6063" fill="none" stroke="#9A916C" stroke-width="2.126" connectorname="P$1"/>
   <circle id="connector44pin" cx="118.8" cy="75.6" r="4.6063" fill="none" stroke="#9A916C" stroke-width="2.126" connectorname="P$1"/>
   <g transform="matrix(0 1 -1 0 54.504 -46.584)">
    <rect id="connector45pin" x="49.608" y="1.08" width="1.872" height="5.76" fill="#9A916C" stroke-width="0"/>
   </g>
   <g transform="matrix(0 1 -1 0 58.104 -42.984)">
    <rect id="connector46pin" x="49.608" y="4.68" width="1.872" height="5.76" fill="#9A916C" stroke-width="0"/>
   </g>
   <g transform="matrix(0 1 -1 0 61.704 -39.384)">
    <rect id="connector47pin" x="49.608" y="8.28" width="1.872" height="5.76" fill="#9A916C" stroke-width="0"/>
   </g>
   <g transform="matrix(0 1 -1 0 65.304 -35.784)">
    <rect id="connector48pin" x="49.608" y="11.88" width="1.872" height="5.76" fill="#9A916C" stroke-width="0"/>
   </g>
   <g transform="matrix(0 1 -1 0 68.904 -32.184)">
    <rect id="connector49pin" x="49.608" y="15.48" width="1.872" height="5.76" fill="#9A916C" stroke-width="0"/>
   </g>
   <g transform="matrix(0 1 -1 0 72.504 -28.584)">
    <rect id="connector50pin" x="49.608" y="19.08" width="1.872" height="5.76" fill="#9A916C" stroke-width="0"/>
   </g>
   <g transform="matrix(0 1 -1 0 76.104 -24.984)">
    <rect id="connector51pin" x="49.608" y="22.68" width="1.872" height="5.76" fill="#9A916C" stroke-width="0"/>
   </g>
   <g transform="matrix(0 1 -1 0 79.704 -21.384)">
    <rect id="connector52pin" x="49.608" y="26.28" width="1.872" height="5.76" fill="#9A916C" stroke-width="0"/>
   </g>
   <g transform="matrix(0 1 -1 0 108.22 -49.896)">
    <rect id="connector53pin" x="78.12" y="26.28" width="1.872" height="5.76" fill="#9A916C" stroke-width="0"/>
   </g>
   <g transform="matrix(0 1 -1 0 104.62 -53.496)">
    <rect id="connector54pin" x="78.12" y="22.68" width="1.872" height="5.76" fill="#9A916C" stroke-width="0"/>
   </g>
   <g transform="matrix(0 1 -1 0 101.02 -57.096)">
    <rect id="connector55pin" x="78.12" y="19.08" width="1.872" height="5.76" fill="#9A916C" stroke-width="0"/>
   </g>
   <g transform="matrix(0 1 -1 0 97.416 -60.696)">
    <rect id="connector56pin" x="78.12" y="15.48" width="1.872" height="5.76" fill="#9A916C" stroke-width="0"/>
   </g>
   <g transform="matrix(0 1 -1 0 93.816 -64.296)">
    <rect id="connector57pin" x="78.12" y="11.88" width="1.872" height="5.76" fill="#9A916C" stroke-width="0"/>
   </g>
   <g transform="matrix(0 1 -1 0 90.216 -67.896)">
    <rect id="connector58pin" x="78.12" y="8.28" width="1.872" height="5.76" fill="#9A916C" stroke-width="0"/>
   </g>
   <g transform="matrix(0 1 -1 0 86.616 -71.496)">
    <rect id="connector59pin" x="78.12" y="4.68" width="1.872" height="5.76" fill="#9A916C" stroke-width="0"/>
   </g>
   <g transform="matrix(0 1 -1 0 83.016 -75.096)">
    <rect id="connector60pin" x="78.12" y="1.08" width="1.872" height="5.76" fill="#9A916C" stroke-width="0"/>
   </g>
   <g transform="matrix(0 1 -1 0 107.78 6.696)">
    <rect id="connector61pin" x="49.608" y="54.36" width="1.872" height="5.76" fill="#9A916C" stroke-width="0"/>
   </g>
   <g transform="matrix(0 1 -1 0 111.38 10.296)">
    <rect id="connector62pin" x="49.608" y="57.96" width="1.872" height="5.76" fill="#9A916C" stroke-width="0"/>
   </g>
   <g transform="matrix(0 1 -1 0 114.98 13.896)">
    <rect id="connector63pin" x="49.608" y="61.56" width="1.872" height="5.76" fill="#9A916C" stroke-width="0"/>
   </g>
   <g transform="matrix(0 1 -1 0 118.58 17.496)">
    <rect id="connector64pin" x="49.608" y="65.16" width="1.872" height="5.76" fill="#9A916C" stroke-width="0"/>
   </g>
   <g transform="matrix(0 1 -1 0 122.18 21.096)">
    <rect id="connector65pin" x="49.608" y="68.76" width="1.872" height="5.76" fill="#9A916C" stroke-width="0"/>
   </g>
   <g transform="matrix(0 1 -1 0 125.78 24.696)">
    <rect id="connector66pin" x="49.608" y="72.36" width="1.872" height="5.76" fill="#9A916C" stroke-width="0"/>
   </g>
   <g transform="matrix(0 1 -1 0 129.38 28.296)">
    <rect id="connector67pin" x="49.608" y="75.96" width="1.872" height="5.76" fill="#9A916C" stroke-width="0"/>
   </g>
   <g transform="matrix(0 1 -1 0 132.98 31.896)">
    <rect id="connector68pin" x="49.608" y="79.56" width="1.872" height="5.76" fill="#9A916C" stroke-width="0"/>
   </g>
   <g transform="matrix(0 1 -1 0 161.5 3.384)">
    <rect id="connector69pin" x="78.12" y="79.56" width="1.872" height="5.76" fill="#9A916C" stroke-width="0"/>
   </g>
   <g transform="matrix(0 1 -1 0 157.9 -.216)">
    <rect id="connector70pin" x="78.12" y="75.96" width="1.872" height="5.76" fill="#9A916C" stroke-width="0"/>
   </g>
   <g transform="matrix(0 1 -1 0 154.3 -3.816)">
    <rect id="connector71pin" x="78.12" y="72.36" width="1.872" height="5.76" fill="#9A916C" stroke-width="0"/>
   </g>
   <g transform="matrix(0 1 -1 0 150.7 -7.416)">
    <rect id="connector72pin" x="78.12" y="68.76" width="1.872" height="5.76" fill="#9A916C" stroke-width="0"/>
   </g>
   <g transform="matrix(0 1 -1 0 147.1 -11.016)">
    <rect id="connector73pin" x="78.12" y="65.16" width="1.872" height="5.76" fill="#9A916C" stroke-width="0"/>
   </g>
   <g transform="matrix(0 1 -1 0 143.5 -14.616)">
    <rect id="connector74pin" x="78.12" y="61.56" width="1.872" height="5.76" fill="#9A916C" stroke-width="0"/>
   </g>
   <g transform="matrix(0 1 -1 0 139.9 -18.216)">
    <rect id="connector75pin" x="78.12" y="57.96" width="1.872" height="5.76" fill="#9A916C" stroke-width="0"/>
   </g>
   <g transform="matrix(0 1 -1 0 136.3 -21.816)">
    <rect id="connector76pin" x="78.12" y="54.36" width="1.872" height="5.76" fill="#9A916C" stroke-width="0"/>
   </g>
   <circle id="connector77pin" cx="111.12" cy="40.365" r="1.7065" fill="none" stroke="#9A916C" stroke-width=".72" connectorname="D+"/>
   <path d="m107.19 38.659h7.8497v3.4129h-7.8497v-3.4129m2.218 1.7065a1.7065 1.7065 0 1 0 3.4129 0 1.7065 1.7065 0 1 0-3.4129 0z" fill="#9A916C" stroke-width="0"/>
   <circle id="connector78pin" cx="111.12" cy="46.035" r="1.7065" fill="none" stroke="#9A916C" stroke-width=".72" connectorname="D-"/>
   <path d="m107.19 44.328h7.8497v3.4129h-7.8497v-3.4129m2.218 1.7064a1.7065 1.7065 0 1 0 3.4129 0 1.7065 1.7065 0 1 0-3.4129 0z" fill="#9A916C" stroke-width="0"/>
   <circle id="connector79pin" cx="111.12" cy="33.279" r="1.7065" fill="none" stroke="#9A916C" stroke-width=".72" connectorname="AGND"/>
   <path d="m107.19 31.572h7.8497v3.4129h-7.8497v-3.4129m2.218 1.7065a1.7065 1.7065 0 1 0 3.4129 0 1.7065 1.7065 0 1 0-3.4129 0z" fill="#9A916C" stroke-width="0"/>
   <circle id="connector80pin" cx="118.8" cy="61.824" r="3.9798" fill="none" stroke="#9A916C" stroke-width="1.44" connectorname="S1"/>
   <circle id="connector81pin" cx="118.8" cy="24.576" r="3.9798" fill="none" stroke="#9A916C" stroke-width="1.44" connectorname="S2"/>
   <circle id="connector82pin" cx="111.12" cy="53.121" r="1.7065" fill="none" stroke="#9A916C" stroke-width=".72" connectorname="AVCC"/>
   <path d="m107.19 51.415h7.8497v3.4129h-7.8497v-3.4129m2.218 1.7064a1.7065 1.7065 0 1 0 3.4129 0 1.7065 1.7065 0 1 0-3.4129 0z" fill="#9A916C" stroke-width="0"/>
   <g transform="matrix(0 -1 1 0 -17.28 69.12)">
    <rect id="connector83pin" x="25.211" y="39.929" width="1.4173" height="6.5424" fill="#9A916C" stroke-width="0"/>
   </g>
   <g transform="matrix(0 -1 1 0 -15.012 66.852)">
    <rect id="connector84pin" x="25.211" y="37.661" width="1.4173" height="6.5424" fill="#9A916C" stroke-width="0"/>
   </g>
   <g transform="matrix(0 -1 1 0 -21.815 73.655)">
    <rect id="connector85pin" x="25.211" y="44.464" width="1.4173" height="6.5424" fill="#9A916C" stroke-width="0"/>
   </g>
   <g transform="matrix(0 1 -1 0 39.458 21.997)">
    <rect id="connector86pin" x="5.1307" y="25.328" width="7.2" height="10.8" fill="#9A916C" stroke-width="0"/>
   </g>
   <g transform="matrix(0 1 -1 0 55.049 6.4063)">
    <rect id="connector87pin" x="21.487" y="27.326" width="5.6693" height="6.8032" fill="#9A916C" stroke-width="0"/>
   </g>
   <g transform="matrix(0 1 -1 0 79.993 31.351)">
    <rect id="connector88pin" x="21.487" y="52.271" width="5.6693" height="6.8032" fill="#9A916C" stroke-width="0"/>
   </g>
   <g transform="matrix(0 1 -1 0 64.403 46.942)">
    <rect id="connector89pin" x="5.1307" y="50.272" width="7.2" height="10.8" fill="#9A916C" stroke-width="0"/>
   </g>
   <g transform="matrix(0 -1 1 0 -19.548 71.388)">
    <rect id="connector90pin" x="25.211" y="42.196" width="1.4173" height="6.5424" fill="#9A916C" stroke-width="0"/>
   </g>
   <g transform="matrix(0 -1 1 0 -12.745 64.585)">
    <rect id="connector91pin" x="25.211" y="35.393" width="1.4173" height="6.5424" fill="#9A916C" stroke-width="0"/>
   </g>
  </g>
  <g transform="translate(40.366 5.4285)">
   <g id="0805-cap">
    <g transform="matrix(0 1 -1 0 4.606 -1.063)">
     <path d="m5.386 3.543h-5.103c-0.156 0-0.283-0.127-0.283-0.283v-2.977c0-0.156 0.127-0.283 0.283-0.283h5.102c0.157 0 0.283 0.127 0.283 0.283v2.977c1e-3 0.156-0.126 0.283-0.282 0.283z" fill="#DCDCDC"/>
     <rect x="1.063" width="3.543" height="3.543" fill="#6E554B"/>
    </g>
   </g>
  </g>
  <g transform="translate(36.766 14.788)">
   <g id="0805-cap">
    <g transform="matrix(-1 0 0 -1 5.669 3.543)">
     <path d="m5.386 3.543h-5.103c-0.156 0-0.283-0.127-0.283-0.283v-2.977c0-0.156 0.127-0.283 0.283-0.283h5.102c0.157 0 0.283 0.127 0.283 0.283v2.977c1e-3 0.156-0.126 0.283-0.282 0.283z" fill="#DCDCDC"/>
     <rect x="1.063" width="3.543" height="3.543" fill="#6E554B"/>
    </g>
   </g>
  </g>
  <g transform="translate(83.565 5.4285)">
   <g id="0805-cap">
    <g transform="matrix(0 -1 1 0 1.063 4.606)">
     <path d="m5.386 3.543h-5.103c-0.156 0-0.283-0.127-0.283-0.283v-2.977c0-0.156 0.127-0.283 0.283-0.283h5.102c0.157 0 0.283 0.127 0.283 0.283v2.977c1e-3 0.156-0.126 0.283-0.282 0.283z" fill="#DCDCDC"/>
     <rect x="1.063" width="3.543" height="3.543" fill="#6E554B"/>
    </g>
   </g>
  </g>
  <g transform="translate(87.165 14.788)">
   <g id="0805-cap">
    <g transform="matrix(-1 0 0 -1 5.669 3.543)">
     <path d="m5.386 3.543h-5.103c-0.156 0-0.283-0.127-0.283-0.283v-2.977c0-0.156 0.127-0.283 0.283-0.283h5.102c0.157 0 0.283 0.127 0.283 0.283v2.977c1e-3 0.156-0.126 0.283-0.282 0.283z" fill="#DCDCDC"/>
     <rect x="1.063" width="3.543" height="3.543" fill="#6E554B"/>
    </g>
   </g>
  </g>
  <g transform="translate(83.565 59.428)">
   <g id="0805-cap">
    <g transform="matrix(0 1 -1 0 4.606 -1.063)">
     <path d="m5.386 3.543h-5.103c-0.156 0-0.283-0.127-0.283-0.283v-2.977c0-0.156 0.127-0.283 0.283-0.283h5.102c0.157 0 0.283 0.127 0.283 0.283v2.977c1e-3 0.156-0.126 0.283-0.282 0.283z" fill="#DCDCDC"/>
     <rect x="1.063" width="3.543" height="3.543" fill="#6E554B"/>
    </g>
   </g>
  </g>
  <g transform="translate(89.325 59.428)">
   <g id="0805-cap">
    <g transform="matrix(0 1 -1 0 4.606 -1.063)">
     <path d="m5.386 3.543h-5.103c-0.156 0-0.283-0.127-0.283-0.283v-2.977c0-0.156 0.127-0.283 0.283-0.283h5.102c0.157 0 0.283 0.127 0.283 0.283v2.977c1e-3 0.156-0.126 0.283-0.282 0.283z" fill="#DCDCDC"/>
     <rect x="1.063" width="3.543" height="3.543" fill="#6E554B"/>
    </g>
   </g>
  </g>
  <g transform="translate(83.565 77.429)">
   <g id="0805-cap">
    <g transform="matrix(0 -1 1 0 1.063 4.606)">
     <path d="m5.386 3.543h-5.103c-0.156 0-0.283-0.127-0.283-0.283v-2.977c0-0.156 0.127-0.283 0.283-0.283h5.102c0.157 0 0.283 0.127 0.283 0.283v2.977c1e-3 0.156-0.126 0.283-0.282 0.283z" fill="#DCDCDC"/>
     <rect x="1.063" width="3.543" height="3.543" fill="#6E554B"/>
    </g>
   </g>
  </g>
  <g transform="translate(40.366 59.428)">
   <g id="0805-cap">
    <g transform="matrix(0 1 -1 0 4.606 -1.063)">
     <path d="m5.386 3.543h-5.103c-0.156 0-0.283-0.127-0.283-0.283v-2.977c0-0.156 0.127-0.283 0.283-0.283h5.102c0.157 0 0.283 0.127 0.283 0.283v2.977c1e-3 0.156-0.126 0.283-0.282 0.283z" fill="#DCDCDC"/>
     <rect x="1.063" width="3.543" height="3.543" fill="#6E554B"/>
    </g>
   </g>
  </g>
  <g transform="translate(33.166 59.428)">
   <g id="0805-cap">
    <g transform="matrix(0 1 -1 0 4.606 -1.063)">
     <path d="m5.386 3.543h-5.103c-0.156 0-0.283-0.127-0.283-0.283v-2.977c0-0.156 0.127-0.283 0.283-0.283h5.102c0.157 0 0.283 0.127 0.283 0.283v2.977c1e-3 0.156-0.126 0.283-0.282 0.283z" fill="#DCDCDC"/>
     <rect x="1.063" width="3.543" height="3.543" fill="#6E554B"/>
    </g>
   </g>
  </g>
  <g transform="translate(40.366 77.429)">
   <g transform="matrix(0 -1 1 0 1.063 4.606)">
    <path d="m5.386 3.543h-5.103c-0.156 0-0.283-0.127-0.283-0.283v-2.977c0-0.156 0.127-0.283 0.283-0.283h5.102c0.157 0 0.283 0.127 0.283 0.283v2.977c1e-3 0.156-0.126 0.283-0.282 0.283z" fill="#DCDCDC"/>
    <rect x="1.063" width="3.543" height="3.543" fill="#6E554B"/>
   </g>
  </g>
  <g transform="translate(99.749 76.366)">
   <path d="m3.543 0.282v5.103c0 0.156-0.127 0.283-0.283 0.283h-2.977c-0.156 0-0.283-0.127-0.283-0.283v-5.102c0-0.157 0.127-0.283 0.283-0.283h2.977c0.156-1e-3 0.283 0.126 0.283 0.282z" fill="#DCDCDC"/>
   <rect y="1.062" width="3.543" height="3.543" fill="#0f0"/>
   <circle cx="1.772" cy="2.833" r=".567" fill="#00B400"/>
  </g>
  <g transform="translate(36.766 23.428)">
   <g id="0805-res">
    <path d="m5.386 3.543h-5.103c-0.156 0-0.283-0.127-0.283-0.283v-2.977c0-0.156 0.127-0.283 0.283-0.283h5.102c0.157 0 0.283 0.127 0.283 0.283v2.977c1e-3 0.156-0.126 0.283-0.282 0.283z" fill="#DCDCDC"/>
    <rect x="1.063" width="3.543" height="3.543" fill="#333"/>
   </g>
  </g>
  <g transform="translate(36.766 30.628)">
   <g id="0805-res">
    <path d="m5.386 3.543h-5.103c-0.156 0-0.283-0.127-0.283-0.283v-2.977c0-0.156 0.127-0.283 0.283-0.283h5.102c0.157 0 0.283 0.127 0.283 0.283v2.977c1e-3 0.156-0.126 0.283-0.282 0.283z" fill="#DCDCDC"/>
    <rect x="1.063" width="3.543" height="3.543" fill="#333"/>
   </g>
  </g>
  <g transform="translate(87.165 23.428)">
   <g id="0805-res">
    <path d="m5.386 3.543h-5.103c-0.156 0-0.283-0.127-0.283-0.283v-2.977c0-0.156 0.127-0.283 0.283-0.283h5.102c0.157 0 0.283 0.127 0.283 0.283v2.977c1e-3 0.156-0.126 0.283-0.282 0.283z" fill="#DCDCDC"/>
    <rect x="1.063" width="3.543" height="3.543" fill="#333"/>
   </g>
  </g>
  <g transform="translate(87.165 30.628)">
   <g id="0805-res">
    <path d="m5.386 3.543h-5.103c-0.156 0-0.283-0.127-0.283-0.283v-2.977c0-0.156 0.127-0.283 0.283-0.283h5.102c0.157 0 0.283 0.127 0.283 0.283v2.977c1e-3 0.156-0.126 0.283-0.282 0.283z" fill="#DCDCDC"/>
    <rect x="1.063" width="3.543" height="3.543" fill="#333"/>
   </g>
  </g>
  <g transform="translate(105.16 77.429)">
   <g transform="matrix(0 1 -1 0 4.606 -1.063)">
    <path d="m5.386 3.543h-5.103c-0.156 0-0.283-0.127-0.283-0.283v-2.977c0-0.156 0.127-0.283 0.283-0.283h5.102c0.157 0 0.283 0.127 0.283 0.283v2.977c1e-3 0.156-0.126 0.283-0.282 0.283z" fill="#DCDCDC"/>
    <rect x="1.063" width="3.543" height="3.543" fill="#333"/>
   </g>
  </g>
  <g transform="translate(54.9 34.7)">
   <g transform="matrix(0 -1 1 0 1.4 18.4)">
    <style type="text/css">.st0{fill:#DCDCDC;}
	.st1{fill:#B4B4B4;}
	.st2{fill:#333333;}</style>
    <rect class="st0" x="15.9" width="2.3" height="17"/>
    <rect class="st0" x="8.8" width="2.3" height="17"/>
    <rect class="st0" x="1.7" width="2.3" height="17"/>
    <rect class="st1" x="15.9" y="2.8" width="2.3" height="11.3"/>
    <rect class="st1" x="8.8" y="2.8" width="2.3" height="11.3"/>
    <rect class="st1" x="1.7" y="2.8" width="2.3" height="11.3"/>
    <rect y="3.5" width="19.8" height="9.9"/>
    <polygon class="st0" points="1.4 10.6 1.4 13.5 18.4 13.5 18.4 10.6 19.8 10.6 19.8 6.4 18.4 6.4 18.4 3.5 14.2 3.5 14.2 6.4 5.7 6.4 5.7 3.5 1.4 3.5 1.4 6.4 0 6.4 0 10.6"/>
    <rect class="st2" x="9.9" y="3.5" width="4.3" height="2.8"/>
    <circle class="st1" cx="7.8" cy="8.5" r="1.4"/>
    <circle class="st1" cx="12" cy="8.5" r="1.4"/>
   </g>
  </g>
  <g transform="translate(17.054 8.4048)">
   <g transform="matrix(0 -1 1 0 .001512 14.03)">
    <path d="m14.022 6.179c-0.046-0.288-0.202-0.37-0.578-0.49-0.286-0.091-2.2-0.701-2.2-0.701s-1.333-0.504-2.323 0.208c-0.13299 0.096-0.27101 0.205-0.41004 0.322 0.117-0.139 0.226-0.277 0.322-0.41 0.711-0.99 0.205-2.323 0.205-2.323s-0.61297-1.914-0.706-2.199c-0.12096-0.376-0.20296-0.532-0.49096-0.577-0.287-0.045-0.413 0.078-0.64402 0.398-0.175 0.244-1.347 1.876-1.347 1.876s-0.891 1.113-0.519 2.274c0.05 0.156 0.111 0.321 0.18 0.489-0.096-0.154-0.194-0.3-0.291-0.433-0.723-0.981-2.147-0.912-2.147-0.912s-2.009-8e-3 -2.309-9e-3c-0.395-1e-3 -0.568 0.029-0.7 0.289-0.132 0.259-0.053999 0.417 0.179 0.735 0.177 0.242 1.367 1.861 1.367 1.861s0.783 1.191 2.002 1.196c0.164 1e-3 0.339-7e-3 0.52-0.02-0.176 0.044-0.345 0.091-0.5 0.143-1.156 0.385-1.53 1.76-1.53 1.76s-0.629 1.908-0.722 2.194c-0.123 0.375-0.148 0.549 0.058 0.755s0.38 0.18 0.755 0.057c0.285-0.094 2.192-0.726 2.192-0.726s1.375-0.377 1.757-1.535c0.051-0.155 0.098-0.324 0.142-0.499-0.012 0.18-0.02 0.355-0.019 0.519 7e-3 1.219 1.2 2 1.2 2s1.621 1.187 1.863 1.364c0.319 0.233 0.477 0.31 0.736 0.178s0.289-0.306 0.287-0.701c-1e-3 -0.3-0.013-2.309-0.013-2.309s0.067-1.424-0.917-2.145c-0.13098-0.096001-0.27599-0.19298-0.43-0.28903 0.168 0.068 0.332 0.129 0.488 0.178 1.161 0.37 2.273-0.523 2.273-0.523s1.63-1.174 1.873-1.35c0.32-0.23197 0.443-0.35797 0.397-0.64497zm-6.919-1.479c0.219 0.034 0.328 0.5 0.243 1.04s-0.332 0.95-0.551 0.916-0.328-0.5-0.243-1.041c0.085-0.54 0.332-0.95 0.551-0.915zm-2.806 1.432c0.101-0.198 0.577-0.157 1.065 0.091 0.487 0.248 0.801 0.61 0.701 0.807-0.101 0.19801-0.578 0.157-1.066-0.089998-0.487-0.248-0.801-0.61-0.7-0.808zm1.479 2.695c-0.386 0.387-0.827 0.57399-0.984 0.41703-0.157-0.15603 0.029-0.59703 0.416-0.98403 0.386-0.387 0.827-0.574 0.984-0.417 0.157 0.156-0.029002 0.597-0.416 0.984zm2.129 0.908c-0.198 0.1-0.559-0.213-0.808-0.7-0.24902-0.487-0.29002-0.964-0.093022-1.065 0.198-0.101 0.559 0.213 0.808 0.7 0.24898 0.48706 0.29102 0.96406 0.093022 1.065zm0.513-2.257c-0.54 0.086-1.006-0.022-1.041-0.241-0.03504-0.21899 0.375-0.46599 0.915-0.55199s1.006 0.022 1.041 0.241c0.03497 0.219-0.375 0.46602-0.915 0.55199z" fill="#DCDCDC"/>
   </g>
  </g>
  <g transform="translate(50.627 2.0324)">
   <g id="soic16wide">
    <g transform="matrix(0 1 -1 0 28.701 .35431)">
     <metadata id="metadata8429">
      <rdf:RDF xmlns:rdf="http://www.w3.org/1999/02/22-rdf-syntax-ns#">
       <cc:Work rdf:about="" xmlns:cc="http://creativecommons.org/ns#" xmlns:rdf="http://www.w3.org/1999/02/22-rdf-syntax-ns#">
        <dc:format xmlns:dc="http://purl.org/dc/elements/1.1/">image/svg+xml</dc:format>
        <dc:type rdf:resource="http://purl.org/dc/dcmitype/StillImage" xmlns:dc="http://purl.org/dc/elements/1.1/" xmlns:rdf="http://www.w3.org/1999/02/22-rdf-syntax-ns#"/>
        <dc:title xmlns:dc="http://purl.org/dc/elements/1.1/"/>
       </cc:Work>
      </rdf:RDF>
     </metadata>
     <g transform="translate(-298.07 -403.52)">
      <g id="layer1" label="Layer 1">
       <g transform="matrix(1 0 0 1.7083 0 -306.41)">
        <g id="g8100" fill="#ccc" stroke-width="0">
         <rect id="rect4200" x="324.4" y="415.57" width="1.1339" height="17.008"/>
         <rect id="rect4202" x="320.8" y="415.57" width="1.1339" height="17.008"/>
         <rect id="rect4204" x="317.2" y="415.57" width="1.1339" height="17.008"/>
         <rect id="rect4206" x="313.6" y="415.57" width="1.1339" height="17.008"/>
         <rect id="rect4196" x="310" y="415.57" width="1.1339" height="17.008"/>
         <rect id="rect4198" x="306.4" y="415.57" width="1.1339" height="17.008"/>
         <rect id="rect4194" x="302.8" y="415.57" width="1.1339" height="17.008"/>
         <rect id="rect13032" x="299.2" y="415.57" width="1.1339" height="17.008"/>
        </g>
       </g>
       <g transform="translate(0 -1)">
        <g id="g8118">
         <g id="g8110">
          <rect id="rect30" x="298.07" y="408.2" width="28.346" height="21.26" fill="#303030" stroke-width="0"/>
          <path id="polygon32" d="m298.07 408.2h28.352l-0.76206 0.75873h-26.828z" fill="#1f1f1f" stroke-width="0" nodetypes="ccccc"/>
          <g transform="matrix(1.323 0 0 1.3172 297.84 412.96)" stroke-width="0">
           <path id="polygon34" d="m0.17325 12.527h21.412l-0.576-0.576h-20.26z" fill="#1f1f1f" nodetypes="ccccc"/>
           <path id="polygon36" d="m0.74925-3.0114-0.576-0.576v16.114l0.576-0.576z" nodetypes="ccccc"/>
          </g>
          <ellipse id="circle40" cx="301.16" cy="426.38" rx="1.1156" ry="1.1107" fill="#1f1f1f" stroke-width="0"/>
          <g transform="matrix(1.323 0 0 1.3172 312 412.96)">
           <path id="polygon38" d="m10.886 12.527-0.576-0.576v-14.962l0.576-0.576z" fill="#3d3d3d" stroke-width="0" nodetypes="ccccc"/>
          </g>
         </g>
        </g>
       </g>
      </g>
     </g>
    </g>
   </g>
  </g>
  <g transform="translate(50.627 55.312)">
   <g transform="matrix(0 1 -1 0 28.701 .35431)">
    <metadata>
     <rdf:RDF xmlns:rdf="http://www.w3.org/1999/02/22-rdf-syntax-ns#">
      <cc:Work rdf:about="" xmlns:cc="http://creativecommons.org/ns#" xmlns:rdf="http://www.w3.org/1999/02/22-rdf-syntax-ns#">
       <dc:format xmlns:dc="http://purl.org/dc/elements/1.1/">image/svg+xml</dc:format>
       <dc:type rdf:resource="http://purl.org/dc/dcmitype/StillImage" xmlns:dc="http://purl.org/dc/elements/1.1/" xmlns:rdf="http://www.w3.org/1999/02/22-rdf-syntax-ns#"/>
       <dc:title xmlns:dc="http://purl.org/dc/elements/1.1/"/>
      </cc:Work>
     </rdf:RDF>
    </metadata>
    <g transform="translate(-298.07 -403.52)">
     <g label="Layer 1">
      <g transform="matrix(1 0 0 1.7083 0 -306.41)">
       <g fill="#ccc" stroke-width="0">
        <rect x="324.4" y="415.57" width="1.1339" height="17.008"/>
        <rect x="320.8" y="415.57" width="1.1339" height="17.008"/>
        <rect x="317.2" y="415.57" width="1.1339" height="17.008"/>
        <rect x="313.6" y="415.57" width="1.1339" height="17.008"/>
        <rect x="310" y="415.57" width="1.1339" height="17.008"/>
        <rect x="306.4" y="415.57" width="1.1339" height="17.008"/>
        <rect x="302.8" y="415.57" width="1.1339" height="17.008"/>
        <rect x="299.2" y="415.57" width="1.1339" height="17.008"/>
       </g>
      </g>
      <g transform="translate(0 -1)">
       <rect x="298.07" y="408.2" width="28.346" height="21.26" fill="#303030" stroke-width="0"/>
       <path d="m298.07 408.2h28.352l-0.76206 0.75873h-26.828z" fill="#1f1f1f" stroke-width="0" nodetypes="ccccc"/>
       <g transform="matrix(1.323 0 0 1.3172 297.84 412.96)" stroke-width="0">
        <path d="m0.17325 12.527h21.412l-0.576-0.576h-20.26z" fill="#1f1f1f" nodetypes="ccccc"/>
        <path d="m0.74925-3.0114-0.576-0.576v16.114l0.576-0.576z" nodetypes="ccccc"/>
       </g>
       <ellipse cx="301.16" cy="426.38" rx="1.1156" ry="1.1107" fill="#1f1f1f" stroke-width="0"/>
       <g transform="matrix(1.323 0 0 1.3172 312 412.96)">
        <path d="m10.886 12.527-0.576-0.576v-14.962l0.576-0.576z" fill="#3d3d3d" stroke-width="0" nodetypes="ccccc"/>
       </g>
      </g>
     </g>
    </g>
   </g>
  </g>
  <g transform="translate(105.65 22.082)">
   <g transform="matrix(0 -1 1 0 -.14148 42.094)">
    <path d="m38.834 39.401h0.85v0.567c0 0.783 0.635 1.417 1.417 1.417h0.851v0.851h-0.85c-1.252 0-2.268-1.015-2.268-2.268l3e-6 -0.567z" fill="#EBEBEB"/>
    <path d="m3.117 39.401h-0.85v0.567c0 0.783-0.635 1.417-1.417 1.417h-0.85v0.851h0.85c1.252 0 2.268-1.015 2.268-2.268v-0.567l-0.001003 3e-6z" fill="#EBEBEB"/>
    <rect x="5.102" y="40.11" width="31.748" height="2.126" fill="#C8C8C8"/>
    <rect x="2.267" y="1.7" width="37.417" height="38.693" fill="#DCDCDC"/>
    <rect x="7.369" y="3.118" width="12.189" height="1.417"/>
    <rect x="22.393" y="3.118" width="12.189" height="1.417"/>
    <path d="m26.645 23.102h6.236c0.783 0 1.417 0.635 1.417 1.417v14.174c0 0.783-0.635 1.417-1.417 1.417h-6.236c-0.783 0-1.417-0.635-1.417-1.417v-14.173c0-0.783 0.634-1.418 1.417-1.418z" fill="#fff"/>
    <polygon points="32.211 35.149 33.306 23.102 26.22 23.102 27.315 35.149" fill="#EBEBEB"/>
    <path d="m27.186 33.732 0.334 3.672c0.066 0.73 0.678 1.289 1.412 1.289h1.663c0.733 0 1.345-0.559 1.412-1.289l0.333-3.672h-5.154z" fill="#C8C8C8"/>
    <path d="m9.07 23.102h6.236c0.783 0 1.417 0.635 1.417 1.417v14.174c0 0.783-0.635 1.417-1.417 1.417h-6.236c-0.783 0-1.417-0.635-1.417-1.417l4e-5 -14.173c0-0.783 0.63396-1.418 1.417-1.418z" fill="#fff"/>
    <polygon points="14.636 35.149 15.732 23.102 8.645 23.102 9.74 35.149" fill="#EBEBEB"/>
    <path d="m9.611 33.732 0.334 3.672c0.066 0.73 0.678 1.289 1.412 1.289h1.663c0.733 0 1.345-0.559 1.412-1.289l0.334-3.672h-5.155z" fill="#C8C8C8"/>
    <rect x="5.102" y="41.386" width="31.748" height=".85" fill="#EBEBEB"/>
   </g>
  </g>
  <g transform="translate(.99172 29.786)">
   <g transform="matrix(0 1 -1 0 27.626 -.79812)">
    <metadata>
     <rdf:RDF xmlns:rdf="http://www.w3.org/1999/02/22-rdf-syntax-ns#">
      <cc:Work rdf:about="" xmlns:cc="http://creativecommons.org/ns#" xmlns:rdf="http://www.w3.org/1999/02/22-rdf-syntax-ns#">
       <dc:format xmlns:dc="http://purl.org/dc/elements/1.1/">image/svg+xml</dc:format>
       <dc:type rdf:resource="http://purl.org/dc/dcmitype/StillImage" xmlns:dc="http://purl.org/dc/elements/1.1/" xmlns:rdf="http://www.w3.org/1999/02/22-rdf-syntax-ns#"/>
       <dc:title xmlns:dc="http://purl.org/dc/elements/1.1/"/>
      </cc:Work>
     </rdf:RDF>
    </metadata>
    <rect x="23.433" y="16.687" width="4.9914" height="6.6397" fill="#ccc"/>
    <rect x="23.433" y="1.0437" width="4.9914" height="6.6397" fill="#ccc"/>
    <rect x="-1.9102e-7" y="16.621" width="4.9914" height="6.6397" fill="#ccc"/>
    <rect x="23.433" y="23.187" width="4.9914" height=".1393" fill="#f2f2f2"/>
    <rect x="-1.9102e-7" y="23.121" width="4.9914" height=".1393" fill="#f2f2f2"/>
    <rect x="23.433" y="16.687" width="4.9914" height=".17551" enable-background="new    " opacity=".2"/>
    <rect x="-1.9102e-7" y="16.621" width="4.9914" height=".17551" enable-background="new    " opacity=".2"/>
    <rect x="-1.9102e-7" y="1.021" width="4.9914" height="6.6397" fill="#ccc"/>
    <rect x="23.433" y="7.5051" width="4.9914" height=".1783" fill="#f2f2f2"/>
    <rect x="-1.9102e-7" y="7.4823" width="4.9914" height=".1783" fill="#f2f2f2"/>
    <rect x="9.2881" y=".00101" width="1.1626" height="2.7692" fill="#b3b3b3"/>
    <rect x="9.2881" y="2.647e-6" width=".10494" height="2.6113" fill="#999"/>
    <g transform="matrix(1.8137 0 0 1.8137 21.604 134.28)">
     <rect x="-5.5961" y="-74.033" width=".64205" height="1.5268" fill="#b3b3b3"/>
     <rect x="-5.5961" y="-74.034" width=".05888" height="1.4397" fill="#999"/>
     <rect x="-4.4042" y="-74.033" width=".64205" height="1.5268" fill="#b3b3b3"/>
     <rect x="-4.4042" y="-74.034" width=".057856" height="1.4397" fill="#999"/>
     <rect x="-3.2102" y="-74.033" width=".64205" height="1.5268" fill="#b3b3b3"/>
     <rect x="-3.2102" y="-74.034" width=".056832" height="1.4397" fill="#999"/>
     <rect x="-2.0173" y="-74.033" width=".64102" height="1.5268" fill="#b3b3b3"/>
     <rect x="-2.0173" y="-74.034" width=".057856" height="1.4397" fill="#999"/>
    </g>
    <g transform="matrix(1.8737 0 0 1.8737 21.848 138.64)">
     <polygon points="-9.5063 -72.669 1.3599 -72.669 1.3599 -59.672 -9.5063 -59.672" fill="#b3b3b3"/>
     <rect x="-9.5063" y="-72.669" width="10.866" height=".074752" fill="#ccc"/>
     <rect x="-8.6743" y="-72.669" width="9.1842" height="12.193" fill="#333"/>
     <path d="m-9.6394-72.344 0.1321-0.32717h1.4612s-1.3281 0.064-1.3752 0.16179c-0.047104 0.097792 0.062976 0.16384 0.062976 0.16384h-0.28109v0.00128z" fill="#ccc" connector-curvature="0"/>
     <path d="m1.4746-72.344-0.1321-0.32614h-1.4612s1.3271 0.065024 1.3742 0.16128c0.049152 0.09728-0.060928 0.1623-0.060928 0.1623l0.28006 0.00256z" fill="#ccc" connector-curvature="0"/>
     <path d="m1.4746-59.672v-12.997h-3.1462v0.32614h-4.822v-0.32614h-3.1452v12.997h11.113zm-1.8591-6.3698c0-0.071168 0.055808-0.128 0.128-0.128h0.37325c0.071168 0 0.128 0.056832 0.128 0.128v3.4048c0 0.071168-0.056832 0.128-0.128 0.128h-0.37325c-0.072192 0-0.128-0.056832-0.128-0.128v-3.4048zm-2.1228 5.0622h-0.090112c-0.07168 0-0.13107-0.056832-0.13722-0.128l-0.28826-5.077c-0.004096-0.070656-0.065024-0.128-0.13619-0.128h-1.8785c-0.070656 0-0.13158 0.056832-0.13568 0.128l-0.28877 5.077c-0.00512 0.071168-0.065024 0.128-0.13722 0.128h-0.089088c-0.071168 0-0.12493-0.056832-0.12083-0.128l0.36813-6.421c0.004096-0.070656 0.065024-0.128 0.13619-0.128h2.4151c0.071168 0 0.1321 0.056832 0.13722 0.128l0.3671 6.421c0.003072 0.070656-0.051712 0.128-0.12186 0.128zm1.9272-0.53299-0.44083 0.44237c-0.0512 0.049664-0.14797 0.090624-0.22016 0.090624h-0.30822c-0.070144 0-0.128-0.056832-0.128-0.128v-4.9347c0-0.070656 0.057856-0.128 0.128-0.128h0.30822c0.072192 0 0.128 0.057344 0.128 0.128v3.6874c0 0.070656 0.04096 0.16896 0.09216 0.21862l0.44083 0.44237c0.049664 0.050176 0.049664 0.13158 0 0.18125zm-7.1342-9.28c0-0.070656 0.056832-0.128 0.128-0.128h6.743c0.070144 0 0.128 0.057344 0.128 0.128v0.42701c0 0.071168-0.057856 0.128-0.128 0.128h-6.743c-0.071168 0-0.128-0.056832-0.128-0.128v-0.42701zm-0.011264 9.0993 0.44186-0.44237c0.0512-0.050176 0.091136-0.14797 0.091136-0.21862v-3.6874c0-0.071168 0.056832-0.128 0.128-0.128h0.30925c0.070144 0 0.128 0.056832 0.128 0.128v4.9352c0 0.071168-0.057856 0.128-0.128 0.128h-0.30925c-0.071168 0-0.16794-0.04096-0.21914-0.091136l-0.44186-0.44186c-0.049664-0.050688-0.049664-0.1321 0-0.18176zm-0.82483-4.3484c0-0.071168 0.055808-0.128 0.128-0.128h0.37325c0.071168 0 0.128 0.056832 0.128 0.128v3.4048c0 0.071168-0.056832 0.128-0.128 0.128h-0.37325c-0.072192 0-0.128-0.056832-0.128-0.128v-3.4048z" fill="#e6e6e6" connector-curvature="0"/>
     <polygon points="-9.6394 -72.676 -8.7562 -72.676 -9.4054 -59.672 -9.6394 -59.672" fill="#f2f2f2"/>
     <polygon points="0.81971 -72.676 1.4746 -72.676 1.4746 -59.672 1.1469 -69.193" fill="#f2f2f2"/>
     <polyline points="1.4735 -59.852 1.4735 -59.672 -9.6374 -59.672 -9.6374 -59.852" fill="#f2f2f2"/>
    </g>
   </g>
  </g>
 </g>
</svg>
