<?xml version="1.0" encoding="UTF-8"?>
<!DOCTYPE svg>
<!-- Generator: Adobe Illustrator 26.2.1, SVG Export Plug-In . SVG Version: 6.00 Build 0)  -->
<svg width="1.0851in" height=".7in" enable-background="new 0 0 78.1277 50.4" version="1.1" viewBox="0 0 78.128 50.4" xml:space="preserve" xmlns="http://www.w3.org/2000/svg" xmlns:xml="http://www.w3.org/XML/1998/namespace">
    <desc>
        <referenceFile>Adafruit ENS160_breadboard.svg</referenceFile>
    </desc>
    <metadata>
        <rdf:RDF xmlns:rdf="http://www.w3.org/1999/02/22-rdf-syntax-ns#">
            <cc:Work rdf:about="" xmlns:cc="http://creativecommons.org/ns#" xmlns:rdf="http://www.w3.org/1999/02/22-rdf-syntax-ns#">
                <dc:format xmlns:dc="http://purl.org/dc/elements/1.1/">image/svg+xml</dc:format>
                <dc:type rdf:resource="http://purl.org/dc/dcmitype/StillImage" xmlns:dc="http://purl.org/dc/elements/1.1/" xmlns:rdf="http://www.w3.org/1999/02/22-rdf-syntax-ns#"/>
                <dc:title xmlns:dc="http://purl.org/dc/elements/1.1/"/>
            </cc:Work>
        </rdf:RDF>
        <sfw>
            <slices/>
            <sliceSourceBounds x="-2.6784" y="0" width="77.3568" height="50.4" bottomLeftOrigin="true"/>
        </sfw>
    </metadata>
    <desc>Fritzing breadboard generated by brd2svg</desc>
    <g id="breadboard">
        <g id="icon">
            <path d="m3 7.2c0-3.9765 3.2235-7.2 7.2-7.2h57.6c3.9765 0 7.2 3.2236 7.2 7.2v36c0 3.9764-3.2235 7.2-7.2 7.2h-57.6c-3.9764 0-7.2-3.2235-7.2-7.2v-36m9.3827 36c0 0.7828 0.6346 1.4173 1.4173 1.4173s1.4173-0.6346 1.4173-1.4173-0.6346-1.4173-1.4173-1.4173-1.4173 0.6345-1.4173 1.4173zm7.2 0c0 0.7828 0.6346 1.4173 1.4173 1.4173 0.7828 0 1.4173-0.6346 1.4173-1.4173s-0.6345-1.4173-1.4173-1.4173c-0.7827 0-1.4173 0.6345-1.4173 1.4173zm7.2 0c0 0.7828 0.6346 1.4173 1.4173 1.4173 0.7828 0 1.4173-0.6346 1.4173-1.4173s-0.6346-1.4173-1.4173-1.4173-1.4173 0.6345-1.4173 1.4173zm7.2 0c0 0.7828 0.6346 1.4173 1.4173 1.4173s1.4173-0.6346 1.4173-1.4173-0.6346-1.4173-1.4173-1.4173-1.4173 0.6345-1.4173 1.4173zm7.2 0c0 0.7828 0.6346 1.4173 1.4173 1.4173s1.4173-0.6346 1.4173-1.4173-0.6346-1.4173-1.4173-1.4173-1.4173 0.6345-1.4173 1.4173zm7.2 0c0 0.7828 0.6346 1.4173 1.4173 1.4173 0.7828 0 1.4173-0.6346 1.4173-1.4173s-0.6346-1.4173-1.4173-1.4173-1.4173 0.6345-1.4173 1.4173zm7.2 0c0 0.7828 0.6346 1.4173 1.4173 1.4173 0.7828 0 1.4173-0.6346 1.4173-1.4173s-0.6345-1.4173-1.4173-1.4173-1.4173 0.6345-1.4173 1.4173zm7.2 0c0 0.7828 0.6346 1.4173 1.4173 1.4173 0.7828 0 1.4173-0.6346 1.4173-1.4173s-0.6346-1.4173-1.4173-1.4173-1.4173 0.6345-1.4173 1.4173zm-56.126-36c-0.0033 1.9569 1.5804 3.546 3.5373 3.5493s3.546-1.5804 3.5493-3.5373v-0.012c0.0033-1.9569-1.5804-3.546-3.5374-3.5493-1.9569-0.0032-3.5459 1.5805-3.5492 3.5374v0.0119zm57.6 0c-0.0034 1.9569 1.5802 3.5461 3.5371 3.5495s3.5461-1.5802 3.5495-3.5371v-0.0124c0.0034-1.9569-1.5802-3.5461-3.5371-3.5495s-3.5461 1.5802-3.5495 3.5371v0.0124z"/>
            
                
                    <g transform="translate(10.577 49.55)">
                        <text fill="#FFFFFF" font-family="'OCRA'" font-size="2.6726">VIN</text>
                    </g>
                
                
                    <g transform="translate(17.417 40.19)">
                        <text fill="#FFFFFF" font-family="'OCRA'" font-size="2.6726">3Vo</text>
                    </g>
                
                
                    <g transform="translate(24.617 49.55)">
                        <text fill="#FFFFFF" font-family="'OCRA'" font-size="2.6726">GND</text>
                    </g>
                
                
                    <g transform="translate(32.177 40.19)">
                        <text fill="#FFFFFF" font-family="'OCRA'" font-size="2.6726">SCK</text>
                    </g>
                
                
                    <g transform="translate(46.577 40.19)">
                        <text fill="#FFFFFF" font-family="'OCRA'" font-size="2.6726">SDI</text>
                    </g>
                
                
                    <g transform="translate(31.849 6.3821)">
                        <text fill="#FFFFFF" font-family="'OCRA'" font-size="3.8754">ENS160</text>
                    </g>
                
                
                    <g transform="translate(26.599 10.67)">
                        <text fill="#FFFFFF" font-family="'OCRA'" font-size="2.6726">MOX Gas Sensor</text>
                    </g>
                
                
                    <g transform="translate(3.72 15.12)">
                        <text fill="#FFFFFF" font-family="'OCRA'" font-size="2.6726">on</text>
                    </g>
                
                
                    <g transform="translate(54.611 49.55)">
                        <text fill="#FFFFFF" font-family="'OCRA'" font-size="2.6726">CS</text>
                    </g>
                
                
                    <g transform="translate(39.377 49.55)">
                        <text fill="#FFFFFF" font-family="'OCRA'" font-size="2.6726">SDO</text>
                    </g>
                
                
                    <g transform="translate(60.617 40.19)">
                        <text fill="#FFFFFF" font-family="'OCRA'" font-size="2.6726">INT</text>
                    </g>
                
                
                    
                        <line x1="29.586" x2="31.854" y1="25.992" y2="25.992" fill="none" stroke="#fff" stroke-linecap="round" stroke-width=".864"/>
                    
                
                
                    
                        <line x1="22.08" x2="22.08" y1="32.76" y2="35.64" fill="none" stroke="#fff" stroke-linecap="round" stroke-width=".864"/>
                    
                
                
                    
                        <line x1="26.04" x2="26.04" y1="16.92" y2="14.04" fill="none" stroke="#fff" stroke-linecap="round" stroke-width=".864"/>
                    
                
                
                    
                        <line x1="32.16" x2="32.16" y1="35.64" y2="32.76" fill="none" stroke="#fff" stroke-linecap="round" stroke-width=".864"/>
                    
                
                
                    <g fill="none" stroke="#fff" stroke-linecap="round" stroke-width=".432">
                        <line x1="68.894" x2="61.524" y1="33.704" y2="33.704"/>
                        <line x1="61.524" x2="61.524" y1="33.704" y2="30.586"/>
                        <line x1="61.524" x2="61.524" y1="19.814" y2="16.413"/>
                        <line x1="61.524" x2="68.894" y1="16.413" y2="16.413"/>
                        <line x1="73.713" x2="73.713" y1="31.153" y2="19.247"/>
                    </g>
                
                
                    <g fill="none" stroke="#fff" stroke-linecap="round" stroke-width=".432">
                        <line x1="9.1058" x2="16.476" y1="16.696" y2="16.696"/>
                        <line x1="16.476" x2="16.476" y1="16.696" y2="19.814"/>
                        <line x1="16.476" x2="16.476" y1="30.586" y2="33.987"/>
                        <line x1="16.476" x2="9.1058" y1="33.987" y2="33.987"/>
                        <line x1="4.2869" x2="4.2869" y1="19.247" y2="31.153"/>
                    </g>
                
                
                    
                        
                            <path d="m12.684 14.76 0.9-0.72v1.44l-0.9-0.72" fill="none" stroke="#fff" stroke-linecap="round" stroke-width=".432"/>
                        
                        <g transform="matrix(0 -1 1 0 9.504 14.76)">
                            
                                <g transform="matrix(-2.5352e-6 -1 1 -2.5352e-6 -3 3)">
                                    <rect x="-.18" y="1.92" width=".36" height="2.16" fill="#fff"/>
                                </g>
                            
                        </g>
                    
                
                
                    
                        <line x1="58.395" x2="52.725" y1="36.184" y2="36.184" fill="none" stroke="#fff" stroke-linecap="round" stroke-width=".576"/>
                        <line x1="52.725" x2="58.395" y1="32.216" y2="32.216" fill="none" stroke="#fff" stroke-linecap="round" stroke-width=".576"/>
                        <line x1="56.269" x2="54.568" y1="34.2" y2="35.334" fill="none" stroke="#fff" stroke-linecap="round" stroke-width=".576"/>
                        <line x1="54.568" x2="54.568" y1="35.334" y2="33.066" fill="none" stroke="#fff" stroke-linecap="round" stroke-width=".576"/>
                        <line x1="54.568" x2="56.269" y1="33.066" y2="34.2" fill="none" stroke="#fff" stroke-linecap="round" stroke-width=".576"/>
                        
                            <path d="m55.844 34.2-0.8504 0.5669v-1.1338l0.8504 0.5669" fill="none" stroke="#fff" stroke-linecap="round" stroke-width=".576"/>
                        
                    
                
                
                    <g fill="none" stroke="#fff" stroke-width=".576">
                        <line x1="51.764" x2="54.316" y1="29.758" y2="29.758" stroke-linecap="round"/>
                        <line x1="51.764" x2="54.316" y1="23.522" y2="23.522" stroke-linecap="round"/>
                        <circle cx="54.032" cy="30.892" r=".2835"/>
                    </g>
                
                
                    
                        <line x1="19.974" x2="17.706" y1="15.12" y2="15.12" fill="none" stroke="#fff" stroke-linecap="round" stroke-width=".864"/>
                    
                
                
                    <g fill="none" stroke="#fff" stroke-linecap="round" stroke-width=".576">
                        <line x1="45.854" x2="45.854" y1="20.168" y2="12.232"/>
                        <line x1="56.626" x2="56.626" y1="12.232" y2="20.168"/>
                    </g>
                
                
                    
                        <line x1="35.616" x2="35.616" y1="16.47" y2="14.202" fill="none" stroke="#fff" stroke-linecap="round" stroke-width=".864"/>
                    
                
                
                    
                        <line x1="46.974" x2="44.706" y1="31.68" y2="31.68" fill="none" stroke="#fff" stroke-linecap="round" stroke-width=".864"/>
                    
                
                
                    
                        <circle cx="10.2" cy="7.2" r="5.6693" fill="none" stroke="#fff" stroke-width=".576"/>
                    
                
                
                    
                        <circle cx="67.8" cy="7.2" r="5.6693" fill="none" stroke="#fff" stroke-width=".576"/>
                    
                
                
                    <g fill="none" stroke="#fff" stroke-width=".576">
                        <line x1="28.71" x2="28.71" y1="27.108" y2="22.572" stroke-linecap="round"/>
                        <line x1="20.49" x2="20.49" y1="22.572" y2="27.108" stroke-linecap="round"/>
                        <circle cx="27.293" cy="23.848" r=".2835"/>
                    </g>
                
                
                    <g fill="none" stroke="#fff" stroke-width=".432">
                        <line x1="43.819" x2="43.819" y1="21.101" y2="30.739" stroke-linecap="round"/>
                        <line x1="43.819" x2="34.181" y1="30.739" y2="30.739" stroke-linecap="round"/>
                        <line x1="34.181" x2="34.181" y1="30.739" y2="21.101" stroke-linecap="round"/>
                        <line x1="34.181" x2="43.819" y1="21.101" y2="21.101" stroke-linecap="round"/>
                        <circle cx="43.819" cy="21.101" r=".6338"/>
                    </g>
                
            
            <g transform="matrix(0 -1 1 0 -.68145 56.122)">
                
                    <g transform="matrix(-2.5352e-6 -1 1 -2.5352e-6 -3.6814 59.122)">
                        <rect id="connector5pin" x="26.303" y="29.878" width="2.8347" height="3.0472" fill="#9A916C"/>
                    </g>
                
            </g>
            <g transform="matrix(0 -1 1 0 4.1374 51.302)">
                
                    <g transform="matrix(-2.5352e-6 -1 1 -2.5352e-6 1.1376 54.303)">
                        <rect id="connector6pin" x="26.303" y="25.059" width="2.8347" height="3.0472" fill="#9A916C"/>
                    </g>
                
            </g>
            <rect id="connector7pin" x="17.63" y="32.074" width="3.515" height="4.252" fill="#9A916C"/>
            <rect id="connector8pin" x="23.015" y="32.074" width="3.515" height="4.252" fill="#9A916C"/>
            <g transform="matrix(-1 0 0 -1 51.466 30.96)">
                
                    <rect id="connector9pin" x="20.975" y="13.354" width="3.515" height="4.252" fill="#9A916C"/>
                
            </g>
            <g transform="matrix(-1 0 0 -1 40.694 30.96)">
                
                    <rect id="connector10pin" x="15.59" y="13.354" width="3.515" height="4.252" fill="#9A916C"/>
                
            </g>
            <g transform="matrix(-1 0 0 -1 63.706 68.4)">
                
                    <rect id="connector11pin" x="27.095" y="32.074" width="3.515" height="4.252" fill="#9A916C"/>
                
            </g>
            <g transform="matrix(-1 0 0 -1 52.934 68.4)">
                
                    <rect id="connector12pin" x="21.71" y="32.074" width="3.515" height="4.252" fill="#9A916C"/>
                
            </g>
            <g transform="matrix(-1 0 0 -1 115.35 58.904)">
                
                    <rect x="52.477" y="28.602" width="4.3937" height="1.7008" fill="#9A916C"/>
                
            </g>
            <g transform="matrix(-1 0 0 -1 115.35 53.235)">
                
                    <rect x="52.477" y="25.767" width="4.3937" height="1.7008" fill="#9A916C"/>
                
            </g>
            <g transform="matrix(-1 0 0 -1 115.35 47.565)">
                
                    <rect x="52.477" y="22.932" width="4.3937" height="1.7008" fill="#9A916C"/>
                
            </g>
            <g transform="matrix(-1 0 0 -1 115.35 41.896)">
                
                    <rect x="52.477" y="20.098" width="4.3937" height="1.7008" fill="#9A916C"/>
                
            </g>
            <g transform="matrix(-1 0 0 -1 137.46 66.274)">
                
                    <rect id="connector17pin" x="63.178" y="31.436" width="5.1024" height="3.4016" fill="#9A916C"/>
                
            </g>
            <g transform="matrix(-1 0 0 -1 137.46 34.526)">
                
                    <rect id="connector18pin" x="63.178" y="15.562" width="5.1024" height="3.4016" fill="#9A916C"/>
                
            </g>
            <rect x="15.13" y="20.098" width="4.3937" height="1.7008" fill="#9A916C"/>
            <rect x="15.13" y="22.932" width="4.3937" height="1.7008" fill="#9A916C"/>
            <rect x="15.13" y="25.767" width="4.3937" height="1.7008" fill="#9A916C"/>
            <rect x="15.13" y="28.602" width="4.3937" height="1.7008" fill="#9A916C"/>
            <rect id="connector23pin" x="3.72" y="15.562" width="5.1024" height="3.4016" fill="#9A916C"/>
            <rect id="connector24pin" x="3.72" y="31.436" width="5.1024" height="3.4016" fill="#9A916C"/>
            <g transform="matrix(0 -1 1 0 -2.554 26.966)">
                
                    <g transform="matrix(-2.5352e-6 -1 1 -2.5352e-6 -5.5539 29.966)">
                        <rect id="connector25pin" x="11.072" y="16.626" width="2.2677" height="2.2677" fill="#9A916C"/>
                    </g>
                
            </g>
            <g transform="matrix(0 -1 1 0 -6.806 22.714)">
                
                    <g transform="matrix(-2.5352e-6 -1 1 -2.5352e-6 -9.8059 25.714)">
                        <rect id="connector26pin" x="6.8202" y="16.626" width="2.2677" height="2.2677" fill="#9A916C"/>
                    </g>
                
            </g>
            <g transform="matrix(-1 0 0 -1 97.92 68.4)">
                
                    <rect id="connector27pin" x="44.047" y="33.066" width="3.8268" height="2.2677" fill="#9A916C"/>
                
            </g>
            <g transform="matrix(-1 0 0 -1 112.32 68.4)">
                
                    <rect id="connector28pin" x="51.247" y="33.066" width="3.8268" height="2.2677" fill="#9A916C"/>
                
            </g>
            <path id="connector29pin" d="m6.6 36.563c0.7828 0 1.4173 0.6346 1.4173 1.4173 0 0.7828-0.6346 1.4173-1.4173 1.4173-0.7828 0-1.4173-0.6346-1.4173-1.4173s0.6345-1.4173 1.4173-1.4173z" fill="#9A916C"/>
            <path id="connector30pin" d="m58.8 2.7947c0.7828 0 1.4173 0.6346 1.4173 1.4173 0 0.7828-0.6346 1.4173-1.4173 1.4173-0.7828 0-1.4173-0.6346-1.4173-1.4173 0-0.7828 0.6346-1.4173 1.4173-1.4173z" fill="#9A916C"/>
            <circle id="connector31pin" cx="13.8" cy="43.2" r="1.9687" fill="none" stroke="#9A916C" stroke-width="1.1027"/>
            <circle id="connector32pin" cx="21" cy="43.2" r="1.9687" fill="none" stroke="#9A916C" stroke-width="1.1027"/>
            <circle id="connector33pin" cx="28.2" cy="43.2" r="1.9687" fill="none" stroke="#9A916C" stroke-width="1.1027"/>
            <circle id="connector34pin" cx="35.4" cy="43.2" r="1.9687" fill="none" stroke="#9A916C" stroke-width="1.1027"/>
            <circle id="connector35pin" cx="42.6" cy="43.2" r="1.9687" fill="none" stroke="#9A916C" stroke-width="1.1027"/>
            <circle id="connector36pin" cx="49.8" cy="43.2" r="1.9687" fill="none" stroke="#9A916C" stroke-width="1.1027"/>
            <circle id="connector37pin" cx="57" cy="43.2" r="1.9687" fill="none" stroke="#9A916C" stroke-width="1.1027"/>
            <circle id="connector38pin" cx="64.2" cy="43.2" r="1.9687" fill="none" stroke="#9A916C" stroke-width="1.1027"/>
            <g transform="matrix(0 -1 1 0 23.825 81.357)">
                
                    <g transform="matrix(-2.5352e-6 -1 1 -2.5352e-6 20.825 84.357)">
                        <rect id="connector39pin" x="51.883" y="31.057" width="1.4173" height="1.4173" fill="#9A916C"/>
                    </g>
                
            </g>
            <g transform="matrix(0 -1 1 0 25.951 79.231)">
                
                    <g transform="matrix(-2.5352e-6 -1 1 -2.5352e-6 22.951 82.231)">
                        <rect id="connector40pin" x="51.882" y="29.073" width="1.4173" height="1.1339" fill="#9A916C"/>
                    </g>
                
            </g>
            <g transform="matrix(0 -1 1 0 28.077 77.106)">
                
                    <g transform="matrix(-2.5352e-6 -1 1 -2.5352e-6 25.077 80.105)">
                        <rect id="connector41pin" x="51.883" y="26.805" width="1.4173" height="1.4173" fill="#9A916C"/>
                    </g>
                
            </g>
            <g transform="matrix(0 -1 1 0 22.975 72.003)">
                
                    <g transform="matrix(-2.5352e-6 -1 1 -2.5352e-6 19.975 75.003)">
                        <rect id="connector42pin" x="46.78" y="26.805" width="1.4173" height="1.4173" fill="#9A916C"/>
                    </g>
                
            </g>
            <g transform="matrix(0 -1 1 0 20.849 74.129)">
                
                    <g transform="matrix(-2.5352e-6 -1 1 -2.5352e-6 17.849 77.129)">
                        <rect id="connector43pin" x="46.78" y="29.073" width="1.4173" height="1.1339" fill="#9A916C"/>
                    </g>
                
            </g>
            <g transform="matrix(0 -1 1 0 18.723 76.254)">
                
                    <g transform="matrix(-2.5352e-6 -1 1 -2.5352e-6 15.723 79.255)">
                        <rect id="connector44pin" x="46.78" y="31.057" width="1.4173" height="1.4173" fill="#9A916C"/>
                    </g>
                
            </g>
            <g transform="matrix(0 1 -1 0 28.55 -3.1294)">
                
                    <g transform="matrix(2.5352e-6 1 -1 2.5352e-6 25.55 -6.1295)">
                        <rect id="connector45pin" x="14.423" y="8.1869" width="2.8347" height="3.0472" fill="#9A916C"/>
                    </g>
                
            </g>
            <g transform="matrix(0 1 -1 0 33.37 1.6894)">
                
                    <g transform="matrix(2.5352e-6 1 -1 2.5352e-6 30.37 -1.3105)">
                        <rect id="connector46pin" x="14.423" y="13.006" width="2.8347" height="3.0472" fill="#9A916C"/>
                    </g>
                
            </g>
            <g transform="matrix(-1 0 0 -1 103.85 27.581)">
                
                    <rect id="connector47pin" x="48.287" y="12.515" width="1.2756" height="2.5512" fill="#9A916C"/>
                
            </g>
            <g transform="matrix(-1 0 0 -1 98.748 27.581)">
                
                    <rect id="connector48pin" x="45.736" y="12.515" width="1.2756" height="2.5512" fill="#9A916C"/>
                
            </g>
            <g transform="matrix(-1 0 0 -1 94.212 27.581)">
                
                    <rect id="connector49pin" x="43.468" y="12.515" width="1.2756" height="2.5512" fill="#9A916C"/>
                
            </g>
            <g transform="matrix(-1 0 0 -1 89.11 27.581)">
                
                    <rect id="connector50pin" x="40.917" y="12.515" width="1.2756" height="2.5512" fill="#9A916C"/>
                
            </g>
            <g transform="matrix(-1 0 0 -1 89.11 37.219)">
                
                    <rect id="connector51pin" x="40.917" y="17.334" width="1.2756" height="2.5512" fill="#9A916C"/>
                
            </g>
            <g transform="matrix(-1 0 0 -1 94.212 37.219)">
                
                    <rect id="connector52pin" x="43.468" y="17.334" width="1.2756" height="2.5512" fill="#9A916C"/>
                
            </g>
            <g transform="matrix(-1 0 0 -1 98.748 37.219)">
                
                    <rect id="connector53pin" x="45.736" y="17.334" width="1.2756" height="2.5512" fill="#9A916C"/>
                
            </g>
            <g transform="matrix(-1 0 0 -1 103.85 37.219)">
                
                    <rect id="connector54pin" x="48.287" y="17.334" width="1.2756" height="2.5512" fill="#9A916C"/>
                
            </g>
            <g transform="matrix(-1 0 0 -1 70.051 30.672)">
                
                    <rect id="connector55pin" x="30.502" y="13.919" width="3.0472" height="2.8346" fill="#9A916C"/>
                
            </g>
            <g transform="matrix(-1 0 0 -1 60.413 30.672)">
                
                    <rect id="connector56pin" x="25.683" y="13.919" width="3.0472" height="2.8346" fill="#9A916C"/>
                
            </g>
            <g transform="matrix(0 1 -1 0 72.111 -13.57)">
                
                    <g transform="matrix(2.5352e-6 1 -1 2.5352e-6 69.11 -16.57)">
                        <rect id="connector57pin" x="41.423" y="24.747" width="2.8347" height="3.0472" fill="#9A916C"/>
                    </g>
                
            </g>
            <g transform="matrix(0 1 -1 0 76.929 -8.7505)">
                
                    <g transform="matrix(2.5352e-6 1 -1 2.5352e-6 73.929 -11.751)">
                        <rect id="connector58pin" x="41.423" y="29.566" width="2.8347" height="3.0472" fill="#9A916C"/>
                    </g>
                
            </g>
            <circle id="connector59pin" cx="10.2" cy="7.2" r="4.2633" fill="none" stroke="#9A916C" stroke-width="1.44"/>
            <circle id="connector60pin" cx="67.8" cy="7.2" r="4.2633" fill="none" stroke="#9A916C" stroke-width="1.44"/>
            <g transform="matrix(-1 0 0 -1 48.586 42.31)">
                
                    <rect id="connector61pin" x="20.513" y="19.454" width="1.559" height="3.4016" fill="#9A916C"/>
                
            </g>
            <g transform="matrix(-1 0 0 -1 43.2 42.31)">
                
                    <rect id="connector62pin" x="17.82" y="19.454" width="1.559" height="3.4016" fill="#9A916C"/>
                
            </g>
            <g transform="matrix(-1 0 0 -1 37.814 42.31)">
                
                    <rect id="connector63pin" x="15.128" y="19.454" width="1.559" height="3.4016" fill="#9A916C"/>
                
            </g>
            <g transform="matrix(-1 0 0 -1 37.814 57.05)">
                
                    <rect id="connector64pin" x="15.128" y="26.824" width="1.559" height="3.4016" fill="#9A916C"/>
                
            </g>
            <g transform="matrix(-1 0 0 -1 43.2 57.05)">
                
                    <rect id="connector65pin" x="17.82" y="26.824" width="1.559" height="3.4016" fill="#9A916C"/>
                
            </g>
            <g transform="matrix(-1 0 0 -1 48.586 57.05)">
                
                    <rect id="connector66pin" x="20.513" y="26.824" width="1.559" height="3.4016" fill="#9A916C"/>
                
            </g>
            <g transform="matrix(0 1 -1 0 61.92 -16.033)">
                
                    <g transform="matrix(2.5352e-6 1 -1 2.5352e-6 58.92 -19.033)">
                        <rect id="connector67pin" x="37.914" y="18.81" width="2.126" height="2.2677" fill="#9A916C"/>
                    </g>
                
            </g>
            <g transform="matrix(0 1 -1 0 58.944 -13.056)">
                
                    <g transform="matrix(2.5352e-6 1 -1 2.5352e-6 55.944 -16.056)">
                        <rect id="connector68pin" x="34.937" y="18.81" width="2.126" height="2.2677" fill="#9A916C"/>
                    </g>
                
            </g>
            <g transform="matrix(0 1 -1 0 55.967 -10.08)">
                
                    <g transform="matrix(2.5352e-6 1 -1 2.5352e-6 52.967 -13.08)">
                        <rect id="connector69pin" x="31.961" y="18.81" width="2.126" height="2.2677" fill="#9A916C"/>
                    </g>
                
            </g>
            <g transform="matrix(0 1 -1 0 58.944 -7.1036)">
                
                    <g transform="matrix(2.5352e-6 1 -1 2.5352e-6 55.944 -10.104)">
                        <rect id="connector70pin" x="31.961" y="21.786" width="2.126" height="2.2677" fill="#9A916C"/>
                    </g>
                
            </g>
            <g transform="matrix(0 1 -1 0 61.92 -4.1272)">
                
                    <g transform="matrix(2.5352e-6 1 -1 2.5352e-6 58.92 -7.1272)">
                        <rect id="connector71pin" x="31.961" y="24.762" width="2.126" height="2.2677" fill="#9A916C"/>
                    </g>
                
            </g>
            <g transform="matrix(0 1 -1 0 64.896 -7.1036)">
                
                    <g transform="matrix(2.5352e-6 1 -1 2.5352e-6 61.896 -10.104)">
                        <rect id="connector72pin" x="34.937" y="24.762" width="2.126" height="2.2677" fill="#9A916C"/>
                    </g>
                
            </g>
            <g transform="matrix(0 1 -1 0 67.873 -10.08)">
                
                    <g transform="matrix(2.5352e-6 1 -1 2.5352e-6 64.873 -13.08)">
                        <rect id="connector73pin" x="37.914" y="24.762" width="2.126" height="2.2677" fill="#9A916C"/>
                    </g>
                
            </g>
            <g transform="matrix(0 1 -1 0 64.896 -13.056)">
                
                    <g transform="matrix(2.5352e-6 1 -1 2.5352e-6 61.896 -16.056)">
                        <rect id="connector74pin" x="37.914" y="21.786" width="2.126" height="2.2677" fill="#9A916C"/>
                    </g>
                
            </g>
            <g transform="matrix(0 1 -1 0 61.92 -10.08)">
                
                    <g transform="matrix(2.5352e-6 1 -1 2.5352e-6 58.92 -13.08)">
                        <rect id="connector75pin" x="34.937" y="21.786" width="2.126" height="2.2677" fill="#9A916C"/>
                    </g>
                
            </g>
        </g>
        <g transform="translate(25.452 24.858)">
            
                <g transform="matrix(0 -1 1 0 1.1335 3.4015)">
                    
                        <path d="M4.245,5.268H0.29C0.13,5.268,0,5.138,0,4.977V3.29C0,3.13,0.13,3,0.29,3h3.955c0.16,0,0.29,0.13,0.29,0.29v1.687C4.535,5.138,4.405,5.268,4.245,5.268z" fill="#DCDCDC"/>
                        <g transform="matrix(-2.5352e-6 -1 1 -2.5352e-6 -1.866 6.402)">
                            <rect x="1.134" y="3" width="2.268" height="2.268" fill="#6E554B"/>
                        </g>
                    
                </g>
            
        </g>
        <g transform="translate(16.246 32.428)">
            
                <path d="M8.386,3.543H3.283C3.127,3.543,3,3.416,3,3.26V0.283C3,0.127,3.127,0,3.283,0h5.102c0.157,0,0.283,0.127,0.283,0.283V3.26C8.669,3.416,8.542,3.543,8.386,3.543z" fill="#DCDCDC"/>
                <rect x="4.063" width="3.543" height="3.543" fill="#6E554B"/>
            
        </g>
        <g transform="translate(20.206 13.708)">
            
                <g transform="matrix(-1 0 0 -1 5.669 3.543)">
                    
                        <path d="M2.386,3.543h-5.103C-2.873,3.543-3,3.416-3,3.26V0.283C-3,0.127-2.873,0-2.717,0h5.102c0.157,0,0.283,0.127,0.283,0.283V3.26C2.669,3.416,2.542,3.543,2.386,3.543z" fill="#DCDCDC"/>
                        <rect x="-1.937" width="3.543" height="3.543" fill="#6E554B"/>
                    
                </g>
            
        </g>
        <g transform="translate(26.326 32.428)">
            
                <g transform="matrix(-1 0 0 -1 5.669 3.543)">
                    
                        <path d="M2.386,3.543h-5.103C-2.873,3.543-3,3.416-3,3.26V0.283C-3,0.127-2.873,0-2.717,0h5.102c0.157,0,0.283,0.127,0.283,0.283V3.26C2.669,3.416,2.542,3.543,2.386,3.543z" fill="#DCDCDC"/>
                        <rect x="-1.937" width="3.543" height="3.543" fill="#6E554B"/>
                    
                </g>
            
        </g>
        <g transform="translate(54.778 18.3)">
            
                <g transform="matrix(0 -1 1 0 1.7 15.5)">
                    
                        <path d="m1.6 5.4h14.2v1.4h1.4v10h-17v-10h1.4v-1.4z" fill="#666"/>
                        <g transform="matrix(-.0068 -1 1 -.0068 4.0974 24.671)">
                            <rect x="12.1" y="9.6005" width="4.4001" height="1.4"/>
                        </g>
                        <g transform="matrix(-.0068 -1 1 -.0068 -7.3791 13.471)">
                            <rect x=".8002" y="9.7001" width="4.4001" height="1.4"/>
                        </g>
                        <g transform="matrix(-.0068 -1 1 -.0068 7.0473 21.7)">
                            <rect x="13.55" y="6.6503" width="1.5" height="1.4" fill="#333"/>
                        </g>
                        <g transform="matrix(-.0068 -1 1 -.0068 -4.4292 10.501)">
                            <rect x="2.2501" y="6.7499" width="1.5" height="1.4" fill="#333"/>
                        </g>
                        <g transform="matrix(-.0068 -1 1 -.0068 8.188 17.732)">
                            <rect x="11.1" y="4.3" width="3.6001" height="1" fill="#DCDCDC"/>
                        </g>
                        <g transform="matrix(-.0068 -1 1 -.0068 5.369 14.932)" fill="#DCDCDC">
                            <rect x="8.2999" y="4.2997" width="3.6001" height="1"/>
                        
                        
                            <rect x="8.2999" y="4.2997" width="3.6001" height="1"/>
                        </g>
                        <g transform="matrix(-.0068 -1 1 -.0068 2.4487 12.032)">
                            <rect x="5.3997" y="4.3001" width="3.6001" height="1" fill="#DCDCDC"/>
                        </g>
                        <g transform="matrix(-.0068 -1 1 -.0068 -.4696 9.3333)">
                            <rect x="2.6002" y="4.3998" width="3.6001" height="1" fill="#DCDCDC"/>
                        </g>
                        <path d="m0.2 11.9v-5-0.1h1.4v-0.7-0.7h2.2v0.3 0.7 0.3h0.2 0.5 0.3v-1.3h1.8v0.2 0.7 0.4h1v-0.7-0.6h1.8v0.1 0.1s0 0.3 0 0.5v0.5h1v-1.4h0.9 0.9s0 0.3 0 0.6v0.6h0.3 0.5 0.2v-1.2h2.4v1.4h1.4v1.7 5 3.4h-3.3-8.5-5.3l0.3-4.8zm3.5 0.4v-4.9-0.6l-0.7-0.1h-0.7s0 4.3 0 5.1v0.7h0.7 0.7v-0.2zm11.4 0.2v-5.7-0.1h-0.7-0.7s0 1.9 0 4.6v1.2h0.7 0.7z"/>
                        <path d="m2.3 8.1v-0.7-0.6h0.1 1 0.4v0.5 0.7 0.2h-0.8l-0.7-0.1z"/>
                        <path d="m13.6 7.9v-0.7-0.6h0.1 0.7 0.6v0.1 0.7 0.6h-1.4v-0.1z"/>
                        <g transform="matrix(-2.5352e-6 -1 1 -2.5352e-6 -17.2 21.2)">
                            <ellipse id="connector13pin" cx="2" cy="19.2" rx="2" ry="2"/>
                        </g>
                        <g transform="matrix(-2.5352e-6 -1 1 -2.5352e-6 -12.7 25.7)">
                            <ellipse id="connector14pin" cx="6.5" cy="19.2" rx="2" ry="2" fill="#f00"/>
                        </g>
                        <g transform="matrix(-2.5352e-6 -1 1 -2.5352e-6 -8.1 30.3)">
                            <ellipse id="connector15pin" cx="11.1" cy="19.2" rx="2" ry="2" fill="#00f"/>
                        </g>
                        <g transform="matrix(-2.5352e-6 -1 1 -2.5352e-6 -3.6 34.8)">
                            <ellipse id="connector16pin" cx="15.6" cy="19.2" rx="2" ry="2" fill="#ff0"/>
                        </g>
                    
                </g>
            
        </g>
        <g transform="translate(.021571 18.3)">
            
                <g transform="matrix(0 1 -1 0 15.5 -1.7)">
                    
                        <path d="m1.6-0.6h14.2v1.4h1.4v10h-17v-10h1.4v-1.4z" fill="#666"/>
                        <g transform="matrix(.0068 1 -1 .0068 18.504 -10.029)">
                            <rect x="12.1" y="3.6005" width="4.4001" height="1.4"/>
                        </g>
                        <g transform="matrix(.0068 1 -1 .0068 7.3799 1.3699)">
                            <rect x=".8002" y="3.7001" width="4.4001" height="1.4"/>
                        </g>
                        <g transform="matrix(.0068 1 -1 .0068 15.553 -12.959)">
                            <rect x="13.55" y=".6503" width="1.5" height="1.4" fill="#333"/>
                        </g>
                        <g transform="matrix(.0068 1 -1 .0068 4.4295 -1.56)">
                            <rect x="2.2501" y=".7499" width="1.5" height="1.4" fill="#333"/>
                        </g>
                        <g transform="matrix(.0068 1 -1 .0068 11.612 -14.092)">
                            <rect x="11.1" y="-1.7" width="3.6001" height="1" fill="#DCDCDC"/>
                        </g>
                        <g transform="matrix(.0068 1 -1 .0068 8.8309 -11.292)" fill="#DCDCDC">
                            <rect x="8.2999" y="-1.7003" width="3.6001" height="1"/>
                        
                        
                            <rect x="8.2999" y="-1.7003" width="3.6001" height="1"/>
                        </g>
                        <g transform="matrix(.0068 1 -1 .0068 5.9509 -8.3913)">
                            <rect x="5.3997" y="-1.6999" width="3.6001" height="1" fill="#DCDCDC"/>
                        </g>
                        <g transform="matrix(.0068 1 -1 .0068 3.2701 -5.4928)">
                            <rect x="2.6002" y="-1.6002" width="3.6001" height="1" fill="#DCDCDC"/>
                        </g>
                        <path d="m0.2 5.9v-5-0.1h1.4v-0.7-0.7h2.2v0.3 0.7 0.3h0.2 0.5 0.3v-1.3h1.8v0.2 0.7 0.4h1v-0.7-0.6h1.8v0.1 0.1s0 0.3 0 0.5v0.5h1v-1.4h0.9 0.9s0 0.3 0 0.6v0.6h0.3 0.5 0.2v-1.2h2.4v1.4h1.4v1.7 5 3.4h-3.3-8.5-5.3l0.3-4.8zm3.5 0.4v-4.9-0.6l-0.7-0.1h-0.7s0 4.3 0 5.1v0.7h0.7 0.7v-0.2zm11.4 0.2v-5.7-0.1h-0.7-0.7s0 1.9 0 4.6v1.2h0.7 0.7z"/>
                        <path d="m2.3 2.1v-0.7-0.6h0.1 1 0.4v0.5 0.7 0.2h-0.8l-0.7-0.1z"/>
                        <path d="m13.6 1.9v-0.7-0.6h0.1 0.7 0.6v0.1 0.7 0.6h-1.4v-0.1z"/>
                        <g transform="matrix(2.5352e-6 1 -1 2.5352e-6 15.2 11.2)">
                            <ellipse id="connector19pin" cx="2" cy="13.2" rx="2" ry="2"/>
                        </g>
                        <g transform="matrix(2.5352e-6 1 -1 2.5352e-6 19.7 6.7)">
                            <ellipse id="connector20pin" cx="6.5" cy="13.2" rx="2" ry="2" fill="#f00"/>
                        </g>
                        <g transform="matrix(2.5352e-6 1 -1 2.5352e-6 24.3 2.1)">
                            <ellipse id="connector21pin" cx="11.1" cy="13.2" rx="2" ry="2" fill="#00f"/>
                        </g>
                        <g transform="matrix(2.5352e-6 1 -1 2.5352e-6 28.8 -2.4)">
                            <ellipse id="connector22pin" cx="15.6" cy="13.2" rx="2" ry="2" fill="#ff0"/>
                        </g>
                    
                </g>
            
        </g>
        <g transform="translate(8.946 12.492)">
            
                <g transform="matrix(0 -1 1 0 -1.1335 3.4015)">
                    
                        <path d="M2.268,3.29v3.955c0,0.16-0.13,0.29-0.29,0.29H0.29C0.13,7.535,0,7.405,0,7.245V3.29C0,3.13,0.13,3,0.29,3h1.687C2.138,3,2.268,3.13,2.268,3.29z" fill="#DCDCDC"/>
                        <g transform="matrix(-2.5352e-6 -1 1 -2.5352e-6 -4.1335 6.4017)">
                            <rect x="1e-4" y="4.1336" width="2.268" height="2.268" fill="#0f0"/>
                        </g>
                        <circle cx="1.134" cy="5.268" r=".354" fill="#00B400"/>
                    
                </g>
            
        </g>
        <g transform="translate(49.016 32.428)">
            
                <g transform="matrix(-1 0 0 -1 7.087 3.543)">
                    
                        <rect x="-3" y="1.346" width="7.087" height=".85" fill="#DCDCDC"/>
                        <rect x="-1.866" width="4.819" height="3.543" fill="#303030"/>
                        <rect x="-1.4413" y=".0117" width=".6332" height="3.5557" fill="#666"/>
                    
                </g>
            
        </g>
        <g transform="translate(46.496 24.372)">
            
                <g transform="matrix(0 -1 1 0 .567 6.52)">
                    
                        
                            <g transform="matrix(-2.5352e-6 -1 1 -2.5352e-6 -1.724 10.229)">
                                <rect x="1.276" y="5.622" width="5.953" height=".709" fill="#DCDCDC"/>
                            </g>
                            <g transform="matrix(-2.5352e-6 -1 1 -2.5352e-6 .119 12.072)">
                                <rect x="3.119" y="5.622" width="5.953" height=".709" fill="#DCDCDC"/>
                            </g>
                            <g transform="matrix(-2.5352e-6 -1 1 -2.5352e-6 -3.566 8.387)">
                                <rect x="-.566" y="5.622" width="5.953" height=".709" fill="#DCDCDC"/>
                            </g>
                            <g transform="matrix(-2.5352e-6 -1 1 -2.5352e-6 -1.724 10.229)">
                                <rect x="2.481" y="3.142" width="3.543" height="5.669" fill="#303030"/>
                            </g>
                        
                    
                </g>
            
        </g>
        <g transform="translate(13.572 13.986)">
            
                <g transform="matrix(0 1 -1 0 3.4015 -1.1335)">
                    
                        <path d="M4.245-0.732H0.29C0.13-0.732,0-0.862,0-1.023V-2.71C0-2.87,0.13-3,0.29-3h3.955c0.16,0,0.29,0.13,0.29,0.29v1.687C4.535-0.862,4.405-0.732,4.245-0.732z" fill="#DCDCDC"/>
                        <g transform="matrix(2.5352e-6 1 -1 2.5352e-6 .402 -4.134)">
                            <rect x="1.134" y="-3" width="2.268" height="2.268" fill="#333"/>
                        </g>
                    
                </g>
            
        </g>
        <g transform="translate(43.704 13.932)">
            
                <g transform="matrix(-1 0 0 -1 9.071 4.535)">
                    
                        
                            <rect x="-3" width="1.843" height="4.535" fill="#DCDCDC"/>
                            <rect x="-.307" width="1.417" height="4.535" fill="#DCDCDC"/>
                            <rect x="1.961" width="1.417" height="4.535" fill="#DCDCDC"/>
                            <rect x="4.228" width="1.843" height="4.535" fill="#DCDCDC"/>
                            <rect x="-3" y=".85" width="9.071" height="2.835" fill="#303030"/>
                        
                    
                </g>
            
        </g>
        <g transform="translate(30.348 14.202)">
            
                <g transform="matrix(-1 0 0 -1 4.535 2.268)">
                    
                        <path d="M1.245,2.268H-2.71C-2.87,2.268-3,2.138-3,1.977V0.29C-3,0.13-2.87,0-2.71,0h3.955c0.16,0,0.29,0.13,0.29,0.29v1.687C1.535,2.138,1.405,2.268,1.245,2.268z" fill="#DCDCDC"/>
                        <rect x="-1.866" width="2.268" height="2.268" fill="#333"/>
                    
                </g>
            
        </g>
        <g transform="translate(40.572 30.546)">
            
                <g transform="matrix(0 1 -1 0 3.4015 -1.1335)">
                    
                        <path d="M4.245-0.732H0.29C0.13-0.732,0-0.862,0-1.023V-2.71C0-2.87,0.13-3,0.29-3h3.955c0.16,0,0.29,0.13,0.29,0.29v1.687C4.535-0.862,4.405-0.732,4.245-0.732z" fill="#DCDCDC"/>
                        <g transform="matrix(2.5352e-6 1 -1 2.5352e-6 .402 -4.134)">
                            <rect x="1.134" y="-3" width="2.268" height="2.268" fill="#333"/>
                        </g>
                    
                </g>
            
        </g>
        <g transform="translate(12.008 2.694)">
            
                <path d="m14.39 3.1059c-0.032-0.2-0.141-0.257-0.403-0.341-0.199-0.064-1.533-0.489-1.533-0.489s-0.93-0.351-1.619 0.146c-0.093 0.066-0.189 0.143-0.286 0.224 0.082-0.097 0.158-0.193 0.224-0.286 0.495-0.69 0.143-1.619 0.143-1.619s-0.427-1.334-0.492-1.533c-0.085-0.262-0.142-0.37-0.342-0.402s-0.288 0.054-0.449 0.277c-0.122 0.17-0.939 1.307-0.939 1.307s-0.621 0.777-0.361 1.586c0.034 0.109 0.077 0.224 0.125 0.341-0.067-0.108-0.135-0.209-0.203-0.302-0.503-0.684-1.496-0.636-1.496-0.636s-1.4-6e-3 -1.61-6e-3c-0.275-1e-3 -0.396 0.02-0.488 0.201-0.091 0.181-0.037 0.291 0.126 0.513 0.124 0.169 0.953 1.297 0.953 1.297s0.546 0.83 1.395 0.834c0.114 0 0.236-5e-3 0.362-0.014-0.122 0.03-0.24 0.064-0.348 0.1-0.806 0.267-1.067 1.226-1.067 1.226s-0.438 1.33-0.503 1.529c-0.086 0.261-0.103 0.383 0.04 0.526 0.144 0.143 0.265 0.126 0.526 0.04 0.199-0.065 1.528-0.506 1.528-0.506s0.958-0.263 1.224-1.07c0.036-0.108 0.069-0.225 0.1-0.348-9e-3 0.126-0.014 0.248-0.013 0.362 5e-3 0.849 0.836 1.394 0.836 1.394s1.13 0.827 1.298 0.951c0.223 0.162 0.333 0.216 0.514 0.124s0.201-0.213 0.2-0.488c-1e-3 -0.21-9e-3 -1.61-9e-3 -1.61s0.047-0.993-0.639-1.495c-0.092-0.067-0.194-0.135-0.301-0.202 0.117 0.047 0.232 0.09 0.34 0.124 0.81 0.258 1.584-0.364 1.584-0.364s1.136-0.819 1.306-0.941c0.223-0.161 0.309-0.249 0.277-0.45zm-4.822-1.031c0.152 0.024 0.228 0.349 0.169 0.726s-0.231 0.662-0.384 0.638-0.229-0.349-0.169-0.725c0.059-0.377 0.231-0.663 0.384-0.639zm-1.956 0.999c0.07-0.138 0.402-0.11 0.742 0.063s0.558 0.425 0.488 0.563-0.402 0.11-0.742-0.063-0.558-0.425-0.488-0.563zm1.031 1.878c-0.269 0.27-0.577 0.4-0.686 0.291s0.02-0.416 0.29-0.686c0.269-0.27 0.576-0.4 0.686-0.291 0.109 0.109-0.021 0.416-0.29 0.686zm1.484 0.633c-0.138 0.07-0.39-0.148-0.563-0.487-0.174-0.34-0.203-0.673-0.065-0.743s0.39 0.148 0.563 0.487c0.173 0.34 0.202 0.672 0.065 0.743zm0.357-1.573c-0.377 0.06-0.701-0.015-0.726-0.168-0.024-0.153 0.262-0.325 0.638-0.385 0.377-0.06 0.701 0.015 0.726 0.168 0.024 0.153-0.261 0.325-0.638 0.385z" fill="#DCDCDC"/>
            
        </g>
        <g transform="translate(17.49 21.013)">
            
                <g transform="matrix(-1 0 0 -1 8.22 7.654)">
                    
                        <rect x="-2.15" width="1.134" height="7.654" fill="#DCDCDC"/>
                        <rect x="3.236" width="1.134" height="7.654" fill="#DCDCDC"/>
                        <rect x=".543" y=".004" width="1.134" height="7.65" fill="#DCDCDC"/>
                        <rect x="-3" y="1.559" width="8.22" height="4.535" fill="#303030"/>
                    
                </g>
            
        </g>
    </g>
    <rect x="34.464" y="21.384" width="9.071" height="9.071" fill="#9E9E9E"/>
    <path d="m41.995 29.658h-6.2871c-0.4128 0-0.7474-0.3346-0.7474-0.7474v-6.2872c0-0.4128 0.3346-0.7474 0.7474-0.7474h6.2872c0.4128 0 0.7474 0.3346 0.7474 0.7474v6.2872c-1e-4 0.4128-0.3347 0.7474-0.7475 0.7474z" fill="#fff"/>
    <path d="m41.572 29.719h-5.6542c-0.4128 0-0.7474-0.3346-0.7474-0.7474v-6.1043c0-0.4128 0.3346-0.7474 0.7474-0.7474h5.6542c0.4128 0 0.7474 0.3346 0.7474 0.7474v6.1043c-1e-4 0.4128-0.3347 0.7474-0.7474 0.7474z" fill="#B2B2B2"/>
    <circle cx="41.34" cy="23.288" r=".4264"/>
</svg>
