<?xml version="1.0" encoding="UTF-8"?>
<!-- Generator: Adobe Illustrator 23.0.6, SVG Export Plug-In . SVG Version: 6.00 Build 0)  -->
<svg width="3.1706in" height="1.8501in" enable-background="new 0 0 228.284 133.2086" version="1.1" viewBox="0 0 228.28 133.21" xml:space="preserve" xmlns="http://www.w3.org/2000/svg" xmlns:xml="http://www.w3.org/XML/1998/namespace">
    <desc>
        <referenceFile>2.9in eInk rev B_breadboard.svg</referenceFile>
    </desc>
    <desc>Fritzing breadboard generated by brd2svg</desc>
    
        <g id="breadboard">
            <g id="icon">
                <path d="m221.44 9e-3c3.7726-0.0045 6.8348 3.0498 6.84 6.8224v119.2c-0.0019 3.9614-3.2096 7.174-7.171 7.182h-212.43c-3.9764 0-7.2-3.2235-7.2-7.2v-29.52l5.04-3.24v-50.04l-5.04-3.96v-32.4c0.1988-3.9764 3.5836-7.0388 7.56-6.84h212.4m-151.18 126c0 0.7828 0.6346 1.4173 1.4173 1.4173 0.7828 0 1.4173-0.6346 1.4173-1.4173s-0.6346-1.4173-1.4173-1.4173c-0.7828 0-1.4173 0.6345-1.4173 1.4173zm7.1996 0c0 0.7828 0.6346 1.4173 1.4173 1.4173 0.7828 0 1.4173-0.6346 1.4173-1.4173s-0.6346-1.4173-1.4173-1.4173c-0.7828 0-1.4173 0.6345-1.4173 1.4173zm7.2 0c0 0.7828 0.6346 1.4173 1.4173 1.4173 0.7828 0 1.4173-0.6346 1.4173-1.4173s-0.6346-1.4173-1.4173-1.4173c-0.7828 0-1.4173 0.6345-1.4173 1.4173zm7.2 0c0 0.7828 0.6346 1.4173 1.4173 1.4173 0.7828 0 1.4173-0.6346 1.4173-1.4173s-0.6346-1.4173-1.4173-1.4173c-0.7828 0-1.4173 0.6345-1.4173 1.4173zm7.2 0c0 0.7828 0.6346 1.4173 1.4173 1.4173 0.7828 0 1.4173-0.6346 1.4173-1.4173s-0.6346-1.4173-1.4173-1.4173c-0.7828 0-1.4173 0.6345-1.4173 1.4173zm7.1997 0c0 0.7828 0.6346 1.4173 1.4173 1.4173 0.7828 0 1.4173-0.6346 1.4173-1.4173s-0.6346-1.4173-1.4173-1.4173c-0.7828 0-1.4173 0.6345-1.4173 1.4173zm7.2 0c0 0.7828 0.6346 1.4173 1.4173 1.4173 0.7828 0 1.4173-0.6346 1.4173-1.4173s-0.6346-1.4173-1.4173-1.4173c-0.7828 0-1.4173 0.6345-1.4173 1.4173zm7.2 0c0 0.7828 0.6346 1.4173 1.4173 1.4173 0.7828 0 1.4173-0.6346 1.4173-1.4173s-0.6346-1.4173-1.4173-1.4173c-0.7828 0-1.4173 0.6345-1.4173 1.4173zm7.2 0c0 0.7828 0.6346 1.4173 1.4173 1.4173s1.4173-0.6346 1.4173-1.4173c0-0.7828-0.6346-1.4173-1.4173-1.4173-0.7828 0-1.4173 0.6345-1.4173 1.4173zm7.2 0c0 0.7828 0.6346 1.4173 1.4173 1.4173s1.4173-0.6346 1.4173-1.4173c0-0.7828-0.6346-1.4173-1.4173-1.4173s-1.4173 0.6345-1.4173 1.4173zm7.2 0c0 0.7828 0.6346 1.4173 1.4173 1.4173s1.4173-0.6346 1.4173-1.4173c0-0.7828-0.6346-1.4173-1.4173-1.4173s-1.4173 0.6345-1.4173 1.4173zm7.2 0c0 0.7828 0.6346 1.4173 1.4173 1.4173s1.4173-0.6346 1.4173-1.4173c0-0.7828-0.6346-1.4173-1.4173-1.4173s-1.4173 0.6345-1.4173 1.4173zm7.2 0c0 0.7828 0.6346 1.4173 1.4173 1.4173s1.4173-0.6346 1.4173-1.4173c0-0.7828-0.6346-1.4173-1.4173-1.4173s-1.4173 0.6345-1.4173 1.4173zm-151.53 0c-0.0033 1.9569 1.5804 3.546 3.5373 3.5493s3.546-1.5804 3.5493-3.5373v-0.012c0.0033-1.9569-1.5804-3.546-3.5374-3.5493-1.9569-0.0033-3.546 1.5804-3.5493 3.5374 1e-4 4e-3 1e-4 0.0079 1e-4 0.0119zm212.4 0c-0.0034 1.9569 1.5802 3.5461 3.5371 3.5495s3.5461-1.5802 3.5495-3.5371v-0.0125c0.0034-1.9569-1.5802-3.5461-3.5371-3.5495s-3.5461 1.5802-3.5495 3.5371v0.0125zm-212.4-118.8c-0.0033 1.9569 1.5804 3.546 3.5373 3.5493s3.546-1.5804 3.5493-3.5373v-0.012c0.0033-1.9569-1.5804-3.546-3.5374-3.5493-1.9568-0.0032-3.5459 1.5805-3.5492 3.5374v0.0119zm212.4 0c-0.0034 1.9569 1.5802 3.5461 3.5371 3.5495s3.5461-1.5802 3.5495-3.5371v-0.0124c0.0034-1.9569-1.5802-3.5461-3.5371-3.5495s-3.5461 1.5802-3.5495 3.5371v0.0124z" fill="#014CB1"/>
                <g>
                    <title>layer 21</title>
                    <g>
                        <title>text:E-Ink Display</title>
                        <g transform="translate(78.286 74.994)">
                            <text fill="#FFFFFF" font-family="'OCRA'" font-size="4.4098">E-Ink Display</text>
                        </g>
                    </g>
                    <g>
                        <title>text:VIN</title>
                        <g transform="translate(68.39 122.67)">
                            <text fill="#FFFFFF" font-family="'OCRA'" font-size="2.6726">VIN</text>
                        </g>
                    </g>
                    <g>
                        <title>text:3V3</title>
                        <g transform="translate(75.154 132.23)">
                            <text fill="#FFFFFF" font-family="'OCRA'" font-size="2.6726">3V3</text>
                        </g>
                    </g>
                    <g>
                        <title>text:GND</title>
                        <g transform="translate(82.278 122.67)">
                            <text fill="#FFFFFF" font-family="'OCRA'" font-size="2.6726">GND</text>
                        </g>
                    </g>
                    <g>
                        <title>text:MOSI</title>
                        <g transform="translate(102.42 132.13)">
                            <text fill="#FFFFFF" font-family="'OCRA'" font-size="2.6726">MOSI</text>
                        </g>
                    </g>
                    <g>
                        <title>text:MISO</title>
                        <g transform="translate(96.411 122.41)">
                            <text fill="#FFFFFF" font-family="'OCRA'" font-size="2.6726">MISO</text>
                        </g>
                    </g>
                    <g>
                        <title>text:SCK</title>
                        <g transform="translate(89.554 132.31)">
                            <text fill="#FFFFFF" font-family="'OCRA'" font-size="2.6726">SCK</text>
                        </g>
                    </g>
                    <g>
                        <title>text:ECS</title>
                        <g transform="translate(111.51 122.41)">
                            <text fill="#FFFFFF" font-family="'OCRA'" font-size="2.6726">ECS</text>
                        </g>
                    </g>
                    <g>
                        <title>text:SRCS</title>
                        <g transform="translate(124.47 122.77)">
                            <text fill="#FFFFFF" font-family="'OCRA'" font-size="2.6726">SRCS</text>
                        </g>
                    </g>
                    <g>
                        <title>text:RST</title>
                        <g transform="translate(139.95 122.77)">
                            <text fill="#FFFFFF" font-family="'OCRA'" font-size="2.6726">RST</text>
                        </g>
                    </g>
                    <g>
                        <title>text:BUSY</title>
                        <g transform="translate(145.69 132.13)">
                            <text fill="#FFFFFF" font-family="'OCRA'" font-size="2.6726">BUSY</text>
                        </g>
                    </g>
                    <g>
                        <title>text:Adafruit Industries</title>
                        <g transform="translate(76.84 86.953)">
                            <text fill="#FFFFFF" font-family="'OCRA'" font-size="3.7417">Adafruit Industries</text>
                        </g>
                    </g>
                    <g>
                        <title>text:SDCS</title>
                        <g transform="translate(131.26 132.13)">
                            <text fill="#FFFFFF" font-family="'OCRA'" font-size="2.6726">SDCS</text>
                        </g>
                    </g>
                    <g>
                        <title>text:D/C</title>
                        <g transform="translate(118.35 131.87)">
                            <text fill="#FFFFFF" font-family="'OCRA'" font-size="2.6726">D/C</text>
                        </g>
                    </g>
                    <g>
                        <title>text:ENA</title>
                        <g transform="translate(154.35 122.77)">
                            <text fill="#FFFFFF" font-family="'OCRA'" font-size="2.6726">ENA</text>
                        </g>
                    </g>
                    <g>
                        <title>text:2.9" Diagonal E-Ink Display</title>
                        <g transform="translate(61.082 7.4452)">
                            <text fill="#FFFFFF" font-family="'OCRA'" font-size="4.4098">2.9" Diagonal E-Ink Display</text>
                        </g>
                    </g>
                    <g>
                        <title>text:Adafruit Industries</title>
                        <g transform="translate(82.76 13.508)">
                            <text fill="#FFFFFF" font-family="'OCRA'" font-size="3.7417">Adafruit Industries</text>
                        </g>
                    </g>
                    <g>
                        <title>element:C1</title>
                        <g>
                            <title>package:0805_10MGAP</title>
                        </g>
                    </g>
                    <g>
                        <title>element:C2</title>
                        <g>
                            <title>package:0805-NO</title>
                        </g>
                    </g>
                    <g>
                        <title>element:C3</title>
                        <g>
                            <title>package:0805-NO</title>
                        </g>
                    </g>
                    <g>
                        <title>element:C4</title>
                        <g>
                            <title>package:0805-NO</title>
                        </g>
                    </g>
                    <g>
                        <title>element:C5</title>
                        <g>
                            <title>package:0805-NO</title>
                        </g>
                    </g>
                    <g>
                        <title>element:C6</title>
                        <g>
                            <title>package:0805-NO</title>
                        </g>
                    </g>
                    <g>
                        <title>element:C7</title>
                        <g>
                            <title>package:0805-NO</title>
                        </g>
                    </g>
                    <g>
                        <title>element:C15</title>
                        <g>
                            <title>package:0805-NO</title>
                        </g>
                    </g>
                    <g>
                        <title>element:C16</title>
                        <g>
                            <title>package:0805-NO</title>
                        </g>
                    </g>
                    <g>
                        <title>element:C20</title>
                        <g>
                            <title>package:0805-NO</title>
                        </g>
                    </g>
                    <g>
                        <title>element:C21</title>
                        <g>
                            <title>package:0805-NO</title>
                        </g>
                    </g>
                    <g>
                        <title>element:C22</title>
                        <g>
                            <title>package:0805-NO</title>
                        </g>
                    </g>
                    <g>
                        <title>element:C23</title>
                        <g>
                            <title>package:0805-NO</title>
                        </g>
                    </g>
                    <g>
                        <title>element:C24</title>
                        <g>
                            <title>package:0805-NO</title>
                        </g>
                    </g>
                    <g>
                        <title>element:D1</title>
                        <g>
                            <title>package:SOD-123</title>
                        </g>
                    </g>
                    <g>
                        <title>element:D2</title>
                        <g>
                            <title>package:SOD-123</title>
                        </g>
                    </g>
                    <g>
                        <title>element:D3</title>
                        <g>
                            <title>package:SOD-123</title>
                        </g>
                    </g>
                    <g>
                        <title>element:EINK2</title>
                        <g>
                            <title>package:EINK_290IN</title>
                            <line x1="2.9232" x2="226.86" y1="14.802" y2="14.802" fill="none" stroke="#fff" stroke-linecap="round" stroke-width=".36"/>
                            <line x1="226.86" x2="226.86" y1="14.802" y2="118.83" fill="none" stroke="#fff" stroke-linecap="round" stroke-width=".36"/>
                            <line x1="226.86" x2="2.9232" y1="118.83" y2="118.83" fill="none" stroke="#fff" stroke-linecap="round" stroke-width=".36"/>
                            <line x1="2.9232" x2="2.9232" y1="118.83" y2="95.681" fill="none" stroke="#fff" stroke-linecap="round" stroke-width=".36"/>
                        </g>
                    </g>
                    <g>
                        <title>element:FID1</title>
                        <g>
                            <title>package:FIDUCIAL_1MM</title>
                        </g>
                    </g>
                    <g>
                        <title>element:FID2</title>
                        <g>
                            <title>package:FIDUCIAL_1MM</title>
                        </g>
                    </g>
                    <g>
                        <title>element:FID3</title>
                        <g>
                            <title>package:FIDUCIAL_1MM</title>
                        </g>
                    </g>
                    <g>
                        <title>element:IC1</title>
                        <g>
                            <title>package:SO20W</title>
                        </g>
                    </g>
                    <g>
                        <title>element:JP2</title>
                        <g>
                            <title>package:1X13_ROUND_70</title>
                        </g>
                    </g>
                    <g>
                        <title>element:L1</title>
                        <g>
                            <title>package:INDUCTOR_4X4MM_NR401</title>
                        </g>
                    </g>
                    <g>
                        <title>element:Q5</title>
                        <g>
                            <title>package:SOT23-3</title>
                        </g>
                    </g>
                    <g>
                        <title>element:R1</title>
                        <g>
                            <title>package:0805-NO</title>
                        </g>
                    </g>
                    <g>
                        <title>element:R2</title>
                        <g>
                            <title>package:0805-NO</title>
                        </g>
                    </g>
                    <g>
                        <title>element:R3</title>
                        <g>
                            <title>package:0805-NO</title>
                        </g>
                    </g>
                    <g>
                        <title>element:R4</title>
                        <g>
                            <title>package:0805_10MGAP</title>
                        </g>
                    </g>
                    <g>
                        <title>element:R5</title>
                        <g>
                            <title>package:0805-NO</title>
                        </g>
                    </g>
                    <g>
                        <title>element:R6</title>
                        <g>
                            <title>package:0805-NO</title>
                        </g>
                    </g>
                    <g>
                        <title>element:R7</title>
                        <g>
                            <title>package:0805_10MGAP</title>
                        </g>
                    </g>
                    <g>
                        <title>element:U$3</title>
                        <g>
                            <title>package:MOUNTINGHOLE_2.5_PLATED</title>
                        </g>
                    </g>
                    <g>
                        <title>element:U$4</title>
                        <g>
                            <title>package:MOUNTINGHOLE_2.5_PLATED</title>
                        </g>
                    </g>
                    <g>
                        <title>element:U$5</title>
                        <g>
                            <title>package:MOUNTINGHOLE_2.5_PLATED</title>
                        </g>
                    </g>
                    <g>
                        <title>element:U$6</title>
                        <g>
                            <title>package:MOUNTINGHOLE_2.5_PLATED</title>
                        </g>
                    </g>
                    <g>
                        <title>element:U$9</title>
                        <g>
                            <title>package:PCBFEAT-REV-040</title>
                        </g>
                    </g>
                    <g>
                        <title>element:U$39</title>
                        <g>
                            <title>package:ADAFRUIT_TEXT_30MM</title>
                        </g>
                    </g>
                    <g>
                        <title>element:U2</title>
                        <g>
                            <title>package:SOT23-5</title>
                        </g>
                    </g>
                    <g>
                        <title>element:U4</title>
                        <g>
                            <title>package:SOIC8_150MIL</title>
                        </g>
                    </g>
                    <g>
                        <title>element:X1</title>
                        <g>
                            <title>package:MICROSD</title>
                        </g>
                    </g>
                </g>
                <circle id="connector5pin" cx="71.684" cy="126.01" r="1.8967" fill="none" stroke="#9A916C" stroke-width=".9587"/>
                <circle id="connector6pin" cx="78.884" cy="126.01" r="1.8967" fill="none" stroke="#9A916C" stroke-width=".9587"/>
                <circle id="connector7pin" cx="86.084" cy="126.01" r="1.8967" fill="none" stroke="#9A916C" stroke-width=".9587"/>
                <circle id="connector8pin" cx="93.284" cy="126.01" r="1.8967" fill="none" stroke="#9A916C" stroke-width=".9587"/>
                <circle id="connector9pin" cx="100.48" cy="126.01" r="1.8967" fill="none" stroke="#9A916C" stroke-width=".9587"/>
                <circle id="connector10pin" cx="107.68" cy="126.01" r="1.8967" fill="none" stroke="#9A916C" stroke-width=".9587"/>
                <circle id="connector11pin" cx="114.88" cy="126.01" r="1.8967" fill="none" stroke="#9A916C" stroke-width=".9587"/>
                <circle id="connector12pin" cx="122.08" cy="126.01" r="1.8967" fill="none" stroke="#9A916C" stroke-width=".9587"/>
                <circle id="connector13pin" cx="129.28" cy="126.01" r="1.8967" fill="none" stroke="#9A916C" stroke-width=".9587"/>
                <circle id="connector14pin" cx="136.48" cy="126.01" r="1.8967" fill="none" stroke="#9A916C" stroke-width=".9587"/>
                <circle id="connector15pin" cx="143.68" cy="126.01" r="1.8967" fill="none" stroke="#9A916C" stroke-width=".9587"/>
                <circle id="connector16pin" cx="150.88" cy="126.01" r="1.8967" fill="none" stroke="#9A916C" stroke-width=".9587"/>
                <circle id="connector17pin" cx="158.08" cy="126.01" r="1.8967" fill="none" stroke="#9A916C" stroke-width=".9587"/>
                <circle id="connector18pin" cx="8.6844" cy="126.01" r="4.2633" fill="none" stroke="#9A916C" stroke-width="1.44"/>
                <circle id="connector19pin" cx="221.08" cy="126.01" r="4.2633" fill="none" stroke="#9A916C" stroke-width="1.44"/>
                <circle id="connector20pin" cx="8.6844" cy="7.209" r="4.2633" fill="none" stroke="#9A916C" stroke-width="1.44"/>
                <circle id="connector21pin" cx="221.08" cy="7.209" r="4.2633" fill="none" stroke="#9A916C" stroke-width="1.44"/>
            </g>
        </g>
        
            
                <rect x="2.9232" y="14.816" width="224.06" height="104.03" fill="#FAFAFA"/>
                <path d="m7.6532 34.831h7.9288c2.7397 0 4.9606 2.004 4.9606 4.4761v76.755l204.1 0.4256v-98.916l-216.99-0.4257v17.685z" fill="#DCDCDC"/>
                <path d="m221.96 112.76c-63.455 0.748-117.74 1.0386-118.05 1.0386l-79.964-0.213c-0.313 0-0.5669-0.2291-0.5669-0.5115v-76.839c0-2.1862-1.9712-3.9644-4.394-3.9644h-7.9287c-0.313 0-0.5669-0.2291-0.5669-0.512v-11.631c0-0.2829 0.2539-0.512 0.5669-0.512l92.854 0.213c0.3135 0 54.599 0.1676 118.05-0.0151v92.946z" fill="#F0E6F0"/>
                <rect x="23.944" y="20.223" width="198.02" height="92.946" fill="none" stroke="#000" stroke-miterlimit="10" stroke-width=".5669"/>
                <ellipse cx="17.5" cy="25.947" rx="2.4803" ry="2.2381" fill="#FAFAFA"/>
                <g transform="matrix(4.9746e-11 -1 1 4.9746e-11 -58.049 76.385)">
                    <rect x="-3.6211" y="65.8" width="25.578" height="2.8346" fill="#DCDCDC"/>
                </g>
                <g transform="matrix(-1.164e-10 1 -1 -1.164e-10 68.918 65.516)">
                    <rect x="-16.204" y="65.516" width="35.809" height="3.4016" fill="#E6AA50"/>
                </g>
            
            
                <g transform="matrix(1.0695 0 0 1 101.91 62.013)">
                    <g font-family="Noto Sans" font-size="5.8519">
                        <text>2.9" Tri-Color</text>
                        <text x="-14.0691" y="8.7783">eInk / ePaper Display </text>
                    </g>
                </g>
            
        
        <line x1="2.9232" x2="2.9232" y1="40.305" y2="14.83" fill="none" stroke="#fff" stroke-linecap="round" stroke-width=".36"/>
    
</svg>
