<?xml version="1.0" encoding="UTF-8"?>
<!-- Created with Fritzing (http://www.fritzing.org/) -->
<svg width="1.1011in" height=".8in" baseProfile="tiny" version="1.2" viewBox="0 0 79.279 57.6" xmlns="http://www.w3.org/2000/svg">
 <desc>
  <referenceFile>Adafruit AR1100 Breakout_breadboard.svg</referenceFile>
 </desc>
 <desc>Fritzing breadboard generated by brd2svg</desc>
 <g id="breadboard">
  <g id="icon">
   <path d="m7.2793 0h64.8a7.2 7.2 0 0 1 7.2 7.2v43.2a7.2 7.2 0 0 1-7.2 7.2h-64.8a7.2 7.2 0 0 1-7.2-7.2v-43.2a7.2 7.2 0 0 1 7.2-7.2m7.1774 22.564a1.4173 1.4173 0 1 0 2.8346 0 1.4173 1.4173 0 1 0-2.8346 0zm0 12.472a1.4173 1.4173 0 1 0 2.8346 0 1.4173 1.4173 0 1 0-2.8346 0zm34.583 18.964a1.44 1.44 0 1 0 2.88 0 1.44 1.44 0 1 0-2.88 0zm-7.2 0a1.44 1.44 0 1 0 2.88 0 1.44 1.44 0 1 0-2.88 0zm-7.2 0a1.44 1.44 0 1 0 2.88 0 1.44 1.44 0 1 0-2.88 0zm-7.2 0a1.44 1.44 0 1 0 2.88 0 1.44 1.44 0 1 0-2.88 0zm21.6-50.4a1.44 1.44 0 1 0 2.88 0 1.44 1.44 0 1 0-2.88 0zm-7.2 0a1.44 1.44 0 1 0 2.88 0 1.44 1.44 0 1 0-2.88 0zm-7.2 0a1.44 1.44 0 1 0 2.88 0 1.44 1.44 0 1 0-2.88 0zm-7.2 0a1.44 1.44 0 1 0 2.88 0 1.44 1.44 0 1 0-2.88 0zm-23.703 46.8a3.5433 3.5433 0 1 0 7.0866 0 3.5433 3.5433 0 1 0-7.0866 0zm0-43.2a3.5433 3.5433 0 1 0 7.0866 0 3.5433 3.5433 0 1 0-7.0866 0zm64.8 0a3.5433 3.5433 0 1 0 7.0866 0 3.5433 3.5433 0 1 0-7.0866 0zm0 43.2a3.5433 3.5433 0 1 0 7.0866 0 3.5433 3.5433 0 1 0-7.0866 0z" fill="#014cb1" stroke-width="0"/>
   <g>
    <title>layer 21</title>
    <g>
     <title>text:Y-</title>
     <g transform="translate(37.879 50.4)">
      <g transform="rotate(270)">
       <text fill="#ffffff" font-family="OCRA" font-size="3.3408" stroke-width="0">Y-</text>
      </g>
     </g>
    </g>
    <g>
     <title>text:X+</title>
     <g transform="translate(52.279 50.4)">
      <g transform="rotate(270)">
       <text fill="#ffffff" font-family="OCRA" font-size="3.3408" stroke-width="0">X+</text>
      </g>
     </g>
    </g>
    <g>
     <title>text:Y+</title>
     <g transform="translate(45.079 50.4)">
      <g transform="rotate(270)">
       <text fill="#ffffff" font-family="OCRA" font-size="3.3408" stroke-width="0">Y+</text>
      </g>
     </g>
    </g>
    <g>
     <title>text:X-</title>
     <g transform="translate(30.679 50.4)">
      <g transform="rotate(270)">
       <text fill="#ffffff" font-family="OCRA" font-size="3.3408" stroke-width="0">X-</text>
      </g>
     </g>
    </g>
    <g>
     <title>text:RX</title>
     <g transform="translate(31.14 6.12)">
      <g transform="rotate(270)">
       <text fill="#ffffff" font-family="OCRA" font-size="3.3408" stroke-width="0" text-anchor="end">RX</text>
      </g>
     </g>
    </g>
    <g>
     <title>text:TX</title>
     <g transform="translate(38.34 6.12)">
      <g transform="rotate(270)">
       <text fill="#ffffff" font-family="OCRA" font-size="3.3408" stroke-width="0" text-anchor="end">TX</text>
      </g>
     </g>
    </g>
    <g>
     <title>text:Gnd</title>
     <text x="40.0393" y="8.64" fill="#ffffff" font-family="OCRA" font-size="3.3408" stroke-width="0">Gnd</text>
    </g>
    <g>
     <title>text:V+</title>
     <g transform="translate(52.38 6.12)">
      <g transform="rotate(270)">
       <text fill="#ffffff" font-family="OCRA" font-size="3.3408" stroke-width="0" text-anchor="end">V+</text>
      </g>
     </g>
    </g>
    <g>
     <title>text:AR1100</title>
     <text x="63.7993" y="41.4" fill="#ffffff" font-family="OCRA" font-size="3.3408" stroke-width="0">AR1100</text>
    </g>
    <g>
     <title>text:Act</title>
     <text x="65.9593" y="16.2" fill="#ffffff" font-family="OCRA" font-size="3.3408" stroke-width="0">Act</text>
    </g>
    <g>
     <title>element:C1</title>
     <g>
      <title>package:0805-NO</title>
      <line x1="29.239" x2="32.119" y1="38.88" y2="38.88" stroke="#fff" stroke-linecap="round" stroke-width=".864"/>
     </g>
    </g>
    <g>
     <title>element:C2</title>
     <g>
      <title>package:0805-NO</title>
      <line x1="55.879" x2="55.879" y1="42.12" y2="45" stroke="#fff" stroke-linecap="round" stroke-width=".864"/>
     </g>
    </g>
    <g>
     <title>element:C3</title>
     <g>
      <title>package:0805-NO</title>
      <line x1="38.959" x2="38.959" y1="37.08" y2="34.2" stroke="#fff" stroke-linecap="round" stroke-width=".864"/>
     </g>
    </g>
    <g>
     <title>element:CN1</title>
     <g>
      <title>package:1X04-CLEANBIG</title>
     </g>
    </g>
    <g>
     <title>element:CN2</title>
     <g>
      <title>package:1X04-CLEANBIG</title>
     </g>
    </g>
    <g>
     <title>element:D2</title>
     <g>
      <title>package:SOD-323F</title>
      <line x1="37.99" x2="42.809" y1="39.917" y2="39.917" stroke="#fff" stroke-linecap="round" stroke-width=".36"/>
      <line x1="42.809" x2="42.809" y1="39.917" y2="43.603" stroke="#fff" stroke-linecap="round" stroke-width=".36"/>
      <line x1="42.809" x2="37.99" y1="43.603" y2="43.603" stroke="#fff" stroke-linecap="round" stroke-width=".36"/>
      <line x1="37.99" x2="37.99" y1="43.603" y2="39.917" stroke="#fff" stroke-linecap="round" stroke-width=".36"/>
      <line x1="41.533" x2="41.533" y1="40.059" y2="43.461" stroke="#fff" stroke-linecap="round" stroke-width=".36"/>
      <line x1="41.533" x2="41.25" y1="43.461" y2="43.461" stroke="#fff" stroke-linecap="round" stroke-width=".36"/>
      <line x1="41.25" x2="41.25" y1="43.461" y2="40.059" stroke="#fff" stroke-linecap="round" stroke-width=".36"/>
     </g>
    </g>
    <g>
     <title>element:D3</title>
     <g>
      <title>package:SOD-323F</title>
      <line x1="49.802" x2="49.802" y1="35.39" y2="40.21" stroke="#fff" stroke-linecap="round" stroke-width=".36"/>
      <line x1="49.802" x2="46.117" y1="40.21" y2="40.21" stroke="#fff" stroke-linecap="round" stroke-width=".36"/>
      <line x1="46.117" x2="46.117" y1="40.21" y2="35.39" stroke="#fff" stroke-linecap="round" stroke-width=".36"/>
      <line x1="46.117" x2="49.802" y1="35.39" y2="35.39" stroke="#fff" stroke-linecap="round" stroke-width=".36"/>
      <line x1="49.66" x2="46.259" y1="38.934" y2="38.934" stroke="#fff" stroke-linecap="round" stroke-width=".36"/>
      <line x1="46.259" x2="46.259" y1="38.934" y2="38.65" stroke="#fff" stroke-linecap="round" stroke-width=".36"/>
      <line x1="46.259" x2="49.66" y1="38.65" y2="38.65" stroke="#fff" stroke-linecap="round" stroke-width=".36"/>
     </g>
    </g>
    <g>
     <title>element:FID1</title>
     <g>
      <title>package:FIDUCIAL_1MM</title>
     </g>
    </g>
    <g>
     <title>element:FID2</title>
     <g>
      <title>package:FIDUCIAL_1MM</title>
     </g>
    </g>
    <g>
     <title>element:FID3</title>
     <g>
      <title>package:FIDUCIAL_1MM</title>
     </g>
    </g>
    <g>
     <title>element:IC1</title>
     <g>
      <title>package:TSSOP20-5.3MMBODY</title>
      <line x1="51.374" x2="51.374" y1="31.651" y2="13.709" stroke="#fff" stroke-linecap="round" stroke-width=".432"/>
      <line x1="34.464" x2="51.374" y1="13.709" y2="13.709" stroke="#fff" stroke-linecap="round" stroke-width=".432"/>
      <line x1="34.464" x2="34.464" y1="13.709" y2="31.651" stroke="#fff" stroke-linecap="round" stroke-width=".432"/>
      <line x1="51.374" x2="34.464" y1="31.651" y2="31.651" stroke="#fff" stroke-linecap="round" stroke-width=".432"/>
      <line x1="50.726" x2="50.726" y1="31.003" y2="14.357" stroke="#fff" stroke-linecap="round" stroke-width=".144"/>
      <line x1="35.112" x2="50.726" y1="14.357" y2="14.357" stroke="#fff" stroke-linecap="round" stroke-width=".144"/>
      <line x1="35.112" x2="35.112" y1="14.357" y2="31.003" stroke="#fff" stroke-linecap="round" stroke-width=".144"/>
      <line x1="50.726" x2="35.112" y1="31.003" y2="31.003" stroke="#fff" stroke-linecap="round" stroke-width=".144"/>
      <circle cx="46.375" cy="29.131" r="1.296" fill="none" stroke="#fff" stroke-width=".432"/>
     </g>
    </g>
    <g>
     <title>element:LED1</title>
     <g>
      <title>package:CHIPLED_0805_NOOUTLINE</title>
      <g>
       <title>polygon</title>
       <path d="m63.079 12.6 1.08 1.44h-2.16l1.08-1.44m-0.864 1.152h1.728-1.728m0.324-0.432h1.08-1.08" fill="none" stroke="#fff" stroke-linecap="round" stroke-width=".432"/>
      </g>
     </g>
    </g>
    <g>
     <title>element:R1</title>
     <g>
      <title>package:0805-NO</title>
      <line x1="56.959" x2="59.839" y1="13.32" y2="13.32" stroke="#fff" stroke-linecap="round" stroke-width=".864"/>
     </g>
    </g>
    <g>
     <title>element:R2</title>
     <g>
      <title>package:0805-NO</title>
      <line x1="19.879" x2="19.879" y1="11.16" y2="8.28" stroke="#fff" stroke-linecap="round" stroke-width=".864"/>
     </g>
    </g>
    <g>
     <title>element:U$2</title>
     <g>
      <title>package:MOUNTINGHOLE_2.5_PLATED</title>
      <circle cx="7.2793" cy="50.4" r="5.6693" fill="none" stroke="#fff" stroke-width=".576"/>
     </g>
    </g>
    <g>
     <title>element:U$4</title>
     <g>
      <title>package:MOUNTINGHOLE_2.5_PLATED</title>
      <circle cx="7.2793" cy="7.2" r="5.6693" fill="none" stroke="#fff" stroke-width=".576"/>
     </g>
    </g>
    <g>
     <title>element:U$5</title>
     <g>
      <title>package:MOUNTINGHOLE_2.5_PLATED</title>
      <circle cx="72.079" cy="7.2" r="5.6693" fill="none" stroke="#fff" stroke-width=".576"/>
     </g>
    </g>
    <g>
     <title>element:U$6</title>
     <g>
      <title>package:MOUNTINGHOLE_2.5_PLATED</title>
      <circle cx="72.079" cy="50.4" r="5.6693" fill="none" stroke="#fff" stroke-width=".576"/>
     </g>
    </g>
    <g>
     <title>element:U$7</title>
     <g>
      <title>package:FPC_CONN_1MM_DUAL_4P</title>
      <line x1="66.319" x2="66.319" y1="36.147" y2="18.573" stroke="#fff" stroke-linecap="round" stroke-width=".36"/>
      <line x1="66.319" x2="79.075" y1="18.573" y2="18.573" stroke="#fff" stroke-linecap="round" stroke-width=".36"/>
      <line x1="79.075" x2="79.075" y1="18.573" y2="36.147" stroke="#fff" stroke-linecap="round" stroke-width=".36"/>
      <line x1="79.075" x2="66.319" y1="36.147" y2="36.147" stroke="#fff" stroke-linecap="round" stroke-width=".36"/>
     </g>
    </g>
    <g>
     <title>element:U$14</title>
     <g>
      <title>package:ADAFRUIT_3.5MM</title>
     </g>
    </g>
    <g>
     <title>element:U$17</title>
     <g>
      <title>package:ADAFRUIT_TEXT_20MM</title>
     </g>
    </g>
    <g>
     <title>element:X1</title>
     <g>
      <title>package:USB-MINIB</title>
     </g>
    </g>
    <g>
     <title>element:Y1</title>
     <g>
      <title>package:RESONATOR-SMD</title>
      <line x1="62.602" x2="62.602" y1="35.237" y2="38.923" stroke="#fff" stroke-linecap="round" stroke-width=".576"/>
      <line x1="52.397" x2="52.397" y1="38.923" y2="35.237" stroke="#fff" stroke-linecap="round" stroke-width=".576"/>
     </g>
    </g>
   </g>
   <g transform="matrix(0 -1 1 0 -10.894 72.252)">
    <rect id="connector5pin" x="28.837" y="39.447" width="3.685" height="4.252" fill="#9A916C" stroke-width="0"/>
   </g>
   <g transform="matrix(0 -1 1 0 -5.5077 66.866)">
    <rect id="connector6pin" x="28.837" y="34.061" width="3.685" height="4.252" fill="#9A916C" stroke-width="0"/>
   </g>
   <rect id="connector7pin" x="51.344" y="41.434" width="3.685" height="4.252" fill="#9A916C" stroke-width="0"/>
   <rect id="connector8pin" x="56.73" y="41.434" width="3.685" height="4.252" fill="#9A916C" stroke-width="0"/>
   <g transform="matrix(-1 0 0 -1 83.305 71.28)">
    <rect id="connector9pin" x="39.81" y="33.514" width="3.685" height="4.252" fill="#9A916C" stroke-width="0"/>
   </g>
   <g transform="matrix(-1 0 0 -1 72.533 71.28)">
    <rect id="connector10pin" x="34.424" y="33.514" width="3.685" height="4.252" fill="#9A916C" stroke-width="0"/>
   </g>
   <circle id="connector11pin" cx="50.479" cy="54" r="1.98" fill="none" stroke="#9A916C" stroke-width="1.08" connectorname="X+"/>
   <circle id="connector12pin" cx="43.279" cy="54" r="1.98" fill="none" stroke="#9A916C" stroke-width="1.08" connectorname="Y+"/>
   <circle id="connector13pin" cx="36.079" cy="54" r="1.98" fill="none" stroke="#9A916C" stroke-width="1.08" connectorname="Y-"/>
   <circle id="connector14pin" cx="28.879" cy="54" r="1.98" fill="none" stroke="#9A916C" stroke-width="1.08" connectorname="X-"/>
   <circle id="connector15pin" cx="50.479" cy="3.6" r="1.98" fill="none" stroke="#9A916C" stroke-width="1.08" connectorname="V+"/>
   <circle id="connector16pin" cx="43.279" cy="3.6" r="1.98" fill="none" stroke="#9A916C" stroke-width="1.08" connectorname="GND"/>
   <circle id="connector17pin" cx="36.079" cy="3.6" r="1.98" fill="none" stroke="#9A916C" stroke-width="1.08" connectorname="TX"/>
   <circle id="connector18pin" cx="28.879" cy="3.6" r="1.98" fill="none" stroke="#9A916C" stroke-width="1.08" connectorname="RX"/>
   <rect id="connector19pin" x="36.147" y="40.626" width="2.8346" height="2.2677" fill="#9A916C" stroke-width="0"/>
   <rect id="connector20pin" x="41.817" y="40.626" width="2.8346" height="2.2677" fill="#9A916C" stroke-width="0"/>
   <g transform="matrix(0 1 -1 0 82.925 -12.994)">
    <rect id="connector21pin" x="46.542" y="33.832" width="2.8346" height="2.2677" fill="#9A916C" stroke-width="0"/>
   </g>
   <g transform="matrix(0 1 -1 0 88.594 -7.3247)">
    <rect id="connector22pin" x="46.542" y="39.501" width="2.8346" height="2.2677" fill="#9A916C" stroke-width="0"/>
   </g>
   <rect id="connector23pin" x="61.662" y="2.5427" width="2.8346" height="2.8346" rx="1.4173" ry="1.4173" fill="#9A916C" stroke-width="0"/>
   <rect id="connector24pin" x="14.862" y="52.223" width="2.8346" height="2.8346" rx="1.4173" ry="1.4173" fill="#9A916C" stroke-width="0"/>
   <rect id="connector25pin" x="15.222" y="2.5427" width="2.8346" height="2.8346" rx="1.4173" ry="1.4173" fill="#9A916C" stroke-width="0"/>
   <g transform="matrix(0 -1 1 0 22.203 84.146)">
    <rect id="connector26pin" x="52.742" y="29.171" width=".864" height="3.6" fill="#9A916C" stroke-width="0"/>
   </g>
   <g transform="matrix(0 -1 1 0 24.046 82.303)">
    <rect id="connector27pin" x="52.742" y="27.329" width=".864" height="3.6" fill="#9A916C" stroke-width="0"/>
   </g>
   <g transform="matrix(0 -1 1 0 25.888 80.461)">
    <rect id="connector28pin" x="52.742" y="25.486" width=".864" height="3.6" fill="#9A916C" stroke-width="0"/>
   </g>
   <g transform="matrix(0 -1 1 0 27.731 78.618)">
    <rect id="connector29pin" x="52.742" y="23.644" width=".864" height="3.6" fill="#9A916C" stroke-width="0"/>
   </g>
   <g transform="matrix(0 -1 1 0 29.573 76.776)">
    <rect id="connector30pin" x="52.742" y="21.801" width=".864" height="3.6" fill="#9A916C" stroke-width="0"/>
   </g>
   <g transform="matrix(0 -1 1 0 31.416 74.933)">
    <rect id="connector31pin" x="52.742" y="19.959" width=".864" height="3.6" fill="#9A916C" stroke-width="0"/>
   </g>
   <g transform="matrix(0 -1 1 0 33.258 73.091)">
    <rect id="connector32pin" x="52.742" y="18.116" width=".864" height="3.6" fill="#9A916C" stroke-width="0"/>
   </g>
   <g transform="matrix(0 -1 1 0 35.101 71.248)">
    <rect id="connector33pin" x="52.742" y="16.274" width=".864" height="3.6" fill="#9A916C" stroke-width="0"/>
   </g>
   <g transform="matrix(0 -1 1 0 36.943 69.406)">
    <rect id="connector34pin" x="52.742" y="14.431" width=".864" height="3.6" fill="#9A916C" stroke-width="0"/>
   </g>
   <g transform="matrix(0 -1 1 0 38.786 67.563)">
    <rect id="connector35pin" x="52.742" y="12.589" width=".864" height="3.6" fill="#9A916C" stroke-width="0"/>
   </g>
   <g transform="matrix(0 -1 1 0 18.276 47.053)">
    <rect id="connector36pin" x="32.232" y="12.589" width=".864" height="3.6" fill="#9A916C" stroke-width="0"/>
   </g>
   <g transform="matrix(0 -1 1 0 16.433 48.895)">
    <rect id="connector37pin" x="32.232" y="14.431" width=".864" height="3.6" fill="#9A916C" stroke-width="0"/>
   </g>
   <g transform="matrix(0 -1 1 0 14.59 50.738)">
    <rect id="connector38pin" x="32.232" y="16.274" width=".864" height="3.6" fill="#9A916C" stroke-width="0"/>
   </g>
   <g transform="matrix(0 -1 1 0 12.748 52.58)">
    <rect id="connector39pin" x="32.232" y="18.116" width=".864" height="3.6" fill="#9A916C" stroke-width="0"/>
   </g>
   <g transform="matrix(0 -1 1 0 10.906 54.423)">
    <rect id="connector40pin" x="32.232" y="19.959" width=".864" height="3.6" fill="#9A916C" stroke-width="0"/>
   </g>
   <g transform="matrix(0 -1 1 0 9.0629 56.266)">
    <rect id="connector41pin" x="32.232" y="21.801" width=".864" height="3.6" fill="#9A916C" stroke-width="0"/>
   </g>
   <g transform="matrix(0 -1 1 0 7.2204 58.108)">
    <rect id="connector42pin" x="32.232" y="23.644" width=".864" height="3.6" fill="#9A916C" stroke-width="0"/>
   </g>
   <g transform="matrix(0 -1 1 0 5.3779 59.95)">
    <rect id="connector43pin" x="32.232" y="25.486" width=".864" height="3.6" fill="#9A916C" stroke-width="0"/>
   </g>
   <g transform="matrix(0 -1 1 0 3.5354 61.793)">
    <rect id="connector44pin" x="32.232" y="27.329" width=".864" height="3.6" fill="#9A916C" stroke-width="0"/>
   </g>
   <g transform="matrix(0 -1 1 0 1.6928 63.636)">
    <rect id="connector45pin" x="32.232" y="29.171" width=".864" height="3.6" fill="#9A916C" stroke-width="0"/>
   </g>
   <rect id="connector46pin" x="61.379" y="14.596" width="3.4016" height="3.4016" fill="#9A916C" stroke-width="0"/>
   <rect id="connector47pin" x="61.379" y="8.6428" width="3.4016" height="3.4016" fill="#9A916C" stroke-width="0"/>
   <g transform="matrix(0 -1 1 0 42.386 74.412)">
    <rect id="connector48pin" x="56.557" y="13.887" width="3.685" height="4.252" fill="#9A916C" stroke-width="0"/>
   </g>
   <g transform="matrix(0 -1 1 0 47.772 69.026)">
    <rect id="connector49pin" x="56.557" y="8.5011" width="3.685" height="4.252" fill="#9A916C" stroke-width="0"/>
   </g>
   <g transform="matrix(-1 0 0 -1 45.145 19.44)">
    <rect id="connector50pin" x="20.73" y="7.594" width="3.685" height="4.252" fill="#9A916C" stroke-width="0"/>
   </g>
   <g transform="matrix(-1 0 0 -1 34.373 19.44)">
    <rect id="connector51pin" x="15.344" y="7.594" width="3.685" height="4.252" fill="#9A916C" stroke-width="0"/>
   </g>
   <circle id="connector52pin" cx="7.2793" cy="50.4" r="4.2633" fill="none" stroke="#9A916C" stroke-width="1.44" connectorname="P$1"/>
   <circle id="connector53pin" cx="7.2793" cy="7.2" r="4.2633" fill="none" stroke="#9A916C" stroke-width="1.44" connectorname="P$1"/>
   <circle id="connector54pin" cx="72.079" cy="7.2" r="4.2633" fill="none" stroke="#9A916C" stroke-width="1.44" connectorname="P$1"/>
   <circle id="connector55pin" cx="72.079" cy="50.4" r="4.2633" fill="none" stroke="#9A916C" stroke-width="1.44" connectorname="P$1"/>
   <g transform="matrix(-1 0 0 -1 125.27 63.224)">
    <rect id="connector56pin" x="59.374" y="30.762" width="6.5197" height="1.7008" fill="#9A916C" stroke-width="0"/>
   </g>
   <g transform="matrix(-1 0 0 -1 125.27 57.555)">
    <rect id="connector57pin" x="59.374" y="27.927" width="6.5197" height="1.7008" fill="#9A916C" stroke-width="0"/>
   </g>
   <g transform="matrix(-1 0 0 -1 125.27 51.885)">
    <rect id="connector58pin" x="59.374" y="25.092" width="6.5197" height="1.7008" fill="#9A916C" stroke-width="0"/>
   </g>
   <g transform="matrix(-1 0 0 -1 125.27 46.216)">
    <rect id="connector59pin" x="59.374" y="22.258" width="6.5197" height="1.7008" fill="#9A916C" stroke-width="0"/>
   </g>
   <g transform="matrix(0 -1 1 0 -4.2406 53.359)">
    <rect id="connector60pin" x="23.851" y="25.529" width="1.4173" height="6.5424" fill="#9A916C" stroke-width="0"/>
   </g>
   <g transform="matrix(0 -1 1 0 -1.9729 51.092)">
    <rect id="connector61pin" x="23.851" y="23.261" width="1.4173" height="6.5424" fill="#9A916C" stroke-width="0"/>
   </g>
   <g transform="matrix(0 -1 1 0 -8.7761 57.895)">
    <rect id="connector62pin" x="23.851" y="30.064" width="1.4173" height="6.5424" fill="#9A916C" stroke-width="0"/>
   </g>
   <g transform="matrix(0 1 -1 0 23.698 8.9574)">
    <rect id="connector63pin" x="4.5354" y="12.926" width="5.6693" height="6.8032" fill="#9A916C" stroke-width="0"/>
   </g>
   <g transform="matrix(0 1 -1 0 39.288 -6.6331)">
    <rect id="connector64pin" x="20.126" y="12.926" width="5.6693" height="6.8032" fill="#9A916C" stroke-width="0"/>
   </g>
   <g transform="matrix(0 1 -1 0 64.233 18.312)">
    <rect id="connector65pin" x="20.126" y="37.871" width="5.6693" height="6.8032" fill="#9A916C" stroke-width="0"/>
   </g>
   <g transform="matrix(0 1 -1 0 48.643 33.902)">
    <rect id="connector66pin" x="4.5354" y="37.871" width="5.6693" height="6.8032" fill="#9A916C" stroke-width="0"/>
   </g>
   <g transform="matrix(0 -1 1 0 -6.5084 55.627)">
    <rect id="connector67pin" x="23.851" y="27.796" width="1.4173" height="6.5424" fill="#9A916C" stroke-width="0"/>
   </g>
   <g transform="matrix(0 -1 1 0 .2948 48.824)">
    <rect id="connector68pin" x="23.851" y="20.993" width="1.4173" height="6.5424" fill="#9A916C" stroke-width="0"/>
   </g>
   <rect id="connector69pin" x="53.106" y="34.67" width="1.9843" height="4.8189" fill="#9A916C" stroke-width="0"/>
   <rect id="connector70pin" x="56.507" y="34.67" width="1.9843" height="4.8189" fill="#9A916C" stroke-width="0"/>
   <rect id="connector71pin" x="59.909" y="34.67" width="1.9843" height="4.8189" fill="#9A916C" stroke-width="0"/>
  </g>
  <g transform="translate(27.845 37.108)">
   <g id="0805-cap">
    <g transform="matrix(0 -1 1 0 1.063 4.606)">
     <path d="m5.386 3.543h-5.103c-0.156 0-0.283-0.127-0.283-0.283v-2.977c0-0.156 0.127-0.283 0.283-0.283h5.102c0.157 0 0.283 0.127 0.283 0.283v2.977c1e-3 0.156-0.126 0.283-0.282 0.283z" fill="#DCDCDC"/>
     <rect x="1.063" width="3.543" height="3.543" fill="#6E554B"/>
    </g>
   </g>
  </g>
  <g transform="translate(53.045 41.788)">
   <g id="0805-cap">
    <path d="m5.386 3.543h-5.103c-0.156 0-0.283-0.127-0.283-0.283v-2.977c0-0.156 0.127-0.283 0.283-0.283h5.102c0.157 0 0.283 0.127 0.283 0.283v2.977c1e-3 0.156-0.126 0.283-0.282 0.283z" fill="#DCDCDC"/>
    <rect x="1.063" width="3.543" height="3.543" fill="#6E554B"/>
   </g>
  </g>
  <g transform="translate(36.125 33.868)">
   <g transform="matrix(-1 0 0 -1 5.669 3.543)">
    <path d="m5.386 3.543h-5.103c-0.156 0-0.283-0.127-0.283-0.283v-2.977c0-0.156 0.127-0.283 0.283-0.283h5.102c0.157 0 0.283 0.127 0.283 0.283v2.977c1e-3 0.156-0.126 0.283-0.282 0.283z" fill="#DCDCDC"/>
    <rect x="1.063" width="3.543" height="3.543" fill="#6E554B"/>
   </g>
  </g>
  <g transform="translate(36.856 39.988)">
   <g id="sod-323f">
    <metadata id="metadata11">
     <rdf:RDF xmlns:rdf="http://www.w3.org/1999/02/22-rdf-syntax-ns#">
      <cc:Work rdf:about="" xmlns:cc="http://creativecommons.org/ns#" xmlns:rdf="http://www.w3.org/1999/02/22-rdf-syntax-ns#">
       <dc:format xmlns:dc="http://purl.org/dc/elements/1.1/">image/svg+xml</dc:format>
       <dc:type rdf:resource="http://purl.org/dc/dcmitype/StillImage" xmlns:dc="http://purl.org/dc/elements/1.1/" xmlns:rdf="http://www.w3.org/1999/02/22-rdf-syntax-ns#"/>
      </cc:Work>
     </rdf:RDF>
    </metadata>
    <rect id="rect3" y="1.346" width="7.087" height=".85" fill="#DCDCDC"/>
    <rect id="rect5" x="1.134" width="4.819" height="3.543" fill="#303030"/>
    <rect id="rect3339" x="1.5587" y=".011677" width=".6332" height="3.5557" fill="#666"/>
   </g>
  </g>
  <g transform="translate(44.416 36.028)">
   <g transform="matrix(0 1 -1 0 5.315 -1.772)">
    <metadata>
     <rdf:RDF xmlns:rdf="http://www.w3.org/1999/02/22-rdf-syntax-ns#">
      <cc:Work rdf:about="" xmlns:cc="http://creativecommons.org/ns#" xmlns:rdf="http://www.w3.org/1999/02/22-rdf-syntax-ns#">
       <dc:format xmlns:dc="http://purl.org/dc/elements/1.1/">image/svg+xml</dc:format>
       <dc:type rdf:resource="http://purl.org/dc/dcmitype/StillImage" xmlns:dc="http://purl.org/dc/elements/1.1/" xmlns:rdf="http://www.w3.org/1999/02/22-rdf-syntax-ns#"/>
      </cc:Work>
     </rdf:RDF>
    </metadata>
    <rect y="1.346" width="7.087" height=".85" fill="#DCDCDC"/>
    <rect x="1.134" width="4.819" height="3.543" fill="#303030"/>
    <rect x="1.5587" y=".011677" width=".6332" height="3.5557" fill="#666"/>
   </g>
  </g>
  <g transform="translate(32.715 12.192)">
   <g transform="matrix(0 -1 1 0 -.28346 20.693)">
    <metadata>
     <rdf:RDF xmlns:rdf="http://www.w3.org/1999/02/22-rdf-syntax-ns#">
      <cc:Work rdf:about="" xmlns:cc="http://creativecommons.org/ns#" xmlns:rdf="http://www.w3.org/1999/02/22-rdf-syntax-ns#">
       <dc:format xmlns:dc="http://purl.org/dc/elements/1.1/">image/svg+xml</dc:format>
       <dc:type rdf:resource="http://purl.org/dc/dcmitype/StillImage" xmlns:dc="http://purl.org/dc/elements/1.1/" xmlns:rdf="http://www.w3.org/1999/02/22-rdf-syntax-ns#"/>
       <dc:title xmlns:dc="http://purl.org/dc/elements/1.1/"/>
      </cc:Work>
     </rdf:RDF>
    </metadata>
    <rect x="16.214" y="4.0513e-7" width=".94531" height="20.801" fill="#ccc"/>
    <rect x="18.057" y="4.0513e-7" width=".94531" height="20.801" fill="#ccc"/>
    <rect x="1.4173" y="4.0513e-7" width=".94531" height="20.801" fill="#ccc"/>
    <rect x="3.2687" y="4.0513e-7" width=".94531" height="20.801" fill="#ccc"/>
    <rect x="5.1201" y="4.0513e-7" width=".94428" height="20.801" fill="#ccc"/>
    <rect x="6.9695" y="4.0513e-7" width=".94428" height="20.801" fill="#ccc"/>
    <rect x="8.8199" y="4.0513e-7" width=".94531" height="20.801" fill="#ccc"/>
    <rect x="10.67" y="4.0513e-7" width=".94531" height="20.801" fill="#ccc"/>
    <rect x="12.521" y="4.0513e-7" width=".94531" height="20.801" fill="#ccc"/>
    <rect x="14.372" y="4.0513e-7" width=".94531" height="20.801" fill="#ccc"/>
    <g transform="translate(-14.472 -10.73)">
     <g display="none">
      <g display="inline">
       <g transform="translate(1.3782 8.3218)">
        <text fill="#ffffff" font-family="DroidSans" font-size="0">16</text>
       </g>
       <g transform="translate(7.1641 8.3218)">
        <text fill="#ffffff" font-family="DroidSans" font-size="0">15</text>
       </g>
       <g transform="translate(12.95 8.3218)">
        <text fill="#ffffff" font-family="DroidSans" font-size="0">14</text>
       </g>
       <g transform="translate(18.734 8.3226)">
        <text fill="#ffffff" font-family="DroidSans" font-size="0">13</text>
       </g>
       <g transform="translate(25.322 8.3226)">
        <text fill="#ffffff" font-family="DroidSans" font-size="0">12</text>
       </g>
       <g transform="translate(30.306 8.3218)">
        <text fill="#ffffff" font-family="DroidSans" font-size="0">11</text>
       </g>
       <g transform="translate(36.092 8.3218)">
        <text fill="#ffffff" font-family="DroidSans" font-size="0">10</text>
       </g>
       <g transform="translate(42.678 8.3218)">
        <text fill="#ffffff" font-family="DroidSans" font-size="0">9</text>
       </g>
       <g transform="translate(42.678 40.222)">
        <text fill="#ffffff" font-family="DroidSans" font-size="0">8</text>
       </g>
       <g transform="translate(36.892 40.222)">
        <text fill="#ffffff" font-family="DroidSans" font-size="0">7</text>
       </g>
       <g transform="translate(31.106 40.222)">
        <text fill="#ffffff" font-family="DroidSans" font-size="0">6</text>
       </g>
       <g transform="translate(25.322 40.222)">
        <text fill="#ffffff" font-family="DroidSans" font-size="0">5</text>
       </g>
       <g transform="translate(19.534 40.222)">
        <text fill="#ffffff" font-family="DroidSans" font-size="0">4</text>
       </g>
       <g transform="translate(13.75 40.222)">
        <text fill="#ffffff" font-family="DroidSans" font-size="0">3</text>
       </g>
       <g transform="translate(7.9641 40.222)">
        <text fill="#ffffff" font-family="DroidSans" font-size="0">2</text>
       </g>
       <g transform="translate(2.1782 40.222)">
        <text fill="#ffffff" font-family="DroidSans" font-size="0">1</text>
       </g>
      </g>
     </g>
    </g>
    <g transform="translate(0 -1.3581)">
     <path d="m8.4e-7 7.3598v-2.8855h20.358l-0.88513 2.8855z" fill="#3d3d3d" connector-curvature="0" nodetypes="ccccc"/>
     <path d="m1.1695e-6 16.528h19.49l0.88397 2.9722h-20.374z" connector-curvature="0" nodetypes="ccccc"/>
     <path d="m19.802 5.9696h-1.0906v12.212l1.0906 0.008232 0.5854 1.3104v-15.023z" fill="#141414" connector-curvature="0" nodetypes="ccccccc"/>
     <path d="m0.60269 16.528v1.6574l-0.60269 1.3147v-15.094l0.60269 1.4974v1.388h3.4108v9.2368z" fill="#1f1f1f" connector-curvature="0" nodetypes="ccccccccc"/>
     <path d="m0.60269 5.9367v12.256h19.195v-12.256h-19.195z" fill="#303030" connector-curvature="0"/>
     <circle cx="2.7616" cy="16.164" r="1.2528" fill="#212121"/>
    </g>
   </g>
  </g>
  <g transform="translate(61.308 10.486)">
   <path d="m3.543 0.282v5.103c0 0.156-0.127 0.283-0.283 0.283h-2.977c-0.156 0-0.283-0.127-0.283-0.283v-5.102c0-0.157 0.127-0.283 0.283-0.283h2.977c0.156-1e-3 0.283 0.126 0.283 0.282z" fill="#DCDCDC"/>
   <rect y="1.062" width="3.543" height="3.543" fill="#f00"/>
   <circle cx="1.772" cy="2.833" r=".567" fill="#A00000"/>
  </g>
  <g transform="translate(55.565 11.548)">
   <g id="0805-res">
    <g transform="matrix(0 -1 1 0 1.063 4.606)">
     <path d="m5.386 3.543h-5.103c-0.156 0-0.283-0.127-0.283-0.283v-2.977c0-0.156 0.127-0.283 0.283-0.283h5.102c0.157 0 0.283 0.127 0.283 0.283v2.977c1e-3 0.156-0.126 0.283-0.282 0.283z" fill="#DCDCDC"/>
     <rect x="1.063" width="3.543" height="3.543" fill="#333"/>
    </g>
   </g>
  </g>
  <g transform="translate(17.045 7.9485)">
   <g transform="matrix(-1 0 0 -1 5.669 3.543)">
    <path d="m5.386 3.543h-5.103c-0.156 0-0.283-0.127-0.283-0.283v-2.977c0-0.156 0.127-0.283 0.283-0.283h5.102c0.157 0 0.283 0.127 0.283 0.283v2.977c1e-3 0.156-0.126 0.283-0.282 0.283z" fill="#DCDCDC"/>
    <rect x="1.063" width="3.543" height="3.543" fill="#333"/>
   </g>
  </g>
  <g transform="translate(60.667 18.36)">
   <g transform="matrix(0 -1 1 0 -.49608 17.504)">
    <metadata>
     <rdf:RDF xmlns:rdf="http://www.w3.org/1999/02/22-rdf-syntax-ns#">
      <cc:Work rdf:about="" xmlns:cc="http://creativecommons.org/ns#" xmlns:rdf="http://www.w3.org/1999/02/22-rdf-syntax-ns#">
       <dc:format xmlns:dc="http://purl.org/dc/elements/1.1/">image/svg+xml</dc:format>
       <dc:type rdf:resource="http://purl.org/dc/dcmitype/StillImage" xmlns:dc="http://purl.org/dc/elements/1.1/" xmlns:rdf="http://www.w3.org/1999/02/22-rdf-syntax-ns#"/>
       <dc:title xmlns:dc="http://purl.org/dc/elements/1.1/"/>
      </cc:Work>
     </rdf:RDF>
    </metadata>
    <g transform="matrix(1 0 0 1.0397 1.0631 -.22802)">
     <g fill="#ccc" stroke-width="0">
      <rect x="2.4802" y=".33406" width="1.4173" height="5.4089"/>
      <rect x="5.315" y=".33406" width="1.4173" height="5.4089"/>
      <rect x="8.1496" y=".33406" width="1.4173" height="5.4089"/>
      <rect x="10.984" y=".33406" width="1.4173" height="5.4089"/>
     </g>
    </g>
    <rect y="5.6693" width="17.008" height="12.331" fill="#333"/>
   </g>
  </g>
  <g transform="translate(54.949 45.512)">
   <g transform="matrix(0 -1 1 0 .001476 9.7785)">
    <path d="m9.773 4.306c-0.032-0.2-0.141-0.257-0.403-0.341-0.19899-0.064-1.533-0.489-1.533-0.489s-0.93-0.351-1.619 0.146c-0.09298 0.066-0.18898 0.143-0.28598 0.224 0.082-0.097 0.158-0.193 0.224-0.286 0.495-0.69 0.143-1.619 0.143-1.619s-0.427-1.334-0.492-1.533c-0.085-0.262-0.142-0.37-0.342-0.402s-0.288 0.054-0.449 0.277c-0.122 0.17-0.939 1.307-0.939 1.307s-0.621 0.777-0.361 1.586c0.034 0.109 0.077 0.224 0.125 0.341-0.067-0.108-0.135-0.209-0.203-0.302-0.503-0.684-1.496-0.636-1.496-0.636s-1.4-6e-3 -1.61-6e-3c-0.275-1e-3 -0.396 0.02-0.488 0.201-0.091 0.181-0.037 0.291 0.126 0.513 0.124 0.169 0.953 1.297 0.953 1.297s0.546 0.83 1.395 0.834c0.114 0 0.236-5e-3 0.362-0.014-0.122 0.03-0.24 0.064-0.348 0.1-0.806 0.267-1.067 1.226-1.067 1.226s-0.438 1.33-0.503 1.529c-0.085997 0.261-0.103 0.38304 0.040001 0.52603 0.144 0.143 0.265 0.126 0.526 0.04 0.199-0.06499 1.528-0.50599 1.528-0.50599s0.958-0.263 1.224-1.07c0.036-0.108 0.069-0.225 0.1-0.348-9e-3 0.12598-0.014 0.24798-0.013 0.36198 5e-3 0.849 0.836 1.394 0.836 1.394s1.13 0.827 1.298 0.951c0.223 0.16197 0.333 0.21597 0.514 0.12402 0.181-0.092 0.201-0.213 0.2-0.488-1e-3 -0.21-9e-3 -1.61-9e-3 -1.61s0.047-0.993-0.639-1.495c-0.092-0.06702-0.194-0.13502-0.301-0.20202 0.117 0.047 0.232 0.09 0.34 0.124 0.81 0.258 1.584-0.364 1.584-0.364s1.136-0.819 1.306-0.941c0.22299-0.161 0.30903-0.249 0.27699-0.45zm-4.822-1.031c0.152 0.024 0.228 0.349 0.169 0.726s-0.231 0.662-0.384 0.638-0.229-0.349-0.169-0.725c0.059-0.377 0.231-0.663 0.384-0.639zm-1.956 0.999c0.07-0.138 0.402-0.11 0.742 0.063 0.34 0.173 0.558 0.425 0.488 0.563s-0.402 0.11-0.742-0.063-0.558-0.425-0.488-0.563zm1.031 1.878c-0.269 0.27-0.577 0.4-0.686 0.291s0.02-0.416 0.29-0.686c0.269-0.27 0.576-0.4 0.686-0.291 0.109 0.109-0.021 0.416-0.29 0.686zm1.484 0.633c-0.138 0.07-0.39-0.148-0.563-0.487-0.174-0.34-0.203-0.673-0.065-0.743s0.39 0.148 0.563 0.487c0.173 0.34 0.202 0.672 0.065 0.743zm0.357-1.573c-0.377 0.06-0.701-0.015-0.726-0.168-0.024-0.153 0.262-0.325 0.638-0.385 0.377-0.06 0.701 0.015 0.726 0.168 0.024002 0.153-0.261 0.325-0.638 0.385z" fill="#DCDCDC"/>
   </g>
  </g>
  <g transform="translate(-.29673 15.386)">
   <g transform="matrix(0 1 -1 0 27.626 -.79801)">
    <rect x="23.433" y="1.044" width="4.991" height="6.64" fill="#ccc"/>
    <rect y="16.621" width="28.424" height="6.64" fill="#ccc"/>
    <rect y="1.021" width="4.991" height="6.64" fill="#ccc"/>
    <rect x="9.288" y=".001" width="1.163" height="2.769" fill="#B3B3B3"/>
    <g transform="matrix(1.8137 0 0 1.8137 27.004 167.85)">
     <rect x="-8.574" y="-92.542" width=".642" height="1.527" fill="#B3B3B3"/>
     <rect x="-7.382" y="-92.542" width=".642" height="1.527" fill="#B3B3B3"/>
     <rect x="-6.188" y="-92.542" width=".642" height="1.527" fill="#B3B3B3"/>
     <rect x="-4.995" y="-92.542" width=".641" height="1.527" fill="#B3B3B3"/>
    </g>
    <g transform="matrix(1.8737 0 0 1.8737 27.311 173.3)">
     <rect x="-11.589" y="-91.166" width="9.184" height="12.193" fill="#333"/>
     <path d="m-1.441-78.17v-12.997h-3.146v0.326h-4.822v-0.326h-3.145v12.997h11.113zm-1.859-6.3705c0-0.071 0.056-0.128 0.128-0.128h0.373c0.071 0 0.128 0.057 0.128 0.128v3.405c0 0.071-0.057 0.128-0.128 0.128h-0.373c-0.072 0-0.128-0.057-0.128-0.128v-3.405zm-2.122 5.0623h-0.09c-0.072 0-0.131-0.057-0.137-0.128l-0.288-5.077c-4e-3 -0.071-0.065-0.128-0.136-0.128h-1.879c-0.071 0-0.132 0.057-0.136 0.128l-0.289 5.077c-5e-3 0.071-0.065 0.128-0.137 0.128h-0.089c-0.071 0-0.125-0.057-0.121-0.128l0.368-6.421c4e-3 -0.071 0.065-0.128 0.136-0.128h2.415c0.071 0 0.132 0.057 0.137 0.128l0.367 6.421c0.0039999 0.0711-0.051 0.128-0.121 0.128zm1.927-0.5328-0.441 0.442c-0.051 0.05-0.148 0.091-0.22 0.091h-0.308c-0.07 0-0.128-0.057-0.128-0.128v-4.935c0-0.071 0.058-0.128 0.128-0.128h0.308c0.072 0 0.128 0.057 0.128 0.128v3.687c0 0.071 0.041 0.169 0.092 0.219l0.441 0.442c0.049 0.0509 0.049 0.133-2e-7 0.182zm-7.134-9.2801c0-0.071 0.057-0.128 0.128-0.128h6.743c0.07 0 0.128 0.057 0.128 0.128v0.427c0 0.071-0.058 0.128-0.128 0.128h-6.743c-0.071 0-0.128-0.057-0.128-0.128v-0.427zm-0.012 9.1001 0.442-0.442c0.051-0.05 0.091-0.148 0.091-0.219v-3.687c0-0.071 0.057-0.128 0.128-0.128h0.309c0.07 0 0.128 0.057 0.128 0.128v4.935c0 0.071-0.058 0.128-0.128 0.128l-0.30899-1e-4c-0.071 0-0.168-0.041-0.219-0.091l-0.442-0.442c-0.04901-0.0509-0.04901-0.133-1e-5 -0.1819zm-0.825-4.3495c0-0.071 0.056-0.128 0.128-0.128h0.373c0.071 0 0.128 0.057 0.128 0.128v3.405c0 0.071-0.057 0.128-0.128 0.128h-0.373c-0.072 0-0.128-0.057-0.128-0.128v-3.405z" fill="#E6E6E6" connector-curvature="0"/>
     <polygon points="-12.555 -91.174 -11.671 -91.174 -12.321 -78.169 -12.555 -78.169" fill="#F2F2F2"/>
     <polyline points="-1.442 -78.169 -2.095 -91.174 -1.441 -91.174 -1.441 -78.169" fill="#F2F2F2"/>
    </g>
   </g>
  </g>
  <g transform="translate(52.822 34.812)">
   <path d="m8.787 4.535h-8.22c-0.313 0-0.567-0.253-0.567-0.566v-3.402c0-0.313 0.254-0.567 0.567-0.567h8.22c0.313 0 0.567 0.254 0.567 0.567v3.402c0 0.313-0.253 0.566-0.567 0.566z" fill="#B4B4B4"/>
   <path d="m0.567 4.11c-0.078 0-0.142-0.063-0.142-0.142v-3.401c0-0.078 0.063-0.142 0.142-0.142h8.22c0.078 0 0.142 0.063 0.142 0.142v3.402c0 0.078-0.063 0.142-0.142 0.142h-8.22z" fill="#DCDCDC"/>
  </g>
 </g>
</svg>
