<?xml version="1.0" encoding="UTF-8"?>
<!-- Generator: Adobe Illustrator 26.3.1, SVG Export Plug-In . SVG Version: 6.00 Build 0)  -->
<svg width="1.0698in" height=".7in" enable-background="new 0 0 77.0288 50.4" version="1.1" viewBox="0 0 77.029 50.4" xml:space="preserve" xmlns="http://www.w3.org/2000/svg" xmlns:xml="http://www.w3.org/XML/1998/namespace">
    <desc>
        <referenceFile>PCF8574 QT rev B_breadboard.svg</referenceFile>
    </desc>
    <g id="breadboard">
        <g id="icon">
            <path d="m2.5512 7.2c0-3.9765 3.2235-7.2 7.2-7.2h57.6c3.9764 0 7.2 3.2236 7.2 7.2v36c0 3.9764-3.2235 7.2-7.2 7.2h-57.6c-3.9765 0-7.2-3.2235-7.2-7.2v-36m16.583 36c0 0.7828 0.6346 1.4173 1.4173 1.4173 0.7828 0 1.4173-0.6346 1.4173-1.4173s-0.6346-1.4173-1.4173-1.4173c-0.7828 0-1.4173 0.6345-1.4173 1.4173zm7.2 0c0 0.7828 0.6346 1.4173 1.4173 1.4173 0.7828 0 1.4173-0.6346 1.4173-1.4173s-0.6346-1.4173-1.4173-1.4173c-0.7828 0-1.4173 0.6345-1.4173 1.4173zm7.2 0c0 0.7828 0.6346 1.4173 1.4173 1.4173s1.4173-0.6346 1.4173-1.4173-0.6346-1.4173-1.4173-1.4173c-0.7828 0-1.4173 0.6345-1.4173 1.4173zm7.2 0c0 0.7828 0.6346 1.4173 1.4173 1.4173s1.4173-0.6346 1.4173-1.4173-0.6346-1.4173-1.4173-1.4173-1.4173 0.6345-1.4173 1.4173zm7.2 0c0 0.7828 0.6346 1.4173 1.4173 1.4173 0.7828 0 1.4173-0.6346 1.4173-1.4173s-0.6346-1.4173-1.4173-1.4173-1.4173 0.6345-1.4173 1.4173zm7.2 0c0 0.7828 0.6346 1.4173 1.4173 1.4173 0.7828 0 1.4173-0.6346 1.4173-1.4173s-0.6346-1.4173-1.4173-1.4173-1.4173 0.6345-1.4173 1.4173zm14.4-36c0 0.7828 0.6346 1.4173 1.4173 1.4173 0.7828 0 1.4173-0.6346 1.4173-1.4173s-0.6346-1.4173-1.4173-1.4173c-0.7828 0-1.4173 0.6345-1.4173 1.4173zm-7.2 0c0 0.7828 0.6346 1.4173 1.4173 1.4173 0.7828 0 1.4173-0.6346 1.4173-1.4173s-0.6346-1.4173-1.4173-1.4173c-0.7828 0-1.4173 0.6345-1.4173 1.4173zm-7.2 0c0 0.7828 0.6346 1.4173 1.4173 1.4173 0.7828 0 1.4173-0.6346 1.4173-1.4173 0-0.7828-0.6346-1.4173-1.4173-1.4173s-1.4173 0.6345-1.4173 1.4173zm-7.2 0c0 0.7828 0.6346 1.4173 1.4173 1.4173 0.7828 0 1.4173-0.6346 1.4173-1.4173 0-0.7828-0.6346-1.4173-1.4173-1.4173s-1.4173 0.6345-1.4173 1.4173zm-7.2 0c0 0.7828 0.6346 1.4173 1.4173 1.4173s1.4173-0.6345 1.4173-1.4173-0.6346-1.4173-1.4173-1.4173-1.4173 0.6345-1.4173 1.4173zm-7.2 0c0 0.7828 0.6346 1.4173 1.4173 1.4173s1.4173-0.6345 1.4173-1.4173-0.6346-1.4173-1.4173-1.4173c-0.7828 0-1.4173 0.6345-1.4173 1.4173zm-7.2 0c0 0.7828 0.6346 1.4173 1.4173 1.4173 0.7828 0 1.4173-0.6346 1.4173-1.4173s-0.6346-1.4173-1.4173-1.4173c-0.7828 0-1.4173 0.6345-1.4173 1.4173zm-7.2 0c0 0.7828 0.6346 1.4173 1.4173 1.4173 0.7828 0 1.4173-0.6346 1.4173-1.4173s-0.6346-1.4173-1.4173-1.4173c-0.7828 0-1.4173 0.6345-1.4173 1.4173zm-7.2001 0c0 0.7828 0.6346 1.4173 1.4173 1.4173s1.4174-0.6345 1.4174-1.4173-0.6346-1.4173-1.4173-1.4173-1.4174 0.6345-1.4174 1.4173zm-7.2 0c0 0.7828 0.6346 1.4173 1.4173 1.4173s1.4174-0.6345 1.4174-1.4173-0.6346-1.4173-1.4173-1.4173-1.4174 0.6345-1.4174 1.4173zm1.4741 36c-0.0033 1.9569 1.5804 3.546 3.5373 3.5493s3.546-1.5804 3.5493-3.5373v-0.012c0.0033-1.9569-1.5804-3.546-3.5374-3.5493s-3.546 1.5804-3.5493 3.5374c1e-4 4e-3 1e-4 0.0079 1e-4 0.0119zm57.6 0c-0.0034 1.9569 1.5802 3.5461 3.5371 3.5495s3.5461-1.5802 3.5495-3.5371v-0.0125c0.0034-1.9569-1.5802-3.5461-3.5371-3.5495s-3.5461 1.5802-3.5495 3.5371v0.0125z"/>
            
                
                    <g transform="translate(16.928 49.55)">
                        <text fill="#FFFFFF" font-family="'OCRA'" font-size="2.6726">VIN</text>
                    </g>
                
                
                    <g transform="translate(54.496 40.55)">
                        <text fill="#FFFFFF" font-family="'OCRA'" font-size="2.6726">A0</text>
                    </g>
                
                
                    <g transform="translate(24.128 40.19)">
                        <text fill="#FFFFFF" font-family="'OCRA'" font-size="2.6726">GND</text>
                    </g>
                
                
                    <g transform="translate(32.048 49.55)">
                        <text fill="#FFFFFF" font-family="'OCRA'" font-size="2.6726">SCL</text>
                    </g>
                
                
                    <g transform="translate(38.888 40.19)">
                        <text fill="#FFFFFF" font-family="'OCRA'" font-size="2.6726">SDA</text>
                    </g>
                
                
                    <g transform="translate(46.448 49.55)">
                        <text fill="#FFFFFF" font-family="'OCRA'" font-size="2.6726">INT</text>
                    </g>
                
                
                    <g transform="translate(26.293 15.022)">
                        <text fill="#FFFFFF" font-family="'OCRA'" font-size="3.8754">PCF8574</text>
                    </g>
                
                
                    <g transform="translate(10.111 12.96)">
                        <text fill="#FFFFFF" font-family="'OCRA'" font-size="2.6726">on</text>
                    </g>
                
                
                    <g transform="translate(10.936 4.1904)">
                        <text fill="#FFFFFF" font-family="'OCRA'" font-size="2.6726">P7</text>
                    </g>
                
                
                    <g transform="translate(25.336 4.1904)">
                        <text fill="#FFFFFF" font-family="'OCRA'" font-size="2.6726">P5</text>
                    </g>
                
                
                    <g transform="translate(32.536 4.1904)">
                        <text fill="#FFFFFF" font-family="'OCRA'" font-size="2.6726">P4</text>
                    </g>
                
                
                    <g transform="translate(39.736 4.1904)">
                        <text fill="#FFFFFF" font-family="'OCRA'" font-size="2.6726">P3</text>
                    </g>
                
                
                    <g transform="translate(46.936 4.1904)">
                        <text fill="#FFFFFF" font-family="'OCRA'" font-size="2.6726">P2</text>
                    </g>
                
                
                    <g transform="translate(54.136 4.1904)">
                        <text fill="#FFFFFF" font-family="'OCRA'" font-size="2.6726">P1</text>
                    </g>
                
                
                    <g transform="translate(61.336 4.1904)">
                        <text fill="#FFFFFF" font-family="'OCRA'" font-size="2.6726">P0</text>
                    </g>
                
                
                    <g transform="translate(18.136 4.1904)">
                        <text fill="#FFFFFF" font-family="'OCRA'" font-size="2.6726">P6</text>
                    </g>
                
                
                    <g transform="translate(18.02 18.59)">
                        <text fill="#FFFFFF" font-family="'OCRA'" font-size="2.6726">I2C GPIO Expander</text>
                    </g>
                
                
                    
                        <line x1="52.231" x2="52.231" y1="32.346" y2="34.614" fill="none" stroke="#fff" stroke-linecap="round" stroke-width=".864"/>
                    
                
                
                    
                        <line x1="25.591" x2="25.591" y1="32.4" y2="35.28" fill="none" stroke="#fff" stroke-linecap="round" stroke-width=".864"/>
                    
                
                
                    <g fill="none" stroke="#fff" stroke-linecap="round" stroke-width=".432">
                        <line x1="68.085" x2="60.715" y1="33.704" y2="33.704"/>
                        <line x1="60.715" x2="60.715" y1="33.704" y2="30.586"/>
                        <line x1="60.715" x2="60.715" y1="19.814" y2="16.413"/>
                        <line x1="60.715" x2="68.085" y1="16.413" y2="16.413"/>
                        <line x1="72.904" x2="72.904" y1="31.153" y2="19.247"/>
                    </g>
                
                
                    <g fill="none" stroke="#fff" stroke-linecap="round" stroke-width=".432">
                        <line x1="9.017" x2="16.387" y1="16.696" y2="16.696"/>
                        <line x1="16.387" x2="16.387" y1="16.696" y2="19.814"/>
                        <line x1="16.387" x2="16.387" y1="30.586" y2="33.987"/>
                        <line x1="16.387" x2="9.017" y1="33.987" y2="33.987"/>
                        <line x1="4.1981" x2="4.1981" y1="19.247" y2="31.153"/>
                    </g>
                
                
                    
                        
                            <path d="m12.235 14.76 0.9-0.72v1.44l-0.9-0.72" fill="none" stroke="#fff" stroke-linecap="round" stroke-width=".432"/>
                        
                        <g transform="matrix(0 -1 1 0 9.504 14.76)">
                            
                                <g transform="matrix(-2.5352e-6 -1 1 -2.5352e-6 -2.5512 2.5512)">
                                    <rect x="-.18" y="1.4712" width=".36" height="2.16" fill="#fff"/>
                                </g>
                            
                        </g>
                    
                
                
                    <g fill="none" stroke="#fff" stroke-width=".432">
                        <line x1="30.487" x2="30.487" y1="28.656" y2="30.384" stroke-linecap="round"/>
                        <line x1="43.735" x2="43.735" y1="30.384" y2="28.656" stroke-linecap="round"/>
                        <line x1="43.735" x2="43.735" y1="21.744" y2="20.016" stroke-linecap="round"/>
                        <line x1="30.487" x2="30.487" y1="20.016" y2="21.744" stroke-linecap="round"/>
                        <line x1="43.735" x2="43.735" y1="25.992" y2="24.408" stroke-linecap="round"/>
                        <line x1="30.487" x2="30.487" y1="24.408" y2="25.992" stroke-linecap="round"/>
                        <circle cx="29.741" cy="29.452" r=".8018"/>
                    </g>
                
                
                    <g fill="none" stroke="#fff" stroke-linecap="round" stroke-width=".576">
                        <line x1="48.983" x2="56.92" y1="19.094" y2="19.094"/>
                        <line x1="56.92" x2="48.983" y1="29.866" y2="29.866"/>
                    </g>
                
                
                    <g fill="none" stroke="#fff" stroke-linecap="round" stroke-width=".576">
                        <line x1="28.12" x2="20.183" y1="30.586" y2="30.586"/>
                        <line x1="20.183" x2="28.12" y1="19.814" y2="19.814"/>
                    </g>
                
                
                    <g fill="none" stroke="#fff">
                        <line x1="72.076" x2="69.826" y1="12.6" y2="12.6" stroke-linecap="round" stroke-width=".864"/>
                        <circle cx="70.951" cy="12.6" r="2.2158" stroke-width=".576"/>
                    </g>
                
                
                    <g fill="none" stroke="#fff">
                        <line x1="7.2759" x2="5.0261" y1="12.6" y2="12.6" stroke-linecap="round" stroke-width=".864"/>
                        <line x1="6.1512" x2="6.1512" y1="11.475" y2="13.725" stroke-linecap="round" stroke-width=".864"/>
                        <circle cx="6.1512" cy="12.6" r="2.2158" stroke-width=".576"/>
                    </g>
                
                
                    
                        <circle cx="9.7512" cy="43.2" r="5.6693" fill="none" stroke="#fff" stroke-width=".576"/>
                    
                
                
                    
                        <circle cx="67.351" cy="43.2" r="5.6693" fill="none" stroke="#fff" stroke-width=".576"/>
                    
                
            
            <rect id="connector5pin" x="48.298" y="32.063" width="3.0472" height="2.8346" fill="#9A916C"/>
            <rect id="connector6pin" x="53.117" y="32.063" width="3.0472" height="2.8346" fill="#9A916C"/>
            <rect id="connector7pin" x="21.141" y="31.714" width="3.515" height="4.252" fill="#9A916C"/>
            <rect id="connector8pin" x="26.527" y="31.714" width="3.515" height="4.252" fill="#9A916C"/>
            <g transform="matrix(-1 0 0 -1 114.63 58.904)">
                
                    <rect x="52.566" y="28.602" width="4.3937" height="1.7008" fill="#9A916C"/>
                
            </g>
            <g transform="matrix(-1 0 0 -1 114.63 53.235)">
                
                    <rect x="52.566" y="25.767" width="4.3937" height="1.7008" fill="#9A916C"/>
                
            </g>
            <g transform="matrix(-1 0 0 -1 114.63 47.565)">
                
                    <rect x="52.566" y="22.932" width="4.3937" height="1.7008" fill="#9A916C"/>
                
            </g>
            <g transform="matrix(-1 0 0 -1 114.63 41.896)">
                
                    <rect x="52.566" y="20.098" width="4.3937" height="1.7008" fill="#9A916C"/>
                
            </g>
            <g transform="matrix(-1 0 0 -1 136.74 66.274)">
                
                    <rect id="connector13pin" x="63.266" y="31.436" width="5.1024" height="3.4016" fill="#9A916C"/>
                
            </g>
            <g transform="matrix(-1 0 0 -1 136.74 34.526)">
                
                    <rect id="connector14pin" x="63.266" y="15.562" width="5.1024" height="3.4016" fill="#9A916C"/>
                
            </g>
            <rect x="15.041" y="20.098" width="4.3937" height="1.7008" fill="#9A916C"/>
            <rect x="15.041" y="22.932" width="4.3937" height="1.7008" fill="#9A916C"/>
            <rect x="15.041" y="25.767" width="4.3937" height="1.7008" fill="#9A916C"/>
            <rect x="15.041" y="28.602" width="4.3937" height="1.7008" fill="#9A916C"/>
            <rect id="connector19pin" x="3.6312" y="15.562" width="5.1024" height="3.4016" fill="#9A916C"/>
            <rect id="connector20pin" x="3.6312" y="31.436" width="5.1024" height="3.4016" fill="#9A916C"/>
            <g transform="matrix(0 -1 1 0 -2.554 26.966)">
                
                    <g transform="matrix(-2.5352e-6 -1 1 -2.5352e-6 -5.105 29.517)">
                        <rect id="connector21pin" x="11.072" y="16.177" width="2.2677" height="2.2677" fill="#9A916C"/>
                    </g>
                
            </g>
            <g transform="matrix(0 -1 1 0 -6.806 22.714)">
                
                    <g transform="matrix(-2.5352e-6 -1 1 -2.5352e-6 -9.3571 25.265)">
                        <rect id="connector22pin" x="6.8202" y="16.177" width="2.2677" height="2.2677" fill="#9A916C"/>
                    </g>
                
            </g>
            <path id="connector23pin" d="m16.591 35.303c0.7828 0 1.4173 0.6346 1.4173 1.4173 0 0.7828-0.6346 1.4173-1.4173 1.4173-0.7828 0-1.4173-0.6346-1.4173-1.4173s0.6345-1.4173 1.4173-1.4173z" fill="#9A916C"/>
            <path id="connector24pin" d="m65.551 11.903c0.7828 0 1.4173 0.6346 1.4173 1.4173 0 0.7828-0.6346 1.4173-1.4173 1.4173-0.7828 0-1.4173-0.6346-1.4173-1.4173s0.6345-1.4173 1.4173-1.4173z" fill="#9A916C"/>
            <g transform="matrix(0 1 -1 0 55.579 -.92693)">
                
                    <path id="connector25pin" d="m28.134 23.57h0.2381c0.1534 0 0.2778 0.1244 0.2778 0.2778v1.8539c0 0.1534-0.1244 0.2778-0.2778 0.2778h-0.2381c-0.1534 0-0.2778-0.1244-0.2778-0.2778v-1.8539c0-0.1534 0.1244-0.2778 0.2778-0.2778z" fill="#9A916C"/>
                
            </g>
            <path id="connector26pin" d="m32.032 28.885h0.2381c0.1534 0 0.2778 0.1244 0.2778 0.2778v1.8539c0 0.1534-0.1244 0.2778-0.2778 0.2778h-0.2381c-0.1534 0-0.2778-0.1244-0.2778-0.2778v-1.8539c0-0.1534 0.1243-0.2778 0.2778-0.2778z" fill="#9A916C"/>
            <path id="connector27pin" d="m33.449 28.885h0.2381c0.1534 0 0.2778 0.1244 0.2778 0.2778v1.8539c0 0.1534-0.1244 0.2778-0.2778 0.2778h-0.2381c-0.1534 0-0.2778-0.1244-0.2778-0.2778v-1.8539c0-0.1534 0.1243-0.2778 0.2778-0.2778z" fill="#9A916C"/>
            <path id="connector28pin" d="m34.866 28.885h0.2381c0.1534 0 0.2778 0.1244 0.2778 0.2778v1.8539c0 0.1534-0.1244 0.2778-0.2778 0.2778h-0.2381c-0.1534 0-0.2778-0.1244-0.2778-0.2778v-1.8539c0-0.1534 0.1243-0.2778 0.2778-0.2778z" fill="#9A916C"/>
            <path id="connector29pin" d="m36.284 28.885h0.2381c0.1534 0 0.2778 0.1244 0.2778 0.2778v1.8539c0 0.1534-0.1244 0.2778-0.2778 0.2778h-0.2381c-0.1534 0-0.2778-0.1244-0.2778-0.2778v-1.8539c0-0.1534 0.1243-0.2778 0.2778-0.2778z" fill="#9A916C"/>
            <path id="connector30pin" d="m37.701 28.885h0.2381c0.1534 0 0.2778 0.1244 0.2778 0.2778v1.8539c0 0.1534-0.1244 0.2778-0.2778 0.2778h-0.2381c-0.1534 0-0.2778-0.1244-0.2778-0.2778v-1.8539c0-0.1534 0.1243-0.2778 0.2778-0.2778z" fill="#9A916C"/>
            <path id="connector31pin" d="m39.118 28.885h0.2381c0.1534 0 0.2778 0.1244 0.2778 0.2778v1.8539c0 0.1534-0.1244 0.2778-0.2778 0.2778h-0.2381c-0.1534 0-0.2778-0.1244-0.2778-0.2778v-1.8539c0-0.1534 0.1243-0.2778 0.2778-0.2778z" fill="#9A916C"/>
            <path id="connector32pin" d="m40.536 28.885h0.2381c0.1534 0 0.2778 0.1244 0.2778 0.2778v1.8539c0 0.1534-0.1244 0.2778-0.2778 0.2778h-0.2381c-0.1534 0-0.2778-0.1244-0.2778-0.2778v-1.8539c0-0.1534 0.1243-0.2778 0.2778-0.2778z" fill="#9A916C"/>
            <path id="connector33pin" d="m41.953 28.885h0.2381c0.1534 0 0.2778 0.1244 0.2778 0.2778v1.8539c0 0.1534-0.1244 0.2778-0.2778 0.2778h-0.2381c-0.1534 0-0.2778-0.1244-0.2778-0.2778v-1.8539c0-0.1534 0.1243-0.2778 0.2778-0.2778z" fill="#9A916C"/>
            <g transform="matrix(0 1 -1 0 68.193 -13.541)">
                
                    <path id="connector34pin" d="m40.748 23.57h0.2381c0.1534 0 0.2778 0.1244 0.2778 0.2778v1.8539c0 0.1534-0.1244 0.2778-0.2778 0.2778h-0.2381c-0.1534 0-0.2778-0.1244-0.2778-0.2778v-1.8539c0-0.1534 0.1244-0.2778 0.2778-0.2778z" fill="#9A916C"/>
                
            </g>
            <g transform="matrix(0 1 -1 0 63.941 -17.793)">
                
                    <path id="connector35pin" d="m40.748 19.318h0.2381c0.1534 0 0.2778 0.1244 0.2778 0.2778v1.8539c0 0.1534-0.1244 0.2778-0.2778 0.2778h-0.2381c-0.1534 0-0.2778-0.1244-0.2778-0.2778v-1.8539c0-0.1534 0.1244-0.2778 0.2778-0.2778z" fill="#9A916C"/>
                
            </g>
            <path id="connector36pin" d="m41.953 19.106h0.2381c0.1534 0 0.2778 0.1244 0.2778 0.2778v1.8539c0 0.1534-0.1244 0.2778-0.2778 0.2778h-0.2381c-0.1534 0-0.2778-0.1244-0.2778-0.2778v-1.8539c0-0.1534 0.1243-0.2778 0.2778-0.2778z" fill="#9A916C"/>
            <path id="connector37pin" d="m40.536 19.106h0.2381c0.1534 0 0.2778 0.1244 0.2778 0.2778v1.8539c0 0.1534-0.1244 0.2778-0.2778 0.2778h-0.2381c-0.1534 0-0.2778-0.1244-0.2778-0.2778v-1.8539c0-0.1534 0.1243-0.2778 0.2778-0.2778z" fill="#9A916C"/>
            <path id="connector38pin" d="m39.118 19.106h0.2381c0.1534 0 0.2778 0.1244 0.2778 0.2778v1.8539c0 0.1534-0.1244 0.2778-0.2778 0.2778h-0.2381c-0.1534 0-0.2778-0.1244-0.2778-0.2778v-1.8539c0-0.1534 0.1243-0.2778 0.2778-0.2778z" fill="#9A916C"/>
            <path id="connector39pin" d="m37.701 19.106h0.2381c0.1534 0 0.2778 0.1244 0.2778 0.2778v1.8539c0 0.1534-0.1244 0.2778-0.2778 0.2778h-0.2381c-0.1534 0-0.2778-0.1244-0.2778-0.2778v-1.8539c0-0.1534 0.1243-0.2778 0.2778-0.2778z" fill="#9A916C"/>
            <path id="connector40pin" d="m36.284 19.106h0.2381c0.1534 0 0.2778 0.1244 0.2778 0.2778v1.8539c0 0.1534-0.1244 0.2778-0.2778 0.2778h-0.2381c-0.1534 0-0.2778-0.1244-0.2778-0.2778v-1.8539c0-0.1534 0.1243-0.2778 0.2778-0.2778z" fill="#9A916C"/>
            <path id="connector41pin" d="m34.866 19.106h0.2381c0.1534 0 0.2778 0.1244 0.2778 0.2778v1.8539c0 0.1534-0.1244 0.2778-0.2778 0.2778h-0.2381c-0.1534 0-0.2778-0.1244-0.2778-0.2778v-1.8539c0-0.1534 0.1243-0.2778 0.2778-0.2778z" fill="#9A916C"/>
            <path id="connector42pin" d="m33.449 19.106h0.2381c0.1534 0 0.2778 0.1244 0.2778 0.2778v1.8539c0 0.1534-0.1244 0.2778-0.2778 0.2778h-0.2381c-0.1534 0-0.2778-0.1244-0.2778-0.2778v-1.8539c0-0.1534 0.1243-0.2778 0.2778-0.2778z" fill="#9A916C"/>
            <path id="connector43pin" d="m32.032 19.106h0.2381c0.1534 0 0.2778 0.1244 0.2778 0.2778v1.8539c0 0.1534-0.1244 0.2778-0.2778 0.2778h-0.2381c-0.1534 0-0.2778-0.1244-0.2778-0.2778v-1.8539c0-0.1534 0.1243-0.2778 0.2778-0.2778z" fill="#9A916C"/>
            <g transform="matrix(0 1 -1 0 51.327 -5.1789)">
                
                    <path id="connector44pin" d="m28.134 19.318h0.2381c0.1534 0 0.2778 0.1244 0.2778 0.2778v1.8539c0 0.1534-0.1244 0.2778-0.2778 0.2778h-0.2381c-0.1534 0-0.2778-0.1244-0.2778-0.2778v-1.8539c0-0.1534 0.1244-0.2778 0.2778-0.2778z" fill="#9A916C"/>
                
            </g>
            <g transform="matrix(0 -1 1 0 9.36 59.76)">
                
                    <path id="connector45pin" d="m32.292 23.428h4.5354c0.3131 0 0.5669 0.2538 0.5669 0.5669v7.5118c0 0.3131-0.2538 0.5669-0.5669 0.5669h-4.5354c-0.3131 0-0.5669-0.2538-0.5669-0.5669v-7.5118c0-0.3131 0.2538-0.5669 0.5669-0.5669z" fill="#9A916C"/>
                
            </g>
            <circle id="connector46pin" cx="20.551" cy="43.2" r="1.9687" fill="none" stroke="#9A916C" stroke-width="1.1027"/>
            <circle id="connector47pin" cx="27.751" cy="43.2" r="1.9687" fill="none" stroke="#9A916C" stroke-width="1.1027"/>
            <circle id="connector48pin" cx="34.951" cy="43.2" r="1.9687" fill="none" stroke="#9A916C" stroke-width="1.1027"/>
            <circle id="connector49pin" cx="42.151" cy="43.2" r="1.9687" fill="none" stroke="#9A916C" stroke-width="1.1027"/>
            <circle id="connector50pin" cx="49.351" cy="43.2" r="1.9687" fill="none" stroke="#9A916C" stroke-width="1.1027"/>
            <circle id="connector51pin" cx="56.551" cy="43.2" r="1.9687" fill="none" stroke="#9A916C" stroke-width="1.1027"/>
            <circle id="connector52pin" cx="70.951" cy="7.2" r="1.9687" fill="none" stroke="#9A916C" stroke-width="1.1027"/>
            <circle id="connector53pin" cx="63.751" cy="7.2" r="1.9687" fill="none" stroke="#9A916C" stroke-width="1.1027"/>
            <circle id="connector54pin" cx="56.551" cy="7.2" r="1.9687" fill="none" stroke="#9A916C" stroke-width="1.1027"/>
            <circle id="connector55pin" cx="49.351" cy="7.2" r="1.9687" fill="none" stroke="#9A916C" stroke-width="1.1027"/>
            <circle id="connector56pin" cx="42.151" cy="7.2" r="1.9687" fill="none" stroke="#9A916C" stroke-width="1.1027"/>
            <circle id="connector57pin" cx="34.951" cy="7.2" r="1.9687" fill="none" stroke="#9A916C" stroke-width="1.1027"/>
            <circle id="connector58pin" cx="27.751" cy="7.2" r="1.9687" fill="none" stroke="#9A916C" stroke-width="1.1027"/>
            <circle id="connector59pin" cx="20.551" cy="7.2" r="1.9687" fill="none" stroke="#9A916C" stroke-width="1.1027"/>
            <circle id="connector60pin" cx="13.351" cy="7.2" r="1.9687" fill="none" stroke="#9A916C" stroke-width="1.1027"/>
            <circle id="connector61pin" cx="6.1512" cy="7.2" r="1.9687" fill="none" stroke="#9A916C" stroke-width="1.1027"/>
            <g transform="matrix(0 -1 1 0 24.644 80.975)">
                
                    <g transform="matrix(-2.5352e-6 -1 1 -2.5352e-6 22.093 83.526)">
                        <rect id="connector62pin" x="51.534" y="30.078" width="2.5512" height="1.2756" fill="#9A916C"/>
                    </g>
                
            </g>
            <g transform="matrix(0 -1 1 0 27.196 78.423)">
                
                    <g transform="matrix(-2.5352e-6 -1 1 -2.5352e-6 24.645 80.974)">
                        <rect id="connector63pin" x="51.534" y="27.527" width="2.5512" height="1.2756" fill="#9A916C"/>
                    </g>
                
            </g>
            <g transform="matrix(0 -1 1 0 29.463 76.156)">
                
                    <g transform="matrix(-2.5352e-6 -1 1 -2.5352e-6 26.912 78.707)">
                        <rect id="connector64pin" x="51.534" y="25.26" width="2.5512" height="1.2756" fill="#9A916C"/>
                    </g>
                
            </g>
            <g transform="matrix(0 -1 1 0 32.014 73.604)">
                
                    <g transform="matrix(-2.5352e-6 -1 1 -2.5352e-6 29.464 76.156)">
                        <rect id="connector65pin" x="51.534" y="22.708" width="2.5512" height="1.2756" fill="#9A916C"/>
                    </g>
                
            </g>
            <g transform="matrix(0 -1 1 0 27.196 68.786)">
                
                    <g transform="matrix(-2.5352e-6 -1 1 -2.5352e-6 24.645 71.337)">
                        <rect id="connector66pin" x="46.715" y="22.708" width="2.5512" height="1.2756" fill="#9A916C"/>
                    </g>
                
            </g>
            <g transform="matrix(0 -1 1 0 24.644 71.337)">
                
                    <g transform="matrix(-2.5352e-6 -1 1 -2.5352e-6 22.093 73.888)">
                        <rect id="connector67pin" x="46.715" y="25.26" width="2.5512" height="1.2756" fill="#9A916C"/>
                    </g>
                
            </g>
            <g transform="matrix(0 -1 1 0 22.377 73.604)">
                
                    <g transform="matrix(-2.5352e-6 -1 1 -2.5352e-6 19.826 76.156)">
                        <rect id="connector68pin" x="46.715" y="27.527" width="2.5512" height="1.2756" fill="#9A916C"/>
                    </g>
                
            </g>
            <g transform="matrix(0 -1 1 0 19.826 76.156)">
                
                    <g transform="matrix(-2.5352e-6 -1 1 -2.5352e-6 17.274 78.707)">
                        <rect id="connector69pin" x="46.715" y="30.078" width="2.5512" height="1.2756" fill="#9A916C"/>
                    </g>
                
            </g>
            <g transform="matrix(0 1 -1 0 40.706 2.3244)">
                
                    <g transform="matrix(2.5352e-6 1 -1 2.5352e-6 38.154 -.2268)">
                        <rect id="connector70pin" x="17.915" y="18.326" width="2.5512" height="1.2756" fill="#9A916C"/>
                    </g>
                
            </g>
            <g transform="matrix(0 1 -1 0 43.257 4.8756)">
                
                    <g transform="matrix(2.5352e-6 1 -1 2.5352e-6 40.705 2.3244)">
                        <rect id="connector71pin" x="17.915" y="20.877" width="2.5512" height="1.2756" fill="#9A916C"/>
                    </g>
                
            </g>
            <g transform="matrix(0 1 -1 0 45.524 7.1433)">
                
                    <g transform="matrix(2.5352e-6 1 -1 2.5352e-6 42.973 4.5921)">
                        <rect id="connector72pin" x="17.915" y="23.145" width="2.5512" height="1.2756" fill="#9A916C"/>
                    </g>
                
            </g>
            <g transform="matrix(0 1 -1 0 48.076 9.6945)">
                
                    <g transform="matrix(2.5352e-6 1 -1 2.5352e-6 45.524 7.1434)">
                        <rect id="connector73pin" x="17.915" y="25.696" width="2.5512" height="1.2756" fill="#9A916C"/>
                    </g>
                
            </g>
            <g transform="matrix(0 1 -1 0 52.894 4.8756)">
                
                    <g transform="matrix(2.5352e-6 1 -1 2.5352e-6 50.343 2.3245)">
                        <rect id="connector74pin" x="22.734" y="25.696" width="2.5512" height="1.2756" fill="#9A916C"/>
                    </g>
                
            </g>
            <g transform="matrix(0 1 -1 0 50.343 2.3244)">
                
                    <g transform="matrix(2.5352e-6 1 -1 2.5352e-6 47.792 -.2268)">
                        <rect id="connector75pin" x="22.734" y="23.145" width="2.5512" height="1.2756" fill="#9A916C"/>
                    </g>
                
            </g>
            <g transform="matrix(0 1 -1 0 48.076 .056693)">
                
                    <g transform="matrix(2.5352e-6 1 -1 2.5352e-6 45.524 -2.4945)">
                        <rect id="connector76pin" x="22.734" y="20.877" width="2.5512" height="1.2756" fill="#9A916C"/>
                    </g>
                
            </g>
            <g transform="matrix(0 1 -1 0 45.524 -2.4945)">
                
                    <g transform="matrix(2.5352e-6 1 -1 2.5352e-6 42.973 -5.0457)">
                        <rect id="connector77pin" x="22.734" y="18.326" width="2.5512" height="1.2756" fill="#9A916C"/>
                    </g>
                
            </g>
            <circle id="connector78pin" cx="9.7512" cy="43.2" r="4.2633" fill="none" stroke="#9A916C" stroke-width="1.44"/>
            <circle id="connector79pin" cx="67.351" cy="43.2" r="4.2633" fill="none" stroke="#9A916C" stroke-width="1.44"/>
        </g>
        <g transform="translate(47.412 32.346)">
            
                <path d="m6.7962 2.268h-3.955c-0.16 0-0.29-0.13-0.29-0.291v-1.687c0-0.16 0.13-0.29 0.29-0.29h3.955c0.16 0 0.29 0.13 0.29 0.29v1.687c0 0.161-0.13 0.291-0.29 0.291z" fill="#DCDCDC"/>
                <rect x="3.6852" width="2.268" height="2.268" fill="#6E554B"/>
            
        </g>
        <g transform="translate(20.206 32.068)">
            
                <path d="m7.9372 3.543h-5.103c-0.156 0-0.283-0.127-0.283-0.283v-2.977c0-0.156 0.127-0.283 0.283-0.283h5.102c0.157 0 0.283 0.127 0.283 0.283v2.977c1e-3 0.156-0.126 0.283-0.282 0.283z" fill="#DCDCDC"/>
                <rect x="3.6142" width="3.543" height="3.543" fill="#6E554B"/>
            
        </g>
        <g transform="translate(54.418 18.3)">
            
                <g transform="matrix(0 -1 1 0 1.7 15.5)">
                    
                        <path d="m1.6 4.9512h14.2v1.4h1.4v10h-17v-10h1.4v-1.4z" fill="#666" connector-curvature="0" nodetypes="ccccccccc"/>
                        <g transform="matrix(-.0068 -1 1 -.0068 4.5462 24.219)">
                            <rect x="12.1" y="9.1517" width="4.4001" height="1.4"/>
                        </g>
                        <g transform="matrix(-.0068 -1 1 -.0068 -6.9303 13.019)">
                            <rect x=".8002" y="9.2512" width="4.4001" height="1.4"/>
                        </g>
                        <g transform="matrix(-.0068 -1 1 -.0068 7.4962 21.248)">
                            <rect x="13.55" y="6.2014" width="1.5" height="1.4" fill="#333"/>
                        </g>
                        <g transform="matrix(-.0068 -1 1 -.0068 -3.9804 10.049)">
                            <rect x="2.2501" y="6.301" width="1.5" height="1.4" fill="#333"/>
                        </g>
                        <g transform="matrix(-.0068 -1 1 -.0068 8.6368 17.28)">
                            <rect x="11.1" y="3.8511" width="3.6001" height="1" fill="#DCDCDC"/>
                        </g>
                        <g transform="matrix(-.0068 -1 1 -.0068 5.8178 14.48)" fill="#DCDCDC">
                            <rect x="8.2999" y="3.8508" width="3.6001" height="1"/>
                        
                        
                            <rect x="8.2999" y="3.8508" width="3.6001" height="1"/>
                        </g>
                        <g transform="matrix(-.0068 -1 1 -.0068 2.8975 11.58)">
                            <rect x="5.3997" y="3.8513" width="3.6001" height="1" fill="#DCDCDC"/>
                        </g>
                        <g transform="matrix(-.0068 -1 1 -.0068 -.0208 8.8814)">
                            <rect x="2.6002" y="3.951" width="3.6001" height="1" fill="#DCDCDC"/>
                        </g>
                        <path d="m0.2 11.451v-5-0.1h1.4v-0.7-0.7h2.2v0.3 0.7 0.3h0.2 0.5 0.3v-1.3h1.8v0.2 0.7 0.4h1v-0.7-0.6h1.8v0.1 0.1s0 0.3 0 0.5v0.5h1v-1.4h0.9 0.9s0 0.3 0 0.6v0.6h0.3 0.5 0.2v-1.2h2.4v1.4h1.4v1.7 5 3.4h-3.3-8.5-5.3l0.3-4.8zm3.5 0.4v-4.9-0.6l-0.7-0.1h-0.7s0 4.3 0 5.1v0.7h0.7 0.7v-0.2zm11.4 0.1999v-5.7-0.1h-0.7-0.7s0 1.9 0 4.6v1.2h0.7 0.7z" connector-curvature="0"/>
                        <path d="m2.3 7.6512v-0.7-0.6h0.1 1 0.4v0.5 0.7 0.2h-0.8l-0.7-0.1z" connector-curvature="0"/>
                        <path d="m13.6 7.4512v-0.7-0.6h0.1 0.7 0.6v0.1 0.7 0.6h-1.4v-0.1z" connector-curvature="0"/>
                        <g transform="matrix(-2.5352e-6 -1 1 -2.5352e-6 -16.751 20.751)">
                            <ellipse id="connector9pin" cx="2" cy="18.751" rx="2" ry="2"/>
                        </g>
                        <g transform="matrix(-2.5352e-6 -1 1 -2.5352e-6 -12.251 25.251)">
                            <ellipse id="connector10pin" cx="6.5" cy="18.751" rx="2" ry="2" fill="#f00"/>
                        </g>
                        <g transform="matrix(-2.5352e-6 -1 1 -2.5352e-6 -7.6511 29.851)">
                            <ellipse id="connector11pin" cx="11.1" cy="18.751" rx="2" ry="2" fill="#00f"/>
                        </g>
                        <g transform="matrix(-2.5352e-6 -1 1 -2.5352e-6 -3.1511 34.351)">
                            <ellipse id="connector12pin" cx="15.6" cy="18.751" rx="2" ry="2" fill="#ff0"/>
                        </g>
                    
                </g>
            
        </g>
        <g transform="translate(.38157 18.3)">
            
                <g transform="matrix(0 1 -1 0 15.5 -1.7)">
                    
                        <path d="m1.6-0.1512h14.2v1.4h1.4v10h-17v-10h1.4v-1.4z" fill="#666" connector-curvature="0" nodetypes="ccccccccc"/>
                        <g transform="matrix(.0068 1 -1 .0068 18.952 -9.583)">
                            <rect x="12.1" y="4.0493" width="4.4001" height="1.4"/>
                        </g>
                        <g transform="matrix(.0068 1 -1 .0068 7.8287 1.8157)">
                            <rect x=".8002" y="4.1489" width="4.4001" height="1.4"/>
                        </g>
                        <g transform="matrix(.0068 1 -1 .0068 16.002 -12.513)">
                            <rect x="13.55" y="1.0991" width="1.5" height="1.4" fill="#333"/>
                        </g>
                        <g transform="matrix(.0068 1 -1 .0068 4.8783 -1.1142)">
                            <rect x="2.2501" y="1.1987" width="1.5" height="1.4" fill="#333"/>
                        </g>
                        <g transform="matrix(.0068 1 -1 .0068 12.061 -13.646)">
                            <rect x="11.1" y="-1.2512" width="3.6001" height="1" fill="#DCDCDC"/>
                        </g>
                        <g transform="matrix(.0068 1 -1 .0068 9.2797 -10.846)" fill="#DCDCDC">
                            <rect x="8.2999" y="-1.2515" width="3.6001" height="1"/>
                        
                        
                            <rect x="8.2999" y="-1.2515" width="3.6001" height="1"/>
                        </g>
                        <g transform="matrix(.0068 1 -1 .0068 6.3997 -7.9455)">
                            <rect x="5.3997" y="-1.2511" width="3.6001" height="1" fill="#DCDCDC"/>
                        </g>
                        <g transform="matrix(.0068 1 -1 .0068 3.7189 -5.047)">
                            <rect x="2.6002" y="-1.1514" width="3.6001" height="1" fill="#DCDCDC"/>
                        </g>
                        <path d="m0.2 6.3488v-5-0.1h1.4v-0.7-0.7h2.2v0.3 0.7 0.3h0.2 0.5 0.3v-1.3h1.8v0.2 0.7 0.4h1v-0.7-0.6h1.8v0.1 0.1s0 0.3 0 0.5v0.5h1v-1.4h0.9 0.9s0 0.3 0 0.6v0.6h0.3 0.5 0.2v-1.2h2.4v1.4h1.4v1.7 5 3.4h-3.3-8.5-5.3l0.3-4.8zm3.5 0.4001v-4.9-0.6l-0.7-0.1h-0.7s0 4.3 0 5.1v0.7h0.7 0.7v-0.2zm11.4 0.1999v-5.7-0.1h-0.7-0.7s0 1.9 0 4.6v1.2h0.7 0.7z" connector-curvature="0"/>
                        <path d="m2.3 2.5488v-0.7-0.6h0.1 1 0.4v0.5 0.7 0.2h-0.8l-0.7-0.1z" connector-curvature="0"/>
                        <path d="m13.6 2.3488v-0.7-0.6h0.1 0.7 0.6v0.1 0.7 0.6h-1.4v-0.1z" connector-curvature="0"/>
                        <g transform="matrix(2.5352e-6 1 -1 2.5352e-6 15.649 11.649)">
                            <ellipse id="connector15pin" cx="2" cy="13.649" rx="2" ry="2"/>
                        </g>
                        <g transform="matrix(2.5352e-6 1 -1 2.5352e-6 20.149 7.1488)">
                            <ellipse id="connector16pin" cx="6.5" cy="13.649" rx="2" ry="2" fill="#f00"/>
                        </g>
                        <g transform="matrix(2.5352e-6 1 -1 2.5352e-6 24.749 2.5488)">
                            <ellipse id="connector17pin" cx="11.1" cy="13.649" rx="2" ry="2" fill="#00f"/>
                        </g>
                        <g transform="matrix(2.5352e-6 1 -1 2.5352e-6 29.249 -1.9512)">
                            <ellipse id="connector18pin" cx="15.6" cy="13.649" rx="2" ry="2" fill="#ff0"/>
                        </g>
                    
                </g>
            
        </g>
        <g transform="translate(8.946 12.492)">
            
                <g transform="matrix(0 -1 1 0 -1.1335 3.4015)">
                    
                        <path d="m2.268 2.8412v3.955c0 0.16-0.13 0.29-0.29 0.29h-1.688c-0.16 0-0.29-0.13-0.29-0.29v-3.955c0-0.16 0.13-0.29 0.29-0.29h1.687c0.161 0 0.291 0.13 0.291 0.29z" fill="#DCDCDC"/>
                        <g transform="matrix(-2.5352e-6 -1 1 -2.5352e-6 -3.6847 5.9529)">
                            <rect x="1e-4" y="3.6848" width="2.268" height="2.268" fill="#0f0"/>
                        </g>
                        <circle cx="1.134" cy="4.8192" r=".354" fill="#00B400"/>
                    
                </g>
            
        </g>
        <g transform="translate(45.864 22.212)">
            
                <g transform="matrix(0 -1 1 0 2.268 6.803)">
                    
                        
                            <g transform="matrix(-2.5352e-6 -1 1 -2.5352e-6 -3.8972 5.7402)">
                                <rect x="-1.346" y="3.8972" width="4.535" height="1.843" fill="#DCDCDC"/>
                            </g>
                            <g transform="matrix(-2.5352e-6 -1 1 -2.5352e-6 -1.4172 8.2202)">
                                <rect x="1.134" y="4.1102" width="4.535" height="1.417" fill="#DCDCDC"/>
                            </g>
                            <g transform="matrix(-2.5352e-6 -1 1 -2.5352e-6 .8508 10.488)">
                                <rect x="3.402" y="4.1102" width="4.535" height="1.417" fill="#DCDCDC"/>
                            </g>
                            <g transform="matrix(-2.5352e-6 -1 1 -2.5352e-6 3.3309 12.968)">
                                <rect x="5.882" y="3.8972" width="4.535" height="1.843" fill="#DCDCDC"/>
                            </g>
                            <g transform="matrix(-2.5352e-6 -1 1 -2.5352e-6 -.2832 9.3542)">
                                <rect x="3.118" y=".2832" width="2.835" height="9.071" fill="#303030"/>
                            </g>
                        
                    
                </g>
            
        </g>
        <g transform="translate(17.064 22.932)">
            
                <g transform="matrix(0 1 -1 0 6.803 -2.268)">
                    
                        
                            <g transform="matrix(2.5352e-6 1 -1 2.5352e-6 .6378 -1.2052)">
                                <rect x="-1.346" y="-1.2052" width="4.535" height="1.843" fill="#DCDCDC"/>
                            </g>
                            <g transform="matrix(2.5352e-6 1 -1 2.5352e-6 3.1178 -3.6852)">
                                <rect x="1.134" y="-.9922" width="4.535" height="1.417" fill="#DCDCDC"/>
                            </g>
                            <g transform="matrix(2.5352e-6 1 -1 2.5352e-6 5.3858 -5.9532)">
                                <rect x="3.402" y="-.9922" width="4.535" height="1.417" fill="#DCDCDC"/>
                            </g>
                            <g transform="matrix(2.5352e-6 1 -1 2.5352e-6 7.8658 -8.4332)">
                                <rect x="5.882" y="-1.2052" width="4.535" height="1.843" fill="#DCDCDC"/>
                            </g>
                            <g transform="matrix(2.5352e-6 1 -1 2.5352e-6 4.2518 -4.8192)">
                                <rect x="3.118" y="-4.8192" width="2.835" height="9.071" fill="#303030"/>
                            </g>
                        
                    
                </g>
            
        </g>
        <g transform="translate(50.045 8.9436)">
            
                <path d="m12.298 3.082c-0.023-0.142-0.1-0.183-0.286-0.243-0.142-0.045-1.089-0.347-1.089-0.347s-0.66-0.249-1.15 0.103c-0.066 0.048-0.134 0.102-0.203 0.16 0.058-0.069 0.112-0.137 0.159-0.203 0.352-0.49 0.101-1.15 0.101-1.15s-0.303-0.947-0.349-1.089c-0.06-0.186-0.1-0.263-0.243-0.285-0.142-0.023-0.204 0.038-0.318 0.197-0.087 0.12-0.667 0.928-0.667 0.928s-0.441 0.551-0.257 1.126c0.025 0.077 0.055 0.159 0.089 0.242-0.048-0.076-0.096-0.149-0.144-0.214-0.358-0.486-1.062-0.452-1.062-0.452s-0.995-4e-3 -1.143-4e-3c-0.195 0-0.281 0.014-0.347 0.143-0.065 0.128-0.027 0.206 0.089 0.364 0.088 0.12 0.677 0.921 0.677 0.921s0.388 0.59 0.991 0.592c0.081 0 0.168-3e-3 0.257-0.01-0.087 0.022-0.171 0.046-0.248 0.071-0.573 0.19-0.758 0.871-0.758 0.871s-0.31 0.944-0.357 1.085c-0.061 0.186-0.073 0.272 0.029 0.374s0.188 0.09 0.374 0.028c0.141-0.046 1.085-0.359 1.085-0.359s0.681-0.187 0.869-0.76c0.025-0.077 0.049-0.16 0.07-0.247-6e-3 0.09-9e-3 0.176-9e-3 0.257 4e-3 0.603 0.594 0.99 0.594 0.99s0.802 0.588 0.922 0.675c0.158 0.116 0.236 0.154 0.365 0.089 0.1279-0.066 0.143-0.152 0.142-0.347-1e-3 -0.149-6e-3 -1.143-6e-3 -1.143s0.033-0.705-0.454-1.062c-0.065-0.048-0.138-0.096-0.214-0.143 0.083 0.034 0.165 0.064 0.242 0.088 0.575 0.183 1.125-0.259 1.125-0.259s0.807-0.581 0.927-0.668c0.1589-0.115 0.219-0.177 0.197-0.319zm-3.425-0.732c0.108 0.017 0.162 0.248 0.12 0.515s-0.164 0.47-0.273 0.453c-0.108-0.017-0.162-0.248-0.12-0.515 0.042-0.268 0.164-0.471 0.273-0.453zm-1.389 0.709c0.05-0.098 0.286-0.078 0.527 0.045s0.397 0.302 0.347 0.399c-0.05 0.098-0.286 0.078-0.527-0.045-0.242-0.123-0.397-0.301-0.347-0.399zm0.732 1.334c-0.191 0.191-0.409 0.284-0.487 0.206-0.077-0.078 0.015-0.296 0.206-0.487 0.191-0.192 0.409-0.285 0.487-0.207s-0.014 0.296-0.206 0.488zm1.054 0.449c-0.098 0.05-0.277-0.105-0.4-0.346-0.123-0.242-0.144-0.478-0.046-0.528s0.277 0.105 0.4 0.346c0.123 0.242 0.144 0.478 0.046 0.528zm0.254-1.117c-0.267 0.042-0.498-0.011-0.516-0.119-0.017-0.109 0.186-0.231 0.453-0.274s0.498 0.011 0.515 0.119c0.018 0.109-0.185 0.231-0.452 0.274z" fill="#DCDCDC"/>
            
        </g>
    </g>
    <rect x="30.733" y="20.139" width="12.756" height="9.9213" fill="#2D2D2D"/>
</svg>
