<?xml version="1.0" encoding="UTF-8"?>
<!-- Created with Fritzing (http://www.fritzing.org/) -->
<svg width="2.5591in" height="2.2244in" version="1.2" viewBox="0 0 184.25 160.16" xmlns="http://www.w3.org/2000/svg">
 <desc>
  <referenceFile>Adafruit 2.2in PiTFT HAT_breadboard.svg</referenceFile>
 </desc>
 <desc>Fritzing breadboard generated by brd2svg</desc>
 <g id="breadboard">
  <g id="icon">
   <path d="m0 8.5039a8.5039 8.5039 0 0 1 8.5039-8.5039h167.24a8.5039 8.5039 0 0 1 8.504 8.5039v143.15a8.5039 8.5039 0 0 1-8.504 8.504h-167.24a8.5039 8.5039 0 0 1-8.5039-8.504v-143.15m5.9528 141.73a3.9685 3.9685 0 1 0 7.937 0 3.9685 3.9685 0 1 0-7.937 0zm0-138.9a3.9685 3.9685 0 1 0 7.937 0 3.9685 3.9685 0 1 0-7.937 0zm164.41 0a3.9685 3.9685 0 1 0 7.937 0 3.9685 3.9685 0 1 0-7.937 0zm0 138.9a3.9685 3.9685 0 1 0 7.937 0 3.9685 3.9685 0 1 0-7.937 0zm-44.764-48.268a1.4173 1.4173 0 1 0 2.8346 0 1.4173 1.4173 0 1 0-2.8346 0zm0-37.701a1.4173 1.4173 0 1 0 2.8346 0 1.4173 1.4173 0 1 0-2.8346 0zm-89.162-33.591a1.4173 1.4173 0 1 0 2.8346 0 1.4173 1.4173 0 1 0-2.8346 0zm0 104.88a1.4173 1.4173 0 1 0 2.8346 0 1.4173 1.4173 0 1 0-2.8346 0zm131.81 0a1.4173 1.4173 0 1 0 2.8346 0 1.4173 1.4173 0 1 0-2.8346 0zm0-104.88a1.4173 1.4173 0 1 0 2.8346 0 1.4173 1.4173 0 1 0-2.8346 0zm-163.54-8.3991a1.4173 1.4173 0 1 0 2.8346 0 1.4173 1.4173 0 1 0-2.8346 0zm7.2 0a1.4173 1.4173 0 1 0 2.8346 0 1.4173 1.4173 0 1 0-2.8346 0zm7.2 0a1.4173 1.4173 0 1 0 2.8346 0 1.4173 1.4173 0 1 0-2.8346 0zm7.2 0a1.4173 1.4173 0 1 0 2.8346 0 1.4173 1.4173 0 1 0-2.8346 0zm7.2 0a1.4173 1.4173 0 1 0 2.8346 0 1.4173 1.4173 0 1 0-2.8346 0zm7.2 0a1.4173 1.4173 0 1 0 2.8346 0 1.4173 1.4173 0 1 0-2.8346 0zm7.2 0a1.4173 1.4173 0 1 0 2.8346 0 1.4173 1.4173 0 1 0-2.8346 0zm7.2 0a1.4173 1.4173 0 1 0 2.8346 0 1.4173 1.4173 0 1 0-2.8346 0zm7.2 0a1.4173 1.4173 0 1 0 2.8346 0 1.4173 1.4173 0 1 0-2.8346 0zm7.2 0a1.4173 1.4173 0 1 0 2.8346 0 1.4173 1.4173 0 1 0-2.8346 0zm7.1996 0a1.4173 1.4173 0 1 0 2.8346 0 1.4173 1.4173 0 1 0-2.8346 0zm7.2 0a1.4173 1.4173 0 1 0 2.8346 0 1.4173 1.4173 0 1 0-2.8346 0zm7.2 0a1.4173 1.4173 0 1 0 2.8346 0 1.4173 1.4173 0 1 0-2.8346 0zm7.2 0a1.4173 1.4173 0 1 0 2.8346 0 1.4173 1.4173 0 1 0-2.8346 0zm7.1997 0a1.4173 1.4173 0 1 0 2.8346 0 1.4173 1.4173 0 1 0-2.8346 0zm7.2 0a1.4173 1.4173 0 1 0 2.8346 0 1.4173 1.4173 0 1 0-2.8346 0zm7.2 0a1.4173 1.4173 0 1 0 2.8346 0 1.4173 1.4173 0 1 0-2.8346 0zm7.2 0a1.4173 1.4173 0 1 0 2.8346 0 1.4173 1.4173 0 1 0-2.8346 0zm7.2 0a1.4173 1.4173 0 1 0 2.8346 0 1.4173 1.4173 0 1 0-2.8346 0zm7.2 0a1.4173 1.4173 0 1 0 2.8346 0 1.4173 1.4173 0 1 0-2.8346 0zm7.2 0a1.4173 1.4173 0 1 0 2.8346 0 1.4173 1.4173 0 1 0-2.8346 0zm7.2 0a1.4173 1.4173 0 1 0 2.8346 0 1.4173 1.4173 0 1 0-2.8346 0zm7.2 0a1.4173 1.4173 0 1 0 2.8346 0 1.4173 1.4173 0 1 0-2.8346 0zm7.2 0a1.4173 1.4173 0 1 0 2.8346 0 1.4173 1.4173 0 1 0-2.8346 0zm7.2 0a1.4173 1.4173 0 1 0 2.8346 0 1.4173 1.4173 0 1 0-2.8346 0zm-11.232-14.544a1.4173 1.4173 0 1 0 2.8346 0 1.4173 1.4173 0 1 0-2.8346 0zm-151.2 0a1.4173 1.4173 0 1 0 2.8346 0 1.4173 1.4173 0 1 0-2.8346 0zm1.512 148.1a1.4173 1.4173 0 1 0 2.8346 0 1.4173 1.4173 0 1 0-2.8346 0zm0-10.8a1.4173 1.4173 0 1 0 2.8346 0 1.4173 1.4173 0 1 0-2.8346 0zm5.8677-130.1a1.2756 1.2756 0 1 0 2.5512 0 1.2756 1.2756 0 1 0-2.5512 0zm0-7.2a1.2756 1.2756 0 1 0 2.5512 0 1.2756 1.2756 0 1 0-2.5512 0zm7.2 7.2a1.2756 1.2756 0 1 0 2.5512 0 1.2756 1.2756 0 1 0-2.5512 0zm0-7.2a1.2756 1.2756 0 1 0 2.5512 0 1.2756 1.2756 0 1 0-2.5512 0zm7.2 7.2a1.2756 1.2756 0 1 0 2.5512 0 1.2756 1.2756 0 1 0-2.5512 0zm0-7.2a1.2756 1.2756 0 1 0 2.5512 0 1.2756 1.2756 0 1 0-2.5512 0zm7.2 7.2a1.2756 1.2756 0 1 0 2.5512 0 1.2756 1.2756 0 1 0-2.5512 0zm0-7.2a1.2756 1.2756 0 1 0 2.5512 0 1.2756 1.2756 0 1 0-2.5512 0zm7.2 7.2a1.2756 1.2756 0 1 0 2.5512 0 1.2756 1.2756 0 1 0-2.5512 0zm0-7.2a1.2756 1.2756 0 1 0 2.5512 0 1.2756 1.2756 0 1 0-2.5512 0zm7.2 7.2a1.2756 1.2756 0 1 0 2.5512 0 1.2756 1.2756 0 1 0-2.5512 0zm0-7.2a1.2756 1.2756 0 1 0 2.5512 0 1.2756 1.2756 0 1 0-2.5512 0zm7.2 7.2a1.2756 1.2756 0 1 0 2.5512 0 1.2756 1.2756 0 1 0-2.5512 0zm0-7.2a1.2756 1.2756 0 1 0 2.5512 0 1.2756 1.2756 0 1 0-2.5512 0zm7.1999 7.2a1.2756 1.2756 0 1 0 2.5512 0 1.2756 1.2756 0 1 0-2.5512 0zm0-7.2a1.2756 1.2756 0 1 0 2.5512 0 1.2756 1.2756 0 1 0-2.5512 0zm7.2 7.2a1.2756 1.2756 0 1 0 2.5512 0 1.2756 1.2756 0 1 0-2.5512 0zm0-7.2a1.2756 1.2756 0 1 0 2.5512 0 1.2756 1.2756 0 1 0-2.5512 0zm7.2 7.2a1.2756 1.2756 0 1 0 2.5512 0 1.2756 1.2756 0 1 0-2.5512 0zm0-7.2a1.2756 1.2756 0 1 0 2.5512 0 1.2756 1.2756 0 1 0-2.5512 0zm7.2 7.2a1.2756 1.2756 0 1 0 2.5512 0 1.2756 1.2756 0 1 0-2.5512 0zm0-7.2a1.2756 1.2756 0 1 0 2.5512 0 1.2756 1.2756 0 1 0-2.5512 0zm7.1997 7.2a1.2756 1.2756 0 1 0 2.5512 0 1.2756 1.2756 0 1 0-2.5512 0zm0-7.2a1.2756 1.2756 0 1 0 2.5512 0 1.2756 1.2756 0 1 0-2.5512 0zm7.2 7.2a1.2756 1.2756 0 1 0 2.5512 0 1.2756 1.2756 0 1 0-2.5512 0zm0-7.2a1.2756 1.2756 0 1 0 2.5512 0 1.2756 1.2756 0 1 0-2.5512 0zm7.2 7.2a1.2756 1.2756 0 1 0 2.5512 0 1.2756 1.2756 0 1 0-2.5512 0zm0-7.2a1.2756 1.2756 0 1 0 2.5512 0 1.2756 1.2756 0 1 0-2.5512 0zm7.2 7.2a1.2756 1.2756 0 1 0 2.5512 0 1.2756 1.2756 0 1 0-2.5512 0zm0-7.2a1.2756 1.2756 0 1 0 2.5512 0 1.2756 1.2756 0 1 0-2.5512 0zm7.2 7.2a1.2756 1.2756 0 1 0 2.5512 0 1.2756 1.2756 0 1 0-2.5512 0zm0-7.2a1.2756 1.2756 0 1 0 2.5512 0 1.2756 1.2756 0 1 0-2.5512 0zm7.2 7.2a1.2756 1.2756 0 1 0 2.5512 0 1.2756 1.2756 0 1 0-2.5512 0zm0-7.2a1.2756 1.2756 0 1 0 2.5512 0 1.2756 1.2756 0 1 0-2.5512 0zm7.2 7.2a1.2756 1.2756 0 1 0 2.5512 0 1.2756 1.2756 0 1 0-2.5512 0zm0-7.2a1.2756 1.2756 0 1 0 2.5512 0 1.2756 1.2756 0 1 0-2.5512 0zm7.2 7.2a1.2756 1.2756 0 1 0 2.5512 0 1.2756 1.2756 0 1 0-2.5512 0zm0-7.2a1.2756 1.2756 0 1 0 2.5512 0 1.2756 1.2756 0 1 0-2.5512 0zm7.2 7.2a1.2756 1.2756 0 1 0 2.5512 0 1.2756 1.2756 0 1 0-2.5512 0zm0-7.2a1.2756 1.2756 0 1 0 2.5512 0 1.2756 1.2756 0 1 0-2.5512 0z" fill="#014cb1" stroke-width="0"/>
   <g>
    <title>layer 21</title>
    <g>
     <title>text:#22</title>
     <text x="56.16" y="152.238" fill="#ffffff" font-family="OCRA" font-size="4.176" stroke-width="0">#22</text>
    </g>
    <g>
     <title>text:#17</title>
     <text x="20.16" y="152.238" fill="#ffffff" font-family="OCRA" font-size="4.176" stroke-width="0">#17</text>
    </g>
    <g>
     <title>text:#23</title>
     <text x="92.52" y="152.238" fill="#ffffff" font-family="OCRA" font-size="4.176" stroke-width="0">#23</text>
    </g>
    <g>
     <title>text:#27</title>
     <text x="128.52" y="152.238" fill="#ffffff" font-family="OCRA" font-size="4.176" stroke-width="0">#27</text>
    </g>
    <g>
     <title>text:SDA</title>
     <text x="6.12" y="19.6538" fill="#ffffff" font-family="OCRA" font-size="2.6726" stroke-width="0" text-anchor="middle">SDA</text>
    </g>
    <g>
     <title>text:SCL</title>
     <text x="13.68" y="19.6538" fill="#ffffff" font-family="OCRA" font-size="2.6726" stroke-width="0" text-anchor="middle">SCL</text>
    </g>
    <g>
     <title>text:TX</title>
     <text x="20.88" y="19.6538" fill="#ffffff" font-family="OCRA" font-size="2.6726" stroke-width="0" text-anchor="middle">TX</text>
    </g>
    <g>
     <title>text:RX</title>
     <text x="27.72" y="19.6538" fill="#ffffff" font-family="OCRA" font-size="2.6726" stroke-width="0" text-anchor="middle">RX</text>
    </g>
    <g>
     <title>text:#4</title>
     <text x="34.56" y="19.6538" fill="#ffffff" font-family="OCRA" font-size="2.6726" stroke-width="0" text-anchor="middle">#4</text>
    </g>
    <g>
     <title>text:17</title>
     <text x="42.12" y="19.6538" fill="#ffffff" font-family="OCRA" font-size="2.6726" stroke-width="0" text-anchor="middle">17</text>
    </g>
    <g>
     <title>text:18</title>
     <text x="49.32" y="19.6538" fill="#ffffff" font-family="OCRA" font-size="2.6726" stroke-width="0" text-anchor="middle">18</text>
    </g>
    <g>
     <title>text:27</title>
     <text x="56.52" y="19.6538" fill="#ffffff" font-family="OCRA" font-size="2.6726" stroke-width="0" text-anchor="middle">27</text>
    </g>
    <g>
     <title>text:22</title>
     <text x="63.72" y="19.6538" fill="#ffffff" font-family="OCRA" font-size="2.6726" stroke-width="0" text-anchor="middle">22</text>
    </g>
    <g>
     <title>text:23</title>
     <text x="70.92" y="19.6538" fill="#ffffff" font-family="OCRA" font-size="2.6726" stroke-width="0" text-anchor="middle">23</text>
    </g>
    <g>
     <title>text:24</title>
     <text x="78.12" y="19.6538" fill="#ffffff" font-family="OCRA" font-size="2.6726" stroke-width="0" text-anchor="middle">24</text>
    </g>
    <g>
     <title>text:25</title>
     <text x="85.32" y="19.6538" fill="#ffffff" font-family="OCRA" font-size="2.6726" stroke-width="0" text-anchor="middle">25</text>
    </g>
    <g>
     <title>text:MO</title>
     <text x="92.52" y="19.6538" fill="#ffffff" font-family="OCRA" font-size="2.6726" stroke-width="0" text-anchor="middle">MO</text>
    </g>
    <g>
     <title>text:MI</title>
     <text x="100.08" y="19.6538" fill="#ffffff" font-family="OCRA" font-size="2.6726" stroke-width="0" text-anchor="middle">MI</text>
    </g>
    <g>
     <title>text:CK</title>
     <text x="107.28" y="19.6538" fill="#ffffff" font-family="OCRA" font-size="2.6726" stroke-width="0" text-anchor="middle">CK</text>
    </g>
    <g>
     <title>text:C0</title>
     <text x="114.12" y="19.6538" fill="#ffffff" font-family="OCRA" font-size="2.6726" stroke-width="0" text-anchor="middle">C0</text>
    </g>
    <g>
     <title>text:C1</title>
     <text x="121.32" y="19.2938" fill="#ffffff" font-family="OCRA" font-size="2.6726" stroke-width="0" text-anchor="middle">C1</text>
    </g>
    <g>
     <title>text:#5</title>
     <text x="128.16" y="19.6538" fill="#ffffff" font-family="OCRA" font-size="2.6726" stroke-width="0" text-anchor="middle">#5</text>
    </g>
    <g>
     <title>text:#6</title>
     <text x="135.72" y="19.6538" fill="#ffffff" font-family="OCRA" font-size="2.6726" stroke-width="0" text-anchor="middle">#6</text>
    </g>
    <g>
     <title>text:12</title>
     <text x="142.92" y="19.6538" fill="#ffffff" font-family="OCRA" font-size="2.6726" stroke-width="0" text-anchor="middle">12</text>
    </g>
    <g>
     <title>text:13</title>
     <text x="150.12" y="19.6538" fill="#ffffff" font-family="OCRA" font-size="2.6726" stroke-width="0" text-anchor="middle">13</text>
    </g>
    <g>
     <title>text:16</title>
     <text x="157.32" y="19.6538" fill="#ffffff" font-family="OCRA" font-size="2.6726" stroke-width="0" text-anchor="middle">16</text>
    </g>
    <g>
     <title>text:19</title>
     <text x="164.52" y="19.6538" fill="#ffffff" font-family="OCRA" font-size="2.6726" stroke-width="0" text-anchor="middle">19</text>
    </g>
    <g>
     <title>text:20</title>
     <text x="172.08" y="19.6538" fill="#ffffff" font-family="OCRA" font-size="2.6726" stroke-width="0" text-anchor="middle">20</text>
    </g>
    <g>
     <title>text:21</title>
     <text x="179.28" y="19.2938" fill="#ffffff" font-family="OCRA" font-size="2.6726" stroke-width="0" text-anchor="middle">21</text>
    </g>
    <g>
     <title>text:Adafruit PiTFT 2.2" (240x320) HAT</title>
     <g transform="translate(183.24 123.44)">
      <g transform="rotate(270)">
       <text fill="#ffffff" font-family="OCRA" font-size="3.3408" stroke-width="0">Adafruit PiTFT 2.2" (240x320) HAT</text>
      </g>
     </g>
    </g>
    <g>
     <title>text:5v0</title>
     <text x="16.488" y="5.0378" fill="#ffffff" font-family="OCRA" font-size="2.6726" stroke-width="0" text-anchor="middle">5v0</text>
    </g>
    <g>
     <title>text:GND</title>
     <text x="167.76" y="4.8938" fill="#ffffff" font-family="OCRA" font-size="2.6726" stroke-width="0" text-anchor="middle">GND</text>
    </g>
    <g>
     <title>text:3v3</title>
     <g transform="translate(20.992 139.21)">
      <g transform="rotate(270)">
       <text fill="#ffffff" font-family="OCRA" font-size="2.6726" stroke-width="0" text-anchor="middle">3v3</text>
      </g>
     </g>
    </g>
    <g>
     <title>text:GND</title>
     <text x="11.88" y="157.534" fill="#ffffff" font-family="OCRA" font-size="2.6726" stroke-width="0" text-anchor="middle">GND</text>
    </g>
    <g>
     <title>element:CONN1</title>
     <g>
      <title>package:1X25_ROUND_70MIL</title>
     </g>
    </g>
    <g>
     <title>element:FID1</title>
     <g>
      <title>package:FIDUCIAL_1MM</title>
     </g>
    </g>
    <g>
     <title>element:FID2</title>
     <g>
      <title>package:FIDUCIAL_1MM</title>
     </g>
    </g>
    <g>
     <title>element:FID3</title>
     <g>
      <title>package:FIDUCIAL_1MM</title>
     </g>
    </g>
    <g>
     <title>element:IC5</title>
     <g>
      <title>package:SOT23</title>
     </g>
    </g>
    <g>
     <title>element:JP1</title>
     <g>
      <title>package:1X01_ROUND</title>
     </g>
    </g>
    <g>
     <title>element:JP2</title>
     <g>
      <title>package:1X01_ROUND</title>
     </g>
    </g>
    <g>
     <title>element:JP3</title>
     <g>
      <title>package:1X01_ROUND</title>
     </g>
    </g>
    <g>
     <title>element:JP4</title>
     <g>
      <title>package:1X01_ROUND</title>
     </g>
    </g>
    <g>
     <title>element:Q1</title>
     <g>
      <title>package:SOT23-BEC</title>
     </g>
    </g>
    <g>
     <title>element:R1</title>
     <g>
      <title>package:0805-NO</title>
      <line x1="15.12" x2="18" y1="33.437" y2="33.437" stroke="#fff" stroke-linecap="round" stroke-width=".864"/>
     </g>
    </g>
    <g>
     <title>element:R2</title>
     <g>
      <title>package:0805-NO</title>
      <line x1="9.72" x2="12.6" y1="33.437" y2="33.437" stroke="#fff" stroke-linecap="round" stroke-width=".864"/>
     </g>
    </g>
    <g>
     <title>element:R3</title>
     <g>
      <title>package:0805-NO</title>
      <line x1="6.12" x2="3.24" y1="33.437" y2="33.437" stroke="#fff" stroke-linecap="round" stroke-width=".864"/>
     </g>
    </g>
    <g>
     <title>element:R4</title>
     <g>
      <title>package:0805-NO</title>
      <line x1="9.36" x2="9.36" y1="104.72" y2="101.84" stroke="#fff" stroke-linecap="round" stroke-width=".864"/>
     </g>
    </g>
    <g>
     <title>element:R5</title>
     <g>
      <title>package:0805-NO</title>
      <line x1="9.36" x2="9.36" y1="98.958" y2="96.078" stroke="#fff" stroke-linecap="round" stroke-width=".864"/>
     </g>
    </g>
    <g>
     <title>element:R6</title>
     <g>
      <title>package:0805-NO</title>
      <line x1="6.48" x2="3.6" y1="112.64" y2="112.64" stroke="#fff" stroke-linecap="round" stroke-width=".864"/>
     </g>
    </g>
    <g>
     <title>element:R7</title>
     <g>
      <title>package:0805-NO</title>
      <line x1="9.36" x2="9.36" y1="87.438" y2="84.558" stroke="#fff" stroke-linecap="round" stroke-width=".864"/>
     </g>
    </g>
    <g>
     <title>element:R8</title>
     <g>
      <title>package:0805-NO</title>
      <line x1="9.36" x2="9.36" y1="93.198" y2="90.318" stroke="#fff" stroke-linecap="round" stroke-width=".864"/>
     </g>
    </g>
    <g>
     <title>element:R9</title>
     <g>
      <title>package:0805-NO</title>
      <line x1="7.92" x2="5.04" y1="67.637" y2="67.637" stroke="#fff" stroke-linecap="round" stroke-width=".864"/>
     </g>
    </g>
    <g>
     <title>element:R10</title>
     <g>
      <title>package:0805-NO</title>
      <line x1="13.68" x2="10.8" y1="67.637" y2="67.637" stroke="#fff" stroke-linecap="round" stroke-width=".864"/>
     </g>
    </g>
    <g>
     <title>element:RPI1</title>
     <g>
      <title>package:PI_HAT_NOSLOTS</title>
     </g>
    </g>
    <g>
     <title>element:SJ1</title>
     <g>
      <title>package:SOLDERJUMPER_CLOSEDWIRE</title>
     </g>
    </g>
    <g>
     <title>element:SJ2</title>
     <g>
      <title>package:SOLDERJUMPER_CLOSEDWIRE</title>
     </g>
    </g>
    <g>
     <title>element:SW1</title>
     <g>
      <title>package:EVQ-Q2</title>
      <line x1="138.61" x2="157.31" y1="141.93" y2="141.93" stroke="#fff" stroke-linecap="round" stroke-width=".36"/>
      <line x1="157.31" x2="157.31" y1="141.93" y2="158.94" stroke="#fff" stroke-linecap="round" stroke-width=".36"/>
      <line x1="157.31" x2="138.61" y1="158.94" y2="158.94" stroke="#fff" stroke-linecap="round" stroke-width=".36"/>
      <line x1="138.61" x2="138.61" y1="158.94" y2="141.93" stroke="#fff" stroke-linecap="round" stroke-width=".36"/>
      <circle cx="147.96" cy="150.44" r="4.2613" fill="none" stroke="#fff" stroke-width=".36"/>
      <circle cx="147.96" cy="150.44" r="2.8346" fill="none" stroke="#fff" stroke-width=".36"/>
     </g>
    </g>
    <g>
     <title>element:SW2</title>
     <g>
      <title>package:EVQ-Q2</title>
      <line x1="102.25" x2="120.95" y1="141.93" y2="141.93" stroke="#fff" stroke-linecap="round" stroke-width=".36"/>
      <line x1="120.95" x2="120.95" y1="141.93" y2="158.94" stroke="#fff" stroke-linecap="round" stroke-width=".36"/>
      <line x1="120.95" x2="102.25" y1="158.94" y2="158.94" stroke="#fff" stroke-linecap="round" stroke-width=".36"/>
      <line x1="102.25" x2="102.25" y1="158.94" y2="141.93" stroke="#fff" stroke-linecap="round" stroke-width=".36"/>
      <circle cx="111.6" cy="150.44" r="4.2613" fill="none" stroke="#fff" stroke-width=".36"/>
      <circle cx="111.6" cy="150.44" r="2.8346" fill="none" stroke="#fff" stroke-width=".36"/>
     </g>
    </g>
    <g>
     <title>element:SW3</title>
     <g>
      <title>package:EVQ-Q2</title>
      <line x1="66.246" x2="84.954" y1="141.93" y2="141.93" stroke="#fff" stroke-linecap="round" stroke-width=".36"/>
      <line x1="84.954" x2="84.954" y1="141.93" y2="158.94" stroke="#fff" stroke-linecap="round" stroke-width=".36"/>
      <line x1="84.954" x2="66.246" y1="158.94" y2="158.94" stroke="#fff" stroke-linecap="round" stroke-width=".36"/>
      <line x1="66.246" x2="66.246" y1="158.94" y2="141.93" stroke="#fff" stroke-linecap="round" stroke-width=".36"/>
      <circle cx="75.6" cy="150.44" r="4.2613" fill="none" stroke="#fff" stroke-width=".36"/>
      <circle cx="75.6" cy="150.44" r="2.8346" fill="none" stroke="#fff" stroke-width=".36"/>
     </g>
    </g>
    <g>
     <title>element:SW4</title>
     <g>
      <title>package:EVQ-Q2</title>
      <line x1="30.246" x2="48.954" y1="141.93" y2="141.93" stroke="#fff" stroke-linecap="round" stroke-width=".36"/>
      <line x1="48.954" x2="48.954" y1="141.93" y2="158.94" stroke="#fff" stroke-linecap="round" stroke-width=".36"/>
      <line x1="48.954" x2="30.246" y1="158.94" y2="158.94" stroke="#fff" stroke-linecap="round" stroke-width=".36"/>
      <line x1="30.246" x2="30.246" y1="158.94" y2="141.93" stroke="#fff" stroke-linecap="round" stroke-width=".36"/>
      <circle cx="39.6" cy="150.44" r="4.2613" fill="none" stroke="#fff" stroke-width=".36"/>
      <circle cx="39.6" cy="150.44" r="2.8346" fill="none" stroke="#fff" stroke-width=".36"/>
     </g>
    </g>
    <g>
     <title>element:U$1</title>
     <g>
      <title>package:ADAFRUIT_5MM</title>
     </g>
    </g>
    <g>
     <title>element:U$3</title>
     <g>
      <title>package:ADAFRUIT_TEXT_20MM</title>
     </g>
    </g>
    <g>
     <title>element:U$4</title>
     <g>
      <title>package:PIHATLOGO</title>
     </g>
    </g>
    <g>
     <title>element:U$12</title>
     <g>
      <title>package:PCBFEAT-REV-056</title>
     </g>
    </g>
    <g>
     <title>element:U1</title>
     <g>
      <title>package:SOIC8_150MIL</title>
      <line x1="3.2768" x2="3.2768" y1="55.743" y2="44.972" stroke="#fff" stroke-linecap="round" stroke-width=".576"/>
      <line x1="16.883" x2="16.883" y1="44.972" y2="55.743" stroke="#fff" stroke-linecap="round" stroke-width=".576"/>
      <circle cx="4.608" cy="52.877" r=".72" fill="none" stroke="#fff" stroke-width=".576"/>
     </g>
    </g>
    <g>
     <title>element:U2</title>
     <g>
      <title>package:TM022HDH26_2.2IN_LCD</title>
      <line x1="21.413" x2="21.413" y1="140.52" y2="25.716" stroke="#fff" stroke-linecap="round" stroke-width=".36"/>
      <line x1="179.02" x2="21.413" y1="140.52" y2="140.52" stroke="#fff" stroke-linecap="round" stroke-width=".36"/>
      <line x1="21.413" x2="179.02" y1="25.716" y2="25.716" stroke="#fff" stroke-linecap="round" stroke-width=".36"/>
      <line x1="179.02" x2="179.02" y1="25.716" y2="140.52" stroke="#fff" stroke-linecap="round" stroke-width=".36"/>
     </g>
    </g>
   </g>
   <circle id="connector0pin" cx="6.12" cy="22.277" r="1.8967" fill="none" stroke="#9A916C" stroke-width=".95868" connectorname="SDA"/>
   <circle id="connector1pin" cx="13.32" cy="22.277" r="1.8967" fill="none" stroke="#9A916C" stroke-width=".95868" connectorname="SCL"/>
   <circle id="connector2pin" cx="20.52" cy="22.277" r="1.8967" fill="none" stroke="#9A916C" stroke-width=".95868" connectorname="TXD"/>
   <circle id="connector3pin" cx="27.72" cy="22.277" r="1.8967" fill="none" stroke="#9A916C" stroke-width=".95868" connectorname="RXD"/>
   <circle id="connector4pin" cx="34.92" cy="22.277" r="1.8967" fill="none" stroke="#9A916C" stroke-width=".95868" connectorname="GPIO4"/>
   <circle id="connector5pin" cx="42.12" cy="22.277" r="1.8967" fill="none" stroke="#9A916C" stroke-width=".95868" connectorname="GPIO17"/>
   <circle id="connector6pin" cx="49.32" cy="22.277" r="1.8967" fill="none" stroke="#9A916C" stroke-width=".95868" connectorname="GPIO18"/>
   <circle id="connector7pin" cx="56.52" cy="22.277" r="1.8967" fill="none" stroke="#9A916C" stroke-width=".95868" connectorname="GPIO27"/>
   <circle id="connector8pin" cx="63.72" cy="22.277" r="1.8967" fill="none" stroke="#9A916C" stroke-width=".95868" connectorname="GPIO22"/>
   <circle id="connector9pin" cx="70.92" cy="22.277" r="1.8967" fill="none" stroke="#9A916C" stroke-width=".95868" connectorname="GPIO23"/>
   <circle id="connector10pin" cx="78.12" cy="22.277" r="1.8967" fill="none" stroke="#9A916C" stroke-width=".95868" connectorname="GPIO24"/>
   <circle id="connector11pin" cx="85.32" cy="22.277" r="1.8967" fill="none" stroke="#9A916C" stroke-width=".95868" connectorname="TFT_DC"/>
   <circle id="connector12pin" cx="92.52" cy="22.277" r="1.8967" fill="none" stroke="#9A916C" stroke-width=".95868" connectorname="SPI_MOSI"/>
   <circle id="connector13pin" cx="99.72" cy="22.277" r="1.8967" fill="none" stroke="#9A916C" stroke-width=".95868" connectorname="SPI_MISO"/>
   <circle id="connector14pin" cx="106.92" cy="22.277" r="1.8967" fill="none" stroke="#9A916C" stroke-width=".95868" connectorname="SPI_SCLK"/>
   <circle id="connector15pin" cx="114.12" cy="22.277" r="1.8967" fill="none" stroke="#9A916C" stroke-width=".95868" connectorname="SPI_CE0"/>
   <circle id="connector16pin" cx="121.32" cy="22.277" r="1.8967" fill="none" stroke="#9A916C" stroke-width=".95868" connectorname="SPI_CE1"/>
   <circle id="connector17pin" cx="128.52" cy="22.277" r="1.8967" fill="none" stroke="#9A916C" stroke-width=".95868" connectorname="GPIO5"/>
   <circle id="connector18pin" cx="135.72" cy="22.277" r="1.8967" fill="none" stroke="#9A916C" stroke-width=".95868" connectorname="GPIO6"/>
   <circle id="connector19pin" cx="142.92" cy="22.277" r="1.8967" fill="none" stroke="#9A916C" stroke-width=".95868" connectorname="GPIO12"/>
   <circle id="connector20pin" cx="150.12" cy="22.277" r="1.8967" fill="none" stroke="#9A916C" stroke-width=".95868" connectorname="GPIO13"/>
   <circle id="connector21pin" cx="157.32" cy="22.277" r="1.8967" fill="none" stroke="#9A916C" stroke-width=".95868" connectorname="GPIO16"/>
   <circle id="connector22pin" cx="164.52" cy="22.277" r="1.8967" fill="none" stroke="#9A916C" stroke-width=".95868" connectorname="GPIO19"/>
   <circle id="connector23pin" cx="171.72" cy="22.277" r="1.8967" fill="none" stroke="#9A916C" stroke-width=".95868" connectorname="GPIO20"/>
   <circle id="connector24pin" cx="178.92" cy="22.277" r="1.8967" fill="none" stroke="#9A916C" stroke-width=".95868" connectorname="GPIO21"/>
   <rect id="connector25pin" x="24.503" y="134.62" width="2.8346" height="2.8346" rx="1.4173" ry="1.4173" fill="#9A916C" stroke-width="0"/>
   <rect id="connector26pin" x="24.503" y="30.58" width="2.8346" height="2.8346" rx="1.4173" ry="1.4173" fill="#9A916C" stroke-width="0"/>
   <rect id="connector27pin" x="173.54" y="134.62" width="2.8346" height="2.8346" rx="1.4173" ry="1.4173" fill="#9A916C" stroke-width="0"/>
   <g transform="matrix(-1 0 0 -1 32.746 220.48)">
    <rect id="connector28pin" x="14.956" y="108.26" width="2.8346" height="3.9685" fill="#9A916C" stroke-width="0"/>
   </g>
   <g transform="matrix(-1 0 0 -1 21.974 220.48)">
    <rect id="connector29pin" x="9.5697" y="108.26" width="2.8346" height="3.9685" fill="#9A916C" stroke-width="0"/>
   </g>
   <g transform="matrix(-1 0 0 -1 27.36 232.95)">
    <rect id="connector30pin" x="12.263" y="114.49" width="2.8346" height="3.9685" fill="#9A916C" stroke-width="0"/>
   </g>
   <circle id="connector31pin" cx="167.69" cy="7.7334" r="1.8967" fill="none" stroke="#9A916C" stroke-width=".95868" connectorname="GND"/>
   <circle id="connector32pin" cx="16.488" cy="7.7334" r="1.8967" fill="none" stroke="#9A916C" stroke-width=".95868" connectorname="5.0V"/>
   <circle id="connector33pin" cx="18" cy="155.84" r="1.8967" fill="none" stroke="#9A916C" stroke-width=".95868" connectorname="GND"/>
   <circle id="connector34pin" cx="18" cy="145.04" r="1.8967" fill="none" stroke="#9A916C" stroke-width=".95868" connectorname="3.3V"/>
   <g transform="matrix(0 1 -1 0 81.266 70.223)">
    <rect id="connector35pin" x="4.1046" y="73.76" width="2.8346" height="3.9685" fill="#9A916C" stroke-width="0"/>
   </g>
   <g transform="matrix(0 1 -1 0 90.196 66.679)">
    <rect id="connector36pin" x="10.341" y="76.453" width="2.8346" height="3.9685" fill="#9A916C" stroke-width="0"/>
   </g>
   <g transform="matrix(0 1 -1 0 86.652 75.609)">
    <rect id="connector37pin" x="4.1046" y="79.146" width="2.8346" height="3.9685" fill="#9A916C" stroke-width="0"/>
   </g>
   <g transform="matrix(0 -1 1 0 -19.57 52.69)">
    <rect id="connector38pin" x="14.717" y="34.004" width="3.685" height="4.252" fill="#9A916C" stroke-width="0"/>
   </g>
   <g transform="matrix(0 -1 1 0 -14.185 47.305)">
    <rect id="connector39pin" x="14.717" y="28.619" width="3.685" height="4.252" fill="#9A916C" stroke-width="0"/>
   </g>
   <g transform="matrix(0 -1 1 0 -24.97 47.29)">
    <rect id="connector40pin" x="9.3174" y="34.004" width="3.685" height="4.252" fill="#9A916C" stroke-width="0"/>
   </g>
   <g transform="matrix(0 -1 1 0 -19.585 41.905)">
    <rect id="connector41pin" x="9.3174" y="28.619" width="3.685" height="4.252" fill="#9A916C" stroke-width="0"/>
   </g>
   <g transform="matrix(0 1 -1 0 35.425 26.065)">
    <rect id="connector42pin" x="2.8375" y="28.619" width="3.685" height="4.252" fill="#9A916C" stroke-width="0"/>
   </g>
   <g transform="matrix(0 1 -1 0 40.81 31.45)">
    <rect id="connector43pin" x="2.8375" y="34.004" width="3.685" height="4.252" fill="#9A916C" stroke-width="0"/>
   </g>
   <g transform="matrix(-1 0 0 -1 24.106 206.56)">
    <rect id="connector44pin" x="10.21" y="101.15" width="3.685" height="4.252" fill="#9A916C" stroke-width="0"/>
   </g>
   <g transform="matrix(-1 0 0 -1 13.334 206.56)">
    <rect id="connector45pin" x="4.8246" y="101.15" width="3.685" height="4.252" fill="#9A916C" stroke-width="0"/>
   </g>
   <g transform="matrix(-1 0 0 -1 24.106 195.04)">
    <rect id="connector46pin" x="10.21" y="95.391" width="3.685" height="4.252" fill="#9A916C" stroke-width="0"/>
   </g>
   <g transform="matrix(-1 0 0 -1 13.334 195.04)">
    <rect id="connector47pin" x="4.8246" y="95.391" width="3.685" height="4.252" fill="#9A916C" stroke-width="0"/>
   </g>
   <g transform="matrix(0 1 -1 0 114.98 104.9)">
    <rect id="connector48pin" x="3.1975" y="107.82" width="3.685" height="4.252" fill="#9A916C" stroke-width="0"/>
   </g>
   <g transform="matrix(0 1 -1 0 120.37 110.29)">
    <rect id="connector49pin" x="3.1975" y="113.2" width="3.685" height="4.252" fill="#9A916C" stroke-width="0"/>
   </g>
   <g transform="matrix(-1 0 0 -1 24.106 172)">
    <rect id="connector50pin" x="10.21" y="83.871" width="3.685" height="4.252" fill="#9A916C" stroke-width="0"/>
   </g>
   <g transform="matrix(-1 0 0 -1 13.334 172)">
    <rect id="connector51pin" x="4.8246" y="83.871" width="3.685" height="4.252" fill="#9A916C" stroke-width="0"/>
   </g>
   <g transform="matrix(-1 0 0 -1 24.106 183.52)">
    <rect id="connector52pin" x="10.21" y="89.631" width="3.685" height="4.252" fill="#9A916C" stroke-width="0"/>
   </g>
   <g transform="matrix(-1 0 0 -1 13.334 183.52)">
    <rect id="connector53pin" x="4.8246" y="89.631" width="3.685" height="4.252" fill="#9A916C" stroke-width="0"/>
   </g>
   <g transform="matrix(0 1 -1 0 71.425 58.465)">
    <rect id="connector54pin" x="4.6375" y="62.819" width="3.685" height="4.252" fill="#9A916C" stroke-width="0"/>
   </g>
   <g transform="matrix(0 1 -1 0 76.81 63.85)">
    <rect id="connector55pin" x="4.6375" y="68.204" width="3.685" height="4.252" fill="#9A916C" stroke-width="0"/>
   </g>
   <g transform="matrix(0 1 -1 0 77.185 52.705)">
    <rect id="connector56pin" x="10.397" y="62.819" width="3.685" height="4.252" fill="#9A916C" stroke-width="0"/>
   </g>
   <g transform="matrix(0 1 -1 0 82.57 58.09)">
    <rect id="connector57pin" x="10.397" y="68.204" width="3.685" height="4.252" fill="#9A916C" stroke-width="0"/>
   </g>
   <circle id="connector58pin" cx="23.726" cy="14.939" r="1.8258" fill="none" stroke="#9A916C" stroke-width="1.1004" connectorname="3.3V"/>
   <circle id="connector59pin" cx="23.726" cy="7.7386" r="1.8258" fill="none" stroke="#9A916C" stroke-width="1.1004" connectorname="5.0V"/>
   <circle id="connector60pin" cx="30.926" cy="14.939" r="1.8258" fill="none" stroke="#9A916C" stroke-width="1.1004" connectorname="SDA"/>
   <circle id="connector61pin" cx="30.926" cy="7.7386" r="1.8258" fill="none" stroke="#9A916C" stroke-width="1.1004" connectorname="5.0V"/>
   <circle id="connector62pin" cx="38.126" cy="14.939" r="1.8258" fill="none" stroke="#9A916C" stroke-width="1.1004" connectorname="SCL"/>
   <circle id="connector63pin" cx="38.126" cy="7.7386" r="1.8258" fill="none" stroke="#9A916C" stroke-width="1.1004" connectorname="GND"/>
   <circle id="connector64pin" cx="45.326" cy="14.939" r="1.8258" fill="none" stroke="#9A916C" stroke-width="1.1004" connectorname="GPIO4"/>
   <circle id="connector65pin" cx="45.326" cy="7.7386" r="1.8258" fill="none" stroke="#9A916C" stroke-width="1.1004" connectorname="TXD"/>
   <circle id="connector66pin" cx="52.526" cy="14.939" r="1.8258" fill="none" stroke="#9A916C" stroke-width="1.1004" connectorname="GND"/>
   <circle id="connector67pin" cx="52.526" cy="7.7386" r="1.8258" fill="none" stroke="#9A916C" stroke-width="1.1004" connectorname="RXD"/>
   <circle id="connector68pin" cx="59.726" cy="14.939" r="1.8258" fill="none" stroke="#9A916C" stroke-width="1.1004" connectorname="GPIO17"/>
   <circle id="connector69pin" cx="59.726" cy="7.7386" r="1.8258" fill="none" stroke="#9A916C" stroke-width="1.1004" connectorname="GPIO18"/>
   <circle id="connector70pin" cx="66.926" cy="14.939" r="1.8258" fill="none" stroke="#9A916C" stroke-width="1.1004" connectorname="GPIO27"/>
   <circle id="connector71pin" cx="66.926" cy="7.7386" r="1.8258" fill="none" stroke="#9A916C" stroke-width="1.1004" connectorname="GND"/>
   <circle id="connector72pin" cx="74.126" cy="14.939" r="1.8258" fill="none" stroke="#9A916C" stroke-width="1.1004" connectorname="GPIO22"/>
   <circle id="connector73pin" cx="74.126" cy="7.7386" r="1.8258" fill="none" stroke="#9A916C" stroke-width="1.1004" connectorname="GPIO23"/>
   <circle id="connector74pin" cx="81.326" cy="14.939" r="1.8258" fill="none" stroke="#9A916C" stroke-width="1.1004" connectorname="3.3V"/>
   <circle id="connector75pin" cx="81.326" cy="7.7386" r="1.8258" fill="none" stroke="#9A916C" stroke-width="1.1004" connectorname="GPIO24"/>
   <circle id="connector76pin" cx="88.526" cy="14.939" r="1.8258" fill="none" stroke="#9A916C" stroke-width="1.1004" connectorname="SPI_MOSI"/>
   <circle id="connector77pin" cx="88.526" cy="7.7386" r="1.8258" fill="none" stroke="#9A916C" stroke-width="1.1004" connectorname="GND"/>
   <circle id="connector78pin" cx="95.726" cy="14.939" r="1.8258" fill="none" stroke="#9A916C" stroke-width="1.1004" connectorname="SPI_MISO"/>
   <circle id="connector79pin" cx="95.726" cy="7.7386" r="1.8258" fill="none" stroke="#9A916C" stroke-width="1.1004" connectorname="TFT_DC"/>
   <circle id="connector80pin" cx="102.93" cy="14.939" r="1.8258" fill="none" stroke="#9A916C" stroke-width="1.1004" connectorname="SPI_SCLK"/>
   <circle id="connector81pin" cx="102.93" cy="7.7386" r="1.8258" fill="none" stroke="#9A916C" stroke-width="1.1004" connectorname="SPI_CE0"/>
   <circle id="connector82pin" cx="110.13" cy="14.939" r="1.8258" fill="none" stroke="#9A916C" stroke-width="1.1004" connectorname="GND"/>
   <circle id="connector83pin" cx="110.13" cy="7.7386" r="1.8258" fill="none" stroke="#9A916C" stroke-width="1.1004" connectorname="SPI_CE1"/>
   <circle id="connector84pin" cx="117.33" cy="14.939" r="1.8258" fill="none" stroke="#9A916C" stroke-width="1.1004" connectorname="EEDATA"/>
   <circle id="connector85pin" cx="117.33" cy="7.7386" r="1.8258" fill="none" stroke="#9A916C" stroke-width="1.1004" connectorname="EECLK"/>
   <circle id="connector86pin" cx="124.53" cy="14.939" r="1.8258" fill="none" stroke="#9A916C" stroke-width="1.1004" connectorname="GPIO5"/>
   <circle id="connector87pin" cx="124.53" cy="7.7386" r="1.8258" fill="none" stroke="#9A916C" stroke-width="1.1004" connectorname="GND"/>
   <circle id="connector88pin" cx="131.73" cy="14.939" r="1.8258" fill="none" stroke="#9A916C" stroke-width="1.1004" connectorname="GPIO6"/>
   <circle id="connector89pin" cx="131.73" cy="7.7386" r="1.8258" fill="none" stroke="#9A916C" stroke-width="1.1004" connectorname="GPIO12"/>
   <circle id="connector90pin" cx="138.93" cy="14.939" r="1.8258" fill="none" stroke="#9A916C" stroke-width="1.1004" connectorname="GPIO13"/>
   <circle id="connector91pin" cx="138.93" cy="7.7386" r="1.8258" fill="none" stroke="#9A916C" stroke-width="1.1004" connectorname="GND"/>
   <circle id="connector92pin" cx="146.13" cy="14.939" r="1.8258" fill="none" stroke="#9A916C" stroke-width="1.1004" connectorname="GPIO19"/>
   <circle id="connector93pin" cx="146.13" cy="7.7386" r="1.8258" fill="none" stroke="#9A916C" stroke-width="1.1004" connectorname="GPIO16"/>
   <circle id="connector94pin" cx="153.33" cy="14.939" r="1.8258" fill="none" stroke="#9A916C" stroke-width="1.1004" connectorname="GPIO26"/>
   <circle id="connector95pin" cx="153.33" cy="7.7386" r="1.8258" fill="none" stroke="#9A916C" stroke-width="1.1004" connectorname="GPIO20"/>
   <circle id="connector96pin" cx="160.53" cy="14.939" r="1.8258" fill="none" stroke="#9A916C" stroke-width="1.1004" connectorname="GND"/>
   <circle id="connector97pin" cx="160.53" cy="7.7386" r="1.8258" fill="none" stroke="#9A916C" stroke-width="1.1004" connectorname="GPIO21"/>
   <rect id="connector98pin" x="133.79" y="154.41" width="9.0708" height="3.4016" fill="#9A916C" stroke-width="0"/>
   <rect id="connector99pin" x="153.06" y="154.41" width="9.0708" height="3.4016" fill="#9A916C" stroke-width="0"/>
   <rect id="connector100pin" x="133.79" y="143.07" width="9.0708" height="3.4016" fill="#9A916C" stroke-width="0"/>
   <rect id="connector101pin" x="153.06" y="143.07" width="9.0708" height="3.4016" fill="#9A916C" stroke-width="0"/>
   <rect id="connector102pin" x="97.427" y="154.41" width="9.0708" height="3.4016" fill="#9A916C" stroke-width="0"/>
   <rect id="connector103pin" x="116.7" y="154.41" width="9.0708" height="3.4016" fill="#9A916C" stroke-width="0"/>
   <rect id="connector104pin" x="97.427" y="143.07" width="9.0708" height="3.4016" fill="#9A916C" stroke-width="0"/>
   <rect id="connector105pin" x="116.7" y="143.07" width="9.0708" height="3.4016" fill="#9A916C" stroke-width="0"/>
   <rect id="connector106pin" x="61.427" y="154.41" width="9.0708" height="3.4016" fill="#9A916C" stroke-width="0"/>
   <rect id="connector107pin" x="80.703" y="154.41" width="9.0708" height="3.4016" fill="#9A916C" stroke-width="0"/>
   <rect id="connector108pin" x="61.427" y="143.07" width="9.0708" height="3.4016" fill="#9A916C" stroke-width="0"/>
   <rect id="connector109pin" x="80.703" y="143.07" width="9.0708" height="3.4016" fill="#9A916C" stroke-width="0"/>
   <rect id="connector110pin" x="25.427" y="154.41" width="9.0708" height="3.4016" fill="#9A916C" stroke-width="0"/>
   <rect id="connector111pin" x="44.702" y="154.41" width="9.0708" height="3.4016" fill="#9A916C" stroke-width="0"/>
   <rect id="connector112pin" x="25.427" y="143.07" width="9.0708" height="3.4016" fill="#9A916C" stroke-width="0"/>
   <rect id="connector113pin" x="44.702" y="143.07" width="9.0708" height="3.4016" fill="#9A916C" stroke-width="0"/>
   <rect id="connector114pin" x="3.8296" y="54.61" width="1.7008" height="6.2362" fill="#9A916C" stroke-width="0"/>
   <rect id="connector115pin" x="7.4296" y="54.61" width="1.7008" height="6.2362" fill="#9A916C" stroke-width="0"/>
   <rect id="connector116pin" x="11.03" y="54.61" width="1.7008" height="6.2362" fill="#9A916C" stroke-width="0"/>
   <rect id="connector117pin" x="14.63" y="54.61" width="1.7008" height="6.2362" fill="#9A916C" stroke-width="0"/>
   <rect id="connector118pin" x="14.63" y="39.869" width="1.7008" height="6.2362" fill="#9A916C" stroke-width="0"/>
   <rect id="connector119pin" x="11.03" y="39.869" width="1.7008" height="6.2362" fill="#9A916C" stroke-width="0"/>
   <rect id="connector120pin" x="7.4296" y="39.869" width="1.7008" height="6.2362" fill="#9A916C" stroke-width="0"/>
   <rect id="connector121pin" x="3.8296" y="39.869" width="1.7008" height="6.2362" fill="#9A916C" stroke-width="0"/>
   <g transform="matrix(0 -1 1 0 28.165 223.88)">
    <rect id="connector122pin" x="125.31" y="93.606" width="1.4173" height="8.5039" fill="#9A916C" stroke-width="0"/>
   </g>
   <g transform="matrix(0 -1 1 0 30.433 221.61)">
    <rect id="connector123pin" x="125.31" y="91.338" width="1.4173" height="8.5039" fill="#9A916C" stroke-width="0"/>
   </g>
   <g transform="matrix(0 -1 1 0 32.7 219.34)">
    <rect id="connector124pin" x="125.31" y="89.07" width="1.4173" height="8.5039" fill="#9A916C" stroke-width="0"/>
   </g>
   <g transform="matrix(0 -1 1 0 34.968 217.08)">
    <rect id="connector125pin" x="125.31" y="86.802" width="1.4173" height="8.5039" fill="#9A916C" stroke-width="0"/>
   </g>
   <g transform="matrix(0 -1 1 0 37.236 214.81)">
    <rect id="connector126pin" x="125.31" y="84.534" width="1.4173" height="8.5039" fill="#9A916C" stroke-width="0"/>
   </g>
   <g transform="matrix(0 -1 1 0 39.504 212.54)">
    <rect id="connector127pin" x="125.31" y="82.267" width="1.4173" height="8.5039" fill="#9A916C" stroke-width="0"/>
   </g>
   <g transform="matrix(0 -1 1 0 41.771 210.27)">
    <rect id="connector128pin" x="125.31" y="79.999" width="1.4173" height="8.5039" fill="#9A916C" stroke-width="0"/>
   </g>
   <g transform="matrix(0 -1 1 0 44.039 208.01)">
    <rect id="connector129pin" x="125.31" y="77.732" width="1.4173" height="8.5039" fill="#9A916C" stroke-width="0"/>
   </g>
   <g transform="matrix(0 -1 1 0 46.307 205.74)">
    <rect id="connector130pin" x="125.31" y="75.464" width="1.4173" height="8.5039" fill="#9A916C" stroke-width="0"/>
   </g>
   <g transform="matrix(0 -1 1 0 48.574 203.47)">
    <rect id="connector131pin" x="125.31" y="73.196" width="1.4173" height="8.5039" fill="#9A916C" stroke-width="0"/>
   </g>
   <g transform="matrix(0 -1 1 0 50.842 201.2)">
    <rect id="connector132pin" x="125.31" y="70.928" width="1.4173" height="8.5039" fill="#9A916C" stroke-width="0"/>
   </g>
   <g transform="matrix(0 -1 1 0 53.11 198.94)">
    <rect id="connector133pin" x="125.31" y="68.661" width="1.4173" height="8.5039" fill="#9A916C" stroke-width="0"/>
   </g>
   <g transform="matrix(0 -1 1 0 55.378 196.67)">
    <rect id="connector134pin" x="125.31" y="66.393" width="1.4173" height="8.5039" fill="#9A916C" stroke-width="0"/>
   </g>
   <g transform="matrix(0 -1 1 0 57.645 194.4)">
    <rect id="connector135pin" x="125.31" y="64.125" width="1.4173" height="8.5039" fill="#9A916C" stroke-width="0"/>
   </g>
  </g>
  <g transform="translate(9.428 109.53)">
   <g transform="matrix(-1 0 0 -1 8.504 7.654)">
    <rect x=".85" y="4.677" width="1.417" height="2.976" fill="#DCDCDC"/>
    <rect x="6.236" y="4.677" width="1.417" height="2.976" fill="#DCDCDC"/>
    <rect x="3.543" width="1.417" height="3.118" fill="#DCDCDC"/>
    <rect y="1.984" width="8.504" height="3.685" fill="#303030"/>
   </g>
  </g>
  <g transform="translate(4.388 74.611)">
   <g transform="matrix(0 1 -1 0 8.079 -.42498)">
    <rect x=".85" y="4.677" width="1.417" height="2.976" fill="#DCDCDC"/>
    <rect x="6.236" y="4.677" width="1.417" height="2.976" fill="#DCDCDC"/>
    <rect x="3.543" width="1.417" height="3.118" fill="#DCDCDC"/>
    <rect y="1.984" width="8.504" height="3.685" fill="#303030"/>
   </g>
  </g>
  <g transform="translate(13.726 31.666)">
   <g transform="matrix(0 -1 1 0 1.063 4.606)">
    <path d="m5.386 3.543h-5.103c-0.156 0-0.283-0.127-0.283-0.283v-2.977c0-0.156 0.127-0.283 0.283-0.283h5.102c0.157 0 0.283 0.127 0.283 0.283v2.977c1e-3 0.156-0.126 0.283-0.282 0.283z" fill="#DCDCDC"/>
    <rect x="1.063" width="3.543" height="3.543" fill="#333"/>
   </g>
  </g>
  <g transform="translate(8.3255 31.666)">
   <g transform="matrix(0 -1 1 0 1.063 4.606)">
    <path d="m5.386 3.543h-5.103c-0.156 0-0.283-0.127-0.283-0.283v-2.977c0-0.156 0.127-0.283 0.283-0.283h5.102c0.157 0 0.283 0.127 0.283 0.283v2.977c1e-3 0.156-0.126 0.283-0.282 0.283z" fill="#DCDCDC"/>
    <rect x="1.063" width="3.543" height="3.543" fill="#333"/>
   </g>
  </g>
  <g transform="translate(1.8455 31.666)">
   <g transform="matrix(0 1 -1 0 4.606 -1.063)">
    <path d="m5.386 3.543h-5.103c-0.156 0-0.283-0.127-0.283-0.283v-2.977c0-0.156 0.127-0.283 0.283-0.283h5.102c0.157 0 0.283 0.127 0.283 0.283v2.977c1e-3 0.156-0.126 0.283-0.282 0.283z" fill="#DCDCDC"/>
    <rect x="1.063" width="3.543" height="3.543" fill="#333"/>
   </g>
  </g>
  <g transform="translate(6.5255 101.51)">
   <g transform="matrix(-1 0 0 -1 5.669 3.543)">
    <path d="m5.386 3.543h-5.103c-0.156 0-0.283-0.127-0.283-0.283v-2.977c0-0.156 0.127-0.283 0.283-0.283h5.102c0.157 0 0.283 0.127 0.283 0.283v2.977c1e-3 0.156-0.126 0.283-0.282 0.283z" fill="#DCDCDC"/>
    <rect x="1.063" width="3.543" height="3.543" fill="#333"/>
   </g>
  </g>
  <g transform="translate(6.5255 95.746)">
   <g transform="matrix(-1 0 0 -1 5.669 3.543)">
    <path d="m5.386 3.543h-5.103c-0.156 0-0.283-0.127-0.283-0.283v-2.977c0-0.156 0.127-0.283 0.283-0.283h5.102c0.157 0 0.283 0.127 0.283 0.283v2.977c1e-3 0.156-0.126 0.283-0.282 0.283z" fill="#DCDCDC"/>
    <rect x="1.063" width="3.543" height="3.543" fill="#333"/>
   </g>
  </g>
  <g transform="translate(2.2055 110.87)">
   <g transform="matrix(0 1 -1 0 4.606 -1.063)">
    <path d="m5.386 3.543h-5.103c-0.156 0-0.283-0.127-0.283-0.283v-2.977c0-0.156 0.127-0.283 0.283-0.283h5.102c0.157 0 0.283 0.127 0.283 0.283v2.977c1e-3 0.156-0.126 0.283-0.282 0.283z" fill="#DCDCDC"/>
    <rect x="1.063" width="3.543" height="3.543" fill="#333"/>
   </g>
  </g>
  <g transform="translate(6.5255 84.226)">
   <g transform="matrix(-1 0 0 -1 5.669 3.543)">
    <path d="m5.386 3.543h-5.103c-0.156 0-0.283-0.127-0.283-0.283v-2.977c0-0.156 0.127-0.283 0.283-0.283h5.102c0.157 0 0.283 0.127 0.283 0.283v2.977c1e-3 0.156-0.126 0.283-0.282 0.283z" fill="#DCDCDC"/>
    <rect x="1.063" width="3.543" height="3.543" fill="#333"/>
   </g>
  </g>
  <g transform="translate(6.5255 89.986)">
   <g transform="matrix(-1 0 0 -1 5.669 3.543)">
    <path d="m5.386 3.543h-5.103c-0.156 0-0.283-0.127-0.283-0.283v-2.977c0-0.156 0.127-0.283 0.283-0.283h5.102c0.157 0 0.283 0.127 0.283 0.283v2.977c1e-3 0.156-0.126 0.283-0.282 0.283z" fill="#DCDCDC"/>
    <rect x="1.063" width="3.543" height="3.543" fill="#333"/>
   </g>
  </g>
  <g transform="translate(3.6455 65.866)">
   <g transform="matrix(0 1 -1 0 4.606 -1.063)">
    <path d="m5.386 3.543h-5.103c-0.156 0-0.283-0.127-0.283-0.283v-2.977c0-0.156 0.127-0.283 0.283-0.283h5.102c0.157 0 0.283 0.127 0.283 0.283v2.977c1e-3 0.156-0.126 0.283-0.282 0.283z" fill="#DCDCDC"/>
    <rect x="1.063" width="3.543" height="3.543" fill="#333"/>
   </g>
  </g>
  <g transform="translate(9.4055 65.866)">
   <g transform="matrix(0 1 -1 0 4.606 -1.063)">
    <path d="m5.386 3.543h-5.103c-0.156 0-0.283-0.127-0.283-0.283v-2.977c0-0.156 0.127-0.283 0.283-0.283h5.102c0.157 0 0.283 0.127 0.283 0.283v2.977c1e-3 0.156-0.126 0.283-0.282 0.283z" fill="#DCDCDC"/>
    <rect x="1.063" width="3.543" height="3.543" fill="#333"/>
   </g>
  </g>
  <g transform="translate(137.19 141.93)">
   <polygon points="21.543 3.685 21.543 1.984 19.842 1.984 19.842 1e-3 1.701 1e-3 1.701 1.984 0 1.984 0 3.685 1.701 3.685 1.701 13.323 0 13.323 0 15.024 1.701 15.024 1.701 17.008 19.842 17.008 19.842 15.024 21.543 15.024 21.543 13.323 19.842 13.323 19.842 3.685" fill="#DCDCDC"/>
   <circle cx="10.772" cy="8.504" r="4.252" fill="#1E1E1E"/>
   <rect x="1.465" width=".567" height="17.008" fill="#B4B4B4"/>
   <rect x="19.559" width=".567" height="17.008" fill="#B4B4B4"/>
  </g>
  <g transform="translate(100.83 141.93)">
   <polygon points="21.543 3.685 21.543 1.984 19.842 1.984 19.842 1e-3 1.701 1e-3 1.701 1.984 0 1.984 0 3.685 1.701 3.685 1.701 13.323 0 13.323 0 15.024 1.701 15.024 1.701 17.008 19.842 17.008 19.842 15.024 21.543 15.024 21.543 13.323 19.842 13.323 19.842 3.685" fill="#DCDCDC"/>
   <circle cx="10.772" cy="8.504" r="4.252" fill="#1E1E1E"/>
   <rect x="1.465" width=".567" height="17.008" fill="#B4B4B4"/>
   <rect x="19.559" width=".567" height="17.008" fill="#B4B4B4"/>
  </g>
  <g transform="translate(64.828 141.93)">
   <polygon points="21.543 3.685 21.543 1.984 19.842 1.984 19.842 1e-3 1.701 1e-3 1.701 1.984 0 1.984 0 3.685 1.701 3.685 1.701 13.323 0 13.323 0 15.024 1.701 15.024 1.701 17.008 19.842 17.008 19.842 15.024 21.543 15.024 21.543 13.323 19.842 13.323 19.842 3.685" fill="#DCDCDC"/>
   <circle cx="10.772" cy="8.504" r="4.252" fill="#1E1E1E"/>
   <rect x="1.465" width=".567" height="17.008" fill="#B4B4B4"/>
   <rect x="19.559" width=".567" height="17.008" fill="#B4B4B4"/>
  </g>
  <g transform="translate(28.828 141.93)">
   <polygon points="21.543 3.685 21.543 1.984 19.842 1.984 19.842 1e-3 1.701 1e-3 1.701 1.984 0 1.984 0 3.685 1.701 3.685 1.701 13.323 0 13.323 0 15.024 1.701 15.024 1.701 17.008 19.842 17.008 19.842 15.024 21.543 15.024 21.543 13.323 19.842 13.323 19.842 3.685" fill="#DCDCDC"/>
   <circle cx="10.772" cy="8.504" r="4.252" fill="#1E1E1E"/>
   <rect x="1.465" width=".567" height="17.008" fill="#B4B4B4"/>
   <rect x="19.559" width=".567" height="17.008" fill="#B4B4B4"/>
  </g>
  <g transform="translate(3.8457 131.49)">
   <path d="m14.022 6.179c-0.046-0.288-0.202-0.37-0.578-0.49-0.286-0.091-2.2-0.701-2.2-0.701s-1.333-0.504-2.323 0.208c-0.13299 0.096-0.27101 0.205-0.41004 0.322 0.117-0.139 0.226-0.277 0.322-0.41 0.711-0.99 0.205-2.323 0.205-2.323s-0.61297-1.914-0.706-2.199c-0.12096-0.376-0.20296-0.532-0.49096-0.577-0.287-0.045-0.413 0.078-0.64402 0.398-0.175 0.244-1.347 1.876-1.347 1.876s-0.891 1.113-0.519 2.274c0.05 0.156 0.111 0.321 0.18 0.489-0.096-0.154-0.194-0.3-0.291-0.433-0.723-0.981-2.147-0.912-2.147-0.912s-2.009-8e-3 -2.309-9e-3c-0.395-1e-3 -0.568 0.029-0.7 0.289-0.132 0.259-0.053999 0.417 0.179 0.735 0.177 0.242 1.367 1.861 1.367 1.861s0.783 1.191 2.002 1.196c0.164 1e-3 0.339-7e-3 0.52-0.02-0.176 0.044-0.345 0.091-0.5 0.143-1.156 0.385-1.53 1.76-1.53 1.76s-0.629 1.908-0.722 2.194c-0.123 0.375-0.148 0.549 0.058 0.755s0.38 0.18 0.755 0.057c0.285-0.094 2.192-0.726 2.192-0.726s1.375-0.377 1.757-1.535c0.051-0.155 0.098-0.324 0.142-0.499-0.012 0.18-0.02 0.355-0.019 0.519 7e-3 1.219 1.2 2 1.2 2s1.621 1.187 1.863 1.364c0.319 0.233 0.477 0.31 0.736 0.178s0.289-0.306 0.287-0.701c-1e-3 -0.3-0.013-2.309-0.013-2.309s0.067-1.424-0.917-2.145c-0.13098-0.096001-0.27599-0.19298-0.43-0.28903 0.168 0.068 0.332 0.129 0.488 0.178 1.161 0.37 2.273-0.523 2.273-0.523s1.63-1.174 1.873-1.35c0.32-0.23197 0.443-0.35797 0.397-0.64497zm-6.919-1.479c0.219 0.034 0.328 0.5 0.243 1.04s-0.332 0.95-0.551 0.916-0.328-0.5-0.243-1.041c0.085-0.54 0.332-0.95 0.551-0.915zm-2.806 1.432c0.101-0.198 0.577-0.157 1.065 0.091 0.487 0.248 0.801 0.61 0.701 0.807-0.101 0.19801-0.578 0.157-1.066-0.089998-0.487-0.248-0.801-0.61-0.7-0.808zm1.479 2.695c-0.386 0.387-0.827 0.57399-0.984 0.41703-0.157-0.15603 0.029-0.59703 0.416-0.98403 0.386-0.387 0.827-0.574 0.984-0.417 0.157 0.156-0.029002 0.597-0.416 0.984zm2.129 0.908c-0.198 0.1-0.559-0.213-0.808-0.7-0.24902-0.487-0.29002-0.964-0.093022-1.065 0.198-0.101 0.559 0.213 0.808 0.7 0.24898 0.48706 0.29102 0.96406 0.093022 1.065zm0.513-2.257c-0.54 0.086-1.006-0.022-1.041-0.241-0.03504-0.21899 0.375-0.46599 0.915-0.55199s1.006 0.022 1.041 0.241c0.03497 0.219-0.375 0.46602-0.915 0.55199z" fill="#DCDCDC"/>
  </g>
  <g transform="translate(3.504 120.23)">
   <path d="m3.309 7.895c0.394 0 0.714 0.383 0.714 0.856v0.01l0.226 0.056c7e-3 -0.44702 0.335-0.81105 0.749-0.83805 1e-3 0 1e-3 0.00101 2e-3 0.00201-0.033 0.046-0.04 0.107-0.015 0.16 0.037 0.079 0.097 0.151 0.164 0.218-0.022 0.051-0.016 0.11 0.016 0.156 0.059 0.08103 0.138 0.14 0.211 0.185-1e-3 0.00302-2e-3 0.00705-3e-3 0.01101-0.018 0.07 0.015 0.144 0.078 0.178 0.07 0.038 0.206 0.104 0.372 0.154-0.013 0.053-0.03 0.104-0.051 0.153l0.362 0.09c-0.016-0.059-0.027-0.12-0.03-0.183 0.046 0.00501 0.092 0.00904 0.139 0.00904 0.274 0 0.503-0.103 0.662-0.299 8e-3 -0.01 0.015-0.021 0.021-0.033 0.016 6e-3 0.034 9e-3 0.052 9e-3h1e-3c0.3-2e-3 0.462-0.147 0.545-0.268 0.015-0.023 0.029-0.046 0.042-0.071 0.154 0.155 0.25 0.368 0.25 0.604 0 0.224-0.086 0.427-0.227 0.579 0.175 0.04 0.351 0.08 0.526 0.119-0.06302-0.118-0.09902-0.253-0.09902-0.39606 0-0.47297 0.38404-0.85594 0.85701-0.85594 0.473 0 0.856 0.383 0.856 0.856 0 0.277-0.132 0.522-0.335 0.678 0.288 0.06 0.576 0.115 0.865 0.168-0.175-0.157-0.288-0.396-0.288-0.665 0-0.473 0.347-0.856 0.776-0.856 0.428 0 0.776 0.383 0.776 0.856 0 0.362-0.204 0.671-0.492 0.797 0.084 0.013 0.168 0.028 0.252 0.04 0.422 0.064 0.845 0.116 1.271 0.146 0.425 0.027 0.854 0.038 1.277-0.022-0.42 0.081-0.852 0.088-1.28 0.074-0.428-0.015-0.855-0.053-1.281-0.102-0.85-0.105-1.694-0.255-2.533-0.421-1.68-0.334-3.339-0.75801-5-1.155-0.415-0.101-0.83-0.202-1.245-0.289-0.209-0.04199-0.414-0.08202-0.623-0.10002-0.208-0.02002-0.418-0.02498-0.626-0.01202-0.208 0.01303-0.414 0.04399-0.611 0.10202-0.195 0.05803-0.388 0.144-0.519 0.28001-0.064 0.06696-0.106 0.14702-0.112 0.23097-6e-3 0.084 0.024 0.171 0.075 0.251 0.105 0.15904 0.274 0.29304 0.447 0.39499 0.177 0.099 0.378 0.16301 0.581 0.21405 0.204 0.05 0.413 0.085 0.623 0.111 0.421 0.05298 0.847 0.07398 1.273 0.08098 0.742 0.015 1.486-0.015 2.228-0.07-0.035-4e-3 -0.071-9e-3 -0.106-0.013-0.673-0.083-1.351-0.133-2.03-0.157 0.68-0.02 1.361 0.011 2.04 0.061 0.34 0.029 0.678 0.067 1.016 0.113l1.009 0.144c1.345 0.19 2.691 0.376 4.042 0.484 0.675 0.059 1.352 0.103 2.026 0.093 0.336-7e-3 0.674-0.025 0.998-0.088 0.161-0.033 0.321-0.078 0.452-0.155 0.032-0.019 0.063-0.042 0.086-0.064 0.032-0.031 0.058-0.058 0.083-0.088 0.051-0.06 0.094-0.125 0.125-0.195 0.064-0.139 0.071-0.297 0.02-0.444-0.05-0.147-0.15-0.279-0.267-0.391-0.238-0.226-0.541-0.383-0.852-0.507-0.495-0.198-1.024-0.307-1.558-0.372v-0.025-0.084c0-0.019-1e-3 -0.036-3e-3 -0.052-1e-3 -5e-3 -1e-3 -9e-3 -2e-3 -0.013-2e-3 -0.012-5e-3 -0.024-8e-3 -0.035-1e-3 -3e-3 -1e-3 -5e-3 -2e-3 -8e-3 -4e-3 -0.012-9e-3 -0.023-0.014-0.033-2e-3 -3e-3 -3e-3 -6e-3 -5e-3 -8e-3 -4e-3 -7e-3 -9e-3 -0.014-0.013-0.02-2e-3 -2e-3 -3e-3 -5e-3 -5e-3 -7e-3 -6e-3 -7e-3 -0.013-0.014-0.019-0.02-1e-3 -1e-3 -3e-3 -2e-3 -4e-3 -3e-3 -6e-3 -5e-3 -0.012-9e-3 -0.017-0.012-2e-3 -1e-3 -3e-3 -2e-3 -5e-3 -3e-3 -0.014-8e-3 -0.028-0.014-0.04-0.017-9e-3 -2.285 0.288-5.398 0.358-6.018 0.119-1.042 0.224-1.135 0.026-1.346-0.287-0.306-1.834-0.831-5.237-0.805-3.244 0.026003-4.616 0.726-4.932 0.964-0.317 0.237-0.066 0.541 0.211 2.836 0.101 0.84 0.127 2.759 0.132 4.026-0.076 0.03899-0.129 0.09098-0.129 0.166v0.445c0.013 0.00298 0.027 0.00601 0.04 0.00802 0.103-0.32104 0.361-0.55 0.665-0.55z" fill="#DCDCDC"/>
   <path d="m5.784 7.045c0.583 0.753 0.88 1.281 0.998 1.668-0.146 0.18-0.342 0.24-0.539 0.24-0.288 0-0.578-0.129-0.716-0.204 0.06 0 0.113-8e-3 0.147-0.043-0.04-0.07-0.27-0.131-0.38-0.284 0.026 6e-3 0.048 0.01 0.067 0.01 0.026 0 0.048-7e-3 0.074-0.024-0.119-0.11-0.252-0.219-0.307-0.334 0.039 0.019 0.073 0.043 0.13 0.043 0.012 0 0.026-1e-3 0.04-4e-3 -0.092999-0.12503-0.202-0.24102-0.258-0.39302 0.055 0.024 0.112 0.051 0.148 0.051 7e-3 0 0.013-1e-3 0.019-3e-3 -0.082-0.12496-0.142-0.24895-0.182-0.373 0.071 0.044 0.113 0.058 0.142 0.058 6e-3 0 0.011-1e-3 0.016-2e-3 -0.045-0.129-0.12-0.256-0.122-0.39 0.049 0.04702 0.098 0.08202 0.149 0.08202 8e-3 0 0.017-1e-3 0.025-3e-3 2e-3 -0.08-0.107-0.178-0.107-0.368 0.062 0.036 0.127 0.076 0.155 0.076 3e-3 0 5e-3 0 7e-3 -1e-3 0.029-0.15 8e-3 -0.251-0.011-0.355 0.142 0.063 0.349 0.163 0.375 0.163 2e-3 0 3e-3 -1e-3 3e-3 -2e-3l-0.049-0.14c0.167 0.029 0.297 0.146 0.391 0.232 0.068-0.016 0.04-0.089 3e-3 -0.167 0.118 0.075 0.219 0.157 0.303 0.245 0.078-0.024 0.011-0.116-0.01-0.186 0.178 0.128 0.236 0.218 0.294 0.308 0.086-0.029 0.053-0.104 0.036-0.172 0.121 0.123 0.164 0.228 0.212 0.335 0.043-0.024 0.097-0.031 0.088-0.143 0.076 0.109 0.122 0.216 0.143 0.323 0.084-0.011 0.084-0.079 0.108-0.131 0.06698 0.13797 0.09197 0.26397 0.13402 0.39501 0.023-4e-3 0.057-0.039 0.101-0.099 0.14099 0.37101 0.21198 1.173-0.43402 1.177-0.278-0.58197-0.691-1.104-1.193-1.585z" fill="#9A916C"/>
   <path d="m12.313 10.155c0 5e-3 -1e-3 0.011-3e-3 0.018-0.024 5e-3 -0.048 9e-3 -0.073 9e-3 -0.284 0-0.514-0.352-0.514-0.786 0-0.434 0.23-0.786 0.514-0.786 0.026 0 0.051 4e-3 0.076 9e-3 -2e-7 0.47798-2e-7 1.471-2e-7 1.536z" fill="#9A916C"/>
   <path d="m9.729 9.356c0-0.473-0.383-0.856-0.856-0.856-0.47298 6.1e-5 -0.85702 0.38303-0.85702 0.856 0 0.143 0.036 0.278 0.098 0.396 0.218 0.049 0.435 0.1 0.653 0.148 0.209 0.046 0.417 0.091 0.626 0.134 0.20404-0.156 0.33602-0.40095 0.33602-0.678z" fill="#9A916C"/>
   <path d="m11.522 9.538c0-0.473-0.347-0.856-0.776-0.856-0.429 0-0.776 0.383-0.776 0.856 0 0.269 0.112 0.508 0.288 0.665 0.257 0.047 0.514 0.091 0.772 0.132 0.28801-0.12598 0.49201-0.43498 0.49201-0.797z" fill="#9A916C"/>
   <path d="m11.724 9.396c0 0.434 0.23 0.786 0.514 0.786 0.025 0 0.049-4e-3 0.073-9e-3 2e-3 -7e-3 3e-3 -0.013 3e-3 -0.018v-1.535c-0.025-6e-3 -0.05-9e-3 -0.076-9e-3 -0.284-2.2e-5 -0.514 0.35098-0.514 0.785z" fill="#9A916C"/>
   <path d="m7.815 9.054c0-0.236-0.095-0.45-0.25-0.604-0.01301 0.02397-0.02705 0.04701-0.04203 0.06998-0.08301 0.12103-0.24602 0.26604-0.54499 0.26805h-1e-3c-0.018 0-0.035-3e-3 -0.052-9e-3 -5e-3 0.01195-0.012 0.02297-0.021 0.03298-0.158 0.19598-0.387 0.30002-0.661 0.30002-0.047 0-0.093-3e-3 -0.138-9e-3 4e-3 0.063 0.014 0.124 0.03 0.183l0.137 0.03394c0.438 0.108 0.877 0.21204 1.316 0.31305 0.13997-0.153 0.22701-0.35503 0.22701-0.57902z" fill="#9A916C"/>
   <path d="m5.451 8.889c-0.063-0.035-0.096-0.108-0.078-0.17799 1e-3 -0.00396 2e-3 -0.00799 3e-3 -0.01101-0.073-0.045-0.152-0.10397-0.211-0.18598-0.033-0.045-0.038-0.10498-0.016-0.15502-0.067-0.06696-0.127-0.13795-0.164-0.21801-0.025-0.05199-0.019-0.11398 0.015-0.15999-1e-3 -1e-3 -1e-3 -0.00201-2e-3 -0.00201-0.414 0.027-0.742 0.39103-0.749 0.83901l1.524 0.378c0.021-0.049 0.039-0.1 0.051-0.153-0.166-0.04996-0.302-0.11599-0.373-0.154z" fill="#9A916C"/>
   <path d="m3.309 7.895c-0.304 0-0.563 0.229-0.666 0.55 0.382 0.079 0.761 0.167 1.14 0.257l0.239 0.059v-0.01c1e-3 -0.47203-0.318-0.856-0.713-0.856z" fill="#9A916C"/>
  </g>
  <g transform="translate(2.9934 41.854)">
   <metadata>
    <rdf:RDF xmlns:rdf="http://www.w3.org/1999/02/22-rdf-syntax-ns#">
     <cc:Work rdf:about="" xmlns:cc="http://creativecommons.org/ns#" xmlns:rdf="http://www.w3.org/1999/02/22-rdf-syntax-ns#">
      <dc:format xmlns:dc="http://purl.org/dc/elements/1.1/">image/svg+xml</dc:format>
      <dc:type rdf:resource="http://purl.org/dc/dcmitype/StillImage" xmlns:dc="http://purl.org/dc/elements/1.1/" xmlns:rdf="http://www.w3.org/1999/02/22-rdf-syntax-ns#"/>
      <dc:title xmlns:dc="http://purl.org/dc/elements/1.1/"/>
     </cc:Work>
    </rdf:RDF>
   </metadata>
   <g transform="translate(-298.07 -415.57)">
    <g groupmode="layer">
     <g transform="matrix(0 -2.1076 2.1168 0 -596.39 1056.4)">
      <g transform="rotate(90)">
       <rect x="422.54" y="-302.56" width="6.6954" height="5.1109" fill="#303030" stroke-width="0"/>
      </g>
      <g transform="matrix(0 .625 -.625 0 305.27 422.43)" stroke-width="0">
       <polygon points="10.31 4.9257 0.74925 4.9257 0.17325 4.3497 10.886 4.3497" fill="#1f1f1f"/>
       <polygon points="10.31 11.951 0.74925 11.951 0.17325 12.527 10.886 12.527" fill="#1f1f1f"/>
       <polygon points="0.74925 11.951 0.74925 4.9257 0.17325 4.3497 0.17325 12.527"/>
       <polygon points="10.31 11.951 10.31 4.9257 10.886 4.3497 10.886 12.527" fill="#3d3d3d"/>
      </g>
      <g transform="rotate(90)">
       <circle cx="423.62" cy="-298.52" r=".36" fill="#1f1f1f" stroke-width="0"/>
      </g>
     </g>
     <g transform="matrix(0 -1 1 0 -119.99 729.23)">
      <g fill="#ccc">
       <g transform="rotate(90)" fill="#ccc" stroke-width="0">
        <rect x="430.03" y="-299.77" width="1.1339" height="3.1181"/>
        <rect x="426.43" y="-299.77" width="1.1339" height="3.1181"/>
        <rect x="422.83" y="-299.77" width="1.1339" height="3.1181"/>
        <rect x="419.23" y="-299.77" width="1.1339" height="3.1181"/>
       </g>
      </g>
     </g>
     <g transform="matrix(0 -1 1 0 -120 715.34)">
      <g fill="#ccc">
       <g transform="rotate(90)" fill="#ccc" stroke-width="0">
        <rect x="430.03" y="-299.77" width="1.1339" height="3.1181"/>
        <rect x="426.43" y="-299.77" width="1.1339" height="3.1181"/>
        <rect x="422.83" y="-299.77" width="1.1339" height="3.1181"/>
        <rect x="419.23" y="-299.77" width="1.1339" height="3.1181"/>
       </g>
      </g>
     </g>
    </g>
   </g>
  </g>
 </g>
 <g transform="matrix(-1 0 0 -1 49.369 130.6)">
  <rect x="24.656" y="12.329" width="2.889" height="7.376" fill="#b4b4b4"/>
 </g>
 <g transform="matrix(-1 0 0 -1 112.18 67.417)">
  <rect x="87.842" y="12.142" width="2.515" height="7.376" fill="#b4b4b4"/>
 </g>
 <g transform="matrix(-1 0 0 -1 198.21 216.45)">
  <rect x="53.825" y="75.959" width="7.549" height="114.8" fill="#b4b4b4"/>
 </g>
 <g transform="matrix(-1 0 0 -1 116.19 134.43)">
  <rect x="53.918" y="-6.06" width="7.363" height="114.8" fill="#b4b4b4"/>
 </g>
 <g transform="matrix(0 -1 1 0 7.2506 140.69)">
  <polygon points="0.719 59.217 0.198 59.217 0.198 125.39 0.719 125.39 0.719 141.14 0.198 141.14 0.198 172.18 115 172.18 115 141.14 114.48 141.14 114.48 125.39 115 125.39 115 59.217 114.48 59.217 114.48 43.466 115 43.466 115 14.573 96.952 14.573 96.952 15.132 81.246 15.132 81.246 14.573 33.954 14.573 33.954 15.132 18.247 15.132 18.247 14.573 0.198 14.573 0.198 43.466 0.719 43.466" fill="#dcdcdc"/>
 </g>
 <path d="m23.688 45.903v74.366l2.05 2.863v11.855c-0.376 0.112-0.652 0.428-0.652 0.815 0 0.47901 0.417 0.86801 0.932 0.86801 0.416 0 0.755-0.258 0.876-0.607h11.147l2.889 2.083h28.613l2.796-2.083h9.693l2.796 2.083h31.503l2.796-2.083h9.693l2.889 2.083h28.52l2.796-2.083h10.309c0.12 0.35 0.46 0.607 0.876 0.607 0.515 0 0.932-0.389 0.932-0.86801 0-0.387-0.277-0.703-0.652-0.815v-2.482h4.94v-99.01h-4.94v-2.309c0.376-0.112 0.653-0.428 0.653-0.815 0-0.479-0.417-0.868-0.932-0.868-0.382 0-0.708 0.215-0.852 0.521h-10.332l-2.796-2.083h-28.52l-2.889 2.083h-9.693l-2.796-2.083h-31.504l-2.796 2.083h-9.693l-2.796-2.083h-28.614l-2.889 2.083h-11.171c-0.144-0.306-0.47-0.521-0.852-0.521-0.515 0-0.932 0.389-0.932 0.868 0 0.387 0.277 0.703 0.652 0.815v11.854l-2.05 2.863z" fill="#282828"/>
 <g transform="matrix(-1 0 0 -1 157.71 175.95)">
  <rect x="-16.497" y="40.148" width="148.19" height="105.43" fill="#0a0a0a"/>
 </g>
 <g transform="matrix(-1 0 0 -1 229.52 247.76)">
  <rect x="52.932" y="135.04" width="9.336" height="59.267" fill="#e6aa50"/>
 </g>
 <g transform="matrix(-1 0 0 -1 226.77 244.92)">
  <rect x="54.148" y="127.69" width="6.99" height="68.379"/>
 </g>
 <g transform="matrix(-1 0 0 -1 152.33 170.34)">
  <rect x="-8.091" y="37.623" width="131.6" height="99.484" fill="#333"/>
 </g>
</svg>
