<?xml version="1.0" encoding="UTF-8"?>
<!-- Generator: Adobe Illustrator 20.0.0, SVG Export Plug-In . SVG Version: 6.00 Build 0)  -->
<svg width="1.4in" height="1.15in" baseProfile="tiny" version="1.2" viewBox="0 0 100.8 82.8" xml:space="preserve" xmlns="http://www.w3.org/2000/svg" xmlns:xml="http://www.w3.org/XML/1998/namespace">
    <desc>
        <referenceFile>Adafruit OLED Color 0.96 inch 96x64 w microSD_breadboard.svg</referenceFile>
    </desc>
    <desc>Fritzing breadboard generated by brd2svg</desc>
    <g id="breadboard">
        <g id="icon">
            <path d="m100.8 7.2v68.4c0 3.976-3.224 7.2-7.2 7.2h-86.4c-3.976 0-7.2-3.224-7.2-7.2v-68.4c0-3.976 3.224-7.2 7.2-7.2h86.4c3.976 0 7.2 3.224 7.2 7.2m-19.276-0.224c0 0.783 0.635 1.417 1.417 1.417 0.783 0 1.417-0.635 1.417-1.417s-0.635-1.417-1.417-1.417-1.417 0.634-1.417 1.417zm-7.2 0c0 0.783 0.635 1.417 1.417 1.417 0.783 0 1.417-0.635 1.417-1.417s-0.635-1.417-1.417-1.417-1.417 0.634-1.417 1.417zm-7.2 0c0 0.783 0.635 1.417 1.417 1.417 0.783 0 1.417-0.635 1.417-1.417s-0.635-1.417-1.417-1.417-1.417 0.634-1.417 1.417zm-7.2 0c0 0.783 0.635 1.417 1.417 1.417s1.417-0.635 1.417-1.417-0.635-1.417-1.417-1.417-1.417 0.634-1.417 1.417zm-7.2 0c0 0.783 0.635 1.417 1.417 1.417 0.783 0 1.417-0.635 1.417-1.417 0-0.783-0.635-1.417-1.417-1.417s-1.417 0.634-1.417 1.417zm-7.2 0c0 0.783 0.635 1.417 1.417 1.417s1.417-0.635 1.417-1.417-0.635-1.417-1.417-1.417-1.417 0.634-1.417 1.417zm-7.2 0c0 0.783 0.635 1.417 1.417 1.417s1.417-0.635 1.417-1.417-0.635-1.417-1.417-1.417-1.417 0.634-1.417 1.417zm-7.2 0c0 0.783 0.635 1.417 1.417 1.417 0.783 0 1.417-0.635 1.417-1.417s-0.635-1.417-1.417-1.417-1.417 0.634-1.417 1.417zm-7.2 0c0 0.783 0.635 1.417 1.417 1.417 0.783 0 1.417-0.635 1.417-1.417s-0.635-1.417-1.417-1.417-1.417 0.634-1.417 1.417zm-7.2 0c0 0.783 0.635 1.417 1.417 1.417 0.783 0 1.417-0.635 1.417-1.417s-0.635-1.417-1.417-1.417-1.417 0.634-1.417 1.417zm73.333 0.224c-3e-3 1.957 1.58 3.546 3.537 3.55 1.957 3e-3 3.546-1.58 3.55-3.537v-0.012c3e-3 -1.957-1.58-3.546-3.537-3.55-1.957-3e-3 -3.546 1.58-3.55 3.537v0.012zm0 68.4c-3e-3 1.957 1.58 3.546 3.537 3.55 1.957 3e-3 3.546-1.58 3.55-3.537v-0.012c3e-3 -1.957-1.58-3.546-3.537-3.55-1.957-3e-3 -3.546 1.58-3.55 3.537v0.012zm-86.4-68.4c-3e-3 1.957 1.58 3.546 3.537 3.549s3.546-1.58 3.549-3.537v-0.012c3e-3 -1.957-1.58-3.546-3.537-3.549-1.957-4e-3 -3.546 1.58-3.549 3.537v0.012zm0 68.4c-3e-3 1.957 1.58 3.546 3.537 3.549s3.546-1.58 3.549-3.537v-0.012c3e-3 -1.957-1.58-3.546-3.537-3.549s-3.546 1.58-3.549 3.537v0.012z" fill="#014CB1"/>
            <g>
                <title>layer 21</title>
                <g>
                    <title>text:SSD1331 96x64 SPI RGB OLED</title>
                    <g transform="translate(16.56 3.6)">
                        
                            <text fill="#FFFFFF" font-family="'OCRA'" font-size="2.6726">SSD1331 96x64 SPI RGB OLED</text>
                        
                    </g>
                </g>
                <g>
                    <title>text:G</title>
                    <g transform="translate(17.28 13.32)">
                        
                            <text fill="#FFFFFF" font-family="'OCRA'" font-size="2.6726">G</text>
                        
                    </g>
                </g>
                <g>
                    <title>text:+</title>
                    <g transform="translate(24.12 13.32)">
                        
                            <text fill="#FFFFFF" font-family="'OCRA'" font-size="2.6726">+</text>
                        
                    </g>
                </g>
                <g>
                    <title>text:SC</title>
                    <g transform="translate(30.24 13.32)">
                        
                            <text fill="#FFFFFF" font-family="'OCRA'" font-size="2.6726">SC</text>
                        
                    </g>
                </g>
                <g>
                    <title>text:R</title>
                    <g transform="translate(46.08 13.32)">
                        
                            <text fill="#FFFFFF" font-family="'OCRA'" font-size="2.6726">R</text>
                        
                    </g>
                </g>
                <g>
                    <title>text:DC</title>
                    <g transform="translate(51.84 13.32)">
                        
                            <text fill="#FFFFFF" font-family="'OCRA'" font-size="2.6726">DC</text>
                        
                    </g>
                </g>
                <g>
                    <title>text:CK</title>
                    <g transform="translate(59.04 13.32)">
                        
                            <text fill="#FFFFFF" font-family="'OCRA'" font-size="2.6726">CK</text>
                        
                    </g>
                </g>
                <g>
                    <title>text:SI</title>
                    <g transform="translate(66.6 13.32)">
                        
                            <text fill="#FFFFFF" font-family="'OCRA'" font-size="2.6726">SI</text>
                        
                    </g>
                </g>
                <g>
                    <title>text:SO</title>
                    <g transform="translate(73.44 13.32)">
                        
                            <text fill="#FFFFFF" font-family="'OCRA'" font-size="2.6726">SO</text>
                        
                    </g>
                </g>
                <g>
                    <title>text:CD</title>
                    <g transform="translate(80.64 13.32)">
                        
                            <text fill="#FFFFFF" font-family="'OCRA'" font-size="2.6726">CD</text>
                        
                    </g>
                </g>
                <g>
                    <title>text:OC</title>
                    <g transform="translate(37.8 13.32)">
                        
                            <text fill="#FFFFFF" font-family="'OCRA'" font-size="2.6726">OC</text>
                        
                    </g>
                </g>
                <g>
                    <title>element:C1</title>
                    <g>
                        <title>package:0805</title>
                    </g>
                </g>
                <g>
                    <title>element:C2</title>
                    <g>
                        <title>package:0805</title>
                    </g>
                </g>
                <g>
                    <title>element:C3</title>
                    <g>
                        <title>package:0805</title>
                    </g>
                </g>
                <g>
                    <title>element:C4</title>
                    <g>
                        <title>package:0805</title>
                    </g>
                </g>
                <g>
                    <title>element:C5</title>
                    <g>
                        <title>package:0805</title>
                    </g>
                </g>
                <g>
                    <title>element:C8</title>
                    <g>
                        <title>package:0805</title>
                    </g>
                </g>
                <g>
                    <title>element:CN1</title>
                    <g>
                        <title>package:MICROSD</title>
                    </g>
                </g>
                <g>
                    <title>element:D1</title>
                    <g>
                        <title>package:SOD-123</title>
                    </g>
                </g>
                <g>
                    <title>element:IC1</title>
                    <g>
                        <title>package:SOT23-5L</title>
                    </g>
                </g>
                <g>
                    <title>element:JP2</title>
                    <g>
                        <title>package:1X10_ROUND_76</title>
                    </g>
                </g>
                <g>
                    <title>element:L1</title>
                    <g>
                        <title>package:INDUCTOR_1007</title>
                    </g>
                </g>
                <g>
                    <title>element:LCD1</title>
                    <g>
                        <title>package:UG-9664HDDAG01_WRAPAROUND</title>
                    </g>
                </g>
                <g>
                    <title>element:R1</title>
                    <g>
                        <title>package:0805</title>
                    </g>
                </g>
                <g>
                    <title>element:R2</title>
                    <g>
                        <title>package:0805</title>
                    </g>
                </g>
                <g>
                    <title>element:R3</title>
                    <g>
                        <title>package:0805</title>
                    </g>
                </g>
                <g>
                    <title>element:U$9</title>
                    <g>
                        <title>package:MOUNTINGHOLE_2.5_PLATED</title>
                        <circle cx="93.6" cy="7.2" r="5.669" fill="none" stroke="#fff" stroke-width=".576"/>
                    </g>
                </g>
                <g>
                    <title>element:U$10</title>
                    <g>
                        <title>package:MOUNTINGHOLE_2.5_PLATED</title>
                    </g>
                </g>
                <g>
                    <title>element:U$11</title>
                    <g>
                        <title>package:MOUNTINGHOLE_2.5_PLATED</title>
                        <circle cx="7.2" cy="7.2" r="5.669" fill="none" stroke="#fff" stroke-width=".576"/>
                    </g>
                </g>
                <g>
                    <title>element:U$12</title>
                    <g>
                        <title>package:FIDUCIAL_1MM</title>
                    </g>
                </g>
                <g>
                    <title>element:U$13</title>
                    <g>
                        <title>package:FIDUCIAL_1MM</title>
                    </g>
                </g>
                <g>
                    <title>element:U$15</title>
                    <g>
                        <title>package:MOUNTINGHOLE_2.5_PLATED</title>
                    </g>
                </g>
                <g>
                    <title>element:U$16</title>
                    <g>
                        <title>package:FIDUCIAL_1MM</title>
                    </g>
                </g>
                <g>
                    <title>element:U$17</title>
                    <g>
                        <title>package:ADAFRUIT_3.5MM</title>
                    </g>
                </g>
                <g>
                    <title>element:U$28</title>
                    <g>
                        <title>package:LOGIC_5VREADY_5MM</title>
                    </g>
                </g>
                <g>
                    <title>element:U1</title>
                    <g>
                        <title>package:SOT23-5</title>
                    </g>
                </g>
                <g>
                    <title>element:U2</title>
                    <g>
                        <title>package:SOIC16</title>
                    </g>
                </g>
            </g>
            <circle id="connector5pin" cx="82.942" cy="6.976" r="2.077" fill="none" stroke="#9A916C" stroke-width="1.3187"/>
            <rect x="80.865" y="4.899" width="4.153" height="4.153" fill="none" stroke="#9A916C" stroke-width="1.3187"/>
            <circle id="connector6pin" cx="75.742" cy="6.976" r="2.077" fill="none" stroke="#9A916C" stroke-width="1.3187"/>
            <circle id="connector7pin" cx="68.542" cy="6.976" r="2.077" fill="none" stroke="#9A916C" stroke-width="1.3187"/>
            <circle id="connector8pin" cx="61.342" cy="6.976" r="2.077" fill="none" stroke="#9A916C" stroke-width="1.3187"/>
            <circle id="connector9pin" cx="54.142" cy="6.976" r="2.077" fill="none" stroke="#9A916C" stroke-width="1.3187"/>
            <circle id="connector10pin" cx="46.942" cy="6.976" r="2.077" fill="none" stroke="#9A916C" stroke-width="1.3187"/>
            <circle id="connector11pin" cx="39.742" cy="6.976" r="2.077" fill="none" stroke="#9A916C" stroke-width="1.3187"/>
            <circle id="connector12pin" cx="32.542" cy="6.976" r="2.077" fill="none" stroke="#9A916C" stroke-width="1.3187"/>
            <circle id="connector13pin" cx="25.342" cy="6.976" r="2.077" fill="none" stroke="#9A916C" stroke-width="1.3187"/>
            <circle id="connector14pin" cx="18.142" cy="6.976" r="2.077" fill="none" stroke="#9A916C" stroke-width="1.3187"/>
            <circle id="connector15pin" cx="93.6" cy="7.2" r="4.039" fill="none" stroke="#9A916C" stroke-width=".9921"/>
            <circle id="connector16pin" cx="93.6" cy="75.6" r="4.039" fill="none" stroke="#9A916C" stroke-width=".9921"/>
            <circle id="connector17pin" cx="7.2" cy="7.2" r="4.039" fill="none" stroke="#9A916C" stroke-width=".9921"/>
            <circle id="connector18pin" cx="7.2" cy="75.6" r="4.039" fill="none" stroke="#9A916C" stroke-width=".9921"/>
        </g>
    </g>
    
        <rect x="13.975" y="14.712" width="72.85" height="62.902" fill="#416699" stroke="#00f" stroke-miterlimit="10" stroke-width=".0318"/>
        <rect x="30.566" y="74.115" width="39.667" height="10.102" fill="#E6AA50"/>
        <path d="M65.021,84.217v-6.19c0.078-0.868,0.575-1.339,1.43-1.43h3.782c0.774,0.048,1.399-0.634,1.43-1.399v-7.374c-0.02-0.745-0.665-1.441-1.43-1.399H30.566c-0.789-0.02-1.397,0.617-1.43,1.399v7.374c0.032,0.777,0.635,1.433,1.43,1.399h3.782c0.763,0.035,1.466,0.642,1.43,1.43v6.19H65.021z"/>
        <rect x="15.405" y="16.174" width="69.99" height="47.137" fill="#140A14"/>
        <rect x="21.857" y="20.688" width="57.085" height="38.014" fill="#333"/>
        <g transform="translate(25.263 37.6)">
            
                <text fill="#FFFFFF" font-family="Noto Sans" font-size="8">0.96" OLED</text>
            
        </g>
        <g transform="translate(36.884 49.6)">
            
                <text fill="#FFFFFF" font-family="Noto Sans" font-size="8">96x64</text>
            
        </g>
    
</svg>
