<?xml version="1.0" encoding="UTF-8"?>
<!-- Generator: Adobe Illustrator 20.0.0, SVG Export Plug-In . SVG Version: 6.00 Build 0)  -->
<svg width="1.5748in" height="1.5354in" baseProfile="tiny" version="1.2" viewBox="0 0 113.39 110.55" xml:space="preserve" xmlns="http://www.w3.org/2000/svg" xmlns:xml="http://www.w3.org/XML/1998/namespace">
    <desc>
        <referenceFile>Adafruit SHARP Memory Display 1.3 inch 96x96_breadboard.svg</referenceFile>
    </desc>
    <desc>Fritzing breadboard generated by brd2svg</desc>
    <g id="breadboard">
        <g id="icon">
            <path d="m113.39 102.05c0 4.697-3.807 8.504-8.504 8.504h-96.378c-4.697 0-8.504-3.807-8.504-8.504s3.807-8.504 8.504-8.504h5.669v-76.535h-5.669c-4.697 0-8.504-3.807-8.504-8.504 0-4.696 3.807-8.504 8.504-8.504h96.378c4.697 0 8.504 3.807 8.504 8.504s-3.807 8.504-8.504 8.504h-5.67v76.535h5.67c4.697 0 8.504 3.808 8.504 8.504m-29.31 1.304c0 0.783 0.635 1.417 1.417 1.417 0.783 0 1.417-0.635 1.417-1.417 0-0.783-0.635-1.417-1.417-1.417-0.783 0-1.417 0.634-1.417 1.417zm-7.2 0c0 0.783 0.635 1.417 1.417 1.417 0.783 0 1.417-0.635 1.417-1.417 0-0.783-0.635-1.417-1.417-1.417-0.783 0-1.417 0.634-1.417 1.417zm-7.2 0c0 0.783 0.635 1.417 1.417 1.417 0.783 0 1.417-0.635 1.417-1.417 0-0.783-0.635-1.417-1.417-1.417-0.783 0-1.417 0.634-1.417 1.417zm-7.2 0c0 0.783 0.635 1.417 1.417 1.417 0.783 0 1.417-0.635 1.417-1.417 0-0.783-0.635-1.417-1.417-1.417-0.783 0-1.417 0.634-1.417 1.417zm-7.2 0c0 0.783 0.635 1.417 1.417 1.417 0.783 0 1.417-0.635 1.417-1.417 0-0.783-0.635-1.417-1.417-1.417s-1.417 0.634-1.417 1.417zm-7.2 0c0 0.783 0.635 1.417 1.417 1.417s1.417-0.635 1.417-1.417c0-0.783-0.635-1.417-1.417-1.417s-1.417 0.634-1.417 1.417zm-7.2 0c0 0.783 0.635 1.417 1.417 1.417 0.783 0 1.417-0.635 1.417-1.417 0-0.783-0.635-1.417-1.417-1.417s-1.417 0.634-1.417 1.417zm-7.2 0c0 0.783 0.635 1.417 1.417 1.417s1.417-0.635 1.417-1.417c0-0.783-0.635-1.417-1.417-1.417s-1.417 0.634-1.417 1.417zm-7.2 0c0 0.783 0.635 1.417 1.417 1.417 0.783 0 1.417-0.635 1.417-1.417 0-0.783-0.635-1.417-1.417-1.417-0.783 0-1.417 0.634-1.417 1.417zm74.154-94.847c-5e-3 2.348 1.895 4.256 4.243 4.261s4.256-1.895 4.261-4.243v-0.017c5e-3 -2.348-1.895-4.256-4.243-4.261s-4.256 1.895-4.261 4.243v0.017zm-96.378 0c-5e-3 2.348 1.895 4.256 4.243 4.261s4.256-1.895 4.261-4.243v-0.018c5e-3 -2.348-1.894-4.256-4.243-4.261s-4.256 1.894-4.261 4.243v0.018zm96.378 93.543c-5e-3 2.348 1.895 4.256 4.243 4.261s4.256-1.895 4.261-4.243v-0.017c5e-3 -2.348-1.895-4.256-4.243-4.261s-4.256 1.895-4.261 4.243v0.017zm-96.378 0c-5e-3 2.348 1.895 4.256 4.243 4.261s4.256-1.895 4.261-4.243v-0.018c5e-3 -2.348-1.894-4.256-4.243-4.261-2.348-5e-3 -4.256 1.894-4.261 4.243v0.018z" fill="#014CB1"/>
            <g>
                <title>layer 21</title>
                <g>
                    <title>text:VIN</title>
                    <g transform="translate(82.335 99.751)">
                        
                            <text fill="#FFFFFF" font-family="'OCRA'" font-size="2.6726">VIN</text>
                        
                    </g>
                </g>
                <g>
                    <title>text:3v3</title>
                    <g transform="translate(74.775 109.11)">
                        
                            <text fill="#FFFFFF" font-family="'OCRA'" font-size="2.6726">3v3</text>
                        
                    </g>
                </g>
                <g>
                    <title>text:GND</title>
                    <g transform="translate(67.575 100.11)">
                        
                            <text fill="#FFFFFF" font-family="'OCRA'" font-size="2.6726">GND</text>
                        
                    </g>
                </g>
                <g>
                    <title>text:CLK</title>
                    <g transform="translate(60.015 109.47)">
                        
                            <text fill="#FFFFFF" font-family="'OCRA'" font-size="2.6726">CLK</text>
                        
                    </g>
                </g>
                <g>
                    <title>text:DI</title>
                    <g transform="translate(54.615 100.11)">
                        
                            <text fill="#FFFFFF" font-family="'OCRA'" font-size="2.6726">DI</text>
                        
                    </g>
                </g>
                <g>
                    <title>text:CS</title>
                    <g transform="translate(47.055 109.47)">
                        
                            <text fill="#FFFFFF" font-family="'OCRA'" font-size="2.6726">CS</text>
                        
                    </g>
                </g>
                <g>
                    <title>text:EMD</title>
                    <g transform="translate(38.775 100.11)">
                        
                            <text fill="#FFFFFF" font-family="'OCRA'" font-size="2.6726">EMD</text>
                        
                    </g>
                </g>
                <g>
                    <title>text:DISP</title>
                    <g transform="translate(30.855 109.47)">
                        
                            <text fill="#FFFFFF" font-family="'OCRA'" font-size="2.6726">DISP</text>
                        
                    </g>
                </g>
                <g>
                    <title>text:EIN</title>
                    <g transform="translate(24.735 100.11)">
                        
                            <text fill="#FFFFFF" font-family="'OCRA'" font-size="2.6726">EIN</text>
                        
                    </g>
                </g>
                <g>
                    <title>text:Adafruit Sharp Memory Disp</title>
                    <g transform="translate(17.175 5.0714)">
                        
                            <text fill="#FFFFFF" font-family="'OCRA'" font-size="3.3408">Adafruit Sharp Memory Disp</text>
                        
                    </g>
                </g>
                <g>
                    <title>element:C1</title>
                    <g>
                        <title>package:_0805</title>
                    </g>
                </g>
                <g>
                    <title>element:C2</title>
                    <g>
                        <title>package:_0805</title>
                    </g>
                </g>
                <g>
                    <title>element:C3</title>
                    <g>
                        <title>package:_0805</title>
                    </g>
                </g>
                <g>
                    <title>element:C4</title>
                    <g>
                        <title>package:_0805</title>
                    </g>
                </g>
                <g>
                    <title>element:C5</title>
                    <g>
                        <title>package:_0805</title>
                    </g>
                </g>
                <g>
                    <title>element:FB1</title>
                    <g>
                        <title>package:_0805</title>
                    </g>
                </g>
                <g>
                    <title>element:FB2</title>
                    <g>
                        <title>package:_0805</title>
                    </g>
                </g>
                <g>
                    <title>element:FID1</title>
                    <g>
                        <title>package:FIDUCIAL_1MM</title>
                    </g>
                </g>
                <g>
                    <title>element:FID2</title>
                    <g>
                        <title>package:FIDUCIAL_1MM</title>
                    </g>
                </g>
                <g>
                    <title>element:FID3</title>
                    <g>
                        <title>package:FIDUCIAL_1MM</title>
                    </g>
                </g>
                <g>
                    <title>element:IC1</title>
                    <g>
                        <title>package:FPC_10PIN_52892-1095</title>
                    </g>
                </g>
                <g>
                    <title>element:JP1</title>
                    <g>
                        <title>package:1X09_ROUND_70</title>
                    </g>
                </g>
                <g>
                    <title>element:R1</title>
                    <g>
                        <title>package:_0805</title>
                    </g>
                </g>
                <g>
                    <title>element:R2</title>
                    <g>
                        <title>package:_0805</title>
                    </g>
                </g>
                <g>
                    <title>element:R3</title>
                    <g>
                        <title>package:_0805</title>
                    </g>
                </g>
                <g>
                    <title>element:U$19</title>
                    <g>
                        <title>package:LOGIC_5VREADY_5MM</title>
                    </g>
                </g>
                <g>
                    <title>element:U$21</title>
                    <g>
                        <title>package:MOUNTINGHOLE_3.0_PLATEDTHIN</title>
                    </g>
                </g>
                <g>
                    <title>element:U$22</title>
                    <g>
                        <title>package:MOUNTINGHOLE_3.0_PLATEDTHIN</title>
                    </g>
                </g>
                <g>
                    <title>element:U$27</title>
                    <g>
                        <title>package:MOUNTINGHOLE_3.0_PLATEDTHIN</title>
                    </g>
                </g>
                <g>
                    <title>element:U$28</title>
                    <g>
                        <title>package:MOUNTINGHOLE_3.0_PLATEDTHIN</title>
                    </g>
                </g>
                <g>
                    <title>element:U$29</title>
                    <g>
                        <title>package:ADAFRUIT_5MM</title>
                    </g>
                </g>
                <g>
                    <title>element:U1</title>
                    <g>
                        <title>package:SOIC16</title>
                    </g>
                </g>
                <g>
                    <title>element:U2</title>
                    <g>
                        <title>package:SOT23-5</title>
                    </g>
                </g>
            </g>
            <circle id="connector5pin" cx="85.493" cy="103.35" r="1.969" fill="none" stroke="#9A916C" stroke-width="1.1027"/>
            <circle id="connector6pin" cx="78.293" cy="103.35" r="1.969" fill="none" stroke="#9A916C" stroke-width="1.1027"/>
            <circle id="connector7pin" cx="71.093" cy="103.35" r="1.969" fill="none" stroke="#9A916C" stroke-width="1.1027"/>
            <circle id="connector8pin" cx="63.893" cy="103.35" r="1.969" fill="none" stroke="#9A916C" stroke-width="1.1027"/>
            <circle id="connector9pin" cx="56.693" cy="103.35" r="1.969" fill="none" stroke="#9A916C" stroke-width="1.1027"/>
            <circle id="connector10pin" cx="49.493" cy="103.35" r="1.969" fill="none" stroke="#9A916C" stroke-width="1.1027"/>
            <circle id="connector11pin" cx="42.293" cy="103.35" r="1.969" fill="none" stroke="#9A916C" stroke-width="1.1027"/>
            <circle id="connector12pin" cx="35.093" cy="103.35" r="1.969" fill="none" stroke="#9A916C" stroke-width="1.1027"/>
            <circle id="connector13pin" cx="27.893" cy="103.35" r="1.969" fill="none" stroke="#9A916C" stroke-width="1.1027"/>
            <circle id="connector14pin" cx="104.88" cy="8.504" r="4.677" fill="none" stroke="#9A916C" stroke-width=".8504"/>
            <circle id="connector15pin" cx="8.504" cy="8.504" r="4.677" fill="none" stroke="#9A916C" stroke-width=".8504"/>
            <circle id="connector16pin" cx="104.88" cy="102.05" r="4.677" fill="none" stroke="#9A916C" stroke-width=".8504"/>
            <circle id="connector17pin" cx="8.504" cy="102.05" r="4.677" fill="none" stroke="#9A916C" stroke-width=".8504"/>
        </g>
    </g>
    
        <g transform="matrix(-1 -8.9792e-11 8.9792e-11 -1 113.46 102.16)">
            
                <rect x="17.046" y="5.456" width="79.37" height="91.245" fill="#416699" stroke="#00f" stroke-miterlimit="10" stroke-width=".0318"/>
            
        </g>
        <path d="m20.723 12.275s22.177-4.054 22.677-4.137 26.584 0 26.584 0l22.677 4.137h-71.938z" fill="#786E64"/>
        <path d="m20.723 12.275h71.939c1.566 0 2.835 1.269 2.835 2.835v77.838c0 1.566-1.269 2.835-2.835 2.835h-71.939c-1.566 0-2.835-1.269-2.835-2.835v-77.839c1e-3 -1.565 1.27-2.834 2.835-2.834z" fill="#786E64" stroke="#A0968C" stroke-miterlimit="10"/>
        <g transform="matrix(-1 -8.9791e-11 8.9791e-11 -1 113.39 113.88)">
            
                <rect x="22.639" y="22.847" width="68.108" height="68.185" fill="#C8C8D2"/>
            
        </g>
        <g transform="matrix(-1 -8.9771e-11 8.9771e-11 -1 113.39 8.1379)">
            
                <rect x="43.401" width="26.584" height="8.138" fill="#E6AA50"/>
            
        </g>
        <rect x="22.639" y="6.857" width="9.474" height="4.411" fill="#9A916C"/>
        <rect x="24.23" y="91.56" width="2.688" height="2.688" fill="#9A916C"/>
        <rect x="28.012" y="91.56" width="2.688" height="2.688" fill="#9A916C"/>
        <rect x="31.793" y="91.56" width="2.688" height="2.688" fill="#9A916C"/>
        <g transform="translate(39.279 51.079)">
            
                <text font-family="Noto Sans" font-size="5.6">1.3” SHARP</text>
            
        </g>
        <g transform="translate(31.237 59.479)">
            
                <text font-family="Noto Sans" font-size="5.6">Memory Display</text>
            
        </g>
        <g transform="translate(47.27 67.879)">
            
                <text font-family="Noto Sans" font-size="5.6">96x96</text>
            
        </g>
    
</svg>
