<?xml version="1.0" encoding="UTF-8"?>
<!-- Generator: Adobe Illustrator 25.4.1, SVG Export Plug-In . SVG Version: 6.00 Build 0)  -->
<svg width="1.45in" height="1.8in" enable-background="new 0 0 104.4 129.6" version="1.1" viewBox="0 0 104.4 129.6" xml:space="preserve" xmlns="http://www.w3.org/2000/svg" xmlns:xml="http://www.w3.org/XML/1998/namespace">
    <desc>
        <referenceFile>1.69inch 240x280 rev B_breadboard.svg</referenceFile>
    </desc>
    <desc>Fritzing breadboard generated by brd2svg</desc>
    
        <g id="breadboard">
            <g id="icon">
                <path d="m104.4 7.2v115.2c0 3.9764-3.2235 7.2-7.2 7.2h-90c-3.9765 0-7.2-3.2235-7.2-7.2v-115.2c0-3.9765 3.2236-7.2 7.2-7.2h90c3.9765 0 7.2 3.2235 7.2 7.2m-39.444 20.75c0 0.7828 0.6346 1.4173 1.4173 1.4173 0.7828 0 1.4173-0.6346 1.4173-1.4173s-0.6346-1.4173-1.4173-1.4173-1.4173 0.6345-1.4173 1.4173zm-28.346 0c0 0.7828 0.6346 1.4173 1.4173 1.4173 0.7828 0 1.4173-0.6346 1.4173-1.4173 0-0.7828-0.6346-1.4173-1.4173-1.4173s-1.4173 0.6345-1.4173 1.4173zm-21.827 96.25c0 0.7828 0.6346 1.4173 1.4173 1.4173 0.7828 0 1.4173-0.6346 1.4173-1.4173 0-0.7828-0.6346-1.4173-1.4173-1.4173s-1.4173 0.6345-1.4173 1.4173zm7.2 0c0 0.7828 0.6346 1.4173 1.4173 1.4173 0.7828 0 1.4173-0.6346 1.4173-1.4173 0-0.7828-0.6346-1.4173-1.4173-1.4173s-1.4173 0.6345-1.4173 1.4173zm7.2 0c0 0.7828 0.6346 1.4173 1.4173 1.4173 0.7828 0 1.4173-0.6346 1.4173-1.4173 0-0.7828-0.6346-1.4173-1.4173-1.4173s-1.4173 0.6345-1.4173 1.4173zm7.2 0c0 0.7828 0.6346 1.4173 1.4173 1.4173 0.7828 0 1.4173-0.6346 1.4173-1.4173s-0.6346-1.4173-1.4173-1.4173-1.4173 0.6345-1.4173 1.4173zm7.2 0c0 0.7828 0.6346 1.4173 1.4173 1.4173 0.7828 0 1.4173-0.6346 1.4173-1.4173s-0.6346-1.4173-1.4173-1.4173-1.4173 0.6345-1.4173 1.4173zm7.2 0c0 0.7828 0.6346 1.4173 1.4173 1.4173s1.4173-0.6346 1.4173-1.4173-0.6346-1.4173-1.4173-1.4173-1.4173 0.6345-1.4173 1.4173zm7.2 0c0 0.7828 0.6346 1.4173 1.4173 1.4173 0.7828 0 1.4173-0.6346 1.4173-1.4173s-0.6346-1.4173-1.4173-1.4173-1.4173 0.6345-1.4173 1.4173zm7.2 0c0 0.7828 0.6346 1.4173 1.4173 1.4173 0.7828 0 1.4173-0.6346 1.4173-1.4173s-0.6346-1.4173-1.4173-1.4173-1.4173 0.6345-1.4173 1.4173zm7.1996 0c0 0.7828 0.6346 1.4173 1.4173 1.4173 0.7828 0 1.4173-0.6346 1.4173-1.4173s-0.6346-1.4173-1.4173-1.4173-1.4173 0.6345-1.4173 1.4173zm7.2 0c0 0.7828 0.6346 1.4173 1.4173 1.4173 0.7828 0 1.4173-0.6346 1.4173-1.4173s-0.6346-1.4173-1.4173-1.4173-1.4173 0.6345-1.4173 1.4173zm7.2 0c0 0.7828 0.6346 1.4173 1.4173 1.4173 0.7828 0 1.4173-0.6346 1.4173-1.4173s-0.6346-1.4173-1.4173-1.4173-1.4173 0.6345-1.4173 1.4173zm-83.126-117c-0.0033 1.9569 1.5804 3.546 3.5373 3.5493s3.546-1.5804 3.5493-3.5373v-0.012c0.0033-1.9569-1.5804-3.546-3.5374-3.5493-1.9569-0.0032-3.5459 1.5805-3.5492 3.5374v0.0119zm90 0c-0.0034 1.9569 1.5802 3.5461 3.5371 3.5495s3.5461-1.5802 3.5495-3.5371v-0.0124c0.0034-1.9569-1.5802-3.5461-3.5371-3.5495s-3.5461 1.5802-3.5495 3.5371v0.0124zm-90 109.8c-0.0033 1.9569 1.5804 3.546 3.5373 3.5493s3.546-1.5804 3.5493-3.5373v-0.012c0.0033-1.9569-1.5804-3.546-3.5374-3.5493-1.9569-0.0033-3.546 1.5804-3.5493 3.5374 1e-4 4e-3 1e-4 0.0079 1e-4 0.0119zm90 0c-0.0034 1.9569 1.5802 3.5461 3.5371 3.5495s3.5461-1.5802 3.5495-3.5371v-0.0125c0.0034-1.9569-1.5802-3.5461-3.5371-3.5495s-3.5461 1.5802-3.5495 3.5371v0.0125z"/>
                
                    
                        <g transform="translate(17.87 120.96)">
                            
                                <g transform="rotate(270)">
                                    
                                        <g transform="translate(-4e-4 8.1045e-6)">
                                            <text fill="#FFFFFF" font-family="'OCRA'" font-size="2.6726">V+</text>
                                        </g>
                                    
                                </g>
                            
                        </g>
                    
                    
                        <g transform="translate(25.07 120.96)">
                            
                                <g transform="rotate(270)">
                                    
                                        <g transform="translate(-4e-4 7.8674e-6)">
                                            <text fill="#FFFFFF" font-family="'OCRA'" font-size="2.6726">3V</text>
                                        </g>
                                    
                                </g>
                            
                        </g>
                    
                    
                        <g transform="translate(32.27 120.96)">
                            
                                <g transform="rotate(270)">
                                    
                                        <g transform="translate(-4e-4 7.6304e-6)">
                                            <text fill="#FFFFFF" font-family="'OCRA'" font-size="2.6726">G</text>
                                        </g>
                                    
                                </g>
                            
                        </g>
                    
                    
                        <g transform="translate(39.47 120.96)">
                            
                                <g transform="rotate(270)">
                                    
                                        <g transform="translate(-4e-4 7.3933e-6)">
                                            <text fill="#FFFFFF" font-family="'OCRA'" font-size="2.6726">CK</text>
                                        </g>
                                    
                                </g>
                            
                        </g>
                    
                    
                        <g transform="translate(46.67 120.96)">
                            
                                <g transform="rotate(270)">
                                    
                                        <g transform="translate(-4e-4 7.3416e-6)">
                                            <text fill="#FFFFFF" font-family="'OCRA'" font-size="2.6726">SO</text>
                                        </g>
                                    
                                </g>
                            
                        </g>
                    
                    
                        <g transform="translate(53.87 120.96)">
                            
                                <g transform="rotate(270)">
                                    
                                        <g transform="translate(-4e-4 8.1045e-6)">
                                            <text fill="#FFFFFF" font-family="'OCRA'" font-size="2.6726">SI</text>
                                        </g>
                                    
                                </g>
                            
                        </g>
                    
                    
                        <g transform="translate(61.07 120.96)">
                            
                                <g transform="rotate(270)">
                                    
                                        <g transform="translate(-4e-4 7.8674e-6)">
                                            <text fill="#FFFFFF" font-family="'OCRA'" font-size="2.6726">TC</text>
                                        </g>
                                    
                                </g>
                            
                        </g>
                    
                    
                        <g transform="translate(68.27 120.96)">
                            
                                <g transform="rotate(270)">
                                    
                                        <g transform="translate(-4e-4 7.6304e-6)">
                                            <text fill="#FFFFFF" font-family="'OCRA'" font-size="2.6726">RT</text>
                                        </g>
                                    
                                </g>
                            
                        </g>
                    
                    
                        <g transform="translate(75.47 120.96)">
                            
                                <g transform="rotate(270)">
                                    
                                        <g transform="translate(-4e-4 7.5786e-6)">
                                            <text fill="#FFFFFF" font-family="'OCRA'" font-size="2.6726">DC</text>
                                        </g>
                                    
                                </g>
                            
                        </g>
                    
                    
                        <g transform="translate(82.67 120.96)">
                            
                                <g transform="rotate(270)">
                                    
                                        <g transform="translate(-4e-4 7.1562e-6)">
                                            <text fill="#FFFFFF" font-family="'OCRA'" font-size="2.6726">CC</text>
                                        </g>
                                    
                                </g>
                            
                        </g>
                    
                    
                        <g transform="translate(89.87 120.96)">
                            
                                <g transform="rotate(270)">
                                    
                                        <g transform="translate(-4e-4 8.1045e-6)">
                                            <text fill="#FFFFFF" font-family="'OCRA'" font-size="2.6726">BL</text>
                                        </g>
                                    
                                </g>
                            
                        </g>
                    
                    
                        <g transform="translate(18.385 7.6032)">
                            <text fill="#FFFFFF" font-family="'OCRA'" font-size="4.6771">1.69" ST7789 TFT</text>
                        </g>
                    
                    
                        <g fill="none" stroke="#fff">
                            <line x1="19.602" x2="84.799" y1="8.9574" y2="8.9574" stroke-linecap="round" stroke-width=".576"/>
                            <path d="m94.72 18.879c1e-4 -5.4793-4.4416-9.9212-9.9209-9.9213" stroke-width=".576"/>
                            <line x1="94.72" x2="94.72" y1="18.879" y2="105.34" stroke-linecap="round" stroke-width=".576"/>
                            <path d="m84.799 115.26c5.4793-2e-4 9.9211-4.4422 9.9209-9.9216v-4e-4" stroke-width=".576"/>
                            <line x1="84.799" x2="19.602" y1="115.26" y2="115.26" stroke-linecap="round" stroke-width=".576"/>
                            <path d="m9.6803 105.34c-4e-4 5.4793 4.4411 9.9216 9.9205 9.922h8e-4" stroke-width=".576"/>
                            <line x1="9.6803" x2="9.6803" y1="105.34" y2="18.879" stroke-linecap="round" stroke-width=".576"/>
                            <path d="m19.602 8.9574c-5.4793 0-9.9213 4.4419-9.9213 9.9212v1e-4" stroke-width=".576"/>
                            <line x1="35.901" x2="35.901" y1="19.446" y2="35.036" stroke-linecap="round" stroke-width=".432"/>
                            <path d="m35.901 35.036c0 2.3483 1.9036 4.252 4.2519 4.252" stroke-width=".432"/>
                            <line x1="40.153" x2="64.247" y1="39.288" y2="39.288" stroke-linecap="round" stroke-width=".432"/>
                            <path d="m64.247 39.288c2.3483 0 4.2519-1.9037 4.2519-4.252" stroke-width=".432"/>
                            <line x1="68.499" x2="68.499" y1="35.036" y2="19.446" stroke-linecap="round" stroke-width=".432"/>
                        </g>
                    
                    
                        
                            <circle cx="7.2" cy="7.2" r="5.6693" fill="none" stroke="#fff" stroke-width=".576"/>
                        
                    
                    
                        
                            <circle cx="97.2" cy="7.2" r="5.6693" fill="none" stroke="#fff" stroke-width=".576"/>
                        
                    
                    
                        
                            <circle cx="7.2" cy="117" r="5.6693" fill="none" stroke="#fff" stroke-width=".576"/>
                        
                    
                    
                        
                            <circle cx="97.2" cy="117" r="5.6693" fill="none" stroke="#fff" stroke-width=".576"/>
                        
                    
                
                <g transform="matrix(0 1 -1 0 80.574 -1.9984)">
                    
                        <g transform="matrix(2.5352e-6 1 -1 2.5352e-6 80.575 -1.9986)">
                            <rect id="connector5pin" x="40.72" y="36.454" width="1.1339" height="5.6693" fill="#9A916C"/>
                        </g>
                    
                </g>
                <g transform="matrix(0 1 -1 0 82.559 -3.9827)">
                    
                        <g transform="matrix(2.5352e-6 1 -1 2.5352e-6 82.559 -3.9828)">
                            <rect id="connector6pin" x="42.704" y="36.454" width="1.1339" height="5.6693" fill="#9A916C"/>
                        </g>
                    
                </g>
                <g transform="matrix(0 1 -1 0 84.543 -5.9669)">
                    
                        <g transform="matrix(2.5352e-6 1 -1 2.5352e-6 84.543 -5.9671)">
                            <rect id="connector7pin" x="44.688" y="36.454" width="1.1339" height="5.6693" fill="#9A916C"/>
                        </g>
                    
                </g>
                <g transform="matrix(0 1 -1 0 86.527 -7.9512)">
                    
                        <g transform="matrix(2.5352e-6 1 -1 2.5352e-6 86.527 -7.9513)">
                            <rect id="connector8pin" x="46.672" y="36.454" width="1.1339" height="5.6693" fill="#9A916C"/>
                        </g>
                    
                </g>
                <g transform="matrix(0 1 -1 0 88.512 -9.9354)">
                    
                        <g transform="matrix(2.5352e-6 1 -1 2.5352e-6 88.512 -9.9356)">
                            <rect id="connector9pin" x="48.657" y="36.454" width="1.1339" height="5.6693" fill="#9A916C"/>
                        </g>
                    
                </g>
                <g transform="matrix(0 1 -1 0 90.496 -11.92)">
                    
                        <g transform="matrix(2.5352e-6 1 -1 2.5352e-6 90.496 -11.92)">
                            <rect id="connector10pin" x="50.641" y="36.454" width="1.1339" height="5.6693" fill="#9A916C"/>
                        </g>
                    
                </g>
                <g transform="matrix(0 1 -1 0 92.48 -13.904)">
                    
                        <g transform="matrix(2.5352e-6 1 -1 2.5352e-6 92.48 -13.904)">
                            <rect id="connector11pin" x="52.625" y="36.454" width="1.1339" height="5.6693" fill="#9A916C"/>
                        </g>
                    
                </g>
                <g transform="matrix(0 1 -1 0 94.465 -15.888)">
                    
                        <g transform="matrix(2.5352e-6 1 -1 2.5352e-6 94.464 -15.888)">
                            <rect id="connector12pin" x="54.61" y="36.454" width="1.1339" height="5.6693" fill="#9A916C"/>
                        </g>
                    
                </g>
                <g transform="matrix(0 1 -1 0 96.449 -17.872)">
                    
                        <g transform="matrix(2.5352e-6 1 -1 2.5352e-6 96.449 -17.873)">
                            <rect id="connector13pin" x="56.594" y="36.454" width="1.1339" height="5.6693" fill="#9A916C"/>
                        </g>
                    
                </g>
                <g transform="matrix(0 1 -1 0 98.433 -19.857)">
                    
                        <g transform="matrix(2.5352e-6 1 -1 2.5352e-6 98.433 -19.857)">
                            <rect id="connector14pin" x="58.578" y="36.454" width="1.1339" height="5.6693" fill="#9A916C"/>
                        </g>
                    
                </g>
                <g transform="matrix(0 1 -1 0 100.42 -21.841)">
                    
                        <g transform="matrix(2.5352e-6 1 -1 2.5352e-6 100.42 -21.841)">
                            <rect id="connector15pin" x="60.562" y="36.454" width="1.1339" height="5.6693" fill="#9A916C"/>
                        </g>
                    
                </g>
                <g transform="matrix(0 1 -1 0 102.4 -23.825)">
                    
                        <g transform="matrix(2.5352e-6 1 -1 2.5352e-6 102.4 -23.825)">
                            <rect id="connector16pin" x="62.546" y="36.454" width="1.1339" height="5.6693" fill="#9A916C"/>
                        </g>
                    
                </g>
                <circle id="connector17pin" cx="16.2" cy="124.2" r="2.0767" fill="none" stroke="#9A916C" stroke-width="1.3187"/>
                <circle id="connector18pin" cx="23.4" cy="124.2" r="2.0767" fill="none" stroke="#9A916C" stroke-width="1.3187"/>
                <circle id="connector19pin" cx="30.6" cy="124.2" r="2.0767" fill="none" stroke="#9A916C" stroke-width="1.3187"/>
                <circle id="connector20pin" cx="37.8" cy="124.2" r="2.0767" fill="none" stroke="#9A916C" stroke-width="1.3187"/>
                <circle id="connector21pin" cx="45" cy="124.2" r="2.0767" fill="none" stroke="#9A916C" stroke-width="1.3187"/>
                <circle id="connector22pin" cx="52.2" cy="124.2" r="2.0767" fill="none" stroke="#9A916C" stroke-width="1.3187"/>
                <circle id="connector23pin" cx="59.4" cy="124.2" r="2.0767" fill="none" stroke="#9A916C" stroke-width="1.3187"/>
                <circle id="connector24pin" cx="66.6" cy="124.2" r="2.0767" fill="none" stroke="#9A916C" stroke-width="1.3187"/>
                <circle id="connector25pin" cx="73.8" cy="124.2" r="2.0767" fill="none" stroke="#9A916C" stroke-width="1.3187"/>
                <circle id="connector26pin" cx="81" cy="124.2" r="2.0767" fill="none" stroke="#9A916C" stroke-width="1.3187"/>
                <circle id="connector27pin" cx="88.2" cy="124.2" r="2.0767" fill="none" stroke="#9A916C" stroke-width="1.3187"/>
                <circle id="connector28pin" cx="7.2" cy="7.2" r="4.2633" fill="none" stroke="#9A916C" stroke-width="1.44"/>
                <circle id="connector29pin" cx="97.2" cy="7.2" r="4.2633" fill="none" stroke="#9A916C" stroke-width="1.44"/>
                <circle id="connector30pin" cx="7.2" cy="117" r="4.2633" fill="none" stroke="#9A916C" stroke-width="1.44"/>
                <circle id="connector31pin" cx="97.2" cy="117" r="4.2633" fill="none" stroke="#9A916C" stroke-width="1.44"/>
            </g>
        </g>
        <path d="m84.798 115.26h-65.197c-5.4567 0-9.9213-4.4646-9.9213-9.9213v-86.471c0-5.4567 4.4646-9.9213 9.9213-9.9213h65.197c5.4567 0 9.9213 4.4646 9.9213 9.9213v86.472c0 5.4566-4.4646 9.9212-9.9213 9.9212z" fill="#282828"/>
    
</svg>
