<?xml version="1.0" encoding="UTF-8"?>
<!-- Created with Inkscape (http://www.inkscape.org/) -->
<svg width="13mm" height="23mm" fill-rule="evenodd" version="1.1" viewBox="0 0 13 23" xml:space="preserve" xmlns="http://www.w3.org/2000/svg" xmlns:cc="http://creativecommons.org/ns#" xmlns:dc="http://purl.org/dc/elements/1.1/" xmlns:rdf="http://www.w3.org/1999/02/22-rdf-syntax-ns#" xmlns:xlink="http://www.w3.org/1999/xlink"><metadata><rdf:RDF><cc:Work rdf:about=""><dc:format>image/svg+xml</dc:format><dc:type rdf:resource="http://purl.org/dc/dcmitype/StillImage"/><dc:title/></cc:Work></rdf:RDF></metadata><defs><linearGradient id="linearGradient3164" x1="4.6119" x2="4.6119" y1="4.93" y2="4.238" gradientUnits="userSpaceOnUse" xlink:href="#id0"/>
  
  
  
  
  
  
 </defs>
 <g id="breadboard">
   
   
    
     <rect x=".8853" y=".6134" width="10.948" height="16.616" rx="2.8586" ry="2.8586" fill="#e6e6e6"/>
     <ellipse cx="6.4337" cy="2.8523" rx="1.0363" ry="1.071" fill="#1e1e1e" stroke="#1e1e1e" stroke-width=".0762"/>
    
    <g fill="#c3c3c3">
     <rect x=".9914" y="6.5259" width="11.21" height="10.98"/>
     <rect x=".9886" y="4.3704" width=".9294" height="3.8782" rx=".0684" ry=".0684"/>
     <rect x="11.289" y="4.3704" width=".9181" height="3.8782" rx=".0684" ry=".0684"/>
     <rect x=".9886" y="15.424" width=".9294" height="3.652" rx=".228" ry=".228"/>
     <rect x="10.577" y="17.052" width="1.6246" height="2.0243" rx=".228" ry=".228"/>
     <rect x="1.714" y="5.3063" width="9.7677" height="12.9"/>
     <rect x="1.3713" y="4.3487" width="10.335" height="14.728"/>
    </g>
    <g fill="none" stroke="#8c8c8c" stroke-width=".762">
     <line class="fil3 str1" x1="7.5868" x2="7.5894" y1="18.934" y2="22.188"/>
     <line class="fil3 str1" x1="10.127" x2="10.129" y1="18.932" y2="22.186"/>
     <line class="fil3 str1" x1="2.5068" x2="2.5094" y1="18.932" y2="22.186"/>
     <line class="fil3 str1" x1="5.0468" x2="5.0494" y1="18.932" y2="22.186"/>
    </g>
    <g fill="#cbcbcb">
     
      <rect x="9.3413" y="6.873" width="2.5327" height=".9398"/>
      <rect x="9.3413" y="8.773" width="2.5327" height=".9398"/>
      <rect x="9.3426" y="10.673" width="2.5314" height=".9398"/>
      <rect x="9.3414" y="12.573" width="2.5326" height=".9398"/>
      <rect x="9.3413" y="14.473" width="2.5327" height=".9398"/>
     
     
      <rect x=".8652" y="6.873" width=".704" height=".9398"/>
      <rect x=".8652" y="8.773" width=".704" height=".9398"/>
      <rect x=".8652" y="10.673" width=".704" height=".9398"/>
      <rect x=".8652" y="12.573" width=".704" height=".9398"/>
      <rect x=".8652" y="14.473" width=".704" height=".9398"/>
     
    </g>
    <g fill="#1e1e1e">
     
      <rect x="4.143" y="6.8727" width=".9398" height=".93982"/>
      <rect x="5.943" y="6.8727" width=".9398" height=".93982"/>
      <rect x="7.643" y="6.8727" width=".9398" height=".93982"/>
      <path d="m9.343 6.8727h1.5828c0.2071 0 0.3763 0.0839 0.3763 0.1866v0.5666c0 0.1027-0.1692 0.1867-0.3763 0.1867h-1.5828v-0.9399z"/>
      <rect x="1.5695" y="6.8727" width="1.7133" height=".93982"/>
     
     
      <rect x="4.143" y="8.7727" width=".9398" height=".93982"/>
      <rect x="5.943" y="8.7727" width=".9398" height=".93982"/>
      <rect x="7.643" y="8.7727" width=".9398" height=".93982"/>
      <path d="m9.343 8.7727h1.5828c0.2071 0 0.3763 0.0839 0.3763 0.1866v0.5666c0 0.1027-0.1692 0.1867-0.3763 0.1867h-1.5828v-0.9399z"/>
      <rect x="1.5695" y="8.7727" width="1.7133" height=".93982"/>
     
     
      <rect x="4.143" y="10.673" width=".9398" height=".93982"/>
      <rect x="5.943" y="10.673" width=".9398" height=".93982"/>
      <rect x="7.643" y="10.673" width=".9398" height=".93982"/>
      <path d="m9.343 10.673h1.5828c0.2071 0 0.3763 0.0839 0.3763 0.1866v0.5666c0 0.1027-0.1692 0.1867-0.3763 0.1867h-1.5828v-0.9399z"/>
      <rect x="1.5695" y="10.673" width="1.7133" height=".93982"/>
     
     
      <rect x="4.143" y="12.573" width=".9398" height=".93982"/>
      <rect x="5.943" y="12.573" width=".9398" height=".93982"/>
      <rect x="7.643" y="12.573" width=".9398" height=".93982"/>
      <path d="m9.343 12.573h1.5828c0.2071 0 0.3763 0.0839 0.3763 0.1866v0.5666c0 0.1027-0.1692 0.1867-0.3763 0.1867h-1.5828v-0.9399z"/>
      <rect x="1.5695" y="12.573" width="1.7133" height=".93982"/>
     
     
      <rect x="4.143" y="14.473" width=".9398" height=".93982"/>
      <rect x="5.943" y="14.473" width=".9398" height=".93982"/>
      <rect x="7.643" y="14.473" width=".9398" height=".93982"/>
      <path d="m9.343 14.473h1.5828c0.2071 0 0.3763 0.0839 0.3763 0.1866v0.5666c0 0.1027-0.1692 0.1867-0.3763 0.1867h-1.5828v-0.9399z"/>
      <rect x="1.5695" y="14.473" width="1.7133" height=".93982"/>
     
    </g>
    <g fill="#f0f0f0">
     
      
       
        <rect x="3.2832" y="4.2382" width=".8599" height="13.983"/>
        <rect x="3.2875" y="3.9564" width=".8548" height=".74904" rx=".0588" ry=".0588"/>
       
       
        <rect x="5.0832" y="4.2382" width=".8599" height="13.983"/>
        <rect x="5.0874" y="3.9564" width=".8548" height=".74904" rx=".0588" ry=".0588"/>
       
       
        <rect x="6.8832" y="4.2382" width=".8599" height="13.983"/>
        <rect x="6.8875" y="3.9564" width=".8548" height=".74904" rx=".0588" ry=".0588"/>
       
       
        <rect x="8.5832" y="4.2382" width=".8599" height="13.983"/>
        <rect x="8.5874" y="3.9564" width=".8548" height=".74904" rx=".0588" ry=".0588"/>
       
      
      
       
        <rect x=".9928" y="5.6144" width="10.835" height="1.2554"/>
        <rect x=".666" y="5.6173" width="1.2051" height="1.2553" rx=".0904" ry=".0904"/>
        <rect x="10.766" y="5.6173" width="1.2561" height="1.2553" rx=".0904" ry=".0904"/>
       
       
        <rect x=".9928" y="7.8281" width="10.835" height=".9408"/>
        <rect x=".666" y="7.8303" width="1.2051" height=".94073" rx=".0904" ry=".0904"/>
        <rect x="10.766" y="7.8303" width="1.2561" height=".94073" rx=".0904" ry=".0904"/>
       
       
        <rect x=".9928" y="9.7139" width="10.835" height=".95497"/>
        <rect x=".666" y="9.7161" width="1.2051" height=".95489" rx=".0904" ry=".0904"/>
        <rect x="10.766" y="9.7161" width="1.2561" height=".95489" rx=".0904" ry=".0904"/>
       
       
        <rect x=".9928" y="11.614" width="10.835" height=".95497"/>
        <rect x=".666" y="11.616" width="1.2051" height=".95489" rx=".0904" ry=".0904"/>
        <rect x="10.766" y="11.616" width="1.2561" height=".95489" rx=".0904" ry=".0904"/>
       
       
        <rect x=".9928" y="13.514" width="10.835" height=".95497"/>
        <rect x=".666" y="13.516" width="1.2051" height=".95489" rx=".0904" ry=".0904"/>
        <rect x="10.766" y="13.516" width="1.2561" height=".95489" rx=".0904" ry=".0904"/>
       
      
     
     
      
       <rect x=".7914" y="15.924" width="11.21" height="2.5827"/>
       <rect x=".7886" y="15.417" width=".9294" height=".9122" rx=".0684" ry=".0684"/>
       <rect x="11.089" y="15.417" width=".9181" height=".9122" rx=".0684" ry=".0684"/>
       <rect x=".7886" y="18.017" width=".9294" height=".859" rx=".228" ry=".228"/>
       <rect x="11.089" y="18.017" width=".913" height=".859" rx=".228" ry=".228"/>
       <rect x="1.514" y="15.637" width="9.7677" height="3.0341"/>
       <rect x="1.1713" y="15.412" width="10.335" height="3.4641"/>
      
      
       <rect x=".6711" y="3.9541" width="3.1861" height="2.2342" rx=".4468" ry=".4468"/>
       <rect x="8.8665" y="3.9541" width="3.1505" height="2.2342" rx=".4468" ry=".4468"/>
      
     
    </g>
    
     
      <g fill="#323232">
       <rect x="4.1435" y="4.9226" width=".9369" height=".6921"/>
       <rect x="5.9435" y="4.9226" width=".9369" height=".6921"/>
       <rect x="7.7457" y="4.9226" width=".7951" height=".6921"/>
      </g>
      <g fill="none" stroke="#78786e">
       <path d="m4.1431 5.2274h0.9396" stroke-width=".25"/>
       <path d="m5.9433 5.1839c0.2943-0.0018 0.4559 0.1418 0.4746 0.4285" stroke-width=".0762"/>
      </g>
     
     <g fill="url(#linearGradient3164)">
      <rect x="4.1435" y="4.238" width=".9369" height=".6921"/>
      <rect x="5.9435" y="4.238" width=".9369" height=".6921"/>
      <rect x="7.7457" y="4.238" width=".7951" height=".6921"/>
     </g>
    
   
  <rect id="connector1" x="1.7852" y="20.73" width="1.4111" height="1.4111" fill="none"/><rect id="connector2" x="4.375" y="20.73" width="1.4111" height="1.4111" fill="none"/><rect id="connector3" x="6.832" y="20.797" width="1.4111" height="1.4111" fill="none"/><rect id="connector4" x="9.4218" y="20.73" width="1.4111" height="1.4111" fill="none"/></g>
</svg>
