<?xml version="1.0" encoding="UTF-8"?>
<!-- Generator: Adobe Illustrator 20.0.0, SVG Export Plug-In . SVG Version: 6.00 Build 0)  -->
<svg width=".55in" height=".55183in" baseProfile="tiny" version="1.2" viewBox="0 0 39.6 39.732" xml:space="preserve" xmlns="http://www.w3.org/2000/svg" xmlns:xml="http://www.w3.org/XML/1998/namespace">
    <desc>
        <referenceFile>flora uv v0.2_breadboard.svg</referenceFile>
    </desc>
    <desc>Fritzing breadboard generated by brd2svg</desc>
    <g id="breadboard">
        <g id="icon">
            <path d="m0 19.8c-2e-3 -10.935 8.862-19.801 19.797-19.803s19.801 8.862 19.803 19.797v6e-3c2e-3 10.935-8.862 19.801-19.797 19.803-10.935 1e-3 -19.801-8.862-19.803-19.797v-6e-3zm18.099-16.2c0 0.939 0.761 1.701 1.701 1.701s1.701-0.761 1.701-1.701-0.762-1.701-1.701-1.701-1.701 0.762-1.701 1.701zm14.04 7.92c0 0.939 0.761 1.701 1.701 1.701s1.701-0.761 1.701-1.701c0-0.939-0.761-1.701-1.701-1.701s-1.701 0.762-1.701 1.701zm-28.08 0c0 0.939 0.761 1.701 1.701 1.701s1.701-0.761 1.701-1.701-0.762-1.701-1.701-1.701-1.701 0.762-1.701 1.701zm28.08 16.56c0 0.939 0.761 1.701 1.701 1.701s1.701-0.761 1.701-1.701-0.761-1.701-1.701-1.701-1.701 0.762-1.701 1.701zm-28.08 0c0 0.939 0.761 1.701 1.701 1.701s1.701-0.761 1.701-1.701-0.761-1.701-1.701-1.701-1.701 0.762-1.701 1.701zm14.04 7.884c0 0.939 0.761 1.701 1.701 1.701s1.701-0.761 1.701-1.701c0-0.939-0.761-1.701-1.701-1.701s-1.701 0.762-1.701 1.701z" fill="#0A0A0A"/>
            <g>
                <title>layer 21</title>
                <g>
                    <title>text:3V</title>
                    <g transform="translate(17.137 33.956)">
                        
                            
                                
                                    <g transform="rotate(305)">
                                        
                                            
                                                
                                                    <g transform="translate(-4.407 -.3527)">
                                                        
                                                            
                                                                <text fill="#FFFFFF" font-family="'OCRA'" font-size="2.6726">3V</text>
                                                            
                                                        
                                                    </g>
                                                
                                            
                                        
                                    </g>
                                
                            
                        
                    </g>
                </g>
                <g>
                    <title>text:gnd</title>
                    <g transform="translate(15.467 9.2304)">
                        
                            
                                
                                    <g transform="rotate(60)">
                                        
                                            
                                                
                                                    <g transform="translate(-7.5454 -.4904)">
                                                        
                                                            
                                                                <text fill="#FFFFFF" font-family="'OCRA'" font-size="2.6726">gnd</text>
                                                            
                                                        
                                                    </g>
                                                
                                            
                                        
                                    </g>
                                
                            
                        
                    </g>
                </g>
                <g>
                    <title>text:SCL</title>
                    <g transform="translate(31.68 18.36)">
                        
                            
                                <text fill="#FFFFFF" font-family="'OCRA'" font-size="2.6726">SCL</text>
                            
                        
                    </g>
                </g>
                <g>
                    <title>text:SDA</title>
                    <g transform="translate(31.32 24.12)">
                        
                            
                                <text fill="#FFFFFF" font-family="'OCRA'" font-size="2.6726">SDA</text>
                            
                        
                    </g>
                </g>
                <g>
                    <title>text:SCL</title>
                    <g transform="translate(1.0318 18.276)">
                        
                            
                                <text fill="#FFFFFF" font-family="'OCRA'" font-size="2.6726">SCL</text>
                            
                        
                    </g>
                </g>
                <g>
                    <title>text:SDA</title>
                    <g transform="translate(.9353 23.94)">
                        
                            
                                <text fill="#FFFFFF" font-family="'OCRA'" font-size="2.6726">SDA</text>
                            
                        
                    </g>
                </g>
                <g>
                    <title>text:UV</title>
                    <g transform="translate(13.596 14.448)">
                        
                            
                                
                                    <g transform="rotate(270)">
                                        
                                            
                                                
                                                    <g transform="translate(-4.2188e-5)">
                                                        
                                                            
                                                                <text fill="#FFFFFF" font-family="'OCRA'" font-size="2.6726">UV</text>
                                                            
                                                        
                                                    </g>
                                                
                                            
                                        
                                    </g>
                                
                            
                        
                    </g>
                </g>
                <g>
                    <title>element:C2</title>
                    <g>
                        <title>package:0805-NO</title>
                        <line x1="26.64" x2="29.52" y1="18.72" y2="18.72" fill="none" stroke="#fff" stroke-linecap="round" stroke-width=".864"/>
                    </g>
                </g>
                <g>
                    <title>element:FID1</title>
                    <g>
                        <title>package:FIDUCIAL_1MM</title>
                    </g>
                </g>
                <g>
                    <title>element:FID2</title>
                    <g>
                        <title>package:FIDUCIAL_1MM</title>
                    </g>
                </g>
                <g>
                    <title>element:GND</title>
                    <g>
                        <title>package:SEWINGTAP_0.5</title>
                    </g>
                </g>
                <g>
                    <title>element:R2</title>
                    <g>
                        <title>package:0805-NO</title>
                        <line x1="19.8" x2="19.8" y1="26.64" y2="29.52" fill="none" stroke="#fff" stroke-linecap="round" stroke-width=".864"/>
                    </g>
                </g>
                <g>
                    <title>element:R3</title>
                    <g>
                        <title>package:0805-NO</title>
                        <line x1="19.8" x2="19.8" y1="10.08" y2="12.96" fill="none" stroke="#fff" stroke-linecap="round" stroke-width=".864"/>
                    </g>
                </g>
                <g>
                    <title>element:SCL1</title>
                    <g>
                        <title>package:SEWINGTAP_0.5</title>
                    </g>
                </g>
                <g>
                    <title>element:SCL2</title>
                    <g>
                        <title>package:SEWINGTAP_0.5</title>
                    </g>
                </g>
                <g>
                    <title>element:SDA1</title>
                    <g>
                        <title>package:SEWINGTAP_0.5</title>
                    </g>
                </g>
                <g>
                    <title>element:SDA2</title>
                    <g>
                        <title>package:SEWINGTAP_0.5</title>
                    </g>
                </g>
                <g>
                    <title>element:U$3</title>
                    <g>
                        <title>package:ADAFRUIT_2.5MM</title>
                    </g>
                </g>
                <g>
                    <title>element:U$4</title>
                    <g>
                        <title>package:ADAFRUIT_2.5MM</title>
                    </g>
                </g>
                <g>
                    <title>element:U1</title>
                    <g>
                        <title>package:SI114X</title>
                        <circle cx="22.351" cy="24.052" r=".401" fill="none" stroke="#fff" stroke-width="1.152"/>
                    </g>
                </g>
                <g>
                    <title>element:VCC</title>
                    <g>
                        <title>package:SEWINGTAP_0.5</title>
                    </g>
                </g>
            </g>
            <g transform="matrix(0 -1 1 0 6.6671 49.493)">
                
                    
                        
                            <g transform="matrix(-2.5352e-6 -1 1 -2.5352e-6 6.6671 49.493)">
                                
                                    
                                        <rect id="connector0pin" x="25.954" y="19.57" width="4.252" height="3.685" fill="#9A916C"/>
                                    
                                
                            </g>
                        
                    
                
            </g>
            <g transform="matrix(0 -1 1 0 12.053 44.107)">
                
                    
                        
                            <g transform="matrix(-2.5352e-6 -1 1 -2.5352e-6 12.053 44.107)">
                                
                                    
                                        <rect id="connector1pin" x="25.954" y="14.185" width="4.252" height="3.685" fill="#9A916C"/>
                                    
                                
                            </g>
                        
                    
                
            </g>
            <path id="connector2pin" d="m10.44 18.743c0.783 0 1.417 0.635 1.417 1.417 0 0.783-0.635 1.417-1.417 1.417-0.783 0-1.417-0.635-1.417-1.417 0-0.783 0.634-1.417 1.417-1.417z" fill="#9A916C"/>
            <path id="connector3pin" d="m28.08 31.703c0.783 0 1.417 0.635 1.417 1.417 0 0.783-0.635 1.417-1.417 1.417-0.783 0-1.417-0.635-1.417-1.417 0-0.783 0.634-1.417 1.417-1.417z" fill="#9A916C"/>
            <circle id="connector4pin" cx="19.8" cy="3.6" r="2.398" fill="none" stroke="#9A916C" stroke-width="1.3952"/>
            <rect id="connector5pin" x="15.265" y="25.954" width="3.685" height="4.252" fill="#9A916C"/>
            <rect id="connector6pin" x="20.65" y="25.954" width="3.685" height="4.252" fill="#9A916C"/>
            <rect id="connector7pin" x="15.265" y="9.394" width="3.685" height="4.252" fill="#9A916C"/>
            <rect id="connector8pin" x="20.65" y="9.394" width="3.685" height="4.252" fill="#9A916C"/>
            <circle id="connector9pin" cx="33.84" cy="11.52" r="2.398" fill="none" stroke="#9A916C" stroke-width="1.3952"/>
            <circle id="connector10pin" cx="5.76" cy="11.52" r="2.398" fill="none" stroke="#9A916C" stroke-width="1.3952"/>
            <circle id="connector11pin" cx="33.84" cy="28.08" r="2.398" fill="none" stroke="#9A916C" stroke-width="1.3952"/>
            <circle id="connector12pin" cx="5.76" cy="28.08" r="2.398" fill="none" stroke="#9A916C" stroke-width="1.3952"/>
            <g transform="matrix(0 1 -1 0 44.419 -.56693)">
                
                    
                        
                            <g transform="matrix(2.5352e-6 1 -1 2.5352e-6 44.419 -.5669)">
                                
                                    
                                        <rect id="connector13pin" x="21.359" y="21.558" width="2.268" height=".737" fill="#9A916C"/>
                                    
                                
                            </g>
                        
                    
                
            </g>
            <g transform="matrix(0 1 -1 0 43.002 -1.9843)">
                
                    
                        
                            <g transform="matrix(2.5352e-6 1 -1 2.5352e-6 43.002 -1.9843)">
                                
                                    
                                        <rect id="connector14pin" x="21.359" y="20.14" width="2.268" height=".737" fill="#9A916C"/>
                                    
                                
                            </g>
                        
                    
                
            </g>
            <g transform="matrix(0 1 -1 0 41.584 -3.4016)">
                
                    
                        
                            <g transform="matrix(2.5352e-6 1 -1 2.5352e-6 41.584 -3.4017)">
                                
                                    
                                        <rect id="connector15pin" x="21.359" y="18.723" width="2.268" height=".737" fill="#9A916C"/>
                                    
                                
                            </g>
                        
                    
                
            </g>
            <g transform="matrix(0 1 -1 0 40.167 -4.8189)">
                
                    
                        
                            <g transform="matrix(2.5352e-6 1 -1 2.5352e-6 40.167 -4.819)">
                                
                                    
                                        <rect id="connector16pin" x="21.359" y="17.305" width="2.268" height=".737" fill="#9A916C"/>
                                    
                                
                            </g>
                        
                    
                
            </g>
            <rect id="connector17pin" x="19.431" y="15.973" width=".737" height="2.268" fill="#9A916C"/>
            <g transform="matrix(0 -1 1 0 -.56693 34.781)">
                
                    
                        
                            <g transform="matrix(-2.5352e-6 -1 1 -2.5352e-6 -.5668 34.781)">
                                
                                    
                                        <rect id="connector18pin" x="15.973" y="17.305" width="2.268" height=".737" fill="#9A916C"/>
                                    
                                
                            </g>
                        
                    
                
            </g>
            <g transform="matrix(0 -1 1 0 -1.9843 36.198)">
                
                    
                        
                            <g transform="matrix(-2.5352e-6 -1 1 -2.5352e-6 -1.9841 36.198)">
                                
                                    
                                        <rect id="connector19pin" x="15.973" y="18.723" width="2.268" height=".737" fill="#9A916C"/>
                                    
                                
                            </g>
                        
                    
                
            </g>
            <g transform="matrix(0 -1 1 0 -3.4016 37.616)">
                
                    
                        
                            <g transform="matrix(-2.5352e-6 -1 1 -2.5352e-6 -3.4015 37.616)">
                                
                                    
                                        <rect id="connector20pin" x="15.973" y="20.14" width="2.268" height=".737" fill="#9A916C"/>
                                    
                                
                            </g>
                        
                    
                
            </g>
            <g transform="matrix(0 -1 1 0 -4.8189 39.033)">
                
                    
                        
                            <g transform="matrix(-2.5352e-6 -1 1 -2.5352e-6 -4.8189 39.033)">
                                
                                    
                                        <rect id="connector21pin" x="15.973" y="21.558" width="2.268" height=".737" fill="#9A916C"/>
                                    
                                
                            </g>
                        
                    
                
            </g>
            <rect id="connector22pin" x="19.431" y="21.359" width=".737" height="2.268" fill="#9A916C"/>
        </g>
        <g transform="translate(25.246 16.948)">
            
                
                    
                        <g transform="matrix(0 -1 1 0 1.063 4.606)">
                            
                                
                                    
                                        <path d="M5.386,3.543H0.283C0.127,3.543,0,3.416,0,3.26V0.283C0,0.127,0.127,0,0.283,0h5.102c0.157,0,0.283,0.127,0.283,0.283V3.26C5.669,3.416,5.542,3.543,5.386,3.543z" fill="#DCDCDC"/>
                                        <g transform="matrix(-2.5352e-6 -1 1 -2.5352e-6 1.063 4.606)">
                                            
                                                
                                                    <rect x="1.063" width="3.543" height="3.543" fill="#6E554B"/>
                                                
                                            
                                        </g>
                                    
                                
                            
                        </g>
                    
                
            
        </g>
        <g transform="translate(15.548 -.12015)">
            
                
                    
                        <path d="M4.252,7.164c2.426-0.558,4.252-3.201,4.252-6.115c0-0.129-0.022-0.251-0.029-0.378c-1.37-0.25-2.78-0.388-4.222-0.388S1.4,0.421,0.029,0.671C0.022,0.798,0,0.92,0,1.049C0,3.963,1.826,6.606,4.252,7.164z M4.252,2.336c0.855,0,1.548,0.693,1.548,1.548S5.107,5.432,4.252,5.432S2.704,4.738,2.704,3.883C2.704,3.029,3.397,2.336,4.252,2.336z" fill="#9A916C"/>
                    
                
            
        </g>
        <g transform="translate(16.966 26.308)">
            
                
                    
                        <path d="M5.386,3.543H0.283C0.127,3.543,0,3.416,0,3.26V0.283C0,0.127,0.127,0,0.283,0h5.102c0.157,0,0.283,0.127,0.283,0.283V3.26C5.669,3.416,5.542,3.543,5.386,3.543z" fill="#DCDCDC"/>
                        <rect x="1.063" width="3.543" height="3.543" fill="#333"/>
                    
                
            
        </g>
        <g transform="translate(16.966 9.7485)">
            
                
                    
                        <path d="M5.386,3.543H0.283C0.127,3.543,0,3.416,0,3.26V0.283C0,0.127,0.127,0,0.283,0h5.102c0.157,0,0.283,0.127,0.283,0.283V3.26C5.669,3.416,5.542,3.543,5.386,3.543z" fill="#DCDCDC"/>
                        <rect x="1.063" width="3.543" height="3.543" fill="#333"/>
                    
                
            
        </g>
        <g transform="translate(29.708 7.869)">
            
                
                    
                        <g transform="matrix(.5 .86602 -.86602 .5 5.2281 -1.8913)">
                            
                                
                                    
                                        <path d="m4.252 7.164c2.426-0.558 4.252-3.201 4.252-6.115 0-0.129-0.022-0.251-0.029-0.378-1.37-0.25-2.78-0.388-4.222-0.388s-2.853 0.138-4.224 0.388c-7e-3 0.127-0.029 0.249-0.029 0.378 0 2.914 1.826 5.557 4.252 6.115zm0-4.828c0.855 0 1.548 0.693 1.548 1.548s-0.693 1.548-1.548 1.548-1.548-0.694-1.548-1.549c0-0.854 0.693-1.547 1.548-1.547z" fill="#9A916C"/>
                                    
                                
                            
                        </g>
                    
                
            
        </g>
        <g transform="translate(1.3884 7.869)">
            
                
                    
                        <g transform="matrix(.5 -.86602 .86602 .5 -.9761 5.4733)">
                            
                                
                                    
                                        <path d="m4.252 7.164c2.426-0.558 4.252-3.201 4.252-6.115 0-0.129-0.022-0.251-0.029-0.378-1.37-0.25-2.78-0.388-4.222-0.388s-2.853 0.138-4.224 0.388c-7e-3 0.127-0.029 0.249-0.029 0.378 0 2.914 1.826 5.557 4.252 6.115zm0-4.828c0.855 0 1.548 0.693 1.548 1.548s-0.693 1.548-1.548 1.548-1.548-0.694-1.548-1.549c0-0.854 0.693-1.547 1.548-1.547z" fill="#9A916C"/>
                                    
                                
                            
                        </g>
                    
                
            
        </g>
        <g transform="translate(29.708 24.567)">
            
                
                    
                        <g transform="matrix(-.5 .86602 -.86602 -.5 9.4801 1.6907)">
                            
                                
                                    
                                        <path d="m4.252 7.164c2.426-0.558 4.252-3.201 4.252-6.115 0-0.129-0.022-0.251-0.029-0.378-1.37-0.25-2.78-0.388-4.222-0.388s-2.853 0.138-4.224 0.388c-7e-3 0.127-0.029 0.249-0.029 0.378 0 2.914 1.826 5.557 4.252 6.115zm0-4.828c0.855 0 1.548 0.693 1.548 1.548s-0.693 1.548-1.548 1.548-1.548-0.694-1.548-1.549c0-0.854 0.693-1.547 1.548-1.547z" fill="#9A916C"/>
                                    
                                
                            
                        </g>
                    
                
            
        </g>
        <g transform="translate(1.3884 24.567)">
            
                
                    
                        <g transform="matrix(-.5 -.86602 .86602 -.5 3.2759 9.0554)">
                            
                                
                                    
                                        <path d="m4.252 7.164c2.426-0.558 4.252-3.201 4.252-6.115 0-0.129-0.022-0.251-0.029-0.378-1.37-0.25-2.78-0.388-4.222-0.388s-2.853 0.138-4.224 0.388c-7e-3 0.127-0.029 0.249-0.029 0.378 0 2.914 1.826 5.557 4.252 6.115zm0-4.828c0.855 0 1.548 0.693 1.548 1.548s-0.693 1.548-1.548 1.548-1.548-0.694-1.548-1.549c0-0.854 0.693-1.547 1.548-1.547z" fill="#9A916C"/>
                                    
                                
                            
                        </g>
                    
                
            
        </g>
        <g transform="translate(21.245 2.1036)">
            
                
                    
                        <path d="m9.747 3.082c-0.023-0.142-0.1-0.183-0.286-0.243-0.142-0.045-1.089-0.347-1.089-0.347s-0.66-0.249-1.15 0.103c-0.066 0.048-0.134 0.102-0.203 0.16 0.058-0.069 0.112-0.137 0.159-0.203 0.352-0.49 0.101-1.15 0.101-1.15s-0.303-0.947-0.349-1.089c-0.06-0.186-0.1-0.263-0.243-0.285-0.142-0.023-0.204 0.038-0.318 0.197-0.087 0.12-0.667 0.928-0.667 0.928s-0.441 0.551-0.257 1.126c0.025 0.077 0.055 0.159 0.089 0.242-0.048-0.076-0.096-0.149-0.144-0.214-0.358-0.486-1.062-0.452-1.062-0.452s-0.995-4e-3 -1.143-4e-3c-0.195 0-0.281 0.014-0.347 0.143-0.065 0.128-0.027 0.206 0.089 0.364 0.088 0.12 0.677 0.921 0.677 0.921s0.388 0.59 0.991 0.592c0.081 0 0.168-3e-3 0.257-0.01-0.087 0.022-0.171 0.046-0.248 0.071-0.573 0.19-0.758 0.871-0.758 0.871s-0.31 0.944-0.357 1.085c-0.061 0.186-0.073 0.272 0.029 0.374s0.188 0.09 0.374 0.028c0.141-0.046 1.085-0.359 1.085-0.359s0.681-0.187 0.869-0.76c0.025-0.077 0.049-0.16 0.07-0.247-6e-3 0.09-9e-3 0.176-9e-3 0.257 4e-3 0.603 0.594 0.99 0.594 0.99s0.802 0.588 0.922 0.675c0.158 0.116 0.236 0.154 0.365 0.089 0.128-0.066 0.143-0.152 0.142-0.347-1e-3 -0.149-6e-3 -1.143-6e-3 -1.143s0.033-0.705-0.454-1.062c-0.065-0.048-0.138-0.096-0.214-0.143 0.083 0.034 0.165 0.064 0.242 0.088 0.575 0.183 1.125-0.259 1.125-0.259s0.807-0.581 0.927-0.668c0.159-0.115 0.219-0.177 0.197-0.319zm-3.425-0.732c0.108 0.017 0.162 0.248 0.12 0.515s-0.164 0.47-0.273 0.453c-0.108-0.017-0.162-0.248-0.12-0.515 0.042-0.268 0.164-0.471 0.273-0.453zm-1.389 0.709c0.05-0.098 0.286-0.078 0.527 0.045s0.397 0.302 0.347 0.399c-0.05 0.098-0.286 0.078-0.527-0.045-0.242-0.123-0.397-0.301-0.347-0.399zm0.732 1.334c-0.191 0.191-0.409 0.284-0.487 0.206-0.077-0.078 0.015-0.296 0.206-0.487 0.191-0.192 0.409-0.285 0.487-0.207s-0.014 0.296-0.206 0.488zm1.054 0.449c-0.098 0.05-0.277-0.105-0.4-0.346-0.123-0.242-0.144-0.478-0.046-0.528s0.277 0.105 0.4 0.346c0.123 0.242 0.144 0.478 0.046 0.528zm0.254-1.117c-0.267 0.042-0.498-0.011-0.516-0.119-0.017-0.109 0.186-0.231 0.453-0.274s0.498 0.011 0.515 0.119c0.018 0.109-0.185 0.231-0.452 0.274z" fill="#DCDCDC"/>
                    
                
            
        </g>
        <g transform="translate(16.966 17.596)">
            
                
                    
                        <g transform="matrix(-1 0 0 -1 5.669 5.669)">
                            
                                
                                    
                                        <rect y=".63" width="5.669" height="5.669" fill="#C8C8C8"/>
                                        <rect y=".984" width=".992" height=".709" fill="#DCDCDC"/>
                                        <rect x="4.677" y=".984" width=".992" height=".709" fill="#DCDCDC"/>
                                        <polygon points="0 5.236 0 5.945 2.48 5.945 2.48 6.299 3.189 6.299 3.189 5.945 5.669 5.945 5.669 5.236 3.189 5.236 3.189 4.528 5.669 4.528 5.669 3.819 3.189 3.819 3.189 3.11 5.669 3.11 5.669 2.402 3.189 2.402 3.189 0.63 2.48 0.63 2.48 2.402 0 2.402 0 3.11 2.48 3.11 2.48 3.819 0 3.819 0 4.528 2.48 4.528 2.48 5.236" fill="#DCDCDC"/>
                                        <rect x=".992" y="1.339" width="3.685" height="4.606" fill="#646464"/>
                                    
                                
                            
                        </g>
                    
                
            
        </g>
        <g transform="translate(15.548 32.916)">
            
                
                    
                        <g transform="matrix(-1 0 0 -1 8.504 7.164)">
                            
                                
                                    
                                        <path id="connector23pin" d="M4.252,7.456c2.426-0.558,4.252-3.201,4.252-6.115c0-0.129-0.022-0.251-0.029-0.378c-1.37-0.25-2.78-0.388-4.222-0.388S1.4,0.713,0.029,0.963C0.022,1.09,0,1.212,0,1.341C0,4.255,1.826,6.898,4.252,7.456z M4.252,2.628c0.855,0,1.548,0.693,1.548,1.548S5.107,5.724,4.252,5.724S2.704,5.03,2.704,4.175C2.704,3.321,3.397,2.628,4.252,2.628z" fill="#9A916C"/>
                                    
                                
                            
                        </g>
                    
                
            
        </g>
    </g>
</svg>
