<?xml version="1.0" encoding="UTF-8"?>
<!-- Created with Inkscape (http://www.inkscape.org/) -->
<svg width="1098" height="270" version="1.1" xmlns="http://www.w3.org/2000/svg">
 <defs>
  <linearGradient id="linearGradient90349">
   <stop stop-color="#262626" offset="0"/>
   <stop stop-color="#5f5f5f" offset=".5"/>
   <stop stop-color="#2c2c2c" offset="1"/>
  </linearGradient>
  <linearGradient id="linearGradient90211">
   <stop stop-opacity="0" offset="0"/>
   <stop stop-color="#d9d9d9" stop-opacity=".19608" offset=".083333"/>
   <stop stop-opacity="0" offset=".22222"/>
   <stop stop-opacity="0" offset=".77778"/>
   <stop stop-color="#c0c0c0" stop-opacity=".19608" offset=".91667"/>
   <stop stop-opacity="0" offset="1"/>
  </linearGradient>
  <linearGradient id="linearGradient90134">
   <stop stop-color="#fff" stop-opacity="0" offset="0"/>
   <stop stop-color="#ddd" stop-opacity=".50893" offset=".025"/>
   <stop stop-color="#bcbcbc" stop-opacity="0" offset=".075"/>
   <stop stop-color="#9a9a9a" stop-opacity=".053571" offset=".5375"/>
   <stop stop-color="#797979" stop-opacity=".044643" offset="1"/>
  </linearGradient>
  <linearGradient id="linearGradient90122">
   <stop stop-color="#fff" stop-opacity="0" offset="0"/>
   <stop stop-color="#ddd" stop-opacity=".66964" offset=".05"/>
   <stop stop-color="#333" stop-opacity="0" offset=".15"/>
   <stop stop-color="#797979" stop-opacity="0" offset="1"/>
  </linearGradient>
  <linearGradient id="linearGradient90120" x1="369" x2="369" y1="782.36" y2="962.36" gradientTransform="translate(175.5 -467.36)" gradientUnits="userSpaceOnUse" xlink:href="#linearGradient90122" xmlns:xlink="http://www.w3.org/1999/xlink"/>
  <linearGradient id="linearGradient90132" x1="180" x2="540" y1="872.36" y2="872.36" gradientTransform="translate(175.5 -467.36)" gradientUnits="userSpaceOnUse" xlink:href="#linearGradient90134" xmlns:xlink="http://www.w3.org/1999/xlink"/>
  <linearGradient id="linearGradient90160" x1="180" x2="540" y1="872.36" y2="872.36" gradientTransform="translate(-895.5 -1277.4)" gradientUnits="userSpaceOnUse" xlink:href="#linearGradient90134" xmlns:xlink="http://www.w3.org/1999/xlink"/>
  <linearGradient id="linearGradient90164" x1="369" x2="369" y1="782.36" y2="962.36" gradientTransform="translate(-895.5 -1277.4)" gradientUnits="userSpaceOnUse" xlink:href="#linearGradient90122" xmlns:xlink="http://www.w3.org/1999/xlink"/>
  <linearGradient id="linearGradient90378" x1="135" x2="135" y1="327.6" y2="392.4" gradientUnits="userSpaceOnUse" xlink:href="#linearGradient90211" xmlns:xlink="http://www.w3.org/1999/xlink"/>
  <linearGradient id="linearGradient90384" x1="36" x2="36" y1="378" y2="342" gradientTransform="matrix(.66667 0 0 1 775.5 45)" gradientUnits="userSpaceOnUse" xlink:href="#linearGradient90349" xmlns:xlink="http://www.w3.org/1999/xlink"/>
  <linearGradient id="linearGradient90390" x1="36" x2="36" y1="378" y2="342" gradientTransform="matrix(.7 0 0 1 229.5 45)" gradientUnits="userSpaceOnUse" xlink:href="#linearGradient90349" xmlns:xlink="http://www.w3.org/1999/xlink"/>
  <linearGradient id="linearGradient90450" x1="31.877" x2="64.183" y1="494.18" y2="605.02" gradientUnits="userSpaceOnUse" xlink:href="#linearGradient90349" xmlns:xlink="http://www.w3.org/1999/xlink"/>
  <linearGradient id="linearGradient90452" x1="73.457" x2="72.966" y1="448.88" y2="494.91" gradientUnits="userSpaceOnUse" xlink:href="#linearGradient90349" xmlns:xlink="http://www.w3.org/1999/xlink"/>
  <linearGradient id="linearGradient90487" x1="9" x2="22.5" y1="504" y2="558" gradientTransform="translate(1017,-123.75)" gradientUnits="userSpaceOnUse" xmlns:xlink="http://www.w3.org/1999/xlink">
   <stop stop-color="#9c9c9c" offset="0"/>
   <stop stop-color="#c9c9c9" offset=".5"/>
   <stop stop-color="#a6a6a6" offset="1"/>
  </linearGradient>
  <linearGradient id="linearGradient90497" x1="40.5" x2="40.5" y1="522" y2="540" gradientTransform="translate(1008,-171)" gradientUnits="userSpaceOnUse" xmlns:xlink="http://www.w3.org/1999/xlink">
   <stop stop-color="#9c9c9c" offset="0"/>
   <stop stop-color="#c9c9c9" offset=".25"/>
   <stop stop-color="#a6a6a6" offset="1"/>
  </linearGradient>
  <linearGradient id="linearGradient90940" x1="549" x2="567" y1="414" y2="508.5" gradientTransform="translate(-4.5 45)" gradientUnits="userSpaceOnUse" xlink:href="#linearGradient90349" xmlns:xlink="http://www.w3.org/1999/xlink"/>
 </defs>
 <metadata>
  <rdf:RDF xmlns:rdf="http://www.w3.org/1999/02/22-rdf-syntax-ns#">
   <cc:Work rdf:about="" xmlns:cc="http://creativecommons.org/ns#" xmlns:rdf="http://www.w3.org/1999/02/22-rdf-syntax-ns#">
    <dc:format xmlns:dc="http://purl.org/dc/elements/1.1/">image/svg+xml</dc:format>
    <dc:type rdf:resource="http://purl.org/dc/dcmitype/StillImage" xmlns:dc="http://purl.org/dc/elements/1.1/" xmlns:rdf="http://www.w3.org/1999/02/22-rdf-syntax-ns#"/>
    <dc:title xmlns:dc="http://purl.org/dc/elements/1.1/"/>
   </cc:Work>
  </rdf:RDF>
 </metadata>
 <g transform="translate(0,-270)">
  <g id="breadboard">
   <rect transform="translate(0 -512.36)" x="495" y="996.11" width="9" height="18" rx="4.5" fill="#ff2a2a" fill-rule="evenodd" stroke="#888" stroke-width=".18"/>
   <path transform="translate(0 -512.36)" d="m445.5 845.36c9.972 0 18-8.028 18-18v-18c0-9.972-8.028-18-18-18s-18 8.028-18 18v18c0 9.972 8.028 18 18 18zm0-27c-4.9706 0-9-4.0294-9-9s4.0294-9 9-9 9 4.0294 9 9-4.0294 9-9 9z" fill="#333"/>
   <path transform="translate(0,270)" d="m625.5 207c-9.972 0-18 8.028-18 18v18c0 9.972 8.028 18 18 18s18-8.028 18-18v-18c0-9.972-8.028-18-18-18zm0 27c4.9706 0 9 4.0294 9 9s-4.0294 9-9 9-9-4.0294-9-9 4.0294-9 9-9z" fill="#333"/>
   <rect transform="translate(0 -512.36)" x="355.5" y="827.36" width="360" height="180" rx="22.5" fill="#333" stroke="#000" stroke-width="1.8"/>
   <rect transform="translate(0 -512.36)" y="908.36" width="18" height="18" fill="none"/>
   <rect transform="translate(0 -512.36)" x="1008" y="908.36" width="18" height="18" fill="none"/>
   <rect x="355.5" y="315" width="360" height="180" rx="22.5" fill="url(#linearGradient90132)" opacity=".5"/>
   <rect transform="scale(-1)" x="-715.5" y="-495" width="360" height="180" rx="22.5" fill="url(#linearGradient90160)" opacity=".28"/>
   <rect x="355.5" y="315" width="360" height="180" rx="22.5" fill="url(#linearGradient90120)" opacity=".4"/>
   <rect transform="scale(-1)" x="-715.5" y="-495" width="360" height="180" rx="22.5" fill="url(#linearGradient90164)" opacity=".28"/>
   <path d="m355.5 405h-189" color="#000000" fill-opacity=".7663" fill-rule="evenodd" stroke="url(#linearGradient90390)" stroke-dashoffset=".288" stroke-linejoin="round" stroke-width="36"/>
   <path d="m895.5 405h-180" color="#000000" fill-opacity=".7663" fill-rule="evenodd" stroke="url(#linearGradient90384)" stroke-dashoffset=".288" stroke-linejoin="round" stroke-width="36"/>
   <path d="m531 459c-7.479 0-13.5 6.021-13.5 13.5v22.5h72v-22.5c0-7.479-6.021-13.5-13.5-13.5h-45z" fill="url(#linearGradient90940)" fill-rule="evenodd" stroke="#000" stroke-dashoffset=".288" stroke-linejoin="round" stroke-width=".18"/>
   <rect id="connector1pin" x="531" y="490.5" width="9" height="9" fill="none"/>
   <rect id="connector2pin" x="549" y="490.5" width="9" height="9" fill="none"/>
   <rect id="connector3pin" x="567" y="490.5" width="9" height="9" fill="none"/>
   <rect x="1008" y="351" width="81" height="18" rx="9" fill="url(#linearGradient90497)" fill-rule="evenodd" stroke="#000" stroke-dashoffset=".288" stroke-linejoin="round" stroke-width=".45"/>
   <g transform="translate(895.5,-112.5)" fill-rule="evenodd" stroke="#000" stroke-dashoffset=".288" stroke-linejoin="round" stroke-width=".45">
    <rect y="495" width="121.5" height="45" fill="#333"/>
    <path d="m67.5 450h54v45h-99m0 0c1e-6 -24.853 20.147-45 45-45" color="#000000" fill="#333" stroke-linecap="round"/>
    <rect y="495" width="121.5" height="45" fill="url(#linearGradient90450)"/>
    <path d="m67.5 450h54v45h-99m0 0c1e-6 -24.853 20.147-45 45-45" color="#000000" fill="url(#linearGradient90452)" stroke-linecap="round"/>
   </g>
   <path d="m1017 393.75v22.5h54l4.5-2.25v-18l-4.5-2.25h-54zm40.5 4.5c3.7279 0 6.75 3.0221 6.75 6.75s-3.0221 6.75-6.75 6.75-6.75-3.0221-6.75-6.75 3.0221-6.75 6.75-6.75z" color="#000000" fill="url(#linearGradient90487)" fill-rule="evenodd" stroke="#000" stroke-dashoffset=".288" stroke-linecap="round" stroke-linejoin="round" stroke-width=".45"/>
   <g transform="matrix(-1.2963 0 0 1 166.5 -112.5)" fill-rule="evenodd" stroke="#000" stroke-dashoffset=".288" stroke-linejoin="round" stroke-width=".45">
    <rect y="495" width="121.5" height="45" fill="#333"/>
    <path d="m67.5 450h54v45h-99m0 0c1e-6 -24.853 20.147-45 45-45" color="#000000" fill="#333" stroke-linecap="round"/>
    <rect y="495" width="121.5" height="45" fill="url(#linearGradient90450)"/>
    <path d="m67.5 450h54v45h-99m0 0c1e-6 -24.853 20.147-45 45-45" color="#000000" fill="url(#linearGradient90452)" stroke-linecap="round"/>
   </g>
   <path transform="translate(-4.5 45)" d="m547.65 432a7.65 7.65 0 1 1-15.3 0 7.65 7.65 0 1 1 15.3 0z" fill="#1a1a1a" fill-opacity=".74457" fill-rule="evenodd" stroke="#000" stroke-dashoffset=".288" stroke-linejoin="round" stroke-width=".18"/>
   <path transform="translate(13.455,45)" d="m547.65 432a7.65 7.65 0 1 1-15.3 0 7.65 7.65 0 1 1 15.3 0z" fill="#1a1a1a" fill-opacity=".74457" fill-rule="evenodd" stroke="#000" stroke-dashoffset=".288" stroke-linejoin="round" stroke-width=".18"/>
   <path transform="translate(31.455,45)" d="m547.65 432a7.65 7.65 0 1 1-15.3 0 7.65 7.65 0 1 1 15.3 0z" fill="#1a1a1a" fill-opacity=".74457" fill-rule="evenodd" stroke="#000" stroke-dashoffset=".288" stroke-linejoin="round" stroke-width=".18"/>
   <g transform="translate(175.5 45)" fill-rule="evenodd" stroke="#000" stroke-dashoffset=".288" stroke-linecap="round" stroke-linejoin="round" stroke-width=".094393">
    <path d="m180 327.59-9.0312 0.15625v17c0 0.9972-0.8153 1.7812-1.8125 1.7812h-5.4062c-0.9972 0-1.7812-0.78405-1.7812-1.7812v-16.812l-8.9688 0.15625v16.594c0 0.9972-0.8153 1.8125-1.8125 1.8125h-5.375c-0.9972 0-1.8125-0.8153-1.8125-1.8125v-16.438l-9 0.15625v16.281c0 0.9972-0.8153 1.8125-1.8125 1.8125h-5.375c-0.9972 0-1.8125-0.8153-1.8125-1.8125v-16.094l-9 0.15625v15.938c0 0.9972-0.8153 1.8125-1.8125 1.8125h-5.375c-0.9972 0-1.8125-0.8153-1.8125-1.8125v-15.781l-9 0.15625v15.625c0 0.9972-0.8153 1.8125-1.8125 1.8125h-5.375c-0.9972 0-1.8125-0.8153-1.8125-1.8125v-15.438l-9 0.15625v61.188l9.0312 0.15625v-15.5c0-0.0103-1.74e-4 -0.021 0-0.0312 0-0.0101-1.64e-4 -0.0212 0-0.0312 4e-3 -0.11798 0.03671-0.23316 0.0625-0.34375 0.01986-0.0975 0.0589-0.19024 0.09375-0.28125 0.16985-0.44357 0.50654-0.77502 0.9375-0.96875 0.22563-0.10143 0.45449-0.1875 0.71875-0.1875h5.4062c0.769 0 1.3975 0.48044 1.6562 1.1562 0.08909 0.21374 0.125 0.4382 0.125 0.6875v15.688l9 0.15625v-15.844-0.0312c0-0.0101-1.6e-4 -0.0212 0-0.0312 4e-3 -0.11798 0.0367-0.23316 0.0625-0.34375 0.0199-0.0975 0.0589-0.19024 0.0937-0.28125 0.16985-0.44357 0.50654-0.77502 0.9375-0.96875 0.22563-0.10143 0.45449-0.1875 0.71875-0.1875h5.4062c0.76899 0 1.3975 0.48044 1.6562 1.1562 0.0854 0.20489 0.12113 0.41834 0.125 0.65625v0.0312 16l9 0.15625v-16.156-0.0312c0-0.0101-1.6e-4 -0.0212 0-0.0312 4e-3 -0.11798 0.0367-0.23316 0.0625-0.34375 0.0199-0.0975 0.0589-0.19024 0.0937-0.28125 0.16985-0.44357 0.50654-0.77502 0.9375-0.96875 0.22563-0.10143 0.45449-0.1875 0.71875-0.1875h5.4062c0.76899 0 1.3975 0.48044 1.6562 1.1562 0.0854 0.20489 0.12113 0.41834 0.125 0.65625v0.0312 16.344l9 0.15625v-16.5-0.0312c0-0.0101-1.6e-4 -0.0212 0-0.0312 4e-3 -0.11798 0.0367-0.23316 0.0625-0.34375 0.0198-0.0975 0.0589-0.19024 0.0937-0.28125 0.16985-0.44357 0.50654-0.77502 0.9375-0.96875 0.22563-0.10143 0.45449-0.1875 0.71875-0.1875h5.4062c0.76899 0 1.3975 0.48044 1.6562 1.1562 0.0854 0.20489 0.12113 0.41834 0.125 0.65625v0.0312 16.656l8.9688 0.15625v-16.75c0-0.0206-6.9e-4 -0.042 0-0.0625 0-0.11341 0.0114-0.20501 0.0312-0.3125 2e-3 -9e-3 -2e-3 -0.0218 0-0.0312 0.022-0.10796 0.0847-0.21261 0.125-0.3125 4e-3 -9e-3 -4e-3 -0.0221 0-0.0312 0.27253-0.64648 0.90835-1.0938 1.6562-1.0938h5.375c0.7479 0 1.3837 0.44727 1.6562 1.0938 0.0995 0.22396 0.15625 0.49012 0.15625 0.75v16.938l9 0.15625v-64.812z" color="#000000" fill="#333"/>
    <path d="m180 327.59-9.0312 0.15625v17c0 0.9972-0.8153 1.7812-1.8125 1.7812h-5.4062c-0.9972 0-1.7812-0.78405-1.7812-1.7812v-16.812l-8.9688 0.15625v16.594c0 0.9972-0.8153 1.8125-1.8125 1.8125h-5.375c-0.9972 0-1.8125-0.8153-1.8125-1.8125v-16.438l-9 0.15625v16.281c0 0.9972-0.8153 1.8125-1.8125 1.8125h-5.375c-0.9972 0-1.8125-0.8153-1.8125-1.8125v-16.094l-9 0.15625v15.938c0 0.9972-0.8153 1.8125-1.8125 1.8125h-5.375c-0.9972 0-1.8125-0.8153-1.8125-1.8125v-15.781l-9 0.15625v15.625c0 0.9972-0.8153 1.8125-1.8125 1.8125h-5.375c-0.9972 0-1.8125-0.8153-1.8125-1.8125v-15.438l-9 0.15625v61.188l9.0312 0.15625v-15.5c0-0.0103-1.74e-4 -0.021 0-0.0312 0-0.0101-1.64e-4 -0.0212 0-0.0312 4e-3 -0.11798 0.03671-0.23316 0.0625-0.34375 0.01986-0.0975 0.0589-0.19024 0.09375-0.28125 0.16985-0.44357 0.50654-0.77502 0.9375-0.96875 0.22563-0.10143 0.45449-0.1875 0.71875-0.1875h5.4062c0.769 0 1.3975 0.48044 1.6562 1.1562 0.08909 0.21374 0.125 0.4382 0.125 0.6875v15.688l9 0.15625v-15.844-0.0312c0-0.0101-1.6e-4 -0.0212 0-0.0312 4e-3 -0.11798 0.0367-0.23316 0.0625-0.34375 0.0199-0.0975 0.0589-0.19024 0.0937-0.28125 0.16985-0.44357 0.50654-0.77502 0.9375-0.96875 0.22563-0.10143 0.45449-0.1875 0.71875-0.1875h5.4062c0.76899 0 1.3975 0.48044 1.6562 1.1562 0.0854 0.20489 0.12113 0.41834 0.125 0.65625v0.0312 16l9 0.15625v-16.156-0.0312c0-0.0101-1.6e-4 -0.0212 0-0.0312 4e-3 -0.11798 0.0367-0.23316 0.0625-0.34375 0.0199-0.0975 0.0589-0.19024 0.0937-0.28125 0.16985-0.44357 0.50654-0.77502 0.9375-0.96875 0.22563-0.10143 0.45449-0.1875 0.71875-0.1875h5.4062c0.76899 0 1.3975 0.48044 1.6562 1.1562 0.0854 0.20489 0.12113 0.41834 0.125 0.65625v0.0312 16.344l9 0.15625v-16.5-0.0312c0-0.0101-1.6e-4 -0.0212 0-0.0312 4e-3 -0.11798 0.0367-0.23316 0.0625-0.34375 0.0198-0.0975 0.0589-0.19024 0.0937-0.28125 0.16985-0.44357 0.50654-0.77502 0.9375-0.96875 0.22563-0.10143 0.45449-0.1875 0.71875-0.1875h5.4062c0.76899 0 1.3975 0.48044 1.6562 1.1562 0.0854 0.20489 0.12113 0.41834 0.125 0.65625v0.0312 16.656l8.9688 0.15625v-16.75c0-0.0206-6.9e-4 -0.042 0-0.0625 0-0.11341 0.0114-0.20501 0.0312-0.3125 2e-3 -9e-3 -2e-3 -0.0218 0-0.0312 0.022-0.10796 0.0847-0.21261 0.125-0.3125 4e-3 -9e-3 -4e-3 -0.0221 0-0.0312 0.27253-0.64648 0.90835-1.0938 1.6562-1.0938h5.375c0.7479 0 1.3837 0.44727 1.6562 1.0938 0.0995 0.22396 0.15625 0.49012 0.15625 0.75v16.938l9 0.15625v-64.812z" color="#000000" fill="url(#linearGradient90378)"/>
    <path d="m180 327.59-9.0312 0.15625v17c0 0.9972-0.8153 1.7812-1.8125 1.7812h-5.4062c-0.9972 0-1.7812-0.78405-1.7812-1.7812v-16.812l-8.9688 0.15625v16.594c0 0.9972-0.8153 1.8125-1.8125 1.8125h-5.375c-0.9972 0-1.8125-0.8153-1.8125-1.8125v-16.438l-9 0.15625v16.281c0 0.9972-0.8153 1.8125-1.8125 1.8125h-5.375c-0.9972 0-1.8125-0.8153-1.8125-1.8125v-16.094l-9 0.15625v15.938c0 0.9972-0.8153 1.8125-1.8125 1.8125h-5.375c-0.9972 0-1.8125-0.8153-1.8125-1.8125v-15.781l-9 0.15625v15.625c0 0.9972-0.8153 1.8125-1.8125 1.8125h-5.375c-0.9972 0-1.8125-0.8153-1.8125-1.8125v-15.438l-9 0.15625v61.188l9.0312 0.15625v-15.5c0-0.0103-1.74e-4 -0.021 0-0.0312 0-0.0101-1.64e-4 -0.0212 0-0.0312 4e-3 -0.11798 0.03671-0.23316 0.0625-0.34375 0.01986-0.0975 0.0589-0.19024 0.09375-0.28125 0.16985-0.44357 0.50654-0.77502 0.9375-0.96875 0.22563-0.10143 0.45449-0.1875 0.71875-0.1875h5.4062c0.769 0 1.3975 0.48044 1.6562 1.1562 0.08909 0.21374 0.125 0.4382 0.125 0.6875v15.688l9 0.15625v-15.844-0.0312c0-0.0101-1.6e-4 -0.0212 0-0.0312 4e-3 -0.11798 0.0367-0.23316 0.0625-0.34375 0.0199-0.0975 0.0589-0.19024 0.0937-0.28125 0.16985-0.44357 0.50654-0.77502 0.9375-0.96875 0.22563-0.10143 0.45449-0.1875 0.71875-0.1875h5.4062c0.76899 0 1.3975 0.48044 1.6562 1.1562 0.0854 0.20489 0.12113 0.41834 0.125 0.65625v0.0312 16l9 0.15625v-16.156-0.0312c0-0.0101-1.6e-4 -0.0212 0-0.0312 4e-3 -0.11798 0.0367-0.23316 0.0625-0.34375 0.0199-0.0975 0.0589-0.19024 0.0937-0.28125 0.16985-0.44357 0.50654-0.77502 0.9375-0.96875 0.22563-0.10143 0.45449-0.1875 0.71875-0.1875h5.4062c0.76899 0 1.3975 0.48044 1.6562 1.1562 0.0854 0.20489 0.12113 0.41834 0.125 0.65625v0.0312 16.344l9 0.15625v-16.5-0.0312c0-0.0101-1.6e-4 -0.0212 0-0.0312 4e-3 -0.11798 0.0367-0.23316 0.0625-0.34375 0.0198-0.0975 0.0589-0.19024 0.0937-0.28125 0.16985-0.44357 0.50654-0.77502 0.9375-0.96875 0.22563-0.10143 0.45449-0.1875 0.71875-0.1875h5.4062c0.76899 0 1.3975 0.48044 1.6562 1.1562 0.0854 0.20489 0.12113 0.41834 0.125 0.65625v0.0312 16.656l8.9688 0.15625v-16.75c0-0.0206-6.9e-4 -0.042 0-0.0625 0-0.11341 0.0114-0.20501 0.0312-0.3125 2e-3 -9e-3 -2e-3 -0.0218 0-0.0312 0.022-0.10796 0.0847-0.21261 0.125-0.3125 4e-3 -9e-3 -4e-3 -0.0221 0-0.0312 0.27253-0.64648 0.90835-1.0938 1.6562-1.0938h5.375c0.7479 0 1.3837 0.44727 1.6562 1.0938 0.0995 0.22396 0.15625 0.49012 0.15625 0.75v16.938l9 0.15625v-64.812z" color="#000000" fill="url(#linearGradient90378)"/>
   </g>
   <g transform="matrix(-1 0 0 -1 895.47 765)" fill-rule="evenodd" stroke="#000" stroke-dashoffset=".288" stroke-linecap="round" stroke-linejoin="round" stroke-width=".094393">
    <path d="m180 327.59-9.0312 0.15625v17c0 0.9972-0.8153 1.7812-1.8125 1.7812h-5.4062c-0.9972 0-1.7812-0.78405-1.7812-1.7812v-16.812l-8.9688 0.15625v16.594c0 0.9972-0.8153 1.8125-1.8125 1.8125h-5.375c-0.9972 0-1.8125-0.8153-1.8125-1.8125v-16.438l-9 0.15625v16.281c0 0.9972-0.8153 1.8125-1.8125 1.8125h-5.375c-0.9972 0-1.8125-0.8153-1.8125-1.8125v-16.094l-9 0.15625v15.938c0 0.9972-0.8153 1.8125-1.8125 1.8125h-5.375c-0.9972 0-1.8125-0.8153-1.8125-1.8125v-15.781l-9 0.15625v15.625c0 0.9972-0.8153 1.8125-1.8125 1.8125h-5.375c-0.9972 0-1.8125-0.8153-1.8125-1.8125v-15.438l-9 0.15625v61.188l9.0312 0.15625v-15.5c0-0.0103-1.74e-4 -0.021 0-0.0312 0-0.0101-1.64e-4 -0.0212 0-0.0312 4e-3 -0.11798 0.03671-0.23316 0.0625-0.34375 0.01986-0.0975 0.0589-0.19024 0.09375-0.28125 0.16985-0.44357 0.50654-0.77502 0.9375-0.96875 0.22563-0.10143 0.45449-0.1875 0.71875-0.1875h5.4062c0.769 0 1.3975 0.48044 1.6562 1.1562 0.08909 0.21374 0.125 0.4382 0.125 0.6875v15.688l9 0.15625v-15.844-0.0312c0-0.0101-1.6e-4 -0.0212 0-0.0312 4e-3 -0.11798 0.0367-0.23316 0.0625-0.34375 0.0199-0.0975 0.0589-0.19024 0.0937-0.28125 0.16985-0.44357 0.50654-0.77502 0.9375-0.96875 0.22563-0.10143 0.45449-0.1875 0.71875-0.1875h5.4062c0.76899 0 1.3975 0.48044 1.6562 1.1562 0.0854 0.20489 0.12113 0.41834 0.125 0.65625v0.0312 16l9 0.15625v-16.156-0.0312c0-0.0101-1.6e-4 -0.0212 0-0.0312 4e-3 -0.11798 0.0367-0.23316 0.0625-0.34375 0.0199-0.0975 0.0589-0.19024 0.0937-0.28125 0.16985-0.44357 0.50654-0.77502 0.9375-0.96875 0.22563-0.10143 0.45449-0.1875 0.71875-0.1875h5.4062c0.76899 0 1.3975 0.48044 1.6562 1.1562 0.0854 0.20489 0.12113 0.41834 0.125 0.65625v0.0312 16.344l9 0.15625v-16.5-0.0312c0-0.0101-1.6e-4 -0.0212 0-0.0312 4e-3 -0.11798 0.0367-0.23316 0.0625-0.34375 0.0198-0.0975 0.0589-0.19024 0.0937-0.28125 0.16985-0.44357 0.50654-0.77502 0.9375-0.96875 0.22563-0.10143 0.45449-0.1875 0.71875-0.1875h5.4062c0.76899 0 1.3975 0.48044 1.6562 1.1562 0.0854 0.20489 0.12113 0.41834 0.125 0.65625v0.0312 16.656l8.9688 0.15625v-16.75c0-0.0206-6.9e-4 -0.042 0-0.0625 0-0.11341 0.0114-0.20501 0.0312-0.3125 2e-3 -9e-3 -2e-3 -0.0218 0-0.0312 0.022-0.10796 0.0847-0.21261 0.125-0.3125 4e-3 -9e-3 -4e-3 -0.0221 0-0.0312 0.27253-0.64648 0.90835-1.0938 1.6562-1.0938h5.375c0.7479 0 1.3837 0.44727 1.6562 1.0938 0.0995 0.22396 0.15625 0.49012 0.15625 0.75v16.938l9 0.15625v-64.812z" color="#000000" fill="#333"/>
    <path d="m180 327.59-9.0312 0.15625v17c0 0.9972-0.8153 1.7812-1.8125 1.7812h-5.4062c-0.9972 0-1.7812-0.78405-1.7812-1.7812v-16.812l-8.9688 0.15625v16.594c0 0.9972-0.8153 1.8125-1.8125 1.8125h-5.375c-0.9972 0-1.8125-0.8153-1.8125-1.8125v-16.438l-9 0.15625v16.281c0 0.9972-0.8153 1.8125-1.8125 1.8125h-5.375c-0.9972 0-1.8125-0.8153-1.8125-1.8125v-16.094l-9 0.15625v15.938c0 0.9972-0.8153 1.8125-1.8125 1.8125h-5.375c-0.9972 0-1.8125-0.8153-1.8125-1.8125v-15.781l-9 0.15625v15.625c0 0.9972-0.8153 1.8125-1.8125 1.8125h-5.375c-0.9972 0-1.8125-0.8153-1.8125-1.8125v-15.438l-9 0.15625v61.188l9.0312 0.15625v-15.5c0-0.0103-1.74e-4 -0.021 0-0.0312 0-0.0101-1.64e-4 -0.0212 0-0.0312 4e-3 -0.11798 0.03671-0.23316 0.0625-0.34375 0.01986-0.0975 0.0589-0.19024 0.09375-0.28125 0.16985-0.44357 0.50654-0.77502 0.9375-0.96875 0.22563-0.10143 0.45449-0.1875 0.71875-0.1875h5.4062c0.769 0 1.3975 0.48044 1.6562 1.1562 0.08909 0.21374 0.125 0.4382 0.125 0.6875v15.688l9 0.15625v-15.844-0.0312c0-0.0101-1.6e-4 -0.0212 0-0.0312 4e-3 -0.11798 0.0367-0.23316 0.0625-0.34375 0.0199-0.0975 0.0589-0.19024 0.0937-0.28125 0.16985-0.44357 0.50654-0.77502 0.9375-0.96875 0.22563-0.10143 0.45449-0.1875 0.71875-0.1875h5.4062c0.76899 0 1.3975 0.48044 1.6562 1.1562 0.0854 0.20489 0.12113 0.41834 0.125 0.65625v0.0312 16l9 0.15625v-16.156-0.0312c0-0.0101-1.6e-4 -0.0212 0-0.0312 4e-3 -0.11798 0.0367-0.23316 0.0625-0.34375 0.0199-0.0975 0.0589-0.19024 0.0937-0.28125 0.16985-0.44357 0.50654-0.77502 0.9375-0.96875 0.22563-0.10143 0.45449-0.1875 0.71875-0.1875h5.4062c0.76899 0 1.3975 0.48044 1.6562 1.1562 0.0854 0.20489 0.12113 0.41834 0.125 0.65625v0.0312 16.344l9 0.15625v-16.5-0.0312c0-0.0101-1.6e-4 -0.0212 0-0.0312 4e-3 -0.11798 0.0367-0.23316 0.0625-0.34375 0.0198-0.0975 0.0589-0.19024 0.0937-0.28125 0.16985-0.44357 0.50654-0.77502 0.9375-0.96875 0.22563-0.10143 0.45449-0.1875 0.71875-0.1875h5.4062c0.76899 0 1.3975 0.48044 1.6562 1.1562 0.0854 0.20489 0.12113 0.41834 0.125 0.65625v0.0312 16.656l8.9688 0.15625v-16.75c0-0.0206-6.9e-4 -0.042 0-0.0625 0-0.11341 0.0114-0.20501 0.0312-0.3125 2e-3 -9e-3 -2e-3 -0.0218 0-0.0312 0.022-0.10796 0.0847-0.21261 0.125-0.3125 4e-3 -9e-3 -4e-3 -0.0221 0-0.0312 0.27253-0.64648 0.90835-1.0938 1.6562-1.0938h5.375c0.7479 0 1.3837 0.44727 1.6562 1.0938 0.0995 0.22396 0.15625 0.49012 0.15625 0.75v16.938l9 0.15625v-64.812z" color="#000000" fill="url(#linearGradient90378)"/>
    <path d="m180 327.59-9.0312 0.15625v17c0 0.9972-0.8153 1.7812-1.8125 1.7812h-5.4062c-0.9972 0-1.7812-0.78405-1.7812-1.7812v-16.812l-8.9688 0.15625v16.594c0 0.9972-0.8153 1.8125-1.8125 1.8125h-5.375c-0.9972 0-1.8125-0.8153-1.8125-1.8125v-16.438l-9 0.15625v16.281c0 0.9972-0.8153 1.8125-1.8125 1.8125h-5.375c-0.9972 0-1.8125-0.8153-1.8125-1.8125v-16.094l-9 0.15625v15.938c0 0.9972-0.8153 1.8125-1.8125 1.8125h-5.375c-0.9972 0-1.8125-0.8153-1.8125-1.8125v-15.781l-9 0.15625v15.625c0 0.9972-0.8153 1.8125-1.8125 1.8125h-5.375c-0.9972 0-1.8125-0.8153-1.8125-1.8125v-15.438l-9 0.15625v61.188l9.0312 0.15625v-15.5c0-0.0103-1.74e-4 -0.021 0-0.0312 0-0.0101-1.64e-4 -0.0212 0-0.0312 4e-3 -0.11798 0.03671-0.23316 0.0625-0.34375 0.01986-0.0975 0.0589-0.19024 0.09375-0.28125 0.16985-0.44357 0.50654-0.77502 0.9375-0.96875 0.22563-0.10143 0.45449-0.1875 0.71875-0.1875h5.4062c0.769 0 1.3975 0.48044 1.6562 1.1562 0.08909 0.21374 0.125 0.4382 0.125 0.6875v15.688l9 0.15625v-15.844-0.0312c0-0.0101-1.6e-4 -0.0212 0-0.0312 4e-3 -0.11798 0.0367-0.23316 0.0625-0.34375 0.0199-0.0975 0.0589-0.19024 0.0937-0.28125 0.16985-0.44357 0.50654-0.77502 0.9375-0.96875 0.22563-0.10143 0.45449-0.1875 0.71875-0.1875h5.4062c0.76899 0 1.3975 0.48044 1.6562 1.1562 0.0854 0.20489 0.12113 0.41834 0.125 0.65625v0.0312 16l9 0.15625v-16.156-0.0312c0-0.0101-1.6e-4 -0.0212 0-0.0312 4e-3 -0.11798 0.0367-0.23316 0.0625-0.34375 0.0199-0.0975 0.0589-0.19024 0.0937-0.28125 0.16985-0.44357 0.50654-0.77502 0.9375-0.96875 0.22563-0.10143 0.45449-0.1875 0.71875-0.1875h5.4062c0.76899 0 1.3975 0.48044 1.6562 1.1562 0.0854 0.20489 0.12113 0.41834 0.125 0.65625v0.0312 16.344l9 0.15625v-16.5-0.0312c0-0.0101-1.6e-4 -0.0212 0-0.0312 4e-3 -0.11798 0.0367-0.23316 0.0625-0.34375 0.0198-0.0975 0.0589-0.19024 0.0937-0.28125 0.16985-0.44357 0.50654-0.77502 0.9375-0.96875 0.22563-0.10143 0.45449-0.1875 0.71875-0.1875h5.4062c0.76899 0 1.3975 0.48044 1.6562 1.1562 0.0854 0.20489 0.12113 0.41834 0.125 0.65625v0.0312 16.656l8.9688 0.15625v-16.75c0-0.0206-6.9e-4 -0.042 0-0.0625 0-0.11341 0.0114-0.20501 0.0312-0.3125 2e-3 -9e-3 -2e-3 -0.0218 0-0.0312 0.022-0.10796 0.0847-0.21261 0.125-0.3125 4e-3 -9e-3 -4e-3 -0.0221 0-0.0312 0.27253-0.64648 0.90835-1.0938 1.6562-1.0938h5.375c0.7479 0 1.3837 0.44727 1.6562 1.0938 0.0995 0.22396 0.15625 0.49012 0.15625 0.75v16.938l9 0.15625v-64.812z" color="#000000" fill="url(#linearGradient90378)"/>
   </g>
   <g transform="matrix(1.5 0 0 1.5 -274.5 -171.04)">
    <path transform="matrix(-.625 0 0 -.625 555.5 1065.4)" d="m31.89 1013.4a7.0866 7.0866 0 1 1-14.173 0 7.0866 7.0866 0 1 1 14.173 0z" fill="#d7d7d7" fill-rule="evenodd" stroke="#000" stroke-width=".28346"/>
    <g transform="matrix(-.46679 -.17918 .17918 -.46679 369.68 910.38)" fill="none" stroke="#575757" stroke-linecap="round">
     <path d="m24.803 1009.8v10.63" stroke-width="2.1698"/>
     <path d="m19.488 1015.2h10.63" stroke-width="2.1698"/>
    </g>
   </g>
   <g transform="matrix(.79488 -1.2721 1.2721 .79488 -425.33 820.55)">
    <path transform="matrix(-.625 0 0 -.625 555.5 1065.4)" d="m31.89 1013.4a7.0866 7.0866 0 1 1-14.173 0 7.0866 7.0866 0 1 1 14.173 0z" fill="#d7d7d7" fill-rule="evenodd" stroke="#000" stroke-width=".28346"/>
    <g transform="matrix(-.46679 -.17918 .17918 -.46679 369.68 910.38)" fill="none" stroke="#575757" stroke-linecap="round">
     <path d="m24.803 1009.8v10.63" stroke-width="2.1698"/>
     <path d="m19.488 1015.2h10.63" stroke-width="2.1698"/>
    </g>
   </g>
   <g transform="matrix(1.4554 -.36288 .36288 1.4554 -371.2 44.173)">
    <path transform="matrix(-.625 0 0 -.625 555.5 1065.4)" d="m31.89 1013.4a7.0866 7.0866 0 1 1-14.173 0 7.0866 7.0866 0 1 1 14.173 0z" fill="#d7d7d7" fill-rule="evenodd" stroke="#000" stroke-width=".28346"/>
    <g transform="matrix(-.46679 -.17918 .17918 -.46679 369.68 910.38)" fill="none" stroke="#575757" stroke-linecap="round">
     <path d="m24.803 1009.8v10.63" stroke-width="2.1698"/>
     <path d="m19.488 1015.2h10.63" stroke-width="2.1698"/>
    </g>
   </g>
   <g fill="#ffffff" fill-opacity=".40217" font-family="Droid Sans" font-size="8px" letter-spacing="0px" text-align="end" text-anchor="middle" word-spacing="0px" style="line-height:125%" xml:space="preserve">
    <text x="535.5" y="492.75" text-align="center">1</text>
   
   
    <text x="553.47778" y="492.75" text-align="center">2</text>
   
   
    <text x="571.47778" y="492.75" text-align="center">3</text>
   </g>
   <rect x="443.25" y="348.75" width="184.5" height="94.5" rx="13.5" fill="#1a1a1a"/>
   <rect x="445.5" y="351" width="180" height="90" rx="13.5" fill="#ccc"/>
   <path d="m445.5 423v4.5c0 7.479 6.021 13.5 13.5 13.5h153c7.479 0 13.5-6.021 13.5-13.5v-4.5h-180z" fill="#4d4d4d"/>
   <g font-family="OCRA" font-size="6px" letter-spacing="0px" text-align="end" text-anchor="end" word-spacing="0px" style="line-height:125%" xml:space="preserve">
    <text x="607.8913" y="436.48724" fill="#e6e6e6" font-family="Droid Sans" font-size="12px" style="line-height:125%">1: +in    2: -in     3: Ground</text>
   </g>
   <g fill="#4d4d4d" font-family="Droid Sans" font-size="6px" letter-spacing="0px" text-align="end" text-anchor="end" word-spacing="0px" style="line-height:125%" xml:space="preserve">
    <text x="616.5" y="396" fill="#4d4d4d" font-size="20px" font-weight="bold">PowerSwitch Tail</text>
   </g>
  </g>
 </g>
</svg>
