<?xml version="1.0" encoding="UTF-8"?>
<!-- Created with Inkscape (http://www.inkscape.org/) -->
<svg width="333" height="234" version="1.1" xmlns="http://www.w3.org/2000/svg">
 <defs>
  <linearGradient id="linearGradient6704">
   <stop stop-color="#808080" offset="0"/>
   <stop stop-color="#dcdcdc" offset=".5"/>
   <stop stop-color="#808080" offset="1"/>
  </linearGradient>
  <linearGradient id="linearGradient7106">
   <stop stop-color="#969696" offset="0"/>
   <stop stop-color="#c6c6c6" offset=".63889"/>
   <stop stop-color="#939393" offset="1"/>
  </linearGradient>
  <linearGradient id="linearGradient17070" x1="-891.98" x2="-865.44" y1="292.33" y2="292.33" gradientUnits="userSpaceOnUse" xlink:href="#linearGradient7106" xmlns:xlink="http://www.w3.org/1999/xlink"/>
  <linearGradient id="linearGradient17072" x1="-7.0866" x2="67.323" y1="892.91" y2="892.91" gradientUnits="userSpaceOnUse" xlink:href="#linearGradient7106" xmlns:xlink="http://www.w3.org/1999/xlink"/>
  <linearGradient id="linearGradient17074" x1="1.7717" x2="3.5433" y1="1033.8" y2="1033.8" gradientUnits="userSpaceOnUse" xlink:href="#linearGradient6704" xmlns:xlink="http://www.w3.org/1999/xlink"/>
  <linearGradient id="linearGradient17212" x1="-26.575" x2="37.205" y1="962.89" y2="962.89" gradientUnits="userSpaceOnUse" xlink:href="#linearGradient7106" xmlns:xlink="http://www.w3.org/1999/xlink"/>
  <linearGradient id="linearGradient17216" x1="10.63" x2="21.26" y1="1058.6" y2="1058.6" gradientTransform="translate(-283.46 -1870.9)" gradientUnits="userSpaceOnUse" xmlns:xlink="http://www.w3.org/1999/xlink">
   <stop stop-color="#434343" offset="0"/>
   <stop stop-color="#565656" stop-opacity="0" offset="1"/>
  </linearGradient>
  <linearGradient id="linearGradient17218" x1="251.57" x2="272.83" y1="805.66" y2="805.66" gradientUnits="userSpaceOnUse" xmlns:xlink="http://www.w3.org/1999/xlink">
   <stop stop-color="#3c3c3c" offset="0"/>
   <stop stop-color="#565656" offset=".5"/>
   <stop stop-color="#2f2f2f" offset="1"/>
  </linearGradient>
  <linearGradient id="linearGradient17360" x1="-164.79" x2="-111.64" y1="-871.65" y2="-871.65" gradientTransform="matrix(.9999 0 0 1 303.91 1898.7)" gradientUnits="userSpaceOnUse" xlink:href="#linearGradient7106" xmlns:xlink="http://www.w3.org/1999/xlink"/>
  <linearGradient id="linearGradient17577" x1="1.7717" x2="31.89" y1="1003.6" y2="1003.6" gradientTransform="matrix(.9999 0 0 1 -183.45 -161.73)" gradientUnits="userSpaceOnUse" xmlns:xlink="http://www.w3.org/1999/xlink">
   <stop stop-color="#808080" offset="0"/>
   <stop stop-color="#dcdcdc" offset=".5"/>
   <stop stop-color="#808080" offset="1"/>
  </linearGradient>
 </defs>
 <metadata>
  <rdf:RDF xmlns:rdf="http://www.w3.org/1999/02/22-rdf-syntax-ns#">
   <cc:Work rdf:about="" xmlns:cc="http://creativecommons.org/ns#" xmlns:rdf="http://www.w3.org/1999/02/22-rdf-syntax-ns#">
    <dc:format xmlns:dc="http://purl.org/dc/elements/1.1/">image/svg+xml</dc:format>
    <dc:type rdf:resource="http://purl.org/dc/dcmitype/StillImage" xmlns:dc="http://purl.org/dc/elements/1.1/" xmlns:rdf="http://www.w3.org/1999/02/22-rdf-syntax-ns#"/>
    <dc:title xmlns:dc="http://purl.org/dc/elements/1.1/"/>
   </cc:Work>
  </rdf:RDF>
 </metadata>
 <g transform="translate(0 -818.36)">
  <g id="breadboard">
   <rect transform="scale(-1)" x="-303.91" y="-1044.8" width="301.15" height="198.43" fill="#2f632e" fill-rule="evenodd"/>
   <g transform="matrix(-.9999 0 0 -1 121.49 1902.2)">
    <path d="m0 1050.6v-14.4l1.8-1.8h5.4l1.8 1.8v14.4l-1.8 1.8h-5.4z" fill="#202020"/>
    <g id="connector26pin" transform="matrix(.75 0 0 .74999 1.125 261.97)">
     <rect x="2.7" y="1046.1" width="3.6" height="3.6" fill="#f6bf52" fill-rule="evenodd"/>
     <path d="m3.15 1049.2-0.45 0.45v-3.6h3.6l-0.45 0.45h-2.7z" fill="#fff" fill-opacity=".27174"/>
     <path d="m5.85 1046.5 0.45-0.45v3.6h-3.6l0.45-0.45h2.7z" fill-opacity=".27174"/>
    </g>
    <g id="connector25pin" transform="matrix(.75 0 0 .74999 1.125 252.97)">
     <rect x="2.7" y="1046.1" width="3.6" height="3.6" fill="#f6bf52" fill-rule="evenodd"/>
     <path d="m3.15 1049.2-0.45 0.45v-3.6h3.6l-0.45 0.45h-2.7z" fill="#fff" fill-opacity=".27174"/>
     <path d="m5.85 1046.5 0.45-0.45v3.6h-3.6l0.45-0.45h2.7z" fill-opacity=".27174"/>
    </g>
    <path d="m9 1050.6v-14.4l1.8-1.8h5.4l1.8 1.8v14.4l-1.8 1.8h-5.4z" fill="#202020"/>
    <g id="connector24pin" transform="matrix(.75 0 0 .74999 10.125 261.97)">
     <rect x="2.7" y="1046.1" width="3.6" height="3.6" fill="#f6bf52" fill-rule="evenodd"/>
     <path d="m3.15 1049.2-0.45 0.45v-3.6h3.6l-0.45 0.45h-2.7z" fill="#fff" fill-opacity=".27174"/>
     <path d="m5.85 1046.5 0.45-0.45v3.6h-3.6l0.45-0.45h2.7z" fill-opacity=".27174"/>
    </g>
    <g id="connector23pin" transform="matrix(.75 0 0 .74999 10.125 252.97)">
     <rect x="2.7" y="1046.1" width="3.6" height="3.6" fill="#f6bf52" fill-rule="evenodd"/>
     <path d="m3.15 1049.2-0.45 0.45v-3.6h3.6l-0.45 0.45h-2.7z" fill="#fff" fill-opacity=".27174"/>
     <path d="m5.85 1046.5 0.45-0.45v3.6h-3.6l0.45-0.45h2.7z" fill-opacity=".27174"/>
    </g>
    <path d="m18 1050.6v-14.4l1.8-1.8h5.4l1.8 1.8v14.4l-1.8 1.8h-5.4z" fill="#202020"/>
    <g id="connector22pin" transform="matrix(.75 0 0 .74999 19.125 261.97)">
     <rect x="2.7" y="1046.1" width="3.6" height="3.6" fill="#f6bf52" fill-rule="evenodd"/>
     <path d="m3.15 1049.2-0.45 0.45v-3.6h3.6l-0.45 0.45h-2.7z" fill="#fff" fill-opacity=".27174"/>
     <path d="m5.85 1046.5 0.45-0.45v3.6h-3.6l0.45-0.45h2.7z" fill-opacity=".27174"/>
    </g>
    <g id="connector21pin" transform="matrix(.75 0 0 .74999 19.125 252.97)">
     <rect x="2.7" y="1046.1" width="3.6" height="3.6" fill="#f6bf52" fill-rule="evenodd"/>
     <path d="m3.15 1049.2-0.45 0.45v-3.6h3.6l-0.45 0.45h-2.7z" fill="#fff" fill-opacity=".27174"/>
     <path d="m5.85 1046.5 0.45-0.45v3.6h-3.6l0.45-0.45h2.7z" fill-opacity=".27174"/>
    </g>
    <path d="m27 1050.6v-14.4l1.8-1.8h5.4l1.8 1.8v14.4l-1.8 1.8h-5.4z" fill="#202020"/>
    <g id="connector20pin" transform="matrix(.75 0 0 .74999 28.125 261.97)">
     <rect x="2.7" y="1046.1" width="3.6" height="3.6" fill="#f6bf52" fill-rule="evenodd"/>
     <path d="m3.15 1049.2-0.45 0.45v-3.6h3.6l-0.45 0.45h-2.7z" fill="#fff" fill-opacity=".27174"/>
     <path d="m5.85 1046.5 0.45-0.45v3.6h-3.6l0.45-0.45h2.7z" fill-opacity=".27174"/>
    </g>
    <g id="connector19pin" transform="matrix(.75 0 0 .74999 28.125 252.97)">
     <rect x="2.7" y="1046.1" width="3.6" height="3.6" fill="#f6bf52" fill-rule="evenodd"/>
     <path d="m3.15 1049.2-0.45 0.45v-3.6h3.6l-0.45 0.45h-2.7z" fill="#fff" fill-opacity=".27174"/>
     <path d="m5.85 1046.5 0.45-0.45v3.6h-3.6l0.45-0.45h2.7z" fill-opacity=".27174"/>
    </g>
    <path d="m36 1050.6v-14.4l1.8-1.8h5.4l1.8 1.8v14.4l-1.8 1.8h-5.4z" fill="#202020"/>
    <g id="connector18pin" transform="matrix(.75 0 0 .74999 37.125 261.97)">
     <rect x="2.7" y="1046.1" width="3.6" height="3.6" fill="#f6bf52" fill-rule="evenodd"/>
     <path d="m3.15 1049.2-0.45 0.45v-3.6h3.6l-0.45 0.45h-2.7z" fill="#fff" fill-opacity=".27174"/>
     <path d="m5.85 1046.5 0.45-0.45v3.6h-3.6l0.45-0.45h2.7z" fill-opacity=".27174"/>
    </g>
    <g id="connector17pin" transform="matrix(.75 0 0 .74999 37.125 252.97)">
     <rect x="2.7" y="1046.1" width="3.6" height="3.6" fill="#f6bf52" fill-rule="evenodd"/>
     <path d="m3.15 1049.2-0.45 0.45v-3.6h3.6l-0.45 0.45h-2.7z" fill="#fff" fill-opacity=".27174"/>
     <path d="m5.85 1046.5 0.45-0.45v3.6h-3.6l0.45-0.45h2.7z" fill-opacity=".27174"/>
    </g>
    <path d="m45 1050.6v-14.4l1.8-1.8h5.4l1.8 1.8v14.4l-1.8 1.8h-5.4z" fill="#202020"/>
    <g id="connector16pin" transform="matrix(.75 0 0 .74999 46.125 261.97)">
     <rect x="2.7" y="1046.1" width="3.6" height="3.6" fill="#f6bf52" fill-rule="evenodd"/>
     <path d="m3.15 1049.2-0.45 0.45v-3.6h3.6l-0.45 0.45h-2.7z" fill="#fff" fill-opacity=".27174"/>
     <path d="m5.85 1046.5 0.45-0.45v3.6h-3.6l0.45-0.45h2.7z" fill-opacity=".27174"/>
    </g>
    <g id="connector15pin" transform="matrix(.75 0 0 .74999 46.125 252.97)">
     <rect x="2.7" y="1046.1" width="3.6" height="3.6" fill="#f6bf52" fill-rule="evenodd"/>
     <path d="m3.15 1049.2-0.45 0.45v-3.6h3.6l-0.45 0.45h-2.7z" fill="#fff" fill-opacity=".27174"/>
     <path d="m5.85 1046.5 0.45-0.45v3.6h-3.6l0.45-0.45h2.7z" fill-opacity=".27174"/>
    </g>
    <path d="m54 1050.6v-14.4l1.8-1.8h5.4l1.8 1.8v14.4l-1.8 1.8h-5.4z" fill="#202020"/>
    <g id="connector14pin" transform="matrix(.75 0 0 .74999 55.125 261.97)">
     <rect x="2.7" y="1046.1" width="3.6" height="3.6" fill="#f6bf52" fill-rule="evenodd"/>
     <path d="m3.15 1049.2-0.45 0.45v-3.6h3.6l-0.45 0.45h-2.7z" fill="#fff" fill-opacity=".27174"/>
     <path d="m5.85 1046.5 0.45-0.45v3.6h-3.6l0.45-0.45h2.7z" fill-opacity=".27174"/>
    </g>
    <g id="connector13pin" transform="matrix(.75 0 0 .74999 55.125 252.97)">
     <rect x="2.7" y="1046.1" width="3.6" height="3.6" fill="#f6bf52" fill-rule="evenodd"/>
     <path d="m3.15 1049.2-0.45 0.45v-3.6h3.6l-0.45 0.45h-2.7z" fill="#fff" fill-opacity=".27174"/>
     <path d="m5.85 1046.5 0.45-0.45v3.6h-3.6l0.45-0.45h2.7z" fill-opacity=".27174"/>
    </g>
    <path d="m63 1050.6v-14.4l1.8-1.8h5.4l1.8 1.8v14.4l-1.8 1.8h-5.4z" fill="#202020"/>
    <g id="connector12pin" transform="matrix(.75 0 0 .74999 64.125 261.97)">
     <rect x="2.7" y="1046.1" width="3.6" height="3.6" fill="#f6bf52" fill-rule="evenodd"/>
     <path d="m3.15 1049.2-0.45 0.45v-3.6h3.6l-0.45 0.45h-2.7z" fill="#fff" fill-opacity=".27174"/>
     <path d="m5.85 1046.5 0.45-0.45v3.6h-3.6l0.45-0.45h2.7z" fill-opacity=".27174"/>
    </g>
    <g id="connector11pin" transform="matrix(.75 0 0 .74999 64.125 252.97)">
     <rect x="2.7" y="1046.1" width="3.6" height="3.6" fill="#f6bf52" fill-rule="evenodd"/>
     <path d="m3.15 1049.2-0.45 0.45v-3.6h3.6l-0.45 0.45h-2.7z" fill="#fff" fill-opacity=".27174"/>
     <path d="m5.85 1046.5 0.45-0.45v3.6h-3.6l0.45-0.45h2.7z" fill-opacity=".27174"/>
    </g>
    <path d="m72 1050.6v-14.4l1.8-1.8h5.4l1.8 1.8v14.4l-1.8 1.8h-5.4z" fill="#202020"/>
    <g id="connector10pin" transform="matrix(.75 0 0 .74999 73.125 261.97)">
     <rect x="2.7" y="1046.1" width="3.6" height="3.6" fill="#f6bf52" fill-rule="evenodd"/>
     <path d="m3.15 1049.2-0.45 0.45v-3.6h3.6l-0.45 0.45h-2.7z" fill="#fff" fill-opacity=".27174"/>
     <path d="m5.85 1046.5 0.45-0.45v3.6h-3.6l0.45-0.45h2.7z" fill-opacity=".27174"/>
    </g>
    <g id="connector9pin" transform="matrix(.75 0 0 .74999 73.125 252.97)">
     <rect x="2.7" y="1046.1" width="3.6" height="3.6" fill="#f6bf52" fill-rule="evenodd"/>
     <path d="m3.15 1049.2-0.45 0.45v-3.6h3.6l-0.45 0.45h-2.7z" fill="#fff" fill-opacity=".27174"/>
     <path d="m5.85 1046.5 0.45-0.45v3.6h-3.6l0.45-0.45h2.7z" fill-opacity=".27174"/>
    </g>
    <path d="m81 1050.6v-14.4l1.8-1.8h5.4l1.8 1.8v14.4l-1.8 1.8h-5.4z" fill="#202020"/>
    <g id="connector8pin" transform="matrix(.75 0 0 .74999 82.125 261.97)">
     <rect x="2.7" y="1046.1" width="3.6" height="3.6" fill="#f6bf52" fill-rule="evenodd"/>
     <path d="m3.15 1049.2-0.45 0.45v-3.6h3.6l-0.45 0.45h-2.7z" fill="#fff" fill-opacity=".27174"/>
     <path d="m5.85 1046.5 0.45-0.45v3.6h-3.6l0.45-0.45h2.7z" fill-opacity=".27174"/>
    </g>
    <g id="connector7pin" transform="matrix(.75 0 0 .74999 82.125 252.97)">
     <rect x="2.7" y="1046.1" width="3.6" height="3.6" fill="#f6bf52" fill-rule="evenodd"/>
     <path d="m3.15 1049.2-0.45 0.45v-3.6h3.6l-0.45 0.45h-2.7z" fill="#fff" fill-opacity=".27174"/>
     <path d="m5.85 1046.5 0.45-0.45v3.6h-3.6l0.45-0.45h2.7z" fill-opacity=".27174"/>
    </g>
    <path d="m90 1050.6v-14.4l1.8-1.8h5.4l1.8 1.8v14.4l-1.8 1.8h-5.4z" fill="#202020"/>
    <g id="connector6pin" transform="matrix(.75 0 0 .74999 91.125 261.97)">
     <rect x="2.7" y="1046.1" width="3.6" height="3.6" fill="#f6bf52" fill-rule="evenodd"/>
     <path d="m3.15 1049.2-0.45 0.45v-3.6h3.6l-0.45 0.45h-2.7z" fill="#fff" fill-opacity=".27174"/>
     <path d="m5.85 1046.5 0.45-0.45v3.6h-3.6l0.45-0.45h2.7z" fill-opacity=".27174"/>
    </g>
    <g id="connector5pin" transform="matrix(.75 0 0 .74999 91.125 252.97)">
     <rect x="2.7" y="1046.1" width="3.6" height="3.6" fill="#f6bf52" fill-rule="evenodd"/>
     <path d="m3.15 1049.2-0.45 0.45v-3.6h3.6l-0.45 0.45h-2.7z" fill="#fff" fill-opacity=".27174"/>
     <path d="m5.85 1046.5 0.45-0.45v3.6h-3.6l0.45-0.45h2.7z" fill-opacity=".27174"/>
    </g>
    <path d="m99 1050.6v-14.4l1.8-1.8h5.4l1.8 1.8v14.4l-1.8 1.8h-5.4z" fill="#202020"/>
    <g id="connector4pin" transform="matrix(.75 0 0 .74999 100.12 261.97)">
     <rect x="2.7" y="1046.1" width="3.6" height="3.6" fill="#f6bf52" fill-rule="evenodd"/>
     <path d="m3.15 1049.2-0.45 0.45v-3.6h3.6l-0.45 0.45h-2.7z" fill="#fff" fill-opacity=".27174"/>
     <path d="m5.85 1046.5 0.45-0.45v3.6h-3.6l0.45-0.45h2.7z" fill-opacity=".27174"/>
    </g>
    <g id="connector3pin" transform="matrix(.75 0 0 .74999 100.12 252.97)">
     <rect x="2.7" y="1046.1" width="3.6" height="3.6" fill="#f6bf52" fill-rule="evenodd"/>
     <path d="m3.15 1049.2-0.45 0.45v-3.6h3.6l-0.45 0.45h-2.7z" fill="#fff" fill-opacity=".27174"/>
     <path d="m5.85 1046.5 0.45-0.45v3.6h-3.6l0.45-0.45h2.7z" fill-opacity=".27174"/>
    </g>
    <path d="m108 1050.6v-14.4l1.8-1.8h5.4l1.8 1.8v14.4l-1.8 1.8h-5.4z" fill="#202020"/>
    <g id="connector2pin" transform="matrix(.75 0 0 .74999 109.12 261.97)">
     <rect x="2.7" y="1046.1" width="3.6" height="3.6" fill="#f6bf52" fill-rule="evenodd"/>
     <path d="m3.15 1049.2-0.45 0.45v-3.6h3.6l-0.45 0.45h-2.7z" fill="#fff" fill-opacity=".27174"/>
     <path d="m5.85 1046.5 0.45-0.45v3.6h-3.6l0.45-0.45h2.7z" fill-opacity=".27174"/>
    </g>
    <g id="connector1pin" transform="matrix(.75 0 0 .74999 109.12 252.97)">
     <rect x="2.7" y="1046.1" width="3.6" height="3.6" fill="#f6bf52" fill-rule="evenodd"/>
     <path d="m3.15 1049.2-0.45 0.45v-3.6h3.6l-0.45 0.45h-2.7z" fill="#fff" fill-opacity=".27174"/>
     <path d="m5.85 1046.5 0.45-0.45v3.6h-3.6l0.45-0.45h2.7z" fill-opacity=".27174"/>
    </g>
   </g>
   <g transform="matrix(-.9999 0 0 -1 303.91 1898.7)">
    <rect transform="rotate(-90)" x="-891.98" y="281.71" width="26.544" height="21.235" fill="url(#linearGradient17070)" fill-rule="evenodd"/>
    <path d="m299.41 885.81h-6.2918v0.39325l4.8399 0.39323v1.9662l-4.8399 0.39325v0.39323h6.2918z" fill="#999" stroke="#000" stroke-linecap="round" stroke-linejoin="round" stroke-width=".087252"/>
    <path d="m299.41 868.11h-6.2918v0.39325l4.8399 0.39323v1.9662l-4.8399 0.39325v0.39323h6.2918z" fill="#999" stroke="#000" stroke-linecap="round" stroke-linejoin="round" stroke-width=".087252"/>
    <g transform="rotate(-90)" font-family="OCRA" font-size="71.916px" letter-spacing="0px" word-spacing="0px" style="line-height:125%" xml:space="preserve">
     <text x="-878.72772" y="289.67673" fill="#000000" fill-opacity=".27451" font-family="Droid Sans" font-size="5.993px" text-align="center" text-anchor="middle">USB uB</text>
    </g>
    <rect x="-7.0866" y="864.57" width="74.409" height="56.693" fill="url(#linearGradient17072)" fill-rule="evenodd"/>
    <g transform="translate(-7.0866 -131.1)" stroke="#888">
     <g stroke="#888">
      <path d="m17.717 1024h38.976" fill="none" stroke-width=".9375"/>
      <rect x="21.26" y="1029.3" width="10.63" height="7.0866" fill="#b3b3b3" fill-rule="evenodd" stroke-width=".9375"/>
      <rect x="42.52" y="1029.3" width="10.63" height="7.0866" fill="#b3b3b3" fill-rule="evenodd" stroke-width=".9375"/>
      <rect x="31.89" y="1011.6" width="10.63" height="7.0866" fill="#b3b3b3" fill-rule="evenodd" stroke-width=".9375"/>
      <path d="m37.205 1024v-5.3149" fill="none" stroke-width="1px"/>
      <path d="m26.575 1024v5.315" fill="none" stroke-width="1px"/>
      <path d="m47.835 1024v5.315" fill="none" stroke-width="1px"/>
     </g>
    </g>
    <rect transform="translate(0 -2.5391e-6)" x="138.19" y="931.89" width="42.52" height="42.52" fill="#202020" fill-rule="evenodd"/>
    <path transform="translate(138.19 -77.953)" d="m40.748 1048.8a1.7717 1.7717 0 1 1-3.5433 0 1.7717 1.7717 0 1 1 3.5433 0z" fill="#fff" fill-opacity=".062745" fill-rule="evenodd"/>
   </g>
   <g transform="matrix(-.9999 0 0 -1 250.76 1964.7)" fill-rule="evenodd">
    <rect x="3.5433" y="1018.7" width="30.118" height="30.118" fill="#202020"/>
    <path d="m31.89 1045.3a1.7717 1.7717 0 1 1-3.5433 0 1.7717 1.7717 0 1 1 3.5433 0z" fill="#fff" fill-opacity=".094118"/>
    <g fill="url(#linearGradient17074)">
     <rect x="1.7717" y="1046.6" width="1.7717" height=".88583"/>
     <rect x="1.7717" y="1044.8" width="1.7717" height=".88583"/>
     <rect x="1.7717" y="1043.1" width="1.7717" height=".88583"/>
     <rect x="1.7717" y="1041.3" width="1.7717" height=".88583"/>
     <rect x="1.7717" y="1039.5" width="1.7717" height=".88583"/>
     <rect x="1.7717" y="1037.7" width="1.7717" height=".88583"/>
     <rect x="1.7717" y="1036" width="1.7717" height=".88583"/>
     <rect x="1.7717" y="1034.2" width="1.7717" height=".88583"/>
     <rect x="1.7717" y="1032.4" width="1.7717" height=".88583"/>
     <rect x="1.7717" y="1030.7" width="1.7717" height=".88583"/>
     <rect x="1.7717" y="1028.9" width="1.7717" height=".88583"/>
     <rect x="1.7717" y="1027.1" width="1.7717" height=".88583"/>
     <rect x="1.7717" y="1025.3" width="1.7717" height=".88583"/>
     <rect x="1.7717" y="1023.6" width="1.7717" height=".88583"/>
     <rect x="1.7717" y="1021.8" width="1.7717" height=".88583"/>
     <rect x="1.7717" y="1020" width="1.7717" height=".88583"/>
    </g>
    <g transform="matrix(0 -1 1 0 -1015.2 1020.5)" fill="url(#linearGradient17074)">
     <rect x="1.7717" y="1046.6" width="1.7717" height=".88583"/>
     <rect x="1.7717" y="1044.8" width="1.7717" height=".88583"/>
     <rect x="1.7717" y="1043.1" width="1.7717" height=".88583"/>
     <rect x="1.7717" y="1041.3" width="1.7717" height=".88583"/>
     <rect x="1.7717" y="1039.5" width="1.7717" height=".88583"/>
     <rect x="1.7717" y="1037.7" width="1.7717" height=".88583"/>
     <rect x="1.7717" y="1036" width="1.7717" height=".88583"/>
     <rect x="1.7717" y="1034.2" width="1.7717" height=".88583"/>
     <rect x="1.7717" y="1032.4" width="1.7717" height=".88583"/>
     <rect x="1.7717" y="1030.7" width="1.7717" height=".88583"/>
     <rect x="1.7717" y="1028.9" width="1.7717" height=".88583"/>
     <rect x="1.7717" y="1027.1" width="1.7717" height=".88583"/>
     <rect x="1.7717" y="1025.3" width="1.7717" height=".88583"/>
     <rect x="1.7717" y="1023.6" width="1.7717" height=".88583"/>
     <rect x="1.7717" y="1021.8" width="1.7717" height=".88583"/>
     <rect x="1.7717" y="1020" width="1.7717" height=".88583"/>
    </g>
    <g transform="translate(31.89)" fill="url(#linearGradient17074)">
     <rect x="1.7717" y="1046.6" width="1.7717" height=".88583"/>
     <rect x="1.7717" y="1044.8" width="1.7717" height=".88583"/>
     <rect x="1.7717" y="1043.1" width="1.7717" height=".88583"/>
     <rect x="1.7717" y="1041.3" width="1.7717" height=".88583"/>
     <rect x="1.7717" y="1039.5" width="1.7717" height=".88583"/>
     <rect x="1.7717" y="1037.7" width="1.7717" height=".88583"/>
     <rect x="1.7717" y="1036" width="1.7717" height=".88583"/>
     <rect x="1.7717" y="1034.2" width="1.7717" height=".88583"/>
     <rect x="1.7717" y="1032.4" width="1.7717" height=".88583"/>
     <rect x="1.7717" y="1030.7" width="1.7717" height=".88583"/>
     <rect x="1.7717" y="1028.9" width="1.7717" height=".88583"/>
     <rect x="1.7717" y="1027.1" width="1.7717" height=".88583"/>
     <rect x="1.7717" y="1025.3" width="1.7717" height=".88583"/>
     <rect x="1.7717" y="1023.6" width="1.7717" height=".88583"/>
     <rect x="1.7717" y="1021.8" width="1.7717" height=".88583"/>
     <rect x="1.7717" y="1020" width="1.7717" height=".88583"/>
    </g>
    <g transform="matrix(0 -1 1 0 -1015.2 1052.4)" fill="url(#linearGradient17074)">
     <rect x="1.7717" y="1046.6" width="1.7717" height=".88583"/>
     <rect x="1.7717" y="1044.8" width="1.7717" height=".88583"/>
     <rect x="1.7717" y="1043.1" width="1.7717" height=".88583"/>
     <rect x="1.7717" y="1041.3" width="1.7717" height=".88583"/>
     <rect x="1.7717" y="1039.5" width="1.7717" height=".88583"/>
     <rect x="1.7717" y="1037.7" width="1.7717" height=".88583"/>
     <rect x="1.7717" y="1036" width="1.7717" height=".88583"/>
     <rect x="1.7717" y="1034.2" width="1.7717" height=".88583"/>
     <rect x="1.7717" y="1032.4" width="1.7717" height=".88583"/>
     <rect x="1.7717" y="1030.7" width="1.7717" height=".88583"/>
     <rect x="1.7717" y="1028.9" width="1.7717" height=".88583"/>
     <rect x="1.7717" y="1027.1" width="1.7717" height=".88583"/>
     <rect x="1.7717" y="1025.3" width="1.7717" height=".88583"/>
     <rect x="1.7717" y="1023.6" width="1.7717" height=".88583"/>
     <rect x="1.7717" y="1021.8" width="1.7717" height=".88583"/>
     <rect x="1.7717" y="1020" width="1.7717" height=".88583"/>
    </g>
   </g>
   <rect x="139.13" y="1005.8" width="53.144" height="42.52" fill="url(#linearGradient17360)" fill-rule="evenodd"/>
   <path d="m158.65 1041.2v-12.598h-0.78734l-0.7873 9.6911h-3.9366l-0.78734-9.6911h-0.7873v12.598z" fill="#999" stroke="#000" stroke-linecap="round" stroke-linejoin="round" stroke-width=".1747"/>
   <path d="m179.84 1041.2v-12.598h-0.78734l-0.7873 9.6911h-3.9366l-0.78734-9.6911h-0.7873v12.598z" fill="#999" stroke="#000" stroke-linecap="round" stroke-linejoin="round" stroke-width=".1747"/>
   <g transform="scale(.99995 1.0001)" font-family="OCRA" font-size="143.99px" letter-spacing="0px" word-spacing="0px" style="line-height:125%" xml:space="preserve">
    <text x="149.86476" y="1021.3937" fill="#000000" fill-opacity=".27451" font-family="Droid Sans" font-size="11.999px">HDMI</text>
   </g>
   <g transform="matrix(-.9999 0 0 -1 303.91 1898.7)">
    <rect x="-26.575" y="938.98" width="63.78" height="47.835" fill="url(#linearGradient17212)"/>
    <path d="m-23.031 982.56h28.346v-1.7717l-21.805-1.7716v-8.8583l21.805-1.7717v-1.7716h-28.346z" fill="#999" stroke="#000" stroke-linecap="round" stroke-linejoin="round" stroke-width=".39309"/>
    <path d="m-23.031 959.17h28.346v-1.7717l-21.805-1.7716v-8.8583l21.805-1.7717v-1.7716h-28.346z" fill="#999" stroke="#000" stroke-linecap="round" stroke-linejoin="round" stroke-width=".39309"/>
    <g transform="rotate(-90)" font-family="OCRA" font-size="144px" letter-spacing="0px" word-spacing="0px" style="line-height:125%" xml:space="preserve">
     <text x="-985.03943" y="33.661419" fill="#858585" font-family="Droid Sans" font-size="16px">USB A</text>
    </g>
    <g transform="rotate(-90)" fill="#9c9c9c" font-family="OCRA" font-size="144px" letter-spacing="0px" word-spacing="0px" style="line-height:125%" xml:space="preserve">
     <text x="-970.86621" y="19.48819" fill="#9c9c9c" font-family="Droid Sans" font-size="14px">2x</text>
    </g>
   </g>
   <path d="m183.45 855.2-1.7715-1.7717h-30.115l-1.7715 1.7717z" fill="#858585"/>
   <rect transform="scale(-1,1)" x="-181.68" y="819.77" width="30.115" height="44.291" rx="3.5429" fill="url(#linearGradient17577)" fill-rule="evenodd"/>
   <path d="m180.81 823.31h-28.277" fill="none" stroke="#fff" stroke-linecap="round" stroke-opacity=".34239" stroke-width=".70863"/>
   <path d="m183.45 888.86v-33.661h-33.658v33.661h12.4v-3.5433h8.8574v3.5433z" fill="#ecc82a"/>
   <g transform="matrix(.9999 0 0 1 -142.04 -29.802)" stroke="#fff">
    <path d="m207.2 964.63c-0.23514 7e-3 -0.48838 0.0941-0.77556 0.32078-0.70341-0.27136-1.3856-0.36559-1.9958 0.18678-0.94164-0.12218-1.2481 0.12996-1.4801 0.42431-0.20677-4e-3 -1.5475-0.21259-2.1622 0.70449-1.5451-0.18275-2.0333 0.90879-1.4801 1.9268-0.31555 0.48848-0.64251 0.97111 0.0954 1.9024-0.26104 0.51866-0.0992 1.0813 0.5157 1.7623-0.16229 0.72911 0.1567 1.2436 0.72886 1.6445-0.10701 0.99774 0.91498 1.5779 1.2202 1.7846 0.11718 0.58138 0.36142 1.13 1.5288 1.4333 0.19251 0.86644 0.8941 1.016 1.5735 1.1979-2.2454 1.3052-4.171 3.0225-4.158 7.2359l-0.3289 0.58674c-2.5748 1.5659-4.8912 6.5986-1.2689 10.689 0.23661 1.2804 0.63342 2.2 0.98671 3.2179 0.52844 4.1015 3.9772 6.0221 4.8869 6.2492 1.3329 1.0153 2.7526 1.9787 4.6737 2.6535 1.811 1.8679 3.773 2.5797 5.7457 2.5785h0.0873c1.9727 0 3.9346-0.7106 5.7457-2.5785 1.9211-0.6748 3.3408-1.6382 4.6737-2.6535 0.90963-0.2271 4.3584-2.1477 4.8869-6.2492 0.35329-1.0179 0.7501-1.9375 0.98671-3.2179 3.6223-4.0908 1.3058-9.1235-1.2689-10.689l-0.3289-0.58674c0.013-4.2134-1.9126-5.9307-4.158-7.2359 0.67936-0.18183 1.381-0.33144 1.5735-1.1979 1.1674-0.30335 1.4116-0.85195 1.5288-1.4333 0.30521-0.20671 1.3272-0.78687 1.2202-1.7846 0.57216-0.40096 0.89115-0.91541 0.72886-1.6445 0.61493-0.68097 0.77674-1.2436 0.51569-1.7623 0.73793-0.93126 0.41097-1.4139 0.0954-1.9024 0.55324-1.018 0.065-2.1095-1.4801-1.9268-0.61476-0.91708-1.9555-0.70874-2.1622-0.70449-0.232-0.29435-0.53842-0.54649-1.4801-0.42431-0.61017-0.55237-1.2924-0.45814-1.9958-0.18678-0.83544-0.65929-1.3885-0.13083-2.0201 0.069-1.0118-0.33056-1.243 0.12219-1.7399 0.30656-1.1029-0.23313-1.4381 0.27439-1.9673 0.81008l-0.61517-0.0123c-1.6639 0.98059-2.4905 2.9772-2.7835 4.0037-0.29314-1.0266-1.1179-3.0233-2.7815-4.0037l-0.61517 0.0123c-0.52921-0.53569-0.86448-1.0432-1.9673-0.81008-0.4969-0.18437-0.72813-0.63712-1.7399-0.30656-0.41449-0.13113-0.79565-0.40376-1.2446-0.38981z" fill="none" stroke-width=".51796"/>
    <path d="m203.89 968.95c4.4145 2.2759 6.9807 4.117 8.3866 5.685-0.72 2.8857-4.4761 3.0174-5.8495 2.9364 0.28121-0.13087 0.51584-0.28764 0.59905-0.52854-0.34463-0.24494-1.5666-0.0259-2.4197-0.50506 0.3277-0.0679 0.48099-0.13404 0.63428-0.3759-0.80598-0.25705-1.6742-0.4786-2.1848-0.90444 0.27555 4e-3 0.53282 0.0617 0.89269-0.18793-0.72191-0.38902-1.4923-0.69733-2.0908-1.2921 0.37326-9e-3 0.77569-4e-3 0.8927-0.14096-0.66076-0.40935-1.2182-0.8646-1.6797-1.3625 0.52235 0.063 0.74294 9e-3 0.86921-0.0822-0.49947-0.51156-1.1316-0.94354-1.433-1.574 0.38784 0.13368 0.74267 0.18486 0.9984-0.0118-0.16972-0.38288-0.89691-0.60872-1.3155-1.5035 0.40828 0.0395 0.84131 0.0891 0.92793 0-0.18986-0.77239-0.51504-1.2065-0.83396-1.6562 0.87382-0.0132 2.1977 4e-3 2.1378-0.0704l-0.54031-0.55206c0.85353-0.22984 1.7269 0.0369 2.3609 0.23488 0.28469-0.22461-5e-3 -0.5087-0.35238-0.79871 0.72538 0.0969 1.3808 0.26359 1.9733 0.49334 0.31656-0.28584-0.20555-0.57164-0.45809-0.85748 1.1207 0.21264 1.5954 0.51138 2.0673 0.81048 0.34235-0.32815 0.0196-0.60701-0.21143-0.89268 0.84496 0.31296 1.2802 0.71695 1.7384 1.1158 0.15535-0.20965 0.39468-0.36331 0.10571-0.8692 0.59993 0.34584 1.0518 0.75333 1.386 1.2099 0.3712-0.23638 0.22115-0.55957 0.22318-0.85748 0.62348 0.50721 1.0192 1.0469 1.5035 1.574 0.0976-0.0711 0.18299-0.312 0.25841-0.69303 1.4875 1.4431 3.5892 5.0778 0.54032 6.519-2.5935-2.1405-5.6923-3.6959-9.1266-4.8628z" fill="none" stroke-width=".51796"/>
    <path d="m227.31 968.95c-4.4145 2.2759-6.9807 4.117-8.3866 5.685 0.72001 2.8857 4.4761 3.0174 5.8495 2.9364-0.28121-0.13087-0.51584-0.28764-0.59904-0.52854 0.34462-0.24494 1.5666-0.0259 2.4197-0.50506-0.32771-0.0679-0.481-0.13404-0.63428-0.3759 0.80598-0.25705 1.6742-0.4786 2.1847-0.90444-0.27554 4e-3 -0.53281 0.0617-0.89269-0.18793 0.72191-0.38902 1.4923-0.69733 2.0908-1.2921-0.37326-9e-3 -0.77569-4e-3 -0.89269-0.14096 0.66076-0.40935 1.2182-0.8646 1.6797-1.3625-0.52234 0.063-0.74293 9e-3 -0.8692-0.0822 0.49946-0.51156 1.1316-0.94354 1.433-1.574-0.38784 0.13368-0.74267 0.18486-0.99841-0.0118 0.16972-0.38288 0.89692-0.60872 1.3156-1.5035-0.40829 0.0395-0.84132 0.0891-0.92793 0 0.18986-0.77239 0.51503-1.2065 0.83396-1.6562-0.87383-0.0132-2.1977 4e-3 -2.1378-0.0704l0.54031-0.55206c-0.85353-0.22984-1.7269 0.0369-2.3609 0.23488-0.28468-0.22461 5e-3 -0.5087 0.35238-0.79871-0.72537 0.0969-1.3808 0.26359-1.9733 0.49334-0.31655-0.28584 0.20555-0.57164 0.45809-0.85748-1.1207 0.21264-1.5954 0.51138-2.0673 0.81048-0.34234-0.32815-0.0196-0.60701 0.21143-0.89268-0.84496 0.31296-1.2802 0.71695-1.7384 1.1158-0.15535-0.20965-0.39468-0.36331-0.10571-0.8692-0.59994 0.34584-1.0518 0.75333-1.386 1.2099-0.37119-0.23638-0.22115-0.55957-0.22317-0.85748-0.62348 0.50721-1.0192 1.0469-1.5035 1.574-0.0976-0.0711-0.18299-0.312-0.25841-0.69303-1.4875 1.4431-3.5892 5.0778-0.54031 6.519 2.5935-2.1405 5.6923-3.6959 9.1266-4.8628z" fill="none" stroke-width=".51796"/>
    <path d="m220.95 998.33a5.2878 4.876 0 0 1-10.576 0 5.2878 4.876 0 1 1 10.576 0z" fill="none" stroke-width=".51796"/>
    <path d="m212.6 984.41a4.7426 5.5957 34.034 1 1-6.1699 9.3367 4.7426 5.5957 34.034 0 1 6.1699-9.3367z" fill="none" stroke-width=".51796"/>
    <path d="m218.51 984.15a5.5957 4.7426 55.966 1 0 6.1699 9.3368 5.5957 4.7426 55.966 0 0-6.1699-9.3368z" fill="none" stroke-width=".51796"/>
    <path d="m201.65 986.75c2.3658-0.63391 0.79857 9.7866-1.1261 8.9316-2.1171-1.703-2.799-6.6902 1.1261-8.9316z" fill="none" stroke-width=".51796"/>
    <path d="m228.99 986.62c-2.3658-0.63387-0.79856 9.7866 1.1261 8.9316 2.1171-1.703 2.799-6.6902-1.1261-8.9316z" fill="none" stroke-width=".51796"/>
    <path d="m220.95 978.86c4.0823-0.6893 7.4789 1.7361 7.3422 6.1628-0.13429 1.697-8.846-5.9102-7.3422-6.1628z" fill="none" stroke-width=".51796"/>
    <path d="m209.67 978.73c-4.0823-0.68934-7.4789 1.7361-7.3422 6.1628 0.13428 1.697 8.846-5.9101 7.3422-6.1628z" fill="none" stroke-width=".51796"/>
    <path d="m215.53 977.7c-2.4365-0.0634-4.7749 1.8084-4.7805 2.894-7e-3 1.3191 1.9264 2.6697 4.7971 2.704 2.9316 0.0211 4.8022-1.0811 4.8116-2.4424 0.0107-1.5424-2.6662-3.1794-4.8283-3.1556z" fill="none" stroke-width=".51796"/>
    <path d="m215.68 1004.8c2.1243-0.093 4.9747 0.6842 4.9803 1.7149 0.0352 1.0009-2.5851 3.2621-5.1212 3.2184-2.6265 0.1133-5.202-2.1515-5.1682-2.9365-0.0393-1.151 3.1982-2.0496 5.3092-1.9968z" fill="none" stroke-width=".51796"/>
    <path d="m207.84 998.64c1.5124 1.8221 2.2018 5.0233 0.93968 5.9669-1.1941 0.7204-4.0938 0.4238-6.1549-2.5371-1.39-2.4845-1.2109-5.0128-0.23492-5.7555 1.4595-0.88904 3.7145 0.31182 5.4501 2.3257z" fill="none" stroke-width=".51796"/>
    <path d="m223.23 998.06c-1.6364 1.9167-2.5476 5.4125-1.3538 6.5386 1.1414 0.8747 4.2054 0.7525 6.4686-2.388 1.6434-2.1091 1.0928-5.6316 0.15402-6.5666-1.3945-1.0786-3.3964 0.30177-5.2689 2.416z" fill="none" stroke-width=".51796"/>
    <path transform="matrix(.046036 0 0 .046036 242.14 968.21)" d="m-185.62 213.75a40.781 40.781 0 1 1-81.562 0 40.781 40.781 0 1 1 81.562 0z" fill="none" stroke-width="9.2509"/>
    <g transform="matrix(.064969 0 0 .064969 191.98 965.53)" fill="#fff" stroke-width="1.5945">
     <path d="m597.64 203.66v-17.842h-6.3721v-3.6328h17.065v3.6328h-6.3574v17.842z"/>
     <path d="m611.09 203.66v-21.475h6.4892l3.8965 14.648 3.8525-14.648h6.5039v21.475h-4.0283v-16.904l-4.2627 16.904h-4.1748l-4.248-16.904v16.904z"/>
    </g>
   </g>
   <g transform="scale(.99994 1.0001)" fill="#ffffff" font-family="OCRA" font-size="7.9997px" letter-spacing="0px" word-spacing="0px" style="line-height:125%" xml:space="preserve">
    <text x="40.419289" y="993.11987">Raspberry Pi</text>
   
   
    <text x="54.591908" y="1003.7493">Model B</text>
   </g>
   <path d="m7.186 925.18 1.7715 2.6575 1.7715-2.6575z" fill="#fff"/>
   <g transform="scale(.99995 1.0001)" fill="#ffffff" font-family="OCRA" letter-spacing="0px" word-spacing="0px" style="line-height:125%" xml:space="preserve">
    <text x="123.22382" y="862.24487" font-size="7.9996px">GPIO</text>
   
   
    <text x="150.68304" y="898.56195" font-size="8.9995px">VIDEO</text>
   
   
    <text x="212.68777" y="896.79041" font-size="8.9995px">AUDIO</text>
   </g>
   <g transform="matrix(0 -1 .9999 0 -930.74 932.38)">
    <g fill="none" stroke="#fff" stroke-width=".9">
     <rect transform="rotate(90)" x="935.36" y="-36" width="9" height="27"/>
     <rect transform="rotate(90)" x="944.36" y="-36" width="9" height="27"/>
     <rect transform="rotate(90)" x="953.36" y="-36" width="9" height="27"/>
     <rect transform="rotate(90)" x="962.36" y="-36" width="9" height="27"/>
     <rect transform="rotate(90)" x="971.36" y="-36" width="9" height="27"/>
     <rect transform="rotate(90)" x="980.36" y="-36" width="9" height="27"/>
     <rect transform="rotate(90)" x="989.36" y="-36" width="9" height="27"/>
     <rect transform="rotate(90)" x="998.36" y="-36" width="9" height="27"/>
     <rect transform="rotate(90)" x="1007.4" y="-36" width="9" height="27"/>
     <rect transform="rotate(90)" x="1016.4" y="-36" width="9" height="27"/>
     <rect transform="rotate(90)" x="1025.4" y="-36" width="9" height="27"/>
     <rect transform="rotate(90)" x="1034.4" y="-36" width="9" height="27"/>
     <rect transform="rotate(90)" x="935.36" y="-63" width="9" height="27"/>
     <rect transform="rotate(90)" x="944.36" y="-63" width="9" height="27"/>
     <rect transform="rotate(90)" x="953.36" y="-63" width="9" height="27"/>
     <rect transform="rotate(90)" x="962.36" y="-63" width="9" height="27"/>
     <rect transform="rotate(90)" x="971.36" y="-63" width="9" height="27"/>
     <rect transform="rotate(90)" x="980.36" y="-63" width="9" height="27"/>
     <rect transform="rotate(90)" x="989.36" y="-63" width="9" height="27"/>
     <rect transform="rotate(90)" x="998.36" y="-63" width="9" height="27"/>
     <rect transform="rotate(90)" x="1007.4" y="-63" width="9" height="27"/>
     <rect transform="rotate(90)" x="1016.4" y="-63" width="9" height="27"/>
     <rect transform="rotate(90)" x="1025.4" y="-63" width="9" height="27"/>
     <rect transform="rotate(90)" x="1034.4" y="-63" width="9" height="27"/>
     <rect transform="rotate(90)" x="1043.4" y="-36" width="9" height="27"/>
     <rect transform="rotate(90)" x="1043.4" y="-63" width="9" height="27"/>
    </g>
    <g fill="#ffffff" font-family="OCRA" font-size="8px" letter-spacing="0px" text-align="center" text-anchor="middle" word-spacing="0px" style="line-height:125%" xml:space="preserve">
     <text x="22.5" y="943.01221">3V3</text>
    
    
     <text x="49.504448" y="943.01221">5V</text>
    
    
     <text x="22.5" y="952.01019">SDA</text>
    
    
     <text x="49.504448" y="952.01019">--</text>
    
    
     <text x="22.5" y="961.01221">SCL</text>
    
    
     <text x="49.504448" y="961.01221">GND</text>
    
    
     <text x="22.5" y="970.01019">#4</text>
    
    
     <text x="48.599998" y="970.01221">TXD</text>
    
    
     <text x="22.5" y="979.01221">--</text>
    
    
     <text x="48.599998" y="979.01221">RXD</text>
    
    
     <text x="22.5" y="988.01019">#17</text>
    
    
     <text x="49.504448" y="988.01019">#18</text>
    
    
     <text x="22.5" y="997.01221">#21</text>
    
    
     <text x="49.504448" y="997.01221">--</text>
    
    
     <text x="22.5" y="1006.0102">#22</text>
    
    
     <text x="49.504448" y="1006.0102">#23</text>
    
    
     <text x="22.50445" y="1015.0124">--</text>
    
    
     <text x="49.508896" y="1015.0124">#24</text>
    
    
     <text x="22.50445" y="1024.0104">MOSI</text>
    
    
     <text x="49.508896" y="1024.0104">--</text>
    
    
     <text x="22.50445" y="1033.0122">MISO</text>
    
    
     <text x="49.508896" y="1033.0122">#25</text>
    
    
     <text x="22.50445" y="1042.0101">SCLK</text>
    
    
     <text x="49.508896" y="1042.0101">CS0</text>
    
    
     <text x="22.50445" y="1051.0101">--</text>
    
    
     <text x="49.508896" y="1051.0101">CS1</text>
    </g>
    <path d="m58.05 975.86 3.15-2.25v4.5z" fill="#fff"/>
    <path d="m61.2 966.86-3.15 2.25v-4.5z" fill="#fff"/>
   </g>
   <g transform="scale(.99995 1.0001)" font-family="OCRA" font-size="7.9996px" letter-spacing="0px" text-align="center" text-anchor="middle" word-spacing="0px" style="line-height:125%" xml:space="preserve">
    <text x="19.587339" y="1042.0586" fill="#ffffff">POWER</text>
   </g>
   <g transform="matrix(.9999 0 0 1 -32.672 27.84)">
    <g transform="scale(-1)" font-family="OCRA" font-size="144px" letter-spacing="0px" word-spacing="0px" style="line-height:125%" xml:space="preserve">
     <text x="-279.92123" y="-836.22046" fill="#ffffff" fill-opacity=".25543" font-size="10px">phone</text>
    </g>
    <g transform="matrix(-1 0 0 -1 283.46 1870.9)" fill="#1c1c1c" fill-rule="evenodd">
     <rect y="1011.6" width="42.52" height="40.748"/>
     <rect x="10.63" y="1052.4" width="21.26" height="12.402"/>
    </g>
    <rect transform="scale(-1)" x="-272.83" y="-818.5" width="10.63" height="12.402" fill="url(#linearGradient17216)" fill-rule="evenodd"/>
    <path d="m251.57 806.1 0.88583-0.88583h19.488l0.88583 0.88583z" fill="url(#linearGradient17218)"/>
   </g>
  </g>
 </g>
</svg>
