<?xml version="1.0" encoding="UTF-8"?>
<!-- Generator: Adobe Illustrator 20.0.0, SVG Export Plug-In . SVG Version: 6.00 Build 0)  -->
<svg width=".8in" height=".8in" baseProfile="tiny" version="1.2" viewBox="0 0 57.6 57.6" xml:space="preserve" xmlns="http://www.w3.org/2000/svg" xmlns:xml="http://www.w3.org/XML/1998/namespace">
    <desc>
        <referenceFile>TMP007_REV-A_breadboard.svg</referenceFile>
    </desc>
    <desc>Fritzing breadboard generated by brd2svg</desc>
    <g id="breadboard">
        <g id="icon">
            <path d="m0 7.2c0-3.976 3.224-7.2 7.2-7.2h43.2c3.976 0 7.2 3.224 7.2 7.2v43.2c0 3.976-3.224 7.2-7.2 7.2h-43.2c-3.976 0-7.2-3.224-7.2-7.2v-43.2m5.783 43.2c0 0.783 0.635 1.417 1.417 1.417s1.417-0.635 1.417-1.417-0.634-1.417-1.417-1.417-1.417 0.634-1.417 1.417zm7.2 0c0 0.783 0.635 1.417 1.417 1.417s1.417-0.635 1.417-1.417-0.635-1.417-1.417-1.417-1.417 0.634-1.417 1.417zm7.2 0c0 0.783 0.635 1.417 1.417 1.417 0.783 0 1.417-0.635 1.417-1.417s-0.635-1.417-1.417-1.417c-0.783 0-1.417 0.634-1.417 1.417zm7.2 0c0 0.783 0.635 1.417 1.417 1.417 0.783 0 1.417-0.635 1.417-1.417s-0.635-1.417-1.417-1.417c-0.783 0-1.417 0.634-1.417 1.417zm7.2 0c0 0.783 0.635 1.417 1.417 1.417 0.783 0 1.417-0.635 1.417-1.417s-0.634-1.417-1.417-1.417-1.417 0.634-1.417 1.417zm7.2 0c0 0.783 0.635 1.417 1.417 1.417s1.417-0.635 1.417-1.417c0-0.783-0.635-1.417-1.417-1.417s-1.417 0.634-1.417 1.417zm7.2 0c0 0.783 0.635 1.417 1.417 1.417 0.783 0 1.417-0.635 1.417-1.417s-0.635-1.417-1.417-1.417-1.417 0.634-1.417 1.417zm-2.126-43.2c-3e-3 1.957 1.58 3.546 3.537 3.55s3.546-1.58 3.55-3.537v-0.012c3e-3 -1.957-1.58-3.546-3.537-3.55-1.957-3e-3 -3.546 1.58-3.55 3.537v0.012zm-43.2 0c-3e-3 1.957 1.58 3.546 3.537 3.549s3.546-1.58 3.549-3.537v-0.012c3e-3 -1.957-1.58-3.546-3.537-3.549-1.957-4e-3 -3.546 1.58-3.549 3.537v0.012z" fill="#014CB1"/>
            <g>
                <title>layer 21</title>
                <g>
                    <title>text:TMP007</title>
                    <g transform="translate(18.72 5.76)">
                        
                            
                                <text fill="#FFFFFF" font-family="'OCRA'" font-size="3.3408">TMP007</text>
                            
                        
                    </g>
                </g>
                <g>
                    <title>text:Temp Sensor</title>
                    <g transform="translate(15.12 10.08)">
                        
                            
                                <text fill="#FFFFFF" font-family="'OCRA'" font-size="2.6726">Temp Sensor</text>
                            
                        
                    </g>
                </g>
                <g>
                    <title>text:VCC</title>
                    <g transform="translate(4.32 56.16)">
                        
                            
                                <text fill="#FFFFFF" font-family="'OCRA'" font-size="2.1381">VCC</text>
                            
                        
                    </g>
                </g>
                <g>
                    <title>text:GND</title>
                    <g transform="translate(11.52 46.8)">
                        
                            
                                <text fill="#FFFFFF" font-family="'OCRA'" font-size="2.1381">GND</text>
                            
                        
                    </g>
                </g>
                <g>
                    <title>text:ALERT</title>
                    <g transform="translate(30.96 56.16)">
                        
                            
                                <text fill="#FFFFFF" font-family="'OCRA'" font-size="2.1381">ALERT</text>
                            
                        
                    </g>
                </g>
                <g>
                    <title>text:AD1</title>
                    <g transform="translate(40.32 46.8)">
                        
                            
                                <text fill="#FFFFFF" font-family="'OCRA'" font-size="2.1381">AD1</text>
                            
                        
                    </g>
                </g>
                <g>
                    <title>text:AD0</title>
                    <g transform="translate(47.52 56.16)">
                        
                            
                                <text fill="#FFFFFF" font-family="'OCRA'" font-size="2.1381">AD0</text>
                            
                        
                    </g>
                </g>
                <g>
                    <title>text:SDA</title>
                    <g transform="translate(18.72 56.16)">
                        
                            
                                <text fill="#FFFFFF" font-family="'OCRA'" font-size="2.1381">SDA</text>
                            
                        
                    </g>
                </g>
                <g>
                    <title>text:SCL</title>
                    <g transform="translate(25.92 46.8)">
                        
                            
                                <text fill="#FFFFFF" font-family="'OCRA'" font-size="2.1381">SCL</text>
                            
                        
                    </g>
                </g>
                <g>
                    <title>element:C1</title>
                    <g>
                        <title>package:_0805</title>
                        <line x1="14.04" x2="3.24" y1="38.52" y2="38.52" fill="none" stroke="#fff" stroke-linecap="round" stroke-width=".576"/>
                        <line x1="3.24" x2="3.24" y1="38.52" y2="33.48" fill="none" stroke="#fff" stroke-linecap="round" stroke-width=".576"/>
                        <line x1="3.24" x2="14.04" y1="33.48" y2="33.48" fill="none" stroke="#fff" stroke-linecap="round" stroke-width=".576"/>
                        <line x1="14.04" x2="14.04" y1="33.48" y2="38.52" fill="none" stroke="#fff" stroke-linecap="round" stroke-width=".576"/>
                    </g>
                </g>
                <g>
                    <title>element:FID1</title>
                    <g>
                        <title>package:FIDUCIAL_1MM</title>
                    </g>
                </g>
                <g>
                    <title>element:FID2</title>
                    <g>
                        <title>package:FIDUCIAL_1MM</title>
                    </g>
                </g>
                <g>
                    <title>element:JP1</title>
                    <g>
                        <title>package:1X07_ROUND_76</title>
                    </g>
                </g>
                <g>
                    <title>element:R1</title>
                    <g>
                        <title>package:_0805</title>
                        <line x1="14.04" x2="3.24" y1="31.32" y2="31.32" fill="none" stroke="#fff" stroke-linecap="round" stroke-width=".576"/>
                        <line x1="3.24" x2="3.24" y1="31.32" y2="26.28" fill="none" stroke="#fff" stroke-linecap="round" stroke-width=".576"/>
                        <line x1="3.24" x2="14.04" y1="26.28" y2="26.28" fill="none" stroke="#fff" stroke-linecap="round" stroke-width=".576"/>
                        <line x1="14.04" x2="14.04" y1="26.28" y2="31.32" fill="none" stroke="#fff" stroke-linecap="round" stroke-width=".576"/>
                    </g>
                </g>
                <g>
                    <title>element:R2</title>
                    <g>
                        <title>package:_0805</title>
                        <line x1="14.04" x2="3.24" y1="25.56" y2="25.56" fill="none" stroke="#fff" stroke-linecap="round" stroke-width=".576"/>
                        <line x1="3.24" x2="3.24" y1="25.56" y2="20.52" fill="none" stroke="#fff" stroke-linecap="round" stroke-width=".576"/>
                        <line x1="3.24" x2="14.04" y1="20.52" y2="20.52" fill="none" stroke="#fff" stroke-linecap="round" stroke-width=".576"/>
                        <line x1="14.04" x2="14.04" y1="20.52" y2="25.56" fill="none" stroke="#fff" stroke-linecap="round" stroke-width=".576"/>
                    </g>
                </g>
                <g>
                    <title>element:R3</title>
                    <g>
                        <title>package:_0805</title>
                        <line x1="14.04" x2="3.24" y1="19.8" y2="19.8" fill="none" stroke="#fff" stroke-linecap="round" stroke-width=".576"/>
                        <line x1="3.24" x2="3.24" y1="19.8" y2="14.76" fill="none" stroke="#fff" stroke-linecap="round" stroke-width=".576"/>
                        <line x1="3.24" x2="14.04" y1="14.76" y2="14.76" fill="none" stroke="#fff" stroke-linecap="round" stroke-width=".576"/>
                        <line x1="14.04" x2="14.04" y1="14.76" y2="19.8" fill="none" stroke="#fff" stroke-linecap="round" stroke-width=".576"/>
                    </g>
                </g>
                <g>
                    <title>element:R4</title>
                    <g>
                        <title>package:_0805</title>
                        <line x1="42.84" x2="53.64" y1="27.72" y2="27.72" fill="none" stroke="#fff" stroke-linecap="round" stroke-width=".576"/>
                        <line x1="53.64" x2="53.64" y1="27.72" y2="32.76" fill="none" stroke="#fff" stroke-linecap="round" stroke-width=".576"/>
                        <line x1="53.64" x2="42.84" y1="32.76" y2="32.76" fill="none" stroke="#fff" stroke-linecap="round" stroke-width=".576"/>
                        <line x1="42.84" x2="42.84" y1="32.76" y2="27.72" fill="none" stroke="#fff" stroke-linecap="round" stroke-width=".576"/>
                    </g>
                </g>
                <g>
                    <title>element:R5</title>
                    <g>
                        <title>package:_0805</title>
                        <line x1="42.84" x2="53.64" y1="21.96" y2="21.96" fill="none" stroke="#fff" stroke-linecap="round" stroke-width=".576"/>
                        <line x1="53.64" x2="53.64" y1="21.96" y2="27" fill="none" stroke="#fff" stroke-linecap="round" stroke-width=".576"/>
                        <line x1="53.64" x2="42.84" y1="27" y2="27" fill="none" stroke="#fff" stroke-linecap="round" stroke-width=".576"/>
                        <line x1="42.84" x2="42.84" y1="27" y2="21.96" fill="none" stroke="#fff" stroke-linecap="round" stroke-width=".576"/>
                    </g>
                </g>
                <g>
                    <title>element:U$6</title>
                    <g>
                        <title>package:MOUNTINGHOLE_2.5_PLATED</title>
                        <circle cx="50.4" cy="7.2" r="5.669" fill="none" stroke="#fff" stroke-width=".576"/>
                    </g>
                </g>
                <g>
                    <title>element:U$7</title>
                    <g>
                        <title>package:MOUNTINGHOLE_2.5_PLATED</title>
                        <circle cx="7.2" cy="7.2" r="5.669" fill="none" stroke="#fff" stroke-width=".576"/>
                    </g>
                </g>
                <g>
                    <title>element:U$9</title>
                    <g>
                        <title>package:ADAFRUIT_3.5MM</title>
                    </g>
                </g>
                <g>
                    <title>element:U1</title>
                    <g>
                        <title>package:WCSP-8</title>
                        <line x1="26.107" x2="31.493" y1="26.107" y2="26.107" fill="none" stroke="#fff" stroke-linecap="round" stroke-width=".36"/>
                        <line x1="31.493" x2="31.493" y1="26.107" y2="31.493" fill="none" stroke="#fff" stroke-linecap="round" stroke-width=".36"/>
                        <line x1="31.493" x2="26.107" y1="31.493" y2="31.493" fill="none" stroke="#fff" stroke-linecap="round" stroke-width=".36"/>
                        <line x1="26.107" x2="26.107" y1="31.493" y2="26.107" fill="none" stroke="#fff" stroke-linecap="round" stroke-width=".36"/>
                        <circle cx="32.769" cy="30.784" r=".401" fill="none" stroke="#fff" stroke-width=".864"/>
                    </g>
                </g>
            </g>
            <g transform="matrix(-1 0 0 -1 23.04 72)">
                
                    
                        
                            <rect id="connector0pin" x="9.819" y="34.157" width="3.402" height="3.685" fill="#9A916C"/>
                        
                    
                
            </g>
            <g transform="matrix(-1 0 0 -1 11.52 72)">
                
                    
                        
                            <rect id="connector1pin" x="4.059" y="34.157" width="3.402" height="3.685" fill="#9A916C"/>
                        
                    
                
            </g>
            <path id="connector2pin" d="m7.2 42.503c0.783 0 1.417 0.635 1.417 1.417 0 0.783-0.635 1.417-1.417 1.417-0.783 0-1.417-0.635-1.417-1.417 0-0.783 0.634-1.417 1.417-1.417z" fill="#9A916C"/>
            <path id="connector3pin" d="m43.92 12.983c0.783 0 1.417 0.635 1.417 1.417 0 0.783-0.635 1.417-1.417 1.417-0.783 0-1.417-0.635-1.417-1.417 0-0.783 0.634-1.417 1.417-1.417z" fill="#9A916C"/>
            <circle id="connector4pin" cx="7.2" cy="50.4" r="2.077" fill="none" stroke="#9A916C" stroke-width="1.3187"/>
            <rect x="5.123" y="48.323" width="4.153" height="4.153" fill="none" stroke="#9A916C" stroke-width="1.3187"/>
            <circle id="connector5pin" cx="14.4" cy="50.4" r="2.077" fill="none" stroke="#9A916C" stroke-width="1.3187"/>
            <circle id="connector6pin" cx="21.6" cy="50.4" r="2.077" fill="none" stroke="#9A916C" stroke-width="1.3187"/>
            <circle id="connector7pin" cx="28.8" cy="50.4" r="2.077" fill="none" stroke="#9A916C" stroke-width="1.3187"/>
            <circle id="connector8pin" cx="36" cy="50.4" r="2.077" fill="none" stroke="#9A916C" stroke-width="1.3187"/>
            <circle id="connector9pin" cx="43.2" cy="50.4" r="2.077" fill="none" stroke="#9A916C" stroke-width="1.3187"/>
            <circle id="connector10pin" cx="50.4" cy="50.4" r="2.077" fill="none" stroke="#9A916C" stroke-width="1.3187"/>
            <g transform="matrix(-1 0 0 -1 23.04 57.6)">
                
                    
                        
                            <rect id="connector11pin" x="9.819" y="26.957" width="3.402" height="3.685" fill="#9A916C"/>
                        
                    
                
            </g>
            <g transform="matrix(-1 0 0 -1 11.52 57.6)">
                
                    
                        
                            <rect id="connector12pin" x="4.059" y="26.957" width="3.402" height="3.685" fill="#9A916C"/>
                        
                    
                
            </g>
            <g transform="matrix(-1 0 0 -1 23.04 46.08)">
                
                    
                        
                            <rect id="connector13pin" x="9.819" y="21.197" width="3.402" height="3.685" fill="#9A916C"/>
                        
                    
                
            </g>
            <g transform="matrix(-1 0 0 -1 11.52 46.08)">
                
                    
                        
                            <rect id="connector14pin" x="4.059" y="21.197" width="3.402" height="3.685" fill="#9A916C"/>
                        
                    
                
            </g>
            <g transform="matrix(-1 0 0 -1 23.04 34.56)">
                
                    
                        
                            <rect id="connector15pin" x="9.819" y="15.437" width="3.402" height="3.685" fill="#9A916C"/>
                        
                    
                
            </g>
            <g transform="matrix(-1 0 0 -1 11.52 34.56)">
                
                    
                        
                            <rect id="connector16pin" x="4.059" y="15.437" width="3.402" height="3.685" fill="#9A916C"/>
                        
                    
                
            </g>
            <rect id="connector17pin" x="43.659" y="28.397" width="3.402" height="3.685" fill="#9A916C"/>
            <rect id="connector18pin" x="49.419" y="28.397" width="3.402" height="3.685" fill="#9A916C"/>
            <rect id="connector19pin" x="43.659" y="22.637" width="3.402" height="3.685" fill="#9A916C"/>
            <rect id="connector20pin" x="49.419" y="22.637" width="3.402" height="3.685" fill="#9A916C"/>
            <circle id="connector21pin" cx="50.4" cy="7.2" r="4.263" fill="none" stroke="#9A916C" stroke-width="1.44"/>
            <circle id="connector22pin" cx="7.2" cy="7.2" r="4.263" fill="none" stroke="#9A916C" stroke-width="1.44"/>
            <path id="connector23pin" d="m30.217 29.863c0.196 0 0.354 0.159 0.354 0.354 0 0.196-0.159 0.354-0.354 0.354-0.196 0-0.354-0.159-0.354-0.354s0.159-0.354 0.354-0.354z" fill="#9A916C"/>
            <path id="connector24pin" d="m28.8 29.863c0.196 0 0.354 0.159 0.354 0.354 0 0.196-0.159 0.354-0.354 0.354-0.196 0-0.354-0.159-0.354-0.354s0.158-0.354 0.354-0.354z" fill="#9A916C"/>
            <path id="connector25pin" d="m27.383 29.863c0.196 0 0.354 0.159 0.354 0.354 0 0.196-0.159 0.354-0.354 0.354-0.196 0-0.354-0.159-0.354-0.354-1e-3 -0.195 0.158-0.354 0.354-0.354z" fill="#9A916C"/>
            <path id="connector26pin" d="m30.217 28.446c0.196 0 0.354 0.159 0.354 0.354 0 0.196-0.159 0.354-0.354 0.354-0.196 0-0.354-0.159-0.354-0.354 0-0.196 0.159-0.354 0.354-0.354z" fill="#9A916C"/>
            <path id="connector27pin" d="m27.383 28.446c0.196 0 0.354 0.159 0.354 0.354 0 0.196-0.159 0.354-0.354 0.354-0.196 0-0.354-0.159-0.354-0.354-1e-3 -0.196 0.158-0.354 0.354-0.354z" fill="#9A916C"/>
            <path id="connector28pin" d="m30.217 27.028c0.196 0 0.354 0.159 0.354 0.354 0 0.196-0.159 0.354-0.354 0.354-0.196 0-0.354-0.159-0.354-0.354s0.159-0.354 0.354-0.354z" fill="#9A916C"/>
            <path id="connector29pin" d="m28.8 27.028c0.196 0 0.354 0.159 0.354 0.354 0 0.196-0.159 0.354-0.354 0.354-0.196 0-0.354-0.159-0.354-0.354s0.158-0.354 0.354-0.354z" fill="#9A916C"/>
            <path id="connector30pin" d="m27.383 27.028c0.196 0 0.354 0.159 0.354 0.354 0 0.196-0.159 0.354-0.354 0.354-0.196 0-0.354-0.159-0.354-0.354-1e-3 -0.195 0.158-0.354 0.354-0.354z" fill="#9A916C"/>
        </g>
        <g transform="translate(5.8055 34.228)">
            
                
                    
                        <g transform="matrix(-1 0 0 -1 5.669 3.543)">
                            
                                
                                    
                                        <path d="M5.386,3.543H0.283C0.127,3.543,0,3.416,0,3.26V0.283C0,0.127,0.127,0,0.283,0h5.102c0.157,0,0.283,0.127,0.283,0.283V3.26C5.669,3.416,5.542,3.543,5.386,3.543z" fill="#DCDCDC"/>
                                        <rect x="1.063" width="3.543" height="3.543" fill="#6E554B"/>
                                    
                                
                            
                        </g>
                    
                
            
        </g>
        <g transform="translate(5.8055 27.028)">
            
                
                    
                        <g transform="matrix(-1 0 0 -1 5.669 3.543)">
                            
                                
                                    
                                        <path d="M5.386,3.543H0.283C0.127,3.543,0,3.416,0,3.26V0.283C0,0.127,0.127,0,0.283,0h5.102c0.157,0,0.283,0.127,0.283,0.283V3.26C5.669,3.416,5.542,3.543,5.386,3.543z" fill="#DCDCDC"/>
                                        <rect x="1.063" width="3.543" height="3.543" fill="#333"/>
                                    
                                
                            
                        </g>
                    
                
            
        </g>
        <g transform="translate(5.8055 21.268)">
            
                
                    
                        <g transform="matrix(-1 0 0 -1 5.669 3.543)">
                            
                                
                                    
                                        <path d="M5.386,3.543H0.283C0.127,3.543,0,3.416,0,3.26V0.283C0,0.127,0.127,0,0.283,0h5.102c0.157,0,0.283,0.127,0.283,0.283V3.26C5.669,3.416,5.542,3.543,5.386,3.543z" fill="#DCDCDC"/>
                                        <rect x="1.063" width="3.543" height="3.543" fill="#333"/>
                                    
                                
                            
                        </g>
                    
                
            
        </g>
        <g transform="translate(5.8055 15.508)">
            
                
                    
                        <g transform="matrix(-1 0 0 -1 5.669 3.543)">
                            
                                
                                    
                                        <path d="M5.386,3.543H0.283C0.127,3.543,0,3.416,0,3.26V0.283C0,0.127,0.127,0,0.283,0h5.102c0.157,0,0.283,0.127,0.283,0.283V3.26C5.669,3.416,5.542,3.543,5.386,3.543z" fill="#DCDCDC"/>
                                        <rect x="1.063" width="3.543" height="3.543" fill="#333"/>
                                    
                                
                            
                        </g>
                    
                
            
        </g>
        <g transform="translate(45.406 28.468)">
            
                
                    
                        <path d="M5.386,3.543H0.283C0.127,3.543,0,3.416,0,3.26V0.283C0,0.127,0.127,0,0.283,0h5.102c0.157,0,0.283,0.127,0.283,0.283V3.26C5.669,3.416,5.542,3.543,5.386,3.543z" fill="#DCDCDC"/>
                        <rect x="1.063" width="3.543" height="3.543" fill="#333"/>
                    
                
            
        </g>
        <g transform="translate(45.406 22.708)">
            
                
                    
                        <path d="M5.386,3.543H0.283C0.127,3.543,0,3.416,0,3.26V0.283C0,0.127,0.127,0,0.283,0h5.102c0.157,0,0.283,0.127,0.283,0.283V3.26C5.669,3.416,5.542,3.543,5.386,3.543z" fill="#DCDCDC"/>
                        <rect x="1.063" width="3.543" height="3.543" fill="#333"/>
                    
                
            
        </g>
        <g transform="translate(25.012 12.774)">
            
                
                    
                        <g transform="matrix(0 -1 1 0 .001476 9.7785)">
                            
                                
                                    
                                        <path d="m9.773 3.204c-0.032-0.2-0.141-0.257-0.403-0.341-0.199-0.064-1.533-0.489-1.533-0.489s-0.93-0.351-1.619 0.146c-0.093 0.066-0.189 0.143-0.286 0.224 0.082-0.097 0.158-0.193 0.224-0.286 0.495-0.69 0.143-1.619 0.143-1.619s-0.427-1.334-0.492-1.533c-0.085-0.262-0.142-0.37-0.342-0.402s-0.288 0.054-0.449 0.277c-0.122 0.17-0.939 1.307-0.939 1.307s-0.621 0.777-0.361 1.586c0.034 0.109 0.077 0.224 0.125 0.341-0.067-0.108-0.135-0.209-0.203-0.302-0.503-0.684-1.496-0.636-1.496-0.636s-1.4-6e-3 -1.61-6e-3c-0.275-1e-3 -0.396 0.02-0.488 0.201-0.091 0.181-0.037 0.291 0.126 0.513 0.124 0.169 0.953 1.297 0.953 1.297s0.546 0.83 1.395 0.834c0.114 0 0.236-5e-3 0.362-0.014-0.122 0.03-0.24 0.064-0.348 0.1-0.806 0.267-1.067 1.226-1.067 1.226s-0.438 1.33-0.503 1.529c-0.086 0.261-0.103 0.383 0.04 0.526 0.144 0.143 0.265 0.126 0.526 0.04 0.199-0.065 1.528-0.506 1.528-0.506s0.958-0.263 1.224-1.07c0.036-0.108 0.069-0.225 0.1-0.348-9e-3 0.126-0.014 0.248-0.013 0.362 5e-3 0.849 0.836 1.394 0.836 1.394s1.13 0.827 1.298 0.951c0.223 0.162 0.333 0.216 0.514 0.124s0.201-0.213 0.2-0.488c-1e-3 -0.21-9e-3 -1.61-9e-3 -1.61s0.047-0.993-0.639-1.495c-0.092-0.067-0.194-0.135-0.301-0.202 0.117 0.047 0.232 0.09 0.34 0.124 0.81 0.258 1.584-0.364 1.584-0.364s1.136-0.819 1.306-0.941c0.223-0.161 0.309-0.249 0.277-0.45zm-4.822-1.031c0.152 0.024 0.228 0.349 0.169 0.726s-0.231 0.662-0.384 0.638-0.229-0.349-0.169-0.725c0.059-0.377 0.231-0.663 0.384-0.639zm-1.956 0.999c0.07-0.138 0.402-0.11 0.742 0.063s0.558 0.425 0.488 0.563-0.402 0.11-0.742-0.063-0.558-0.425-0.488-0.563zm1.031 1.878c-0.269 0.27-0.577 0.4-0.686 0.291s0.02-0.416 0.29-0.686c0.269-0.27 0.576-0.4 0.686-0.291 0.109 0.109-0.021 0.416-0.29 0.686zm1.484 0.633c-0.138 0.07-0.39-0.148-0.563-0.487-0.174-0.34-0.203-0.673-0.065-0.743s0.39 0.148 0.563 0.487c0.173 0.34 0.202 0.672 0.065 0.743zm0.357-1.573c-0.377 0.06-0.701-0.015-0.726-0.168-0.024-0.153 0.262-0.325 0.638-0.385 0.377-0.06 0.701 0.015 0.726 0.168 0.024 0.153-0.261 0.325-0.638 0.385z" fill="#DCDCDC"/>
                                    
                                
                            
                        </g>
                    
                
            
        </g>
        <g transform="translate(27.036 26.107)">
            
                
                    
                        <rect x="-.929" width="5.386" height="5.386" fill="#333"/>
                    
                
            
        </g>
    </g>
</svg>
