<?xml version="1.0" encoding="UTF-8"?>
<!-- Generator: Adobe Illustrator 20.0.0, SVG Export Plug-In . SVG Version: 6.00 Build 0)  -->
<svg width=".5in" height=".7in" baseProfile="tiny" version="1.2" viewBox="0 0 36 50.4" xml:space="preserve" xmlns="http://www.w3.org/2000/svg" xmlns:xml="http://www.w3.org/XML/1998/namespace">
    <desc>
        <referenceFile>Adafruit TXB0104 4-channel Bi-Directional Level Shifter_breadboard.svg</referenceFile>
    </desc>
    <desc>Fritzing breadboard generated by brd2svg</desc>
    <g id="breadboard">
        <g id="icon">
            <path d="m28.8 0c3.976 0 7.2 3.224 7.2 7.2v36c0 3.976-3.224 7.2-7.2 7.2h-21.6c-3.976 0-7.2-3.224-7.2-7.2v-36c0-3.976 3.224-7.2 7.2-7.2h21.6m2.16 7.2c0 0.795 0.645 1.44 1.44 1.44s1.44-0.645 1.44-1.44-0.645-1.44-1.44-1.44-1.44 0.645-1.44 1.44zm0 7.2c0 0.795 0.645 1.44 1.44 1.44s1.44-0.645 1.44-1.44-0.645-1.44-1.44-1.44-1.44 0.645-1.44 1.44zm0 7.2c0 0.795 0.645 1.44 1.44 1.44s1.44-0.645 1.44-1.44-0.645-1.44-1.44-1.44-1.44 0.645-1.44 1.44zm0 7.2c0 0.795 0.645 1.44 1.44 1.44s1.44-0.645 1.44-1.44-0.645-1.44-1.44-1.44-1.44 0.645-1.44 1.44zm0 7.2c0 0.795 0.645 1.44 1.44 1.44s1.44-0.645 1.44-1.44-0.645-1.44-1.44-1.44-1.44 0.645-1.44 1.44zm0 7.2c0 0.795 0.645 1.44 1.44 1.44s1.44-0.645 1.44-1.44-0.645-1.44-1.44-1.44-1.44 0.645-1.44 1.44zm-28.8 0c0 0.795 0.644 1.44 1.44 1.44 0.795 0 1.44-0.644 1.44-1.44v-1e-3c0-0.795-0.645-1.44-1.44-1.44s-1.44 0.646-1.44 1.441zm0-7.2c0 0.795 0.644 1.44 1.44 1.44 0.795 0 1.44-0.644 1.44-1.44v-1e-3c0-0.795-0.645-1.44-1.44-1.44s-1.44 0.646-1.44 1.441zm0-7.2c0 0.795 0.644 1.44 1.44 1.44 0.795 0 1.44-0.644 1.44-1.44v-1e-3c0-0.795-0.645-1.44-1.44-1.44s-1.44 0.646-1.44 1.441zm0-7.2c0 0.795 0.644 1.44 1.44 1.44 0.795 0 1.44-0.644 1.44-1.44v-1e-3c0-0.795-0.645-1.44-1.44-1.44s-1.44 0.646-1.44 1.441zm0-7.2c0 0.795 0.644 1.44 1.44 1.44s1.44-0.644 1.44-1.44v-1e-3c0-0.795-0.645-1.44-1.44-1.44s-1.44 0.646-1.44 1.441zm0-7.2c0 0.795 0.644 1.44 1.44 1.44s1.44-0.644 1.44-1.44v-1e-3c0-0.795-0.645-1.44-1.44-1.44s-1.44 0.646-1.44 1.441z" fill="#014CB1"/>
            <g>
                <title>layer 21</title>
                <line x1="18" x2="18" y1="8.28" y2="11.543" fill="none" stroke="#fff" stroke-linecap="round" stroke-width=".72"/>
                <line x1="18" x2="18" y1="14.377" y2="17.64" fill="none" stroke="#fff" stroke-linecap="round" stroke-width=".72"/>
                <g>
                    <title>text:OE</title>
                    <g transform="translate(6.84 44.64)">
                        <text fill="#FFFFFF" font-family="'OCRA'" font-size="2.6726">OE</text>
                    </g>
                </g>
                <g>
                    <title>text:A4</title>
                    <g transform="translate(9.72 38.52)">
                        
                            <g transform="rotate(270)">
                                
                                    <g transform="translate(.00046875 -2.9297e-5)">
                                        <text fill="#FFFFFF" font-family="'OCRA'" font-size="2.6726">A4</text>
                                    </g>
                                
                            </g>
                        
                    </g>
                </g>
                <g>
                    <title>text:A3</title>
                    <g transform="translate(9.72 31.32)">
                        
                            <g transform="rotate(270)">
                                
                                    <g transform="translate(-.0003125 -2.9297e-5)">
                                        <text fill="#FFFFFF" font-family="'OCRA'" font-size="2.6726">A3</text>
                                    </g>
                                
                            </g>
                        
                    </g>
                </g>
                <g>
                    <title>text:A2</title>
                    <g transform="translate(9.72 23.76)">
                        
                            <g transform="rotate(270)">
                                
                                    <g transform="translate(.00023438 -2.9297e-5)">
                                        <text fill="#FFFFFF" font-family="'OCRA'" font-size="2.6726">A2</text>
                                    </g>
                                
                            </g>
                        
                    </g>
                </g>
                <g>
                    <title>text:A1</title>
                    <g transform="translate(9.72 16.92)">
                        
                            <g transform="rotate(270)">
                                
                                    <g transform="translate(7.8125e-5 -2.9297e-5)">
                                        <text fill="#FFFFFF" font-family="'OCRA'" font-size="2.6726">A1</text>
                                    </g>
                                
                            </g>
                        
                    </g>
                </g>
                <g>
                    <title>text:LV</title>
                    <g transform="translate(6.8398 11.24)">
                        <text fill="#FFFFFF" font-family="'OCRA'" font-size="2.6726">LV</text>
                    </g>
                </g>
                <g>
                    <title>text:HV</title>
                    <g transform="translate(24.689 11.24)">
                        <text fill="#FFFFFF" font-family="'OCRA'" font-size="2.6726">HV</text>
                    </g>
                </g>
                <g>
                    <title>text:B1</title>
                    <g transform="translate(29.16 16.56)">
                        
                            <g transform="rotate(270)">
                                
                                    <g transform="translate(.00042869 -2.6855e-5)">
                                        <text fill="#FFFFFF" font-family="'OCRA'" font-size="2.6726">B1</text>
                                    </g>
                                
                            </g>
                        
                    </g>
                </g>
                <g>
                    <title>text:B2</title>
                    <g transform="translate(29.16 23.76)">
                        
                            <g transform="rotate(270)">
                                
                                    <g transform="translate(.00023438 -2.6855e-5)">
                                        <text fill="#FFFFFF" font-family="'OCRA'" font-size="2.6726">B2</text>
                                    </g>
                                
                            </g>
                        
                    </g>
                </g>
                <g>
                    <title>text:B3</title>
                    <g transform="translate(28.8 30.96)">
                        
                            <g transform="rotate(270)">
                                
                                    <g transform="translate(3.8062e-5 -1.1207e-5)">
                                        <text fill="#FFFFFF" font-family="'OCRA'" font-size="2.6726">B3</text>
                                    </g>
                                
                            </g>
                        
                    </g>
                </g>
                <g>
                    <title>text:B4</title>
                    <g transform="translate(29.16 38.52)">
                        
                            <g transform="rotate(270)">
                                
                                    <g transform="translate(.00046875 -2.6855e-5)">
                                        <text fill="#FFFFFF" font-family="'OCRA'" font-size="2.6726">B4</text>
                                    </g>
                                
                            </g>
                        
                    </g>
                </g>
                <g>
                    <title>text:GND</title>
                    <g transform="translate(22.634 45.461)">
                        <text fill="#FFFFFF" font-family="'OCRA'" font-size="2.6726">GND</text>
                    </g>
                </g>
                <g>
                    <title>text:1.2-</title>
                    <g transform="translate(5.04 3.6)">
                        <text fill="#FFFFFF" font-family="'OCRA'" font-size="2.6726">1.2-</text>
                    </g>
                </g>
                <g>
                    <title>text:1.7-</title>
                    <g transform="translate(21.96 3.6)">
                        <text fill="#FFFFFF" font-family="'OCRA'" font-size="2.6726">1.7-</text>
                    </g>
                </g>
                <g>
                    <title>text:3.6V</title>
                    <g transform="translate(6.84 6.6552)">
                        <text fill="#FFFFFF" font-family="'OCRA'" font-size="2.6726">3.6V</text>
                    </g>
                </g>
                <g>
                    <title>text:5.5V</title>
                    <g transform="translate(20.274 6.6552)">
                        <text fill="#FFFFFF" font-family="'OCRA'" font-size="2.6726">5.5V</text>
                    </g>
                </g>
                <g>
                    <title>text:level</title>
                    <g transform="translate(3.9914 49.32)">
                        <text fill="#FFFFFF" font-family="'OCRA'" font-size="2.6726">level</text>
                    </g>
                </g>
                <g>
                    <title>text:shifter</title>
                    <g transform="translate(16.583 49.32)">
                        <text fill="#FFFFFF" font-family="'OCRA'" font-size="2.6726">shifter</text>
                    </g>
                </g>
                <g>
                    <title>element:C1</title>
                    <g>
                        <title>package:0805-NO</title>
                        <line x1="15.84" x2="12.96" y1="13.32" y2="13.32" fill="none" stroke="#fff" stroke-linecap="round" stroke-width=".864"/>
                    </g>
                </g>
                <g>
                    <title>element:C2</title>
                    <g>
                        <title>package:0805-NO</title>
                        <line x1="23.04" x2="20.16" y1="13.32" y2="13.32" fill="none" stroke="#fff" stroke-linecap="round" stroke-width=".864"/>
                    </g>
                </g>
                <g>
                    <title>element:JP3</title>
                    <g>
                        <title>package:1X06-CLEANBIG</title>
                    </g>
                </g>
                <g>
                    <title>element:JP4</title>
                    <g>
                        <title>package:1X06-CLEANBIG</title>
                    </g>
                </g>
                <g>
                    <title>element:R1</title>
                    <g>
                        <title>package:0805-NO</title>
                        <line x1="16.56" x2="16.56" y1="42.12" y2="45" fill="none" stroke="#fff" stroke-linecap="round" stroke-width=".864"/>
                    </g>
                </g>
                <g>
                    <title>element:U$4</title>
                    <g>
                        <title>package:ADAFRUIT_2.5MM</title>
                    </g>
                </g>
                <g>
                    <title>element:U$5</title>
                    <g>
                        <title>package:FIDUCIAL_1MM</title>
                    </g>
                </g>
                <g>
                    <title>element:U2</title>
                    <g>
                        <title>package:TSSOP14</title>
                        <line x1="10.872" x2="10.872" y1="35.991" y2="23.049" fill="none" stroke="#fff" stroke-linecap="round" stroke-width=".576"/>
                        <line x1="25.128" x2="25.128" y1="23.049" y2="35.991" fill="none" stroke="#fff" stroke-linecap="round" stroke-width=".576"/>
                    </g>
                </g>
            </g>
            <g transform="matrix(0 1 -1 0 25.027 -3.7729)">
                
                    <g transform="matrix(2.5352e-6 1 -1 2.5352e-6 25.027 -3.7729)">
                        <rect id="connector5pin" x="12.274" y="8.785" width="4.252" height="3.685" fill="#9A916C"/>
                    </g>
                
            </g>
            <g transform="matrix(0 1 -1 0 30.413 1.6129)">
                
                    <g transform="matrix(2.5352e-6 1 -1 2.5352e-6 30.413 1.6129)">
                        <rect id="connector6pin" x="12.274" y="14.17" width="4.252" height="3.685" fill="#9A916C"/>
                    </g>
                
            </g>
            <g transform="matrix(0 1 -1 0 32.227 -10.973)">
                
                    <g transform="matrix(2.5352e-6 1 -1 2.5352e-6 32.227 -10.973)">
                        <rect id="connector7pin" x="19.474" y="8.785" width="4.252" height="3.685" fill="#9A916C"/>
                    </g>
                
            </g>
            <g transform="matrix(0 1 -1 0 37.613 -5.5871)">
                
                    <g transform="matrix(2.5352e-6 1 -1 2.5352e-6 37.613 -5.5871)">
                        <rect id="connector8pin" x="19.474" y="14.17" width="4.252" height="3.685" fill="#9A916C"/>
                    </g>
                
            </g>
            <circle id="connector9pin" cx="32.4" cy="7.2" r="1.98" fill="none" stroke="#9A916C" stroke-width="1.08"/>
            <circle id="connector10pin" cx="32.4" cy="14.4" r="1.98" fill="none" stroke="#9A916C" stroke-width="1.08"/>
            <circle id="connector11pin" cx="32.4" cy="21.6" r="1.98" fill="none" stroke="#9A916C" stroke-width="1.08"/>
            <circle id="connector12pin" cx="32.4" cy="28.8" r="1.98" fill="none" stroke="#9A916C" stroke-width="1.08"/>
            <circle id="connector13pin" cx="32.4" cy="36" r="1.98" fill="none" stroke="#9A916C" stroke-width="1.08"/>
            <circle id="connector14pin" cx="32.4" cy="43.2" r="1.98" fill="none" stroke="#9A916C" stroke-width="1.08"/>
            <circle id="connector15pin" cx="3.6" cy="43.2" r="1.98" fill="none" stroke="#9A916C" stroke-width="1.08"/>
            <circle id="connector16pin" cx="3.6" cy="36" r="1.98" fill="none" stroke="#9A916C" stroke-width="1.08"/>
            <circle id="connector17pin" cx="3.6" cy="28.8" r="1.98" fill="none" stroke="#9A916C" stroke-width="1.08"/>
            <circle id="connector18pin" cx="3.6" cy="21.6" r="1.98" fill="none" stroke="#9A916C" stroke-width="1.08"/>
            <circle id="connector19pin" cx="3.6" cy="14.4" r="1.98" fill="none" stroke="#9A916C" stroke-width="1.08"/>
            <circle id="connector20pin" cx="3.6" cy="7.2" r="1.98" fill="none" stroke="#9A916C" stroke-width="1.08"/>
            <rect id="connector21pin" x="12.025" y="41.434" width="3.685" height="4.252" fill="#9A916C"/>
            <rect id="connector22pin" x="17.41" y="41.434" width="3.685" height="4.252" fill="#9A916C"/>
            <path id="connector23pin" d="m18 2.183c0.783 0 1.417 0.635 1.417 1.417 0 0.783-0.635 1.417-1.417 1.417-0.783 0-1.417-0.635-1.417-1.417 0-0.783 0.634-1.417 1.417-1.417z" fill="#9A916C"/>
            <g transform="matrix(-1 0 0 -1 47.055 42.498)">
                
                    <rect id="connector24pin" x="23.096" y="19.845" width=".864" height="2.808" fill="#9A916C"/>
                
            </g>
            <g transform="matrix(-1 0 0 -1 43.37 42.498)">
                
                    <rect id="connector25pin" x="21.253" y="19.845" width=".864" height="2.808" fill="#9A916C"/>
                
            </g>
            <g transform="matrix(-1 0 0 -1 39.685 42.498)">
                
                    <rect id="connector26pin" x="19.411" y="19.845" width=".864" height="2.808" fill="#9A916C"/>
                
            </g>
            <g transform="matrix(-1 0 0 -1 36 42.498)">
                
                    <rect id="connector27pin" x="17.568" y="19.845" width=".864" height="2.808" fill="#9A916C"/>
                
            </g>
            <g transform="matrix(-1 0 0 -1 32.315 42.498)">
                
                    <rect id="connector28pin" x="15.725" y="19.845" width=".864" height="2.808" fill="#9A916C"/>
                
            </g>
            <g transform="matrix(-1 0 0 -1 28.63 42.498)">
                
                    <rect id="connector29pin" x="13.883" y="19.845" width=".864" height="2.808" fill="#9A916C"/>
                
            </g>
            <g transform="matrix(-1 0 0 -1 24.945 42.498)">
                
                    <rect id="connector30pin" x="12.04" y="19.845" width=".864" height="2.808" fill="#9A916C"/>
                
            </g>
            <g transform="matrix(-1 0 0 -1 24.945 75.582)">
                
                    <rect id="connector31pin" x="12.04" y="36.387" width=".864" height="2.808" fill="#9A916C"/>
                
            </g>
            <g transform="matrix(-1 0 0 -1 28.63 75.582)">
                
                    <rect id="connector32pin" x="13.883" y="36.387" width=".864" height="2.808" fill="#9A916C"/>
                
            </g>
            <g transform="matrix(-1 0 0 -1 32.315 75.582)">
                
                    <rect id="connector33pin" x="15.725" y="36.387" width=".864" height="2.808" fill="#9A916C"/>
                
            </g>
            <g transform="matrix(-1 0 0 -1 36 75.582)">
                
                    <rect id="connector34pin" x="17.568" y="36.387" width=".864" height="2.808" fill="#9A916C"/>
                
            </g>
            <g transform="matrix(-1 0 0 -1 39.685 75.582)">
                
                    <rect id="connector35pin" x="19.411" y="36.387" width=".864" height="2.808" fill="#9A916C"/>
                
            </g>
            <g transform="matrix(-1 0 0 -1 43.37 75.582)">
                
                    <rect id="connector36pin" x="21.253" y="36.387" width=".864" height="2.808" fill="#9A916C"/>
                
            </g>
            <g transform="matrix(-1 0 0 -1 47.055 75.582)">
                
                    <rect id="connector37pin" x="23.096" y="36.387" width=".864" height="2.808" fill="#9A916C"/>
                
            </g>
        </g>
        <g transform="translate(11.566 11.548)">
            
                <g transform="matrix(0 1 -1 0 4.606 -1.063)">
                    
                        <path d="M5.386,3.543H0.283C0.127,3.543,0,3.416,0,3.26V0.283C0,0.127,0.127,0,0.283,0h5.102c0.157,0,0.283,0.127,0.283,0.283V3.26C5.669,3.416,5.542,3.543,5.386,3.543z" fill="#DCDCDC"/>
                        <g transform="matrix(2.5352e-6 1 -1 2.5352e-6 4.606 -1.063)">
                            <rect x="1.063" width="3.543" height="3.543" fill="#6E554B"/>
                        </g>
                    
                </g>
            
        </g>
        <g transform="translate(18.766 11.548)">
            
                <g transform="matrix(0 1 -1 0 4.606 -1.063)">
                    
                        <path d="M5.386,3.543H0.283C0.127,3.543,0,3.416,0,3.26V0.283C0,0.127,0.127,0,0.283,0h5.102c0.157,0,0.283,0.127,0.283,0.283V3.26C5.669,3.416,5.542,3.543,5.386,3.543z" fill="#DCDCDC"/>
                        <g transform="matrix(2.5352e-6 1 -1 2.5352e-6 4.606 -1.063)">
                            <rect x="1.063" width="3.543" height="3.543" fill="#6E554B"/>
                        </g>
                    
                </g>
            
        </g>
        <g transform="translate(13.726 41.788)">
            
                <path d="M5.386,3.543H0.283C0.127,3.543,0,3.416,0,3.26V0.283C0,0.127,0.127,0,0.283,0h5.102c0.157,0,0.283,0.127,0.283,0.283V3.26C5.669,3.416,5.542,3.543,5.386,3.543z" fill="#DCDCDC"/>
                <rect x="1.063" width="3.543" height="3.543" fill="#333"/>
            
        </g>
        <g transform="translate(10.772 20.591)">
            
                <g transform="matrix(-1 0 0 -1 14.457 17.858)">
                    
                        
                            <path d="M2.069,0v17.858H1.36V0H2.069z M3.203,0v17.858h0.709L3.912,0H3.203z M5.045,0v17.858h0.709L5.754,0H5.045z M6.888,0v17.858h0.709L7.597,0H6.888z M8.73,0v17.858h0.709L9.439,0H8.73z M10.573,0v17.858h0.709V0H10.573z M12.415,0v17.858h0.709V0H12.415z" fill="#DCDCDC"/>
                            <rect x="-.057" y="2.693" width="14.457" height="12.472" fill="#333"/>
                            <circle cx="2.069" cy="13.039" r="1.134"/>
                        
                    
                </g>
            
        </g>
    </g>
</svg>
