<?xml version="1.0" encoding="UTF-8"?>
<!-- Created with Inkscape (http://www.inkscape.org/) -->
<svg width="54" height="153" version="1.1" xmlns="http://www.w3.org/2000/svg">
 <metadata>
  <rdf:RDF xmlns:rdf="http://www.w3.org/1999/02/22-rdf-syntax-ns#">
   <cc:Work rdf:about="" xmlns:cc="http://creativecommons.org/ns#" xmlns:rdf="http://www.w3.org/1999/02/22-rdf-syntax-ns#">
    <dc:format xmlns:dc="http://purl.org/dc/elements/1.1/">image/svg+xml</dc:format>
    <dc:type rdf:resource="http://purl.org/dc/dcmitype/StillImage" xmlns:dc="http://purl.org/dc/elements/1.1/" xmlns:rdf="http://www.w3.org/1999/02/22-rdf-syntax-ns#"/>
    <dc:title xmlns:dc="http://purl.org/dc/elements/1.1/"/>
   </cc:Work>
  </rdf:RDF>
 </metadata>
 <g transform="translate(0,-297)"></g>
 <g transform="translate(0,-297)">
  <g id="breadboard">
   <path d="m31.5 441v-117" color="#000000" fill="none" stroke="#3b4dff" stroke-width="5.4"/>
   <path d="m22.5 441v-117" color="#000000" fill="none" stroke="#e33333" stroke-width="5.4"/>
   <rect x="21.15" y="441" width="2.7" height="5.85" fill="#888"/>
   <rect x="30.15" y="441" width="2.7" height="5.85" fill="#888"/>
   <rect id="connector1pin" x="19.8" y="442.8" width="5.4" height="5.4" fill-opacity="0"/>
   <rect id="connector2pin" x="28.8" y="442.8" width="5.4" height="5.4" fill-opacity="0"/>
   <path transform="translate(0,297)" d="m41.302 12.665a20.25 20.25 0 0 1 2.2132 26.053" fill="none" stroke="#808080" stroke-linecap="round" stroke-linejoin="round" stroke-width=".625"/>
   <path transform="translate(0,297)" d="m13.084 41.711a20.25 20.25 0 0 1-3.7602-24.59" fill="none" stroke="#808080" stroke-linecap="round" stroke-linejoin="round" stroke-width=".625"/>
   <path transform="translate(0,297)" d="m46.429 15.653a22.5 22.5 0 0 1-3.0412 26.764" fill="none" stroke="#808080" stroke-linecap="round" stroke-linejoin="round" stroke-width=".625"/>
   <path transform="translate(0,297)" d="m8.382 39.634a22.5 22.5 0 0 1 1.9408-27.738" fill="none" stroke="#808080" stroke-linecap="round" stroke-linejoin="round" stroke-width=".625"/>
   <path transform="translate(0,297)" d="m7.9628 42.816a24.75 24.75 0 0 1-1.3565-29.84" fill="none" stroke="#808080" stroke-linecap="round" stroke-linejoin="round" stroke-width=".625"/>
   <path transform="translate(0,297)" d="m47.038 12.472a24.75 24.75 0 0 1 1.9097 25.968" fill="none" stroke="#808080" stroke-linecap="round" stroke-linejoin="round" stroke-width=".625"/>
   <path d="m20.7 439.2v-101.7" color="#000000" fill="none" stroke="#fff" stroke-linecap="round" stroke-opacity=".3545" stroke-width=".9"/>
   <path d="m29.7 439.2v-101.7" color="#000000" fill="none" stroke="#fff" stroke-linecap="round" stroke-opacity=".3545" stroke-width=".9"/>
   <path transform="translate(9,-108)" d="m36 432a18 18 0 1 1-36 0 18 18 0 1 1 36 0z" fill="#aeaeae" stroke="#a1a1a1" stroke-linecap="round" stroke-linejoin="round" stroke-width="1.8"/>
   <path transform="translate(-18,-72)" d="m58.5 396a13.5 13.5 0 1 1-27 0 13.5 13.5 0 1 1 27 0z" fill="#2c2c2c"/>
   <path transform="translate(9,-108)" d="m0.90826 437.65a18 18 0 0 1 25.107-21.763" fill="none" stroke="#e7e7e7" stroke-linecap="round" stroke-linejoin="round" stroke-width=".9"/>
   <path transform="translate(9,-108)" d="m35.338 427.16a18 18 0 0 1-28.01 19.332" fill="none" stroke="#4c4c4c" stroke-linecap="round" stroke-linejoin="round" stroke-width=".9"/>
  </g>
 </g>
</svg>
