<?xml version="1.0" encoding="UTF-8"?>
<!-- Created with Inkscape (http://www.inkscape.org/) -->
<svg width="72" height="157.5" version="1.1" xmlns="http://www.w3.org/2000/svg">
 <defs>
  <linearGradient id="linearGradient9420">
   <stop stop-color="#868686" offset="0"/>
   <stop stop-color="#a9a9a9" offset=".4"/>
   <stop stop-color="#fff" offset=".5"/>
   <stop stop-color="#b0b0b0" offset=".6"/>
   <stop stop-color="#808080" offset="1"/>
  </linearGradient>
  <linearGradient id="linearGradient4802" x1="40.5" x2="94.5" y1="94.5" y2="40.5" gradientUnits="userSpaceOnUse" xmlns:xlink="http://www.w3.org/1999/xlink">
   <stop stop-color="#b3b3b3" stop-opacity=".65179" offset="0"/>
   <stop stop-color="#939393" stop-opacity=".69643" offset=".25"/>
   <stop stop-color="#e9e9e9" offset=".5"/>
   <stop stop-color="#969696" stop-opacity=".69643" offset=".75"/>
   <stop stop-color="#909090" stop-opacity=".65179" offset="1"/>
  </linearGradient>
  <linearGradient id="linearGradient4813" x1="49.5" x2="85.5" y1="49.5" y2="85.5" gradientUnits="userSpaceOnUse" xlink:href="#linearGradient9420" xmlns:xlink="http://www.w3.org/1999/xlink"/>
  <linearGradient id="linearGradient4839" x1="54" x2="81" y1="81" y2="54" gradientUnits="userSpaceOnUse" xlink:href="#linearGradient9420" xmlns:xlink="http://www.w3.org/1999/xlink"/>
  <radialGradient id="radialGradient4865" cx="67.5" cy="67.5" r="17.775" gradientTransform="matrix(.75949 -.75949 .70711 .70711 -31.496 71.036)" gradientUnits="userSpaceOnUse" xmlns:xlink="http://www.w3.org/1999/xlink">
   <stop stop-color="#868686" offset="0"/>
   <stop stop-color="#a9a9a9" offset=".93671"/>
   <stop stop-color="#fff" offset=".96203"/>
   <stop stop-color="#b0b0b0" offset=".98734"/>
   <stop stop-color="#808080" offset="1"/>
  </radialGradient>
 </defs>
 <metadata>
  <rdf:RDF xmlns:rdf="http://www.w3.org/1999/02/22-rdf-syntax-ns#">
   <cc:Work rdf:about="" xmlns:cc="http://creativecommons.org/ns#" xmlns:rdf="http://www.w3.org/1999/02/22-rdf-syntax-ns#">
    <dc:format xmlns:dc="http://purl.org/dc/elements/1.1/">image/svg+xml</dc:format>
    <dc:type rdf:resource="http://purl.org/dc/dcmitype/StillImage" xmlns:dc="http://purl.org/dc/elements/1.1/" xmlns:rdf="http://www.w3.org/1999/02/22-rdf-syntax-ns#"/>
    <dc:title xmlns:dc="http://purl.org/dc/elements/1.1/"/>
   </cc:Work>
  </rdf:RDF>
 </metadata>
 <g id="breadboard" transform="translate(0,-22.5)">
  <path d="m36 60.75v108" color="#000000" fill="none" stroke="#ec7525" stroke-width="4.5"/>
  <path d="m45 60.75v108" color="#000000" fill="none" stroke="#ce2b2b" stroke-width="4.5"/>
  <path d="m54 60.75v108" color="#000000" fill="none" stroke="#313131" stroke-width="4.5"/>
  <path d="m27 60.75v108" color="#000000" fill="none" stroke="#37a5df" stroke-width="4.5"/>
  <path d="m18 60.75v108" color="#000000" fill="none" stroke="#31a935" stroke-width="4.5"/>
  <g transform="rotate(-90)" fill="#ffffff" fill-opacity=".5873" font-family="DroidSans" font-size="4px" font-weight="bold" letter-spacing="0px" word-spacing="0px" style="line-height:125%" xml:space="preserve">
   <text x="-166.50946" y="19.35">COM</text>
  
  
   <text x="-166.50946" y="28.382113">NO</text>
  
  
   <text x="-166.50946" y="37.382111">NC</text>
  
  
   <text x="-166.50946" y="46.382111">LED+</text>
  
  
   <text x="-166.50946" y="55.382111">LED-</text>
  </g>
  <rect x="17.1" y="168.75" width="1.8" height="6.75" fill="#7d7d7d" fill-opacity=".5873"/>
  <rect id="connector1pin" x="16.2" y="173.7" width="3.6" height="3.6" fill="none"/>
  <rect x="26.1" y="168.75" width="1.8" height="6.75" fill="#7d7d7d" fill-opacity=".5873"/>
  <rect id="connector2pin" x="25.2" y="173.7" width="3.6" height="3.6" fill="none"/>
  <rect x="35.1" y="168.75" width="1.8" height="6.75" fill="#7d7d7d" fill-opacity=".5873"/>
  <rect id="connector3pin" x="34.2" y="173.7" width="3.6" height="3.6" fill="none"/>
  <rect x="44.1" y="168.75" width="1.8" height="6.75" fill="#7d7d7d" fill-opacity=".5873"/>
  <rect id="connector4pin" x="43.2" y="173.7" width="3.6" height="3.6" fill="none"/>
  <rect x="53.1" y="168.75" width="1.8" height="6.75" fill="#7d7d7d" fill-opacity=".5873"/>
  <rect id="connector5pin" x="52.2" y="173.7" width="3.6" height="3.6" fill="none"/>
  <path transform="translate(0 -872.36)" d="m52.695 1039.3v-83.7" color="#000000" fill="none" stroke="#fff" stroke-linecap="round" stroke-opacity=".15686" stroke-width=".74424"/>
  <path transform="translate(0 -872.36)" d="m43.695 1039.3v-83.7" color="#000000" fill="none" stroke="#fff" stroke-linecap="round" stroke-opacity=".15686" stroke-width=".74424"/>
  <path transform="translate(0 -872.36)" d="m34.695 1039.3v-83.7" color="#000000" fill="none" stroke="#fff" stroke-linecap="round" stroke-opacity=".15686" stroke-width=".74424"/>
  <path transform="translate(0 -872.36)" d="m25.695 1039.3v-83.7" color="#000000" fill="none" stroke="#fff" stroke-linecap="round" stroke-opacity=".15686" stroke-width=".74424"/>
  <path transform="translate(0 -872.36)" d="m16.65 1039.3v-83.7" color="#000000" fill="none" stroke="#fff" stroke-linecap="round" stroke-opacity=".15686" stroke-width=".74424"/>
  <path transform="translate(-31.5 -6.75)" d="m99 67.5a31.5 31.5 0 1 1-63 0 31.5 31.5 0 1 1 63 0z" fill="#808080" stroke="#000" stroke-width=".45"/>
  <path transform="translate(-31.5 -6.75)" d="m94.5 67.5a27 27 0 1 1-54 0 27 27 0 1 1 54 0z" fill="none" stroke="url(#linearGradient4802)" stroke-width="9"/>
  <path transform="translate(-31.5 -6.75)" d="m89.1 67.5a21.6 21.6 0 1 1-43.2 0 21.6 21.6 0 1 1 43.2 0z" fill="#808080" stroke="url(#linearGradient4813)" stroke-linecap="round" stroke-linejoin="round" stroke-width="1.8"/>
  <path transform="translate(-31.5 -6.75)" d="m88.2 67.5a20.7 20.7 0 1 1-41.4 0 20.7 20.7 0 1 1 41.4 0z" fill="none" stroke="#000" stroke-linecap="round" stroke-linejoin="round" stroke-width=".45"/>
  <path transform="translate(-31.5 -6.75)" d="m85.5 67.5a18 18 0 1 1-36 0 18 18 0 1 1 36 0z" fill="none" stroke="#000" stroke-linecap="round" stroke-linejoin="round" stroke-width=".45"/>
  <path transform="translate(-31.5 -6.75)" d="m86.85 67.5a19.35 19.35 0 1 1-38.7 0 19.35 19.35 0 1 1 38.7 0z" fill="none" stroke="#fff" stroke-linecap="round" stroke-linejoin="round" stroke-width="2.7"/>
  <path transform="translate(-31.5 -6.75)" d="m85.05 67.5a17.55 17.55 0 1 1-35.1 0 17.55 17.55 0 1 1 35.1 0z" fill="url(#radialGradient4865)" stroke="url(#linearGradient4839)" stroke-linecap="round" stroke-linejoin="round" stroke-width=".45"/>
  <path transform="translate(-31.5 -6.75)" d="m86.85 67.5a19.35 19.35 0 1 1-38.7 0 19.35 19.35 0 1 1 38.7 0z" fill="none" stroke-width="0"/>
  <path transform="translate(-31.5 -6.75)" d="m86.85 67.5a19.35 19.35 0 1 1-38.7 0 19.35 19.35 0 1 1 38.7 0z" fill="none" stroke="#fff" stroke-linecap="round" stroke-linejoin="round" stroke-opacity=".31373" stroke-width="4.5"/>
 </g>
</svg>
