<?xml version="1.0" encoding="UTF-8"?>
<!-- Created with Inkscape (http://www.inkscape.org/) -->
<svg width="27" height="18" version="1.1" xmlns="http://www.w3.org/2000/svg" xmlns:cc="http://creativecommons.org/ns#" xmlns:dc="http://purl.org/dc/elements/1.1/" xmlns:rdf="http://www.w3.org/1999/02/22-rdf-syntax-ns#">
 <metadata>
  <rdf:RDF>
   <cc:Work rdf:about="">
    <dc:format>image/svg+xml</dc:format>
    <dc:type rdf:resource="http://purl.org/dc/dcmitype/StillImage"/>
    <dc:title/>
   </cc:Work>
  </rdf:RDF>
 </metadata>
 <g id="pcb">
  <g id="copper0" fill="none" stroke="#f6ca34" stroke-linecap="round" stroke-linejoin="round" stroke-width="1.8">
   <path id="connector1pin" d="m11.25 9a2.25 2.25 0 0 1-4.5 0 2.25 2.25 0 1 1 4.5 0z"/>
   <path id="connector2pin" d="m20.25 9a2.25 2.25 0 0 1-4.5 0 2.25 2.25 0 1 1 4.5 0z"/>
  </g>
  <g id="copper1" fill="none" stroke="#f6ca34" stroke-linecap="round" stroke-linejoin="round" stroke-width="1.8">
   <path id="connector1pin" d="m11.25 9a2.25 2.25 0 0 1-4.5 0 2.25 2.25 0 1 1 4.5 0z"/>
   <path id="connector2pin" d="m20.25 9a2.25 2.25 0 0 1-4.5 0 2.25 2.25 0 1 1 4.5 0z"/>
  </g>
  <g id="silkscreen">
   <g transform="translate(-.67323 -18.028)" font-family="OCRA" font-size="8px" letter-spacing="0px" text-align="center" text-anchor="middle" word-spacing="0px" style="line-height:125%" xml:space="preserve">
    <text x="14.173228" y="34.228348" fill="#ffffff" font-size="4px">3xAAA</text>



   </g>
   <rect x=".45" y=".45001" width="26.108" height="17.1" fill="none" stroke="#fff" stroke-width=".3881"/>
   <path d="m9 1.575v3.15" color="#000000" fill="#eaeaea" fill-opacity=".7663" fill-rule="evenodd" stroke="#fff" stroke-dashoffset=".288" stroke-linecap="round" stroke-linejoin="round" stroke-width=".46699"/>
   <path d="m10.575 3.15h-3.15" color="#000000" fill="#eaeaea" fill-opacity=".7663" fill-rule="evenodd" stroke="#fff" stroke-dashoffset=".288" stroke-linecap="round" stroke-linejoin="round" stroke-width=".46699"/>
   <path d="m19.583 3.15h-3.15" color="#000000" fill="#eaeaea" fill-opacity=".7663" fill-rule="evenodd" stroke="#fff" stroke-dashoffset=".288" stroke-linecap="round" stroke-linejoin="round" stroke-width=".46699"/>
  </g>
 </g>
</svg>
