<?xml version="1.0" encoding="UTF-8"?>
<!-- Created with Inkscape (http://www.inkscape.org/) -->
<svg width="81" height="45" version="1.1" xmlns="http://www.w3.org/2000/svg" xmlns:cc="http://creativecommons.org/ns#" xmlns:dc="http://purl.org/dc/elements/1.1/" xmlns:rdf="http://www.w3.org/1999/02/22-rdf-syntax-ns#">
 <metadata>
  <rdf:RDF>
   <cc:Work rdf:about="">
    <dc:format>image/svg+xml</dc:format>
    <dc:type rdf:resource="http://purl.org/dc/dcmitype/StillImage"/>
    <dc:title/>
   </cc:Work>
  </rdf:RDF>
 </metadata>
 <g transform="translate(0 -1007.4)" fill="none" stroke-linecap="round" stroke-linejoin="round">
  <path d="m4.5 1025.4v9c2.4853 0 4.5-2.0147 4.5-4.5s-2.0147-4.5-4.5-4.5z" stroke="#fff" stroke-width=".45"/>
  <rect x="4.5" y="1011.9" width="72" height="36" stroke="#fff" stroke-width=".40249"/>
  <g id="copper0" stroke="#f6ca34" stroke-width="1.8">
   <path id="connector1pin" transform="translate(0 998.36)" d="m11.25 45a2.25 2.25 0 1 1-4.5 0 2.25 2.25 0 1 1 4.5 0z"/>
   <path id="connector16pin" transform="translate(0 971.36)" d="m11.25 45a2.25 2.25 0 1 1-4.5 0 2.25 2.25 0 1 1 4.5 0z"/>
   <path id="connector2pin" transform="translate(9 998.36)" d="m11.25 45a2.25 2.25 0 1 1-4.5 0 2.25 2.25 0 1 1 4.5 0z"/>
   <path id="connector15pin" transform="translate(9 971.36)" d="m11.25 45a2.25 2.25 0 1 1-4.5 0 2.25 2.25 0 1 1 4.5 0z"/>
   <path id="connector3pin" transform="translate(18 998.36)" d="m11.25 45a2.25 2.25 0 1 1-4.5 0 2.25 2.25 0 1 1 4.5 0z"/>
   <path id="connector14pin" transform="translate(18 971.36)" d="m11.25 45a2.25 2.25 0 1 1-4.5 0 2.25 2.25 0 1 1 4.5 0z"/>
   <path id="connector4pin" transform="translate(27 998.36)" d="m11.25 45a2.25 2.25 0 1 1-4.5 0 2.25 2.25 0 1 1 4.5 0z"/>
   <path id="connector13pin" transform="translate(27 971.36)" d="m11.25 45a2.25 2.25 0 1 1-4.5 0 2.25 2.25 0 1 1 4.5 0z"/>
   <path id="connector5pin" transform="translate(36 998.36)" d="m11.25 45a2.25 2.25 0 1 1-4.5 0 2.25 2.25 0 1 1 4.5 0z"/>
   <path id="connector12pin" transform="translate(36 971.36)" d="m11.25 45a2.25 2.25 0 1 1-4.5 0 2.25 2.25 0 1 1 4.5 0z"/>
   <path id="connector6pin" transform="translate(45 998.36)" d="m11.25 45a2.25 2.25 0 1 1-4.5 0 2.25 2.25 0 1 1 4.5 0z"/>
   <path id="connector11pin" transform="translate(45 971.36)" d="m11.25 45a2.25 2.25 0 1 1-4.5 0 2.25 2.25 0 1 1 4.5 0z"/>
   <path id="connector7pin" transform="translate(54 998.36)" d="m11.25 45a2.25 2.25 0 1 1-4.5 0 2.25 2.25 0 1 1 4.5 0z"/>
   <path id="connector10pin" transform="translate(54 971.36)" d="m11.25 45a2.25 2.25 0 1 1-4.5 0 2.25 2.25 0 1 1 4.5 0z"/>
   <path id="connector8pin" transform="translate(63 998.36)" d="m11.25 45a2.25 2.25 0 1 1-4.5 0 2.25 2.25 0 1 1 4.5 0z"/>
   <path id="connector9pin" transform="translate(63 971.36)" d="m11.25 45a2.25 2.25 0 1 1-4.5 0 2.25 2.25 0 1 1 4.5 0z"/>
  </g>
  <g id="copper1" stroke="#f6ca34" stroke-width="1.8">
   <path id="connector1pin" transform="translate(0 998.36)" d="m11.25 45a2.25 2.25 0 1 1-4.5 0 2.25 2.25 0 1 1 4.5 0z"/>
   <path id="connector16pin" transform="translate(0 971.36)" d="m11.25 45a2.25 2.25 0 1 1-4.5 0 2.25 2.25 0 1 1 4.5 0z"/>
   <path id="connector2pin" transform="translate(9 998.36)" d="m11.25 45a2.25 2.25 0 1 1-4.5 0 2.25 2.25 0 1 1 4.5 0z"/>
   <path id="connector15pin" transform="translate(9 971.36)" d="m11.25 45a2.25 2.25 0 1 1-4.5 0 2.25 2.25 0 1 1 4.5 0z"/>
   <path id="connector3pin" transform="translate(18 998.36)" d="m11.25 45a2.25 2.25 0 1 1-4.5 0 2.25 2.25 0 1 1 4.5 0z"/>
   <path id="connector14pin" transform="translate(18 971.36)" d="m11.25 45a2.25 2.25 0 1 1-4.5 0 2.25 2.25 0 1 1 4.5 0z"/>
   <path id="connector4pin" transform="translate(27 998.36)" d="m11.25 45a2.25 2.25 0 1 1-4.5 0 2.25 2.25 0 1 1 4.5 0z"/>
   <path id="connector13pin" transform="translate(27 971.36)" d="m11.25 45a2.25 2.25 0 1 1-4.5 0 2.25 2.25 0 1 1 4.5 0z"/>
   <path id="connector5pin" transform="translate(36 998.36)" d="m11.25 45a2.25 2.25 0 1 1-4.5 0 2.25 2.25 0 1 1 4.5 0z"/>
   <path id="connector12pin" transform="translate(36 971.36)" d="m11.25 45a2.25 2.25 0 1 1-4.5 0 2.25 2.25 0 1 1 4.5 0z"/>
   <path id="connector6pin" transform="translate(45 998.36)" d="m11.25 45a2.25 2.25 0 1 1-4.5 0 2.25 2.25 0 1 1 4.5 0z"/>
   <path id="connector11pin" transform="translate(45 971.36)" d="m11.25 45a2.25 2.25 0 1 1-4.5 0 2.25 2.25 0 1 1 4.5 0z"/>
   <path id="connector7pin" transform="translate(54 998.36)" d="m11.25 45a2.25 2.25 0 1 1-4.5 0 2.25 2.25 0 1 1 4.5 0z"/>
   <path id="connector10pin" transform="translate(54 971.36)" d="m11.25 45a2.25 2.25 0 1 1-4.5 0 2.25 2.25 0 1 1 4.5 0z"/>
   <path id="connector8pin" transform="translate(63 998.36)" d="m11.25 45a2.25 2.25 0 1 1-4.5 0 2.25 2.25 0 1 1 4.5 0z"/>
   <path id="connector9pin" transform="translate(63 971.36)" d="m11.25 45a2.25 2.25 0 1 1-4.5 0 2.25 2.25 0 1 1 4.5 0z"/>
  </g>
 </g>
</svg>
