<?xml version="1.0" encoding="UTF-8"?>
<!-- Created with Fritzing (http://www.fritzing.org/) -->
<svg width="1.4in" height=".7in" baseProfile="tiny" version="1.2" viewBox="0 0 100.8 50.4" xmlns="http://www.w3.org/2000/svg">
 <desc>
  <referenceFile>ItsyBitsy RP2040 rev C1_pcb.svg</referenceFile>
 </desc>
 <desc>Fritzing footprint generated by brd2svg</desc>
 <g id="silkscreen">
  <path d="m0.288 32.318 1.4318-1.4235v-12.1l-1.4318-1.4236v-13.524a3.312 3.312 0 0 1 3.5794-3.5589h93.065a3.312 3.312 0 0 1 3.5791 3.5589v42.706a3.312 3.312 0 0 1-3.5791 3.5589h-93.065a3.312 3.312 0 0 1-3.5794-3.5589v-14.235m11.608-12.645a0.70413 0.70413 0 1 0 1.4083 0 0.70413 0.70413 0 1 0-1.4083 0zm0 11.055a0.70413 0.70413 0 1 0 1.4083 0 0.70413 0.70413 0 1 0-1.4083 0z" fill="none" stroke="#fff" stroke-width=".576"/>
  <g>
   <title>element:IC3</title>
   <g>
    <title>package:QFN56_7MM_REDUCEDEPAD</title>
    <line x1="66.219" x2="68.061" y1="14.379" y2="14.379" stroke="#fff" stroke-linecap="round" stroke-width=".432"/>
    <line x1="68.061" x2="68.061" y1="14.379" y2="16.08" stroke="#fff" stroke-linecap="round" stroke-width=".432"/>
    <line x1="68.061" x2="68.061" y1="32.52" y2="34.221" stroke="#fff" stroke-linecap="round" stroke-width=".432"/>
    <line x1="68.061" x2="66.36" y1="34.221" y2="34.221" stroke="#fff" stroke-linecap="round" stroke-width=".432"/>
    <line x1="48.219" x2="48.219" y1="32.52" y2="34.221" stroke="#fff" stroke-linecap="round" stroke-width=".432"/>
    <line x1="48.219" x2="49.92" y1="34.221" y2="34.221" stroke="#fff" stroke-linecap="round" stroke-width=".432"/>
    <line x1="49.92" x2="48.219" y1="14.379" y2="14.379" stroke="#fff" stroke-linecap="round" stroke-width=".432"/>
    <line x1="48.219" x2="48.219" y1="14.379" y2="16.08" stroke="#fff" stroke-linecap="round" stroke-width=".432"/>
    <circle cx="68.061" cy="14.379" r=".95077" fill="none" stroke="#fff" stroke-width=".432"/>
   </g>
  </g>
  <g>
   <title>element:JP2</title>
   <g>
    <title>package:1X14_ROUND70</title>
   </g>
  </g>
  <g>
   <title>element:JP4</title>
   <g>
    <title>package:1X14_ROUND70</title>
   </g>
  </g>
  <g>
   <title>element:U$4</title>
   <g>
    <title>package:ITSY2040_TOP</title>
   </g>
  </g>
  <g>
   <title>element:U$5</title>
   <g>
    <title>package:ITSY2040_BOT</title>
   </g>
  </g>
  <g>
   <title>element:X3</title>
   <g>
    <title>package:4UCONN_20329_NARROW</title>
    <line x1="15.718" x2="15.718" y1="18.113" y2="20.381" stroke="#fff" stroke-linecap="round" stroke-width=".36"/>
    <line x1="15.718" x2="15.718" y1="30.019" y2="32.287" stroke="#fff" stroke-linecap="round" stroke-width=".36"/>
    <line x1="2.9622" x2=".41102" y1="14.428" y2="14.428" stroke="#fff" stroke-linecap="round" stroke-width=".36"/>
    <line x1=".41102" x2=".41102" y1="14.428" y2="35.972" stroke="#fff" stroke-linecap="round" stroke-width=".36"/>
    <line x1=".41102" x2="2.9622" y1="35.972" y2="35.972" stroke="#fff" stroke-linecap="round" stroke-width=".36"/>
   </g>
  </g>
 </g>
 <g id="copper1">
  <g id="copper0" fill="none" stroke="#F7BD13">
   <circle id="connector102pad" cx="3.6" cy="3.6" r="1.8967" stroke-width=".95868" connectorname="VBAT"/>
   <circle id="connector118pad" cx="82.8" cy="46.8" r="1.8967" stroke-width=".95868" connectorname="MOSI"/>
   <circle id="connector110pad" cx="61.2" cy="3.6" r="1.8967" stroke-width=".95868" connectorname="D7"/>
   <circle id="connector126pad" cx="25.2" cy="46.8" r="1.8967" stroke-width=".95868" connectorname="VHI"/>
   <circle id="connector106pad" cx="32.4" cy="3.6" r="1.8967" stroke-width=".95868" connectorname="D12"/>
   <circle id="connector114pad" cx="90" cy="3.6" r="1.8967" stroke-width=".95868" connectorname="TX"/>
   <circle id="connector122pad" cx="54" cy="46.8" r="1.8967" stroke-width=".95868" connectorname="A3"/>
   <circle id="connector100pad" cx="97.2" cy="18" r="1.9687" stroke-width="1.1027" connectorname="D3"/>
   <circle id="connector104pad" cx="18" cy="3.6" r="1.8967" stroke-width=".95868" connectorname="VBUS"/>
   <circle id="connector108pad" cx="46.8" cy="3.6" r="1.8967" stroke-width=".95868" connectorname="D10"/>
   <circle id="connector112pad" cx="75.6" cy="3.6" r="1.8967" stroke-width=".95868" connectorname="SCL"/>
   <circle id="connector116pad" cx="97.2" cy="46.8" r="1.8967" stroke-width=".95868" connectorname="D2"/>
   <circle id="connector120pad" cx="68.4" cy="46.8" r="1.8967" stroke-width=".95868" connectorname="D25"/>
   <circle id="connector124pad" cx="39.6" cy="46.8" r="1.8967" stroke-width=".95868" connectorname="A1"/>
   <circle id="connector128pad" cx="10.8" cy="46.8" r="1.8967" stroke-width=".95868" connectorname="+3V3"/>
   <circle id="connector99pad" cx="97.2" cy="25.2" r="1.9687" stroke-width="1.1027" connectorname="SWCLK"/>
   <circle id="connector101pad" cx="97.2" cy="10.8" r="1.9687" stroke-width="1.1027" connectorname="D4"/>
   <circle id="connector103pad" cx="10.8" cy="3.6" r="1.8967" stroke-width=".95868" connectorname="GND"/>
   <circle id="connector105pad" cx="25.2" cy="3.6" r="1.8967" stroke-width=".95868" connectorname="D13"/>
   <circle id="connector107pad" cx="39.6" cy="3.6" r="1.8967" stroke-width=".95868" connectorname="D11"/>
   <circle id="connector109pad" cx="54" cy="3.6" r="1.8967" stroke-width=".95868" connectorname="D9"/>
   <circle id="connector111pad" cx="68.4" cy="3.6" r="1.8967" stroke-width=".95868" connectorname="D5_5V"/>
   <circle id="connector113pad" cx="82.8" cy="3.6" r="1.8967" stroke-width=".95868" connectorname="SDA"/>
   <circle id="connector115pad" cx="97.2" cy="3.6" r="1.8967" stroke-width=".95868" connectorname="RX"/>
   <circle id="connector117pad" cx="90" cy="46.8" r="1.8967" stroke-width=".95868" connectorname="MISO"/>
   <circle id="connector119pad" cx="75.6" cy="46.8" r="1.8967" stroke-width=".95868" connectorname="SCK"/>
   <circle id="connector121pad" cx="61.2" cy="46.8" r="1.8967" stroke-width=".95868" connectorname="D24"/>
   <circle id="connector123pad" cx="46.8" cy="46.8" r="1.8967" stroke-width=".95868" connectorname="A2"/>
   <circle id="connector125pad" cx="32.4" cy="46.8" r="1.8967" stroke-width=".95868" connectorname="A0"/>
   <circle id="connector127pad" cx="18" cy="46.8" r="1.8967" stroke-width=".95868" connectorname="+3V3"/>
   <circle id="connector129pad" cx="3.6" cy="46.8" r="1.8967" stroke-width=".95868" connectorname="!RESET"/>
   <circle id="connector97pad" cx="97.2" cy="39.6" r="1.9687" stroke-width="1.1027" connectorname="EN"/>
   <circle id="connector98pad" cx="97.2" cy="32.4" r="1.9687" stroke-width="1.1027" connectorname="SWDIO"/>
  </g>
 </g>
</svg>
