<?xml version="1.0" encoding="UTF-8"?>
<!-- Created with Fritzing (http://www.fritzing.org/) -->
<svg width=".75in" height=".81626in" baseProfile="tiny" version="1.2" viewBox="0 0 54 58.771" xmlns="http://www.w3.org/2000/svg">
 <desc>
  <referenceFile>Adafruit BNO055 and BMP280 BFF_pcb.svg</referenceFile>
 </desc>
 <desc>Fritzing footprint generated by brd2svg</desc>
 <g id="silkscreen">
  <path d="m51.931 7.5077v43.846a6.912 6.912 0 0 1-7.1232 7.1295h-35.616a6.912 6.912 0 0 1-7.1232-7.1295v-43.846a6.912 6.912 0 0 1 7.1232-7.1295h35.616a6.912 6.912 0 0 1 7.1232 7.1295" fill="none" stroke="#fff" stroke-width=".576"/>
  <g>
   <title>element:JP1</title>
   <g>
    <title>package:1X07_CASTEL</title>
   </g>
  </g>
  <g>
   <title>element:JP3</title>
   <g>
    <title>package:1X07_CASTEL</title>
   </g>
  </g>
  <g>
   <title>element:PLABEL15</title>
   <g>
    <title>package:PLABEL15</title>
   </g>
  </g>
  <g>
   <title>element:PLABEL17</title>
   <g>
    <title>package:PLABEL17</title>
   </g>
  </g>
  <g>
   <title>element:U$5</title>
   <g>
    <title>package:BNO055</title>
    <line x1="32.953" x2="32.953" y1="22.034" y2="37.908" stroke="#fff" stroke-linecap="round" stroke-width=".36"/>
    <line x1="32.953" x2="21.047" y1="37.908" y2="37.908" stroke="#fff" stroke-linecap="round" stroke-width=".36"/>
    <line x1="21.047" x2="21.047" y1="37.908" y2="22.034" stroke="#fff" stroke-linecap="round" stroke-width=".36"/>
    <line x1="21.047" x2="32.953" y1="22.034" y2="22.034" stroke="#fff" stroke-linecap="round" stroke-width=".36"/>
    <circle cx="31.535" cy="20.333" r=".56693" fill="none" stroke="#fff" stroke-width=".99212"/>
   </g>
  </g>
  <line x1="52.2" x2="53.712" y1="54.943" y2="54.943" fill="none" stroke="#fff" stroke-width=".576"/>
  <line x1="52.2" x2="53.712" y1="3.9193" y2="3.9193" fill="none" stroke="#fff" stroke-width=".576"/>
  <line x1="53.712" x2="53.712" y1="54.943" y2="3.9193" fill="none" stroke="#fff" stroke-width=".576"/>
  <line x1=".288" x2="1.8" y1="54.943" y2="54.943" fill="none" stroke="#fff" stroke-width=".576"/>
  <line x1=".288" x2="1.8" y1="3.9193" y2="3.9193" fill="none" stroke="#fff" stroke-width=".576"/>
  <line x1=".288" x2=".288" y1="54.943" y2="3.9193" fill="none" stroke="#fff" stroke-width=".576"/>
  <line x1="23.522" x2="29.758" y1=".288" y2=".288" fill="none" stroke="#fff" stroke-width=".576"/>
  <line x1="23.522" x2="23.522" y1=".091081" y2=".288" fill="none" stroke="#fff" stroke-width=".576"/>
  <line x1="29.758" x2="29.758" y1=".091081" y2=".288" fill="none" stroke="#fff" stroke-width=".576"/>
 </g>
 <g id="copper1">
  <g id="copper0">
   <circle id="connector15pad" cx="48.6" cy="7.8311" r="1.9687" fill="none" stroke="#F7BD13" stroke-width="1.1027" connectorname="A0"/>
   <circle id="connector16pad" cx="52.353" cy="7.8311" r="1.9687" fill="none" stroke="#F7BD13" stroke-width="1.1027" connectorname="A0"/>
   <path d="m47.825 5.8624h9.0559v3.9373h-9.0559v-3.9373m2.5592 1.9687a1.9687 1.9687 0 1 0 3.9373 0 1.9687 1.9687 0 1 0-3.9373 0z" fill="#F7BD13" stroke-width="0"/>
   <circle id="connector17pad" cx="48.6" cy="15.031" r="1.9687" fill="none" stroke="#F7BD13" stroke-width="1.1027" connectorname="A1"/>
   <circle id="connector18pad" cx="52.353" cy="15.031" r="1.9687" fill="none" stroke="#F7BD13" stroke-width="1.1027" connectorname="A1"/>
   <path d="m47.825 13.062h9.0559v3.9373h-9.0559v-3.9373m2.5592 1.9687a1.9687 1.9687 0 1 0 3.9373 0 1.9687 1.9687 0 1 0-3.9373 0z" fill="#F7BD13" stroke-width="0"/>
   <circle id="connector19pad" cx="48.6" cy="22.231" r="1.9687" fill="none" stroke="#F7BD13" stroke-width="1.1027" connectorname="A2"/>
   <circle id="connector20pad" cx="52.353" cy="22.231" r="1.9687" fill="none" stroke="#F7BD13" stroke-width="1.1027" connectorname="A2"/>
   <path d="m47.825 20.262h9.0559v3.9373h-9.0559v-3.9373m2.5592 1.9687a1.9687 1.9687 0 1 0 3.9373 0 1.9687 1.9687 0 1 0-3.9373 0z" fill="#F7BD13" stroke-width="0"/>
   <circle id="connector21pad" cx="48.6" cy="29.431" r="1.9687" fill="none" stroke="#F7BD13" stroke-width="1.1027" connectorname="A3"/>
   <circle id="connector22pad" cx="52.353" cy="29.431" r="1.9687" fill="none" stroke="#F7BD13" stroke-width="1.1027" connectorname="A3"/>
   <path d="m47.825 27.462h9.0559v3.9373h-9.0559v-3.9373m2.5592 1.9687a1.9687 1.9687 0 1 0 3.9373 0 1.9687 1.9687 0 1 0-3.9373 0z" fill="#F7BD13" stroke-width="0"/>
   <circle id="connector23pad" cx="48.6" cy="36.631" r="1.9687" fill="none" stroke="#F7BD13" stroke-width="1.1027" connectorname="SDA"/>
   <circle id="connector24pad" cx="52.353" cy="36.631" r="1.9687" fill="none" stroke="#F7BD13" stroke-width="1.1027" connectorname="SDA"/>
   <path d="m47.825 34.662h9.0559v3.9373h-9.0559v-3.9373m2.5592 1.9687a1.9687 1.9687 0 1 0 3.9373 0 1.9687 1.9687 0 1 0-3.9373 0z" fill="#F7BD13" stroke-width="0"/>
   <circle id="connector25pad" cx="48.6" cy="43.831" r="1.9687" fill="none" stroke="#F7BD13" stroke-width="1.1027" connectorname="SCL"/>
   <circle id="connector26pad" cx="52.353" cy="43.831" r="1.9687" fill="none" stroke="#F7BD13" stroke-width="1.1027" connectorname="SCL"/>
   <path d="m47.825 41.862h9.0559v3.9373h-9.0559v-3.9373m2.5592 1.9687a1.9687 1.9687 0 1 0 3.9373 0 1.9687 1.9687 0 1 0-3.9373 0z" fill="#F7BD13" stroke-width="0"/>
   <circle id="connector27pad" cx="48.6" cy="51.031" r="1.9687" fill="none" stroke="#F7BD13" stroke-width="1.1027" connectorname="TX"/>
   <circle id="connector28pad" cx="52.353" cy="51.031" r="1.9687" fill="none" stroke="#F7BD13" stroke-width="1.1027" connectorname="TX"/>
   <path d="m47.825 49.062h9.0559v3.9373h-9.0559v-3.9373m2.5592 1.9687a1.9687 1.9687 0 1 0 3.9373 0 1.9687 1.9687 0 1 0-3.9373 0z" fill="#F7BD13" stroke-width="0"/>
   <circle id="connector29pad" cx="5.4" cy="51.031" r="1.9687" fill="none" stroke="#F7BD13" stroke-width="1.1027" connectorname="RX"/>
   <circle id="connector30pad" cx="1.647" cy="51.031" r="1.9687" fill="none" stroke="#F7BD13" stroke-width="1.1027" connectorname="RX"/>
   <path d="m-2.8809 49.062h9.0559v3.9373h-9.0559v-3.9373m2.5593 1.9687a1.9687 1.9687 0 1 0 3.9373 0 1.9687 1.9687 0 1 0-3.9373 0z" fill="#F7BD13" stroke-width="0"/>
   <circle id="connector31pad" cx="5.4" cy="43.831" r="1.9687" fill="none" stroke="#F7BD13" stroke-width="1.1027" connectorname="SCK"/>
   <circle id="connector32pad" cx="1.647" cy="43.831" r="1.9687" fill="none" stroke="#F7BD13" stroke-width="1.1027" connectorname="SCK"/>
   <path d="m-2.8809 41.862h9.0559v3.9373h-9.0559v-3.9373m2.5593 1.9687a1.9687 1.9687 0 1 0 3.9373 0 1.9687 1.9687 0 1 0-3.9373 0z" fill="#F7BD13" stroke-width="0"/>
   <circle id="connector33pad" cx="5.4" cy="36.631" r="1.9687" fill="none" stroke="#F7BD13" stroke-width="1.1027" connectorname="MISO"/>
   <circle id="connector34pad" cx="1.647" cy="36.631" r="1.9687" fill="none" stroke="#F7BD13" stroke-width="1.1027" connectorname="MISO"/>
   <path d="m-2.8809 34.662h9.0559v3.9373h-9.0559v-3.9373m2.5593 1.9687a1.9687 1.9687 0 1 0 3.9373 0 1.9687 1.9687 0 1 0-3.9373 0z" fill="#F7BD13" stroke-width="0"/>
   <circle id="connector35pad" cx="5.4" cy="29.431" r="1.9687" fill="none" stroke="#F7BD13" stroke-width="1.1027" connectorname="MOSI"/>
   <circle id="connector36pad" cx="1.647" cy="29.431" r="1.9687" fill="none" stroke="#F7BD13" stroke-width="1.1027" connectorname="MOSI"/>
   <path d="m-2.8809 27.462h9.0559v3.9373h-9.0559v-3.9373m2.5593 1.9687a1.9687 1.9687 0 1 0 3.9373 0 1.9687 1.9687 0 1 0-3.9373 0z" fill="#F7BD13" stroke-width="0"/>
   <circle id="connector37pad" cx="5.4" cy="22.231" r="1.9687" fill="none" stroke="#F7BD13" stroke-width="1.1027" connectorname="3.3V"/>
   <circle id="connector38pad" cx="1.647" cy="22.231" r="1.9687" fill="none" stroke="#F7BD13" stroke-width="1.1027" connectorname="3.3V"/>
   <path d="m-2.8809 20.262h9.0559v3.9373h-9.0559v-3.9373m2.5593 1.9687a1.9687 1.9687 0 1 0 3.9373 0 1.9687 1.9687 0 1 0-3.9373 0z" fill="#F7BD13" stroke-width="0"/>
   <circle id="connector39pad" cx="5.4" cy="15.031" r="1.9687" fill="none" stroke="#F7BD13" stroke-width="1.1027" connectorname="GND"/>
   <circle id="connector40pad" cx="1.647" cy="15.031" r="1.9687" fill="none" stroke="#F7BD13" stroke-width="1.1027" connectorname="GND"/>
   <path d="m-2.8809 13.062h9.0559v3.9373h-9.0559v-3.9373m2.5593 1.9687a1.9687 1.9687 0 1 0 3.9373 0 1.9687 1.9687 0 1 0-3.9373 0z" fill="#F7BD13" stroke-width="0"/>
   <circle id="connector41pad" cx="5.4" cy="7.8311" r="1.9687" fill="none" stroke="#F7BD13" stroke-width="1.1027" connectorname="+5V"/>
   <circle id="connector42pad" cx="1.647" cy="7.8311" r="1.9687" fill="none" stroke="#F7BD13" stroke-width="1.1027" connectorname="+5V"/>
   <path d="m-2.8809 5.8624h9.0559v3.9373h-9.0559v-3.9373m2.5593 1.9687a1.9687 1.9687 0 1 0 3.9373 0 1.9687 1.9687 0 1 0-3.9373 0z" fill="#F7BD13" stroke-width="0"/>
  </g>
 </g>
</svg>
