<?xml version="1.0" encoding="UTF-8"?>
<!-- Created with Fritzing (http://www.fritzing.org/) -->
<svg width=".75021in" height=".75001in" baseProfile="tiny" version="1.2" viewBox="0 0 54.015 54.001" xmlns="http://www.w3.org/2000/svg">
 <desc>
  <referenceFile>Adafruit_ADXL335_pcb.svg</referenceFile>
 </desc>
 <desc>Fritzing footprint generated by brd2svg</desc>
 <g id="silkscreen">
  <path d="m53.727 7.4112v39.178a6.912 6.912 0 0 1-7.1232 7.1232h-39.193a6.912 6.912 0 0 1-7.1232-7.1232v-39.178a6.912 6.912 0 0 1 7.1232-7.1232h39.193a6.912 6.912 0 0 1 7.1232 7.1232" fill="none" stroke="#fff" stroke-width=".576"/>
  <line x1="30.946" x2="21.586" y1="12.996" y2="12.996" stroke="#fff" stroke-linecap="round" stroke-width=".72"/>
  <line x1="21.586" x2="23.026" y1="12.996" y2="14.436" stroke="#fff" stroke-linecap="round" stroke-width=".72"/>
  <line x1="21.586" x2="23.026" y1="12.996" y2="11.556" stroke="#fff" stroke-linecap="round" stroke-width=".72"/>
  <line x1="35.266" x2="35.266" y1="17.316" y2="25.956" stroke="#fff" stroke-linecap="round" stroke-width=".72"/>
  <line x1="35.266" x2="36.706" y1="25.956" y2="23.796" stroke="#fff" stroke-linecap="round" stroke-width=".72"/>
  <line x1="35.266" x2="33.826" y1="25.956" y2="23.796" stroke="#fff" stroke-linecap="round" stroke-width=".72"/>
  <line x1="41.386" x2="43.546" y1="52.596" y2="50.796" stroke="#fff" stroke-linecap="round" stroke-width="1.152"/>
  <line x1="43.546" x2="39.226" y1="50.796" y2="50.796" stroke="#fff" stroke-linecap="round" stroke-width="1.152"/>
  <line x1="39.226" x2="41.386" y1="50.796" y2="52.596" stroke="#fff" stroke-linecap="round" stroke-width="1.152"/>
  <line x1="34.186" x2="36.346" y1="52.596" y2="50.796" stroke="#fff" stroke-linecap="round" stroke-width="1.152"/>
  <line x1="36.346" x2="32.026" y1="50.796" y2="50.796" stroke="#fff" stroke-linecap="round" stroke-width="1.152"/>
  <line x1="32.026" x2="34.186" y1="50.796" y2="52.596" stroke="#fff" stroke-linecap="round" stroke-width="1.152"/>
  <line x1="26.986" x2="29.146" y1="52.596" y2="50.796" stroke="#fff" stroke-linecap="round" stroke-width="1.152"/>
  <line x1="29.146" x2="24.826" y1="50.796" y2="50.796" stroke="#fff" stroke-linecap="round" stroke-width="1.152"/>
  <line x1="24.826" x2="26.986" y1="50.796" y2="52.596" stroke="#fff" stroke-linecap="round" stroke-width="1.152"/>
  <line x1="7.5458" x2="3.9458" y1="52.596" y2="52.596" stroke="#fff" stroke-linecap="round" stroke-width="1.152"/>
  <line x1="3.9458" x2="5.7458" y1="52.596" y2="50.796" stroke="#fff" stroke-linecap="round" stroke-width="1.152"/>
  <line x1="5.7458" x2="7.5458" y1="50.796" y2="52.596" stroke="#fff" stroke-linecap="round" stroke-width="1.152"/>
  <line x1="12.586" x2="14.746" y1="52.596" y2="50.796" stroke="#fff" stroke-linecap="round" stroke-width="1.152"/>
  <line x1="14.746" x2="10.426" y1="50.796" y2="50.796" stroke="#fff" stroke-linecap="round" stroke-width="1.152"/>
  <line x1="10.426" x2="12.586" y1="50.796" y2="52.596" stroke="#fff" stroke-linecap="round" stroke-width="1.152"/>
  <line x1="19.786" x2="17.626" y1="50.796" y2="52.596" stroke="#fff" stroke-linecap="round" stroke-width="1.152"/>
  <line x1="17.626" x2="21.946" y1="52.596" y2="52.596" stroke="#fff" stroke-linecap="round" stroke-width="1.152"/>
  <line x1="21.946" x2="19.786" y1="52.596" y2="50.796" stroke="#fff" stroke-linecap="round" stroke-width="1.152"/>
  <circle cx="35.266" cy="12.996" r="2.2768" fill="none" stroke="#fff" stroke-width=".72"/>
  <circle cx="35.266" cy="12.996" r=".72" fill="none" stroke="#fff" stroke-width=".72"/>
  <g>
   <title>element:JP2</title>
   <g>
    <title>package:1X07_ROUND_76</title>
   </g>
  </g>
 </g>
 <g id="copper1">
  <g id="copper0" fill="none" stroke="#F7BD13">
   <circle id="connector33pad" cx="19.786" cy="46.836" r="2.0767" stroke-width="1.3187" connectorname="GND"/>
   <circle id="connector41pad" cx="7.1858" cy="7.2363" r="3.8381" stroke-width="1.44" connectorname="P$1"/>
   <circle id="connector37pad" cx="48.586" cy="46.836" r="2.0767" stroke-width="1.3187" connectorname="ST"/>
   <circle id="connector31pad" cx="5.3858" cy="46.836" r="2.0767" stroke-width="1.3187" connectorname="VIN"/>
   <circle id="connector35pad" cx="34.186" cy="46.836" r="2.0767" stroke-width="1.3187" connectorname="YOUT"/>
   <circle id="connector32pad" cx="12.586" cy="46.836" r="2.0767" stroke-width="1.3187" connectorname="+3V3"/>
   <circle id="connector34pad" cx="26.986" cy="46.836" r="2.0767" stroke-width="1.3187" connectorname="ZOUT"/>
   <circle id="connector36pad" cx="41.386" cy="46.836" r="2.0767" stroke-width="1.3187" connectorname="XOUT"/>
   <circle id="connector40pad" cx="46.786" cy="7.2363" r="3.8381" stroke-width="1.44" connectorname="P$1"/>
  </g>
 </g>
</svg>
