<?xml version="1.0" encoding="UTF-8"?>
<!-- Created with Fritzing (http://www.fritzing.org/) -->
<svg width=".55in" height=".5in" baseProfile="tiny" version="1.2" viewBox="0 0 39.6 36" xmlns="http://www.w3.org/2000/svg">
 <desc>
  <referenceFile>Adafruit PDM Mic_pcb.svg</referenceFile>
 </desc>
 <desc>Fritzing footprint generated by brd2svg</desc>
 <g id="silkscreen">
  <path d="m39.312 7.3728v21.254a6.912 6.912 0 0 1-7.0952 7.0848h-24.834a6.912 6.912 0 0 1-7.0952-7.0848v-21.254a6.912 6.912 0 0 1 7.0952-7.0848h24.834a6.912 6.912 0 0 1 7.0952 7.0848" fill="none" stroke="#fff" stroke-width=".576"/>
  <g>
   <title>element:IC2</title>
   <g>
    <title>package:SPK0415HM4H</title>
    <line x1="24.052" x2="15.548" y1="21.869" y2="21.869" stroke="#fff" stroke-linecap="round" stroke-width=".36"/>
    <line x1="15.548" x2="15.548" y1="21.869" y2="10.531" stroke="#fff" stroke-linecap="round" stroke-width=".36"/>
    <line x1="15.548" x2="24.052" y1="10.531" y2="10.531" stroke="#fff" stroke-linecap="round" stroke-width=".36"/>
    <line x1="24.052" x2="24.052" y1="10.531" y2="21.869" stroke="#fff" stroke-linecap="round" stroke-width=".36"/>
    <circle cx="19.8" cy="18.043" r=".86212" fill="none" stroke="#fff" stroke-width=".36"/>
   </g>
  </g>
  <g>
   <title>element:JP1</title>
   <g>
    <title>package:1X05_ROUND</title>
   </g>
  </g>
  <g>
   <title>element:U$5</title>
   <g>
    <title>package:ADAFRUIT_3.5MM</title>
   </g>
  </g>
  <g>
   <title>element:U$6</title>
   <g>
    <title>package:MOUNTINGHOLE_2.5_PLATED</title>
    <circle cx="32.4" cy="7.2" r="5.6693" fill="none" stroke="#fff" stroke-width=".576"/>
   </g>
  </g>
  <g>
   <title>element:U$12</title>
   <g>
    <title>package:MOUNTINGHOLE_2.5_PLATED</title>
    <circle cx="7.2" cy="7.2" r="5.6693" fill="none" stroke="#fff" stroke-width=".576"/>
   </g>
  </g>
 </g>
 <g id="copper1">
  <g id="copper0" fill="none" stroke="#F7BD13">
   <circle id="connector18pad" cx="5.4" cy="28.8" r="1.8967" stroke-width=".95868" connectorname="VDD"/>
   <circle id="connector22pad" cx="34.2" cy="28.8" r="1.8967" stroke-width=".95868" connectorname="DATA"/>
   <circle id="connector26pad" cx="7.2" cy="7.2" r="4.2633" stroke-width="1.44" connectorname="P$1"/>
   <circle id="connector20pad" cx="19.8" cy="28.8" r="1.8967" stroke-width=".95868" connectorname="SELECT"/>
   <circle id="connector19pad" cx="12.6" cy="28.8" r="1.8967" stroke-width=".95868" connectorname="GND"/>
   <circle id="connector21pad" cx="27" cy="28.8" r="1.8967" stroke-width=".95868" connectorname="CLK"/>
   <circle id="connector25pad" cx="32.4" cy="7.2" r="4.2633" stroke-width="1.44" connectorname="P$1"/>
  </g>
 </g>
</svg>
