<?xml version="1.0" encoding="UTF-8"?>
<!-- Created with Fritzing (http://www.fritzing.org/) -->
<svg width="1in" height=".8in" baseProfile="tiny" version="1.2" viewBox="0 0 72 57.6" xmlns="http://www.w3.org/2000/svg">
 <desc>
  <referenceFile>Adafruit INA228 I2C Power Monitor_pcb.svg</referenceFile>
 </desc>
 <desc>Fritzing footprint generated by brd2svg</desc>
 <g id="silkscreen">
  <path d="m0.288 7.416a6.912 6.912 0 0 1 7.1424-7.128h57.139a6.912 6.912 0 0 1 7.1424 7.128v42.768a6.912 6.912 0 0 1-7.1424 7.128h-57.139a6.912 6.912 0 0 1-7.1424-7.128v-42.768" fill="none" stroke="#fff" stroke-width=".576"/>
  <g>
   <title>element:CONN3</title>
   <g>
    <title>package:JST_SH4</title>
    <line x1="65.894" x2="58.524" y1="40.904" y2="40.904" stroke="#fff" stroke-linecap="round" stroke-width=".432"/>
    <line x1="58.524" x2="58.524" y1="40.904" y2="37.786" stroke="#fff" stroke-linecap="round" stroke-width=".432"/>
    <line x1="58.524" x2="58.524" y1="27.014" y2="23.613" stroke="#fff" stroke-linecap="round" stroke-width=".432"/>
    <line x1="58.524" x2="65.894" y1="23.613" y2="23.613" stroke="#fff" stroke-linecap="round" stroke-width=".432"/>
    <line x1="70.713" x2="70.713" y1="38.353" y2="26.447" stroke="#fff" stroke-linecap="round" stroke-width=".432"/>
   </g>
  </g>
  <g>
   <title>element:CONN4</title>
   <g>
    <title>package:JST_SH4</title>
    <line x1="6.1058" x2="13.476" y1="23.896" y2="23.896" stroke="#fff" stroke-linecap="round" stroke-width=".432"/>
    <line x1="13.476" x2="13.476" y1="23.896" y2="27.014" stroke="#fff" stroke-linecap="round" stroke-width=".432"/>
    <line x1="13.476" x2="13.476" y1="37.786" y2="41.187" stroke="#fff" stroke-linecap="round" stroke-width=".432"/>
    <line x1="13.476" x2="6.1058" y1="41.187" y2="41.187" stroke="#fff" stroke-linecap="round" stroke-width=".432"/>
    <line x1="1.2869" x2="1.2869" y1="26.447" y2="38.353" stroke="#fff" stroke-linecap="round" stroke-width=".432"/>
   </g>
  </g>
  <g>
   <title>element:JP2</title>
   <g>
    <title>package:1X08_ROUND_70</title>
   </g>
  </g>
  <g>
   <title>element:PLABEL13</title>
   <g>
    <title>package:PLABEL13</title>
   </g>
  </g>
  <g>
   <title>element:PLABEL17</title>
   <g>
    <title>package:PLABEL17</title>
   </g>
  </g>
  <g>
   <title>element:U$31</title>
   <g>
    <title>package:STEMMAQT</title>
   </g>
  </g>
  <g>
   <title>element:U$32</title>
   <g>
    <title>package:STEMMAQT</title>
   </g>
  </g>
  <g>
   <title>element:X1</title>
   <g>
    <title>package:TERMBLOCK_1X3-3.5MM</title>
    <line x1="50.882" x2="50.882" y1="20.798" y2="4.9238" stroke="#fff" stroke-linecap="round" stroke-width=".576"/>
    <line x1="50.882" x2="50.882" y1="4.9238" y2=".95527" stroke="#fff" stroke-linecap="round" stroke-width=".576"/>
    <line x1="50.882" x2="21.118" y1=".95527" y2=".95527" stroke="#fff" stroke-linecap="round" stroke-width=".576"/>
    <line x1="21.118" x2="21.118" y1=".95527" y2="4.9238" stroke="#fff" stroke-linecap="round" stroke-width=".576"/>
    <line x1="21.118" x2="21.118" y1="4.9238" y2="20.798" stroke="#fff" stroke-linecap="round" stroke-width=".576"/>
    <line x1="21.118" x2="50.882" y1="20.798" y2="20.798" stroke="#fff" stroke-linecap="round" stroke-width=".576"/>
    <line x1="50.882" x2="21.118" y1="4.9238" y2="4.9238" stroke="#fff" stroke-linecap="round" stroke-width=".576"/>
   </g>
  </g>
 </g>
 <g id="copper1">
  <g id="copper0">
   <circle id="connector38pad" cx="32.4" cy="50.4" r="1.9687" fill="none" stroke="#F7BD13" stroke-width="1.1027" connectorname="SDA"/>
   <g transform="matrix(-1 0 0 -1 115.35 73.304)">
    <rect id="connector9pad" x="55.477" y="35.802" width="4.3937" height="1.7008" fill="#F7BD13" stroke-width="0"/>
   </g>
   <circle id="connector42pad" cx="61.2" cy="50.4" r="1.9687" fill="none" stroke="#F7BD13" stroke-width="1.1027" connectorname="ALERT"/>
   <g transform="matrix(-1 0 0 -1 115.35 67.635)">
    <rect id="connector10pad" x="55.477" y="32.967" width="4.3937" height="1.7008" fill="#F7BD13" stroke-width="0"/>
   </g>
   <g transform="matrix(-1 0 0 -1 115.35 61.965)">
    <rect id="connector11pad" x="55.477" y="30.132" width="4.3937" height="1.7008" fill="#F7BD13" stroke-width="0"/>
   </g>
   <circle id="connector58pad" cx="36" cy="11.16" r="2.2567" fill="none" stroke="#F7BD13" stroke-width="1.6787" connectorname="VBUS"/>
   <g transform="matrix(-1 0 0 -1 115.35 56.296)">
    <rect id="connector12pad" x="55.477" y="27.298" width="4.3937" height="1.7008" fill="#F7BD13" stroke-width="0"/>
   </g>
   <circle id="connector36pad" cx="18" cy="50.4" r="1.9687" fill="none" stroke="#F7BD13" stroke-width="1.1027" connectorname="GND"/>
   <circle id="connector40pad" cx="46.8" cy="50.4" r="1.9687" fill="none" stroke="#F7BD13" stroke-width="1.1027" connectorname="VIN-"/>
   <rect id="connector15pad" x="12.13" y="27.298" width="4.3937" height="1.7008" fill="#F7BD13" stroke-width="0"/>
   <rect id="connector16pad" x="12.13" y="30.132" width="4.3937" height="1.7008" fill="#F7BD13" stroke-width="0"/>
   <rect id="connector17pad" x="12.13" y="32.967" width="4.3937" height="1.7008" fill="#F7BD13" stroke-width="0"/>
   <circle id="connector56pad" cx="64.8" cy="7.2" r="4.2633" fill="none" stroke="#F7BD13" stroke-width="1.44" connectorname="P$1"/>
   <rect id="connector18pad" x="12.13" y="35.802" width="4.3937" height="1.7008" fill="#F7BD13" stroke-width="0"/>
   <circle id="connector35pad" cx="10.8" cy="50.4" r="1.9687" fill="none" stroke="#F7BD13" stroke-width="1.1027" connectorname="VCC"/>
   <circle id="connector37pad" cx="25.2" cy="50.4" r="1.9687" fill="none" stroke="#F7BD13" stroke-width="1.1027" connectorname="SCL"/>
   <circle id="connector39pad" cx="39.6" cy="50.4" r="1.9687" fill="none" stroke="#F7BD13" stroke-width="1.1027" connectorname="VBUS"/>
   <circle id="connector41pad" cx="54" cy="50.4" r="1.9687" fill="none" stroke="#F7BD13" stroke-width="1.1027" connectorname="VIN+"/>
   <circle id="connector55pad" cx="7.2" cy="7.2" r="4.2633" fill="none" stroke="#F7BD13" stroke-width="1.44" connectorname="P$1"/>
   <circle id="connector57pad" cx="26.079" cy="11.16" r="2.2567" fill="none" stroke="#F7BD13" stroke-width="1.6787" connectorname="VIN-"/>
   <circle id="connector59pad" cx="45.921" cy="11.16" r="2.2567" fill="none" stroke="#F7BD13" stroke-width="1.6787" connectorname="VIN+"/>
  </g>
 </g>
</svg>
