<?xml version="1.0" encoding="UTF-8"?>
<!-- Created with Fritzing (http://www.fritzing.org/) -->
<svg width="2.842in" height="2.1in" baseProfile="tiny" version="1.2" viewBox="0 0 204.62 151.2" xmlns="http://www.w3.org/2000/svg">
 <desc>
  <referenceFile>Adafruit 1.8 TFT Shield V2_pcb.svg</referenceFile>
 </desc>
 <desc>Fritzing footprint generated by brd2svg</desc>
 <g id="silkscreen">
  <path d="m0.288 150.91v-150.62h182.36l4.308 4.3035v32.277l7.18 7.1726v92.526l-7.18 7.172v7.173h-186.67m112.94-42.988a0.56239 0.56239 0 1 0 1.1248 0 0.56239 0.56239 0 1 0-1.1248 0zm0-57.969a0.56239 0.56239 0 1 0 1.1248 0 0.56239 0.56239 0 1 0-1.1248 0zm-75.135-42.755a5.112 5.112 0 1 0 10.224 0 5.112 5.112 0 1 0-10.224 0z" fill="none" stroke="#fff" stroke-width=".576"/>
  <circle cx="103.68" cy="18" r="3.0968" fill="none" stroke="#fff" stroke-width=".72"/>
  <circle cx="118.08" cy="18" r="3.0968" fill="none" stroke="#fff" stroke-width=".72"/>
  <circle cx="151.2" cy="18" r="3.0968" fill="none" stroke="#fff" stroke-width=".72"/>
  <circle cx="53.28" cy="18" r="3.0968" fill="none" stroke="#fff" stroke-width=".72"/>
  <circle cx="60.48" cy="18" r="3.0968" fill="none" stroke="#fff" stroke-width=".72"/>
  <circle cx="180.36" cy="72" r="3.319" fill="none" stroke="#fff" stroke-width=".72"/>
  <circle cx="187.56" cy="72" r="3.319" fill="none" stroke="#fff" stroke-width=".72"/>
  <circle cx="180.36" cy="64.8" r="3.319" fill="none" stroke="#fff" stroke-width=".72"/>
  <g>
   <title>element:BTN1</title>
   <g>
    <title>package:EVQ-Q2_SMALLER</title>
    <line x1="2.2961" x2="2.2961" y1="145.07" y2="126.37" stroke="#fff" stroke-linecap="round" stroke-width=".576"/>
    <line x1="19.304" x2="19.304" y1="126.37" y2="145.07" stroke="#fff" stroke-linecap="round" stroke-width=".576"/>
    <line x1="14.202" x2="7.3984" y1="145.07" y2="145.07" stroke="#fff" stroke-linecap="round" stroke-width=".576"/>
    <line x1="7.3984" x2="14.202" y1="126.37" y2="126.37" stroke="#fff" stroke-linecap="round" stroke-width=".576"/>
    <circle cx="10.8" cy="135.72" r="4.2613" fill="none" stroke="#fff" stroke-width=".576"/>
    <circle cx="10.8" cy="135.72" r="2.8346" fill="none" stroke="#fff" stroke-width=".576"/>
   </g>
  </g>
  <g>
   <title>element:BTN2</title>
   <g>
    <title>package:EVQ-Q2_SMALLER</title>
    <line x1="27.496" x2="27.496" y1="145.43" y2="126.73" stroke="#fff" stroke-linecap="round" stroke-width=".576"/>
    <line x1="44.504" x2="44.504" y1="126.73" y2="145.43" stroke="#fff" stroke-linecap="round" stroke-width=".576"/>
    <line x1="39.402" x2="32.598" y1="145.43" y2="145.43" stroke="#fff" stroke-linecap="round" stroke-width=".576"/>
    <line x1="32.598" x2="39.402" y1="126.73" y2="126.73" stroke="#fff" stroke-linecap="round" stroke-width=".576"/>
    <circle cx="36" cy="136.08" r="4.2613" fill="none" stroke="#fff" stroke-width=".576"/>
    <circle cx="36" cy="136.08" r="2.8346" fill="none" stroke="#fff" stroke-width=".576"/>
   </g>
  </g>
  <g>
   <title>element:BTN3</title>
   <g>
    <title>package:EVQ-Q2_SMALLER</title>
    <line x1="52.696" x2="52.696" y1="145.43" y2="126.73" stroke="#fff" stroke-linecap="round" stroke-width=".576"/>
    <line x1="69.704" x2="69.704" y1="126.73" y2="145.43" stroke="#fff" stroke-linecap="round" stroke-width=".576"/>
    <line x1="64.602" x2="57.798" y1="145.43" y2="145.43" stroke="#fff" stroke-linecap="round" stroke-width=".576"/>
    <line x1="57.798" x2="64.602" y1="126.73" y2="126.73" stroke="#fff" stroke-linecap="round" stroke-width=".576"/>
    <circle cx="61.2" cy="136.08" r="4.2613" fill="none" stroke="#fff" stroke-width=".576"/>
    <circle cx="61.2" cy="136.08" r="2.8346" fill="none" stroke="#fff" stroke-width=".576"/>
   </g>
  </g>
  <g>
   <title>element:DIGITALS</title>
   <g>
    <title>package:1X08_ROUND</title>
   </g>
  </g>
  <g>
   <title>element:DIGITALS1</title>
   <g>
    <title>package:1X08_ROUND</title>
   </g>
  </g>
  <g>
   <title>element:JP1</title>
   <g>
    <title>package:1X10_ROUND</title>
   </g>
  </g>
  <g>
   <title>element:M1</title>
   <g>
    <title>package:ARDUINOR3_ICSP_NODIM</title>
   </g>
  </g>
  <g>
   <title>element:PLABEL8</title>
   <g>
    <title>package:PLABEL8</title>
   </g>
  </g>
  <g>
   <title>element:PLABEL11</title>
   <g>
    <title>package:PLABEL11</title>
   </g>
  </g>
  <g>
   <title>element:RESET</title>
   <g>
    <title>package:EVQ-Q2_SMALLER</title>
    <line x1="26.634" x2="7.9257" y1="20.384" y2="20.384" stroke="#fff" stroke-linecap="round" stroke-width=".576"/>
    <line x1="7.9257" x2="26.634" y1="3.3761" y2="3.3761" stroke="#fff" stroke-linecap="round" stroke-width=".576"/>
    <line x1="26.634" x2="26.634" y1="8.4784" y2="15.282" stroke="#fff" stroke-linecap="round" stroke-width=".576"/>
    <line x1="7.9257" x2="7.9257" y1="15.282" y2="8.4784" stroke="#fff" stroke-linecap="round" stroke-width=".576"/>
    <circle cx="17.28" cy="11.88" r="4.2613" fill="none" stroke="#fff" stroke-width=".576"/>
    <circle cx="17.28" cy="11.88" r="2.8346" fill="none" stroke="#fff" stroke-width=".576"/>
   </g>
  </g>
  <g>
   <title>element:SW1</title>
   <g>
    <title>package:SKQUBAE010</title>
    <line x1="138.11" x2="166.45" y1="54.227" y2="54.227" stroke="#fff" stroke-linecap="round" stroke-width=".36"/>
    <line x1="166.45" x2="166.45" y1="54.227" y2="82.573" stroke="#fff" stroke-linecap="round" stroke-width=".36"/>
    <line x1="166.45" x2="138.11" y1="82.573" y2="82.573" stroke="#fff" stroke-linecap="round" stroke-width=".36"/>
    <line x1="138.11" x2="138.11" y1="82.573" y2="54.227" stroke="#fff" stroke-linecap="round" stroke-width=".36"/>
    <line x1="147.74" x2="156.82" y1="63.865" y2="63.865" stroke="#fff" stroke-linecap="round" stroke-width=".36"/>
    <line x1="156.82" x2="156.82" y1="63.865" y2="72.935" stroke="#fff" stroke-linecap="round" stroke-width=".36"/>
    <line x1="156.82" x2="147.74" y1="72.935" y2="72.935" stroke="#fff" stroke-linecap="round" stroke-width=".36"/>
    <line x1="147.74" x2="147.74" y1="72.935" y2="63.865" stroke="#fff" stroke-linecap="round" stroke-width=".36"/>
    <circle cx="152.28" cy="68.4" r="8.2205" fill="none" stroke="#fff" stroke-width=".36"/>
    <circle cx="140.94" cy="57.061" r="1.6035" fill="none" stroke="#fff" stroke-width=".36"/>
    <circle cx="163.62" cy="57.061" r="1.6035" fill="none" stroke="#fff" stroke-width=".36"/>
    <circle cx="163.62" cy="79.739" r="1.6035" fill="none" stroke="#fff" stroke-width=".36"/>
    <circle cx="140.94" cy="79.739" r="1.6035" fill="none" stroke="#fff" stroke-width=".36"/>
   </g>
  </g>
  <g>
   <title>element:U$1</title>
   <g>
    <title>package:JD-T1800</title>
    <line x1=".68315" x2=".68315" y1="119.83" y2="23.451" stroke="#fff" stroke-linecap="round" stroke-width=".576"/>
    <line x1=".68315" x2="131.08" y1="23.451" y2="23.451" stroke="#fff" stroke-linecap="round" stroke-width=".576"/>
    <line x1="131.08" x2="131.08" y1="23.451" y2="119.83" stroke="#fff" stroke-linecap="round" stroke-width=".576"/>
    <line x1="131.08" x2=".68315" y1="119.83" y2="119.83" stroke="#fff" stroke-linecap="round" stroke-width=".576"/>
    <line x1="102.45" x2="102.45" y1="86.38" y2="56.9" stroke="#fff" stroke-linecap="round" stroke-width=".576"/>
   </g>
  </g>
  <g>
   <title>element:U$5</title>
   <g>
    <title>package:ADAFRUIT_TEXT_30MM</title>
   </g>
  </g>
  <g>
   <title>element:U$8</title>
   <g>
    <title>package:SEESAW_LOGO</title>
   </g>
  </g>
  <g>
   <title>element:X1</title>
   <g>
    <title>package:MICROSD</title>
    <line x1="146.6" x2="146.6" y1="125.03" y2="126.87" stroke="#fff" stroke-linecap="round" stroke-width=".36"/>
    <line x1="146.6" x2="148.01" y1="126.87" y2="126.87" stroke="#fff" stroke-linecap="round" stroke-width=".36"/>
    <line x1="148.01" x2="148.01" y1="126.87" y2="127.58" stroke="#fff" stroke-linecap="round" stroke-width=".36"/>
    <line x1="148.01" x2="181.89" y1="127.58" y2="127.58" stroke="#fff" stroke-linecap="round" stroke-width=".36"/>
    <line x1="146.6" x2="146.6" y1="118.51" y2="109.1" stroke="#fff" stroke-linecap="round" stroke-width=".36"/>
    <line x1="146.6" x2="146.6" y1="102.36" y2="87.33" stroke="#fff" stroke-linecap="round" stroke-width=".36"/>
    <line x1="146.6" x2="184.44" y1="87.33" y2="87.33" stroke="#fff" stroke-linecap="round" stroke-width=".36"/>
   </g>
  </g>
  <line x1="194.4" x2="204.33" y1="127.58" y2="127.58" fill="none" stroke="#fff" stroke-width=".576"/>
  <line x1="194.4" x2="204.33" y1="87.33" y2="87.33" fill="none" stroke="#fff" stroke-width=".576"/>
  <line x1="204.33" x2="204.33" y1="127.58" y2="87.33" fill="none" stroke="#fff" stroke-width=".576"/>
 </g>
 <g id="copper1">
  <g id="copper0" fill="none" stroke="#F7BD13">
   <circle id="connector6pad" cx="172.8" cy="134.64" r="1.8967" stroke-width=".95868" connectorname="A4"/>
   <circle id="connector7pad" cx="165.6" cy="134.64" r="1.8967" stroke-width=".95868" connectorname="3"/>
   <circle id="connector8pad" cx="158.4" cy="134.64" r="1.8967" stroke-width=".95868" connectorname="A2"/>
   <circle id="connector118pad" cx="180.36" cy="64.8" r="1.9687" stroke-width="1.1027" connectorname="MISO"/>
   <rect x="178.39" y="62.831" width="3.9373" height="3.9373" stroke-width="1.1027"/>
   <circle id="connector9pad" cx="151.2" cy="134.64" r="1.8967" stroke-width=".95868" connectorname="A1"/>
   <circle id="connector10pad" cx="144" cy="134.64" r="1.8967" stroke-width=".95868" connectorname="A0"/>
   <circle id="connector110pad" cx="96.48" cy="7.2" r="1.8967" stroke-width=".95868" connectorname="D11"/>
   <circle id="connector126pad" cx="129.6" cy="144" r="1.8967" stroke-width=".95868" connectorname="VIN"/>
   <circle id="connector106pad" cx="129.6" cy="7.2" r="1.8967" stroke-width=".95868" connectorname="D7"/>
   <circle id="connector114pad" cx="122.4" cy="144" r="1.8967" stroke-width=".95868" connectorname="GND"/>
   <circle id="connector122pad" cx="180.36" cy="79.2" r="1.9687" stroke-width="1.1027" connectorname="RESET_ICSP"/>
   <circle id="connector108pad" cx="110.88" cy="7.2" r="1.8967" stroke-width=".95868" connectorname="D9"/>
   <circle id="connector31pad" cx="129.6" cy="18" r="1.8967" stroke-width=".95868" connectorname="D7"/>
   <circle id="connector112pad" cx="82.08" cy="7.2" r="1.8967" stroke-width=".95868" connectorname="D13"/>
   <circle id="connector32pad" cx="136.8" cy="18" r="1.8967" stroke-width=".95868" connectorname="D6"/>
   <circle id="connector116pad" cx="187.56" cy="79.2" r="1.9687" stroke-width="1.1027" connectorname="GND"/>
   <circle id="connector33pad" cx="144" cy="18" r="1.8967" stroke-width=".95868" connectorname="D5"/>
   <circle id="connector120pad" cx="79.2" cy="144" r="1.8967" stroke-width=".95868" connectorname="RESERVED"/>
   <circle id="connector34pad" cx="151.2" cy="18" r="1.8967" stroke-width=".95868" connectorname="SD_CS"/>
   <circle id="connector124pad" cx="53.28" cy="7.2" r="1.8967" stroke-width=".95868" connectorname="SCL"/>
   <circle id="connector35pad" cx="158.4" cy="18" r="1.8967" stroke-width=".95868" connectorname="D3"/>
   <circle id="connector36pad" cx="165.6" cy="18" r="1.8967" stroke-width=".95868" connectorname="D2"/>
   <circle id="connector37pad" cx="172.8" cy="18" r="1.8967" stroke-width=".95868" connectorname="D1"/>
   <circle id="connector38pad" cx="180" cy="18" r="1.8967" stroke-width=".95868" connectorname="D0"/>
   <circle id="connector39pad" cx="129.6" cy="134.64" r="1.8967" stroke-width=".95868" connectorname="VIN"/>
   <circle id="connector40pad" cx="122.4" cy="134.64" r="1.8967" stroke-width=".95868" connectorname="GND"/>
   <circle id="connector41pad" cx="115.2" cy="134.64" r="1.8967" stroke-width=".95868" connectorname="GND"/>
   <circle id="connector42pad" cx="108" cy="134.64" r="1.8967" stroke-width=".95868" connectorname="+5V"/>
   <circle id="connector43pad" cx="100.8" cy="134.64" r="1.8967" stroke-width=".95868" connectorname="+3.3V"/>
   <circle id="connector44pad" cx="93.6" cy="134.64" r="1.8967" stroke-width=".95868" connectorname="!RESET"/>
   <circle id="connector45pad" cx="86.4" cy="134.64" r="1.8967" stroke-width=".95868" connectorname="VDDIO"/>
   <circle id="connector46pad" cx="79.2" cy="134.64" r="1.8967" stroke-width=".95868" connectorname="N$18"/>
   <circle id="connector105pad" cx="136.8" cy="7.2" r="1.8967" stroke-width=".95868" connectorname="D6"/>
   <circle id="connector107pad" cx="118.08" cy="7.2" r="1.8967" stroke-width=".95868" connectorname="TFT_DC"/>
   <circle id="connector109pad" cx="103.68" cy="7.2" r="1.8967" stroke-width=".95868" connectorname="TFT_CS"/>
   <circle id="connector111pad" cx="89.28" cy="7.2" r="1.8967" stroke-width=".95868" connectorname="D12"/>
   <circle id="connector113pad" cx="74.88" cy="7.2" r="1.8967" stroke-width=".95868" connectorname="GND"/>
   <circle id="connector115pad" cx="115.2" cy="144" r="1.8967" stroke-width=".95868" connectorname="GND"/>
   <circle id="connector117pad" cx="86.4" cy="144" r="1.8967" stroke-width=".95868" connectorname="VDDIO"/>
   <circle id="connector119pad" cx="187.56" cy="72" r="1.9687" stroke-width="1.1027" connectorname="MOSI"/>
   <circle id="connector121pad" cx="93.6" cy="144" r="1.8967" stroke-width=".95868" connectorname="!RESET"/>
   <circle id="connector123pad" cx="180.36" cy="72" r="1.9687" stroke-width="1.1027" connectorname="SCK"/>
   <circle id="connector125pad" cx="60.48" cy="7.2" r="1.8967" stroke-width=".95868" connectorname="SDA"/>
   <circle id="connector79pad" cx="53.28" cy="18" r="1.8967" stroke-width=".95868" connectorname="SCL"/>
   <circle id="connector80pad" cx="60.48" cy="18" r="1.8967" stroke-width=".95868" connectorname="SDA"/>
   <circle id="connector81pad" cx="67.68" cy="18" r="1.8967" stroke-width=".95868" connectorname="AREF"/>
   <circle id="connector82pad" cx="74.88" cy="18" r="1.8967" stroke-width=".95868" connectorname="GND"/>
   <circle id="connector83pad" cx="82.08" cy="18" r="1.8967" stroke-width=".95868" connectorname="5"/>
   <circle id="connector84pad" cx="89.28" cy="18" r="1.8967" stroke-width=".95868" connectorname="6"/>
   <circle id="connector85pad" cx="96.48" cy="18" r="1.8967" stroke-width=".95868" connectorname="7"/>
   <circle id="connector86pad" cx="103.68" cy="18" r="1.8967" stroke-width=".95868" connectorname="TFT_CS"/>
   <circle id="connector87pad" cx="110.88" cy="18" r="1.8967" stroke-width=".95868" connectorname="D9"/>
   <circle id="connector88pad" cx="118.08" cy="18" r="1.8967" stroke-width=".95868" connectorname="TFT_DC"/>
   <circle id="connector89pad" cx="100.8" cy="144" r="1.8967" stroke-width=".95868" connectorname="+3.3V"/>
   <circle id="connector90pad" cx="108" cy="144" r="1.8967" stroke-width=".95868" connectorname="+5V"/>
   <circle id="connector91pad" cx="187.56" cy="64.8" r="1.9687" stroke-width="1.1027" connectorname="5V_ICSP"/>
   <circle id="connector92pad" cx="144" cy="144" r="1.8967" stroke-width=".95868" connectorname="A0"/>
   <circle id="connector93pad" cx="151.2" cy="144" r="1.8967" stroke-width=".95868" connectorname="A1"/>
   <circle id="connector94pad" cx="158.4" cy="144" r="1.8967" stroke-width=".95868" connectorname="A2"/>
   <circle id="connector95pad" cx="165.6" cy="144" r="1.8967" stroke-width=".95868" connectorname="A3"/>
   <circle id="connector96pad" cx="172.8" cy="144" r="1.8967" stroke-width=".95868" connectorname="A4"/>
   <circle id="connector97pad" cx="180" cy="144" r="1.8967" stroke-width=".95868" connectorname="A5"/>
   <circle id="connector98pad" cx="67.68" cy="7.2" r="1.8967" stroke-width=".95868" connectorname="AREF"/>
   <circle id="connector99pad" cx="180" cy="7.2" r="1.8967" stroke-width=".95868" connectorname="D0"/>
   <circle id="connector100pad" cx="172.8" cy="7.2" r="1.8967" stroke-width=".95868" connectorname="D1"/>
   <circle id="connector101pad" cx="165.6" cy="7.2" r="1.8967" stroke-width=".95868" connectorname="D2"/>
   <circle id="connector102pad" cx="158.4" cy="7.2" r="1.8967" stroke-width=".95868" connectorname="D3"/>
   <circle id="connector103pad" cx="151.2" cy="7.2" r="1.8967" stroke-width=".95868" connectorname="SD_CS"/>
   <circle id="connector104pad" cx="144" cy="7.2" r="1.8967" stroke-width=".95868" connectorname="D5"/>
   <circle id="connector5pad" cx="180" cy="134.64" r="1.8967" stroke-width=".95868" connectorname="A5"/>
  </g>
 </g>
</svg>
