<?xml version="1.0" encoding="UTF-8"?>
<!-- Created with Fritzing (http://www.fritzing.org/) -->
<svg width="1.2in" height="1.0423in" baseProfile="tiny" version="1.2" viewBox="0 0 86.4 75.047" xmlns="http://www.w3.org/2000/svg">
 <desc>
  <referenceFile>Adafruit DC Power BFF_pcb.svg</referenceFile>
 </desc>
 <desc>Fritzing footprint generated by brd2svg</desc>
 <g id="silkscreen">
  <path d="m68.232 63.328v3.5723a7.2806 7.2806 0 0 1-7.152 7.859h-35.76a6.912 6.912 0 0 1-7.152-7.1445v-4.2868h-3.576v11.431h-14.304v-58.587h14.304v11.432h3.576v-3.9295a6.912 6.912 0 0 1 7.152-7.1448h35.76a6.912 6.912 0 0 1 7.152 7.1448v3.9295h3.576v-11.432h14.304v58.587h-14.304v-11.431h-3.576m-53.64-7.1448h3.576v-21.434h-3.576v21.434m53.64 0h3.576v-21.434h-3.576v21.434m-51.089-22.896a0.1372 0.1372 0 1 0 0.27439 0 0.1372 0.1372 0 1 0-0.27439 0zm0-1.44a0.1372 0.1372 0 1 0 0.27439 0 0.1372 0.1372 0 1 0-0.27439 0zm0-1.44a0.1372 0.1372 0 1 0 0.27439 0 0.1372 0.1372 0 1 0-0.27439 0zm0-1.44a0.1372 0.1372 0 1 0 0.27439 0 0.1372 0.1372 0 1 0-0.27439 0zm0 33.12a0.1372 0.1372 0 1 0 0.27439 0 0.1372 0.1372 0 1 0-0.27439 0zm0-1.44a0.1372 0.1372 0 1 0 0.27439 0 0.1372 0.1372 0 1 0-0.27439 0zm0-1.44a0.1372 0.1372 0 1 0 0.27439 0 0.1372 0.1372 0 1 0-0.27439 0zm0-1.44a0.1372 0.1372 0 1 0 0.27439 0 0.1372 0.1372 0 1 0-0.27439 0zm51.84-24.48a0.1372 0.1372 0 1 0 0.27439 0 0.1372 0.1372 0 1 0-0.27439 0zm0-1.44a0.1372 0.1372 0 1 0 0.27439 0 0.1372 0.1372 0 1 0-0.27439 0zm0-1.44a0.1372 0.1372 0 1 0 0.27439 0 0.1372 0.1372 0 1 0-0.27439 0zm0-1.44a0.1372 0.1372 0 1 0 0.27439 0 0.1372 0.1372 0 1 0-0.27439 0zm0 33.12a0.1372 0.1372 0 1 0 0.27439 0 0.1372 0.1372 0 1 0-0.27439 0zm0-1.44a0.1372 0.1372 0 1 0 0.27439 0 0.1372 0.1372 0 1 0-0.27439 0zm0-1.44a0.1372 0.1372 0 1 0 0.27439 0 0.1372 0.1372 0 1 0-0.27439 0zm0-1.44a0.1372 0.1372 0 1 0 0.27439 0 0.1372 0.1372 0 1 0-0.27439 0z" fill="none" stroke="#fff" stroke-width=".576"/>
  <g>
   <title>element:J1</title>
   <g>
    <title>package:1X2-3.5MM</title>
    <line x1="33.562" x2="33.562" y1="54.61" y2="70.484" stroke="#fff" stroke-linecap="round" stroke-width=".36"/>
    <line x1="33.562" x2="33.562" y1="70.484" y2="74.452" stroke="#fff" stroke-linecap="round" stroke-width=".36"/>
    <line x1="33.562" x2="53.405" y1="74.452" y2="74.452" stroke="#fff" stroke-linecap="round" stroke-width=".36"/>
    <line x1="53.405" x2="53.405" y1="74.452" y2="70.484" stroke="#fff" stroke-linecap="round" stroke-width=".36"/>
    <line x1="53.405" x2="53.405" y1="70.484" y2="54.61" stroke="#fff" stroke-linecap="round" stroke-width=".36"/>
    <line x1="53.405" x2="33.562" y1="54.61" y2="54.61" stroke="#fff" stroke-linecap="round" stroke-width=".36"/>
    <line x1="33.562" x2="53.405" y1="70.484" y2="70.484" stroke="#fff" stroke-linecap="round" stroke-width=".36"/>
   </g>
  </g>
  <g>
   <title>element:PLABEL21</title>
   <g>
    <title>package:PLABEL21</title>
   </g>
  </g>
  <g>
   <title>element:X1</title>
   <g>
    <title>package:DCJACK_2MM_PTH</title>
    <line x1="30.444" x2="36.397" y1="40.263" y2="40.263" stroke="#fff" stroke-linecap="round" stroke-width=".576"/>
    <line x1="30.331" x2="30.331" y1="9.3543" y2="23.811" stroke="#fff" stroke-linecap="round" stroke-width=".576"/>
    <line x1="30.444" x2="30.444" y1="40.263" y2="37.145" stroke="#fff" stroke-linecap="round" stroke-width=".576"/>
    <line x1="55.843" x2="55.843" y1="9.3543" y2="40.252" stroke="#fff" stroke-linecap="round" stroke-width=".576"/>
    <line x1="55.843" x2="50.57" y1="40.252" y2="40.263" stroke="#fff" stroke-linecap="round" stroke-width=".576"/>
    <line x1="55.843" x2="30.331" y1="9.3543" y2="9.3543" stroke="#fff" stroke-linecap="round" stroke-width=".576"/>
   </g>
  </g>
  <line x1="28.604" x2="55.843" y1=".288" y2=".288" fill="none" stroke="#fff" stroke-width=".576"/>
  <line x1="28.604" x2="28.604" y1="16.007" y2=".288" fill="none" stroke="#fff" stroke-width=".576"/>
  <line x1="55.843" x2="55.843" y1="16.007" y2=".288" fill="none" stroke="#fff" stroke-width=".576"/>
 </g>
 <g id="copper1">
  <g id="copper0">
   <circle id="connector54pad" cx="56.16" cy="67.487" r="1.4669" fill="none" stroke="#F7BD13" stroke-width=".66614" connectorname="GND"/>
   <circle id="connector70pad" cx="29.877" cy="30.047" r="2.5512" fill="none" stroke="#F7BD13" stroke-width="2.5512" connectorname="GND"/>
   <path d="m27.326 24.18h5.1024v11.735h-5.1024v-11.735m0 5.8678a2.5512 2.5512 0 1 0 5.1024 0 2.5512 2.5512 0 1 0-5.1024 0z" fill="#F7BD13" stroke-width="0"/>
   <circle id="connector46pad" cx="64.8" cy="67.307" r="2.0767" fill="none" stroke="#F7BD13" stroke-width="1.3187" connectorname="RX"/>
   <circle id="connector42pad" cx="21.6" cy="45.707" r="2.0767" fill="none" stroke="#F7BD13" stroke-width="1.3187" connectorname="A3"/>
   <circle id="connector50pad" cx="64.8" cy="38.507" r="2.0767" fill="none" stroke="#F7BD13" stroke-width="1.3187" connectorname="3.3V"/>
   <circle id="connector66pad" cx="7.2" cy="67.847" r="4.0748" fill="none" stroke="#F7BD13" stroke-width="1.063" connectorname="P$1"/>
   <circle id="connector40pad" cx="21.6" cy="31.307" r="2.0767" fill="none" stroke="#F7BD13" stroke-width="1.3187" connectorname="A1"/>
   <circle id="connector44pad" cx="21.6" cy="60.107" r="2.0767" fill="none" stroke="#F7BD13" stroke-width="1.3187" connectorname="SCL"/>
   <circle id="connector48pad" cx="64.8" cy="52.907" r="2.0767" fill="none" stroke="#F7BD13" stroke-width="1.3187" connectorname="MISO"/>
   <circle id="connector52pad" cx="64.8" cy="24.107" r="2.0767" fill="none" stroke="#F7BD13" stroke-width="1.3187" connectorname="+5V"/>
   <circle id="connector68pad" cx="79.2" cy="67.847" r="4.0748" fill="none" stroke="#F7BD13" stroke-width="1.063" connectorname="P$1"/>
   <circle id="connector39pad" cx="21.6" cy="24.107" r="2.0767" fill="none" stroke="#F7BD13" stroke-width="1.3187" connectorname="A0"/>
   <circle id="connector41pad" cx="21.6" cy="38.507" r="2.0767" fill="none" stroke="#F7BD13" stroke-width="1.3187" connectorname="A2"/>
   <circle id="connector43pad" cx="21.6" cy="52.907" r="2.0767" fill="none" stroke="#F7BD13" stroke-width="1.3187" connectorname="SDA"/>
   <circle id="connector45pad" cx="21.6" cy="67.307" r="2.0767" fill="none" stroke="#F7BD13" stroke-width="1.3187" connectorname="TX"/>
   <circle id="connector47pad" cx="64.8" cy="60.107" r="2.0767" fill="none" stroke="#F7BD13" stroke-width="1.3187" connectorname="SCK"/>
   <circle id="connector49pad" cx="64.8" cy="45.707" r="2.0767" fill="none" stroke="#F7BD13" stroke-width="1.3187" connectorname="MOSI"/>
   <circle id="connector51pad" cx="64.8" cy="31.307" r="2.0767" fill="none" stroke="#F7BD13" stroke-width="1.3187" connectorname="GND"/>
   <circle id="connector53pad" cx="56.16" cy="62.447" r="1.4669" fill="none" stroke="#F7BD13" stroke-width=".66614" connectorname="EN"/>
   <circle id="connector65pad" cx="7.2" cy="23.207" r="4.0748" fill="none" stroke="#F7BD13" stroke-width="1.063" connectorname="P$1"/>
   <circle id="connector67pad" cx="79.2" cy="23.207" r="4.0748" fill="none" stroke="#F7BD13" stroke-width="1.063" connectorname="P$1"/>
   <circle id="connector69pad" cx="43.2" cy="21.827" r="2.5512" fill="none" stroke="#F7BD13" stroke-width="2.5512" connectorname="GND"/>
   <path d="m37.332 19.276h11.735v5.1024h-11.735v-5.1024m3.3165 2.5512a2.5512 2.5512 0 1 0 5.1024 0 2.5512 2.5512 0 1 0-5.1024 0z" fill="#F7BD13" stroke-width="0"/>
   <circle id="connector37pad" cx="48.302" cy="64.247" r="2.2567" fill="none" stroke="#F7BD13" stroke-width="1.6787" connectorname="GND"/>
   <circle id="connector71pad" cx="43.2" cy="38.551" r="2.5512" fill="none" stroke="#F7BD13" stroke-width="2.5512" connectorname="PWR"/>
   <path d="m37.332 36h11.735v5.1024h-11.735v-5.1024m3.3165 2.5512a2.5512 2.5512 0 1 0 5.1024 0 2.5512 2.5512 0 1 0-5.1024 0z" fill="#F7BD13" stroke-width="0"/>
   <circle id="connector38pad" cx="38.381" cy="64.247" r="2.2567" fill="none" stroke="#F7BD13" stroke-width="1.6787" connectorname="N$2"/>
  </g>
 </g>
</svg>
