<?xml version="1.0" encoding="UTF-8"?>
<!-- Created with Fritzing (http://www.fritzing.org/) -->
<svg width="1in" height=".8in" baseProfile="tiny" version="1.2" viewBox="0 0 72 57.6" xmlns="http://www.w3.org/2000/svg">
 <desc>
  <referenceFile>Adafruit_ADXL345_pcb.svg</referenceFile>
 </desc>
 <desc>Fritzing footprint generated by brd2svg</desc>
 <g id="silkscreen">
  <path d="m7.4304 0.288h57.139a6.912 6.912 0 0 1 7.1424 7.128v42.768a6.912 6.912 0 0 1-7.1424 7.128h-57.139a6.912 6.912 0 0 1-7.1424-7.128v-42.768a6.912 6.912 0 0 1 7.1424-7.128" fill="none" stroke="#fff" stroke-width=".576"/>
  <line x1="61.848" x2="61.848" y1="17.352" y2="14.472" stroke="#fff" stroke-linecap="round" stroke-width=".72"/>
  <line x1="61.848" x2="61.848" y1="14.472" y2="14.4" stroke="#fff" stroke-linecap="round" stroke-width=".72"/>
  <line x1="61.848" x2="61.056" y1="14.4" y2="15.192" stroke="#fff" stroke-linecap="round" stroke-width=".72"/>
  <line x1="61.056" x2="62.568" y1="15.192" y2="15.192" stroke="#fff" stroke-linecap="round" stroke-width=".72"/>
  <line x1="62.64" x2="62.568" y1="15.192" y2="15.192" stroke="#fff" stroke-linecap="round" stroke-width=".72"/>
  <line x1="62.568" x2="61.848" y1="15.192" y2="14.472" stroke="#fff" stroke-linecap="round" stroke-width=".72"/>
  <line x1="67.176" x2="70.056" y1="23.328" y2="23.328" stroke="#fff" stroke-linecap="round" stroke-width=".72"/>
  <line x1="70.056" x2="70.128" y1="23.328" y2="23.328" stroke="#fff" stroke-linecap="round" stroke-width=".72"/>
  <line x1="70.128" x2="69.336" y1="23.328" y2="22.536" stroke="#fff" stroke-linecap="round" stroke-width=".72"/>
  <line x1="69.336" x2="69.336" y1="22.536" y2="24.048" stroke="#fff" stroke-linecap="round" stroke-width=".72"/>
  <line x1="69.336" x2="69.336" y1="24.12" y2="24.048" stroke="#fff" stroke-linecap="round" stroke-width=".72"/>
  <line x1="69.336" x2="70.056" y1="24.048" y2="23.328" stroke="#fff" stroke-linecap="round" stroke-width=".72"/>
  <line x1="6.48" x2="9.36" y1="47.52" y2="47.52" stroke="#fff" stroke-linecap="round" stroke-width="1.152"/>
  <line x1="9.36" x2="7.92" y1="47.52" y2="46.08" stroke="#fff" stroke-linecap="round" stroke-width="1.152"/>
  <line x1="7.92" x2="6.48" y1="46.08" y2="47.52" stroke="#fff" stroke-linecap="round" stroke-width="1.152"/>
  <line x1="13.68" x2="16.56" y1="46.08" y2="46.08" stroke="#fff" stroke-linecap="round" stroke-width="1.152"/>
  <line x1="16.56" x2="15.12" y1="46.08" y2="47.52" stroke="#fff" stroke-linecap="round" stroke-width="1.152"/>
  <line x1="15.12" x2="13.68" y1="47.52" y2="46.08" stroke="#fff" stroke-linecap="round" stroke-width="1.152"/>
  <line x1="28.08" x2="30.96" y1="47.52" y2="47.52" stroke="#fff" stroke-linecap="round" stroke-width="1.152"/>
  <line x1="30.96" x2="29.52" y1="47.52" y2="46.08" stroke="#fff" stroke-linecap="round" stroke-width="1.152"/>
  <line x1="29.52" x2="28.08" y1="46.08" y2="47.52" stroke="#fff" stroke-linecap="round" stroke-width="1.152"/>
  <line x1="38.16" x2="35.28" y1="46.08" y2="46.08" stroke="#fff" stroke-linecap="round" stroke-width="1.152"/>
  <line x1="35.28" x2="36.72" y1="46.08" y2="47.52" stroke="#fff" stroke-linecap="round" stroke-width="1.152"/>
  <line x1="36.72" x2="38.16" y1="47.52" y2="46.08" stroke="#fff" stroke-linecap="round" stroke-width="1.152"/>
  <line x1="42.48" x2="45.36" y1="46.08" y2="46.08" stroke="#fff" stroke-linecap="round" stroke-width="1.152"/>
  <line x1="45.36" x2="43.92" y1="46.08" y2="47.52" stroke="#fff" stroke-linecap="round" stroke-width="1.152"/>
  <line x1="43.92" x2="42.48" y1="47.52" y2="46.08" stroke="#fff" stroke-linecap="round" stroke-width="1.152"/>
  <line x1="49.68" x2="52.56" y1="46.08" y2="46.08" stroke="#fff" stroke-linecap="round" stroke-width="1.152"/>
  <line x1="52.56" x2="51.12" y1="46.08" y2="47.52" stroke="#fff" stroke-linecap="round" stroke-width="1.152"/>
  <line x1="51.12" x2="49.68" y1="47.52" y2="46.08" stroke="#fff" stroke-linecap="round" stroke-width="1.152"/>
  <line x1="56.88" x2="59.76" y1="47.52" y2="47.52" stroke="#fff" stroke-linecap="round" stroke-width="1.152"/>
  <line x1="59.76" x2="58.32" y1="47.52" y2="46.08" stroke="#fff" stroke-linecap="round" stroke-width="1.152"/>
  <line x1="58.32" x2="56.88" y1="46.08" y2="47.52" stroke="#fff" stroke-linecap="round" stroke-width="1.152"/>
  <line x1="64.08" x2="66.96" y1="47.52" y2="47.52" stroke="#fff" stroke-linecap="round" stroke-width="1.152"/>
  <line x1="66.96" x2="65.52" y1="47.52" y2="46.08" stroke="#fff" stroke-linecap="round" stroke-width="1.152"/>
  <line x1="65.52" x2="64.08" y1="46.08" y2="47.52" stroke="#fff" stroke-linecap="round" stroke-width="1.152"/>
  <circle cx="65.952" cy="18.432" r="1.872" fill="none" stroke="#fff" stroke-width=".72"/>
  <circle cx="65.952" cy="18.504" r=".072" fill="none" stroke="#fff" stroke-width=".72"/>
  <circle cx="43.2" cy="11.52" r=".576" fill="none" stroke="#fff" stroke-width="1.296"/>
  <g>
   <title>element:JP1</title>
   <g>
    <title>package:1X09_ROUND_70</title>
   </g>
  </g>
  <g>
   <title>element:U$7</title>
   <g>
    <title>package:ADAFRUIT_TEXT_20MM</title>
   </g>
  </g>
 </g>
 <g id="copper1">
  <g id="copper0" fill="none" stroke="#F7BD13">
   <circle id="connector6pad" cx="7.92" cy="51.84" r="1.9687" stroke-width="1.1027" connectorname="VIN"/>
   <circle id="connector7pad" cx="15.12" cy="51.84" r="1.9687" stroke-width="1.1027" connectorname="3.3V"/>
   <circle id="connector8pad" cx="22.32" cy="51.84" r="1.9687" stroke-width="1.1027" connectorname="GND"/>
   <circle id="connector35pad" cx="64.8" cy="7.2" r="4.0394" stroke-width=".99212" connectorname="P$1"/>
   <circle id="connector9pad" cx="29.52" cy="51.84" r="1.9687" stroke-width="1.1027" connectorname="CS"/>
   <circle id="connector10pad" cx="36.72" cy="51.84" r="1.9687" stroke-width="1.1027" connectorname="INT1"/>
   <circle id="connector11pad" cx="43.92" cy="51.84" r="1.9687" stroke-width="1.1027" connectorname="INT2"/>
   <circle id="connector12pad" cx="51.12" cy="51.84" r="1.9687" stroke-width="1.1027" connectorname="SDO/ADDR"/>
   <circle id="connector13pad" cx="58.32" cy="51.84" r="1.9687" stroke-width="1.1027" connectorname="SDA/SDIO"/>
   <circle id="connector14pad" cx="65.52" cy="51.84" r="1.9687" stroke-width="1.1027" connectorname="SCL"/>
   <circle id="connector36pad" cx="7.2" cy="7.2" r="4.0394" stroke-width=".99212" connectorname="P$1"/>
  </g>
 </g>
</svg>
