<?xml version="1.0" encoding="UTF-8"?>
<!-- Created with Fritzing (http://www.fritzing.org/) -->
<svg width="1.5in" height=".9in" baseProfile="tiny" version="1.2" viewBox="0 0 108 64.8" xmlns="http://www.w3.org/2000/svg">
 <desc>
  <referenceFile>Adafruit 10-DOF IMU L3GD20H + LSM303 + BMP180_pcb.svg</referenceFile>
 </desc>
 <desc>Fritzing footprint generated by brd2svg</desc>
 <g id="silkscreen">
  <path d="m107.71 57.376a6.912 6.912 0 0 1-7.162 7.136h-93.1a6.912 6.912 0 0 1-7.1616-7.136 6.912 6.912 0 0 1 7.1616-7.136h7.1616v-35.68h-7.1616a6.912 6.912 0 0 1-7.1616-7.136 6.912 6.912 0 0 1 7.1616-7.136h93.1a6.912 6.912 0 0 1 7.162 7.136 6.912 6.912 0 0 1-7.162 7.136h-7.161v35.68h7.161a6.912 6.912 0 0 1 7.162 7.136" fill="none" stroke="#fff" stroke-width=".576"/>
  <line x1="75.651" x2="78.486" y1="3.6482" y2="3.6482" stroke="#fff" stroke-linecap="round" stroke-width="1.152"/>
  <line x1="78.486" x2="76.501" y1="3.6482" y2="1.6639" stroke="#fff" stroke-linecap="round" stroke-width="1.152"/>
  <line x1="76.501" x2="74.517" y1="1.6639" y2="3.6482" stroke="#fff" stroke-linecap="round" stroke-width="1.152"/>
  <line x1="74.517" x2="75.651" y1="3.6482" y2="3.6482" stroke="#fff" stroke-linecap="round" stroke-width="1.152"/>
  <line x1="75.651" x2="76.501" y1="3.6482" y2="2.7978" stroke="#fff" stroke-linecap="round" stroke-width="1.152"/>
  <line x1="61.194" x2="64.312" y1="7.0498" y2="7.0498" stroke="#fff" stroke-linecap="round" stroke-width="1.152"/>
  <line x1="64.312" x2="64.312" y1="7.0498" y2="7.3332" stroke="#fff" stroke-linecap="round" stroke-width="1.152"/>
  <line x1="64.312" x2="61.194" y1="7.3332" y2="7.3332" stroke="#fff" stroke-linecap="round" stroke-width="1.152"/>
  <line x1="68.564" x2="68.564" y1="6.7663" y2="7.6167" stroke="#fff" stroke-linecap="round" stroke-width="1.152"/>
  <line x1="75.935" x2="75.935" y1="4.2151" y2="7.0498" stroke="#fff" stroke-linecap="round" stroke-width="1.152"/>
  <line x1="75.935" x2="76.785" y1="7.0498" y2="7.0498" stroke="#fff" stroke-linecap="round" stroke-width="1.152"/>
  <line x1="76.785" x2="76.785" y1="7.0498" y2="4.2151" stroke="#fff" stroke-linecap="round" stroke-width="1.152"/>
  <line x1="75.935" x2="76.785" y1="11.302" y2="11.302" stroke="#fff" stroke-linecap="round" stroke-width="1.152"/>
  <line x1="69.874" x2="68.173" y1="7.1716" y2="5.4709" stroke="#fff" stroke-linecap="round" stroke-width="1.152"/>
  <line x1="68.173" x2="68.173" y1="5.4709" y2="8.8724" stroke="#fff" stroke-linecap="round" stroke-width="1.152"/>
  <line x1="68.173" x2="69.874" y1="8.8724" y2="7.1716" stroke="#fff" stroke-linecap="round" stroke-width="1.152"/>
  <g>
   <title>element:JP1</title>
   <g>
    <title>package:1X10_ROUND</title>
   </g>
  </g>
  <g>
   <title>element:U$25</title>
   <g>
    <title>package:SYMBOL_GYROXYZ_10MM</title>
   </g>
  </g>
  <g>
   <title>element:U$26</title>
   <g>
    <title>package:ADAFRUIT_TEXT_20MM</title>
   </g>
  </g>
 </g>
 <g id="copper1">
  <g id="copper0" fill="none" stroke="#F7BD13">
   <circle id="connector74pad" cx="7.2" cy="7.2" r="4.6063" stroke-width="2.126" connectorname="P$1"/>
   <circle id="connector72pad" cx="100.8" cy="57.6" r="4.6063" stroke-width="2.126" connectorname="P$1"/>
   <circle id="connector73pad" cx="100.8" cy="7.2" r="4.6063" stroke-width="2.126" connectorname="P$1"/>
   <circle id="connector75pad" cx="7.2" cy="57.6" r="4.6063" stroke-width="2.126" connectorname="P$1"/>
   <circle id="connector42pad" cx="21.6" cy="57.6" r="1.8967" stroke-width=".95868" connectorname="VIN"/>
   <rect x="19.703" y="55.703" width="3.7933" height="3.7933" stroke-width=".95868"/>
   <circle id="connector43pad" cx="28.8" cy="57.6" r="1.8967" stroke-width=".95868" connectorname="3.3V"/>
   <circle id="connector44pad" cx="36" cy="57.6" r="1.8967" stroke-width=".95868" connectorname="GND"/>
   <circle id="connector45pad" cx="43.2" cy="57.6" r="1.8967" stroke-width=".95868" connectorname="SCL"/>
   <circle id="connector46pad" cx="50.4" cy="57.6" r="1.8967" stroke-width=".95868" connectorname="SDA"/>
   <circle id="connector47pad" cx="57.6" cy="57.6" r="1.8967" stroke-width=".95868" connectorname="GYR_INT"/>
   <circle id="connector48pad" cx="64.8" cy="57.6" r="1.8967" stroke-width=".95868" connectorname="GYR_RDY"/>
   <circle id="connector49pad" cx="72" cy="57.6" r="1.8967" stroke-width=".95868" connectorname="LSM_INT1"/>
   <circle id="connector50pad" cx="79.2" cy="57.6" r="1.8967" stroke-width=".95868" connectorname="LSM_INT2"/>
   <circle id="connector51pad" cx="86.4" cy="57.6" r="1.8967" stroke-width=".95868" connectorname="LSM_DRDY"/>
  </g>
 </g>
</svg>
