<?xml version="1.0" encoding="UTF-8"?>
<!-- Created with Fritzing (http://www.fritzing.org/) -->
<svg width="1.2519in" height=".475in" baseProfile="tiny" version="1.2" viewBox="0 0 90.135 34.2" xmlns="http://www.w3.org/2000/svg">
 <desc>
  <referenceFile>Adafruit SHT4x Trinkey_pcb.svg</referenceFile>
 </desc>
 <desc>Fritzing footprint generated by brd2svg</desc>
 <g id="silkscreen">
  <path d="m0.42038 3.8276a3.3548 3.3548 0 0 1 3.6615-3.5394h82.175a3.4328 3.4328 0 0 1 3.5885 3.7625v26.099a3.4326 3.4326 0 0 1-3.5885 3.7623h-82.259a3.312 3.312 0 0 1-3.577-3.5393v-26.545m83.344 7.6097v12.034h2.862v-12.034h-2.862" fill="none" stroke="#fff" stroke-width=".576"/>
  <g>
   <title>element:CN1</title>
   <g>
    <title>package:USBA_PCB</title>
   </g>
  </g>
  <g>
   <title>element:IC3</title>
   <g>
    <title>package:QFN32_5MM</title>
    <line x1="50.186" x2="51.887" y1="20.074" y2="20.074" stroke="#fff" stroke-linecap="round" stroke-width=".36"/>
    <line x1="51.887" x2="51.887" y1="20.074" y2="18.373" stroke="#fff" stroke-linecap="round" stroke-width=".36"/>
    <line x1="38.28" x2="36.58" y1="20.074" y2="20.074" stroke="#fff" stroke-linecap="round" stroke-width=".36"/>
    <line x1="36.58" x2="36.58" y1="20.074" y2="18.373" stroke="#fff" stroke-linecap="round" stroke-width=".36"/>
    <line x1="51.887" x2="51.887" y1="6.4675" y2="4.7667" stroke="#fff" stroke-linecap="round" stroke-width=".36"/>
    <line x1="51.887" x2="50.186" y1="4.7667" y2="4.7667" stroke="#fff" stroke-linecap="round" stroke-width=".36"/>
    <line x1="36.58" x2="36.58" y1="6.4675" y2="4.7667" stroke="#fff" stroke-linecap="round" stroke-width=".36"/>
    <line x1="36.58" x2="38.28" y1="4.7667" y2="4.7667" stroke="#fff" stroke-linecap="round" stroke-width=".36"/>
   </g>
  </g>
  <g>
   <title>element:PLABEL7</title>
   <g>
    <title>package:PLABEL7</title>
   </g>
  </g>
  <g>
   <title>element:PLABEL11</title>
   <g>
    <title>package:PLABEL11</title>
   </g>
  </g>
  <g>
   <title>element:U$7</title>
   <g>
    <title>package:ADAFRUIT_5MM</title>
   </g>
  </g>
  <line x1=".288" x2=".13323" y1="33.912" y2="33.912" fill="none" stroke="#fff" stroke-width=".576"/>
  <line x1=".288" x2=".13323" y1=".288" y2=".288" fill="none" stroke="#fff" stroke-width=".576"/>
  <line x1=".288" x2=".288" y1="33.912" y2=".288" fill="none" stroke="#fff" stroke-width=".576"/>
 </g>
 <g id="copper1">
  <g id="copper0" fill="#F7BD13" stroke-width="0">
   <rect id="connector13pad" x="2.9764" y="5.053" width="21.26" height="4.252"/>
   <rect id="connector14pad" x="5.811" y="18.518" width="18.425" height="2.8346"/>
   <rect id="connector15pad" x="5.811" y="12.848" width="18.425" height="2.8346"/>
   <rect id="connector16pad" x="2.9764" y="24.896" width="21.26" height="4.252"/>
   <rect id="connector64pad" x="81.559" y=".92973" width="3.685" height="3.685" rx="1.8425" ry="1.8425"/>
  </g>
 </g>
</svg>
