<?xml version="1.0" encoding="UTF-8"?>
<!-- Created with Fritzing (http://www.fritzing.org/) -->
<svg width="1.2598in" height=".90551in" baseProfile="tiny" version="1.2" viewBox="0 0 90.708 65.197" xmlns="http://www.w3.org/2000/svg">
 <desc>
  <referenceFile>Adafruit OLED Monochrome 128x32 SPI_pcb.svg</referenceFile>
 </desc>
 <desc>Fritzing footprint generated by brd2svg</desc>
 <g id="silkscreen">
  <path d="m0.288 56.48v-47.763a8.2153 8.2153 0 0 1 8.4499-8.4288h73.233a8.2151 8.2151 0 0 1 8.4499 8.4288v47.763a8.2162 8.2162 0 0 1-8.4499 8.4289h-73.233a8.2162 8.2162 0 0 1-8.4499-8.4289m78.463-36.793a0.84586 0.84586 0 1 0 1.6917 0 0.84586 0.84586 0 1 0-1.6917 0zm0 26.22a0.84586 0.84586 0 1 0 1.6917 0 0.84586 0.84586 0 1 0-1.6917 0z" fill="none" stroke="#fff" stroke-width=".576"/>
  <g>
   <title>element:JP1</title>
   <g>
    <title>package:1X08_ROUND_76</title>
   </g>
  </g>
  <g>
   <title>element:LCD1</title>
   <g>
    <title>package:UG-2832HSWEG04_WRAPAROUND</title>
    <line x1="86.4" x2="1.3606" y1="16.994" y2="16.994" stroke="#fff" stroke-linecap="round" stroke-width=".36"/>
    <line x1="86.4" x2="86.4" y1="16.994" y2="49.096" stroke="#fff" stroke-linecap="round" stroke-width=".36"/>
    <line x1="86.4" x2="1.3606" y1="49.096" y2="49.096" stroke="#fff" stroke-linecap="round" stroke-width=".36"/>
    <line x1="1.3606" x2="1.3606" y1="16.994" y2="49.096" stroke="#fff" stroke-linecap="round" stroke-width=".36"/>
   </g>
  </g>
  <g>
   <title>element:U1</title>
   <g>
    <title>package:SOIC16</title>
   </g>
  </g>
 </g>
 <g id="copper1">
  <g id="copper0" fill="none" stroke="#F7BD13">
   <circle id="connector6pad" cx="27.354" cy="57.277" r="2.0767" stroke-width="1.3187" connectorname="RESET"/>
   <circle id="connector12pad" cx="70.554" cy="57.277" r="2.0767" stroke-width="1.3187" connectorname="GND"/>
   <circle id="connector14pad" cx="8.5039" cy="8.2772" r="3.5433" stroke-width="1.4173" connectorname="P$1"/>
   <circle id="connector7pad" cx="34.554" cy="57.277" r="2.0767" stroke-width="1.3187" connectorname="DC"/>
   <circle id="connector16pad" cx="81.751" cy="8.2772" r="3.5433" stroke-width="1.4173" connectorname="P$1"/>
   <circle id="connector8pad" cx="41.754" cy="57.277" r="2.0767" stroke-width="1.3187" connectorname="SCLK"/>
   <circle id="connector13pad" cx="8.5039" cy="56.693" r="3.5433" stroke-width="1.4173" connectorname="P$1"/>
   <circle id="connector9pad" cx="48.954" cy="57.277" r="2.0767" stroke-width="1.3187" connectorname="MOSI"/>
   <circle id="connector15pad" cx="81.751" cy="56.693" r="3.5433" stroke-width="1.4173" connectorname="P$1"/>
   <circle id="connector10pad" cx="56.154" cy="57.277" r="2.0767" stroke-width="1.3187" connectorname="VIN"/>
   <circle id="connector11pad" cx="63.354" cy="57.277" r="2.0767" stroke-width="1.3187" connectorname="3.3V"/>
   <circle id="connector5pad" cx="20.154" cy="57.277" r="2.0767" stroke-width="1.3187" connectorname="CS"/>
  </g>
 </g>
</svg>
