<?xml version="1.0" encoding="UTF-8"?>
<!-- Created with Fritzing (http://www.fritzing.org/) -->
<svg width="1.4in" height=".7in" baseProfile="tiny" version="1.2" viewBox="0 0 100.8 50.4" xmlns="http://www.w3.org/2000/svg">
 <desc>
  <referenceFile>TCA8418 rev B_pcb.svg</referenceFile>
 </desc>
 <desc>Fritzing footprint generated by brd2svg</desc>
 <g id="silkscreen">
  <path d="m0.288 7.4057a6.912 6.912 0 0 1 7.1589-7.1177h85.906a6.912 6.912 0 0 1 7.159 7.1177v35.589a6.912 6.912 0 0 1-7.159 7.1177h-85.906a6.912 6.912 0 0 1-7.1589-7.1177v-35.589" fill="none" stroke="#fff" stroke-width=".576"/>
  <g>
   <title>element:JP1</title>
   <g>
    <title>package:1X13_ROUND_70</title>
   </g>
  </g>
  <g>
   <title>element:JP4</title>
   <g>
    <title>package:1X13_ROUND_70</title>
   </g>
  </g>
 </g>
 <g id="copper1">
  <g id="copper0">
   <circle id="connector70pad" cx="28.8" cy="43.2" r="1.8967" fill="none" stroke="#F7BD13" stroke-width=".95868" connectorname="SCL"/>
   <circle id="connector62pad" cx="36" cy="7.2" r="1.8967" fill="none" stroke="#F7BD13" stroke-width=".95868" connectorname="C6"/>
   <circle id="connector78pad" cx="86.4" cy="43.2" r="1.8967" fill="none" stroke="#F7BD13" stroke-width=".95868" connectorname="R3"/>
   <g transform="matrix(-1 0 0 -1 172.23 58.904)">
    <rect id="connector11pad" x="83.917" y="28.602" width="4.3937" height="1.7008" fill="#F7BD13" stroke-width="0"/>
   </g>
   <circle id="connector58pad" cx="64.8" cy="7.2" r="1.8967" fill="none" stroke="#F7BD13" stroke-width=".95868" connectorname="C2"/>
   <g transform="matrix(-1 0 0 -1 172.23 53.235)">
    <rect id="connector12pad" x="83.917" y="25.767" width="4.3937" height="1.7008" fill="#F7BD13" stroke-width="0"/>
   </g>
   <circle id="connector66pad" cx="7.2" cy="7.2" r="1.8967" fill="none" stroke="#F7BD13" stroke-width=".95868" connectorname="GND"/>
   <g transform="matrix(-1 0 0 -1 172.23 47.565)">
    <rect id="connector13pad" x="83.917" y="22.932" width="4.3937" height="1.7008" fill="#F7BD13" stroke-width="0"/>
   </g>
   <circle id="connector74pad" cx="57.6" cy="43.2" r="1.8967" fill="none" stroke="#F7BD13" stroke-width=".95868" connectorname="R7"/>
   <g transform="matrix(-1 0 0 -1 172.23 41.896)">
    <rect id="connector14pad" x="83.917" y="20.098" width="4.3937" height="1.7008" fill="#F7BD13" stroke-width="0"/>
   </g>
   <rect id="connector17pad" x="12.49" y="20.098" width="4.3937" height="1.7008" fill="#F7BD13" stroke-width="0"/>
   <rect id="connector18pad" x="12.49" y="22.932" width="4.3937" height="1.7008" fill="#F7BD13" stroke-width="0"/>
   <circle id="connector60pad" cx="50.4" cy="7.2" r="1.8967" fill="none" stroke="#F7BD13" stroke-width=".95868" connectorname="C4"/>
   <rect id="connector19pad" x="12.49" y="25.767" width="4.3937" height="1.7008" fill="#F7BD13" stroke-width="0"/>
   <circle id="connector64pad" cx="21.6" cy="7.2" r="1.8967" fill="none" stroke="#F7BD13" stroke-width=".95868" connectorname="C8"/>
   <rect id="connector20pad" x="12.49" y="28.602" width="4.3937" height="1.7008" fill="#F7BD13" stroke-width="0"/>
   <circle id="connector68pad" cx="14.4" cy="43.2" r="1.8967" fill="none" stroke="#F7BD13" stroke-width=".95868" connectorname="3.3V"/>
   <circle id="connector72pad" cx="43.2" cy="43.2" r="1.8967" fill="none" stroke="#F7BD13" stroke-width=".95868" connectorname="INT"/>
   <circle id="connector76pad" cx="72" cy="43.2" r="1.8967" fill="none" stroke="#F7BD13" stroke-width=".95868" connectorname="R5"/>
   <circle id="connector100pad" cx="36" cy="25.2" r="4.2633" fill="none" stroke="#F7BD13" stroke-width="1.44" connectorname="P$1"/>
   <circle id="connector57pad" cx="72" cy="7.2" r="1.8967" fill="none" stroke="#F7BD13" stroke-width=".95868" connectorname="C1"/>
   <circle id="connector59pad" cx="57.6" cy="7.2" r="1.8967" fill="none" stroke="#F7BD13" stroke-width=".95868" connectorname="C3"/>
   <circle id="connector61pad" cx="43.2" cy="7.2" r="1.8967" fill="none" stroke="#F7BD13" stroke-width=".95868" connectorname="C5"/>
   <circle id="connector63pad" cx="28.8" cy="7.2" r="1.8967" fill="none" stroke="#F7BD13" stroke-width=".95868" connectorname="C7"/>
   <circle id="connector65pad" cx="14.4" cy="7.2" r="1.8967" fill="none" stroke="#F7BD13" stroke-width=".95868" connectorname="C9"/>
   <circle id="connector67pad" cx="7.2" cy="43.2" r="1.8967" fill="none" stroke="#F7BD13" stroke-width=".95868" connectorname="VCC"/>
   <circle id="connector69pad" cx="21.6" cy="43.2" r="1.8967" fill="none" stroke="#F7BD13" stroke-width=".95868" connectorname="GND"/>
   <circle id="connector71pad" cx="36" cy="43.2" r="1.8967" fill="none" stroke="#F7BD13" stroke-width=".95868" connectorname="SDA"/>
   <circle id="connector73pad" cx="50.4" cy="43.2" r="1.8967" fill="none" stroke="#F7BD13" stroke-width=".95868" connectorname="RST"/>
   <circle id="connector75pad" cx="64.8" cy="43.2" r="1.8967" fill="none" stroke="#F7BD13" stroke-width=".95868" connectorname="R6"/>
   <circle id="connector77pad" cx="79.2" cy="43.2" r="1.8967" fill="none" stroke="#F7BD13" stroke-width=".95868" connectorname="R4"/>
   <circle id="connector79pad" cx="93.6" cy="43.2" r="1.8967" fill="none" stroke="#F7BD13" stroke-width=".95868" connectorname="R2"/>
   <circle id="connector101pad" cx="64.8" cy="25.2" r="4.2633" fill="none" stroke="#F7BD13" stroke-width="1.44" connectorname="P$1"/>
   <circle id="connector54pad" cx="93.6" cy="7.2" r="1.8967" fill="none" stroke="#F7BD13" stroke-width=".95868" connectorname="R1"/>
   <circle id="connector55pad" cx="86.4" cy="7.2" r="1.8967" fill="none" stroke="#F7BD13" stroke-width=".95868" connectorname="R0"/>
   <circle id="connector56pad" cx="79.2" cy="7.2" r="1.8967" fill="none" stroke="#F7BD13" stroke-width=".95868" connectorname="C0"/>
  </g>
 </g>
</svg>
