<?xml version="1.0" encoding="UTF-8"?>
<!-- Created with Fritzing (http://www.fritzing.org/) -->
<svg width="1.7in" height="1.65in" baseProfile="tiny" version="1.2" viewBox="0 0 122.4 118.8" xmlns="http://www.w3.org/2000/svg">
 <desc>
  <referenceFile>Adafruit OLED Color 1.5 inch 128x128 w microSD_pcb.svg</referenceFile>
 </desc>
 <desc>Fritzing footprint generated by brd2svg</desc>
 <g id="silkscreen">
  <path d="m122.11 7.4531v103.89a6.912 6.912 0 0 1-7.166 7.165h-107.49a6.912 6.912 0 0 1-7.1661-7.165v-103.89a6.912 6.912 0 0 1 7.1661-7.1651h107.49a6.912 6.912 0 0 1 7.166 7.1651" fill="none" stroke="#fff" stroke-width=".576"/>
  <g>
   <title>element:CN1</title>
   <g>
    <title>package:MICROSD</title>
   </g>
  </g>
  <g>
   <title>element:JP1</title>
   <g>
    <title>package:1X11_ROUND_76</title>
   </g>
  </g>
  <g>
   <title>element:U1</title>
   <g>
    <title>package:FPC_XF2M-3015-1A</title>
   </g>
  </g>
  <g>
   <title>element:U4</title>
   <g>
    <title>package:SOIC16</title>
   </g>
  </g>
 </g>
 <g id="copper1">
  <g id="copper0" fill="none" stroke="#F7BD13">
   <circle id="connector6pad" cx="32.4" cy="4.32" r="2.0767" stroke-width="1.3187" connectorname="SCK"/>
   <circle id="connector18pad" cx="7.2" cy="7.2" r="4.0394" stroke-width=".99212" connectorname="P$1"/>
   <circle id="connector14pad" cx="90" cy="4.32" r="2.0767" stroke-width="1.3187" connectorname="VIN"/>
   <circle id="connector7pad" cx="39.6" cy="4.32" r="2.0767" stroke-width="1.3187" connectorname="DC"/>
   <circle id="connector16pad" cx="115.2" cy="111.6" r="4.0394" stroke-width=".99212" connectorname="P$1"/>
   <circle id="connector8pad" cx="46.8" cy="4.32" r="2.0767" stroke-width="1.3187" connectorname="RESET"/>
   <circle id="connector13pad" cx="82.8" cy="4.32" r="2.0767" stroke-width="1.3187" connectorname="3.3V"/>
   <circle id="connector9pad" cx="54" cy="4.32" r="2.0767" stroke-width="1.3187" connectorname="OLED_CS"/>
   <circle id="connector15pad" cx="97.2" cy="4.32" r="2.0767" stroke-width="1.3187" connectorname="GND"/>
   <circle id="connector10pad" cx="61.2" cy="4.32" r="2.0767" stroke-width="1.3187" connectorname="SD_CS"/>
   <circle id="connector17pad" cx="7.2" cy="111.6" r="4.0394" stroke-width=".99212" connectorname="P$1"/>
   <circle id="connector11pad" cx="68.4" cy="4.32" r="2.0767" stroke-width="1.3187" connectorname="SD_MISO"/>
   <circle id="connector19pad" cx="115.2" cy="7.2" r="4.0394" stroke-width=".99212" connectorname="P$1"/>
   <circle id="connector12pad" cx="75.6" cy="4.32" r="2.0767" stroke-width="1.3187" connectorname="SD_CD"/>
   <circle id="connector5pad" cx="25.2" cy="4.32" r="2.0767" stroke-width="1.3187" connectorname="MOSI"/>
   <rect x="23.123" y="2.2433" width="4.1533" height="4.1533" stroke-width="1.3187"/>
  </g>
 </g>
</svg>
