<?xml version="1.0" encoding="UTF-8"?>
<!-- Created with Fritzing (http://www.fritzing.org/) -->
<svg width="1.75in" height=".5in" baseProfile="tiny" version="1.2" viewBox="0 0 126 36" xmlns="http://www.w3.org/2000/svg">
 <desc>
  <referenceFile>Adafruit FPC Breakout - Pi 5 DSI - RP2350 HSTX_pcb.svg</referenceFile>
 </desc>
 <desc>Fritzing footprint generated by brd2svg</desc>
 <g id="silkscreen">
  <path d="m0.288 7.3728a6.912 6.912 0 0 1 7.1671-7.0848h111.09a6.912 6.912 0 0 1 7.167 7.0848v21.254a6.912 6.912 0 0 1-7.167 7.0848h-111.09a6.912 6.912 0 0 1-7.1671-7.0848v-21.254" fill="none" stroke="#fff" stroke-width=".576"/>
  <g>
   <title>element:CN1</title>
   <g>
    <title>package:FPC_22PIN</title>
    <line x1="79.158" x2="84.26" y1="14.295" y2="14.295" stroke="#fff" stroke-linecap="round" stroke-width=".576"/>
    <line x1="84.26" x2="84.26" y1="14.295" y2="10.894" stroke="#fff" stroke-linecap="round" stroke-width=".576"/>
    <line x1="44.858" x2="41.457" y1="14.295" y2="14.295" stroke="#fff" stroke-linecap="round" stroke-width=".576"/>
    <line x1="41.457" x2="41.457" y1="14.295" y2="10.894" stroke="#fff" stroke-linecap="round" stroke-width=".576"/>
   </g>
  </g>
  <g>
   <title>element:JP1</title>
   <g>
    <title>package:1X17_ROUND70</title>
   </g>
  </g>
  <g>
   <title>element:PLABEL19</title>
   <g>
    <title>package:PLABEL19</title>
   </g>
  </g>
  <g>
   <title>element:PLABEL20</title>
   <g>
    <title>package:PLABEL20</title>
   </g>
  </g>
 </g>
 <g id="copper1">
  <g id="copper0" fill="none" stroke="#F7BD13">
   <circle id="connector38pad" cx="55.8" cy="28.8" r="1.9687" stroke-width="1.1027" connectorname="D2-"/>
   <circle id="connector46pad" cx="113.4" cy="28.8" r="1.9687" stroke-width="1.1027" connectorname="CAM_SDA"/>
   <circle id="connector34pad" cx="27" cy="28.8" r="1.9687" stroke-width="1.1027" connectorname="D1-"/>
   <circle id="connector42pad" cx="84.6" cy="28.8" r="1.9687" stroke-width="1.1027" connectorname="GND"/>
   <circle id="connector32pad" cx="12.6" cy="28.8" r="1.9687" stroke-width="1.1027" connectorname="D0-"/>
   <circle id="connector36pad" cx="41.4" cy="28.8" r="1.9687" stroke-width="1.1027" connectorname="CK-"/>
   <circle id="connector40pad" cx="70.2" cy="28.8" r="1.9687" stroke-width="1.1027" connectorname="D3-"/>
   <circle id="connector44pad" cx="99" cy="28.8" r="1.9687" stroke-width="1.1027" connectorname="CAM_IO1"/>
   <circle id="connector48pad" cx="7.2" cy="7.2" r="4.2633" stroke-width="1.44" connectorname="P$1"/>
   <circle id="connector31pad" cx="5.4" cy="28.8" r="1.9687" stroke-width="1.1027" connectorname="GND"/>
   <circle id="connector33pad" cx="19.8" cy="28.8" r="1.9687" stroke-width="1.1027" connectorname="D0+"/>
   <circle id="connector35pad" cx="34.2" cy="28.8" r="1.9687" stroke-width="1.1027" connectorname="D1+"/>
   <circle id="connector37pad" cx="48.6" cy="28.8" r="1.9687" stroke-width="1.1027" connectorname="CK+"/>
   <circle id="connector39pad" cx="63" cy="28.8" r="1.9687" stroke-width="1.1027" connectorname="D2+"/>
   <circle id="connector41pad" cx="77.4" cy="28.8" r="1.9687" stroke-width="1.1027" connectorname="D3+"/>
   <circle id="connector43pad" cx="91.8" cy="28.8" r="1.9687" stroke-width="1.1027" connectorname="CAM_IO0"/>
   <circle id="connector45pad" cx="106.2" cy="28.8" r="1.9687" stroke-width="1.1027" connectorname="CAM_SCL"/>
   <circle id="connector47pad" cx="120.6" cy="28.8" r="1.9687" stroke-width="1.1027" connectorname="CAM_3V3"/>
   <circle id="connector49pad" cx="118.8" cy="7.2" r="4.2633" stroke-width="1.44" connectorname="P$1"/>
  </g>
 </g>
</svg>
