<?xml version="1.0" encoding="UTF-8"?>
<!-- Created with Fritzing (http://www.fritzing.org/) -->
<svg width=".75495in" height=".95in" baseProfile="tiny" version="1.2" viewBox="0 0 54.356 68.4" xmlns="http://www.w3.org/2000/svg">
 <desc>
  <referenceFile>NeoKey CHOC Breakout_flipped_pcb.svg</referenceFile>
 </desc>
 <desc>Fritzing footprint generated by brd2svg</desc>
 <g id="silkscreen">
  <path d="m0.46435 7.4274a6.912 6.912 0 0 1 7.1237-7.1394h39.18a6.912 6.912 0 0 1 7.1237 7.1394v49.976a8.8903 8.8903 0 0 1-7.1237 10.709h-39.18a8.8903 8.8903 0 0 1-7.1237-10.709v-49.976m22.183 26.773a4.5309 4.5309 0 1 0 9.0618 0 4.5309 4.5309 0 1 0-9.0618 0zm0.5669-16.724a3.964 3.964 0 1 0 7.9279 0 3.964 3.964 0 1 0-7.9279 0zm14.173 5.9528a3.964 3.964 0 1 0 7.9279 0 3.964 3.964 0 1 0-7.9279 0zm2.9763 10.772a2.4049 2.4049 0 1 0 4.8098 0 2.4049 2.4049 0 1 0-4.8098 0zm-31.181 0a2.4049 2.4049 0 1 0 4.8098 0 2.4049 2.4049 0 1 0-4.8098 0zm-6.9166-23.4a3.312 3.312 0 1 0 6.624 0 3.312 3.312 0 1 0-6.624 0zm43.2 46.8a3.312 3.312 0 1 0 6.624 0 3.312 3.312 0 1 0-6.624 0z" fill="none" stroke="#fff" stroke-width=".576"/>
  <g>
   <title>element:SW1</title>
   <g>
    <title>package:KAILH_CHOC_SOCKET</title>
    <line x1="32.55" x2="32.55" y1="43.418" y2="51.378" stroke="#fff" stroke-linecap="round" stroke-width=".36"/>
    <line x1="32.55" x2="21.841" y1="51.378" y2="51.378" stroke="#fff" stroke-linecap="round" stroke-width=".36"/>
    <line x1="21.841" x2="21.841" y1="51.378" y2="43.418" stroke="#fff" stroke-linecap="round" stroke-width=".36"/>
    <line x1="21.841" x2="32.55" y1="43.418" y2="43.418" stroke="#fff" stroke-linecap="round" stroke-width=".36"/>
    <line x1="19.491" x2="7.5511" y1="12.217" y2="12.217" stroke="#fff" stroke-linecap="round" stroke-width=".36"/>
    <line x1="7.5511" x2="7.5511" y1="12.217" y2="52.713" stroke="#fff" stroke-linecap="round" stroke-width=".36"/>
    <line x1="7.5511" x2="7.5511" y1="52.713" y2="56.336" stroke="#fff" stroke-linecap="round" stroke-width=".36"/>
    <line x1="7.5511" x2="19.525" y1="56.336" y2="56.336" stroke="#fff" stroke-linecap="round" stroke-width=".36"/>
    <line x1="19.525" x2="19.525" y1="56.336" y2="53.785" stroke="#fff" stroke-linecap="round" stroke-width=".36"/>
    <line x1="19.525" x2="34.798" y1="53.785" y2="53.785" stroke="#fff" stroke-linecap="round" stroke-width=".36"/>
    <line x1="34.798" x2="34.798" y1="53.785" y2="56.336" stroke="#fff" stroke-linecap="round" stroke-width=".36"/>
    <line x1="34.798" x2="46.899" y1="56.336" y2="56.336" stroke="#fff" stroke-linecap="round" stroke-width=".36"/>
    <line x1="46.899" x2="46.899" y1="56.336" y2="52.713" stroke="#fff" stroke-linecap="round" stroke-width=".36"/>
    <line x1="46.899" x2="46.899" y1="52.713" y2="14.896" stroke="#fff" stroke-linecap="round" stroke-width=".36"/>
    <line x1="46.899" x2="46.899" y1="14.896" y2="12.2" stroke="#fff" stroke-linecap="round" stroke-width=".36"/>
    <line x1="46.899" x2="34.849" y1="12.2" y2="12.2" stroke="#fff" stroke-linecap="round" stroke-width=".36"/>
    <line x1="34.849" x2="34.849" y1="12.2" y2="14.896" stroke="#fff" stroke-linecap="round" stroke-width=".36"/>
    <line x1="34.849" x2="19.516" y1="14.896" y2="14.896" stroke="#fff" stroke-linecap="round" stroke-width=".36"/>
    <line x1="19.516" x2="19.516" y1="14.896" y2="12.217" stroke="#fff" stroke-linecap="round" stroke-width=".36"/>
    <line x1="24.193" x2="24.193" y1="55.74" y2="53.793" stroke="#fff" stroke-linecap="round" stroke-width=".36"/>
    <line x1="24.193" x2="24.202" y1="53.793" y2="53.793" stroke="#fff" stroke-linecap="round" stroke-width=".36"/>
    <line x1="24.193" x2="24.193" y1="55.792" y2="56.2" stroke="#fff" stroke-linecap="round" stroke-width=".36"/>
    <line x1="24.193" x2="30.172" y1="56.2" y2="56.2" stroke="#fff" stroke-linecap="round" stroke-width=".36"/>
    <line x1="30.172" x2="30.172" y1="56.2" y2="55.256" stroke="#fff" stroke-linecap="round" stroke-width=".36"/>
    <line x1="30.172" x2="30.172" y1="55.256" y2="55.035" stroke="#fff" stroke-linecap="round" stroke-width=".36"/>
    <line x1="30.172" x2="24.227" y1="55.035" y2="55.035" stroke="#fff" stroke-linecap="round" stroke-width=".36"/>
    <line x1="30.172" x2="30.172" y1="55.035" y2="53.793" stroke="#fff" stroke-linecap="round" stroke-width=".36"/>
    <line x1="30.172" x2="30.163" y1="53.793" y2="53.793" stroke="#fff" stroke-linecap="round" stroke-width=".36"/>
    <line x1="22.025" x2="24.176" y1="55.247" y2="55.247" stroke="#fff" stroke-linecap="round" stroke-width=".36"/>
    <line x1="24.176" x2="24.176" y1="55.247" y2="55.239" stroke="#fff" stroke-linecap="round" stroke-width=".36"/>
    <line x1="22.025" x2="21.778" y1="55.247" y2="54.916" stroke="#fff" stroke-linecap="round" stroke-width=".36"/>
    <line x1="21.778" x2="19.55" y1="54.916" y2="54.916" stroke="#fff" stroke-linecap="round" stroke-width=".36"/>
    <line x1="30.172" x2="32.332" y1="55.256" y2="55.256" stroke="#fff" stroke-linecap="round" stroke-width=".36"/>
    <line x1="33.794" x2="34.789" y1="54.924" y2="54.924" stroke="#fff" stroke-linecap="round" stroke-width=".36"/>
    <line x1="33.786" x2="32.476" y1="54.924" y2="54.924" stroke="#fff" stroke-linecap="round" stroke-width=".36"/>
    <line x1="32.476" x2="32.476" y1="54.924" y2="54.916" stroke="#fff" stroke-linecap="round" stroke-width=".36"/>
    <line x1="32.332" x2="32.476" y1="55.256" y2="54.916" stroke="#fff" stroke-linecap="round" stroke-width=".36"/>
    <line x1="19.516" x2="7.5681" y1="14.896" y2="14.896" stroke="#fff" stroke-linecap="round" stroke-width=".36"/>
    <line x1="7.5681" x2="7.5681" y1="14.896" y2="14.905" stroke="#fff" stroke-linecap="round" stroke-width=".36"/>
    <line x1="34.849" x2="46.899" y1="14.896" y2="14.896" stroke="#fff" stroke-linecap="round" stroke-width=".36"/>
    <line x1="19.516" x2="19.516" y1="53.708" y2="54.031" stroke="#fff" stroke-linecap="round" stroke-width=".36"/>
    <line x1="19.516" x2="12.339" y1="53.708" y2="53.708" stroke="#fff" stroke-linecap="round" stroke-width=".36"/>
    <line x1="12.339" x2="12.339" y1="53.708" y2="52.713" stroke="#fff" stroke-linecap="round" stroke-width=".36"/>
    <line x1="12.339" x2="7.5511" y1="52.713" y2="52.713" stroke="#fff" stroke-linecap="round" stroke-width=".36"/>
    <line x1="46.066" x2="46.899" y1="52.713" y2="52.713" stroke="#fff" stroke-linecap="round" stroke-width=".36"/>
    <line x1="46.057" x2="42.052" y1="52.713" y2="52.713" stroke="#fff" stroke-linecap="round" stroke-width=".36"/>
    <line x1="42.052" x2="42.052" y1="52.713" y2="53.7" stroke="#fff" stroke-linecap="round" stroke-width=".36"/>
    <line x1="42.052" x2="34.798" y1="53.7" y2="53.7" stroke="#fff" stroke-linecap="round" stroke-width=".36"/>
    <line x1="34.798" x2="34.798" y1="53.7" y2="53.785" stroke="#fff" stroke-linecap="round" stroke-width=".36"/>
    <line x1="54.178" x2="54.178" y1="10.8" y2="57.6" stroke="#fff" stroke-linecap="round" stroke-width=".432"/>
    <path d="m50.578 61.2a3.6 3.6 0 0 0 3.6-3.6" fill="none" stroke="#fff" stroke-width=".432"/>
    <line x1="50.578" x2="3.7782" y1="61.2" y2="61.2" stroke="#fff" stroke-linecap="round" stroke-width=".432"/>
    <path d="m0.17824 57.6a3.6 3.6 0 0 0 3.6 3.6" fill="none" stroke="#fff" stroke-width=".432"/>
    <line x1=".17824" x2=".17824" y1="57.6" y2="10.8" stroke="#fff" stroke-linecap="round" stroke-width=".432"/>
    <path d="m3.7782 7.2a3.6 3.6 0 0 0-3.6 3.6" fill="none" stroke="#fff" stroke-width=".432"/>
    <line x1="3.7782" x2="50.578" y1="7.2" y2="7.2" stroke="#fff" stroke-linecap="round" stroke-width=".432"/>
    <path d="m54.178 10.8a3.6 3.6 0 0 0-3.6-3.6" fill="none" stroke="#fff" stroke-width=".432"/>
   </g>
  </g>
 </g>
 <g id="copper1">
  <g id="copper0" fill="none" stroke="#F7BD13" stroke-width="1.1027">
   <circle id="connector6pad" cx="19.978" cy="5.4" r="1.9687" connectorname="GND"/>
   <circle id="connector18pad" cx="50.578" cy="30.6" r="1.9687" connectorname="SWITCHC"/>
   <circle id="connector14pad" cx="27.178" cy="63" r="1.9687" connectorname="NEO_IN"/>
   <circle id="connector7pad" cx="27.178" cy="5.4" r="1.9687" connectorname="NEO_OUT"/>
   <circle id="connector16pad" cx="41.578" cy="63" r="1.9687" connectorname="SWITCHC"/>
   <circle id="connector8pad" cx="34.378" cy="5.4" r="1.9687" connectorname="SWITCHA"/>
   <circle id="connector13pad" cx="19.978" cy="63" r="1.9687" connectorname="GND"/>
   <circle id="connector9pad" cx="41.578" cy="5.4" r="1.9687" connectorname="SWITCHC"/>
   <circle id="connector15pad" cx="34.378" cy="63" r="1.9687" connectorname="SWITCHA"/>
   <circle id="connector10pad" cx="3.7782" cy="37.8" r="1.9687" connectorname="NEO_IN"/>
   <circle id="connector17pad" cx="50.578" cy="37.8" r="1.9687" connectorname="NEO_OUT"/>
   <circle id="connector11pad" cx="3.7782" cy="30.6" r="1.9687" connectorname="SWITCHC"/>
   <circle id="connector12pad" cx="12.778" cy="63" r="1.9687" connectorname="VDD"/>
   <circle id="connector5pad" cx="12.778" cy="5.4" r="1.9687" connectorname="VDD"/>
  </g>
 </g>
</svg>
