<?xml version="1.0" encoding="UTF-8"?>
<!-- Created with Fritzing (http://www.fritzing.org/) -->
<svg width="1.2in" height=".75in" baseProfile="tiny" version="1.2" viewBox="0 0 86.4 54" xmlns="http://www.w3.org/2000/svg">
 <desc>
  <referenceFile>Adafruit L3GD20H Triple-Axis Gyro Breakout Board_pcb.svg</referenceFile>
 </desc>
 <desc>Fritzing footprint generated by brd2svg</desc>
 <g id="silkscreen">
  <path d="m86.112 46.589a6.912 6.912 0 0 1-7.1518 7.1232h-71.52a6.912 6.912 0 0 1-7.152-7.1232v-3.2054a6.912 6.912 0 0 1 7.152-7.1233h1.788v-21.726h-1.788a6.912 6.912 0 0 1-7.152-7.1232 6.912 6.912 0 0 1 7.152-7.1232h71.52a6.912 6.912 0 0 1 7.1518 7.1232 6.912 6.912 0 0 1-7.1518 7.1232h-1.7884v21.726h1.7884a6.912 6.912 0 0 1 7.1518 7.1233v3.2054" fill="none" stroke="#fff" stroke-width=".576"/>
  <g>
   <title>element:JP1</title>
   <g>
    <title>package:1X09_ROUND_76</title>
   </g>
  </g>
  <g>
   <title>element:U$3</title>
   <g>
    <title>package:SYMBOL_GYROXYZ_10MM</title>
   </g>
  </g>
  <g>
   <title>element:U$10</title>
   <g>
    <title>package:ADAFRUIT_TEXT_20MM</title>
   </g>
  </g>
 </g>
 <g id="copper1">
  <g id="copper0" fill="none" stroke="#F7BD13">
   <circle id="connector38pad" cx="28.8" cy="49.68" r="2.0767" stroke-width="1.3187" connectorname="SDO/SAO"/>
   <circle id="connector42pad" cx="57.6" cy="49.68" r="2.0767" stroke-width="1.3187" connectorname="GND"/>
   <circle id="connector66pad" cx="79.2" cy="43.56" r="3.8381" stroke-width="1.44" connectorname="P$1"/>
   <circle id="connector40pad" cx="43.2" cy="49.68" r="2.0767" stroke-width="1.3187" connectorname="DRDY/INT2"/>
   <circle id="connector44pad" cx="72" cy="49.68" r="2.0767" stroke-width="1.3187" connectorname="VIN"/>
   <circle id="connector64pad" cx="7.2" cy="7.2" r="3.8381" stroke-width="1.44" connectorname="P$1"/>
   <circle id="connector39pad" cx="36" cy="49.68" r="2.0767" stroke-width="1.3187" connectorname="CS"/>
   <circle id="connector41pad" cx="50.4" cy="49.68" r="2.0767" stroke-width="1.3187" connectorname="INT1"/>
   <circle id="connector43pad" cx="64.8" cy="49.68" r="2.0767" stroke-width="1.3187" connectorname="+3V3"/>
   <circle id="connector63pad" cx="79.2" cy="7.2" r="3.8381" stroke-width="1.44" connectorname="P$1"/>
   <circle id="connector65pad" cx="7.2" cy="43.56" r="3.8381" stroke-width="1.44" connectorname="P$1"/>
   <circle id="connector36pad" cx="14.4" cy="49.68" r="2.0767" stroke-width="1.3187" connectorname="SCL/SPC"/>
   <circle id="connector37pad" cx="21.6" cy="49.68" r="2.0767" stroke-width="1.3187" connectorname="SDA/SDI/SDO"/>
  </g>
 </g>
</svg>
