<?xml version="1.0" encoding="UTF-8"?>
<!-- Created with Fritzing (http://www.fritzing.org/) -->
<svg width="2in" height=".9in" baseProfile="tiny" version="1.2" viewBox="0 0 144 64.8" xmlns="http://www.w3.org/2000/svg">
 <desc>
  <referenceFile>Adafruit Prop Maker Wing_pcb.svg</referenceFile>
 </desc>
 <desc>Fritzing footprint generated by brd2svg</desc>
 <g id="silkscreen">
  <path d="m7.4592 0.288h129.08a6.912 6.912 0 0 1 7.171 7.136v49.952a6.912 6.912 0 0 1-7.171 7.136h-129.08a6.912 6.912 0 0 1-7.1712-7.136v-49.952a6.912 6.912 0 0 1 7.1712-7.136m126.03 6.912a3.312 3.312 0 1 0 6.624 0 3.312 3.312 0 1 0-6.624 0zm0 50.4a3.312 3.312 0 1 0 6.624 0 3.312 3.312 0 1 0-6.624 0zm-128.7-28.8a4.212 4.212 0 1 0 8.424 0 4.212 4.212 0 1 0-8.424 0zm94.68-3.6a4.212 4.212 0 1 0 8.424 0 4.212 4.212 0 1 0-8.424 0zm0 14.4a4.212 4.212 0 1 0 8.424 0 4.212 4.212 0 1 0-8.424 0z" fill="none" stroke="#fff" stroke-width=".576"/>
  <g>
   <title>element:JP1</title>
   <g>
    <title>package:1X12_ROUND</title>
   </g>
  </g>
  <g>
   <title>element:JP4</title>
   <g>
    <title>package:1X16_ROUND</title>
   </g>
  </g>
  <g>
   <title>element:MS1</title>
   <g>
    <title>package:FEATHERWING</title>
   </g>
  </g>
  <g>
   <title>element:NEO</title>
   <g>
    <title>package:JSTPH3</title>
    <line x1="142.38" x2="142.38" y1="23.187" y2="41.613" stroke="#fff" stroke-linecap="round" stroke-width=".576"/>
    <line x1="132.46" x2="121.12" y1="46.573" y2="46.573" stroke="#fff" stroke-linecap="round" stroke-width=".576"/>
    <line x1="121.12" x2="121.12" y1="46.573" y2="44.164" stroke="#fff" stroke-linecap="round" stroke-width=".576"/>
    <line x1="121.12" x2="128.2" y1="44.164" y2="44.164" stroke="#fff" stroke-linecap="round" stroke-width=".576"/>
    <line x1="128.2" x2="128.2" y1="44.164" y2="34.526" stroke="#fff" stroke-linecap="round" stroke-width=".576"/>
    <line x1="128.2" x2="128.2" y1="24.605" y2="20.636" stroke="#fff" stroke-linecap="round" stroke-width=".576"/>
    <line x1="128.2" x2="121.12" y1="20.636" y2="20.636" stroke="#fff" stroke-linecap="round" stroke-width=".576"/>
    <line x1="121.12" x2="121.12" y1="20.636" y2="18.227" stroke="#fff" stroke-linecap="round" stroke-width=".576"/>
    <line x1="121.12" x2="132.46" y1="18.227" y2="18.227" stroke="#fff" stroke-linecap="round" stroke-width=".576"/>
   </g>
  </g>
  <g>
   <title>element:U$1</title>
   <g>
    <title>package:53398-0271</title>
    <line x1="22.405" x2="33.035" y1="8.6442" y2="8.6442" stroke="#fff" stroke-linecap="round" stroke-width=".576"/>
    <line x1="19.748" x2="19.748" y1="17.503" y2="21.046" stroke="#fff" stroke-linecap="round" stroke-width=".576"/>
    <line x1="19.748" x2="24.177" y1="21.046" y2="21.046" stroke="#fff" stroke-linecap="round" stroke-width=".576"/>
    <line x1="31.263" x2="35.692" y1="21.046" y2="21.046" stroke="#fff" stroke-linecap="round" stroke-width=".576"/>
    <line x1="35.692" x2="35.692" y1="21.046" y2="17.503" stroke="#fff" stroke-linecap="round" stroke-width=".576"/>
    <g>
     <title>polygon</title>
     <path d="m31.833 18.805h1.44l-0.72 1.08-0.72-1.08m0.6633 0.995h0.1133-0.1133m-0.24-0.36h0.5934-0.5934" fill="none" stroke="#fff" stroke-linecap="round" stroke-width=".36"/>
    </g>
   </g>
  </g>
  <g>
   <title>element:U$6</title>
   <g>
    <title>package:PROPMAKER_BOT</title>
   </g>
  </g>
  <g>
   <title>element:U$14</title>
   <g>
    <title>package:PROPMAKER_TOP</title>
   </g>
  </g>
  <g>
   <title>element:X6</title>
   <g>
    <title>package:JSTPH2</title>
    <line x1="21.342" x2="34.098" y1="5.5361" y2="5.5361" stroke="#fff" stroke-linecap="round" stroke-width=".576"/>
    <line x1="39.059" x2="39.059" y1="15.457" y2="26.796" stroke="#fff" stroke-linecap="round" stroke-width=".576"/>
    <line x1="39.059" x2="36.649" y1="26.796" y2="26.796" stroke="#fff" stroke-linecap="round" stroke-width=".576"/>
    <line x1="36.649" x2="36.649" y1="26.796" y2="19.709" stroke="#fff" stroke-linecap="round" stroke-width=".576"/>
    <line x1="36.649" x2="32.681" y1="19.709" y2="19.709" stroke="#fff" stroke-linecap="round" stroke-width=".576"/>
    <line x1="22.759" x2="18.791" y1="19.709" y2="19.709" stroke="#fff" stroke-linecap="round" stroke-width=".576"/>
    <line x1="18.791" x2="18.791" y1="19.709" y2="26.796" stroke="#fff" stroke-linecap="round" stroke-width=".576"/>
    <line x1="18.791" x2="16.381" y1="26.796" y2="26.796" stroke="#fff" stroke-linecap="round" stroke-width=".576"/>
    <line x1="16.381" x2="16.381" y1="26.796" y2="15.457" stroke="#fff" stroke-linecap="round" stroke-width=".576"/>
   </g>
  </g>
 </g>
 <g id="copper1">
  <g id="copper0" fill="none" stroke="#F7BD13">
   <circle id="connector102pad" cx="97.2" cy="3.6" r="1.9687" stroke-width="1.1027" connectorname="SWITCH"/>
   <circle id="connector94pad" cx="104.4" cy="61.2" r="1.9687" stroke-width="1.1027" connectorname="MISO"/>
   <circle id="connector110pad" cx="7.2" cy="7.2" r="4.4716" stroke-width="1.8567" connectorname="P$1"/>
   <circle id="connector98pad" cx="126" cy="3.6" r="1.9687" stroke-width="1.1027" connectorname="SDA"/>
   <circle id="connector106pad" cx="68.4" cy="3.6" r="1.9687" stroke-width="1.1027" connectorname="BLUE"/>
   <circle id="connector23pad" cx="10.8" cy="20.16" r="1.9687" stroke-width="1.1027" connectorname="ENABLE"/>
   <circle id="connector24pad" cx="3.6" cy="20.16" r="1.9687" stroke-width="1.1027" connectorname="GND"/>
   <circle id="connector96pad" cx="118.8" cy="61.2" r="1.9687" stroke-width="1.1027" connectorname="TX"/>
   <circle id="connector100pad" cx="111.6" cy="3.6" r="1.9687" stroke-width="1.1027" connectorname="NEOPIXEL"/>
   <circle id="connector104pad" cx="82.8" cy="3.6" r="1.9687" stroke-width="1.1027" connectorname="RED"/>
   <circle id="connector108pad" cx="54" cy="3.6" r="1.9687" stroke-width="1.1027" connectorname="ENABLE"/>
   <circle id="connector48pad" cx="46.8" cy="10.8" r="1.8967" stroke-width=".95868" connectorname="VBAT"/>
   <circle id="connector93pad" cx="97.2" cy="61.2" r="1.9687" stroke-width="1.1027" connectorname="MOSI"/>
   <circle id="connector49pad" cx="54" cy="10.8" r="1.8967" stroke-width=".95868" connectorname="ENABLE"/>
   <circle id="connector95pad" cx="111.6" cy="61.2" r="1.9687" stroke-width="1.1027" connectorname="RX"/>
   <circle id="connector50pad" cx="61.2" cy="10.8" r="1.8967" stroke-width=".95868" connectorname="VBUS"/>
   <circle id="connector97pad" cx="126" cy="61.2" r="1.9687" stroke-width="1.1027" connectorname="G"/>
   <circle id="connector51pad" cx="68.4" cy="10.8" r="1.8967" stroke-width=".95868" connectorname="BLUE"/>
   <circle id="connector99pad" cx="118.8" cy="3.6" r="1.9687" stroke-width="1.1027" connectorname="SCL"/>
   <circle id="connector52pad" cx="75.6" cy="10.8" r="1.8967" stroke-width=".95868" connectorname="GREEN"/>
   <circle id="connector101pad" cx="104.4" cy="3.6" r="1.9687" stroke-width="1.1027" connectorname="IRQ"/>
   <circle id="connector53pad" cx="82.8" cy="10.8" r="1.8967" stroke-width=".95868" connectorname="RED"/>
   <circle id="connector103pad" cx="90" cy="3.6" r="1.9687" stroke-width="1.1027" connectorname="POWER"/>
   <circle id="connector54pad" cx="90" cy="10.8" r="1.8967" stroke-width=".95868" connectorname="POWER"/>
   <circle id="connector105pad" cx="75.6" cy="3.6" r="1.9687" stroke-width="1.1027" connectorname="GREEN"/>
   <circle id="connector55pad" cx="97.2" cy="10.8" r="1.8967" stroke-width=".95868" connectorname="SWITCH"/>
   <circle id="connector107pad" cx="61.2" cy="3.6" r="1.9687" stroke-width="1.1027" connectorname="VBUS"/>
   <circle id="connector56pad" cx="104.4" cy="10.8" r="1.8967" stroke-width=".95868" connectorname="IRQ"/>
   <circle id="connector109pad" cx="46.8" cy="3.6" r="1.9687" stroke-width="1.1027" connectorname="VBAT"/>
   <circle id="connector57pad" cx="111.6" cy="10.8" r="1.8967" stroke-width=".95868" connectorname="NEOPIXEL"/>
   <circle id="connector111pad" cx="7.2" cy="57.6" r="4.4716" stroke-width="1.8567" connectorname="P$2"/>
   <circle id="connector58pad" cx="118.8" cy="10.8" r="1.8967" stroke-width=".95868" connectorname="SCL"/>
   <circle id="connector59pad" cx="126" cy="10.8" r="1.8967" stroke-width=".95868" connectorname="SDA"/>
   <circle id="connector60pad" cx="111.6" cy="28.8" r="1.9687" stroke-width="1.1027" connectorname="SWITCH"/>
   <circle id="connector61pad" cx="111.6" cy="36" r="1.9687" stroke-width="1.1027" connectorname="GND"/>
   <circle id="connector62pad" cx="126" cy="54" r="1.8967" stroke-width=".95868" connectorname="G"/>
   <circle id="connector63pad" cx="118.8" cy="54" r="1.8967" stroke-width=".95868" connectorname="TX"/>
   <circle id="connector64pad" cx="111.6" cy="54" r="1.8967" stroke-width=".95868" connectorname="RX"/>
   <circle id="connector65pad" cx="104.4" cy="54" r="1.8967" stroke-width=".95868" connectorname="MISO"/>
   <circle id="connector66pad" cx="97.2" cy="54" r="1.8967" stroke-width=".95868" connectorname="MOSI"/>
   <circle id="connector67pad" cx="90" cy="54" r="1.8967" stroke-width=".95868" connectorname="SCK"/>
   <circle id="connector68pad" cx="82.8" cy="54" r="1.8967" stroke-width=".95868" connectorname="A5"/>
   <circle id="connector69pad" cx="75.6" cy="54" r="1.8967" stroke-width=".95868" connectorname="A4"/>
   <circle id="connector70pad" cx="68.4" cy="54" r="1.8967" stroke-width=".95868" connectorname="A3"/>
   <circle id="connector71pad" cx="61.2" cy="54" r="1.8967" stroke-width=".95868" connectorname="A2"/>
   <circle id="connector72pad" cx="54" cy="54" r="1.8967" stroke-width=".95868" connectorname="A1"/>
   <circle id="connector73pad" cx="46.8" cy="54" r="1.8967" stroke-width=".95868" connectorname="A0"/>
   <circle id="connector74pad" cx="39.6" cy="54" r="1.8967" stroke-width=".95868" connectorname="GND"/>
   <circle id="connector75pad" cx="32.4" cy="54" r="1.8967" stroke-width=".95868" connectorname="AREF"/>
   <circle id="connector76pad" cx="25.2" cy="54" r="1.8967" stroke-width=".95868" connectorname="+3V3"/>
   <circle id="connector77pad" cx="18" cy="54" r="1.8967" stroke-width=".95868" connectorname="RESET"/>
   <circle id="connector78pad" cx="95.76" cy="21.6" r="1.8967" stroke-width=".95868" connectorname="V+"/>
   <circle id="connector79pad" cx="95.76" cy="28.8" r="1.8967" stroke-width=".95868" connectorname="RED"/>
   <circle id="connector80pad" cx="95.76" cy="36" r="1.8967" stroke-width=".95868" connectorname="GREEN"/>
   <circle id="connector81pad" cx="95.76" cy="43.2" r="1.8967" stroke-width=".95868" connectorname="BLUE"/>
   <circle id="connector82pad" cx="18" cy="61.2" r="1.9687" stroke-width="1.1027" connectorname="RESET"/>
   <circle id="connector83pad" cx="25.2" cy="61.2" r="1.9687" stroke-width="1.1027" connectorname="+3V3"/>
   <circle id="connector84pad" cx="32.4" cy="61.2" r="1.9687" stroke-width="1.1027" connectorname="AREF"/>
   <circle id="connector85pad" cx="39.6" cy="61.2" r="1.9687" stroke-width="1.1027" connectorname="GND"/>
   <circle id="connector86pad" cx="46.8" cy="61.2" r="1.9687" stroke-width="1.1027" connectorname="A0"/>
   <circle id="connector87pad" cx="54" cy="61.2" r="1.9687" stroke-width="1.1027" connectorname="A1"/>
   <circle id="connector88pad" cx="61.2" cy="61.2" r="1.9687" stroke-width="1.1027" connectorname="A2"/>
   <circle id="connector89pad" cx="68.4" cy="61.2" r="1.9687" stroke-width="1.1027" connectorname="A3"/>
   <circle id="connector90pad" cx="75.6" cy="61.2" r="1.9687" stroke-width="1.1027" connectorname="A4"/>
   <circle id="connector91pad" cx="82.8" cy="61.2" r="1.9687" stroke-width="1.1027" connectorname="A5"/>
   <circle id="connector92pad" cx="90" cy="61.2" r="1.9687" stroke-width="1.1027" connectorname="SCK"/>
  </g>
 </g>
</svg>
