<?xml version="1.0" encoding="UTF-8"?>
<!-- Created with Fritzing (http://www.fritzing.org/) -->
<svg width="1.3386in" height=".80709in" baseProfile="tiny" version="1.2" viewBox="0 0 96.378 58.11" xmlns="http://www.w3.org/2000/svg">
 <desc>
  <referenceFile>Adafruit OLED Monochrome 128x32 I2C_pcb.svg</referenceFile>
 </desc>
 <desc>Fritzing footprint generated by brd2svg</desc>
 <g id="silkscreen">
  <path d="m0.288 52.209v-46.308a5.3813 5.3813 0 0 1 5.6354-5.6131h84.531a5.3813 5.3813 0 0 1 5.6355 5.6131v46.308a5.3813 5.3813 0 0 1-5.6355 5.6132h-84.531a5.3813 5.3813 0 0 1-5.6354-5.6132m2.126 0.2318a3.2553 3.2553 0 1 0 6.5106 0 3.2553 3.2553 0 1 0-6.5106 0zm0-46.772a3.2553 3.2553 0 1 0 6.5106 0 3.2553 3.2553 0 1 0-6.5106 0zm85.039 0a3.2553 3.2553 0 1 0 6.5106 0 3.2553 3.2553 0 1 0-6.5106 0zm0 46.772a3.2553 3.2553 0 1 0 6.5106 0 3.2553 3.2553 0 1 0-6.5106 0z" fill="none" stroke="#fff" stroke-width=".576"/>
  <g>
   <title>element:LCD1</title>
   <g>
    <title>package:UG-2832HSWEG02_WRAPUNDER</title>
    <line x1="90" x2="4.9606" y1="12.798" y2="12.798" stroke="#fff" stroke-linecap="round" stroke-width=".576"/>
    <line x1="90" x2="90" y1="12.798" y2="44.901" stroke="#fff" stroke-linecap="round" stroke-width=".576"/>
    <line x1="90" x2="4.9606" y1="44.901" y2="44.901" stroke="#fff" stroke-linecap="round" stroke-width=".576"/>
    <line x1="4.9606" x2="4.9606" y1="12.798" y2="44.901" stroke="#fff" stroke-linecap="round" stroke-width=".576"/>
   </g>
  </g>
 </g>
 <g id="copper1">
  <g id="copper0" fill="none" stroke="#F7BD13" stroke-width="1.1027">
   <circle id="connector6pad" cx="58.989" cy="51.721" r="1.9687" connectorname="3.3V"/>
   <circle id="connector9pad" cx="37.389" cy="51.721" r="1.9687" connectorname="SCL"/>
   <circle id="connector10pad" cx="30.189" cy="51.721" r="1.9687" connectorname="SDA"/>
   <circle id="connector7pad" cx="51.789" cy="51.721" r="1.9687" connectorname="GND"/>
   <circle id="connector8pad" cx="44.589" cy="51.721" r="1.9687" connectorname="RESET"/>
   <circle id="connector5pad" cx="66.189" cy="51.721" r="1.9687" connectorname="VIN"/>
   <rect x="64.22" y="49.752" width="3.9373" height="3.9373"/>
  </g>
 </g>
</svg>
