<?xml version="1.0" encoding="UTF-8"?>
<!-- Created with Fritzing (http://www.fritzing.org/) -->
<svg width="2.8273in" height="2.1in" baseProfile="tiny" version="1.2" viewBox="0 0 203.57 151.2" xmlns="http://www.w3.org/2000/svg">
 <desc>
  <referenceFile>Adafruit Metro RP2350_pcb.svg</referenceFile>
 </desc>
 <desc>Fritzing footprint generated by brd2svg</desc>
 <g id="silkscreen">
  <path d="m196.1 36.868 7.179 7.1726v92.526l-7.179 7.172v4.349a2.5466 2.5466 0 0 1-2.827 2.824h-111.69l-3.2306-3.228h-14l-3.2309 3.228h-48.867a2.5466 2.5466 0 0 1-2.8266-2.824v-144.98a2.5466 2.5466 0 0 1 2.8266-2.8238h179.54l4.308 4.3035v32.277m-129.96 106.27a0.98759 0.98759 0 1 0 1.9752 0 0.98759 0.98759 0 1 0-1.9752 0zm8.5038 0a0.98759 0.98759 0 1 0 1.9752 0 0.98759 0.98759 0 1 0-1.9752 0zm-62.412-129.84a1.1293 1.1293 0 1 0 2.2586 0 1.1293 1.1293 0 1 0-2.2586 0zm0 6.5198a1.1293 1.1293 0 1 0 2.2586 0 1.1293 1.1293 0 1 0-2.2586 0zm178.82 12.24a1.1293 1.1293 0 1 0 2.2586 0 1.1293 1.1293 0 1 0-2.2586 0zm0-6.5198a1.1293 1.1293 0 1 0 2.2586 0 1.1293 1.1293 0 1 0-2.2586 0zm-20.942 5.2399a1.1293 1.1293 0 1 0 2.2586 0 1.1293 1.1293 0 1 0-2.2586 0zm8.504 0a1.1293 1.1293 0 1 0 2.2586 0 1.1293 1.1293 0 1 0-2.2586 0zm-154.61 20.612a0.63326 0.63326 0 1 0 1.2665 0 0.63326 0.63326 0 1 0-1.2665 0zm0-16.384a0.63326 0.63326 0 1 0 1.2665 0 0.63326 0.63326 0 1 0-1.2665 0zm168.16 15.392a4.212 4.212 0 1 0 8.424 0 4.212 4.212 0 1 0-8.424 0zm0 79.2a4.212 4.212 0 1 0 8.424 0 4.212 4.212 0 1 0-8.424 0zm-144-122.4a4.212 4.212 0 1 0 8.424 0 4.212 4.212 0 1 0-8.424 0zm-3.6 136.8a4.212 4.212 0 1 0 8.424 0 4.212 4.212 0 1 0-8.424 0z" fill="none" stroke="#fff" stroke-width=".576"/>
  <line x1="124.19" x2="124.19" y1="138.6" y2="143.82" stroke="#fff" stroke-linecap="round" stroke-width="1.152"/>
  <line x1="124.19" x2="124.01" y1="143.82" y2="144" stroke="#fff" stroke-linecap="round" stroke-width="1.152"/>
  <line x1="131.57" x2="131.57" y1="138.24" y2="143.82" stroke="#fff" stroke-linecap="round" stroke-width="1.152"/>
  <line x1="124.19" x2="131.57" y1="138.24" y2="138.24" stroke="#fff" stroke-linecap="round" stroke-width="1.152"/>
  <g>
   <title>polygon</title>
   <path d="m150.83 128.88h38.52l0.9-0.9v1.98h-39.42v-1.08" fill="none" stroke="#fff" stroke-linecap="round" stroke-width=".576"/>
  </g>
  <g>
   <title>polygon</title>
   <path d="m88.907 21.6v-2.16h98.64v0.9h-97.38l-1.26 1.26" fill="none" stroke="#fff" stroke-linecap="round" stroke-width=".576"/>
  </g>
  <g>
   <title>element:AD</title>
   <g>
    <title>package:1X06_OVALWAVE</title>
   </g>
  </g>
  <g>
   <title>element:CN1</title>
   <g>
    <title>package:FPC_22PIN</title>
    <line x1="25.262" x2="25.262" y1="74.922" y2="69.82" stroke="#fff" stroke-linecap="round" stroke-width=".576"/>
    <line x1="25.262" x2="21.861" y1="69.82" y2="69.82" stroke="#fff" stroke-linecap="round" stroke-width=".576"/>
    <line x1="25.262" x2="25.262" y1="109.22" y2="112.62" stroke="#fff" stroke-linecap="round" stroke-width=".576"/>
    <line x1="25.262" x2="21.861" y1="112.62" y2="112.62" stroke="#fff" stroke-linecap="round" stroke-width=".576"/>
   </g>
  </g>
  <g>
   <title>element:IOH</title>
   <g>
    <title>package:1X10_OVALWAVE</title>
   </g>
  </g>
  <g>
   <title>element:IOL</title>
   <g>
    <title>package:1X08_OVALWAVE</title>
   </g>
  </g>
  <g>
   <title>element:L2</title>
   <g>
    <title>package:INDUCTOR_0603S</title>
    <line x1="113.12" x2="116.8" y1="110.68" y2="110.68" stroke="#fff" stroke-linecap="round" stroke-width=".576"/>
    <line x1="116.8" x2="116.8" y1="110.68" y2="130.52" stroke="#fff" stroke-linecap="round" stroke-width=".576"/>
    <line x1="116.8" x2="113.12" y1="130.52" y2="130.52" stroke="#fff" stroke-linecap="round" stroke-width=".576"/>
    <line x1="101.78" x2="98.093" y1="110.68" y2="110.68" stroke="#fff" stroke-linecap="round" stroke-width=".576"/>
    <line x1="98.093" x2="98.093" y1="110.68" y2="130.52" stroke="#fff" stroke-linecap="round" stroke-width=".576"/>
    <line x1="98.093" x2="101.78" y1="130.52" y2="130.52" stroke="#fff" stroke-linecap="round" stroke-width=".576"/>
   </g>
  </g>
  <g>
   <title>element:PC3</title>
   <g>
    <title>package:PANASONIC_D</title>
    <line x1="71.994" x2="65.475" y1="128.19" y2="128.19" stroke="#fff" stroke-linecap="round" stroke-width=".576"/>
    <line x1="65.475" x2="65.475" y1="128.19" y2="114.59" stroke="#fff" stroke-linecap="round" stroke-width=".576"/>
    <line x1="65.475" x2="70.294" y1="114.59" y2="109.77" stroke="#fff" stroke-linecap="round" stroke-width=".576"/>
    <line x1="70.294" x2="71.994" y1="109.77" y2="109.77" stroke="#fff" stroke-linecap="round" stroke-width=".576"/>
    <line x1="77.38" x2="79.081" y1="109.77" y2="109.77" stroke="#fff" stroke-linecap="round" stroke-width=".576"/>
    <line x1="79.081" x2="83.9" y1="109.77" y2="114.59" stroke="#fff" stroke-linecap="round" stroke-width=".576"/>
    <line x1="83.9" x2="83.9" y1="114.59" y2="128.19" stroke="#fff" stroke-linecap="round" stroke-width=".576"/>
    <line x1="83.9" x2="77.38" y1="128.19" y2="128.19" stroke="#fff" stroke-linecap="round" stroke-width=".576"/>
   </g>
  </g>
  <g>
   <title>element:PC4</title>
   <g>
    <title>package:PANASONIC_D</title>
    <line x1="139.7" x2="139.7" y1="124.73" y2="131.25" stroke="#fff" stroke-linecap="round" stroke-width=".576"/>
    <line x1="139.7" x2="126.09" y1="131.25" y2="131.25" stroke="#fff" stroke-linecap="round" stroke-width=".576"/>
    <line x1="126.09" x2="121.28" y1="131.25" y2="126.43" stroke="#fff" stroke-linecap="round" stroke-width=".576"/>
    <line x1="121.28" x2="121.28" y1="126.43" y2="124.73" stroke="#fff" stroke-linecap="round" stroke-width=".576"/>
    <line x1="121.28" x2="121.28" y1="119.35" y2="117.65" stroke="#fff" stroke-linecap="round" stroke-width=".576"/>
    <line x1="121.28" x2="126.09" y1="117.65" y2="112.83" stroke="#fff" stroke-linecap="round" stroke-width=".576"/>
    <line x1="126.09" x2="139.7" y1="112.83" y2="112.83" stroke="#fff" stroke-linecap="round" stroke-width=".576"/>
    <line x1="139.7" x2="139.7" y1="112.83" y2="119.35" stroke="#fff" stroke-linecap="round" stroke-width=".576"/>
   </g>
  </g>
  <g>
   <title>element:PLABEL70</title>
   <g>
    <title>package:PLABEL70</title>
   </g>
  </g>
  <g>
   <title>element:POWER</title>
   <g>
    <title>package:1X08_OVALWAVE</title>
   </g>
  </g>
  <g>
   <title>element:SW1</title>
   <g>
    <title>package:SPDT_SMT_SSSS811101</title>
    <line x1="61.738" x2="61.738" y1="141.72" y2="144.55" stroke="#fff" stroke-linecap="round" stroke-width=".576"/>
    <line x1="81.013" x2="81.013" y1="141.72" y2="144.55" stroke="#fff" stroke-linecap="round" stroke-width=".576"/>
    <line x1="66.556" x2="71.659" y1="139.45" y2="139.45" stroke="#fff" stroke-linecap="round" stroke-width=".576"/>
    <line x1="63.155" x2="79.596" y1="146.82" y2="146.82" stroke="#fff" stroke-linecap="round" stroke-width=".576"/>
   </g>
  </g>
  <g>
   <title>element:SW4</title>
   <g>
    <title>package:EG1390</title>
    <line x1="185.69" x2="165.28" y1="35.741" y2="35.741" stroke="#fff" stroke-linecap="round" stroke-width=".36"/>
    <line x1="165.28" x2="165.28" y1="35.741" y2="25.819" stroke="#fff" stroke-linecap="round" stroke-width=".36"/>
    <line x1="165.28" x2="185.69" y1="25.819" y2="25.819" stroke="#fff" stroke-linecap="round" stroke-width=".36"/>
    <line x1="185.69" x2="185.69" y1="25.819" y2="35.741" stroke="#fff" stroke-linecap="round" stroke-width=".36"/>
    <line x1="179.81" x2="179.81" y1="35.82" y2="32.58" stroke="#fff" stroke-linecap="round" stroke-width=".432"/>
    <line x1="179.81" x2="171.17" y1="32.58" y2="32.58" stroke="#fff" stroke-linecap="round" stroke-width=".432"/>
    <line x1="171.17" x2="171.17" y1="32.58" y2="35.82" stroke="#fff" stroke-linecap="round" stroke-width=".432"/>
   </g>
  </g>
  <g>
   <title>element:U$47</title>
   <g>
    <title>package:METRO_RP2350_TOP</title>
   </g>
  </g>
  <g>
   <title>element:U$71</title>
   <g>
    <title>package:METRO_RP2350_BOT</title>
   </g>
  </g>
  <g>
   <title>element:U3</title>
   <g>
    <title>package:SOIC8_208MIL</title>
    <line x1="168.61" x2="168.61" y1="60.674" y2="71.446" stroke="#fff" stroke-linecap="round" stroke-width=".576"/>
    <line x1="155" x2="155" y1="71.446" y2="60.674" stroke="#fff" stroke-linecap="round" stroke-width=".576"/>
    <circle cx="167.28" cy="63.54" r=".72" fill="none" stroke="#fff" stroke-width=".576"/>
   </g>
  </g>
  <g>
   <title>element:U6</title>
   <g>
    <title>package:SOIC8_208MIL</title>
    <line x1="147.01" x2="147.01" y1="60.674" y2="71.446" stroke="#fff" stroke-linecap="round" stroke-width=".576"/>
    <line x1="133.4" x2="133.4" y1="71.446" y2="60.674" stroke="#fff" stroke-linecap="round" stroke-width=".576"/>
    <circle cx="145.68" cy="63.54" r=".72" fill="none" stroke="#fff" stroke-width=".576"/>
   </g>
  </g>
  <g>
   <title>element:X1</title>
   <g>
    <title>package:MOLEX_104031-0811</title>
    <line x1="167.43" x2="167.43" y1="118.22" y2="120.98" stroke="#fff" stroke-linecap="round" stroke-width=".36"/>
    <line x1="167.43" x2="194.38" y1="120.98" y2="120.98" stroke="#fff" stroke-linecap="round" stroke-width=".36"/>
    <line x1="167.43" x2="167.43" y1="93.96" y2="87.103" stroke="#fff" stroke-linecap="round" stroke-width=".36"/>
    <line x1="167.43" x2="168.82" y1="87.103" y2="87.103" stroke="#fff" stroke-linecap="round" stroke-width=".36"/>
    <line x1="167.43" x2="167.43" y1="101.38" y2="110.88" stroke="#fff" stroke-linecap="round" stroke-width=".36"/>
    <line x1="173.52" x2="179.19" y1="87.103" y2="87.103" stroke="#fff" stroke-linecap="round" stroke-width=".36"/>
    <line x1="184.01" x2="195.78" y1="87.103" y2="87.103" stroke="#fff" stroke-linecap="round" stroke-width=".36"/>
    <circle cx="202.87" cy="95.06" r=".28346" fill="none" stroke="#fff" stroke-width=".56693"/>
   </g>
  </g>
  <g>
   <title>element:X3</title>
   <g>
    <title>package:USB_C_CUSB31-CFM2AX-01-X</title>
    <line x1="18.166" x2="21.993" y1="30.529" y2="30.529" stroke="#fff" stroke-linecap="round" stroke-width=".288"/>
    <line x1="21.993" x2="18.166" y1="55.871" y2="55.871" stroke="#fff" stroke-linecap="round" stroke-width=".288"/>
    <line x1="6.8272" x2="6.8272" y1="55.871" y2="30.529" stroke="#fff" stroke-linecap="round" stroke-width=".288"/>
    <line x1="6.8272" x2="10.654" y1="30.529" y2="30.529" stroke="#fff" stroke-linecap="round" stroke-width=".288"/>
    <line x1="10.654" x2="6.8272" y1="55.871" y2="55.871" stroke="#fff" stroke-linecap="round" stroke-width=".288"/>
   </g>
  </g>
  <g>
   <title>element:X4</title>
   <g>
    <title>package:QFN80</title>
    <line x1="102.9" x2="102.9" y1="56.387" y2="84.733" stroke="#fff" stroke-linecap="round" stroke-width=".432"/>
    <line x1="102.9" x2="74.554" y1="84.733" y2="84.733" stroke="#fff" stroke-linecap="round" stroke-width=".432"/>
    <line x1="74.554" x2="74.554" y1="84.733" y2="56.387" stroke="#fff" stroke-linecap="round" stroke-width=".432"/>
    <line x1="74.554" x2="102.9" y1="56.387" y2="56.387" stroke="#fff" stroke-linecap="round" stroke-width=".432"/>
    <circle cx="101.48" cy="57.804" r=".63384" fill="none" stroke="#fff" stroke-width=".432"/>
   </g>
  </g>
  <g>
   <title>element:X5</title>
   <g>
    <title>package:DCJACK_2MM_PTH</title>
    <line x1="40.263" x2="40.263" y1="142.36" y2="136.4" stroke="#fff" stroke-linecap="round" stroke-width=".576"/>
    <line x1="9.3543" x2="23.811" y1="142.47" y2="142.47" stroke="#fff" stroke-linecap="round" stroke-width=".576"/>
    <line x1="40.263" x2="37.145" y1="142.36" y2="142.36" stroke="#fff" stroke-linecap="round" stroke-width=".576"/>
    <line x1="9.3543" x2="40.252" y1="116.96" y2="116.96" stroke="#fff" stroke-linecap="round" stroke-width=".576"/>
    <line x1="40.252" x2="40.263" y1="116.96" y2="122.23" stroke="#fff" stroke-linecap="round" stroke-width=".576"/>
    <line x1="9.3543" x2="9.3543" y1="116.96" y2="142.47" stroke="#fff" stroke-linecap="round" stroke-width=".576"/>
   </g>
  </g>
  <line x1="7.4041" x2="9.1673" y1="26.481" y2="26.481" fill="none" stroke="#fff" stroke-width=".576"/>
  <line x1="7.4041" x2="9.1673" y1="6.6387" y2="6.6387" fill="none" stroke="#fff" stroke-width=".576"/>
  <line x1="7.4041" x2="7.4041" y1="26.481" y2="6.6387" fill="none" stroke="#fff" stroke-width=".576"/>
  <line x1="6.8272" x2="9.1673" y1="56.844" y2="56.844" fill="none" stroke="#fff" stroke-width=".576"/>
  <line x1="6.8272" x2="9.1673" y1="29.52" y2="29.52" fill="none" stroke="#fff" stroke-width=".576"/>
  <line x1="6.8272" x2="6.8272" y1="56.844" y2="29.52" fill="none" stroke="#fff" stroke-width=".576"/>
  <line x1=".288" x2="9.1673" y1="144.2" y2="144.2" fill="none" stroke="#fff" stroke-width=".576"/>
  <line x1=".288" x2="9.1673" y1="116.96" y2="116.96" fill="none" stroke="#fff" stroke-width=".576"/>
  <line x1=".288" x2=".288" y1="144.2" y2="116.96" fill="none" stroke="#fff" stroke-width=".576"/>
 </g>
 <g id="copper1">
  <g id="copper0">
   <circle id="connector6pad" cx="160.37" cy="144" r="1.6299" fill="none" stroke="#F7BD13" stroke-width=".99212" connectorname="A1"/>
   <path d="m158.74 140.25h3.2598v7.4976h-3.2598v-7.4976m0 3.749a1.6299 1.6299 0 1 0 3.2598 0 1.6299 1.6299 0 1 0-3.2598 0z" fill="#F7BD13" stroke-width="0"/>
   <circle id="connector390pad" cx="21.827" cy="129.6" r="2.5512" fill="none" stroke="#F7BD13" stroke-width="2.5512" connectorname="GND"/>
   <path d="m19.276 123.73h5.1024v11.735h-5.1024v-11.735m0 5.868a2.5512 2.5512 0 1 0 5.1024 0 2.5512 2.5512 0 1 0-5.1024 0z" fill="#F7BD13" stroke-width="0"/>
   <circle id="connector7pad" cx="167.57" cy="144" r="1.6299" fill="none" stroke="#F7BD13" stroke-width=".99212" connectorname="A2"/>
   <path d="m165.94 140.25h3.2598v7.4976h-3.2598v-7.4976m0 3.749a1.6299 1.6299 0 1 0 3.2598 0 1.6299 1.6299 0 1 0-3.2598 0z" fill="#F7BD13" stroke-width="0"/>
   <circle id="connector8pad" cx="174.77" cy="144" r="1.6299" fill="none" stroke="#F7BD13" stroke-width=".99212" connectorname="A3"/>
   <path d="m173.14 140.25h3.2598v7.4976h-3.2598v-7.4976m0 3.749a1.6299 1.6299 0 1 0 3.2598 0 1.6299 1.6299 0 1 0-3.2598 0z" fill="#F7BD13" stroke-width="0"/>
   <circle id="connector9pad" cx="181.97" cy="144" r="1.6299" fill="none" stroke="#F7BD13" stroke-width=".99212" connectorname="A4"/>
   <path d="m180.34 140.25h3.2598v7.4976h-3.2598v-7.4976m0 3.749a1.6299 1.6299 0 1 0 3.2598 0 1.6299 1.6299 0 1 0-3.2598 0z" fill="#F7BD13" stroke-width="0"/>
   <circle id="connector10pad" cx="189.17" cy="144" r="1.6299" fill="none" stroke="#F7BD13" stroke-width=".99212" connectorname="A5"/>
   <path d="m187.54 140.25h3.2598v7.4976h-3.2598v-7.4976m0 3.749a1.6299 1.6299 0 1 0 3.2598 0 1.6299 1.6299 0 1 0-3.2598 0z" fill="#F7BD13" stroke-width="0"/>
   <circle id="connector306pad" cx="26.046" cy="55.446" r="1.2104" fill="none" stroke="#F7BD13" stroke-width=".72" connectorname="M2"/>
   <path d="m23.262 54.235h5.5678v2.4208h-5.5678v-2.4208m1.5735 1.2104a1.2104 1.2104 0 1 0 2.4208 0 1.2104 1.2104 0 1 0-2.4208 0z" fill="#F7BD13" stroke-width="0"/>
   <circle id="connector308pad" cx="14.197" cy="55.446" r="1.2104" fill="none" stroke="#F7BD13" stroke-width=".72" connectorname="M4"/>
   <path d="m11.413 54.235h5.5678v2.4208h-5.5678v-2.4208m1.5735 1.2104a1.2104 1.2104 0 1 0 2.4208 0 1.2104 1.2104 0 1 0-2.4208 0z" fill="#F7BD13" stroke-width="0"/>
   <g transform="matrix(0 1 -1 0 51.506 -22.133)">
    <rect id="connector101pad" x="34.622" y="13.836" width="4.3937" height="1.7008" fill="#F7BD13" stroke-width="0"/>
   </g>
   <g transform="matrix(0 1 -1 0 48.671 -19.298)">
    <rect id="connector102pad" x="31.788" y="13.836" width="4.3937" height="1.7008" fill="#F7BD13" stroke-width="0"/>
   </g>
   <g transform="matrix(0 1 -1 0 45.836 -16.464)">
    <rect id="connector103pad" x="28.953" y="13.836" width="4.3937" height="1.7008" fill="#F7BD13" stroke-width="0"/>
   </g>
   <g transform="matrix(0 1 -1 0 43.002 -13.629)">
    <rect id="connector104pad" x="26.118" y="13.836" width="4.3937" height="1.7008" fill="#F7BD13" stroke-width="0"/>
   </g>
   <g transform="matrix(0 1 -1 0 252.02 -47.021)">
    <rect id="connector113pad" x="147.32" y="101.65" width="4.3937" height="1.7008" fill="#F7BD13" stroke-width="0"/>
   </g>
   <g transform="matrix(0 1 -1 0 249.19 -44.186)">
    <rect id="connector114pad" x="144.49" y="101.65" width="4.3937" height="1.7008" fill="#F7BD13" stroke-width="0"/>
   </g>
   <g transform="matrix(0 1 -1 0 246.35 -41.352)">
    <rect id="connector115pad" x="141.66" y="101.65" width="4.3937" height="1.7008" fill="#F7BD13" stroke-width="0"/>
   </g>
   <circle id="connector127pad" cx="188.81" cy="64.8" r="1.8978" fill="none" stroke="#F7BD13" stroke-width="1.2444" connectorname="MISO"/>
   <circle id="connector128pad" cx="196.01" cy="64.8" r="1.8978" fill="none" stroke="#F7BD13" stroke-width="1.2444" connectorname="+5V"/>
   <circle id="connector129pad" cx="188.81" cy="72" r="1.8978" fill="none" stroke="#F7BD13" stroke-width="1.2444" connectorname="SCK"/>
   <circle id="connector130pad" cx="196.01" cy="72" r="1.8978" fill="none" stroke="#F7BD13" stroke-width="1.2444" connectorname="MOSI"/>
   <circle id="connector131pad" cx="188.81" cy="79.2" r="1.8978" fill="none" stroke="#F7BD13" stroke-width="1.2444" connectorname="!RESET"/>
   <circle id="connector132pad" cx="196.01" cy="79.2" r="1.8978" fill="none" stroke="#F7BD13" stroke-width="1.2444" connectorname="GND"/>
   <circle id="connector133pad" cx="62.447" cy="7.2" r="1.6299" fill="none" stroke="#F7BD13" stroke-width=".99212" connectorname="SCL"/>
   <path d="m60.817 3.4512h3.2598v7.4976h-3.2598v-7.4976m0 3.7488a1.6299 1.6299 0 1 0 3.2598 0 1.6299 1.6299 0 1 0-3.2598 0z" fill="#F7BD13" stroke-width="0"/>
   <circle id="connector134pad" cx="69.647" cy="7.2" r="1.6299" fill="none" stroke="#F7BD13" stroke-width=".99212" connectorname="SDA"/>
   <path d="m68.017 3.4512h3.2598v7.4976h-3.2598v-7.4976m0 3.7488a1.6299 1.6299 0 1 0 3.2598 0 1.6299 1.6299 0 1 0-3.2598 0z" fill="#F7BD13" stroke-width="0"/>
   <circle id="connector135pad" cx="76.847" cy="7.2" r="1.6299" fill="none" stroke="#F7BD13" stroke-width=".99212" connectorname="3.3V"/>
   <path d="m75.218 3.4512h3.2598v7.4976h-3.2598v-7.4976m0 3.7488a1.6299 1.6299 0 1 0 3.2598 0 1.6299 1.6299 0 1 0-3.2598 0z" fill="#F7BD13" stroke-width="0"/>
   <circle id="connector136pad" cx="84.047" cy="7.2" r="1.6299" fill="none" stroke="#F7BD13" stroke-width=".99212" connectorname="GND"/>
   <path d="m82.418 3.4512h3.2598v7.4976h-3.2598v-7.4976m0 3.7488a1.6299 1.6299 0 1 0 3.2598 0 1.6299 1.6299 0 1 0-3.2598 0z" fill="#F7BD13" stroke-width="0"/>
   <circle id="connector137pad" cx="91.247" cy="7.2" r="1.6299" fill="none" stroke="#F7BD13" stroke-width=".99212" connectorname="D23"/>
   <path d="m89.618 3.4512h3.2598v7.4976h-3.2598v-7.4976m0 3.7488a1.6299 1.6299 0 1 0 3.2598 0 1.6299 1.6299 0 1 0-3.2598 0z" fill="#F7BD13" stroke-width="0"/>
   <circle id="connector138pad" cx="98.447" cy="7.2" r="1.6299" fill="none" stroke="#F7BD13" stroke-width=".99212" connectorname="D22"/>
   <path d="m96.818 3.4512h3.2598v7.4976h-3.2598v-7.4976m0 3.7488a1.6299 1.6299 0 1 0 3.2598 0 1.6299 1.6299 0 1 0-3.2598 0z" fill="#F7BD13" stroke-width="0"/>
   <circle id="connector139pad" cx="105.65" cy="7.2" r="1.6299" fill="none" stroke="#F7BD13" stroke-width=".99212" connectorname="D11"/>
   <path d="m104.02 3.4512h3.2598v7.4976h-3.2598v-7.4976m0 3.7488a1.6299 1.6299 0 1 0 3.2598 0 1.6299 1.6299 0 1 0-3.2598 0z" fill="#F7BD13" stroke-width="0"/>
   <circle id="connector140pad" cx="112.85" cy="7.2" r="1.6299" fill="none" stroke="#F7BD13" stroke-width=".99212" connectorname="D10"/>
   <path d="m111.22 3.4512h3.2598v7.4976h-3.2598v-7.4976m0 3.7488a1.6299 1.6299 0 1 0 3.2598 0 1.6299 1.6299 0 1 0-3.2598 0z" fill="#F7BD13" stroke-width="0"/>
   <circle id="connector141pad" cx="120.05" cy="7.2" r="1.6299" fill="none" stroke="#F7BD13" stroke-width=".99212" connectorname="D9"/>
   <path d="m118.42 3.4512h3.2598v7.4976h-3.2598v-7.4976m0 3.7488a1.6299 1.6299 0 1 0 3.2598 0 1.6299 1.6299 0 1 0-3.2598 0z" fill="#F7BD13" stroke-width="0"/>
   <circle id="connector142pad" cx="127.25" cy="7.2" r="1.6299" fill="none" stroke="#F7BD13" stroke-width=".99212" connectorname="D8"/>
   <path d="m125.62 3.4512h3.2598v7.4976h-3.2598v-7.4976m0 3.7488a1.6299 1.6299 0 1 0 3.2598 0 1.6299 1.6299 0 1 0-3.2598 0z" fill="#F7BD13" stroke-width="0"/>
   <circle id="connector143pad" cx="138.77" cy="7.2" r="1.6299" fill="none" stroke="#F7BD13" stroke-width=".99212" connectorname="D7"/>
   <path d="m137.14 3.4512h3.2598v7.4976h-3.2598v-7.4976m0 3.7488a1.6299 1.6299 0 1 0 3.2598 0 1.6299 1.6299 0 1 0-3.2598 0z" fill="#F7BD13" stroke-width="0"/>
   <circle id="connector144pad" cx="145.97" cy="7.2" r="1.6299" fill="none" stroke="#F7BD13" stroke-width=".99212" connectorname="D6"/>
   <path d="m144.34 3.4512h3.2598v7.4976h-3.2598v-7.4976m0 3.7488a1.6299 1.6299 0 1 0 3.2598 0 1.6299 1.6299 0 1 0-3.2598 0z" fill="#F7BD13" stroke-width="0"/>
   <circle id="connector145pad" cx="153.17" cy="7.2" r="1.6299" fill="none" stroke="#F7BD13" stroke-width=".99212" connectorname="D5"/>
   <path d="m151.54 3.4512h3.2598v7.4976h-3.2598v-7.4976m0 3.7488a1.6299 1.6299 0 1 0 3.2598 0 1.6299 1.6299 0 1 0-3.2598 0z" fill="#F7BD13" stroke-width="0"/>
   <circle id="connector146pad" cx="160.37" cy="7.2" r="1.6299" fill="none" stroke="#F7BD13" stroke-width=".99212" connectorname="D4"/>
   <path d="m158.74 3.4512h3.2598v7.4976h-3.2598v-7.4976m0 3.7488a1.6299 1.6299 0 1 0 3.2598 0 1.6299 1.6299 0 1 0-3.2598 0z" fill="#F7BD13" stroke-width="0"/>
   <circle id="connector147pad" cx="167.57" cy="7.2" r="1.6299" fill="none" stroke="#F7BD13" stroke-width=".99212" connectorname="D3"/>
   <path d="m165.94 3.4512h3.2598v7.4976h-3.2598v-7.4976m0 3.7488a1.6299 1.6299 0 1 0 3.2598 0 1.6299 1.6299 0 1 0-3.2598 0z" fill="#F7BD13" stroke-width="0"/>
   <circle id="connector148pad" cx="174.77" cy="7.2" r="1.6299" fill="none" stroke="#F7BD13" stroke-width=".99212" connectorname="D2"/>
   <path d="m173.14 3.4512h3.2598v7.4976h-3.2598v-7.4976m0 3.7488a1.6299 1.6299 0 1 0 3.2598 0 1.6299 1.6299 0 1 0-3.2598 0z" fill="#F7BD13" stroke-width="0"/>
   <circle id="connector149pad" cx="181.97" cy="7.2" r="1.6299" fill="none" stroke="#F7BD13" stroke-width=".99212" connectorname="TXD"/>
   <path d="m180.34 3.4512h3.2598v7.4976h-3.2598v-7.4976m0 3.7488a1.6299 1.6299 0 1 0 3.2598 0 1.6299 1.6299 0 1 0-3.2598 0z" fill="#F7BD13" stroke-width="0"/>
   <circle id="connector150pad" cx="189.17" cy="7.2" r="1.6299" fill="none" stroke="#F7BD13" stroke-width=".99212" connectorname="RXD"/>
   <path d="m187.54 3.4512h3.2598v7.4976h-3.2598v-7.4976m0 3.7488a1.6299 1.6299 0 1 0 3.2598 0 1.6299 1.6299 0 1 0-3.2598 0z" fill="#F7BD13" stroke-width="0"/>
   <circle id="connector151pad" cx="59.207" cy="130.75" r="1.8967" fill="none" stroke="#F7BD13" stroke-width=".95868" connectorname="PWR_SWITCH"/>
   <circle id="connector152pad" cx="59.567" cy="104.4" r="1.9687" fill="none" stroke="#F7BD13" stroke-width="1.1027" connectorname="1"/>
   <circle id="connector153pad" cx="59.567" cy="97.2" r="1.9687" fill="none" stroke="#F7BD13" stroke-width="1.1027" connectorname="USBH_D-"/>
   <circle id="connector154pad" cx="59.567" cy="90" r="1.9687" fill="none" stroke="#F7BD13" stroke-width="1.1027" connectorname="USBH_D+"/>
   <circle id="connector305pad" cx="26.046" cy="30.954" r="1.2104" fill="none" stroke="#F7BD13" stroke-width=".72" connectorname="M1"/>
   <path d="m23.262 29.744h5.5678v2.4208h-5.5678v-2.4208m1.5735 1.2104a1.2104 1.2104 0 1 0 2.4208 0 1.2104 1.2104 0 1 0-2.4208 0z" fill="#F7BD13" stroke-width="0"/>
   <circle id="connector155pad" cx="59.567" cy="82.8" r="1.9687" fill="none" stroke="#F7BD13" stroke-width="1.1027" connectorname="GND"/>
   <circle id="connector307pad" cx="14.197" cy="30.954" r="1.2104" fill="none" stroke="#F7BD13" stroke-width=".72" connectorname="M3"/>
   <path d="m11.413 29.744h5.5678v2.4208h-5.5678v-2.4208m1.5735 1.2104a1.2104 1.2104 0 1 0 2.4208 0 1.2104 1.2104 0 1 0-2.4208 0z" fill="#F7BD13" stroke-width="0"/>
   <circle id="connector172pad" cx="88.367" cy="144" r="1.6299" fill="none" stroke="#F7BD13" stroke-width=".99212" connectorname="1"/>
   <path d="m86.738 140.25h3.2598v7.4976h-3.2598v-7.4976m0 3.749a1.6299 1.6299 0 1 0 3.2598 0 1.6299 1.6299 0 1 0-3.2598 0z" fill="#F7BD13" stroke-width="0"/>
   <circle id="connector173pad" cx="95.567" cy="144" r="1.6299" fill="none" stroke="#F7BD13" stroke-width=".99212" connectorname="3.3V"/>
   <path d="m93.938 140.25h3.2598v7.4976h-3.2598v-7.4976m0 3.749a1.6299 1.6299 0 1 0 3.2598 0 1.6299 1.6299 0 1 0-3.2598 0z" fill="#F7BD13" stroke-width="0"/>
   <circle id="connector174pad" cx="102.77" cy="144" r="1.6299" fill="none" stroke="#F7BD13" stroke-width=".99212" connectorname="!RESET"/>
   <path d="m101.14 140.25h3.2598v7.4976h-3.2598v-7.4976m0 3.749a1.6299 1.6299 0 1 0 3.2598 0 1.6299 1.6299 0 1 0-3.2598 0z" fill="#F7BD13" stroke-width="0"/>
   <circle id="connector175pad" cx="109.97" cy="144" r="1.6299" fill="none" stroke="#F7BD13" stroke-width=".99212" connectorname="3.3V"/>
   <path d="m108.34 140.25h3.2598v7.4976h-3.2598v-7.4976m0 3.749a1.6299 1.6299 0 1 0 3.2598 0 1.6299 1.6299 0 1 0-3.2598 0z" fill="#F7BD13" stroke-width="0"/>
   <circle id="connector176pad" cx="117.17" cy="144" r="1.6299" fill="none" stroke="#F7BD13" stroke-width=".99212" connectorname="+5V"/>
   <path d="m115.54 140.25h3.2598v7.4976h-3.2598v-7.4976m0 3.749a1.6299 1.6299 0 1 0 3.2598 0 1.6299 1.6299 0 1 0-3.2598 0z" fill="#F7BD13" stroke-width="0"/>
   <circle id="connector177pad" cx="124.37" cy="144" r="1.6299" fill="none" stroke="#F7BD13" stroke-width=".99212" connectorname="GND"/>
   <path d="m122.74 140.25h3.2598v7.4976h-3.2598v-7.4976m0 3.749a1.6299 1.6299 0 1 0 3.2598 0 1.6299 1.6299 0 1 0-3.2598 0z" fill="#F7BD13" stroke-width="0"/>
   <circle id="connector178pad" cx="131.57" cy="144" r="1.6299" fill="none" stroke="#F7BD13" stroke-width=".99212" connectorname="GND"/>
   <path d="m129.94 140.25h3.2598v7.4976h-3.2598v-7.4976m0 3.749a1.6299 1.6299 0 1 0 3.2598 0 1.6299 1.6299 0 1 0-3.2598 0z" fill="#F7BD13" stroke-width="0"/>
   <circle id="connector179pad" cx="138.77" cy="144" r="1.6299" fill="none" stroke="#F7BD13" stroke-width=".99212" connectorname="VIN"/>
   <path d="m137.14 140.25h3.2598v7.4976h-3.2598v-7.4976m0 3.749a1.6299 1.6299 0 1 0 3.2598 0 1.6299 1.6299 0 1 0-3.2598 0z" fill="#F7BD13" stroke-width="0"/>
   <circle id="connector391pad" cx="30.047" cy="142.92" r="2.5512" fill="none" stroke="#F7BD13" stroke-width="2.5512" connectorname="GND"/>
   <path d="m24.18 140.37h11.735v5.1024h-11.735v-5.1024m3.3166 2.551a2.5512 2.5512 0 1 0 5.1024 0 2.5512 2.5512 0 1 0-5.1024 0z" fill="#F7BD13" stroke-width="0"/>
   <circle id="connector5pad" cx="153.17" cy="144" r="1.6299" fill="none" stroke="#F7BD13" stroke-width=".99212" connectorname="A0"/>
   <path d="m151.54 140.25h3.2598v7.4976h-3.2598v-7.4976m0 3.749a1.6299 1.6299 0 1 0 3.2598 0 1.6299 1.6299 0 1 0-3.2598 0z" fill="#F7BD13" stroke-width="0"/>
  </g>
 </g>
</svg>
