<?xml version="1.0" encoding="UTF-8"?>
<!-- Created with Fritzing (http://www.fritzing.org/) -->
<svg width="1in" height=".7in" baseProfile="tiny" version="1.2" viewBox="0 0 72 50.4" xmlns="http://www.w3.org/2000/svg">
 <desc>
  <referenceFile>Adafruit STEMMA QT Booster Breakout_pcb.svg</referenceFile>
 </desc>
 <desc>Fritzing footprint generated by brd2svg</desc>
 <g id="silkscreen">
  <path d="m71.712 42.994a6.912 6.912 0 0 1-7.1424 7.1177h-57.139a6.912 6.912 0 0 1-7.1424-7.1177v-35.589a6.912 6.912 0 0 1 7.1424-7.1177h57.139a6.912 6.912 0 0 1 7.1424 7.1177v35.589" fill="none" stroke="#fff" stroke-width=".576"/>
  <line x1="57.6" x2="57.6" y1="49.68" y2="46.8" stroke="#fff" stroke-linecap="round" stroke-width="1.44"/>
  <line x1="57.6" x2="57.6" y1="43.92" y2="41.04" stroke="#fff" stroke-linecap="round" stroke-width="1.44"/>
  <line x1="57.6" x2="57.6" y1="38.16" y2="35.28" stroke="#fff" stroke-linecap="round" stroke-width="1.44"/>
  <line x1="57.6" x2="54.72" y1="35.28" y2="32.04" stroke="#fff" stroke-linecap="round" stroke-width="1.44"/>
  <line x1="54.72" x2="51.12" y1="32.04" y2="32.04" stroke="#fff" stroke-linecap="round" stroke-width="1.44"/>
  <line x1="48.24" x2="44.64" y1="32.04" y2="32.04" stroke="#fff" stroke-linecap="round" stroke-width="1.44"/>
  <line x1="44.64" x2="41.805" y1="32.04" y2="29.378" stroke="#fff" stroke-linecap="round" stroke-width="1.44"/>
  <line x1="39.705" x2="36.87" y1="27.407" y2="24.746" stroke="#fff" stroke-linecap="round" stroke-width="1.44"/>
  <line x1="34.77" x2="31.935" y1="22.774" y2="20.113" stroke="#fff" stroke-linecap="round" stroke-width="1.44"/>
  <line x1="29.835" x2="27" y1="18.142" y2="15.48" stroke="#fff" stroke-linecap="round" stroke-width="1.44"/>
  <line x1="27" x2="23.04" y1="15.48" y2="15.48" stroke="#fff" stroke-linecap="round" stroke-width="1.44"/>
  <line x1="20.16" x2="16.2" y1="15.48" y2="15.48" stroke="#fff" stroke-linecap="round" stroke-width="1.44"/>
  <line x1="16.2" x2="14.04" y1="15.48" y2="13.32" stroke="#fff" stroke-linecap="round" stroke-width="1.44"/>
  <line x1="14.04" x2="14.04" y1="13.32" y2="8.46" stroke="#fff" stroke-linecap="round" stroke-width="1.44"/>
  <line x1="14.04" x2="14.04" y1="5.58" y2=".72" stroke="#fff" stroke-linecap="round" stroke-width="1.44"/>
  <line x1="31.32" x2="41.04" y1="32.76" y2="32.76" stroke="#fff" stroke-linecap="round" stroke-width="1.44"/>
  <line x1="41.04" x2="38.52" y1="32.76" y2="30.6" stroke="#fff" stroke-linecap="round" stroke-width="1.44"/>
  <line x1="38.52" x2="38.52" y1="30.6" y2="34.92" stroke="#fff" stroke-linecap="round" stroke-width="1.44"/>
  <line x1="38.52" x2="41.04" y1="34.92" y2="32.76" stroke="#fff" stroke-linecap="round" stroke-width="1.44"/>
  <line x1="31.68" x2="41.04" y1="18" y2="18" stroke="#fff" stroke-linecap="round" stroke-width="1.44"/>
  <line x1="41.04" x2="38.52" y1="18" y2="15.84" stroke="#fff" stroke-linecap="round" stroke-width="1.44"/>
  <line x1="38.52" x2="38.52" y1="15.84" y2="20.16" stroke="#fff" stroke-linecap="round" stroke-width="1.44"/>
  <line x1="38.52" x2="41.04" y1="20.16" y2="18" stroke="#fff" stroke-linecap="round" stroke-width="1.44"/>
  <g>
   <title>element:CONN3</title>
   <g>
    <title>package:JST_SH4</title>
    <line x1="65.534" x2="58.164" y1="33.704" y2="33.704" stroke="#fff" stroke-linecap="round" stroke-width=".432"/>
    <line x1="58.164" x2="58.164" y1="33.704" y2="30.586" stroke="#fff" stroke-linecap="round" stroke-width=".432"/>
    <line x1="58.164" x2="58.164" y1="19.814" y2="16.413" stroke="#fff" stroke-linecap="round" stroke-width=".432"/>
    <line x1="58.164" x2="65.534" y1="16.413" y2="16.413" stroke="#fff" stroke-linecap="round" stroke-width=".432"/>
    <line x1="70.353" x2="70.353" y1="31.153" y2="19.247" stroke="#fff" stroke-linecap="round" stroke-width=".432"/>
   </g>
  </g>
  <g>
   <title>element:CONN4</title>
   <g>
    <title>package:JST_SH4</title>
    <line x1="6.4658" x2="13.836" y1="16.696" y2="16.696" stroke="#fff" stroke-linecap="round" stroke-width=".432"/>
    <line x1="13.836" x2="13.836" y1="16.696" y2="19.814" stroke="#fff" stroke-linecap="round" stroke-width=".432"/>
    <line x1="13.836" x2="13.836" y1="30.586" y2="33.987" stroke="#fff" stroke-linecap="round" stroke-width=".432"/>
    <line x1="13.836" x2="6.4658" y1="33.987" y2="33.987" stroke="#fff" stroke-linecap="round" stroke-width=".432"/>
    <line x1="1.6469" x2="1.6469" y1="19.247" y2="31.153" stroke="#fff" stroke-linecap="round" stroke-width=".432"/>
   </g>
  </g>
  <g>
   <title>element:PLABEL14</title>
   <g>
    <title>package:PLABEL14</title>
   </g>
  </g>
  <g>
   <title>element:U$30</title>
   <g>
    <title>package:STEMMAQT</title>
   </g>
  </g>
  <g>
   <title>element:U$31</title>
   <g>
    <title>package:STEMMAQT</title>
   </g>
  </g>
 </g>
 <g id="copper1">
  <g id="copper0">
   <circle id="connector38pad" cx="28.8" cy="7.2" r="2.0767" fill="none" stroke="#F7BD13" stroke-width="1.3187" connectorname="SCL_5V"/>
   <circle id="connector62pad" cx="7.2" cy="43.2" r="4.2633" fill="none" stroke="#F7BD13" stroke-width="1.44" connectorname="P$1"/>
   <circle id="connector42pad" cx="36" cy="43.2" r="2.0767" fill="none" stroke="#F7BD13" stroke-width="1.3187" connectorname="GND"/>
   <circle id="connector36pad" cx="43.2" cy="7.2" r="2.0767" fill="none" stroke="#F7BD13" stroke-width="1.3187" connectorname="5.0V"/>
   <g transform="matrix(-1 0 0 -1 114.63 58.904)">
    <rect id="connector13pad" x="55.117" y="28.602" width="4.3937" height="1.7008" fill="#F7BD13" stroke-width="0"/>
   </g>
   <circle id="connector40pad" cx="21.6" cy="43.2" r="2.0767" fill="none" stroke="#F7BD13" stroke-width="1.3187" connectorname="VCC"/>
   <g transform="matrix(-1 0 0 -1 114.63 53.235)">
    <rect id="connector14pad" x="55.117" y="25.767" width="4.3937" height="1.7008" fill="#F7BD13" stroke-width="0"/>
   </g>
   <circle id="connector44pad" cx="50.4" cy="43.2" r="2.0767" fill="none" stroke="#F7BD13" stroke-width="1.3187" connectorname="SDA_LV"/>
   <g transform="matrix(-1 0 0 -1 114.63 47.565)">
    <rect id="connector15pad" x="55.117" y="22.932" width="4.3937" height="1.7008" fill="#F7BD13" stroke-width="0"/>
   </g>
   <g transform="matrix(-1 0 0 -1 114.63 41.896)">
    <rect id="connector16pad" x="55.117" y="20.098" width="4.3937" height="1.7008" fill="#F7BD13" stroke-width="0"/>
   </g>
   <rect id="connector19pad" x="12.49" y="20.098" width="4.3937" height="1.7008" fill="#F7BD13" stroke-width="0"/>
   <circle id="connector64pad" cx="7.2" cy="7.2" r="4.2633" fill="none" stroke="#F7BD13" stroke-width="1.44" connectorname="P$1"/>
   <rect id="connector20pad" x="12.49" y="22.932" width="4.3937" height="1.7008" fill="#F7BD13" stroke-width="0"/>
   <circle id="connector37pad" cx="36" cy="7.2" r="2.0767" fill="none" stroke="#F7BD13" stroke-width="1.3187" connectorname="GND"/>
   <rect id="connector21pad" x="12.49" y="25.767" width="4.3937" height="1.7008" fill="#F7BD13" stroke-width="0"/>
   <circle id="connector39pad" cx="21.6" cy="7.2" r="2.0767" fill="none" stroke="#F7BD13" stroke-width="1.3187" connectorname="SDA_5V"/>
   <rect id="connector22pad" x="12.49" y="28.602" width="4.3937" height="1.7008" fill="#F7BD13" stroke-width="0"/>
   <circle id="connector41pad" cx="28.8" cy="43.2" r="2.0767" fill="none" stroke="#F7BD13" stroke-width="1.3187" connectorname="5.0V"/>
   <circle id="connector43pad" cx="43.2" cy="43.2" r="2.0767" fill="none" stroke="#F7BD13" stroke-width="1.3187" connectorname="SCL_LV"/>
   <circle id="connector61pad" cx="64.8" cy="43.2" r="4.2633" fill="none" stroke="#F7BD13" stroke-width="1.44" connectorname="P$1"/>
   <circle id="connector63pad" cx="64.8" cy="7.2" r="4.2633" fill="none" stroke="#F7BD13" stroke-width="1.44" connectorname="P$1"/>
   <circle id="connector35pad" cx="50.4" cy="7.2" r="2.0767" fill="none" stroke="#F7BD13" stroke-width="1.3187" connectorname="VCC"/>
  </g>
 </g>
</svg>
