<?xml version="1.0" encoding="UTF-8"?>
<!-- Created with Fritzing (http://www.fritzing.org/) -->
<svg width="1.5985in" height="1.0001in" version="1.2" viewBox="0 0 115.09 72.01" xmlns="http://www.w3.org/2000/svg">
 <desc>
  <referenceFile>Adafruit UDA1334 I2S DAC_pcb.svg</referenceFile>
 </desc>
 <metadata>
  <rdf:RDF xmlns:rdf="http://www.w3.org/1999/02/22-rdf-syntax-ns#">
   <cc:Work rdf:about="" xmlns:cc="http://creativecommons.org/ns#" xmlns:rdf="http://www.w3.org/1999/02/22-rdf-syntax-ns#">
    <dc:format xmlns:dc="http://purl.org/dc/elements/1.1/">image/svg+xml</dc:format>
    <dc:type rdf:resource="http://purl.org/dc/dcmitype/StillImage" xmlns:dc="http://purl.org/dc/elements/1.1/" xmlns:rdf="http://www.w3.org/1999/02/22-rdf-syntax-ns#"/>
    <dc:title xmlns:dc="http://purl.org/dc/elements/1.1/"/>
   </cc:Work>
  </rdf:RDF>
 </metadata>
 <desc>Fritzing footprint generated by brd2svg</desc>
 <g transform="translate(.004084 .0048276)">
  <g id="silkscreen">
   <path d="m7.452 0.288h93.131a6.912 6.912 0 0 1 7.164 7.1424v57.139a6.912 6.912 0 0 1-7.164 7.1424h-93.131a6.912 6.912 0 0 1-7.164-7.1424v-57.139a6.912 6.912 0 0 1 7.164-7.1424m88.08 35.712a2.5466 2.5466 0 1 0 5.0933 0 2.5466 2.5466 0 1 0-5.0933 0zm-19.842 0a2.5466 2.5466 0 1 0 5.0933 0 2.5466 2.5466 0 1 0-5.0933 0z" fill="none" stroke="#fff" stroke-width=".576"/>
   <g>
    <title>element:JP3</title>
    <g>
     <title>package:1X09_ROUND_70</title>
    </g>
   </g>
   <g>
    <title>element:U1</title>
    <g>
     <title>package:SSOP16_4.4MM</title>
     <line x1="18.731" x2="18.731" y1="26.544" y2="42.576" stroke="#fff" stroke-linecap="round" stroke-width=".576"/>
     <line x1="18.731" x2="33.109" y1="42.576" y2="42.576" stroke="#fff" stroke-linecap="round" stroke-width=".576"/>
     <line x1="33.109" x2="33.109" y1="42.576" y2="26.544" stroke="#fff" stroke-linecap="round" stroke-width=".576"/>
     <line x1="18.731" x2="33.109" y1="26.544" y2="26.544" stroke="#fff" stroke-linecap="round" stroke-width=".576"/>
     <line x1="19.44" x2="19.44" y1="27.264" y2="41.856" stroke="#fff" stroke-linecap="round" stroke-width=".144"/>
     <line x1="32.4" x2="19.44" y1="41.856" y2="41.856" stroke="#fff" stroke-linecap="round" stroke-width=".144"/>
     <line x1="32.4" x2="32.4" y1="41.856" y2="27.264" stroke="#fff" stroke-linecap="round" stroke-width=".144"/>
     <line x1="19.44" x2="32.4" y1="27.264" y2="27.264" stroke="#fff" stroke-linecap="round" stroke-width=".144"/>
     <circle cx="21.96" cy="30.073" r="1.8" fill="none" stroke="#fff" stroke-width=".576"/>
    </g>
   </g>
   <g>
    <title>element:X2</title>
    <g>
     <title>package:4UCONN_19269</title>
     <line x1="108" x2="108" y1="44.504" y2="27.496" stroke="#fff" stroke-linecap="round" stroke-width=".576"/>
     <line x1="108" x2="106.3" y1="44.504" y2="44.504" stroke="#fff" stroke-linecap="round" stroke-width=".576"/>
     <line x1="101.2" x2="99.496" y1="44.504" y2="44.504" stroke="#fff" stroke-linecap="round" stroke-width=".576"/>
     <line x1="66.898" x2="91.984" y1="44.504" y2="44.504" stroke="#fff" stroke-linecap="round" stroke-width=".576"/>
     <line x1="107.86" x2="104.74" y1="27.496" y2="27.496" stroke="#fff" stroke-linecap="round" stroke-width=".576"/>
     <line x1="97.087" x2="78.661" y1="27.496" y2="27.496" stroke="#fff" stroke-linecap="round" stroke-width=".576"/>
     <line x1="66.898" x2="71.15" y1="27.496" y2="27.496" stroke="#fff" stroke-linecap="round" stroke-width=".576"/>
     <line x1="66.898" x2="66.898" y1="44.504" y2="41.953" stroke="#fff" stroke-linecap="round" stroke-width=".576"/>
     <line x1="66.898" x2="66.898" y1="27.496" y2="34.299" stroke="#fff" stroke-linecap="round" stroke-width=".576"/>
    </g>
   </g>
   <line x1="108" x2="114.8" y1="48.472" y2="48.472" fill="none" stroke="#fff" stroke-width=".576"/>
   <line x1="108" x2="114.8" y1="23.386" y2="23.386" fill="none" stroke="#fff" stroke-width=".576"/>
   <line x1="114.8" x2="114.8" y1="48.472" y2="23.386" fill="none" stroke="#fff" stroke-width=".576"/>
  </g>
  <g id="copper1">
   <g id="copper0" fill="none" stroke="#f7bd13">
    <circle id="connector70pad" cx="7.2" cy="64.8" r="4.2633" stroke-width="1.44" connectorname="P$1"/>
    <circle id="connector72pad" cx="7.2" cy="7.2" r="4.2633" stroke-width="1.44" connectorname="P$1"/>
    <circle id="connector35pad" cx="28.8" cy="7.2" r="1.9687" stroke-width="1.1027" connectorname="SYSCLK_IN"/>
    <circle id="connector36pad" cx="36" cy="7.2" r="1.9687" stroke-width="1.1027" connectorname="SFOR1"/>
    <circle id="connector37pad" cx="43.2" cy="7.2" r="1.9687" stroke-width="1.1027" connectorname="MUTE"/>
    <circle id="connector71pad" cx="100.8" cy="64.8" r="4.2633" stroke-width="1.44" connectorname="P$1"/>
    <circle id="connector38pad" cx="50.4" cy="7.2" r="1.9687" stroke-width="1.1027" connectorname="SFOR0"/>
    <circle id="connector73pad" cx="100.8" cy="7.2" r="4.2633" stroke-width="1.44" connectorname="P$1"/>
    <circle id="connector39pad" cx="57.6" cy="7.2" r="1.9687" stroke-width="1.1027" connectorname="PLL_IN"/>
    <circle id="connector40pad" cx="64.8" cy="7.2" r="1.9687" stroke-width="1.1027" connectorname="DEEM/CLKOUT"/>
    <circle id="connector41pad" cx="21.6" cy="64.8" r="1.9687" stroke-width="1.1027" connectorname="VIN"/>
    <circle id="connector42pad" cx="28.8" cy="64.8" r="1.9687" stroke-width="1.1027" connectorname="3.3V"/>
    <circle id="connector43pad" cx="36" cy="64.8" r="1.9687" stroke-width="1.1027" connectorname="GND"/>
    <circle id="connector44pad" cx="43.2" cy="64.8" r="1.9687" stroke-width="1.1027" connectorname="WORDSEL_IN"/>
    <circle id="connector45pad" cx="50.4" cy="64.8" r="1.9687" stroke-width="1.1027" connectorname="DATA_IN"/>
    <circle id="connector46pad" cx="57.6" cy="64.8" r="1.9687" stroke-width="1.1027" connectorname="BITCLK_IN"/>
    <circle id="connector47pad" cx="64.8" cy="64.8" r="1.9687" stroke-width="1.1027" connectorname="OUTL"/>
    <circle id="connector48pad" cx="72" cy="64.8" r="1.9687" stroke-width="1.1027" connectorname="AGND"/>
    <circle id="connector49pad" cx="79.2" cy="64.8" r="1.9687" stroke-width="1.1027" connectorname="OUTR"/>
   </g>
  </g>
 </g>
</svg>
