<?xml version="1.0" encoding="UTF-8"?>
<!-- Created with Fritzing (http://www.fritzing.org/) -->
<svg width="1.5828in" height=".6in" baseProfile="tiny" version="1.2" viewBox="0 0 113.96 43.2" xmlns="http://www.w3.org/2000/svg">
 <desc>
  <referenceFile>Adafruit Pixel Trinkey_pcb.svg</referenceFile>
 </desc>
 <desc>Fritzing footprint generated by brd2svg</desc>
 <g id="silkscreen">
  <path d="m49.198 0.288h57.309a6.912 6.912 0 0 1 7.164 7.104v28.416a6.912 6.912 0 0 1-7.164 7.104h-57.309a6.912 6.912 0 0 1-7.1637-7.104v-28.416a6.912 6.912 0 0 1 7.1637-7.104m0.1293 27.69a1.271 1.271 0 1 0 2.5421 0 1.271 1.271 0 1 0-2.5421 0zm0-12.756a1.271 1.271 0 1 0 2.5421 0 1.271 1.271 0 1 0-2.5421 0z" fill="none" stroke="#fff" stroke-width=".576"/>
  <g>
   <title>element:CN1</title>
   <g>
    <title>package:USB_A-UGO4DD</title>
    <line x1="44.986" x2="41.89" y1="38.608" y2="38.608" stroke="#fff" stroke-linecap="round" stroke-width=".576"/>
    <line x1="41.89" x2="44.986" y1="4.5921" y2="4.5921" stroke="#fff" stroke-linecap="round" stroke-width=".576"/>
   </g>
  </g>
  <g>
   <title>element:JP1</title>
   <g>
    <title>package:1X04_2.54MMTERMINAL</title>
    <line x1="95.631" x2="95.631" y1="36.547" y2="5.9329" stroke="#fff" stroke-linecap="round" stroke-width=".432"/>
    <line x1="95.631" x2="113.49" y1="5.9329" y2="5.9329" stroke="#fff" stroke-linecap="round" stroke-width=".432"/>
    <line x1="113.49" x2="113.49" y1="5.9329" y2="22.941" stroke="#fff" stroke-linecap="round" stroke-width=".432"/>
    <line x1="113.49" x2="113.49" y1="22.941" y2="26.626" stroke="#fff" stroke-linecap="round" stroke-width=".432"/>
    <line x1="113.49" x2="113.49" y1="30.311" y2="33.712" stroke="#fff" stroke-linecap="round" stroke-width=".432"/>
    <line x1="113.49" x2="113.49" y1="33.712" y2="36.547" stroke="#fff" stroke-linecap="round" stroke-width=".432"/>
    <line x1="113.49" x2="95.631" y1="36.547" y2="36.547" stroke="#fff" stroke-linecap="round" stroke-width=".432"/>
    <line x1="113.49" x2="110.09" y1="33.712" y2="33.712" stroke="#fff" stroke-linecap="round" stroke-width=".432"/>
    <line x1="110.09" x2="110.09" y1="33.712" y2="30.311" stroke="#fff" stroke-linecap="round" stroke-width=".432"/>
    <line x1="110.09" x2="113.49" y1="30.311" y2="30.311" stroke="#fff" stroke-linecap="round" stroke-width=".432"/>
    <line x1="113.49" x2="113.49" y1="30.311" y2="26.626" stroke="#fff" stroke-linecap="round" stroke-width=".432"/>
    <line x1="113.49" x2="110.09" y1="26.626" y2="26.626" stroke="#fff" stroke-linecap="round" stroke-width=".432"/>
    <line x1="110.09" x2="110.09" y1="26.626" y2="22.941" stroke="#fff" stroke-linecap="round" stroke-width=".432"/>
    <line x1="110.09" x2="113.49" y1="22.941" y2="22.941" stroke="#fff" stroke-linecap="round" stroke-width=".432"/>
    <line x1="113.49" x2="110.09" y1="19.312" y2="19.312" stroke="#fff" stroke-linecap="round" stroke-width=".432"/>
    <line x1="110.09" x2="110.09" y1="19.312" y2="15.911" stroke="#fff" stroke-linecap="round" stroke-width=".432"/>
    <line x1="110.09" x2="113.49" y1="15.911" y2="15.911" stroke="#fff" stroke-linecap="round" stroke-width=".432"/>
    <line x1="113.49" x2="110.09" y1="12.112" y2="12.112" stroke="#fff" stroke-linecap="round" stroke-width=".432"/>
    <line x1="110.09" x2="110.09" y1="12.112" y2="8.7108" stroke="#fff" stroke-linecap="round" stroke-width=".432"/>
    <line x1="110.09" x2="113.49" y1="8.7108" y2="8.7108" stroke="#fff" stroke-linecap="round" stroke-width=".432"/>
    <line x1="110.94" x2="112.64" y1="32.012" y2="32.012" stroke="#fff" stroke-linecap="round" stroke-width=".432"/>
    <line x1="112.64" x2="111.79" y1="32.012" y2="32.862" stroke="#fff" stroke-linecap="round" stroke-width=".432"/>
    <line x1="111.79" x2="111.79" y1="32.862" y2="31.161" stroke="#fff" stroke-linecap="round" stroke-width=".432"/>
    <line x1="111.79" x2="112.64" y1="31.161" y2="32.012" stroke="#fff" stroke-linecap="round" stroke-width=".432"/>
    <line x1="110.94" x2="112.64" y1="24.812" y2="24.812" stroke="#fff" stroke-linecap="round" stroke-width=".432"/>
    <line x1="112.64" x2="111.79" y1="24.812" y2="25.662" stroke="#fff" stroke-linecap="round" stroke-width=".432"/>
    <line x1="111.79" x2="111.79" y1="25.662" y2="23.961" stroke="#fff" stroke-linecap="round" stroke-width=".432"/>
    <line x1="111.79" x2="112.64" y1="23.961" y2="24.812" stroke="#fff" stroke-linecap="round" stroke-width=".432"/>
    <line x1="110.94" x2="112.64" y1="17.612" y2="17.612" stroke="#fff" stroke-linecap="round" stroke-width=".432"/>
    <line x1="112.64" x2="111.79" y1="17.612" y2="18.462" stroke="#fff" stroke-linecap="round" stroke-width=".432"/>
    <line x1="111.79" x2="111.79" y1="18.462" y2="16.761" stroke="#fff" stroke-linecap="round" stroke-width=".432"/>
    <line x1="111.79" x2="112.64" y1="16.761" y2="17.612" stroke="#fff" stroke-linecap="round" stroke-width=".432"/>
    <line x1="110.94" x2="112.64" y1="10.412" y2="10.412" stroke="#fff" stroke-linecap="round" stroke-width=".432"/>
    <line x1="112.64" x2="111.79" y1="10.412" y2="11.262" stroke="#fff" stroke-linecap="round" stroke-width=".432"/>
    <line x1="111.79" x2="111.79" y1="11.262" y2="9.5612" stroke="#fff" stroke-linecap="round" stroke-width=".432"/>
    <line x1="111.79" x2="112.64" y1="9.5612" y2="10.412" stroke="#fff" stroke-linecap="round" stroke-width=".432"/>
   </g>
  </g>
  <g>
   <title>element:PLABEL13</title>
   <g>
    <title>package:PLABEL13</title>
   </g>
  </g>
  <g>
   <title>element:PLABEL14</title>
   <g>
    <title>package:PLABEL14</title>
   </g>
  </g>
  <line x1=".288" x2="41.958" y1="39.458" y2="39.458" fill="none" stroke="#fff" stroke-width=".576"/>
  <line x1=".288" x2="41.958" y1="3.7417" y2="3.7417" fill="none" stroke="#fff" stroke-width=".576"/>
  <line x1=".288" x2=".288" y1="39.458" y2="3.7417" fill="none" stroke="#fff" stroke-width=".576"/>
 </g>
 <g id="copper1">
  <g id="copper0">
   <g transform="matrix(0 -1 1 0 73.539 93.897)">
    <rect id="connector86pad" x="81.521" y="9.3288" width="4.3937" height="1.7008" fill="#F7BD13" stroke-width="0"/>
   </g>
   <circle id="connector62pad" cx="104.42" cy="17.64" r="1.7773" fill="none" stroke="#F7BD13" stroke-width=".72" connectorname="DAT_5V"/>
   <path d="m100.33 15.863h8.1757v3.5546h-8.1757v-3.5546m2.31 1.7773a1.7773 1.7773 0 1 0 3.5546 0 1.7773 1.7773 0 1 0-3.5546 0z" fill="#F7BD13" stroke-width="0"/>
   <circle id="connector16pad" cx="50.655" cy="38.183" r="2.126" fill="none" stroke="#F7BD13" stroke-width="1.9843" connectorname="MNT1"/>
   <path d="m45.765 36.057h9.7795v4.252h-9.7795v-4.252m2.7638 2.126a2.126 2.126 0 1 0 4.252 0 2.126 2.126 0 1 0-4.252 0z" fill="#F7BD13" stroke-width="0"/>
   <circle id="connector17pad" cx="50.655" cy="5.0173" r="1.9843" fill="none" stroke="#F7BD13" stroke-width="1.7008" connectorname="MNT2"/>
   <path d="m46.091 3.0331h9.1276v3.9685h-9.1276v-3.9685m2.5795 1.9842a1.9843 1.9843 0 1 0 3.9685 0 1.9843 1.9843 0 1 0-3.9685 0z" fill="#F7BD13" stroke-width="0"/>
   <circle id="connector60pad" cx="104.42" cy="32.04" r="1.7773" fill="none" stroke="#F7BD13" stroke-width=".72" connectorname="VBUS"/>
   <path d="m100.33 30.263h8.1757v3.5546h-8.1757v-3.5546m2.31 1.7773a1.7773 1.7773 0 1 0 3.5546 0 1.7773 1.7773 0 1 0-3.5546 0z" fill="#F7BD13" stroke-width="0"/>
   <circle id="connector61pad" cx="104.42" cy="24.84" r="1.7773" fill="none" stroke="#F7BD13" stroke-width=".72" connectorname="CLK_5V"/>
   <path d="m100.33 23.063h8.1757v3.5546h-8.1757v-3.5546m2.31 1.7773a1.7773 1.7773 0 1 0 3.5546 0 1.7773 1.7773 0 1 0-3.5546 0z" fill="#F7BD13" stroke-width="0"/>
   <circle id="connector63pad" cx="104.42" cy="10.44" r="1.7773" fill="none" stroke="#F7BD13" stroke-width=".72" connectorname="GND"/>
   <path d="m100.33 8.6627h8.1757v3.5546h-8.1757v-3.5546m2.31 1.7773a1.7773 1.7773 0 1 0 3.5546 0 1.7773 1.7773 0 1 0-3.5546 0z" fill="#F7BD13" stroke-width="0"/>
   <g transform="matrix(0 -1 1 0 70.705 91.063)">
    <rect id="connector85pad" x="78.687" y="9.3288" width="4.3937" height="1.7008" fill="#F7BD13" stroke-width="0"/>
   </g>
   <g transform="matrix(0 -1 1 0 76.374 96.732)">
    <rect id="connector87pad" x="84.356" y="9.3288" width="4.3937" height="1.7008" fill="#F7BD13" stroke-width="0"/>
   </g>
  </g>
 </g>
</svg>
