<?xml version="1.0" encoding="UTF-8"?>
<!-- Created with Fritzing (http://www.fritzing.org/) -->
<svg width="3.15in" height="1.8501in" baseProfile="tiny" version="1.2" viewBox="0 0 226.8 133.21" xmlns="http://www.w3.org/2000/svg">
 <desc>
  <referenceFile>2.9in eInk rev B_pcb.svg</referenceFile>
 </desc>
 <desc>Fritzing footprint generated by brd2svg</desc>
 <g id="silkscreen">
  <path d="m219.69 0.29695a6.5439 6.5439 0 0 1 6.823 6.7929v118.68a6.8975 6.8975 0 0 1-7.152 7.151h-211.89a6.912 6.912 0 0 1-7.1817-7.169v-29.392l5.0272-3.2264v-49.823l-5.0272-3.9429v-32.26a6.921 6.921 0 0 1 7.5408-6.8104h211.86" fill="none" stroke="#fff" stroke-width=".576"/>
  <g>
   <title>element:EINK2</title>
   <g>
    <title>package:EINK_290IN</title>
    <line x1="1.4389" x2="225.38" y1="14.802" y2="14.802" stroke="#fff" stroke-linecap="round" stroke-width=".36"/>
    <line x1="225.38" x2="225.38" y1="14.802" y2="118.83" stroke="#fff" stroke-linecap="round" stroke-width=".36"/>
    <line x1="225.38" x2="1.4389" y1="118.83" y2="118.83" stroke="#fff" stroke-linecap="round" stroke-width=".36"/>
    <line x1="1.4389" x2="1.4389" y1="118.83" y2="14.802" stroke="#fff" stroke-linecap="round" stroke-width=".36"/>
   </g>
  </g>
  <g>
   <title>element:IC1</title>
   <g>
    <title>package:SO20W</title>
   </g>
  </g>
  <g>
   <title>element:JP2</title>
   <g>
    <title>package:1X13_ROUND_70</title>
   </g>
  </g>
  <g>
   <title>element:U$39</title>
   <g>
    <title>package:ADAFRUIT_TEXT_30MM</title>
   </g>
  </g>
  <g>
   <title>element:X1</title>
   <g>
    <title>package:MICROSD</title>
   </g>
  </g>
 </g>
 <g id="copper1">
  <g id="copper0" fill="none" stroke="#F7BD13">
   <circle id="connector6pad" cx="77.4" cy="126.01" r="1.8967" stroke-width=".95868" connectorname="3.3V"/>
   <circle id="connector18pad" cx="7.2" cy="126.01" r="4.2633" stroke-width="1.44" connectorname="P$1"/>
   <circle id="connector14pad" cx="135" cy="126.01" r="1.8967" stroke-width=".95868" connectorname="SDCS"/>
   <circle id="connector7pad" cx="84.6" cy="126.01" r="1.8967" stroke-width=".95868" connectorname="GND"/>
   <circle id="connector16pad" cx="149.4" cy="126.01" r="1.8967" stroke-width=".95868" connectorname="BUSY"/>
   <circle id="connector8pad" cx="91.8" cy="126.01" r="1.8967" stroke-width=".95868" connectorname="SCLK"/>
   <circle id="connector20pad" cx="7.2" cy="7.209" r="4.2633" stroke-width="1.44" connectorname="P$1"/>
   <circle id="connector9pad" cx="99" cy="126.01" r="1.8967" stroke-width=".95868" connectorname="MISO"/>
   <circle id="connector15pad" cx="142.2" cy="126.01" r="1.8967" stroke-width=".95868" connectorname="RESET"/>
   <circle id="connector10pad" cx="106.2" cy="126.01" r="1.8967" stroke-width=".95868" connectorname="MOSI"/>
   <circle id="connector17pad" cx="156.6" cy="126.01" r="1.8967" stroke-width=".95868" connectorname="ENABLE"/>
   <circle id="connector11pad" cx="113.4" cy="126.01" r="1.8967" stroke-width=".95868" connectorname="DISPCS"/>
   <circle id="connector19pad" cx="219.6" cy="126.01" r="4.2633" stroke-width="1.44" connectorname="P$1"/>
   <circle id="connector12pad" cx="120.6" cy="126.01" r="1.8967" stroke-width=".95868" connectorname="DC"/>
   <circle id="connector21pad" cx="219.6" cy="7.209" r="4.2633" stroke-width="1.44" connectorname="P$1"/>
   <circle id="connector13pad" cx="127.8" cy="126.01" r="1.8967" stroke-width=".95868" connectorname="SRAMCS"/>
   <circle id="connector5pad" cx="70.2" cy="126.01" r="1.8967" stroke-width=".95868" connectorname="VIN"/>
  </g>
 </g>
</svg>
