<?xml version="1.0" encoding="UTF-8"?>
<!-- Created with Fritzing (http://www.fritzing.org/) -->
<svg width="1.1in" height=".675in" baseProfile="tiny" version="1.2" viewBox="0 0 79.2 48.6" xmlns="http://www.w3.org/2000/svg">
 <desc>
  <referenceFile>Adafruit ADS1015 12Bit I2C ADC_pcb.svg</referenceFile>
 </desc>
 <desc>Fritzing footprint generated by brd2svg</desc>
 <g id="silkscreen">
  <path d="m78.912 7.4027v33.795a6.912 6.912 0 0 1-7.1477 7.1147h-64.329a6.912 6.912 0 0 1-7.1477-7.1147v-33.795a6.912 6.912 0 0 1 7.1477-7.1147h64.329a6.912 6.912 0 0 1 7.1477 7.1147" fill="none" stroke="#fff" stroke-width=".576"/>
  <g>
   <title>element:JP1</title>
   <g>
    <title>package:1X10_ROUND70</title>
   </g>
  </g>
  <g>
   <title>element:U$15</title>
   <g>
    <title>package:ADAFRUIT_TEXT_20MM</title>
   </g>
  </g>
 </g>
 <g id="copper1">
  <g id="copper0" fill="none" stroke="#F7BD13" stroke-width="1.1027">
   <circle id="connector10pad" cx="72" cy="43.2" r="1.9687" connectorname="AIN3"/>
   <circle id="connector11pad" cx="64.8" cy="43.2" r="1.9687" connectorname="AIN2"/>
   <circle id="connector12pad" cx="57.6" cy="43.2" r="1.9687" connectorname="AIN1"/>
   <circle id="connector13pad" cx="50.4" cy="43.2" r="1.9687" connectorname="AIN0"/>
   <circle id="connector14pad" cx="43.2" cy="43.2" r="1.9687" connectorname="ALERT"/>
   <circle id="connector15pad" cx="36" cy="43.2" r="1.9687" connectorname="ADDR"/>
   <circle id="connector16pad" cx="28.8" cy="43.2" r="1.9687" connectorname="SDA"/>
   <circle id="connector17pad" cx="21.6" cy="43.2" r="1.9687" connectorname="SCL"/>
   <circle id="connector18pad" cx="14.4" cy="43.2" r="1.9687" connectorname="GND"/>
   <circle id="connector19pad" cx="7.2" cy="43.2" r="1.9687" connectorname="VDD"/>
  </g>
 </g>
</svg>
