<?xml version="1.0" encoding="UTF-8"?>
<!-- Created with Fritzing (http://www.fritzing.org/) -->
<svg width=".95in" height=".775in" baseProfile="tiny" version="1.2" viewBox="0 0 68.4 55.8" xmlns="http://www.w3.org/2000/svg">
 <desc>
  <referenceFile>Pixie_pcb.svg</referenceFile>
 </desc>
 <desc>Fritzing footprint generated by brd2svg</desc>
 <g id="silkscreen">
  <path d="m6.535 21.665v-7.1257a6.912 6.912 0 0 1 7.1394-7.1256h3.5697a3.312 3.312 0 0 0 3.5697-3.5629 3.312 3.312 0 0 1 3.5697-3.5628h19.633a3.312 3.312 0 0 1 3.5697 3.5628 3.312 3.312 0 0 0 3.5697 3.5629h3.5697a6.912 6.912 0 0 1 7.1394 7.1256v7.1257a6.012 6.012 0 1 1 0 12.47v7.1257a6.912 6.912 0 0 1-7.1394 7.1256h-3.5697a3.312 3.312 0 0 0-3.5697 3.5629 3.312 3.312 0 0 1-3.5697 3.5628h-19.633a3.312 3.312 0 0 1-3.5697-3.5628 3.312 3.312 0 0 0-3.5697-3.5629h-3.5697a6.912 6.912 0 0 1-7.1394-7.1256v-7.1257a6.012 6.012 0 1 1 0-12.47m-3.6816 6.235a2.5466 2.5466 0 1 0 5.0933 0 2.5466 2.5466 0 1 0-5.0933 0zm57.6 0a2.5466 2.5466 0 1 0 5.0933 0 2.5466 2.5466 0 1 0-5.0933 0z" fill="none" stroke="#fff" stroke-width=".576"/>
  <line x1="33.3" x2="33.3" y1="20.34" y2="11.7" stroke="#fff" stroke-linecap="round" stroke-width=".576"/>
  <line x1="33.3" x2="32.4" y1="11.7" y2="14.4" stroke="#fff" stroke-linecap="round" stroke-width=".576"/>
  <line x1="33.3" x2="34.2" y1="11.7" y2="14.4" stroke="#fff" stroke-linecap="round" stroke-width=".576"/>
  <g>
   <title>element:LED1</title>
   <g>
    <title>package:RGBLED3W4PIN</title>
   </g>
  </g>
  <g>
   <title>element:U$1</title>
   <g>
    <title>package:ALIGN_CROSS</title>
   </g>
  </g>
  <g>
   <title>element:U$2</title>
   <g>
    <title>package:ALIGN_CROSS</title>
   </g>
  </g>
  <g>
   <title>element:U$3</title>
   <g>
    <title>package:ALIGN_CROSS</title>
   </g>
  </g>
  <g>
   <title>element:U$4</title>
   <g>
    <title>package:ALIGN_CROSS</title>
   </g>
  </g>
  <g>
   <title>element:U$5</title>
   <g>
    <title>package:PIXIE-LOGO</title>
   </g>
  </g>
 </g>
 <g id="copper1">
  <g id="copper0" fill="none" stroke="#F7BD13">
   <circle id="connector13pad" cx="41.4" cy="49.5" r="3.189" stroke-width="1.2756" connectorname="5V"/>
   <circle id="connector14pad" cx="34.2" cy="49.5" r="1.8" stroke-width=".72" connectorname="DIN"/>
   <circle id="connector15pad" cx="27" cy="49.5" r="3.189" stroke-width="1.2756" connectorname="GND"/>
   <circle id="connector16pad" cx="41.4" cy="6.3" r="3.189" stroke-width="1.2756" connectorname="5V"/>
   <circle id="connector17pad" cx="34.2" cy="6.3" r="1.8" stroke-width=".72" connectorname="P$2"/>
   <circle id="connector18pad" cx="27" cy="6.3" r="3.189" stroke-width="1.2756" connectorname="GND"/>
  </g>
 </g>
</svg>
