<?xml version="1.0" encoding="UTF-8"?>
<!-- Created with Fritzing (http://www.fritzing.org/) -->
<svg width="2.5641in" height="1.1811in" baseProfile="tiny" version="1.2" viewBox="0 0 184.61 85.039" xmlns="http://www.w3.org/2000/svg">
 <desc>
  <referenceFile>Arcade Bonnet rev B_pcb.svg</referenceFile>
 </desc>
 <desc>Fritzing footprint generated by brd2svg</desc>
 <g id="silkscreen">
  <path d="m0.64688 8.7343a8.2159 8.2159 0 0 1 8.4774-8.4463h166.72a8.2159 8.2159 0 0 1 8.478 8.4463v67.571a8.2159 8.2159 0 0 1-8.478 8.4463h-166.72a8.2159 8.2159 0 0 1-8.4774-8.4463v-67.571m5.9539 66.384a3.6805 3.6805 0 1 0 7.361 0 3.6805 3.6805 0 1 0-7.361 0zm0-65.197a3.6805 3.6805 0 1 0 7.361 0 3.6805 3.6805 0 1 0-7.361 0zm164.41 0a3.6805 3.6805 0 1 0 7.361 0 3.6805 3.6805 0 1 0-7.361 0zm0 65.197a3.6805 3.6805 0 1 0 7.361 0 3.6805 3.6805 0 1 0-7.361 0z" fill="none" stroke="#fff" stroke-width=".576"/>
  <g>
   <title>element:B0</title>
   <g>
    <title>package:JST-XH-2-SM4</title>
    <line x1="1.6583" x2="1.6583" y1="53.212" y2="34.503" stroke="#fff" stroke-linecap="round" stroke-width=".576"/>
    <line x1="13.28" x2="23.768" y1="29.826" y2="29.826" stroke="#fff" stroke-linecap="round" stroke-width=".576"/>
    <line x1="23.768" x2="23.768" y1="29.826" y2="37.905" stroke="#fff" stroke-linecap="round" stroke-width=".576"/>
    <line x1="23.768" x2="23.768" y1="50.094" y2="58.173" stroke="#fff" stroke-linecap="round" stroke-width=".576"/>
    <line x1="23.768" x2="13.28" y1="58.173" y2="58.173" stroke="#fff" stroke-linecap="round" stroke-width=".576"/>
   </g>
  </g>
  <g>
   <title>element:B1</title>
   <g>
    <title>package:JST-XH-2-SM4</title>
    <line x1="44.853" x2="26.144" y1="83.381" y2="83.381" stroke="#fff" stroke-linecap="round" stroke-width=".576"/>
    <line x1="21.467" x2="21.467" y1="71.759" y2="61.271" stroke="#fff" stroke-linecap="round" stroke-width=".576"/>
    <line x1="21.467" x2="29.546" y1="61.271" y2="61.271" stroke="#fff" stroke-linecap="round" stroke-width=".576"/>
    <line x1="41.734" x2="49.813" y1="61.271" y2="61.271" stroke="#fff" stroke-linecap="round" stroke-width=".576"/>
    <line x1="49.813" x2="49.813" y1="61.271" y2="71.759" stroke="#fff" stroke-linecap="round" stroke-width=".576"/>
   </g>
  </g>
  <g>
   <title>element:B2</title>
   <g>
    <title>package:JST-XH-2-SM4</title>
    <line x1="76.532" x2="57.824" y1="83.381" y2="83.381" stroke="#fff" stroke-linecap="round" stroke-width=".576"/>
    <line x1="53.147" x2="53.147" y1="71.759" y2="61.271" stroke="#fff" stroke-linecap="round" stroke-width=".576"/>
    <line x1="53.147" x2="61.226" y1="61.271" y2="61.271" stroke="#fff" stroke-linecap="round" stroke-width=".576"/>
    <line x1="73.415" x2="81.493" y1="61.271" y2="61.271" stroke="#fff" stroke-linecap="round" stroke-width=".576"/>
    <line x1="81.493" x2="81.493" y1="61.271" y2="71.759" stroke="#fff" stroke-linecap="round" stroke-width=".576"/>
   </g>
  </g>
  <g>
   <title>element:B3</title>
   <g>
    <title>package:JST-XH-2-SM4</title>
    <line x1="127.65" x2="108.94" y1="83.381" y2="83.381" stroke="#fff" stroke-linecap="round" stroke-width=".576"/>
    <line x1="104.27" x2="104.27" y1="71.759" y2="61.271" stroke="#fff" stroke-linecap="round" stroke-width=".576"/>
    <line x1="104.27" x2="112.34" y1="61.271" y2="61.271" stroke="#fff" stroke-linecap="round" stroke-width=".576"/>
    <line x1="124.54" x2="132.61" y1="61.271" y2="61.271" stroke="#fff" stroke-linecap="round" stroke-width=".576"/>
    <line x1="132.61" x2="132.61" y1="61.271" y2="71.759" stroke="#fff" stroke-linecap="round" stroke-width=".576"/>
   </g>
  </g>
  <g>
   <title>element:B4</title>
   <g>
    <title>package:JST-XH-2-SM4</title>
    <line x1="158.97" x2="140.26" y1="83.381" y2="83.381" stroke="#fff" stroke-linecap="round" stroke-width=".576"/>
    <line x1="135.59" x2="135.59" y1="71.759" y2="61.271" stroke="#fff" stroke-linecap="round" stroke-width=".576"/>
    <line x1="135.59" x2="143.66" y1="61.271" y2="61.271" stroke="#fff" stroke-linecap="round" stroke-width=".576"/>
    <line x1="155.86" x2="163.93" y1="61.271" y2="61.271" stroke="#fff" stroke-linecap="round" stroke-width=".576"/>
    <line x1="163.93" x2="163.93" y1="61.271" y2="71.759" stroke="#fff" stroke-linecap="round" stroke-width=".576"/>
   </g>
  </g>
  <g>
   <title>element:B5</title>
   <g>
    <title>package:JST-XH-2-SM4</title>
    <line x1="182.66" x2="182.66" y1="34.787" y2="53.495" stroke="#fff" stroke-linecap="round" stroke-width=".576"/>
    <line x1="171.04" x2="160.55" y1="58.173" y2="58.173" stroke="#fff" stroke-linecap="round" stroke-width=".576"/>
    <line x1="160.55" x2="160.55" y1="58.173" y2="50.094" stroke="#fff" stroke-linecap="round" stroke-width=".576"/>
    <line x1="160.55" x2="160.55" y1="37.905" y2="29.826" stroke="#fff" stroke-linecap="round" stroke-width=".576"/>
    <line x1="160.55" x2="171.04" y1="29.826" y2="29.826" stroke="#fff" stroke-linecap="round" stroke-width=".576"/>
   </g>
  </g>
  <g>
   <title>element:CONN1</title>
   <g>
    <title>package:1X25_ROUND_70MIL</title>
   </g>
  </g>
  <g>
   <title>element:IC1</title>
   <g>
    <title>package:QFN28-ML_6X6MM</title>
    <line x1="56.816" x2="56.82" y1="34.466" y2="34.466" stroke="#fff" stroke-linecap="round" stroke-width=".576"/>
    <line x1="56.816" x2="56.816" y1="32.543" y2="34.466" stroke="#fff" stroke-linecap="round" stroke-width=".576"/>
    <line x1="56.82" x2="54.898" y1="34.466" y2="32.543" stroke="#fff" stroke-linecap="round" stroke-width=".576"/>
    <line x1="54.898" x2="56.816" y1="32.543" y2="32.543" stroke="#fff" stroke-linecap="round" stroke-width=".576"/>
   </g>
  </g>
  <g>
   <title>element:IC2</title>
   <g>
    <title>package:TSSOP14</title>
    <line x1="147.17" x2="147.17" y1="32.488" y2="45.43" stroke="#fff" stroke-linecap="round" stroke-width=".576"/>
    <line x1="132.91" x2="132.91" y1="45.43" y2="32.488" stroke="#fff" stroke-linecap="round" stroke-width=".576"/>
    <circle cx="135.43" cy="42.415" r="1.296" fill="none" stroke="#fff" stroke-width=".576"/>
   </g>
  </g>
  <g>
   <title>element:JOY1</title>
   <g>
    <title>package:1X05_OVAL</title>
   </g>
  </g>
  <g>
   <title>element:JP1</title>
   <g>
    <title>package:1X04_OVAL</title>
   </g>
  </g>
  <g>
   <title>element:JP2</title>
   <g>
    <title>package:1X03_ROUND</title>
   </g>
  </g>
  <g>
   <title>element:JP3</title>
   <g>
    <title>package:1X03_ROUND</title>
   </g>
  </g>
  <g>
   <title>element:JP4</title>
   <g>
    <title>package:1X02_OVAL</title>
   </g>
  </g>
  <g>
   <title>element:JP6</title>
   <g>
    <title>package:1X02_OVAL</title>
   </g>
  </g>
  <g>
   <title>element:JP7</title>
   <g>
    <title>package:1X02_OVAL</title>
   </g>
  </g>
  <g>
   <title>element:JP8</title>
   <g>
    <title>package:1X02_OVAL</title>
   </g>
  </g>
  <g>
   <title>element:JP9</title>
   <g>
    <title>package:1X02_OVAL</title>
   </g>
  </g>
  <g>
   <title>element:JP10</title>
   <g>
    <title>package:1X02_OVAL</title>
   </g>
  </g>
  <g>
   <title>element:RPI1</title>
   <g>
    <title>package:PI_BONNET</title>
   </g>
  </g>
  <g>
   <title>element:SPKR</title>
   <g>
    <title>package:TERMBLOCK_1X2-3.5MM</title>
    <line x1="82.882" x2="82.882" y1="63.882" y2="79.756" stroke="#fff" stroke-linecap="round" stroke-width=".576"/>
    <line x1="82.882" x2="82.882" y1="79.756" y2="83.724" stroke="#fff" stroke-linecap="round" stroke-width=".576"/>
    <line x1="82.882" x2="102.72" y1="83.724" y2="83.724" stroke="#fff" stroke-linecap="round" stroke-width=".576"/>
    <line x1="102.72" x2="102.72" y1="83.724" y2="79.756" stroke="#fff" stroke-linecap="round" stroke-width=".576"/>
    <line x1="102.72" x2="102.72" y1="79.756" y2="63.882" stroke="#fff" stroke-linecap="round" stroke-width=".576"/>
    <line x1="102.72" x2="82.882" y1="63.882" y2="63.882" stroke="#fff" stroke-linecap="round" stroke-width=".576"/>
    <line x1="82.882" x2="102.72" y1="79.756" y2="79.756" stroke="#fff" stroke-linecap="round" stroke-width=".576"/>
   </g>
  </g>
  <g>
   <title>element:U$19</title>
   <g>
    <title>package:BONNET_ARCADE_REVB_TOP</title>
   </g>
  </g>
  <g>
   <title>element:U$20</title>
   <g>
    <title>package:BONNET_ARCADE_REVB_BOT</title>
   </g>
  </g>
  <line x1=".288" x2=".36" y1="65.239" y2="65.239" fill="none" stroke="#fff" stroke-width=".576"/>
  <line x1=".288" x2=".36" y1="61.639" y2="61.639" fill="none" stroke="#fff" stroke-width=".576"/>
  <line x1=".288" x2=".288" y1="65.239" y2="61.639" fill="none" stroke="#fff" stroke-width=".576"/>
 </g>
 <g id="copper1">
  <g id="copper0">
   <circle id="connector166pad" cx="110.49" cy="13.521" r="1.8258" fill="none" stroke="#F7BD13" stroke-width="1.1004" connectorname="GND"/>
   <circle id="connector118pad" cx="10.8" cy="63.439" r="1.8967" fill="none" stroke="#F7BD13" stroke-width=".95868" connectorname="GND"/>
   <circle id="connector150pad" cx="52.886" cy="13.521" r="1.8258" fill="none" stroke="#F7BD13" stroke-width="1.1004" connectorname="GND"/>
   <circle id="connector182pad" cx="97.623" cy="73.519" r="2.2567" fill="none" stroke="#F7BD13" stroke-width="1.6787" connectorname="VO-"/>
   <circle id="connector110pad" cx="126.36" cy="38.239" r="1.7773" fill="none" stroke="#F7BD13" stroke-width=".72" connectorname="GND"/>
   <path d="m124.58 34.152h3.5546v8.1757h-3.5546v-8.1757m0 4.0878a1.7773 1.7773 0 1 0 3.5546 0 1.7773 1.7773 0 1 0-3.5546 0z" fill="#F7BD13" stroke-width="0"/>
   <circle id="connector126pad" cx="70.92" cy="76.399" r="1.7773" fill="none" stroke="#F7BD13" stroke-width=".72" connectorname="B1_2"/>
   <path d="m69.143 72.312h3.5546v8.1757h-3.5546v-8.1757m0 4.0874a1.7773 1.7773 0 1 0 3.5546 0 1.7773 1.7773 0 1 0-3.5546 0z" fill="#F7BD13" stroke-width="0"/>
   <circle id="connector142pad" cx="24.086" cy="13.521" r="1.8258" fill="none" stroke="#F7BD13" stroke-width="1.1004" connectorname="3.3V"/>
   <circle id="connector158pad" cx="81.686" cy="13.521" r="1.8258" fill="none" stroke="#F7BD13" stroke-width="1.1004" connectorname="3.3V"/>
   <circle id="connector174pad" cx="139.29" cy="13.521" r="1.8258" fill="none" stroke="#F7BD13" stroke-width="1.1004" connectorname="GPIO13"/>
   <circle id="connector106pad" cx="86.76" cy="38.239" r="1.7773" fill="none" stroke="#F7BD13" stroke-width=".72" connectorname="J1_3"/>
   <path d="m84.982 34.152h3.5546v8.1757h-3.5546v-8.1757m0 4.0878a1.7773 1.7773 0 1 0 3.5546 0 1.7773 1.7773 0 1 0-3.5546 0z" fill="#F7BD13" stroke-width="0"/>
   <circle id="connector114pad" cx="167.04" cy="63.439" r="1.8967" fill="none" stroke="#F7BD13" stroke-width=".95868" connectorname="GND"/>
   <circle id="connector122pad" cx="153.36" cy="76.399" r="1.7773" fill="none" stroke="#F7BD13" stroke-width=".72" connectorname="B1_4"/>
   <path d="m151.58 72.312h3.5546v8.1757h-3.5546v-8.1757m0 4.0874a1.7773 1.7773 0 1 0 3.5546 0 1.7773 1.7773 0 1 0-3.5546 0z" fill="#F7BD13" stroke-width="0"/>
   <circle id="connector130pad" cx="8.64" cy="47.599" r="1.7773" fill="none" stroke="#F7BD13" stroke-width=".72" connectorname="B1_0"/>
   <path d="m4.5522 45.822h8.1757v3.5546h-8.1757v-3.5546m2.3105 1.7773a1.7773 1.7773 0 1 0 3.5546 0 1.7773 1.7773 0 1 0-3.5546 0z" fill="#F7BD13" stroke-width="0"/>
   <circle id="connector146pad" cx="38.486" cy="13.521" r="1.8258" fill="none" stroke="#F7BD13" stroke-width="1.1004" connectorname="SCL"/>
   <circle id="connector154pad" cx="67.286" cy="13.521" r="1.8258" fill="none" stroke="#F7BD13" stroke-width="1.1004" connectorname="GPIO27"/>
   <circle id="connector162pad" cx="96.086" cy="13.521" r="1.8258" fill="none" stroke="#F7BD13" stroke-width="1.1004" connectorname="SPI_MISO"/>
   <circle id="connector170pad" cx="124.89" cy="13.521" r="1.8258" fill="none" stroke="#F7BD13" stroke-width="1.1004" connectorname="GPIO5"/>
   <circle id="connector178pad" cx="153.69" cy="13.521" r="1.8258" fill="none" stroke="#F7BD13" stroke-width="1.1004" connectorname="GPIO26"/>
   <circle id="connector108pad" cx="72.36" cy="38.239" r="1.7773" fill="none" stroke="#F7BD13" stroke-width=".72" connectorname="J1_1"/>
   <path d="m70.583 34.152h3.5546v8.1757h-3.5546v-8.1757m0 4.0878a1.7773 1.7773 0 1 0 3.5546 0 1.7773 1.7773 0 1 0-3.5546 0z" fill="#F7BD13" stroke-width="0"/>
   <circle id="connector112pad" cx="111.96" cy="38.239" r="1.7773" fill="none" stroke="#F7BD13" stroke-width=".72" connectorname="XOUT"/>
   <path d="m110.18 34.152h3.5546v8.1757h-3.5546v-8.1757m0 4.0878a1.7773 1.7773 0 1 0 3.5546 0 1.7773 1.7773 0 1 0-3.5546 0z" fill="#F7BD13" stroke-width="0"/>
   <circle id="connector116pad" cx="181.44" cy="63.439" r="1.8967" fill="none" stroke="#F7BD13" stroke-width=".95868" connectorname="GND"/>
   <circle id="connector33pad" cx="6.84" cy="24.559" r="1.8967" fill="none" stroke="#F7BD13" stroke-width=".95868" connectorname="SDA"/>
   <circle id="connector120pad" cx="122.04" cy="76.399" r="1.7773" fill="none" stroke="#F7BD13" stroke-width=".72" connectorname="B1_3"/>
   <path d="m120.26 72.312h3.5546v8.1757h-3.5546v-8.1757m0 4.0874a1.7773 1.7773 0 1 0 3.5546 0 1.7773 1.7773 0 1 0-3.5546 0z" fill="#F7BD13" stroke-width="0"/>
   <circle id="connector34pad" cx="14.04" cy="24.559" r="1.8967" fill="none" stroke="#F7BD13" stroke-width=".95868" connectorname="SCL"/>
   <circle id="connector124pad" cx="175.68" cy="40.399" r="1.7773" fill="none" stroke="#F7BD13" stroke-width=".72" connectorname="B1_5"/>
   <path d="m171.59 38.622h8.1757v3.5546h-8.1757v-3.5546m2.31 1.7773a1.7773 1.7773 0 1 0 3.5546 0 1.7773 1.7773 0 1 0-3.5546 0z" fill="#F7BD13" stroke-width="0"/>
   <circle id="connector35pad" cx="21.24" cy="24.559" r="1.8967" fill="none" stroke="#F7BD13" stroke-width=".95868" connectorname="TXD"/>
   <circle id="connector128pad" cx="39.24" cy="76.399" r="1.7773" fill="none" stroke="#F7BD13" stroke-width=".72" connectorname="B1_1"/>
   <path d="m37.463 72.312h3.5546v8.1757h-3.5546v-8.1757m0 4.0874a1.7773 1.7773 0 1 0 3.5546 0 1.7773 1.7773 0 1 0-3.5546 0z" fill="#F7BD13" stroke-width="0"/>
   <circle id="connector36pad" cx="28.44" cy="24.559" r="1.8967" fill="none" stroke="#F7BD13" stroke-width=".95868" connectorname="RXD"/>
   <circle id="connector37pad" cx="35.64" cy="24.559" r="1.8967" fill="none" stroke="#F7BD13" stroke-width=".95868" connectorname="GPIO4"/>
   <circle id="connector38pad" cx="42.84" cy="24.559" r="1.8967" fill="none" stroke="#F7BD13" stroke-width=".95868" connectorname="GPIO17"/>
   <circle id="connector39pad" cx="50.04" cy="24.559" r="1.8967" fill="none" stroke="#F7BD13" stroke-width=".95868" connectorname="BCLK"/>
   <circle id="connector144pad" cx="31.286" cy="13.521" r="1.8258" fill="none" stroke="#F7BD13" stroke-width="1.1004" connectorname="SDA"/>
   <circle id="connector40pad" cx="57.24" cy="24.559" r="1.8967" fill="none" stroke="#F7BD13" stroke-width=".95868" connectorname="GPIO27"/>
   <circle id="connector148pad" cx="45.686" cy="13.521" r="1.8258" fill="none" stroke="#F7BD13" stroke-width="1.1004" connectorname="GPIO4"/>
   <circle id="connector41pad" cx="64.44" cy="24.559" r="1.8967" fill="none" stroke="#F7BD13" stroke-width=".95868" connectorname="GPIO22"/>
   <circle id="connector152pad" cx="60.086" cy="13.521" r="1.8258" fill="none" stroke="#F7BD13" stroke-width="1.1004" connectorname="GPIO17"/>
   <circle id="connector42pad" cx="71.64" cy="24.559" r="1.8967" fill="none" stroke="#F7BD13" stroke-width=".95868" connectorname="GPIO23"/>
   <circle id="connector156pad" cx="74.486" cy="13.521" r="1.8258" fill="none" stroke="#F7BD13" stroke-width="1.1004" connectorname="GPIO22"/>
   <circle id="connector43pad" cx="78.84" cy="24.559" r="1.8967" fill="none" stroke="#F7BD13" stroke-width=".95868" connectorname="GPIO24"/>
   <circle id="connector160pad" cx="88.886" cy="13.521" r="1.8258" fill="none" stroke="#F7BD13" stroke-width="1.1004" connectorname="SPI_MOSI"/>
   <circle id="connector44pad" cx="86.04" cy="24.559" r="1.8967" fill="none" stroke="#F7BD13" stroke-width=".95868" connectorname="GPIO25"/>
   <circle id="connector164pad" cx="103.29" cy="13.521" r="1.8258" fill="none" stroke="#F7BD13" stroke-width="1.1004" connectorname="SPI_SCLK"/>
   <circle id="connector45pad" cx="93.24" cy="24.559" r="1.8967" fill="none" stroke="#F7BD13" stroke-width=".95868" connectorname="SPI_MOSI"/>
   <circle id="connector168pad" cx="117.69" cy="13.521" r="1.8258" fill="none" stroke="#F7BD13" stroke-width="1.1004" connectorname="EEDATA"/>
   <circle id="connector46pad" cx="100.44" cy="24.559" r="1.8967" fill="none" stroke="#F7BD13" stroke-width=".95868" connectorname="SPI_MISO"/>
   <circle id="connector172pad" cx="132.09" cy="13.521" r="1.8258" fill="none" stroke="#F7BD13" stroke-width="1.1004" connectorname="GPIO6"/>
   <circle id="connector47pad" cx="107.64" cy="24.559" r="1.8967" fill="none" stroke="#F7BD13" stroke-width=".95868" connectorname="SPI_SCLK"/>
   <circle id="connector176pad" cx="146.49" cy="13.521" r="1.8258" fill="none" stroke="#F7BD13" stroke-width="1.1004" connectorname="LRCLK"/>
   <circle id="connector48pad" cx="114.84" cy="24.559" r="1.8967" fill="none" stroke="#F7BD13" stroke-width=".95868" connectorname="SPI_CE0"/>
   <circle id="connector180pad" cx="160.89" cy="13.521" r="1.8258" fill="none" stroke="#F7BD13" stroke-width="1.1004" connectorname="GND"/>
   <circle id="connector49pad" cx="122.04" cy="24.559" r="1.8967" fill="none" stroke="#F7BD13" stroke-width=".95868" connectorname="SPI_CE1"/>
   <circle id="connector50pad" cx="129.24" cy="24.559" r="1.8967" fill="none" stroke="#F7BD13" stroke-width=".95868" connectorname="GPIO5"/>
   <circle id="connector51pad" cx="136.44" cy="24.559" r="1.8967" fill="none" stroke="#F7BD13" stroke-width=".95868" connectorname="GPIO6"/>
   <circle id="connector52pad" cx="143.64" cy="24.559" r="1.8967" fill="none" stroke="#F7BD13" stroke-width=".95868" connectorname="GPIO12"/>
   <circle id="connector53pad" cx="150.84" cy="24.559" r="1.8967" fill="none" stroke="#F7BD13" stroke-width=".95868" connectorname="GPIO13"/>
   <circle id="connector54pad" cx="158.04" cy="24.559" r="1.8967" fill="none" stroke="#F7BD13" stroke-width=".95868" connectorname="GPIO16"/>
   <circle id="connector105pad" cx="93.96" cy="38.239" r="1.7773" fill="none" stroke="#F7BD13" stroke-width=".72" connectorname="GND"/>
   <path d="m92.182 34.152h3.5546v8.1757h-3.5546v-8.1757m0 4.0878a1.7773 1.7773 0 1 0 3.5546 0 1.7773 1.7773 0 1 0-3.5546 0z" fill="#F7BD13" stroke-width="0"/>
   <circle id="connector55pad" cx="165.24" cy="24.559" r="1.8967" fill="none" stroke="#F7BD13" stroke-width=".95868" connectorname="LRCLK"/>
   <circle id="connector107pad" cx="79.56" cy="38.239" r="1.7773" fill="none" stroke="#F7BD13" stroke-width=".72" connectorname="J1_2"/>
   <path d="m77.782 34.152h3.5546v8.1757h-3.5546v-8.1757m0 4.0878a1.7773 1.7773 0 1 0 3.5546 0 1.7773 1.7773 0 1 0-3.5546 0z" fill="#F7BD13" stroke-width="0"/>
   <circle id="connector56pad" cx="172.44" cy="24.559" r="1.8967" fill="none" stroke="#F7BD13" stroke-width=".95868" connectorname="GPIO20"/>
   <circle id="connector109pad" cx="65.16" cy="38.239" r="1.7773" fill="none" stroke="#F7BD13" stroke-width=".72" connectorname="J1_0"/>
   <path d="m63.383 34.152h3.5546v8.1757h-3.5546v-8.1757m0 4.0878a1.7773 1.7773 0 1 0 3.5546 0 1.7773 1.7773 0 1 0-3.5546 0z" fill="#F7BD13" stroke-width="0"/>
   <circle id="connector57pad" cx="179.64" cy="24.559" r="1.8967" fill="none" stroke="#F7BD13" stroke-width=".95868" connectorname="DIN"/>
   <circle id="connector111pad" cx="119.16" cy="38.239" r="1.7773" fill="none" stroke="#F7BD13" stroke-width=".72" connectorname="YOUT"/>
   <path d="m117.38 34.152h3.5546v8.1757h-3.5546v-8.1757m0 4.0878a1.7773 1.7773 0 1 0 3.5546 0 1.7773 1.7773 0 1 0-3.5546 0z" fill="#F7BD13" stroke-width="0"/>
   <circle id="connector113pad" cx="104.76" cy="38.239" r="1.7773" fill="none" stroke="#F7BD13" stroke-width=".72" connectorname="3.3V"/>
   <path d="m102.98 34.152h3.5546v8.1757h-3.5546v-8.1757m0 4.0878a1.7773 1.7773 0 1 0 3.5546 0 1.7773 1.7773 0 1 0-3.5546 0z" fill="#F7BD13" stroke-width="0"/>
   <circle id="connector115pad" cx="174.24" cy="63.439" r="1.8967" fill="none" stroke="#F7BD13" stroke-width=".95868" connectorname="GND"/>
   <circle id="connector117pad" cx="3.6" cy="63.439" r="1.8967" fill="none" stroke="#F7BD13" stroke-width=".95868" connectorname="GND"/>
   <circle id="connector119pad" cx="18" cy="63.439" r="1.8967" fill="none" stroke="#F7BD13" stroke-width=".95868" connectorname="GND"/>
   <circle id="connector121pad" cx="114.84" cy="76.399" r="1.7773" fill="none" stroke="#F7BD13" stroke-width=".72" connectorname="GND"/>
   <path d="m113.06 72.312h3.5546v8.1757h-3.5546v-8.1757m0 4.0874a1.7773 1.7773 0 1 0 3.5546 0 1.7773 1.7773 0 1 0-3.5546 0z" fill="#F7BD13" stroke-width="0"/>
   <circle id="connector123pad" cx="146.16" cy="76.399" r="1.7773" fill="none" stroke="#F7BD13" stroke-width=".72" connectorname="GND"/>
   <path d="m144.38 72.312h3.5546v8.1757h-3.5546v-8.1757m0 4.0874a1.7773 1.7773 0 1 0 3.5546 0 1.7773 1.7773 0 1 0-3.5546 0z" fill="#F7BD13" stroke-width="0"/>
   <circle id="connector125pad" cx="175.68" cy="47.599" r="1.7773" fill="none" stroke="#F7BD13" stroke-width=".72" connectorname="GND"/>
   <path d="m171.59 45.822h8.1757v3.5546h-8.1757v-3.5546m2.31 1.7773a1.7773 1.7773 0 1 0 3.5546 0 1.7773 1.7773 0 1 0-3.5546 0z" fill="#F7BD13" stroke-width="0"/>
   <circle id="connector127pad" cx="63.72" cy="76.399" r="1.7773" fill="none" stroke="#F7BD13" stroke-width=".72" connectorname="GND"/>
   <path d="m61.943 72.312h3.5546v8.1757h-3.5546v-8.1757m0 4.0874a1.7773 1.7773 0 1 0 3.5546 0 1.7773 1.7773 0 1 0-3.5546 0z" fill="#F7BD13" stroke-width="0"/>
   <circle id="connector129pad" cx="32.04" cy="76.399" r="1.7773" fill="none" stroke="#F7BD13" stroke-width=".72" connectorname="GND"/>
   <path d="m30.263 72.312h3.5546v8.1757h-3.5546v-8.1757m0 4.0874a1.7773 1.7773 0 1 0 3.5546 0 1.7773 1.7773 0 1 0-3.5546 0z" fill="#F7BD13" stroke-width="0"/>
   <circle id="connector131pad" cx="8.64" cy="40.399" r="1.7773" fill="none" stroke="#F7BD13" stroke-width=".72" connectorname="GND"/>
   <path d="m4.5522 38.622h8.1757v3.5546h-8.1757v-3.5546m2.3105 1.7773a1.7773 1.7773 0 1 0 3.5546 0 1.7773 1.7773 0 1 0-3.5546 0z" fill="#F7BD13" stroke-width="0"/>
   <circle id="connector143pad" cx="24.086" cy="6.3213" r="1.8258" fill="none" stroke="#F7BD13" stroke-width="1.1004" connectorname="+5V"/>
   <circle id="connector145pad" cx="31.286" cy="6.3213" r="1.8258" fill="none" stroke="#F7BD13" stroke-width="1.1004" connectorname="+5V"/>
   <circle id="connector147pad" cx="38.486" cy="6.3213" r="1.8258" fill="none" stroke="#F7BD13" stroke-width="1.1004" connectorname="GND"/>
   <circle id="connector149pad" cx="45.686" cy="6.3213" r="1.8258" fill="none" stroke="#F7BD13" stroke-width="1.1004" connectorname="TXD"/>
   <circle id="connector151pad" cx="52.886" cy="6.3213" r="1.8258" fill="none" stroke="#F7BD13" stroke-width="1.1004" connectorname="RXD"/>
   <circle id="connector153pad" cx="60.086" cy="6.3213" r="1.8258" fill="none" stroke="#F7BD13" stroke-width="1.1004" connectorname="BCLK"/>
   <circle id="connector155pad" cx="67.286" cy="6.3213" r="1.8258" fill="none" stroke="#F7BD13" stroke-width="1.1004" connectorname="GND"/>
   <circle id="connector157pad" cx="74.486" cy="6.3213" r="1.8258" fill="none" stroke="#F7BD13" stroke-width="1.1004" connectorname="GPIO23"/>
   <circle id="connector159pad" cx="81.686" cy="6.3213" r="1.8258" fill="none" stroke="#F7BD13" stroke-width="1.1004" connectorname="GPIO24"/>
   <circle id="connector161pad" cx="88.886" cy="6.3213" r="1.8258" fill="none" stroke="#F7BD13" stroke-width="1.1004" connectorname="GND"/>
   <circle id="connector163pad" cx="96.086" cy="6.3213" r="1.8258" fill="none" stroke="#F7BD13" stroke-width="1.1004" connectorname="GPIO25"/>
   <circle id="connector165pad" cx="103.29" cy="6.3213" r="1.8258" fill="none" stroke="#F7BD13" stroke-width="1.1004" connectorname="SPI_CE0"/>
   <circle id="connector167pad" cx="110.49" cy="6.3213" r="1.8258" fill="none" stroke="#F7BD13" stroke-width="1.1004" connectorname="SPI_CE1"/>
   <circle id="connector169pad" cx="117.69" cy="6.3213" r="1.8258" fill="none" stroke="#F7BD13" stroke-width="1.1004" connectorname="EECLK"/>
   <circle id="connector171pad" cx="124.89" cy="6.3213" r="1.8258" fill="none" stroke="#F7BD13" stroke-width="1.1004" connectorname="GND"/>
   <circle id="connector173pad" cx="132.09" cy="6.3213" r="1.8258" fill="none" stroke="#F7BD13" stroke-width="1.1004" connectorname="GPIO12"/>
   <circle id="connector175pad" cx="139.29" cy="6.3213" r="1.8258" fill="none" stroke="#F7BD13" stroke-width="1.1004" connectorname="GND"/>
   <circle id="connector177pad" cx="146.49" cy="6.3213" r="1.8258" fill="none" stroke="#F7BD13" stroke-width="1.1004" connectorname="GPIO16"/>
   <circle id="connector179pad" cx="153.69" cy="6.3213" r="1.8258" fill="none" stroke="#F7BD13" stroke-width="1.1004" connectorname="GPIO20"/>
   <circle id="connector181pad" cx="160.89" cy="6.3213" r="1.8258" fill="none" stroke="#F7BD13" stroke-width="1.1004" connectorname="DIN"/>
   <circle id="connector183pad" cx="87.701" cy="73.519" r="2.2567" fill="none" stroke="#F7BD13" stroke-width="1.6787" connectorname="VO+"/>
  </g>
 </g>
</svg>
