<?xml version="1.0" encoding="UTF-8"?>
<!-- Created with Fritzing (http://www.fritzing.org/) -->
<svg width="1.7549in" height="1.7549in" baseProfile="tiny" version="1.2" viewBox="0 0 126.35 126.35" xmlns="http://www.w3.org/2000/svg">
 <desc>
  <referenceFile>Adafruit 16 NeoPixel Ring_pcb.svg</referenceFile>
 </desc>
 <desc>Fritzing footprint generated by brd2svg</desc>
 <g id="silkscreen">
  <path d="m0.288 63a62.712 62.712 0 1 1 125.42 0 62.712 62.712 0 1 1-125.42 0z" fill="none" stroke="#fff" stroke-width=".576"/>
  <g>
   <title>element:LED2</title>
   <g>
    <title>package:WS2812B-NARROW</title>
    <line x1="52.027" x2="38.933" y1="17.443" y2="22.867" stroke="#fff" stroke-linecap="round" stroke-width=".36"/>
    <line x1="38.933" x2="34.485" y1="22.867" y2="12.13" stroke="#fff" stroke-linecap="round" stroke-width=".36"/>
    <line x1="34.485" x2="33.509" y1="12.13" y2="9.7728" stroke="#fff" stroke-linecap="round" stroke-width=".36"/>
    <line x1="33.509" x2="35.866" y1="9.7728" y2="8.7965" stroke="#fff" stroke-linecap="round" stroke-width=".36"/>
    <line x1="35.866" x2="46.603" y1="8.7965" y2="4.3489" stroke="#fff" stroke-linecap="round" stroke-width=".36"/>
    <line x1="46.603" x2="52.027" y1="4.3489" y2="17.443" stroke="#fff" stroke-linecap="round" stroke-width=".36"/>
    <line x1="34.485" x2="35.866" y1="12.13" y2="8.7965" stroke="#fff" stroke-linecap="round" stroke-width=".36"/>
    <line x1="35.866" x2="36.403" y1="8.7965" y2="7.5002" stroke="#fff" stroke-linecap="round" stroke-width=".36"/>
    <line x1="36.403" x2="34.736" y1="7.5002" y2="6.8098" stroke="#fff" stroke-linecap="round" stroke-width=".36"/>
    <line x1="34.736" x2="33.509" y1="6.8098" y2="9.7728" stroke="#fff" stroke-linecap="round" stroke-width=".36"/>
    <circle cx="42.768" cy="13.608" r="4.8769" fill="none" stroke="#fff" stroke-width=".36"/>
   </g>
  </g>
  <g>
   <title>element:LED3</title>
   <g>
    <title>package:WS2812B-NARROW</title>
    <line x1="35.222" x2="25.2" y1="24.84" y2="34.862" stroke="#fff" stroke-linecap="round" stroke-width=".36"/>
    <line x1="25.2" x2="16.982" y1="34.862" y2="26.644" stroke="#fff" stroke-linecap="round" stroke-width=".36"/>
    <line x1="16.982" x2="15.178" y1="26.644" y2="24.84" stroke="#fff" stroke-linecap="round" stroke-width=".36"/>
    <line x1="15.178" x2="16.982" y1="24.84" y2="23.036" stroke="#fff" stroke-linecap="round" stroke-width=".36"/>
    <line x1="16.982" x2="25.2" y1="23.036" y2="14.818" stroke="#fff" stroke-linecap="round" stroke-width=".36"/>
    <line x1="25.2" x2="35.222" y1="14.818" y2="24.84" stroke="#fff" stroke-linecap="round" stroke-width=".36"/>
    <line x1="16.982" x2="16.982" y1="26.644" y2="23.036" stroke="#fff" stroke-linecap="round" stroke-width=".36"/>
    <line x1="16.982" x2="16.982" y1="23.036" y2="21.633" stroke="#fff" stroke-linecap="round" stroke-width=".36"/>
    <line x1="16.982" x2="15.178" y1="21.633" y2="21.633" stroke="#fff" stroke-linecap="round" stroke-width=".36"/>
    <line x1="15.178" x2="15.178" y1="21.633" y2="24.84" stroke="#fff" stroke-linecap="round" stroke-width=".36"/>
    <circle cx="25.2" cy="24.84" r="4.8769" fill="none" stroke="#fff" stroke-width=".36"/>
   </g>
  </g>
  <g>
   <title>element:LED4</title>
   <g>
    <title>package:WS2812B-NARROW</title>
    <line x1="22.579" x2="17.155" y1="39.005" y2="52.099" stroke="#fff" stroke-linecap="round" stroke-width=".36"/>
    <line x1="17.155" x2="6.4179" y1="52.099" y2="47.652" stroke="#fff" stroke-linecap="round" stroke-width=".36"/>
    <line x1="6.4179" x2="4.0609" y1="47.652" y2="46.675" stroke="#fff" stroke-linecap="round" stroke-width=".36"/>
    <line x1="4.0609" x2="5.0372" y1="46.675" y2="44.318" stroke="#fff" stroke-linecap="round" stroke-width=".36"/>
    <line x1="5.0372" x2="9.4848" y1="44.318" y2="33.581" stroke="#fff" stroke-linecap="round" stroke-width=".36"/>
    <line x1="9.4848" x2="22.579" y1="33.581" y2="39.005" stroke="#fff" stroke-linecap="round" stroke-width=".36"/>
    <line x1="6.4179" x2="5.0372" y1="47.652" y2="44.318" stroke="#fff" stroke-linecap="round" stroke-width=".36"/>
    <line x1="5.0372" x2="4.5003" y1="44.318" y2="43.022" stroke="#fff" stroke-linecap="round" stroke-width=".36"/>
    <line x1="4.5003" x2="2.8336" y1="43.022" y2="43.712" stroke="#fff" stroke-linecap="round" stroke-width=".36"/>
    <line x1="2.8336" x2="4.0609" y1="43.712" y2="46.675" stroke="#fff" stroke-linecap="round" stroke-width=".36"/>
    <circle cx="13.32" cy="42.84" r="4.8769" fill="none" stroke="#fff" stroke-width=".36"/>
   </g>
  </g>
  <g>
   <title>element:LED6</title>
   <g>
    <title>package:WS2812B-NARROW</title>
    <line x1="17.515" x2="22.939" y1="73.901" y2="86.995" stroke="#fff" stroke-linecap="round" stroke-width=".36"/>
    <line x1="22.939" x2="12.202" y1="86.995" y2="91.443" stroke="#fff" stroke-linecap="round" stroke-width=".36"/>
    <line x1="12.202" x2="9.8448" y1="91.443" y2="92.419" stroke="#fff" stroke-linecap="round" stroke-width=".36"/>
    <line x1="9.8448" x2="8.8685" y1="92.419" y2="90.062" stroke="#fff" stroke-linecap="round" stroke-width=".36"/>
    <line x1="8.8685" x2="4.4209" y1="90.062" y2="79.325" stroke="#fff" stroke-linecap="round" stroke-width=".36"/>
    <line x1="4.4209" x2="17.515" y1="79.325" y2="73.901" stroke="#fff" stroke-linecap="round" stroke-width=".36"/>
    <line x1="12.202" x2="8.8685" y1="91.443" y2="90.062" stroke="#fff" stroke-linecap="round" stroke-width=".36"/>
    <line x1="8.8685" x2="7.5722" y1="90.062" y2="89.526" stroke="#fff" stroke-linecap="round" stroke-width=".36"/>
    <line x1="7.5722" x2="6.8818" y1="89.526" y2="91.192" stroke="#fff" stroke-linecap="round" stroke-width=".36"/>
    <line x1="6.8818" x2="9.8448" y1="91.192" y2="92.419" stroke="#fff" stroke-linecap="round" stroke-width=".36"/>
    <circle cx="13.68" cy="83.16" r="4.8769" fill="none" stroke="#fff" stroke-width=".36"/>
   </g>
  </g>
  <g>
   <title>element:LED7</title>
   <g>
    <title>package:WS2812B-NARROW</title>
    <line x1="25.128" x2="35.15" y1="90.562" y2="100.58" stroke="#fff" stroke-linecap="round" stroke-width=".36"/>
    <line x1="35.15" x2="26.932" y1="100.58" y2="108.8" stroke="#fff" stroke-linecap="round" stroke-width=".36"/>
    <line x1="26.932" x2="25.128" y1="108.8" y2="110.61" stroke="#fff" stroke-linecap="round" stroke-width=".36"/>
    <line x1="25.128" x2="23.324" y1="110.61" y2="108.8" stroke="#fff" stroke-linecap="round" stroke-width=".36"/>
    <line x1="23.324" x2="15.106" y1="108.8" y2="100.58" stroke="#fff" stroke-linecap="round" stroke-width=".36"/>
    <line x1="15.106" x2="25.128" y1="100.58" y2="90.562" stroke="#fff" stroke-linecap="round" stroke-width=".36"/>
    <line x1="26.932" x2="23.324" y1="108.8" y2="108.8" stroke="#fff" stroke-linecap="round" stroke-width=".36"/>
    <line x1="23.324" x2="21.921" y1="108.8" y2="108.8" stroke="#fff" stroke-linecap="round" stroke-width=".36"/>
    <line x1="21.921" x2="21.921" y1="108.8" y2="110.61" stroke="#fff" stroke-linecap="round" stroke-width=".36"/>
    <line x1="21.921" x2="25.128" y1="110.61" y2="110.61" stroke="#fff" stroke-linecap="round" stroke-width=".36"/>
    <circle cx="25.128" cy="100.58" r="4.8769" fill="none" stroke="#fff" stroke-width=".36"/>
   </g>
  </g>
  <g>
   <title>element:LED8</title>
   <g>
    <title>package:WS2812B-NARROW</title>
    <line x1="38.933" x2="52.027" y1="103.49" y2="108.92" stroke="#fff" stroke-linecap="round" stroke-width=".36"/>
    <line x1="52.027" x2="47.58" y1="108.92" y2="119.65" stroke="#fff" stroke-linecap="round" stroke-width=".36"/>
    <line x1="47.58" x2="46.603" y1="119.65" y2="122.01" stroke="#fff" stroke-linecap="round" stroke-width=".36"/>
    <line x1="46.603" x2="44.246" y1="122.01" y2="121.04" stroke="#fff" stroke-linecap="round" stroke-width=".36"/>
    <line x1="44.246" x2="33.509" y1="121.04" y2="116.59" stroke="#fff" stroke-linecap="round" stroke-width=".36"/>
    <line x1="33.509" x2="38.933" y1="116.59" y2="103.49" stroke="#fff" stroke-linecap="round" stroke-width=".36"/>
    <line x1="47.58" x2="44.246" y1="119.65" y2="121.04" stroke="#fff" stroke-linecap="round" stroke-width=".36"/>
    <line x1="44.246" x2="42.95" y1="121.04" y2="121.57" stroke="#fff" stroke-linecap="round" stroke-width=".36"/>
    <line x1="42.95" x2="43.64" y1="121.57" y2="123.24" stroke="#fff" stroke-linecap="round" stroke-width=".36"/>
    <line x1="43.64" x2="46.603" y1="123.24" y2="122.01" stroke="#fff" stroke-linecap="round" stroke-width=".36"/>
    <circle cx="42.768" cy="112.75" r="4.8769" fill="none" stroke="#fff" stroke-width=".36"/>
   </g>
  </g>
  <g>
   <title>element:LED10</title>
   <g>
    <title>package:WS2812B-NARROW</title>
    <line x1="74.261" x2="87.355" y1="109.2" y2="103.78" stroke="#fff" stroke-linecap="round" stroke-width=".36"/>
    <line x1="87.355" x2="91.803" y1="103.78" y2="114.52" stroke="#fff" stroke-linecap="round" stroke-width=".36"/>
    <line x1="91.803" x2="92.779" y1="114.52" y2="116.88" stroke="#fff" stroke-linecap="round" stroke-width=".36"/>
    <line x1="92.779" x2="90.422" y1="116.88" y2="117.85" stroke="#fff" stroke-linecap="round" stroke-width=".36"/>
    <line x1="90.422" x2="79.685" y1="117.85" y2="122.3" stroke="#fff" stroke-linecap="round" stroke-width=".36"/>
    <line x1="79.685" x2="74.261" y1="122.3" y2="109.2" stroke="#fff" stroke-linecap="round" stroke-width=".36"/>
    <line x1="91.803" x2="90.422" y1="114.52" y2="117.85" stroke="#fff" stroke-linecap="round" stroke-width=".36"/>
    <line x1="90.422" x2="89.886" y1="117.85" y2="119.15" stroke="#fff" stroke-linecap="round" stroke-width=".36"/>
    <line x1="89.886" x2="91.552" y1="119.15" y2="119.84" stroke="#fff" stroke-linecap="round" stroke-width=".36"/>
    <line x1="91.552" x2="92.779" y1="119.84" y2="116.88" stroke="#fff" stroke-linecap="round" stroke-width=".36"/>
    <circle cx="83.52" cy="113.04" r="4.8769" fill="none" stroke="#fff" stroke-width=".36"/>
   </g>
  </g>
  <g>
   <title>element:LED11</title>
   <g>
    <title>package:WS2812B-NARROW</title>
    <line x1="91.138" x2="101.16" y1="101.16" y2="91.138" stroke="#fff" stroke-linecap="round" stroke-width=".36"/>
    <line x1="101.16" x2="109.38" y1="91.138" y2="99.356" stroke="#fff" stroke-linecap="round" stroke-width=".36"/>
    <line x1="109.38" x2="111.18" y1="99.356" y2="101.16" stroke="#fff" stroke-linecap="round" stroke-width=".36"/>
    <line x1="111.18" x2="109.38" y1="101.16" y2="102.96" stroke="#fff" stroke-linecap="round" stroke-width=".36"/>
    <line x1="109.38" x2="101.16" y1="102.96" y2="111.18" stroke="#fff" stroke-linecap="round" stroke-width=".36"/>
    <line x1="101.16" x2="91.138" y1="111.18" y2="101.16" stroke="#fff" stroke-linecap="round" stroke-width=".36"/>
    <line x1="109.38" x2="109.38" y1="99.356" y2="102.96" stroke="#fff" stroke-linecap="round" stroke-width=".36"/>
    <line x1="109.38" x2="109.38" y1="102.96" y2="104.37" stroke="#fff" stroke-linecap="round" stroke-width=".36"/>
    <line x1="109.38" x2="111.18" y1="104.37" y2="104.37" stroke="#fff" stroke-linecap="round" stroke-width=".36"/>
    <line x1="111.18" x2="111.18" y1="104.37" y2="101.16" stroke="#fff" stroke-linecap="round" stroke-width=".36"/>
    <circle cx="101.16" cy="101.16" r="4.8769" fill="none" stroke="#fff" stroke-width=".36"/>
   </g>
  </g>
  <g>
   <title>element:LED12</title>
   <g>
    <title>package:WS2812B-NARROW</title>
    <line x1="103.78" x2="109.2" y1="87.355" y2="74.261" stroke="#fff" stroke-linecap="round" stroke-width=".36"/>
    <line x1="109.2" x2="119.94" y1="74.261" y2="78.708" stroke="#fff" stroke-linecap="round" stroke-width=".36"/>
    <line x1="119.94" x2="122.3" y1="78.708" y2="79.685" stroke="#fff" stroke-linecap="round" stroke-width=".36"/>
    <line x1="122.3" x2="121.32" y1="79.685" y2="82.042" stroke="#fff" stroke-linecap="round" stroke-width=".36"/>
    <line x1="121.32" x2="116.88" y1="82.042" y2="92.779" stroke="#fff" stroke-linecap="round" stroke-width=".36"/>
    <line x1="116.88" x2="103.78" y1="92.779" y2="87.355" stroke="#fff" stroke-linecap="round" stroke-width=".36"/>
    <line x1="119.94" x2="121.32" y1="78.708" y2="82.042" stroke="#fff" stroke-linecap="round" stroke-width=".36"/>
    <line x1="121.32" x2="121.86" y1="82.042" y2="83.338" stroke="#fff" stroke-linecap="round" stroke-width=".36"/>
    <line x1="121.86" x2="123.53" y1="83.338" y2="82.647" stroke="#fff" stroke-linecap="round" stroke-width=".36"/>
    <line x1="123.53" x2="122.3" y1="82.647" y2="79.685" stroke="#fff" stroke-linecap="round" stroke-width=".36"/>
    <circle cx="113.04" cy="83.52" r="4.8769" fill="none" stroke="#fff" stroke-width=".36"/>
   </g>
  </g>
  <g>
   <title>element:LED14</title>
   <g>
    <title>package:WS2812B-NARROW</title>
    <line x1="109.2" x2="103.78" y1="51.739" y2="38.645" stroke="#fff" stroke-linecap="round" stroke-width=".36"/>
    <line x1="103.78" x2="114.52" y1="38.645" y2="34.197" stroke="#fff" stroke-linecap="round" stroke-width=".36"/>
    <line x1="114.52" x2="116.88" y1="34.197" y2="33.221" stroke="#fff" stroke-linecap="round" stroke-width=".36"/>
    <line x1="116.88" x2="117.85" y1="33.221" y2="35.578" stroke="#fff" stroke-linecap="round" stroke-width=".36"/>
    <line x1="117.85" x2="122.3" y1="35.578" y2="46.315" stroke="#fff" stroke-linecap="round" stroke-width=".36"/>
    <line x1="122.3" x2="109.2" y1="46.315" y2="51.739" stroke="#fff" stroke-linecap="round" stroke-width=".36"/>
    <line x1="114.52" x2="117.85" y1="34.197" y2="35.578" stroke="#fff" stroke-linecap="round" stroke-width=".36"/>
    <line x1="117.85" x2="119.15" y1="35.578" y2="36.115" stroke="#fff" stroke-linecap="round" stroke-width=".36"/>
    <line x1="119.15" x2="119.84" y1="36.115" y2="34.448" stroke="#fff" stroke-linecap="round" stroke-width=".36"/>
    <line x1="119.84" x2="116.88" y1="34.448" y2="33.221" stroke="#fff" stroke-linecap="round" stroke-width=".36"/>
    <circle cx="113.04" cy="42.48" r="4.8769" fill="none" stroke="#fff" stroke-width=".36"/>
   </g>
  </g>
  <g>
   <title>element:LED15</title>
   <g>
    <title>package:WS2812B-NARROW</title>
    <line x1="101.52" x2="91.498" y1="35.222" y2="25.2" stroke="#fff" stroke-linecap="round" stroke-width=".36"/>
    <line x1="91.498" x2="99.716" y1="25.2" y2="16.982" stroke="#fff" stroke-linecap="round" stroke-width=".36"/>
    <line x1="99.716" x2="101.52" y1="16.982" y2="15.178" stroke="#fff" stroke-linecap="round" stroke-width=".36"/>
    <line x1="101.52" x2="103.32" y1="15.178" y2="16.982" stroke="#fff" stroke-linecap="round" stroke-width=".36"/>
    <line x1="103.32" x2="111.54" y1="16.982" y2="25.2" stroke="#fff" stroke-linecap="round" stroke-width=".36"/>
    <line x1="111.54" x2="101.52" y1="25.2" y2="35.222" stroke="#fff" stroke-linecap="round" stroke-width=".36"/>
    <line x1="99.716" x2="103.32" y1="16.982" y2="16.982" stroke="#fff" stroke-linecap="round" stroke-width=".36"/>
    <line x1="103.32" x2="104.73" y1="16.982" y2="16.982" stroke="#fff" stroke-linecap="round" stroke-width=".36"/>
    <line x1="104.73" x2="104.73" y1="16.982" y2="15.178" stroke="#fff" stroke-linecap="round" stroke-width=".36"/>
    <line x1="104.73" x2="101.52" y1="15.178" y2="15.178" stroke="#fff" stroke-linecap="round" stroke-width=".36"/>
    <circle cx="101.52" cy="25.2" r="4.8769" fill="none" stroke="#fff" stroke-width=".36"/>
   </g>
  </g>
  <g>
   <title>element:LED16</title>
   <g>
    <title>package:WS2812B-NARROW</title>
    <line x1="87.355" x2="74.261" y1="22.651" y2="17.227" stroke="#fff" stroke-linecap="round" stroke-width=".36"/>
    <line x1="74.261" x2="78.708" y1="17.227" y2="6.4899" stroke="#fff" stroke-linecap="round" stroke-width=".36"/>
    <line x1="78.708" x2="79.685" y1="6.4899" y2="4.1329" stroke="#fff" stroke-linecap="round" stroke-width=".36"/>
    <line x1="79.685" x2="82.042" y1="4.1329" y2="5.1092" stroke="#fff" stroke-linecap="round" stroke-width=".36"/>
    <line x1="82.042" x2="92.779" y1="5.1092" y2="9.5568" stroke="#fff" stroke-linecap="round" stroke-width=".36"/>
    <line x1="92.779" x2="87.355" y1="9.5568" y2="22.651" stroke="#fff" stroke-linecap="round" stroke-width=".36"/>
    <line x1="78.708" x2="82.042" y1="6.4899" y2="5.1092" stroke="#fff" stroke-linecap="round" stroke-width=".36"/>
    <line x1="82.042" x2="83.338" y1="5.1092" y2="4.5723" stroke="#fff" stroke-linecap="round" stroke-width=".36"/>
    <line x1="83.338" x2="82.647" y1="4.5723" y2="2.9056" stroke="#fff" stroke-linecap="round" stroke-width=".36"/>
    <line x1="82.647" x2="79.685" y1="2.9056" y2="4.1329" stroke="#fff" stroke-linecap="round" stroke-width=".36"/>
    <circle cx="83.52" cy="13.392" r="4.8769" fill="none" stroke="#fff" stroke-width=".36"/>
   </g>
  </g>
  <line x1="55.553" x2="69.727" y1="126.07" y2="126.07" fill="none" stroke="#fff" stroke-width=".576"/>
  <line x1="55.553" x2="55.553" y1="126.07" y2="126" fill="none" stroke="#fff" stroke-width=".576"/>
  <line x1="69.727" x2="69.727" y1="126.07" y2="126" fill="none" stroke="#fff" stroke-width=".576"/>
  <line x1="126" x2="126.07" y1="70.807" y2="70.807" fill="none" stroke="#fff" stroke-width=".576"/>
  <line x1="126" x2="126.07" y1="56.633" y2="56.633" fill="none" stroke="#fff" stroke-width=".576"/>
  <line x1="126.07" x2="126.07" y1="70.807" y2="56.633" fill="none" stroke="#fff" stroke-width=".576"/>
 </g>
 <g id="copper1">
  <g id="copper0" fill="none" stroke="#F7BD13" stroke-width="1.08">
   <circle id="connector18pad" cx="30.024" cy="13.248" r="1.98" connectorname="IN"/>
   <circle id="connector19pad" cx="74.664" cy="4.464" r="1.98" connectorname="OUT"/>
   <circle id="connector20pad" cx="13.248" cy="95.976" r="1.98" connectorname="+5V"/>
   <circle id="connector21pad" cx="96.12" cy="112.68" r="1.98" connectorname="GND"/>
   <circle id="connector22pad" cx="4.464" cy="74.304" r="1.98" connectorname="+5V"/>
   <circle id="connector23pad" cx="112.68" cy="96.048" r="1.98" connectorname="GND"/>
  </g>
 </g>
</svg>
