<?xml version="1.0" encoding="UTF-8"?>
<!-- Created with Fritzing (http://www.fritzing.org/) -->
<svg width="1.4in" height="2.325in" baseProfile="tiny" version="1.2" viewBox="0 0 100.8 167.4" xmlns="http://www.w3.org/2000/svg">
 <desc>
  <referenceFile>2.0in SPI 240x320 rev B_pcb.svg</referenceFile>
 </desc>
 <desc>Fritzing footprint generated by brd2svg</desc>
 <g id="silkscreen">
  <path d="m0.288 159.94v-152.47a6.912 6.912 0 0 1 7.1589-7.1752h85.906a6.912 6.912 0 0 1 7.159 7.1752v152.47a6.912 6.912 0 0 1-7.159 7.176h-85.906a6.912 6.912 0 0 1-7.1589-7.176" fill="none" stroke="#fff" stroke-width=".576"/>
  <g>
   <title>element:CN1</title>
   <g>
    <title>package:MICROSD</title>
   </g>
  </g>
  <g>
   <title>element:DISP1</title>
   <g>
    <title>package:TFT_2.0IN_240X320_12P</title>
    <line x1="1.1764" x2="99.255" y1="14.924" y2="14.924" stroke="#fff" stroke-linecap="round" stroke-width=".576"/>
    <line x1="99.255" x2="99.255" y1="14.924" y2="150.99" stroke="#fff" stroke-linecap="round" stroke-width=".576"/>
    <line x1="99.255" x2="1.1764" y1="150.99" y2="150.99" stroke="#fff" stroke-linecap="round" stroke-width=".576"/>
    <line x1="1.1764" x2="1.1764" y1="150.99" y2="14.924" stroke="#fff" stroke-linecap="round" stroke-width=".576"/>
    <line x1="40.493" x2="71.39" y1="107.05" y2="107.05" stroke="#fff" stroke-linecap="round" stroke-width=".576"/>
   </g>
  </g>
  <g>
   <title>element:JP1</title>
   <g>
    <title>package:1X11_ROUND_76</title>
   </g>
  </g>
  <g>
   <title>element:U$20</title>
   <g>
    <title>package:ADAFRUIT_TEXT_30MM</title>
   </g>
  </g>
  <g>
   <title>element:U3</title>
   <g>
    <title>package:SOIC16</title>
   </g>
  </g>
 </g>
 <g id="copper1">
  <g id="copper0" fill="none" stroke="#F7BD13">
   <circle id="connector18pad" cx="79.2" cy="160.2" r="2.0767" stroke-width="1.3187" connectorname="SDCS_5V"/>
   <circle id="connector22pad" cx="50.4" cy="160.2" r="2.0767" stroke-width="1.3187" connectorname="MOSI_5V"/>
   <circle id="connector26pad" cx="21.6" cy="160.2" r="2.0767" stroke-width="1.3187" connectorname="3.3V"/>
   <circle id="connector20pad" cx="64.8" cy="160.2" r="2.0767" stroke-width="1.3187" connectorname="RESET_5V"/>
   <circle id="connector24pad" cx="36" cy="160.2" r="2.0767" stroke-width="1.3187" connectorname="SCLK_5V"/>
   <circle id="connector28pad" cx="7.2" cy="7.2" r="4.2633" stroke-width="1.44" connectorname="P$1"/>
   <circle id="connector19pad" cx="72" cy="160.2" r="2.0767" stroke-width="1.3187" connectorname="DC_5V"/>
   <circle id="connector21pad" cx="57.6" cy="160.2" r="2.0767" stroke-width="1.3187" connectorname="LCDCS_5V"/>
   <circle id="connector23pad" cx="43.2" cy="160.2" r="2.0767" stroke-width="1.3187" connectorname="MISO"/>
   <circle id="connector25pad" cx="28.8" cy="160.2" r="2.0767" stroke-width="1.3187" connectorname="GND"/>
   <circle id="connector27pad" cx="14.4" cy="160.2" r="2.0767" stroke-width="1.3187" connectorname="VIN"/>
   <circle id="connector29pad" cx="93.6" cy="7.2" r="4.2633" stroke-width="1.44" connectorname="P$1"/>
   <circle id="connector17pad" cx="86.4" cy="160.2" r="2.0767" stroke-width="1.3187" connectorname="BACKLIGHT"/>
  </g>
 </g>
</svg>
