<?xml version="1.0" encoding="UTF-8"?>
<!-- Created with Fritzing (http://www.fritzing.org/) -->
<svg width="2.6493in" height=".72835in" baseProfile="tiny" version="1.2" viewBox="0 0 190.75 52.441" xmlns="http://www.w3.org/2000/svg">
 <desc>
  <referenceFile>Adafruit Sparkle Motion Stick_pcb.svg</referenceFile>
 </desc>
 <desc>Fritzing footprint generated by brd2svg</desc>
 <g id="silkscreen">
  <path d="m41.8 4.7736h7.0652v-4.4856h40.413v6.5882h11.587v-6.5882h56.804v7.7097h32.703v36.446h-32.703v7.7096h-56.804v-6.5882h-11.587v6.5882h-40.413v-4.4856h-7.0652v-42.894m7.5269 27.825a1.271 1.271 0 1 0 2.5421 0 1.271 1.271 0 1 0-2.5421 0zm0-12.756a1.271 1.271 0 1 0 2.5421 0 1.271 1.271 0 1 0-2.5421 0z" fill="none" stroke="#fff" stroke-width=".576"/>
  <g>
   <title>element:JP1</title>
   <g>
    <title>package:1X04_2.54MMTERMINAL</title>
    <line x1="172.89" x2="172.89" y1="41.528" y2="10.913" stroke="#fff" stroke-linecap="round" stroke-width=".432"/>
    <line x1="172.89" x2="190.75" y1="10.913" y2="10.913" stroke="#fff" stroke-linecap="round" stroke-width=".432"/>
    <line x1="190.75" x2="190.75" y1="10.913" y2="27.921" stroke="#fff" stroke-linecap="round" stroke-width=".432"/>
    <line x1="190.75" x2="190.75" y1="27.921" y2="31.606" stroke="#fff" stroke-linecap="round" stroke-width=".432"/>
    <line x1="190.75" x2="190.75" y1="35.291" y2="38.693" stroke="#fff" stroke-linecap="round" stroke-width=".432"/>
    <line x1="190.75" x2="190.75" y1="38.693" y2="41.528" stroke="#fff" stroke-linecap="round" stroke-width=".432"/>
    <line x1="190.75" x2="172.89" y1="41.528" y2="41.528" stroke="#fff" stroke-linecap="round" stroke-width=".432"/>
    <line x1="190.75" x2="187.35" y1="38.693" y2="38.693" stroke="#fff" stroke-linecap="round" stroke-width=".432"/>
    <line x1="187.35" x2="187.35" y1="38.693" y2="35.291" stroke="#fff" stroke-linecap="round" stroke-width=".432"/>
    <line x1="187.35" x2="190.75" y1="35.291" y2="35.291" stroke="#fff" stroke-linecap="round" stroke-width=".432"/>
    <line x1="190.75" x2="190.75" y1="35.291" y2="31.606" stroke="#fff" stroke-linecap="round" stroke-width=".432"/>
    <line x1="190.75" x2="187.35" y1="31.606" y2="31.606" stroke="#fff" stroke-linecap="round" stroke-width=".432"/>
    <line x1="187.35" x2="187.35" y1="31.606" y2="27.921" stroke="#fff" stroke-linecap="round" stroke-width=".432"/>
    <line x1="187.35" x2="190.75" y1="27.921" y2="27.921" stroke="#fff" stroke-linecap="round" stroke-width=".432"/>
    <line x1="190.75" x2="187.35" y1="24.293" y2="24.293" stroke="#fff" stroke-linecap="round" stroke-width=".432"/>
    <line x1="187.35" x2="187.35" y1="24.293" y2="20.891" stroke="#fff" stroke-linecap="round" stroke-width=".432"/>
    <line x1="187.35" x2="190.75" y1="20.891" y2="20.891" stroke="#fff" stroke-linecap="round" stroke-width=".432"/>
    <line x1="190.75" x2="187.35" y1="17.093" y2="17.093" stroke="#fff" stroke-linecap="round" stroke-width=".432"/>
    <line x1="187.35" x2="187.35" y1="17.093" y2="13.691" stroke="#fff" stroke-linecap="round" stroke-width=".432"/>
    <line x1="187.35" x2="190.75" y1="13.691" y2="13.691" stroke="#fff" stroke-linecap="round" stroke-width=".432"/>
    <line x1="188.2" x2="189.9" y1="36.992" y2="36.992" stroke="#fff" stroke-linecap="round" stroke-width=".432"/>
    <line x1="189.9" x2="189.05" y1="36.992" y2="37.843" stroke="#fff" stroke-linecap="round" stroke-width=".432"/>
    <line x1="189.05" x2="189.05" y1="37.843" y2="36.142" stroke="#fff" stroke-linecap="round" stroke-width=".432"/>
    <line x1="189.05" x2="189.9" y1="36.142" y2="36.992" stroke="#fff" stroke-linecap="round" stroke-width=".432"/>
    <line x1="188.2" x2="189.9" y1="29.792" y2="29.792" stroke="#fff" stroke-linecap="round" stroke-width=".432"/>
    <line x1="189.9" x2="189.05" y1="29.792" y2="30.643" stroke="#fff" stroke-linecap="round" stroke-width=".432"/>
    <line x1="189.05" x2="189.05" y1="30.643" y2="28.942" stroke="#fff" stroke-linecap="round" stroke-width=".432"/>
    <line x1="189.05" x2="189.9" y1="28.942" y2="29.792" stroke="#fff" stroke-linecap="round" stroke-width=".432"/>
    <line x1="188.2" x2="189.9" y1="22.592" y2="22.592" stroke="#fff" stroke-linecap="round" stroke-width=".432"/>
    <line x1="189.9" x2="189.05" y1="22.592" y2="23.443" stroke="#fff" stroke-linecap="round" stroke-width=".432"/>
    <line x1="189.05" x2="189.05" y1="23.443" y2="21.742" stroke="#fff" stroke-linecap="round" stroke-width=".432"/>
    <line x1="189.05" x2="189.9" y1="21.742" y2="22.592" stroke="#fff" stroke-linecap="round" stroke-width=".432"/>
    <line x1="188.2" x2="189.9" y1="15.392" y2="15.392" stroke="#fff" stroke-linecap="round" stroke-width=".432"/>
    <line x1="189.9" x2="189.05" y1="15.392" y2="16.243" stroke="#fff" stroke-linecap="round" stroke-width=".432"/>
    <line x1="189.05" x2="189.05" y1="16.243" y2="14.542" stroke="#fff" stroke-linecap="round" stroke-width=".432"/>
    <line x1="189.05" x2="189.9" y1="14.542" y2="15.392" stroke="#fff" stroke-linecap="round" stroke-width=".432"/>
   </g>
  </g>
  <g>
   <title>element:PLABEL2</title>
   <g>
    <title>package:PLABEL2</title>
   </g>
  </g>
  <g>
   <title>element:PLABEL14</title>
   <g>
    <title>package:PLABEL14</title>
   </g>
  </g>
  <g>
   <title>element:PLABEL15</title>
   <g>
    <title>package:PLABEL15</title>
   </g>
  </g>
  <g>
   <title>element:X1</title>
   <g>
    <title>package:USB_A-UGO4DD</title>
    <line x1="44.986" x2="41.89" y1="43.228" y2="43.228" stroke="#fff" stroke-linecap="round" stroke-width=".576"/>
    <line x1="41.89" x2="44.986" y1="9.2126" y2="9.2126" stroke="#fff" stroke-linecap="round" stroke-width=".576"/>
   </g>
  </g>
  <g>
   <title>element:X4</title>
   <g>
    <title>package:ESP32-MINI-1</title>
   </g>
  </g>
  <line x1="190.66" x2="190.46" y1="41.528" y2="41.528" fill="none" stroke="#fff" stroke-width=".576"/>
  <line x1="190.66" x2="190.46" y1="10.913" y2="10.913" fill="none" stroke="#fff" stroke-width=".576"/>
  <line x1="190.46" x2="190.46" y1="41.528" y2="10.913" fill="none" stroke="#fff" stroke-width=".576"/>
  <line x1=".288" x2="41.638" y1="44.079" y2="44.079" fill="none" stroke="#fff" stroke-width=".576"/>
  <line x1=".288" x2="41.638" y1="8.3622" y2="8.3622" fill="none" stroke="#fff" stroke-width=".576"/>
  <line x1=".288" x2=".288" y1="44.079" y2="8.3622" fill="none" stroke="#fff" stroke-width=".576"/>
 </g>
 <g id="copper1">
  <g id="copper0">
   <circle id="connector102pad" cx="50.655" cy="9.6378" r="1.9843" fill="none" stroke="#F7BD13" stroke-width="1.7008" connectorname="MNT2"/>
   <path d="m46.091 7.6535h9.1276v3.9685h-9.1276v-3.9685m2.5795 1.9842a1.9843 1.9843 0 1 0 3.9685 0 1.9843 1.9843 0 1 0-3.9685 0z" fill="#F7BD13" stroke-width="0"/>
   <circle id="connector51pad" cx="181.68" cy="37.02" r="1.7773" fill="none" stroke="#F7BD13" stroke-width=".72" connectorname="+5V"/>
   <path d="m177.59 35.243h8.1757v3.5546h-8.1757v-3.5546m2.311 1.7774a1.7773 1.7773 0 1 0 3.5546 0 1.7773 1.7773 0 1 0-3.5546 0z" fill="#F7BD13" stroke-width="0"/>
   <circle id="connector52pad" cx="181.68" cy="29.82" r="1.7773" fill="none" stroke="#F7BD13" stroke-width=".72" connectorname="S2"/>
   <path d="m177.59 28.043h8.1757v3.5546h-8.1757v-3.5546m2.311 1.7774a1.7773 1.7773 0 1 0 3.5546 0 1.7773 1.7773 0 1 0-3.5546 0z" fill="#F7BD13" stroke-width="0"/>
   <circle id="connector101pad" cx="50.655" cy="42.803" r="2.126" fill="none" stroke="#F7BD13" stroke-width="1.9843" connectorname="MNT1"/>
   <path d="m45.765 40.677h9.7795v4.252h-9.7795v-4.252m2.7638 2.1259a2.126 2.126 0 1 0 4.252 0 2.126 2.126 0 1 0-4.252 0z" fill="#F7BD13" stroke-width="0"/>
   <circle id="connector53pad" cx="181.68" cy="22.62" r="1.7773" fill="none" stroke="#F7BD13" stroke-width=".72" connectorname="S1"/>
   <path d="m177.59 20.843h8.1757v3.5546h-8.1757v-3.5546m2.311 1.7774a1.7773 1.7773 0 1 0 3.5546 0 1.7773 1.7773 0 1 0-3.5546 0z" fill="#F7BD13" stroke-width="0"/>
   <circle id="connector54pad" cx="181.68" cy="15.42" r="1.7773" fill="none" stroke="#F7BD13" stroke-width=".72" connectorname="GND"/>
   <path d="m177.59 13.643h8.1757v3.5546h-8.1757v-3.5546m2.311 1.7774a1.7773 1.7773 0 1 0 3.5546 0 1.7773 1.7773 0 1 0-3.5546 0z" fill="#F7BD13" stroke-width="0"/>
  </g>
 </g>
</svg>
