<?xml version="1.0" encoding="UTF-8"?>
<!-- Created with Fritzing (http://www.fritzing.org/) -->
<svg width="1.1969in" height=".47502in" baseProfile="tiny" version="1.2" viewBox="0 0 86.175 34.201" xmlns="http://www.w3.org/2000/svg">
 <desc>
  <referenceFile>Adafruit MicroLipo Charger v2_pcb.svg</referenceFile>
 </desc>
 <desc>Fritzing footprint generated by brd2svg</desc>
 <g id="silkscreen">
  <path d="m0.42034 3.8284a3.4031 3.4031 0 0 1 3.7547-3.5394h78.313a3.2232 3.2232 0 0 1 3.397 3.5394v26.545a3.312 3.312 0 0 1-3.5762 3.5394h-78.313a3.312 3.312 0 0 1-3.5759-3.5394v-26.545m41.852 17.953a1.1293 1.1293 0 1 0 2.2586 0 1.1293 1.1293 0 1 0-2.2586 0zm8.5039 0a1.1293 1.1293 0 1 0 2.2586 0 1.1293 1.1293 0 1 0-2.2586 0z" fill="none" stroke="#fff" stroke-width=".576"/>
  <g>
   <title>element:PLABEL9</title>
   <g>
    <title>package:PLABEL9</title>
   </g>
  </g>
  <g>
   <title>element:PLABEL10</title>
   <g>
    <title>package:PLABEL10</title>
   </g>
  </g>
  <g>
   <title>element:PLABEL11</title>
   <g>
    <title>package:PLABEL11</title>
   </g>
  </g>
  <g>
   <title>element:SW1</title>
   <g>
    <title>package:EG1390</title>
    <line x1="57.858" x2="37.448" y1="26.742" y2="26.742" stroke="#fff" stroke-linecap="round" stroke-width=".36"/>
    <line x1="37.448" x2="37.448" y1="26.742" y2="16.82" stroke="#fff" stroke-linecap="round" stroke-width=".36"/>
    <line x1="37.448" x2="57.858" y1="16.82" y2="16.82" stroke="#fff" stroke-linecap="round" stroke-width=".36"/>
    <line x1="57.858" x2="57.858" y1="16.82" y2="26.742" stroke="#fff" stroke-linecap="round" stroke-width=".36"/>
    <line x1="51.973" x2="51.973" y1="26.821" y2="23.581" stroke="#fff" stroke-linecap="round" stroke-width=".432"/>
    <line x1="51.973" x2="43.333" y1="23.581" y2="23.581" stroke="#fff" stroke-linecap="round" stroke-width=".432"/>
    <line x1="43.333" x2="43.333" y1="23.581" y2="26.821" stroke="#fff" stroke-linecap="round" stroke-width=".432"/>
   </g>
  </g>
  <g>
   <title>element:U$8</title>
   <g>
    <title>package:ADAFRUIT_TEXT_20MM</title>
   </g>
  </g>
  <g>
   <title>element:X1</title>
   <g>
    <title>package:USBA_PCB</title>
   </g>
  </g>
  <g>
   <title>element:X3</title>
   <g>
    <title>package:JSTPH2_BATT</title>
    <line x1="84.417" x2="84.417" y1="10.723" y2="23.479" stroke="#fff" stroke-linecap="round" stroke-width=".576"/>
    <line x1="74.496" x2="63.157" y1="28.44" y2="28.44" stroke="#fff" stroke-linecap="round" stroke-width=".576"/>
    <line x1="63.157" x2="63.157" y1="28.44" y2="26.03" stroke="#fff" stroke-linecap="round" stroke-width=".576"/>
    <line x1="63.157" x2="70.244" y1="26.03" y2="26.03" stroke="#fff" stroke-linecap="round" stroke-width=".576"/>
    <line x1="70.244" x2="70.244" y1="26.03" y2="22.062" stroke="#fff" stroke-linecap="round" stroke-width=".576"/>
    <line x1="70.244" x2="70.244" y1="12.14" y2="8.172" stroke="#fff" stroke-linecap="round" stroke-width=".576"/>
    <line x1="70.244" x2="63.157" y1="8.172" y2="8.172" stroke="#fff" stroke-linecap="round" stroke-width=".576"/>
    <line x1="63.157" x2="63.157" y1="8.172" y2="5.7625" stroke="#fff" stroke-linecap="round" stroke-width=".576"/>
    <line x1="63.157" x2="74.496" y1="5.7625" y2="5.7625" stroke="#fff" stroke-linecap="round" stroke-width=".576"/>
    <line x1="65.833" x2="65.833" y1="22.501" y2="25.021" stroke="#fff" stroke-linecap="round" stroke-width=".864"/>
    <line x1="64.393" x2="67.093" y1="23.761" y2="23.761" stroke="#fff" stroke-linecap="round" stroke-width=".864"/>
    <line x1="65.833" x2="65.833" y1="9.1811" y2="11.701" stroke="#fff" stroke-linecap="round" stroke-width=".864"/>
   </g>
  </g>
  <line x1=".288" x2=".13323" y1="33.913" y2="33.913" fill="none" stroke="#fff" stroke-width=".576"/>
  <line x1=".288" x2=".13323" y1=".288" y2=".288" fill="none" stroke="#fff" stroke-width=".576"/>
  <line x1=".288" x2=".288" y1="33.913" y2=".288" fill="none" stroke="#fff" stroke-width=".576"/>
 </g>
 <g id="copper1">
  <g id="copper0">
   <g transform="matrix(0 1 -1 0 85.361 -45.489)">
    <rect id="connector38pad" x="64.008" y="13.416" width="2.8346" height="13.039" fill="#F7BD13" stroke-width="0"/>
   </g>
   <g transform="matrix(0 1 -1 0 79.692 -51.159)">
    <rect id="connector37pad" x="64.008" y="7.7468" width="2.8346" height="13.039" fill="#F7BD13" stroke-width="0"/>
   </g>
  </g>
 </g>
</svg>
