<?xml version="1.0" encoding="UTF-8"?>
<!-- Created with Fritzing (http://www.fritzing.org/) -->
<svg width="1.2425in" height=".7775in" baseProfile="tiny" version="1.2" viewBox="0 0 89.46 55.98" xmlns="http://www.w3.org/2000/svg">
 <desc>
  <referenceFile>Adafruit Mini Sparkle Motion_pcb.svg</referenceFile>
 </desc>
 <desc>Fritzing footprint generated by brd2svg</desc>
 <g id="silkscreen">
  <path d="m3.3283 7.4139a6.912 6.912 0 0 1 7.1536-7.1259h71.536a6.912 6.912 0 0 1 7.1539 7.1259v41.152a6.912 6.912 0 0 1-7.1539 7.1259h-71.536a6.912 6.912 0 0 1-7.1536-7.1259v-41.152m13.84 28.858a0.63326 0.63326 0 1 0 1.2665 0 0.63326 0.63326 0 1 0-1.2665 0zm0-16.384a0.63326 0.63326 0 1 0 1.2665 0 0.63326 0.63326 0 1 0-1.2665 0z" fill="none" stroke="#fff" stroke-width=".576"/>
  <g>
   <title>element:CONN1</title>
   <g>
    <title>package:JST_SH4</title>
    <line x1="33.616" x2="33.616" y1="49.874" y2="42.504" stroke="#fff" stroke-linecap="round" stroke-width=".432"/>
    <line x1="33.616" x2="36.734" y1="42.504" y2="42.504" stroke="#fff" stroke-linecap="round" stroke-width=".432"/>
    <line x1="47.506" x2="50.907" y1="42.504" y2="42.504" stroke="#fff" stroke-linecap="round" stroke-width=".432"/>
    <line x1="50.907" x2="50.907" y1="42.504" y2="49.874" stroke="#fff" stroke-linecap="round" stroke-width=".432"/>
    <line x1="36.167" x2="48.073" y1="54.693" y2="54.693" stroke="#fff" stroke-linecap="round" stroke-width=".432"/>
   </g>
  </g>
  <g>
   <title>element:PLABEL11</title>
   <g>
    <title>package:PLABEL11</title>
   </g>
  </g>
  <g>
   <title>element:X4</title>
   <g>
    <title>package:ESP32-MINI-1</title>
   </g>
  </g>
  <g>
   <title>element:X5</title>
   <g>
    <title>package:USB_C_CUSB31-CFM2AX-01-X</title>
    <line x1="11.339" x2="15.165" y1="15.409" y2="15.409" stroke="#fff" stroke-linecap="round" stroke-width=".288"/>
    <line x1="15.165" x2="11.339" y1="40.751" y2="40.751" stroke="#fff" stroke-linecap="round" stroke-width=".288"/>
    <line y1="40.751" y2="15.409" stroke="#fff" stroke-linecap="round" stroke-width=".288"/>
    <line x2="3.8268" y1="15.409" y2="15.409" stroke="#fff" stroke-linecap="round" stroke-width=".288"/>
    <line x1="3.8268" y1="40.751" y2="40.751" stroke="#fff" stroke-linecap="round" stroke-width=".288"/>
   </g>
  </g>
  <line x1=".288" x2="3.06" y1="41.724" y2="41.724" fill="none" stroke="#fff" stroke-width=".576"/>
  <line x1=".288" x2="3.06" y1="14.4" y2="14.4" fill="none" stroke="#fff" stroke-width=".576"/>
  <line x1=".288" x2=".288" y1="41.724" y2="14.4" fill="none" stroke="#fff" stroke-width=".576"/>
 </g>
 <g id="copper1">
  <g id="copper0">
   <circle id="connector118pad" cx="7.3701" cy="40.326" r="1.2104" fill="none" stroke="#F7BD13" stroke-width=".72" connectorname="M4"/>
   <path d="m4.5862 39.115h5.5678v2.4208h-5.5678v-2.4208m1.5735 1.2104a1.2104 1.2104 0 1 0 2.4208 0 1.2104 1.2104 0 1 0-2.4208 0z" fill="#F7BD13" stroke-width="0"/>
   <g transform="matrix(0 -1 1 0 -3.7857 79.522)">
    <rect id="connector13pad" x="35.671" y="40.803" width="4.3937" height="1.7008" fill="#F7BD13" stroke-width="0"/>
   </g>
   <g transform="matrix(0 -1 1 0 -.95103 82.356)">
    <rect id="connector14pad" x="38.506" y="40.803" width="4.3937" height="1.7008" fill="#F7BD13" stroke-width="0"/>
   </g>
   <g transform="matrix(0 -1 1 0 1.8836 85.191)">
    <rect id="connector15pad" x="41.34" y="40.803" width="4.3937" height="1.7008" fill="#F7BD13" stroke-width="0"/>
   </g>
   <circle id="connector90pad" cx="82.26" cy="48.42" r="4.2633" fill="none" stroke="#F7BD13" stroke-width="1.44" connectorname="P$1"/>
   <g transform="matrix(0 -1 1 0 4.7183 88.026)">
    <rect id="connector16pad" x="44.175" y="40.803" width="4.3937" height="1.7008" fill="#F7BD13" stroke-width="0"/>
   </g>
   <g transform="matrix(0 -1 1 0 16.352 99.659)">
    <rect id="connector98pad" x="55.808" y="40.803" width="4.3937" height="1.7008" fill="#F7BD13" stroke-width="0"/>
   </g>
   <circle id="connector88pad" cx="82.26" cy="7.56" r="4.2633" fill="none" stroke="#F7BD13" stroke-width="1.44" connectorname="P$1"/>
   <g transform="matrix(0 -1 1 0 22.021 105.33)">
    <rect id="connector100pad" x="61.478" y="40.803" width="4.3937" height="1.7008" fill="#F7BD13" stroke-width="0"/>
   </g>
   <circle id="connector116pad" cx="19.219" cy="40.326" r="1.2104" fill="none" stroke="#F7BD13" stroke-width=".72" connectorname="M2"/>
   <path d="m16.435 39.115h5.5678v2.4208h-5.5678v-2.4208m1.5735 1.2104a1.2104 1.2104 0 1 0 2.4208 0 1.2104 1.2104 0 1 0-2.4208 0z" fill="#F7BD13" stroke-width="0"/>
   <circle id="connector40pad" cx="19.8" cy="46.047" r="1.878" fill="none" stroke="#F7BD13" stroke-width=".85039" connectorname="GND"/>
   <circle id="connector41pad" cx="82.26" cy="38.88" r="1.7773" fill="none" stroke="#F7BD13" stroke-width=".72" connectorname="+5V"/>
   <path d="m78.172 37.103h8.1757v3.5546h-8.1757v-3.5546m2.3105 1.7773a1.7773 1.7773 0 1 0 3.5546 0 1.7773 1.7773 0 1 0-3.5546 0z" fill="#F7BD13" stroke-width="0"/>
   <circle id="connector42pad" cx="82.26" cy="31.68" r="1.7773" fill="none" stroke="#F7BD13" stroke-width=".72" connectorname="S2"/>
   <path d="m78.172 29.903h8.1757v3.5546h-8.1757v-3.5546m2.3105 1.7773a1.7773 1.7773 0 1 0 3.5546 0 1.7773 1.7773 0 1 0-3.5546 0z" fill="#F7BD13" stroke-width="0"/>
   <circle id="connector43pad" cx="82.26" cy="24.48" r="1.7773" fill="none" stroke="#F7BD13" stroke-width=".72" connectorname="S1"/>
   <path d="m78.172 22.703h8.1757v3.5546h-8.1757v-3.5546m2.3105 1.7773a1.7773 1.7773 0 1 0 3.5546 0 1.7773 1.7773 0 1 0-3.5546 0z" fill="#F7BD13" stroke-width="0"/>
   <circle id="connector44pad" cx="82.26" cy="17.28" r="1.7773" fill="none" stroke="#F7BD13" stroke-width=".72" connectorname="GND"/>
   <path d="m78.172 15.503h8.1757v3.5546h-8.1757v-3.5546m2.3105 1.7773a1.7773 1.7773 0 1 0 3.5546 0 1.7773 1.7773 0 1 0-3.5546 0z" fill="#F7BD13" stroke-width="0"/>
   <circle id="connector45pad" cx="65.7" cy="3.78" r="1.8978" fill="none" stroke="#F7BD13" stroke-width="1.2444" connectorname="GND"/>
   <circle id="connector87pad" cx="10.26" cy="48.78" r="4.2633" fill="none" stroke="#F7BD13" stroke-width="1.44" connectorname="P$1"/>
   <circle id="connector46pad" cx="72.9" cy="3.78" r="1.8978" fill="none" stroke="#F7BD13" stroke-width="1.2444" connectorname="3.3V"/>
   <circle id="connector89pad" cx="10.26" cy="7.38" r="4.2633" fill="none" stroke="#F7BD13" stroke-width="1.44" connectorname="P$1"/>
   <circle id="connector47pad" cx="65.7" cy="10.98" r="1.8978" fill="none" stroke="#F7BD13" stroke-width="1.2444" connectorname="IO14"/>
   <circle id="connector48pad" cx="72.9" cy="10.98" r="1.8978" fill="none" stroke="#F7BD13" stroke-width="1.2444" connectorname="IO27"/>
   <circle id="connector49pad" cx="65.7" cy="18.18" r="1.8978" fill="none" stroke="#F7BD13" stroke-width="1.2444" connectorname="IO25"/>
   <circle id="connector50pad" cx="72.9" cy="18.18" r="1.8978" fill="none" stroke="#F7BD13" stroke-width="1.2444" connectorname="IO26"/>
   <g transform="matrix(0 -1 1 0 19.186 102.49)">
    <rect id="connector99pad" x="58.643" y="40.803" width="4.3937" height="1.7008" fill="#F7BD13" stroke-width="0"/>
   </g>
   <circle id="connector115pad" cx="19.219" cy="15.834" r="1.2104" fill="none" stroke="#F7BD13" stroke-width=".72" connectorname="M1"/>
   <path d="m16.435 14.624h5.5678v2.4208h-5.5678v-2.4208m1.5735 1.2104a1.2104 1.2104 0 1 0 2.4208 0 1.2104 1.2104 0 1 0-2.4208 0z" fill="#F7BD13" stroke-width="0"/>
   <circle id="connector117pad" cx="7.3701" cy="15.834" r="1.2104" fill="none" stroke="#F7BD13" stroke-width=".72" connectorname="M3"/>
   <path d="m4.5862 14.624h5.5678v2.4208h-5.5678v-2.4208m1.5735 1.2104a1.2104 1.2104 0 1 0 2.4208 0 1.2104 1.2104 0 1 0-2.4208 0z" fill="#F7BD13" stroke-width="0"/>
  </g>
 </g>
</svg>
