<?xml version="1.0" encoding="UTF-8"?>
<!-- Created with Fritzing (http://www.fritzing.org/) -->
<svg width=".8in" height=".57268in" baseProfile="tiny" version="1.2" viewBox="0 0 57.6 41.233" xmlns="http://www.w3.org/2000/svg">
 <desc>
  <referenceFile>Adafruit Sunken USB Type C Breakout_pcb.svg</referenceFile>
 </desc>
 <desc>Fritzing footprint generated by brd2svg</desc>
 <g id="silkscreen">
  <path d="m57.312 8.9973v24.848a6.912 6.912 0 0 1-7.128 7.0994h-42.768a6.912 6.912 0 0 1-7.128-7.0994v-24.848a6.912 6.912 0 0 1 7.128-7.0994h8.5536v17.039h25.661v-17.039h8.5536a6.912 6.912 0 0 1 7.128 7.0994" fill="none" stroke="#fff" stroke-width=".576"/>
  <g>
   <title>element:JP1</title>
   <g>
    <title>package:1X08_ROUND_76</title>
   </g>
  </g>
  <g>
   <title>element:PLABEL10</title>
   <g>
    <title>package:PLABEL10</title>
   </g>
  </g>
  <g>
   <title>element:X1</title>
   <g>
    <title>package:USB_C_SINK</title>
    <line x1="16.044" x2="41.556" stroke="#fff" stroke-linecap="round" stroke-width=".288"/>
    <line x1="41.556" x2="41.556" y2="18.907" stroke="#fff" stroke-linecap="round" stroke-width=".288"/>
    <line x1="16.044" x2="16.044" y1="18.907" stroke="#fff" stroke-linecap="round" stroke-width=".288"/>
    <line x1="41.556" x2="16.044" y1="18.992" y2="18.992" stroke="#fff" stroke-linecap="round" stroke-width=".28346"/>
   </g>
  </g>
  <line x1="10.8" x2="46.8" y1=".288" y2=".288" fill="none" stroke="#fff" stroke-width=".576"/>
  <line x1="10.8" x2="10.8" y1="1.6328" y2=".288" fill="none" stroke="#fff" stroke-width=".576"/>
  <line x1="46.8" x2="46.8" y1="1.6328" y2=".288" fill="none" stroke="#fff" stroke-width=".576"/>
 </g>
 <g id="copper1">
  <g id="copper0">
   <circle id="connector7pad" cx="54" cy="34.033" r="2.0767" fill="none" stroke="#F7BD13" stroke-width="1.3187" connectorname="GND"/>
   <circle id="connector8pad" cx="46.8" cy="34.033" r="2.0767" fill="none" stroke="#F7BD13" stroke-width="1.3187" connectorname="VBUS"/>
   <circle id="connector34pad" cx="12.869" cy="17.291" r="1.2104" fill="none" stroke="#F7BD13" stroke-width=".72" connectorname="M2"/>
   <path d="m11.659 14.507h2.4208v5.5678h-2.4208v-5.5678m0 2.7839a1.2104 1.2104 0 1 0 2.4208 0 1.2104 1.2104 0 1 0-2.4208 0z" fill="#F7BD13" stroke-width="0"/>
   <circle id="connector9pad" cx="39.6" cy="34.033" r="2.0767" fill="none" stroke="#F7BD13" stroke-width="1.3187" connectorname="SBU2"/>
   <circle id="connector10pad" cx="32.4" cy="34.033" r="2.0767" fill="none" stroke="#F7BD13" stroke-width="1.3187" connectorname="CC1"/>
   <circle id="connector11pad" cx="25.2" cy="34.033" r="2.0767" fill="none" stroke="#F7BD13" stroke-width="1.3187" connectorname="D-"/>
   <circle id="connector12pad" cx="18" cy="34.033" r="2.0767" fill="none" stroke="#F7BD13" stroke-width="1.3187" connectorname="D+"/>
   <circle id="connector36pad" cx="12.869" cy="5.9528" r="1.2756" fill="none" stroke="#F7BD13" stroke-width=".85039" connectorname="M4"/>
   <path d="m11.594 3.0189h2.5512v5.8677h-2.5512v-5.8677m0 2.9339a1.2756 1.2756 0 1 0 2.5512 0 1.2756 1.2756 0 1 0-2.5512 0z" fill="#F7BD13" stroke-width="0"/>
   <circle id="connector13pad" cx="10.8" cy="34.033" r="2.0767" fill="none" stroke="#F7BD13" stroke-width="1.3187" connectorname="SBU1"/>
   <circle id="connector14pad" cx="3.6" cy="34.033" r="2.0767" fill="none" stroke="#F7BD13" stroke-width="1.3187" connectorname="CC2"/>
   <circle id="connector33pad" cx="44.731" cy="17.291" r="1.2104" fill="none" stroke="#F7BD13" stroke-width=".72" connectorname="M1"/>
   <path d="m43.52 14.507h2.4208v5.5678h-2.4208v-5.5678m0 2.7839a1.2104 1.2104 0 1 0 2.4208 0 1.2104 1.2104 0 1 0-2.4208 0z" fill="#F7BD13" stroke-width="0"/>
   <circle id="connector19pad" cx="51.12" cy="11.713" r="4.2633" fill="none" stroke="#F7BD13" stroke-width="1.44" connectorname="P$1"/>
   <circle id="connector35pad" cx="44.731" cy="5.9528" r="1.2756" fill="none" stroke="#F7BD13" stroke-width=".85039" connectorname="M3"/>
   <path d="m43.455 3.0189h2.5512v5.8677h-2.5512v-5.8677m0 2.9339a1.2756 1.2756 0 1 0 2.5512 0 1.2756 1.2756 0 1 0-2.5512 0z" fill="#F7BD13" stroke-width="0"/>
   <circle id="connector20pad" cx="6.48" cy="11.713" r="4.2633" fill="none" stroke="#F7BD13" stroke-width="1.44" connectorname="P$1"/>
  </g>
 </g>
</svg>
