<?xml version="1.0" encoding="UTF-8"?>
<!-- Created with Fritzing (http://www.fritzing.org/) -->
<svg width="1.7in" height="1.1in" baseProfile="tiny" version="1.2" viewBox="0 0 122.4 79.2" xmlns="http://www.w3.org/2000/svg">
 <desc>
  <referenceFile>Adafruit IS31FL3731 STEMMA QT_pcb.svg</referenceFile>
 </desc>
 <desc>Fritzing footprint generated by brd2svg</desc>
 <g id="silkscreen">
  <path d="m0.288 71.764v-64.329a6.912 6.912 0 0 1 7.1661-7.1477h107.49a6.912 6.912 0 0 1 7.166 7.1477v64.329a6.912 6.912 0 0 1-7.166 7.1477h-107.49a6.912 6.912 0 0 1-7.1661-7.1477" fill="none" stroke="#fff" stroke-width=".576"/>
  <g>
   <title>element:JP2</title>
   <g>
    <title>package:1X13_ROUND_70</title>
   </g>
  </g>
  <g>
   <title>element:JP4</title>
   <g>
    <title>package:1X13_ROUND_70</title>
   </g>
  </g>
  <g>
   <title>element:PLABEL22</title>
   <g>
    <title>package:PLABEL22</title>
   </g>
  </g>
  <g>
   <title>element:PLABEL34</title>
   <g>
    <title>package:PLABEL34</title>
   </g>
  </g>
 </g>
 <g id="copper1">
  <g id="copper0">
   <circle id="connector62pad" cx="103.68" cy="40.32" r="1.764" fill="none" stroke="#F7BD13" stroke-width="1.224" connectorname="GND"/>
   <circle id="connector82pad" cx="7.2" cy="72" r="4.2633" fill="none" stroke="#F7BD13" stroke-width="1.44" connectorname="P$1"/>
   <g transform="matrix(-1 0 0 -1 215.43 66.104)">
    <rect id="connector15pad" x="105.52" y="32.202" width="4.3937" height="1.7008" fill="#F7BD13" stroke-width="0"/>
   </g>
   <g transform="matrix(-1 0 0 -1 215.43 60.435)">
    <rect id="connector16pad" x="105.52" y="29.367" width="4.3937" height="1.7008" fill="#F7BD13" stroke-width="0"/>
   </g>
   <g transform="matrix(-1 0 0 -1 215.43 54.765)">
    <rect id="connector17pad" x="105.52" y="26.532" width="4.3937" height="1.7008" fill="#F7BD13" stroke-width="0"/>
   </g>
   <g transform="matrix(-1 0 0 -1 215.43 49.096)">
    <rect id="connector18pad" x="105.52" y="23.698" width="4.3937" height="1.7008" fill="#F7BD13" stroke-width="0"/>
   </g>
   <g transform="matrix(-1 0 0 -1 215.43 109.3)">
    <rect id="connector21pad" x="105.52" y="53.802" width="4.3937" height="1.7008" fill="#F7BD13" stroke-width="0"/>
   </g>
   <g transform="matrix(-1 0 0 -1 215.43 103.64)">
    <rect id="connector22pad" x="105.52" y="50.967" width="4.3937" height="1.7008" fill="#F7BD13" stroke-width="0"/>
   </g>
   <g transform="matrix(-1 0 0 -1 215.43 97.965)">
    <rect id="connector23pad" x="105.52" y="48.132" width="4.3937" height="1.7008" fill="#F7BD13" stroke-width="0"/>
   </g>
   <g transform="matrix(-1 0 0 -1 215.43 92.296)">
    <rect id="connector24pad" x="105.52" y="45.298" width="4.3937" height="1.7008" fill="#F7BD13" stroke-width="0"/>
   </g>
   <circle id="connector84pad" cx="7.2" cy="7.2" r="4.2633" fill="none" stroke="#F7BD13" stroke-width="1.44" connectorname="P$1"/>
   <circle id="connector29pad" cx="18" cy="3.6" r="1.8967" fill="none" stroke="#F7BD13" stroke-width=".95868" connectorname="VCC"/>
   <circle id="connector30pad" cx="25.2" cy="3.6" r="1.8967" fill="none" stroke="#F7BD13" stroke-width=".95868" connectorname="GND"/>
   <circle id="connector31pad" cx="32.4" cy="3.6" r="1.8967" fill="none" stroke="#F7BD13" stroke-width=".95868" connectorname="SCL"/>
   <circle id="connector32pad" cx="39.6" cy="3.6" r="1.8967" fill="none" stroke="#F7BD13" stroke-width=".95868" connectorname="SDA"/>
   <circle id="connector61pad" cx="7.2" cy="61.2" r="2.0767" fill="none" stroke="#F7BD13" stroke-width="1.3187" connectorname="SHUTDOWN"/>
   <circle id="connector33pad" cx="46.8" cy="3.6" r="1.8967" fill="none" stroke="#F7BD13" stroke-width=".95868" connectorname="CB1"/>
   <circle id="connector63pad" cx="74.88" cy="40.32" r="1.764" fill="none" stroke="#F7BD13" stroke-width="1.224" connectorname="REXT"/>
   <circle id="connector34pad" cx="54" cy="3.6" r="1.8967" fill="none" stroke="#F7BD13" stroke-width=".95868" connectorname="CB2"/>
   <circle id="connector35pad" cx="61.2" cy="3.6" r="1.8967" fill="none" stroke="#F7BD13" stroke-width=".95868" connectorname="CB3"/>
   <circle id="connector36pad" cx="68.4" cy="3.6" r="1.8967" fill="none" stroke="#F7BD13" stroke-width=".95868" connectorname="CB4"/>
   <circle id="connector37pad" cx="75.6" cy="3.6" r="1.8967" fill="none" stroke="#F7BD13" stroke-width=".95868" connectorname="CB5"/>
   <circle id="connector38pad" cx="82.8" cy="3.6" r="1.8967" fill="none" stroke="#F7BD13" stroke-width=".95868" connectorname="CB6"/>
   <circle id="connector39pad" cx="90" cy="3.6" r="1.8967" fill="none" stroke="#F7BD13" stroke-width=".95868" connectorname="CB7"/>
   <circle id="connector40pad" cx="97.2" cy="3.6" r="1.8967" fill="none" stroke="#F7BD13" stroke-width=".95868" connectorname="CB8"/>
   <circle id="connector41pad" cx="104.4" cy="3.6" r="1.8967" fill="none" stroke="#F7BD13" stroke-width=".95868" connectorname="CB9"/>
   <circle id="connector42pad" cx="18" cy="75.6" r="1.8967" fill="none" stroke="#F7BD13" stroke-width=".95868" connectorname="CA1"/>
   <circle id="connector43pad" cx="25.2" cy="75.6" r="1.8967" fill="none" stroke="#F7BD13" stroke-width=".95868" connectorname="CA2"/>
   <circle id="connector83pad" cx="115.2" cy="72" r="4.2633" fill="none" stroke="#F7BD13" stroke-width="1.44" connectorname="P$1"/>
   <circle id="connector44pad" cx="32.4" cy="75.6" r="1.8967" fill="none" stroke="#F7BD13" stroke-width=".95868" connectorname="CA3"/>
   <circle id="connector85pad" cx="115.2" cy="7.2" r="4.2633" fill="none" stroke="#F7BD13" stroke-width="1.44" connectorname="P$1"/>
   <circle id="connector45pad" cx="39.6" cy="75.6" r="1.8967" fill="none" stroke="#F7BD13" stroke-width=".95868" connectorname="CA4"/>
   <circle id="connector46pad" cx="46.8" cy="75.6" r="1.8967" fill="none" stroke="#F7BD13" stroke-width=".95868" connectorname="CA5"/>
   <circle id="connector47pad" cx="54" cy="75.6" r="1.8967" fill="none" stroke="#F7BD13" stroke-width=".95868" connectorname="CA6"/>
   <circle id="connector48pad" cx="61.2" cy="75.6" r="1.8967" fill="none" stroke="#F7BD13" stroke-width=".95868" connectorname="CA7"/>
   <circle id="connector49pad" cx="68.4" cy="75.6" r="1.8967" fill="none" stroke="#F7BD13" stroke-width=".95868" connectorname="CA8"/>
   <circle id="connector50pad" cx="75.6" cy="75.6" r="1.8967" fill="none" stroke="#F7BD13" stroke-width=".95868" connectorname="CA9"/>
   <circle id="connector51pad" cx="82.8" cy="75.6" r="1.8967" fill="none" stroke="#F7BD13" stroke-width=".95868" connectorname="SHUTDOWN"/>
   <circle id="connector52pad" cx="90" cy="75.6" r="1.8967" fill="none" stroke="#F7BD13" stroke-width=".95868" connectorname="INTB"/>
   <circle id="connector53pad" cx="97.2" cy="75.6" r="1.8967" fill="none" stroke="#F7BD13" stroke-width=".95868" connectorname="ADDR"/>
   <circle id="connector54pad" cx="104.4" cy="75.6" r="1.8967" fill="none" stroke="#F7BD13" stroke-width=".95868" connectorname="AUDIOIN"/>
   <circle id="connector55pad" cx="7.2" cy="18" r="2.0767" fill="none" stroke="#F7BD13" stroke-width="1.3187" connectorname="VCC"/>
   <circle id="connector56pad" cx="7.2" cy="25.2" r="2.0767" fill="none" stroke="#F7BD13" stroke-width="1.3187" connectorname="GND"/>
   <circle id="connector57pad" cx="7.2" cy="32.4" r="2.0767" fill="none" stroke="#F7BD13" stroke-width="1.3187" connectorname="SCL"/>
   <circle id="connector58pad" cx="7.2" cy="39.6" r="2.0767" fill="none" stroke="#F7BD13" stroke-width="1.3187" connectorname="SDA"/>
   <circle id="connector59pad" cx="7.2" cy="46.8" r="2.0767" fill="none" stroke="#F7BD13" stroke-width="1.3187" connectorname="AUDIOIN"/>
   <circle id="connector60pad" cx="7.2" cy="54" r="2.0767" fill="none" stroke="#F7BD13" stroke-width="1.3187" connectorname="INTB"/>
  </g>
 </g>
</svg>
