<?xml version="1.0" encoding="UTF-8"?>
<!-- Created with Fritzing (http://www.fritzing.org/) -->
<svg width="1.25in" height="1.41in" baseProfile="tiny" version="1.2" viewBox="0 0 90 101.52" xmlns="http://www.w3.org/2000/svg">
 <desc>
  <referenceFile>Adafruit RS-232 Full Pinout Level-Shifter Breakout_pcb.svg</referenceFile>
 </desc>
 <desc>Fritzing footprint generated by brd2svg</desc>
 <g id="silkscreen">
  <path d="m89.712 94.073a6.912 6.912 0 0 1-7.1539 7.159h-75.116a6.912 6.912 0 0 1-7.1539-7.159v-75.529h89.424v75.529" fill="none" stroke="#fff" stroke-width=".576"/>
  <line x1="34.2" x2="32.4" y1="97.92" y2="99.72" stroke="#fff" stroke-linecap="round" stroke-width=".72"/>
  <line x1="32.4" x2="36" y1="99.72" y2="99.72" stroke="#fff" stroke-linecap="round" stroke-width=".72"/>
  <line x1="36" x2="34.2" y1="99.72" y2="97.92" stroke="#fff" stroke-linecap="round" stroke-width=".72"/>
  <line x1="27" x2="28.8" y1="99.72" y2="97.92" stroke="#fff" stroke-linecap="round" stroke-width=".72"/>
  <line x1="28.8" x2="25.2" y1="97.92" y2="97.92" stroke="#fff" stroke-linecap="round" stroke-width=".72"/>
  <line x1="25.2" x2="27" y1="97.92" y2="99.72" stroke="#fff" stroke-linecap="round" stroke-width=".72"/>
  <line x1="63" x2="66.6" y1="18.36" y2="18.36" stroke="#fff" stroke-linecap="round" stroke-width=".72"/>
  <line x1="19.8" x2="21.6" y1="99.72" y2="97.92" stroke="#fff" stroke-linecap="round" stroke-width=".72"/>
  <line x1="21.6" x2="18" y1="97.92" y2="97.92" stroke="#fff" stroke-linecap="round" stroke-width=".72"/>
  <line x1="18" x2="19.8" y1="97.92" y2="99.72" stroke="#fff" stroke-linecap="round" stroke-width=".72"/>
  <line x1="41.4" x2="39.6" y1="97.92" y2="99.72" stroke="#fff" stroke-linecap="round" stroke-width=".72"/>
  <line x1="39.6" x2="43.2" y1="99.72" y2="99.72" stroke="#fff" stroke-linecap="round" stroke-width=".72"/>
  <line x1="43.2" x2="41.4" y1="99.72" y2="97.92" stroke="#fff" stroke-linecap="round" stroke-width=".72"/>
  <line x1="48.6" x2="50.4" y1="99.72" y2="97.92" stroke="#fff" stroke-linecap="round" stroke-width=".72"/>
  <line x1="50.4" x2="46.8" y1="97.92" y2="97.92" stroke="#fff" stroke-linecap="round" stroke-width=".72"/>
  <line x1="46.8" x2="48.6" y1="97.92" y2="99.72" stroke="#fff" stroke-linecap="round" stroke-width=".72"/>
  <line x1="55.8" x2="54" y1="97.92" y2="99.72" stroke="#fff" stroke-linecap="round" stroke-width=".72"/>
  <line x1="54" x2="57.6" y1="99.72" y2="99.72" stroke="#fff" stroke-linecap="round" stroke-width=".72"/>
  <line x1="57.6" x2="55.8" y1="99.72" y2="97.92" stroke="#fff" stroke-linecap="round" stroke-width=".72"/>
  <line x1="63" x2="64.8" y1="99.72" y2="97.92" stroke="#fff" stroke-linecap="round" stroke-width=".72"/>
  <line x1="64.8" x2="61.2" y1="97.92" y2="97.92" stroke="#fff" stroke-linecap="round" stroke-width=".72"/>
  <line x1="61.2" x2="63" y1="97.92" y2="99.72" stroke="#fff" stroke-linecap="round" stroke-width=".72"/>
  <line x1="70.2" x2="72" y1="99.72" y2="97.92" stroke="#fff" stroke-linecap="round" stroke-width=".72"/>
  <line x1="72" x2="68.4" y1="97.92" y2="97.92" stroke="#fff" stroke-linecap="round" stroke-width=".72"/>
  <line x1="68.4" x2="70.2" y1="97.92" y2="99.72" stroke="#fff" stroke-linecap="round" stroke-width=".72"/>
  <circle cx="54.72" cy="67.68" r="1.0182" fill="none" stroke="#fff" stroke-width=".864"/>
  <g>
   <title>element:IC1</title>
   <g>
    <title>package:SSOP28</title>
    <line x1="57.657" x2="28.743" y1="64.99" y2="64.99" stroke="#fff" stroke-linecap="round" stroke-width=".576"/>
    <line x1="28.743" x2="28.743" y1="64.99" y2="79.73" stroke="#fff" stroke-linecap="round" stroke-width=".576"/>
    <line x1="28.743" x2="57.657" y1="79.73" y2="79.73" stroke="#fff" stroke-linecap="round" stroke-width=".576"/>
   </g>
  </g>
  <g>
   <title>element:JP2</title>
   <g>
    <title>package:1X12_ROUND_76MIL</title>
   </g>
  </g>
  <g>
   <title>element:PLABEL13</title>
   <g>
    <title>package:PLABEL13</title>
   </g>
  </g>
  <g>
   <title>element:PLABEL14</title>
   <g>
    <title>package:PLABEL14</title>
   </g>
  </g>
  <g>
   <title>element:PLABEL15</title>
   <g>
    <title>package:PLABEL15</title>
   </g>
  </g>
  <g>
   <title>element:X2</title>
   <g>
    <title>package:F09HP</title>
    <line x1="23.4" x2="24.12" stroke="#fff" stroke-linecap="round" stroke-width=".432"/>
    <path d="m23.4 0a1.44 1.44 0 0 0-1.44 1.44" fill="none" stroke="#fff" stroke-width=".432"/>
    <path d="M68.04,1.44A1.44,1.44,0,0,0,66.6,0" fill="none" stroke="#fff" stroke-width=".432"/>
    <line x1="23.04" x2="66.96" y1="17.64" y2="17.64" stroke="#fff" stroke-linecap="round" stroke-width=".432"/>
    <line x1="1.08" x2="15.48" y1="29.16" y2="29.16" stroke="#fff" stroke-linecap="round" stroke-width=".432"/>
    <line x1="1.08" x2="1.08" y1="29.16" y2="20.52" stroke="#fff" stroke-linecap="round" stroke-width=".432"/>
    <line x1="1.08" x2="1.08" y1="29.16" y2="29.52" stroke="#fff" stroke-linecap="round" stroke-width=".432"/>
    <line x1="1.08" x2="1.08" y1="20.52" y2="19.08" stroke="#fff" stroke-linecap="round" stroke-width=".432"/>
    <line x1="1.08" x2="1.08" y1="19.08" y2="17.64" stroke="#fff" stroke-linecap="round" stroke-width=".432"/>
    <line x1="88.92" x2="88.92" y1="17.64" y2="19.08" stroke="#fff" stroke-linecap="round" stroke-width=".432"/>
    <line x1="88.92" x2="88.92" y1="19.08" y2="20.52" stroke="#fff" stroke-linecap="round" stroke-width=".432"/>
    <line x1="88.92" x2="88.92" y1="20.52" y2="29.16" stroke="#fff" stroke-linecap="round" stroke-width=".432"/>
    <line x1="88.92" x2="88.92" y1="29.16" y2="29.52" stroke="#fff" stroke-linecap="round" stroke-width=".432"/>
    <line x1="1.08" x2="8.28" y1="19.08" y2="19.08" stroke="#fff" stroke-linecap="round" stroke-width=".432"/>
    <line x1="8.28" x2="15.48" y1="19.08" y2="19.08" stroke="#fff" stroke-linecap="round" stroke-width=".432"/>
    <line x1="15.48" x2="15.48" y1="20.52" y2="19.08" stroke="#fff" stroke-linecap="round" stroke-width=".432"/>
    <line x1="15.48" x2="15.84" y1="20.52" y2="20.52" stroke="#fff" stroke-linecap="round" stroke-width=".432"/>
    <path d="m15.84 27.36a1.8 1.8 0 0 0 1.8 1.8" fill="none" stroke="#fff" stroke-width=".432"/>
    <line x1="15.48" x2="18" y1="29.16" y2="29.16" stroke="#fff" stroke-linecap="round" stroke-width=".432"/>
    <line x1="18" x2="18.72" y1="29.16" y2="29.16" stroke="#fff" stroke-linecap="round" stroke-width=".432"/>
    <line x1="15.84" x2="15.84" y1="27.36" y2="20.52" stroke="#fff" stroke-linecap="round" stroke-width=".432"/>
    <line x1="18.72" x2="18.72" y1="29.16" y2="31.32" stroke="#fff" stroke-linecap="round" stroke-width=".432"/>
    <line x1="18.72" x2="71.28" y1="29.16" y2="29.16" stroke="#fff" stroke-linecap="round" stroke-width=".432"/>
    <line x1="18.72" x2="71.28" y1="31.32" y2="31.32" stroke="#fff" stroke-linecap="round" stroke-width=".432"/>
    <line x1="71.28" x2="71.28" y1="29.16" y2="31.32" stroke="#fff" stroke-linecap="round" stroke-width=".432"/>
    <line x1="71.28" x2="72" y1="29.16" y2="29.16" stroke="#fff" stroke-linecap="round" stroke-width=".432"/>
    <line x1="72" x2="74.52" y1="29.16" y2="29.16" stroke="#fff" stroke-linecap="round" stroke-width=".432"/>
    <line x1="81.72" x2="88.92" y1="19.08" y2="19.08" stroke="#fff" stroke-linecap="round" stroke-width=".432"/>
    <line x1="15.48" x2="74.52" y1="19.08" y2="19.08" stroke="#fff" stroke-linecap="round" stroke-width=".432"/>
    <line x1="74.52" x2="81.72" y1="19.08" y2="19.08" stroke="#fff" stroke-linecap="round" stroke-width=".432"/>
    <line x1="74.52" x2="74.52" y1="20.52" y2="19.08" stroke="#fff" stroke-linecap="round" stroke-width=".432"/>
    <line x1="74.16" x2="74.16" y1="27.36" y2="20.52" stroke="#fff" stroke-linecap="round" stroke-width=".432"/>
    <line x1="74.16" x2="74.52" y1="20.52" y2="20.52" stroke="#fff" stroke-linecap="round" stroke-width=".432"/>
    <path d="m72.36 29.16a1.8 1.8 0 0 0 1.8-1.8" fill="none" stroke="#fff" stroke-width=".432"/>
    <line x1="2.88" x2="1.08" y1="59.76" y2="57.96" stroke="#fff" stroke-linecap="round" stroke-width=".432"/>
    <line x1="1.08" x2="1.08" y1="57.96" y2="29.52" stroke="#fff" stroke-linecap="round" stroke-width=".432"/>
    <line x1="16.56" x2="2.88" y1="59.76" y2="59.76" stroke="#fff" stroke-linecap="round" stroke-width=".432"/>
    <line x1="16.56" x2="18" y1="59.76" y2="58.32" stroke="#fff" stroke-linecap="round" stroke-width=".432"/>
    <line x1="18" x2="18" y1="58.32" y2="29.16" stroke="#fff" stroke-linecap="round" stroke-width=".432"/>
    <line x1="72" x2="72" y1="58.32" y2="29.16" stroke="#fff" stroke-linecap="round" stroke-width=".432"/>
    <line x1="72" x2="73.44" y1="58.32" y2="59.76" stroke="#fff" stroke-linecap="round" stroke-width=".432"/>
    <line x1="73.44" x2="87.48" y1="59.76" y2="59.76" stroke="#fff" stroke-linecap="round" stroke-width=".432"/>
    <line x1="87.48" x2="88.92" y1="59.76" y2="58.32" stroke="#fff" stroke-linecap="round" stroke-width=".432"/>
    <line x1="88.92" x2="88.92" y1="58.32" y2="29.52" stroke="#fff" stroke-linecap="round" stroke-width=".432"/>
    <line x1="74.52" x2="88.92" y1="29.16" y2="29.16" stroke="#fff" stroke-linecap="round" stroke-width=".432"/>
    <line x1="1.08" x2="23.04" y1="17.64" y2="17.64" stroke="#fff" stroke-linecap="round" stroke-width=".432"/>
    <line x1="21.96" x2="21.96" y1="15.84" y2="1.44" stroke="#fff" stroke-linecap="round" stroke-width=".432"/>
    <path d="m20.16 17.64a1.8 1.8 0 0 0 1.8-1.8" fill="none" stroke="#fff" stroke-width=".432"/>
    <line x1="66.96" x2="88.92" y1="17.64" y2="17.64" stroke="#fff" stroke-linecap="round" stroke-width=".432"/>
    <line x1="68.04" x2="68.04" y1="15.84" y2="1.44" stroke="#fff" stroke-linecap="round" stroke-width=".432"/>
    <path d="m68.04 15.84a1.8 1.8 0 0 0 1.8 1.8" fill="none" stroke="#fff" stroke-width=".432"/>
    <line x1="24.12" x2="65.88" stroke="#fff" stroke-linecap="round" stroke-width=".432"/>
    <line x1="65.88" x2="66.6" stroke="#fff" stroke-linecap="round" stroke-width=".432"/>
    <circle cx="9.504" cy="50.76" r="4.68" fill="none" stroke="#fff" stroke-width=".432"/>
    <circle cx="80.496" cy="50.76" r="4.68" fill="none" stroke="#fff" stroke-width=".432"/>
    <rect x="18.72" y="31.32" width="52.56" height="2.16" fill="#fff" stroke-width="0"/>
    <rect x="1.08" y="19.08" width="87.84" height="1.44" fill="#fff" stroke-width="0"/>
    <rect x="28.296" y="51.84" width="2.304" height="20.52" fill="#fff" stroke-width="0"/>
    <rect x="32.184" y="44.64" width="2.304" height="13.32" fill="#fff" stroke-width="0"/>
    <rect x="36.072" y="51.84" width="2.304" height="20.52" fill="#fff" stroke-width="0"/>
    <rect x="39.96" y="44.64" width="2.304" height="13.32" fill="#fff" stroke-width="0"/>
    <rect x="43.776" y="51.84" width="2.304" height="20.52" fill="#fff" stroke-width="0"/>
    <rect x="47.664" y="44.64" width="2.304" height="13.32" fill="#fff" stroke-width="0"/>
    <rect x="51.624" y="51.84" width="2.304" height="20.52" fill="#fff" stroke-width="0"/>
    <rect x="55.512" y="44.64" width="2.304" height="13.32" fill="#fff" stroke-width="0"/>
    <rect x="59.4" y="51.84" width="2.304" height="20.52" fill="#fff" stroke-width="0"/>
   </g>
  </g>
  <line x1="1.08" x2="88.92" y1=".288" y2=".288" fill="none" stroke="#fff" stroke-width=".576"/>
  <line x1="1.08" x2="1.08" y1="18.36" y2=".288" fill="none" stroke="#fff" stroke-width=".576"/>
  <line x1="88.92" x2="88.92" y1="18.36" y2=".288" fill="none" stroke="#fff" stroke-width=".576"/>
 </g>
 <g id="copper1">
  <g id="copper0" fill="none" stroke="#F7BD13">
   <circle id="connector54pad" cx="84.6" cy="93.96" r="2.0767" stroke-width="1.3187" connectorname="!FORCEOFF"/>
   <circle id="connector46pad" cx="27" cy="93.96" r="2.0767" stroke-width="1.3187" connectorname="RXD"/>
   <circle id="connector50pad" cx="55.8" cy="93.96" r="2.0767" stroke-width="1.3187" connectorname="RTS"/>
   <circle id="connector66pad" cx="79.2" cy="69.12" r="4.972" stroke-width="1.44" connectorname="P$1"/>
   <circle id="connector44pad" cx="12.6" cy="93.96" r="2.0767" stroke-width="1.3187" connectorname="GND"/>
   <circle id="connector48pad" cx="41.4" cy="93.96" r="2.0767" stroke-width="1.3187" connectorname="DTR"/>
   <circle id="connector52pad" cx="70.2" cy="93.96" r="2.0767" stroke-width="1.3187" connectorname="RI"/>
   <circle id="connector76pad" cx="9.504" cy="50.76" r="5.94" stroke-width="2.52" connectorname="G1"/>
   <circle id="connector43pad" cx="5.4" cy="93.96" r="2.0767" stroke-width="1.3187" connectorname="VCC"/>
   <circle id="connector45pad" cx="19.8" cy="93.96" r="2.0767" stroke-width="1.3187" connectorname="DCD"/>
   <circle id="connector47pad" cx="34.2" cy="93.96" r="2.0767" stroke-width="1.3187" connectorname="TXD"/>
   <circle id="connector49pad" cx="48.6" cy="93.96" r="2.0767" stroke-width="1.3187" connectorname="DSR"/>
   <circle id="connector51pad" cx="63" cy="93.96" r="2.0767" stroke-width="1.3187" connectorname="CTS"/>
   <circle id="connector53pad" cx="77.4" cy="93.96" r="2.0767" stroke-width="1.3187" connectorname="!INVALID"/>
   <circle id="connector65pad" cx="10.8" cy="69.12" r="4.972" stroke-width="1.44" connectorname="P$1"/>
   <circle id="connector71pad" cx="60.552" cy="54.36" r="1.98" stroke-width="1.08" connectorname="GND"/>
   <circle id="connector77pad" cx="80.496" cy="50.76" r="5.94" stroke-width="2.52" connectorname="G2"/>
  </g>
 </g>
</svg>
