<?xml version="1.0" encoding="UTF-8"?>
<!-- Created with Fritzing (http://www.fritzing.org/) -->
<svg width="3.5433in" height="2.4787in" baseProfile="tiny" version="1.2" viewBox="0 0 255.12 178.47" xmlns="http://www.w3.org/2000/svg">
 <desc>
  <referenceFile>Adafruit Fruit Jam_pcb.svg</referenceFile>
 </desc>
 <desc>Fritzing footprint generated by brd2svg</desc>
 <g id="silkscreen">
  <path d="m14.656 12.45h213.72a14.112 14.112 0 0 1 14.367 14.354v123.8a14.112 14.112 0 0 1-14.367 14.353h-213.72a14.112 14.112 0 0 1-14.368-14.353v-123.8a14.112 14.112 0 0 1 14.368-14.354m98.02 14.493a0.63326 0.63326 0 1 0 1.2665 0 0.63326 0.63326 0 1 0-1.2665 0zm16.384 0a0.63326 0.63326 0 1 0 1.2665 0 0.63326 0.63326 0 1 0-1.2665 0zm104.47 23.058a1.6963 1.6963 0 1 0 3.3925 0 1.6963 1.6963 0 1 0-3.3925 0zm-19.842 0.2834a1.6963 1.6963 0 1 0 3.3925 0 1.6963 1.6963 0 1 0-3.3925 0z" fill="none" stroke="#fff" stroke-width=".576"/>
  <g>
   <title>element:BTN0</title>
   <g>
    <title>package:EVQ-Q2</title>
    <line x1="218.71" x2="237.41" y1="124.3" y2="124.3" stroke="#fff" stroke-linecap="round" stroke-width=".576"/>
    <line x1="237.41" x2="218.71" y1="141.31" y2="141.31" stroke="#fff" stroke-linecap="round" stroke-width=".576"/>
    <line x1="218.71" x2="218.71" y1="136.2" y2="129.4" stroke="#fff" stroke-linecap="round" stroke-width=".576"/>
    <line x1="237.41" x2="237.41" y1="129.4" y2="136.2" stroke="#fff" stroke-linecap="round" stroke-width=".576"/>
    <circle cx="228.06" cy="132.8" r="4.2613" fill="none" stroke="#fff" stroke-width=".576"/>
    <circle cx="228.06" cy="132.8" r="2.8346" fill="none" stroke="#fff" stroke-width=".576"/>
   </g>
  </g>
  <g>
   <title>element:BTN2</title>
   <g>
    <title>package:EVQ-Q2</title>
    <line x1="218.71" x2="237.41" y1="77.498" y2="77.498" stroke="#fff" stroke-linecap="round" stroke-width=".576"/>
    <line x1="237.41" x2="218.71" y1="94.506" y2="94.506" stroke="#fff" stroke-linecap="round" stroke-width=".576"/>
    <line x1="218.71" x2="218.71" y1="89.403" y2="82.6" stroke="#fff" stroke-linecap="round" stroke-width=".576"/>
    <line x1="237.41" x2="237.41" y1="82.6" y2="89.403" stroke="#fff" stroke-linecap="round" stroke-width=".576"/>
    <circle cx="228.06" cy="86.002" r="4.2613" fill="none" stroke="#fff" stroke-width=".576"/>
    <circle cx="228.06" cy="86.002" r="2.8346" fill="none" stroke="#fff" stroke-width=".576"/>
   </g>
  </g>
  <g>
   <title>element:BTN3</title>
   <g>
    <title>package:EVQ-Q2</title>
    <line x1="218.71" x2="237.41" y1="101.26" y2="101.26" stroke="#fff" stroke-linecap="round" stroke-width=".576"/>
    <line x1="237.41" x2="218.71" y1="118.27" y2="118.27" stroke="#fff" stroke-linecap="round" stroke-width=".576"/>
    <line x1="218.71" x2="218.71" y1="113.16" y2="106.36" stroke="#fff" stroke-linecap="round" stroke-width=".576"/>
    <line x1="237.41" x2="237.41" y1="106.36" y2="113.16" stroke="#fff" stroke-linecap="round" stroke-width=".576"/>
    <circle cx="228.06" cy="109.76" r="4.2613" fill="none" stroke="#fff" stroke-width=".576"/>
    <circle cx="228.06" cy="109.76" r="2.8346" fill="none" stroke="#fff" stroke-width=".576"/>
   </g>
  </g>
  <g>
   <title>element:JP3</title>
   <g>
    <title>package:2X16</title>
    <line x1="179.1" x2="177.3" y1="132.8" y2="131" stroke="#fff" stroke-linecap="round" stroke-width=".432"/>
    <line x1="177.3" x2="173.7" y1="131" y2="131" stroke="#fff" stroke-linecap="round" stroke-width=".432"/>
    <line x1="173.7" x2="171.9" y1="131" y2="132.8" stroke="#fff" stroke-linecap="round" stroke-width=".432"/>
    <line x1="171.9" x2="170.1" y1="132.8" y2="131" stroke="#fff" stroke-linecap="round" stroke-width=".432"/>
    <line x1="170.1" x2="166.5" y1="131" y2="131" stroke="#fff" stroke-linecap="round" stroke-width=".432"/>
    <line x1="166.5" x2="164.7" y1="131" y2="132.8" stroke="#fff" stroke-linecap="round" stroke-width=".432"/>
    <line x1="164.7" x2="162.9" y1="132.8" y2="131" stroke="#fff" stroke-linecap="round" stroke-width=".432"/>
    <line x1="162.9" x2="159.3" y1="131" y2="131" stroke="#fff" stroke-linecap="round" stroke-width=".432"/>
    <line x1="159.3" x2="157.5" y1="131" y2="132.8" stroke="#fff" stroke-linecap="round" stroke-width=".432"/>
    <line x1="157.5" x2="155.7" y1="132.8" y2="131" stroke="#fff" stroke-linecap="round" stroke-width=".432"/>
    <line x1="155.7" x2="152.1" y1="131" y2="131" stroke="#fff" stroke-linecap="round" stroke-width=".432"/>
    <line x1="152.1" x2="150.3" y1="131" y2="132.8" stroke="#fff" stroke-linecap="round" stroke-width=".432"/>
    <line x1="150.3" x2="148.5" y1="132.8" y2="131" stroke="#fff" stroke-linecap="round" stroke-width=".432"/>
    <line x1="148.5" x2="144.9" y1="131" y2="131" stroke="#fff" stroke-linecap="round" stroke-width=".432"/>
    <line x1="144.9" x2="143.1" y1="131" y2="132.8" stroke="#fff" stroke-linecap="round" stroke-width=".432"/>
    <line x1="143.1" x2="141.3" y1="132.8" y2="131" stroke="#fff" stroke-linecap="round" stroke-width=".432"/>
    <line x1="141.3" x2="137.7" y1="131" y2="131" stroke="#fff" stroke-linecap="round" stroke-width=".432"/>
    <line x1="137.7" x2="135.9" y1="131" y2="132.8" stroke="#fff" stroke-linecap="round" stroke-width=".432"/>
    <line x1="179.1" x2="179.1" y1="132.8" y2="143.6" stroke="#fff" stroke-linecap="round" stroke-width=".432"/>
    <line x1="179.1" x2="177.3" y1="143.6" y2="145.4" stroke="#fff" stroke-linecap="round" stroke-width=".432"/>
    <line x1="177.3" x2="173.7" y1="145.4" y2="145.4" stroke="#fff" stroke-linecap="round" stroke-width=".432"/>
    <line x1="173.7" x2="171.9" y1="145.4" y2="143.6" stroke="#fff" stroke-linecap="round" stroke-width=".432"/>
    <line x1="171.9" x2="170.1" y1="143.6" y2="145.4" stroke="#fff" stroke-linecap="round" stroke-width=".432"/>
    <line x1="170.1" x2="166.5" y1="145.4" y2="145.4" stroke="#fff" stroke-linecap="round" stroke-width=".432"/>
    <line x1="166.5" x2="164.7" y1="145.4" y2="143.6" stroke="#fff" stroke-linecap="round" stroke-width=".432"/>
    <line x1="164.7" x2="162.9" y1="143.6" y2="145.4" stroke="#fff" stroke-linecap="round" stroke-width=".432"/>
    <line x1="162.9" x2="159.3" y1="145.4" y2="145.4" stroke="#fff" stroke-linecap="round" stroke-width=".432"/>
    <line x1="159.3" x2="157.5" y1="145.4" y2="143.6" stroke="#fff" stroke-linecap="round" stroke-width=".432"/>
    <line x1="157.5" x2="155.7" y1="143.6" y2="145.4" stroke="#fff" stroke-linecap="round" stroke-width=".432"/>
    <line x1="155.7" x2="152.1" y1="145.4" y2="145.4" stroke="#fff" stroke-linecap="round" stroke-width=".432"/>
    <line x1="152.1" x2="150.3" y1="145.4" y2="143.6" stroke="#fff" stroke-linecap="round" stroke-width=".432"/>
    <line x1="150.3" x2="148.5" y1="143.6" y2="145.4" stroke="#fff" stroke-linecap="round" stroke-width=".432"/>
    <line x1="148.5" x2="144.9" y1="145.4" y2="145.4" stroke="#fff" stroke-linecap="round" stroke-width=".432"/>
    <line x1="144.9" x2="143.1" y1="145.4" y2="143.6" stroke="#fff" stroke-linecap="round" stroke-width=".432"/>
    <line x1="143.1" x2="141.3" y1="143.6" y2="145.4" stroke="#fff" stroke-linecap="round" stroke-width=".432"/>
    <line x1="141.3" x2="137.7" y1="145.4" y2="145.4" stroke="#fff" stroke-linecap="round" stroke-width=".432"/>
    <line x1="137.7" x2="135.9" y1="145.4" y2="143.6" stroke="#fff" stroke-linecap="round" stroke-width=".432"/>
    <line x1="135.9" x2="134.1" y1="143.6" y2="145.4" stroke="#fff" stroke-linecap="round" stroke-width=".432"/>
    <line x1="134.1" x2="130.5" y1="145.4" y2="145.4" stroke="#fff" stroke-linecap="round" stroke-width=".432"/>
    <line x1="130.5" x2="128.7" y1="145.4" y2="143.6" stroke="#fff" stroke-linecap="round" stroke-width=".432"/>
    <line x1="128.7" x2="126.9" y1="143.6" y2="145.4" stroke="#fff" stroke-linecap="round" stroke-width=".432"/>
    <line x1="126.9" x2="123.3" y1="145.4" y2="145.4" stroke="#fff" stroke-linecap="round" stroke-width=".432"/>
    <line x1="123.3" x2="121.5" y1="145.4" y2="143.6" stroke="#fff" stroke-linecap="round" stroke-width=".432"/>
    <line x1="121.5" x2="119.7" y1="143.6" y2="145.4" stroke="#fff" stroke-linecap="round" stroke-width=".432"/>
    <line x1="119.7" x2="116.1" y1="145.4" y2="145.4" stroke="#fff" stroke-linecap="round" stroke-width=".432"/>
    <line x1="116.1" x2="114.3" y1="145.4" y2="143.6" stroke="#fff" stroke-linecap="round" stroke-width=".432"/>
    <line x1="114.3" x2="112.5" y1="143.6" y2="145.4" stroke="#fff" stroke-linecap="round" stroke-width=".432"/>
    <line x1="112.5" x2="108.9" y1="145.4" y2="145.4" stroke="#fff" stroke-linecap="round" stroke-width=".432"/>
    <line x1="108.9" x2="107.1" y1="145.4" y2="143.6" stroke="#fff" stroke-linecap="round" stroke-width=".432"/>
    <line x1="107.1" x2="105.3" y1="143.6" y2="145.4" stroke="#fff" stroke-linecap="round" stroke-width=".432"/>
    <line x1="105.3" x2="101.7" y1="145.4" y2="145.4" stroke="#fff" stroke-linecap="round" stroke-width=".432"/>
    <line x1="101.7" x2="99.9" y1="145.4" y2="143.6" stroke="#fff" stroke-linecap="round" stroke-width=".432"/>
    <line x1="99.9" x2="98.1" y1="143.6" y2="145.4" stroke="#fff" stroke-linecap="round" stroke-width=".432"/>
    <line x1="98.1" x2="94.5" y1="145.4" y2="145.4" stroke="#fff" stroke-linecap="round" stroke-width=".432"/>
    <line x1="92.7" x2="94.5" y1="143.6" y2="145.4" stroke="#fff" stroke-linecap="round" stroke-width=".432"/>
    <line x1="92.7" x2="90.9" y1="143.6" y2="145.4" stroke="#fff" stroke-linecap="round" stroke-width=".432"/>
    <line x1="87.3" x2="90.9" y1="145.4" y2="145.4" stroke="#fff" stroke-linecap="round" stroke-width=".432"/>
    <line x1="87.3" x2="85.5" y1="145.4" y2="143.6" stroke="#fff" stroke-linecap="round" stroke-width=".432"/>
    <line x1="85.5" x2="83.7" y1="143.6" y2="145.4" stroke="#fff" stroke-linecap="round" stroke-width=".432"/>
    <line x1="80.1" x2="83.7" y1="145.4" y2="145.4" stroke="#fff" stroke-linecap="round" stroke-width=".432"/>
    <line x1="80.1" x2="78.3" y1="145.4" y2="143.6" stroke="#fff" stroke-linecap="round" stroke-width=".432"/>
    <line x1="78.3" x2="76.5" y1="143.6" y2="145.4" stroke="#fff" stroke-linecap="round" stroke-width=".432"/>
    <line x1="72.9" x2="76.5" y1="145.4" y2="145.4" stroke="#fff" stroke-linecap="round" stroke-width=".432"/>
    <line x1="72.9" x2="71.1" y1="145.4" y2="143.6" stroke="#fff" stroke-linecap="round" stroke-width=".432"/>
    <line x1="71.1" x2="69.3" y1="143.6" y2="145.4" stroke="#fff" stroke-linecap="round" stroke-width=".432"/>
    <line x1="65.7" x2="69.3" y1="145.4" y2="145.4" stroke="#fff" stroke-linecap="round" stroke-width=".432"/>
    <line x1="65.7" x2="63.9" y1="145.4" y2="143.6" stroke="#fff" stroke-linecap="round" stroke-width=".432"/>
    <line x1="63.9" x2="65.7" y1="132.8" y2="131" stroke="#fff" stroke-linecap="round" stroke-width=".432"/>
    <line x1="69.3" x2="65.7" y1="131" y2="131" stroke="#fff" stroke-linecap="round" stroke-width=".432"/>
    <line x1="69.3" x2="71.1" y1="131" y2="132.8" stroke="#fff" stroke-linecap="round" stroke-width=".432"/>
    <line x1="71.1" x2="72.9" y1="132.8" y2="131" stroke="#fff" stroke-linecap="round" stroke-width=".432"/>
    <line x1="76.5" x2="72.9" y1="131" y2="131" stroke="#fff" stroke-linecap="round" stroke-width=".432"/>
    <line x1="76.5" x2="78.3" y1="131" y2="132.8" stroke="#fff" stroke-linecap="round" stroke-width=".432"/>
    <line x1="78.3" x2="80.1" y1="132.8" y2="131" stroke="#fff" stroke-linecap="round" stroke-width=".432"/>
    <line x1="80.1" x2="83.7" y1="131" y2="131" stroke="#fff" stroke-linecap="round" stroke-width=".432"/>
    <line x1="85.5" x2="83.7" y1="132.8" y2="131" stroke="#fff" stroke-linecap="round" stroke-width=".432"/>
    <line x1="85.5" x2="87.3" y1="132.8" y2="131" stroke="#fff" stroke-linecap="round" stroke-width=".432"/>
    <line x1="87.3" x2="90.9" y1="131" y2="131" stroke="#fff" stroke-linecap="round" stroke-width=".432"/>
    <line x1="92.7" x2="90.9" y1="132.8" y2="131" stroke="#fff" stroke-linecap="round" stroke-width=".432"/>
    <line x1="92.7" x2="94.5" y1="132.8" y2="131" stroke="#fff" stroke-linecap="round" stroke-width=".432"/>
    <line x1="94.5" x2="98.1" y1="131" y2="131" stroke="#fff" stroke-linecap="round" stroke-width=".432"/>
    <line x1="99.9" x2="98.1" y1="132.8" y2="131" stroke="#fff" stroke-linecap="round" stroke-width=".432"/>
    <line x1="99.9" x2="101.7" y1="132.8" y2="131" stroke="#fff" stroke-linecap="round" stroke-width=".432"/>
    <line x1="101.7" x2="105.3" y1="131" y2="131" stroke="#fff" stroke-linecap="round" stroke-width=".432"/>
    <line x1="107.1" x2="105.3" y1="132.8" y2="131" stroke="#fff" stroke-linecap="round" stroke-width=".432"/>
    <line x1="107.1" x2="108.9" y1="132.8" y2="131" stroke="#fff" stroke-linecap="round" stroke-width=".432"/>
    <line x1="108.9" x2="112.5" y1="131" y2="131" stroke="#fff" stroke-linecap="round" stroke-width=".432"/>
    <line x1="114.3" x2="112.5" y1="132.8" y2="131" stroke="#fff" stroke-linecap="round" stroke-width=".432"/>
    <line x1="114.3" x2="116.1" y1="132.8" y2="131" stroke="#fff" stroke-linecap="round" stroke-width=".432"/>
    <line x1="116.1" x2="119.7" y1="131" y2="131" stroke="#fff" stroke-linecap="round" stroke-width=".432"/>
    <line x1="121.5" x2="119.7" y1="132.8" y2="131" stroke="#fff" stroke-linecap="round" stroke-width=".432"/>
    <line x1="121.5" x2="123.3" y1="132.8" y2="131" stroke="#fff" stroke-linecap="round" stroke-width=".432"/>
    <line x1="123.3" x2="126.9" y1="131" y2="131" stroke="#fff" stroke-linecap="round" stroke-width=".432"/>
    <line x1="128.7" x2="126.9" y1="132.8" y2="131" stroke="#fff" stroke-linecap="round" stroke-width=".432"/>
    <line x1="128.7" x2="130.5" y1="132.8" y2="131" stroke="#fff" stroke-linecap="round" stroke-width=".432"/>
    <line x1="130.5" x2="134.1" y1="131" y2="131" stroke="#fff" stroke-linecap="round" stroke-width=".432"/>
    <line x1="135.9" x2="134.1" y1="132.8" y2="131" stroke="#fff" stroke-linecap="round" stroke-width=".432"/>
    <line x1="171.9" x2="171.9" y1="143.6" y2="132.8" stroke="#fff" stroke-linecap="round" stroke-width=".432"/>
    <line x1="164.7" x2="164.7" y1="143.6" y2="132.8" stroke="#fff" stroke-linecap="round" stroke-width=".432"/>
    <line x1="157.5" x2="157.5" y1="143.6" y2="132.8" stroke="#fff" stroke-linecap="round" stroke-width=".432"/>
    <line x1="150.3" x2="150.3" y1="143.6" y2="132.8" stroke="#fff" stroke-linecap="round" stroke-width=".432"/>
    <line x1="143.1" x2="143.1" y1="143.6" y2="132.8" stroke="#fff" stroke-linecap="round" stroke-width=".432"/>
    <line x1="135.9" x2="135.9" y1="143.6" y2="132.8" stroke="#fff" stroke-linecap="round" stroke-width=".432"/>
    <line x1="128.7" x2="128.7" y1="143.6" y2="132.8" stroke="#fff" stroke-linecap="round" stroke-width=".432"/>
    <line x1="121.5" x2="121.5" y1="143.6" y2="132.8" stroke="#fff" stroke-linecap="round" stroke-width=".432"/>
    <line x1="114.3" x2="114.3" y1="143.6" y2="132.8" stroke="#fff" stroke-linecap="round" stroke-width=".432"/>
    <line x1="107.1" x2="107.1" y1="143.6" y2="132.8" stroke="#fff" stroke-linecap="round" stroke-width=".432"/>
    <line x1="99.9" x2="99.9" y1="143.6" y2="132.8" stroke="#fff" stroke-linecap="round" stroke-width=".432"/>
    <line x1="92.7" x2="92.7" y1="143.6" y2="132.8" stroke="#fff" stroke-linecap="round" stroke-width=".432"/>
    <line x1="85.5" x2="85.5" y1="143.6" y2="132.8" stroke="#fff" stroke-linecap="round" stroke-width=".432"/>
    <line x1="78.3" x2="78.3" y1="143.6" y2="132.8" stroke="#fff" stroke-linecap="round" stroke-width=".432"/>
    <line x1="71.1" x2="71.1" y1="143.6" y2="132.8" stroke="#fff" stroke-linecap="round" stroke-width=".432"/>
    <line x1="63.9" x2="63.9" y1="143.6" y2="132.8" stroke="#fff" stroke-linecap="round" stroke-width=".432"/>
   </g>
  </g>
  <g>
   <title>element:PLABEL2</title>
   <g>
    <title>package:PLABEL2</title>
   </g>
  </g>
  <g>
   <title>element:PLABEL28</title>
   <g>
    <title>package:PLABEL28</title>
   </g>
  </g>
  <g>
   <title>element:PLABEL36</title>
   <g>
    <title>package:PLABEL36</title>
   </g>
  </g>
  <g>
   <title>element:PLABEL37</title>
   <g>
    <title>package:PLABEL37</title>
   </g>
  </g>
  <g>
   <title>element:SENSE1</title>
   <g>
    <title>package:JSTPH3</title>
    <line x1="47.013" x2="28.587" y1="164.12" y2="164.12" stroke="#fff" stroke-linecap="round" stroke-width=".576"/>
    <line x1="23.627" x2="23.627" y1="154.2" y2="142.86" stroke="#fff" stroke-linecap="round" stroke-width=".576"/>
    <line x1="23.627" x2="26.036" y1="142.86" y2="142.86" stroke="#fff" stroke-linecap="round" stroke-width=".576"/>
    <line x1="26.036" x2="26.036" y1="142.86" y2="149.95" stroke="#fff" stroke-linecap="round" stroke-width=".576"/>
    <line x1="26.036" x2="35.674" y1="149.95" y2="149.95" stroke="#fff" stroke-linecap="round" stroke-width=".576"/>
    <line x1="45.595" x2="49.564" y1="149.95" y2="149.95" stroke="#fff" stroke-linecap="round" stroke-width=".576"/>
    <line x1="49.564" x2="49.564" y1="149.95" y2="142.86" stroke="#fff" stroke-linecap="round" stroke-width=".576"/>
    <line x1="49.564" x2="51.973" y1="142.86" y2="142.86" stroke="#fff" stroke-linecap="round" stroke-width=".576"/>
    <line x1="51.973" x2="51.973" y1="142.86" y2="154.2" stroke="#fff" stroke-linecap="round" stroke-width=".576"/>
   </g>
  </g>
  <g>
   <title>element:SW1</title>
   <g>
    <title>package:EVQ-Q2</title>
    <line x1="5.5857" x2="24.294" y1="124.3" y2="124.3" stroke="#fff" stroke-linecap="round" stroke-width=".576"/>
    <line x1="24.294" x2="5.5857" y1="141.31" y2="141.31" stroke="#fff" stroke-linecap="round" stroke-width=".576"/>
    <line x1="5.5857" x2="5.5857" y1="136.2" y2="129.4" stroke="#fff" stroke-linecap="round" stroke-width=".576"/>
    <line x1="24.294" x2="24.294" y1="129.4" y2="136.2" stroke="#fff" stroke-linecap="round" stroke-width=".576"/>
    <circle cx="14.94" cy="132.8" r="4.2613" fill="none" stroke="#fff" stroke-width=".576"/>
    <circle cx="14.94" cy="132.8" r="2.8346" fill="none" stroke="#fff" stroke-width=".576"/>
   </g>
  </g>
  <g>
   <title>element:SW2</title>
   <g>
    <title>package:SPDT_SS12D07VG5</title>
    <line x1="133.97" x2="109.03" y1="159.2" y2="159.2" stroke="#fff" stroke-linecap="round" stroke-width=".432"/>
    <line x1="109.03" x2="109.03" y1="159.2" y2="146.72" stroke="#fff" stroke-linecap="round" stroke-width=".432"/>
    <line x1="109.03" x2="133.97" y1="146.72" y2="146.72" stroke="#fff" stroke-linecap="round" stroke-width=".432"/>
    <line x1="133.97" x2="133.97" y1="146.72" y2="159.2" stroke="#fff" stroke-linecap="round" stroke-width=".432"/>
    <line x1="127.17" x2="127.17" y1="155.8" y2="150.13" stroke="#fff" stroke-linecap="round" stroke-width=".432"/>
    <line x1="127.17" x2="115.83" y1="150.13" y2="150.13" stroke="#fff" stroke-linecap="round" stroke-width=".432"/>
    <line x1="115.83" x2="115.83" y1="150.13" y2="155.8" stroke="#fff" stroke-linecap="round" stroke-width=".432"/>
    <line x1="115.83" x2="127.17" y1="155.8" y2="155.8" stroke="#fff" stroke-linecap="round" stroke-width=".432"/>
   </g>
  </g>
  <g>
   <title>element:U$73</title>
   <g>
    <title>package:SPEAKER_OVAL8OHM</title>
    <path d="m17.6 96.082a28.346 28.346 0 0 0 28.346 28.346" fill="none" stroke="#fff" stroke-width=".432"/>
    <line x1="45.947" x2="74.293" y1="124.43" y2="124.43" stroke="#fff" stroke-linecap="round" stroke-width=".432"/>
    <path d="m74.293 124.43a28.346 28.346 0 0 0 28.347-28.346" fill="none" stroke="#fff" stroke-width=".432"/>
    <path d="m102.64 96.082a28.346 28.346 0 0 0-28.347-28.346" fill="none" stroke="#fff" stroke-width=".432"/>
    <line x1="74.293" x2="45.947" y1="67.735" y2="67.735" stroke="#fff" stroke-linecap="round" stroke-width=".432"/>
    <path d="m45.947 67.735a28.346 28.346 0 0 0-28.346 28.346" fill="none" stroke="#fff" stroke-width=".432"/>
    <line x1="31.774" x2="88.466" y1="76.239" y2="76.239" stroke="#fff" stroke-linecap="round" stroke-width=".432"/>
    <line x1="88.466" x2="88.466" y1="76.239" y2="115.92" stroke="#fff" stroke-linecap="round" stroke-width=".432"/>
    <line x1="88.466" x2="31.774" y1="115.92" y2="115.92" stroke="#fff" stroke-linecap="round" stroke-width=".432"/>
    <line x1="31.774" x2="31.774" y1="115.92" y2="76.239" stroke="#fff" stroke-linecap="round" stroke-width=".432"/>
   </g>
  </g>
  <g>
   <title>element:U$114</title>
   <g>
    <title>package:ADAFRUIT_TEXT_30MM</title>
   </g>
  </g>
  <g>
   <title>element:U3</title>
   <g>
    <title>package:SOIC8_208MIL</title>
    <line x1="89.294" x2="100.07" y1="112.32" y2="112.32" stroke="#fff" stroke-linecap="round" stroke-width=".576"/>
    <line x1="100.07" x2="89.294" y1="125.92" y2="125.92" stroke="#fff" stroke-linecap="round" stroke-width=".576"/>
    <circle cx="92.16" cy="113.65" r=".72" fill="none" stroke="#fff" stroke-width=".576"/>
   </g>
  </g>
  <g>
   <title>element:U6</title>
   <g>
    <title>package:SOIC8_208MIL</title>
    <line x1="127.97" x2="117.19" y1="126.46" y2="126.46" stroke="#fff" stroke-linecap="round" stroke-width=".576"/>
    <line x1="117.19" x2="127.97" y1="112.86" y2="112.86" stroke="#fff" stroke-linecap="round" stroke-width=".576"/>
    <circle cx="125.1" cy="125.13" r=".72" fill="none" stroke="#fff" stroke-width=".576"/>
   </g>
  </g>
  <g>
   <title>element:U9</title>
   <g>
    <title>package:ESP32-PICO-MINI</title>
    <line x1="21.251" x2="58.669" y1="13.061" y2="13.061" stroke="#fff" stroke-linecap="round" stroke-width=".36"/>
    <line x1="58.669" x2="58.669" y1="13.061" y2="28.368" stroke="#fff" stroke-linecap="round" stroke-width=".36"/>
    <line x1="21.251" x2="21.251" y1="28.368" y2="13.061" stroke="#fff" stroke-linecap="round" stroke-width=".36"/>
   </g>
  </g>
  <g>
   <title>element:X1</title>
   <g>
    <title>package:MICROSD</title>
    <line x1="98.391" x2="100.23" y1="58.025" y2="58.025" stroke="#fff" stroke-linecap="round" stroke-width=".36"/>
    <line x1="100.23" x2="100.23" y1="58.025" y2="56.608" stroke="#fff" stroke-linecap="round" stroke-width=".36"/>
    <line x1="100.23" x2="100.94" y1="56.608" y2="56.608" stroke="#fff" stroke-linecap="round" stroke-width=".36"/>
    <line x1="100.94" x2="100.94" y1="56.608" y2="22.734" stroke="#fff" stroke-linecap="round" stroke-width=".36"/>
    <line x1="91.871" x2="82.462" y1="58.025" y2="58.025" stroke="#fff" stroke-linecap="round" stroke-width=".36"/>
    <line x1="75.725" x2="60.69" y1="58.025" y2="58.025" stroke="#fff" stroke-linecap="round" stroke-width=".36"/>
    <line x1="60.69" x2="60.69" y1="58.025" y2="20.183" stroke="#fff" stroke-linecap="round" stroke-width=".36"/>
   </g>
  </g>
  <g>
   <title>element:X2</title>
   <g>
    <title>package:USB_TYPE_A_THM_SHORT</title>
    <line x1="97.908" x2="60.491" y1="150.15" y2="150.15" stroke="#fff" stroke-linecap="round" stroke-width=".576"/>
    <line x1="60.491" x2="60.491" y1="150.25" y2="163.69" stroke="#fff" stroke-linecap="round" stroke-width=".36"/>
    <line x1="97.908" x2="97.908" y1="150.25" y2="163.69" stroke="#fff" stroke-linecap="round" stroke-width=".36"/>
   </g>
  </g>
  <g>
   <title>element:X3</title>
   <g>
    <title>package:USB_C_CUSB31-CFM2AX-01-X</title>
    <line x1="134.17" x2="134.17" y1="20.48" y2="24.307" stroke="#fff" stroke-linecap="round" stroke-width=".288"/>
    <line x1="108.83" x2="108.83" y1="24.307" y2="20.48" stroke="#fff" stroke-linecap="round" stroke-width=".288"/>
    <line x1="108.83" x2="134.17" y1="9.1418" y2="9.1418" stroke="#fff" stroke-linecap="round" stroke-width=".288"/>
    <line x1="134.17" x2="134.17" y1="9.1418" y2="12.968" stroke="#fff" stroke-linecap="round" stroke-width=".288"/>
    <line x1="108.83" x2="108.83" y1="12.968" y2="9.1418" stroke="#fff" stroke-linecap="round" stroke-width=".288"/>
   </g>
  </g>
  <g>
   <title>element:X4</title>
   <g>
    <title>package:QFN80</title>
    <line x1="135.67" x2="107.33" y1="92.615" y2="92.615" stroke="#fff" stroke-linecap="round" stroke-width=".432"/>
    <line x1="107.33" x2="107.33" y1="92.615" y2="64.268" stroke="#fff" stroke-linecap="round" stroke-width=".432"/>
    <line x1="107.33" x2="135.67" y1="64.268" y2="64.268" stroke="#fff" stroke-linecap="round" stroke-width=".432"/>
    <line x1="135.67" x2="135.67" y1="64.268" y2="92.615" stroke="#fff" stroke-linecap="round" stroke-width=".432"/>
    <circle cx="134.26" cy="91.197" r=".63384" fill="none" stroke="#fff" stroke-width=".432"/>
   </g>
  </g>
  <g>
   <title>element:X5</title>
   <g>
    <title>package:USB_TYPE_A_THM_SHORT</title>
    <line x1="182.51" x2="145.09" y1="150.15" y2="150.15" stroke="#fff" stroke-linecap="round" stroke-width=".576"/>
    <line x1="145.09" x2="145.09" y1="150.25" y2="163.69" stroke="#fff" stroke-linecap="round" stroke-width=".36"/>
    <line x1="182.51" x2="182.51" y1="150.25" y2="163.69" stroke="#fff" stroke-linecap="round" stroke-width=".36"/>
   </g>
  </g>
  <g>
   <title>element:X7</title>
   <g>
    <title>package:HDMI_MOLEX_47151-0001</title>
    <line x1="200.55" x2="200.55" y1="7.8165" y2="12.947" stroke="#fff" stroke-linecap="round" stroke-width=".576"/>
    <line x1="200.55" x2="200.55" y1="22.868" y2="29.246" stroke="#fff" stroke-linecap="round" stroke-width=".576"/>
    <line x1="199.13" x2="194.17" y1="39.876" y2="39.876" stroke="#fff" stroke-linecap="round" stroke-width=".576"/>
    <line x1="165.83" x2="160.87" y1="39.876" y2="39.876" stroke="#fff" stroke-linecap="round" stroke-width=".576"/>
    <line x1="200.55" x2="159.45" y1="7.8165" y2="7.8165" stroke="#fff" stroke-linecap="round" stroke-width=".576"/>
    <line x1="159.45" x2="159.45" y1="7.8165" y2="12.947" stroke="#fff" stroke-linecap="round" stroke-width=".576"/>
    <line x1="159.45" x2="159.45" y1="22.868" y2="29.246" stroke="#fff" stroke-linecap="round" stroke-width=".576"/>
   </g>
  </g>
  <g>
   <title>element:X8</title>
   <g>
    <title>package:PJ-332A</title>
    <line x1="208.83" x2="208.83" y1="41.185" y2="58.938" stroke="#fff" stroke-linecap="round" stroke-width=".432"/>
    <line x1="208.83" x2="231.14" y1="58.938" y2="58.938" stroke="#fff" stroke-linecap="round" stroke-width=".432"/>
    <line x1="231.14" x2="239" y1="58.938" y2="58.938" stroke="#fff" stroke-linecap="round" stroke-width=".432"/>
    <line x1="239" x2="242.6" y1="58.938" y2="58.938" stroke="#fff" stroke-linecap="round" stroke-width=".432"/>
    <line x1="242.6" x2="242.6" y1="58.938" y2="41.065" stroke="#fff" stroke-linecap="round" stroke-width=".432"/>
    <line x1="242.6" x2="239" y1="41.065" y2="41.065" stroke="#fff" stroke-linecap="round" stroke-width=".432"/>
    <line x1="239" x2="208.83" y1="41.065" y2="41.065" stroke="#fff" stroke-linecap="round" stroke-width=".432"/>
    <line x1="208.83" x2="208.83" y1="41.065" y2="41.125" stroke="#fff" stroke-linecap="round" stroke-width=".432"/>
    <line x1="242.65" x2="248.23" y1="42.924" y2="42.924" stroke="#fff" stroke-linecap="round" stroke-width=".432"/>
    <line x1="248.23" x2="248.23" y1="42.924" y2="57.139" stroke="#fff" stroke-linecap="round" stroke-width=".432"/>
    <line x1="248.23" x2="242.6" y1="57.139" y2="57.139" stroke="#fff" stroke-linecap="round" stroke-width=".432"/>
    <line x1="239" x2="239" y1="41.065" y2="47.183" stroke="#fff" stroke-linecap="round" stroke-width=".432"/>
    <line x1="239" x2="237.56" y1="47.183" y2="47.183" stroke="#fff" stroke-linecap="round" stroke-width=".432"/>
    <line x1="237.56" x2="237.56" y1="47.183" y2="53.18" stroke="#fff" stroke-linecap="round" stroke-width=".432"/>
    <line x1="237.56" x2="239" y1="53.18" y2="53.18" stroke="#fff" stroke-linecap="round" stroke-width=".432"/>
    <line x1="239" x2="239" y1="53.18" y2="58.938" stroke="#fff" stroke-linecap="round" stroke-width=".432"/>
    <line x1="231.14" x2="231.14" y1="41.125" y2="58.938" stroke="#fff" stroke-linecap="round" stroke-width=".432"/>
   </g>
  </g>
  <g>
   <title>element:X9</title>
   <g>
    <title>package:53398-0271</title>
    <line x1="43.465" x2="54.095" y1="125.79" y2="125.79" stroke="#fff" stroke-linecap="round" stroke-width=".576"/>
    <line x1="40.808" x2="40.808" y1="134.64" y2="138.19" stroke="#fff" stroke-linecap="round" stroke-width=".576"/>
    <line x1="40.808" x2="45.237" y1="138.19" y2="138.19" stroke="#fff" stroke-linecap="round" stroke-width=".576"/>
    <line x1="52.323" x2="56.752" y1="138.19" y2="138.19" stroke="#fff" stroke-linecap="round" stroke-width=".576"/>
    <line x1="56.752" x2="56.752" y1="138.19" y2="134.64" stroke="#fff" stroke-linecap="round" stroke-width=".576"/>
    <g>
     <title>polygon</title>
     <path d="m52.893 135.95h1.44l-0.72 1.08-0.72-1.08" fill="none" stroke="#fff" stroke-linecap="round" stroke-width=".36"/>
    </g>
   </g>
  </g>
  <line x1="60.69" x2="100.94" y1=".288" y2=".288" fill="none" stroke="#fff" stroke-width=".576"/>
  <line x1="60.69" x2="60.69" y1="12.202" y2=".288" fill="none" stroke="#fff" stroke-width=".576"/>
  <line x1="100.94" x2="100.94" y1="12.202" y2=".288" fill="none" stroke="#fff" stroke-width=".576"/>
  <line x1="60.491" x2="97.908" y1="178.18" y2="178.18" fill="none" stroke="#fff" stroke-width=".576"/>
  <line x1="60.491" x2="60.491" y1="178.18" y2="165.2" fill="none" stroke="#fff" stroke-width=".576"/>
  <line x1="97.908" x2="97.908" y1="178.18" y2="165.2" fill="none" stroke="#fff" stroke-width=".576"/>
  <line x1="107.86" x2="135.18" y1="9.1418" y2="9.1418" fill="none" stroke="#fff" stroke-width=".576"/>
  <line x1="107.86" x2="107.86" y1="12.202" y2="9.1418" fill="none" stroke="#fff" stroke-width=".576"/>
  <line x1="135.18" x2="135.18" y1="12.202" y2="9.1418" fill="none" stroke="#fff" stroke-width=".576"/>
  <line x1="145.09" x2="182.51" y1="178.18" y2="178.18" fill="none" stroke="#fff" stroke-width=".576"/>
  <line x1="145.09" x2="145.09" y1="178.18" y2="165.2" fill="none" stroke="#fff" stroke-width=".576"/>
  <line x1="182.51" x2="182.51" y1="178.18" y2="165.2" fill="none" stroke="#fff" stroke-width=".576"/>
  <line x1="157.32" x2="202.68" y1="7.8165" y2="7.8165" fill="none" stroke="#fff" stroke-width=".576"/>
  <line x1="157.32" x2="157.32" y1="12.202" y2="7.8165" fill="none" stroke="#fff" stroke-width=".576"/>
  <line x1="202.68" x2="202.68" y1="12.202" y2="7.8165" fill="none" stroke="#fff" stroke-width=".576"/>
 </g>
 <g id="copper1">
  <g id="copper0">
   <circle id="connector458pad" cx="69.279" cy="150.15" r="1.7065" fill="none" stroke="#F7BD13" stroke-width=".72" connectorname="VBUS"/>
   <path d="m67.572 146.22h3.4129v7.8497h-3.4129v-7.8497m0 3.925a1.7065 1.7065 0 1 0 3.4129 0 1.7065 1.7065 0 1 0-3.4129 0z" fill="#F7BD13" stroke-width="0"/>
   <circle id="connector474pad" cx="109.25" cy="16.512" r="1.2104" fill="none" stroke="#F7BD13" stroke-width=".72" connectorname="M4"/>
   <path d="m108.04 13.728h2.4208v5.5678h-2.4208v-5.5678m0 2.7839a1.2104 1.2104 0 1 0 2.4208 0 1.2104 1.2104 0 1 0-2.4208 0z" fill="#F7BD13" stroke-width="0"/>
   <g transform="matrix(0 -1 1 0 51.873 353.26)">
    <rect id="connector119pad" x="200.37" y="149.84" width="4.3937" height="1.7008" fill="#F7BD13" stroke-width="0"/>
   </g>
   <g transform="matrix(0 -1 1 0 54.707 356.1)">
    <rect id="connector120pad" x="203.21" y="149.84" width="4.3937" height="1.7008" fill="#F7BD13" stroke-width="0"/>
   </g>
   <g transform="matrix(0 -1 1 0 57.542 358.93)">
    <rect id="connector121pad" x="206.04" y="149.84" width="4.3937" height="1.7008" fill="#F7BD13" stroke-width="0"/>
   </g>
   <circle id="connector472pad" cx="109.25" cy="28.361" r="1.2104" fill="none" stroke="#F7BD13" stroke-width=".72" connectorname="M2"/>
   <path d="m108.04 25.577h2.4208v5.5678h-2.4208v-5.5678m0 2.784a1.2104 1.2104 0 1 0 2.4208 0 1.2104 1.2104 0 1 0-2.4208 0z" fill="#F7BD13" stroke-width="0"/>
   <g transform="matrix(0 -1 1 0 60.376 361.77)">
    <rect id="connector122pad" x="208.88" y="149.84" width="4.3937" height="1.7008" fill="#F7BD13" stroke-width="0"/>
   </g>
   <g transform="matrix(0 -1 1 0 -3.0756 133.49)">
    <rect id="connector129pad" x="63.008" y="67.43" width="4.3937" height="1.7008" fill="#F7BD13" stroke-width="0"/>
   </g>
   <g transform="matrix(0 -1 1 0 -.24094 136.32)">
    <rect id="connector130pad" x="65.843" y="67.43" width="4.3937" height="1.7008" fill="#F7BD13" stroke-width="0"/>
   </g>
   <g transform="matrix(0 -1 1 0 2.5937 139.16)">
    <rect id="connector131pad" x="68.678" y="67.43" width="4.3937" height="1.7008" fill="#F7BD13" stroke-width="0"/>
   </g>
   <circle id="connector134pad" cx="147.06" cy="49.282" r="1.8967" fill="none" stroke="#F7BD13" stroke-width=".95868" connectorname="I2S_ESP_IRQ"/>
   <circle id="connector140pad" cx="200.52" cy="123.44" r="1.9687" fill="none" stroke="#F7BD13" stroke-width="1.1027" connectorname="USBH_D+"/>
   <circle id="connector141pad" cx="200.52" cy="130.64" r="1.9687" fill="none" stroke="#F7BD13" stroke-width="1.1027" connectorname="USBH_D-"/>
   <circle id="connector142pad" cx="175.5" cy="134.6" r="1.8" fill="none" stroke="#F7BD13" stroke-width=".72" connectorname="5.0V"/>
   <circle id="connector143pad" cx="175.5" cy="141.8" r="1.8" fill="none" stroke="#F7BD13" stroke-width=".72" connectorname="5.0V"/>
   <circle id="connector144pad" cx="168.3" cy="134.6" r="1.8" fill="none" stroke="#F7BD13" stroke-width=".72" connectorname="3.3V"/>
   <circle id="connector145pad" cx="168.3" cy="141.8" r="1.8" fill="none" stroke="#F7BD13" stroke-width=".72" connectorname="3.3V"/>
   <circle id="connector146pad" cx="161.1" cy="134.6" r="1.8" fill="none" stroke="#F7BD13" stroke-width=".72" connectorname="GND"/>
   <circle id="connector147pad" cx="161.1" cy="141.8" r="1.8" fill="none" stroke="#F7BD13" stroke-width=".72" connectorname="GND"/>
   <circle id="connector148pad" cx="153.9" cy="134.6" r="1.8" fill="none" stroke="#F7BD13" stroke-width=".72" connectorname="D10"/>
   <circle id="connector149pad" cx="153.9" cy="141.8" r="1.8" fill="none" stroke="#F7BD13" stroke-width=".72" connectorname="SCL"/>
   <circle id="connector150pad" cx="146.7" cy="134.6" r="1.8" fill="none" stroke="#F7BD13" stroke-width=".72" connectorname="D9/RX1"/>
   <circle id="connector151pad" cx="146.7" cy="141.8" r="1.8" fill="none" stroke="#F7BD13" stroke-width=".72" connectorname="SDA"/>
   <circle id="connector152pad" cx="139.5" cy="134.6" r="1.8" fill="none" stroke="#F7BD13" stroke-width=".72" connectorname="D8/TX1"/>
   <circle id="connector153pad" cx="139.5" cy="141.8" r="1.8" fill="none" stroke="#F7BD13" stroke-width=".72" connectorname="USBBOOT/BUTTON1"/>
   <circle id="connector154pad" cx="132.3" cy="134.6" r="1.8" fill="none" stroke="#F7BD13" stroke-width=".72" connectorname="D7"/>
   <circle id="connector155pad" cx="132.3" cy="141.8" r="1.8" fill="none" stroke="#F7BD13" stroke-width=".72" connectorname="D-3"/>
   <circle id="connector156pad" cx="125.1" cy="134.6" r="1.8" fill="none" stroke="#F7BD13" stroke-width=".72" connectorname="D6"/>
   <circle id="connector157pad" cx="125.1" cy="141.8" r="1.8" fill="none" stroke="#F7BD13" stroke-width=".72" connectorname="D+3"/>
   <g transform="matrix(-1 0 0 -1 101.1 274.6)">
    <rect id="connector616pad" x="49.418" y="135.03" width="2.2677" height="4.5354" fill="#F7BD13" stroke-width="0"/>
   </g>
   <circle id="connector158pad" cx="117.9" cy="134.6" r="1.8" fill="none" stroke="#F7BD13" stroke-width=".72" connectorname="A5"/>
   <circle id="connector159pad" cx="117.9" cy="141.8" r="1.8" fill="none" stroke="#F7BD13" stroke-width=".72" connectorname="MOSI"/>
   <circle id="connector160pad" cx="110.7" cy="134.6" r="1.8" fill="none" stroke="#F7BD13" stroke-width=".72" connectorname="A4"/>
   <circle id="connector161pad" cx="110.7" cy="141.8" r="1.8" fill="none" stroke="#F7BD13" stroke-width=".72" connectorname="MISO"/>
   <circle id="connector162pad" cx="103.5" cy="134.6" r="1.8" fill="none" stroke="#F7BD13" stroke-width=".72" connectorname="A3"/>
   <circle id="connector163pad" cx="103.5" cy="141.8" r="1.8" fill="none" stroke="#F7BD13" stroke-width=".72" connectorname="SCK"/>
   <circle id="connector164pad" cx="96.3" cy="134.6" r="1.8" fill="none" stroke="#F7BD13" stroke-width=".72" connectorname="A2"/>
   <circle id="connector165pad" cx="96.3" cy="141.8" r="1.8" fill="none" stroke="#F7BD13" stroke-width=".72" connectorname="PERIPH_RST"/>
   <circle id="connector166pad" cx="89.1" cy="134.6" r="1.8" fill="none" stroke="#F7BD13" stroke-width=".72" connectorname="A1"/>
   <circle id="connector167pad" cx="89.1" cy="141.8" r="1.8" fill="none" stroke="#F7BD13" stroke-width=".72" connectorname="!RESET"/>
   <circle id="connector168pad" cx="81.9" cy="134.6" r="1.8" fill="none" stroke="#F7BD13" stroke-width=".72" connectorname="GND"/>
   <circle id="connector169pad" cx="81.9" cy="141.8" r="1.8" fill="none" stroke="#F7BD13" stroke-width=".72" connectorname="GND"/>
   <circle id="connector170pad" cx="74.7" cy="134.6" r="1.8" fill="none" stroke="#F7BD13" stroke-width=".72" connectorname="3.3V"/>
   <circle id="connector171pad" cx="74.7" cy="141.8" r="1.8" fill="none" stroke="#F7BD13" stroke-width=".72" connectorname="3.3V"/>
   <circle id="connector172pad" cx="67.5" cy="134.6" r="1.8" fill="none" stroke="#F7BD13" stroke-width=".72" connectorname="5.0V"/>
   <circle id="connector173pad" cx="67.5" cy="141.8" r="1.8" fill="none" stroke="#F7BD13" stroke-width=".72" connectorname="5.0V"/>
   <circle id="connector471pad" cx="133.75" cy="28.361" r="1.2104" fill="none" stroke="#F7BD13" stroke-width=".72" connectorname="M1"/>
   <path d="m132.54 25.577h2.4208v5.5678h-2.4208v-5.5678m0 2.784a1.2104 1.2104 0 1 0 2.4208 0 1.2104 1.2104 0 1 0-2.4208 0z" fill="#F7BD13" stroke-width="0"/>
   <circle id="connector473pad" cx="133.75" cy="16.512" r="1.2104" fill="none" stroke="#F7BD13" stroke-width=".72" connectorname="M3"/>
   <path d="m132.54 13.728h2.4208v5.5678h-2.4208v-5.5678m0 2.7839a1.2104 1.2104 0 1 0 2.4208 0 1.2104 1.2104 0 1 0-2.4208 0z" fill="#F7BD13" stroke-width="0"/>
   <circle id="connector561pad" cx="153.88" cy="150.15" r="1.7065" fill="none" stroke="#F7BD13" stroke-width=".72" connectorname="VBUS"/>
   <path d="m152.17 146.22h3.4129v7.8497h-3.4129v-7.8497m0 3.925a1.7065 1.7065 0 1 0 3.4129 0 1.7065 1.7065 0 1 0-3.4129 0z" fill="#F7BD13" stroke-width="0"/>
   <g transform="matrix(-1 0 0 -1 86.939 290.26)">
    <rect id="connector300pad" x="42.052" y="138.61" width="2.8346" height="13.039" fill="#F7BD13" stroke-width="0"/>
   </g>
   <g transform="matrix(-1 0 0 -1 75.6 290.26)">
    <rect id="connector301pad" x="36.383" y="138.61" width="2.8346" height="13.039" fill="#F7BD13" stroke-width="0"/>
   </g>
   <g transform="matrix(-1 0 0 -1 64.261 290.26)">
    <rect id="connector302pad" x="30.713" y="138.61" width="2.8346" height="13.039" fill="#F7BD13" stroke-width="0"/>
   </g>
   <g transform="matrix(-1 0 0 -1 94.017 274.6)">
    <rect id="connector617pad" x="45.874" y="135.03" width="2.2677" height="4.5354" fill="#F7BD13" stroke-width="0"/>
   </g>
   <circle id="connector313pad" cx="115.83" cy="152.96" r="1.6299" fill="none" stroke="#F7BD13" stroke-width=".99212" connectorname="T2"/>
  </g>
 </g>
</svg>
