<?xml version="1.0" encoding="UTF-8"?>
<!-- Created with Fritzing (http://www.fritzing.org/) -->
<svg width=".7in" height="1.2in" baseProfile="tiny" version="1.2" viewBox="0 0 50.4 86.4" xmlns="http://www.w3.org/2000/svg">
 <desc>
  <referenceFile>TCA9548A_pcb.svg</referenceFile>
 </desc>
 <desc>Fritzing footprint generated by brd2svg</desc>
 <g id="silkscreen">
  <path d="m50.112 86.112h-49.824v-85.824h49.824v85.824" fill="none" stroke="#fff" stroke-width=".576"/>
  <g>
   <title>element:JP1</title>
   <g>
    <title>package:1X12_ROUND</title>
   </g>
  </g>
  <g>
   <title>element:JP3</title>
   <g>
    <title>package:1X12_ROUND</title>
   </g>
  </g>
  <g>
   <title>element:U$7</title>
   <g>
    <title>package:ADAFRUIT_TEXT_20MM</title>
   </g>
  </g>
  <g>
   <title>element:U1</title>
   <g>
    <title>package:TSSOP24</title>
    <line x1="18.729" x2="18.729" y1="30.227" y2="51.853" stroke="#fff" stroke-linecap="round" stroke-width=".432"/>
    <line x1="31.671" x2="18.729" y1="51.853" y2="51.853" stroke="#fff" stroke-linecap="round" stroke-width=".432"/>
    <line x1="31.671" x2="31.671" y1="51.853" y2="30.227" stroke="#fff" stroke-linecap="round" stroke-width=".432"/>
    <line x1="18.729" x2="31.671" y1="30.227" y2="30.227" stroke="#fff" stroke-linecap="round" stroke-width=".432"/>
    <line x1="19.377" x2="19.377" y1="30.875" y2="51.205" stroke="#fff" stroke-linecap="round" stroke-width=".144"/>
    <line x1="31.023" x2="19.377" y1="51.205" y2="51.205" stroke="#fff" stroke-linecap="round" stroke-width=".144"/>
    <line x1="31.023" x2="31.023" y1="51.205" y2="30.875" stroke="#fff" stroke-linecap="round" stroke-width=".144"/>
    <line x1="19.377" x2="31.023" y1="30.875" y2="30.875" stroke="#fff" stroke-linecap="round" stroke-width=".144"/>
    <circle cx="21.744" cy="32.747" r="1.296" fill="none" stroke="#fff" stroke-width=".432"/>
   </g>
  </g>
 </g>
 <g id="copper1">
  <g id="copper0" fill="none" stroke="#F7BD13" stroke-width=".95868">
   <circle id="connector4pad" cx="46.8" cy="82.8" r="1.8967" connectorname="2SDA"/>
   <circle id="connector5pad" cx="46.8" cy="75.6" r="1.8967" connectorname="2SCL"/>
   <circle id="connector6pad" cx="46.8" cy="68.4" r="1.8967" connectorname="3SDA"/>
   <circle id="connector7pad" cx="46.8" cy="61.2" r="1.8967" connectorname="3SCL"/>
   <circle id="connector8pad" cx="46.8" cy="54" r="1.8967" connectorname="4SDA"/>
   <circle id="connector9pad" cx="46.8" cy="46.8" r="1.8967" connectorname="4SCL"/>
   <circle id="connector10pad" cx="46.8" cy="39.6" r="1.8967" connectorname="5SDA"/>
   <circle id="connector11pad" cx="46.8" cy="32.4" r="1.8967" connectorname="5SCL"/>
   <circle id="connector12pad" cx="46.8" cy="25.2" r="1.8967" connectorname="6SDA"/>
   <circle id="connector13pad" cx="46.8" cy="18" r="1.8967" connectorname="6SCL"/>
   <circle id="connector14pad" cx="46.8" cy="10.8" r="1.8967" connectorname="7SDA"/>
   <circle id="connector15pad" cx="46.8" cy="3.6" r="1.8967" connectorname="7SCL"/>
   <circle id="connector16pad" cx="3.6" cy="3.6" r="1.8967" connectorname="VCC"/>
   <circle id="connector17pad" cx="3.6" cy="10.8" r="1.8967" connectorname="GND"/>
   <circle id="connector18pad" cx="3.6" cy="18" r="1.8967" connectorname="INPUTSDA"/>
   <circle id="connector19pad" cx="3.6" cy="25.2" r="1.8967" connectorname="INPUTSCL"/>
   <circle id="connector20pad" cx="3.6" cy="32.4" r="1.8967" connectorname="RESET"/>
   <circle id="connector21pad" cx="3.6" cy="39.6" r="1.8967" connectorname="A0"/>
   <circle id="connector22pad" cx="3.6" cy="46.8" r="1.8967" connectorname="A1"/>
   <circle id="connector23pad" cx="3.6" cy="54" r="1.8967" connectorname="A2"/>
   <circle id="connector24pad" cx="3.6" cy="61.2" r="1.8967" connectorname="0SDA"/>
   <circle id="connector25pad" cx="3.6" cy="68.4" r="1.8967" connectorname="0SCL"/>
   <circle id="connector26pad" cx="3.6" cy="75.6" r="1.8967" connectorname="1SDA"/>
   <circle id="connector27pad" cx="3.6" cy="82.8" r="1.8967" connectorname="1SCL"/>
  </g>
 </g>
</svg>
