<?xml version="1.0" encoding="UTF-8"?>
<!-- Created with Fritzing (http://www.fritzing.org/) -->
<svg width=".9in" height="1.4in" baseProfile="tiny" version="1.2" viewBox="0 0 64.8 100.8" xmlns="http://www.w3.org/2000/svg">
 <desc>
  <referenceFile>OV5640 Breakout rev B_pcb.svg</referenceFile>
 </desc>
 <desc>Fritzing footprint generated by brd2svg</desc>
 <g id="silkscreen">
  <path d="m0.288 100.51v-93.065a6.912 6.912 0 0 1 7.136-7.1589h49.952a6.9144 6.9144 0 0 1 7.136 7.1589v93.065h-64.224" fill="none" stroke="#fff" stroke-width=".576"/>
  <g>
   <title>element:JP1</title>
   <g>
    <title>package:1X09_ROUND_70</title>
   </g>
  </g>
  <g>
   <title>element:JP2</title>
   <g>
    <title>package:2X09-BIG</title>
   </g>
  </g>
  <g>
   <title>element:PLABEL6</title>
   <g>
    <title>package:PLABEL6</title>
   </g>
  </g>
  <g>
   <title>element:X1</title>
   <g>
    <title>package:OV2640FSL</title>
   </g>
  </g>
 </g>
 <g id="copper1">
  <g id="copper0" fill="none" stroke="#F7BD13">
   <circle id="connector54pad" cx="32.4" cy="97.2" r="1.908" stroke-width=".936" connectorname="DATA9"/>
   <circle id="connector62pad" cx="3.6" cy="97.2" r="1.908" stroke-width=".936" connectorname="!RESET"/>
   <circle id="connector58pad" cx="18" cy="97.2" r="1.908" stroke-width=".936" connectorname="DATA5"/>
   <circle id="connector56pad" cx="25.2" cy="97.2" r="1.908" stroke-width=".936" connectorname="DATA7"/>
   <circle id="connector60pad" cx="10.8" cy="97.2" r="1.908" stroke-width=".936" connectorname="DATA3"/>
   <circle id="connector88pad" cx="7.2" cy="7.2" r="4.972" stroke-width="1.44" connectorname="P$1"/>
   <circle id="connector53pad" cx="39.6" cy="90" r="1.908" stroke-width=".936" connectorname="EXT_XCLK"/>
   <circle id="connector55pad" cx="32.4" cy="90" r="1.908" stroke-width=".936" connectorname="DATA8"/>
   <circle id="connector57pad" cx="25.2" cy="90" r="1.908" stroke-width=".936" connectorname="DATA6"/>
   <circle id="connector59pad" cx="18" cy="90" r="1.908" stroke-width=".936" connectorname="DATA4"/>
   <circle id="connector61pad" cx="10.8" cy="90" r="1.908" stroke-width=".936" connectorname="DATA2"/>
   <circle id="connector63pad" cx="3.6" cy="90" r="1.908" stroke-width=".936" connectorname="PWDN"/>
   <circle id="connector37pad" cx="61.2" cy="75.6" r="1.9687" stroke-width="1.1027" connectorname="GND"/>
   <circle id="connector38pad" cx="54" cy="75.6" r="1.9687" stroke-width="1.1027" connectorname="SDA"/>
   <circle id="connector39pad" cx="46.8" cy="75.6" r="1.9687" stroke-width="1.1027" connectorname="HSYNC"/>
   <circle id="connector40pad" cx="39.6" cy="75.6" r="1.9687" stroke-width="1.1027" connectorname="EXT_XCLK"/>
   <circle id="connector41pad" cx="32.4" cy="75.6" r="1.9687" stroke-width="1.1027" connectorname="DATA8"/>
   <circle id="connector42pad" cx="25.2" cy="75.6" r="1.9687" stroke-width="1.1027" connectorname="DATA6"/>
   <circle id="connector43pad" cx="18" cy="75.6" r="1.9687" stroke-width="1.1027" connectorname="DATA4"/>
   <circle id="connector44pad" cx="10.8" cy="75.6" r="1.9687" stroke-width="1.1027" connectorname="DATA2"/>
   <circle id="connector45pad" cx="3.6" cy="75.6" r="1.9687" stroke-width="1.1027" connectorname="PWDN"/>
   <circle id="connector87pad" cx="57.6" cy="7.2" r="4.972" stroke-width="1.44" connectorname="P$1"/>
   <circle id="connector46pad" cx="61.2" cy="97.2" r="1.908" stroke-width=".936" connectorname="3.3V"/>
   <circle id="connector47pad" cx="61.2" cy="90" r="1.908" stroke-width=".936" connectorname="GND"/>
   <circle id="connector48pad" cx="54" cy="97.2" r="1.908" stroke-width=".936" connectorname="SCL"/>
   <circle id="connector49pad" cx="54" cy="90" r="1.908" stroke-width=".936" connectorname="SDA"/>
   <circle id="connector50pad" cx="46.8" cy="97.2" r="1.908" stroke-width=".936" connectorname="VSYNC"/>
   <circle id="connector51pad" cx="46.8" cy="90" r="1.908" stroke-width=".936" connectorname="HSYNC"/>
   <circle id="connector52pad" cx="39.6" cy="97.2" r="1.908" stroke-width=".936" connectorname="PCLK"/>
  </g>
 </g>
</svg>
