<?xml version="1.0" encoding="UTF-8"?>
<!-- Created with Fritzing (http://www.fritzing.org/) -->
<svg width="1.7511in" height=".6in" baseProfile="tiny" version="1.2" viewBox="0 0 126.08 43.2" xmlns="http://www.w3.org/2000/svg">
 <desc>
  <referenceFile>Adafruit TRRS Trinkey_pcb.svg</referenceFile>
 </desc>
 <desc>Fritzing footprint generated by brd2svg</desc>
 <g id="silkscreen">
  <path d="m49.222 0.288h57.337a6.912 6.912 0 0 1 7.166 7.104v6.3936l-0.716 0.7104v14.208l0.716 0.7104v6.3936a6.912 6.912 0 0 1-7.166 7.104h-57.337a6.912 6.912 0 0 1-7.1671-7.104v-28.416a6.912 6.912 0 0 1 7.1671-7.104m0.1054 27.69a1.271 1.271 0 1 0 2.5421 0 1.271 1.271 0 1 0-2.5421 0zm0-12.756a1.271 1.271 0 1 0 2.5421 0 1.271 1.271 0 1 0-2.5421 0zm55.159 6.378a1.6963 1.6963 0 1 0 3.3925 0 1.6963 1.6963 0 1 0-3.3925 0zm-19.842 0.2835a1.6963 1.6963 0 1 0 3.3925 0 1.6963 1.6963 0 1 0-3.3925 0z" fill="none" stroke="#fff" stroke-width=".576"/>
  <g>
   <title>element:CN1</title>
   <g>
    <title>package:USB_A-UGO4DD</title>
    <line x1="44.986" x2="41.89" y1="38.608" y2="38.608" stroke="#fff" stroke-linecap="round" stroke-width=".576"/>
    <line x1="41.89" x2="44.986" y1="4.5921" y2="4.5921" stroke="#fff" stroke-linecap="round" stroke-width=".576"/>
   </g>
  </g>
  <g>
   <title>element:PLABEL13</title>
   <g>
    <title>package:PLABEL13</title>
   </g>
  </g>
  <g>
   <title>element:X1</title>
   <g>
    <title>package:PJ-332A</title>
    <line x1="79.787" x2="79.787" y1="12.784" y2="30.536" stroke="#fff" stroke-linecap="round" stroke-width=".432"/>
    <line x1="79.787" x2="102.1" y1="30.536" y2="30.536" stroke="#fff" stroke-linecap="round" stroke-width=".432"/>
    <line x1="102.1" x2="109.96" y1="30.536" y2="30.536" stroke="#fff" stroke-linecap="round" stroke-width=".432"/>
    <line x1="109.96" x2="113.55" y1="30.536" y2="30.536" stroke="#fff" stroke-linecap="round" stroke-width=".432"/>
    <line x1="113.55" x2="113.55" y1="30.536" y2="12.664" stroke="#fff" stroke-linecap="round" stroke-width=".432"/>
    <line x1="113.55" x2="109.96" y1="12.664" y2="12.664" stroke="#fff" stroke-linecap="round" stroke-width=".432"/>
    <line x1="109.96" x2="79.787" y1="12.664" y2="12.664" stroke="#fff" stroke-linecap="round" stroke-width=".432"/>
    <line x1="79.787" x2="79.787" y1="12.664" y2="12.724" stroke="#fff" stroke-linecap="round" stroke-width=".432"/>
    <line x1="113.61" x2="119.19" y1="14.523" y2="14.523" stroke="#fff" stroke-linecap="round" stroke-width=".432"/>
    <line x1="119.19" x2="119.19" y1="14.523" y2="28.737" stroke="#fff" stroke-linecap="round" stroke-width=".432"/>
    <line x1="119.19" x2="113.55" y1="28.737" y2="28.737" stroke="#fff" stroke-linecap="round" stroke-width=".432"/>
    <line x1="109.96" x2="109.96" y1="12.664" y2="18.781" stroke="#fff" stroke-linecap="round" stroke-width=".432"/>
    <line x1="109.96" x2="108.52" y1="18.781" y2="18.781" stroke="#fff" stroke-linecap="round" stroke-width=".432"/>
    <line x1="108.52" x2="108.52" y1="18.781" y2="24.779" stroke="#fff" stroke-linecap="round" stroke-width=".432"/>
    <line x1="108.52" x2="109.96" y1="24.779" y2="24.779" stroke="#fff" stroke-linecap="round" stroke-width=".432"/>
    <line x1="109.96" x2="109.96" y1="24.779" y2="30.536" stroke="#fff" stroke-linecap="round" stroke-width=".432"/>
    <line x1="102.1" x2="102.1" y1="12.724" y2="30.536" stroke="#fff" stroke-linecap="round" stroke-width=".432"/>
   </g>
  </g>
  <line x1=".288" x2="41.958" y1="39.458" y2="39.458" fill="none" stroke="#fff" stroke-width=".576"/>
  <line x1=".288" x2="41.958" y1="3.7417" y2="3.7417" fill="none" stroke="#fff" stroke-width=".576"/>
  <line x1=".288" x2=".288" y1="39.458" y2="3.7417" fill="none" stroke="#fff" stroke-width=".576"/>
 </g>
 <g id="copper1">
  <g id="copper0">
   <circle id="connector13pad" cx="56.693" cy="18.765" r="1.8967" fill="none" stroke="#F7BD13" stroke-width=".95868" connectorname="D+"/>
   <circle id="connector74pad" cx="107.46" cy="28.545" r="1.5952" fill="none" stroke="#F7BD13" stroke-width="1.4896" connectorname="RING2"/>
   <path d="m103.79 26.95h7.3379v3.1904h-7.3379v-3.1904m2.074 1.5952a1.5952 1.5952 0 1 0 3.1904 0 1.5952 1.5952 0 1 0-3.1904 0z" fill="#F7BD13" stroke-width="0"/>
   <circle id="connector14pad" cx="56.693" cy="24.435" r="1.8967" fill="none" stroke="#F7BD13" stroke-width=".95868" connectorname="D-"/>
   <circle id="connector15pad" cx="56.693" cy="11.679" r="1.9687" fill="none" stroke="#F7BD13" stroke-width="1.1027" connectorname="GND"/>
   <circle id="connector16pad" cx="50.655" cy="38.183" r="2.126" fill="none" stroke="#F7BD13" stroke-width="1.9843" connectorname="MNT1"/>
   <path d="m45.765 36.057h9.7795v4.252h-9.7795v-4.252m2.7638 2.126a2.126 2.126 0 1 0 4.252 0 2.126 2.126 0 1 0-4.252 0z" fill="#F7BD13" stroke-width="0"/>
   <circle id="connector17pad" cx="50.655" cy="5.0173" r="1.9843" fill="none" stroke="#F7BD13" stroke-width="1.7008" connectorname="MNT2"/>
   <path d="m46.091 3.0331h9.1276v3.9685h-9.1276v-3.9685m2.5795 1.9842a1.9843 1.9843 0 1 0 3.9685 0 1.9843 1.9843 0 1 0-3.9685 0z" fill="#F7BD13" stroke-width="0"/>
   <circle id="connector18pad" cx="56.693" cy="31.521" r="1.9687" fill="none" stroke="#F7BD13" stroke-width="1.1027" connectorname="VBUS"/>
   <g transform="matrix(0 1 -1 0 135.39 -69.35)">
    <rect id="connector19pad" x="100.17" y="32.17" width="4.3937" height="1.7008" fill="#F7BD13" stroke-width="0"/>
   </g>
   <g transform="matrix(0 1 -1 0 132.56 -66.515)">
    <rect id="connector20pad" x="97.339" y="32.17" width="4.3937" height="1.7008" fill="#F7BD13" stroke-width="0"/>
   </g>
   <g transform="matrix(0 1 -1 0 129.72 -63.68)">
    <rect id="connector21pad" x="94.504" y="32.17" width="4.3937" height="1.7008" fill="#F7BD13" stroke-width="0"/>
   </g>
   <g transform="matrix(0 1 -1 0 126.89 -60.846)">
    <rect id="connector22pad" x="91.67" y="32.17" width="4.3937" height="1.7008" fill="#F7BD13" stroke-width="0"/>
   </g>
   <g transform="matrix(0 1 -1 0 98.511 -56.099)">
    <rect id="connector29pad" x="76.951" y="20.072" width=".70866" height="2.2677" fill="#F7BD13" stroke-width="0"/>
   </g>
   <g transform="matrix(0 1 -1 0 92.842 -61.768)">
    <rect id="connector33pad" x="76.951" y="14.403" width=".70866" height="2.2677" fill="#F7BD13" stroke-width="0"/>
   </g>
   <circle id="connector73pad" cx="107.74" cy="13.096" r="1.5952" fill="none" stroke="#F7BD13" stroke-width="1.4896" connectorname="SLEEVE"/>
   <path d="m104.07 11.501h7.3379v3.1904h-7.3379v-3.1904m2.074 1.5953a1.5952 1.5952 0 1 0 3.1904 0 1.5952 1.5952 0 1 0-3.1904 0z" fill="#F7BD13" stroke-width="0"/>
  </g>
 </g>
</svg>
