<?xml version="1.0" encoding="UTF-8"?>
<!-- Created with Fritzing (http://www.fritzing.org/) -->
<svg width="1.1in" height=".9in" baseProfile="tiny" version="1.2" viewBox="0 0 79.2 64.8" xmlns="http://www.w3.org/2000/svg">
 <desc>
  <referenceFile>Adafruit 12-Channel 16-bit PWM LED Driver - SPI _pcb.svg</referenceFile>
 </desc>
 <desc>Fritzing footprint generated by brd2svg</desc>
 <g id="silkscreen">
  <path d="m0.288 7.424a6.912 6.912 0 0 1 7.1477-7.136h64.329a6.912 6.912 0 0 1 7.1477 7.136v49.952a6.912 6.912 0 0 1-7.1477 7.136h-64.329a6.912 6.912 0 0 1-7.1477-7.136v-49.952" fill="none" stroke="#fff" stroke-width=".576"/>
  <g>
   <title>element:C4</title>
   <g>
    <title>package:E2,5-7</title>
    <line x1="66.24" x2="64.08" y1="32.4" y2="32.4" stroke="#fff" stroke-linecap="round" stroke-width=".432"/>
    <line x1="65.16" x2="65.16" y1="31.32" y2="33.48" stroke="#fff" stroke-linecap="round" stroke-width=".432"/>
    <circle cx="57.6" cy="32.4" r="9.72" fill="none" stroke="#fff" stroke-width=".432"/>
   </g>
  </g>
  <g>
   <title>element:IC1</title>
   <g>
    <title>package:HTSSOP20DAP</title>
    <line x1="30.027" x2="48.453" y1="26.164" y2="26.164" stroke="#fff" stroke-linecap="round" stroke-width=".288"/>
    <line x1="48.453" x2="48.453" y1="26.164" y2="38.636" stroke="#fff" stroke-linecap="round" stroke-width=".288"/>
    <line x1="48.453" x2="30.027" y1="38.636" y2="38.636" stroke="#fff" stroke-linecap="round" stroke-width=".288"/>
    <line x1="30.027" x2="30.027" y1="38.636" y2="26.164" stroke="#fff" stroke-linecap="round" stroke-width=".288"/>
    <circle cx="28.61" cy="37.644" r=".92126" fill="none" stroke="#fff" stroke-width=".288"/>
   </g>
  </g>
 </g>
 <g id="copper1">
  <g id="copper0" fill="none" stroke="#F7BD13">
   <circle id="connector54pad" cx="3.6" cy="32.4" r="1.9687" stroke-width="1.1027" connectorname="+15V"/>
   <circle id="connector46pad" cx="46.8" cy="61.2" r="1.9687" stroke-width="1.1027" connectorname="+15V"/>
   <circle id="connector62pad" cx="32.4" cy="3.6" r="1.9687" stroke-width="1.1027" connectorname="+15V"/>
   <circle id="connector78pad" cx="71.64" cy="57.96" r="4.2633" stroke-width="1.44" connectorname="P$1"/>
   <circle id="connector50pad" cx="61.2" cy="61.2" r="1.9687" stroke-width="1.1027" connectorname="+15V"/>
   <circle id="connector58pad" cx="18" cy="3.6" r="1.9687" stroke-width="1.1027" connectorname="+15V"/>
   <circle id="connector66pad" cx="54" cy="3.6" r="1.9687" stroke-width="1.1027" connectorname="+15V"/>
   <circle id="connector44pad" cx="32.4" cy="61.2" r="1.9687" stroke-width="1.1027" connectorname="+15V"/>
   <circle id="connector48pad" cx="54" cy="61.2" r="1.9687" stroke-width="1.1027" connectorname="+15V"/>
   <circle id="connector52pad" cx="3.6" cy="46.8" r="1.9687" stroke-width="1.1027" connectorname="DI"/>
   <circle id="connector56pad" cx="3.6" cy="18" r="1.9687" stroke-width="1.1027" connectorname="GND"/>
   <circle id="connector60pad" cx="25.2" cy="3.6" r="1.9687" stroke-width="1.1027" connectorname="+15V"/>
   <circle id="connector64pad" cx="46.8" cy="3.6" r="1.9687" stroke-width="1.1027" connectorname="+15V"/>
   <circle id="connector68pad" cx="61.2" cy="3.6" r="1.9687" stroke-width="1.1027" connectorname="+15V"/>
   <circle id="connector76pad" cx="71.64" cy="7.56" r="4.2633" stroke-width="1.44" connectorname="P$1"/>
   <circle id="connector43pad" cx="25.2" cy="54" r="1.9687" stroke-width="1.1027" connectorname="G0"/>
   <circle id="connector45pad" cx="32.4" cy="54" r="1.9687" stroke-width="1.1027" connectorname="B0"/>
   <circle id="connector47pad" cx="46.8" cy="54" r="1.9687" stroke-width="1.1027" connectorname="R1"/>
   <circle id="connector49pad" cx="54" cy="54" r="1.9687" stroke-width="1.1027" connectorname="G1"/>
   <circle id="connector51pad" cx="61.2" cy="54" r="1.9687" stroke-width="1.1027" connectorname="B1"/>
   <circle id="connector53pad" cx="3.6" cy="39.6" r="1.9687" stroke-width="1.1027" connectorname="CI"/>
   <circle id="connector55pad" cx="3.6" cy="25.2" r="1.9687" stroke-width="1.1027" connectorname="VCC"/>
   <circle id="connector57pad" cx="18" cy="10.8" r="1.9687" stroke-width="1.1027" connectorname="B3"/>
   <circle id="connector59pad" cx="25.2" cy="10.8" r="1.9687" stroke-width="1.1027" connectorname="G3"/>
   <circle id="connector61pad" cx="32.4" cy="10.8" r="1.9687" stroke-width="1.1027" connectorname="R3"/>
   <circle id="connector63pad" cx="46.8" cy="10.8" r="1.9687" stroke-width="1.1027" connectorname="B2"/>
   <circle id="connector65pad" cx="54" cy="10.8" r="1.9687" stroke-width="1.1027" connectorname="G2"/>
   <circle id="connector35pad" cx="75.6" cy="46.8" r="1.9687" stroke-width="1.1027" connectorname="DO"/>
   <circle id="connector67pad" cx="61.2" cy="10.8" r="1.9687" stroke-width="1.1027" connectorname="R2"/>
   <circle id="connector36pad" cx="75.6" cy="39.6" r="1.9687" stroke-width="1.1027" connectorname="CO"/>
   <circle id="connector37pad" cx="75.6" cy="32.4" r="1.9687" stroke-width="1.1027" connectorname="+15V"/>
   <circle id="connector38pad" cx="75.6" cy="25.2" r="1.9687" stroke-width="1.1027" connectorname="VCC"/>
   <circle id="connector39pad" cx="75.6" cy="18" r="1.9687" stroke-width="1.1027" connectorname="GND"/>
   <circle id="connector75pad" cx="7.2" cy="7.2" r="4.2633" stroke-width="1.44" connectorname="P$1"/>
   <circle id="connector40pad" cx="18" cy="61.2" r="1.9687" stroke-width="1.1027" connectorname="+15V"/>
   <circle id="connector77pad" cx="7.2" cy="57.6" r="4.2633" stroke-width="1.44" connectorname="P$1"/>
   <circle id="connector41pad" cx="18" cy="54" r="1.9687" stroke-width="1.1027" connectorname="R0"/>
   <circle id="connector42pad" cx="25.2" cy="61.2" r="1.9687" stroke-width="1.1027" connectorname="+15V"/>
  </g>
 </g>
</svg>
