<?xml version="1.0" encoding="UTF-8"?>
<!-- Created with Fritzing (http://www.fritzing.org/) -->
<svg width=".7in" height="1.135in" baseProfile="tiny" version="1.2" viewBox="0 0 50.4 81.72" xmlns="http://www.w3.org/2000/svg">
 <desc>
  <referenceFile>Adafruit CP2105 Friend_pcb.svg</referenceFile>
 </desc>
 <desc>Fritzing footprint generated by brd2svg</desc>
 <g id="silkscreen">
  <path d="m0.288 81.432v-73.28a5.112 5.112 0 0 1 5.3383-5.362h39.147a5.112 5.112 0 0 1 5.3383 5.362v73.28h-49.824m16.087-63.63a0.63326 0.63326 0 1 0 1.2665 0 0.63326 0.63326 0 1 0-1.2665 0zm16.384 0a0.63326 0.63326 0 1 0 1.2665 0 0.63326 0.63326 0 1 0-1.2665 0z" fill="none" stroke="#fff" stroke-width=".576"/>
  <g>
   <title>polygon</title>
   <path d="m12.78 80.28 1.44-2.16 1.44 2.16h-2.88" fill="none" stroke="#fff" stroke-linecap="round" stroke-width=".72"/>
  </g>
  <g>
   <title>polygon</title>
   <path d="m23.04 78.3-1.44 2.16-1.44-2.16h2.88" fill="none" stroke="#fff" stroke-linecap="round" stroke-width=".72"/>
  </g>
  <g>
   <title>polygon</title>
   <path d="m27.36 80.28 1.44-2.16 1.44 2.16h-2.88" fill="none" stroke="#fff" stroke-linecap="round" stroke-width=".72"/>
  </g>
  <g>
   <title>polygon</title>
   <path d="m37.26 78.3-1.125 2.25-1.125-2.25h2.25" fill="none" stroke="#fff" stroke-linecap="round" stroke-width=".72"/>
  </g>
  <g>
   <title>element:JP2</title>
   <g>
    <title>package:1X08_ROUND_70</title>
   </g>
  </g>
  <g>
   <title>element:JP4</title>
   <g>
    <title>package:1X08_ROUND_70</title>
   </g>
  </g>
  <g>
   <title>element:PLABEL24</title>
   <g>
    <title>package:PLABEL24</title>
   </g>
  </g>
  <g>
   <title>element:U$22</title>
   <g>
    <title>package:ADAFRUIT_5MM</title>
   </g>
  </g>
  <g>
   <title>element:X2</title>
   <g>
    <title>package:USB_C_CUSB31-CFM2AX-01-X</title>
    <line x1="37.871" x2="37.871" y1="11.339" y2="15.165" stroke="#fff" stroke-linecap="round" stroke-width=".288"/>
    <line x1="12.529" x2="12.529" y1="15.165" y2="11.339" stroke="#fff" stroke-linecap="round" stroke-width=".288"/>
    <line x1="12.529" x2="37.871" stroke="#fff" stroke-linecap="round" stroke-width=".288"/>
    <line x1="37.871" x2="37.871" y2="3.8268" stroke="#fff" stroke-linecap="round" stroke-width=".288"/>
    <line x1="12.529" x2="12.529" y1="3.8268" stroke="#fff" stroke-linecap="round" stroke-width=".288"/>
   </g>
  </g>
  <line x1="11.556" x2="38.88" y1=".288" y2=".288" fill="none" stroke="#fff" stroke-width=".576"/>
  <line x1="11.556" x2="11.556" y1="2.52" y2=".288" fill="none" stroke="#fff" stroke-width=".576"/>
  <line x1="38.88" x2="38.88" y1="2.52" y2=".288" fill="none" stroke="#fff" stroke-width=".576"/>
 </g>
 <g id="copper1">
  <g id="copper0">
   <circle id="connector50pad" cx="5.76" cy="8.28" r="3.8381" fill="none" stroke="#F7BD13" stroke-width="1.44" connectorname="P$1"/>
   <circle id="connector90pad" cx="37.446" cy="7.3701" r="1.2104" fill="none" stroke="#F7BD13" stroke-width=".72" connectorname="M3"/>
   <path d="m36.235 4.5862h2.4208v5.5678h-2.4208v-5.5678m0 2.7839a1.2104 1.2104 0 1 0 2.4208 0 1.2104 1.2104 0 1 0-2.4208 0z" fill="#F7BD13" stroke-width="0"/>
   <circle id="connector17pad" cx="7.2" cy="74.52" r="1.9687" fill="none" stroke="#F7BD13" stroke-width="1.1027" connectorname="GND"/>
   <circle id="connector18pad" cx="14.4" cy="74.52" r="1.9687" fill="none" stroke="#F7BD13" stroke-width="1.1027" connectorname="RX1"/>
   <circle id="connector19pad" cx="21.6" cy="74.52" r="1.9687" fill="none" stroke="#F7BD13" stroke-width="1.1027" connectorname="TX1"/>
   <circle id="connector20pad" cx="28.8" cy="74.52" r="1.9687" fill="none" stroke="#F7BD13" stroke-width="1.1027" connectorname="RX2"/>
   <circle id="connector21pad" cx="36" cy="74.52" r="1.9687" fill="none" stroke="#F7BD13" stroke-width="1.1027" connectorname="TX2"/>
   <circle id="connector22pad" cx="43.2" cy="74.52" r="1.9687" fill="none" stroke="#F7BD13" stroke-width="1.1027" connectorname="VBUS"/>
   <circle id="connector23pad" cx="43.2" cy="16.92" r="1.9687" fill="none" stroke="#F7BD13" stroke-width="1.1027" connectorname="VBUS"/>
   <circle id="connector24pad" cx="43.2" cy="24.12" r="1.9687" fill="none" stroke="#F7BD13" stroke-width="1.1027" connectorname="GND"/>
   <circle id="connector25pad" cx="43.2" cy="31.32" r="1.9687" fill="none" stroke="#F7BD13" stroke-width="1.1027" connectorname="RI2"/>
   <circle id="connector88pad" cx="37.446" cy="19.219" r="1.2104" fill="none" stroke="#F7BD13" stroke-width=".72" connectorname="M1"/>
   <path d="m36.235 16.435h2.4208v5.5678h-2.4208v-5.5678m0 2.7839a1.2104 1.2104 0 1 0 2.4208 0 1.2104 1.2104 0 1 0-2.4208 0z" fill="#F7BD13" stroke-width="0"/>
   <circle id="connector26pad" cx="43.2" cy="38.52" r="1.9687" fill="none" stroke="#F7BD13" stroke-width="1.1027" connectorname="DTR2"/>
   <circle id="connector49pad" cx="44.64" cy="8.28" r="3.8381" fill="none" stroke="#F7BD13" stroke-width="1.44" connectorname="P$1"/>
   <circle id="connector27pad" cx="43.2" cy="45.72" r="1.9687" fill="none" stroke="#F7BD13" stroke-width="1.1027" connectorname="TX2"/>
   <circle id="connector28pad" cx="43.2" cy="52.92" r="1.9687" fill="none" stroke="#F7BD13" stroke-width="1.1027" connectorname="RX2"/>
   <circle id="connector29pad" cx="43.2" cy="60.12" r="1.9687" fill="none" stroke="#F7BD13" stroke-width="1.1027" connectorname="RTS2"/>
   <circle id="connector30pad" cx="43.2" cy="67.32" r="1.9687" fill="none" stroke="#F7BD13" stroke-width="1.1027" connectorname="CTS2"/>
   <circle id="connector31pad" cx="7.2" cy="16.92" r="1.9687" fill="none" stroke="#F7BD13" stroke-width="1.1027" connectorname="3.3V"/>
   <circle id="connector32pad" cx="7.2" cy="24.12" r="1.9687" fill="none" stroke="#F7BD13" stroke-width="1.1027" connectorname="DSR1"/>
   <circle id="connector33pad" cx="7.2" cy="31.32" r="1.9687" fill="none" stroke="#F7BD13" stroke-width="1.1027" connectorname="CTS1"/>
   <circle id="connector34pad" cx="7.2" cy="38.52" r="1.9687" fill="none" stroke="#F7BD13" stroke-width="1.1027" connectorname="RTS1"/>
   <circle id="connector35pad" cx="7.2" cy="45.72" r="1.9687" fill="none" stroke="#F7BD13" stroke-width="1.1027" connectorname="RX1"/>
   <circle id="connector36pad" cx="7.2" cy="52.92" r="1.9687" fill="none" stroke="#F7BD13" stroke-width="1.1027" connectorname="TX1"/>
   <circle id="connector37pad" cx="7.2" cy="60.12" r="1.9687" fill="none" stroke="#F7BD13" stroke-width="1.1027" connectorname="DTR1"/>
   <circle id="connector38pad" cx="7.2" cy="67.32" r="1.9687" fill="none" stroke="#F7BD13" stroke-width="1.1027" connectorname="RI1"/>
   <circle id="connector89pad" cx="12.954" cy="19.219" r="1.2104" fill="none" stroke="#F7BD13" stroke-width=".72" connectorname="M2"/>
   <path d="m11.744 16.435h2.4208v5.5678h-2.4208v-5.5678m0 2.7839a1.2104 1.2104 0 1 0 2.4208 0 1.2104 1.2104 0 1 0-2.4208 0z" fill="#F7BD13" stroke-width="0"/>
   <circle id="connector91pad" cx="12.954" cy="7.3701" r="1.2104" fill="none" stroke="#F7BD13" stroke-width=".72" connectorname="M4"/>
   <path d="m11.744 4.5862h2.4208v5.5678h-2.4208v-5.5678m0 2.7839a1.2104 1.2104 0 1 0 2.4208 0 1.2104 1.2104 0 1 0-2.4208 0z" fill="#F7BD13" stroke-width="0"/>
  </g>
 </g>
</svg>
