<?xml version="1.0" encoding="UTF-8"?>
<!-- Created with Fritzing (http://www.fritzing.org/) -->
<svg width="1.7in" height="1.4in" baseProfile="tiny" version="1.2" viewBox="0 0 122.4 100.8" xmlns="http://www.w3.org/2000/svg">
 <desc>
  <referenceFile>Adafruit 1.27 inch 16-bit Color OLED w microSD holder_pcb.svg</referenceFile>
 </desc>
 <desc>Fritzing footprint generated by brd2svg</desc>
 <g id="silkscreen">
  <path d="m111.36 86.194h3.583a6.912 6.912 0 0 1 7.166 7.1589 6.912 6.912 0 0 1-7.166 7.159h-107.49a6.912 6.912 0 0 1-7.1661-7.159 6.912 6.912 0 0 1 7.1661-7.1589h3.5831v-71.588h-3.5831a6.912 6.912 0 0 1-7.1661-7.1588 6.912 6.912 0 0 1 7.1661-7.1589h107.49a6.912 6.912 0 0 1 7.166 7.1589 6.912 6.912 0 0 1-7.166 7.1588h-3.583v71.588" fill="none" stroke="#fff" stroke-width=".576"/>
  <line x1="109.44" x2="109.44" y1="15.48" y2="18.734" stroke="#fff" stroke-linecap="round" stroke-width=".72"/>
  <line x1="109.44" x2="109.44" y1="21.569" y2="24.823" stroke="#fff" stroke-linecap="round" stroke-width=".72"/>
  <line x1="109.44" x2="109.44" y1="27.658" y2="30.912" stroke="#fff" stroke-linecap="round" stroke-width=".72"/>
  <line x1="109.44" x2="109.44" y1="33.746" y2="37.001" stroke="#fff" stroke-linecap="round" stroke-width=".72"/>
  <line x1="109.44" x2="109.44" y1="39.835" y2="43.09" stroke="#fff" stroke-linecap="round" stroke-width=".72"/>
  <line x1="109.44" x2="109.44" y1="45.924" y2="49.178" stroke="#fff" stroke-linecap="round" stroke-width=".72"/>
  <line x1="109.44" x2="109.44" y1="52.013" y2="55.267" stroke="#fff" stroke-linecap="round" stroke-width=".72"/>
  <line x1="109.44" x2="109.44" y1="58.102" y2="61.356" stroke="#fff" stroke-linecap="round" stroke-width=".72"/>
  <line x1="109.44" x2="109.44" y1="64.19" y2="67.445" stroke="#fff" stroke-linecap="round" stroke-width=".72"/>
  <line x1="109.44" x2="109.44" y1="70.279" y2="73.534" stroke="#fff" stroke-linecap="round" stroke-width=".72"/>
  <line x1="109.44" x2="109.44" y1="76.368" y2="79.623" stroke="#fff" stroke-linecap="round" stroke-width=".72"/>
  <line x1="109.44" x2="109.44" y1="82.457" y2="85.711" stroke="#fff" stroke-linecap="round" stroke-width=".72"/>
  <line x1="109.44" x2="109.44" y1="88.546" y2="91.8" stroke="#fff" stroke-linecap="round" stroke-width=".72"/>
  <line x1="109.44" x2="106.43" y1="91.8" y2="91.8" stroke="#fff" stroke-linecap="round" stroke-width=".72"/>
  <line x1="103.6" x2="100.59" y1="91.8" y2="91.8" stroke="#fff" stroke-linecap="round" stroke-width=".72"/>
  <line x1="97.756" x2="94.748" y1="91.8" y2="91.8" stroke="#fff" stroke-linecap="round" stroke-width=".72"/>
  <line x1="91.914" x2="88.906" y1="91.8" y2="91.8" stroke="#fff" stroke-linecap="round" stroke-width=".72"/>
  <line x1="86.072" x2="83.064" y1="91.8" y2="91.8" stroke="#fff" stroke-linecap="round" stroke-width=".72"/>
  <line x1="80.23" x2="77.222" y1="91.8" y2="91.8" stroke="#fff" stroke-linecap="round" stroke-width=".72"/>
  <line x1="74.388" x2="71.38" y1="91.8" y2="91.8" stroke="#fff" stroke-linecap="round" stroke-width=".72"/>
  <line x1="68.546" x2="65.538" y1="91.8" y2="91.8" stroke="#fff" stroke-linecap="round" stroke-width=".72"/>
  <line x1="62.704" x2="59.696" y1="91.8" y2="91.8" stroke="#fff" stroke-linecap="round" stroke-width=".72"/>
  <line x1="56.862" x2="53.854" y1="91.8" y2="91.8" stroke="#fff" stroke-linecap="round" stroke-width=".72"/>
  <line x1="51.02" x2="48.012" y1="91.8" y2="91.8" stroke="#fff" stroke-linecap="round" stroke-width=".72"/>
  <line x1="45.178" x2="42.17" y1="91.8" y2="91.8" stroke="#fff" stroke-linecap="round" stroke-width=".72"/>
  <line x1="39.336" x2="36.328" y1="91.8" y2="91.8" stroke="#fff" stroke-linecap="round" stroke-width=".72"/>
  <line x1="33.494" x2="30.486" y1="91.8" y2="91.8" stroke="#fff" stroke-linecap="round" stroke-width=".72"/>
  <line x1="27.652" x2="24.644" y1="91.8" y2="91.8" stroke="#fff" stroke-linecap="round" stroke-width=".72"/>
  <line x1="21.809" x2="18.802" y1="91.8" y2="91.8" stroke="#fff" stroke-linecap="round" stroke-width=".72"/>
  <line x1="15.967" x2="12.96" y1="91.8" y2="91.8" stroke="#fff" stroke-linecap="round" stroke-width=".72"/>
  <line x1="12.96" x2="12.96" y1="91.8" y2="88.546" stroke="#fff" stroke-linecap="round" stroke-width=".72"/>
  <line x1="12.96" x2="12.96" y1="85.711" y2="82.457" stroke="#fff" stroke-linecap="round" stroke-width=".72"/>
  <line x1="12.96" x2="12.96" y1="79.623" y2="76.368" stroke="#fff" stroke-linecap="round" stroke-width=".72"/>
  <line x1="12.96" x2="12.96" y1="73.534" y2="70.279" stroke="#fff" stroke-linecap="round" stroke-width=".72"/>
  <line x1="12.96" x2="12.96" y1="67.445" y2="64.19" stroke="#fff" stroke-linecap="round" stroke-width=".72"/>
  <line x1="12.96" x2="12.96" y1="61.356" y2="58.102" stroke="#fff" stroke-linecap="round" stroke-width=".72"/>
  <line x1="12.96" x2="12.96" y1="55.267" y2="52.013" stroke="#fff" stroke-linecap="round" stroke-width=".72"/>
  <line x1="12.96" x2="12.96" y1="49.178" y2="45.924" stroke="#fff" stroke-linecap="round" stroke-width=".72"/>
  <line x1="12.96" x2="12.96" y1="43.09" y2="39.835" stroke="#fff" stroke-linecap="round" stroke-width=".72"/>
  <line x1="12.96" x2="12.96" y1="37.001" y2="33.746" stroke="#fff" stroke-linecap="round" stroke-width=".72"/>
  <line x1="12.96" x2="12.96" y1="30.912" y2="27.658" stroke="#fff" stroke-linecap="round" stroke-width=".72"/>
  <line x1="12.96" x2="12.96" y1="24.823" y2="21.569" stroke="#fff" stroke-linecap="round" stroke-width=".72"/>
  <line x1="12.96" x2="12.96" y1="18.734" y2="15.48" stroke="#fff" stroke-linecap="round" stroke-width=".72"/>
  <line x1="12.96" x2="15.967" y1="15.48" y2="15.48" stroke="#fff" stroke-linecap="round" stroke-width=".72"/>
  <line x1="18.802" x2="21.809" y1="15.48" y2="15.48" stroke="#fff" stroke-linecap="round" stroke-width=".72"/>
  <line x1="24.644" x2="27.652" y1="15.48" y2="15.48" stroke="#fff" stroke-linecap="round" stroke-width=".72"/>
  <line x1="30.486" x2="33.494" y1="15.48" y2="15.48" stroke="#fff" stroke-linecap="round" stroke-width=".72"/>
  <line x1="36.328" x2="39.336" y1="15.48" y2="15.48" stroke="#fff" stroke-linecap="round" stroke-width=".72"/>
  <line x1="42.17" x2="45.178" y1="15.48" y2="15.48" stroke="#fff" stroke-linecap="round" stroke-width=".72"/>
  <line x1="48.012" x2="51.02" y1="15.48" y2="15.48" stroke="#fff" stroke-linecap="round" stroke-width=".72"/>
  <line x1="53.854" x2="56.862" y1="15.48" y2="15.48" stroke="#fff" stroke-linecap="round" stroke-width=".72"/>
  <line x1="59.696" x2="62.704" y1="15.48" y2="15.48" stroke="#fff" stroke-linecap="round" stroke-width=".72"/>
  <line x1="65.538" x2="68.546" y1="15.48" y2="15.48" stroke="#fff" stroke-linecap="round" stroke-width=".72"/>
  <line x1="71.38" x2="74.388" y1="15.48" y2="15.48" stroke="#fff" stroke-linecap="round" stroke-width=".72"/>
  <line x1="77.222" x2="80.23" y1="15.48" y2="15.48" stroke="#fff" stroke-linecap="round" stroke-width=".72"/>
  <line x1="83.064" x2="86.072" y1="15.48" y2="15.48" stroke="#fff" stroke-linecap="round" stroke-width=".72"/>
  <line x1="88.906" x2="91.914" y1="15.48" y2="15.48" stroke="#fff" stroke-linecap="round" stroke-width=".72"/>
  <line x1="94.748" x2="97.756" y1="15.48" y2="15.48" stroke="#fff" stroke-linecap="round" stroke-width=".72"/>
  <line x1="100.59" x2="103.6" y1="15.48" y2="15.48" stroke="#fff" stroke-linecap="round" stroke-width=".72"/>
  <line x1="106.43" x2="109.44" y1="15.48" y2="15.48" stroke="#fff" stroke-linecap="round" stroke-width=".72"/>
  <line x1="99.72" x2="96.823" y1="23.04" y2="23.026" stroke="#fff" stroke-linecap="round" stroke-width=".72"/>
  <line x1="93.989" x2="91.092" y1="23.013" y2="23" stroke="#fff" stroke-linecap="round" stroke-width=".72"/>
  <line x1="88.258" x2="85.362" y1="22.987" y2="22.973" stroke="#fff" stroke-linecap="round" stroke-width=".72"/>
  <line x1="82.527" x2="79.631" y1="22.96" y2="22.946" stroke="#fff" stroke-linecap="round" stroke-width=".72"/>
  <line x1="76.796" x2="73.899" y1="22.933" y2="22.92" stroke="#fff" stroke-linecap="round" stroke-width=".72"/>
  <line x1="71.065" x2="68.168" y1="22.907" y2="22.893" stroke="#fff" stroke-linecap="round" stroke-width=".72"/>
  <line x1="65.334" x2="62.437" y1="22.88" y2="22.867" stroke="#fff" stroke-linecap="round" stroke-width=".72"/>
  <line x1="59.603" x2="56.706" y1="22.853" y2="22.84" stroke="#fff" stroke-linecap="round" stroke-width=".72"/>
  <line x1="53.872" x2="50.975" y1="22.827" y2="22.813" stroke="#fff" stroke-linecap="round" stroke-width=".72"/>
  <line x1="48.141" x2="45.244" y1="22.8" y2="22.787" stroke="#fff" stroke-linecap="round" stroke-width=".72"/>
  <line x1="42.41" x2="39.513" y1="22.774" y2="22.76" stroke="#fff" stroke-linecap="round" stroke-width=".72"/>
  <line x1="36.678" x2="33.782" y1="22.747" y2="22.733" stroke="#fff" stroke-linecap="round" stroke-width=".72"/>
  <line x1="30.948" x2="28.051" y1="22.72" y2="22.707" stroke="#fff" stroke-linecap="round" stroke-width=".72"/>
  <line x1="25.216" x2="22.32" y1="22.694" y2="22.68" stroke="#fff" stroke-linecap="round" stroke-width=".72"/>
  <line x1="22.32" x2="22.32" y1="22.68" y2="25.889" stroke="#fff" stroke-linecap="round" stroke-width=".72"/>
  <line x1="22.32" x2="22.32" y1="28.724" y2="31.932" stroke="#fff" stroke-linecap="round" stroke-width=".72"/>
  <line x1="22.32" x2="22.32" y1="34.767" y2="37.976" stroke="#fff" stroke-linecap="round" stroke-width=".72"/>
  <line x1="22.32" x2="22.32" y1="40.81" y2="44.019" stroke="#fff" stroke-linecap="round" stroke-width=".72"/>
  <line x1="22.32" x2="22.32" y1="46.854" y2="50.063" stroke="#fff" stroke-linecap="round" stroke-width=".72"/>
  <line x1="22.32" x2="22.32" y1="52.897" y2="56.106" stroke="#fff" stroke-linecap="round" stroke-width=".72"/>
  <line x1="22.32" x2="22.32" y1="58.941" y2="62.15" stroke="#fff" stroke-linecap="round" stroke-width=".72"/>
  <line x1="22.32" x2="22.32" y1="64.984" y2="68.193" stroke="#fff" stroke-linecap="round" stroke-width=".72"/>
  <line x1="22.32" x2="22.32" y1="71.028" y2="74.236" stroke="#fff" stroke-linecap="round" stroke-width=".72"/>
  <line x1="22.32" x2="22.32" y1="77.071" y2="80.28" stroke="#fff" stroke-linecap="round" stroke-width=".72"/>
  <line x1="22.32" x2="25.242" y1="80.28" y2="80.28" stroke="#fff" stroke-linecap="round" stroke-width=".72"/>
  <line x1="28.077" x2="30.999" y1="80.28" y2="80.28" stroke="#fff" stroke-linecap="round" stroke-width=".72"/>
  <line x1="33.834" x2="36.756" y1="80.28" y2="80.28" stroke="#fff" stroke-linecap="round" stroke-width=".72"/>
  <line x1="39.59" x2="42.512" y1="80.28" y2="80.28" stroke="#fff" stroke-linecap="round" stroke-width=".72"/>
  <line x1="45.347" x2="48.269" y1="80.28" y2="80.28" stroke="#fff" stroke-linecap="round" stroke-width=".72"/>
  <line x1="51.104" x2="54.026" y1="80.28" y2="80.28" stroke="#fff" stroke-linecap="round" stroke-width=".72"/>
  <line x1="56.861" x2="59.783" y1="80.28" y2="80.28" stroke="#fff" stroke-linecap="round" stroke-width=".72"/>
  <line x1="62.617" x2="65.539" y1="80.28" y2="80.28" stroke="#fff" stroke-linecap="round" stroke-width=".72"/>
  <line x1="68.374" x2="71.296" y1="80.28" y2="80.28" stroke="#fff" stroke-linecap="round" stroke-width=".72"/>
  <line x1="74.131" x2="77.053" y1="80.28" y2="80.28" stroke="#fff" stroke-linecap="round" stroke-width=".72"/>
  <line x1="79.888" x2="82.809" y1="80.28" y2="80.28" stroke="#fff" stroke-linecap="round" stroke-width=".72"/>
  <line x1="85.645" x2="88.566" y1="80.28" y2="80.28" stroke="#fff" stroke-linecap="round" stroke-width=".72"/>
  <line x1="91.401" x2="94.324" y1="80.28" y2="80.28" stroke="#fff" stroke-linecap="round" stroke-width=".72"/>
  <line x1="97.158" x2="100.08" y1="80.28" y2="80.28" stroke="#fff" stroke-linecap="round" stroke-width=".72"/>
  <line x1="100.08" x2="100.06" y1="80.28" y2="77.107" stroke="#fff" stroke-linecap="round" stroke-width=".72"/>
  <line x1="100.04" x2="100.02" y1="74.272" y2="71.1" stroke="#fff" stroke-linecap="round" stroke-width=".72"/>
  <line x1="100" x2="99.984" y1="68.265" y2="65.092" stroke="#fff" stroke-linecap="round" stroke-width=".72"/>
  <line x1="99.967" x2="99.947" y1="62.258" y2="59.085" stroke="#fff" stroke-linecap="round" stroke-width=".72"/>
  <line x1="99.929" x2="99.909" y1="56.25" y2="53.077" stroke="#fff" stroke-linecap="round" stroke-width=".72"/>
  <line x1="99.891" x2="99.871" y1="50.243" y2="47.07" stroke="#fff" stroke-linecap="round" stroke-width=".72"/>
  <line x1="99.853" x2="99.833" y1="44.235" y2="41.062" stroke="#fff" stroke-linecap="round" stroke-width=".72"/>
  <line x1="99.816" x2="99.796" y1="38.228" y2="35.055" stroke="#fff" stroke-linecap="round" stroke-width=".72"/>
  <line x1="99.778" x2="99.757" y1="32.22" y2="29.048" stroke="#fff" stroke-linecap="round" stroke-width=".72"/>
  <line x1="99.74" x2="99.72" y1="26.213" y2="23.04" stroke="#fff" stroke-linecap="round" stroke-width=".72"/>
  <g>
   <title>element:CN1</title>
   <g>
    <title>package:MICROSD</title>
   </g>
  </g>
  <g>
   <title>element:JP1</title>
   <g>
    <title>package:1X11_ROUND</title>
   </g>
  </g>
  <g>
   <title>element:U1</title>
   <g>
    <title>package:FPC_XF2M-3015-1A</title>
   </g>
  </g>
  <g>
   <title>element:U4</title>
   <g>
    <title>package:SOIC16</title>
   </g>
  </g>
 </g>
 <g id="copper1">
  <g id="copper0" fill="none" stroke="#F7BD13">
   <circle id="connector6pad" cx="32.4" cy="7.2" r="1.8967" stroke-width=".95868" connectorname="CLK"/>
   <circle id="connector18pad" cx="7.2" cy="7.2" r="4.2633" stroke-width="1.44" connectorname="P$1"/>
   <circle id="connector14pad" cx="90" cy="7.2" r="1.8967" stroke-width=".95868" connectorname="VIN"/>
   <circle id="connector7pad" cx="39.6" cy="7.2" r="1.8967" stroke-width=".95868" connectorname="DC"/>
   <circle id="connector16pad" cx="115.2" cy="93.6" r="4.2633" stroke-width="1.44" connectorname="P$1"/>
   <circle id="connector8pad" cx="46.8" cy="7.2" r="1.8967" stroke-width=".95868" connectorname="RESET"/>
   <circle id="connector13pad" cx="82.8" cy="7.2" r="1.8967" stroke-width=".95868" connectorname="3.3V"/>
   <circle id="connector9pad" cx="54" cy="7.2" r="1.8967" stroke-width=".95868" connectorname="OLEDCS"/>
   <circle id="connector15pad" cx="97.2" cy="7.2" r="1.8967" stroke-width=".95868" connectorname="GND"/>
   <circle id="connector10pad" cx="61.2" cy="7.2" r="1.8967" stroke-width=".95868" connectorname="SDCS"/>
   <circle id="connector17pad" cx="7.2" cy="93.6" r="4.2633" stroke-width="1.44" connectorname="P$1"/>
   <circle id="connector11pad" cx="68.4" cy="7.2" r="1.8967" stroke-width=".95868" connectorname="MISO"/>
   <circle id="connector19pad" cx="115.2" cy="7.2" r="4.2633" stroke-width="1.44" connectorname="P$1"/>
   <circle id="connector12pad" cx="75.6" cy="7.2" r="1.8967" stroke-width=".95868" connectorname="SD_CD"/>
   <circle id="connector5pad" cx="25.2" cy="7.2" r="1.8967" stroke-width=".95868" connectorname="MOSI"/>
   <rect x="23.303" y="5.3033" width="3.7933" height="3.7933" stroke-width=".95868"/>
  </g>
 </g>
</svg>
