<?xml version="1.0" encoding="UTF-8"?>
<!-- Created with Fritzing (http://www.fritzing.org/) -->
<svg width=".65in" height=".5in" baseProfile="tiny" version="1.2" viewBox="0 0 46.8 36" xmlns="http://www.w3.org/2000/svg">
 <desc>
  <referenceFile>Adafruit I2S Mic_pcb.svg</referenceFile>
 </desc>
 <desc>Fritzing footprint generated by brd2svg</desc>
 <g id="silkscreen">
  <path d="m0.288 7.3728a6.912 6.912 0 0 1 7.1114-7.0848h32.001a6.912 6.912 0 0 1 7.1114 7.0848v21.254a6.912 6.912 0 0 1-7.1114 7.0848h-32.001a6.912 6.912 0 0 1-7.1114-7.0848v-21.254" fill="none" stroke="#fff" stroke-width=".576"/>
  <line x1="12.24" x2="18.36" y1="14.04" y2="14.04" stroke="#fff" stroke-linecap="round" stroke-width=".72"/>
  <line x1="18.36" x2="16.92" y1="14.04" y2="12.96" stroke="#fff" stroke-linecap="round" stroke-width=".72"/>
  <line x1="16.92" x2="16.92" y1="12.96" y2="15.12" stroke="#fff" stroke-linecap="round" stroke-width=".72"/>
  <line x1="16.92" x2="18.36" y1="15.12" y2="14.04" stroke="#fff" stroke-linecap="round" stroke-width=".72"/>
  <g>
   <title>element:JP2</title>
   <g>
    <title>package:1X06_ROUND</title>
   </g>
  </g>
  <g>
   <title>element:U$5</title>
   <g>
    <title>package:ADAFRUIT_3.5MM</title>
   </g>
  </g>
  <g>
   <title>element:U$6</title>
   <g>
    <title>package:MOUNTINGHOLE_2.5_PLATED</title>
    <circle cx="7.2" cy="7.2" r="5.6693" fill="none" stroke="#fff" stroke-width=".576"/>
   </g>
  </g>
  <g>
   <title>element:U$12</title>
   <g>
    <title>package:MOUNTINGHOLE_2.5_PLATED</title>
    <circle cx="39.6" cy="7.2" r="5.6693" fill="none" stroke="#fff" stroke-width=".576"/>
   </g>
  </g>
 </g>
 <g id="copper1">
  <g id="copper0" fill="none" stroke="#F7BD13">
   <circle id="connector1pad" cx="41.4" cy="28.8" r="1.8967" stroke-width=".95868" connectorname="VDD"/>
   <circle id="connector5pad" cx="12.6" cy="28.8" r="1.8967" stroke-width=".95868" connectorname="WS"/>
   <circle id="connector2pad" cx="34.2" cy="28.8" r="1.8967" stroke-width=".95868" connectorname="GND"/>
   <circle id="connector6pad" cx="5.4" cy="28.8" r="1.8967" stroke-width=".95868" connectorname="SELECT"/>
   <circle id="connector3pad" cx="27" cy="28.8" r="1.8967" stroke-width=".95868" connectorname="BCLK"/>
   <circle id="connector4pad" cx="19.8" cy="28.8" r="1.8967" stroke-width=".95868" connectorname="DATA"/>
   <circle id="connector0pad" cx="23.4" cy="13.827" r="1.878" stroke-width=".85039" connectorname="GND"/>
  </g>
 </g>
</svg>
