<?xml version="1.0" encoding="UTF-8"?>
<!-- Created with Fritzing (http://www.fritzing.org/) -->
<svg width="2.56in" height="1.2083in" baseProfile="tiny" version="1.2" viewBox="0 0 184.32 86.998" xmlns="http://www.w3.org/2000/svg">
 <desc>
  <referenceFile>Adafruit GPIO Expander Bonnet Rev C_pcb.svg</referenceFile>
 </desc>
 <desc>Fritzing footprint generated by brd2svg</desc>
 <g id="silkscreen">
  <path d="m0.288 8.7356a8.2159 8.2159 0 0 1 8.4774-8.4476h166.79a8.2159 8.2159 0 0 1 8.477 8.4476v69.469a8.2159 8.2159 0 0 1-8.477 8.4477h-166.79a8.2159 8.2159 0 0 1-8.4774-8.4477v-69.469m5.9868 3.1444a3.6805 3.6805 0 1 0 7.361 0 3.6805 3.6805 0 1 0-7.361 0zm164.41 0a3.6805 3.6805 0 1 0 7.361 0 3.6805 3.6805 0 1 0-7.361 0zm0 65.197a3.6805 3.6805 0 1 0 7.361 0 3.6805 3.6805 0 1 0-7.361 0zm-164.41 0a3.6805 3.6805 0 1 0 7.361 0 3.6805 3.6805 0 1 0-7.361 0zm18.539-65.197a2.5466 2.5466 0 1 0 5.0933 0 2.5466 2.5466 0 1 0-5.0933 0zm129.6 0a2.5466 2.5466 0 1 0 5.0933 0 2.5466 2.5466 0 1 0-5.0933 0z" fill="none" stroke="#fff" stroke-width=".576"/>
  <line x1="16.56" x2="16.56" y1="68.22" y2="67.5" stroke="#fff" stroke-linecap="round" stroke-width="1.728"/>
  <line x1="23.76" x2="23.76" y1="68.22" y2="67.5" stroke="#fff" stroke-linecap="round" stroke-width="1.728"/>
  <line x1="30.96" x2="30.96" y1="68.22" y2="67.5" stroke="#fff" stroke-linecap="round" stroke-width="1.728"/>
  <circle cx="6.48" cy="20.34" r="3.0758" fill="none" stroke="#fff" stroke-width=".72"/>
  <circle cx="13.68" cy="20.34" r="3.0968" fill="none" stroke="#fff" stroke-width=".72"/>
  <g>
   <title>element:IC1</title>
   <g>
    <title>package:SSOP28</title>
    <line x1="77.898" x2="48.984" y1="48.981" y2="48.981" stroke="#fff" stroke-linecap="round" stroke-width=".576"/>
    <line x1="48.984" x2="48.984" y1="48.981" y2="63.721" stroke="#fff" stroke-linecap="round" stroke-width=".576"/>
    <line x1="48.984" x2="77.898" y1="63.721" y2="63.721" stroke="#fff" stroke-linecap="round" stroke-width=".576"/>
   </g>
  </g>
  <g>
   <title>element:JP2</title>
   <g>
    <title>package:2X08_SHROUDED</title>
    <line x1="82.715" x2="82.715" y1="59.784" y2="85.296" stroke="#fff" stroke-linecap="round" stroke-width=".36"/>
    <line x1="82.715" x2="162.08" y1="85.296" y2="85.296" stroke="#fff" stroke-linecap="round" stroke-width=".36"/>
    <line x1="162.08" x2="162.08" y1="85.296" y2="59.784" stroke="#fff" stroke-linecap="round" stroke-width=".36"/>
    <line x1="162.08" x2="82.715" y1="59.784" y2="59.784" stroke="#fff" stroke-linecap="round" stroke-width=".36"/>
    <line x1="84.132" x2="84.132" y1="61.201" y2="83.879" stroke="#fff" stroke-linecap="round" stroke-width=".36"/>
    <line x1="84.132" x2="117.3" y1="83.879" y2="83.879" stroke="#fff" stroke-linecap="round" stroke-width=".36"/>
    <line x1="117.3" x2="125.94" y1="83.879" y2="83.879" stroke="#fff" stroke-linecap="round" stroke-width=".36"/>
    <line x1="125.94" x2="160.67" y1="83.879" y2="83.879" stroke="#fff" stroke-linecap="round" stroke-width=".36"/>
    <line x1="160.67" x2="160.67" y1="83.879" y2="61.201" stroke="#fff" stroke-linecap="round" stroke-width=".36"/>
    <line x1="160.67" x2="84.132" y1="61.201" y2="61.201" stroke="#fff" stroke-linecap="round" stroke-width=".36"/>
    <line x1="117.3" x2="117.3" y1="83.879" y2="81.044" stroke="#fff" stroke-linecap="round" stroke-width=".36"/>
    <line x1="117.3" x2="125.94" y1="81.044" y2="81.044" stroke="#fff" stroke-linecap="round" stroke-width=".36"/>
    <line x1="125.94" x2="125.94" y1="81.044" y2="83.879" stroke="#fff" stroke-linecap="round" stroke-width=".36"/>
   </g>
  </g>
  <g>
   <title>element:JP7</title>
   <g>
    <title>package:2X08_SHROUDED</title>
    <line x1="82.715" x2="82.715" y1="30.984" y2="56.496" stroke="#fff" stroke-linecap="round" stroke-width=".36"/>
    <line x1="82.715" x2="162.08" y1="56.496" y2="56.496" stroke="#fff" stroke-linecap="round" stroke-width=".36"/>
    <line x1="162.08" x2="162.08" y1="56.496" y2="30.984" stroke="#fff" stroke-linecap="round" stroke-width=".36"/>
    <line x1="162.08" x2="82.715" y1="30.984" y2="30.984" stroke="#fff" stroke-linecap="round" stroke-width=".36"/>
    <line x1="84.132" x2="84.132" y1="32.401" y2="55.079" stroke="#fff" stroke-linecap="round" stroke-width=".36"/>
    <line x1="84.132" x2="117.3" y1="55.079" y2="55.079" stroke="#fff" stroke-linecap="round" stroke-width=".36"/>
    <line x1="117.3" x2="125.94" y1="55.079" y2="55.079" stroke="#fff" stroke-linecap="round" stroke-width=".36"/>
    <line x1="125.94" x2="160.67" y1="55.079" y2="55.079" stroke="#fff" stroke-linecap="round" stroke-width=".36"/>
    <line x1="160.67" x2="160.67" y1="55.079" y2="32.401" stroke="#fff" stroke-linecap="round" stroke-width=".36"/>
    <line x1="160.67" x2="84.132" y1="32.401" y2="32.401" stroke="#fff" stroke-linecap="round" stroke-width=".36"/>
    <line x1="117.3" x2="117.3" y1="55.079" y2="52.244" stroke="#fff" stroke-linecap="round" stroke-width=".36"/>
    <line x1="117.3" x2="125.94" y1="52.244" y2="52.244" stroke="#fff" stroke-linecap="round" stroke-width=".36"/>
    <line x1="125.94" x2="125.94" y1="52.244" y2="55.079" stroke="#fff" stroke-linecap="round" stroke-width=".36"/>
   </g>
  </g>
  <g>
   <title>element:PIN1</title>
   <g>
    <title>package:1X21_ROUND_70MIL</title>
   </g>
  </g>
  <g>
   <title>element:RPI1</title>
   <g>
    <title>package:PI_BONNET_THMSMT</title>
   </g>
  </g>
  <line x1=".288" x2="184.03" y1="86.71" y2="86.71" fill="none" stroke="#fff" stroke-width=".576"/>
  <line x1=".288" x2=".288" y1="86.71" y2="86.94" fill="none" stroke="#fff" stroke-width=".576"/>
  <line x1="184.03" x2="184.03" y1="86.71" y2="86.94" fill="none" stroke="#fff" stroke-width=".576"/>
 </g>
 <g id="copper1">
  <g id="copper0">
   <circle id="connector102pad" cx="56.88" cy="26.82" r="1.8967" fill="none" stroke="#F7BD13" stroke-width=".95868" connectorname="GPIO27"/>
   <circle id="connector166pad" cx="110.16" cy="15.48" r="1.8258" fill="none" stroke="#F7BD13" stroke-width="1.1004" connectorname="GND"/>
   <circle id="connector150pad" cx="52.56" cy="15.48" r="1.8258" fill="none" stroke="#F7BD13" stroke-width="1.1004" connectorname="GND"/>
   <circle id="connector110pad" cx="114.48" cy="26.82" r="1.8967" fill="none" stroke="#F7BD13" stroke-width=".95868" connectorname="SPI_CE0"/>
   <circle id="connector142pad" cx="23.76" cy="15.48" r="1.6356" fill="none" stroke="#F7BD13" stroke-width=".72" connectorname="3.3VPI"/>
   <circle id="connector158pad" cx="81.36" cy="15.48" r="1.8258" fill="none" stroke="#F7BD13" stroke-width="1.1004" connectorname="3.3VPI"/>
   <circle id="connector174pad" cx="138.96" cy="15.48" r="1.8258" fill="none" stroke="#F7BD13" stroke-width="1.1004" connectorname="GPIO13"/>
   <circle id="connector98pad" cx="28.08" cy="26.82" r="1.8967" fill="none" stroke="#F7BD13" stroke-width=".95868" connectorname="RXD"/>
   <g transform="matrix(0 -1 1 0 -14.766 130.46)">
    <rect id="connector17pad" x="55.651" y="71.763" width="4.3937" height="1.7008" fill="#F7BD13" stroke-width="0"/>
   </g>
   <circle id="connector106pad" cx="85.68" cy="26.82" r="1.8967" fill="none" stroke="#F7BD13" stroke-width=".95868" connectorname="GPIO25"/>
   <g transform="matrix(0 -1 1 0 -11.931 133.3)">
    <rect id="connector18pad" x="58.486" y="71.763" width="4.3937" height="1.7008" fill="#F7BD13" stroke-width="0"/>
   </g>
   <circle id="connector114pad" cx="143.28" cy="26.82" r="1.8967" fill="none" stroke="#F7BD13" stroke-width=".95868" connectorname="GPIO12"/>
   <g transform="matrix(0 -1 1 0 -9.0964 136.13)">
    <rect id="connector19pad" x="61.32" y="71.763" width="4.3937" height="1.7008" fill="#F7BD13" stroke-width="0"/>
   </g>
   <g transform="matrix(0 -1 1 0 -6.2617 138.97)">
    <rect id="connector20pad" x="64.155" y="71.763" width="4.3937" height="1.7008" fill="#F7BD13" stroke-width="0"/>
   </g>
   <circle id="connector146pad" cx="38.16" cy="15.48" r="1.8258" fill="none" stroke="#F7BD13" stroke-width="1.1004" connectorname="SCL_3V"/>
   <circle id="connector154pad" cx="66.96" cy="15.48" r="1.8258" fill="none" stroke="#F7BD13" stroke-width="1.1004" connectorname="GPIO27"/>
   <circle id="connector162pad" cx="95.76" cy="15.48" r="1.8258" fill="none" stroke="#F7BD13" stroke-width="1.1004" connectorname="SPI_MISO"/>
   <circle id="connector170pad" cx="124.56" cy="15.48" r="1.8258" fill="none" stroke="#F7BD13" stroke-width="1.1004" connectorname="GPIO5"/>
   <circle id="connector178pad" cx="153.36" cy="15.48" r="1.6356" fill="none" stroke="#F7BD13" stroke-width=".72" connectorname="GPIO26"/>
   <circle id="connector100pad" cx="42.48" cy="26.82" r="1.8967" fill="none" stroke="#F7BD13" stroke-width=".95868" connectorname="GPIO17"/>
   <circle id="connector104pad" cx="71.28" cy="26.82" r="1.8967" fill="none" stroke="#F7BD13" stroke-width=".95868" connectorname="GPIO23"/>
   <circle id="connector108pad" cx="100.08" cy="26.82" r="1.8967" fill="none" stroke="#F7BD13" stroke-width=".95868" connectorname="SPI_MISO"/>
   <circle id="connector112pad" cx="128.88" cy="26.82" r="1.8967" fill="none" stroke="#F7BD13" stroke-width=".95868" connectorname="GPIO5"/>
   <circle id="connector116pad" cx="157.68" cy="26.82" r="1.8967" fill="none" stroke="#F7BD13" stroke-width=".95868" connectorname="GPIO16"/>
   <circle id="connector144pad" cx="30.96" cy="15.48" r="1.6356" fill="none" stroke="#F7BD13" stroke-width=".72" connectorname="SDA_3V"/>
   <circle id="connector148pad" cx="45.36" cy="15.48" r="1.8258" fill="none" stroke="#F7BD13" stroke-width="1.1004" connectorname="GPIO4"/>
   <circle id="connector152pad" cx="59.76" cy="15.48" r="1.8258" fill="none" stroke="#F7BD13" stroke-width="1.1004" connectorname="GPIO17"/>
   <circle id="connector156pad" cx="74.16" cy="15.48" r="1.8258" fill="none" stroke="#F7BD13" stroke-width="1.1004" connectorname="GPIO22"/>
   <circle id="connector160pad" cx="88.56" cy="15.48" r="1.8258" fill="none" stroke="#F7BD13" stroke-width="1.1004" connectorname="SPI_MOSI"/>
   <circle id="connector164pad" cx="102.96" cy="15.48" r="1.8258" fill="none" stroke="#F7BD13" stroke-width="1.1004" connectorname="SPI_SCLK"/>
   <circle id="connector168pad" cx="117.36" cy="15.48" r="1.8258" fill="none" stroke="#F7BD13" stroke-width="1.1004" connectorname="EEDATA"/>
   <circle id="connector172pad" cx="131.76" cy="15.48" r="1.8258" fill="none" stroke="#F7BD13" stroke-width="1.1004" connectorname="GPIO6"/>
   <circle id="connector176pad" cx="146.16" cy="15.48" r="1.8258" fill="none" stroke="#F7BD13" stroke-width="1.1004" connectorname="GPIO19"/>
   <circle id="connector180pad" cx="160.56" cy="15.48" r="1.6356" fill="none" stroke="#F7BD13" stroke-width=".72" connectorname="GND"/>
   <circle id="connector99pad" cx="35.28" cy="26.82" r="1.8967" fill="none" stroke="#F7BD13" stroke-width=".95868" connectorname="GPIO4"/>
   <circle id="connector101pad" cx="49.68" cy="26.82" r="1.8967" fill="none" stroke="#F7BD13" stroke-width=".95868" connectorname="GPIO18"/>
   <circle id="connector53pad" cx="16.56" cy="71.46" r="1.9687" fill="none" stroke="#F7BD13" stroke-width="1.1027" connectorname="GND"/>
   <circle id="connector103pad" cx="64.08" cy="26.82" r="1.8967" fill="none" stroke="#F7BD13" stroke-width=".95868" connectorname="GPIO22"/>
   <circle id="connector54pad" cx="16.56" cy="64.26" r="1.9687" fill="none" stroke="#F7BD13" stroke-width="1.1027" connectorname="GND"/>
   <circle id="connector105pad" cx="78.48" cy="26.82" r="1.8967" fill="none" stroke="#F7BD13" stroke-width=".95868" connectorname="GPIO24"/>
   <circle id="connector55pad" cx="97.2" cy="76.14" r="1.9687" fill="none" stroke="#F7BD13" stroke-width="1.1027" connectorname="GPA0"/>
   <circle id="connector107pad" cx="92.88" cy="26.82" r="1.8967" fill="none" stroke="#F7BD13" stroke-width=".95868" connectorname="SPI_MOSI"/>
   <circle id="connector56pad" cx="97.2" cy="68.94" r="1.9687" fill="none" stroke="#F7BD13" stroke-width="1.1027" connectorname="GND"/>
   <circle id="connector109pad" cx="107.28" cy="26.82" r="1.8967" fill="none" stroke="#F7BD13" stroke-width=".95868" connectorname="SPI_SCLK"/>
   <circle id="connector57pad" cx="104.4" cy="76.14" r="1.9687" fill="none" stroke="#F7BD13" stroke-width="1.1027" connectorname="GPA1"/>
   <circle id="connector111pad" cx="121.68" cy="26.82" r="1.8967" fill="none" stroke="#F7BD13" stroke-width=".95868" connectorname="SPI_CE1"/>
   <circle id="connector58pad" cx="104.4" cy="68.94" r="1.9687" fill="none" stroke="#F7BD13" stroke-width="1.1027" connectorname="GND"/>
   <circle id="connector113pad" cx="136.08" cy="26.82" r="1.8967" fill="none" stroke="#F7BD13" stroke-width=".95868" connectorname="GPIO6"/>
   <circle id="connector59pad" cx="111.6" cy="76.14" r="1.9687" fill="none" stroke="#F7BD13" stroke-width="1.1027" connectorname="GPA2"/>
   <circle id="connector115pad" cx="150.48" cy="26.82" r="1.8967" fill="none" stroke="#F7BD13" stroke-width=".95868" connectorname="GPIO13"/>
   <circle id="connector60pad" cx="111.6" cy="68.94" r="1.9687" fill="none" stroke="#F7BD13" stroke-width="1.1027" connectorname="GND"/>
   <circle id="connector117pad" cx="164.88" cy="26.82" r="1.8967" fill="none" stroke="#F7BD13" stroke-width=".95868" connectorname="GPIO19"/>
   <circle id="connector61pad" cx="118.8" cy="76.14" r="1.9687" fill="none" stroke="#F7BD13" stroke-width="1.1027" connectorname="GPA3"/>
   <circle id="connector62pad" cx="118.8" cy="68.94" r="1.9687" fill="none" stroke="#F7BD13" stroke-width="1.1027" connectorname="GND"/>
   <circle id="connector63pad" cx="126" cy="76.14" r="1.9687" fill="none" stroke="#F7BD13" stroke-width="1.1027" connectorname="GPA4"/>
   <circle id="connector64pad" cx="126" cy="68.94" r="1.9687" fill="none" stroke="#F7BD13" stroke-width="1.1027" connectorname="GND"/>
   <circle id="connector65pad" cx="133.2" cy="76.14" r="1.9687" fill="none" stroke="#F7BD13" stroke-width="1.1027" connectorname="GPA5"/>
   <circle id="connector66pad" cx="133.2" cy="68.94" r="1.9687" fill="none" stroke="#F7BD13" stroke-width="1.1027" connectorname="GND"/>
   <circle id="connector67pad" cx="140.4" cy="76.14" r="1.9687" fill="none" stroke="#F7BD13" stroke-width="1.1027" connectorname="GPA6"/>
   <circle id="connector68pad" cx="140.4" cy="68.94" r="1.9687" fill="none" stroke="#F7BD13" stroke-width="1.1027" connectorname="GND"/>
   <circle id="connector69pad" cx="147.6" cy="76.14" r="1.9687" fill="none" stroke="#F7BD13" stroke-width="1.1027" connectorname="GPA7"/>
   <circle id="connector70pad" cx="147.6" cy="68.94" r="1.9687" fill="none" stroke="#F7BD13" stroke-width="1.1027" connectorname="GND"/>
   <circle id="connector71pad" cx="30.96" cy="71.46" r="1.9687" fill="none" stroke="#F7BD13" stroke-width="1.1027" connectorname="3.3V"/>
   <circle id="connector72pad" cx="30.96" cy="64.26" r="1.9687" fill="none" stroke="#F7BD13" stroke-width="1.1027" connectorname="3.3V"/>
   <circle id="connector73pad" cx="172.08" cy="20.34" r="1.9687" fill="none" stroke="#F7BD13" stroke-width="1.1027" connectorname="GPIO20"/>
   <circle id="connector143pad" cx="23.76" cy="8.28" r="1.6356" fill="none" stroke="#F7BD13" stroke-width=".72" connectorname="5.0V"/>
   <circle id="connector74pad" cx="179.28" cy="20.34" r="1.9687" fill="none" stroke="#F7BD13" stroke-width="1.1027" connectorname="GPIO21"/>
   <circle id="connector145pad" cx="30.96" cy="8.28" r="1.6356" fill="none" stroke="#F7BD13" stroke-width=".72" connectorname="5.0V"/>
   <circle id="connector75pad" cx="23.76" cy="71.46" r="1.9687" fill="none" stroke="#F7BD13" stroke-width="1.1027" connectorname="5.0V"/>
   <circle id="connector147pad" cx="38.16" cy="8.28" r="1.8258" fill="none" stroke="#F7BD13" stroke-width="1.1004" connectorname="GND"/>
   <circle id="connector76pad" cx="23.76" cy="64.26" r="1.9687" fill="none" stroke="#F7BD13" stroke-width="1.1027" connectorname="5.0V"/>
   <circle id="connector149pad" cx="45.36" cy="8.28" r="1.8258" fill="none" stroke="#F7BD13" stroke-width="1.1004" connectorname="TXD"/>
   <circle id="connector77pad" cx="97.2" cy="47.34" r="1.9687" fill="none" stroke="#F7BD13" stroke-width="1.1027" connectorname="GPB0"/>
   <circle id="connector151pad" cx="52.56" cy="8.28" r="1.8258" fill="none" stroke="#F7BD13" stroke-width="1.1004" connectorname="RXD"/>
   <circle id="connector78pad" cx="97.2" cy="40.14" r="1.9687" fill="none" stroke="#F7BD13" stroke-width="1.1027" connectorname="GND"/>
   <circle id="connector153pad" cx="59.76" cy="8.28" r="1.8258" fill="none" stroke="#F7BD13" stroke-width="1.1004" connectorname="GPIO18"/>
   <circle id="connector79pad" cx="104.4" cy="47.34" r="1.9687" fill="none" stroke="#F7BD13" stroke-width="1.1027" connectorname="GPB1"/>
   <circle id="connector155pad" cx="66.96" cy="8.28" r="1.8258" fill="none" stroke="#F7BD13" stroke-width="1.1004" connectorname="GND"/>
   <circle id="connector80pad" cx="104.4" cy="40.14" r="1.9687" fill="none" stroke="#F7BD13" stroke-width="1.1027" connectorname="GND"/>
   <circle id="connector157pad" cx="74.16" cy="8.28" r="1.8258" fill="none" stroke="#F7BD13" stroke-width="1.1004" connectorname="GPIO23"/>
   <circle id="connector81pad" cx="111.6" cy="47.34" r="1.9687" fill="none" stroke="#F7BD13" stroke-width="1.1027" connectorname="GPB2"/>
   <circle id="connector159pad" cx="81.36" cy="8.28" r="1.8258" fill="none" stroke="#F7BD13" stroke-width="1.1004" connectorname="GPIO24"/>
   <circle id="connector82pad" cx="111.6" cy="40.14" r="1.9687" fill="none" stroke="#F7BD13" stroke-width="1.1027" connectorname="GND"/>
   <circle id="connector161pad" cx="88.56" cy="8.28" r="1.8258" fill="none" stroke="#F7BD13" stroke-width="1.1004" connectorname="GND"/>
   <circle id="connector83pad" cx="118.8" cy="47.34" r="1.9687" fill="none" stroke="#F7BD13" stroke-width="1.1027" connectorname="GPB3"/>
   <circle id="connector163pad" cx="95.76" cy="8.28" r="1.8258" fill="none" stroke="#F7BD13" stroke-width="1.1004" connectorname="GPIO25"/>
   <circle id="connector84pad" cx="118.8" cy="40.14" r="1.9687" fill="none" stroke="#F7BD13" stroke-width="1.1027" connectorname="GND"/>
   <circle id="connector165pad" cx="102.96" cy="8.28" r="1.8258" fill="none" stroke="#F7BD13" stroke-width="1.1004" connectorname="SPI_CE0"/>
   <circle id="connector85pad" cx="126" cy="47.34" r="1.9687" fill="none" stroke="#F7BD13" stroke-width="1.1027" connectorname="GPB4"/>
   <circle id="connector167pad" cx="110.16" cy="8.28" r="1.8258" fill="none" stroke="#F7BD13" stroke-width="1.1004" connectorname="SPI_CE1"/>
   <circle id="connector86pad" cx="126" cy="40.14" r="1.9687" fill="none" stroke="#F7BD13" stroke-width="1.1027" connectorname="GND"/>
   <circle id="connector169pad" cx="117.36" cy="8.28" r="1.8258" fill="none" stroke="#F7BD13" stroke-width="1.1004" connectorname="EECLK"/>
   <circle id="connector87pad" cx="133.2" cy="47.34" r="1.9687" fill="none" stroke="#F7BD13" stroke-width="1.1027" connectorname="GPB5"/>
   <circle id="connector171pad" cx="124.56" cy="8.28" r="1.8258" fill="none" stroke="#F7BD13" stroke-width="1.1004" connectorname="GND"/>
   <circle id="connector88pad" cx="133.2" cy="40.14" r="1.9687" fill="none" stroke="#F7BD13" stroke-width="1.1027" connectorname="GND"/>
   <circle id="connector173pad" cx="131.76" cy="8.28" r="1.8258" fill="none" stroke="#F7BD13" stroke-width="1.1004" connectorname="GPIO12"/>
   <circle id="connector89pad" cx="140.4" cy="47.34" r="1.9687" fill="none" stroke="#F7BD13" stroke-width="1.1027" connectorname="GPB6"/>
   <circle id="connector175pad" cx="138.96" cy="8.28" r="1.8258" fill="none" stroke="#F7BD13" stroke-width="1.1004" connectorname="GND"/>
   <circle id="connector90pad" cx="140.4" cy="40.14" r="1.9687" fill="none" stroke="#F7BD13" stroke-width="1.1027" connectorname="GND"/>
   <circle id="connector177pad" cx="146.16" cy="8.28" r="1.8258" fill="none" stroke="#F7BD13" stroke-width="1.1004" connectorname="GPIO16"/>
   <circle id="connector91pad" cx="147.6" cy="47.34" r="1.9687" fill="none" stroke="#F7BD13" stroke-width="1.1027" connectorname="GPB7"/>
   <circle id="connector179pad" cx="153.36" cy="8.28" r="1.6356" fill="none" stroke="#F7BD13" stroke-width=".72" connectorname="GPIO20"/>
   <circle id="connector92pad" cx="147.6" cy="40.14" r="1.9687" fill="none" stroke="#F7BD13" stroke-width="1.1027" connectorname="GND"/>
   <circle id="connector181pad" cx="160.56" cy="8.28" r="1.6356" fill="none" stroke="#F7BD13" stroke-width=".72" connectorname="GPIO21"/>
   <circle id="connector93pad" cx="46.26" cy="68.94" r="1.9687" fill="none" stroke="#F7BD13" stroke-width="1.1027" connectorname="INTB"/>
   <circle id="connector94pad" cx="46.26" cy="76.14" r="1.9687" fill="none" stroke="#F7BD13" stroke-width="1.1027" connectorname="INTA"/>
   <circle id="connector95pad" cx="6.48" cy="20.34" r="1.9687" fill="none" stroke="#F7BD13" stroke-width="1.1027" connectorname="SDA_3V"/>
   <circle id="connector96pad" cx="13.68" cy="20.34" r="1.9687" fill="none" stroke="#F7BD13" stroke-width="1.1027" connectorname="SCL_3V"/>
   <circle id="connector97pad" cx="20.88" cy="26.82" r="1.8967" fill="none" stroke="#F7BD13" stroke-width=".95868" connectorname="TXD"/>
  </g>
 </g>
</svg>
