<?xml version="1.0" encoding="UTF-8"?>
<!-- Created with Fritzing (http://www.fritzing.org/) -->
<svg width="2.2in" height="1.35in" baseProfile="tiny" version="1.2" viewBox="0 0 158.4 97.2" xmlns="http://www.w3.org/2000/svg">
 <desc>
  <referenceFile>Adafruit TFT 1.8 inch 160x128 w microSD_pcb.svg</referenceFile>
 </desc>
 <desc>Fritzing footprint generated by brd2svg</desc>
 <g id="silkscreen">
  <path d="m150.94 0.288a6.912 6.912 0 0 1 7.174 7.1573v82.309a6.912 6.912 0 0 1-7.174 7.1575h-143.48a6.912 6.912 0 0 1-7.1738-7.1575v-82.309a6.912 6.912 0 0 1 7.1738-7.1573h143.48m-24.395 84.596a0.56239 0.56239 0 1 0 1.1248 0 0.56239 0.56239 0 1 0-1.1248 0zm0-57.969a0.56239 0.56239 0 1 0 1.1248 0 0.56239 0.56239 0 1 0-1.1248 0zm21.827-19.715a2.8301 2.8301 0 1 0 5.6602 0 2.8301 2.8301 0 1 0-5.6602 0zm0 82.8a2.8301 2.8301 0 1 0 5.6602 0 2.8301 2.8301 0 1 0-5.6602 0zm-144 0a2.8301 2.8301 0 1 0 5.6602 0 2.8301 2.8301 0 1 0-5.6602 0zm0-82.8a2.8301 2.8301 0 1 0 5.6602 0 2.8301 2.8301 0 1 0-5.6602 0z" fill="none" stroke="#fff" stroke-width=".576"/>
  <g>
   <title>element:IC1</title>
   <g>
    <title>package:SO16</title>
   </g>
  </g>
  <g>
   <title>element:Q2</title>
   <g>
    <title>package:MICROSD</title>
   </g>
  </g>
  <g>
   <title>element:U$1</title>
   <g>
    <title>package:JD-T1800</title>
    <line x1="14.003" x2="14.003" y1="96.789" y2=".41102" stroke="#fff" stroke-linecap="round" stroke-width=".36"/>
    <line x1="14.003" x2="144.4" y1=".41102" y2=".41102" stroke="#fff" stroke-linecap="round" stroke-width=".36"/>
    <line x1="144.4" x2="144.4" y1=".41102" y2="96.789" stroke="#fff" stroke-linecap="round" stroke-width=".36"/>
    <line x1="144.4" x2="14.003" y1="96.789" y2="96.789" stroke="#fff" stroke-linecap="round" stroke-width=".36"/>
    <line x1="115.77" x2="115.77" y1="63.34" y2="33.86" stroke="#fff" stroke-linecap="round" stroke-width=".36"/>
   </g>
  </g>
  <g>
   <title>element:U$2</title>
   <g>
    <title>package:1X10-BIG</title>
   </g>
  </g>
 </g>
 <g id="copper1">
  <g id="copper0" fill="none" stroke="#F7BD13" stroke-width="1.08">
   <circle id="connector22pad" cx="151.2" cy="37.8" r="1.98" connectorname="MOSI"/>
   <circle id="connector26pad" cx="151.2" cy="66.6" r="1.98" connectorname="RESET"/>
   <circle id="connector20pad" cx="151.2" cy="23.4" r="1.98" connectorname="MISO"/>
   <circle id="connector24pad" cx="151.2" cy="52.2" r="1.98" connectorname="CARDCS"/>
   <circle id="connector28pad" cx="151.2" cy="81" r="1.98" connectorname="GND"/>
   <circle id="connector19pad" cx="151.2" cy="16.2" r="1.98" connectorname="LITE"/>
   <circle id="connector21pad" cx="151.2" cy="30.6" r="1.98" connectorname="SCLK"/>
   <circle id="connector23pad" cx="151.2" cy="45" r="1.98" connectorname="TFTCS"/>
   <circle id="connector25pad" cx="151.2" cy="59.4" r="1.98" connectorname="TFTDC"/>
   <circle id="connector27pad" cx="151.2" cy="73.8" r="1.98" connectorname="+5V"/>
  </g>
 </g>
</svg>
