<?xml version="1.0" encoding="UTF-8"?>
<!-- Created with Fritzing (http://www.fritzing.org/) -->
<svg width="1in" height=".7in" baseProfile="tiny" version="1.2" viewBox="0 0 72 50.4" xmlns="http://www.w3.org/2000/svg">
 <desc>
  <referenceFile>Adafruit DS2484 I2C to 1-Wire Breakout_pcb.svg</referenceFile>
 </desc>
 <desc>Fritzing footprint generated by brd2svg</desc>
 <g id="silkscreen">
  <path d="m0.288 7.4057a6.912 6.912 0 0 1 7.1424-7.1177h57.139a6.912 6.912 0 0 1 7.1424 7.1177v35.589a6.912 6.912 0 0 1-7.1424 7.1177h-57.139a6.912 6.912 0 0 1-7.1424-7.1177v-35.589" fill="none" stroke="#fff" stroke-width=".576"/>
  <g>
   <title>element:CONN3</title>
   <g>
    <title>package:JST_SH4</title>
    <line x1="65.534" x2="58.164" y1="33.704" y2="33.704" stroke="#fff" stroke-linecap="round" stroke-width=".432"/>
    <line x1="58.164" x2="58.164" y1="33.704" y2="30.586" stroke="#fff" stroke-linecap="round" stroke-width=".432"/>
    <line x1="58.164" x2="58.164" y1="19.814" y2="16.413" stroke="#fff" stroke-linecap="round" stroke-width=".432"/>
    <line x1="58.164" x2="65.534" y1="16.413" y2="16.413" stroke="#fff" stroke-linecap="round" stroke-width=".432"/>
    <line x1="70.353" x2="70.353" y1="31.153" y2="19.247" stroke="#fff" stroke-linecap="round" stroke-width=".432"/>
   </g>
  </g>
  <g>
   <title>element:CONN4</title>
   <g>
    <title>package:JST_SH4</title>
    <line x1="6.4658" x2="13.836" y1="16.696" y2="16.696" stroke="#fff" stroke-linecap="round" stroke-width=".432"/>
    <line x1="13.836" x2="13.836" y1="16.696" y2="19.814" stroke="#fff" stroke-linecap="round" stroke-width=".432"/>
    <line x1="13.836" x2="13.836" y1="30.586" y2="33.987" stroke="#fff" stroke-linecap="round" stroke-width=".432"/>
    <line x1="13.836" x2="6.4658" y1="33.987" y2="33.987" stroke="#fff" stroke-linecap="round" stroke-width=".432"/>
    <line x1="1.6469" x2="1.6469" y1="19.247" y2="31.153" stroke="#fff" stroke-linecap="round" stroke-width=".432"/>
   </g>
  </g>
  <g>
   <title>element:JP1</title>
   <g>
    <title>package:1X06_ROUND_70</title>
   </g>
  </g>
  <g>
   <title>element:JP2</title>
   <g>
    <title>package:1X03_2.54MMTERMINAL</title>
    <line x1="47.509" x2="24.491" y1="18.507" y2="18.507" stroke="#fff" stroke-linecap="round" stroke-width=".432"/>
    <line x1="24.491" x2="24.491" y1="18.507" y2=".64913" stroke="#fff" stroke-linecap="round" stroke-width=".432"/>
    <line x1="24.491" x2="34.101" y1=".64913" y2=".64913" stroke="#fff" stroke-linecap="round" stroke-width=".432"/>
    <line x1="34.101" x2="37.786" y1=".64913" y2=".64913" stroke="#fff" stroke-linecap="round" stroke-width=".432"/>
    <line x1="41.471" x2="44.872" y1=".64913" y2=".64913" stroke="#fff" stroke-linecap="round" stroke-width=".432"/>
    <line x1="44.872" x2="47.509" y1=".64913" y2=".64913" stroke="#fff" stroke-linecap="round" stroke-width=".432"/>
    <line x1="47.509" x2="47.509" y1=".64913" y2="18.507" stroke="#fff" stroke-linecap="round" stroke-width=".432"/>
    <line x1="44.872" x2="44.872" y1=".64913" y2="4.0507" stroke="#fff" stroke-linecap="round" stroke-width=".432"/>
    <line x1="44.872" x2="41.471" y1="4.0507" y2="4.0507" stroke="#fff" stroke-linecap="round" stroke-width=".432"/>
    <line x1="41.471" x2="41.471" y1="4.0507" y2=".64913" stroke="#fff" stroke-linecap="round" stroke-width=".432"/>
    <line x1="41.471" x2="37.786" y1=".64913" y2=".64913" stroke="#fff" stroke-linecap="round" stroke-width=".432"/>
    <line x1="37.786" x2="37.786" y1=".64913" y2="4.0507" stroke="#fff" stroke-linecap="round" stroke-width=".432"/>
    <line x1="37.786" x2="34.101" y1="4.0507" y2="4.0507" stroke="#fff" stroke-linecap="round" stroke-width=".432"/>
    <line x1="34.101" x2="34.101" y1="4.0507" y2=".64913" stroke="#fff" stroke-linecap="round" stroke-width=".432"/>
    <line x1="30.472" x2="30.472" y1=".64913" y2="4.0507" stroke="#fff" stroke-linecap="round" stroke-width=".432"/>
    <line x1="30.472" x2="27.071" y1="4.0507" y2="4.0507" stroke="#fff" stroke-linecap="round" stroke-width=".432"/>
    <line x1="27.071" x2="27.071" y1="4.0507" y2=".64913" stroke="#fff" stroke-linecap="round" stroke-width=".432"/>
    <line x1="43.172" x2="43.172" y1="3.2003" y2="1.4995" stroke="#fff" stroke-linecap="round" stroke-width=".432"/>
    <line x1="43.172" x2="44.022" y1="1.4995" y2="2.3499" stroke="#fff" stroke-linecap="round" stroke-width=".432"/>
    <line x1="44.022" x2="42.321" y1="2.3499" y2="2.3499" stroke="#fff" stroke-linecap="round" stroke-width=".432"/>
    <line x1="42.321" x2="43.172" y1="2.3499" y2="1.4995" stroke="#fff" stroke-linecap="round" stroke-width=".432"/>
    <line x1="35.972" x2="35.972" y1="3.2003" y2="1.4995" stroke="#fff" stroke-linecap="round" stroke-width=".432"/>
    <line x1="35.972" x2="36.822" y1="1.4995" y2="2.3499" stroke="#fff" stroke-linecap="round" stroke-width=".432"/>
    <line x1="36.822" x2="35.121" y1="2.3499" y2="2.3499" stroke="#fff" stroke-linecap="round" stroke-width=".432"/>
    <line x1="35.121" x2="35.972" y1="2.3499" y2="1.4995" stroke="#fff" stroke-linecap="round" stroke-width=".432"/>
    <line x1="28.772" x2="28.772" y1="3.2003" y2="1.4995" stroke="#fff" stroke-linecap="round" stroke-width=".432"/>
    <line x1="28.772" x2="29.622" y1="1.4995" y2="2.3499" stroke="#fff" stroke-linecap="round" stroke-width=".432"/>
    <line x1="29.622" x2="27.921" y1="2.3499" y2="2.3499" stroke="#fff" stroke-linecap="round" stroke-width=".432"/>
    <line x1="27.921" x2="28.772" y1="2.3499" y2="1.4995" stroke="#fff" stroke-linecap="round" stroke-width=".432"/>
   </g>
  </g>
  <g>
   <title>element:PLABEL7</title>
   <g>
    <title>package:PLABEL7</title>
   </g>
  </g>
  <g>
   <title>element:PLABEL13</title>
   <g>
    <title>package:PLABEL13</title>
   </g>
  </g>
  <g>
   <title>element:U$30</title>
   <g>
    <title>package:STEMMAQT</title>
   </g>
  </g>
  <g>
   <title>element:U$31</title>
   <g>
    <title>package:STEMMAQT</title>
   </g>
  </g>
 </g>
 <g id="copper1">
  <g id="copper0">
   <circle id="connector54pad" cx="64.8" cy="7.2" r="4.2633" fill="none" stroke="#F7BD13" stroke-width="1.44" connectorname="P$1"/>
   <circle id="connector38pad" cx="54" cy="43.2" r="1.9687" fill="none" stroke="#F7BD13" stroke-width="1.1027" connectorname="SLPZ"/>
   <circle id="connector34pad" cx="25.2" cy="43.2" r="1.9687" fill="none" stroke="#F7BD13" stroke-width="1.1027" connectorname="GND"/>
   <g transform="matrix(-1 0 0 -1 114.63 58.904)">
    <rect id="connector11pad" x="55.117" y="28.602" width="4.3937" height="1.7008" fill="#F7BD13" stroke-width="0"/>
   </g>
   <g transform="matrix(-1 0 0 -1 114.63 53.235)">
    <rect id="connector12pad" x="55.117" y="25.767" width="4.3937" height="1.7008" fill="#F7BD13" stroke-width="0"/>
   </g>
   <circle id="connector36pad" cx="39.6" cy="43.2" r="1.9687" fill="none" stroke="#F7BD13" stroke-width="1.1027" connectorname="SDA"/>
   <g transform="matrix(-1 0 0 -1 114.63 47.565)">
    <rect id="connector13pad" x="55.117" y="22.932" width="4.3937" height="1.7008" fill="#F7BD13" stroke-width="0"/>
   </g>
   <circle id="connector40pad" cx="36" cy="9.72" r="1.7773" fill="none" stroke="#F7BD13" stroke-width=".72" connectorname="1WIRE"/>
   <path d="m34.223 5.6322h3.5546v8.1757h-3.5546v-8.1757m0 4.0878a1.7773 1.7773 0 1 0 3.5546 0 1.7773 1.7773 0 1 0-3.5546 0z" fill="#F7BD13" stroke-width="0"/>
   <g transform="matrix(-1 0 0 -1 114.63 41.896)">
    <rect id="connector14pad" x="55.117" y="20.098" width="4.3937" height="1.7008" fill="#F7BD13" stroke-width="0"/>
   </g>
   <rect id="connector17pad" x="12.49" y="20.098" width="4.3937" height="1.7008" fill="#F7BD13" stroke-width="0"/>
   <circle id="connector56pad" cx="64.8" cy="43.2" r="4.2633" fill="none" stroke="#F7BD13" stroke-width="1.44" connectorname="P$1"/>
   <rect id="connector18pad" x="12.49" y="22.932" width="4.3937" height="1.7008" fill="#F7BD13" stroke-width="0"/>
   <circle id="connector33pad" cx="18" cy="43.2" r="1.9687" fill="none" stroke="#F7BD13" stroke-width="1.1027" connectorname="VCC"/>
   <rect id="connector19pad" x="12.49" y="25.767" width="4.3937" height="1.7008" fill="#F7BD13" stroke-width="0"/>
   <circle id="connector35pad" cx="32.4" cy="43.2" r="1.9687" fill="none" stroke="#F7BD13" stroke-width="1.1027" connectorname="SCL"/>
   <rect id="connector20pad" x="12.49" y="28.602" width="4.3937" height="1.7008" fill="#F7BD13" stroke-width="0"/>
   <circle id="connector37pad" cx="46.8" cy="43.2" r="1.9687" fill="none" stroke="#F7BD13" stroke-width="1.1027" connectorname="1WIRE"/>
   <circle id="connector39pad" cx="43.2" cy="9.72" r="1.7773" fill="none" stroke="#F7BD13" stroke-width=".72" connectorname="VCCIO"/>
   <path d="m41.423 5.6322h3.5546v8.1757h-3.5546v-8.1757m0 4.0878a1.7773 1.7773 0 1 0 3.5546 0 1.7773 1.7773 0 1 0-3.5546 0z" fill="#F7BD13" stroke-width="0"/>
   <circle id="connector41pad" cx="28.8" cy="9.72" r="1.7773" fill="none" stroke="#F7BD13" stroke-width=".72" connectorname="GND"/>
   <path d="m27.023 5.6322h3.5546v8.1757h-3.5546v-8.1757m0 4.0878a1.7773 1.7773 0 1 0 3.5546 0 1.7773 1.7773 0 1 0-3.5546 0z" fill="#F7BD13" stroke-width="0"/>
   <circle id="connector53pad" cx="7.2" cy="7.2" r="4.2633" fill="none" stroke="#F7BD13" stroke-width="1.44" connectorname="P$1"/>
   <circle id="connector55pad" cx="7.2" cy="43.2" r="4.2633" fill="none" stroke="#F7BD13" stroke-width="1.44" connectorname="P$1"/>
  </g>
 </g>
</svg>
