<?xml version="1.0" encoding="UTF-8"?>
<!-- Created with Fritzing (http://www.fritzing.org/) -->
<svg width=".85in" height="1in" baseProfile="tiny" version="1.2" viewBox="0 0 61.2 72" xmlns="http://www.w3.org/2000/svg">
 <desc>
  <referenceFile>Adafruit PCF8523 RTC_pcb.svg</referenceFile>
 </desc>
 <desc>Fritzing footprint generated by brd2svg</desc>
 <g id="silkscreen">
  <path d="m47.361 0.288h6.4191a6.912 6.912 0 0 1 7.1322 7.1424v57.139a6.912 6.912 0 0 1-7.1322 7.1424h-46.36a6.912 6.912 0 0 1-7.1322-7.1424v-57.139a6.912 6.912 0 0 1 7.1322-7.1424h9.2718l4.6866 4.6933a6.912 6.912 0 0 0 5.0434 2.092h11.209a6.912 6.912 0 0 0 5.0432-2.092l4.6866-4.6933" fill="none" stroke="#fff" stroke-width=".576"/>
  <g>
   <title>element:B1</title>
   <g>
    <title>package:CR1220</title>
    <line x1="3.24" x2="13.32" y1="24.48" y2="24.48" stroke="#fff" stroke-linecap="round" stroke-width=".576"/>
    <line x1="13.32" x2="13.32" y1="24.48" y2="30.24" stroke="#fff" stroke-linecap="round" stroke-width=".576"/>
    <line x1="13.32" x2="21.24" y1="30.24" y2="38.16" stroke="#fff" stroke-linecap="round" stroke-width=".576"/>
    <line x1="21.24" x2="42.84" y1="38.16" y2="38.16" stroke="#fff" stroke-linecap="round" stroke-width=".576"/>
    <line x1="42.84" x2="50.76" y1="38.16" y2="30.24" stroke="#fff" stroke-linecap="round" stroke-width=".576"/>
    <line x1="50.76" x2="50.76" y1="30.24" y2="24.48" stroke="#fff" stroke-linecap="round" stroke-width=".576"/>
    <line x1="50.76" x2="60.84" y1="24.48" y2="24.48" stroke="#fff" stroke-linecap="round" stroke-width=".576"/>
    <line x1="60.84" x2="60.84" y1="24.48" y2="14.4" stroke="#fff" stroke-linecap="round" stroke-width=".576"/>
    <line x1="60.84" x2="50.76" y1="14.4" y2="14.4" stroke="#fff" stroke-linecap="round" stroke-width=".576"/>
    <line x1="50.76" x2="50.76" y1="14.4" y2=".72" stroke="#fff" stroke-linecap="round" stroke-width=".576"/>
    <line x1="13.32" x2="13.32" y1=".72" y2="14.4" stroke="#fff" stroke-linecap="round" stroke-width=".576"/>
    <line x1="13.32" x2="3.24" y1="14.4" y2="14.4" stroke="#fff" stroke-linecap="round" stroke-width=".576"/>
    <line x1="3.24" x2="3.24" y1="14.4" y2="24.48" stroke="#fff" stroke-linecap="round" stroke-width=".576"/>
   </g>
  </g>
  <g>
   <title>element:IC1</title>
   <g>
    <title>package:SOIC8_150MIL</title>
    <line x1="27.346" x2="16.574" y1="54.323" y2="54.323" stroke="#fff" stroke-linecap="round" stroke-width=".576"/>
    <line x1="16.574" x2="27.346" y1="40.717" y2="40.717" stroke="#fff" stroke-linecap="round" stroke-width=".576"/>
    <circle cx="24.48" cy="52.992" r=".72" fill="none" stroke="#fff" stroke-width=".576"/>
   </g>
  </g>
  <g>
   <title>element:Q1</title>
   <g>
    <title>package:CRYSTAL_8X3.8</title>
    <line x1="35.232" x2="34.098" y1="45.091" y2="45.091" stroke="#fff" stroke-linecap="round" stroke-width=".576"/>
    <line x1="34.098" x2="34.098" y1="45.091" y2="56.429" stroke="#fff" stroke-linecap="round" stroke-width=".576"/>
    <line x1="34.098" x2="35.232" y1="56.429" y2="56.429" stroke="#fff" stroke-linecap="round" stroke-width=".576"/>
    <line x1="40.618" x2="50.822" y1="56.429" y2="56.429" stroke="#fff" stroke-linecap="round" stroke-width=".576"/>
    <line x1="40.618" x2="50.822" y1="45.091" y2="45.091" stroke="#fff" stroke-linecap="round" stroke-width=".576"/>
    <line x1="56.208" x2="57.342" y1="45.091" y2="45.091" stroke="#fff" stroke-linecap="round" stroke-width=".576"/>
    <line x1="57.342" x2="57.342" y1="45.091" y2="56.429" stroke="#fff" stroke-linecap="round" stroke-width=".576"/>
    <line x1="57.342" x2="56.208" y1="56.429" y2="56.429" stroke="#fff" stroke-linecap="round" stroke-width=".576"/>
    <circle cx="55.296" cy="50.688" r=".91641" fill="none" stroke="#fff" stroke-width=".864"/>
   </g>
  </g>
 </g>
 <g id="copper1">
  <g id="copper0" fill="none" stroke="#F7BD13">
   <circle id="connector33pad" cx="54" cy="64.8" r="3.8381" stroke-width="1.44" connectorname="P$1"/>
   <circle id="connector21pad" cx="10.8" cy="64.8" r="2.0767" stroke-width="1.3187" connectorname="GND"/>
   <circle id="connector19pad" cx="25.2" cy="64.8" r="2.0767" stroke-width="1.3187" connectorname="SDA"/>
   <circle id="connector18pad" cx="32.4" cy="64.8" r="2.0767" stroke-width="1.3187" connectorname="SCL"/>
   <circle id="connector20pad" cx="18" cy="64.8" r="2.0767" stroke-width="1.3187" connectorname="VCC"/>
   <circle id="connector32pad" cx="7.2" cy="7.2" r="3.8381" stroke-width="1.44" connectorname="P$1"/>
   <circle id="connector17pad" cx="39.6" cy="64.8" r="2.0767" stroke-width="1.3187" connectorname="SQW"/>
  </g>
 </g>
</svg>
