<?xml version="1.0" encoding="UTF-8"?>
<!-- Created with Fritzing (http://www.fritzing.org/) -->
<svg width="1.6in" height="2.6in" baseProfile="tiny" version="1.2" viewBox="0 0 115.2 187.2" xmlns="http://www.w3.org/2000/svg">
 <desc>
  <referenceFile>Adafruit TFT 2.2 inch 320x240 w microSD_pcb.svg</referenceFile>
 </desc>
 <desc>Fritzing footprint generated by brd2svg</desc>
 <g id="silkscreen">
  <path d="m0.288 179.73v-172.27a6.912 6.912 0 0 1 7.164-7.1778h100.3a6.912 6.912 0 0 1 7.164 7.1778v172.27a6.912 6.912 0 0 1-7.164 7.178h-100.3a6.912 6.912 0 0 1-7.164-7.178m37.332-59.56a1.1293 1.1293 0 1 0 2.2586 0 1.1293 1.1293 0 1 0-2.2586 0zm37.701 0a1.1293 1.1293 0 1 0 2.2586 0 1.1293 1.1293 0 1 0-2.2586 0zm33.591-89.16a1.1293 1.1293 0 1 0 2.2586 0 1.1293 1.1293 0 1 0-2.2586 0zm-104.88 0a1.1293 1.1293 0 1 0 2.2586 0 1.1293 1.1293 0 1 0-2.2586 0zm0 131.81a1.1293 1.1293 0 1 0 2.2586 0 1.1293 1.1293 0 1 0-2.2586 0zm104.88 0a1.1293 1.1293 0 1 0 2.2586 0 1.1293 1.1293 0 1 0-2.2586 0z" fill="none" stroke="#fff" stroke-width=".576"/>
  <g>
   <title>element:CN1</title>
   <g>
    <title>package:MICROSD</title>
   </g>
  </g>
  <g>
   <title>element:JP1</title>
   <g>
    <title>package:1X10_ROUND70</title>
   </g>
  </g>
  <g>
   <title>element:U$20</title>
   <g>
    <title>package:ADAFRUIT_TEXT_30MM</title>
   </g>
  </g>
  <g>
   <title>element:U1</title>
   <g>
    <title>package:TM022HDH26_2.2IN_LCD</title>
    <line x1=".19843" x2="115" y1="14.573" y2="14.573" stroke="#fff" stroke-linecap="round" stroke-width=".36"/>
    <line x1=".19843" x2=".19843" y1="172.18" y2="14.573" stroke="#fff" stroke-linecap="round" stroke-width=".36"/>
    <line x1="115" x2="115" y1="14.573" y2="172.18" stroke="#fff" stroke-linecap="round" stroke-width=".36"/>
    <line x1="115" x2=".19843" y1="172.18" y2="172.18" stroke="#fff" stroke-linecap="round" stroke-width=".36"/>
   </g>
  </g>
  <g>
   <title>element:U3</title>
   <g>
    <title>package:SOIC16</title>
   </g>
  </g>
 </g>
 <g id="copper1">
  <g id="copper0" fill="none" stroke="#F7BD13">
   <circle id="connector6pad" cx="82.8" cy="179.94" r="1.9687" stroke-width="1.1027" connectorname="VIN"/>
   <circle id="connector7pad" cx="75.6" cy="179.94" r="1.9687" stroke-width="1.1027" connectorname="DC"/>
   <circle id="connector8pad" cx="68.4" cy="179.94" r="1.9687" stroke-width="1.1027" connectorname="RESET"/>
   <circle id="connector9pad" cx="61.2" cy="179.94" r="1.9687" stroke-width="1.1027" connectorname="SDCS"/>
   <circle id="connector10pad" cx="54" cy="179.94" r="1.9687" stroke-width="1.1027" connectorname="LCDCS"/>
   <circle id="connector11pad" cx="46.8" cy="179.94" r="1.9687" stroke-width="1.1027" connectorname="MOSI"/>
   <circle id="connector12pad" cx="39.6" cy="179.94" r="1.9687" stroke-width="1.1027" connectorname="MISO"/>
   <circle id="connector13pad" cx="32.4" cy="179.94" r="1.9687" stroke-width="1.1027" connectorname="SCLK"/>
   <circle id="connector14pad" cx="25.2" cy="179.94" r="1.9687" stroke-width="1.1027" connectorname="BACKLIGHT"/>
   <circle id="connector15pad" cx="108" cy="180" r="4.2633" stroke-width="1.44" connectorname="P$1"/>
   <circle id="connector16pad" cx="7.2" cy="7.2" r="4.2633" stroke-width="1.44" connectorname="P$1"/>
   <circle id="connector17pad" cx="108" cy="7.2" r="4.2633" stroke-width="1.44" connectorname="P$1"/>
   <circle id="connector18pad" cx="7.2" cy="180" r="4.2633" stroke-width="1.44" connectorname="P$1"/>
   <circle id="connector5pad" cx="90" cy="179.94" r="1.9687" stroke-width="1.1027" connectorname="GND"/>
  </g>
 </g>
</svg>
