<?xml version="1.0" encoding="UTF-8"?>
<!-- Created with Fritzing (http://www.fritzing.org/) -->
<svg width="1.4in" height="1.15in" baseProfile="tiny" version="1.2" viewBox="0 0 100.8 82.8" xmlns="http://www.w3.org/2000/svg">
 <desc>
  <referenceFile>Adafruit OLED Color 0.96 inch 96x64 w microSD_pcb.svg</referenceFile>
 </desc>
 <desc>Fritzing footprint generated by brd2svg</desc>
 <g id="silkscreen">
  <path d="m100.51 7.4379v67.925a6.912 6.912 0 0 1-7.159 7.1496h-85.906a6.912 6.912 0 0 1-7.1589-7.1496v-67.925a6.912 6.912 0 0 1 7.1589-7.1499h85.906a6.912 6.912 0 0 1 7.159 7.1499m-73.918 68.281a1.1293 1.1293 0 1 0 2.2586 0 1.1293 1.1293 0 1 0-2.2586 0zm45.354 0a1.1293 1.1293 0 1 0 2.2586 0 1.1293 1.1293 0 1 0-2.2586 0z" fill="none" stroke="#fff" stroke-width=".576"/>
  <g>
   <title>element:CN1</title>
   <g>
    <title>package:MICROSD</title>
   </g>
  </g>
  <g>
   <title>element:JP2</title>
   <g>
    <title>package:1X10_ROUND_76</title>
   </g>
  </g>
  <g>
   <title>element:LCD1</title>
   <g>
    <title>package:UG-9664HDDAG01_WRAPAROUND</title>
   </g>
  </g>
  <g>
   <title>element:U2</title>
   <g>
    <title>package:SOIC16</title>
   </g>
  </g>
 </g>
 <g id="copper1">
  <g id="copper0" fill="none" stroke="#F7BD13">
   <circle id="connector6pad" cx="75.742" cy="6.9761" r="2.0767" stroke-width="1.3187" connectorname="SD_MISO"/>
   <circle id="connector18pad" cx="7.2" cy="75.6" r="4.0394" stroke-width=".99212" connectorname="P$1"/>
   <circle id="connector14pad" cx="18.142" cy="6.9761" r="2.0767" stroke-width="1.3187" connectorname="GND"/>
   <circle id="connector7pad" cx="68.542" cy="6.9761" r="2.0767" stroke-width="1.3187" connectorname="MOSI"/>
   <circle id="connector16pad" cx="93.6" cy="75.6" r="4.0394" stroke-width=".99212" connectorname="P$1"/>
   <circle id="connector8pad" cx="61.342" cy="6.9761" r="2.0767" stroke-width="1.3187" connectorname="SCK"/>
   <circle id="connector13pad" cx="25.342" cy="6.9761" r="2.0767" stroke-width="1.3187" connectorname="V+"/>
   <circle id="connector9pad" cx="54.142" cy="6.9761" r="2.0767" stroke-width="1.3187" connectorname="DC"/>
   <circle id="connector15pad" cx="93.6" cy="7.2" r="4.0394" stroke-width=".99212" connectorname="P$1"/>
   <circle id="connector10pad" cx="46.942" cy="6.9761" r="2.0767" stroke-width="1.3187" connectorname="RESET"/>
   <circle id="connector17pad" cx="7.2" cy="7.2" r="4.0394" stroke-width=".99212" connectorname="P$1"/>
   <circle id="connector11pad" cx="39.742" cy="6.9761" r="2.0767" stroke-width="1.3187" connectorname="OLED_CS"/>
   <circle id="connector12pad" cx="32.542" cy="6.9761" r="2.0767" stroke-width="1.3187" connectorname="SD_CS"/>
   <circle id="connector5pad" cx="82.942" cy="6.9761" r="2.0767" stroke-width="1.3187" connectorname="SD_CD"/>
   <rect x="80.865" y="4.8994" width="4.1533" height="4.1533" stroke-width="1.3187"/>
  </g>
 </g>
</svg>
