<?xml version="1.0" encoding="UTF-8"?>
<!-- Created with Fritzing (http://www.fritzing.org/) -->
<svg width="1in" height=".73027in" baseProfile="tiny" version="1.2" viewBox="0 0 72 52.579" xmlns="http://www.w3.org/2000/svg">
 <desc>
  <referenceFile>Adafruit Infrared IR Remote Receiver_pcb.svg</referenceFile>
 </desc>
 <desc>Fritzing footprint generated by brd2svg</desc>
 <g id="silkscreen">
  <path d="m0.288 9.5622a6.912 6.912 0 0 1 7.1424-7.1211h56.782a7.0942 7.0942 0 0 1 7.4995 7.1211v7.8332l-4.9997 4.9848v8.9014h4.9997v13.886a7.0942 7.0942 0 0 1-7.4995 7.1212h-56.782a6.912 6.912 0 0 1-7.1424-7.1212v-35.606m46.176-1.6253a0.98759 0.98759 0 1 0 1.9752 0 0.98759 0.98759 0 1 0-1.9752 0zm-8.504 0a0.98759 0.98759 0 1 0 1.9752 0 0.98759 0.98759 0 1 0-1.9752 0z" fill="none" stroke="#fff" stroke-width=".576"/>
  <line x1="34.2" x2="34.2" y1="13.337" y2="16.937" stroke="#fff" stroke-linecap="round" stroke-width=".864"/>
  <line x1="34.2" x2="39.24" y1="16.937" y2="21.977" stroke="#fff" stroke-linecap="round" stroke-width=".864"/>
  <line x1="39.24" x2="39.24" y1="21.977" y2="19.817" stroke="#fff" stroke-linecap="round" stroke-width=".864"/>
  <line x1="39.24" x2="37.08" y1="19.817" y2="21.977" stroke="#fff" stroke-linecap="round" stroke-width=".864"/>
  <line x1="37.08" x2="39.24" y1="21.977" y2="21.977" stroke="#fff" stroke-linecap="round" stroke-width=".864"/>
  <line x1="52.2" x2="59.76" y1="13.337" y2="20.897" stroke="#fff" stroke-linecap="round" stroke-width=".864"/>
  <line x1="59.76" x2="59.76" y1="20.897" y2="18.737" stroke="#fff" stroke-linecap="round" stroke-width=".864"/>
  <line x1="59.76" x2="57.6" y1="18.737" y2="20.897" stroke="#fff" stroke-linecap="round" stroke-width=".864"/>
  <line x1="57.6" x2="59.76" y1="20.897" y2="20.897" stroke="#fff" stroke-linecap="round" stroke-width=".864"/>
  <g>
   <title>element:O1</title>
   <g>
    <title>package:IRM-H6XXT</title>
    <line x1="40.793" x2="54.967" y1="21.708" y2="21.708" stroke="#fff" stroke-linecap="round" stroke-width=".432"/>
    <line x1="54.967" x2="54.967" y1="21.708" y2="33.046" stroke="#fff" stroke-linecap="round" stroke-width=".432"/>
    <line x1="54.967" x2="40.793" y1="33.046" y2="33.046" stroke="#fff" stroke-linecap="round" stroke-width=".432"/>
    <line x1="40.793" x2="40.793" y1="33.046" y2="21.708" stroke="#fff" stroke-linecap="round" stroke-width=".432"/>
    <circle cx="50.715" cy="27.377" r="4.252" fill="none" stroke="#fff" stroke-width=".432"/>
   </g>
  </g>
  <g>
   <title>element:PLABEL23</title>
   <g>
    <title>package:PLABEL23</title>
   </g>
  </g>
  <g>
   <title>element:SW1</title>
   <g>
    <title>package:SPDT_SMT_SSSS811101</title>
    <line x1="52.838" x2="52.838" y1="9.3543" y2="6.5197" stroke="#fff" stroke-linecap="round" stroke-width=".576"/>
    <line x1="33.562" x2="33.562" y1="9.3543" y2="6.5197" stroke="#fff" stroke-linecap="round" stroke-width=".576"/>
    <line x1="48.019" x2="42.916" y1="11.622" y2="11.622" stroke="#fff" stroke-linecap="round" stroke-width=".576"/>
    <line x1="51.42" x2="34.98" y1="4.252" y2="4.252" stroke="#fff" stroke-linecap="round" stroke-width=".576"/>
   </g>
  </g>
  <g>
   <title>element:X4</title>
   <g>
    <title>package:JSTPH3</title>
    <line x1="1.8014" x2="1.8014" y1="36.59" y2="18.164" stroke="#fff" stroke-linecap="round" stroke-width=".576"/>
    <line x1="11.723" x2="23.061" y1="13.204" y2="13.204" stroke="#fff" stroke-linecap="round" stroke-width=".576"/>
    <line x1="23.061" x2="23.061" y1="13.204" y2="15.613" stroke="#fff" stroke-linecap="round" stroke-width=".576"/>
    <line x1="23.061" x2="15.975" y1="15.613" y2="15.613" stroke="#fff" stroke-linecap="round" stroke-width=".576"/>
    <line x1="15.975" x2="15.975" y1="15.613" y2="25.251" stroke="#fff" stroke-linecap="round" stroke-width=".576"/>
    <line x1="15.975" x2="15.975" y1="35.172" y2="39.141" stroke="#fff" stroke-linecap="round" stroke-width=".576"/>
    <line x1="15.975" x2="23.061" y1="39.141" y2="39.141" stroke="#fff" stroke-linecap="round" stroke-width=".576"/>
    <line x1="23.061" x2="23.061" y1="39.141" y2="41.55" stroke="#fff" stroke-linecap="round" stroke-width=".576"/>
    <line x1="23.061" x2="11.723" y1="41.55" y2="41.55" stroke="#fff" stroke-linecap="round" stroke-width=".576"/>
   </g>
  </g>
  <line x1="33.562" x2="52.838" y1=".288" y2=".288" fill="none" stroke="#fff" stroke-width=".576"/>
  <line x1="33.562" x2="33.562" y1="2.1748" y2=".288" fill="none" stroke="#fff" stroke-width=".576"/>
  <line x1="52.838" x2="52.838" y1="2.1748" y2=".288" fill="none" stroke="#fff" stroke-width=".576"/>
 </g>
 <g id="copper1">
  <g id="copper0">
   <g transform="matrix(0 -1 1 0 -.91418 42.501)">
    <rect id="connector46pad" x="19.376" y="15.188" width="2.8346" height="13.039" fill="#F7BD13" stroke-width="0"/>
   </g>
   <circle id="connector42pad" cx="64.8" cy="45.377" r="4.2633" fill="none" stroke="#F7BD13" stroke-width="1.44" connectorname="P$1"/>
   <circle id="connector13pad" cx="7.56" cy="20.177" r="1.7773" fill="none" stroke="#F7BD13" stroke-width=".72" connectorname="SIGNAL"/>
   <path d="m3.4722 18.4h8.1757v3.5546h-8.1757v-3.5546m2.3105 1.7773a1.7773 1.7773 0 1 0 3.5546 0 1.7773 1.7773 0 1 0-3.5546 0z" fill="#F7BD13" stroke-width="0"/>
   <circle id="connector14pad" cx="7.56" cy="27.377" r="1.7773" fill="none" stroke="#F7BD13" stroke-width=".72" connectorname="VIN"/>
   <path d="m3.4722 25.6h8.1757v3.5546h-8.1757v-3.5546m2.3105 1.7773a1.7773 1.7773 0 1 0 3.5546 0 1.7773 1.7773 0 1 0-3.5546 0z" fill="#F7BD13" stroke-width="0"/>
   <g transform="matrix(0 -1 1 0 -12.253 53.84)">
    <rect id="connector44pad" x="19.376" y="26.527" width="2.8346" height="13.039" fill="#F7BD13" stroke-width="0"/>
   </g>
   <circle id="connector15pad" cx="7.56" cy="34.577" r="1.7773" fill="none" stroke="#F7BD13" stroke-width=".72" connectorname="GND"/>
   <path d="m3.4722 32.8h8.1757v3.5546h-8.1757v-3.5546m2.3105 1.7773a1.7773 1.7773 0 1 0 3.5546 0 1.7773 1.7773 0 1 0-3.5546 0z" fill="#F7BD13" stroke-width="0"/>
   <circle id="connector16pad" cx="50.4" cy="47.177" r="1.9687" fill="none" stroke="#F7BD13" stroke-width="1.1027" connectorname="OUTH"/>
   <circle id="connector17pad" cx="43.2" cy="47.177" r="1.9687" fill="none" stroke="#F7BD13" stroke-width="1.1027" connectorname="OUTV"/>
   <circle id="connector18pad" cx="36" cy="47.177" r="1.9687" fill="none" stroke="#F7BD13" stroke-width="1.1027" connectorname="SIGNAL"/>
   <circle id="connector19pad" cx="28.8" cy="47.177" r="1.9687" fill="none" stroke="#F7BD13" stroke-width="1.1027" connectorname="VIN"/>
   <circle id="connector20pad" cx="21.6" cy="47.177" r="1.9687" fill="none" stroke="#F7BD13" stroke-width="1.1027" connectorname="GND"/>
   <circle id="connector43pad" cx="64.8" cy="9.377" r="4.2633" fill="none" stroke="#F7BD13" stroke-width="1.44" connectorname="P$1"/>
   <g transform="matrix(0 -1 1 0 -6.5835 48.17)">
    <rect id="connector45pad" x="19.376" y="20.857" width="2.8346" height="13.039" fill="#F7BD13" stroke-width="0"/>
   </g>
  </g>
 </g>
</svg>
