<?xml version="1.0" encoding="UTF-8"?>
<!-- Created with Fritzing (http://www.fritzing.org/) -->
<svg width=".55in" height=".94197in" baseProfile="tiny" version="1.2" viewBox="0 0 39.6 67.822" xmlns="http://www.w3.org/2000/svg">
 <desc>
  <referenceFile>Adafruit USB Type C Plug Breakout_pcb.svg</referenceFile>
 </desc>
 <desc>Fritzing footprint generated by brd2svg</desc>
 <g id="silkscreen">
  <path d="m39.312 38.978v21.416a6.912 6.912 0 0 1-7.0952 7.1389h-24.834a6.912 6.912 0 0 1-7.0952-7.1389v-21.416a6.912 6.912 0 0 1 7.0952-7.1389h24.834a6.912 6.912 0 0 1 7.0952 7.1389" fill="none" stroke="#fff" stroke-width=".576"/>
  <g>
   <title>element:JP2</title>
   <g>
    <title>package:1X05_ROUND_76</title>
   </g>
  </g>
  <g>
   <title>element:X1</title>
   <g>
    <title>package:USB_TYPEC_PLUG_12P</title>
    <line x1="28.304" x2="24.524" y1="32.173" y2="32.173" stroke="#fff" stroke-linecap="round" stroke-width=".432"/>
    <line x1="21.69" x2="17.91" y1="32.173" y2="32.173" stroke="#fff" stroke-linecap="round" stroke-width=".432"/>
    <line x1="15.076" x2="11.296" y1="32.173" y2="32.173" stroke="#fff" stroke-linecap="round" stroke-width=".432"/>
    <line x1="31.564" x2="31.564" y1="31.89" y2="2.8346" stroke="#fff" stroke-linecap="round" stroke-width=".28346"/>
    <path d="m31.564 2.8346a2.8346 2.8346 0 0 0-2.8346-2.8346" fill="none" stroke="#fff" stroke-width=".28346"/>
    <line x1="28.729" x2="10.871" y1="8.1855e-15" y2="8.1855e-15" stroke="#fff" stroke-linecap="round" stroke-width=".28346"/>
    <path d="m10.871 8.1855e-15a2.8346 2.8346 0 0 0-2.8346 2.8346" fill="none" stroke="#fff" stroke-width=".28346"/>
    <line x1="8.0362" x2="8.0362" y1="2.8346" y2="31.89" stroke="#fff" stroke-linecap="round" stroke-width=".28346"/>
    <line x1="31.706" x2="32.839" y1="31.89" y2="31.89" stroke="#fff" stroke-linecap="round" stroke-width=".28346"/>
    <line x1="32.839" x2="32.839" y1="31.89" y2="38.693" stroke="#fff" stroke-linecap="round" stroke-width=".28346"/>
    <line x1="32.839" x2="28.587" y1="38.693" y2="38.693" stroke="#fff" stroke-linecap="round" stroke-width=".28346"/>
    <line x1="28.587" x2="28.587" y1="38.693" y2="37.559" stroke="#fff" stroke-linecap="round" stroke-width=".28346"/>
    <line x1="28.587" x2="11.296" y1="37.559" y2="37.559" stroke="#fff" stroke-linecap="round" stroke-width=".28346"/>
    <line x1="11.296" x2="11.296" y1="37.559" y2="38.693" stroke="#fff" stroke-linecap="round" stroke-width=".28346"/>
    <line x1="11.296" x2="6.7606" y1="38.693" y2="38.693" stroke="#fff" stroke-linecap="round" stroke-width=".28346"/>
    <line x1="6.7606" x2="6.7606" y1="38.693" y2="31.89" stroke="#fff" stroke-linecap="round" stroke-width=".28346"/>
    <line x1="6.7606" x2="8.178" y1="31.89" y2="31.89" stroke="#fff" stroke-linecap="round" stroke-width=".28346"/>
   </g>
  </g>
  <line x1="6.7606" x2="32.839" y1=".288" y2=".288" fill="none" stroke="#fff" stroke-width=".576"/>
  <line x1="6.7606" x2="6.7606" y1="31.822" y2=".288" fill="none" stroke="#fff" stroke-width=".576"/>
  <line x1="32.839" x2="32.839" y1="31.822" y2=".288" fill="none" stroke="#fff" stroke-width=".576"/>
 </g>
 <g id="copper1">
  <g id="copper0">
   <circle id="connector7pad" cx="34.2" cy="60.622" r="2.0767" fill="none" stroke="#F7BD13" stroke-width="1.3187" connectorname="GND"/>
   <circle id="connector8pad" cx="27" cy="60.622" r="2.0767" fill="none" stroke="#F7BD13" stroke-width="1.3187" connectorname="D-"/>
   <circle id="connector9pad" cx="19.8" cy="60.622" r="2.0767" fill="none" stroke="#F7BD13" stroke-width="1.3187" connectorname="D+"/>
   <circle id="connector10pad" cx="12.6" cy="60.622" r="2.0767" fill="none" stroke="#F7BD13" stroke-width="1.3187" connectorname="CC1"/>
   <circle id="connector28pad" cx="31.989" cy="36.142" r="1.2756" fill="none" stroke="#F7BD13" stroke-width=".99212" connectorname="MNT1"/>
   <path d="m30.713 33.208h2.5512v5.8677h-2.5512v-5.8677m0 2.934a1.2756 1.2756 0 1 0 2.5512 0 1.2756 1.2756 0 1 0-2.5512 0z" fill="#F7BD13" stroke-width="0"/>
   <circle id="connector11pad" cx="5.4" cy="60.622" r="2.0767" fill="none" stroke="#F7BD13" stroke-width="1.3187" connectorname="VBUS"/>
   <circle id="connector14pad" cx="32.4" cy="46.222" r="4.2633" fill="none" stroke="#F7BD13" stroke-width="1.44" connectorname="P$1"/>
   <circle id="connector15pad" cx="7.2" cy="46.222" r="4.2633" fill="none" stroke="#F7BD13" stroke-width="1.44" connectorname="P$1"/>
   <circle id="connector29pad" cx="7.611" cy="36.142" r="1.2756" fill="none" stroke="#F7BD13" stroke-width=".99212" connectorname="MNT2"/>
   <path d="m6.3354 33.208h2.5512v5.8677h-2.5512v-5.8677m0 2.934a1.2756 1.2756 0 1 0 2.5512 0 1.2756 1.2756 0 1 0-2.5512 0z" fill="#F7BD13" stroke-width="0"/>
  </g>
 </g>
</svg>
