<?xml version="1.0" encoding="UTF-8"?>
<!-- Created with Fritzing (http://www.fritzing.org/) -->
<svg width=".75in" height="1.1in" baseProfile="tiny" version="1.2" viewBox="0 0 54 79.2" xmlns="http://www.w3.org/2000/svg">
 <desc>
  <referenceFile>Adafruit TPS65131 Split Power Supply_pcb.svg</referenceFile>
 </desc>
 <desc>Fritzing footprint generated by brd2svg</desc>
 <g id="silkscreen">
  <path d="m0.288 7.4357a6.912 6.912 0 0 1 7.1232-7.1477h39.178a6.912 6.912 0 0 1 7.1232 7.1477v64.329a6.912 6.912 0 0 1-7.1232 7.1477h-39.178a6.912 6.912 0 0 1-7.1232-7.1477v-64.329" fill="none" stroke="#fff" stroke-width=".576"/>
  <g>
   <title>element:JP2</title>
   <g>
    <title>package:1X07_ROUND_76</title>
   </g>
  </g>
  <g>
   <title>element:PLABEL11</title>
   <g>
    <title>package:PLABEL11</title>
   </g>
  </g>
  <g>
   <title>element:U$4</title>
   <g>
    <title>package:ADAFRUIT_5MM</title>
   </g>
  </g>
 </g>
 <g id="copper1">
  <g id="copper0" fill="none" stroke="#F7BD13">
   <circle id="connector64pad" cx="46.8" cy="7.2" r="4.2633" stroke-width="1.44" connectorname="P$1"/>
   <circle id="connector63pad" cx="7.2" cy="7.2" r="4.2633" stroke-width="1.44" connectorname="P$1"/>
   <circle id="connector35pad" cx="5.4" cy="72" r="2.0767" stroke-width="1.3187" connectorname="+12V"/>
   <circle id="connector36pad" cx="12.6" cy="72" r="2.0767" stroke-width="1.3187" connectorname="GND"/>
   <circle id="connector37pad" cx="19.8" cy="72" r="2.0767" stroke-width="1.3187" connectorname="VDD"/>
   <circle id="connector38pad" cx="27" cy="72" r="2.0767" stroke-width="1.3187" connectorname="GND"/>
   <circle id="connector39pad" cx="34.2" cy="72" r="2.0767" stroke-width="1.3187" connectorname="ENABLE"/>
   <circle id="connector40pad" cx="41.4" cy="72" r="2.0767" stroke-width="1.3187" connectorname="GND"/>
   <circle id="connector41pad" cx="48.6" cy="72" r="2.0767" stroke-width="1.3187" connectorname="-12V"/>
  </g>
 </g>
</svg>
