<?xml version="1.0" encoding="UTF-8"?>
<!-- Created with Fritzing (http://www.fritzing.org/) -->
<svg width="4.7638in" height="2in" baseProfile="tiny" version="1.2" viewBox="0 0 342.99 144" xmlns="http://www.w3.org/2000/svg">
 <desc>
  <referenceFile>Adafruit Seven-Segment LED Backpack 1.2 Inch Digits_pcb.svg</referenceFile>
 </desc>
 <desc>Fritzing footprint generated by brd2svg</desc>
 <g id="silkscreen">
  <path d="m9.4087 143.71a6.912 6.912 0 0 1-7.1879-7.171v-129.08a6.912 6.912 0 0 1 7.1879-7.1712h324.17a6.912 6.912 0 0 1 7.188 7.1712v129.08a6.912 6.912 0 0 1-7.188 7.171h-324.17m319.38-6.912a2.5466 2.5466 0 1 0 5.0933 0 2.5466 2.5466 0 1 0-5.0933 0zm-319.68 0a2.5466 2.5466 0 1 0 5.0933 0 2.5466 2.5466 0 1 0-5.0933 0zm319.68-129.6a2.5466 2.5466 0 1 0 5.0933 0 2.5466 2.5466 0 1 0-5.0933 0zm-319.68 0a2.5466 2.5466 0 1 0 5.0933 0 2.5466 2.5466 0 1 0-5.0933 0z" fill="none" stroke="#fff" stroke-width=".576"/>
  <g>
   <title>element:LED1</title>
   <g>
    <title>package:SEGMENT_BL-Q120A</title>
    <line x2="342.99" y1="12.756" y2="12.756" stroke="#fff" stroke-linecap="round" stroke-width=".36"/>
    <line x1="342.99" x2="342.99" y1="12.756" y2="131.24" stroke="#fff" stroke-linecap="round" stroke-width=".36"/>
    <line x1="342.99" y1="131.24" y2="131.24" stroke="#fff" stroke-linecap="round" stroke-width=".36"/>
    <line y1="131.24" y2="12.756" stroke="#fff" stroke-linecap="round" stroke-width=".36"/>
    <circle cx="14.173" cy="33.959" r="1.8" fill="none" stroke="#fff" stroke-width="3.6"/>
   </g>
  </g>
  <g>
   <title>element:U$3</title>
   <g>
    <title>package:ADAFRUIT_TEXT_30MM</title>
   </g>
  </g>
  <g>
   <title>element:U2</title>
   <g>
    <title>package:SOP28_300MIL</title>
   </g>
  </g>
  <line x1=".288" x2="1.9361" y1="131.24" y2="131.24" fill="none" stroke="#fff" stroke-width=".576"/>
  <line x1=".288" x2="1.9361" y1="12.756" y2="12.756" fill="none" stroke="#fff" stroke-width=".576"/>
  <line x1=".288" x2=".288" y1="131.24" y2="12.756" fill="none" stroke="#fff" stroke-width=".576"/>
 </g>
 <g id="copper1">
  <g id="copper0" fill="none" stroke="#F7BD13" stroke-width="1.3187">
   <circle id="connector6pad" cx="178.7" cy="7.2" r="2.0767" connectorname="SDA"/>
   <circle id="connector7pad" cx="171.5" cy="7.2" r="2.0767" connectorname="GND"/>
   <circle id="connector8pad" cx="164.3" cy="7.2" r="2.0767" connectorname="VDD"/>
   <circle id="connector9pad" cx="157.1" cy="7.2" r="2.0767" connectorname="VCCIO"/>
   <circle id="connector5pad" cx="185.9" cy="7.2" r="2.0767" connectorname="SCL"/>
  </g>
 </g>
</svg>
