<?xml version="1.0" encoding="UTF-8"?>
<!-- Created with Fritzing (http://www.fritzing.org/) -->
<svg width="1in" height=".7in" baseProfile="tiny" version="1.2" viewBox="0 0 72 50.4" xmlns="http://www.w3.org/2000/svg">
 <desc>
  <referenceFile>Adafruit Stemma QT 5 Port Hub_pcb.svg</referenceFile>
 </desc>
 <desc>Fritzing footprint generated by brd2svg</desc>
 <g id="silkscreen">
  <path d="m0.288 7.4057a6.912 6.912 0 0 1 7.1424-7.1177h57.139a6.912 6.912 0 0 1 7.1424 7.1177v35.589a6.912 6.912 0 0 1-7.1424 7.1177h-57.139a6.912 6.912 0 0 1-7.1424-7.1177v-35.589" fill="none" stroke="#fff" stroke-width=".576"/>
  <g>
   <title>element:CONN1</title>
   <g>
    <title>package:JST_SH4_RA</title>
    <line x1="21.127" x2="24.528" y1="16.696" y2="16.696" stroke="#fff" stroke-linecap="round" stroke-width=".432"/>
    <line x1="24.528" x2="24.528" y1="16.696" y2="19.814" stroke="#fff" stroke-linecap="round" stroke-width=".432"/>
    <line x1="24.528" x2="24.528" y1="30.586" y2="33.987" stroke="#fff" stroke-linecap="round" stroke-width=".432"/>
    <line x1="24.528" x2="21.127" y1="33.987" y2="33.987" stroke="#fff" stroke-linecap="round" stroke-width=".432"/>
    <line x1="16.308" x2="16.308" y1="19.247" y2="31.153" stroke="#fff" stroke-linecap="round" stroke-width=".432"/>
   </g>
  </g>
  <g>
   <title>element:CONN2</title>
   <g>
    <title>package:JST_SH4_RA</title>
    <line x1="49.927" x2="53.328" y1="16.696" y2="16.696" stroke="#fff" stroke-linecap="round" stroke-width=".432"/>
    <line x1="53.328" x2="53.328" y1="16.696" y2="19.814" stroke="#fff" stroke-linecap="round" stroke-width=".432"/>
    <line x1="53.328" x2="53.328" y1="30.586" y2="33.987" stroke="#fff" stroke-linecap="round" stroke-width=".432"/>
    <line x1="53.328" x2="49.927" y1="33.987" y2="33.987" stroke="#fff" stroke-linecap="round" stroke-width=".432"/>
    <line x1="45.108" x2="45.108" y1="19.247" y2="31.153" stroke="#fff" stroke-linecap="round" stroke-width=".432"/>
   </g>
  </g>
  <g>
   <title>element:CONN3</title>
   <g>
    <title>package:JST_SH4_RA</title>
    <line x1="64.327" x2="67.728" y1="16.696" y2="16.696" stroke="#fff" stroke-linecap="round" stroke-width=".432"/>
    <line x1="67.728" x2="67.728" y1="16.696" y2="19.814" stroke="#fff" stroke-linecap="round" stroke-width=".432"/>
    <line x1="67.728" x2="67.728" y1="30.586" y2="33.987" stroke="#fff" stroke-linecap="round" stroke-width=".432"/>
    <line x1="67.728" x2="64.327" y1="33.987" y2="33.987" stroke="#fff" stroke-linecap="round" stroke-width=".432"/>
    <line x1="59.508" x2="59.508" y1="19.247" y2="31.153" stroke="#fff" stroke-linecap="round" stroke-width=".432"/>
   </g>
  </g>
  <g>
   <title>element:CONN4</title>
   <g>
    <title>package:JST_SH4_RA</title>
    <line x1="6.7266" x2="10.128" y1="16.696" y2="16.696" stroke="#fff" stroke-linecap="round" stroke-width=".432"/>
    <line x1="10.128" x2="10.128" y1="16.696" y2="19.814" stroke="#fff" stroke-linecap="round" stroke-width=".432"/>
    <line x1="10.128" x2="10.128" y1="30.586" y2="33.987" stroke="#fff" stroke-linecap="round" stroke-width=".432"/>
    <line x1="10.128" x2="6.7266" y1="33.987" y2="33.987" stroke="#fff" stroke-linecap="round" stroke-width=".432"/>
    <line x1="1.9077" x2="1.9077" y1="19.247" y2="31.153" stroke="#fff" stroke-linecap="round" stroke-width=".432"/>
   </g>
  </g>
  <g>
   <title>element:CONN5</title>
   <g>
    <title>package:JST_SH4_RA</title>
    <line x1="35.527" x2="38.928" y1="16.696" y2="16.696" stroke="#fff" stroke-linecap="round" stroke-width=".432"/>
    <line x1="38.928" x2="38.928" y1="16.696" y2="19.814" stroke="#fff" stroke-linecap="round" stroke-width=".432"/>
    <line x1="38.928" x2="38.928" y1="30.586" y2="33.987" stroke="#fff" stroke-linecap="round" stroke-width=".432"/>
    <line x1="38.928" x2="35.527" y1="33.987" y2="33.987" stroke="#fff" stroke-linecap="round" stroke-width=".432"/>
    <line x1="30.708" x2="30.708" y1="19.247" y2="31.153" stroke="#fff" stroke-linecap="round" stroke-width=".432"/>
   </g>
  </g>
  <g>
   <title>element:U$30</title>
   <g>
    <title>package:STEMMAQT</title>
   </g>
  </g>
  <g>
   <title>element:U$31</title>
   <g>
    <title>package:STEMMAQT</title>
   </g>
  </g>
 </g>
 <g id="copper1">
  <g id="copper0">
   <g transform="matrix(-1 0 0 -1 50.598 53.235)">
    <rect id="connector6pad" x="23.102" y="25.767" width="4.3937" height="1.7008" fill="#F7BD13" stroke-width="0"/>
   </g>
   <g transform="matrix(-1 0 0 -1 79.399 53.235)">
    <rect id="connector30pad" x="37.502" y="25.767" width="4.3937" height="1.7008" fill="#F7BD13" stroke-width="0"/>
   </g>
   <g transform="matrix(-1 0 0 -1 50.598 47.565)">
    <rect id="connector7pad" x="23.102" y="22.932" width="4.3937" height="1.7008" fill="#F7BD13" stroke-width="0"/>
   </g>
   <circle id="connector46pad" cx="46.8" cy="43.2" r="2.0767" fill="none" stroke="#F7BD13" stroke-width="1.3187" connectorname="SDA"/>
   <g transform="matrix(-1 0 0 -1 50.598 41.896)">
    <rect id="connector8pad" x="23.102" y="20.098" width="4.3937" height="1.7008" fill="#F7BD13" stroke-width="0"/>
   </g>
   <circle id="connector42pad" cx="25.2" cy="7.2" r="2.0767" fill="none" stroke="#F7BD13" stroke-width="1.3187" connectorname="SDA"/>
   <circle id="connector50pad" cx="64.8" cy="7.2" r="4.2633" fill="none" stroke="#F7BD13" stroke-width="1.44" connectorname="P$1"/>
   <g transform="matrix(-1 0 0 -1 108.2 58.904)">
    <rect id="connector11pad" x="51.902" y="28.602" width="4.3937" height="1.7008" fill="#F7BD13" stroke-width="0"/>
   </g>
   <g transform="matrix(-1 0 0 -1 79.399 41.896)">
    <rect id="connector32pad" x="37.502" y="20.098" width="4.3937" height="1.7008" fill="#F7BD13" stroke-width="0"/>
   </g>
   <g transform="matrix(-1 0 0 -1 108.2 53.235)">
    <rect id="connector12pad" x="51.902" y="25.767" width="4.3937" height="1.7008" fill="#F7BD13" stroke-width="0"/>
   </g>
   <g transform="matrix(-1 0 0 -1 108.2 47.565)">
    <rect id="connector13pad" x="51.902" y="22.932" width="4.3937" height="1.7008" fill="#F7BD13" stroke-width="0"/>
   </g>
   <circle id="connector40pad" cx="39.6" cy="7.2" r="2.0767" fill="none" stroke="#F7BD13" stroke-width="1.3187" connectorname="GND"/>
   <g transform="matrix(-1 0 0 -1 108.2 41.896)">
    <rect id="connector14pad" x="51.902" y="20.098" width="4.3937" height="1.7008" fill="#F7BD13" stroke-width="0"/>
   </g>
   <circle id="connector44pad" cx="32.4" cy="43.2" r="2.0767" fill="none" stroke="#F7BD13" stroke-width="1.3187" connectorname="GND"/>
   <circle id="connector52pad" cx="64.8" cy="43.2" r="4.2633" fill="none" stroke="#F7BD13" stroke-width="1.44" connectorname="P$1"/>
   <g transform="matrix(-1 0 0 -1 137 58.904)">
    <rect id="connector17pad" x="66.302" y="28.602" width="4.3937" height="1.7008" fill="#F7BD13" stroke-width="0"/>
   </g>
   <g transform="matrix(-1 0 0 -1 79.399 47.565)">
    <rect id="connector31pad" x="37.502" y="22.932" width="4.3937" height="1.7008" fill="#F7BD13" stroke-width="0"/>
   </g>
   <g transform="matrix(-1 0 0 -1 137 53.235)">
    <rect id="connector18pad" x="66.302" y="25.767" width="4.3937" height="1.7008" fill="#F7BD13" stroke-width="0"/>
   </g>
   <g transform="matrix(-1 0 0 -1 137 47.565)">
    <rect id="connector19pad" x="66.302" y="22.932" width="4.3937" height="1.7008" fill="#F7BD13" stroke-width="0"/>
   </g>
   <g transform="matrix(-1 0 0 -1 137 41.896)">
    <rect id="connector20pad" x="66.302" y="20.098" width="4.3937" height="1.7008" fill="#F7BD13" stroke-width="0"/>
   </g>
   <circle id="connector39pad" cx="46.8" cy="7.2" r="2.0767" fill="none" stroke="#F7BD13" stroke-width="1.3187" connectorname="VCC"/>
   <circle id="connector41pad" cx="32.4" cy="7.2" r="2.0767" fill="none" stroke="#F7BD13" stroke-width="1.3187" connectorname="SCL"/>
   <g transform="matrix(-1 0 0 -1 21.798 58.904)">
    <rect id="connector23pad" x="8.7024" y="28.602" width="4.3937" height="1.7008" fill="#F7BD13" stroke-width="0"/>
   </g>
   <circle id="connector43pad" cx="25.2" cy="43.2" r="2.0767" fill="none" stroke="#F7BD13" stroke-width="1.3187" connectorname="VCC"/>
   <g transform="matrix(-1 0 0 -1 21.798 53.235)">
    <rect id="connector24pad" x="8.7024" y="25.767" width="4.3937" height="1.7008" fill="#F7BD13" stroke-width="0"/>
   </g>
   <circle id="connector45pad" cx="39.6" cy="43.2" r="2.0767" fill="none" stroke="#F7BD13" stroke-width="1.3187" connectorname="SCL"/>
   <g transform="matrix(-1 0 0 -1 21.798 47.565)">
    <rect id="connector25pad" x="8.7024" y="22.932" width="4.3937" height="1.7008" fill="#F7BD13" stroke-width="0"/>
   </g>
   <g transform="matrix(-1 0 0 -1 21.798 41.896)">
    <rect id="connector26pad" x="8.7024" y="20.098" width="4.3937" height="1.7008" fill="#F7BD13" stroke-width="0"/>
   </g>
   <circle id="connector49pad" cx="7.2" cy="7.2" r="4.2633" fill="none" stroke="#F7BD13" stroke-width="1.44" connectorname="P$1"/>
   <circle id="connector51pad" cx="7.2" cy="43.2" r="4.2633" fill="none" stroke="#F7BD13" stroke-width="1.44" connectorname="P$1"/>
   <g transform="matrix(-1 0 0 -1 79.399 58.904)">
    <rect id="connector29pad" x="37.502" y="28.602" width="4.3937" height="1.7008" fill="#F7BD13" stroke-width="0"/>
   </g>
   <g transform="matrix(-1 0 0 -1 50.598 58.904)">
    <rect id="connector5pad" x="23.102" y="28.602" width="4.3937" height="1.7008" fill="#F7BD13" stroke-width="0"/>
   </g>
  </g>
 </g>
</svg>
