<?xml version="1.0" encoding="UTF-8"?>
<!-- Created with Fritzing (http://www.fritzing.org/) -->
<svg width=".4in" height=".5in" baseProfile="tiny" version="1.2" viewBox="0 0 28.8 36" xmlns="http://www.w3.org/2000/svg">
 <desc>
  <referenceFile>JST2_pcb.svg</referenceFile>
 </desc>
 <desc>Fritzing footprint generated by brd2svg</desc>
 <g id="silkscreen">
  <path d="m0.288 32.17v-28.339a3.312 3.312 0 0 1 3.528-3.5424h21.168a3.312 3.312 0 0 1 3.528 3.5424v28.339a3.312 3.312 0 0 1-3.528 3.5424h-21.168a3.312 3.312 0 0 1-3.528-3.5424" fill="none" stroke="#fff" stroke-width=".576"/>
  <g>
   <title>element:JP1</title>
   <g>
    <title>package:PADS-4</title>
   </g>
  </g>
  <g>
   <title>element:U$4</title>
   <g>
    <title>package:ADAFRUIT_3.5MM</title>
   </g>
  </g>
  <g>
   <title>element:X1</title>
   <g>
    <title>package:JSTPH2</title>
    <line x1="8.022" x2="20.778" y1="1.2161" y2="1.2161" stroke="#fff" stroke-linecap="round" stroke-width=".576"/>
    <line x1="25.739" x2="25.739" y1="11.137" y2="22.476" stroke="#fff" stroke-linecap="round" stroke-width=".576"/>
    <line x1="25.739" x2="23.329" y1="22.476" y2="22.476" stroke="#fff" stroke-linecap="round" stroke-width=".576"/>
    <line x1="23.329" x2="23.329" y1="22.476" y2="15.389" stroke="#fff" stroke-linecap="round" stroke-width=".576"/>
    <line x1="23.329" x2="19.361" y1="15.389" y2="15.389" stroke="#fff" stroke-linecap="round" stroke-width=".576"/>
    <line x1="9.4393" x2="5.4709" y1="15.389" y2="15.389" stroke="#fff" stroke-linecap="round" stroke-width=".576"/>
    <line x1="5.4709" x2="5.4709" y1="15.389" y2="22.476" stroke="#fff" stroke-linecap="round" stroke-width=".576"/>
    <line x1="5.4709" x2="3.0614" y1="22.476" y2="22.476" stroke="#fff" stroke-linecap="round" stroke-width=".576"/>
    <line x1="3.0614" x2="3.0614" y1="22.476" y2="11.137" stroke="#fff" stroke-linecap="round" stroke-width=".576"/>
   </g>
  </g>
 </g>
 <g id="copper1">
  <g id="copper0" fill="none">
   <circle id="connector1pad" cx="3.6" cy="32.4" r="1.98" stroke="#F7BD13" stroke-width="1.08" connectorname="V-"/>
   <rect id="connector1terminal" x="3.595" y="34.915" width=".01008" height=".01008" stroke-width="0"/>
   <circle id="connector2pad" cx="10.8" cy="32.4" r="1.98" stroke="#F7BD13" stroke-width="1.08" connectorname="V-"/>
   <rect id="connector2terminal" x="10.795" y="34.915" width=".01008" height=".01008" stroke-width="0"/>
   <circle id="connector3pad" cx="18" cy="32.4" r="1.98" stroke="#F7BD13" stroke-width="1.08" connectorname="V+"/>
   <rect id="connector3terminal" x="17.995" y="34.915" width=".01008" height=".01008" stroke-width="0"/>
   <circle id="connector4pad" cx="25.2" cy="32.4" r="1.98" stroke="#F7BD13" stroke-width="1.08" connectorname="V+"/>
   <rect id="connector4terminal" x="25.195" y="34.915" width=".01008" height=".01008" stroke-width="0"/>
  </g>
 </g>
</svg>
