<?xml version="1.0" encoding="UTF-8"?>
<!-- Created with Fritzing (http://www.fritzing.org/) -->
<svg width="2in" height=".9in" baseProfile="tiny" version="1.2" viewBox="0 0 144 64.8" xmlns="http://www.w3.org/2000/svg">
 <desc>
  <referenceFile>INA219 FeatherWing rev A_pcb.svg</referenceFile>
 </desc>
 <desc>Fritzing footprint generated by brd2svg</desc>
 <g id="silkscreen">
  <path d="m0.288 0.288h143.42v64.224h-143.42v-64.224zm133.2 6.912a3.312 3.312 0 1 0 6.624 0 3.312 3.312 0 1 0-6.624 0zm0 50.4a3.312 3.312 0 1 0 6.624 0 3.312 3.312 0 1 0-6.624 0z" fill="none" stroke="#fff" stroke-width=".576"/>
  <line x1="43.2" x2="50.4" y1="14.4" y2="14.4" stroke="#fff" stroke-linecap="round" stroke-width=".72"/>
  <line x1="50.4" x2="57.6" y1="14.4" y2="14.4" stroke="#fff" stroke-linecap="round" stroke-width=".72"/>
  <line x1="57.6" x2="64.8" y1="14.4" y2="14.4" stroke="#fff" stroke-linecap="round" stroke-width=".72"/>
  <line x1="64.8" x2="72" y1="14.4" y2="14.4" stroke="#fff" stroke-linecap="round" stroke-width=".72"/>
  <line x1="72" x2="79.2" y1="14.4" y2="14.4" stroke="#fff" stroke-linecap="round" stroke-width=".72"/>
  <line x1="79.2" x2="93.6" y1="14.4" y2="14.4" stroke="#fff" stroke-linecap="round" stroke-width=".72"/>
  <line x1="93.6" x2="100.8" y1="14.4" y2="14.4" stroke="#fff" stroke-linecap="round" stroke-width=".72"/>
  <line x1="100.8" x2="108" y1="14.4" y2="14.4" stroke="#fff" stroke-linecap="round" stroke-width=".72"/>
  <line x1="108" x2="115.2" y1="14.4" y2="14.4" stroke="#fff" stroke-linecap="round" stroke-width=".72"/>
  <line x1="115.2" x2="122.4" y1="14.4" y2="14.4" stroke="#fff" stroke-linecap="round" stroke-width=".72"/>
  <line x1="122.4" x2="131.04" y1="14.4" y2="14.4" stroke="#fff" stroke-linecap="round" stroke-width=".72"/>
  <line x1="131.04" x2="131.04" y1="14.4" y2=".36" stroke="#fff" stroke-linecap="round" stroke-width=".72"/>
  <line x1="50.4" x2="50.4" y1=".288" y2="14.4" stroke="#fff" stroke-linecap="round" stroke-width=".72"/>
  <line x1="57.6" x2="57.6" y1=".288" y2="14.4" stroke="#fff" stroke-linecap="round" stroke-width=".72"/>
  <line x1="64.8" x2="64.8" y1="14.4" y2=".288" stroke="#fff" stroke-linecap="round" stroke-width=".72"/>
  <line x1="72" x2="72" y1="14.4" y2=".288" stroke="#fff" stroke-linecap="round" stroke-width=".72"/>
  <line x1="79.2" x2="79.2" y1=".288" y2="14.4" stroke="#fff" stroke-linecap="round" stroke-width=".72"/>
  <line x1="86.4" x2="86.4" y1="14.04" y2=".288" stroke="#fff" stroke-linecap="round" stroke-width=".72"/>
  <line x1="93.6" x2="93.6" y1=".288" y2="14.4" stroke="#fff" stroke-linecap="round" stroke-width=".72"/>
  <line x1="100.8" x2="100.8" y1=".288" y2="14.4" stroke="#fff" stroke-linecap="round" stroke-width=".72"/>
  <line x1="108" x2="108" y1=".288" y2="14.4" stroke="#fff" stroke-linecap="round" stroke-width=".72"/>
  <line x1="115.2" x2="115.2" y1=".288" y2="14.4" stroke="#fff" stroke-linecap="round" stroke-width=".72"/>
  <line x1="122.4" x2="122.4" y1=".288" y2="14.4" stroke="#fff" stroke-linecap="round" stroke-width=".72"/>
  <line x1="100.44" x2="93.6" y1="50.58" y2="50.58" stroke="#fff" stroke-linecap="round" stroke-width=".72"/>
  <line x1="93.6" x2="86.4" y1="50.58" y2="50.58" stroke="#fff" stroke-linecap="round" stroke-width=".72"/>
  <line x1="86.4" x2="78.84" y1="50.58" y2="50.58" stroke="#fff" stroke-linecap="round" stroke-width=".72"/>
  <line x1="78.84" x2="72" y1="50.58" y2="50.58" stroke="#fff" stroke-linecap="round" stroke-width=".72"/>
  <line x1="72" x2="64.8" y1="50.58" y2="50.58" stroke="#fff" stroke-linecap="round" stroke-width=".72"/>
  <line x1="64.8" x2="50.4" y1="50.58" y2="50.58" stroke="#fff" stroke-linecap="round" stroke-width=".72"/>
  <line x1="14.4" x2="14.4" y1="50.58" y2="64.44" stroke="#fff" stroke-linecap="round" stroke-width=".72"/>
  <line x1="100.44" x2="100.44" y1="50.58" y2="64.44" stroke="#fff" stroke-linecap="round" stroke-width=".72"/>
  <line x1="93.6" x2="93.6" y1="64.44" y2="50.58" stroke="#fff" stroke-linecap="round" stroke-width=".72"/>
  <line x1="86.4" x2="86.4" y1="64.44" y2="50.58" stroke="#fff" stroke-linecap="round" stroke-width=".72"/>
  <line x1="78.84" x2="78.84" y1="50.58" y2="64.44" stroke="#fff" stroke-linecap="round" stroke-width=".72"/>
  <line x1="72" x2="72" y1="50.58" y2="64.44" stroke="#fff" stroke-linecap="round" stroke-width=".72"/>
  <line x1="64.8" x2="64.8" y1="64.44" y2="50.58" stroke="#fff" stroke-linecap="round" stroke-width=".72"/>
  <line x1="57.6" x2="57.6" y1="50.94" y2="64.44" stroke="#fff" stroke-linecap="round" stroke-width=".72"/>
  <line x1="50.4" x2="50.4" y1="64.44" y2="50.58" stroke="#fff" stroke-linecap="round" stroke-width=".72"/>
  <line x1="43.2" x2="43.2" y1="64.44" y2="50.58" stroke="#fff" stroke-linecap="round" stroke-width=".72"/>
  <line x1="21.6" x2="21.6" y1="64.44" y2="50.58" stroke="#fff" stroke-linecap="round" stroke-width=".72"/>
  <line x1="100.44" x2="108" y1="50.58" y2="50.58" stroke="#fff" stroke-linecap="round" stroke-width=".72"/>
  <line x1="108" x2="115.2" y1="50.58" y2="50.58" stroke="#fff" stroke-linecap="round" stroke-width=".72"/>
  <line x1="115.2" x2="122.4" y1="50.58" y2="50.58" stroke="#fff" stroke-linecap="round" stroke-width=".72"/>
  <line x1="122.4" x2="129.6" y1="50.58" y2="50.58" stroke="#fff" stroke-linecap="round" stroke-width=".72"/>
  <line x1="129.6" x2="129.6" y1="50.58" y2="64.44" stroke="#fff" stroke-linecap="round" stroke-width=".72"/>
  <line x1="108" x2="108" y1="50.58" y2="64.44" stroke="#fff" stroke-linecap="round" stroke-width=".72"/>
  <line x1="115.2" x2="115.2" y1="50.58" y2="64.44" stroke="#fff" stroke-linecap="round" stroke-width=".72"/>
  <line x1="122.4" x2="122.4" y1="50.58" y2="64.44" stroke="#fff" stroke-linecap="round" stroke-width=".72"/>
  <line x1="43.2" x2="43.2" y1="14.4" y2=".288" stroke="#fff" stroke-linecap="round" stroke-width=".72"/>
  <line x1="46.8" x2="46.8" y1="56.52" y2="58.68" stroke="#fff" stroke-linecap="round" stroke-width="1.152"/>
  <line x1="54" x2="54" y1="56.52" y2="58.68" stroke="#fff" stroke-linecap="round" stroke-width="1.152"/>
  <line x1="61.2" x2="61.2" y1="56.52" y2="58.68" stroke="#fff" stroke-linecap="round" stroke-width="1.152"/>
  <line x1="68.4" x2="68.4" y1="56.52" y2="58.68" stroke="#fff" stroke-linecap="round" stroke-width="1.152"/>
  <line x1="75.6" x2="75.6" y1="56.52" y2="58.68" stroke="#fff" stroke-linecap="round" stroke-width="1.152"/>
  <line x1="82.8" x2="82.8" y1="56.52" y2="58.68" stroke="#fff" stroke-linecap="round" stroke-width="1.152"/>
  <line x1="126" x2="126" y1="56.52" y2="58.68" stroke="#fff" stroke-linecap="round" stroke-width="1.152"/>
  <line x1="111.6" x2="111.6" y1="6.12" y2="8.28" stroke="#fff" stroke-linecap="round" stroke-width="1.152"/>
  <line x1="104.4" x2="104.4" y1="6.12" y2="8.28" stroke="#fff" stroke-linecap="round" stroke-width="1.152"/>
  <line x1="97.2" x2="97.2" y1="6.12" y2="8.28" stroke="#fff" stroke-linecap="round" stroke-width="1.152"/>
  <line x1="90" x2="90" y1="6.12" y2="8.28" stroke="#fff" stroke-linecap="round" stroke-width="1.152"/>
  <line x1="82.8" x2="82.8" y1="6.12" y2="8.28" stroke="#fff" stroke-linecap="round" stroke-width="1.152"/>
  <line x1="75.6" x2="75.6" y1="6.12" y2="8.28" stroke="#fff" stroke-linecap="round" stroke-width="1.152"/>
  <line x1="68.4" x2="68.4" y1="6.12" y2="8.28" stroke="#fff" stroke-linecap="round" stroke-width="1.152"/>
  <line x1="28.8" x2="28.8" y1="48.24" y2="14.4" stroke="#fff" stroke-linecap="round" stroke-width=".72"/>
  <line x1="28.8" x2="36" y1="14.4" y2="14.4" stroke="#fff" stroke-linecap="round" stroke-width=".72"/>
  <line x1="36" x2="43.2" y1="14.4" y2="14.4" stroke="#fff" stroke-linecap="round" stroke-width=".72"/>
  <line x1="28.8" x2="26.64" y1="48.24" y2="50.58" stroke="#fff" stroke-linecap="round" stroke-width=".72"/>
  <line x1="32.4" x2="32.4" y1="20.52" y2="22.68" stroke="#fff" stroke-linecap="round" stroke-width="1.152"/>
  <line x1="32.4" x2="32.4" y1="27.72" y2="29.88" stroke="#fff" stroke-linecap="round" stroke-width="1.152"/>
  <line x1="32.4" x2="32.4" y1="34.92" y2="37.08" stroke="#fff" stroke-linecap="round" stroke-width="1.152"/>
  <line x1="39.6" x2="39.6" y1="34.92" y2="37.08" stroke="#fff" stroke-linecap="round" stroke-width="1.152"/>
  <line x1="39.6" x2="39.6" y1="27.72" y2="29.88" stroke="#fff" stroke-linecap="round" stroke-width="1.152"/>
  <line x1="39.6" x2="39.6" y1="20.52" y2="22.68" stroke="#fff" stroke-linecap="round" stroke-width="1.152"/>
  <line x1="39.6" x2="39.6" y1="42.12" y2="44.28" stroke="#fff" stroke-linecap="round" stroke-width="1.152"/>
  <line x1="32.4" x2="32.4" y1="42.12" y2="44.28" stroke="#fff" stroke-linecap="round" stroke-width="1.152"/>
  <line x1="50.4" x2="43.2" y1="50.58" y2="50.58" stroke="#fff" stroke-linecap="round" stroke-width=".72"/>
  <line x1="21.6" x2="14.4" y1="50.58" y2="50.58" stroke="#fff" stroke-linecap="round" stroke-width=".72"/>
  <line x1="36" x2="36" y1="64.44" y2="50.58" stroke="#fff" stroke-linecap="round" stroke-width=".72"/>
  <line x1="36" x2="36" y1="14.4" y2="50.58" stroke="#fff" stroke-linecap="round" stroke-width=".72"/>
  <line x1="43.2" x2="43.2" y1="50.58" y2="14.4" stroke="#fff" stroke-linecap="round" stroke-width=".72"/>
  <line x1="21.528" x2="26.568" y1="50.616" y2="50.616" stroke="#fff" stroke-linecap="round" stroke-width=".72"/>
  <line x1="36" x2="30.78" y1="50.58" y2="50.58" stroke="#fff" stroke-linecap="round" stroke-width=".72"/>
  <line x1="30.78" x2="28.8" y1="50.58" y2="52.56" stroke="#fff" stroke-linecap="round" stroke-width=".72"/>
  <line x1="28.8" x2="28.8" y1="52.56" y2="64.404" stroke="#fff" stroke-linecap="round" stroke-width=".72"/>
  <line x1="28.8" x2="26.64" y1="48.42" y2="50.58" stroke="#fff" stroke-linecap="round" stroke-width=".72"/>
  <line x1="26.64" x2="30.6" y1="52.56" y2="48.6" stroke="#fff" stroke-linecap="round" stroke-width="1.152"/>
  <line x1="32.4" x2="32.4" y1="56.52" y2="58.68" stroke="#fff" stroke-linecap="round" stroke-width="1.152"/>
  <line x1="39.6" x2="39.6" y1="49.32" y2="51.48" stroke="#fff" stroke-linecap="round" stroke-width="1.152"/>
  <g>
   <title>element:J1</title>
   <g>
    <title>package:TERMBLOCK_1X2-3.5MM</title>
    <line x1="123.56" x2="139.44" y1="42.038" y2="42.038" stroke="#fff" stroke-linecap="round" stroke-width=".576"/>
    <line x1="139.44" x2="143.4" y1="42.038" y2="42.038" stroke="#fff" stroke-linecap="round" stroke-width=".576"/>
    <line x1="143.4" x2="143.4" y1="42.038" y2="22.195" stroke="#fff" stroke-linecap="round" stroke-width=".576"/>
    <line x1="143.4" x2="139.44" y1="22.195" y2="22.195" stroke="#fff" stroke-linecap="round" stroke-width=".576"/>
    <line x1="139.44" x2="123.56" y1="22.195" y2="22.195" stroke="#fff" stroke-linecap="round" stroke-width=".576"/>
    <line x1="123.56" x2="123.56" y1="22.195" y2="42.038" stroke="#fff" stroke-linecap="round" stroke-width=".576"/>
    <line x1="139.44" x2="139.44" y1="42.038" y2="22.195" stroke="#fff" stroke-linecap="round" stroke-width=".576"/>
   </g>
  </g>
  <g>
   <title>element:JP1</title>
   <g>
    <title>package:1X12_ROUND_76MIL</title>
   </g>
  </g>
  <g>
   <title>element:JP2</title>
   <g>
    <title>package:1X02_ROUND</title>
   </g>
  </g>
  <g>
   <title>element:JP3</title>
   <g>
    <title>package:1X16_ROUND_76MIL</title>
   </g>
  </g>
  <g>
   <title>element:MS1</title>
   <g>
    <title>package:FEATHERWING</title>
   </g>
  </g>
  <g>
   <title>element:R5</title>
   <g>
    <title>package:2512</title>
   </g>
  </g>
  <g>
   <title>element:U$15</title>
   <g>
    <title>package:FEATHERLOGO_SMALL</title>
   </g>
  </g>
 </g>
 <g id="copper1">
  <g id="copper0" fill="none" stroke="#F7BD13">
   <circle id="connector155pad" cx="133.2" cy="27.298" r="0" stroke-width="0" connectorname="N$92"/>
   <circle id="connector156pad" cx="133.2" cy="27.298" r="0" stroke-width="0" connectorname="N$93"/>
   <circle id="connector153pad" cx="133.2" cy="27.298" r="0" stroke-width="0" connectorname="N$90"/>
   <circle id="connector154pad" cx="133.2" cy="27.298" r="0" stroke-width="0" connectorname="N$91"/>
   <circle id="connector151pad" cx="133.2" cy="27.298" r="0" stroke-width="0" connectorname="N$88"/>
   <circle id="connector152pad" cx="133.2" cy="27.298" r="0" stroke-width="0" connectorname="N$89"/>
   <circle id="connector149pad" cx="133.2" cy="27.298" r="0" stroke-width="0" connectorname="N$86"/>
   <circle id="connector150pad" cx="133.2" cy="27.298" r="0" stroke-width="0" connectorname="N$87"/>
   <circle id="connector147pad" cx="133.2" cy="27.298" r="0" stroke-width="0" connectorname="N$84"/>
   <circle id="connector148pad" cx="133.2" cy="27.298" r="0" stroke-width="0" connectorname="N$85"/>
   <circle id="connector145pad" cx="133.2" cy="27.298" r="0" stroke-width="0" connectorname="N$82"/>
   <circle id="connector146pad" cx="133.2" cy="27.298" r="0" stroke-width="0" connectorname="N$83"/>
   <circle id="connector143pad" cx="133.2" cy="27.298" r="0" stroke-width="0" connectorname="N$80"/>
   <circle id="connector144pad" cx="133.2" cy="27.298" r="0" stroke-width="0" connectorname="N$81"/>
   <circle id="connector141pad" cx="133.2" cy="27.298" r="0" stroke-width="0" connectorname="N$78"/>
   <circle id="connector142pad" cx="133.2" cy="27.298" r="0" stroke-width="0" connectorname="N$79"/>
   <circle id="connector139pad" cx="133.2" cy="27.298" r="0" stroke-width="0" connectorname="N$76"/>
   <circle id="connector140pad" cx="133.2" cy="27.298" r="0" stroke-width="0" connectorname="N$77"/>
   <circle id="connector137pad" cx="133.2" cy="27.298" r="0" stroke-width="0" connectorname="N$74"/>
   <circle id="connector138pad" cx="133.2" cy="27.298" r="0" stroke-width="0" connectorname="N$75"/>
   <circle id="connector135pad" cx="133.2" cy="27.298" r="0" stroke-width="0" connectorname="N$72"/>
   <circle id="connector136pad" cx="133.2" cy="27.298" r="0" stroke-width="0" connectorname="N$73"/>
   <circle id="connector133pad" cx="133.2" cy="27.298" r="0" stroke-width="0" connectorname="N$70"/>
   <circle id="connector134pad" cx="133.2" cy="27.298" r="0" stroke-width="0" connectorname="N$71"/>
   <circle id="connector131pad" cx="133.2" cy="27.298" r="0" stroke-width="0" connectorname="N$68"/>
   <circle id="connector132pad" cx="133.2" cy="27.298" r="0" stroke-width="0" connectorname="N$69"/>
   <circle id="connector129pad" cx="133.2" cy="27.298" r="0" stroke-width="0" connectorname="N$66"/>
   <circle id="connector130pad" cx="133.2" cy="27.298" r="0" stroke-width="0" connectorname="N$67"/>
   <circle id="connector127pad" cx="133.2" cy="27.298" r="0" stroke-width="0" connectorname="N$64"/>
   <circle id="connector128pad" cx="133.2" cy="27.298" r="0" stroke-width="0" connectorname="N$65"/>
   <circle id="connector125pad" cx="133.2" cy="27.298" r="0" stroke-width="0" connectorname="N$52"/>
   <circle id="connector126pad" cx="133.2" cy="27.298" r="0" stroke-width="0" connectorname="N$53"/>
   <circle id="connector123pad" cx="133.2" cy="27.298" r="0" stroke-width="0" connectorname="N$50"/>
   <circle id="connector124pad" cx="133.2" cy="27.298" r="0" stroke-width="0" connectorname="N$51"/>
   <circle id="connector121pad" cx="133.2" cy="27.298" r="0" stroke-width="0" connectorname="N$48"/>
   <circle id="connector122pad" cx="133.2" cy="27.298" r="0" stroke-width="0" connectorname="N$49"/>
   <circle id="connector119pad" cx="133.2" cy="27.298" r="0" stroke-width="0" connectorname="N$46"/>
   <circle id="connector120pad" cx="133.2" cy="27.298" r="0" stroke-width="0" connectorname="N$47"/>
   <circle id="connector117pad" cx="133.2" cy="27.298" r="0" stroke-width="0" connectorname="N$44"/>
   <circle id="connector118pad" cx="133.2" cy="27.298" r="0" stroke-width="0" connectorname="N$45"/>
   <circle id="connector115pad" cx="133.2" cy="27.298" r="0" stroke-width="0" connectorname="N$42"/>
   <circle id="connector116pad" cx="133.2" cy="27.298" r="0" stroke-width="0" connectorname="N$43"/>
   <circle id="connector113pad" cx="133.2" cy="27.298" r="0" stroke-width="0" connectorname="N$40"/>
   <circle id="connector114pad" cx="133.2" cy="27.298" r="0" stroke-width="0" connectorname="N$41"/>
   <circle id="connector111pad" cx="133.2" cy="27.298" r="0" stroke-width="0" connectorname="N$38"/>
   <circle id="connector112pad" cx="133.2" cy="27.298" r="0" stroke-width="0" connectorname="N$39"/>
   <circle id="connector109pad" cx="133.2" cy="27.298" r="0" stroke-width="0" connectorname="N$36"/>
   <circle id="connector110pad" cx="133.2" cy="27.298" r="0" stroke-width="0" connectorname="N$37"/>
   <circle id="connector107pad" cx="133.2" cy="27.298" r="0" stroke-width="0" connectorname="N$34"/>
   <circle id="connector108pad" cx="133.2" cy="27.298" r="0" stroke-width="0" connectorname="N$35"/>
   <circle id="connector105pad" cx="133.2" cy="27.298" r="0" stroke-width="0" connectorname="GND"/>
   <circle id="connector106pad" cx="133.2" cy="27.298" r="0" stroke-width="0" connectorname="GND"/>
   <circle id="connector103pad" cx="133.2" cy="27.298" r="0" stroke-width="0" connectorname="GND"/>
   <circle id="connector104pad" cx="133.2" cy="27.298" r="0" stroke-width="0" connectorname="GND"/>
   <circle id="connector101pad" cx="133.2" cy="27.298" r="0" stroke-width="0" connectorname="3.3V"/>
   <circle id="connector102pad" cx="133.2" cy="27.298" r="0" stroke-width="0" connectorname="GND"/>
   <circle id="connector99pad" cx="133.2" cy="27.298" r="0" stroke-width="0" connectorname="3.3V"/>
   <circle id="connector100pad" cx="133.2" cy="27.298" r="0" stroke-width="0" connectorname="3.3V"/>
   <circle id="connector97pad" cx="133.2" cy="27.298" r="0" stroke-width="0" connectorname="3.3V"/>
   <circle id="connector98pad" cx="133.2" cy="27.298" r="0" stroke-width="0" connectorname="3.3V"/>
   <circle id="connector66pad" cx="90" cy="3.6" r="1.9687" stroke-width="1.1027" connectorname="D10"/>
   <circle id="connector67pad" cx="82.8" cy="3.6" r="1.9687" stroke-width="1.1027" connectorname="D11"/>
   <circle id="connector68pad" cx="75.6" cy="3.6" r="1.9687" stroke-width="1.1027" connectorname="D12"/>
   <circle id="connector69pad" cx="68.4" cy="3.6" r="1.9687" stroke-width="1.1027" connectorname="D13"/>
   <circle id="connector70pad" cx="61.2" cy="3.6" r="1.9687" stroke-width="1.1027" connectorname="USB"/>
   <circle id="connector71pad" cx="54" cy="3.6" r="1.9687" stroke-width="1.1027" connectorname="EN"/>
   <circle id="connector72pad" cx="46.8" cy="3.6" r="1.9687" stroke-width="1.1027" connectorname="VBAT"/>
   <circle id="connector73pad" cx="7.2" cy="7.2" r="4.4716" stroke-width="1.8567" connectorname="P$1"/>
   <circle id="connector74pad" cx="7.2" cy="57.6" r="4.4716" stroke-width="1.8567" connectorname="P$2"/>
   <circle id="connector64pad" cx="104.4" cy="3.6" r="1.9687" stroke-width="1.1027" connectorname="D6"/>
   <circle id="connector62pad" cx="118.8" cy="3.6" r="1.9687" stroke-width="1.1027" connectorname="SCL"/>
   <circle id="connector65pad" cx="97.2" cy="3.6" r="1.9687" stroke-width="1.1027" connectorname="D9"/>
   <circle id="connector60pad" cx="126" cy="61.2" r="1.9687" stroke-width="1.1027" connectorname="D4"/>
   <circle id="connector63pad" cx="111.6" cy="3.6" r="1.9687" stroke-width="1.1027" connectorname="D5"/>
   <circle id="connector58pad" cx="111.6" cy="61.2" r="1.9687" stroke-width="1.1027" connectorname="RX"/>
   <circle id="connector61pad" cx="126" cy="3.6" r="1.9687" stroke-width="1.1027" connectorname="SDA"/>
   <circle id="connector56pad" cx="97.2" cy="61.2" r="1.9687" stroke-width="1.1027" connectorname="MOSI"/>
   <circle id="connector59pad" cx="118.8" cy="61.2" r="1.9687" stroke-width="1.1027" connectorname="TX"/>
   <circle id="connector54pad" cx="82.8" cy="61.2" r="1.9687" stroke-width="1.1027" connectorname="A5"/>
   <circle id="connector57pad" cx="104.4" cy="61.2" r="1.9687" stroke-width="1.1027" connectorname="MISO"/>
   <circle id="connector52pad" cx="68.4" cy="61.2" r="1.9687" stroke-width="1.1027" connectorname="A3"/>
   <circle id="connector55pad" cx="90" cy="61.2" r="1.9687" stroke-width="1.1027" connectorname="SCK"/>
   <circle id="connector50pad" cx="54" cy="61.2" r="1.9687" stroke-width="1.1027" connectorname="A1"/>
   <circle id="connector53pad" cx="75.6" cy="61.2" r="1.9687" stroke-width="1.1027" connectorname="A4"/>
   <circle id="connector48pad" cx="39.6" cy="61.2" r="1.9687" stroke-width="1.1027" connectorname="GND"/>
   <circle id="connector51pad" cx="61.2" cy="61.2" r="1.9687" stroke-width="1.1027" connectorname="A2"/>
   <circle id="connector46pad" cx="25.2" cy="61.2" r="1.9687" stroke-width="1.1027" connectorname="3.3V"/>
   <circle id="connector49pad" cx="46.8" cy="61.2" r="1.9687" stroke-width="1.1027" connectorname="A0"/>
   <circle id="connector44pad" cx="18" cy="54" r="2.0767" stroke-width="1.3187" connectorname="RESET"/>
   <circle id="connector47pad" cx="32.4" cy="61.2" r="1.9687" stroke-width="1.1027" connectorname="AREF"/>
   <circle id="connector42pad" cx="32.4" cy="54" r="2.0767" stroke-width="1.3187" connectorname="AREF"/>
   <circle id="connector45pad" cx="18" cy="61.2" r="1.9687" stroke-width="1.1027" connectorname="RESET"/>
   <circle id="connector40pad" cx="46.8" cy="54" r="2.0767" stroke-width="1.3187" connectorname="A0"/>
   <circle id="connector43pad" cx="25.2" cy="54" r="2.0767" stroke-width="1.3187" connectorname="3.3V"/>
   <circle id="connector38pad" cx="61.2" cy="54" r="2.0767" stroke-width="1.3187" connectorname="A2"/>
   <circle id="connector41pad" cx="39.6" cy="54" r="2.0767" stroke-width="1.3187" connectorname="GND"/>
   <circle id="connector36pad" cx="75.6" cy="54" r="2.0767" stroke-width="1.3187" connectorname="A4"/>
   <circle id="connector39pad" cx="54" cy="54" r="2.0767" stroke-width="1.3187" connectorname="A1"/>
   <circle id="connector34pad" cx="90" cy="54" r="2.0767" stroke-width="1.3187" connectorname="SCK"/>
   <circle id="connector37pad" cx="68.4" cy="54" r="2.0767" stroke-width="1.3187" connectorname="A3"/>
   <circle id="connector32pad" cx="104.4" cy="54" r="2.0767" stroke-width="1.3187" connectorname="MISO"/>
   <circle id="connector35pad" cx="82.8" cy="54" r="2.0767" stroke-width="1.3187" connectorname="A5"/>
   <circle id="connector30pad" cx="118.8" cy="54" r="2.0767" stroke-width="1.3187" connectorname="TX"/>
   <circle id="connector33pad" cx="97.2" cy="54" r="2.0767" stroke-width="1.3187" connectorname="MOSI"/>
   <circle id="connector28pad" cx="133.2" cy="46.8" r="1.9687" stroke-width="1.1027" connectorname="VIN+"/>
   <circle id="connector31pad" cx="111.6" cy="54" r="2.0767" stroke-width="1.3187" connectorname="RX"/>
   <circle id="connector26pad" cx="126" cy="10.8" r="2.0767" stroke-width="1.3187" connectorname="SDA"/>
   <circle id="connector29pad" cx="126" cy="54" r="2.0767" stroke-width="1.3187" connectorname="D4"/>
   <circle id="connector24pad" cx="111.6" cy="10.8" r="2.0767" stroke-width="1.3187" connectorname="D5"/>
   <circle id="connector27pad" cx="126" cy="46.8" r="1.9687" stroke-width="1.1027" connectorname="VIN-"/>
   <circle id="connector22pad" cx="97.2" cy="10.8" r="2.0767" stroke-width="1.3187" connectorname="D9"/>
   <circle id="connector25pad" cx="118.8" cy="10.8" r="2.0767" stroke-width="1.3187" connectorname="SCL"/>
   <circle id="connector20pad" cx="82.8" cy="10.8" r="2.0767" stroke-width="1.3187" connectorname="D11"/>
   <circle id="connector23pad" cx="104.4" cy="10.8" r="2.0767" stroke-width="1.3187" connectorname="D6"/>
   <circle id="connector18pad" cx="68.4" cy="10.8" r="2.0767" stroke-width="1.3187" connectorname="D13"/>
   <circle id="connector21pad" cx="90" cy="10.8" r="2.0767" stroke-width="1.3187" connectorname="D10"/>
   <circle id="connector16pad" cx="54" cy="10.8" r="2.0767" stroke-width="1.3187" connectorname="EN"/>
   <circle id="connector19pad" cx="75.6" cy="10.8" r="2.0767" stroke-width="1.3187" connectorname="D12"/>
   <circle id="connector14pad" cx="133.2" cy="37.219" r="2.2567" stroke-width="1.6787" connectorname="VIN+"/>
   <circle id="connector17pad" cx="61.2" cy="10.8" r="2.0767" stroke-width="1.3187" connectorname="USB"/>
   <circle id="connector15pad" cx="46.8" cy="10.8" r="2.0767" stroke-width="1.3187" connectorname="VBAT"/>
   <circle id="connector13pad" cx="133.2" cy="27.298" r="2.2567" stroke-width="1.6787" connectorname="VIN-"/>
  </g>
 </g>
</svg>
