<?xml version="1.0" encoding="UTF-8"?>
<!-- Created with Fritzing (http://www.fritzing.org/) -->
<svg width=".75in" height=".81669in" baseProfile="tiny" version="1.2" viewBox="0 0 54 58.802" xmlns="http://www.w3.org/2000/svg">
 <desc>
  <referenceFile>Adafruit Audio BFF PCB_pcb.svg</referenceFile>
 </desc>
 <desc>Fritzing footprint generated by brd2svg</desc>
 <g id="silkscreen">
  <path d="m51.931 7.4174v43.846a6.912 6.912 0 0 1-7.1232 7.1295h-35.616a6.912 6.912 0 0 1-7.1232-7.1295v-43.846a6.912 6.912 0 0 1 7.1232-7.1294h35.616a6.912 6.912 0 0 1 7.1232 7.1294" fill="none" stroke="#fff" stroke-width=".576"/>
  <g>
   <title>element:JP1</title>
   <g>
    <title>package:1X07_CASTEL</title>
   </g>
  </g>
  <g>
   <title>element:JP3</title>
   <g>
    <title>package:1X07_CASTEL</title>
   </g>
  </g>
  <g>
   <title>element:PLABEL12</title>
   <g>
    <title>package:PLABEL12</title>
   </g>
  </g>
  <g>
   <title>element:PLABEL13</title>
   <g>
    <title>package:PLABEL13</title>
   </g>
  </g>
  <g>
   <title>element:U$12</title>
   <g>
    <title>package:53398-0271</title>
    <line x1="19.525" x2="30.155" y1="1.4443" y2="1.4443" stroke="#fff" stroke-linecap="round" stroke-width=".576"/>
    <line x1="16.868" x2="16.868" y1="10.303" y2="13.846" stroke="#fff" stroke-linecap="round" stroke-width=".576"/>
    <line x1="16.868" x2="21.297" y1="13.846" y2="13.846" stroke="#fff" stroke-linecap="round" stroke-width=".576"/>
    <line x1="28.383" x2="32.812" y1="13.846" y2="13.846" stroke="#fff" stroke-linecap="round" stroke-width=".576"/>
    <line x1="32.812" x2="32.812" y1="13.846" y2="10.303" stroke="#fff" stroke-linecap="round" stroke-width=".576"/>
    <g>
     <title>polygon</title>
     <path d="m28.953 11.605h1.44l-0.72 1.08-0.72-1.08" fill="none" stroke="#fff" stroke-linecap="round" stroke-width=".36"/>
    </g>
   </g>
  </g>
  <g>
   <title>element:X1</title>
   <g>
    <title>package:MOLEX_104031-0811</title>
    <line x1="12.458" x2="9.703" y1="23.083" y2="23.083" stroke="#fff" stroke-linecap="round" stroke-width=".36"/>
    <line x1="9.703" x2="9.703" y1="23.083" y2="50.029" stroke="#fff" stroke-linecap="round" stroke-width=".36"/>
    <line x1="36.72" x2="43.577" y1="23.083" y2="23.083" stroke="#fff" stroke-linecap="round" stroke-width=".36"/>
    <line x1="43.577" x2="43.577" y1="23.083" y2="24.469" stroke="#fff" stroke-linecap="round" stroke-width=".36"/>
    <line x1="29.302" x2="19.8" y1="23.083" y2="23.083" stroke="#fff" stroke-linecap="round" stroke-width=".36"/>
    <line x1="43.577" x2="43.577" y1="29.177" y2="34.846" stroke="#fff" stroke-linecap="round" stroke-width=".36"/>
    <line x1="43.577" x2="43.577" y1="39.665" y2="51.429" stroke="#fff" stroke-linecap="round" stroke-width=".36"/>
    <circle cx="35.62" cy="58.518" r=".28346" fill="none" stroke="#fff" stroke-width=".56693"/>
   </g>
  </g>
  <line x1="52.2" x2="53.712" y1="54.852" y2="54.852" fill="none" stroke="#fff" stroke-width=".576"/>
  <line x1="52.2" x2="53.712" y1="3.8282" y2="3.8282" fill="none" stroke="#fff" stroke-width=".576"/>
  <line x1="53.712" x2="53.712" y1="54.852" y2="3.8282" fill="none" stroke="#fff" stroke-width=".576"/>
  <line x1=".288" x2="1.8" y1="54.852" y2="54.852" fill="none" stroke="#fff" stroke-width=".576"/>
  <line x1=".288" x2="1.8" y1="3.8282" y2="3.8282" fill="none" stroke="#fff" stroke-width=".576"/>
  <line x1=".288" x2=".288" y1="54.852" y2="3.8282" fill="none" stroke="#fff" stroke-width=".576"/>
  <line x1="7.9597" x2="45.32" y1="58.514" y2="58.514" fill="none" stroke="#fff" stroke-width=".576"/>
  <line x1="7.9597" x2="7.9597" y1="58.514" y2="58.68" fill="none" stroke="#fff" stroke-width=".576"/>
  <line x1="45.32" x2="45.32" y1="58.514" y2="58.68" fill="none" stroke="#fff" stroke-width=".576"/>
 </g>
 <g id="copper1">
  <g id="copper0">
   <g transform="matrix(0 1 -1 0 49.14 -10.26)">
    <rect id="connector16pad" x="28.85" y="18.59" width="1.7008" height="1.7008" fill="#F7BD13" stroke-width="0"/>
   </g>
   <g transform="matrix(0 -1 1 0 2.88 36)">
    <rect id="connector18pad" x="18.59" y="15.71" width="1.7008" height="1.7008" fill="#F7BD13" stroke-width="0"/>
   </g>
   <circle id="connector19pad" cx="48.6" cy="7.74" r="1.9687" fill="none" stroke="#F7BD13" stroke-width="1.1027" connectorname="SD_CS"/>
   <circle id="connector20pad" cx="52.353" cy="7.74" r="1.9687" fill="none" stroke="#F7BD13" stroke-width="1.1027" connectorname="SD_CS"/>
   <path d="m47.825 5.7713h9.0559v3.9373h-9.0559v-3.9373m2.5592 1.9687a1.9687 1.9687 0 1 0 3.9373 0 1.9687 1.9687 0 1 0-3.9373 0z" fill="#F7BD13" stroke-width="0"/>
   <circle id="connector21pad" cx="48.6" cy="14.94" r="1.9687" fill="none" stroke="#F7BD13" stroke-width="1.1027" connectorname="DIN"/>
   <circle id="connector22pad" cx="52.353" cy="14.94" r="1.9687" fill="none" stroke="#F7BD13" stroke-width="1.1027" connectorname="DIN"/>
   <path d="m47.825 12.971h9.0559v3.9373h-9.0559v-3.9373m2.5592 1.9687a1.9687 1.9687 0 1 0 3.9373 0 1.9687 1.9687 0 1 0-3.9373 0z" fill="#F7BD13" stroke-width="0"/>
   <circle id="connector23pad" cx="48.6" cy="22.14" r="1.9687" fill="none" stroke="#F7BD13" stroke-width="1.1027" connectorname="LRCLK"/>
   <circle id="connector24pad" cx="52.353" cy="22.14" r="1.9687" fill="none" stroke="#F7BD13" stroke-width="1.1027" connectorname="LRCLK"/>
   <path d="m47.825 20.171h9.0559v3.9373h-9.0559v-3.9373m2.5592 1.9687a1.9687 1.9687 0 1 0 3.9373 0 1.9687 1.9687 0 1 0-3.9373 0z" fill="#F7BD13" stroke-width="0"/>
   <circle id="connector25pad" cx="48.6" cy="29.34" r="1.9687" fill="none" stroke="#F7BD13" stroke-width="1.1027" connectorname="BCLK"/>
   <circle id="connector26pad" cx="52.353" cy="29.34" r="1.9687" fill="none" stroke="#F7BD13" stroke-width="1.1027" connectorname="BCLK"/>
   <path d="m47.825 27.371h9.0559v3.9373h-9.0559v-3.9373m2.5592 1.9687a1.9687 1.9687 0 1 0 3.9373 0 1.9687 1.9687 0 1 0-3.9373 0z" fill="#F7BD13" stroke-width="0"/>
   <circle id="connector27pad" cx="48.6" cy="36.54" r="1.9687" fill="none" stroke="#F7BD13" stroke-width="1.1027" connectorname="SDA"/>
   <circle id="connector28pad" cx="52.353" cy="36.54" r="1.9687" fill="none" stroke="#F7BD13" stroke-width="1.1027" connectorname="SDA"/>
   <path d="m47.825 34.571h9.0559v3.9373h-9.0559v-3.9373m2.5592 1.9687a1.9687 1.9687 0 1 0 3.9373 0 1.9687 1.9687 0 1 0-3.9373 0z" fill="#F7BD13" stroke-width="0"/>
   <circle id="connector29pad" cx="48.6" cy="43.74" r="1.9687" fill="none" stroke="#F7BD13" stroke-width="1.1027" connectorname="SCL"/>
   <circle id="connector30pad" cx="52.353" cy="43.74" r="1.9687" fill="none" stroke="#F7BD13" stroke-width="1.1027" connectorname="SCL"/>
   <path d="m47.825 41.771h9.0559v3.9373h-9.0559v-3.9373m2.5592 1.9687a1.9687 1.9687 0 1 0 3.9373 0 1.9687 1.9687 0 1 0-3.9373 0z" fill="#F7BD13" stroke-width="0"/>
   <circle id="connector31pad" cx="48.6" cy="50.94" r="1.9687" fill="none" stroke="#F7BD13" stroke-width="1.1027" connectorname="TX"/>
   <circle id="connector32pad" cx="52.353" cy="50.94" r="1.9687" fill="none" stroke="#F7BD13" stroke-width="1.1027" connectorname="TX"/>
   <path d="m47.825 48.971h9.0559v3.9373h-9.0559v-3.9373m2.5592 1.9687a1.9687 1.9687 0 1 0 3.9373 0 1.9687 1.9687 0 1 0-3.9373 0z" fill="#F7BD13" stroke-width="0"/>
   <circle id="connector33pad" cx="5.4" cy="50.94" r="1.9687" fill="none" stroke="#F7BD13" stroke-width="1.1027" connectorname="RX"/>
   <circle id="connector34pad" cx="1.647" cy="50.94" r="1.9687" fill="none" stroke="#F7BD13" stroke-width="1.1027" connectorname="RX"/>
   <path d="m-2.8809 48.971h9.0559v3.9373h-9.0559v-3.9373m2.5593 1.9687a1.9687 1.9687 0 1 0 3.9373 0 1.9687 1.9687 0 1 0-3.9373 0z" fill="#F7BD13" stroke-width="0"/>
   <circle id="connector35pad" cx="5.4" cy="43.74" r="1.9687" fill="none" stroke="#F7BD13" stroke-width="1.1027" connectorname="SCK"/>
   <circle id="connector36pad" cx="1.647" cy="43.74" r="1.9687" fill="none" stroke="#F7BD13" stroke-width="1.1027" connectorname="SCK"/>
   <path d="m-2.8809 41.771h9.0559v3.9373h-9.0559v-3.9373m2.5593 1.9687a1.9687 1.9687 0 1 0 3.9373 0 1.9687 1.9687 0 1 0-3.9373 0z" fill="#F7BD13" stroke-width="0"/>
   <circle id="connector37pad" cx="5.4" cy="36.54" r="1.9687" fill="none" stroke="#F7BD13" stroke-width="1.1027" connectorname="MISO"/>
   <circle id="connector38pad" cx="1.647" cy="36.54" r="1.9687" fill="none" stroke="#F7BD13" stroke-width="1.1027" connectorname="MISO"/>
   <path d="m-2.8809 34.571h9.0559v3.9373h-9.0559v-3.9373m2.5593 1.9687a1.9687 1.9687 0 1 0 3.9373 0 1.9687 1.9687 0 1 0-3.9373 0z" fill="#F7BD13" stroke-width="0"/>
   <circle id="connector39pad" cx="5.4" cy="29.34" r="1.9687" fill="none" stroke="#F7BD13" stroke-width="1.1027" connectorname="MOSI"/>
   <circle id="connector40pad" cx="1.647" cy="29.34" r="1.9687" fill="none" stroke="#F7BD13" stroke-width="1.1027" connectorname="MOSI"/>
   <path d="m-2.8809 27.371h9.0559v3.9373h-9.0559v-3.9373m2.5593 1.9687a1.9687 1.9687 0 1 0 3.9373 0 1.9687 1.9687 0 1 0-3.9373 0z" fill="#F7BD13" stroke-width="0"/>
   <circle id="connector41pad" cx="5.4" cy="22.14" r="1.9687" fill="none" stroke="#F7BD13" stroke-width="1.1027" connectorname="3.3V"/>
   <circle id="connector42pad" cx="1.647" cy="22.14" r="1.9687" fill="none" stroke="#F7BD13" stroke-width="1.1027" connectorname="3.3V"/>
   <path d="m-2.8809 20.171h9.0559v3.9373h-9.0559v-3.9373m2.5593 1.9687a1.9687 1.9687 0 1 0 3.9373 0 1.9687 1.9687 0 1 0-3.9373 0z" fill="#F7BD13" stroke-width="0"/>
   <circle id="connector43pad" cx="5.4" cy="14.94" r="1.9687" fill="none" stroke="#F7BD13" stroke-width="1.1027" connectorname="GND"/>
   <circle id="connector44pad" cx="1.647" cy="14.94" r="1.9687" fill="none" stroke="#F7BD13" stroke-width="1.1027" connectorname="GND"/>
   <path d="m-2.8809 12.971h9.0559v3.9373h-9.0559v-3.9373m2.5593 1.9687a1.9687 1.9687 0 1 0 3.9373 0 1.9687 1.9687 0 1 0-3.9373 0z" fill="#F7BD13" stroke-width="0"/>
   <circle id="connector45pad" cx="5.4" cy="7.74" r="1.9687" fill="none" stroke="#F7BD13" stroke-width="1.1027" connectorname="+5V"/>
   <circle id="connector46pad" cx="1.647" cy="7.74" r="1.9687" fill="none" stroke="#F7BD13" stroke-width="1.1027" connectorname="+5V"/>
   <path d="m-2.8809 5.7713h9.0559v3.9373h-9.0559v-3.9373m2.5593 1.9687a1.9687 1.9687 0 1 0 3.9373 0 1.9687 1.9687 0 1 0-3.9373 0z" fill="#F7BD13" stroke-width="0"/>
  </g>
 </g>
</svg>
