<?xml version="1.0" encoding="UTF-8"?>
<!-- Created with Fritzing (http://www.fritzing.org/) -->
<svg width="1.6in" height="1.23in" baseProfile="tiny" version="1.2" viewBox="0 0 115.2 88.56" xmlns="http://www.w3.org/2000/svg">
 <desc>
  <referenceFile>Adafruit PC Joystick seesaw Breakout_pcb.svg</referenceFile>
 </desc>
 <desc>Fritzing footprint generated by brd2svg</desc>
 <g id="silkscreen">
  <path d="m0.288 16.74h114.62v64.378a6.912 6.912 0 0 1-7.164 7.1532h-100.3a6.912 6.912 0 0 1-7.164-7.1532v-64.378m5.688 34.02a4.392 4.392 0 1 0 8.784 0 4.392 4.392 0 1 0-8.784 0zm94.464 0a4.392 4.392 0 1 0 8.784 0 4.392 4.392 0 1 0-8.784 0z" fill="none" stroke="#fff" stroke-width=".576"/>
  <g>
   <title>element:PLABEL8</title>
   <g>
    <title>package:PLABEL8</title>
   </g>
  </g>
  <g>
   <title>element:PLABEL9</title>
   <g>
    <title>package:PLABEL9</title>
   </g>
  </g>
  <g>
   <title>element:PLABEL10</title>
   <g>
    <title>package:PLABEL10</title>
   </g>
  </g>
  <g>
   <title>element:U$7</title>
   <g>
    <title>package:SEESAW_LOGO</title>
   </g>
  </g>
  <g>
   <title>element:X2</title>
   <g>
    <title>package:F15H</title>
    <line x1="24.12" x2="24.84" stroke="#fff" stroke-linecap="round" stroke-width=".432"/>
    <path d="m24.12 0a1.44 1.44 0 0 0-1.44 1.44" fill="none" stroke="#fff" stroke-width=".432"/>
    <path d="M92.16,1.44A1.44,1.44,0,0,0,90.72,0" fill="none" stroke="#fff" stroke-width=".432"/>
    <line x1="23.76" x2="91.08" y1="17.64" y2="17.64" stroke="#fff" stroke-linecap="round" stroke-width=".432"/>
    <line x1="1.8" x2="16.2" y1="29.16" y2="29.16" stroke="#fff" stroke-linecap="round" stroke-width=".432"/>
    <line x1="1.8" x2="1.8" y1="29.16" y2="20.52" stroke="#fff" stroke-linecap="round" stroke-width=".432"/>
    <line x1="1.8" x2="1.8" y1="29.16" y2="29.52" stroke="#fff" stroke-linecap="round" stroke-width=".432"/>
    <line x1="1.8" x2="1.8" y1="20.52" y2="19.08" stroke="#fff" stroke-linecap="round" stroke-width=".432"/>
    <line x1="1.8" x2="1.8" y1="19.08" y2="17.64" stroke="#fff" stroke-linecap="round" stroke-width=".432"/>
    <line x1="113.04" x2="113.04" y1="17.64" y2="19.08" stroke="#fff" stroke-linecap="round" stroke-width=".432"/>
    <line x1="113.04" x2="113.04" y1="19.08" y2="20.52" stroke="#fff" stroke-linecap="round" stroke-width=".432"/>
    <line x1="113.04" x2="113.04" y1="20.52" y2="29.16" stroke="#fff" stroke-linecap="round" stroke-width=".432"/>
    <line x1="113.04" x2="113.04" y1="29.16" y2="29.52" stroke="#fff" stroke-linecap="round" stroke-width=".432"/>
    <line x1="1.8" x2="9" y1="19.08" y2="19.08" stroke="#fff" stroke-linecap="round" stroke-width=".432"/>
    <line x1="9" x2="16.2" y1="19.08" y2="19.08" stroke="#fff" stroke-linecap="round" stroke-width=".432"/>
    <line x1="16.2" x2="16.2" y1="20.52" y2="19.08" stroke="#fff" stroke-linecap="round" stroke-width=".432"/>
    <line x1="16.2" x2="16.56" y1="20.52" y2="20.52" stroke="#fff" stroke-linecap="round" stroke-width=".432"/>
    <path d="m16.56 27.36a1.8 1.8 0 0 0 1.8 1.8" fill="none" stroke="#fff" stroke-width=".432"/>
    <line x1="16.2" x2="18.72" y1="29.16" y2="29.16" stroke="#fff" stroke-linecap="round" stroke-width=".432"/>
    <line x1="18.72" x2="19.44" y1="29.16" y2="29.16" stroke="#fff" stroke-linecap="round" stroke-width=".432"/>
    <line x1="16.56" x2="16.56" y1="27.36" y2="20.52" stroke="#fff" stroke-linecap="round" stroke-width=".432"/>
    <line x1="19.44" x2="19.44" y1="29.16" y2="31.32" stroke="#fff" stroke-linecap="round" stroke-width=".432"/>
    <line x1="19.44" x2="95.4" y1="29.16" y2="29.16" stroke="#fff" stroke-linecap="round" stroke-width=".432"/>
    <line x1="19.44" x2="95.4" y1="31.32" y2="31.32" stroke="#fff" stroke-linecap="round" stroke-width=".432"/>
    <line x1="95.4" x2="95.4" y1="29.16" y2="31.32" stroke="#fff" stroke-linecap="round" stroke-width=".432"/>
    <line x1="95.4" x2="96.12" y1="29.16" y2="29.16" stroke="#fff" stroke-linecap="round" stroke-width=".432"/>
    <line x1="96.12" x2="98.64" y1="29.16" y2="29.16" stroke="#fff" stroke-linecap="round" stroke-width=".432"/>
    <line x1="105.84" x2="113.04" y1="19.08" y2="19.08" stroke="#fff" stroke-linecap="round" stroke-width=".432"/>
    <line x1="16.2" x2="98.64" y1="19.08" y2="19.08" stroke="#fff" stroke-linecap="round" stroke-width=".432"/>
    <line x1="98.64" x2="105.84" y1="19.08" y2="19.08" stroke="#fff" stroke-linecap="round" stroke-width=".432"/>
    <line x1="98.64" x2="98.64" y1="20.52" y2="19.08" stroke="#fff" stroke-linecap="round" stroke-width=".432"/>
    <line x1="98.28" x2="98.28" y1="27.36" y2="20.52" stroke="#fff" stroke-linecap="round" stroke-width=".432"/>
    <line x1="98.28" x2="98.64" y1="20.52" y2="20.52" stroke="#fff" stroke-linecap="round" stroke-width=".432"/>
    <path d="m96.48 29.16a1.8 1.8 0 0 0 1.8-1.8" fill="none" stroke="#fff" stroke-width=".432"/>
    <line x1="3.6" x2="1.8" y1="59.76" y2="57.96" stroke="#fff" stroke-linecap="round" stroke-width=".432"/>
    <line x1="1.8" x2="1.8" y1="57.96" y2="29.52" stroke="#fff" stroke-linecap="round" stroke-width=".432"/>
    <line x1="17.28" x2="3.6" y1="59.76" y2="59.76" stroke="#fff" stroke-linecap="round" stroke-width=".432"/>
    <line x1="17.28" x2="18.72" y1="59.76" y2="58.32" stroke="#fff" stroke-linecap="round" stroke-width=".432"/>
    <line x1="18.72" x2="18.72" y1="58.32" y2="29.16" stroke="#fff" stroke-linecap="round" stroke-width=".432"/>
    <line x1="96.12" x2="96.12" y1="58.32" y2="29.16" stroke="#fff" stroke-linecap="round" stroke-width=".432"/>
    <line x1="96.12" x2="97.56" y1="58.32" y2="59.76" stroke="#fff" stroke-linecap="round" stroke-width=".432"/>
    <line x1="97.56" x2="111.6" y1="59.76" y2="59.76" stroke="#fff" stroke-linecap="round" stroke-width=".432"/>
    <line x1="111.6" x2="113.04" y1="59.76" y2="58.32" stroke="#fff" stroke-linecap="round" stroke-width=".432"/>
    <line x1="113.04" x2="113.04" y1="58.32" y2="29.52" stroke="#fff" stroke-linecap="round" stroke-width=".432"/>
    <line x1="98.64" x2="113.04" y1="29.16" y2="29.16" stroke="#fff" stroke-linecap="round" stroke-width=".432"/>
    <line x1="1.8" x2="23.76" y1="17.64" y2="17.64" stroke="#fff" stroke-linecap="round" stroke-width=".432"/>
    <line x1="22.68" x2="22.68" y1="15.84" y2="1.44" stroke="#fff" stroke-linecap="round" stroke-width=".432"/>
    <path d="m20.88 17.64a1.8 1.8 0 0 0 1.8-1.8" fill="none" stroke="#fff" stroke-width=".432"/>
    <line x1="91.08" x2="113.04" y1="17.64" y2="17.64" stroke="#fff" stroke-linecap="round" stroke-width=".432"/>
    <line x1="92.16" x2="92.16" y1="15.84" y2="1.44" stroke="#fff" stroke-linecap="round" stroke-width=".432"/>
    <path d="m92.16 15.84a1.8 1.8 0 0 0 1.8 1.8" fill="none" stroke="#fff" stroke-width=".432"/>
    <line x1="24.84" x2="90" stroke="#fff" stroke-linecap="round" stroke-width=".432"/>
    <line x1="90" x2="90.72" stroke="#fff" stroke-linecap="round" stroke-width=".432"/>
    <circle cx="10.368" cy="50.76" r="4.68" fill="none" stroke="#fff" stroke-width=".432"/>
    <circle cx="104.83" cy="50.76" r="4.68" fill="none" stroke="#fff" stroke-width=".432"/>
    <rect x="19.44" y="31.32" width="75.96" height="2.16" fill="#fff" stroke-width="0"/>
    <rect x="1.8" y="19.08" width="111.24" height="1.44" fill="#fff" stroke-width="0"/>
    <rect x="29.232" y="51.84" width="2.304" height="20.52" fill="#fff" stroke-width="0"/>
    <rect x="33.12" y="44.64" width="2.304" height="13.32" fill="#fff" stroke-width="0"/>
    <rect x="37.008" y="51.84" width="2.304" height="20.52" fill="#fff" stroke-width="0"/>
    <rect x="40.896" y="44.64" width="2.304" height="13.32" fill="#fff" stroke-width="0"/>
    <rect x="44.784" y="51.84" width="2.304" height="20.52" fill="#fff" stroke-width="0"/>
    <rect x="48.672" y="44.64" width="2.304" height="13.32" fill="#fff" stroke-width="0"/>
    <rect x="52.56" y="51.84" width="2.304" height="20.52" fill="#fff" stroke-width="0"/>
    <rect x="56.448" y="44.64" width="2.304" height="13.32" fill="#fff" stroke-width="0"/>
    <rect x="60.336" y="51.84" width="2.304" height="20.52" fill="#fff" stroke-width="0"/>
    <rect x="64.224" y="44.64" width="2.304" height="13.32" fill="#fff" stroke-width="0"/>
    <rect x="68.112" y="51.84" width="2.304" height="20.52" fill="#fff" stroke-width="0"/>
    <rect x="72" y="44.64" width="2.304" height="13.32" fill="#fff" stroke-width="0"/>
    <rect x="75.888" y="51.84" width="2.304" height="20.52" fill="#fff" stroke-width="0"/>
    <rect x="79.776" y="44.64" width="2.304" height="13.32" fill="#fff" stroke-width="0"/>
    <rect x="83.664" y="51.84" width="2.304" height="20.52" fill="#fff" stroke-width="0"/>
   </g>
  </g>
  <line x1="1.8" x2="113.04" y1=".288" y2=".288" fill="none" stroke="#fff" stroke-width=".576"/>
  <line x1="1.8" x2="1.8" y1="16.56" y2=".288" fill="none" stroke="#fff" stroke-width=".576"/>
  <line x1="113.04" x2="113.04" y1="16.56" y2=".288" fill="none" stroke="#fff" stroke-width=".576"/>
 </g>
 <g id="copper1">
  <g id="copper0">
   <circle id="connector86pad" cx="30.384" cy="54.36" r="1.98" fill="none" stroke="#F7BD13" stroke-width="1.08" connectorname="5.0V"/>
   <circle id="connector94pad" cx="34.272" cy="47.16" r="1.98" fill="none" stroke="#F7BD13" stroke-width="1.08" connectorname="5.0V"/>
   <rect id="connector15pad" x="12.13" y="65.458" width="4.3937" height="1.7008" fill="#F7BD13" stroke-width="0"/>
   <circle id="connector90pad" cx="61.488" cy="54.36" r="1.98" fill="none" stroke="#F7BD13" stroke-width="1.08" connectorname="GND"/>
   <rect id="connector16pad" x="12.13" y="68.292" width="4.3937" height="1.7008" fill="#F7BD13" stroke-width="0"/>
   <circle id="connector98pad" cx="65.376" cy="47.16" r="1.98" fill="none" stroke="#F7BD13" stroke-width="1.08" connectorname="JOY2_Y"/>
   <rect id="connector17pad" x="12.13" y="71.127" width="4.3937" height="1.7008" fill="#F7BD13" stroke-width="0"/>
   <rect id="connector18pad" x="12.13" y="73.961" width="4.3937" height="1.7008" fill="#F7BD13" stroke-width="0"/>
   <circle id="connector64pad" cx="90" cy="81.36" r="4.0833" fill="none" stroke="#F7BD13" stroke-width="1.08" connectorname="P$1"/>
   <g transform="matrix(-1 0 0 -1 201.75 149.62)">
    <rect id="connector21pad" x="98.677" y="73.961" width="4.3937" height="1.7008" fill="#F7BD13" stroke-width="0"/>
   </g>
   <g transform="matrix(-1 0 0 -1 201.75 143.96)">
    <rect id="connector22pad" x="98.677" y="71.127" width="4.3937" height="1.7008" fill="#F7BD13" stroke-width="0"/>
   </g>
   <g transform="matrix(-1 0 0 -1 201.75 138.28)">
    <rect id="connector23pad" x="98.677" y="68.292" width="4.3937" height="1.7008" fill="#F7BD13" stroke-width="0"/>
   </g>
   <g transform="matrix(-1 0 0 -1 201.75 132.62)">
    <rect id="connector24pad" x="98.677" y="65.458" width="4.3937" height="1.7008" fill="#F7BD13" stroke-width="0"/>
   </g>
   <circle id="connector88pad" cx="45.936" cy="54.36" r="1.98" fill="none" stroke="#F7BD13" stroke-width="1.08" connectorname="JOY1_X"/>
   <circle id="connector92pad" cx="77.04" cy="54.36" r="1.98" fill="none" stroke="#F7BD13" stroke-width="1.08" connectorname="BUTTON2"/>
   <circle id="connector96pad" cx="49.824" cy="47.16" r="1.98" fill="none" stroke="#F7BD13" stroke-width="1.08" connectorname="JOY2_X"/>
   <circle id="connector100pad" cx="80.928" cy="47.16" r="1.98" fill="none" stroke="#F7BD13" stroke-width="1.08" connectorname="5.0V"/>
   <circle id="connector63pad" cx="25.2" cy="81.36" r="4.0833" fill="none" stroke="#F7BD13" stroke-width="1.08" connectorname="P$1"/>
   <circle id="connector39pad" cx="39.6" cy="81.36" r="1.9687" fill="none" stroke="#F7BD13" stroke-width="1.1027" connectorname="VIN"/>
   <circle id="connector40pad" cx="46.8" cy="81.36" r="1.9687" fill="none" stroke="#F7BD13" stroke-width="1.1027" connectorname="GND"/>
   <circle id="connector41pad" cx="54" cy="81.36" r="1.9687" fill="none" stroke="#F7BD13" stroke-width="1.1027" connectorname="SCL"/>
   <circle id="connector42pad" cx="61.2" cy="81.36" r="1.9687" fill="none" stroke="#F7BD13" stroke-width="1.1027" connectorname="SDA"/>
   <circle id="connector43pad" cx="68.4" cy="81.36" r="1.9687" fill="none" stroke="#F7BD13" stroke-width="1.1027" connectorname="IRQ"/>
   <circle id="connector44pad" cx="75.6" cy="81.36" r="1.9687" fill="none" stroke="#F7BD13" stroke-width="1.1027" connectorname="UPDI"/>
   <circle id="connector87pad" cx="38.16" cy="54.36" r="1.98" fill="none" stroke="#F7BD13" stroke-width="1.08" connectorname="BUTTON1"/>
   <circle id="connector89pad" cx="53.712" cy="54.36" r="1.98" fill="none" stroke="#F7BD13" stroke-width="1.08" connectorname="GND"/>
   <circle id="connector91pad" cx="69.264" cy="54.36" r="1.98" fill="none" stroke="#F7BD13" stroke-width="1.08" connectorname="JOY1_Y"/>
   <circle id="connector93pad" cx="84.816" cy="54.36" r="1.98" fill="none" stroke="#F7BD13" stroke-width="1.08" connectorname="5.0V"/>
   <circle id="connector95pad" cx="42.048" cy="47.16" r="1.98" fill="none" stroke="#F7BD13" stroke-width="1.08" connectorname="BUTTON3"/>
   <circle id="connector97pad" cx="57.6" cy="47.16" r="1.98" fill="none" stroke="#F7BD13" stroke-width="1.08" connectorname="GND"/>
   <circle id="connector99pad" cx="73.152" cy="47.16" r="1.98" fill="none" stroke="#F7BD13" stroke-width="1.08" connectorname="BUTTON4"/>
  </g>
 </g>
</svg>
