<?xml version="1.0" encoding="UTF-8"?>
<!-- Created with Fritzing (http://www.fritzing.org/) -->
<svg width="2.45in" height="1in" baseProfile="tiny" version="1.2" viewBox="0 0 176.4 72" xmlns="http://www.w3.org/2000/svg">
 <desc>
  <referenceFile>PCA9685 rev C_pcb.svg</referenceFile>
 </desc>
 <desc>Fritzing footprint generated by brd2svg</desc>
 <g id="silkscreen">
  <path d="m9.2586 71.712a8.712 8.712 0 0 1-8.9706-8.928v-53.568a8.712 8.712 0 0 1 8.9706-8.928h157.88a8.712 8.712 0 0 1 8.97 8.928v53.568a8.712 8.712 0 0 1-8.97 8.928h-157.88" fill="none" stroke="#fff" stroke-width=".576"/>
  <g>
   <title>element:C2</title>
   <g>
    <title>package:E3,5-8</title>
    <line x1="43.2" x2="41.04" y1="15.12" y2="15.12" stroke="#fff" stroke-linecap="round" stroke-width=".432"/>
    <line x1="42.12" x2="42.12" y1="14.04" y2="16.2" stroke="#fff" stroke-linecap="round" stroke-width=".432"/>
    <circle cx="33.48" cy="11.88" r="11.52" fill="none" stroke="#fff" stroke-width=".432"/>
   </g>
  </g>
  <g>
   <title>element:J1</title>
   <g>
    <title>package:TERMBLOCK_1X2-3.5MM</title>
    <line x1="97.838" x2="97.838" y1="20.438" y2="4.5638" stroke="#fff" stroke-linecap="round" stroke-width=".576"/>
    <line x1="97.838" x2="97.838" y1="4.5638" y2=".59528" stroke="#fff" stroke-linecap="round" stroke-width=".576"/>
    <line x1="97.838" x2="77.995" y1=".59528" y2=".59528" stroke="#fff" stroke-linecap="round" stroke-width=".576"/>
    <line x1="77.995" x2="77.995" y1=".59528" y2="4.5638" stroke="#fff" stroke-linecap="round" stroke-width=".576"/>
    <line x1="77.995" x2="77.995" y1="4.5638" y2="20.438" stroke="#fff" stroke-linecap="round" stroke-width=".576"/>
    <line x1="77.995" x2="97.838" y1="20.438" y2="20.438" stroke="#fff" stroke-linecap="round" stroke-width=".576"/>
    <line x1="97.838" x2="77.995" y1="4.5638" y2="4.5638" stroke="#fff" stroke-linecap="round" stroke-width=".576"/>
   </g>
  </g>
  <g>
   <title>element:JP1</title>
   <g>
    <title>package:3X04</title>
    <line x1="81" x2="79.2" y1="51.84" y2="50.04" stroke="#fff" stroke-linecap="round" stroke-width=".576"/>
    <line x1="75.6" x2="73.8" y1="50.04" y2="51.84" stroke="#fff" stroke-linecap="round" stroke-width=".576"/>
    <line x1="73.8" x2="72" y1="51.84" y2="50.04" stroke="#fff" stroke-linecap="round" stroke-width=".576"/>
    <line x1="68.4" x2="66.6" y1="50.04" y2="51.84" stroke="#fff" stroke-linecap="round" stroke-width=".576"/>
    <line x1="66.6" x2="64.8" y1="51.84" y2="50.04" stroke="#fff" stroke-linecap="round" stroke-width=".576"/>
    <line x1="61.2" x2="59.4" y1="50.04" y2="51.84" stroke="#fff" stroke-linecap="round" stroke-width=".576"/>
    <line x1="59.4" x2="57.6" y1="51.84" y2="50.04" stroke="#fff" stroke-linecap="round" stroke-width=".576"/>
    <line x1="54" x2="52.2" y1="50.04" y2="51.84" stroke="#fff" stroke-linecap="round" stroke-width=".576"/>
    <line x1="81" x2="81" y1="51.84" y2="69.84" stroke="#fff" stroke-linecap="round" stroke-width=".576"/>
    <line x1="81" x2="79.2" y1="69.84" y2="71.64" stroke="#fff" stroke-linecap="round" stroke-width=".576"/>
    <line x1="79.2" x2="75.6" y1="71.64" y2="71.64" stroke="#fff" stroke-linecap="round" stroke-width=".576"/>
    <line x1="75.6" x2="73.8" y1="71.64" y2="69.84" stroke="#fff" stroke-linecap="round" stroke-width=".576"/>
    <line x1="73.8" x2="72" y1="69.84" y2="71.64" stroke="#fff" stroke-linecap="round" stroke-width=".576"/>
    <line x1="72" x2="68.4" y1="71.64" y2="71.64" stroke="#fff" stroke-linecap="round" stroke-width=".576"/>
    <line x1="68.4" x2="66.6" y1="71.64" y2="69.84" stroke="#fff" stroke-linecap="round" stroke-width=".576"/>
    <line x1="66.6" x2="64.8" y1="69.84" y2="71.64" stroke="#fff" stroke-linecap="round" stroke-width=".576"/>
    <line x1="64.8" x2="61.2" y1="71.64" y2="71.64" stroke="#fff" stroke-linecap="round" stroke-width=".576"/>
    <line x1="61.2" x2="59.4" y1="71.64" y2="69.84" stroke="#fff" stroke-linecap="round" stroke-width=".576"/>
    <line x1="59.4" x2="57.6" y1="69.84" y2="71.64" stroke="#fff" stroke-linecap="round" stroke-width=".576"/>
    <line x1="57.6" x2="54" y1="71.64" y2="71.64" stroke="#fff" stroke-linecap="round" stroke-width=".576"/>
    <line x1="54" x2="52.2" y1="71.64" y2="69.84" stroke="#fff" stroke-linecap="round" stroke-width=".576"/>
    <line x1="73.8" x2="73.8" y1="69.84" y2="51.84" stroke="#fff" stroke-linecap="round" stroke-width=".576"/>
    <line x1="66.6" x2="66.6" y1="69.84" y2="51.84" stroke="#fff" stroke-linecap="round" stroke-width=".576"/>
    <line x1="59.4" x2="59.4" y1="69.84" y2="51.84" stroke="#fff" stroke-linecap="round" stroke-width=".576"/>
    <line x1="52.2" x2="52.2" y1="69.84" y2="51.84" stroke="#fff" stroke-linecap="round" stroke-width=".576"/>
    <line x1="57.6" x2="54" y1="50.04" y2="50.04" stroke="#fff" stroke-linecap="round" stroke-width=".576"/>
    <line x1="64.8" x2="61.2" y1="50.04" y2="50.04" stroke="#fff" stroke-linecap="round" stroke-width=".576"/>
    <line x1="72" x2="68.4" y1="50.04" y2="50.04" stroke="#fff" stroke-linecap="round" stroke-width=".576"/>
    <line x1="79.2" x2="75.6" y1="50.04" y2="50.04" stroke="#fff" stroke-linecap="round" stroke-width=".576"/>
   </g>
  </g>
  <g>
   <title>element:JP2</title>
   <g>
    <title>package:3X04</title>
    <line x1="45" x2="43.2" y1="51.84" y2="50.04" stroke="#fff" stroke-linecap="round" stroke-width=".576"/>
    <line x1="39.6" x2="37.8" y1="50.04" y2="51.84" stroke="#fff" stroke-linecap="round" stroke-width=".576"/>
    <line x1="37.8" x2="36" y1="51.84" y2="50.04" stroke="#fff" stroke-linecap="round" stroke-width=".576"/>
    <line x1="32.4" x2="30.6" y1="50.04" y2="51.84" stroke="#fff" stroke-linecap="round" stroke-width=".576"/>
    <line x1="30.6" x2="28.8" y1="51.84" y2="50.04" stroke="#fff" stroke-linecap="round" stroke-width=".576"/>
    <line x1="25.2" x2="23.4" y1="50.04" y2="51.84" stroke="#fff" stroke-linecap="round" stroke-width=".576"/>
    <line x1="23.4" x2="21.6" y1="51.84" y2="50.04" stroke="#fff" stroke-linecap="round" stroke-width=".576"/>
    <line x1="18" x2="16.2" y1="50.04" y2="51.84" stroke="#fff" stroke-linecap="round" stroke-width=".576"/>
    <line x1="45" x2="45" y1="51.84" y2="69.84" stroke="#fff" stroke-linecap="round" stroke-width=".576"/>
    <line x1="45" x2="43.2" y1="69.84" y2="71.64" stroke="#fff" stroke-linecap="round" stroke-width=".576"/>
    <line x1="43.2" x2="39.6" y1="71.64" y2="71.64" stroke="#fff" stroke-linecap="round" stroke-width=".576"/>
    <line x1="39.6" x2="37.8" y1="71.64" y2="69.84" stroke="#fff" stroke-linecap="round" stroke-width=".576"/>
    <line x1="37.8" x2="36" y1="69.84" y2="71.64" stroke="#fff" stroke-linecap="round" stroke-width=".576"/>
    <line x1="36" x2="32.4" y1="71.64" y2="71.64" stroke="#fff" stroke-linecap="round" stroke-width=".576"/>
    <line x1="32.4" x2="30.6" y1="71.64" y2="69.84" stroke="#fff" stroke-linecap="round" stroke-width=".576"/>
    <line x1="30.6" x2="28.8" y1="69.84" y2="71.64" stroke="#fff" stroke-linecap="round" stroke-width=".576"/>
    <line x1="28.8" x2="25.2" y1="71.64" y2="71.64" stroke="#fff" stroke-linecap="round" stroke-width=".576"/>
    <line x1="25.2" x2="23.4" y1="71.64" y2="69.84" stroke="#fff" stroke-linecap="round" stroke-width=".576"/>
    <line x1="23.4" x2="21.6" y1="69.84" y2="71.64" stroke="#fff" stroke-linecap="round" stroke-width=".576"/>
    <line x1="21.6" x2="18" y1="71.64" y2="71.64" stroke="#fff" stroke-linecap="round" stroke-width=".576"/>
    <line x1="18" x2="16.2" y1="71.64" y2="69.84" stroke="#fff" stroke-linecap="round" stroke-width=".576"/>
    <line x1="37.8" x2="37.8" y1="69.84" y2="51.84" stroke="#fff" stroke-linecap="round" stroke-width=".576"/>
    <line x1="30.6" x2="30.6" y1="69.84" y2="51.84" stroke="#fff" stroke-linecap="round" stroke-width=".576"/>
    <line x1="23.4" x2="23.4" y1="69.84" y2="51.84" stroke="#fff" stroke-linecap="round" stroke-width=".576"/>
    <line x1="16.2" x2="16.2" y1="69.84" y2="51.84" stroke="#fff" stroke-linecap="round" stroke-width=".576"/>
    <line x1="21.6" x2="18" y1="50.04" y2="50.04" stroke="#fff" stroke-linecap="round" stroke-width=".576"/>
    <line x1="28.8" x2="25.2" y1="50.04" y2="50.04" stroke="#fff" stroke-linecap="round" stroke-width=".576"/>
    <line x1="36" x2="32.4" y1="50.04" y2="50.04" stroke="#fff" stroke-linecap="round" stroke-width=".576"/>
    <line x1="43.2" x2="39.6" y1="50.04" y2="50.04" stroke="#fff" stroke-linecap="round" stroke-width=".576"/>
   </g>
  </g>
  <g>
   <title>element:JP3</title>
   <g>
    <title>package:1X06-CLEANBIG</title>
   </g>
  </g>
  <g>
   <title>element:JP4</title>
   <g>
    <title>package:1X06-CLEANBIG</title>
   </g>
  </g>
  <g>
   <title>element:JP5</title>
   <g>
    <title>package:3X04</title>
    <line x1="160.2" x2="158.4" y1="51.84" y2="50.04" stroke="#fff" stroke-linecap="round" stroke-width=".576"/>
    <line x1="154.8" x2="153" y1="50.04" y2="51.84" stroke="#fff" stroke-linecap="round" stroke-width=".576"/>
    <line x1="153" x2="151.2" y1="51.84" y2="50.04" stroke="#fff" stroke-linecap="round" stroke-width=".576"/>
    <line x1="147.6" x2="145.8" y1="50.04" y2="51.84" stroke="#fff" stroke-linecap="round" stroke-width=".576"/>
    <line x1="145.8" x2="144" y1="51.84" y2="50.04" stroke="#fff" stroke-linecap="round" stroke-width=".576"/>
    <line x1="140.4" x2="138.6" y1="50.04" y2="51.84" stroke="#fff" stroke-linecap="round" stroke-width=".576"/>
    <line x1="138.6" x2="136.8" y1="51.84" y2="50.04" stroke="#fff" stroke-linecap="round" stroke-width=".576"/>
    <line x1="133.2" x2="131.4" y1="50.04" y2="51.84" stroke="#fff" stroke-linecap="round" stroke-width=".576"/>
    <line x1="160.2" x2="160.2" y1="51.84" y2="69.84" stroke="#fff" stroke-linecap="round" stroke-width=".576"/>
    <line x1="160.2" x2="158.4" y1="69.84" y2="71.64" stroke="#fff" stroke-linecap="round" stroke-width=".576"/>
    <line x1="158.4" x2="154.8" y1="71.64" y2="71.64" stroke="#fff" stroke-linecap="round" stroke-width=".576"/>
    <line x1="154.8" x2="153" y1="71.64" y2="69.84" stroke="#fff" stroke-linecap="round" stroke-width=".576"/>
    <line x1="153" x2="151.2" y1="69.84" y2="71.64" stroke="#fff" stroke-linecap="round" stroke-width=".576"/>
    <line x1="151.2" x2="147.6" y1="71.64" y2="71.64" stroke="#fff" stroke-linecap="round" stroke-width=".576"/>
    <line x1="147.6" x2="145.8" y1="71.64" y2="69.84" stroke="#fff" stroke-linecap="round" stroke-width=".576"/>
    <line x1="145.8" x2="144" y1="69.84" y2="71.64" stroke="#fff" stroke-linecap="round" stroke-width=".576"/>
    <line x1="144" x2="140.4" y1="71.64" y2="71.64" stroke="#fff" stroke-linecap="round" stroke-width=".576"/>
    <line x1="140.4" x2="138.6" y1="71.64" y2="69.84" stroke="#fff" stroke-linecap="round" stroke-width=".576"/>
    <line x1="138.6" x2="136.8" y1="69.84" y2="71.64" stroke="#fff" stroke-linecap="round" stroke-width=".576"/>
    <line x1="136.8" x2="133.2" y1="71.64" y2="71.64" stroke="#fff" stroke-linecap="round" stroke-width=".576"/>
    <line x1="133.2" x2="131.4" y1="71.64" y2="69.84" stroke="#fff" stroke-linecap="round" stroke-width=".576"/>
    <line x1="153" x2="153" y1="69.84" y2="51.84" stroke="#fff" stroke-linecap="round" stroke-width=".576"/>
    <line x1="145.8" x2="145.8" y1="69.84" y2="51.84" stroke="#fff" stroke-linecap="round" stroke-width=".576"/>
    <line x1="138.6" x2="138.6" y1="69.84" y2="51.84" stroke="#fff" stroke-linecap="round" stroke-width=".576"/>
    <line x1="131.4" x2="131.4" y1="69.84" y2="51.84" stroke="#fff" stroke-linecap="round" stroke-width=".576"/>
    <line x1="136.8" x2="133.2" y1="50.04" y2="50.04" stroke="#fff" stroke-linecap="round" stroke-width=".576"/>
    <line x1="144" x2="140.4" y1="50.04" y2="50.04" stroke="#fff" stroke-linecap="round" stroke-width=".576"/>
    <line x1="151.2" x2="147.6" y1="50.04" y2="50.04" stroke="#fff" stroke-linecap="round" stroke-width=".576"/>
    <line x1="158.4" x2="154.8" y1="50.04" y2="50.04" stroke="#fff" stroke-linecap="round" stroke-width=".576"/>
   </g>
  </g>
  <g>
   <title>element:JP6</title>
   <g>
    <title>package:3X04</title>
    <line x1="124.2" x2="122.4" y1="51.84" y2="50.04" stroke="#fff" stroke-linecap="round" stroke-width=".576"/>
    <line x1="118.8" x2="117" y1="50.04" y2="51.84" stroke="#fff" stroke-linecap="round" stroke-width=".576"/>
    <line x1="117" x2="115.2" y1="51.84" y2="50.04" stroke="#fff" stroke-linecap="round" stroke-width=".576"/>
    <line x1="111.6" x2="109.8" y1="50.04" y2="51.84" stroke="#fff" stroke-linecap="round" stroke-width=".576"/>
    <line x1="109.8" x2="108" y1="51.84" y2="50.04" stroke="#fff" stroke-linecap="round" stroke-width=".576"/>
    <line x1="104.4" x2="102.6" y1="50.04" y2="51.84" stroke="#fff" stroke-linecap="round" stroke-width=".576"/>
    <line x1="102.6" x2="100.8" y1="51.84" y2="50.04" stroke="#fff" stroke-linecap="round" stroke-width=".576"/>
    <line x1="97.2" x2="95.4" y1="50.04" y2="51.84" stroke="#fff" stroke-linecap="round" stroke-width=".576"/>
    <line x1="124.2" x2="124.2" y1="51.84" y2="69.84" stroke="#fff" stroke-linecap="round" stroke-width=".576"/>
    <line x1="124.2" x2="122.4" y1="69.84" y2="71.64" stroke="#fff" stroke-linecap="round" stroke-width=".576"/>
    <line x1="122.4" x2="118.8" y1="71.64" y2="71.64" stroke="#fff" stroke-linecap="round" stroke-width=".576"/>
    <line x1="118.8" x2="117" y1="71.64" y2="69.84" stroke="#fff" stroke-linecap="round" stroke-width=".576"/>
    <line x1="117" x2="115.2" y1="69.84" y2="71.64" stroke="#fff" stroke-linecap="round" stroke-width=".576"/>
    <line x1="115.2" x2="111.6" y1="71.64" y2="71.64" stroke="#fff" stroke-linecap="round" stroke-width=".576"/>
    <line x1="111.6" x2="109.8" y1="71.64" y2="69.84" stroke="#fff" stroke-linecap="round" stroke-width=".576"/>
    <line x1="109.8" x2="108" y1="69.84" y2="71.64" stroke="#fff" stroke-linecap="round" stroke-width=".576"/>
    <line x1="108" x2="104.4" y1="71.64" y2="71.64" stroke="#fff" stroke-linecap="round" stroke-width=".576"/>
    <line x1="104.4" x2="102.6" y1="71.64" y2="69.84" stroke="#fff" stroke-linecap="round" stroke-width=".576"/>
    <line x1="102.6" x2="100.8" y1="69.84" y2="71.64" stroke="#fff" stroke-linecap="round" stroke-width=".576"/>
    <line x1="100.8" x2="97.2" y1="71.64" y2="71.64" stroke="#fff" stroke-linecap="round" stroke-width=".576"/>
    <line x1="97.2" x2="95.4" y1="71.64" y2="69.84" stroke="#fff" stroke-linecap="round" stroke-width=".576"/>
    <line x1="117" x2="117" y1="69.84" y2="51.84" stroke="#fff" stroke-linecap="round" stroke-width=".576"/>
    <line x1="109.8" x2="109.8" y1="69.84" y2="51.84" stroke="#fff" stroke-linecap="round" stroke-width=".576"/>
    <line x1="102.6" x2="102.6" y1="69.84" y2="51.84" stroke="#fff" stroke-linecap="round" stroke-width=".576"/>
    <line x1="95.4" x2="95.4" y1="69.84" y2="51.84" stroke="#fff" stroke-linecap="round" stroke-width=".576"/>
    <line x1="100.8" x2="97.2" y1="50.04" y2="50.04" stroke="#fff" stroke-linecap="round" stroke-width=".576"/>
    <line x1="108" x2="104.4" y1="50.04" y2="50.04" stroke="#fff" stroke-linecap="round" stroke-width=".576"/>
    <line x1="115.2" x2="111.6" y1="50.04" y2="50.04" stroke="#fff" stroke-linecap="round" stroke-width=".576"/>
    <line x1="122.4" x2="118.8" y1="50.04" y2="50.04" stroke="#fff" stroke-linecap="round" stroke-width=".576"/>
   </g>
  </g>
  <g>
   <title>element:Q1</title>
   <g>
    <title>package:TO252</title>
    <line x1="68.869" x2="51.877" y1="19.904" y2="19.905" stroke="#fff" stroke-linecap="round" stroke-width=".576"/>
    <line x1="51.877" x2="51.877" y1="19.905" y2="1.3266" stroke="#fff" stroke-linecap="round" stroke-width=".576"/>
    <line x1="51.877" x2="68.869" y1="1.3266" y2="1.3277" stroke="#fff" stroke-linecap="round" stroke-width=".576"/>
   </g>
  </g>
  <g>
   <title>element:U$47</title>
   <g>
    <title>package:MOUNTINGHOLE_2.5_PLATED</title>
    <circle cx="9" cy="9" r="5.6693" fill="none" stroke="#fff" stroke-width=".576"/>
   </g>
  </g>
  <g>
   <title>element:U$48</title>
   <g>
    <title>package:MOUNTINGHOLE_2.5_PLATED</title>
    <circle cx="9" cy="63" r="5.6693" fill="none" stroke="#fff" stroke-width=".576"/>
   </g>
  </g>
  <g>
   <title>element:U$49</title>
   <g>
    <title>package:MOUNTINGHOLE_2.5_PLATED</title>
    <circle cx="167.4" cy="9" r="5.6693" fill="none" stroke="#fff" stroke-width=".576"/>
   </g>
  </g>
  <g>
   <title>element:U$50</title>
   <g>
    <title>package:MOUNTINGHOLE_2.5_PLATED</title>
    <circle cx="167.4" cy="63" r="5.6693" fill="none" stroke="#fff" stroke-width=".576"/>
   </g>
  </g>
  <g>
   <title>element:U1</title>
   <g>
    <title>package:TSSOP28</title>
    <line x1="94.671" x2="81.729" y1="47.936" y2="47.936" stroke="#fff" stroke-linecap="round" stroke-width=".576"/>
    <line x1="81.729" x2="94.671" y1="22.624" y2="22.624" stroke="#fff" stroke-linecap="round" stroke-width=".576"/>
    <circle cx="84.744" cy="25.144" r="1.296" fill="none" stroke="#fff" stroke-width=".576"/>
   </g>
  </g>
 </g>
 <g id="copper1">
  <g id="copper0" fill="none" stroke="#F7BD13">
   <circle id="connector7pad" cx="38.52" cy="11.88" r="1.71" stroke-width="1.116" connectorname="5.0V"/>
   <circle id="connector8pad" cx="28.44" cy="11.88" r="1.71" stroke-width="1.116" connectorname="GND"/>
   <circle id="connector11pad" cx="83.097" cy="10.8" r="2.2567" stroke-width="1.6787" connectorname="PWRIN"/>
   <circle id="connector12pad" cx="93.019" cy="10.8" r="2.2567" stroke-width="1.6787" connectorname="GND"/>
   <circle id="connector13pad" cx="77.4" cy="53.64" r="1.9687" stroke-width="1.1027" connectorname="PWM7"/>
   <circle id="connector142pad" cx="9" cy="9" r="4.2633" stroke-width="1.44" connectorname="P$1"/>
   <circle id="connector14pad" cx="77.4" cy="60.84" r="1.9687" stroke-width="1.1027" connectorname="5.0V"/>
   <circle id="connector15pad" cx="77.4" cy="68.04" r="1.9687" stroke-width="1.1027" connectorname="GND"/>
   <circle id="connector16pad" cx="70.2" cy="53.64" r="1.9687" stroke-width="1.1027" connectorname="PWM6"/>
   <circle id="connector17pad" cx="70.2" cy="60.84" r="1.9687" stroke-width="1.1027" connectorname="5.0V"/>
   <circle id="connector18pad" cx="70.2" cy="68.04" r="1.9687" stroke-width="1.1027" connectorname="GND"/>
   <circle id="connector19pad" cx="63" cy="53.64" r="1.9687" stroke-width="1.1027" connectorname="PWM5"/>
   <circle id="connector20pad" cx="63" cy="60.84" r="1.9687" stroke-width="1.1027" connectorname="5.0V"/>
   <circle id="connector21pad" cx="63" cy="68.04" r="1.9687" stroke-width="1.1027" connectorname="GND"/>
   <circle id="connector22pad" cx="55.8" cy="53.64" r="1.9687" stroke-width="1.1027" connectorname="PWM4"/>
   <circle id="connector23pad" cx="55.8" cy="60.84" r="1.9687" stroke-width="1.1027" connectorname="5.0V"/>
   <circle id="connector24pad" cx="55.8" cy="68.04" r="1.9687" stroke-width="1.1027" connectorname="GND"/>
   <circle id="connector25pad" cx="41.4" cy="53.64" r="1.9687" stroke-width="1.1027" connectorname="PWM3"/>
   <circle id="connector26pad" cx="41.4" cy="60.84" r="1.9687" stroke-width="1.1027" connectorname="5.0V"/>
   <circle id="connector27pad" cx="41.4" cy="68.04" r="1.9687" stroke-width="1.1027" connectorname="GND"/>
   <circle id="connector28pad" cx="34.2" cy="53.64" r="1.9687" stroke-width="1.1027" connectorname="PWM2"/>
   <circle id="connector29pad" cx="34.2" cy="60.84" r="1.9687" stroke-width="1.1027" connectorname="5.0V"/>
   <circle id="connector30pad" cx="34.2" cy="68.04" r="1.9687" stroke-width="1.1027" connectorname="GND"/>
   <circle id="connector31pad" cx="27" cy="53.64" r="1.9687" stroke-width="1.1027" connectorname="PWM1"/>
   <circle id="connector32pad" cx="27" cy="60.84" r="1.9687" stroke-width="1.1027" connectorname="5.0V"/>
   <circle id="connector33pad" cx="27" cy="68.04" r="1.9687" stroke-width="1.1027" connectorname="GND"/>
   <circle id="connector34pad" cx="19.8" cy="53.64" r="1.9687" stroke-width="1.1027" connectorname="PWM0"/>
   <circle id="connector35pad" cx="19.8" cy="60.84" r="1.9687" stroke-width="1.1027" connectorname="5.0V"/>
   <circle id="connector36pad" cx="19.8" cy="68.04" r="1.9687" stroke-width="1.1027" connectorname="GND"/>
   <circle id="connector37pad" cx="5.4" cy="53.64" r="1.98" stroke-width="1.08" connectorname="5.0V"/>
   <circle id="connector38pad" cx="5.4" cy="46.44" r="1.98" stroke-width="1.08" connectorname="VCC"/>
   <circle id="connector39pad" cx="5.4" cy="39.24" r="1.98" stroke-width="1.08" connectorname="SDA"/>
   <circle id="connector144pad" cx="167.4" cy="9" r="4.2633" stroke-width="1.44" connectorname="P$1"/>
   <circle id="connector40pad" cx="5.4" cy="32.04" r="1.98" stroke-width="1.08" connectorname="SCL"/>
   <circle id="connector41pad" cx="5.4" cy="24.84" r="1.98" stroke-width="1.08" connectorname="OE"/>
   <circle id="connector42pad" cx="5.4" cy="17.64" r="1.98" stroke-width="1.08" connectorname="GND"/>
   <circle id="connector43pad" cx="171" cy="53.64" r="1.98" stroke-width="1.08" connectorname="5.0V"/>
   <circle id="connector44pad" cx="171" cy="46.44" r="1.98" stroke-width="1.08" connectorname="VCC"/>
   <circle id="connector45pad" cx="171" cy="39.24" r="1.98" stroke-width="1.08" connectorname="SDA"/>
   <circle id="connector46pad" cx="171" cy="32.04" r="1.98" stroke-width="1.08" connectorname="SCL"/>
   <circle id="connector47pad" cx="171" cy="24.84" r="1.98" stroke-width="1.08" connectorname="OE"/>
   <circle id="connector48pad" cx="171" cy="17.64" r="1.98" stroke-width="1.08" connectorname="GND"/>
   <circle id="connector49pad" cx="156.6" cy="53.64" r="1.9687" stroke-width="1.1027" connectorname="PWM15"/>
   <circle id="connector50pad" cx="156.6" cy="60.84" r="1.9687" stroke-width="1.1027" connectorname="5.0V"/>
   <circle id="connector51pad" cx="156.6" cy="68.04" r="1.9687" stroke-width="1.1027" connectorname="GND"/>
   <circle id="connector52pad" cx="149.4" cy="53.64" r="1.9687" stroke-width="1.1027" connectorname="PWM14"/>
   <circle id="connector53pad" cx="149.4" cy="60.84" r="1.9687" stroke-width="1.1027" connectorname="5.0V"/>
   <circle id="connector54pad" cx="149.4" cy="68.04" r="1.9687" stroke-width="1.1027" connectorname="GND"/>
   <circle id="connector55pad" cx="142.2" cy="53.64" r="1.9687" stroke-width="1.1027" connectorname="PWM13"/>
   <circle id="connector56pad" cx="142.2" cy="60.84" r="1.9687" stroke-width="1.1027" connectorname="5.0V"/>
   <circle id="connector57pad" cx="142.2" cy="68.04" r="1.9687" stroke-width="1.1027" connectorname="GND"/>
   <circle id="connector58pad" cx="135" cy="53.64" r="1.9687" stroke-width="1.1027" connectorname="PWM12"/>
   <circle id="connector59pad" cx="135" cy="60.84" r="1.9687" stroke-width="1.1027" connectorname="5.0V"/>
   <circle id="connector60pad" cx="135" cy="68.04" r="1.9687" stroke-width="1.1027" connectorname="GND"/>
   <circle id="connector61pad" cx="120.6" cy="53.64" r="1.9687" stroke-width="1.1027" connectorname="PWM11"/>
   <circle id="connector62pad" cx="120.6" cy="60.84" r="1.9687" stroke-width="1.1027" connectorname="5.0V"/>
   <circle id="connector63pad" cx="120.6" cy="68.04" r="1.9687" stroke-width="1.1027" connectorname="GND"/>
   <circle id="connector64pad" cx="113.4" cy="53.64" r="1.9687" stroke-width="1.1027" connectorname="PWM10"/>
   <circle id="connector65pad" cx="113.4" cy="60.84" r="1.9687" stroke-width="1.1027" connectorname="5.0V"/>
   <circle id="connector66pad" cx="113.4" cy="68.04" r="1.9687" stroke-width="1.1027" connectorname="GND"/>
   <circle id="connector67pad" cx="106.2" cy="53.64" r="1.9687" stroke-width="1.1027" connectorname="PWM9"/>
   <circle id="connector68pad" cx="106.2" cy="60.84" r="1.9687" stroke-width="1.1027" connectorname="5.0V"/>
   <circle id="connector69pad" cx="106.2" cy="68.04" r="1.9687" stroke-width="1.1027" connectorname="GND"/>
   <circle id="connector70pad" cx="99" cy="53.64" r="1.9687" stroke-width="1.1027" connectorname="PWM8"/>
   <circle id="connector71pad" cx="99" cy="60.84" r="1.9687" stroke-width="1.1027" connectorname="5.0V"/>
   <circle id="connector72pad" cx="99" cy="68.04" r="1.9687" stroke-width="1.1027" connectorname="GND"/>
   <circle id="connector143pad" cx="9" cy="63" r="4.2633" stroke-width="1.44" connectorname="P$1"/>
   <circle id="connector145pad" cx="167.4" cy="63" r="4.2633" stroke-width="1.44" connectorname="P$1"/>
  </g>
 </g>
</svg>
