<?xml version="1.0" encoding="UTF-8"?>
<!-- Created with Fritzing (http://www.fritzing.org/) -->
<svg width="1in" height=".7in" baseProfile="tiny" version="1.2" viewBox="0 0 72 50.4" xmlns="http://www.w3.org/2000/svg">
 <desc>
  <referenceFile>Adafruit_LSM6DS3_pcb.svg</referenceFile>
 </desc>
 <desc>Fritzing footprint generated by brd2svg</desc>
 <g id="silkscreen">
  <path d="m0.288 7.4057a6.912 6.912 0 0 1 7.1424-7.1177h57.139a6.912 6.912 0 0 1 7.1424 7.1177v35.589a6.912 6.912 0 0 1-7.1424 7.1177h-57.139a6.912 6.912 0 0 1-7.1424-7.1177v-35.589" fill="none" stroke="#fff" stroke-width=".576"/>
  <path d="m18.371 20.163a3.24 3.24 0 0 0 3.24-3.24" fill="none" stroke="#fff" stroke-width=".72"/>
  <path d="m15.131 16.923a3.24 3.24 0 0 0 3.24 3.24" fill="none" stroke="#fff" stroke-width=".72"/>
  <path d="m18.371 13.683a3.24 3.24 0 0 0-3.24 3.24" fill="none" stroke="#fff" stroke-width=".72"/>
  <path d="m21.611 16.923a3.1849 3.1849 0 0 0-3.24-3.24" fill="none" stroke="#fff" stroke-width=".72"/>
  <g>
   <title>polygon</title>
   <path d="m21.971 17.283v-0.72h1.8v-0.72l1.44 1.08-1.44 1.08v-0.72h-1.8" fill="none" stroke="#fff" stroke-linecap="round" stroke-width=".72"/>
  </g>
  <g>
   <title>polygon</title>
   <path d="m18.709 13.317h-0.72v-1.8h-0.72l1.08-1.44 1.08 1.44h-0.72v1.8" fill="none" stroke="#fff" stroke-linecap="round" stroke-width=".72"/>
  </g>
  <g>
   <title>element:CONN3</title>
   <g>
    <title>package:JST_SH4</title>
    <line x1="65.894" x2="58.524" y1="33.704" y2="33.704" stroke="#fff" stroke-linecap="round" stroke-width=".432"/>
    <line x1="58.524" x2="58.524" y1="33.704" y2="30.586" stroke="#fff" stroke-linecap="round" stroke-width=".432"/>
    <line x1="58.524" x2="58.524" y1="19.814" y2="16.413" stroke="#fff" stroke-linecap="round" stroke-width=".432"/>
    <line x1="58.524" x2="65.894" y1="16.413" y2="16.413" stroke="#fff" stroke-linecap="round" stroke-width=".432"/>
    <line x1="70.713" x2="70.713" y1="31.153" y2="19.247" stroke="#fff" stroke-linecap="round" stroke-width=".432"/>
   </g>
  </g>
  <g>
   <title>element:CONN4</title>
   <g>
    <title>package:JST_SH4</title>
    <line x1="6.1058" x2="13.476" y1="16.696" y2="16.696" stroke="#fff" stroke-linecap="round" stroke-width=".432"/>
    <line x1="13.476" x2="13.476" y1="16.696" y2="19.814" stroke="#fff" stroke-linecap="round" stroke-width=".432"/>
    <line x1="13.476" x2="13.476" y1="30.586" y2="33.987" stroke="#fff" stroke-linecap="round" stroke-width=".432"/>
    <line x1="13.476" x2="6.1058" y1="33.987" y2="33.987" stroke="#fff" stroke-linecap="round" stroke-width=".432"/>
    <line x1="1.2869" x2="1.2869" y1="19.247" y2="31.153" stroke="#fff" stroke-linecap="round" stroke-width=".432"/>
   </g>
  </g>
  <g>
   <title>element:JP1</title>
   <g>
    <title>package:1X09_ROUND_70</title>
   </g>
  </g>
  <g>
   <title>element:U$30</title>
   <g>
    <title>package:STEMMAQT</title>
   </g>
  </g>
  <g>
   <title>element:U$31</title>
   <g>
    <title>package:STEMMAQT</title>
   </g>
  </g>
 </g>
 <g id="copper1">
  <g id="copper0">
   <g transform="matrix(-1 0 0 -1 115.35 58.904)">
    <rect id="connector11pad" x="55.477" y="28.602" width="4.3937" height="1.7008" fill="#F7BD13" stroke-width="0"/>
   </g>
   <g transform="matrix(-1 0 0 -1 115.35 53.235)">
    <rect id="connector12pad" x="55.477" y="25.767" width="4.3937" height="1.7008" fill="#F7BD13" stroke-width="0"/>
   </g>
   <circle id="connector66pad" cx="64.8" cy="7.2" r="4.2633" fill="none" stroke="#F7BD13" stroke-width="1.44" connectorname="P$1"/>
   <g transform="matrix(-1 0 0 -1 115.35 47.565)">
    <rect id="connector13pad" x="55.477" y="22.932" width="4.3937" height="1.7008" fill="#F7BD13" stroke-width="0"/>
   </g>
   <g transform="matrix(-1 0 0 -1 115.35 41.896)">
    <rect id="connector14pad" x="55.477" y="20.098" width="4.3937" height="1.7008" fill="#F7BD13" stroke-width="0"/>
   </g>
   <rect id="connector17pad" x="12.13" y="20.098" width="4.3937" height="1.7008" fill="#F7BD13" stroke-width="0"/>
   <rect id="connector18pad" x="12.13" y="22.932" width="4.3937" height="1.7008" fill="#F7BD13" stroke-width="0"/>
   <rect id="connector19pad" x="12.13" y="25.767" width="4.3937" height="1.7008" fill="#F7BD13" stroke-width="0"/>
   <rect id="connector20pad" x="12.13" y="28.602" width="4.3937" height="1.7008" fill="#F7BD13" stroke-width="0"/>
   <circle id="connector29pad" cx="7.2" cy="43.2" r="1.9687" fill="none" stroke="#F7BD13" stroke-width="1.1027" connectorname="VCC"/>
   <circle id="connector30pad" cx="14.4" cy="43.2" r="1.9687" fill="none" stroke="#F7BD13" stroke-width="1.1027" connectorname="3.3V"/>
   <circle id="connector31pad" cx="21.6" cy="43.2" r="1.9687" fill="none" stroke="#F7BD13" stroke-width="1.1027" connectorname="GND"/>
   <circle id="connector32pad" cx="28.8" cy="43.2" r="1.9687" fill="none" stroke="#F7BD13" stroke-width="1.1027" connectorname="SCL"/>
   <circle id="connector33pad" cx="36" cy="43.2" r="1.9687" fill="none" stroke="#F7BD13" stroke-width="1.1027" connectorname="SDA"/>
   <circle id="connector34pad" cx="43.2" cy="43.2" r="1.9687" fill="none" stroke="#F7BD13" stroke-width="1.1027" connectorname="SDO"/>
   <circle id="connector65pad" cx="7.2" cy="7.2" r="4.2633" fill="none" stroke="#F7BD13" stroke-width="1.44" connectorname="P$1"/>
   <circle id="connector35pad" cx="50.4" cy="43.2" r="1.9687" fill="none" stroke="#F7BD13" stroke-width="1.1027" connectorname="CS_5V"/>
   <circle id="connector36pad" cx="57.6" cy="43.2" r="1.9687" fill="none" stroke="#F7BD13" stroke-width="1.1027" connectorname="INT1"/>
   <circle id="connector37pad" cx="64.8" cy="43.2" r="1.9687" fill="none" stroke="#F7BD13" stroke-width="1.1027" connectorname="INT2"/>
   <circle id="connector38pad" cx="50.4" cy="7.2" r="1.9687" fill="none" stroke="#F7BD13" stroke-width="1.1027" connectorname="GND"/>
   <circle id="connector39pad" cx="43.2" cy="7.2" r="1.9687" fill="none" stroke="#F7BD13" stroke-width="1.1027" connectorname="2"/>
   <circle id="connector40pad" cx="36" cy="7.2" r="1.9687" fill="none" stroke="#F7BD13" stroke-width="1.1027" connectorname="3"/>
   <circle id="connector41pad" cx="28.8" cy="7.2" r="1.9687" fill="none" stroke="#F7BD13" stroke-width="1.1027" connectorname="SDX"/>
   <circle id="connector42pad" cx="21.6" cy="7.2" r="1.9687" fill="none" stroke="#F7BD13" stroke-width="1.1027" connectorname="SCX"/>
  </g>
 </g>
</svg>
