<?xml version="1.0" encoding="UTF-8"?>
<!-- Created with Fritzing (http://www.fritzing.org/) -->
<svg width="2.8504in" height="2.22in" baseProfile="tiny" version="1.2" viewBox="0 0 205.23 159.84" xmlns="http://www.w3.org/2000/svg">
 <desc>
  <referenceFile>2.7in eInk rev B_pcb.svg</referenceFile>
 </desc>
 <desc>Fritzing footprint generated by brd2svg</desc>
 <g id="silkscreen">
  <path d="m197.73 0.28801a6.9039 6.9039 0 0 1 7.179 7.1565l0.028 144.95a6.912 6.912 0 0 1-7.18 7.157h-190.29a6.912 6.912 0 0 1-7.1798-7.174v-144.92a6.912 6.912 0 0 1 7.1798-7.1741h190.27" fill="none" stroke="#fff" stroke-width=".576"/>
  <g>
   <title>element:EINK1</title>
   <g>
    <title>package:EINK_270IN</title>
   </g>
  </g>
  <g>
   <title>element:IC1</title>
   <g>
    <title>package:SO20W</title>
   </g>
  </g>
  <g>
   <title>element:JP2</title>
   <g>
    <title>package:1X13_ROUND_70</title>
   </g>
  </g>
  <g>
   <title>element:U$39</title>
   <g>
    <title>package:ADAFRUIT_TEXT_30MM</title>
   </g>
  </g>
  <g>
   <title>element:X1</title>
   <g>
    <title>package:MICROSD</title>
   </g>
  </g>
 </g>
 <g id="copper1">
  <g id="copper0" fill="none" stroke="#F7BD13">
   <circle id="connector6pad" cx="66.6" cy="152.64" r="1.8967" stroke-width=".95868" connectorname="3.3V"/>
   <circle id="connector18pad" cx="7.2" cy="152.64" r="4.2633" stroke-width="1.44" connectorname="P$1"/>
   <circle id="connector14pad" cx="124.2" cy="152.64" r="1.8967" stroke-width=".95868" connectorname="SDCS"/>
   <circle id="connector7pad" cx="73.8" cy="152.64" r="1.8967" stroke-width=".95868" connectorname="GND"/>
   <circle id="connector16pad" cx="138.6" cy="152.64" r="1.8967" stroke-width=".95868" connectorname="BUSY"/>
   <circle id="connector8pad" cx="81" cy="152.64" r="1.8967" stroke-width=".95868" connectorname="SCLK"/>
   <circle id="connector20pad" cx="7.2" cy="7.2" r="4.2633" stroke-width="1.44" connectorname="P$1"/>
   <circle id="connector9pad" cx="88.2" cy="152.64" r="1.8967" stroke-width=".95868" connectorname="MISO"/>
   <circle id="connector15pad" cx="131.4" cy="152.64" r="1.8967" stroke-width=".95868" connectorname="RESET"/>
   <circle id="connector10pad" cx="95.4" cy="152.64" r="1.8967" stroke-width=".95868" connectorname="MOSI"/>
   <circle id="connector17pad" cx="145.8" cy="152.64" r="1.8967" stroke-width=".95868" connectorname="ENABLE"/>
   <circle id="connector11pad" cx="102.6" cy="152.64" r="1.8967" stroke-width=".95868" connectorname="DISPCS"/>
   <circle id="connector19pad" cx="198" cy="152.64" r="4.2633" stroke-width="1.44" connectorname="P$1"/>
   <circle id="connector12pad" cx="109.8" cy="152.64" r="1.8967" stroke-width=".95868" connectorname="DC"/>
   <circle id="connector21pad" cx="198" cy="7.2" r="4.2633" stroke-width="1.44" connectorname="P$1"/>
   <circle id="connector13pad" cx="117" cy="152.64" r="1.8967" stroke-width=".95868" connectorname="SRAMCS"/>
   <circle id="connector5pad" cx="59.4" cy="152.64" r="1.8967" stroke-width=".95868" connectorname="VIN"/>
  </g>
 </g>
</svg>
