<?xml version="1.0" encoding="UTF-8"?>
<!-- Created with Fritzing (http://www.fritzing.org/) -->
<svg width="1.195in" height=".75003in" baseProfile="tiny" version="1.2" viewBox="0 0 86.04 54.002" xmlns="http://www.w3.org/2000/svg">
 <desc>
  <referenceFile>Adafruit bq25185 with 5V Boost Breakout_pcb.svg</referenceFile>
 </desc>
 <desc>Fritzing footprint generated by brd2svg</desc>
 <g id="silkscreen">
  <path d="m10.658 0.288h67.942a6.912 6.912 0 0 1 7.1518 7.1232v39.534a6.7343 6.7343 0 0 1-7.1518 6.767h-67.942a6.912 6.912 0 0 1-7.1518-7.1232v-39.178a6.912 6.912 0 0 1 7.1518-7.1232m6.5102 34.904a0.63326 0.63326 0 1 0 1.2665 0 0.63326 0.63326 0 1 0-1.2665 0zm0-16.384a0.63326 0.63326 0 1 0 1.2665 0 0.63326 0.63326 0 1 0-1.2665 0z" fill="none" stroke="#fff" stroke-width=".576"/>
  <g>
   <title>element:JP3</title>
   <g>
    <title>package:1X08_ROUND_70</title>
   </g>
  </g>
  <g>
   <title>element:PLABEL24</title>
   <g>
    <title>package:PLABEL24</title>
   </g>
  </g>
  <g>
   <title>element:PLABEL26</title>
   <g>
    <title>package:PLABEL26</title>
   </g>
  </g>
  <g>
   <title>element:VBAT</title>
   <g>
    <title>package:JSTPH2_BATT</title>
    <line x1="36.462" x2="49.218" y1="1.5761" y2="1.5761" stroke="#fff" stroke-linecap="round" stroke-width=".576"/>
    <line x1="54.179" x2="54.179" y1="11.497" y2="22.836" stroke="#fff" stroke-linecap="round" stroke-width=".576"/>
    <line x1="54.179" x2="51.769" y1="22.836" y2="22.836" stroke="#fff" stroke-linecap="round" stroke-width=".576"/>
    <line x1="51.769" x2="51.769" y1="22.836" y2="16.469" stroke="#fff" stroke-linecap="round" stroke-width=".576"/>
    <line x1="51.769" x2="47.801" y1="16.469" y2="16.469" stroke="#fff" stroke-linecap="round" stroke-width=".576"/>
    <line x1="37.879" x2="33.911" y1="16.469" y2="16.469" stroke="#fff" stroke-linecap="round" stroke-width=".576"/>
    <line x1="33.911" x2="33.911" y1="16.469" y2="22.836" stroke="#fff" stroke-linecap="round" stroke-width=".576"/>
    <line x1="33.911" x2="31.501" y1="22.836" y2="22.836" stroke="#fff" stroke-linecap="round" stroke-width=".576"/>
    <line x1="31.501" x2="31.501" y1="22.836" y2="11.497" stroke="#fff" stroke-linecap="round" stroke-width=".576"/>
    <line x1="48.24" x2="50.76" y1="20.88" y2="20.88" stroke="#fff" stroke-linecap="round" stroke-width=".864"/>
    <line x1="49.5" x2="49.5" y1="22.32" y2="19.62" stroke="#fff" stroke-linecap="round" stroke-width=".864"/>
    <line x1="34.92" x2="37.44" y1="20.88" y2="20.88" stroke="#fff" stroke-linecap="round" stroke-width=".864"/>
   </g>
  </g>
  <g>
   <title>element:X1</title>
   <g>
    <title>package:TERMBLOCK_1X2-3.5MM</title>
    <line x1="65.602" x2="81.476" y1="36.638" y2="36.638" stroke="#fff" stroke-linecap="round" stroke-width=".576"/>
    <line x1="81.476" x2="85.445" y1="36.638" y2="36.638" stroke="#fff" stroke-linecap="round" stroke-width=".576"/>
    <line x1="85.445" x2="85.445" y1="36.638" y2="16.795" stroke="#fff" stroke-linecap="round" stroke-width=".576"/>
    <line x1="85.445" x2="81.476" y1="16.795" y2="16.795" stroke="#fff" stroke-linecap="round" stroke-width=".576"/>
    <line x1="81.476" x2="65.602" y1="16.795" y2="16.795" stroke="#fff" stroke-linecap="round" stroke-width=".576"/>
    <line x1="65.602" x2="65.602" y1="16.795" y2="36.638" stroke="#fff" stroke-linecap="round" stroke-width=".576"/>
    <line x1="81.476" x2="81.476" y1="36.638" y2="16.795" stroke="#fff" stroke-linecap="round" stroke-width=".576"/>
   </g>
  </g>
  <g>
   <title>element:X2</title>
   <g>
    <title>package:USB_C_CUSB31-CFM2AX-01-X</title>
    <line x1="11.339" x2="15.165" y1="14.329" y2="14.329" stroke="#fff" stroke-linecap="round" stroke-width=".288"/>
    <line x1="15.165" x2="11.339" y1="39.671" y2="39.671" stroke="#fff" stroke-linecap="round" stroke-width=".288"/>
    <line y1="39.671" y2="14.329" stroke="#fff" stroke-linecap="round" stroke-width=".288"/>
    <line x2="3.8268" y1="14.329" y2="14.329" stroke="#fff" stroke-linecap="round" stroke-width=".288"/>
    <line x1="3.8268" y1="39.671" y2="39.671" stroke="#fff" stroke-linecap="round" stroke-width=".288"/>
   </g>
  </g>
  <line x1=".288" x2="3.24" y1="40.644" y2="40.644" fill="none" stroke="#fff" stroke-width=".576"/>
  <line x1=".288" x2="3.24" y1="13.32" y2="13.32" fill="none" stroke="#fff" stroke-width=".576"/>
  <line x1=".288" x2=".288" y1="40.644" y2="13.32" fill="none" stroke="#fff" stroke-width=".576"/>
 </g>
 <g id="copper1">
  <g id="copper0">
   <circle id="connector102pad" cx="19.219" cy="14.754" r="1.2104" fill="none" stroke="#F7BD13" stroke-width=".72" connectorname="M1"/>
   <path d="m16.435 13.544h5.5678v2.4208h-5.5678v-2.4208m1.5735 1.2104a1.2104 1.2104 0 1 0 2.4208 0 1.2104 1.2104 0 1 0-2.4208 0z" fill="#F7BD13" stroke-width="0"/>
   <circle id="connector82pad" cx="10.44" cy="46.8" r="4.2633" fill="none" stroke="#F7BD13" stroke-width="1.44" connectorname="P$1"/>
   <circle id="connector80pad" cx="78.84" cy="46.8" r="4.2633" fill="none" stroke="#F7BD13" stroke-width="1.44" connectorname="P$1"/>
   <rect id="connector84pad" x="38.588" y="14.048" width="2.8346" height="13.039" fill="#F7BD13" stroke-width="0"/>
   <circle id="connector88pad" cx="75.24" cy="21.898" r="2.2567" fill="none" stroke="#F7BD13" stroke-width="1.6787" connectorname="GND"/>
   <circle id="connector104pad" cx="7.3701" cy="14.754" r="1.2104" fill="none" stroke="#F7BD13" stroke-width=".72" connectorname="M3"/>
   <path d="m4.5862 13.544h5.5678v2.4208h-5.5678v-2.4208m1.5735 1.2104a1.2104 1.2104 0 1 0 2.4208 0 1.2104 1.2104 0 1 0-2.4208 0z" fill="#F7BD13" stroke-width="0"/>
   <circle id="connector81pad" cx="78.84" cy="7.2" r="4.2633" fill="none" stroke="#F7BD13" stroke-width="1.44" connectorname="P$1"/>
   <circle id="connector83pad" cx="10.44" cy="7.2" r="4.2633" fill="none" stroke="#F7BD13" stroke-width="1.44" connectorname="P$1"/>
   <circle id="connector44pad" cx="19.44" cy="46.8" r="1.9687" fill="none" stroke="#F7BD13" stroke-width="1.1027" connectorname="VIN"/>
   <rect id="connector85pad" x="44.257" y="14.048" width="2.8346" height="13.039" fill="#F7BD13" stroke-width="0"/>
   <circle id="connector45pad" cx="26.64" cy="46.8" r="1.9687" fill="none" stroke="#F7BD13" stroke-width="1.1027" connectorname="VBUS"/>
   <circle id="connector46pad" cx="33.84" cy="46.8" r="1.9687" fill="none" stroke="#F7BD13" stroke-width="1.1027" connectorname="D-"/>
   <circle id="connector89pad" cx="75.24" cy="31.819" r="2.2567" fill="none" stroke="#F7BD13" stroke-width="1.6787" connectorname="+5V"/>
   <circle id="connector47pad" cx="41.04" cy="46.8" r="1.9687" fill="none" stroke="#F7BD13" stroke-width="1.1027" connectorname="D+"/>
   <circle id="connector48pad" cx="48.24" cy="46.8" r="1.9687" fill="none" stroke="#F7BD13" stroke-width="1.1027" connectorname="GND"/>
   <circle id="connector49pad" cx="55.44" cy="46.8" r="1.9687" fill="none" stroke="#F7BD13" stroke-width="1.1027" connectorname="VBAT"/>
   <circle id="connector50pad" cx="62.64" cy="46.8" r="1.9687" fill="none" stroke="#F7BD13" stroke-width="1.1027" connectorname="+5V"/>
   <circle id="connector51pad" cx="69.84" cy="46.8" r="1.9687" fill="none" stroke="#F7BD13" stroke-width="1.1027" connectorname="EN"/>
   <circle id="connector103pad" cx="19.219" cy="39.246" r="1.2104" fill="none" stroke="#F7BD13" stroke-width=".72" connectorname="M2"/>
   <path d="m16.435 38.035h5.5678v2.4208h-5.5678v-2.4208m1.5735 1.2104a1.2104 1.2104 0 1 0 2.4208 0 1.2104 1.2104 0 1 0-2.4208 0z" fill="#F7BD13" stroke-width="0"/>
   <circle id="connector105pad" cx="7.3701" cy="39.246" r="1.2104" fill="none" stroke="#F7BD13" stroke-width=".72" connectorname="M4"/>
   <path d="m4.5862 38.035h5.5678v2.4208h-5.5678v-2.4208m1.5735 1.2104a1.2104 1.2104 0 1 0 2.4208 0 1.2104 1.2104 0 1 0-2.4208 0z" fill="#F7BD13" stroke-width="0"/>
  </g>
 </g>
</svg>
