<?xml version="1.0" encoding="UTF-8"?>
<!-- Created with Fritzing (http://www.fritzing.org/) -->
<svg width="1.1in" height=".7in" baseProfile="tiny" version="1.2" viewBox="0 0 79.2 50.4" xmlns="http://www.w3.org/2000/svg">
 <desc>
  <referenceFile>Adafruit DAC7578 Breakout_pcb.svg</referenceFile>
 </desc>
 <desc>Fritzing footprint generated by brd2svg</desc>
 <g id="silkscreen">
  <path d="m0.288 7.4057a6.912 6.912 0 0 1 7.1477-7.1177h64.329a6.912 6.912 0 0 1 7.1477 7.1177v35.589a6.912 6.912 0 0 1-7.1477 7.1177h-64.329a6.912 6.912 0 0 1-7.1477-7.1177v-35.589" fill="none" stroke="#fff" stroke-width=".576"/>
  <g>
   <title>element:CONN3</title>
   <g>
    <title>package:JST_SH4</title>
    <line x1="73.094" x2="65.724" y1="33.704" y2="33.704" stroke="#fff" stroke-linecap="round" stroke-width=".432"/>
    <line x1="65.724" x2="65.724" y1="33.704" y2="30.586" stroke="#fff" stroke-linecap="round" stroke-width=".432"/>
    <line x1="65.724" x2="65.724" y1="19.814" y2="16.413" stroke="#fff" stroke-linecap="round" stroke-width=".432"/>
    <line x1="65.724" x2="73.094" y1="16.413" y2="16.413" stroke="#fff" stroke-linecap="round" stroke-width=".432"/>
    <line x1="77.913" x2="77.913" y1="31.153" y2="19.247" stroke="#fff" stroke-linecap="round" stroke-width=".432"/>
   </g>
  </g>
  <g>
   <title>element:CONN4</title>
   <g>
    <title>package:JST_SH4</title>
    <line x1="6.1058" x2="13.476" y1="16.696" y2="16.696" stroke="#fff" stroke-linecap="round" stroke-width=".432"/>
    <line x1="13.476" x2="13.476" y1="16.696" y2="19.814" stroke="#fff" stroke-linecap="round" stroke-width=".432"/>
    <line x1="13.476" x2="13.476" y1="30.586" y2="33.987" stroke="#fff" stroke-linecap="round" stroke-width=".432"/>
    <line x1="13.476" x2="6.1058" y1="33.987" y2="33.987" stroke="#fff" stroke-linecap="round" stroke-width=".432"/>
    <line x1="1.2869" x2="1.2869" y1="19.247" y2="31.153" stroke="#fff" stroke-linecap="round" stroke-width=".432"/>
   </g>
  </g>
  <g>
   <title>element:JP2</title>
   <g>
    <title>package:1X10_ROUND70</title>
   </g>
  </g>
  <g>
   <title>element:PLABEL21</title>
   <g>
    <title>package:PLABEL21</title>
   </g>
  </g>
  <g>
   <title>element:PLABEL23</title>
   <g>
    <title>package:PLABEL23</title>
   </g>
  </g>
  <g>
   <title>element:U$30</title>
   <g>
    <title>package:STEMMAQT</title>
   </g>
  </g>
  <g>
   <title>element:U$31</title>
   <g>
    <title>package:STEMMAQT</title>
   </g>
  </g>
  <g>
   <title>element:X1</title>
   <g>
    <title>package:TSSOP16</title>
    <line x1="53.271" x2="41.049" y1="31.968" y2="31.968" stroke="#fff" stroke-linecap="round" stroke-width=".576"/>
    <line x1="41.409" x2="53.271" y1="17.712" y2="17.712" stroke="#fff" stroke-linecap="round" stroke-width=".576"/>
    <circle cx="43.704" cy="20.232" r="1.296" fill="none" stroke="#fff" stroke-width=".576"/>
   </g>
  </g>
 </g>
 <g id="copper1">
  <g id="copper0">
   <circle id="connector46pad" cx="71.28" cy="7.2" r="1.9687" fill="none" stroke="#F7BD13" stroke-width="1.1027" connectorname="GND"/>
   <circle id="connector42pad" cx="42.48" cy="7.2" r="1.9687" fill="none" stroke="#F7BD13" stroke-width="1.1027" connectorname="VOUTE"/>
   <g transform="matrix(-1 0 0 -1 129.75 58.904)">
    <rect id="connector13pad" x="62.677" y="28.602" width="4.3937" height="1.7008" fill="#F7BD13" stroke-width="0"/>
   </g>
   <g transform="matrix(-1 0 0 -1 129.75 53.235)">
    <rect id="connector14pad" x="62.677" y="25.767" width="4.3937" height="1.7008" fill="#F7BD13" stroke-width="0"/>
   </g>
   <circle id="connector44pad" cx="56.88" cy="7.2" r="1.9687" fill="none" stroke="#F7BD13" stroke-width="1.1027" connectorname="VOUTG"/>
   <g transform="matrix(-1 0 0 -1 129.75 47.565)">
    <rect id="connector15pad" x="62.677" y="22.932" width="4.3937" height="1.7008" fill="#F7BD13" stroke-width="0"/>
   </g>
   <g transform="matrix(-1 0 0 -1 129.75 41.896)">
    <rect id="connector16pad" x="62.677" y="20.098" width="4.3937" height="1.7008" fill="#F7BD13" stroke-width="0"/>
   </g>
   <circle id="connector60pad" cx="7.2" cy="43.2" r="4.2633" fill="none" stroke="#F7BD13" stroke-width="1.44" connectorname="P$1"/>
   <rect id="connector19pad" x="12.13" y="20.098" width="4.3937" height="1.7008" fill="#F7BD13" stroke-width="0"/>
   <rect id="connector20pad" x="12.13" y="22.932" width="4.3937" height="1.7008" fill="#F7BD13" stroke-width="0"/>
   <rect id="connector21pad" x="12.13" y="25.767" width="4.3937" height="1.7008" fill="#F7BD13" stroke-width="0"/>
   <rect id="connector22pad" x="12.13" y="28.602" width="4.3937" height="1.7008" fill="#F7BD13" stroke-width="0"/>
   <circle id="connector43pad" cx="49.68" cy="7.2" r="1.9687" fill="none" stroke="#F7BD13" stroke-width="1.1027" connectorname="VOUTF"/>
   <circle id="connector45pad" cx="64.08" cy="7.2" r="1.9687" fill="none" stroke="#F7BD13" stroke-width="1.1027" connectorname="VOUTH"/>
   <circle id="connector31pad" cx="20.88" cy="43.2" r="1.9687" fill="none" stroke="#F7BD13" stroke-width="1.1027" connectorname="VCC"/>
   <circle id="connector32pad" cx="28.08" cy="43.2" r="1.9687" fill="none" stroke="#F7BD13" stroke-width="1.1027" connectorname="GND"/>
   <circle id="connector61pad" cx="72" cy="43.2" r="4.2633" fill="none" stroke="#F7BD13" stroke-width="1.44" connectorname="P$1"/>
   <circle id="connector33pad" cx="35.28" cy="43.2" r="1.9687" fill="none" stroke="#F7BD13" stroke-width="1.1027" connectorname="SCL"/>
   <circle id="connector34pad" cx="42.48" cy="43.2" r="1.9687" fill="none" stroke="#F7BD13" stroke-width="1.1027" connectorname="SDA"/>
   <circle id="connector35pad" cx="49.68" cy="43.2" r="1.9687" fill="none" stroke="#F7BD13" stroke-width="1.1027" connectorname="!LDAC"/>
   <circle id="connector36pad" cx="56.88" cy="43.2" r="1.9687" fill="none" stroke="#F7BD13" stroke-width="1.1027" connectorname="!CLR"/>
   <circle id="connector37pad" cx="6.48" cy="7.2" r="1.9687" fill="none" stroke="#F7BD13" stroke-width="1.1027" connectorname="VREFIN"/>
   <circle id="connector38pad" cx="13.68" cy="7.2" r="1.9687" fill="none" stroke="#F7BD13" stroke-width="1.1027" connectorname="VOUTA"/>
   <circle id="connector39pad" cx="20.88" cy="7.2" r="1.9687" fill="none" stroke="#F7BD13" stroke-width="1.1027" connectorname="VOUTB"/>
   <circle id="connector40pad" cx="28.08" cy="7.2" r="1.9687" fill="none" stroke="#F7BD13" stroke-width="1.1027" connectorname="VOUTC"/>
   <circle id="connector41pad" cx="35.28" cy="7.2" r="1.9687" fill="none" stroke="#F7BD13" stroke-width="1.1027" connectorname="VOUTD"/>
  </g>
 </g>
</svg>
