<?xml version="1.0" encoding="UTF-8"?>
<!-- Created with Fritzing (http://www.fritzing.org/) -->
<svg width="2in" height=".9in" baseProfile="tiny" version="1.2" viewBox="0 0 144 64.8" xmlns="http://www.w3.org/2000/svg">
 <desc>
  <referenceFile>AMG88xxFeatherWing rev A_pcb.svg</referenceFile>
 </desc>
 <desc>Fritzing footprint generated by brd2svg</desc>
 <g id="silkscreen">
  <path d="m136.54 0.288a6.912 6.912 0 0 1 7.171 7.136v49.952a6.912 6.912 0 0 1-7.171 7.136h-129.08a6.912 6.912 0 0 1-7.1712-7.136v-49.952a6.912 6.912 0 0 1 7.1712-7.136h129.08m-3.053 6.912a3.312 3.312 0 1 0 6.624 0 3.312 3.312 0 1 0-6.624 0zm0 50.4a3.312 3.312 0 1 0 6.624 0 3.312 3.312 0 1 0-6.624 0z" fill="none" stroke="#fff" stroke-width=".576"/>
  <g>
   <title>element:JP1</title>
   <g>
    <title>package:1X01_ROUND</title>
   </g>
  </g>
  <g>
   <title>element:JP3</title>
   <g>
    <title>package:1X16_ROUND</title>
   </g>
  </g>
  <g>
   <title>element:JP4</title>
   <g>
    <title>package:1X12_ROUND</title>
   </g>
  </g>
  <g>
   <title>element:MS1</title>
   <g>
    <title>package:FEATHERWING</title>
   </g>
  </g>
  <g>
   <title>element:U$2</title>
   <g>
    <title>package:ADAFRUIT_TEXT_20MM</title>
   </g>
  </g>
  <g>
   <title>element:U$15</title>
   <g>
    <title>package:FEATHERLOGO</title>
   </g>
  </g>
  <g>
   <title>element:U1</title>
   <g>
    <title>package:AMG8833</title>
    <line x1="91.367" x2="86.831" y1="20.778" y2="20.778" stroke="#fff" stroke-linecap="round" stroke-width=".36"/>
    <line x1="91.367" x2="86.831" y1="44.022" y2="44.022" stroke="#fff" stroke-linecap="round" stroke-width=".36"/>
    <line x1="94.484" x2="94.484" y1="30.983" y2="36.652" stroke="#fff" stroke-linecap="round" stroke-width=".36"/>
    <line x1="61.036" x2="61.036" y1="36.652" y2="28.148" stroke="#fff" stroke-linecap="round" stroke-width=".36"/>
    <line x1="68.689" x2="64.154" y1="44.022" y2="44.022" stroke="#fff" stroke-linecap="round" stroke-width=".36"/>
    <line x1="68.689" x2="64.154" y1="20.778" y2="20.778" stroke="#fff" stroke-linecap="round" stroke-width=".36"/>
    <circle cx="97.036" cy="22.195" r=".85039" fill="none" stroke="#fff" stroke-width="1.728"/>
   </g>
  </g>
 </g>
 <g id="copper1">
  <g id="copper0" fill="none" stroke="#F7BD13">
   <circle id="connector70pad" cx="54" cy="3.6" r="1.9687" stroke-width="1.1027" connectorname="EN"/>
   <circle id="connector62pad" cx="111.6" cy="3.6" r="1.9687" stroke-width="1.1027" connectorname="D5"/>
   <circle id="connector58pad" cx="118.8" cy="61.2" r="1.9687" stroke-width="1.1027" connectorname="TX"/>
   <circle id="connector66pad" cx="82.8" cy="3.6" r="1.9687" stroke-width="1.1027" connectorname="D11"/>
   <circle id="connector15pad" cx="104.4" cy="18" r="1.8967" stroke-width=".95868" connectorname="INT"/>
   <circle id="connector16pad" cx="126" cy="54" r="1.8967" stroke-width=".95868" connectorname="D4"/>
   <circle id="connector17pad" cx="118.8" cy="54" r="1.8967" stroke-width=".95868" connectorname="TX"/>
   <circle id="connector56pad" cx="104.4" cy="61.2" r="1.9687" stroke-width="1.1027" connectorname="MISO"/>
   <circle id="connector18pad" cx="111.6" cy="54" r="1.8967" stroke-width=".95868" connectorname="RX"/>
   <circle id="connector60pad" cx="126" cy="3.6" r="1.9687" stroke-width="1.1027" connectorname="SDA"/>
   <circle id="connector19pad" cx="104.4" cy="54" r="1.8967" stroke-width=".95868" connectorname="MISO"/>
   <circle id="connector64pad" cx="97.2" cy="3.6" r="1.9687" stroke-width="1.1027" connectorname="D9"/>
   <circle id="connector20pad" cx="97.2" cy="54" r="1.8967" stroke-width=".95868" connectorname="MOSI"/>
   <circle id="connector68pad" cx="68.4" cy="3.6" r="1.9687" stroke-width="1.1027" connectorname="D13"/>
   <circle id="connector21pad" cx="90" cy="54" r="1.8967" stroke-width=".95868" connectorname="SCK"/>
   <circle id="connector72pad" cx="7.2" cy="7.2" r="4.4716" stroke-width="1.8567" connectorname="P$1"/>
   <circle id="connector22pad" cx="82.8" cy="54" r="1.8967" stroke-width=".95868" connectorname="A5"/>
   <circle id="connector23pad" cx="75.6" cy="54" r="1.8967" stroke-width=".95868" connectorname="A4"/>
   <circle id="connector24pad" cx="68.4" cy="54" r="1.8967" stroke-width=".95868" connectorname="A3"/>
   <circle id="connector25pad" cx="61.2" cy="54" r="1.8967" stroke-width=".95868" connectorname="A2"/>
   <circle id="connector26pad" cx="54" cy="54" r="1.8967" stroke-width=".95868" connectorname="A1"/>
   <circle id="connector27pad" cx="46.8" cy="54" r="1.8967" stroke-width=".95868" connectorname="A0"/>
   <circle id="connector28pad" cx="39.6" cy="54" r="1.8967" stroke-width=".95868" connectorname="GND"/>
   <circle id="connector29pad" cx="32.4" cy="54" r="1.8967" stroke-width=".95868" connectorname="AREF"/>
   <circle id="connector55pad" cx="97.2" cy="61.2" r="1.9687" stroke-width="1.1027" connectorname="MOSI"/>
   <circle id="connector30pad" cx="25.2" cy="54" r="1.8967" stroke-width=".95868" connectorname="VCC"/>
   <circle id="connector57pad" cx="111.6" cy="61.2" r="1.9687" stroke-width="1.1027" connectorname="RX"/>
   <circle id="connector31pad" cx="18" cy="54" r="1.8967" stroke-width=".95868" connectorname="RESET"/>
   <circle id="connector59pad" cx="126" cy="61.2" r="1.9687" stroke-width="1.1027" connectorname="D4"/>
   <circle id="connector32pad" cx="46.8" cy="10.8" r="1.8967" stroke-width=".95868" connectorname="VBAT"/>
   <circle id="connector61pad" cx="118.8" cy="3.6" r="1.9687" stroke-width="1.1027" connectorname="SCL"/>
   <circle id="connector33pad" cx="54" cy="10.8" r="1.8967" stroke-width=".95868" connectorname="EN"/>
   <circle id="connector63pad" cx="104.4" cy="3.6" r="1.9687" stroke-width="1.1027" connectorname="D6"/>
   <circle id="connector34pad" cx="61.2" cy="10.8" r="1.8967" stroke-width=".95868" connectorname="USB"/>
   <circle id="connector65pad" cx="90" cy="3.6" r="1.9687" stroke-width="1.1027" connectorname="D10"/>
   <circle id="connector35pad" cx="68.4" cy="10.8" r="1.8967" stroke-width=".95868" connectorname="D13"/>
   <circle id="connector67pad" cx="75.6" cy="3.6" r="1.9687" stroke-width="1.1027" connectorname="D12"/>
   <circle id="connector36pad" cx="75.6" cy="10.8" r="1.8967" stroke-width=".95868" connectorname="D12"/>
   <circle id="connector69pad" cx="61.2" cy="3.6" r="1.9687" stroke-width="1.1027" connectorname="USB"/>
   <circle id="connector37pad" cx="82.8" cy="10.8" r="1.8967" stroke-width=".95868" connectorname="D11"/>
   <circle id="connector71pad" cx="46.8" cy="3.6" r="1.9687" stroke-width="1.1027" connectorname="VBAT"/>
   <circle id="connector38pad" cx="90" cy="10.8" r="1.8967" stroke-width=".95868" connectorname="D10"/>
   <circle id="connector73pad" cx="7.2" cy="57.6" r="4.4716" stroke-width="1.8567" connectorname="P$2"/>
   <circle id="connector39pad" cx="97.2" cy="10.8" r="1.8967" stroke-width=".95868" connectorname="D9"/>
   <circle id="connector40pad" cx="104.4" cy="10.8" r="1.8967" stroke-width=".95868" connectorname="D6"/>
   <circle id="connector41pad" cx="111.6" cy="10.8" r="1.8967" stroke-width=".95868" connectorname="D5"/>
   <circle id="connector42pad" cx="118.8" cy="10.8" r="1.8967" stroke-width=".95868" connectorname="SCL"/>
   <circle id="connector43pad" cx="126" cy="10.8" r="1.8967" stroke-width=".95868" connectorname="SDA"/>
   <circle id="connector44pad" cx="18" cy="61.2" r="1.9687" stroke-width="1.1027" connectorname="RESET"/>
   <circle id="connector45pad" cx="25.2" cy="61.2" r="1.9687" stroke-width="1.1027" connectorname="VCC"/>
   <circle id="connector46pad" cx="32.4" cy="61.2" r="1.9687" stroke-width="1.1027" connectorname="AREF"/>
   <circle id="connector47pad" cx="39.6" cy="61.2" r="1.9687" stroke-width="1.1027" connectorname="GND"/>
   <circle id="connector48pad" cx="46.8" cy="61.2" r="1.9687" stroke-width="1.1027" connectorname="A0"/>
   <circle id="connector49pad" cx="54" cy="61.2" r="1.9687" stroke-width="1.1027" connectorname="A1"/>
   <circle id="connector50pad" cx="61.2" cy="61.2" r="1.9687" stroke-width="1.1027" connectorname="A2"/>
   <circle id="connector51pad" cx="68.4" cy="61.2" r="1.9687" stroke-width="1.1027" connectorname="A3"/>
   <circle id="connector52pad" cx="75.6" cy="61.2" r="1.9687" stroke-width="1.1027" connectorname="A4"/>
   <circle id="connector53pad" cx="82.8" cy="61.2" r="1.9687" stroke-width="1.1027" connectorname="A5"/>
   <circle id="connector54pad" cx="90" cy="61.2" r="1.9687" stroke-width="1.1027" connectorname="SCK"/>
  </g>
 </g>
</svg>
