<?xml version="1.0" encoding="UTF-8"?>
<!-- Created with Fritzing (http://www.fritzing.org/) -->
<svg width=".75in" height=".855in" baseProfile="tiny" version="1.2" viewBox="0 0 54 61.56" xmlns="http://www.w3.org/2000/svg">
 <desc>
  <referenceFile>Adafruit QT Py CH32V203_pcb.svg</referenceFile>
 </desc>
 <desc>Fritzing footprint generated by brd2svg</desc>
 <g id="silkscreen">
  <path d="m51.931 10.274v43.866a6.912 6.912 0 0 1-7.1232 7.1326h-35.616a6.912 6.912 0 0 1-7.1232-7.1326v-43.866a6.912 6.912 0 0 1 7.1232-7.1326h35.616a6.912 6.912 0 0 1 7.1232 7.1326m-33.757 7.5279a0.63326 0.63326 0 1 0 1.2665 0 0.63326 0.63326 0 1 0-1.2665 0zm16.384 0a0.63326 0.63326 0 1 0 1.2665 0 0.63326 0.63326 0 1 0-1.2665 0z" fill="none" stroke="#fff" stroke-width=".576"/>
  <circle cx="13.14" cy="37.62" r=".36" fill="none" stroke="#fff" stroke-width=".504"/>
  <g>
   <title>element:CONN1</title>
   <g>
    <title>package:JST_SH4_SKINNY</title>
    <line x1="26.272" x2="26.272" y1="55.49" y2="48.12" stroke="#fff" stroke-linecap="round" stroke-width=".432"/>
    <line x1="26.272" x2="29.39" y1="48.12" y2="48.12" stroke="#fff" stroke-linecap="round" stroke-width=".432"/>
    <line x1="40.162" x2="43.563" y1="48.12" y2="48.12" stroke="#fff" stroke-linecap="round" stroke-width=".432"/>
    <line x1="43.563" x2="43.563" y1="48.12" y2="55.49" stroke="#fff" stroke-linecap="round" stroke-width=".432"/>
    <line x1="28.823" x2="40.729" y1="60.309" y2="60.309" stroke="#fff" stroke-linecap="round" stroke-width=".432"/>
   </g>
  </g>
  <g>
   <title>element:JP1</title>
   <g>
    <title>package:1X07_CASTEL</title>
   </g>
  </g>
  <g>
   <title>element:JP3</title>
   <g>
    <title>package:1X07_CASTEL</title>
   </g>
  </g>
  <g>
   <title>element:U$13</title>
   <g>
    <title>package:QTPY_CH32V203_BOT</title>
   </g>
  </g>
  <g>
   <title>element:U$21</title>
   <g>
    <title>package:STEMMAQT</title>
   </g>
  </g>
  <g>
   <title>element:U$23</title>
   <g>
    <title>package:QTPY_CH32V203_TOP</title>
   </g>
  </g>
  <g>
   <title>element:X6</title>
   <g>
    <title>package:USB_C_CUSB31-CFM2AX-01-X</title>
    <line x1="39.671" x2="39.671" y1="11.339" y2="15.165" stroke="#fff" stroke-linecap="round" stroke-width=".288"/>
    <line x1="14.329" x2="14.329" y1="15.165" y2="11.339" stroke="#fff" stroke-linecap="round" stroke-width=".288"/>
    <line x1="14.329" x2="39.671" stroke="#fff" stroke-linecap="round" stroke-width=".288"/>
    <line x1="39.671" x2="39.671" y2="3.8268" stroke="#fff" stroke-linecap="round" stroke-width=".288"/>
    <line x1="14.329" x2="14.329" y1="3.8268" stroke="#fff" stroke-linecap="round" stroke-width=".288"/>
   </g>
  </g>
  <line x1=".288" x2="1.8" y1="54.54" y2="54.54" fill="none" stroke="#fff" stroke-width=".576"/>
  <line x1=".288" x2="1.8" y1="7.02" y2="7.02" fill="none" stroke="#fff" stroke-width=".576"/>
  <line x1=".288" x2=".288" y1="54.54" y2="7.02" fill="none" stroke="#fff" stroke-width=".576"/>
  <line x1="52.2" x2="53.712" y1="57.42" y2="57.42" fill="none" stroke="#fff" stroke-width=".576"/>
  <line x1="52.2" x2="53.712" y1="9.9" y2="9.9" fill="none" stroke="#fff" stroke-width=".576"/>
  <line x1="53.712" x2="53.712" y1="57.42" y2="9.9" fill="none" stroke="#fff" stroke-width=".576"/>
  <line x1="13.356" x2="40.68" y1=".288" y2=".288" fill="none" stroke="#fff" stroke-width=".576"/>
  <line x1="13.356" x2="13.356" y1="2.88" y2=".288" fill="none" stroke="#fff" stroke-width=".576"/>
  <line x1="40.68" x2="40.68" y1="2.88" y2=".288" fill="none" stroke="#fff" stroke-width=".576"/>
 </g>
 <g id="copper1">
  <g id="copper0">
   <circle id="connector70pad" cx="5.4" cy="46.62" r="1.9687" fill="none" stroke="#F7BD13" stroke-width="1.1027" connectorname="SCL"/>
   <circle id="connector86pad" cx="48.6" cy="10.62" r="1.9687" fill="none" stroke="#F7BD13" stroke-width="1.1027" connectorname="+5V"/>
   <circle id="connector78pad" cx="48.6" cy="39.42" r="1.9687" fill="none" stroke="#F7BD13" stroke-width="1.1027" connectorname="MISO"/>
   <circle id="connector66pad" cx="5.4" cy="32.22" r="1.9687" fill="none" stroke="#F7BD13" stroke-width="1.1027" connectorname="A3"/>
   <circle id="connector74pad" cx="48.6" cy="53.82" r="1.9687" fill="none" stroke="#F7BD13" stroke-width="1.1027" connectorname="RX"/>
   <circle id="connector82pad" cx="48.6" cy="25.02" r="1.9687" fill="none" stroke="#F7BD13" stroke-width="1.1027" connectorname="3.3V"/>
   <circle id="connector122pad" cx="14.754" cy="7.3701" r="1.2104" fill="none" stroke="#F7BD13" stroke-width=".72" connectorname="M4"/>
   <path d="m13.544 4.5862h2.4208v5.5678h-2.4208v-5.5678m0 2.7839a1.2104 1.2104 0 1 0 2.4208 0 1.2104 1.2104 0 1 0-2.4208 0z" fill="#F7BD13" stroke-width="0"/>
   <circle id="connector68pad" cx="5.4" cy="39.42" r="1.9687" fill="none" stroke="#F7BD13" stroke-width="1.1027" connectorname="SDA"/>
   <circle id="connector72pad" cx="5.4" cy="53.82" r="1.9687" fill="none" stroke="#F7BD13" stroke-width="1.1027" connectorname="TX"/>
   <circle id="connector76pad" cx="48.6" cy="46.62" r="1.9687" fill="none" stroke="#F7BD13" stroke-width="1.1027" connectorname="SCK"/>
   <g transform="matrix(0 -1 1 0 -16.746 77.794)">
    <rect id="connector23pad" x="28.327" y="46.561" width="4.3937" height="1.4173" fill="#F7BD13" stroke-width="0"/>
   </g>
   <circle id="connector80pad" cx="48.6" cy="32.22" r="1.9687" fill="none" stroke="#F7BD13" stroke-width="1.1027" connectorname="MOSI"/>
   <g transform="matrix(0 -1 1 0 -13.911 80.628)">
    <rect id="connector24pad" x="31.162" y="46.561" width="4.3937" height="1.4173" fill="#F7BD13" stroke-width="0"/>
   </g>
   <circle id="connector84pad" cx="48.6" cy="17.82" r="1.9687" fill="none" stroke="#F7BD13" stroke-width="1.1027" connectorname="GND"/>
   <g transform="matrix(0 -1 1 0 -11.076 83.463)">
    <rect id="connector25pad" x="33.996" y="46.561" width="4.3937" height="1.4173" fill="#F7BD13" stroke-width="0"/>
   </g>
   <g transform="matrix(0 -1 1 0 -8.2418 86.298)">
    <rect id="connector26pad" x="36.831" y="46.561" width="4.3937" height="1.4173" fill="#F7BD13" stroke-width="0"/>
   </g>
   <circle id="connector120pad" cx="14.754" cy="19.219" r="1.2104" fill="none" stroke="#F7BD13" stroke-width=".72" connectorname="M2"/>
   <path d="m13.544 16.435h2.4208v5.5678h-2.4208v-5.5678m0 2.7839a1.2104 1.2104 0 1 0 2.4208 0 1.2104 1.2104 0 1 0-2.4208 0z" fill="#F7BD13" stroke-width="0"/>
   <circle id="connector65pad" cx="1.8" cy="25.02" r="1.9687" fill="none" stroke="#F7BD13" stroke-width="1.1027" connectorname="A2"/>
   <path d="m-2.7279 23.051h9.0559v3.9373h-9.0559v-3.9373m2.5593 1.9687a1.9687 1.9687 0 1 0 3.9373 0 1.9687 1.9687 0 1 0-3.9373 0z" fill="#F7BD13" stroke-width="0"/>
   <circle id="connector67pad" cx="1.8" cy="32.22" r="1.9687" fill="none" stroke="#F7BD13" stroke-width="1.1027" connectorname="A3"/>
   <path d="m-2.7279 30.251h9.0559v3.9373h-9.0559v-3.9373m2.5593 1.9687a1.9687 1.9687 0 1 0 3.9373 0 1.9687 1.9687 0 1 0-3.9373 0z" fill="#F7BD13" stroke-width="0"/>
   <circle id="connector69pad" cx="1.8" cy="39.42" r="1.9687" fill="none" stroke="#F7BD13" stroke-width="1.1027" connectorname="SDA"/>
   <path d="m-2.7279 37.451h9.0559v3.9373h-9.0559v-3.9373m2.5593 1.9687a1.9687 1.9687 0 1 0 3.9373 0 1.9687 1.9687 0 1 0-3.9373 0z" fill="#F7BD13" stroke-width="0"/>
   <circle id="connector71pad" cx="1.8" cy="46.62" r="1.9687" fill="none" stroke="#F7BD13" stroke-width="1.1027" connectorname="SCL"/>
   <path d="m-2.7279 44.651h9.0559v3.9373h-9.0559v-3.9373m2.5593 1.9687a1.9687 1.9687 0 1 0 3.9373 0 1.9687 1.9687 0 1 0-3.9373 0z" fill="#F7BD13" stroke-width="0"/>
   <circle id="connector73pad" cx="1.8" cy="53.82" r="1.9687" fill="none" stroke="#F7BD13" stroke-width="1.1027" connectorname="TX"/>
   <path d="m-2.7279 51.851h9.0559v3.9373h-9.0559v-3.9373m2.5593 1.9687a1.9687 1.9687 0 1 0 3.9373 0 1.9687 1.9687 0 1 0-3.9373 0z" fill="#F7BD13" stroke-width="0"/>
   <circle id="connector75pad" cx="52.2" cy="53.82" r="1.9687" fill="none" stroke="#F7BD13" stroke-width="1.1027" connectorname="RX"/>
   <path d="m47.672 51.851h9.0559v3.9373h-9.0559v-3.9373m2.5592 1.9687a1.9687 1.9687 0 1 0 3.9373 0 1.9687 1.9687 0 1 0-3.9373 0z" fill="#F7BD13" stroke-width="0"/>
   <circle id="connector77pad" cx="52.2" cy="46.62" r="1.9687" fill="none" stroke="#F7BD13" stroke-width="1.1027" connectorname="SCK"/>
   <path d="m47.672 44.651h9.0559v3.9373h-9.0559v-3.9373m2.5592 1.9687a1.9687 1.9687 0 1 0 3.9373 0 1.9687 1.9687 0 1 0-3.9373 0z" fill="#F7BD13" stroke-width="0"/>
   <circle id="connector79pad" cx="52.2" cy="39.42" r="1.9687" fill="none" stroke="#F7BD13" stroke-width="1.1027" connectorname="MISO"/>
   <path d="m47.672 37.451h9.0559v3.9373h-9.0559v-3.9373m2.5592 1.9687a1.9687 1.9687 0 1 0 3.9373 0 1.9687 1.9687 0 1 0-3.9373 0z" fill="#F7BD13" stroke-width="0"/>
   <circle id="connector81pad" cx="52.2" cy="32.22" r="1.9687" fill="none" stroke="#F7BD13" stroke-width="1.1027" connectorname="MOSI"/>
   <path d="m47.672 30.251h9.0559v3.9373h-9.0559v-3.9373m2.5592 1.9687a1.9687 1.9687 0 1 0 3.9373 0 1.9687 1.9687 0 1 0-3.9373 0z" fill="#F7BD13" stroke-width="0"/>
   <circle id="connector83pad" cx="52.2" cy="25.02" r="1.9687" fill="none" stroke="#F7BD13" stroke-width="1.1027" connectorname="3.3V"/>
   <path d="m47.672 23.051h9.0559v3.9373h-9.0559v-3.9373m2.5592 1.9687a1.9687 1.9687 0 1 0 3.9373 0 1.9687 1.9687 0 1 0-3.9373 0z" fill="#F7BD13" stroke-width="0"/>
   <circle id="connector85pad" cx="52.2" cy="17.82" r="1.9687" fill="none" stroke="#F7BD13" stroke-width="1.1027" connectorname="GND"/>
   <path d="m47.672 15.851h9.0559v3.9373h-9.0559v-3.9373m2.5592 1.9687a1.9687 1.9687 0 1 0 3.9373 0 1.9687 1.9687 0 1 0-3.9373 0z" fill="#F7BD13" stroke-width="0"/>
   <circle id="connector87pad" cx="52.2" cy="10.62" r="1.9687" fill="none" stroke="#F7BD13" stroke-width="1.1027" connectorname="+5V"/>
   <path d="m47.672 8.6513h9.0559v3.9373h-9.0559v-3.9373m2.5592 1.9687a1.9687 1.9687 0 1 0 3.9373 0 1.9687 1.9687 0 1 0-3.9373 0z" fill="#F7BD13" stroke-width="0"/>
   <circle id="connector60pad" cx="5.4" cy="10.62" r="1.9687" fill="none" stroke="#F7BD13" stroke-width="1.1027" connectorname="A0"/>
   <circle id="connector61pad" cx="1.8" cy="10.62" r="1.9687" fill="none" stroke="#F7BD13" stroke-width="1.1027" connectorname="A0"/>
   <path d="m-2.7279 8.6513h9.0559v3.9373h-9.0559v-3.9373m2.5593 1.9687a1.9687 1.9687 0 1 0 3.9373 0 1.9687 1.9687 0 1 0-3.9373 0z" fill="#F7BD13" stroke-width="0"/>
   <circle id="connector119pad" cx="39.246" cy="19.219" r="1.2104" fill="none" stroke="#F7BD13" stroke-width=".72" connectorname="M1"/>
   <path d="m38.035 16.435h2.4208v5.5678h-2.4208v-5.5678m0 2.7839a1.2104 1.2104 0 1 0 2.4208 0 1.2104 1.2104 0 1 0-2.4208 0z" fill="#F7BD13" stroke-width="0"/>
   <circle id="connector62pad" cx="5.4" cy="17.82" r="1.9687" fill="none" stroke="#F7BD13" stroke-width="1.1027" connectorname="A1"/>
   <circle id="connector121pad" cx="39.246" cy="7.3701" r="1.2104" fill="none" stroke="#F7BD13" stroke-width=".72" connectorname="M3"/>
   <path d="m38.035 4.5862h2.4208v5.5678h-2.4208v-5.5678m0 2.7839a1.2104 1.2104 0 1 0 2.4208 0 1.2104 1.2104 0 1 0-2.4208 0z" fill="#F7BD13" stroke-width="0"/>
   <circle id="connector63pad" cx="1.8" cy="17.82" r="1.9687" fill="none" stroke="#F7BD13" stroke-width="1.1027" connectorname="A1"/>
   <path d="m-2.7279 15.851h9.0559v3.9373h-9.0559v-3.9373m2.5593 1.9687a1.9687 1.9687 0 1 0 3.9373 0 1.9687 1.9687 0 1 0-3.9373 0z" fill="#F7BD13" stroke-width="0"/>
   <circle id="connector64pad" cx="5.4" cy="25.02" r="1.9687" fill="none" stroke="#F7BD13" stroke-width="1.1027" connectorname="A2"/>
  </g>
 </g>
</svg>
