<?xml version="1.0" encoding="UTF-8"?>
<!-- Created with Fritzing (http://www.fritzing.org/) -->
<svg width=".8in" height=".945in" baseProfile="tiny" version="1.2" viewBox="0 0 57.6 68.04" xmlns="http://www.w3.org/2000/svg">
 <desc>
  <referenceFile>Adafruit TS3USB30 USB 1 to 2 Switch_pcb.svg</referenceFile>
 </desc>
 <desc>Fritzing footprint generated by brd2svg</desc>
 <g id="silkscreen">
  <path d="m57.312 10.64v49.973a6.912 6.912 0 0 1-7.128 7.139h-42.768a6.912 6.912 0 0 1-7.128-7.139v-49.973a6.912 6.912 0 0 1 7.128-7.139h42.768a6.912 6.912 0 0 1 7.128 7.139m-37.337 7.162a0.63326 0.63326 0 1 0 1.2665 0 0.63326 0.63326 0 1 0-1.2665 0zm16.384 0a0.63326 0.63326 0 1 0 1.2665 0 0.63326 0.63326 0 1 0-1.2665 0z" fill="none" stroke="#fff" stroke-width=".576"/>
  <g>
   <title>element:PLABEL17</title>
   <g>
    <title>package:PLABEL17</title>
   </g>
  </g>
  <g>
   <title>element:U$33</title>
   <g>
    <title>package:ADAFRUIT_5MM</title>
   </g>
  </g>
  <g>
   <title>element:X1</title>
   <g>
    <title>package:USB_C_CUSB31-CFM2AX-01-X</title>
    <line x1="41.471" x2="41.471" y1="11.339" y2="15.165" stroke="#fff" stroke-linecap="round" stroke-width=".288"/>
    <line x1="16.129" x2="16.129" y1="15.165" y2="11.339" stroke="#fff" stroke-linecap="round" stroke-width=".288"/>
    <line x1="16.129" x2="41.471" stroke="#fff" stroke-linecap="round" stroke-width=".288"/>
    <line x1="41.471" x2="41.471" y2="3.8268" stroke="#fff" stroke-linecap="round" stroke-width=".288"/>
    <line x1="16.129" x2="16.129" y1="3.8268" stroke="#fff" stroke-linecap="round" stroke-width=".288"/>
   </g>
  </g>
  <line x1="15.156" x2="42.48" y1=".288" y2=".288" fill="none" stroke="#fff" stroke-width=".576"/>
  <line x1="15.156" x2="15.156" y1="3.24" y2=".288" fill="none" stroke="#fff" stroke-width=".576"/>
  <line x1="42.48" x2="42.48" y1="3.24" y2=".288" fill="none" stroke="#fff" stroke-width=".576"/>
 </g>
 <g id="copper1">
  <g id="copper0">
   <circle id="connector46pad" cx="50.4" cy="10.44" r="4.0748" fill="none" stroke="#F7BD13" stroke-width="1.063" connectorname="P$1"/>
   <circle id="connector78pad" cx="16.554" cy="7.3701" r="1.1339" fill="none" stroke="#F7BD13" stroke-width=".56693" connectorname="M4"/>
   <path d="m15.42 4.7622h2.2677v5.2157h-2.2677v-5.2157m0 2.6079a1.1339 1.1339 0 1 0 2.2677 0 1.1339 1.1339 0 1 0-2.2677 0z" fill="#F7BD13" stroke-width="0"/>
   <circle id="connector44pad" cx="50.4" cy="60.84" r="4.0748" fill="none" stroke="#F7BD13" stroke-width="1.063" connectorname="P$1"/>
   <circle id="connector17pad" cx="50.4" cy="21.24" r="1.9687" fill="none" stroke="#F7BD13" stroke-width="1.1027" connectorname="VBUS"/>
   <circle id="connector18pad" cx="50.4" cy="28.44" r="1.9687" fill="none" stroke="#F7BD13" stroke-width="1.1027" connectorname="D+2"/>
   <circle id="connector19pad" cx="50.4" cy="35.64" r="1.9687" fill="none" stroke="#F7BD13" stroke-width="1.1027" connectorname="D-2"/>
   <circle id="connector20pad" cx="50.4" cy="42.84" r="1.9687" fill="none" stroke="#F7BD13" stroke-width="1.1027" connectorname="GND"/>
   <circle id="connector21pad" cx="7.2" cy="21.24" r="1.9687" fill="none" stroke="#F7BD13" stroke-width="1.1027" connectorname="VBUS"/>
   <circle id="connector22pad" cx="7.2" cy="28.44" r="1.9687" fill="none" stroke="#F7BD13" stroke-width="1.1027" connectorname="D+1"/>
   <circle id="connector76pad" cx="16.554" cy="19.219" r="1.1339" fill="none" stroke="#F7BD13" stroke-width=".56693" connectorname="M2"/>
   <path d="m15.42 16.611h2.2677v5.2157h-2.2677v-5.2157m0 2.6079a1.1339 1.1339 0 1 0 2.2677 0 1.1339 1.1339 0 1 0-2.2677 0z" fill="#F7BD13" stroke-width="0"/>
   <circle id="connector23pad" cx="7.2" cy="35.64" r="1.9687" fill="none" stroke="#F7BD13" stroke-width="1.1027" connectorname="D-1"/>
   <circle id="connector24pad" cx="7.2" cy="42.84" r="1.9687" fill="none" stroke="#F7BD13" stroke-width="1.1027" connectorname="GND"/>
   <circle id="connector45pad" cx="7.2" cy="10.44" r="4.0748" fill="none" stroke="#F7BD13" stroke-width="1.063" connectorname="P$1"/>
   <circle id="connector25pad" cx="7.2" cy="50.04" r="2.0767" fill="none" stroke="#F7BD13" stroke-width="1.3187" connectorname="!OE"/>
   <circle id="connector47pad" cx="7.2" cy="60.84" r="4.0748" fill="none" stroke="#F7BD13" stroke-width="1.063" connectorname="P$1"/>
   <circle id="connector26pad" cx="50.4" cy="50.04" r="2.0767" fill="none" stroke="#F7BD13" stroke-width="1.3187" connectorname="S"/>
   <circle id="connector27pad" cx="39.6" cy="60.84" r="1.9687" fill="none" stroke="#F7BD13" stroke-width="1.1027" connectorname="VBUS"/>
   <circle id="connector28pad" cx="32.4" cy="60.84" r="1.9687" fill="none" stroke="#F7BD13" stroke-width="1.1027" connectorname="DPH"/>
   <circle id="connector29pad" cx="25.2" cy="60.84" r="1.9687" fill="none" stroke="#F7BD13" stroke-width="1.1027" connectorname="DMH"/>
   <circle id="connector30pad" cx="18" cy="60.84" r="1.9687" fill="none" stroke="#F7BD13" stroke-width="1.1027" connectorname="GND"/>
   <circle id="connector75pad" cx="41.046" cy="19.219" r="1.1339" fill="none" stroke="#F7BD13" stroke-width=".56693" connectorname="M1"/>
   <path d="m39.912 16.611h2.2677v5.2157h-2.2677v-5.2157m0 2.6079a1.1339 1.1339 0 1 0 2.2677 0 1.1339 1.1339 0 1 0-2.2677 0z" fill="#F7BD13" stroke-width="0"/>
   <circle id="connector77pad" cx="41.046" cy="7.3701" r="1.1339" fill="none" stroke="#F7BD13" stroke-width=".56693" connectorname="M3"/>
   <path d="m39.912 4.7622h2.2677v5.2157h-2.2677v-5.2157m0 2.6079a1.1339 1.1339 0 1 0 2.2677 0 1.1339 1.1339 0 1 0-2.2677 0z" fill="#F7BD13" stroke-width="0"/>
  </g>
 </g>
</svg>
