<?xml version="1.0" encoding="UTF-8"?>
<!-- Created with Fritzing (http://www.fritzing.org/) -->
<svg width="1in" height="1in" baseProfile="tiny" version="1.2" viewBox="0 0 72 72.002" xmlns="http://www.w3.org/2000/svg">
 <desc>
  <referenceFile>Adafruit NeoDriver STEMMA QT_pcb.svg</referenceFile>
 </desc>
 <desc>Fritzing footprint generated by brd2svg</desc>
 <g id="silkscreen">
  <path d="m71.712 64.57a7.0942 7.0942 0 0 1-7.4995 7.1424h-56.782a6.912 6.912 0 0 1-7.1424-7.1424v-57.139a6.912 6.912 0 0 1 7.1424-7.1424h57.139a6.912 6.912 0 0 1 7.1424 7.1424v57.139m-68.904-57.37a2.592 2.592 0 1 0 5.184 0 2.592 2.592 0 1 0-5.184 0zm61.2 0a2.592 2.592 0 1 0 5.184 0 2.592 2.592 0 1 0-5.184 0z" fill="none" stroke="#fff" stroke-width=".576"/>
  <g>
   <title>element:PLABEL21</title>
   <g>
    <title>package:PLABEL21</title>
   </g>
  </g>
  <g>
   <title>element:U$7</title>
   <g>
    <title>package:SEESAW_LOGO</title>
   </g>
  </g>
  <g>
   <title>element:X2</title>
   <g>
    <title>package:TERMBLOCK_1X3-3.5MM</title>
    <line x1="60.803" x2="60.803" y1="24.038" y2="8.1638" stroke="#fff" stroke-linecap="round" stroke-width=".576"/>
    <line x1="60.803" x2="60.803" y1="8.1638" y2="4.1953" stroke="#fff" stroke-linecap="round" stroke-width=".576"/>
    <line x1="60.803" x2="31.039" y1="4.1953" y2="4.1953" stroke="#fff" stroke-linecap="round" stroke-width=".576"/>
    <line x1="31.039" x2="31.039" y1="4.1953" y2="8.1638" stroke="#fff" stroke-linecap="round" stroke-width=".576"/>
    <line x1="31.039" x2="31.039" y1="8.1638" y2="24.038" stroke="#fff" stroke-linecap="round" stroke-width=".576"/>
    <line x1="31.039" x2="60.803" y1="24.038" y2="24.038" stroke="#fff" stroke-linecap="round" stroke-width=".576"/>
    <line x1="60.803" x2="31.039" y1="8.1638" y2="8.1638" stroke="#fff" stroke-linecap="round" stroke-width=".576"/>
   </g>
  </g>
  <g>
   <title>element:X3</title>
   <g>
    <title>package:TERMBLOCK_1X2-3.5MM</title>
    <line x1="30.756" x2="30.756" y1="24.038" y2="8.1638" stroke="#fff" stroke-linecap="round" stroke-width=".576"/>
    <line x1="30.756" x2="30.756" y1="8.1638" y2="4.1953" stroke="#fff" stroke-linecap="round" stroke-width=".576"/>
    <line x1="30.756" x2="10.913" y1="4.1953" y2="4.1953" stroke="#fff" stroke-linecap="round" stroke-width=".576"/>
    <line x1="10.913" x2="10.913" y1="4.1953" y2="8.1638" stroke="#fff" stroke-linecap="round" stroke-width=".576"/>
    <line x1="10.913" x2="10.913" y1="8.1638" y2="24.038" stroke="#fff" stroke-linecap="round" stroke-width=".576"/>
    <line x1="10.913" x2="30.756" y1="24.038" y2="24.038" stroke="#fff" stroke-linecap="round" stroke-width=".576"/>
    <line x1="30.756" x2="10.913" y1="8.1638" y2="8.1638" stroke="#fff" stroke-linecap="round" stroke-width=".576"/>
   </g>
  </g>
 </g>
 <g id="copper1">
  <g id="copper0">
   <circle id="connector86pad" cx="45.921" cy="14.4" r="2.2567" fill="none" stroke="#F7BD13" stroke-width="1.6787" connectorname="NEOPIX_OUT"/>
   <circle id="connector62pad" cx="64.8" cy="28.8" r="4.2633" fill="none" stroke="#F7BD13" stroke-width="1.44" connectorname="P$1"/>
   <rect id="connector13pad" x="12.13" y="41.698" width="4.3937" height="1.7008" fill="#F7BD13" stroke-width="0"/>
   <rect id="connector14pad" x="12.13" y="44.532" width="4.3937" height="1.7008" fill="#F7BD13" stroke-width="0"/>
   <rect id="connector15pad" x="12.13" y="47.367" width="4.3937" height="1.7008" fill="#F7BD13" stroke-width="0"/>
   <rect id="connector16pad" x="12.13" y="50.202" width="4.3937" height="1.7008" fill="#F7BD13" stroke-width="0"/>
   <circle id="connector60pad" cx="7.2" cy="28.8" r="4.2633" fill="none" stroke="#F7BD13" stroke-width="1.44" connectorname="P$1"/>
   <g transform="matrix(-1 0 0 -1 115.35 102.82)">
    <rect id="connector19pad" x="55.477" y="50.562" width="4.3937" height="1.7008" fill="#F7BD13" stroke-width="0"/>
   </g>
   <g transform="matrix(-1 0 0 -1 115.35 97.155)">
    <rect id="connector20pad" x="55.477" y="47.727" width="4.3937" height="1.7008" fill="#F7BD13" stroke-width="0"/>
   </g>
   <g transform="matrix(-1 0 0 -1 115.35 91.485)">
    <rect id="connector21pad" x="55.477" y="44.892" width="4.3937" height="1.7008" fill="#F7BD13" stroke-width="0"/>
   </g>
   <g transform="matrix(-1 0 0 -1 115.35 85.816)">
    <rect id="connector22pad" x="55.477" y="42.058" width="4.3937" height="1.7008" fill="#F7BD13" stroke-width="0"/>
   </g>
   <circle id="connector88pad" cx="16.016" cy="14.4" r="2.2567" fill="none" stroke="#F7BD13" stroke-width="1.6787" connectorname="V+"/>
   <circle id="connector61pad" cx="7.2" cy="64.8" r="4.2633" fill="none" stroke="#F7BD13" stroke-width="1.44" connectorname="P$1"/>
   <circle id="connector63pad" cx="64.8" cy="64.8" r="4.2633" fill="none" stroke="#F7BD13" stroke-width="1.44" connectorname="P$1"/>
   <circle id="connector37pad" cx="18" cy="64.8" r="1.9687" fill="none" stroke="#F7BD13" stroke-width="1.1027" connectorname="VIN"/>
   <circle id="connector38pad" cx="25.2" cy="64.8" r="1.9687" fill="none" stroke="#F7BD13" stroke-width="1.1027" connectorname="GND"/>
   <circle id="connector39pad" cx="32.4" cy="64.8" r="1.9687" fill="none" stroke="#F7BD13" stroke-width="1.1027" connectorname="SCL"/>
   <circle id="connector40pad" cx="39.6" cy="64.8" r="1.9687" fill="none" stroke="#F7BD13" stroke-width="1.1027" connectorname="SDA"/>
   <circle id="connector41pad" cx="46.8" cy="64.8" r="1.9687" fill="none" stroke="#F7BD13" stroke-width="1.1027" connectorname="NEOPIX_OUT"/>
   <circle id="connector42pad" cx="54" cy="64.8" r="1.9687" fill="none" stroke="#F7BD13" stroke-width="1.1027" connectorname="UPDI"/>
   <circle id="connector43pad" cx="25.2" cy="28.8" r="1.9687" fill="none" stroke="#F7BD13" stroke-width="1.1027" connectorname="GND"/>
   <circle id="connector44pad" cx="18" cy="28.8" r="1.9687" fill="none" stroke="#F7BD13" stroke-width="1.1027" connectorname="V+"/>
   <circle id="connector85pad" cx="36" cy="14.4" r="2.2567" fill="none" stroke="#F7BD13" stroke-width="1.6787" connectorname="GND"/>
   <circle id="connector45pad" cx="54" cy="28.8" r="1.8967" fill="none" stroke="#F7BD13" stroke-width=".95868" connectorname="V+"/>
   <circle id="connector87pad" cx="55.842" cy="14.4" r="2.2567" fill="none" stroke="#F7BD13" stroke-width="1.6787" connectorname="V+"/>
   <circle id="connector46pad" cx="46.8" cy="28.8" r="1.8967" fill="none" stroke="#F7BD13" stroke-width=".95868" connectorname="NEOPIX_OUT"/>
   <circle id="connector89pad" cx="25.937" cy="14.4" r="2.2567" fill="none" stroke="#F7BD13" stroke-width="1.6787" connectorname="GND"/>
   <circle id="connector47pad" cx="39.6" cy="28.8" r="1.8967" fill="none" stroke="#F7BD13" stroke-width=".95868" connectorname="GND"/>
  </g>
 </g>
</svg>
