<?xml version="1.0" encoding="UTF-8"?>
<!-- Created with Fritzing (http://www.fritzing.org/) -->
<svg width="2in" height="1in" baseProfile="tiny" version="1.2" viewBox="0 0 144 72" xmlns="http://www.w3.org/2000/svg">
 <desc>
  <referenceFile>Adafruit 24-Channel 12-bit PWM LED Driver - SPI_pcb.svg</referenceFile>
 </desc>
 <desc>Fritzing footprint generated by brd2svg</desc>
 <g id="silkscreen">
  <path d="m143.71 64.57a6.912 6.912 0 0 1-7.171 7.1424h-129.08a6.912 6.912 0 0 1-7.1712-7.1424v-57.139a6.912 6.912 0 0 1 7.1712-7.1424h129.08a6.912 6.912 0 0 1 7.171 7.1424v57.139" fill="none" stroke="#fff" stroke-width=".576"/>
  <g>
   <title>element:C4</title>
   <g>
    <title>package:E3,5-8</title>
    <line x1="40.68" x2="40.68" y1="26.28" y2="28.44" stroke="#fff" stroke-linecap="round" stroke-width=".432"/>
    <line x1="39.6" x2="41.76" y1="27.36" y2="27.36" stroke="#fff" stroke-linecap="round" stroke-width=".432"/>
    <circle cx="37.44" cy="36" r="11.52" fill="none" stroke="#fff" stroke-width=".432"/>
   </g>
  </g>
  <g>
   <title>element:IC1</title>
   <g>
    <title>package:HTSSOP32DAP</title>
    <line x1="57.85" x2="89.031" y1="26.362" y2="26.362" stroke="#fff" stroke-linecap="round" stroke-width=".288"/>
    <line x1="89.031" x2="89.031" y1="26.362" y2="45.638" stroke="#fff" stroke-linecap="round" stroke-width=".288"/>
    <line x1="89.031" x2="57.85" y1="45.638" y2="45.638" stroke="#fff" stroke-linecap="round" stroke-width=".288"/>
    <line x1="57.85" x2="57.85" y1="45.638" y2="26.362" stroke="#fff" stroke-linecap="round" stroke-width=".288"/>
    <circle cx="60.542" cy="43.37" r=".92126" fill="none" stroke="#fff" stroke-width=".288"/>
   </g>
  </g>
  <g>
   <title>element:IC2</title>
   <g>
    <title>package:TO252</title>
    <line x1="117.29" x2="117.29" y1="25.128" y2="42.12" stroke="#fff" stroke-linecap="round" stroke-width=".576"/>
    <line x1="117.29" x2="98.711" y1="42.12" y2="42.12" stroke="#fff" stroke-linecap="round" stroke-width=".576"/>
    <line x1="98.711" x2="98.712" y1="42.12" y2="25.128" stroke="#fff" stroke-linecap="round" stroke-width=".576"/>
   </g>
  </g>
  <g>
   <title>element:J1</title>
   <g>
    <title>package:1X2-3.5MM</title>
   </g>
  </g>
  <g>
   <title>element:U$5</title>
   <g>
    <title>package:ADAFRUIT_TEXT_20MM</title>
   </g>
  </g>
 </g>
 <g id="copper1">
  <g id="copper0" fill="none" stroke="#F7BD13">
   <circle id="connector102pad" cx="28.8" cy="3.6" r="1.9687" stroke-width="1.1027" connectorname="+24V"/>
   <circle id="connector70pad" cx="79.2" cy="68.4" r="1.9687" stroke-width="1.1027" connectorname="+24V"/>
   <rect x="77.232" y="66.431" width="3.9373" height="3.9373" stroke-width="1.1027"/>
   <circle id="connector86pad" cx="108" cy="3.6" r="1.9687" stroke-width="1.1027" connectorname="+24V"/>
   <circle id="connector78pad" cx="115.2" cy="68.4" r="1.9687" stroke-width="1.1027" connectorname="+24V"/>
   <circle id="connector94pad" cx="64.8" cy="3.6" r="1.9687" stroke-width="1.1027" connectorname="+24V"/>
   <rect x="62.831" y="1.6313" width="3.9373" height="3.9373" stroke-width="1.1027"/>
   <circle id="connector11pad" cx="37.44" cy="30.96" r="1.71" stroke-width="1.116" connectorname="+24V"/>
   <circle id="connector110pad" cx="136.8" cy="46.8" r="1.98" stroke-width="1.08" connectorname="GND"/>
   <circle id="connector12pad" cx="37.44" cy="41.04" r="1.71" stroke-width="1.116" connectorname="GND"/>
   <circle id="connector66pad" cx="57.6" cy="68.4" r="1.9687" stroke-width="1.1027" connectorname="+24V"/>
   <circle id="connector74pad" cx="93.6" cy="68.4" r="1.9687" stroke-width="1.1027" connectorname="+24V"/>
   <circle id="connector82pad" cx="122.4" cy="3.6" r="1.9687" stroke-width="1.1027" connectorname="+24V"/>
   <rect x="120.43" y="1.6313" width="3.9373" height="3.9373" stroke-width="1.1027"/>
   <circle id="connector90pad" cx="86.4" cy="3.6" r="1.9687" stroke-width="1.1027" connectorname="+24V"/>
   <circle id="connector98pad" cx="50.4" cy="3.6" r="1.9687" stroke-width="1.1027" connectorname="+24V"/>
   <circle id="connector106pad" cx="136.8" cy="18" r="1.98" stroke-width="1.08" connectorname="LAT"/>
   <circle id="connector122pad" cx="136.8" cy="7.2" r="4.2633" stroke-width="1.44" connectorname="P$1"/>
   <circle id="connector68pad" cx="64.8" cy="68.4" r="1.9687" stroke-width="1.1027" connectorname="+24V"/>
   <circle id="connector72pad" cx="86.4" cy="68.4" r="1.9687" stroke-width="1.1027" connectorname="+24V"/>
   <circle id="connector76pad" cx="108" cy="68.4" r="1.9687" stroke-width="1.1027" connectorname="+24V"/>
   <rect x="106.03" y="66.431" width="3.9373" height="3.9373" stroke-width="1.1027"/>
   <circle id="connector80pad" cx="122.4" cy="68.4" r="1.9687" stroke-width="1.1027" connectorname="+24V"/>
   <circle id="connector84pad" cx="115.2" cy="3.6" r="1.9687" stroke-width="1.1027" connectorname="+24V"/>
   <circle id="connector88pad" cx="93.6" cy="3.6" r="1.9687" stroke-width="1.1027" connectorname="+24V"/>
   <rect x="91.632" y="1.6313" width="3.9373" height="3.9373" stroke-width="1.1027"/>
   <circle id="connector92pad" cx="79.2" cy="3.6" r="1.9687" stroke-width="1.1027" connectorname="+24V"/>
   <circle id="connector96pad" cx="57.6" cy="3.6" r="1.9687" stroke-width="1.1027" connectorname="+24V"/>
   <circle id="connector100pad" cx="36" cy="3.6" r="1.9687" stroke-width="1.1027" connectorname="+24V"/>
   <rect x="34.031" y="1.6313" width="3.9373" height="3.9373" stroke-width="1.1027"/>
   <circle id="connector104pad" cx="21.6" cy="3.6" r="1.9687" stroke-width="1.1027" connectorname="+24V"/>
   <circle id="connector108pad" cx="136.8" cy="32.4" r="1.98" stroke-width="1.08" connectorname="CLK"/>
   <circle id="connector112pad" cx="109.08" cy="49.32" r="1.98" stroke-width="1.08" connectorname="VCC"/>
   <circle id="connector124pad" cx="136.8" cy="64.8" r="4.2633" stroke-width="1.44" connectorname="P$1"/>
   <circle id="connector67pad" cx="57.6" cy="61.2" r="1.9687" stroke-width="1.1027" connectorname="PWM4"/>
   <circle id="connector69pad" cx="64.8" cy="61.2" r="1.9687" stroke-width="1.1027" connectorname="PWM5"/>
   <circle id="connector71pad" cx="79.2" cy="61.2" r="1.9687" stroke-width="1.1027" connectorname="PWM6"/>
   <circle id="connector73pad" cx="86.4" cy="61.2" r="1.9687" stroke-width="1.1027" connectorname="PWM7"/>
   <circle id="connector75pad" cx="93.6" cy="61.2" r="1.9687" stroke-width="1.1027" connectorname="PWM8"/>
   <circle id="connector77pad" cx="108" cy="61.2" r="1.9687" stroke-width="1.1027" connectorname="PWM9"/>
   <circle id="connector79pad" cx="115.2" cy="61.2" r="1.9687" stroke-width="1.1027" connectorname="PWM10"/>
   <circle id="connector81pad" cx="122.4" cy="61.2" r="1.9687" stroke-width="1.1027" connectorname="PWM11"/>
   <circle id="connector83pad" cx="122.4" cy="10.8" r="1.9687" stroke-width="1.1027" connectorname="PWM12"/>
   <circle id="connector85pad" cx="115.2" cy="10.8" r="1.9687" stroke-width="1.1027" connectorname="PWM13"/>
   <circle id="connector87pad" cx="108" cy="10.8" r="1.9687" stroke-width="1.1027" connectorname="PWM14"/>
   <circle id="connector89pad" cx="93.6" cy="10.8" r="1.9687" stroke-width="1.1027" connectorname="PWM15"/>
   <circle id="connector91pad" cx="86.4" cy="10.8" r="1.9687" stroke-width="1.1027" connectorname="PWM16"/>
   <circle id="connector93pad" cx="79.2" cy="10.8" r="1.9687" stroke-width="1.1027" connectorname="PWM17"/>
   <circle id="connector95pad" cx="64.8" cy="10.8" r="1.9687" stroke-width="1.1027" connectorname="PWM18"/>
   <circle id="connector97pad" cx="57.6" cy="10.8" r="1.9687" stroke-width="1.1027" connectorname="PWM19"/>
   <circle id="connector99pad" cx="50.4" cy="10.8" r="1.9687" stroke-width="1.1027" connectorname="PWM20"/>
   <circle id="connector52pad" cx="7.2" cy="18" r="1.98" stroke-width="1.08" connectorname="LAT"/>
   <circle id="connector101pad" cx="36" cy="10.8" r="1.9687" stroke-width="1.1027" connectorname="PWM21"/>
   <circle id="connector53pad" cx="7.2" cy="25.2" r="1.98" stroke-width="1.08" connectorname="OE"/>
   <circle id="connector103pad" cx="28.8" cy="10.8" r="1.9687" stroke-width="1.1027" connectorname="PWM22"/>
   <circle id="connector54pad" cx="7.2" cy="32.4" r="1.98" stroke-width="1.08" connectorname="CLK"/>
   <circle id="connector105pad" cx="21.6" cy="10.8" r="1.9687" stroke-width="1.1027" connectorname="PWM23"/>
   <circle id="connector55pad" cx="7.2" cy="39.6" r="1.98" stroke-width="1.08" connectorname="DIN"/>
   <circle id="connector107pad" cx="136.8" cy="25.2" r="1.98" stroke-width="1.08" connectorname="OE"/>
   <circle id="connector56pad" cx="7.2" cy="46.8" r="1.98" stroke-width="1.08" connectorname="GND"/>
   <circle id="connector109pad" cx="136.8" cy="39.6" r="1.98" stroke-width="1.08" connectorname="DOUT"/>
   <circle id="connector57pad" cx="7.2" cy="54" r="1.98" stroke-width="1.08" connectorname="+24V"/>
   <circle id="connector111pad" cx="136.8" cy="54" r="1.98" stroke-width="1.08" connectorname="+24V"/>
   <circle id="connector58pad" cx="21.6" cy="68.4" r="1.9687" stroke-width="1.1027" connectorname="+24V"/>
   <rect x="19.631" y="66.431" width="3.9373" height="3.9373" stroke-width="1.1027"/>
   <circle id="connector59pad" cx="21.6" cy="61.2" r="1.9687" stroke-width="1.1027" connectorname="PWM0"/>
   <circle id="connector115pad" cx="22.32" cy="48.96" r="1.764" stroke-width="1.224" connectorname="GND"/>
   <circle id="connector60pad" cx="28.8" cy="68.4" r="1.9687" stroke-width="1.1027" connectorname="+24V"/>
   <circle id="connector61pad" cx="28.8" cy="61.2" r="1.9687" stroke-width="1.1027" connectorname="PWM1"/>
   <circle id="connector62pad" cx="36" cy="68.4" r="1.9687" stroke-width="1.1027" connectorname="+24V"/>
   <circle id="connector121pad" cx="7.2" cy="7.2" r="4.2633" stroke-width="1.44" connectorname="P$1"/>
   <circle id="connector63pad" cx="36" cy="61.2" r="1.9687" stroke-width="1.1027" connectorname="PWM2"/>
   <circle id="connector123pad" cx="7.2" cy="64.8" r="4.2633" stroke-width="1.44" connectorname="P$1"/>
   <circle id="connector64pad" cx="50.4" cy="68.4" r="1.9687" stroke-width="1.1027" connectorname="+24V"/>
   <rect x="48.431" y="66.431" width="3.9373" height="3.9373" stroke-width="1.1027"/>
   <circle id="connector65pad" cx="50.4" cy="61.2" r="1.9687" stroke-width="1.1027" connectorname="PWM3"/>
  </g>
 </g>
</svg>
