<?xml version="1.0" encoding="UTF-8"?>
<!-- Created with Fritzing (http://www.fritzing.org/) -->
<svg width=".555in" height="1in" baseProfile="tiny" version="1.2" viewBox="0 0 39.96 72" xmlns="http://www.w3.org/2000/svg">
 <desc>
  <referenceFile>max9814_pcb.svg</referenceFile>
 </desc>
 <desc>Fritzing footprint generated by brd2svg</desc>
 <g id="silkscreen">
  <path d="m34.35 71.712h-28.74a5.112 5.112 0 0 1-5.3222-5.3568v-60.71a5.112 5.112 0 0 1 5.3222-5.3568h28.74a5.112 5.112 0 0 1 5.3222 5.3568v60.71a5.112 5.112 0 0 1-5.3222 5.3568" fill="none" stroke="#fff" stroke-width=".576"/>
  <g>
   <title>element:J2</title>
   <g>
    <title>package:1X05_ROUND_76</title>
   </g>
  </g>
  <g>
   <title>element:Q1</title>
   <g>
    <title>package:9.7ELECTRET</title>
    <circle cx="20.16" cy="20.52" r="13.609" fill="none" stroke="#fff" stroke-width=".36"/>
    <circle cx="20.16" cy="20.52" r="12.189" fill="none" stroke="#fff" stroke-width=".36"/>
   </g>
  </g>
 </g>
 <g id="copper1">
  <g id="copper0" fill="none" stroke="#F7BD13">
   <circle id="connector6pad" cx="26.64" cy="68.04" r="2.0767" stroke-width="1.3187" connectorname="VDD"/>
   <circle id="connector12pad" cx="34.2" cy="5.76" r="3.8381" stroke-width="1.44" connectorname="P$1"/>
   <circle id="connector7pad" cx="19.44" cy="68.04" r="2.0767" stroke-width="1.3187" connectorname="GAIN"/>
   <circle id="connector8pad" cx="12.24" cy="68.04" r="2.0767" stroke-width="1.3187" connectorname="OUTPUT"/>
   <circle id="connector13pad" cx="5.76" cy="5.76" r="3.8381" stroke-width="1.44" connectorname="P$1"/>
   <circle id="connector9pad" cx="5.04" cy="68.04" r="2.0767" stroke-width="1.3187" connectorname="A/R"/>
   <circle id="connector5pad" cx="33.84" cy="68.04" r="2.0767" stroke-width="1.3187" connectorname="GND"/>
  </g>
 </g>
</svg>
