<?xml version="1.0" encoding="UTF-8"?>
<!-- Created with Fritzing (http://www.fritzing.org/) -->
<svg width=".8in" height="1.15in" baseProfile="tiny" version="1.2" viewBox="0 0 57.6 82.8" xmlns="http://www.w3.org/2000/svg">
 <desc>
  <referenceFile>Adafruit AT42QT1012_pcb.svg</referenceFile>
 </desc>
 <desc>Fritzing footprint generated by brd2svg</desc>
 <g id="silkscreen">
  <path d="m0.288 7.4379a6.912 6.912 0 0 1 7.128-7.1499h42.768a6.912 6.912 0 0 1 7.128 7.1499v67.925a6.912 6.912 0 0 1-7.128 7.1496h-42.768a6.912 6.912 0 0 1-7.128-7.1496v-67.925m25.058-1.2499a3.2553 3.2553 0 1 0 6.5106 0 3.2553 3.2553 0 1 0-6.5106 0z" fill="none" stroke="#fff" stroke-width=".576"/>
  <g>
   <title>element:SW1</title>
   <g>
    <title>package:CAPTOUCH_SIMPLE_12.5MM</title>
    <path d="m19.389 12.626a9.2126 9.2126 0 0 0-9.2126 9.2126" fill="none" stroke="#fff" stroke-width=".36"/>
    <line x1="19.389" x2="37.814" y1="12.626" y2="12.626" stroke="#fff" stroke-linecap="round" stroke-width=".36"/>
    <path d="m47.027 21.838a9.2126 9.2126 0 0 0-9.2126-9.2126" fill="none" stroke="#fff" stroke-width=".36"/>
    <line x1="47.027" x2="47.027" y1="21.838" y2="40.263" stroke="#fff" stroke-linecap="round" stroke-width=".36"/>
    <path d="m37.814 49.476a9.2126 9.2126 0 0 0 9.2126-9.2126" fill="none" stroke="#fff" stroke-width=".36"/>
    <line x1="37.814" x2="19.389" y1="49.476" y2="49.476" stroke="#fff" stroke-linecap="round" stroke-width=".36"/>
    <path d="m10.176 40.263a9.2126 9.2126 0 0 0 9.2126 9.2126" fill="none" stroke="#fff" stroke-width=".36"/>
    <line x1="10.176" x2="10.176" y1="40.263" y2="21.838" stroke="#fff" stroke-linecap="round" stroke-width=".36"/>
   </g>
  </g>
 </g>
 <g id="copper1">
  <g id="copper0">
   <circle id="connector10pad" cx="43.03" cy="77.4" r="0" fill="none" stroke="#F7BD13" stroke-width="0" connectorname="CAPPAD"/>
   <circle id="connector2pad" cx="28.63" cy="77.4" r="1.9687" fill="none" stroke="#F7BD13" stroke-width="1.1027" connectorname="TIME"/>
   <circle id="connector1pad" cx="35.83" cy="77.4" r="1.9687" fill="none" stroke="#F7BD13" stroke-width="1.1027" connectorname="VDD"/>
   <circle id="connector3pad" cx="21.43" cy="77.4" r="1.9687" fill="none" stroke="#F7BD13" stroke-width="1.1027" connectorname="OUT"/>
   <circle id="connector4pad" cx="14.23" cy="77.4" r="1.9687" fill="none" stroke="#F7BD13" stroke-width="1.1027" connectorname="GND"/>
   <rect id="connector5pad" x="26.802" y="47.017" width="3.6" height="1.8" fill="#F7BD13" stroke-width="0"/>
   <circle id="connector0pad" cx="43.03" cy="77.4" r="1.9687" fill="none" stroke="#F7BD13" stroke-width="1.1027" connectorname="LEDA"/>
  </g>
 </g>
</svg>
