<?xml version="1.0" encoding="UTF-8"?>
<!-- Created with Fritzing (http://www.fritzing.org/) -->
<svg width="1.1011in" height=".8in" baseProfile="tiny" version="1.2" viewBox="0 0 79.279 57.6" xmlns="http://www.w3.org/2000/svg">
 <desc>
  <referenceFile>Adafruit AR1100 Breakout_pcb.svg</referenceFile>
 </desc>
 <desc>Fritzing footprint generated by brd2svg</desc>
 <g id="silkscreen">
  <path d="m7.5145 0.288h64.329a6.912 6.912 0 0 1 7.1475 7.128v42.768a6.912 6.912 0 0 1-7.1475 7.128h-64.329a6.912 6.912 0 0 1-7.1477-7.128v-42.768a6.912 6.912 0 0 1 7.1477-7.128m7.2302 22.276a1.1293 1.1293 0 1 0 2.2586 0 1.1293 1.1293 0 1 0-2.2586 0zm0 12.472a1.1293 1.1293 0 1 0 2.2586 0 1.1293 1.1293 0 1 0-2.2586 0z" fill="none" stroke="#fff" stroke-width=".576"/>
  <g>
   <title>element:IC1</title>
   <g>
    <title>package:TSSOP20-5.3MMBODY</title>
    <line x1="51.374" x2="51.374" y1="31.651" y2="13.709" stroke="#fff" stroke-linecap="round" stroke-width=".432"/>
    <line x1="34.464" x2="51.374" y1="13.709" y2="13.709" stroke="#fff" stroke-linecap="round" stroke-width=".432"/>
    <line x1="34.464" x2="34.464" y1="13.709" y2="31.651" stroke="#fff" stroke-linecap="round" stroke-width=".432"/>
    <line x1="51.374" x2="34.464" y1="31.651" y2="31.651" stroke="#fff" stroke-linecap="round" stroke-width=".432"/>
    <line x1="50.726" x2="50.726" y1="31.003" y2="14.357" stroke="#fff" stroke-linecap="round" stroke-width=".144"/>
    <line x1="35.112" x2="50.726" y1="14.357" y2="14.357" stroke="#fff" stroke-linecap="round" stroke-width=".144"/>
    <line x1="35.112" x2="35.112" y1="14.357" y2="31.003" stroke="#fff" stroke-linecap="round" stroke-width=".144"/>
    <line x1="50.726" x2="35.112" y1="31.003" y2="31.003" stroke="#fff" stroke-linecap="round" stroke-width=".144"/>
    <circle cx="46.375" cy="29.131" r="1.296" fill="none" stroke="#fff" stroke-width=".432"/>
   </g>
  </g>
  <g>
   <title>element:U$7</title>
   <g>
    <title>package:FPC_CONN_1MM_DUAL_4P</title>
    <line x1="66.319" x2="66.319" y1="36.147" y2="18.573" stroke="#fff" stroke-linecap="round" stroke-width=".36"/>
    <line x1="66.319" x2="79.075" y1="18.573" y2="18.573" stroke="#fff" stroke-linecap="round" stroke-width=".36"/>
    <line x1="79.075" x2="79.075" y1="18.573" y2="36.147" stroke="#fff" stroke-linecap="round" stroke-width=".36"/>
    <line x1="79.075" x2="66.319" y1="36.147" y2="36.147" stroke="#fff" stroke-linecap="round" stroke-width=".36"/>
   </g>
  </g>
  <g>
   <title>element:U$17</title>
   <g>
    <title>package:ADAFRUIT_TEXT_20MM</title>
   </g>
  </g>
  <g>
   <title>element:X1</title>
   <g>
    <title>package:USB-MINIB</title>
   </g>
  </g>
  <line x1=".288" x2=".07937" y1="43.115" y2="43.115" fill="none" stroke="#fff" stroke-width=".576"/>
  <line x1=".288" x2=".07937" y1="14.4" y2="14.4" fill="none" stroke="#fff" stroke-width=".576"/>
  <line x1=".288" x2=".288" y1="43.115" y2="14.4" fill="none" stroke="#fff" stroke-width=".576"/>
 </g>
 <g id="copper1">
  <g id="copper0" fill="none" stroke="#F7BD13">
   <circle id="connector54pad" cx="72.079" cy="7.2" r="4.2633" stroke-width="1.44" connectorname="P$1"/>
   <circle id="connector11pad" cx="50.479" cy="54" r="1.98" stroke-width="1.08" connectorname="X+"/>
   <circle id="connector12pad" cx="43.279" cy="54" r="1.98" stroke-width="1.08" connectorname="Y+"/>
   <circle id="connector13pad" cx="36.079" cy="54" r="1.98" stroke-width="1.08" connectorname="Y-"/>
   <circle id="connector14pad" cx="28.879" cy="54" r="1.98" stroke-width="1.08" connectorname="X-"/>
   <circle id="connector15pad" cx="50.479" cy="3.6" r="1.98" stroke-width="1.08" connectorname="V+"/>
   <circle id="connector16pad" cx="43.279" cy="3.6" r="1.98" stroke-width="1.08" connectorname="GND"/>
   <circle id="connector52pad" cx="7.2793" cy="50.4" r="4.2633" stroke-width="1.44" connectorname="P$1"/>
   <circle id="connector17pad" cx="36.079" cy="3.6" r="1.98" stroke-width="1.08" connectorname="TX"/>
   <circle id="connector18pad" cx="28.879" cy="3.6" r="1.98" stroke-width="1.08" connectorname="RX"/>
   <circle id="connector53pad" cx="7.2793" cy="7.2" r="4.2633" stroke-width="1.44" connectorname="P$1"/>
   <circle id="connector55pad" cx="72.079" cy="50.4" r="4.2633" stroke-width="1.44" connectorname="P$1"/>
  </g>
 </g>
</svg>
