<?xml version="1.0" encoding="UTF-8"?>
<!-- Created with Fritzing (http://www.fritzing.org/) -->
<svg width="1.3733in" height=".8in" baseProfile="tiny" version="1.2" viewBox="0 0 98.88 57.6" xmlns="http://www.w3.org/2000/svg">
 <desc>
  <referenceFile>Adafruit PCM510x I2S DAC_pcb.svg</referenceFile>
 </desc>
 <desc>Fritzing footprint generated by brd2svg</desc>
 <g id="silkscreen">
  <path d="m7.446 0.288h71.58a6.912 6.912 0 0 1 7.1582 7.128v42.768a6.912 6.912 0 0 1-7.1582 7.128h-71.58a6.912 6.912 0 0 1-7.158-7.128v-42.768a6.912 6.912 0 0 1 7.158-7.128m69.842 28.512a1.6963 1.6963 0 1 0 3.3925 0 1.6963 1.6963 0 1 0-3.3925 0zm-19.843 0.2835a1.6963 1.6963 0 1 0 3.3925 0 1.6963 1.6963 0 1 0-3.3925 0z" fill="none" stroke="#fff" stroke-width=".576"/>
  <g>
   <title>element:JP2</title>
   <g>
    <title>package:1X08_ROUND</title>
   </g>
  </g>
  <g>
   <title>element:PLABEL16</title>
   <g>
    <title>package:PLABEL16</title>
   </g>
  </g>
  <g>
   <title>element:PLABEL18</title>
   <g>
    <title>package:PLABEL18</title>
   </g>
  </g>
  <g>
   <title>element:PLABEL19</title>
   <g>
    <title>package:PLABEL19</title>
   </g>
  </g>
  <g>
   <title>element:X1</title>
   <g>
    <title>package:TSSOP20</title>
    <line x1="28.089" x2="28.089" y1="23.069" y2="41.861" stroke="#fff" stroke-linecap="round" stroke-width=".432"/>
    <line x1="41.031" x2="28.089" y1="41.861" y2="41.861" stroke="#fff" stroke-linecap="round" stroke-width=".432"/>
    <line x1="41.031" x2="41.031" y1="41.861" y2="23.069" stroke="#fff" stroke-linecap="round" stroke-width=".432"/>
    <line x1="28.089" x2="41.031" y1="23.069" y2="23.069" stroke="#fff" stroke-linecap="round" stroke-width=".432"/>
    <line x1="28.737" x2="28.737" y1="23.717" y2="41.213" stroke="#fff" stroke-linecap="round" stroke-width=".144"/>
    <line x1="40.383" x2="28.737" y1="41.213" y2="41.213" stroke="#fff" stroke-linecap="round" stroke-width=".144"/>
    <line x1="40.383" x2="40.383" y1="41.213" y2="23.717" stroke="#fff" stroke-linecap="round" stroke-width=".144"/>
    <line x1="28.737" x2="40.383" y1="23.717" y2="23.717" stroke="#fff" stroke-linecap="round" stroke-width=".144"/>
    <circle cx="31.104" cy="25.589" r="1.296" fill="none" stroke="#fff" stroke-width=".432"/>
   </g>
  </g>
  <g>
   <title>element:X3</title>
   <g>
    <title>package:PJ-332A</title>
    <line x1="52.588" x2="52.588" y1="19.984" y2="37.736" stroke="#fff" stroke-linecap="round" stroke-width=".432"/>
    <line x1="52.588" x2="74.899" y1="37.736" y2="37.736" stroke="#fff" stroke-linecap="round" stroke-width=".432"/>
    <line x1="74.899" x2="82.756" y1="37.736" y2="37.736" stroke="#fff" stroke-linecap="round" stroke-width=".432"/>
    <line x1="82.756" x2="86.355" y1="37.736" y2="37.736" stroke="#fff" stroke-linecap="round" stroke-width=".432"/>
    <line x1="86.355" x2="86.355" y1="37.736" y2="19.864" stroke="#fff" stroke-linecap="round" stroke-width=".432"/>
    <line x1="86.355" x2="82.756" y1="19.864" y2="19.864" stroke="#fff" stroke-linecap="round" stroke-width=".432"/>
    <line x1="82.756" x2="52.588" y1="19.864" y2="19.864" stroke="#fff" stroke-linecap="round" stroke-width=".432"/>
    <line x1="52.588" x2="52.588" y1="19.864" y2="19.924" stroke="#fff" stroke-linecap="round" stroke-width=".432"/>
    <line x1="86.414" x2="91.992" y1="21.723" y2="21.723" stroke="#fff" stroke-linecap="round" stroke-width=".432"/>
    <line x1="91.992" x2="91.992" y1="21.723" y2="35.937" stroke="#fff" stroke-linecap="round" stroke-width=".432"/>
    <line x1="91.992" x2="86.355" y1="35.937" y2="35.937" stroke="#fff" stroke-linecap="round" stroke-width=".432"/>
    <line x1="82.756" x2="82.756" y1="19.864" y2="25.981" stroke="#fff" stroke-linecap="round" stroke-width=".432"/>
    <line x1="82.756" x2="81.317" y1="25.981" y2="25.981" stroke="#fff" stroke-linecap="round" stroke-width=".432"/>
    <line x1="81.317" x2="81.317" y1="25.981" y2="31.979" stroke="#fff" stroke-linecap="round" stroke-width=".432"/>
    <line x1="81.317" x2="82.756" y1="31.979" y2="31.979" stroke="#fff" stroke-linecap="round" stroke-width=".432"/>
    <line x1="82.756" x2="82.756" y1="31.979" y2="37.736" stroke="#fff" stroke-linecap="round" stroke-width=".432"/>
    <line x1="74.899" x2="74.899" y1="19.924" y2="37.736" stroke="#fff" stroke-linecap="round" stroke-width=".432"/>
   </g>
  </g>
 </g>
 <g id="copper1">
  <g id="copper0" fill="none" stroke="#F7BD13">
   <circle id="connector66pad" cx="79.2" cy="50.4" r="4.2633" stroke-width="1.44" connectorname="P$1"/>
   <circle id="connector68pad" cx="79.2" cy="7.2" r="4.2633" stroke-width="1.44" connectorname="P$1"/>
   <circle id="connector65pad" cx="7.2" cy="50.4" r="4.2633" stroke-width="1.44" connectorname="P$1"/>
   <circle id="connector67pad" cx="7.2" cy="7.2" r="4.2633" stroke-width="1.44" connectorname="P$1"/>
   <circle id="connector37pad" cx="61.2" cy="7.2" r="1.9687" stroke-width="1.1027" connectorname="3.3V"/>
   <circle id="connector38pad" cx="54" cy="7.2" r="1.9687" stroke-width="1.1027" connectorname="FORMAT"/>
   <circle id="connector39pad" cx="46.8" cy="7.2" r="1.9687" stroke-width="1.1027" connectorname="MUTE"/>
   <circle id="connector40pad" cx="39.6" cy="7.2" r="1.9687" stroke-width="1.1027" connectorname="SCK_IN"/>
   <circle id="connector41pad" cx="32.4" cy="7.2" r="1.9687" stroke-width="1.1027" connectorname="FILTER"/>
   <circle id="connector42pad" cx="25.2" cy="7.2" r="1.9687" stroke-width="1.1027" connectorname="DEMPH"/>
   <circle id="connector43pad" cx="18" cy="50.4" r="1.8967" stroke-width=".95868" connectorname="VIN"/>
   <circle id="connector44pad" cx="25.2" cy="50.4" r="1.8967" stroke-width=".95868" connectorname="AGND"/>
   <circle id="connector45pad" cx="32.4" cy="50.4" r="1.8967" stroke-width=".95868" connectorname="WORDSEL_IN"/>
   <circle id="connector46pad" cx="39.6" cy="50.4" r="1.8967" stroke-width=".95868" connectorname="DATA_IN"/>
   <circle id="connector47pad" cx="46.8" cy="50.4" r="1.8967" stroke-width=".95868" connectorname="BITCLK_IN"/>
   <circle id="connector48pad" cx="54" cy="50.4" r="1.8967" stroke-width=".95868" connectorname="OUTL"/>
   <circle id="connector49pad" cx="61.2" cy="50.4" r="1.8967" stroke-width=".95868" connectorname="AGND"/>
   <circle id="connector50pad" cx="68.4" cy="50.4" r="1.8967" stroke-width=".95868" connectorname="OUTR"/>
  </g>
 </g>
</svg>
