<?xml version="1.0" encoding="UTF-8"?>
<!-- Created with Fritzing (http://www.fritzing.org/) -->
<svg width=".8in" height="1.14in" baseProfile="tiny" version="1.2" viewBox="0 0 57.6 82.08" xmlns="http://www.w3.org/2000/svg">
 <desc>
  <referenceFile>Adafruit USB Type C PD Switchable_pcb.svg</referenceFile>
 </desc>
 <desc>Fritzing footprint generated by brd2svg</desc>
 <g id="silkscreen">
  <path d="m57.312 10.655v63.988a6.912 6.912 0 0 1-7.128 7.1496h-42.768a6.912 6.912 0 0 1-7.128-7.1496v-63.988a6.912 6.912 0 0 1 7.128-7.1494h42.768a6.912 6.912 0 0 1 7.128 7.1494m-37.337 7.1469a0.63326 0.63326 0 1 0 1.2665 0 0.63326 0.63326 0 1 0-1.2665 0zm16.384 0a0.63326 0.63326 0 1 0 1.2665 0 0.63326 0.63326 0 1 0-1.2665 0z" fill="none" stroke="#fff" stroke-width=".576"/>
  <g>
   <title>element:CONN1</title>
   <g>
    <title>package:JST_SH4</title>
    <line x1="6.2858" x2="13.656" y1="27.496" y2="27.496" stroke="#fff" stroke-linecap="round" stroke-width=".432"/>
    <line x1="13.656" x2="13.656" y1="27.496" y2="30.614" stroke="#fff" stroke-linecap="round" stroke-width=".432"/>
    <line x1="13.656" x2="13.656" y1="41.386" y2="44.787" stroke="#fff" stroke-linecap="round" stroke-width=".432"/>
    <line x1="13.656" x2="6.2858" y1="44.787" y2="44.787" stroke="#fff" stroke-linecap="round" stroke-width=".432"/>
    <line x1="1.4669" x2="1.4669" y1="30.047" y2="41.953" stroke="#fff" stroke-linecap="round" stroke-width=".432"/>
   </g>
  </g>
  <g>
   <title>element:DIP1</title>
   <g>
    <title>package:DIPSWITCH_6PIN_1.27</title>
    <line x1="51.934" x2="51.934" y1="35.186" y2="57.694" stroke="#fff" stroke-linecap="round" stroke-width=".576"/>
    <line x1="36.626" x2="36.626" y1="35.186" y2="57.694" stroke="#fff" stroke-linecap="round" stroke-width=".576"/>
    <line x1="51.934" x2="36.626" y1="57.694" y2="57.694" stroke="#fff" stroke-linecap="round" stroke-width=".576"/>
    <line x1="51.934" x2="36.626" y1="35.186" y2="35.186" stroke="#fff" stroke-linecap="round" stroke-width=".576"/>
   </g>
  </g>
  <g>
   <title>element:PLABEL9</title>
   <g>
    <title>package:PLABEL9</title>
   </g>
  </g>
  <g>
   <title>element:PLABEL10</title>
   <g>
    <title>package:PLABEL10</title>
   </g>
  </g>
  <g>
   <title>element:X1</title>
   <g>
    <title>package:USB_C_CUSB31-CFM2AX-01-X</title>
    <line x1="41.471" x2="41.471" y1="11.339" y2="15.165" stroke="#fff" stroke-linecap="round" stroke-width=".288"/>
    <line x1="16.129" x2="16.129" y1="15.165" y2="11.339" stroke="#fff" stroke-linecap="round" stroke-width=".288"/>
    <line x1="16.129" x2="41.471" stroke="#fff" stroke-linecap="round" stroke-width=".288"/>
    <line x1="41.471" x2="41.471" y2="3.8268" stroke="#fff" stroke-linecap="round" stroke-width=".288"/>
    <line x1="16.129" x2="16.129" y1="3.8268" stroke="#fff" stroke-linecap="round" stroke-width=".288"/>
   </g>
  </g>
  <g>
   <title>element:X4</title>
   <g>
    <title>package:TERMBLOCK_1X2-3.5MM</title>
    <line x1="19.162" x2="19.162" y1="61.642" y2="77.516" stroke="#fff" stroke-linecap="round" stroke-width=".576"/>
    <line x1="19.162" x2="19.162" y1="77.516" y2="81.485" stroke="#fff" stroke-linecap="round" stroke-width=".576"/>
    <line x1="19.162" x2="39.005" y1="81.485" y2="81.485" stroke="#fff" stroke-linecap="round" stroke-width=".576"/>
    <line x1="39.005" x2="39.005" y1="81.485" y2="77.516" stroke="#fff" stroke-linecap="round" stroke-width=".576"/>
    <line x1="39.005" x2="39.005" y1="77.516" y2="61.642" stroke="#fff" stroke-linecap="round" stroke-width=".576"/>
    <line x1="39.005" x2="19.162" y1="61.642" y2="61.642" stroke="#fff" stroke-linecap="round" stroke-width=".576"/>
    <line x1="19.162" x2="39.005" y1="77.516" y2="77.516" stroke="#fff" stroke-linecap="round" stroke-width=".576"/>
   </g>
  </g>
  <line x1="15.156" x2="42.48" y1=".288" y2=".288" fill="none" stroke="#fff" stroke-width=".576"/>
  <line x1="15.156" x2="15.156" y1="3.24" y2=".288" fill="none" stroke="#fff" stroke-width=".576"/>
  <line x1="42.48" x2="42.48" y1="3.24" y2=".288" fill="none" stroke="#fff" stroke-width=".576"/>
 </g>
 <g id="copper1">
  <g id="copper0">
   <circle id="connector102pad" cx="23.981" cy="71.28" r="2.2567" fill="none" stroke="#F7BD13" stroke-width="1.6787" connectorname="VOUT"/>
   <circle id="connector70pad" cx="50.04" cy="10.44" r="4.2633" fill="none" stroke="#F7BD13" stroke-width="1.44" connectorname="P$1"/>
   <circle id="connector86pad" cx="41.046" cy="19.219" r="1.2104" fill="none" stroke="#F7BD13" stroke-width=".72" connectorname="M1"/>
   <path d="m39.835 16.435h2.4208v5.5678h-2.4208v-5.5678m0 2.7839a1.2104 1.2104 0 1 0 2.4208 0 1.2104 1.2104 0 1 0-2.4208 0z" fill="#F7BD13" stroke-width="0"/>
   <rect id="connector13pad" x="12.31" y="30.898" width="4.3937" height="1.7008" fill="#F7BD13" stroke-width="0"/>
   <rect id="connector14pad" x="12.31" y="33.732" width="4.3937" height="1.7008" fill="#F7BD13" stroke-width="0"/>
   <rect id="connector15pad" x="12.31" y="36.567" width="4.3937" height="1.7008" fill="#F7BD13" stroke-width="0"/>
   <rect id="connector16pad" x="12.31" y="39.402" width="4.3937" height="1.7008" fill="#F7BD13" stroke-width="0"/>
   <circle id="connector72pad" cx="7.2" cy="74.88" r="4.2633" fill="none" stroke="#F7BD13" stroke-width="1.44" connectorname="P$1"/>
   <circle id="connector88pad" cx="41.046" cy="7.3701" r="1.2104" fill="none" stroke="#F7BD13" stroke-width=".72" connectorname="M3"/>
   <path d="m39.835 4.5862h2.4208v5.5678h-2.4208v-5.5678m0 2.7839a1.2104 1.2104 0 1 0 2.4208 0 1.2104 1.2104 0 1 0-2.4208 0z" fill="#F7BD13" stroke-width="0"/>
   <circle id="connector35pad" cx="46.8" cy="64.08" r="1.9687" fill="none" stroke="#F7BD13" stroke-width="1.1027" connectorname="VBUS"/>
   <circle id="connector36pad" cx="54" cy="64.08" r="1.9687" fill="none" stroke="#F7BD13" stroke-width="1.1027" connectorname="N$2"/>
   <circle id="connector37pad" cx="54" cy="20.16" r="1.9687" fill="none" stroke="#F7BD13" stroke-width="1.1027" connectorname="D+"/>
   <circle id="connector71pad" cx="6.84" cy="10.44" r="4.2633" fill="none" stroke="#F7BD13" stroke-width="1.44" connectorname="P$1"/>
   <circle id="connector38pad" cx="46.8" cy="20.16" r="1.9687" fill="none" stroke="#F7BD13" stroke-width="1.1027" connectorname="D-"/>
   <circle id="connector73pad" cx="50.4" cy="74.88" r="4.2633" fill="none" stroke="#F7BD13" stroke-width="1.44" connectorname="P$1"/>
   <circle id="connector87pad" cx="16.554" cy="19.219" r="1.2104" fill="none" stroke="#F7BD13" stroke-width=".72" connectorname="M2"/>
   <path d="m15.344 16.435h2.4208v5.5678h-2.4208v-5.5678m0 2.7839a1.2104 1.2104 0 1 0 2.4208 0 1.2104 1.2104 0 1 0-2.4208 0z" fill="#F7BD13" stroke-width="0"/>
   <circle id="connector89pad" cx="16.554" cy="7.3701" r="1.2104" fill="none" stroke="#F7BD13" stroke-width=".72" connectorname="M4"/>
   <path d="m15.344 4.5862h2.4208v5.5678h-2.4208v-5.5678m0 2.7839a1.2104 1.2104 0 1 0 2.4208 0 1.2104 1.2104 0 1 0-2.4208 0z" fill="#F7BD13" stroke-width="0"/>
   <circle id="connector101pad" cx="33.902" cy="71.28" r="2.2567" fill="none" stroke="#F7BD13" stroke-width="1.6787" connectorname="GND"/>
  </g>
 </g>
</svg>
