<?xml version="1.0" encoding="UTF-8"?>
<!-- Created with Fritzing (http://www.fritzing.org/) -->
<svg width="1.2in" height="1.1925in" version="1.2" viewBox="0 0 86.4 85.86" xmlns="http://www.w3.org/2000/svg">
 <desc>
  <referenceFile>Adafruit Si5351A Clock Generator_pcb.svg</referenceFile>
 </desc>
 <metadata>
  <rdf:RDF xmlns:rdf="http://www.w3.org/1999/02/22-rdf-syntax-ns#">
   <cc:Work rdf:about="" xmlns:cc="http://creativecommons.org/ns#" xmlns:rdf="http://www.w3.org/1999/02/22-rdf-syntax-ns#">
    <dc:format xmlns:dc="http://purl.org/dc/elements/1.1/">image/svg+xml</dc:format>
    <dc:type rdf:resource="http://purl.org/dc/dcmitype/StillImage" xmlns:dc="http://purl.org/dc/elements/1.1/" xmlns:rdf="http://www.w3.org/1999/02/22-rdf-syntax-ns#"/>
    <dc:title xmlns:dc="http://purl.org/dc/elements/1.1/"/>
   </cc:Work>
  </rdf:RDF>
 </metadata>
 <desc>Fritzing footprint generated by brd2svg</desc>
 <g id="silkscreen">
  <path d="m0.288 78.42v-46.486a6.912 6.912 0 0 1 7.152-7.1517h71.52a6.912 6.912 0 0 1 7.1518 7.1517v46.486a6.912 6.912 0 0 1-7.1518 7.1518h-71.52a6.912 6.912 0 0 1-7.152-7.1518" fill="none" stroke="#fff" stroke-width=".576"/>
  <g>
   <title>element:U$23</title>
   <g>
    <title>package:ADAFRUIT_TEXT_20MM</title>
   </g>
  </g>
  <g>
   <title>element:X1</title>
   <g>
    <title>package:SMA_EDGELAUNCH</title>
   </g>
  </g>
  <g>
   <title>element:X2</title>
   <g>
    <title>package:SMA_EDGELAUNCH</title>
   </g>
  </g>
  <g>
   <title>element:X3</title>
   <g>
    <title>package:SMA_EDGELAUNCH</title>
   </g>
  </g>
  <line x1=".288" x2="28.8" y1=".288" y2=".288" fill="none" stroke="#fff" stroke-width=".576"/>
  <line x1=".288" x2=".288" y1="24.66" y2=".288" fill="none" stroke="#fff" stroke-width=".576"/>
  <line x1="28.8" x2="28.8" y1="24.66" y2=".288" fill="none" stroke="#fff" stroke-width=".576"/>
  <line x1="28.8" x2="57.6" y1=".288" y2=".288" fill="none" stroke="#fff" stroke-width=".576"/>
  <line x1="28.8" x2="28.8" y1="24.66" y2=".288" fill="none" stroke="#fff" stroke-width=".576"/>
  <line x1="57.6" x2="57.6" y1="24.66" y2=".288" fill="none" stroke="#fff" stroke-width=".576"/>
  <line x1="57.6" x2="86.112" y1=".288" y2=".288" fill="none" stroke="#fff" stroke-width=".576"/>
  <line x1="57.6" x2="57.6" y1="24.66" y2=".288" fill="none" stroke="#fff" stroke-width=".576"/>
  <line x1="86.112" x2="86.112" y1="24.66" y2=".288" fill="none" stroke="#fff" stroke-width=".576"/>
 </g>
 <g id="copper1">
  <g id="copper0" fill="none" stroke="#F7BD13">
   <circle id="connector31pad" cx="79.2" cy="78.66" r="4.2633" stroke-width="1.44" connectorname="P$1"/>
   <circle id="connector10pad" cx="64.8" cy="78.66" r="2.0767" stroke-width="1.3187" connectorname="VIN"/>
   <rect x="62.723" y="76.584" width="4.1533" height="4.1533" stroke-width="1.3187"/>
   <circle id="connector11pad" cx="57.6" cy="78.66" r="2.0767" stroke-width="1.3187" connectorname="GND"/>
   <circle id="connector12pad" cx="50.4" cy="78.66" r="2.0767" stroke-width="1.3187" connectorname="SDA"/>
   <circle id="connector13pad" cx="43.2" cy="78.66" r="2.0767" stroke-width="1.3187" connectorname="SCL"/>
   <circle id="connector14pad" cx="36" cy="78.66" r="2.0767" stroke-width="1.3187" connectorname="CLK2"/>
   <circle id="connector15pad" cx="28.8" cy="78.66" r="2.0767" stroke-width="1.3187" connectorname="CLK1"/>
   <circle id="connector32pad" cx="7.2" cy="78.66" r="4.2633" stroke-width="1.44" connectorname="P$1"/>
   <circle id="connector16pad" cx="21.6" cy="78.66" r="2.0767" stroke-width="1.3187" connectorname="CLK0"/>
  </g>
 </g>
</svg>
