<?xml version="1.0" encoding="UTF-8"?>
<!-- Created with Fritzing (http://www.fritzing.org/) -->
<svg width="2.1032in" height=".825in" baseProfile="tiny" version="1.2" viewBox="0 0 151.43 59.4" xmlns="http://www.w3.org/2000/svg">
 <desc>
  <referenceFile>picowbell proto rev B_pcb.svg</referenceFile>
 </desc>
 <desc>Fritzing footprint generated by brd2svg</desc>
 <g id="silkscreen">
  <path d="m2.1659 58.221v-57.041h147.04v57.041h-147.04m142.18-25.261a1.1293 1.1293 0 1 0 2.2586 0 1.1293 1.1293 0 1 0-2.2586 0zm0-6.5198a1.1293 1.1293 0 1 0 2.2586 0 1.1293 1.1293 0 1 0-2.2586 0z" fill="none" stroke="#fff" stroke-width=".576"/>
  <line x1="7.285" x2="7.285" y1="4.5" y2="13.14" stroke="#fff" stroke-linecap="round" stroke-width="2.304"/>
  <line x1="14.485" x2="14.485" y1="12.78" y2="4.5" stroke="#fff" stroke-linecap="round" stroke-width="2.304"/>
  <line x1="36.085" x2="36.085" y1="4.5" y2="40.5" stroke="#fff" stroke-linecap="round" stroke-width="2.304"/>
  <line x1="28.885" x2="28.885" y1="4.5" y2="11.7" stroke="#fff" stroke-linecap="round" stroke-width="2.304"/>
  <line x1="43.285" x2="43.285" y1="4.5" y2="11.7" stroke="#fff" stroke-linecap="round" stroke-width="2.304"/>
  <line x1="50.485" x2="50.485" y1="4.5" y2="11.7" stroke="#fff" stroke-linecap="round" stroke-width="2.304"/>
  <line x1="64.885" x2="64.885" y1="4.5" y2="11.7" stroke="#fff" stroke-linecap="round" stroke-width="2.304"/>
  <line x1="72.085" x2="72.085" y1="4.5" y2="11.7" stroke="#fff" stroke-linecap="round" stroke-width="2.304"/>
  <line x1="79.285" x2="79.285" y1="4.5" y2="11.7" stroke="#fff" stroke-linecap="round" stroke-width="2.304"/>
  <line x1="86.485" x2="86.485" y1="11.7" y2="4.5" stroke="#fff" stroke-linecap="round" stroke-width="2.304"/>
  <line x1="100.88" x2="100.88" y1="4.5" y2="11.7" stroke="#fff" stroke-linecap="round" stroke-width="2.304"/>
  <line x1="108.08" x2="108.08" y1="11.7" y2="4.5" stroke="#fff" stroke-linecap="round" stroke-width="2.304"/>
  <line x1="115.28" x2="115.28" y1="4.5" y2="11.7" stroke="#fff" stroke-linecap="round" stroke-width="2.304"/>
  <line x1="122.48" x2="122.48" y1="4.5" y2="11.7" stroke="#fff" stroke-linecap="round" stroke-width="2.304"/>
  <line x1="136.88" x2="136.88" y1="4.5" y2="11.7" stroke="#fff" stroke-linecap="round" stroke-width="2.304"/>
  <line x1="144.08" x2="144.08" y1="4.5" y2="11.7" stroke="#fff" stroke-linecap="round" stroke-width="2.304"/>
  <line x1="122.48" x2="122.48" y1="47.7" y2="54.9" stroke="#fff" stroke-linecap="round" stroke-width="2.304"/>
  <line x1="115.28" x2="115.28" y1="54.9" y2="47.7" stroke="#fff" stroke-linecap="round" stroke-width="2.304"/>
  <line x1="108.08" x2="108.08" y1="47.7" y2="54.9" stroke="#fff" stroke-linecap="round" stroke-width="2.304"/>
  <line x1="100.88" x2="100.88" y1="54.9" y2="47.7" stroke="#fff" stroke-linecap="round" stroke-width="2.304"/>
  <line x1="136.88" x2="136.88" y1="47.7" y2="54.9" stroke="#fff" stroke-linecap="round" stroke-width="2.304"/>
  <line x1="144.08" x2="144.08" y1="47.7" y2="54.9" stroke="#fff" stroke-linecap="round" stroke-width="2.304"/>
  <line x1="86.485" x2="86.485" y1="47.7" y2="54.9" stroke="#fff" stroke-linecap="round" stroke-width="2.304"/>
  <line x1="79.285" x2="79.285" y1="54.9" y2="47.7" stroke="#fff" stroke-linecap="round" stroke-width="2.304"/>
  <line x1="72.085" x2="72.085" y1="47.7" y2="54.9" stroke="#fff" stroke-linecap="round" stroke-width="2.304"/>
  <line x1="64.885" x2="64.885" y1="54.9" y2="47.7" stroke="#fff" stroke-linecap="round" stroke-width="2.304"/>
  <line x1="50.485" x2="50.485" y1="47.7" y2="54.9" stroke="#fff" stroke-linecap="round" stroke-width="2.304"/>
  <line x1="43.285" x2="43.285" y1="54.9" y2="47.7" stroke="#fff" stroke-linecap="round" stroke-width="2.304"/>
  <line x1="36.085" x2="36.085" y1="47.7" y2="54.9" stroke="#fff" stroke-linecap="round" stroke-width="2.304"/>
  <line x1="28.885" x2="28.885" y1="54.9" y2="47.7" stroke="#fff" stroke-linecap="round" stroke-width="2.304"/>
  <line x1="14.485" x2="14.485" y1="47.7" y2="54.9" stroke="#fff" stroke-linecap="round" stroke-width="2.304"/>
  <line x1="7.285" x2="7.285" y1="54.9" y2="47.7" stroke="#fff" stroke-linecap="round" stroke-width="2.304"/>
  <line x1="43.285" x2="43.465" y1="19.08" y2="40.86" stroke="#fff" stroke-linecap="round" stroke-width="2.304"/>
  <line x1="50.485" x2="50.665" y1="19.08" y2="40.86" stroke="#fff" stroke-linecap="round" stroke-width="2.304"/>
  <line x1="57.685" x2="57.865" y1="19.08" y2="40.86" stroke="#fff" stroke-linecap="round" stroke-width="2.304"/>
  <line x1="64.885" x2="65.065" y1="19.08" y2="40.86" stroke="#fff" stroke-linecap="round" stroke-width="2.304"/>
  <line x1="72.085" x2="72.265" y1="19.08" y2="40.86" stroke="#fff" stroke-linecap="round" stroke-width="2.304"/>
  <line x1="79.285" x2="79.465" y1="19.08" y2="40.86" stroke="#fff" stroke-linecap="round" stroke-width="2.304"/>
  <line x1="86.485" x2="86.665" y1="19.08" y2="40.86" stroke="#fff" stroke-linecap="round" stroke-width="2.304"/>
  <line x1="93.685" x2="93.865" y1="19.08" y2="40.86" stroke="#fff" stroke-linecap="round" stroke-width="2.304"/>
  <line x1="100.88" x2="101.06" y1="19.08" y2="40.86" stroke="#fff" stroke-linecap="round" stroke-width="2.304"/>
  <line x1="108.08" x2="108.26" y1="19.08" y2="40.86" stroke="#fff" stroke-linecap="round" stroke-width="2.304"/>
  <line x1="115.28" x2="115.46" y1="19.08" y2="40.86" stroke="#fff" stroke-linecap="round" stroke-width="2.304"/>
  <line x1="122.48" x2="122.66" y1="19.08" y2="40.86" stroke="#fff" stroke-linecap="round" stroke-width="2.304"/>
  <rect x="18.085" y="15.3" width="7.2" height="14.4" fill="#fff" stroke-width="0"/>
  <rect x="54.085" y="15.3" width="7.2" height="14.4" fill="#fff" stroke-width="0"/>
  <rect x="90.085" y="15.3" width="7.2" height="14.4" fill="#fff" stroke-width="0"/>
  <rect x="126.08" y="58.5" width="7.2" height="57.6" fill="#fff" stroke-width="0"/>
  <rect x="90.085" y="58.5" width="7.2" height="14.4" fill="#fff" stroke-width="0"/>
  <rect x="54.085" y="58.5" width="7.2" height="14.4" fill="#fff" stroke-width="0"/>
  <rect x="18.085" y="58.5" width="7.2" height="14.4" fill="#fff" stroke-width="0"/>
  <g>
   <title>element:CB1</title>
   <g>
    <title>package:PICOWBELL</title>
   </g>
  </g>
  <g>
   <title>element:JP1</title>
   <g>
    <title>package:1X20_ROUND_70MIL</title>
   </g>
  </g>
  <g>
   <title>element:JP2</title>
   <g>
    <title>package:1X20_ROUND_70MIL</title>
   </g>
  </g>
  <g>
   <title>element:PLABEL35</title>
   <g>
    <title>package:PLABEL35</title>
   </g>
  </g>
  <line x1=".288" x2="1.885" y1="59.112" y2="59.112" fill="none" stroke="#fff" stroke-width=".576"/>
  <line x1=".288" x2="1.885" y1=".288" y2=".288" fill="none" stroke="#fff" stroke-width=".576"/>
  <line x1=".288" x2=".288" y1="59.112" y2=".288" fill="none" stroke="#fff" stroke-width=".576"/>
  <line x1="149.48" x2="151.14" y1="39.621" y2="39.621" fill="none" stroke="#fff" stroke-width=".576"/>
  <line x1="149.48" x2="151.14" y1="19.779" y2="19.779" fill="none" stroke="#fff" stroke-width=".576"/>
  <line x1="151.14" x2="151.14" y1="39.621" y2="19.779" fill="none" stroke="#fff" stroke-width=".576"/>
 </g>
 <g id="copper1">
  <g id="copper0">
   <circle id="connector159pad" cx="7.285" cy="54.9" r="0" fill="none" stroke="#F7BD13" stroke-width="0" connectorname="PR12"/>
   <circle id="connector160pad" cx="7.285" cy="54.9" r="0" fill="none" stroke="#F7BD13" stroke-width="0" connectorname="PR12"/>
   <circle id="connector157pad" cx="7.285" cy="54.9" r="0" fill="none" stroke="#F7BD13" stroke-width="0" connectorname="PR12"/>
   <circle id="connector158pad" cx="7.285" cy="54.9" r="0" fill="none" stroke="#F7BD13" stroke-width="0" connectorname="PR12"/>
   <circle id="connector155pad" cx="7.285" cy="54.9" r="0" fill="none" stroke="#F7BD13" stroke-width="0" connectorname="PR11"/>
   <circle id="connector156pad" cx="7.285" cy="54.9" r="0" fill="none" stroke="#F7BD13" stroke-width="0" connectorname="PR11"/>
   <circle id="connector153pad" cx="7.285" cy="54.9" r="0" fill="none" stroke="#F7BD13" stroke-width="0" connectorname="PR11"/>
   <circle id="connector154pad" cx="7.285" cy="54.9" r="0" fill="none" stroke="#F7BD13" stroke-width="0" connectorname="PR11"/>
   <circle id="connector151pad" cx="7.285" cy="54.9" r="0" fill="none" stroke="#F7BD13" stroke-width="0" connectorname="PR10"/>
   <circle id="connector152pad" cx="7.285" cy="54.9" r="0" fill="none" stroke="#F7BD13" stroke-width="0" connectorname="PR10"/>
   <circle id="connector149pad" cx="7.285" cy="54.9" r="0" fill="none" stroke="#F7BD13" stroke-width="0" connectorname="PR10"/>
   <circle id="connector150pad" cx="7.285" cy="54.9" r="0" fill="none" stroke="#F7BD13" stroke-width="0" connectorname="PR10"/>
   <circle id="connector147pad" cx="7.285" cy="54.9" r="0" fill="none" stroke="#F7BD13" stroke-width="0" connectorname="PR9"/>
   <circle id="connector148pad" cx="7.285" cy="54.9" r="0" fill="none" stroke="#F7BD13" stroke-width="0" connectorname="PR9"/>
   <circle id="connector145pad" cx="7.285" cy="54.9" r="0" fill="none" stroke="#F7BD13" stroke-width="0" connectorname="PR9"/>
   <circle id="connector146pad" cx="7.285" cy="54.9" r="0" fill="none" stroke="#F7BD13" stroke-width="0" connectorname="PR9"/>
   <circle id="connector143pad" cx="7.285" cy="54.9" r="0" fill="none" stroke="#F7BD13" stroke-width="0" connectorname="PR8"/>
   <circle id="connector144pad" cx="7.285" cy="54.9" r="0" fill="none" stroke="#F7BD13" stroke-width="0" connectorname="PR8"/>
   <circle id="connector141pad" cx="7.285" cy="54.9" r="0" fill="none" stroke="#F7BD13" stroke-width="0" connectorname="PR8"/>
   <circle id="connector142pad" cx="7.285" cy="54.9" r="0" fill="none" stroke="#F7BD13" stroke-width="0" connectorname="PR8"/>
   <circle id="connector139pad" cx="7.285" cy="54.9" r="0" fill="none" stroke="#F7BD13" stroke-width="0" connectorname="PR7"/>
   <circle id="connector140pad" cx="7.285" cy="54.9" r="0" fill="none" stroke="#F7BD13" stroke-width="0" connectorname="PR7"/>
   <circle id="connector137pad" cx="7.285" cy="54.9" r="0" fill="none" stroke="#F7BD13" stroke-width="0" connectorname="PR7"/>
   <circle id="connector138pad" cx="7.285" cy="54.9" r="0" fill="none" stroke="#F7BD13" stroke-width="0" connectorname="PR7"/>
   <circle id="connector135pad" cx="7.285" cy="54.9" r="0" fill="none" stroke="#F7BD13" stroke-width="0" connectorname="PR6"/>
   <circle id="connector136pad" cx="7.285" cy="54.9" r="0" fill="none" stroke="#F7BD13" stroke-width="0" connectorname="PR6"/>
   <circle id="connector133pad" cx="7.285" cy="54.9" r="0" fill="none" stroke="#F7BD13" stroke-width="0" connectorname="PR6"/>
   <circle id="connector134pad" cx="7.285" cy="54.9" r="0" fill="none" stroke="#F7BD13" stroke-width="0" connectorname="PR6"/>
   <circle id="connector131pad" cx="7.285" cy="54.9" r="0" fill="none" stroke="#F7BD13" stroke-width="0" connectorname="PR5"/>
   <circle id="connector132pad" cx="7.285" cy="54.9" r="0" fill="none" stroke="#F7BD13" stroke-width="0" connectorname="PR5"/>
   <circle id="connector129pad" cx="7.285" cy="54.9" r="0" fill="none" stroke="#F7BD13" stroke-width="0" connectorname="PR5"/>
   <circle id="connector130pad" cx="7.285" cy="54.9" r="0" fill="none" stroke="#F7BD13" stroke-width="0" connectorname="PR5"/>
   <circle id="connector127pad" cx="7.285" cy="54.9" r="0" fill="none" stroke="#F7BD13" stroke-width="0" connectorname="PR4"/>
   <circle id="connector128pad" cx="7.285" cy="54.9" r="0" fill="none" stroke="#F7BD13" stroke-width="0" connectorname="PR4"/>
   <circle id="connector125pad" cx="7.285" cy="54.9" r="0" fill="none" stroke="#F7BD13" stroke-width="0" connectorname="PR4"/>
   <circle id="connector126pad" cx="7.285" cy="54.9" r="0" fill="none" stroke="#F7BD13" stroke-width="0" connectorname="PR4"/>
   <circle id="connector123pad" cx="7.285" cy="54.9" r="0" fill="none" stroke="#F7BD13" stroke-width="0" connectorname="PR3"/>
   <circle id="connector124pad" cx="7.285" cy="54.9" r="0" fill="none" stroke="#F7BD13" stroke-width="0" connectorname="PR3"/>
   <circle id="connector121pad" cx="7.285" cy="54.9" r="0" fill="none" stroke="#F7BD13" stroke-width="0" connectorname="PR3"/>
   <circle id="connector122pad" cx="7.285" cy="54.9" r="0" fill="none" stroke="#F7BD13" stroke-width="0" connectorname="PR3"/>
   <circle id="connector119pad" cx="7.285" cy="54.9" r="0" fill="none" stroke="#F7BD13" stroke-width="0" connectorname="PR2"/>
   <circle id="connector120pad" cx="7.285" cy="54.9" r="0" fill="none" stroke="#F7BD13" stroke-width="0" connectorname="PR2"/>
   <circle id="connector117pad" cx="7.285" cy="54.9" r="0" fill="none" stroke="#F7BD13" stroke-width="0" connectorname="PR2"/>
   <circle id="connector118pad" cx="7.285" cy="54.9" r="0" fill="none" stroke="#F7BD13" stroke-width="0" connectorname="PR2"/>
   <circle id="connector115pad" cx="7.285" cy="54.9" r="0" fill="none" stroke="#F7BD13" stroke-width="0" connectorname="PR1"/>
   <circle id="connector116pad" cx="7.285" cy="54.9" r="0" fill="none" stroke="#F7BD13" stroke-width="0" connectorname="PR1"/>
   <circle id="connector113pad" cx="7.285" cy="54.9" r="0" fill="none" stroke="#F7BD13" stroke-width="0" connectorname="PR1"/>
   <circle id="connector114pad" cx="7.285" cy="54.9" r="0" fill="none" stroke="#F7BD13" stroke-width="0" connectorname="PR1"/>
   <circle id="connector111pad" cx="7.285" cy="54.9" r="0" fill="none" stroke="#F7BD13" stroke-width="0" connectorname="N$51"/>
   <circle id="connector112pad" cx="7.285" cy="54.9" r="0" fill="none" stroke="#F7BD13" stroke-width="0" connectorname="N$52"/>
   <circle id="connector109pad" cx="7.285" cy="54.9" r="0" fill="none" stroke="#F7BD13" stroke-width="0" connectorname="N$49"/>
   <circle id="connector110pad" cx="7.285" cy="54.9" r="0" fill="none" stroke="#F7BD13" stroke-width="0" connectorname="N$50"/>
   <circle id="connector107pad" cx="7.285" cy="54.9" r="0" fill="none" stroke="#F7BD13" stroke-width="0" connectorname="IO4"/>
   <circle id="connector108pad" cx="7.285" cy="54.9" r="0" fill="none" stroke="#F7BD13" stroke-width="0" connectorname="IO5"/>
   <circle id="connector105pad" cx="7.285" cy="54.9" r="0" fill="none" stroke="#F7BD13" stroke-width="0" connectorname="GND"/>
   <circle id="connector106pad" cx="7.285" cy="54.9" r="0" fill="none" stroke="#F7BD13" stroke-width="0" connectorname="GND"/>
   <circle id="connector103pad" cx="7.285" cy="54.9" r="0" fill="none" stroke="#F7BD13" stroke-width="0" connectorname="GND"/>
   <circle id="connector104pad" cx="7.285" cy="54.9" r="0" fill="none" stroke="#F7BD13" stroke-width="0" connectorname="GND"/>
   <circle id="connector101pad" cx="7.285" cy="54.9" r="0" fill="none" stroke="#F7BD13" stroke-width="0" connectorname="3.3V"/>
   <circle id="connector102pad" cx="7.285" cy="54.9" r="0" fill="none" stroke="#F7BD13" stroke-width="0" connectorname="GND"/>
   <circle id="connector99pad" cx="7.285" cy="54.9" r="0" fill="none" stroke="#F7BD13" stroke-width="0" connectorname="3.3V"/>
   <circle id="connector100pad" cx="7.285" cy="54.9" r="0" fill="none" stroke="#F7BD13" stroke-width="0" connectorname="3.3V"/>
   <circle id="connector97pad" cx="7.285" cy="54.9" r="0" fill="none" stroke="#F7BD13" stroke-width="0" connectorname="3.3V"/>
   <circle id="connector98pad" cx="7.285" cy="54.9" r="0" fill="none" stroke="#F7BD13" stroke-width="0" connectorname="3.3V"/>
   <circle id="connector70pad" cx="129.68" cy="47.7" r="1.9687" fill="none" stroke="#F7BD13" stroke-width="1.1027" connectorname="GND"/>
   <circle id="connector86pad" cx="100.88" cy="11.7" r="1.9687" fill="none" stroke="#F7BD13" stroke-width="1.1027" connectorname="IO21"/>
   <circle id="connector71pad" cx="136.88" cy="47.7" r="1.9687" fill="none" stroke="#F7BD13" stroke-width="1.1027" connectorname="IO14"/>
   <circle id="connector90pad" cx="129.68" cy="11.7" r="1.9687" fill="none" stroke="#F7BD13" stroke-width="1.1027" connectorname="GND"/>
   <circle id="connector72pad" cx="144.08" cy="47.7" r="1.9687" fill="none" stroke="#F7BD13" stroke-width="1.1027" connectorname="IO15"/>
   <circle id="connector84pad" cx="86.485" cy="11.7" r="1.9687" fill="none" stroke="#F7BD13" stroke-width="1.1027" connectorname="IO22"/>
   <circle id="connector73pad" cx="7.285" cy="11.7" r="1.9687" fill="none" stroke="#F7BD13" stroke-width="1.1027" connectorname="VBUS"/>
   <circle id="connector88pad" cx="115.28" cy="11.7" r="1.9687" fill="none" stroke="#F7BD13" stroke-width="1.1027" connectorname="IO19"/>
   <circle id="connector74pad" cx="14.485" cy="11.7" r="1.9687" fill="none" stroke="#F7BD13" stroke-width="1.1027" connectorname="VSYS"/>
   <circle id="connector92pad" cx="144.08" cy="11.7" r="1.9687" fill="none" stroke="#F7BD13" stroke-width="1.1027" connectorname="IO16"/>
   <circle id="connector75pad" cx="21.685" cy="11.7" r="1.9687" fill="none" stroke="#F7BD13" stroke-width="1.1027" connectorname="GND"/>
   <circle id="connector76pad" cx="28.885" cy="11.7" r="1.9687" fill="none" stroke="#F7BD13" stroke-width="1.1027" connectorname="!EN"/>
   <circle id="connector85pad" cx="93.685" cy="11.7" r="1.9687" fill="none" stroke="#F7BD13" stroke-width="1.1027" connectorname="GND"/>
   <circle id="connector77pad" cx="36.085" cy="11.7" r="1.9687" fill="none" stroke="#F7BD13" stroke-width="1.1027" connectorname="3.3V"/>
   <circle id="connector87pad" cx="108.08" cy="11.7" r="1.9687" fill="none" stroke="#F7BD13" stroke-width="1.1027" connectorname="IO20"/>
   <circle id="connector78pad" cx="43.285" cy="11.7" r="1.9687" fill="none" stroke="#F7BD13" stroke-width="1.1027" connectorname="VREF"/>
   <circle id="connector89pad" cx="122.48" cy="11.7" r="1.9687" fill="none" stroke="#F7BD13" stroke-width="1.1027" connectorname="IO18"/>
   <circle id="connector79pad" cx="50.485" cy="11.7" r="1.9687" fill="none" stroke="#F7BD13" stroke-width="1.1027" connectorname="AD2"/>
   <circle id="connector91pad" cx="136.88" cy="11.7" r="1.9687" fill="none" stroke="#F7BD13" stroke-width="1.1027" connectorname="IO17"/>
   <circle id="connector80pad" cx="57.685" cy="11.7" r="1.9687" fill="none" stroke="#F7BD13" stroke-width="1.1027" connectorname="GND"/>
   <circle id="connector81pad" cx="64.885" cy="11.7" r="1.9687" fill="none" stroke="#F7BD13" stroke-width="1.1027" connectorname="AD1"/>
   <circle id="connector82pad" cx="72.085" cy="11.7" r="1.9687" fill="none" stroke="#F7BD13" stroke-width="1.1027" connectorname="AD0"/>
   <circle id="connector68pad" cx="115.28" cy="47.7" r="1.9687" fill="none" stroke="#F7BD13" stroke-width="1.1027" connectorname="IO12"/>
   <circle id="connector66pad" cx="100.88" cy="47.7" r="1.9687" fill="none" stroke="#F7BD13" stroke-width="1.1027" connectorname="IO10"/>
   <circle id="connector69pad" cx="122.48" cy="47.7" r="1.9687" fill="none" stroke="#F7BD13" stroke-width="1.1027" connectorname="IO13"/>
   <circle id="connector64pad" cx="86.485" cy="47.7" r="1.9687" fill="none" stroke="#F7BD13" stroke-width="1.1027" connectorname="IO9"/>
   <circle id="connector67pad" cx="108.08" cy="47.7" r="1.9687" fill="none" stroke="#F7BD13" stroke-width="1.1027" connectorname="IO11"/>
   <circle id="connector62pad" cx="72.085" cy="47.7" r="1.9687" fill="none" stroke="#F7BD13" stroke-width="1.1027" connectorname="IO7"/>
   <circle id="connector65pad" cx="93.685" cy="47.7" r="1.9687" fill="none" stroke="#F7BD13" stroke-width="1.1027" connectorname="GND"/>
   <circle id="connector60pad" cx="57.685" cy="47.7" r="1.9687" fill="none" stroke="#F7BD13" stroke-width="1.1027" connectorname="GND"/>
   <circle id="connector63pad" cx="79.285" cy="47.7" r="1.9687" fill="none" stroke="#F7BD13" stroke-width="1.1027" connectorname="IO8"/>
   <circle id="connector58pad" cx="43.285" cy="47.7" r="1.9687" fill="none" stroke="#F7BD13" stroke-width="1.1027" connectorname="IO4"/>
   <circle id="connector61pad" cx="64.885" cy="47.7" r="1.9687" fill="none" stroke="#F7BD13" stroke-width="1.1027" connectorname="IO6"/>
   <circle id="connector56pad" cx="28.885" cy="47.7" r="1.9687" fill="none" stroke="#F7BD13" stroke-width="1.1027" connectorname="IO2"/>
   <circle id="connector59pad" cx="50.485" cy="47.7" r="1.9687" fill="none" stroke="#F7BD13" stroke-width="1.1027" connectorname="IO5"/>
   <circle id="connector54pad" cx="14.485" cy="47.7" r="1.9687" fill="none" stroke="#F7BD13" stroke-width="1.1027" connectorname="IO1"/>
   <circle id="connector57pad" cx="36.085" cy="47.7" r="1.9687" fill="none" stroke="#F7BD13" stroke-width="1.1027" connectorname="IO3"/>
   <circle id="connector55pad" cx="21.685" cy="47.7" r="1.9687" fill="none" stroke="#F7BD13" stroke-width="1.1027" connectorname="GND"/>
   <circle id="connector53pad" cx="7.285" cy="47.7" r="1.9687" fill="none" stroke="#F7BD13" stroke-width="1.1027" connectorname="IO0"/>
   <rect id="connector48pad" x="13.654" y="33.102" width="4.3937" height="1.7008" fill="#F7BD13" stroke-width="0"/>
   <rect id="connector46pad" x="13.654" y="27.432" width="4.3937" height="1.7008" fill="#F7BD13" stroke-width="0"/>
   <circle id="connector44pad" cx="7.285" cy="4.5" r="1.9687" fill="none" stroke="#F7BD13" stroke-width="1.1027" connectorname="VBUS"/>
   <rect id="connector47pad" x="13.654" y="30.267" width="4.3937" height="1.7008" fill="#F7BD13" stroke-width="0"/>
   <circle id="connector42pad" cx="21.685" cy="4.5" r="1.9687" fill="none" stroke="#F7BD13" stroke-width="1.1027" connectorname="GND"/>
   <rect x="19.716" y="2.5313" width="3.9373" height="3.9373" fill="none" stroke="#F7BD13" stroke-width="1.1027"/>
   <rect id="connector45pad" x="13.654" y="24.598" width="4.3937" height="1.7008" fill="#F7BD13" stroke-width="0"/>
   <circle id="connector40pad" cx="36.085" cy="4.5" r="1.9687" fill="none" stroke="#F7BD13" stroke-width="1.1027" connectorname="3.3V"/>
   <circle id="connector43pad" cx="14.485" cy="4.5" r="1.9687" fill="none" stroke="#F7BD13" stroke-width="1.1027" connectorname="VSYS"/>
   <circle id="connector38pad" cx="50.485" cy="4.5" r="1.9687" fill="none" stroke="#F7BD13" stroke-width="1.1027" connectorname="AD2"/>
   <circle id="connector41pad" cx="28.885" cy="4.5" r="1.9687" fill="none" stroke="#F7BD13" stroke-width="1.1027" connectorname="!EN"/>
   <circle id="connector36pad" cx="64.885" cy="4.5" r="1.9687" fill="none" stroke="#F7BD13" stroke-width="1.1027" connectorname="AD1"/>
   <circle id="connector39pad" cx="43.285" cy="4.5" r="1.9687" fill="none" stroke="#F7BD13" stroke-width="1.1027" connectorname="VREF"/>
   <circle id="connector34pad" cx="79.285" cy="4.5" r="1.9687" fill="none" stroke="#F7BD13" stroke-width="1.1027" connectorname="!RESET"/>
   <circle id="connector37pad" cx="57.685" cy="4.5" r="1.9687" fill="none" stroke="#F7BD13" stroke-width="1.1027" connectorname="GND"/>
   <rect x="55.716" y="2.5313" width="3.9373" height="3.9373" fill="none" stroke="#F7BD13" stroke-width="1.1027"/>
   <circle id="connector32pad" cx="93.685" cy="4.5" r="1.9687" fill="none" stroke="#F7BD13" stroke-width="1.1027" connectorname="GND"/>
   <rect x="91.716" y="2.5313" width="3.9373" height="3.9373" fill="none" stroke="#F7BD13" stroke-width="1.1027"/>
   <circle id="connector35pad" cx="72.085" cy="4.5" r="1.9687" fill="none" stroke="#F7BD13" stroke-width="1.1027" connectorname="AD0"/>
   <circle id="connector30pad" cx="108.08" cy="4.5" r="1.9687" fill="none" stroke="#F7BD13" stroke-width="1.1027" connectorname="IO20"/>
   <circle id="connector33pad" cx="86.485" cy="4.5" r="1.9687" fill="none" stroke="#F7BD13" stroke-width="1.1027" connectorname="IO22"/>
   <circle id="connector28pad" cx="122.48" cy="4.5" r="1.9687" fill="none" stroke="#F7BD13" stroke-width="1.1027" connectorname="IO18"/>
   <circle id="connector31pad" cx="100.88" cy="4.5" r="1.9687" fill="none" stroke="#F7BD13" stroke-width="1.1027" connectorname="IO21"/>
   <circle id="connector26pad" cx="136.88" cy="4.5" r="1.9687" fill="none" stroke="#F7BD13" stroke-width="1.1027" connectorname="IO17"/>
   <circle id="connector29pad" cx="115.28" cy="4.5" r="1.9687" fill="none" stroke="#F7BD13" stroke-width="1.1027" connectorname="IO19"/>
   <circle id="connector24pad" cx="144.08" cy="54.9" r="1.9687" fill="none" stroke="#F7BD13" stroke-width="1.1027" connectorname="IO15"/>
   <circle id="connector27pad" cx="129.68" cy="4.5" r="1.9687" fill="none" stroke="#F7BD13" stroke-width="1.1027" connectorname="GND"/>
   <rect x="127.72" y="2.5313" width="3.9373" height="3.9373" fill="none" stroke="#F7BD13" stroke-width="1.1027"/>
   <circle id="connector22pad" cx="129.68" cy="54.9" r="1.9687" fill="none" stroke="#F7BD13" stroke-width="1.1027" connectorname="GND"/>
   <rect x="127.72" y="52.931" width="3.9373" height="3.9373" fill="none" stroke="#F7BD13" stroke-width="1.1027"/>
   <circle id="connector25pad" cx="144.08" cy="4.5" r="1.9687" fill="none" stroke="#F7BD13" stroke-width="1.1027" connectorname="IO16"/>
   <circle id="connector20pad" cx="115.28" cy="54.9" r="1.9687" fill="none" stroke="#F7BD13" stroke-width="1.1027" connectorname="IO12"/>
   <circle id="connector23pad" cx="136.88" cy="54.9" r="1.9687" fill="none" stroke="#F7BD13" stroke-width="1.1027" connectorname="IO14"/>
   <circle id="connector18pad" cx="100.88" cy="54.9" r="1.9687" fill="none" stroke="#F7BD13" stroke-width="1.1027" connectorname="IO10"/>
   <circle id="connector21pad" cx="122.48" cy="54.9" r="1.9687" fill="none" stroke="#F7BD13" stroke-width="1.1027" connectorname="IO13"/>
   <circle id="connector16pad" cx="86.485" cy="54.9" r="1.9687" fill="none" stroke="#F7BD13" stroke-width="1.1027" connectorname="IO9"/>
   <circle id="connector19pad" cx="108.08" cy="54.9" r="1.9687" fill="none" stroke="#F7BD13" stroke-width="1.1027" connectorname="IO11"/>
   <circle id="connector14pad" cx="72.085" cy="54.9" r="1.9687" fill="none" stroke="#F7BD13" stroke-width="1.1027" connectorname="IO7"/>
   <circle id="connector17pad" cx="93.685" cy="54.9" r="1.9687" fill="none" stroke="#F7BD13" stroke-width="1.1027" connectorname="GND"/>
   <rect x="91.716" y="52.931" width="3.9373" height="3.9373" fill="none" stroke="#F7BD13" stroke-width="1.1027"/>
   <circle id="connector12pad" cx="57.685" cy="54.9" r="1.9687" fill="none" stroke="#F7BD13" stroke-width="1.1027" connectorname="GND"/>
   <rect x="55.716" y="52.931" width="3.9373" height="3.9373" fill="none" stroke="#F7BD13" stroke-width="1.1027"/>
   <circle id="connector15pad" cx="79.285" cy="54.9" r="1.9687" fill="none" stroke="#F7BD13" stroke-width="1.1027" connectorname="IO8"/>
   <circle id="connector10pad" cx="43.285" cy="54.9" r="1.9687" fill="none" stroke="#F7BD13" stroke-width="1.1027" connectorname="IO4"/>
   <circle id="connector13pad" cx="64.885" cy="54.9" r="1.9687" fill="none" stroke="#F7BD13" stroke-width="1.1027" connectorname="IO6"/>
   <circle id="connector8pad" cx="28.885" cy="54.9" r="1.9687" fill="none" stroke="#F7BD13" stroke-width="1.1027" connectorname="IO2"/>
   <circle id="connector11pad" cx="50.485" cy="54.9" r="1.9687" fill="none" stroke="#F7BD13" stroke-width="1.1027" connectorname="IO5"/>
   <circle id="connector6pad" cx="14.485" cy="54.9" r="1.9687" fill="none" stroke="#F7BD13" stroke-width="1.1027" connectorname="IO1"/>
   <circle id="connector9pad" cx="36.085" cy="54.9" r="1.9687" fill="none" stroke="#F7BD13" stroke-width="1.1027" connectorname="IO3"/>
   <circle id="connector83pad" cx="79.285" cy="11.7" r="1.9687" fill="none" stroke="#F7BD13" stroke-width="1.1027" connectorname="!RESET"/>
   <circle id="connector7pad" cx="21.685" cy="54.9" r="1.9687" fill="none" stroke="#F7BD13" stroke-width="1.1027" connectorname="GND"/>
   <rect x="19.716" y="52.931" width="3.9373" height="3.9373" fill="none" stroke="#F7BD13" stroke-width="1.1027"/>
   <circle id="connector5pad" cx="7.285" cy="54.9" r="1.9687" fill="none" stroke="#F7BD13" stroke-width="1.1027" connectorname="IO0"/>
  </g>
 </g>
</svg>
