<?xml version="1.0" encoding="UTF-8"?>
<!-- Created with Fritzing (http://www.fritzing.org/) -->
<svg width="1in" height=".7in" baseProfile="tiny" version="1.2" viewBox="0 0 72 50.4" xmlns="http://www.w3.org/2000/svg">
 <desc>
  <referenceFile>Adafruit MCP3421 ADC_pcb.svg</referenceFile>
 </desc>
 <desc>Fritzing footprint generated by brd2svg</desc>
 <g id="silkscreen">
  <path d="m0.288 7.4057a6.912 6.912 0 0 1 7.1424-7.1177h57.139a6.912 6.912 0 0 1 7.1424 7.1177v35.589a6.912 6.912 0 0 1-7.1424 7.1177h-57.139a6.912 6.912 0 0 1-7.1424-7.1177v-35.589" fill="none" stroke="#fff" stroke-width=".576"/>
  <g>
   <title>element:CONN3</title>
   <g>
    <title>package:JST_SH4</title>
    <line x1="65.534" x2="58.164" y1="33.704" y2="33.704" stroke="#fff" stroke-linecap="round" stroke-width=".432"/>
    <line x1="58.164" x2="58.164" y1="33.704" y2="30.586" stroke="#fff" stroke-linecap="round" stroke-width=".432"/>
    <line x1="58.164" x2="58.164" y1="19.814" y2="16.413" stroke="#fff" stroke-linecap="round" stroke-width=".432"/>
    <line x1="58.164" x2="65.534" y1="16.413" y2="16.413" stroke="#fff" stroke-linecap="round" stroke-width=".432"/>
    <line x1="70.353" x2="70.353" y1="31.153" y2="19.247" stroke="#fff" stroke-linecap="round" stroke-width=".432"/>
   </g>
  </g>
  <g>
   <title>element:CONN4</title>
   <g>
    <title>package:JST_SH4</title>
    <line x1="6.6458" x2="14.016" y1="16.696" y2="16.696" stroke="#fff" stroke-linecap="round" stroke-width=".432"/>
    <line x1="14.016" x2="14.016" y1="16.696" y2="19.814" stroke="#fff" stroke-linecap="round" stroke-width=".432"/>
    <line x1="14.016" x2="14.016" y1="30.586" y2="33.987" stroke="#fff" stroke-linecap="round" stroke-width=".432"/>
    <line x1="14.016" x2="6.6458" y1="33.987" y2="33.987" stroke="#fff" stroke-linecap="round" stroke-width=".432"/>
    <line x1="1.8269" x2="1.8269" y1="19.247" y2="31.153" stroke="#fff" stroke-linecap="round" stroke-width=".432"/>
   </g>
  </g>
  <g>
   <title>element:JP1</title>
   <g>
    <title>package:1X06_ROUND_70</title>
   </g>
  </g>
  <g>
   <title>element:PLABEL10</title>
   <g>
    <title>package:PLABEL10</title>
   </g>
  </g>
  <g>
   <title>element:U$31</title>
   <g>
    <title>package:STEMMAQT</title>
   </g>
  </g>
  <g>
   <title>element:U$32</title>
   <g>
    <title>package:STEMMAQT</title>
   </g>
  </g>
  <g>
   <title>element:X1</title>
   <g>
    <title>package:TERMBLOCK_1X2-3.5MM</title>
    <line x1="45.638" x2="45.638" y1="20.438" y2="4.5638" stroke="#fff" stroke-linecap="round" stroke-width=".576"/>
    <line x1="45.638" x2="45.638" y1="4.5638" y2=".59528" stroke="#fff" stroke-linecap="round" stroke-width=".576"/>
    <line x1="45.638" x2="25.795" y1=".59528" y2=".59528" stroke="#fff" stroke-linecap="round" stroke-width=".576"/>
    <line x1="25.795" x2="25.795" y1=".59528" y2="4.5638" stroke="#fff" stroke-linecap="round" stroke-width=".576"/>
    <line x1="25.795" x2="25.795" y1="4.5638" y2="20.438" stroke="#fff" stroke-linecap="round" stroke-width=".576"/>
    <line x1="25.795" x2="45.638" y1="20.438" y2="20.438" stroke="#fff" stroke-linecap="round" stroke-width=".576"/>
    <line x1="45.638" x2="25.795" y1="4.5638" y2="4.5638" stroke="#fff" stroke-linecap="round" stroke-width=".576"/>
   </g>
  </g>
 </g>
 <g id="copper1">
  <g id="copper0">
   <circle id="connector30pad" cx="39.6" cy="43.2" r="1.9687" fill="none" stroke="#F7BD13" stroke-width="1.1027" connectorname="SDA"/>
   <g transform="matrix(-1 0 0 -1 114.63 58.904)">
    <rect id="connector9pad" x="55.117" y="28.602" width="4.3937" height="1.7008" fill="#F7BD13" stroke-width="0"/>
   </g>
   <g transform="matrix(-1 0 0 -1 114.63 53.235)">
    <rect id="connector10pad" x="55.117" y="25.767" width="4.3937" height="1.7008" fill="#F7BD13" stroke-width="0"/>
   </g>
   <circle id="connector50pad" cx="64.8" cy="43.2" r="4.2633" fill="none" stroke="#F7BD13" stroke-width="1.44" connectorname="P$1"/>
   <g transform="matrix(-1 0 0 -1 114.63 47.565)">
    <rect id="connector11pad" x="55.117" y="22.932" width="4.3937" height="1.7008" fill="#F7BD13" stroke-width="0"/>
   </g>
   <circle id="connector32pad" cx="54" cy="43.2" r="1.9687" fill="none" stroke="#F7BD13" stroke-width="1.1027" connectorname="VIN-"/>
   <g transform="matrix(-1 0 0 -1 114.63 41.896)">
    <rect id="connector12pad" x="55.117" y="20.098" width="4.3937" height="1.7008" fill="#F7BD13" stroke-width="0"/>
   </g>
   <rect id="connector15pad" x="12.67" y="20.098" width="4.3937" height="1.7008" fill="#F7BD13" stroke-width="0"/>
   <circle id="connector48pad" cx="64.8" cy="7.2" r="4.2633" fill="none" stroke="#F7BD13" stroke-width="1.44" connectorname="P$1"/>
   <rect id="connector16pad" x="12.67" y="22.932" width="4.3937" height="1.7008" fill="#F7BD13" stroke-width="0"/>
   <circle id="connector52pad" cx="40.819" cy="10.8" r="2.2567" fill="none" stroke="#F7BD13" stroke-width="1.6787" connectorname="VIN-"/>
   <rect id="connector17pad" x="12.67" y="25.767" width="4.3937" height="1.7008" fill="#F7BD13" stroke-width="0"/>
   <circle id="connector31pad" cx="46.8" cy="43.2" r="1.9687" fill="none" stroke="#F7BD13" stroke-width="1.1027" connectorname="VIN+"/>
   <rect id="connector18pad" x="12.67" y="28.602" width="4.3937" height="1.7008" fill="#F7BD13" stroke-width="0"/>
   <circle id="connector47pad" cx="7.2" cy="7.2" r="4.2633" fill="none" stroke="#F7BD13" stroke-width="1.44" connectorname="P$1"/>
   <circle id="connector49pad" cx="7.2" cy="43.2" r="4.2633" fill="none" stroke="#F7BD13" stroke-width="1.44" connectorname="P$1"/>
   <circle id="connector27pad" cx="18" cy="43.2" r="1.9687" fill="none" stroke="#F7BD13" stroke-width="1.1027" connectorname="VCC"/>
   <circle id="connector51pad" cx="30.898" cy="10.8" r="2.2567" fill="none" stroke="#F7BD13" stroke-width="1.6787" connectorname="VIN+"/>
   <circle id="connector28pad" cx="25.2" cy="43.2" r="1.9687" fill="none" stroke="#F7BD13" stroke-width="1.1027" connectorname="GND"/>
   <circle id="connector29pad" cx="32.4" cy="43.2" r="1.9687" fill="none" stroke="#F7BD13" stroke-width="1.1027" connectorname="SCL"/>
  </g>
 </g>
</svg>
