<?xml version="1.0" encoding="UTF-8"?>
<!-- Created with Fritzing (http://www.fritzing.org/) -->
<svg width=".945in" height=".75003in" baseProfile="tiny" version="1.2" viewBox="0 0 68.04 54.002" xmlns="http://www.w3.org/2000/svg">
 <desc>
  <referenceFile>USB C MicroLipo rev A_pcb.svg</referenceFile>
 </desc>
 <desc>Fritzing footprint generated by brd2svg</desc>
 <g id="silkscreen">
  <path d="m10.64 0.288h49.973a6.912 6.912 0 0 1 7.139 7.1232v39.534a6.7343 6.7343 0 0 1-7.139 6.767h-49.973a6.912 6.912 0 0 1-7.139-7.1232v-39.178a6.912 6.912 0 0 1 7.139-7.1232m6.5287 34.904a0.63326 0.63326 0 1 0 1.2665 0 0.63326 0.63326 0 1 0-1.2665 0zm0-16.384a0.63326 0.63326 0 1 0 1.2665 0 0.63326 0.63326 0 1 0-1.2665 0z" fill="none" stroke="#fff" stroke-width=".576"/>
  <g>
   <title>element:CN2</title>
   <g>
    <title>package:JSTPH2</title>
    <line x1="66.464" x2="66.464" y1="20.622" y2="33.378" stroke="#fff" stroke-linecap="round" stroke-width=".576"/>
    <line x1="56.543" x2="45.204" y1="38.339" y2="38.339" stroke="#fff" stroke-linecap="round" stroke-width=".576"/>
    <line x1="45.204" x2="45.204" y1="38.339" y2="35.929" stroke="#fff" stroke-linecap="round" stroke-width=".576"/>
    <line x1="45.204" x2="52.291" y1="35.929" y2="35.929" stroke="#fff" stroke-linecap="round" stroke-width=".576"/>
    <line x1="52.291" x2="52.291" y1="35.929" y2="31.961" stroke="#fff" stroke-linecap="round" stroke-width=".576"/>
    <line x1="52.291" x2="52.291" y1="22.039" y2="18.071" stroke="#fff" stroke-linecap="round" stroke-width=".576"/>
    <line x1="52.291" x2="45.204" y1="18.071" y2="18.071" stroke="#fff" stroke-linecap="round" stroke-width=".576"/>
    <line x1="45.204" x2="45.204" y1="18.071" y2="15.661" stroke="#fff" stroke-linecap="round" stroke-width=".576"/>
    <line x1="45.204" x2="56.543" y1="15.661" y2="15.661" stroke="#fff" stroke-linecap="round" stroke-width=".576"/>
   </g>
  </g>
  <g>
   <title>element:U$13</title>
   <g>
    <title>package:ADAFRUIT_5MM</title>
   </g>
  </g>
  <g>
   <title>element:X2</title>
   <g>
    <title>package:USB_C_CUSB31-CFM2AX-01-X</title>
    <line x1="11.339" x2="15.165" y1="14.329" y2="14.329" stroke="#fff" stroke-linecap="round" stroke-width=".288"/>
    <line x1="15.165" x2="11.339" y1="39.671" y2="39.671" stroke="#fff" stroke-linecap="round" stroke-width=".288"/>
    <line y1="39.671" y2="14.329" stroke="#fff" stroke-linecap="round" stroke-width=".288"/>
    <line x2="3.8268" y1="14.329" y2="14.329" stroke="#fff" stroke-linecap="round" stroke-width=".288"/>
    <line x1="3.8268" y1="39.671" y2="39.671" stroke="#fff" stroke-linecap="round" stroke-width=".288"/>
   </g>
  </g>
  <line x1=".288" x2="3.24" y1="40.644" y2="40.644" fill="none" stroke="#fff" stroke-width=".576"/>
  <line x1=".288" x2="3.24" y1="13.32" y2="13.32" fill="none" stroke="#fff" stroke-width=".576"/>
  <line x1=".288" x2=".288" y1="40.644" y2="13.32" fill="none" stroke="#fff" stroke-width=".576"/>
 </g>
 <g id="copper1">
  <g id="copper0">
   <circle id="connector38pad" cx="60.84" cy="46.8" r="4.2633" fill="none" stroke="#F7BD13" stroke-width="1.44" connectorname="P$1"/>
   <circle id="connector62pad" cx="7.3701" cy="39.246" r="1.2104" fill="none" stroke="#F7BD13" stroke-width=".72" connectorname="M4"/>
   <path d="m4.5862 38.035h5.5678v2.4208h-5.5678v-2.4208m1.5735 1.2104a1.2104 1.2104 0 1 0 2.4208 0 1.2104 1.2104 0 1 0-2.4208 0z" fill="#F7BD13" stroke-width="0"/>
   <g transform="matrix(0 1 -1 0 71.637 -23.306)">
    <rect id="connector9pad" x="46.054" y="17.646" width="2.8346" height="13.039" fill="#F7BD13" stroke-width="0"/>
   </g>
   <g transform="matrix(0 1 -1 0 77.306 -17.637)">
    <rect id="connector10pad" x="46.054" y="23.315" width="2.8346" height="13.039" fill="#F7BD13" stroke-width="0"/>
   </g>
   <circle id="connector40pad" cx="10.44" cy="46.8" r="4.2633" fill="none" stroke="#F7BD13" stroke-width="1.44" connectorname="P$1"/>
   <circle id="connector15pad" cx="21.24" cy="7.2" r="1.9687" fill="none" stroke="#F7BD13" stroke-width="1.1027" connectorname="5V"/>
   <circle id="connector16pad" cx="28.44" cy="7.2" r="1.9687" fill="none" stroke="#F7BD13" stroke-width="1.1027" connectorname="D-"/>
   <circle id="connector17pad" cx="35.64" cy="7.2" r="1.9687" fill="none" stroke="#F7BD13" stroke-width="1.1027" connectorname="D+"/>
   <circle id="connector18pad" cx="42.84" cy="7.2" r="1.9687" fill="none" stroke="#F7BD13" stroke-width="1.1027" connectorname="GND"/>
   <circle id="connector60pad" cx="19.219" cy="39.246" r="1.2104" fill="none" stroke="#F7BD13" stroke-width=".72" connectorname="M2"/>
   <path d="m16.435 38.035h5.5678v2.4208h-5.5678v-2.4208m1.5735 1.2104a1.2104 1.2104 0 1 0 2.4208 0 1.2104 1.2104 0 1 0-2.4208 0z" fill="#F7BD13" stroke-width="0"/>
   <circle id="connector19pad" cx="50.04" cy="7.2" r="1.9687" fill="none" stroke="#F7BD13" stroke-width="1.1027" connectorname="VBAT"/>
   <circle id="connector39pad" cx="60.84" cy="7.2" r="4.2633" fill="none" stroke="#F7BD13" stroke-width="1.44" connectorname="P$1"/>
   <circle id="connector41pad" cx="10.44" cy="7.2" r="4.2633" fill="none" stroke="#F7BD13" stroke-width="1.44" connectorname="P$1"/>
   <circle id="connector59pad" cx="19.219" cy="14.754" r="1.2104" fill="none" stroke="#F7BD13" stroke-width=".72" connectorname="M1"/>
   <path d="m16.435 13.544h5.5678v2.4208h-5.5678v-2.4208m1.5735 1.2104a1.2104 1.2104 0 1 0 2.4208 0 1.2104 1.2104 0 1 0-2.4208 0z" fill="#F7BD13" stroke-width="0"/>
   <circle id="connector61pad" cx="7.3701" cy="14.754" r="1.2104" fill="none" stroke="#F7BD13" stroke-width=".72" connectorname="M3"/>
   <path d="m4.5862 13.544h5.5678v2.4208h-5.5678v-2.4208m1.5735 1.2104a1.2104 1.2104 0 1 0 2.4208 0 1.2104 1.2104 0 1 0-2.4208 0z" fill="#F7BD13" stroke-width="0"/>
  </g>
 </g>
</svg>
