<?xml version="1.0" encoding="UTF-8"?>
<!-- Created with Fritzing (http://www.fritzing.org/) -->
<svg width="1.1in" height="1.2in" baseProfile="tiny" version="1.2" viewBox="0 0 79.2 86.4" xmlns="http://www.w3.org/2000/svg">
 <desc>
  <referenceFile>coin20mm - switched_pcb.svg</referenceFile>
 </desc>
 <desc>Fritzing footprint generated by brd2svg</desc>
 <g id="silkscreen">
  <path d="m78.912 11.016v67.944a6.912 6.912 0 0 1-7.1477 7.1518h-64.329a6.912 6.912 0 0 1-7.1477-7.1518v-67.944a6.912 6.912 0 0 1 7.1477-7.152h10.052a10.643 10.643 0 0 1 6.0094 1.1359l6.4749 4.165a6.912 6.912 0 0 0 3.8652 1.1359h12.108a6.912 6.912 0 0 0 4.0685-1.2717l6.3352-3.8934a9.2442 9.2442 0 0 1 5.498-1.2717h9.9182a6.912 6.912 0 0 1 7.1477 7.152m-68.521 55.876a1.1293 1.1293 0 1 0 2.2586 0 1.1293 1.1293 0 1 0-2.2586 0zm0-8.504a1.1293 1.1293 0 1 0 2.2586 0 1.1293 1.1293 0 1 0-2.2586 0z" fill="none" stroke="#fff" stroke-width=".576"/>
  <g>
   <title>element:B1</title>
   <g>
    <title>package:CR2032_SMT_BAT-HLD-001</title>
    <line x1="60.86" x2="18.907" y1="49.21" y2="49.21" stroke="#fff" stroke-linecap="round" stroke-width=".36"/>
    <line x1="18.057" x2="10.403" y1="49.21" y2="41.556" stroke="#fff" stroke-linecap="round" stroke-width=".36"/>
    <line x1="10.403" x2="10.403" y1="41.556" y2="35.603" stroke="#fff" stroke-linecap="round" stroke-width=".36"/>
    <line x1="10.403" x2="10.403" y1="21.43" y2="16.894" stroke="#fff" stroke-linecap="round" stroke-width=".36"/>
    <line x1="10.403" x2="18.907" y1="16.894" y2="8.3905" stroke="#fff" stroke-linecap="round" stroke-width=".36"/>
    <path d="m27.411 7.5401a6.7481 6.7481 0 0 0-8.5039 0.85039" fill="none" stroke="#fff" stroke-width=".36"/>
    <path d="m27.411 7.5401a22.807 22.807 0 0 0 25.228 0" fill="none" stroke="#fff" stroke-width=".36"/>
    <path d="m61.143 8.3905a6.7481 6.7481 0 0 0-8.504-0.85039" fill="none" stroke="#fff" stroke-width=".36"/>
    <line x1="61.143" x2="69.08" y1="8.3905" y2="16.328" stroke="#fff" stroke-linecap="round" stroke-width=".36"/>
    <line x1="69.08" x2="69.08" y1="16.328" y2="21.43" stroke="#fff" stroke-linecap="round" stroke-width=".36"/>
    <line x1="69.08" x2="69.08" y1="35.887" y2="40.989" stroke="#fff" stroke-linecap="round" stroke-width=".36"/>
    <line x1="69.08" x2="60.86" y1="40.989" y2="49.21" stroke="#fff" stroke-linecap="round" stroke-width=".36"/>
   </g>
  </g>
  <g>
   <title>element:SW1</title>
   <g>
    <title>package:EG1390</title>
    <line x1="16.481" x2="16.481" y1="52.435" y2="72.845" stroke="#fff" stroke-linecap="round" stroke-width=".36"/>
    <line x1="16.481" x2="6.5594" y1="72.845" y2="72.845" stroke="#fff" stroke-linecap="round" stroke-width=".36"/>
    <line x1="6.5594" x2="6.5594" y1="72.845" y2="52.435" stroke="#fff" stroke-linecap="round" stroke-width=".36"/>
    <line x1="6.5594" x2="16.481" y1="52.435" y2="52.435" stroke="#fff" stroke-linecap="round" stroke-width=".36"/>
   </g>
  </g>
  <line x1="7.5685" x2="72.199" y1=".288" y2=".288" fill="none" stroke="#fff" stroke-width=".576"/>
  <line x1="7.5685" x2="7.5685" y1="3.5465" y2=".288" fill="none" stroke="#fff" stroke-width=".576"/>
  <line x1="72.199" x2="72.199" y1="3.5465" y2=".288" fill="none" stroke="#fff" stroke-width=".576"/>
 </g>
 <g id="copper1">
  <g id="copper0" fill="none">
   <circle id="connector17pad" cx="7.2" cy="79.2" r="4.2633" stroke="#F7BD13" stroke-width="1.44" connectorname="P$1"/>
   <circle id="connector3pad" cx="50.4" cy="80.64" r="1.98" stroke="#F7BD13" stroke-width="1.08" connectorname="GND"/>
   <rect id="connector3terminal" x="50.395" y="83.155" width=".01008" height=".01008" stroke-width="0"/>
   <circle id="connector15pad" cx="7.2" cy="10.8" r="4.2633" stroke="#F7BD13" stroke-width="1.44" connectorname="P$1"/>
   <circle id="connector4pad" cx="43.2" cy="80.64" r="1.98" stroke="#F7BD13" stroke-width="1.08" connectorname="GND"/>
   <rect id="connector4terminal" x="43.195" y="83.155" width=".01008" height=".01008" stroke-width="0"/>
   <circle id="connector5pad" cx="36" cy="80.64" r="1.98" stroke="#F7BD13" stroke-width="1.08" connectorname="ON"/>
   <rect id="connector5terminal" x="35.995" y="83.155" width=".01008" height=".01008" stroke-width="0"/>
   <circle id="connector6pad" cx="28.8" cy="80.64" r="1.98" stroke="#F7BD13" stroke-width="1.08" connectorname="SW"/>
   <rect id="connector6terminal" x="28.795" y="83.155" width=".01008" height=".01008" stroke-width="0"/>
   <circle id="connector16pad" cx="72" cy="10.8" r="4.2633" stroke="#F7BD13" stroke-width="1.44" connectorname="P$1"/>
   <circle id="connector18pad" cx="72" cy="79.2" r="4.2633" stroke="#F7BD13" stroke-width="1.44" connectorname="P$1"/>
  </g>
 </g>
</svg>
