<?xml version="1.0" encoding="UTF-8"?>
<!-- Created with Fritzing (http://www.fritzing.org/) -->
<svg width="1.2in" height=".6in" baseProfile="tiny" version="1.2" viewBox="0 0 86.4 43.2" xmlns="http://www.w3.org/2000/svg">
 <desc>
  <referenceFile>Adafruit USB Type C Vertical Breakout_pcb.svg</referenceFile>
 </desc>
 <desc>Fritzing footprint generated by brd2svg</desc>
 <g id="silkscreen">
  <path d="m86.112 7.392v28.416a6.912 6.912 0 0 1-7.1518 7.104h-71.52a6.912 6.912 0 0 1-7.152-7.104v-28.416a6.912 6.912 0 0 1 7.152-7.104h71.52a6.912 6.912 0 0 1 7.1518 7.104m-28.592 14.208a0.98759 0.98759 0 1 0 1.9752 0 0.98759 0.98759 0 1 0-1.9752 0zm-30.614 0a0.98759 0.98759 0 1 0 1.9752 0 0.98759 0.98759 0 1 0-1.9752 0z" fill="none" stroke="#fff" stroke-width=".576"/>
  <g>
   <title>element:JP1</title>
   <g>
    <title>package:1X08_ROUND_76</title>
   </g>
  </g>
  <g>
   <title>element:JP2</title>
   <g>
    <title>package:1X08_ROUND_76</title>
   </g>
  </g>
  <g>
   <title>element:PLABEL6</title>
   <g>
    <title>package:PLABEL6</title>
   </g>
  </g>
  <g>
   <title>element:X1</title>
   <g>
    <title>package:USB_C_VERTICAL</title>
    <circle cx="58.535" cy="25.313" r=".028346" fill="none" stroke="#fff" stroke-width="1.44"/>
   </g>
  </g>
 </g>
 <g id="copper1">
  <g id="copper0">
   <circle id="connector30pad" cx="79.2" cy="36" r="4.2633" fill="none" stroke="#F7BD13" stroke-width="1.44" connectorname="P$1"/>
   <circle id="connector7pad" cx="68.4" cy="36" r="2.0767" fill="none" stroke="#F7BD13" stroke-width="1.3187" connectorname="GND"/>
   <circle id="connector8pad" cx="61.2" cy="36" r="2.0767" fill="none" stroke="#F7BD13" stroke-width="1.3187" connectorname="VBUS"/>
   <circle id="connector9pad" cx="54" cy="36" r="2.0767" fill="none" stroke="#F7BD13" stroke-width="1.3187" connectorname="SBU1"/>
   <circle id="connector10pad" cx="46.8" cy="36" r="2.0767" fill="none" stroke="#F7BD13" stroke-width="1.3187" connectorname="CC1"/>
   <circle id="connector50pad" cx="31.224" cy="27.326" r="1.2104" fill="none" stroke="#F7BD13" stroke-width=".72" connectorname="GND"/>
   <path d="m28.44 26.116h5.5678v2.4208h-5.5678v-2.4208m1.5735 1.2104a1.2104 1.2104 0 1 0 2.4208 0 1.2104 1.2104 0 1 0-2.4208 0z" fill="#F7BD13" stroke-width="0"/>
   <circle id="connector11pad" cx="39.6" cy="36" r="2.0767" fill="none" stroke="#F7BD13" stroke-width="1.3187" connectorname="D+"/>
   <circle id="connector12pad" cx="32.4" cy="36" r="2.0767" fill="none" stroke="#F7BD13" stroke-width="1.3187" connectorname="D-"/>
   <circle id="connector13pad" cx="25.2" cy="36" r="2.0767" fill="none" stroke="#F7BD13" stroke-width="1.3187" connectorname="SBU2"/>
   <circle id="connector14pad" cx="18" cy="36" r="2.0767" fill="none" stroke="#F7BD13" stroke-width="1.3187" connectorname="CC2"/>
   <circle id="connector15pad" cx="68.4" cy="7.2" r="2.0767" fill="none" stroke="#F7BD13" stroke-width="1.3187" connectorname="GND"/>
   <circle id="connector48pad" cx="55.176" cy="27.326" r="1.2104" fill="none" stroke="#F7BD13" stroke-width=".72" connectorname="GND"/>
   <path d="m52.392 26.116h5.5678v2.4208h-5.5678v-2.4208m1.5735 1.2104a1.2104 1.2104 0 1 0 2.4208 0 1.2104 1.2104 0 1 0-2.4208 0z" fill="#F7BD13" stroke-width="0"/>
   <circle id="connector16pad" cx="61.2" cy="7.2" r="2.0767" fill="none" stroke="#F7BD13" stroke-width="1.3187" connectorname="VBUS"/>
   <circle id="connector29pad" cx="7.2" cy="36" r="4.2633" fill="none" stroke="#F7BD13" stroke-width="1.44" connectorname="P$1"/>
   <circle id="connector17pad" cx="54" cy="7.2" r="2.0767" fill="none" stroke="#F7BD13" stroke-width="1.3187" connectorname="SBU1"/>
   <circle id="connector18pad" cx="46.8" cy="7.2" r="2.0767" fill="none" stroke="#F7BD13" stroke-width="1.3187" connectorname="CC1"/>
   <circle id="connector19pad" cx="39.6" cy="7.2" r="2.0767" fill="none" stroke="#F7BD13" stroke-width="1.3187" connectorname="D+"/>
   <circle id="connector20pad" cx="32.4" cy="7.2" r="2.0767" fill="none" stroke="#F7BD13" stroke-width="1.3187" connectorname="D-"/>
   <circle id="connector21pad" cx="25.2" cy="7.2" r="2.0767" fill="none" stroke="#F7BD13" stroke-width="1.3187" connectorname="SBU2"/>
   <circle id="connector22pad" cx="18" cy="7.2" r="2.0767" fill="none" stroke="#F7BD13" stroke-width="1.3187" connectorname="CC2"/>
   <circle id="connector47pad" cx="55.176" cy="15.874" r="1.2104" fill="none" stroke="#F7BD13" stroke-width=".72" connectorname="GND"/>
   <path d="m52.392 14.664h5.5678v2.4208h-5.5678v-2.4208m1.5735 1.2104a1.2104 1.2104 0 1 0 2.4208 0 1.2104 1.2104 0 1 0-2.4208 0z" fill="#F7BD13" stroke-width="0"/>
   <circle id="connector49pad" cx="31.224" cy="15.874" r="1.2104" fill="none" stroke="#F7BD13" stroke-width=".72" connectorname="GND"/>
   <path d="m28.44 14.664h5.5678v2.4208h-5.5678v-2.4208m1.5735 1.2104a1.2104 1.2104 0 1 0 2.4208 0 1.2104 1.2104 0 1 0-2.4208 0z" fill="#F7BD13" stroke-width="0"/>
   <circle id="connector27pad" cx="79.2" cy="7.2" r="4.2633" fill="none" stroke="#F7BD13" stroke-width="1.44" connectorname="P$1"/>
   <circle id="connector28pad" cx="7.2" cy="7.2" r="4.2633" fill="none" stroke="#F7BD13" stroke-width="1.44" connectorname="P$1"/>
  </g>
 </g>
</svg>
