<?xml version="1.0" encoding="UTF-8"?>
<!-- Created with Fritzing (http://www.fritzing.org/) -->
<svg width="2.6891in" height="1.2071in" baseProfile="tiny" version="1.2" viewBox="0 0 193.61 86.911" xmlns="http://www.w3.org/2000/svg">
 <desc>
  <referenceFile>Servo Bonnet rev B_pcb.svg</referenceFile>
 </desc>
 <desc>Fritzing footprint generated by brd2svg</desc>
 <g id="silkscreen">
  <path d="m9.648 0.288h183.68v86.335h-183.68v-86.335zm5.9527 11.505a3.6805 3.6805 0 1 0 7.361 0 3.6805 3.6805 0 1 0-7.361 0zm164.41 0a3.6805 3.6805 0 1 0 7.361 0 3.6805 3.6805 0 1 0-7.361 0zm0 65.197a3.6805 3.6805 0 1 0 7.361 0 3.6805 3.6805 0 1 0-7.361 0zm-164.41 0a3.6805 3.6805 0 1 0 7.361 0 3.6805 3.6805 0 1 0-7.361 0z" fill="none" stroke="#fff" stroke-width=".576"/>
  <g>
   <title>element:5VIN</title>
   <g>
    <title>package:TERMBLOCK_1X2-3.5MM</title>
    <line x1="38.798" x2="22.924" y1="31.194" y2="31.194" stroke="#fff" stroke-linecap="round" stroke-width=".576"/>
    <line x1="22.924" x2="18.955" y1="31.194" y2="31.194" stroke="#fff" stroke-linecap="round" stroke-width=".576"/>
    <line x1="18.955" x2="18.955" y1="31.194" y2="51.036" stroke="#fff" stroke-linecap="round" stroke-width=".576"/>
    <line x1="18.955" x2="22.924" y1="51.036" y2="51.036" stroke="#fff" stroke-linecap="round" stroke-width=".576"/>
    <line x1="22.924" x2="38.798" y1="51.036" y2="51.036" stroke="#fff" stroke-linecap="round" stroke-width=".576"/>
    <line x1="38.798" x2="38.798" y1="51.036" y2="31.194" stroke="#fff" stroke-linecap="round" stroke-width=".576"/>
    <line x1="22.924" x2="22.924" y1="31.194" y2="51.036" stroke="#fff" stroke-linecap="round" stroke-width=".576"/>
   </g>
  </g>
  <g>
   <title>element:C2</title>
   <g>
    <title>package:E3,5-8</title>
    <line x1="133.92" x2="133.92" y1="54.511" y2="52.351" stroke="#fff" stroke-linecap="round" stroke-width=".432"/>
    <line x1="135" x2="132.84" y1="53.431" y2="53.431" stroke="#fff" stroke-linecap="round" stroke-width=".432"/>
    <circle cx="137.16" cy="44.791" r="11.52" fill="none" stroke="#fff" stroke-width=".432"/>
   </g>
  </g>
  <g>
   <title>element:CONN1</title>
   <g>
    <title>package:1X25_ROUND_70MIL</title>
   </g>
  </g>
  <g>
   <title>element:JP1</title>
   <g>
    <title>package:3X04</title>
    <line x1="97.56" x2="95.76" y1="64.951" y2="63.151" stroke="#fff" stroke-linecap="round" stroke-width=".576"/>
    <line x1="92.16" x2="90.36" y1="63.151" y2="64.951" stroke="#fff" stroke-linecap="round" stroke-width=".576"/>
    <line x1="90.36" x2="88.56" y1="64.951" y2="63.151" stroke="#fff" stroke-linecap="round" stroke-width=".576"/>
    <line x1="84.96" x2="83.16" y1="63.151" y2="64.951" stroke="#fff" stroke-linecap="round" stroke-width=".576"/>
    <line x1="83.16" x2="81.36" y1="64.951" y2="63.151" stroke="#fff" stroke-linecap="round" stroke-width=".576"/>
    <line x1="77.76" x2="75.96" y1="63.151" y2="64.951" stroke="#fff" stroke-linecap="round" stroke-width=".576"/>
    <line x1="75.96" x2="74.16" y1="64.951" y2="63.151" stroke="#fff" stroke-linecap="round" stroke-width=".576"/>
    <line x1="70.56" x2="68.76" y1="63.151" y2="64.951" stroke="#fff" stroke-linecap="round" stroke-width=".576"/>
    <line x1="97.56" x2="97.56" y1="64.951" y2="82.951" stroke="#fff" stroke-linecap="round" stroke-width=".576"/>
    <line x1="97.56" x2="95.76" y1="82.951" y2="84.751" stroke="#fff" stroke-linecap="round" stroke-width=".576"/>
    <line x1="95.76" x2="92.16" y1="84.751" y2="84.751" stroke="#fff" stroke-linecap="round" stroke-width=".576"/>
    <line x1="92.16" x2="90.36" y1="84.751" y2="82.951" stroke="#fff" stroke-linecap="round" stroke-width=".576"/>
    <line x1="90.36" x2="88.56" y1="82.951" y2="84.751" stroke="#fff" stroke-linecap="round" stroke-width=".576"/>
    <line x1="88.56" x2="84.96" y1="84.751" y2="84.751" stroke="#fff" stroke-linecap="round" stroke-width=".576"/>
    <line x1="84.96" x2="83.16" y1="84.751" y2="82.951" stroke="#fff" stroke-linecap="round" stroke-width=".576"/>
    <line x1="83.16" x2="81.36" y1="82.951" y2="84.751" stroke="#fff" stroke-linecap="round" stroke-width=".576"/>
    <line x1="81.36" x2="77.76" y1="84.751" y2="84.751" stroke="#fff" stroke-linecap="round" stroke-width=".576"/>
    <line x1="77.76" x2="75.96" y1="84.751" y2="82.951" stroke="#fff" stroke-linecap="round" stroke-width=".576"/>
    <line x1="75.96" x2="74.16" y1="82.951" y2="84.751" stroke="#fff" stroke-linecap="round" stroke-width=".576"/>
    <line x1="74.16" x2="70.56" y1="84.751" y2="84.751" stroke="#fff" stroke-linecap="round" stroke-width=".576"/>
    <line x1="70.56" x2="68.76" y1="84.751" y2="82.951" stroke="#fff" stroke-linecap="round" stroke-width=".576"/>
    <line x1="90.36" x2="90.36" y1="82.951" y2="64.951" stroke="#fff" stroke-linecap="round" stroke-width=".576"/>
    <line x1="83.16" x2="83.16" y1="82.951" y2="64.951" stroke="#fff" stroke-linecap="round" stroke-width=".576"/>
    <line x1="75.96" x2="75.96" y1="82.951" y2="64.951" stroke="#fff" stroke-linecap="round" stroke-width=".576"/>
    <line x1="68.76" x2="68.76" y1="82.951" y2="64.951" stroke="#fff" stroke-linecap="round" stroke-width=".576"/>
    <line x1="74.16" x2="70.56" y1="63.151" y2="63.151" stroke="#fff" stroke-linecap="round" stroke-width=".576"/>
    <line x1="81.36" x2="77.76" y1="63.151" y2="63.151" stroke="#fff" stroke-linecap="round" stroke-width=".576"/>
    <line x1="88.56" x2="84.96" y1="63.151" y2="63.151" stroke="#fff" stroke-linecap="round" stroke-width=".576"/>
    <line x1="95.76" x2="92.16" y1="63.151" y2="63.151" stroke="#fff" stroke-linecap="round" stroke-width=".576"/>
   </g>
  </g>
  <g>
   <title>element:JP2</title>
   <g>
    <title>package:3X04</title>
    <line x1="61.56" x2="59.76" y1="64.951" y2="63.151" stroke="#fff" stroke-linecap="round" stroke-width=".576"/>
    <line x1="56.16" x2="54.36" y1="63.151" y2="64.951" stroke="#fff" stroke-linecap="round" stroke-width=".576"/>
    <line x1="54.36" x2="52.56" y1="64.951" y2="63.151" stroke="#fff" stroke-linecap="round" stroke-width=".576"/>
    <line x1="48.96" x2="47.16" y1="63.151" y2="64.951" stroke="#fff" stroke-linecap="round" stroke-width=".576"/>
    <line x1="47.16" x2="45.36" y1="64.951" y2="63.151" stroke="#fff" stroke-linecap="round" stroke-width=".576"/>
    <line x1="41.76" x2="39.96" y1="63.151" y2="64.951" stroke="#fff" stroke-linecap="round" stroke-width=".576"/>
    <line x1="39.96" x2="38.16" y1="64.951" y2="63.151" stroke="#fff" stroke-linecap="round" stroke-width=".576"/>
    <line x1="34.56" x2="32.76" y1="63.151" y2="64.951" stroke="#fff" stroke-linecap="round" stroke-width=".576"/>
    <line x1="61.56" x2="61.56" y1="64.951" y2="82.951" stroke="#fff" stroke-linecap="round" stroke-width=".576"/>
    <line x1="61.56" x2="59.76" y1="82.951" y2="84.751" stroke="#fff" stroke-linecap="round" stroke-width=".576"/>
    <line x1="59.76" x2="56.16" y1="84.751" y2="84.751" stroke="#fff" stroke-linecap="round" stroke-width=".576"/>
    <line x1="56.16" x2="54.36" y1="84.751" y2="82.951" stroke="#fff" stroke-linecap="round" stroke-width=".576"/>
    <line x1="54.36" x2="52.56" y1="82.951" y2="84.751" stroke="#fff" stroke-linecap="round" stroke-width=".576"/>
    <line x1="52.56" x2="48.96" y1="84.751" y2="84.751" stroke="#fff" stroke-linecap="round" stroke-width=".576"/>
    <line x1="48.96" x2="47.16" y1="84.751" y2="82.951" stroke="#fff" stroke-linecap="round" stroke-width=".576"/>
    <line x1="47.16" x2="45.36" y1="82.951" y2="84.751" stroke="#fff" stroke-linecap="round" stroke-width=".576"/>
    <line x1="45.36" x2="41.76" y1="84.751" y2="84.751" stroke="#fff" stroke-linecap="round" stroke-width=".576"/>
    <line x1="41.76" x2="39.96" y1="84.751" y2="82.951" stroke="#fff" stroke-linecap="round" stroke-width=".576"/>
    <line x1="39.96" x2="38.16" y1="82.951" y2="84.751" stroke="#fff" stroke-linecap="round" stroke-width=".576"/>
    <line x1="38.16" x2="34.56" y1="84.751" y2="84.751" stroke="#fff" stroke-linecap="round" stroke-width=".576"/>
    <line x1="34.56" x2="32.76" y1="84.751" y2="82.951" stroke="#fff" stroke-linecap="round" stroke-width=".576"/>
    <line x1="54.36" x2="54.36" y1="82.951" y2="64.951" stroke="#fff" stroke-linecap="round" stroke-width=".576"/>
    <line x1="47.16" x2="47.16" y1="82.951" y2="64.951" stroke="#fff" stroke-linecap="round" stroke-width=".576"/>
    <line x1="39.96" x2="39.96" y1="82.951" y2="64.951" stroke="#fff" stroke-linecap="round" stroke-width=".576"/>
    <line x1="32.76" x2="32.76" y1="82.951" y2="64.951" stroke="#fff" stroke-linecap="round" stroke-width=".576"/>
    <line x1="38.16" x2="34.56" y1="63.151" y2="63.151" stroke="#fff" stroke-linecap="round" stroke-width=".576"/>
    <line x1="45.36" x2="41.76" y1="63.151" y2="63.151" stroke="#fff" stroke-linecap="round" stroke-width=".576"/>
    <line x1="52.56" x2="48.96" y1="63.151" y2="63.151" stroke="#fff" stroke-linecap="round" stroke-width=".576"/>
    <line x1="59.76" x2="56.16" y1="63.151" y2="63.151" stroke="#fff" stroke-linecap="round" stroke-width=".576"/>
   </g>
  </g>
  <g>
   <title>element:JP4</title>
   <g>
    <title>package:1X03_ROUND</title>
   </g>
  </g>
  <g>
   <title>element:JP5</title>
   <g>
    <title>package:3X04</title>
    <line x1="169.56" x2="167.76" y1="64.951" y2="63.151" stroke="#fff" stroke-linecap="round" stroke-width=".576"/>
    <line x1="164.16" x2="162.36" y1="63.151" y2="64.951" stroke="#fff" stroke-linecap="round" stroke-width=".576"/>
    <line x1="162.36" x2="160.56" y1="64.951" y2="63.151" stroke="#fff" stroke-linecap="round" stroke-width=".576"/>
    <line x1="156.96" x2="155.16" y1="63.151" y2="64.951" stroke="#fff" stroke-linecap="round" stroke-width=".576"/>
    <line x1="155.16" x2="153.36" y1="64.951" y2="63.151" stroke="#fff" stroke-linecap="round" stroke-width=".576"/>
    <line x1="149.76" x2="147.96" y1="63.151" y2="64.951" stroke="#fff" stroke-linecap="round" stroke-width=".576"/>
    <line x1="147.96" x2="146.16" y1="64.951" y2="63.151" stroke="#fff" stroke-linecap="round" stroke-width=".576"/>
    <line x1="142.56" x2="140.76" y1="63.151" y2="64.951" stroke="#fff" stroke-linecap="round" stroke-width=".576"/>
    <line x1="169.56" x2="169.56" y1="64.951" y2="82.951" stroke="#fff" stroke-linecap="round" stroke-width=".576"/>
    <line x1="169.56" x2="167.76" y1="82.951" y2="84.751" stroke="#fff" stroke-linecap="round" stroke-width=".576"/>
    <line x1="167.76" x2="164.16" y1="84.751" y2="84.751" stroke="#fff" stroke-linecap="round" stroke-width=".576"/>
    <line x1="164.16" x2="162.36" y1="84.751" y2="82.951" stroke="#fff" stroke-linecap="round" stroke-width=".576"/>
    <line x1="162.36" x2="160.56" y1="82.951" y2="84.751" stroke="#fff" stroke-linecap="round" stroke-width=".576"/>
    <line x1="160.56" x2="156.96" y1="84.751" y2="84.751" stroke="#fff" stroke-linecap="round" stroke-width=".576"/>
    <line x1="156.96" x2="155.16" y1="84.751" y2="82.951" stroke="#fff" stroke-linecap="round" stroke-width=".576"/>
    <line x1="155.16" x2="153.36" y1="82.951" y2="84.751" stroke="#fff" stroke-linecap="round" stroke-width=".576"/>
    <line x1="153.36" x2="149.76" y1="84.751" y2="84.751" stroke="#fff" stroke-linecap="round" stroke-width=".576"/>
    <line x1="149.76" x2="147.96" y1="84.751" y2="82.951" stroke="#fff" stroke-linecap="round" stroke-width=".576"/>
    <line x1="147.96" x2="146.16" y1="82.951" y2="84.751" stroke="#fff" stroke-linecap="round" stroke-width=".576"/>
    <line x1="146.16" x2="142.56" y1="84.751" y2="84.751" stroke="#fff" stroke-linecap="round" stroke-width=".576"/>
    <line x1="142.56" x2="140.76" y1="84.751" y2="82.951" stroke="#fff" stroke-linecap="round" stroke-width=".576"/>
    <line x1="162.36" x2="162.36" y1="82.951" y2="64.951" stroke="#fff" stroke-linecap="round" stroke-width=".576"/>
    <line x1="155.16" x2="155.16" y1="82.951" y2="64.951" stroke="#fff" stroke-linecap="round" stroke-width=".576"/>
    <line x1="147.96" x2="147.96" y1="82.951" y2="64.951" stroke="#fff" stroke-linecap="round" stroke-width=".576"/>
    <line x1="140.76" x2="140.76" y1="82.951" y2="64.951" stroke="#fff" stroke-linecap="round" stroke-width=".576"/>
    <line x1="146.16" x2="142.56" y1="63.151" y2="63.151" stroke="#fff" stroke-linecap="round" stroke-width=".576"/>
    <line x1="153.36" x2="149.76" y1="63.151" y2="63.151" stroke="#fff" stroke-linecap="round" stroke-width=".576"/>
    <line x1="160.56" x2="156.96" y1="63.151" y2="63.151" stroke="#fff" stroke-linecap="round" stroke-width=".576"/>
    <line x1="167.76" x2="164.16" y1="63.151" y2="63.151" stroke="#fff" stroke-linecap="round" stroke-width=".576"/>
   </g>
  </g>
  <g>
   <title>element:JP6</title>
   <g>
    <title>package:3X04</title>
    <line x1="133.56" x2="131.76" y1="64.951" y2="63.151" stroke="#fff" stroke-linecap="round" stroke-width=".576"/>
    <line x1="128.16" x2="126.36" y1="63.151" y2="64.951" stroke="#fff" stroke-linecap="round" stroke-width=".576"/>
    <line x1="126.36" x2="124.56" y1="64.951" y2="63.151" stroke="#fff" stroke-linecap="round" stroke-width=".576"/>
    <line x1="120.96" x2="119.16" y1="63.151" y2="64.951" stroke="#fff" stroke-linecap="round" stroke-width=".576"/>
    <line x1="119.16" x2="117.36" y1="64.951" y2="63.151" stroke="#fff" stroke-linecap="round" stroke-width=".576"/>
    <line x1="113.76" x2="111.96" y1="63.151" y2="64.951" stroke="#fff" stroke-linecap="round" stroke-width=".576"/>
    <line x1="111.96" x2="110.16" y1="64.951" y2="63.151" stroke="#fff" stroke-linecap="round" stroke-width=".576"/>
    <line x1="106.56" x2="104.76" y1="63.151" y2="64.951" stroke="#fff" stroke-linecap="round" stroke-width=".576"/>
    <line x1="133.56" x2="133.56" y1="64.951" y2="82.951" stroke="#fff" stroke-linecap="round" stroke-width=".576"/>
    <line x1="133.56" x2="131.76" y1="82.951" y2="84.751" stroke="#fff" stroke-linecap="round" stroke-width=".576"/>
    <line x1="131.76" x2="128.16" y1="84.751" y2="84.751" stroke="#fff" stroke-linecap="round" stroke-width=".576"/>
    <line x1="128.16" x2="126.36" y1="84.751" y2="82.951" stroke="#fff" stroke-linecap="round" stroke-width=".576"/>
    <line x1="126.36" x2="124.56" y1="82.951" y2="84.751" stroke="#fff" stroke-linecap="round" stroke-width=".576"/>
    <line x1="124.56" x2="120.96" y1="84.751" y2="84.751" stroke="#fff" stroke-linecap="round" stroke-width=".576"/>
    <line x1="120.96" x2="119.16" y1="84.751" y2="82.951" stroke="#fff" stroke-linecap="round" stroke-width=".576"/>
    <line x1="119.16" x2="117.36" y1="82.951" y2="84.751" stroke="#fff" stroke-linecap="round" stroke-width=".576"/>
    <line x1="117.36" x2="113.76" y1="84.751" y2="84.751" stroke="#fff" stroke-linecap="round" stroke-width=".576"/>
    <line x1="113.76" x2="111.96" y1="84.751" y2="82.951" stroke="#fff" stroke-linecap="round" stroke-width=".576"/>
    <line x1="111.96" x2="110.16" y1="82.951" y2="84.751" stroke="#fff" stroke-linecap="round" stroke-width=".576"/>
    <line x1="110.16" x2="106.56" y1="84.751" y2="84.751" stroke="#fff" stroke-linecap="round" stroke-width=".576"/>
    <line x1="106.56" x2="104.76" y1="84.751" y2="82.951" stroke="#fff" stroke-linecap="round" stroke-width=".576"/>
    <line x1="126.36" x2="126.36" y1="82.951" y2="64.951" stroke="#fff" stroke-linecap="round" stroke-width=".576"/>
    <line x1="119.16" x2="119.16" y1="82.951" y2="64.951" stroke="#fff" stroke-linecap="round" stroke-width=".576"/>
    <line x1="111.96" x2="111.96" y1="82.951" y2="64.951" stroke="#fff" stroke-linecap="round" stroke-width=".576"/>
    <line x1="104.76" x2="104.76" y1="82.951" y2="64.951" stroke="#fff" stroke-linecap="round" stroke-width=".576"/>
    <line x1="110.16" x2="106.56" y1="63.151" y2="63.151" stroke="#fff" stroke-linecap="round" stroke-width=".576"/>
    <line x1="117.36" x2="113.76" y1="63.151" y2="63.151" stroke="#fff" stroke-linecap="round" stroke-width=".576"/>
    <line x1="124.56" x2="120.96" y1="63.151" y2="63.151" stroke="#fff" stroke-linecap="round" stroke-width=".576"/>
    <line x1="131.76" x2="128.16" y1="63.151" y2="63.151" stroke="#fff" stroke-linecap="round" stroke-width=".576"/>
   </g>
  </g>
  <g>
   <title>element:Q1</title>
   <g>
    <title>package:TO252</title>
    <line x1="48.851" x2="65.843" y1="29.208" y2="29.206" stroke="#fff" stroke-linecap="round" stroke-width=".576"/>
    <line x1="65.843" x2="65.843" y1="29.206" y2="47.785" stroke="#fff" stroke-linecap="round" stroke-width=".576"/>
    <line x1="65.843" x2="48.851" y1="47.785" y2="47.784" stroke="#fff" stroke-linecap="round" stroke-width=".576"/>
   </g>
  </g>
  <g>
   <title>element:RPI1</title>
   <g>
    <title>package:PI_BONNET_THMSMT</title>
   </g>
  </g>
  <g>
   <title>element:U$6</title>
   <g>
    <title>package:ADAFRUIT_TEXT_20MM</title>
   </g>
  </g>
  <g>
   <title>element:U2</title>
   <g>
    <title>package:TSSOP28</title>
    <line x1="107.99" x2="95.049" y1="58.887" y2="58.887" stroke="#fff" stroke-linecap="round" stroke-width=".576"/>
    <line x1="95.049" x2="107.99" y1="33.576" y2="33.576" stroke="#fff" stroke-linecap="round" stroke-width=".576"/>
    <circle cx="98.064" cy="36.096" r="1.296" fill="none" stroke="#fff" stroke-width=".576"/>
   </g>
  </g>
  <g>
   <title>element:X1</title>
   <g>
    <title>package:DCJACK_2MM_PTH</title>
    <line x1="40.252" x2="40.252" y1="54.307" y2="48.355" stroke="#fff" stroke-linecap="round" stroke-width=".576"/>
    <line x1="9.3543" x2="23.811" y1="54.307" y2="54.307" stroke="#fff" stroke-linecap="round" stroke-width=".576"/>
    <line x1="40.252" x2="37.134" y1="54.307" y2="54.307" stroke="#fff" stroke-linecap="round" stroke-width=".576"/>
    <line x1="9.3543" x2="40.252" y1="28.796" y2="28.796" stroke="#fff" stroke-linecap="round" stroke-width=".576"/>
    <line x1="40.252" x2="40.252" y1="28.796" y2="34.181" stroke="#fff" stroke-linecap="round" stroke-width=".576"/>
    <line x1="9.3543" x2="9.3543" y1="28.796" y2="54.307" stroke="#fff" stroke-linecap="round" stroke-width=".576"/>
   </g>
  </g>
  <line x1=".288" x2="9.36" y1="56.575" y2="56.575" fill="none" stroke="#fff" stroke-width=".576"/>
  <line x1=".288" x2="9.36" y1="28.796" y2="28.796" fill="none" stroke="#fff" stroke-width=".576"/>
  <line x1=".288" x2=".288" y1="56.575" y2="28.796" fill="none" stroke="#fff" stroke-width=".576"/>
 </g>
 <g id="copper1">
  <g id="copper0">
   <circle id="connector6pad" cx="29.16" cy="36.012" r="2.2567" fill="none" stroke="#F7BD13" stroke-width="1.6787" connectorname="GND"/>
   <circle id="connector166pad" cx="105.09" cy="8.1932" r="1.8258" fill="none" stroke="#F7BD13" stroke-width="1.1004" connectorname="GPIO25"/>
   <circle id="connector9pad" cx="137.16" cy="49.831" r="1.71" fill="none" stroke="#F7BD13" stroke-width="1.116" connectorname="+5V"/>
   <circle id="connector150pad" cx="47.486" cy="8.1932" r="1.8258" fill="none" stroke="#F7BD13" stroke-width="1.1004" connectorname="GND"/>
   <circle id="connector10pad" cx="137.16" cy="39.751" r="1.71" fill="none" stroke="#F7BD13" stroke-width="1.116" connectorname="GND"/>
   <circle id="connector182pad" cx="162.69" cy="8.1932" r="1.8258" fill="none" stroke="#F7BD13" stroke-width="1.1004" connectorname="GPIO20"/>
   <circle id="connector11pad" cx="15.12" cy="25.711" r="1.8967" fill="none" stroke="#F7BD13" stroke-width=".95868" connectorname="SDA"/>
   <circle id="connector12pad" cx="22.32" cy="25.711" r="1.8967" fill="none" stroke="#F7BD13" stroke-width=".95868" connectorname="SCL"/>
   <circle id="connector13pad" cx="29.52" cy="25.711" r="1.8967" fill="none" stroke="#F7BD13" stroke-width=".95868" connectorname="TXD"/>
   <circle id="connector14pad" cx="36.72" cy="25.711" r="1.8967" fill="none" stroke="#F7BD13" stroke-width=".95868" connectorname="RXD"/>
   <circle id="connector158pad" cx="76.286" cy="8.1932" r="1.8258" fill="none" stroke="#F7BD13" stroke-width="1.1004" connectorname="GND"/>
   <circle id="connector15pad" cx="43.92" cy="25.711" r="1.8967" fill="none" stroke="#F7BD13" stroke-width=".95868" connectorname="GPIO4"/>
   <circle id="connector174pad" cx="133.89" cy="8.1932" r="1.8258" fill="none" stroke="#F7BD13" stroke-width="1.1004" connectorname="GND"/>
   <circle id="connector16pad" cx="51.12" cy="25.711" r="1.8967" fill="none" stroke="#F7BD13" stroke-width=".95868" connectorname="GPIO17"/>
   <circle id="connector17pad" cx="58.32" cy="25.711" r="1.8967" fill="none" stroke="#F7BD13" stroke-width=".95868" connectorname="GPIO18"/>
   <circle id="connector18pad" cx="65.52" cy="25.711" r="1.8967" fill="none" stroke="#F7BD13" stroke-width=".95868" connectorname="GPIO27"/>
   <circle id="connector19pad" cx="72.72" cy="25.711" r="1.8967" fill="none" stroke="#F7BD13" stroke-width=".95868" connectorname="GPIO22"/>
   <circle id="connector20pad" cx="79.92" cy="25.711" r="1.8967" fill="none" stroke="#F7BD13" stroke-width=".95868" connectorname="GPIO23"/>
   <circle id="connector21pad" cx="87.12" cy="25.711" r="1.8967" fill="none" stroke="#F7BD13" stroke-width=".95868" connectorname="GPIO24"/>
   <circle id="connector22pad" cx="94.32" cy="25.711" r="1.8967" fill="none" stroke="#F7BD13" stroke-width=".95868" connectorname="GPIO25"/>
   <circle id="connector146pad" cx="33.086" cy="8.1932" r="1.8258" fill="none" stroke="#F7BD13" stroke-width="1.1004" connectorname="5.0V"/>
   <circle id="connector23pad" cx="101.52" cy="25.711" r="1.8967" fill="none" stroke="#F7BD13" stroke-width=".95868" connectorname="SPI_MOSI"/>
   <circle id="connector154pad" cx="61.886" cy="8.1932" r="1.8258" fill="none" stroke="#F7BD13" stroke-width="1.1004" connectorname="RXD"/>
   <circle id="connector24pad" cx="108.72" cy="25.711" r="1.8967" fill="none" stroke="#F7BD13" stroke-width=".95868" connectorname="SPI_MISO"/>
   <circle id="connector162pad" cx="90.686" cy="8.1932" r="1.8258" fill="none" stroke="#F7BD13" stroke-width="1.1004" connectorname="GPIO24"/>
   <circle id="connector25pad" cx="115.92" cy="25.711" r="1.8967" fill="none" stroke="#F7BD13" stroke-width=".95868" connectorname="SPI_SCLK"/>
   <circle id="connector170pad" cx="119.49" cy="8.1932" r="1.8258" fill="none" stroke="#F7BD13" stroke-width="1.1004" connectorname="SPI_CE1"/>
   <circle id="connector26pad" cx="123.12" cy="25.711" r="1.8967" fill="none" stroke="#F7BD13" stroke-width=".95868" connectorname="SPI_CE0"/>
   <circle id="connector178pad" cx="148.29" cy="8.1932" r="1.8258" fill="none" stroke="#F7BD13" stroke-width="1.1004" connectorname="GND"/>
   <circle id="connector27pad" cx="130.32" cy="25.711" r="1.8967" fill="none" stroke="#F7BD13" stroke-width=".95868" connectorname="SPI_CE1"/>
   <circle id="connector28pad" cx="137.52" cy="25.711" r="1.8967" fill="none" stroke="#F7BD13" stroke-width=".95868" connectorname="GPIO5"/>
   <circle id="connector29pad" cx="144.72" cy="25.711" r="1.8967" fill="none" stroke="#F7BD13" stroke-width=".95868" connectorname="GPIO6"/>
   <circle id="connector30pad" cx="151.92" cy="25.711" r="1.8967" fill="none" stroke="#F7BD13" stroke-width=".95868" connectorname="GPIO12"/>
   <circle id="connector31pad" cx="159.12" cy="25.711" r="1.8967" fill="none" stroke="#F7BD13" stroke-width=".95868" connectorname="GPIO13"/>
   <circle id="connector32pad" cx="166.32" cy="25.711" r="1.8967" fill="none" stroke="#F7BD13" stroke-width=".95868" connectorname="GPIO16"/>
   <circle id="connector226pad" cx="30.472" cy="55.158" r="2.622" fill="none" stroke="#F7BD13" stroke-width="2.4094" connectorname="GND"/>
   <path d="m24.442 52.536h12.061v5.2441h-12.061v-5.2441m3.4086 2.6221a2.622 2.622 0 1 0 5.2441 0 2.622 2.622 0 1 0-5.2441 0z" fill="#F7BD13" stroke-width="0"/>
   <circle id="connector33pad" cx="173.52" cy="25.711" r="1.8967" fill="none" stroke="#F7BD13" stroke-width=".95868" connectorname="GPIO19"/>
   <circle id="connector34pad" cx="180.72" cy="25.711" r="1.8967" fill="none" stroke="#F7BD13" stroke-width=".95868" connectorname="GPIO20"/>
   <circle id="connector35pad" cx="187.92" cy="25.711" r="1.8967" fill="none" stroke="#F7BD13" stroke-width=".95868" connectorname="GPIO21"/>
   <circle id="connector39pad" cx="93.96" cy="66.751" r="1.9687" fill="none" stroke="#F7BD13" stroke-width="1.1027" connectorname="SERVO07"/>
   <circle id="connector40pad" cx="93.96" cy="73.951" r="1.9687" fill="none" stroke="#F7BD13" stroke-width="1.1027" connectorname="+5V"/>
   <circle id="connector148pad" cx="40.286" cy="8.1932" r="1.8258" fill="none" stroke="#F7BD13" stroke-width="1.1004" connectorname="5.0V"/>
   <circle id="connector41pad" cx="93.96" cy="81.151" r="1.9687" fill="none" stroke="#F7BD13" stroke-width="1.1027" connectorname="GND"/>
   <circle id="connector152pad" cx="54.686" cy="8.1932" r="1.8258" fill="none" stroke="#F7BD13" stroke-width="1.1004" connectorname="TXD"/>
   <circle id="connector42pad" cx="86.76" cy="66.751" r="1.9687" fill="none" stroke="#F7BD13" stroke-width="1.1027" connectorname="SERVO06"/>
   <circle id="connector156pad" cx="69.086" cy="8.1932" r="1.8258" fill="none" stroke="#F7BD13" stroke-width="1.1004" connectorname="GPIO18"/>
   <circle id="connector43pad" cx="86.76" cy="73.951" r="1.9687" fill="none" stroke="#F7BD13" stroke-width="1.1027" connectorname="+5V"/>
   <circle id="connector160pad" cx="83.486" cy="8.1932" r="1.8258" fill="none" stroke="#F7BD13" stroke-width="1.1004" connectorname="GPIO23"/>
   <circle id="connector44pad" cx="86.76" cy="81.151" r="1.9687" fill="none" stroke="#F7BD13" stroke-width="1.1027" connectorname="GND"/>
   <circle id="connector164pad" cx="97.886" cy="8.1932" r="1.8258" fill="none" stroke="#F7BD13" stroke-width="1.1004" connectorname="GND"/>
   <circle id="connector45pad" cx="79.56" cy="66.751" r="1.9687" fill="none" stroke="#F7BD13" stroke-width="1.1027" connectorname="SERVO05"/>
   <circle id="connector168pad" cx="112.29" cy="8.1932" r="1.8258" fill="none" stroke="#F7BD13" stroke-width="1.1004" connectorname="SPI_CE0"/>
   <circle id="connector46pad" cx="79.56" cy="73.951" r="1.9687" fill="none" stroke="#F7BD13" stroke-width="1.1027" connectorname="+5V"/>
   <circle id="connector172pad" cx="126.69" cy="8.1932" r="1.8258" fill="none" stroke="#F7BD13" stroke-width="1.1004" connectorname="EECLK"/>
   <circle id="connector47pad" cx="79.56" cy="81.151" r="1.9687" fill="none" stroke="#F7BD13" stroke-width="1.1027" connectorname="GND"/>
   <circle id="connector176pad" cx="141.09" cy="8.1932" r="1.8258" fill="none" stroke="#F7BD13" stroke-width="1.1004" connectorname="GPIO12"/>
   <circle id="connector48pad" cx="72.36" cy="66.751" r="1.9687" fill="none" stroke="#F7BD13" stroke-width="1.1027" connectorname="SERVO04"/>
   <circle id="connector180pad" cx="155.49" cy="8.1932" r="1.8258" fill="none" stroke="#F7BD13" stroke-width="1.1004" connectorname="GPIO16"/>
   <circle id="connector49pad" cx="72.36" cy="73.951" r="1.9687" fill="none" stroke="#F7BD13" stroke-width="1.1027" connectorname="+5V"/>
   <circle id="connector184pad" cx="169.89" cy="8.1932" r="1.8258" fill="none" stroke="#F7BD13" stroke-width="1.1004" connectorname="GPIO21"/>
   <circle id="connector50pad" cx="72.36" cy="81.151" r="1.9687" fill="none" stroke="#F7BD13" stroke-width="1.1027" connectorname="GND"/>
   <circle id="connector51pad" cx="57.96" cy="66.751" r="1.9687" fill="none" stroke="#F7BD13" stroke-width="1.1027" connectorname="SERVO03"/>
   <circle id="connector52pad" cx="57.96" cy="73.951" r="1.9687" fill="none" stroke="#F7BD13" stroke-width="1.1027" connectorname="+5V"/>
   <circle id="connector53pad" cx="57.96" cy="81.151" r="1.9687" fill="none" stroke="#F7BD13" stroke-width="1.1027" connectorname="GND"/>
   <circle id="connector54pad" cx="50.76" cy="66.751" r="1.9687" fill="none" stroke="#F7BD13" stroke-width="1.1027" connectorname="SERVO02"/>
   <circle id="connector55pad" cx="50.76" cy="73.951" r="1.9687" fill="none" stroke="#F7BD13" stroke-width="1.1027" connectorname="+5V"/>
   <circle id="connector56pad" cx="50.76" cy="81.151" r="1.9687" fill="none" stroke="#F7BD13" stroke-width="1.1027" connectorname="GND"/>
   <circle id="connector57pad" cx="43.56" cy="66.751" r="1.9687" fill="none" stroke="#F7BD13" stroke-width="1.1027" connectorname="SERVO01"/>
   <circle id="connector58pad" cx="43.56" cy="73.951" r="1.9687" fill="none" stroke="#F7BD13" stroke-width="1.1027" connectorname="+5V"/>
   <circle id="connector59pad" cx="43.56" cy="81.151" r="1.9687" fill="none" stroke="#F7BD13" stroke-width="1.1027" connectorname="GND"/>
   <circle id="connector60pad" cx="36.36" cy="66.751" r="1.9687" fill="none" stroke="#F7BD13" stroke-width="1.1027" connectorname="SERVO00"/>
   <circle id="connector61pad" cx="36.36" cy="73.951" r="1.9687" fill="none" stroke="#F7BD13" stroke-width="1.1027" connectorname="+5V"/>
   <circle id="connector62pad" cx="36.36" cy="81.151" r="1.9687" fill="none" stroke="#F7BD13" stroke-width="1.1027" connectorname="GND"/>
   <circle id="connector63pad" cx="44.28" cy="51.991" r="1.8967" fill="none" stroke="#F7BD13" stroke-width=".95868" connectorname="5.0V"/>
   <circle id="connector64pad" cx="51.48" cy="51.991" r="1.8967" fill="none" stroke="#F7BD13" stroke-width=".95868" connectorname="3.3V"/>
   <circle id="connector65pad" cx="58.68" cy="51.991" r="1.8967" fill="none" stroke="#F7BD13" stroke-width=".95868" connectorname="GND"/>
   <circle id="connector66pad" cx="165.96" cy="66.751" r="1.9687" fill="none" stroke="#F7BD13" stroke-width="1.1027" connectorname="SERVO15"/>
   <circle id="connector67pad" cx="165.96" cy="73.951" r="1.9687" fill="none" stroke="#F7BD13" stroke-width="1.1027" connectorname="+5V"/>
   <circle id="connector68pad" cx="165.96" cy="81.151" r="1.9687" fill="none" stroke="#F7BD13" stroke-width="1.1027" connectorname="GND"/>
   <circle id="connector69pad" cx="158.76" cy="66.751" r="1.9687" fill="none" stroke="#F7BD13" stroke-width="1.1027" connectorname="SERVO14"/>
   <circle id="connector70pad" cx="158.76" cy="73.951" r="1.9687" fill="none" stroke="#F7BD13" stroke-width="1.1027" connectorname="+5V"/>
   <circle id="connector71pad" cx="158.76" cy="81.151" r="1.9687" fill="none" stroke="#F7BD13" stroke-width="1.1027" connectorname="GND"/>
   <circle id="connector72pad" cx="151.56" cy="66.751" r="1.9687" fill="none" stroke="#F7BD13" stroke-width="1.1027" connectorname="SERVO13"/>
   <circle id="connector73pad" cx="151.56" cy="73.951" r="1.9687" fill="none" stroke="#F7BD13" stroke-width="1.1027" connectorname="+5V"/>
   <circle id="connector74pad" cx="151.56" cy="81.151" r="1.9687" fill="none" stroke="#F7BD13" stroke-width="1.1027" connectorname="GND"/>
   <circle id="connector145pad" cx="33.086" cy="15.393" r="1.8258" fill="none" stroke="#F7BD13" stroke-width="1.1004" connectorname="3.3V"/>
   <circle id="connector75pad" cx="144.36" cy="66.751" r="1.9687" fill="none" stroke="#F7BD13" stroke-width="1.1027" connectorname="SERVO12"/>
   <circle id="connector147pad" cx="40.286" cy="15.393" r="1.8258" fill="none" stroke="#F7BD13" stroke-width="1.1004" connectorname="SDA"/>
   <circle id="connector76pad" cx="144.36" cy="73.951" r="1.9687" fill="none" stroke="#F7BD13" stroke-width="1.1027" connectorname="+5V"/>
   <circle id="connector149pad" cx="47.486" cy="15.393" r="1.8258" fill="none" stroke="#F7BD13" stroke-width="1.1004" connectorname="SCL"/>
   <circle id="connector77pad" cx="144.36" cy="81.151" r="1.9687" fill="none" stroke="#F7BD13" stroke-width="1.1027" connectorname="GND"/>
   <circle id="connector151pad" cx="54.686" cy="15.393" r="1.8258" fill="none" stroke="#F7BD13" stroke-width="1.1004" connectorname="GPIO4"/>
   <circle id="connector78pad" cx="129.96" cy="66.751" r="1.9687" fill="none" stroke="#F7BD13" stroke-width="1.1027" connectorname="SERVO11"/>
   <circle id="connector153pad" cx="61.886" cy="15.393" r="1.8258" fill="none" stroke="#F7BD13" stroke-width="1.1004" connectorname="GND"/>
   <circle id="connector79pad" cx="129.96" cy="73.951" r="1.9687" fill="none" stroke="#F7BD13" stroke-width="1.1027" connectorname="+5V"/>
   <circle id="connector155pad" cx="69.086" cy="15.393" r="1.8258" fill="none" stroke="#F7BD13" stroke-width="1.1004" connectorname="GPIO17"/>
   <circle id="connector80pad" cx="129.96" cy="81.151" r="1.9687" fill="none" stroke="#F7BD13" stroke-width="1.1027" connectorname="GND"/>
   <circle id="connector157pad" cx="76.286" cy="15.393" r="1.8258" fill="none" stroke="#F7BD13" stroke-width="1.1004" connectorname="GPIO27"/>
   <circle id="connector81pad" cx="122.76" cy="66.751" r="1.9687" fill="none" stroke="#F7BD13" stroke-width="1.1027" connectorname="SERVO10"/>
   <circle id="connector159pad" cx="83.486" cy="15.393" r="1.8258" fill="none" stroke="#F7BD13" stroke-width="1.1004" connectorname="GPIO22"/>
   <circle id="connector82pad" cx="122.76" cy="73.951" r="1.9687" fill="none" stroke="#F7BD13" stroke-width="1.1027" connectorname="+5V"/>
   <circle id="connector161pad" cx="90.686" cy="15.393" r="1.8258" fill="none" stroke="#F7BD13" stroke-width="1.1004" connectorname="3.3V"/>
   <circle id="connector83pad" cx="122.76" cy="81.151" r="1.9687" fill="none" stroke="#F7BD13" stroke-width="1.1027" connectorname="GND"/>
   <circle id="connector163pad" cx="97.886" cy="15.393" r="1.8258" fill="none" stroke="#F7BD13" stroke-width="1.1004" connectorname="SPI_MOSI"/>
   <circle id="connector84pad" cx="115.56" cy="66.751" r="1.9687" fill="none" stroke="#F7BD13" stroke-width="1.1027" connectorname="SERVO09"/>
   <circle id="connector165pad" cx="105.09" cy="15.393" r="1.8258" fill="none" stroke="#F7BD13" stroke-width="1.1004" connectorname="SPI_MISO"/>
   <circle id="connector85pad" cx="115.56" cy="73.951" r="1.9687" fill="none" stroke="#F7BD13" stroke-width="1.1027" connectorname="+5V"/>
   <circle id="connector167pad" cx="112.29" cy="15.393" r="1.8258" fill="none" stroke="#F7BD13" stroke-width="1.1004" connectorname="SPI_SCLK"/>
   <circle id="connector86pad" cx="115.56" cy="81.151" r="1.9687" fill="none" stroke="#F7BD13" stroke-width="1.1027" connectorname="GND"/>
   <circle id="connector169pad" cx="119.49" cy="15.393" r="1.8258" fill="none" stroke="#F7BD13" stroke-width="1.1004" connectorname="GND"/>
   <circle id="connector87pad" cx="108.36" cy="66.751" r="1.9687" fill="none" stroke="#F7BD13" stroke-width="1.1027" connectorname="SERVO08"/>
   <circle id="connector171pad" cx="126.69" cy="15.393" r="1.8258" fill="none" stroke="#F7BD13" stroke-width="1.1004" connectorname="EEDATA"/>
   <circle id="connector88pad" cx="108.36" cy="73.951" r="1.9687" fill="none" stroke="#F7BD13" stroke-width="1.1027" connectorname="+5V"/>
   <circle id="connector173pad" cx="133.89" cy="15.393" r="1.8258" fill="none" stroke="#F7BD13" stroke-width="1.1004" connectorname="GPIO5"/>
   <circle id="connector89pad" cx="108.36" cy="81.151" r="1.9687" fill="none" stroke="#F7BD13" stroke-width="1.1027" connectorname="GND"/>
   <circle id="connector175pad" cx="141.09" cy="15.393" r="1.8258" fill="none" stroke="#F7BD13" stroke-width="1.1004" connectorname="GPIO6"/>
   <circle id="connector177pad" cx="148.29" cy="15.393" r="1.8258" fill="none" stroke="#F7BD13" stroke-width="1.1004" connectorname="GPIO13"/>
   <circle id="connector179pad" cx="155.49" cy="15.393" r="1.8258" fill="none" stroke="#F7BD13" stroke-width="1.1004" connectorname="GPIO19"/>
   <circle id="connector181pad" cx="162.69" cy="15.393" r="1.8258" fill="none" stroke="#F7BD13" stroke-width="1.1004" connectorname="GPIO26"/>
   <circle id="connector183pad" cx="169.89" cy="15.393" r="1.8258" fill="none" stroke="#F7BD13" stroke-width="1.1004" connectorname="GND"/>
   <circle id="connector225pad" cx="20.835" cy="41.551" r="2.622" fill="none" stroke="#F7BD13" stroke-width="2.4094" connectorname="GND"/>
   <path d="m18.213 35.521h5.2441v12.061h-5.2441v-12.061m0 6.0306a2.622 2.622 0 1 0 5.2441 0 2.622 2.622 0 1 0-5.2441 0z" fill="#F7BD13" stroke-width="0"/>
   <circle id="connector227pad" cx="38.551" cy="41.551" r="2.622" fill="none" stroke="#F7BD13" stroke-width="2.4094" connectorname="PWR"/>
   <path d="m35.929 35.521h5.2441v12.061h-5.2441v-12.061m0 6.0306a2.622 2.622 0 1 0 5.2441 0 2.622 2.622 0 1 0-5.2441 0z" fill="#F7BD13" stroke-width="0"/>
   <circle id="connector5pad" cx="29.16" cy="45.934" r="2.2567" fill="none" stroke="#F7BD13" stroke-width="1.6787" connectorname="PWR"/>
  </g>
 </g>
</svg>
