<?xml version="1.0" encoding="UTF-8"?>
<!-- Created with Fritzing (http://www.fritzing.org/) -->
<svg width="1in" height=".8in" baseProfile="tiny" version="1.2" viewBox="0 0 72 57.6" xmlns="http://www.w3.org/2000/svg">
 <desc>
  <referenceFile>PCA9546 STEMMA QT_pcb.svg</referenceFile>
 </desc>
 <desc>Fritzing footprint generated by brd2svg</desc>
 <g id="silkscreen">
  <path d="m0.288 7.416a6.912 6.912 0 0 1 7.1424-7.128h57.139a6.912 6.912 0 0 1 7.1424 7.128v42.768a6.912 6.912 0 0 1-7.1424 7.128h-57.139a6.912 6.912 0 0 1-7.1424-7.128v-42.768m61.92-0.216a2.592 2.592 0 1 0 5.184 0 2.592 2.592 0 1 0-5.184 0zm0 43.2a2.592 2.592 0 1 0 5.184 0 2.592 2.592 0 1 0-5.184 0z" fill="none" stroke="#fff" stroke-width=".576"/>
  <g>
   <title>element:CONN1</title>
   <g>
    <title>package:JST_SH4</title>
    <line x1="16.696" x2="16.696" y1="51.494" y2="44.124" stroke="#fff" stroke-linecap="round" stroke-width=".432"/>
    <line x1="16.696" x2="19.814" y1="44.124" y2="44.124" stroke="#fff" stroke-linecap="round" stroke-width=".432"/>
    <line x1="30.586" x2="33.987" y1="44.124" y2="44.124" stroke="#fff" stroke-linecap="round" stroke-width=".432"/>
    <line x1="33.987" x2="33.987" y1="44.124" y2="51.494" stroke="#fff" stroke-linecap="round" stroke-width=".432"/>
    <line x1="19.247" x2="31.153" y1="56.313" y2="56.313" stroke="#fff" stroke-linecap="round" stroke-width=".432"/>
   </g>
  </g>
  <g>
   <title>element:CONN2</title>
   <g>
    <title>package:JST_SH4</title>
    <line x1="38.296" x2="38.296" y1="51.494" y2="44.124" stroke="#fff" stroke-linecap="round" stroke-width=".432"/>
    <line x1="38.296" x2="41.414" y1="44.124" y2="44.124" stroke="#fff" stroke-linecap="round" stroke-width=".432"/>
    <line x1="52.186" x2="55.587" y1="44.124" y2="44.124" stroke="#fff" stroke-linecap="round" stroke-width=".432"/>
    <line x1="55.587" x2="55.587" y1="44.124" y2="51.494" stroke="#fff" stroke-linecap="round" stroke-width=".432"/>
    <line x1="40.847" x2="52.753" y1="56.313" y2="56.313" stroke="#fff" stroke-linecap="round" stroke-width=".432"/>
   </g>
  </g>
  <g>
   <title>element:CONN4</title>
   <g>
    <title>package:JST_SH4</title>
    <line x1="6.4658" x2="13.836" y1="20.296" y2="20.296" stroke="#fff" stroke-linecap="round" stroke-width=".432"/>
    <line x1="13.836" x2="13.836" y1="20.296" y2="23.414" stroke="#fff" stroke-linecap="round" stroke-width=".432"/>
    <line x1="13.836" x2="13.836" y1="34.186" y2="37.587" stroke="#fff" stroke-linecap="round" stroke-width=".432"/>
    <line x1="13.836" x2="6.4658" y1="37.587" y2="37.587" stroke="#fff" stroke-linecap="round" stroke-width=".432"/>
    <line x1="1.6469" x2="1.6469" y1="22.847" y2="34.753" stroke="#fff" stroke-linecap="round" stroke-width=".432"/>
   </g>
  </g>
  <g>
   <title>element:CONN9</title>
   <g>
    <title>package:JST_SH4</title>
    <line x1="55.304" x2="55.304" y1="6.1058" y2="13.476" stroke="#fff" stroke-linecap="round" stroke-width=".432"/>
    <line x1="55.304" x2="52.186" y1="13.476" y2="13.476" stroke="#fff" stroke-linecap="round" stroke-width=".432"/>
    <line x1="41.414" x2="38.013" y1="13.476" y2="13.476" stroke="#fff" stroke-linecap="round" stroke-width=".432"/>
    <line x1="38.013" x2="38.013" y1="13.476" y2="6.1058" stroke="#fff" stroke-linecap="round" stroke-width=".432"/>
    <line x1="52.753" x2="40.847" y1="1.2869" y2="1.2869" stroke="#fff" stroke-linecap="round" stroke-width=".432"/>
   </g>
  </g>
  <g>
   <title>element:CONN10</title>
   <g>
    <title>package:JST_SH4</title>
    <line x1="33.704" x2="33.704" y1="6.1058" y2="13.476" stroke="#fff" stroke-linecap="round" stroke-width=".432"/>
    <line x1="33.704" x2="30.586" y1="13.476" y2="13.476" stroke="#fff" stroke-linecap="round" stroke-width=".432"/>
    <line x1="19.814" x2="16.413" y1="13.476" y2="13.476" stroke="#fff" stroke-linecap="round" stroke-width=".432"/>
    <line x1="16.413" x2="16.413" y1="13.476" y2="6.1058" stroke="#fff" stroke-linecap="round" stroke-width=".432"/>
    <line x1="31.153" x2="19.247" y1="1.2869" y2="1.2869" stroke="#fff" stroke-linecap="round" stroke-width=".432"/>
   </g>
  </g>
  <g>
   <title>element:PLABEL14</title>
   <g>
    <title>package:PLABEL14</title>
   </g>
  </g>
  <g>
   <title>element:U$31</title>
   <g>
    <title>package:STEMMAQT</title>
   </g>
  </g>
  <g>
   <title>element:U3</title>
   <g>
    <title>package:TSSOP16</title>
    <line x1="59.328" x2="59.328" y1="22.689" y2="34.911" stroke="#fff" stroke-linecap="round" stroke-width=".576"/>
    <line x1="45.072" x2="45.072" y1="34.551" y2="22.689" stroke="#fff" stroke-linecap="round" stroke-width=".576"/>
    <circle cx="47.592" cy="32.256" r="1.296" fill="none" stroke="#fff" stroke-width=".576"/>
   </g>
  </g>
 </g>
 <g id="copper1">
  <g id="copper0">
   <g transform="matrix(0 -1 1 0 -22.326 64.222)">
    <rect id="connector13pad" x="18.751" y="42.423" width="4.3937" height="1.7008" fill="#F7BD13" stroke-width="0"/>
   </g>
   <g transform="matrix(0 -1 1 0 -19.491 67.056)">
    <rect id="connector14pad" x="21.586" y="42.423" width="4.3937" height="1.7008" fill="#F7BD13" stroke-width="0"/>
   </g>
   <g transform="matrix(0 -1 1 0 -16.656 69.891)">
    <rect id="connector15pad" x="24.42" y="42.423" width="4.3937" height="1.7008" fill="#F7BD13" stroke-width="0"/>
   </g>
   <g transform="matrix(0 -1 1 0 -13.822 72.726)">
    <rect id="connector16pad" x="27.255" y="42.423" width="4.3937" height="1.7008" fill="#F7BD13" stroke-width="0"/>
   </g>
   <g transform="matrix(0 -1 1 0 -.72567 85.822)">
    <rect id="connector19pad" x="40.351" y="42.423" width="4.3937" height="1.7008" fill="#F7BD13" stroke-width="0"/>
   </g>
   <g transform="matrix(0 -1 1 0 2.109 88.656)">
    <rect id="connector20pad" x="43.186" y="42.423" width="4.3937" height="1.7008" fill="#F7BD13" stroke-width="0"/>
   </g>
   <g transform="matrix(0 -1 1 0 4.9436 91.491)">
    <rect id="connector21pad" x="46.02" y="42.423" width="4.3937" height="1.7008" fill="#F7BD13" stroke-width="0"/>
   </g>
   <g transform="matrix(0 -1 1 0 7.7782 94.326)">
    <rect id="connector22pad" x="48.855" y="42.423" width="4.3937" height="1.7008" fill="#F7BD13" stroke-width="0"/>
   </g>
   <circle id="connector76pad" cx="7.2" cy="6.84" r="4.0748" fill="none" stroke="#F7BD13" stroke-width="1.063" connectorname="P$1"/>
   <rect id="connector25pad" x="12.49" y="23.698" width="4.3937" height="1.7008" fill="#F7BD13" stroke-width="0"/>
   <rect id="connector26pad" x="12.49" y="26.532" width="4.3937" height="1.7008" fill="#F7BD13" stroke-width="0"/>
   <rect id="connector27pad" x="12.49" y="29.367" width="4.3937" height="1.7008" fill="#F7BD13" stroke-width="0"/>
   <rect id="connector28pad" x="12.49" y="32.202" width="4.3937" height="1.7008" fill="#F7BD13" stroke-width="0"/>
   <g transform="matrix(0 1 -1 0 65.378 -36.726)">
    <rect id="connector31pad" x="48.855" y="13.476" width="4.3937" height="1.7008" fill="#F7BD13" stroke-width="0"/>
   </g>
   <g transform="matrix(0 1 -1 0 62.544 -33.891)">
    <rect id="connector32pad" x="46.02" y="13.476" width="4.3937" height="1.7008" fill="#F7BD13" stroke-width="0"/>
   </g>
   <g transform="matrix(0 1 -1 0 59.709 -31.056)">
    <rect id="connector33pad" x="43.186" y="13.476" width="4.3937" height="1.7008" fill="#F7BD13" stroke-width="0"/>
   </g>
   <g transform="matrix(0 1 -1 0 56.874 -28.222)">
    <rect id="connector34pad" x="40.351" y="13.476" width="4.3937" height="1.7008" fill="#F7BD13" stroke-width="0"/>
   </g>
   <g transform="matrix(0 1 -1 0 43.778 -15.126)">
    <rect id="connector37pad" x="27.255" y="13.476" width="4.3937" height="1.7008" fill="#F7BD13" stroke-width="0"/>
   </g>
   <g transform="matrix(0 1 -1 0 40.944 -12.291)">
    <rect id="connector38pad" x="24.42" y="13.476" width="4.3937" height="1.7008" fill="#F7BD13" stroke-width="0"/>
   </g>
   <g transform="matrix(0 1 -1 0 38.109 -9.4564)">
    <rect id="connector39pad" x="21.586" y="13.476" width="4.3937" height="1.7008" fill="#F7BD13" stroke-width="0"/>
   </g>
   <g transform="matrix(0 1 -1 0 35.274 -6.6217)">
    <rect id="connector40pad" x="18.751" y="13.476" width="4.3937" height="1.7008" fill="#F7BD13" stroke-width="0"/>
   </g>
   <circle id="connector77pad" cx="7.2" cy="50.4" r="4.0748" fill="none" stroke="#F7BD13" stroke-width="1.063" connectorname="P$1"/>
   <circle id="connector47pad" cx="64.8" cy="43.2" r="1.9687" fill="none" stroke="#F7BD13" stroke-width="1.1027" connectorname="VCC"/>
   <circle id="connector48pad" cx="64.8" cy="36" r="1.9687" fill="none" stroke="#F7BD13" stroke-width="1.1027" connectorname="GND"/>
   <circle id="connector49pad" cx="64.8" cy="28.8" r="1.9687" fill="none" stroke="#F7BD13" stroke-width="1.1027" connectorname="SCL"/>
   <circle id="connector50pad" cx="64.8" cy="21.6" r="1.9687" fill="none" stroke="#F7BD13" stroke-width="1.1027" connectorname="SDA"/>
   <circle id="connector51pad" cx="64.8" cy="14.4" r="1.9687" fill="none" stroke="#F7BD13" stroke-width="1.1027" connectorname="RESET"/>
  </g>
 </g>
</svg>
