<?xml version="1.0" encoding="UTF-8"?>
<!-- Created with Fritzing (http://www.fritzing.org/) -->
<svg width="1in" height=".7in" baseProfile="tiny" version="1.2" viewBox="0 0 72 50.4" xmlns="http://www.w3.org/2000/svg">
 <desc>
  <referenceFile>Adafruit SEN6x Breakout_pcb.svg</referenceFile>
 </desc>
 <desc>Fritzing footprint generated by brd2svg</desc>
 <g id="silkscreen">
  <path d="m0.288 7.4057a6.912 6.912 0 0 1 7.1424-7.1177h57.139a6.912 6.912 0 0 1 7.1424 7.1177v35.589a6.912 6.912 0 0 1-7.1424 7.1177h-57.139a6.912 6.912 0 0 1-7.1424-7.1177v-35.589" fill="none" stroke="#fff" stroke-width=".576"/>
  <g>
   <title>element:CONN1</title>
   <g>
    <title>package:JST_SH4</title>
    <line x1="65.534" x2="58.164" y1="33.704" y2="33.704" stroke="#fff" stroke-linecap="round" stroke-width=".432"/>
    <line x1="58.164" x2="58.164" y1="33.704" y2="30.586" stroke="#fff" stroke-linecap="round" stroke-width=".432"/>
    <line x1="58.164" x2="58.164" y1="19.814" y2="16.413" stroke="#fff" stroke-linecap="round" stroke-width=".432"/>
    <line x1="58.164" x2="65.534" y1="16.413" y2="16.413" stroke="#fff" stroke-linecap="round" stroke-width=".432"/>
    <line x1="70.353" x2="70.353" y1="31.153" y2="19.247" stroke="#fff" stroke-linecap="round" stroke-width=".432"/>
   </g>
  </g>
  <g>
   <title>element:CONN2</title>
   <g>
    <title>package:JST_SH4</title>
    <line x1="6.4658" x2="13.836" y1="16.696" y2="16.696" stroke="#fff" stroke-linecap="round" stroke-width=".432"/>
    <line x1="13.836" x2="13.836" y1="16.696" y2="19.814" stroke="#fff" stroke-linecap="round" stroke-width=".432"/>
    <line x1="13.836" x2="13.836" y1="30.586" y2="33.987" stroke="#fff" stroke-linecap="round" stroke-width=".432"/>
    <line x1="13.836" x2="6.4658" y1="33.987" y2="33.987" stroke="#fff" stroke-linecap="round" stroke-width=".432"/>
    <line x1="1.6469" x2="1.6469" y1="19.247" y2="31.153" stroke="#fff" stroke-linecap="round" stroke-width=".432"/>
   </g>
  </g>
  <g>
   <title>element:PLABEL24</title>
   <g>
    <title>package:PLABEL24</title>
   </g>
  </g>
  <g>
   <title>element:U$2</title>
   <g>
    <title>package:ADAFRUIT_5MM</title>
   </g>
  </g>
  <g>
   <title>element:U$43</title>
   <g>
    <title>package:STEMMAQT</title>
   </g>
  </g>
  <g>
   <title>element:U$44</title>
   <g>
    <title>package:STEMMAQT</title>
   </g>
  </g>
  <g>
   <title>element:X1</title>
   <g>
    <title>package:CONN_SM06B-GHS-TB_JST</title>
    <line x1="47.736" x2="24.264" y1="1.728" y2="1.728" stroke="#fff" stroke-linecap="round" stroke-width=".432"/>
    <line x1="20.448" x2="20.448" y1="10.224" y2="16.2" stroke="#fff" stroke-linecap="round" stroke-width=".432"/>
    <line x1="20.448" x2="25.344" y1="16.2" y2="16.2" stroke="#fff" stroke-linecap="round" stroke-width=".432"/>
    <line x1="51.552" x2="51.552" y1="16.2" y2="10.224" stroke="#fff" stroke-linecap="round" stroke-width=".432"/>
    <line x1="46.656" x2="51.552" y1="16.2" y2="16.2" stroke="#fff" stroke-linecap="round" stroke-width=".432"/>
    <path d="m50.544 14.328a1.08 1.08 0 1 0-2.16 0" fill="none" stroke="#fff" stroke-width="1.44"/>
    <path d="m48.384 14.328a1.08 1.08 0 1 0 2.16 0" fill="none" stroke="#fff" stroke-width="1.44"/>
   </g>
  </g>
 </g>
 <g id="copper1">
  <g id="copper0">
   <g transform="matrix(-1 0 0 -1 54.284 28.634)">
    <rect id="connector62pad" x="26.278" y="11.905" width="1.728" height="4.824" fill="#F7BD13" stroke-width="0"/>
   </g>
   <circle id="connector50pad" cx="7.2" cy="43.2" r="4.2633" fill="none" stroke="#F7BD13" stroke-width="1.44" connectorname="P$1"/>
   <g transform="matrix(-1 0 0 -1 114.63 58.904)">
    <rect id="connector11pad" x="55.117" y="28.602" width="4.3937" height="1.7008" fill="#F7BD13" stroke-width="0"/>
   </g>
   <g transform="matrix(-1 0 0 -1 82.63 28.634)">
    <rect id="connector58pad" x="40.451" y="11.905" width="1.728" height="4.824" fill="#F7BD13" stroke-width="0"/>
   </g>
   <g transform="matrix(-1 0 0 -1 114.63 53.235)">
    <rect id="connector12pad" x="55.117" y="25.767" width="4.3937" height="1.7008" fill="#F7BD13" stroke-width="0"/>
   </g>
   <g transform="matrix(-1 0 0 -1 114.63 47.565)">
    <rect id="connector13pad" x="55.117" y="22.932" width="4.3937" height="1.7008" fill="#F7BD13" stroke-width="0"/>
   </g>
   <g transform="matrix(-1 0 0 -1 114.63 41.896)">
    <rect id="connector14pad" x="55.117" y="20.098" width="4.3937" height="1.7008" fill="#F7BD13" stroke-width="0"/>
   </g>
   <circle id="connector48pad" cx="7.2" cy="7.2" r="4.2633" fill="none" stroke="#F7BD13" stroke-width="1.44" connectorname="P$1"/>
   <rect id="connector17pad" x="12.49" y="20.098" width="4.3937" height="1.7008" fill="#F7BD13" stroke-width="0"/>
   <rect id="connector18pad" x="12.49" y="22.932" width="4.3937" height="1.7008" fill="#F7BD13" stroke-width="0"/>
   <g transform="matrix(-1 0 0 -1 68.457 28.634)">
    <rect id="connector60pad" x="33.364" y="11.905" width="1.728" height="4.824" fill="#F7BD13" stroke-width="0"/>
   </g>
   <rect id="connector19pad" x="12.49" y="25.767" width="4.3937" height="1.7008" fill="#F7BD13" stroke-width="0"/>
   <rect id="connector20pad" x="12.49" y="28.602" width="4.3937" height="1.7008" fill="#F7BD13" stroke-width="0"/>
   <circle id="connector49pad" cx="64.8" cy="7.2" r="4.2633" fill="none" stroke="#F7BD13" stroke-width="1.44" connectorname="P$1"/>
   <circle id="connector27pad" cx="21.6" cy="43.2" r="1.9687" fill="none" stroke="#F7BD13" stroke-width="1.1027" connectorname="VCC"/>
   <circle id="connector51pad" cx="64.8" cy="43.2" r="4.2633" fill="none" stroke="#F7BD13" stroke-width="1.44" connectorname="P$1"/>
   <circle id="connector28pad" cx="28.8" cy="43.2" r="1.9687" fill="none" stroke="#F7BD13" stroke-width="1.1027" connectorname="3.3V"/>
   <circle id="connector29pad" cx="36" cy="43.2" r="1.9687" fill="none" stroke="#F7BD13" stroke-width="1.1027" connectorname="GND"/>
   <circle id="connector30pad" cx="43.2" cy="43.2" r="1.9687" fill="none" stroke="#F7BD13" stroke-width="1.1027" connectorname="SCL"/>
   <g transform="matrix(-1 0 0 -1 89.716 28.634)">
    <rect id="connector57pad" x="43.994" y="11.905" width="1.728" height="4.824" fill="#F7BD13" stroke-width="0"/>
   </g>
   <circle id="connector31pad" cx="50.4" cy="43.2" r="1.9687" fill="none" stroke="#F7BD13" stroke-width="1.1027" connectorname="SDA"/>
   <g transform="matrix(-1 0 0 -1 75.543 28.634)">
    <rect id="connector59pad" x="36.908" y="11.905" width="1.728" height="4.824" fill="#F7BD13" stroke-width="0"/>
   </g>
   <g transform="matrix(-1 0 0 -1 61.37 28.634)">
    <rect id="connector61pad" x="29.821" y="11.905" width="1.728" height="4.824" fill="#F7BD13" stroke-width="0"/>
   </g>
  </g>
 </g>
</svg>
