<?xml version="1.0" encoding="UTF-8"?>
<!-- Created with Fritzing (http://www.fritzing.org/) -->
<svg width="1in" height=".6in" baseProfile="tiny" version="1.2" viewBox="0 0 72 43.2" xmlns="http://www.w3.org/2000/svg">
 <desc>
  <referenceFile>Adafruit Pixel Shifter_pcb.svg</referenceFile>
 </desc>
 <desc>Fritzing footprint generated by brd2svg</desc>
 <g id="silkscreen">
  <path d="m7.4304 0.288h57.139a6.912 6.912 0 0 1 7.1424 7.104v28.416a6.912 6.912 0 0 1-7.1424 7.104h-57.139a6.912 6.912 0 0 1-7.1424-7.104v-28.416a6.912 6.912 0 0 1 7.1424-7.104" fill="none" stroke="#fff" stroke-width=".576"/>
  <g>
   <title>element:JP1</title>
   <g>
    <title>package:1X04_2.54MMTERMINAL</title>
    <line x1="48.813" x2="48.813" y1="36.907" y2="6.2929" stroke="#fff" stroke-linecap="round" stroke-width=".432"/>
    <line x1="48.813" x2="66.671" y1="6.2929" y2="6.2929" stroke="#fff" stroke-linecap="round" stroke-width=".432"/>
    <line x1="66.671" x2="66.671" y1="6.2929" y2="23.301" stroke="#fff" stroke-linecap="round" stroke-width=".432"/>
    <line x1="66.671" x2="66.671" y1="23.301" y2="26.986" stroke="#fff" stroke-linecap="round" stroke-width=".432"/>
    <line x1="66.671" x2="66.671" y1="30.671" y2="34.072" stroke="#fff" stroke-linecap="round" stroke-width=".432"/>
    <line x1="66.671" x2="66.671" y1="34.072" y2="36.907" stroke="#fff" stroke-linecap="round" stroke-width=".432"/>
    <line x1="66.671" x2="48.813" y1="36.907" y2="36.907" stroke="#fff" stroke-linecap="round" stroke-width=".432"/>
    <line x1="66.671" x2="63.269" y1="34.072" y2="34.072" stroke="#fff" stroke-linecap="round" stroke-width=".432"/>
    <line x1="63.269" x2="63.269" y1="34.072" y2="30.671" stroke="#fff" stroke-linecap="round" stroke-width=".432"/>
    <line x1="63.269" x2="66.671" y1="30.671" y2="30.671" stroke="#fff" stroke-linecap="round" stroke-width=".432"/>
    <line x1="66.671" x2="66.671" y1="30.671" y2="26.986" stroke="#fff" stroke-linecap="round" stroke-width=".432"/>
    <line x1="66.671" x2="63.269" y1="26.986" y2="26.986" stroke="#fff" stroke-linecap="round" stroke-width=".432"/>
    <line x1="63.269" x2="63.269" y1="26.986" y2="23.301" stroke="#fff" stroke-linecap="round" stroke-width=".432"/>
    <line x1="63.269" x2="66.671" y1="23.301" y2="23.301" stroke="#fff" stroke-linecap="round" stroke-width=".432"/>
    <line x1="66.671" x2="63.269" y1="19.672" y2="19.672" stroke="#fff" stroke-linecap="round" stroke-width=".432"/>
    <line x1="63.269" x2="63.269" y1="19.672" y2="16.271" stroke="#fff" stroke-linecap="round" stroke-width=".432"/>
    <line x1="63.269" x2="66.671" y1="16.271" y2="16.271" stroke="#fff" stroke-linecap="round" stroke-width=".432"/>
    <line x1="66.671" x2="63.269" y1="12.472" y2="12.472" stroke="#fff" stroke-linecap="round" stroke-width=".432"/>
    <line x1="63.269" x2="63.269" y1="12.472" y2="9.0708" stroke="#fff" stroke-linecap="round" stroke-width=".432"/>
    <line x1="63.269" x2="66.671" y1="9.0708" y2="9.0708" stroke="#fff" stroke-linecap="round" stroke-width=".432"/>
    <line x1="64.12" x2="65.82" y1="32.372" y2="32.372" stroke="#fff" stroke-linecap="round" stroke-width=".432"/>
    <line x1="65.82" x2="64.97" y1="32.372" y2="33.222" stroke="#fff" stroke-linecap="round" stroke-width=".432"/>
    <line x1="64.97" x2="64.97" y1="33.222" y2="31.521" stroke="#fff" stroke-linecap="round" stroke-width=".432"/>
    <line x1="64.97" x2="65.82" y1="31.521" y2="32.372" stroke="#fff" stroke-linecap="round" stroke-width=".432"/>
    <line x1="64.12" x2="65.82" y1="25.172" y2="25.172" stroke="#fff" stroke-linecap="round" stroke-width=".432"/>
    <line x1="65.82" x2="64.97" y1="25.172" y2="26.022" stroke="#fff" stroke-linecap="round" stroke-width=".432"/>
    <line x1="64.97" x2="64.97" y1="26.022" y2="24.321" stroke="#fff" stroke-linecap="round" stroke-width=".432"/>
    <line x1="64.97" x2="65.82" y1="24.321" y2="25.172" stroke="#fff" stroke-linecap="round" stroke-width=".432"/>
    <line x1="64.12" x2="65.82" y1="17.972" y2="17.972" stroke="#fff" stroke-linecap="round" stroke-width=".432"/>
    <line x1="65.82" x2="64.97" y1="17.972" y2="18.822" stroke="#fff" stroke-linecap="round" stroke-width=".432"/>
    <line x1="64.97" x2="64.97" y1="18.822" y2="17.121" stroke="#fff" stroke-linecap="round" stroke-width=".432"/>
    <line x1="64.97" x2="65.82" y1="17.121" y2="17.972" stroke="#fff" stroke-linecap="round" stroke-width=".432"/>
    <line x1="64.12" x2="65.82" y1="10.772" y2="10.772" stroke="#fff" stroke-linecap="round" stroke-width=".432"/>
    <line x1="65.82" x2="64.97" y1="10.772" y2="11.622" stroke="#fff" stroke-linecap="round" stroke-width=".432"/>
    <line x1="64.97" x2="64.97" y1="11.622" y2="9.9212" stroke="#fff" stroke-linecap="round" stroke-width=".432"/>
    <line x1="64.97" x2="65.82" y1="9.9212" y2="10.772" stroke="#fff" stroke-linecap="round" stroke-width=".432"/>
   </g>
  </g>
  <g>
   <title>element:JP4</title>
   <g>
    <title>package:1X04_2.54MMTERMINAL</title>
    <line x1="23.187" x2="23.187" y1="6.2929" y2="36.907" stroke="#fff" stroke-linecap="round" stroke-width=".432"/>
    <line x1="23.187" x2="5.3291" y1="36.907" y2="36.907" stroke="#fff" stroke-linecap="round" stroke-width=".432"/>
    <line x1="5.3291" x2="5.3291" y1="36.907" y2="19.899" stroke="#fff" stroke-linecap="round" stroke-width=".432"/>
    <line x1="5.3291" x2="5.3291" y1="19.899" y2="16.214" stroke="#fff" stroke-linecap="round" stroke-width=".432"/>
    <line x1="5.3291" x2="5.3291" y1="12.529" y2="9.1276" stroke="#fff" stroke-linecap="round" stroke-width=".432"/>
    <line x1="5.3291" x2="5.3291" y1="9.1276" y2="6.2929" stroke="#fff" stroke-linecap="round" stroke-width=".432"/>
    <line x1="5.3291" x2="23.187" y1="6.2929" y2="6.2929" stroke="#fff" stroke-linecap="round" stroke-width=".432"/>
    <line x1="5.3291" x2="8.7307" y1="9.1276" y2="9.1276" stroke="#fff" stroke-linecap="round" stroke-width=".432"/>
    <line x1="8.7307" x2="8.7307" y1="9.1276" y2="12.529" stroke="#fff" stroke-linecap="round" stroke-width=".432"/>
    <line x1="8.7307" x2="5.3291" y1="12.529" y2="12.529" stroke="#fff" stroke-linecap="round" stroke-width=".432"/>
    <line x1="5.3291" x2="5.3291" y1="12.529" y2="16.214" stroke="#fff" stroke-linecap="round" stroke-width=".432"/>
    <line x1="5.3291" x2="8.7307" y1="16.214" y2="16.214" stroke="#fff" stroke-linecap="round" stroke-width=".432"/>
    <line x1="8.7307" x2="8.7307" y1="16.214" y2="19.899" stroke="#fff" stroke-linecap="round" stroke-width=".432"/>
    <line x1="8.7307" x2="5.3291" y1="19.899" y2="19.899" stroke="#fff" stroke-linecap="round" stroke-width=".432"/>
    <line x1="5.3291" x2="8.7307" y1="23.528" y2="23.528" stroke="#fff" stroke-linecap="round" stroke-width=".432"/>
    <line x1="8.7307" x2="8.7307" y1="23.528" y2="26.929" stroke="#fff" stroke-linecap="round" stroke-width=".432"/>
    <line x1="8.7307" x2="5.3291" y1="26.929" y2="26.929" stroke="#fff" stroke-linecap="round" stroke-width=".432"/>
    <line x1="5.3291" x2="8.7307" y1="30.728" y2="30.728" stroke="#fff" stroke-linecap="round" stroke-width=".432"/>
    <line x1="8.7307" x2="8.7307" y1="30.728" y2="34.129" stroke="#fff" stroke-linecap="round" stroke-width=".432"/>
    <line x1="8.7307" x2="5.3291" y1="34.129" y2="34.129" stroke="#fff" stroke-linecap="round" stroke-width=".432"/>
    <line x1="7.8803" x2="6.1795" y1="10.828" y2="10.828" stroke="#fff" stroke-linecap="round" stroke-width=".432"/>
    <line x1="6.1795" x2="7.0299" y1="10.828" y2="9.978" stroke="#fff" stroke-linecap="round" stroke-width=".432"/>
    <line x1="7.0299" x2="7.0299" y1="9.978" y2="11.679" stroke="#fff" stroke-linecap="round" stroke-width=".432"/>
    <line x1="7.0299" x2="6.1795" y1="11.679" y2="10.828" stroke="#fff" stroke-linecap="round" stroke-width=".432"/>
    <line x1="7.8803" x2="6.1795" y1="18.028" y2="18.028" stroke="#fff" stroke-linecap="round" stroke-width=".432"/>
    <line x1="6.1795" x2="7.0299" y1="18.028" y2="17.178" stroke="#fff" stroke-linecap="round" stroke-width=".432"/>
    <line x1="7.0299" x2="7.0299" y1="17.178" y2="18.879" stroke="#fff" stroke-linecap="round" stroke-width=".432"/>
    <line x1="7.0299" x2="6.1795" y1="18.879" y2="18.028" stroke="#fff" stroke-linecap="round" stroke-width=".432"/>
    <line x1="7.8803" x2="6.1795" y1="25.228" y2="25.228" stroke="#fff" stroke-linecap="round" stroke-width=".432"/>
    <line x1="6.1795" x2="7.0299" y1="25.228" y2="24.378" stroke="#fff" stroke-linecap="round" stroke-width=".432"/>
    <line x1="7.0299" x2="7.0299" y1="24.378" y2="26.079" stroke="#fff" stroke-linecap="round" stroke-width=".432"/>
    <line x1="7.0299" x2="6.1795" y1="26.079" y2="25.228" stroke="#fff" stroke-linecap="round" stroke-width=".432"/>
    <line x1="7.8803" x2="6.1795" y1="32.428" y2="32.428" stroke="#fff" stroke-linecap="round" stroke-width=".432"/>
    <line x1="6.1795" x2="7.0299" y1="32.428" y2="31.578" stroke="#fff" stroke-linecap="round" stroke-width=".432"/>
    <line x1="7.0299" x2="7.0299" y1="31.578" y2="33.279" stroke="#fff" stroke-linecap="round" stroke-width=".432"/>
    <line x1="7.0299" x2="6.1795" y1="33.279" y2="32.428" stroke="#fff" stroke-linecap="round" stroke-width=".432"/>
   </g>
  </g>
 </g>
 <g id="copper1">
  <g id="copper0">
   <circle id="connector30pad" cx="14.4" cy="18" r="1.7773" fill="none" stroke="#F7BD13" stroke-width=".72" connectorname="VIN"/>
   <path d="m10.312 16.223h8.1757v3.5546h-8.1757v-3.5546m2.3106 1.7773a1.7773 1.7773 0 1 0 3.5546 0 1.7773 1.7773 0 1 0-3.5546 0z" fill="#F7BD13" stroke-width="0"/>
   <circle id="connector28pad" cx="57.6" cy="10.8" r="1.7773" fill="none" stroke="#F7BD13" stroke-width=".72" connectorname="GND"/>
   <path d="m53.512 9.0227h8.1757v3.5546h-8.1757v-3.5546m2.3106 1.7773a1.7773 1.7773 0 1 0 3.5546 0 1.7773 1.7773 0 1 0-3.5546 0z" fill="#F7BD13" stroke-width="0"/>
   <circle id="connector32pad" cx="14.4" cy="32.4" r="1.7773" fill="none" stroke="#F7BD13" stroke-width=".72" connectorname="CLK_3V"/>
   <path d="m10.312 30.623h8.1757v3.5546h-8.1757v-3.5546m2.3106 1.7773a1.7773 1.7773 0 1 0 3.5546 0 1.7773 1.7773 0 1 0-3.5546 0z" fill="#F7BD13" stroke-width="0"/>
   <circle id="connector44pad" cx="36" cy="7.2" r="4.2633" fill="none" stroke="#F7BD13" stroke-width="1.44" connectorname="P$1"/>
   <circle id="connector29pad" cx="14.4" cy="10.8" r="1.7773" fill="none" stroke="#F7BD13" stroke-width=".72" connectorname="GND"/>
   <path d="m10.312 9.0227h8.1757v3.5546h-8.1757v-3.5546m2.3106 1.7773a1.7773 1.7773 0 1 0 3.5546 0 1.7773 1.7773 0 1 0-3.5546 0z" fill="#F7BD13" stroke-width="0"/>
   <circle id="connector31pad" cx="14.4" cy="25.2" r="1.7773" fill="none" stroke="#F7BD13" stroke-width=".72" connectorname="DAT_3V"/>
   <path d="m10.312 23.423h8.1757v3.5546h-8.1757v-3.5546m2.3106 1.7773a1.7773 1.7773 0 1 0 3.5546 0 1.7773 1.7773 0 1 0-3.5546 0z" fill="#F7BD13" stroke-width="0"/>
   <circle id="connector43pad" cx="36" cy="36" r="4.2633" fill="none" stroke="#F7BD13" stroke-width="1.44" connectorname="P$1"/>
   <circle id="connector25pad" cx="57.6" cy="32.4" r="1.7773" fill="none" stroke="#F7BD13" stroke-width=".72" connectorname="CLK_5V"/>
   <path d="m53.512 30.623h8.1757v3.5546h-8.1757v-3.5546m2.3106 1.7773a1.7773 1.7773 0 1 0 3.5546 0 1.7773 1.7773 0 1 0-3.5546 0z" fill="#F7BD13" stroke-width="0"/>
   <circle id="connector26pad" cx="57.6" cy="25.2" r="1.7773" fill="none" stroke="#F7BD13" stroke-width=".72" connectorname="!DAT_5V"/>
   <path d="m53.512 23.423h8.1757v3.5546h-8.1757v-3.5546m2.3106 1.7773a1.7773 1.7773 0 1 0 3.5546 0 1.7773 1.7773 0 1 0-3.5546 0z" fill="#F7BD13" stroke-width="0"/>
   <circle id="connector27pad" cx="57.6" cy="18" r="1.7773" fill="none" stroke="#F7BD13" stroke-width=".72" connectorname="DAT_5V"/>
   <path d="m53.512 16.223h8.1757v3.5546h-8.1757v-3.5546m2.3106 1.7773a1.7773 1.7773 0 1 0 3.5546 0 1.7773 1.7773 0 1 0-3.5546 0z" fill="#F7BD13" stroke-width="0"/>
  </g>
 </g>
</svg>
