<?xml version="1.0" encoding="UTF-8"?>
<!-- Created with Fritzing (http://www.fritzing.org/) -->
<svg width=".8in" height="1.045in" baseProfile="tiny" version="1.2" viewBox="0 0 57.6 75.24" xmlns="http://www.w3.org/2000/svg">
 <desc>
  <referenceFile>Adafruit CH9328 UART to HID Keyboard Breakout_pcb.svg</referenceFile>
 </desc>
 <desc>Fritzing footprint generated by brd2svg</desc>
 <g id="silkscreen">
  <path d="m50.184 3.5032a6.912 6.912 0 0 1 7.128 7.1449v57.159a6.912 6.912 0 0 1-7.128 7.1448h-42.768a6.912 6.912 0 0 1-7.128-7.1448v-57.159a6.912 6.912 0 0 1 7.128-7.1449h42.768m-30.209 14.298a0.63326 0.63326 0 1 0 1.2665 0 0.63326 0.63326 0 1 0-1.2665 0zm16.384 0a0.63326 0.63326 0 1 0 1.2665 0 0.63326 0.63326 0 1 0-1.2665 0z" fill="none" stroke="#fff" stroke-width=".576"/>
  <g>
   <title>element:IC2</title>
   <g>
    <title>package:SO16_SKINNY</title>
    <path d="m35.424 24.48a1.08 1.08 0 0 0-1.08-1.08" fill="none" stroke="#fff" stroke-width=".432"/>
    <path d="m24.336 51.12a1.08 1.08 0 0 0 1.08 1.08" fill="none" stroke="#fff" stroke-width=".432"/>
    <path d="m25.416 23.4a1.08 1.08 0 0 0-1.08 1.08" fill="none" stroke="#fff" stroke-width=".432"/>
    <path d="m34.344 52.2a1.08 1.08 0 0 0 1.08-1.08" fill="none" stroke="#fff" stroke-width=".432"/>
    <line x1="34.344" x2="25.416" y1="23.4" y2="23.4" stroke="#fff" stroke-linecap="round" stroke-width=".432"/>
    <line x1="25.416" x2="28.44" y1="52.2" y2="52.2" stroke="#fff" stroke-linecap="round" stroke-width=".432"/>
    <line x1="28.44" x2="31.32" y1="52.2" y2="52.2" stroke="#fff" stroke-linecap="round" stroke-width=".432"/>
    <line x1="31.32" x2="34.344" y1="52.2" y2="52.2" stroke="#fff" stroke-linecap="round" stroke-width=".432"/>
    <path d="m31.32 52.2a1.44 1.44 0 1 0-2.88 0" fill="none" stroke="#fff" stroke-width=".432"/>
    <line x1="34.416" x2="34.416" y1="52.2" y2="23.4" stroke="#fff" stroke-linecap="round" stroke-width=".144"/>
   </g>
  </g>
  <g>
   <title>element:PLABEL18</title>
   <g>
    <title>package:PLABEL18</title>
   </g>
  </g>
  <g>
   <title>element:PLABEL19</title>
   <g>
    <title>package:PLABEL19</title>
   </g>
  </g>
  <g>
   <title>element:SW2</title>
   <g>
    <title>package:DIPSWITCH_4PIN_1.27</title>
    <line x1="2.0665" x2="2.0665" y1="35.906" y2="51.214" stroke="#fff" stroke-linecap="round" stroke-width=".576"/>
    <line x1="2.0665" x2="17.374" y1="35.906" y2="35.906" stroke="#fff" stroke-linecap="round" stroke-width=".576"/>
    <line x1="2.0665" x2="17.374" y1="51.214" y2="51.214" stroke="#fff" stroke-linecap="round" stroke-width=".576"/>
    <line x1="17.374" x2="17.374" y1="35.906" y2="51.214" stroke="#fff" stroke-linecap="round" stroke-width=".576"/>
   </g>
  </g>
  <g>
   <title>element:X6</title>
   <g>
    <title>package:USB_C_CUSB31-CFM2AX-01-X</title>
    <line x1="41.471" x2="41.471" y1="11.339" y2="15.165" stroke="#fff" stroke-linecap="round" stroke-width=".288"/>
    <line x1="16.129" x2="16.129" y1="15.165" y2="11.339" stroke="#fff" stroke-linecap="round" stroke-width=".288"/>
    <line x1="16.129" x2="41.471" stroke="#fff" stroke-linecap="round" stroke-width=".288"/>
    <line x1="41.471" x2="41.471" y2="3.8268" stroke="#fff" stroke-linecap="round" stroke-width=".288"/>
    <line x1="16.129" x2="16.129" y1="3.8268" stroke="#fff" stroke-linecap="round" stroke-width=".288"/>
   </g>
  </g>
  <line x1="15.156" x2="42.48" y1=".288" y2=".288" fill="none" stroke="#fff" stroke-width=".576"/>
  <line x1="15.156" x2="15.156" y1="3.24" y2=".288" fill="none" stroke="#fff" stroke-width=".576"/>
  <line x1="42.48" x2="42.48" y1="3.24" y2=".288" fill="none" stroke="#fff" stroke-width=".576"/>
 </g>
 <g id="copper1">
  <g id="copper0">
   <g transform="matrix(-1 0 0 -1 86.548 105.12)">
    <rect id="connector70pad" x="41.077" y="51.71" width="4.3937" height="1.7008" fill="#F7BD13" stroke-width="0"/>
   </g>
   <circle id="connector86pad" cx="41.046" cy="19.219" r="1.2104" fill="none" stroke="#F7BD13" stroke-width=".72" connectorname="M1"/>
   <path d="m39.835 16.435h2.4208v5.5678h-2.4208v-5.5678m0 2.7839a1.2104 1.2104 0 1 0 2.4208 0 1.2104 1.2104 0 1 0-2.4208 0z" fill="#F7BD13" stroke-width="0"/>
   <circle id="connector66pad" cx="7.2" cy="10.44" r="4.2633" fill="none" stroke="#F7BD13" stroke-width="1.44" connectorname="P$1"/>
   <circle id="connector68pad" cx="7.2" cy="68.04" r="4.2633" fill="none" stroke="#F7BD13" stroke-width="1.44" connectorname="P$1"/>
   <circle id="connector88pad" cx="41.046" cy="7.3701" r="1.2104" fill="none" stroke="#F7BD13" stroke-width=".72" connectorname="M3"/>
   <path d="m39.835 4.5862h2.4208v5.5678h-2.4208v-5.5678m0 2.7839a1.2104 1.2104 0 1 0 2.4208 0 1.2104 1.2104 0 1 0-2.4208 0z" fill="#F7BD13" stroke-width="0"/>
   <circle id="connector33pad" cx="18" cy="68.04" r="1.9687" fill="none" stroke="#F7BD13" stroke-width="1.1027" connectorname="VCC"/>
   <circle id="connector34pad" cx="25.2" cy="68.04" r="1.9687" fill="none" stroke="#F7BD13" stroke-width="1.1027" connectorname="GND"/>
   <circle id="connector65pad" cx="50.4" cy="10.44" r="4.2633" fill="none" stroke="#F7BD13" stroke-width="1.44" connectorname="P$1"/>
   <circle id="connector35pad" cx="32.4" cy="68.04" r="1.9687" fill="none" stroke="#F7BD13" stroke-width="1.1027" connectorname="RX"/>
   <circle id="connector67pad" cx="50.4" cy="68.04" r="4.2633" fill="none" stroke="#F7BD13" stroke-width="1.44" connectorname="P$1"/>
   <circle id="connector36pad" cx="39.6" cy="68.04" r="1.9687" fill="none" stroke="#F7BD13" stroke-width="1.1027" connectorname="!RST"/>
   <g transform="matrix(-1 0 0 -1 86.548 110.79)">
    <rect id="connector69pad" x="41.077" y="54.544" width="4.3937" height="1.7008" fill="#F7BD13" stroke-width="0"/>
   </g>
   <g transform="matrix(-1 0 0 -1 86.548 99.451)">
    <rect id="connector71pad" x="41.077" y="48.875" width="4.3937" height="1.7008" fill="#F7BD13" stroke-width="0"/>
   </g>
   <circle id="connector87pad" cx="16.554" cy="19.219" r="1.2104" fill="none" stroke="#F7BD13" stroke-width=".72" connectorname="M2"/>
   <path d="m15.344 16.435h2.4208v5.5678h-2.4208v-5.5678m0 2.7839a1.2104 1.2104 0 1 0 2.4208 0 1.2104 1.2104 0 1 0-2.4208 0z" fill="#F7BD13" stroke-width="0"/>
   <circle id="connector89pad" cx="16.554" cy="7.3701" r="1.2104" fill="none" stroke="#F7BD13" stroke-width=".72" connectorname="M4"/>
   <path d="m15.344 4.5862h2.4208v5.5678h-2.4208v-5.5678m0 2.7839a1.2104 1.2104 0 1 0 2.4208 0 1.2104 1.2104 0 1 0-2.4208 0z" fill="#F7BD13" stroke-width="0"/>
  </g>
 </g>
</svg>
