<?xml version="1.0" encoding="UTF-8"?>
<!-- Created with Fritzing (http://www.fritzing.org/) -->
<svg width=".75in" height=".85653in" baseProfile="tiny" version="1.2" viewBox="0 0 54 61.67" xmlns="http://www.w3.org/2000/svg">
 <desc>
  <referenceFile>QT Py ESP32 Pico rev B_pcb.svg</referenceFile>
 </desc>
 <desc>Fritzing footprint generated by brd2svg</desc>
 <g id="silkscreen">
  <path d="m51.931 10.274v43.866a6.912 6.912 0 0 1-7.1232 7.1327h-35.616a6.912 6.912 0 0 1-7.1232-7.1327v-43.866a6.912 6.912 0 0 1 7.1232-7.1327h35.616a6.912 6.912 0 0 1 7.1232 7.1327m-33.757 7.5278a0.63326 0.63326 0 1 0 1.2665 0 0.63326 0.63326 0 1 0-1.2665 0zm16.384 0a0.63326 0.63326 0 1 0 1.2665 0 0.63326 0.63326 0 1 0-1.2665 0z" fill="none" stroke="#fff" stroke-width=".576"/>
  <g>
   <title>element:CONN1</title>
   <g>
    <title>package:JST_SH4_SKINNY</title>
    <line x1="24.688" x2="24.688" y1="55.346" y2="47.976" stroke="#fff" stroke-linecap="round" stroke-width=".432"/>
    <line x1="24.688" x2="27.806" y1="47.976" y2="47.976" stroke="#fff" stroke-linecap="round" stroke-width=".432"/>
    <line x1="38.578" x2="41.979" y1="47.976" y2="47.976" stroke="#fff" stroke-linecap="round" stroke-width=".432"/>
    <line x1="41.979" x2="41.979" y1="47.976" y2="55.346" stroke="#fff" stroke-linecap="round" stroke-width=".432"/>
    <line x1="27.239" x2="39.145" y1="60.165" y2="60.165" stroke="#fff" stroke-linecap="round" stroke-width=".432"/>
   </g>
  </g>
  <g>
   <title>element:JP1</title>
   <g>
    <title>package:1X07_CASTEL</title>
   </g>
  </g>
  <g>
   <title>element:JP3</title>
   <g>
    <title>package:1X07_CASTEL</title>
   </g>
  </g>
  <g>
   <title>element:U$3</title>
   <g>
    <title>package:QTPY_ESP32_BOT</title>
   </g>
  </g>
  <g>
   <title>element:U$22</title>
   <g>
    <title>package:QTPY_ESP32_TOP</title>
   </g>
  </g>
  <g>
   <title>element:X2</title>
   <g>
    <title>package:QFN48_7X7</title>
   </g>
  </g>
  <g>
   <title>element:X6</title>
   <g>
    <title>package:USB_C_CUSB31-CFM2AX-01-X</title>
    <line x1="39.671" x2="39.671" y1="11.339" y2="15.165" stroke="#fff" stroke-linecap="round" stroke-width=".288"/>
    <line x1="14.329" x2="14.329" y1="15.165" y2="11.339" stroke="#fff" stroke-linecap="round" stroke-width=".288"/>
    <line x1="14.329" x2="39.671" stroke="#fff" stroke-linecap="round" stroke-width=".288"/>
    <line x1="39.671" x2="39.671" y2="3.8268" stroke="#fff" stroke-linecap="round" stroke-width=".288"/>
    <line x1="14.329" x2="14.329" y1="3.8268" stroke="#fff" stroke-linecap="round" stroke-width=".288"/>
   </g>
  </g>
  <line x1=".288" x2="1.8" y1="54.54" y2="54.54" fill="none" stroke="#fff" stroke-width=".576"/>
  <line x1=".288" x2="1.8" y1="7.02" y2="7.02" fill="none" stroke="#fff" stroke-width=".576"/>
  <line x1=".288" x2=".288" y1="54.54" y2="7.02" fill="none" stroke="#fff" stroke-width=".576"/>
  <line x1="52.2" x2="53.712" y1="57.42" y2="57.42" fill="none" stroke="#fff" stroke-width=".576"/>
  <line x1="52.2" x2="53.712" y1="9.9" y2="9.9" fill="none" stroke="#fff" stroke-width=".576"/>
  <line x1="53.712" x2="53.712" y1="57.42" y2="9.9" fill="none" stroke="#fff" stroke-width=".576"/>
  <line x1="28.474" x2="32.726" y1="61.382" y2="61.382" fill="none" stroke="#fff" stroke-width=".576"/>
  <line x1="28.474" x2="28.474" y1="61.382" y2="61.56" fill="none" stroke="#fff" stroke-width=".576"/>
  <line x1="32.726" x2="32.726" y1="61.382" y2="61.56" fill="none" stroke="#fff" stroke-width=".576"/>
  <line x1="13.356" x2="40.68" y1=".288" y2=".288" fill="none" stroke="#fff" stroke-width=".576"/>
  <line x1="13.356" x2="13.356" y1="2.88" y2=".288" fill="none" stroke="#fff" stroke-width=".576"/>
  <line x1="40.68" x2="40.68" y1="2.88" y2=".288" fill="none" stroke="#fff" stroke-width=".576"/>
 </g>
 <g id="copper1">
  <g id="copper0">
   <g transform="matrix(0 -1 1 0 -18.186 76.066)">
    <rect id="connector11pad" x="26.743" y="46.417" width="4.3937" height="1.4173" fill="#F7BD13" stroke-width="0"/>
   </g>
   <g transform="matrix(0 -1 1 0 -15.351 78.9)">
    <rect id="connector12pad" x="29.578" y="46.417" width="4.3937" height="1.4173" fill="#F7BD13" stroke-width="0"/>
   </g>
   <g transform="matrix(0 -1 1 0 -12.516 81.735)">
    <rect id="connector13pad" x="32.412" y="46.417" width="4.3937" height="1.4173" fill="#F7BD13" stroke-width="0"/>
   </g>
   <g transform="matrix(0 -1 1 0 -9.6818 84.57)">
    <rect id="connector14pad" x="35.247" y="46.417" width="4.3937" height="1.4173" fill="#F7BD13" stroke-width="0"/>
   </g>
   <circle id="connector82pad" cx="39.246" cy="19.219" r="1.2104" fill="none" stroke="#F7BD13" stroke-width=".72" connectorname="M1"/>
   <path d="m38.035 16.435h2.4208v5.5678h-2.4208v-5.5678m0 2.7839a1.2104 1.2104 0 1 0 2.4208 0 1.2104 1.2104 0 1 0-2.4208 0z" fill="#F7BD13" stroke-width="0"/>
   <circle id="connector17pad" cx="5.4" cy="10.62" r="1.9687" fill="none" stroke="#F7BD13" stroke-width="1.1027" connectorname="A0"/>
   <circle id="connector19pad" cx="5.4" cy="17.82" r="1.9687" fill="none" stroke="#F7BD13" stroke-width="1.1027" connectorname="A1"/>
   <circle id="connector21pad" cx="5.4" cy="25.02" r="1.9687" fill="none" stroke="#F7BD13" stroke-width="1.1027" connectorname="A2"/>
   <circle id="connector23pad" cx="5.4" cy="32.22" r="1.9687" fill="none" stroke="#F7BD13" stroke-width="1.1027" connectorname="A3"/>
   <circle id="connector84pad" cx="39.246" cy="7.3701" r="1.2104" fill="none" stroke="#F7BD13" stroke-width=".72" connectorname="M3"/>
   <path d="m38.035 4.5862h2.4208v5.5678h-2.4208v-5.5678m0 2.7839a1.2104 1.2104 0 1 0 2.4208 0 1.2104 1.2104 0 1 0-2.4208 0z" fill="#F7BD13" stroke-width="0"/>
   <circle id="connector25pad" cx="5.4" cy="39.42" r="1.9687" fill="none" stroke="#F7BD13" stroke-width="1.1027" connectorname="SDA"/>
   <circle id="connector27pad" cx="5.4" cy="46.62" r="1.9687" fill="none" stroke="#F7BD13" stroke-width="1.1027" connectorname="SCL"/>
   <circle id="connector29pad" cx="5.4" cy="53.82" r="1.9687" fill="none" stroke="#F7BD13" stroke-width="1.1027" connectorname="TX"/>
   <circle id="connector31pad" cx="48.6" cy="53.82" r="1.9687" fill="none" stroke="#F7BD13" stroke-width="1.1027" connectorname="RX"/>
   <circle id="connector33pad" cx="48.6" cy="46.62" r="1.9687" fill="none" stroke="#F7BD13" stroke-width="1.1027" connectorname="SCK"/>
   <circle id="connector35pad" cx="48.6" cy="39.42" r="1.9687" fill="none" stroke="#F7BD13" stroke-width="1.1027" connectorname="MISO"/>
   <circle id="connector37pad" cx="48.6" cy="32.22" r="1.9687" fill="none" stroke="#F7BD13" stroke-width="1.1027" connectorname="MOSI"/>
   <circle id="connector39pad" cx="48.6" cy="25.02" r="1.9687" fill="none" stroke="#F7BD13" stroke-width="1.1027" connectorname="3.3V"/>
   <circle id="connector41pad" cx="48.6" cy="17.82" r="1.9687" fill="none" stroke="#F7BD13" stroke-width="1.1027" connectorname="GND"/>
   <circle id="connector43pad" cx="48.6" cy="10.62" r="1.9687" fill="none" stroke="#F7BD13" stroke-width="1.1027" connectorname="+5V"/>
   <circle id="connector83pad" cx="14.754" cy="19.219" r="1.2104" fill="none" stroke="#F7BD13" stroke-width=".72" connectorname="M2"/>
   <path d="m13.544 16.435h2.4208v5.5678h-2.4208v-5.5678m0 2.7839a1.2104 1.2104 0 1 0 2.4208 0 1.2104 1.2104 0 1 0-2.4208 0z" fill="#F7BD13" stroke-width="0"/>
   <circle id="connector85pad" cx="14.754" cy="7.3701" r="1.2104" fill="none" stroke="#F7BD13" stroke-width=".72" connectorname="M4"/>
   <path d="m13.544 4.5862h2.4208v5.5678h-2.4208v-5.5678m0 2.7839a1.2104 1.2104 0 1 0 2.4208 0 1.2104 1.2104 0 1 0-2.4208 0z" fill="#F7BD13" stroke-width="0"/>
  </g>
 </g>
</svg>
