<?xml version="1.0" encoding="UTF-8"?>
<!-- Created with Fritzing (http://www.fritzing.org/) -->
<svg width=".75in" height=".815in" baseProfile="tiny" version="1.2" viewBox="0 0 54 58.68" xmlns="http://www.w3.org/2000/svg">
 <desc>
  <referenceFile>Adafruit_5x5_NeoPixel_Grid_BFF_pcb.svg</referenceFile>
 </desc>
 <desc>Fritzing footprint generated by brd2svg</desc>
 <g id="silkscreen">
  <path d="m51.931 7.4173v43.845a6.912 6.912 0 0 1-7.1232 7.1293h-35.616a6.912 6.912 0 0 1-7.1232-7.1293v-43.845a6.912 6.912 0 0 1 7.1232-7.1293h35.616a6.912 6.912 0 0 1 7.1232 7.1293" fill="none" stroke="#fff" stroke-width=".576"/>
  <g>
   <title>element:JP1</title>
   <g>
    <title>package:1X07_CASTEL</title>
   </g>
  </g>
  <g>
   <title>element:JP3</title>
   <g>
    <title>package:1X07_CASTEL</title>
   </g>
  </g>
  <g>
   <title>element:PLABEL8</title>
   <g>
    <title>package:PLABEL8</title>
   </g>
  </g>
  <line x1="52.2" x2="53.712" y1="54.852" y2="54.852" fill="none" stroke="#fff" stroke-width=".576"/>
  <line x1="52.2" x2="53.712" y1="3.8282" y2="3.8282" fill="none" stroke="#fff" stroke-width=".576"/>
  <line x1="53.712" x2="53.712" y1="54.852" y2="3.8282" fill="none" stroke="#fff" stroke-width=".576"/>
  <line x1=".288" x2="1.8" y1="54.852" y2="54.852" fill="none" stroke="#fff" stroke-width=".576"/>
  <line x1=".288" x2="1.8" y1="3.8282" y2="3.8282" fill="none" stroke="#fff" stroke-width=".576"/>
  <line x1=".288" x2=".288" y1="54.852" y2="3.8282" fill="none" stroke="#fff" stroke-width=".576"/>
 </g>
 <g id="copper1">
  <g id="copper0">
   <g transform="matrix(0 -1 1 0 10.33 18.754)">
    <rect id="connector150pad" x="13.833" y="3.5036" width="1.4173" height="1.4173" rx=".17716" ry=".17716" fill="#F7BD13" stroke-width="0"/>
   </g>
   <circle id="connector13pad" cx="48.6" cy="7.74" r="1.9687" fill="none" stroke="#F7BD13" stroke-width="1.1027" connectorname="A0"/>
   <g transform="matrix(-1 0 0 -1 70.92 8.64)">
    <rect id="connector142pad" x="34.38" y="2.16" width="2.16" height="4.32" rx=".54" ry=".54" fill="#F7BD13" stroke-width="0"/>
   </g>
   <circle id="connector15pad" cx="48.6" cy="14.94" r="1.9687" fill="none" stroke="#F7BD13" stroke-width="1.1027" connectorname="A1"/>
   <circle id="connector17pad" cx="48.6" cy="22.14" r="1.9687" fill="none" stroke="#F7BD13" stroke-width="1.1027" connectorname="A2"/>
   <circle id="connector19pad" cx="48.6" cy="29.34" r="1.9687" fill="none" stroke="#F7BD13" stroke-width="1.1027" connectorname="A3"/>
   <circle id="connector21pad" cx="48.6" cy="36.54" r="1.9687" fill="none" stroke="#F7BD13" stroke-width="1.1027" connectorname="SDA"/>
   <g transform="matrix(-1 0 0 -1 72.36 31.68)">
    <rect id="connector146pad" x="34.524" y="13.572" width="3.312" height="4.536" fill="#F7BD13" stroke-width="0"/>
   </g>
   <circle id="connector23pad" cx="48.6" cy="43.74" r="1.9687" fill="none" stroke="#F7BD13" stroke-width="1.1027" connectorname="SCL"/>
   <circle id="connector25pad" cx="48.6" cy="50.94" r="1.9687" fill="none" stroke="#F7BD13" stroke-width="1.1027" connectorname="TX_A6"/>
   <circle id="connector27pad" cx="5.4" cy="50.94" r="1.9687" fill="none" stroke="#F7BD13" stroke-width="1.1027" connectorname="RX_A7"/>
   <circle id="connector29pad" cx="5.4" cy="43.74" r="1.9687" fill="none" stroke="#F7BD13" stroke-width="1.1027" connectorname="SCK"/>
   <circle id="connector31pad" cx="5.4" cy="36.54" r="1.9687" fill="none" stroke="#F7BD13" stroke-width="1.1027" connectorname="MISO"/>
   <circle id="connector33pad" cx="5.4" cy="29.34" r="1.9687" fill="none" stroke="#F7BD13" stroke-width="1.1027" connectorname="MOSI"/>
   <circle id="connector35pad" cx="5.4" cy="22.14" r="1.9687" fill="none" stroke="#F7BD13" stroke-width="1.1027" connectorname="3.3V"/>
   <circle id="connector37pad" cx="5.4" cy="14.94" r="1.9687" fill="none" stroke="#F7BD13" stroke-width="1.1027" connectorname="GND"/>
   <circle id="connector39pad" cx="5.4" cy="7.74" r="1.9687" fill="none" stroke="#F7BD13" stroke-width="1.1027" connectorname="+5V"/>
   <g transform="matrix(-1 0 0 -1 70.92 20.16)">
    <rect id="connector144pad" x="34.38" y="7.92" width="2.16" height="4.32" rx=".54" ry=".54" fill="#F7BD13" stroke-width="0"/>
   </g>
   <g transform="matrix(0 -1 1 0 22.32 35.28)">
    <rect id="connector148pad" x="24.548" y="4.354" width="8.5039" height="4.252" rx=".5315" ry=".5315" fill="#F7BD13" stroke-width="0"/>
   </g>
   <g transform="matrix(-1 0 0 -1 82.44 8.64)">
    <rect id="connector141pad" x="40.14" y="2.16" width="2.16" height="4.32" rx=".54" ry=".54" fill="#F7BD13" stroke-width="0"/>
   </g>
   <g transform="matrix(-1 0 0 -1 82.44 20.16)">
    <rect id="connector143pad" x="40.14" y="7.92" width="2.16" height="4.32" rx=".54" ry=".54" fill="#F7BD13" stroke-width="0"/>
   </g>
   <g transform="matrix(-1 0 0 -1 81 31.68)">
    <rect id="connector145pad" x="38.844" y="13.572" width="3.312" height="4.536" fill="#F7BD13" stroke-width="0"/>
   </g>
   <g transform="matrix(0 -1 1 0 17.53 25.954)">
    <rect id="connector149pad" x="21.033" y="3.5036" width="1.4173" height="1.4173" rx=".17716" ry=".17716" fill="#F7BD13" stroke-width="0"/>
   </g>
  </g>
 </g>
</svg>
