<?xml version="1.0" encoding="UTF-8"?>
<!-- Created with Fritzing (http://www.fritzing.org/) -->
<svg width="1.5748in" height="1.5354in" baseProfile="tiny" version="1.2" viewBox="0 0 113.39 110.55" xmlns="http://www.w3.org/2000/svg">
 <desc>
  <referenceFile>Adafruit SHARP Memory Display 1.3 inch 96x96_pcb.svg</referenceFile>
 </desc>
 <desc>Fritzing footprint generated by brd2svg</desc>
 <g id="silkscreen">
  <path d="m113.1 101.8a8.2159 8.2159 0 0 1-8.461 8.459h-95.888a8.2159 8.2159 0 0 1-8.4607-8.459 8.2159 8.2159 0 0 1 8.4607-8.4603h5.6405v-76.136h-5.6405a8.2159 8.2159 0 0 1-8.4607-8.4597 8.2159 8.2159 0 0 1 8.4607-8.4596h95.888a8.2159 8.2159 0 0 1 8.461 8.4596 8.2159 8.2159 0 0 1-8.461 8.4597h-5.6406v76.136h5.6406a8.2159 8.2159 0 0 1 8.461 8.4603" fill="none" stroke="#fff" stroke-width=".576"/>
  <g>
   <title>element:IC1</title>
   <g>
    <title>package:FPC_10PIN_52892-1095</title>
   </g>
  </g>
  <g>
   <title>element:JP1</title>
   <g>
    <title>package:1X09_ROUND_70</title>
   </g>
  </g>
  <g>
   <title>element:U1</title>
   <g>
    <title>package:SOIC16</title>
   </g>
  </g>
 </g>
 <g id="copper1">
  <g id="copper0" fill="none" stroke="#F7BD13">
   <circle id="connector6pad" cx="78.293" cy="103.35" r="1.9687" stroke-width="1.1027" connectorname="3.3V"/>
   <circle id="connector12pad" cx="35.093" cy="103.35" r="1.9687" stroke-width="1.1027" connectorname="DISP"/>
   <circle id="connector14pad" cx="104.88" cy="8.5039" r="4.6772" stroke-width=".85039" connectorname="P$1"/>
   <circle id="connector7pad" cx="71.093" cy="103.35" r="1.9687" stroke-width="1.1027" connectorname="GND"/>
   <circle id="connector16pad" cx="104.88" cy="102.05" r="4.6772" stroke-width=".85039" connectorname="P$1"/>
   <circle id="connector8pad" cx="63.893" cy="103.35" r="1.9687" stroke-width="1.1027" connectorname="SCLK"/>
   <circle id="connector13pad" cx="27.893" cy="103.35" r="1.9687" stroke-width="1.1027" connectorname="EXTIN"/>
   <circle id="connector9pad" cx="56.693" cy="103.35" r="1.9687" stroke-width="1.1027" connectorname="MOSI"/>
   <circle id="connector15pad" cx="8.5039" cy="8.5039" r="4.6772" stroke-width=".85039" connectorname="P$1"/>
   <circle id="connector10pad" cx="49.493" cy="103.35" r="1.9687" stroke-width="1.1027" connectorname="CS"/>
   <circle id="connector17pad" cx="8.5039" cy="102.05" r="4.6772" stroke-width=".85039" connectorname="P$1"/>
   <circle id="connector11pad" cx="42.293" cy="103.35" r="1.9687" stroke-width="1.1027" connectorname="EXTMODE"/>
   <circle id="connector5pad" cx="85.493" cy="103.35" r="1.9687" stroke-width="1.1027" connectorname="VIN"/>
  </g>
 </g>
</svg>
