<?xml version="1.0" encoding="UTF-8"?>
<!-- Created with Fritzing (http://www.fritzing.org/) -->
<svg width=".65in" height=".6in" baseProfile="tiny" version="1.2" viewBox="0 0 46.8 43.2" xmlns="http://www.w3.org/2000/svg">
 <desc>
  <referenceFile>protrinket backpack_pcb.svg</referenceFile>
 </desc>
 <desc>Fritzing footprint generated by brd2svg</desc>
 <g id="silkscreen">
  <path d="m46.512 7.392v28.416a6.912 6.912 0 0 1-7.1114 7.104h-32.001a6.912 6.912 0 0 1-7.1114-7.104v-28.416a6.912 6.912 0 0 1 7.1114-7.104h32.001a6.912 6.912 0 0 1 7.1114 7.104" fill="none" stroke="#fff" stroke-width=".576"/>
  <line x1="25.56" x2="25.56" y1=".36" y2="14.04" stroke="#fff" stroke-linecap="round" stroke-width=".72"/>
  <line x1="25.56" x2="32.04" y1="14.04" y2="14.04" stroke="#fff" stroke-linecap="round" stroke-width=".72"/>
  <line x1="32.04" x2="32.04" y1="14.04" y2=".36" stroke="#fff" stroke-linecap="round" stroke-width=".72"/>
  <line x1="32.04" x2="25.56" y1=".36" y2=".36" stroke="#fff" stroke-linecap="round" stroke-width=".72"/>
  <g>
   <title>element:CN2</title>
   <g>
    <title>package:JSTPH2</title>
    <line x1="45.224" x2="45.224" y1="19.542" y2="32.298" stroke="#fff" stroke-linecap="round" stroke-width=".576"/>
    <line x1="35.303" x2="23.964" y1="37.259" y2="37.259" stroke="#fff" stroke-linecap="round" stroke-width=".576"/>
    <line x1="23.964" x2="23.964" y1="37.259" y2="34.849" stroke="#fff" stroke-linecap="round" stroke-width=".576"/>
    <line x1="23.964" x2="31.051" y1="34.849" y2="34.849" stroke="#fff" stroke-linecap="round" stroke-width=".576"/>
    <line x1="31.051" x2="31.051" y1="34.849" y2="30.881" stroke="#fff" stroke-linecap="round" stroke-width=".576"/>
    <line x1="31.051" x2="31.051" y1="20.959" y2="16.991" stroke="#fff" stroke-linecap="round" stroke-width=".576"/>
    <line x1="31.051" x2="23.964" y1="16.991" y2="16.991" stroke="#fff" stroke-linecap="round" stroke-width=".576"/>
    <line x1="23.964" x2="23.964" y1="16.991" y2="14.581" stroke="#fff" stroke-linecap="round" stroke-width=".576"/>
    <line x1="23.964" x2="35.303" y1="14.581" y2="14.581" stroke="#fff" stroke-linecap="round" stroke-width=".576"/>
   </g>
  </g>
  <g>
   <title>element:U$10</title>
   <g>
    <title>package:MOUNTINGHOLE_2.5_PLATED</title>
    <circle cx="39.6" cy="7.2" r="5.6693" fill="none" stroke="#fff" stroke-width=".576"/>
   </g>
  </g>
 </g>
 <g id="copper1">
  <g id="copper0" fill="none" stroke="#F7BD13">
   <circle id="connector17pad" cx="28.8" cy="3.6" r="1.9687" stroke-width="1.1027" connectorname="SW1"/>
   <circle id="connector26pad" cx="39.6" cy="7.2" r="4.2633" stroke-width="1.44" connectorname="P$1"/>
   <circle id="connector13pad" cx="21.6" cy="3.6" r="2.0767" stroke-width="1.3187" connectorname="VBUS"/>
   <circle id="connector14pad" cx="14.4" cy="3.6" r="2.0767" stroke-width="1.3187" connectorname="GND"/>
   <circle id="connector15pad" cx="7.2" cy="3.6" r="2.0767" stroke-width="1.3187" connectorname="VBAT"/>
   <circle id="connector16pad" cx="28.8" cy="10.8" r="1.9687" stroke-width="1.1027" connectorname="SW2"/>
  </g>
 </g>
</svg>
