<?xml version="1.0" encoding="UTF-8"?>
<!-- Created with Fritzing (http://www.fritzing.org/) -->
<svg width="2.2295in" height=".9in" baseProfile="tiny" version="1.2" viewBox="0 0 160.52 64.8" xmlns="http://www.w3.org/2000/svg">
 <desc>
  <referenceFile>Adafruit Feather RP2040 Adalogger_pcb.svg</referenceFile>
 </desc>
 <desc>Fritzing footprint generated by brd2svg</desc>
 <g id="silkscreen">
  <path d="m10.87 64.512a6.912 6.912 0 0 1-7.1742-7.136v-49.952a6.912 6.912 0 0 1 7.1742-7.136h129.14a6.912 6.912 0 0 1 7.174 7.136v49.952a6.912 6.912 0 0 1-7.174 7.136h-129.14m6.2984-23.92a0.63326 0.63326 0 1 0 1.2665 0 0.63326 0.63326 0 1 0-1.2665 0zm0-16.384a0.63326 0.63326 0 1 0 1.2665 0 0.63326 0.63326 0 1 0-1.2665 0zm119.74-17.008a3.312 3.312 0 1 0 6.624 0 3.312 3.312 0 1 0-6.624 0zm0 50.4a3.312 3.312 0 1 0 6.624 0 3.312 3.312 0 1 0-6.624 0z" fill="none" stroke="#fff" stroke-width=".576"/>
  <line x1="59.94" x2="73.26" y1="29.16" y2="29.16" stroke="#fff" stroke-linecap="round" stroke-width="2.88"/>
  <line x1="73.26" x2="73.26" y1="29.16" y2="42.84" stroke="#fff" stroke-linecap="round" stroke-width="2.88"/>
  <line x1="73.26" x2="59.94" y1="42.84" y2="42.84" stroke="#fff" stroke-linecap="round" stroke-width="2.88"/>
  <line x1="59.94" x2="59.94" y1="42.84" y2="29.16" stroke="#fff" stroke-linecap="round" stroke-width="2.88"/>
  <g>
   <title>element:IC1</title>
   <g>
    <title>package:QFN56_7MM_REDUCEDEPAD</title>
    <line x1="74.678" x2="76.522" y1="26.079" y2="26.079" stroke="#fff" stroke-linecap="round" stroke-width=".432"/>
    <line x1="76.522" x2="76.522" y1="26.079" y2="27.78" stroke="#fff" stroke-linecap="round" stroke-width=".432"/>
    <line x1="76.522" x2="76.522" y1="44.22" y2="45.921" stroke="#fff" stroke-linecap="round" stroke-width=".432"/>
    <line x1="76.522" x2="74.82" y1="45.921" y2="45.921" stroke="#fff" stroke-linecap="round" stroke-width=".432"/>
    <line x1="56.679" x2="56.679" y1="44.22" y2="45.921" stroke="#fff" stroke-linecap="round" stroke-width=".432"/>
    <line x1="56.679" x2="58.38" y1="45.921" y2="45.921" stroke="#fff" stroke-linecap="round" stroke-width=".432"/>
    <line x1="58.38" x2="56.679" y1="26.079" y2="26.079" stroke="#fff" stroke-linecap="round" stroke-width=".432"/>
    <line x1="56.679" x2="56.679" y1="26.079" y2="27.78" stroke="#fff" stroke-linecap="round" stroke-width=".432"/>
    <circle cx="76.522" cy="26.079" r=".95077" fill="none" stroke="#fff" stroke-width=".432"/>
   </g>
  </g>
  <g>
   <title>element:JP1</title>
   <g>
    <title>package:1X16_ROUND</title>
   </g>
  </g>
  <g>
   <title>element:JP3</title>
   <g>
    <title>package:1X12_ROUND</title>
   </g>
  </g>
  <g>
   <title>element:PLABEL62</title>
   <g>
    <title>package:PLABEL62</title>
   </g>
  </g>
  <g>
   <title>element:PLABEL95</title>
   <g>
    <title>package:PLABEL95</title>
   </g>
  </g>
  <g>
   <title>element:PLABEL122</title>
   <g>
    <title>package:PLABEL122</title>
   </g>
  </g>
  <g>
   <title>element:PLABEL124</title>
   <g>
    <title>package:PLABEL124</title>
   </g>
  </g>
  <g>
   <title>element:U$28</title>
   <g>
    <title>package:ADALOGGER_LOGO</title>
   </g>
  </g>
  <g>
   <title>element:U$46</title>
   <g>
    <title>package:FEATHERLOGO_MED</title>
   </g>
  </g>
  <g>
   <title>element:X1</title>
   <g>
    <title>package:JSTPH2_BATT</title>
    <line x1="28.002" x2="40.758" y1="1.5761" y2="1.5761" stroke="#fff" stroke-linecap="round" stroke-width=".576"/>
    <line x1="45.719" x2="45.719" y1="11.497" y2="22.836" stroke="#fff" stroke-linecap="round" stroke-width=".576"/>
    <line x1="45.719" x2="43.309" y1="22.836" y2="22.836" stroke="#fff" stroke-linecap="round" stroke-width=".576"/>
    <line x1="43.309" x2="43.309" y1="22.836" y2="16.469" stroke="#fff" stroke-linecap="round" stroke-width=".576"/>
    <line x1="43.309" x2="39.341" y1="16.469" y2="16.469" stroke="#fff" stroke-linecap="round" stroke-width=".576"/>
    <line x1="29.419" x2="25.451" y1="16.469" y2="16.469" stroke="#fff" stroke-linecap="round" stroke-width=".576"/>
    <line x1="25.451" x2="25.451" y1="16.469" y2="22.836" stroke="#fff" stroke-linecap="round" stroke-width=".576"/>
    <line x1="25.451" x2="23.041" y1="22.836" y2="22.836" stroke="#fff" stroke-linecap="round" stroke-width=".576"/>
    <line x1="23.041" x2="23.041" y1="22.836" y2="11.497" stroke="#fff" stroke-linecap="round" stroke-width=".576"/>
    <line x1="39.78" x2="42.3" y1="20.88" y2="20.88" stroke="#fff" stroke-linecap="round" stroke-width=".864"/>
    <line x1="41.04" x2="41.04" y1="22.32" y2="19.62" stroke="#fff" stroke-linecap="round" stroke-width=".864"/>
    <line x1="26.46" x2="28.98" y1="20.88" y2="20.88" stroke="#fff" stroke-linecap="round" stroke-width=".864"/>
   </g>
  </g>
  <g>
   <title>element:X2</title>
   <g>
    <title>package:MICROSD</title>
    <line x1="102.5" x2="102.5" y1="49.79" y2="51.633" stroke="#fff" stroke-linecap="round" stroke-width=".36"/>
    <line x1="102.5" x2="103.91" y1="51.633" y2="51.633" stroke="#fff" stroke-linecap="round" stroke-width=".36"/>
    <line x1="103.91" x2="103.91" y1="51.633" y2="52.342" stroke="#fff" stroke-linecap="round" stroke-width=".36"/>
    <line x1="103.91" x2="137.79" y1="52.342" y2="52.342" stroke="#fff" stroke-linecap="round" stroke-width=".36"/>
    <line x1="102.5" x2="102.5" y1="43.271" y2="33.863" stroke="#fff" stroke-linecap="round" stroke-width=".36"/>
    <line x1="102.5" x2="102.5" y1="27.125" y2="12.09" stroke="#fff" stroke-linecap="round" stroke-width=".36"/>
    <line x1="102.5" x2="140.34" y1="12.09" y2="12.09" stroke="#fff" stroke-linecap="round" stroke-width=".36"/>
   </g>
  </g>
  <g>
   <title>element:X6</title>
   <g>
    <title>package:USB_C_CUSB31-CFM2AX-01-X</title>
    <line x1="11.339" x2="15.165" y1="19.729" y2="19.729" stroke="#fff" stroke-linecap="round" stroke-width=".288"/>
    <line x1="15.165" x2="11.339" y1="45.071" y2="45.071" stroke="#fff" stroke-linecap="round" stroke-width=".288"/>
    <line y1="45.071" y2="19.729" stroke="#fff" stroke-linecap="round" stroke-width=".288"/>
    <line x2="3.8268" y1="19.729" y2="19.729" stroke="#fff" stroke-linecap="round" stroke-width=".288"/>
    <line x1="3.8268" y1="45.071" y2="45.071" stroke="#fff" stroke-linecap="round" stroke-width=".288"/>
   </g>
  </g>
  <line x1="147.42" x2="160.23" y1="52.342" y2="52.342" fill="none" stroke="#fff" stroke-width=".576"/>
  <line x1="147.42" x2="160.23" y1="12.09" y2="12.09" fill="none" stroke="#fff" stroke-width=".576"/>
  <line x1="160.23" x2="160.23" y1="52.342" y2="12.09" fill="none" stroke="#fff" stroke-width=".576"/>
  <line x1=".288" x2="3.42" y1="46.044" y2="46.044" fill="none" stroke="#fff" stroke-width=".576"/>
  <line x1=".288" x2="3.42" y1="18.72" y2="18.72" fill="none" stroke="#fff" stroke-width=".576"/>
  <line x1=".288" x2=".288" y1="46.044" y2="18.72" fill="none" stroke="#fff" stroke-width=".576"/>
 </g>
 <g id="copper1">
  <g id="copper0">
   <circle id="connector134pad" cx="107.82" cy="3.42" r="1.8967" fill="none" stroke="#F7BD13" stroke-width=".95868" connectorname="D6"/>
   <circle id="connector246pad" cx="7.3701" cy="20.154" r="1.1339" fill="none" stroke="#F7BD13" stroke-width=".56693" connectorname="M3"/>
   <path d="m4.7622 19.02h5.2157v2.2677h-5.2157v-2.2677m1.474 1.1338a1.1339 1.1339 0 1 0 2.2677 0 1.1339 1.1339 0 1 0-2.2677 0z" fill="#F7BD13" stroke-width="0"/>
   <circle id="connector130pad" cx="79.02" cy="3.42" r="1.8967" fill="none" stroke="#F7BD13" stroke-width=".95868" connectorname="D12"/>
   <circle id="connector194pad" cx="10.62" cy="57.6" r="4.0748" fill="none" stroke="#F7BD13" stroke-width="1.063" connectorname="P$1"/>
   <circle id="connector132pad" cx="93.42" cy="3.42" r="1.8967" fill="none" stroke="#F7BD13" stroke-width=".95868" connectorname="D10"/>
   <circle id="connector136pad" cx="122.22" cy="3.42" r="1.8967" fill="none" stroke="#F7BD13" stroke-width=".95868" connectorname="SCL"/>
   <g transform="matrix(-1 0 0 -1 199.64 45.584)">
    <rect id="connector43pad" x="97.623" y="21.942" width="4.3937" height="1.7008" fill="#F7BD13" stroke-width="0"/>
   </g>
   <g transform="matrix(-1 0 0 -1 199.64 39.915)">
    <rect id="connector44pad" x="97.623" y="19.107" width="4.3937" height="1.7008" fill="#F7BD13" stroke-width="0"/>
   </g>
   <g transform="matrix(-1 0 0 -1 199.64 34.245)">
    <rect id="connector45pad" x="97.623" y="16.272" width="4.3937" height="1.7008" fill="#F7BD13" stroke-width="0"/>
   </g>
   <g transform="matrix(-1 0 0 -1 199.64 28.576)">
    <rect id="connector46pad" x="97.623" y="13.438" width="4.3937" height="1.7008" fill="#F7BD13" stroke-width="0"/>
   </g>
   <rect id="connector216pad" x="30.128" y="14.048" width="2.8346" height="13.039" fill="#F7BD13" stroke-width="0"/>
   <circle id="connector244pad" cx="19.219" cy="20.154" r="1.1339" fill="none" stroke="#F7BD13" stroke-width=".56693" connectorname="M1"/>
   <path d="m16.611 19.02h5.2157v2.2677h-5.2157v-2.2677m1.474 1.1338a1.1339 1.1339 0 1 0 2.2677 0 1.1339 1.1339 0 1 0-2.2677 0z" fill="#F7BD13" stroke-width="0"/>
   <circle id="connector129pad" cx="71.82" cy="3.42" r="1.8967" fill="none" stroke="#F7BD13" stroke-width=".95868" connectorname="D13"/>
   <circle id="connector131pad" cx="86.22" cy="3.42" r="1.8967" fill="none" stroke="#F7BD13" stroke-width=".95868" connectorname="D11"/>
   <circle id="connector133pad" cx="100.62" cy="3.42" r="1.8967" fill="none" stroke="#F7BD13" stroke-width=".95868" connectorname="D9"/>
   <circle id="connector135pad" cx="115.02" cy="3.42" r="1.8967" fill="none" stroke="#F7BD13" stroke-width=".95868" connectorname="D5"/>
   <circle id="connector137pad" cx="129.42" cy="3.42" r="1.8967" fill="none" stroke="#F7BD13" stroke-width=".95868" connectorname="SDA"/>
   <circle id="connector193pad" cx="10.62" cy="7.2" r="4.0748" fill="none" stroke="#F7BD13" stroke-width="1.063" connectorname="P$1"/>
   <circle id="connector110pad" cx="129.42" cy="61.2" r="1.8967" fill="none" stroke="#F7BD13" stroke-width=".95868" connectorname="D4"/>
   <rect id="connector217pad" x="35.797" y="14.048" width="2.8346" height="13.039" fill="#F7BD13" stroke-width="0"/>
   <circle id="connector111pad" cx="122.22" cy="61.2" r="1.8967" fill="none" stroke="#F7BD13" stroke-width=".95868" connectorname="TX"/>
   <circle id="connector112pad" cx="115.02" cy="61.2" r="1.8967" fill="none" stroke="#F7BD13" stroke-width=".95868" connectorname="RX"/>
   <circle id="connector113pad" cx="107.82" cy="61.2" r="1.8967" fill="none" stroke="#F7BD13" stroke-width=".95868" connectorname="MISO"/>
   <circle id="connector114pad" cx="100.62" cy="61.2" r="1.8967" fill="none" stroke="#F7BD13" stroke-width=".95868" connectorname="MOSI"/>
   <circle id="connector115pad" cx="93.42" cy="61.2" r="1.8967" fill="none" stroke="#F7BD13" stroke-width=".95868" connectorname="SCK"/>
   <circle id="connector116pad" cx="86.22" cy="61.2" r="1.8967" fill="none" stroke="#F7BD13" stroke-width=".95868" connectorname="D25"/>
   <circle id="connector117pad" cx="79.02" cy="61.2" r="1.8967" fill="none" stroke="#F7BD13" stroke-width=".95868" connectorname="D24"/>
   <circle id="connector118pad" cx="71.82" cy="61.2" r="1.8967" fill="none" stroke="#F7BD13" stroke-width=".95868" connectorname="A3"/>
   <circle id="connector119pad" cx="64.62" cy="61.2" r="1.8967" fill="none" stroke="#F7BD13" stroke-width=".95868" connectorname="A2"/>
   <circle id="connector120pad" cx="57.42" cy="61.2" r="1.8967" fill="none" stroke="#F7BD13" stroke-width=".95868" connectorname="A1"/>
   <circle id="connector121pad" cx="50.22" cy="61.2" r="1.8967" fill="none" stroke="#F7BD13" stroke-width=".95868" connectorname="A0"/>
   <circle id="connector122pad" cx="43.02" cy="61.2" r="1.8967" fill="none" stroke="#F7BD13" stroke-width=".95868" connectorname="GND"/>
   <circle id="connector123pad" cx="35.82" cy="61.2" r="1.8967" fill="none" stroke="#F7BD13" stroke-width=".95868" connectorname="+3V3"/>
   <circle id="connector124pad" cx="28.62" cy="61.2" r="1.8967" fill="none" stroke="#F7BD13" stroke-width=".95868" connectorname="+3V3"/>
   <circle id="connector245pad" cx="19.219" cy="44.646" r="1.1339" fill="none" stroke="#F7BD13" stroke-width=".56693" connectorname="M2"/>
   <path d="m16.611 43.512h5.2157v2.2677h-5.2157v-2.2677m1.474 1.1339a1.1339 1.1339 0 1 0 2.2677 0 1.1339 1.1339 0 1 0-2.2677 0z" fill="#F7BD13" stroke-width="0"/>
   <circle id="connector125pad" cx="21.42" cy="61.2" r="1.8967" fill="none" stroke="#F7BD13" stroke-width=".95868" connectorname="!RESET"/>
   <circle id="connector247pad" cx="7.3701" cy="44.646" r="1.1339" fill="none" stroke="#F7BD13" stroke-width=".56693" connectorname="M4"/>
   <path d="m4.7622 43.512h5.2157v2.2677h-5.2157v-2.2677m1.474 1.1339a1.1339 1.1339 0 1 0 2.2677 0 1.1339 1.1339 0 1 0-2.2677 0z" fill="#F7BD13" stroke-width="0"/>
   <circle id="connector126pad" cx="50.22" cy="3.42" r="1.8967" fill="none" stroke="#F7BD13" stroke-width=".95868" connectorname="VBAT"/>
   <circle id="connector127pad" cx="57.42" cy="3.42" r="1.8967" fill="none" stroke="#F7BD13" stroke-width=".95868" connectorname="EN"/>
   <circle id="connector128pad" cx="64.62" cy="3.42" r="1.8967" fill="none" stroke="#F7BD13" stroke-width=".95868" connectorname="VBUS"/>
  </g>
 </g>
</svg>
