<?xml version="1.0" encoding="UTF-8"?>
<!-- Created with Fritzing (http://www.fritzing.org/) -->
<svg width="3.347in" height="2.2058in" version="1.2" viewBox="0 0 240.99 158.82" xmlns="http://www.w3.org/2000/svg">
 <desc>
  <referenceFile>Adafruit RGB LCD Pi Plate_pcb.svg</referenceFile>
 </desc>
 <metadata>
  <rdf:RDF xmlns:rdf="http://www.w3.org/1999/02/22-rdf-syntax-ns#">
   <cc:Work rdf:about="" xmlns:cc="http://creativecommons.org/ns#" xmlns:rdf="http://www.w3.org/1999/02/22-rdf-syntax-ns#">
    <dc:format xmlns:dc="http://purl.org/dc/elements/1.1/">image/svg+xml</dc:format>
    <dc:type rdf:resource="http://purl.org/dc/dcmitype/StillImage" xmlns:dc="http://purl.org/dc/elements/1.1/" xmlns:rdf="http://www.w3.org/1999/02/22-rdf-syntax-ns#"/>
    <dc:title xmlns:dc="http://purl.org/dc/elements/1.1/"/>
   </cc:Work>
  </rdf:RDF>
 </metadata>
 <desc>Fritzing footprint generated by brd2svg</desc>
 <g transform="translate(-4.2425 -18.368)">
  <g id="silkscreen">
   <path d="m244.94 176.9h-240.41v-158.24h240.41v158.24m-229.96-45.437a3.6805 3.6805 0 1 0 7.361 0 3.6805 3.6805 0 1 0-7.361 0zm0-87.875a3.6805 3.6805 0 1 0 7.361 0 3.6805 3.6805 0 1 0-7.361 0zm212.6 0a3.6805 3.6805 0 1 0 7.361 0 3.6805 3.6805 0 1 0-7.361 0zm0 87.875a3.6805 3.6805 0 1 0 7.361 0 3.6805 3.6805 0 1 0-7.361 0z" fill="none" stroke="#fff" stroke-width=".576"/>
   <g>
    <title>element:DOWN</title>
    <g>
     <title>package:B3F-10XX</title>
     <line x1="216.04" x2="215.32" y1="169.96" y2="169.96" stroke="#fff" stroke-linecap="round" stroke-width=".432"/>
     <line x1="216.04" x2="216.04" y1="169.96" y2="165.64" stroke="#fff" stroke-linecap="round" stroke-width=".432"/>
     <line x1="215.32" x2="216.04" y1="165.64" y2="165.64" stroke="#fff" stroke-linecap="round" stroke-width=".432"/>
     <line x1="197.32" x2="198.04" y1="165.64" y2="165.64" stroke="#fff" stroke-linecap="round" stroke-width=".432"/>
     <line x1="197.32" x2="197.32" y1="165.64" y2="169.96" stroke="#fff" stroke-linecap="round" stroke-width=".432"/>
     <line x1="198.04" x2="197.32" y1="169.96" y2="169.96" stroke="#fff" stroke-linecap="round" stroke-width=".432"/>
     <line x1="203.08" x2="203.08" y1="159.16" y2="159.88" stroke="#fff" stroke-linecap="round" stroke-width=".144"/>
     <line x1="210.28" x2="203.08" y1="159.88" y2="159.88" stroke="#fff" stroke-linecap="round" stroke-width=".144"/>
     <line x1="210.28" x2="210.28" y1="159.88" y2="159.16" stroke="#fff" stroke-linecap="round" stroke-width=".144"/>
     <line x1="209.92" x2="203.08" y1="175.73" y2="175.73" stroke="#fff" stroke-linecap="round" stroke-width=".144"/>
     <line x1="209.92" x2="209.92" y1="175.73" y2="176.45" stroke="#fff" stroke-linecap="round" stroke-width=".144"/>
     <line x1="203.08" x2="203.08" y1="175.73" y2="176.45" stroke="#fff" stroke-linecap="round" stroke-width=".144"/>
     <line x1="200.56" x2="203.08" y1="176.45" y2="176.45" stroke="#fff" stroke-linecap="round" stroke-width=".432"/>
     <line x1="212.8" x2="210.28" y1="159.16" y2="159.16" stroke="#fff" stroke-linecap="round" stroke-width=".432"/>
     <line x1="210.28" x2="203.08" y1="159.16" y2="159.16" stroke="#fff" stroke-linecap="round" stroke-width=".432"/>
     <line x1="203.08" x2="200.56" y1="159.16" y2="159.16" stroke="#fff" stroke-linecap="round" stroke-width=".432"/>
     <line x1="203.08" x2="209.92" y1="176.45" y2="176.45" stroke="#fff" stroke-linecap="round" stroke-width=".432"/>
     <line x1="209.92" x2="212.8" y1="176.45" y2="176.45" stroke="#fff" stroke-linecap="round" stroke-width=".432"/>
     <line x1="215.32" x2="215.32" y1="169.96" y2="170.68" stroke="#fff" stroke-linecap="round" stroke-width=".432"/>
     <line x1="215.32" x2="215.32" y1="165.64" y2="164.92" stroke="#fff" stroke-linecap="round" stroke-width=".432"/>
     <line x1="198.04" x2="198.04" y1="169.96" y2="170.68" stroke="#fff" stroke-linecap="round" stroke-width=".432"/>
     <line x1="198.04" x2="198.04" y1="165.64" y2="164.92" stroke="#fff" stroke-linecap="round" stroke-width=".432"/>
     <circle cx="206.68" cy="167.8" r="5.04" fill="none" stroke="#fff" stroke-width=".432"/>
     <circle cx="206.68" cy="167.8" r=".72" fill="none" stroke="#fff" stroke-width=".432"/>
    </g>
   </g>
   <g>
    <title>element:IC1</title>
    <g>
     <title>package:DIL28-3-ROUND</title>
     <line x1="110.56" x2="110.56" y1="156.64" y2="150.52" stroke="#fff" stroke-linecap="round" stroke-width=".432"/>
     <path d="m110.56 156.64a1.8 1.8 0 1 0 0 3.6" fill="none" stroke="#fff" stroke-width=".432"/>
     <line x1="110.56" x2="5.4369" y1="150.52" y2="150.52" stroke="#fff" stroke-linecap="round" stroke-width=".432"/>
     <line x1="110.56" x2="110.56" y1="166.37" y2="160.24" stroke="#fff" stroke-linecap="round" stroke-width=".432"/>
     <line x1="110.56" x2="5.4369" y1="166.37" y2="166.37" stroke="#fff" stroke-linecap="round" stroke-width=".432"/>
     <line x1="5.4369" x2="5.4369" y1="166.37" y2="150.52" stroke="#fff" stroke-linecap="round" stroke-width=".432"/>
    </g>
   </g>
   <g>
    <title>element:LEFT</title>
    <g>
     <title>package:B3F-10XX</title>
     <line x1="177.16" x2="177.16" y1="167.09" y2="166.37" stroke="#fff" stroke-linecap="round" stroke-width=".432"/>
     <line x1="177.16" x2="181.48" y1="167.09" y2="167.09" stroke="#fff" stroke-linecap="round" stroke-width=".432"/>
     <line x1="181.48" x2="181.48" y1="166.37" y2="167.09" stroke="#fff" stroke-linecap="round" stroke-width=".432"/>
     <line x1="181.48" x2="181.48" y1="148.37" y2="149.09" stroke="#fff" stroke-linecap="round" stroke-width=".432"/>
     <line x1="181.48" x2="177.16" y1="148.37" y2="148.37" stroke="#fff" stroke-linecap="round" stroke-width=".432"/>
     <line x1="177.16" x2="177.16" y1="149.09" y2="148.37" stroke="#fff" stroke-linecap="round" stroke-width=".432"/>
     <line x1="187.96" x2="187.24" y1="154.12" y2="154.12" stroke="#fff" stroke-linecap="round" stroke-width=".144"/>
     <line x1="187.24" x2="187.24" y1="161.32" y2="154.12" stroke="#fff" stroke-linecap="round" stroke-width=".144"/>
     <line x1="187.24" x2="187.96" y1="161.32" y2="161.32" stroke="#fff" stroke-linecap="round" stroke-width=".144"/>
     <line x1="171.4" x2="171.4" y1="160.96" y2="154.12" stroke="#fff" stroke-linecap="round" stroke-width=".144"/>
     <line x1="171.4" x2="170.68" y1="160.96" y2="160.96" stroke="#fff" stroke-linecap="round" stroke-width=".144"/>
     <line x1="171.4" x2="170.68" y1="154.12" y2="154.12" stroke="#fff" stroke-linecap="round" stroke-width=".144"/>
     <line x1="170.68" x2="170.68" y1="151.6" y2="154.12" stroke="#fff" stroke-linecap="round" stroke-width=".432"/>
     <line x1="187.96" x2="187.96" y1="163.84" y2="161.32" stroke="#fff" stroke-linecap="round" stroke-width=".432"/>
     <line x1="187.96" x2="187.96" y1="161.32" y2="154.12" stroke="#fff" stroke-linecap="round" stroke-width=".432"/>
     <line x1="187.96" x2="187.96" y1="154.12" y2="151.6" stroke="#fff" stroke-linecap="round" stroke-width=".432"/>
     <line x1="170.68" x2="170.68" y1="154.12" y2="160.96" stroke="#fff" stroke-linecap="round" stroke-width=".432"/>
     <line x1="170.68" x2="170.68" y1="160.96" y2="163.84" stroke="#fff" stroke-linecap="round" stroke-width=".432"/>
     <line x1="177.16" x2="176.44" y1="166.37" y2="166.37" stroke="#fff" stroke-linecap="round" stroke-width=".432"/>
     <line x1="181.48" x2="182.2" y1="166.37" y2="166.37" stroke="#fff" stroke-linecap="round" stroke-width=".432"/>
     <line x1="177.16" x2="176.44" y1="149.09" y2="149.09" stroke="#fff" stroke-linecap="round" stroke-width=".432"/>
     <line x1="181.48" x2="182.2" y1="149.09" y2="149.09" stroke="#fff" stroke-linecap="round" stroke-width=".432"/>
     <circle cx="179.32" cy="157.73" r="5.04" fill="none" stroke="#fff" stroke-width=".432"/>
     <circle cx="179.32" cy="157.73" r=".72" fill="none" stroke="#fff" stroke-width=".432"/>
    </g>
   </g>
   <g>
    <title>element:RIGHT</title>
    <g>
     <title>package:B3F-10XX</title>
     <line x1="234.76" x2="234.76" y1="149.09" y2="149.8" stroke="#fff" stroke-linecap="round" stroke-width=".432"/>
     <line x1="234.76" x2="230.44" y1="149.09" y2="149.09" stroke="#fff" stroke-linecap="round" stroke-width=".432"/>
     <line x1="230.44" x2="230.44" y1="149.8" y2="149.09" stroke="#fff" stroke-linecap="round" stroke-width=".432"/>
     <line x1="230.44" x2="230.44" y1="167.8" y2="167.09" stroke="#fff" stroke-linecap="round" stroke-width=".432"/>
     <line x1="230.44" x2="234.76" y1="167.8" y2="167.8" stroke="#fff" stroke-linecap="round" stroke-width=".432"/>
     <line x1="234.76" x2="234.76" y1="167.09" y2="167.8" stroke="#fff" stroke-linecap="round" stroke-width=".432"/>
     <line x1="223.96" x2="224.68" y1="162.04" y2="162.04" stroke="#fff" stroke-linecap="round" stroke-width=".144"/>
     <line x1="224.68" x2="224.68" y1="154.84" y2="162.04" stroke="#fff" stroke-linecap="round" stroke-width=".144"/>
     <line x1="224.68" x2="223.96" y1="154.84" y2="154.84" stroke="#fff" stroke-linecap="round" stroke-width=".144"/>
     <line x1="240.52" x2="240.52" y1="155.2" y2="162.04" stroke="#fff" stroke-linecap="round" stroke-width=".144"/>
     <line x1="240.52" x2="241.24" y1="155.2" y2="155.2" stroke="#fff" stroke-linecap="round" stroke-width=".144"/>
     <line x1="240.52" x2="241.24" y1="162.04" y2="162.04" stroke="#fff" stroke-linecap="round" stroke-width=".144"/>
     <line x1="241.24" x2="241.24" y1="164.56" y2="162.04" stroke="#fff" stroke-linecap="round" stroke-width=".432"/>
     <line x1="223.96" x2="223.96" y1="152.32" y2="154.84" stroke="#fff" stroke-linecap="round" stroke-width=".432"/>
     <line x1="223.96" x2="223.96" y1="154.84" y2="162.04" stroke="#fff" stroke-linecap="round" stroke-width=".432"/>
     <line x1="223.96" x2="223.96" y1="162.04" y2="164.56" stroke="#fff" stroke-linecap="round" stroke-width=".432"/>
     <line x1="241.24" x2="241.24" y1="162.04" y2="155.2" stroke="#fff" stroke-linecap="round" stroke-width=".432"/>
     <line x1="241.24" x2="241.24" y1="155.2" y2="152.32" stroke="#fff" stroke-linecap="round" stroke-width=".432"/>
     <line x1="234.76" x2="235.48" y1="149.8" y2="149.8" stroke="#fff" stroke-linecap="round" stroke-width=".432"/>
     <line x1="230.44" x2="229.72" y1="149.8" y2="149.8" stroke="#fff" stroke-linecap="round" stroke-width=".432"/>
     <line x1="234.76" x2="235.48" y1="167.09" y2="167.09" stroke="#fff" stroke-linecap="round" stroke-width=".432"/>
     <line x1="230.44" x2="229.72" y1="167.09" y2="167.09" stroke="#fff" stroke-linecap="round" stroke-width=".432"/>
     <circle cx="232.6" cy="158.45" r="5.04" fill="none" stroke="#fff" stroke-width=".432"/>
     <circle cx="232.6" cy="158.45" r=".72" fill="none" stroke="#fff" stroke-width=".432"/>
    </g>
   </g>
   <g>
    <title>element:SELECT</title>
    <g>
     <title>package:B3F-10XX</title>
     <line x1="160.6" x2="159.88" y1="159.16" y2="159.16" stroke="#fff" stroke-linecap="round" stroke-width=".432"/>
     <line x1="160.6" x2="160.6" y1="159.16" y2="154.84" stroke="#fff" stroke-linecap="round" stroke-width=".432"/>
     <line x1="159.88" x2="160.6" y1="154.84" y2="154.84" stroke="#fff" stroke-linecap="round" stroke-width=".432"/>
     <line x1="141.88" x2="142.6" y1="154.84" y2="154.84" stroke="#fff" stroke-linecap="round" stroke-width=".432"/>
     <line x1="141.88" x2="141.88" y1="154.84" y2="159.16" stroke="#fff" stroke-linecap="round" stroke-width=".432"/>
     <line x1="142.6" x2="141.88" y1="159.16" y2="159.16" stroke="#fff" stroke-linecap="round" stroke-width=".432"/>
     <line x1="147.64" x2="147.64" y1="148.37" y2="149.09" stroke="#fff" stroke-linecap="round" stroke-width=".144"/>
     <line x1="154.84" x2="147.64" y1="149.09" y2="149.09" stroke="#fff" stroke-linecap="round" stroke-width=".144"/>
     <line x1="154.84" x2="154.84" y1="149.09" y2="148.37" stroke="#fff" stroke-linecap="round" stroke-width=".144"/>
     <line x1="154.48" x2="147.64" y1="164.92" y2="164.92" stroke="#fff" stroke-linecap="round" stroke-width=".144"/>
     <line x1="154.48" x2="154.48" y1="164.92" y2="165.64" stroke="#fff" stroke-linecap="round" stroke-width=".144"/>
     <line x1="147.64" x2="147.64" y1="164.92" y2="165.64" stroke="#fff" stroke-linecap="round" stroke-width=".144"/>
     <line x1="145.12" x2="147.64" y1="165.64" y2="165.64" stroke="#fff" stroke-linecap="round" stroke-width=".432"/>
     <line x1="157.36" x2="154.84" y1="148.37" y2="148.37" stroke="#fff" stroke-linecap="round" stroke-width=".432"/>
     <line x1="154.84" x2="147.64" y1="148.37" y2="148.37" stroke="#fff" stroke-linecap="round" stroke-width=".432"/>
     <line x1="147.64" x2="145.12" y1="148.37" y2="148.37" stroke="#fff" stroke-linecap="round" stroke-width=".432"/>
     <line x1="147.64" x2="154.48" y1="165.64" y2="165.64" stroke="#fff" stroke-linecap="round" stroke-width=".432"/>
     <line x1="154.48" x2="157.36" y1="165.64" y2="165.64" stroke="#fff" stroke-linecap="round" stroke-width=".432"/>
     <line x1="159.88" x2="159.88" y1="159.16" y2="159.88" stroke="#fff" stroke-linecap="round" stroke-width=".432"/>
     <line x1="159.88" x2="159.88" y1="154.84" y2="154.12" stroke="#fff" stroke-linecap="round" stroke-width=".432"/>
     <line x1="142.6" x2="142.6" y1="159.16" y2="159.88" stroke="#fff" stroke-linecap="round" stroke-width=".432"/>
     <line x1="142.6" x2="142.6" y1="154.84" y2="154.12" stroke="#fff" stroke-linecap="round" stroke-width=".432"/>
     <circle cx="151.24" cy="157" r="5.04" fill="none" stroke="#fff" stroke-width=".432"/>
     <circle cx="151.24" cy="157" r=".72" fill="none" stroke="#fff" stroke-width=".432"/>
    </g>
   </g>
   <g>
    <title>element:TM1</title>
    <g>
     <title>package:6MM</title>
     <line x1="122.8" x2="126.4" y1="159.52" y2="155.92" stroke="#fff" stroke-linecap="round" stroke-width="1.728"/>
     <line x1="128.2" x2="128.56" y1="154.12" y2="153.76" stroke="#fff" stroke-linecap="round" stroke-width=".432"/>
     <line x1="121" x2="120.64" y1="154.12" y2="153.76" stroke="#fff" stroke-linecap="round" stroke-width=".432"/>
     <line x1="121" x2="120.64" y1="161.32" y2="161.68" stroke="#fff" stroke-linecap="round" stroke-width=".432"/>
     <line x1="128.2" x2="128.56" y1="161.32" y2="161.68" stroke="#fff" stroke-linecap="round" stroke-width=".432"/>
     <path d="m115.42 159.56a9.3597 9.3597 0 0 0 9.178 7.524" fill="none" stroke="#fff" stroke-width=".432"/>
     <path d="m124.6 167.08a9.36 9.36 0 0 0 9.191-7.592" fill="none" stroke="#fff" stroke-width=".432"/>
     <path d="m122.08 148.72a9.3462 9.3462 0 0 0-6.63 7.094" fill="none" stroke="#fff" stroke-width=".432"/>
     <path d="m133.75 155.82a9.3462 9.3462 0 0 0-6.629-7.094" fill="none" stroke="#fff" stroke-width=".432"/>
     <circle cx="124.6" cy="157.73" r="3.96" fill="none" stroke="#fff" stroke-width=".432"/>
    </g>
   </g>
   <g>
    <title>element:U$1</title>
    <g>
     <title>package:LCD1602-RGB</title>
     <line x1="11.571" x2="238.34" y1="138.55" y2="138.55" stroke="#fff" stroke-linecap="round" stroke-width=".36"/>
     <line x1="238.34" x2="238.34" y1="138.55" y2="36.502" stroke="#fff" stroke-linecap="round" stroke-width=".36"/>
     <line x1="238.34" x2="11.571" y1="36.502" y2="36.502" stroke="#fff" stroke-linecap="round" stroke-width=".36"/>
     <line x1="11.571" x2="11.571" y1="36.502" y2="138.55" stroke="#fff" stroke-linecap="round" stroke-width=".36"/>
     <line x1="23.902" x2="226.01" y1="50.25" y2="50.25" stroke="#fff" stroke-linecap="round" stroke-width=".36"/>
     <line x1="226.01" x2="226.01" y1="50.25" y2="124.8" stroke="#fff" stroke-linecap="round" stroke-width=".36"/>
     <line x1="226.01" x2="23.902" y1="124.8" y2="124.8" stroke="#fff" stroke-linecap="round" stroke-width=".36"/>
     <line x1="23.902" x2="23.902" y1="124.8" y2="50.25" stroke="#fff" stroke-linecap="round" stroke-width=".36"/>
     <line x1="34.957" x2="214.96" y1="55.675" y2="55.675" stroke="#fff" stroke-linecap="round" stroke-width=".36"/>
     <line x1="214.96" x2="214.96" y1="55.675" y2="58.51" stroke="#fff" stroke-linecap="round" stroke-width=".36"/>
     <line x1="214.96" x2="34.957" y1="58.51" y2="58.51" stroke="#fff" stroke-linecap="round" stroke-width=".36"/>
     <line x1="34.957" x2="34.957" y1="58.51" y2="55.675" stroke="#fff" stroke-linecap="round" stroke-width=".36"/>
     <line x1="34.957" x2="214.96" y1="118.85" y2="118.85" stroke="#fff" stroke-linecap="round" stroke-width=".36"/>
     <line x1="214.96" x2="214.96" y1="118.85" y2="116.01" stroke="#fff" stroke-linecap="round" stroke-width=".36"/>
     <line x1="214.96" x2="34.957" y1="116.01" y2="116.01" stroke="#fff" stroke-linecap="round" stroke-width=".36"/>
     <line x1="34.957" x2="34.957" y1="116.01" y2="118.85" stroke="#fff" stroke-linecap="round" stroke-width=".36"/>
     <path d="m41.658 64.899a7.6558 7.6558 0 0 0-6.7011 8.5041" fill="none" stroke="#fff" stroke-width=".36"/>
     <line x1="34.957" x2="34.957" y1="73.403" y2="101.84" stroke="#fff" stroke-linecap="round" stroke-width=".36"/>
     <path d="m34.957 101.84a7.6558 7.6558 0 0 0 6.7011 8.504" fill="none" stroke="#fff" stroke-width=".36"/>
     <line x1="41.658" x2="207.51" y1="110.34" y2="110.34" stroke="#fff" stroke-linecap="round" stroke-width=".36"/>
     <path d="m207.51 110.34a7.9941 7.9941 0 0 0 7.449-8.504" fill="none" stroke="#fff" stroke-width=".36"/>
     <line x1="214.96" x2="214.96" y1="101.84" y2="73.403" stroke="#fff" stroke-linecap="round" stroke-width=".36"/>
     <path d="m214.96 73.403a7.9941 7.9941 0 0 0-7.449-8.5041" fill="none" stroke="#fff" stroke-width=".36"/>
     <line x1="207.51" x2="41.658" y1="64.899" y2="64.899" stroke="#fff" stroke-linecap="round" stroke-width=".36"/>
    </g>
   </g>
   <g>
    <title>element:U$4</title>
    <g>
     <title>package:RASBERRYPI_SHIELD</title>
     <line x1="7.5969" x2="7.5969" y1="33.525" y2="22.725" stroke="#fff" stroke-linecap="round" stroke-width=".576"/>
     <line x1="7.5969" x2="9.3969" y1="22.725" y2="20.925" stroke="#fff" stroke-linecap="round" stroke-width=".576"/>
     <line x1="9.3969" x2="12.997" y1="20.925" y2="20.925" stroke="#fff" stroke-linecap="round" stroke-width=".576"/>
     <line x1="12.997" x2="14.797" y1="20.925" y2="22.725" stroke="#fff" stroke-linecap="round" stroke-width=".576"/>
     <line x1="14.797" x2="16.597" y1="22.725" y2="20.925" stroke="#fff" stroke-linecap="round" stroke-width=".576"/>
     <line x1="16.597" x2="20.197" y1="20.925" y2="20.925" stroke="#fff" stroke-linecap="round" stroke-width=".576"/>
     <line x1="20.197" x2="21.997" y1="20.925" y2="22.725" stroke="#fff" stroke-linecap="round" stroke-width=".576"/>
     <line x1="21.997" x2="23.797" y1="22.725" y2="20.925" stroke="#fff" stroke-linecap="round" stroke-width=".576"/>
     <line x1="23.797" x2="27.397" y1="20.925" y2="20.925" stroke="#fff" stroke-linecap="round" stroke-width=".576"/>
     <line x1="27.397" x2="29.197" y1="20.925" y2="22.725" stroke="#fff" stroke-linecap="round" stroke-width=".576"/>
     <line x1="29.197" x2="30.997" y1="22.725" y2="20.925" stroke="#fff" stroke-linecap="round" stroke-width=".576"/>
     <line x1="30.997" x2="34.597" y1="20.925" y2="20.925" stroke="#fff" stroke-linecap="round" stroke-width=".576"/>
     <line x1="34.597" x2="36.397" y1="20.925" y2="22.725" stroke="#fff" stroke-linecap="round" stroke-width=".576"/>
     <line x1="36.397" x2="38.197" y1="22.725" y2="20.925" stroke="#fff" stroke-linecap="round" stroke-width=".576"/>
     <line x1="38.197" x2="41.797" y1="20.925" y2="20.925" stroke="#fff" stroke-linecap="round" stroke-width=".576"/>
     <line x1="41.797" x2="43.597" y1="20.925" y2="22.725" stroke="#fff" stroke-linecap="round" stroke-width=".576"/>
     <line x1="43.597" x2="45.397" y1="22.725" y2="20.925" stroke="#fff" stroke-linecap="round" stroke-width=".576"/>
     <line x1="45.397" x2="48.997" y1="20.925" y2="20.925" stroke="#fff" stroke-linecap="round" stroke-width=".576"/>
     <line x1="48.997" x2="50.797" y1="20.925" y2="22.725" stroke="#fff" stroke-linecap="round" stroke-width=".576"/>
     <line x1="50.797" x2="52.597" y1="22.725" y2="20.925" stroke="#fff" stroke-linecap="round" stroke-width=".576"/>
     <line x1="52.597" x2="56.197" y1="20.925" y2="20.925" stroke="#fff" stroke-linecap="round" stroke-width=".576"/>
     <line x1="56.197" x2="57.997" y1="20.925" y2="22.725" stroke="#fff" stroke-linecap="round" stroke-width=".576"/>
     <line x1="57.997" x2="59.797" y1="22.725" y2="20.925" stroke="#fff" stroke-linecap="round" stroke-width=".576"/>
     <line x1="59.797" x2="63.397" y1="20.925" y2="20.925" stroke="#fff" stroke-linecap="round" stroke-width=".576"/>
     <line x1="63.397" x2="65.197" y1="20.925" y2="22.725" stroke="#fff" stroke-linecap="round" stroke-width=".576"/>
     <line x1="65.197" x2="66.997" y1="22.725" y2="20.925" stroke="#fff" stroke-linecap="round" stroke-width=".576"/>
     <line x1="66.997" x2="70.597" y1="20.925" y2="20.925" stroke="#fff" stroke-linecap="round" stroke-width=".576"/>
     <line x1="70.597" x2="72.397" y1="20.925" y2="22.725" stroke="#fff" stroke-linecap="round" stroke-width=".576"/>
     <line x1="72.397" x2="74.197" y1="22.725" y2="20.925" stroke="#fff" stroke-linecap="round" stroke-width=".576"/>
     <line x1="74.197" x2="77.797" y1="20.925" y2="20.925" stroke="#fff" stroke-linecap="round" stroke-width=".576"/>
     <line x1="77.797" x2="79.597" y1="20.925" y2="22.725" stroke="#fff" stroke-linecap="round" stroke-width=".576"/>
     <line x1="79.597" x2="81.397" y1="22.725" y2="20.925" stroke="#fff" stroke-linecap="round" stroke-width=".576"/>
     <line x1="81.397" x2="84.997" y1="20.925" y2="20.925" stroke="#fff" stroke-linecap="round" stroke-width=".576"/>
     <line x1="84.997" x2="86.797" y1="20.925" y2="22.725" stroke="#fff" stroke-linecap="round" stroke-width=".576"/>
     <line x1="86.797" x2="88.597" y1="22.725" y2="20.925" stroke="#fff" stroke-linecap="round" stroke-width=".576"/>
     <line x1="88.597" x2="92.197" y1="20.925" y2="20.925" stroke="#fff" stroke-linecap="round" stroke-width=".576"/>
     <line x1="93.997" x2="92.197" y1="22.725" y2="20.925" stroke="#fff" stroke-linecap="round" stroke-width=".576"/>
     <line x1="93.997" x2="95.797" y1="22.725" y2="20.925" stroke="#fff" stroke-linecap="round" stroke-width=".576"/>
     <line x1="99.397" x2="95.797" y1="20.925" y2="20.925" stroke="#fff" stroke-linecap="round" stroke-width=".576"/>
     <line x1="99.397" x2="101.2" y1="20.925" y2="22.725" stroke="#fff" stroke-linecap="round" stroke-width=".576"/>
     <line x1="14.797" x2="14.797" y1="22.725" y2="33.525" stroke="#fff" stroke-linecap="round" stroke-width=".576"/>
     <line x1="21.997" x2="21.997" y1="22.725" y2="33.525" stroke="#fff" stroke-linecap="round" stroke-width=".576"/>
     <line x1="29.197" x2="29.197" y1="22.725" y2="33.525" stroke="#fff" stroke-linecap="round" stroke-width=".576"/>
     <line x1="36.397" x2="36.397" y1="22.725" y2="33.525" stroke="#fff" stroke-linecap="round" stroke-width=".576"/>
     <line x1="43.597" x2="43.597" y1="22.725" y2="33.525" stroke="#fff" stroke-linecap="round" stroke-width=".576"/>
     <line x1="50.797" x2="50.797" y1="22.725" y2="33.525" stroke="#fff" stroke-linecap="round" stroke-width=".576"/>
     <line x1="57.997" x2="57.997" y1="22.725" y2="33.525" stroke="#fff" stroke-linecap="round" stroke-width=".576"/>
     <line x1="65.197" x2="65.197" y1="22.725" y2="33.525" stroke="#fff" stroke-linecap="round" stroke-width=".576"/>
     <line x1="72.397" x2="72.397" y1="22.725" y2="33.525" stroke="#fff" stroke-linecap="round" stroke-width=".576"/>
     <line x1="79.597" x2="79.597" y1="22.725" y2="33.525" stroke="#fff" stroke-linecap="round" stroke-width=".576"/>
     <line x1="86.797" x2="86.797" y1="22.725" y2="33.525" stroke="#fff" stroke-linecap="round" stroke-width=".576"/>
     <line x1="93.997" x2="93.997" y1="22.725" y2="33.525" stroke="#fff" stroke-linecap="round" stroke-width=".576"/>
     <line x1="101.2" x2="101.2" y1="22.725" y2="33.525" stroke="#fff" stroke-linecap="round" stroke-width=".576"/>
     <line x1="101.2" x2="101.2" y1="22.725" y2="33.525" stroke="#fff" stroke-linecap="round" stroke-width=".576"/>
     <line x1="101.2" x2="99.397" y1="33.525" y2="35.325" stroke="#fff" stroke-linecap="round" stroke-width=".576"/>
     <line x1="99.397" x2="95.797" y1="35.325" y2="35.325" stroke="#fff" stroke-linecap="round" stroke-width=".576"/>
     <line x1="95.797" x2="93.997" y1="35.325" y2="33.525" stroke="#fff" stroke-linecap="round" stroke-width=".576"/>
     <line x1="93.997" x2="92.197" y1="33.525" y2="35.325" stroke="#fff" stroke-linecap="round" stroke-width=".576"/>
     <line x1="92.197" x2="88.597" y1="35.325" y2="35.325" stroke="#fff" stroke-linecap="round" stroke-width=".576"/>
     <line x1="88.597" x2="86.797" y1="35.325" y2="33.525" stroke="#fff" stroke-linecap="round" stroke-width=".576"/>
     <line x1="86.797" x2="84.997" y1="33.525" y2="35.325" stroke="#fff" stroke-linecap="round" stroke-width=".576"/>
     <line x1="84.997" x2="81.397" y1="35.325" y2="35.325" stroke="#fff" stroke-linecap="round" stroke-width=".576"/>
     <line x1="81.397" x2="79.597" y1="35.325" y2="33.525" stroke="#fff" stroke-linecap="round" stroke-width=".576"/>
     <line x1="79.597" x2="77.797" y1="33.525" y2="35.325" stroke="#fff" stroke-linecap="round" stroke-width=".576"/>
     <line x1="77.797" x2="74.197" y1="35.325" y2="35.325" stroke="#fff" stroke-linecap="round" stroke-width=".576"/>
     <line x1="74.197" x2="72.397" y1="35.325" y2="33.525" stroke="#fff" stroke-linecap="round" stroke-width=".576"/>
     <line x1="72.397" x2="70.597" y1="33.525" y2="35.325" stroke="#fff" stroke-linecap="round" stroke-width=".576"/>
     <line x1="70.597" x2="66.997" y1="35.325" y2="35.325" stroke="#fff" stroke-linecap="round" stroke-width=".576"/>
     <line x1="66.997" x2="65.197" y1="35.325" y2="33.525" stroke="#fff" stroke-linecap="round" stroke-width=".576"/>
     <line x1="65.197" x2="63.397" y1="33.525" y2="35.325" stroke="#fff" stroke-linecap="round" stroke-width=".576"/>
     <line x1="63.397" x2="59.797" y1="35.325" y2="35.325" stroke="#fff" stroke-linecap="round" stroke-width=".576"/>
     <line x1="59.797" x2="57.997" y1="35.325" y2="33.525" stroke="#fff" stroke-linecap="round" stroke-width=".576"/>
     <line x1="57.997" x2="56.197" y1="33.525" y2="35.325" stroke="#fff" stroke-linecap="round" stroke-width=".576"/>
     <line x1="56.197" x2="52.597" y1="35.325" y2="35.325" stroke="#fff" stroke-linecap="round" stroke-width=".576"/>
     <line x1="52.597" x2="50.797" y1="35.325" y2="33.525" stroke="#fff" stroke-linecap="round" stroke-width=".576"/>
     <line x1="50.797" x2="48.997" y1="33.525" y2="35.325" stroke="#fff" stroke-linecap="round" stroke-width=".576"/>
     <line x1="48.997" x2="45.397" y1="35.325" y2="35.325" stroke="#fff" stroke-linecap="round" stroke-width=".576"/>
     <line x1="45.397" x2="43.597" y1="35.325" y2="33.525" stroke="#fff" stroke-linecap="round" stroke-width=".576"/>
     <line x1="43.597" x2="41.797" y1="33.525" y2="35.325" stroke="#fff" stroke-linecap="round" stroke-width=".576"/>
     <line x1="41.797" x2="38.197" y1="35.325" y2="35.325" stroke="#fff" stroke-linecap="round" stroke-width=".576"/>
     <line x1="38.197" x2="36.397" y1="35.325" y2="33.525" stroke="#fff" stroke-linecap="round" stroke-width=".576"/>
     <line x1="36.397" x2="34.597" y1="33.525" y2="35.325" stroke="#fff" stroke-linecap="round" stroke-width=".576"/>
     <line x1="34.597" x2="30.997" y1="35.325" y2="35.325" stroke="#fff" stroke-linecap="round" stroke-width=".576"/>
     <line x1="30.997" x2="29.197" y1="35.325" y2="33.525" stroke="#fff" stroke-linecap="round" stroke-width=".576"/>
     <line x1="29.197" x2="27.397" y1="33.525" y2="35.325" stroke="#fff" stroke-linecap="round" stroke-width=".576"/>
     <line x1="27.397" x2="23.797" y1="35.325" y2="35.325" stroke="#fff" stroke-linecap="round" stroke-width=".576"/>
     <line x1="23.797" x2="21.997" y1="35.325" y2="33.525" stroke="#fff" stroke-linecap="round" stroke-width=".576"/>
     <line x1="21.997" x2="20.197" y1="33.525" y2="35.325" stroke="#fff" stroke-linecap="round" stroke-width=".576"/>
     <line x1="20.197" x2="16.597" y1="35.325" y2="35.325" stroke="#fff" stroke-linecap="round" stroke-width=".576"/>
     <line x1="14.797" x2="16.597" y1="33.525" y2="35.325" stroke="#fff" stroke-linecap="round" stroke-width=".576"/>
     <line x1="14.797" x2="12.997" y1="33.525" y2="35.325" stroke="#fff" stroke-linecap="round" stroke-width=".576"/>
     <line x1="9.3969" x2="12.997" y1="35.325" y2="35.325" stroke="#fff" stroke-linecap="round" stroke-width=".576"/>
     <line x1="9.3969" x2="7.5969" y1="35.325" y2="33.525" stroke="#fff" stroke-linecap="round" stroke-width=".576"/>
     <line x1="93.997" x2="93.997" y1="33.525" y2="22.725" stroke="#fff" stroke-linecap="round" stroke-width=".576"/>
     <line x1="86.797" x2="86.797" y1="33.525" y2="22.725" stroke="#fff" stroke-linecap="round" stroke-width=".576"/>
     <line x1="79.597" x2="79.597" y1="33.525" y2="22.725" stroke="#fff" stroke-linecap="round" stroke-width=".576"/>
     <line x1="72.397" x2="72.397" y1="33.525" y2="22.725" stroke="#fff" stroke-linecap="round" stroke-width=".576"/>
     <line x1="65.197" x2="65.197" y1="33.525" y2="22.725" stroke="#fff" stroke-linecap="round" stroke-width=".576"/>
     <line x1="57.997" x2="57.997" y1="33.525" y2="22.725" stroke="#fff" stroke-linecap="round" stroke-width=".576"/>
     <line x1="50.797" x2="50.797" y1="33.525" y2="22.725" stroke="#fff" stroke-linecap="round" stroke-width=".576"/>
     <line x1="43.597" x2="43.597" y1="33.525" y2="22.725" stroke="#fff" stroke-linecap="round" stroke-width=".576"/>
     <line x1="36.397" x2="36.397" y1="33.525" y2="22.725" stroke="#fff" stroke-linecap="round" stroke-width=".576"/>
     <line x1="29.197" x2="29.197" y1="33.525" y2="22.725" stroke="#fff" stroke-linecap="round" stroke-width=".576"/>
     <line x1="21.997" x2="21.997" y1="33.525" y2="22.725" stroke="#fff" stroke-linecap="round" stroke-width=".576"/>
     <line x1="14.797" x2="14.797" y1="33.525" y2="22.725" stroke="#fff" stroke-linecap="round" stroke-width=".576"/>
     <line x1="7.5969" x2="7.5969" y1="33.525" y2="22.725" stroke="#fff" stroke-linecap="round" stroke-width=".576"/>
    </g>
   </g>
   <g>
    <title>element:UP</title>
    <g>
     <title>package:B3F-10XX</title>
     <line x1="216.04" x2="215.32" y1="151.24" y2="151.24" stroke="#fff" stroke-linecap="round" stroke-width=".432"/>
     <line x1="216.04" x2="216.04" y1="151.24" y2="146.92" stroke="#fff" stroke-linecap="round" stroke-width=".432"/>
     <line x1="215.32" x2="216.04" y1="146.92" y2="146.92" stroke="#fff" stroke-linecap="round" stroke-width=".432"/>
     <line x1="197.32" x2="198.04" y1="146.92" y2="146.92" stroke="#fff" stroke-linecap="round" stroke-width=".432"/>
     <line x1="197.32" x2="197.32" y1="146.92" y2="151.24" stroke="#fff" stroke-linecap="round" stroke-width=".432"/>
     <line x1="198.04" x2="197.32" y1="151.24" y2="151.24" stroke="#fff" stroke-linecap="round" stroke-width=".432"/>
     <line x1="203.08" x2="203.08" y1="140.45" y2="141.16" stroke="#fff" stroke-linecap="round" stroke-width=".144"/>
     <line x1="210.28" x2="203.08" y1="141.16" y2="141.16" stroke="#fff" stroke-linecap="round" stroke-width=".144"/>
     <line x1="210.28" x2="210.28" y1="141.16" y2="140.45" stroke="#fff" stroke-linecap="round" stroke-width=".144"/>
     <line x1="209.92" x2="203.08" y1="157" y2="157" stroke="#fff" stroke-linecap="round" stroke-width=".144"/>
     <line x1="209.92" x2="209.92" y1="157" y2="157.73" stroke="#fff" stroke-linecap="round" stroke-width=".144"/>
     <line x1="203.08" x2="203.08" y1="157" y2="157.73" stroke="#fff" stroke-linecap="round" stroke-width=".144"/>
     <line x1="200.56" x2="203.08" y1="157.73" y2="157.73" stroke="#fff" stroke-linecap="round" stroke-width=".432"/>
     <line x1="212.8" x2="210.28" y1="140.45" y2="140.45" stroke="#fff" stroke-linecap="round" stroke-width=".432"/>
     <line x1="210.28" x2="203.08" y1="140.45" y2="140.45" stroke="#fff" stroke-linecap="round" stroke-width=".432"/>
     <line x1="203.08" x2="200.56" y1="140.45" y2="140.45" stroke="#fff" stroke-linecap="round" stroke-width=".432"/>
     <line x1="203.08" x2="209.92" y1="157.73" y2="157.73" stroke="#fff" stroke-linecap="round" stroke-width=".432"/>
     <line x1="209.92" x2="212.8" y1="157.73" y2="157.73" stroke="#fff" stroke-linecap="round" stroke-width=".432"/>
     <line x1="215.32" x2="215.32" y1="151.24" y2="151.96" stroke="#fff" stroke-linecap="round" stroke-width=".432"/>
     <line x1="215.32" x2="215.32" y1="146.92" y2="146.2" stroke="#fff" stroke-linecap="round" stroke-width=".432"/>
     <line x1="198.04" x2="198.04" y1="151.24" y2="151.96" stroke="#fff" stroke-linecap="round" stroke-width=".432"/>
     <line x1="198.04" x2="198.04" y1="146.92" y2="146.2" stroke="#fff" stroke-linecap="round" stroke-width=".432"/>
     <circle cx="206.68" cy="149.09" r="5.04" fill="none" stroke="#fff" stroke-width=".432"/>
     <circle cx="206.68" cy="149.09" r=".72" fill="none" stroke="#fff" stroke-width=".432"/>
    </g>
   </g>
  </g>
  <g id="copper1">
   <g id="copper0" fill="none" stroke="#f7bd13" stroke-width=".95868">
    <circle id="connector81pad" cx="47.197" cy="31.725" r="1.8967" connectorname="GPIO17"/>
    <circle id="connector73pad" cx="18.397" cy="31.725" r="1.8967" connectorname="SDA"/>
    <circle id="connector89pad" cx="75.997" cy="31.725" r="1.8967" connectorname="MOSI"/>
    <circle id="connector77pad" cx="32.797" cy="31.725" r="1.8967" connectorname="GPIO4"/>
    <circle id="connector85pad" cx="61.597" cy="31.725" r="1.8967" connectorname="GPIO22"/>
    <circle id="connector93pad" cx="90.397" cy="31.725" r="1.8967" connectorname="SCK"/>
    <circle id="connector71pad" cx="11.197" cy="31.725" r="1.8967" connectorname="3.3V"/>
    <rect x="9.3002" y="29.829" width="3.7933" height="3.7933"/>
    <circle id="connector75pad" cx="25.597" cy="31.725" r="1.8967" connectorname="SCL"/>
    <circle id="connector79pad" cx="39.997" cy="31.725" r="1.8967" connectorname="GND"/>
    <circle id="connector83pad" cx="54.397" cy="31.725" r="1.8967" connectorname="GPIO27"/>
    <circle id="connector87pad" cx="68.797" cy="31.725" r="1.8967" connectorname="3.3V"/>
    <circle id="connector91pad" cx="83.197" cy="31.725" r="1.8967" connectorname="MISO"/>
    <circle id="connector95pad" cx="97.597" cy="31.725" r="1.8967" connectorname="GND"/>
    <circle id="connector72pad" cx="11.197" cy="24.525" r="1.8967" connectorname="+5V"/>
    <circle id="connector74pad" cx="18.397" cy="24.525" r="1.8967" connectorname="+5V"/>
    <circle id="connector76pad" cx="25.597" cy="24.525" r="1.8967" connectorname="GND"/>
    <circle id="connector78pad" cx="32.797" cy="24.525" r="1.8967" connectorname="TXD"/>
    <circle id="connector80pad" cx="39.997" cy="24.525" r="1.8967" connectorname="RXD"/>
    <circle id="connector82pad" cx="47.197" cy="24.525" r="1.8967" connectorname="GPIO18"/>
    <circle id="connector84pad" cx="54.397" cy="24.525" r="1.8967" connectorname="GND"/>
    <circle id="connector86pad" cx="61.597" cy="24.525" r="1.8967" connectorname="GPIO23"/>
    <circle id="connector88pad" cx="68.797" cy="24.525" r="1.8967" connectorname="GPIO24"/>
    <circle id="connector90pad" cx="75.997" cy="24.525" r="1.8967" connectorname="GND"/>
    <circle id="connector92pad" cx="83.197" cy="24.525" r="1.8967" connectorname="GPIO25"/>
    <circle id="connector94pad" cx="90.397" cy="24.525" r="1.8967" connectorname="SPI_CE0"/>
    <circle id="connector96pad" cx="97.597" cy="24.525" r="1.8967" connectorname="SPI_CE1"/>
   </g>
  </g>
 </g>
</svg>
