<?xml version="1.0" encoding="UTF-8"?>
<!-- Created with Fritzing (http://www.fritzing.org/) -->
<svg width=".8in" height="1.4in" baseProfile="tiny" version="1.2" viewBox="0 0 57.6 100.8" xmlns="http://www.w3.org/2000/svg">
 <desc>
  <referenceFile>Adafruit HT16K33 Breakout 16x8 LED Matrix Driver_pcb.svg</referenceFile>
 </desc>
 <desc>Fritzing footprint generated by brd2svg</desc>
 <g id="silkscreen">
  <path d="m3.852 0.288h49.896a3.312 3.312 0 0 1 3.564 3.5794v93.065a3.312 3.312 0 0 1-3.564 3.5791h-49.896a3.312 3.312 0 0 1-3.564-3.5791v-93.065a3.312 3.312 0 0 1 3.564-3.5794" fill="none" stroke="#fff" stroke-width=".576"/>
  <g>
   <title>element:JP1</title>
   <g>
    <title>package:1X14-CB</title>
   </g>
  </g>
  <g>
   <title>element:JP2</title>
   <g>
    <title>package:1X14-CB</title>
   </g>
  </g>
  <g>
   <title>element:U2</title>
   <g>
    <title>package:SOP28_300MIL</title>
    <line x1="39.6" x2="39.6" y1="67.392" y2="16.128" stroke="#fff" stroke-linecap="round" stroke-width=".36"/>
    <line x1="39.6" x2="18" y1="16.128" y2="16.128" stroke="#fff" stroke-linecap="round" stroke-width=".36"/>
    <line x1="18" x2="39.6" y1="67.392" y2="67.392" stroke="#fff" stroke-linecap="round" stroke-width=".36"/>
    <line x1="18" x2="18" y1="16.128" y2="67.392" stroke="#fff" stroke-linecap="round" stroke-width=".36"/>
    <circle cx="22.32" cy="20.16" r=".72" fill="none" stroke="#fff" stroke-width="2.304"/>
   </g>
  </g>
 </g>
 <g id="copper1">
  <g id="copper0" fill="none" stroke="#F7BD13">
   <circle id="connector15pad" cx="54" cy="97.2" r="1.98" stroke-width="1.08" connectorname="A10"/>
   <circle id="connector16pad" cx="54" cy="90" r="1.98" stroke-width="1.08" connectorname="A9"/>
   <circle id="connector17pad" cx="54" cy="82.8" r="1.98" stroke-width="1.08" connectorname="A8"/>
   <circle id="connector56pad" cx="28.8" cy="93.6" r="4.2633" stroke-width="1.44" connectorname="P$1"/>
   <circle id="connector18pad" cx="54" cy="75.6" r="1.98" stroke-width="1.08" connectorname="A7"/>
   <circle id="connector19pad" cx="54" cy="68.4" r="1.98" stroke-width="1.08" connectorname="A6"/>
   <circle id="connector20pad" cx="54" cy="61.2" r="1.98" stroke-width="1.08" connectorname="A5"/>
   <circle id="connector21pad" cx="54" cy="54" r="1.98" stroke-width="1.08" connectorname="A4"/>
   <circle id="connector22pad" cx="54" cy="46.8" r="1.98" stroke-width="1.08" connectorname="A3"/>
   <circle id="connector23pad" cx="54" cy="39.6" r="1.98" stroke-width="1.08" connectorname="A0"/>
   <circle id="connector24pad" cx="54" cy="32.4" r="1.98" stroke-width="1.08" connectorname="A1"/>
   <circle id="connector25pad" cx="54" cy="25.2" r="1.98" stroke-width="1.08" connectorname="A2"/>
   <circle id="connector26pad" cx="54" cy="18" r="1.98" stroke-width="1.08" connectorname="SCL"/>
   <circle id="connector27pad" cx="54" cy="10.8" r="1.98" stroke-width="1.08" connectorname="SDA"/>
   <circle id="connector28pad" cx="54" cy="3.6" r="1.98" stroke-width="1.08" connectorname="VDD"/>
   <circle id="connector29pad" cx="3.6" cy="3.6" r="1.98" stroke-width="1.08" connectorname="GND"/>
   <circle id="connector55pad" cx="28.8" cy="7.2" r="4.2633" stroke-width="1.44" connectorname="P$1"/>
   <circle id="connector30pad" cx="3.6" cy="10.8" r="1.98" stroke-width="1.08" connectorname="C0"/>
   <circle id="connector31pad" cx="3.6" cy="18" r="1.98" stroke-width="1.08" connectorname="C1"/>
   <circle id="connector32pad" cx="3.6" cy="25.2" r="1.98" stroke-width="1.08" connectorname="C2"/>
   <circle id="connector33pad" cx="3.6" cy="32.4" r="1.98" stroke-width="1.08" connectorname="C3"/>
   <circle id="connector34pad" cx="3.6" cy="39.6" r="1.98" stroke-width="1.08" connectorname="C4"/>
   <circle id="connector35pad" cx="3.6" cy="46.8" r="1.98" stroke-width="1.08" connectorname="C5"/>
   <circle id="connector36pad" cx="3.6" cy="54" r="1.98" stroke-width="1.08" connectorname="C6"/>
   <circle id="connector37pad" cx="3.6" cy="61.2" r="1.98" stroke-width="1.08" connectorname="C7"/>
   <circle id="connector38pad" cx="3.6" cy="68.4" r="1.98" stroke-width="1.08" connectorname="A15"/>
   <circle id="connector39pad" cx="3.6" cy="75.6" r="1.98" stroke-width="1.08" connectorname="A14"/>
   <circle id="connector40pad" cx="3.6" cy="82.8" r="1.98" stroke-width="1.08" connectorname="A13"/>
   <circle id="connector41pad" cx="3.6" cy="90" r="1.98" stroke-width="1.08" connectorname="A12"/>
   <circle id="connector42pad" cx="3.6" cy="97.2" r="1.98" stroke-width="1.08" connectorname="A11"/>
  </g>
 </g>
</svg>
