<?xml version="1.0" encoding="UTF-8"?>
<!-- Created with Fritzing (http://www.fritzing.org/) -->
<svg width=".7in" height=".8in" baseProfile="tiny" version="1.2" viewBox="0 0 50.4 57.6" xmlns="http://www.w3.org/2000/svg">
 <desc>
  <referenceFile>Adafruit RS232 Pal_pcb.svg</referenceFile>
 </desc>
 <desc>Fritzing footprint generated by brd2svg</desc>
 <g id="silkscreen">
  <path d="m42.994 0.288a6.912 6.912 0 0 1 7.1177 7.128v42.768a6.912 6.912 0 0 1-7.1177 7.128h-35.589a6.912 6.912 0 0 1-7.1177-7.128v-42.768a6.912 6.912 0 0 1 7.1177-7.128h35.589" fill="none" stroke="#fff" stroke-width=".576"/>
  <line x1="3.6" x2="1.8" y1="32.4" y2="30.6" stroke="#fff" stroke-linecap="round" stroke-width=".72"/>
  <line x1="1.8" x2="1.8" y1="30.6" y2="34.2" stroke="#fff" stroke-linecap="round" stroke-width=".72"/>
  <line x1="1.8" x2="3.6" y1="34.2" y2="32.4" stroke="#fff" stroke-linecap="round" stroke-width=".72"/>
  <line x1="1.8" x2="3.6" y1="25.2" y2="27" stroke="#fff" stroke-linecap="round" stroke-width=".72"/>
  <line x1="3.6" x2="3.6" y1="27" y2="23.4" stroke="#fff" stroke-linecap="round" stroke-width=".72"/>
  <line x1="3.6" x2="1.8" y1="23.4" y2="25.2" stroke="#fff" stroke-linecap="round" stroke-width=".72"/>
  <line x1="3.6" x2="1.8" y1="46.8" y2="45" stroke="#fff" stroke-linecap="round" stroke-width=".72"/>
  <line x1="1.8" x2="1.8" y1="45" y2="48.6" stroke="#fff" stroke-linecap="round" stroke-width=".72"/>
  <line x1="1.8" x2="3.6" y1="48.6" y2="46.8" stroke="#fff" stroke-linecap="round" stroke-width=".72"/>
  <line x1="1.8" x2="3.6" y1="39.6" y2="41.4" stroke="#fff" stroke-linecap="round" stroke-width=".72"/>
  <line x1="3.6" x2="3.6" y1="41.4" y2="37.8" stroke="#fff" stroke-linecap="round" stroke-width=".72"/>
  <line x1="3.6" x2="1.8" y1="37.8" y2="39.6" stroke="#fff" stroke-linecap="round" stroke-width=".72"/>
  <line x1="48.6" x2="46.8" y1="32.4" y2="30.6" stroke="#fff" stroke-linecap="round" stroke-width=".72"/>
  <line x1="46.8" x2="46.8" y1="30.6" y2="34.2" stroke="#fff" stroke-linecap="round" stroke-width=".72"/>
  <line x1="46.8" x2="48.6" y1="34.2" y2="32.4" stroke="#fff" stroke-linecap="round" stroke-width=".72"/>
  <line x1="46.8" x2="48.6" y1="25.2" y2="27" stroke="#fff" stroke-linecap="round" stroke-width=".72"/>
  <line x1="48.6" x2="48.6" y1="27" y2="23.4" stroke="#fff" stroke-linecap="round" stroke-width=".72"/>
  <line x1="48.6" x2="46.8" y1="23.4" y2="25.2" stroke="#fff" stroke-linecap="round" stroke-width=".72"/>
  <line x1="48.6" x2="46.8" y1="46.8" y2="45" stroke="#fff" stroke-linecap="round" stroke-width=".72"/>
  <line x1="46.8" x2="46.8" y1="45" y2="48.6" stroke="#fff" stroke-linecap="round" stroke-width=".72"/>
  <line x1="46.8" x2="48.6" y1="48.6" y2="46.8" stroke="#fff" stroke-linecap="round" stroke-width=".72"/>
  <line x1="46.8" x2="48.6" y1="39.6" y2="41.4" stroke="#fff" stroke-linecap="round" stroke-width=".72"/>
  <line x1="48.6" x2="48.6" y1="41.4" y2="37.8" stroke="#fff" stroke-linecap="round" stroke-width=".72"/>
  <line x1="48.6" x2="46.8" y1="37.8" y2="39.6" stroke="#fff" stroke-linecap="round" stroke-width=".72"/>
  <g>
   <title>element:IC2</title>
   <g>
    <title>package:TSSOP16</title>
    <line x1="31.671" x2="31.671" y1="37.008" y2="22.752" stroke="#fff" stroke-linecap="round" stroke-width=".432"/>
    <line x1="18.729" x2="31.671" y1="22.752" y2="22.752" stroke="#fff" stroke-linecap="round" stroke-width=".432"/>
    <line x1="18.729" x2="18.729" y1="22.752" y2="37.008" stroke="#fff" stroke-linecap="round" stroke-width=".432"/>
    <line x1="31.671" x2="18.729" y1="37.008" y2="37.008" stroke="#fff" stroke-linecap="round" stroke-width=".432"/>
    <line x1="31.023" x2="31.023" y1="36.36" y2="23.4" stroke="#fff" stroke-linecap="round" stroke-width=".144"/>
    <line x1="19.377" x2="31.023" y1="23.4" y2="23.4" stroke="#fff" stroke-linecap="round" stroke-width=".144"/>
    <line x1="19.377" x2="19.377" y1="23.4" y2="36.36" stroke="#fff" stroke-linecap="round" stroke-width=".144"/>
    <line x1="31.023" x2="19.377" y1="36.36" y2="36.36" stroke="#fff" stroke-linecap="round" stroke-width=".144"/>
    <circle cx="28.656" cy="34.488" r="1.296" fill="none" stroke="#fff" stroke-width=".432"/>
   </g>
  </g>
  <g>
   <title>element:JP1</title>
   <g>
    <title>package:1X06_ROUND_70</title>
   </g>
  </g>
  <g>
   <title>element:JP2</title>
   <g>
    <title>package:1X06_ROUND_70</title>
   </g>
  </g>
  <g>
   <title>element:PLABEL16</title>
   <g>
    <title>package:PLABEL16</title>
   </g>
  </g>
  <g>
   <title>element:PLABEL17</title>
   <g>
    <title>package:PLABEL17</title>
   </g>
  </g>
  <g>
   <title>element:U$8</title>
   <g>
    <title>package:ADAFRUIT_3.5MM</title>
   </g>
  </g>
 </g>
 <g id="copper1">
  <g id="copper0" fill="none" stroke="#F7BD13">
   <circle id="connector38pad" cx="7.2" cy="10.8" r="1.9687" stroke-width="1.1027" connectorname="VCC"/>
   <circle id="connector46pad" cx="25.2" cy="50.4" r="4.2633" stroke-width="1.44" connectorname="P$1"/>
   <circle id="connector34pad" cx="7.2" cy="39.6" r="1.9687" stroke-width="1.1027" connectorname="R1OUT"/>
   <circle id="connector42pad" cx="43.2" cy="32.4" r="1.9687" stroke-width="1.1027" connectorname="T2OUT"/>
   <circle id="connector36pad" cx="7.2" cy="25.2" r="1.9687" stroke-width="1.1027" connectorname="R2OUT"/>
   <circle id="connector40pad" cx="43.2" cy="18" r="1.9687" stroke-width="1.1027" connectorname="V-"/>
   <circle id="connector44pad" cx="43.2" cy="46.8" r="1.9687" stroke-width="1.1027" connectorname="T1OUT"/>
   <circle id="connector33pad" cx="7.2" cy="46.8" r="1.9687" stroke-width="1.1027" connectorname="T1IN"/>
   <circle id="connector35pad" cx="7.2" cy="32.4" r="1.9687" stroke-width="1.1027" connectorname="T2IN"/>
   <circle id="connector37pad" cx="7.2" cy="18" r="1.9687" stroke-width="1.1027" connectorname="GND"/>
   <circle id="connector39pad" cx="43.2" cy="10.8" r="1.9687" stroke-width="1.1027" connectorname="V+"/>
   <circle id="connector41pad" cx="43.2" cy="25.2" r="1.9687" stroke-width="1.1027" connectorname="R2IN"/>
   <circle id="connector43pad" cx="43.2" cy="39.6" r="1.9687" stroke-width="1.1027" connectorname="R1IN"/>
   <circle id="connector45pad" cx="25.2" cy="7.2" r="4.2633" stroke-width="1.44" connectorname="P$1"/>
  </g>
 </g>
</svg>
