<?xml version="1.0" encoding="UTF-8"?>
<!-- Created with Fritzing (http://www.fritzing.org/) -->
<svg width="1.45in" height="1.8in" baseProfile="tiny" version="1.2" viewBox="0 0 104.4 129.6" xmlns="http://www.w3.org/2000/svg">
 <desc>
  <referenceFile>1.69inch 240x280 rev B_pcb.svg</referenceFile>
 </desc>
 <desc>Fritzing footprint generated by brd2svg</desc>
 <g id="silkscreen">
  <path d="m104.11 7.456v114.69a6.912 6.912 0 0 1-7.1604 7.168h-89.503a6.912 6.912 0 0 1-7.1603-7.168v-114.69a6.912 6.912 0 0 1 7.1603-7.168h89.503a6.912 6.912 0 0 1 7.1604 7.168m-38.868 20.494a1.1293 1.1293 0 1 0 2.2586 0 1.1293 1.1293 0 1 0-2.2586 0zm-28.346 0a1.1293 1.1293 0 1 0 2.2586 0 1.1293 1.1293 0 1 0-2.2586 0z" fill="none" stroke="#fff" stroke-width=".576"/>
  <g>
   <title>element:DISP1</title>
   <g>
    <title>package:TFT_1.69IN_240X280_12P</title>
    <line x1="19.602" x2="84.799" y1="8.9574" y2="8.9574" stroke="#fff" stroke-linecap="round" stroke-width=".576"/>
    <path d="m94.72 18.879a9.9212 9.9212 0 0 0-9.9209-9.9214" fill="none" stroke="#fff" stroke-width=".576"/>
    <line x1="94.72" x2="94.72" y1="18.879" y2="105.34" stroke="#fff" stroke-linecap="round" stroke-width=".576"/>
    <path d="m84.799 115.26a9.9212 9.9212 0 0 0 9.9209-9.922" fill="none" stroke="#fff" stroke-width=".576"/>
    <line x1="84.799" x2="19.602" y1="115.26" y2="115.26" stroke="#fff" stroke-linecap="round" stroke-width=".576"/>
    <path d="m9.6803 105.34a9.9212 9.9212 0 0 0 9.9213 9.922" fill="none" stroke="#fff" stroke-width=".576"/>
    <line x1="9.6803" x2="9.6803" y1="105.34" y2="18.879" stroke="#fff" stroke-linecap="round" stroke-width=".576"/>
    <path d="m19.602 8.9574a9.9212 9.9212 0 0 0-9.9213 9.9214" fill="none" stroke="#fff" stroke-width=".576"/>
    <line x1="35.901" x2="35.901" y1="19.446" y2="35.036" stroke="#fff" stroke-linecap="round" stroke-width=".432"/>
    <path d="m35.901 35.036a4.252 4.252 0 0 0 4.2519 4.252" fill="none" stroke="#fff" stroke-width=".432"/>
    <line x1="40.153" x2="64.247" y1="39.288" y2="39.288" stroke="#fff" stroke-linecap="round" stroke-width=".432"/>
    <path d="m64.247 39.288a4.252 4.252 0 0 0 4.2519-4.252" fill="none" stroke="#fff" stroke-width=".432"/>
    <line x1="68.499" x2="68.499" y1="35.036" y2="19.446" stroke="#fff" stroke-linecap="round" stroke-width=".432"/>
   </g>
  </g>
  <g>
   <title>element:JP1</title>
   <g>
    <title>package:1X11_ROUND_76</title>
   </g>
  </g>
  <g>
   <title>element:Q2</title>
   <g>
    <title>package:MICROSD</title>
   </g>
  </g>
  <g>
   <title>element:U$19</title>
   <g>
    <title>package:EYESPI_LOGO</title>
   </g>
  </g>
  <g>
   <title>element:X1</title>
   <g>
    <title>package:EYE_SPI_DISPLAY_BOTCONTACT</title>
   </g>
  </g>
 </g>
 <g id="copper1">
  <g id="copper0" fill="none" stroke="#F7BD13">
   <circle id="connector30pad" cx="7.2" cy="117" r="4.2633" stroke-width="1.44" connectorname="P$1"/>
   <circle id="connector22pad" cx="52.2" cy="124.2" r="2.0767" stroke-width="1.3187" connectorname="MOSI"/>
   <circle id="connector26pad" cx="81" cy="124.2" r="2.0767" stroke-width="1.3187" connectorname="CARDCS"/>
   <circle id="connector20pad" cx="37.8" cy="124.2" r="2.0767" stroke-width="1.3187" connectorname="SCK"/>
   <circle id="connector24pad" cx="66.6" cy="124.2" r="2.0767" stroke-width="1.3187" connectorname="TFTRST"/>
   <circle id="connector28pad" cx="7.2" cy="7.2" r="4.2633" stroke-width="1.44" connectorname="P$1"/>
   <circle id="connector19pad" cx="30.6" cy="124.2" r="2.0767" stroke-width="1.3187" connectorname="GND"/>
   <circle id="connector21pad" cx="45" cy="124.2" r="2.0767" stroke-width="1.3187" connectorname="MISO"/>
   <circle id="connector23pad" cx="59.4" cy="124.2" r="2.0767" stroke-width="1.3187" connectorname="TFTCS"/>
   <circle id="connector25pad" cx="73.8" cy="124.2" r="2.0767" stroke-width="1.3187" connectorname="TFTDC"/>
   <circle id="connector27pad" cx="88.2" cy="124.2" r="2.0767" stroke-width="1.3187" connectorname="LITE"/>
   <circle id="connector29pad" cx="97.2" cy="7.2" r="4.2633" stroke-width="1.44" connectorname="P$1"/>
   <circle id="connector17pad" cx="16.2" cy="124.2" r="2.0767" stroke-width="1.3187" connectorname="VIN"/>
   <circle id="connector31pad" cx="97.2" cy="117" r="4.2633" stroke-width="1.44" connectorname="P$1"/>
   <circle id="connector18pad" cx="23.4" cy="124.2" r="2.0767" stroke-width="1.3187" connectorname="+3V3"/>
  </g>
 </g>
</svg>
