<?xml version="1.0" encoding="UTF-8"?>
<!-- Created with Fritzing (http://www.fritzing.org/) -->
<svg width=".8in" height="1.1in" version="1.2" viewBox="0 0 57.6 79.2" xmlns="http://www.w3.org/2000/svg">
 <desc>
  <referenceFile>Adafruit AT42QT1010_pcb.svg</referenceFile>
 </desc>
 <metadata>
  <rdf:RDF xmlns:rdf="http://www.w3.org/1999/02/22-rdf-syntax-ns#">
   <cc:Work rdf:about="" xmlns:cc="http://creativecommons.org/ns#" xmlns:rdf="http://www.w3.org/1999/02/22-rdf-syntax-ns#">
    <dc:format xmlns:dc="http://purl.org/dc/elements/1.1/">image/svg+xml</dc:format>
    <dc:type rdf:resource="http://purl.org/dc/dcmitype/StillImage" xmlns:dc="http://purl.org/dc/elements/1.1/" xmlns:rdf="http://www.w3.org/1999/02/22-rdf-syntax-ns#"/>
   </cc:Work>
  </rdf:RDF>
 </metadata>
 <desc>Fritzing footprint generated by brd2svg</desc>
 <g id="silkscreen">
  <path d="m7.416 78.912a6.912 6.912 0 0 1-7.128-7.1477v-64.329a6.912 6.912 0 0 1 7.128-7.1477h42.768a6.912 6.912 0 0 1 7.128 7.1477v64.329a6.912 6.912 0 0 1-7.128 7.1477h-42.768m17.93-72.724a3.2553 3.2553 0 1 0 6.5106 0 3.2553 3.2553 0 1 0-6.5106 0z" fill="none" stroke="#fff" stroke-width=".576"/>
  <g>
   <title>element:SW1</title>
   <g>
    <title>package:CAPTOUCH_SIMPLE_12.5MM</title>
    <path d="m19.389 11.906a9.2126 9.2126 0 0 0-9.2126 9.2126" fill="none" stroke="#fff" stroke-width=".36"/>
    <line x1="19.389" x2="37.814" y1="11.906" y2="11.906" stroke="#fff" stroke-linecap="round" stroke-width=".36"/>
    <path d="m47.027 21.118a9.2126 9.2126 0 0 0-9.2126-9.2126" fill="none" stroke="#fff" stroke-width=".36"/>
    <line x1="47.027" x2="47.027" y1="21.118" y2="39.543" stroke="#fff" stroke-linecap="round" stroke-width=".36"/>
    <path d="m37.814 48.756a9.2126 9.2126 0 0 0 9.2126-9.2126" fill="none" stroke="#fff" stroke-width=".36"/>
    <line x1="37.814" x2="19.389" y1="48.756" y2="48.756" stroke="#fff" stroke-linecap="round" stroke-width=".36"/>
    <path d="m10.176 39.543a9.2126 9.2126 0 0 0 9.2126 9.2126" fill="none" stroke="#fff" stroke-width=".36"/>
    <line x1="10.176" x2="10.176" y1="39.543" y2="21.118" stroke="#fff" stroke-linecap="round" stroke-width=".36"/>
   </g>
  </g>
 </g>
 <g id="copper1">
  <g id="copper0" fill="none" stroke="#F7BD13">
   <circle id="connector9pad" cx="39.402" cy="73.8" r="0" stroke-width="0" connectorname="CAPPAD"/>
   <circle id="connector2pad" cx="25.002" cy="73.8" r="2.0767" stroke-width="1.3187" connectorname="OUT"/>
   <circle id="connector1pad" cx="32.202" cy="73.8" r="2.0767" stroke-width="1.3187" connectorname="VDD"/>
   <circle id="connector3pad" cx="17.802" cy="73.8" r="2.0767" stroke-width="1.3187" connectorname="GND"/>
   <circle id="connector5pad" cx="7.2" cy="72" r="4.2633" stroke-width="1.44" connectorname="P$1"/>
   <circle id="connector6pad" cx="50.4" cy="72" r="4.2633" stroke-width="1.44" connectorname="P$1"/>
   <circle id="connector7pad" cx="7.2" cy="7.2" r="4.2633" stroke-width="1.44" connectorname="P$1"/>
   <circle id="connector8pad" cx="50.4" cy="7.2" r="4.2633" stroke-width="1.44" connectorname="P$1"/>
   <circle id="connector0pad" cx="39.402" cy="73.8" r="2.0767" stroke-width="1.3187" connectorname="LEDA"/>
  </g>
 </g>
</svg>
