<?xml version="1.0" encoding="UTF-8"?>
<!-- Created with Fritzing (http://www.fritzing.org/) -->
<svg width=".8in" height="1.5011in" baseProfile="tiny" version="1.2" viewBox="0 0 57.6 108.08" xmlns="http://www.w3.org/2000/svg">
 <desc>
  <referenceFile>FadeCandy USB NeoPixel Driver_pcb.svg</referenceFile>
 </desc>
 <desc>Fritzing footprint generated by brd2svg</desc>
 <g id="silkscreen">
  <path d="m0.288 3.9478a3.312 3.312 0 0 1 3.564-3.5808h49.896a3.312 3.312 0 0 1 3.564 3.5808v100.26a3.312 3.312 0 0 1-3.564 3.58h-49.896a3.312 3.312 0 0 1-3.564-3.58v-100.26m33.619 11.926a1.1293 1.1293 0 1 0 2.2586 0 1.1293 1.1293 0 1 0-2.2586 0zm-12.472 0a1.1293 1.1293 0 1 0 2.2586 0 1.1293 1.1293 0 1 0-2.2586 0z" fill="none" stroke="#fff" stroke-width=".576"/>
  <g>
   <title>element:J1</title>
   <g>
    <title>package:USB-MINIB</title>
    <line x1="39.855" x2="17.745" y1="26.079" y2="26.079" stroke="#fff" stroke-linecap="round" stroke-width=".36"/>
    <line x1="39.855" x2="17.745" stroke="#fff" stroke-linecap="round" stroke-width=".36"/>
    <line x1="39.855" x2="39.855" y1="11.339" y2="18.992" stroke="#fff" stroke-linecap="round" stroke-width=".36"/>
    <line x1="17.745" x2="17.745" y1="18.992" y2="11.339" stroke="#fff" stroke-linecap="round" stroke-width=".36"/>
    <line x1="37.871" x2="34.753" y1="26.079" y2="26.079" stroke="#fff" stroke-linecap="round" stroke-width=".36"/>
    <line x1="22.847" x2="19.729" y1="26.079" y2="26.079" stroke="#fff" stroke-linecap="round" stroke-width=".36"/>
   </g>
  </g>
  <g>
   <title>element:J2</title>
   <g>
    <title>package:2X08</title>
    <line x2="1.8" y1="106.28" y2="108.08" stroke="#fff" stroke-linecap="round" stroke-width=".432"/>
    <line x1="5.4" x2="7.2" y1="108.08" y2="106.28" stroke="#fff" stroke-linecap="round" stroke-width=".432"/>
    <line x1="7.2" x2="9" y1="106.28" y2="108.08" stroke="#fff" stroke-linecap="round" stroke-width=".432"/>
    <line x1="12.6" x2="14.4" y1="108.08" y2="106.28" stroke="#fff" stroke-linecap="round" stroke-width=".432"/>
    <line x1="14.4" x2="16.2" y1="106.28" y2="108.08" stroke="#fff" stroke-linecap="round" stroke-width=".432"/>
    <line x1="19.8" x2="21.6" y1="108.08" y2="106.28" stroke="#fff" stroke-linecap="round" stroke-width=".432"/>
    <line x1="21.6" x2="23.4" y1="106.28" y2="108.08" stroke="#fff" stroke-linecap="round" stroke-width=".432"/>
    <line x1="27" x2="28.8" y1="108.08" y2="106.28" stroke="#fff" stroke-linecap="round" stroke-width=".432"/>
    <line x1="28.8" x2="30.6" y1="106.28" y2="108.08" stroke="#fff" stroke-linecap="round" stroke-width=".432"/>
    <line x1="34.2" x2="36" y1="108.08" y2="106.28" stroke="#fff" stroke-linecap="round" stroke-width=".432"/>
    <line x1="36" x2="37.8" y1="106.28" y2="108.08" stroke="#fff" stroke-linecap="round" stroke-width=".432"/>
    <line x1="41.4" x2="43.2" y1="108.08" y2="106.28" stroke="#fff" stroke-linecap="round" stroke-width=".432"/>
    <line y1="106.28" y2="95.479" stroke="#fff" stroke-linecap="round" stroke-width=".432"/>
    <line x2="1.8" y1="95.479" y2="93.679" stroke="#fff" stroke-linecap="round" stroke-width=".432"/>
    <line x1="1.8" x2="5.4" y1="93.679" y2="93.679" stroke="#fff" stroke-linecap="round" stroke-width=".432"/>
    <line x1="5.4" x2="7.2" y1="93.679" y2="95.479" stroke="#fff" stroke-linecap="round" stroke-width=".432"/>
    <line x1="7.2" x2="9" y1="95.479" y2="93.679" stroke="#fff" stroke-linecap="round" stroke-width=".432"/>
    <line x1="9" x2="12.6" y1="93.679" y2="93.679" stroke="#fff" stroke-linecap="round" stroke-width=".432"/>
    <line x1="12.6" x2="14.4" y1="93.679" y2="95.479" stroke="#fff" stroke-linecap="round" stroke-width=".432"/>
    <line x1="14.4" x2="16.2" y1="95.479" y2="93.679" stroke="#fff" stroke-linecap="round" stroke-width=".432"/>
    <line x1="16.2" x2="19.8" y1="93.679" y2="93.679" stroke="#fff" stroke-linecap="round" stroke-width=".432"/>
    <line x1="19.8" x2="21.6" y1="93.679" y2="95.479" stroke="#fff" stroke-linecap="round" stroke-width=".432"/>
    <line x1="21.6" x2="23.4" y1="95.479" y2="93.679" stroke="#fff" stroke-linecap="round" stroke-width=".432"/>
    <line x1="23.4" x2="27" y1="93.679" y2="93.679" stroke="#fff" stroke-linecap="round" stroke-width=".432"/>
    <line x1="27" x2="28.8" y1="93.679" y2="95.479" stroke="#fff" stroke-linecap="round" stroke-width=".432"/>
    <line x1="28.8" x2="30.6" y1="95.479" y2="93.679" stroke="#fff" stroke-linecap="round" stroke-width=".432"/>
    <line x1="30.6" x2="34.2" y1="93.679" y2="93.679" stroke="#fff" stroke-linecap="round" stroke-width=".432"/>
    <line x1="34.2" x2="36" y1="93.679" y2="95.479" stroke="#fff" stroke-linecap="round" stroke-width=".432"/>
    <line x1="36" x2="37.8" y1="95.479" y2="93.679" stroke="#fff" stroke-linecap="round" stroke-width=".432"/>
    <line x1="37.8" x2="41.4" y1="93.679" y2="93.679" stroke="#fff" stroke-linecap="round" stroke-width=".432"/>
    <line x1="41.4" x2="43.2" y1="93.679" y2="95.479" stroke="#fff" stroke-linecap="round" stroke-width=".432"/>
    <line x1="43.2" x2="45" y1="95.479" y2="93.679" stroke="#fff" stroke-linecap="round" stroke-width=".432"/>
    <line x1="45" x2="48.6" y1="93.679" y2="93.679" stroke="#fff" stroke-linecap="round" stroke-width=".432"/>
    <line x1="48.6" x2="50.4" y1="93.679" y2="95.479" stroke="#fff" stroke-linecap="round" stroke-width=".432"/>
    <line x1="50.4" x2="48.6" y1="106.28" y2="108.08" stroke="#fff" stroke-linecap="round" stroke-width=".432"/>
    <line x1="43.2" x2="45" y1="106.28" y2="108.08" stroke="#fff" stroke-linecap="round" stroke-width=".432"/>
    <line x1="7.2" x2="7.2" y1="95.479" y2="106.28" stroke="#fff" stroke-linecap="round" stroke-width=".432"/>
    <line x1="14.4" x2="14.4" y1="95.479" y2="106.28" stroke="#fff" stroke-linecap="round" stroke-width=".432"/>
    <line x1="21.6" x2="21.6" y1="95.479" y2="106.28" stroke="#fff" stroke-linecap="round" stroke-width=".432"/>
    <line x1="28.8" x2="28.8" y1="95.479" y2="106.28" stroke="#fff" stroke-linecap="round" stroke-width=".432"/>
    <line x1="36" x2="36" y1="95.479" y2="106.28" stroke="#fff" stroke-linecap="round" stroke-width=".432"/>
    <line x1="43.2" x2="43.2" y1="95.479" y2="106.28" stroke="#fff" stroke-linecap="round" stroke-width=".432"/>
    <line x1="50.4" x2="50.4" y1="95.479" y2="106.28" stroke="#fff" stroke-linecap="round" stroke-width=".432"/>
    <line x1="45" x2="48.6" y1="108.08" y2="108.08" stroke="#fff" stroke-linecap="round" stroke-width=".432"/>
    <line x1="37.8" x2="41.4" y1="108.08" y2="108.08" stroke="#fff" stroke-linecap="round" stroke-width=".432"/>
    <line x1="30.6" x2="34.2" y1="108.08" y2="108.08" stroke="#fff" stroke-linecap="round" stroke-width=".432"/>
    <line x1="23.4" x2="27" y1="108.08" y2="108.08" stroke="#fff" stroke-linecap="round" stroke-width=".432"/>
    <line x1="16.2" x2="19.8" y1="108.08" y2="108.08" stroke="#fff" stroke-linecap="round" stroke-width=".432"/>
    <line x1="9" x2="12.6" y1="108.08" y2="108.08" stroke="#fff" stroke-linecap="round" stroke-width=".432"/>
    <line x1="1.8" x2="5.4" y1="108.08" y2="108.08" stroke="#fff" stroke-linecap="round" stroke-width=".432"/>
    <line x1="50.4" x2="52.2" y1="95.479" y2="93.679" stroke="#fff" stroke-linecap="round" stroke-width=".432"/>
    <line x1="52.2" x2="55.8" y1="93.679" y2="93.679" stroke="#fff" stroke-linecap="round" stroke-width=".432"/>
    <line x1="55.8" x2="57.6" y1="93.679" y2="95.479" stroke="#fff" stroke-linecap="round" stroke-width=".432"/>
    <line x1="57.6" x2="55.8" y1="106.28" y2="108.08" stroke="#fff" stroke-linecap="round" stroke-width=".432"/>
    <line x1="50.4" x2="52.2" y1="106.28" y2="108.08" stroke="#fff" stroke-linecap="round" stroke-width=".432"/>
    <line x1="57.6" x2="57.6" y1="95.479" y2="106.28" stroke="#fff" stroke-linecap="round" stroke-width=".432"/>
    <line x1="52.2" x2="55.8" y1="108.08" y2="108.08" stroke="#fff" stroke-linecap="round" stroke-width=".432"/>
   </g>
  </g>
  <g>
   <title>element:U$2</title>
   <g>
    <title>package:ADAFRUIT_TEXT_20MM</title>
   </g>
  </g>
  <g>
   <title>element:U1</title>
   <g>
    <title>package:LQFP48</title>
    <line x1="26.847" x2="26.067" y1="65.027" y2="65.806" stroke="#fff" stroke-linecap="round" stroke-width=".72"/>
    <line x1="26.067" x2="8.4926" y1="65.806" y2="65.806" stroke="#fff" stroke-linecap="round" stroke-width=".72"/>
    <line x1="8.4926" x2="7.7131" y1="65.806" y2="65.027" stroke="#fff" stroke-linecap="round" stroke-width=".72"/>
    <line x1="7.7131" x2="7.7131" y1="65.027" y2="47.452" stroke="#fff" stroke-linecap="round" stroke-width=".72"/>
    <line x1="7.7131" x2="8.4926" y1="47.452" y2="46.672" stroke="#fff" stroke-linecap="round" stroke-width=".72"/>
    <line x1="8.4926" x2="26.067" y1="46.672" y2="46.672" stroke="#fff" stroke-linecap="round" stroke-width=".72"/>
    <line x1="26.067" x2="26.847" y1="46.672" y2="47.452" stroke="#fff" stroke-linecap="round" stroke-width=".72"/>
    <line x1="26.847" x2="26.847" y1="47.452" y2="65.027" stroke="#fff" stroke-linecap="round" stroke-width=".72"/>
    <circle cx="22.949" cy="50.57" r="1.7008" fill="none" stroke="#fff" stroke-width=".72"/>
   </g>
  </g>
  <g>
   <title>element:U3</title>
   <g>
    <title>package:TSSOP20</title>
    <line x1="38.889" x2="38.889" y1="46.549" y2="64.49" stroke="#fff" stroke-linecap="round" stroke-width=".432"/>
    <line x1="51.831" x2="38.889" y1="64.49" y2="64.49" stroke="#fff" stroke-linecap="round" stroke-width=".432"/>
    <line x1="51.831" x2="51.831" y1="64.49" y2="46.549" stroke="#fff" stroke-linecap="round" stroke-width=".432"/>
    <line x1="38.889" x2="51.831" y1="46.549" y2="46.549" stroke="#fff" stroke-linecap="round" stroke-width=".432"/>
    <line x1="39.537" x2="39.537" y1="47.197" y2="63.842" stroke="#fff" stroke-linecap="round" stroke-width=".144"/>
    <line x1="51.183" x2="39.537" y1="63.842" y2="63.842" stroke="#fff" stroke-linecap="round" stroke-width=".144"/>
    <line x1="51.183" x2="51.183" y1="63.842" y2="47.197" stroke="#fff" stroke-linecap="round" stroke-width=".144"/>
    <line x1="39.537" x2="51.183" y1="47.197" y2="47.197" stroke="#fff" stroke-linecap="round" stroke-width=".144"/>
    <circle cx="41.904" cy="49.069" r="1.296" fill="none" stroke="#fff" stroke-width=".432"/>
   </g>
  </g>
  <line x1="14.485" x2="43.2" y1=".288" y2=".288" fill="none" stroke="#fff" stroke-width=".576"/>
  <line x1="14.485" x2="14.485" y1=".07937" y2=".288" fill="none" stroke="#fff" stroke-width=".576"/>
  <line x1="43.2" x2="43.2" y1=".07937" y2=".288" fill="none" stroke="#fff" stroke-width=".576"/>
 </g>
 <g id="copper1">
  <g id="copper0" fill="none" stroke="#F7BD13" stroke-width="1.08">
   <circle id="connector45pad" cx="3.6" cy="104.48" r="1.98" connectorname="GND"/>
   <circle id="connector46pad" cx="3.6" cy="97.279" r="1.98" connectorname="2"/>
   <circle id="connector47pad" cx="10.8" cy="104.48" r="1.98" connectorname="GND"/>
   <circle id="connector48pad" cx="10.8" cy="97.279" r="1.98" connectorname="4"/>
   <circle id="connector49pad" cx="18" cy="104.48" r="1.98" connectorname="GND"/>
   <circle id="connector50pad" cx="18" cy="97.279" r="1.98" connectorname="N$36"/>
   <circle id="connector51pad" cx="25.2" cy="104.48" r="1.98" connectorname="GND"/>
   <circle id="connector52pad" cx="25.2" cy="97.279" r="1.98" connectorname="8"/>
   <circle id="connector53pad" cx="32.4" cy="104.48" r="1.98" connectorname="GND"/>
   <circle id="connector54pad" cx="32.4" cy="97.279" r="1.98" connectorname="10"/>
   <circle id="connector55pad" cx="39.6" cy="104.48" r="1.98" connectorname="GND"/>
   <circle id="connector56pad" cx="39.6" cy="97.279" r="1.98" connectorname="12"/>
   <circle id="connector57pad" cx="46.8" cy="104.48" r="1.98" connectorname="GND"/>
   <circle id="connector58pad" cx="46.8" cy="97.279" r="1.98" connectorname="14"/>
   <circle id="connector59pad" cx="54" cy="104.48" r="1.98" connectorname="GND"/>
   <circle id="connector60pad" cx="54" cy="97.279" r="1.98" connectorname="16"/>
   <circle id="connector61pad" cx="3.6" cy="3.6794" r="1.98" connectorname="GND"/>
   <circle id="connector62pad" cx="54" cy="3.6794" r="1.98" connectorname="GND"/>
  </g>
 </g>
</svg>
