<?xml version="1.0" encoding="UTF-8"?>
<!-- Created with Fritzing (http://www.fritzing.org/) -->
<svg width="1.4179in" height=".7in" baseProfile="tiny" version="1.2" viewBox="0 0 102.09 50.4" xmlns="http://www.w3.org/2000/svg">
 <desc>
  <referenceFile>Itsy Bitsy M0 Express_pcb.svg</referenceFile>
 </desc>
 <desc>Fritzing footprint generated by brd2svg</desc>
 <g id="silkscreen">
  <path d="m1.5705 32.318 1.4319-1.4235v-12.1l-1.4319-1.4236v-13.524a3.312 3.312 0 0 1 3.5797-3.5589h93.072a3.312 3.312 0 0 1 3.5796 3.5589v42.706a3.312 3.312 0 0 1-3.5796 3.5589h-93.072a3.312 3.312 0 0 1-3.5797-3.5589v-14.235m11.615-12.645a0.70413 0.70413 0 1 0 1.4083 0 0.70413 0.70413 0 1 0-1.4083 0zm0 11.055a0.70413 0.70413 0 1 0 1.4083 0 0.70413 0.70413 0 1 0-1.4083 0z" fill="none" stroke="#fff" stroke-width=".576"/>
  <g>
   <title>element:JP1</title>
   <g>
    <title>package:1X05_ROUND_70</title>
   </g>
  </g>
  <g>
   <title>element:JP2</title>
   <g>
    <title>package:1X14_ROUND70</title>
   </g>
  </g>
  <g>
   <title>element:JP4</title>
   <g>
    <title>package:1X14_ROUND70</title>
   </g>
  </g>
  <g>
   <title>element:U$4</title>
   <g>
    <title>package:TQFN48_7MM</title>
    <line x1="48.804" x2="47.245" y1="16.435" y2="16.435" stroke="#fff" stroke-linecap="round" stroke-width=".36"/>
    <line x1="47.245" x2="47.245" y1="16.435" y2="17.994" stroke="#fff" stroke-linecap="round" stroke-width=".36"/>
    <line x1="66.095" x2="67.654" y1="16.435" y2="16.435" stroke="#fff" stroke-linecap="round" stroke-width=".36"/>
    <line x1="67.654" x2="67.654" y1="16.435" y2="17.994" stroke="#fff" stroke-linecap="round" stroke-width=".36"/>
    <line x1="67.654" x2="67.654" y1="35.286" y2="36.845" stroke="#fff" stroke-linecap="round" stroke-width=".36"/>
    <line x1="67.654" x2="66.095" y1="36.845" y2="36.845" stroke="#fff" stroke-linecap="round" stroke-width=".36"/>
    <g>
     <title>polygon</title>
     <path d="m48.81 37.224h-1.872v-1.872l1.872 1.872m-1.872-0.144h1.728-1.728m0-0.36h1.368-1.368m0-0.36h1.008-1.008m0-0.36h0.648-0.648" fill="none" stroke="#fff" stroke-linecap="round" stroke-width=".36"/>
    </g>
   </g>
  </g>
  <g>
   <title>element:U$14</title>
   <g>
    <title>package:ITSYM0_TOP</title>
   </g>
  </g>
  <g>
   <title>element:U$15</title>
   <g>
    <title>package:ITSYM0_BOT</title>
   </g>
  </g>
  <g>
   <title>element:X1</title>
   <g>
    <title>package:JSTPH2</title>
   </g>
  </g>
  <g>
   <title>element:X3</title>
   <g>
    <title>package:4UCONN_20329_V2</title>
    <line x1="17.008" x2="17.008" y1="18.113" y2="20.381" stroke="#fff" stroke-linecap="round" stroke-width=".36"/>
    <line x1="17.008" x2="17.008" y1="30.019" y2="32.287" stroke="#fff" stroke-linecap="round" stroke-width=".36"/>
    <line x1="4.252" x2="1.7008" y1="14.428" y2="14.428" stroke="#fff" stroke-linecap="round" stroke-width=".36"/>
    <line x1="1.7008" x2="1.7008" y1="14.428" y2="35.972" stroke="#fff" stroke-linecap="round" stroke-width=".36"/>
    <line x1="1.7008" x2="4.252" y1="35.972" y2="35.972" stroke="#fff" stroke-linecap="round" stroke-width=".36"/>
   </g>
  </g>
  <line x1=".288" x2="1.2898" y1="39.515" y2="39.515" fill="none" stroke="#fff" stroke-width=".576"/>
  <line x1=".288" x2="1.2898" y1="10.885" y2="10.885" fill="none" stroke="#fff" stroke-width=".576"/>
  <line x1=".288" x2=".288" y1="39.515" y2="10.885" fill="none" stroke="#fff" stroke-width=".576"/>
 </g>
 <g id="copper1">
  <g id="copper0" fill="none" stroke="#F7BD13">
   <circle id="connector26pad" cx="98.49" cy="39.6" r="1.9687" stroke-width="1.1027" connectorname="EN"/>
   <circle id="connector27pad" cx="98.49" cy="32.4" r="1.9687" stroke-width="1.1027" connectorname="SWDIO"/>
   <circle id="connector28pad" cx="98.49" cy="25.2" r="1.9687" stroke-width="1.1027" connectorname="SWCLK"/>
   <circle id="connector29pad" cx="98.49" cy="18" r="1.9687" stroke-width="1.1027" connectorname="D3"/>
   <circle id="connector30pad" cx="98.49" cy="10.8" r="1.9687" stroke-width="1.1027" connectorname="D4"/>
   <circle id="connector31pad" cx="4.8898" cy="3.6" r="1.8967" stroke-width=".95868" connectorname="VBAT"/>
   <circle id="connector32pad" cx="12.09" cy="3.6" r="1.8967" stroke-width=".95868" connectorname="GND"/>
   <circle id="connector33pad" cx="19.29" cy="3.6" r="1.8967" stroke-width=".95868" connectorname="VBUS"/>
   <circle id="connector34pad" cx="26.49" cy="3.6" r="1.8967" stroke-width=".95868" connectorname="D13"/>
   <circle id="connector35pad" cx="33.69" cy="3.6" r="1.8967" stroke-width=".95868" connectorname="D12"/>
   <circle id="connector36pad" cx="40.89" cy="3.6" r="1.8967" stroke-width=".95868" connectorname="D11"/>
   <circle id="connector37pad" cx="48.09" cy="3.6" r="1.8967" stroke-width=".95868" connectorname="D10"/>
   <circle id="connector38pad" cx="55.29" cy="3.6" r="1.8967" stroke-width=".95868" connectorname="D9"/>
   <circle id="connector39pad" cx="62.49" cy="3.6" r="1.8967" stroke-width=".95868" connectorname="D7"/>
   <circle id="connector40pad" cx="69.69" cy="3.6" r="1.8967" stroke-width=".95868" connectorname="D5_5V"/>
   <circle id="connector41pad" cx="76.89" cy="3.6" r="1.8967" stroke-width=".95868" connectorname="SCL"/>
   <circle id="connector42pad" cx="84.09" cy="3.6" r="1.8967" stroke-width=".95868" connectorname="SDA"/>
   <circle id="connector43pad" cx="91.29" cy="3.6" r="1.8967" stroke-width=".95868" connectorname="D1"/>
   <circle id="connector44pad" cx="98.49" cy="3.6" r="1.8967" stroke-width=".95868" connectorname="D0"/>
   <circle id="connector45pad" cx="98.49" cy="46.8" r="1.8967" stroke-width=".95868" connectorname="D2"/>
   <circle id="connector46pad" cx="91.29" cy="46.8" r="1.8967" stroke-width=".95868" connectorname="MISO"/>
   <circle id="connector47pad" cx="84.09" cy="46.8" r="1.8967" stroke-width=".95868" connectorname="MOSI"/>
   <circle id="connector48pad" cx="76.89" cy="46.8" r="1.8967" stroke-width=".95868" connectorname="SCK"/>
   <circle id="connector49pad" cx="69.69" cy="46.8" r="1.8967" stroke-width=".95868" connectorname="A5"/>
   <circle id="connector50pad" cx="62.49" cy="46.8" r="1.8967" stroke-width=".95868" connectorname="A4"/>
   <circle id="connector51pad" cx="55.29" cy="46.8" r="1.8967" stroke-width=".95868" connectorname="A3"/>
   <circle id="connector52pad" cx="48.09" cy="46.8" r="1.8967" stroke-width=".95868" connectorname="A2"/>
   <circle id="connector53pad" cx="40.89" cy="46.8" r="1.8967" stroke-width=".95868" connectorname="A1"/>
   <circle id="connector54pad" cx="33.69" cy="46.8" r="1.8967" stroke-width=".95868" connectorname="A0"/>
   <circle id="connector55pad" cx="26.49" cy="46.8" r="1.8967" stroke-width=".95868" connectorname="VHI"/>
   <circle id="connector56pad" cx="19.29" cy="46.8" r="1.8967" stroke-width=".95868" connectorname="AREF"/>
   <circle id="connector57pad" cx="12.09" cy="46.8" r="1.8967" stroke-width=".95868" connectorname="+3V3"/>
   <circle id="connector58pad" cx="4.8898" cy="46.8" r="1.8967" stroke-width=".95868" connectorname="!RESET"/>
  </g>
 </g>
</svg>
