<?xml version="1.0" encoding="UTF-8"?>
<!-- Created with Fritzing (http://www.fritzing.org/) -->
<svg width=".48in" height=".45in" baseProfile="tiny" version="1.2" viewBox="0 0 34.56 32.4" xmlns="http://www.w3.org/2000/svg">
 <desc>
  <referenceFile>Adafruit NeoPixel JST SH Breakout_pcb.svg</referenceFile>
 </desc>
 <desc>Fritzing footprint generated by brd2svg</desc>
 <g id="silkscreen">
  <path d="m7.368 0.288h19.824a6.912 6.912 0 0 1 7.08 7.072v17.68a6.912 6.912 0 0 1-7.08 7.072h-19.824a6.912 6.912 0 0 1-7.08-7.072v-17.68a6.912 6.912 0 0 1 7.08-7.072m7.3654 3.672a2.5466 2.5466 0 1 0 5.0933 0 2.5466 2.5466 0 1 0-5.0933 0zm0 24.48a2.5466 2.5466 0 1 0 5.0933 0 2.5466 2.5466 0 1 0-5.0933 0z" fill="none" stroke="#fff" stroke-width=".576"/>
  <g>
   <title>element:LED2</title>
   <g>
    <title>package:WS2812B-NARROW</title>
   </g>
  </g>
  <g>
   <title>element:PLABEL1</title>
   <g>
    <title>package:PLABEL1</title>
   </g>
  </g>
  <g>
   <title>element:PLABEL2</title>
   <g>
    <title>package:PLABEL2</title>
   </g>
  </g>
  <g>
   <title>element:U$1</title>
   <g>
    <title>package:ADAFRUIT_2.5MM</title>
   </g>
  </g>
  <g>
   <title>element:X1</title>
   <g>
    <title>package:JST_SH3</title>
    <line x1="6.4658" x2="13.836" y1="9.1134" y2="9.1134" stroke="#fff" stroke-linecap="round" stroke-width=".432"/>
    <line x1="13.836" x2="13.836" y1="9.1134" y2="12.232" stroke="#fff" stroke-linecap="round" stroke-width=".432"/>
    <line x1="13.836" x2="13.836" y1="20.168" y2="23.57" stroke="#fff" stroke-linecap="round" stroke-width=".432"/>
    <line x1="13.836" x2="6.4658" y1="23.57" y2="23.57" stroke="#fff" stroke-linecap="round" stroke-width=".432"/>
    <line x1="1.6469" x2="1.6469" y1="11.665" y2="20.735" stroke="#fff" stroke-linecap="round" stroke-width=".432"/>
   </g>
  </g>
  <g>
   <title>element:X2</title>
   <g>
    <title>package:JST_SH3</title>
    <line x1="28.094" x2="20.724" y1="23.287" y2="23.287" stroke="#fff" stroke-linecap="round" stroke-width=".432"/>
    <line x1="20.724" x2="20.724" y1="23.287" y2="20.168" stroke="#fff" stroke-linecap="round" stroke-width=".432"/>
    <line x1="20.724" x2="20.724" y1="12.232" y2="8.8299" stroke="#fff" stroke-linecap="round" stroke-width=".432"/>
    <line x1="20.724" x2="28.094" y1="8.8299" y2="8.8299" stroke="#fff" stroke-linecap="round" stroke-width=".432"/>
    <line x1="32.913" x2="32.913" y1="20.735" y2="11.665" stroke="#fff" stroke-linecap="round" stroke-width=".432"/>
   </g>
  </g>
 </g>
 <g id="copper1">
  <g id="copper0">
   <rect id="connector16pad" x="12.49" y="18.184" width="4.3937" height="1.7008" fill="#F7BD13" stroke-width="0"/>
   <g transform="matrix(-1 0 0 -1 39.747 32.4)">
    <rect id="connector20pad" x="17.677" y="15.35" width="4.3937" height="1.7008" fill="#F7BD13" stroke-width="0"/>
   </g>
   <rect id="connector15pad" x="12.49" y="15.35" width="4.3937" height="1.7008" fill="#F7BD13" stroke-width="0"/>
   <g transform="matrix(-1 0 0 -1 39.747 38.069)">
    <rect id="connector19pad" x="17.677" y="18.184" width="4.3937" height="1.7008" fill="#F7BD13" stroke-width="0"/>
   </g>
   <g transform="matrix(-1 0 0 -1 39.747 26.731)">
    <rect id="connector21pad" x="17.677" y="12.515" width="4.3937" height="1.7008" fill="#F7BD13" stroke-width="0"/>
   </g>
   <rect id="connector14pad" x="12.49" y="12.515" width="4.3937" height="1.7008" fill="#F7BD13" stroke-width="0"/>
  </g>
 </g>
</svg>
