<?xml version="1.0" encoding="UTF-8"?>
<!-- Created with Fritzing (http://www.fritzing.org/) -->
<svg width="2.5591in" height="1.21in" baseProfile="tiny" version="1.2" viewBox="0 0 184.25 87.12" xmlns="http://www.w3.org/2000/svg">
 <desc>
  <referenceFile>Adafruit Mini PiTFT - 135x240 Color TFT_pcb.svg</referenceFile>
 </desc>
 <desc>Fritzing footprint generated by brd2svg</desc>
 <g id="silkscreen">
  <path d="m9.2598 0.288h98.69v68.663h-107.66v-59.722a8.712 8.712 0 0 1 8.9718-8.9405m75.141 58.202a1.1293 1.1293 0 1 0 2.2586 0 1.1293 1.1293 0 1 0-2.2586 0zm0-29.48a1.1293 1.1293 0 1 0 2.2586 0 1.1293 1.1293 0 1 0-2.2586 0zm-78.353-17.13a4.032 4.032 0 1 0 8.064 0 4.032 4.032 0 1 0-8.064 0z" fill="none" stroke="#fff" stroke-width=".576"/>
  <g>
   <title>element:DISP1</title>
   <g>
    <title>package:TFT_1.14IN_240X135_WRAPAROUND</title>
    <line x1="107.64" x2="107.64" y1="68.865" y2="18.975" stroke="#fff" stroke-linecap="round" stroke-width=".36"/>
    <line x1="107.64" x2="19.766" y1="18.975" y2="18.975" stroke="#fff" stroke-linecap="round" stroke-width=".36"/>
    <line x1="19.766" x2="19.766" y1="18.975" y2="68.865" stroke="#fff" stroke-linecap="round" stroke-width=".36"/>
    <line x1="19.766" x2="107.64" y1="68.865" y2="68.865" stroke="#fff" stroke-linecap="round" stroke-width=".36"/>
    <line x1="21.183" x2="21.183" y1="67.731" y2="20.109" stroke="#fff" stroke-linecap="round" stroke-width=".36"/>
    <line x1="21.183" x2="105.66" y1="20.109" y2="20.109" stroke="#fff" stroke-linecap="round" stroke-width=".36"/>
    <line x1="105.66" x2="105.66" y1="20.109" y2="67.731" stroke="#fff" stroke-linecap="round" stroke-width=".36"/>
    <line x1="105.66" x2="21.183" y1="67.731" y2="67.731" stroke="#fff" stroke-linecap="round" stroke-width=".36"/>
    <line x1="24.301" x2="24.301" y1="64.896" y2="22.944" stroke="#fff" stroke-linecap="round" stroke-width=".36"/>
    <line x1="24.301" x2="94.884" y1="22.944" y2="22.944" stroke="#fff" stroke-linecap="round" stroke-width=".36"/>
    <line x1="94.884" x2="94.884" y1="22.944" y2="64.896" stroke="#fff" stroke-linecap="round" stroke-width=".36"/>
    <line x1="94.884" x2="24.301" y1="64.896" y2="64.896" stroke="#fff" stroke-linecap="round" stroke-width=".36"/>
   </g>
  </g>
  <g>
   <title>element:RASPI1</title>
   <g>
    <title>package:RASPBERRYPI_2X12_THMSMT</title>
   </g>
  </g>
  <g>
   <title>element:SW1</title>
   <g>
    <title>package:EVQ-Q2_SMALLER</title>
    <line x1="1.5761" x2="1.5761" y1="40.674" y2="21.966" stroke="#fff" stroke-linecap="round" stroke-width=".576"/>
    <line x1="18.584" x2="18.584" y1="21.966" y2="40.674" stroke="#fff" stroke-linecap="round" stroke-width=".576"/>
    <line x1="13.482" x2="6.6784" y1="40.674" y2="40.674" stroke="#fff" stroke-linecap="round" stroke-width=".576"/>
    <line x1="6.6784" x2="13.482" y1="21.966" y2="21.966" stroke="#fff" stroke-linecap="round" stroke-width=".576"/>
    <circle cx="10.08" cy="31.32" r="4.2613" fill="none" stroke="#fff" stroke-width=".576"/>
    <circle cx="10.08" cy="31.32" r="2.8346" fill="none" stroke="#fff" stroke-width=".576"/>
   </g>
  </g>
  <g>
   <title>element:SW2</title>
   <g>
    <title>package:EVQ-Q2_SMALLER</title>
    <line x1="1.5761" x2="1.5761" y1="65.874" y2="47.166" stroke="#fff" stroke-linecap="round" stroke-width=".576"/>
    <line x1="18.584" x2="18.584" y1="47.166" y2="65.874" stroke="#fff" stroke-linecap="round" stroke-width=".576"/>
    <line x1="13.482" x2="6.6784" y1="65.874" y2="65.874" stroke="#fff" stroke-linecap="round" stroke-width=".576"/>
    <line x1="6.6784" x2="13.482" y1="47.166" y2="47.166" stroke="#fff" stroke-linecap="round" stroke-width=".576"/>
    <circle cx="10.08" cy="56.52" r="4.2613" fill="none" stroke="#fff" stroke-width=".576"/>
    <circle cx="10.08" cy="56.52" r="2.8346" fill="none" stroke="#fff" stroke-width=".576"/>
   </g>
  </g>
  <line x1="108" x2="183.96" y1="86.832" y2="86.832" fill="none" stroke="#fff" stroke-width=".576"/>
  <line x1="108" x2="183.96" y1=".288" y2=".288" fill="none" stroke="#fff" stroke-width=".576"/>
  <line x1="183.96" x2="183.96" y1="86.832" y2=".288" fill="none" stroke="#fff" stroke-width=".576"/>
 </g>
 <g id="copper1">
  <g id="copper0" fill="none" stroke="#F7BD13" stroke-width="1.1004">
   <circle id="connector30pad" cx="102.93" cy="8.4019" r="1.8258" connectorname="TFT_CS"/>
   <circle id="connector7pad" cx="23.726" cy="15.602" r="1.8258" connectorname="3.3V"/>
   <circle id="connector26pad" cx="88.526" cy="8.4019" r="1.8258" connectorname="GND"/>
   <circle id="connector8pad" cx="23.726" cy="8.4019" r="1.8258" connectorname="5.0V"/>
   <circle id="connector9pad" cx="30.926" cy="15.602" r="1.8258" connectorname="SDA"/>
   <circle id="connector24pad" cx="81.326" cy="8.4019" r="1.8258" connectorname="BUTTONB"/>
   <circle id="connector10pad" cx="30.926" cy="8.4019" r="1.8258" connectorname="5.0V"/>
   <circle id="connector28pad" cx="95.726" cy="8.4019" r="1.8258" connectorname="TFT_DC"/>
   <circle id="connector11pad" cx="38.126" cy="15.602" r="1.8258" connectorname="SCL"/>
   <circle id="connector12pad" cx="38.126" cy="8.4019" r="1.8258" connectorname="GND"/>
   <circle id="connector13pad" cx="45.326" cy="15.602" r="1.8258" connectorname="GPIO4"/>
   <circle id="connector23pad" cx="81.326" cy="15.602" r="1.8258" connectorname="3.3V"/>
   <circle id="connector14pad" cx="45.326" cy="8.4019" r="1.8258" connectorname="TXD"/>
   <circle id="connector25pad" cx="88.526" cy="15.602" r="1.8258" connectorname="MOSI"/>
   <circle id="connector15pad" cx="52.526" cy="15.602" r="1.8258" connectorname="GND"/>
   <circle id="connector27pad" cx="95.726" cy="15.602" r="1.8258" connectorname="MISO"/>
   <circle id="connector16pad" cx="52.526" cy="8.4019" r="1.8258" connectorname="RXD"/>
   <circle id="connector29pad" cx="102.93" cy="15.602" r="1.8258" connectorname="SCLK"/>
   <circle id="connector17pad" cx="59.726" cy="15.602" r="1.8258" connectorname="GPIO17"/>
   <circle id="connector18pad" cx="59.726" cy="8.4019" r="1.8258" connectorname="GPIO18"/>
   <circle id="connector19pad" cx="66.926" cy="15.602" r="1.8258" connectorname="GPIO27"/>
   <circle id="connector20pad" cx="66.926" cy="8.4019" r="1.8258" connectorname="GND"/>
   <circle id="connector21pad" cx="74.126" cy="15.602" r="1.8258" connectorname="GPIO22"/>
   <circle id="connector22pad" cx="74.126" cy="8.4019" r="1.8258" connectorname="BUTTONA"/>
  </g>
 </g>
</svg>
