<?xml version="1.0" encoding="UTF-8"?>
<!-- Created with Fritzing (http://www.fritzing.org/) -->
<svg width="1.725in" height="1.1in" baseProfile="tiny" version="1.2" viewBox="0 0 124.2 79.2" xmlns="http://www.w3.org/2000/svg">
 <desc>
  <referenceFile>Adafruit LED Charlieplexed Matrix - 9x16_pcb.svg</referenceFile>
 </desc>
 <desc>Fritzing footprint generated by brd2svg</desc>
 <g id="silkscreen">
  <path d="m2.0797 7.4357a6.912 6.912 0 0 1 7.1666-7.1477h107.5a6.912 6.912 0 0 1 7.167 7.1477v64.329a6.912 6.912 0 0 1-7.167 7.1477h-107.5a6.912 6.912 0 0 1-7.1666-7.1477v-64.329m2.5737-2.0357a2.5466 2.5466 0 1 0 5.0933 0 2.5466 2.5466 0 1 0-5.0933 0zm111.6 68.4a2.5466 2.5466 0 1 0 5.0933 0 2.5466 2.5466 0 1 0-5.0933 0z" fill="none" stroke="#fff" stroke-width=".576"/>
  <g>
   <title>element:JP1</title>
   <g>
    <title>package:1X13_ROUND_70</title>
   </g>
  </g>
  <g>
   <title>element:JP4</title>
   <g>
    <title>package:1X13_ROUND_70</title>
   </g>
  </g>
  <line x1=".288" x2="1.8" y1="62.28" y2="62.28" fill="none" stroke="#fff" stroke-width=".576"/>
  <line x1=".288" x2="1.8" y1="14.76" y2="14.76" fill="none" stroke="#fff" stroke-width=".576"/>
  <line x1=".288" x2=".288" y1="62.28" y2="14.76" fill="none" stroke="#fff" stroke-width=".576"/>
 </g>
 <g id="copper1">
  <g id="copper0" fill="none" stroke="#F7BD13">
   <circle id="connector326pad" cx="91.8" cy="75.6" r="1.8967" stroke-width=".95868" connectorname="B7"/>
   <circle id="connector310pad" cx="1.8" cy="25.56" r="1.9687" stroke-width="1.1027" connectorname="INTB"/>
   <circle id="connector302pad" cx="62.64" cy="3.6" r="1.8967" stroke-width=".95868" connectorname="A7"/>
   <circle id="connector318pad" cx="34.2" cy="75.6" r="1.8967" stroke-width=".95868" connectorname="SCL"/>
   <circle id="connector298pad" cx="33.84" cy="3.6" r="1.8967" stroke-width=".95868" connectorname="A3"/>
   <circle id="connector306pad" cx="91.44" cy="3.6" r="1.8967" stroke-width=".95868" connectorname="INTB"/>
   <circle id="connector314pad" cx="1.8" cy="54.36" r="1.9687" stroke-width="1.1027" connectorname="GND"/>
   <circle id="connector322pad" cx="63" cy="75.6" r="1.8967" stroke-width=".95868" connectorname="B3"/>
   <circle id="connector296pad" cx="19.44" cy="3.6" r="1.8967" stroke-width=".95868" connectorname="A1"/>
   <circle id="connector300pad" cx="48.24" cy="3.6" r="1.8967" stroke-width=".95868" connectorname="A5"/>
   <circle id="connector304pad" cx="77.04" cy="3.6" r="1.8967" stroke-width=".95868" connectorname="A9"/>
   <circle id="connector308pad" cx="105.84" cy="3.6" r="1.8967" stroke-width=".95868" connectorname="AUDIO"/>
   <circle id="connector312pad" cx="1.8" cy="39.96" r="1.9687" stroke-width="1.1027" connectorname="SDA"/>
   <circle id="connector316pad" cx="19.8" cy="75.6" r="1.8967" stroke-width=".95868" connectorname="VCC"/>
   <circle id="connector320pad" cx="48.6" cy="75.6" r="1.8967" stroke-width=".95868" connectorname="B1"/>
   <circle id="connector324pad" cx="77.4" cy="75.6" r="1.8967" stroke-width=".95868" connectorname="B5"/>
   <circle id="connector328pad" cx="106.2" cy="75.6" r="1.8967" stroke-width=".95868" connectorname="B9"/>
   <circle id="connector297pad" cx="26.64" cy="3.6" r="1.8967" stroke-width=".95868" connectorname="A2"/>
   <circle id="connector299pad" cx="41.04" cy="3.6" r="1.8967" stroke-width=".95868" connectorname="A4"/>
   <circle id="connector301pad" cx="55.44" cy="3.6" r="1.8967" stroke-width=".95868" connectorname="A6"/>
   <circle id="connector303pad" cx="69.84" cy="3.6" r="1.8967" stroke-width=".95868" connectorname="A8"/>
   <circle id="connector305pad" cx="84.24" cy="3.6" r="1.8967" stroke-width=".95868" connectorname="SHUTD"/>
   <circle id="connector307pad" cx="98.64" cy="3.6" r="1.8967" stroke-width=".95868" connectorname="ADDR"/>
   <circle id="connector309pad" cx="1.8" cy="18.36" r="1.9687" stroke-width="1.1027" connectorname="SHUTD"/>
   <circle id="connector311pad" cx="1.8" cy="32.76" r="1.9687" stroke-width="1.1027" connectorname="AUDIO"/>
   <circle id="connector313pad" cx="1.8" cy="47.16" r="1.9687" stroke-width="1.1027" connectorname="SCL"/>
   <circle id="connector315pad" cx="1.8" cy="61.56" r="1.9687" stroke-width="1.1027" connectorname="VCC"/>
   <circle id="connector317pad" cx="27" cy="75.6" r="1.8967" stroke-width=".95868" connectorname="GND"/>
   <circle id="connector319pad" cx="41.4" cy="75.6" r="1.8967" stroke-width=".95868" connectorname="SDA"/>
   <circle id="connector321pad" cx="55.8" cy="75.6" r="1.8967" stroke-width=".95868" connectorname="B2"/>
   <circle id="connector323pad" cx="70.2" cy="75.6" r="1.8967" stroke-width=".95868" connectorname="B4"/>
   <circle id="connector325pad" cx="84.6" cy="75.6" r="1.8967" stroke-width=".95868" connectorname="B6"/>
   <circle id="connector327pad" cx="99" cy="75.6" r="1.8967" stroke-width=".95868" connectorname="B8"/>
  </g>
 </g>
</svg>
