<?xml version="1.0" encoding="UTF-8"?>
<!-- Created with Fritzing (http://www.fritzing.org/) -->
<svg width="2.0762in" height=".825in" baseProfile="tiny" version="1.2" viewBox="0 0 149.48 59.4" xmlns="http://www.w3.org/2000/svg">
 <desc>
  <referenceFile>Adafruit PiCowbell CAN Bus_pcb.svg</referenceFile>
 </desc>
 <desc>Fritzing footprint generated by brd2svg</desc>
 <g id="silkscreen">
  <path d="m2.1658 58.221v-57.041h147.03v57.041h-147.03m5.7673-41.121a2.952 2.952 0 1 0 5.904 0 2.952 2.952 0 1 0-5.904 0zm0 25.2a2.952 2.952 0 1 0 5.904 0 2.952 2.952 0 1 0-5.904 0zm113.4-19.8a2.952 2.952 0 1 0 5.904 0 2.952 2.952 0 1 0-5.904 0zm0 14.4a2.952 2.952 0 1 0 5.904 0 2.952 2.952 0 1 0-5.904 0z" fill="none" stroke="#fff" stroke-width=".576"/>
  <line x1="7.285" x2="7.285" y1="4.5" y2="13.14" stroke="#fff" stroke-linecap="round" stroke-width="2.304"/>
  <line x1="14.485" x2="14.485" y1="12.78" y2="4.5" stroke="#fff" stroke-linecap="round" stroke-width="2.304"/>
  <line x1="28.885" x2="28.885" y1="4.5" y2="11.7" stroke="#fff" stroke-linecap="round" stroke-width="2.304"/>
  <line x1="43.285" x2="43.285" y1="4.5" y2="11.7" stroke="#fff" stroke-linecap="round" stroke-width="2.304"/>
  <line x1="50.485" x2="50.485" y1="4.5" y2="11.7" stroke="#fff" stroke-linecap="round" stroke-width="2.304"/>
  <line x1="64.885" x2="64.885" y1="4.5" y2="11.7" stroke="#fff" stroke-linecap="round" stroke-width="2.304"/>
  <line x1="72.085" x2="72.085" y1="4.5" y2="11.7" stroke="#fff" stroke-linecap="round" stroke-width="2.304"/>
  <line x1="79.285" x2="79.285" y1="4.5" y2="11.7" stroke="#fff" stroke-linecap="round" stroke-width="2.304"/>
  <line x1="86.485" x2="86.485" y1="11.7" y2="4.5" stroke="#fff" stroke-linecap="round" stroke-width="2.304"/>
  <line x1="100.88" x2="100.88" y1="4.5" y2="11.7" stroke="#fff" stroke-linecap="round" stroke-width="2.304"/>
  <line x1="108.08" x2="108.08" y1="11.7" y2="4.5" stroke="#fff" stroke-linecap="round" stroke-width="2.304"/>
  <line x1="115.28" x2="115.28" y1="4.5" y2="11.7" stroke="#fff" stroke-linecap="round" stroke-width="2.304"/>
  <line x1="122.48" x2="122.48" y1="4.5" y2="11.7" stroke="#fff" stroke-linecap="round" stroke-width="2.304"/>
  <line x1="136.88" x2="136.88" y1="4.5" y2="11.7" stroke="#fff" stroke-linecap="round" stroke-width="2.304"/>
  <line x1="144.08" x2="144.08" y1="4.5" y2="11.7" stroke="#fff" stroke-linecap="round" stroke-width="2.304"/>
  <line x1="122.48" x2="122.48" y1="47.7" y2="54.9" stroke="#fff" stroke-linecap="round" stroke-width="2.304"/>
  <line x1="115.28" x2="115.28" y1="54.9" y2="47.7" stroke="#fff" stroke-linecap="round" stroke-width="2.304"/>
  <line x1="108.08" x2="108.08" y1="47.7" y2="54.9" stroke="#fff" stroke-linecap="round" stroke-width="2.304"/>
  <line x1="100.88" x2="100.88" y1="54.9" y2="47.7" stroke="#fff" stroke-linecap="round" stroke-width="2.304"/>
  <line x1="136.88" x2="136.88" y1="47.7" y2="54.9" stroke="#fff" stroke-linecap="round" stroke-width="2.304"/>
  <line x1="144.08" x2="144.08" y1="47.7" y2="54.9" stroke="#fff" stroke-linecap="round" stroke-width="2.304"/>
  <line x1="86.485" x2="86.485" y1="47.7" y2="54.9" stroke="#fff" stroke-linecap="round" stroke-width="2.304"/>
  <line x1="79.285" x2="79.285" y1="54.9" y2="47.7" stroke="#fff" stroke-linecap="round" stroke-width="2.304"/>
  <line x1="72.085" x2="72.085" y1="47.7" y2="54.9" stroke="#fff" stroke-linecap="round" stroke-width="2.304"/>
  <line x1="64.885" x2="64.885" y1="54.9" y2="47.7" stroke="#fff" stroke-linecap="round" stroke-width="2.304"/>
  <line x1="50.485" x2="50.485" y1="47.7" y2="54.9" stroke="#fff" stroke-linecap="round" stroke-width="2.304"/>
  <line x1="43.285" x2="43.285" y1="54.9" y2="47.7" stroke="#fff" stroke-linecap="round" stroke-width="2.304"/>
  <line x1="36.085" x2="36.085" y1="47.7" y2="54.9" stroke="#fff" stroke-linecap="round" stroke-width="2.304"/>
  <line x1="28.885" x2="28.885" y1="54.9" y2="47.7" stroke="#fff" stroke-linecap="round" stroke-width="2.304"/>
  <line x1="14.485" x2="14.485" y1="47.7" y2="54.9" stroke="#fff" stroke-linecap="round" stroke-width="2.304"/>
  <line x1="7.285" x2="7.285" y1="54.9" y2="47.7" stroke="#fff" stroke-linecap="round" stroke-width="2.304"/>
  <line x1="36.085" x2="36.085" y1="4.5" y2="11.7" stroke="#fff" stroke-linecap="round" stroke-width="2.304"/>
  <rect x="18.085" y="15.3" width="7.2" height="14.4" fill="#fff" stroke-width="0"/>
  <rect x="54.085" y="15.3" width="7.2" height="14.4" fill="#fff" stroke-width="0"/>
  <rect x="90.085" y="15.3" width="7.2" height="14.4" fill="#fff" stroke-width="0"/>
  <rect x="90.085" y="58.5" width="7.2" height="14.4" fill="#fff" stroke-width="0"/>
  <rect x="54.085" y="58.5" width="7.2" height="14.4" fill="#fff" stroke-width="0"/>
  <rect x="18.085" y="58.5" width="7.2" height="14.4" fill="#fff" stroke-width="0"/>
  <rect x="126.44" y="59.58" width="7.2" height="14.4" fill="#fff" stroke-width="0"/>
  <rect x="126.08" y="14.22" width="7.2" height="14.4" fill="#fff" stroke-width="0"/>
  <g>
   <title>element:CAN</title>
   <g>
    <title>package:TERMBLOCK_1X3-3.5MM</title>
    <line x1="129.05" x2="144.92" y1="44.582" y2="44.582" stroke="#fff" stroke-linecap="round" stroke-width=".576"/>
    <line x1="144.92" x2="148.89" y1="44.582" y2="44.582" stroke="#fff" stroke-linecap="round" stroke-width=".576"/>
    <line x1="148.89" x2="148.89" y1="44.582" y2="14.818" stroke="#fff" stroke-linecap="round" stroke-width=".576"/>
    <line x1="148.89" x2="144.92" y1="14.818" y2="14.818" stroke="#fff" stroke-linecap="round" stroke-width=".576"/>
    <line x1="144.92" x2="129.05" y1="14.818" y2="14.818" stroke="#fff" stroke-linecap="round" stroke-width=".576"/>
    <line x1="129.05" x2="129.05" y1="14.818" y2="44.582" stroke="#fff" stroke-linecap="round" stroke-width=".576"/>
    <line x1="144.92" x2="144.92" y1="44.582" y2="14.818" stroke="#fff" stroke-linecap="round" stroke-width=".576"/>
   </g>
  </g>
  <g>
   <title>element:CB1</title>
   <g>
    <title>package:PICOWBELL_THM</title>
   </g>
  </g>
  <g>
   <title>element:IC2</title>
   <g>
    <title>package:SSOP20</title>
    <line x1="62.714" x2="62.714" y1="37.039" y2="17.321" stroke="#fff" stroke-linecap="round" stroke-width=".576"/>
    <line x1="62.714" x2="48.336" y1="17.321" y2="17.321" stroke="#fff" stroke-linecap="round" stroke-width=".576"/>
    <line x1="48.336" x2="48.336" y1="17.321" y2="37.039" stroke="#fff" stroke-linecap="round" stroke-width=".576"/>
    <line x1="62.714" x2="48.336" y1="37.039" y2="37.039" stroke="#fff" stroke-linecap="round" stroke-width=".576"/>
    <line x1="62.005" x2="62.005" y1="36.319" y2="18.041" stroke="#fff" stroke-linecap="round" stroke-width=".144"/>
    <line x1="49.045" x2="62.005" y1="18.041" y2="18.041" stroke="#fff" stroke-linecap="round" stroke-width=".144"/>
    <line x1="49.045" x2="49.045" y1="18.041" y2="36.319" stroke="#fff" stroke-linecap="round" stroke-width=".144"/>
    <line x1="62.005" x2="49.045" y1="36.319" y2="36.319" stroke="#fff" stroke-linecap="round" stroke-width=".144"/>
    <circle cx="59.485" cy="33.509" r="1.8" fill="none" stroke="#fff" stroke-width=".576"/>
   </g>
  </g>
  <g>
   <title>element:JP1</title>
   <g>
    <title>package:1X20_ROUND_70MIL</title>
   </g>
  </g>
  <g>
   <title>element:JP2</title>
   <g>
    <title>package:1X20_ROUND_70MIL</title>
   </g>
  </g>
  <g>
   <title>element:PLABEL80</title>
   <g>
    <title>package:PLABEL80</title>
   </g>
  </g>
  <g>
   <title>element:PLABEL84</title>
   <g>
    <title>package:PLABEL84</title>
   </g>
  </g>
  <g>
   <title>element:PLABEL85</title>
   <g>
    <title>package:PLABEL85</title>
   </g>
  </g>
  <line x1=".288" x2="1.885" y1="59.112" y2="59.112" fill="none" stroke="#fff" stroke-width=".576"/>
  <line x1=".288" x2="1.885" y1=".288" y2=".288" fill="none" stroke="#fff" stroke-width=".576"/>
  <line x1=".288" x2=".288" y1="59.112" y2=".288" fill="none" stroke="#fff" stroke-width=".576"/>
 </g>
 <g id="copper1">
  <g id="copper0">
   <circle id="connector134pad" cx="57.685" cy="11.7" r="1.9687" fill="none" stroke="#F7BD13" stroke-width="1.1027" connectorname="GND"/>
   <circle id="connector118pad" cx="86.485" cy="47.7" r="1.9687" fill="none" stroke="#F7BD13" stroke-width="1.1027" connectorname="IO9"/>
   <circle id="connector150pad" cx="36.445" cy="40.5" r="1.9687" fill="none" stroke="#F7BD13" stroke-width="1.1027" connectorname="SILENT"/>
   <circle id="connector110pad" cx="28.885" cy="47.7" r="1.9687" fill="none" stroke="#F7BD13" stroke-width="1.1027" connectorname="IO2"/>
   <circle id="connector126pad" cx="144.08" cy="47.7" r="1.9687" fill="none" stroke="#F7BD13" stroke-width="1.1027" connectorname="IO15"/>
   <circle id="connector142pad" cx="115.28" cy="11.7" r="1.9687" fill="none" stroke="#F7BD13" stroke-width="1.1027" connectorname="MOSI"/>
   <circle id="connector114pad" cx="57.685" cy="47.7" r="1.9687" fill="none" stroke="#F7BD13" stroke-width="1.1027" connectorname="GND"/>
   <circle id="connector122pad" cx="115.28" cy="47.7" r="1.9687" fill="none" stroke="#F7BD13" stroke-width="1.1027" connectorname="IO12"/>
   <circle id="connector130pad" cx="28.885" cy="11.7" r="1.9687" fill="none" stroke="#F7BD13" stroke-width="1.1027" connectorname="!EN"/>
   <circle id="connector138pad" cx="86.485" cy="11.7" r="1.9687" fill="none" stroke="#F7BD13" stroke-width="1.1027" connectorname="IO22"/>
   <circle id="connector146pad" cx="144.08" cy="11.7" r="1.9687" fill="none" stroke="#F7BD13" stroke-width="1.1027" connectorname="MISO"/>
   <circle id="connector25pad" cx="138.68" cy="19.779" r="2.2567" fill="none" stroke="#F7BD13" stroke-width="1.6787" connectorname="CAN_L"/>
   <circle id="connector26pad" cx="138.68" cy="29.7" r="2.2567" fill="none" stroke="#F7BD13" stroke-width="1.6787" connectorname="GND"/>
   <circle id="connector27pad" cx="138.68" cy="39.621" r="2.2567" fill="none" stroke="#F7BD13" stroke-width="1.6787" connectorname="CAN_H"/>
   <circle id="connector28pad" cx="7.285" cy="54.9" r="1.9687" fill="none" stroke="#F7BD13" stroke-width="1.1027" connectorname="IO0"/>
   <circle id="connector29pad" cx="14.485" cy="54.9" r="1.9687" fill="none" stroke="#F7BD13" stroke-width="1.1027" connectorname="IO1"/>
   <circle id="connector30pad" cx="21.685" cy="54.9" r="1.9687" fill="none" stroke="#F7BD13" stroke-width="1.1027" connectorname="GND"/>
   <rect x="19.716" y="52.931" width="3.9373" height="3.9373" fill="none" stroke="#F7BD13" stroke-width="1.1027"/>
   <circle id="connector108pad" cx="14.485" cy="47.7" r="1.9687" fill="none" stroke="#F7BD13" stroke-width="1.1027" connectorname="IO1"/>
   <circle id="connector31pad" cx="28.885" cy="54.9" r="1.9687" fill="none" stroke="#F7BD13" stroke-width="1.1027" connectorname="IO2"/>
   <circle id="connector112pad" cx="43.285" cy="47.7" r="1.9687" fill="none" stroke="#F7BD13" stroke-width="1.1027" connectorname="IO4"/>
   <circle id="connector32pad" cx="36.085" cy="54.9" r="1.9687" fill="none" stroke="#F7BD13" stroke-width="1.1027" connectorname="IO3"/>
   <circle id="connector116pad" cx="72.085" cy="47.7" r="1.9687" fill="none" stroke="#F7BD13" stroke-width="1.1027" connectorname="IO7"/>
   <circle id="connector33pad" cx="43.285" cy="54.9" r="1.9687" fill="none" stroke="#F7BD13" stroke-width="1.1027" connectorname="IO4"/>
   <circle id="connector120pad" cx="100.88" cy="47.7" r="1.9687" fill="none" stroke="#F7BD13" stroke-width="1.1027" connectorname="IO10"/>
   <circle id="connector34pad" cx="50.485" cy="54.9" r="1.9687" fill="none" stroke="#F7BD13" stroke-width="1.1027" connectorname="IO5"/>
   <circle id="connector124pad" cx="129.68" cy="47.7" r="1.9687" fill="none" stroke="#F7BD13" stroke-width="1.1027" connectorname="GND"/>
   <circle id="connector35pad" cx="57.685" cy="54.9" r="1.9687" fill="none" stroke="#F7BD13" stroke-width="1.1027" connectorname="GND"/>
   <rect x="55.716" y="52.931" width="3.9373" height="3.9373" fill="none" stroke="#F7BD13" stroke-width="1.1027"/>
   <circle id="connector128pad" cx="14.485" cy="11.7" r="1.9687" fill="none" stroke="#F7BD13" stroke-width="1.1027" connectorname="VSYS"/>
   <circle id="connector36pad" cx="64.885" cy="54.9" r="1.9687" fill="none" stroke="#F7BD13" stroke-width="1.1027" connectorname="IO6"/>
   <circle id="connector132pad" cx="43.285" cy="11.7" r="1.9687" fill="none" stroke="#F7BD13" stroke-width="1.1027" connectorname="VREF"/>
   <circle id="connector37pad" cx="72.085" cy="54.9" r="1.9687" fill="none" stroke="#F7BD13" stroke-width="1.1027" connectorname="IO7"/>
   <circle id="connector136pad" cx="72.085" cy="11.7" r="1.9687" fill="none" stroke="#F7BD13" stroke-width="1.1027" connectorname="AD0"/>
   <circle id="connector38pad" cx="79.285" cy="54.9" r="1.9687" fill="none" stroke="#F7BD13" stroke-width="1.1027" connectorname="IO8"/>
   <circle id="connector140pad" cx="100.88" cy="11.7" r="1.9687" fill="none" stroke="#F7BD13" stroke-width="1.1027" connectorname="CAN_INT_DEFAULT"/>
   <circle id="connector39pad" cx="86.485" cy="54.9" r="1.9687" fill="none" stroke="#F7BD13" stroke-width="1.1027" connectorname="IO9"/>
   <circle id="connector144pad" cx="129.68" cy="11.7" r="1.9687" fill="none" stroke="#F7BD13" stroke-width="1.1027" connectorname="GND"/>
   <circle id="connector40pad" cx="93.685" cy="54.9" r="1.9687" fill="none" stroke="#F7BD13" stroke-width="1.1027" connectorname="GND"/>
   <rect x="91.716" y="52.931" width="3.9373" height="3.9373" fill="none" stroke="#F7BD13" stroke-width="1.1027"/>
   <circle id="connector148pad" cx="36.445" cy="26.1" r="1.9687" fill="none" stroke="#F7BD13" stroke-width="1.1027" connectorname="CAN_CS"/>
   <circle id="connector41pad" cx="100.88" cy="54.9" r="1.9687" fill="none" stroke="#F7BD13" stroke-width="1.1027" connectorname="IO10"/>
   <circle id="connector42pad" cx="108.08" cy="54.9" r="1.9687" fill="none" stroke="#F7BD13" stroke-width="1.1027" connectorname="IO11"/>
   <circle id="connector43pad" cx="115.28" cy="54.9" r="1.9687" fill="none" stroke="#F7BD13" stroke-width="1.1027" connectorname="IO12"/>
   <circle id="connector44pad" cx="122.48" cy="54.9" r="1.9687" fill="none" stroke="#F7BD13" stroke-width="1.1027" connectorname="IO13"/>
   <circle id="connector45pad" cx="129.68" cy="54.9" r="1.9687" fill="none" stroke="#F7BD13" stroke-width="1.1027" connectorname="GND"/>
   <rect x="127.72" y="52.931" width="3.9373" height="3.9373" fill="none" stroke="#F7BD13" stroke-width="1.1027"/>
   <circle id="connector46pad" cx="136.88" cy="54.9" r="1.9687" fill="none" stroke="#F7BD13" stroke-width="1.1027" connectorname="IO14"/>
   <circle id="connector47pad" cx="144.08" cy="54.9" r="1.9687" fill="none" stroke="#F7BD13" stroke-width="1.1027" connectorname="IO15"/>
   <circle id="connector48pad" cx="144.08" cy="4.5" r="1.9687" fill="none" stroke="#F7BD13" stroke-width="1.1027" connectorname="MISO"/>
   <circle id="connector49pad" cx="136.88" cy="4.5" r="1.9687" fill="none" stroke="#F7BD13" stroke-width="1.1027" connectorname="IO17"/>
   <circle id="connector50pad" cx="129.68" cy="4.5" r="1.9687" fill="none" stroke="#F7BD13" stroke-width="1.1027" connectorname="GND"/>
   <rect x="127.72" y="2.5313" width="3.9373" height="3.9373" fill="none" stroke="#F7BD13" stroke-width="1.1027"/>
   <circle id="connector51pad" cx="122.48" cy="4.5" r="1.9687" fill="none" stroke="#F7BD13" stroke-width="1.1027" connectorname="SCK"/>
   <circle id="connector52pad" cx="115.28" cy="4.5" r="1.9687" fill="none" stroke="#F7BD13" stroke-width="1.1027" connectorname="MOSI"/>
   <circle id="connector53pad" cx="108.08" cy="4.5" r="1.9687" fill="none" stroke="#F7BD13" stroke-width="1.1027" connectorname="CAN_CS_DEFAULT"/>
   <circle id="connector54pad" cx="100.88" cy="4.5" r="1.9687" fill="none" stroke="#F7BD13" stroke-width="1.1027" connectorname="CAN_INT_DEFAULT"/>
   <circle id="connector55pad" cx="93.685" cy="4.5" r="1.9687" fill="none" stroke="#F7BD13" stroke-width="1.1027" connectorname="GND"/>
   <rect x="91.716" y="2.5313" width="3.9373" height="3.9373" fill="none" stroke="#F7BD13" stroke-width="1.1027"/>
   <circle id="connector107pad" cx="7.285" cy="47.7" r="1.9687" fill="none" stroke="#F7BD13" stroke-width="1.1027" connectorname="IO0"/>
   <circle id="connector56pad" cx="86.485" cy="4.5" r="1.9687" fill="none" stroke="#F7BD13" stroke-width="1.1027" connectorname="IO22"/>
   <circle id="connector109pad" cx="21.685" cy="47.7" r="1.9687" fill="none" stroke="#F7BD13" stroke-width="1.1027" connectorname="GND"/>
   <circle id="connector57pad" cx="79.285" cy="4.5" r="1.9687" fill="none" stroke="#F7BD13" stroke-width="1.1027" connectorname="!RESET"/>
   <circle id="connector111pad" cx="36.085" cy="47.7" r="1.9687" fill="none" stroke="#F7BD13" stroke-width="1.1027" connectorname="IO3"/>
   <circle id="connector58pad" cx="72.085" cy="4.5" r="1.9687" fill="none" stroke="#F7BD13" stroke-width="1.1027" connectorname="AD0"/>
   <circle id="connector113pad" cx="50.485" cy="47.7" r="1.9687" fill="none" stroke="#F7BD13" stroke-width="1.1027" connectorname="IO5"/>
   <circle id="connector59pad" cx="64.885" cy="4.5" r="1.9687" fill="none" stroke="#F7BD13" stroke-width="1.1027" connectorname="AD1"/>
   <circle id="connector115pad" cx="64.885" cy="47.7" r="1.9687" fill="none" stroke="#F7BD13" stroke-width="1.1027" connectorname="IO6"/>
   <circle id="connector60pad" cx="57.685" cy="4.5" r="1.9687" fill="none" stroke="#F7BD13" stroke-width="1.1027" connectorname="GND"/>
   <rect x="55.716" y="2.5313" width="3.9373" height="3.9373" fill="none" stroke="#F7BD13" stroke-width="1.1027"/>
   <circle id="connector117pad" cx="79.285" cy="47.7" r="1.9687" fill="none" stroke="#F7BD13" stroke-width="1.1027" connectorname="IO8"/>
   <circle id="connector61pad" cx="50.485" cy="4.5" r="1.9687" fill="none" stroke="#F7BD13" stroke-width="1.1027" connectorname="AD2"/>
   <circle id="connector119pad" cx="93.685" cy="47.7" r="1.9687" fill="none" stroke="#F7BD13" stroke-width="1.1027" connectorname="GND"/>
   <circle id="connector62pad" cx="43.285" cy="4.5" r="1.9687" fill="none" stroke="#F7BD13" stroke-width="1.1027" connectorname="VREF"/>
   <circle id="connector121pad" cx="108.08" cy="47.7" r="1.9687" fill="none" stroke="#F7BD13" stroke-width="1.1027" connectorname="IO11"/>
   <circle id="connector63pad" cx="36.085" cy="4.5" r="1.9687" fill="none" stroke="#F7BD13" stroke-width="1.1027" connectorname="3.3V"/>
   <circle id="connector123pad" cx="122.48" cy="47.7" r="1.9687" fill="none" stroke="#F7BD13" stroke-width="1.1027" connectorname="IO13"/>
   <circle id="connector64pad" cx="28.885" cy="4.5" r="1.9687" fill="none" stroke="#F7BD13" stroke-width="1.1027" connectorname="!EN"/>
   <circle id="connector125pad" cx="136.88" cy="47.7" r="1.9687" fill="none" stroke="#F7BD13" stroke-width="1.1027" connectorname="IO14"/>
   <circle id="connector65pad" cx="21.685" cy="4.5" r="1.9687" fill="none" stroke="#F7BD13" stroke-width="1.1027" connectorname="GND"/>
   <rect x="19.716" y="2.5313" width="3.9373" height="3.9373" fill="none" stroke="#F7BD13" stroke-width="1.1027"/>
   <circle id="connector127pad" cx="7.285" cy="11.7" r="1.9687" fill="none" stroke="#F7BD13" stroke-width="1.1027" connectorname="VBUS"/>
   <circle id="connector66pad" cx="14.485" cy="4.5" r="1.9687" fill="none" stroke="#F7BD13" stroke-width="1.1027" connectorname="VSYS"/>
   <circle id="connector129pad" cx="21.685" cy="11.7" r="1.9687" fill="none" stroke="#F7BD13" stroke-width="1.1027" connectorname="GND"/>
   <circle id="connector67pad" cx="7.285" cy="4.5" r="1.9687" fill="none" stroke="#F7BD13" stroke-width="1.1027" connectorname="VBUS"/>
   <circle id="connector131pad" cx="36.085" cy="11.7" r="1.9687" fill="none" stroke="#F7BD13" stroke-width="1.1027" connectorname="3.3V"/>
   <rect id="connector68pad" x="14.014" y="24.598" width="4.3937" height="1.7008" fill="#F7BD13" stroke-width="0"/>
   <circle id="connector133pad" cx="50.485" cy="11.7" r="1.9687" fill="none" stroke="#F7BD13" stroke-width="1.1027" connectorname="AD2"/>
   <rect id="connector69pad" x="14.014" y="27.432" width="4.3937" height="1.7008" fill="#F7BD13" stroke-width="0"/>
   <circle id="connector135pad" cx="64.885" cy="11.7" r="1.9687" fill="none" stroke="#F7BD13" stroke-width="1.1027" connectorname="AD1"/>
   <rect id="connector70pad" x="14.014" y="30.267" width="4.3937" height="1.7008" fill="#F7BD13" stroke-width="0"/>
   <circle id="connector137pad" cx="79.285" cy="11.7" r="1.9687" fill="none" stroke="#F7BD13" stroke-width="1.1027" connectorname="!RESET"/>
   <rect id="connector71pad" x="14.014" y="33.102" width="4.3937" height="1.7008" fill="#F7BD13" stroke-width="0"/>
   <circle id="connector139pad" cx="93.685" cy="11.7" r="1.9687" fill="none" stroke="#F7BD13" stroke-width="1.1027" connectorname="GND"/>
   <circle id="connector141pad" cx="108.08" cy="11.7" r="1.9687" fill="none" stroke="#F7BD13" stroke-width="1.1027" connectorname="CAN_CS_DEFAULT"/>
   <circle id="connector143pad" cx="122.48" cy="11.7" r="1.9687" fill="none" stroke="#F7BD13" stroke-width="1.1027" connectorname="SCK"/>
   <circle id="connector145pad" cx="136.88" cy="11.7" r="1.9687" fill="none" stroke="#F7BD13" stroke-width="1.1027" connectorname="IO17"/>
   <circle id="connector147pad" cx="36.445" cy="18.9" r="1.9687" fill="none" stroke="#F7BD13" stroke-width="1.1027" connectorname="!CAN_INT"/>
   <circle id="connector149pad" cx="36.445" cy="33.3" r="1.9687" fill="none" stroke="#F7BD13" stroke-width="1.1027" connectorname="CAN_RESET"/>
  </g>
 </g>
</svg>
