<?xml version="1.0" encoding="UTF-8"?>
<!-- Created with Fritzing (http://www.fritzing.org/) -->
<svg width=".7in" height=".7in" baseProfile="tiny" version="1.2" viewBox="0 0 50.4 50.4" xmlns="http://www.w3.org/2000/svg">
 <desc>
  <referenceFile>Adafruit_BMP183_pcb.svg</referenceFile>
 </desc>
 <desc>Fritzing footprint generated by brd2svg</desc>
 <g id="silkscreen">
  <path d="m42.994 50.112h-35.589a6.912 6.912 0 0 1-7.1177-7.1177v-35.589a6.912 6.912 0 0 1 7.1177-7.1177h35.589a6.912 6.912 0 0 1 7.1177 7.1177v35.589a6.912 6.912 0 0 1-7.1177 7.1177" fill="none" stroke="#fff" stroke-width=".576"/>
  <g>
   <title>element:JP2</title>
   <g>
    <title>package:1X07_ROUND_70</title>
   </g>
  </g>
  <g>
   <title>element:U3</title>
   <g>
    <title>package:BMP18X_EXTENDED</title>
    <line x1="30.728" x2="30.728" y1="15.789" y2="27.411" stroke="#fff" stroke-linecap="round" stroke-width=".36"/>
    <line x1="30.728" x2="19.672" y1="27.411" y2="27.411" stroke="#fff" stroke-linecap="round" stroke-width=".36"/>
    <line x1="19.672" x2="19.672" y1="27.411" y2="15.789" stroke="#fff" stroke-linecap="round" stroke-width=".36"/>
    <line x1="19.672" x2="30.728" y1="15.789" y2="15.789" stroke="#fff" stroke-linecap="round" stroke-width=".36"/>
    <circle cx="20.948" cy="13.238" r=".56693" fill="none" stroke="#fff" stroke-width=".99212"/>
   </g>
  </g>
 </g>
 <g id="copper1">
  <g id="copper0" fill="none" stroke="#F7BD13" stroke-width="1.1027">
   <circle id="connector10pad" cx="3.6" cy="43.2" r="1.9687" connectorname="VIN"/>
   <circle id="connector11pad" cx="10.8" cy="43.2" r="1.9687" connectorname="+3V3"/>
   <circle id="connector12pad" cx="18" cy="43.2" r="1.9687" connectorname="GND"/>
   <circle id="connector13pad" cx="25.2" cy="43.2" r="1.9687" connectorname="SCK"/>
   <circle id="connector14pad" cx="32.4" cy="43.2" r="1.9687" connectorname="SDO"/>
   <circle id="connector15pad" cx="39.6" cy="43.2" r="1.9687" connectorname="SDI"/>
   <circle id="connector16pad" cx="46.8" cy="43.2" r="1.9687" connectorname="CS"/>
  </g>
 </g>
</svg>
