<?xml version="1.0" encoding="UTF-8"?>
<!-- Created with Fritzing (http://www.fritzing.org/) -->
<svg width=".75in" height="1.0517in" baseProfile="tiny" version="1.2" viewBox="0 0 54 75.725" xmlns="http://www.w3.org/2000/svg">
 <desc>
  <referenceFile>Adafruit TB6612 DC and Stepper Motor Driver_pcb.svg</referenceFile>
 </desc>
 <desc>Fritzing footprint generated by brd2svg</desc>
 <g id="silkscreen">
  <path d="m53.712 7.557v60.735a6.912 6.912 0 0 1-7.1232 7.1451h-39.178a6.912 6.912 0 0 1-7.1232-7.1451v-60.735a6.912 6.912 0 0 1 7.1232-7.1452h39.178a6.912 6.912 0 0 1 7.1232 7.1452" fill="none" stroke="#fff" stroke-width=".576"/>
  <line x1="54" x2="41.4" y1="30.725" y2="30.725" stroke="#fff" stroke-linecap="round" stroke-width=".72"/>
  <line x1="41.4" x2="41.4" y1="30.725" y2="45.125" stroke="#fff" stroke-linecap="round" stroke-width=".72"/>
  <line x1="41.4" x2="54" y1="45.125" y2="45.125" stroke="#fff" stroke-linecap="round" stroke-width=".72"/>
  <g>
   <title>element:J1</title>
   <g>
    <title>package:TERMBLOCK_1X2-3.5MM</title>
    <line x1="36.278" x2="36.278" y1="19.843" y2="3.9685" stroke="#fff" stroke-linecap="round" stroke-width=".576"/>
    <line x1="36.278" x2="36.278" y1="3.9685" stroke="#fff" stroke-linecap="round" stroke-width=".576"/>
    <line x1="36.278" x2="16.435" stroke="#fff" stroke-linecap="round" stroke-width=".576"/>
    <line x1="16.435" x2="16.435" y2="3.9685" stroke="#fff" stroke-linecap="round" stroke-width=".576"/>
    <line x1="16.435" x2="16.435" y1="3.9685" y2="19.843" stroke="#fff" stroke-linecap="round" stroke-width=".576"/>
    <line x1="16.435" x2="36.278" y1="19.843" y2="19.843" stroke="#fff" stroke-linecap="round" stroke-width=".576"/>
    <line x1="36.278" x2="16.435" y1="3.9685" y2="3.9685" stroke="#fff" stroke-linecap="round" stroke-width=".576"/>
   </g>
  </g>
  <g>
   <title>element:JP1</title>
   <g>
    <title>package:1X10_ROUND_76</title>
   </g>
  </g>
  <g>
   <title>element:U$15</title>
   <g>
    <title>package:ADAFRUIT_5MM</title>
   </g>
  </g>
  <g>
   <title>element:U1</title>
   <g>
    <title>package:SSOP24</title>
    <line x1="35.269" x2="35.269" y1="44.946" y2="21.543" stroke="#fff" stroke-linecap="round" stroke-width=".576"/>
    <line x1="35.269" x2="20.891" y1="21.543" y2="21.543" stroke="#fff" stroke-linecap="round" stroke-width=".576"/>
    <line x1="20.891" x2="20.891" y1="21.543" y2="44.946" stroke="#fff" stroke-linecap="round" stroke-width=".576"/>
    <line x1="35.269" x2="20.891" y1="44.946" y2="44.946" stroke="#fff" stroke-linecap="round" stroke-width=".576"/>
    <line x1="34.56" x2="34.56" y1="44.226" y2="22.263" stroke="#fff" stroke-linecap="round" stroke-width=".144"/>
    <line x1="21.6" x2="34.56" y1="22.263" y2="22.263" stroke="#fff" stroke-linecap="round" stroke-width=".144"/>
    <line x1="21.6" x2="21.6" y1="22.263" y2="44.226" stroke="#fff" stroke-linecap="round" stroke-width=".144"/>
    <line x1="34.56" x2="21.6" y1="44.226" y2="44.226" stroke="#fff" stroke-linecap="round" stroke-width=".144"/>
    <circle cx="32.04" cy="41.417" r="1.8" fill="none" stroke="#fff" stroke-width=".576"/>
   </g>
  </g>
  <line x1="16.435" x2="36.278" y1=".288" y2=".288" fill="none" stroke="#fff" stroke-width=".576"/>
  <line x1="16.435" x2="16.435" y1=".12472" y2=".288" fill="none" stroke="#fff" stroke-width=".576"/>
  <line x1="36.278" x2="36.278" y1=".12472" y2=".288" fill="none" stroke="#fff" stroke-width=".576"/>
 </g>
 <g id="copper1">
  <g id="copper0" fill="none" stroke="#F7BD13">
   <circle id="connector29pad" cx="46.8" cy="7.3247" r="4.2633" stroke-width="1.44" connectorname="P$1"/>
   <circle id="connector6pad" cx="21.538" cy="10.205" r="2.2567" stroke-width="1.6787" connectorname="PWRIN"/>
   <circle id="connector7pad" cx="31.459" cy="10.205" r="2.2567" stroke-width="1.6787" connectorname="GND"/>
   <circle id="connector8pad" cx="7.2" cy="5.5247" r="2.0767" stroke-width="1.3187" connectorname="PWRIN"/>
   <circle id="connector9pad" cx="7.2" cy="12.725" r="2.0767" stroke-width="1.3187" connectorname="VCC"/>
   <circle id="connector10pad" cx="7.2" cy="19.925" r="2.0767" stroke-width="1.3187" connectorname="GND"/>
   <circle id="connector11pad" cx="7.2" cy="27.125" r="2.0767" stroke-width="1.3187" connectorname="PWMB"/>
   <circle id="connector12pad" cx="7.2" cy="34.325" r="2.0767" stroke-width="1.3187" connectorname="BIN2"/>
   <circle id="connector13pad" cx="7.2" cy="41.525" r="2.0767" stroke-width="1.3187" connectorname="BIN1"/>
   <circle id="connector14pad" cx="7.2" cy="48.725" r="2.0767" stroke-width="1.3187" connectorname="STBY"/>
   <circle id="connector30pad" cx="46.8" cy="68.525" r="4.2633" stroke-width="1.44" connectorname="P$1"/>
   <circle id="connector15pad" cx="7.2" cy="55.925" r="2.0767" stroke-width="1.3187" connectorname="AIN1"/>
   <circle id="connector16pad" cx="7.2" cy="63.125" r="2.0767" stroke-width="1.3187" connectorname="AIN2"/>
   <circle id="connector17pad" cx="7.2" cy="70.325" r="2.0767" stroke-width="1.3187" connectorname="PWMA"/>
   <circle id="connector18pad" cx="50.4" cy="55.925" r="1.98" stroke-width="1.08" connectorname="MA1"/>
   <circle id="connector19pad" cx="50.4" cy="48.725" r="1.98" stroke-width="1.08" connectorname="MA2"/>
   <circle id="connector20pad" cx="50.4" cy="41.525" r="1.98" stroke-width="1.08" connectorname="GND"/>
   <circle id="connector21pad" cx="50.4" cy="34.325" r="1.98" stroke-width="1.08" connectorname="GND"/>
   <circle id="connector22pad" cx="50.4" cy="27.125" r="1.98" stroke-width="1.08" connectorname="MB2"/>
   <circle id="connector23pad" cx="50.4" cy="19.925" r="1.98" stroke-width="1.08" connectorname="MB1"/>
  </g>
 </g>
</svg>
