<?xml version="1.0" encoding="UTF-8"?>
<!-- Created with Fritzing (http://www.fritzing.org/) -->
<svg width=".7in" height="1.65in" baseProfile="tiny" version="1.2" viewBox="0 0 50.4 118.8" xmlns="http://www.w3.org/2000/svg">
 <desc>
  <referenceFile>Adafruit Color Newxie TFT Display_pcb.svg</referenceFile>
 </desc>
 <desc>Fritzing footprint generated by brd2svg</desc>
 <g id="silkscreen">
  <path d="m39.435 0.288h6.7619a3.312 3.312 0 0 1 3.5588 3.5826v114.46l-49.112 0.179v-114.64a3.312 3.312 0 0 1 3.5589-3.5826h6.7619a3.312 3.312 0 0 1 3.5588 3.5826v10.748h21.353v-10.748a3.312 3.312 0 0 1 3.5588-3.5826m5.6942 84.548h-38.792v11.106h38.792v-11.106m-44.149-70.616a0.27893 0.27893 0 1 0 0.55786 0 0.27893 0.27893 0 1 0-0.55786 0zm1.98 0a0.27893 0.27893 0 1 0 0.55786 0 0.27893 0.27893 0 1 0-0.55786 0zm1.98 0a0.27893 0.27893 0 1 0 0.55786 0 0.27893 0.27893 0 1 0-0.55786 0zm1.98 0a0.27893 0.27893 0 1 0 0.55786 0 0.27893 0.27893 0 1 0-0.55786 0zm1.98 0a0.27893 0.27893 0 1 0 0.55786 0 0.27893 0.27893 0 1 0-0.55786 0zm1.98 0a0.27893 0.27893 0 1 0 0.55786 0 0.27893 0.27893 0 1 0-0.55786 0zm1.98 0a0.27893 0.27893 0 1 0 0.55786 0 0.27893 0.27893 0 1 0-0.55786 0zm24.12 0a0.27893 0.27893 0 1 0 0.55786 0 0.27893 0.27893 0 1 0-0.55786 0zm1.98 0a0.27893 0.27893 0 1 0 0.55786 0 0.27893 0.27893 0 1 0-0.55786 0zm1.98 0a0.27893 0.27893 0 1 0 0.55786 0 0.27893 0.27893 0 1 0-0.55786 0zm1.98 0a0.27893 0.27893 0 1 0 0.55786 0 0.27893 0.27893 0 1 0-0.55786 0zm1.98 0a0.27893 0.27893 0 1 0 0.55786 0 0.27893 0.27893 0 1 0-0.55786 0zm1.98 0a0.27893 0.27893 0 1 0 0.55786 0 0.27893 0.27893 0 1 0-0.55786 0zm1.98 0a0.27893 0.27893 0 1 0 0.55786 0 0.27893 0.27893 0 1 0-0.55786 0z" fill="none" stroke="#fff" stroke-width=".576"/>
  <g>
   <title>element:DISP2</title>
   <g>
    <title>package:TFT_1.14IN_240X135_FPC</title>
    <line x1="18.964" x2="13.011" y1="45.862" y2="45.862" stroke="#fff" stroke-linecap="round" stroke-width=".576"/>
    <line x1="13.011" x2="13.011" y1="45.862" y2="46.429" stroke="#fff" stroke-linecap="round" stroke-width=".576"/>
    <line x1="32.003" x2="37.389" y1="45.862" y2="45.862" stroke="#fff" stroke-linecap="round" stroke-width=".576"/>
    <line x1="37.389" x2="37.389" y1="45.862" y2="46.429" stroke="#fff" stroke-linecap="round" stroke-width=".576"/>
    <line x1="35.121" x2="35.121" y1="57.824" y2="75.215" stroke="#fff" stroke-linecap="round" stroke-width=".432"/>
    <line x1="15.279" x2="15.279" y1="57.824" y2="75.215" stroke="#fff" stroke-linecap="round" stroke-width=".432"/>
    <line x1="35.121" x2="36.539" y1="75.215" y2="79.466" stroke="#fff" stroke-linecap="round" stroke-width=".432"/>
    <line x1="36.539" x2="36.539" y1="79.466" y2="100.73" stroke="#fff" stroke-linecap="round" stroke-width=".432"/>
    <line x1="15.279" x2="8.1922" y1="75.215" y2="82.301" stroke="#fff" stroke-linecap="round" stroke-width=".432"/>
    <line x1="8.1922" x2="8.1922" y1="82.301" y2="100.73" stroke="#fff" stroke-linecap="round" stroke-width=".432"/>
   </g>
  </g>
  <g>
   <title>element:JP2</title>
   <g>
    <title>package:2X07_ROUND_70MIL</title>
    <line x1="50.4" x2="48.6" y1="106.2" y2="104.4" stroke="#fff" stroke-linecap="round" stroke-width=".576"/>
    <line x1="45" x2="43.2" y1="104.4" y2="106.2" stroke="#fff" stroke-linecap="round" stroke-width=".576"/>
    <line x1="43.2" x2="41.4" y1="106.2" y2="104.4" stroke="#fff" stroke-linecap="round" stroke-width=".576"/>
    <line x1="37.8" x2="36" y1="104.4" y2="106.2" stroke="#fff" stroke-linecap="round" stroke-width=".576"/>
    <line x1="36" x2="34.2" y1="106.2" y2="104.4" stroke="#fff" stroke-linecap="round" stroke-width=".576"/>
    <line x1="30.6" x2="28.8" y1="104.4" y2="106.2" stroke="#fff" stroke-linecap="round" stroke-width=".576"/>
    <line x1="28.8" x2="27" y1="106.2" y2="104.4" stroke="#fff" stroke-linecap="round" stroke-width=".576"/>
    <line x1="23.4" x2="21.6" y1="104.4" y2="106.2" stroke="#fff" stroke-linecap="round" stroke-width=".576"/>
    <line x1="21.6" x2="19.8" y1="106.2" y2="104.4" stroke="#fff" stroke-linecap="round" stroke-width=".576"/>
    <line x1="16.2" x2="14.4" y1="104.4" y2="106.2" stroke="#fff" stroke-linecap="round" stroke-width=".576"/>
    <line x1="14.4" x2="12.6" y1="106.2" y2="104.4" stroke="#fff" stroke-linecap="round" stroke-width=".576"/>
    <line x1="9" x2="7.2" y1="104.4" y2="106.2" stroke="#fff" stroke-linecap="round" stroke-width=".576"/>
    <line x1="50.4" x2="50.4" y1="106.2" y2="117" stroke="#fff" stroke-linecap="round" stroke-width=".576"/>
    <line x1="50.4" x2="48.6" y1="117" y2="118.8" stroke="#fff" stroke-linecap="round" stroke-width=".576"/>
    <line x1="48.6" x2="45" y1="118.8" y2="118.8" stroke="#fff" stroke-linecap="round" stroke-width=".576"/>
    <line x1="45" x2="43.2" y1="118.8" y2="117" stroke="#fff" stroke-linecap="round" stroke-width=".576"/>
    <line x1="43.2" x2="41.4" y1="117" y2="118.8" stroke="#fff" stroke-linecap="round" stroke-width=".576"/>
    <line x1="41.4" x2="37.8" y1="118.8" y2="118.8" stroke="#fff" stroke-linecap="round" stroke-width=".576"/>
    <line x1="37.8" x2="36" y1="118.8" y2="117" stroke="#fff" stroke-linecap="round" stroke-width=".576"/>
    <line x1="36" x2="34.2" y1="117" y2="118.8" stroke="#fff" stroke-linecap="round" stroke-width=".576"/>
    <line x1="34.2" x2="30.6" y1="118.8" y2="118.8" stroke="#fff" stroke-linecap="round" stroke-width=".576"/>
    <line x1="30.6" x2="28.8" y1="118.8" y2="117" stroke="#fff" stroke-linecap="round" stroke-width=".576"/>
    <line x1="28.8" x2="27" y1="117" y2="118.8" stroke="#fff" stroke-linecap="round" stroke-width=".576"/>
    <line x1="27" x2="23.4" y1="118.8" y2="118.8" stroke="#fff" stroke-linecap="round" stroke-width=".576"/>
    <line x1="23.4" x2="21.6" y1="118.8" y2="117" stroke="#fff" stroke-linecap="round" stroke-width=".576"/>
    <line x1="21.6" x2="19.8" y1="117" y2="118.8" stroke="#fff" stroke-linecap="round" stroke-width=".576"/>
    <line x1="19.8" x2="16.2" y1="118.8" y2="118.8" stroke="#fff" stroke-linecap="round" stroke-width=".576"/>
    <line x1="16.2" x2="14.4" y1="118.8" y2="117" stroke="#fff" stroke-linecap="round" stroke-width=".576"/>
    <line x1="14.4" x2="12.6" y1="117" y2="118.8" stroke="#fff" stroke-linecap="round" stroke-width=".576"/>
    <line x1="12.6" x2="9" y1="118.8" y2="118.8" stroke="#fff" stroke-linecap="round" stroke-width=".576"/>
    <line x1="9" x2="7.2" y1="118.8" y2="117" stroke="#fff" stroke-linecap="round" stroke-width=".576"/>
    <line x1="43.2" x2="43.2" y1="117" y2="106.2" stroke="#fff" stroke-linecap="round" stroke-width=".576"/>
    <line x1="36" x2="36" y1="117" y2="106.2" stroke="#fff" stroke-linecap="round" stroke-width=".576"/>
    <line x1="28.8" x2="28.8" y1="117" y2="106.2" stroke="#fff" stroke-linecap="round" stroke-width=".576"/>
    <line x1="21.6" x2="21.6" y1="117" y2="106.2" stroke="#fff" stroke-linecap="round" stroke-width=".576"/>
    <line x1="14.4" x2="14.4" y1="117" y2="106.2" stroke="#fff" stroke-linecap="round" stroke-width=".576"/>
    <line x1="7.2" x2="7.2" y1="117" y2="106.2" stroke="#fff" stroke-linecap="round" stroke-width=".576"/>
    <line x1="12.6" x2="9" y1="104.4" y2="104.4" stroke="#fff" stroke-linecap="round" stroke-width=".576"/>
    <line x1="19.8" x2="16.2" y1="104.4" y2="104.4" stroke="#fff" stroke-linecap="round" stroke-width=".576"/>
    <line x1="27" x2="23.4" y1="104.4" y2="104.4" stroke="#fff" stroke-linecap="round" stroke-width=".576"/>
    <line x1="34.2" x2="30.6" y1="104.4" y2="104.4" stroke="#fff" stroke-linecap="round" stroke-width=".576"/>
    <line x1="41.4" x2="37.8" y1="104.4" y2="104.4" stroke="#fff" stroke-linecap="round" stroke-width=".576"/>
    <line x1="48.6" x2="45" y1="104.4" y2="104.4" stroke="#fff" stroke-linecap="round" stroke-width=".576"/>
    <line x1="7.2" x2="5.4" y1="106.2" y2="104.4" stroke="#fff" stroke-linecap="round" stroke-width=".576"/>
    <line x1="1.8" y1="104.4" y2="106.2" stroke="#fff" stroke-linecap="round" stroke-width=".576"/>
    <line x1="7.2" x2="5.4" y1="117" y2="118.8" stroke="#fff" stroke-linecap="round" stroke-width=".576"/>
    <line x1="5.4" x2="1.8" y1="118.8" y2="118.8" stroke="#fff" stroke-linecap="round" stroke-width=".576"/>
    <line x1="1.8" y1="118.8" y2="117" stroke="#fff" stroke-linecap="round" stroke-width=".576"/>
    <line y1="117" y2="106.2" stroke="#fff" stroke-linecap="round" stroke-width=".576"/>
    <line x1="5.4" x2="1.8" y1="104.4" y2="104.4" stroke="#fff" stroke-linecap="round" stroke-width=".576"/>
   </g>
  </g>
  <g>
   <title>element:PLABEL0</title>
   <g>
    <title>package:PLABEL0</title>
   </g>
  </g>
  <line x1=".288" x2=".36" y1="103.56" y2="103.56" fill="none" stroke="#fff" stroke-width=".576"/>
  <line x1=".288" x2=".36" y1="15.687" y2="15.687" fill="none" stroke="#fff" stroke-width=".576"/>
  <line x1=".288" x2=".288" y1="103.56" y2="15.687" fill="none" stroke="#fff" stroke-width=".576"/>
  <line x1=".288" x2=".36" y1="118.51" y2="118.51" fill="none" stroke="#fff" stroke-width=".576"/>
  <line x1=".288" x2=".36" y1="104.4" y2="104.4" fill="none" stroke="#fff" stroke-width=".576"/>
  <line x1=".288" x2=".288" y1="118.51" y2="104.4" fill="none" stroke="#fff" stroke-width=".576"/>
 </g>
 <g id="copper1">
  <g id="copper0" fill="none" stroke="#F7BD13">
   <circle id="connector54pad" cx="7.2" cy="7.2" r="4.2633" stroke-width="1.44" connectorname="P$1"/>
   <circle id="connector26pad" cx="46.8" cy="108" r="1.9687" stroke-width="1.1027" connectorname="VIN"/>
   <circle id="connector27pad" cx="46.8" cy="115.2" r="1.9687" stroke-width="1.1027" connectorname="VIN"/>
   <circle id="connector28pad" cx="39.6" cy="108" r="1.9687" stroke-width="1.1027" connectorname="GND"/>
   <circle id="connector29pad" cx="39.6" cy="115.2" r="1.9687" stroke-width="1.1027" connectorname="GND"/>
   <circle id="connector55pad" cx="43.2" cy="7.38" r="4.2633" stroke-width="1.44" connectorname="P$1"/>
   <circle id="connector30pad" cx="32.4" cy="108" r="1.9687" stroke-width="1.1027" connectorname="SCK"/>
   <circle id="connector31pad" cx="32.4" cy="115.2" r="1.9687" stroke-width="1.1027" connectorname="SCK"/>
   <circle id="connector32pad" cx="25.2" cy="108" r="1.9687" stroke-width="1.1027" connectorname="MOSI"/>
   <circle id="connector33pad" cx="25.2" cy="115.2" r="1.9687" stroke-width="1.1027" connectorname="MOSI"/>
   <circle id="connector34pad" cx="18" cy="108" r="1.9687" stroke-width="1.1027" connectorname="TFTCS"/>
   <circle id="connector35pad" cx="18" cy="115.2" r="1.9687" stroke-width="1.1027" connectorname="TFTCS"/>
   <circle id="connector36pad" cx="10.8" cy="108" r="1.9687" stroke-width="1.1027" connectorname="DC"/>
   <circle id="connector37pad" cx="10.8" cy="115.2" r="1.9687" stroke-width="1.1027" connectorname="DC"/>
   <circle id="connector38pad" cx="3.6" cy="108" r="1.9687" stroke-width="1.1027" connectorname="BACKLIGHT"/>
   <circle id="connector39pad" cx="3.6" cy="115.2" r="1.9687" stroke-width="1.1027" connectorname="BACKLIGHT"/>
  </g>
 </g>
</svg>
