<?xml version="1.0" encoding="UTF-8"?>
<!-- Created with Fritzing (http://www.fritzing.org/) -->
<svg width="1.4961in" height="1.1224in" baseProfile="tiny" version="1.2" viewBox="0 0 107.72 80.811" xmlns="http://www.w3.org/2000/svg">
 <desc>
  <referenceFile>Adafruit OLED Monochrome 128x64 0.96 inch_pcb.svg</referenceFile>
 </desc>
 <desc>Fritzing footprint generated by brd2svg</desc>
 <g id="silkscreen">
  <path d="m11.566 80.523a11.051 11.05 0 0 1-11.278-11.258v-59.103a10.366 10.366 0 0 1 11.278-9.8505h84.584a11.051 11.05 0 0 1 11.278 11.258v57.696a11.051 11.05 0 0 1-11.278 11.258h-84.584m19.484-5.6425a0.27893 0.27893 0 1 0 0.55786 0 0.27893 0.27893 0 1 0-0.55786 0zm45.355 0a0.27893 0.27893 0 1 0 0.55786 0 0.27893 0.27893 0 1 0-0.55786 0z" fill="none" stroke="#fff" stroke-width=".576"/>
  <g>
   <title>element:JP1</title>
   <g>
    <title>package:1X08_ROUND_70</title>
   </g>
  </g>
  <g>
   <title>element:U1</title>
   <g>
    <title>package:UG-2864HSWEG01_0.96IN_WRAPAROUND</title>
    <line x1="16.155" x2="91.848" y1="18.726" y2="18.726" stroke="#fff" stroke-linecap="round" stroke-width=".36"/>
    <line x1="91.848" x2="91.848" y1="18.726" y2="73.321" stroke="#fff" stroke-linecap="round" stroke-width=".36"/>
    <line x1="91.848" x2="16.163" y1="73.321" y2="73.321" stroke="#fff" stroke-linecap="round" stroke-width=".36"/>
    <line x1="16.163" x2="16.155" y1="73.321" y2="18.726" stroke="#fff" stroke-linecap="round" stroke-width=".36"/>
   </g>
  </g>
 </g>
 <g id="copper1">
  <g id="copper0" fill="none" stroke="#F7BD13">
   <circle id="connector6pad" cx="35.858" cy="8.7259" r="1.9687" stroke-width="1.1027" connectorname="SCLK_SCK"/>
   <circle id="connector12pad" cx="79.058" cy="8.7259" r="1.9687" stroke-width="1.1027" connectorname="GND"/>
   <circle id="connector14pad" cx="8.5039" cy="72.306" r="4.0394" stroke-width=".99212" connectorname="P$1"/>
   <circle id="connector7pad" cx="43.058" cy="8.7259" r="1.9687" stroke-width="1.1027" connectorname="DC_SA0"/>
   <circle id="connector16pad" cx="8.5039" cy="8.5275" r="4.0394" stroke-width=".99212" connectorname="P$1"/>
   <circle id="connector8pad" cx="50.258" cy="8.7259" r="1.9687" stroke-width="1.1027" connectorname="RESET"/>
   <circle id="connector13pad" cx="99.212" cy="8.5275" r="4.0394" stroke-width=".99212" connectorname="P$1"/>
   <circle id="connector9pad" cx="57.458" cy="8.7259" r="1.9687" stroke-width="1.1027" connectorname="CS"/>
   <circle id="connector15pad" cx="99.212" cy="72.306" r="4.0394" stroke-width=".99212" connectorname="P$1"/>
   <circle id="connector10pad" cx="64.658" cy="8.7259" r="1.9687" stroke-width="1.1027" connectorname="3.3V"/>
   <circle id="connector11pad" cx="71.858" cy="8.7259" r="1.9687" stroke-width="1.1027" connectorname="VIN"/>
   <circle id="connector5pad" cx="28.658" cy="8.7259" r="1.9687" stroke-width="1.1027" connectorname="MOSI_SDA"/>
  </g>
 </g>
</svg>
