<?xml version="1.0" encoding="UTF-8"?>
<!-- Created with Fritzing (http://www.fritzing.org/) -->
<svg width="1.1001in" height=".975in" baseProfile="tiny" version="1.2" viewBox="0 0 79.204 70.2" xmlns="http://www.w3.org/2000/svg">
 <desc>
  <referenceFile>coin20mm_pcb.svg</referenceFile>
 </desc>
 <desc>Fritzing footprint generated by brd2svg</desc>
 <g id="silkscreen">
  <path d="m0.29018 62.771v-51.772a7.0942 7.0942 0 0 1 7.1476-7.498h12.324a6.7483 6.7483 0 0 1 4.7067 1.4098l5.9644 3.9643a9.1912 9.1912 0 0 0 6.1363 2.4809h6.6016a6.912 6.912 0 0 0 4.9353-1.9754l5.1489-3.547a10.731 10.731 0 0 1 7.7943-2.3325h10.717a7.0942 7.0942 0 0 1 7.1476 7.498v51.772a6.912 6.912 0 0 1-7.1476 7.1409h-64.329a6.912 6.912 0 0 1-7.1476-7.1409" fill="none" stroke="#fff" stroke-width=".576"/>
  <g>
   <title>element:B1</title>
   <g>
    <title>package:CR2032_SMT_BAT-HLD-001</title>
    <line x1="60.862" x2="18.909" y1="49.21" y2="49.21" stroke="#fff" stroke-linecap="round" stroke-width=".36"/>
    <line x1="18.059" x2="10.405" y1="49.21" y2="41.556" stroke="#fff" stroke-linecap="round" stroke-width=".36"/>
    <line x1="10.405" x2="10.405" y1="41.556" y2="35.603" stroke="#fff" stroke-linecap="round" stroke-width=".36"/>
    <line x1="10.405" x2="10.405" y1="21.43" y2="16.894" stroke="#fff" stroke-linecap="round" stroke-width=".36"/>
    <line x1="10.405" x2="18.909" y1="16.894" y2="8.3905" stroke="#fff" stroke-linecap="round" stroke-width=".36"/>
    <path d="m27.413 7.5401a6.7481 6.7481 0 0 0-8.5039 0.85039" fill="none" stroke="#fff" stroke-width=".36"/>
    <path d="m27.413 7.5401a22.807 22.807 0 0 0 25.228 0" fill="none" stroke="#fff" stroke-width=".36"/>
    <path d="m61.146 8.3905a6.7481 6.7481 0 0 0-8.5039-0.85039" fill="none" stroke="#fff" stroke-width=".36"/>
    <line x1="61.146" x2="69.082" y1="8.3905" y2="16.328" stroke="#fff" stroke-linecap="round" stroke-width=".36"/>
    <line x1="69.082" x2="69.082" y1="16.328" y2="21.43" stroke="#fff" stroke-linecap="round" stroke-width=".36"/>
    <line x1="69.082" x2="69.082" y1="35.887" y2="40.989" stroke="#fff" stroke-linecap="round" stroke-width=".36"/>
    <line x1="69.082" x2="60.862" y1="40.989" y2="49.21" stroke="#fff" stroke-linecap="round" stroke-width=".36"/>
   </g>
  </g>
  <line x1="7.5707" x2="72.201" y1=".288" y2=".288" fill="none" stroke="#fff" stroke-width=".576"/>
  <line x1="7.5707" x2="7.5707" y1="3.1954" y2=".288" fill="none" stroke="#fff" stroke-width=".576"/>
  <line x1="72.201" x2="72.201" y1="3.1954" y2=".288" fill="none" stroke="#fff" stroke-width=".576"/>
 </g>
 <g id="copper1">
  <g id="copper0" fill="none">
   <circle id="connector9pad" cx="7.2022" cy="11.16" r="4.2633" stroke="#F7BD13" stroke-width="1.44" connectorname="P$1"/>
   <circle id="connector11pad" cx="7.2022" cy="63" r="4.2633" stroke="#F7BD13" stroke-width="1.44" connectorname="P$1"/>
   <circle id="connector3pad" cx="49.682" cy="65.16" r="1.98" stroke="#F7BD13" stroke-width="1.08" connectorname="GND"/>
   <rect id="connector3terminal" x="49.677" y="67.675" width=".01008" height=".01008" stroke-width="0"/>
   <circle id="connector4pad" cx="42.482" cy="65.16" r="1.98" stroke="#F7BD13" stroke-width="1.08" connectorname="GND"/>
   <rect id="connector4terminal" x="42.477" y="67.675" width=".01008" height=".01008" stroke-width="0"/>
   <circle id="connector10pad" cx="72.722" cy="11.16" r="4.2633" stroke="#F7BD13" stroke-width="1.44" connectorname="P$1"/>
   <circle id="connector5pad" cx="35.282" cy="65.16" r="1.98" stroke="#F7BD13" stroke-width="1.08" connectorname="V+"/>
   <rect id="connector5terminal" x="35.277" y="67.675" width=".01008" height=".01008" stroke-width="0"/>
   <circle id="connector12pad" cx="72.002" cy="63" r="4.2633" stroke="#F7BD13" stroke-width="1.44" connectorname="P$1"/>
   <circle id="connector6pad" cx="28.082" cy="65.16" r="1.98" stroke="#F7BD13" stroke-width="1.08" connectorname="V+"/>
   <rect id="connector6terminal" x="28.077" y="67.675" width=".01008" height=".01008" stroke-width="0"/>
  </g>
 </g>
</svg>
