<?xml version="1.0" encoding="UTF-8"?>
<!-- Created with Fritzing (http://www.fritzing.org/) -->
<svg width=".815in" height=".765in" baseProfile="tiny" version="1.2" viewBox="0 0 58.68 55.08" xmlns="http://www.w3.org/2000/svg">
 <desc>
  <referenceFile>Adafruit NeoKey BFF_pcb.svg</referenceFile>
 </desc>
 <desc>Fritzing footprint generated by brd2svg</desc>
 <g id="silkscreen">
  <path d="m7.4173 53.011a6.912 6.912 0 0 1-7.1293-7.1247v-35.624a6.912 6.912 0 0 1 7.1293-7.1247h43.845a6.912 6.912 0 0 1 7.1293 7.1247v35.624a6.912 6.912 0 0 1-7.1293 7.1247h-43.845m17.223-26.011a5.2396 5.2396 0 1 0 10.479 0 5.2396 5.2396 0 1 0-10.479 0zm8.1922 14.4a4.2474 4.2474 0 1 0 8.4948 0 4.2474 4.2474 0 1 0-8.4948 0zm-18-7.2a4.2474 4.2474 0 1 0 8.4948 0 4.2474 4.2474 0 1 0-8.4948 0zm27.165-7.2a2.2823 2.2823 0 1 0 4.5646 0 2.2823 2.2823 0 1 0-4.5646 0zm-28.8 0a2.2823 2.2823 0 1 0 4.5646 0 2.2823 2.2823 0 1 0-4.5646 0z" fill="none" stroke="#fff" stroke-width=".576"/>
  <line x1="1.08" x2="3.96" y1="38.52" y2="41.4" stroke="#fff" stroke-linecap="round" stroke-width=".72"/>
  <line x1="3.96" x2="3.96" y1="41.4" y2="35.64" stroke="#fff" stroke-linecap="round" stroke-width=".72"/>
  <line x1="3.96" x2="1.08" y1="35.64" y2="38.52" stroke="#fff" stroke-linecap="round" stroke-width=".72"/>
  <g>
   <title>element:JP1</title>
   <g>
    <title>package:1X07_CASTEL</title>
   </g>
  </g>
  <g>
   <title>element:JP3</title>
   <g>
    <title>package:1X07_CASTEL</title>
   </g>
  </g>
  <g>
   <title>element:LED2</title>
   <g>
    <title>package:NEO3535_REVERSE</title>
    <circle cx="23.04" cy="19.08" r=".36" fill="none" stroke="#fff" stroke-width=".432"/>
   </g>
  </g>
  <g>
   <title>element:SW2</title>
   <g>
    <title>package:KAILH_SOCKET</title>
    <line x1="43.557" x2="43.557" y1="36.284" y2="46.162" stroke="#fff" stroke-linecap="round" stroke-width=".17008"/>
    <line x1="43.557" x2="18.286" y1="46.162" y2="46.162" stroke="#fff" stroke-linecap="round" stroke-width=".17008"/>
    <path d="m12.617 40.493a5.6693 5.6693 0 0 0 5.6693 5.6693" fill="none" stroke="#fff" stroke-width=".17008"/>
    <line x1="12.617" x2="12.617" y1="40.493" y2="29.424" stroke="#fff" stroke-linecap="round" stroke-width=".17008"/>
    <path d="m23.176 30.827a6.2722 6.2722 0 0 0 5.8393 3.9827" fill="none" stroke="#fff" stroke-width=".17008"/>
    <path d="m22.964 30.232a1.345 1.345 0 0 0-1.2331-0.8079" fill="none" stroke="#fff" stroke-width=".17008"/>
    <path d="m23.219 30.926a6.3011 6.3011 0 0 0-0.2551-0.6945" fill="none" stroke="#fff" stroke-width=".17008"/>
    <line x1="12.617" x2="21.73" y1="29.424" y2="29.424" stroke="#fff" stroke-linecap="round" stroke-width=".17008"/>
    <line x1="29.015" x2="42.126" y1="34.81" y2="34.81" stroke="#fff" stroke-linecap="round" stroke-width=".17008"/>
    <path d="m43.557 36.241a1.4315 1.4315 0 0 0-1.4315-1.4314" fill="none" stroke="#fff" stroke-width=".17008"/>
   </g>
  </g>
  <line x1="3.8282" x2="54.852" y1="54.792" y2="54.792" fill="none" stroke="#fff" stroke-width=".576"/>
  <line x1="3.8282" x2="3.8282" y1="54.792" y2="53.28" fill="none" stroke="#fff" stroke-width=".576"/>
  <line x1="54.852" x2="54.852" y1="54.792" y2="53.28" fill="none" stroke="#fff" stroke-width=".576"/>
  <line x1="3.8282" x2="54.852" y1="1.08" y2="1.08" fill="none" stroke="#fff" stroke-width=".576"/>
  <line x1="3.8282" x2="3.8282" y1="2.88" y2="1.08" fill="none" stroke="#fff" stroke-width=".576"/>
  <line x1="54.852" x2="54.852" y1="2.88" y2="1.08" fill="none" stroke="#fff" stroke-width=".576"/>
  <line x1="2.88" x2="56.88" y1="54" y2="54" fill="none" stroke="#fff" stroke-width=".576"/>
  <line x1="2.88" x2="2.88" y1="54" y2="53.28" fill="none" stroke="#fff" stroke-width=".576"/>
  <line x1="56.88" x2="56.88" y1="54" y2="53.28" fill="none" stroke="#fff" stroke-width=".576"/>
 </g>
 <g id="copper1">
  <g id="copper0">
   <circle id="connector30pad" cx="22.14" cy="2.727" r="1.9687" fill="none" stroke="#F7BD13" stroke-width="1.1027" connectorname="3.3V"/>
   <path d="m20.171-1.8009h3.9373v9.0559h-3.9373v-9.0559m0 4.5279a1.9687 1.9687 0 1 0 3.9373 0 1.9687 1.9687 0 1 0-3.9373 0z" fill="#F7BD13" stroke-width="0"/>
   <circle id="connector7pad" cx="7.74" cy="49.68" r="1.9687" fill="none" stroke="#F7BD13" stroke-width="1.1027" connectorname="A0"/>
   <circle id="connector8pad" cx="7.74" cy="53.433" r="1.9687" fill="none" stroke="#F7BD13" stroke-width="1.1027" connectorname="A0"/>
   <path d="m5.7713 48.905h3.9373v9.0559h-3.9373v-9.0559m0 4.5279a1.9687 1.9687 0 1 0 3.9373 0 1.9687 1.9687 0 1 0-3.9373 0z" fill="#F7BD13" stroke-width="0"/>
   <circle id="connector34pad" cx="7.74" cy="2.727" r="1.9687" fill="none" stroke="#F7BD13" stroke-width="1.1027" connectorname="+5V"/>
   <path d="m5.7713-1.8009h3.9373v9.0559h-3.9373v-9.0559m0 4.5279a1.9687 1.9687 0 1 0 3.9373 0 1.9687 1.9687 0 1 0-3.9373 0z" fill="#F7BD13" stroke-width="0"/>
   <circle id="connector9pad" cx="14.94" cy="49.68" r="1.9687" fill="none" stroke="#F7BD13" stroke-width="1.1027" connectorname="A1"/>
   <rect id="connector42pad" x="45.144" y="32.292" width="3.312" height="4.536" fill="#F7BD13" stroke-width="0"/>
   <circle id="connector10pad" cx="14.94" cy="53.433" r="1.9687" fill="none" stroke="#F7BD13" stroke-width="1.1027" connectorname="A1"/>
   <path d="m12.971 48.905h3.9373v9.0559h-3.9373v-9.0559m0 4.5279a1.9687 1.9687 0 1 0 3.9373 0 1.9687 1.9687 0 1 0-3.9373 0z" fill="#F7BD13" stroke-width="0"/>
   <circle id="connector11pad" cx="22.14" cy="49.68" r="1.9687" fill="none" stroke="#F7BD13" stroke-width="1.1027" connectorname="A2"/>
   <circle id="connector32pad" cx="14.94" cy="2.727" r="1.9687" fill="none" stroke="#F7BD13" stroke-width="1.1027" connectorname="GND"/>
   <path d="m12.971-1.8009h3.9373v9.0559h-3.9373v-9.0559m0 4.5279a1.9687 1.9687 0 1 0 3.9373 0 1.9687 1.9687 0 1 0-3.9373 0z" fill="#F7BD13" stroke-width="0"/>
   <circle id="connector12pad" cx="22.14" cy="53.433" r="1.9687" fill="none" stroke="#F7BD13" stroke-width="1.1027" connectorname="A2"/>
   <path d="m20.171 48.905h3.9373v9.0559h-3.9373v-9.0559m0 4.5279a1.9687 1.9687 0 1 0 3.9373 0 1.9687 1.9687 0 1 0-3.9373 0z" fill="#F7BD13" stroke-width="0"/>
   <circle id="connector13pad" cx="29.34" cy="49.68" r="1.9687" fill="none" stroke="#F7BD13" stroke-width="1.1027" connectorname="A3"/>
   <g transform="matrix(-1 0 0 -1 86.4 32.4)">
    <rect id="connector40pad" x="41.544" y="13.932" width="3.312" height="4.536" fill="#F7BD13" stroke-width="0"/>
   </g>
   <circle id="connector14pad" cx="29.34" cy="53.433" r="1.9687" fill="none" stroke="#F7BD13" stroke-width="1.1027" connectorname="A3"/>
   <path d="m27.371 48.905h3.9373v9.0559h-3.9373v-9.0559m0 4.5279a1.9687 1.9687 0 1 0 3.9373 0 1.9687 1.9687 0 1 0-3.9373 0z" fill="#F7BD13" stroke-width="0"/>
   <circle id="connector15pad" cx="36.54" cy="49.68" r="1.9687" fill="none" stroke="#F7BD13" stroke-width="1.1027" connectorname="SDA"/>
   <g transform="matrix(-1 0 0 -1 108 84.96)">
    <rect id="connector48pad" x="51.874" y="39.645" width="4.252" height="5.6693" fill="#F7BD13" stroke-width="0"/>
   </g>
   <circle id="connector16pad" cx="36.54" cy="53.433" r="1.9687" fill="none" stroke="#F7BD13" stroke-width="1.1027" connectorname="SDA"/>
   <path d="m34.571 48.905h3.9373v9.0559h-3.9373v-9.0559m0 4.5279a1.9687 1.9687 0 1 0 3.9373 0 1.9687 1.9687 0 1 0-3.9373 0z" fill="#F7BD13" stroke-width="0"/>
   <circle id="connector29pad" cx="22.14" cy="6.48" r="1.9687" fill="none" stroke="#F7BD13" stroke-width="1.1027" connectorname="3.3V"/>
   <circle id="connector17pad" cx="43.74" cy="49.68" r="1.9687" fill="none" stroke="#F7BD13" stroke-width="1.1027" connectorname="SCL"/>
   <circle id="connector31pad" cx="14.94" cy="6.48" r="1.9687" fill="none" stroke="#F7BD13" stroke-width="1.1027" connectorname="GND"/>
   <circle id="connector18pad" cx="43.74" cy="53.433" r="1.9687" fill="none" stroke="#F7BD13" stroke-width="1.1027" connectorname="SCL"/>
   <path d="m41.771 48.905h3.9373v9.0559h-3.9373v-9.0559m0 4.5279a1.9687 1.9687 0 1 0 3.9373 0 1.9687 1.9687 0 1 0-3.9373 0z" fill="#F7BD13" stroke-width="0"/>
   <circle id="connector33pad" cx="7.74" cy="6.48" r="1.9687" fill="none" stroke="#F7BD13" stroke-width="1.1027" connectorname="+5V"/>
   <circle id="connector19pad" cx="50.94" cy="49.68" r="1.9687" fill="none" stroke="#F7BD13" stroke-width="1.1027" connectorname="TX"/>
   <circle id="connector20pad" cx="50.94" cy="53.433" r="1.9687" fill="none" stroke="#F7BD13" stroke-width="1.1027" connectorname="TX"/>
   <path d="m48.971 48.905h3.9373v9.0559h-3.9373v-9.0559m0 4.5279a1.9687 1.9687 0 1 0 3.9373 0 1.9687 1.9687 0 1 0-3.9373 0z" fill="#F7BD13" stroke-width="0"/>
   <circle id="connector21pad" cx="50.94" cy="6.48" r="1.9687" fill="none" stroke="#F7BD13" stroke-width="1.1027" connectorname="RX"/>
   <g transform="matrix(-1 0 0 -1 95.04 32.4)">
    <rect id="connector39pad" x="45.864" y="13.932" width="3.312" height="4.536" fill="#F7BD13" stroke-width="0"/>
   </g>
   <circle id="connector22pad" cx="50.94" cy="2.727" r="1.9687" fill="none" stroke="#F7BD13" stroke-width="1.1027" connectorname="RX"/>
   <path d="m48.971-1.8009h3.9373v9.0559h-3.9373v-9.0559m0 4.5279a1.9687 1.9687 0 1 0 3.9373 0 1.9687 1.9687 0 1 0-3.9373 0z" fill="#F7BD13" stroke-width="0"/>
   <circle id="connector23pad" cx="43.74" cy="6.48" r="1.9687" fill="none" stroke="#F7BD13" stroke-width="1.1027" connectorname="SCK"/>
   <rect id="connector43pad" x="49.464" y="32.292" width="3.312" height="4.536" fill="#F7BD13" stroke-width="0"/>
   <circle id="connector24pad" cx="43.74" cy="2.727" r="1.9687" fill="none" stroke="#F7BD13" stroke-width="1.1027" connectorname="SCK"/>
   <path d="m41.771-1.8009h3.9373v9.0559h-3.9373v-9.0559m0 4.5279a1.9687 1.9687 0 1 0 3.9373 0 1.9687 1.9687 0 1 0-3.9373 0z" fill="#F7BD13" stroke-width="0"/>
   <circle id="connector25pad" cx="36.54" cy="6.48" r="1.9687" fill="none" stroke="#F7BD13" stroke-width="1.1027" connectorname="MISO"/>
   <rect id="connector47pad" x="51.874" y="10.845" width="4.252" height="5.6693" fill="#F7BD13" stroke-width="0"/>
   <circle id="connector26pad" cx="36.54" cy="2.727" r="1.9687" fill="none" stroke="#F7BD13" stroke-width="1.1027" connectorname="MISO"/>
   <path d="m34.571-1.8009h3.9373v9.0559h-3.9373v-9.0559m0 4.5279a1.9687 1.9687 0 1 0 3.9373 0 1.9687 1.9687 0 1 0-3.9373 0z" fill="#F7BD13" stroke-width="0"/>
   <circle id="connector27pad" cx="29.34" cy="6.48" r="1.9687" fill="none" stroke="#F7BD13" stroke-width="1.1027" connectorname="MOSI"/>
   <circle id="connector28pad" cx="29.34" cy="2.727" r="1.9687" fill="none" stroke="#F7BD13" stroke-width="1.1027" connectorname="MOSI"/>
   <path d="m27.371-1.8009h3.9373v9.0559h-3.9373v-9.0559m0 4.5279a1.9687 1.9687 0 1 0 3.9373 0 1.9687 1.9687 0 1 0-3.9373 0z" fill="#F7BD13" stroke-width="0"/>
  </g>
 </g>
</svg>
