<?xml version="1.0" encoding="UTF-8"?>
<!-- Created with Fritzing (http://www.fritzing.org/) -->
<svg width="1.97in" height="1.05in" baseProfile="tiny" version="1.2" viewBox="0 0 141.84 75.6" xmlns="http://www.w3.org/2000/svg">
 <desc>
  <referenceFile>Adafruit 7-segment LED Backpack_pcb.svg</referenceFile>
 </desc>
 <desc>Fritzing footprint generated by brd2svg</desc>
 <g id="silkscreen">
  <path d="m7.4588 75.312a6.912 6.912 0 0 1-7.1708-7.1451v-60.734a6.912 6.912 0 0 1 7.1708-7.1451h126.92a6.912 6.912 0 0 1 7.17 7.1451v60.734a6.912 6.912 0 0 1-7.17 7.1451h-126.92m122.83-5.112a2.5466 2.5466 0 1 0 5.0933 0 2.5466 2.5466 0 1 0-5.0933 0zm-123.84 0a2.5466 2.5466 0 1 0 5.0933 0 2.5466 2.5466 0 1 0-5.0933 0zm123.84-64.8a2.5466 2.5466 0 1 0 5.0933 0 2.5466 2.5466 0 1 0-5.0933 0zm-123.84 0a2.5466 2.5466 0 1 0 5.0933 0 2.5466 2.5466 0 1 0-5.0933 0z" fill="none" stroke="#fff" stroke-width=".576"/>
  <g>
   <title>element:LED2</title>
   <g>
    <title>package:SEGMENT-BL-Q56C43</title>
    <line x1=".053858" x2="141.79" y1="10.871" y2="10.871" stroke="#fff" stroke-linecap="round" stroke-width=".36"/>
    <line x1=".053858" x2=".053858" y1="64.729" y2="10.871" stroke="#fff" stroke-linecap="round" stroke-width=".36"/>
    <line x1="141.79" x2="141.79" y1="10.871" y2="64.729" stroke="#fff" stroke-linecap="round" stroke-width=".36"/>
    <line x1="141.79" x2=".053858" y1="64.729" y2="64.729" stroke="#fff" stroke-linecap="round" stroke-width=".36"/>
    <circle cx="42.12" cy="59.4" r="1.8" fill="none" stroke="#fff" stroke-width="3.6"/>
   </g>
  </g>
  <g>
   <title>element:U$3</title>
   <g>
    <title>package:ADAFRUIT_TEXT_20MM</title>
   </g>
  </g>
  <g>
   <title>element:U2</title>
   <g>
    <title>package:SOP28_300MIL</title>
   </g>
  </g>
 </g>
 <g id="copper1">
  <g id="copper0" fill="none" stroke="#F7BD13" stroke-width="1.08">
   <circle id="connector6pad" cx="73.8" cy="5.4" r="1.98" connectorname="SDA"/>
   <circle id="connector7pad" cx="66.6" cy="5.4" r="1.98" connectorname="GND"/>
   <circle id="connector8pad" cx="59.4" cy="5.4" r="1.98" connectorname="VDD"/>
   <circle id="connector5pad" cx="81" cy="5.4" r="1.98" connectorname="SCL"/>
  </g>
 </g>
</svg>
