<?xml version="1.0" encoding="UTF-8"?>
<!-- Created with Fritzing (http://www.fritzing.org/) -->
<svg width=".58in" height=".6004in" baseProfile="tiny" version="1.2" viewBox="0 0 41.76 43.229" xmlns="http://www.w3.org/2000/svg">
 <desc>
  <referenceFile>Adafruit Pi Stemma QT Breakout_pcb.svg</referenceFile>
 </desc>
 <desc>Fritzing footprint generated by brd2svg</desc>
 <g id="silkscreen">
  <path d="m41.472 0.31618v42.624h-41.184v-34.128a8.3141 8.3141 0 0 1 8.4572-8.5249l32.727 0.028179" fill="none" stroke="#fff" stroke-width=".576"/>
  <g>
   <title>element:CONN3</title>
   <g>
    <title>package:JST_SH4</title>
    <line x1="22.816" x2="22.816" y1="37.123" y2="29.753" stroke="#fff" stroke-linecap="round" stroke-width=".432"/>
    <line x1="22.816" x2="25.934" y1="29.753" y2="29.753" stroke="#fff" stroke-linecap="round" stroke-width=".432"/>
    <line x1="36.706" x2="40.108" y1="29.753" y2="29.753" stroke="#fff" stroke-linecap="round" stroke-width=".432"/>
    <line x1="40.108" x2="40.108" y1="29.753" y2="37.123" stroke="#fff" stroke-linecap="round" stroke-width=".432"/>
    <line x1="25.367" x2="37.273" y1="41.942" y2="41.942" stroke="#fff" stroke-linecap="round" stroke-width=".432"/>
   </g>
  </g>
  <g>
   <title>element:E$1</title>
   <g>
    <title>package:ADAFRUIT_3.5MM</title>
   </g>
  </g>
  <g>
   <title>element:PLABEL0</title>
   <g>
    <title>package:PLABEL0</title>
   </g>
  </g>
  <g>
   <title>element:PLABEL1</title>
   <g>
    <title>package:PLABEL1</title>
   </g>
  </g>
  <g>
   <title>element:U$4</title>
   <g>
    <title>package:MOUNTINGHOLE_3.0_PLATEDTHIN</title>
    <circle cx="9.8641" cy="11.333" r="6.2362" fill="none" stroke="#fff" stroke-width=".56693"/>
   </g>
  </g>
  <g>
   <title>element:U$5</title>
   <g>
    <title>package:STEMMAQT</title>
   </g>
  </g>
 </g>
 <g id="copper1">
  <g id="copper0">
   <g transform="matrix(0 -1 1 0 -1.8341 55.97)">
    <rect id="connector11pad" x="24.871" y="28.052" width="4.3937" height="1.7008" fill="#F7BD13" stroke-width="0"/>
   </g>
   <g transform="matrix(0 -1 1 0 1.0005 58.805)">
    <rect id="connector12pad" x="27.706" y="28.052" width="4.3937" height="1.7008" fill="#F7BD13" stroke-width="0"/>
   </g>
   <g transform="matrix(0 -1 1 0 3.8352 61.64)">
    <rect id="connector13pad" x="30.54" y="28.052" width="4.3937" height="1.7008" fill="#F7BD13" stroke-width="0"/>
   </g>
   <g transform="matrix(0 -1 1 0 6.6698 64.474)">
    <rect id="connector14pad" x="33.375" y="28.052" width="4.3937" height="1.7008" fill="#F7BD13" stroke-width="0"/>
   </g>
   <circle id="connector29pad" cx="9.8641" cy="11.333" r="4.972" fill="none" stroke="#F7BD13" stroke-width="1.44" connectorname="P$1"/>
  </g>
 </g>
</svg>
