<?xml version="1.0" encoding="UTF-8"?>
<!-- Created with Fritzing (http://www.fritzing.org/) -->
<svg width=".6in" height=".805in" baseProfile="tiny" version="1.2" viewBox="0 0 43.2 57.96" xmlns="http://www.w3.org/2000/svg">
 <desc>
  <referenceFile>FET_I2CShifter_v0.2_pcb.svg</referenceFile>
 </desc>
 <desc>Fritzing footprint generated by brd2svg</desc>
 <g id="silkscreen">
  <path d="m35.808 57.672h-28.416a6.912 6.912 0 0 1-7.104-7.1284v-43.127a6.912 6.912 0 0 1 7.104-7.1284h28.416a6.912 6.912 0 0 1 7.104 7.1284v43.127a6.912 6.912 0 0 1-7.104 7.1284" fill="none" stroke="#fff" stroke-width=".576"/>
  <g>
   <title>element:JP3</title>
   <g>
    <title>package:1X06-CLEANBIG</title>
   </g>
  </g>
  <g>
   <title>element:JP4</title>
   <g>
    <title>package:1X06-CLEANBIG</title>
   </g>
  </g>
 </g>
 <g id="copper1">
  <g id="copper0" fill="none" stroke="#F7BD13" stroke-width="1.08">
   <circle id="connector6pad" cx="7.2" cy="39.96" r="1.98" connectorname="A4"/>
   <circle id="connector7pad" cx="7.2" cy="32.76" r="1.98" connectorname="A3"/>
   <circle id="connector8pad" cx="7.2" cy="25.56" r="1.98" connectorname="A2"/>
   <circle id="connector9pad" cx="7.2" cy="18.36" r="1.98" connectorname="A1"/>
   <circle id="connector10pad" cx="7.2" cy="11.16" r="1.98" connectorname="LV"/>
   <circle id="connector11pad" cx="36" cy="47.16" r="1.98" connectorname="GND"/>
   <circle id="connector12pad" cx="36" cy="39.96" r="1.98" connectorname="B4"/>
   <circle id="connector13pad" cx="36" cy="32.76" r="1.98" connectorname="B3"/>
   <circle id="connector14pad" cx="36" cy="25.56" r="1.98" connectorname="B2"/>
   <circle id="connector15pad" cx="36" cy="18.36" r="1.98" connectorname="B1"/>
   <circle id="connector16pad" cx="36" cy="11.16" r="1.98" connectorname="HV"/>
   <circle id="connector5pad" cx="7.2" cy="47.16" r="1.98" connectorname="GND"/>
  </g>
 </g>
</svg>
