<?xml version="1.0" encoding="UTF-8"?>
<!-- Created with Fritzing (http://www.fritzing.org/) -->
<svg width="1.725in" height="1.65in" baseProfile="tiny" version="1.2" viewBox="0 0 124.2 118.8" xmlns="http://www.w3.org/2000/svg">
 <desc>
  <referenceFile>1.54inch 240x240 rev G_pcb.svg</referenceFile>
 </desc>
 <desc>Fritzing footprint generated by brd2svg</desc>
 <g id="silkscreen">
  <path d="m14.621 104.18v7.165a6.912 6.912 0 0 1-7.1666 7.165 6.912 6.912 0 0 1-7.1666-7.165v-103.89a6.912 6.912 0 0 1 7.1666-7.1651 6.912 6.912 0 0 1 7.1666 7.1651v7.1651h94.958v-7.1651a6.912 6.912 0 0 1 7.166-7.1651 6.912 6.912 0 0 1 7.167 7.1651v103.89a6.912 6.912 0 0 1-7.167 7.165 6.912 6.912 0 0 1-7.166-7.165v-7.165h-94.958m61.991-68.785h-13.975v49.439h13.975v-49.439" fill="none" stroke="#fff" stroke-width=".576"/>
  <g>
   <title>element:JP2</title>
   <g>
    <title>package:1X12_ROUND_76MIL</title>
   </g>
  </g>
  <g>
   <title>element:Q2</title>
   <g>
    <title>package:MICROSD</title>
   </g>
  </g>
  <g>
   <title>element:TFT1</title>
   <g>
    <title>package:TFT_1.54IN_240X240_22PIN</title>
    <line x1="19.61" x2="19.61" y1="97.951" y2="20.849" stroke="#fff" stroke-linecap="round" stroke-width=".36"/>
    <line x1="19.61" x2="96.713" y1="20.849" y2="20.849" stroke="#fff" stroke-linecap="round" stroke-width=".36"/>
    <line x1="96.713" x2="96.713" y1="20.849" y2="97.951" stroke="#fff" stroke-linecap="round" stroke-width=".36"/>
    <line x1="96.713" x2="19.61" y1="97.951" y2="97.951" stroke="#fff" stroke-linecap="round" stroke-width=".36"/>
    <line x1="15.358" x2="15.358" y1="104.07" y2="14.726" stroke="#fff" stroke-linecap="round" stroke-width=".36"/>
    <line x1="15.358" x2="113.72" y1="14.726" y2="14.726" stroke="#fff" stroke-linecap="round" stroke-width=".36"/>
    <line x1="113.72" x2="113.72" y1="14.726" y2="104.07" stroke="#fff" stroke-linecap="round" stroke-width=".36"/>
    <line x1="113.72" x2="15.358" y1="104.07" y2="104.07" stroke="#fff" stroke-linecap="round" stroke-width=".36"/>
   </g>
  </g>
 </g>
 <g id="copper1">
  <g id="copper0" fill="none" stroke="#F7BD13">
   <circle id="connector6pad" cx="5.4" cy="27.72" r="2.0767" stroke-width="1.3187" connectorname="+3V3"/>
   <circle id="connector18pad" cx="117" cy="111.6" r="4.2633" stroke-width="1.44" connectorname="P$1"/>
   <circle id="connector14pad" cx="5.4" cy="85.32" r="2.0767" stroke-width="1.3187" connectorname="CARDCS"/>
   <circle id="connector7pad" cx="5.4" cy="34.92" r="2.0767" stroke-width="1.3187" connectorname="GND"/>
   <circle id="connector16pad" cx="5.4" cy="99.72" r="2.0767" stroke-width="1.3187" connectorname="TE"/>
   <circle id="connector8pad" cx="5.4" cy="42.12" r="2.0767" stroke-width="1.3187" connectorname="SCK"/>
   <circle id="connector20pad" cx="7.2" cy="111.6" r="4.2633" stroke-width="1.44" connectorname="P$1"/>
   <circle id="connector9pad" cx="5.4" cy="49.32" r="2.0767" stroke-width="1.3187" connectorname="MISO"/>
   <circle id="connector15pad" cx="5.4" cy="92.52" r="2.0767" stroke-width="1.3187" connectorname="LITE"/>
   <circle id="connector10pad" cx="5.4" cy="56.52" r="2.0767" stroke-width="1.3187" connectorname="MOSI"/>
   <circle id="connector17pad" cx="117" cy="7.2" r="4.2633" stroke-width="1.44" connectorname="P$1"/>
   <circle id="connector11pad" cx="5.4" cy="63.72" r="2.0767" stroke-width="1.3187" connectorname="TFTCS"/>
   <circle id="connector19pad" cx="7.2" cy="7.2" r="4.2633" stroke-width="1.44" connectorname="P$1"/>
   <circle id="connector12pad" cx="5.4" cy="70.92" r="2.0767" stroke-width="1.3187" connectorname="TFTRST"/>
   <circle id="connector13pad" cx="5.4" cy="78.12" r="2.0767" stroke-width="1.3187" connectorname="TFTDC"/>
   <circle id="connector5pad" cx="5.4" cy="20.52" r="2.0767" stroke-width="1.3187" connectorname="VIN"/>
  </g>
 </g>
</svg>
