<?xml version="1.0" encoding="UTF-8"?>
<!-- Created with Fritzing (http://www.fritzing.org/) -->
<svg width="1.6in" height="1.3014in" baseProfile="tiny" version="1.2" viewBox="0 0 115.2 93.699" xmlns="http://www.w3.org/2000/svg">
 <desc>
  <referenceFile>Adafruit Bicolor 8x8 LED Matrix Backpack_pcb.svg</referenceFile>
 </desc>
 <desc>Fritzing footprint generated by brd2svg</desc>
 <g id="silkscreen">
  <path d="m114.91 7.4933v78.713a7.8618 7.8618 0 0 1-8.955 7.1561h-96.714a7.8618 7.8618 0 0 1-8.955-7.1561v-78.713a7.8618 7.8618 0 0 1 8.955-7.1557h96.714a7.8618 7.8618 0 0 1 8.955 7.1557m-7.659 78.956a2.5466 2.5466 0 1 0 5.0933 0 2.5466 2.5466 0 1 0-5.0933 0zm-104.4 0a2.5466 2.5466 0 1 0 5.0933 0 2.5466 2.5466 0 1 0-5.0933 0zm104.4-79.2a2.5466 2.5466 0 1 0 5.0933 0 2.5466 2.5466 0 1 0-5.0933 0zm-104.4 0a2.5466 2.5466 0 1 0 5.0933 0 2.5466 2.5466 0 1 0-5.0933 0z" fill="none" stroke="#fff" stroke-width=".576"/>
  <g>
   <title>element:LED2</title>
   <g>
    <title>package:SEGMENT_BICOL_BL-M12A883XX</title>
    <line x1="11.254" x2="103.95" y1=".50339" y2=".50339" stroke="#fff" stroke-linecap="round" stroke-width=".36"/>
    <line x1="103.95" x2="103.95" y1=".50339" y2="93.196" stroke="#fff" stroke-linecap="round" stroke-width=".36"/>
    <line x1="103.95" x2="11.254" y1="93.196" y2="93.196" stroke="#fff" stroke-linecap="round" stroke-width=".36"/>
    <line x1="11.254" x2="11.254" y1="93.196" y2=".50339" stroke="#fff" stroke-linecap="round" stroke-width=".36"/>
    <circle cx="17.597" cy="87.345" r="1.8" fill="none" stroke="#fff" stroke-width="3.6"/>
   </g>
  </g>
  <g>
   <title>element:U2</title>
   <g>
    <title>package:SOP28_300MIL</title>
   </g>
  </g>
 </g>
 <g id="copper1">
  <g id="copper0" fill="none" stroke="#F7BD13" stroke-width="1.08">
   <circle id="connector6pad" cx="5.4" cy="43.25" r="1.98" connectorname="SDA"/>
   <circle id="connector7pad" cx="5.4" cy="50.45" r="1.98" connectorname="GND"/>
   <circle id="connector8pad" cx="5.4" cy="57.65" r="1.98" connectorname="VDD"/>
   <circle id="connector5pad" cx="5.4" cy="36.05" r="1.98" connectorname="SCL"/>
  </g>
 </g>
</svg>
