<?xml version="1.0" encoding="UTF-8"?>
<!-- Created with Fritzing (http://www.fritzing.org/) -->
<svg width="2in" height="1.1in" baseProfile="tiny" version="1.2" viewBox="0 0 144 79.2" xmlns="http://www.w3.org/2000/svg">
 <desc>
  <referenceFile>Adafruit I2C to 8 Channel Solenoid Driver_pcb.svg</referenceFile>
 </desc>
 <desc>Fritzing footprint generated by brd2svg</desc>
 <g id="silkscreen">
  <path d="m0.288 7.4357a6.912 6.912 0 0 1 7.1712-7.1477h129.08a6.912 6.912 0 0 1 7.171 7.1477v64.329a6.912 6.912 0 0 1-7.171 7.1477h-129.08a6.912 6.912 0 0 1-7.1712-7.1477v-64.329" fill="none" stroke="#fff" stroke-width=".576"/>
  <rect x="44.28" y="67.68" width="55.44" height="5.4" fill="#fff" stroke-width="0"/>
  <g>
   <title>element:IC1</title>
   <g>
    <title>package:QFN28-ML_6X6MM</title>
    <line x1="78.293" x2="78.293" y1="56.816" y2="56.82" stroke="#fff" stroke-linecap="round" stroke-width=".576"/>
    <line x1="80.216" x2="78.293" y1="56.816" y2="56.816" stroke="#fff" stroke-linecap="round" stroke-width=".576"/>
    <line x1="78.293" x2="80.216" y1="56.82" y2="54.898" stroke="#fff" stroke-linecap="round" stroke-width=".576"/>
    <line x1="80.216" x2="80.216" y1="54.898" y2="56.816" stroke="#fff" stroke-linecap="round" stroke-width=".576"/>
   </g>
  </g>
  <g>
   <title>element:JP2</title>
   <g>
    <title>package:1X08_2.54MMTERMINAL</title>
    <line x1="141.83" x2="82.812" y1="21.387" y2="21.387" stroke="#fff" stroke-linecap="round" stroke-width=".432"/>
    <line x1="82.812" x2="82.812" y1="21.387" y2="3.5291" stroke="#fff" stroke-linecap="round" stroke-width=".432"/>
    <line x1="82.812" x2="128.42" y1="3.5291" y2="3.5291" stroke="#fff" stroke-linecap="round" stroke-width=".432"/>
    <line x1="128.42" x2="132.11" y1="3.5291" y2="3.5291" stroke="#fff" stroke-linecap="round" stroke-width=".432"/>
    <line x1="135.79" x2="139.19" y1="3.5291" y2="3.5291" stroke="#fff" stroke-linecap="round" stroke-width=".432"/>
    <line x1="139.19" x2="141.83" y1="3.5291" y2="3.5291" stroke="#fff" stroke-linecap="round" stroke-width=".432"/>
    <line x1="141.83" x2="141.83" y1="3.5291" y2="21.387" stroke="#fff" stroke-linecap="round" stroke-width=".432"/>
    <line x1="139.19" x2="139.19" y1="3.5291" y2="6.9307" stroke="#fff" stroke-linecap="round" stroke-width=".432"/>
    <line x1="139.19" x2="135.79" y1="6.9307" y2="6.9307" stroke="#fff" stroke-linecap="round" stroke-width=".432"/>
    <line x1="135.79" x2="135.79" y1="6.9307" y2="3.5291" stroke="#fff" stroke-linecap="round" stroke-width=".432"/>
    <line x1="135.79" x2="132.11" y1="3.5291" y2="3.5291" stroke="#fff" stroke-linecap="round" stroke-width=".432"/>
    <line x1="132.11" x2="132.11" y1="3.5291" y2="6.9307" stroke="#fff" stroke-linecap="round" stroke-width=".432"/>
    <line x1="132.11" x2="128.42" y1="6.9307" y2="6.9307" stroke="#fff" stroke-linecap="round" stroke-width=".432"/>
    <line x1="128.42" x2="128.42" y1="6.9307" y2="3.5291" stroke="#fff" stroke-linecap="round" stroke-width=".432"/>
    <line x1="124.79" x2="124.79" y1="3.5291" y2="6.9307" stroke="#fff" stroke-linecap="round" stroke-width=".432"/>
    <line x1="124.79" x2="121.39" y1="6.9307" y2="6.9307" stroke="#fff" stroke-linecap="round" stroke-width=".432"/>
    <line x1="121.39" x2="121.39" y1="6.9307" y2="3.5291" stroke="#fff" stroke-linecap="round" stroke-width=".432"/>
    <line x1="117.59" x2="117.59" y1="3.5291" y2="6.9307" stroke="#fff" stroke-linecap="round" stroke-width=".432"/>
    <line x1="117.59" x2="114.19" y1="6.9307" y2="6.9307" stroke="#fff" stroke-linecap="round" stroke-width=".432"/>
    <line x1="114.19" x2="114.19" y1="6.9307" y2="3.5291" stroke="#fff" stroke-linecap="round" stroke-width=".432"/>
    <line x1="137.49" x2="137.49" y1="6.0803" y2="4.3795" stroke="#fff" stroke-linecap="round" stroke-width=".432"/>
    <line x1="137.49" x2="138.34" y1="4.3795" y2="5.2299" stroke="#fff" stroke-linecap="round" stroke-width=".432"/>
    <line x1="138.34" x2="136.64" y1="5.2299" y2="5.2299" stroke="#fff" stroke-linecap="round" stroke-width=".432"/>
    <line x1="136.64" x2="137.49" y1="5.2299" y2="4.3795" stroke="#fff" stroke-linecap="round" stroke-width=".432"/>
    <line x1="130.29" x2="130.29" y1="6.0803" y2="4.3795" stroke="#fff" stroke-linecap="round" stroke-width=".432"/>
    <line x1="130.29" x2="131.14" y1="4.3795" y2="5.2299" stroke="#fff" stroke-linecap="round" stroke-width=".432"/>
    <line x1="131.14" x2="129.44" y1="5.2299" y2="5.2299" stroke="#fff" stroke-linecap="round" stroke-width=".432"/>
    <line x1="129.44" x2="130.29" y1="5.2299" y2="4.3795" stroke="#fff" stroke-linecap="round" stroke-width=".432"/>
    <line x1="123.09" x2="123.09" y1="6.0803" y2="4.3795" stroke="#fff" stroke-linecap="round" stroke-width=".432"/>
    <line x1="123.09" x2="123.94" y1="4.3795" y2="5.2299" stroke="#fff" stroke-linecap="round" stroke-width=".432"/>
    <line x1="123.94" x2="122.24" y1="5.2299" y2="5.2299" stroke="#fff" stroke-linecap="round" stroke-width=".432"/>
    <line x1="122.24" x2="123.09" y1="5.2299" y2="4.3795" stroke="#fff" stroke-linecap="round" stroke-width=".432"/>
    <line x1="115.89" x2="115.89" y1="6.0803" y2="4.3795" stroke="#fff" stroke-linecap="round" stroke-width=".432"/>
    <line x1="115.89" x2="116.74" y1="4.3795" y2="5.2299" stroke="#fff" stroke-linecap="round" stroke-width=".432"/>
    <line x1="116.74" x2="115.04" y1="5.2299" y2="5.2299" stroke="#fff" stroke-linecap="round" stroke-width=".432"/>
    <line x1="115.04" x2="115.89" y1="5.2299" y2="4.3795" stroke="#fff" stroke-linecap="round" stroke-width=".432"/>
    <line x1="110.39" x2="110.39" y1="3.5291" y2="6.9307" stroke="#fff" stroke-linecap="round" stroke-width=".432"/>
    <line x1="110.39" x2="106.99" y1="6.9307" y2="6.9307" stroke="#fff" stroke-linecap="round" stroke-width=".432"/>
    <line x1="106.99" x2="106.99" y1="6.9307" y2="3.5291" stroke="#fff" stroke-linecap="round" stroke-width=".432"/>
    <line x1="108.69" x2="108.69" y1="6.0803" y2="4.3795" stroke="#fff" stroke-linecap="round" stroke-width=".432"/>
    <line x1="108.69" x2="109.54" y1="4.3795" y2="5.2299" stroke="#fff" stroke-linecap="round" stroke-width=".432"/>
    <line x1="109.54" x2="107.84" y1="5.2299" y2="5.2299" stroke="#fff" stroke-linecap="round" stroke-width=".432"/>
    <line x1="107.84" x2="108.69" y1="5.2299" y2="4.3795" stroke="#fff" stroke-linecap="round" stroke-width=".432"/>
    <line x1="103.19" x2="103.19" y1="3.5291" y2="6.9307" stroke="#fff" stroke-linecap="round" stroke-width=".432"/>
    <line x1="103.19" x2="99.791" y1="6.9307" y2="6.9307" stroke="#fff" stroke-linecap="round" stroke-width=".432"/>
    <line x1="99.791" x2="99.791" y1="6.9307" y2="3.5291" stroke="#fff" stroke-linecap="round" stroke-width=".432"/>
    <line x1="96.106" x2="96.106" y1="3.5291" y2="6.9307" stroke="#fff" stroke-linecap="round" stroke-width=".432"/>
    <line x1="96.106" x2="92.421" y1="6.9307" y2="6.9307" stroke="#fff" stroke-linecap="round" stroke-width=".432"/>
    <line x1="92.421" x2="92.421" y1="6.9307" y2="3.5291" stroke="#fff" stroke-linecap="round" stroke-width=".432"/>
    <line x1="88.793" x2="88.793" y1="3.5291" y2="6.9307" stroke="#fff" stroke-linecap="round" stroke-width=".432"/>
    <line x1="88.793" x2="85.391" y1="6.9307" y2="6.9307" stroke="#fff" stroke-linecap="round" stroke-width=".432"/>
    <line x1="85.391" x2="85.391" y1="6.9307" y2="3.5291" stroke="#fff" stroke-linecap="round" stroke-width=".432"/>
    <line x1="101.49" x2="101.49" y1="6.0803" y2="4.3795" stroke="#fff" stroke-linecap="round" stroke-width=".432"/>
    <line x1="101.49" x2="102.34" y1="4.3795" y2="5.2299" stroke="#fff" stroke-linecap="round" stroke-width=".432"/>
    <line x1="102.34" x2="100.64" y1="5.2299" y2="5.2299" stroke="#fff" stroke-linecap="round" stroke-width=".432"/>
    <line x1="100.64" x2="101.49" y1="5.2299" y2="4.3795" stroke="#fff" stroke-linecap="round" stroke-width=".432"/>
    <line x1="94.292" x2="94.292" y1="6.0803" y2="4.3795" stroke="#fff" stroke-linecap="round" stroke-width=".432"/>
    <line x1="94.292" x2="95.142" y1="4.3795" y2="5.2299" stroke="#fff" stroke-linecap="round" stroke-width=".432"/>
    <line x1="95.142" x2="93.442" y1="5.2299" y2="5.2299" stroke="#fff" stroke-linecap="round" stroke-width=".432"/>
    <line x1="93.442" x2="94.292" y1="5.2299" y2="4.3795" stroke="#fff" stroke-linecap="round" stroke-width=".432"/>
    <line x1="87.092" x2="87.092" y1="6.0803" y2="4.3795" stroke="#fff" stroke-linecap="round" stroke-width=".432"/>
    <line x1="87.092" x2="87.942" y1="4.3795" y2="5.2299" stroke="#fff" stroke-linecap="round" stroke-width=".432"/>
    <line x1="87.942" x2="86.242" y1="5.2299" y2="5.2299" stroke="#fff" stroke-linecap="round" stroke-width=".432"/>
    <line x1="86.242" x2="87.092" y1="5.2299" y2="4.3795" stroke="#fff" stroke-linecap="round" stroke-width=".432"/>
   </g>
  </g>
  <g>
   <title>element:JP6</title>
   <g>
    <title>package:1X08_ROUND_70</title>
   </g>
  </g>
  <g>
   <title>element:JP7</title>
   <g>
    <title>package:1X08_ROUND_70</title>
   </g>
  </g>
  <g>
   <title>element:JP8</title>
   <g>
    <title>package:1X08_2.54MMTERMINAL</title>
    <line x1="60.829" x2="1.8113" y1="21.387" y2="21.387" stroke="#fff" stroke-linecap="round" stroke-width=".432"/>
    <line x1="1.8113" x2="1.8113" y1="21.387" y2="3.5291" stroke="#fff" stroke-linecap="round" stroke-width=".432"/>
    <line x1="1.8113" x2="47.421" y1="3.5291" y2="3.5291" stroke="#fff" stroke-linecap="round" stroke-width=".432"/>
    <line x1="47.421" x2="51.106" y1="3.5291" y2="3.5291" stroke="#fff" stroke-linecap="round" stroke-width=".432"/>
    <line x1="54.791" x2="58.192" y1="3.5291" y2="3.5291" stroke="#fff" stroke-linecap="round" stroke-width=".432"/>
    <line x1="58.192" x2="60.829" y1="3.5291" y2="3.5291" stroke="#fff" stroke-linecap="round" stroke-width=".432"/>
    <line x1="60.829" x2="60.829" y1="3.5291" y2="21.387" stroke="#fff" stroke-linecap="round" stroke-width=".432"/>
    <line x1="58.192" x2="58.192" y1="3.5291" y2="6.9307" stroke="#fff" stroke-linecap="round" stroke-width=".432"/>
    <line x1="58.192" x2="54.791" y1="6.9307" y2="6.9307" stroke="#fff" stroke-linecap="round" stroke-width=".432"/>
    <line x1="54.791" x2="54.791" y1="6.9307" y2="3.5291" stroke="#fff" stroke-linecap="round" stroke-width=".432"/>
    <line x1="54.791" x2="51.106" y1="3.5291" y2="3.5291" stroke="#fff" stroke-linecap="round" stroke-width=".432"/>
    <line x1="51.106" x2="51.106" y1="3.5291" y2="6.9307" stroke="#fff" stroke-linecap="round" stroke-width=".432"/>
    <line x1="51.106" x2="47.421" y1="6.9307" y2="6.9307" stroke="#fff" stroke-linecap="round" stroke-width=".432"/>
    <line x1="47.421" x2="47.421" y1="6.9307" y2="3.5291" stroke="#fff" stroke-linecap="round" stroke-width=".432"/>
    <line x1="43.792" x2="43.792" y1="3.5291" y2="6.9307" stroke="#fff" stroke-linecap="round" stroke-width=".432"/>
    <line x1="43.792" x2="40.391" y1="6.9307" y2="6.9307" stroke="#fff" stroke-linecap="round" stroke-width=".432"/>
    <line x1="40.391" x2="40.391" y1="6.9307" y2="3.5291" stroke="#fff" stroke-linecap="round" stroke-width=".432"/>
    <line x1="36.592" x2="36.592" y1="3.5291" y2="6.9307" stroke="#fff" stroke-linecap="round" stroke-width=".432"/>
    <line x1="36.592" x2="33.191" y1="6.9307" y2="6.9307" stroke="#fff" stroke-linecap="round" stroke-width=".432"/>
    <line x1="33.191" x2="33.191" y1="6.9307" y2="3.5291" stroke="#fff" stroke-linecap="round" stroke-width=".432"/>
    <line x1="56.492" x2="56.492" y1="6.0803" y2="4.3795" stroke="#fff" stroke-linecap="round" stroke-width=".432"/>
    <line x1="56.492" x2="57.342" y1="4.3795" y2="5.2299" stroke="#fff" stroke-linecap="round" stroke-width=".432"/>
    <line x1="57.342" x2="55.641" y1="5.2299" y2="5.2299" stroke="#fff" stroke-linecap="round" stroke-width=".432"/>
    <line x1="55.641" x2="56.492" y1="5.2299" y2="4.3795" stroke="#fff" stroke-linecap="round" stroke-width=".432"/>
    <line x1="49.292" x2="49.292" y1="6.0803" y2="4.3795" stroke="#fff" stroke-linecap="round" stroke-width=".432"/>
    <line x1="49.292" x2="50.142" y1="4.3795" y2="5.2299" stroke="#fff" stroke-linecap="round" stroke-width=".432"/>
    <line x1="50.142" x2="48.441" y1="5.2299" y2="5.2299" stroke="#fff" stroke-linecap="round" stroke-width=".432"/>
    <line x1="48.441" x2="49.292" y1="5.2299" y2="4.3795" stroke="#fff" stroke-linecap="round" stroke-width=".432"/>
    <line x1="42.092" x2="42.092" y1="6.0803" y2="4.3795" stroke="#fff" stroke-linecap="round" stroke-width=".432"/>
    <line x1="42.092" x2="42.942" y1="4.3795" y2="5.2299" stroke="#fff" stroke-linecap="round" stroke-width=".432"/>
    <line x1="42.942" x2="41.241" y1="5.2299" y2="5.2299" stroke="#fff" stroke-linecap="round" stroke-width=".432"/>
    <line x1="41.241" x2="42.092" y1="5.2299" y2="4.3795" stroke="#fff" stroke-linecap="round" stroke-width=".432"/>
    <line x1="34.892" x2="34.892" y1="6.0803" y2="4.3795" stroke="#fff" stroke-linecap="round" stroke-width=".432"/>
    <line x1="34.892" x2="35.742" y1="4.3795" y2="5.2299" stroke="#fff" stroke-linecap="round" stroke-width=".432"/>
    <line x1="35.742" x2="34.041" y1="5.2299" y2="5.2299" stroke="#fff" stroke-linecap="round" stroke-width=".432"/>
    <line x1="34.041" x2="34.892" y1="5.2299" y2="4.3795" stroke="#fff" stroke-linecap="round" stroke-width=".432"/>
    <line x1="29.392" x2="29.392" y1="3.5291" y2="6.9307" stroke="#fff" stroke-linecap="round" stroke-width=".432"/>
    <line x1="29.392" x2="25.991" y1="6.9307" y2="6.9307" stroke="#fff" stroke-linecap="round" stroke-width=".432"/>
    <line x1="25.991" x2="25.991" y1="6.9307" y2="3.5291" stroke="#fff" stroke-linecap="round" stroke-width=".432"/>
    <line x1="27.692" x2="27.692" y1="6.0803" y2="4.3795" stroke="#fff" stroke-linecap="round" stroke-width=".432"/>
    <line x1="27.692" x2="28.542" y1="4.3795" y2="5.2299" stroke="#fff" stroke-linecap="round" stroke-width=".432"/>
    <line x1="28.542" x2="26.841" y1="5.2299" y2="5.2299" stroke="#fff" stroke-linecap="round" stroke-width=".432"/>
    <line x1="26.841" x2="27.692" y1="5.2299" y2="4.3795" stroke="#fff" stroke-linecap="round" stroke-width=".432"/>
    <line x1="22.192" x2="22.192" y1="3.5291" y2="6.9307" stroke="#fff" stroke-linecap="round" stroke-width=".432"/>
    <line x1="22.192" x2="18.791" y1="6.9307" y2="6.9307" stroke="#fff" stroke-linecap="round" stroke-width=".432"/>
    <line x1="18.791" x2="18.791" y1="6.9307" y2="3.5291" stroke="#fff" stroke-linecap="round" stroke-width=".432"/>
    <line x1="15.106" x2="15.106" y1="3.5291" y2="6.9307" stroke="#fff" stroke-linecap="round" stroke-width=".432"/>
    <line x1="15.106" x2="11.421" y1="6.9307" y2="6.9307" stroke="#fff" stroke-linecap="round" stroke-width=".432"/>
    <line x1="11.421" x2="11.421" y1="6.9307" y2="3.5291" stroke="#fff" stroke-linecap="round" stroke-width=".432"/>
    <line x1="7.7924" x2="7.7924" y1="3.5291" y2="6.9307" stroke="#fff" stroke-linecap="round" stroke-width=".432"/>
    <line x1="7.7924" x2="4.3909" y1="6.9307" y2="6.9307" stroke="#fff" stroke-linecap="round" stroke-width=".432"/>
    <line x1="4.3909" x2="4.3909" y1="6.9307" y2="3.5291" stroke="#fff" stroke-linecap="round" stroke-width=".432"/>
    <line x1="20.492" x2="20.492" y1="6.0803" y2="4.3795" stroke="#fff" stroke-linecap="round" stroke-width=".432"/>
    <line x1="20.492" x2="21.342" y1="4.3795" y2="5.2299" stroke="#fff" stroke-linecap="round" stroke-width=".432"/>
    <line x1="21.342" x2="19.641" y1="5.2299" y2="5.2299" stroke="#fff" stroke-linecap="round" stroke-width=".432"/>
    <line x1="19.641" x2="20.492" y1="5.2299" y2="4.3795" stroke="#fff" stroke-linecap="round" stroke-width=".432"/>
    <line x1="13.292" x2="13.292" y1="6.0803" y2="4.3795" stroke="#fff" stroke-linecap="round" stroke-width=".432"/>
    <line x1="13.292" x2="14.142" y1="4.3795" y2="5.2299" stroke="#fff" stroke-linecap="round" stroke-width=".432"/>
    <line x1="14.142" x2="12.441" y1="5.2299" y2="5.2299" stroke="#fff" stroke-linecap="round" stroke-width=".432"/>
    <line x1="12.441" x2="13.292" y1="5.2299" y2="4.3795" stroke="#fff" stroke-linecap="round" stroke-width=".432"/>
    <line x1="6.0916" x2="6.0916" y1="6.0803" y2="4.3795" stroke="#fff" stroke-linecap="round" stroke-width=".432"/>
    <line x1="6.0916" x2="6.942" y1="4.3795" y2="5.2299" stroke="#fff" stroke-linecap="round" stroke-width=".432"/>
    <line x1="6.942" x2="5.2413" y1="5.2299" y2="5.2299" stroke="#fff" stroke-linecap="round" stroke-width=".432"/>
    <line x1="5.2413" x2="6.0916" y1="5.2299" y2="4.3795" stroke="#fff" stroke-linecap="round" stroke-width=".432"/>
   </g>
  </g>
  <g>
   <title>element:PLABEL40</title>
   <g>
    <title>package:PLABEL40</title>
   </g>
  </g>
  <g>
   <title>element:PLABEL59</title>
   <g>
    <title>package:PLABEL59</title>
   </g>
  </g>
  <g>
   <title>element:U$7</title>
   <g>
    <title>package:ADAFRUIT_TEXT_20MM</title>
   </g>
  </g>
  <g>
   <title>element:X1</title>
   <g>
    <title>package:TERMBLOCK_1X2-3.5MM</title>
    <line x1="81.638" x2="81.638" y1="23.318" y2="7.4438" stroke="#fff" stroke-linecap="round" stroke-width=".576"/>
    <line x1="81.638" x2="81.638" y1="7.4438" y2="3.4753" stroke="#fff" stroke-linecap="round" stroke-width=".576"/>
    <line x1="81.638" x2="61.795" y1="3.4753" y2="3.4753" stroke="#fff" stroke-linecap="round" stroke-width=".576"/>
    <line x1="61.795" x2="61.795" y1="3.4753" y2="7.4438" stroke="#fff" stroke-linecap="round" stroke-width=".576"/>
    <line x1="61.795" x2="61.795" y1="7.4438" y2="23.318" stroke="#fff" stroke-linecap="round" stroke-width=".576"/>
    <line x1="61.795" x2="81.638" y1="23.318" y2="23.318" stroke="#fff" stroke-linecap="round" stroke-width=".576"/>
    <line x1="81.638" x2="61.795" y1="7.4438" y2="7.4438" stroke="#fff" stroke-linecap="round" stroke-width=".576"/>
   </g>
  </g>
 </g>
 <g id="copper1">
  <g id="copper0">
   <circle id="connector118pad" cx="75.6" cy="64.8" r="1.9687" fill="none" stroke="#F7BD13" stroke-width="1.1027" connectorname="GND"/>
   <circle id="connector110pad" cx="75.6" cy="72" r="1.9687" fill="none" stroke="#F7BD13" stroke-width="1.1027" connectorname="GPB4"/>
   <circle id="connector126pad" cx="27.72" cy="12.6" r="1.7773" fill="none" stroke="#F7BD13" stroke-width=".72" connectorname="OUT6"/>
   <path d="m25.943 8.5121h3.5546v8.1757h-3.5546v-8.1757m0 4.0879a1.7773 1.7773 0 1 0 3.5546 0 1.7773 1.7773 0 1 0-3.5546 0z" fill="#F7BD13" stroke-width="0"/>
   <g transform="matrix(-1 0 0 -1 258.63 116.5)">
    <rect id="connector13pad" x="127.12" y="57.402" width="4.3937" height="1.7008" fill="#F7BD13" stroke-width="0"/>
   </g>
   <g transform="matrix(-1 0 0 -1 258.63 110.84)">
    <rect id="connector14pad" x="127.12" y="54.567" width="4.3937" height="1.7008" fill="#F7BD13" stroke-width="0"/>
   </g>
   <g transform="matrix(-1 0 0 -1 258.63 105.16)">
    <rect id="connector15pad" x="127.12" y="51.732" width="4.3937" height="1.7008" fill="#F7BD13" stroke-width="0"/>
   </g>
   <g transform="matrix(-1 0 0 -1 258.63 99.496)">
    <rect id="connector16pad" x="127.12" y="48.898" width="4.3937" height="1.7008" fill="#F7BD13" stroke-width="0"/>
   </g>
   <circle id="connector206pad" cx="66.898" cy="13.68" r="2.2567" fill="none" stroke="#F7BD13" stroke-width="1.6787" connectorname="V+"/>
   <circle id="connector114pad" cx="46.8" cy="64.8" r="1.9687" fill="none" stroke="#F7BD13" stroke-width="1.1027" connectorname="GND"/>
   <rect id="connector19pad" x="12.49" y="48.898" width="4.3937" height="1.7008" fill="#F7BD13" stroke-width="0"/>
   <circle id="connector122pad" cx="56.52" cy="12.6" r="1.7773" fill="none" stroke="#F7BD13" stroke-width=".72" connectorname="OUT4"/>
   <path d="m54.743 8.5121h3.5546v8.1757h-3.5546v-8.1757m0 4.0879a1.7773 1.7773 0 1 0 3.5546 0 1.7773 1.7773 0 1 0-3.5546 0z" fill="#F7BD13" stroke-width="0"/>
   <rect id="connector20pad" x="12.49" y="51.732" width="4.3937" height="1.7008" fill="#F7BD13" stroke-width="0"/>
   <rect id="connector21pad" x="12.49" y="54.567" width="4.3937" height="1.7008" fill="#F7BD13" stroke-width="0"/>
   <rect id="connector22pad" x="12.49" y="57.402" width="4.3937" height="1.7008" fill="#F7BD13" stroke-width="0"/>
   <circle id="connector202pad" cx="7.2" cy="36" r="4.2633" fill="none" stroke="#F7BD13" stroke-width="1.44" connectorname="P$1"/>
   <circle id="connector108pad" cx="61.2" cy="72" r="1.9687" fill="none" stroke="#F7BD13" stroke-width="1.1027" connectorname="GPB2"/>
   <circle id="connector112pad" cx="90" cy="72" r="1.9687" fill="none" stroke="#F7BD13" stroke-width="1.1027" connectorname="GPB6"/>
   <circle id="connector116pad" cx="61.2" cy="64.8" r="1.9687" fill="none" stroke="#F7BD13" stroke-width="1.1027" connectorname="GND"/>
   <circle id="connector120pad" cx="90" cy="64.8" r="1.9687" fill="none" stroke="#F7BD13" stroke-width="1.1027" connectorname="GND"/>
   <circle id="connector124pad" cx="42.12" cy="12.6" r="1.7773" fill="none" stroke="#F7BD13" stroke-width=".72" connectorname="OUT5"/>
   <path d="m40.343 8.5121h3.5546v8.1757h-3.5546v-8.1757m0 4.0879a1.7773 1.7773 0 1 0 3.5546 0 1.7773 1.7773 0 1 0-3.5546 0z" fill="#F7BD13" stroke-width="0"/>
   <circle id="connector128pad" cx="13.32" cy="12.6" r="1.7773" fill="none" stroke="#F7BD13" stroke-width=".72" connectorname="OUT7"/>
   <path d="m11.543 8.5121h3.5546v8.1757h-3.5546v-8.1757m0 4.0879a1.7773 1.7773 0 1 0 3.5546 0 1.7773 1.7773 0 1 0-3.5546 0z" fill="#F7BD13" stroke-width="0"/>
   <circle id="connector204pad" cx="7.2" cy="72" r="4.2633" fill="none" stroke="#F7BD13" stroke-width="1.44" connectorname="P$1"/>
   <circle id="connector107pad" cx="54" cy="72" r="1.9687" fill="none" stroke="#F7BD13" stroke-width="1.1027" connectorname="GPB1"/>
   <circle id="connector109pad" cx="68.4" cy="72" r="1.9687" fill="none" stroke="#F7BD13" stroke-width="1.1027" connectorname="GPB3"/>
   <circle id="connector111pad" cx="82.8" cy="72" r="1.9687" fill="none" stroke="#F7BD13" stroke-width="1.1027" connectorname="GPB5"/>
   <circle id="connector113pad" cx="97.2" cy="72" r="1.9687" fill="none" stroke="#F7BD13" stroke-width="1.1027" connectorname="GPB7"/>
   <circle id="connector115pad" cx="54" cy="64.8" r="1.9687" fill="none" stroke="#F7BD13" stroke-width="1.1027" connectorname="GND"/>
   <circle id="connector117pad" cx="68.4" cy="64.8" r="1.9687" fill="none" stroke="#F7BD13" stroke-width="1.1027" connectorname="GND"/>
   <circle id="connector119pad" cx="82.8" cy="64.8" r="1.9687" fill="none" stroke="#F7BD13" stroke-width="1.1027" connectorname="GND"/>
   <circle id="connector121pad" cx="97.2" cy="64.8" r="1.9687" fill="none" stroke="#F7BD13" stroke-width="1.1027" connectorname="GND"/>
   <circle id="connector123pad" cx="49.32" cy="12.6" r="1.7773" fill="none" stroke="#F7BD13" stroke-width=".72" connectorname="V+"/>
   <path d="m47.543 8.5121h3.5546v8.1757h-3.5546v-8.1757m0 4.0879a1.7773 1.7773 0 1 0 3.5546 0 1.7773 1.7773 0 1 0-3.5546 0z" fill="#F7BD13" stroke-width="0"/>
   <circle id="connector125pad" cx="34.92" cy="12.6" r="1.7773" fill="none" stroke="#F7BD13" stroke-width=".72" connectorname="V+"/>
   <path d="m33.143 8.5121h3.5546v8.1757h-3.5546v-8.1757m0 4.0879a1.7773 1.7773 0 1 0 3.5546 0 1.7773 1.7773 0 1 0-3.5546 0z" fill="#F7BD13" stroke-width="0"/>
   <circle id="connector127pad" cx="20.52" cy="12.6" r="1.7773" fill="none" stroke="#F7BD13" stroke-width=".72" connectorname="V+"/>
   <path d="m18.743 8.5121h3.5546v8.1757h-3.5546v-8.1757m0 4.0879a1.7773 1.7773 0 1 0 3.5546 0 1.7773 1.7773 0 1 0-3.5546 0z" fill="#F7BD13" stroke-width="0"/>
   <circle id="connector129pad" cx="6.12" cy="12.6" r="1.7773" fill="none" stroke="#F7BD13" stroke-width=".72" connectorname="V+"/>
   <path d="m4.3427 8.5121h3.5546v8.1757h-3.5546v-8.1757m0 4.0879a1.7773 1.7773 0 1 0 3.5546 0 1.7773 1.7773 0 1 0-3.5546 0z" fill="#F7BD13" stroke-width="0"/>
   <circle id="connector90pad" cx="137.52" cy="12.6" r="1.7773" fill="none" stroke="#F7BD13" stroke-width=".72" connectorname="OUT0"/>
   <path d="m135.74 8.5121h3.5546v8.1757h-3.5546v-8.1757m0 4.0879a1.7773 1.7773 0 1 0 3.5546 0 1.7773 1.7773 0 1 0-3.5546 0z" fill="#F7BD13" stroke-width="0"/>
   <circle id="connector91pad" cx="130.32" cy="12.6" r="1.7773" fill="none" stroke="#F7BD13" stroke-width=".72" connectorname="V+"/>
   <path d="m128.54 8.5121h3.5546v8.1757h-3.5546v-8.1757m0 4.0879a1.7773 1.7773 0 1 0 3.5546 0 1.7773 1.7773 0 1 0-3.5546 0z" fill="#F7BD13" stroke-width="0"/>
   <circle id="connector92pad" cx="123.12" cy="12.6" r="1.7773" fill="none" stroke="#F7BD13" stroke-width=".72" connectorname="OUT1"/>
   <path d="m121.34 8.5121h3.5546v8.1757h-3.5546v-8.1757m0 4.0879a1.7773 1.7773 0 1 0 3.5546 0 1.7773 1.7773 0 1 0-3.5546 0z" fill="#F7BD13" stroke-width="0"/>
   <circle id="connector93pad" cx="115.92" cy="12.6" r="1.7773" fill="none" stroke="#F7BD13" stroke-width=".72" connectorname="V+"/>
   <path d="m114.14 8.5121h3.5546v8.1757h-3.5546v-8.1757m0 4.0879a1.7773 1.7773 0 1 0 3.5546 0 1.7773 1.7773 0 1 0-3.5546 0z" fill="#F7BD13" stroke-width="0"/>
   <circle id="connector94pad" cx="108.72" cy="12.6" r="1.7773" fill="none" stroke="#F7BD13" stroke-width=".72" connectorname="OUT2"/>
   <path d="m106.94 8.5121h3.5546v8.1757h-3.5546v-8.1757m0 4.0879a1.7773 1.7773 0 1 0 3.5546 0 1.7773 1.7773 0 1 0-3.5546 0z" fill="#F7BD13" stroke-width="0"/>
   <circle id="connector95pad" cx="101.52" cy="12.6" r="1.7773" fill="none" stroke="#F7BD13" stroke-width=".72" connectorname="V+"/>
   <path d="m99.742 8.5121h3.5546v8.1757h-3.5546v-8.1757m0 4.0879a1.7773 1.7773 0 1 0 3.5546 0 1.7773 1.7773 0 1 0-3.5546 0z" fill="#F7BD13" stroke-width="0"/>
   <circle id="connector96pad" cx="94.32" cy="12.6" r="1.7773" fill="none" stroke="#F7BD13" stroke-width=".72" connectorname="OUT3"/>
   <path d="m92.542 8.5121h3.5546v8.1757h-3.5546v-8.1757m0 4.0879a1.7773 1.7773 0 1 0 3.5546 0 1.7773 1.7773 0 1 0-3.5546 0z" fill="#F7BD13" stroke-width="0"/>
   <circle id="connector97pad" cx="87.12" cy="12.6" r="1.7773" fill="none" stroke="#F7BD13" stroke-width=".72" connectorname="V+"/>
   <path d="m85.342 8.5121h3.5546v8.1757h-3.5546v-8.1757m0 4.0879a1.7773 1.7773 0 1 0 3.5546 0 1.7773 1.7773 0 1 0-3.5546 0z" fill="#F7BD13" stroke-width="0"/>
   <circle id="connector98pad" cx="18" cy="72" r="1.9687" fill="none" stroke="#F7BD13" stroke-width="1.1027" connectorname="VCC"/>
   <circle id="connector99pad" cx="25.2" cy="72" r="1.9687" fill="none" stroke="#F7BD13" stroke-width="1.1027" connectorname="GND"/>
   <circle id="connector100pad" cx="32.4" cy="72" r="1.9687" fill="none" stroke="#F7BD13" stroke-width="1.1027" connectorname="SCL"/>
   <circle id="connector101pad" cx="39.6" cy="72" r="1.9687" fill="none" stroke="#F7BD13" stroke-width="1.1027" connectorname="SDA"/>
   <circle id="connector102pad" cx="104.4" cy="72" r="1.9687" fill="none" stroke="#F7BD13" stroke-width="1.1027" connectorname="INTB"/>
   <circle id="connector103pad" cx="111.6" cy="72" r="1.9687" fill="none" stroke="#F7BD13" stroke-width="1.1027" connectorname="A2"/>
   <circle id="connector203pad" cx="136.8" cy="36" r="4.2633" fill="none" stroke="#F7BD13" stroke-width="1.44" connectorname="P$1"/>
   <circle id="connector104pad" cx="118.8" cy="72" r="1.9687" fill="none" stroke="#F7BD13" stroke-width="1.1027" connectorname="A1"/>
   <circle id="connector205pad" cx="136.8" cy="72" r="4.2633" fill="none" stroke="#F7BD13" stroke-width="1.44" connectorname="P$1"/>
   <circle id="connector105pad" cx="126" cy="72" r="1.9687" fill="none" stroke="#F7BD13" stroke-width="1.1027" connectorname="A0"/>
   <circle id="connector207pad" cx="76.819" cy="13.68" r="2.2567" fill="none" stroke="#F7BD13" stroke-width="1.6787" connectorname="GND"/>
   <circle id="connector106pad" cx="46.8" cy="72" r="1.9687" fill="none" stroke="#F7BD13" stroke-width="1.1027" connectorname="GPB0"/>
  </g>
 </g>
</svg>
