<?xml version="1.0" encoding="UTF-8"?>
<!-- Created with Fritzing (http://www.fritzing.org/) -->
<svg width="2.58in" height="2.58in" baseProfile="tiny" version="1.2" viewBox="0 0 185.76 185.76" xmlns="http://www.w3.org/2000/svg">
 <desc>
  <referenceFile>Adafruit 24 NeoPixel Ring_pcb.svg</referenceFile>
 </desc>
 <desc>Fritzing footprint generated by brd2svg</desc>
 <g id="silkscreen">
  <path d="M0.288,92.88A92.592,92.592,0,0,1,92.88,0.288A92.592,92.592,0,0,1,185.472,92.88A92.592,92.592,0,0,1,92.88,185.472A92.592,92.592,0,0,1,0.288,92.88" fill="none" stroke="#fff" stroke-width=".576"/>
  <g>
   <title>element:LED2</title>
   <g>
    <title>package:WS2812B-NARROW</title>
    <line x1="119.32" x2="105.63" y1="21.581" y2="17.913" stroke="#fff" stroke-linecap="round" stroke-width=".36"/>
    <line x1="105.63" x2="108.64" y1="17.913" y2="6.6866" stroke="#fff" stroke-linecap="round" stroke-width=".36"/>
    <line x1="108.64" x2="109.3" y1="6.6866" y2="4.2224" stroke="#fff" stroke-linecap="round" stroke-width=".36"/>
    <line x1="109.3" x2="111.76" y1="4.2224" y2="4.8827" stroke="#fff" stroke-linecap="round" stroke-width=".36"/>
    <line x1="111.76" x2="122.99" y1="4.8827" y2="7.8907" stroke="#fff" stroke-linecap="round" stroke-width=".36"/>
    <line x1="122.99" x2="119.32" y1="7.8907" y2="21.581" stroke="#fff" stroke-linecap="round" stroke-width=".36"/>
    <line x1="108.64" x2="111.76" y1="6.6866" y2="4.8827" stroke="#fff" stroke-linecap="round" stroke-width=".36"/>
    <line x1="111.76" x2="112.98" y1="4.8827" y2="4.1812" stroke="#fff" stroke-linecap="round" stroke-width=".36"/>
    <line x1="112.98" x2="112.08" y1="4.1812" y2="2.6189" stroke="#fff" stroke-linecap="round" stroke-width=".36"/>
    <line x1="112.08" x2="109.3" y1="2.6189" y2="4.2224" stroke="#fff" stroke-linecap="round" stroke-width=".36"/>
    <circle cx="114.31" cy="12.902" r="4.8769" fill="none" stroke="#fff" stroke-width=".36"/>
   </g>
  </g>
  <g>
   <title>element:LED3</title>
   <g>
    <title>package:WS2812B-NARROW</title>
    <line x1="136.87" x2="124.6" y1="30.854" y2="23.767" stroke="#fff" stroke-linecap="round" stroke-width=".36"/>
    <line x1="124.6" x2="130.41" y1="23.767" y2="13.702" stroke="#fff" stroke-linecap="round" stroke-width=".36"/>
    <line x1="130.41" x2="131.69" y1="13.702" y2="11.493" stroke="#fff" stroke-linecap="round" stroke-width=".36"/>
    <line x1="131.69" x2="133.9" y1="11.493" y2="12.768" stroke="#fff" stroke-linecap="round" stroke-width=".36"/>
    <line x1="133.9" x2="143.96" y1="12.768" y2="18.579" stroke="#fff" stroke-linecap="round" stroke-width=".36"/>
    <line x1="143.96" x2="136.87" y1="18.579" y2="30.854" stroke="#fff" stroke-linecap="round" stroke-width=".36"/>
    <line x1="130.41" x2="133.9" y1="13.702" y2="12.768" stroke="#fff" stroke-linecap="round" stroke-width=".36"/>
    <line x1="133.9" x2="135.25" y1="12.768" y2="12.405" stroke="#fff" stroke-linecap="round" stroke-width=".36"/>
    <line x1="135.25" x2="134.78" y1="12.405" y2="10.662" stroke="#fff" stroke-linecap="round" stroke-width=".36"/>
    <line x1="134.78" x2="131.69" y1="10.662" y2="11.493" stroke="#fff" stroke-linecap="round" stroke-width=".36"/>
    <circle cx="134.28" cy="21.173" r="4.8769" fill="none" stroke="#fff" stroke-width=".36"/>
   </g>
  </g>
  <g>
   <title>element:LED4</title>
   <g>
    <title>package:WS2812B-NARROW</title>
    <line x1="151.43" x2="141.41" y1="44.354" y2="34.332" stroke="#fff" stroke-linecap="round" stroke-width=".36"/>
    <line x1="141.41" x2="149.62" y1="34.332" y2="26.114" stroke="#fff" stroke-linecap="round" stroke-width=".36"/>
    <line x1="149.62" x2="151.43" y1="26.114" y2="24.31" stroke="#fff" stroke-linecap="round" stroke-width=".36"/>
    <line x1="151.43" x2="153.23" y1="24.31" y2="26.114" stroke="#fff" stroke-linecap="round" stroke-width=".36"/>
    <line x1="153.23" x2="161.45" y1="26.114" y2="34.332" stroke="#fff" stroke-linecap="round" stroke-width=".36"/>
    <line x1="161.45" x2="151.43" y1="34.332" y2="44.354" stroke="#fff" stroke-linecap="round" stroke-width=".36"/>
    <line x1="149.62" x2="153.23" y1="26.114" y2="26.114" stroke="#fff" stroke-linecap="round" stroke-width=".36"/>
    <line x1="153.23" x2="154.64" y1="26.114" y2="26.114" stroke="#fff" stroke-linecap="round" stroke-width=".36"/>
    <line x1="154.64" x2="154.64" y1="26.114" y2="24.31" stroke="#fff" stroke-linecap="round" stroke-width=".36"/>
    <line x1="154.64" x2="151.43" y1="24.31" y2="24.31" stroke="#fff" stroke-linecap="round" stroke-width=".36"/>
    <circle cx="151.43" cy="34.332" r="4.8769" fill="none" stroke="#fff" stroke-width=".36"/>
   </g>
  </g>
  <g>
   <title>element:LED5</title>
   <g>
    <title>package:WS2812B-NARROW</title>
    <line x1="161.99" x2="154.91" y1="61.16" y2="48.886" stroke="#fff" stroke-linecap="round" stroke-width=".36"/>
    <line x1="154.91" x2="164.97" y1="48.886" y2="43.075" stroke="#fff" stroke-linecap="round" stroke-width=".36"/>
    <line x1="164.97" x2="167.18" y1="43.075" y2="41.8" stroke="#fff" stroke-linecap="round" stroke-width=".36"/>
    <line x1="167.18" x2="168.46" y1="41.8" y2="44.009" stroke="#fff" stroke-linecap="round" stroke-width=".36"/>
    <line x1="168.46" x2="174.27" y1="44.009" y2="54.074" stroke="#fff" stroke-linecap="round" stroke-width=".36"/>
    <line x1="174.27" x2="161.99" y1="54.074" y2="61.16" stroke="#fff" stroke-linecap="round" stroke-width=".36"/>
    <line x1="164.97" x2="168.46" y1="43.075" y2="44.009" stroke="#fff" stroke-linecap="round" stroke-width=".36"/>
    <line x1="168.46" x2="169.81" y1="44.009" y2="44.372" stroke="#fff" stroke-linecap="round" stroke-width=".36"/>
    <line x1="169.81" x2="170.28" y1="44.372" y2="42.63" stroke="#fff" stroke-linecap="round" stroke-width=".36"/>
    <line x1="170.28" x2="167.18" y1="42.63" y2="41.8" stroke="#fff" stroke-linecap="round" stroke-width=".36"/>
    <circle cx="164.59" cy="51.48" r="4.8769" fill="none" stroke="#fff" stroke-width=".36"/>
   </g>
  </g>
  <g>
   <title>element:LED6</title>
   <g>
    <title>package:WS2812B-NARROW</title>
    <line x1="167.85" x2="164.18" y1="80.13" y2="66.439" stroke="#fff" stroke-linecap="round" stroke-width=".36"/>
    <line x1="164.18" x2="175.4" y1="66.439" y2="63.431" stroke="#fff" stroke-linecap="round" stroke-width=".36"/>
    <line x1="175.4" x2="177.87" y1="63.431" y2="62.771" stroke="#fff" stroke-linecap="round" stroke-width=".36"/>
    <line x1="177.87" x2="178.53" y1="62.771" y2="65.235" stroke="#fff" stroke-linecap="round" stroke-width=".36"/>
    <line x1="178.53" x2="181.54" y1="65.235" y2="76.461" stroke="#fff" stroke-linecap="round" stroke-width=".36"/>
    <line x1="181.54" x2="167.85" y1="76.461" y2="80.13" stroke="#fff" stroke-linecap="round" stroke-width=".36"/>
    <line x1="175.4" x2="178.53" y1="63.431" y2="65.235" stroke="#fff" stroke-linecap="round" stroke-width=".36"/>
    <line x1="178.53" x2="179.74" y1="65.235" y2="65.936" stroke="#fff" stroke-linecap="round" stroke-width=".36"/>
    <line x1="179.74" x2="180.65" y1="65.936" y2="64.374" stroke="#fff" stroke-linecap="round" stroke-width=".36"/>
    <line x1="180.65" x2="177.87" y1="64.374" y2="62.771" stroke="#fff" stroke-linecap="round" stroke-width=".36"/>
    <circle cx="172.86" cy="71.45" r="4.8769" fill="none" stroke="#fff" stroke-width=".36"/>
   </g>
  </g>
  <g>
   <title>element:LED8</title>
   <g>
    <title>package:WS2812B-NARROW</title>
    <line x1="164.18" x2="167.85" y1="119.32" y2="105.63" stroke="#fff" stroke-linecap="round" stroke-width=".36"/>
    <line x1="167.85" x2="179.07" y1="105.63" y2="108.64" stroke="#fff" stroke-linecap="round" stroke-width=".36"/>
    <line x1="179.07" x2="181.54" y1="108.64" y2="109.3" stroke="#fff" stroke-linecap="round" stroke-width=".36"/>
    <line x1="181.54" x2="180.88" y1="109.3" y2="111.76" stroke="#fff" stroke-linecap="round" stroke-width=".36"/>
    <line x1="180.88" x2="177.87" y1="111.76" y2="122.99" stroke="#fff" stroke-linecap="round" stroke-width=".36"/>
    <line x1="177.87" x2="164.18" y1="122.99" y2="119.32" stroke="#fff" stroke-linecap="round" stroke-width=".36"/>
    <line x1="179.07" x2="180.88" y1="108.64" y2="111.76" stroke="#fff" stroke-linecap="round" stroke-width=".36"/>
    <line x1="180.88" x2="181.58" y1="111.76" y2="112.98" stroke="#fff" stroke-linecap="round" stroke-width=".36"/>
    <line x1="181.58" x2="183.14" y1="112.98" y2="112.08" stroke="#fff" stroke-linecap="round" stroke-width=".36"/>
    <line x1="183.14" x2="181.54" y1="112.08" y2="109.3" stroke="#fff" stroke-linecap="round" stroke-width=".36"/>
    <circle cx="172.86" cy="114.31" r="4.8769" fill="none" stroke="#fff" stroke-width=".36"/>
   </g>
  </g>
  <g>
   <title>element:LED9</title>
   <g>
    <title>package:WS2812B-NARROW</title>
    <line x1="154.91" x2="161.99" y1="136.87" y2="124.6" stroke="#fff" stroke-linecap="round" stroke-width=".36"/>
    <line x1="161.99" x2="172.06" y1="124.6" y2="130.41" stroke="#fff" stroke-linecap="round" stroke-width=".36"/>
    <line x1="172.06" x2="174.27" y1="130.41" y2="131.69" stroke="#fff" stroke-linecap="round" stroke-width=".36"/>
    <line x1="174.27" x2="172.99" y1="131.69" y2="133.9" stroke="#fff" stroke-linecap="round" stroke-width=".36"/>
    <line x1="172.99" x2="167.18" y1="133.9" y2="143.96" stroke="#fff" stroke-linecap="round" stroke-width=".36"/>
    <line x1="167.18" x2="154.91" y1="143.96" y2="136.87" stroke="#fff" stroke-linecap="round" stroke-width=".36"/>
    <line x1="172.06" x2="172.99" y1="130.41" y2="133.9" stroke="#fff" stroke-linecap="round" stroke-width=".36"/>
    <line x1="172.99" x2="173.36" y1="133.9" y2="135.25" stroke="#fff" stroke-linecap="round" stroke-width=".36"/>
    <line x1="173.36" x2="175.1" y1="135.25" y2="134.78" stroke="#fff" stroke-linecap="round" stroke-width=".36"/>
    <line x1="175.1" x2="174.27" y1="134.78" y2="131.69" stroke="#fff" stroke-linecap="round" stroke-width=".36"/>
    <circle cx="164.59" cy="134.28" r="4.8769" fill="none" stroke="#fff" stroke-width=".36"/>
   </g>
  </g>
  <g>
   <title>element:LED10</title>
   <g>
    <title>package:WS2812B-NARROW</title>
    <line x1="141.41" x2="151.43" y1="151.43" y2="141.41" stroke="#fff" stroke-linecap="round" stroke-width=".36"/>
    <line x1="151.43" x2="159.65" y1="141.41" y2="149.62" stroke="#fff" stroke-linecap="round" stroke-width=".36"/>
    <line x1="159.65" x2="161.45" y1="149.62" y2="151.43" stroke="#fff" stroke-linecap="round" stroke-width=".36"/>
    <line x1="161.45" x2="159.65" y1="151.43" y2="153.23" stroke="#fff" stroke-linecap="round" stroke-width=".36"/>
    <line x1="159.65" x2="151.43" y1="153.23" y2="161.45" stroke="#fff" stroke-linecap="round" stroke-width=".36"/>
    <line x1="151.43" x2="141.41" y1="161.45" y2="151.43" stroke="#fff" stroke-linecap="round" stroke-width=".36"/>
    <line x1="159.65" x2="159.65" y1="149.62" y2="153.23" stroke="#fff" stroke-linecap="round" stroke-width=".36"/>
    <line x1="159.65" x2="159.65" y1="153.23" y2="154.64" stroke="#fff" stroke-linecap="round" stroke-width=".36"/>
    <line x1="159.65" x2="161.45" y1="154.64" y2="154.64" stroke="#fff" stroke-linecap="round" stroke-width=".36"/>
    <line x1="161.45" x2="161.45" y1="154.64" y2="151.43" stroke="#fff" stroke-linecap="round" stroke-width=".36"/>
    <circle cx="151.43" cy="151.43" r="4.8769" fill="none" stroke="#fff" stroke-width=".36"/>
   </g>
  </g>
  <g>
   <title>element:LED11</title>
   <g>
    <title>package:WS2812B-NARROW</title>
    <line x1="124.6" x2="136.87" y1="161.99" y2="154.91" stroke="#fff" stroke-linecap="round" stroke-width=".36"/>
    <line x1="136.87" x2="142.68" y1="154.91" y2="164.97" stroke="#fff" stroke-linecap="round" stroke-width=".36"/>
    <line x1="142.68" x2="143.96" y1="164.97" y2="167.18" stroke="#fff" stroke-linecap="round" stroke-width=".36"/>
    <line x1="143.96" x2="141.75" y1="167.18" y2="168.46" stroke="#fff" stroke-linecap="round" stroke-width=".36"/>
    <line x1="141.75" x2="131.69" y1="168.46" y2="174.27" stroke="#fff" stroke-linecap="round" stroke-width=".36"/>
    <line x1="131.69" x2="124.6" y1="174.27" y2="161.99" stroke="#fff" stroke-linecap="round" stroke-width=".36"/>
    <line x1="142.68" x2="141.75" y1="164.97" y2="168.46" stroke="#fff" stroke-linecap="round" stroke-width=".36"/>
    <line x1="141.75" x2="141.39" y1="168.46" y2="169.81" stroke="#fff" stroke-linecap="round" stroke-width=".36"/>
    <line x1="141.39" x2="143.13" y1="169.81" y2="170.28" stroke="#fff" stroke-linecap="round" stroke-width=".36"/>
    <line x1="143.13" x2="143.96" y1="170.28" y2="167.18" stroke="#fff" stroke-linecap="round" stroke-width=".36"/>
    <circle cx="134.28" cy="164.59" r="4.8769" fill="none" stroke="#fff" stroke-width=".36"/>
   </g>
  </g>
  <g>
   <title>element:LED12</title>
   <g>
    <title>package:WS2812B-NARROW</title>
    <line x1="105.63" x2="119.32" y1="167.85" y2="164.18" stroke="#fff" stroke-linecap="round" stroke-width=".36"/>
    <line x1="119.32" x2="122.33" y1="164.18" y2="175.4" stroke="#fff" stroke-linecap="round" stroke-width=".36"/>
    <line x1="122.33" x2="122.99" y1="175.4" y2="177.87" stroke="#fff" stroke-linecap="round" stroke-width=".36"/>
    <line x1="122.99" x2="120.52" y1="177.87" y2="178.53" stroke="#fff" stroke-linecap="round" stroke-width=".36"/>
    <line x1="120.52" x2="109.3" y1="178.53" y2="181.54" stroke="#fff" stroke-linecap="round" stroke-width=".36"/>
    <line x1="109.3" x2="105.63" y1="181.54" y2="167.85" stroke="#fff" stroke-linecap="round" stroke-width=".36"/>
    <line x1="122.33" x2="120.52" y1="175.4" y2="178.53" stroke="#fff" stroke-linecap="round" stroke-width=".36"/>
    <line x1="120.52" x2="119.82" y1="178.53" y2="179.74" stroke="#fff" stroke-linecap="round" stroke-width=".36"/>
    <line x1="119.82" x2="121.39" y1="179.74" y2="180.65" stroke="#fff" stroke-linecap="round" stroke-width=".36"/>
    <line x1="121.39" x2="122.99" y1="180.65" y2="177.87" stroke="#fff" stroke-linecap="round" stroke-width=".36"/>
    <circle cx="114.31" cy="172.86" r="4.8769" fill="none" stroke="#fff" stroke-width=".36"/>
   </g>
  </g>
  <g>
   <title>element:LED14</title>
   <g>
    <title>package:WS2812B-NARROW</title>
    <line x1="66.439" x2="80.13" y1="164.18" y2="167.85" stroke="#fff" stroke-linecap="round" stroke-width=".36"/>
    <line x1="80.13" x2="77.121" y1="167.85" y2="179.07" stroke="#fff" stroke-linecap="round" stroke-width=".36"/>
    <line x1="77.121" x2="76.461" y1="179.07" y2="181.54" stroke="#fff" stroke-linecap="round" stroke-width=".36"/>
    <line x1="76.461" x2="73.997" y1="181.54" y2="180.88" stroke="#fff" stroke-linecap="round" stroke-width=".36"/>
    <line x1="73.997" x2="62.771" y1="180.88" y2="177.87" stroke="#fff" stroke-linecap="round" stroke-width=".36"/>
    <line x1="62.771" x2="66.439" y1="177.87" y2="164.18" stroke="#fff" stroke-linecap="round" stroke-width=".36"/>
    <line x1="77.121" x2="73.997" y1="179.07" y2="180.88" stroke="#fff" stroke-linecap="round" stroke-width=".36"/>
    <line x1="73.997" x2="72.782" y1="180.88" y2="181.58" stroke="#fff" stroke-linecap="round" stroke-width=".36"/>
    <line x1="72.782" x2="73.683" y1="181.58" y2="183.14" stroke="#fff" stroke-linecap="round" stroke-width=".36"/>
    <line x1="73.683" x2="76.461" y1="183.14" y2="181.54" stroke="#fff" stroke-linecap="round" stroke-width=".36"/>
    <circle cx="71.45" cy="172.86" r="4.8769" fill="none" stroke="#fff" stroke-width=".36"/>
   </g>
  </g>
  <g>
   <title>element:LED15</title>
   <g>
    <title>package:WS2812B-NARROW</title>
    <line x1="48.886" x2="61.16" y1="154.91" y2="161.99" stroke="#fff" stroke-linecap="round" stroke-width=".36"/>
    <line x1="61.16" x2="55.35" y1="161.99" y2="172.06" stroke="#fff" stroke-linecap="round" stroke-width=".36"/>
    <line x1="55.35" x2="54.074" y1="172.06" y2="174.27" stroke="#fff" stroke-linecap="round" stroke-width=".36"/>
    <line x1="54.074" x2="51.864" y1="174.27" y2="172.99" stroke="#fff" stroke-linecap="round" stroke-width=".36"/>
    <line x1="51.864" x2="41.8" y1="172.99" y2="167.18" stroke="#fff" stroke-linecap="round" stroke-width=".36"/>
    <line x1="41.8" x2="48.886" y1="167.18" y2="154.91" stroke="#fff" stroke-linecap="round" stroke-width=".36"/>
    <line x1="55.35" x2="51.864" y1="172.06" y2="172.99" stroke="#fff" stroke-linecap="round" stroke-width=".36"/>
    <line x1="51.864" x2="50.509" y1="172.99" y2="173.36" stroke="#fff" stroke-linecap="round" stroke-width=".36"/>
    <line x1="50.509" x2="50.976" y1="173.36" y2="175.1" stroke="#fff" stroke-linecap="round" stroke-width=".36"/>
    <line x1="50.976" x2="54.074" y1="175.1" y2="174.27" stroke="#fff" stroke-linecap="round" stroke-width=".36"/>
    <circle cx="51.48" cy="164.59" r="4.8769" fill="none" stroke="#fff" stroke-width=".36"/>
   </g>
  </g>
  <g>
   <title>element:LED16</title>
   <g>
    <title>package:WS2812B-NARROW</title>
    <line x1="34.332" x2="44.354" y1="141.41" y2="151.43" stroke="#fff" stroke-linecap="round" stroke-width=".36"/>
    <line x1="44.354" x2="36.136" y1="151.43" y2="159.65" stroke="#fff" stroke-linecap="round" stroke-width=".36"/>
    <line x1="36.136" x2="34.332" y1="159.65" y2="161.45" stroke="#fff" stroke-linecap="round" stroke-width=".36"/>
    <line x1="34.332" x2="32.528" y1="161.45" y2="159.65" stroke="#fff" stroke-linecap="round" stroke-width=".36"/>
    <line x1="32.528" x2="24.31" y1="159.65" y2="151.43" stroke="#fff" stroke-linecap="round" stroke-width=".36"/>
    <line x1="24.31" x2="34.332" y1="151.43" y2="141.41" stroke="#fff" stroke-linecap="round" stroke-width=".36"/>
    <line x1="36.136" x2="32.528" y1="159.65" y2="159.65" stroke="#fff" stroke-linecap="round" stroke-width=".36"/>
    <line x1="32.528" x2="31.125" y1="159.65" y2="159.65" stroke="#fff" stroke-linecap="round" stroke-width=".36"/>
    <line x1="31.125" x2="31.125" y1="159.65" y2="161.45" stroke="#fff" stroke-linecap="round" stroke-width=".36"/>
    <line x1="31.125" x2="34.332" y1="161.45" y2="161.45" stroke="#fff" stroke-linecap="round" stroke-width=".36"/>
    <circle cx="34.332" cy="151.43" r="4.8769" fill="none" stroke="#fff" stroke-width=".36"/>
   </g>
  </g>
  <g>
   <title>element:LED17</title>
   <g>
    <title>package:WS2812B-NARROW</title>
    <line x1="23.767" x2="30.854" y1="124.6" y2="136.87" stroke="#fff" stroke-linecap="round" stroke-width=".36"/>
    <line x1="30.854" x2="20.789" y1="136.87" y2="142.68" stroke="#fff" stroke-linecap="round" stroke-width=".36"/>
    <line x1="20.789" x2="18.579" y1="142.68" y2="143.96" stroke="#fff" stroke-linecap="round" stroke-width=".36"/>
    <line x1="18.579" x2="17.304" y1="143.96" y2="141.75" stroke="#fff" stroke-linecap="round" stroke-width=".36"/>
    <line x1="17.304" x2="11.493" y1="141.75" y2="131.69" stroke="#fff" stroke-linecap="round" stroke-width=".36"/>
    <line x1="11.493" x2="23.767" y1="131.69" y2="124.6" stroke="#fff" stroke-linecap="round" stroke-width=".36"/>
    <line x1="20.789" x2="17.304" y1="142.68" y2="141.75" stroke="#fff" stroke-linecap="round" stroke-width=".36"/>
    <line x1="17.304" x2="15.948" y1="141.75" y2="141.39" stroke="#fff" stroke-linecap="round" stroke-width=".36"/>
    <line x1="15.948" x2="15.481" y1="141.39" y2="143.13" stroke="#fff" stroke-linecap="round" stroke-width=".36"/>
    <line x1="15.481" x2="18.579" y1="143.13" y2="143.96" stroke="#fff" stroke-linecap="round" stroke-width=".36"/>
    <circle cx="21.173" cy="134.28" r="4.8769" fill="none" stroke="#fff" stroke-width=".36"/>
   </g>
  </g>
  <g>
   <title>element:LED18</title>
   <g>
    <title>package:WS2812B-NARROW</title>
    <line x1="17.913" x2="21.581" y1="105.63" y2="119.32" stroke="#fff" stroke-linecap="round" stroke-width=".36"/>
    <line x1="21.581" x2="10.355" y1="119.32" y2="122.33" stroke="#fff" stroke-linecap="round" stroke-width=".36"/>
    <line x1="10.355" x2="7.8907" y1="122.33" y2="122.99" stroke="#fff" stroke-linecap="round" stroke-width=".36"/>
    <line x1="7.8907" x2="7.2304" y1="122.99" y2="120.52" stroke="#fff" stroke-linecap="round" stroke-width=".36"/>
    <line x1="7.2304" x2="4.2224" y1="120.52" y2="109.3" stroke="#fff" stroke-linecap="round" stroke-width=".36"/>
    <line x1="4.2224" x2="17.913" y1="109.3" y2="105.63" stroke="#fff" stroke-linecap="round" stroke-width=".36"/>
    <line x1="10.355" x2="7.2304" y1="122.33" y2="120.52" stroke="#fff" stroke-linecap="round" stroke-width=".36"/>
    <line x1="7.2304" x2="6.0153" y1="120.52" y2="119.82" stroke="#fff" stroke-linecap="round" stroke-width=".36"/>
    <line x1="6.0153" x2="5.1133" y1="119.82" y2="121.39" stroke="#fff" stroke-linecap="round" stroke-width=".36"/>
    <line x1="5.1133" x2="7.8907" y1="121.39" y2="122.99" stroke="#fff" stroke-linecap="round" stroke-width=".36"/>
    <circle cx="12.902" cy="114.31" r="4.8769" fill="none" stroke="#fff" stroke-width=".36"/>
   </g>
  </g>
  <g>
   <title>element:LED20</title>
   <g>
    <title>package:WS2812B-NARROW</title>
    <line x1="21.581" x2="17.913" y1="66.439" y2="80.13" stroke="#fff" stroke-linecap="round" stroke-width=".36"/>
    <line x1="17.913" x2="6.6866" y1="80.13" y2="77.121" stroke="#fff" stroke-linecap="round" stroke-width=".36"/>
    <line x1="6.6866" x2="4.2224" y1="77.121" y2="76.461" stroke="#fff" stroke-linecap="round" stroke-width=".36"/>
    <line x1="4.2224" x2="4.8827" y1="76.461" y2="73.997" stroke="#fff" stroke-linecap="round" stroke-width=".36"/>
    <line x1="4.8827" x2="7.8907" y1="73.997" y2="62.771" stroke="#fff" stroke-linecap="round" stroke-width=".36"/>
    <line x1="7.8907" x2="21.581" y1="62.771" y2="66.439" stroke="#fff" stroke-linecap="round" stroke-width=".36"/>
    <line x1="6.6866" x2="4.8827" y1="77.121" y2="73.997" stroke="#fff" stroke-linecap="round" stroke-width=".36"/>
    <line x1="4.8827" x2="4.1812" y1="73.997" y2="72.782" stroke="#fff" stroke-linecap="round" stroke-width=".36"/>
    <line x1="4.1812" x2="2.6189" y1="72.782" y2="73.683" stroke="#fff" stroke-linecap="round" stroke-width=".36"/>
    <line x1="2.6189" x2="4.2224" y1="73.683" y2="76.461" stroke="#fff" stroke-linecap="round" stroke-width=".36"/>
    <circle cx="12.902" cy="71.45" r="4.8769" fill="none" stroke="#fff" stroke-width=".36"/>
   </g>
  </g>
  <g>
   <title>element:LED21</title>
   <g>
    <title>package:WS2812B-NARROW</title>
    <line x1="30.854" x2="23.767" y1="48.886" y2="61.16" stroke="#fff" stroke-linecap="round" stroke-width=".36"/>
    <line x1="23.767" x2="13.702" y1="61.16" y2="55.35" stroke="#fff" stroke-linecap="round" stroke-width=".36"/>
    <line x1="13.702" x2="11.493" y1="55.35" y2="54.074" stroke="#fff" stroke-linecap="round" stroke-width=".36"/>
    <line x1="11.493" x2="12.768" y1="54.074" y2="51.864" stroke="#fff" stroke-linecap="round" stroke-width=".36"/>
    <line x1="12.768" x2="18.579" y1="51.864" y2="41.8" stroke="#fff" stroke-linecap="round" stroke-width=".36"/>
    <line x1="18.579" x2="30.854" y1="41.8" y2="48.886" stroke="#fff" stroke-linecap="round" stroke-width=".36"/>
    <line x1="13.702" x2="12.768" y1="55.35" y2="51.864" stroke="#fff" stroke-linecap="round" stroke-width=".36"/>
    <line x1="12.768" x2="12.405" y1="51.864" y2="50.509" stroke="#fff" stroke-linecap="round" stroke-width=".36"/>
    <line x1="12.405" x2="10.662" y1="50.509" y2="50.976" stroke="#fff" stroke-linecap="round" stroke-width=".36"/>
    <line x1="10.662" x2="11.493" y1="50.976" y2="54.074" stroke="#fff" stroke-linecap="round" stroke-width=".36"/>
    <circle cx="21.173" cy="51.48" r="4.8769" fill="none" stroke="#fff" stroke-width=".36"/>
   </g>
  </g>
  <g>
   <title>element:LED22</title>
   <g>
    <title>package:WS2812B-NARROW</title>
    <line x1="44.354" x2="34.332" y1="34.332" y2="44.354" stroke="#fff" stroke-linecap="round" stroke-width=".36"/>
    <line x1="34.332" x2="26.114" y1="44.354" y2="36.136" stroke="#fff" stroke-linecap="round" stroke-width=".36"/>
    <line x1="26.114" x2="24.31" y1="36.136" y2="34.332" stroke="#fff" stroke-linecap="round" stroke-width=".36"/>
    <line x1="24.31" x2="26.114" y1="34.332" y2="32.528" stroke="#fff" stroke-linecap="round" stroke-width=".36"/>
    <line x1="26.114" x2="34.332" y1="32.528" y2="24.31" stroke="#fff" stroke-linecap="round" stroke-width=".36"/>
    <line x1="34.332" x2="44.354" y1="24.31" y2="34.332" stroke="#fff" stroke-linecap="round" stroke-width=".36"/>
    <line x1="26.114" x2="26.114" y1="36.136" y2="32.528" stroke="#fff" stroke-linecap="round" stroke-width=".36"/>
    <line x1="26.114" x2="26.114" y1="32.528" y2="31.125" stroke="#fff" stroke-linecap="round" stroke-width=".36"/>
    <line x1="26.114" x2="24.31" y1="31.125" y2="31.125" stroke="#fff" stroke-linecap="round" stroke-width=".36"/>
    <line x1="24.31" x2="24.31" y1="31.125" y2="34.332" stroke="#fff" stroke-linecap="round" stroke-width=".36"/>
    <circle cx="34.332" cy="34.332" r="4.8769" fill="none" stroke="#fff" stroke-width=".36"/>
   </g>
  </g>
  <g>
   <title>element:LED23</title>
   <g>
    <title>package:WS2812B-NARROW</title>
    <line x1="61.16" x2="48.886" y1="23.767" y2="30.854" stroke="#fff" stroke-linecap="round" stroke-width=".36"/>
    <line x1="48.886" x2="43.075" y1="30.854" y2="20.789" stroke="#fff" stroke-linecap="round" stroke-width=".36"/>
    <line x1="43.075" x2="41.8" y1="20.789" y2="18.579" stroke="#fff" stroke-linecap="round" stroke-width=".36"/>
    <line x1="41.8" x2="44.009" y1="18.579" y2="17.304" stroke="#fff" stroke-linecap="round" stroke-width=".36"/>
    <line x1="44.009" x2="54.074" y1="17.304" y2="11.493" stroke="#fff" stroke-linecap="round" stroke-width=".36"/>
    <line x1="54.074" x2="61.16" y1="11.493" y2="23.767" stroke="#fff" stroke-linecap="round" stroke-width=".36"/>
    <line x1="43.075" x2="44.009" y1="20.789" y2="17.304" stroke="#fff" stroke-linecap="round" stroke-width=".36"/>
    <line x1="44.009" x2="44.372" y1="17.304" y2="15.948" stroke="#fff" stroke-linecap="round" stroke-width=".36"/>
    <line x1="44.372" x2="42.63" y1="15.948" y2="15.481" stroke="#fff" stroke-linecap="round" stroke-width=".36"/>
    <line x1="42.63" x2="41.8" y1="15.481" y2="18.579" stroke="#fff" stroke-linecap="round" stroke-width=".36"/>
    <circle cx="51.48" cy="21.173" r="4.8769" fill="none" stroke="#fff" stroke-width=".36"/>
   </g>
  </g>
  <g>
   <title>element:LED24</title>
   <g>
    <title>package:WS2812B-NARROW</title>
    <line x1="80.13" x2="66.439" y1="17.913" y2="21.581" stroke="#fff" stroke-linecap="round" stroke-width=".36"/>
    <line x1="66.439" x2="63.431" y1="21.581" y2="10.355" stroke="#fff" stroke-linecap="round" stroke-width=".36"/>
    <line x1="63.431" x2="62.771" y1="10.355" y2="7.8907" stroke="#fff" stroke-linecap="round" stroke-width=".36"/>
    <line x1="62.771" x2="65.235" y1="7.8907" y2="7.2304" stroke="#fff" stroke-linecap="round" stroke-width=".36"/>
    <line x1="65.235" x2="76.461" y1="7.2304" y2="4.2224" stroke="#fff" stroke-linecap="round" stroke-width=".36"/>
    <line x1="76.461" x2="80.13" y1="4.2224" y2="17.913" stroke="#fff" stroke-linecap="round" stroke-width=".36"/>
    <line x1="63.431" x2="65.235" y1="10.355" y2="7.2304" stroke="#fff" stroke-linecap="round" stroke-width=".36"/>
    <line x1="65.235" x2="65.936" y1="7.2304" y2="6.0153" stroke="#fff" stroke-linecap="round" stroke-width=".36"/>
    <line x1="65.936" x2="64.374" y1="6.0153" y2="5.1133" stroke="#fff" stroke-linecap="round" stroke-width=".36"/>
    <line x1="64.374" x2="62.771" y1="5.1133" y2="7.8907" stroke="#fff" stroke-linecap="round" stroke-width=".36"/>
    <circle cx="71.45" cy="12.902" r="4.8769" fill="none" stroke="#fff" stroke-width=".36"/>
   </g>
  </g>
 </g>
 <g id="copper1">
  <g id="copper0" fill="none" stroke="#F7BD13" stroke-width="1.0307">
   <circle id="connector37pad" cx="104.62" cy="4.104" r="1.9327" connectorname="1"/>
   <circle id="connector38pad" cx="58.68" cy="10.08" r="1.9327" connectorname="1"/>
   <circle id="connector39pad" cx="81.144" cy="181.66" r="1.9327" connectorname="VDD"/>
   <circle id="connector40pad" cx="127.15" cy="175.61" r="1.9327" connectorname="GND"/>
   <circle id="connector41pad" cx="38.376" cy="163.94" r="1.9327" connectorname="VDD"/>
   <circle id="connector42pad" cx="164.02" cy="147.46" r="1.9327" connectorname="GND"/>
  </g>
 </g>
</svg>
