<?xml version="1.0" encoding="UTF-8"?>
<!-- Created with Fritzing (http://www.fritzing.org/) -->
<svg width=".4in" height=".6in" baseProfile="tiny" version="1.2" viewBox="0 0 28.8 43.2" xmlns="http://www.w3.org/2000/svg">
 <desc>
  <referenceFile>Adafruit TPS61040 Boost Converter_pcb.svg</referenceFile>
 </desc>
 <desc>Fritzing footprint generated by brd2svg</desc>
 <g id="silkscreen">
  <path d="m0.288 42.912v-35.52a6.912 6.912 0 0 1 7.056-7.104h14.112a6.912 6.912 0 0 1 7.056 7.104v35.52h-28.224" fill="none" stroke="#fff" stroke-width=".576"/>
  <g>
   <title>element:JP1</title>
   <g>
    <title>package:1X04_ROUND</title>
   </g>
  </g>
  <g>
   <title>element:L1</title>
   <g>
    <title>package:INDUCTOR_1007</title>
    <line x1="8.64" x2="8.64" y1="16.38" y2="26.82" stroke="#fff" stroke-linecap="round" stroke-width=".576"/>
    <line x1="8.64" x2="1.44" y1="26.82" y2="26.82" stroke="#fff" stroke-linecap="round" stroke-width=".576"/>
    <line x1="1.44" x2="1.44" y1="26.82" y2="16.38" stroke="#fff" stroke-linecap="round" stroke-width=".576"/>
    <line x1="1.44" x2="8.64" y1="16.38" y2="16.38" stroke="#fff" stroke-linecap="round" stroke-width=".576"/>
   </g>
  </g>
  <g>
   <title>element:U$9</title>
   <g>
    <title>package:MOUNTINGHOLE_2.5_PLATED</title>
    <circle cx="14.4" cy="7.2" r="5.6693" fill="none" stroke="#fff" stroke-width=".576"/>
   </g>
  </g>
  <g>
   <title>element:U$11</title>
   <g>
    <title>package:ADAFRUIT_2.5MM</title>
   </g>
  </g>
  <g>
   <title>element:U1</title>
   <g>
    <title>package:SOT23-5</title>
    <line x1="10.083" x2="10.083" y1="17.532" y2="22.068" stroke="#fff" stroke-linecap="round" stroke-width=".576"/>
    <line x1="19.437" x2="19.437" y1="17.532" y2="22.068" stroke="#fff" stroke-linecap="round" stroke-width=".576"/>
    <line x1="13.626" x2="15.894" y1="16.824" y2="16.824" stroke="#fff" stroke-linecap="round" stroke-width=".576"/>
   </g>
  </g>
 </g>
 <g id="copper1">
  <g id="copper0" fill="none" stroke="#F7BD13">
   <circle id="connector26pad" cx="14.4" cy="7.2" r="4.2633" stroke-width="1.44" connectorname="P$1"/>
   <circle id="connector14pad" cx="25.2" cy="36" r="1.9687" stroke-width="1.1027" connectorname="EN"/>
   <circle id="connector15pad" cx="18" cy="36" r="1.9687" stroke-width="1.1027" connectorname="VIN"/>
   <circle id="connector16pad" cx="10.8" cy="36" r="1.9687" stroke-width="1.1027" connectorname="V+"/>
   <circle id="connector17pad" cx="3.6" cy="36" r="1.9687" stroke-width="1.1027" connectorname="GND"/>
  </g>
 </g>
</svg>
