<?xml version="1.0" encoding="UTF-8"?>
<!-- Created with Fritzing (http://www.fritzing.org/) -->
<svg width="2in" height=".90003in" baseProfile="tiny" version="1.2" viewBox="0 0 144 64.802" xmlns="http://www.w3.org/2000/svg">
 <desc>
  <referenceFile>Adafruit CAN Bus FeatherWing_pcb.svg</referenceFile>
 </desc>
 <desc>Fritzing footprint generated by brd2svg</desc>
 <g id="silkscreen">
  <path d="m136.54 64.512a6.912 6.912 0 0 0 7.171-7.136v-49.952a6.912 6.912 0 0 0-7.171-7.136 7.0942 7.0942 0 0 1 7.171 7.4928v49.952a6.7343 6.7343 0 0 1-7.171 6.7792h-129.08a6.912 6.912 0 0 1-7.1712-7.136v-49.952a6.912 6.912 0 0 1 7.1712-7.136h129.08v64.224m-136.25-7.136a6.912 6.912 0 0 0 7.1712 7.136l-7.1712-7.136m133.2-50.176a3.312 3.312 0 1 0 6.624 0 3.312 3.312 0 1 0-6.624 0zm0 50.4a3.312 3.312 0 1 0 6.624 0 3.312 3.312 0 1 0-6.624 0z" fill="none" stroke="#fff" stroke-width=".576"/>
  <line x1="143.64" x2="134.64" y1="36.72" y2="36.72" stroke="#fff" stroke-linecap="round" stroke-width=".864"/>
  <path d="m134.64 36.72a1.8 1.8 0 0 0-1.8 1.8" fill="none" stroke="#fff" stroke-width=".864"/>
  <line x1="132.84" x2="132.84" y1="38.52" y2="42.12" stroke="#fff" stroke-linecap="round" stroke-width=".864"/>
  <path d="m132.84 42.12a1.63 1.63 0 0 0 1.8 1.44" fill="none" stroke="#fff" stroke-width=".864"/>
  <line x1="134.64" x2="143.64" y1="43.56" y2="43.56" stroke="#fff" stroke-linecap="round" stroke-width=".864"/>
  <g>
   <title>element:IC2</title>
   <g>
    <title>package:SOIC18WIDE</title>
    <line x1="51.12" x2="82.08" y1="42.984" y2="42.984" stroke="#fff" stroke-linecap="round" stroke-width=".576"/>
    <path d="m51.12 21.816a1.08 1.08 0 0 0-1.08 1.08" fill="none" stroke="#fff" stroke-width=".576"/>
    <path d="m82.08 42.984a1.08 1.08 0 0 0 1.08-1.08" fill="none" stroke="#fff" stroke-width=".576"/>
    <path d="m50.04 41.904a1.08 1.08 0 0 0 1.08 1.08" fill="none" stroke="#fff" stroke-width=".576"/>
    <path d="m83.16 22.896a1.08 1.08 0 0 0-1.08-1.08" fill="none" stroke="#fff" stroke-width=".576"/>
    <line x1="82.08" x2="51.12" y1="21.816" y2="21.816" stroke="#fff" stroke-linecap="round" stroke-width=".576"/>
    <line x1="50.04" x2="50.04" y1="22.896" y2="41.904" stroke="#fff" stroke-linecap="round" stroke-width=".576"/>
    <line x1="83.16" x2="83.16" y1="41.904" y2="36" stroke="#fff" stroke-linecap="round" stroke-width=".576"/>
    <line x1="83.16" x2="83.16" y1="36" y2="28.8" stroke="#fff" stroke-linecap="round" stroke-width=".576"/>
    <line x1="83.16" x2="83.16" y1="28.8" y2="22.896" stroke="#fff" stroke-linecap="round" stroke-width=".576"/>
    <line x1="83.16" x2="50.04" y1="22.824" y2="22.824" stroke="#fff" stroke-linecap="round" stroke-width=".144"/>
    <path d="m83.16 28.8a3.6 3.6 0 1 0 0 7.2" fill="none" stroke="#fff" stroke-width=".576"/>
   </g>
  </g>
  <g>
   <title>element:JP1</title>
   <g>
    <title>package:1X16_ROUND</title>
   </g>
  </g>
  <g>
   <title>element:JP2</title>
   <g>
    <title>package:1X12_ROUND</title>
   </g>
  </g>
  <g>
   <title>element:MS1</title>
   <g>
    <title>package:FEATHERWING_NODIM</title>
   </g>
  </g>
  <g>
   <title>element:NEOPIX1</title>
   <g>
    <title>package:TERMBLOCK_1X3-3.5MM</title>
    <line x1="20.438" x2="4.5638" y1="17.518" y2="17.518" stroke="#fff" stroke-linecap="round" stroke-width=".576"/>
    <line x1="4.5638" x2=".59528" y1="17.518" y2="17.518" stroke="#fff" stroke-linecap="round" stroke-width=".576"/>
    <line x1=".59528" x2=".59528" y1="17.518" y2="47.282" stroke="#fff" stroke-linecap="round" stroke-width=".576"/>
    <line x1=".59528" x2="4.5638" y1="47.282" y2="47.282" stroke="#fff" stroke-linecap="round" stroke-width=".576"/>
    <line x1="4.5638" x2="20.438" y1="47.282" y2="47.282" stroke="#fff" stroke-linecap="round" stroke-width=".576"/>
    <line x1="20.438" x2="20.438" y1="47.282" y2="17.518" stroke="#fff" stroke-linecap="round" stroke-width=".576"/>
    <line x1="4.5638" x2="4.5638" y1="17.518" y2="47.282" stroke="#fff" stroke-linecap="round" stroke-width=".576"/>
   </g>
  </g>
  <g>
   <title>element:PLABEL13</title>
   <g>
    <title>package:PLABEL13</title>
   </g>
  </g>
  <g>
   <title>element:U$22</title>
   <g>
    <title>package:FEATHERLOGO</title>
   </g>
  </g>
 </g>
 <g id="copper1">
  <g id="copper0" fill="none" stroke="#F7BD13">
   <circle id="connector102pad" cx="90" cy="61.2" r="1.9687" stroke-width="1.1027" connectorname="SCK"/>
   <circle id="connector86pad" cx="118.8" cy="10.8" r="1.8967" stroke-width=".95868" connectorname="SCL"/>
   <circle id="connector118pad" cx="54" cy="3.6" r="1.9687" stroke-width="1.1027" connectorname="EN"/>
   <circle id="connector78pad" cx="61.2" cy="10.8" r="1.8967" stroke-width=".95868" connectorname="USB"/>
   <circle id="connector94pad" cx="32.4" cy="61.2" r="1.9687" stroke-width="1.1027" connectorname="AREF"/>
   <circle id="connector110pad" cx="111.6" cy="3.6" r="1.9687" stroke-width="1.1027" connectorname="CAN_CS_DEFAULT"/>
   <circle id="connector82pad" cx="90" cy="10.8" r="1.8967" stroke-width=".95868" connectorname="K"/>
   <circle id="connector90pad" cx="90" cy="36" r="1.9687" stroke-width="1.1027" connectorname="CAN_RESET"/>
   <circle id="connector98pad" cx="61.2" cy="61.2" r="1.9687" stroke-width="1.1027" connectorname="C"/>
   <circle id="connector106pad" cx="118.8" cy="61.2" r="1.9687" stroke-width="1.1027" connectorname="TX"/>
   <circle id="connector114pad" cx="82.8" cy="3.6" r="1.9687" stroke-width="1.1027" connectorname="L"/>
   <circle id="connector122pad" cx="10.8" cy="42.321" r="2.2567" stroke-width="1.6787" connectorname="CAN_L"/>
   <circle id="connector80pad" cx="75.6" cy="10.8" r="1.8967" stroke-width=".95868" connectorname="M"/>
   <circle id="connector84pad" cx="104.4" cy="10.8" r="1.8967" stroke-width=".95868" connectorname="CAN_INT_DEFAULT"/>
   <circle id="connector88pad" cx="90" cy="21.6" r="1.9687" stroke-width="1.1027" connectorname="!CAN_INT"/>
   <circle id="connector92pad" cx="18" cy="61.2" r="1.9687" stroke-width="1.1027" connectorname="RESET"/>
   <circle id="connector96pad" cx="46.8" cy="61.2" r="1.9687" stroke-width="1.1027" connectorname="A"/>
   <circle id="connector100pad" cx="75.6" cy="61.2" r="1.9687" stroke-width="1.1027" connectorname="E"/>
   <circle id="connector104pad" cx="104.4" cy="61.2" r="1.9687" stroke-width="1.1027" connectorname="MISO"/>
   <circle id="connector108pad" cx="126" cy="3.6" r="1.9687" stroke-width="1.1027" connectorname="SDA"/>
   <circle id="connector112pad" cx="97.2" cy="3.6" r="1.9687" stroke-width="1.1027" connectorname="J"/>
   <circle id="connector116pad" cx="68.4" cy="3.6" r="1.9687" stroke-width="1.1027" connectorname="N"/>
   <circle id="connector120pad" cx="7.2" cy="7.2" r="4.4716" stroke-width="1.8567" connectorname="P$1"/>
   <circle id="connector124pad" cx="10.8" cy="22.479" r="2.2567" stroke-width="1.6787" connectorname="CAN_H"/>
   <circle id="connector77pad" cx="54" cy="10.8" r="1.8967" stroke-width=".95868" connectorname="EN"/>
   <circle id="connector79pad" cx="68.4" cy="10.8" r="1.8967" stroke-width=".95868" connectorname="N"/>
   <circle id="connector81pad" cx="82.8" cy="10.8" r="1.8967" stroke-width=".95868" connectorname="L"/>
   <circle id="connector83pad" cx="97.2" cy="10.8" r="1.8967" stroke-width=".95868" connectorname="J"/>
   <circle id="connector85pad" cx="111.6" cy="10.8" r="1.8967" stroke-width=".95868" connectorname="CAN_CS_DEFAULT"/>
   <circle id="connector87pad" cx="126" cy="10.8" r="1.8967" stroke-width=".95868" connectorname="SDA"/>
   <circle id="connector89pad" cx="90" cy="28.8" r="1.9687" stroke-width="1.1027" connectorname="CAN_CS"/>
   <circle id="connector91pad" cx="90" cy="43.2" r="1.9687" stroke-width="1.1027" connectorname="SILENT"/>
   <circle id="connector93pad" cx="25.2" cy="61.2" r="1.9687" stroke-width="1.1027" connectorname="3.3V"/>
   <circle id="connector95pad" cx="39.6" cy="61.2" r="1.9687" stroke-width="1.1027" connectorname="GND"/>
   <circle id="connector97pad" cx="54" cy="61.2" r="1.9687" stroke-width="1.1027" connectorname="B"/>
   <circle id="connector99pad" cx="68.4" cy="61.2" r="1.9687" stroke-width="1.1027" connectorname="D"/>
   <circle id="connector101pad" cx="82.8" cy="61.2" r="1.9687" stroke-width="1.1027" connectorname="F"/>
   <circle id="connector103pad" cx="97.2" cy="61.2" r="1.9687" stroke-width="1.1027" connectorname="MOSI"/>
   <circle id="connector105pad" cx="111.6" cy="61.2" r="1.9687" stroke-width="1.1027" connectorname="RX"/>
   <circle id="connector107pad" cx="126" cy="61.2" r="1.9687" stroke-width="1.1027" connectorname="G"/>
   <circle id="connector109pad" cx="118.8" cy="3.6" r="1.9687" stroke-width="1.1027" connectorname="SCL"/>
   <circle id="connector111pad" cx="104.4" cy="3.6" r="1.9687" stroke-width="1.1027" connectorname="CAN_INT_DEFAULT"/>
   <circle id="connector113pad" cx="90" cy="3.6" r="1.9687" stroke-width="1.1027" connectorname="K"/>
   <circle id="connector115pad" cx="75.6" cy="3.6" r="1.9687" stroke-width="1.1027" connectorname="M"/>
   <circle id="connector60pad" cx="126" cy="54" r="1.8967" stroke-width=".95868" connectorname="G"/>
   <circle id="connector117pad" cx="61.2" cy="3.6" r="1.9687" stroke-width="1.1027" connectorname="USB"/>
   <circle id="connector61pad" cx="118.8" cy="54" r="1.8967" stroke-width=".95868" connectorname="TX"/>
   <circle id="connector119pad" cx="46.8" cy="3.6" r="1.9687" stroke-width="1.1027" connectorname="VBAT"/>
   <circle id="connector62pad" cx="111.6" cy="54" r="1.8967" stroke-width=".95868" connectorname="RX"/>
   <circle id="connector121pad" cx="7.2" cy="57.6" r="4.4716" stroke-width="1.8567" connectorname="P$2"/>
   <circle id="connector63pad" cx="104.4" cy="54" r="1.8967" stroke-width=".95868" connectorname="MISO"/>
   <circle id="connector123pad" cx="10.8" cy="32.4" r="2.2567" stroke-width="1.6787" connectorname="GND"/>
   <circle id="connector64pad" cx="97.2" cy="54" r="1.8967" stroke-width=".95868" connectorname="MOSI"/>
   <circle id="connector65pad" cx="90" cy="54" r="1.8967" stroke-width=".95868" connectorname="SCK"/>
   <circle id="connector66pad" cx="82.8" cy="54" r="1.8967" stroke-width=".95868" connectorname="F"/>
   <circle id="connector67pad" cx="75.6" cy="54" r="1.8967" stroke-width=".95868" connectorname="E"/>
   <circle id="connector68pad" cx="68.4" cy="54" r="1.8967" stroke-width=".95868" connectorname="D"/>
   <circle id="connector69pad" cx="61.2" cy="54" r="1.8967" stroke-width=".95868" connectorname="C"/>
   <circle id="connector70pad" cx="54" cy="54" r="1.8967" stroke-width=".95868" connectorname="B"/>
   <circle id="connector71pad" cx="46.8" cy="54" r="1.8967" stroke-width=".95868" connectorname="A"/>
   <circle id="connector72pad" cx="39.6" cy="54" r="1.8967" stroke-width=".95868" connectorname="GND"/>
   <circle id="connector73pad" cx="32.4" cy="54" r="1.8967" stroke-width=".95868" connectorname="AREF"/>
   <circle id="connector74pad" cx="25.2" cy="54" r="1.8967" stroke-width=".95868" connectorname="3.3V"/>
   <circle id="connector75pad" cx="18" cy="54" r="1.8967" stroke-width=".95868" connectorname="RESET"/>
   <circle id="connector76pad" cx="46.8" cy="10.8" r="1.8967" stroke-width=".95868" connectorname="VBAT"/>
  </g>
 </g>
</svg>
