<?xml version="1.0" encoding="UTF-8"?>
<!-- Created with Fritzing (http://www.fritzing.org/) -->
<svg width=".8in" height=".7in" baseProfile="tiny" version="1.2" viewBox="0 0 57.6 50.4" xmlns="http://www.w3.org/2000/svg">
 <desc>
  <referenceFile>SPI Flash Rev E_pcb.svg</referenceFile>
 </desc>
 <desc>Fritzing footprint generated by brd2svg</desc>
 <g id="silkscreen">
  <path d="m0.288 42.994v-35.589a6.912 6.912 0 0 1 7.128-7.1177h42.768a6.912 6.912 0 0 1 7.128 7.1177v35.589a6.912 6.912 0 0 1-7.128 7.1177h-42.768a6.912 6.912 0 0 1-7.128-7.1177" fill="none" stroke="#fff" stroke-width=".576"/>
  <g>
   <title>element:JP2</title>
   <g>
    <title>package:1X07_ROUND_70</title>
   </g>
  </g>
  <g>
   <title>element:U1</title>
   <g>
    <title>package:SOIC8_208MIL</title>
    <line x1="48.946" x2="38.174" y1="31.283" y2="31.283" stroke="#fff" stroke-linecap="round" stroke-width=".576"/>
    <line x1="38.174" x2="48.946" y1="17.677" y2="17.677" stroke="#fff" stroke-linecap="round" stroke-width=".576"/>
    <circle cx="46.08" cy="29.952" r=".72" fill="none" stroke="#fff" stroke-width=".576"/>
   </g>
  </g>
  <g>
   <title>element:U3</title>
   <g>
    <title>package:TSSOP16</title>
    <line x1="29.808" x2="29.808" y1="18.729" y2="30.951" stroke="#fff" stroke-linecap="round" stroke-width=".576"/>
    <line x1="15.552" x2="15.552" y1="30.591" y2="18.729" stroke="#fff" stroke-linecap="round" stroke-width=".576"/>
    <circle cx="18.072" cy="28.296" r="1.296" fill="none" stroke="#fff" stroke-width=".576"/>
   </g>
  </g>
 </g>
 <g id="copper1">
  <g id="copper0" fill="none" stroke="#F7BD13">
   <circle id="connector13pad" cx="50.4" cy="43.2" r="1.9687" stroke-width="1.1027" connectorname="SS"/>
   <circle id="connector14pad" cx="43.2" cy="43.2" r="1.9687" stroke-width="1.1027" connectorname="MOSI"/>
   <circle id="connector15pad" cx="36" cy="43.2" r="1.9687" stroke-width="1.1027" connectorname="MISO_3.3V"/>
   <circle id="connector16pad" cx="28.8" cy="43.2" r="1.9687" stroke-width="1.1027" connectorname="SCK"/>
   <circle id="connector17pad" cx="21.6" cy="43.2" r="1.9687" stroke-width="1.1027" connectorname="GND"/>
   <circle id="connector18pad" cx="14.4" cy="43.2" r="1.9687" stroke-width="1.1027" connectorname="3.3V"/>
   <circle id="connector19pad" cx="7.2" cy="43.2" r="1.9687" stroke-width="1.1027" connectorname="VIN"/>
   <circle id="connector22pad" cx="7.2" cy="7.2" r="4.2633" stroke-width="1.44" connectorname="P$1"/>
   <circle id="connector23pad" cx="50.4" cy="7.2" r="4.2633" stroke-width="1.44" connectorname="P$1"/>
  </g>
 </g>
</svg>
