<?xml version="1.0" encoding="UTF-8"?>
<!-- Created with Fritzing (http://www.fritzing.org/) -->
<svg width="1.4in" height="1.6in" baseProfile="tiny" version="1.2" viewBox="0 0 100.8 115.2" xmlns="http://www.w3.org/2000/svg">
 <desc>
  <referenceFile>Adafruit ANO Rotary Encoder to I2C_pcb.svg</referenceFile>
 </desc>
 <desc>Fritzing footprint generated by brd2svg</desc>
 <g id="silkscreen">
  <path d="m100.51 107.75a6.912 6.912 0 0 1-7.159 7.164h-85.906a6.912 6.912 0 0 1-7.1589-7.164v-100.3a6.912 6.912 0 0 1 7.1589-7.164h85.906a6.912 6.912 0 0 1 7.159 7.164v100.3m-61.112-41.128a1.9797 1.9797 0 1 0 3.9594 0 1.9797 1.9797 0 1 0-3.9594 0zm18.04-18.04a1.9797 1.9797 0 1 0 3.9594 0 1.9797 1.9797 0 1 0-3.9594 0zm-42.487 39.086a5.3813 5.3813 0 1 0 10.763 0 5.3813 5.3813 0 1 0-10.763 0zm60.132-60.132a5.3813 5.3813 0 1 0 10.763 0 5.3813 5.3813 0 1 0-10.763 0zm-60.132 0a5.3813 5.3813 0 1 0 10.763 0 5.3813 5.3813 0 1 0-10.763 0zm60.132 60.132a5.3813 5.3813 0 1 0 10.763 0 5.3813 5.3813 0 1 0-10.763 0z" fill="none" stroke="#fff" stroke-width=".576"/>
  <g>
   <title>element:PLABEL8</title>
   <g>
    <title>package:PLABEL8</title>
   </g>
  </g>
  <g>
   <title>element:X1</title>
   <g>
    <title>package:ENCODER_ANO</title>
   </g>
  </g>
 </g>
 <g id="copper1">
  <g id="copper0">
   <rect id="connector11pad" x="12.13" y="59.698" width="4.3937" height="1.7008" fill="#F7BD13" stroke-width="0"/>
   <rect id="connector12pad" x="12.13" y="62.532" width="4.3937" height="1.7008" fill="#F7BD13" stroke-width="0"/>
   <circle id="connector66pad" cx="7.2" cy="108" r="4.1193" fill="none" stroke="#F7BD13" stroke-width="1.152" connectorname="P$1"/>
   <rect id="connector13pad" x="12.13" y="65.367" width="4.3937" height="1.7008" fill="#F7BD13" stroke-width="0"/>
   <rect id="connector14pad" x="12.13" y="68.202" width="4.3937" height="1.7008" fill="#F7BD13" stroke-width="0"/>
   <g transform="matrix(-1 0 0 -1 172.95 109.3)">
    <rect id="connector17pad" x="84.277" y="53.802" width="4.3937" height="1.7008" fill="#F7BD13" stroke-width="0"/>
   </g>
   <g transform="matrix(-1 0 0 -1 172.95 103.64)">
    <rect id="connector18pad" x="84.277" y="50.967" width="4.3937" height="1.7008" fill="#F7BD13" stroke-width="0"/>
   </g>
   <g transform="matrix(-1 0 0 -1 172.95 97.965)">
    <rect id="connector19pad" x="84.277" y="48.132" width="4.3937" height="1.7008" fill="#F7BD13" stroke-width="0"/>
   </g>
   <g transform="matrix(-1 0 0 -1 172.95 92.296)">
    <rect id="connector20pad" x="84.277" y="45.298" width="4.3937" height="1.7008" fill="#F7BD13" stroke-width="0"/>
   </g>
   <circle id="connector68pad" cx="7.2" cy="7.2" r="4.1193" fill="none" stroke="#F7BD13" stroke-width="1.152" connectorname="P$1"/>
   <circle id="connector29pad" cx="68.4" cy="109.8" r="1.9933" fill="none" stroke="#F7BD13" stroke-width="1.152" connectorname="VCC"/>
   <circle id="connector30pad" cx="61.2" cy="109.8" r="1.9933" fill="none" stroke="#F7BD13" stroke-width="1.152" connectorname="GND"/>
   <circle id="connector31pad" cx="54" cy="109.8" r="1.9933" fill="none" stroke="#F7BD13" stroke-width="1.152" connectorname="SCL"/>
   <circle id="connector32pad" cx="46.8" cy="109.8" r="1.9933" fill="none" stroke="#F7BD13" stroke-width="1.152" connectorname="SDA"/>
   <circle id="connector33pad" cx="39.6" cy="109.8" r="1.9933" fill="none" stroke="#F7BD13" stroke-width="1.152" connectorname="INT"/>
   <circle id="connector34pad" cx="32.4" cy="109.8" r="1.9933" fill="none" stroke="#F7BD13" stroke-width="1.152" connectorname="UPDI"/>
   <circle id="connector65pad" cx="93.6" cy="108" r="4.1193" fill="none" stroke="#F7BD13" stroke-width="1.152" connectorname="P$1"/>
   <circle id="connector67pad" cx="93.6" cy="7.2" r="4.1193" fill="none" stroke="#F7BD13" stroke-width="1.152" connectorname="P$1"/>
  </g>
 </g>
</svg>
