<?xml version="1.0" encoding="UTF-8"?>
<!-- Created with Fritzing (http://www.fritzing.org/) -->
<svg width="1in" height=".9in" baseProfile="tiny" version="1.2" viewBox="0 0 72 64.8" xmlns="http://www.w3.org/2000/svg">
 <desc>
  <referenceFile>Adafruit HX711 ADC Breakout_pcb.svg</referenceFile>
 </desc>
 <desc>Fritzing footprint generated by brd2svg</desc>
 <g id="silkscreen">
  <path d="m0.288 7.424a6.912 6.912 0 0 1 7.1424-7.136h57.139a6.912 6.912 0 0 1 7.1424 7.136v49.952a6.912 6.912 0 0 1-7.1424 7.136h-57.139a6.912 6.912 0 0 1-7.1424-7.136v-49.952m62.084 35.348a0.98759 0.98759 0 1 0 1.9752 0 0.98759 0.98759 0 1 0-1.9752 0zm0-8.504a0.98759 0.98759 0 1 0 1.9752 0 0.98759 0.98759 0 1 0-1.9752 0z" fill="none" stroke="#fff" stroke-width=".576"/>
  <g>
   <title>element:JP2</title>
   <g>
    <title>package:1X06_2.54MMTERMINAL</title>
    <line x1="58.309" x2="13.691" y1="18.507" y2="18.507" stroke="#fff" stroke-linecap="round" stroke-width=".432"/>
    <line x1="13.691" x2="13.691" y1="18.507" y2=".64913" stroke="#fff" stroke-linecap="round" stroke-width=".432"/>
    <line x1="13.691" x2="44.901" y1=".64913" y2=".64913" stroke="#fff" stroke-linecap="round" stroke-width=".432"/>
    <line x1="44.901" x2="48.586" y1=".64913" y2=".64913" stroke="#fff" stroke-linecap="round" stroke-width=".432"/>
    <line x1="52.271" x2="55.672" y1=".64913" y2=".64913" stroke="#fff" stroke-linecap="round" stroke-width=".432"/>
    <line x1="55.672" x2="58.309" y1=".64913" y2=".64913" stroke="#fff" stroke-linecap="round" stroke-width=".432"/>
    <line x1="58.309" x2="58.309" y1=".64913" y2="18.507" stroke="#fff" stroke-linecap="round" stroke-width=".432"/>
    <line x1="55.672" x2="55.672" y1=".64913" y2="4.0507" stroke="#fff" stroke-linecap="round" stroke-width=".432"/>
    <line x1="55.672" x2="52.271" y1="4.0507" y2="4.0507" stroke="#fff" stroke-linecap="round" stroke-width=".432"/>
    <line x1="52.271" x2="52.271" y1="4.0507" y2=".64913" stroke="#fff" stroke-linecap="round" stroke-width=".432"/>
    <line x1="52.271" x2="48.586" y1=".64913" y2=".64913" stroke="#fff" stroke-linecap="round" stroke-width=".432"/>
    <line x1="48.586" x2="48.586" y1=".64913" y2="4.0507" stroke="#fff" stroke-linecap="round" stroke-width=".432"/>
    <line x1="48.586" x2="44.901" y1="4.0507" y2="4.0507" stroke="#fff" stroke-linecap="round" stroke-width=".432"/>
    <line x1="44.901" x2="44.901" y1="4.0507" y2=".64913" stroke="#fff" stroke-linecap="round" stroke-width=".432"/>
    <line x1="41.272" x2="41.272" y1=".64913" y2="4.0507" stroke="#fff" stroke-linecap="round" stroke-width=".432"/>
    <line x1="41.272" x2="37.871" y1="4.0507" y2="4.0507" stroke="#fff" stroke-linecap="round" stroke-width=".432"/>
    <line x1="37.871" x2="37.871" y1="4.0507" y2=".64913" stroke="#fff" stroke-linecap="round" stroke-width=".432"/>
    <line x1="34.072" x2="34.072" y1=".64913" y2="4.0507" stroke="#fff" stroke-linecap="round" stroke-width=".432"/>
    <line x1="34.072" x2="30.671" y1="4.0507" y2="4.0507" stroke="#fff" stroke-linecap="round" stroke-width=".432"/>
    <line x1="30.671" x2="30.671" y1="4.0507" y2=".64913" stroke="#fff" stroke-linecap="round" stroke-width=".432"/>
    <line x1="53.972" x2="53.972" y1="3.2003" y2="1.4995" stroke="#fff" stroke-linecap="round" stroke-width=".432"/>
    <line x1="53.972" x2="54.822" y1="1.4995" y2="2.3499" stroke="#fff" stroke-linecap="round" stroke-width=".432"/>
    <line x1="54.822" x2="53.121" y1="2.3499" y2="2.3499" stroke="#fff" stroke-linecap="round" stroke-width=".432"/>
    <line x1="53.121" x2="53.972" y1="2.3499" y2="1.4995" stroke="#fff" stroke-linecap="round" stroke-width=".432"/>
    <line x1="46.772" x2="46.772" y1="3.2003" y2="1.4995" stroke="#fff" stroke-linecap="round" stroke-width=".432"/>
    <line x1="46.772" x2="47.622" y1="1.4995" y2="2.3499" stroke="#fff" stroke-linecap="round" stroke-width=".432"/>
    <line x1="47.622" x2="45.921" y1="2.3499" y2="2.3499" stroke="#fff" stroke-linecap="round" stroke-width=".432"/>
    <line x1="45.921" x2="46.772" y1="2.3499" y2="1.4995" stroke="#fff" stroke-linecap="round" stroke-width=".432"/>
    <line x1="39.572" x2="39.572" y1="3.2003" y2="1.4995" stroke="#fff" stroke-linecap="round" stroke-width=".432"/>
    <line x1="39.572" x2="40.422" y1="1.4995" y2="2.3499" stroke="#fff" stroke-linecap="round" stroke-width=".432"/>
    <line x1="40.422" x2="38.721" y1="2.3499" y2="2.3499" stroke="#fff" stroke-linecap="round" stroke-width=".432"/>
    <line x1="38.721" x2="39.572" y1="2.3499" y2="1.4995" stroke="#fff" stroke-linecap="round" stroke-width=".432"/>
    <line x1="32.372" x2="32.372" y1="3.2003" y2="1.4995" stroke="#fff" stroke-linecap="round" stroke-width=".432"/>
    <line x1="32.372" x2="33.222" y1="1.4995" y2="2.3499" stroke="#fff" stroke-linecap="round" stroke-width=".432"/>
    <line x1="33.222" x2="31.521" y1="2.3499" y2="2.3499" stroke="#fff" stroke-linecap="round" stroke-width=".432"/>
    <line x1="31.521" x2="32.372" y1="2.3499" y2="1.4995" stroke="#fff" stroke-linecap="round" stroke-width=".432"/>
    <line x1="26.872" x2="26.872" y1=".64913" y2="4.0507" stroke="#fff" stroke-linecap="round" stroke-width=".432"/>
    <line x1="26.872" x2="23.471" y1="4.0507" y2="4.0507" stroke="#fff" stroke-linecap="round" stroke-width=".432"/>
    <line x1="23.471" x2="23.471" y1="4.0507" y2=".64913" stroke="#fff" stroke-linecap="round" stroke-width=".432"/>
    <line x1="25.172" x2="25.172" y1="3.2003" y2="1.4995" stroke="#fff" stroke-linecap="round" stroke-width=".432"/>
    <line x1="25.172" x2="26.022" y1="1.4995" y2="2.3499" stroke="#fff" stroke-linecap="round" stroke-width=".432"/>
    <line x1="26.022" x2="24.321" y1="2.3499" y2="2.3499" stroke="#fff" stroke-linecap="round" stroke-width=".432"/>
    <line x1="24.321" x2="25.172" y1="2.3499" y2="1.4995" stroke="#fff" stroke-linecap="round" stroke-width=".432"/>
    <line x1="19.672" x2="19.672" y1=".64913" y2="4.0507" stroke="#fff" stroke-linecap="round" stroke-width=".432"/>
    <line x1="19.672" x2="16.271" y1="4.0507" y2="4.0507" stroke="#fff" stroke-linecap="round" stroke-width=".432"/>
    <line x1="16.271" x2="16.271" y1="4.0507" y2=".64913" stroke="#fff" stroke-linecap="round" stroke-width=".432"/>
    <line x1="17.972" x2="17.972" y1="3.2003" y2="1.4995" stroke="#fff" stroke-linecap="round" stroke-width=".432"/>
    <line x1="17.972" x2="18.822" y1="1.4995" y2="2.3499" stroke="#fff" stroke-linecap="round" stroke-width=".432"/>
    <line x1="18.822" x2="17.121" y1="2.3499" y2="2.3499" stroke="#fff" stroke-linecap="round" stroke-width=".432"/>
    <line x1="17.121" x2="17.972" y1="2.3499" y2="1.4995" stroke="#fff" stroke-linecap="round" stroke-width=".432"/>
   </g>
  </g>
  <g>
   <title>element:PLABEL16</title>
   <g>
    <title>package:PLABEL16</title>
   </g>
  </g>
  <g>
   <title>element:PLABEL23</title>
   <g>
    <title>package:PLABEL23</title>
   </g>
  </g>
  <g>
   <title>element:SW1</title>
   <g>
    <title>package:SPDT_SMT_SSSS811101</title>
    <line x1="61.943" x2="64.777" y1="48.158" y2="48.158" stroke="#fff" stroke-linecap="round" stroke-width=".576"/>
    <line x1="61.943" x2="64.777" y1="28.882" y2="28.882" stroke="#fff" stroke-linecap="round" stroke-width=".576"/>
    <line x1="59.675" x2="59.675" y1="43.339" y2="38.236" stroke="#fff" stroke-linecap="round" stroke-width=".576"/>
    <line x1="67.045" x2="67.045" y1="46.74" y2="30.3" stroke="#fff" stroke-linecap="round" stroke-width=".576"/>
   </g>
  </g>
  <g>
   <title>element:X3</title>
   <g>
    <title>package:SO16</title>
    <path d="m13.68 33.696a1.08 1.08 0 0 0-1.08 1.08" fill="none" stroke="#fff" stroke-width=".432"/>
    <path d="m40.32 44.784a1.08 1.08 0 0 0 1.08-1.08" fill="none" stroke="#fff" stroke-width=".432"/>
    <path d="m12.6 43.704a1.08 1.08 0 0 0 1.08 1.08" fill="none" stroke="#fff" stroke-width=".432"/>
    <path d="m41.4 34.776a1.08 1.08 0 0 0-1.08-1.08" fill="none" stroke="#fff" stroke-width=".432"/>
    <line x1="12.6" x2="12.6" y1="34.776" y2="43.704" stroke="#fff" stroke-linecap="round" stroke-width=".432"/>
    <line x1="41.4" x2="41.4" y1="43.704" y2="40.68" stroke="#fff" stroke-linecap="round" stroke-width=".432"/>
    <line x1="41.4" x2="41.4" y1="40.68" y2="37.8" stroke="#fff" stroke-linecap="round" stroke-width=".432"/>
    <line x1="41.4" x2="41.4" y1="37.8" y2="34.776" stroke="#fff" stroke-linecap="round" stroke-width=".432"/>
    <path d="m41.4 37.8a1.44 1.44 0 1 0 0 2.88" fill="none" stroke="#fff" stroke-width=".432"/>
    <line x1="41.4" x2="12.6" y1="34.704" y2="34.704" stroke="#fff" stroke-linecap="round" stroke-width=".144"/>
   </g>
  </g>
 </g>
 <g id="copper1">
  <g id="copper0">
   <circle id="connector62pad" cx="64.8" cy="7.2" r="4.2633" fill="none" stroke="#F7BD13" stroke-width="1.44" connectorname="P$1"/>
   <circle id="connector64pad" cx="64.8" cy="57.6" r="4.2633" fill="none" stroke="#F7BD13" stroke-width="1.44" connectorname="P$1"/>
   <circle id="connector23pad" cx="18" cy="57.6" r="1.9687" fill="none" stroke="#F7BD13" stroke-width="1.1027" connectorname="V+"/>
   <circle id="connector24pad" cx="25.2" cy="57.6" r="1.9687" fill="none" stroke="#F7BD13" stroke-width="1.1027" connectorname="VDDIO"/>
   <circle id="connector25pad" cx="32.4" cy="57.6" r="1.9687" fill="none" stroke="#F7BD13" stroke-width="1.1027" connectorname="GND"/>
   <circle id="connector26pad" cx="39.6" cy="57.6" r="1.9687" fill="none" stroke="#F7BD13" stroke-width="1.1027" connectorname="SCLK"/>
   <circle id="connector27pad" cx="46.8" cy="57.6" r="1.9687" fill="none" stroke="#F7BD13" stroke-width="1.1027" connectorname="DATAOUT"/>
   <circle id="connector28pad" cx="54" cy="57.6" r="1.9687" fill="none" stroke="#F7BD13" stroke-width="1.1027" connectorname="RATE"/>
   <circle id="connector29pad" cx="54" cy="9.72" r="1.7773" fill="none" stroke="#F7BD13" stroke-width=".72" connectorname="VPP"/>
   <path d="m52.223 5.6322h3.5546v8.1757h-3.5546v-8.1757m0 4.0878a1.7773 1.7773 0 1 0 3.5546 0 1.7773 1.7773 0 1 0-3.5546 0z" fill="#F7BD13" stroke-width="0"/>
   <circle id="connector30pad" cx="46.8" cy="9.72" r="1.7773" fill="none" stroke="#F7BD13" stroke-width=".72" connectorname="B-"/>
   <path d="m45.023 5.6322h3.5546v8.1757h-3.5546v-8.1757m0 4.0878a1.7773 1.7773 0 1 0 3.5546 0 1.7773 1.7773 0 1 0-3.5546 0z" fill="#F7BD13" stroke-width="0"/>
   <circle id="connector31pad" cx="39.6" cy="9.72" r="1.7773" fill="none" stroke="#F7BD13" stroke-width=".72" connectorname="B+"/>
   <path d="m37.823 5.6322h3.5546v8.1757h-3.5546v-8.1757m0 4.0878a1.7773 1.7773 0 1 0 3.5546 0 1.7773 1.7773 0 1 0-3.5546 0z" fill="#F7BD13" stroke-width="0"/>
   <circle id="connector32pad" cx="32.4" cy="9.72" r="1.7773" fill="none" stroke="#F7BD13" stroke-width=".72" connectorname="A+"/>
   <path d="m30.623 5.6322h3.5546v8.1757h-3.5546v-8.1757m0 4.0878a1.7773 1.7773 0 1 0 3.5546 0 1.7773 1.7773 0 1 0-3.5546 0z" fill="#F7BD13" stroke-width="0"/>
   <circle id="connector61pad" cx="7.2" cy="7.2" r="4.2633" fill="none" stroke="#F7BD13" stroke-width="1.44" connectorname="P$1"/>
   <circle id="connector33pad" cx="25.2" cy="9.72" r="1.7773" fill="none" stroke="#F7BD13" stroke-width=".72" connectorname="A-"/>
   <path d="m23.423 5.6322h3.5546v8.1757h-3.5546v-8.1757m0 4.0878a1.7773 1.7773 0 1 0 3.5546 0 1.7773 1.7773 0 1 0-3.5546 0z" fill="#F7BD13" stroke-width="0"/>
   <circle id="connector63pad" cx="7.2" cy="57.6" r="4.2633" fill="none" stroke="#F7BD13" stroke-width="1.44" connectorname="P$1"/>
   <circle id="connector34pad" cx="18" cy="9.72" r="1.7773" fill="none" stroke="#F7BD13" stroke-width=".72" connectorname="GND"/>
   <path d="m16.223 5.6322h3.5546v8.1757h-3.5546v-8.1757m0 4.0878a1.7773 1.7773 0 1 0 3.5546 0 1.7773 1.7773 0 1 0-3.5546 0z" fill="#F7BD13" stroke-width="0"/>
  </g>
 </g>
</svg>
