<?xml version="1.0" encoding="UTF-8"?>
<!-- Created with Fritzing (http://www.fritzing.org/) -->
<svg width=".90034in" height=".90001in" baseProfile="tiny" version="1.2" viewBox="0 0 64.825 64.801" xmlns="http://www.w3.org/2000/svg">
 <desc>
  <referenceFile>INA 260_pcb.svg</referenceFile>
 </desc>
 <desc>Fritzing footprint generated by brd2svg</desc>
 <g id="silkscreen">
  <path d="m57.171 0.288a7.648 7.648 0 0 1 7.3501 8.3491v48.668a7.0928 7.0928 0 0 1-7.4215 7.2073h-49.667a7.2806 7.2806 0 0 1-7.136-7.8496v-48.739a7.0991 7.0991 0 0 1 6.9933-7.6355h49.881" fill="none" stroke="#fff" stroke-width=".576"/>
  <g>
   <title>element:FRAME1</title>
   <g>
    <title>package:CREATIVE_COMMONS</title>
   </g>
  </g>
  <g>
   <title>element:IC1</title>
   <g>
    <title>package:TSSOP16</title>
    <line x1="38.52" x2="26.298" y1="43.128" y2="43.128" stroke="#fff" stroke-linecap="round" stroke-width=".576"/>
    <line x1="26.658" x2="38.52" y1="28.872" y2="28.872" stroke="#fff" stroke-linecap="round" stroke-width=".576"/>
    <circle cx="28.953" cy="31.392" r="1.296" fill="none" stroke="#fff" stroke-width=".576"/>
   </g>
  </g>
  <g>
   <title>element:JP2</title>
   <g>
    <title>package:1X08_ROUND_70</title>
   </g>
  </g>
  <g>
   <title>element:X1</title>
   <g>
    <title>package:TERMBLOCK_508_1X2</title>
    <line x1="18.009" x2="46.809" y1=".028346" y2=".028346" stroke="#fff" stroke-linecap="round" stroke-width=".36"/>
    <line x1="46.809" x2="46.809" y1=".028346" y2="24.123" stroke="#fff" stroke-linecap="round" stroke-width=".36"/>
    <line x1="46.809" x2="18.009" y1="24.123" y2="24.123" stroke="#fff" stroke-linecap="round" stroke-width=".36"/>
    <line x1="18.009" x2="18.009" y1="24.123" y2=".028346" stroke="#fff" stroke-linecap="round" stroke-width=".36"/>
   </g>
  </g>
 </g>
 <g id="copper1">
  <g id="copper0">
   <circle id="connector30pad" cx="43.209" cy="57.6" r="1.9687" fill="none" stroke="#F7BD13" stroke-width="1.1027" connectorname="VBUS"/>
   <circle id="connector50pad" cx="25.209" cy="10.8" r="2.3275" fill="none" stroke="#F7BD13" stroke-width="1.537" connectorname="IN+"/>
   <path d="m22.881 5.4467h4.655v10.707h-4.655v-10.707m0 5.3533a2.3275 2.3275 0 1 0 4.655 0 2.3275 2.3275 0 1 0-4.655 0z" fill="#F7BD13" stroke-width="0"/>
   <circle id="connector32pad" cx="57.609" cy="57.6" r="1.9687" fill="none" stroke="#F7BD13" stroke-width="1.1027" connectorname="IN-"/>
   <circle id="connector48pad" cx="57.609" cy="7.2" r="4.2633" fill="none" stroke="#F7BD13" stroke-width="1.44" connectorname="P$1"/>
   <circle id="connector29pad" cx="36.009" cy="57.6" r="1.9687" fill="none" stroke="#F7BD13" stroke-width="1.1027" connectorname="ALERT"/>
   <circle id="connector31pad" cx="50.409" cy="57.6" r="1.9687" fill="none" stroke="#F7BD13" stroke-width="1.1027" connectorname="IN+"/>
   <circle id="connector25pad" cx="7.2086" cy="57.6" r="1.9687" fill="none" stroke="#F7BD13" stroke-width="1.1027" connectorname="VCC"/>
   <circle id="connector26pad" cx="14.409" cy="57.6" r="1.9687" fill="none" stroke="#F7BD13" stroke-width="1.1027" connectorname="GND"/>
   <circle id="connector49pad" cx="7.2086" cy="7.2" r="4.2633" fill="none" stroke="#F7BD13" stroke-width="1.44" connectorname="P$1"/>
   <circle id="connector27pad" cx="21.609" cy="57.6" r="1.9687" fill="none" stroke="#F7BD13" stroke-width="1.1027" connectorname="SCL"/>
   <circle id="connector51pad" cx="39.609" cy="10.8" r="2.3275" fill="none" stroke="#F7BD13" stroke-width="1.537" connectorname="IN-"/>
   <path d="m37.281 5.4467h4.655v10.707h-4.655v-10.707m0 5.3533a2.3275 2.3275 0 1 0 4.655 0 2.3275 2.3275 0 1 0-4.655 0z" fill="#F7BD13" stroke-width="0"/>
   <circle id="connector28pad" cx="28.809" cy="57.6" r="1.9687" fill="none" stroke="#F7BD13" stroke-width="1.1027" connectorname="SDA"/>
  </g>
 </g>
</svg>
