<?xml version="1.0" encoding="UTF-8"?>
<!-- Created with Fritzing (http://www.fritzing.org/) -->
<svg width=".65in" height=".65366in" baseProfile="tiny" version="1.2" viewBox="0 0 46.8 47.064" xmlns="http://www.w3.org/2000/svg">
 <desc>
  <referenceFile>flora compass v0.2_pcb.svg</referenceFile>
 </desc>
 <desc>Fritzing footprint generated by brd2svg</desc>
 <g id="silkscreen">
  <path d="m0.288 23.532a23.112 23.112 0 1 1 46.224 0 23.112 23.112 0 1 1-46.224 0z" fill="none" stroke="#fff" stroke-width=".576"/>
  <circle cx="7.56" cy="26.412" r="2.88" fill="none" stroke="#fff" stroke-width=".72"/>
  <g>
   <title>polygon</title>
   <path d="m4.32 26.075v0.72h-1.8v0.72l-1.44-1.08 1.44-1.08v0.72h1.8m-2.3102 1.0573h0.51024-0.51024m-0.89953-0.72h3.2098-3.2098" fill="none" stroke="#fff" stroke-linecap="round" stroke-width=".72"/>
  </g>
  <g>
   <title>polygon</title>
   <path d="m7.92 23.195h-0.72v-1.8h-0.72l1.08-1.44 1.08 1.44h-0.72v1.8m-0.72-0.3827h0.72-0.72m0-0.72h0.72-0.72m-0.70299-0.72h2.126-2.126" fill="none" stroke="#fff" stroke-linecap="round" stroke-width=".72"/>
  </g>
  <g>
   <title>element:U1</title>
   <g>
    <title>package:LGA14</title>
    <line x1="19.148" x2="21.416" y1="16.445" y2="16.445" stroke="#fff" stroke-linecap="round" stroke-width=".576"/>
    <line x1="25.384" x2="27.652" y1="16.445" y2="16.445" stroke="#fff" stroke-linecap="round" stroke-width=".576"/>
    <line x1="27.652" x2="25.384" y1="30.618" y2="30.618" stroke="#fff" stroke-linecap="round" stroke-width=".576"/>
    <line x1="21.416" x2="19.148" y1="30.618" y2="30.618" stroke="#fff" stroke-linecap="round" stroke-width=".576"/>
    <circle cx="20.565" cy="15.028" r=".4252" fill="none" stroke="#fff" stroke-width=".70866"/>
   </g>
  </g>
  <line x1="19.148" x2="27.652" y1=".288" y2=".288" fill="none" stroke="#fff" stroke-width=".576"/>
  <line x1="19.148" x2="19.148" y1=".13191" y2=".288" fill="none" stroke="#fff" stroke-width=".576"/>
  <line x1="27.652" x2="27.652" y1=".13191" y2=".288" fill="none" stroke="#fff" stroke-width=".576"/>
  <line x1="19.148" x2="27.652" y1="46.776" y2="46.776" fill="none" stroke="#fff" stroke-width=".576"/>
  <line x1="19.148" x2="19.148" y1="46.776" y2="46.932" fill="none" stroke="#fff" stroke-width=".576"/>
  <line x1="27.652" x2="27.652" y1="46.776" y2="46.932" fill="none" stroke="#fff" stroke-width=".576"/>
 </g>
 <g id="copper1">
  <g id="copper0" fill="none" stroke="#F7BD13" stroke-width="1.3952">
   <circle id="connector33pad" cx="23.4" cy="43.692" r="2.3984" connectorname="3.3V"/>
   <circle id="connector18pad" cx="6.12" cy="33.612" r="2.3984" connectorname="SDA"/>
   <circle id="connector10pad" cx="23.4" cy="3.3719" r="2.3984" connectorname="GND"/>
   <circle id="connector15pad" cx="40.68" cy="13.452" r="2.3984" connectorname="SCL"/>
   <circle id="connector16pad" cx="6.12" cy="13.452" r="2.3984" connectorname="SCL"/>
   <circle id="connector17pad" cx="40.68" cy="33.612" r="2.3984" connectorname="SDA"/>
  </g>
 </g>
</svg>
