<?xml version="1.0" encoding="UTF-8"?>
<!-- Created with Fritzing (http://www.fritzing.org/) -->
<svg width="1.2in" height="1.2in" baseProfile="tiny" version="1.2" viewBox="0 0 86.4 86.4" xmlns="http://www.w3.org/2000/svg">
 <desc>
  <referenceFile>Flora BLE Friend rev B_pcb.svg</referenceFile>
 </desc>
 <desc>Fritzing footprint generated by brd2svg</desc>
 <g id="silkscreen">
  <path d="m43.2 86.112a42.912 42.912 0 0 1-42.912-42.912 42.912 42.912 0 0 1 42.912-42.912 42.912 42.912 0 0 1 42.912 42.912 42.912 42.912 0 0 1-42.912 42.912m27.311-54.364a1.1293 1.1293 0 1 0 2.2586 0 1.1293 1.1293 0 1 0-2.2586 0zm0 8.504a1.1293 1.1293 0 1 0 2.2586 0 1.1293 1.1293 0 1 0-2.2586 0zm-22.062-22.266a0.98759 0.98759 0 1 0 1.9752 0 0.98759 0.98759 0 1 0-1.9752 0z" fill="none" stroke="#fff" stroke-width=".576"/>
  <g>
   <title>element:SW1</title>
   <g>
    <title>package:EG1390</title>
    <line x1="66.679" x2="66.679" y1="46.205" y2="25.795" stroke="#fff" stroke-linecap="round" stroke-width=".36"/>
    <line x1="66.679" x2="76.601" y1="25.795" y2="25.795" stroke="#fff" stroke-linecap="round" stroke-width=".36"/>
    <line x1="76.601" x2="76.601" y1="25.795" y2="46.205" stroke="#fff" stroke-linecap="round" stroke-width=".36"/>
    <line x1="76.601" x2="66.679" y1="46.205" y2="46.205" stroke="#fff" stroke-linecap="round" stroke-width=".36"/>
   </g>
  </g>
  <g>
   <title>element:U$7</title>
   <g>
    <title>package:FLORASMALL</title>
   </g>
  </g>
  <g>
   <title>element:U$23</title>
   <g>
    <title>package:BLUEFRUITLOGO_100MM</title>
   </g>
  </g>
  <g>
   <title>element:U1</title>
   <g>
    <title>package:BLE_MODULE_RAYTAC_MDBT40</title>
    <line x1="28.743" x2="28.743" y1="17.844" y2="4.8047" stroke="#fff" stroke-linecap="round" stroke-width=".36"/>
    <line x1="28.743" x2="57.657" y1="4.8047" y2="4.8047" stroke="#fff" stroke-linecap="round" stroke-width=".36"/>
    <line x1="57.657" x2="57.657" y1="4.8047" y2="17.844" stroke="#fff" stroke-linecap="round" stroke-width=".36"/>
    <line x1="28.743" x2="28.743" y1="22.663" y2="31.734" stroke="#fff" stroke-linecap="round" stroke-width=".36"/>
    <line x1="28.743" x2="28.743" y1="52.427" y2="56.395" stroke="#fff" stroke-linecap="round" stroke-width=".36"/>
    <line x1="28.743" x2="29.877" y1="56.395" y2="56.395" stroke="#fff" stroke-linecap="round" stroke-width=".36"/>
    <line x1="56.523" x2="57.657" y1="56.395" y2="56.395" stroke="#fff" stroke-linecap="round" stroke-width=".36"/>
    <line x1="57.657" x2="57.657" y1="56.395" y2="52.427" stroke="#fff" stroke-linecap="round" stroke-width=".36"/>
   </g>
  </g>
  <g>
   <title>element:Y1</title>
   <g>
    <title>package:CRYSTAL_CYL_2X6MM_SMT</title>
   </g>
  </g>
 </g>
 <g id="copper1">
  <g id="copper0" fill="none" stroke="#F7BD13" stroke-width="1.474">
   <circle id="connector15pad" cx="10.08" cy="56.52" r="2.863" connectorname="GND"/>
   <circle id="connector24pad" cx="29.52" cy="75.96" r="2.863" connectorname="RXI"/>
   <circle id="connector31pad" cx="10.08" cy="29.88" r="2.863" connectorname="MODE"/>
   <circle id="connector32pad" cx="56.88" cy="75.96" r="2.863" connectorname="TXO"/>
   <circle id="connector0pad" cx="76.32" cy="56.52" r="2.863" connectorname="3.3V"/>
  </g>
 </g>
</svg>
