<?xml version="1.0" encoding="UTF-8"?>
<!-- Created with Fritzing (http://www.fritzing.org/) -->
<svg width="1.2in" height="1.2in" baseProfile="tiny" version="1.2" viewBox="0 0 86.4 86.4" xmlns="http://www.w3.org/2000/svg">
 <desc>
  <referenceFile>Flora_GPS_v0.2_pcb.svg</referenceFile>
 </desc>
 <desc>Fritzing footprint generated by brd2svg</desc>
 <g id="silkscreen">
  <path d="m43.2 86.112a42.912 42.912 0 0 1-42.912-42.912 42.912 42.912 0 0 1 42.912-42.912 42.912 42.912 0 0 1 42.912 42.912 42.912 42.912 0 0 1-42.912 42.912m-6.3734-44.329a3.964 3.964 0 1 0 7.9279 0 3.964 3.964 0 1 0-7.9279 0z" fill="none" stroke="#fff" stroke-width=".576"/>
  <g>
   <title>element:U$7</title>
   <g>
    <title>package:FLORASMALL</title>
   </g>
  </g>
  <g>
   <title>element:U1</title>
   <g>
    <title>package:FGPMMOPA6H</title>
    <line x1="20.523" x2="20.523" y1="65.877" y2="20.523" stroke="#fff" stroke-linecap="round" stroke-width=".36"/>
    <line x1="65.877" x2="65.877" y1="20.523" y2="65.877" stroke="#fff" stroke-linecap="round" stroke-width=".36"/>
    <line x1="26.192" x2="60.208" y1="20.523" y2="20.523" stroke="#fff" stroke-linecap="round" stroke-width=".36"/>
    <line x1="64.46" x2="65.877" y1="20.523" y2="20.523" stroke="#fff" stroke-linecap="round" stroke-width=".36"/>
    <line x1="20.523" x2="21.94" y1="20.523" y2="20.523" stroke="#fff" stroke-linecap="round" stroke-width=".36"/>
    <circle cx="19.389" cy="68.995" r=".89631" fill="none" stroke="#fff" stroke-width="2.304"/>
   </g>
  </g>
 </g>
 <g id="copper1">
  <g id="copper0" fill="none" stroke="#F7BD13" stroke-width="1.474">
   <circle id="connector7pad" cx="10.08" cy="56.52" r="2.863" connectorname="GND"/>
   <circle id="connector8pad" cx="29.52" cy="10.44" r="2.863" connectorname="GND"/>
   <circle id="connector13pad" cx="29.52" cy="75.96" r="2.863" connectorname="RX"/>
   <circle id="connector14pad" cx="10.08" cy="29.88" r="2.863" connectorname="VBACKUP"/>
   <circle id="connector15pad" cx="56.88" cy="10.44" r="2.863" connectorname="P$1"/>
   <circle id="connector16pad" cx="56.88" cy="75.96" r="2.863" connectorname="TX"/>
   <circle id="connector0pad" cx="76.32" cy="56.52" r="2.863" connectorname="P$1"/>
  </g>
 </g>
</svg>
