<?xml version="1.0" encoding="UTF-8"?>
<!-- Created with Fritzing (http://www.fritzing.org/) -->
<svg width=".8in" height=".6in" baseProfile="tiny" version="1.2" viewBox="0 0 57.6 43.2" xmlns="http://www.w3.org/2000/svg">
 <desc>
  <referenceFile>Adafruit I2C Non-Volatile FRAM 32KB_pcb.svg</referenceFile>
 </desc>
 <desc>Fritzing footprint generated by brd2svg</desc>
 <g id="silkscreen">
  <path d="m0.288 7.392a6.912 6.912 0 0 1 7.128-7.104h42.768a6.912 6.912 0 0 1 7.128 7.104v28.416a6.912 6.912 0 0 1-7.128 7.104h-42.768a6.912 6.912 0 0 1-7.128-7.104v-28.416" fill="none" stroke="#fff" stroke-width=".576"/>
  <g>
   <title>element:JP1</title>
   <g>
    <title>package:1X08_ROUND_70</title>
   </g>
  </g>
  <g>
   <title>element:U$4</title>
   <g>
    <title>package:ADAFRUIT_3.5MM</title>
   </g>
  </g>
  <g>
   <title>element:U1</title>
   <g>
    <title>package:SOIC8_208MIL</title>
    <line x1="34.186" x2="23.414" y1="28.403" y2="28.403" stroke="#fff" stroke-linecap="round" stroke-width=".576"/>
    <line x1="23.414" x2="34.186" y1="14.797" y2="14.797" stroke="#fff" stroke-linecap="round" stroke-width=".576"/>
    <circle cx="31.32" cy="27.072" r=".72" fill="none" stroke="#fff" stroke-width=".576"/>
   </g>
  </g>
 </g>
 <g id="copper1">
  <g id="copper0" fill="none" stroke="#F7BD13">
   <circle id="connector22pad" cx="50.4" cy="7.2" r="4.2633" stroke-width="1.44" connectorname="P$1"/>
   <circle id="connector9pad" cx="54" cy="36" r="1.9687" stroke-width="1.1027" connectorname="A0"/>
   <circle id="connector10pad" cx="46.8" cy="36" r="1.9687" stroke-width="1.1027" connectorname="A1"/>
   <circle id="connector11pad" cx="39.6" cy="36" r="1.9687" stroke-width="1.1027" connectorname="A2"/>
   <circle id="connector12pad" cx="32.4" cy="36" r="1.9687" stroke-width="1.1027" connectorname="SDA"/>
   <circle id="connector21pad" cx="7.2" cy="7.2" r="4.2633" stroke-width="1.44" connectorname="P$1"/>
   <circle id="connector13pad" cx="25.2" cy="36" r="1.9687" stroke-width="1.1027" connectorname="SCL"/>
   <circle id="connector14pad" cx="18" cy="36" r="1.9687" stroke-width="1.1027" connectorname="WP"/>
   <circle id="connector15pad" cx="10.8" cy="36" r="1.9687" stroke-width="1.1027" connectorname="GND"/>
   <circle id="connector16pad" cx="3.6" cy="36" r="1.9687" stroke-width="1.1027" connectorname="VCC"/>
  </g>
 </g>
</svg>
