<?xml version="1.0" encoding="UTF-8"?>
<!-- Created with Fritzing (http://www.fritzing.org/) -->
<svg width="1.1018in" height="1.1039in" baseProfile="tiny" version="1.2" viewBox="0 0 79.33 79.482" xmlns="http://www.w3.org/2000/svg">
 <desc>
  <referenceFile>gemma microB rev B_pcb.svg</referenceFile>
 </desc>
 <desc>Fritzing footprint generated by brd2svg</desc>
 <g id="silkscreen">
  <path d="m28.943 1.9258h21.443a39.377 39.377 0 1 1-21.443 0m24.352 32.912a1.1293 1.1293 0 1 0 2.2586 0 1.1293 1.1293 0 1 0-2.2586 0zm0 8.504a1.1293 1.1293 0 1 0 2.2586 0 1.1293 1.1293 0 1 0-2.2586 0zm-8.8073-29.452a0.70413 0.70413 0 1 0 1.4083 0 0.70413 0.70413 0 1 0-1.4083 0zm-11.055 0a0.70413 0.70413 0 1 0 1.4083 0 0.70413 0.70413 0 1 0-1.4083 0z" fill="none" stroke="#fff" stroke-width=".576"/>
  <g>
   <title>element:3V3</title>
   <g>
    <title>package:SEWINGTAP_2.0</title>
   </g>
  </g>
  <g>
   <title>element:B2</title>
   <g>
    <title>package:SEWINGTAP_2.0</title>
   </g>
  </g>
  <g>
   <title>element:CN1</title>
   <g>
    <title>package:JSTPH2</title>
    <line x1="46.043" x2="33.287" y1="76.753" y2="76.753" stroke="#fff" stroke-linecap="round" stroke-width=".576"/>
    <line x1="28.326" x2="28.326" y1="66.832" y2="55.494" stroke="#fff" stroke-linecap="round" stroke-width=".576"/>
    <line x1="28.326" x2="30.736" y1="55.494" y2="55.494" stroke="#fff" stroke-linecap="round" stroke-width=".576"/>
    <line x1="30.736" x2="30.736" y1="55.494" y2="62.58" stroke="#fff" stroke-linecap="round" stroke-width=".576"/>
    <line x1="30.736" x2="34.704" y1="62.58" y2="62.58" stroke="#fff" stroke-linecap="round" stroke-width=".576"/>
    <line x1="44.626" x2="48.594" y1="62.58" y2="62.58" stroke="#fff" stroke-linecap="round" stroke-width=".576"/>
    <line x1="48.594" x2="48.594" y1="62.58" y2="55.494" stroke="#fff" stroke-linecap="round" stroke-width=".576"/>
    <line x1="48.594" x2="51.004" y1="55.494" y2="55.494" stroke="#fff" stroke-linecap="round" stroke-width=".576"/>
    <line x1="51.004" x2="51.004" y1="55.494" y2="66.832" stroke="#fff" stroke-linecap="round" stroke-width=".576"/>
   </g>
  </g>
  <g>
   <title>element:GND</title>
   <g>
    <title>package:SEWINGTAP_2.0</title>
   </g>
  </g>
  <g>
   <title>element:SW1</title>
   <g>
    <title>package:EG1390</title>
    <line x1="49.464" x2="49.464" y1="49.294" y2="28.885" stroke="#fff" stroke-linecap="round" stroke-width=".36"/>
    <line x1="49.464" x2="59.386" y1="28.885" y2="28.885" stroke="#fff" stroke-linecap="round" stroke-width=".36"/>
    <line x1="59.386" x2="59.386" y1="28.885" y2="49.294" stroke="#fff" stroke-linecap="round" stroke-width=".36"/>
    <line x1="59.386" x2="49.464" y1="49.294" y2="49.294" stroke="#fff" stroke-linecap="round" stroke-width=".36"/>
   </g>
  </g>
  <g>
   <title>element:VBAT</title>
   <g>
    <title>package:SEWINGTAP_2.0</title>
   </g>
  </g>
  <g>
   <title>element:X2</title>
   <g>
    <title>package:4UCONN_20329</title>
    <line x1="46.752" x2="44.484" y1="17.008" y2="17.008" stroke="#fff" stroke-linecap="round" stroke-width=".36"/>
    <line x1="34.846" x2="32.578" y1="17.008" y2="17.008" stroke="#fff" stroke-linecap="round" stroke-width=".36"/>
    <line x1="50.437" x2="50.437" y1="4.252" y2="1.7008" stroke="#fff" stroke-linecap="round" stroke-width=".36"/>
    <line x1="50.437" x2="28.893" y1="1.7008" y2="1.7008" stroke="#fff" stroke-linecap="round" stroke-width=".36"/>
    <line x1="28.893" x2="28.893" y1="1.7008" y2="4.252" stroke="#fff" stroke-linecap="round" stroke-width=".36"/>
   </g>
  </g>
  <line x1="25.35" x2="53.98" y1=".288" y2=".288" fill="none" stroke="#fff" stroke-width=".576"/>
  <line x1="25.35" x2="25.35" y1="1.6498" y2=".288" fill="none" stroke="#fff" stroke-width=".576"/>
  <line x1="53.98" x2="53.98" y1="1.6498" y2=".288" fill="none" stroke="#fff" stroke-width=".576"/>
 </g>
 <g id="copper1">
  <g id="copper0" fill="none" stroke="#F7BD13" stroke-width="1.474">
   <circle id="connector1pad" cx="7.625" cy="39.81" r="2.863" connectorname="B0"/>
   <circle id="connector2pad" cx="71.705" cy="39.81" r="2.863" connectorname="B1"/>
   <circle id="connector3pad" cx="16.985" cy="17.13" r="2.863" connectorname="B2"/>
   <circle id="connector69pad" cx="62.345" cy="62.49" r="2.863" connectorname="P$1"/>
   <circle id="connector18pad" cx="62.345" cy="17.13" r="2.863" connectorname="GND"/>
   <circle id="connector0pad" cx="16.985" cy="62.49" r="2.863" connectorname="+3V3"/>
  </g>
 </g>
</svg>
