<?xml version="1.0" encoding="UTF-8"?>
<!-- Created with Inkscape (http://www.inkscape.org/) -->
<svg width="135" height="45" version="1.1" xmlns="http://www.w3.org/2000/svg" xmlns:cc="http://creativecommons.org/ns#" xmlns:dc="http://purl.org/dc/elements/1.1/" xmlns:rdf="http://www.w3.org/1999/02/22-rdf-syntax-ns#">
 <metadata>
  <rdf:RDF>
   <cc:Work rdf:about="">
    <dc:format>image/svg+xml</dc:format>
    <dc:type rdf:resource="http://purl.org/dc/dcmitype/StillImage"/>
    <dc:title/>
   </cc:Work>
  </rdf:RDF>
 </metadata>
 <g id="pcb">
  <g id="silkscreen" fill="none" stroke="#fff" stroke-linecap="round" stroke-linejoin="round">
   <path d="m4.5 18v9c2.4853 0 4.5-2.0147 4.5-4.5s-2.0147-4.5-4.5-4.5z" stroke-width=".45"/>
   <rect x="4.5" y="4.5" width="126" height="36" stroke-width=".53245"/>
  </g>
  <g id="copper0">
   <g id="copper1" fill="none" stroke="#f6ca34" stroke-linecap="round" stroke-linejoin="round" stroke-width="1.8">
    <path id="connector1pin" d="m11.25 36a2.25 2.25 0 0 1-4.5 0 2.25 2.25 0 1 1 4.5 0z"/>
    <path id="connector16pin" d="m119.25 9a2.25 2.25 0 0 1-4.5 0 2.25 2.25 0 1 1 4.5 0z"/>
    <path id="connector2pin" d="m20.25 36a2.25 2.25 0 0 1-4.5 0 2.25 2.25 0 1 1 4.5 0z"/>
    <path id="connector15pin" d="m128.25 9a2.25 2.25 0 0 1-4.5 0 2.25 2.25 0 1 1 4.5 0z"/>
    <path id="connector3pin" d="m29.25 36a2.25 2.25 0 0 1-4.5 0 2.25 2.25 0 1 1 4.5 0z"/>
    <path id="connector4pin" d="m38.25 36a2.25 2.25 0 0 1-4.5 0 2.25 2.25 0 1 1 4.5 0z"/>
    <path id="connector5pin" d="m47.25 36a2.25 2.25 0 0 1-4.5 0 2.25 2.25 0 1 1 4.5 0z"/>
    <path id="connector6pin" d="m56.25 36a2.25 2.25 0 0 1-4.5 0 2.25 2.25 0 1 1 4.5 0z"/>
    <path id="connector14pin" d="m123.75 36a2.25 2.25 0 1 1 4.5 0 2.25 2.25 0 0 1-4.5 0z"/>
    <path id="connector13pin" d="m114.75 36a2.25 2.25 0 1 1 4.5 0 2.25 2.25 0 0 1-4.5 0z"/>
    <path id="connector12pin" d="m105.75 36a2.25 2.25 0 1 1 4.5 0 2.25 2.25 0 0 1-4.5 0z"/>
    <path id="connector11pin" d="m96.75 36a2.25 2.25 0 1 1 4.5 0 2.25 2.25 0 0 1-4.5 0z"/>
    <path id="connector7pin" d="m65.25 36a2.25 2.25 0 0 1-4.5 0 2.25 2.25 0 1 1 4.5 0z"/>
    <path id="connector9pin" d="m83.25 36a2.25 2.25 0 0 1-4.5 0 2.25 2.25 0 1 1 4.5 0z"/>
    <path id="connector8pin" d="m74.25 36a2.25 2.25 0 0 1-4.5 0 2.25 2.25 0 1 1 4.5 0z"/>
    <path id="connector10pin" d="m92.25 36a2.25 2.25 0 0 1-4.5 0 2.25 2.25 0 1 1 4.5 0z"/>
    <path id="connector20pin" d="m83.25 9a2.25 2.25 0 0 1-4.5 0 2.25 2.25 0 1 1 4.5 0z"/>
    <path id="connector19pin" d="m92.25 9a2.25 2.25 0 0 1-4.5 0 2.25 2.25 0 1 1 4.5 0z"/>
    <path id="connector18pin" d="m101.25 9a2.25 2.25 0 0 1-4.5 0 2.25 2.25 0 1 1 4.5 0z"/>
    <path id="connector17pin" d="m110.25 9a2.25 2.25 0 0 1-4.5 0 2.25 2.25 0 1 1 4.5 0z"/>
    <path id="connector22pin" d="m65.25 9a2.25 2.25 0 0 1-4.5 0 2.25 2.25 0 1 1 4.5 0z"/>
    <path id="connector21pin" d="m74.25 9a2.25 2.25 0 0 1-4.5 0 2.25 2.25 0 1 1 4.5 0z"/>
    <path id="connector26pin" d="m29.25 9a2.25 2.25 0 0 1-4.5 0 2.25 2.25 0 1 1 4.5 0z"/>
    <path id="connector25pin" d="m38.25 9a2.25 2.25 0 0 1-4.5 0 2.25 2.25 0 1 1 4.5 0z"/>
    <path id="connector24pin" d="m47.25 9a2.25 2.25 0 0 1-4.5 0 2.25 2.25 0 1 1 4.5 0z"/>
    <path id="connector23pin" d="m56.25 9a2.25 2.25 0 0 1-4.5 0 2.25 2.25 0 1 1 4.5 0z"/>
    <path id="connector28pin" d="m11.25 9a2.25 2.25 0 0 1-4.5 0 2.25 2.25 0 1 1 4.5 0z"/>
    <path id="connector27pin" d="m20.25 9a2.25 2.25 0 0 1-4.5 0 2.25 2.25 0 1 1 4.5 0z"/>
   </g>
  </g>
 </g>
</svg>
