<?xml version="1.0" encoding="UTF-8"?>
<!-- Created with Fritzing (http://www.fritzing.org/) -->
<svg width=".7in" height=".6in" baseProfile="tiny" version="1.2" viewBox="0 0 50.4 43.2" xmlns="http://www.w3.org/2000/svg">
 <desc>
  <referenceFile>Adafruit MPL115A2 I2C Barometric Pressure, Temperature Sensor_pcb.svg</referenceFile>
 </desc>
 <desc>Fritzing footprint generated by brd2svg</desc>
 <g id="silkscreen">
  <path d="m0.288 35.808v-28.416a6.912 6.912 0 0 1 7.1177-7.104h35.589a6.912 6.912 0 0 1 7.1177 7.104v28.416a6.912 6.912 0 0 1-7.1177 7.104h-35.589a6.912 6.912 0 0 1-7.1177-7.104" fill="none" stroke="#fff" stroke-width=".576"/>
  <g>
   <title>element:JP1</title>
   <g>
    <title>package:1X06_ROUND_70</title>
   </g>
  </g>
  <g>
   <title>element:U$14</title>
   <g>
    <title>package:ADAFRUIT_3.5MM</title>
   </g>
  </g>
  <g>
   <title>element:U1</title>
   <g>
    <title>package:LGA8</title>
    <line x1="18.397" x2="33.137" y1="15.625" y2="15.625" stroke="#fff" stroke-linecap="round" stroke-width=".36"/>
    <line x1="33.137" x2="33.137" y1="15.625" y2="24.695" stroke="#fff" stroke-linecap="round" stroke-width=".36"/>
    <line x1="33.137" x2="18.397" y1="24.695" y2="24.695" stroke="#fff" stroke-linecap="round" stroke-width=".36"/>
    <line x1="18.397" x2="18.397" y1="24.695" y2="15.625" stroke="#fff" stroke-linecap="round" stroke-width=".36"/>
    <circle cx="33.987" cy="13.924" r=".40087" fill="none" stroke="#fff" stroke-width="1.152"/>
   </g>
  </g>
 </g>
 <g id="copper1">
  <g id="copper0" fill="none" stroke="#F7BD13">
   <circle id="connector26pad" cx="43.2" cy="7.2" r="4.0394" stroke-width=".99212" connectorname="P$1"/>
   <circle id="connector11pad" cx="43.2" cy="36" r="1.9687" stroke-width="1.1027" connectorname="VDD"/>
   <circle id="connector12pad" cx="36" cy="36" r="1.9687" stroke-width="1.1027" connectorname="GND"/>
   <circle id="connector13pad" cx="28.8" cy="36" r="1.9687" stroke-width="1.1027" connectorname="SCL"/>
   <circle id="connector14pad" cx="21.6" cy="36" r="1.9687" stroke-width="1.1027" connectorname="SDA"/>
   <circle id="connector25pad" cx="7.2" cy="7.2" r="4.0394" stroke-width=".99212" connectorname="P$1"/>
   <circle id="connector15pad" cx="14.4" cy="36" r="1.9687" stroke-width="1.1027" connectorname="RESET"/>
   <circle id="connector16pad" cx="7.2" cy="36" r="1.9687" stroke-width="1.1027" connectorname="SHDN"/>
  </g>
 </g>
</svg>
