<?xml version="1.0" encoding="UTF-8"?>
<!-- Created with Inkscape (http://www.inkscape.org/) -->
<svg width="72" height="72" version="1.1" xmlns="http://www.w3.org/2000/svg">
 <metadata>
  <rdf:RDF xmlns:rdf="http://www.w3.org/1999/02/22-rdf-syntax-ns#">
   <cc:Work rdf:about="" xmlns:cc="http://creativecommons.org/ns#" xmlns:rdf="http://www.w3.org/1999/02/22-rdf-syntax-ns#">
    <dc:format xmlns:dc="http://purl.org/dc/elements/1.1/">image/svg+xml</dc:format>
    <dc:type rdf:resource="http://purl.org/dc/dcmitype/StillImage" xmlns:dc="http://purl.org/dc/elements/1.1/" xmlns:rdf="http://www.w3.org/1999/02/22-rdf-syntax-ns#"/>
    <dc:title xmlns:dc="http://purl.org/dc/elements/1.1/"/>
   </cc:Work>
  </rdf:RDF>
 </metadata>
 <g id="pcb">
  <g id="copper0" transform="translate(0 -672.09)" fill="none" stroke="#f6ca34" stroke-linecap="round" stroke-linejoin="round" stroke-width="1.8">
   <path id="connector1pin" d="m29.205 735.09a2.25 2.25 0 0 1-4.5 0 2.25 2.25 0 1 1 4.5 0z"/>
   <path id="connector2pin" d="m38.205 735.09a2.25 2.25 0 0 1-4.5 0 2.25 2.25 0 1 1 4.5 0z"/>
   <path id="connector3pin" d="m47.205 735.09a2.25 2.25 0 0 1-4.5 0 2.25 2.25 0 1 1 4.5 0z"/>
   <path id="connector4pin" d="m29.205 681.09a2.25 2.25 0 0 1-4.5 0 2.25 2.25 0 1 1 4.5 0z"/>
   <path id="connector5pin" d="m47.205 681.09a2.25 2.25 0 0 1-4.5 0 2.25 2.25 0 1 1 4.5 0z"/>
  </g>
  <g id="copper1" transform="translate(0 -672.09)" fill="none" stroke="#f6ca34" stroke-linecap="round" stroke-linejoin="round" stroke-width="1.8">
   <path id="connector1pin" d="m29.205 735.09a2.25 2.25 0 0 1-4.5 0 2.25 2.25 0 1 1 4.5 0z"/>
   <path id="connector2pin" d="m38.205 735.09a2.25 2.25 0 0 1-4.5 0 2.25 2.25 0 1 1 4.5 0z"/>
   <path id="connector3pin" d="m47.205 735.09a2.25 2.25 0 0 1-4.5 0 2.25 2.25 0 1 1 4.5 0z"/>
   <path id="connector4pin" d="m29.205 681.09a2.25 2.25 0 0 1-4.5 0 2.25 2.25 0 1 1 4.5 0z"/>
   <path id="connector5pin" d="m47.205 681.09a2.25 2.25 0 0 1-4.5 0 2.25 2.25 0 1 1 4.5 0z"/>
  </g>
  <g id="silkscreen" transform="translate(0 -672.09)">
   <g transform="translate(17.955 718.79)" font-family="OCRA" font-size="8px" letter-spacing="0px" text-align="center" text-anchor="middle" word-spacing="0px" style="line-height:125%" xml:space="preserve" xmlns:xml="http://www.w3.org/XML/1998/namespace">
    <g fill="#fff" font-size="4px">
     <text x="9" y="22.950001" font-size="3.5px">A</text>
    </g>
   </g>
   <g transform="translate(17.955 707.59)" font-family="OCRA" font-size="8px" letter-spacing="0px" text-align="center" text-anchor="middle" word-spacing="0px" style="line-height:125%" xml:space="preserve" xmlns:xml="http://www.w3.org/XML/1998/namespace">
    <g fill="#fff" font-size="4px">
     <text x="18" y="34.200001" font-size="3.5px">COM</text>
    </g>
   </g>
   <g transform="translate(17.955 718.79)" font-family="OCRA" font-size="8px" letter-spacing="0px" text-align="center" text-anchor="middle" word-spacing="0px" style="line-height:125%" xml:space="preserve" xmlns:xml="http://www.w3.org/XML/1998/namespace">
    <g fill="#fff" font-size="4px">
     <text x="27" y="22.950001" font-size="3.5px">B</text>
    </g>
   </g>
   <rect x=".45" y="672.54" width="71.1" height="71.096" fill="none" stroke="#fff" stroke-width=".63"/>
   <g fill="#fff" font-family="Sans" font-size="4px" letter-spacing="0px" word-spacing="0px" style="line-height:125%" xml:space="preserve">
    <text x="32.849998" y="682.44446">SW</text>
   </g>
   <path d="m32.4 681.09h-1.35" fill="#fff" stroke="#fff" stroke-linecap="round" stroke-width=".45"/>
   <path d="m40.95 681.09h-1.35" fill="#fff" stroke="#fff" stroke-linecap="round" stroke-width=".45"/>
  </g>
 </g>
</svg>
