<?xml version="1.0" encoding="UTF-8"?>
<!-- Created with Fritzing (http://www.fritzing.org/) -->
<svg width=".95in" height=".8in" baseProfile="tiny" version="1.2" viewBox="0 0 68.4 57.6" xmlns="http://www.w3.org/2000/svg">
 <desc>
  <referenceFile>MCP9600_pcb.svg</referenceFile>
 </desc>
 <desc>Fritzing footprint generated by brd2svg</desc>
 <g id="silkscreen">
  <path d="m68.112 7.416v42.768a6.912 6.912 0 0 1-7.1394 7.128h-53.545a6.912 6.912 0 0 1-7.1394-7.128v-42.768a6.912 6.912 0 0 1 7.1394-7.128h53.545a6.912 6.912 0 0 1 7.1394 7.128" fill="none" stroke="#fff" stroke-width=".576"/>
  <g>
   <title>element:JP3</title>
   <g>
    <title>package:1X09_ROUND_70</title>
   </g>
  </g>
  <g>
   <title>element:U1</title>
   <g>
    <title>package:VQFN20_5MM</title>
    <line x1="41.57" x2="41.57" y1="28.681" y2="26.47" stroke="#fff" stroke-linecap="round" stroke-width=".36"/>
    <line x1="41.57" x2="39.359" y1="26.47" y2="26.47" stroke="#fff" stroke-linecap="round" stroke-width=".36"/>
    <line x1="41.57" x2="41.57" y1="38.999" y2="41.21" stroke="#fff" stroke-linecap="round" stroke-width=".36"/>
    <line x1="41.57" x2="39.359" y1="41.21" y2="41.21" stroke="#fff" stroke-linecap="round" stroke-width=".36"/>
    <line x1="26.83" x2="26.83" y1="28.681" y2="26.47" stroke="#fff" stroke-linecap="round" stroke-width=".36"/>
    <line x1="26.83" x2="29.041" y1="26.47" y2="26.47" stroke="#fff" stroke-linecap="round" stroke-width=".36"/>
    <line x1="29.041" x2="26.83" y1="41.21" y2="41.21" stroke="#fff" stroke-linecap="round" stroke-width=".36"/>
    <line x1="26.83" x2="26.83" y1="41.21" y2="38.999" stroke="#fff" stroke-linecap="round" stroke-width=".36"/>
    <circle cx="40.549" cy="27.435" r=".56693" fill="none" stroke="#fff" stroke-width="1.152"/>
   </g>
  </g>
  <g>
   <title>element:X1</title>
   <g>
    <title>package:TERMBLOCK_1X2-3.5MM</title>
    <line x1="43.838" x2="43.838" y1="20.438" y2="4.5638" stroke="#fff" stroke-linecap="round" stroke-width=".576"/>
    <line x1="43.838" x2="43.838" y1="4.5638" y2=".59528" stroke="#fff" stroke-linecap="round" stroke-width=".576"/>
    <line x1="43.838" x2="23.995" y1=".59528" y2=".59528" stroke="#fff" stroke-linecap="round" stroke-width=".576"/>
    <line x1="23.995" x2="23.995" y1=".59528" y2="4.5638" stroke="#fff" stroke-linecap="round" stroke-width=".576"/>
    <line x1="23.995" x2="23.995" y1="4.5638" y2="20.438" stroke="#fff" stroke-linecap="round" stroke-width=".576"/>
    <line x1="23.995" x2="43.838" y1="20.438" y2="20.438" stroke="#fff" stroke-linecap="round" stroke-width=".576"/>
    <line x1="43.838" x2="23.995" y1="4.5638" y2="4.5638" stroke="#fff" stroke-linecap="round" stroke-width=".576"/>
   </g>
  </g>
 </g>
 <g id="copper1">
  <g id="copper0" fill="none" stroke="#F7BD13">
   <circle id="connector13pad" cx="63" cy="50.4" r="1.9687" stroke-width="1.1027" connectorname="ADDR"/>
   <circle id="connector40pad" cx="61.2" cy="7.2" r="4.2633" stroke-width="1.44" connectorname="P$1"/>
   <circle id="connector14pad" cx="55.8" cy="50.4" r="1.9687" stroke-width="1.1027" connectorname="ALERT4"/>
   <circle id="connector15pad" cx="48.6" cy="50.4" r="1.9687" stroke-width="1.1027" connectorname="ALERT3"/>
   <circle id="connector16pad" cx="41.4" cy="50.4" r="1.9687" stroke-width="1.1027" connectorname="ALERT2"/>
   <circle id="connector17pad" cx="34.2" cy="50.4" r="1.9687" stroke-width="1.1027" connectorname="ALERT1"/>
   <circle id="connector18pad" cx="27" cy="50.4" r="1.9687" stroke-width="1.1027" connectorname="SDA"/>
   <circle id="connector19pad" cx="19.8" cy="50.4" r="1.9687" stroke-width="1.1027" connectorname="SCL"/>
   <circle id="connector64pad" cx="39.019" cy="10.8" r="2.2567" stroke-width="1.6787" connectorname="+"/>
   <circle id="connector20pad" cx="12.6" cy="50.4" r="1.9687" stroke-width="1.1027" connectorname="GND"/>
   <circle id="connector21pad" cx="5.4" cy="50.4" r="1.9687" stroke-width="1.1027" connectorname="VIN"/>
   <circle id="connector41pad" cx="7.2" cy="7.2" r="4.2633" stroke-width="1.44" connectorname="P$1"/>
   <circle id="connector63pad" cx="29.098" cy="10.8" r="2.2567" stroke-width="1.6787" connectorname="-"/>
  </g>
 </g>
</svg>
