<?xml version="1.0" encoding="UTF-8"?>
<!-- Created with Fritzing (http://www.fritzing.org/) -->
<svg width="1in" height=".7in" baseProfile="tiny" version="1.2" viewBox="0 0 72 50.4" xmlns="http://www.w3.org/2000/svg">
 <desc>
  <referenceFile>Adafruit DS1841_pcb.svg</referenceFile>
 </desc>
 <desc>Fritzing footprint generated by brd2svg</desc>
 <g id="silkscreen">
  <path d="m0.288 7.4057a6.912 6.912 0 0 1 7.1424-7.1177h57.139a6.912 6.912 0 0 1 7.1424 7.1177v35.589a6.912 6.912 0 0 1-7.1424 7.1177h-57.139a6.912 6.912 0 0 1-7.1424-7.1177v-35.589" fill="none" stroke="#fff" stroke-width=".576"/>
  <g>
   <title>element:CONN1</title>
   <g>
    <title>package:JST_SH4</title>
    <line x1="65.894" x2="58.524" y1="33.704" y2="33.704" stroke="#fff" stroke-linecap="round" stroke-width=".432"/>
    <line x1="58.524" x2="58.524" y1="33.704" y2="30.586" stroke="#fff" stroke-linecap="round" stroke-width=".432"/>
    <line x1="58.524" x2="58.524" y1="19.814" y2="16.413" stroke="#fff" stroke-linecap="round" stroke-width=".432"/>
    <line x1="58.524" x2="65.894" y1="16.413" y2="16.413" stroke="#fff" stroke-linecap="round" stroke-width=".432"/>
    <line x1="70.713" x2="70.713" y1="31.153" y2="19.247" stroke="#fff" stroke-linecap="round" stroke-width=".432"/>
   </g>
  </g>
  <g>
   <title>element:CONN2</title>
   <g>
    <title>package:JST_SH4</title>
    <line x1="6.1058" x2="13.476" y1="16.696" y2="16.696" stroke="#fff" stroke-linecap="round" stroke-width=".432"/>
    <line x1="13.476" x2="13.476" y1="16.696" y2="19.814" stroke="#fff" stroke-linecap="round" stroke-width=".432"/>
    <line x1="13.476" x2="13.476" y1="30.586" y2="33.987" stroke="#fff" stroke-linecap="round" stroke-width=".432"/>
    <line x1="13.476" x2="6.1058" y1="33.987" y2="33.987" stroke="#fff" stroke-linecap="round" stroke-width=".432"/>
    <line x1="1.2869" x2="1.2869" y1="19.247" y2="31.153" stroke="#fff" stroke-linecap="round" stroke-width=".432"/>
   </g>
  </g>
  <g>
   <title>element:JP2</title>
   <g>
    <title>package:1X06_ROUND</title>
   </g>
  </g>
  <g>
   <title>element:U$10</title>
   <g>
    <title>package:STEMMAQT</title>
   </g>
  </g>
  <g>
   <title>element:U$11</title>
   <g>
    <title>package:STEMMAQT</title>
   </g>
  </g>
 </g>
 <g id="copper1">
  <g id="copper0">
   <circle id="connector38pad" cx="39.6" cy="7.2" r="1.9687" fill="none" stroke="#F7BD13" stroke-width="1.1027" connectorname="RH"/>
   <g transform="matrix(-1 0 0 -1 115.35 58.904)">
    <rect id="connector9pad" x="55.477" y="28.602" width="4.3937" height="1.7008" fill="#F7BD13" stroke-width="0"/>
   </g>
   <circle id="connector42pad" cx="32.4" cy="43.2" r="1.8967" fill="none" stroke="#F7BD13" stroke-width=".95868" connectorname="SCL"/>
   <g transform="matrix(-1 0 0 -1 115.35 53.235)">
    <rect id="connector10pad" x="55.477" y="25.767" width="4.3937" height="1.7008" fill="#F7BD13" stroke-width="0"/>
   </g>
   <g transform="matrix(-1 0 0 -1 115.35 47.565)">
    <rect id="connector11pad" x="55.477" y="22.932" width="4.3937" height="1.7008" fill="#F7BD13" stroke-width="0"/>
   </g>
   <circle id="connector58pad" cx="7.2" cy="43.2" r="4.2633" fill="none" stroke="#F7BD13" stroke-width="1.44" connectorname="P$1"/>
   <g transform="matrix(-1 0 0 -1 115.35 41.896)">
    <rect id="connector12pad" x="55.477" y="20.098" width="4.3937" height="1.7008" fill="#F7BD13" stroke-width="0"/>
   </g>
   <circle id="connector36pad" cx="25.2" cy="7.2" r="1.9687" fill="none" stroke="#F7BD13" stroke-width="1.1027" connectorname="GND"/>
   <circle id="connector40pad" cx="18" cy="43.2" r="1.8967" fill="none" stroke="#F7BD13" stroke-width=".95868" connectorname="VCC"/>
   <circle id="connector44pad" cx="46.8" cy="43.2" r="1.8967" fill="none" stroke="#F7BD13" stroke-width=".95868" connectorname="A0"/>
   <rect id="connector15pad" x="12.13" y="20.098" width="4.3937" height="1.7008" fill="#F7BD13" stroke-width="0"/>
   <rect id="connector16pad" x="12.13" y="22.932" width="4.3937" height="1.7008" fill="#F7BD13" stroke-width="0"/>
   <rect id="connector17pad" x="12.13" y="25.767" width="4.3937" height="1.7008" fill="#F7BD13" stroke-width="0"/>
   <circle id="connector56pad" cx="7.2" cy="7.2" r="4.2633" fill="none" stroke="#F7BD13" stroke-width="1.44" connectorname="P$1"/>
   <rect id="connector18pad" x="12.13" y="28.602" width="4.3937" height="1.7008" fill="#F7BD13" stroke-width="0"/>
   <circle id="connector37pad" cx="32.4" cy="7.2" r="1.9687" fill="none" stroke="#F7BD13" stroke-width="1.1027" connectorname="RW"/>
   <circle id="connector39pad" cx="46.8" cy="7.2" r="1.9687" fill="none" stroke="#F7BD13" stroke-width="1.1027" connectorname="VCC"/>
   <circle id="connector41pad" cx="25.2" cy="43.2" r="1.8967" fill="none" stroke="#F7BD13" stroke-width=".95868" connectorname="GND"/>
   <circle id="connector43pad" cx="39.6" cy="43.2" r="1.8967" fill="none" stroke="#F7BD13" stroke-width=".95868" connectorname="SDA"/>
   <circle id="connector45pad" cx="54" cy="43.2" r="1.8967" fill="none" stroke="#F7BD13" stroke-width=".95868" connectorname="A1"/>
   <circle id="connector57pad" cx="64.8" cy="7.2" r="4.2633" fill="none" stroke="#F7BD13" stroke-width="1.44" connectorname="P$1"/>
   <circle id="connector59pad" cx="64.8" cy="43.2" r="4.2633" fill="none" stroke="#F7BD13" stroke-width="1.44" connectorname="P$1"/>
  </g>
 </g>
</svg>
