<?xml version="1.0" encoding="UTF-8"?>
<!-- Created with Fritzing (http://www.fritzing.org/) -->
<svg width="2.45in" height="2.07in" baseProfile="tiny" version="1.2" viewBox="0 0 176.4 149.04" xmlns="http://www.w3.org/2000/svg">
 <desc>
  <referenceFile>Adafruit 2.4 Touchscreen TFT Breakout w:MicroSD_pcb.svg</referenceFile>
 </desc>
 <desc>Fritzing footprint generated by brd2svg</desc>
 <g id="silkscreen">
  <path d="m176.11 141.58a6.912 6.912 0 0 1-7.176 7.172h-161.47a6.912 6.912 0 0 1-7.1765-7.172v-134.12a6.912 6.912 0 0 1 7.1765-7.1722h161.47a6.912 6.912 0 0 1 7.176 7.1722v134.12m-109.08-24.386v-85.348h-19.018v85.348h19.018" fill="none" stroke="#fff" stroke-width=".576"/>
  <g>
   <title>element:IC2</title>
   <g>
    <title>package:SO20W</title>
   </g>
  </g>
  <g>
   <title>element:IC3</title>
   <g>
    <title>package:SO20W</title>
   </g>
  </g>
  <g>
   <title>element:JP1</title>
   <g>
    <title>package:1X20_ROUND</title>
   </g>
  </g>
  <g>
   <title>element:JP2</title>
   <g>
    <title>package:1X20_ROUND</title>
   </g>
  </g>
  <g>
   <title>element:U$10</title>
   <g>
    <title>package:TFT_2.4IN_240X320_50PIN</title>
    <line x1="173.05" x2="173.05" y1="14.142" y2="134.9" stroke="#fff" stroke-linecap="round" stroke-width=".36"/>
    <line x1="173.05" x2="2.9707" y1="134.9" y2="134.9" stroke="#fff" stroke-linecap="round" stroke-width=".36"/>
    <line x1="2.9707" x2="2.9707" y1="134.9" y2="14.142" stroke="#fff" stroke-linecap="round" stroke-width=".36"/>
    <line x1="2.9707" x2="173.05" y1="14.142" y2="14.142" stroke="#fff" stroke-linecap="round" stroke-width=".36"/>
   </g>
  </g>
  <g>
   <title>element:U$19</title>
   <g>
    <title>package:ADAFRUIT_TEXT_30MM</title>
   </g>
  </g>
  <g>
   <title>element:X1</title>
   <g>
    <title>package:MICROSD</title>
   </g>
  </g>
 </g>
 <g id="copper1">
  <g id="copper0" fill="none" stroke="#F7BD13">
   <circle id="connector1pad" cx="27.36" cy="6.12" r="1.8967" stroke-width=".95868" connectorname="VIN"/>
   <circle id="connector25pad" cx="56.16" cy="142.92" r="1.8967" stroke-width=".95868" connectorname="MOSI"/>
   <circle id="connector33pad" cx="113.76" cy="142.92" r="1.8967" stroke-width=".95868" connectorname="X-"/>
   <circle id="connector2pad" cx="34.56" cy="6.12" r="1.8967" stroke-width=".95868" connectorname="CS"/>
   <circle id="connector41pad" cx="7.2" cy="141.84" r="4.2633" stroke-width="1.44" connectorname="P$1"/>
   <circle id="connector3pad" cx="41.76" cy="6.12" r="1.8967" stroke-width=".95868" connectorname="RS_CLK"/>
   <circle id="connector29pad" cx="84.96" cy="142.92" r="1.8967" stroke-width=".95868" connectorname="LITE"/>
   <circle id="connector4pad" cx="48.96" cy="6.12" r="1.8967" stroke-width=".95868" connectorname="WR_DC"/>
   <circle id="connector37pad" cx="142.56" cy="142.92" r="1.8967" stroke-width=".95868" connectorname="IM3"/>
   <circle id="connector5pad" cx="56.16" cy="6.12" r="1.8967" stroke-width=".95868" connectorname="RD"/>
   <circle id="connector23pad" cx="41.76" cy="142.92" r="1.8967" stroke-width=".95868" connectorname="RS_CLK"/>
   <circle id="connector6pad" cx="63.36" cy="6.12" r="1.8967" stroke-width=".95868" connectorname="RST"/>
   <circle id="connector27pad" cx="70.56" cy="142.92" r="1.8967" stroke-width=".95868" connectorname="WR_DC"/>
   <circle id="connector7pad" cx="70.56" cy="6.12" r="1.8967" stroke-width=".95868" connectorname="LITE"/>
   <circle id="connector31pad" cx="99.36" cy="142.92" r="1.8967" stroke-width=".95868" connectorname="X+"/>
   <circle id="connector8pad" cx="77.76" cy="6.12" r="1.8967" stroke-width=".95868" connectorname="X+"/>
   <circle id="connector35pad" cx="128.16" cy="142.92" r="1.8967" stroke-width=".95868" connectorname="IM1"/>
   <circle id="connector9pad" cx="84.96" cy="6.12" r="1.8967" stroke-width=".95868" connectorname="Y+"/>
   <circle id="connector39pad" cx="156.96" cy="142.92" r="1.8967" stroke-width=".95868" connectorname="CARDDET"/>
   <circle id="connector10pad" cx="92.16" cy="6.12" r="1.8967" stroke-width=".95868" connectorname="X-"/>
   <circle id="connector43pad" cx="7.2" cy="7.2" r="4.2633" stroke-width="1.44" connectorname="P$1"/>
   <circle id="connector11pad" cx="99.36" cy="6.12" r="1.8967" stroke-width=".95868" connectorname="Y-"/>
   <circle id="connector24pad" cx="48.96" cy="142.92" r="1.8967" stroke-width=".95868" connectorname="MISO"/>
   <circle id="connector12pad" cx="106.56" cy="6.12" r="1.8967" stroke-width=".95868" connectorname="D0"/>
   <circle id="connector26pad" cx="63.36" cy="142.92" r="1.8967" stroke-width=".95868" connectorname="CS"/>
   <circle id="connector13pad" cx="113.76" cy="6.12" r="1.8967" stroke-width=".95868" connectorname="D1"/>
   <circle id="connector28pad" cx="77.76" cy="142.92" r="1.8967" stroke-width=".95868" connectorname="RST"/>
   <circle id="connector14pad" cx="120.96" cy="6.12" r="1.8967" stroke-width=".95868" connectorname="D2"/>
   <circle id="connector30pad" cx="92.16" cy="142.92" r="1.8967" stroke-width=".95868" connectorname="Y+"/>
   <circle id="connector15pad" cx="128.16" cy="6.12" r="1.8967" stroke-width=".95868" connectorname="D3"/>
   <circle id="connector32pad" cx="106.56" cy="142.92" r="1.8967" stroke-width=".95868" connectorname="Y-"/>
   <circle id="connector16pad" cx="135.36" cy="6.12" r="1.8967" stroke-width=".95868" connectorname="D4"/>
   <circle id="connector34pad" cx="120.96" cy="142.92" r="1.8967" stroke-width=".95868" connectorname="IM0"/>
   <circle id="connector17pad" cx="142.56" cy="6.12" r="1.8967" stroke-width=".95868" connectorname="D5"/>
   <circle id="connector36pad" cx="135.36" cy="142.92" r="1.8967" stroke-width=".95868" connectorname="IM2"/>
   <circle id="connector18pad" cx="149.76" cy="6.12" r="1.8967" stroke-width=".95868" connectorname="D6"/>
   <circle id="connector38pad" cx="149.76" cy="142.92" r="1.8967" stroke-width=".95868" connectorname="SD_CS"/>
   <circle id="connector19pad" cx="156.96" cy="6.12" r="1.8967" stroke-width=".95868" connectorname="D7"/>
   <circle id="connector40pad" cx="169.2" cy="141.84" r="4.2633" stroke-width="1.44" connectorname="P$1"/>
   <circle id="connector20pad" cx="20.16" cy="142.92" r="1.8967" stroke-width=".95868" connectorname="GND"/>
   <circle id="connector42pad" cx="169.2" cy="7.2" r="4.2633" stroke-width="1.44" connectorname="P$1"/>
   <circle id="connector21pad" cx="27.36" cy="142.92" r="1.8967" stroke-width=".95868" connectorname="VIN"/>
   <circle id="connector22pad" cx="34.56" cy="142.92" r="1.8967" stroke-width=".95868" connectorname="+3V"/>
   <circle id="connector0pad" cx="20.16" cy="6.12" r="1.8967" stroke-width=".95868" connectorname="GND"/>
  </g>
 </g>
</svg>
