<?xml version="1.0" encoding="UTF-8"?>
<!-- Created with Inkscape (http://www.inkscape.org/) -->
<svg width="36" height="13.5" version="1.1" xmlns="http://www.w3.org/2000/svg">
 <metadata>
  <rdf:RDF xmlns:rdf="http://www.w3.org/1999/02/22-rdf-syntax-ns#">
   <cc:Work rdf:about="" xmlns:cc="http://creativecommons.org/ns#" xmlns:rdf="http://www.w3.org/1999/02/22-rdf-syntax-ns#">
    <dc:format xmlns:dc="http://purl.org/dc/elements/1.1/">image/svg+xml</dc:format>
    <dc:type rdf:resource="http://purl.org/dc/dcmitype/StillImage" xmlns:dc="http://purl.org/dc/elements/1.1/" xmlns:rdf="http://www.w3.org/1999/02/22-rdf-syntax-ns#"/>
    <dc:title xmlns:dc="http://purl.org/dc/elements/1.1/"/>
   </cc:Work>
  </rdf:RDF>
 </metadata>
 <g id="pcb">
  <g id="copper0" fill="none" stroke="#f6ca34" stroke-linecap="round" stroke-linejoin="round" stroke-width="1.8">
   <path id="connector1pin" d="m11.25 4.5a2.25 2.25 0 0 1-4.5 0 2.25 2.25 0 1 1 4.5 0z"/>
   <path id="connector2pin" d="m20.25 4.5a2.25 2.25 0 0 1-4.5 0 2.25 2.25 0 1 1 4.5 0z"/>
   <path id="connector3pin" d="m29.25 4.5a2.25 2.25 0 0 1-4.5 0 2.25 2.25 0 1 1 4.5 0z"/>
  </g>
  <g id="copper1" fill="none" stroke="#f6ca34" stroke-linecap="round" stroke-linejoin="round" stroke-width="1.8">
   <path id="connector1pin" d="m11.25 4.5a2.25 2.25 0 0 1-4.5 0 2.25 2.25 0 1 1 4.5 0z"/>
   <path id="connector2pin" d="m20.25 4.5a2.25 2.25 0 0 1-4.5 0 2.25 2.25 0 1 1 4.5 0z"/>
   <path id="connector3pin" d="m29.25 4.5a2.25 2.25 0 0 1-4.5 0 2.25 2.25 0 1 1 4.5 0z"/>
  </g>
  <g id="silkscreen">
   <g transform="translate(0 -11.8)" font-family="OCRA" font-size="8px" letter-spacing="0px" text-align="center" text-anchor="middle" word-spacing="0px" style="line-height:125%" xml:space="preserve" xmlns:xml="http://www.w3.org/XML/1998/namespace">
    <g fill="#fff" font-size="4px">
     <text x="9" y="22.950001" font-size="3.5px">B</text>
    </g>
   </g>
   <g transform="translate(0 -23)" font-family="OCRA" font-size="8px" letter-spacing="0px" text-align="center" text-anchor="middle" word-spacing="0px" style="line-height:125%" xml:space="preserve" xmlns:xml="http://www.w3.org/XML/1998/namespace">
    <g fill="#fff" font-size="4px">
     <text x="18" y="34.200001" font-size="3.5px">C</text>
    </g>
   </g>
   <g transform="translate(0 -11.8)" font-family="OCRA" font-size="8px" letter-spacing="0px" text-align="center" text-anchor="middle" word-spacing="0px" style="line-height:125%" xml:space="preserve" xmlns:xml="http://www.w3.org/XML/1998/namespace">
    <g fill="#fff" font-size="4px">
     <text x="27" y="22.950001" font-size="3.5px">E</text>
    </g>
   </g>
   <rect x=".45" y=".44995" width="35.1" height="12.6" fill="none" stroke="#fff" stroke-width=".45"/>
  </g>
 </g>
</svg>
