<?xml version="1.0" encoding="UTF-8"?>
<!-- Created with Fritzing (http://www.fritzing.org/) -->
<svg width=".8in" height=".8in" baseProfile="tiny" version="1.2" viewBox="0 0 57.6 57.6" xmlns="http://www.w3.org/2000/svg">
 <desc>
  <referenceFile>TMP006_v0.1_pcb.svg</referenceFile>
 </desc>
 <desc>Fritzing footprint generated by brd2svg</desc>
 <g id="silkscreen">
  <path d="m0.288 7.416a6.912 6.912 0 0 1 7.128-7.128h42.768a6.912 6.912 0 0 1 7.128 7.128v42.768a6.912 6.912 0 0 1-7.128 7.128h-42.768a6.912 6.912 0 0 1-7.128-7.128v-42.768" fill="none" stroke="#fff" stroke-width=".576"/>
  <g>
   <title>element:JP1</title>
   <g>
    <title>package:1X07_ROUND_76</title>
   </g>
  </g>
 </g>
 <g id="copper1">
  <g id="copper0" fill="none" stroke="#F7BD13">
   <circle id="connector21pad" cx="50.4" cy="7.2" r="4.2633" stroke-width="1.44" connectorname="P$1"/>
   <circle id="connector4pad" cx="7.2" cy="50.4" r="2.0767" stroke-width="1.3187" connectorname="VCC"/>
   <circle id="connector5pad" cx="14.4" cy="50.4" r="2.0767" stroke-width="1.3187" connectorname="GND"/>
   <circle id="connector6pad" cx="21.6" cy="50.4" r="2.0767" stroke-width="1.3187" connectorname="SDA"/>
   <circle id="connector7pad" cx="28.8" cy="50.4" r="2.0767" stroke-width="1.3187" connectorname="SCL"/>
   <circle id="connector8pad" cx="36" cy="50.4" r="2.0767" stroke-width="1.3187" connectorname="DRDY"/>
   <circle id="connector9pad" cx="43.2" cy="50.4" r="2.0767" stroke-width="1.3187" connectorname="ADDR1"/>
   <circle id="connector10pad" cx="50.4" cy="50.4" r="2.0767" stroke-width="1.3187" connectorname="ADDR0"/>
   <circle id="connector22pad" cx="7.2" cy="7.2" r="4.2633" stroke-width="1.44" connectorname="P$1"/>
  </g>
 </g>
</svg>
