<?xml version="1.0" encoding="UTF-8"?>
<!-- Created with Fritzing (http://www.fritzing.org/) -->
<svg width=".5in" height=".7in" baseProfile="tiny" version="1.2" viewBox="0 0 36 50.4" xmlns="http://www.w3.org/2000/svg">
 <desc>
  <referenceFile>Adafruit TXB0104 4-channel Bi-Directional Level Shifter_pcb.svg</referenceFile>
 </desc>
 <desc>Fritzing footprint generated by brd2svg</desc>
 <g id="silkscreen">
  <path d="m28.627 0.288a6.912 6.912 0 0 1 7.0848 7.1177v35.589a6.912 6.912 0 0 1-7.0848 7.1177h-21.254a6.912 6.912 0 0 1-7.0848-7.1177v-35.589a6.912 6.912 0 0 1 7.0848-7.1177h21.254" fill="none" stroke="#fff" stroke-width=".576"/>
  <line x1="18" x2="18" y1="8.28" y2="11.543" stroke="#fff" stroke-linecap="round" stroke-width=".72"/>
  <line x1="18" x2="18" y1="14.377" y2="17.64" stroke="#fff" stroke-linecap="round" stroke-width=".72"/>
  <g>
   <title>element:JP3</title>
   <g>
    <title>package:1X06-CLEANBIG</title>
   </g>
  </g>
  <g>
   <title>element:JP4</title>
   <g>
    <title>package:1X06-CLEANBIG</title>
   </g>
  </g>
  <g>
   <title>element:U2</title>
   <g>
    <title>package:TSSOP14</title>
    <line x1="10.872" x2="10.872" y1="35.991" y2="23.049" stroke="#fff" stroke-linecap="round" stroke-width=".576"/>
    <line x1="25.128" x2="25.128" y1="23.049" y2="35.991" stroke="#fff" stroke-linecap="round" stroke-width=".576"/>
    <circle cx="22.608" cy="26.064" r="1.296" fill="none" stroke="#fff" stroke-width=".576"/>
   </g>
  </g>
 </g>
 <g id="copper1">
  <g id="copper0" fill="none" stroke="#F7BD13" stroke-width="1.08">
   <circle id="connector9pad" cx="32.4" cy="7.2" r="1.98" connectorname="VHIGH"/>
   <circle id="connector10pad" cx="32.4" cy="14.4" r="1.98" connectorname="B1"/>
   <circle id="connector11pad" cx="32.4" cy="21.6" r="1.98" connectorname="B2"/>
   <circle id="connector12pad" cx="32.4" cy="28.8" r="1.98" connectorname="B3"/>
   <circle id="connector13pad" cx="32.4" cy="36" r="1.98" connectorname="B4"/>
   <circle id="connector14pad" cx="32.4" cy="43.2" r="1.98" connectorname="GND"/>
   <circle id="connector15pad" cx="3.6" cy="43.2" r="1.98" connectorname="OE"/>
   <circle id="connector16pad" cx="3.6" cy="36" r="1.98" connectorname="A4"/>
   <circle id="connector17pad" cx="3.6" cy="28.8" r="1.98" connectorname="A3"/>
   <circle id="connector18pad" cx="3.6" cy="21.6" r="1.98" connectorname="A2"/>
   <circle id="connector19pad" cx="3.6" cy="14.4" r="1.98" connectorname="A1"/>
   <circle id="connector20pad" cx="3.6" cy="7.2" r="1.98" connectorname="VLOW"/>
  </g>
 </g>
</svg>
