<?xml version="1.0" encoding="UTF-8"?>
<!-- Created with Fritzing (http://www.fritzing.org/) -->
<svg width=".4in" height=".75in" baseProfile="tiny" version="1.2" viewBox="0 0 28.8 54" xmlns="http://www.w3.org/2000/svg">
 <desc>
  <referenceFile>Adafruit GUVA-S12SD UV Light Sensor_pcb.svg</referenceFile>
 </desc>
 <desc>Fritzing footprint generated by brd2svg</desc>
 <g id="silkscreen">
  <path d="m7.344 53.712a6.912 6.912 0 0 1-7.056-7.1232v-39.178a6.912 6.912 0 0 1 7.056-7.1232h14.112a6.912 6.912 0 0 1 7.056 7.1232v39.178a6.912 6.912 0 0 1-7.056 7.1232h-14.112" fill="none" stroke="#fff" stroke-width=".576"/>
  <g>
   <title>element:JP2</title>
   <g>
    <title>package:1X03-CLEANBIG</title>
   </g>
  </g>
  <g>
   <title>element:U$6</title>
   <g>
    <title>package:MOUNTINGHOLE_2.5_PLATED</title>
    <circle cx="14.4" cy="9" r="5.6693" fill="none" stroke="#fff" stroke-width=".576"/>
   </g>
  </g>
  <g>
   <title>element:U1</title>
   <g>
    <title>package:SOT23-5</title>
    <line x1="12.132" x2="16.668" y1="35.637" y2="35.637" stroke="#fff" stroke-linecap="round" stroke-width=".576"/>
    <line x1="12.132" x2="16.668" y1="26.283" y2="26.283" stroke="#fff" stroke-linecap="round" stroke-width=".576"/>
    <line x1="11.424" x2="11.424" y1="32.094" y2="29.826" stroke="#fff" stroke-linecap="round" stroke-width=".576"/>
   </g>
  </g>
  <g>
   <title>element:U2</title>
   <g>
    <title>package:GUVA-S12SD</title>
    <line x1="9.1559" x2="9.1559" y1="24.423" y2="25.132" stroke="#fff" stroke-linecap="round" stroke-width=".36"/>
    <line x1="9.1559" x2="19.644" y1="25.132" y2="25.132" stroke="#fff" stroke-linecap="round" stroke-width=".36"/>
    <line x1="19.644" x2="19.644" y1="25.132" y2="24.565" stroke="#fff" stroke-linecap="round" stroke-width=".36"/>
    <line x1="9.1559" x2="9.1559" y1="17.195" y2="16.628" stroke="#fff" stroke-linecap="round" stroke-width=".36"/>
    <line x1="9.1559" x2="19.644" y1="16.628" y2="16.628" stroke="#fff" stroke-linecap="round" stroke-width=".36"/>
    <line x1="19.644" x2="19.644" y1="16.628" y2="17.195" stroke="#fff" stroke-linecap="round" stroke-width=".36"/>
    <g>
     <title>polygon</title>
     <path d="m13.68 20.88 2.0069-1.6469v3.2938l-2.0069-1.6469m1.584 1.2999v-2.5998 2.5998m-0.432-0.3545v-1.8908 1.8908m-0.432-0.3546v-1.1816 1.1816" fill="none" stroke="#fff" stroke-linecap="round" stroke-width=".432"/>
    </g>
   </g>
  </g>
 </g>
 <g id="copper1">
  <g id="copper0" fill="none" stroke="#F7BD13" stroke-width="1.44">
   <circle id="connector15pad" cx="14.4" cy="9" r="4.2633" connectorname="P$1"/>
   <circle id="connector6pad" cx="20.88" cy="46.8" r="2.16" connectorname="5.0V"/>
   <circle id="connector7pad" cx="13.68" cy="46.8" r="2.16" connectorname="AOUT"/>
   <circle id="connector8pad" cx="6.48" cy="46.8" r="2.16" connectorname="GND"/>
  </g>
 </g>
</svg>
