<?xml version="1.0" encoding="UTF-8"?>
<!DOCTYPE svg  PUBLIC '-//W3C//DTD SVG 1.1//EN'  'http://www.w3.org/Graphics/SVG/1.1/DTD/svg11.dtd'>
<svg width="32px" height="32px" enable-background="new 0 0 32 32" version="1.1" viewBox="0 0 32 32" xmlns="http://www.w3.org/2000/svg">
	<g id="icon">
		<rect id="connector0pin" x="26.565" y="14.234" width="5.421" height="2.9" fill="#8C8C8C"/>
		<rect id="connector1pin" x=".076" y="14.275" width="5.744" height="2.901" fill="#8C8C8C"/>
		<path d="m5.264 20.832c-1.101 0-1.521-0.391-1.524-0.869v-5.312c-4e-3 -0.478 0.358-0.869 1.458-0.869h21.592c1.101 0 1.467 0.392 1.471 0.869v5.313c4e-3 0.478-0.374 0.867-1.47 0.867h-21.527z" fill="#474747"/>
		<path d="m5.264 18.415c-1.101 0-1.521-0.391-1.524-0.869v-5.312c-4e-3 -0.478 0.358-0.869 1.458-0.869h21.592c1.101 0 1.467 0.392 1.471 0.869v5.313c4e-3 0.478-0.374 0.867-1.47 0.867h-21.527z" fill="#666"/>
		<path d="m10.734 17.314c-0.819 0-1.157-0.291-1.16-0.647v-4.355c-4e-3 -0.355 0.267-0.647 1.085-0.647h10.672c0.819 0 1.092 0.292 1.095 0.647v4.357c3e-3 0.355-0.353 0.646-1.168 0.646h-10.524z" fill="#C4C4C4"/>
		<path d="m10.734 15.245c-0.819 0-1.157-0.291-1.16-0.647v-4.355c-4e-3 -0.356 0.267-0.648 1.085-0.648h10.672c0.819 0 1.092 0.292 1.095 0.647v4.358c3e-3 0.355-0.353 0.646-1.168 0.646h-10.524z" fill="#EDEDED"/>
		<ellipse cx="6.531" cy="15.02" rx=".9" ry=".677"/>
		<ellipse cx="25.469" cy="15.02" rx=".9" ry=".677"/>
		<path d="m22.641 12.496v4.208c3e-3 0.355-0.353 0.795-1.168 0.795h-10.953c-0.819 0-1.157-0.44-1.16-0.797v-4.206" fill="none" stroke="#333" stroke-width=".4"/>
	</g>
</svg>
