<?xml version="1.0" encoding="UTF-8"?>
<!-- Generator: Adobe Illustrator 14.0.0, SVG Export Plug-In . SVG Version: 6.00 Build 43363)  -->
<!DOCTYPE svg  PUBLIC '-//W3C//DTD SVG 1.1//EN'  'http://www.w3.org/Graphics/SVG/1.1/DTD/svg11.dtd'>
<svg width="32px" height="32px" version="1.1" viewBox="0 0 32 32" xml:space="preserve" xmlns="http://www.w3.org/2000/svg">
<g id="icon">
	<rect x="11.092" y="17.829" width="2.146" height="34.123" fill="#8C8C8C"/>
	<path d="m20.514 31.229c0-1.467-1.33-2.627-2.609-3.738-0.521-0.459-1.5-1.252-1.5-1.781v-6.838h-2.368v7.227c0 1.322 1.186 2.348 2.437 3.438 0.555 0.469 1.687 1.563 1.687 2.211 0 0.262 4e-3 20.256 4e-3 20.256h2.354l-5e-3 -20.775z" fill="#8C8C8C"/>
	<path d="m24.333 11.288c0 7.083-0.467 12.508-1.626 16.485-0.643 2.207-5.005 0.779-6.854 0.779-1.88 0-6.189 1.391-6.854-0.854-1.002-3.389-1.628-9.402-1.628-16.411 0-8.092 3.77-8.092 8.481-8.092 4.712 0 8.481 0 8.481 8.093z"  fill="#EA9821"/>
	<path d="m20.916 7.409 1.491-0.285c-0.873-1.174-2.164-2.033-3.681-2.325l0.265 1.123c0.795 0.28 1.463 0.808 1.925 1.487z"  fill="#fff" opacity=".5"/>
	<path opacity="0.8" transform="scale(.009 .01)" d="m2170 2300c0 27 21 52 49 52h148v148c0 28 24 50 51 50s50-23 50-50v-148h149s27-101 10-100h-159v-149c0-27-22-51-50-51s-51 23-51 51v148h-148c-27 0-49 22-49 49z" fill="#684312"/>
	<path d="m10.659 8.273-1.644-0.24c1.195-2.371 2.58-3.188 4.872-3.451l-0.111 1.51c-1.559 0-2.702 0.624-3.117 2.181z"  fill="#fff" opacity=".5"/>
	<path d="m12.668 28.952c-0.373 0.078 0.697-1.939 0.592-2.631-0.108-0.691-0.483-0.535 0.326-0.73 0.813-0.195 3.083-0.143 3.682 0 0.596 0.145 0.642-0.066 0.539 0.73-0.106 0.795 0.801 2.596 0.488 2.525-2.13-0.492-4.078-0.284-5.627 0.106z"  fill="#500" opacity=".1632"/>
</g>
</svg>
