<svg width="103.17" height="124.44" version="1.1" xmlns="http://www.w3.org/2000/svg">
	<g id="icon" transform="translate(-185.56 -515.86)" stroke="#000" stroke-linejoin="round">
		<g fill="#fff" stroke-width=".7325">
			<path d="m273.89 613.16 5.09-16.394v-11.302h5.835v-5.9612h-2.9175l-11.468-28.884c-1.1625-2.9175-4.0112-4.9788-7.3425-4.9788h-51.898c-3.33 0-6.18 2.0612-7.3425 4.9788l-11.468 28.884h-2.9175v5.9612h5.835v11.302l5.0912 16.394h73.501z"/>
			<g fill-rule="nonzero">
				<path d="m254.15 579.51h30.666v5.9612h-30.666v-5.9612z"/>
				<path d="m189.47 585.47h30.666v-5.9612h-30.666v5.9612z"/>
			</g>
			<path d="m216.35 631.61v-18.444h-6.1462v18.444l3.0425 4.7812 3.1038-4.7812z"/>
			<path d="m254.34 631.61v-18.444h-6.1462v18.444l3.0425 4.7812 3.1038-4.7812z"/>
			<path d="m223.61 625.71h24.582v-12.544h-24.582v12.544z"/>
		</g>
		<path d="m248.19 625.71-5.6488 8.0725h-13.285l-5.6488-8.0725h24.582z" fill="#fff" stroke-width=".7325"/>
		<path d="m266.32 549.57 0.49625 23.598m-3.4762-23.598-0.49625 23.598m-54.878-23.598-0.4975 23.598m3.4762-23.598 0.4975 23.598m68.354 0.95125c-0.84-1.985-2.805-3.3788-5.0962-3.3788h-7.9462m-3.8488 0h-19.679v4.415h-12.168v-4.415h-19.679m-3.8488 0h-7.9462c-2.2912 0-4.2562 1.3938-5.0962 3.3788m10.621 11.345v27.696m64.065-27.696v27.696" fill="none" stroke-width=".36625"/>
		<path d="m242.96 581.92 1.2625 9.5062h4.8412l2.1112 15.898h2.98v-27.82h-34.019v27.82h2.9788l2.1112-15.898h4.8425l1.2612-9.5062h11.63z" fill="#fff" fill-rule="nonzero" stroke-width=".7325"/>
		<path d="m230.96 584.22h12.312m-13.368 9.0662h14.485m-15.292 9.2525 0.97375-11.11h-4.8425l-1.49 11.116 5.3588-6e-3zm0.57-6.98h-5.0288m4.78 1.9875h-5.0288m20.808 4.9925-0.9725-11.11h4.8412l1.49 11.116-5.3588-6e-3zm-0.57-6.98h5.0288m-4.78 1.9875h5.0288m-33.554-2.1425h2.8562v-9.9362h-2.8562v9.9362zm38.738-9.9362h2.855v9.9362h-2.855v-9.9362zm-49.974 17.078 14.981-6e-3m34.122 6e-3 14.982-6e-3" fill="none" stroke-width=".36625"/>
		<path d="m257.38 545.66-2.295-3.6638h-35.881l-2.295 3.6638h40.471z" fill="#fff" stroke-width=".7325"/>
		<path d="m250.99 542v-19.561l-2.67-2.6712h-22.286l-2.7312 2.7325v19.5h27.688z" fill="#fff" stroke-width=".7325"/>
		<path d="m233.6 542h7.0762v-21.3h-7.0762v21.3zm7.0775-20.059h7.6975v20.059h-22.472v-20.059h7.6975m0 3.975h-3.5375v16.084m10.615-16.084h3.5388v16.084" fill="none" stroke-width=".36625"/>
		<path d="m205.17 613.18c0 1.0212 1.1162 1.8488 2.495 1.8488 1.3775 0 2.495-0.8275 2.495-1.8488h-4.99z" fill="#fff" stroke-width=".7325"/>
		<path d="m264.18 613.18c0 1.0212 1.1162 1.8488 2.495 1.8488 1.3775 0 2.495-0.8275 2.495-1.8488h-4.99z" fill="#fff" stroke-width=".7325"/>
	</g>
</svg>
