<?xml version="1.0" encoding="UTF-8"?>
<svg width="14mm" height="13.5mm" fill="none" viewBox="0 0 40 39.2" xmlns="http://www.w3.org/2000/svg"><g id="icon"><path d="m12.72 34.56h-0.13c-0.9223 0-1.67 0.7477-1.67 1.67v1.21c0 0.9223 0.7477 1.67 1.67 1.67h0.13c0.9223 0 1.67-0.7477 1.67-1.67v-1.21c0-0.9223-0.7477-1.67-1.67-1.67z" fill="#ccc"/><rect x="12.72" y="36.7" width=".1" height=".1"/><rect x="12.72" y="2.4" width=".1" height=".1"/><rect x="27.12" y="36.7" width=".1" height=".1"/><rect x="27.12" y="2.4" width=".1" height=".1"/><g fill="#ccc"><path d="m12.72 0h-0.13c-0.9223 0-1.67 0.74768-1.67 1.67v1.21c0 0.92232 0.7477 1.67 1.67 1.67h0.13c0.9223 0 1.67-0.74768 1.67-1.67v-1.21c0-0.92232-0.7477-1.67-1.67-1.67z"/><path d="m27.12 34.56h-0.13c-0.9223 0-1.67 0.7477-1.67 1.67v1.21c0 0.9223 0.7477 1.67 1.67 1.67h0.13c0.9223 0 1.67-0.7477 1.67-1.67v-1.21c0-0.9223-0.7477-1.67-1.67-1.67z"/><path d="m27.12 0h-0.13c-0.9223 0-1.67 0.74768-1.67 1.67v1.21c0 0.92232 0.7477 1.67 1.67 1.67h0.13c0.9223 0 1.67-0.74768 1.67-1.67v-1.21c0-0.92232-0.7477-1.67-1.67-1.67z"/></g><path d="M37.02 5.63L34.03 2.64H5.98L3 5.63V33.67L5.98 36.66H34.03L37.02 33.67V5.63Z" fill="#000"/><path d="m32.38 4.87c1.33 0 2.41 1.08 2.41 2.41v24.75c0 1.33-1.08 2.41-2.41 2.41h-24.75c-1.33 0-2.41-1.08-2.41-2.41v-24.76c0-1.33 1.08-2.41 2.41-2.41h24.75v0.01z" fill="#B6B6B6"/><g fill="#000"><path d="m9.53 32.69c1.4138 0 2.56-1.1461 2.56-2.56 0-1.4138-1.1462-2.56-2.56-2.56-1.4138 0-2.56 1.1462-2.56 2.56 0 1.4139 1.1462 2.56 2.56 2.56z"/><path d="m9.58 11.66c1.4139 0 2.56-1.1462 2.56-2.56 0-1.4138-1.1461-2.56-2.56-2.56-1.4138 0-2.56 1.1462-2.56 2.56 0 1.4138 1.1462 2.56 2.56 2.56z"/><path d="m30.6 11.7c1.4139 0 2.56-1.1461 2.56-2.56 0-1.4138-1.1461-2.56-2.56-2.56-1.4138 0-2.56 1.1462-2.56 2.56 0 1.4139 1.1462 2.56 2.56 2.56z"/><path d="m30.56 32.73c1.4138 0 2.56-1.1462 2.56-2.56s-1.1462-2.56-2.56-2.56-2.56 1.1462-2.56 2.56 1.1462 2.56 2.56 2.56z"/></g><g fill="#fff"><path d="m9.4 30.46c-0.12-0.05-0.21-0.14-0.23-0.28l-1.62 0.25c0.02 0.1 0 0.2 0.03 0.29 0.18 0.6 0.63 1.04 1.2 1.28l0.63-1.55-0.01 0.01z" opacity=".5"/><path d="m9.4401 9.43c-0.12-0.05-0.22-0.14-0.24-0.27l-1.61 0.25c0.02 0.1 0 0.2 0.03 0.3 0.18 0.59 0.63 1.04 1.2 1.27l0.63-1.54-0.01-0.01z" opacity=".5"/><path d="m30.47 9.48c-0.12-0.05-0.22-0.14-0.24-0.27l-1.61 0.25c0.02 0.1 0 0.2 0.03 0.29h-0.01c0.18 0.59999 0.63 1.05 1.2 1.27l0.63-1.54z" opacity=".5"/><path d="m30.42 30.51c-0.12-0.05-0.21-0.14-0.24-0.28l-1.61 0.25c0.02 0.1 0 0.2 0.03 0.29 0.18 0.6 0.63 1.04 1.2 1.27l0.63-1.55-0.01 0.02z" opacity=".5"/></g><g transform="translate(0 -1.2)"><rect x="3" y="20.4" width=".1" height=".1"/><rect x="37.5" y="20.4" width=".1" height=".1"/><path d="m0.3999 22.82v-4.82h4.82v4.82h-4.82z" fill="#B6B6B6"/><path d="m1.8999 20.49c0-0.0552 0.04477-0.1 0.1-0.1h2c0.05523 0 0.1 0.0448 0.1 0.1s-0.04477 0.1-0.1 0.1h-2c-0.05523 0-0.1-0.0448-0.1-0.1z" fill="#807F7F"/><path d="m39.61 22.82v-4.82h-4.82v4.82h4.82z" fill="#B6B6B6"/><path d="m37.9 19.5c0-0.0552-0.0448-0.1-0.1001-0.1-0.0552 0-0.1 0.0448-0.1 0.1v0.9h-0.9c-0.0553 0-0.1 0.0448-0.1 0.1s0.0447 0.1 0.1 0.1h0.9v0.9c0 0.0552 0.0448 0.1 0.1 0.1 0.0553 0 0.1001-0.0448 0.1001-0.1v-0.9h0.9c0.0553 0 0.1-0.0448 0.1-0.1s-0.0447-0.1-0.1-0.1h-0.9v-0.9z" fill="#807F7F"/></g><path d="m8.6679 21.701v0.4992h-1.6679v-3.4917h1.6679v0.3771h3.2587l6.385-1.8854h2.6884v1.5083h-1.6803l-1.0081 2.6395-9.6437 0.353zm8.2995-2.1252c0 0.4165-0.3009 0.7541-0.6721 0.7541s-0.6721-0.3376-0.6721-0.7541 0.3009-0.7542 0.6721-0.7542 0.6721 0.3377 0.6721 0.7542z" clip-rule="evenodd" fill="#A5A1A1" fill-rule="evenodd"/><path d="m31.332 19.299v-0.4992h1.6679v3.4917h-1.6679v-0.3771h-3.2587l-6.385 1.8854h-2.6884v-0.3l2.6884-3.8478h5.3615l4.2822-0.353zm-8.2995 2.1252c0-0.4165 0.3009-0.7541 0.6721-0.7541s0.6721 0.3376 0.6721 0.7541-0.3009 0.7542-0.6721 0.7542-0.6721-0.3377-0.6721-0.7542z" clip-rule="evenodd" fill="#A5A1A1" fill-rule="evenodd"/><path d="m20.01 28.3c4.7773 0 8.65-3.8727 8.65-8.65s-3.8727-8.65-8.65-8.65-8.65 3.8727-8.65 8.65 3.8727 8.65 8.65 8.65z" fill="#FFF500" opacity=".45" stroke="#fff" stroke-width=".5"/><path d="m14.671 21.455c-0.0868-0.3553-0.1301-0.7322-0.1301-1.1198 0-0.323 0.0325-0.646 0.0975-0.9475l-1.9078-0.3876c-0.0867 0.4307-0.1301 0.8829-0.1301 1.3459 0 0.4845 0.0867 1.2598 0.1951 1.712l1.897-0.5922-0.0216-0.0108zm-1.3551 1.9166c1.1057 2.1534 3.3713 3.6285 5.9729 3.6285 0.4445 0 0.8889-0.0431 1.3117-0.1292l-0.4228-1.895c-0.2818 0.0538-0.5853 0.0861-0.878 0.0861-1.7886 0-3.3496-0.9798-4.1626-2.4334l-1.8212 0.7322v0.0108z" fill="#fff" opacity=".6"/></g></svg>
