<?xml version="1.0" encoding="UTF-8"?>
<svg width="147.6" height="81" version="1.1" xmlns="http://www.w3.org/2000/svg">
	<g id="icon" transform="translate(0 -971.36)">
		<g transform="matrix(0 1 -1 0 1054.6 976.44)">
			<path transform="translate(0 971.36)" d="m2.8125-64.25c-1.5704 0-2.8125 1.2421-2.8125 2.8125v27c-3.0997 0-5.625 2.4941-5.625 5.5938 0 3.0997 2.5253 5.625 5.625 5.625v12.094 14.906 5.625 11.344 15.656c3.0997 0 5.5938 2.5254 5.5938 5.625 0 3.0997-2.4941 5.5938-5.5938 5.5938v27c0 1.5704 1.2421 2.8125 2.8125 2.8125h27c0 3.0996 2.5253 5.625 5.625 5.625s5.5938-2.5254 5.5938-5.625h27c1.5704 0 2.8125-1.2421 2.8125-2.8125v-27c-3.0997 0-5.5938-2.494-5.5938-5.5938 0-3.0996 2.4941-5.625 5.5938-5.625v-12.094-14.906-5.625-18.438-8.5625c3.0996 0 5.625-2.5253 5.625-5.625 0-3.0996-2.5254-5.5938-5.625-5.5938v-27c0-1.5704-1.2421-2.8125-2.8125-2.8125h-27c0 3.0997-2.494 5.5938-5.5938 5.5938-3.0996 0-5.625-2.4941-5.625-5.5938h-27zm-2.8125 32.156c1.7945 0 3.25 1.4555 3.25 3.25 0 1.7945-1.4555 3.25-3.25 3.25-1.7945 0-3.25-1.4555-3.25-3.25 0-1.7945 1.4555-3.25 3.25-3.25zm70.844 0c1.7945 0 3.25 1.4555 3.25 3.25 0 1.7945-1.4555 3.25-3.25 3.25-1.7946 0-3.2188-1.4555-3.2188-3.25 0-1.7945 1.4242-3.25 3.2188-3.25zm-35.406 106.31c1.7945 0 3.25 1.4242 3.25 3.2188 0 1.7945-1.4555 3.25-3.25 3.25s-3.25-1.4555-3.25-3.25c0-1.7946 1.4555-3.2188 3.25-3.2188z" fill="#274a88"/>
			<g transform="matrix(0 -1.25 1.25 0 -1260 1062.5)" fill="#ffe500">
				<path id="connector3pin" d="m15.663 1029.8v-2.2677h2.2675v2.2677h-2.2675z"/>
				<path id="connector2pin" d="m17.931 1033.2v2.2677h-2.2676v-2.2677h2.2676z"/>
				<path id="connector1pin" d="m15.663 1038.9h2.2675v2.2677h-2.2675v-2.2677z"/>
				<path id="connector0pin" d="m15.663 1044.6h2.2675v2.2677h-2.2675v-2.2677z"/>
			</g>
			<g fill="#ffffff" font-family="OCRA" font-size="3.2">
				<text transform="matrix(0 -1.25 1.25 0 86.101 1081.4)" x="33.579144" y="-29.868372">GND</text>
				<text transform="matrix(0 -1.25 1.25 0 86.101 1081.4)" x="33.579144" y="-35.621315">VCC</text>
				<text transform="matrix(0 -1.25 1.25 0 86.101 1081.4)" x="33.579144" y="-41.37426">DIO</text>
				<text transform="matrix(0 -1.25 1.25 0 86.101 1081.4)" x="33.579144" y="-47.12721">CLK</text>
				<text transform="matrix(0 -1.25 1.25 0 100.27 1042.4)" x="33.579144" y="-29.868372">Grove - 4 Digit Display</text>
			</g>
		</g>
		<g transform="translate(26.56 993.43)">
	
			<polygon points="114.48 36.863 1 36.863 0 35.556 0 0 113.36 0 114.48 1" fill="#323232"/>
			<polygon points="21.329 6.808 10.545 6.808 8.89 4.318 9.718 3.491 22.16 3.491 22.989 4.318" fill="#ef1818"/>
			<polygon points="21.329 17.591 19.672 15.934 21.329 7.636 23.819 5.147 24.648 6.808 22.989 15.934" fill="#c7c7c7"/>
			<polygon points="18.842 30.863 17.184 29.205 18.842 20.912 21.329 18.42 22.16 20.078 20.501 29.205" fill="#c7c7c7"/>
			<g fill="#ef1818">
				<polygon points="5.569 29.205 16.354 29.205 18.013 31.691 17.184 32.521 4.74 32.521 3.91 31.689"/>
				<polygon points="5.569 18.42 7.228 20.078 5.569 28.373 3.08 30.863 2.252 29.205 3.91 20.078"/>
				<polygon points="8.058 5.147 9.718 6.808 8.058 15.104 5.569 17.591 4.74 15.934 6.4 6.808"/>
			</g>
			<polyline points="6.4 17.591 8.058 15.934 18.842 15.934 20.501 17.591 18.842 19.25 8.058 19.25" fill="#c7c7c7"/>
			<g fill="#ef1818">
				<polygon points="50.117 6.808 39.333 6.808 37.677 4.318 38.506 3.491 50.948 3.491 51.777 4.318"/>
				<polygon points="50.117 17.591 48.46 15.934 50.117 7.636 52.607 5.147 53.437 6.808 51.777 15.934"/>
				<polygon points="47.63 30.863 45.972 29.205 47.63 20.912 50.117 18.42 50.948 20.078 49.289 29.205"/>
				<polygon points="34.357 29.205 45.143 29.205 46.8 31.691 45.972 32.521 33.528 32.521 32.698 31.689"/>
				<polygon points="34.357 18.42 36.016 20.078 34.357 28.373 31.868 30.863 31.04 29.205 32.698 20.078"/>
				<polygon points="36.846 5.147 38.506 6.808 36.846 15.104 34.357 17.591 33.528 15.934 35.188 6.808"/>
			</g>
			<g fill="#c7c7c7">
				<polyline points="35.188 17.591 36.846 15.934 47.63 15.934 49.289 17.591 47.63 19.25 36.846 19.25"/>
				<circle cx="55.621" cy="24.308" r="1.748"/>
				<circle cx="57.58" cy="11.369" r="1.748"/>
			</g>
			<polygon points="78.917 6.808 68.133 6.808 66.477 4.318 67.306 3.491 79.748 3.491 80.577 4.318" fill="#ef1818"/>
			<polygon points="78.917 17.591 77.26 15.934 78.917 7.636 81.406 5.147 82.236 6.808 80.577 15.934" fill="#c7c7c7"/>
			<polygon points="76.43 30.863 74.771 29.205 76.43 20.912 78.917 18.42 79.748 20.078 78.089 29.205" fill="#c7c7c7"/>
			<g fill="#ef1818">
				<polygon points="63.157 29.205 73.941 29.205 75.6 31.691 74.771 32.521 62.328 32.521 61.498 31.689"/>
				<polygon points="63.157 18.42 64.815 20.078 63.157 28.373 60.668 30.863 59.84 29.205 61.498 20.078"/>
				<polygon points="65.646 5.147 67.306 6.808 65.646 15.104 63.157 17.591 62.328 15.934 63.988 6.808"/>
			</g>
			<polyline points="63.988 17.591 65.646 15.934 76.43 15.934 78.089 17.591 76.43 19.25 65.646 19.25" fill="#c7c7c7"/>
			<g fill="#ef1818">
				<polygon points="107.79 6.808 97.008 6.808 95.352 4.318 96.181 3.491 108.62 3.491 109.45 4.318"/>
				<polygon points="107.79 17.591 106.14 15.934 107.79 7.636 110.28 5.147 111.11 6.808 109.45 15.934"/>
				<polygon points="105.3 30.863 103.65 29.205 105.3 20.912 107.79 18.42 108.62 20.078 106.96 29.205"/>
				<polygon points="92.032 29.205 102.82 29.205 104.48 31.691 103.65 32.521 91.203 32.521 90.373 31.689"/>
				<polygon points="92.032 18.42 93.69 20.078 92.032 28.373 89.543 30.863 88.715 29.205 90.373 20.078"/>
				<polygon points="94.521 5.147 96.181 6.808 94.521 15.104 92.032 17.591 91.203 15.934 92.863 6.808"/>
			</g>
			<polyline points="92.863 17.591 94.521 15.934 105.3 15.934 106.96 17.591 105.3 19.25 94.521 19.25" fill="#c7c7c7"/>
			<polygon points="0 35.556 1 36.863 114.48 36.863 113.48 35.556" fill="#c7c7c7"/>
			<polygon points="114.48 36.863 114.48 1 113.36 0 113.36 35.556" fill="#aaa"/>
		</g>
	</g>
</svg>
