<?xml version="1.0" encoding="UTF-8"?>
<!-- Created with Inkscape (http://www.inkscape.org/) -->
<svg width="171" height="108" version="1.1" xmlns="http://www.w3.org/2000/svg" xmlns:cc="http://creativecommons.org/ns#" xmlns:dc="http://purl.org/dc/elements/1.1/" xmlns:rdf="http://www.w3.org/1999/02/22-rdf-syntax-ns#" xmlns:xlink="http://www.w3.org/1999/xlink">
 <defs>
  <linearGradient id="linearGradient4425">
   <stop stop-color="#131313" offset="0"/>
   <stop stop-color="#2f2f2f" offset=".47619"/>
   <stop stop-color="#161616" offset="1"/>
  </linearGradient>
  <linearGradient id="linearGradient6591" x1="92.126" x2="173.62" y1="485.43" y2="357.87" gradientTransform="matrix(-1 0 0 -1 170.08 751.18)" gradientUnits="userSpaceOnUse" xlink:href="#linearGradient4425"/>
  <linearGradient id="linearGradient6593" x1="7.0866" x2="162.99" y1="398.62" y2="398.62" gradientTransform="translate(-1.3386e-8 -46.063)" gradientUnits="userSpaceOnUse" xlink:href="#linearGradient4425"/>
  <linearGradient id="linearGradient6595" x1="92.126" x2="173.62" y1="485.43" y2="357.87" gradientTransform="translate(-1.3386e-8 -46.063)" gradientUnits="userSpaceOnUse">
   <stop stop-color="#514e4e" offset="0"/>
   <stop stop-color="#787474" offset=".47619"/>
   <stop stop-color="#4e4a4a" offset="1"/>
  </linearGradient>
  <linearGradient id="linearGradient6597" x1="53.15" x2="127.56" y1="336.61" y2="464.17" gradientTransform="translate(-1.3386e-8 -46.063)" gradientUnits="userSpaceOnUse">
   <stop stop-color="#131313" offset="0"/>
   <stop stop-color="#434343" offset=".47619"/>
   <stop stop-color="#221717" offset="1"/>
  </linearGradient>
 </defs>
 <metadata>
  <rdf:RDF>
   <cc:Work rdf:about="">
    <dc:format>image/svg+xml</dc:format>
    <dc:type rdf:resource="http://purl.org/dc/dcmitype/StillImage"/>
    <dc:title/>
   </cc:Work>
  </rdf:RDF>
 </metadata>
 <g transform="translate(0,-342)">
  <g id="icon">
   <g transform="translate(0 45.027)">
    <rect transform="translate(0 -602.36)" x="-1.3386e-8" y="903.54" width="170.08" height="102.76" fill-rule="evenodd" opacity=".9" stroke="#fff" stroke-dashoffset=".288" stroke-linecap="round" stroke-linejoin="round" stroke-opacity=".31373" stroke-width=".45"/>
    <g>
     <path d="m162.99 308.27h-155.91v88.583l10.63-10.63v-67.323h134.65z" color="#000000" fill="url(#linearGradient6591)" stroke="url(#linearGradient6593)" stroke-width=".09"/>
     <path d="m17.717 318.9-10.63-10.63" color="#000000" fill="none" stroke="#000" stroke-dashoffset=".288" stroke-linecap="round" stroke-miterlimit="3.9" stroke-width=".35433"/>
    </g>
    <g>
     <path d="m7.0866 396.85h155.91v-88.583l-10.63 10.63v67.323h-134.65z" color="#000000" fill="url(#linearGradient6595)"/>
     <path d="m152.36 386.22 10.63 10.63" color="#000000" fill="none" stroke="#000" stroke-dashoffset=".288" stroke-linecap="round" stroke-width=".35433"/>
    </g>
    <path d="m3.5433 400.39v-95.669h162.99v95.669z" color="#000000" fill="none" stroke="url(#linearGradient6597)" stroke-dashoffset=".288" stroke-linecap="round" stroke-width="7.0866"/>
   </g>
   <path d="m27.278 419.55-2.475-2.475 2.7-16.875 3.15-2.025 1.8 2.25-2.7 16.875z" color="#000000" fill="#333"/>
   <path d="m28.178 420.45 2.7-2.475h16.65l1.8 2.475-2.7 2.475h-16.65z" color="#000000" fill="#333"/>
   <path d="m31.553 397.27 2.925-2.475h16.65l1.8 2.475-2.7 2.475h-16.65z" color="#000000" fill="#333"/>
   <path d="m30.653 396.37-2.25-2.475 2.7-17.1 2.025-1.8 2.925 2.475-2.7 16.65z" color="#000000" fill="#333"/>
   <path d="m34.253 374.1 2.25-2.475h18.45l1.8 2.475-2.7 2.475h-17.1z" color="#000000" fill="#333"/>
   <path d="m57.428 375.22 2.025 2.475-2.475 16.65-2.925 2.25-2.025-2.925 2.475-15.75z" color="#000000" fill="#333"/>
   <path d="m54.053 398.17 2.025 2.475-2.7 16.875-2.925 2.25-2.025-2.7 2.475-15.975z" color="#000000" fill="#333"/>
   <path d="m72.009 419.55-2.475-2.475 2.7-16.875 3.15-2.025 1.8 2.25-2.7 16.875z" color="#000000" fill="#2ad4ff"/>
   <path d="m72.909 420.45 2.7-2.475h16.65l1.8 2.475-2.7 2.475h-16.65z" color="#000000" fill="#0cf"/>
   <path d="m76.284 397.27 2.925-2.475h16.65l1.8 2.475-2.7 2.475h-16.65z" color="#000000" fill="#0cf"/>
   <path d="m75.384 396.37-2.25-2.475 2.7-17.1 2.025-1.8 2.925 2.475-2.7 16.65z" color="#000000" fill="#333"/>
   <path d="m78.984 374.1 2.25-2.475h18.45l1.8 2.475-2.7 2.475h-17.1z" color="#000000" fill="#0cf"/>
   <path d="m102.16 375.22 2.025 2.475-2.475 16.65-2.925 2.25-2.025-2.925 2.475-15.75z" color="#000000" fill="#2ad4ff"/>
   <path d="m98.784 398.17 2.025 2.475-2.7 16.875-2.925 2.25-2.025-2.7 2.475-15.975z" color="#000000" fill="#333"/>
   <path d="m116.57 419.55-2.475-2.475 2.7-16.875 3.15-2.025 1.8 2.25-2.7 16.875z" color="#000000" fill="#333"/>
   <path d="m117.47 420.45 2.7-2.475h16.65l1.8 2.475-2.7 2.475h-16.65z" color="#000000" fill="#2ad4ff"/>
   <path d="m120.84 397.27 2.925-2.475h16.65l1.8 2.475-2.7 2.475h-16.65z" color="#000000" fill="#2ad4ff"/>
   <path d="m119.94 396.37-2.25-2.475 2.7-17.1 2.025-1.8 2.925 2.475-2.7 16.65z" color="#000000" fill="#2ad4ff"/>
   <path d="m123.54 374.1 2.25-2.475h18.45l1.8 2.475-2.7 2.475h-17.1z" color="#000000" fill="#2ad4ff"/>
   <path d="m146.72 375.22 2.025 2.475-2.475 16.65-2.925 2.25-2.025-2.925 2.475-15.75z" color="#000000" fill="#333"/>
   <path d="m143.34 398.17 2.025 2.475-2.7 16.875-2.925 2.25-2.025-2.7 2.475-15.975z" color="#000000" fill="#2ad4ff"/>
   <path transform="translate(10.35 384.32)" d="m95.4 36a2.475 2.475 0 1 1-4.95 0 2.475 2.475 0 1 1 4.95 0z" fill="#333" fill-rule="evenodd"/>
  </g>
 </g>
</svg>
