<?xml version="1.0" encoding="UTF-8"?>
<!-- Generator: Adobe Illustrator 20.0.0, SVG Export Plug-In . SVG Version: 6.00 Build 0)  -->
<svg width=".65in" height=".65in" baseProfile="tiny" version="1.2" viewBox="0 0 46.8 46.8" xml:space="preserve" xmlns="http://www.w3.org/2000/svg" xmlns:xml="http://www.w3.org/XML/1998/namespace">
    <desc>
        <referenceFile>9dof rev a_breadboard.svg</referenceFile>
    </desc>
    <desc>Fritzing breadboard generated by brd2svg</desc>
    <g id="breadboard">
        <g id="icon">
            <path d="m0 23.4c-2e-3 -12.923 10.473-23.402 23.396-23.404s23.402 10.473 23.404 23.396v8e-3c2e-3 12.923-10.473 23.402-23.396 23.404s-23.402-10.473-23.404-23.396v-8e-3zm21.699-19.8c0 0.939 0.761 1.701 1.701 1.701s1.701-0.761 1.701-1.701-0.762-1.701-1.701-1.701-1.701 0.762-1.701 1.701zm17.28 9.72c0 0.939 0.761 1.701 1.701 1.701s1.701-0.761 1.701-1.701c0-0.939-0.761-1.701-1.701-1.701s-1.701 0.762-1.701 1.701zm-34.56 0c0 0.939 0.761 1.701 1.701 1.701s1.701-0.761 1.701-1.701-0.761-1.701-1.701-1.701-1.701 0.762-1.701 1.701zm34.56 20.16c0 0.939 0.761 1.701 1.701 1.701s1.701-0.761 1.701-1.701-0.761-1.701-1.701-1.701-1.701 0.762-1.701 1.701zm-34.56 0c0 0.939 0.761 1.701 1.701 1.701s1.701-0.761 1.701-1.701-0.761-1.701-1.701-1.701-1.701 0.762-1.701 1.701zm17.28 9.72c0 0.939 0.761 1.701 1.701 1.701s1.701-0.761 1.701-1.701c0-0.939-0.761-1.701-1.701-1.701s-1.701 0.762-1.701 1.701z" fill="#0A0A0A"/>
            <g>
                <title>layer 21</title>
                <circle cx="4.32" cy="22.32" r="2.88" fill="none" stroke="#fff" stroke-width=".72"/>
                <g>
                    <title>polygon</title>
                    <path d="m7.56 22.657v-0.72h1.8v-0.72l1.44 1.08-1.44 1.08v-0.72h-1.8m1.8 0.023h0.93-0.93m-1.8-0.72h2.79-2.79" fill="none" stroke="#fff" stroke-linecap="round" stroke-width=".72"/>
                </g>
                <g>
                    <title>polygon</title>
                    <path d="m3.96 25.537h0.72v1.8h0.72l-1.08 1.44-1.08-1.44h0.72v-1.8m0.107 2.903h0.506-0.506m-0.54-0.72h1.586-1.586m0.433-0.72h0.72-0.72m0-0.72h0.72-0.72" fill="none" stroke="#fff" stroke-linecap="round" stroke-width=".72"/>
                </g>
                <g>
                    <title>text:Y</title>
                    <g transform="translate(8.3846 20.396)">
                        
                            <text fill="#FFFFFF" font-family="'OCRA'" font-size="2.6726">Y</text>
                        
                    </g>
                </g>
                <g>
                    <title>text:X</title>
                    <g transform="translate(6.2617 29.598)">
                        
                            <text fill="#FFFFFF" font-family="'OCRA'" font-size="2.6726">X</text>
                        
                    </g>
                </g>
                <g>
                    <title>text:Z</title>
                    <g transform="translate(3.2401 23.542)">
                        
                            <text fill="#FFFFFF" font-family="'OCRA'" font-size="2.6726">Z</text>
                        
                    </g>
                </g>
                <g>
                    <title>text:3V</title>
                    <g transform="translate(28.787 45.59)">
                        
                            
                                <g transform="rotate(60)">
                                    
                                        
                                            <g transform="translate(-4.5557 -.2261)">
                                                
                                                    <text fill="#FFFFFF" font-family="'OCRA'" font-size="2.6726">3V</text>
                                                
                                            </g>
                                        
                                    
                                </g>
                            
                        
                    </g>
                </g>
                <g>
                    <title>text:gnd</title>
                    <g transform="translate(19.427 8.8704)">
                        
                            
                                <g transform="rotate(60)">
                                    
                                        
                                            <g transform="translate(-7.2603 -.3922)">
                                                
                                                    <text fill="#FFFFFF" font-family="'OCRA'" font-size="2.6726">gnd</text>
                                                
                                            </g>
                                        
                                    
                                </g>
                            
                        
                    </g>
                </g>
                <g>
                    <title>text:SCL</title>
                    <g transform="translate(38.52 19.91)">
                        
                            <text fill="#FFFFFF" font-family="'OCRA'" font-size="2.6726">SCL</text>
                        
                    </g>
                </g>
                <g>
                    <title>text:SDA</title>
                    <g transform="translate(38.16 29.52)">
                        
                            <text fill="#FFFFFF" font-family="'OCRA'" font-size="2.6726">SDA</text>
                        
                    </g>
                </g>
                <g>
                    <title>text:SCL</title>
                    <g transform="translate(10.427 13.91)">
                        
                            
                                <g transform="rotate(60)">
                                    
                                        
                                            <g transform="translate(-7.2456 -.4278)">
                                                
                                                    <text fill="#FFFFFF" font-family="'OCRA'" font-size="2.6726">SCL</text>
                                                
                                            </g>
                                        
                                    
                                </g>
                            
                        
                    </g>
                </g>
                <g>
                    <title>text:SDA</title>
                    <g transform="translate(13.45 43.933)">
                        
                            
                                <g transform="rotate(30)">
                                    
                                        
                                            <g transform="translate(-7.9003 -.6326)">
                                                
                                                    <text fill="#FFFFFF" font-family="'OCRA'" font-size="2.6726">SDA</text>
                                                
                                            </g>
                                        
                                    
                                </g>
                            
                        
                    </g>
                </g>
                <g>
                    <title>text:9DOF</title>
                    <g transform="translate(15.48 27.72)">
                        
                            
                                <g transform="rotate(270)">
                                    
                                        
                                            <g transform="translate(.00027244 -1.9531e-5)">
                                                
                                                    <text fill="#FFFFFF" font-family="'OCRA'" font-size="2.6726">9DOF</text>
                                                
                                            </g>
                                        
                                    
                                </g>
                            
                        
                    </g>
                </g>
                <g>
                    <title>element:C2</title>
                    <g>
                        <title>package:0805_10MGAP</title>
                        <line x1="32.4" x2="35.28" y1="28.08" y2="28.08" fill="none" stroke="#fff" stroke-linecap="round" stroke-width=".864"/>
                    </g>
                </g>
                <g>
                    <title>element:C6</title>
                    <g>
                        <title>package:0805-NO</title>
                        <line x1="23.76" x2="23.76" y1="14.04" y2="11.16" fill="none" stroke="#fff" stroke-linecap="round" stroke-width=".864"/>
                    </g>
                </g>
                <g>
                    <title>element:C7</title>
                    <g>
                        <title>package:0805-NO</title>
                        <line x1="35.28" x2="32.4" y1="18" y2="18" fill="none" stroke="#fff" stroke-linecap="round" stroke-width=".864"/>
                    </g>
                </g>
                <g>
                    <title>element:FID1</title>
                    <g>
                        <title>package:FIDUCIAL_1MM</title>
                    </g>
                </g>
                <g>
                    <title>element:FID2</title>
                    <g>
                        <title>package:FIDUCIAL_1MM</title>
                    </g>
                </g>
                <g>
                    <title>element:GND</title>
                    <g>
                        <title>package:SEWINGTAP_0.5</title>
                    </g>
                </g>
                <g>
                    <title>element:R1</title>
                    <g>
                        <title>package:RESPACK_4X0603</title>
                        <line x1="19.454" x2="19.454" y1="38.889" y2="30.951" fill="none" stroke="#fff" stroke-linecap="round" stroke-width=".576"/>
                        <line x1="30.226" x2="30.226" y1="30.951" y2="38.889" fill="none" stroke="#fff" stroke-linecap="round" stroke-width=".576"/>
                    </g>
                </g>
                <g>
                    <title>element:SCL1</title>
                    <g>
                        <title>package:SEWINGTAP_0.5</title>
                    </g>
                </g>
                <g>
                    <title>element:SCL2</title>
                    <g>
                        <title>package:SEWINGTAP_0.5</title>
                    </g>
                </g>
                <g>
                    <title>element:SDA1</title>
                    <g>
                        <title>package:SEWINGTAP_0.5</title>
                    </g>
                </g>
                <g>
                    <title>element:SDA2</title>
                    <g>
                        <title>package:SEWINGTAP_0.5</title>
                    </g>
                </g>
                <g>
                    <title>element:U$4</title>
                    <g>
                        <title>package:ADAFRUIT_2.5MM</title>
                    </g>
                </g>
                <g>
                    <title>element:U2</title>
                    <g>
                        <title>package:LGA24_4X4MM</title>
                        <line x1="17.447" x2="17.447" y1="29.353" y2="17.447" fill="none" stroke="#fff" stroke-linecap="round" stroke-width=".36"/>
                        <line x1="17.447" x2="29.353" y1="17.447" y2="17.447" fill="none" stroke="#fff" stroke-linecap="round" stroke-width=".36"/>
                        <line x1="29.353" x2="29.353" y1="17.447" y2="29.353" fill="none" stroke="#fff" stroke-linecap="round" stroke-width=".36"/>
                        <line x1="29.353" x2="17.447" y1="29.353" y2="29.353" fill="none" stroke="#fff" stroke-linecap="round" stroke-width=".36"/>
                        <circle cx="31.053" cy="28.502" r=".634" fill="#fff"/>
                    </g>
                </g>
                <g>
                    <title>element:VCC</title>
                    <g>
                        <title>package:SEWINGTAP_0.5</title>
                    </g>
                </g>
            </g>
            <g transform="matrix(0 -1 1 0 2.7836 64.896)">
                
                    
                        <g transform="matrix(-2.5352e-6 -1 1 -2.5352e-6 2.7837 64.896)">
                            
                                <rect id="connector0pin" x="31.714" y="29.356" width="4.252" height="3.402" fill="#9A916C"/>
                            
                        </g>
                    
                
            </g>
            <g transform="matrix(0 -1 1 0 8.7364 58.944)">
                
                    
                        <g transform="matrix(-2.5352e-6 -1 1 -2.5352e-6 8.7365 58.944)">
                            
                                <rect id="connector1pin" x="31.714" y="23.403" width="4.252" height="3.402" fill="#9A916C"/>
                            
                        </g>
                    
                
            </g>
            <g transform="matrix(-1 0 0 -1 52.906 25.2)">
                
                    
                        <rect id="connector2pin" x="24.61" y="10.474" width="3.685" height="4.252" fill="#9A916C"/>
                    
                
            </g>
            <g transform="matrix(-1 0 0 -1 42.134 25.2)">
                
                    
                        <rect id="connector3pin" x="19.225" y="10.474" width="3.685" height="4.252" fill="#9A916C"/>
                    
                
            </g>
            <g transform="matrix(0 1 -1 0 49.147 -18.533)">
                
                    
                        <g transform="matrix(2.5352e-6 1 -1 2.5352e-6 49.147 -18.533)">
                            
                                <rect id="connector4pin" x="31.714" y="13.465" width="4.252" height="3.685" fill="#9A916C"/>
                            
                        </g>
                    
                
            </g>
            <g transform="matrix(0 1 -1 0 54.533 -13.147)">
                
                    
                        <g transform="matrix(2.5352e-6 1 -1 2.5352e-6 54.533 -13.147)">
                            
                                <rect id="connector5pin" x="31.714" y="18.85" width="4.252" height="3.685" fill="#9A916C"/>
                            
                        </g>
                    
                
            </g>
            <path id="connector6pin" d="m14.4 5.423c0.783 0 1.417 0.635 1.417 1.417 0 0.783-0.635 1.417-1.417 1.417-0.783 0-1.417-0.635-1.417-1.417 0-0.783 0.634-1.417 1.417-1.417z" fill="#9A916C"/>
            <path id="connector7pin" d="m33.84 38.183c0.783 0 1.417 0.635 1.417 1.417 0 0.783-0.635 1.417-1.417 1.417-0.783 0-1.417-0.635-1.417-1.417 0-0.783 0.634-1.417 1.417-1.417z" fill="#9A916C"/>
            <circle id="connector8pin" cx="23.4" cy="3.6" r="2.398" fill="none" stroke="#9A916C" stroke-width="1.3952"/>
            <g transform="matrix(-1 0 0 -1 57.05 65.021)">
                
                    
                        <rect id="connector9pin" x="27.887" y="31.235" width="1.276" height="2.551" fill="#9A916C"/>
                    
                
            </g>
            <g transform="matrix(-1 0 0 -1 51.948 65.021)">
                
                    
                        <rect id="connector10pin" x="25.336" y="31.235" width="1.276" height="2.551" fill="#9A916C"/>
                    
                
            </g>
            <g transform="matrix(-1 0 0 -1 47.412 65.021)">
                
                    
                        <rect id="connector11pin" x="23.068" y="31.235" width="1.276" height="2.551" fill="#9A916C"/>
                    
                
            </g>
            <g transform="matrix(-1 0 0 -1 42.31 65.021)">
                
                    
                        <rect id="connector12pin" x="20.517" y="31.235" width="1.276" height="2.551" fill="#9A916C"/>
                    
                
            </g>
            <g transform="matrix(-1 0 0 -1 42.31 74.659)">
                
                    
                        <rect id="connector13pin" x="20.517" y="36.054" width="1.276" height="2.551" fill="#9A916C"/>
                    
                
            </g>
            <g transform="matrix(-1 0 0 -1 47.412 74.659)">
                
                    
                        <rect id="connector14pin" x="23.068" y="36.054" width="1.276" height="2.551" fill="#9A916C"/>
                    
                
            </g>
            <g transform="matrix(-1 0 0 -1 51.948 74.659)">
                
                    
                        <rect id="connector15pin" x="25.336" y="36.054" width="1.276" height="2.551" fill="#9A916C"/>
                    
                
            </g>
            <g transform="matrix(-1 0 0 -1 57.05 74.659)">
                
                    
                        <rect id="connector16pin" x="27.887" y="36.054" width="1.276" height="2.551" fill="#9A916C"/>
                    
                
            </g>
            <circle id="connector17pin" cx="40.68" cy="13.32" r="2.398" fill="none" stroke="#9A916C" stroke-width="1.3952"/>
            <circle id="connector18pin" cx="6.12" cy="13.32" r="2.398" fill="none" stroke="#9A916C" stroke-width="1.3952"/>
            <circle id="connector19pin" cx="40.68" cy="33.48" r="2.398" fill="none" stroke="#9A916C" stroke-width="1.3952"/>
            <circle id="connector20pin" cx="6.12" cy="33.48" r="2.398" fill="none" stroke="#9A916C" stroke-width="1.3952"/>
            <circle id="connector45pin" cx="23.4" cy="43.2" r="2.398" fill="none" stroke="#9A916C" stroke-width="1.3952"/>
        </g>
        <g transform="translate(31.006 26.308)">
            
                
                    <g transform="matrix(0 -1 1 0 1.063 4.606)">
                        
                            
                                <path d="M5.386,3.543H0.283C0.127,3.543,0,3.416,0,3.26V0.283C0,0.127,0.127,0,0.283,0h5.102c0.157,0,0.283,0.127,0.283,0.283V3.26C5.669,3.416,5.542,3.543,5.386,3.543z" fill="#DCDCDC"/>
                                <g transform="matrix(-2.5352e-6 -1 1 -2.5352e-6 1.063 4.606)">
                                    
                                        <rect x="1.063" width="3.543" height="3.543" fill="#6E554B"/>
                                    
                                </g>
                            
                        
                    </g>
                
            
        </g>
        <g transform="translate(20.926 10.828)">
            
                
                    <g transform="matrix(-1 0 0 -1 5.669 3.543)">
                        
                            
                                <path d="M5.386,3.543H0.283C0.127,3.543,0,3.416,0,3.26V0.283C0,0.127,0.127,0,0.283,0h5.102c0.157,0,0.283,0.127,0.283,0.283V3.26C5.669,3.416,5.542,3.543,5.386,3.543z" fill="#DCDCDC"/>
                                <rect x="1.063" width="3.543" height="3.543" fill="#6E554B"/>
                            
                        
                    </g>
                
            
        </g>
        <g transform="translate(31.006 16.228)">
            
                
                    <g transform="matrix(0 1 -1 0 4.606 -1.063)">
                        
                            
                                <path d="M5.386,3.543H0.283C0.127,3.543,0,3.416,0,3.26V0.283C0,0.127,0.127,0,0.283,0h5.102c0.157,0,0.283,0.127,0.283,0.283V3.26C5.669,3.416,5.542,3.543,5.386,3.543z" fill="#DCDCDC"/>
                                <g transform="matrix(2.5352e-6 1 -1 2.5352e-6 4.606 -1.063)">
                                    
                                        <rect x="1.063" width="3.543" height="3.543" fill="#6E554B"/>
                                    
                                </g>
                            
                        
                    </g>
                
            
        </g>
        <g transform="translate(19.148 -.12015)">
            
                
                    <path d="M4.252,7.164c2.426-0.558,4.252-3.201,4.252-6.115c0-0.129-0.022-0.251-0.029-0.378c-1.37-0.25-2.78-0.388-4.222-0.388S1.4,0.421,0.029,0.671C0.022,0.798,0,0.92,0,1.049C0,3.963,1.826,6.606,4.252,7.164z M4.252,2.336c0.855,0,1.548,0.693,1.548,1.548S5.107,5.432,4.252,5.432S2.704,4.738,2.704,3.883C2.704,3.029,3.397,2.336,4.252,2.336z" fill="#9A916C"/>
                
            
        </g>
        <g transform="translate(20.304 32.652)">
            
                
                    <g transform="matrix(-1 0 0 -1 9.071 4.535)">
                        
                            
                                
                                    <rect width="1.843" height="4.535" fill="#DCDCDC"/>
                                    <rect x="2.693" width="1.417" height="4.535" fill="#DCDCDC"/>
                                    <rect x="4.961" width="1.417" height="4.535" fill="#DCDCDC"/>
                                    <rect x="7.228" width="1.843" height="4.535" fill="#DCDCDC"/>
                                    <rect y=".85" width="9.071" height="2.835" fill="#303030"/>
                                
                            
                        
                    </g>
                
            
        </g>
        <g transform="translate(36.548 9.669)">
            
                
                    <g transform="matrix(.5 .86602 -.86602 .5 5.2281 -1.8913)">
                        
                            
                                <path d="m4.252 7.164c2.426-0.558 4.252-3.201 4.252-6.115 0-0.129-0.022-0.251-0.029-0.378-1.37-0.25-2.78-0.388-4.222-0.388s-2.853 0.138-4.224 0.388c-7e-3 0.127-0.029 0.249-0.029 0.378 0 2.914 1.826 5.557 4.252 6.115zm0-4.828c0.855 0 1.548 0.693 1.548 1.548s-0.693 1.548-1.548 1.548-1.548-0.694-1.548-1.549c0-0.854 0.693-1.547 1.548-1.547z" fill="#9A916C"/>
                            
                        
                    </g>
                
            
        </g>
        <g transform="translate(1.7484 9.669)">
            
                
                    <g transform="matrix(.5 -.86602 .86602 .5 -.9761 5.4733)">
                        
                            
                                <path d="m4.252 7.164c2.426-0.558 4.252-3.201 4.252-6.115 0-0.129-0.022-0.251-0.029-0.378-1.37-0.25-2.78-0.388-4.222-0.388s-2.853 0.138-4.224 0.388c-7e-3 0.127-0.029 0.249-0.029 0.378 0 2.914 1.826 5.557 4.252 6.115zm0-4.828c0.855 0 1.548 0.693 1.548 1.548s-0.693 1.548-1.548 1.548-1.548-0.694-1.548-1.549c0-0.854 0.693-1.547 1.548-1.547z" fill="#9A916C"/>
                            
                        
                    </g>
                
            
        </g>
        <g transform="translate(36.548 29.967)">
            
                
                    <g transform="matrix(-.5 .86602 -.86602 -.5 9.4801 1.6907)">
                        
                            
                                <path d="m4.252 7.164c2.426-0.558 4.252-3.201 4.252-6.115 0-0.129-0.022-0.251-0.029-0.378-1.37-0.25-2.78-0.388-4.222-0.388s-2.853 0.138-4.224 0.388c-7e-3 0.127-0.029 0.249-0.029 0.378 0 2.914 1.826 5.557 4.252 6.115zm0-4.828c0.855 0 1.548 0.693 1.548 1.548s-0.693 1.548-1.548 1.548-1.548-0.694-1.548-1.549c0-0.854 0.693-1.547 1.548-1.547z" fill="#9A916C"/>
                            
                        
                    </g>
                
            
        </g>
        <g transform="translate(1.7484 29.967)">
            
                
                    <g transform="matrix(-.5 -.86602 .86602 -.5 3.2759 9.0554)">
                        
                            
                                <path d="m4.252 7.164c2.426-0.558 4.252-3.201 4.252-6.115 0-0.129-0.022-0.251-0.029-0.378-1.37-0.25-2.78-0.388-4.222-0.388s-2.853 0.138-4.224 0.388c-7e-3 0.127-0.029 0.249-0.029 0.378 0 2.914 1.826 5.557 4.252 6.115zm0-4.828c0.855 0 1.548 0.693 1.548 1.548s-0.693 1.548-1.548 1.548-1.548-0.694-1.548-1.549c0-0.854 0.693-1.547 1.548-1.547z" fill="#9A916C"/>
                            
                        
                    </g>
                
            
        </g>
        <g transform="translate(26.645 3.5436)">
            
                
                    <path d="m9.747 3.082c-0.023-0.142-0.1-0.183-0.286-0.243-0.142-0.045-1.089-0.347-1.089-0.347s-0.66-0.249-1.15 0.103c-0.066 0.048-0.134 0.102-0.203 0.16 0.058-0.069 0.112-0.137 0.159-0.203 0.352-0.49 0.101-1.15 0.101-1.15s-0.303-0.947-0.349-1.089c-0.06-0.186-0.1-0.263-0.243-0.285-0.142-0.023-0.204 0.038-0.318 0.197-0.087 0.12-0.667 0.928-0.667 0.928s-0.441 0.551-0.257 1.126c0.025 0.077 0.055 0.159 0.089 0.242-0.048-0.076-0.096-0.149-0.144-0.214-0.358-0.486-1.062-0.452-1.062-0.452s-0.995-4e-3 -1.143-4e-3c-0.195 0-0.281 0.014-0.347 0.143-0.065 0.128-0.027 0.206 0.089 0.364 0.088 0.12 0.677 0.921 0.677 0.921s0.388 0.59 0.991 0.592c0.081 0 0.168-3e-3 0.257-0.01-0.087 0.022-0.171 0.046-0.248 0.071-0.573 0.19-0.758 0.871-0.758 0.871s-0.31 0.944-0.357 1.085c-0.061 0.186-0.073 0.272 0.029 0.374s0.188 0.09 0.374 0.028c0.141-0.046 1.085-0.359 1.085-0.359s0.681-0.187 0.869-0.76c0.025-0.077 0.049-0.16 0.07-0.247-6e-3 0.09-9e-3 0.176-9e-3 0.257 4e-3 0.603 0.594 0.99 0.594 0.99s0.802 0.588 0.922 0.675c0.158 0.116 0.236 0.154 0.365 0.089 0.128-0.066 0.143-0.152 0.142-0.347-1e-3 -0.149-6e-3 -1.143-6e-3 -1.143s0.033-0.705-0.454-1.062c-0.065-0.048-0.138-0.096-0.214-0.143 0.083 0.034 0.165 0.064 0.242 0.088 0.575 0.183 1.125-0.259 1.125-0.259s0.807-0.581 0.927-0.668c0.159-0.115 0.219-0.177 0.197-0.319zm-3.425-0.732c0.108 0.017 0.162 0.248 0.12 0.515s-0.164 0.47-0.273 0.453c-0.108-0.017-0.162-0.248-0.12-0.515 0.042-0.268 0.164-0.471 0.273-0.453zm-1.389 0.709c0.05-0.098 0.286-0.078 0.527 0.045s0.397 0.302 0.347 0.399c-0.05 0.098-0.286 0.078-0.527-0.045-0.242-0.123-0.397-0.301-0.347-0.399zm0.732 1.334c-0.191 0.191-0.409 0.284-0.487 0.206-0.077-0.078 0.015-0.296 0.206-0.487 0.191-0.192 0.409-0.285 0.487-0.207s-0.014 0.296-0.206 0.488zm1.054 0.449c-0.098 0.05-0.277-0.105-0.4-0.346-0.123-0.242-0.144-0.478-0.046-0.528s0.277 0.105 0.4 0.346c0.123 0.242 0.144 0.478 0.046 0.528zm0.254-1.117c-0.267 0.042-0.498-0.011-0.516-0.119-0.017-0.109 0.186-0.231 0.453-0.274s0.498 0.011 0.515 0.119c0.018 0.109-0.185 0.231-0.452 0.274z" fill="#DCDCDC"/>
                
            
        </g>
        <g transform="translate(19.096 17.82)">
            
                
                    <g transform="matrix(0 -1 1 0 0 11.339)">
                        
                            
                                <g transform="matrix(-2.5352e-6 -1 1 -2.5352e-6 1.455 10.063)">
                                    
                                        <rect x=".09" y="-1.365" width="11.339" height="11.339" fill="#333"/>
                                    
                                </g>
                            
                        
                    </g>
                
            
        </g>
        <g transform="translate(19.148 39.756)">
            
                
                    <g transform="matrix(-1 0 0 -1 8.504 7.164)">
                        
                            
                                <path d="M4.252,7.164c2.426-0.558,4.252-3.201,4.252-6.115c0-0.129-0.022-0.251-0.029-0.378c-1.37-0.25-2.78-0.388-4.222-0.388S1.4,0.421,0.029,0.671C0.022,0.798,0,0.92,0,1.049C0,3.963,1.826,6.606,4.252,7.164z M4.252,2.336c0.855,0,1.548,0.693,1.548,1.548S5.107,5.432,4.252,5.432S2.704,4.738,2.704,3.883C2.704,3.029,3.397,2.336,4.252,2.336z" fill="#9A916C"/>
                            
                        
                    </g>
                
            
        </g>
    </g>
</svg>
