<?xml version="1.0" encoding="UTF-8"?>
<!-- Generator: Adobe Illustrator 20.0.0, SVG Export Plug-In . SVG Version: 6.00 Build 0)  -->
<svg width=".7in" height=".6in" baseProfile="tiny" version="1.2" viewBox="0 0 50.4 43.2" xml:space="preserve" xmlns="http://www.w3.org/2000/svg" xmlns:xml="http://www.w3.org/XML/1998/namespace">
    <desc>
        <referenceFile>Adafruit HDC1008 Temperature Humidity Sensor_breadboard.svg</referenceFile>
    </desc>
    <desc>Fritzing breadboard generated by brd2svg</desc>
    <g id="breadboard">
        <g id="icon">
            <path d="m50.4 7.2v28.8c0 3.976-3.224 7.2-7.2 7.2h-36c-3.976 0-7.2-3.224-7.2-7.2v-28.8c0-3.976 3.224-7.2 7.2-7.2h36c3.976 0 7.2 3.224 7.2 7.2m-5.017 29.52c0 0.783 0.635 1.417 1.417 1.417 0.783 0 1.417-0.635 1.417-1.417s-0.635-1.417-1.417-1.417-1.417 0.634-1.417 1.417zm-7.2 0c0 0.783 0.635 1.417 1.417 1.417s1.417-0.635 1.417-1.417-0.635-1.417-1.417-1.417-1.417 0.634-1.417 1.417zm-7.2 0c0 0.783 0.635 1.417 1.417 1.417 0.783 0 1.417-0.635 1.417-1.417s-0.635-1.417-1.417-1.417c-0.783 0-1.417 0.634-1.417 1.417zm-7.2 0c0 0.783 0.635 1.417 1.417 1.417 0.783 0 1.417-0.635 1.417-1.417s-0.635-1.417-1.417-1.417c-0.783 0-1.417 0.634-1.417 1.417zm-7.2 0c0 0.783 0.635 1.417 1.417 1.417 0.783 0 1.417-0.635 1.417-1.417s-0.634-1.417-1.417-1.417-1.417 0.634-1.417 1.417zm-7.2 0c0 0.783 0.635 1.417 1.417 1.417s1.417-0.635 1.417-1.417-0.635-1.417-1.417-1.417-1.417 0.634-1.417 1.417zm-7.2 0c0 0.783 0.635 1.417 1.417 1.417s1.417-0.635 1.417-1.417-0.634-1.417-1.417-1.417-1.417 0.634-1.417 1.417zm1.474-29.52c-3e-3 1.957 1.58 3.546 3.537 3.549s3.546-1.58 3.549-3.537v-0.012c3e-3 -1.957-1.58-3.546-3.537-3.549-1.957-4e-3 -3.546 1.58-3.549 3.537v0.012zm36 0c-3e-3 1.957 1.58 3.546 3.537 3.55s3.546-1.58 3.55-3.537v-0.012c3e-3 -1.957-1.58-3.546-3.537-3.55-1.957-3e-3 -3.546 1.58-3.55 3.537v0.012z" fill="#014CB1"/>
            <g>
                <title>layer 21</title>
                <g>
                    <title>text:HDC100x
Humidity
&amp;Temp</title>
                    <g transform="translate(0 -3.7584)">
                        
                            
                                <g transform="translate(16.05 9.4392)">
                                    
                                        <text fill="#FFFFFF" font-family="'OCRA'" font-size="3.0067">HDC100x</text>
                                    
                                </g>
                            
                        
                    </g>
                    <g transform="translate(0)">
                        
                            
                                <g transform="translate(14.691 9.4392)">
                                    
                                        <text fill="#FFFFFF" font-family="'OCRA'" font-size="3.0067">Humidity</text>
                                    
                                </g>
                            
                        
                    </g>
                    <g transform="translate(0 3.7584)">
                        
                            
                                <g transform="translate(18.767 9.4392)">
                                    
                                        <text fill="#FFFFFF" font-family="'OCRA'" font-size="3.0067">&amp;Temp</text>
                                    
                                </g>
                            
                        
                    </g>
                </g>
                <g>
                    <title>text:Vin</title>
                    <g transform="translate(43.177 33.651)">
                        
                            <text fill="#FFFFFF" font-family="'OCRA'" font-size="2.6726">Vin</text>
                        
                    </g>
                </g>
                <g>
                    <title>text:GND</title>
                    <g transform="translate(35.977 42.71)">
                        
                            <text fill="#FFFFFF" font-family="'OCRA'" font-size="2.6726">GND</text>
                        
                    </g>
                </g>
                <g>
                    <title>text:SCL</title>
                    <g transform="translate(28.777 33.651)">
                        
                            <text fill="#FFFFFF" font-family="'OCRA'" font-size="2.6726">SCL</text>
                        
                    </g>
                </g>
                <g>
                    <title>text:SDA</title>
                    <g transform="translate(21.577 42.71)">
                        
                            <text fill="#FFFFFF" font-family="'OCRA'" font-size="2.6726">SDA</text>
                        
                    </g>
                </g>
                <g>
                    <title>text:Rdy</title>
                    <g transform="translate(14.377 33.651)">
                        
                            <text fill="#FFFFFF" font-family="'OCRA'" font-size="2.6726">Rdy</text>
                        
                    </g>
                </g>
                <g>
                    <title>text:A1</title>
                    <g transform="translate(9.1046 42.71)">
                        
                            <text fill="#FFFFFF" font-family="'OCRA'" font-size="2.6726">A1</text>
                        
                    </g>
                </g>
                <g>
                    <title>text:A0</title>
                    <g transform="translate(1.1846 33.651)">
                        
                            <text fill="#FFFFFF" font-family="'OCRA'" font-size="2.6726">A0</text>
                        
                    </g>
                </g>
                <g>
                    <title>element:C1</title>
                    <g>
                        <title>package:0805-NO</title>
                        <line x1="46.08" x2="43.2" y1="20.88" y2="20.88" fill="none" stroke="#fff" stroke-linecap="round" stroke-width=".864"/>
                    </g>
                </g>
                <g>
                    <title>element:FID1</title>
                    <g>
                        <title>package:FIDUCIAL_1MM</title>
                    </g>
                </g>
                <g>
                    <title>element:FID2</title>
                    <g>
                        <title>package:FIDUCIAL_1MM</title>
                    </g>
                </g>
                <g>
                    <title>element:JP1</title>
                    <g>
                        <title>package:1X07_ROUND_70</title>
                    </g>
                </g>
                <g>
                    <title>element:R1</title>
                    <g>
                        <title>package:0805-NO</title>
                        <line x1="37.44" x2="40.32" y1="20.88" y2="20.88" fill="none" stroke="#fff" stroke-linecap="round" stroke-width=".864"/>
                    </g>
                </g>
                <g>
                    <title>element:R2</title>
                    <g>
                        <title>package:_0805MP</title>
                        <line x1="31.68" x2="34.56" y1="20.88" y2="20.88" fill="none" stroke="#fff" stroke-linecap="round" stroke-width=".576"/>
                    </g>
                </g>
                <g>
                    <title>element:R3</title>
                    <g>
                        <title>package:0805-NO</title>
                        <line x1="16.2" x2="19.08" y1="20.88" y2="20.88" fill="none" stroke="#fff" stroke-linecap="round" stroke-width=".864"/>
                    </g>
                </g>
                <g>
                    <title>element:R4</title>
                    <g>
                        <title>package:0805-NO</title>
                        <line x1="9.36" x2="12.24" y1="20.88" y2="20.88" fill="none" stroke="#fff" stroke-linecap="round" stroke-width=".864"/>
                    </g>
                </g>
                <g>
                    <title>element:R5</title>
                    <g>
                        <title>package:0805-NO</title>
                        <line x1="3.6" x2="6.48" y1="20.88" y2="20.88" fill="none" stroke="#fff" stroke-linecap="round" stroke-width=".864"/>
                    </g>
                </g>
                <g>
                    <title>element:U$2</title>
                    <g>
                        <title>package:MOUNTINGHOLE_2.5_PLATED</title>
                        <circle cx="7.2" cy="7.2" r="5.669" fill="none" stroke="#fff" stroke-width=".576"/>
                    </g>
                </g>
                <g>
                    <title>element:U$3</title>
                    <g>
                        <title>package:MOUNTINGHOLE_2.5_PLATED</title>
                        <circle cx="43.2" cy="7.2" r="5.669" fill="none" stroke="#fff" stroke-width=".576"/>
                    </g>
                </g>
                <g>
                    <title>element:U$14</title>
                    <g>
                        <title>package:ADAFRUIT_3.5MM</title>
                    </g>
                </g>
                <g>
                    <title>element:U1</title>
                    <g>
                        <title>package:DSBGA8_HDC1008</title>
                        <line x1="27.751" x2="22.649" y1="23.278" y2="23.278" fill="none" stroke="#fff" stroke-linecap="round" stroke-width=".1417"/>
                        <line x1="22.649" x2="22.649" y1="23.278" y2="17.042" fill="none" stroke="#fff" stroke-linecap="round" stroke-width=".1417"/>
                        <line x1="22.649" x2="27.751" y1="17.042" y2="17.042" fill="none" stroke="#fff" stroke-linecap="round" stroke-width=".1417"/>
                        <line x1="27.751" x2="27.751" y1="17.042" y2="23.278" fill="none" stroke="#fff" stroke-linecap="round" stroke-width=".1417"/>
                        <circle cx="28.885" cy="22.428" r=".401" fill="none" stroke="#fff" stroke-width=".864"/>
                    </g>
                </g>
            </g>
            <g transform="matrix(0 1 -1 0 62.827 -26.453)">
                
                    
                        <g transform="matrix(2.5352e-6 1 -1 2.5352e-6 62.827 -26.453)">
                            
                                <rect id="connector0pin" x="42.514" y="16.345" width="4.252" height="3.685" fill="#9A916C"/>
                            
                        </g>
                    
                
            </g>
            <g transform="matrix(0 1 -1 0 68.213 -21.067)">
                
                    
                        <g transform="matrix(2.5352e-6 1 -1 2.5352e-6 68.213 -21.067)">
                            
                                <rect id="connector1pin" x="42.514" y="21.73" width="4.252" height="3.685" fill="#9A916C"/>
                            
                        </g>
                    
                
            </g>
            <path id="connector2pin" d="m10.44 28.463c0.783 0 1.417 0.635 1.417 1.417 0 0.783-0.635 1.417-1.417 1.417-0.783 0-1.417-0.635-1.417-1.417 0-0.783 0.634-1.417 1.417-1.417z" fill="#9A916C"/>
            <path id="connector3pin" d="m36 11.543c0.783 0 1.417 0.635 1.417 1.417 0 0.783-0.635 1.417-1.417 1.417-0.783 0-1.417-0.635-1.417-1.417 0-0.783 0.634-1.417 1.417-1.417z" fill="#9A916C"/>
            <circle id="connector4pin" cx="46.8" cy="36.72" r="1.969" fill="none" stroke="#9A916C" stroke-width="1.1027"/>
            <circle id="connector5pin" cx="39.6" cy="36.72" r="1.969" fill="none" stroke="#9A916C" stroke-width="1.1027"/>
            <circle id="connector6pin" cx="32.4" cy="36.72" r="1.969" fill="none" stroke="#9A916C" stroke-width="1.1027"/>
            <circle id="connector7pin" cx="25.2" cy="36.72" r="1.969" fill="none" stroke="#9A916C" stroke-width="1.1027"/>
            <circle id="connector8pin" cx="18" cy="36.72" r="1.969" fill="none" stroke="#9A916C" stroke-width="1.1027"/>
            <circle id="connector9pin" cx="10.8" cy="36.72" r="1.969" fill="none" stroke="#9A916C" stroke-width="1.1027"/>
            <circle id="connector10pin" cx="3.6" cy="36.72" r="1.969" fill="none" stroke="#9A916C" stroke-width="1.1027"/>
            <g transform="matrix(0 -1 1 0 15.307 62.453)">
                
                    
                        <g transform="matrix(-2.5352e-6 -1 1 -2.5352e-6 15.307 62.453)">
                            
                                <rect id="connector11pin" x="36.754" y="21.73" width="4.252" height="3.685" fill="#9A916C"/>
                            
                        </g>
                    
                
            </g>
            <g transform="matrix(0 -1 1 0 20.693 57.067)">
                
                    
                        <g transform="matrix(-2.5352e-6 -1 1 -2.5352e-6 20.693 57.067)">
                            
                                <rect id="connector12pin" x="36.754" y="16.345" width="4.252" height="3.685" fill="#9A916C"/>
                            
                        </g>
                    
                
            </g>
            <g transform="matrix(0 -1 1 0 9.36 56.88)">
                
                    
                        <g transform="matrix(-2.5352e-6 -1 1 -2.5352e-6 9.3602 56.88)">
                            
                                <rect id="connector13pin" x="31.277" y="22.059" width="3.685" height="3.402" fill="#9A916C"/>
                            
                        </g>
                    
                
            </g>
            <g transform="matrix(0 -1 1 0 15.12 51.12)">
                
                    
                        <g transform="matrix(-2.5352e-6 -1 1 -2.5352e-6 15.12 51.12)">
                            
                                <rect id="connector14pin" x="31.277" y="16.299" width="3.685" height="3.402" fill="#9A916C"/>
                            
                        </g>
                    
                
            </g>
            <g transform="matrix(0 -1 1 0 -5.9329 41.213)">
                
                    
                        <g transform="matrix(-2.5352e-6 -1 1 -2.5352e-6 -5.9329 41.213)">
                            
                                <rect id="connector15pin" x="15.514" y="21.73" width="4.252" height="3.685" fill="#9A916C"/>
                            
                        </g>
                    
                
            </g>
            <g transform="matrix(0 -1 1 0 -.54709 35.827)">
                
                    
                        <g transform="matrix(-2.5352e-6 -1 1 -2.5352e-6 -.5471 35.827)">
                            
                                <rect id="connector16pin" x="15.514" y="16.345" width="4.252" height="3.685" fill="#9A916C"/>
                            
                        </g>
                    
                
            </g>
            <g transform="matrix(0 -1 1 0 -12.773 34.373)">
                
                    
                        <g transform="matrix(-2.5352e-6 -1 1 -2.5352e-6 -12.773 34.373)">
                            
                                <rect id="connector17pin" x="8.674" y="21.73" width="4.252" height="3.685" fill="#9A916C"/>
                            
                        </g>
                    
                
            </g>
            <g transform="matrix(0 -1 1 0 -7.3871 28.987)">
                
                    
                        <g transform="matrix(-2.5352e-6 -1 1 -2.5352e-6 -7.3871 28.987)">
                            
                                <rect id="connector18pin" x="8.674" y="16.345" width="4.252" height="3.685" fill="#9A916C"/>
                            
                        </g>
                    
                
            </g>
            <g transform="matrix(0 -1 1 0 -18.533 28.613)">
                
                    
                        <g transform="matrix(-2.5352e-6 -1 1 -2.5352e-6 -18.533 28.613)">
                            
                                <rect id="connector19pin" x="2.914" y="21.73" width="4.252" height="3.685" fill="#9A916C"/>
                            
                        </g>
                    
                
            </g>
            <g transform="matrix(0 -1 1 0 -13.147 23.227)">
                
                    
                        <g transform="matrix(-2.5352e-6 -1 1 -2.5352e-6 -13.147 23.227)">
                            
                                <rect id="connector20pin" x="2.914" y="16.345" width="4.252" height="3.685" fill="#9A916C"/>
                            
                        </g>
                    
                
            </g>
            <circle id="connector21pin" cx="7.2" cy="7.2" r="4.263" fill="none" stroke="#9A916C" stroke-width="1.44"/>
            <circle id="connector22pin" cx="43.2" cy="7.2" r="4.263" fill="none" stroke="#9A916C" stroke-width="1.44"/>
            <g transform="matrix(-1 0 0 -1 53.235 44.572)">
                
                    
                        <path id="connector23pin" d="m26.617 21.913c0.206 0 0.373 0.167 0.373 0.373s-0.167 0.373-0.373 0.373-0.373-0.167-0.373-0.373c1e-3 -0.206 0.167-0.373 0.373-0.373z" fill="#9A916C"/>
                    
                
            </g>
            <g transform="matrix(-1 0 0 -1 47.565 44.572)">
                
                    
                        <path id="connector24pin" d="m23.783 21.913c0.206 0 0.373 0.167 0.373 0.373s-0.167 0.373-0.373 0.373-0.373-0.167-0.373-0.373 0.167-0.373 0.373-0.373z" fill="#9A916C"/>
                    
                
            </g>
            <g transform="matrix(-1 0 0 -1 53.235 41.737)">
                
                    
                        <path id="connector25pin" d="m26.617 20.496c0.206 0 0.373 0.167 0.373 0.373s-0.167 0.373-0.373 0.373-0.373-0.167-0.373-0.373c1e-3 -0.206 0.167-0.373 0.373-0.373z" fill="#9A916C"/>
                    
                
            </g>
            <g transform="matrix(-1 0 0 -1 47.565 41.737)">
                
                    
                        <path id="connector26pin" d="m23.783 20.496c0.206 0 0.373 0.167 0.373 0.373s-0.167 0.373-0.373 0.373-0.373-0.167-0.373-0.373 0.167-0.373 0.373-0.373z" fill="#9A916C"/>
                    
                
            </g>
            <g transform="matrix(-1 0 0 -1 53.235 38.903)">
                
                    
                        <path id="connector27pin" d="m26.617 19.079c0.206 0 0.373 0.167 0.373 0.373s-0.167 0.373-0.373 0.373-0.373-0.167-0.373-0.373c1e-3 -0.207 0.167-0.373 0.373-0.373z" fill="#9A916C"/>
                    
                
            </g>
            <g transform="matrix(-1 0 0 -1 47.565 38.903)">
                
                    
                        <path id="connector28pin" d="m23.783 19.079c0.206 0 0.373 0.167 0.373 0.373s-0.167 0.373-0.373 0.373-0.373-0.167-0.373-0.373c0-0.207 0.167-0.373 0.373-0.373z" fill="#9A916C"/>
                    
                
            </g>
            <g transform="matrix(-1 0 0 -1 53.235 36.068)">
                
                    
                        <path id="connector29pin" d="m26.617 17.661c0.206 0 0.373 0.167 0.373 0.373s-0.167 0.373-0.373 0.373-0.373-0.167-0.373-0.373c1e-3 -0.206 0.167-0.373 0.373-0.373z" fill="#9A916C"/>
                    
                
            </g>
            <g transform="matrix(-1 0 0 -1 47.565 36.068)">
                
                    
                        <path id="connector30pin" d="m23.783 17.661c0.206 0 0.373 0.167 0.373 0.373s-0.167 0.373-0.373 0.373-0.373-0.167-0.373-0.373 0.167-0.373 0.373-0.373z" fill="#9A916C"/>
                    
                
            </g>
        </g>
        <g transform="translate(41.806 19.108)">
            
                
                    <g transform="matrix(0 1 -1 0 4.606 -1.063)">
                        
                            
                                <path d="M5.386,3.543H0.283C0.127,3.543,0,3.416,0,3.26V0.283C0,0.127,0.127,0,0.283,0h5.102c0.157,0,0.283,0.127,0.283,0.283V3.26C5.669,3.416,5.542,3.543,5.386,3.543z" fill="#DCDCDC"/>
                                <g transform="matrix(2.5352e-6 1 -1 2.5352e-6 4.606 -1.063)">
                                    
                                        <rect x="1.063" width="3.543" height="3.543" fill="#6E554B"/>
                                    
                                </g>
                            
                        
                    </g>
                
            
        </g>
        <g transform="translate(36.046 19.108)">
            
                
                    <g transform="matrix(0 -1 1 0 1.063 4.606)">
                        
                            
                                <path d="M5.386,3.543H0.283C0.127,3.543,0,3.416,0,3.26V0.283C0,0.127,0.127,0,0.283,0h5.102c0.157,0,0.283,0.127,0.283,0.283V3.26C5.669,3.416,5.542,3.543,5.386,3.543z" fill="#DCDCDC"/>
                                <g transform="matrix(-2.5352e-6 -1 1 -2.5352e-6 1.063 4.606)">
                                    
                                        <rect x="1.063" width="3.543" height="3.543" fill="#333"/>
                                    
                                </g>
                            
                        
                    </g>
                
            
        </g>
        <g transform="translate(30.286 19.108)">
            
                
                    <g transform="matrix(0 -1 1 0 1.063 4.606)">
                        
                            
                                <path d="M5.386,3.543H0.283C0.127,3.543,0,3.416,0,3.26V0.283C0,0.127,0.127,0,0.283,0h5.102c0.157,0,0.283,0.127,0.283,0.283V3.26C5.669,3.416,5.542,3.543,5.386,3.543z" fill="#DCDCDC"/>
                                <g transform="matrix(-2.5352e-6 -1 1 -2.5352e-6 1.063 4.606)">
                                    
                                        <rect x="1.063" width="3.543" height="3.543" fill="#333"/>
                                    
                                </g>
                            
                        
                    </g>
                
            
        </g>
        <g transform="translate(14.806 19.108)">
            
                
                    <g transform="matrix(0 -1 1 0 1.063 4.606)">
                        
                            
                                <path d="M5.386,3.543H0.283C0.127,3.543,0,3.416,0,3.26V0.283C0,0.127,0.127,0,0.283,0h5.102c0.157,0,0.283,0.127,0.283,0.283V3.26C5.669,3.416,5.542,3.543,5.386,3.543z" fill="#DCDCDC"/>
                                <g transform="matrix(-2.5352e-6 -1 1 -2.5352e-6 1.063 4.606)">
                                    
                                        <rect x="1.063" width="3.543" height="3.543" fill="#333"/>
                                    
                                </g>
                            
                        
                    </g>
                
            
        </g>
        <g transform="translate(7.9655 19.108)">
            
                
                    <g transform="matrix(0 -1 1 0 1.063 4.606)">
                        
                            
                                <path d="M5.386,3.543H0.283C0.127,3.543,0,3.416,0,3.26V0.283C0,0.127,0.127,0,0.283,0h5.102c0.157,0,0.283,0.127,0.283,0.283V3.26C5.669,3.416,5.542,3.543,5.386,3.543z" fill="#DCDCDC"/>
                                <g transform="matrix(-2.5352e-6 -1 1 -2.5352e-6 1.063 4.606)">
                                    
                                        <rect x="1.063" width="3.543" height="3.543" fill="#333"/>
                                    
                                </g>
                            
                        
                    </g>
                
            
        </g>
        <g transform="translate(2.2055 19.108)">
            
                
                    <g transform="matrix(0 -1 1 0 1.063 4.606)">
                        
                            
                                <path d="M5.386,3.543H0.283C0.127,3.543,0,3.416,0,3.26V0.283C0,0.127,0.127,0,0.283,0h5.102c0.157,0,0.283,0.127,0.283,0.283V3.26C5.669,3.416,5.542,3.543,5.386,3.543z" fill="#DCDCDC"/>
                                <g transform="matrix(-2.5352e-6 -1 1 -2.5352e-6 1.063 4.606)">
                                    
                                        <rect x="1.063" width="3.543" height="3.543" fill="#333"/>
                                    
                                </g>
                            
                        
                    </g>
                
            
        </g>
        <g transform="translate(23.751 17.326)">
            
                
                    <g transform="matrix(-1 0 0 -1 4.535 5.669)">
                        
                            
                                <rect x=".819" width="4.535" height="5.669" fill="#333"/>
                            
                        
                    </g>
                
            
        </g>
    </g>
</svg>
