<?xml version="1.0" encoding="UTF-8"?>
<!-- Generator: Adobe Illustrator 20.0.0, SVG Export Plug-In . SVG Version: 6.00 Build 0)  -->
<svg width="1.2678in" height="1.6032in" baseProfile="tiny" version="1.2" viewBox="0 0 91.285 115.43" xml:space="preserve" xmlns="http://www.w3.org/2000/svg" xmlns:xml="http://www.w3.org/XML/1998/namespace">
    <desc>
        <referenceFile>Adafruit 1.2 Inch 8x8 LED Matrix Backpack_breadboard-blue.svg</referenceFile>
    </desc>
    <desc>Fritzing breadboard generated by brd2svg</desc>
    <g id="breadboard">
        <g id="icon">
            <path d="m7.482 115.2c-3.976 0-7.2-3.224-7.2-7.2v-100.8c0-3.976 3.224-7.2 7.2-7.2h76.32c3.976 0 7.2 3.224 7.2 7.2v100.8c0 3.976-3.224 7.2-7.2 7.2h-76.32m77.76-8.235c-1.566-3e-3 -2.837 1.263-2.84 2.829s1.263 2.837 2.829 2.84h0.011c1.566 3e-3 2.837-1.263 2.84-2.829s-1.263-2.837-2.829-2.84h-0.011zm-79.2 0c-1.566-3e-3 -2.837 1.263-2.84 2.829s1.263 2.837 2.829 2.84h0.011c1.566 3e-3 2.837-1.263 2.84-2.829s-1.263-2.837-2.829-2.84h-0.011zm79.2-104.4c-1.566-3e-3 -2.837 1.264-2.84 2.829-3e-3 1.566 1.264 2.837 2.829 2.84h0.011c1.566 3e-3 2.837-1.264 2.84-2.829 3e-3 -1.566-1.264-2.837-2.829-2.84h-0.011zm-79.2 0c-1.566-3e-3 -2.837 1.264-2.84 2.829-3e-3 1.566 1.264 2.838 2.829 2.841h0.011c1.566 3e-3 2.837-1.264 2.84-2.829 3e-3 -1.566-1.264-2.837-2.829-2.84-4e-3 -1e-3 -7e-3 -1e-3 -0.011-1e-3zm50.4 1.395c-0.795 0-1.44 0.645-1.44 1.44s0.645 1.44 1.44 1.44 1.44-0.645 1.44-1.44-0.645-1.44-1.44-1.44zm-7.2 0c-0.795 0-1.44 0.645-1.44 1.44s0.645 1.44 1.44 1.44 1.44-0.645 1.44-1.44-0.645-1.44-1.44-1.44zm-7.2 0c-0.795 0-1.44 0.645-1.44 1.44s0.645 1.44 1.44 1.44 1.44-0.645 1.44-1.44-0.645-1.44-1.44-1.44zm-7.2 0c-0.795 0-1.44 0.645-1.44 1.44s0.645 1.44 1.44 1.44 1.44-0.645 1.44-1.44-0.645-1.44-1.44-1.44z" fill="#014CB1"/>
            <g>
                <title>layer 21</title>
                <g>
                    <title>element:A0</title>
                    <g>
                        <title>package:SOLDERJUMPER_REFLOW_NOPASTE</title>
                    </g>
                </g>
                <g>
                    <title>element:A1</title>
                    <g>
                        <title>package:SOLDERJUMPER_REFLOW_NOPASTE</title>
                    </g>
                </g>
                <g>
                    <title>element:A2</title>
                    <g>
                        <title>package:SOLDERJUMPER_REFLOW_NOPASTE</title>
                    </g>
                </g>
                <g>
                    <title>element:C1</title>
                    <g>
                        <title>package:C0805</title>
                    </g>
                </g>
                <g>
                    <title>element:CN1</title>
                    <g>
                        <title>package:1X04-CLEANBIG</title>
                    </g>
                </g>
                <g>
                    <title>element:D1</title>
                    <g>
                        <title>package:SOD-323F</title>
                    </g>
                </g>
                <g>
                    <title>element:LED1</title>
                    <g>
                        <title>package:SEGMENT_BL-M12A881UR</title>
                        <line x1="90.997" x2="90.997" y1="12.246" y2="102.95" fill="none" stroke="#fff" stroke-linecap="round" stroke-width=".576"/>
                        <line x1="90.997" x2=".288" y1="102.95" y2="102.95" fill="none" stroke="#fff" stroke-linecap="round" stroke-width=".576"/>
                        <line x1=".288" x2=".288" y1="102.95" y2="12.246" fill="none" stroke="#fff" stroke-linecap="round" stroke-width=".576"/>
                        <line x1=".288" x2="90.997" y1="12.246" y2="12.246" fill="none" stroke="#fff" stroke-linecap="round" stroke-width=".576"/>
                    </g>
                </g>
                <g>
                    <title>element:R1</title>
                    <g>
                        <title>package:R0805</title>
                    </g>
                </g>
                <g>
                    <title>element:R2</title>
                    <g>
                        <title>package:R0805</title>
                    </g>
                </g>
                <g>
                    <title>element:R3</title>
                    <g>
                        <title>package:R0805</title>
                    </g>
                </g>
                <g>
                    <title>element:R4</title>
                    <g>
                        <title>package:R0805</title>
                    </g>
                </g>
                <g>
                    <title>element:R5</title>
                    <g>
                        <title>package:R0805</title>
                    </g>
                </g>
                <g>
                    <title>element:U$1</title>
                    <g>
                        <title>package:FIDUCIAL_1MM</title>
                    </g>
                </g>
                <g>
                    <title>element:U$2</title>
                    <g>
                        <title>package:FIDUCIAL_1MM</title>
                    </g>
                </g>
                <g>
                    <title>element:U$3</title>
                    <g>
                        <title>package:ADAFRUIT_3.5MM</title>
                    </g>
                </g>
                <g>
                    <title>element:U2</title>
                    <g>
                        <title>package:SOP28_300MIL</title>
                    </g>
                </g>
            </g>
            <circle id="connector5pin" cx="56.442" cy="5.4" r="1.98" fill="none" stroke="#9A916C" stroke-width="1.08"/>
            <circle id="connector6pin" cx="49.242" cy="5.4" r="1.98" fill="none" stroke="#9A916C" stroke-width="1.08"/>
            <circle id="connector7pin" cx="42.042" cy="5.4" r="1.98" fill="none" stroke="#9A916C" stroke-width="1.08"/>
            <circle id="connector8pin" cx="34.842" cy="5.4" r="1.98" fill="none" stroke="#9A916C" stroke-width="1.08"/>
        </g>
        <g transform="translate(105.65 39.369)">
            
                
                    
                        
                            
                                <g transform="matrix(-1 0 0 -1 9.78 9.777)">
                                    
                                        
                                            
                                                
                                                    
                                                        <path d="m69.973-54.897c0.2-0.032 0.257-0.141 0.341-0.403 0.064-0.199 0.489-1.533 0.489-1.533s0.351-0.93-0.146-1.619c-0.066-0.093-0.143-0.189-0.224-0.286 0.097 0.082 0.193 0.158 0.286 0.224 0.69 0.495 1.619 0.143 1.619 0.143s1.334-0.427 1.533-0.492c0.262-0.085 0.37-0.142 0.402-0.342s-0.054-0.288-0.277-0.449c-0.17-0.122-1.307-0.939-1.307-0.939s-0.777-0.621-1.586-0.361c-0.109 0.034-0.224 0.077-0.341 0.125 0.108-0.067 0.209-0.135 0.302-0.203 0.684-0.503 0.636-1.496 0.636-1.496s6e-3 -1.4 6e-3 -1.61c1e-3 -0.275-0.02-0.396-0.201-0.488-0.181-0.091-0.291-0.037-0.513 0.126-0.169 0.124-1.297 0.953-1.297 0.953s-0.83 0.546-0.834 1.395c0 0.114 5e-3 0.236 0.014 0.362-0.03-0.122-0.064-0.24-0.1-0.348-0.267-0.806-1.226-1.067-1.226-1.067s-1.33-0.438-1.529-0.503c-0.261-0.086-0.383-0.103-0.526 0.04-0.143 0.144-0.126 0.265-0.04 0.526 0.065 0.199 0.506 1.528 0.506 1.528s0.263 0.958 1.07 1.224c0.108 0.036 0.225 0.069 0.348 0.1-0.126-9e-3 -0.248-0.014-0.362-0.013-0.849 5e-3 -1.394 0.836-1.394 0.836s-0.827 1.13-0.951 1.298c-0.162 0.223-0.216 0.333-0.124 0.514s0.213 0.201 0.488 0.2c0.21-1e-3 1.61-9e-3 1.61-9e-3s0.993 0.047 1.495-0.639c0.067-0.092 0.135-0.194 0.202-0.301-0.047 0.117-0.09 0.232-0.124 0.34-0.258 0.81 0.364 1.584 0.364 1.584s0.819 1.136 0.941 1.306c0.161 0.223 0.249 0.309 0.45 0.277zm1.031-4.822c-0.024 0.152-0.349 0.228-0.726 0.169s-0.662-0.231-0.638-0.384 0.349-0.229 0.725-0.169c0.377 0.059 0.663 0.231 0.639 0.384zm-0.999-1.956c0.138 0.07 0.11 0.402-0.063 0.742s-0.425 0.558-0.563 0.488-0.11-0.402 0.063-0.742 0.425-0.558 0.563-0.488zm-1.878 1.031c-0.27-0.269-0.4-0.577-0.291-0.686s0.416 0.02 0.686 0.29c0.27 0.269 0.4 0.576 0.291 0.686-0.109 0.109-0.416-0.021-0.686-0.29zm-0.633 1.484c-0.07-0.138 0.148-0.39 0.487-0.563 0.34-0.174 0.673-0.203 0.743-0.065s-0.148 0.39-0.487 0.563c-0.34 0.173-0.672 0.202-0.743 0.065zm1.573 0.357c-0.06-0.377 0.015-0.701 0.168-0.726 0.153-0.024 0.325 0.262 0.385 0.638 0.06 0.377-0.015 0.701-0.168 0.726-0.153 0.024-0.325-0.261-0.385-0.638z" fill="#DCDCDC"/>
                                                    
                                                
                                            
                                        
                                    
                                </g>
                            
                        
                    
                
            
        </g>
    </g>
    <g>
        <title>text:C</title>
        <g transform="translate(58.571 3.5609)">
            
                
                    
                        
                            <text fill="#FFFFFF" font-family="OCRA" font-size="2.6726">C</text>
                        
                    
                
            
        </g>
    </g>
    <g>
        <title>text:D</title>
        <g transform="translate(51.731 3.5609)">
            
                
                    
                        
                            <text fill="#FFFFFF" font-family="OCRA" font-size="2.6726">D</text>
                        
                    
                
            
        </g>
    </g>
    <g>
        <title>text:-</title>
        <g transform="translate(37.331 3.5609)">
            
                
                    
                        
                            <text fill="#FFFFFF" font-family="OCRA" font-size="2.6726">-</text>
                        
                    
                
            
        </g>
    </g>
    <g>
        <title>text:+</title>
        <g transform="translate(30.131 3.5609)">
            
                
                    
                        
                            <text fill="#FFFFFF" font-family="OCRA" font-size="2.6726">+</text>
                        
                    
                
            
        </g>
    </g>
    
        <rect x=".288" y="12.245" width="90.709" height="90.709" fill="#141414"/>
        <path d="m10.209 17.914c0 2.348-1.904 4.252-4.252 4.252s-4.252-1.903-4.252-4.252 1.904-4.252 4.252-4.252 4.252 1.904 4.252 4.252zm7.087-4.252c-2.348 0-4.252 1.904-4.252 4.252s1.904 4.252 4.252 4.252 4.252-1.904 4.252-4.252-1.904-4.252-4.252-4.252zm11.338 0c-2.348 0-4.252 1.904-4.252 4.252s1.904 4.252 4.252 4.252 4.252-1.904 4.252-4.252-1.903-4.252-4.252-4.252zm11.339 0c-2.348 0-4.252 1.904-4.252 4.252s1.904 4.252 4.252 4.252 4.252-1.904 4.252-4.252-1.904-4.252-4.252-4.252zm11.339 0c-2.348 0-4.252 1.904-4.252 4.252s1.904 4.252 4.252 4.252 4.252-1.904 4.252-4.252-1.904-4.252-4.252-4.252zm11.338 0c-2.348 0-4.252 1.904-4.252 4.252s1.904 4.252 4.252 4.252 4.252-1.904 4.252-4.252-1.903-4.252-4.252-4.252zm11.339 0c-2.348 0-4.252 1.904-4.252 4.252s1.904 4.252 4.252 4.252 4.252-1.904 4.252-4.252-1.904-4.252-4.252-4.252zm11.338 0c-2.348 0-4.252 1.904-4.252 4.252s1.904 4.252 4.252 4.252 4.252-1.904 4.252-4.252-1.903-4.252-4.252-4.252zm-79.37 11.339c-2.348 0-4.252 1.904-4.252 4.252s1.904 4.252 4.252 4.252 4.252-1.904 4.252-4.252-1.903-4.252-4.252-4.252zm11.339 0c-2.348 0-4.252 1.904-4.252 4.252s1.904 4.252 4.252 4.252 4.252-1.904 4.252-4.252-1.904-4.252-4.252-4.252zm11.338 0c-2.348 0-4.252 1.904-4.252 4.252s1.904 4.252 4.252 4.252 4.252-1.904 4.252-4.252-1.903-4.252-4.252-4.252zm11.339 0c-2.348 0-4.252 1.904-4.252 4.252s1.904 4.252 4.252 4.252 4.252-1.904 4.252-4.252-1.904-4.252-4.252-4.252zm11.339 0c-2.348 0-4.252 1.904-4.252 4.252s1.904 4.252 4.252 4.252 4.252-1.904 4.252-4.252-1.904-4.252-4.252-4.252zm11.338 0c-2.348 0-4.252 1.904-4.252 4.252s1.904 4.252 4.252 4.252 4.252-1.904 4.252-4.252-1.903-4.252-4.252-4.252zm11.339 0c-2.348 0-4.252 1.904-4.252 4.252s1.904 4.252 4.252 4.252 4.252-1.904 4.252-4.252-1.904-4.252-4.252-4.252zm11.338 0c-2.348 0-4.252 1.904-4.252 4.252s1.904 4.252 4.252 4.252 4.252-1.904 4.252-4.252-1.903-4.252-4.252-4.252zm-79.37 11.338c-2.348 0-4.252 1.904-4.252 4.252s1.904 4.252 4.252 4.252 4.252-1.904 4.252-4.252-1.903-4.252-4.252-4.252zm11.339 0c-2.348 0-4.252 1.904-4.252 4.252s1.904 4.252 4.252 4.252 4.252-1.904 4.252-4.252-1.904-4.252-4.252-4.252zm11.338 0c-2.348 0-4.252 1.904-4.252 4.252s1.904 4.252 4.252 4.252 4.252-1.904 4.252-4.252-1.903-4.252-4.252-4.252zm11.339 0c-2.348 0-4.252 1.904-4.252 4.252s1.904 4.252 4.252 4.252 4.252-1.904 4.252-4.252-1.904-4.252-4.252-4.252zm11.339 0c-2.348 0-4.252 1.904-4.252 4.252s1.904 4.252 4.252 4.252 4.252-1.904 4.252-4.252-1.904-4.252-4.252-4.252zm11.338 0c-2.348 0-4.252 1.904-4.252 4.252s1.904 4.252 4.252 4.252 4.252-1.904 4.252-4.252-1.903-4.252-4.252-4.252zm11.339 0c-2.348 0-4.252 1.904-4.252 4.252s1.904 4.252 4.252 4.252 4.252-1.904 4.252-4.252-1.904-4.252-4.252-4.252zm11.338 0c-2.348 0-4.252 1.904-4.252 4.252s1.904 4.252 4.252 4.252 4.252-1.904 4.252-4.252-1.903-4.252-4.252-4.252zm-79.37 11.339c-2.348 0-4.252 1.904-4.252 4.252s1.904 4.252 4.252 4.252 4.252-1.904 4.252-4.252-1.903-4.252-4.252-4.252zm11.339 0c-2.348 0-4.252 1.904-4.252 4.252s1.904 4.252 4.252 4.252 4.252-1.904 4.252-4.252-1.904-4.252-4.252-4.252zm11.338 0c-2.348 0-4.252 1.904-4.252 4.252s1.904 4.252 4.252 4.252 4.252-1.904 4.252-4.252-1.903-4.252-4.252-4.252zm11.339 0c-2.348 0-4.252 1.904-4.252 4.252s1.904 4.252 4.252 4.252 4.252-1.904 4.252-4.252-1.904-4.252-4.252-4.252zm11.339 0c-2.348 0-4.252 1.904-4.252 4.252s1.904 4.252 4.252 4.252 4.252-1.904 4.252-4.252-1.904-4.252-4.252-4.252zm11.338 0c-2.348 0-4.252 1.904-4.252 4.252s1.904 4.252 4.252 4.252 4.252-1.904 4.252-4.252-1.903-4.252-4.252-4.252zm11.339 0c-2.348 0-4.252 1.904-4.252 4.252s1.904 4.252 4.252 4.252 4.252-1.904 4.252-4.252-1.904-4.252-4.252-4.252zm11.338 0c-2.348 0-4.252 1.904-4.252 4.252s1.904 4.252 4.252 4.252 4.252-1.904 4.252-4.252-1.903-4.252-4.252-4.252zm-79.37 11.339c-2.348 0-4.252 1.904-4.252 4.252s1.904 4.252 4.252 4.252 4.252-1.904 4.252-4.252-1.903-4.252-4.252-4.252zm11.339 0c-2.348 0-4.252 1.904-4.252 4.252s1.904 4.252 4.252 4.252 4.252-1.904 4.252-4.252-1.904-4.252-4.252-4.252zm11.338 0c-2.348 0-4.252 1.904-4.252 4.252s1.904 4.252 4.252 4.252 4.252-1.904 4.252-4.252-1.903-4.252-4.252-4.252zm11.339 0c-2.348 0-4.252 1.904-4.252 4.252s1.904 4.252 4.252 4.252 4.252-1.904 4.252-4.252-1.904-4.252-4.252-4.252zm11.339 0c-2.348 0-4.252 1.904-4.252 4.252s1.904 4.252 4.252 4.252 4.252-1.904 4.252-4.252-1.904-4.252-4.252-4.252zm11.338 0c-2.348 0-4.252 1.904-4.252 4.252s1.904 4.252 4.252 4.252 4.252-1.904 4.252-4.252-1.903-4.252-4.252-4.252zm11.339 0c-2.348 0-4.252 1.904-4.252 4.252s1.904 4.252 4.252 4.252 4.252-1.904 4.252-4.252-1.904-4.252-4.252-4.252zm11.338 0c-2.348 0-4.252 1.904-4.252 4.252s1.904 4.252 4.252 4.252 4.252-1.904 4.252-4.252-1.903-4.252-4.252-4.252zm-79.37 11.338c-2.348 0-4.252 1.904-4.252 4.252s1.904 4.252 4.252 4.252 4.252-1.904 4.252-4.252-1.903-4.252-4.252-4.252zm11.339 0c-2.348 0-4.252 1.904-4.252 4.252s1.904 4.252 4.252 4.252 4.252-1.904 4.252-4.252-1.904-4.252-4.252-4.252zm11.338 0c-2.348 0-4.252 1.904-4.252 4.252s1.904 4.252 4.252 4.252 4.252-1.904 4.252-4.252-1.903-4.252-4.252-4.252zm11.339 0c-2.348 0-4.252 1.904-4.252 4.252s1.904 4.252 4.252 4.252 4.252-1.904 4.252-4.252-1.904-4.252-4.252-4.252zm11.339 0c-2.348 0-4.252 1.904-4.252 4.252s1.904 4.252 4.252 4.252 4.252-1.904 4.252-4.252-1.904-4.252-4.252-4.252zm11.338 0c-2.348 0-4.252 1.904-4.252 4.252s1.904 4.252 4.252 4.252 4.252-1.904 4.252-4.252-1.903-4.252-4.252-4.252zm11.339 0c-2.348 0-4.252 1.904-4.252 4.252s1.904 4.252 4.252 4.252 4.252-1.904 4.252-4.252-1.904-4.252-4.252-4.252zm11.338 0c-2.348 0-4.252 1.904-4.252 4.252s1.904 4.252 4.252 4.252 4.252-1.904 4.252-4.252-1.903-4.252-4.252-4.252zm-79.37 11.339c-2.348 0-4.252 1.904-4.252 4.252s1.904 4.252 4.252 4.252 4.252-1.904 4.252-4.252-1.903-4.252-4.252-4.252zm11.339 0c-2.348 0-4.252 1.904-4.252 4.252s1.904 4.252 4.252 4.252 4.252-1.904 4.252-4.252-1.904-4.252-4.252-4.252zm11.338 0c-2.348 0-4.252 1.904-4.252 4.252s1.904 4.252 4.252 4.252 4.252-1.904 4.252-4.252-1.903-4.252-4.252-4.252zm11.339 0c-2.348 0-4.252 1.904-4.252 4.252s1.904 4.252 4.252 4.252 4.252-1.904 4.252-4.252-1.904-4.252-4.252-4.252zm11.339 0c-2.348 0-4.252 1.904-4.252 4.252s1.904 4.252 4.252 4.252 4.252-1.904 4.252-4.252-1.904-4.252-4.252-4.252zm11.338 0c-2.348 0-4.252 1.904-4.252 4.252s1.904 4.252 4.252 4.252 4.252-1.904 4.252-4.252-1.903-4.252-4.252-4.252zm11.339 0c-2.348 0-4.252 1.904-4.252 4.252s1.904 4.252 4.252 4.252 4.252-1.904 4.252-4.252-1.904-4.252-4.252-4.252zm11.338 0c-2.348 0-4.252 1.904-4.252 4.252s1.904 4.252 4.252 4.252 4.252-1.904 4.252-4.252-1.903-4.252-4.252-4.252zm-79.37 11.338c-2.348 0-4.252 1.904-4.252 4.252s1.904 4.252 4.252 4.252 4.252-1.904 4.252-4.252-1.903-4.252-4.252-4.252zm11.339 0c-2.348 0-4.252 1.904-4.252 4.252s1.904 4.252 4.252 4.252 4.252-1.904 4.252-4.252-1.904-4.252-4.252-4.252zm11.338 0c-2.348 0-4.252 1.904-4.252 4.252s1.904 4.252 4.252 4.252 4.252-1.904 4.252-4.252-1.903-4.252-4.252-4.252zm11.339 0c-2.348 0-4.252 1.904-4.252 4.252s1.904 4.252 4.252 4.252 4.252-1.904 4.252-4.252-1.904-4.252-4.252-4.252zm11.339 0c-2.348 0-4.252 1.904-4.252 4.252s1.904 4.252 4.252 4.252 4.252-1.904 4.252-4.252-1.904-4.252-4.252-4.252zm11.338 0c-2.348 0-4.252 1.904-4.252 4.252s1.904 4.252 4.252 4.252 4.252-1.904 4.252-4.252-1.903-4.252-4.252-4.252zm11.339 0c-2.348 0-4.252 1.904-4.252 4.252s1.904 4.252 4.252 4.252 4.252-1.904 4.252-4.252-1.904-4.252-4.252-4.252zm11.338 0c-2.348 0-4.252 1.904-4.252 4.252s1.904 4.252 4.252 4.252 4.252-1.904 4.252-4.252-1.903-4.252-4.252-4.252z" fill="#50A0FF"/>
    
</svg>
