<?xml version="1.0" encoding="UTF-8"?>
<!-- Generator: Adobe Illustrator 20.0.0, SVG Export Plug-In . SVG Version: 6.00 Build 0)  -->
<svg width="2.0737in" height=".4in" baseProfile="tiny" version="1.2" viewBox="0 0 149.31 28.8" xml:space="preserve" xmlns="http://www.w3.org/2000/svg" xmlns:xml="http://www.w3.org/XML/1998/namespace">
    <desc>
        <referenceFile>Adafruit NeoPixel Stick_breadboard.svg</referenceFile>
    </desc>
    <desc>Fritzing breadboard generated by brd2svg</desc>
    <g id="breadboard">
        <g id="icon">
            <g transform="matrix(0 1 -1 0 150.84 -143.64)">
                
                    
                        <g transform="matrix(2.5352e-6 1 -1 2.5352e-6 150.37 -144.11)">
                            
                                <rect id="connector19pin" x="145.64" y="1.328" width="3.195" height="3.6" fill="#808080"/>
                            
                        </g>
                    
                
            </g>
            <g transform="matrix(0 1 -1 0 158.04 -136.44)">
                
                    
                        <g transform="matrix(2.5352e-6 1 -1 2.5352e-6 157.57 -136.91)">
                            
                                <rect id="connector20pin" x="145.64" y="8.528" width="3.195" height="3.6" fill="#00C800"/>
                            
                        </g>
                    
                
            </g>
            <g transform="matrix(0 1 -1 0 165.24 -129.24)">
                
                    
                        <g transform="matrix(2.5352e-6 1 -1 2.5352e-6 164.77 -129.71)">
                            
                                <rect id="connector21pin" x="145.64" y="15.728" width="3.195" height="3.6" fill="#f00"/>
                            
                        </g>
                    
                
            </g>
            <g transform="matrix(0 1 -1 0 172.44 -122.04)">
                
                    
                        <g transform="matrix(2.5352e-6 1 -1 2.5352e-6 171.97 -122.51)">
                            
                                <rect id="connector22pin" x="145.64" y="22.928" width="3.195" height="3.6" fill="#808080"/>
                            
                        </g>
                    
                
            </g>
            <g transform="matrix(0 -1 1 0 -28.44 21.96)">
                
                    
                        <g transform="matrix(-2.5352e-6 -1 1 -2.5352e-6 -33.097 26.617)">
                            
                                <rect id="connector23pin" x="-4.657" y="28.057" width="2.835" height="3.6" fill="#808080"/>
                            
                        </g>
                    
                
            </g>
            <g transform="matrix(0 -1 1 0 -21.24 14.76)">
                
                    
                        <g transform="matrix(-2.5352e-6 -1 1 -2.5352e-6 -25.897 19.417)">
                            
                                <rect id="connector24pin" x="-4.657" y="20.857" width="2.835" height="3.6" fill="#f00"/>
                            
                        </g>
                    
                
            </g>
            <g transform="matrix(0 -1 1 0 -14.04 7.56)">
                
                    
                        <g transform="matrix(-2.5352e-6 -1 1 -2.5352e-6 -18.697 12.217)">
                            
                                <rect id="connector25pin" x="-4.657" y="13.657" width="2.835" height="3.6" fill="#00C800"/>
                            
                        </g>
                    
                
            </g>
            <g transform="matrix(0 -1 1 0 -6.84 .36)">
                
                    
                        <g transform="matrix(-2.5352e-6 -1 1 -2.5352e-6 -11.497 5.0173)">
                            
                                <rect id="connector26pin" x="-4.657" y="6.457" width="2.835" height="3.6" fill="#808080"/>
                            
                        </g>
                    
                
            </g>
            <path d="m2.475 28.8v-28.8h144v28.8h-144m32.882-23.04c0 1.722 1.396 3.118 3.118 3.118s3.118-1.396 3.118-3.118-1.396-3.118-3.118-3.118-3.118 1.396-3.118 3.118zm72 0c0 1.722 1.396 3.118 3.118 3.118s3.118-1.396 3.118-3.118-1.396-3.118-3.118-3.118-3.118 1.396-3.118 3.118z" fill="#0A0A0A"/>
            <g>
                <title>layer 21</title>
                <g>
                    <title>element:C1</title>
                    <g>
                        <title>package:C0805K</title>
                    </g>
                </g>
                <g>
                    <title>element:C2</title>
                    <g>
                        <title>package:C0805K</title>
                    </g>
                </g>
                <g>
                    <title>element:C3</title>
                    <g>
                        <title>package:C0805K</title>
                    </g>
                </g>
                <g>
                    <title>element:C4</title>
                    <g>
                        <title>package:C0805K</title>
                    </g>
                </g>
                <g>
                    <title>element:C5</title>
                    <g>
                        <title>package:C0805K</title>
                    </g>
                </g>
                <g>
                    <title>element:C6</title>
                    <g>
                        <title>package:C0805K</title>
                    </g>
                </g>
                <g>
                    <title>element:C7</title>
                    <g>
                        <title>package:C0805K</title>
                    </g>
                </g>
                <g>
                    <title>element:CN1</title>
                    <g>
                        <title>package:1X4-SMT</title>
                    </g>
                </g>
                <g>
                    <title>element:CN2</title>
                    <g>
                        <title>package:1X4-SMT</title>
                    </g>
                </g>
                <g>
                    <title>element:FID1</title>
                    <g>
                        <title>package:FIDUCIAL_1MM</title>
                    </g>
                </g>
                <g>
                    <title>element:FID3</title>
                    <g>
                        <title>package:FIDUCIAL_1MM</title>
                    </g>
                </g>
                <g>
                    <title>element:R1</title>
                    <g>
                        <title>package:_0805MP</title>
                        <line x1="9.315" x2="9.315" y1="3.6" y2="6.48" fill="none" stroke="#fff" stroke-linecap="round" stroke-width=".576"/>
                    </g>
                </g>
                <g>
                    <title>element:U$1</title>
                    <g>
                        <title>package:ADAFRUIT_TEXT_20MM</title>
                    </g>
                </g>
                <g>
                    <title>element:U$2</title>
                    <g>
                        <title>package:MOUNTINGHOLE_2.0_PLATED</title>
                        <circle cx="38.475" cy="5.76" r="5.102" fill="none" stroke="#fff" stroke-width=".576"/>
                    </g>
                </g>
                <g>
                    <title>element:U$3</title>
                    <g>
                        <title>package:MOUNTINGHOLE_2.0_PLATED</title>
                        <circle cx="110.48" cy="5.76" r="5.102" fill="none" stroke="#fff" stroke-width=".576"/>
                    </g>
                </g>
                <g>
                    <title>element:U$4</title>
                    <g>
                        <title>package:ADAFRUIT_2.5MM</title>
                    </g>
                </g>
            </g>
            <g transform="matrix(-1 0 0 -1 53.189 10.08)">
                
                    
                        <rect id="connector5pin" x="22.278" y="2.772" width="3.685" height="4.535" fill="#9A916C"/>
                    
                
            </g>
            <g transform="matrix(-1 0 0 -1 41.851 10.08)">
                
                    
                        <rect id="connector6pin" x="16.608" y="2.772" width="3.685" height="4.535" fill="#9A916C"/>
                    
                
            </g>
            <g transform="matrix(-1 0 0 -1 101.43 10.08)">
                
                    
                        <rect id="connector7pin" x="46.398" y="2.772" width="3.685" height="4.535" fill="#9A916C"/>
                    
                
            </g>
            <g transform="matrix(-1 0 0 -1 90.091 10.08)">
                
                    
                        <rect id="connector8pin" x="40.728" y="2.772" width="3.685" height="4.535" fill="#9A916C"/>
                    
                
            </g>
            <g transform="matrix(-1 0 0 -1 131.67 10.08)">
                
                    
                        <rect id="connector9pin" x="61.518" y="2.772" width="3.685" height="4.535" fill="#9A916C"/>
                    
                
            </g>
            <g transform="matrix(-1 0 0 -1 120.33 10.08)">
                
                    
                        <rect id="connector10pin" x="55.848" y="2.772" width="3.685" height="4.535" fill="#9A916C"/>
                    
                
            </g>
            <g transform="matrix(-1 0 0 -1 167.67 10.08)">
                
                    
                        <rect id="connector11pin" x="79.518" y="2.772" width="3.685" height="4.535" fill="#9A916C"/>
                    
                
            </g>
            <g transform="matrix(-1 0 0 -1 156.33 10.08)">
                
                    
                        <rect id="connector12pin" x="73.848" y="2.772" width="3.685" height="4.535" fill="#9A916C"/>
                    
                
            </g>
            <g transform="matrix(-1 0 0 -1 196.47 10.08)">
                
                    
                        <rect id="connector13pin" x="93.918" y="2.772" width="3.685" height="4.535" fill="#9A916C"/>
                    
                
            </g>
            <g transform="matrix(-1 0 0 -1 185.13 10.08)">
                
                    
                        <rect id="connector14pin" x="88.248" y="2.772" width="3.685" height="4.535" fill="#9A916C"/>
                    
                
            </g>
            <g transform="matrix(-1 0 0 -1 243.99 10.08)">
                
                    
                        <rect id="connector15pin" x="117.68" y="2.772" width="3.685" height="4.535" fill="#9A916C"/>
                    
                
            </g>
            <g transform="matrix(-1 0 0 -1 232.65 10.08)">
                
                    
                        <rect id="connector16pin" x="112.01" y="2.772" width="3.685" height="4.535" fill="#9A916C"/>
                    
                
            </g>
            <g transform="matrix(-1 0 0 -1 279.27 10.08)">
                
                    
                        <rect id="connector17pin" x="135.32" y="2.772" width="3.685" height="4.535" fill="#9A916C"/>
                    
                
            </g>
            <g transform="matrix(-1 0 0 -1 267.93 10.08)">
                
                    
                        <rect id="connector18pin" x="129.65" y="2.772" width="3.685" height="4.535" fill="#9A916C"/>
                    
                
            </g>
            <path id="connector27pin" d="m17.595 3.623c0.783 0 1.417 0.635 1.417 1.417 0 0.783-0.635 1.417-1.417 1.417-0.783 0-1.417-0.635-1.417-1.417-1e-3 -0.783 0.634-1.417 1.417-1.417z" fill="#9A916C"/>
            <path id="connector28pin" d="m130.27 3.623c0.783 0 1.417 0.635 1.417 1.417 0 0.783-0.635 1.417-1.417 1.417-0.783 0-1.417-0.635-1.417-1.417 0-0.783 0.634-1.417 1.417-1.417z" fill="#9A916C"/>
            <g transform="matrix(-1 0 0 -1 31.323 45.354)">
                
                    
                        <rect id="connector29pin" x="11.344" y="20.976" width="3.685" height="3.402" fill="#9A916C"/>
                    
                
            </g>
            <g transform="matrix(-1 0 0 -1 31.323 26.646)">
                
                    
                        <rect id="connector30pin" x="11.344" y="11.622" width="3.685" height="3.402" fill="#9A916C"/>
                    
                
            </g>
            <g transform="matrix(-1 0 0 -1 4.6772 26.646)">
                
                    
                        <rect id="connector31pin" x="-1.979" y="11.622" width="3.685" height="3.402" fill="#9A916C"/>
                    
                
            </g>
            <g transform="matrix(-1 0 0 -1 4.6772 45.354)">
                
                    
                        <rect id="connector32pin" x="-1.979" y="20.976" width="3.685" height="3.402" fill="#9A916C"/>
                    
                
            </g>
            <g transform="matrix(-1 0 0 -1 67.323 45.354)">
                
                    
                        <rect id="connector33pin" x="29.344" y="20.976" width="3.685" height="3.402" fill="#9A916C"/>
                    
                
            </g>
            <g transform="matrix(-1 0 0 -1 67.323 26.646)">
                
                    
                        <rect id="connector34pin" x="29.344" y="11.622" width="3.685" height="3.402" fill="#9A916C"/>
                    
                
            </g>
            <g transform="matrix(-1 0 0 -1 40.677 26.646)">
                
                    
                        <rect id="connector35pin" x="16.021" y="11.622" width="3.685" height="3.402" fill="#9A916C"/>
                    
                
            </g>
            <g transform="matrix(-1 0 0 -1 40.677 45.354)">
                
                    
                        <rect id="connector36pin" x="16.021" y="20.976" width="3.685" height="3.402" fill="#9A916C"/>
                    
                
            </g>
            <g transform="matrix(-1 0 0 -1 103.32 45.354)">
                
                    
                        <rect id="connector37pin" x="47.344" y="20.976" width="3.685" height="3.402" fill="#9A916C"/>
                    
                
            </g>
            <g transform="matrix(-1 0 0 -1 103.32 26.646)">
                
                    
                        <rect id="connector38pin" x="47.344" y="11.622" width="3.685" height="3.402" fill="#9A916C"/>
                    
                
            </g>
            <g transform="matrix(-1 0 0 -1 76.677 26.646)">
                
                    
                        <rect id="connector39pin" x="34.021" y="11.622" width="3.685" height="3.402" fill="#9A916C"/>
                    
                
            </g>
            <g transform="matrix(-1 0 0 -1 76.677 45.354)">
                
                    
                        <rect id="connector40pin" x="34.021" y="20.976" width="3.685" height="3.402" fill="#9A916C"/>
                    
                
            </g>
            <g transform="matrix(-1 0 0 -1 139.32 45.354)">
                
                    
                        <rect id="connector41pin" x="65.344" y="20.976" width="3.685" height="3.402" fill="#9A916C"/>
                    
                
            </g>
            <g transform="matrix(-1 0 0 -1 139.32 26.646)">
                
                    
                        <rect id="connector42pin" x="65.344" y="11.622" width="3.685" height="3.402" fill="#9A916C"/>
                    
                
            </g>
            <g transform="matrix(-1 0 0 -1 112.68 26.646)">
                
                    
                        <rect id="connector43pin" x="52.021" y="11.622" width="3.685" height="3.402" fill="#9A916C"/>
                    
                
            </g>
            <g transform="matrix(-1 0 0 -1 112.68 45.354)">
                
                    
                        <rect id="connector44pin" x="52.021" y="20.976" width="3.685" height="3.402" fill="#9A916C"/>
                    
                
            </g>
            <g transform="matrix(-1 0 0 -1 175.32 45.354)">
                
                    
                        <rect id="connector45pin" x="83.344" y="20.976" width="3.685" height="3.402" fill="#9A916C"/>
                    
                
            </g>
            <g transform="matrix(-1 0 0 -1 175.32 26.646)">
                
                    
                        <rect id="connector46pin" x="83.344" y="11.622" width="3.685" height="3.402" fill="#9A916C"/>
                    
                
            </g>
            <g transform="matrix(-1 0 0 -1 148.68 26.646)">
                
                    
                        <rect id="connector47pin" x="70.021" y="11.622" width="3.685" height="3.402" fill="#9A916C"/>
                    
                
            </g>
            <g transform="matrix(-1 0 0 -1 148.68 45.354)">
                
                    
                        <rect id="connector48pin" x="70.021" y="20.976" width="3.685" height="3.402" fill="#9A916C"/>
                    
                
            </g>
            <g transform="matrix(-1 0 0 -1 211.32 45.354)">
                
                    
                        <rect id="connector49pin" x="101.34" y="20.976" width="3.685" height="3.402" fill="#9A916C"/>
                    
                
            </g>
            <g transform="matrix(-1 0 0 -1 211.32 26.646)">
                
                    
                        <rect id="connector50pin" x="101.34" y="11.622" width="3.685" height="3.402" fill="#9A916C"/>
                    
                
            </g>
            <g transform="matrix(-1 0 0 -1 184.68 26.646)">
                
                    
                        <rect id="connector51pin" x="88.021" y="11.622" width="3.685" height="3.402" fill="#9A916C"/>
                    
                
            </g>
            <g transform="matrix(-1 0 0 -1 184.68 45.354)">
                
                    
                        <rect id="connector52pin" x="88.021" y="20.976" width="3.685" height="3.402" fill="#9A916C"/>
                    
                
            </g>
            <g transform="matrix(-1 0 0 -1 247.32 45.354)">
                
                    
                        <rect id="connector53pin" x="119.34" y="20.976" width="3.685" height="3.402" fill="#9A916C"/>
                    
                
            </g>
            <g transform="matrix(-1 0 0 -1 247.32 26.646)">
                
                    
                        <rect id="connector54pin" x="119.34" y="11.622" width="3.685" height="3.402" fill="#9A916C"/>
                    
                
            </g>
            <g transform="matrix(-1 0 0 -1 220.68 26.646)">
                
                    
                        <rect id="connector55pin" x="106.02" y="11.622" width="3.685" height="3.402" fill="#9A916C"/>
                    
                
            </g>
            <g transform="matrix(-1 0 0 -1 220.68 45.354)">
                
                    
                        <rect id="connector56pin" x="106.02" y="20.976" width="3.685" height="3.402" fill="#9A916C"/>
                    
                
            </g>
            <g transform="matrix(-1 0 0 -1 283.32 45.354)">
                
                    
                        <rect id="connector57pin" x="137.34" y="20.976" width="3.685" height="3.402" fill="#9A916C"/>
                    
                
            </g>
            <g transform="matrix(-1 0 0 -1 283.32 26.646)">
                
                    
                        <rect id="connector58pin" x="137.34" y="11.622" width="3.685" height="3.402" fill="#9A916C"/>
                    
                
            </g>
            <g transform="matrix(-1 0 0 -1 256.68 26.646)">
                
                    
                        <rect id="connector59pin" x="124.02" y="11.622" width="3.685" height="3.402" fill="#9A916C"/>
                    
                
            </g>
            <g transform="matrix(-1 0 0 -1 256.68 45.354)">
                
                    
                        <rect id="connector60pin" x="124.02" y="20.976" width="3.685" height="3.402" fill="#9A916C"/>
                    
                
            </g>
            <rect id="connector61pin" x="4.734" y="3.197" width="3.402" height="3.685" fill="#9A916C"/>
            <rect id="connector62pin" x="10.494" y="3.197" width="3.402" height="3.685" fill="#9A916C"/>
            <circle id="connector63pin" cx="38.475" cy="5.76" r="3.838" fill="none" stroke="#9A916C" stroke-width="1.44"/>
            <circle id="connector64pin" cx="110.48" cy="5.76" r="3.838" fill="none" stroke="#9A916C" stroke-width="1.44"/>
        </g>
        <g transform="translate(20.926 3.2685)">
            
                
                    <g transform="matrix(-1 0 0 -1 5.669 3.543)">
                        
                            
                                <path d="M2.911,3.543h-5.103c-0.156,0-0.283-0.127-0.283-0.283V0.283C-2.475,0.127-2.348,0-2.192,0H2.91c0.157,0,0.283,0.127,0.283,0.283V3.26C3.194,3.416,3.067,3.543,2.911,3.543z" fill="#DCDCDC"/>
                                <rect x="-1.412" width="3.543" height="3.543" fill="#6E554B"/>
                            
                        
                    </g>
                
            
        </g>
        <g transform="translate(45.046 3.2685)">
            
                
                    <g transform="matrix(-1 0 0 -1 5.669 3.543)">
                        
                            
                                <path d="M2.911,3.543h-5.103c-0.156,0-0.283-0.127-0.283-0.283V0.283C-2.475,0.127-2.348,0-2.192,0H2.91c0.157,0,0.283,0.127,0.283,0.283V3.26C3.194,3.416,3.067,3.543,2.911,3.543z" fill="#DCDCDC"/>
                                <rect x="-1.412" width="3.543" height="3.543" fill="#6E554B"/>
                            
                        
                    </g>
                
            
        </g>
        <g transform="translate(60.166 3.2685)">
            
                
                    <g transform="matrix(-1 0 0 -1 5.669 3.543)">
                        
                            
                                <path d="M2.911,3.543h-5.103c-0.156,0-0.283-0.127-0.283-0.283V0.283C-2.475,0.127-2.348,0-2.192,0H2.91c0.157,0,0.283,0.127,0.283,0.283V3.26C3.194,3.416,3.067,3.543,2.911,3.543z" fill="#DCDCDC"/>
                                <rect x="-1.412" width="3.543" height="3.543" fill="#6E554B"/>
                            
                        
                    </g>
                
            
        </g>
        <g transform="translate(78.165 3.2685)">
            
                
                    <g transform="matrix(-1 0 0 -1 5.669 3.543)">
                        
                            
                                <path d="M2.911,3.543h-5.103c-0.156,0-0.283-0.127-0.283-0.283V0.283C-2.475,0.127-2.348,0-2.192,0H2.91c0.157,0,0.283,0.127,0.283,0.283V3.26C3.194,3.416,3.067,3.543,2.911,3.543z" fill="#DCDCDC"/>
                                <rect x="-1.412" width="3.543" height="3.543" fill="#6E554B"/>
                            
                        
                    </g>
                
            
        </g>
        <g transform="translate(92.565 3.2685)">
            
                
                    <g transform="matrix(-1 0 0 -1 5.669 3.543)">
                        
                            
                                <path d="M2.911,3.543h-5.103c-0.156,0-0.283-0.127-0.283-0.283V0.283C-2.475,0.127-2.348,0-2.192,0H2.91c0.157,0,0.283,0.127,0.283,0.283V3.26C3.194,3.416,3.067,3.543,2.911,3.543z" fill="#DCDCDC"/>
                                <rect x="-1.412" width="3.543" height="3.543" fill="#6E554B"/>
                            
                        
                    </g>
                
            
        </g>
        <g transform="translate(116.32 3.2685)">
            
                
                    <g transform="matrix(-1 0 0 -1 5.669 3.543)">
                        
                            
                                <path d="M2.911,3.543h-5.103c-0.156,0-0.283-0.127-0.283-0.283V0.283C-2.475,0.127-2.348,0-2.192,0H2.91c0.157,0,0.283,0.127,0.283,0.283V3.26C3.194,3.416,3.067,3.543,2.911,3.543z" fill="#DCDCDC"/>
                                <rect x="-1.412" width="3.543" height="3.543" fill="#6E554B"/>
                            
                        
                    </g>
                
            
        </g>
        <g transform="translate(133.96 3.2685)">
            
                
                    <g transform="matrix(-1 0 0 -1 5.669 3.543)">
                        
                            
                                <path d="M2.911,3.543h-5.103c-0.156,0-0.283-0.127-0.283-0.283V0.283C-2.475,0.127-2.348,0-2.192,0H2.91c0.157,0,0.283,0.127,0.283,0.283V3.26C3.194,3.416,3.067,3.543,2.911,3.543z" fill="#DCDCDC"/>
                                <rect x="-1.412" width="3.543" height="3.543" fill="#6E554B"/>
                            
                        
                    </g>
                
            
        </g>
        <g transform="translate(1.3465 8.7876)">
            
                
                    
                        <rect x="2.475" y="3.402" width="15.307" height="1.984" fill="#DCDCDC"/>
                        <rect x="2.475" y="12.756" width="15.307" height="1.984" fill="#DCDCDC"/>
                        <rect x="3.042" y="1.984" width="14.173" height="14.173" fill="#F0F0F0"/>
                        <circle cx="10.129" cy="9.071" r="6.024" fill="#DCDCDC"/>
                        <circle cx="10.129" cy="9.071" r="4.961" fill="#C8C8C8"/>
                        <polygon points="5.593 1.984 3.042 1.984 3.042 4.535" fill="#E6E6E6"/>
                        <path d="m13.201 6.236v0.124c0 0.157-0.127 0.283-0.283 0.283h-2.006c-0.157 0-0.283-0.127-0.283-0.283v-2.199c-0.167-0.017-0.329-0.05-0.5-0.05s-0.333 0.033-0.5 0.05v6.905c0 0.157-0.127 0.283-0.283 0.283h-2.007c-0.157 0-0.283-0.127-0.283-0.283v-4.83c0-0.157-0.127-0.283-0.283-0.283h-0.474c-0.696 0.854-1.131 1.93-1.131 3.118 0 1.263 0.486 2.402 1.263 3.278h2.914c0.157 0 0.283 0.127 0.283 0.283v1.349c0.167 0.017 0.329 0.05 0.5 0.05s0.333-0.033 0.5-0.05v-6.054c0-0.157 0.127-0.283 0.283-0.283h2.006c0.157 0 0.283 0.127 0.283 0.283v3.979c0 0.157 0.127 0.283 0.283 0.283h0.473c0.696-0.854 1.131-1.93 1.131-3.118s-0.435-2.264-1.131-3.118h-0.471c-0.157 0-0.284 0.127-0.284 0.283z" fill="#F0F0F0"/>
                        <rect x="7.197" y="8.844" width="2.268" height="1.701" fill="#645050"/>
                        <rect x="10.97" y="8.787" width=".85" height=".567" fill="#FF4000"/>
                        <rect x="10.97" y="11.622" width=".85" height=".567" fill="#40FF40"/>
                        <rect x="10.97" y="5.953" width=".85" height=".567" fill="#4040FF"/>
                    
                
            
        </g>
        <g transform="translate(19.346 8.7876)">
            
                
                    
                        <rect x="2.475" y="3.402" width="15.307" height="1.984" fill="#DCDCDC"/>
                        <rect x="2.475" y="12.756" width="15.307" height="1.984" fill="#DCDCDC"/>
                        <rect x="3.042" y="1.984" width="14.173" height="14.173" fill="#F0F0F0"/>
                        <circle cx="10.129" cy="9.071" r="6.024" fill="#DCDCDC"/>
                        <circle cx="10.129" cy="9.071" r="4.961" fill="#C8C8C8"/>
                        <polygon points="5.593 1.984 3.042 1.984 3.042 4.535" fill="#E6E6E6"/>
                        <path d="m13.201 6.236v0.124c0 0.157-0.127 0.283-0.283 0.283h-2.006c-0.157 0-0.283-0.127-0.283-0.283v-2.199c-0.167-0.017-0.329-0.05-0.5-0.05s-0.333 0.033-0.5 0.05v6.905c0 0.157-0.127 0.283-0.283 0.283h-2.007c-0.157 0-0.283-0.127-0.283-0.283v-4.83c0-0.157-0.127-0.283-0.283-0.283h-0.474c-0.696 0.854-1.131 1.93-1.131 3.118 0 1.263 0.486 2.402 1.263 3.278h2.914c0.157 0 0.283 0.127 0.283 0.283v1.349c0.167 0.017 0.329 0.05 0.5 0.05s0.333-0.033 0.5-0.05v-6.054c0-0.157 0.127-0.283 0.283-0.283h2.006c0.157 0 0.283 0.127 0.283 0.283v3.979c0 0.157 0.127 0.283 0.283 0.283h0.473c0.696-0.854 1.131-1.93 1.131-3.118s-0.435-2.264-1.131-3.118h-0.471c-0.157 0-0.284 0.127-0.284 0.283z" fill="#F0F0F0"/>
                        <rect x="7.197" y="8.844" width="2.268" height="1.701" fill="#645050"/>
                        <rect x="10.97" y="8.787" width=".85" height=".567" fill="#FF4000"/>
                        <rect x="10.97" y="11.622" width=".85" height=".567" fill="#40FF40"/>
                        <rect x="10.97" y="5.953" width=".85" height=".567" fill="#4040FF"/>
                    
                
            
        </g>
        <g transform="translate(37.346 8.7876)">
            
                
                    
                        <rect x="2.475" y="3.402" width="15.307" height="1.984" fill="#DCDCDC"/>
                        <rect x="2.475" y="12.756" width="15.307" height="1.984" fill="#DCDCDC"/>
                        <rect x="3.042" y="1.984" width="14.173" height="14.173" fill="#F0F0F0"/>
                        <circle cx="10.129" cy="9.071" r="6.024" fill="#DCDCDC"/>
                        <circle cx="10.129" cy="9.071" r="4.961" fill="#C8C8C8"/>
                        <polygon points="5.593 1.984 3.042 1.984 3.042 4.535" fill="#E6E6E6"/>
                        <path d="m13.201 6.236v0.124c0 0.157-0.127 0.283-0.283 0.283h-2.006c-0.157 0-0.283-0.127-0.283-0.283v-2.199c-0.167-0.017-0.329-0.05-0.5-0.05s-0.333 0.033-0.5 0.05v6.905c0 0.157-0.127 0.283-0.283 0.283h-2.007c-0.157 0-0.283-0.127-0.283-0.283v-4.83c0-0.157-0.127-0.283-0.283-0.283h-0.474c-0.696 0.854-1.131 1.93-1.131 3.118 0 1.263 0.486 2.402 1.263 3.278h2.914c0.157 0 0.283 0.127 0.283 0.283v1.349c0.167 0.017 0.329 0.05 0.5 0.05s0.333-0.033 0.5-0.05v-6.054c0-0.157 0.127-0.283 0.283-0.283h2.006c0.157 0 0.283 0.127 0.283 0.283v3.979c0 0.157 0.127 0.283 0.283 0.283h0.473c0.696-0.854 1.131-1.93 1.131-3.118s-0.435-2.264-1.131-3.118h-0.471c-0.157 0-0.284 0.127-0.284 0.283z" fill="#F0F0F0"/>
                        <rect x="7.197" y="8.844" width="2.268" height="1.701" fill="#645050"/>
                        <rect x="10.97" y="8.787" width=".85" height=".567" fill="#FF4000"/>
                        <rect x="10.97" y="11.622" width=".85" height=".567" fill="#40FF40"/>
                        <rect x="10.97" y="5.953" width=".85" height=".567" fill="#4040FF"/>
                    
                
            
        </g>
        <g transform="translate(55.346 8.7876)">
            
                
                    
                        <rect x="2.475" y="3.402" width="15.307" height="1.984" fill="#DCDCDC"/>
                        <rect x="2.475" y="12.756" width="15.307" height="1.984" fill="#DCDCDC"/>
                        <rect x="3.042" y="1.984" width="14.173" height="14.173" fill="#F0F0F0"/>
                        <circle cx="10.129" cy="9.071" r="6.024" fill="#DCDCDC"/>
                        <circle cx="10.129" cy="9.071" r="4.961" fill="#C8C8C8"/>
                        <polygon points="5.593 1.984 3.042 1.984 3.042 4.535" fill="#E6E6E6"/>
                        <path d="m13.201 6.236v0.124c0 0.157-0.127 0.283-0.283 0.283h-2.006c-0.157 0-0.283-0.127-0.283-0.283v-2.199c-0.167-0.017-0.329-0.05-0.5-0.05s-0.333 0.033-0.5 0.05v6.905c0 0.157-0.127 0.283-0.283 0.283h-2.007c-0.157 0-0.283-0.127-0.283-0.283v-4.83c0-0.157-0.127-0.283-0.283-0.283h-0.474c-0.696 0.854-1.131 1.93-1.131 3.118 0 1.263 0.486 2.402 1.263 3.278h2.914c0.157 0 0.283 0.127 0.283 0.283v1.349c0.167 0.017 0.329 0.05 0.5 0.05s0.333-0.033 0.5-0.05v-6.054c0-0.157 0.127-0.283 0.283-0.283h2.006c0.157 0 0.283 0.127 0.283 0.283v3.979c0 0.157 0.127 0.283 0.283 0.283h0.473c0.696-0.854 1.131-1.93 1.131-3.118s-0.435-2.264-1.131-3.118h-0.471c-0.157 0-0.284 0.127-0.284 0.283z" fill="#F0F0F0"/>
                        <rect x="7.197" y="8.844" width="2.268" height="1.701" fill="#645050"/>
                        <rect x="10.97" y="8.787" width=".85" height=".567" fill="#FF4000"/>
                        <rect x="10.97" y="11.622" width=".85" height=".567" fill="#40FF40"/>
                        <rect x="10.97" y="5.953" width=".85" height=".567" fill="#4040FF"/>
                    
                
            
        </g>
        <g transform="translate(73.346 8.7876)">
            
                
                    
                        <rect x="2.475" y="3.402" width="15.307" height="1.984" fill="#DCDCDC"/>
                        <rect x="2.475" y="12.756" width="15.307" height="1.984" fill="#DCDCDC"/>
                        <rect x="3.042" y="1.984" width="14.173" height="14.173" fill="#F0F0F0"/>
                        <circle cx="10.129" cy="9.071" r="6.024" fill="#DCDCDC"/>
                        <circle cx="10.129" cy="9.071" r="4.961" fill="#C8C8C8"/>
                        <polygon points="5.593 1.984 3.042 1.984 3.042 4.535" fill="#E6E6E6"/>
                        <path d="m13.201 6.236v0.124c0 0.157-0.127 0.283-0.283 0.283h-2.006c-0.157 0-0.283-0.127-0.283-0.283v-2.199c-0.167-0.017-0.329-0.05-0.5-0.05s-0.333 0.033-0.5 0.05v6.905c0 0.157-0.127 0.283-0.283 0.283h-2.007c-0.157 0-0.283-0.127-0.283-0.283v-4.83c0-0.157-0.127-0.283-0.283-0.283h-0.474c-0.696 0.854-1.131 1.93-1.131 3.118 0 1.263 0.486 2.402 1.263 3.278h2.914c0.157 0 0.283 0.127 0.283 0.283v1.349c0.167 0.017 0.329 0.05 0.5 0.05s0.333-0.033 0.5-0.05v-6.054c0-0.157 0.127-0.283 0.283-0.283h2.006c0.157 0 0.283 0.127 0.283 0.283v3.979c0 0.157 0.127 0.283 0.283 0.283h0.473c0.696-0.854 1.131-1.93 1.131-3.118s-0.435-2.264-1.131-3.118h-0.471c-0.157 0-0.284 0.127-0.284 0.283z" fill="#F0F0F0"/>
                        <rect x="7.197" y="8.844" width="2.268" height="1.701" fill="#645050"/>
                        <rect x="10.97" y="8.787" width=".85" height=".567" fill="#FF4000"/>
                        <rect x="10.97" y="11.622" width=".85" height=".567" fill="#40FF40"/>
                        <rect x="10.97" y="5.953" width=".85" height=".567" fill="#4040FF"/>
                    
                
            
        </g>
        <g transform="translate(91.346 8.7876)">
            
                
                    
                        <rect x="2.475" y="3.402" width="15.307" height="1.984" fill="#DCDCDC"/>
                        <rect x="2.475" y="12.756" width="15.307" height="1.984" fill="#DCDCDC"/>
                        <rect x="3.042" y="1.984" width="14.173" height="14.173" fill="#F0F0F0"/>
                        <circle cx="10.129" cy="9.071" r="6.024" fill="#DCDCDC"/>
                        <circle cx="10.129" cy="9.071" r="4.961" fill="#C8C8C8"/>
                        <polygon points="5.593 1.984 3.042 1.984 3.042 4.535" fill="#E6E6E6"/>
                        <path d="m13.201 6.236v0.124c0 0.157-0.127 0.283-0.283 0.283h-2.006c-0.157 0-0.283-0.127-0.283-0.283v-2.199c-0.167-0.017-0.329-0.05-0.5-0.05s-0.333 0.033-0.5 0.05v6.905c0 0.157-0.127 0.283-0.283 0.283h-2.007c-0.157 0-0.283-0.127-0.283-0.283v-4.83c0-0.157-0.127-0.283-0.283-0.283h-0.474c-0.696 0.854-1.131 1.93-1.131 3.118 0 1.263 0.486 2.402 1.263 3.278h2.914c0.157 0 0.283 0.127 0.283 0.283v1.349c0.167 0.017 0.329 0.05 0.5 0.05s0.333-0.033 0.5-0.05v-6.054c0-0.157 0.127-0.283 0.283-0.283h2.006c0.157 0 0.283 0.127 0.283 0.283v3.979c0 0.157 0.127 0.283 0.283 0.283h0.473c0.696-0.854 1.131-1.93 1.131-3.118s-0.435-2.264-1.131-3.118h-0.471c-0.157 0-0.284 0.127-0.284 0.283z" fill="#F0F0F0"/>
                        <rect x="7.197" y="8.844" width="2.268" height="1.701" fill="#645050"/>
                        <rect x="10.97" y="8.787" width=".85" height=".567" fill="#FF4000"/>
                        <rect x="10.97" y="11.622" width=".85" height=".567" fill="#40FF40"/>
                        <rect x="10.97" y="5.953" width=".85" height=".567" fill="#4040FF"/>
                    
                
            
        </g>
        <g transform="translate(109.35 8.7876)">
            
                
                    
                        <rect x="2.475" y="3.402" width="15.307" height="1.984" fill="#DCDCDC"/>
                        <rect x="2.475" y="12.756" width="15.307" height="1.984" fill="#DCDCDC"/>
                        <rect x="3.042" y="1.984" width="14.173" height="14.173" fill="#F0F0F0"/>
                        <circle cx="10.129" cy="9.071" r="6.024" fill="#DCDCDC"/>
                        <circle cx="10.129" cy="9.071" r="4.961" fill="#C8C8C8"/>
                        <polygon points="5.593 1.984 3.042 1.984 3.042 4.535" fill="#E6E6E6"/>
                        <path d="m13.201 6.236v0.124c0 0.157-0.127 0.283-0.283 0.283h-2.006c-0.157 0-0.283-0.127-0.283-0.283v-2.199c-0.167-0.017-0.329-0.05-0.5-0.05s-0.333 0.033-0.5 0.05v6.905c0 0.157-0.127 0.283-0.283 0.283h-2.007c-0.157 0-0.283-0.127-0.283-0.283v-4.83c0-0.157-0.127-0.283-0.283-0.283h-0.474c-0.696 0.854-1.131 1.93-1.131 3.118 0 1.263 0.486 2.402 1.263 3.278h2.914c0.157 0 0.283 0.127 0.283 0.283v1.349c0.167 0.017 0.329 0.05 0.5 0.05s0.333-0.033 0.5-0.05v-6.054c0-0.157 0.127-0.283 0.283-0.283h2.006c0.157 0 0.283 0.127 0.283 0.283v3.979c0 0.157 0.127 0.283 0.283 0.283h0.473c0.696-0.854 1.131-1.93 1.131-3.118s-0.435-2.264-1.131-3.118h-0.471c-0.157 0-0.284 0.127-0.284 0.283z" fill="#F0F0F0"/>
                        <rect x="7.197" y="8.844" width="2.268" height="1.701" fill="#645050"/>
                        <rect x="10.97" y="8.787" width=".85" height=".567" fill="#FF4000"/>
                        <rect x="10.97" y="11.622" width=".85" height=".567" fill="#40FF40"/>
                        <rect x="10.97" y="5.953" width=".85" height=".567" fill="#4040FF"/>
                    
                
            
        </g>
        <g transform="translate(127.35 8.7876)">
            
                
                    
                        <rect x="2.475" y="3.402" width="15.307" height="1.984" fill="#DCDCDC"/>
                        <rect x="2.475" y="12.756" width="15.307" height="1.984" fill="#DCDCDC"/>
                        <rect x="3.042" y="1.984" width="14.173" height="14.173" fill="#F0F0F0"/>
                        <circle cx="10.129" cy="9.071" r="6.024" fill="#DCDCDC"/>
                        <circle cx="10.129" cy="9.071" r="4.961" fill="#C8C8C8"/>
                        <polygon points="5.593 1.984 3.042 1.984 3.042 4.535" fill="#E6E6E6"/>
                        <path d="m13.201 6.236v0.124c0 0.157-0.127 0.283-0.283 0.283h-2.006c-0.157 0-0.283-0.127-0.283-0.283v-2.199c-0.167-0.017-0.329-0.05-0.5-0.05s-0.333 0.033-0.5 0.05v6.905c0 0.157-0.127 0.283-0.283 0.283h-2.007c-0.157 0-0.283-0.127-0.283-0.283v-4.83c0-0.157-0.127-0.283-0.283-0.283h-0.474c-0.696 0.854-1.131 1.93-1.131 3.118 0 1.263 0.486 2.402 1.263 3.278h2.914c0.157 0 0.283 0.127 0.283 0.283v1.349c0.167 0.017 0.329 0.05 0.5 0.05s0.333-0.033 0.5-0.05v-6.054c0-0.157 0.127-0.283 0.283-0.283h2.006c0.157 0 0.283 0.127 0.283 0.283v3.979c0 0.157 0.127 0.283 0.283 0.283h0.473c0.696-0.854 1.131-1.93 1.131-3.118s-0.435-2.264-1.131-3.118h-0.471c-0.157 0-0.284 0.127-0.284 0.283z" fill="#F0F0F0"/>
                        <rect x="7.197" y="8.844" width="2.268" height="1.701" fill="#645050"/>
                        <rect x="10.97" y="8.787" width=".85" height=".567" fill="#FF4000"/>
                        <rect x="10.97" y="11.622" width=".85" height=".567" fill="#40FF40"/>
                        <rect x="10.97" y="5.953" width=".85" height=".567" fill="#4040FF"/>
                    
                
            
        </g>
        <g transform="translate(4.0055 3.2685)">
            
                
                    <path d="M7.861,3.543H2.758c-0.156,0-0.283-0.127-0.283-0.283V0.283C2.475,0.127,2.602,0,2.758,0H7.86c0.157,0,0.283,0.127,0.283,0.283V3.26C8.144,3.416,8.017,3.543,7.861,3.543z" fill="#DCDCDC"/>
                    <rect x="3.538" width="3.543" height="3.543" fill="#333"/>
                
            
        </g>
        <g transform="translate(65.885 .66357)">
            
                
                    <path d="m12.222 3.082c-0.023-0.142-0.1-0.183-0.286-0.243-0.142-0.045-1.089-0.347-1.089-0.347s-0.66-0.249-1.15 0.103c-0.066 0.048-0.134 0.102-0.203 0.16 0.058-0.069 0.112-0.137 0.159-0.203 0.352-0.49 0.101-1.15 0.101-1.15s-0.303-0.947-0.349-1.089c-0.06-0.186-0.1-0.263-0.243-0.285-0.142-0.023-0.204 0.038-0.318 0.197-0.087 0.12-0.667 0.928-0.667 0.928s-0.441 0.551-0.257 1.126c0.025 0.077 0.055 0.159 0.089 0.242-0.048-0.076-0.096-0.149-0.144-0.214-0.358-0.486-1.062-0.452-1.062-0.452s-0.995-4e-3 -1.143-4e-3c-0.195 0-0.281 0.014-0.347 0.143-0.065 0.128-0.027 0.206 0.089 0.364 0.088 0.12 0.677 0.921 0.677 0.921s0.388 0.59 0.991 0.592c0.081 0 0.168-3e-3 0.257-0.01-0.087 0.022-0.171 0.046-0.248 0.071-0.573 0.19-0.758 0.871-0.758 0.871s-0.31 0.944-0.357 1.085c-0.061 0.186-0.073 0.272 0.029 0.374s0.188 0.09 0.374 0.028c0.141-0.046 1.085-0.359 1.085-0.359s0.681-0.187 0.869-0.76c0.025-0.077 0.049-0.16 0.07-0.247-6e-3 0.09-9e-3 0.176-9e-3 0.257 4e-3 0.603 0.594 0.99 0.594 0.99s0.802 0.588 0.922 0.675c0.158 0.116 0.236 0.154 0.365 0.089 0.128-0.066 0.143-0.152 0.142-0.347-1e-3 -0.149-6e-3 -1.143-6e-3 -1.143s0.033-0.705-0.454-1.062c-0.065-0.048-0.138-0.096-0.214-0.143 0.083 0.034 0.165 0.064 0.242 0.088 0.575 0.183 1.125-0.259 1.125-0.259s0.807-0.581 0.927-0.668c0.159-0.115 0.219-0.177 0.197-0.319zm-3.425-0.732c0.108 0.017 0.162 0.248 0.12 0.515s-0.164 0.47-0.273 0.453c-0.108-0.017-0.162-0.248-0.12-0.515 0.042-0.268 0.164-0.471 0.273-0.453zm-1.389 0.709c0.05-0.098 0.286-0.078 0.527 0.045s0.397 0.302 0.347 0.399c-0.05 0.098-0.286 0.078-0.527-0.045-0.242-0.123-0.397-0.301-0.347-0.399zm0.732 1.334c-0.191 0.191-0.409 0.284-0.487 0.206-0.077-0.078 0.015-0.296 0.206-0.487 0.191-0.192 0.409-0.285 0.487-0.207s-0.014 0.296-0.206 0.488zm1.054 0.449c-0.098 0.05-0.277-0.105-0.4-0.346-0.123-0.242-0.144-0.478-0.046-0.528s0.277 0.105 0.4 0.346c0.123 0.242 0.144 0.478 0.046 0.528zm0.254-1.117c-0.267 0.042-0.498-0.011-0.516-0.119-0.017-0.109 0.186-0.231 0.453-0.274s0.498 0.011 0.515 0.119c0.018 0.109-0.185 0.231-0.452 0.274z" fill="#DCDCDC"/>
                
            
        </g>
    </g>
</svg>
