<?xml version="1.0" encoding="UTF-8"?>
<!-- Generator: Adobe Illustrator 26.2.1, SVG Export Plug-In . SVG Version: 6.00 Build 0)  -->
<svg width="1.078in" height=".7in" enable-background="new 0 0 77.6185 50.4" version="1.1" viewBox="0 0 77.618 50.4" xml:space="preserve" xmlns="http://www.w3.org/2000/svg" xmlns:xml="http://www.w3.org/XML/1998/namespace">
    <desc>
        <referenceFile>DRV2605L rev C_breadboard.svg</referenceFile>
    </desc>
    <desc>Fritzing breadboard generated by brd2svg</desc>
    <g id="breadboard">
        <g id="icon">
            <path d="m2.7241 7.2c0-3.9765 3.2235-7.2 7.2-7.2h57.6c3.9764 0 7.2 3.2236 7.2 7.2v36c0 3.9764-3.2235 7.2-7.2 7.2h-57.6c-3.9764 0-7.2-3.2235-7.2-7.2v-36m48.983 0c0 0.7828 0.6346 1.4173 1.4173 1.4173 0.7828 0 1.4173-0.6346 1.4173-1.4173 0-0.7828-0.6346-1.4173-1.4173-1.4173s-1.4173 0.6345-1.4173 1.4173zm-28.8 36c0 0.7828 0.6346 1.4173 1.4173 1.4173 0.7828 0 1.4173-0.6346 1.4173-1.4173s-0.6346-1.4173-1.4173-1.4173-1.4173 0.6345-1.4173 1.4173zm7.2 0c0 0.7828 0.6346 1.4173 1.4173 1.4173 0.7828 0 1.4173-0.6346 1.4173-1.4173s-0.6346-1.4173-1.4173-1.4173-1.4173 0.6345-1.4173 1.4173zm7.2 0c0 0.7828 0.6346 1.4173 1.4173 1.4173 0.7828 0 1.4173-0.6346 1.4173-1.4173s-0.6346-1.4173-1.4173-1.4173-1.4173 0.6345-1.4173 1.4173zm7.2 0c0 0.7828 0.6346 1.4173 1.4173 1.4173s1.4173-0.6346 1.4173-1.4173-0.6346-1.4173-1.4173-1.4173-1.4173 0.6345-1.4173 1.4173zm7.2 0c0 0.7828 0.6346 1.4173 1.4173 1.4173 0.7828 0 1.4173-0.6346 1.4173-1.4173s-0.6346-1.4173-1.4173-1.4173-1.4173 0.6345-1.4173 1.4173zm-28.8-36c0 0.7828 0.6346 1.4173 1.4173 1.4173 0.7828 0 1.4173-0.6346 1.4173-1.4173s-0.6346-1.4173-1.4173-1.4173-1.4173 0.6345-1.4173 1.4173zm-16.526 0c-0.0033 1.9569 1.5804 3.546 3.5373 3.5493s3.546-1.5804 3.5493-3.5373v-0.012c0.0033-1.9569-1.5804-3.546-3.5374-3.5493-1.9569-0.0033-3.546 1.5804-3.5493 3.5374 1e-4 4e-3 1e-4 0.0079 1e-4 0.0119zm57.6 0c-0.0034 1.9569 1.5802 3.5461 3.5371 3.5495s3.5461-1.5802 3.5495-3.5371v-0.0124c0.0034-1.9569-1.5802-3.5461-3.5371-3.5495s-3.5461 1.5802-3.5495 3.5371v0.0124zm-57.6 36c-0.0033 1.9569 1.5804 3.546 3.5373 3.5493s3.546-1.5804 3.5493-3.5373v-0.012c0.0033-1.9569-1.5804-3.546-3.5374-3.5493s-3.546 1.5804-3.5493 3.5374c1e-4 4e-3 1e-4 0.0079 1e-4 0.0119zm57.6 0c-0.0034 1.9569 1.5802 3.5461 3.5371 3.5495s3.5461-1.5802 3.5495-3.5371v-0.0125c0.0034-1.9569-1.5802-3.5461-3.5371-3.5495s-3.5461 1.5802-3.5495 3.5371v0.0125zm-19.191-37.8c-5e-4 0.6262 0.5068 1.1343 1.133 1.1347 0.6262 5e-4 1.1343-0.5068 1.1347-1.133v-0.0018c5e-4 -0.6262-0.5068-1.1343-1.133-1.1347-0.6262-5e-4 -1.1343 0.5068-1.1347 1.133v0.0018zm-14.4 0c-5e-4 0.6262 0.5068 1.1343 1.133 1.1347 0.6262 5e-4 1.1343-0.5068 1.1347-1.133v-0.0018c5e-4 -0.6262-0.5068-1.1343-1.133-1.1347-0.6262-5e-4 -1.1343 0.5068-1.1347 1.133v0.0018z"/>
            
                
                    <g transform="translate(20.741 49.55)">
                        <text fill="#FFFFFF" font-family="'OCRA'" font-size="2.6726">VIN</text>
                    </g>
                
                
                    <g transform="translate(28.301 40.55)">
                        <text fill="#FFFFFF" font-family="'OCRA'" font-size="2.6726">GND</text>
                    </g>
                
                
                    <g transform="translate(35.501 49.55)">
                        <text fill="#FFFFFF" font-family="'OCRA'" font-size="2.6726">SCL</text>
                    </g>
                
                
                    <g transform="translate(42.341 40.19)">
                        <text fill="#FFFFFF" font-family="'OCRA'" font-size="2.6726">SDA</text>
                    </g>
                
                
                    <g transform="translate(50.621 49.55)">
                        <text fill="#FFFFFF" font-family="'OCRA'" font-size="2.6726">INT</text>
                    </g>
                
                
                    <g transform="translate(31.35 19.702)">
                        <text fill="#FFFFFF" font-family="'OCRA'" font-size="3.8754">DRV2605L</text>
                    </g>
                
                
                    <g transform="translate(3.8041 15.12)">
                        <text fill="#FFFFFF" font-family="'OCRA'" font-size="2.6726">on</text>
                    </g>
                
                
                    <g transform="translate(46.678 36.23)">
                        <text fill="#FFFFFF" font-family="'OCRA'" font-size="2.6726">Haptic</text>
                    </g>
                
                
                    
                        <line x1="46.698" x2="44.43" y1="27" y2="27" fill="none" stroke="#fff" stroke-linecap="round" stroke-width=".864"/>
                    
                
                
                    
                        <line x1="56.004" x2="53.124" y1="27" y2="27" fill="none" stroke="#fff" stroke-linecap="round" stroke-width=".864"/>
                    
                
                
                    
                        <line x1="33.018" x2="30.75" y1="29.16" y2="29.16" fill="none" stroke="#fff" stroke-linecap="round" stroke-width=".864"/>
                    
                
                
                    
                        <line x1="51.018" x2="48.75" y1="27" y2="27" fill="none" stroke="#fff" stroke-linecap="round" stroke-width=".864"/>
                    
                
                
                    <g fill="none" stroke="#fff" stroke-linecap="round" stroke-width=".432">
                        <line x1="68.258" x2="60.888" y1="33.704" y2="33.704"/>
                        <line x1="60.888" x2="60.888" y1="33.704" y2="30.586"/>
                        <line x1="60.888" x2="60.888" y1="19.814" y2="16.413"/>
                        <line x1="60.888" x2="68.258" y1="16.413" y2="16.413"/>
                        <line x1="73.077" x2="73.077" y1="31.153" y2="19.247"/>
                    </g>
                
                
                    <g fill="none" stroke="#fff" stroke-linecap="round" stroke-width=".432">
                        <line x1="9.19" x2="16.56" y1="16.696" y2="16.696"/>
                        <line x1="16.56" x2="16.56" y1="16.696" y2="19.814"/>
                        <line x1="16.56" x2="16.56" y1="30.586" y2="33.987"/>
                        <line x1="16.56" x2="9.19" y1="33.987" y2="33.987"/>
                        <line x1="4.3711" x2="4.3711" y1="19.247" y2="31.153"/>
                    </g>
                
                
                    
                        
                            <path d="m12.408 14.76 0.9-0.72v1.44l-0.9-0.72" fill="none" stroke="#fff" stroke-linecap="round" stroke-width=".432"/>
                        
                        <g transform="matrix(0 -1 1 0 9.504 14.76)">
                            
                                <g transform="matrix(-2.5352e-6 -1 1 -2.5352e-6 -2.7241 2.7241)">
                                    <rect x="-.18" y="1.6441" width=".36" height="2.16" fill="#fff"/>
                                </g>
                            
                        </g>
                    
                
                
                    <g fill="none" stroke="#fff" stroke-linecap="round" stroke-width=".576">
                        <line x1="21.076" x2="29.013" y1="21.974" y2="21.974"/>
                        <line x1="29.013" x2="21.076" y1="32.746" y2="32.746"/>
                    </g>
                
                
                    <g fill="none" stroke="#fff" stroke-linecap="round" stroke-width=".576">
                        <line x1="42.324" x2="49.524" y1="1.8" y2="1.8"/>
                        <line x1="49.524" x2="49.524" y1="1.8" y2="9"/>
                        <line x1="49.524" x2="42.324" y1="9" y2="9"/>
                        <line x1="42.324" x2="42.324" y1="9" y2="1.8"/>
                    </g>
                
                
                    <g fill="none" stroke="#fff" stroke-linecap="round" stroke-width=".576">
                        <line x1="27.924" x2="35.124" y1="1.8" y2="1.8"/>
                        <line x1="35.124" x2="35.124" y1="1.8" y2="9"/>
                        <line x1="35.124" x2="27.924" y1="9" y2="9"/>
                        <line x1="27.924" x2="27.924" y1="9" y2="1.8"/>
                    </g>
                
                
                    
                        <circle cx="9.9241" cy="7.2" r="5.6693" fill="none" stroke="#fff" stroke-width=".576"/>
                    
                
                
                    <g fill="none" stroke="#fff">
                        <line x1="47.049" x2="44.799" y1="12.24" y2="12.24" stroke-linecap="round" stroke-width=".864"/>
                        <line x1="45.924" x2="45.924" y1="11.115" y2="13.365" stroke-linecap="round" stroke-width=".864"/>
                        <circle cx="45.924" cy="12.24" r="2.2158" stroke-width=".576"/>
                    </g>
                
                
                    <g fill="none" stroke="#fff">
                        <line x1="32.649" x2="30.399" y1="12.24" y2="12.24" stroke-linecap="round" stroke-width=".864"/>
                        <circle cx="31.524" cy="12.24" r="2.2158" stroke-width=".576"/>
                    </g>
                
                
                    
                        <circle cx="67.524" cy="7.2" r="5.6693" fill="none" stroke="#fff" stroke-width=".576"/>
                    
                
                
                    
                        <circle cx="9.9241" cy="43.2" r="5.6693" fill="none" stroke="#fff" stroke-width=".576"/>
                    
                
                
                    
                        <circle cx="67.524" cy="43.2" r="5.6693" fill="none" stroke="#fff" stroke-width=".576"/>
                    
                
                
                    <g fill="none" stroke="#fff">
                        <line x1="35.039" x2="34.189" y1="23.545" y2="23.545" stroke-linecap="round" stroke-width=".36"/>
                        <line x1="34.189" x2="34.189" y1="23.545" y2="32.615" stroke-linecap="round" stroke-width=".36"/>
                        <line x1="34.189" x2="35.039" y1="32.615" y2="32.615" stroke-linecap="round" stroke-width=".36"/>
                        <line x1="42.409" x2="43.26" y1="32.615" y2="32.615" stroke-linecap="round" stroke-width=".36"/>
                        <line x1="43.26" x2="43.26" y1="32.615" y2="23.545" stroke-linecap="round" stroke-width=".36"/>
                        <line x1="43.26" x2="42.409" y1="23.545" y2="23.545" stroke-linecap="round" stroke-width=".36"/>
                        <circle cx="33.763" cy="34.458" r=".5669" stroke-width="1.152"/>
                    </g>
                
            
            <g transform="matrix(0 1 -1 0 67.43 -18.25)">
                
                    <g transform="matrix(2.5352e-6 1 -1 2.5352e-6 64.706 -20.974)">
                        <rect id="connector5pin" x="41.423" y="20.343" width="2.8347" height="3.0472" fill="#9A916C"/>
                    </g>
                
            </g>
            <g transform="matrix(0 1 -1 0 72.249 -13.43)">
                
                    <g transform="matrix(2.5352e-6 1 -1 2.5352e-6 69.525 -16.155)">
                        <rect id="connector6pin" x="41.423" y="25.162" width="2.8347" height="3.0472" fill="#9A916C"/>
                    </g>
                
            </g>
            <g transform="matrix(0 1 -1 0 76.147 -27.533)">
                
                    <g transform="matrix(2.5352e-6 1 -1 2.5352e-6 73.423 -30.257)">
                        <rect id="connector7pin" x="49.714" y="19.826" width="4.252" height="3.515" fill="#9A916C"/>
                    </g>
                
            </g>
            <g transform="matrix(0 1 -1 0 81.533 -22.147)">
                
                    <g transform="matrix(2.5352e-6 1 -1 2.5352e-6 78.809 -24.871)">
                        <rect id="connector8pin" x="49.714" y="25.211" width="4.252" height="3.515" fill="#9A916C"/>
                    </g>
                
            </g>
            <g transform="matrix(0 1 -1 0 55.91 -2.4094)">
                
                    <g transform="matrix(2.5352e-6 1 -1 2.5352e-6 53.186 -5.1337)">
                        <rect id="connector9pin" x="27.743" y="22.503" width="2.8347" height="3.0472" fill="#9A916C"/>
                    </g>
                
            </g>
            <g transform="matrix(0 1 -1 0 60.73 2.4094)">
                
                    <g transform="matrix(2.5352e-6 1 -1 2.5352e-6 58.005 -.3147)">
                        <rect id="connector10pin" x="27.743" y="27.322" width="2.8347" height="3.0472" fill="#9A916C"/>
                    </g>
                
            </g>
            <g transform="matrix(0 1 -1 0 71.75 -22.57)">
                
                    <g transform="matrix(2.5352e-6 1 -1 2.5352e-6 69.026 -25.294)">
                        <rect id="connector11pin" x="45.743" y="20.343" width="2.8347" height="3.0472" fill="#9A916C"/>
                    </g>
                
            </g>
            <g transform="matrix(0 1 -1 0 76.569 -17.75)">
                
                    <g transform="matrix(2.5352e-6 1 -1 2.5352e-6 73.845 -20.475)">
                        <rect id="connector12pin" x="45.743" y="25.162" width="2.8347" height="3.0472" fill="#9A916C"/>
                    </g>
                
            </g>
            <g transform="matrix(-1 0 0 -1 114.63 58.904)">
                
                    <rect id="connector13pin" x="52.393" y="28.602" width="4.3937" height="1.7008" fill="#9A916C"/>
                
            </g>
            <g transform="matrix(-1 0 0 -1 114.63 53.235)">
                
                    <rect id="connector14pin" x="52.393" y="25.767" width="4.3937" height="1.7008" fill="#9A916C"/>
                
            </g>
            <g transform="matrix(-1 0 0 -1 114.63 47.565)">
                
                    <rect id="connector15pin" x="52.393" y="22.932" width="4.3937" height="1.7008" fill="#9A916C"/>
                
            </g>
            <g transform="matrix(-1 0 0 -1 114.63 41.896)">
                
                    <rect id="connector16pin" x="52.393" y="20.098" width="4.3937" height="1.7008" fill="#9A916C"/>
                
            </g>
            <g transform="matrix(-1 0 0 -1 136.74 66.274)">
                
                    <rect id="connector17pin" x="63.094" y="31.436" width="5.1024" height="3.4016" fill="#9A916C"/>
                
            </g>
            <g transform="matrix(-1 0 0 -1 136.74 34.526)">
                
                    <rect id="connector18pin" x="63.094" y="15.562" width="5.1024" height="3.4016" fill="#9A916C"/>
                
            </g>
            <rect id="connector19pin" x="15.214" y="20.098" width="4.3937" height="1.7008" fill="#9A916C"/>
            <rect id="connector20pin" x="15.214" y="22.932" width="4.3937" height="1.7008" fill="#9A916C"/>
            <rect id="connector21pin" x="15.214" y="25.767" width="4.3937" height="1.7008" fill="#9A916C"/>
            <rect id="connector22pin" x="15.214" y="28.602" width="4.3937" height="1.7008" fill="#9A916C"/>
            <rect id="connector23pin" x="3.8041" y="15.562" width="5.1024" height="3.4016" fill="#9A916C"/>
            <rect id="connector24pin" x="3.8041" y="31.436" width="5.1024" height="3.4016" fill="#9A916C"/>
            <g transform="matrix(0 -1 1 0 -2.554 26.966)">
                
                    <g transform="matrix(-2.5352e-6 -1 1 -2.5352e-6 -5.278 29.69)">
                        <rect id="connector25pin" x="11.072" y="16.35" width="2.2677" height="2.2677" fill="#9A916C"/>
                    </g>
                
            </g>
            <g transform="matrix(0 -1 1 0 -6.806 22.714)">
                
                    <g transform="matrix(-2.5352e-6 -1 1 -2.5352e-6 -9.53 25.438)">
                        <rect id="connector26pin" x="6.8202" y="16.35" width="2.2677" height="2.2677" fill="#9A916C"/>
                    </g>
                
            </g>
            <path id="connector27pin" d="m19.284 34.943c0.7828 0 1.4173 0.6346 1.4173 1.4173 0 0.7828-0.6346 1.4173-1.4173 1.4173-0.7828 0-1.4173-0.6346-1.4173-1.4173s0.6346-1.4173 1.4173-1.4173z" fill="#9A916C"/>
            <path id="connector28pin" d="m59.244 9.3827c0.7828 0 1.4173 0.6346 1.4173 1.4173 0 0.7828-0.6346 1.4173-1.4173 1.4173-0.7828 0-1.4173-0.6346-1.4173-1.4173 0-0.7828 0.6346-1.4173 1.4173-1.4173z" fill="#9A916C"/>
            <circle id="connector29pin" cx="53.124" cy="7.2" r="1.8967" fill="none" stroke="#9A916C" stroke-width=".9587"/>
            <path d="m51.227 2.8377h3.7933v8.7247h-3.7933v-8.7247m0 4.3623c-4e-4 1.0475 0.8484 1.897 1.8959 1.8974s1.897-0.8484 1.8974-1.8959v-0.0015c4e-4 -1.0475-0.8484-1.897-1.8959-1.8974s-1.897 0.8484-1.8974 1.8959v0.0015z" fill="#9A916C"/>
            <circle id="connector30pin" cx="24.324" cy="43.2" r="2.0767" fill="none" stroke="#9A916C" stroke-width="1.3187"/>
            <circle id="connector31pin" cx="31.524" cy="43.2" r="2.0767" fill="none" stroke="#9A916C" stroke-width="1.3187"/>
            <circle id="connector32pin" cx="38.724" cy="43.2" r="2.0767" fill="none" stroke="#9A916C" stroke-width="1.3187"/>
            <circle id="connector33pin" cx="45.924" cy="43.2" r="2.0767" fill="none" stroke="#9A916C" stroke-width="1.3187"/>
            <circle id="connector34pin" cx="53.124" cy="43.2" r="2.0767" fill="none" stroke="#9A916C" stroke-width="1.3187"/>
            <circle id="connector35pin" cx="24.324" cy="7.2" r="1.8967" fill="none" stroke="#9A916C" stroke-width=".9587"/>
            <path d="m22.427 2.8377h3.7933v8.7247h-3.7933v-8.7247m0 4.3623c-4e-4 1.0475 0.8484 1.897 1.8959 1.8974s1.897-0.8484 1.8974-1.8959v-0.0015c4e-4 -1.0475-0.8484-1.897-1.8959-1.8974s-1.897 0.8484-1.8974 1.8959v0.0015z" fill="#9A916C"/>
            <g transform="matrix(0 -1 1 0 -6.3156 55.774)">
                
                    <g transform="matrix(-2.5352e-6 -1 1 -2.5352e-6 -9.0398 58.499)">
                        <rect id="connector36pin" x="23.454" y="33.131" width="2.5512" height="1.2756" fill="#9A916C"/>
                    </g>
                
            </g>
            <g transform="matrix(0 -1 1 0 -3.7644 53.223)">
                
                    <g transform="matrix(-2.5352e-6 -1 1 -2.5352e-6 -6.4885 55.947)">
                        <rect id="connector37pin" x="23.454" y="30.58" width="2.5512" height="1.2756" fill="#9A916C"/>
                    </g>
                
            </g>
            <g transform="matrix(0 -1 1 0 -1.4967 50.956)">
                
                    <g transform="matrix(-2.5352e-6 -1 1 -2.5352e-6 -4.2208 53.68)">
                        <rect id="connector38pin" x="23.454" y="28.312" width="2.5512" height="1.2756" fill="#9A916C"/>
                    </g>
                
            </g>
            <g transform="matrix(0 -1 1 0 1.0545 48.404)">
                
                    <g transform="matrix(-2.5352e-6 -1 1 -2.5352e-6 -1.6696 51.128)">
                        <rect id="connector39pin" x="23.454" y="25.761" width="2.5512" height="1.2756" fill="#9A916C"/>
                    </g>
                
            </g>
            <g transform="matrix(0 -1 1 0 -3.7644 43.586)">
                
                    <g transform="matrix(-2.5352e-6 -1 1 -2.5352e-6 -6.4885 46.31)">
                        <rect id="connector40pin" x="18.635" y="25.761" width="2.5512" height="1.2756" fill="#9A916C"/>
                    </g>
                
            </g>
            <g transform="matrix(0 -1 1 0 -6.3156 46.137)">
                
                    <g transform="matrix(-2.5352e-6 -1 1 -2.5352e-6 -9.0397 48.861)">
                        <rect id="connector41pin" x="18.635" y="28.312" width="2.5512" height="1.2756" fill="#9A916C"/>
                    </g>
                
            </g>
            <g transform="matrix(0 -1 1 0 -8.5833 48.404)">
                
                    <g transform="matrix(-2.5352e-6 -1 1 -2.5352e-6 -11.307 51.128)">
                        <rect id="connector42pin" x="18.635" y="30.58" width="2.5512" height="1.2756" fill="#9A916C"/>
                    </g>
                
            </g>
            <g transform="matrix(0 -1 1 0 -11.134 50.956)">
                
                    <g transform="matrix(-2.5352e-6 -1 1 -2.5352e-6 -13.859 53.68)">
                        <rect id="connector43pin" x="18.635" y="33.131" width="2.5512" height="1.2756" fill="#9A916C"/>
                    </g>
                
            </g>
            <rect id="connector44pin" x="43.09" y="2.5654" width="5.6693" height="5.6693" fill="#9A916C"/>
            <rect id="connector45pin" x="28.69" y="2.5654" width="5.6693" height="5.6693" fill="#9A916C"/>
            <circle id="connector46pin" cx="9.9241" cy="7.2" r="4.2633" fill="none" stroke="#9A916C" stroke-width="1.44"/>
            <circle id="connector47pin" cx="67.524" cy="7.2" r="4.2633" fill="none" stroke="#9A916C" stroke-width="1.44"/>
            <circle id="connector48pin" cx="9.9241" cy="43.2" r="4.2633" fill="none" stroke="#9A916C" stroke-width="1.44"/>
            <circle id="connector49pin" cx="67.524" cy="43.2" r="4.2633" fill="none" stroke="#9A916C" stroke-width="1.44"/>
            <g transform="matrix(0 -1 1 0 -1.1509 67.482)">
                
                    <g transform="matrix(-2.5352e-6 -1 1 -2.5352e-6 -3.8748 70.206)">
                        <rect id="connector50pin" x="32.769" y="34.985" width=".7937" height="4.1102" fill="#9A916C"/>
                    </g>
                
            </g>
            <g transform="matrix(0 -1 1 0 .26646 68.899)">
                
                    <g transform="matrix(-2.5352e-6 -1 1 -2.5352e-6 -2.4575 71.623)">
                        <rect id="connector51pin" x="34.186" y="34.985" width=".7937" height="4.1102" fill="#9A916C"/>
                    </g>
                
            </g>
            <g transform="matrix(0 -1 1 0 1.6838 70.316)">
                
                    <g transform="matrix(-2.5352e-6 -1 1 -2.5352e-6 -1.0402 73.04)">
                        <rect id="connector52pin" x="35.603" y="34.985" width=".7937" height="4.1102" fill="#9A916C"/>
                    </g>
                
            </g>
            <g transform="matrix(0 -1 1 0 3.1011 71.734)">
                
                    <g transform="matrix(-2.5352e-6 -1 1 -2.5352e-6 .3771 74.458)">
                        <rect id="connector53pin" x="37.02" y="34.985" width=".7937" height="4.1102" fill="#9A916C"/>
                    </g>
                
            </g>
            <g transform="matrix(0 -1 1 0 4.5184 73.151)">
                
                    <g transform="matrix(-2.5352e-6 -1 1 -2.5352e-6 1.7944 75.875)">
                        <rect id="connector54pin" x="38.438" y="34.985" width=".7937" height="4.1102" fill="#9A916C"/>
                    </g>
                
            </g>
            <g transform="matrix(0 1 -1 0 60.678 -16.991)">
                
                    <g transform="matrix(2.5352e-6 1 -1 2.5352e-6 57.954 -19.715)">
                        <rect id="connector55pin" x="38.438" y="17.064" width=".7937" height="4.1102" fill="#9A916C"/>
                    </g>
                
            </g>
            <g transform="matrix(0 1 -1 0 59.261 -15.574)">
                
                    <g transform="matrix(2.5352e-6 1 -1 2.5352e-6 56.537 -18.298)">
                        <rect id="connector56pin" x="37.02" y="17.064" width=".7937" height="4.1102" fill="#9A916C"/>
                    </g>
                
            </g>
            <g transform="matrix(0 1 -1 0 57.844 -14.156)">
                
                    <g transform="matrix(2.5352e-6 1 -1 2.5352e-6 55.12 -16.88)">
                        <rect id="connector57pin" x="35.603" y="17.064" width=".7937" height="4.1102" fill="#9A916C"/>
                    </g>
                
            </g>
            <g transform="matrix(0 1 -1 0 56.426 -12.739)">
                
                    <g transform="matrix(2.5352e-6 1 -1 2.5352e-6 53.702 -15.463)">
                        <rect id="connector58pin" x="34.186" y="17.064" width=".7937" height="4.1102" fill="#9A916C"/>
                    </g>
                
            </g>
            <g transform="matrix(0 1 -1 0 55.009 -11.322)">
                
                    <g transform="matrix(2.5352e-6 1 -1 2.5352e-6 52.285 -14.046)">
                        <rect id="connector59pin" x="32.769" y="17.064" width=".7937" height="4.1102" fill="#9A916C"/>
                    </g>
                
            </g>
            <circle id="connector60pin" cx="45.924" cy="5.4" r="1.4219" fill="none" stroke="#9A916C" stroke-width=".576"/>
            <circle id="connector61pin" cx="31.524" cy="5.4" r="1.4219" fill="none" stroke="#9A916C" stroke-width=".576"/>
        </g>
        <g transform="translate(40.572 25.866)">
            
                <g transform="matrix(0 1 -1 0 3.4015 -1.1335)">
                    
                        <path d="m4.245-0.4561h-3.955c-0.16 0-0.29-0.13-0.29-0.291v-1.687c0-0.16 0.13-0.29 0.29-0.29h3.955c0.16 0 0.29 0.13 0.29 0.29v1.687c0 0.161-0.13 0.291-0.29 0.291z" fill="#DCDCDC"/>
                        <g transform="matrix(2.5352e-6 1 -1 2.5352e-6 .6779 -3.8581)">
                            <rect x="1.134" y="-2.7241" width="2.268" height="2.268" fill="#6E554B"/>
                        </g>
                    
                </g>
            
        </g>
        <g transform="translate(49.006 25.228)">
            
                <g transform="matrix(0 1 -1 0 4.606 -1.063)">
                    
                        <path d="m5.386 0.8189h-5.103c-0.156 0-0.283-0.127-0.283-0.283v-2.977c0-0.156 0.127-0.283 0.283-0.283h5.102c0.157 0 0.283 0.127 0.283 0.283v2.977c1e-3 0.156-0.126 0.283-0.282 0.283z" fill="#DCDCDC"/>
                        <g transform="matrix(2.5352e-6 1 -1 2.5352e-6 1.8819 -3.7871)">
                            <rect x="1.063" y="-2.7241" width="3.543" height="3.543" fill="#6E554B"/>
                        </g>
                    
                </g>
            
        </g>
        <g transform="translate(26.892 28.026)">
            
                <g transform="matrix(0 1 -1 0 3.4015 -1.1335)">
                    
                        <path d="m4.245-0.4561h-3.955c-0.16 0-0.29-0.13-0.29-0.291v-1.687c0-0.16 0.13-0.29 0.29-0.29h3.955c0.16 0 0.29 0.13 0.29 0.29v1.687c0 0.161-0.13 0.291-0.29 0.291z" fill="#DCDCDC"/>
                        <g transform="matrix(2.5352e-6 1 -1 2.5352e-6 .6779 -3.8581)">
                            <rect x="1.134" y="-2.7241" width="2.268" height="2.268" fill="#6E554B"/>
                        </g>
                    
                </g>
            
        </g>
        <g transform="translate(44.892 25.866)">
            
                <g transform="matrix(0 1 -1 0 3.4015 -1.1335)">
                    
                        <path d="m4.245-0.4561h-3.955c-0.16 0-0.29-0.13-0.29-0.291v-1.687c0-0.16 0.13-0.29 0.29-0.29h3.955c0.16 0 0.29 0.13 0.29 0.29v1.687c0 0.161-0.13 0.291-0.29 0.291z" fill="#DCDCDC"/>
                        <g transform="matrix(2.5352e-6 1 -1 2.5352e-6 .6779 -3.8581)">
                            <rect x="1.134" y="-2.7241" width="2.268" height="2.268" fill="#6E554B"/>
                        </g>
                    
                </g>
            
        </g>
        <g transform="translate(54.418 18.3)">
            
                <g transform="matrix(0 -1 1 0 1.7 15.5)">
                    
                        <path d="m1.6 5.1241h14.2v1.4h1.4v10h-17v-10h1.4v-1.4z" fill="#666"/>
                        <g transform="matrix(-.0068 -1 1 -.0068 4.3733 24.393)">
                            <rect x="12.1" y="9.3246" width="4.4001" height="1.4"/>
                        </g>
                        <g transform="matrix(-.0068 -1 1 -.0068 -7.1033 13.193)">
                            <rect x=".8002" y="9.4242" width="4.4001" height="1.4"/>
                        </g>
                        <g transform="matrix(-.0068 -1 1 -.0068 7.3232 21.422)">
                            <rect x="13.55" y="6.3744" width="1.5" height="1.4" fill="#333"/>
                        </g>
                        <g transform="matrix(-.0068 -1 1 -.0068 -4.1533 10.223)">
                            <rect x="2.2501" y="6.474" width="1.5" height="1.4" fill="#333"/>
                        </g>
                        <g transform="matrix(-.0068 -1 1 -.0068 8.4639 17.455)">
                            <rect x="11.1" y="4.0241" width="3.6001" height="1" fill="#DCDCDC"/>
                        </g>
                        <g transform="matrix(-.0068 -1 1 -.0068 5.6449 14.654)" fill="#DCDCDC">
                            <rect x="8.2999" y="4.0238" width="3.6001" height="1"/>
                        
                        
                            <rect x="8.2999" y="4.0238" width="3.6001" height="1"/>
                        </g>
                        <g transform="matrix(-.0068 -1 1 -.0068 2.7246 11.754)">
                            <rect x="5.3997" y="4.0242" width="3.6001" height="1" fill="#DCDCDC"/>
                        </g>
                        <g transform="matrix(-.0068 -1 1 -.0068 -.1937 9.0555)">
                            <rect x="2.6002" y="4.1239" width="3.6001" height="1" fill="#DCDCDC"/>
                        </g>
                        <path d="m0.2 11.624v-5-0.1h1.4v-0.7-0.7h2.2v0.3 0.7 0.3h0.2 0.5 0.3v-1.3h1.8v0.2 0.7 0.4h1v-0.7-0.6h1.8v0.1 0.1s0 0.3 0 0.5v0.5h1v-1.4h0.9 0.9s0 0.3 0 0.6v0.6h0.3 0.5 0.2v-1.2h2.4v1.4h1.4v1.7 5 3.4h-3.3-8.5-5.3l0.3-4.8zm3.5 0.4v-4.9-0.6l-0.7-0.1h-0.7s0 4.3 0 5.1v0.7h0.7 0.7v-0.2zm11.4 0.2v-5.7-0.1h-0.7-0.7s0 1.9 0 4.6v1.2h0.7 0.7z"/>
                        <path d="m2.3 7.8241v-0.7-0.6h0.1 1 0.4v0.5 0.7 0.2h-0.8l-0.7-0.1z"/>
                        <path d="m13.6 7.6241v-0.7-0.6h0.1 0.7 0.6v0.1 0.7 0.6h-1.4v-0.1z"/>
                        <g transform="matrix(-2.5352e-6 -1 1 -2.5352e-6 -16.924 20.924)">
                            <ellipse cx="2" cy="18.924" rx="2" ry="2"/>
                        </g>
                        <g transform="matrix(-2.5352e-6 -1 1 -2.5352e-6 -12.424 25.424)">
                            <ellipse cx="6.5" cy="18.924" rx="2" ry="2" fill="#f00"/>
                        </g>
                        <g transform="matrix(-2.5352e-6 -1 1 -2.5352e-6 -7.8241 30.024)">
                            <ellipse cx="11.1" cy="18.924" rx="2" ry="2" fill="#00f"/>
                        </g>
                        <g transform="matrix(-2.5352e-6 -1 1 -2.5352e-6 -3.3241 34.524)">
                            <ellipse cx="15.6" cy="18.924" rx="2" ry="2" fill="#ff0"/>
                        </g>
                    
                </g>
            
        </g>
        <g transform="translate(.38157 18.3)">
            
                <g transform="matrix(0 1 -1 0 15.5 -1.7)">
                    
                        <path d="m1.6-0.3241h14.2v1.4h1.4v10h-17v-10h1.4v-1.4z" fill="#666"/>
                        <g transform="matrix(.0068 1 -1 .0068 18.779 -9.7548)">
                            <rect x="12.1" y="3.8764" width="4.4001" height="1.4"/>
                        </g>
                        <g transform="matrix(.0068 1 -1 .0068 7.6557 1.6439)">
                            <rect x=".8002" y="3.976" width="4.4001" height="1.4"/>
                        </g>
                        <g transform="matrix(.0068 1 -1 .0068 15.829 -12.685)">
                            <rect x="13.55" y=".9261" width="1.5" height="1.4" fill="#333"/>
                        </g>
                        <g transform="matrix(.0068 1 -1 .0068 4.7054 -1.286)">
                            <rect x="2.2501" y="1.0257" width="1.5" height="1.4" fill="#333"/>
                        </g>
                        <g transform="matrix(.0068 1 -1 .0068 11.888 -13.818)">
                            <rect x="11.1" y="-1.4242" width="3.6001" height="1" fill="#DCDCDC"/>
                        </g>
                        <g transform="matrix(.0068 1 -1 .0068 9.1068 -11.018)" fill="#DCDCDC">
                            <rect x="8.2999" y="-1.4244" width="3.6001" height="1"/>
                        
                        
                            <rect x="8.2999" y="-1.4244" width="3.6001" height="1"/>
                        </g>
                        <g transform="matrix(.0068 1 -1 .0068 6.2267 -8.1173)">
                            <rect x="5.3997" y="-1.424" width="3.6001" height="1" fill="#DCDCDC"/>
                        </g>
                        <g transform="matrix(.0068 1 -1 .0068 3.546 -5.2188)">
                            <rect x="2.6002" y="-1.3243" width="3.6001" height="1" fill="#DCDCDC"/>
                        </g>
                        <path d="m0.2 6.1759v-5-0.1h1.4v-0.7-0.7h2.2v0.3 0.7 0.3h0.2 0.5 0.3v-1.3h1.8v0.2 0.7 0.4h1v-0.7-0.6h1.8v0.1 0.1s0 0.3 0 0.5v0.5h1v-1.4h0.9 0.9s0 0.3 0 0.6v0.6h0.3 0.5 0.2v-1.2h2.4v1.4h1.4v1.7 5 3.4h-3.3-8.5-5.3l0.3-4.8zm3.5 0.4v-4.9-0.6l-0.7-0.1h-0.7s0 4.3 0 5.1v0.7h0.7 0.7v-0.2zm11.4 0.1999v-5.7-0.1h-0.7-0.7s0 1.9 0 4.6v1.2h0.7 0.7z"/>
                        <path d="m2.3 2.3759v-0.7-0.6h0.1 1 0.4v0.5 0.7 0.2h-0.8l-0.7-0.1z"/>
                        <path d="m13.6 2.1759v-0.7-0.6h0.1 0.7 0.6v0.1 0.7 0.6h-1.4v-0.1z"/>
                        <g transform="matrix(2.5352e-6 1 -1 2.5352e-6 15.476 11.476)">
                            <ellipse cx="2" cy="13.476" rx="2" ry="2"/>
                        </g>
                        <g transform="matrix(2.5352e-6 1 -1 2.5352e-6 19.976 6.9758)">
                            <ellipse cx="6.5" cy="13.476" rx="2" ry="2" fill="#f00"/>
                        </g>
                        <g transform="matrix(2.5352e-6 1 -1 2.5352e-6 24.576 2.3758)">
                            <ellipse cx="11.1" cy="13.476" rx="2" ry="2" fill="#00f"/>
                        </g>
                        <g transform="matrix(2.5352e-6 1 -1 2.5352e-6 29.076 -2.1242)">
                            <ellipse cx="15.6" cy="13.476" rx="2" ry="2" fill="#ff0"/>
                        </g>
                    
                </g>
            
        </g>
        <g transform="translate(8.946 12.492)">
            
                <g transform="matrix(0 -1 1 0 -1.1335 3.4015)">
                    
                        <path d="m2.268 3.0141v3.955c0 0.16-0.13 0.29-0.29 0.29h-1.688c-0.16 0-0.29-0.13-0.29-0.29v-3.955c0-0.16 0.13-0.29 0.29-0.29h1.687c0.161 0 0.291 0.13 0.291 0.29z" fill="#DCDCDC"/>
                        <g transform="matrix(-2.5352e-6 -1 1 -2.5352e-6 -3.8576 6.1258)">
                            <rect x="1e-4" y="3.8577" width="2.268" height="2.268" fill="#0f0"/>
                        </g>
                        <circle cx="1.134" cy="4.9921" r=".354" fill="#00B400"/>
                    
                </g>
            
        </g>
        <g transform="translate(17.784 25.092)">
            
                <g transform="matrix(0 -1 1 0 2.268 6.803)">
                    
                        
                            <g transform="matrix(-2.5352e-6 -1 1 -2.5352e-6 -4.0701 5.9131)">
                                <rect x="-1.346" y="4.0701" width="4.535" height="1.843" fill="#DCDCDC"/>
                            </g>
                            <g transform="matrix(-2.5352e-6 -1 1 -2.5352e-6 -1.5901 8.3931)">
                                <rect x="1.134" y="4.2831" width="4.535" height="1.417" fill="#DCDCDC"/>
                            </g>
                            <g transform="matrix(-2.5352e-6 -1 1 -2.5352e-6 .6779 10.661)">
                                <rect x="3.402" y="4.2831" width="4.535" height="1.417" fill="#DCDCDC"/>
                            </g>
                            <g transform="matrix(-2.5352e-6 -1 1 -2.5352e-6 3.1579 13.141)">
                                <rect x="5.882" y="4.0701" width="4.535" height="1.843" fill="#DCDCDC"/>
                            </g>
                            <g transform="matrix(-2.5352e-6 -1 1 -2.5352e-6 -.4561 9.5271)">
                                <rect x="3.118" y=".4561" width="2.835" height="9.071" fill="#303030"/>
                            </g>
                        
                    
                </g>
            
        </g>
        <g transform="translate(17.092 9.489)">
            
                <g transform="matrix(-1 0 0 -1 9.78 9.777)">
                    
                        <path d="m9.5083 2.6915c-0.032-0.2-0.141-0.257-0.403-0.341-0.199-0.064-1.533-0.489-1.533-0.489s-0.93-0.351-1.619 0.146c-0.093 0.066-0.189 0.143-0.286 0.224 0.082-0.097 0.158-0.193 0.224-0.286 0.495-0.69 0.143-1.619 0.143-1.619s-0.427-1.334-0.492-1.533c-0.085-0.262-0.142-0.37-0.342-0.402s-0.288 0.054-0.449 0.277c-0.122 0.17-0.939 1.307-0.939 1.307s-0.621 0.777-0.361 1.586c0.034 0.109 0.077 0.224 0.125 0.341-0.067-0.108-0.135-0.209-0.203-0.302-0.503-0.684-1.496-0.636-1.496-0.636s-1.4-6e-3 -1.61-6e-3c-0.275-1e-3 -0.396 0.02-0.488 0.201-0.091 0.181-0.037 0.291 0.126 0.513 0.124 0.169 0.953 1.297 0.953 1.297s0.546 0.83 1.395 0.834c0.114 0 0.236-5e-3 0.362-0.014-0.122 0.03-0.24 0.064-0.348 0.1-0.806 0.267-1.067 1.226-1.067 1.226s-0.438 1.33-0.503 1.529c-0.086 0.261-0.103 0.383 0.04 0.526 0.144 0.143 0.265 0.126 0.526 0.04 0.199-0.065 1.528-0.506 1.528-0.506s0.958-0.263 1.224-1.07c0.036-0.108 0.069-0.225 0.1-0.348-9e-3 0.126-0.014 0.248-0.013 0.362 5e-3 0.849 0.836 1.394 0.836 1.394s1.13 0.827 1.298 0.951c0.223 0.162 0.333 0.216 0.514 0.124s0.201-0.213 0.2-0.488c-1e-3 -0.21-9e-3 -1.61-9e-3 -1.61s0.047-0.993-0.639-1.495c-0.092-0.067-0.194-0.135-0.301-0.202 0.117 0.047 0.232 0.09 0.34 0.124 0.81 0.258 1.584-0.364 1.584-0.364s1.136-0.819 1.306-0.941c0.223-0.161 0.309-0.249 0.277-0.45zm-4.822-1.031c0.152 0.024 0.228 0.349 0.169 0.726s-0.231 0.662-0.384 0.638-0.229-0.349-0.169-0.725c0.059-0.377 0.231-0.663 0.384-0.639zm-1.956 0.999c0.07-0.138 0.402-0.11 0.742 0.063s0.558 0.425 0.488 0.563-0.402 0.11-0.742-0.063-0.558-0.425-0.488-0.563zm1.031 1.878c-0.269 0.27-0.577 0.4-0.686 0.291s0.02-0.416 0.29-0.686c0.269-0.27 0.576-0.4 0.686-0.291 0.109 0.109-0.021 0.416-0.29 0.686zm1.484 0.633c-0.138 0.07-0.39-0.148-0.563-0.487-0.174-0.34-0.203-0.673-0.065-0.743s0.39 0.148 0.563 0.487c0.173 0.34 0.202 0.672 0.065 0.743zm0.357-1.573c-0.377 0.06-0.701-0.015-0.726-0.168-0.024-0.153 0.262-0.325 0.638-0.385 0.377-0.06 0.701 0.015 0.726 0.168 0.024 0.153-0.261 0.325-0.638 0.385z" fill="#DCDCDC"/>
                    
                </g>
            
        </g>
        <g transform="translate(31.054 21.206)">
            
                <rect x="10.122" width=".68" height="13.748" fill="#DCDCDC"/>
                <rect x="8.7047" width=".68" height="13.748" fill="#DCDCDC"/>
                <rect x="7.2874" width=".68" height="13.748" fill="#DCDCDC"/>
                <rect x="5.8701" width=".68" height="13.748" fill="#DCDCDC"/>
                <rect x="4.4527" width=".68" height="13.748" fill="#DCDCDC"/>
                <path d="m4.2685 2.6221h6.8031c0.4697 0 0.8504 0.3807 0.8504 0.8504v6.8031c0 0.4697-0.3807 0.8504-0.8504 0.8504h-6.8031c-0.4697 0-0.8504-0.3807-0.8504-0.8504v-6.8032c0-0.4696 0.3807-0.8503 0.8504-0.8503z" clip-rule="evenodd" fill="#333" fill-rule="evenodd"/>
                <ellipse cx="4.5517" cy="9.8068" rx=".5672" ry=".5784"/>
            
        </g>
    </g>
</svg>
