<?xml version="1.0" encoding="UTF-8"?>
<svg width="25.4mm" height="24.534mm" version="1.1" viewBox="0 0 72 69.545" xmlns="http://www.w3.org/2000/svg">
 <desc>
  <referenceFile>Adafruit RP2350 HSTX to DVI Adapter_breadboard.svg</referenceFile>
 </desc>
 <!-- Generator: Adobe Illustrator 28.7.1, SVG Export Plug-In . SVG Version: 1.2.0 Build 142)  -->
 <g id="breadboard">
  <g id="icon">
   <path d="m0 11.945c0-3.9764 3.2235-7.2 7.2-7.2h57.6c3.9764 0 7.2 3.2236 7.2 7.2v50.4c0 3.9764-3.2235 7.2-7.2 7.2h-57.6c-3.9764 0-7.2-3.2235-7.2-7.2v-50.4m3.6567 0c-0.0033 1.9569 1.5804 3.546 3.5373 3.5493s3.546-1.5804 3.5493-3.5373v-0.012c0.0033-1.9569-1.5804-3.546-3.5374-3.5493-1.9569-0.0033-3.546 1.5804-3.5493 3.5374v0.0119zm57.6 0c-0.0034 1.9569 1.5802 3.5461 3.5371 3.5495s3.5461-1.5802 3.5495-3.5371v-0.0125c0.0034-1.9569-1.5802-3.5461-3.5371-3.5495s-3.5461 1.5802-3.5495 3.5371v0.0125zm-57.6 50.4c-0.0033 1.9569 1.5804 3.546 3.5373 3.5493s3.546-1.5804 3.5493-3.5373v-0.012c0.0033-1.9569-1.5804-3.546-3.5374-3.5493-1.9569-0.0033-3.546 1.5804-3.5493 3.5374v0.0119zm57.6 0c-0.0034 1.9569 1.5802 3.5461 3.5371 3.5495s3.5461-1.5802 3.5495-3.5371v-0.0125c0.0034-1.9569-1.5802-3.5461-3.5371-3.5495s-3.5461 1.5802-3.5495 3.5371v0.0125zm-5.5559-35.274c-0.0011 0.4697 0.3787 0.8513 0.8483 0.8525 0.4697 0.0011 0.8513-0.3787 0.8525-0.8483v-0.0041c0.0011-0.4697-0.3787-0.8513-0.8483-0.8525-0.4697-0.0011-0.8513 0.3787-0.8525 0.8483v0.0041zm-41.102 0c-9e-4 0.4697 0.3791 0.8511 0.8488 0.852s0.8511-0.3791 0.852-0.8488v-0.0032c1e-3 -0.4697-0.3789-0.8512-0.8485-0.8522-0.4697-1e-3 -0.8512 0.3789-0.8522 0.8485v0.0037zm0-16.894c-9e-4 0.4697 0.3791 0.8511 0.8488 0.852s0.8511-0.3791 0.852-0.8488v-0.0032c1e-3 -0.4697-0.3789-0.8512-0.8485-0.8522-0.4697-1e-3 -0.8512 0.3789-0.8522 0.8485v0.0037zm41.102 0c-0.0011 0.4697 0.3787 0.8513 0.8483 0.8525 0.4697 0.0011 0.8513-0.3787 0.8525-0.8483v-0.0041c0.0011-0.4697-0.3787-0.8513-0.8483-0.8525-0.4697-0.0011-0.8513 0.3787-0.8525 0.8483v0.0041z"/>
   <g fill="none" stroke="#fff">
    <line x1="64.44" x2="64.44" y1="31.385" y2="34.265" stroke-linecap="round" stroke-width=".864"/>
    <line x1="50.4" x2="53.28" y1="39.305" y2="39.305" stroke-linecap="round" stroke-width=".864"/>
    <line x1="67.986" x2="70.254" y1="40.205" y2="40.205" stroke-linecap="round" stroke-width=".864"/>
    <line x1="5.4539" x2="3.1861" y1="29.585" y2="29.585" stroke-linecap="round" stroke-width=".864"/>
    <line x1="9.3061" x2="11.574" y1="28.865" y2="28.865" stroke-linecap="round" stroke-width=".864"/>
    <g stroke-linecap="round" stroke-width=".576">
     <line x1="19.843" x2="14.74" y1="56.33" y2="56.33"/>
     <line x1="14.74" x2="14.74" y1="56.33" y2="59.732"/>
     <line x1="54.142" x2="57.543" y1="56.33" y2="56.33"/>
     <line x1="57.543" x2="57.543" y1="56.33" y2="59.732"/>
    </g>
    <g stroke-width=".576">
     <line x1="18.598" x2="18.598" y1="40.941" y2="38.39" stroke-linecap="round"/>
     <line x1="12.362" x2="12.362" y1="40.941" y2="38.39" stroke-linecap="round"/>
     <circle cx="19.732" cy="38.673" r=".2835"/>
    </g>
    <g stroke-linecap="round" stroke-width=".576">
     <line x1="3.5915" x2="11.528" y1="34.279" y2="34.279"/>
     <line x1="11.528" x2="3.5915" y1="45.051" y2="45.051"/>
    </g>
    <g stroke-linecap="round" stroke-width=".576">
     <line x1="20.534" x2="20.534" y1="43.274" y2="35.337"/>
     <line x1="31.306" x2="31.306" y1="35.337" y2="43.274"/>
    </g>
    <line x1="63.054" x2="60.786" y1="23.645" y2="23.645" stroke-linecap="round" stroke-width=".864"/>
    <line x1="68.094" x2="65.826" y1="23.285" y2="23.285" stroke-linecap="round" stroke-width=".864"/>
    <g stroke-linecap="round" stroke-width=".576">
     <line x1="32.054" x2="32.054" y1="43.274" y2="35.337"/>
     <line x1="42.826" x2="42.826" y1="35.337" y2="43.274"/>
    </g>
    <circle cx="7.2" cy="11.945" r="5.6693" stroke-width=".576"/>
    <circle cx="64.8" cy="11.945" r="5.6693" stroke-width=".576"/>
    <circle cx="7.2" cy="62.345" r="5.6693" stroke-width=".576"/>
    <circle cx="64.8" cy="62.345" r="5.6693" stroke-width=".576"/>
    <g stroke-width=".576">
     <line x1="63.468" x2="58.932" y1="36.455" y2="36.455" stroke-linecap="round"/>
     <line x1="58.932" x2="63.468" y1="44.675" y2="44.675" stroke-linecap="round"/>
     <circle cx="60.208" cy="37.872" r=".2835"/>
    </g>
    <g stroke-linecap="round" stroke-width=".576">
     <line x1="56.551" x2="56.551" y2="5.1307"/>
     <line x1="56.551" x2="56.551" y1="15.052" y2="21.43"/>
     <line x1="55.134" x2="50.173" y1="32.06" y2="32.06"/>
     <line x1="21.827" x2="16.866" y1="32.06" y2="32.06"/>
     <line x1="56.551" x2="15.449"/>
     <line x1="15.449" x2="15.449" y2="5.1307"/>
     <line x1="15.449" x2="15.449" y1="15.052" y2="21.43"/>
    </g>
   </g>
   <g fill="#fff">
    <rect x="64.91" y="45.319" width=".3685" height=".085"/>
    <rect x="64.854" y="45.376" width=".4819" height=".0567"/>
    <rect x="64.797" y="45.432" width=".5953" height=".0567"/>
    <rect x="64.74" y="45.489" width=".7087" height=".0567"/>
    <rect x="54.054" y="45.546" width=".737" height=".0567"/>
    <rect x="57.172" y="45.546" width=".737" height=".0567"/>
    <rect x="64.684" y="45.546" width=".8504" height=".0567"/>
    <rect x="53.884" y="45.602" width="1.0772" height=".0567"/>
    <rect x="57.002" y="45.602" width="1.0772" height=".0567"/>
    <rect x="64.684" y="45.602" width=".8504" height=".0567"/>
    <rect x="53.714" y="45.659" width="1.4173" height=".0567"/>
    <rect x="56.832" y="45.659" width="1.4173" height=".0567"/>
    <rect x="64.684" y="45.659" width=".8504" height=".0567"/>
    <rect x="53.629" y="45.716" width="1.5591" height=".0567"/>
    <rect x="56.747" y="45.716" width="1.5874" height=".0567"/>
    <rect x="64.684" y="45.716" width=".8504" height=".0567"/>
    <rect x="53.572" y="45.772" width="1.7575" height=".0567"/>
    <rect x="56.69" y="45.772" width="1.7575" height=".0567"/>
    <rect x="64.684" y="45.772" width=".8504" height=".0567"/>
    <rect x="53.515" y="45.857" width="1.8709" height=".085"/>
    <rect x="56.633" y="45.857" width="1.8709" height=".085"/>
    <rect x="64.684" y="45.857" width=".8504" height=".085"/>
    <rect x="53.459" y="45.914" width="1.9843" height=".0567"/>
    <rect x="56.577" y="45.914" width="1.9843" height=".0567"/>
    <rect x="64.74" y="45.914" width=".7087" height=".0567"/>
    <rect x="53.402" y="45.971" width="2.041" height=".0567"/>
    <rect x="56.52" y="45.971" width="2.041" height=".0567"/>
    <rect x="64.797" y="45.971" width=".5953" height=".0567"/>
    <rect x="53.345" y="46.028" width="2.1543" height=".0567"/>
    <rect x="56.463" y="46.028" width="2.1543" height=".0567"/>
    <rect x="64.854" y="46.028" width=".4819" height=".0567"/>
    <rect x="53.345" y="46.084" width="2.211" height=".0567"/>
    <rect x="56.463" y="46.084" width="2.211" height=".0567"/>
    <rect x="64.91" y="46.084" width=".3685" height=".0567"/>
    <rect x="53.288" y="46.141" width=".9638" height=".0567"/>
    <rect x="54.592" y="46.141" width=".9638" height=".0567"/>
    <rect x="56.407" y="46.141" width=".9638" height=".0567"/>
    <rect x="57.71" y="46.141" width=".9638" height=".0567"/>
    <rect x="53.288" y="46.198" width=".822" height=".0567"/>
    <rect x="54.734" y="46.198" width=".822" height=".0567"/>
    <rect x="56.407" y="46.198" width=".822" height=".0567"/>
    <rect x="57.852" y="46.198" width=".822" height=".0567"/>
    <rect x="53.288" y="46.254" width=".7654" height=".0567"/>
    <rect x="54.791" y="46.254" width=".822" height=".0567"/>
    <rect x="56.407" y="46.254" width=".7654" height=".0567"/>
    <rect x="57.909" y="46.254" width=".822" height=".0567"/>
    <rect x="53.288" y="46.339" width=".7654" height=".085"/>
    <rect x="54.848" y="46.339" width=".7654" height=".085"/>
    <rect x="56.407" y="46.339" width=".7654" height=".085"/>
    <rect x="57.966" y="46.339" width=".7654" height=".085"/>
    <rect x="53.232" y="46.396" width=".7654" height=".0567"/>
    <rect x="54.848" y="46.396" width=".7654" height=".0567"/>
    <rect x="56.35" y="46.396" width=".7654" height=".0567"/>
    <rect x="57.966" y="46.396" width=".7654" height=".0567"/>
    <rect x="53.232" y="46.453" width=".7654" height=".0567"/>
    <rect x="54.904" y="46.453" width=".7087" height=".0567"/>
    <rect x="56.35" y="46.453" width=".7654" height=".0567"/>
    <rect x="58.022" y="46.453" width=".7087" height=".0567"/>
    <rect x="53.232" y="46.51" width=".7087" height=".0567"/>
    <rect x="54.904" y="46.51" width=".7087" height=".0567"/>
    <rect x="56.35" y="46.51" width=".7087" height=".0567"/>
    <rect x="58.022" y="46.51" width=".7087" height=".0567"/>
    <rect x="53.232" y="46.566" width=".7087" height=".0567"/>
    <rect x="54.904" y="46.566" width=".7087" height=".0567"/>
    <rect x="56.35" y="46.566" width=".7087" height=".0567"/>
    <rect x="58.022" y="46.566" width=".7087" height=".0567"/>
    <rect x="53.232" y="46.623" width=".7087" height=".0567"/>
    <rect x="54.904" y="46.623" width=".7087" height=".0567"/>
    <rect x="56.35" y="46.623" width=".7087" height=".0567"/>
    <rect x="58.022" y="46.623" width=".7087" height=".0567"/>
    <rect x="53.232" y="46.68" width=".7087" height=".0567"/>
    <rect x="54.904" y="46.68" width=".7087" height=".0567"/>
    <rect x="56.35" y="46.68" width=".7087" height=".0567"/>
    <rect x="58.022" y="46.68" width=".7087" height=".0567"/>
    <rect x="62.87" y="46.68" width=".5386" height=".0567"/>
    <rect x="67.49" y="46.68" width=".5386" height=".0567"/>
    <rect x="54.904" y="46.736" width=".652" height=".0567"/>
    <rect x="58.022" y="46.736" width=".652" height=".0567"/>
    <rect x="61.622" y="46.736" width=".7087" height=".0567"/>
    <rect x="62.7" y="46.736" width=".9071" height=".0567"/>
    <rect x="64.74" y="46.736" width=".7087" height=".0567"/>
    <rect x="66.186" y="46.736" width=".7087" height=".0567"/>
    <rect x="67.32" y="46.736" width=".9071" height=".0567"/>
    <rect x="54.848" y="46.793" width=".7087" height=".0567"/>
    <rect x="57.966" y="46.793" width=".7087" height=".0567"/>
    <rect x="61.622" y="46.793" width=".7087" height=".0567"/>
    <rect x="62.586" y="46.793" width="1.1339" height=".0567"/>
    <rect x="64.74" y="46.793" width=".7087" height=".0567"/>
    <rect x="66.186" y="46.793" width=".7087" height=".0567"/>
    <rect x="67.207" y="46.793" width="1.1339" height=".0567"/>
    <rect x="54.848" y="46.878" width=".7087" height=".085"/>
    <rect x="57.966" y="46.878" width=".7087" height=".085"/>
    <rect x="61.622" y="46.878" width=".7087" height=".085"/>
    <rect x="62.53" y="46.878" width="1.2472" height=".085"/>
    <rect x="64.74" y="46.878" width=".7087" height=".085"/>
    <rect x="66.186" y="46.878" width=".7087" height=".085"/>
    <rect x="67.15" y="46.878" width="1.2472" height=".085"/>
    <rect x="54.791" y="46.935" width=".7654" height=".0567"/>
    <rect x="57.909" y="46.935" width=".7654" height=".0567"/>
    <rect x="61.622" y="46.935" width=".7087" height=".0567"/>
    <rect x="62.473" y="46.935" width="1.3606" height=".0567"/>
    <rect x="64.74" y="46.935" width=".7087" height=".0567"/>
    <rect x="66.186" y="46.935" width=".7087" height=".0567"/>
    <rect x="67.008" y="46.935" width="1.4457" height=".0567"/>
    <rect x="54.791" y="46.991" width=".7087" height=".0567"/>
    <rect x="57.909" y="46.991" width=".7087" height=".0567"/>
    <rect x="61.622" y="46.991" width=".7087" height=".0567"/>
    <rect x="62.388" y="46.991" width="1.5024" height=".0567"/>
    <rect x="64.74" y="46.991" width=".7087" height=".0567"/>
    <rect x="66.186" y="46.991" width=".7087" height=".0567"/>
    <rect x="66.952" y="46.991" width="1.5591" height=".0567"/>
    <rect x="54.734" y="47.048" width=".7654" height=".0567"/>
    <rect x="57.852" y="47.048" width=".7654" height=".0567"/>
    <rect x="61.622" y="47.048" width="2.3244" height=".0567"/>
    <rect x="64.74" y="47.048" width=".7087" height=".0567"/>
    <rect x="66.186" y="47.048" width="2.3244" height=".0567"/>
    <rect x="54.649" y="47.105" width=".7937" height=".0567"/>
    <rect x="57.767" y="47.105" width=".7937" height=".0567"/>
    <rect x="61.622" y="47.105" width="2.4094" height=".0567"/>
    <rect x="64.74" y="47.105" width=".7087" height=".0567"/>
    <rect x="66.186" y="47.105" width="2.3811" height=".0567"/>
    <rect x="54.649" y="47.161" width=".7937" height=".0567"/>
    <rect x="57.767" y="47.161" width=".7937" height=".0567"/>
    <rect x="61.622" y="47.161" width="2.4094" height=".0567"/>
    <rect x="64.74" y="47.161" width=".7087" height=".0567"/>
    <rect x="66.186" y="47.161" width="2.3811" height=".0567"/>
    <rect x="54.592" y="47.218" width=".7937" height=".0567"/>
    <rect x="57.71" y="47.218" width=".7937" height=".0567"/>
    <rect x="61.622" y="47.218" width="1.0772" height=".0567"/>
    <rect x="63.068" y="47.218" width="1.0205" height=".0567"/>
    <rect x="64.74" y="47.218" width=".7087" height=".0567"/>
    <rect x="66.186" y="47.218" width="1.1339" height=".0567"/>
    <rect x="67.688" y="47.218" width=".8787" height=".0567"/>
    <rect x="54.536" y="47.275" width=".8504" height=".0567"/>
    <rect x="57.654" y="47.275" width=".8504" height=".0567"/>
    <rect x="61.622" y="47.275" width=".9638" height=".0567"/>
    <rect x="63.181" y="47.275" width=".9071" height=".0567"/>
    <rect x="64.74" y="47.275" width=".7087" height=".0567"/>
    <rect x="66.186" y="47.275" width=".9638" height=".0567"/>
    <rect x="67.745" y="47.275" width=".9071" height=".0567"/>
    <rect x="54.536" y="47.332" width=".7937" height=".0567"/>
    <rect x="57.654" y="47.332" width=".7937" height=".0567"/>
    <rect x="61.622" y="47.332" width=".8504" height=".0567"/>
    <rect x="63.295" y="47.332" width=".7937" height=".0567"/>
    <rect x="64.74" y="47.332" width=".7087" height=".0567"/>
    <rect x="66.186" y="47.332" width=".9071" height=".0567"/>
    <rect x="67.802" y="47.332" width=".8504" height=".0567"/>
    <rect x="54.479" y="47.416" width=".7937" height=".085"/>
    <rect x="57.597" y="47.416" width=".7937" height=".085"/>
    <rect x="61.622" y="47.416" width=".7654" height=".085"/>
    <rect x="63.352" y="47.416" width=".7937" height=".085"/>
    <rect x="64.74" y="47.416" width=".7087" height=".085"/>
    <rect x="66.186" y="47.416" width=".822" height=".085"/>
    <rect x="67.859" y="47.416" width=".7937" height=".085"/>
    <rect x="54.422" y="47.473" width=".8504" height=".0567"/>
    <rect x="57.54" y="47.473" width=".8504" height=".0567"/>
    <rect x="61.622" y="47.473" width=".7654" height=".0567"/>
    <rect x="63.352" y="47.473" width=".7937" height=".0567"/>
    <rect x="64.74" y="47.473" width=".7087" height=".0567"/>
    <rect x="66.186" y="47.473" width=".822" height=".0567"/>
    <rect x="67.859" y="47.473" width=".7937" height=".0567"/>
    <rect x="54.366" y="47.53" width=".822" height=".0567"/>
    <rect x="57.484" y="47.53" width=".8504" height=".0567"/>
    <rect x="61.622" y="47.53" width=".7087" height=".0567"/>
    <rect x="63.408" y="47.53" width=".737" height=".0567"/>
    <rect x="64.74" y="47.53" width=".7087" height=".0567"/>
    <rect x="66.186" y="47.53" width=".7654" height=".0567"/>
    <rect x="67.859" y="47.53" width=".7937" height=".0567"/>
    <rect x="54.366" y="47.587" width=".822" height=".0567"/>
    <rect x="57.484" y="47.587" width=".8504" height=".0567"/>
    <rect x="61.622" y="47.587" width=".7087" height=".0567"/>
    <rect x="63.408" y="47.587" width=".7937" height=".0567"/>
    <rect x="64.74" y="47.587" width=".7087" height=".0567"/>
    <rect x="66.186" y="47.587" width=".7654" height=".0567"/>
    <rect x="67.915" y="47.587" width=".737" height=".0567"/>
    <rect x="54.309" y="47.643" width=".822" height=".0567"/>
    <rect x="57.427" y="47.643" width=".822" height=".0567"/>
    <rect x="61.622" y="47.643" width=".7087" height=".0567"/>
    <rect x="63.408" y="47.643" width=".7937" height=".0567"/>
    <rect x="64.74" y="47.643" width=".7087" height=".0567"/>
    <rect x="66.186" y="47.643" width=".7087" height=".0567"/>
    <rect x="67.915" y="47.643" width=".737" height=".0567"/>
    <rect x="54.252" y="47.7" width=".822" height=".0567"/>
    <rect x="57.37" y="47.7" width=".822" height=".0567"/>
    <rect x="59.525" y="47.7" width="1.389" height=".0567"/>
    <rect x="61.622" y="47.7" width=".652" height=".0567"/>
    <rect x="63.493" y="47.7" width=".7087" height=".0567"/>
    <rect x="64.74" y="47.7" width=".7087" height=".0567"/>
    <rect x="66.186" y="47.7" width=".7087" height=".0567"/>
    <rect x="67.915" y="47.7" width=".737" height=".0567"/>
    <rect x="54.167" y="47.757" width=".9071" height=".0567"/>
    <rect x="57.314" y="47.757" width=".8787" height=".0567"/>
    <rect x="59.525" y="47.757" width="1.389" height=".0567"/>
    <rect x="61.622" y="47.757" width=".652" height=".0567"/>
    <rect x="63.493" y="47.757" width=".7087" height=".0567"/>
    <rect x="64.74" y="47.757" width=".7087" height=".0567"/>
    <rect x="66.186" y="47.757" width=".7087" height=".0567"/>
    <rect x="67.915" y="47.757" width=".737" height=".0567"/>
    <rect x="54.11" y="47.813" width=".9071" height=".0567"/>
    <rect x="57.229" y="47.813" width=".9071" height=".0567"/>
    <rect x="59.525" y="47.813" width="1.389" height=".0567"/>
    <rect x="61.622" y="47.813" width=".652" height=".0567"/>
    <rect x="63.493" y="47.813" width=".7087" height=".0567"/>
    <rect x="64.74" y="47.813" width=".7087" height=".0567"/>
    <rect x="66.186" y="47.813" width=".7087" height=".0567"/>
    <rect x="67.915" y="47.813" width=".737" height=".0567"/>
    <rect x="54.11" y="47.898" width=".8504" height=".085"/>
    <rect x="57.229" y="47.898" width=".8504" height=".085"/>
    <rect x="59.525" y="47.898" width="1.389" height=".085"/>
    <rect x="61.622" y="47.898" width=".652" height=".085"/>
    <rect x="63.493" y="47.898" width=".7087" height=".085"/>
    <rect x="64.74" y="47.898" width=".7087" height=".085"/>
    <rect x="66.186" y="47.898" width=".7087" height=".085"/>
    <rect x="67.915" y="47.898" width=".737" height=".085"/>
    <rect x="54.054" y="47.955" width=".8504" height=".0567"/>
    <rect x="57.172" y="47.955" width=".8504" height=".0567"/>
    <rect x="59.525" y="47.955" width="1.389" height=".0567"/>
    <rect x="61.622" y="47.955" width=".652" height=".0567"/>
    <rect x="63.493" y="47.955" width=".7087" height=".0567"/>
    <rect x="64.74" y="47.955" width=".7087" height=".0567"/>
    <rect x="66.186" y="47.955" width=".7087" height=".0567"/>
    <rect x="67.915" y="47.955" width=".737" height=".0567"/>
    <rect x="53.997" y="48.012" width=".9071" height=".0567"/>
    <rect x="57.115" y="48.012" width=".9071" height=".0567"/>
    <rect x="59.525" y="48.012" width="1.389" height=".0567"/>
    <rect x="61.622" y="48.012" width=".652" height=".0567"/>
    <rect x="63.493" y="48.012" width=".7087" height=".0567"/>
    <rect x="64.74" y="48.012" width=".7087" height=".0567"/>
    <rect x="66.186" y="48.012" width=".7087" height=".0567"/>
    <rect x="67.915" y="48.012" width=".737" height=".0567"/>
    <rect x="53.94" y="48.068" width=".9071" height=".0567"/>
    <rect x="57.059" y="48.068" width=".9071" height=".0567"/>
    <rect x="59.525" y="48.068" width="1.389" height=".0567"/>
    <rect x="61.622" y="48.068" width=".652" height=".0567"/>
    <rect x="63.493" y="48.068" width=".7087" height=".0567"/>
    <rect x="64.74" y="48.068" width=".7087" height=".0567"/>
    <rect x="66.186" y="48.068" width=".7087" height=".0567"/>
    <rect x="67.915" y="48.068" width=".737" height=".0567"/>
    <rect x="53.94" y="48.125" width=".8504" height=".0567"/>
    <rect x="57.059" y="48.125" width=".8504" height=".0567"/>
    <rect x="59.525" y="48.125" width="1.389" height=".0567"/>
    <rect x="61.622" y="48.125" width=".652" height=".0567"/>
    <rect x="63.493" y="48.125" width=".7087" height=".0567"/>
    <rect x="64.74" y="48.125" width=".7087" height=".0567"/>
    <rect x="66.186" y="48.125" width=".7087" height=".0567"/>
    <rect x="67.915" y="48.125" width=".737" height=".0567"/>
    <rect x="53.884" y="48.182" width=".8504" height=".0567"/>
    <rect x="57.002" y="48.182" width=".8504" height=".0567"/>
    <rect x="59.525" y="48.182" width="1.389" height=".0567"/>
    <rect x="61.622" y="48.182" width=".652" height=".0567"/>
    <rect x="63.408" y="48.182" width=".7937" height=".0567"/>
    <rect x="64.74" y="48.182" width=".7087" height=".0567"/>
    <rect x="66.186" y="48.182" width=".7087" height=".0567"/>
    <rect x="67.915" y="48.182" width=".737" height=".0567"/>
    <rect x="53.827" y="48.239" width=".822" height=".0567"/>
    <rect x="56.945" y="48.239" width=".822" height=".0567"/>
    <rect x="59.525" y="48.239" width="1.389" height=".0567"/>
    <rect x="61.622" y="48.239" width=".7087" height=".0567"/>
    <rect x="63.408" y="48.239" width=".7937" height=".0567"/>
    <rect x="64.74" y="48.239" width=".7087" height=".0567"/>
    <rect x="66.186" y="48.239" width=".7087" height=".0567"/>
    <rect x="67.915" y="48.239" width=".737" height=".0567"/>
    <rect x="53.77" y="48.295" width=".8787" height=".0567"/>
    <rect x="56.888" y="48.295" width=".8787" height=".0567"/>
    <rect x="61.622" y="48.295" width=".7087" height=".0567"/>
    <rect x="63.408" y="48.295" width=".737" height=".0567"/>
    <rect x="64.74" y="48.295" width=".7087" height=".0567"/>
    <rect x="66.186" y="48.295" width=".7087" height=".0567"/>
    <rect x="67.915" y="48.295" width=".737" height=".0567"/>
    <rect x="53.714" y="48.352" width=".8787" height=".0567"/>
    <rect x="56.832" y="48.352" width=".8787" height=".0567"/>
    <rect x="61.622" y="48.352" width=".7654" height=".0567"/>
    <rect x="63.352" y="48.352" width=".7937" height=".0567"/>
    <rect x="64.74" y="48.352" width=".7087" height=".0567"/>
    <rect x="66.186" y="48.352" width=".7087" height=".0567"/>
    <rect x="67.915" y="48.352" width=".737" height=".0567"/>
    <rect x="53.714" y="48.437" width=".822" height=".085"/>
    <rect x="56.832" y="48.437" width=".822" height=".085"/>
    <rect x="61.622" y="48.437" width=".7654" height=".085"/>
    <rect x="63.352" y="48.437" width=".7937" height=".085"/>
    <rect x="64.74" y="48.437" width=".7087" height=".085"/>
    <rect x="66.186" y="48.437" width=".7087" height=".085"/>
    <rect x="67.915" y="48.437" width=".737" height=".085"/>
    <rect x="53.629" y="48.494" width=".8504" height=".0567"/>
    <rect x="56.747" y="48.494" width=".8504" height=".0567"/>
    <rect x="61.622" y="48.494" width=".8504" height=".0567"/>
    <rect x="63.295" y="48.494" width=".8504" height=".0567"/>
    <rect x="64.74" y="48.494" width=".7087" height=".0567"/>
    <rect x="66.186" y="48.494" width=".7087" height=".0567"/>
    <rect x="67.915" y="48.494" width=".737" height=".0567"/>
    <rect x="53.572" y="48.55" width=".8504" height=".0567"/>
    <rect x="56.69" y="48.55" width=".8504" height=".0567"/>
    <rect x="61.622" y="48.55" width=".9071" height=".0567"/>
    <rect x="63.181" y="48.55" width=".9071" height=".0567"/>
    <rect x="64.74" y="48.55" width=".7087" height=".0567"/>
    <rect x="66.186" y="48.55" width=".7087" height=".0567"/>
    <rect x="67.915" y="48.55" width=".737" height=".0567"/>
    <rect x="53.515" y="48.607" width="2.0976" height=".0567"/>
    <rect x="56.633" y="48.607" width="2.0976" height=".0567"/>
    <rect x="61.622" y="48.607" width="1.0772" height=".0567"/>
    <rect x="63.068" y="48.607" width="1.0205" height=".0567"/>
    <rect x="64.74" y="48.607" width=".7087" height=".0567"/>
    <rect x="66.186" y="48.607" width=".7087" height=".0567"/>
    <rect x="67.915" y="48.607" width=".737" height=".0567"/>
    <rect x="53.515" y="48.664" width="2.0976" height=".0567"/>
    <rect x="56.633" y="48.664" width="2.0976" height=".0567"/>
    <rect x="61.622" y="48.664" width="2.4094" height=".0567"/>
    <rect x="64.74" y="48.664" width=".7087" height=".0567"/>
    <rect x="66.186" y="48.664" width=".7087" height=".0567"/>
    <rect x="67.915" y="48.664" width=".737" height=".0567"/>
    <rect x="53.459" y="48.72" width="2.1543" height=".0567"/>
    <rect x="56.577" y="48.72" width="2.1543" height=".0567"/>
    <rect x="61.622" y="48.72" width="2.4094" height=".0567"/>
    <rect x="64.74" y="48.72" width=".7087" height=".0567"/>
    <rect x="66.186" y="48.72" width=".7087" height=".0567"/>
    <rect x="67.915" y="48.72" width=".737" height=".0567"/>
    <rect x="53.402" y="48.777" width="2.211" height=".0567"/>
    <rect x="56.52" y="48.777" width="2.211" height=".0567"/>
    <rect x="61.622" y="48.777" width="2.3244" height=".0567"/>
    <rect x="64.74" y="48.777" width=".7087" height=".0567"/>
    <rect x="66.186" y="48.777" width=".7087" height=".0567"/>
    <rect x="67.915" y="48.777" width=".737" height=".0567"/>
    <rect x="53.345" y="48.834" width="2.2677" height=".0567"/>
    <rect x="56.463" y="48.834" width="2.2677" height=".0567"/>
    <rect x="61.622" y="48.834" width="2.3244" height=".0567"/>
    <rect x="64.74" y="48.834" width=".7087" height=".0567"/>
    <rect x="66.186" y="48.834" width=".7087" height=".0567"/>
    <rect x="67.915" y="48.834" width=".737" height=".0567"/>
    <rect x="53.288" y="48.919" width="2.3244" height=".085"/>
    <rect x="56.407" y="48.919" width="2.3244" height=".085"/>
    <rect x="61.622" y="48.919" width=".7087" height=".085"/>
    <rect x="62.388" y="48.919" width="1.5024" height=".085"/>
    <rect x="64.74" y="48.919" width=".7087" height=".085"/>
    <rect x="66.186" y="48.919" width=".7087" height=".085"/>
    <rect x="67.915" y="48.919" width=".737" height=".085"/>
    <rect x="53.288" y="48.976" width="2.3244" height=".0567"/>
    <rect x="56.407" y="48.976" width="2.3244" height=".0567"/>
    <rect x="61.622" y="48.976" width=".7087" height=".0567"/>
    <rect x="62.473" y="48.976" width="1.3606" height=".0567"/>
    <rect x="64.74" y="48.976" width=".7087" height=".0567"/>
    <rect x="66.186" y="48.976" width=".7087" height=".0567"/>
    <rect x="67.915" y="48.976" width=".737" height=".0567"/>
    <rect x="53.232" y="49.032" width="2.3811" height=".0567"/>
    <rect x="56.35" y="49.032" width="2.3811" height=".0567"/>
    <rect x="61.622" y="49.032" width=".7087" height=".0567"/>
    <rect x="62.53" y="49.032" width="1.2472" height=".0567"/>
    <rect x="64.74" y="49.032" width=".7087" height=".0567"/>
    <rect x="66.186" y="49.032" width=".7087" height=".0567"/>
    <rect x="67.915" y="49.032" width=".737" height=".0567"/>
    <rect x="53.147" y="49.089" width="2.4661" height=".0567"/>
    <rect x="56.293" y="49.089" width="2.4378" height=".0567"/>
    <rect x="61.622" y="49.089" width=".7087" height=".0567"/>
    <rect x="62.586" y="49.089" width="1.0772" height=".0567"/>
    <rect x="64.74" y="49.089" width=".7087" height=".0567"/>
    <rect x="66.186" y="49.089" width=".7087" height=".0567"/>
    <rect x="67.915" y="49.089" width=".737" height=".0567"/>
    <rect x="53.09" y="49.146" width="2.5228" height=".0567"/>
    <rect x="56.208" y="49.146" width="2.5228" height=".0567"/>
    <rect x="61.622" y="49.146" width=".7087" height=".0567"/>
    <rect x="62.7" y="49.146" width=".9071" height=".0567"/>
    <rect x="64.74" y="49.146" width=".7087" height=".0567"/>
    <rect x="66.186" y="49.146" width=".7087" height=".0567"/>
    <rect x="67.915" y="49.146" width=".737" height=".0567"/>
    <rect x="61.622" y="49.202" width=".7087" height=".0567"/>
    <rect x="62.87" y="49.202" width=".5386" height=".0567"/>
    <rect x="61.622" y="49.259" width=".7087" height=".0567"/>
    <rect x="61.622" y="49.316" width=".7087" height=".0567"/>
    <rect x="61.622" y="49.372" width=".7087" height=".0567"/>
    <rect x="61.622" y="49.457" width=".7087" height=".085"/>
    <rect x="61.622" y="49.514" width=".7087" height=".0567"/>
    <rect x="61.622" y="49.571" width=".7087" height=".0567"/>
    <rect x="61.622" y="49.628" width=".7087" height=".0567"/>
    <rect x="61.622" y="49.684" width=".7087" height=".0567"/>
    <rect x="61.622" y="49.741" width=".7087" height=".0567"/>
    <rect x="61.622" y="49.798" width=".7087" height=".0567"/>
    <rect x="61.622" y="49.854" width=".7087" height=".0567"/>
    <rect x="61.622" y="49.911" width=".7087" height=".0567"/>
    <rect x="61.622" y="49.996" width=".7087" height=".085"/>
    <rect x="61.622" y="50.053" width=".7087" height=".0567"/>
    <rect x="61.622" y="50.11" width=".7087" height=".0567"/>
    <rect x="61.622" y="50.166" width=".7087" height=".0567"/>
    <rect x="61.622" y="50.223" width=".7087" height=".0567"/>
    <rect x="61.622" y="50.28" width=".7087" height=".0567"/>
    <rect x="58.079" y="51.3" width=".652" height=".0567"/>
    <rect x="53.345" y="51.357" width=".7654" height=".0567"/>
    <rect x="55.67" y="51.357" width=".7937" height=".0567"/>
    <rect x="57.852" y="51.357" width="1.0772" height=".0567"/>
    <rect x="59.808" y="51.357" width="2.5795" height=".0567"/>
    <rect x="62.53" y="51.357" width=".822" height=".0567"/>
    <rect x="64.684" y="51.357" width=".8504" height=".0567"/>
    <rect x="53.345" y="51.413" width=".7654" height=".0567"/>
    <rect x="55.67" y="51.413" width=".7937" height=".0567"/>
    <rect x="57.654" y="51.413" width="1.389" height=".0567"/>
    <rect x="59.808" y="51.413" width="2.5795" height=".0567"/>
    <rect x="62.586" y="51.413" width=".822" height=".0567"/>
    <rect x="64.684" y="51.413" width=".8504" height=".0567"/>
    <rect x="53.345" y="51.498" width=".7654" height=".085"/>
    <rect x="55.67" y="51.498" width=".7937" height=".085"/>
    <rect x="57.597" y="51.498" width="1.5591" height=".085"/>
    <rect x="59.808" y="51.498" width="2.5795" height=".085"/>
    <rect x="62.643" y="51.498" width=".7654" height=".085"/>
    <rect x="64.627" y="51.498" width=".822" height=".085"/>
    <rect x="53.345" y="51.555" width=".7654" height=".0567"/>
    <rect x="55.67" y="51.555" width=".7937" height=".0567"/>
    <rect x="57.484" y="51.555" width="1.7291" height=".0567"/>
    <rect x="59.808" y="51.555" width="2.5795" height=".0567"/>
    <rect x="62.643" y="51.555" width=".8504" height=".0567"/>
    <rect x="64.627" y="51.555" width=".7654" height=".0567"/>
    <rect x="53.345" y="51.612" width=".7654" height=".0567"/>
    <rect x="55.67" y="51.612" width=".7937" height=".0567"/>
    <rect x="57.427" y="51.612" width="1.8425" height=".0567"/>
    <rect x="59.808" y="51.612" width="2.5795" height=".0567"/>
    <rect x="62.7" y="51.612" width=".8504" height=".0567"/>
    <rect x="64.57" y="51.612" width=".822" height=".0567"/>
    <rect x="53.345" y="51.668" width=".7654" height=".0567"/>
    <rect x="55.67" y="51.668" width=".7937" height=".0567"/>
    <rect x="57.37" y="51.668" width="1.9559" height=".0567"/>
    <rect x="59.808" y="51.668" width="2.5795" height=".0567"/>
    <rect x="62.756" y="51.668" width=".7937" height=".0567"/>
    <rect x="64.57" y="51.668" width=".7654" height=".0567"/>
    <rect x="53.345" y="51.725" width=".7654" height=".0567"/>
    <rect x="55.67" y="51.725" width=".7937" height=".0567"/>
    <rect x="57.314" y="51.725" width="2.0976" height=".0567"/>
    <rect x="59.808" y="51.725" width="2.5795" height=".0567"/>
    <rect x="62.756" y="51.725" width=".8504" height=".0567"/>
    <rect x="64.514" y="51.725" width=".7654" height=".0567"/>
    <rect x="53.345" y="51.782" width=".7654" height=".0567"/>
    <rect x="55.67" y="51.782" width=".7937" height=".0567"/>
    <rect x="57.229" y="51.782" width="2.0976" height=".0567"/>
    <rect x="59.808" y="51.782" width="2.5795" height=".0567"/>
    <rect x="62.813" y="51.782" width=".7937" height=".0567"/>
    <rect x="64.514" y="51.782" width=".7654" height=".0567"/>
    <rect x="53.345" y="51.839" width=".7654" height=".0567"/>
    <rect x="55.67" y="51.839" width=".7937" height=".0567"/>
    <rect x="57.229" y="51.839" width="2.041" height=".0567"/>
    <rect x="59.808" y="51.839" width="2.5795" height=".0567"/>
    <rect x="62.87" y="51.839" width=".7937" height=".0567"/>
    <rect x="64.429" y="51.839" width=".7937" height=".0567"/>
    <rect x="53.345" y="51.895" width=".7654" height=".0567"/>
    <rect x="55.67" y="51.895" width=".7937" height=".0567"/>
    <rect x="57.172" y="51.895" width="1.0205" height=".0567"/>
    <rect x="58.618" y="51.895" width=".5953" height=".0567"/>
    <rect x="59.808" y="51.895" width="2.5795" height=".0567"/>
    <rect x="62.87" y="51.895" width=".7937" height=".0567"/>
    <rect x="64.372" y="51.895" width=".8504" height=".0567"/>
    <rect x="53.345" y="51.952" width=".7654" height=".0567"/>
    <rect x="55.67" y="51.952" width=".7937" height=".0567"/>
    <rect x="57.172" y="51.952" width=".9071" height=".0567"/>
    <rect x="58.731" y="51.952" width=".4252" height=".0567"/>
    <rect x="59.808" y="51.952" width="2.5795" height=".0567"/>
    <rect x="62.926" y="51.952" width=".7937" height=".0567"/>
    <rect x="64.372" y="51.952" width=".7937" height=".0567"/>
    <rect x="53.345" y="52.037" width=".7654" height=".085"/>
    <rect x="55.67" y="52.037" width=".7937" height=".085"/>
    <rect x="57.172" y="52.037" width=".8504" height=".085"/>
    <rect x="58.788" y="52.037" width=".3118" height=".085"/>
    <rect x="60.715" y="52.037" width=".7937" height=".085"/>
    <rect x="62.926" y="52.037" width=".7937" height=".085"/>
    <rect x="64.315" y="52.037" width=".7937" height=".085"/>
    <rect x="53.345" y="52.094" width=".7654" height=".0567"/>
    <rect x="55.67" y="52.094" width=".7937" height=".0567"/>
    <rect x="57.115" y="52.094" width=".8504" height=".0567"/>
    <rect x="58.873" y="52.094" width=".1701" height=".0567"/>
    <rect x="60.715" y="52.094" width=".7937" height=".0567"/>
    <rect x="63.011" y="52.094" width=".7654" height=".0567"/>
    <rect x="64.315" y="52.094" width=".7937" height=".0567"/>
    <rect x="53.345" y="52.15" width=".7654" height=".0567"/>
    <rect x="55.67" y="52.15" width=".7937" height=".0567"/>
    <rect x="57.115" y="52.15" width=".7937" height=".0567"/>
    <rect x="58.93" y="52.15" width=".0567" height=".0567"/>
    <rect x="60.715" y="52.15" width=".7937" height=".0567"/>
    <rect x="63.068" y="52.15" width=".7087" height=".0567"/>
    <rect x="64.259" y="52.15" width=".7937" height=".0567"/>
    <rect x="53.345" y="52.207" width=".7654" height=".0567"/>
    <rect x="55.67" y="52.207" width=".7937" height=".0567"/>
    <rect x="57.115" y="52.207" width=".7937" height=".0567"/>
    <rect x="60.715" y="52.207" width=".7937" height=".0567"/>
    <rect x="63.068" y="52.207" width=".7654" height=".0567"/>
    <rect x="64.259" y="52.207" width=".7087" height=".0567"/>
    <rect x="53.345" y="52.264" width=".7654" height=".0567"/>
    <rect x="55.67" y="52.264" width=".7937" height=".0567"/>
    <rect x="57.115" y="52.264" width=".7937" height=".0567"/>
    <rect x="60.715" y="52.264" width=".7937" height=".0567"/>
    <rect x="63.125" y="52.264" width=".7087" height=".0567"/>
    <rect x="64.202" y="52.264" width=".7654" height=".0567"/>
    <rect x="53.345" y="52.32" width=".7654" height=".0567"/>
    <rect x="55.67" y="52.32" width=".7937" height=".0567"/>
    <rect x="57.115" y="52.32" width=".7937" height=".0567"/>
    <rect x="60.715" y="52.32" width=".7937" height=".0567"/>
    <rect x="63.181" y="52.32" width=".7087" height=".0567"/>
    <rect x="64.202" y="52.32" width=".7087" height=".0567"/>
    <rect x="53.345" y="52.377" width=".7654" height=".0567"/>
    <rect x="55.67" y="52.377" width=".7937" height=".0567"/>
    <rect x="57.115" y="52.377" width=".7937" height=".0567"/>
    <rect x="60.715" y="52.377" width=".7937" height=".0567"/>
    <rect x="63.181" y="52.377" width=".7654" height=".0567"/>
    <rect x="64.145" y="52.377" width=".7654" height=".0567"/>
    <rect x="53.345" y="52.434" width=".7654" height=".0567"/>
    <rect x="55.67" y="52.434" width=".7937" height=".0567"/>
    <rect x="57.115" y="52.434" width=".8504" height=".0567"/>
    <rect x="60.715" y="52.434" width=".7937" height=".0567"/>
    <rect x="63.238" y="52.434" width=".7087" height=".0567"/>
    <rect x="64.145" y="52.434" width=".7087" height=".0567"/>
    <rect x="53.345" y="52.519" width=".7654" height=".085"/>
    <rect x="55.67" y="52.519" width=".7937" height=".085"/>
    <rect x="57.115" y="52.519" width=".9071" height=".085"/>
    <rect x="60.715" y="52.519" width=".7937" height=".085"/>
    <rect x="63.238" y="52.519" width=".7087" height=".085"/>
    <rect x="64.088" y="52.519" width=".7087" height=".085"/>
    <rect x="53.345" y="52.576" width=".7654" height=".0567"/>
    <rect x="55.67" y="52.576" width=".7937" height=".0567"/>
    <rect x="57.172" y="52.576" width=".9071" height=".0567"/>
    <rect x="60.715" y="52.576" width=".7937" height=".0567"/>
    <rect x="63.295" y="52.576" width=".737" height=".0567"/>
    <rect x="64.088" y="52.576" width=".7087" height=".0567"/>
    <rect x="53.345" y="52.632" width=".7654" height=".0567"/>
    <rect x="55.67" y="52.632" width=".7937" height=".0567"/>
    <rect x="57.172" y="52.632" width=".9638" height=".0567"/>
    <rect x="60.715" y="52.632" width=".7937" height=".0567"/>
    <rect x="63.352" y="52.632" width="1.389" height=".0567"/>
    <rect x="53.345" y="52.689" width=".7654" height=".0567"/>
    <rect x="55.67" y="52.689" width=".7937" height=".0567"/>
    <rect x="57.229" y="52.689" width="1.0205" height=".0567"/>
    <rect x="60.715" y="52.689" width=".7937" height=".0567"/>
    <rect x="63.352" y="52.689" width="1.3323" height=".0567"/>
    <rect x="53.345" y="52.746" width=".7654" height=".0567"/>
    <rect x="55.67" y="52.746" width=".7937" height=".0567"/>
    <rect x="57.229" y="52.746" width="1.1622" height=".0567"/>
    <rect x="60.715" y="52.746" width=".7937" height=".0567"/>
    <rect x="63.408" y="52.746" width="1.2756" height=".0567"/>
    <rect x="53.345" y="52.802" width=".7654" height=".0567"/>
    <rect x="55.67" y="52.802" width=".7937" height=".0567"/>
    <rect x="57.314" y="52.802" width="1.1906" height=".0567"/>
    <rect x="60.715" y="52.802" width=".7937" height=".0567"/>
    <rect x="63.493" y="52.802" width="1.1339" height=".0567"/>
    <rect x="53.345" y="52.859" width="3.1181" height=".0567"/>
    <rect x="57.37" y="52.859" width="1.2472" height=".0567"/>
    <rect x="60.715" y="52.859" width=".7937" height=".0567"/>
    <rect x="63.493" y="52.859" width="1.1339" height=".0567"/>
    <rect x="53.345" y="52.916" width="3.1181" height=".0567"/>
    <rect x="57.427" y="52.916" width="1.3039" height=".0567"/>
    <rect x="60.715" y="52.916" width=".7937" height=".0567"/>
    <rect x="63.55" y="52.916" width="1.0205" height=".0567"/>
    <rect x="53.345" y="52.972" width="3.1181" height=".0567"/>
    <rect x="57.484" y="52.972" width="1.389" height=".0567"/>
    <rect x="60.715" y="52.972" width=".7937" height=".0567"/>
    <rect x="63.55" y="52.972" width=".9638" height=".0567"/>
    <rect x="53.345" y="53.057" width="3.1181" height=".085"/>
    <rect x="57.54" y="53.057" width="1.4457" height=".085"/>
    <rect x="60.715" y="53.057" width=".7937" height=".085"/>
    <rect x="63.607" y="53.057" width=".9071" height=".085"/>
    <rect x="53.345" y="53.114" width="3.1181" height=".0567"/>
    <rect x="57.597" y="53.114" width="1.4457" height=".0567"/>
    <rect x="60.715" y="53.114" width=".7937" height=".0567"/>
    <rect x="63.607" y="53.114" width=".9071" height=".0567"/>
    <rect x="53.345" y="53.171" width="3.1181" height=".0567"/>
    <rect x="57.71" y="53.171" width="1.389" height=".0567"/>
    <rect x="60.715" y="53.171" width=".7937" height=".0567"/>
    <rect x="63.607" y="53.171" width=".9071" height=".0567"/>
    <rect x="53.345" y="53.228" width="3.1181" height=".0567"/>
    <rect x="57.852" y="53.228" width="1.3039" height=".0567"/>
    <rect x="60.715" y="53.228" width=".7937" height=".0567"/>
    <rect x="63.55" y="53.228" width="1.0205" height=".0567"/>
    <rect x="53.345" y="53.284" width="3.1181" height=".0567"/>
    <rect x="57.966" y="53.284" width="1.3039" height=".0567"/>
    <rect x="60.715" y="53.284" width=".7937" height=".0567"/>
    <rect x="63.493" y="53.284" width="1.0772" height=".0567"/>
    <rect x="53.345" y="53.341" width="3.1181" height=".0567"/>
    <rect x="58.079" y="53.341" width="1.1906" height=".0567"/>
    <rect x="60.715" y="53.341" width=".7937" height=".0567"/>
    <rect x="63.493" y="53.341" width="1.1339" height=".0567"/>
    <rect x="53.345" y="53.398" width="3.1181" height=".0567"/>
    <rect x="58.136" y="53.398" width="1.1906" height=".0567"/>
    <rect x="60.715" y="53.398" width=".7937" height=".0567"/>
    <rect x="63.408" y="53.398" width="1.2756" height=".0567"/>
    <rect x="53.345" y="53.454" width="3.1181" height=".0567"/>
    <rect x="58.249" y="53.454" width="1.1622" height=".0567"/>
    <rect x="60.715" y="53.454" width=".7937" height=".0567"/>
    <rect x="63.408" y="53.454" width="1.2756" height=".0567"/>
    <rect x="53.345" y="53.511" width=".7654" height=".0567"/>
    <rect x="55.67" y="53.511" width=".7937" height=".0567"/>
    <rect x="58.391" y="53.511" width="1.0205" height=".0567"/>
    <rect x="60.715" y="53.511" width=".7937" height=".0567"/>
    <rect x="63.352" y="53.511" width="1.389" height=".0567"/>
    <rect x="53.345" y="53.596" width=".7654" height=".085"/>
    <rect x="55.67" y="53.596" width=".7937" height=".085"/>
    <rect x="58.504" y="53.596" width=".9638" height=".085"/>
    <rect x="60.715" y="53.596" width=".7937" height=".085"/>
    <rect x="63.352" y="53.596" width="1.389" height=".085"/>
    <rect x="53.345" y="53.653" width=".7654" height=".0567"/>
    <rect x="55.67" y="53.653" width=".7937" height=".0567"/>
    <rect x="58.561" y="53.653" width=".9071" height=".0567"/>
    <rect x="60.715" y="53.653" width=".7937" height=".0567"/>
    <rect x="63.295" y="53.653" width=".737" height=".0567"/>
    <rect x="64.088" y="53.653" width=".7087" height=".0567"/>
    <rect x="53.345" y="53.71" width=".7654" height=".0567"/>
    <rect x="55.67" y="53.71" width=".7937" height=".0567"/>
    <rect x="58.618" y="53.71" width=".9071" height=".0567"/>
    <rect x="60.715" y="53.71" width=".7937" height=".0567"/>
    <rect x="63.238" y="53.71" width=".7937" height=".0567"/>
    <rect x="64.088" y="53.71" width=".7087" height=".0567"/>
    <rect x="53.345" y="53.766" width=".7654" height=".0567"/>
    <rect x="55.67" y="53.766" width=".7937" height=".0567"/>
    <rect x="58.674" y="53.766" width=".8504" height=".0567"/>
    <rect x="60.715" y="53.766" width=".7937" height=".0567"/>
    <rect x="63.238" y="53.766" width=".7087" height=".0567"/>
    <rect x="64.088" y="53.766" width=".7654" height=".0567"/>
    <rect x="53.345" y="53.823" width=".7654" height=".0567"/>
    <rect x="55.67" y="53.823" width=".7937" height=".0567"/>
    <rect x="58.674" y="53.823" width=".8504" height=".0567"/>
    <rect x="60.715" y="53.823" width=".7937" height=".0567"/>
    <rect x="63.181" y="53.823" width=".7654" height=".0567"/>
    <rect x="64.145" y="53.823" width=".7654" height=".0567"/>
    <rect x="53.345" y="53.88" width=".7654" height=".0567"/>
    <rect x="55.67" y="53.88" width=".7937" height=".0567"/>
    <rect x="58.731" y="53.88" width=".7937" height=".0567"/>
    <rect x="60.715" y="53.88" width=".7937" height=".0567"/>
    <rect x="63.181" y="53.88" width=".7087" height=".0567"/>
    <rect x="64.145" y="53.88" width=".7654" height=".0567"/>
    <rect x="53.345" y="53.936" width=".7654" height=".0567"/>
    <rect x="55.67" y="53.936" width=".7937" height=".0567"/>
    <rect x="58.731" y="53.936" width=".7937" height=".0567"/>
    <rect x="60.715" y="53.936" width=".7937" height=".0567"/>
    <rect x="63.125" y="53.936" width=".7654" height=".0567"/>
    <rect x="64.202" y="53.936" width=".7654" height=".0567"/>
    <rect x="53.345" y="53.993" width=".7654" height=".0567"/>
    <rect x="55.67" y="53.993" width=".7937" height=".0567"/>
    <rect x="57.484" y="53.993" width=".0567" height=".0567"/>
    <rect x="58.731" y="53.993" width=".7937" height=".0567"/>
    <rect x="60.715" y="53.993" width=".7937" height=".0567"/>
    <rect x="63.125" y="53.993" width=".7087" height=".0567"/>
    <rect x="64.202" y="53.993" width=".7654" height=".0567"/>
    <rect x="53.345" y="54.078" width=".7654" height=".085"/>
    <rect x="55.67" y="54.078" width=".7937" height=".085"/>
    <rect x="57.427" y="54.078" width=".1134" height=".085"/>
    <rect x="58.731" y="54.078" width=".7937" height=".085"/>
    <rect x="60.715" y="54.078" width=".7937" height=".085"/>
    <rect x="63.068" y="54.078" width=".7654" height=".085"/>
    <rect x="64.259" y="54.078" width=".7937" height=".085"/>
    <rect x="53.345" y="54.135" width=".7654" height=".0567"/>
    <rect x="55.67" y="54.135" width=".7937" height=".0567"/>
    <rect x="57.37" y="54.135" width=".2268" height=".0567"/>
    <rect x="58.731" y="54.135" width=".7937" height=".0567"/>
    <rect x="60.715" y="54.135" width=".7937" height=".0567"/>
    <rect x="63.011" y="54.135" width=".7654" height=".0567"/>
    <rect x="64.259" y="54.135" width=".8504" height=".0567"/>
    <rect x="53.345" y="54.191" width=".7654" height=".0567"/>
    <rect x="55.67" y="54.191" width=".7937" height=".0567"/>
    <rect x="57.37" y="54.191" width=".2268" height=".0567"/>
    <rect x="58.674" y="54.191" width=".8504" height=".0567"/>
    <rect x="60.715" y="54.191" width=".7937" height=".0567"/>
    <rect x="63.011" y="54.191" width=".7654" height=".0567"/>
    <rect x="64.315" y="54.191" width=".7937" height=".0567"/>
    <rect x="53.345" y="54.248" width=".7654" height=".0567"/>
    <rect x="55.67" y="54.248" width=".7937" height=".0567"/>
    <rect x="57.314" y="54.248" width=".3402" height=".0567"/>
    <rect x="58.674" y="54.248" width=".7937" height=".0567"/>
    <rect x="60.715" y="54.248" width=".7937" height=".0567"/>
    <rect x="62.926" y="54.248" width=".7937" height=".0567"/>
    <rect x="64.315" y="54.248" width=".8504" height=".0567"/>
    <rect x="53.345" y="54.305" width=".7654" height=".0567"/>
    <rect x="55.67" y="54.305" width=".7937" height=".0567"/>
    <rect x="57.229" y="54.305" width=".4819" height=".0567"/>
    <rect x="58.618" y="54.305" width=".8504" height=".0567"/>
    <rect x="60.715" y="54.305" width=".7937" height=".0567"/>
    <rect x="62.926" y="54.305" width=".7937" height=".0567"/>
    <rect x="64.372" y="54.305" width=".7937" height=".0567"/>
    <rect x="53.345" y="54.361" width=".7654" height=".0567"/>
    <rect x="55.67" y="54.361" width=".7937" height=".0567"/>
    <rect x="57.172" y="54.361" width=".6803" height=".0567"/>
    <rect x="58.504" y="54.361" width=".9638" height=".0567"/>
    <rect x="60.715" y="54.361" width=".7937" height=".0567"/>
    <rect x="62.87" y="54.361" width=".7937" height=".0567"/>
    <rect x="64.372" y="54.361" width=".8504" height=".0567"/>
    <rect x="53.345" y="54.418" width=".7654" height=".0567"/>
    <rect x="55.67" y="54.418" width=".7937" height=".0567"/>
    <rect x="57.115" y="54.418" width=".8504" height=".0567"/>
    <rect x="58.391" y="54.418" width="1.0205" height=".0567"/>
    <rect x="60.715" y="54.418" width=".7937" height=".0567"/>
    <rect x="62.813" y="54.418" width=".8504" height=".0567"/>
    <rect x="64.429" y="54.418" width=".7937" height=".0567"/>
    <rect x="53.345" y="54.475" width=".7654" height=".0567"/>
    <rect x="55.67" y="54.475" width=".7937" height=".0567"/>
    <rect x="57.059" y="54.475" width="2.3528" height=".0567"/>
    <rect x="60.715" y="54.475" width=".7937" height=".0567"/>
    <rect x="62.813" y="54.475" width=".7937" height=".0567"/>
    <rect x="64.514" y="54.475" width=".7654" height=".0567"/>
    <rect x="53.345" y="54.532" width=".7654" height=".0567"/>
    <rect x="55.67" y="54.532" width=".7937" height=".0567"/>
    <rect x="57.059" y="54.532" width="2.2677" height=".0567"/>
    <rect x="60.715" y="54.532" width=".7937" height=".0567"/>
    <rect x="62.756" y="54.532" width=".8504" height=".0567"/>
    <rect x="64.514" y="54.532" width=".822" height=".0567"/>
    <rect x="53.345" y="54.616" width=".7654" height=".085"/>
    <rect x="55.67" y="54.616" width=".7937" height=".085"/>
    <rect x="57.115" y="54.616" width="2.211" height=".085"/>
    <rect x="60.715" y="54.616" width=".7937" height=".085"/>
    <rect x="62.756" y="54.616" width=".7937" height=".085"/>
    <rect x="64.57" y="54.616" width=".7654" height=".085"/>
    <rect x="53.345" y="54.673" width=".7654" height=".0567"/>
    <rect x="55.67" y="54.673" width=".7937" height=".0567"/>
    <rect x="57.172" y="54.673" width="2.0976" height=".0567"/>
    <rect x="60.715" y="54.673" width=".7937" height=".0567"/>
    <rect x="62.7" y="54.673" width=".8504" height=".0567"/>
    <rect x="64.57" y="54.673" width=".822" height=".0567"/>
    <rect x="53.345" y="54.73" width=".7654" height=".0567"/>
    <rect x="55.67" y="54.73" width=".7937" height=".0567"/>
    <rect x="57.229" y="54.73" width="1.9843" height=".0567"/>
    <rect x="60.715" y="54.73" width=".7937" height=".0567"/>
    <rect x="62.7" y="54.73" width=".7937" height=".0567"/>
    <rect x="64.627" y="54.73" width=".7654" height=".0567"/>
    <rect x="53.345" y="54.787" width=".7654" height=".0567"/>
    <rect x="55.67" y="54.787" width=".7937" height=".0567"/>
    <rect x="57.314" y="54.787" width="1.7858" height=".0567"/>
    <rect x="60.715" y="54.787" width=".7937" height=".0567"/>
    <rect x="62.643" y="54.787" width=".8504" height=".0567"/>
    <rect x="64.627" y="54.787" width=".822" height=".0567"/>
    <rect x="53.345" y="54.843" width=".7654" height=".0567"/>
    <rect x="55.67" y="54.843" width=".7937" height=".0567"/>
    <rect x="57.37" y="54.843" width="1.6724" height=".0567"/>
    <rect x="60.715" y="54.843" width=".7937" height=".0567"/>
    <rect x="62.586" y="54.843" width=".822" height=".0567"/>
    <rect x="64.684" y="54.843" width=".8504" height=".0567"/>
    <rect x="53.345" y="54.9" width=".7654" height=".0567"/>
    <rect x="55.67" y="54.9" width=".7937" height=".0567"/>
    <rect x="57.484" y="54.9" width="1.4457" height=".0567"/>
    <rect x="60.715" y="54.9" width=".7937" height=".0567"/>
    <rect x="62.586" y="54.9" width=".7654" height=".0567"/>
    <rect x="64.684" y="54.9" width=".8504" height=".0567"/>
    <rect x="53.345" y="54.957" width=".7654" height=".0567"/>
    <rect x="55.67" y="54.957" width=".7937" height=".0567"/>
    <rect x="57.597" y="54.957" width="1.1906" height=".0567"/>
    <rect x="60.715" y="54.957" width=".7937" height=".0567"/>
    <rect x="62.53" y="54.957" width=".822" height=".0567"/>
    <rect x="64.74" y="54.957" width=".8504" height=".0567"/>
    <rect x="57.852" y="55.013" width=".7087" height=".0567"/>
    <rect x="6.0052" y="18.605" width="1.6157" height=".0567"/>
    <rect x="9.4068" y="18.605" width=".9071" height=".0567"/>
    <rect x="11.986" y="18.605" width=".9071" height=".0567"/>
    <rect x="13.262" y="18.605" width=".7654" height=".0567"/>
    <rect x="6.0052" y="18.662" width="1.9276" height=".0567"/>
    <rect x="9.4918" y="18.662" width=".822" height=".0567"/>
    <rect x="11.986" y="18.662" width=".8504" height=".0567"/>
    <rect x="13.262" y="18.662" width=".7654" height=".0567"/>
    <rect x="6.0052" y="18.719" width="2.1543" height=".0567"/>
    <rect x="9.4918" y="18.719" width=".822" height=".0567"/>
    <rect x="11.986" y="18.719" width=".8504" height=".0567"/>
    <rect x="13.262" y="18.719" width=".7654" height=".0567"/>
    <rect x="6.0052" y="18.775" width="2.2677" height=".0567"/>
    <rect x="9.4918" y="18.775" width=".8787" height=".0567"/>
    <rect x="11.93" y="18.775" width=".9071" height=".0567"/>
    <rect x="13.262" y="18.775" width=".7654" height=".0567"/>
    <rect x="6.0052" y="18.832" width="2.3811" height=".0567"/>
    <rect x="9.5485" y="18.832" width=".822" height=".0567"/>
    <rect x="11.93" y="18.832" width=".8504" height=".0567"/>
    <rect x="13.262" y="18.832" width=".7654" height=".0567"/>
    <rect x="6.0052" y="18.917" width="2.4661" height=".085"/>
    <rect x="9.5485" y="18.917" width=".822" height=".085"/>
    <rect x="11.93" y="18.917" width=".8504" height=".085"/>
    <rect x="13.262" y="18.917" width=".7654" height=".085"/>
    <rect x="6.0052" y="18.974" width="2.5795" height=".0567"/>
    <rect x="9.5485" y="18.974" width=".8787" height=".0567"/>
    <rect x="11.873" y="18.974" width=".9071" height=".0567"/>
    <rect x="13.262" y="18.974" width=".7654" height=".0567"/>
    <rect x="6.0052" y="19.03" width="2.6362" height=".0567"/>
    <rect x="9.6052" y="19.03" width=".822" height=".0567"/>
    <rect x="11.873" y="19.03" width=".8504" height=".0567"/>
    <rect x="13.262" y="19.03" width=".7654" height=".0567"/>
    <rect x="6.0052" y="19.087" width="2.6929" height=".0567"/>
    <rect x="9.6052" y="19.087" width=".822" height=".0567"/>
    <rect x="11.873" y="19.087" width=".8504" height=".0567"/>
    <rect x="13.262" y="19.087" width=".7654" height=".0567"/>
    <rect x="6.0052" y="19.144" width="2.7496" height=".0567"/>
    <rect x="9.6619" y="19.144" width=".8504" height=".0567"/>
    <rect x="11.873" y="19.144" width=".7937" height=".0567"/>
    <rect x="13.262" y="19.144" width=".7654" height=".0567"/>
    <rect x="6.0052" y="19.2" width="2.8063" height=".0567"/>
    <rect x="9.6619" y="19.2" width=".8504" height=".0567"/>
    <rect x="11.816" y="19.2" width=".8504" height=".0567"/>
    <rect x="13.262" y="19.2" width=".7654" height=".0567"/>
    <rect x="6.0052" y="19.257" width=".7654" height=".0567"/>
    <rect x="7.5642" y="19.257" width="1.2472" height=".0567"/>
    <rect x="9.6619" y="19.257" width=".8504" height=".0567"/>
    <rect x="11.816" y="19.257" width=".8504" height=".0567"/>
    <rect x="13.262" y="19.257" width=".7654" height=".0567"/>
    <rect x="6.0052" y="19.314" width=".7654" height=".0567"/>
    <rect x="7.791" y="19.314" width="1.0772" height=".0567"/>
    <rect x="9.7186" y="19.314" width=".8504" height=".0567"/>
    <rect x="11.816" y="19.314" width=".7937" height=".0567"/>
    <rect x="13.262" y="19.314" width=".7654" height=".0567"/>
    <rect x="6.0052" y="19.399" width=".7654" height=".085"/>
    <rect x="7.9327" y="19.399" width="1.0205" height=".085"/>
    <rect x="9.7186" y="19.399" width=".8504" height=".085"/>
    <rect x="11.76" y="19.399" width=".8504" height=".085"/>
    <rect x="13.262" y="19.399" width=".7654" height=".085"/>
    <rect x="6.0052" y="19.456" width=".7654" height=".0567"/>
    <rect x="8.0461" y="19.456" width=".9071" height=".0567"/>
    <rect x="9.7186" y="19.456" width=".8504" height=".0567"/>
    <rect x="11.76" y="19.456" width=".8504" height=".0567"/>
    <rect x="13.262" y="19.456" width=".7654" height=".0567"/>
    <rect x="6.0052" y="19.512" width=".7654" height=".0567"/>
    <rect x="8.1028" y="19.512" width=".9071" height=".0567"/>
    <rect x="9.7753" y="19.512" width=".8504" height=".0567"/>
    <rect x="11.76" y="19.512" width=".7937" height=".0567"/>
    <rect x="13.262" y="19.512" width=".7654" height=".0567"/>
    <rect x="6.0052" y="19.569" width=".7654" height=".0567"/>
    <rect x="8.1595" y="19.569" width=".8504" height=".0567"/>
    <rect x="9.7753" y="19.569" width=".8504" height=".0567"/>
    <rect x="11.703" y="19.569" width=".8504" height=".0567"/>
    <rect x="13.262" y="19.569" width=".7654" height=".0567"/>
    <rect x="6.0052" y="19.626" width=".7654" height=".0567"/>
    <rect x="8.2162" y="19.626" width=".8504" height=".0567"/>
    <rect x="9.832" y="19.626" width=".7937" height=".0567"/>
    <rect x="11.703" y="19.626" width=".7654" height=".0567"/>
    <rect x="13.262" y="19.626" width=".7654" height=".0567"/>
    <rect x="6.0052" y="19.682" width=".7654" height=".0567"/>
    <rect x="8.2162" y="19.682" width=".8504" height=".0567"/>
    <rect x="9.832" y="19.682" width=".7937" height=".0567"/>
    <rect x="11.703" y="19.682" width=".7654" height=".0567"/>
    <rect x="13.262" y="19.682" width=".7654" height=".0567"/>
    <rect x="6.0052" y="19.739" width=".7654" height=".0567"/>
    <rect x="8.2729" y="19.739" width=".7937" height=".0567"/>
    <rect x="9.832" y="19.739" width=".8504" height=".0567"/>
    <rect x="11.646" y="19.739" width=".822" height=".0567"/>
    <rect x="13.262" y="19.739" width=".7654" height=".0567"/>
    <rect x="6.0052" y="19.796" width=".7654" height=".0567"/>
    <rect x="8.2729" y="19.796" width=".8504" height=".0567"/>
    <rect x="9.8887" y="19.796" width=".7937" height=".0567"/>
    <rect x="11.646" y="19.796" width=".7654" height=".0567"/>
    <rect x="13.262" y="19.796" width=".7654" height=".0567"/>
    <rect x="6.0052" y="19.852" width=".7654" height=".0567"/>
    <rect x="8.3296" y="19.852" width=".7937" height=".0567"/>
    <rect x="9.8887" y="19.852" width=".7937" height=".0567"/>
    <rect x="11.646" y="19.852" width=".7654" height=".0567"/>
    <rect x="13.262" y="19.852" width=".7654" height=".0567"/>
    <rect x="6.0052" y="19.937" width=".7654" height=".085"/>
    <rect x="8.3296" y="19.937" width=".7937" height=".085"/>
    <rect x="9.8887" y="19.937" width=".8504" height=".085"/>
    <rect x="11.59" y="19.937" width=".822" height=".085"/>
    <rect x="13.262" y="19.937" width=".7654" height=".085"/>
    <rect x="6.0052" y="19.994" width=".7654" height=".0567"/>
    <rect x="8.3296" y="19.994" width=".7937" height=".0567"/>
    <rect x="9.9737" y="19.994" width=".7654" height=".0567"/>
    <rect x="11.59" y="19.994" width=".7654" height=".0567"/>
    <rect x="13.262" y="19.994" width=".7654" height=".0567"/>
    <rect x="6.0052" y="20.051" width=".7654" height=".0567"/>
    <rect x="8.3296" y="20.051" width=".8504" height=".0567"/>
    <rect x="9.9737" y="20.051" width=".7654" height=".0567"/>
    <rect x="11.59" y="20.051" width=".7654" height=".0567"/>
    <rect x="13.262" y="20.051" width=".7654" height=".0567"/>
    <rect x="6.0052" y="20.108" width=".7654" height=".0567"/>
    <rect x="8.3863" y="20.108" width=".7937" height=".0567"/>
    <rect x="10.03" y="20.108" width=".7654" height=".0567"/>
    <rect x="11.533" y="20.108" width=".7654" height=".0567"/>
    <rect x="13.262" y="20.108" width=".7654" height=".0567"/>
    <rect x="6.0052" y="20.164" width=".7654" height=".0567"/>
    <rect x="8.3863" y="20.164" width=".7937" height=".0567"/>
    <rect x="10.03" y="20.164" width=".7654" height=".0567"/>
    <rect x="11.533" y="20.164" width=".7654" height=".0567"/>
    <rect x="13.262" y="20.164" width=".7654" height=".0567"/>
    <rect x="6.0052" y="20.221" width=".7654" height=".0567"/>
    <rect x="8.3863" y="20.221" width=".7937" height=".0567"/>
    <rect x="10.03" y="20.221" width=".7654" height=".0567"/>
    <rect x="11.533" y="20.221" width=".7654" height=".0567"/>
    <rect x="13.262" y="20.221" width=".7654" height=".0567"/>
    <rect x="6.0052" y="20.278" width=".7654" height=".0567"/>
    <rect x="8.3863" y="20.278" width=".7937" height=".0567"/>
    <rect x="10.087" y="20.278" width=".7654" height=".0567"/>
    <rect x="11.448" y="20.278" width=".7937" height=".0567"/>
    <rect x="13.262" y="20.278" width=".7654" height=".0567"/>
    <rect x="6.0052" y="20.334" width=".7654" height=".0567"/>
    <rect x="8.3863" y="20.334" width=".7937" height=".0567"/>
    <rect x="10.087" y="20.334" width=".7654" height=".0567"/>
    <rect x="11.448" y="20.334" width=".7937" height=".0567"/>
    <rect x="13.262" y="20.334" width=".7654" height=".0567"/>
    <rect x="6.0052" y="20.391" width=".7654" height=".0567"/>
    <rect x="8.3863" y="20.391" width=".7937" height=".0567"/>
    <rect x="10.087" y="20.391" width=".7654" height=".0567"/>
    <rect x="11.448" y="20.391" width=".7937" height=".0567"/>
    <rect x="13.262" y="20.391" width=".7654" height=".0567"/>
    <rect x="6.0052" y="20.476" width=".7654" height=".085"/>
    <rect x="8.3863" y="20.476" width=".7937" height=".085"/>
    <rect x="10.144" y="20.476" width=".7654" height=".085"/>
    <rect x="11.391" y="20.476" width=".7937" height=".085"/>
    <rect x="13.262" y="20.476" width=".7654" height=".085"/>
    <rect x="6.0052" y="20.533" width=".7654" height=".0567"/>
    <rect x="8.3863" y="20.533" width=".7937" height=".0567"/>
    <rect x="10.144" y="20.533" width=".7654" height=".0567"/>
    <rect x="11.391" y="20.533" width=".7937" height=".0567"/>
    <rect x="13.262" y="20.533" width=".7654" height=".0567"/>
    <rect x="6.0052" y="20.59" width=".7654" height=".0567"/>
    <rect x="8.3863" y="20.59" width=".7937" height=".0567"/>
    <rect x="10.2" y="20.59" width=".7087" height=".0567"/>
    <rect x="11.391" y="20.59" width=".737" height=".0567"/>
    <rect x="13.262" y="20.59" width=".7654" height=".0567"/>
    <rect x="6.0052" y="20.646" width=".7654" height=".0567"/>
    <rect x="8.3863" y="20.646" width=".7937" height=".0567"/>
    <rect x="10.2" y="20.646" width=".7937" height=".0567"/>
    <rect x="11.391" y="20.646" width=".737" height=".0567"/>
    <rect x="13.262" y="20.646" width=".7654" height=".0567"/>
    <rect x="6.0052" y="20.703" width=".7654" height=".0567"/>
    <rect x="8.3863" y="20.703" width=".7937" height=".0567"/>
    <rect x="10.2" y="20.703" width=".7937" height=".0567"/>
    <rect x="11.334" y="20.703" width=".7937" height=".0567"/>
    <rect x="13.262" y="20.703" width=".7654" height=".0567"/>
    <rect x="6.0052" y="20.76" width=".7654" height=".0567"/>
    <rect x="8.3296" y="20.76" width=".8504" height=".0567"/>
    <rect x="10.257" y="20.76" width=".737" height=".0567"/>
    <rect x="11.334" y="20.76" width=".737" height=".0567"/>
    <rect x="13.262" y="20.76" width=".7654" height=".0567"/>
    <rect x="6.0052" y="20.816" width=".7654" height=".0567"/>
    <rect x="8.3296" y="20.816" width=".7937" height=".0567"/>
    <rect x="10.257" y="20.816" width=".737" height=".0567"/>
    <rect x="11.334" y="20.816" width=".737" height=".0567"/>
    <rect x="13.262" y="20.816" width=".7654" height=".0567"/>
    <rect x="6.0052" y="20.873" width=".7654" height=".0567"/>
    <rect x="8.3296" y="20.873" width=".7937" height=".0567"/>
    <rect x="10.314" y="20.873" width=".737" height=".0567"/>
    <rect x="11.278" y="20.873" width=".7937" height=".0567"/>
    <rect x="13.262" y="20.873" width=".7654" height=".0567"/>
    <rect x="6.0052" y="20.958" width=".7654" height=".085"/>
    <rect x="8.3296" y="20.958" width=".7937" height=".085"/>
    <rect x="10.314" y="20.958" width=".737" height=".085"/>
    <rect x="11.278" y="20.958" width=".7087" height=".085"/>
    <rect x="13.262" y="20.958" width=".7654" height=".085"/>
    <rect x="6.0052" y="21.015" width=".7654" height=".0567"/>
    <rect x="8.2729" y="21.015" width=".8504" height=".0567"/>
    <rect x="10.314" y="21.015" width=".737" height=".0567"/>
    <rect x="11.278" y="21.015" width=".7087" height=".0567"/>
    <rect x="13.262" y="21.015" width=".7654" height=".0567"/>
    <rect x="6.0052" y="21.071" width=".7654" height=".0567"/>
    <rect x="8.2729" y="21.071" width=".7937" height=".0567"/>
    <rect x="10.37" y="21.071" width=".6803" height=".0567"/>
    <rect x="11.221" y="21.071" width=".7087" height=".0567"/>
    <rect x="13.262" y="21.071" width=".7654" height=".0567"/>
    <rect x="6.0052" y="21.128" width=".7654" height=".0567"/>
    <rect x="8.2162" y="21.128" width=".8504" height=".0567"/>
    <rect x="10.37" y="21.128" width=".737" height=".0567"/>
    <rect x="11.221" y="21.128" width=".7087" height=".0567"/>
    <rect x="13.262" y="21.128" width=".7654" height=".0567"/>
    <rect x="6.0052" y="21.185" width=".7654" height=".0567"/>
    <rect x="8.2162" y="21.185" width=".8504" height=".0567"/>
    <rect x="10.37" y="21.185" width=".737" height=".0567"/>
    <rect x="11.221" y="21.185" width=".7087" height=".0567"/>
    <rect x="13.262" y="21.185" width=".7654" height=".0567"/>
    <rect x="6.0052" y="21.241" width=".7654" height=".0567"/>
    <rect x="8.1595" y="21.241" width=".8504" height=".0567"/>
    <rect x="10.427" y="21.241" width=".6803" height=".0567"/>
    <rect x="11.221" y="21.241" width=".652" height=".0567"/>
    <rect x="13.262" y="21.241" width=".7654" height=".0567"/>
    <rect x="6.0052" y="21.298" width=".7654" height=".0567"/>
    <rect x="8.1028" y="21.298" width=".9071" height=".0567"/>
    <rect x="10.427" y="21.298" width=".6803" height=".0567"/>
    <rect x="11.221" y="21.298" width=".652" height=".0567"/>
    <rect x="13.262" y="21.298" width=".7654" height=".0567"/>
    <rect x="6.0052" y="21.355" width=".7654" height=".0567"/>
    <rect x="8.0461" y="21.355" width=".9071" height=".0567"/>
    <rect x="10.512" y="21.355" width=".652" height=".0567"/>
    <rect x="11.221" y="21.355" width=".5953" height=".0567"/>
    <rect x="13.262" y="21.355" width=".7654" height=".0567"/>
    <rect x="6.0052" y="21.412" width=".7654" height=".0567"/>
    <rect x="7.9327" y="21.412" width="1.0205" height=".0567"/>
    <rect x="10.512" y="21.412" width="1.3039" height=".0567"/>
    <rect x="13.262" y="21.412" width=".7654" height=".0567"/>
    <rect x="6.0052" y="21.496" width=".7654" height=".085"/>
    <rect x="7.791" y="21.496" width="1.0772" height=".085"/>
    <rect x="10.512" y="21.496" width="1.3039" height=".085"/>
    <rect x="13.262" y="21.496" width=".7654" height=".085"/>
    <rect x="6.0052" y="21.553" width=".7654" height=".0567"/>
    <rect x="7.5642" y="21.553" width="1.2472" height=".0567"/>
    <rect x="10.569" y="21.553" width="1.1905" height=".0567"/>
    <rect x="13.262" y="21.553" width=".7654" height=".0567"/>
    <rect x="6.0052" y="21.61" width="2.8063" height=".0567"/>
    <rect x="10.569" y="21.61" width="1.1905" height=".0567"/>
    <rect x="13.262" y="21.61" width=".7654" height=".0567"/>
    <rect x="6.0052" y="21.667" width="2.7496" height=".0567"/>
    <rect x="10.569" y="21.667" width="1.1905" height=".0567"/>
    <rect x="13.262" y="21.667" width=".7654" height=".0567"/>
    <rect x="6.0052" y="21.723" width="2.6929" height=".0567"/>
    <rect x="10.626" y="21.723" width="1.0772" height=".0567"/>
    <rect x="13.262" y="21.723" width=".7654" height=".0567"/>
    <rect x="6.0052" y="21.78" width="2.6362" height=".0567"/>
    <rect x="10.626" y="21.78" width="1.0772" height=".0567"/>
    <rect x="13.262" y="21.78" width=".7654" height=".0567"/>
    <rect x="6.0052" y="21.837" width="2.5795" height=".0567"/>
    <rect x="10.682" y="21.837" width=".9638" height=".0567"/>
    <rect x="13.262" y="21.837" width=".7654" height=".0567"/>
    <rect x="6.0052" y="21.893" width="2.4661" height=".0567"/>
    <rect x="10.682" y="21.893" width=".9638" height=".0567"/>
    <rect x="13.262" y="21.893" width=".7654" height=".0567"/>
    <rect x="6.0052" y="21.978" width="2.3811" height=".085"/>
    <rect x="10.682" y="21.978" width=".9638" height=".085"/>
    <rect x="13.262" y="21.978" width=".7654" height=".085"/>
    <rect x="6.0052" y="22.035" width="2.2677" height=".0567"/>
    <rect x="10.739" y="22.035" width=".8504" height=".0567"/>
    <rect x="13.262" y="22.035" width=".7654" height=".0567"/>
    <rect x="6.0052" y="22.092" width="2.1543" height=".0567"/>
    <rect x="10.739" y="22.092" width=".8504" height=".0567"/>
    <rect x="13.262" y="22.092" width=".7654" height=".0567"/>
    <rect x="6.0052" y="22.148" width="1.9843" height=".0567"/>
    <rect x="10.739" y="22.148" width=".8504" height=".0567"/>
    <rect x="13.262" y="22.148" width=".7654" height=".0567"/>
    <rect x="6.0052" y="22.205" width="1.6724" height=".0567"/>
    <rect x="10.796" y="22.205" width=".737" height=".0567"/>
    <rect x="13.262" y="22.205" width=".7654" height=".0567"/>
   </g>
   <rect id="connector5pin" x="59.99" y="30.699" width="3.515" height="4.252" fill="#9a916c"/>
   <rect id="connector6pin" x="65.375" y="30.699" width="3.515" height="4.252" fill="#9a916c"/>
   <rect id="connector7pin" x="49.714" y="40.241" width="4.252" height="3.515" fill="#9a916c"/>
   <rect id="connector8pin" x="49.714" y="34.854" width="4.252" height="3.515" fill="#9a916c"/>
   <rect id="connector9pin" x="67.703" y="41.091" width="2.8347" height="3.0472" fill="#9a916c"/>
   <rect id="connector10pin" x="67.703" y="36.272" width="2.8347" height="3.0472" fill="#9a916c"/>
   <rect id="connector11pin" x="2.9028" y="25.652" width="2.8347" height="3.0472" fill="#9a916c"/>
   <rect id="connector12pin" x="2.9027" y="30.471" width="2.8347" height="3.0472" fill="#9a916c"/>
   <rect id="connector13pin" x="9.0227" y="29.751" width="2.8346" height="3.0472" fill="#9a916c"/>
   <rect id="connector14pin" x="9.0226" y="24.932" width="2.8347" height="3.0472" fill="#9a916c"/>
   <rect id="connector15pin" x="50.528" y="52.77" width=".7087" height="3.9685" fill="#9a916c"/>
   <rect id="connector16pin" x="49.11" y="52.77" width=".7087" height="3.9685" fill="#9a916c"/>
   <rect id="connector17pin" x="47.693" y="52.77" width=".7087" height="3.9685" fill="#9a916c"/>
   <rect id="connector18pin" x="46.276" y="52.77" width=".7087" height="3.9685" fill="#9a916c"/>
   <rect id="connector19pin" x="44.859" y="52.77" width=".7087" height="3.9685" fill="#9a916c"/>
   <rect id="connector20pin" x="43.441" y="52.77" width=".7087" height="3.9685" fill="#9a916c"/>
   <rect id="connector21pin" x="42.024" y="52.77" width=".7087" height="3.9685" fill="#9a916c"/>
   <rect id="connector22pin" x="40.607" y="52.77" width=".7087" height="3.9685" fill="#9a916c"/>
   <rect id="connector23pin" x="39.189" y="52.77" width=".7087" height="3.9685" fill="#9a916c"/>
   <rect id="connector24pin" x="37.772" y="52.77" width=".7087" height="3.9685" fill="#9a916c"/>
   <rect id="connector25pin" x="36.355" y="52.77" width=".7087" height="3.9685" fill="#9a916c"/>
   <rect id="connector26pin" x="34.937" y="52.77" width=".7087" height="3.9685" fill="#9a916c"/>
   <rect id="connector27pin" x="33.52" y="52.77" width=".7087" height="3.9685" fill="#9a916c"/>
   <rect id="connector28pin" x="32.102" y="52.77" width=".7087" height="3.9685" fill="#9a916c"/>
   <rect id="connector29pin" x="30.685" y="52.77" width=".7087" height="3.9685" fill="#9a916c"/>
   <rect id="connector30pin" x="29.268" y="52.77" width=".7087" height="3.9685" fill="#9a916c"/>
   <rect id="connector31pin" x="27.85" y="52.77" width=".7087" height="3.9685" fill="#9a916c"/>
   <rect id="connector32pin" x="26.433" y="52.77" width=".7087" height="3.9685" fill="#9a916c"/>
   <rect id="connector33pin" x="25.016" y="52.77" width=".7087" height="3.9685" fill="#9a916c"/>
   <rect id="connector34pin" x="23.598" y="52.77" width=".7087" height="3.9685" fill="#9a916c"/>
   <rect id="connector35pin" x="22.181" y="52.77" width=".7087" height="3.9685" fill="#9a916c"/>
   <rect id="connector36pin" x="20.764" y="52.77" width=".7087" height="3.9685" fill="#9a916c"/>
   <rect id="connector37pin" x="13.606" y="56.886" width="5.1024" height="11.339" fill="#9a916c"/>
   <rect id="connector38pin" x="53.575" y="56.886" width="5.1024" height="11.339" fill="#9a916c"/>
   <rect id="connector39pin" x="1.4627" y="18.808" width="2.8346" height="2.8347" rx="1.4173" ry="1.4173" fill="#9a916c"/>
   <rect id="connector40pin" x="67.703" y="51.208" width="2.8346" height="2.8346" rx="1.4173" ry="1.4173" fill="#9a916c"/>
   <rect id="connector41pin" x="16.897" y="36.405" width="1.4173" height="1.4173" fill="#9a916c"/>
   <rect id="connector42pin" x="14.913" y="36.405" width="1.1339" height="1.4173" fill="#9a916c"/>
   <rect id="connector43pin" x="12.645" y="36.405" width="1.4173" height="1.4173" fill="#9a916c"/>
   <rect id="connector44pin" x="12.645" y="41.508" width="1.4173" height="1.4173" fill="#9a916c"/>
   <rect id="connector45pin" x="14.913" y="41.508" width="1.1339" height="1.4173" fill="#9a916c"/>
   <rect id="connector46pin" x="16.897" y="41.508" width="1.4173" height="1.4173" fill="#9a916c"/>
   <rect id="connector47pin" x="8.6938" y="42.712" width="2.5512" height="1.2756" fill="#9a916c"/>
   <rect id="connector48pin" x="8.6939" y="40.161" width="2.5512" height="1.2756" fill="#9a916c"/>
   <rect id="connector49pin" x="8.6939" y="37.894" width="2.5512" height="1.2756" fill="#9a916c"/>
   <rect id="connector50pin" x="8.6939" y="35.342" width="2.5512" height="1.2756" fill="#9a916c"/>
   <rect id="connector51pin" x="3.875" y="35.342" width="2.5512" height="1.2756" fill="#9a916c"/>
   <rect id="connector52pin" x="3.875" y="37.894" width="2.5512" height="1.2756" fill="#9a916c"/>
   <rect id="connector53pin" x="3.875" y="40.161" width="2.5512" height="1.2756" fill="#9a916c"/>
   <rect id="connector54pin" x="3.8749" y="42.712" width="2.5512" height="1.2756" fill="#9a916c"/>
   <rect id="connector55pin" x="28.967" y="35.62" width="1.2756" height="2.5512" fill="#9a916c"/>
   <rect id="connector56pin" x="26.416" y="35.62" width="1.2756" height="2.5512" fill="#9a916c"/>
   <rect id="connector57pin" x="24.148" y="35.62" width="1.2756" height="2.5512" fill="#9a916c"/>
   <rect id="connector58pin" x="21.597" y="35.62" width="1.2756" height="2.5512" fill="#9a916c"/>
   <rect id="connector59pin" x="21.597" y="40.439" width="1.2756" height="2.5512" fill="#9a916c"/>
   <rect id="connector60pin" x="24.148" y="40.439" width="1.2756" height="2.5512" fill="#9a916c"/>
   <rect id="connector61pin" x="26.416" y="40.439" width="1.2756" height="2.5512" fill="#9a916c"/>
   <rect id="connector62pin" x="28.967" y="40.439" width="1.2756" height="2.5512" fill="#9a916c"/>
   <rect id="connector63pin" x="60.503" y="19.712" width="2.8347" height="3.0472" fill="#9a916c"/>
   <rect id="connector64pin" x="60.503" y="24.531" width="2.8347" height="3.0472" fill="#9a916c"/>
   <rect id="connector65pin" x="65.543" y="19.352" width="2.8347" height="3.0472" fill="#9a916c"/>
   <rect id="connector66pin" x="65.543" y="24.171" width="2.8347" height="3.0472" fill="#9a916c"/>
   <rect id="connector67pin" x="40.487" y="35.62" width="1.2756" height="2.5512" fill="#9a916c"/>
   <rect id="connector68pin" x="37.936" y="35.62" width="1.2756" height="2.5512" fill="#9a916c"/>
   <rect id="connector69pin" x="35.668" y="35.62" width="1.2756" height="2.5512" fill="#9a916c"/>
   <rect id="connector70pin" x="33.117" y="35.62" width="1.2756" height="2.5512" fill="#9a916c"/>
   <rect id="connector71pin" x="33.117" y="40.439" width="1.2756" height="2.5512" fill="#9a916c"/>
   <rect id="connector72pin" x="35.668" y="40.439" width="1.2756" height="2.5512" fill="#9a916c"/>
   <rect id="connector73pin" x="37.936" y="40.439" width="1.2756" height="2.5512" fill="#9a916c"/>
   <rect id="connector74pin" x="40.487" y="40.439" width="1.2756" height="2.5512" fill="#9a916c"/>
   <circle id="connector75pin" cx="7.2" cy="11.945" r="4.2633" fill="none" stroke="#9a916c" stroke-width="1.44"/>
   <circle id="connector76pin" cx="64.8" cy="11.945" r="4.2633" fill="none" stroke="#9a916c" stroke-width="1.44"/>
   <circle id="connector77pin" cx="7.2" cy="62.345" r="4.2633" fill="none" stroke="#9a916c" stroke-width="1.44"/>
   <circle id="connector78pin" cx="64.8" cy="62.345" r="4.2633" fill="none" stroke="#9a916c" stroke-width="1.44"/>
   <rect id="connector79pin" x="55.814" y="37.093" width="3.4016" height="1.5591" fill="#9a916c"/>
   <rect id="connector80pin" x="55.814" y="39.786" width="3.4016" height="1.5591" fill="#9a916c"/>
   <rect id="connector81pin" x="55.814" y="42.479" width="3.4016" height="1.5591" fill="#9a916c"/>
   <rect id="connector82pin" x="63.184" y="42.479" width="3.4016" height="1.5591" fill="#9a916c"/>
   <rect id="connector83pin" x="63.184" y="39.786" width="3.4016" height="1.5591" fill="#9a916c"/>
   <rect id="connector84pin" x="63.185" y="37.093" width="3.4016" height="1.5591" fill="#9a916c"/>
   <rect id="connector85pin" x="22.89" y="25.54" width=".7087" height="7.3701" fill="#9a916c"/>
   <rect id="connector86pin" x="24.307" y="25.54" width=".7087" height="7.3701" fill="#9a916c"/>
   <rect id="connector87pin" x="25.724" y="25.54" width=".7087" height="7.3701" fill="#9a916c"/>
   <rect id="connector88pin" x="27.142" y="25.54" width=".7087" height="7.3701" fill="#9a916c"/>
   <rect id="connector89pin" x="28.559" y="25.54" width=".7087" height="7.3701" fill="#9a916c"/>
   <rect id="connector90pin" x="29.976" y="25.54" width=".7087" height="7.3701" fill="#9a916c"/>
   <rect id="connector91pin" x="31.394" y="25.54" width=".7087" height="7.3701" fill="#9a916c"/>
   <rect id="connector92pin" x="32.811" y="25.54" width=".7087" height="7.3701" fill="#9a916c"/>
   <rect id="connector93pin" x="34.228" y="25.54" width=".7087" height="7.3701" fill="#9a916c"/>
   <rect id="connector94pin" x="35.646" y="25.54" width=".7087" height="7.3701" fill="#9a916c"/>
   <rect id="connector95pin" x="37.063" y="25.54" width=".7087" height="7.3701" fill="#9a916c"/>
   <rect id="connector96pin" x="38.48" y="25.54" width=".7087" height="7.3701" fill="#9a916c"/>
   <rect id="connector97pin" x="39.898" y="25.54" width=".7087" height="7.3701" fill="#9a916c"/>
   <rect id="connector98pin" x="41.315" y="25.54" width=".7087" height="7.3701" fill="#9a916c"/>
   <rect id="connector99pin" x="42.732" y="25.54" width=".7087" height="7.3701" fill="#9a916c"/>
   <rect id="connector100pin" x="44.15" y="25.54" width=".7087" height="7.3701" fill="#9a916c"/>
   <rect id="connector101pin" x="45.567" y="25.54" width=".7087" height="7.3701" fill="#9a916c"/>
   <rect id="connector102pin" x="46.984" y="25.54" width=".7087" height="7.3701" fill="#9a916c"/>
   <rect id="connector103pin" x="48.402" y="25.54" width=".7087" height="7.3701" fill="#9a916c"/>
   <circle id="connector104pin" cx="56.551" cy="27.071" r="1.5945" fill="none" stroke="#9a916c" stroke-width="1.4882"/>
   <path d="m54.957 23.404h3.189v7.3346h-3.189v-7.3346m0 3.6673c-0.0024 0.8806 0.7096 1.5964 1.5902 1.5987 0.8806 0.0024 1.5964-0.7096 1.5987-1.5902v-0.0085c0.0024-0.8806-0.7096-1.5964-1.5902-1.5987-0.8806-0.0024-1.5964 0.7096-1.5987 1.5902v0.0085z" fill="#9a916c"/>
   <circle id="connector105pin" cx="15.449" cy="27.071" r="1.5945" fill="none" stroke="#9a916c" stroke-width="1.4882"/>
   <path d="m13.854 23.404h3.189v7.3346h-3.189v-7.3346m0 3.6673c-0.0021 0.8806 0.71 1.5962 1.5906 1.5984 0.8806 0.0021 1.5962-0.71 1.5984-1.5906v-0.0078c0.0021-0.8806-0.71-1.5962-1.5906-1.5984-0.8806-0.0021-1.5962 0.71-1.5984 1.5906v0.0078z" fill="#9a916c"/>
   <circle id="connector106pin" cx="15.449" cy="10.176" r="1.4882" fill="none" stroke="#9a916c" stroke-width="1.2756"/>
   <path d="m13.961 6.7536h2.9764v6.8457h-2.9764v-6.8457m0 3.4228c0 0.8219 0.6663 1.4882 1.4882 1.4882s1.4882-0.6663 1.4882-1.4882-0.6663-1.4882-1.4882-1.4882-1.4882 0.6663-1.4882 1.4882z" fill="#9a916c"/>
   <circle id="connector107pin" cx="56.551" cy="10.176" r="1.4882" fill="none" stroke="#9a916c" stroke-width="1.2756"/>
   <path d="M55.063,6.7536h2.9764v6.8457h-2.9764v-6.8457M55.063,10.1764c-.0005.8219.6653,1.4886,1.4872,1.4892.8219.0005,1.4886-.6653,1.4892-1.4872v-.0019c.0005-.8219-.6653-1.4886-1.4872-1.4892-.8219-.0005-1.4886.6653-1.4892,1.4872v.0019Z" fill="#9a916c"/>
  </g>
  <path d="M66.9915,34.5967h-5.103c-.156,0-.283-.127-.283-.283v-2.977c0-.156.127-.283.283-.283h5.102c.157,0,.283.127.283.283v2.977c.001.156-.126.283-.282.283Z" fill="#dcdcdc"/>
  <rect x="62.668" y="31.054" width="3.543" height="3.543" fill="#6e554b"/>
  <g data-name="_x30_805-cap">
   <path d="M53.6115,36.7536v5.103c0,.156-.127.283-.283.283h-2.977c-.156,0-.283-.127-.283-.283v-5.102c0-.157.127-.283.283-.283h2.977c.156-.001.283.126.283.282Z" fill="#dcdcdc"/>
   <rect x="50.068" y="37.534" width="3.543" height="3.543" fill="#6e554b"/>
  </g>
  <path d="M70.254,38.2277v3.955c0,.16-.13.29-.291.29h-1.687c-.16,0-.29-.13-.29-.29v-3.955c0-.16.13-.29.29-.29h1.687c.161,0,.291.13.291.29Z" fill="#dcdcdc"/>
  <rect x="67.986" y="39.071" width="2.268" height="2.268" fill="#6e554b"/>
  <g data-name="_x30_603-cap">
   <path d="M3.186,31.5626v-3.955c0-.16.13-.29.291-.29h1.687c.16,0,.29.13.29.29v3.955c0,.16-.13.29-.29.29h-1.687c-.161,0-.291-.13-.291-.29Z" fill="#dcdcdc"/>
   <rect x="3.186" y="28.452" width="2.268" height="2.268" fill="#6e554b"/>
   <path d="M11.574,26.8877v3.955c0,.16-.13.29-.291.29h-1.687c-.16,0-.29-.13-.29-.29v-3.955c0-.16.13-.29.29-.29h1.687c.161,0,.291.13.291.29Z" fill="#dcdcdc"/>
   <rect x="9.306" y="27.731" width="2.268" height="2.268" fill="#6e554b"/>
  </g>
  <rect x="15.125" y="36.689" width=".709" height="5.953" fill="#dcdcdc"/>
  <rect x="13.282" y="36.689" width=".709" height="5.953" fill="#dcdcdc"/>
  <rect x="16.967" y="36.689" width=".709" height="5.953" fill="#dcdcdc"/>
  <rect x="12.645" y="37.894" width="5.669" height="3.543" fill="#303030"/>
  <rect x="5.2925" y="42.358" width="4.535" height="1.843" fill="#dcdcdc"/>
  <rect x="5.2925" y="40.091" width="4.535" height="1.417" fill="#dcdcdc"/>
  <rect x="5.2925" y="37.823" width="4.535" height="1.417" fill="#dcdcdc"/>
  <rect x="5.2925" y="35.13" width="4.535" height="1.843" fill="#dcdcdc"/>
  <rect x="6.1425" y="35.13" width="2.835" height="9.071" fill="#303030"/>
  <g data-name="respack_4x0603">
   <rect x="28.612" y="37.038" width="1.843" height="4.535" fill="#dcdcdc"/>
   <rect x="26.346" y="37.038" width="1.417" height="4.535" fill="#dcdcdc"/>
   <rect x="24.078" y="37.038" width="1.417" height="4.535" fill="#dcdcdc"/>
   <rect x="21.384" y="37.038" width="1.843" height="4.535" fill="#dcdcdc"/>
   <rect x="21.384" y="37.888" width="9.071" height="2.835" fill="#303030"/>
  </g>
  <path d="M60.786,25.6227v-3.955c0-.16.13-.29.291-.29h1.687c.16,0,.29.13.29.29v3.955c0,.16-.13.29-.29.29h-1.687c-.161,0-.291-.13-.291-.29Z" fill="#dcdcdc"/>
  <rect x="60.786" y="22.512" width="2.268" height="2.268" fill="#333"/>
  <g data-name="_x30_603-res">
   <path d="M65.826,25.2627v-3.955c0-.16.13-.29.291-.29h1.687c.16,0,.29.13.29.29v3.955c0,.16-.13.29-.29.29h-1.687c-.161,0-.291-.13-.291-.29Z" fill="#dcdcdc"/>
   <rect x="65.826" y="22.152" width="2.268" height="2.268" fill="#333"/>
  </g>
  <g data-name="respack_4x0603">
   <rect x="40.132" y="37.038" width="1.843" height="4.535" fill="#dcdcdc"/>
   <rect x="37.866" y="37.038" width="1.417" height="4.535" fill="#dcdcdc"/>
   <rect x="35.598" y="37.038" width="1.417" height="4.535" fill="#dcdcdc"/>
   <rect x="32.904" y="37.038" width="1.843" height="4.535" fill="#dcdcdc"/>
   <rect x="32.904" y="37.888" width="9.071" height="2.835" fill="#303030"/>
  </g>
  <path d="M9.2236,46.3246c.2.032.257.141.341.403.064.199.489,1.533.489,1.533,0,0,.351.93-.146,1.619-.066.093-.143.189-.224.286.097-.082.193-.158.286-.224.69-.495,1.619-.143,1.619-.143,0,0,1.334.427,1.533.492.262.085.37.142.402.342s-.054.288-.277.449c-.17.122-1.307.939-1.307.939,0,0-.777.621-1.586.361-.109-.034-.224-.077-.341-.125.108.067.209.135.302.203.684.503.636,1.496.636,1.496,0,0,.006,1.4.006,1.61.001.275-.02.396-.201.488-.181.091-.291.037-.513-.126-.169-.124-1.297-.953-1.297-.953,0,0-.83-.546-.834-1.395,0-.114.005-.236.014-.362-.03.122-.064.24-.1.348-.267.806-1.226,1.067-1.226,1.067,0,0-1.33.438-1.529.503-.261.086-.383.103-.526-.04-.143-.144-.126-.265-.04-.526.065-.199.506-1.528.506-1.528,0,0,.263-.958,1.07-1.224.108-.036.225-.069.348-.1-.126.009-.248.014-.362.013-.849-.005-1.394-.836-1.394-.836,0,0-.827-1.13-.951-1.298-.162-.223-.216-.333-.124-.514.092-.181.213-.201.488-.2.21.001,1.61.009,1.61.009,0,0,.993-.047,1.495.639.067.092.135.194.202.301-.047-.117-.09-.232-.124-.34-.258-.81.364-1.584.364-1.584,0,0,.819-1.136.941-1.306.161-.223.249-.309.45-.277ZM10.2546,51.1465c-.024-.152-.349-.228-.726-.169s-.662.231-.638.384.349.229.725.169c.377-.059.663-.231.639-.384ZM9.2556,53.1025c.138-.07.11-.402-.063-.742-.173-.34-.425-.558-.563-.488s-.11.402.063.742c.173.34.425.558.563.488ZM7.3776,52.0715c-.27.269-.4.577-.291.686.109.109.416-.02.686-.29.27-.269.4-.576.291-.686-.109-.109-.416.021-.686.29ZM6.7446,50.5875c-.07.138.148.39.487.563.34.174.673.203.743.065s-.148-.39-.487-.563c-.34-.173-.672-.202-.743-.065ZM8.3176,50.2305c-.06.377.015.701.168.726.153.024.325-.262.385-.638.06-.377-.015-.701-.168-.726-.153-.024-.325.261-.385.638Z" fill="#dcdcdc"/>
  <rect x="57.373" y="37.305" width="7.654" height="1.134" fill="#dcdcdc"/>
  <rect x="57.373" y="42.691" width="7.654" height="1.134" fill="#dcdcdc"/>
  <rect x="57.373" y="39.998" width="7.65" height="1.134" fill="#dcdcdc"/>
  <rect x="58.933" y="36.455" width="4.535" height="8.22" fill="#303030"/>
 </g>
 <path d="M56.5206,25.2955h-.002c-.4697-.0006-.8508.3797-.8514.8494s.3797.8508.8494.8514h.002"/>
 <path d="m15.414 26.996h2e-3c0.4697 6e-4 0.8508-0.3797 0.8514-0.8494s-0.3797-0.8508-0.8494-0.8514h-2e-3"/>
 <path d="M15.4107,10.1013h.0055c.4697.0015.8516-.378.8531-.8477.0015-.4697-.378-.8516-.8476-.8531h-.0055"/>
 <path d="M56.5241,8.4005h-.0055c-.4697-.0015-.8516.378-.8531.8477s.378.8516.8476.8531h.0055"/>
 <line x1="56.519" x2="56.519" y1="-.9257" y2="4.2053" fill="none" stroke="#fff" stroke-linecap="round" stroke-width=".576"/>
 <line x1="56.519" x2="56.519" y1="14.127" y2="20.505" fill="none" stroke="#fff" stroke-linecap="round" stroke-width=".576"/>
 <path d="m50.141 31.135" fill="none" stroke="#fff" stroke-linecap="round" stroke-width=".576"/>
 <path d="m55.101 31.135" fill="none" stroke="#fff" stroke-linecap="round" stroke-width=".576"/>
 <path d="m16.834 31.135" fill="none" stroke="#fff" stroke-linecap="round" stroke-width=".576"/>
 <path d="m21.794 31.135" fill="none" stroke="#fff" stroke-linecap="round" stroke-width=".576"/>
 <line x1="56.519" x2="15.416" y1="-.9257" y2="-.9257" fill="none" stroke="#fff" stroke-linecap="round" stroke-width=".576"/>
 <line x1="15.416" x2="15.416" y1="-.9257" y2="4.2053" fill="none" stroke="#fff" stroke-linecap="round" stroke-width=".576"/>
 <line x1="15.416" x2="15.416" y1="14.127" y2="20.505" fill="none" stroke="#fff" stroke-linecap="round" stroke-width=".576"/>
 <rect id="connector248pin" x="22.857" y="24.615" width=".7087" height="7.3701" fill="#9a916c"/>
 <rect id="connector249pin" x="24.274" y="24.615" width=".7087" height="7.3701" fill="#9a916c"/>
 <rect id="connector250pin" x="25.691" y="24.615" width=".7087" height="7.3701" fill="#9a916c"/>
 <rect id="connector251pin" x="27.109" y="24.615" width=".7087" height="7.3701" fill="#9a916c"/>
 <rect id="connector252pin" x="28.526" y="24.615" width=".7087" height="7.3701" fill="#9a916c"/>
 <rect id="connector253pin" x="29.944" y="24.615" width=".7087" height="7.3701" fill="#9a916c"/>
 <rect id="connector254pin" x="31.361" y="24.615" width=".7087" height="7.3701" fill="#9a916c"/>
 <rect id="connector255pin" x="32.778" y="24.615" width=".7087" height="7.3701" fill="#9a916c"/>
 <rect id="connector256pin" x="34.195" y="24.615" width=".7087" height="7.3701" fill="#9a916c"/>
 <rect id="connector257pin" x="35.613" y="24.615" width=".7087" height="7.3701" fill="#9a916c"/>
 <rect id="connector258pin" x="37.031" y="24.616" width=".7087" height="7.3701" fill="#9a916c"/>
 <rect id="connector259pin" x="38.448" y="24.615" width=".7087" height="7.3701" fill="#9a916c"/>
 <rect id="connector260pin" x="39.865" y="24.616" width=".7087" height="7.3701" fill="#9a916c"/>
 <rect id="connector261pin" x="41.282" y="24.615" width=".7087" height="7.3701" fill="#9a916c"/>
 <rect id="connector262pin" x="42.7" y="24.616" width=".7087" height="7.3701" fill="#9a916c"/>
 <rect id="connector263pin" x="44.117" y="24.615" width=".7087" height="7.3701" fill="#9a916c"/>
 <rect id="connector264pin" x="45.535" y="24.616" width=".7087" height="7.3701" fill="#9a916c"/>
 <rect id="connector265pin" x="46.952" y="24.615" width=".7087" height="7.3701" fill="#9a916c"/>
 <rect id="connector266pin" x="48.369" y="24.616" width=".7087" height="7.3701" fill="#9a916c"/>
 <path id="connector267pin" d="M56.5186,27.7408c-.8806,0-1.5945-.7139-1.5945-1.5945s.7139-1.5945,1.5945-1.5945" fill="none" stroke="#9a916c" stroke-width="1.4882"/>
 <path id="connector268pin" d="M15.4162,24.5518c.8806,0,1.5945.7139,1.5945,1.5945s-.7139,1.5945-1.5945,1.5945" fill="none" stroke="#9a916c" stroke-width="1.4882"/>
 <path id="connector269pin" d="M15.4162,7.7631c.8219,0,1.4882.6663,1.4882,1.4882s-.6663,1.4882-1.4882,1.4882" fill="none" stroke="#9a916c" stroke-width="1.2756"/>
 <path d="M15.4143,10.7393h.0019c.8219.0005,1.4886-.6653,1.4892-1.4872.0005-.8219-.6653-1.4886-1.4872-1.4892h-.0019" fill="#9a916c"/>
 <path id="connector270pin" d="m56.519 10.74c-0.8219 0-1.4882-0.6663-1.4882-1.4882s0.6663-1.4882 1.4882-1.4882" fill="none" stroke="#9a916c" stroke-width="1.2756"/>
 <path d="m55.03 12.674h2.9764-2.9764v-6.8457m1.4902 1.9343h-0.0019c-0.8219-5e-4 -1.4886 0.6653-1.4892 1.4872-5e-4 0.8219 0.6653 1.4886 1.4872 1.4892h0.0019" fill="#9a916c"/>
 <rect x="48.374" y="28.512" width=".7087" height="3.4016" fill="#ccc"/>
 <rect x="48.374" y="28.512" width=".7087" height="3.4016" fill="#ccc"/>
 <rect x="46.956" y="28.512" width=".7087" height="3.4016" fill="#ccc"/>
 <rect x="45.539" y="28.512" width=".7087" height="3.4016" fill="#ccc"/>
 <rect x="45.539" y="28.512" width=".7087" height="3.4016" fill="#ccc"/>
 <rect x="44.122" y="28.512" width=".7087" height="3.4016" fill="#ccc"/>
 <rect x="42.704" y="28.512" width=".7087" height="3.4016" fill="#ccc"/>
 <rect x="42.704" y="28.512" width=".7087" height="3.4016" fill="#ccc"/>
 <rect x="41.287" y="28.512" width=".7087" height="3.4016" fill="#ccc"/>
 <rect x="39.87" y="28.512" width=".7087" height="3.4016" fill="#ccc"/>
 <rect x="39.87" y="28.512" width=".7087" height="3.4016" fill="#ccc"/>
 <rect x="38.452" y="28.512" width=".7087" height="3.4016" fill="#ccc"/>
 <rect x="37.035" y="28.512" width=".7087" height="3.4016" fill="#ccc"/>
 <rect x="37.035" y="28.512" width=".7087" height="3.4016" fill="#ccc"/>
 <rect x="35.618" y="28.512" width=".7087" height="3.4016" fill="#ccc"/>
 <rect x="34.2" y="28.512" width=".7087" height="3.4016" fill="#ccc"/>
 <rect x="34.2" y="28.512" width=".7087" height="3.4016" fill="#ccc"/>
 <rect x="32.783" y="28.512" width=".7087" height="3.4016" fill="#ccc"/>
 <rect x="29.948" y="28.512" width=".7087" height="3.4016" fill="#ccc"/>
 <rect x="29.948" y="28.512" width=".7087" height="3.4016" fill="#ccc"/>
 <rect x="28.531" y="28.512" width=".7087" height="3.4016" fill="#ccc"/>
 <rect x="27.113" y="28.512" width=".7087" height="3.4016" fill="#ccc"/>
 <rect x="27.113" y="28.512" width=".7087" height="3.4016" fill="#ccc"/>
 <rect x="25.696" y="28.512" width=".7087" height="3.4016" fill="#ccc"/>
 <rect x="24.279" y="28.512" width=".7087" height="3.4016" fill="#ccc"/>
 <rect x="24.279" y="28.512" width=".7087" height="3.4016" fill="#ccc"/>
 <rect x="22.861" y="28.512" width=".7087" height="3.4016" fill="#ccc"/>
 <rect x="31.365" y="28.512" width=".7087" height="3.4016" fill="#ccc"/>
 <path d="M55.6752-.8064c.8504,0,1.5446.696,1.5446,1.5446v27.534c0,.8504-.6951,1.5464-1.5446,1.5464H16.2676c-.8523,0-1.5446-.696-1.5446-1.5464V.7382c0-.8486.6941-1.5446,1.5446-1.5446h39.4076Z" fill="#ccc"/>
 <rect x="14.724" y="-.8064" width="42.496" height="21.04" fill="#333"/>
 <path d="M16.517-.9953h-1.8097v25.6313h6.8677l-.0075,5.2534h28.7865v-5.2534h6.8686V-.9953h-1.8107M42.4934,1.584h.5127c.308,0,.589.1945.6225.4308l1.6497,13.4311c.0242.2494.2912.4382.6197.4382h1.2896c.2996,0,.5964-.2019.6243-.4382l1.6423-13.4293c.0363-.2382.2912-.4308.6215-.4308l.5062-.0018c.3061,0,.5415.1945.5099.4308l-2.1922,15.9805c-.0419.2363-.3071.4271-.6206.4271h-3.4725c-.3098,0-.5955-.1945-.6243-.4271l-2.1903-15.9806c-.0428-.2363.1963-.4308.5015-.4308h0ZM40.2007,20.9915h-.575c-.3461,0-.6606-.2475-.6978-.5397l-1.8553-16.8962c-.0251-.3015-.3284-.5415-.6941-.5415h-1.4496c-.335,0-.6653.2475-.6978.5415l-1.8414,16.8943c-.0419.294-.3294.5397-.6978.5397l-.5639.0018c-.3415,0-.6057-.2456-.5713-.5397l2.3318-18.6091c.0493-.295.3452-.5332.696-.5332h3.9023c.3489,0,.6662.2438.6997.5332l2.5904,18.6091c.0352.295-.2337.5397-.5762.5398h0ZM21.3459,1.584h.5127c.307,0,.5908.1945.6234.4308l1.6516,13.4312c.0223.2494.2912.4382.6197.4382h1.2887c.3015,0,.5946-.2019.6234-.4382l1.6451-13.4294c.0382-.2382.2912-.4308.6215-.4308l.509-.0018c.3033,0,.5415.1945.509.4308l-2.1903,15.9805c-.0437.2363-.3071.4271-.6215.4271h-3.4715c-.3089,0-.5955-.1945-.6253-.4271l-2.1894-15.9806c-.0493-.2363.1907-.4308.4941-.4308h-.0002Z" fill="#b3b3b3"/>
 <polygon points="24.079 15.888 23.945 14.627 26.845 14.627 26.694 15.888" fill="#939393"/>
 <polygon points="23.864 14.101 23.945 14.627 26.845 14.627 26.918 14.101" fill="#666"/>
 <polygon points="45.244 15.888 45.108 14.627 48.01 14.627 47.857 15.888" fill="#939393"/>
 <polygon points="45.027 14.101 45.108 14.627 48.01 14.627 48.081 14.101" fill="#666"/>
 <polygon points="37.034 2.9941 37.178 4.3606 34.128 4.3606 34.288 2.9941" fill="#939393"/>
 <polygon points="37.261 4.9329 37.178 4.3606 34.128 4.3606 34.054 4.9329" fill="#666"/>
 <rect x="54.392" y="21.643" width="2.8277" height=".7723" fill="gray"/>
 <rect x="54.392" y="19.462" width="2.8277" height=".7723" fill="gray"/>
 <rect x="14.703" y="21.643" width="2.8249" height=".7723" fill="gray"/>
 <rect x="14.703" y="19.462" width="2.8249" height=".7723" fill="gray"/>
 <path d="M46.4498,29.8187h.7723v-4.2802c0-.4252-.3219-.7741-.7164-.7741-.3964,0-.7174.3489-.7174.7741v2.0759c0,.4234-.3461.7723-.7714.7723h-18.1179c-.4252,0-.7723-.3489-.7723-.7723v-2.0759c0-.4252-.3247-.7741-.7174-.7741s-.7155.3489-.7155.7741v4.2802h.7723s20.9837,0,20.9837,0Z" fill="gray"/>
 <rect x="55.423" y="-.9962" width="1.2989" height="25.631" fill="#fff" fill-opacity=".2"/>
 <rect x="15.222" y="-.9962" width="1.3026" height="25.631" fill-opacity=".2"/>
 <line x1="55.419" x2="16.528" y1="-.3775" y2="-.3775" fill="none"/>
 <rect id="connector44pin-2" x="47.699" y="53.006" width=".7078" height="4.7283" fill="#b2b2b2" data-name="connector44pin"/>
 <rect id="connector44pin-3" x="46.284" y="53.006" width=".7078" height="4.7283" fill="#b2b2b2" data-name="connector44pin"/>
 <rect id="connector44pin-4" x="44.868" y="53.006" width=".7078" height="4.7283" fill="#b2b2b2" data-name="connector44pin"/>
 <rect id="connector44pin-5" x="43.453" y="53.006" width=".7078" height="4.7283" fill="#b2b2b2" data-name="connector44pin"/>
 <rect id="connector44pin-6" x="42.037" y="53.006" width=".7078" height="4.7283" fill="#b2b2b2" data-name="connector44pin"/>
 <rect id="connector44pin-7" x="40.622" y="53.006" width=".7078" height="4.7283" fill="#b2b2b2" data-name="connector44pin"/>
 <rect id="connector44pin-8" x="39.206" y="53.006" width=".7078" height="4.7283" fill="#b2b2b2" data-name="connector44pin"/>
 <rect id="connector44pin-9" x="37.791" y="53.006" width=".7078" height="4.7283" fill="#b2b2b2" data-name="connector44pin"/>
 <rect id="connector44pin-10" x="36.375" y="53.006" width=".7078" height="4.7283" fill="#b2b2b2" data-name="connector44pin"/>
 <rect id="connector44pin-11" x="34.96" y="53.006" width=".7078" height="4.7283" fill="#b2b2b2" data-name="connector44pin"/>
 <line id="connector44pin-12" x1="34.301" x2="34.301" y1="58.545" y2="53.817" fill="none" data-name="connector44pin"/>
 <rect id="connector44pin-13" x="32.129" y="53.006" width=".7078" height="4.7283" fill="#b2b2b2" data-name="connector44pin"/>
 <rect id="connector44pin-14" x="30.713" y="53.006" width=".7078" height="4.7283" fill="#b2b2b2" data-name="connector44pin"/>
 <rect id="connector44pin-15" x="29.298" y="53.006" width=".7078" height="4.7283" fill="#b2b2b2" data-name="connector44pin"/>
 <rect id="connector44pin-16" x="27.851" y="52.979" width=".7078" height="4.7283" fill="#b2b2b2" data-name="connector44pin"/>
 <rect id="connector44pin-17" x="26.434" y="52.979" width=".7078" height="4.7283" fill="#b2b2b2" data-name="connector44pin"/>
 <rect id="connector44pin-18" x="33.544" y="53.006" width=".7078" height="4.7283" fill="#b2b2b2" data-name="connector44pin"/>
 <rect id="connector44pin-19" x="25.016" y="52.979" width=".7078" height="4.7283" fill="#b2b2b2" data-name="connector44pin"/>
 <rect id="connector44pin-20" x="23.599" y="52.979" width=".7078" height="4.7283" fill="#b2b2b2" data-name="connector44pin"/>
 <rect id="connector44pin-21" x="22.182" y="52.979" width=".7078" height="4.7283" fill="#b2b2b2" data-name="connector44pin"/>
 <rect id="connector44pin-22" x="20.764" y="52.979" width=".7078" height="4.7283" fill="#b2b2b2" data-name="connector44pin"/>
 <rect id="connector44pin-23" x="50.53" y="52.996" width=".7078" height="4.7283" fill="#b2b2b2" data-name="connector44pin"/>
 <rect id="connector44pin-24" x="49.115" y="53.03" width=".7078" height="4.7283" fill="#b2b2b2" data-name="connector44pin"/>
 <path d="M16.2827,69.6405h38.718c.2885,0,.5224-.208.5224-.4646v-4.9055c0-.2566-.2339-.4646-.5224-.4646H16.2826c-.2885,0-.5224.208-.5224.4646v4.9055c.0001.2566.234.4646.5225.4646Z" fill="#353535"/>
 <path d="M14.4304,66.7231h42.877c.2855,0,.5169-.1881.5169-.42v-10.1593c0-.232-.2315-.42-.5169-.42H14.4304c-.2855,0-.5169.1881-.5169.42v10.1593c0,.232.2315.42.5169.42Z" fill="#efe9d0"/>
 <g transform="translate(111.02 135.25) rotate(180)">
  <rect x="52.641" y="65.612" width="5.7357" height="4.0282" rx="1.3271" ry="1.3271" fill="#353535"/>
 </g>
 <g transform="translate(33.765 134.85) rotate(180)">
  <rect x="13.812" y="65.21" width="6.1408" height="4.4304" rx="1.2485" ry="1.2485" fill="#353535"/>
 </g>
 <g transform="translate(33.785 122.36) rotate(180)">
  <rect x="13.812" y="55.632" width="6.1605" height="11.091" fill="#dcdcdc"/>
 </g>
 <g transform="translate(111.05 122.36) rotate(180)">
  <rect x="52.641" y="55.632" width="5.7641" height="11.091" fill="#dcdcdc"/>
 </g>
 <g transform="translate(80.488 41.068) rotate(90)">
  <rect x="15.278" y="60.516" width="8.8638" height=".525" fill="#b5b5b5"/>
 </g>
 <g transform="translate(113.65 7.8462) rotate(90)">
  <rect x="48.472" y="60.487" width="8.8638" height=".525" fill="#b5b5b5"/>
 </g>
 <metadata>
  <rdf:RDF xmlns:rdf="http://www.w3.org/1999/02/22-rdf-syntax-ns#">
   <cc:Work rdf:about="" xmlns:cc="http://creativecommons.org/ns#" xmlns:rdf="http://www.w3.org/1999/02/22-rdf-syntax-ns#">
    <dc:format xmlns:dc="http://purl.org/dc/elements/1.1/">image/svg+xml</dc:format>
    <dc:type rdf:resource="http://purl.org/dc/dcmitype/StillImage" xmlns:dc="http://purl.org/dc/elements/1.1/" xmlns:rdf="http://www.w3.org/1999/02/22-rdf-syntax-ns#"/>
    <dc:title xmlns:dc="http://purl.org/dc/elements/1.1/"/>
   </cc:Work>
  </rdf:RDF>
  <sfw>
   <slices/>
   <sliceSourceBounds x="0" y="-0.1" width="72" height="70.85" bottomLeftOrigin="true"/>
  </sfw>
 </metadata>
</svg>
