<?xml version="1.0" encoding="UTF-8"?>
<!-- Created with Inkscape (http://www.inkscape.org/) -->
<svg width="315" height="90" version="1.1" xmlns="http://www.w3.org/2000/svg">
 <defs>
  <linearGradient id="linearGradient3891">
   <stop stop-color="#333" offset="0"/>
   <stop stop-color="#464646" offset=".5"/>
   <stop stop-color="#2c2c2c" offset="1"/>
  </linearGradient>
  <linearGradient id="linearGradient4562" x1="94.5" x2="76.5" y1="20.25" y2="20.25" gradientTransform="translate(189 382.5)" gradientUnits="userSpaceOnUse" xmlns:xlink="http://www.w3.org/1999/xlink">
   <stop stop-opacity=".24107" offset="0"/>
   <stop stop-color="#fff" stop-opacity=".21429" offset="1"/>
  </linearGradient>
  <linearGradient id="linearGradient4637" x1="56.25" x2="63" y2="40.5" gradientTransform="translate(189 382.5)" gradientUnits="userSpaceOnUse" xlink:href="#linearGradient3891" xmlns:xlink="http://www.w3.org/1999/xlink"/>
  <linearGradient id="linearGradient4645" x1="22.566" x2="66.84" y1="429.75" y2="429.75" gradientTransform="translate(189 -26.999)" gradientUnits="userSpaceOnUse" xlink:href="#linearGradient3891" xmlns:xlink="http://www.w3.org/1999/xlink"/>
  <linearGradient id="linearGradient4668" x1="13.5" x2="27" y1="38.7" y2="38.7" gradientTransform="translate(189 382.5)" gradientUnits="userSpaceOnUse" xlink:href="#linearGradient3891" xmlns:xlink="http://www.w3.org/1999/xlink"/>
  <linearGradient id="linearGradient4672" x1="13.5" x2="27" y1="38.7" y2="38.7" gradientTransform="translate(189 345.6)" gradientUnits="userSpaceOnUse" xlink:href="#linearGradient3891" xmlns:xlink="http://www.w3.org/1999/xlink"/>
  <linearGradient id="linearGradient4676" x1="13.5" x2="27" y1="38.7" y2="38.7" gradientTransform="translate(265.5 345.6)" gradientUnits="userSpaceOnUse" xlink:href="#linearGradient3891" xmlns:xlink="http://www.w3.org/1999/xlink"/>
  <linearGradient id="linearGradient4680" x1="13.5" x2="27" y1="38.7" y2="38.7" gradientTransform="translate(265.5 382.5)" gradientUnits="userSpaceOnUse" xlink:href="#linearGradient3891" xmlns:xlink="http://www.w3.org/1999/xlink"/>
  <radialGradient id="radialGradient4896" cx="58.5" cy="-49.5" r="2.25" gradientTransform="matrix(1.2,0,0,1.2,-11.7,9.9)" gradientUnits="userSpaceOnUse" xmlns:xlink="http://www.w3.org/1999/xlink">
   <stop stop-color="#b3b3b3" offset="0"/>
   <stop stop-color="#939393" offset="0"/>
   <stop stop-color="#d3d3d3" offset=".66667"/>
   <stop stop-color="#969696" offset=".83333"/>
   <stop stop-color="#909090" offset="1"/>
  </radialGradient>
  <linearGradient id="linearGradient4908" x1="27" x2="40.5" y1="-90" y2="-9" gradientTransform="matrix(.86603 -.5 .5 .86603 207.26 65.398)" gradientUnits="userSpaceOnUse" xmlns:xlink="http://www.w3.org/1999/xlink">
   <stop stop-color="#333" offset="0"/>
   <stop stop-color="#2f2f2f" offset=".44444"/>
   <stop stop-color="#4f4f4f" offset=".5768"/>
   <stop stop-color="#333" offset=".69201"/>
   <stop stop-color="#2c2c2c" offset="1"/>
  </linearGradient>
  <linearGradient id="linearGradient4958" x1="-164.7" x2="-155.25" y1="-4.5" y2="-4.5" gradientTransform="translate(189 -26.999)" gradientUnits="userSpaceOnUse" xmlns:xlink="http://www.w3.org/1999/xlink">
   <stop stop-color="#b69f89" offset="0"/>
   <stop stop-color="#938070" offset=".25"/>
   <stop stop-color="#d3c6b6" offset=".5"/>
   <stop stop-color="#96897b" offset=".75"/>
   <stop stop-color="#908682" offset="1"/>
  </linearGradient>
  <linearGradient id="linearGradient4969" x1="-162" x2="-153" y1="-13.5" y2="4.5" gradientTransform="translate(189 -26.999)" gradientUnits="userSpaceOnUse" xlink:href="#linearGradient3891" xmlns:xlink="http://www.w3.org/1999/xlink"/>
  <linearGradient id="linearGradient4972" x1="-166.5" x2="-153" y1="4.5" y2="40.5" gradientTransform="translate(189 -26.999)" gradientUnits="userSpaceOnUse" xmlns:xlink="http://www.w3.org/1999/xlink">
   <stop stop-color="#2c2c2c" offset="0"/>
   <stop stop-color="#3c3c3c" offset=".5"/>
   <stop stop-color="#333" offset="1"/>
  </linearGradient>
 </defs>
 <metadata>
  <rdf:RDF xmlns:rdf="http://www.w3.org/1999/02/22-rdf-syntax-ns#">
   <cc:Work rdf:about="" xmlns:cc="http://creativecommons.org/ns#" xmlns:rdf="http://www.w3.org/1999/02/22-rdf-syntax-ns#">
    <dc:format xmlns:dc="http://purl.org/dc/elements/1.1/">image/svg+xml</dc:format>
    <dc:type rdf:resource="http://purl.org/dc/dcmitype/StillImage" xmlns:dc="http://purl.org/dc/elements/1.1/" xmlns:rdf="http://www.w3.org/1999/02/22-rdf-syntax-ns#"/>
    <dc:title xmlns:dc="http://purl.org/dc/elements/1.1/"/>
   </cc:Work>
  </rdf:RDF>
 </metadata>
 <g transform="translate(0,-360)"></g>
 <g transform="translate(0,49.5)">
  <g id="icon">
   <path d="m211.5-8.9985h-135-4.5l-4.5-4.5h-13.5" color="#000000" fill="none" stroke="#eb7206" stroke-linejoin="round" stroke-width="4.5"/>
   <path d="m211.5-4.4985h-135-22.5" color="#000000" fill="none" stroke="#cc0404" stroke-width="4.5"/>
   <path d="m211.5 0.0014615h-135-4.5l-4.5 4.5h-13.5" color="#000000" fill="none" stroke="#723107" stroke-linejoin="round" stroke-width="4.5"/>
   <path d="m204.75-13.499h-123.75l-18-18h-9" color="#000000" fill="none" stroke="#e2e2e2" stroke-linejoin="round" stroke-width="4.5"/>
   <rect x="9" y="-17.999" width="45" height="27" fill="url(#linearGradient4972)"/>
   <rect x="9" y="-35.999" width="45" height="9" fill="url(#linearGradient4969)"/>
   <rect x="9" y="-17.999" width="31.5" height="1.8" fill="#fff" fill-opacity=".39713"/>
   <rect x="9" y="7.2015" width="31.5" height="1.8" fill-opacity=".51196"/>
   <path d="m54.9-31.499h8.1l18 18h103.5" color="#000000" fill="none" stroke="#fff" stroke-linecap="round" stroke-opacity=".22488" stroke-width="1.8"/>
   <path d="m54.9-13.499h12.6l4.5 4.5h135" color="#000000" fill="none" stroke="#fff" stroke-linecap="round" stroke-opacity=".090909" stroke-width="1.8"/>
   <path d="m54.9-4.4985h152.1" color="#000000" fill="none" stroke="#fff" stroke-linecap="round" stroke-opacity=".10048" stroke-width="1.8"/>
   <path d="m54.9 4.5015h12.6l4.5-4.5h130.5" color="#000000" fill="none" stroke="#fff" stroke-linecap="round" stroke-opacity=".047847" stroke-width="1.8"/>
   <rect x="22.5" y="-33.749" width="11.25" height="4.5" fill-opacity=".51196"/>
   <rect x="24.3" y="-32.849" width="9.45" height="2.7" fill="url(#linearGradient4958)"/>
   <rect id="connector1pin" x="6.75" y="-33.75" width="4.5" height="4.5" fill="none"/>
   <rect id="connector2pin" x="6.75" y="-15.75" width="4.5" height="4.5" fill="none"/>
   <rect id="connector3pin" x="6.75" y="-6.75" width="4.5" height="4.5" fill="none"/>
   <rect id="connector4pin" x="6.75" y="2.25" width="4.5" height="4.5" fill="none"/>
   <path transform="translate(0 -1011.9)" d="m190.81 984.86c-0.9972 0-1.8125 0.8153-1.8125 1.8125v14.844c1.2856-2.4171 3.8213-4.0624 6.75-4.0624 4.225 0 7.6562 3.4312 7.6562 7.6561 0 4.225-3.4313 7.6563-7.6562 7.6563-2.9287 0-5.4644-1.6454-6.75-4.0625v14.844c0 0.9972 0.8153 1.8125 1.8125 1.8125h113.38c0.9972 0 1.8125-0.8153 1.8125-1.8125v-14.844c-1.2856 2.4171-3.8213 4.0625-6.75 4.0625-4.225 0-7.6562-3.4313-7.6562-7.6563 0-4.2249 3.4313-7.6561 7.6562-7.6561 2.9287 0 5.4644 1.6454 6.75 4.0624v-14.844c0-0.9972-0.8153-1.8125-1.8125-1.8125h-113.38z" fill="#4d4d4d" stroke="#000" stroke-linejoin="round" stroke-width=".18"/>
   <rect transform="translate(0,-409.5)" x="202.5" y="419.4" width="13.5" height="3.6" fill="url(#linearGradient4668)" stroke="#000" stroke-linecap="round" stroke-linejoin="round" stroke-width=".18"/>
   <rect transform="translate(0,-409.5)" x="202.5" y="382.5" width="13.5" height="3.6" fill="url(#linearGradient4672)" stroke="#000" stroke-linecap="round" stroke-linejoin="round" stroke-width=".18"/>
   <rect transform="translate(0,-409.5)" x="279" y="382.5" width="13.5" height="3.6" fill="url(#linearGradient4676)" stroke="#000" stroke-linecap="round" stroke-linejoin="round" stroke-width=".18"/>
   <rect transform="translate(0,-409.5)" x="279" y="419.4" width="13.5" height="3.6" fill="url(#linearGradient4680)" stroke="#000" stroke-linecap="round" stroke-linejoin="round" stroke-width=".18"/>
   <rect transform="translate(0,-409.5)" x="211.5" y="382.5" width="72" height="40.5" rx="1.8" fill="url(#linearGradient4637)" stroke="#000" stroke-linejoin="round" stroke-width=".18"/>
   <path transform="translate(0,-409.5)" d="m225 382.5c-7.8485 3.3814-13.344 11.167-13.344 20.25 0 9.0834 5.4953 16.869 13.344 20.25h17.406c1.2046-0.52074 2.3532-1.1272 3.4375-1.8438v0.0312l17.125-10.344v-0.0937c2.9209-1.4874 4.9375-4.4975 4.9375-8s-2.0166-6.5126-4.9375-8v-0.0937l-17.125-10.344v0.0312c-1.0842-0.71659-2.2329-1.323-3.4375-1.8438h-17.406z" fill="#333" stroke="#000" stroke-linejoin="round" stroke-width=".18"/>
   <rect transform="translate(0,-409.5)" x="270" y="382.5" width="13.5" height="40.5" rx="1.8" fill="url(#linearGradient4562)"/>
   <path transform="translate(0,-409.5)" d="m225 382.5c-7.845 3.3778-13.344 11.167-13.344 20.25 0 9.0834 5.4988 16.872 13.344 20.25h17.438c7.833-3.383 13.312-11.175 13.312-20.25s-5.4795-16.867-13.312-20.25h-17.438z" fill="url(#linearGradient4645)" stroke="#000" stroke-linejoin="round" stroke-width=".18"/>
   <path transform="translate(189 -26.999)" d="m36.5 39.808a21.15 21.15 0 0 1-0.55955-38.876" fill="none" stroke="#fff" stroke-linecap="round" stroke-linejoin="round" stroke-opacity=".21693" stroke-width="1.8"/>
   <path transform="matrix(-1 0 0 1 278.1 -26.999)" d="m36.5 39.808a21.15 21.15 0 0 1-0.55955-38.876" fill="none" stroke="#000" stroke-linecap="round" stroke-linejoin="round" stroke-opacity=".33862" stroke-width="1.8"/>
   <path transform="translate(189 -26.999)" d="m52.2 20.25a8.1 8.1 0 1 1-16.2 0 8.1 8.1 0 1 1 16.2 0z" fill="#ccc" stroke="#fff" stroke-linecap="round" stroke-linejoin="round" stroke-opacity=".68254" stroke-width=".18"/>
   <path d="m217.34-33.953c-3.4079 1.9676-4.5641 6.2823-2.5965 9.6902l6.5 11.258c-0.94192 1.7886-1.4656 3.743-1.5442 5.7629l-34.56 19.953c-3.4544 1.9944-4.6252 6.3639-2.6308 9.8183s6.3639 4.6252 9.8183 2.6308l34.56-19.953c1.7886 0.94192 3.743 1.4656 5.7629 1.5442l6.5 11.258c1.9676 3.4079 6.2823 4.5641 9.6902 2.5965l0.16238-0.09375c3.4079-1.9676 4.5641-6.2823 2.5965-9.6902l-6.5-11.258c0.94192-1.7886 1.4656-3.743 1.5442-5.7629l34.56-19.953c3.4544-1.9944 4.6252-6.3639 2.6308-9.8183s-6.3639-4.6252-9.8183-2.6308l-34.56 19.953c-1.7886-0.94192-3.743-1.4656-5.7629-1.5442l-6.5-11.258c-1.9676-3.4079-6.2823-4.5641-9.6902-2.5965l-0.16238 0.09375zm2.7843 4.6351c0.86092-0.49706 1.9632-0.22457 2.4603 0.63636 0.49706 0.86093 0.19751 1.9789-0.66342 2.4759-0.86092 0.49706-1.9789 0.19751-2.4759-0.66342-0.49706-0.86093-0.18188-1.9518 0.67905-2.4489zm3.1406 5.4397c0.86093-0.49706 1.9789-0.19751 2.4759 0.66342 0.49706 0.86093 0.19751 1.9789-0.66342 2.4759-0.86092 0.49706-1.9789 0.19751-2.4759-0.66342s-0.1975-1.9789 0.66342-2.4759zm-35.438 41.245c0.86093-0.49706 1.9789-0.19751 2.4759 0.66342 0.49705 0.86093 0.1975 1.9789-0.66343 2.4759-0.86092 0.49706-1.9518 0.18188-2.4488-0.67905-0.49706-0.86093-0.22457-1.9632 0.63635-2.4603zm5.4668-3.1562c0.86093-0.49706 1.9789-0.19751 2.4759 0.66342s0.19751 1.9789-0.66342 2.4759-1.9789 0.19751-2.4759-0.66342c-0.49706-0.86093-0.19751-1.9789 0.66342-2.4759zm5.4668-3.1562c0.86093-0.49706 1.9518-0.18188 2.4489 0.67905 0.49706 0.86093 0.22457 1.9632-0.63636 2.4603-0.86092 0.49706-1.9789 0.19751-2.4759-0.66342-0.49705-0.86093-0.1975-1.9789 0.66342-2.4759zm67.415-38.922c0.86093-0.49706 1.9518-0.18188 2.4489 0.67905 0.49705 0.86093 0.22457 1.9632-0.63636 2.4603s-1.9789 0.19751-2.4759-0.66342-0.19751-1.9789 0.66342-2.4759zm5.4397-3.1406c0.86093-0.49706 1.9789-0.19751 2.4759 0.66342 0.49706 0.86093 0.19751 1.9789-0.66342 2.4759-0.86092 0.49706-1.9518 0.18188-2.4489-0.67905-0.49705-0.86093-0.22456-1.9632 0.63636-2.4603zm5.4668-3.1562c0.86092-0.49706 1.9789-0.19751 2.4759 0.66342s0.1975 1.9789-0.66342 2.4759c-0.86093 0.49706-1.9789 0.19751-2.4759-0.66342-0.49706-0.86093-0.19751-1.9789 0.66342-2.4759zm-35.817 41.463c0.86093-0.49706 1.9789-0.19751 2.4759 0.66342 0.49706 0.86093 0.19751 1.9789-0.66342 2.4759-0.86092 0.49706-1.9789 0.19751-2.4759-0.66342-0.49705-0.86093-0.1975-1.9789 0.66342-2.4759zm3.1562 5.4668c0.86093-0.49706 1.9789-0.19751 2.4759 0.66342 0.49706 0.86093 0.18188 1.9518-0.67904 2.4489-0.86093 0.49706-1.9632 0.22457-2.4603-0.63636-0.49705-0.86093-0.1975-1.9789 0.66342-2.4759z" fill="url(#linearGradient4908)" stroke="#000" stroke-linecap="round" stroke-linejoin="round" stroke-opacity=".68254" stroke-width=".18"/>
   <path transform="matrix(.86603 -.5 .5 .86603 207.26 65.398)" d="m72-49.5a13.5 13.5 0 1 1-27 0 13.5 13.5 0 1 1 27 0z" fill-opacity=".39713" stroke="#000" stroke-linecap="round" stroke-linejoin="round" stroke-opacity=".68254" stroke-width=".18"/>
   <g transform="matrix(.86603 -.5 .5 .86603 207.26 65.398)">
    <path d="m61.2-49.5a2.7 2.7 0 1 1-5.4 0 2.7 2.7 0 1 1 5.4 0z" fill="url(#radialGradient4896)"/>
    <path d="m56.449-48.732 3.7412-2.16 0.36 0.62354-3.7412 2.16zm0.65884-2.4588 0.62354-0.36 2.16 3.7412-0.62354 0.36z" fill="#333" fill-opacity=".39713"/>
   </g>
  </g>
 </g>
</svg>
