<?xml version="1.0" encoding="UTF-8"?>
<!-- Generator: Adobe Illustrator 20.0.0, SVG Export Plug-In . SVG Version: 6.00 Build 0)  -->
<svg width=".8in" height=".7in" baseProfile="tiny" version="1.2" viewBox="0 0 57.6 50.4" xml:space="preserve" xmlns="http://www.w3.org/2000/svg" xmlns:xml="http://www.w3.org/XML/1998/namespace">
    <desc>
        <referenceFile>Adafruit SI1145 Digital UV Index + IR + Visible Light Sensor_breadboard.svg</referenceFile>
    </desc>
    <desc>Fritzing breadboard generated by brd2svg</desc>
    <g id="breadboard">
        <g id="icon">
            <path d="m0 43.2v-36c0-3.976 3.224-7.2 7.2-7.2h43.2c3.976 0 7.2 3.224 7.2 7.2v36c0 3.976-3.224 7.2-7.2 7.2h-43.2c-3.976 0-7.2-3.224-7.2-7.2m5.783 0c0 0.783 0.635 1.417 1.417 1.417s1.417-0.635 1.417-1.417-0.634-1.417-1.417-1.417-1.417 0.634-1.417 1.417zm7.2 0c0 0.783 0.635 1.417 1.417 1.417s1.417-0.635 1.417-1.417-0.635-1.417-1.417-1.417-1.417 0.634-1.417 1.417zm7.2 0c0 0.783 0.635 1.417 1.417 1.417 0.783 0 1.417-0.635 1.417-1.417s-0.635-1.417-1.417-1.417c-0.783 0-1.417 0.634-1.417 1.417zm7.2 0c0 0.783 0.635 1.417 1.417 1.417 0.783 0 1.417-0.635 1.417-1.417s-0.635-1.417-1.417-1.417c-0.783 0-1.417 0.634-1.417 1.417zm7.2 0c0 0.783 0.635 1.417 1.417 1.417 0.783 0 1.417-0.635 1.417-1.417s-0.634-1.417-1.417-1.417-1.417 0.634-1.417 1.417zm7.2 0c0 0.783 0.635 1.417 1.417 1.417s1.417-0.635 1.417-1.417-0.635-1.417-1.417-1.417-1.417 0.634-1.417 1.417zm7.2 0c0 0.783 0.635 1.417 1.417 1.417 0.783 0 1.417-0.635 1.417-1.417s-0.635-1.417-1.417-1.417-1.417 0.634-1.417 1.417zm-45.326-36c-3e-3 1.957 1.58 3.546 3.537 3.549s3.546-1.58 3.549-3.537v-0.012c3e-3 -1.957-1.58-3.546-3.537-3.549-1.957-4e-3 -3.546 1.58-3.549 3.537v0.012zm43.2 0c-3e-3 1.957 1.58 3.546 3.537 3.55s3.546-1.58 3.55-3.537v-0.012c3e-3 -1.957-1.58-3.546-3.537-3.55-1.957-3e-3 -3.546 1.58-3.55 3.537v0.012z" fill="#014CB1"/>
            <g>
                <title>layer 21</title>
                <g>
                    <title>text:SI1145</title>
                    <g transform="translate(19.742 6.408)">
                        <text fill="#FFFFFF" font-family="'OCRA'" font-size="3.3408">SI1145</text>
                    </g>
                </g>
                <g>
                    <title>text:UV Sensor</title>
                    <g transform="translate(15.214 12.168)">
                        <text fill="#FFFFFF" font-family="'OCRA'" font-size="3.3408">UV Sensor</text>
                    </g>
                </g>
                <g>
                    <title>text:SDA</title>
                    <g transform="translate(46.777 40.19)">
                        <text fill="#FFFFFF" font-family="'OCRA'" font-size="2.6726">SDA</text>
                    </g>
                </g>
                <g>
                    <title>text:SCL</title>
                    <g transform="translate(39.577 49.55)">
                        <text fill="#FFFFFF" font-family="'OCRA'" font-size="2.6726">SCL</text>
                    </g>
                </g>
                <g>
                    <title>text:LED</title>
                    <g transform="translate(32.377 40.19)">
                        <text fill="#FFFFFF" font-family="'OCRA'" font-size="2.6726">LED</text>
                    </g>
                </g>
                <g>
                    <title>text:INT</title>
                    <g transform="translate(25.897 49.55)">
                        <text fill="#FFFFFF" font-family="'OCRA'" font-size="2.6726">INT</text>
                    </g>
                </g>
                <g>
                    <title>text:GND</title>
                    <g transform="translate(10.777 49.55)">
                        <text fill="#FFFFFF" font-family="'OCRA'" font-size="2.6726">GND</text>
                    </g>
                </g>
                <g>
                    <title>text:Vin</title>
                    <g transform="translate(3.5769 40.19)">
                        <text fill="#FFFFFF" font-family="'OCRA'" font-size="2.6726">Vin</text>
                    </g>
                </g>
                <g>
                    <title>text:3Vo</title>
                    <g transform="translate(17.977 40.19)">
                        <text fill="#FFFFFF" font-family="'OCRA'" font-size="2.6726">3Vo</text>
                    </g>
                </g>
                <g>
                    <title>element:C1</title>
                    <g>
                        <title>package:0805-NO</title>
                        <line x1="15.84" x2="18.72" y1="18.72" y2="18.72" fill="none" stroke="#fff" stroke-linecap="round" stroke-width=".864"/>
                    </g>
                </g>
                <g>
                    <title>element:C2</title>
                    <g>
                        <title>package:0805-NO</title>
                        <line x1="4.32" x2="7.2" y1="30.24" y2="30.24" fill="none" stroke="#fff" stroke-linecap="round" stroke-width=".864"/>
                    </g>
                </g>
                <g>
                    <title>element:FID1</title>
                    <g>
                        <title>package:FIDUCIAL_1MM</title>
                    </g>
                </g>
                <g>
                    <title>element:FID2</title>
                    <g>
                        <title>package:FIDUCIAL_1MM</title>
                    </g>
                </g>
                <g>
                    <title>element:JP1</title>
                    <g>
                        <title>package:1X07_ROUND_70</title>
                    </g>
                </g>
                <g>
                    <title>element:Q1</title>
                    <g>
                        <title>package:SOT23-WIDE</title>
                        <line x1="42.791" x2="46.512" y1="14.699" y2="14.699" fill="none" stroke="#fff" stroke-linecap="round" stroke-width=".576"/>
                        <line x1="46.512" x2="46.512" y1="14.699" y2="17.417" fill="none" stroke="#fff" stroke-linecap="round" stroke-width=".576"/>
                        <line x1="46.512" x2="42.791" y1="24.181" y2="24.181" fill="none" stroke="#fff" stroke-linecap="round" stroke-width=".576"/>
                        <line x1="46.512" x2="46.512" y1="21.463" y2="24.181" fill="none" stroke="#fff" stroke-linecap="round" stroke-width=".576"/>
                        <line x1="42.768" x2="42.768" y1="20.07" y2="18.77" fill="none" stroke="#fff" stroke-linecap="round" stroke-width=".576"/>
                    </g>
                </g>
                <g>
                    <title>element:Q2</title>
                    <g>
                        <title>package:SOT23-WIDE</title>
                        <line x1="42.791" x2="46.512" y1="26.219" y2="26.219" fill="none" stroke="#fff" stroke-linecap="round" stroke-width=".576"/>
                        <line x1="46.512" x2="46.512" y1="26.219" y2="28.937" fill="none" stroke="#fff" stroke-linecap="round" stroke-width=".576"/>
                        <line x1="46.512" x2="42.791" y1="35.701" y2="35.701" fill="none" stroke="#fff" stroke-linecap="round" stroke-width=".576"/>
                        <line x1="46.512" x2="46.512" y1="32.983" y2="35.701" fill="none" stroke="#fff" stroke-linecap="round" stroke-width=".576"/>
                        <line x1="42.768" x2="42.768" y1="31.59" y2="30.29" fill="none" stroke="#fff" stroke-linecap="round" stroke-width=".576"/>
                    </g>
                </g>
                <g>
                    <title>element:R1</title>
                    <g>
                        <title>package:0805-NO</title>
                        <line x1="35.28" x2="38.16" y1="19.44" y2="19.44" fill="none" stroke="#fff" stroke-linecap="round" stroke-width=".864"/>
                    </g>
                </g>
                <g>
                    <title>element:R2</title>
                    <g>
                        <title>package:0805-NO</title>
                        <line x1="54" x2="51.12" y1="19.44" y2="19.44" fill="none" stroke="#fff" stroke-linecap="round" stroke-width=".864"/>
                    </g>
                </g>
                <g>
                    <title>element:R3</title>
                    <g>
                        <title>package:0805-NO</title>
                        <line x1="54" x2="51.12" y1="30.24" y2="30.24" fill="none" stroke="#fff" stroke-linecap="round" stroke-width=".864"/>
                    </g>
                </g>
                <g>
                    <title>element:R4</title>
                    <g>
                        <title>package:0805-NO</title>
                        <line x1="38.16" x2="35.28" y1="30.24" y2="30.24" fill="none" stroke="#fff" stroke-linecap="round" stroke-width=".864"/>
                    </g>
                </g>
                <g>
                    <title>element:R5</title>
                    <g>
                        <title>package:0805-NO</title>
                        <line x1="27.36" x2="27.36" y1="20.16" y2="17.28" fill="none" stroke="#fff" stroke-linecap="round" stroke-width=".864"/>
                    </g>
                </g>
                <g>
                    <title>element:U$3</title>
                    <g>
                        <title>package:ADAFRUIT_3.5MM</title>
                    </g>
                </g>
                <g>
                    <title>element:U$5</title>
                    <g>
                        <title>package:MOUNTINGHOLE_2.5_PLATED</title>
                        <circle cx="7.2" cy="7.2" r="5.669" fill="none" stroke="#fff" stroke-width=".576"/>
                    </g>
                </g>
                <g>
                    <title>element:U$6</title>
                    <g>
                        <title>package:MOUNTINGHOLE_2.5_PLATED</title>
                        <circle cx="50.4" cy="7.2" r="5.669" fill="none" stroke="#fff" stroke-width=".576"/>
                    </g>
                </g>
                <g>
                    <title>element:U$8</title>
                    <g>
                        <title>package:ADAFRUIT_5MM</title>
                    </g>
                </g>
                <g>
                    <title>element:U1</title>
                    <g>
                        <title>package:SI114X</title>
                        <circle cx="30.631" cy="30.892" r=".401" fill="none" stroke="#fff" stroke-width="1.152"/>
                    </g>
                </g>
                <g>
                    <title>element:U2</title>
                    <g>
                        <title>package:SOT23-5</title>
                        <line x1="17.388" x2="12.852" y1="24.843" y2="24.843" fill="none" stroke="#fff" stroke-linecap="round" stroke-width=".576"/>
                        <line x1="17.388" x2="12.852" y1="34.197" y2="34.197" fill="none" stroke="#fff" stroke-linecap="round" stroke-width=".576"/>
                        <line x1="18.096" x2="18.096" y1="28.386" y2="30.654" fill="none" stroke="#fff" stroke-linecap="round" stroke-width=".576"/>
                    </g>
                </g>
            </g>
            <g transform="matrix(0 -1 1 0 -4.1329 38.693)">
                
                    <g transform="matrix(-2.5352e-6 -1 1 -2.5352e-6 -4.1329 38.693)">
                        <rect id="connector5pin" x="15.154" y="19.57" width="4.252" height="3.685" fill="#9A916C"/>
                    </g>
                
            </g>
            <g transform="matrix(0 -1 1 0 1.2529 33.307)">
                
                    <g transform="matrix(-2.5352e-6 -1 1 -2.5352e-6 1.2529 33.307)">
                        <rect id="connector6pin" x="15.154" y="14.185" width="4.252" height="3.685" fill="#9A916C"/>
                    </g>
                
            </g>
            <g transform="matrix(0 -1 1 0 -27.173 38.693)">
                
                    <g transform="matrix(-2.5352e-6 -1 1 -2.5352e-6 -27.173 38.693)">
                        <rect id="connector7pin" x="3.634" y="31.09" width="4.252" height="3.685" fill="#9A916C"/>
                    </g>
                
            </g>
            <g transform="matrix(0 -1 1 0 -21.787 33.307)">
                
                    <g transform="matrix(-2.5352e-6 -1 1 -2.5352e-6 -21.787 33.307)">
                        <rect id="connector8pin" x="3.634" y="25.705" width="4.252" height="3.685" fill="#9A916C"/>
                    </g>
                
            </g>
            <path id="connector9pin" d="m41.04 2.903c0.783 0 1.417 0.635 1.417 1.417 0 0.783-0.635 1.417-1.417 1.417-0.783 0-1.417-0.635-1.417-1.417 0-0.783 0.634-1.417 1.417-1.417z" fill="#9A916C"/>
            <path id="connector10pin" d="m14.4 36.023c0.783 0 1.417 0.635 1.417 1.417 0 0.783-0.635 1.417-1.417 1.417-0.783 0-1.417-0.635-1.417-1.417 0-0.783 0.634-1.417 1.417-1.417z" fill="#9A916C"/>
            <circle id="connector11pin" cx="7.2" cy="43.2" r="1.969" fill="none" stroke="#9A916C" stroke-width="1.1027"/>
            <rect x="5.231" y="41.231" width="3.937" height="3.937" fill="none" stroke="#9A916C" stroke-width="1.1027"/>
            <circle id="connector12pin" cx="14.4" cy="43.2" r="1.969" fill="none" stroke="#9A916C" stroke-width="1.1027"/>
            <circle id="connector13pin" cx="21.6" cy="43.2" r="1.969" fill="none" stroke="#9A916C" stroke-width="1.1027"/>
            <circle id="connector14pin" cx="28.8" cy="43.2" r="1.969" fill="none" stroke="#9A916C" stroke-width="1.1027"/>
            <circle id="connector15pin" cx="36" cy="43.2" r="1.969" fill="none" stroke="#9A916C" stroke-width="1.1027"/>
            <circle id="connector16pin" cx="43.2" cy="43.2" r="1.969" fill="none" stroke="#9A916C" stroke-width="1.1027"/>
            <circle id="connector17pin" cx="50.4" cy="43.2" r="1.969" fill="none" stroke="#9A916C" stroke-width="1.1027"/>
            <g transform="matrix(0 1 -1 0 58.552 -25.058)">
                
                    <g transform="matrix(2.5352e-6 1 -1 2.5352e-6 58.552 -25.058)">
                        <rect id="connector18pin" x="40.105" y="15.33" width="3.402" height="2.835" fill="#9A916C"/>
                    </g>
                
            </g>
            <g transform="matrix(0 1 -1 0 63.938 -19.672)">
                
                    <g transform="matrix(2.5352e-6 1 -1 2.5352e-6 63.938 -19.672)">
                        <rect id="connector19pin" x="40.105" y="20.716" width="3.402" height="2.835" fill="#9A916C"/>
                    </g>
                
            </g>
            <g transform="matrix(0 1 -1 0 66.915 -28.035)">
                
                    <g transform="matrix(2.5352e-6 1 -1 2.5352e-6 66.914 -28.035)">
                        <rect id="connector20pin" x="45.774" y="18.023" width="3.402" height="2.835" fill="#9A916C"/>
                    </g>
                
            </g>
            <g transform="matrix(0 1 -1 0 70.072 -13.538)">
                
                    <g transform="matrix(2.5352e-6 1 -1 2.5352e-6 70.072 -13.538)">
                        <rect id="connector21pin" x="40.105" y="26.85" width="3.402" height="2.835" fill="#9A916C"/>
                    </g>
                
            </g>
            <g transform="matrix(0 1 -1 0 75.458 -8.1524)">
                
                    <g transform="matrix(2.5352e-6 1 -1 2.5352e-6 75.458 -8.1524)">
                        <rect id="connector22pin" x="40.105" y="32.236" width="3.402" height="2.835" fill="#9A916C"/>
                    </g>
                
            </g>
            <g transform="matrix(0 1 -1 0 78.435 -16.515)">
                
                    <g transform="matrix(2.5352e-6 1 -1 2.5352e-6 78.434 -16.515)">
                        <rect id="connector23pin" x="45.774" y="29.543" width="3.402" height="2.835" fill="#9A916C"/>
                    </g>
                
            </g>
            <g transform="matrix(0 -1 1 0 14.587 58.853)">
                
                    <g transform="matrix(-2.5352e-6 -1 1 -2.5352e-6 14.587 58.853)">
                        <rect id="connector24pin" x="34.594" y="20.29" width="4.252" height="3.685" fill="#9A916C"/>
                    </g>
                
            </g>
            <g transform="matrix(0 -1 1 0 19.973 53.467)">
                
                    <g transform="matrix(-2.5352e-6 -1 1 -2.5352e-6 19.973 53.467)">
                        <rect id="connector25pin" x="34.594" y="14.905" width="4.252" height="3.685" fill="#9A916C"/>
                    </g>
                
            </g>
            <g transform="matrix(0 1 -1 0 69.307 -35.813)">
                
                    <g transform="matrix(2.5352e-6 1 -1 2.5352e-6 69.307 -35.813)">
                        <rect id="connector26pin" x="50.434" y="14.905" width="4.252" height="3.685" fill="#9A916C"/>
                    </g>
                
            </g>
            <g transform="matrix(0 1 -1 0 74.693 -30.427)">
                
                    <g transform="matrix(2.5352e-6 1 -1 2.5352e-6 74.693 -30.427)">
                        <rect id="connector27pin" x="50.434" y="20.29" width="4.252" height="3.685" fill="#9A916C"/>
                    </g>
                
            </g>
            <g transform="matrix(0 1 -1 0 80.107 -25.013)">
                
                    <g transform="matrix(2.5352e-6 1 -1 2.5352e-6 80.107 -25.013)">
                        <rect id="connector28pin" x="50.434" y="25.705" width="4.252" height="3.685" fill="#9A916C"/>
                    </g>
                
            </g>
            <g transform="matrix(0 1 -1 0 85.493 -19.627)">
                
                    <g transform="matrix(2.5352e-6 1 -1 2.5352e-6 85.493 -19.627)">
                        <rect id="connector29pin" x="50.434" y="31.09" width="4.252" height="3.685" fill="#9A916C"/>
                    </g>
                
            </g>
            <g transform="matrix(0 1 -1 0 64.267 -9.1729)">
                
                    <g transform="matrix(2.5352e-6 1 -1 2.5352e-6 64.267 -9.1729)">
                        <rect id="connector30pin" x="34.594" y="25.705" width="4.252" height="3.685" fill="#9A916C"/>
                    </g>
                
            </g>
            <g transform="matrix(0 1 -1 0 69.653 -3.7871)">
                
                    <g transform="matrix(2.5352e-6 1 -1 2.5352e-6 69.653 -3.7871)">
                        <rect id="connector31pin" x="34.594" y="31.09" width="4.252" height="3.685" fill="#9A916C"/>
                    </g>
                
            </g>
            <g transform="matrix(-1 0 0 -1 60.106 37.44)">
                
                    <rect id="connector32pin" x="28.21" y="16.594" width="3.685" height="4.252" fill="#9A916C"/>
                
            </g>
            <g transform="matrix(-1 0 0 -1 49.334 37.44)">
                
                    <rect id="connector33pin" x="22.825" y="16.594" width="3.685" height="4.252" fill="#9A916C"/>
                
            </g>
            <circle id="connector34pin" cx="7.2" cy="7.2" r="4.263" fill="none" stroke="#9A916C" stroke-width="1.44"/>
            <circle id="connector35pin" cx="50.4" cy="7.2" r="4.263" fill="none" stroke="#9A916C" stroke-width="1.44"/>
            <g transform="matrix(0 1 -1 0 59.539 -2.0069)">
                
                    <g transform="matrix(2.5352e-6 1 -1 2.5352e-6 59.539 -2.0069)">
                        <rect id="connector36pin" x="29.639" y="28.398" width="2.268" height=".737" fill="#9A916C"/>
                    </g>
                
            </g>
            <g transform="matrix(0 1 -1 0 58.122 -3.4243)">
                
                    <g transform="matrix(2.5352e-6 1 -1 2.5352e-6 58.122 -3.4243)">
                        <rect id="connector37pin" x="29.639" y="26.98" width="2.268" height=".737" fill="#9A916C"/>
                    </g>
                
            </g>
            <g transform="matrix(0 1 -1 0 56.704 -4.8416)">
                
                    <g transform="matrix(2.5352e-6 1 -1 2.5352e-6 56.704 -4.8417)">
                        <rect id="connector38pin" x="29.639" y="25.563" width="2.268" height=".737" fill="#9A916C"/>
                    </g>
                
            </g>
            <g transform="matrix(0 1 -1 0 55.287 -6.2589)">
                
                    <g transform="matrix(2.5352e-6 1 -1 2.5352e-6 55.287 -6.259)">
                        <rect id="connector39pin" x="29.639" y="24.145" width="2.268" height=".737" fill="#9A916C"/>
                    </g>
                
            </g>
            <rect id="connector40pin" x="27.712" y="22.813" width=".737" height="2.268" fill="#9A916C"/>
            <g transform="matrix(0 -1 1 0 .87307 49.901)">
                
                    <g transform="matrix(-2.5352e-6 -1 1 -2.5352e-6 .8732 49.901)">
                        <rect id="connector41pin" x="24.253" y="24.145" width="2.268" height=".737" fill="#9A916C"/>
                    </g>
                
            </g>
            <g transform="matrix(0 -1 1 0 -.54425 51.318)">
                
                    <g transform="matrix(-2.5352e-6 -1 1 -2.5352e-6 -.5441 51.318)">
                        <rect id="connector42pin" x="24.253" y="25.563" width="2.268" height=".737" fill="#9A916C"/>
                    </g>
                
            </g>
            <g transform="matrix(0 -1 1 0 -1.9616 52.736)">
                
                    <g transform="matrix(-2.5352e-6 -1 1 -2.5352e-6 -1.9615 52.736)">
                        <rect id="connector43pin" x="24.253" y="26.98" width="2.268" height=".737" fill="#9A916C"/>
                    </g>
                
            </g>
            <g transform="matrix(0 -1 1 0 -3.3789 54.153)">
                
                    <g transform="matrix(-2.5352e-6 -1 1 -2.5352e-6 -3.3789 54.153)">
                        <rect id="connector44pin" x="24.253" y="28.398" width="2.268" height=".737" fill="#9A916C"/>
                    </g>
                
            </g>
            <rect id="connector45pin" x="27.712" y="28.199" width=".737" height="2.268" fill="#9A916C"/>
            <g transform="matrix(0 1 -1 0 38.262 15.392)">
                
                    <g transform="matrix(2.5352e-6 1 -1 2.5352e-6 38.262 15.392)">
                        <rect id="connector46pin" x="9.734" y="26.048" width="3.402" height="1.559" fill="#9A916C"/>
                    </g>
                
            </g>
            <g transform="matrix(0 1 -1 0 40.955 18.085)">
                
                    <g transform="matrix(2.5352e-6 1 -1 2.5352e-6 40.955 18.085)">
                        <rect id="connector47pin" x="9.734" y="28.74" width="3.402" height="1.559" fill="#9A916C"/>
                    </g>
                
            </g>
            <g transform="matrix(0 1 -1 0 43.648 20.778)">
                
                    <g transform="matrix(2.5352e-6 1 -1 2.5352e-6 43.648 20.778)">
                        <rect id="connector48pin" x="9.734" y="31.433" width="3.402" height="1.559" fill="#9A916C"/>
                    </g>
                
            </g>
            <g transform="matrix(0 1 -1 0 51.018 13.408)">
                
                    <g transform="matrix(2.5352e-6 1 -1 2.5352e-6 51.018 13.408)">
                        <rect id="connector49pin" x="17.105" y="31.433" width="3.402" height="1.559" fill="#9A916C"/>
                    </g>
                
            </g>
            <g transform="matrix(0 1 -1 0 45.632 8.0217)">
                
                    <g transform="matrix(2.5352e-6 1 -1 2.5352e-6 45.632 8.0217)">
                        <rect id="connector50pin" x="17.105" y="26.048" width="3.402" height="1.559" fill="#9A916C"/>
                    </g>
                
            </g>
        </g>
        <g transform="translate(14.446 16.948)">
            
                <g transform="matrix(0 -1 1 0 1.063 4.606)">
                    
                        <path d="M5.386,3.543H0.283C0.127,3.543,0,3.416,0,3.26V0.283C0,0.127,0.127,0,0.283,0h5.102c0.157,0,0.283,0.127,0.283,0.283V3.26C5.669,3.416,5.542,3.543,5.386,3.543z" fill="#DCDCDC"/>
                        <g transform="matrix(-2.5352e-6 -1 1 -2.5352e-6 1.063 4.606)">
                            <rect x="1.063" width="3.543" height="3.543" fill="#6E554B"/>
                        </g>
                    
                </g>
            
        </g>
        <g transform="translate(2.9255 28.468)">
            
                <g transform="matrix(0 -1 1 0 1.063 4.606)">
                    
                        <path d="M5.386,3.543H0.283C0.127,3.543,0,3.416,0,3.26V0.283C0,0.127,0.127,0,0.283,0h5.102c0.157,0,0.283,0.127,0.283,0.283V3.26C5.669,3.416,5.542,3.543,5.386,3.543z" fill="#DCDCDC"/>
                        <g transform="matrix(-2.5352e-6 -1 1 -2.5352e-6 1.063 4.606)">
                            <rect x="1.063" width="3.543" height="3.543" fill="#6E554B"/>
                        </g>
                    
                </g>
            
        </g>
        <g transform="translate(40.388 15.613)">
            
                <g transform="matrix(0 1 -1 0 8.079 -.42498)">
                    
                        
                            <g transform="matrix(2.5352e-6 1 -1 2.5352e-6 7.7235 4.6065)">
                                <rect x=".071" y="5.456" width="2.976" height="1.417" fill="#DCDCDC"/>
                            </g>
                            <g transform="matrix(2.5352e-6 1 -1 2.5352e-6 13.11 -.7795)">
                                <rect x="5.457" y="5.456" width="2.976" height="1.417" fill="#DCDCDC"/>
                            </g>
                            <g transform="matrix(2.5352e-6 1 -1 2.5352e-6 5.8105 -2.6925)">
                                <rect x="2.692" y=".85" width="3.118" height="1.417" fill="#DCDCDC"/>
                            </g>
                            <g transform="matrix(2.5352e-6 1 -1 2.5352e-6 8.0785 -.4255)">
                                <rect x="2.409" y="-.425" width="3.685" height="8.504" fill="#303030"/>
                            </g>
                        
                    
                </g>
            
        </g>
        <g transform="translate(40.388 27.133)">
            
                <g transform="matrix(0 1 -1 0 8.079 -.42498)">
                    
                        
                            <g transform="matrix(2.5352e-6 1 -1 2.5352e-6 7.7235 4.6065)">
                                <rect x=".071" y="5.456" width="2.976" height="1.417" fill="#DCDCDC"/>
                            </g>
                            <g transform="matrix(2.5352e-6 1 -1 2.5352e-6 13.11 -.7795)">
                                <rect x="5.457" y="5.456" width="2.976" height="1.417" fill="#DCDCDC"/>
                            </g>
                            <g transform="matrix(2.5352e-6 1 -1 2.5352e-6 5.8105 -2.6925)">
                                <rect x="2.693" y=".85" width="3.118" height="1.417" fill="#DCDCDC"/>
                            </g>
                            <g transform="matrix(2.5352e-6 1 -1 2.5352e-6 8.0785 -.4255)">
                                <rect x="2.409" y="-.425" width="3.685" height="8.504" fill="#303030"/>
                            </g>
                        
                    
                </g>
            
        </g>
        <g transform="translate(33.886 17.668)">
            
                <g transform="matrix(0 -1 1 0 1.063 4.606)">
                    
                        <path d="M5.386,3.543H0.283C0.127,3.543,0,3.416,0,3.26V0.283C0,0.127,0.127,0,0.283,0h5.102c0.157,0,0.283,0.127,0.283,0.283V3.26C5.669,3.416,5.542,3.543,5.386,3.543z" fill="#DCDCDC"/>
                        <g transform="matrix(-2.5352e-6 -1 1 -2.5352e-6 1.063 4.606)">
                            <rect x="1.063" width="3.543" height="3.543" fill="#333"/>
                        </g>
                    
                </g>
            
        </g>
        <g transform="translate(49.726 17.668)">
            
                <g transform="matrix(0 1 -1 0 4.606 -1.063)">
                    
                        <path d="M5.386,3.543H0.283C0.127,3.543,0,3.416,0,3.26V0.283C0,0.127,0.127,0,0.283,0h5.102c0.157,0,0.283,0.127,0.283,0.283V3.26C5.669,3.416,5.542,3.543,5.386,3.543z" fill="#DCDCDC"/>
                        <g transform="matrix(2.5352e-6 1 -1 2.5352e-6 4.606 -1.063)">
                            <rect x="1.063" width="3.543" height="3.543" fill="#333"/>
                        </g>
                    
                </g>
            
        </g>
        <g transform="translate(49.726 28.468)">
            
                <g transform="matrix(0 1 -1 0 4.606 -1.063)">
                    
                        <path d="M5.386,3.543H0.283C0.127,3.543,0,3.416,0,3.26V0.283C0,0.127,0.127,0,0.283,0h5.102c0.157,0,0.283,0.127,0.283,0.283V3.26C5.669,3.416,5.542,3.543,5.386,3.543z" fill="#DCDCDC"/>
                        <g transform="matrix(2.5352e-6 1 -1 2.5352e-6 4.606 -1.063)">
                            <rect x="1.063" width="3.543" height="3.543" fill="#333"/>
                        </g>
                    
                </g>
            
        </g>
        <g transform="translate(33.886 28.468)">
            
                <g transform="matrix(0 1 -1 0 4.606 -1.063)">
                    
                        <path d="M5.386,3.543H0.283C0.127,3.543,0,3.416,0,3.26V0.283C0,0.127,0.127,0,0.283,0h5.102c0.157,0,0.283,0.127,0.283,0.283V3.26C5.669,3.416,5.542,3.543,5.386,3.543z" fill="#DCDCDC"/>
                        <g transform="matrix(2.5352e-6 1 -1 2.5352e-6 4.606 -1.063)">
                            <rect x="1.063" width="3.543" height="3.543" fill="#333"/>
                        </g>
                    
                </g>
            
        </g>
        <g transform="translate(24.526 16.948)">
            
                <g transform="matrix(-1 0 0 -1 5.669 3.543)">
                    
                        <path d="M5.386,3.543H0.283C0.127,3.543,0,3.416,0,3.26V0.283C0,0.127,0.127,0,0.283,0h5.102c0.157,0,0.283,0.127,0.283,0.283V3.26C5.669,3.416,5.542,3.543,5.386,3.543z" fill="#DCDCDC"/>
                        <rect x="1.063" width="3.543" height="3.543" fill="#333"/>
                    
                </g>
            
        </g>
        <g transform="translate(.48748 16.374)">
            
                <path d="m11.596 2.614c-0.032-0.2-0.141-0.257-0.403-0.341-0.199-0.064-1.533-0.489-1.533-0.489s-0.93-0.351-1.619 0.146c-0.093 0.066-0.189 0.143-0.286 0.224 0.082-0.097 0.158-0.193 0.224-0.286 0.495-0.69 0.143-1.619 0.143-1.619s-0.427-1.334-0.492-1.533c-0.085-0.262-0.142-0.37-0.342-0.402s-0.288 0.054-0.449 0.277c-0.122 0.17-0.939 1.307-0.939 1.307s-0.621 0.777-0.361 1.586c0.034 0.109 0.077 0.224 0.125 0.341-0.067-0.108-0.135-0.209-0.203-0.302-0.503-0.684-1.496-0.636-1.496-0.636s-1.4-6e-3 -1.61-6e-3c-0.275-1e-3 -0.396 0.02-0.488 0.201-0.091 0.181-0.037 0.291 0.126 0.513 0.124 0.169 0.953 1.297 0.953 1.297s0.546 0.83 1.395 0.834c0.114 0 0.236-5e-3 0.362-0.014-0.122 0.03-0.24 0.064-0.348 0.1-0.806 0.267-1.067 1.226-1.067 1.226s-0.438 1.33-0.503 1.529c-0.086 0.261-0.103 0.383 0.04 0.526 0.144 0.143 0.265 0.126 0.526 0.04 0.199-0.065 1.528-0.506 1.528-0.506s0.958-0.263 1.224-1.07c0.036-0.108 0.069-0.225 0.1-0.348-9e-3 0.126-0.014 0.248-0.013 0.362 5e-3 0.849 0.836 1.394 0.836 1.394s1.13 0.827 1.298 0.951c0.223 0.162 0.333 0.216 0.514 0.124s0.201-0.213 0.2-0.488c-1e-3 -0.21-9e-3 -1.61-9e-3 -1.61s0.047-0.993-0.639-1.495c-0.092-0.067-0.194-0.135-0.301-0.202 0.117 0.047 0.232 0.09 0.34 0.124 0.81 0.258 1.584-0.364 1.584-0.364s1.136-0.819 1.306-0.941c0.223-0.161 0.309-0.249 0.277-0.45zm-4.822-1.031c0.152 0.024 0.228 0.349 0.169 0.726s-0.231 0.662-0.384 0.638-0.229-0.349-0.169-0.725c0.059-0.377 0.231-0.663 0.384-0.639zm-1.956 0.999c0.07-0.138 0.402-0.11 0.742 0.063s0.558 0.425 0.488 0.563-0.402 0.11-0.742-0.063-0.558-0.425-0.488-0.563zm1.031 1.878c-0.269 0.27-0.577 0.4-0.686 0.291s0.02-0.416 0.29-0.686c0.269-0.27 0.576-0.4 0.686-0.291 0.109 0.109-0.021 0.416-0.29 0.686zm1.484 0.633c-0.138 0.07-0.39-0.148-0.563-0.487-0.174-0.34-0.203-0.673-0.065-0.743s0.39 0.148 0.563 0.487c0.173 0.34 0.202 0.672 0.065 0.743zm0.357-1.573c-0.377 0.06-0.701-0.015-0.726-0.168-0.024-0.153 0.262-0.325 0.638-0.385 0.377-0.06 0.701 0.015 0.726 0.168 0.024 0.153-0.261 0.325-0.638 0.385z" fill="#DCDCDC"/>
            
        </g>
        <g transform="translate(25.246 24.436)">
            
                <g transform="matrix(-1 0 0 -1 5.669 5.669)">
                    
                        <rect y=".631" width="5.669" height="5.669" fill="#C8C8C8"/>
                        <rect y=".985" width=".992" height=".709" fill="#DCDCDC"/>
                        <rect x="4.677" y=".985" width=".992" height=".709" fill="#DCDCDC"/>
                        <polygon points="0 5.237 0 5.946 2.48 5.946 2.48 6.3 3.189 6.3 3.189 5.946 5.669 5.946 5.669 5.237 3.189 5.237 3.189 4.529 5.669 4.529 5.669 3.82 3.189 3.82 3.189 3.111 5.669 3.111 5.669 2.403 3.189 2.403 3.189 0.631 2.48 0.631 2.48 2.403 0 2.403 0 3.111 2.48 3.111 2.48 3.82 0 3.82 0 4.529 2.48 4.529 2.48 5.237" fill="#DCDCDC"/>
                        <rect x=".992" y="1.339" width="3.685" height="4.606" fill="#646464"/>
                    
                </g>
            
        </g>
        <g transform="translate(11.01 25.693)">
            
                <g transform="matrix(0 1 -1 0 7.9371 -.283)">
                    
                        
                            <g transform="matrix(2.5352e-6 1 -1 2.5352e-6 5.244 2.41)">
                                <rect x="-2.41" y="3.26" width="7.654" height="1.134" fill="#DCDCDC"/>
                            </g>
                            <g transform="matrix(2.5352e-6 1 -1 2.5352e-6 10.63 -2.976)">
                                <rect x="2.976" y="3.26" width="7.654" height="1.134" fill="#DCDCDC"/>
                            </g>
                            <g transform="matrix(2.5352e-6 1 -1 2.5352e-6 10.204 1.984)">
                                <rect x="2.551" y="5.527" width="3.118" height="1.134" fill="#DCDCDC"/>
                            </g>
                            <g transform="matrix(2.5352e-6 1 -1 2.5352e-6 7.9365 -.2835)">
                                <rect x="1.843" y="-.284" width="4.535" height="8.22" fill="#303030"/>
                            </g>
                        
                    
                </g>
            
        </g>
    </g>
</svg>
