<?xml version="1.0" encoding="UTF-8"?>
<!-- Created with Fritzing (http://www.fritzing.org/) -->
<svg width=".55in" height=".62in" baseProfile="tiny" version="1.2" viewBox="0 0 39.6 44.64" xmlns="http://www.w3.org/2000/svg">
 <desc>
  <referenceFile>SPW2430_breadboard.svg</referenceFile>
 </desc>
 <desc>Fritzing breadboard generated by brd2svg</desc>
 <g id="breadboard">
  <g id="icon">
   <path d="m0 44.64v-37.44a7.2 7.2 0 0 1 7.2-7.2h25.2a7.2 7.2 0 0 1 7.2 7.2v37.44h-39.6m3.9827-7.2a1.4173 1.4173 0 1 0 2.8346 0 1.4173 1.4173 0 1 0-2.8346 0zm7.2 0a1.4173 1.4173 0 1 0 2.8346 0 1.4173 1.4173 0 1 0-2.8346 0zm7.2 0a1.4173 1.4173 0 1 0 2.8346 0 1.4173 1.4173 0 1 0-2.8346 0zm7.2 0a1.4173 1.4173 0 1 0 2.8346 0 1.4173 1.4173 0 1 0-2.8346 0zm7.2 0a1.4173 1.4173 0 1 0 2.8346 0 1.4173 1.4173 0 1 0-2.8346 0zm-16.526-28.8a3.5433 3.5433 0 1 0 7.0866 0 3.5433 3.5433 0 1 0-7.0866 0z" fill="#014cb1" stroke-width="0"/>
   <g>
    <title>layer 21</title>
    <g>
     <title>text:SPW
2430</title>
     <g transform="translate(0 -4.176)">
      <text x="1.44" y="14.76" fill="#ffffff" font-family="OCRA" font-size="4.176" stroke-width="0">SPW</text>
     </g>
     <g transform="translate(0)">
      <text x="1.44" y="14.76" fill="#ffffff" font-family="OCRA" font-size="4.176" stroke-width="0">2430</text>
     </g>
    </g>
    <g>
     <title>text:3V</title>
     <text x="12.96" y="44.1504" fill="#ffffff" font-family="OCRA" font-size="3.3408" stroke-width="0" text-anchor="middle">3V</text>
    </g>
    <g>
     <title>text:GND</title>
     <text x="20.16" y="44.1504" fill="#ffffff" font-family="OCRA" font-size="3.3408" stroke-width="0" text-anchor="middle">GND</text>
    </g>
    <g>
     <title>text:AC</title>
     <text x="27.72" y="44.1504" fill="#ffffff" font-family="OCRA" font-size="3.3408" stroke-width="0" text-anchor="middle">AC</text>
    </g>
    <g>
     <title>text:DC</title>
     <text x="34.92" y="44.1504" fill="#ffffff" font-family="OCRA" font-size="3.3408" stroke-width="0" text-anchor="middle">DC</text>
    </g>
    <g>
     <title>text:Vin</title>
     <text x="5.76" y="44.1504" fill="#ffffff" font-family="OCRA" font-size="3.3408" stroke-width="0" text-anchor="middle">Vin</text>
    </g>
    <g>
     <title>text:Si
Mic</title>
     <g transform="translate(0 -4.176)">
      <text x="27" y="14.4" fill="#ffffff" font-family="OCRA" font-size="4.176" stroke-width="0">Si</text>
     </g>
     <g transform="translate(0)">
      <text x="27" y="14.4" fill="#ffffff" font-family="OCRA" font-size="4.176" stroke-width="0">Mic</text>
     </g>
    </g>
    <g>
     <title>element:C1</title>
     <g>
      <title>package:0805-NO</title>
      <line x1="30.96" x2="30.96" y1="28.8" y2="31.68" stroke="#fff" stroke-linecap="round" stroke-width=".864"/>
     </g>
    </g>
    <g>
     <title>element:C2</title>
     <g>
      <title>package:0805-NO</title>
      <line x1="20.16" x2="20.16" y1="28.8" y2="31.68" stroke="#fff" stroke-linecap="round" stroke-width=".864"/>
     </g>
    </g>
    <g>
     <title>element:C3</title>
     <g>
      <title>package:0805-NO</title>
      <line x1="10.08" x2="10.08" y1="28.8" y2="31.68" stroke="#fff" stroke-linecap="round" stroke-width=".864"/>
     </g>
    </g>
    <g>
     <title>element:C4</title>
     <g>
      <title>package:0805-NO</title>
      <line x1="30.24" x2="27.36" y1="21.24" y2="21.24" stroke="#fff" stroke-linecap="round" stroke-width=".864"/>
     </g>
    </g>
    <g>
     <title>element:FID1</title>
     <g>
      <title>package:FIDUCIAL_1MM</title>
     </g>
    </g>
    <g>
     <title>element:FID2</title>
     <g>
      <title>package:FIDUCIAL_1MM</title>
     </g>
    </g>
    <g>
     <title>element:JP1</title>
     <g>
      <title>package:1X05_ROUND_76</title>
     </g>
    </g>
    <g>
     <title>element:U$5</title>
     <g>
      <title>package:ADAFRUIT_3.5MM</title>
     </g>
    </g>
    <g>
     <title>element:U$12</title>
     <g>
      <title>package:MOUNTINGHOLE_2.5_PLATED</title>
      <circle cx="19.8" cy="8.64" r="5.6693" fill="none" stroke="#fff" stroke-width=".576"/>
     </g>
    </g>
    <g>
     <title>element:U$13</title>
     <g>
      <title>package:PCBFEAT-REV-040</title>
      <circle cx="36" cy="7.56" r="2.5455" fill="none" stroke="#fff" stroke-width=".864"/>
      <g>
       <title>text:B</title>
       <text x="34.992" y="9" fill="#ffffff" font-family="OCRA" font-size="3.3408" stroke-width="0">B</text>
      </g>
     </g>
    </g>
    <g>
     <title>element:U1</title>
     <g>
      <title>package:SPW2430HR5H-B</title>
      <line x1="23.485" x2="15.832" y1="26.419" y2="26.419" stroke="#fff" stroke-linecap="round" stroke-width=".36"/>
      <line x1="15.832" x2="15.832" y1="26.419" y2="16.781" stroke="#fff" stroke-linecap="round" stroke-width=".36"/>
      <line x1="15.832" x2="23.768" y1="16.781" y2="16.781" stroke="#fff" stroke-linecap="round" stroke-width=".36"/>
      <line x1="23.768" x2="23.768" y1="16.781" y2="26.419" stroke="#fff" stroke-linecap="round" stroke-width=".36"/>
      <line x1="23.768" x2="23.485" y1="26.419" y2="26.419" stroke="#fff" stroke-linecap="round" stroke-width=".36"/>
     </g>
    </g>
    <g>
     <title>element:U2</title>
     <g>
      <title>package:SOT23-5</title>
      <line x1="10.908" x2="6.3723" y1="16.923" y2="16.923" stroke="#fff" stroke-linecap="round" stroke-width=".576"/>
      <line x1="10.908" x2="6.3723" y1="26.277" y2="26.277" stroke="#fff" stroke-linecap="round" stroke-width=".576"/>
      <line x1="11.616" x2="11.616" y1="20.466" y2="22.734" stroke="#fff" stroke-linecap="round" stroke-width=".576"/>
     </g>
    </g>
   </g>
   <rect id="connector0pin" x="26.425" y="28.114" width="3.685" height="4.252" fill="#9A916C" stroke-width="0"/>
   <rect id="connector1pin" x="31.81" y="28.114" width="3.685" height="4.252" fill="#9A916C" stroke-width="0"/>
   <rect id="connector2pin" x="15.625" y="28.114" width="3.685" height="4.252" fill="#9A916C" stroke-width="0"/>
   <rect id="connector3pin" x="21.01" y="28.114" width="3.685" height="4.252" fill="#9A916C" stroke-width="0"/>
   <rect id="connector4pin" x="5.5446" y="28.114" width="3.685" height="4.252" fill="#9A916C" stroke-width="0"/>
   <rect id="connector5pin" x="10.93" y="28.114" width="3.685" height="4.252" fill="#9A916C" stroke-width="0"/>
   <g transform="matrix(0 1 -1 0 47.347 -10.253)">
    <rect id="connector6pin" x="26.957" y="16.421" width="3.685" height="4.252" fill="#9A916C" stroke-width="0"/>
   </g>
   <g transform="matrix(0 1 -1 0 52.733 -4.8671)">
    <rect id="connector7pin" x="26.957" y="21.807" width="3.685" height="4.252" fill="#9A916C" stroke-width="0"/>
   </g>
   <rect id="connector8pin" x="1.1027" y="27.023" width="2.8346" height="2.8346" rx="1.4173" ry="1.4173" fill="#9A916C" stroke-width="0"/>
   <rect id="connector9pin" x="33.863" y="18.023" width="2.8346" height="2.8346" rx="1.4173" ry="1.4173" fill="#9A916C" stroke-width="0"/>
   <circle id="connector10pin" cx="5.4" cy="37.44" r="2.0767" fill="none" stroke="#9A916C" stroke-width="1.3187" connectorname="VIN"/>
   <circle id="connector11pin" cx="12.6" cy="37.44" r="2.0767" fill="none" stroke="#9A916C" stroke-width="1.3187" connectorname="VDD"/>
   <circle id="connector12pin" cx="19.8" cy="37.44" r="2.0767" fill="none" stroke="#9A916C" stroke-width="1.3187" connectorname="GND"/>
   <circle id="connector13pin" cx="27" cy="37.44" r="2.0767" fill="none" stroke="#9A916C" stroke-width="1.3187" connectorname="4"/>
   <circle id="connector14pin" cx="34.2" cy="37.44" r="2.0767" fill="none" stroke="#9A916C" stroke-width="1.3187" connectorname="5"/>
   <circle id="connector15pin" cx="19.8" cy="8.64" r="4.2633" fill="none" stroke="#9A916C" stroke-width="1.44" connectorname="P$1"/>
   <g transform="matrix(-1 0 0 -1 43.427 49.408)">
    <rect id="connector16pin" x="20.438" y="23.768" width="2.5512" height="1.8709" fill="#9A916C" stroke-width="0"/>
   </g>
   <g transform="matrix(-1 0 0 -1 43.427 36.992)">
    <rect id="connector17pin" x="20.438" y="17.561" width="2.5512" height="1.8709" fill="#9A916C" stroke-width="0"/>
   </g>
   <g transform="matrix(-1 0 0 -1 35.773 36.992)">
    <rect id="connector18pin" x="16.611" y="17.561" width="2.5512" height="1.8709" fill="#9A916C" stroke-width="0"/>
   </g>
   <g transform="matrix(-1 0 0 -1 35.773 49.408)">
    <rect id="connector19pin" x="16.611" y="23.768" width="2.5512" height="1.8709" fill="#9A916C" stroke-width="0"/>
   </g>
   <g transform="matrix(0 1 -1 0 23.862 13.952)">
    <rect id="connector20pin" x="4.1752" y="17.206" width="1.559" height="3.4016" fill="#9A916C" stroke-width="0"/>
   </g>
   <g transform="matrix(0 1 -1 0 26.555 16.645)">
    <rect id="connector21pin" x="4.1752" y="19.899" width="1.559" height="3.4016" fill="#9A916C" stroke-width="0"/>
   </g>
   <g transform="matrix(0 1 -1 0 29.248 19.338)">
    <rect id="connector22pin" x="4.1752" y="22.592" width="1.559" height="3.4016" fill="#9A916C" stroke-width="0"/>
   </g>
   <g transform="matrix(0 1 -1 0 36.618 11.968)">
    <rect id="connector23pin" x="11.546" y="22.592" width="1.559" height="3.4016" fill="#9A916C" stroke-width="0"/>
   </g>
   <g transform="matrix(0 1 -1 0 31.232 6.5818)">
    <rect id="connector24pin" x="11.546" y="17.206" width="1.559" height="3.4016" fill="#9A916C" stroke-width="0"/>
   </g>
  </g>
  <g transform="translate(28.126 28.468)">
   <g id="0805-cap">
    <path d="m5.386 3.543h-5.103c-0.156 0-0.283-0.127-0.283-0.283v-2.977c0-0.156 0.127-0.283 0.283-0.283h5.102c0.157 0 0.283 0.127 0.283 0.283v2.977c1e-3 0.156-0.126 0.283-0.282 0.283z" fill="#DCDCDC"/>
    <rect x="1.063" width="3.543" height="3.543" fill="#6E554B"/>
   </g>
  </g>
  <g transform="translate(17.326 28.468)">
   <g id="0805-cap">
    <path d="m5.386 3.543h-5.103c-0.156 0-0.283-0.127-0.283-0.283v-2.977c0-0.156 0.127-0.283 0.283-0.283h5.102c0.157 0 0.283 0.127 0.283 0.283v2.977c1e-3 0.156-0.126 0.283-0.282 0.283z" fill="#DCDCDC"/>
    <rect x="1.063" width="3.543" height="3.543" fill="#6E554B"/>
   </g>
  </g>
  <g transform="translate(7.2455 28.468)">
   <g id="0805-cap">
    <path d="m5.386 3.543h-5.103c-0.156 0-0.283-0.127-0.283-0.283v-2.977c0-0.156 0.127-0.283 0.283-0.283h5.102c0.157 0 0.283 0.127 0.283 0.283v2.977c1e-3 0.156-0.126 0.283-0.282 0.283z" fill="#DCDCDC"/>
    <rect x="1.063" width="3.543" height="3.543" fill="#6E554B"/>
   </g>
  </g>
  <g transform="translate(25.966 19.468)">
   <g transform="matrix(0 1 -1 0 4.606 -1.063)">
    <path d="m5.386 3.543h-5.103c-0.156 0-0.283-0.127-0.283-0.283v-2.977c0-0.156 0.127-0.283 0.283-0.283h5.102c0.157 0 0.283 0.127 0.283 0.283v2.977c1e-3 0.156-0.126 0.283-0.282 0.283z" fill="#DCDCDC"/>
    <rect x="1.063" width="3.543" height="3.543" fill="#6E554B"/>
   </g>
  </g>
  <g transform="translate(16.256 17.206)">
   <g transform="matrix(-1 0 0 -1 7.087 8.787)">
    <path d="M0,8.07898l0,-7.36999C0,0.317,0.317,0,0.709,0l5.669,0c0.391,0,0.709,0.317,0.709,0.709l0,7.36999c0,0.391,-0.317,0.709,-0.709,0.709L0.709,8.78803C0.317,8.78702,0,8.47001,0,8.07898z" fill="#B4B4B4"/>
    <path d="m0.425 0.709c0-0.156 0.127-0.284 0.283-0.284h5.67c0.156 0 0.283 0.128 0.283 0.284v7.37c0 0.156-0.127 0.284-0.283 0.284h-5.67c-0.156 0-0.283-0.128-0.283-0.284v-7.37z" fill="#DCDCDC"/>
    <circle cx="3.543" cy="3.259" r=".709"/>
   </g>
  </g>
  <g transform="translate(4.53 17.773)">
   <g transform="matrix(0 1 -1 0 7.9371 -.283)">
    <rect x=".85" width="1.134" height="7.654" fill="#DCDCDC"/>
    <rect x="6.236" width="1.134" height="7.654" fill="#DCDCDC"/>
    <rect x="3.543" y="4.535" width="1.134" height="3.118" fill="#DCDCDC"/>
    <rect y="1.559" width="8.22" height="4.535" fill="#303030"/>
   </g>
  </g>
 </g>
</svg>
