<?xml version="1.0" encoding="UTF-8"?>
<!-- Generator: Adobe Illustrator 20.0.0, SVG Export Plug-In . SVG Version: 6.00 Build 0)  -->
<svg width="1.97in" height="1.05in" baseProfile="tiny" version="1.2" viewBox="0 0 141.84 75.6" xml:space="preserve" xmlns="http://www.w3.org/2000/svg" xmlns:xml="http://www.w3.org/XML/1998/namespace">
    <desc>
        <referenceFile>Adafruit 7-segment LED Backpack_breadboard-yellow.svg</referenceFile>
    </desc>
    <desc>Fritzing breadboard generated by brd2svg</desc>
    <g id="breadboard">
        <g id="icon">
            <path d="m7.2 75.6c-3.976 0-7.2-3.224-7.2-7.2v-61.2c0-3.976 3.224-7.2 7.2-7.2h127.44c3.976 0 7.2 3.224 7.2 7.2v61.2c0 3.976-3.224 7.2-7.2 7.2h-127.44m122.8-5.4c-2e-3 1.566 1.266 2.836 2.831 2.838 1.566 2e-3 2.836-1.266 2.838-2.831v-7e-3c2e-3 -1.566-1.266-2.836-2.831-2.838-1.566-2e-3 -2.836 1.266-2.838 2.831v7e-3zm-123.84 0c-3e-3 1.566 1.264 2.837 2.829 2.84 1.566 3e-3 2.837-1.264 2.84-2.829v-0.01c3e-3 -1.566-1.264-2.837-2.829-2.84-1.566-3e-3 -2.837 1.264-2.84 2.829v0.01zm123.84-64.8c-2e-3 1.566 1.266 2.836 2.831 2.838s2.836-1.266 2.838-2.831v-7e-3c2e-3 -1.566-1.266-2.836-2.831-2.838-1.566-2e-3 -2.836 1.266-2.838 2.831v7e-3zm-123.84 0c-3e-3 1.566 1.264 2.837 2.83 2.84s2.837-1.264 2.84-2.829v-0.01c3e-3 -1.566-1.264-2.837-2.829-2.84s-2.837 1.264-2.84 2.829c-1e-3 3e-3 -1e-3 6e-3 -1e-3 0.01zm73.395 0c-1e-3 0.795 0.643 1.441 1.438 1.442s1.441-0.643 1.442-1.438v-4e-3c1e-3 -0.795-0.643-1.441-1.438-1.442s-1.441 0.643-1.442 1.438v4e-3zm-7.2 0c-1e-3 0.795 0.643 1.441 1.438 1.442s1.441-0.643 1.442-1.438v-4e-3c1e-3 -0.795-0.643-1.441-1.438-1.442s-1.441 0.643-1.442 1.438v4e-3zm-7.2 0c-1e-3 0.795 0.643 1.441 1.438 1.442s1.441-0.643 1.442-1.438v-4e-3c1e-3 -0.795-0.643-1.441-1.438-1.442s-1.441 0.643-1.442 1.438v4e-3zm-7.2 0c0 0.795 0.645 1.44 1.44 1.44s1.44-0.645 1.44-1.44-0.645-1.44-1.44-1.44-1.44 0.645-1.44 1.44z" fill="#014CB1"/>
            <g>
                <title>layer 21</title>
                <g>
                    <title>text:C</title>
                    <g transform="translate(83.291 4.0874)">
                        
                            <text fill="#FFFFFF" font-family="OCRA" font-size="2.6726">C</text>
                        
                    </g>
                </g>
                <g>
                    <title>text:D</title>
                    <g transform="translate(76.451 4.0874)">
                        
                            <text fill="#FFFFFF" font-family="OCRA" font-size="2.6726">D</text>
                        
                    </g>
                </g>
                <g>
                    <title>text:-</title>
                    <g transform="translate(62.051 4.0874)">
                        
                            <text fill="#FFFFFF" font-family="OCRA" font-size="2.6726">-</text>
                        
                    </g>
                </g>
                <g>
                    <title>text:+</title>
                    <g transform="translate(54.851 4.0874)">
                        
                            <text fill="#FFFFFF" font-family="OCRA" font-size="2.6726">+</text>
                        
                    </g>
                </g>
                <g>
                    <title>text:0.56" 7-segment LED HT16K33 Backpack</title>
                    <g transform="translate(14.04 71.64)">
                        
                            <text fill="#FFFFFF" font-family="OCRA" font-size="3.3408">0.56" 7-segment LED HT16K33 Backpack</text>
                        
                    </g>
                </g>
                <g>
                    <title>element:A0</title>
                    <g>
                        <title>package:SOLDERJUMPER_REFLOW_NOPASTE</title>
                    </g>
                </g>
                <g>
                    <title>element:A1</title>
                    <g>
                        <title>package:SOLDERJUMPER_REFLOW_NOPASTE</title>
                    </g>
                </g>
                <g>
                    <title>element:A2</title>
                    <g>
                        <title>package:SOLDERJUMPER_REFLOW_NOPASTE</title>
                    </g>
                </g>
                <g>
                    <title>element:C1</title>
                    <g>
                        <title>package:C0805K</title>
                    </g>
                </g>
                <g>
                    <title>element:CN1</title>
                    <g>
                        <title>package:1X04-CLEANBIG</title>
                    </g>
                </g>
                <g>
                    <title>element:D1</title>
                    <g>
                        <title>package:SOD-323F</title>
                    </g>
                </g>
                <g>
                    <title>element:LED2</title>
                    <g>
                        <title>package:SEGMENT-BL-Q56C43</title>
                        <line x1=".054" x2="141.79" y1="10.871" y2="10.871" fill="none" stroke="#fff" stroke-linecap="round" stroke-width=".36"/>
                        <line x1=".054" x2=".054" y1="64.729" y2="10.871" fill="none" stroke="#fff" stroke-linecap="round" stroke-width=".36"/>
                        <line x1="141.79" x2="141.79" y1="10.871" y2="64.729" fill="none" stroke="#fff" stroke-linecap="round" stroke-width=".36"/>
                        <line x1="141.79" x2=".054" y1="64.729" y2="64.729" fill="none" stroke="#fff" stroke-linecap="round" stroke-width=".36"/>
                    </g>
                </g>
                <g>
                    <title>element:R1</title>
                    <g>
                        <title>package:R0805</title>
                    </g>
                </g>
                <g>
                    <title>element:R2</title>
                    <g>
                        <title>package:R0805</title>
                    </g>
                </g>
                <g>
                    <title>element:R3</title>
                    <g>
                        <title>package:R0805</title>
                    </g>
                </g>
                <g>
                    <title>element:R4</title>
                    <g>
                        <title>package:R0805</title>
                    </g>
                </g>
                <g>
                    <title>element:R5</title>
                    <g>
                        <title>package:R0805</title>
                    </g>
                </g>
                <g>
                    <title>element:U$1</title>
                    <g>
                        <title>package:FIDUCIAL_1MM</title>
                    </g>
                </g>
                <g>
                    <title>element:U$2</title>
                    <g>
                        <title>package:FIDUCIAL_1MM</title>
                    </g>
                </g>
                <g>
                    <title>element:U$3</title>
                    <g>
                        <title>package:ADAFRUIT_TEXT_20MM</title>
                    </g>
                </g>
                <g>
                    <title>element:U2</title>
                    <g>
                        <title>package:SOP28_300MIL</title>
                    </g>
                </g>
            </g>
            <circle id="connector5pin" cx="81" cy="5.4" r="1.98" fill="none" stroke="#9A916C" stroke-width="1.08"/>
            <circle id="connector6pin" cx="73.8" cy="5.4" r="1.98" fill="none" stroke="#9A916C" stroke-width="1.08"/>
            <circle id="connector7pin" cx="66.6" cy="5.4" r="1.98" fill="none" stroke="#9A916C" stroke-width="1.08"/>
            <circle id="connector8pin" cx="59.4" cy="5.4" r="1.98" fill="none" stroke="#9A916C" stroke-width="1.08"/>
        </g>
    </g>
    <rect x=".054" y="10.871" width="141.73" height="53.858" fill="#8C8C8C"/>
    <g fill="#FFE119">
        <path d="m9.893 35.898-2.241 1.92 1.633 1.884h14.663l2.241-1.956-1.671-1.848h-14.625zm-0.342-0.471-2.279 1.993-1.633-1.884 2.013-14.42 1.785-1.522 2.013 2.283-1.899 13.55zm16.942-13.912h-14.625l-2.051-2.319 1.785-1.522h16.259l1.292 1.522-2.66 2.319zm0.418 0.434-1.937 13.587 1.633 1.884 2.241-1.993 2.013-14.275-1.291-1.521-2.659 2.318zm-19.601 32.173h14.701l1.937 2.283-1.709 1.522h-16.221l-1.33-1.522 2.622-2.283zm-0.342-0.471-2.697 2.319-1.292-1.522 2.013-14.311 2.203-1.92 1.671 1.848-1.898 13.586zm15.423 0.036 2.013 2.319 1.747-1.485 2.051-14.456-1.671-1.848-2.203 1.92-1.937 13.55zm9.036 2.337c0 1.057-0.857 1.913-1.913 1.913s-1.913-0.857-1.913-1.913c0-1.057 0.857-1.913 1.913-1.913s1.913 0.856 1.913 1.913z"/>
        <path d="m45.893 35.898-2.241 1.92 1.633 1.884h14.663l2.241-1.956-1.671-1.848h-14.625zm-0.342-0.471-2.279 1.993-1.633-1.884 2.013-14.42 1.785-1.522 2.013 2.283-1.899 13.55zm16.942-13.912h-14.625l-2.051-2.319 1.785-1.522h16.259l1.292 1.522-2.66 2.319zm0.418 0.434-1.937 13.587 1.633 1.884 2.241-1.993 2.013-14.275-1.291-1.521-2.659 2.318zm-19.601 32.173h14.701l1.937 2.283-1.709 1.522h-16.221l-1.33-1.522 2.622-2.283zm-0.342-0.471-2.697 2.319-1.292-1.522 2.013-14.311 2.203-1.92 1.671 1.848-1.898 13.586zm15.423 0.036 2.013 2.319 1.747-1.485 2.051-14.456-1.671-1.848-2.203 1.92-1.937 13.55zm9.036 2.337c0 1.057-0.857 1.913-1.913 1.913s-1.913-0.857-1.913-1.913c0-1.057 0.857-1.913 1.913-1.913s1.913 0.856 1.913 1.913z"/>
        <path d="m81.893 35.898-2.241 1.92 1.633 1.884h14.663l2.241-1.956-1.671-1.848h-14.625zm-0.342-0.471-2.279 1.993-1.633-1.884 2.013-14.42 1.785-1.522 2.013 2.283-1.899 13.55zm16.942-13.912h-14.625l-2.051-2.319 1.785-1.522h16.259l1.292 1.522-2.66 2.319zm0.418 0.434-1.937 13.587 1.633 1.884 2.241-1.993 2.013-14.275-1.292-1.522-2.658 2.319zm-19.601 32.173h14.701l1.937 2.283-1.709 1.522h-16.221l-1.33-1.522 2.622-2.283zm-0.342-0.471-2.697 2.319-1.292-1.522 2.013-14.311 2.203-1.92 1.671 1.848-1.898 13.586zm15.423 0.036 2.013 2.319 1.747-1.485 2.051-14.456-1.671-1.848-2.203 1.92-1.937 13.55zm9.036 2.337c0 1.057-0.857 1.913-1.913 1.913s-1.913-0.857-1.913-1.913c0-1.057 0.857-1.913 1.913-1.913s1.913 0.856 1.913 1.913z"/>
        <path d="m117.89 35.898-2.241 1.92 1.633 1.884h14.663l2.241-1.956-1.671-1.848h-14.625zm-0.342-0.471-2.279 1.993-1.633-1.884 2.013-14.42 1.785-1.522 2.013 2.283-1.899 13.55zm16.942-13.912h-14.625l-2.051-2.319 1.785-1.522h16.259l1.292 1.522-2.66 2.319zm0.418 0.434-1.937 13.586 1.633 1.884 2.241-1.993 2.013-14.275-1.292-1.522-2.658 2.32zm-19.601 32.173h14.701l1.937 2.283-1.709 1.522h-16.221l-1.33-1.522 2.622-2.283zm-0.342-0.471-2.697 2.319-1.292-1.522 2.013-14.311 2.203-1.92 1.671 1.848-1.898 13.586zm15.423 0.036 2.013 2.319 1.747-1.485 2.051-14.456-1.671-1.848-2.203 1.92-1.937 13.55zm9.036 2.337c0 1.057-0.857 1.913-1.913 1.913-1.057 0-1.913-0.857-1.913-1.913 0-1.057 0.857-1.913 1.913-1.913s1.913 0.856 1.913 1.913z"/>
        <path d="m74.429 26.609c0 1.057-0.857 1.913-1.913 1.913s-1.913-0.857-1.913-1.913 0.857-1.913 1.913-1.913 1.913 0.856 1.913 1.913zm-5.101 20.486c-1.057 0-1.913 0.857-1.913 1.913 0 1.057 0.857 1.913 1.913 1.913s1.913-0.857 1.913-1.913c1e-3 -1.056-0.856-1.913-1.913-1.913z"/>
    </g>
</svg>
