<?xml version="1.0" encoding="UTF-8"?>
<!-- Generator: Adobe Illustrator 20.0.0, SVG Export Plug-In . SVG Version: 6.00 Build 0)  -->
<svg width=".90554in" height=".90554in" baseProfile="tiny" version="1.2" viewBox="0 0 65.199 65.199" xml:space="preserve" xmlns="http://www.w3.org/2000/svg" xmlns:xml="http://www.w3.org/XML/1998/namespace">
    <desc>
        <referenceFile>Adafruit NeoPixel Jewel_breadboard.svg</referenceFile>
    </desc>
    <desc>Fritzing breadboard generated by brd2svg</desc>
    <g id="breadboard">
        <g id="icon">
            <path d="m0 32.6c-0.031-18.005 14.539-32.625 32.543-32.657s32.625 14.539 32.656 32.543v0.113c0.031 18.004-14.539 32.625-32.543 32.656s-32.625-14.538-32.656-32.542v-0.113zm56.411 0c0 1.722 1.396 3.118 3.118 3.118s3.118-1.396 3.118-3.118-1.396-3.118-3.118-3.118-3.118 1.396-3.118 3.118zm-53.859 0c0 1.722 1.395 3.118 3.117 3.119s3.118-1.395 3.119-3.117v-2e-3c0-1.722-1.396-3.118-3.118-3.118s-3.118 1.396-3.118 3.118zm40.533 0.305c0 0.795 0.645 1.44 1.44 1.44s1.44-0.645 1.44-1.44-0.645-1.44-1.44-1.44-1.44 0.645-1.44 1.44zm-5.406-12.211c0 0.795 0.645 1.44 1.44 1.44s1.44-0.645 1.44-1.44-0.645-1.44-1.44-1.44-1.44 0.645-1.44 1.44zm-12.304 23.139c0 0.795 0.645 1.44 1.44 1.44s1.44-0.645 1.44-1.44-0.645-1.44-1.44-1.44-1.44 0.645-1.44 1.44zm-0.745-22.584c-1e-3 0.795 0.644 1.441 1.439 1.441 0.795 1e-3 1.441-0.644 1.441-1.439v-2e-3c0-0.795-0.645-1.44-1.44-1.44s-1.44 0.645-1.44 1.44zm12.321 23.09c0 0.795 0.645 1.44 1.44 1.44s1.44-0.645 1.44-1.44-0.645-1.44-1.44-1.44-1.44 0.644-1.44 1.44z" fill="#0A0A0A"/>
            <g>
                <title>layer 21</title>
                <g>
                    <title>text:IN</title>
                    <g transform="translate(23.776 42.817)">
                        
                            
                                <g transform="rotate(270)">
                                    
                                        
                                            <g transform="translate(.00029375 -1.4918e-5)">
                                                
                                                    <text fill="#FFFFFF" font-family="'OCRA'" font-size="2.539">IN</text>
                                                
                                            </g>
                                        
                                    
                                </g>
                            
                        
                    </g>
                </g>
                <g>
                    <title>text:OUT</title>
                    <g transform="translate(29.189 22.074)">
                        
                            <text fill="#FFFFFF" font-family="'OCRA'" font-size="2.539">OUT</text>
                        
                    </g>
                </g>
                <g>
                    <title>text:GND</title>
                    <g transform="translate(42.894 30.009)">
                        
                            
                                <g transform="rotate(75)">
                                    
                                        
                                            <g transform="translate(-6.8838 .00015991)">
                                                
                                                    <text fill="#FFFFFF" font-family="'OCRA'" font-size="2.539">GND</text>
                                                
                                            </g>
                                        
                                    
                                </g>
                            
                        
                    </g>
                </g>
                <g>
                    <title>text:PWR</title>
                    <g transform="translate(35.63 40.072)">
                        
                            
                                <g transform="rotate(270)">
                                    
                                        
                                            <g transform="translate(-6.8843 -7.8359e-6)">
                                                
                                                    <text fill="#FFFFFF" font-family="'OCRA'" font-size="2.539">PWR</text>
                                                
                                            </g>
                                        
                                    
                                </g>
                            
                        
                    </g>
                </g>
                <g>
                    <title>element:C1</title>
                    <g>
                        <title>package:C0603</title>
                    </g>
                </g>
                <g>
                    <title>element:C2</title>
                    <g>
                        <title>package:C0603</title>
                    </g>
                </g>
                <g>
                    <title>element:C6</title>
                    <g>
                        <title>package:C0603</title>
                    </g>
                </g>
                <g>
                    <title>element:C10</title>
                    <g>
                        <title>package:C0603</title>
                    </g>
                </g>
                <g>
                    <title>element:FID1</title>
                    <g>
                        <title>package:FIDUCIAL_1MM</title>
                    </g>
                </g>
                <g>
                    <title>element:FID2</title>
                    <g>
                        <title>package:FIDUCIAL_1MM</title>
                    </g>
                </g>
                <g>
                    <title>element:GND</title>
                    <g>
                        <title>package:1X01-CLEANBIG</title>
                    </g>
                </g>
                <g>
                    <title>element:GND'</title>
                    <g>
                        <title>package:1X01-CLEANBIG</title>
                    </g>
                </g>
                <g>
                    <title>element:INPUT</title>
                    <g>
                        <title>package:1X01-CLEANBIG</title>
                    </g>
                </g>
                <g>
                    <title>element:OUTPUT</title>
                    <g>
                        <title>package:1X01-CLEANBIG</title>
                    </g>
                </g>
                <g>
                    <title>element:PWR</title>
                    <g>
                        <title>package:1X01-CLEANBIG</title>
                    </g>
                </g>
                <g>
                    <title>element:R1</title>
                    <g>
                        <title>package:0603-NO</title>
                    </g>
                </g>
                <g>
                    <title>element:U$3</title>
                    <g>
                        <title>package:ADAFRUIT_5MM</title>
                    </g>
                </g>
            </g>
            <g transform="matrix(-.5 -.86602 .86602 -.5 20.993 35.572)">
                
                    
                        <g transform="matrix(-2.5497e-6 -1 1 -2.5497e-6 9.0393 32.491)">
                            
                                <rect id="connector5pin" x="19.348" y="10.167" width="2.835" height="3.118" fill="#9A916C"/>
                            
                        </g>
                    
                
            </g>
            <g transform="matrix(-.5 -.86602 .86602 -.5 20.993 27.225)">
                
                    
                        <g transform="matrix(-2.5497e-6 -1 1 -2.5497e-6 10.803 25.908)">
                            
                                <rect id="connector6pin" x="16.938" y="5.993" width="2.835" height="3.118" fill="#9A916C"/>
                            
                        </g>
                    
                
            </g>
            <g transform="matrix(.70711 -.70711 .70711 .70711 5.3076 35.078)">
                
                    
                        <g transform="matrix(-1 2.5352e-6 -2.5352e-6 -1 89.993 22.264)">
                            
                                <rect id="connector7pin" x="43.437" y="9.715" width="3.118" height="2.835" fill="#9A916C"/>
                            
                        </g>
                    
                
            </g>
            <g transform="matrix(.70711 -.70711 .70711 .70711 8.7151 36.489)">
                
                    
                        <g transform="matrix(-1 2.5352e-6 -2.5352e-6 -1 96.808 15.449)">
                            
                                <rect id="connector8pin" x="46.845" y="6.307" width="3.118" height="2.835" fill="#9A916C"/>
                            
                        </g>
                    
                
            </g>
            <g transform="matrix(-.5 .86602 -.86602 -.5 76.935 62.494)">
                
                    
                        <rect id="connector9pin" x="18.868" y="52.039" width="3.118" height="2.835" fill="#9A916C"/>
                    
                
            </g>
            <g transform="matrix(-.5 .86602 -.86602 -.5 76.935 70.841)">
                
                    
                        <rect id="connector10pin" x="16.458" y="56.213" width="3.118" height="2.835" fill="#9A916C"/>
                    
                
            </g>
            <g transform="matrix(.5 .86602 -.86602 .5 68.492 -12.072)">
                
                    
                        <g transform="matrix(2.5497e-6 1 -1 2.5497e-6 97.98 8.5789)">
                            
                                <rect id="connector11pin" x="43.283" y="51.721" width="2.835" height="3.118" fill="#9A916C"/>
                            
                        </g>
                    
                
            </g>
            <g transform="matrix(.5 .86602 -.86602 .5 73.311 -12.072)">
                
                    
                        <g transform="matrix(2.5497e-6 1 -1 2.5497e-6 104.56 10.343)">
                            
                                <rect id="connector12pin" x="45.693" y="55.894" width="2.835" height="3.118" fill="#9A916C"/>
                            
                        </g>
                    
                
            </g>
            <path id="connector13pin" d="m32.628 8.661c0.783 0 1.417 0.635 1.417 1.417 0 0.783-0.635 1.417-1.417 1.417-0.783 0-1.417-0.635-1.417-1.417s0.634-1.417 1.417-1.417z" fill="#9A916C"/>
            <path id="connector14pin" d="m32.699 54.611c0.783 0 1.417 0.635 1.417 1.417 0 0.783-0.635 1.417-1.417 1.417-0.783 0-1.417-0.635-1.417-1.417 0-0.783 0.634-1.417 1.417-1.417z" fill="#9A916C"/>
            <circle id="connector15pin" cx="44.525" cy="32.905" r="1.98" fill="none" stroke="#9A916C" stroke-width="1.08"/>
            <circle id="connector16pin" cx="39.119" cy="20.694" r="1.98" fill="none" stroke="#9A916C" stroke-width="1.08"/>
            <circle id="connector17pin" cx="26.815" cy="43.833" r="1.98" fill="none" stroke="#9A916C" stroke-width="1.08"/>
            <g transform="matrix(-1 0 0 -1 78.522 74.554)">
                
                    
                        <rect id="connector18pin" x="37.418" y="35.576" width="3.685" height="3.402" fill="#9A916C"/>
                    
                
            </g>
            <g transform="matrix(-1 0 0 -1 78.522 55.845)">
                
                    
                        <rect id="connector19pin" x="37.418" y="26.222" width="3.685" height="3.402" fill="#9A916C"/>
                    
                
            </g>
            <g transform="matrix(-1 0 0 -1 51.876 55.845)">
                
                    
                        <rect id="connector20pin" x="24.096" y="26.222" width="3.685" height="3.402" fill="#9A916C"/>
                    
                
            </g>
            <g transform="matrix(-1 0 0 -1 51.876 74.554)">
                
                    
                        <rect id="connector21pin" x="24.096" y="35.576" width="3.685" height="3.402" fill="#9A916C"/>
                    
                
            </g>
            <g transform="matrix(-1 0 0 -1 78.522 29.199)">
                
                    
                        <rect id="connector22pin" x="37.418" y="12.899" width="3.685" height="3.402" fill="#9A916C"/>
                    
                
            </g>
            <g transform="matrix(-1 0 0 -1 78.522 10.491)">
                
                    
                        <rect id="connector23pin" x="37.418" y="3.545" width="3.685" height="3.402" fill="#9A916C"/>
                    
                
            </g>
            <g transform="matrix(-1 0 0 -1 51.876 10.491)">
                
                    
                        <rect id="connector24pin" x="24.096" y="3.545" width="3.685" height="3.402" fill="#9A916C"/>
                    
                
            </g>
            <g transform="matrix(-1 0 0 -1 51.876 29.199)">
                
                    
                        <rect id="connector25pin" x="24.096" y="12.899" width="3.685" height="3.402" fill="#9A916C"/>
                    
                
            </g>
            <g transform="matrix(-.5 -.86602 .86602 -.5 51.724 88.6)">
                
                    
                        <g transform="matrix(-2.5497e-6 -1 1 -2.5497e-6 22.07 80.808)">
                            
                                <rect id="connector26pin" x="49.738" y="27.526" width="3.402" height="3.685" fill="#9A916C"/>
                            
                        </g>
                    
                
            </g>
            <g transform="matrix(-.5 -.86602 .86602 -.5 67.926 88.6)">
                
                    
                        <g transform="matrix(-2.5497e-6 -1 1 -2.5497e-6 34.849 84.232)">
                            
                                <rect id="connector27pin" x="57.839" y="22.849" width="3.402" height="3.685" fill="#9A916C"/>
                            
                        </g>
                    
                
            </g>
            <g transform="matrix(-.5 -.86602 .86602 -.5 67.926 65.524)">
                
                    
                        <g transform="matrix(-2.5497e-6 -1 1 -2.5497e-6 39.725 66.032)">
                            
                                <rect id="connector28pin" x="51.178" y="11.311" width="3.402" height="3.685" fill="#9A916C"/>
                            
                        </g>
                    
                
            </g>
            <g transform="matrix(-.5 -.86602 .86602 -.5 51.724 65.524)">
                
                    
                        <g transform="matrix(-2.5497e-6 -1 1 -2.5497e-6 26.947 62.608)">
                            
                                <rect id="connector29pin" x="43.077" y="15.988" width="3.402" height="3.685" fill="#9A916C"/>
                            
                        </g>
                    
                
            </g>
            <g transform="matrix(.5 -.86602 .86602 .5 -18.634 62.463)">
                
                    
                        <g transform="matrix(-1 2.5207e-6 -2.5207e-6 -1 89.555 94.737)">
                            
                                <rect id="connector30pin" x="42.935" y="45.668" width="3.685" height="3.402" fill="#9A916C"/>
                            
                        </g>
                    
                
            </g>
            <g transform="matrix(.5 -.86602 .86602 .5 -18.634 71.817)">
                
                    
                        <g transform="matrix(-1 2.5207e-6 -2.5207e-6 -1 105.76 104.09)">
                            
                                <rect id="connector31pin" x="51.036" y="50.345" width="3.685" height="3.402" fill="#9A916C"/>
                            
                        </g>
                    
                
            </g>
            <g transform="matrix(.5 -.86602 .86602 .5 -5.3108 71.817)">
                
                    
                        <g transform="matrix(-1 2.5207e-6 -2.5207e-6 -1 119.08 81.016)">
                            
                                <rect id="connector32pin" x="57.697" y="38.807" width="3.685" height="3.402" fill="#9A916C"/>
                            
                        </g>
                    
                
            </g>
            <g transform="matrix(.5 -.86602 .86602 .5 -5.3109 62.463)">
                
                    
                        <g transform="matrix(-1 2.5207e-6 -2.5207e-6 -1 102.88 71.661)">
                            
                                <rect id="connector33pin" x="49.596" y="34.13" width="3.685" height="3.402" fill="#9A916C"/>
                            
                        </g>
                    
                
            </g>
            <rect id="connector34pin" x="24.096" y="49.466" width="3.685" height="3.402" fill="#9A916C"/>
            <rect id="connector35pin" x="24.096" y="58.82" width="3.685" height="3.402" fill="#9A916C"/>
            <rect id="connector36pin" x="37.418" y="58.82" width="3.685" height="3.402" fill="#9A916C"/>
            <rect id="connector37pin" x="37.418" y="49.466" width="3.685" height="3.402" fill="#9A916C"/>
            <g transform="matrix(.5 .86602 -.86602 .5 37.91 5.9985)">
                
                    
                        <g transform="matrix(2.5497e-6 1 -1 2.5497e-6 49.591 22.07)">
                            
                                <rect id="connector38pin" x="12.06" y="33.988" width="3.402" height="3.685" fill="#9A916C"/>
                            
                        </g>
                    
                
            </g>
            <g transform="matrix(.5 .86602 -.86602 .5 37.91 15.353)">
                
                    
                        <g transform="matrix(2.5497e-6 1 -1 2.5497e-6 46.167 34.848)">
                            
                                <rect id="connector39pin" x="3.959" y="38.665" width="3.402" height="3.685" fill="#9A916C"/>
                            
                        </g>
                    
                
            </g>
            <g transform="matrix(.5 .86602 -.86602 .5 51.233 15.353)">
                
                    
                        <g transform="matrix(2.5497e-6 1 -1 2.5497e-6 64.366 39.725)">
                            
                                <rect id="connector40pin" x="10.62" y="50.203" width="3.402" height="3.685" fill="#9A916C"/>
                            
                        </g>
                    
                
            </g>
            <g transform="matrix(.5 .86602 -.86602 .5 51.233 5.9985)">
                
                    
                        <g transform="matrix(2.5497e-6 1 -1 2.5497e-6 67.79 26.947)">
                            
                                <rect id="connector41pin" x="18.721" y="45.526" width="3.402" height="3.685" fill="#9A916C"/>
                            
                        </g>
                    
                
            </g>
            <g transform="matrix(-.5 .86602 -.86602 -.5 46.075 9.0602)">
                
                    
                        <rect id="connector42pin" x="18.579" y="16.13" width="3.685" height="3.402" fill="#9A916C"/>
                    
                
            </g>
            <g transform="matrix(-.5 .86602 -.86602 -.5 29.872 9.0602)">
                
                    
                        <rect id="connector43pin" x="10.478" y="11.453" width="3.685" height="3.402" fill="#9A916C"/>
                    
                
            </g>
            <g transform="matrix(-.5 .86602 -.86602 -.5 29.872 32.136)">
                
                    
                        <rect id="connector44pin" x="3.817" y="22.991" width="3.685" height="3.402" fill="#9A916C"/>
                    
                
            </g>
            <g transform="matrix(-.5 .86602 -.86602 -.5 46.075 32.136)">
                
                    
                        <rect id="connector45pin" x="11.918" y="27.668" width="3.685" height="3.402" fill="#9A916C"/>
                    
                
            </g>
            <circle id="connector46pin" cx="26.07" cy="21.249" r="1.98" fill="none" stroke="#9A916C" stroke-width="1.08"/>
            <circle id="connector47pin" cx="38.391" cy="44.339" r="1.98" fill="none" stroke="#9A916C" stroke-width="1.08"/>
            <g transform="matrix(0 -1 1 0 -13.958 55.034)">
                
                    
                        <g transform="matrix(-2.5352e-6 -1 1 -2.5352e-6 -13.958 55.034)">
                            
                                <rect id="connector48pin" x="19.12" y="32.937" width="2.835" height="3.118" fill="#9A916C"/>
                            
                        </g>
                    
                
            </g>
            <g transform="matrix(0 -1 1 0 -9.1395 50.215)">
                
                    
                        <g transform="matrix(-2.5352e-6 -1 1 -2.5352e-6 -9.1395 50.215)">
                            
                                <rect id="connector49pin" x="19.12" y="28.118" width="2.835" height="3.118" fill="#9A916C"/>
                            
                        </g>
                    
                
            </g>
        </g>
        <g transform="translate(17.293 8.505)">
            
                
                    <g transform="matrix(-.5 -.86602 .86602 -.5 2.4192 3.6647)">
                        
                            
                                <path d="M4.245,2.268H0.29C0.13,2.268,0,2.138,0,1.977L0,0.29C0,0.13,0.13,0,0.29,0l3.955,0c0.16,0,0.29,0.13,0.29,0.29v1.687C4.535,2.138,4.405,2.268,4.245,2.268z" fill="#DCDCDC"/>
                                <g transform="matrix(-2.5497e-6 -1 1 -2.5497e-6 1.134 3.402)">
                                    
                                        <rect x="1.134" width="2.268" height="2.268" fill="#6E554B"/>
                                    
                                </g>
                            
                        
                    </g>
                
            
        </g>
        <g transform="translate(44.433 8.2943)">
            
                
                    <g transform="matrix(.70711 -.70711 .70711 .70711 -.13772 1.9355)">
                        
                            
                                <path d="M4.245,2.268H0.29C0.13,2.268,0,2.138,0,1.977V0.29C0,0.13,0.13,0,0.29,0l3.955,0c0.16,0,0.29,0.13,0.29,0.29v1.687C4.535,2.138,4.405,2.268,4.245,2.268z" fill="#DCDCDC"/>
                                <g transform="matrix(-1 2.5352e-6 -2.5352e-6 -1 4.536 2.268)">
                                    
                                        <rect x="1.134" width="2.268" height="2.268" fill="#6E554B"/>
                                    
                                </g>
                            
                        
                    </g>
                
            
        </g>
        <g transform="translate(16.955 54.409)">
            
                
                    <g transform="matrix(-.5 .86602 -.86602 -.5 4.3833 -.26271)">
                        
                            
                                <path d="M4.245,2.268H0.29C0.13,2.268,0,2.138,0,1.977L0,0.29C0,0.13,0.13,0,0.29,0l3.955,0c0.16,0,0.29,0.13,0.29,0.29v1.687C4.535,2.138,4.405,2.268,4.245,2.268z" fill="#DCDCDC"/>
                                <rect x="1.134" width="2.268" height="2.268" fill="#6E554B"/>
                            
                        
                    </g>
                
            
        </g>
        <g transform="translate(43.638 54.232)">
            
                
                    <g transform="matrix(.5 .86602 -.86602 .5 2.1158 -1.3967)">
                        
                            
                                <path d="M4.245,2.268H0.29C0.13,2.268,0,2.138,0,1.977L0,0.29C0,0.13,0.13,0,0.29,0l3.955,0c0.16,0,0.29,0.13,0.29,0.29v1.687C4.535,2.138,4.405,2.268,4.245,2.268z" fill="#DCDCDC"/>
                                <g transform="matrix(2.5497e-6 1 -1 2.5497e-6 3.402 -1.134)">
                                    
                                        <rect x="1.134" width="2.268" height="2.268" fill="#6E554B"/>
                                    
                                </g>
                            
                        
                    </g>
                
            
        </g>
        <g transform="translate(24.946 23.387)">
            
                
                    
                        <rect y="3.402" width="15.307" height="1.984" fill="#DCDCDC"/>
                        <rect y="12.756" width="15.307" height="1.984" fill="#DCDCDC"/>
                        <rect x=".567" y="1.984" width="14.173" height="14.173" fill="#F0F0F0"/>
                        <circle cx="7.654" cy="9.071" r="6.024" fill="#DCDCDC"/>
                        <circle cx="7.654" cy="9.071" r="4.961" fill="#C8C8C8"/>
                        <polygon points="3.118 1.984 0.567 1.984 0.567 4.535" fill="#E6E6E6"/>
                        <path d="m10.726 6.236v0.124c0 0.157-0.127 0.283-0.283 0.283h-2.006c-0.157 0-0.283-0.127-0.283-0.283v-2.199c-0.167-0.017-0.329-0.05-0.5-0.05s-0.333 0.033-0.5 0.05v6.905c0 0.157-0.127 0.283-0.283 0.283h-2.007c-0.157 0-0.283-0.127-0.283-0.283v-4.83c0-0.157-0.127-0.283-0.283-0.283h-0.474c-0.696 0.854-1.131 1.93-1.131 3.118 0 1.263 0.486 2.402 1.263 3.278h2.914c0.157 0 0.283 0.127 0.283 0.283v1.349c0.167 0.017 0.329 0.05 0.5 0.05s0.333-0.033 0.5-0.05v-6.054c0-0.157 0.127-0.283 0.283-0.283h2.006c0.157 0 0.283 0.127 0.283 0.283v3.979c0 0.157 0.127 0.283 0.283 0.283h0.473c0.696-0.854 1.131-1.93 1.131-3.118s-0.435-2.264-1.131-3.118h-0.471c-0.157 0-0.284 0.127-0.284 0.283z" fill="#F0F0F0"/>
                        <rect x="4.722" y="8.844" width="2.268" height="1.701" fill="#645050"/>
                        <rect x="8.495" y="8.787" width=".85" height=".567" fill="#FF4000"/>
                        <rect x="8.495" y="11.622" width=".85" height=".567" fill="#40FF40"/>
                        <rect x="8.495" y="5.953" width=".85" height=".567" fill="#4040FF"/>
                    
                
            
        </g>
        <g transform="translate(24.946 .71012)">
            
                
                    
                        <rect y="3.402" width="15.307" height="1.984" fill="#DCDCDC"/>
                        <rect y="12.756" width="15.307" height="1.984" fill="#DCDCDC"/>
                        <rect x=".567" y="1.984" width="14.173" height="14.173" fill="#F0F0F0"/>
                        <circle cx="7.654" cy="9.071" r="6.024" fill="#DCDCDC"/>
                        <circle cx="7.654" cy="9.071" r="4.961" fill="#C8C8C8"/>
                        <polygon points="3.118 1.984 0.567 1.984 0.567 4.535" fill="#E6E6E6"/>
                        <path d="m10.726 6.236v0.124c0 0.157-0.127 0.283-0.283 0.283h-2.006c-0.157 0-0.283-0.127-0.283-0.283v-2.199c-0.167-0.017-0.329-0.05-0.5-0.05s-0.333 0.033-0.5 0.05v6.905c0 0.157-0.127 0.283-0.283 0.283h-2.007c-0.157 0-0.283-0.127-0.283-0.283v-4.83c0-0.157-0.127-0.283-0.283-0.283h-0.474c-0.696 0.854-1.131 1.93-1.131 3.118 0 1.263 0.486 2.402 1.263 3.278h2.914c0.157 0 0.283 0.127 0.283 0.283v1.349c0.167 0.017 0.329 0.05 0.5 0.05s0.333-0.033 0.5-0.05v-6.054c0-0.157 0.127-0.283 0.283-0.283h2.006c0.157 0 0.283 0.127 0.283 0.283v3.979c0 0.157 0.127 0.283 0.283 0.283h0.473c0.696-0.854 1.131-1.93 1.131-3.118s-0.435-2.264-1.131-3.118h-0.471c-0.157 0-0.284 0.127-0.284 0.283z" fill="#F0F0F0"/>
                        <rect x="4.722" y="8.844" width="2.268" height="1.701" fill="#645050"/>
                        <rect x="8.495" y="8.787" width=".85" height=".567" fill="#FF4000"/>
                        <rect x="8.495" y="11.622" width=".85" height=".567" fill="#40FF40"/>
                        <rect x="8.495" y="5.953" width=".85" height=".567" fill="#4040FF"/>
                    
                
            
        </g>
        <g transform="translate(45.487 12.616)">
            
                
                    <g transform="matrix(.5 .86602 -.86602 .5 10.823 -2.5889)">
                        
                            
                                
                                    <g transform="matrix(2.5497e-6 1 -1 2.5497e-6 12.048 -3.2594)">
                                        
                                            <rect x="6.662" y="-3.259" width="1.984" height="15.307" fill="#DCDCDC"/>
                                        
                                    </g>
                                    <g transform="matrix(2.5497e-6 1 -1 2.5497e-6 21.402 6.0945)">
                                        
                                            <rect x="6.662" y="6.095" width="1.984" height="15.307" fill="#DCDCDC"/>
                                        
                                    </g>
                                    <g transform="matrix(2.5497e-6 1 -1 2.5497e-6 16.724 1.417)">
                                        
                                            <rect x=".567" y="1.984" width="14.173" height="14.173" fill="#F0F0F0"/>
                                        
                                    </g>
                                    <g transform="matrix(.866 -.5 .5 .866 -3.5101 5.0423)">
                                        
                                            <ellipse cx="7.654" cy="9.071" rx="6.024" ry="6.024" fill="#DCDCDC"/>
                                        
                                    
                                    
                                        
                                            <ellipse cx="7.654" cy="9.071" rx="4.961" ry="4.961" fill="#C8C8C8"/>
                                        
                                    </g>
                                    <polygon points="3.118 1.984 0.567 1.984 0.567 4.535" fill="#E6E6E6"/>
                                    <path d="m10.726 6.236v0.124c0 0.157-0.127 0.283-0.283 0.283h-2.006c-0.157 0-0.283-0.127-0.283-0.283v-2.199c-0.167-0.017-0.329-0.05-0.5-0.05s-0.333 0.033-0.5 0.05v6.905c0 0.157-0.127 0.283-0.283 0.283h-2.007c-0.157 0-0.283-0.127-0.283-0.283v-4.83c0-0.157-0.127-0.283-0.283-0.283h-0.474c-0.696 0.854-1.131 1.93-1.131 3.118 0 1.263 0.486 2.402 1.263 3.278h2.914c0.157 0 0.283 0.127 0.283 0.283v1.349c0.167 0.017 0.329 0.05 0.5 0.05s0.333-0.033 0.5-0.05v-6.054c0-0.157 0.127-0.283 0.283-0.283h2.006c0.157 0 0.283 0.127 0.283 0.283v3.979c0 0.157 0.127 0.283 0.283 0.283h0.473c0.696-0.854 1.131-1.93 1.131-3.118s-0.435-2.264-1.131-3.118h-0.471c-0.157 0-0.284 0.127-0.284 0.283z" fill="#F0F0F0"/>
                                    <g transform="matrix(2.5497e-6 1 -1 2.5497e-6 15.55 3.8385)">
                                        
                                            <rect x="5.005" y="8.56" width="1.701" height="2.268" fill="#645050"/>
                                        
                                    </g>
                                    <g transform="matrix(2.5497e-6 1 -1 2.5497e-6 17.99 .1505)">
                                        
                                            <rect x="8.636" y="8.646" width=".567" height=".85" fill="#FF4000"/>
                                        
                                    </g>
                                    <g transform="matrix(2.5497e-6 1 -1 2.5497e-6 20.826 2.9855)">
                                        
                                            <rect x="8.636" y="11.48" width=".567" height=".85" fill="#40FF40"/>
                                        
                                    </g>
                                    <g transform="matrix(2.5497e-6 1 -1 2.5497e-6 15.156 -2.6835)">
                                        
                                            <rect x="8.636" y="5.811" width=".567" height=".85" fill="#4040FF"/>
                                        
                                    </g>
                                
                            
                        
                    </g>
                
            
        </g>
        <g transform="translate(45.487 36.427)">
            
                
                    <g transform="matrix(-.5 .86602 -.86602 -.5 18.476 5.4896)">
                        
                            
                                
                                    <rect y="3.402" width="15.307" height="1.984" fill="#DCDCDC"/>
                                    <rect y="12.756" width="15.307" height="1.984" fill="#DCDCDC"/>
                                    <rect x=".567" y="1.984" width="14.173" height="14.173" fill="#F0F0F0"/>
                                    <g transform="matrix(.5 -.866 .866 .5 -4.0287 11.164)">
                                        
                                            <ellipse cx="7.654" cy="9.071" rx="6.024" ry="6.024" fill="#DCDCDC"/>
                                        
                                    
                                    
                                        
                                            <ellipse cx="7.654" cy="9.071" rx="4.961" ry="4.961" fill="#C8C8C8"/>
                                        
                                    </g>
                                    <polygon points="3.118 1.984 0.567 1.984 0.567 4.535" fill="#E6E6E6"/>
                                    <path d="m10.726 6.236v0.124c0 0.157-0.127 0.283-0.283 0.283h-2.006c-0.157 0-0.283-0.127-0.283-0.283v-2.199c-0.167-0.017-0.329-0.05-0.5-0.05s-0.333 0.033-0.5 0.05v6.905c0 0.157-0.127 0.283-0.283 0.283h-2.007c-0.157 0-0.283-0.127-0.283-0.283v-4.83c0-0.157-0.127-0.283-0.283-0.283h-0.474c-0.696 0.854-1.131 1.93-1.131 3.118 0 1.263 0.486 2.402 1.263 3.278h2.914c0.157 0 0.283 0.127 0.283 0.283v1.349c0.167 0.017 0.329 0.05 0.5 0.05s0.333-0.033 0.5-0.05v-6.054c0-0.157 0.127-0.283 0.283-0.283h2.006c0.157 0 0.283 0.127 0.283 0.283v3.979c0 0.157 0.127 0.283 0.283 0.283h0.473c0.696-0.854 1.131-1.93 1.131-3.118s-0.435-2.264-1.131-3.118h-0.471c-0.157 0-0.284 0.127-0.284 0.283z" fill="#F0F0F0"/>
                                    <rect x="4.722" y="8.844" width="2.268" height="1.701" fill="#645050"/>
                                    <rect x="8.495" y="8.787" width=".85" height=".567" fill="#FF4000"/>
                                    <rect x="8.495" y="11.622" width=".85" height=".567" fill="#40FF40"/>
                                    <rect x="8.495" y="5.953" width=".85" height=".567" fill="#4040FF"/>
                                
                            
                        
                    </g>
                
            
        </g>
        <g transform="translate(24.946 48.899)">
            
                
                    <g transform="matrix(-1 0 0 -1 15.307 16.157)">
                        
                            
                                
                                    <rect y="3.402" width="15.307" height="1.984" fill="#DCDCDC"/>
                                    <rect y="12.756" width="15.307" height="1.984" fill="#DCDCDC"/>
                                    <rect x=".567" y="1.984" width="14.173" height="14.173" fill="#F0F0F0"/>
                                    <circle cx="7.654" cy="9.071" r="6.024" fill="#DCDCDC"/>
                                    <circle cx="7.654" cy="9.071" r="4.961" fill="#C8C8C8"/>
                                    <polygon points="3.118 1.984 0.567 1.984 0.567 4.535" fill="#E6E6E6"/>
                                    <path d="m10.726 6.236v0.124c0 0.157-0.127 0.283-0.283 0.283h-2.006c-0.157 0-0.283-0.127-0.283-0.283v-2.199c-0.167-0.017-0.329-0.05-0.5-0.05s-0.333 0.033-0.5 0.05v6.905c0 0.157-0.127 0.283-0.283 0.283h-2.007c-0.157 0-0.283-0.127-0.283-0.283v-4.83c0-0.157-0.127-0.283-0.283-0.283h-0.474c-0.696 0.854-1.131 1.93-1.131 3.118 0 1.263 0.486 2.402 1.263 3.278h2.914c0.157 0 0.283 0.127 0.283 0.283v1.349c0.167 0.017 0.329 0.05 0.5 0.05s0.333-0.033 0.5-0.05v-6.054c0-0.157 0.127-0.283 0.283-0.283h2.006c0.157 0 0.283 0.127 0.283 0.283v3.979c0 0.157 0.127 0.283 0.283 0.283h0.473c0.696-0.854 1.131-1.93 1.131-3.118s-0.435-2.264-1.131-3.118h-0.471c-0.157 0-0.284 0.127-0.284 0.283z" fill="#F0F0F0"/>
                                    <rect x="4.722" y="8.844" width="2.268" height="1.701" fill="#645050"/>
                                    <rect x="8.495" y="8.787" width=".85" height=".567" fill="#FF4000"/>
                                    <rect x="8.495" y="11.622" width=".85" height=".567" fill="#40FF40"/>
                                    <rect x="8.495" y="5.953" width=".85" height=".567" fill="#4040FF"/>
                                
                            
                        
                    </g>
                
            
        </g>
        <g transform="translate(4.4052 36.427)">
            
                
                    <g transform="matrix(-.5 -.86602 .86602 -.5 4.484 18.746)">
                        
                            
                                
                                    <g transform="matrix(-2.5497e-6 -1 1 -2.5497e-6 3.2594 12.048)">
                                        
                                            <rect x="6.662" y="-3.259" width="1.984" height="15.307" fill="#DCDCDC"/>
                                        
                                    </g>
                                    <g transform="matrix(-2.5497e-6 -1 1 -2.5497e-6 -6.0945 21.402)">
                                        
                                            <rect x="6.662" y="6.095" width="1.984" height="15.307" fill="#DCDCDC"/>
                                        
                                    </g>
                                    <g transform="matrix(-2.5497e-6 -1 1 -2.5497e-6 -1.417 16.724)">
                                        
                                            <rect x=".567" y="1.984" width="14.173" height="14.173" fill="#F0F0F0"/>
                                        
                                    </g>
                                    <g transform="matrix(.866 -.5 .5 .866 -3.51 5.0423)">
                                        
                                            <ellipse cx="7.654" cy="9.071" rx="6.024" ry="6.024" fill="#DCDCDC"/>
                                        
                                    
                                    
                                        
                                            <ellipse cx="7.654" cy="9.071" rx="4.961" ry="4.961" fill="#C8C8C8"/>
                                        
                                    </g>
                                    <polygon points="3.118 1.984 0.567 1.984 0.567 4.535" fill="#E6E6E6"/>
                                    <path d="m10.726 6.236v0.124c0 0.157-0.127 0.283-0.283 0.283h-2.006c-0.157 0-0.283-0.127-0.283-0.283v-2.199c-0.167-0.017-0.329-0.05-0.5-0.05s-0.333 0.033-0.5 0.05v6.905c0 0.157-0.127 0.283-0.283 0.283h-2.007c-0.157 0-0.283-0.127-0.283-0.283v-4.83c0-0.157-0.127-0.283-0.283-0.283h-0.474c-0.696 0.854-1.131 1.93-1.131 3.118 0 1.263 0.486 2.402 1.263 3.278h2.914c0.157 0 0.283 0.127 0.283 0.283v1.349c0.167 0.017 0.329 0.05 0.5 0.05s0.333-0.033 0.5-0.05v-6.054c0-0.157 0.127-0.283 0.283-0.283h2.006c0.157 0 0.283 0.127 0.283 0.283v3.979c0 0.157 0.127 0.283 0.283 0.283h0.473c0.696-0.854 1.131-1.93 1.131-3.118s-0.435-2.264-1.131-3.118h-0.471c-0.157 0-0.284 0.127-0.284 0.283z" fill="#F0F0F0"/>
                                    <g transform="matrix(-2.5497e-6 -1 1 -2.5497e-6 -3.8385 15.55)">
                                        
                                            <rect x="5.006" y="8.56" width="1.701" height="2.268" fill="#645050"/>
                                        
                                    </g>
                                    <g transform="matrix(-2.5497e-6 -1 1 -2.5497e-6 -.1505 17.99)">
                                        
                                            <rect x="8.636" y="8.646" width=".567" height=".85" fill="#FF4000"/>
                                        
                                    </g>
                                    <g transform="matrix(-2.5497e-6 -1 1 -2.5497e-6 -2.9855 20.826)">
                                        
                                            <rect x="8.636" y="11.48" width=".567" height=".85" fill="#40FF40"/>
                                        
                                    </g>
                                    <g transform="matrix(-2.5497e-6 -1 1 -2.5497e-6 2.6835 15.156)">
                                        
                                            <rect x="8.636" y="5.811" width=".567" height=".85" fill="#4040FF"/>
                                        
                                    </g>
                                
                            
                        
                    </g>
                
            
        </g>
        <g transform="translate(4.4052 12.616)">
            
                
                    <g transform="matrix(.5 -.86602 .86602 .5 -3.1694 10.667)">
                        
                            
                                
                                    <g transform="matrix(-1 2.5207e-6 -2.5207e-6 -1 15.308 8.7888)">
                                        
                                            <rect y="3.402" width="15.307" height="1.984" fill="#DCDCDC"/>
                                        
                                    </g>
                                    <g transform="matrix(-1 2.5207e-6 -2.5207e-6 -1 15.308 27.497)">
                                        
                                            <rect y="12.756" width="15.307" height="1.984" fill="#DCDCDC"/>
                                        
                                    </g>
                                    <g transform="matrix(-1 2.5207e-6 -2.5207e-6 -1 15.307 18.141)">
                                        
                                            <rect x=".567" y="1.984" width="14.173" height="14.173" fill="#F0F0F0"/>
                                        
                                    </g>
                                    <g transform="matrix(.5 -.866 .866 .5 -4.0287 11.164)">
                                        
                                            <ellipse cx="7.654" cy="9.071" rx="6.024" ry="6.024" fill="#DCDCDC"/>
                                        
                                    
                                    
                                        
                                            <ellipse cx="7.654" cy="9.071" rx="4.961" ry="4.961" fill="#C8C8C8"/>
                                        
                                    </g>
                                    <polygon points="3.118 1.984 0.567 1.984 0.567 4.535" fill="#E6E6E6"/>
                                    <path d="m10.726 6.236v0.124c0 0.157-0.127 0.283-0.283 0.283h-2.006c-0.157 0-0.283-0.127-0.283-0.283v-2.199c-0.167-0.017-0.329-0.05-0.5-0.05s-0.333 0.033-0.5 0.05v6.905c0 0.157-0.127 0.283-0.283 0.283h-2.007c-0.157 0-0.283-0.127-0.283-0.283v-4.83c0-0.157-0.127-0.283-0.283-0.283h-0.474c-0.696 0.854-1.131 1.93-1.131 3.118 0 1.263 0.486 2.402 1.263 3.278h2.914c0.157 0 0.283 0.127 0.283 0.283v1.349c0.167 0.017 0.329 0.05 0.5 0.05s0.333-0.033 0.5-0.05v-6.054c0-0.157 0.127-0.283 0.283-0.283h2.006c0.157 0 0.283 0.127 0.283 0.283v3.979c0 0.157 0.127 0.283 0.283 0.283h0.473c0.696-0.854 1.131-1.93 1.131-3.118s-0.435-2.264-1.131-3.118h-0.471c-0.157 0-0.284 0.127-0.284 0.283z" fill="#F0F0F0"/>
                                    <g transform="matrix(-1 2.5207e-6 -2.5207e-6 -1 11.712 19.389)">
                                        
                                            <rect x="4.722" y="8.844" width="2.268" height="1.701" fill="#645050"/>
                                        
                                    </g>
                                    <g transform="matrix(-1 2.5207e-6 -2.5207e-6 -1 17.84 18.141)">
                                        
                                            <rect x="8.495" y="8.787" width=".85" height=".567" fill="#FF4000"/>
                                        
                                    </g>
                                    <g transform="matrix(-1 2.5207e-6 -2.5207e-6 -1 17.84 23.811)">
                                        
                                            <rect x="8.495" y="11.622" width=".85" height=".567" fill="#40FF40"/>
                                        
                                    </g>
                                    <g transform="matrix(-1 2.5207e-6 -2.5207e-6 -1 17.84 12.473)">
                                        
                                            <rect x="8.495" y="5.953" width=".85" height=".567" fill="#4040FF"/>
                                        
                                    </g>
                                
                            
                        
                    </g>
                
            
        </g>
        <g transform="translate(18.27 30.953)">
            
                
                    <g transform="matrix(0 -1 1 0 1.1335 3.4015)">
                        
                            
                                <path d="M4.245,2.268H0.29C0.13,2.268,0,2.138,0,1.977V0.29C0,0.13,0.13,0,0.29,0h3.955c0.16,0,0.29,0.13,0.29,0.29v1.687C4.535,2.138,4.405,2.268,4.245,2.268z" fill="#DCDCDC"/>
                                <g transform="matrix(-2.5352e-6 -1 1 -2.5352e-6 1.134 3.402)">
                                    
                                        <rect x="1.134" width="2.268" height="2.268" fill="#333"/>
                                    
                                </g>
                            
                        
                    </g>
                
            
        </g>
    </g>
</svg>
