<?xml version="1.0" encoding="UTF-8"?>
<!-- Generator: Adobe Illustrator 26.2.1, SVG Export Plug-In . SVG Version: 6.00 Build 0)  -->
<svg width=".70031in" height=".88904in" enable-background="new 0 0 50.4224 64.0107" version="1.1" viewBox="0 0 50.422 64.011" xml:space="preserve" xmlns="http://www.w3.org/2000/svg" xmlns:xml="http://www.w3.org/XML/1998/namespace">
    <desc>
        <referenceFile>QT Py ESP32 Pico rev B_breadboard.svg</referenceFile>
    </desc>
    <desc>Fritzing breadboard generated by brd2svg</desc>
    
        <path d="m49.005 17.354c0-0.7827 0.6345-1.4173 1.4173-1.4173v-4.3654c-0.7828 0-1.4173-0.6345-1.4173-1.4173 0-0.7629 0.6042-1.3805 1.3595-1.4115-0.431-3.5646-3.4614-6.3285-7.1422-6.3285h-36c-3.6808 0-6.7112 2.7639-7.1422 6.3285 0.7553 0.031 1.3596 0.6486 1.3596 1.4115 0 0.7828-0.6346 1.4173-1.4174 1.4173v4.3654c0.7828 0 1.4174 0.6346 1.4174 1.4173 0 0.7828-0.6346 1.4174-1.4174 1.4174v4.3654c0.7828 0 1.4174 0.6345 1.4174 1.4173s-0.6346 1.4174-1.4174 1.4174v4.3654c0.7828 0 1.4174 0.6345 1.4174 1.4173s-0.6346 1.4174-1.4174 1.4174v4.3653c0.7828 0 1.4174 0.6346 1.4174 1.4174s-0.6346 1.4173-1.4174 1.4173v4.3654c0.7828 0 1.4174 0.6346 1.4174 1.4174s-0.6346 1.4173-1.4174 1.4173v4.3654c0.7828 0 1.4174 0.6346 1.4174 1.4173 0 0.7629-0.6042 1.3805-1.3596 1.4115 0.431 3.5646 3.4614 6.3286 7.1422 6.3286h36c3.6808 0 6.7112-2.764 7.1422-6.3286-0.7553-0.031-1.3595-0.6486-1.3595-1.4115 0-0.7827 0.6345-1.4173 1.4173-1.4173v-4.3654c-0.7828 0-1.4173-0.6345-1.4173-1.4173s0.6345-1.4174 1.4173-1.4174v-4.3654c-0.7828 0-1.4173-0.6345-1.4173-1.4173s0.6345-1.4174 1.4173-1.4174v-4.3653c-0.7828 0-1.4173-0.6346-1.4173-1.4174s0.6345-1.4173 1.4173-1.4173v-4.3654c-0.7828 0-1.4173-0.6346-1.4173-1.4174s0.6345-1.4173 1.4173-1.4173v-4.3654c-0.7828 0-1.4173-0.6346-1.4173-1.4174zm-45.383 37.417c-0.7828 0-1.4174-0.6346-1.4174-1.4174 0-0.7827 0.6346-1.4173 1.4174-1.4173s1.4173 0.6346 1.4173 1.4173c0 0.7828-0.6345 1.4174-1.4173 1.4174zm0-7.2c-0.7828 0-1.4174-0.6345-1.4174-1.4173s0.6346-1.4174 1.4174-1.4174 1.4173 0.6346 1.4173 1.4174-0.6345 1.4173-1.4173 1.4173zm0-7.2c-0.7828 0-1.4174-0.6345-1.4174-1.4173s0.6346-1.4174 1.4174-1.4174 1.4173 0.6346 1.4173 1.4174-0.6345 1.4173-1.4173 1.4173zm0-7.2c-0.7828 0-1.4174-0.6346-1.4174-1.4174s0.6346-1.4173 1.4174-1.4173 1.4173 0.6345 1.4173 1.4173-0.6345 1.4174-1.4173 1.4174zm0-7.2c-0.7828 0-1.4174-0.6346-1.4174-1.4174s0.6346-1.4173 1.4174-1.4173 1.4173 0.6345 1.4173 1.4173-0.6345 1.4174-1.4173 1.4174zm0-7.2c-0.7828 0-1.4174-0.6346-1.4174-1.4174 0-0.7827 0.6346-1.4173 1.4174-1.4173s1.4173 0.6346 1.4173 1.4173c0 0.7828-0.6345 1.4174-1.4173 1.4174zm0-7.2c-0.7828 0-1.4174-0.6345-1.4174-1.4173s0.6346-1.4174 1.4174-1.4174 1.4173 0.6346 1.4173 1.4174-0.6345 1.4173-1.4173 1.4173zm10.205 7.1853c-1e-3 0.4697-0.3826 0.8495-0.8522 0.8485s-0.8495-0.3826-0.8485-0.8522c-1e-4 -0.0012-1e-4 -0.0024 0-0.0037 1e-3 -0.4697 0.3826-0.8495 0.8522-0.8485s0.8495 0.3826 0.8485 0.8522v0.0037zm0-11.849c-1e-3 0.4696-0.3826 0.8495-0.8522 0.8485s-0.8495-0.3826-0.8485-0.8522c-1e-4 -0.0013-1e-4 -0.0025 0-0.0037 1e-3 -0.4697 0.3826-0.8495 0.8522-0.8486 0.4697 1e-3 0.8495 0.3826 0.8485 0.8523v0.0037zm4.1245 10.432c-0.0011 0.5088-0.4144 0.9203-0.9233 0.9193-0.5088-1e-3 -0.9203-0.4144-0.9193-0.9232v-4e-3c0.0011-0.5088 0.4144-0.9203 0.9233-0.9193 0.5088 0.0011 0.9203 0.4144 0.9193 0.9232v4e-3zm16.384-1e-3c-9e-4 0.5089-0.4139 0.9207-0.9227 0.9198-0.5089-8e-4 -0.9207-0.4139-0.9198-0.9227v-0.0029c8e-4 -0.5089 0.4139-0.9207 0.9227-0.9198 0.5088 8e-4 0.9206 0.4139 0.9198 0.9227v0.0029zm3.9827 1.4185c-0.0011 0.4697-0.3828 0.8494-0.8524 0.8483-0.4697-0.0012-0.8495-0.3828-0.8483-0.8525v-0.0042c0.0011-0.4696 0.3828-0.8494 0.8524-0.8483 0.4697 0.0012 0.8495 0.3828 0.8483 0.8525v0.0042zm0-11.849c-0.0011 0.4697-0.3828 0.8495-0.8524 0.8483-0.4697-0.0011-0.8495-0.3828-0.8483-0.8524v-0.0041c0.0011-0.4697 0.3828-0.8495 0.8524-0.8483s0.8495 0.3828 0.8483 0.8525v4e-3zm8.504 47.863c-0.7828 0-1.4174-0.6346-1.4174-1.4174 0-0.7827 0.6346-1.4173 1.4174-1.4173s1.4173 0.6346 1.4173 1.4173c0 0.7828-0.6345 1.4174-1.4173 1.4174zm0-7.2c-0.7828 0-1.4174-0.6345-1.4174-1.4173s0.6346-1.4174 1.4174-1.4174 1.4173 0.6346 1.4173 1.4174-0.6345 1.4173-1.4173 1.4173zm0-7.2c-0.7828 0-1.4174-0.6345-1.4174-1.4173s0.6346-1.4174 1.4174-1.4174 1.4173 0.6346 1.4173 1.4174-0.6345 1.4173-1.4173 1.4173zm0-7.2c-0.7828 0-1.4174-0.6346-1.4174-1.4174s0.6346-1.4173 1.4174-1.4173 1.4173 0.6345 1.4173 1.4173-0.6345 1.4174-1.4173 1.4174zm0-7.2c-0.7828 0-1.4174-0.6346-1.4174-1.4174s0.6346-1.4173 1.4174-1.4173 1.4173 0.6345 1.4173 1.4173-0.6345 1.4174-1.4173 1.4174zm0-7.2c-0.7828 0-1.4174-0.6346-1.4174-1.4174 0-0.7827 0.6346-1.4173 1.4174-1.4173s1.4173 0.6346 1.4173 1.4173c0 0.7828-0.6345 1.4174-1.4173 1.4174zm0-7.2c-0.7828 0-1.4174-0.6345-1.4174-1.4173s0.6346-1.4174 1.4174-1.4174 1.4173 0.6346 1.4173 1.4174-0.6345 1.4173-1.4173 1.4173z" fill="#5E0393"/>
        <path d="m40.727 28.984v19.941c0 0.4697 0.3807 0.8504 0.8504 0.8504h8.8225v-2.2033c-0.7828 0-1.4174-0.6346-1.4174-1.4173 0-0.7828 0.6346-1.4174 1.4174-1.4174v-4.3654c-0.7828 0-1.4174-0.6345-1.4174-1.4173s0.6346-1.4174 1.4174-1.4174v-4.3654c-0.7828 0-1.4174-0.6345-1.4174-1.4173s0.6346-1.4173 1.4174-1.4173v-2.2037h-8.8225c-0.4697 2e-4 -0.8504 0.381-0.8504 0.8506zm3.303 19.791c-0.0645 0.1543-0.1387 0.2783-0.2246 0.3721l-0.4795-0.3613c0.0635-0.0674 0.1152-0.1445 0.1543-0.2324 0.0381-0.0879 0.0576-0.1777 0.0576-0.2686 0-0.085-0.0254-0.1572-0.0762-0.2158s-0.1211-0.0879-0.2119-0.0879c-0.0938 0-0.167 0.0352-0.2217 0.1055s-0.1133 0.1729-0.1738 0.3076c-0.0381 0.0859-0.0791 0.165-0.124 0.2402-0.0459 0.0752-0.1006 0.1406-0.1641 0.1982-0.0645 0.0566-0.1387 0.1016-0.2246 0.1338-0.085 0.0322-0.1865 0.0488-0.3037 0.0488-0.1572 0-0.293-0.0293-0.4062-0.0859-0.1133-0.0576-0.2061-0.1318-0.2773-0.2246-0.0723-0.0918-0.126-0.1953-0.1602-0.3076-0.0352-0.1133-0.0527-0.2266-0.0527-0.3408 0-0.1709 0.0254-0.3232 0.0762-0.458 0.0498-0.1348 0.1191-0.248 0.2061-0.3389l0.4707 0.3652c-0.0566 0.0527-0.0996 0.1143-0.1309 0.1846-0.0303 0.0703-0.0459 0.1436-0.0459 0.2207 0 0.0791 0.0234 0.1494 0.0684 0.2129 0.0459 0.0635 0.1201 0.0947 0.2246 0.0947 0.0879 0 0.1572-0.0322 0.2061-0.0967 0.0498-0.0645 0.1035-0.1602 0.1621-0.2861 0.0322-0.0713 0.0703-0.1455 0.1143-0.2236s0.0986-0.1504 0.1621-0.2148c0.0645-0.0654 0.1416-0.1191 0.2305-0.1621 0.0898-0.042 0.1963-0.0635 0.3184-0.0635 0.1523 0 0.2871 0.0264 0.4033 0.0791 0.1162 0.0537 0.2119 0.125 0.2881 0.2148s0.1338 0.1943 0.1729 0.3125c0.0381 0.1172 0.0576 0.2393 0.0576 0.3652-3e-4 0.1885-0.0325 0.3594-0.096 0.5127zm-0.0147-2.2753c-0.0732 0.1475-0.1758 0.2744-0.3076 0.3799-0.1318 0.1064-0.2891 0.1885-0.4717 0.2471s-0.3838 0.0879-0.6025 0.0879c-0.2207 0-0.4238-0.0293-0.6074-0.0879-0.1846-0.0586-0.3418-0.1406-0.4727-0.2471-0.1299-0.1055-0.2314-0.2324-0.3037-0.3799-0.0723-0.1484-0.1084-0.3135-0.1084-0.4951 0-0.208 0.0342-0.3818 0.1025-0.5215s0.1523-0.252 0.2539-0.3369l0.4639 0.3789c-0.0635 0.0527-0.1143 0.1123-0.1523 0.1777-0.0371 0.0664-0.0557 0.1494-0.0557 0.249 0 0.0938 0.0225 0.1748 0.0684 0.2441 0.0449 0.0684 0.1074 0.127 0.1855 0.1758 0.0791 0.0488 0.1719 0.084 0.2803 0.1074s0.2236 0.0352 0.3457 0.0352c0.123 0 0.2373-0.0117 0.3447-0.0352 0.1064-0.0234 0.1992-0.0586 0.2793-0.1074s0.1426-0.1074 0.1885-0.1777c0.0449-0.0713 0.0674-0.1533 0.0674-0.2471s-0.0205-0.1758-0.0635-0.2461-0.0938-0.126-0.1523-0.167l0.4443-0.3916c0.1094 0.085 0.2002 0.1963 0.2734 0.334 0.0742 0.1377 0.1104 0.3145 0.1104 0.5283 0 0.1817-0.0361 0.3467-0.1104 0.4952zm-2.7978-2.8282v-0.7871l1.2959 0.8008 1.5361-0.8496v0.8145l-1.3154 0.6641v0.0137h1.3154v0.708h-2.832v-0.708h1.1807v-0.0137l-1.1807-0.6427zm0-4.8203v-0.9414h2.832v0.6904l-1.9434-0.0264v0.0176l1.9434 0.5244v0.4971l-1.9434 0.5059v0.0127l1.9434-0.0215v0.6377h-2.832v-0.8887l1.8242-0.502v-0.0176l-1.8242-0.4882zm0-6.4804v-0.9414h2.832v0.6904l-1.9434-0.0264v0.0176l1.9434 0.5244v0.4971l-1.9434 0.5059v0.0127l1.9434-0.0215v0.6377h-2.832v-0.8887l1.8242-0.502v-0.0176l-1.8242-0.4882zm2.832 4.4853v0.708h-2.832v-0.708h2.832zm2.7504-6.5185c0.7828 0 1.4174 0.6345 1.4174 1.4173s-0.6346 1.4173-1.4174 1.4173c-0.7827 0-1.4173-0.6345-1.4173-1.4173s0.6346-1.4173 1.4173-1.4173zm0 7.2c0.7828 0 1.4174 0.6346 1.4174 1.4174s-0.6346 1.4173-1.4174 1.4173c-0.7827 0-1.4173-0.6345-1.4173-1.4173s0.6346-1.4174 1.4173-1.4174zm0 7.2c0.7828 0 1.4174 0.6346 1.4174 1.4174 0 0.7827-0.6346 1.4173-1.4174 1.4173-0.7827 0-1.4173-0.6346-1.4173-1.4173 0-0.7828 0.6346-1.4174 1.4173-1.4174zm-4.1742-15.927c0.2236 0 0.4287 0.0273 0.6143 0.083s0.3428 0.1357 0.4736 0.2383 0.2324 0.2275 0.3037 0.376c0.0723 0.1484 0.1084 0.3145 0.1084 0.499 0 0.1855-0.0361 0.3516-0.1084 0.5-0.0713 0.1475-0.1729 0.2734-0.3037 0.376s-0.2881 0.1816-0.4736 0.2373-0.3906 0.084-0.6143 0.084-0.4268-0.0273-0.6104-0.082c-0.1826-0.0537-0.3379-0.1318-0.4678-0.2354-0.1289-0.1025-0.2295-0.2275-0.2998-0.376-0.0703-0.1475-0.1064-0.3154-0.1064-0.5039 0-0.1846 0.0361-0.3506 0.1064-0.499s0.1709-0.2734 0.2998-0.376c0.1299-0.1025 0.2852-0.1826 0.4678-0.2383 0.1836-0.0557 0.3868-0.083 0.6104-0.083zm-1.5381-24.277h-0.2607v-0.6612h0.2607c0.0449 0 0.0908 0.0049 0.1357 0.0142 0.0449 0.0098 0.0859 0.0264 0.1221 0.0493 0.0371 0.0234 0.0654 0.0552 0.0869 0.0957 0.0205 0.0405 0.0312 0.0938 0.0312 0.1597 0 0.1235-0.0391 0.2114-0.1182 0.2637-0.078 0.0522-0.1639 0.0786-0.2577 0.0786zm-0.2949 11.377h3.2568v-0.915c0-0.2334-0.0381-0.4346-0.1152-0.6055-0.0762-0.1699-0.1846-0.3096-0.3262-0.4209-0.1406-0.1104-0.3115-0.1924-0.5107-0.2461-0.1992-0.0527-0.4219-0.0801-0.667-0.0801-0.251 0-0.4775 0.0273-0.6787 0.0801-0.2002 0.0537-0.3721 0.1357-0.5146 0.2461-0.1426 0.1113-0.252 0.251-0.3291 0.4209-0.0762 0.1709-0.1152 0.3721-0.1152 0.6055v0.915zm0.6445-0.9248c0-0.1777 0.083-0.3223 0.25-0.4346 0.168-0.1113 0.415-0.168 0.7432-0.168 0.3164 0 0.5576 0.0566 0.7246 0.168 0.167 0.1123 0.251 0.2568 0.251 0.4346v0.1797h-1.9688v-0.1797zm-35.816-9.7851c-0.0361-0.1124-0.0547-0.2359-0.0547-0.3711 0-0.1318 0.0186-0.2524 0.0547-0.3628 0.0371-0.1104 0.0869-0.2031 0.1514-0.2783s0.1416-0.1343 0.2324-0.1768 0.1885-0.064 0.292-0.064c0.1045 0 0.2012 0.0215 0.29 0.064s0.166 0.1016 0.2324 0.1768 0.1172 0.168 0.1543 0.2783c0.0361 0.1104 0.0547 0.231 0.0547 0.3628 0 0.1353-0.0186 0.2588-0.0547 0.3711-0.0371 0.1123-0.0879 0.2085-0.1543 0.29-0.0664 0.0811-0.1436 0.144-0.2324 0.1885s-0.1855 0.0664-0.29 0.0664c-0.1035 0-0.2012-0.022-0.292-0.0664s-0.168-0.1074-0.2324-0.1885c-0.0645-0.0816-0.1143-0.1777-0.1514-0.29zm8.397 17.423c-0.0752-0.1162-0.168-0.2061-0.2764-0.27-0.1094-0.0635-0.2314-0.0952-0.3682-0.0952-0.1377 0-0.2617 0.0317-0.3711 0.0952-0.1084 0.064-0.2012 0.1538-0.2764 0.27-0.0762 0.1167-0.1338 0.2568-0.1738 0.4214s-0.0596 0.3472-0.0596 0.5488 0.0205 0.3857 0.0615 0.5527 0.0996 0.3091 0.1748 0.4268 0.168 0.2085 0.2773 0.2734c0.1084 0.0649 0.2314 0.0972 0.3672 0.0972 0.1367 0 0.2588-0.0322 0.3682-0.0972 0.1084-0.0649 0.2012-0.1558 0.2764-0.2734 0.0762-0.1177 0.1348-0.2598 0.1758-0.4268s0.0615-0.3511 0.0615-0.5527-0.0205-0.3843-0.0615-0.5488-0.0996-0.3047-0.1757-0.4214zm-0.3174 1.2798c-0.0146 0.0962-0.0371 0.1792-0.0664 0.2485-0.0293 0.0698-0.0654 0.125-0.1084 0.1655-0.043 0.041-0.0938 0.0615-0.1523 0.0615-0.0576 0-0.1094-0.0205-0.1533-0.0615-0.0449-0.0405-0.0811-0.0957-0.1104-0.1655-0.0293-0.0693-0.0508-0.1523-0.0654-0.2485-0.0137-0.0957-0.0205-0.1992-0.0205-0.3096s0.0068-0.2129 0.0205-0.3076c0.0146-0.0947 0.0361-0.1772 0.0654-0.2466 0.0293-0.0698 0.0654-0.124 0.1104-0.1641 0.0439-0.0396 0.0957-0.0591 0.1533-0.0591 0.0586 0 0.1094 0.0195 0.1523 0.0591 0.043 0.04 0.0791 0.0942 0.1084 0.1641 0.0293 0.0693 0.0518 0.1519 0.0664 0.2466 0.0156 0.0947 0.0234 0.1973 0.0234 0.3076s-0.0078 0.2139-0.0234 0.3096zm-13.314-16.589h11.837c-0.0692-0.123-0.1193-0.2576-0.1193-0.4089 0-0.4697 0.3807-0.8504 0.8504-0.8504s0.8504 0.3807 0.8504 0.8504c0 0.1512-0.0501 0.2858-0.1193 0.4089h23.029c-0.0692-0.123-0.1193-0.2576-0.1193-0.4089 0-0.4697 0.3807-0.8504 0.8504-0.8504s0.8504 0.3807 0.8504 0.8504c0 0.1512-0.0501 0.2858-0.1193 0.4089h11.837c-0.9599-2.8464-3.6431-4.899-6.8134-4.899h-36c-3.1705 0-5.8537 2.0526-6.8136 4.899zm43.56-3.8543 0.4014 1.1484 0.4023-1.1484h1.3359l-1.1797 2.2388v1.2065h-1.206v-1.2065l-1.1221-2.2388h1.3682zm-4.3574-0.6611h1.5869c0.1875 0 0.3721 0.0225 0.5527 0.0669 0.1816 0.0444 0.3428 0.1196 0.4854 0.2261 0.1436 0.1064 0.2578 0.2476 0.3447 0.4233 0.0869 0.1763 0.1309 0.3975 0.1309 0.6641 0 0.2554-0.043 0.4717-0.1279 0.6499-0.085 0.1777-0.1982 0.3228-0.3398 0.4346-0.1406 0.1123-0.3027 0.1934-0.4854 0.2437s-0.3692 0.0756-0.5606 0.0756h-0.3496v1.3223h-1.2373v-4.1065zm-31.231 0h3.0596v1.166h-0.9082v2.9404h-1.2432v-2.9404h-0.9082v-1.166zm-3.9561 1.1455c0.1045-0.2607 0.248-0.4854 0.4307-0.6729s0.3994-0.3325 0.6504-0.4351c0.25-0.1021 0.5215-0.1533 0.8135-0.1533 0.293 0 0.5625 0.0513 0.8096 0.1533 0.2471 0.1025 0.46 0.2446 0.6396 0.4263 0.1787 0.1822 0.3193 0.4004 0.4199 0.6558 0.1006 0.2549 0.1514 0.5332 0.1514 0.835 0 0.1162-0.0117 0.23-0.0342 0.3423s-0.0517 0.2153-0.0889 0.31c-0.0361 0.0952-0.0781 0.1802-0.125 0.2554-0.0468 0.0757-0.0927 0.1343-0.1377 0.1767v0.0234l0.584-0.0405v1.0845h-2.2861c-0.292 0-0.5605-0.0454-0.8037-0.1362-0.2442-0.0908-0.4531-0.2251-0.627-0.4033-0.1738-0.1777-0.3096-0.397-0.4072-0.6582-0.0967-0.2608-0.1455-0.5615-0.1455-0.9019 0-0.313 0.0518-0.6001 0.1562-0.8613zm37.425 26.272c-0.0439-0.0596-0.0664-0.1299-0.0664-0.209s0.0225-0.1475 0.0664-0.2061c0.0439-0.0596 0.1045-0.1084 0.1816-0.1475 0.0781-0.04 0.1689-0.0703 0.2744-0.0908s0.2197-0.0303 0.3418-0.0303c0.123 0 0.2373 0.0098 0.3438 0.0303 0.1074 0.0205 0.1992 0.0508 0.2764 0.0908 0.0771 0.0391 0.1387 0.0879 0.1836 0.1475 0.0459 0.0586 0.0684 0.127 0.0684 0.2061s-0.0225 0.1494-0.0684 0.209c-0.0449 0.0605-0.1064 0.1104-0.1836 0.1494-0.0771 0.04-0.1689 0.0693-0.2764 0.0889-0.1064 0.0186-0.2207 0.0283-0.3438 0.0283-0.1221 0-0.2363-0.0098-0.3418-0.0283-0.1055-0.0195-0.1963-0.0488-0.2744-0.0889-0.0771-0.0391-0.1376-0.0889-0.1816-0.1494zm-35.478-13.159v0.7676l3.2568-0.7861v-0.9248l-3.2568-0.791v0.7363l0.5933 0.1328v0.7314l-0.5933 0.1338zm1.1636-0.7822 1.3848 0.2764v0.0186l-1.3848 0.2616v-0.5566zm1.4678 35.668v-0.5986h-2.6314v-0.7217h2.6313v-0.5986h0.6255v1.9189h-0.6254zm-2.7002-18.918c0-0.2939 0.0684-0.5449 0.2046-0.7539 0.1362-0.21 0.3442-0.3477 0.623-0.415l0.166 0.7129c-0.1074 0.0273-0.1948 0.0742-0.2622 0.1416-0.0679 0.0674-0.1016 0.1602-0.1016 0.2783 0 0.0645 0.0122 0.1201 0.0371 0.167 0.0244 0.0479 0.0566 0.0869 0.0967 0.1191 0.0396 0.0322 0.085 0.0557 0.1353 0.0713 0.0508 0.0146 0.1021 0.0225 0.1543 0.0225 0.1411 0 0.2451-0.0449 0.313-0.1338 0.0674-0.0898 0.1011-0.209 0.1011-0.3574v-0.1816h0.543v0.2021c0 0.1348 0.0356 0.2383 0.1079 0.3115 0.0718 0.0723 0.1724 0.1084 0.3013 0.1084 0.083 0 0.1611-0.0264 0.2344-0.0781 0.0737-0.0527 0.1108-0.1357 0.1108-0.251 0-0.0977-0.0293-0.1738-0.0874-0.2275-0.0586-0.0537-0.1323-0.0947-0.2212-0.1211l0.1567-0.6934c0.1411 0.04 0.2603 0.0986 0.3589 0.1748 0.0977 0.0752 0.1782 0.1621 0.2412 0.2578s0.1089 0.2012 0.1382 0.3164c0.0288 0.1143 0.0435 0.2305 0.0435 0.3486 0 0.1318-0.0181 0.2588-0.0552 0.3828-0.0366 0.123-0.0918 0.2334-0.1655 0.3311s-0.1655 0.1758-0.2759 0.2354c-0.1104 0.0586-0.2393 0.0889-0.3867 0.0889-0.1899 0-0.3501-0.0449-0.4805-0.1348-0.1304-0.0889-0.2168-0.208-0.2598-0.3564h-0.0142c-0.043 0.1719-0.1318 0.3086-0.2666 0.4102-0.1348 0.1006-0.2915 0.1514-0.4692 0.1514-0.1655 0-0.311-0.0293-0.437-0.0889-0.1255-0.0586-0.2324-0.1387-0.3198-0.2402-0.0874-0.1006-0.1533-0.2197-0.1978-0.3564s-0.0664-0.2844-0.0664-0.4426zm0.0688-14.611h2.4014l-0.3682-0.4873 0.5703-0.3262 0.6533 0.8916v0.6445h-3.2568v-0.7226zm3.2568 7.6954c-0.0459 0.1201-0.1104 0.2217-0.1934 0.3066-0.0825 0.084-0.1841 0.1494-0.3037 0.1953-0.1191 0.0459-0.2529 0.0684-0.3999 0.0684-0.1074 0-0.207-0.0137-0.2988-0.041-0.0923-0.0273-0.1797-0.0645-0.2622-0.1104-0.083-0.0459-0.1626-0.0986-0.2393-0.1562-0.0767-0.0586-0.1504-0.1182-0.2212-0.1797l-0.7036-0.6074v1.0537h-0.6347v-1.9277h0.6533l1.1363 0.9892c0.0918 0.0801 0.186 0.1426 0.2827 0.1885s0.1894 0.0693 0.2783 0.0693c0.0952 0 0.1763-0.0225 0.2437-0.0664 0.0674-0.0449 0.1016-0.1143 0.1016-0.21 0-0.0889-0.0361-0.1621-0.1084-0.2207-0.0718-0.0586-0.1772-0.0938-0.3149-0.1055l0.0645-0.6904c0.3311 0.0371 0.5786 0.1494 0.7427 0.3379 0.1641 0.1895 0.2461 0.4229 0.2461 0.7021-2e-4 0.1505-0.0232 0.2852-0.0691 0.4044zm-3.2568-2.2178v0.7676l3.2568-0.7861v-0.9248l-3.2568-0.791v0.7363l0.5933 0.1328v0.7314l-0.5933 0.1338zm1.1636-0.7822 1.3848 0.2764v0.0186l-1.3848 0.2616v-0.5566zm4.1889-0.7818h-0.6865v2.5488h0.7617c0.082 0 0.1631-0.0127 0.2441-0.0376 0.0811-0.0254 0.1543-0.0664 0.2188-0.1226 0.0645-0.0566 0.1172-0.1309 0.1572-0.2231s0.0596-0.207 0.0596-0.3438c0-0.0889-0.0107-0.168-0.0322-0.2378-0.0215-0.0693-0.0498-0.1289-0.084-0.1782s-0.0732-0.0894-0.1162-0.1206c-0.0439-0.0312-0.0869-0.0527-0.1299-0.0649v-0.0068c0.0801-0.041 0.1475-0.1064 0.2021-0.1963 0.0557-0.0898 0.083-0.2104 0.083-0.3618 0-0.1367-0.0225-0.2485-0.0664-0.335-0.0449-0.0864-0.0996-0.1528-0.165-0.1997-0.0664-0.0469-0.1396-0.0786-0.2188-0.0952-0.08-0.0171-0.1562-0.0254-0.2275-0.0254zm-0.2041 0.4751h0.1758c0.0664 0 0.125 0.0205 0.1748 0.0615 0.0498 0.0415 0.0742 0.1113 0.0742 0.2104 0 0.1016-0.0254 0.1738-0.0762 0.2173s-0.1074 0.0654-0.1699 0.0654h-0.1787v-0.5546zm0.4668 1.2944c0 0.1011-0.0264 0.1772-0.0791 0.228s-0.1172 0.0762-0.1934 0.0762h-0.1943v-0.623h0.1885c0.0322 0 0.0654 0.0063 0.0986 0.0181 0.0332 0.0122 0.0635 0.0312 0.0908 0.0562 0.0273 0.0254 0.0488 0.0581 0.0645 0.0981 0.0166 0.0395 0.0244 0.0883 0.0244 0.1464zm-3.1372 28.135-0.7524 0.335 0.7524 0.3389v0.6318l-1.1762-0.6201-1.3018 0.6777v-0.666l0.8188-0.377-0.8188-0.374v-0.6426l1.2983 0.6699 1.1797-0.6162v0.6426zm6.7183-29.878c-0.1094-0.0635-0.2314-0.0952-0.3682-0.0952-0.1377 0-0.2617 0.0317-0.3711 0.0952-0.1084 0.064-0.2012 0.1538-0.2764 0.27-0.0762 0.1167-0.1338 0.2568-0.1738 0.4214s-0.0596 0.3472-0.0596 0.5488 0.0205 0.3857 0.0615 0.5527 0.0996 0.3091 0.1748 0.4268 0.168 0.2085 0.2773 0.2734c0.1084 0.0649 0.2314 0.0972 0.3672 0.0972 0.1367 0 0.2588-0.0322 0.3682-0.0972 0.1084-0.0649 0.2012-0.1558 0.2764-0.2734 0.0762-0.1177 0.1348-0.2598 0.1758-0.4268s0.0615-0.3511 0.0615-0.5527-0.0205-0.3843-0.0615-0.5488-0.0996-0.3047-0.1758-0.4214c-0.0751-0.1162-0.1679-0.2061-0.2763-0.27zm-0.041 1.5498c-0.0146 0.0962-0.0371 0.1792-0.0664 0.2485-0.0293 0.0698-0.0654 0.125-0.1084 0.1655-0.043 0.041-0.0938 0.0615-0.1523 0.0615-0.0576 0-0.1094-0.0205-0.1533-0.0615-0.0449-0.0405-0.0811-0.0957-0.1104-0.1655-0.0293-0.0693-0.0508-0.1523-0.0654-0.2485-0.0137-0.0957-0.0205-0.1992-0.0205-0.3096s0.0068-0.2129 0.0205-0.3076c0.0146-0.0947 0.0361-0.1772 0.0654-0.2466 0.0293-0.0698 0.0654-0.124 0.1104-0.1641 0.0439-0.0396 0.0957-0.0591 0.1533-0.0591 0.0586 0 0.1094 0.0195 0.1523 0.0591 0.043 0.04 0.0791 0.0942 0.1084 0.1641 0.0293 0.0693 0.0518 0.1519 0.0664 0.2466 0.0156 0.0947 0.0234 0.1973 0.0234 0.3076s-0.0078 0.2139-0.0234 0.3096zm-1.3648 22.306c0.0469-0.1025 0.1084-0.1855 0.1836-0.25 0.0762-0.0654 0.1602-0.1133 0.252-0.1445 0.0928-0.0312 0.1855-0.0469 0.2793-0.0469 0.1396 0 0.2637 0.0225 0.374 0.0684 0.1104 0.0449 0.2031 0.1074 0.2773 0.1855l-0.2988 0.4229c-0.043-0.0498-0.0928-0.0889-0.1504-0.1172-0.0576-0.0273-0.1182-0.041-0.1807-0.041-0.0645 0-0.123 0.0205-0.1748 0.0615-0.0508 0.041-0.0771 0.1084-0.0771 0.2021 0 0.0791 0.0264 0.1406 0.0791 0.1855 0.0527 0.0439 0.1309 0.0928 0.2344 0.1455 0.0576 0.0293 0.1191 0.0635 0.1826 0.1035 0.0645 0.0391 0.123 0.0879 0.1758 0.1455 0.0537 0.0576 0.0977 0.127 0.1328 0.207 0.0352 0.0811 0.0527 0.1768 0.0527 0.2871 0 0.1367-0.0225 0.2578-0.0654 0.3623-0.0439 0.1045-0.1025 0.1914-0.1758 0.2598-0.0742 0.0684-0.1592 0.1201-0.2559 0.1553-0.0957 0.0342-0.1963 0.0518-0.2988 0.0518-0.1533 0-0.2939-0.0283-0.4199-0.0859-0.1098-0.0502-0.1926-0.1111-0.2646-0.1761v0.1937h-1.2744v-2.5488h1.2314v0.5078h-0.6807v0.5h0.627v0.4756h-0.627v0.5469h0.7236v0.2416l0.2559-0.3745c0.0557 0.0576 0.1191 0.1035 0.1914 0.1387 0.0713 0.0352 0.1445 0.0518 0.2188 0.0518 0.0703 0 0.1289-0.0225 0.1768-0.0684 0.0479-0.0449 0.0723-0.1084 0.0723-0.1904 0-0.084-0.0293-0.1504-0.0869-0.2002-0.0576-0.0488-0.1416-0.1006-0.252-0.1562-0.0693-0.0332-0.1348-0.0703-0.1963-0.1113-0.0605-0.041-0.1152-0.0898-0.1621-0.1475-0.0459-0.0576-0.083-0.125-0.1094-0.2021-0.0264-0.0762-0.04-0.168-0.04-0.2734-1e-4 -0.1417 0.0234-0.2638 0.0702-0.3654zm-7.7905-15.119v0.8457l3.2568-0.8652v-1.0176l-3.2568-0.8701v0.8096l0.5933 0.1465v0.8047l-0.5933 0.1464zm1.1636-0.8594 1.3848 0.3027v0.0205l-1.3848 0.2891v-0.6123zm35.874-4.3467c0.0674-0.0605 0.1016-0.1455 0.1016-0.2529 0-0.0576-0.0127-0.1084-0.0371-0.1514s-0.0566-0.0791-0.0967-0.1084-0.085-0.0508-0.1357-0.0645-0.1016-0.0205-0.1543-0.0205c-0.1406 0-0.2451 0.041-0.3125 0.1221s-0.1016 0.1895-0.1016 0.3242v0.166h-0.543v-0.1846c0-0.1221-0.0352-0.2168-0.1074-0.2832-0.0723-0.0654-0.1729-0.0986-0.3018-0.0986-0.083 0-0.1611 0.0244-0.2344 0.0713-0.0732 0.0479-0.1104 0.124-0.1104 0.2275 0 0.0898 0.0293 0.1582 0.0869 0.207 0.0586 0.0498 0.1328 0.0859 0.2217 0.1104l-0.1572 0.6309c-0.1406-0.0371-0.2598-0.0898-0.3584-0.1592-0.0977-0.0684-0.1787-0.1465-0.2412-0.2344-0.0635-0.0869-0.1094-0.1836-0.1387-0.2871-0.0283-0.1045-0.043-0.21-0.043-0.3174 0-0.1201 0.0176-0.2354 0.0547-0.3477s0.0918-0.2119 0.166-0.3018c0.0732-0.0889 0.165-0.1602 0.2754-0.2139s0.2393-0.0801 0.3867-0.0801c0.1904 0 0.3506 0.041 0.4805 0.1221 0.1309 0.0811 0.2168 0.1895 0.2598 0.3242h0.0146c0.043-0.1562 0.1318-0.2803 0.2666-0.373 0.1348-0.0918 0.291-0.1377 0.4688-0.1377 0.166 0 0.3115 0.0273 0.4375 0.0801 0.125 0.0537 0.2324 0.127 0.3193 0.2188 0.0879 0.0918 0.1533 0.2002 0.1982 0.3242 0.0439 0.124 0.0664 0.2588 0.0664 0.4023 0 0.2676-0.0684 0.4961-0.2051 0.6855-0.1357 0.1904-0.3438 0.3164-0.623 0.3779l-0.166-0.6494c0.1075-0.0242 0.1954-0.0671 0.2628-0.1287zm-26.084 22.501v-2.0586h-0.4688v-0.4902h1.502v0.4902h-0.4688v2.0586h-0.5644zm-1.3149-26.058h1.3506v0.4897h-0.4209v2.0591h-0.5088v-2.0591h-0.4209v-0.4897zm0.1333 24.017v0.5h0.627v0.4756h-0.627v0.5469h0.7236v0.5186h-1.2744v-2.5488h1.2314v0.5078h-0.6806zm-3.6045 0.7022c0.0342-0.0527 0.0625-0.1162 0.084-0.1904 0.0215-0.0752 0.0322-0.1592 0.0322-0.2529 0-0.2539-0.0684-0.4453-0.2041-0.5732-0.1367-0.1289-0.3281-0.1934-0.5752-0.1934h-0.8154v2.5488h0.5547v-1.0146h0.1689l0.3408 1.0146h0.6064l-0.4346-1.1377c0.041-0.0137 0.082-0.0381 0.126-0.0713 0.043-0.0342 0.0811-0.0772 0.1163-0.1299zm-0.5401-0.1602c-0.0615 0.0518-0.1328 0.0771-0.2148 0.0771h-0.1689v-0.6445h0.1797c0.0342 0 0.0684 0.0049 0.1025 0.0127 0.0352 0.0088 0.0674 0.0244 0.0957 0.0488 0.0293 0.0244 0.0518 0.0566 0.0703 0.0967 0.0176 0.041 0.0273 0.0938 0.0273 0.1592 0 0.1152-0.0312 0.1982-0.0918 0.25zm-5.0673-8.2422h1.7119v0.1709c0 0.1709-0.0728 0.3096-0.2178 0.416-0.1455 0.1074-0.3608 0.1611-0.646 0.1611-0.2749 0-0.4849-0.0537-0.6304-0.1611-0.145-0.1064-0.2178-0.2451-0.2178-0.416v-0.1709zm37.213-19.064c0 0.2061-0.042 0.3887-0.125 0.5498-0.082 0.1611-0.1982 0.2979-0.3467 0.4092-0.1484 0.1123-0.3271 0.1982-0.5361 0.2578-0.208 0.0596-0.4404 0.0898-0.6943 0.0898-0.2549 0-0.4873-0.0303-0.6973-0.0898s-0.3906-0.1445-0.543-0.2549c-0.1514-0.1104-0.2686-0.2432-0.3516-0.3984-0.083-0.1543-0.124-0.3271-0.124-0.5176 0-0.2207 0.0371-0.4053 0.1123-0.5537 0.0752-0.1494 0.1699-0.2666 0.2832-0.3525l0.5381 0.4004c-0.1533 0.1113-0.2305 0.2617-0.2305 0.4531 0 0.1016 0.0273 0.1895 0.0811 0.2627 0.0537 0.0742 0.126 0.1357 0.2188 0.1855 0.0918 0.0488 0.1992 0.085 0.3213 0.1084 0.123 0.0234 0.2529 0.0342 0.3916 0.0342 0.1377 0 0.2686-0.0107 0.3906-0.0322 0.123-0.0215 0.2305-0.0557 0.3223-0.1035s0.165-0.1084 0.2207-0.1807 0.083-0.1602 0.083-0.2617c0-0.1104-0.0234-0.1973-0.0693-0.2588h-0.6074v0.3496h-0.6387v-0.9932h1.7334c0.0801 0.1035 0.1445 0.2295 0.1934 0.377s0.0741 0.3203 0.0741 0.5195zm-0.9482-10.698v-0.0088l-2.3828-0.4375v-0.8008l3.2568 0.8008v0.9336l-3.2568 0.7871v-0.833l2.3828-0.4414zm-0.3721 7.9795v-0.0137l-2.0107 0.0137v-0.6348h3.2568v0.7871l-1.9824 0.7539v0.0137l1.9824-0.0176v0.6572h-3.2568v-0.8096l2.0107-0.7499zm-34.237 24.241-1.2036 0.251v-0.5322l1.2036 0.2637v0.0175zm13.82 6.7578h-1.8794l0.2881 0.3818-0.4463 0.2549-0.5112-0.6982v-0.5039h2.5488v0.5654zm18.407-37.629h0.6396v1.0342l0.5615 0.0234c-0.0156-0.0371-0.0283-0.0791-0.0371-0.127-0.0088-0.0469-0.0137-0.0879-0.0137-0.1211 0-0.1475 0.0244-0.2783 0.0732-0.3936 0.0498-0.1152 0.1182-0.2119 0.207-0.29s0.1963-0.1377 0.3223-0.1797c0.126-0.041 0.2666-0.0615 0.4229-0.0615 0.1934 0 0.3613 0.0264 0.5039 0.0801s0.2627 0.1279 0.3594 0.2207c0.0957 0.0938 0.168 0.2031 0.2158 0.3291s0.0713 0.2598 0.0713 0.4004c0 0.248-0.0693 0.4648-0.207 0.6484-0.1377 0.1846-0.3467 0.3057-0.626 0.3633l-0.1973-0.6299c0.1074-0.0244 0.1992-0.0664 0.2754-0.127 0.0771-0.0596 0.1152-0.1387 0.1152-0.2363 0-0.1133-0.0469-0.1982-0.1406-0.2559-0.0928-0.0566-0.209-0.085-0.3467-0.085-0.1689 0-0.293 0.0469-0.373 0.1406-0.0791 0.0938-0.1191 0.2061-0.1191 0.3379 0 0.0957 0.0146 0.2051 0.0439 0.3291 0.0283 0.124 0.0615 0.2305 0.0986 0.3193l-1.8496-0.0684v-1.6511zm1.7119 42.772c-0.043-0.0557-0.0986-0.1045-0.166-0.1494-0.0674-0.0439-0.1484-0.0801-0.2441-0.1074-0.0947-0.0273-0.2021-0.041-0.3213-0.041-0.3252 0-0.5703 0.0869-0.7344 0.2607-0.1641 0.1748-0.2461 0.4199-0.2461 0.7344v1.042h3.2568v-0.708h-1.2969v-0.2158l1.2969-0.4355v-1.5195l-1.0762-0.4463 1.0762-0.4502v-0.7959l-1.7109 0.8096-1.5459-0.7412v0.7549l0.9893 0.4043-0.9893 0.4004v0.7686l1.5508-0.7363 1.6785 0.7878-1.4256 0.5442c-0.0186-0.052-0.0488-0.1057-0.0918-0.1604zm-0.2715 1.0312h-0.8242v-0.2305c0-0.043 0.0059-0.0859 0.0166-0.1309 0.0107-0.0439 0.0312-0.085 0.0625-0.1221 0.0303-0.0361 0.0713-0.0664 0.124-0.0898 0.0518-0.0225 0.1191-0.0342 0.2021-0.0342 0.1475 0 0.2539 0.0391 0.3193 0.1172 0.0664 0.0781 0.0996 0.1699 0.0996 0.2734v0.2169zm-22.464-4.8105c0-0.1709 0.0308-0.3125 0.0918-0.4268s0.1372-0.2061 0.2285-0.2754l0.4175 0.3096c-0.0576 0.043-0.103 0.0918-0.1367 0.1455-0.0337 0.0547-0.0503 0.1221-0.0503 0.2041 0 0.0762 0.0205 0.1436 0.061 0.1992 0.041 0.0566 0.0967 0.1045 0.1675 0.1445 0.0708 0.0391 0.1548 0.0684 0.252 0.0879s0.2012 0.0293 0.3115 0.0293 0.2139-0.0098 0.3096-0.0293c0.0962-0.0195 0.1802-0.0488 0.252-0.0879 0.0723-0.04 0.1284-0.0889 0.1694-0.1465 0.0405-0.0576 0.061-0.124 0.061-0.2012s-0.019-0.1436-0.0576-0.2012c-0.0381-0.0576-0.084-0.1035-0.1367-0.1377l0.3994-0.3203c0.0986 0.0703 0.1807 0.1611 0.2466 0.2744 0.0659 0.1123 0.0991 0.2568 0.0991 0.4316 0 0.1484-0.0332 0.2842-0.0991 0.4053s-0.1582 0.2246-0.2769 0.3105c-0.1191 0.0869-0.2607 0.1543-0.4248 0.2021-0.1646 0.0479-0.3452 0.0723-0.542 0.0723-0.1992 0-0.3813-0.0244-0.5474-0.0723-0.1655-0.0479-0.3071-0.1152-0.4248-0.2021-0.1172-0.0859-0.2085-0.1895-0.2734-0.3105s-0.0972-0.2567-0.0972-0.4051zm-13.327-37.327c0.1074 0.1387 0.2446 0.248 0.4121 0.3262 0.167 0.0781 0.3501 0.1318 0.5493 0.1611 0.1997 0.0293 0.3911 0.0439 0.5752 0.0439s0.3755-0.0146 0.5752-0.0439c0.1992-0.0293 0.3823-0.083 0.5493-0.1611 0.1675-0.0781 0.3047-0.1875 0.4121-0.3262 0.1069-0.1396 0.1606-0.3203 0.1606-0.541s-0.0537-0.4004-0.1606-0.54c-0.1074-0.1396-0.2446-0.249-0.4121-0.3271-0.167-0.0781-0.3501-0.1309-0.5493-0.1582-0.1997-0.0283-0.3911-0.042-0.5752-0.042s-0.3755 0.0137-0.5752 0.042c-0.1992 0.0273-0.3823 0.0801-0.5493 0.1582-0.1675 0.0781-0.3047 0.1875-0.4121 0.3271-0.1069 0.1396-0.1606 0.3193-0.1606 0.54s0.0537 0.4014 0.1606 0.541zm0.5913-0.7158c0.0688-0.043 0.1548-0.0762 0.2578-0.1006 0.1025-0.0254 0.2153-0.041 0.3379-0.0488s0.2393-0.0117 0.3496-0.0117c0.1074 0 0.2222 0.0039 0.3452 0.0117 0.1226 0.0078 0.2358 0.0234 0.3403 0.0488 0.104 0.0244 0.1909 0.0576 0.2598 0.1006s0.1035 0.1016 0.1035 0.1748c0 0.0733-0.0347 0.1318-0.1035 0.1748s-0.1558 0.0771-0.2598 0.1016c-0.1045 0.0244-0.2178 0.04-0.3403 0.0479-0.123 0.0078-0.2378 0.0117-0.3452 0.0117-0.1104 0-0.2271-0.0039-0.3496-0.0117s-0.2354-0.0234-0.3379-0.0479c-0.103-0.0244-0.189-0.0586-0.2578-0.1016s-0.1035-0.1015-0.1035-0.1748c0-0.0732 0.0347-0.1318 0.1035-0.1748zm-0.6831-1.5654v0.7676l3.2568-0.7861v-0.9249l-3.2568-0.791v0.7363l0.5933 0.1328v0.7314l-0.5933 0.1339zm1.1636-0.7823 1.3848 0.2764v0.0186l-1.3848 0.2617v-0.5567zm12.323 43.155h2.5488v0.5801h-2.5488v-0.5801zm23.338-28.599v-0.0088l-2.3828-0.4375v-0.8008l3.2568 0.8008v0.9336l-3.2568 0.7871v-0.833l2.3828-0.4414zm-33.503 25.535v-12.712c0-0.4697-0.3807-0.8504-0.8504-0.8504h-8.8225v2.1744c0.7828 0 1.4174 0.6346 1.4174 1.4174s-0.6346 1.4173-1.4174 1.4173v4.3654c0.7828 0 1.4174 0.6346 1.4174 1.4174 0 0.7827-0.6346 1.4173-1.4174 1.4173v2.2033h8.8225c0.4697-1e-4 0.8504-0.3808 0.8504-0.8505zm-3.3025-12.678c0.064-0.1543 0.1387-0.2783 0.2241-0.3721l0.48 0.3613c-0.064 0.0674-0.1157 0.1445-0.1543 0.2324s-0.0576 0.1777-0.0576 0.2686c0 0.085 0.0249 0.1572 0.0757 0.2158 0.0508 0.0587 0.1216 0.088 0.2119 0.088 0.0938 0 0.1675-0.0352 0.2222-0.1055s0.1128-0.1729 0.1738-0.3076c0.0376-0.0859 0.0786-0.165 0.124-0.2402s0.1001-0.1406 0.1641-0.1982c0.064-0.0566 0.1387-0.1016 0.2241-0.1338s0.1865-0.0488 0.3042-0.0488c0.1572 0 0.2925 0.0293 0.4058 0.0859 0.1133 0.0576 0.2061 0.1318 0.2778 0.2246 0.0723 0.0918 0.1255 0.1953 0.1602 0.3076 0.0347 0.1133 0.0522 0.2266 0.0522 0.3408 0 0.1709-0.0254 0.3232-0.0757 0.458s-0.1191 0.248-0.2065 0.3389l-0.4702-0.3652c0.0562-0.0527 0.0996-0.1143 0.1304-0.1846 0.0303-0.0703 0.0459-0.1436 0.0459-0.2207 0-0.0791-0.0229-0.1494-0.0684-0.2129s-0.1201-0.0948-0.2241-0.0948c-0.0884 0-0.1572 0.0322-0.2065 0.0967s-0.1035 0.1602-0.1621 0.2861c-0.0323 0.0713-0.0704 0.1455-0.1144 0.2237s-0.0981 0.1504-0.1621 0.2148c-0.0645 0.0654-0.1411 0.1191-0.2305 0.1621-0.0894 0.042-0.1958 0.0635-0.3184 0.0635-0.1523 0-0.2866-0.0264-0.4028-0.0791-0.1162-0.0537-0.2124-0.125-0.2886-0.2148s-0.1333-0.1943-0.1724-0.3125c-0.0386-0.1172-0.0581-0.2393-0.0581-0.3652 1e-4 -0.1886 0.0324-0.3595 0.0963-0.5128zm-0.02 4.3672v-0.7041l2.832 0.7568v0.8848l-2.832 0.752v-0.7344l0.5161-0.1279v-0.6992l-0.5161-0.128zm2.7319-1.2295c-0.0664 0.1631-0.1621 0.2969-0.2861 0.4023s-0.2729 0.1846-0.4478 0.2354c-0.1748 0.0518-0.3716 0.0771-0.5898 0.0771-0.2134 0-0.4067-0.0254-0.5801-0.0771-0.1733-0.0508-0.3213-0.1299-0.4443-0.2354-0.1226-0.1055-0.2173-0.2393-0.2837-0.4023-0.0669-0.1631-0.1001-0.3555-0.1001-0.5791v-0.875h2.832v0.875c0 0.2237-0.0332 0.416-0.1001 0.5791zm-2.7119 4.4268c0.064-0.1543 0.1387-0.2783 0.2241-0.3721l0.48 0.3613c-0.064 0.0674-0.1157 0.1445-0.1543 0.2324s-0.0576 0.1777-0.0576 0.2686c0 0.085 0.0249 0.1572 0.0757 0.2158s0.1216 0.0879 0.2119 0.0879c0.0938 0 0.1675-0.0352 0.2222-0.1055s0.1128-0.1729 0.1738-0.3076c0.0376-0.0859 0.0786-0.165 0.124-0.2402s0.1001-0.1406 0.1641-0.1982c0.064-0.0566 0.1387-0.1016 0.2241-0.1338s0.1865-0.0488 0.3042-0.0488c0.1572 0 0.2925 0.0293 0.4058 0.0859 0.1133 0.0576 0.2061 0.1318 0.2778 0.2246 0.0723 0.0918 0.1255 0.1953 0.1602 0.3076 0.0347 0.1133 0.0522 0.2266 0.0522 0.3408 0 0.1709-0.0254 0.3232-0.0757 0.458s-0.1191 0.248-0.2065 0.3389l-0.4702-0.3652c0.0562-0.0527 0.0996-0.1143 0.1304-0.1846 0.0303-0.0703 0.0459-0.1436 0.0459-0.2207 0-0.0791-0.0229-0.1494-0.0684-0.2129s-0.1201-0.0947-0.2241-0.0947c-0.0884 0-0.1572 0.0322-0.2065 0.0967s-0.1035 0.1602-0.1621 0.2861c-0.0322 0.0713-0.0703 0.1455-0.1143 0.2236s-0.0981 0.1504-0.1621 0.2148c-0.0645 0.0654-0.1411 0.1191-0.2305 0.1621-0.0894 0.042-0.1958 0.0635-0.3184 0.0635-0.1523 0-0.2866-0.0264-0.4028-0.0791-0.1162-0.0537-0.2124-0.125-0.2886-0.2148s-0.1333-0.1943-0.1724-0.3125c-0.0386-0.1172-0.0581-0.2393-0.0581-0.3652 0-0.1885 0.0323-0.3594 0.0962-0.5127zm-2.7704 3.761c-0.7828 0-1.4174-0.6346-1.4174-1.4173 0-0.7828 0.6346-1.4174 1.4174-1.4174 0.7827 0 1.4173 0.6346 1.4173 1.4174 0 0.7827-0.6345 1.4173-1.4173 1.4173zm0-7.2c-0.7828 0-1.4174-0.6345-1.4174-1.4173s0.6347-1.4173 1.4174-1.4173 1.4173 0.6346 1.4173 1.4174-0.6345 1.4172-1.4173 1.4172zm2.7846 5.7144c0.0732-0.1475 0.1758-0.2744 0.3076-0.3799 0.1323-0.1064 0.2896-0.1885 0.4722-0.2471s0.3833-0.0879 0.6021-0.0879c0.2212 0 0.4238 0.0293 0.6079 0.0879s0.3413 0.1406 0.4722 0.2471c0.1304 0.1055 0.2319 0.2324 0.3037 0.3799 0.0723 0.1484 0.1084 0.3135 0.1084 0.4951 0 0.208-0.0342 0.3818-0.1021 0.5215-0.0684 0.1396-0.1528 0.252-0.2544 0.3369l-0.4639-0.3789c0.064-0.0527 0.1147-0.1123 0.1523-0.1777 0.0371-0.0664 0.0557-0.1494 0.0557-0.249 0-0.0938-0.0225-0.1748-0.0679-0.2441-0.0454-0.0684-0.1074-0.127-0.186-0.1758s-0.1719-0.084-0.2798-0.1074c-0.1084-0.0234-0.2236-0.0352-0.3462-0.0352s-0.2373 0.0117-0.3442 0.0352c-0.1064 0.0234-0.1997 0.0586-0.2798 0.1074s-0.1426 0.1074-0.188 0.1777c-0.0454 0.0713-0.0679 0.1533-0.0679 0.2471s0.021 0.1758 0.064 0.2461c0.0425 0.0703 0.0933 0.126 0.1519 0.167l-0.4438 0.3916c-0.1094-0.085-0.2007-0.1963-0.2739-0.334-0.0737-0.1377-0.1104-0.3145-0.1104-0.5283-1e-4 -0.1818 0.0366-0.3468 0.1103-0.4952zm0.5576 3.0088h-0.5918v-1.5439h2.832v0.7129h-2.2402v0.831zm15.444 2.7216h-0.5112l-0.8892-0.7744c-0.0718-0.0625-0.146-0.1113-0.2212-0.1475-0.0757-0.0361-0.1484-0.0537-0.2183-0.0537-0.0742 0-0.1377 0.0176-0.1904 0.0518-0.0527 0.0352-0.0791 0.0898-0.0791 0.1641 0 0.0693 0.0278 0.127 0.0845 0.1729 0.0562 0.0459 0.1387 0.0732 0.2466 0.083l-0.0503 0.54c-0.2593-0.0293-0.4531-0.1172-0.5815-0.2646s-0.1929-0.3311-0.1929-0.5498c0-0.1172 0.0181-0.2227 0.0542-0.3164s0.0864-0.1729 0.1514-0.2393c0.0645-0.0664 0.144-0.1172 0.2373-0.1533 0.0938-0.0361 0.1982-0.0537 0.3135-0.0537 0.084 0 0.1621 0.0107 0.2339 0.0322s0.1406 0.0508 0.2051 0.0869c0.0649 0.0352 0.1274 0.0762 0.1875 0.1221s0.1177 0.0928 0.1729 0.1406l0.5508 0.4746v-0.8242h0.4966v1.5087z" fill="#fff"/>
        
            
                
                    <line x1="33.646" x2="33.646" y1="26.426" y2="23.546" fill="none" stroke="#fff" stroke-linecap="round" stroke-width=".864"/>
                
            
            
                
                    <line x1="36.634" x2="39.514" y1="33.302" y2="33.302" fill="none" stroke="#fff" stroke-linecap="round" stroke-width=".864"/>
                
            
            
                
                    <line x1="29.65" x2="29.65" y1="42.878" y2="39.998" fill="none" stroke="#fff" stroke-linecap="round" stroke-width=".864"/>
                
            
            
                <g fill="none" stroke="#fff" stroke-linecap="round" stroke-width=".432">
                    <line x1="22.91" x2="22.91" y1="54.88" y2="47.51"/>
                    <line x1="22.91" x2="26.029" y1="47.51" y2="47.51"/>
                    <line x1="36.8" x2="40.202" y1="47.51" y2="47.51"/>
                    <line x1="40.202" x2="40.202" y1="47.51" y2="54.88"/>
                    <line x1="25.462" x2="37.367" y1="59.699" y2="59.699"/>
                </g>
            
            
                <g fill="none" stroke="#fff" stroke-linecap="round" stroke-width=".432">
                    <line x1="34.871" x2="39.406" y1="38.707" y2="38.707"/>
                    <line x1="39.123" x2="37.564" y1="41.258" y2="41.258"/>
                    <line x1="34.871" x2="39.406" y1="43.809" y2="43.809"/>
                </g>
            
            
                <g fill="none" stroke="#fff" stroke-linecap="round" stroke-width=".576">
                    <line x1="23.255" x2="11.35" y1="34.098" y2="34.098"/>
                    <line x1="11.35" x2="23.255" y1="25.45" y2="25.45"/>
                </g>
            
            
                <g fill="none" stroke="#fff" stroke-linecap="round" stroke-width=".576">
                    <line x1="23.255" x2="11.35" y1="45.258" y2="45.258"/>
                    <line x1="11.35" x2="23.255" y1="36.61" y2="36.61"/>
                </g>
            
            
                
                    <line x1="20.722" x2="20.722" y1="23.222" y2="24.662" fill="none" stroke="#fff" stroke-linecap="round" stroke-width=".576"/>
                
            
            
                
                    <line x1="26.302" x2="26.302" y1="23.726" y2="25.166" fill="none" stroke="#fff" stroke-linecap="round" stroke-width=".576"/>
                
            
            
                <g fill="none" stroke="#fff" stroke-linecap="round" stroke-width=".576">
                    <line x1="35.624" x2="35.624" y1="35.39" y2="30.854"/>
                    <line x1="26.269" x2="26.269" y1="35.39" y2="30.854"/>
                    <line x1="32.08" x2="29.812" y1="36.099" y2="36.099"/>
                </g>
            
            
                <g fill="none" stroke="#fff" stroke-linecap="round" stroke-width=".576">
                    <line x1="19.966" x2="6.3592" y1="60.36" y2="60.36"/>
                    <line x1="6.3592" x2="6.3592" y1="60.36" y2="54.124"/>
                    <line x1="6.3592" x2="19.966" y1="54.124" y2="54.124"/>
                    <line x1="19.966" x2="19.966" y1="54.124" y2="60.36"/>
                </g>
            
            
                <g fill="none" stroke="#fff" stroke-linecap="round" stroke-width=".288">
                    <line x1="37.893" x2="37.893" y1="10.873" y2="14.7"/>
                    <line x1="12.552" x2="12.552" y1="14.7" y2="10.873"/>
                    <line x1="12.552" x2="37.893" y1="-.4658" y2="-.4658"/>
                    <line x1="37.893" x2="37.893" y1="-.4658" y2="3.3609"/>
                    <line x1="12.552" x2="12.552" y1="3.3609" y2="-.4658"/>
                </g>
            
        
        <g transform="matrix(-1 0 0 -1 76.234 50.904)">
            
                
                    <rect id="connector5pin" x="38.137" y="23.792" width="3.515" height="4.252" fill="#9A916C"/>
                
            
        </g>
        <g transform="matrix(-1 0 0 -1 65.462 50.904)">
            
                
                    <rect id="connector6pin" x="32.751" y="23.792" width="3.515" height="4.252" fill="#9A916C"/>
                
            
        </g>
        <g transform="matrix(0 -1 1 0 3.3911 76.313)">
            
                
                    <g transform="matrix(-2.5352e-6 -1 1 -2.5352e-6 5.6348 75.001)">
                        
                            <rect id="connector7pin" x="38.192" y="32.926" width="4.252" height="3.515" fill="#9A916C"/>
                        
                    </g>
                
            
        </g>
        <g transform="matrix(0 -1 1 0 8.7769 70.927)">
            
                
                    <g transform="matrix(-2.5352e-6 -1 1 -2.5352e-6 11.021 69.616)">
                        
                            <rect id="connector8pin" x="38.192" y="27.54" width="4.252" height="3.515" fill="#9A916C"/>
                        
                    </g>
                
            
        </g>
        <g transform="matrix(-1 0 0 -1 68.242 83.808)">
            
                
                    <rect id="connector9pin" x="34.141" y="40.244" width="3.515" height="4.252" fill="#9A916C"/>
                
            
        </g>
        <g transform="matrix(-1 0 0 -1 57.47 83.808)">
            
                
                    <rect id="connector10pin" x="28.755" y="40.244" width="3.515" height="4.252" fill="#9A916C"/>
                
            
        </g>
        <g transform="matrix(0 -1 1 0 -18.186 76.066)">
            
                
                    <g transform="matrix(-2.5352e-6 -1 1 -2.5352e-6 -15.942 74.754)">
                        
                            <rect id="connector11pin" x="28.697" y="43.151" width="1.4173" height="4.3937" fill="#9A916C"/>
                        
                    </g>
                
            
        </g>
        <g transform="matrix(0 -1 1 0 -15.351 78.9)">
            
                
                    <g transform="matrix(-2.5352e-6 -1 1 -2.5352e-6 -13.108 77.589)">
                        
                            <rect id="connector12pin" x="31.532" y="43.151" width="1.4173" height="4.3937" fill="#9A916C"/>
                        
                    </g>
                
            
        </g>
        <g transform="matrix(0 -1 1 0 -12.516 81.735)">
            
                
                    <g transform="matrix(-2.5352e-6 -1 1 -2.5352e-6 -10.273 80.423)">
                        
                            <rect id="connector13pin" x="34.366" y="43.151" width="1.4173" height="4.3937" fill="#9A916C"/>
                        
                    </g>
                
            
        </g>
        <g transform="matrix(0 -1 1 0 -9.6818 84.57)">
            
                
                    <g transform="matrix(-2.5352e-6 -1 1 -2.5352e-6 -7.4381 83.258)">
                        
                            <rect id="connector14pin" x="37.201" y="43.151" width="1.4173" height="4.3937" fill="#9A916C"/>
                        
                    </g>
                
            
        </g>
        <g transform="matrix(0 -1 1 0 -32.926 83.436)">
            
                
                    <g transform="matrix(-2.5352e-6 -1 1 -2.5352e-6 -30.682 82.124)">
                        
                            <rect id="connector15pin" x="24.02" y="53.852" width="3.4016" height="5.1024" fill="#9A916C"/>
                        
                    </g>
                
            
        </g>
        <g transform="matrix(0 -1 1 0 -17.052 99.31)">
            
                
                    <g transform="matrix(-2.5352e-6 -1 1 -2.5352e-6 -14.808 97.998)">
                        
                            <rect id="connector16pin" x="39.894" y="53.852" width="3.4016" height="5.1024" fill="#9A916C"/>
                        
                    </g>
                
            
        </g>
        <circle id="connector17pin" cx="3.6224" cy="10.154" r="1.9687" fill="none" stroke="#9A916C" stroke-width="1.1027"/>
        <circle id="connector19pin" cx="3.6224" cy="17.354" r="1.9687" fill="none" stroke="#9A916C" stroke-width="1.1027"/>
        <circle id="connector21pin" cx="3.6224" cy="24.554" r="1.9687" fill="none" stroke="#9A916C" stroke-width="1.1027"/>
        <circle id="connector23pin" cx="3.6224" cy="31.754" r="1.9687" fill="none" stroke="#9A916C" stroke-width="1.1027"/>
        <circle id="connector25pin" cx="3.6224" cy="38.954" r="1.9687" fill="none" stroke="#9A916C" stroke-width="1.1027"/>
        <circle id="connector27pin" cx="3.6224" cy="46.154" r="1.9687" fill="none" stroke="#9A916C" stroke-width="1.1027"/>
        <circle id="connector29pin" cx="3.6224" cy="53.354" r="1.9687" fill="none" stroke="#9A916C" stroke-width="1.1027"/>
        <circle id="connector31pin" cx="46.822" cy="53.354" r="1.9687" fill="none" stroke="#9A916C" stroke-width="1.1027"/>
        <circle id="connector33pin" cx="46.822" cy="46.154" r="1.9687" fill="none" stroke="#9A916C" stroke-width="1.1027"/>
        <circle id="connector35pin" cx="46.822" cy="38.954" r="1.9687" fill="none" stroke="#9A916C" stroke-width="1.1027"/>
        <circle id="connector37pin" cx="46.822" cy="31.754" r="1.9687" fill="none" stroke="#9A916C" stroke-width="1.1027"/>
        <circle id="connector39pin" cx="46.822" cy="24.554" r="1.9687" fill="none" stroke="#9A916C" stroke-width="1.1027"/>
        <circle id="connector41pin" cx="46.822" cy="17.354" r="1.9687" fill="none" stroke="#9A916C" stroke-width="1.1027"/>
        <circle id="connector43pin" cx="46.822" cy="10.154" r="1.9687" fill="none" stroke="#9A916C" stroke-width="1.1027"/>
        <rect id="connector45pin" x="35.012" y="41.825" width="1.4173" height="1.4173" fill="#9A916C"/>
        <rect id="connector46pin" x="37.847" y="41.825" width="1.4173" height="1.4173" fill="#9A916C"/>
        <rect id="connector47pin" x="37.847" y="39.274" width="1.4173" height="1.4173" fill="#9A916C"/>
        <rect id="connector48pin" x="35.012" y="39.274" width="1.4173" height="1.4173" fill="#9A916C"/>
        <g transform="matrix(-1 0 0 -1 26.538 65.015)">
            
                
                    <rect id="connector49pin" x="13.771" y="31.698" width="2.5512" height="2.5512" fill="#9A916C"/>
                
            
        </g>
        <g transform="matrix(-1 0 0 -1 49.782 65.015)">
            
                
                    <rect id="connector50pin" x="25.393" y="31.698" width="2.5512" height="2.5512" fill="#9A916C"/>
                
            
        </g>
        <g transform="matrix(-1 0 0 -1 26.538 55.945)">
            
                
                    <rect id="connector51pin" x="13.771" y="27.162" width="2.5512" height="2.5512" fill="#9A916C"/>
                
            
        </g>
        <g transform="matrix(-1 0 0 -1 49.782 55.945)">
            
                
                    <rect id="connector52pin" x="25.393" y="27.162" width="2.5512" height="2.5512" fill="#9A916C"/>
                
            
        </g>
        <g transform="matrix(-1 0 0 -1 26.538 87.335)">
            
                
                    <rect id="connector53pin" x="13.771" y="42.858" width="2.5512" height="2.5512" fill="#9A916C"/>
                
            
        </g>
        <g transform="matrix(-1 0 0 -1 49.782 87.335)">
            
                
                    <rect id="connector54pin" x="25.393" y="42.858" width="2.5512" height="2.5512" fill="#9A916C"/>
                
            
        </g>
        <g transform="matrix(-1 0 0 -1 26.538 78.265)">
            
                
                    <rect id="connector55pin" x="13.771" y="38.322" width="2.5512" height="2.5512" fill="#9A916C"/>
                
            
        </g>
        <g transform="matrix(-1 0 0 -1 49.782 78.265)">
            
                
                    <rect id="connector56pin" x="25.393" y="38.322" width="2.5512" height="2.5512" fill="#9A916C"/>
                
            
        </g>
        <rect id="connector57pin" x="18.432" y="23.092" width="1.7008" height="1.7008" fill="#9A916C"/>
        <rect id="connector58pin" x="21.312" y="23.092" width="1.7008" height="1.7008" fill="#9A916C"/>
        <rect id="connector59pin" x="24.012" y="23.596" width="1.7008" height="1.7008" fill="#9A916C"/>
        <rect id="connector60pin" x="26.892" y="23.596" width="1.7008" height="1.7008" fill="#9A916C"/>
        <path id="connector61pin" d="m17.59 4.4168c0.7828 0 1.4173 0.6346 1.4173 1.4173 0 0.7828-0.6346 1.4173-1.4173 1.4173-0.7828 0-1.4173-0.6346-1.4173-1.4173s0.6345-1.4173 1.4173-1.4173z" fill="#9A916C"/>
        <path id="connector62pin" d="m28.822 57.661c0.7828 0 1.4173 0.6346 1.4173 1.4173 0 0.7828-0.6346 1.4173-1.4173 1.4173-0.7828 0-1.4173-0.6346-1.4173-1.4173 0-0.7828 0.6345-1.4173 1.4173-1.4173z" fill="#9A916C"/>
        <g transform="matrix(-1 0 0 -1 70.834 59.805)">
            
                
                    <rect id="connector63pin" x="36.415" y="28.668" width="1.5591" height="3.4016" fill="#9A916C"/>
                
            
        </g>
        <g transform="matrix(-1 0 0 -1 65.448 59.805)">
            
                
                    <rect id="connector64pin" x="33.722" y="28.668" width="1.5591" height="3.4016" fill="#9A916C"/>
                
            
        </g>
        <g transform="matrix(-1 0 0 -1 60.062 59.805)">
            
                
                    <rect id="connector65pin" x="31.029" y="28.668" width="1.559" height="3.4016" fill="#9A916C"/>
                
            
        </g>
        <g transform="matrix(-1 0 0 -1 60.062 74.547)">
            
                
                    <rect id="connector66pin" x="31.029" y="36.038" width="1.559" height="3.4016" fill="#9A916C"/>
                
            
        </g>
        <g transform="matrix(-1 0 0 -1 70.834 74.547)">
            
                
                    <rect id="connector67pin" x="36.415" y="36.038" width="1.5591" height="3.4016" fill="#9A916C"/>
                
            
        </g>
        <g transform="matrix(-1 0 0 -1 37.817 115.42)">
            
                
                    <rect id="connector68pin" x="18.418" y="55.623" width="4.5354" height="5.1024" fill="#9A916C"/>
                
            
        </g>
        <g transform="matrix(-1 0 0 -1 21.943 115.42)">
            
                
                    <rect id="connector69pin" x="10.481" y="55.623" width="4.5354" height="5.1024" fill="#9A916C"/>
                
            
        </g>
        <g transform="matrix(-1 0 0 -1 72.142 41.698)">
            
                
                    <rect id="connector70pin" x="37.034" y="19.685" width="1.6299" height="3.2598" fill="#9A916C"/>
                
            
        </g>
        <g transform="matrix(-1 0 0 -1 67.606 41.698)">
            
                
                    <rect id="connector71pin" x="34.766" y="19.685" width="1.6299" height="3.2598" fill="#9A916C"/>
                
            
        </g>
        <g transform="matrix(-1 0 0 -1 61.087 41.698)">
            
                
                    <rect id="connector72pin" x="31.931" y="19.685" width=".7795" height="3.2598" fill="#9A916C"/>
                
            
        </g>
        <g transform="matrix(-1 0 0 -1 55.417 41.698)">
            
                
                    <rect id="connector73pin" x="29.096" y="19.685" width=".7795" height="3.2598" fill="#9A916C"/>
                
            
        </g>
        <g transform="matrix(-1 0 0 -1 52.583 41.698)">
            
                
                    <rect id="connector74pin" x="27.679" y="19.685" width=".7795" height="3.2598" fill="#9A916C"/>
                
            
        </g>
        <g transform="matrix(-1 0 0 -1 46.913 41.698)">
            
                
                    <rect id="connector75pin" x="24.844" y="19.685" width=".7795" height="3.2598" fill="#9A916C"/>
                
            
        </g>
        <g transform="matrix(-1 0 0 -1 35.858 41.698)">
            
                
                    <rect id="connector76pin" x="18.892" y="19.685" width="1.6299" height="3.2598" fill="#9A916C"/>
                
            
        </g>
        <g transform="matrix(-1 0 0 -1 40.394 41.698)">
            
                
                    <rect id="connector77pin" x="21.16" y="19.685" width="1.6299" height="3.2598" fill="#9A916C"/>
                
            
        </g>
        <g transform="matrix(-1 0 0 -1 44.079 41.698)">
            
                
                    <rect id="connector78pin" x="23.427" y="19.685" width=".7795" height="3.2598" fill="#9A916C"/>
                
            
        </g>
        <g transform="matrix(-1 0 0 -1 49.748 41.698)">
            
                
                    <rect id="connector79pin" x="26.262" y="19.685" width=".7795" height="3.2598" fill="#9A916C"/>
                
            
        </g>
        <g transform="matrix(-1 0 0 -1 58.252 41.698)">
            
                
                    <rect id="connector80pin" x="30.514" y="19.685" width=".7795" height="3.2598" fill="#9A916C"/>
                
            
        </g>
        <g transform="matrix(-1 0 0 -1 63.921 41.698)">
            
                
                    <rect id="connector81pin" x="33.348" y="19.685" width=".7795" height="3.2598" fill="#9A916C"/>
                
            
        </g>
        <circle id="connector82pin" cx="37.468" cy="18.753" r="1.2104" fill="none" stroke="#9A916C" stroke-width=".72"/>
        <path d="m36.258 15.969h2.4208v5.5678h-2.4208v-5.5678m0 2.7839c0 0.6685 0.5419 1.2104 1.2104 1.2104s1.2104-0.5419 1.2104-1.2104-0.5419-1.2104-1.2104-1.2104-1.2104 0.5419-1.2104 1.2104z" fill="#9A916C"/>
        <circle id="connector83pin" cx="12.977" cy="18.753" r="1.2104" fill="none" stroke="#9A916C" stroke-width=".72"/>
        <path d="m11.766 15.969h2.4208v5.5678h-2.4208v-5.5678m0 2.7839c0 0.6685 0.5419 1.2104 1.2104 1.2104s1.2104-0.5419 1.2104-1.2104-0.5419-1.2104-1.2104-1.2104-1.2104 0.5419-1.2104 1.2104z" fill="#9A916C"/>
        <circle id="connector84pin" cx="37.468" cy="6.9042" r="1.2104" fill="none" stroke="#9A916C" stroke-width=".72"/>
        <path d="m36.258 4.1203h2.4208v5.5678h-2.4208v-5.5678m0 2.7839c0 0.6685 0.5419 1.2104 1.2104 1.2104s1.2104-0.5419 1.2104-1.2104-0.5419-1.2104-1.2104-1.2104-1.2104 0.5419-1.2104 1.2104z" fill="#9A916C"/>
        <circle id="connector85pin" cx="12.977" cy="6.9042" r="1.2104" fill="none" stroke="#9A916C" stroke-width=".72"/>
        <path d="m11.766 4.1203h2.4208v5.5678h-2.4208v-5.5678m0 2.7839c0 0.6685 0.5419 1.2104 1.2104 1.2104s1.2104-0.5419 1.2104-1.2104-0.5419-1.2104-1.2104-1.2104-1.2104 0.5419-1.2104 1.2104z" fill="#9A916C"/>
        <g transform="translate(32.59 23.68)">
            
                
                    <g transform="matrix(-1 0 0 -1 5.669 3.543)">
                        
                            
                                <path d="m7.1636 4.0088h-5.103c-0.156 0-0.283-0.127-0.283-0.283v-2.977c0-0.156 0.127-0.283 0.283-0.283h5.102c0.157 0 0.283 0.127 0.283 0.283v2.977c1e-3 0.156-0.126 0.283-0.282 0.283z" fill="#DCDCDC"/>
                                <rect x="2.8406" y=".4658" width="3.543" height="3.543" fill="#6E554B"/>
                            
                        
                    </g>
                
            
        </g>
        <g transform="translate(37.018 31.996)">
            
                
                    <g transform="matrix(0 -1 1 0 1.063 4.606)">
                        
                            
                                <path d="m5.8518 1.7654h-5.103c-0.156 0-0.283-0.127-0.283-0.283v-2.977c0-0.156 0.127-0.283 0.283-0.283h5.102c0.157 0 0.283 0.127 0.283 0.283v2.977c1e-3 0.156-0.126 0.283-0.282 0.283z" fill="#DCDCDC"/>
                                <g transform="matrix(-2.5352e-6 -1 1 -2.5352e-6 3.3065 3.2942)">
                                    
                                        <rect x="1.5288" y="-1.7776" width="3.543" height="3.543" fill="#6E554B"/>
                                    
                                </g>
                            
                        
                    </g>
                
            
        </g>
        <g transform="translate(28.594 40.132)">
            
                
                    <g transform="matrix(-1 0 0 -1 5.669 3.543)">
                        
                            
                                <path d="m7.1636 4.0088h-5.103c-0.156 0-0.283-0.127-0.283-0.283v-2.977c0-0.156 0.127-0.283 0.283-0.283h5.102c0.157 0 0.283 0.127 0.283 0.283v2.977c1e-3 0.156-0.126 0.283-0.282 0.283z" fill="#DCDCDC"/>
                                <rect x="2.8406" y=".4658" width="3.543" height="3.543" fill="#6E554B"/>
                            
                        
                    </g>
                
            
        </g>
        <g transform="translate(24.592 45.93)">
            
                
                    <path d="m-0.1776 1.9342h14.2v1.4h1.4v10h-17v-10h1.4v-1.4z" fill="#9C8F6D" nodetypes="ccccccccc"/>
                    <g transform="matrix(1 -.0068 .0068 1 -.0462 .0853)">
                        
                            <rect x="11.823" y="4.6346" width="1.4" height="4.4001"/>
                        
                    </g>
                    <g transform="matrix(1 -.0068 .0068 1 -.0471 .0085)">
                        
                            <rect x=".5227" y="4.7342" width="1.4" height="4.4001"/>
                        
                    </g>
                    <g transform="matrix(1 -.0068 .0068 1 -.0261 .0852)">
                        
                            <rect x="11.822" y="3.1344" width="1.4" height="1.5" fill="#807C73"/>
                        
                    </g>
                    <g transform="matrix(1 -.0068 .0068 1 -.0271 .0084)">
                        
                            <rect x=".5224" y="3.234" width="1.4" height="1.5" fill="#807C73"/>
                        
                    </g>
                    <g transform="matrix(1 -.0068 .0068 1 -.0088 .0757)">
                        
                            <rect x="10.622" y="-.4659" width="1" height="3.6001" fill="#DCDCDC"/>
                        
                    </g>
                    <g transform="matrix(1 -.0068 .0068 1 -.0089 .0566)">
                        
                            <rect x="7.8223" y="-.4662" width="1" height="3.6001" fill="#DCDCDC"/>
                        
                    
                    
                        
                            <rect x="7.8223" y="-.4662" width="1" height="3.6001" fill="#DCDCDC"/>
                        
                    </g>
                    <g transform="matrix(1 -.0068 .0068 1 -.0089 .0369)">
                        
                            <rect x="4.9221" y="-.4658" width="1" height="3.6001" fill="#DCDCDC"/>
                        
                    </g>
                    <g transform="matrix(1 -.0068 .0068 1 -.0097 .0179)">
                        
                            <rect x="2.1226" y="-.3661" width="1" height="3.6001" fill="#DCDCDC"/>
                        
                    </g>
                    <path d="m-1.5776 8.4341v-5-0.1h1.4v-0.7-0.7h2.2v0.3 0.7 0.3h0.2 0.5 0.3v-1.3h1.8v0.2 0.7 0.4h1v-0.7-0.6h1.8v0.1 0.1s0 0.3 0 0.5v0.5h1v-1.4h0.9 0.9s0 0.3 0 0.6v0.6h0.3 0.5 0.2v-1.2h2.4v1.4h1.4v1.7 5 3.4h-3.3-8.5-5.3l0.3-4.8zm3.5 0.4001v-4.9-0.6l-0.7-0.1h-0.7s0 4.3 0 5.1v0.7h0.7 0.7v-0.2zm11.4 0.1999v-5.7-0.1h-0.7-0.7s0 1.9 0 4.6v1.2h0.7 0.7z"/>
                    <path d="m0.5224 4.6342v-0.7-0.6h0.1 1 0.4v0.5 0.7 0.2h-0.8l-0.7-0.1z"/>
                    <path d="m11.822 4.4342v-0.7-0.6h0.1 0.7 0.6v0.1 0.7 0.6h-1.4v-0.1z"/>
                    <ellipse cx=".2224" cy="15.734" rx="2" ry="2"/>
                    <ellipse cx="4.7224" cy="15.734" rx="2" ry="2" fill="#f00"/>
                    <ellipse cx="9.3224" cy="15.734" rx="2" ry="2" fill="#00f"/>
                    <ellipse cx="13.822" cy="15.734" rx="2" ry="2" fill="#ff0"/>
                
            
        </g>
        <g transform="translate(36.648 39.456)">
            
                
                    
                        
                            <rect x="-1.7776" y="-.4658" width="4.5352" height="4.5352" fill="#9C8F6D"/>
                            <rect x="-1.4376" y=".4414" width="2.7216" height="2.7216" fill="#807C73"/>
                        
                        <circle cx="-.4119" cy="1.2923" r=".4678" fill="#f00"/>
                        <circle cx="-.3742" cy="2.3185" r=".4678" fill="#0f0"/>
                        <circle cx=".5615" cy="1.7978" r=".4678" fill="#00f"/>
                    
                
            
        </g>
        <g transform="translate(12.702 25.988)">
            
                
                    <g transform="matrix(-1 0 0 -1 12.756 8.504)">
                        
                            
                                
                                    <polygon points="14.534 3.1578 14.534 1.7408 13.117 1.7408 13.117 0.4658 3.1946 0.4658 3.1946 1.7408 1.7776 1.7408 1.7776 3.1578 3.1946 3.1578 3.1946 6.2768 1.7776 6.2768 1.7776 7.6939 3.1946 7.6939 3.1946 8.9698 13.117 8.9698 13.117 7.6939 14.534 7.6939 14.534 6.2768 13.117 6.2768 13.117 3.1578" fill="#DCDCDC"/>
                                    <circle cx="8.1556" cy="4.7178" r="2.48" fill="#1E1E1E"/>
                                    <rect x="2.7696" y=".4658" width=".567" height="8.504" fill="#B4B4B4"/>
                                    <rect x="12.975" y=".4658" width=".567" height="8.504" fill="#B4B4B4"/>
                                
                            
                        
                    </g>
                
            
        </g>
        <g transform="translate(12.702 37.148)">
            
                
                    <g transform="matrix(-1 0 0 -1 12.756 8.504)">
                        
                            
                                
                                    <polygon points="14.534 3.1578 14.534 1.7408 13.117 1.7408 13.117 0.4658 3.1946 0.4658 3.1946 1.7408 1.7776 1.7408 1.7776 3.1578 3.1946 3.1578 3.1946 6.2768 1.7776 6.2768 1.7776 7.6939 3.1946 7.6939 3.1946 8.9698 13.117 8.9698 13.117 7.6939 14.534 7.6939 14.534 6.2768 13.117 6.2768 13.117 3.1578" fill="#DCDCDC"/>
                                    <circle cx="8.1556" cy="4.7178" r="2.48" fill="#1E1E1E"/>
                                    <rect x="2.7696" y=".4658" width=".567" height="8.504" fill="#B4B4B4"/>
                                    <rect x="12.975" y=".4658" width=".567" height="8.504" fill="#B4B4B4"/>
                                
                            
                        
                    </g>
                
            
        </g>
        <g transform="translate(21.082 23.7)">
            
                
                    <path d="m0.7734 0.9512h-2.268c-0.156 0-0.283-0.127-0.283-0.283v-0.85c0-0.157 0.127-0.284 0.283-0.284h2.268c0.157 0 0.283 0.127 0.283 0.283v0.85c1e-3 0.157-0.126 0.284-0.283 0.284z" fill="#DCDCDC"/>
                    <rect x="-1.0686" y="-.4658" width="1.417" height="1.417" fill="#333"/>
                
            
        </g>
        <g transform="translate(26.662 24.204)">
            
                
                    <path d="m0.7734 0.9512h-2.268c-0.156 0-0.283-0.127-0.283-0.283v-0.85c0-0.157 0.127-0.284 0.283-0.284h2.268c0.157 0 0.283 0.127 0.283 0.283v0.85c1e-3 0.157-0.126 0.284-0.283 0.284z" fill="#DCDCDC"/>
                    <rect x="-1.0686" y="-.4658" width="1.417" height="1.417" fill="#333"/>
                
            
        </g>
        <g transform="translate(28.614 29.761)">
            
                
                    <g transform="matrix(-1 0 0 -1 8.22 7.654)">
                        
                            
                                
                                    <rect x="2.6276" y=".4658" width="1.134" height="7.654" fill="#DCDCDC"/>
                                    <rect x="8.0136" y=".4658" width="1.134" height="7.654" fill="#DCDCDC"/>
                                    <rect x="5.3206" y="5.0008" width="1.134" height="3.118" fill="#DCDCDC"/>
                                    <rect x="1.7776" y="2.0248" width="8.22" height="4.535" fill="#303030"/>
                                
                            
                        
                    </g>
                
            
        </g>
        <g transform="translate(10.121 55.44)">
            
                
                    <g transform="matrix(-1 0 0 -1 9.6378 4.5354)">
                        
                            
                                <g transform="translate(0 -837.35)">
                                    
                                        <g label="Layer 1">
                                            <rect x="1.7776" y="837.82" width="9.6378" height="4.5352" fill="#F2F2F2"/>
                                            <rect x="10.211" y="837.82" width="1.2047" height="4.5352" fill="#808080"/>
                                            <rect x="1.7776" y="837.82" width="1.2047" height="4.5352" fill="#808080"/>
                                            <rect x="3.9288" y="839.12" width="1.7996" height="1.8883" fill="#a40"/>
                                        </g>
                                    
                                </g>
                            
                        
                    </g>
                
            
        </g>
        <g transform="translate(14.329 .46585)">
            
                
                    <g transform="matrix(-1 0 0 -1 25.342 21.572)">
                        
                            
                                
                                    <rect x="1.7776" y="1.2028" width="25.342" height="20.835" fill="#DCDCDC"/>
                                    <path d="m5.2356 1.7698h-0.567v-1.304h0.567v1.304zm0.851-1.304h-0.567v1.304h0.567v-1.304zm1.417 0h-0.567v1.304h0.567v-1.304zm0.85 0h-0.567v1.304h0.567v-1.304zm1.418 0h-0.567v1.304h0.567v-1.304zm1.417 0h-0.567v1.304h0.567v-1.304zm1.417 0h-0.567v1.304h0.567v-1.304zm1.418 0h-0.567v1.304h0.567v-1.304zm1.417 0h-0.567v1.304h0.567v-1.304zm1.417 0h-0.567v1.304h0.567v-1.304zm1.418 0h-0.567v1.304h0.567v-1.304zm1.417 0h-0.567v1.304h0.567v-1.304zm1.417 0h-0.567v1.304h0.567v-1.304zm0.851 0h-0.567v1.304h0.567v-1.304zm1.417 0h-0.567v1.304h0.567v-1.304zm0.85 0h-0.567v1.304h0.567v-1.304z" fill="#DCDCDC"/>
                                    <rect x="3.8216" y="1.2028" width="1.297" height="20.835" fill="#F0F0F0"/>
                                    <rect x="23.778" y="1.2028" width="1.297" height="20.835" fill="#BEBEBE"/>
                                    <path d="m27.12 1.2028v1.998h-0.283c-0.344 0-0.624-0.279-0.624-0.624v-0.532c0-0.344-0.279-0.624-0.624-0.624h-2.831c-0.344 0-0.624 0.279-0.624 0.624v2.021c0 0.344-0.279 0.624-0.624 0.624h-3.413c-0.344 0-0.624-0.279-0.624-0.624v-0.047c0-0.344 0.279-0.624 0.624-0.624h1.536c0.344 0 0.624-0.279 0.624-0.624v-0.726c0-0.344-0.279-0.624-0.624-0.624h-10.37c-0.344 0-0.624 0.279-0.624 0.624v0.727c0 0.344 0.279 0.624 0.624 0.624h1.536c0.344 0 0.624 0.279 0.624 0.624v0.046c0 0.344-0.279 0.624-0.624 0.624h-3.413c-0.344 0-0.624-0.279-0.624-0.624v-2.021c0-0.344-0.279-0.624-0.624-0.624h-2.83c-0.344 0-0.624 0.279-0.624 0.624v0.533c0 0.344-0.279 0.624-0.624 0.624h-0.282v-1.999h25.342z" fill="#8C8C8C"/>
                                    <rect x="7.6676" y="7.0198" width="3.463" height="1.424" fill="#8C8C8C"/>
                                    <rect x="17.766" y="7.0205" width="3.463" height="1.424" fill="#8C8C8C"/>
                                
                            
                        
                    </g>
                
            
        </g>
    
</svg>
