<?xml version="1.0" encoding="UTF-8"?>
<!-- Generator: Adobe Illustrator 20.0.0, SVG Export Plug-In . SVG Version: 6.00 Build 0)  -->
<svg width="1.3386in" height=".80708in" baseProfile="tiny" version="1.2" viewBox="0 0 96.378 58.11" xml:space="preserve" xmlns="http://www.w3.org/2000/svg" xmlns:xml="http://www.w3.org/XML/1998/namespace">
    <desc>
        <referenceFile>Adafruit OLED Monochrome 128x32 I2C_breadboard.svg</referenceFile>
    </desc>
    <desc>Fritzing breadboard generated by brd2svg</desc>
    <g id="breadboard">
        <g id="icon">
            <path d="m0 52.441v-46.772c0-3.131 2.538-5.669 5.669-5.669h85.039c3.131 0 5.669 2.538 5.669 5.669v46.772c0 3.131-2.538 5.669-5.669 5.669h-85.039c-3.131 0-5.669-2.538-5.669-5.669m2.126 0c-3e-3 1.957 1.58 3.546 3.537 3.549s3.546-1.58 3.549-3.537v-0.012c3e-3 -1.957-1.58-3.546-3.537-3.549s-3.546 1.58-3.549 3.537v0.012zm0-46.772c-3e-3 1.957 1.58 3.546 3.537 3.549s3.546-1.58 3.549-3.537v-0.012c3e-3 -1.957-1.58-3.546-3.537-3.549s-3.546 1.58-3.549 3.537v0.012zm85.039 0c-3e-3 1.957 1.58 3.546 3.537 3.55 1.957 3e-3 3.546-1.58 3.55-3.537v-0.012c3e-3 -1.957-1.58-3.546-3.537-3.55-1.957-3e-3 -3.546 1.58-3.55 3.537v0.012zm0 46.772c-3e-3 1.957 1.58 3.546 3.537 3.55 1.957 3e-3 3.546-1.58 3.55-3.537v-0.012c3e-3 -1.957-1.58-3.546-3.537-3.55s-3.546 1.58-3.55 3.537v0.012zm-22.393-0.72c0 0.783 0.635 1.417 1.417 1.417s1.417-0.635 1.417-1.417-0.635-1.417-1.417-1.417-1.417 0.634-1.417 1.417zm-7.2 0c0 0.783 0.635 1.417 1.417 1.417s1.417-0.635 1.417-1.417-0.635-1.417-1.417-1.417-1.417 0.634-1.417 1.417zm-7.2 0c0 0.783 0.635 1.417 1.417 1.417 0.783 0 1.417-0.635 1.417-1.417s-0.635-1.417-1.417-1.417-1.417 0.634-1.417 1.417zm-7.2 0c0 0.783 0.635 1.417 1.417 1.417s1.417-0.635 1.417-1.417-0.635-1.417-1.417-1.417-1.417 0.634-1.417 1.417zm-7.2 0c0 0.783 0.635 1.417 1.417 1.417 0.783 0 1.417-0.635 1.417-1.417s-0.635-1.417-1.417-1.417-1.417 0.634-1.417 1.417zm-7.2 0c0 0.783 0.635 1.417 1.417 1.417 0.783 0 1.417-0.635 1.417-1.417 0-0.783-0.635-1.417-1.417-1.417-0.783 0-1.417 0.634-1.417 1.417z" fill="#014CB1"/>
            <g>
                <title>layer 21</title>
                <g>
                    <title>text:128x32 I2C OLED</title>
                    <g transform="translate(20.497 8.4529)">
                        
                            
                                <text fill="#FFFFFF" font-family="'OCRA'" font-size="3.7417">128x32 I2C OLED</text>
                            
                        
                    </g>
                </g>
                <g>
                    <title>text:VIN</title>
                    <g transform="translate(63.36 57.39)">
                        
                            
                                <text fill="#FFFFFF" font-family="'OCRA'" font-size="2.6726">VIN</text>
                            
                        
                    </g>
                </g>
                <g>
                    <title>text:3.3V</title>
                    <g transform="translate(55.08 48.75)">
                        
                            
                                <text fill="#FFFFFF" font-family="'OCRA'" font-size="2.6726">3.3V</text>
                            
                        
                    </g>
                </g>
                <g>
                    <title>text:GND</title>
                    <g transform="translate(48.6 57.39)">
                        
                            
                                <text fill="#FFFFFF" font-family="'OCRA'" font-size="2.6726">GND</text>
                            
                        
                    </g>
                </g>
                <g>
                    <title>text:RST</title>
                    <g transform="translate(41.76 48.75)">
                        
                            
                                <text fill="#FFFFFF" font-family="'OCRA'" font-size="2.6726">RST</text>
                            
                        
                    </g>
                </g>
                <g>
                    <title>text:SCL</title>
                    <g transform="translate(34.56 57.39)">
                        
                            
                                <text fill="#FFFFFF" font-family="'OCRA'" font-size="2.6726">SCL</text>
                            
                        
                    </g>
                </g>
                <g>
                    <title>text:SDA</title>
                    <g transform="translate(26.64 48.75)">
                        
                            
                                <text fill="#FFFFFF" font-family="'OCRA'" font-size="2.6726">SDA</text>
                            
                        
                    </g>
                </g>
                <g>
                    <title>element:C1</title>
                    <g>
                        <title>package:0805-NO</title>
                    </g>
                </g>
                <g>
                    <title>element:C2</title>
                    <g>
                        <title>package:0805-NO</title>
                    </g>
                </g>
                <g>
                    <title>element:C3</title>
                    <g>
                        <title>package:0805-NO</title>
                    </g>
                </g>
                <g>
                    <title>element:C4</title>
                    <g>
                        <title>package:0805-NO</title>
                    </g>
                </g>
                <g>
                    <title>element:C5</title>
                    <g>
                        <title>package:0805-NO</title>
                    </g>
                </g>
                <g>
                    <title>element:C6</title>
                    <g>
                        <title>package:0805-NO</title>
                    </g>
                </g>
                <g>
                    <title>element:C7</title>
                    <g>
                        <title>package:0805-NO</title>
                    </g>
                </g>
                <g>
                    <title>element:D1</title>
                    <g>
                        <title>package:SOD-323F</title>
                    </g>
                </g>
                <g>
                    <title>element:FID1</title>
                    <g>
                        <title>package:FIDUCIAL_1MM</title>
                    </g>
                </g>
                <g>
                    <title>element:FID2</title>
                    <g>
                        <title>package:FIDUCIAL_1MM</title>
                    </g>
                </g>
                <g>
                    <title>element:JP1</title>
                    <g>
                        <title>package:1X06_ROUND_70</title>
                    </g>
                </g>
                <g>
                    <title>element:LCD1</title>
                    <g>
                        <title>package:UG-2832HSWEG02_WRAPUNDER</title>
                        <line x1="90" x2="4.961" y1="12.798" y2="12.798" fill="none" stroke="#fff" stroke-linecap="round" stroke-width=".576"/>
                        <line x1="90" x2="90" y1="12.798" y2="44.901" fill="none" stroke="#fff" stroke-linecap="round" stroke-width=".576"/>
                        <line x1="90" x2="4.961" y1="44.901" y2="44.901" fill="none" stroke="#fff" stroke-linecap="round" stroke-width=".576"/>
                        <line x1="4.961" x2="4.961" y1="12.798" y2="44.901" fill="none" stroke="#fff" stroke-linecap="round" stroke-width=".576"/>
                    </g>
                </g>
                <g>
                    <title>element:Q1</title>
                    <g>
                        <title>package:SOT23-WIDE</title>
                    </g>
                </g>
                <g>
                    <title>element:Q2</title>
                    <g>
                        <title>package:SOT23-WIDE</title>
                    </g>
                </g>
                <g>
                    <title>element:R3</title>
                    <g>
                        <title>package:0805-NO</title>
                    </g>
                </g>
                <g>
                    <title>element:R4</title>
                    <g>
                        <title>package:0805-NO</title>
                    </g>
                </g>
                <g>
                    <title>element:R5</title>
                    <g>
                        <title>package:0805-NO</title>
                    </g>
                </g>
                <g>
                    <title>element:R7</title>
                    <g>
                        <title>package:0805-NO</title>
                    </g>
                </g>
                <g>
                    <title>element:R8</title>
                    <g>
                        <title>package:0805-NO</title>
                    </g>
                </g>
                <g>
                    <title>element:R9</title>
                    <g>
                        <title>package:0805-NO</title>
                    </g>
                </g>
                <g>
                    <title>element:U$16</title>
                    <g>
                        <title>package:ADAFRUIT_3.5MM</title>
                    </g>
                </g>
                <g>
                    <title>element:U1</title>
                    <g>
                        <title>package:SOT23-5</title>
                    </g>
                </g>
            </g>
            <circle id="connector5pin" cx="66.189" cy="51.721" r="1.969" fill="none" stroke="#9A916C" stroke-width="1.1027"/>
            <rect x="64.22" y="49.752" width="3.937" height="3.937" fill="none" stroke="#9A916C" stroke-width="1.1027"/>
            <circle id="connector6pin" cx="58.989" cy="51.721" r="1.969" fill="none" stroke="#9A916C" stroke-width="1.1027"/>
            <circle id="connector7pin" cx="51.789" cy="51.721" r="1.969" fill="none" stroke="#9A916C" stroke-width="1.1027"/>
            <circle id="connector8pin" cx="44.589" cy="51.721" r="1.969" fill="none" stroke="#9A916C" stroke-width="1.1027"/>
            <circle id="connector9pin" cx="37.389" cy="51.721" r="1.969" fill="none" stroke="#9A916C" stroke-width="1.1027"/>
            <circle id="connector10pin" cx="30.189" cy="51.721" r="1.969" fill="none" stroke="#9A916C" stroke-width="1.1027"/>
        </g>
        <g transform="translate(77.213 2.4843)">
            
                
                    
                        <g transform="matrix(0 -1 1 0 .001476 9.7785)">
                            
                                
                                    
                                        <path d="m10.706 3.375c-0.032-0.2-0.141-0.257-0.403-0.341-0.199-0.064-1.533-0.489-1.533-0.489s-0.93-0.351-1.619 0.146c-0.093 0.066-0.189 0.143-0.286 0.224 0.082-0.097 0.158-0.193 0.224-0.286 0.495-0.69 0.143-1.619 0.143-1.619s-0.427-1.334-0.492-1.533c-0.085-0.262-0.142-0.37-0.342-0.402s-0.288 0.054-0.449 0.277c-0.122 0.17-0.939 1.307-0.939 1.307s-0.621 0.777-0.361 1.586c0.034 0.109 0.077 0.224 0.125 0.341-0.067-0.108-0.135-0.209-0.203-0.302-0.503-0.684-1.496-0.636-1.496-0.636s-1.4-6e-3 -1.61-6e-3c-0.275-1e-3 -0.396 0.02-0.488 0.201-0.091 0.181-0.037 0.291 0.126 0.513 0.124 0.169 0.953 1.297 0.953 1.297s0.546 0.83 1.395 0.834c0.114 0 0.236-5e-3 0.362-0.014-0.122 0.03-0.24 0.064-0.348 0.1-0.806 0.267-1.067 1.226-1.067 1.226s-0.438 1.33-0.503 1.529c-0.086 0.261-0.103 0.383 0.04 0.526 0.144 0.143 0.265 0.126 0.526 0.04 0.199-0.065 1.528-0.506 1.528-0.506s0.958-0.263 1.224-1.07c0.036-0.108 0.069-0.225 0.1-0.348-9e-3 0.126-0.014 0.248-0.013 0.362 5e-3 0.849 0.836 1.394 0.836 1.394s1.13 0.827 1.298 0.951c0.223 0.162 0.333 0.216 0.514 0.124s0.201-0.213 0.2-0.488c-1e-3 -0.21-9e-3 -1.61-9e-3 -1.61s0.047-0.993-0.639-1.495c-0.092-0.067-0.194-0.135-0.301-0.202 0.117 0.047 0.232 0.09 0.34 0.124 0.81 0.258 1.584-0.364 1.584-0.364s1.136-0.819 1.306-0.941c0.223-0.161 0.309-0.249 0.277-0.45zm-4.822-1.031c0.152 0.024 0.228 0.349 0.169 0.726s-0.231 0.662-0.384 0.638-0.229-0.349-0.169-0.725c0.059-0.377 0.231-0.663 0.384-0.639zm-1.956 0.999c0.07-0.138 0.402-0.11 0.742 0.063s0.558 0.425 0.488 0.563-0.402 0.11-0.742-0.063-0.558-0.425-0.488-0.563zm1.031 1.878c-0.269 0.27-0.577 0.4-0.686 0.291s0.02-0.416 0.29-0.686c0.269-0.27 0.576-0.4 0.686-0.291 0.109 0.109-0.021 0.416-0.29 0.686zm1.484 0.633c-0.138 0.07-0.39-0.148-0.563-0.487-0.174-0.34-0.203-0.673-0.065-0.743s0.39 0.148 0.563 0.487c0.173 0.34 0.202 0.672 0.065 0.743zm0.357-1.573c-0.377 0.06-0.701-0.015-0.726-0.168-0.024-0.153 0.262-0.325 0.638-0.385 0.377-0.06 0.701 0.015 0.726 0.168 0.024 0.153-0.261 0.325-0.638 0.385z" fill="#DCDCDC"/>
                                    
                                
                            
                        </g>
                    
                
            
        </g>
    </g>
    
        <rect x="4.961" y="12.545" width="85.039" height="32.609" fill="#416699" stroke="#00f" stroke-miterlimit="10" stroke-width=".0318"/>
        <rect x="5.937" y="13.992" width="73.429" height="24.903" fill="#140A14"/>
        <rect x="10.917" y="18.502" width="63.435" height="15.85" fill="#333"/>
        <path d="M92.126,22.542h-3.09c-0.02-0.42-0.364-0.756-0.79-0.756h-7.115c-0.438,0-0.794,0.355-0.794,0.794v21.059c0,0.438,0.355,0.794,0.794,0.794h7.115c0.391,0,0.714-0.283,0.78-0.655h7.352V22.542H92.126z"/>
        <g transform="translate(21.796 28.85)">
            
                
                    <text fill="#FFFFFF" font-family="Noto Sans" font-size="5.6">128x32 OLED</text>
                
            
        </g>
    
</svg>
