<?xml version="1.0" encoding="UTF-8"?>
<!-- Generator: Adobe Illustrator 21.0.2, SVG Export Plug-In . SVG Version: 6.00 Build 0)  -->
<svg width="2.5591in" height="1.2071in" enable-background="new 0 0 184.252 86.911" version="1.1" viewBox="0 0 184.25 86.911" xml:space="preserve" xmlns="http://www.w3.org/2000/svg" xmlns:xml="http://www.w3.org/XML/1998/namespace">
    <desc>
        <referenceFile>Joy Bonnet rev A_breadboard.svg</referenceFile>
    </desc>
    <style type="text/css">
	.st0{fill:#F0F0F0;}
	.st1{fill:#0A0A0A;}
	.st2{fill:#9A916C;}
	.st3{fill:none;stroke:#9A916C;stroke-width:0.8504;}
	.st4{fill:#DCDCDC;}
	.st5{fill:#1E1E1E;}
	.st6{fill:#B4B4B4;}
	.st7{fill:#333333;}
	.st8{fill:#404040;stroke:#282828;}
	.st9{fill:none;stroke:#282828;stroke-linecap:round;}
	.st10{fill:#323232;stroke:#282828;stroke-linecap:round;}
</style>
    <desc>Fritzing breadboard generated by brd2svg</desc>
    <g id="breadboard">
        <g id="icon">
            <path class="st0" d="m184.25 78.407c0 4.697-3.807 8.504-8.504 8.504h-167.24c-4.696 0-8.504-3.807-8.504-8.504v-69.903c0-4.697 3.807-8.504 8.504-8.504h167.24c4.697 0 8.504 3.807 8.504 8.504v69.903m-171.02-18.919c-3e-3 1.252 1.011 2.27 2.263 2.272s2.27-1.011 2.272-2.263v-0.01c3e-3 -1.252-1.011-2.27-2.263-2.272s-2.27 1.011-2.272 2.263v0.01zm34.015-34.016c-2e-3 1.252 1.011 2.27 2.263 2.272s2.27-1.011 2.272-2.263v-9e-3c2e-3 -1.252-1.011-2.27-2.263-2.272s-2.27 1.011-2.272 2.263v9e-3zm123.11-15.551c-2e-3 2.192 1.773 3.97 3.965 3.972s3.97-1.773 3.972-3.965v-7e-3c2e-3 -2.192-1.773-3.97-3.965-3.972s-3.97 1.773-3.972 3.965v7e-3zm0 65.197c-2e-3 2.192 1.773 3.97 3.965 3.972s3.97-1.773 3.972-3.965v-7e-3c2e-3 -2.192-1.773-3.97-3.965-3.972s-3.97 1.773-3.972 3.965v7e-3zm-164.41 0c-4e-3 2.192 1.77 3.971 3.962 3.975s3.971-1.77 3.975-3.962v-0.013c3e-3 -2.192-1.77-3.971-3.962-3.975s-3.971 1.77-3.975 3.962v0.013zm0-65.197c-4e-3 2.192 1.77 3.971 3.962 3.975s3.971-1.77 3.975-3.962v-0.013c3e-3 -2.192-1.77-3.971-3.962-3.975s-3.971 1.77-3.975 3.962v0.013zm-0.228 32.559c0 0.704 0.57 1.276 1.275 1.276s1.276-0.57 1.276-1.275v-2e-3c0-0.704-0.571-1.276-1.276-1.276s-1.275 0.573-1.275 1.277zm0-5.669c0 0.704 0.57 1.276 1.275 1.276s1.276-0.57 1.276-1.275v-2e-3c0-0.704-0.571-1.276-1.276-1.276s-1.275 0.572-1.275 1.277zm0 11.338c0 0.704 0.57 1.276 1.275 1.276s1.276-0.57 1.276-1.275v-2e-3c0-0.704-0.571-1.276-1.276-1.276s-1.275 0.573-1.275 1.277zm25.512-31.181c0 0.704 0.571 1.276 1.276 1.276 0.704 0 1.276-0.571 1.276-1.276 0-0.704-0.571-1.276-1.276-1.276-0.705 1e-3 -1.276 0.572-1.276 1.276zm-5.67 0c0 0.704 0.571 1.276 1.276 1.276 0.704 0 1.276-0.571 1.276-1.276s-0.571-1.276-1.276-1.276c-0.705 1e-3 -1.276 0.572-1.276 1.276zm11.339 0c-1e-3 0.704 0.57 1.276 1.274 1.277s1.276-0.57 1.277-1.274v-3e-3c1e-3 -0.704-0.57-1.276-1.274-1.277s-1.276 0.57-1.277 1.274v3e-3z"/>
            <path d="m32.512 72.979c-16.85 0-30.558-13.708-30.558-30.557 0-16.85 13.708-30.558 30.558-30.558s30.558 13.708 30.558 30.557c0 16.85-13.708 30.558-30.558 30.558zm0-58.848c-15.599 0-28.29 12.691-28.29 28.29s12.691 28.29 28.29 28.29 28.29-12.69 28.29-28.29-12.691-28.29-28.29-28.29z"/>
            <path d="m95.755 53.859c-1.014 0-2.031-0.36-2.844-1.092-1.745-1.571-1.887-4.26-0.315-6.005l12.831-14.255c1.57-1.745 4.26-1.887 6.005-0.315 1.745 1.571 1.887 4.259 0.315 6.005l-12.831 14.255c-0.839 0.933-1.998 1.407-3.161 1.407z"/>
            <path d="m68.755 53.859c-1.014 0-2.03-0.36-2.843-1.092-1.745-1.57-1.887-4.259-0.315-6.005l12.831-14.255c1.57-1.745 4.259-1.887 6.005-0.315 1.745 1.571 1.887 4.259 0.315 6.005l-12.832 14.255c-0.839 0.933-1.998 1.407-3.161 1.407z"/>
            <path d="m184.25 19.398v37.523c-6.528 11.437-18.83 19.152-32.941 19.152-20.939 0-37.913-16.974-37.913-37.913s16.974-37.913 37.913-37.913c7.739 0 14.925 2.332 20.922 6.314-1.119 0.701-1.87 1.935-1.871 3.353v7e-3c-2e-3 2.192 1.773 3.97 3.965 3.972 1.708 2e-3 3.152-1.082 3.713-2.594 2.413 2.403 4.512 5.121 6.212 8.099zm-0.287 8.573-1.674-3.999h-1.514l-1.697 3.999h1.113l0.274-0.677h2.116l0.274 0.677h1.108zm-3.15-1.553 0.617-1.515h0.194l0.616 1.515h-1.427zm-39.672 20.086 19.44-21.6c4.608-5.12 4.193-13.006-0.927-17.614s-13.005-4.193-17.614 0.927l-19.44 21.6c-4.608 5.12-4.193 13.006 0.927 17.615 2.384 2.145 5.367 3.201 8.34 3.201 3.411-1e-3 6.811-1.394 9.274-4.129zm19.439 21.6 19.439-21.6c4.608-5.12 4.193-13.006-0.927-17.614s-13.006-4.194-17.614 0.927l-19.439 21.6c-4.608 5.12-4.193 13.007 0.927 17.614 2.384 2.146 5.367 3.202 8.34 3.202 3.412-1e-3 6.811-1.393 9.274-4.129zm-20.824 4.427c0.537-4e-3 0.861-0.011 0.973-0.021 0.17-0.016 0.303-0.048 0.396-0.098s0.168-0.127 0.223-0.233c0.081-0.156 0.121-0.397 0.121-0.724 0-0.42-0.078-0.695-0.234-0.826-0.068-0.059-0.174-0.104-0.316-0.135 0.161-0.059 0.273-0.155 0.337-0.29s0.095-0.346 0.095-0.633c0-0.24-0.021-0.429-0.062-0.567s-0.109-0.244-0.205-0.318c-0.098-0.078-0.252-0.125-0.461-0.141-0.093-8e-3 -0.383-0.013-0.872-0.015h-2.3v3.999h2.305v2e-3zm-1.378-3.059h1.373c0.308 2e-3 0.479 9e-3 0.516 0.021 0.093 0.031 0.139 0.126 0.139 0.284 0 0.154-0.038 0.25-0.115 0.287-0.058 0.029-0.237 0.044-0.539 0.044h-1.373v-0.636h-1e-3zm0 1.436h1.378c0.381 2e-3 0.589 9e-3 0.623 0.021 0.098 0.029 0.146 0.128 0.146 0.296 0 0.162-0.042 0.264-0.126 0.305-0.036 0.018-0.081 0.028-0.134 0.032-0.054 4e-3 -0.223 7e-3 -0.509 9e-3h-1.378v-0.663zm24.043-65.425-1.637 2.021h1.404l1.041-1.438 1.047 1.438h1.371l-1.614-2.021 1.54-1.978h-1.351l-0.993 1.403-0.987-1.403h-1.333l1.512 1.978zm-41.784 45.45v1.415h1.008v-1.415l1.751-2.584h-1.271l-0.999 1.603-1.043-1.603h-1.281l1.835 2.584z"/>
            
                
                    
                        <path d="m79.239 73.994c0.237-0.236 0.516-0.333 1.052-0.333h2.159c0.601 0 0.956 0.106 1.171 0.333 0.269 0.267 0.355 0.58 0.355 1.578v3.994h-1.643v-0.676c-0.709 0.58-0.966 0.687-1.493 0.687h-0.806c-0.526 0-0.805-0.065-1.041-0.3-0.204-0.205-0.343-0.548-0.343-1.321 0-0.73 0.107-1.182 0.365-1.44 0.268-0.268 0.612-0.398 1.675-0.398 0.57 0 1.16 0.065 1.643 0.173v-0.526c0-0.58-0.033-0.698-0.108-0.784-0.076-0.066-0.183-0.087-0.429-0.087h-0.827c-0.226 0-0.344 0.021-0.409 0.087-0.086 0.086-0.097 0.203-0.118 0.558h-1.556c0.01-0.986 0.106-1.31 0.353-1.545zm3.093 4.102v-0.988h-1.084c-0.624 0-0.774 0.043-0.881 0.15-0.107 0.108-0.129 0.237-0.129 0.505 0 0.301 0.022 0.462 0.107 0.548 0.086 0.086 0.204 0.096 0.419 0.096h0.462c0.344 0 0.57-0.032 1.106-0.311z"/>
                        <path d="m88.408 79.567v-0.762c-0.741 0.644-0.999 0.773-1.483 0.773h-0.622c-0.623 0-0.955-0.107-1.213-0.365-0.354-0.354-0.494-0.871-0.494-2.6 0-1.739 0.171-2.233 0.537-2.599 0.258-0.257 0.601-0.364 1.192-0.364h0.644c0.494 0 0.763 0.107 1.44 0.676v-2.685h1.643v7.925l-1.644 1e-3zm0-1.557v-2.813c-0.345-0.161-0.591-0.236-0.859-0.236h-0.59c-0.301 0-0.441 0.043-0.538 0.139-0.15 0.14-0.193 0.387-0.193 1.514 0 1.128 0.043 1.365 0.193 1.515 0.096 0.096 0.237 0.129 0.538 0.129h0.536c0.279-1e-3 0.548-0.076 0.913-0.248z"/>
                        <path d="m91.262 73.994c0.236-0.236 0.516-0.333 1.052-0.333h2.159c0.601 0 0.955 0.106 1.17 0.333 0.268 0.267 0.355 0.58 0.355 1.578v3.994h-1.643v-0.676c-0.709 0.58-0.967 0.687-1.493 0.687h-0.805c-0.527 0-0.807-0.065-1.042-0.3-0.204-0.205-0.344-0.548-0.344-1.321 0-0.73 0.107-1.182 0.365-1.44 0.269-0.268 0.612-0.398 1.675-0.398 0.57 0 1.16 0.065 1.643 0.173v-0.526c0-0.58-0.033-0.698-0.107-0.784-0.075-0.066-0.183-0.087-0.43-0.087h-0.827c-0.226 0-0.344 0.021-0.408 0.087-0.086 0.086-0.097 0.203-0.119 0.558h-1.557c0.013-0.986 0.11-1.31 0.356-1.545zm3.093 4.102v-0.988h-1.084c-0.623 0-0.774 0.043-0.881 0.15-0.107 0.108-0.129 0.237-0.129 0.505 0 0.301 0.022 0.462 0.108 0.548s0.203 0.096 0.418 0.096h0.462c0.344 0 0.569-0.032 1.106-0.311z"/>
                        <path d="m96.618 79.567v-6.185c0-0.741 0.097-1.128 0.344-1.375s0.526-0.365 1.16-0.365h1.353v1.245h-0.795c-0.214 0-0.279 0.022-0.343 0.075-0.054 0.064-0.076 0.182-0.076 0.472v0.237h1.214v1.278h-1.203v4.617l-1.654 1e-3z"/>
                        <path d="m100.1 79.567v-5.906h1.642v0.902c0.612-0.634 0.924-0.912 1.396-0.912h0.634v1.621h-0.762c-0.451 0-0.795 0.042-1.268 0.236v4.059h-1.642z"/>
                        <path d="m109.7 73.661v5.906h-1.653v-0.783c-0.752 0.676-0.999 0.794-1.536 0.794h-0.719c-0.516 0-0.838-0.107-1.063-0.333-0.237-0.247-0.344-0.558-0.344-1.417v-4.166h1.654v3.984c0 0.247 0.032 0.387 0.128 0.484 0.097 0.096 0.194 0.129 0.484 0.129h0.473c0.279 0 0.526-0.065 0.923-0.236v-4.36h1.653v-2e-3z"/>
                        <path d="m111.94 72.844h-1.621v-1.202h1.621v1.202zm0 6.723h-1.621v-5.906h1.621v5.906z"/>
                        <path d="m115.42 78.268h-0.709c-0.269 0-0.376-0.022-0.429-0.064-0.054-0.065-0.076-0.15-0.076-0.408v-2.846h1.214v-1.289h-1.214v-0.817h-1.654v5.392c0 0.601 0.075 0.869 0.269 1.063 0.204 0.204 0.504 0.322 1.063 0.322 0.44 0 0.881-0.064 1.138-0.129l0.398-0.103v-1.121z"/>
                    
                
                <path d="m81.811 69.87c-0.057-0.357-0.25-0.459-0.717-0.609-0.355-0.114-2.732-0.871-2.732-0.871s-1.656-0.625-2.884 0.259c-0.165 0.12-0.337 0.255-0.509 0.4 0.145-0.172 0.28-0.344 0.399-0.509 0.882-1.229 0.254-2.885 0.254-2.885s-0.761-2.375-0.876-2.73c-0.151-0.467-0.252-0.66-0.61-0.716-0.357-0.057-0.513 0.096-0.8 0.494-0.218 0.302-1.673 2.329-1.673 2.329s-1.107 1.382-0.645 2.824c0.062 0.194 0.138 0.399 0.223 0.607-0.12-0.191-0.241-0.373-0.361-0.537-0.897-1.219-2.665-1.133-2.665-1.133s-2.494-0.01-2.867-0.011c-0.49-1e-3 -0.705 0.036-0.869 0.358s-0.067 0.519 0.223 0.914c0.22 0.301 1.698 2.311 1.698 2.311s0.973 1.48 2.486 1.486c0.204 1e-3 0.421-8e-3 0.646-0.025-0.218 0.055-0.428 0.114-0.621 0.178-1.437 0.476-1.901 2.185-1.901 2.185s-0.78 2.369-0.896 2.724c-0.152 0.466-0.184 0.682 0.072 0.937s0.472 0.224 0.938 0.07c0.354-0.116 2.722-0.901 2.722-0.901s1.707-0.468 2.181-1.905c0.063-0.193 0.122-0.402 0.176-0.62-0.015 0.224-0.024 0.441-0.023 0.644 9e-3 1.513 1.49 2.484 1.49 2.484s2.012 1.474 2.313 1.694c0.396 0.289 0.592 0.385 0.914 0.221s0.359-0.38 0.357-0.87c-1e-3 -0.372-0.016-2.867-0.016-2.867s0.083-1.768-1.138-2.663c-0.164-0.12-0.346-0.241-0.537-0.36 0.209 0.084 0.413 0.16 0.607 0.221 1.442 0.46 2.822-0.649 2.822-0.649s2.024-1.458 2.326-1.677c0.398-0.288 0.55-0.445 0.493-0.802zm-8.591-1.837c0.272 0.043 0.407 0.622 0.301 1.293s-0.412 1.18-0.684 1.137-0.407-0.622-0.302-1.292c0.107-0.671 0.413-1.181 0.685-1.138zm-3.485 1.78c0.125-0.246 0.717-0.195 1.322 0.113 0.606 0.308 0.995 0.756 0.87 1.002s-0.717 0.195-1.322-0.112c-0.605-0.309-0.994-0.758-0.87-1.003zm1.838 3.346c-0.48 0.48-1.027 0.712-1.222 0.518s0.036-0.742 0.516-1.223 1.027-0.712 1.222-0.518c0.195 0.195-0.036 0.742-0.516 1.223zm2.643 1.126c-0.245 0.125-0.695-0.263-1.003-0.868-0.309-0.605-0.361-1.198-0.115-1.323 0.245-0.125 0.695 0.264 1.003 0.868 0.309 0.606 0.36 1.198 0.115 1.323zm0.637-2.801c-0.671 0.107-1.25-0.027-1.293-0.299s0.466-0.579 1.136-0.686c0.671-0.107 1.25 0.026 1.293 0.298 0.044 0.272-0.465 0.58-1.136 0.687z"/>
            
            
                <path d="m68.674 54.587c0.336 0 0.58 0.079 0.73 0.238 0.15 0.16 0.186 0.376 0.107 0.647l-0.094 0.312h-0.76l0.094-0.312c0.046-0.157 0.054-0.271 0.021-0.341-0.032-0.07-0.107-0.104-0.226-0.104-0.116 0-0.211 0.035-0.285 0.107-0.073 0.071-0.132 0.185-0.177 0.338l-0.038 0.132c-0.068 0.222-0.021 0.389 0.143 0.499l0.518 0.357c0.154 0.105 0.253 0.232 0.298 0.379 0.044 0.146 0.037 0.323-0.024 0.529l-0.07 0.258c-0.095 0.312-0.265 0.55-0.509 0.716-0.245 0.165-0.548 0.248-0.912 0.248-0.36 0-0.612-0.089-0.755-0.268-0.143-0.178-0.167-0.434-0.07-0.767l0.088-0.298h0.758l-0.086 0.298c-0.061 0.213-0.077 0.365-0.047 0.457 0.03 0.091 0.109 0.137 0.238 0.137 0.14 0 0.249-0.039 0.328-0.117 0.079-0.077 0.148-0.213 0.207-0.406l0.049-0.175c0.057-0.191 8e-3 -0.342-0.148-0.451l-0.424-0.293c-0.177-0.121-0.298-0.27-0.364-0.443-0.065-0.173-0.069-0.357-9e-3 -0.553l0.072-0.239c0.073-0.258 0.235-0.47 0.485-0.637 0.25-0.165 0.538-0.248 0.862-0.248z"/>
                <path d="M69.741,58.48l1.12-3.784h1.855l-0.161,0.54h-1.093l-0.298,0.994h1.04l-0.159,0.539h-1.04L70.66,57.94h1.093l-0.159,0.54H69.741z"/>
                <path d="m72.647 58.48 1.114-3.784h0.76l-0.956 3.244h0.978l-0.159 0.54h-1.737z"/>
                <path d="M75.146,58.48l1.12-3.784h1.855l-0.161,0.54h-1.093L76.57,56.23h1.04l-0.159,0.539h-1.04l-0.346,1.171h1.093L77,58.48H75.146z"/>
                <path d="m80.308 54.587c0.765 0 1.032 0.389 0.803 1.165l-0.062 0.199h-0.76l0.062-0.199c0.064-0.218 0.081-0.377 0.05-0.477s-0.116-0.149-0.254-0.149-0.251 0.054-0.341 0.159c-0.089 0.105-0.17 0.279-0.241 0.521l-0.468 1.563c-0.069 0.241-0.091 0.416-0.063 0.522s0.112 0.159 0.251 0.159c0.136 0 0.248-0.049 0.337-0.147 0.088-0.099 0.167-0.258 0.235-0.479l0.075-0.276h0.76l-0.078 0.276c-0.234 0.777-0.731 1.166-1.49 1.166-0.765 0-1.027-0.407-0.787-1.222l0.47-1.563c0.24-0.812 0.74-1.218 1.501-1.218z"/>
                <path d="m82.67 55.236h-0.773l0.159-0.54h2.31l-0.159 0.54h-0.776l-0.956 3.244h-0.76l0.955-3.244z"/>
            
            
                <path d="m96.797 54.587c0.337 0 0.58 0.079 0.73 0.238 0.15 0.16 0.187 0.376 0.107 0.647l-0.094 0.312h-0.76l0.095-0.312c0.046-0.157 0.054-0.271 0.021-0.341-0.032-0.07-0.107-0.104-0.226-0.104-0.116 0-0.212 0.035-0.285 0.107-0.073 0.071-0.132 0.185-0.177 0.338l-0.038 0.132c-0.067 0.222-0.021 0.389 0.143 0.499l0.519 0.357c0.153 0.105 0.253 0.232 0.298 0.379s0.037 0.323-0.024 0.529l-0.069 0.258c-0.095 0.312-0.265 0.55-0.509 0.716-0.245 0.165-0.549 0.248-0.912 0.248-0.36 0-0.611-0.089-0.755-0.268-0.143-0.178-0.166-0.434-0.069-0.767l0.088-0.298h0.758l-0.086 0.298c-0.061 0.213-0.076 0.365-0.047 0.457 0.029 0.091 0.108 0.137 0.237 0.137 0.14 0 0.249-0.039 0.328-0.117 0.078-0.077 0.147-0.213 0.206-0.406l0.049-0.175c0.058-0.191 8e-3 -0.342-0.147-0.451l-0.425-0.293c-0.177-0.121-0.298-0.27-0.363-0.443s-0.069-0.357-0.01-0.553l0.072-0.239c0.073-0.258 0.235-0.47 0.485-0.637 0.249-0.165 0.536-0.248 0.86-0.248z"/>
                <path d="m99.217 55.236h-0.773l0.158-0.54h2.31l-0.158 0.54h-0.776l-0.956 3.244h-0.76l0.955-3.244z"/>
                <path d="m100.29 58.48 1.936-3.784h1.099l-0.306 3.784h-0.782l0.095-0.856h-0.849l-0.411 0.856h-0.782zm1.45-1.396h0.649l0.204-1.777-0.853 1.777z"/>
                <path d="m106.03 54.696c0.381 0 0.653 0.078 0.817 0.232 0.164 0.155 0.205 0.373 0.122 0.654l-0.08 0.273c-0.062 0.21-0.159 0.383-0.29 0.521-0.131 0.137-0.288 0.231-0.471 0.283 0.303 0.084 0.391 0.335 0.264 0.752l-0.201 0.695c-0.056 0.17-0.073 0.295-0.052 0.373h-0.781c-7e-3 -0.075 0.014-0.187 0.062-0.336l0.226-0.775c0.049-0.163 0.05-0.277 5e-3 -0.343-0.046-0.065-0.15-0.098-0.313-0.098h-0.215l-0.456 1.552h-0.758l1.114-3.784h1.007v1e-3zm-0.159 0.54h-0.247l-0.341 1.155h0.247c0.165 0 0.289-0.032 0.372-0.097s0.15-0.18 0.2-0.344l0.08-0.277c0.049-0.164 0.051-0.278 6e-3 -0.342s-0.15-0.095-0.317-0.095z"/>
                <path d="m108.54 55.236h-0.773l0.159-0.54h2.31l-0.159 0.54h-0.775l-0.956 3.244h-0.761l0.955-3.244z"/>
            
            
                <path class="st1" d="m0 78.407c0 4.697 3.807 8.504 8.504 8.504h24.008c-12.494 0-23.885-4.705-32.512-12.433v3.929z"/>
                <path class="st1" d="m151.31 86.911h24.437c4.697 0 8.504-3.807 8.504-8.504v-4.314c-8.677 7.958-20.24 12.818-32.941 12.818z"/>
                <path class="st1" d="m56.225 80.754c-7.02 3.917-15.103 6.157-23.712 6.157h118.8c-8.61 0-16.692-2.24-23.712-6.157h-71.375z"/>
            
            
                <path d="m75.385 0.799h1.542v3.999h-0.975v-2.956h-0.253l-0.945 0.996-0.539-0.785 1.17-1.254z"/>
            
            
                <path d="m103 2.467h-0.944c0-0.322 0.011-0.567 0.03-0.735 0.038-0.297 0.146-0.5 0.324-0.609 0.118-0.072 0.285-0.123 0.499-0.151s0.537-0.042 0.97-0.042c0.652 0 1.069 9e-3 1.252 0.028s0.326 0.067 0.432 0.145c0.115 0.086 0.195 0.208 0.24 0.366 0.044 0.158 0.066 0.4 0.066 0.727 0 0.234-0.011 0.419-0.031 0.555-0.021 0.136-0.058 0.25-0.109 0.344-0.068 0.127-0.16 0.216-0.274 0.267-0.193 0.086-0.429 0.14-0.705 0.161-0.669 0.049-1.101 0.084-1.296 0.107s-0.314 0.051-0.356 0.086c-0.039 0.033-0.064 0.069-0.075 0.107s-0.02 0.116-0.025 0.235h2.923v0.92h-3.818c-6e-3 -0.158-9e-3 -0.311-9e-3 -0.457 0-0.459 0.012-0.787 0.035-0.984 0.047-0.375 0.219-0.609 0.518-0.703 0.115-0.035 0.222-0.06 0.317-0.073 0.097-0.014 0.376-0.043 0.841-0.088 0.449-0.043 0.717-0.07 0.801-0.082 0.085-0.012 0.155-0.029 0.211-0.053 0.057-0.023 0.094-0.057 0.113-0.101s0.027-0.12 0.027-0.227c0-0.115-0.01-0.198-0.031-0.249s-0.059-0.087-0.113-0.108c-0.069-0.029-0.313-0.044-0.734-0.044-0.359 0-0.609 7e-3 -0.752 0.022s-0.23 0.042-0.265 0.081c-0.026 0.033-0.044 0.079-0.051 0.138s-0.011 0.197-0.011 0.417z"/>
            
            <g transform="matrix(-1 0 0 -1 138.72 24.335)">
                
                    <rect id="connector5pin" class="st2" x="68.085" y="10.892" width="2.551" height="2.551"/>
                
            </g>
            <g transform="matrix(-1 0 0 -1 161.97 24.335)">
                
                    <rect id="connector6pin" class="st2" x="79.707" y="10.892" width="2.551" height="2.551"/>
                
            </g>
            <g transform="matrix(-1 0 0 -1 138.72 15.265)">
                
                    <rect id="connector7pin" class="st2" x="68.085" y="6.357" width="2.551" height="2.551"/>
                
            </g>
            <g transform="matrix(-1 0 0 -1 161.97 15.265)">
                
                    <rect id="connector8pin" class="st2" x="79.707" y="6.357" width="2.551" height="2.551"/>
                
            </g>
            <g transform="matrix(-1 0 0 -1 192.72 24.695)">
                
                    <rect id="connector9pin" class="st2" x="95.085" y="11.072" width="2.551" height="2.551"/>
                
            </g>
            <g transform="matrix(-1 0 0 -1 215.97 24.695)">
                
                    <rect id="connector10pin" class="st2" x="106.71" y="11.072" width="2.551" height="2.551"/>
                
            </g>
            <g transform="matrix(-1 0 0 -1 192.72 15.625)">
                
                    <rect id="connector11pin" class="st2" x="95.085" y="6.537" width="2.551" height="2.551"/>
                
            </g>
            <g transform="matrix(-1 0 0 -1 215.97 15.625)">
                
                    <rect id="connector12pin" class="st2" x="106.71" y="6.537" width="2.551" height="2.551"/>
                
            </g>
            <path id="connector13pin" class="st2" d="m151.31 15.143c0.783 0 1.417 0.635 1.417 1.417 0 0.783-0.635 1.417-1.417 1.417-0.783 0-1.417-0.635-1.417-1.417 0-0.783 0.635-1.417 1.417-1.417z"/>
            <path id="connector14pin" class="st2" d="m24.412 54.743c0.783 0 1.417 0.635 1.417 1.417 0 0.783-0.635 1.417-1.417 1.417-0.783 0-1.417-0.635-1.417-1.417 0-0.783 0.634-1.417 1.417-1.417z"/>
            <circle id="connector15pin" class="st3" cx="7" cy="42.48" r="1.701"/>
            <path class="st2" d="m3.089 40.779h7.824v3.402h-7.824v-3.402m2.211 1.701c0 0.939 0.761 1.701 1.701 1.701s1.701-0.761 1.701-1.701-0.762-1.701-1.702-1.701-1.7 0.762-1.7 1.701z"/>
            <circle id="connector16pin" class="st3" cx="7" cy="36.811" r="1.701"/>
            <path class="st2" d="m3.089 35.11h7.824v3.402h-7.824v-3.402m2.211 1.701c0 0.939 0.761 1.701 1.701 1.701s1.701-0.761 1.701-1.701c0-0.939-0.761-1.701-1.701-1.701s-1.701 0.761-1.701 1.701z"/>
            <circle id="connector17pin" class="st3" cx="7" cy="48.149" r="1.701"/>
            <path class="st2" d="m3.089 46.449h7.824v3.402h-7.824v-3.402m2.211 1.7c0 0.94 0.761 1.701 1.7 1.701s1.701-0.761 1.701-1.701-0.761-1.7-1.701-1.7-1.7 0.761-1.7 1.7z"/>
            <circle id="connector18pin" class="st3" cx="32.512" cy="16.968" r="1.701"/>
            <path class="st2" d="m30.811 13.056h3.402v7.824h-3.402v-7.824m0 3.912c0 0.939 0.761 1.701 1.701 1.701 0.939 0 1.701-0.761 1.701-1.701s-0.761-1.701-1.701-1.701c-0.939 0-1.701 0.762-1.701 1.701z"/>
            <circle id="connector19pin" class="st3" cx="26.843" cy="16.968" r="1.701"/>
            <path class="st2" d="m25.142 13.056h3.402v7.824h-3.402v-7.824m0 3.912c0 0.939 0.761 1.701 1.701 1.701s1.701-0.761 1.701-1.701-0.761-1.701-1.701-1.701-1.701 0.762-1.701 1.701z"/>
            <circle id="connector20pin" class="st3" cx="38.181" cy="16.968" r="1.701"/>
            <path class="st2" d="m36.481 13.056h3.402v7.824h-3.402v-7.824m0 3.912c0 0.939 0.761 1.701 1.701 1.701s1.701-0.761 1.701-1.701-0.761-1.701-1.701-1.701-1.701 0.762-1.701 1.701z"/>
            <g transform="matrix(-1 0 0 -1 221.92 73.621)">
                
                    <rect id="connector21pin" class="st2" x="108.12" y="35.11" width="5.669" height="3.402"/>
                
            </g>
            <g transform="matrix(-1 0 0 -1 186.77 73.621)">
                
                    <rect id="connector22pin" class="st2" x="90.55" y="35.11" width="5.669" height="3.402"/>
                
            </g>
            <g transform="matrix(-1 0 0 -1 221.92 96.299)">
                
                    <rect id="connector23pin" class="st2" x="108.12" y="46.449" width="5.669" height="3.402"/>
                
            </g>
            <g transform="matrix(-1 0 0 -1 186.77 96.299)">
                
                    <rect id="connector24pin" class="st2" x="90.55" y="46.449" width="5.669" height="3.402"/>
                
            </g>
            <g transform="matrix(-1 0 0 -1 281.32 64.981)">
                
                    <rect id="connector25pin" class="st2" x="137.82" y="30.79" width="5.669" height="3.402"/>
                
            </g>
            <g transform="matrix(-1 0 0 -1 246.17 64.981)">
                
                    <rect id="connector26pin" class="st2" x="120.25" y="30.79" width="5.669" height="3.402"/>
                
            </g>
            <g transform="matrix(-1 0 0 -1 281.32 87.659)">
                
                    <rect id="connector27pin" class="st2" x="137.82" y="42.129" width="5.669" height="3.402"/>
                
            </g>
            <g transform="matrix(-1 0 0 -1 246.17 87.659)">
                
                    <rect id="connector28pin" class="st2" x="120.25" y="42.129" width="5.669" height="3.402"/>
                
            </g>
            <rect id="connector29pin" class="st2" x="139.69" y="20.528" width="5.669" height="3.402"/>
            <rect id="connector30pin" class="st2" x="157.26" y="20.528" width="5.669" height="3.402"/>
            <rect id="connector31pin" class="st2" x="139.69" y="9.19" width="5.669" height="3.402"/>
            <rect id="connector32pin" class="st2" x="157.26" y="9.19" width="5.669" height="3.402"/>
            <rect id="connector33pin" class="st2" x="139.69" y="63.729" width="5.669" height="3.402"/>
            <rect id="connector34pin" class="st2" x="157.26" y="63.729" width="5.669" height="3.402"/>
            <rect id="connector35pin" class="st2" x="139.69" y="52.39" width="5.669" height="3.402"/>
            <rect id="connector36pin" class="st2" x="157.26" y="52.39" width="5.669" height="3.402"/>
            <g transform="matrix(-1 0 0 -1 359.08 64.981)">
                
                    <rect id="connector37pin" class="st2" x="176.7" y="30.79" width="5.669" height="3.402"/>
                
            </g>
            <g transform="matrix(-1 0 0 -1 323.93 64.981)">
                
                    <rect id="connector38pin" class="st2" x="159.13" y="30.79" width="5.669" height="3.402"/>
                
            </g>
            <g transform="matrix(-1 0 0 -1 359.08 87.659)">
                
                    <rect id="connector39pin" class="st2" x="176.7" y="42.129" width="5.669" height="3.402"/>
                
            </g>
            <g transform="matrix(-1 0 0 -1 323.93 87.659)">
                
                    <rect id="connector40pin" class="st2" x="159.13" y="42.129" width="5.669" height="3.402"/>
                
            </g>
            <g transform="matrix(-1 0 0 -1 167.92 73.621)">
                
                    <rect id="connector41pin" class="st2" x="81.124" y="35.11" width="5.669" height="3.402"/>
                
            </g>
            <g transform="matrix(-1 0 0 -1 132.77 73.621)">
                
                    <rect id="connector42pin" class="st2" x="63.55" y="35.11" width="5.669" height="3.402"/>
                
            </g>
            <g transform="matrix(-1 0 0 -1 167.92 96.299)">
                
                    <rect id="connector43pin" class="st2" x="81.124" y="46.449" width="5.669" height="3.402"/>
                
            </g>
            <g transform="matrix(-1 0 0 -1 132.77 96.299)">
                
                    <rect id="connector44pin" class="st2" x="63.55" y="46.449" width="5.669" height="3.402"/>
                
            </g>
            <g transform="matrix(0 1 -1 0 103.97 -61.397)">
                
                    <g transform="matrix(2.5352e-6 1 -1 2.5352e-6 103.97 -61.397)">
                        <rect id="connector45pin" class="st2" x="81.265" y="20.931" width="2.835" height=".709"/>
                    </g>
                
            </g>
            <g transform="matrix(0 1 -1 0 105.38 -59.979)">
                
                    <g transform="matrix(2.5352e-6 1 -1 2.5352e-6 105.38 -59.98)">
                        <rect id="connector46pin" class="st2" x="81.265" y="22.348" width="2.835" height=".709"/>
                    </g>
                
            </g>
            <g transform="matrix(0 1 -1 0 106.8 -58.562)">
                
                    <g transform="matrix(2.5352e-6 1 -1 2.5352e-6 106.8 -58.562)">
                        <rect id="connector47pin" class="st2" x="81.265" y="23.766" width="2.835" height=".709"/>
                    </g>
                
            </g>
            <g transform="matrix(0 1 -1 0 108.22 -57.145)">
                
                    <g transform="matrix(2.5352e-6 1 -1 2.5352e-6 108.22 -57.145)">
                        <rect id="connector48pin" class="st2" x="81.265" y="25.183" width="2.835" height=".709"/>
                    </g>
                
            </g>
            <g transform="matrix(0 1 -1 0 109.64 -55.727)">
                
                    <g transform="matrix(2.5352e-6 1 -1 2.5352e-6 109.64 -55.728)">
                        <rect id="connector49pin" class="st2" x="81.265" y="26.6" width="2.835" height=".709"/>
                    </g>
                
            </g>
            <g transform="matrix(0 -1 1 0 67.707 121.62)">
                
                    <g transform="matrix(-2.5352e-6 -1 1 -2.5352e-6 67.708 121.62)">
                        <rect id="connector50pin" class="st2" x="93.245" y="26.6" width="2.835" height=".709"/>
                    </g>
                
            </g>
            <g transform="matrix(0 -1 1 0 69.124 120.2)">
                
                    <g transform="matrix(-2.5352e-6 -1 1 -2.5352e-6 69.125 120.2)">
                        <rect id="connector51pin" class="st2" x="93.245" y="25.183" width="2.835" height=".709"/>
                    </g>
                
            </g>
            <g transform="matrix(0 -1 1 0 70.542 118.78)">
                
                    <g transform="matrix(-2.5352e-6 -1 1 -2.5352e-6 70.542 118.78)">
                        <rect id="connector52pin" class="st2" x="93.245" y="23.766" width="2.835" height=".709"/>
                    </g>
                
            </g>
            <g transform="matrix(0 -1 1 0 71.959 117.36)">
                
                    <g transform="matrix(-2.5352e-6 -1 1 -2.5352e-6 71.96 117.37)">
                        <rect id="connector53pin" class="st2" x="93.245" y="22.349" width="2.835" height=".709"/>
                    </g>
                
            </g>
            <g transform="matrix(0 -1 1 0 73.377 115.95)">
                
                    <g transform="matrix(-2.5352e-6 -1 1 -2.5352e-6 73.377 115.95)">
                        <rect id="connector54pin" class="st2" x="93.245" y="20.931" width="2.835" height=".709"/>
                    </g>
                
            </g>
        </g>
        <g transform="translate(68.794 5.648)">
            
                <g transform="matrix(-1 0 0 -1 12.756 8.504)">
                    
                        
                            <polygon class="st4" points="12.756 2.692 12.756 1.275 11.339 1.275 11.339 0 1.417 0 1.417 1.275 0 1.275 0 2.692 1.417 2.692 1.417 5.811 0 5.811 0 7.228 1.417 7.228 1.417 8.504 11.339 8.504 11.339 7.228 12.756 7.228 12.756 5.811 11.339 5.811 11.339 2.692"/>
                            <circle class="st5" cx="6.378" cy="4.252" r="2.48"/>
                            <rect class="st6" x=".992" width=".567" height="8.504"/>
                            <rect class="st6" x="11.197" width=".567" height="8.504"/>
                        
                    
                </g>
            
        </g>
        <g transform="translate(95.794 5.828)">
            
                <g transform="matrix(-1 0 0 -1 12.756 8.504)">
                    
                        
                            <polygon class="st4" points="12.756 2.692 12.756 1.275 11.339 1.275 11.339 0 1.417 0 1.417 1.275 0 1.275 0 2.692 1.417 2.692 1.417 5.811 0 5.811 0 7.228 1.417 7.228 1.417 8.504 11.339 8.504 11.339 7.228 12.756 7.228 12.756 5.811 11.339 5.811 11.339 2.692"/>
                            <circle class="st5" cx="6.378" cy="4.252" r="2.48"/>
                            <rect class="st6" x=".992" width=".567" height="8.504"/>
                            <rect class="st6" x="11.197" width=".567" height="8.504"/>
                        
                    
                </g>
            
        </g>
        <g transform="translate(91.4 33.976)">
            
                <g transform="matrix(-1 0 0 -1 21.543 17.008)">
                    
                        
                            <polygon class="st4" points="21.543 3.685 21.543 1.984 19.842 1.984 19.842 1e-3 1.701 1e-3 1.701 1.984 0 1.984 0 3.685 1.701 3.685 1.701 13.323 0 13.323 0 15.024 1.701 15.024 1.701 17.008 19.842 17.008 19.842 15.024 21.543 15.024 21.543 13.323 19.842 13.323 19.842 3.685"/>
                            <circle class="st5" cx="10.772" cy="8.504" r="4.252"/>
                            <rect class="st6" x="1.465" width=".567" height="17.008"/>
                            <rect class="st6" x="19.559" width=".567" height="17.008"/>
                        
                    
                </g>
            
        </g>
        <g transform="translate(121.1 29.656)">
            
                <g transform="matrix(-1 0 0 -1 21.543 17.008)">
                    
                        
                            <polygon class="st4" points="21.543 3.685 21.543 1.984 19.842 1.984 19.842 1e-3 1.701 1e-3 1.701 1.984 0 1.984 0 3.685 1.701 3.685 1.701 13.323 0 13.323 0 15.024 1.701 15.024 1.701 17.008 19.842 17.008 19.842 15.024 21.543 15.024 21.543 13.323 19.842 13.323 19.842 3.685"/>
                            <circle class="st5" cx="10.772" cy="8.504" r="4.252"/>
                            <rect class="st6" x="1.465" width=".567" height="17.008"/>
                            <rect class="st6" x="19.559" width=".567" height="17.008"/>
                        
                    
                </g>
            
        </g>
        <g transform="translate(140.54 8.056)">
            
                
                    <polygon class="st4" points="21.543 3.685 21.543 1.984 19.842 1.984 19.842 1e-3 1.701 1e-3 1.701 1.984 0 1.984 0 3.685 1.701 3.685 1.701 13.323 0 13.323 0 15.024 1.701 15.024 1.701 17.008 19.842 17.008 19.842 15.024 21.543 15.024 21.543 13.323 19.842 13.323 19.842 3.685"/>
                    <circle class="st5" cx="10.772" cy="8.504" r="4.252"/>
                    <rect class="st6" x="1.465" width=".567" height="17.008"/>
                    <rect class="st6" x="19.559" width=".567" height="17.008"/>
                
            
        </g>
        <g transform="translate(140.54 51.256)">
            
                
                    <polygon class="st4" points="21.543 3.685 21.543 1.984 19.842 1.984 19.842 1e-3 1.701 1e-3 1.701 1.984 0 1.984 0 3.685 1.701 3.685 1.701 13.323 0 13.323 0 15.024 1.701 15.024 1.701 17.008 19.842 17.008 19.842 15.024 21.543 15.024 21.543 13.323 19.842 13.323 19.842 3.685"/>
                    <circle class="st5" cx="10.772" cy="8.504" r="4.252"/>
                    <rect class="st6" x="1.465" width=".567" height="17.008"/>
                    <rect class="st6" x="19.559" width=".567" height="17.008"/>
                
            
        </g>
        <g transform="translate(159.98 29.656)">
            
                <g transform="matrix(-1 0 0 -1 21.543 17.008)">
                    
                        
                            <polygon class="st4" points="21.543 3.685 21.543 1.984 19.842 1.984 19.842 1e-3 1.701 1e-3 1.701 1.984 0 1.984 0 3.685 1.701 3.685 1.701 13.323 0 13.323 0 15.024 1.701 15.024 1.701 17.008 19.842 17.008 19.842 15.024 21.543 15.024 21.543 13.323 19.842 13.323 19.842 3.685"/>
                            <circle class="st5" cx="10.772" cy="8.504" r="4.252"/>
                            <rect class="st6" x="1.465" width=".567" height="17.008"/>
                            <rect class="st6" x="19.559" width=".567" height="17.008"/>
                        
                    
                </g>
            
        </g>
        <g transform="translate(64.4 33.976)">
            
                <g transform="matrix(-1 0 0 -1 21.543 17.008)">
                    
                        
                            <polygon class="st4" points="21.543 3.685 21.543 1.984 19.842 1.984 19.842 1e-3 1.701 1e-3 1.701 1.984 0 1.984 0 3.685 1.701 3.685 1.701 13.323 0 13.323 0 15.024 1.701 15.024 1.701 17.008 19.842 17.008 19.842 15.024 21.543 15.024 21.543 13.323 19.842 13.323 19.842 3.685"/>
                            <circle class="st5" cx="10.772" cy="8.504" r="4.252"/>
                            <rect class="st6" x="1.465" width=".567" height="17.008"/>
                            <rect class="st6" x="19.559" width=".567" height="17.008"/>
                        
                    
                </g>
            
        </g>
        <g transform="translate(84.564 18.564)">
            
                <g transform="matrix(0 1 -1 0 9.6639 1.4481)">
                    
                        <g transform="matrix(2.5352e-6 1 -1 2.5352e-6 12.594 -1.4824)">
                            <rect class="st4" x="1.482" y="5.216" width="11.112" height=".68"/>
                        </g>
                        <g transform="matrix(2.5352e-6 1 -1 2.5352e-6 6.755 4.3566)">
                            <rect class="st4" x="-4.357" y="5.216" width="11.112" height=".68"/>
                        </g>
                        <g transform="matrix(2.5352e-6 1 -1 2.5352e-6 8.2286 2.883)">
                            <rect class="st4" x="-2.883" y="5.216" width="11.112" height=".68"/>
                        </g>
                        <g transform="matrix(2.5352e-6 1 -1 2.5352e-6 9.703 1.4086)">
                            <rect class="st4" x="-1.409" y="5.216" width="11.112" height=".68"/>
                        </g>
                        <g transform="matrix(2.5352e-6 1 -1 2.5352e-6 11.177 -.065)">
                            <rect class="st4" x=".065" y="5.216" width="11.112" height=".68"/>
                        </g>
                        <path class="st7" d="M8.216,2.583v5.896c0,0.25-0.203,0.454-0.454,0.454H0.454C0.203,8.933,0,8.729,0,8.479V2.583c0-0.25,0.203-0.454,0.454-0.454h7.309C8.013,2.129,8.216,2.333,8.216,2.583z"/>
                        <circle cx="1.134" cy="7.798" r=".567"/>
                    
                </g>
            
        </g>
        
            <polygon class="st5" points="49.52 67.992 58.024 59.488 58.024 25.472 49.52 16.968 15.504 16.968 7 25.472 7 59.488 15.504 67.992"/>
            <polygon class="st6" points="16.091 66.575 8.418 58.901 8.418 26.059 16.091 18.386 48.933 18.386 56.606 26.059 56.606 58.901 48.933 66.575"/>
            <circle class="st5" cx="32.512" cy="42.48" r="19.843"/>
            <circle class="st8" cx="32.512" cy="42.479" r="15.874"/>
            
                <line class="st9" x1="16.638" x2="48.386" y1="42.48" y2="42.48"/>
                <path class="st10" d="m46.912 49.092v-13.224 13.224m-3.6 4.996v-23.216 23.216m-3.6 2.527v-28.27 28.27m-3.6 1.314v-30.898 30.898m-3.6 0.425v-31.748 31.748m-3.6-0.425v-30.898 30.898m-3.6-1.314v-28.27 28.27m-3.6-2.527v-23.216 23.216m-3.6-4.996v-13.224 13.224m21.012 7.788h-13.224 13.224m4.996-3.6h-23.216 23.216m2.528-3.6h-28.271 28.271m1.313-3.6h-30.898 30.898m0-7.2h-30.898 30.898m-1.313-3.6h-28.271 28.271m-2.528-3.6h-23.216 23.216"/>
            
        
    </g>
</svg>
