<?xml version="1.0" encoding="UTF-8"?>
<svg width="25.4mm" height="15.24mm" version="1.1" viewBox="0 0 72 43.2" xmlns="http://www.w3.org/2000/svg">
 <desc>
  <referenceFile>Adafruit Pixel Shifter_breadboard.svg</referenceFile>
 </desc>
 <!-- Generator: Adobe Illustrator 29.0.1, SVG Export Plug-In . SVG Version: 2.1.0 Build 192)  -->
 <g id="breadboard">
  <g id="icon">
   <path d="m7.2 0h57.6c3.9764 0 7.2 3.2236 7.2 7.2v28.8c0 3.9764-3.2235 7.2-7.2 7.2h-57.6c-3.9765 0-7.2-3.2235-7.2-7.2v-28.8c0-3.9765 3.2235-7.2 7.2-7.2m48.983 32.4c0 0.7828 0.6346 1.4173 1.4173 1.4173s1.4173-0.6346 1.4173-1.4173-0.6346-1.4173-1.4173-1.4173-1.4173 0.6346-1.4173 1.4173zm0-7.2c0 0.7828 0.6346 1.4173 1.4173 1.4173s1.4173-0.6346 1.4173-1.4173c0-0.7828-0.6346-1.4173-1.4173-1.4173s-1.4173 0.6346-1.4173 1.4173zm0-7.2c0 0.7828 0.6346 1.4173 1.4173 1.4173s1.4173-0.6346 1.4173-1.4173-0.6346-1.4173-1.4173-1.4173-1.4173 0.6346-1.4173 1.4173zm0-7.2c0 0.7828 0.6346 1.4173 1.4173 1.4173s1.4173-0.6346 1.4173-1.4173-0.6346-1.4173-1.4173-1.4173-1.4173 0.6346-1.4173 1.4173zm-43.2 0c0 0.7828 0.6346 1.4173 1.4173 1.4173s1.4173-0.6346 1.4173-1.4173-0.6346-1.4173-1.4173-1.4173-1.4173 0.6346-1.4173 1.4173zm0 7.2c0 0.7828 0.6346 1.4173 1.4173 1.4173s1.4173-0.6346 1.4173-1.4173c0-0.7828-0.6346-1.4173-1.4173-1.4173s-1.4173 0.6346-1.4173 1.4173zm0 7.2c0 0.7828 0.6346 1.4173 1.4173 1.4173s1.4173-0.6346 1.4173-1.4173-0.6346-1.4173-1.4173-1.4173c-0.7828 0-1.4173 0.6346-1.4173 1.4173zm0 7.2c0 0.7828 0.6346 1.4173 1.4173 1.4173s1.4173-0.6346 1.4173-1.4173-0.6346-1.4173-1.4173-1.4173-1.4173 0.6346-1.4173 1.4173zm19.474 3.6c-0.0034 1.9569 1.5802 3.5461 3.5371 3.5495s3.5461-1.5802 3.5495-3.5371v-0.0125c0.0034-1.9569-1.5802-3.5461-3.5371-3.5495s-3.5461 1.5802-3.5495 3.5371v0.0125zm0-28.8c-0.0034 1.9569 1.5802 3.5461 3.5371 3.5495s3.5461-1.5802 3.5495-3.5371v-0.0124c0.0034-1.9569-1.5802-3.5461-3.5371-3.5495s-3.5461 1.5802-3.5495 3.5371v0.0124z"/>
   <g transform="translate(4.968 11.933) rotate(-90)">
    <g fill="#fff" font-family="OCR-Fritzing-mono" font-size="4.176" isolation="isolate">
     <text>G</text>
    </g>
   </g>
   <g transform="translate(4.968 19.312) rotate(-90)">
    <g fill="#fff" font-family="OCR-Fritzing-mono" font-size="4.176" isolation="isolate">
     <text>V</text>
    </g>
   </g>
   <g transform="translate(4.5504 28.243) rotate(-90)">
    <g fill="#fff" font-family="OCR-Fritzing-mono" font-size="3.3408" isolation="isolate">
     <text>DAT</text>
    </g>
   </g>
   <g transform="translate(4.5504 37.062) rotate(-90)">
    <g fill="#fff" font-family="OCR-Fritzing-mono" font-size="3.3408" isolation="isolate">
     <text>CLK</text>
    </g>
   </g>
   <g transform="translate(5.4425 5.5081)">
    <g fill="#fff" font-family="OCR-Fritzing-mono" font-size="4.176" isolation="isolate">
     <text>3-5VDC</text>
    </g>
   </g>
   <g transform="translate(7.2954 41.868)">
    <g fill="#fff" font-family="OCR-Fritzing-mono" font-size="4.176" isolation="isolate">
     <text>INPUT</text>
    </g>
   </g>
   <g transform="translate(54.614 5.5081)">
    <g fill="#fff" font-family="OCR-Fritzing-mono" font-size="4.176" isolation="isolate">
     <text>5V</text>
    </g>
   </g>
   <g transform="translate(49.902 41.868)">
    <g fill="#fff" font-family="OCR-Fritzing-mono" font-size="4.176" isolation="isolate">
     <text>OUTPUT</text>
    </g>
   </g>
   <g transform="translate(71.388 11.753) rotate(-90)">
    <g fill="#fff" font-family="OCR-Fritzing-mono" font-size="4.176" isolation="isolate">
     <text>G</text>
    </g>
   </g>
   <g transform="translate(70.97 19.849) rotate(-90)">
    <g fill="#fff" font-family="OCR-Fritzing-mono" font-size="3.3408" isolation="isolate">
     <text>D5</text>
    </g>
   </g>
   <g transform="translate(71.33 28.602) rotate(-90)">
    <g fill="#fff" font-family="OCR-Fritzing-mono" font-size="3.3408" isolation="isolate">
     <text>!D5</text>
    </g>
   </g>
   <g transform="translate(71.15 34.608) rotate(-90)">
    <g fill="#fff" font-family="OCR-Fritzing-mono" font-size="3.3408" isolation="isolate">
     <text>C5</text>
    </g>
   </g>
   <line x1="25.2" x2="28.08" y1="8.64" y2="8.64" fill="none" stroke="#fff" stroke-linecap="round" stroke-width=".864"/>
   <line x1="25.74" x2="28.62" y1="18.54" y2="18.54" fill="none" stroke="#fff" stroke-linecap="round" stroke-width=".864"/>
   <line x1="43.686" x2="45.954" y1="18.36" y2="18.36" fill="none" stroke="#fff" stroke-linecap="round" stroke-width=".864"/>
   <g fill="none" stroke="#fff" stroke-width=".576">
    <line x1="38.988" x2="34.452" y1="14.07" y2="14.07" stroke-linecap="round"/>
    <line x1="34.452" x2="38.988" y1="22.29" y2="22.29" stroke-linecap="round"/>
    <circle cx="35.728" cy="15.487" r=".2835"/>
   </g>
   <g fill="none" stroke="#fff" stroke-width=".576">
    <line x1="29.497" x2="26.663" y1="30.478" y2="30.478" stroke-linecap="round"/>
    <line x1="26.663" x2="29.497" y1="24.242" y2="24.242" stroke-linecap="round"/>
    <circle cx="27.513" cy="25.517" r=".4252"/>
   </g>
   <g fill="none" stroke="#fff" stroke-linecap="round" stroke-width=".432">
    <line x1="48.813" x2="48.813" y1="36.907" y2="6.2929"/>
    <line x1="48.813" x2="66.671" y1="6.2929" y2="6.2929"/>
    <line x1="66.671" x2="66.671" y1="6.2929" y2="23.301"/>
    <line x1="66.671" x2="66.671" y1="23.301" y2="26.986"/>
    <line x1="66.671" x2="66.671" y1="30.671" y2="34.072"/>
    <line x1="66.671" x2="66.671" y1="34.072" y2="36.907"/>
    <line x1="66.671" x2="48.813" y1="36.907" y2="36.907"/>
    <line x1="66.671" x2="63.269" y1="34.072" y2="34.072"/>
    <line x1="63.269" x2="63.269" y1="34.072" y2="30.671"/>
    <line x1="63.269" x2="66.671" y1="30.671" y2="30.671"/>
    <line x1="66.671" x2="66.671" y1="30.671" y2="26.986"/>
    <line x1="66.671" x2="63.269" y1="26.986" y2="26.986"/>
    <line x1="63.269" x2="63.269" y1="26.986" y2="23.301"/>
    <line x1="63.269" x2="66.671" y1="23.301" y2="23.301"/>
    <line x1="66.671" x2="63.269" y1="19.672" y2="19.672"/>
    <line x1="63.269" x2="63.269" y1="19.672" y2="16.271"/>
    <line x1="63.269" x2="66.671" y1="16.271" y2="16.271"/>
    <line x1="66.671" x2="63.269" y1="12.472" y2="12.472"/>
    <line x1="63.269" x2="63.269" y1="12.472" y2="9.0709"/>
    <line x1="63.269" x2="66.671" y1="9.0709" y2="9.0709"/>
    <line x1="64.12" x2="65.82" y1="32.372" y2="32.372"/>
    <line x1="65.82" x2="64.97" y1="32.372" y2="33.222"/>
    <line x1="64.97" x2="64.97" y1="33.222" y2="31.521"/>
    <line x1="64.97" x2="65.82" y1="31.521" y2="32.372"/>
    <line x1="64.12" x2="65.82" y1="25.172" y2="25.172"/>
    <line x1="65.82" x2="64.97" y1="25.172" y2="26.022"/>
    <line x1="64.97" x2="64.97" y1="26.022" y2="24.321"/>
    <line x1="64.97" x2="65.82" y1="24.321" y2="25.172"/>
    <line x1="64.12" x2="65.82" y1="17.972" y2="17.972"/>
    <line x1="65.82" x2="64.97" y1="17.972" y2="18.822"/>
    <line x1="64.97" x2="64.97" y1="18.822" y2="17.121"/>
    <line x1="64.97" x2="65.82" y1="17.121" y2="17.972"/>
    <line x1="64.12" x2="65.82" y1="10.772" y2="10.772"/>
    <line x1="65.82" x2="64.97" y1="10.772" y2="11.622"/>
    <line x1="64.97" x2="64.97" y1="11.622" y2="9.9212"/>
    <line x1="64.97" x2="65.82" y1="9.9212" y2="10.772"/>
   </g>
   <g fill="none" stroke="#fff" stroke-linecap="round" stroke-width=".432">
    <line x1="23.187" x2="23.187" y1="6.2929" y2="36.907"/>
    <line x1="23.187" x2="5.3291" y1="36.907" y2="36.907"/>
    <line x1="5.3291" x2="5.3291" y1="36.907" y2="19.899"/>
    <line x1="5.3291" x2="5.3291" y1="19.899" y2="16.214"/>
    <line x1="5.3291" x2="5.3291" y1="12.529" y2="9.1276"/>
    <line x1="5.3291" x2="5.3291" y1="9.1276" y2="6.2929"/>
    <line x1="5.3291" x2="23.187" y1="6.2929" y2="6.2929"/>
    <line x1="5.3291" x2="8.7307" y1="9.1276" y2="9.1276"/>
    <line x1="8.7307" x2="8.7307" y1="9.1276" y2="12.529"/>
    <line x1="8.7307" x2="5.3291" y1="12.529" y2="12.529"/>
    <line x1="5.3291" x2="5.3291" y1="12.529" y2="16.214"/>
    <line x1="5.3291" x2="8.7307" y1="16.214" y2="16.214"/>
    <line x1="8.7307" x2="8.7307" y1="16.214" y2="19.899"/>
    <line x1="8.7307" x2="5.3291" y1="19.899" y2="19.899"/>
    <line x1="5.3291" x2="8.7307" y1="23.528" y2="23.528"/>
    <line x1="8.7307" x2="8.7307" y1="23.528" y2="26.929"/>
    <line x1="8.7307" x2="5.3291" y1="26.929" y2="26.929"/>
    <line x1="5.3291" x2="8.7307" y1="30.728" y2="30.728"/>
    <line x1="8.7307" x2="8.7307" y1="30.728" y2="34.129"/>
    <line x1="8.7307" x2="5.3291" y1="34.129" y2="34.129"/>
    <line x1="7.8803" x2="6.1795" y1="10.828" y2="10.828"/>
    <line x1="6.1795" x2="7.0299" y1="10.828" y2="9.978"/>
    <line x1="7.0299" x2="7.0299" y1="9.978" y2="11.679"/>
    <line x1="7.0299" x2="6.1795" y1="11.679" y2="10.828"/>
    <line x1="7.8803" x2="6.1795" y1="18.028" y2="18.028"/>
    <line x1="6.1795" x2="7.0299" y1="18.028" y2="17.178"/>
    <line x1="7.0299" x2="7.0299" y1="17.178" y2="18.879"/>
    <line x1="7.0299" x2="6.1795" y1="18.879" y2="18.028"/>
    <line x1="7.8803" x2="6.1795" y1="25.228" y2="25.228"/>
    <line x1="6.1795" x2="7.0299" y1="25.228" y2="24.378"/>
    <line x1="7.0299" x2="7.0299" y1="24.378" y2="26.079"/>
    <line x1="7.0299" x2="6.1795" y1="26.079" y2="25.228"/>
    <line x1="7.8803" x2="6.1795" y1="32.428" y2="32.428"/>
    <line x1="6.1795" x2="7.0299" y1="32.428" y2="31.578"/>
    <line x1="7.0299" x2="7.0299" y1="31.578" y2="33.279"/>
    <line x1="7.0299" x2="6.1795" y1="33.279" y2="32.428"/>
   </g>
   <g fill="none" stroke="#fff" stroke-linecap="round">
    <line x1="42.449" x2="42.449" y1="12.708" y2="8.1723" stroke-width=".432"/>
    <line x1="45" x2="45" y1="10.976" y2="12.535" stroke-width=".432"/>
    <line x1="47.551" x2="47.551" y1="12.708" y2="8.1723" stroke-width=".432"/>
    <line x1="45" x2="45" y1="12.6" y2="10.44" stroke-width=".432"/>
    <line x1="45" x2="47.52" y1="10.44" y2="10.44" stroke-width=".432"/>
    <line x1="44.784" x2="44.784" y1="9.288" y2="8.568" stroke-width=".36"/>
    <line x1="44.784" x2="45.216" y1="8.568" y2="8.928" stroke-width=".36"/>
    <line x1="45.216" x2="44.784" y1="8.928" y2="9.288" stroke-width=".36"/>
   </g>
   <line x1="45" x2="45" y1="29.7" y2="31.14" fill="none" stroke="#fff" stroke-linecap="round" stroke-width=".576"/>
   <line x1="45" x2="45" y1="23.58" y2="25.02" fill="none" stroke="#fff" stroke-linecap="round" stroke-width=".576"/>
   <line x1="45" x2="45" y1="26.64" y2="28.08" fill="none" stroke="#fff" stroke-linecap="round" stroke-width=".576"/>
   <circle cx="36" cy="36" r="5.6693" fill="none" stroke="#fff" stroke-width=".576"/>
   <circle cx="36" cy="7.2" r="5.6693" fill="none" stroke="#fff" stroke-width=".576"/>
   <g fill="none" stroke="#fff" stroke-linecap="round" stroke-width=".576">
    <line x1="37.957" x2="35.123" y1="29.218" y2="29.218"/>
    <line x1="35.123" x2="37.957" y1="22.982" y2="22.982"/>
   </g>
   <rect id="connector5pin" x="24.514" y="9.5753" width="4.252" height="3.515" fill="#9a916c"/>
   <rect id="connector6pin" x="24.514" y="4.1896" width="4.252" height="3.515" fill="#9a916c"/>
   <rect id="connector7pin" x="25.054" y="19.475" width="4.252" height="3.515" fill="#9a916c"/>
   <rect id="connector8pin" x="25.054" y="14.09" width="4.252" height="3.515" fill="#9a916c"/>
   <rect id="connector9pin" x="43.403" y="19.494" width="2.8347" height="2.5512" fill="#9a916c"/>
   <rect id="connector10pin" x="43.403" y="14.675" width="2.8347" height="2.5512" fill="#9a916c"/>
   <path id="connector11pin" d="m64.44 2.5313c0.3914 0 0.7087 0.3173 0.7087 0.7087s-0.3173 0.7087-0.7087 0.7087-0.7087-0.3173-0.7087-0.7087 0.3173-0.7087 0.7087-0.7087z" fill="#9a916c"/>
   <path id="connector12pin" d="m4.5 38.891c0.3914 0 0.7087 0.3173 0.7087 0.7087s-0.3173 0.7087-0.7087 0.7087-0.7087-0.3173-0.7087-0.7087 0.3173-0.7087 0.7087-0.7087z" fill="#9a916c"/>
   <rect id="connector13pin" x="31.334" y="14.708" width="3.4016" height="1.5591" fill="#9a916c"/>
   <rect id="connector14pin" x="31.334" y="17.4" width="3.4016" height="1.5591" fill="#9a916c"/>
   <rect id="connector15pin" x="31.334" y="20.093" width="3.4016" height="1.5591" fill="#9a916c"/>
   <rect id="connector16pin" x="38.704" y="20.093" width="3.4016" height="1.5591" fill="#9a916c"/>
   <rect id="connector17pin" x="38.704" y="17.4" width="3.4016" height="1.5591" fill="#9a916c"/>
   <rect id="connector18pin" x="38.704" y="14.708" width="3.4016" height="1.5591" fill="#9a916c"/>
   <rect id="connector19pin" x="24.537" y="25.021" width="2.2677" height=".9921" fill="#9a916c"/>
   <rect id="connector20pin" x="24.537" y="26.864" width="2.2677" height=".9921" fill="#9a916c"/>
   <rect id="connector21pin" x="24.537" y="28.706" width="2.2677" height=".9921" fill="#9a916c"/>
   <rect id="connector22pin" x="29.356" y="28.706" width="2.2677" height=".9921" fill="#9a916c"/>
   <rect id="connector23pin" x="29.356" y="26.864" width="2.2677" height=".9921" fill="#9a916c"/>
   <rect id="connector24pin" x="29.356" y="25.022" width="2.2677" height=".9921" fill="#9a916c"/>
   <circle id="connector25pin" cx="57.6" cy="32.4" r="1.7773" fill="none" stroke="#9a916c" stroke-width=".72"/>
   <path d="m53.512 30.623h8.1757v3.5546h-8.1757v-3.5546m2.3106 1.7773c0 0.9816 0.7957 1.7773 1.7773 1.7773s1.7773-0.7957 1.7773-1.7773-0.7957-1.7773-1.7773-1.7773-1.7773 0.7957-1.7773 1.7773z" fill="#9a916c"/>
   <circle id="connector26pin" cx="57.6" cy="25.2" r="1.7773" fill="none" stroke="#9a916c" stroke-width=".72"/>
   <path d="M53.5121,23.4227h8.1757v3.5546h-8.1757v-3.5546M55.8227,25.2c0,.9816.7957,1.7773,1.7773,1.7773s1.7773-.7957,1.7773-1.7773-.7957-1.7773-1.7773-1.7773-1.7773.7957-1.7773,1.7773Z" fill="#9a916c"/>
   <circle id="connector27pin" cx="57.6" cy="18" r="1.7773" fill="none" stroke="#9a916c" stroke-width=".72"/>
   <path d="M53.5121,16.2227h8.1757v3.5546h-8.1757v-3.5546M55.8227,18c0,.9816.7957,1.7773,1.7773,1.7773s1.7773-.7957,1.7773-1.7773-.7957-1.7773-1.7773-1.7773-1.7773.7957-1.7773,1.7773Z" fill="#9a916c"/>
   <circle id="connector28pin" cx="57.6" cy="10.8" r="1.7773" fill="none" stroke="#9a916c" stroke-width=".72"/>
   <path d="M53.5121,9.0227h8.1757v3.5547h-8.1757v-3.5547M55.8227,10.8c0,.9816.7957,1.7773,1.7773,1.7773s1.7773-.7957,1.7773-1.7773-.7957-1.7773-1.7773-1.7773-1.7773.7957-1.7773,1.7773Z" fill="#9a916c"/>
   <circle id="connector29pin" cx="14.4" cy="10.8" r="1.7773" fill="none" stroke="#9a916c" stroke-width=".72"/>
   <path d="M10.3121,9.0227h8.1757v3.5547h-8.1757v-3.5547M12.6227,10.8c0,.9816.7957,1.7773,1.7773,1.7773s1.7773-.7957,1.7773-1.7773-.7957-1.7773-1.7773-1.7773-1.7773.7957-1.7773,1.7773Z" fill="#9a916c"/>
   <circle id="connector30pin" cx="14.4" cy="18" r="1.7773" fill="none" stroke="#9a916c" stroke-width=".72"/>
   <path d="M10.3121,16.2227h8.1757v3.5546h-8.1757v-3.5546M12.6227,18c0,.9816.7957,1.7773,1.7773,1.7773s1.7773-.7957,1.7773-1.7773-.7957-1.7773-1.7773-1.7773-1.7773.7957-1.7773,1.7773Z" fill="#9a916c"/>
   <circle id="connector31pin" cx="14.4" cy="25.2" r="1.7773" fill="none" stroke="#9a916c" stroke-width=".72"/>
   <path d="M10.3121,23.4227h8.1757v3.5546h-8.1757v-3.5546M12.6227,25.2c0,.9816.7957,1.7773,1.7773,1.7773s1.7773-.7957,1.7773-1.7773-.7957-1.7773-1.7773-1.7773-1.7773.7957-1.7773,1.7773Z" fill="#9a916c"/>
   <circle id="connector32pin" cx="14.4" cy="32.4" r="1.7773" fill="none" stroke="#9a916c" stroke-width=".72"/>
   <path d="m10.312 30.623h8.1757v3.5546h-8.1757v-3.5546m2.3106 1.7773c0 0.9816 0.7957 1.7773 1.7773 1.7773s1.7773-0.7957 1.7773-1.7773-0.7957-1.7773-1.7773-1.7773-1.7773 0.7957-1.7773 1.7773z" fill="#9a916c"/>
   <rect id="connector33pin" x="45.567" y="11.149" width="1.4173" height="1.4173" fill="#9a916c"/>
   <rect id="connector34pin" x="45.567" y="8.314" width="1.4173" height="1.4173" fill="#9a916c"/>
   <rect id="connector35pin" x="43.016" y="8.3139" width="1.4173" height="1.4173" fill="#9a916c"/>
   <rect id="connector36pin" x="43.016" y="11.149" width="1.4173" height="1.4173" fill="#9a916c"/>
   <rect id="connector37pin" x="42.71" y="29.57" width="1.7008" height="1.7008" fill="#9a916c"/>
   <rect id="connector38pin" x="45.59" y="29.57" width="1.7008" height="1.7008" fill="#9a916c"/>
   <rect id="connector39pin" x="42.71" y="23.45" width="1.7008" height="1.7008" fill="#9a916c"/>
   <rect id="connector40pin" x="45.59" y="23.45" width="1.7008" height="1.7008" fill="#9a916c"/>
   <rect id="connector41pin" x="42.71" y="26.51" width="1.7008" height="1.7008" fill="#9a916c"/>
   <rect id="connector42pin" x="45.59" y="26.51" width="1.7008" height="1.7008" fill="#9a916c"/>
   <circle id="connector43pin" cx="36" cy="36" r="4.2633" fill="none" stroke="#9a916c" stroke-width="1.44"/>
   <circle id="connector44pin" cx="36" cy="7.2" r="4.2633" fill="none" stroke="#9a916c" stroke-width="1.44"/>
   <rect id="connector45pin" x="32.501" y="23.762" width="3.2598" height=".9921" fill="#9a916c"/>
   <rect id="connector46pin" x="32.501" y="25.604" width="3.2598" height=".9921" fill="#9a916c"/>
   <rect id="connector47pin" x="32.501" y="27.446" width="3.2598" height=".9921" fill="#9a916c"/>
   <rect id="connector48pin" x="37.32" y="27.446" width="3.2598" height=".9921" fill="#9a916c"/>
   <rect id="connector49pin" x="37.32" y="23.761" width="3.2598" height=".9921" fill="#9a916c"/>
  </g>
  <path d="M28.4115,6.0885v5.103c0,.156-.127.283-.283.283h-2.977c-.156,0-.283-.127-.283-.283v-5.102c0-.157.127-.283.283-.283h2.977c.156-.001.283.126.283.282Z" fill="#dcdcdc"/>
  <rect x="24.868" y="6.8685" width="3.543" height="3.543" fill="#6e554b"/>
  <g data-name="_x30_805-cap">
   <path d="M28.9515,15.9885v5.103c0,.156-.127.283-.283.283h-2.977c-.156,0-.283-.127-.283-.283v-5.102c0-.157.127-.283.283-.283h2.977c.156-.001.283.126.283.282Z" fill="#dcdcdc"/>
   <rect x="25.408" y="16.768" width="3.543" height="3.543" fill="#6e554b"/>
  </g>
  <rect x="32.893" y="14.92" width="7.654" height="1.134" fill="#dcdcdc"/>
  <rect x="32.893" y="20.306" width="7.654" height="1.134" fill="#dcdcdc"/>
  <rect x="32.893" y="17.613" width="7.65" height="1.134" fill="#dcdcdc"/>
  <rect x="34.453" y="14.07" width="4.535" height="8.22" fill="#303030"/>
  <rect x="42.732" y="8.1724" width="4.5352" height="4.5352" fill="#9c8f6d"/>
  <rect x="43.64" y="9.646" width="2.7216" height="2.7216" fill="#807c73"/>
  <circle cx="44.49" cy="11.342" r=".4678" fill="red"/>
  <circle cx="45.517" cy="11.304" r=".4678" fill="lime"/>
  <circle cx="44.996" cy="10.368" r=".4678" fill="blue"/>
  <path d="M46.1335,31.1285h-2.268c-.156,0-.283-.127-.283-.283v-.85c0-.157.127-.284.283-.284h2.268c.157,0,.283.127.283.283v.85c.001.157-.126.284-.283.284Z" fill="#dcdcdc"/>
  <rect x="44.292" y="29.712" width="1.417" height="1.417" fill="#333"/>
  <g data-name="_0402no">
   <path d="M46.1335,25.0086h-2.268c-.156,0-.283-.127-.283-.283v-.85c0-.157.127-.284.283-.284h2.268c.157,0,.283.127.283.283v.85c.001.157-.126.284-.283.284Z" fill="#dcdcdc"/>
   <rect x="44.292" y="23.592" width="1.417" height="1.417" fill="#333"/>
   <path d="M46.1335,28.0685h-2.268c-.156,0-.283-.127-.283-.283v-.85c0-.157.127-.284.283-.284h2.268c.157,0,.283.127.283.283v.85c.001.157-.126.284-.283.284Z" fill="#dcdcdc"/>
   <rect x="44.292" y="26.652" width="1.417" height="1.417" fill="#333"/>
  </g>
  <path d="M30.0577,38.8557c-.023-.142-.1-.183-.286-.243-.142-.045-1.089-.347-1.089-.347,0,0-.66-.249-1.15.103-.066.048-.134.102-.203.16.058-.069.112-.137.159-.203.352-.49.101-1.15.101-1.15,0,0-.303-.947-.349-1.089-.06-.186-.1-.263-.243-.285-.142-.023-.204.038-.318.197-.087.12-.667.928-.667.928,0,0-.441.551-.257,1.126.025.077.055.159.089.242-.048-.076-.096-.149-.144-.214-.358-.486-1.062-.452-1.062-.452,0,0-.995-.004-1.143-.004-.195,0-.281.014-.347.143-.065.128-.027.206.089.364.088.12.677.921.677.921,0,0,.388.59.991.592.081,0,.168-.003.257-.01-.087.022-.171.046-.248.071-.573.19-.758.871-.758.871,0,0-.31.944-.357,1.085-.061.186-.073.272.029.374.102.102.188.09.374.028.141-.046,1.085-.359,1.085-.359,0,0,.681-.187.869-.76.025-.077.049-.16.07-.247-.006.09-.009.176-.009.257.004.603.594.99.594.99,0,0,.802.588.922.675.158.116.236.154.365.089.1279-.066.143-.152.142-.347-.001-.149-.006-1.143-.006-1.143,0,0,.033-.705-.454-1.062-.065-.048-.138-.096-.214-.143.083.034.165.064.242.088.575.183,1.125-.259,1.125-.259,0,0,.807-.581.927-.668.159-.115.219-.177.197-.319ZM26.6327,38.1237c.108.017.162.248.12.515-.042.267-.164.47-.273.453-.108-.017-.162-.248-.12-.515.042-.268.164-.471.273-.453ZM25.2437,38.8327c.05-.098.286-.078.527.045s.397.302.347.399c-.05.098-.286.078-.527-.045-.242-.123-.397-.301-.347-.399ZM25.9757,40.1667c-.191.191-.409.284-.487.206-.077-.078.015-.296.206-.487.191-.192.409-.285.487-.207.078.078-.014.296-.206.488ZM27.0297,40.6157c-.098.05-.277-.105-.4-.346-.123-.242-.144-.478-.046-.528.098-.05.277.105.4.346.123.242.144.478.046.528ZM27.2837,39.4987c-.267.042-.498-.011-.516-.119-.017-.109.186-.231.453-.274.267-.043.498.011.515.119.018.109-.185.231-.452.274Z" fill="#dcdcdc"/>
 </g>
 <g data-name="sot23-6">
  <rect x="24.63" y="25.117" width="6.9074" height=".7741" fill="#dcdcdc" data-name="rect5"/>
  <rect x="24.63" y="28.794" width="6.9074" height=".7741" fill="#dcdcdc" data-name="rect7"/>
  <rect x="24.63" y="26.956" width="6.9038" height=".7741" fill="#dcdcdc" data-name="rect9"/>
  <rect x="26.038" y="24.537" width="4.0926" height="5.6111" fill="#303030" data-name="rect11"/>
  <rect x="32.722" y="23.854" width="7.6828" height=".7741" fill="#dcdcdc" data-name="rect5"/>
  <rect x="32.722" y="27.53" width="7.6828" height=".7741" fill="#dcdcdc" data-name="rect7"/>
  <rect x="32.722" y="25.692" width="4.8148" height=".7741" fill="#dcdcdc" data-name="rect9"/>
  <rect x="34.736" y="23.273" width="3.5049" height="5.6111" fill="#303030" data-name="rect11"/>
 </g>
 <g data-name="_x30_805-cap">
  <path d="M46.0039,16.106v4.6871c0,.1433-.0849.2599-.1891.2599h-1.9895c-.1043,0-.1891-.1166-.1891-.2599v-4.6861c0-.1442.0849-.2599.1891-.2599h1.9895c.1043-.0009.1891.1157.1891.259Z" fill="#dcdcdc"/>
  <rect x="43.636" y="16.822" width="2.3678" height="3.2542" fill="#6e554b"/>
 </g>
 <rect x="48.813" y="5.9477" width="16.408" height="23.528" fill="#009e69"/>
 <rect x="64.32" y="5.9471" width="2.3502" height="23.529" fill="#00774c"/>
 <rect x="49.887" y="22.746" width="2.5801" height="5.4036" fill="#0c3878"/>
 <ellipse cx="58.774" cy="25.424" rx="4.1128" ry="2.7018" fill="#b4b4b4"/>
 <path d="M57.615,24.982l.4994,1.2068-.0108-.0011.788,1.9305c.3147-.0059.6306-.0286.9476-.0843.317-.0557.6083-.14.8851-.2383l-.788-1.9305-.0046-.0088-.4847-1.1963-.0018.0005-.788-1.9305c-.3136.0059-.6306.0286-.9464.0843-.3159.0557-.6094.14-.8862.2383l.788,1.9305.0024-.001Z" fill="#646464"/>
 <rect x="64.677" y="22.734" width="1.5481" height="5.4036" fill="#8c8c8c"/>
 <rect x="49.887" y="14.904" width="2.5801" height="5.4036" fill="#0c3878"/>
 <ellipse cx="58.774" cy="17.581" rx="4.1128" ry="2.7018" fill="#b4b4b4"/>
 <path d="M57.615,17.1391l.4994,1.2068-.0108-.0011.788,1.9305c.3147-.0059.6306-.0286.9476-.0843.317-.0557.6083-.14.8851-.2383l-.788-1.9305-.0046-.0088-.4847-1.1963-.0018.0005-.788-1.9305c-.3136.0059-.6306.0286-.9464.0843-.3159.0557-.6094.14-.8862.2383l.788,1.9305.0024-.001Z" fill="#646464"/>
 <rect x="64.677" y="14.891" width="1.5481" height="5.4036" fill="#8c8c8c"/>
 <rect x="49.887" y="7.0607" width="2.5801" height="5.4036" fill="#00774c"/>
 <ellipse cx="58.774" cy="9.7378" rx="4.1128" ry="2.7018" fill="#b4b4b4"/>
 <path d="M57.615,9.2962l.4994,1.2068-.0108-.0011.788,1.9305c.3147-.0059.6306-.0286.9476-.0843.317-.0557.6083-.14.8851-.2383l-.788-1.9305-.0046-.0088-.4847-1.1963-.0018.0005-.788-1.9305c-.3136.0059-.6306.0286-.9464.0843-.3159.0557-.6094.14-.8862.2383l.788,1.9305.0024-.001Z" fill="#646464"/>
 <rect x="64.677" y="7.0482" width="1.5481" height="5.4036" fill="#8c8c8c"/>
 <rect x="48.813" y="13.685" width="16.408" height="23.528" fill="#009e69" data-name="rect4160"/>
 <rect x="64.321" y="13.684" width="2.3502" height="23.529" fill="#00774c" data-name="rect4237"/>
 <g data-name="g4185">
  <rect x="49.887" y="30.483" width="2.5801" height="5.4036" fill="#00774c" data-name="rect13"/>
  <g data-name="g4180">
   <g data-name="g4177">
    <ellipse cx="58.775" cy="33.16" rx="4.1128" ry="2.7018" fill="#b4b4b4" data-name="circle9"/>
   </g>
   <path d="M57.6151,32.7188l.4994,1.2068-.0108-.0011.788,1.9305c.3147-.0059.6306-.0286.9476-.0843.317-.0557.6083-.14.8851-.2383l-.788-1.9305-.0046-.0088-.4847-1.1963-.0018.0005-.788-1.9305c-.3136.0059-.6306.0286-.9464.0843-.3159.0557-.6094.14-.8862.2383l.788,1.9305.0024-.001Z" fill="#646464" data-name="path23"/>
  </g>
  <rect x="64.678" y="30.471" width="1.5481" height="5.4036" fill="#8c8c8c" data-name="rect19"/>
 </g>
 <g data-name="g4207">
  <rect x="49.887" y="22.64" width="2.5801" height="5.4036" fill="#00774c" data-name="rect4209"/>
  <g data-name="g4211">
   <g data-name="g4213">
    <ellipse cx="58.775" cy="25.318" rx="4.1128" ry="2.7018" fill="#b4b4b4" data-name="circle4215"/>
   </g>
   <path d="M57.6151,24.8759l.4994,1.2068-.0108-.0011.788,1.9305c.3147-.0059.6306-.0286.9476-.0843.317-.0557.6083-.14.8851-.2383l-.788-1.9305-.0046-.0088-.4847-1.1963-.0018.0005-.788-1.9305c-.3136.0059-.6306.0286-.9464.0843-.3159.0557-.6094.14-.8862.2383l.788,1.9305.0024-.001Z" fill="#646464" data-name="path4217"/>
  </g>
  <rect x="64.678" y="22.628" width="1.5481" height="5.4036" fill="#8c8c8c" data-name="rect4219"/>
 </g>
 <g data-name="g4221">
  <rect x="49.887" y="14.798" width="2.5801" height="5.4036" fill="#00774c" data-name="rect4223"/>
  <g data-name="g4225">
   <g data-name="g4227">
    <ellipse cx="58.775" cy="17.475" rx="4.1128" ry="2.7018" fill="#b4b4b4" data-name="circle4229"/>
   </g>
   <path d="M57.6151,17.033l.4994,1.2068-.0108-.0011.788,1.9305c.3147-.0059.6306-.0286.9476-.0843.317-.0557.6083-.14.8851-.2383l-.788-1.9305-.0046-.0088-.4847-1.1963-.0018.0005-.788-1.9305c-.3136.0059-.6306.0286-.9464.0843-.3159.0557-.6094.14-.8862.2383l.788,1.9305.0024-.001Z" fill="#646464" data-name="path4231"/>
  </g>
  <rect x="64.678" y="14.785" width="1.5481" height="5.4036" fill="#8c8c8c" data-name="rect4233"/>
 </g>
 <rect x="6.7792" y="5.9679" width="16.408" height="23.528" fill="#009e69" data-name="rect4160"/>
 <rect x="5.3293" y="5.9673" width="2.3502" height="23.529" fill="#00774c" data-name="rect4237"/>
 <g data-name="g4185">
  <rect x="19.533" y="22.767" width="2.5801" height="5.4036" fill="#0c3878" data-name="rect13"/>
  <g data-name="g4180">
   <g data-name="g4177">
    <ellipse cx="13.226" cy="25.444" rx="4.1128" ry="2.7018" fill="#b4b4b4" data-name="circle9"/>
   </g>
   <path d="M14.3849,25.0022l-.4994,1.2068.0108-.0011-.788,1.9305c-.3147-.0059-.6306-.0286-.9476-.0843-.317-.0557-.6083-.14-.8851-.2383l.788-1.9305.0046-.0088.4847-1.1963.0018.0005.788-1.9305c.3136.0059.6306.0286.9464.0843.3159.0557.6094.14.8862.2383l-.788,1.9305-.0024-.001Z" fill="#646464" data-name="path23"/>
  </g>
  <rect x="5.7745" y="22.754" width="1.5481" height="5.4036" fill="#8c8c8c" data-name="rect19"/>
 </g>
 <g data-name="g4207">
  <rect x="19.533" y="14.924" width="2.5801" height="5.4036" fill="#0c3878" data-name="rect4209"/>
  <g data-name="g4211">
   <g data-name="g4213">
    <ellipse cx="13.226" cy="17.601" rx="4.1128" ry="2.7018" fill="#b4b4b4" data-name="circle4215"/>
   </g>
   <path d="M14.3849,17.1593l-.4994,1.2068.0108-.0011-.788,1.9305c-.3147-.0059-.6306-.0286-.9476-.0843-.317-.0557-.6083-.14-.8851-.2383l.788-1.9305.0046-.0088.4847-1.1963.0018.0005.788-1.9305c.3136.0059.6306.0286.9464.0843.3159.0557.6094.14.8862.2383l-.788,1.9305-.0024-.001Z" fill="#646464" data-name="path4217"/>
  </g>
  <rect x="5.7745" y="14.911" width="1.5481" height="5.4036" fill="#8c8c8c" data-name="rect4219"/>
 </g>
 <g data-name="g4221">
  <rect x="19.533" y="7.0808" width="2.5801" height="5.4036" fill="#00774c" data-name="rect4223"/>
  <g data-name="g4225">
   <g data-name="g4227">
    <ellipse cx="13.226" cy="9.758" rx="4.1128" ry="2.7018" fill="#b4b4b4" data-name="circle4229"/>
   </g>
   <path d="M14.3849,9.3164l-.4994,1.2068.0108-.0011-.788,1.9305c-.3147-.0059-.6306-.0286-.9476-.0843-.317-.0557-.6083-.14-.8851-.2383l.788-1.9305.0046-.0088.4847-1.1963.0018.0005.788-1.9305c.3136.0059.6306.0286.9464.0843.3159.0557.6094.14.8862.2383l-.788,1.9305-.0024-.001Z" fill="#646464" data-name="path4231"/>
  </g>
  <rect x="5.7745" y="7.0684" width="1.5481" height="5.4036" fill="#8c8c8c" data-name="rect4233"/>
 </g>
 <rect x="6.7791" y="13.705" width="16.408" height="23.528" fill="#009e69" data-name="rect4160"/>
 <rect x="5.3292" y="13.704" width="2.3502" height="23.529" fill="#00774c" data-name="rect4237"/>
 <g data-name="g4185">
  <rect x="19.532" y="30.503" width="2.5801" height="5.4036" fill="#00774c" data-name="rect13"/>
  <g data-name="g4180">
   <g data-name="g4177">
    <ellipse cx="13.225" cy="33.181" rx="4.1128" ry="2.7018" fill="#b4b4b4" data-name="circle9"/>
   </g>
   <path d="M14.3848,32.739l-.4994,1.2068.0108-.0011-.788,1.9305c-.3147-.0059-.6306-.0286-.9476-.0843-.317-.0557-.6083-.14-.8851-.2383l.788-1.9305.0046-.0088.4847-1.1963.0018.0005.788-1.9305c.3136.0059.6306.0286.9464.0843.3159.0557.6094.14.8862.2383l-.788,1.9305-.0024-.001Z" fill="#646464" data-name="path23"/>
  </g>
  <rect x="5.7744" y="30.491" width="1.5481" height="5.4036" fill="#8c8c8c" data-name="rect19"/>
 </g>
 <g data-name="g4207">
  <rect x="19.532" y="22.661" width="2.5801" height="5.4036" fill="#00774c" data-name="rect4209"/>
  <g data-name="g4211">
   <g data-name="g4213">
    <ellipse cx="13.225" cy="25.338" rx="4.1128" ry="2.7018" fill="#b4b4b4" data-name="circle4215"/>
   </g>
   <path d="M14.3848,24.8961l-.4994,1.2068.0108-.0011-.788,1.9305c-.3147-.0059-.6306-.0286-.9476-.0843-.317-.0557-.6083-.14-.8851-.2383l.788-1.9305.0046-.0088.4847-1.1963.0018.0005.788-1.9305c.3136.0059.6306.0286.9464.0843.3159.0557.6094.14.8862.2383l-.788,1.9305-.0024-.001Z" fill="#646464" data-name="path4217"/>
  </g>
  <rect x="5.7744" y="22.648" width="1.5481" height="5.4036" fill="#8c8c8c" data-name="rect4219"/>
 </g>
 <g data-name="g4221">
  <rect x="19.532" y="14.818" width="2.5801" height="5.4036" fill="#00774c" data-name="rect4223"/>
  <g data-name="g4225">
   <g data-name="g4227">
    <ellipse cx="13.225" cy="17.495" rx="4.1128" ry="2.7018" fill="#b4b4b4" data-name="circle4229"/>
   </g>
   <path d="M14.3848,17.0532l-.4994,1.2068.0108-.0011-.788,1.9305c-.3147-.0059-.6306-.0286-.9476-.0843-.317-.0557-.6083-.14-.8851-.2383l.788-1.9305.0046-.0088.4847-1.1963.0018.0005.788-1.9305c.3136.0059.6306.0286.9464.0843.3159.0557.6094.14.8862.2383l-.788,1.9305-.0024-.001Z" fill="#646464" data-name="path4231"/>
  </g>
  <rect x="5.7744" y="14.805" width="1.5481" height="5.4036" fill="#8c8c8c" data-name="rect4233"/>
 </g>
 <metadata>
  <rdf:RDF xmlns:rdf="http://www.w3.org/1999/02/22-rdf-syntax-ns#">
   <cc:Work rdf:about="" xmlns:cc="http://creativecommons.org/ns#" xmlns:rdf="http://www.w3.org/1999/02/22-rdf-syntax-ns#">
    <dc:format xmlns:dc="http://purl.org/dc/elements/1.1/">image/svg+xml</dc:format>
    <dc:type rdf:resource="http://purl.org/dc/dcmitype/StillImage" xmlns:dc="http://purl.org/dc/elements/1.1/" xmlns:rdf="http://www.w3.org/1999/02/22-rdf-syntax-ns#"/>
    <dc:title xmlns:dc="http://purl.org/dc/elements/1.1/"/>
   </cc:Work>
  </rdf:RDF>
  <sfw>
   <slices/>
   <sliceSourceBounds x="0" y="0" width="72.27" height="43.2" bottomLeftOrigin="true"/>
  </sfw>
 </metadata>
</svg>
