<?xml version="1.0" encoding="UTF-8"?>
<!-- Generator: Adobe Illustrator 20.0.0, SVG Export Plug-In . SVG Version: 6.00 Build 0)  -->
<svg width="2in" height="1.1in" baseProfile="tiny" version="1.2" viewBox="0 0 144 79.2" xml:space="preserve" xmlns="http://www.w3.org/2000/svg" xmlns:xml="http://www.w3.org/XML/1998/namespace">
    <desc>
        <referenceFile>Adafruit 14-segment LED Alphanumeric Backpack_breadboard-blue.svg</referenceFile>
    </desc>
    <desc>Fritzing breadboard generated by brd2svg</desc>
    <g id="breadboard">
        <g id="icon">
            <path d="m144 7.2v64.8c0 3.976-3.224 7.2-7.2 7.2h-129.6c-3.976 0-7.2-3.224-7.2-7.2v-64.8c0-3.976 3.224-7.2 7.2-7.2h129.6c3.976 0 7.2 3.224 7.2 7.2m-8.235 66.6c-2e-3 1.566 1.266 2.836 2.831 2.838s2.836-1.266 2.838-2.831v-7e-3c2e-3 -1.566-1.266-2.836-2.831-2.838-1.566-2e-3 -2.836 1.266-2.838 2.831v7e-3zm-133.2 0c-3e-3 1.566 1.264 2.837 2.829 2.84 1.566 3e-3 2.837-1.264 2.84-2.829v-0.011c3e-3 -1.566-1.264-2.837-2.829-2.84s-2.837 1.264-2.84 2.829v0.011zm133.2-68.4c-2e-3 1.566 1.266 2.836 2.831 2.838s2.836-1.266 2.838-2.831v-7e-3c2e-3 -1.566-1.266-2.836-2.831-2.838-1.566-2e-3 -2.836 1.266-2.838 2.831v7e-3zm-133.2 0c-3e-3 1.566 1.264 2.837 2.83 2.84s2.837-1.264 2.84-2.829v-0.011c3e-3 -1.566-1.264-2.837-2.829-2.84s-2.837 1.264-2.84 2.829c-1e-3 4e-3 -1e-3 7e-3 -1e-3 0.011zm82.417-1.8c0 0.783 0.635 1.417 1.417 1.417 0.783 0 1.417-0.635 1.417-1.417s-0.634-1.417-1.416-1.417c-0.783 0-1.418 0.634-1.418 1.417zm-7.2 0c0 0.783 0.635 1.417 1.417 1.417 0.783 0 1.417-0.635 1.417-1.417s-0.634-1.417-1.416-1.417c-0.783 0-1.418 0.634-1.418 1.417zm-7.199 0c0 0.783 0.635 1.417 1.417 1.417 0.783 0 1.417-0.635 1.417-1.417s-0.634-1.417-1.417-1.417-1.417 0.634-1.417 1.417zm-7.2 0c0 0.783 0.635 1.417 1.417 1.417s1.417-0.635 1.417-1.417-0.634-1.417-1.417-1.417-1.417 0.634-1.417 1.417zm-7.2 0c0 0.783 0.635 1.417 1.417 1.417s1.417-0.635 1.417-1.417-0.634-1.417-1.417-1.417-1.417 0.634-1.417 1.417z" fill="#014CB1"/>
            <g>
                <title>layer 21</title>
                <g>
                    <title>text:C</title>
                    <g transform="translate(89.745 8.7408)">
                        
                            
                                
                                    <text fill="#FFFFFF" font-family="OCRA" font-size="2.6726">C</text>
                                
                            
                        
                    </g>
                </g>
                <g>
                    <title>text:D</title>
                    <g transform="translate(81.465 8.7408)">
                        
                            
                                
                                    <text fill="#FFFFFF" font-family="OCRA" font-size="2.6726">D</text>
                                
                            
                        
                    </g>
                </g>
                <g>
                    <title>text:-</title>
                    <g transform="translate(74.265 9.4608)">
                        
                            
                                
                                    <text fill="#FFFFFF" font-family="OCRA" font-size="2.6726">-</text>
                                
                            
                        
                    </g>
                </g>
                <g>
                    <title>text:+</title>
                    <g transform="translate(66.345 9.1008)">
                        
                            
                                
                                    <text fill="#FFFFFF" font-family="OCRA" font-size="2.6726">+</text>
                                
                            
                        
                    </g>
                </g>
                <g>
                    <title>text:0.54" 14-segment LED HT16K33 Backpack</title>
                    <g transform="translate(16.145 77.055)">
                        
                            
                                
                                    <text fill="#FFFFFF" font-family="OCRA" font-size="3.3408">0.54" 14-segment LED HT16K33 Backpack</text>
                                
                            
                        
                    </g>
                </g>
                <g>
                    <title>text:+</title>
                    <g transform="translate(59.505 9.1008)">
                        
                            
                                
                                    <text fill="#FFFFFF" font-family="OCRA" font-size="2.6726">+</text>
                                
                            
                        
                    </g>
                </g>
                <g>
                    <title>element:A0</title>
                    <g>
                        <title>package:SOLDERJUMPER_REFLOW_NOPASTE</title>
                    </g>
                </g>
                <g>
                    <title>element:A1</title>
                    <g>
                        <title>package:SOLDERJUMPER_REFLOW_NOPASTE</title>
                    </g>
                </g>
                <g>
                    <title>element:A2</title>
                    <g>
                        <title>package:SOLDERJUMPER_REFLOW_NOPASTE</title>
                    </g>
                </g>
                <g>
                    <title>element:C1</title>
                    <g>
                        <title>package:0805-NO</title>
                    </g>
                </g>
                <g>
                    <title>element:D1</title>
                    <g>
                        <title>package:SOD-323F</title>
                    </g>
                </g>
                <g>
                    <title>element:JP1</title>
                    <g>
                        <title>package:1X05_ROUND_70</title>
                    </g>
                </g>
                <g>
                    <title>element:LED1</title>
                    <g>
                        <title>package:SEGMENT_STARTBUST_DUAL_KWA-541CBB</title>
                        <line x2="72" y1="9.269" y2="9.269" fill="none" stroke="#fff" stroke-linecap="round" stroke-width=".36"/>
                        <line x1="72" y1="69.931" y2="69.931" fill="none" stroke="#fff" stroke-linecap="round" stroke-width=".36"/>
                        <line y1="69.931" y2="9.269" fill="none" stroke="#fff" stroke-linecap="round" stroke-width=".36"/>
                    </g>
                </g>
                <g>
                    <title>element:LED2</title>
                    <g>
                        <title>package:SEGMENT_STARTBUST_DUAL_KWA-541CBB</title>
                        <line x1="72" x2="144" y1="9.269" y2="9.269" fill="none" stroke="#fff" stroke-linecap="round" stroke-width=".36"/>
                        <line x1="144" x2="144" y1="9.269" y2="69.931" fill="none" stroke="#fff" stroke-linecap="round" stroke-width=".36"/>
                        <line x1="144" x2="72" y1="69.931" y2="69.931" fill="none" stroke="#fff" stroke-linecap="round" stroke-width=".36"/>
                    </g>
                </g>
                <g>
                    <title>element:R1</title>
                    <g>
                        <title>package:0805-NO</title>
                    </g>
                </g>
                <g>
                    <title>element:R2</title>
                    <g>
                        <title>package:0805-NO</title>
                    </g>
                </g>
                <g>
                    <title>element:R3</title>
                    <g>
                        <title>package:0805-NO</title>
                    </g>
                </g>
                <g>
                    <title>element:R4</title>
                    <g>
                        <title>package:0805-NO</title>
                    </g>
                </g>
                <g>
                    <title>element:R5</title>
                    <g>
                        <title>package:0805-NO</title>
                    </g>
                </g>
                <g>
                    <title>element:U$1</title>
                    <g>
                        <title>package:FIDUCIAL_1MM</title>
                    </g>
                </g>
                <g>
                    <title>element:U$2</title>
                    <g>
                        <title>package:FIDUCIAL_1MM</title>
                    </g>
                </g>
                <g>
                    <title>element:U$3</title>
                    <g>
                        <title>package:ADAFRUIT_9MM</title>
                    </g>
                </g>
                <g>
                    <title>element:U2</title>
                    <g>
                        <title>package:SOP28_300MIL</title>
                    </g>
                </g>
            </g>
            <circle id="connector5pin" cx="86.4" cy="3.6" r="1.969" fill="none" stroke="#9A916C" stroke-width="1.1027"/>
            <rect x="84.432" y="1.631" width="3.937" height="3.937" fill="none" stroke="#9A916C" stroke-width="1.1027"/>
            <circle id="connector6pin" cx="79.2" cy="3.6" r="1.969" fill="none" stroke="#9A916C" stroke-width="1.1027"/>
            <circle id="connector7pin" cx="72" cy="3.6" r="1.969" fill="none" stroke="#9A916C" stroke-width="1.1027"/>
            <circle id="connector8pin" cx="64.8" cy="3.6" r="1.969" fill="none" stroke="#9A916C" stroke-width="1.1027"/>
            <circle id="connector9pin" cx="57.6" cy="3.6" r="1.969" fill="none" stroke="#9A916C" stroke-width="1.1027"/>
        </g>
    </g>
    <g fill="#141414">
        <rect x=".425" y="9.624" width="71.15" height="59.953"/>
        <rect x="72.425" y="9.624" width="71.15" height="59.953"/>
    </g>
    <g fill="#50A0FF">
        <path d="m26.437 38.129h-6.329l-1.565 1.42 1.287 1.387h6.329l1.53-1.42-1.252-1.387zm-5.703-5.31-0.417 4.768h0.73l6.086-9.604 0.383-4.362h-0.974l-5.808 9.198zm8.972 4.904-1.6 1.42-1.252-1.386 1.252-14.305 1.982-1.758 0.939 0.981-1.321 15.048zm-12.832 0.034 1.287 1.386 1.565-1.42 1.113-12.715-1.287-1.387-1.53 1.387-1.148 12.749zm-7.095-0.034-1.6 1.42-1.252-1.386 1.321-15.116 1.113-0.981 1.669 1.758-1.251 14.305zm3.374-14.102h-1.565l-0.278 2.976 4.521 10.99h0.522l0.417-5.14-3.617-8.826zm-3.269 17.314-1.287-1.387 1.565-1.42h6.294l1.287 1.387-1.565 1.42h-6.294zm1.565-17.889-1.669-1.758 1.113-1.014h17.874l0.939 1.014-1.982 1.758h-16.275zm-3.93 35.778-0.939-1.015 1.982-1.792h16.275l1.669 1.792-1.113 1.015h-17.874zm7.72-17.314-6.085 9.604m6.085-9.604h0.73l-0.417 4.768-5.807 9.199h-1.009l0.417-4.362m15.823 1.351-0.278 3.01h-1.565l-3.617-8.86 0.452-5.106h0.522l4.486 10.956zm-19.717 3.924 0.939 1.014 1.982-1.792 1.287-14.305-1.287-1.386-1.565 1.42-1.356 15.049zm22.743 0.033-1.078 1.015-1.669-1.792 1.287-14.305 1.53-1.42 1.287 1.386-1.357 15.116zm-12.554-2.367 1.287 1.42 1.565-1.42 1.113-12.749-1.288-1.386-1.565 1.42-1.112 12.715zm16.162 3.365c0 0.783-0.635 1.417-1.417 1.417s-1.417-0.635-1.417-1.417 0.635-1.417 1.417-1.417 1.417 0.634 1.417 1.417z"/>
        <path d="m62.437 38.129h-6.329l-1.565 1.42 1.287 1.387h6.329l1.53-1.42-1.252-1.387zm-5.703-5.31-0.417 4.768h0.73l6.086-9.604 0.383-4.362h-0.974l-5.808 9.198zm8.972 4.904-1.6 1.42-1.252-1.386 1.252-14.305 1.982-1.758 0.939 0.981-1.321 15.048zm-12.832 0.034 1.287 1.386 1.565-1.42 1.113-12.715-1.287-1.387-1.53 1.387-1.148 12.749zm-7.095-0.034-1.6 1.42-1.252-1.386 1.321-15.116 1.113-0.981 1.669 1.758-1.251 14.305zm3.374-14.102h-1.565l-0.278 2.976 4.521 10.99h0.522l0.417-5.14-3.617-8.826zm-3.269 17.314-1.287-1.387 1.565-1.42h6.294l1.287 1.387-1.565 1.42h-6.294zm1.565-17.889-1.669-1.758 1.113-1.014h17.874l0.939 1.014-1.982 1.758h-16.275zm-3.93 35.778-0.939-1.015 1.982-1.792h16.275l1.669 1.792-1.113 1.015h-17.874zm7.72-17.314-6.086 9.604m6.086-9.604h0.73l-0.417 4.768-5.807 9.198h-1.008l0.417-4.362m15.822 1.352-0.278 3.01h-1.565l-3.617-8.86 0.452-5.106h0.522l4.486 10.956zm-19.717 3.924 0.939 1.014 1.982-1.792 1.287-14.305-1.287-1.386-1.565 1.42-1.356 15.049zm22.743 0.033-1.078 1.015-1.669-1.792 1.287-14.305 1.53-1.42 1.287 1.386-1.357 15.116zm-12.554-2.367 1.287 1.42 1.565-1.42 1.113-12.749-1.288-1.386-1.565 1.42-1.112 12.715zm16.162 3.365c0 0.783-0.635 1.417-1.417 1.417-0.783 0-1.417-0.635-1.417-1.417s0.635-1.417 1.417-1.417 1.417 0.634 1.417 1.417z"/>
        <path d="m98.437 38.129h-6.329l-1.565 1.42 1.287 1.387h6.329l1.53-1.42-1.252-1.387zm-5.703-5.31-0.417 4.768h0.73l6.086-9.604 0.383-4.362h-0.974l-5.808 9.198zm8.972 4.904-1.6 1.42-1.252-1.386 1.252-14.305 1.982-1.758 0.939 0.981-1.321 15.048zm-12.832 0.034 1.287 1.386 1.565-1.42 1.113-12.715-1.287-1.387-1.53 1.387-1.148 12.749zm-7.095-0.034-1.6 1.42-1.252-1.386 1.321-15.116 1.113-0.981 1.669 1.758-1.251 14.305zm3.374-14.102h-1.565l-0.278 2.976 4.521 10.99h0.522l0.417-5.14-3.617-8.826zm-3.269 17.314-1.287-1.387 1.565-1.42h6.294l1.287 1.387-1.565 1.42h-6.294zm1.565-17.889-1.669-1.758 1.113-1.014h17.874l0.939 1.014-1.982 1.758h-16.275zm-3.93 35.778-0.939-1.015 1.982-1.792h16.275l1.669 1.792-1.113 1.015h-17.874zm7.72-17.314-6.085 9.604m6.085-9.604h0.73l-0.417 4.768-5.807 9.199h-1.009l0.417-4.362m15.823 1.351-0.278 3.01h-1.565l-3.617-8.86 0.452-5.106h0.522l4.486 10.956zm-19.717 3.924 0.939 1.014 1.982-1.792 1.287-14.305-1.287-1.386-1.565 1.42-1.356 15.049zm22.743 0.033-1.078 1.015-1.669-1.792 1.287-14.305 1.53-1.42 1.287 1.386-1.357 15.116zm-12.554-2.367 1.287 1.42 1.565-1.42 1.113-12.749-1.288-1.386-1.565 1.42-1.112 12.715zm16.162 3.365c0 0.783-0.635 1.417-1.417 1.417s-1.417-0.635-1.417-1.417 0.635-1.417 1.417-1.417 1.417 0.634 1.417 1.417z"/>
        <path d="m134.44 38.129h-6.329l-1.565 1.42 1.287 1.387h6.329l1.53-1.42-1.252-1.387zm-5.703-5.31-0.417 4.768h0.73l6.086-9.604 0.383-4.362h-0.974l-5.808 9.198zm8.972 4.904-1.6 1.42-1.252-1.386 1.252-14.305 1.982-1.758 0.939 0.981-1.321 15.048zm-12.832 0.034 1.287 1.386 1.565-1.42 1.113-12.715-1.287-1.387-1.53 1.387-1.148 12.749zm-7.095-0.034-1.6 1.42-1.252-1.386 1.321-15.116 1.113-0.981 1.669 1.758-1.251 14.305zm3.374-14.102h-1.565l-0.278 2.976 4.521 10.99h0.522l0.417-5.14-3.617-8.826zm-3.269 17.314-1.287-1.387 1.565-1.42h6.294l1.287 1.387-1.565 1.42h-6.294zm1.565-17.889-1.669-1.758 1.113-1.014h17.874l0.939 1.014-1.982 1.758h-16.275zm-3.93 35.778-0.939-1.015 1.982-1.792h16.275l1.669 1.792-1.113 1.015h-17.874zm7.72-17.314-6.086 9.604m6.086-9.604h0.73l-0.417 4.768-5.807 9.198h-1.008l0.417-4.362m15.822 1.352-0.278 3.01h-1.565l-3.617-8.86 0.452-5.106h0.522l4.486 10.956zm-19.717 3.924 0.939 1.014 1.982-1.792 1.287-14.305-1.287-1.386-1.565 1.42-1.356 15.049zm22.743 0.033-1.078 1.015-1.669-1.792 1.287-14.305 1.53-1.42 1.287 1.386-1.357 15.116zm-12.554-2.367 1.287 1.42 1.565-1.42 1.113-12.749-1.288-1.386-1.565 1.42-1.112 12.715zm16.162 3.365c0 0.783-0.635 1.417-1.417 1.417-0.783 0-1.417-0.635-1.417-1.417s0.635-1.417 1.417-1.417 1.417 0.634 1.417 1.417z"/>
    </g>
</svg>
