<?xml version="1.0" encoding="UTF-8"?>
<!-- Created with Fritzing (http://www.fritzing.org/) -->
<svg width=".8in" height=".7in" baseProfile="tiny" version="1.2" viewBox="0 0 57.6 50.4" xmlns="http://www.w3.org/2000/svg">
 <desc>
  <referenceFile>SPI Flash Rev E_breadboard.svg</referenceFile>
 </desc>
 <desc>Fritzing breadboard generated by brd2svg</desc>
 <g id="breadboard">
  <g id="icon">
   <path d="m0 43.2v-36a7.2 7.2 0 0 1 7.2-7.2h43.2a7.2 7.2 0 0 1 7.2 7.2v36a7.2 7.2 0 0 1-7.2 7.2h-43.2a7.2 7.2 0 0 1-7.2-7.2m48.983 0a1.4173 1.4173 0 1 0 2.8346 0 1.4173 1.4173 0 1 0-2.8346 0zm-7.2 0a1.4173 1.4173 0 1 0 2.8346 0 1.4173 1.4173 0 1 0-2.8346 0zm-7.2 0a1.4173 1.4173 0 1 0 2.8346 0 1.4173 1.4173 0 1 0-2.8346 0zm-7.2 0a1.4173 1.4173 0 1 0 2.8346 0 1.4173 1.4173 0 1 0-2.8346 0zm-7.2 0a1.4173 1.4173 0 1 0 2.8346 0 1.4173 1.4173 0 1 0-2.8346 0zm-7.2 0a1.4173 1.4173 0 1 0 2.8346 0 1.4173 1.4173 0 1 0-2.8346 0zm-7.2 0a1.4173 1.4173 0 1 0 2.8346 0 1.4173 1.4173 0 1 0-2.8346 0zm-2.126-36a3.5433 3.5433 0 1 0 7.0866 0 3.5433 3.5433 0 1 0-7.0866 0zm43.2 0a3.5433 3.5433 0 1 0 7.0866 0 3.5433 3.5433 0 1 0-7.0866 0z" stroke-width="0"/>
   <g>
    <title>layer 21</title>
    <g>
     <title>text:VIN</title>
     <text x="7.2" y="39.8304" fill="#ffffff" font-family="OCRA" font-size="3.3408" stroke-width="0" text-anchor="middle">VIN</text>
    </g>
    <g>
     <title>text:3V3</title>
     <text x="14.4" y="49.5504" fill="#ffffff" font-family="OCRA" font-size="3.3408" stroke-width="0" text-anchor="middle">3V3</text>
    </g>
    <g>
     <title>text:GND</title>
     <text x="21.6" y="39.8304" fill="#ffffff" font-family="OCRA" font-size="3.3408" stroke-width="0" text-anchor="middle">GND</text>
    </g>
    <g>
     <title>text:SCK</title>
     <text x="28.8" y="49.5504" fill="#ffffff" font-family="OCRA" font-size="3.3408" stroke-width="0" text-anchor="middle">SCK</text>
    </g>
    <g>
     <title>text:MOSI</title>
     <text x="43.2" y="49.5504" fill="#ffffff" font-family="OCRA" font-size="3.3408" stroke-width="0" text-anchor="middle">MOSI</text>
    </g>
    <g>
     <title>text:CS</title>
     <text x="50.4" y="40.1904" fill="#ffffff" font-family="OCRA" font-size="3.3408" stroke-width="0" text-anchor="middle">CS</text>
    </g>
    <g>
     <title>text:MISO</title>
     <text x="36" y="40.1904" fill="#ffffff" font-family="OCRA" font-size="3.3408" stroke-width="0" text-anchor="middle">MISO</text>
    </g>
    <g>
     <title>text:SPI FLASH</title>
     <text x="28.8" y="5.688" fill="#ffffff" font-family="OCRA" font-size="4.176" stroke-width="0" text-anchor="middle">SPI FLASH</text>
    </g>
    <g>
     <title>text:W25Q128JV</title>
     <text x="29.16" y="11.088" fill="#ffffff" font-family="OCRA" font-size="4.176" stroke-width="0" text-anchor="middle">W25Q128JV</text>
    </g>
    <g>
     <title>element:C1</title>
     <g>
      <title>package:0603-NO</title>
      <line x1="36.72" x2="36.72" y1="33.786" y2="36.054" stroke="#fff" stroke-linecap="round" stroke-width=".864"/>
     </g>
    </g>
    <g>
     <title>element:C3</title>
     <g>
      <title>package:0805-NO</title>
      <line x1="9.72" x2="9.72" y1="15.12" y2="18" stroke="#fff" stroke-linecap="round" stroke-width=".864"/>
     </g>
    </g>
    <g>
     <title>element:C4</title>
     <g>
      <title>package:0805-NO</title>
      <line x1="10.08" x2="10.08" y1="30.24" y2="33.12" stroke="#fff" stroke-linecap="round" stroke-width=".864"/>
     </g>
    </g>
    <g>
     <title>element:FID2</title>
     <g>
      <title>package:FIDUCIAL_1MM</title>
     </g>
    </g>
    <g>
     <title>element:FID3</title>
     <g>
      <title>package:FIDUCIAL_1MM</title>
     </g>
    </g>
    <g>
     <title>element:JP2</title>
     <g>
      <title>package:1X07_ROUND_70</title>
     </g>
    </g>
    <g>
     <title>element:R1</title>
     <g>
      <title>package:0603-NO</title>
      <line x1="48.96" x2="48.96" y1="35.694" y2="33.426" stroke="#fff" stroke-linecap="round" stroke-width=".864"/>
     </g>
    </g>
    <g>
     <title>element:U$13</title>
     <g>
      <title>package:ADAFRUIT_2.5MM</title>
     </g>
    </g>
    <g>
     <title>element:U$16</title>
     <g>
      <title>package:MOUNTINGHOLE_2.5_PLATED</title>
      <circle cx="7.2" cy="7.2" r="5.6693" fill="none" stroke="#fff" stroke-width=".576"/>
     </g>
    </g>
    <g>
     <title>element:U$17</title>
     <g>
      <title>package:MOUNTINGHOLE_2.5_PLATED</title>
      <circle cx="50.4" cy="7.2" r="5.6693" fill="none" stroke="#fff" stroke-width=".576"/>
     </g>
    </g>
    <g>
     <title>element:U$21</title>
     <g>
      <title>package:PCBFEAT-REV-040</title>
     </g>
    </g>
    <g>
     <title>element:U1</title>
     <g>
      <title>package:SOIC8_208MIL</title>
      <line x1="48.946" x2="38.174" y1="31.283" y2="31.283" stroke="#fff" stroke-linecap="round" stroke-width=".576"/>
      <line x1="38.174" x2="48.946" y1="17.677" y2="17.677" stroke="#fff" stroke-linecap="round" stroke-width=".576"/>
      <circle cx="46.08" cy="29.952" r=".72" fill="none" stroke="#fff" stroke-width=".576"/>
     </g>
    </g>
    <g>
     <title>element:U3</title>
     <g>
      <title>package:TSSOP16</title>
      <line x1="29.808" x2="29.808" y1="18.729" y2="30.951" stroke="#fff" stroke-linecap="round" stroke-width=".576"/>
      <line x1="15.552" x2="15.552" y1="30.591" y2="18.729" stroke="#fff" stroke-linecap="round" stroke-width=".576"/>
      <circle cx="18.072" cy="28.296" r="1.296" fill="none" stroke="#fff" stroke-width=".576"/>
     </g>
    </g>
    <g>
     <title>element:U4</title>
     <g>
      <title>package:SOT23-5</title>
      <line x1="11.268" x2="6.7323" y1="19.443" y2="19.443" stroke="#fff" stroke-linecap="round" stroke-width=".576"/>
      <line x1="11.268" x2="6.7323" y1="28.797" y2="28.797" stroke="#fff" stroke-linecap="round" stroke-width=".576"/>
      <line x1="11.976" x2="11.976" y1="22.986" y2="25.254" stroke="#fff" stroke-linecap="round" stroke-width=".576"/>
     </g>
    </g>
   </g>
   <g>
    <title>layer 170</title>
    <g>
     <title>element:C1</title>
     <g>
      <title>package:0603-NO</title>
     </g>
    </g>
    <g>
     <title>element:C3</title>
     <g>
      <title>package:0805-NO</title>
     </g>
    </g>
    <g>
     <title>element:C4</title>
     <g>
      <title>package:0805-NO</title>
     </g>
    </g>
    <g>
     <title>element:FID2</title>
     <g>
      <title>package:FIDUCIAL_1MM</title>
     </g>
    </g>
    <g>
     <title>element:FID3</title>
     <g>
      <title>package:FIDUCIAL_1MM</title>
     </g>
    </g>
    <g>
     <title>element:JP2</title>
     <g>
      <title>package:1X07_ROUND_70</title>
     </g>
    </g>
    <g>
     <title>element:R1</title>
     <g>
      <title>package:0603-NO</title>
     </g>
    </g>
    <g>
     <title>element:U$13</title>
     <g>
      <title>package:ADAFRUIT_2.5MM</title>
     </g>
    </g>
    <g>
     <title>element:U$16</title>
     <g>
      <title>package:MOUNTINGHOLE_2.5_PLATED</title>
     </g>
    </g>
    <g>
     <title>element:U$17</title>
     <g>
      <title>package:MOUNTINGHOLE_2.5_PLATED</title>
     </g>
    </g>
    <g>
     <title>element:U$21</title>
     <g>
      <title>package:PCBFEAT-REV-040</title>
     </g>
    </g>
    <g>
     <title>element:U1</title>
     <g>
      <title>package:SOIC8_208MIL</title>
     </g>
    </g>
    <g>
     <title>element:U3</title>
     <g>
      <title>package:TSSOP16</title>
     </g>
    </g>
    <g>
     <title>element:U4</title>
     <g>
      <title>package:SOT23-5</title>
     </g>
    </g>
   </g>
   <rect id="connector5pin" x="32.787" y="33.503" width="3.0472" height="2.8346" fill="#9A916C" stroke-width="0"/>
   <rect id="connector6pin" x="37.606" y="33.503" width="3.0472" height="2.8346" fill="#9A916C" stroke-width="0"/>
   <rect id="connector7pin" x="5.2696" y="14.434" width="3.515" height="4.252" fill="#9A916C" stroke-width="0"/>
   <rect id="connector8pin" x="10.655" y="14.434" width="3.515" height="4.252" fill="#9A916C" stroke-width="0"/>
   <rect id="connector9pin" x="5.6296" y="29.554" width="3.515" height="4.252" fill="#9A916C" stroke-width="0"/>
   <rect id="connector10pin" x="11.015" y="29.554" width="3.515" height="4.252" fill="#9A916C" stroke-width="0"/>
   <rect id="connector11pin" x="1.1027" y="29.903" width="2.8346" height="2.8346" rx="1.4173" ry="1.4173" fill="#9A916C" stroke-width="0"/>
   <rect id="connector12pin" x="54.023" y="12.983" width="2.8346" height="2.8346" rx="1.4173" ry="1.4173" fill="#9A916C" stroke-width="0"/>
   <circle id="connector13pin" cx="50.4" cy="43.2" r="1.9687" fill="none" stroke="#9A916C" stroke-width="1.1027" connectorname="SS"/>
   <circle id="connector14pin" cx="43.2" cy="43.2" r="1.9687" fill="none" stroke="#9A916C" stroke-width="1.1027" connectorname="MOSI"/>
   <circle id="connector15pin" cx="36" cy="43.2" r="1.9687" fill="none" stroke="#9A916C" stroke-width="1.1027" connectorname="MISO_3.3V"/>
   <circle id="connector16pin" cx="28.8" cy="43.2" r="1.9687" fill="none" stroke="#9A916C" stroke-width="1.1027" connectorname="SCK"/>
   <circle id="connector17pin" cx="21.6" cy="43.2" r="1.9687" fill="none" stroke="#9A916C" stroke-width="1.1027" connectorname="GND"/>
   <circle id="connector18pin" cx="14.4" cy="43.2" r="1.9687" fill="none" stroke="#9A916C" stroke-width="1.1027" connectorname="3.3V"/>
   <circle id="connector19pin" cx="7.2" cy="43.2" r="1.9687" fill="none" stroke="#9A916C" stroke-width="1.1027" connectorname="VIN"/>
   <g transform="matrix(-1 0 0 -1 102.74 69.12)">
    <rect id="connector20pin" x="49.846" y="33.143" width="3.0472" height="2.8346" fill="#9A916C" stroke-width="0"/>
   </g>
   <g transform="matrix(-1 0 0 -1 93.101 69.12)">
    <rect id="connector21pin" x="45.027" y="33.143" width="3.0472" height="2.8346" fill="#9A916C" stroke-width="0"/>
   </g>
   <circle id="connector22pin" cx="7.2" cy="7.2" r="4.2633" fill="none" stroke="#9A916C" stroke-width="1.44" connectorname="P$1"/>
   <circle id="connector23pin" cx="50.4" cy="7.2" r="4.2633" fill="none" stroke="#9A916C" stroke-width="1.44" connectorname="P$1"/>
   <g transform="matrix(0 -1 1 0 23.077 82.837)">
    <rect id="connector24pin" x="52.106" y="26.762" width="1.7008" height="6.2362" fill="#9A916C" stroke-width="0"/>
   </g>
   <g transform="matrix(0 -1 1 0 26.677 79.237)">
    <rect id="connector25pin" x="52.106" y="23.162" width="1.7008" height="6.2362" fill="#9A916C" stroke-width="0"/>
   </g>
   <g transform="matrix(0 -1 1 0 30.277 75.637)">
    <rect id="connector26pin" x="52.106" y="19.562" width="1.7008" height="6.2362" fill="#9A916C" stroke-width="0"/>
   </g>
   <g transform="matrix(0 -1 1 0 33.877 72.037)">
    <rect id="connector27pin" x="52.106" y="15.962" width="1.7008" height="6.2362" fill="#9A916C" stroke-width="0"/>
   </g>
   <g transform="matrix(0 -1 1 0 15.083 53.243)">
    <rect id="connector28pin" x="33.313" y="15.962" width="1.7008" height="6.2362" fill="#9A916C" stroke-width="0"/>
   </g>
   <g transform="matrix(0 -1 1 0 11.483 56.843)">
    <rect id="connector29pin" x="33.313" y="19.562" width="1.7008" height="6.2362" fill="#9A916C" stroke-width="0"/>
   </g>
   <g transform="matrix(0 -1 1 0 7.8831 60.443)">
    <rect id="connector30pin" x="33.313" y="23.162" width="1.7008" height="6.2362" fill="#9A916C" stroke-width="0"/>
   </g>
   <g transform="matrix(0 -1 1 0 4.2832 64.043)">
    <rect id="connector31pin" x="33.313" y="26.762" width="1.7008" height="6.2362" fill="#9A916C" stroke-width="0"/>
   </g>
   <rect id="connector32pin" x="15.799" y="31.707" width=".864" height="2.808" fill="#9A916C" stroke-width="0"/>
   <rect id="connector33pin" x="17.642" y="31.707" width=".864" height="2.808" fill="#9A916C" stroke-width="0"/>
   <rect id="connector34pin" x="19.484" y="31.707" width=".864" height="2.808" fill="#9A916C" stroke-width="0"/>
   <rect id="connector35pin" x="21.327" y="31.707" width=".864" height="2.808" fill="#9A916C" stroke-width="0"/>
   <rect id="connector36pin" x="23.169" y="31.707" width=".864" height="2.808" fill="#9A916C" stroke-width="0"/>
   <rect id="connector37pin" x="25.012" y="31.707" width=".864" height="2.808" fill="#9A916C" stroke-width="0"/>
   <rect id="connector38pin" x="26.854" y="31.707" width=".864" height="2.808" fill="#9A916C" stroke-width="0"/>
   <rect id="connector39pin" x="28.697" y="31.707" width=".864" height="2.808" fill="#9A916C" stroke-width="0"/>
   <rect id="connector40pin" x="28.697" y="15.165" width=".864" height="2.808" fill="#9A916C" stroke-width="0"/>
   <rect id="connector41pin" x="26.854" y="15.165" width=".864" height="2.808" fill="#9A916C" stroke-width="0"/>
   <rect id="connector42pin" x="25.012" y="15.165" width=".864" height="2.808" fill="#9A916C" stroke-width="0"/>
   <rect id="connector43pin" x="23.169" y="15.165" width=".864" height="2.808" fill="#9A916C" stroke-width="0"/>
   <rect id="connector44pin" x="21.327" y="15.165" width=".864" height="2.808" fill="#9A916C" stroke-width="0"/>
   <rect id="connector45pin" x="19.484" y="15.165" width=".864" height="2.808" fill="#9A916C" stroke-width="0"/>
   <rect id="connector46pin" x="17.642" y="15.165" width=".864" height="2.808" fill="#9A916C" stroke-width="0"/>
   <rect id="connector47pin" x="15.799" y="15.165" width=".864" height="2.808" fill="#9A916C" stroke-width="0"/>
   <g transform="matrix(0 1 -1 0 26.742 16.112)">
    <rect id="connector48pin" x="4.5352" y="19.726" width="1.559" height="3.4016" fill="#9A916C" stroke-width="0"/>
   </g>
   <g transform="matrix(0 1 -1 0 29.435 18.805)">
    <rect id="connector49pin" x="4.5352" y="22.419" width="1.559" height="3.4016" fill="#9A916C" stroke-width="0"/>
   </g>
   <g transform="matrix(0 1 -1 0 32.128 21.498)">
    <rect id="connector50pin" x="4.5352" y="25.112" width="1.559" height="3.4016" fill="#9A916C" stroke-width="0"/>
   </g>
   <g transform="matrix(0 1 -1 0 39.498 14.128)">
    <rect id="connector51pin" x="11.906" y="25.112" width="1.559" height="3.4016" fill="#9A916C" stroke-width="0"/>
   </g>
   <g transform="matrix(0 1 -1 0 34.112 8.7417)">
    <rect id="connector52pin" x="11.906" y="19.726" width="1.559" height="3.4016" fill="#9A916C" stroke-width="0"/>
   </g>
  </g>
  <g transform="translate(34.452 33.786)">
   <path d="m4.245 2.268h-3.955c-0.16 0-0.29-0.13-0.29-0.291v-1.687c0-0.16 0.13-0.29 0.29-0.29h3.955c0.16 0 0.29 0.13 0.29 0.29v1.687c0 0.161-0.13 0.291-0.29 0.291z" fill="#DCDCDC"/>
   <rect x="1.134" width="2.268" height="2.268" fill="#6E554B"/>
  </g>
  <g transform="translate(6.8855 14.788)">
   <g id="0805-cap">
    <path d="m5.386 3.543h-5.103c-0.156 0-0.283-0.127-0.283-0.283v-2.977c0-0.156 0.127-0.283 0.283-0.283h5.102c0.157 0 0.283 0.127 0.283 0.283v2.977c1e-3 0.156-0.126 0.283-0.282 0.283z" fill="#DCDCDC"/>
    <rect x="1.063" width="3.543" height="3.543" fill="#6E554B"/>
   </g>
  </g>
  <g transform="translate(7.2455 29.908)">
   <path d="m5.386 3.543h-5.103c-0.156 0-0.283-0.127-0.283-0.283v-2.977c0-0.156 0.127-0.283 0.283-0.283h5.102c0.157 0 0.283 0.127 0.283 0.283v2.977c1e-3 0.156-0.126 0.283-0.282 0.283z" fill="#DCDCDC"/>
   <rect x="1.063" width="3.543" height="3.543" fill="#6E554B"/>
  </g>
  <g transform="translate(46.692 33.426)">
   <g transform="matrix(-1 0 0 -1 4.535 2.268)">
    <path d="m4.245 2.268h-3.955c-0.16 0-0.29-0.13-0.29-0.291v-1.687c0-0.16 0.13-0.29 0.29-0.29h3.955c0.16 0 0.29 0.13 0.29 0.29v1.687c0 0.161-0.13 0.291-0.29 0.291z" fill="#DCDCDC"/>
    <rect x="1.134" width="2.268" height="2.268" fill="#333"/>
   </g>
  </g>
  <g transform="translate(36.725 9.6636)">
   <path d="m9.747 3.082c-0.023-0.142-0.1-0.183-0.286-0.243-0.14197-0.045-1.089-0.347-1.089-0.347s-0.66-0.249-1.15 0.103c-0.066 0.048-0.134 0.102-0.203 0.16 0.058-0.069 0.112-0.137 0.159-0.203 0.352-0.49 0.101-1.15 0.101-1.15s-0.30302-0.947-0.34902-1.089c-0.06-0.186-0.1-0.263-0.243-0.285-0.142-0.023-0.204 0.038-0.318 0.197-0.087 0.12-0.667 0.928-0.667 0.928s-0.441 0.551-0.257 1.126c0.025 0.077 0.055 0.159 0.089 0.242-0.048-0.076-0.096-0.149-0.144-0.214-0.358-0.486-1.062-0.452-1.062-0.452s-0.995-4e-3 -1.143-4e-3c-0.195 0-0.281 0.014-0.347 0.143-0.065 0.128-0.027 0.206 0.089 0.364 0.088 0.12 0.677 0.921 0.677 0.921s0.388 0.59 0.991 0.592c0.081 0 0.168-3e-3 0.257-0.01-0.087001 0.021998-0.171 0.045998-0.248 0.070998-0.573 0.19-0.758 0.871-0.758 0.871s-0.31 0.944-0.357 1.085c-0.060998 0.186-0.072998 0.272 0.029002 0.374s0.188 0.09 0.374 0.028c0.141-0.046 1.085-0.359 1.085-0.359s0.681-0.187 0.869-0.76c0.025-0.077 0.049-0.16 0.07-0.247-0.005997 0.090003-0.008997 0.176-0.008997 0.257 4e-3 0.603 0.594 0.99 0.594 0.99s0.802 0.588 0.922 0.675c0.15802 0.116 0.236 0.154 0.36502 0.089 0.12795-0.066 0.143-0.152 0.14199-0.347-0.00101-0.149-0.00598-1.143-0.00598-1.143s0.03298-0.705-0.45403-1.062c-0.06502-0.048-0.13802-0.096-0.21398-0.143 0.083 0.034 0.165 0.064 0.242 0.088 0.575 0.183 1.125-0.259 1.125-0.259s0.80696-0.581 0.92699-0.668c0.15897-0.115 0.21902-0.177 0.19699-0.319zm-3.425-0.732c0.108 0.017 0.162 0.248 0.12 0.515s-0.164 0.47-0.273 0.453c-0.108-0.017-0.162-0.248-0.12-0.515 0.042-0.268 0.164-0.471 0.273-0.453zm-1.389 0.709c0.05-0.098 0.286-0.078 0.527 0.045 0.241 0.123 0.397 0.302 0.347 0.399-0.05 0.098-0.286 0.078-0.527-0.045-0.242-0.123-0.397-0.301-0.347-0.399zm0.732 1.334c-0.191 0.191-0.409 0.284-0.487 0.206-0.077-0.078 0.015-0.296 0.206-0.487 0.191-0.192 0.409-0.285 0.487-0.207s-0.014 0.296-0.206 0.488zm1.054 0.449c-0.098 0.05-0.277-0.105-0.4-0.346-0.123-0.242-0.144-0.478-0.046-0.528 0.098-0.05 0.277 0.105 0.4 0.346 0.123 0.242 0.144 0.478 0.046 0.528zm0.254-1.117c-0.267 0.042-0.498-0.011-0.516-0.119-0.017-0.109 0.186-0.231 0.453-0.274s0.498 0.011 0.515 0.119c0.018 0.109-0.18497 0.231-0.452 0.274z" fill="#DCDCDC"/>
  </g>
  <g transform="translate(36.473 13.861)">
   <g transform="matrix(0 -1 1 0 -3.5324 17.706)">
    <metadata>
     <rdf:RDF xmlns:rdf="http://www.w3.org/1999/02/22-rdf-syntax-ns#">
      <cc:Work rdf:about="" xmlns:cc="http://creativecommons.org/ns#" xmlns:rdf="http://www.w3.org/1999/02/22-rdf-syntax-ns#">
       <dc:format xmlns:dc="http://purl.org/dc/elements/1.1/">image/svg+xml</dc:format>
       <dc:type rdf:resource="http://purl.org/dc/dcmitype/StillImage" xmlns:dc="http://purl.org/dc/elements/1.1/" xmlns:rdf="http://www.w3.org/1999/02/22-rdf-syntax-ns#"/>
       <dc:title xmlns:dc="http://purl.org/dc/elements/1.1/"/>
      </cc:Work>
     </rdf:RDF>
    </metadata>
    <g transform="translate(-298.07 -411.34)">
     <g groupmode="layer">
      <g transform="matrix(0 -1 1 0 -119.99 729.23)">
       <g fill="#b3b3b3">
        <g transform="rotate(90)" fill="#b3b3b3" stroke-width="0">
         <rect x="430.03" y="-299.77" width="1.1339" height="3.1181"/>
         <rect x="426.43" y="-299.77" width="1.1339" height="3.1181"/>
         <rect x="422.83" y="-299.77" width="1.1339" height="3.1181"/>
         <rect x="419.23" y="-299.77" width="1.1339" height="3.1181"/>
        </g>
       </g>
      </g>
      <g transform="matrix(0 -1 1 0 -120 711.11)">
       <g fill="#b3b3b3">
        <g transform="rotate(90)" fill="#b3b3b3" stroke-width="0">
         <rect x="430.03" y="-299.77" width="1.1339" height="3.1181"/>
         <rect x="426.43" y="-299.77" width="1.1339" height="3.1181"/>
         <rect x="422.83" y="-299.77" width="1.1339" height="3.1181"/>
         <rect id="rect13074" x="419.23" y="-299.77" width="1.1339" height="3.1181"/>
        </g>
       </g>
      </g>
      <rect x="298.07" y="414.44" width="14.173" height="15.024" fill="#303030" stroke-width="0"/>
      <ellipse cx="300.36" cy="427.19" rx=".76207" ry=".75873" fill="#1f1f1f" stroke-width="0"/>
      <rect x="298.07" y="414.44" width=".74007" height="15.024"/>
      <rect x="311.47" y="414.46" width=".74891" height="15.006" fill="#4d4d4d"/>
      <g transform="matrix(1.323 0 0 1.3172 297.84 412.96)">
       <polygon points="10.886 12.527 10.31 11.951 0.74925 11.951 0.17325 12.527" fill="#1f1f1f" stroke-width="0"/>
      </g>
      <g transform="matrix(1.323 0 0 1.3172 297.84 408.72)">
       <polygon points="10.31 4.9257 0.74925 4.9257 0.17325 4.3497 10.886 4.3497" fill="#1f1f1f" stroke-width="0"/>
      </g>
     </g>
    </g>
   </g>
  </g>
  <g transform="translate(15.593 15.769)">
   <metadata>
    <rdf:RDF xmlns:rdf="http://www.w3.org/1999/02/22-rdf-syntax-ns#">
     <cc:Work rdf:about="" xmlns:cc="http://creativecommons.org/ns#" xmlns:rdf="http://www.w3.org/1999/02/22-rdf-syntax-ns#">
      <dc:format xmlns:dc="http://purl.org/dc/elements/1.1/">image/svg+xml</dc:format>
      <dc:type rdf:resource="http://purl.org/dc/dcmitype/StillImage" xmlns:dc="http://purl.org/dc/elements/1.1/" xmlns:rdf="http://www.w3.org/1999/02/22-rdf-syntax-ns#"/>
      <dc:title xmlns:dc="http://purl.org/dc/elements/1.1/"/>
     </cc:Work>
    </rdf:RDF>
   </metadata>
   <g transform="translate(-.6 15.191)">
    <g fill="#ccc" stroke-width="0">
     <rect x=".88338" y=".11617" width=".74895" height="2.8346"/>
     <rect x="2.7269" y=".11617" width=".74895" height="2.8346"/>
     <rect x="4.5694" y=".11617" width=".74895" height="2.8346"/>
     <rect x="6.412" y=".11617" width=".74895" height="2.8346"/>
    </g>
    <g transform="translate(7.3711)">
     <g fill="#ccc" stroke-width="0">
      <rect x=".88338" y=".11617" width=".74895" height="2.8346"/>
      <rect x="2.7269" y=".11617" width=".74895" height="2.8346"/>
      <rect x="4.5694" y=".11617" width=".74895" height="2.8346"/>
      <rect x="6.412" y=".11617" width=".74895" height="2.8346"/>
     </g>
    </g>
   </g>
   <g transform="translate(-.6 -.11617)">
    <g fill="#ccc" stroke-width="0">
     <rect x=".88338" y=".11617" width=".74895" height="2.8346"/>
     <rect x="2.7269" y=".11617" width=".74895" height="2.8346"/>
     <rect x="4.5694" y=".11617" width=".74895" height="2.8346"/>
     <rect x="6.412" y=".11617" width=".74895" height="2.8346"/>
    </g>
    <g transform="translate(7.3711)">
     <g fill="#ccc" stroke-width="0">
      <rect x=".88338" y=".11617" width=".74895" height="2.8346"/>
      <rect x="2.7269" y=".11617" width=".74895" height="2.8346"/>
      <rect x="4.5694" y=".11617" width=".74895" height="2.8346"/>
      <rect x="6.412" y=".11617" width=".74895" height="2.8346"/>
     </g>
    </g>
   </g>
   <g transform="matrix(1.1713 0 0 1.1713 0 1.3952)">
    <g transform="translate(-17.049 -16.404)">
     <polygon points="28.682 19.835 17.049 19.835 17.049 17.598 29.149 17.598" fill="#3d3d3d"/>
     <polygon points="29.149 28.36 17.049 28.36 17.049 26.056 28.682 26.056"/>
     <polygon points="28.682 27.341 29.149 28.36 29.149 17.598 28.682 18.759 27.811 18.759 27.811 27.334" fill="#141414"/>
     <polygon points="17.516 19.835 20.16 19.835 20.16 26.056 17.516 26.056 17.516 27.341 17.049 28.36 17.049 17.598 17.516 18.759" fill="#1f1f1f"/>
    </g>
    <path d="m0.4672 2.3552v8.5872h11.166v-8.5872h-11.166z" fill="#303030" connector-curvature="0"/>
    <circle cx="2.1408" cy="9.3704" r=".9712" fill="#212121"/>
   </g>
   <g transform="translate(-16.999 -11.61)">
    <g display="none">
     <g display="inline">
      <g transform="translate(1.3782 8.3218)">
       <text fill="#ffffff" font-family="DroidSans" font-size="0">16</text>
      </g>
      <g transform="translate(7.1641 8.3218)">
       <text fill="#ffffff" font-family="DroidSans" font-size="0">15</text>
      </g>
      <g transform="translate(12.95 8.3218)">
       <text fill="#ffffff" font-family="DroidSans" font-size="0">14</text>
      </g>
      <g transform="translate(18.734 8.3226)">
       <text fill="#ffffff" font-family="DroidSans" font-size="0">13</text>
      </g>
      <g transform="translate(25.322 8.3226)">
       <text fill="#ffffff" font-family="DroidSans" font-size="0">12</text>
      </g>
      <g transform="translate(30.306 8.3218)">
       <text fill="#ffffff" font-family="DroidSans" font-size="0">11</text>
      </g>
      <g transform="translate(36.092 8.3218)">
       <text fill="#ffffff" font-family="DroidSans" font-size="0">10</text>
      </g>
      <g transform="translate(42.678 8.3218)">
       <text fill="#ffffff" font-family="DroidSans" font-size="0">9</text>
      </g>
      <g transform="translate(42.678 40.222)">
       <text fill="#ffffff" font-family="DroidSans" font-size="0">8</text>
      </g>
      <g transform="translate(36.892 40.222)">
       <text fill="#ffffff" font-family="DroidSans" font-size="0">7</text>
      </g>
      <g transform="translate(31.106 40.222)">
       <text fill="#ffffff" font-family="DroidSans" font-size="0">6</text>
      </g>
      <g transform="translate(25.322 40.222)">
       <text fill="#ffffff" font-family="DroidSans" font-size="0">5</text>
      </g>
      <g transform="translate(19.534 40.222)">
       <text fill="#ffffff" font-family="DroidSans" font-size="0">4</text>
      </g>
      <g transform="translate(13.75 40.222)">
       <text fill="#ffffff" font-family="DroidSans" font-size="0">3</text>
      </g>
      <g transform="translate(7.9641 40.222)">
       <text fill="#ffffff" font-family="DroidSans" font-size="0">2</text>
      </g>
      <g transform="translate(2.1782 40.222)">
       <text fill="#ffffff" font-family="DroidSans" font-size="0">1</text>
      </g>
     </g>
    </g>
   </g>
  </g>
  <g transform="translate(4.89 20.293)">
   <g transform="matrix(0 1 -1 0 7.9371 -.283)">
    <rect x=".85" width="1.134" height="7.654" fill="#DCDCDC"/>
    <rect x="6.236" width="1.134" height="7.654" fill="#DCDCDC"/>
    <rect x="3.543" y="4.535" width="1.134" height="3.118" fill="#DCDCDC"/>
    <rect y="1.559" width="8.22" height="4.535" fill="#303030"/>
   </g>
  </g>
 </g>
</svg>
