<?xml version="1.0" encoding="UTF-8"?>
<!-- Generator: Adobe Illustrator 25.2.1, SVG Export Plug-In . SVG Version: 6.00 Build 0)  -->
<svg width="2.0368in" height=".475in" enable-background="new 0 0 146.6532 34.2" version="1.1" viewBox="0 0 146.65 34.2" xml:space="preserve" xmlns="http://www.w3.org/2000/svg" xmlns:xml="http://www.w3.org/XML/1998/namespace">
    <desc>
        <referenceFile>slide trinkey rev B_breadboard.svg</referenceFile>
    </desc>
    <desc>Fritzing breadboard generated by brd2svg</desc>
    <g id="breadboard">
        <g id="icon">
            <path d="m146.52 30.6c0 1.9882-1.6118 3.6-3.6 3.6h-135.72c-3.9765 0-7.2-3.2235-7.2-7.2v-19.8c0-3.9765 3.2235-7.2 7.2-7.2h135.72c1.9882 0 3.6 1.6118 3.6 3.6v27m-135.58-7.8307c0 0.9393 0.7615 1.7008 1.7008 1.7008s1.7008-0.7615 1.7008-1.7008-0.7615-1.7008-1.7008-1.7008-1.7008 0.7615-1.7008 1.7008zm0-11.339c0 0.9393 0.7615 1.7008 1.7008 1.7008s1.7008-0.7615 1.7008-1.7008-0.7615-1.7008-1.7008-1.7008-1.7008 0.7615-1.7008 1.7008zm94.961 11.339c0 0.9393 0.7615 1.7008 1.7008 1.7008s1.7008-0.7615 1.7008-1.7008-0.7615-1.7008-1.7008-1.7008-1.7008 0.7615-1.7008 1.7008z"/>
            
                
                    <g transform="translate(125.62 33.941)">
                        <text fill="#FFFFFF" font-family="'OCRA'" font-size="2.6726">Slide</text>
                    </g>
                
                
                    <g transform="translate(138.6 1.44)">
                        
                            <g transform="rotate(180)">
                                
                                    <g transform="translate(-6e-4 5e-4)">
                                        <text fill="#FFFFFF" font-family="'OCRA'" font-size="2.6726">Trinkey</text>
                                    </g>
                                
                            </g>
                        
                    </g>
                
                
                    <g fill="none" stroke="#fff" stroke-width=".36">
                        <line x1="23.392" x2="23.392" y1="21.635" y2="12.565" stroke-linecap="round"/>
                        <line x1="23.392" x2="28.777" y1="12.565" y2="12.565" stroke-linecap="round"/>
                        <line x1="28.777" x2="31.329" y1="12.565" y2="12.565" stroke-linecap="round"/>
                        <line x1="31.329" x2="31.329" y1="12.565" y2="15.116" stroke-linecap="round"/>
                        <line x1="31.329" x2="31.329" y1="15.116" y2="21.635" stroke-linecap="round"/>
                        <line x1="31.329" x2="23.392" y1="21.635" y2="21.635" stroke-linecap="round"/>
                        <line x1="28.777" x2="31.329" y1="12.565" y2="15.116" stroke-linecap="round"/>
                        <line x1="31.329" x2="32.179" y1="15.116" y2="15.966" stroke-linecap="round"/>
                        <line x1="32.179" x2="33.313" y1="15.966" y2="14.832" stroke-linecap="round"/>
                        <line x1="33.313" x2="31.329" y1="14.832" y2="12.565" stroke-linecap="round"/>
                        <circle cx="27.36" cy="17.1" r="3.1181"/>
                    </g>
                
                
                    <g fill="none" stroke="#fff" stroke-width=".36">
                        <line x1="96.489" x2="96.489" y1="12.565" y2="21.635" stroke-linecap="round"/>
                        <line x1="96.489" x2="91.102" y1="21.635" y2="21.635" stroke-linecap="round"/>
                        <line x1="91.102" x2="88.552" y1="21.635" y2="21.635" stroke-linecap="round"/>
                        <line x1="88.552" x2="88.552" y1="21.635" y2="19.084" stroke-linecap="round"/>
                        <line x1="88.552" x2="88.552" y1="19.084" y2="12.565" stroke-linecap="round"/>
                        <line x1="88.552" x2="96.489" y1="12.565" y2="12.565" stroke-linecap="round"/>
                        <line x1="91.102" x2="88.552" y1="21.635" y2="19.084" stroke-linecap="round"/>
                        <line x1="88.552" x2="87.701" y1="19.084" y2="18.234" stroke-linecap="round"/>
                        <line x1="87.701" x2="86.567" y1="18.234" y2="19.368" stroke-linecap="round"/>
                        <line x1="86.567" x2="88.552" y1="19.368" y2="21.635" stroke-linecap="round"/>
                        <circle cx="92.52" cy="17.1" r="3.1181"/>
                    </g>
                
                
                    <g fill="none" stroke="#fff" stroke-linecap="round" stroke-width=".432">
                        <line x1="10.514" x2="109.73" y1="4.3441" y2="4.3441"/>
                        <line x1="109.73" x2="109.73" y1="4.3441" y2="29.856"/>
                        <line x1="109.73" x2="10.514" y1="29.856" y2="29.856"/>
                        <line x1="10.514" x2="10.514" y1="29.856" y2="4.3441"/>
                        <line x1="21.852" x2="98.388" y1="12.848" y2="12.848"/>
                        <line x1="98.388" x2="98.388" y1="12.848" y2="21.352"/>
                        <line x1="98.388" x2="21.852" y1="21.352" y2="21.352"/>
                        <line x1="21.852" x2="21.852" y1="21.352" y2="12.848"/>
                    </g>
                
                
                    
                        <circle cx="2.5201" cy="5.94" r="1.2756" fill="none" stroke="#fff" stroke-width=".576"/>
                    
                
            
            <g transform="matrix(-1 0 0 -1 266.09 54.043)">
                
                    <rect id="connector5pin" x="122.42" y="24.895" width="21.26" height="4.252" fill="#9A916C"/>
                
            </g>
            <g transform="matrix(-1 0 0 -1 263.26 28.531)">
                
                    <rect id="connector6pin" x="122.42" y="12.848" width="18.425" height="2.8347" fill="#9A916C"/>
                
            </g>
            <g transform="matrix(-1 0 0 -1 263.26 39.869)">
                
                    <rect id="connector7pin" x="122.42" y="18.517" width="18.425" height="2.8347" fill="#9A916C"/>
                
            </g>
            <g transform="matrix(-1 0 0 -1 266.09 14.357)">
                
                    <rect id="connector8pin" x="122.42" y="5.0528" width="21.26" height="4.252" fill="#9A916C"/>
                
            </g>
            <circle id="connector9pin" cx="12.64" cy="22.769" r="2.4095" fill="none" stroke="#9A916C" stroke-width="1.4173"/>
            <circle id="connector10pin" cx="12.64" cy="11.431" r="2.4095" fill="none" stroke="#9A916C" stroke-width="1.4173"/>
            <circle id="connector11pin" cx="107.6" cy="22.769" r="2.4094" fill="none" stroke="#9A916C" stroke-width="1.4173"/>
            <path id="connector12pin" d="m2.5201 5.2313c0.3914 0 0.7087 0.3173 0.7087 0.7087s-0.3173 0.7087-0.7087 0.7087-0.7087-0.3173-0.7087-0.7087 0.3173-0.7087 0.7087-0.7087z" fill="#9A916C"/>
        </g>
    </g>
    <g transform="matrix(-1 0 0 -1 152.33 26.957)">
        
            
                
                    
                        <path id="connector16pin_1_" d="m144.97-7.319c3.966 0.0025 7.1785 2.4545 7.1752 5.4768l-0.0253 23.408c-0.0033 3.0222-3.221 5.4702-7.187 5.4677" fill="#9A916C"/>
                    
                
            
        
    </g>
    
        
            
                
                    <rect x="10.514" y="4.3425" width="99.213" height="25.515" fill="#A0A0A0"/>
                
            
            <g opacity=".2">
                
                    <rect x="10.514" y="4.3425" width="99.213" height="1.099" fill="#fff"/>
                
            
            
                
                    <rect x="10.514" y="28.758" width="99.213" height="1.099"/>
                
            </g>
            <rect x="19.395" y="12.66" width="81.605" height="8.875" fill="#1A1A1A"/>
            <rect x="20.194" y="14.758" width="79.965" height="4.683" fill="#7C7C7C"/>
            
                
                    <rect x="19.395" y="12.414" width="81.605" height=".496"/>
                
            
            <g opacity=".4">
                
                    <rect x="19.395" y="21.216" width="81.605" height=".547" fill="#fff"/>
                
            </g>
            <rect x="19.395" y="12.66" width="81.605" height="3.402" enable-background="new    " opacity=".4"/>
            <path d="m47.468 26.314c0 0.551-1.1653 1-2.5895 1h-16.508c-1.4242 0-2.5895-0.449-2.5895-1v-18.5c0-0.553 1.1653-1 2.5895-1h16.508c1.4242 0 2.5895 0.447 2.5895 1v18.5z" fill="#fff"/>
            <rect x="28.935" y="6.8145" width="8.983" height="20.5" fill="#fff"/>
            <rect x="32.172" y="6.8145" width="5.179" height="20.5" fill="#fff"/>
            <rect x="35.181" y="6.8145" width="2.8873" height="20.5" fill="#E0E0E0"/>
            <path d="m47.468 8.3145c0-0.553-1.1653-1-2.5895-1h-16.508c-1.4242 0-2.5895 0.447-2.5895 1v-0.5c0-0.553 1.1653-1 2.5895-1h16.508c1.4242 0 2.5895 0.447 2.5895 1v0.5z" enable-background="new    " fill="#fff" opacity=".2"/>
            <path d="m25.781 25.814c0 0.551 1.1653 1 2.5895 1h16.508c1.4242 0 2.5895-0.449 2.5895-1v0.5c0 0.551-1.1653 1-2.5895 1h-16.508c-1.4242 0-2.5895-0.449-2.5895-1v-0.5z" enable-background="new    " fill="#fff" opacity=".2"/>
        
        <circle cx="15.026" cy="17.098" r="2.8486"/>
        <circle cx="105.34" cy="17.064" r="2.8486"/>
    
</svg>
