<?xml version="1.0" encoding="UTF-8"?>
<!-- Created with Fritzing (http://www.fritzing.org/) -->
<svg width=".6in" height=".805in" baseProfile="tiny" version="1.2" viewBox="0 0 43.2 57.96" xmlns="http://www.w3.org/2000/svg">
 <desc>
  <referenceFile>FET_I2CShifter_v0.2_breadboard.svg</referenceFile>
 </desc>
 <desc>Fritzing breadboard generated by brd2svg</desc>
 <g id="breadboard">
  <g id="icon">
   <path d="m36 57.96h-28.8a7.2 7.2 0 0 1-7.2-7.2v-43.56a7.2 7.2 0 0 1 7.2-7.2h28.8a7.2 7.2 0 0 1 7.2 7.2v43.56a7.2 7.2 0 0 1-7.2 7.2m-30.24-10.8a1.44 1.44 0 1 0 2.88 0 1.44 1.44 0 1 0-2.88 0zm0-7.2a1.44 1.44 0 1 0 2.88 0 1.44 1.44 0 1 0-2.88 0zm0-7.2a1.44 1.44 0 1 0 2.88 0 1.44 1.44 0 1 0-2.88 0zm0-7.2a1.44 1.44 0 1 0 2.88 0 1.44 1.44 0 1 0-2.88 0zm0-7.2a1.44 1.44 0 1 0 2.88 0 1.44 1.44 0 1 0-2.88 0zm0-7.2a1.44 1.44 0 1 0 2.88 0 1.44 1.44 0 1 0-2.88 0zm28.8 36a1.44 1.44 0 1 0 2.88 0 1.44 1.44 0 1 0-2.88 0zm0-7.2a1.44 1.44 0 1 0 2.88 0 1.44 1.44 0 1 0-2.88 0zm0-7.2a1.44 1.44 0 1 0 2.88 0 1.44 1.44 0 1 0-2.88 0zm0-7.2a1.44 1.44 0 1 0 2.88 0 1.44 1.44 0 1 0-2.88 0zm0-7.2a1.44 1.44 0 1 0 2.88 0 1.44 1.44 0 1 0-2.88 0zm0-7.2a1.44 1.44 0 1 0 2.88 0 1.44 1.44 0 1 0-2.88 0z" fill="#014cb1" stroke-width="0"/>
   <g>
    <title>layer 21</title>
    <g>
     <title>text:HV</title>
     <g transform="translate(42.581 8.28)">
      <g transform="rotate(270)">
       <text fill="#ffffff" font-family="OCRA" font-size="3.3408" stroke-width="0" text-anchor="end">HV</text>
      </g>
     </g>
    </g>
    <g>
     <title>text:LV</title>
     <g transform="translate(3.96 13.32)">
      <g transform="rotate(270)">
       <text fill="#ffffff" font-family="OCRA" font-size="3.3408" stroke-width="0">LV</text>
      </g>
     </g>
    </g>
    <g>
     <title>text:B2</title>
     <g transform="translate(42.581 22.68)">
      <g transform="rotate(270)">
       <text fill="#ffffff" font-family="OCRA" font-size="3.3408" stroke-width="0" text-anchor="end">B2</text>
      </g>
     </g>
    </g>
    <g>
     <title>text:GND</title>
     <g transform="translate(42.581 45)">
      <g transform="rotate(270)">
       <text fill="#ffffff" font-family="OCRA" font-size="3.3408" stroke-width="0" text-anchor="end">GND</text>
      </g>
     </g>
    </g>
    <g>
     <title>text:B1</title>
     <g transform="translate(42.581 15.48)">
      <g transform="rotate(270)">
       <text fill="#ffffff" font-family="OCRA" font-size="3.3408" stroke-width="0" text-anchor="end">B1</text>
      </g>
     </g>
    </g>
    <g>
     <title>text:A2</title>
     <g transform="translate(3.96 27.72)">
      <g transform="rotate(270)">
       <text fill="#ffffff" font-family="OCRA" font-size="3.3408" stroke-width="0">A2</text>
      </g>
     </g>
    </g>
    <g>
     <title>text:GND</title>
     <g transform="translate(4.4208 45)">
      <g transform="rotate(270)">
       <text fill="#ffffff" font-family="OCRA" font-size="3.3408" stroke-width="0" text-anchor="end">GND</text>
      </g>
     </g>
    </g>
    <g>
     <title>text:A1</title>
     <g transform="translate(3.96 20.52)">
      <g transform="rotate(270)">
       <text fill="#ffffff" font-family="OCRA" font-size="3.3408" stroke-width="0">A1</text>
      </g>
     </g>
    </g>
    <g>
     <title>text:4 Bi-Directional</title>
     <text x="3.24" y="4.68" fill="#ffffff" font-family="OCRA" font-size="3.3408" stroke-width="0">4 Bi-Directional</text>
    </g>
    <g>
     <title>text:Level Shifters</title>
     <text x="5.4" y="55.8" fill="#ffffff" font-family="OCRA" font-size="3.3408" stroke-width="0">Level Shifters</text>
    </g>
    <g>
     <title>text:A4</title>
     <g transform="translate(3.96 42.12)">
      <g transform="rotate(270)">
       <text fill="#ffffff" font-family="OCRA" font-size="3.3408" stroke-width="0">A4</text>
      </g>
     </g>
    </g>
    <g>
     <title>text:A3</title>
     <g transform="translate(3.96 34.92)">
      <g transform="rotate(270)">
       <text fill="#ffffff" font-family="OCRA" font-size="3.3408" stroke-width="0">A3</text>
      </g>
     </g>
    </g>
    <g>
     <title>text:B3</title>
     <g transform="translate(42.581 29.88)">
      <g transform="rotate(270)">
       <text fill="#ffffff" font-family="OCRA" font-size="3.3408" stroke-width="0" text-anchor="end">B3</text>
      </g>
     </g>
    </g>
    <g>
     <title>text:B4</title>
     <g transform="translate(42.581 37.08)">
      <g transform="rotate(270)">
       <text fill="#ffffff" font-family="OCRA" font-size="3.3408" stroke-width="0" text-anchor="end">B4</text>
      </g>
     </g>
    </g>
    <g>
     <title>element:JP3</title>
     <g>
      <title>package:1X06-CLEANBIG</title>
     </g>
    </g>
    <g>
     <title>element:JP4</title>
     <g>
      <title>package:1X06-CLEANBIG</title>
     </g>
    </g>
    <g>
     <title>element:Q1</title>
     <g>
      <title>package:SOT23</title>
     </g>
    </g>
    <g>
     <title>element:Q2</title>
     <g>
      <title>package:SOT23</title>
     </g>
    </g>
    <g>
     <title>element:Q3</title>
     <g>
      <title>package:SOT23</title>
     </g>
    </g>
    <g>
     <title>element:Q4</title>
     <g>
      <title>package:SOT23</title>
     </g>
    </g>
    <g>
     <title>element:R1</title>
     <g>
      <title>package:R0805</title>
      <g transform="matrix(-1 0 0 -1 13.767 9.7242)">
       <rect x="-.92126" y="-1.9843" width="1.8425" height="3.9685" fill="#fff" stroke-width="0"/>
      </g>
      <g transform="matrix(-1 0 0 -1 17.943 9.7242)">
       <rect x="-.92126" y="-1.9843" width="1.8425" height="3.9685" fill="#fff" stroke-width="0"/>
      </g>
     </g>
    </g>
    <g>
     <title>element:R2</title>
     <g>
      <title>package:R0805</title>
      <rect x="29.232" y="26.1" width="1.8425" height="3.9685" fill="#fff" stroke-width="0"/>
      <rect x="25.056" y="26.1" width="1.8425" height="3.9685" fill="#fff" stroke-width="0"/>
     </g>
    </g>
    <g>
     <title>element:R3</title>
     <g>
      <title>package:R0805</title>
      <g transform="matrix(-1 0 0 -1 24.567 9.7242)">
       <rect x="-.92126" y="-1.9843" width="1.8425" height="3.9685" fill="#fff" stroke-width="0"/>
      </g>
      <g transform="matrix(-1 0 0 -1 28.743 9.7242)">
       <rect x="-.92126" y="-1.9843" width="1.8425" height="3.9685" fill="#fff" stroke-width="0"/>
      </g>
     </g>
    </g>
    <g>
     <title>element:R4</title>
     <g>
      <title>package:R0805</title>
      <g transform="matrix(-1 0 0 -1 13.767 15.484)">
       <rect x="-.92126" y="-1.9843" width="1.8425" height="3.9685" fill="#fff" stroke-width="0"/>
      </g>
      <g transform="matrix(-1 0 0 -1 17.943 15.484)">
       <rect x="-.92126" y="-1.9843" width="1.8425" height="3.9685" fill="#fff" stroke-width="0"/>
      </g>
     </g>
    </g>
    <g>
     <title>element:R5</title>
     <g>
      <title>package:R0805</title>
      <g transform="matrix(-1 0 0 -1 13.767 32.044)">
       <rect x="-.92126" y="-1.9843" width="1.8425" height="3.9685" fill="#fff" stroke-width="0"/>
      </g>
      <g transform="matrix(-1 0 0 -1 17.943 32.044)">
       <rect x="-.92126" y="-1.9843" width="1.8425" height="3.9685" fill="#fff" stroke-width="0"/>
      </g>
     </g>
    </g>
    <g>
     <title>element:R6</title>
     <g>
      <title>package:R0805</title>
      <g transform="matrix(-1 0 0 -1 26.007 29.884)">
       <rect x="-.92126" y="-1.9843" width="1.8425" height="3.9685" fill="#fff" stroke-width="0"/>
      </g>
      <g transform="matrix(-1 0 0 -1 30.183 29.884)">
       <rect x="-.92126" y="-1.9843" width="1.8425" height="3.9685" fill="#fff" stroke-width="0"/>
      </g>
     </g>
    </g>
    <g>
     <title>element:R7</title>
     <g>
      <title>package:R0805</title>
      <g transform="matrix(-1 0 0 -1 25.287 46.444)">
       <rect x="-.92126" y="-1.9843" width="1.8425" height="3.9685" fill="#fff" stroke-width="0"/>
      </g>
      <g transform="matrix(-1 0 0 -1 29.463 46.444)">
       <rect x="-.92126" y="-1.9843" width="1.8425" height="3.9685" fill="#fff" stroke-width="0"/>
      </g>
     </g>
    </g>
    <g>
     <title>element:R8</title>
     <g>
      <title>package:R0805</title>
      <g transform="matrix(-1 0 0 -1 13.767 38.524)">
       <rect x="-.92126" y="-1.9843" width="1.8425" height="3.9685" fill="#fff" stroke-width="0"/>
      </g>
      <g transform="matrix(-1 0 0 -1 17.943 38.524)">
       <rect x="-.92126" y="-1.9843" width="1.8425" height="3.9685" fill="#fff" stroke-width="0"/>
      </g>
     </g>
    </g>
    <g>
     <title>element:U$1</title>
     <g>
      <title>package:ADAFRUIT_3.5MM</title>
     </g>
    </g>
   </g>
   <circle id="connector5pin" cx="7.2" cy="47.16" r="1.98" fill="none" stroke="#9A916C" stroke-width="1.08" connectorname="GND"/>
   <circle id="connector6pin" cx="7.2" cy="39.96" r="1.98" fill="none" stroke="#9A916C" stroke-width="1.08" connectorname="A4"/>
   <circle id="connector7pin" cx="7.2" cy="32.76" r="1.98" fill="none" stroke="#9A916C" stroke-width="1.08" connectorname="A3"/>
   <circle id="connector8pin" cx="7.2" cy="25.56" r="1.98" fill="none" stroke="#9A916C" stroke-width="1.08" connectorname="A2"/>
   <circle id="connector9pin" cx="7.2" cy="18.36" r="1.98" fill="none" stroke="#9A916C" stroke-width="1.08" connectorname="A1"/>
   <circle id="connector10pin" cx="7.2" cy="11.16" r="1.98" fill="none" stroke="#9A916C" stroke-width="1.08" connectorname="LV"/>
   <circle id="connector11pin" cx="36" cy="47.16" r="1.98" fill="none" stroke="#9A916C" stroke-width="1.08" connectorname="GND"/>
   <circle id="connector12pin" cx="36" cy="39.96" r="1.98" fill="none" stroke="#9A916C" stroke-width="1.08" connectorname="B4"/>
   <circle id="connector13pin" cx="36" cy="32.76" r="1.98" fill="none" stroke="#9A916C" stroke-width="1.08" connectorname="B3"/>
   <circle id="connector14pin" cx="36" cy="25.56" r="1.98" fill="none" stroke="#9A916C" stroke-width="1.08" connectorname="B2"/>
   <circle id="connector15pin" cx="36" cy="18.36" r="1.98" fill="none" stroke="#9A916C" stroke-width="1.08" connectorname="B1"/>
   <circle id="connector16pin" cx="36" cy="11.16" r="1.98" fill="none" stroke="#9A916C" stroke-width="1.08" connectorname="HV"/>
   <g transform="matrix(0 1 -1 0 37.749 -9.2948)">
    <rect id="connector17pin" x="22.105" y="12.243" width="2.8346" height="3.9685" fill="#9A916C" stroke-width="0"/>
   </g>
   <g transform="matrix(0 1 -1 0 43.135 -3.909)">
    <rect id="connector18pin" x="22.105" y="17.629" width="2.8346" height="3.9685" fill="#9A916C" stroke-width="0"/>
   </g>
   <g transform="matrix(0 1 -1 0 46.678 -12.838)">
    <rect id="connector19pin" x="28.341" y="14.936" width="2.8346" height="3.9685" fill="#9A916C" stroke-width="0"/>
   </g>
   <g transform="matrix(0 1 -1 0 35.589 7.2652)">
    <rect id="connector20pin" x="12.745" y="19.443" width="2.8346" height="3.9685" fill="#9A916C" stroke-width="0"/>
   </g>
   <g transform="matrix(0 1 -1 0 40.975 12.651)">
    <rect id="connector21pin" x="12.745" y="24.829" width="2.8346" height="3.9685" fill="#9A916C" stroke-width="0"/>
   </g>
   <g transform="matrix(0 1 -1 0 44.518 3.7219)">
    <rect id="connector22pin" x="18.981" y="22.136" width="2.8346" height="3.9685" fill="#9A916C" stroke-width="0"/>
   </g>
   <g transform="matrix(0 1 -1 0 59.349 10.865)">
    <rect id="connector23pin" x="22.825" y="33.123" width="2.8346" height="3.9685" fill="#9A916C" stroke-width="0"/>
   </g>
   <g transform="matrix(0 1 -1 0 64.735 16.251)">
    <rect id="connector24pin" x="22.825" y="38.509" width="2.8346" height="3.9685" fill="#9A916C" stroke-width="0"/>
   </g>
   <g transform="matrix(0 1 -1 0 68.278 7.3219)">
    <rect id="connector25pin" x="29.061" y="35.816" width="2.8346" height="3.9685" fill="#9A916C" stroke-width="0"/>
   </g>
   <g transform="matrix(0 1 -1 0 57.189 30.305)">
    <rect id="connector26pin" x="12.025" y="41.763" width="2.8346" height="3.9685" fill="#9A916C" stroke-width="0"/>
   </g>
   <g transform="matrix(0 1 -1 0 62.575 35.691)">
    <rect id="connector27pin" x="12.025" y="47.149" width="2.8346" height="3.9685" fill="#9A916C" stroke-width="0"/>
   </g>
   <g transform="matrix(0 1 -1 0 66.118 26.762)">
    <rect id="connector28pin" x="18.261" y="44.456" width="2.8346" height="3.9685" fill="#9A916C" stroke-width="0"/>
   </g>
   <g transform="matrix(-1 0 0 -1 37.349 19.44)">
    <rect id="connector29pin" x="17.116" y="7.7358" width="3.1181" height="3.9685" fill="#9A916C" stroke-width="0"/>
   </g>
   <g transform="matrix(-1 0 0 -1 26.011 19.44)">
    <rect id="connector30pin" x="11.446" y="7.7358" width="3.1181" height="3.9685" fill="#9A916C" stroke-width="0"/>
   </g>
   <rect id="connector31pin" x="23.686" y="22.136" width="3.1181" height="3.9685" fill="#9A916C" stroke-width="0"/>
   <rect id="connector32pin" x="29.356" y="22.136" width="3.1181" height="3.9685" fill="#9A916C" stroke-width="0"/>
   <g transform="matrix(-1 0 0 -1 58.949 19.44)">
    <rect id="connector33pin" x="27.916" y="7.7358" width="3.1181" height="3.9685" fill="#9A916C" stroke-width="0"/>
   </g>
   <g transform="matrix(-1 0 0 -1 47.611 19.44)">
    <rect id="connector34pin" x="22.246" y="7.7358" width="3.1181" height="3.9685" fill="#9A916C" stroke-width="0"/>
   </g>
   <g transform="matrix(-1 0 0 -1 37.349 30.96)">
    <rect id="connector35pin" x="17.116" y="13.496" width="3.1181" height="3.9685" fill="#9A916C" stroke-width="0"/>
   </g>
   <g transform="matrix(-1 0 0 -1 26.011 30.96)">
    <rect id="connector36pin" x="11.446" y="13.496" width="3.1181" height="3.9685" fill="#9A916C" stroke-width="0"/>
   </g>
   <g transform="matrix(-1 0 0 -1 37.349 64.08)">
    <rect id="connector37pin" x="17.116" y="30.056" width="3.1181" height="3.9685" fill="#9A916C" stroke-width="0"/>
   </g>
   <g transform="matrix(-1 0 0 -1 26.011 64.08)">
    <rect id="connector38pin" x="11.446" y="30.056" width="3.1181" height="3.9685" fill="#9A916C" stroke-width="0"/>
   </g>
   <g transform="matrix(-1 0 0 -1 61.829 59.76)">
    <rect id="connector39pin" x="29.356" y="27.896" width="3.1181" height="3.9685" fill="#9A916C" stroke-width="0"/>
   </g>
   <g transform="matrix(-1 0 0 -1 50.491 59.76)">
    <rect id="connector40pin" x="23.686" y="27.896" width="3.1181" height="3.9685" fill="#9A916C" stroke-width="0"/>
   </g>
   <g transform="matrix(-1 0 0 -1 60.389 92.88)">
    <rect id="connector41pin" x="28.636" y="44.456" width="3.1181" height="3.9685" fill="#9A916C" stroke-width="0"/>
   </g>
   <g transform="matrix(-1 0 0 -1 49.051 92.88)">
    <rect id="connector42pin" x="22.966" y="44.456" width="3.1181" height="3.9685" fill="#9A916C" stroke-width="0"/>
   </g>
   <g transform="matrix(-1 0 0 -1 37.349 77.04)">
    <rect id="connector43pin" x="17.116" y="36.536" width="3.1181" height="3.9685" fill="#9A916C" stroke-width="0"/>
   </g>
   <g transform="matrix(-1 0 0 -1 26.011 77.04)">
    <rect id="connector44pin" x="11.446" y="36.536" width="3.1181" height="3.9685" fill="#9A916C" stroke-width="0"/>
   </g>
  </g>
  <g transform="translate(22.388 13.093)">
   <g id="sot23">
    <g transform="matrix(0 1 -1 0 8.079 -.42498)">
     <rect x=".85" y="4.677" width="1.417" height="2.976" fill="#DCDCDC"/>
     <rect x="6.236" y="4.677" width="1.417" height="2.976" fill="#DCDCDC"/>
     <rect x="3.543" width="1.417" height="3.118" fill="#DCDCDC"/>
     <rect y="1.984" width="8.504" height="3.685" fill="#303030"/>
    </g>
   </g>
  </g>
  <g transform="translate(13.028 20.293)">
   <g id="sot23">
    <g transform="matrix(0 1 -1 0 8.079 -.42498)">
     <rect x=".85" y="4.677" width="1.417" height="2.976" fill="#DCDCDC"/>
     <rect x="6.236" y="4.677" width="1.417" height="2.976" fill="#DCDCDC"/>
     <rect x="3.543" width="1.417" height="3.118" fill="#DCDCDC"/>
     <rect y="1.984" width="8.504" height="3.685" fill="#303030"/>
    </g>
   </g>
  </g>
  <g transform="translate(23.108 33.973)">
   <g id="sot23">
    <g transform="matrix(0 1 -1 0 8.079 -.42498)">
     <rect x=".85" y="4.677" width="1.417" height="2.976" fill="#DCDCDC"/>
     <rect x="6.236" y="4.677" width="1.417" height="2.976" fill="#DCDCDC"/>
     <rect x="3.543" width="1.417" height="3.118" fill="#DCDCDC"/>
     <rect y="1.984" width="8.504" height="3.685" fill="#303030"/>
    </g>
   </g>
  </g>
  <g transform="translate(12.308 42.613)">
   <g transform="matrix(0 1 -1 0 8.079 -.42498)">
    <rect x=".85" y="4.677" width="1.417" height="2.976" fill="#DCDCDC"/>
    <rect x="6.236" y="4.677" width="1.417" height="2.976" fill="#DCDCDC"/>
    <rect x="3.543" width="1.417" height="3.118" fill="#DCDCDC"/>
    <rect y="1.984" width="8.504" height="3.685" fill="#303030"/>
   </g>
  </g>
  <g transform="translate(13.006 7.9485)">
   <g id="0805-res">
    <g transform="matrix(-1 0 0 -1 5.669 3.543)">
     <path d="m5.386 3.543h-5.103c-0.156 0-0.283-0.127-0.283-0.283v-2.977c0-0.156 0.127-0.283 0.283-0.283h5.102c0.157 0 0.283 0.127 0.283 0.283v2.977c1e-3 0.156-0.126 0.283-0.282 0.283z" fill="#DCDCDC"/>
     <rect x="1.063" width="3.543" height="3.543" fill="#333"/>
    </g>
   </g>
  </g>
  <g transform="translate(25.246 22.348)">
   <g id="0805-res">
    <path d="m5.386 3.543h-5.103c-0.156 0-0.283-0.127-0.283-0.283v-2.977c0-0.156 0.127-0.283 0.283-0.283h5.102c0.157 0 0.283 0.127 0.283 0.283v2.977c1e-3 0.156-0.126 0.283-0.282 0.283z" fill="#DCDCDC"/>
    <rect x="1.063" width="3.543" height="3.543" fill="#333"/>
   </g>
  </g>
  <g transform="translate(23.806 7.9485)">
   <g id="0805-res">
    <g transform="matrix(-1 0 0 -1 5.669 3.543)">
     <path d="m5.386 3.543h-5.103c-0.156 0-0.283-0.127-0.283-0.283v-2.977c0-0.156 0.127-0.283 0.283-0.283h5.102c0.157 0 0.283 0.127 0.283 0.283v2.977c1e-3 0.156-0.126 0.283-0.282 0.283z" fill="#DCDCDC"/>
     <rect x="1.063" width="3.543" height="3.543" fill="#333"/>
    </g>
   </g>
  </g>
  <g transform="translate(13.006 13.708)">
   <g id="0805-res">
    <g transform="matrix(-1 0 0 -1 5.669 3.543)">
     <path d="m5.386 3.543h-5.103c-0.156 0-0.283-0.127-0.283-0.283v-2.977c0-0.156 0.127-0.283 0.283-0.283h5.102c0.157 0 0.283 0.127 0.283 0.283v2.977c1e-3 0.156-0.126 0.283-0.282 0.283z" fill="#DCDCDC"/>
     <rect x="1.063" width="3.543" height="3.543" fill="#333"/>
    </g>
   </g>
  </g>
  <g transform="translate(13.006 30.268)">
   <g id="0805-res">
    <g transform="matrix(-1 0 0 -1 5.669 3.543)">
     <path d="m5.386 3.543h-5.103c-0.156 0-0.283-0.127-0.283-0.283v-2.977c0-0.156 0.127-0.283 0.283-0.283h5.102c0.157 0 0.283 0.127 0.283 0.283v2.977c1e-3 0.156-0.126 0.283-0.282 0.283z" fill="#DCDCDC"/>
     <rect x="1.063" width="3.543" height="3.543" fill="#333"/>
    </g>
   </g>
  </g>
  <g transform="translate(25.246 28.108)">
   <g id="0805-res">
    <g transform="matrix(-1 0 0 -1 5.669 3.543)">
     <path d="m5.386 3.543h-5.103c-0.156 0-0.283-0.127-0.283-0.283v-2.977c0-0.156 0.127-0.283 0.283-0.283h5.102c0.157 0 0.283 0.127 0.283 0.283v2.977c1e-3 0.156-0.126 0.283-0.282 0.283z" fill="#DCDCDC"/>
     <rect x="1.063" width="3.543" height="3.543" fill="#333"/>
    </g>
   </g>
  </g>
  <g transform="translate(24.526 44.668)">
   <g id="0805-res">
    <g transform="matrix(-1 0 0 -1 5.669 3.543)">
     <path d="m5.386 3.543h-5.103c-0.156 0-0.283-0.127-0.283-0.283v-2.977c0-0.156 0.127-0.283 0.283-0.283h5.102c0.157 0 0.283 0.127 0.283 0.283v2.977c1e-3 0.156-0.126 0.283-0.282 0.283z" fill="#DCDCDC"/>
     <rect x="1.063" width="3.543" height="3.543" fill="#333"/>
    </g>
   </g>
  </g>
  <g transform="translate(13.006 36.748)">
   <g transform="matrix(-1 0 0 -1 5.669 3.543)">
    <path d="m5.386 3.543h-5.103c-0.156 0-0.283-0.127-0.283-0.283v-2.977c0-0.156 0.127-0.283 0.283-0.283h5.102c0.157 0 0.283 0.127 0.283 0.283v2.977c1e-3 0.156-0.126 0.283-0.282 0.283z" fill="#DCDCDC"/>
    <rect x="1.063" width="3.543" height="3.543" fill="#333"/>
   </g>
  </g>
 </g>
</svg>
