<?xml version="1.0" encoding="UTF-8"?>
<!-- Created with Fritzing (http://www.fritzing.org/) -->
<svg width=".4in" height=".6in" version="1.2" viewBox="0 0 28.8 43.2" xmlns="http://www.w3.org/2000/svg">
 <desc>
  <referenceFile>DS2413_breadboard.svg</referenceFile>
 </desc>
 <metadata>
  <rdf:RDF xmlns:rdf="http://www.w3.org/1999/02/22-rdf-syntax-ns#">
   <cc:Work rdf:about="" xmlns:cc="http://creativecommons.org/ns#" xmlns:rdf="http://www.w3.org/1999/02/22-rdf-syntax-ns#">
    <dc:format xmlns:dc="http://purl.org/dc/elements/1.1/">image/svg+xml</dc:format>
    <dc:type rdf:resource="http://purl.org/dc/dcmitype/StillImage" xmlns:dc="http://purl.org/dc/elements/1.1/" xmlns:rdf="http://www.w3.org/1999/02/22-rdf-syntax-ns#"/>
   </cc:Work>
  </rdf:RDF>
 </metadata>
 <desc>Fritzing breadboard generated by brd2svg</desc>
 <g id="breadboard">
  <g id="icon">
   <path d="m0 3.6a3.6 3.6 0 0 1 3.6-3.6h21.6a3.6 3.6 0 0 1 3.6 3.6v36a3.6 3.6 0 0 1-3.6 3.6h-21.6a3.6 3.6 0 0 1-3.6-3.6v-36m2.16 36a1.44 1.44 0 1 0 2.88 0 1.44 1.44 0 1 0-2.88 0zm7.2 0a1.44 1.44 0 1 0 2.88 0 1.44 1.44 0 1 0-2.88 0zm7.2 0a1.44 1.44 0 1 0 2.88 0 1.44 1.44 0 1 0-2.88 0zm7.2 0a1.44 1.44 0 1 0 2.88 0 1.44 1.44 0 1 0-2.88 0zm-12.903-32.4a3.5433 3.5433 0 1 0 7.0866 0 3.5433 3.5433 0 1 0-7.0866 0z" fill="#014cb1" stroke-width="0"/>
   <g>
    <title>layer 21</title>
    <g>
     <title>text:IOB</title>
     <g transform="translate(5.04 36.72)">
      <g transform="rotate(270)">
       <text fill="#ffffff" font-family="OCRA" font-size="3.3408" stroke-width="0">IOB</text>
      </g>
     </g>
    </g>
    <g>
     <title>text:IOA</title>
     <g transform="translate(12.24 36.72)">
      <g transform="rotate(270)">
       <text fill="#ffffff" font-family="OCRA" font-size="3.3408" stroke-width="0">IOA</text>
      </g>
     </g>
    </g>
    <g>
     <title>text:IO</title>
     <g transform="translate(19.44 36)">
      <g transform="rotate(270)">
       <text fill="#ffffff" font-family="OCRA" font-size="3.3408" stroke-width="0">IO</text>
      </g>
     </g>
    </g>
    <g>
     <title>text:GND</title>
     <g transform="translate(26.64 36)">
      <g transform="rotate(270)">
       <text fill="#ffffff" font-family="OCRA" font-size="3.3408" stroke-width="0">GND</text>
      </g>
     </g>
    </g>
    <g>
     <title>text:DS2413</title>
     <g transform="translate(4.32 21.6)">
      <g transform="rotate(270)">
       <text fill="#ffffff" font-family="OCRA" font-size="4.176" stroke-width="0">DS2413</text>
      </g>
     </g>
    </g>
    <g>
     <title>text:1-Wire</title>
     <g transform="translate(24.48 16.56)">
      <g transform="rotate(270)">
       <text fill="#ffffff" font-family="OCRA" font-size="3.3408" stroke-width="0">1-Wire</text>
      </g>
     </g>
    </g>
    <g>
     <title>text:2 GPIO</title>
     <g transform="translate(28.08 16.56)">
      <g transform="rotate(270)">
       <text fill="#ffffff" font-family="OCRA" font-size="3.3408" stroke-width="0">2 GPIO</text>
      </g>
     </g>
    </g>
    <g>
     <title>element:CN1</title>
     <g>
      <title>package:1X04-CLEANBIG</title>
     </g>
    </g>
    <g>
     <title>element:FID1</title>
     <g>
      <title>package:FIDUCIAL_1MM</title>
     </g>
    </g>
    <g>
     <title>element:U$3</title>
     <g>
      <title>package:ADAFRUIT_3.5MM</title>
     </g>
    </g>
    <g>
     <title>element:U$4</title>
     <g>
      <title>package:MOUNTINGHOLE_2.5_PLATED</title>
      <circle cx="14.4" cy="7.2" r="5.6693" fill="none" stroke="#fff" stroke-width=".576"/>
     </g>
    </g>
    <g>
     <title>element:U1</title>
     <g>
      <title>package:DS2413_TSOC6L</title>
      <line x1="20.069" x2="20.069" y1="17.938" y2="17.087" stroke="#fff" stroke-linecap="round" stroke-width=".36"/>
      <line x1="20.069" x2="8.7307" y1="17.087" y2="17.087" stroke="#fff" stroke-linecap="round" stroke-width=".36"/>
      <line x1="8.7307" x2="8.7307" y1="17.087" y2="17.938" stroke="#fff" stroke-linecap="round" stroke-width=".36"/>
      <line x1="20.069" x2="20.069" y1="28.142" y2="28.993" stroke="#fff" stroke-linecap="round" stroke-width=".36"/>
      <line x1="20.069" x2="8.7307" y1="28.993" y2="28.993" stroke="#fff" stroke-linecap="round" stroke-width=".36"/>
      <line x1="8.7307" x2="8.7307" y1="28.993" y2="28.142" stroke="#fff" stroke-linecap="round" stroke-width=".36"/>
     </g>
    </g>
   </g>
   <circle id="connector5pin" cx="3.6" cy="39.6" r="1.98" fill="none" stroke="#9A916C" stroke-width="1.08" connectorname="PIOB"/>
   <circle id="connector6pin" cx="10.8" cy="39.6" r="1.98" fill="none" stroke="#9A916C" stroke-width="1.08" connectorname="PIOA"/>
   <circle id="connector7pin" cx="18" cy="39.6" r="1.98" fill="none" stroke="#9A916C" stroke-width="1.08" connectorname="IO"/>
   <circle id="connector8pin" cx="25.2" cy="39.6" r="1.98" fill="none" stroke="#9A916C" stroke-width="1.08" connectorname="GND"/>
   <rect id="connector9pin" x="6.5027" y="12.263" width="2.8346" height="2.8346" rx="1.4173" ry="1.4173" fill="#9A916C" stroke-width="0"/>
   <circle id="connector10pin" cx="14.4" cy="7.2" r="4.2633" fill="none" stroke="#9A916C" stroke-width="1.44" connectorname="P$1"/>
   <rect id="connector11pin" x="16.838" y="25.889" width="5.1874" height="1.5024" fill="#9A916C" stroke-width="0"/>
   <rect id="connector12pin" x="16.838" y="22.289" width="5.1874" height="1.5024" fill="#9A916C" stroke-width="0"/>
   <rect id="connector13pin" x="16.838" y="18.689" width="5.1874" height="1.5024" fill="#9A916C" stroke-width="0"/>
   <rect id="connector14pin" x="6.7748" y="18.689" width="5.1874" height="1.5024" fill="#9A916C" stroke-width="0"/>
   <rect id="connector15pin" x="6.7748" y="22.289" width="5.1874" height="1.5024" fill="#9A916C" stroke-width="0"/>
   <rect id="connector16pin" x="6.7748" y="25.889" width="5.1874" height="1.5024" fill="#9A916C" stroke-width="0"/>
  </g>
 </g>
 <g transform="matrix(1.6861 0 0 1.431 -617.81 -738.94)">
  <g transform="rotate(90)">
   <rect x="528.18" y="-378.19" width="8.3693" height="6.3886" fill="#303030"/>
  </g>
  <g transform="matrix(0 .625 -.625 0 381.59 528.04)">
   <polygon points="12.887 6.1571 0.93657 6.1571 0.21657 5.4371 13.607 5.4371" fill="#1f1f1f" stroke-width="0"/>
   <polygon points="12.887 14.939 0.93657 14.939 0.21657 15.659 13.607 15.659" fill="#1f1f1f" stroke-width="0"/>
   <polygon points="0.93657 14.939 0.93657 6.1571 0.21657 5.4371 0.21657 15.659" stroke-width="0"/>
   <polygon points="12.887 14.939 12.887 6.1571 13.607 5.4371 13.607 15.659" fill="#3d3d3d" stroke-width="0"/>
  </g>
  <g transform="rotate(90)">
   <circle cx="529.53" cy="-373.16" r=".45" fill="#1f1f1f"/>
  </g>
 </g>
</svg>
