<?xml version="1.0" encoding="UTF-8"?>
<!-- Generator: Adobe Illustrator 23.0.1, SVG Export Plug-In . SVG Version: 6.00 Build 0)  -->
<svg width=".8in" height=".55in" baseProfile="tiny" version="1.2" viewBox="0 0 57.6 39.6" xml:space="preserve" xmlns="http://www.w3.org/2000/svg" xmlns:xml="http://www.w3.org/XML/1998/namespace">
    <desc>
        <referenceFile>USB_Type_C_breadboard.svg</referenceFile>
    </desc>
    <desc>Fritzing breadboard generated by brd2svg</desc>
    <g id="breadboard">
        <g id="icon">
            <path d="m57.6 7.2v25.2c0 3.976-3.224 7.2-7.2 7.2h-43.2c-3.976 0-7.2-3.224-7.2-7.2v-25.2c0-3.976 3.224-7.2 7.2-7.2h43.2c3.976 0 7.2 3.224 7.2 7.2m-5.017 25.2c0 0.783 0.635 1.417 1.417 1.417 0.783 0 1.417-0.635 1.417-1.417 0-0.783-0.635-1.417-1.417-1.417s-1.417 0.634-1.417 1.417zm-7.2 0c0 0.783 0.635 1.417 1.417 1.417 0.783 0 1.417-0.635 1.417-1.417 0-0.783-0.635-1.417-1.417-1.417s-1.417 0.634-1.417 1.417zm-7.2 0c0 0.783 0.635 1.417 1.417 1.417s1.417-0.635 1.417-1.417c0-0.783-0.635-1.417-1.417-1.417s-1.417 0.634-1.417 1.417zm-7.2 0c0 0.783 0.635 1.417 1.417 1.417 0.783 0 1.417-0.635 1.417-1.417 0-0.783-0.635-1.417-1.417-1.417-0.783 0-1.417 0.634-1.417 1.417zm-7.2 0c0 0.783 0.635 1.417 1.417 1.417 0.783 0 1.417-0.635 1.417-1.417 0-0.783-0.635-1.417-1.417-1.417-0.783 0-1.417 0.634-1.417 1.417zm-7.2 0c0 0.783 0.635 1.417 1.417 1.417 0.783 0 1.417-0.635 1.417-1.417 0-0.783-0.635-1.417-1.417-1.417-0.783 0-1.417 0.634-1.417 1.417zm-7.2 0c0 0.783 0.635 1.417 1.417 1.417s1.417-0.635 1.417-1.417c0-0.783-0.635-1.417-1.417-1.417s-1.417 0.634-1.417 1.417zm-7.2 0c0 0.783 0.635 1.417 1.417 1.417s1.417-0.635 1.417-1.417c0-0.783-0.635-1.417-1.417-1.417s-1.417 0.634-1.417 1.417zm44.674-25.2c-3e-3 1.957 1.58 3.546 3.537 3.55s3.546-1.58 3.55-3.537v-0.012c3e-3 -1.957-1.58-3.546-3.537-3.55-1.957-3e-3 -3.546 1.58-3.55 3.537v0.012zm-43.2 0c-3e-3 1.957 1.58 3.546 3.537 3.549s3.546-1.58 3.549-3.537v-0.012c3e-3 -1.957-1.58-3.546-3.537-3.549-1.957-4e-3 -3.546 1.58-3.549 3.537v0.012z" fill="#014CB1"/>
            <g>
                <title>layer 21</title>
                <g>
                    <title>text:VBUS</title>
                    <g transform="translate(42.935 38.673)">
                        <text fill="#FFFFFF" font-family="'OCRA'" font-size="2.6726">VBUS</text>
                    </g>
                </g>
                <g>
                    <title>text:D-</title>
                    <g transform="translate(23.268 28.8)">
                        <text fill="#FFFFFF" font-family="'OCRA'" font-size="2.6726">D-</text>
                    </g>
                </g>
                <g>
                    <title>text:D+</title>
                    <g transform="translate(16.068 38.673)">
                        <text fill="#FFFFFF" font-family="'OCRA'" font-size="2.6726">D+</text>
                    </g>
                </g>
                <g>
                    <title>text:SBU2</title>
                    <g transform="translate(35.735 28.8)">
                        <text fill="#FFFFFF" font-family="'OCRA'" font-size="2.6726">SBU2</text>
                    </g>
                </g>
                <g>
                    <title>text:CC1</title>
                    <g transform="translate(29.502 38.673)">
                        <text fill="#FFFFFF" font-family="'OCRA'" font-size="2.6726">CC1</text>
                    </g>
                </g>
                <g>
                    <title>text:GND</title>
                    <g transform="translate(50.382 28.8)">
                        <text fill="#FFFFFF" font-family="'OCRA'" font-size="2.6726">GND</text>
                    </g>
                </g>
                <g>
                    <title>text:USB C</title>
                    <g transform="translate(43.642 24.941)">
                        <text fill="#FFFFFF" font-family="'OCRA'" font-size="3.3408">USB C</text>
                    </g>
                </g>
                <g>
                    <title>text:SBU1</title>
                    <g transform="translate(6.9354 28.8)">
                        <text fill="#FFFFFF" font-family="'OCRA'" font-size="2.6726">SBU1</text>
                    </g>
                </g>
                <g>
                    <title>text:CC2</title>
                    <g transform="translate(3.5815 38.673)">
                        <text fill="#FFFFFF" font-family="'OCRA'" font-size="2.6726">CC2</text>
                    </g>
                </g>
                <g>
                    <title>element:FID1</title>
                    <g>
                        <title>package:FIDUCIAL_1MM</title>
                    </g>
                </g>
                <g>
                    <title>element:FID2</title>
                    <g>
                        <title>package:FIDUCIAL_1MM</title>
                    </g>
                </g>
                <g>
                    <title>element:JP1</title>
                    <g>
                        <title>package:1X08_ROUND_76</title>
                    </g>
                </g>
                <g>
                    <title>element:R1</title>
                    <g>
                        <title>package:0603-NO</title>
                        <line x1="5.76" x2="5.76" y1="21.906" y2="24.174" fill="none" stroke="#fff" stroke-linecap="round" stroke-width=".864"/>
                    </g>
                </g>
                <g>
                    <title>element:R2</title>
                    <g>
                        <title>package:0603-NO</title>
                        <line x1="5.76" x2="5.76" y1="16.866" y2="19.134" fill="none" stroke="#fff" stroke-linecap="round" stroke-width=".864"/>
                    </g>
                </g>
                <g>
                    <title>element:U$1</title>
                    <g>
                        <title>package:MOUNTINGHOLE_2.5_PLATED</title>
                        <circle cx="50.4" cy="7.2" r="5.669" fill="none" stroke="#fff" stroke-width=".576"/>
                    </g>
                </g>
                <g>
                    <title>element:U$2</title>
                    <g>
                        <title>package:MOUNTINGHOLE_2.5_PLATED</title>
                        <circle cx="7.2" cy="7.2" r="5.669" fill="none" stroke="#fff" stroke-width=".576"/>
                    </g>
                </g>
                <g>
                    <title>element:U$3</title>
                    <g>
                        <title>package:ADAFRUIT_2.5MM</title>
                    </g>
                </g>
                <g>
                    <title>element:U$8</title>
                    <g>
                        <title>package:PCBFEAT-REV-040</title>
                    </g>
                </g>
            </g>
            <circle id="connector7pin" cx="54" cy="32.4" r="2.077" fill="none" stroke="#9A916C" stroke-width="1.3187"/>
            <circle id="connector8pin" cx="46.8" cy="32.4" r="2.077" fill="none" stroke="#9A916C" stroke-width="1.3187"/>
            <circle id="connector9pin" cx="39.6" cy="32.4" r="2.077" fill="none" stroke="#9A916C" stroke-width="1.3187"/>
            <circle id="connector10pin" cx="32.4" cy="32.4" r="2.077" fill="none" stroke="#9A916C" stroke-width="1.3187"/>
            <circle id="connector11pin" cx="25.2" cy="32.4" r="2.077" fill="none" stroke="#9A916C" stroke-width="1.3187"/>
            <circle id="connector12pin" cx="18" cy="32.4" r="2.077" fill="none" stroke="#9A916C" stroke-width="1.3187"/>
            <circle id="connector13pin" cx="10.8" cy="32.4" r="2.077" fill="none" stroke="#9A916C" stroke-width="1.3187"/>
            <circle id="connector14pin" cx="3.6" cy="32.4" r="2.077" fill="none" stroke="#9A916C" stroke-width="1.3187"/>
            <rect id="connector15pin" x="1.827" y="21.623" width="3.047" height="2.835" fill="#9A916C"/>
            <rect id="connector16pin" x="6.646" y="21.623" width="3.047" height="2.835" fill="#9A916C"/>
            <rect id="connector17pin" x="1.827" y="16.583" width="3.047" height="2.835" fill="#9A916C"/>
            <rect id="connector18pin" x="6.646" y="16.583" width="3.047" height="2.835" fill="#9A916C"/>
            <circle id="connector19pin" cx="50.4" cy="7.2" r="4.263" fill="none" stroke="#9A916C" stroke-width="1.44"/>
            <circle id="connector20pin" cx="7.2" cy="7.2" r="4.263" fill="none" stroke="#9A916C" stroke-width="1.44"/>
        </g>
        <g transform="translate(3.4925 21.906)">
            
                <path d="M4.245,2.268H0.29C0.13,2.268,0,2.138,0,1.977V0.29C0,0.13,0.13,0,0.29,0h3.955c0.16,0,0.29,0.13,0.29,0.29v1.687C4.535,2.138,4.405,2.268,4.245,2.268z" fill="#DCDCDC"/>
                <rect x="1.134" width="2.268" height="2.268" fill="#333"/>
            
        </g>
        <g transform="translate(3.4925 16.866)">
            
                <path d="M4.245,2.268H0.29C0.13,2.268,0,2.138,0,1.977V0.29C0,0.13,0.13,0,0.29,0h3.955c0.16,0,0.29,0.13,0.29,0.29v1.687C4.535,2.138,4.405,2.268,4.245,2.268z" fill="#DCDCDC"/>
                <rect x="1.134" width="2.268" height="2.268" fill="#333"/>
            
        </g>
        <g transform="translate(46.378 10.799)">
            
                <g transform="matrix(-1 0 0 -1 9.777 9.777)">
                    
                        <path d="m9.747 3.082c-0.023-0.142-0.1-0.183-0.286-0.243-0.142-0.045-1.089-0.347-1.089-0.347s-0.66-0.249-1.15 0.103c-0.066 0.048-0.134 0.102-0.203 0.16 0.058-0.069 0.112-0.137 0.159-0.203 0.352-0.49 0.101-1.15 0.101-1.15s-0.303-0.947-0.349-1.089c-0.06-0.186-0.1-0.263-0.243-0.285-0.142-0.023-0.204 0.038-0.318 0.197-0.087 0.12-0.667 0.928-0.667 0.928s-0.441 0.551-0.257 1.126c0.025 0.077 0.055 0.159 0.089 0.242-0.048-0.076-0.096-0.149-0.144-0.214-0.358-0.486-1.062-0.452-1.062-0.452s-0.995-4e-3 -1.143-4e-3c-0.195 0-0.281 0.014-0.347 0.143-0.065 0.128-0.027 0.206 0.089 0.364 0.088 0.12 0.677 0.921 0.677 0.921s0.388 0.59 0.991 0.592c0.081 0 0.168-3e-3 0.257-0.01-0.087 0.022-0.171 0.046-0.248 0.071-0.573 0.19-0.758 0.871-0.758 0.871s-0.31 0.944-0.357 1.085c-0.061 0.186-0.073 0.272 0.029 0.374s0.188 0.09 0.374 0.028c0.141-0.046 1.085-0.359 1.085-0.359s0.681-0.187 0.869-0.76c0.025-0.077 0.049-0.16 0.07-0.247-6e-3 0.09-9e-3 0.176-9e-3 0.257 4e-3 0.603 0.594 0.99 0.594 0.99s0.802 0.588 0.922 0.675c0.158 0.116 0.236 0.154 0.365 0.089 0.128-0.066 0.143-0.152 0.142-0.347-1e-3 -0.149-6e-3 -1.143-6e-3 -1.143s0.033-0.705-0.454-1.062c-0.065-0.048-0.138-0.096-0.214-0.143 0.083 0.034 0.165 0.064 0.242 0.088 0.575 0.183 1.125-0.259 1.125-0.259s0.807-0.581 0.927-0.668c0.159-0.115 0.219-0.177 0.197-0.319zm-3.425-0.732c0.108 0.017 0.162 0.248 0.12 0.515s-0.164 0.47-0.273 0.453c-0.108-0.017-0.162-0.248-0.12-0.515 0.042-0.268 0.164-0.471 0.273-0.453zm-1.389 0.709c0.05-0.098 0.286-0.078 0.527 0.045s0.397 0.302 0.347 0.399c-0.05 0.098-0.286 0.078-0.527-0.045-0.242-0.123-0.397-0.301-0.347-0.399zm0.732 1.334c-0.191 0.191-0.409 0.284-0.487 0.206-0.077-0.078 0.015-0.296 0.206-0.487 0.191-0.192 0.409-0.285 0.487-0.207s-0.014 0.296-0.206 0.488zm1.054 0.449c-0.098 0.05-0.277-0.105-0.4-0.346-0.123-0.242-0.144-0.478-0.046-0.528s0.277 0.105 0.4 0.346c0.123 0.242 0.144 0.478 0.046 0.528zm0.254-1.117c-0.267 0.042-0.498-0.011-0.516-0.119-0.017-0.109 0.186-0.231 0.453-0.274s0.498 0.011 0.515 0.119c0.018 0.109-0.185 0.231-0.452 0.274z" fill="#DCDCDC"/>
                    
                </g>
            
        </g>
    </g>
    
        <g transform="matrix(-1 -8.9795e-11 8.9795e-11 -1 57.6 20.835)">
            <rect x="16.129" width="25.342" height="20.835" fill="#DCDCDC"/>
        </g>
        <path d="m38.013 20.268h0.567v1.304h-0.567v-1.304zm-0.851 1.304h0.567v-1.304h-0.567v1.304zm-1.417 0h0.567v-1.304h-0.567v1.304zm-0.851 0h0.567v-1.304h-0.567v1.304zm-1.417 0h0.567v-1.304h-0.567v1.304zm-1.417 0h0.567v-1.304h-0.567v1.304zm-1.417 0h0.567v-1.304h-0.567v1.304zm-1.418 0h0.567v-1.304h-0.567v1.304zm-1.417 0h0.567v-1.304h-0.567v1.304zm-1.417 0h0.567v-1.304h-0.567v1.304zm-1.418 0h0.567v-1.304h-0.567v1.304zm-1.417 0h0.567v-1.304h-0.567v1.304zm-1.417 0h0.567v-1.304h-0.567v1.304zm-0.851 0h0.567v-1.304h-0.567v1.304zm-1.417 0h0.567v-1.304h-0.567v1.304zm-0.851 0h0.567v-1.304h-0.567v1.304z" fill="#DCDCDC"/>
        <g transform="matrix(-1 -8.9735e-11 8.9735e-11 -1 77.556 20.835)">
            <rect x="38.129" width="1.297" height="20.835" fill="#F0F0F0"/>
        </g>
        <g transform="matrix(-1 -8.9735e-11 8.9735e-11 -1 37.644 20.835)">
            <rect x="18.173" width="1.297" height="20.835" fill="#BEBEBE"/>
        </g>
        <path d="M16.129,20.835v-1.998h0.283c0.344,0,0.624,0.279,0.624,0.624v0.533c0,0.344,0.279,0.624,0.624,0.624h2.831c0.344,0,0.624-0.279,0.624-0.624v-2.022c0-0.344,0.279-0.624,0.624-0.624h3.413c0.344,0,0.624,0.279,0.624,0.624v0.047c0,0.344-0.279,0.624-0.624,0.624h-1.536c-0.344,0-0.624,0.279-0.624,0.624v0.727c0,0.344,0.279,0.624,0.624,0.624h10.372c0.344,0,0.624-0.279,0.624-0.624v-0.727c0-0.344-0.279-0.624-0.624-0.624H32.45c-0.344,0-0.624-0.279-0.624-0.624v-0.047c0-0.344,0.279-0.624,0.624-0.624h3.413c0.344,0,0.624,0.279,0.624,0.624v2.022c0,0.344,0.279,0.624,0.624,0.624h2.831c0.344,0,0.624-0.279,0.624-0.624V19.46c0-0.344,0.279-0.624,0.624-0.624h0.283v1.998H16.129z" fill="#8C8C8C"/>
        <g transform="matrix(-1 -8.9294e-11 8.9294e-11 -1 67.698 28.611)">
            <rect x="32.117" y="13.593" width="3.463" height="1.424" fill="#8C8C8C"/>
        </g>
        <rect x="22.02" y="13.593" width="3.463" height="1.424" fill="#8C8C8C"/>
    
</svg>
