<?xml version="1.0" encoding="UTF-8"?>
<!-- Created with Fritzing (http://www.fritzing.org/) -->
<svg width=".80021in" height=".90001in" baseProfile="tiny" version="1.2" viewBox="0 0 57.615 64.801" xmlns="http://www.w3.org/2000/svg">
 <desc>
  <referenceFile>MAX31855_breadboard.svg</referenceFile>
 </desc>
 <desc>Fritzing breadboard generated by brd2svg</desc>
 <g id="breadboard">
  <g id="icon">
   <path d="m57.615 7.2v50.401a7.2 7.2 0 0 1-7.2 7.2h-43.215a7.2 7.2 0 0 1-7.2-7.2v-50.401a7.2 7.2 0 0 1 7.2-7.2h43.215a7.2 7.2 0 0 1 7.2 7.2m-35.349 3.6363a1.4173 1.4173 0 1 0 2.8346 0 1.4173 1.4173 0 1 0-2.8346 0zm9.9213 0a1.4173 1.4173 0 1 0 2.8346 0 1.4173 1.4173 0 1 0-2.8346 0zm-22.819 48.24a1.4173 1.4173 0 1 0 2.8346 0 1.4173 1.4173 0 1 0-2.8346 0zm7.2 0a1.4173 1.4173 0 1 0 2.8346 0 1.4173 1.4173 0 1 0-2.8346 0zm7.2 0a1.4173 1.4173 0 1 0 2.8346 0 1.4173 1.4173 0 1 0-2.8346 0zm7.2 0a1.4173 1.4173 0 1 0 2.8346 0 1.4173 1.4173 0 1 0-2.8346 0zm7.2 0a1.4173 1.4173 0 1 0 2.8346 0 1.4173 1.4173 0 1 0-2.8346 0zm7.2 0a1.4173 1.4173 0 1 0 2.8346 0 1.4173 1.4173 0 1 0-2.8346 0zm1.8992-51.84a3.1181 3.1181 0 1 0 6.2362 0 3.1181 3.1181 0 1 0-6.2362 0zm-43.2 0a3.1181 3.1181 0 1 0 6.2362 0 3.1181 3.1181 0 1 0-6.2362 0z" fill="#014cb1" stroke-width="0"/>
   <g>
    <title>layer 21</title>
    <line x1="30.946" x2="32.386" y1="62.676" y2="64.116" stroke="#fff" stroke-linecap="round" stroke-width=".72"/>
    <line x1="32.386" x2="33.826" y1="64.116" y2="62.676" stroke="#fff" stroke-linecap="round" stroke-width=".72"/>
    <line x1="33.826" x2="30.946" y1="62.676" y2="62.676" stroke="#fff" stroke-linecap="round" stroke-width=".72"/>
    <line x1="39.586" x2="38.146" y1="62.676" y2="64.116" stroke="#fff" stroke-linecap="round" stroke-width=".72"/>
    <line x1="38.146" x2="41.026" y1="64.116" y2="64.116" stroke="#fff" stroke-linecap="round" stroke-width=".72"/>
    <line x1="41.026" x2="39.586" y1="64.116" y2="62.676" stroke="#fff" stroke-linecap="round" stroke-width=".72"/>
    <line x1="45.346" x2="48.226" y1="64.116" y2="64.116" stroke="#fff" stroke-linecap="round" stroke-width=".72"/>
    <line x1="48.226" x2="46.786" y1="64.116" y2="62.676" stroke="#fff" stroke-linecap="round" stroke-width=".72"/>
    <line x1="46.786" x2="45.346" y1="62.676" y2="64.116" stroke="#fff" stroke-linecap="round" stroke-width=".72"/>
    <line x1="9.3458" x2="12.226" y1="64.116" y2="64.116" stroke="#fff" stroke-linecap="round" stroke-width=".72"/>
    <line x1="12.226" x2="10.786" y1="64.116" y2="62.676" stroke="#fff" stroke-linecap="round" stroke-width=".72"/>
    <line x1="10.786" x2="9.3458" y1="62.676" y2="64.116" stroke="#fff" stroke-linecap="round" stroke-width=".72"/>
    <line x1="23.746" x2="26.626" y1="64.116" y2="64.116" stroke="#fff" stroke-linecap="round" stroke-width=".72"/>
    <line x1="26.626" x2="25.186" y1="64.116" y2="62.676" stroke="#fff" stroke-linecap="round" stroke-width=".72"/>
    <line x1="25.186" x2="23.746" y1="62.676" y2="64.116" stroke="#fff" stroke-linecap="round" stroke-width=".72"/>
    <line x1="16.546" x2="17.986" y1="62.676" y2="64.116" stroke="#fff" stroke-linecap="round" stroke-width=".72"/>
    <line x1="17.986" x2="19.426" y1="64.116" y2="62.676" stroke="#fff" stroke-linecap="round" stroke-width=".72"/>
    <line x1="19.426" x2="16.546" y1="62.676" y2="62.676" stroke="#fff" stroke-linecap="round" stroke-width=".72"/>
    <g>
     <title>text:CS</title>
     <g transform="translate(41.026 55.476)">
      <g transform="rotate(270)">
       <text fill="#ffffff" font-family="OCRA" font-size="3.3408" stroke-width="0">CS</text>
      </g>
     </g>
    </g>
    <g>
     <title>text:GND</title>
     <g transform="translate(26.626 55.476)">
      <g transform="rotate(270)">
       <text fill="#ffffff" font-family="OCRA" font-size="3.3408" stroke-width="0">GND</text>
      </g>
     </g>
    </g>
    <g>
     <title>text:DO</title>
     <g transform="translate(33.826 55.476)">
      <g transform="rotate(270)">
       <text fill="#ffffff" font-family="OCRA" font-size="3.3408" stroke-width="0">DO</text>
      </g>
     </g>
    </g>
    <g>
     <title>text:CLK</title>
     <g transform="translate(48.226 55.476)">
      <g transform="rotate(270)">
       <text fill="#ffffff" font-family="OCRA" font-size="3.3408" stroke-width="0">CLK</text>
      </g>
     </g>
    </g>
    <g>
     <title>text:Vin</title>
     <g transform="translate(12.226 55.476)">
      <g transform="rotate(270)">
       <text fill="#ffffff" font-family="OCRA" font-size="3.3408" stroke-width="0">Vin</text>
      </g>
     </g>
    </g>
    <g>
     <title>text:Yellow +</title>
     <g transform="translate(43.186 27.396)">
      <g transform="rotate(270)">
       <text fill="#ffffff" font-family="OCRA" font-size="3.3408" stroke-width="0">Yellow +</text>
      </g>
     </g>
    </g>
    <g>
     <title>text:Red -</title>
     <g transform="translate(17.266 21.636)">
      <g transform="rotate(270)">
       <text fill="#ffffff" font-family="OCRA" font-size="3.3408" stroke-width="0">Red -</text>
      </g>
     </g>
    </g>
    <g>
     <title>text:MAX31855</title>
     <text x="18.7058" y="46.8363" fill="#ffffff" font-family="OCRA" font-size="3.3408" stroke-width="0">MAX31855</text>
    </g>
    <g>
     <title>text:3Vo</title>
     <g transform="translate(19.426 55.476)">
      <g transform="rotate(270)">
       <text fill="#ffffff" font-family="OCRA" font-size="3.3408" stroke-width="0">3Vo</text>
      </g>
     </g>
    </g>
    <g>
     <title>element:C1</title>
     <g>
      <title>package:C0805K</title>
     </g>
    </g>
    <g>
     <title>element:C2</title>
     <g>
      <title>package:C0805K</title>
     </g>
    </g>
    <g>
     <title>element:C3</title>
     <g>
      <title>package:_0805</title>
      <line x1="24.106" x2="34.906" y1="21.996" y2="21.996" stroke="#fff" stroke-linecap="round" stroke-width=".576"/>
      <line x1="34.906" x2="34.906" y1="21.996" y2="27.036" stroke="#fff" stroke-linecap="round" stroke-width=".576"/>
      <line x1="34.906" x2="24.106" y1="27.036" y2="27.036" stroke="#fff" stroke-linecap="round" stroke-width=".576"/>
      <line x1="24.106" x2="24.106" y1="27.036" y2="21.996" stroke="#fff" stroke-linecap="round" stroke-width=".576"/>
     </g>
    </g>
    <g>
     <title>element:D1</title>
     <g>
      <title>package:SOD-323F</title>
      <line x1="45.816" x2="50.635" y1="36.354" y2="36.354" stroke="#fff" stroke-linecap="round" stroke-width=".36"/>
      <line x1="50.635" x2="50.635" y1="36.354" y2="40.039" stroke="#fff" stroke-linecap="round" stroke-width=".36"/>
      <line x1="50.635" x2="45.816" y1="40.039" y2="40.039" stroke="#fff" stroke-linecap="round" stroke-width=".36"/>
      <line x1="45.816" x2="45.816" y1="40.039" y2="36.354" stroke="#fff" stroke-linecap="round" stroke-width=".36"/>
      <line x1="49.36" x2="49.36" y1="36.496" y2="39.897" stroke="#fff" stroke-linecap="round" stroke-width=".36"/>
      <line x1="49.36" x2="49.076" y1="39.897" y2="39.897" stroke="#fff" stroke-linecap="round" stroke-width=".36"/>
      <line x1="49.076" x2="49.076" y1="39.897" y2="36.496" stroke="#fff" stroke-linecap="round" stroke-width=".36"/>
     </g>
    </g>
    <g>
     <title>element:D2</title>
     <g>
      <title>package:SOD-323F</title>
      <line x1="45.816" x2="50.635" y1="30.594" y2="30.594" stroke="#fff" stroke-linecap="round" stroke-width=".36"/>
      <line x1="50.635" x2="50.635" y1="30.594" y2="34.279" stroke="#fff" stroke-linecap="round" stroke-width=".36"/>
      <line x1="50.635" x2="45.816" y1="34.279" y2="34.279" stroke="#fff" stroke-linecap="round" stroke-width=".36"/>
      <line x1="45.816" x2="45.816" y1="34.279" y2="30.594" stroke="#fff" stroke-linecap="round" stroke-width=".36"/>
      <line x1="49.36" x2="49.36" y1="30.736" y2="34.137" stroke="#fff" stroke-linecap="round" stroke-width=".36"/>
      <line x1="49.36" x2="49.076" y1="34.137" y2="34.137" stroke="#fff" stroke-linecap="round" stroke-width=".36"/>
      <line x1="49.076" x2="49.076" y1="34.137" y2="30.736" stroke="#fff" stroke-linecap="round" stroke-width=".36"/>
     </g>
    </g>
    <g>
     <title>element:FB1</title>
     <g>
      <title>package:_0805</title>
      <line x1="1.7858" x2="12.586" y1="16.956" y2="16.956" stroke="#fff" stroke-linecap="round" stroke-width=".576"/>
      <line x1="12.586" x2="12.586" y1="16.956" y2="21.996" stroke="#fff" stroke-linecap="round" stroke-width=".576"/>
      <line x1="12.586" x2="1.7858" y1="21.996" y2="21.996" stroke="#fff" stroke-linecap="round" stroke-width=".576"/>
      <line x1="1.7858" x2="1.7858" y1="21.996" y2="16.956" stroke="#fff" stroke-linecap="round" stroke-width=".576"/>
     </g>
    </g>
    <g>
     <title>element:FB2</title>
     <g>
      <title>package:_0805</title>
      <line x1="55.786" x2="44.986" y1="21.276" y2="21.276" stroke="#fff" stroke-linecap="round" stroke-width=".576"/>
      <line x1="44.986" x2="44.986" y1="21.276" y2="16.236" stroke="#fff" stroke-linecap="round" stroke-width=".576"/>
      <line x1="44.986" x2="55.786" y1="16.236" y2="16.236" stroke="#fff" stroke-linecap="round" stroke-width=".576"/>
      <line x1="55.786" x2="55.786" y1="16.236" y2="21.276" stroke="#fff" stroke-linecap="round" stroke-width=".576"/>
     </g>
    </g>
    <g>
     <title>element:IC1</title>
     <g>
      <title>package:SO08</title>
      <line x1="34.33" x2="34.33" y1="42.156" y2="29.916" stroke="#fff" stroke-linecap="round" stroke-width=".432"/>
      <path d="m23.242 42.156a1.08 1.08 0 0 0 1.08 1.08" fill="none" stroke="#fff" stroke-width=".432"/>
      <path d="m34.33 29.916a1.08 1.08 0 0 0-1.08-1.08" fill="none" stroke="#fff" stroke-width=".432"/>
      <path d="m33.25 43.236a1.08 1.08 0 0 0 1.08-1.08" fill="none" stroke="#fff" stroke-width=".432"/>
      <path d="m24.322 28.836a1.08 1.08 0 0 0-1.08 1.08" fill="none" stroke="#fff" stroke-width=".432"/>
      <line x1="23.242" x2="23.242" y1="29.916" y2="42.156" stroke="#fff" stroke-linecap="round" stroke-width=".432"/>
      <line x1="24.322" x2="33.25" y1="43.236" y2="43.236" stroke="#fff" stroke-linecap="round" stroke-width=".432"/>
      <line x1="33.25" x2="24.322" y1="28.836" y2="28.836" stroke="#fff" stroke-linecap="round" stroke-width=".432"/>
      <path d="m27.346 28.836a1.44 1.44 0 1 0 2.88 0" fill="none" stroke="#fff" stroke-width=".432"/>
      <line x1="24.25" x2="24.25" y1="28.836" y2="43.236" stroke="#fff" stroke-linecap="round" stroke-width=".144"/>
     </g>
    </g>
    <g>
     <title>element:IC2</title>
     <g>
      <title>package:SOT23-5L</title>
      <line x1="4.595" x2="4.595" y1="37.612" y2="33.02" stroke="#fff" stroke-linecap="round" stroke-width=".432"/>
      <line x1="12.657" x2="12.657" y1="33.02" y2="37.612" stroke="#fff" stroke-linecap="round" stroke-width=".432"/>
      <line x1="10.106" x2="7.1461" y1="37.612" y2="37.612" stroke="#fff" stroke-linecap="round" stroke-width=".432"/>
      <line x1="9.8391" x2="10.106" y1="33.02" y2="33.02" stroke="#fff" stroke-linecap="round" stroke-width=".432"/>
      <line x1="7.1461" x2="7.4126" y1="33.02" y2="33.02" stroke="#fff" stroke-linecap="round" stroke-width=".432"/>
      <line x1="12.39" x2="12.657" y1="33.02" y2="33.02" stroke="#fff" stroke-linecap="round" stroke-width=".432"/>
      <line x1="4.595" x2="4.8614" y1="33.02" y2="33.02" stroke="#fff" stroke-linecap="round" stroke-width=".432"/>
      <line x1="4.8614" x2="4.595" y1="37.612" y2="37.612" stroke="#fff" stroke-linecap="round" stroke-width=".432"/>
      <line x1="12.657" x2="12.39" y1="37.612" y2="37.612" stroke="#fff" stroke-linecap="round" stroke-width=".432"/>
     </g>
    </g>
    <g>
     <title>element:J2</title>
     <g>
      <title>package:1X2-3.5MM</title>
      <line x1="38.424" x2="38.424" y1="20.474" y2="4.6001" stroke="#fff" stroke-linecap="round" stroke-width=".36"/>
      <line x1="38.424" x2="38.424" y1="4.6001" y2=".63156" stroke="#fff" stroke-linecap="round" stroke-width=".36"/>
      <line x1="38.424" x2="18.581" y1=".63156" y2=".63156" stroke="#fff" stroke-linecap="round" stroke-width=".36"/>
      <line x1="18.581" x2="18.581" y1=".63156" y2="4.6001" stroke="#fff" stroke-linecap="round" stroke-width=".36"/>
      <line x1="18.581" x2="18.581" y1="4.6001" y2="20.474" stroke="#fff" stroke-linecap="round" stroke-width=".36"/>
      <line x1="18.581" x2="38.424" y1="20.474" y2="20.474" stroke="#fff" stroke-linecap="round" stroke-width=".36"/>
      <line x1="38.424" x2="18.581" y1="4.6001" y2="4.6001" stroke="#fff" stroke-linecap="round" stroke-width=".36"/>
     </g>
    </g>
    <g>
     <title>element:JP1</title>
     <g>
      <title>package:1X06_ROUND_76</title>
     </g>
    </g>
    <g>
     <title>element:R1</title>
     <g>
      <title>package:R0805</title>
      <g transform="matrix(-1 0 0 -1 45.433 44.68)">
       <rect x="-.92126" y="-1.9843" width="1.8425" height="3.9685" fill="#fff" stroke-width="0"/>
      </g>
      <g transform="matrix(-1 0 0 -1 49.609 44.68)">
       <rect x="-.92126" y="-1.9843" width="1.8425" height="3.9685" fill="#fff" stroke-width="0"/>
      </g>
     </g>
    </g>
    <g>
     <title>element:R2</title>
     <g>
      <title>package:R0805</title>
      <g transform="matrix(-1 0 0 -1 47.593 25.96)">
       <rect x="-.92126" y="-1.9843" width="1.8425" height="3.9685" fill="#fff" stroke-width="0"/>
      </g>
      <g transform="matrix(-1 0 0 -1 51.769 25.96)">
       <rect x="-.92126" y="-1.9843" width="1.8425" height="3.9685" fill="#fff" stroke-width="0"/>
      </g>
     </g>
    </g>
    <g>
     <title>element:U$1</title>
     <g>
      <title>package:FIDUCIAL_1MM</title>
     </g>
    </g>
    <g>
     <title>element:U$2</title>
     <g>
      <title>package:FIDUCIAL_1MM</title>
     </g>
    </g>
    <g>
     <title>element:U$4</title>
     <g>
      <title>package:MOUNTINGHOLE_2.0_PLATED</title>
      <circle cx="50.386" cy="7.2363" r="5.1024" fill="none" stroke="#fff" stroke-width=".576"/>
     </g>
    </g>
    <g>
     <title>element:U$5</title>
     <g>
      <title>package:MOUNTINGHOLE_2.0_PLATED</title>
      <circle cx="7.1858" cy="7.2363" r="5.1024" fill="none" stroke="#fff" stroke-width=".576"/>
     </g>
    </g>
    <g>
     <title>element:U$6</title>
     <g>
      <title>package:ADAFRUIT_3.5MM</title>
     </g>
    </g>
   </g>
   <rect x="23.242" y="28.836" width="11.088" height="14.4" fill="#333" stroke-width="0"/>
   <g transform="matrix(-1 0 0 -1 22.921 53.353)">
    <rect id="connector5pin" x="9.9014" y="24.692" width="3.1181" height="3.9685" fill="#9A916C" stroke-width="0"/>
   </g>
   <g transform="matrix(-1 0 0 -1 11.582 53.353)">
    <rect id="connector6pin" x="4.2321" y="24.692" width="3.1181" height="3.9685" fill="#9A916C" stroke-width="0"/>
   </g>
   <g transform="matrix(-1 0 0 -1 22.921 87.913)">
    <rect id="connector7pin" x="9.9014" y="41.972" width="3.1181" height="3.9685" fill="#9A916C" stroke-width="0"/>
   </g>
   <g transform="matrix(-1 0 0 -1 11.582 87.913)">
    <rect id="connector8pin" x="4.2321" y="41.972" width="3.1181" height="3.9685" fill="#9A916C" stroke-width="0"/>
   </g>
   <rect id="connector9pin" x="24.925" y="22.674" width="3.4016" height="3.685" fill="#9A916C" stroke-width="0"/>
   <rect id="connector10pin" x="30.685" y="22.674" width="3.4016" height="3.685" fill="#9A916C" stroke-width="0"/>
   <rect id="connector11pin" x="43.974" y="37.062" width="2.8346" height="2.2677" fill="#9A916C" stroke-width="0"/>
   <rect id="connector12pin" x="49.643" y="37.062" width="2.8346" height="2.2677" fill="#9A916C" stroke-width="0"/>
   <rect id="connector13pin" x="43.974" y="31.302" width="2.8346" height="2.2677" fill="#9A916C" stroke-width="0"/>
   <rect id="connector14pin" x="49.643" y="31.302" width="2.8346" height="2.2677" fill="#9A916C" stroke-width="0"/>
   <rect id="connector15pin" x="2.605" y="17.634" width="3.4016" height="3.685" fill="#9A916C" stroke-width="0"/>
   <rect id="connector16pin" x="8.365" y="17.634" width="3.4016" height="3.685" fill="#9A916C" stroke-width="0"/>
   <g transform="matrix(-1 0 0 -1 106.53 37.513)">
    <rect id="connector17pin" x="51.565" y="16.914" width="3.4016" height="3.685" fill="#9A916C" stroke-width="0"/>
   </g>
   <g transform="matrix(-1 0 0 -1 95.012 37.513)">
    <rect id="connector18pin" x="45.805" y="16.914" width="3.4016" height="3.685" fill="#9A916C" stroke-width="0"/>
   </g>
   <g transform="matrix(0 1 -1 0 50.71 10.562)">
    <rect id="connector19pin" x="19.138" y="27.756" width="1.872" height="5.76" fill="#9A916C" stroke-width="0"/>
   </g>
   <g transform="matrix(0 1 -1 0 54.31 14.162)">
    <rect id="connector20pin" x="19.138" y="31.356" width="1.872" height="5.76" fill="#9A916C" stroke-width="0"/>
   </g>
   <g transform="matrix(0 1 -1 0 57.91 17.762)">
    <rect id="connector21pin" x="19.138" y="34.956" width="1.872" height="5.76" fill="#9A916C" stroke-width="0"/>
   </g>
   <g transform="matrix(0 1 -1 0 61.51 21.362)">
    <rect id="connector22pin" x="19.138" y="38.556" width="1.872" height="5.76" fill="#9A916C" stroke-width="0"/>
   </g>
   <g transform="matrix(0 1 -1 0 78.934 3.9385)">
    <rect id="connector23pin" x="36.562" y="38.556" width="1.872" height="5.76" fill="#9A916C" stroke-width="0"/>
   </g>
   <g transform="matrix(0 1 -1 0 75.334 .33846)">
    <rect id="connector24pin" x="36.562" y="34.956" width="1.872" height="5.76" fill="#9A916C" stroke-width="0"/>
   </g>
   <g transform="matrix(0 1 -1 0 71.734 -3.2615)">
    <rect id="connector25pin" x="36.562" y="31.356" width="1.872" height="5.76" fill="#9A916C" stroke-width="0"/>
   </g>
   <g transform="matrix(0 1 -1 0 68.134 -6.8615)">
    <rect id="connector26pin" x="36.562" y="27.756" width="1.872" height="5.76" fill="#9A916C" stroke-width="0"/>
   </g>
   <g transform="matrix(-1 0 0 -1 22.637 63.262)">
    <rect id="connector27pin" x="10.539" y="29.93" width="1.559" height="3.4016" fill="#9A916C" stroke-width="0"/>
   </g>
   <g transform="matrix(-1 0 0 -1 17.252 63.262)">
    <rect id="connector28pin" x="7.8463" y="29.93" width="1.559" height="3.4016" fill="#9A916C" stroke-width="0"/>
   </g>
   <g transform="matrix(-1 0 0 -1 11.866 63.262)">
    <rect id="connector29pin" x="5.1534" y="29.93" width="1.559" height="3.4016" fill="#9A916C" stroke-width="0"/>
   </g>
   <g transform="matrix(-1 0 0 -1 11.866 78.003)">
    <rect id="connector30pin" x="5.1534" y="37.3" width="1.559" height="3.4016" fill="#9A916C" stroke-width="0"/>
   </g>
   <g transform="matrix(-1 0 0 -1 22.637 78.003)">
    <rect id="connector31pin" x="10.539" y="37.3" width="1.559" height="3.4016" fill="#9A916C" stroke-width="0"/>
   </g>
   <circle id="connector32pin" cx="23.684" cy="10.836" r="2.2567" fill="none" stroke="#9A916C" stroke-width="1.6787" connectorname="THERMO-"/>
   <circle id="connector33pin" cx="33.605" cy="10.836" r="2.2567" fill="none" stroke="#9A916C" stroke-width="1.6787" connectorname="THERMO+"/>
   <circle id="connector34pin" cx="10.786" cy="59.076" r="2.0767" fill="none" stroke="#9A916C" stroke-width="1.3187" connectorname="VIN"/>
   <circle id="connector35pin" cx="17.986" cy="59.076" r="2.0767" fill="none" stroke="#9A916C" stroke-width="1.3187" connectorname="+3V3"/>
   <circle id="connector36pin" cx="25.186" cy="59.076" r="2.0767" fill="none" stroke="#9A916C" stroke-width="1.3187" connectorname="GND"/>
   <circle id="connector37pin" cx="32.386" cy="59.076" r="2.0767" fill="none" stroke="#9A916C" stroke-width="1.3187" connectorname="DO"/>
   <circle id="connector38pin" cx="39.586" cy="59.076" r="2.0767" fill="none" stroke="#9A916C" stroke-width="1.3187" connectorname="CS"/>
   <circle id="connector39pin" cx="46.786" cy="59.076" r="2.0767" fill="none" stroke="#9A916C" stroke-width="1.3187" connectorname="CLK"/>
   <g transform="matrix(-1 0 0 -1 100.68 89.353)">
    <rect id="connector40pin" x="48.781" y="42.692" width="3.1181" height="3.9685" fill="#9A916C" stroke-width="0"/>
   </g>
   <g transform="matrix(-1 0 0 -1 89.343 89.353)">
    <rect id="connector41pin" x="43.112" y="42.692" width="3.1181" height="3.9685" fill="#9A916C" stroke-width="0"/>
   </g>
   <g transform="matrix(-1 0 0 -1 105 51.913)">
    <rect id="connector42pin" x="50.941" y="23.972" width="3.1181" height="3.9685" fill="#9A916C" stroke-width="0"/>
   </g>
   <g transform="matrix(-1 0 0 -1 93.663 51.913)">
    <rect id="connector43pin" x="45.272" y="23.972" width="3.1181" height="3.9685" fill="#9A916C" stroke-width="0"/>
   </g>
   <rect id="connector44pin" x="41.192" y="1.787" width="2.8346" height="2.8346" rx="1.4173" ry="1.4173" fill="#9A916C" stroke-width="0"/>
   <rect id="connector45pin" x="4.0405" y="50.819" width="2.8346" height="2.8346" rx="1.4173" ry="1.4173" fill="#9A916C" stroke-width="0"/>
   <circle id="connector46pin" cx="50.386" cy="7.2363" r="3.8381" fill="none" stroke="#9A916C" stroke-width="1.44" connectorname="P$1"/>
   <circle id="connector47pin" cx="7.1858" cy="7.2363" r="3.8381" fill="none" stroke="#9A916C" stroke-width="1.44" connectorname="P$1"/>
  </g>
  <g transform="translate(5.7913 24.905)">
   <g id="c0805k">
    <g transform="matrix(-1 0 0 -1 5.669 3.543)">
     <path d="m5.386 3.543h-5.103c-0.156 0-0.283-0.127-0.283-0.283v-2.977c0-0.156 0.127-0.283 0.283-0.283h5.102c0.157 0 0.283 0.127 0.283 0.283v2.977c1e-3 0.156-0.126 0.283-0.282 0.283z" fill="#DCDCDC"/>
     <rect x="1.063" width="3.543" height="3.543" fill="#6E554B"/>
    </g>
   </g>
  </g>
  <g transform="translate(5.7913 42.185)">
   <g transform="matrix(-1 0 0 -1 5.669 3.543)">
    <path d="m5.386 3.543h-5.103c-0.156 0-0.283-0.127-0.283-0.283v-2.977c0-0.156 0.127-0.283 0.283-0.283h5.102c0.157 0 0.283 0.127 0.283 0.283v2.977c1e-3 0.156-0.126 0.283-0.282 0.283z" fill="#DCDCDC"/>
    <rect x="1.063" width="3.543" height="3.543" fill="#6E554B"/>
   </g>
  </g>
  <g transform="translate(26.671 22.745)">
   <g id="_0805">
    <path d="m5.386 3.543h-5.103c-0.156 0-0.283-0.127-0.283-0.283v-2.977c0-0.156 0.127-0.283 0.283-0.283h5.102c0.157 0 0.283 0.127 0.283 0.283v2.977c1e-3 0.156-0.126 0.283-0.282 0.283z" fill="#DCDCDC"/>
    <rect x="1.063" width="3.543" height="3.543" fill="#6E554B"/>
   </g>
  </g>
  <g transform="translate(44.682 36.425)">
   <g id="sod-323f">
    <metadata id="metadata11">
     <rdf:RDF xmlns:rdf="http://www.w3.org/1999/02/22-rdf-syntax-ns#">
      <cc:Work rdf:about="" xmlns:cc="http://creativecommons.org/ns#" xmlns:rdf="http://www.w3.org/1999/02/22-rdf-syntax-ns#">
       <dc:format xmlns:dc="http://purl.org/dc/elements/1.1/">image/svg+xml</dc:format>
       <dc:type rdf:resource="http://purl.org/dc/dcmitype/StillImage" xmlns:dc="http://purl.org/dc/elements/1.1/" xmlns:rdf="http://www.w3.org/1999/02/22-rdf-syntax-ns#"/>
      </cc:Work>
     </rdf:RDF>
    </metadata>
    <rect id="rect3" y="1.346" width="7.087" height=".85" fill="#DCDCDC"/>
    <rect id="rect5" x="1.134" width="4.819" height="3.543" fill="#303030"/>
    <rect id="rect3339" x="1.5587" y=".011677" width=".6332" height="3.5557" fill="#666"/>
   </g>
  </g>
  <g transform="translate(44.682 30.665)">
   <metadata>
    <rdf:RDF xmlns:rdf="http://www.w3.org/1999/02/22-rdf-syntax-ns#">
     <cc:Work rdf:about="" xmlns:cc="http://creativecommons.org/ns#" xmlns:rdf="http://www.w3.org/1999/02/22-rdf-syntax-ns#">
      <dc:format xmlns:dc="http://purl.org/dc/elements/1.1/">image/svg+xml</dc:format>
      <dc:type rdf:resource="http://purl.org/dc/dcmitype/StillImage" xmlns:dc="http://purl.org/dc/elements/1.1/" xmlns:rdf="http://www.w3.org/1999/02/22-rdf-syntax-ns#"/>
     </cc:Work>
    </rdf:RDF>
   </metadata>
   <rect id="rect3" y="1.346" width="7.087" height=".85" fill="#DCDCDC"/>
   <rect id="rect5" x="1.134" width="4.819" height="3.543" fill="#303030"/>
   <rect x="1.5587" y=".011677" width=".6332" height="3.5557" fill="#666"/>
  </g>
  <g transform="translate(4.3513 17.705)">
   <g id="_0805">
    <path d="m5.386 3.543h-5.103c-0.156 0-0.283-0.127-0.283-0.283v-2.977c0-0.156 0.127-0.283 0.283-0.283h5.102c0.157 0 0.283 0.127 0.283 0.283v2.977c1e-3 0.156-0.126 0.283-0.282 0.283z" fill="#DCDCDC"/>
    <rect x="1.063" width="3.543" height="3.543" fill="#6E554B"/>
   </g>
  </g>
  <g transform="translate(47.551 16.985)">
   <g transform="matrix(-1 0 0 -1 5.669 3.543)">
    <path d="m5.386 3.543h-5.103c-0.156 0-0.283-0.127-0.283-0.283v-2.977c0-0.156 0.127-0.283 0.283-0.283h5.102c0.157 0 0.283 0.127 0.283 0.283v2.977c1e-3 0.156-0.126 0.283-0.282 0.283z" fill="#DCDCDC"/>
    <rect x="1.063" width="3.543" height="3.543" fill="#6E554B"/>
   </g>
  </g>
  <g transform="translate(4.5158 31.489)">
   <g transform="matrix(-1 0 0 -1 8.22 7.654)">
    <rect x=".85" width="1.134" height="7.654" fill="#DCDCDC"/>
    <rect x="6.236" width="1.134" height="7.654" fill="#DCDCDC"/>
    <rect x="3.543" y="4.535" width="1.134" height="3.118" fill="#DCDCDC"/>
    <rect y="1.559" width="8.22" height="4.535" fill="#303030"/>
   </g>
  </g>
  <g transform="translate(17.447 .63154)">
   <g transform="matrix(-1 0 0 -1 22.11 19.843)">
    <metadata>
     <rdf:RDF xmlns:rdf="http://www.w3.org/1999/02/22-rdf-syntax-ns#">
      <cc:Work rdf:about="" xmlns:cc="http://creativecommons.org/ns#" xmlns:rdf="http://www.w3.org/1999/02/22-rdf-syntax-ns#">
       <dc:format xmlns:dc="http://purl.org/dc/elements/1.1/">image/svg+xml</dc:format>
       <dc:type rdf:resource="http://purl.org/dc/dcmitype/StillImage" xmlns:dc="http://purl.org/dc/elements/1.1/" xmlns:rdf="http://www.w3.org/1999/02/22-rdf-syntax-ns#"/>
       <dc:title xmlns:dc="http://purl.org/dc/elements/1.1/"/>
      </cc:Work>
     </rdf:RDF>
    </metadata>
    <rect x="18.709" y="12.189" width="2.2679" height="5.1019" fill="#0c3878"/>
    <rect x="19.843" y="1.134" width="2.2679" height="2.2679" fill="#0c3878"/>
    <g transform="scale(1.25)">
     <polygon points="16.781 0 0.9072 0 0.9072 10.885 0 10.885 0 12.699 0.9072 12.699 0.9072 14.74 16.781 14.74 16.781 12.699 15.874 12.699 15.874 10.885 16.781 10.885" fill="#015dd9"/>
    </g>
    <circle cx="6.0948" cy="9.9207" r="3.6849" fill="#b4b4b4"/>
    <circle cx="16.016" cy="9.9207" r="3.6849" fill="#b4b4b4"/>
    <rect x="2.5509" y="1.417" width="7.3698" height="2.8349" fill="#0c3878"/>
    <rect x="11.339" y="1.417" width="7.3698" height="2.8349" fill="#0c3878"/>
    <g transform="scale(1.25)">
     <polygon points="0.9072 15.874 3.7416 15.874 3.7416 14.471 6.0096 14.471 6.0096 15.874 11.678 15.874 11.678 14.471 13.946 14.471 13.946 15.874 16.781 15.874 16.781 13.606 0.9072 13.606" fill="#0c3878"/>
    </g>
    <rect x="1.843" y="17.805" width="8.5038" height="1.701" fill="#8c8c8c"/>
    <rect x="11.764" y="17.805" width="8.5038" height="1.701" fill="#8c8c8c"/>
    <path d="m6.1818 6.9628-1.643 0.43999 0.51399 1.917-2.6329 0.70598c0.0080032 0.28199 0.038999 0.56499 0.115 0.84898 0.075998 0.28399 0.191 0.54499 0.32499 0.79298l2.6329-0.70598 0.51399 1.917 1.643-0.43999-0.51399-1.917 2.6329-0.70598c-0.008024-0.28099-0.038992-0.56498-0.115-0.84798-0.076-0.28299-0.191-0.54599-0.32499-0.79398l-2.6329 0.70595-0.51398-1.9169z" fill="#646464" connector-curvature="0"/>
    <path d="m13.498 8.3658-0.43999 1.643 1.917 0.51399-0.70598 2.6329c0.24799 0.134 0.50899 0.24899 0.79298 0.32499 0.28399 0.076 0.56799 0.107 0.84898 0.115l0.70598-2.6329 1.917 0.51399 0.43999-1.643-1.917-0.51399 0.70598-2.6329c-0.24799-0.13402-0.50899-0.24902-0.79299-0.32501-0.284-0.07601-0.568-0.107-0.849-0.115l-0.707 2.6329-1.9159-0.51394z" fill="#646464" connector-curvature="0"/>
   </g>
  </g>
  <g transform="translate(44.671 42.905)">
   <g id="0805-res">
    <g transform="matrix(-1 0 0 -1 5.669 3.543)">
     <path d="m5.386 3.543h-5.103c-0.156 0-0.283-0.127-0.283-0.283v-2.977c0-0.156 0.127-0.283 0.283-0.283h5.102c0.157 0 0.283 0.127 0.283 0.283v2.977c1e-3 0.156-0.126 0.283-0.282 0.283z" fill="#DCDCDC"/>
     <rect x="1.063" width="3.543" height="3.543" fill="#333"/>
    </g>
   </g>
  </g>
  <g transform="translate(46.831 24.185)">
   <g transform="matrix(-1 0 0 -1 5.669 3.543)">
    <path d="m5.386 3.543h-5.103c-0.156 0-0.283-0.127-0.283-0.283v-2.977c0-0.156 0.127-0.283 0.283-0.283h5.102c0.157 0 0.283 0.127 0.283 0.283v2.977c1e-3 0.156-0.126 0.283-0.282 0.283z" fill="#DCDCDC"/>
    <rect x="1.063" width="3.543" height="3.543" fill="#333"/>
   </g>
  </g>
 </g>
</svg>
