<?xml version="1.0" encoding="UTF-8"?>
<!-- Created with Inkscape (http://www.inkscape.org/) -->
<svg width="131.1" height="145.28" version="1.1" xmlns="http://www.w3.org/2000/svg" xmlns:cc="http://creativecommons.org/ns#" xmlns:dc="http://purl.org/dc/elements/1.1/" xmlns:rdf="http://www.w3.org/1999/02/22-rdf-syntax-ns#" xmlns:xlink="http://www.w3.org/1999/xlink">
 <defs>
  <linearGradient id="linearGradient31298">
   <stop stop-color="#b3b3b3" stop-opacity="0" offset="0"/>
   <stop stop-color="#fff" stop-opacity=".45098" offset=".30556"/>
   <stop stop-color="#464646" stop-opacity=".0625" offset="1"/>
  </linearGradient>
  <linearGradient id="linearGradient31191">
   <stop stop-color="#878787" stop-opacity="0" offset="0"/>
   <stop stop-color="#c3c3c3" stop-opacity="0" offset=".19444"/>
   <stop stop-color="#fff" stop-opacity=".49804" offset=".25617"/>
   <stop stop-color="#c0c0c0" stop-opacity="0" offset=".32849"/>
   <stop stop-color="#818181" stop-opacity="0" offset="1"/>
  </linearGradient>
  <linearGradient id="linearGradient31189" x1="63.693" x2="166.62" y1="363.19" y2="363.19" gradientTransform="translate(-49.608 7.0829)" gradientUnits="userSpaceOnUse" xlink:href="#linearGradient31191"/>
  <linearGradient id="linearGradient31224" x1="95.669" x2="95.669" y1="322.44" y2="329.53" gradientTransform="translate(-49.608 7.0829)" gradientUnits="userSpaceOnUse">
   <stop stop-color="#878787" stop-opacity="0" offset="0"/>
   <stop stop-color="#c3c3c3" stop-opacity=".24706" offset=".25"/>
   <stop stop-color="#fff" stop-opacity=".49804" offset=".4"/>
   <stop stop-color="#c0c0c0" stop-opacity=".24706" offset=".6"/>
   <stop stop-color="#818181" stop-opacity="0" offset="1"/>
  </linearGradient>
  <linearGradient id="linearGradient31229" x1="56.693" x2="173.62" y1="325.98" y2="325.98" gradientTransform="translate(-49.608 7.0829)" gradientUnits="userSpaceOnUse" xlink:href="#linearGradient31191"/>
  <linearGradient id="linearGradient31237" x1="70.774" x2="159.54" y1="315.35" y2="315.35" gradientTransform="translate(-49.608 7.0829)" gradientUnits="userSpaceOnUse" xlink:href="#linearGradient31191"/>
  <linearGradient id="linearGradient31242" x1="113.39" x2="113.39" y1="308.27" y2="322.44" gradientTransform="translate(-49.608 7.0829)" gradientUnits="userSpaceOnUse">
   <stop stop-color="#878787" stop-opacity="0" offset="0"/>
   <stop stop-color="#c3c3c3" stop-opacity="0" offset=".25"/>
   <stop stop-color="#fff" stop-opacity=".49804" offset=".325"/>
   <stop stop-color="#c0c0c0" stop-opacity="0" offset=".5"/>
   <stop stop-color="#818181" stop-opacity="0" offset="1"/>
  </linearGradient>
  <linearGradient id="linearGradient31296" x1="28.346" x2="31.89" y1="40.748" y2="40.748" gradientUnits="userSpaceOnUse" xlink:href="#linearGradient31298"/>
  <linearGradient id="linearGradient31316" x1="28.346" x2="31.89" y1="40.748" y2="40.748" gradientTransform="translate(71.575 304.72)" gradientUnits="userSpaceOnUse" xlink:href="#linearGradient31298"/>
 </defs>
 <metadata>
  <rdf:RDF>
   <cc:Work rdf:about="">
    <dc:format>image/svg+xml</dc:format>
    <dc:type rdf:resource="http://purl.org/dc/dcmitype/StillImage"/>
    <dc:title/>
   </cc:Work>
  </rdf:RDF>
 </metadata>
 <g transform="translate(0 -304.72)">
  <g id="icon">
   <path transform="translate(0 -602.36)" d="m76.179 1016.9c-1.963 0-3.5312 1.5995-3.5312 3.5625v21.25c0 1.9629 1.5683 3.5312 3.5312 3.5312s3.5625-1.5683 3.5625-3.5312v-21.25c0-1.963-1.5995-3.5625-3.5625-3.5625zm0 23.031c0.97846 0 1.7812 0.8028 1.7812 1.7813 0 0.9784-0.80279 1.7812-1.7812 1.7812s-1.7812-0.8028-1.7812-1.7812c0-0.9785 0.80279-1.7813 1.7812-1.7813z" fill="#decd87" fill-rule="evenodd"/>
   <path transform="translate(0 -602.36)" d="m54.92 1016.9c-1.963 0-3.5312 1.5995-3.5312 3.5625v21.25c0 1.963 1.5683 3.5313 3.5312 3.5313s3.5625-1.5683 3.5625-3.5313v-21.25c0-1.963-1.5995-3.5625-3.5625-3.5625zm0 23.031c0.97846 0 1.7812 0.8027 1.7812 1.7812s-0.80279 1.7813-1.7812 1.7813-1.7812-0.8028-1.7812-1.7813 0.80279-1.7812 1.7812-1.7812z" fill="#decd87" fill-rule="evenodd"/>
   <rect transform="translate(0 -602.36)" x="17.715" y="935.43" width="95.669" height="67.323" rx="7.0866" fill="#fff" stroke="#000" stroke-dashoffset=".288" stroke-linejoin="round" stroke-width=".17717"/>
   <rect transform="translate(0 -602.36)" x="46.061" y="1002.7" width="38.976" height="21.26" fill="#1a1a1a" fill-rule="evenodd"/>
   <path transform="translate(0 -602.36)" d="m47.833 1023.7 1.7717 7.4372h10.63l1.7716-7.4372z" color="#000000" fill="#1a1a1a"/>
   <path transform="translate(0 -602.36)" d="m69.093 1023.7 1.7716 7.4372h10.63l1.7716-7.4372z" color="#000000" fill="#1a1a1a"/>
   <path d="m21.258 319.6v9.9212h88.583v-10.63m-88.587 0.72843c28.807-5.4673 59.579-5.6912 88.589-0.64456" color="#000000" fill="#00aad4" fill-opacity=".7663"/>
   <path d="m14.173 336.61v7.0938 17.719 35.406c0 3.926 3.1678 7.0938 7.0938 7.0938h88.563c3.926 0 7.0938-3.1678 7.0938-7.0938v-35.406-17.719-7.0938h-7.0938-88.563-7.0938z" fill="#00aad4" fill-opacity=".72283"/>
   <path d="m14.173 329.52c-3.926 0-7.0937 3.1678-7.0937 7.0938h116.94c0-3.926-3.1678-7.0938-7.0938-7.0938h-102.75z" fill="#00aad4" fill-opacity=".7663" fill-rule="evenodd" stroke="#545454" stroke-dashoffset=".288" stroke-linejoin="round" stroke-width=".17717"/>
   <path d="m21.258 319.6v9.9212h88.583v-10.63m-88.587 0.72843c28.807-5.4673 59.579-5.6912 88.589-0.64456" color="#000000" fill="url(#linearGradient31237)"/>
   <path d="m14.173 336.61v7.0938 17.719 35.406c0 3.926 3.1678 7.0938 7.0938 7.0938h88.563c3.926 0 7.0938-3.1678 7.0938-7.0938v-35.406-17.719-7.0938h-7.0938-88.563-7.0938z" fill="url(#linearGradient31189)"/>
   <path d="m14.173 329.52c-3.926 0-7.0937 3.1678-7.0937 7.0938h116.94c0-3.926-3.1678-7.0938-7.0938-7.0938h-102.75z" fill="url(#linearGradient31229)" fill-rule="evenodd"/>
   <path id="connector1pin" transform="translate(0 304.72)" d="m60.236 134.65a5.315 5.315 0 1 1-10.63 0 5.315 5.315 0 1 1 10.63 0z" fill-opacity="0"/>
   <path id="connector2pin" transform="translate(21.26 304.72)" d="m60.236 134.65a5.315 5.315 0 1 1-10.63 0 5.315 5.315 0 1 1 10.63 0z" fill-opacity="0"/>
  </g>
  <path d="m14.173 329.52c-3.926 0-7.0937 3.1678-7.0937 7.0938h116.94c0-3.926-3.1678-7.0938-7.0938-7.0938h-102.75z" fill="url(#linearGradient31224)" fill-rule="evenodd"/>
  <path d="m21.258 319.6v9.9212h88.583v-10.63m-88.587 0.72843c28.807-5.4673 59.579-5.6912 88.589-0.64456" color="#000000" fill="url(#linearGradient31242)"/>
 </g>
 <g transform="translate(0 -304.72)" fill-rule="evenodd" stroke="#000" stroke-opacity=".11957" stroke-width=".17717">
  <rect transform="translate(0 304.72)" x="28.346" y="31.89" width="2.8346" height="17.717" fill="url(#linearGradient31296)"/>
  <rect x="99.921" y="336.61" width="2.8346" height="17.717" fill="url(#linearGradient31316)"/>
 </g>
 <rect transform="translate(0 -907.08)" x="17.715" y="935.43" width="95.669" height="67.323" rx="7.0866" fill="#fff" fill-opacity=".36957"/>
</svg>
