<?xml version="1.0" encoding="UTF-8"?>
<!-- Generator: Adobe Illustrator 20.0.0, SVG Export Plug-In . SVG Version: 6.00 Build 0)  -->
<svg width=".8in" height=".6in" baseProfile="tiny" version="1.2" viewBox="0 0 57.6 43.2" xml:space="preserve" xmlns="http://www.w3.org/2000/svg" xmlns:xml="http://www.w3.org/XML/1998/namespace">
    <desc>
        <referenceFile>Adafruit SPI Non-Volatile FRAM 8KB_breadboard.svg</referenceFile>
    </desc>
    <desc>Fritzing breadboard generated by brd2svg</desc>
    <g id="breadboard">
        <g id="icon">
            <path d="m0 7.2c0-3.976 3.224-7.2 7.2-7.2h43.2c3.976 0 7.2 3.224 7.2 7.2v28.8c0 3.976-3.224 7.2-7.2 7.2h-43.2c-3.976 0-7.2-3.224-7.2-7.2v-28.8m52.583 28.8c0 0.783 0.635 1.417 1.417 1.417 0.783 0 1.417-0.635 1.417-1.417s-0.634-1.417-1.417-1.417-1.417 0.634-1.417 1.417zm-7.2 0c0 0.783 0.635 1.417 1.417 1.417 0.783 0 1.417-0.635 1.417-1.417s-0.635-1.417-1.417-1.417-1.417 0.634-1.417 1.417zm-7.2 0c0 0.783 0.635 1.417 1.417 1.417s1.417-0.635 1.417-1.417-0.635-1.417-1.417-1.417-1.417 0.634-1.417 1.417zm-7.2 0c0 0.783 0.635 1.417 1.417 1.417 0.783 0 1.417-0.635 1.417-1.417s-0.635-1.417-1.417-1.417c-0.783 0-1.417 0.634-1.417 1.417zm-7.2 0c0 0.783 0.635 1.417 1.417 1.417 0.783 0 1.417-0.635 1.417-1.417 0-0.783-0.635-1.417-1.417-1.417-0.783 0-1.417 0.634-1.417 1.417zm-7.2 0c0 0.783 0.635 1.417 1.417 1.417 0.783 0 1.417-0.635 1.417-1.417 0-0.783-0.635-1.417-1.417-1.417-0.783 0-1.417 0.634-1.417 1.417zm-7.2 0c0 0.783 0.635 1.417 1.417 1.417s1.417-0.635 1.417-1.417c0-0.783-0.635-1.417-1.417-1.417s-1.417 0.634-1.417 1.417zm-7.2 0c0 0.783 0.635 1.417 1.417 1.417s1.417-0.634 1.417-1.417-0.634-1.417-1.417-1.417-1.417 0.634-1.417 1.417zm44.674-28.8c-3e-3 1.957 1.58 3.546 3.537 3.55 1.957 3e-3 3.546-1.58 3.55-3.537v-0.012c3e-3 -1.957-1.58-3.546-3.537-3.55-1.957-3e-3 -3.546 1.58-3.55 3.537v0.012zm-43.2 0c-3e-3 1.957 1.58 3.546 3.537 3.549s3.546-1.58 3.549-3.537v-0.012c3e-3 -1.957-1.58-3.546-3.537-3.549-1.957-4e-3 -3.546 1.58-3.549 3.537v0.012z" fill="#014CB1"/>
            <g>
                <title>layer 21</title>
                <g>
                    <title>text:VCC</title>
                    <g transform="translate(5.4632 28.193)">
                        
                            <g transform="rotate(270)">
                                
                                    <g transform="translate(-4.7597 -.4943)">
                                        <text fill="#FFFFFF" font-family="'OCRA'" font-size="2.6726">VCC</text>
                                    </g>
                                
                            </g>
                        
                    </g>
                </g>
                <g>
                    <title>text:GND</title>
                    <g transform="translate(6.9388 42.744)">
                        <text fill="#FFFFFF" font-family="'OCRA'" font-size="2.6726">GND</text>
                    </g>
                </g>
                <g>
                    <title>text:MOSI</title>
                    <g transform="translate(35.138 42.903)">
                        <text fill="#FFFFFF" font-family="'OCRA'" font-size="2.6726">MOSI</text>
                    </g>
                </g>
                <g>
                    <title>text:MISO</title>
                    <g transform="translate(27.824 32.664)">
                        <text fill="#FFFFFF" font-family="'OCRA'" font-size="2.6726">MISO</text>
                    </g>
                </g>
                <g>
                    <title>text:SCK</title>
                    <g transform="translate(21.719 42.903)">
                        <text fill="#FFFFFF" font-family="'OCRA'" font-size="2.6726">SCK</text>
                    </g>
                </g>
                <g>
                    <title>text:!CS</title>
                    <g transform="translate(44.243 32.664)">
                        <text fill="#FFFFFF" font-family="'OCRA'" font-size="2.6726">CS</text>
                    </g>
                </g>
                <g>
                    <title>text:!WP</title>
                    <g transform="translate(51.319 32.823)">
                        <text fill="#FFFFFF" font-family="'OCRA'" font-size="2.6726">WP</text>
                    </g>
                </g>
                <g>
                    <title>text:!HOLD</title>
                    <g transform="translate(13.213 32.664)">
                        <text fill="#FFFFFF" font-family="'OCRA'" font-size="2.6726">HOLD</text>
                    </g>
                </g>
                <g>
                    <title>text:SPI FRAM
Breakout</title>
                    <g transform="translate(0 -1.8792)">
                        
                            <g transform="translate(18.849 8.0304)">
                                <text fill="#FFFFFF" font-family="'OCRA'" font-size="3.0067">SPI FRAM</text>
                            </g>
                        
                    </g>
                    <g transform="translate(0 1.8792)">
                        
                            <g transform="translate(18.849 8.0304)">
                                <text fill="#FFFFFF" font-family="'OCRA'" font-size="3.0067">Breakout</text>
                            </g>
                        
                    </g>
                </g>
                <g>
                    <title>element:C1</title>
                    <g>
                        <title>package:_0805MP</title>
                        <line x1="45.06" x2="47.939" y1="20.432" y2="20.432" fill="none" stroke="#fff" stroke-linecap="round" stroke-width=".576"/>
                    </g>
                </g>
                <g>
                    <title>element:FID1</title>
                    <g>
                        <title>package:FIDUCIAL_1MM</title>
                    </g>
                </g>
                <g>
                    <title>element:FID2</title>
                    <g>
                        <title>package:FIDUCIAL_1MM</title>
                    </g>
                </g>
                <g>
                    <title>element:JP1</title>
                    <g>
                        <title>package:1X08_ROUND_70</title>
                    </g>
                </g>
                <g>
                    <title>element:R2</title>
                    <g>
                        <title>package:_0805MP</title>
                        <line x1="15.897" x2="13.017" y1="21.657" y2="21.657" fill="none" stroke="#fff" stroke-linecap="round" stroke-width=".576"/>
                    </g>
                </g>
                <g>
                    <title>element:U$4</title>
                    <g>
                        <title>package:ADAFRUIT_3.5MM</title>
                    </g>
                </g>
                <g>
                    <title>element:U$5</title>
                    <g>
                        <title>package:MOUNTINGHOLE_2.5_PLATED</title>
                        <circle cx="50.4" cy="7.2" r="5.669" fill="none" stroke="#fff" stroke-width=".576"/>
                    </g>
                </g>
                <g>
                    <title>element:U$6</title>
                    <g>
                        <title>package:MOUNTINGHOLE_2.5_PLATED</title>
                        <circle cx="7.2" cy="7.2" r="5.669" fill="none" stroke="#fff" stroke-width=".576"/>
                    </g>
                </g>
                <g>
                    <title>element:U$7</title>
                    <g>
                        <title>package:ADAFRUIT_3.5MM</title>
                    </g>
                </g>
                <g>
                    <title>element:U1</title>
                    <g>
                        <title>package:SOIC8_150MIL</title>
                        <line x1="34.186" x2="23.414" y1="26.243" y2="26.243" fill="none" stroke="#fff" stroke-linecap="round" stroke-width=".576"/>
                        <line x1="23.414" x2="34.186" y1="12.637" y2="12.637" fill="none" stroke="#fff" stroke-linecap="round" stroke-width=".576"/>
                    </g>
                </g>
            </g>
            <g transform="matrix(0 -1 1 0 23.187 69.812)">
                
                    <g transform="matrix(-2.5352e-6 -1 1 -2.5352e-6 23.188 69.812)">
                        <rect id="connector5pin" x="44.657" y="21.611" width="3.685" height="3.402" fill="#9A916C"/>
                    </g>
                
            </g>
            <g transform="matrix(0 -1 1 0 28.947 64.052)">
                
                    <g transform="matrix(-2.5352e-6 -1 1 -2.5352e-6 28.948 64.052)">
                        <rect id="connector6pin" x="44.657" y="15.851" width="3.685" height="3.402" fill="#9A916C"/>
                    </g>
                
            </g>
            <path id="connector7pin" d="m14.451 11.713c0.783 0 1.417 0.635 1.417 1.417 0 0.783-0.635 1.417-1.417 1.417-0.783 0-1.417-0.635-1.417-1.417 0-0.783 0.634-1.417 1.417-1.417z" fill="#9A916C"/>
            <path id="connector8pin" d="m52.917 23.726c0.783 0 1.417 0.635 1.417 1.417 0 0.783-0.635 1.417-1.417 1.417-0.783 0-1.417-0.635-1.417-1.417s0.634-1.417 1.417-1.417z" fill="#9A916C"/>
            <circle id="connector9pin" cx="54" cy="36" r="1.969" fill="none" stroke="#9A916C" stroke-width="1.1027"/>
            <circle id="connector10pin" cx="46.8" cy="36" r="1.969" fill="none" stroke="#9A916C" stroke-width="1.1027"/>
            <circle id="connector11pin" cx="39.6" cy="36" r="1.969" fill="none" stroke="#9A916C" stroke-width="1.1027"/>
            <circle id="connector12pin" cx="32.4" cy="36" r="1.969" fill="none" stroke="#9A916C" stroke-width="1.1027"/>
            <circle id="connector13pin" cx="25.2" cy="36" r="1.969" fill="none" stroke="#9A916C" stroke-width="1.1027"/>
            <circle id="connector14pin" cx="18" cy="36" r="1.969" fill="none" stroke="#9A916C" stroke-width="1.1027"/>
            <circle id="connector15pin" cx="10.8" cy="36" r="1.969" fill="none" stroke="#9A916C" stroke-width="1.1027"/>
            <circle id="connector16pin" cx="3.6" cy="36" r="1.969" fill="none" stroke="#9A916C" stroke-width="1.1027"/>
            <g transform="matrix(0 1 -1 0 33.233 4.32)">
                
                    <g transform="matrix(2.5352e-6 1 -1 2.5352e-6 33.233 4.32)">
                        <rect id="connector17pin" x="12.614" y="17.076" width="3.685" height="3.402" fill="#9A916C"/>
                    </g>
                
            </g>
            <g transform="matrix(0 1 -1 0 38.993 10.08)">
                
                    <g transform="matrix(2.5352e-6 1 -1 2.5352e-6 38.993 10.08)">
                        <rect id="connector18pin" x="12.614" y="22.836" width="3.685" height="3.402" fill="#9A916C"/>
                    </g>
                
            </g>
            <circle id="connector19pin" cx="50.4" cy="7.2" r="4.263" fill="none" stroke="#9A916C" stroke-width="1.44"/>
            <circle id="connector20pin" cx="7.2" cy="7.2" r="4.263" fill="none" stroke="#9A916C" stroke-width="1.44"/>
            <g transform="matrix(0 -1 1 0 11.33 61.01)">
                
                    <g transform="matrix(-2.5352e-6 -1 1 -2.5352e-6 11.33 61.01)">
                        <rect id="connector21pin" x="33.052" y="23.99" width="6.236" height="1.701" fill="#9A916C"/>
                    </g>
                
            </g>
            <g transform="matrix(0 -1 1 0 14.93 57.41)">
                
                    <g transform="matrix(-2.5352e-6 -1 1 -2.5352e-6 14.93 57.41)">
                        <rect id="connector22pin" x="33.052" y="20.39" width="6.236" height="1.701" fill="#9A916C"/>
                    </g>
                
            </g>
            <g transform="matrix(0 -1 1 0 18.53 53.81)">
                
                    <g transform="matrix(-2.5352e-6 -1 1 -2.5352e-6 18.53 53.81)">
                        <rect id="connector23pin" x="33.052" y="16.79" width="6.236" height="1.701" fill="#9A916C"/>
                    </g>
                
            </g>
            <g transform="matrix(0 -1 1 0 22.13 50.21)">
                
                    <g transform="matrix(-2.5352e-6 -1 1 -2.5352e-6 22.13 50.21)">
                        <rect id="connector24pin" x="33.052" y="13.19" width="6.236" height="1.701" fill="#9A916C"/>
                    </g>
                
            </g>
            <g transform="matrix(0 -1 1 0 7.3899 35.47)">
                
                    <g transform="matrix(-2.5352e-6 -1 1 -2.5352e-6 7.3899 35.47)">
                        <rect id="connector25pin" x="18.312" y="13.19" width="6.236" height="1.701" fill="#9A916C"/>
                    </g>
                
            </g>
            <g transform="matrix(0 -1 1 0 3.7899 39.07)">
                
                    <g transform="matrix(-2.5352e-6 -1 1 -2.5352e-6 3.7899 39.07)">
                        <rect id="connector26pin" x="18.312" y="16.79" width="6.236" height="1.701" fill="#9A916C"/>
                    </g>
                
            </g>
            <g transform="matrix(0 -1 1 0 .18992 42.67)">
                
                    <g transform="matrix(-2.5352e-6 -1 1 -2.5352e-6 .1899 42.67)">
                        <rect id="connector27pin" x="18.312" y="20.39" width="6.236" height="1.701" fill="#9A916C"/>
                    </g>
                
            </g>
            <g transform="matrix(0 -1 1 0 -3.4101 46.27)">
                
                    <g transform="matrix(-2.5352e-6 -1 1 -2.5352e-6 -3.4101 46.27)">
                        <rect id="connector28pin" x="18.312" y="23.99" width="6.236" height="1.701" fill="#9A916C"/>
                    </g>
                
            </g>
        </g>
        <g transform="translate(43.665 18.661)">
            
                <g transform="matrix(0 -1 1 0 1.063 4.606)">
                    
                        <path d="M5.386,3.543H0.283C0.127,3.543,0,3.416,0,3.26V0.283C0,0.127,0.127,0,0.283,0h5.102c0.157,0,0.283,0.127,0.283,0.283V3.26C5.669,3.416,5.542,3.543,5.386,3.543z" fill="#DCDCDC"/>
                        <g transform="matrix(-2.5352e-6 -1 1 -2.5352e-6 1.063 4.606)">
                            <rect x="1.063" width="3.543" height="3.543" fill="#6E554B"/>
                        </g>
                    
                </g>
            
        </g>
        <g transform="translate(11.622 19.885)">
            
                <g transform="matrix(0 1 -1 0 4.606 -1.063)">
                    
                        <path d="M5.386,3.543H0.283C0.127,3.543,0,3.416,0,3.26V0.283C0,0.127,0.127,0,0.283,0h5.102c0.157,0,0.283,0.127,0.283,0.283V3.26C5.669,3.416,5.542,3.543,5.386,3.543z" fill="#DCDCDC"/>
                        <g transform="matrix(2.5352e-6 1 -1 2.5352e-6 4.606 -1.063)">
                            <rect x="1.063" width="3.543" height="3.543" fill="#333"/>
                        </g>
                    
                </g>
            
        </g>
        <g transform="translate(2.9817 15.2)">
            
                <g transform="matrix(0 -1 1 0 .001476 9.7785)">
                    
                        <path d="m11.305 3.416c-0.032-0.2-0.141-0.257-0.403-0.341-0.199-0.064-1.533-0.489-1.533-0.489s-0.93-0.351-1.619 0.146c-0.093 0.066-0.189 0.143-0.286 0.224 0.082-0.097 0.158-0.193 0.224-0.286 0.495-0.69 0.143-1.619 0.143-1.619s-0.427-1.334-0.492-1.533c-0.085-0.262-0.142-0.37-0.342-0.402s-0.288 0.054-0.449 0.277c-0.122 0.17-0.939 1.307-0.939 1.307s-0.621 0.777-0.361 1.586c0.034 0.109 0.077 0.224 0.125 0.341-0.067-0.108-0.135-0.209-0.203-0.302-0.503-0.684-1.496-0.636-1.496-0.636s-1.4-6e-3 -1.61-6e-3c-0.275-1e-3 -0.396 0.02-0.488 0.201-0.091 0.181-0.037 0.291 0.126 0.513 0.124 0.169 0.953 1.297 0.953 1.297s0.546 0.83 1.395 0.834c0.114 0 0.236-5e-3 0.362-0.014-0.122 0.03-0.24 0.064-0.348 0.1-0.806 0.267-1.067 1.226-1.067 1.226s-0.438 1.33-0.503 1.529c-0.086 0.261-0.103 0.383 0.04 0.526 0.144 0.143 0.265 0.126 0.526 0.04 0.199-0.065 1.528-0.506 1.528-0.506s0.958-0.263 1.224-1.07c0.036-0.108 0.069-0.225 0.1-0.348-9e-3 0.126-0.014 0.248-0.013 0.362 5e-3 0.849 0.836 1.394 0.836 1.394s1.13 0.827 1.298 0.951c0.223 0.162 0.333 0.216 0.514 0.124s0.201-0.213 0.2-0.488c-1e-3 -0.21-9e-3 -1.61-9e-3 -1.61s0.047-0.993-0.639-1.495c-0.092-0.067-0.194-0.135-0.301-0.202 0.117 0.047 0.232 0.09 0.34 0.124 0.81 0.258 1.584-0.364 1.584-0.364s1.136-0.819 1.306-0.941c0.223-0.161 0.309-0.249 0.277-0.45zm-4.822-1.031c0.152 0.024 0.228 0.349 0.169 0.726s-0.231 0.662-0.384 0.638-0.229-0.349-0.169-0.725c0.059-0.377 0.231-0.663 0.384-0.639zm-1.956 0.999c0.07-0.138 0.402-0.11 0.742 0.063s0.558 0.425 0.488 0.563-0.402 0.11-0.742-0.063-0.558-0.425-0.488-0.563zm1.031 1.878c-0.269 0.27-0.577 0.4-0.686 0.291s0.02-0.416 0.29-0.686c0.269-0.27 0.576-0.4 0.686-0.291 0.109 0.109-0.021 0.416-0.29 0.686zm1.484 0.633c-0.138 0.07-0.39-0.148-0.563-0.487-0.174-0.34-0.203-0.673-0.065-0.743s0.39 0.148 0.563 0.487c0.173 0.34 0.202 0.672 0.065 0.743zm0.357-1.573c-0.377 0.06-0.701-0.015-0.726-0.168-0.024-0.153 0.262-0.325 0.638-0.385 0.377-0.06 0.701 0.015 0.726 0.168 0.024 0.153-0.261 0.325-0.638 0.385z" fill="#DCDCDC"/>
                    
                </g>
            
        </g>
        <g transform="translate(21.713 10.937)">
            
                <g transform="matrix(0 -1 1 0 -1.4168 15.59)">
                    
                        <g transform="translate(-298.07 -415.57)">
                            
                                
                                    <g transform="matrix(0 -2.1076 2.1168 0 -596.39 1056.4)">
                                        
                                            <rect x="297.44" y="422.52" width="5.111" height="6.695" fill="#303030"/>
                                            <polygon points="302.2 428.85 302.2 422.88 302.56 422.52 302.56 429.21" fill="#1F1F1F"/>
                                            <polygon points="297.8 428.85 297.8 422.88 297.44 422.52 297.44 429.21" fill="#1F1F1F"/>
                                            <polygon points="297.8 422.88 302.2 422.88 302.56 422.52 297.44 422.52"/>
                                            <polygon points="297.8 428.85 302.2 428.85 302.56 429.21 297.44 429.21" fill="#3D3D3D"/>
                                            <ellipse cx="298.52" cy="423.6" rx=".759" ry=".762" fill="#1F1F1F"/>
                                        
                                    </g>
                                    <g transform="matrix(0 -1 1 0 -119.99 729.23)">
                                        <g fill="#ccc">
                                            <rect x="296.66" y="429.97" width="3.104" height="1.139"/>
                                            <rect x="296.66" y="426.37" width="3.104" height="1.139"/>
                                            <rect x="296.66" y="422.77" width="3.104" height="1.139"/>
                                            <rect x="296.66" y="419.17" width="3.104" height="1.139"/>
                                        </g>
                                    </g>
                                    <g transform="matrix(0 -1 1 0 -120 715.34)">
                                        <g fill="#ccc">
                                            <rect x="296.65" y="429.98" width="3.132" height="1.129"/>
                                            <rect x="296.65" y="426.38" width="3.132" height="1.129"/>
                                            <rect x="296.65" y="422.78" width="3.132" height="1.129"/>
                                            <rect x="296.65" y="419.18" width="3.132" height="1.129"/>
                                        </g>
                                    </g>
                                
                            
                        </g>
                    
                </g>
            
        </g>
    </g>
    <line x1="13.562" x2="22.281" y1="29.344" y2="29.344" fill="none" stroke="#fff" stroke-linecap="round" stroke-width=".2835"/>
    <line x1="44.833" x2="48.865" y1="29.344" y2="29.344" fill="none" stroke="#fff" stroke-linecap="round" stroke-width=".2835"/>
    <line x1="51.667" x2="55.698" y1="29.344" y2="29.344" fill="none" stroke="#fff" stroke-linecap="round" stroke-width=".2835"/>
</svg>
