<?xml version="1.0" encoding="UTF-8"?>
<!-- Created with Inkscape (http://www.inkscape.org/) -->
<svg width="171" height="72" version="1.1" xmlns="http://www.w3.org/2000/svg">
 <defs>
  <linearGradient id="linearGradient7930" x1="47.7" x2="54" y1="283.05" y2="283.05" gradientTransform="matrix(.85545 0 0 1.1429 7.8059 -39.986)" gradientUnits="userSpaceOnUse" xlink:href="#linearGradient88052" xmlns:xlink="http://www.w3.org/1999/xlink"/>
  <linearGradient id="linearGradient88052">
   <stop stop-color="#a6a6a6" offset="0"/>
   <stop stop-color="#6c6c6c" offset=".34997"/>
   <stop stop-color="#c0c0c0" offset=".61458"/>
   <stop stop-color="#939393" offset="1"/>
  </linearGradient>
  <linearGradient id="linearGradient7932" x1="47.7" x2="54" y1="283.05" y2="283.05" gradientTransform="matrix(.85644 0 0 1.1429 7.7587 -57.986)" gradientUnits="userSpaceOnUse" xlink:href="#linearGradient88052" xmlns:xlink="http://www.w3.org/1999/xlink"/>
  <linearGradient id="linearGradient7934" x1="47.7" x2="54" y1="283.05" y2="283.05" gradientTransform="matrix(-.85559 0 0 1.1429 127.2 -39.98)" gradientUnits="userSpaceOnUse" xlink:href="#linearGradient88052" xmlns:xlink="http://www.w3.org/1999/xlink"/>
  <linearGradient id="linearGradient7936" x1="47.7" x2="54" y1="283.05" y2="283.05" gradientTransform="matrix(-.85559 0 0 1.1429 127.2 -57.98)" gradientUnits="userSpaceOnUse" xlink:href="#linearGradient88052" xmlns:xlink="http://www.w3.org/1999/xlink"/>
  <linearGradient id="linearGradient7938" x1="54" x2="81" y1="279" y2="279" gradientUnits="userSpaceOnUse" xmlns:xlink="http://www.w3.org/1999/xlink">
   <stop stop-color="#b0b0b0" offset="0"/>
   <stop stop-color="#ececec" offset=".033657"/>
   <stop stop-color="#dcdcdc" offset=".49434"/>
   <stop stop-color="#ececec" offset=".95"/>
   <stop stop-color="#a9a9a9" offset="1"/>
  </linearGradient>
  <linearGradient id="linearGradient7940" x1="67.95" x2="67.95" y1="272.25" y2="259.2" gradientUnits="userSpaceOnUse" xmlns:xlink="http://www.w3.org/1999/xlink">
   <stop stop-color="#e6e6e6" offset="0"/>
   <stop stop-color="#a9a9a9" offset=".17241"/>
   <stop stop-color="#a3a3a3" offset=".31035"/>
   <stop stop-color="#c0c0c0" offset=".44828"/>
   <stop stop-color="#a9a9a9" offset=".72414"/>
   <stop stop-color="#939393" offset="1"/>
  </linearGradient>
  <linearGradient id="linearGradient7942" x1="68.4" x2="71.1" y1="373.5" y2="373.5" gradientTransform="matrix(.66667 0 0 1 23.7 0)" gradientUnits="userSpaceOnUse" xlink:href="#linearGradient88052" xmlns:xlink="http://www.w3.org/1999/xlink"/>
  <linearGradient id="linearGradient7944" x1="68.4" x2="71.1" y1="369.9" y2="369.9" gradientTransform="matrix(.66667 0 0 1 23.7 0)" gradientUnits="userSpaceOnUse" xlink:href="#linearGradient88052" xmlns:xlink="http://www.w3.org/1999/xlink"/>
  <linearGradient id="linearGradient7946" x1="68.4" x2="71.1" y1="371.7" y2="371.7" gradientTransform="matrix(.66667 0 0 1 23.7 0)" gradientUnits="userSpaceOnUse" xlink:href="#linearGradient88052" xmlns:xlink="http://www.w3.org/1999/xlink"/>
  <linearGradient id="linearGradient7948" x1="68.4" x2="71.1" y1="375.3" y2="375.3" gradientTransform="matrix(.66667 0 0 1 23.7 0)" gradientUnits="userSpaceOnUse" xlink:href="#linearGradient88052" xmlns:xlink="http://www.w3.org/1999/xlink"/>
  <linearGradient id="linearGradient7950" x1="68.4" x2="71.1" y1="377.1" y2="377.1" gradientTransform="matrix(.66667 0 0 1 23.7 0)" gradientUnits="userSpaceOnUse" xlink:href="#linearGradient88052" xmlns:xlink="http://www.w3.org/1999/xlink"/>
  <linearGradient id="linearGradient6067" x1="68.4" x2="71.1" y1="377.1" y2="377.1" gradientTransform="matrix(2.5591 0 0 2.5591 -186.56 75.818)" gradientUnits="userSpaceOnUse" xlink:href="#linearGradient88052" xmlns:xlink="http://www.w3.org/1999/xlink"/>
  <linearGradient id="linearGradient6069" x1="68.4" x2="71.1" y1="377.1" y2="377.1" gradientTransform="matrix(2.5591 0 0 2.5591 -186.56 71.212)" gradientUnits="userSpaceOnUse" xlink:href="#linearGradient88052" xmlns:xlink="http://www.w3.org/1999/xlink"/>
  <linearGradient id="linearGradient6071" x1="68.4" x2="71.1" y1="377.1" y2="377.1" gradientTransform="matrix(2.5591 0 0 2.5591 -186.56 66.606)" gradientUnits="userSpaceOnUse" xlink:href="#linearGradient88052" xmlns:xlink="http://www.w3.org/1999/xlink"/>
  <linearGradient id="linearGradient6073" x1="68.4" x2="71.1" y1="377.1" y2="377.1" gradientTransform="matrix(2.5591 0 0 2.5591 -186.56 61.999)" gradientUnits="userSpaceOnUse" xlink:href="#linearGradient88052" xmlns:xlink="http://www.w3.org/1999/xlink"/>
  <linearGradient id="linearGradient6076" x1="68.4" x2="71.1" y1="377.1" y2="377.1" gradientTransform="matrix(2.5591 0 0 2.5591 -186.56 57.393)" gradientUnits="userSpaceOnUse" xlink:href="#linearGradient88052" xmlns:xlink="http://www.w3.org/1999/xlink"/>
  <linearGradient id="linearGradient6078" x1="68.4" x2="71.1" y1="377.1" y2="377.1" gradientTransform="matrix(2.5591 0 0 2.5591 -186.56 52.787)" gradientUnits="userSpaceOnUse" xlink:href="#linearGradient88052" xmlns:xlink="http://www.w3.org/1999/xlink"/>
  <linearGradient id="linearGradient6080" x1="68.4" x2="71.1" y1="377.1" y2="377.1" gradientTransform="matrix(2.5591 0 0 2.5591 -186.56 48.18)" gradientUnits="userSpaceOnUse" xlink:href="#linearGradient88052" xmlns:xlink="http://www.w3.org/1999/xlink"/>
  <linearGradient id="linearGradient6082" x1="68.4" x2="71.1" y1="377.1" y2="377.1" gradientTransform="matrix(2.5591 0 0 2.5591 -186.56 43.574)" gradientUnits="userSpaceOnUse" xlink:href="#linearGradient88052" xmlns:xlink="http://www.w3.org/1999/xlink"/>
  <linearGradient id="linearGradient6084" x1="68.4" x2="71.1" y1="377.1" y2="377.1" gradientTransform="matrix(2.5591 0 0 2.5591 -186.56 38.968)" gradientUnits="userSpaceOnUse" xlink:href="#linearGradient88052" xmlns:xlink="http://www.w3.org/1999/xlink"/>
  <linearGradient id="linearGradient6087" x1="68.4" x2="71.1" y1="377.1" y2="377.1" gradientTransform="matrix(2.5591 0 0 2.5591 -186.56 34.362)" gradientUnits="userSpaceOnUse" xlink:href="#linearGradient88052" xmlns:xlink="http://www.w3.org/1999/xlink"/>
  <linearGradient id="linearGradient6089" x1="68.4" x2="71.1" y1="377.1" y2="377.1" gradientTransform="matrix(2.5591 0 0 2.5591 -186.56 29.755)" gradientUnits="userSpaceOnUse" xlink:href="#linearGradient88052" xmlns:xlink="http://www.w3.org/1999/xlink"/>
  <linearGradient id="linearGradient6091" x1="68.4" x2="71.1" y1="377.1" y2="377.1" gradientTransform="matrix(2.5591 0 0 2.5591 -186.56 25.149)" gradientUnits="userSpaceOnUse" xlink:href="#linearGradient88052" xmlns:xlink="http://www.w3.org/1999/xlink"/>
  <linearGradient id="linearGradient6093" x1="68.4" x2="71.1" y1="377.1" y2="377.1" gradientTransform="matrix(2.5591 0 0 2.5591 -186.56 20.543)" gradientUnits="userSpaceOnUse" xlink:href="#linearGradient88052" xmlns:xlink="http://www.w3.org/1999/xlink"/>
  <linearGradient id="linearGradient6095" x1="68.4" x2="71.1" y1="377.1" y2="377.1" gradientTransform="matrix(2.5591 0 0 2.5591 -186.56 15.936)" gradientUnits="userSpaceOnUse" xlink:href="#linearGradient88052" xmlns:xlink="http://www.w3.org/1999/xlink"/>
  <linearGradient id="linearGradient7935" x1="68.4" x2="71.1" y1="377.1" y2="377.1" gradientTransform="matrix(1.1667 0 0 1.129 -475.8 -518.52)" gradientUnits="userSpaceOnUse" xlink:href="#linearGradient88052" xmlns:xlink="http://www.w3.org/1999/xlink"/>
  <linearGradient id="linearGradient7937" x1="68.4" x2="71.1" y1="377.1" y2="377.1" gradientTransform="matrix(1.1667 0 0 1.129 -475.8 -520.55)" gradientUnits="userSpaceOnUse" xlink:href="#linearGradient88052" xmlns:xlink="http://www.w3.org/1999/xlink"/>
  <linearGradient id="linearGradient7939" x1="68.4" x2="71.1" y1="377.1" y2="377.1" gradientTransform="matrix(1.1667 0 0 1.129 -475.8 -522.58)" gradientUnits="userSpaceOnUse" xlink:href="#linearGradient88052" xmlns:xlink="http://www.w3.org/1999/xlink"/>
  <linearGradient id="linearGradient7941" x1="68.4" x2="71.1" y1="377.1" y2="377.1" gradientTransform="matrix(1.1667 0 0 1.129 -475.8 -524.61)" gradientUnits="userSpaceOnUse" xlink:href="#linearGradient88052" xmlns:xlink="http://www.w3.org/1999/xlink"/>
  <linearGradient id="linearGradient7943" x1="68.4" x2="71.1" y1="377.1" y2="377.1" gradientTransform="matrix(1.1667 0 0 1.129 -475.8 -526.64)" gradientUnits="userSpaceOnUse" xlink:href="#linearGradient88052" xmlns:xlink="http://www.w3.org/1999/xlink"/>
  <linearGradient id="linearGradient7945" x1="68.4" x2="71.1" y1="377.1" y2="377.1" gradientTransform="matrix(1.1667 0 0 1.129 -475.8 -528.68)" gradientUnits="userSpaceOnUse" xlink:href="#linearGradient88052" xmlns:xlink="http://www.w3.org/1999/xlink"/>
  <linearGradient id="linearGradient7947" x1="68.4" x2="71.1" y1="377.1" y2="377.1" gradientTransform="matrix(1.1667 0 0 1.129 -475.8 -530.71)" gradientUnits="userSpaceOnUse" xlink:href="#linearGradient88052" xmlns:xlink="http://www.w3.org/1999/xlink"/>
  <linearGradient id="linearGradient7949" x1="68.4" x2="71.1" y1="377.1" y2="377.1" gradientTransform="matrix(1.1667 0 0 1.129 -475.8 -532.74)" gradientUnits="userSpaceOnUse" xlink:href="#linearGradient88052" xmlns:xlink="http://www.w3.org/1999/xlink"/>
  <linearGradient id="linearGradient7951" x1="68.4" x2="71.1" y1="377.1" y2="377.1" gradientTransform="matrix(1.1667 0 0 1.129 -475.8 -534.77)" gradientUnits="userSpaceOnUse" xlink:href="#linearGradient88052" xmlns:xlink="http://www.w3.org/1999/xlink"/>
  <linearGradient id="linearGradient7953" x1="68.4" x2="71.1" y1="377.1" y2="377.1" gradientTransform="matrix(1.1667 0 0 1.129 -475.8 -536.81)" gradientUnits="userSpaceOnUse" xlink:href="#linearGradient88052" xmlns:xlink="http://www.w3.org/1999/xlink"/>
  <linearGradient id="linearGradient7955" x1="68.4" x2="71.1" y1="377.1" y2="377.1" gradientTransform="matrix(1.1667 0 0 1.129 -475.8 -538.84)" gradientUnits="userSpaceOnUse" xlink:href="#linearGradient88052" xmlns:xlink="http://www.w3.org/1999/xlink"/>
  <linearGradient id="linearGradient7957" x1="68.4" x2="71.1" y1="377.1" y2="377.1" gradientTransform="matrix(1.1667 0 0 1.129 -475.8 -540.87)" gradientUnits="userSpaceOnUse" xlink:href="#linearGradient88052" xmlns:xlink="http://www.w3.org/1999/xlink"/>
  <linearGradient id="linearGradient7959" x1="68.4" x2="71.1" y1="377.1" y2="377.1" gradientTransform="matrix(1.1667 0 0 1.129 -475.8 -542.9)" gradientUnits="userSpaceOnUse" xlink:href="#linearGradient88052" xmlns:xlink="http://www.w3.org/1999/xlink"/>
  <linearGradient id="linearGradient7961" x1="68.4" x2="71.1" y1="377.1" y2="377.1" gradientTransform="matrix(1.1667 0 0 1.129 -475.8 -544.94)" gradientUnits="userSpaceOnUse" xlink:href="#linearGradient88052" xmlns:xlink="http://www.w3.org/1999/xlink"/>
  <linearGradient id="linearGradient7963" x1="68.4" x2="71.1" y1="377.1" y2="377.1" gradientTransform="matrix(1.1667 0 0 1.129 -475.8 -546.97)" gradientUnits="userSpaceOnUse" xlink:href="#linearGradient88052" xmlns:xlink="http://www.w3.org/1999/xlink"/>
  <linearGradient id="linearGradient7965" x1="68.4" x2="71.1" y1="377.1" y2="377.1" gradientTransform="matrix(1.1667 0 0 1.129 -475.8 -549)" gradientUnits="userSpaceOnUse" xlink:href="#linearGradient88052" xmlns:xlink="http://www.w3.org/1999/xlink"/>
  <linearGradient id="linearGradient8031" x1="68.4" x2="71.1" y1="377.1" y2="377.1" gradientTransform="matrix(1.1667 0 0 1.129 -475.8 -520.77)" gradientUnits="userSpaceOnUse" xlink:href="#linearGradient88052" xmlns:xlink="http://www.w3.org/1999/xlink"/>
  <linearGradient id="linearGradient8033" x1="68.4" x2="71.1" y1="377.1" y2="377.1" gradientTransform="matrix(1.1667 0 0 1.129 -475.8 -522.8)" gradientUnits="userSpaceOnUse" xlink:href="#linearGradient88052" xmlns:xlink="http://www.w3.org/1999/xlink"/>
  <linearGradient id="linearGradient8035" x1="68.4" x2="71.1" y1="377.1" y2="377.1" gradientTransform="matrix(1.1667 0 0 1.129 -475.8 -524.83)" gradientUnits="userSpaceOnUse" xlink:href="#linearGradient88052" xmlns:xlink="http://www.w3.org/1999/xlink"/>
  <linearGradient id="linearGradient8037" x1="68.4" x2="71.1" y1="377.1" y2="377.1" gradientTransform="matrix(1.1667 0 0 1.129 -475.8 -526.86)" gradientUnits="userSpaceOnUse" xlink:href="#linearGradient88052" xmlns:xlink="http://www.w3.org/1999/xlink"/>
  <linearGradient id="linearGradient8039" x1="68.4" x2="71.1" y1="377.1" y2="377.1" gradientTransform="matrix(1.1667 0 0 1.129 -475.8 -528.89)" gradientUnits="userSpaceOnUse" xlink:href="#linearGradient88052" xmlns:xlink="http://www.w3.org/1999/xlink"/>
  <linearGradient id="linearGradient8041" x1="68.4" x2="71.1" y1="377.1" y2="377.1" gradientTransform="matrix(1.1667 0 0 1.129 -475.8 -530.93)" gradientUnits="userSpaceOnUse" xlink:href="#linearGradient88052" xmlns:xlink="http://www.w3.org/1999/xlink"/>
  <linearGradient id="linearGradient8043" x1="68.4" x2="71.1" y1="377.1" y2="377.1" gradientTransform="matrix(1.1667 0 0 1.129 -475.8 -532.96)" gradientUnits="userSpaceOnUse" xlink:href="#linearGradient88052" xmlns:xlink="http://www.w3.org/1999/xlink"/>
  <linearGradient id="linearGradient8045" x1="68.4" x2="71.1" y1="377.1" y2="377.1" gradientTransform="matrix(1.1667 0 0 1.129 -475.8 -534.99)" gradientUnits="userSpaceOnUse" xlink:href="#linearGradient88052" xmlns:xlink="http://www.w3.org/1999/xlink"/>
  <linearGradient id="linearGradient8047" x1="68.4" x2="71.1" y1="377.1" y2="377.1" gradientTransform="matrix(1.1667 0 0 1.129 -475.8 -537.02)" gradientUnits="userSpaceOnUse" xlink:href="#linearGradient88052" xmlns:xlink="http://www.w3.org/1999/xlink"/>
  <linearGradient id="linearGradient8049" x1="68.4" x2="71.1" y1="377.1" y2="377.1" gradientTransform="matrix(1.1667 0 0 1.129 -475.8 -539.06)" gradientUnits="userSpaceOnUse" xlink:href="#linearGradient88052" xmlns:xlink="http://www.w3.org/1999/xlink"/>
  <linearGradient id="linearGradient8051" x1="68.4" x2="71.1" y1="377.1" y2="377.1" gradientTransform="matrix(1.1667 0 0 1.129 -475.8 -541.09)" gradientUnits="userSpaceOnUse" xlink:href="#linearGradient88052" xmlns:xlink="http://www.w3.org/1999/xlink"/>
  <linearGradient id="linearGradient8053" x1="68.4" x2="71.1" y1="377.1" y2="377.1" gradientTransform="matrix(1.1667 0 0 1.129 -475.8 -543.12)" gradientUnits="userSpaceOnUse" xlink:href="#linearGradient88052" xmlns:xlink="http://www.w3.org/1999/xlink"/>
  <linearGradient id="linearGradient8055" x1="68.4" x2="71.1" y1="377.1" y2="377.1" gradientTransform="matrix(1.1667 0 0 1.129 -475.8 -545.15)" gradientUnits="userSpaceOnUse" xlink:href="#linearGradient88052" xmlns:xlink="http://www.w3.org/1999/xlink"/>
  <linearGradient id="linearGradient8057" x1="68.4" x2="71.1" y1="377.1" y2="377.1" gradientTransform="matrix(1.1667 0 0 1.129 -475.8 -547.19)" gradientUnits="userSpaceOnUse" xlink:href="#linearGradient88052" xmlns:xlink="http://www.w3.org/1999/xlink"/>
  <linearGradient id="linearGradient8059" x1="68.4" x2="71.1" y1="377.1" y2="377.1" gradientTransform="matrix(1.1667 0 0 1.129 -475.8 -549.22)" gradientUnits="userSpaceOnUse" xlink:href="#linearGradient88052" xmlns:xlink="http://www.w3.org/1999/xlink"/>
  <linearGradient id="linearGradient8061" x1="68.4" x2="71.1" y1="377.1" y2="377.1" gradientTransform="matrix(1.1667 0 0 1.129 -475.8 -551.25)" gradientUnits="userSpaceOnUse" xlink:href="#linearGradient88052" xmlns:xlink="http://www.w3.org/1999/xlink"/>
  <linearGradient id="linearGradient8095" x1="62.1" x2="62.1" y1="430.65" y2="434.7" gradientUnits="userSpaceOnUse" xlink:href="#linearGradient88052" xmlns:xlink="http://www.w3.org/1999/xlink"/>
  <linearGradient id="linearGradient8099" x1="62.1" x2="62.1" y1="430.65" y2="434.7" gradientTransform="translate(5.85 -3.8425e-7)" gradientUnits="userSpaceOnUse" xlink:href="#linearGradient88052" xmlns:xlink="http://www.w3.org/1999/xlink"/>
  <linearGradient id="linearGradient8103" x1="62.1" x2="62.1" y1="430.65" y2="434.7" gradientTransform="translate(11.7 5.5285e-6)" gradientUnits="userSpaceOnUse" xlink:href="#linearGradient88052" xmlns:xlink="http://www.w3.org/1999/xlink"/>
  <linearGradient id="linearGradient8107" x1="62.1" x2="62.1" y1="430.65" y2="434.7" gradientTransform="translate(-135.9 -873)" gradientUnits="userSpaceOnUse" xlink:href="#linearGradient88052" xmlns:xlink="http://www.w3.org/1999/xlink"/>
  <linearGradient id="linearGradient8111" x1="62.1" x2="62.1" y1="430.65" y2="434.7" gradientTransform="translate(-130.05 -873)" gradientUnits="userSpaceOnUse" xlink:href="#linearGradient88052" xmlns:xlink="http://www.w3.org/1999/xlink"/>
  <linearGradient id="linearGradient8115" x1="62.1" x2="62.1" y1="430.65" y2="434.7" gradientTransform="translate(-124.2 -873)" gradientUnits="userSpaceOnUse" xlink:href="#linearGradient88052" xmlns:xlink="http://www.w3.org/1999/xlink"/>
 </defs>
 <metadata>
  <rdf:RDF xmlns:rdf="http://www.w3.org/1999/02/22-rdf-syntax-ns#">
   <cc:Work rdf:about="" xmlns:cc="http://creativecommons.org/ns#" xmlns:rdf="http://www.w3.org/1999/02/22-rdf-syntax-ns#">
    <dc:format xmlns:dc="http://purl.org/dc/elements/1.1/">image/svg+xml</dc:format>
    <dc:type rdf:resource="http://purl.org/dc/dcmitype/StillImage" xmlns:dc="http://purl.org/dc/elements/1.1/" xmlns:rdf="http://www.w3.org/1999/02/22-rdf-syntax-ns#"/>
    <dc:title xmlns:dc="http://purl.org/dc/elements/1.1/"/>
   </cc:Work>
  </rdf:RDF>
 </metadata>
 <g transform="translate(0,-378)">
  <g id="icon">
   <rect y="378" width="171" height="72" fill="#53b036" stroke="#000" stroke-linecap="round" stroke-linejoin="round" stroke-width=".09"/>
   <rect x="144" y="436.5" width="18" height="9" ry="1.8" fill="#1a1a1a"/>
   <rect x="144" y="427.5" width="18" height="9" ry="1.8" fill="#1a1a1a"/>
   <rect x="144" y="418.5" width="18" height="9" ry="1.8" fill="#1a1a1a"/>
   <rect x="144" y="409.5" width="18" height="9" ry="1.8" fill="#1a1a1a"/>
   <rect x="144" y="400.5" width="18" height="9" ry="1.8" fill="#1a1a1a"/>
   <rect x="144" y="391.5" width="18" height="9" ry="1.8" fill="#1a1a1a"/>
   <rect x="144" y="382.5" width="18" height="9" ry="1.8" fill="#1a1a1a"/>
   <g transform="matrix(0 -.5 .5 0 -442.3 429.66)" fill-rule="evenodd">
    <rect transform="scale(-1,1)" x="-11.516" y="1039.7" width="6.9094" height="2.3032" fill="url(#linearGradient6067)"/>
    <rect transform="scale(-1,1)" x="-11.516" y="1035.1" width="6.9094" height="2.3032" fill="url(#linearGradient6069)"/>
    <rect transform="scale(-1,1)" x="-11.516" y="1030.5" width="6.9094" height="2.3032" fill="url(#linearGradient6071)"/>
    <rect transform="scale(-1,1)" x="-11.516" y="1025.9" width="6.9094" height="2.3032" fill="url(#linearGradient6073)"/>
    <rect transform="scale(-1,1)" x="-11.516" y="1021.3" width="6.9094" height="2.3032" fill="url(#linearGradient6076)"/>
    <rect transform="scale(-1,1)" x="-11.516" y="1016.7" width="6.9094" height="2.3032" fill="url(#linearGradient6078)"/>
    <rect transform="scale(-1,1)" x="-11.516" y="1012.1" width="6.9094" height="2.3032" fill="url(#linearGradient6080)"/>
    <rect transform="scale(-1,1)" x="-11.516" y="1007.4" width="6.9094" height="2.3032" fill="url(#linearGradient6082)"/>
    <rect transform="scale(-1,1)" x="-11.516" y="1002.8" width="6.9094" height="2.3032" fill="url(#linearGradient6084)"/>
    <rect transform="scale(-1,1)" x="-11.516" y="998.24" width="6.9094" height="2.3032" fill="url(#linearGradient6087)"/>
    <rect transform="scale(-1,1)" x="-11.516" y="993.63" width="6.9094" height="2.3032" fill="url(#linearGradient6089)"/>
    <rect transform="scale(-1,1)" x="-11.516" y="989.02" width="6.9094" height="2.3032" fill="url(#linearGradient6091)"/>
    <rect transform="scale(-1,1)" x="-11.516" y="984.42" width="6.9094" height="2.3032" fill="url(#linearGradient6093)"/>
    <rect transform="scale(-1,1)" x="-11.516" y="979.81" width="6.9094" height="2.3032" fill="url(#linearGradient6095)"/>
   </g>
   <g transform="matrix(0 .5 -.5 0 568.6 399.72)" fill-rule="evenodd">
    <rect transform="scale(-1,1)" x="-11.516" y="1039.7" width="6.9094" height="2.3032" fill="url(#linearGradient6067)"/>
    <rect transform="scale(-1,1)" x="-11.516" y="1035.1" width="6.9094" height="2.3032" fill="url(#linearGradient6069)"/>
    <rect transform="scale(-1,1)" x="-11.516" y="1030.5" width="6.9094" height="2.3032" fill="url(#linearGradient6071)"/>
    <rect transform="scale(-1,1)" x="-11.516" y="1025.9" width="6.9094" height="2.3032" fill="url(#linearGradient6073)"/>
    <rect transform="scale(-1,1)" x="-11.516" y="1021.3" width="6.9094" height="2.3032" fill="url(#linearGradient6076)"/>
    <rect transform="scale(-1,1)" x="-11.516" y="1016.7" width="6.9094" height="2.3032" fill="url(#linearGradient6078)"/>
    <rect transform="scale(-1,1)" x="-11.516" y="1012.1" width="6.9094" height="2.3032" fill="url(#linearGradient6080)"/>
    <rect transform="scale(-1,1)" x="-11.516" y="1007.4" width="6.9094" height="2.3032" fill="url(#linearGradient6082)"/>
    <rect transform="scale(-1,1)" x="-11.516" y="1002.8" width="6.9094" height="2.3032" fill="url(#linearGradient6084)"/>
    <rect transform="scale(-1,1)" x="-11.516" y="998.24" width="6.9094" height="2.3032" fill="url(#linearGradient6087)"/>
    <rect transform="scale(-1,1)" x="-11.516" y="993.63" width="6.9094" height="2.3032" fill="url(#linearGradient6089)"/>
    <rect transform="scale(-1,1)" x="-11.516" y="989.02" width="6.9094" height="2.3032" fill="url(#linearGradient6091)"/>
    <rect transform="scale(-1,1)" x="-11.516" y="984.42" width="6.9094" height="2.3032" fill="url(#linearGradient6093)"/>
    <rect transform="scale(-1,1)" x="-11.516" y="979.81" width="6.9094" height="2.3032" fill="url(#linearGradient6095)"/>
   </g>
   <g transform="matrix(0 -1 .96432 0 -322.16 446.4)" fill="#333">
    <rect x="22.5" y="381.68" width="18.425" height="35.699" fill="#333" fill-rule="evenodd" stroke="#000" stroke-width=".088583"/>
   </g>
   <rect id="connector5pin" transform="rotate(-90)" x="-406.35" y="147.15" width="2.7" height="2.7" fill="#decd87" fill-rule="evenodd"/>
   <path d="m149.85 406.35-0.3375-0.3375h-2.025v-2.025l-0.3375-0.3375v2.7z" color="#000000" fill="#e9ddaf"/>
   <path d="m147.15 403.65 0.3375 0.3375h2.025v2.025l0.3375 0.3375v-2.7z" color="#000000" fill="#c8ab37"/>
   <rect id="connector13pin" transform="rotate(-90)" x="-442.35" y="147.15" width="2.7" height="2.7" fill="#decd87" fill-rule="evenodd"/>
   <path d="m149.85 442.35-0.3375-0.3375h-2.025v-2.025l-0.3375-0.3375v2.7z" color="#000000" fill="#fea"/>
   <path d="m147.15 439.65 0.3375 0.3375h2.025v2.025l0.3375 0.3375v-2.7z" color="#000000" fill="#c8ab37"/>
   <rect id="connector11pin" transform="rotate(-90)" x="-433.35" y="147.15" width="2.7" height="2.7" fill="#decd87" fill-rule="evenodd"/>
   <path d="m149.85 433.35-0.3375-0.3375h-2.025v-2.025l-0.3375-0.3375v2.7z" color="#000000" fill="#e9ddaf"/>
   <path d="m147.15 430.65 0.3375 0.3375h2.025v2.025l0.3375 0.3375v-2.7z" color="#000000" fill="#c8ab37"/>
   <rect id="connector9pin" transform="rotate(-90)" x="-424.35" y="147.15" width="2.7" height="2.7" fill="#decd87" fill-rule="evenodd"/>
   <path d="m149.85 424.35-0.3375-0.3375h-2.025v-2.025l-0.3375-0.3375v2.7z" color="#000000" fill="#e9ddaf"/>
   <path d="m147.15 421.65 0.3375 0.3375h2.025v2.025l0.3375 0.3375v-2.7z" color="#000000" fill="#c8ab37"/>
   <rect id="connector7pin" transform="rotate(-90)" x="-415.35" y="147.15" width="2.7" height="2.7" fill="#decd87" fill-rule="evenodd"/>
   <path d="m149.85 415.35-0.3375-0.3375h-2.025v-2.025l-0.3375-0.3375v2.7z" color="#000000" fill="#e9ddaf"/>
   <path d="m147.15 412.65 0.3375 0.3375h2.025v2.025l0.3375 0.3375v-2.7z" color="#000000" fill="#c8ab37"/>
   <rect id="connector3pin" transform="rotate(-90)" x="-397.35" y="147.15" width="2.7" height="2.7" fill="#decd87" fill-rule="evenodd"/>
   <path d="m149.85 397.35-0.3375-0.3375h-2.025v-2.025l-0.3375-0.3375v2.7z" color="#000000" fill="#fea"/>
   <path d="m147.15 394.65 0.3375 0.3375h2.025v2.025l0.3375 0.3375v-2.7z" color="#000000" fill="#c8ab37"/>
   <rect id="connector1pin" transform="rotate(-90)" x="-388.35" y="147.15" width="2.7" height="2.7" fill="#decd87" fill-rule="evenodd"/>
   <path d="m149.85 388.35-0.3375-0.3375h-2.025v-2.025l-0.3375-0.3375v2.7z" color="#000000" fill="#e9ddaf"/>
   <path d="m147.15 385.65 0.3375 0.3375h2.025v2.025l0.3375 0.3375v-2.7z" color="#000000" fill="#c8ab37"/>
   <rect id="connector6pin" transform="rotate(-90)" x="-406.35" y="156.15" width="2.7" height="2.7" fill="#decd87" fill-rule="evenodd"/>
   <path d="m158.85 406.35-0.3375-0.3375h-2.025v-2.025l-0.3375-0.3375v2.7z" color="#000000" fill="#e9ddaf"/>
   <path d="m156.15 403.65 0.3375 0.3375h2.025v2.025l0.3375 0.3375v-2.7z" color="#000000" fill="#c8ab37"/>
   <rect id="connector14pin" transform="rotate(-90)" x="-442.35" y="156.15" width="2.7" height="2.7" fill="#decd87" fill-rule="evenodd"/>
   <path d="m158.85 442.35-0.3375-0.3375h-2.025v-2.025l-0.3375-0.3375v2.7z" color="#000000" fill="#fea"/>
   <path d="m156.15 439.65 0.3375 0.3375h2.025v2.025l0.3375 0.3375v-2.7z" color="#000000" fill="#c8ab37"/>
   <rect id="connector12pin" transform="rotate(-90)" x="-433.35" y="156.15" width="2.7" height="2.7" fill="#decd87" fill-rule="evenodd"/>
   <path d="m158.85 433.35-0.3375-0.3375h-2.025v-2.025l-0.3375-0.3375v2.7z" color="#000000" fill="#e9ddaf"/>
   <path d="m156.15 430.65 0.3375 0.3375h2.025v2.025l0.3375 0.3375v-2.7z" color="#000000" fill="#c8ab37"/>
   <rect id="connector10pin" transform="rotate(-90)" x="-424.35" y="156.15" width="2.7" height="2.7" fill="#decd87" fill-rule="evenodd"/>
   <path d="m158.85 424.35-0.3375-0.3375h-2.025v-2.025l-0.3375-0.3375v2.7z" color="#000000" fill="#e9ddaf"/>
   <path d="m156.15 421.65 0.3375 0.3375h2.025v2.025l0.3375 0.3375v-2.7z" color="#000000" fill="#c8ab37"/>
   <rect id="connector8pin" transform="rotate(-90)" x="-415.35" y="156.15" width="2.7" height="2.7" fill="#decd87" fill-rule="evenodd"/>
   <path d="m158.85 415.35-0.3375-0.3375h-2.025v-2.025l-0.3375-0.3375v2.7z" color="#000000" fill="#e9ddaf"/>
   <path d="m156.15 412.65 0.3375 0.3375h2.025v2.025l0.3375 0.3375v-2.7z" color="#000000" fill="#c8ab37"/>
   <rect id="connector4pin" transform="rotate(-90)" x="-397.35" y="156.15" width="2.7" height="2.7" fill="#decd87" fill-rule="evenodd"/>
   <path d="m158.85 397.35-0.3375-0.3375h-2.025v-2.025l-0.3375-0.3375v2.7z" color="#000000" fill="#fea"/>
   <path d="m156.15 394.65 0.3375 0.3375h2.025v2.025l0.3375 0.3375v-2.7z" color="#000000" fill="#c8ab37"/>
   <rect id="connector2pin" transform="rotate(-90)" x="-388.35" y="156.15" width="2.7" height="2.7" fill="#decd87" fill-rule="evenodd"/>
   <path d="m158.85 388.35-0.3375-0.3375h-2.025v-2.025l-0.3375-0.3375v2.7z" color="#000000" fill="#e9ddaf"/>
   <path d="m156.15 385.65 0.3375 0.3375h2.025v2.025l0.3375 0.3375v-2.7z" color="#000000" fill="#c8ab37"/>
   <g transform="matrix(0 -1 1 0 -282.6 481.7)">
    <g transform="translate(-.0125 27)">
     <path d="m48.6 279.91v2.6875l0.77525 0.90625-0.77525 0.90625v2.6875h5.4v-7.1875h-5.4z" fill="url(#linearGradient7930)" fill-rule="evenodd"/>
     <path d="m48.6 261.91v2.6875l0.77614 0.90625-0.77614 0.90625v2.6875h5.4062v-7.1875h-5.4062z" fill="url(#linearGradient7932)" fill-rule="evenodd"/>
     <path d="m86.4 279.91v2.6875l-0.77538 0.90625 0.77538 0.90625v2.6875h-5.4009v-7.1875h5.4009z" fill="url(#linearGradient7934)" fill-rule="evenodd"/>
     <path d="m86.395 261.91v2.6875l-0.77538 0.90625 0.77538 0.90625v2.6875h-5.4009v-7.1875h5.4009z" fill="url(#linearGradient7936)" fill-rule="evenodd"/>
     <rect x="54.9" y="256.5" width="25.2" height="30.6" fill-rule="evenodd"/>
     <path d="m53.562 255.59v32.406h27.875v-32.406h-27.875zm3.125 3.5938h3.625c0.2493 0 0.4375 0.21945 0.4375 0.46875v9.9062c0 0.2493-0.1882 0.4375-0.4375 0.4375h-0.90625v-8.5625c0-0.2493-0.21945-0.4375-0.46875-0.4375h-0.875c-0.2493 0-0.46875 0.1882-0.46875 0.4375v8.5625h-0.90625c-0.2493 0-0.4375-0.1882-0.4375-0.4375v-9.9062c0-0.2493 0.1882-0.46875 0.4375-0.46875zm6.75 0h0.46875v10.812l0.4375 2.25h6.3125l0.4375-2.25v-10.812h0.46875c0.2493 0 0.4375 0.21945 0.4375 0.46875v14.406c0 0.2493-0.1882 0.4375-0.4375 0.4375h-8.125c-0.2493 0-0.4375-0.1882-0.4375-0.4375v-14.406c0-0.2493 0.1882-0.46875 0.4375-0.46875zm11.25 0h3.625c0.2493 0 0.4375 0.21945 0.4375 0.46875v9.9062c0 0.2493-0.1882 0.4375-0.4375 0.4375h-0.90625v-8.5625c0-0.2493-0.21945-0.4375-0.46875-0.4375h-0.875c-0.2493 0-0.46875 0.1882-0.46875 0.4375v8.5625h-0.90625c-0.2493 0-0.4375-0.1882-0.4375-0.4375v-9.9062c0-0.2493 0.1882-0.46875 0.4375-0.46875z" fill="url(#linearGradient7938)" fill-rule="evenodd"/>
     <path d="m63.9 259.2h7.2v10.8l-0.45 2.25h-6.3l-0.45-2.25z" color="#000000" fill="url(#linearGradient7940)"/>
     <rect x="56.25" y="255.6" width="22.5" height="32.4" fill="#fc0" opacity=".42534"/>
    </g>
    <g transform="matrix(0 -2 1.5556 0 -517.95 450.9)">
     <g transform="translate(-3.15 3.15)" fill-rule="evenodd">
      <rect x="69.3" y="373.05" width="1.8" height=".9" fill="url(#linearGradient7942)"/>
      <rect x="69.3" y="369.45" width="1.8" height=".9" fill="url(#linearGradient7944)"/>
      <rect x="69.3" y="371.25" width="1.8" height=".9" fill="url(#linearGradient7946)"/>
      <rect x="69.3" y="374.85" width="1.8" height=".9" fill="url(#linearGradient7948)"/>
      <rect x="69.3" y="376.65" width="1.8" height=".9" fill="url(#linearGradient7950)"/>
     </g>
    </g>
   </g>
   <g transform="translate(4.5 2.25)">
    <g fill-rule="evenodd">
     <rect transform="matrix(0,-1,-1,0,0,0)" x="-396" y="-93.266" width="3.15" height="1.0161" fill="url(#linearGradient7935)"/>
     <rect transform="matrix(0,-1,-1,0,0,0)" x="-396" y="-95.298" width="3.15" height="1.0161" fill="url(#linearGradient7937)"/>
     <rect transform="matrix(0,-1,-1,0,0,0)" x="-396" y="-97.331" width="3.15" height="1.0161" fill="url(#linearGradient7939)"/>
     <rect transform="matrix(0,-1,-1,0,0,0)" x="-396" y="-99.363" width="3.15" height="1.0161" fill="url(#linearGradient7941)"/>
     <rect transform="matrix(0,-1,-1,0,0,0)" x="-396" y="-101.4" width="3.15" height="1.0161" fill="url(#linearGradient7943)"/>
     <rect transform="matrix(0,-1,-1,0,0,0)" x="-396" y="-103.43" width="3.15" height="1.0161" fill="url(#linearGradient7945)"/>
     <rect transform="matrix(0,-1,-1,0,0,0)" x="-396" y="-105.46" width="3.15" height="1.0161" fill="url(#linearGradient7947)"/>
     <rect transform="matrix(0,-1,-1,0,0,0)" x="-396" y="-107.49" width="3.15" height="1.0161" fill="url(#linearGradient7949)"/>
     <rect transform="matrix(0,-1,-1,0,0,0)" x="-396" y="-109.52" width="3.15" height="1.0161" fill="url(#linearGradient7951)"/>
     <rect transform="matrix(0,-1,-1,0,0,0)" x="-396" y="-111.56" width="3.15" height="1.0161" fill="url(#linearGradient7953)"/>
     <rect transform="matrix(0,-1,-1,0,0,0)" x="-396" y="-113.59" width="3.15" height="1.0161" fill="url(#linearGradient7955)"/>
     <rect transform="matrix(0,-1,-1,0,0,0)" x="-396" y="-115.62" width="3.15" height="1.0161" fill="url(#linearGradient7957)"/>
     <rect transform="matrix(0,-1,-1,0,0,0)" x="-396" y="-117.65" width="3.15" height="1.0161" fill="url(#linearGradient7959)"/>
     <rect transform="matrix(0,-1,-1,0,0,0)" x="-396" y="-119.69" width="3.15" height="1.0161" fill="url(#linearGradient7961)"/>
     <rect transform="matrix(0,-1,-1,0,0,0)" x="-396" y="-121.72" width="3.15" height="1.0161" fill="url(#linearGradient7963)"/>
     <rect transform="matrix(0,-1,-1,0,0,0)" x="-396" y="-123.75" width="3.15" height="1.0161" fill="url(#linearGradient7965)"/>
    </g>
    <g transform="matrix(0,1,-1,0,522,306)" fill-rule="evenodd">
     <rect transform="matrix(0,-1,-1,0,0,0)" x="-396" y="-93.266" width="3.15" height="1.0161" fill="url(#linearGradient7935)"/>
     <rect transform="matrix(0,-1,-1,0,0,0)" x="-396" y="-95.298" width="3.15" height="1.0161" fill="url(#linearGradient7937)"/>
     <rect transform="matrix(0,-1,-1,0,0,0)" x="-396" y="-97.331" width="3.15" height="1.0161" fill="url(#linearGradient7939)"/>
     <rect transform="matrix(0,-1,-1,0,0,0)" x="-396" y="-99.363" width="3.15" height="1.0161" fill="url(#linearGradient7941)"/>
     <rect transform="matrix(0,-1,-1,0,0,0)" x="-396" y="-101.4" width="3.15" height="1.0161" fill="url(#linearGradient7943)"/>
     <rect transform="matrix(0,-1,-1,0,0,0)" x="-396" y="-103.43" width="3.15" height="1.0161" fill="url(#linearGradient7945)"/>
     <rect transform="matrix(0,-1,-1,0,0,0)" x="-396" y="-105.46" width="3.15" height="1.0161" fill="url(#linearGradient7947)"/>
     <rect transform="matrix(0,-1,-1,0,0,0)" x="-396" y="-107.49" width="3.15" height="1.0161" fill="url(#linearGradient7949)"/>
     <rect transform="matrix(0,-1,-1,0,0,0)" x="-396" y="-109.52" width="3.15" height="1.0161" fill="url(#linearGradient7951)"/>
     <rect transform="matrix(0,-1,-1,0,0,0)" x="-396" y="-111.56" width="3.15" height="1.0161" fill="url(#linearGradient7953)"/>
     <rect transform="matrix(0,-1,-1,0,0,0)" x="-396" y="-113.59" width="3.15" height="1.0161" fill="url(#linearGradient7955)"/>
     <rect transform="matrix(0,-1,-1,0,0,0)" x="-396" y="-115.62" width="3.15" height="1.0161" fill="url(#linearGradient7957)"/>
     <rect transform="matrix(0,-1,-1,0,0,0)" x="-396" y="-117.65" width="3.15" height="1.0161" fill="url(#linearGradient7959)"/>
     <rect transform="matrix(0,-1,-1,0,0,0)" x="-396" y="-119.69" width="3.15" height="1.0161" fill="url(#linearGradient7961)"/>
     <rect transform="matrix(0,-1,-1,0,0,0)" x="-396" y="-121.72" width="3.15" height="1.0161" fill="url(#linearGradient7963)"/>
     <rect transform="matrix(0,-1,-1,0,0,0)" x="-396" y="-123.75" width="3.15" height="1.0161" fill="url(#linearGradient7965)"/>
    </g>
    <g transform="matrix(-1,0,0,-1,216,828)" fill-rule="evenodd">
     <rect transform="matrix(0,-1,-1,0,0,0)" x="-396" y="-93.266" width="3.15" height="1.0161" fill="url(#linearGradient7935)"/>
     <rect transform="matrix(0,-1,-1,0,0,0)" x="-396" y="-95.298" width="3.15" height="1.0161" fill="url(#linearGradient7937)"/>
     <rect transform="matrix(0,-1,-1,0,0,0)" x="-396" y="-97.331" width="3.15" height="1.0161" fill="url(#linearGradient7939)"/>
     <rect transform="matrix(0,-1,-1,0,0,0)" x="-396" y="-99.363" width="3.15" height="1.0161" fill="url(#linearGradient7941)"/>
     <rect transform="matrix(0,-1,-1,0,0,0)" x="-396" y="-101.4" width="3.15" height="1.0161" fill="url(#linearGradient7943)"/>
     <rect transform="matrix(0,-1,-1,0,0,0)" x="-396" y="-103.43" width="3.15" height="1.0161" fill="url(#linearGradient7945)"/>
     <rect transform="matrix(0,-1,-1,0,0,0)" x="-396" y="-105.46" width="3.15" height="1.0161" fill="url(#linearGradient7947)"/>
     <rect transform="matrix(0,-1,-1,0,0,0)" x="-396" y="-107.49" width="3.15" height="1.0161" fill="url(#linearGradient7949)"/>
     <rect transform="matrix(0,-1,-1,0,0,0)" x="-396" y="-109.52" width="3.15" height="1.0161" fill="url(#linearGradient7951)"/>
     <rect transform="matrix(0,-1,-1,0,0,0)" x="-396" y="-111.56" width="3.15" height="1.0161" fill="url(#linearGradient7953)"/>
     <rect transform="matrix(0,-1,-1,0,0,0)" x="-396" y="-113.59" width="3.15" height="1.0161" fill="url(#linearGradient7955)"/>
     <rect transform="matrix(0,-1,-1,0,0,0)" x="-396" y="-115.62" width="3.15" height="1.0161" fill="url(#linearGradient7957)"/>
     <rect transform="matrix(0,-1,-1,0,0,0)" x="-396" y="-117.65" width="3.15" height="1.0161" fill="url(#linearGradient7959)"/>
     <rect transform="matrix(0,-1,-1,0,0,0)" x="-396" y="-119.69" width="3.15" height="1.0161" fill="url(#linearGradient7961)"/>
     <rect transform="matrix(0,-1,-1,0,0,0)" x="-396" y="-121.72" width="3.15" height="1.0161" fill="url(#linearGradient7963)"/>
     <rect transform="matrix(0,-1,-1,0,0,0)" x="-396" y="-123.75" width="3.15" height="1.0161" fill="url(#linearGradient7965)"/>
    </g>
    <g transform="matrix(0,-1,1,0,-306,524.25)" fill-rule="evenodd">
     <rect transform="matrix(0,-1,-1,0,0,0)" x="-396" y="-95.516" width="3.15" height="1.0161" fill="url(#linearGradient8031)"/>
     <rect transform="matrix(0,-1,-1,0,0,0)" x="-396" y="-97.548" width="3.15" height="1.0161" fill="url(#linearGradient8033)"/>
     <rect transform="matrix(0,-1,-1,0,0,0)" x="-396" y="-99.581" width="3.15" height="1.0161" fill="url(#linearGradient8035)"/>
     <rect transform="matrix(0,-1,-1,0,0,0)" x="-396" y="-101.61" width="3.15" height="1.0161" fill="url(#linearGradient8037)"/>
     <rect transform="matrix(0,-1,-1,0,0,0)" x="-396" y="-103.65" width="3.15" height="1.0161" fill="url(#linearGradient8039)"/>
     <rect transform="matrix(0,-1,-1,0,0,0)" x="-396" y="-105.68" width="3.15" height="1.0161" fill="url(#linearGradient8041)"/>
     <rect transform="matrix(0,-1,-1,0,0,0)" x="-396" y="-107.71" width="3.15" height="1.0161" fill="url(#linearGradient8043)"/>
     <rect transform="matrix(0,-1,-1,0,0,0)" x="-396" y="-109.74" width="3.15" height="1.0161" fill="url(#linearGradient8045)"/>
     <rect transform="matrix(0,-1,-1,0,0,0)" x="-396" y="-111.77" width="3.15" height="1.0161" fill="url(#linearGradient8047)"/>
     <rect transform="matrix(0,-1,-1,0,0,0)" x="-396" y="-113.81" width="3.15" height="1.0161" fill="url(#linearGradient8049)"/>
     <rect transform="matrix(0,-1,-1,0,0,0)" x="-396" y="-115.84" width="3.15" height="1.0161" fill="url(#linearGradient8051)"/>
     <rect transform="matrix(0,-1,-1,0,0,0)" x="-396" y="-117.87" width="3.15" height="1.0161" fill="url(#linearGradient8053)"/>
     <rect transform="matrix(0,-1,-1,0,0,0)" x="-396" y="-119.9" width="3.15" height="1.0161" fill="url(#linearGradient8055)"/>
     <rect transform="matrix(0,-1,-1,0,0,0)" x="-396" y="-121.94" width="3.15" height="1.0161" fill="url(#linearGradient8057)"/>
     <rect transform="matrix(0,-1,-1,0,0,0)" x="-396" y="-123.97" width="3.15" height="1.0161" fill="url(#linearGradient8059)"/>
     <rect transform="matrix(0,-1,-1,0,0,0)" x="-396" y="-126" width="3.15" height="1.0161" fill="url(#linearGradient8061)"/>
    </g>
    <rect x="90" y="396" width="36" height="36" fill="#333" stroke="#000" stroke-linecap="round" stroke-linejoin="round" stroke-width=".09"/>
   </g>
   <rect transform="rotate(-90)" x="-442.35" y="82.8" width="11.7" height="5.4" fill="#fff" fill-opacity=".23529"/>
   <rect x="93.15" y="384.3" width="11.7" height="5.4" fill="#fff" fill-opacity=".23529"/>
   <rect transform="rotate(-90)" x="-442.35" y="66.15" width="11.7" height="3.6" fill="#fff" fill-opacity=".23529"/>
   <rect transform="rotate(-90)" x="-442.35" y="51.3" width="11.7" height="5.4" fill="#fff" fill-opacity=".23529"/>
   <rect transform="rotate(-90)" x="-442.35" y="60.3" width="11.7" height="3.6" fill="#fff" fill-opacity=".23529"/>
   <rect x="60.3" y="434.7" width="3.6" height="3.6" fill="#f55"/>
   <rect x="66.15" y="434.7" width="3.6" height="3.6" fill="#f55"/>
   <rect x="72" y="434.7" width="3.6" height="3.6" fill="#f55"/>
   <rect x="60.3" y="430.65" width="3.6" height="4.05" fill="url(#linearGradient8095)"/>
   <rect x="66.15" y="430.65" width="3.6" height="4.05" fill="url(#linearGradient8099)"/>
   <rect x="72" y="430.65" width="3.6" height="4.05" fill="url(#linearGradient8103)"/>
   <rect transform="scale(-1)" x="-75.6" y="-442.35" width="3.6" height="4.05" fill="url(#linearGradient8107)"/>
   <rect transform="scale(-1)" x="-69.75" y="-442.35" width="3.6" height="4.05" fill="url(#linearGradient8111)"/>
   <rect transform="scale(-1)" x="-63.9" y="-442.35" width="3.6" height="4.05" fill="url(#linearGradient8115)"/>
   <g fill="#fff" font-family="OCR A Std" font-size="4px" font-weight="bold" letter-spacing="0px" word-spacing="0px" style="line-height:125%" xml:space="preserve">
    <text x="148.5" y="382.04999" font-weight="bold" text-align="center" text-anchor="middle">1</text>
   </g>
   <g transform="rotate(-90)" fill="#ffffff" font-family="OCR A Std" font-size="4px" letter-spacing="0px" text-anchor="middle" word-spacing="0px" style="line-height:125%" xml:space="preserve">
    <text x="-387" y="143.10001" text-align="center">TDO</text>
   
   
    <text x="-395.99677" y="143.10001" text-align="center">TDI</text>
   
   
    <text x="-404.99677" y="143.10001" text-align="center">TMS</text>
   
   
    <text x="-413.99677" y="143.10001" text-align="center">TCK</text>
   
   
    <text x="-422.99677" y="143.10001" text-align="center">GND</text>
   
   
    <text x="-431.99677" y="143.10001" text-align="center">RST</text>
   </g>
   <path d="m139.5 428.4v7.2" color="#000000" fill="none" stroke="#fff" stroke-linecap="round" stroke-width=".45"/>
   <g transform="rotate(-90)" fill="#ffffff" font-family="OCR A Std" font-size="4px" letter-spacing="0px" text-anchor="middle" word-spacing="0px" style="line-height:125%" xml:space="preserve">
    <text x="-391.5" y="166.05" text-align="center">TDO</text>
   
   
    <text x="-414" y="166.05" text-align="center">TDO</text>
   </g>
   <g fill="#fff" font-family="OCR A Std" font-size="4px" font-weight="bold" letter-spacing="0px" word-spacing="0px" style="line-height:125%" xml:space="preserve">
    <text x="157.5" y="449.10001" font-weight="bold" text-align="center" text-anchor="middle">14</text>
   </g>
   <g transform="rotate(-90)" fill="#ffffff" font-family="OCR A Std" font-size="4px" letter-spacing="0px" text-anchor="middle" word-spacing="0px" style="line-height:125%" xml:space="preserve">
    <text x="-432" y="166.05" text-align="center">RX</text>
   
   
    <text x="-441" y="166.05" text-align="center">TX</text>
   
   
    <text x="-405" y="139.05" text-align="center">SS</text>
   </g>
   <path d="m135.45 402.75v4.5" color="#000000" fill="none" stroke="#fff" stroke-linecap="round" stroke-width=".45"/>
   <g font-family="OCR A Std" font-size="4px" letter-spacing="0px" word-spacing="0px" style="line-height:125%" xml:space="preserve">
    <text x="6.75" y="448.20001" fill="#ffffff">Travis Goodspeed</text>
   </g>
   <g font-family="OCR A Std" font-size="4px" letter-spacing="0px" word-spacing="0px" style="line-height:125%" xml:space="preserve">
    <text x="6.3000002" y="393.29999" fill="#ffffff">http://goodfet.sf.net/</text>
   </g>
   <g font-family="OCR A Std" font-size="4px" letter-spacing="0px" word-spacing="0px" style="line-height:125%" xml:space="preserve">
    <text x="6.75" y="388.79999" fill="#ffffff" font-size="8px">GoodFET42</text>
   </g>
  </g>
 </g>
</svg>
