<?xml version="1.0" encoding="UTF-8"?>
<!-- Generator: Adobe Illustrator 20.0.0, SVG Export Plug-In . SVG Version: 6.00 Build 0)  -->
<svg width=".7in" height=".56022in" baseProfile="tiny" version="1.2" viewBox="0 0 50.4 40.336" xml:space="preserve" xmlns="http://www.w3.org/2000/svg" xmlns:xml="http://www.w3.org/XML/1998/namespace">
    <desc>
        <referenceFile>3pintap_breadboard.svg</referenceFile>
    </desc>
    <desc>Fritzing breadboard generated by brd2svg</desc>
    <g id="breadboard">
        <g id="icon">
            <path d="m16.56 40.32c-8.748 0.398-16.162-6.372-16.56-15.12 0-13.917 11.281-25.199 25.198-25.2h2e-3c13.917 0 25.2 11.282 25.2 25.199v1e-3c-0.398 8.748-7.812 15.518-16.56 15.12h-17.28m28.256-15.12c-4e-3 1.096 0.882 1.987 1.978 1.991s1.987-0.882 1.991-1.978v-0.013c4e-3 -1.096-0.882-1.987-1.978-1.991s-1.987 0.882-1.991 1.978v0.013zm-21.6-21.6c-3e-3 1.096 0.882 1.987 1.978 1.991 1.096 3e-3 1.987-0.882 1.991-1.978v-0.013c3e-3 -1.096-0.882-1.987-1.978-1.991-1.096-3e-3 -1.987 0.882-1.991 1.978v0.013zm-21.6 21.6c-3e-3 1.096 0.882 1.987 1.978 1.991 1.096 3e-3 1.987-0.882 1.991-1.978v-0.013c3e-3 -1.096-0.882-1.987-1.978-1.991-1.096-3e-3 -1.987 0.882-1.991 1.978v0.013z" fill="#0A0A0A"/>
            <g>
                <title>layer 21</title>
                <g>
                    <title>element:CN2</title>
                    <g>
                        <title>package:JSTPH3</title>
                        <line x1="34.413" x2="15.987" y1="36.539" y2="36.539" fill="none" stroke="#fff" stroke-linecap="round" stroke-width=".36"/>
                        <line x1="11.027" x2="11.027" y1="26.617" y2="15.279" fill="none" stroke="#fff" stroke-linecap="round" stroke-width=".36"/>
                        <line x1="11.027" x2="13.436" y1="15.279" y2="15.279" fill="none" stroke="#fff" stroke-linecap="round" stroke-width=".36"/>
                        <line x1="13.436" x2="13.436" y1="15.279" y2="22.365" fill="none" stroke="#fff" stroke-linecap="round" stroke-width=".36"/>
                        <line x1="13.436" x2="23.074" y1="22.365" y2="22.365" fill="none" stroke="#fff" stroke-linecap="round" stroke-width=".36"/>
                        <line x1="32.995" x2="36.964" y1="22.365" y2="22.365" fill="none" stroke="#fff" stroke-linecap="round" stroke-width=".36"/>
                        <line x1="36.964" x2="36.964" y1="22.365" y2="15.279" fill="none" stroke="#fff" stroke-linecap="round" stroke-width=".36"/>
                        <line x1="36.964" x2="39.373" y1="15.279" y2="15.279" fill="none" stroke="#fff" stroke-linecap="round" stroke-width=".36"/>
                        <line x1="39.373" x2="39.373" y1="15.279" y2="26.617" fill="none" stroke="#fff" stroke-linecap="round" stroke-width=".36"/>
                    </g>
                </g>
                <g>
                    <title>element:U$1</title>
                    <g>
                        <title>package:ADAFRUIT200MIL</title>
                    </g>
                </g>
                <g>
                    <title>element:U$2</title>
                    <g>
                        <title>package:FIDUCIAL_1MM</title>
                    </g>
                </g>
            </g>
            <g transform="matrix(-1 0 0 -1 61.739 35.093)">
                
                    
                        
                            <rect id="connector0pin" x="29.452" y="11.027" width="2.835" height="13.039" fill="#9A916C"/>
                        
                    
                
            </g>
            <g transform="matrix(-1 0 0 -1 50.4 35.093)">
                
                    
                        
                            <rect id="connector1pin" x="23.783" y="11.027" width="2.835" height="13.039" fill="#9A916C"/>
                        
                    
                
            </g>
            <g transform="matrix(-1 0 0 -1 39.061 35.093)">
                
                    
                        
                            <rect id="connector2pin" x="18.113" y="11.027" width="2.835" height="13.039" fill="#9A916C"/>
                        
                    
                
            </g>
            <g transform="matrix(0 1 -1 0 69.959 -5.3858)">
                
                    
                        
                            <g transform="matrix(2.5352e-6 1 -1 2.5352e-6 69.959 -5.3859)">
                                
                                    
                                        <rect id="connector3pin" x="35.405" y="27.468" width="4.535" height="9.638" fill="#9A916C"/>
                                    
                                
                            </g>
                        
                    
                
            </g>
            <g transform="matrix(0 1 -1 0 45.014 19.559)">
                
                    
                        
                            <g transform="matrix(2.5352e-6 1 -1 2.5352e-6 45.014 19.559)">
                                
                                    
                                        <rect id="connector4pin" x="10.46" y="27.468" width="4.535" height="9.638" fill="#9A916C"/>
                                    
                                
                            </g>
                        
                    
                
            </g>
            <path id="connector5pin" d="m25.2 30.263c0.783 0 1.417 0.635 1.417 1.417 0 0.783-0.635 1.417-1.417 1.417-0.783 0-1.417-0.635-1.417-1.417 0-0.783 0.634-1.417 1.417-1.417z" fill="#9A916C"/>
        </g>
    </g>
    
        <polygon points="31.459 18.971 30.296 18.971 30.296 22.381 31.459 22.381" fill="#B7B7B7"/>
        <polygon points="20.12 18.971 18.957 18.971 18.957 22.381 20.12 22.381" fill="#B7B7B7"/>
        <polygon points="25.789 18.971 24.629 18.971 24.629 22.381 25.789 22.381" fill="#B7B7B7"/>
        <rect x="11.583" y="19.732" width="27.252" height="16.896" fill="#E8E8E8"/>
        
            <rect x="36.497" y="14.63" width="2.338" height="5.104" fill="#E8E8E8"/>
        
        
            <rect x="11.581" y="14.63" width="2.338" height="5.104" fill="#E8E8E8"/>
        
        <rect x="11.583" y="19.515" width="2.336" height=".219" fill="#C1C1C1"/>
        <rect x="36.497" y="19.515" width="2.338" height=".219" fill="#C1C1C1"/>
        <rect x="24.543" y="23.029" width="1.333" height="13.599" fill="#B7B7B7"/>
    
    <path d="m41.9 6.724v31.499c4.694-2.506 7.958-7.348 8.217-13.036 0-7.313-3.174-13.901-8.217-18.463zm4.894 20.467c-1.096-4e-3 -1.981-0.895-1.978-1.991v-0.013c4e-3 -1.096 0.895-1.981 1.991-1.978 1.096 4e-3 1.981 0.895 1.978 1.991v0.013c-4e-3 1.096-0.896 1.981-1.991 1.978z" fill="#9A916C"/>
    <path d="m25.2 0.284c-4.44 0-8.609 1.173-12.223 3.216 3.614 2.043 7.783 3.216 12.223 3.216s8.609-1.173 12.223-3.216c-3.614-2.043-7.783-3.216-12.223-3.216zm-6e-3 5.307c-1.096-3e-3 -1.981-0.895-1.978-1.991v-0.013c3e-3 -1.096 0.895-1.981 1.99-1.978 1.096 3e-3 1.981 0.895 1.978 1.99v0.013c-3e-3 1.096-0.894 1.982-1.99 1.979z" fill="#9A916C"/>
    <path d="m0.284 25.2c0.258 5.68 3.522 10.52 8.216 13.025v-31.5c-5.043 4.563-8.217 11.155-8.216 18.475zm5.3 0.013c-3e-3 1.096-0.895 1.981-1.991 1.978s-1.981-0.895-1.978-1.99v-0.013c3e-3 -1.096 0.895-1.981 1.991-1.978s1.981 0.895 1.978 1.991v0.012z" fill="#9A916C"/>
</svg>
