<?xml version="1.0" encoding="UTF-8"?>
<!-- Created with Inkscape (http://www.inkscape.org/) -->
<svg width=".36998in" height=".62317in" version="1.2" viewBox="0 0 36.998 62.317" xmlns="http://www.w3.org/2000/svg">
 <metadata>
  <rdf:RDF xmlns:rdf="http://www.w3.org/1999/02/22-rdf-syntax-ns#">
   <cc:Work rdf:about="" xmlns:cc="http://creativecommons.org/ns#" xmlns:rdf="http://www.w3.org/1999/02/22-rdf-syntax-ns#">
    <dc:format xmlns:dc="http://purl.org/dc/elements/1.1/">image/svg+xml</dc:format>
    <dc:type rdf:resource="http://purl.org/dc/dcmitype/StillImage" xmlns:dc="http://purl.org/dc/elements/1.1/" xmlns:rdf="http://www.w3.org/1999/02/22-rdf-syntax-ns#"/>
    <dc:title xmlns:dc="http://purl.org/dc/elements/1.1/"/>
   </cc:Work>
  </rdf:RDF>
 </metadata>
 <g id="icon">
  <rect id="connector1pin" x="7.501" y="60" width="3" height="1" fill="none"/>
  <rect id="connector2pin" x="17.499" y="60" width="3" height="1" fill="none"/>
  <rect id="connector3pin" x="27.497" y="60" width="3" height="1" fill="none"/>
  <line id="connector0leg" x1="9.001" x2="9.001" y1="62.317" y2="72.317" fill="none" stroke="#8c8c8c" stroke-linecap="round" stroke-width="3"/>
  <line id="connector1leg" x1="18.999" x2="18.999" y1="62.317" y2="72.317" fill="none" stroke="#8c8c8c" stroke-linecap="round" stroke-width="3"/>
  <line id="connector2leg" x1="28.997" x2="28.997" y1="62.317" y2="72.317" fill="none" stroke="#8c8c8c" stroke-linecap="round" stroke-width="3"/>
  <path d="m33.997 0.5h-14.998v2.502c4.354 0 7.875 2.471 7.875 5.517-2e-3 3.044-3.523 5.513-7.875 5.513v8.087h14.998v-21.619z" fill="#bfbcbc"/>
  <path d="m11.126 8.514c0-3.047 3.523-5.514 7.873-5.514v-2.501h-14.998v21.611h14.998v-8.086c-4.35 2e-3 -7.873-2.465-7.873-5.51z" fill="#808080"/>
  <rect x="7.501" y="46.53" width="3" height="15.787" fill="#8c8c8c"/>
  <rect x="17.499" y="46.53" width="3" height="15.787" fill="#8c8c8c"/>
  <rect x="27.497" y="46.53" width="3" height="15.787" fill="#8c8c8c"/>
  <polygon points="0.501 4.525 0.501 17.865 4.001 17.865 4.001 0.5" fill="#ccc"/>
  <polygon points="37.497 4.525 33.997 0.5 33.997 17.865 37.497 17.865" fill="#999"/>
  <polygon points="7.741 57.675 5.501 56.675 5.501 44.495 12.501 44.495 12.501 56.675 10.261 57.675" fill="#8c8c8c"/>
  <polygon points="17.74 57.675 15.499 56.675 15.499 44.495 22.499 44.495 22.499 56.675 20.259 57.675" fill="#8c8c8c"/>
  <polygon points="27.739 57.675 25.499 56.675 25.499 44.495 32.497 44.495 32.497 56.675 30.257 57.675" fill="#8c8c8c"/>
  <rect x="25.499" y="31.522" width="12" height="22.222" fill="#141414"/>
  <rect x=".501" y="31.522" width="12" height="22.222" fill="#333"/>
  <path d="m0.501 39.659v7.176c2.83 0 5.125-1.604 5.125-3.588 0-1.981-2.295-3.588-5.125-3.588z" fill="#262626"/>
  <path d="m37.497 39.659c-2.83 0-5.125 1.604-5.125 3.588 0 1.979 2.295 3.588 5.125 3.588v-7.176z"/>
  <path d="m0.501 31.522v9.888c2.83 0 5.125 1.606 5.125 3.588s-2.295 3.588-5.125 3.588v5.158h36.998v-22.222h-36.998zm36.996 17.063c-2.83 0-5.125-1.604-5.125-3.588 0-1.979 2.295-3.588 5.125-3.588v7.176z" fill="#1a1a1a"/>
  <rect x=".501" y="26.872" width="36.998" height="4.649"/>
  <rect x=".501" y="21.124" width="36.998" height="5.748" fill="#333"/>
  <rect x="4.001" y=".5" width="29.998" height="4.25" fill="#b2b2b2"/>
  <path d="m33.997 3.759h-29.996l-3.5 4.024v13.34h36.996v-13.34l-3.5-4.024zm-14.998 13.527c-4.35 0-7.873-2.468-7.873-5.513 0-3.044 3.523-5.511 7.873-5.511 4.354 0 7.875 2.468 7.875 5.511-2e-3 3.044-3.523 5.513-7.875 5.513z" fill="#8c8c8c"/>
  <g fill="#fff" fill-opacity=".5098" font-family="OCRA" font-size="5.5556px" letter-spacing="0px" text-align="center" text-anchor="middle" word-spacing="0px" style="line-height:125%" xml:space="preserve">
    <text x="18.687109" y="38.516655" fill="#ffffff" fill-opacity=".5098" font-size="6.6667px" text-align="center" text-anchor="middle">LD33</text>
   </g>
 </g>
</svg>
