<?xml version="1.0" encoding="UTF-8"?>
<!-- Created with Inkscape (http://www.inkscape.org/) -->
<svg width="90" height="81" version="1.1" xmlns="http://www.w3.org/2000/svg" xmlns:cc="http://creativecommons.org/ns#" xmlns:dc="http://purl.org/dc/elements/1.1/" xmlns:rdf="http://www.w3.org/1999/02/22-rdf-syntax-ns#" xmlns:xlink="http://www.w3.org/1999/xlink">
 <defs>
  <linearGradient id="linearGradient12318">
   <stop stop-color="#ffd84b" offset="0"/>
   <stop stop-color="#ffea9d" offset=".5"/>
   <stop stop-color="#ffd84b" offset="1"/>
  </linearGradient>
  <linearGradient id="linearGradient12153">
   <stop stop-color="#b3b3b3" offset="0"/>
   <stop stop-color="#939393" offset=".1"/>
   <stop stop-color="#d3d3d3" offset=".25"/>
   <stop stop-color="#565656" offset=".5"/>
   <stop stop-color="#d9d9d9" offset="1"/>
  </linearGradient>
  <linearGradient id="linearGradient3902">
   <stop stop-color="#333" offset="0"/>
   <stop stop-color="#696969" offset=".02"/>
   <stop stop-color="#464646" offset=".04"/>
   <stop stop-color="#2c2c2c" offset="1"/>
  </linearGradient>
  <linearGradient id="linearGradient3891">
   <stop stop-color="#333" offset="0"/>
   <stop stop-color="#464646" offset=".5"/>
   <stop stop-color="#2c2c2c" offset="1"/>
  </linearGradient>
  <radialGradient id="radialGradient12051" cx="28.125" cy="52.875" r="28.125" gradientUnits="userSpaceOnUse">
   <stop stop-color="#b3b3b3" stop-opacity="0" offset="0"/>
   <stop stop-color="#939393" stop-opacity="0" offset=".936"/>
   <stop stop-color="#d3d3d3" stop-opacity=".23214" offset=".968"/>
   <stop stop-color="#909090" stop-opacity="0" offset="1"/>
  </radialGradient>
  <linearGradient id="linearGradient12053" x1="2.25" x2="49.5" y1="78.75" y2="31.5" gradientUnits="userSpaceOnUse">
   <stop stop-color="#b3b3b3" stop-opacity="0" offset="0"/>
   <stop stop-color="#c3c3c3" stop-opacity="0" offset=".28571"/>
   <stop stop-color="#d3d3d3" stop-opacity=".15179" offset=".57143"/>
   <stop stop-color="#b1b1b1" stop-opacity="0" offset=".78571"/>
   <stop stop-color="#909090" stop-opacity="0" offset="1"/>
  </linearGradient>
  <linearGradient id="linearGradient12055" x1="18" x2="45" y1="33.75" y2="63" gradientUnits="userSpaceOnUse">
   <stop stop-color="#262626" stop-opacity=".47321" offset="0"/>
   <stop stop-color="#636363" stop-opacity=".25" offset=".25"/>
   <stop stop-color="#a3a3a3" stop-opacity=".17857" offset=".5"/>
   <stop stop-color="#464646" stop-opacity=".19643" offset=".75"/>
   <stop stop-color="#2c2c2c" stop-opacity=".45536" offset="1"/>
  </linearGradient>
  <linearGradient id="linearGradient12131" x1="10.35" x2="29.25" y1="1022.9" y2="1034.6" gradientUnits="userSpaceOnUse" xlink:href="#linearGradient3891"/>
  <linearGradient id="linearGradient12141" x1="13.438" x2="16.487" y1="59.287" y2="59.287" gradientUnits="userSpaceOnUse" xlink:href="#linearGradient3902"/>
  <linearGradient id="linearGradient12151" x1="13.5" x2="13.5" y1="63" y2="69.75" gradientTransform="matrix(.66667 0 0 .5 4.5 1002.9)" gradientUnits="userSpaceOnUse" xlink:href="#linearGradient12153"/>
  <linearGradient id="linearGradient12167" x1="13.5" x2="13.5" y1="63" y2="69.75" gradientTransform="matrix(.66667 0 0 .5 8.775 1002.9)" gradientUnits="userSpaceOnUse" xlink:href="#linearGradient12153"/>
  <linearGradient id="linearGradient12171" x1="13.5" x2="13.5" y1="63" y2="69.75" gradientTransform="matrix(.66667 0 0 .5 13.5 1002.9)" gradientUnits="userSpaceOnUse" xlink:href="#linearGradient12153"/>
  <linearGradient id="linearGradient12175" x1="13.5" x2="13.5" y1="63" y2="69.75" gradientTransform="matrix(.66667 0 0 .5 18 1002.9)" gradientUnits="userSpaceOnUse" xlink:href="#linearGradient12153"/>
  <linearGradient id="linearGradient12294" x1="4.1823" x2="87.798" y1="12.569" y2="54.996" gradientUnits="userSpaceOnUse">
   <stop stop-color="#3da533" offset="0"/>
   <stop stop-color="#229519" offset=".38989"/>
   <stop stop-color="#309d28" offset=".76686"/>
   <stop stop-color="#2c8e26" offset="1"/>
  </linearGradient>
  <linearGradient id="linearGradient12324" x1="75.78" x2="81.72" y1="9" y2="9" gradientUnits="userSpaceOnUse" xlink:href="#linearGradient12318"/>
 </defs>
 <metadata>
  <rdf:RDF>
   <cc:Work rdf:about="">
    <dc:format>image/svg+xml</dc:format>
    <dc:type rdf:resource="http://purl.org/dc/dcmitype/StillImage"/>
    <dc:title/>
   </cc:Work>
  </rdf:RDF>
 </metadata>
 <g transform="translate(0 -971.36)">
  <path id="icon" transform="translate(0 971.36)" d="m7.1875 4.5v72h78.312v-72h-78.312zm17.562 2.9375c0.86985 0 1.5625 0.69265 1.5625 1.5625s-0.69265 1.5625-1.5625 1.5625-1.5625-0.69265-1.5625-1.5625 0.69265-1.5625 1.5625-1.5625zm9 0c0.86985 0 1.5625 0.69265 1.5625 1.5625s-0.69265 1.5625-1.5625 1.5625-1.5625-0.69265-1.5625-1.5625 0.69265-1.5625 1.5625-1.5625zm9 0c0.86985 0 1.5625 0.69265 1.5625 1.5625s-0.69265 1.5625-1.5625 1.5625-1.5625-0.69265-1.5625-1.5625 0.69265-1.5625 1.5625-1.5625zm9 0c0.86985 0 1.5625 0.69265 1.5625 1.5625s-0.69265 1.5625-1.5625 1.5625-1.5625-0.69265-1.5625-1.5625 0.69265-1.5625 1.5625-1.5625zm9 0c0.86985 0 1.5625 0.69265 1.5625 1.5625s-0.69265 1.5625-1.5625 1.5625-1.5625-0.69265-1.5625-1.5625 0.69265-1.5625 1.5625-1.5625zm9 0c0.86985 0 1.5625 0.69265 1.5625 1.5625s-0.69265 1.5625-1.5625 1.5625-1.5625-0.69265-1.5625-1.5625 0.69265-1.5625 1.5625-1.5625zm9 0c0.86985 0 1.5625 0.69265 1.5625 1.5625s-0.69265 1.5625-1.5625 1.5625-1.5625-0.69265-1.5625-1.5625 0.69265-1.5625 1.5625-1.5625zm-63 9.4375c3.1066 0 5.625 2.5184 5.625 5.625s-2.5184 5.625-5.625 5.625-5.625-2.5184-5.625-5.625 2.5184-5.625 5.625-5.625zm61.875 46.125c3.1066 0 5.625 2.5184 5.625 5.625s-2.5184 5.625-5.625 5.625-5.625-2.5184-5.625-5.625 2.5184-5.625 5.625-5.625z" fill="url(#linearGradient12294)" stroke="#000" stroke-width=".18"/>
  <path transform="translate(-9 971.36)" d="m81 9a2.25 2.25 0 1 1-4.5 0 2.25 2.25 0 1 1 4.5 0z" fill="none" stroke="url(#linearGradient12324)" stroke-width="1.44"/>
  <path transform="translate(-18 971.36)" d="m81 9a2.25 2.25 0 1 1-4.5 0 2.25 2.25 0 1 1 4.5 0z" fill="none" stroke="url(#linearGradient12324)" stroke-width="1.44"/>
  <path transform="translate(-27 971.36)" d="m81 9a2.25 2.25 0 1 1-4.5 0 2.25 2.25 0 1 1 4.5 0z" fill="none" stroke="url(#linearGradient12324)" stroke-width="1.44"/>
  <path transform="translate(-36 971.36)" d="m81 9a2.25 2.25 0 1 1-4.5 0 2.25 2.25 0 1 1 4.5 0z" fill="none" stroke="url(#linearGradient12324)" stroke-width="1.44"/>
  <path transform="translate(-45 971.36)" d="m81 9a2.25 2.25 0 1 1-4.5 0 2.25 2.25 0 1 1 4.5 0z" fill="none" stroke="url(#linearGradient12324)" stroke-width="1.44"/>
  <path transform="translate(-54 971.36)" d="m81 9a2.25 2.25 0 1 1-4.5 0 2.25 2.25 0 1 1 4.5 0z" fill="none" stroke="url(#linearGradient12324)" stroke-width="1.44"/>
  <path transform="translate(0 971.36)" d="m76.5 6.75h4.5v4.5h-4.5zm4.5 2.25c0 1.2426-1.0074 2.25-2.25 2.25s-2.25-1.0074-2.25-2.25c0-1.2426 1.0074-2.25 2.25-2.25s2.25 1.0074 2.25 2.25z" fill="none" stroke="url(#linearGradient12324)" stroke-width="1.44"/>
  <path transform="translate(0 971.36)" d="m83.25 68.625a5.625 5.625 0 1 1-11.25 0 5.625 5.625 0 1 1 11.25 0z" fill="none" stroke="#f8d037" stroke-width=".45"/>
  <path transform="translate(-61.875 925.23)" d="m83.25 68.625a5.625 5.625 0 1 1-11.25 0 5.625 5.625 0 1 1 11.25 0z" fill="none" stroke="#f8d037" stroke-width=".45"/>
  <rect x="11.25" y="1023.1" width="18" height="11.25" fill="url(#linearGradient12131)"/>
  <path transform="translate(0 971.36)" d="m11.25 63 0.45-1.125v-9h17.1l0.45-1.125h-18z" color="#000000" fill="#fff" fill-opacity=".29187" stroke="#000" stroke-linecap="round" stroke-opacity=".39234" stroke-width=".09"/>
  <path d="m29.25 1023.1-0.45 1.125v9h-17.1l-0.45 1.125h18z" color="#000000" fill-opacity=".29187" stroke="#000" stroke-opacity=".39216" stroke-width=".09"/>
  <path transform="translate(0 971.36)" d="m11.7 52.875-0.45-1.125" color="#000000" fill="none" stroke="#000" stroke-linecap="round" stroke-opacity=".39216" stroke-width=".09"/>
  <path transform="translate(-.675 971.25)" d="m16.425 59.287a1.4625 1.4625 0 1 1-2.925 0 1.4625 1.4625 0 1 1 2.925 0z" fill="url(#linearGradient12141)" stroke="#000" stroke-linecap="round" stroke-opacity=".39216" stroke-width=".09"/>
  <g stroke="#000" stroke-linecap="round" stroke-opacity=".39216" stroke-width=".051962">
   <rect x="12.6" y="1034.4" width="1.8" height="3.375" fill="url(#linearGradient12151)"/>
   <rect x="16.875" y="1034.4" width="1.8" height="3.375" fill="url(#linearGradient12167)"/>
   <rect x="21.6" y="1034.4" width="1.8" height="3.375" fill="url(#linearGradient12171)"/>
   <rect x="26.1" y="1034.4" width="1.8" height="3.375" fill="url(#linearGradient12175)"/>
  </g>
  <g transform="matrix(-1 0 0 -1 40.5 2057.5)" stroke="#000" stroke-linecap="round" stroke-opacity=".39216" stroke-width=".051962">
   <rect x="12.6" y="1034.4" width="1.8" height="3.375" fill="url(#linearGradient12151)"/>
   <rect x="16.875" y="1034.4" width="1.8" height="3.375" fill="url(#linearGradient12167)"/>
   <rect x="21.6" y="1034.4" width="1.8" height="3.375" fill="url(#linearGradient12171)"/>
   <rect x="26.1" y="1034.4" width="1.8" height="3.375" fill="url(#linearGradient12175)"/>
  </g>
  <g transform="translate(55.575 -24.75)">
   <rect x="11.25" y="1023.1" width="18" height="11.25" fill="url(#linearGradient12131)"/>
   <path transform="translate(0 971.36)" d="m11.25 63 0.45-1.125v-9h17.1l0.45-1.125h-18z" color="#000000" fill="#fff" fill-opacity=".29187" stroke="#000" stroke-linecap="round" stroke-opacity=".39234" stroke-width=".09"/>
   <path d="m29.25 1023.1-0.45 1.125v9h-17.1l-0.45 1.125h18z" color="#000000" fill-opacity=".29187" stroke="#000" stroke-opacity=".39216" stroke-width=".09"/>
   <path transform="translate(0 971.36)" d="m11.7 52.875-0.45-1.125" color="#000000" fill="none" stroke="#000" stroke-linecap="round" stroke-opacity=".39216" stroke-width=".09"/>
   <path transform="translate(-.675 971.25)" d="m16.425 59.287a1.4625 1.4625 0 1 1-2.925 0 1.4625 1.4625 0 1 1 2.925 0z" fill="url(#linearGradient12141)" stroke="#000" stroke-linecap="round" stroke-opacity=".39216" stroke-width=".09"/>
   <g stroke="#000" stroke-linecap="round" stroke-opacity=".39216" stroke-width=".051962">
    <rect x="12.6" y="1034.4" width="1.8" height="3.375" fill="url(#linearGradient12151)"/>
    <rect x="16.875" y="1034.4" width="1.8" height="3.375" fill="url(#linearGradient12167)"/>
    <rect x="21.6" y="1034.4" width="1.8" height="3.375" fill="url(#linearGradient12171)"/>
    <rect x="26.1" y="1034.4" width="1.8" height="3.375" fill="url(#linearGradient12175)"/>
   </g>
   <g transform="matrix(-1 0 0 -1 40.5 2057.5)" stroke="#000" stroke-linecap="round" stroke-opacity=".39216" stroke-width=".051962">
    <rect x="12.6" y="1034.4" width="1.8" height="3.375" fill="url(#linearGradient12151)"/>
    <rect x="16.875" y="1034.4" width="1.8" height="3.375" fill="url(#linearGradient12167)"/>
    <rect x="21.6" y="1034.4" width="1.8" height="3.375" fill="url(#linearGradient12171)"/>
    <rect x="26.1" y="1034.4" width="1.8" height="3.375" fill="url(#linearGradient12175)"/>
   </g>
  </g>
  <rect x="76.5" y="990.93" width="6.75" height="2.925" fill="#fff" fill-opacity=".15686"/>
  <rect x="76.5" y="987.11" width="6.75" height="2.925" fill="#fff" fill-opacity=".15686"/>
  <rect x="68.625" y="990.93" width="6.75" height="2.925" fill="#fff" fill-opacity=".15686"/>
  <rect x="68.625" y="987.11" width="6.75" height="2.925" fill="#fff" fill-opacity=".15686"/>
  <rect x="12.375" y="1041.1" width="6.75" height="2.925" fill="#fff" fill-opacity=".15686"/>
  <rect x="20.25" y="1041.1" width="6.75" height="2.925" fill="#fff" fill-opacity=".15686"/>
  <rect x="28.125" y="1041.1" width="6.75" height="2.925" fill="#fff" fill-opacity=".15686"/>
  <rect x="12.825" y="1015.7" width="6.75" height="2.925" fill="#fff" fill-opacity=".15686"/>
  <rect x="12.825" y="1011.9" width="6.75" height="2.925" fill="#fff" fill-opacity=".15686"/>
  <rect id="connector1pin" transform="translate(0 971.36)" x="22.5" y="6.75" width="4.5" height="4.5" fill="none"/>
  <rect id="connector2pin" x="31.5" y="978.11" width="4.5" height="4.5" fill="none"/>
  <rect id="connector3pin" x="40.5" y="978.11" width="4.5" height="4.5" fill="none"/>
  <rect id="connector4pin" x="49.5" y="978.11" width="4.5" height="4.5" fill="none"/>
  <rect id="connector5pin" x="58.5" y="978.11" width="4.5" height="4.5" fill="none"/>
  <rect id="connector6pin" x="67.5" y="978.11" width="4.5" height="4.5" fill="none"/>
  <rect id="connector7pin" x="76.5" y="978.11" width="4.5" height="4.5" fill="none"/>
 </g>
 <g transform="translate(0,-369)">
  <path transform="translate(20.25,358.65)" d="m56.25 52.875a28.125 28.125 0 1 1-56.25 0 28.125 28.125 0 1 1 56.25 0z"/>
  <path transform="translate(20.25,358.65)" d="m45 54a18 18 0 1 1-36 0 18 18 0 1 1 36 0z"/>
  <path transform="translate(20.25,358.65)" d="m47.25 52.875a19.125 19.125 0 1 1-38.25 0 19.125 19.125 0 1 1 38.25 0z" fill="url(#linearGradient12055)"/>
  <g transform="translate(20.25,-10.35)">
   <path transform="translate(0,369)" d="m28.125 24.75c-15.533 0-28.125 12.592-28.125 28.125s12.592 28.125 28.125 28.125 28.125-12.592 28.125-28.125-12.592-28.125-28.125-28.125zm-3.9375 3.9062a2.0352 2.0352 0 0 1 0.09375 0 2.0361 2.0361 0 0 1 0.28125 4.0625c-8.4837 1.4959-15.098 8.11-16.594 16.594a2.0293 2.0293 0 0 1-4-0.6875c1.7892-10.147 9.7595-18.117 19.906-19.906a2.0252 2.0252 0 0 1 0.125-0.03125 2.0352 2.0352 0 0 1 0.1875-0.03125zm7.5 0.03125a2.0252 2.0252 0 0 1 0.09375 0 2.0252 2.0252 0 0 1 0.59375 0.03125c10.147 1.7892 18.117 9.7595 19.906 19.906a2.0293 2.0293 0 0 1-4 0.6875c-1.4959-8.4837-8.11-15.098-16.594-16.594a2.0252 2.0252 0 0 1 0-4.0312zm-3.5625 6.4375c3.0673 0 6.1266 0.78822 8.875 2.375a2.0252 2.0252 0 1 1-2.0312 3.5c-4.2493-2.4534-9.4382-2.4534-13.688 0a2.0252 2.0252 0 0 1-2.5312-3.1562 2.0252 2.0252 0 0 1 0.5-0.34375c2.7484-1.5868 5.8077-2.375 8.875-2.375zm-4.0625 7.5625a2.0252 2.0252 0 0 1 0.125 0 2.0252 2.0252 0 0 1 1 3.875c-1.4866 0.69321-2.6818 1.8884-3.375 3.375a2.0342 2.0342 0 1 1-3.6875-1.7188c1.0952-2.3488 2.995-4.2485 5.3438-5.3438a2.0252 2.0252 0 0 1 0.59375-0.1875zm7.5625 0a2.0252 2.0252 0 0 1 0.1875 0 2.0252 2.0252 0 0 1 0.96875 0.1875c2.3488 1.0952 4.2485 2.995 5.3438 5.3438a2.0342 2.0342 0 1 1-3.6875 1.7188c-0.69321-1.4866-1.8884-2.6818-3.375-3.375a2.0252 2.0252 0 0 1 0.5625-3.875zm-17.156 0.125a2.0293 2.0293 0 0 1 0.09375 0 2.0293 2.0293 0 0 1 1.6875 3.2188c-2.4534 4.2493-2.4534 9.4382 0 13.688a2.0252 2.0252 0 1 1-3.5 2.0312c-3.1736-5.4968-3.1736-12.253 0-17.75a2.0252 2.0252 0 0 1 0.1875-0.3125 2.0293 2.0293 0 0 1 1.5312-0.875zm27 0.15625a2.0252 2.0252 0 0 1 0.1875 0 2.0252 2.0252 0 0 1 1.8438 1.0312c3.1736 5.4968 3.1736 12.253 0 17.75a2.0252 2.0252 0 1 1-3.5-2.0312c2.4534-4.2493 2.4534-9.4382 0-13.688a2.0252 2.0252 0 0 1 0.25-2.4062 2.0252 2.0252 0 0 1 1.2188-0.65625zm-13.344 5.4062c2.4853 0 4.5 2.0147 4.5 4.5s-2.0147 4.5-4.5 4.5-4.5-2.0147-4.5-4.5 2.0147-4.5 4.5-4.5zm-8.5938 5.5312a2.0252 2.0252 0 0 1 2.0312 1.3438c0.70561 1.9386 2.2488 3.4819 4.1875 4.1875a2.0318 2.0318 0 1 1-1.4062 3.8125c-3.0611-1.1142-5.4796-3.5326-6.5938-6.5938a2.0252 2.0252 0 0 1 1.7812-2.75zm16.812 0a2.0252 2.0252 0 0 1 0.125 0 2.0252 2.0252 0 0 1 2.0312 2.75c-1.1142 3.0611-3.5326 5.4796-6.5938 6.5938a2.0318 2.0318 0 1 1-1.4062-3.8125c1.9387-0.70561 3.4819-2.2488 4.1875-4.1875a2.0252 2.0252 0 0 1 1.6562-1.3438zm-30.562 0.8125a2.0252 2.0252 0 0 1 0.1875 0 2.0252 2.0252 0 0 1 2 1.7188c1.4959 8.4837 8.11 15.098 16.594 16.594a2.0293 2.0293 0 0 1-0.6875 4c-10.147-1.7892-18.117-9.7595-19.906-19.906a2.0252 2.0252 0 0 1 1.8125-2.4062zm44.25 0a2.0252 2.0252 0 0 1 0.1875 0 2.0252 2.0252 0 0 1 2.0625 2.4062c-1.7892 10.147-9.7595 18.117-19.906 19.906a2.0293 2.0293 0 0 1-0.6875-4c8.4837-1.4959 15.098-8.11 16.594-16.594a2.0252 2.0252 0 0 1 1.75-1.7188zm-14.125 9.6875a2.0252 2.0252 0 0 1 0.1875 0 2.0252 2.0252 0 0 1 0.90625 3.8438c-5.4968 3.1736-12.253 3.1736-17.75 0a2.0252 2.0252 0 0 1-0.5625-3.0625 2.0252 2.0252 0 0 1 2.5938-0.4375c4.2493 2.4534 9.4382 2.4534 13.688 0a2.0252 2.0252 0 0 1 0.9375-0.34375z" fill="#333"/>
   <path transform="translate(0,369)" d="m56.25 52.875a28.125 28.125 0 1 1-56.25 0 28.125 28.125 0 1 1 56.25 0z" fill="url(#radialGradient12051)"/>
   <path transform="translate(0,369)" d="m56.25 52.875a28.125 28.125 0 1 1-56.25 0 28.125 28.125 0 1 1 56.25 0z" fill="url(#linearGradient12053)"/>
  </g>
 </g>
</svg>
