<?xml version="1.0" encoding="UTF-8"?>
<!-- Generator: Adobe Illustrator 20.0.0, SVG Export Plug-In . SVG Version: 6.00 Build 0)  -->
<svg width=".75in" height=".7in" baseProfile="tiny" version="1.2" viewBox="0 0 54 50.4" xml:space="preserve" xmlns="http://www.w3.org/2000/svg" xmlns:xml="http://www.w3.org/XML/1998/namespace">
    <desc>
        <referenceFile>Adafruit MPL3115A2 I2C Barometric Pressure, Altitude, Temperature Sensor_breadboard.svg</referenceFile>
    </desc>
    <desc>Fritzing breadboard generated by brd2svg</desc>
    <g id="breadboard">
        <g id="icon">
            <path d="m54 7.2v36c0 3.976-3.224 7.2-7.2 7.2h-39.6c-3.976 0-7.2-3.224-7.2-7.2v-36c0-3.976 3.224-7.2 7.2-7.2h39.6c3.976 0 7.2 3.224 7.2 7.2m-50.017 36c0 0.783 0.635 1.417 1.417 1.417s1.417-0.635 1.417-1.417-0.634-1.417-1.417-1.417-1.417 0.634-1.417 1.417zm7.2 0c0 0.783 0.635 1.417 1.417 1.417s1.417-0.635 1.417-1.417-0.635-1.417-1.417-1.417-1.417 0.634-1.417 1.417zm7.2 0c0 0.783 0.635 1.417 1.417 1.417 0.783 0 1.417-0.635 1.417-1.417s-0.635-1.417-1.417-1.417c-0.783 0-1.417 0.634-1.417 1.417zm7.2 0c0 0.783 0.635 1.417 1.417 1.417 0.783 0 1.417-0.635 1.417-1.417s-0.634-1.417-1.417-1.417-1.417 0.634-1.417 1.417zm7.2 0c0 0.783 0.635 1.417 1.417 1.417s1.417-0.635 1.417-1.417-0.635-1.417-1.417-1.417-1.417 0.634-1.417 1.417zm7.2 0c0 0.783 0.635 1.417 1.417 1.417 0.783 0 1.417-0.635 1.417-1.417s-0.635-1.417-1.417-1.417-1.417 0.634-1.417 1.417zm7.2 0c0 0.783 0.635 1.417 1.417 1.417s1.417-0.635 1.417-1.417-0.635-1.417-1.417-1.417-1.417 0.634-1.417 1.417zm-43.526-36c-3e-3 1.957 1.58 3.546 3.537 3.549s3.546-1.58 3.549-3.537v-0.012c3e-3 -1.957-1.58-3.546-3.537-3.549-1.957-4e-3 -3.546 1.58-3.549 3.537v0.012zm39.6 0c-3e-3 1.957 1.58 3.546 3.537 3.55s3.546-1.58 3.55-3.537v-0.012c3e-3 -1.957-1.58-3.546-3.537-3.55-1.957-3e-3 -3.546 1.58-3.55 3.537v0.012z" fill="#014CB1"/>
            <g>
                <title>layer 21</title>
                <g>
                    <title>text:Vin</title>
                    <g transform="translate(1.8903 40.205)">
                        <text fill="#FFFFFF" font-family="'OCRA'" font-size="2.6726">Vin</text>
                    </g>
                </g>
                <g>
                    <title>text:GND</title>
                    <g transform="translate(9.2037 49.23)">
                        <text fill="#FFFFFF" font-family="'OCRA'" font-size="2.6726">GND</text>
                    </g>
                </g>
                <g>
                    <title>text:SCL</title>
                    <g transform="translate(38.684 49.318)">
                        <text fill="#FFFFFF" font-family="'OCRA'" font-size="2.6726">SCL</text>
                    </g>
                </g>
                <g>
                    <title>text:SDA</title>
                    <g transform="translate(45.714 39.871)">
                        <text fill="#FFFFFF" font-family="'OCRA'" font-size="2.6726">SDA</text>
                    </g>
                </g>
                <g>
                    <title>text:INT1</title>
                    <g transform="translate(29.653 39.959)">
                        <text fill="#FFFFFF" font-family="'OCRA'" font-size="2.6726">INT1</text>
                    </g>
                </g>
                <g>
                    <title>text:INT2</title>
                    <g transform="translate(22.818 48.983)">
                        <text fill="#FFFFFF" font-family="'OCRA'" font-size="2.6726">INT2</text>
                    </g>
                </g>
                <g>
                    <title>text:MPL3115A2</title>
                    <g transform="translate(14.501 10.179)">
                        <text fill="#FFFFFF" font-family="'OCRA'" font-size="3.0067">MPL3115A2</text>
                    </g>
                </g>
                <g>
                    <title>text:3vo</title>
                    <g transform="translate(16.29 39.845)">
                        <text fill="#FFFFFF" font-family="'OCRA'" font-size="2.6726">3vo</text>
                    </g>
                </g>
                <g>
                    <title>text:Altimeter</title>
                    <g transform="translate(18.555 5.6304)">
                        <text fill="#FFFFFF" font-family="'OCRA'" font-size="2.6726">Altimeter</text>
                    </g>
                </g>
                <g>
                    <title>element:C1</title>
                    <g>
                        <title>package:0805-NO</title>
                        <line x1="17.379" x2="14.499" y1="32.27" y2="32.27" fill="none" stroke="#fff" stroke-linecap="round" stroke-width=".864"/>
                    </g>
                </g>
                <g>
                    <title>element:C2</title>
                    <g>
                        <title>package:0805-NO</title>
                        <line x1="7.56" x2="7.56" y1="15.863" y2="18.743" fill="none" stroke="#fff" stroke-linecap="round" stroke-width=".864"/>
                    </g>
                </g>
                <g>
                    <title>element:C3</title>
                    <g>
                        <title>package:0805-NO</title>
                        <line x1="7.92" x2="7.92" y1="33.12" y2="36" fill="none" stroke="#fff" stroke-linecap="round" stroke-width=".864"/>
                    </g>
                </g>
                <g>
                    <title>element:C4</title>
                    <g>
                        <title>package:0805-NO</title>
                        <line x1="17.28" x2="14.4" y1="21.96" y2="21.96" fill="none" stroke="#fff" stroke-linecap="round" stroke-width=".864"/>
                    </g>
                </g>
                <g>
                    <title>element:FID1</title>
                    <g>
                        <title>package:FIDUCIAL_1MM</title>
                    </g>
                </g>
                <g>
                    <title>element:FID2</title>
                    <g>
                        <title>package:FIDUCIAL_1MM</title>
                    </g>
                </g>
                <g>
                    <title>element:IC1</title>
                    <g>
                        <title>package:LGA8</title>
                        <line x1="23.185" x2="23.185" y1="34.01" y2="19.27" fill="none" stroke="#fff" stroke-linecap="round" stroke-width=".576"/>
                        <line x1="23.185" x2="32.255" y1="19.27" y2="19.27" fill="none" stroke="#fff" stroke-linecap="round" stroke-width=".576"/>
                        <line x1="32.255" x2="32.255" y1="19.27" y2="34.01" fill="none" stroke="#fff" stroke-linecap="round" stroke-width=".576"/>
                        <line x1="32.255" x2="23.185" y1="34.01" y2="34.01" fill="none" stroke="#fff" stroke-linecap="round" stroke-width=".576"/>
                        <circle cx="21.484" cy="18.42" r=".401" fill="none" stroke="#fff" stroke-width="1.152"/>
                    </g>
                </g>
                <g>
                    <title>element:JP2</title>
                    <g>
                        <title>package:1X07_ROUND_70</title>
                    </g>
                </g>
                <g>
                    <title>element:Q1</title>
                    <g>
                        <title>package:SOT23-WIDE</title>
                        <line x1="46.141" x2="46.141" y1="17.591" y2="21.312" fill="none" stroke="#fff" stroke-linecap="round" stroke-width=".576"/>
                        <line x1="46.141" x2="43.423" y1="21.312" y2="21.312" fill="none" stroke="#fff" stroke-linecap="round" stroke-width=".576"/>
                        <line x1="36.659" x2="36.659" y1="21.312" y2="17.591" fill="none" stroke="#fff" stroke-linecap="round" stroke-width=".576"/>
                        <line x1="39.377" x2="36.659" y1="21.312" y2="21.312" fill="none" stroke="#fff" stroke-linecap="round" stroke-width=".576"/>
                        <line x1="40.77" x2="42.07" y1="17.568" y2="17.568" fill="none" stroke="#fff" stroke-linecap="round" stroke-width=".576"/>
                    </g>
                </g>
                <g>
                    <title>element:Q2</title>
                    <g>
                        <title>package:SOT23-WIDE</title>
                        <line x1="46.141" x2="46.141" y1="28.031" y2="31.752" fill="none" stroke="#fff" stroke-linecap="round" stroke-width=".576"/>
                        <line x1="46.141" x2="43.423" y1="31.752" y2="31.752" fill="none" stroke="#fff" stroke-linecap="round" stroke-width=".576"/>
                        <line x1="36.659" x2="36.659" y1="31.752" y2="28.031" fill="none" stroke="#fff" stroke-linecap="round" stroke-width=".576"/>
                        <line x1="39.377" x2="36.659" y1="31.752" y2="31.752" fill="none" stroke="#fff" stroke-linecap="round" stroke-width=".576"/>
                        <line x1="40.77" x2="42.07" y1="28.008" y2="28.008" fill="none" stroke="#fff" stroke-linecap="round" stroke-width=".576"/>
                    </g>
                </g>
                <g>
                    <title>element:R3</title>
                    <g>
                        <title>package:0805-NO</title>
                        <line x1="50.76" x2="47.88" y1="19.44" y2="19.44" fill="none" stroke="#fff" stroke-linecap="round" stroke-width=".864"/>
                    </g>
                </g>
                <g>
                    <title>element:R4</title>
                    <g>
                        <title>package:0805-NO</title>
                        <line x1="50.76" x2="47.88" y1="30.24" y2="30.24" fill="none" stroke="#fff" stroke-linecap="round" stroke-width=".864"/>
                    </g>
                </g>
                <g>
                    <title>element:R5</title>
                    <g>
                        <title>package:0805-NO</title>
                        <line x1="20.52" x2="20.52" y1="12.96" y2="15.84" fill="none" stroke="#fff" stroke-linecap="round" stroke-width=".864"/>
                    </g>
                </g>
                <g>
                    <title>element:R6</title>
                    <g>
                        <title>package:0805-NO</title>
                        <line x1="30.96" x2="30.96" y1="16.2" y2="13.32" fill="none" stroke="#fff" stroke-linecap="round" stroke-width=".864"/>
                    </g>
                </g>
                <g>
                    <title>element:U$8</title>
                    <g>
                        <title>package:MOUNTINGHOLE_2.5_PLATED</title>
                        <circle cx="7.2" cy="7.2" r="5.669" fill="none" stroke="#fff" stroke-width=".576"/>
                    </g>
                </g>
                <g>
                    <title>element:U$9</title>
                    <g>
                        <title>package:MOUNTINGHOLE_2.5_PLATED</title>
                        <circle cx="46.8" cy="7.2" r="5.669" fill="none" stroke="#fff" stroke-width=".576"/>
                    </g>
                </g>
                <g>
                    <title>element:U$14</title>
                    <g>
                        <title>package:ADAFRUIT_3.5MM</title>
                    </g>
                </g>
                <g>
                    <title>element:U2</title>
                    <g>
                        <title>package:SOT23-5</title>
                        <line x1="2.883" x2="2.883" y1="23.652" y2="28.188" fill="none" stroke="#fff" stroke-linecap="round" stroke-width=".576"/>
                        <line x1="12.237" x2="12.237" y1="23.652" y2="28.188" fill="none" stroke="#fff" stroke-linecap="round" stroke-width=".576"/>
                        <line x1="6.426" x2="8.694" y1="22.944" y2="22.944" fill="none" stroke="#fff" stroke-linecap="round" stroke-width=".576"/>
                    </g>
                </g>
            </g>
            <g transform="matrix(0 1 -1 0 45.516 13.637)">
                
                    <g transform="matrix(2.5352e-6 1 -1 2.5352e-6 45.516 13.637)">
                        <rect id="connector5pin" x="13.813" y="27.734" width="4.252" height="3.685" fill="#9A916C"/>
                    </g>
                
            </g>
            <g transform="matrix(0 1 -1 0 50.902 19.023)">
                
                    <g transform="matrix(2.5352e-6 1 -1 2.5352e-6 50.902 19.023)">
                        <rect id="connector6pin" x="13.813" y="33.12" width="4.252" height="3.685" fill="#9A916C"/>
                    </g>
                
            </g>
            <rect id="connector7pin" x="3.025" y="15.177" width="3.685" height="4.252" fill="#9A916C"/>
            <rect id="connector8pin" x="8.41" y="15.177" width="3.685" height="4.252" fill="#9A916C"/>
            <rect id="connector9pin" x="3.385" y="32.434" width="3.685" height="4.252" fill="#9A916C"/>
            <rect id="connector10pin" x="8.77" y="32.434" width="3.685" height="4.252" fill="#9A916C"/>
            <g transform="matrix(0 1 -1 0 35.107 3.4271)">
                
                    <g transform="matrix(2.5352e-6 1 -1 2.5352e-6 35.107 3.4271)">
                        <rect id="connector11pin" x="13.714" y="17.425" width="4.252" height="3.685" fill="#9A916C"/>
                    </g>
                
            </g>
            <g transform="matrix(0 1 -1 0 40.493 8.8129)">
                
                    <g transform="matrix(2.5352e-6 1 -1 2.5352e-6 40.493 8.8129)">
                        <rect id="connector12pin" x="13.714" y="22.81" width="4.252" height="3.685" fill="#9A916C"/>
                    </g>
                
            </g>
            <path id="connector13pin" d="m42.307 36.227c0.783 0 1.417 0.635 1.417 1.417 0 0.783-0.635 1.417-1.417 1.417-0.783 0-1.417-0.635-1.417-1.417 0-0.783 0.634-1.417 1.417-1.417z" fill="#9A916C"/>
            <path id="connector14pin" d="m15.403 1.899c0.783 0 1.417 0.635 1.417 1.417 0 0.783-0.635 1.417-1.417 1.417-0.783 0-1.417-0.635-1.417-1.417s0.635-1.417 1.417-1.417z" fill="#9A916C"/>
            <rect id="connector15pin" x="20.775" y="20.475" width="5.386" height="1.701" fill="#9A916C"/>
            <rect id="connector16pin" x="20.775" y="24.018" width="5.386" height="1.701" fill="#9A916C"/>
            <rect id="connector17pin" x="20.775" y="27.561" width="5.386" height="1.701" fill="#9A916C"/>
            <rect id="connector18pin" x="20.775" y="31.105" width="5.386" height="1.701" fill="#9A916C"/>
            <rect id="connector19pin" x="29.279" y="31.105" width="5.386" height="1.701" fill="#9A916C"/>
            <rect id="connector20pin" x="29.279" y="27.561" width="5.386" height="1.701" fill="#9A916C"/>
            <rect id="connector21pin" x="29.279" y="24.018" width="5.386" height="1.701" fill="#9A916C"/>
            <rect id="connector22pin" x="29.279" y="20.475" width="5.386" height="1.701" fill="#9A916C"/>
            <circle id="connector23pin" cx="5.4" cy="43.2" r="1.969" fill="none" stroke="#9A916C" stroke-width="1.1027"/>
            <rect x="3.431" y="41.231" width="3.937" height="3.937" fill="none" stroke="#9A916C" stroke-width="1.1027"/>
            <circle id="connector24pin" cx="12.6" cy="43.2" r="1.969" fill="none" stroke="#9A916C" stroke-width="1.1027"/>
            <circle id="connector25pin" cx="19.8" cy="43.2" r="1.969" fill="none" stroke="#9A916C" stroke-width="1.1027"/>
            <circle id="connector26pin" cx="27" cy="43.2" r="1.969" fill="none" stroke="#9A916C" stroke-width="1.1027"/>
            <circle id="connector27pin" cx="34.2" cy="43.2" r="1.969" fill="none" stroke="#9A916C" stroke-width="1.1027"/>
            <circle id="connector28pin" cx="41.4" cy="43.2" r="1.969" fill="none" stroke="#9A916C" stroke-width="1.1027"/>
            <circle id="connector29pin" cx="48.6" cy="43.2" r="1.969" fill="none" stroke="#9A916C" stroke-width="1.1027"/>
            <g transform="matrix(-1 0 0 -1 88.186 33.211)">
                
                    <rect id="connector30pin" x="42.676" y="14.905" width="2.835" height="3.402" fill="#9A916C"/>
                
            </g>
            <g transform="matrix(-1 0 0 -1 77.414 33.211)">
                
                    <rect id="connector31pin" x="37.29" y="14.905" width="2.835" height="3.402" fill="#9A916C"/>
                
            </g>
            <g transform="matrix(-1 0 0 -1 82.8 44.549)">
                
                    <rect id="connector32pin" x="39.983" y="20.574" width="2.835" height="3.402" fill="#9A916C"/>
                
            </g>
            <g transform="matrix(-1 0 0 -1 88.186 54.091)">
                
                    <rect id="connector33pin" x="42.676" y="25.345" width="2.835" height="3.402" fill="#9A916C"/>
                
            </g>
            <g transform="matrix(-1 0 0 -1 77.414 54.091)">
                
                    <rect id="connector34pin" x="37.29" y="25.345" width="2.835" height="3.402" fill="#9A916C"/>
                
            </g>
            <g transform="matrix(-1 0 0 -1 82.8 65.429)">
                
                    <rect id="connector35pin" x="39.983" y="31.014" width="2.835" height="3.402" fill="#9A916C"/>
                
            </g>
            <g transform="matrix(0 1 -1 0 66.067 -32.573)">
                
                    <g transform="matrix(2.5352e-6 1 -1 2.5352e-6 66.067 -32.573)">
                        <rect id="connector36pin" x="47.194" y="14.905" width="4.252" height="3.685" fill="#9A916C"/>
                    </g>
                
            </g>
            <g transform="matrix(0 1 -1 0 71.453 -27.187)">
                
                    <g transform="matrix(2.5352e-6 1 -1 2.5352e-6 71.453 -27.187)">
                        <rect id="connector37pin" x="47.194" y="20.29" width="4.252" height="3.685" fill="#9A916C"/>
                    </g>
                
            </g>
            <g transform="matrix(0 1 -1 0 76.867 -21.773)">
                
                    <g transform="matrix(2.5352e-6 1 -1 2.5352e-6 76.867 -21.773)">
                        <rect id="connector38pin" x="47.194" y="25.705" width="4.252" height="3.685" fill="#9A916C"/>
                    </g>
                
            </g>
            <g transform="matrix(0 1 -1 0 82.253 -16.387)">
                
                    <g transform="matrix(2.5352e-6 1 -1 2.5352e-6 82.253 -16.387)">
                        <rect id="connector39pin" x="47.194" y="31.09" width="4.252" height="3.685" fill="#9A916C"/>
                    </g>
                
            </g>
            <rect id="connector40pin" x="15.985" y="12.274" width="3.685" height="4.252" fill="#9A916C"/>
            <rect id="connector41pin" x="21.37" y="12.274" width="3.685" height="4.252" fill="#9A916C"/>
            <g transform="matrix(-1 0 0 -1 67.306 29.52)">
                
                    <rect id="connector42pin" x="31.81" y="12.634" width="3.685" height="4.252" fill="#9A916C"/>
                
            </g>
            <g transform="matrix(-1 0 0 -1 56.534 29.52)">
                
                    <rect id="connector43pin" x="26.425" y="12.634" width="3.685" height="4.252" fill="#9A916C"/>
                
            </g>
            <circle id="connector44pin" cx="7.2" cy="7.2" r="4.263" fill="none" stroke="#9A916C" stroke-width="1.44"/>
            <circle id="connector45pin" cx="46.8" cy="7.2" r="4.263" fill="none" stroke="#9A916C" stroke-width="1.44"/>
            <rect id="connector46pin" x="4.088" y="27.904" width="1.559" height="3.402" fill="#9A916C"/>
            <rect id="connector47pin" x="6.78" y="27.904" width="1.559" height="3.402" fill="#9A916C"/>
            <rect id="connector48pin" x="9.473" y="27.904" width="1.559" height="3.402" fill="#9A916C"/>
            <rect id="connector49pin" x="9.473" y="20.534" width="1.559" height="3.402" fill="#9A916C"/>
            <rect id="connector50pin" x="4.088" y="20.534" width="1.559" height="3.402" fill="#9A916C"/>
        </g>
        <g transform="translate(13.105 30.498)">
            
                <g transform="matrix(0 1 -1 0 4.606 -1.063)">
                    
                        <path d="M5.386,3.543H0.283C0.127,3.543,0,3.416,0,3.26V0.283C0,0.127,0.127,0,0.283,0h5.102c0.157,0,0.283,0.127,0.283,0.283V3.26C5.669,3.416,5.542,3.543,5.386,3.543z" fill="#DCDCDC"/>
                        <g transform="matrix(2.5352e-6 1 -1 2.5352e-6 4.606 -1.063)">
                            <rect x="1.063" width="3.543" height="3.543" fill="#6E554B"/>
                        </g>
                    
                </g>
            
        </g>
        <g transform="translate(4.7255 15.531)">
            
                <path d="M5.386,3.543H0.283C0.127,3.543,0,3.416,0,3.26V0.283C0,0.127,0.127,0,0.283,0h5.102c0.157,0,0.283,0.127,0.283,0.283V3.26C5.669,3.416,5.542,3.543,5.386,3.543z" fill="#DCDCDC"/>
                <rect x="1.063" width="3.543" height="3.543" fill="#6E554B"/>
            
        </g>
        <g transform="translate(5.0855 32.788)">
            
                <path d="M5.386,3.543H0.283C0.127,3.543,0,3.416,0,3.26V0.283C0,0.127,0.127,0,0.283,0h5.102c0.157,0,0.283,0.127,0.283,0.283V3.26C5.669,3.416,5.542,3.543,5.386,3.543z" fill="#DCDCDC"/>
                <rect x="1.063" width="3.543" height="3.543" fill="#6E554B"/>
            
        </g>
        <g transform="translate(13.006 20.188)">
            
                <g transform="matrix(0 1 -1 0 4.606 -1.063)">
                    
                        <path d="M5.386,3.543H0.283C0.127,3.543,0,3.416,0,3.26V0.283C0,0.127,0.127,0,0.283,0h5.102c0.157,0,0.283,0.127,0.283,0.283V3.26C5.669,3.416,5.542,3.543,5.386,3.543z" fill="#DCDCDC"/>
                        <g transform="matrix(2.5352e-6 1 -1 2.5352e-6 4.606 -1.063)">
                            <rect x="1.063" width="3.543" height="3.543" fill="#6E554B"/>
                        </g>
                    
                </g>
            
        </g>
        <g transform="translate(23.057 18.202)">
            
                
                    <path d="M9.265,15.087c0,0.549-0.449,1-1,1H1.062c-0.55,0-1-0.451-1-1V1.75c0-0.55,0.45-1,1-1h7.202c0.551,0,1,0.45,1,1L9.265,15.087z" fill="#B3B3B3"/>
                    <path d="m8.914 14.69c0 0.549-0.449 1-1 1h-6.503c-0.55 0-1-0.451-1-1v-12.003c0-0.55 0.45-1 1-1h6.503c0.551 0 1 0.45 1 1v12.003z" fill="#999"/>
                    <path d="m8.914 13.923c0 0.549-0.449 1-1 1h-6.503c-0.55 0-1-0.451-1-1v-12.003c0-0.55 0.45-1 1-1h6.503c0.551 0 1 0.45 1 1v12.003z" fill="#ccc"/>
                    <path d="m0.411 14.103c0 0.551 0.45 1 1 1h6.503c0.551 0 1-0.449 1-1v-0.18c0 0.549-0.449 1-1 1h-6.503c-0.55 0-1-0.451-1-1v0.18z" fill="#646464"/>
                    <path d="m8.914 2.187c0-0.55-0.449-1-1-1h-6.503c-0.55 0-1 0.45-1 1v-0.267c0-0.55 0.45-1 1-1h6.503c0.551 0 1 0.45 1 1v0.267z" fill="#F0F0F0"/>
                    <circle cx="4.663" cy="12.337" r=".896" fill="#1A1A1A"/>
                    <path d="m9.265 1.92c0-0.55-0.449-1-1-1h-7.202c-0.55 0-1 0.45-1 1v-0.17c0-0.55 0.45-1 1-1h7.202c0.551 0 1 0.45 1 1v0.17z" fill="#F0F0F0"/>
                    <path d="m0.062 15.087c0 0.549 0.45 1 1 1h7.202c0.551 0 1-0.451 1-1v-0.104c0 0.549-0.449 1-1 1h-7.202c-0.55 0-1-0.451-1-1v0.104z" fill="#646464"/>
                
            
        </g>
        <g transform="translate(37.148 15.613)">
            
                <g transform="matrix(-1 0 0 -1 8.504 7.654)">
                    
                        
                            <rect x=".85" y="4.677" width="1.417" height="2.976" fill="#DCDCDC"/>
                            <rect x="6.236" y="4.677" width="1.417" height="2.976" fill="#DCDCDC"/>
                            <rect x="3.543" width="1.417" height="3.118" fill="#DCDCDC"/>
                            <rect y="1.984" width="8.504" height="3.685" fill="#303030"/>
                        
                    
                </g>
            
        </g>
        <g transform="translate(37.148 26.053)">
            
                <g transform="matrix(-1 0 0 -1 8.504 7.654)">
                    
                        
                            <rect x=".85" y="4.677" width="1.417" height="2.976" fill="#DCDCDC"/>
                            <rect x="6.236" y="4.677" width="1.417" height="2.976" fill="#DCDCDC"/>
                            <rect x="3.543" width="1.417" height="3.118" fill="#DCDCDC"/>
                            <rect y="1.984" width="8.504" height="3.685" fill="#303030"/>
                        
                    
                </g>
            
        </g>
        <g transform="translate(46.486 17.668)">
            
                <g transform="matrix(0 1 -1 0 4.606 -1.063)">
                    
                        <path d="M5.386,3.543H0.283C0.127,3.543,0,3.416,0,3.26V0.283C0,0.127,0.127,0,0.283,0h5.102c0.157,0,0.283,0.127,0.283,0.283V3.26C5.669,3.416,5.542,3.543,5.386,3.543z" fill="#DCDCDC"/>
                        <g transform="matrix(2.5352e-6 1 -1 2.5352e-6 4.606 -1.063)">
                            <rect x="1.063" width="3.543" height="3.543" fill="#333"/>
                        </g>
                    
                </g>
            
        </g>
        <g transform="translate(46.486 28.468)">
            
                <g transform="matrix(0 1 -1 0 4.606 -1.063)">
                    
                        <path d="M5.386,3.543H0.283C0.127,3.543,0,3.416,0,3.26V0.283C0,0.127,0.127,0,0.283,0h5.102c0.157,0,0.283,0.127,0.283,0.283V3.26C5.669,3.416,5.542,3.543,5.386,3.543z" fill="#DCDCDC"/>
                        <g transform="matrix(2.5352e-6 1 -1 2.5352e-6 4.606 -1.063)">
                            <rect x="1.063" width="3.543" height="3.543" fill="#333"/>
                        </g>
                    
                </g>
            
        </g>
        <g transform="translate(17.686 12.628)">
            
                <path d="M5.386,3.543H0.283C0.127,3.543,0,3.416,0,3.26V0.283C0,0.127,0.127,0,0.283,0h5.102c0.157,0,0.283,0.127,0.283,0.283V3.26C5.669,3.416,5.542,3.543,5.386,3.543z" fill="#DCDCDC"/>
                <rect x="1.063" width="3.543" height="3.543" fill="#333"/>
            
        </g>
        <g transform="translate(28.126 12.988)">
            
                <g transform="matrix(-1 0 0 -1 5.669 3.543)">
                    
                        <path d="M5.386,3.543H0.283C0.127,3.543,0,3.416,0,3.26V0.283C0,0.127,0.127,0,0.283,0h5.102c0.157,0,0.283,0.127,0.283,0.283V3.26C5.669,3.416,5.542,3.543,5.386,3.543z" fill="#DCDCDC"/>
                        <rect x="1.063" width="3.543" height="3.543" fill="#333"/>
                    
                </g>
            
        </g>
        <g transform="translate(3.45 22.093)">
            
                
                    <rect x=".85" width="1.134" height="7.654" fill="#DCDCDC"/>
                    <rect x="6.236" width="1.134" height="7.654" fill="#DCDCDC"/>
                    <rect x="3.543" y="4.535" width="1.134" height="3.118" fill="#DCDCDC"/>
                    <rect y="1.559" width="8.22" height="4.535" fill="#303030"/>
                
            
        </g>
    </g>
</svg>
