<?xml version="1.0" encoding="UTF-8"?>
<!-- Created with Inkscape (http://www.inkscape.org/) -->
<svg width="387" height="270" version="1.1" xmlns="http://www.w3.org/2000/svg">
 <defs>
  <linearGradient id="linearGradient90134">
   <stop stop-color="#fff" stop-opacity="0" offset="0"/>
   <stop stop-color="#ddd" stop-opacity=".50893" offset=".025"/>
   <stop stop-color="#bcbcbc" stop-opacity="0" offset=".075"/>
   <stop stop-color="#9a9a9a" stop-opacity=".053571" offset=".5375"/>
   <stop stop-color="#797979" stop-opacity=".044643" offset="1"/>
  </linearGradient>
  <linearGradient id="linearGradient90122">
   <stop stop-color="#fff" stop-opacity="0" offset="0"/>
   <stop stop-color="#ddd" stop-opacity=".66964" offset=".05"/>
   <stop stop-color="#333" stop-opacity="0" offset=".15"/>
   <stop stop-color="#797979" stop-opacity="0" offset="1"/>
  </linearGradient>
  <linearGradient id="linearGradient92068" x1="549" x2="567" y1="414" y2="508.5" gradientTransform="translate(-346.5,45)" gradientUnits="userSpaceOnUse" xmlns:xlink="http://www.w3.org/1999/xlink">
   <stop stop-color="#262626" offset="0"/>
   <stop stop-color="#5f5f5f" offset=".5"/>
   <stop stop-color="#2c2c2c" offset="1"/>
  </linearGradient>
  <linearGradient id="linearGradient92077" x1="369" x2="369" y1="782.36" y2="962.36" gradientTransform="translate(-553.5 -1277.4)" gradientUnits="userSpaceOnUse" xlink:href="#linearGradient90122" xmlns:xlink="http://www.w3.org/1999/xlink"/>
  <linearGradient id="linearGradient92080" x1="369" x2="369" y1="782.36" y2="962.36" gradientTransform="translate(-166.5 -467.36)" gradientUnits="userSpaceOnUse" xlink:href="#linearGradient90122" xmlns:xlink="http://www.w3.org/1999/xlink"/>
  <linearGradient id="linearGradient92083" x1="180" x2="540" y1="872.36" y2="872.36" gradientTransform="translate(-553.5 -1277.4)" gradientUnits="userSpaceOnUse" xlink:href="#linearGradient90134" xmlns:xlink="http://www.w3.org/1999/xlink"/>
  <linearGradient id="linearGradient92086" x1="180" x2="540" y1="872.36" y2="872.36" gradientTransform="translate(-166.5 -467.36)" gradientUnits="userSpaceOnUse" xlink:href="#linearGradient90134" xmlns:xlink="http://www.w3.org/1999/xlink"/>
 </defs>
 <metadata>
  <rdf:RDF xmlns:rdf="http://www.w3.org/1999/02/22-rdf-syntax-ns#">
   <cc:Work rdf:about="" xmlns:cc="http://creativecommons.org/ns#" xmlns:rdf="http://www.w3.org/1999/02/22-rdf-syntax-ns#">
    <dc:format xmlns:dc="http://purl.org/dc/elements/1.1/">image/svg+xml</dc:format>
    <dc:type rdf:resource="http://purl.org/dc/dcmitype/StillImage" xmlns:dc="http://purl.org/dc/elements/1.1/" xmlns:rdf="http://www.w3.org/1999/02/22-rdf-syntax-ns#"/>
    <dc:title xmlns:dc="http://purl.org/dc/elements/1.1/"/>
   </cc:Work>
  </rdf:RDF>
 </metadata>
 <g transform="translate(0,-270)">
  <g id="icon">
   <rect x="153" y="483.75" width="9" height="18" rx="4.5" fill="#ff2a2a" fill-rule="evenodd" stroke="#888" stroke-width=".18"/>
   <path d="m103.5 333c9.972 0 18-8.028 18-18v-18c0-9.972-8.028-18-18-18s-18 8.028-18 18v18c0 9.972 8.028 18 18 18zm0-27c-4.9706 0-9-4.0294-9-9s4.0294-9 9-9 9 4.0294 9 9-4.0294 9-9 9z" fill="#333"/>
   <path d="m283.5 477c-9.972 0-18 8.028-18 18v18c0 9.972 8.028 18 18 18s18-8.028 18-18v-18c0-9.972-8.028-18-18-18zm0 27c4.9706 0 9 4.0294 9 9s-4.0294 9-9 9-9-4.0294-9-9 4.0294-9 9-9z" fill="#333"/>
   <rect x="13.5" y="315" width="360" height="180" rx="22.5" fill="#333" stroke="#000" stroke-width="1.8"/>
   <rect x="13.5" y="315" width="360" height="180" rx="22.5" fill="url(#linearGradient92086)" opacity=".5"/>
   <rect transform="scale(-1)" x="-373.5" y="-495" width="360" height="180" rx="22.5" fill="url(#linearGradient92083)" opacity=".28"/>
   <rect x="13.5" y="315" width="360" height="180" rx="22.5" fill="url(#linearGradient92080)" opacity=".4"/>
   <rect transform="scale(-1)" x="-373.5" y="-495" width="360" height="180" rx="22.5" fill="url(#linearGradient92077)" opacity=".28"/>
   <path d="m189 459c-7.479 0-13.5 6.021-13.5 13.5v22.5h72v-22.5c0-7.479-6.021-13.5-13.5-13.5h-45z" fill="url(#linearGradient92068)" fill-rule="evenodd" stroke="#000" stroke-dashoffset=".288" stroke-linejoin="round" stroke-width=".18"/>
   <rect id="connector1pin" x="189" y="490.5" width="9" height="9" fill="none"/>
   <rect id="connector2pin" x="207" y="490.5" width="9" height="9" fill="none"/>
   <rect id="connector3pin" x="225" y="490.5" width="9" height="9" fill="none"/>
   <path transform="translate(-346.5,45)" d="m547.65 432a7.65 7.65 0 1 1-15.3 0 7.65 7.65 0 1 1 15.3 0z" fill="#1a1a1a" fill-opacity=".74457" fill-rule="evenodd" stroke="#000" stroke-dashoffset=".288" stroke-linejoin="round" stroke-width=".18"/>
   <path transform="translate(-328.54 45)" d="m547.65 432a7.65 7.65 0 1 1-15.3 0 7.65 7.65 0 1 1 15.3 0z" fill="#1a1a1a" fill-opacity=".74457" fill-rule="evenodd" stroke="#000" stroke-dashoffset=".288" stroke-linejoin="round" stroke-width=".18"/>
   <path transform="translate(-310.54 45)" d="m547.65 432a7.65 7.65 0 1 1-15.3 0 7.65 7.65 0 1 1 15.3 0z" fill="#1a1a1a" fill-opacity=".74457" fill-rule="evenodd" stroke="#000" stroke-dashoffset=".288" stroke-linejoin="round" stroke-width=".18"/>
   <g transform="matrix(1.5 0 0 1.5 -616.5 -171.04)">
    <path transform="matrix(-.625 0 0 -.625 555.5 1065.4)" d="m31.89 1013.4a7.0866 7.0866 0 1 1-14.173 0 7.0866 7.0866 0 1 1 14.173 0z" fill="#d7d7d7" fill-rule="evenodd" stroke="#000" stroke-width=".28346"/>
    <g transform="matrix(-.46679 -.17918 .17918 -.46679 369.68 910.38)" fill="none" stroke="#575757" stroke-linecap="round">
     <path d="m24.803 1009.8v10.63" stroke-width="2.1698"/>
     <path d="m19.488 1015.2h10.63" stroke-width="2.1698"/>
    </g>
   </g>
   <g transform="matrix(.79488 -1.2721 1.2721 .79488 -767.33 820.55)">
    <path transform="matrix(-.625 0 0 -.625 555.5 1065.4)" d="m31.89 1013.4a7.0866 7.0866 0 1 1-14.173 0 7.0866 7.0866 0 1 1 14.173 0z" fill="#d7d7d7" fill-rule="evenodd" stroke="#000" stroke-width=".28346"/>
    <g transform="matrix(-.46679 -.17918 .17918 -.46679 369.68 910.38)" fill="none" stroke="#575757" stroke-linecap="round">
     <path d="m24.803 1009.8v10.63" stroke-width="2.1698"/>
     <path d="m19.488 1015.2h10.63" stroke-width="2.1698"/>
    </g>
   </g>
   <g transform="matrix(1.4554 -.36288 .36288 1.4554 -713.2 44.173)">
    <path transform="matrix(-.625 0 0 -.625 555.5 1065.4)" d="m31.89 1013.4a7.0866 7.0866 0 1 1-14.173 0 7.0866 7.0866 0 1 1 14.173 0z" fill="#d7d7d7" fill-rule="evenodd" stroke="#000" stroke-width=".28346"/>
    <g transform="matrix(-.46679 -.17918 .17918 -.46679 369.68 910.38)" fill="none" stroke="#575757" stroke-linecap="round">
     <path d="m24.803 1009.8v10.63" stroke-width="2.1698"/>
     <path d="m19.488 1015.2h10.63" stroke-width="2.1698"/>
    </g>
   </g>
   <g fill="#ffffff" fill-opacity=".40217" font-family="Droid Sans" font-size="8px" letter-spacing="0px" text-align="end" text-anchor="middle" word-spacing="0px" style="line-height:125%" xml:space="preserve">
    <text x="193.5" y="492.75" text-align="center">1</text>
   
   
    <text x="211.47778" y="492.75" text-align="center">2</text>
   
   
    <text x="229.47778" y="492.75" text-align="center">3</text>
   </g>
   <rect x="101.25" y="348.75" width="184.5" height="94.5" rx="13.5" fill="#1a1a1a"/>
   <rect x="103.5" y="351" width="180" height="90" rx="13.5" fill="#ccc"/>
   <path d="m103.5 423v4.5c0 7.479 6.021 13.5 13.5 13.5h153c7.479 0 13.5-6.021 13.5-13.5v-4.5h-180z" fill="#4d4d4d"/>
   <g font-family="OCRA" font-size="6px" letter-spacing="0px" text-align="end" text-anchor="end" word-spacing="0px" style="line-height:125%" xml:space="preserve">
    <text x="265.8913" y="436.48724" fill="#e6e6e6" font-family="Droid Sans" font-size="12px" style="line-height:125%">1: +in    2: -in     3: Ground</text>
   </g>
   <g fill="#4d4d4d" font-family="Droid Sans" font-size="6px" letter-spacing="0px" text-align="end" text-anchor="end" word-spacing="0px" style="line-height:125%" xml:space="preserve">
    <text x="274.5" y="396" fill="#4d4d4d" font-size="20px" font-weight="bold">PowerSwitch Tail</text>
   </g>
  </g>
 </g>
</svg>
