<?xml version="1.0" encoding="UTF-8"?>
<!-- Created with Inkscape (http://www.inkscape.org/) -->
<svg width="54" height="63" version="1.1" xmlns="http://www.w3.org/2000/svg" xmlns:cc="http://creativecommons.org/ns#" xmlns:dc="http://purl.org/dc/elements/1.1/" xmlns:rdf="http://www.w3.org/1999/02/22-rdf-syntax-ns#" xmlns:xlink="http://www.w3.org/1999/xlink">
 <defs>
  <linearGradient id="linearGradient3896">
   <stop stop-color="#b3b3b3" offset="0"/>
   <stop stop-color="#939393" offset=".6"/>
   <stop stop-color="#d3d3d3" offset=".81819"/>
   <stop stop-color="#969696" offset=".9"/>
   <stop stop-color="#909090" offset="1"/>
  </linearGradient>
  <linearGradient id="linearGradient3869" x1=".125" x2="53.75" y1="1026.9" y2="1006" gradientTransform="translate(-1.9073e-7 4.5)" gradientUnits="userSpaceOnUse">
   <stop stop-color="#a0a0a0" offset="0"/>
   <stop stop-color="#d6d6d6" offset=".45833"/>
   <stop stop-color="#8c8c8c" offset="1"/>
  </linearGradient>
  <linearGradient id="linearGradient3944" x1="49.5" x2="4.5" y1="436.5" y2="391.5" gradientUnits="userSpaceOnUse">
   <stop stop-color="#232323" stop-opacity=".15179" offset="0"/>
   <stop stop-color="#fff" stop-opacity=".30357" offset="1"/>
  </linearGradient>
  <linearGradient id="linearGradient4009" x1="22.275" x2="44.6" y1="439.12" y2="395.12" gradientUnits="userSpaceOnUse">
   <stop stop-color="#fff" stop-opacity="0" offset="0"/>
   <stop stop-color="#fff" stop-opacity=".21429" offset=".5"/>
   <stop stop-color="#fff" stop-opacity="0" offset="1"/>
  </linearGradient>
  <linearGradient id="linearGradient4129" x1="27" x2="27" y1="1039.8" y2="1044.7" gradientTransform="matrix(.75 0 0 1 6.75 4.5)" gradientUnits="userSpaceOnUse" xlink:href="#linearGradient3896"/>
  <linearGradient id="linearGradient4167" x1="27" x2="27" y1="1039.8" y2="1044.7" gradientTransform="matrix(.75 0 0 1 15.75 4.5)" gradientUnits="userSpaceOnUse" xlink:href="#linearGradient3896"/>
  <linearGradient id="linearGradient4169" x1="27" x2="27" y1="1039.8" y2="1044.7" gradientTransform="matrix(.75 0 0 1 -2.25 4.5)" gradientUnits="userSpaceOnUse" xlink:href="#linearGradient3896"/>
  <linearGradient id="linearGradient4171" x1="27" x2="27" y1="1039.8" y2="1044.7" gradientTransform="matrix(.75 0 0 1 -38.25 -1434.9)" gradientUnits="userSpaceOnUse" xlink:href="#linearGradient3896"/>
  <linearGradient id="linearGradient4173" x1="27" x2="27" y1="1039.8" y2="1044.7" gradientTransform="matrix(.75 0 0 1 -56.25 -1434.9)" gradientUnits="userSpaceOnUse" xlink:href="#linearGradient3896"/>
  <radialGradient id="radialGradient4175" cx="27" cy="414" r="18.9" gradientTransform="matrix(1.0238 0 0 1 -.64286 0)" gradientUnits="userSpaceOnUse">
   <stop stop-color="#2c2c2c" stop-opacity=".51786" offset="0"/>
   <stop stop-color="#595959" stop-opacity=".41071" offset=".54476"/>
   <stop stop-color="#b3b3b3" stop-opacity=".24107" offset=".88627"/>
   <stop stop-opacity=".67857" offset="1"/>
  </radialGradient>
  <linearGradient id="linearGradient4177" x1="14.705" x2="28.538" y1="430.37" y2="394.3" gradientUnits="userSpaceOnUse">
   <stop stop-color="#fff" stop-opacity="0" offset="0"/>
   <stop stop-color="#fff" offset=".5"/>
   <stop stop-color="#fff" stop-opacity="0" offset="1"/>
  </linearGradient>
 </defs>
 <metadata>
  <rdf:RDF>
   <cc:Work rdf:about="">
    <dc:format>image/svg+xml</dc:format>
    <dc:type rdf:resource="http://purl.org/dc/dcmitype/StillImage"/>
    <dc:title/>
   </cc:Work>
  </rdf:RDF>
 </metadata>
 <g transform="translate(0,-387)">
  <g id="icon">
   <rect transform="translate(0 -602.36)" x="24.3" y="1044.3" width="5.4" height="4.5" fill="url(#linearGradient4129)"/>
   <rect transform="translate(0 -602.36)" x="33.3" y="1044.3" width="5.4" height="4.5" fill="url(#linearGradient4167)"/>
   <rect transform="translate(0 -602.36)" x="15.3" y="1044.3" width="5.4" height="4.5" fill="url(#linearGradient4169)"/>
   <rect transform="translate(0 -602.36)" x="3.6" y="997.46" width="46.8" height="46.8" rx="4.5" fill="url(#linearGradient3869)" fill-rule="evenodd" stroke="#000" stroke-width=".45"/>
   <path transform="translate(-1.9073e-7 4.5)" d="m13.95 429.75a2.7 2.7 0 1 1-5.4 0 2.7 2.7 0 1 1 5.4 0z" fill="#333"/>
   <path transform="translate(31.5 4.5)" d="m13.95 429.75a2.7 2.7 0 1 1-5.4 0 2.7 2.7 0 1 1 5.4 0z" fill="#333"/>
   <path transform="translate(-1.9073e-7 -27)" d="m13.95 429.75a2.7 2.7 0 1 1-5.4 0 2.7 2.7 0 1 1 5.4 0z" fill="#333"/>
   <path transform="translate(31.5 -27)" d="m13.95 429.75a2.7 2.7 0 1 1-5.4 0 2.7 2.7 0 1 1 5.4 0z" fill="#333"/>
   <rect transform="scale(-1)" x="-20.7" y="-395.1" width="5.4" height="4.5" fill="url(#linearGradient4171)"/>
   <rect transform="scale(-1)" x="-38.7" y="-395.1" width="5.4" height="4.5" fill="url(#linearGradient4173)"/>
   <rect id="connector5pin" transform="scale(-1)" x="-39.15" y="-394.65" width="6.3" height="6.3" fill="none"/>
   <rect id="connector4pin" transform="scale(-1)" x="-21.15" y="-394.65" width="6.3" height="6.3" fill="none"/>
   <path transform="translate(-1.9073e-7 4.5)" d="m53.1 414a26.1 26.1 0 1 1-52.2 0 26.1 26.1 0 1 1 52.2 0z"/>
   <path transform="translate(-1.9073e-7 4.5)" d="m53.1 414a26.1 26.1 0 1 1-52.2 0 26.1 26.1 0 1 1 52.2 0z" fill="url(#linearGradient4009)"/>
   <path transform="translate(-1.9073e-7 4.5)" d="m49.5 414a22.5 22.5 0 1 1-45 0 22.5 22.5 0 1 1 45 0z" fill="none" stroke="url(#linearGradient3944)" stroke-width="7.2"/>
   <rect id="connector1pin" x="14.85" y="442.35" width="6.3" height="6.3" fill="none"/>
   <rect id="connector2pin" x="23.85" y="442.35" width="6.3" height="6.3" fill="none"/>
   <rect x="23.85" y="442.35" width="6.3" height="6.3" fill="none"/>
   <rect id="connector3pin" x="32.85" y="442.35" width="6.3" height="6.3" fill="none"/>
   <path transform="matrix(.86603 .5 -.5 .86603 210.62 46.465)" d="m45.9 414a18.9 18.9 0 1 1-37.8 0 18.9 18.9 0 1 1 37.8 0z" fill="url(#radialGradient4175)"/>
   <path d="m37.344 400.58c-1.2914-0.74559-2.9256-0.3077-3.6712 0.98369l-10.035 13.944c-0.19838 0.22372-0.37898 0.46892-0.53431 0.73796-1.2426 2.1523-0.5052 4.9045 1.6471 6.1471 2.1523 1.2426 4.9045 0.5052 6.1471-1.6471 0.15533-0.26904 0.27738-0.54805 0.37194-0.83171l7.0584-15.663c0.74558-1.2914 0.3077-2.9256-0.98369-3.6712z" fill="#ccc"/>
   <path d="m34.666 401.62-10.784 15.078" fill="none" stroke="#fff" stroke-linecap="round" stroke-opacity=".42857" stroke-width=".45"/>
   <path transform="matrix(.86603 .5 -.5 .86603 210.62 46.465)" d="m15.401 427.17a17.55 17.55 0 0 1 8.1389-30.376" fill="none" stroke="url(#linearGradient4177)" stroke-linecap="round" stroke-opacity=".089947" stroke-width=".45"/>
  </g>
 </g>
</svg>
