<?xml version="1.0" encoding="UTF-8"?>
<!-- Created with Fritzing (http://www.fritzing.org/) -->
<svg width=".95in" height=".8in" baseProfile="tiny" version="1.2" viewBox="0 0 68.4 57.6" xmlns="http://www.w3.org/2000/svg">
 <desc>
  <referenceFile>MCP9600_breadboard.svg</referenceFile>
 </desc>
 <desc>Fritzing breadboard generated by brd2svg</desc>
 <g id="breadboard">
  <g id="icon">
   <path d="m68.4 7.2v43.2a7.2 7.2 0 0 1-7.2 7.2h-54a7.2 7.2 0 0 1-7.2-7.2v-43.2a7.2 7.2 0 0 1 7.2-7.2h54a7.2 7.2 0 0 1 7.2 7.2m-6.8173 43.2a1.4173 1.4173 0 1 0 2.8346 0 1.4173 1.4173 0 1 0-2.8346 0zm-7.2 0a1.4173 1.4173 0 1 0 2.8346 0 1.4173 1.4173 0 1 0-2.8346 0zm-7.2 0a1.4173 1.4173 0 1 0 2.8346 0 1.4173 1.4173 0 1 0-2.8346 0zm-7.2 0a1.4173 1.4173 0 1 0 2.8346 0 1.4173 1.4173 0 1 0-2.8346 0zm-7.2 0a1.4173 1.4173 0 1 0 2.8346 0 1.4173 1.4173 0 1 0-2.8346 0zm-7.2 0a1.4173 1.4173 0 1 0 2.8346 0 1.4173 1.4173 0 1 0-2.8346 0zm-7.2 0a1.4173 1.4173 0 1 0 2.8346 0 1.4173 1.4173 0 1 0-2.8346 0zm-7.2 0a1.4173 1.4173 0 1 0 2.8346 0 1.4173 1.4173 0 1 0-2.8346 0zm-7.2 0a1.4173 1.4173 0 1 0 2.8346 0 1.4173 1.4173 0 1 0-2.8346 0zm53.674-43.2a3.5433 3.5433 0 1 0 7.0866 0 3.5433 3.5433 0 1 0-7.0866 0zm-54 0a3.5433 3.5433 0 1 0 7.0866 0 3.5433 3.5433 0 1 0-7.0866 0zm24.024 3.6a1.4173 1.4173 0 1 0 2.8346 0 1.4173 1.4173 0 1 0-2.8346 0zm9.9213 0a1.4173 1.4173 0 1 0 2.8346 0 1.4173 1.4173 0 1 0-2.8346 0z" fill="#014cb1" stroke-width="0"/>
   <g>
    <title>layer 21</title>
    <g>
     <title>text:MCP9600 I2C
Thermocouple
K,J,T,N,S,E,B,R</title>
     <g transform="translate(10.67 28.08)">
      <g transform="rotate(270)">
       <g transform="translate(0 -3.3408)">
        <text fill="#ffffff" font-family="OCRA" font-size="3.3408" stroke-width="0" text-anchor="middle">MCP9600 I2C</text>
       </g>
       <g transform="translate(0)">
        <text fill="#ffffff" font-family="OCRA" font-size="3.3408" stroke-width="0" text-anchor="middle">Thermocouple</text>
       </g>
       <g transform="translate(0 3.3408)">
        <text fill="#ffffff" font-family="OCRA" font-size="3.3408" stroke-width="0" text-anchor="middle">K,J,T,N,S,E,B,R</text>
       </g>
      </g>
     </g>
    </g>
    <g>
     <title>text:VIN</title>
     <text x="5.76" y="47.3904" fill="#ffffff" font-family="OCRA" font-size="3.3408" stroke-width="0" text-anchor="middle">VIN</text>
    </g>
    <g>
     <title>text:GND</title>
     <text x="12.6" y="56.3904" fill="#ffffff" font-family="OCRA" font-size="3.3408" stroke-width="0" text-anchor="middle">GND</text>
    </g>
    <g>
     <title>text:SCL</title>
     <text x="19.8" y="47.3904" fill="#ffffff" font-family="OCRA" font-size="3.3408" stroke-width="0" text-anchor="middle">SCL</text>
    </g>
    <g>
     <title>text:SDA</title>
     <text x="27.36" y="56.3904" fill="#ffffff" font-family="OCRA" font-size="3.3408" stroke-width="0" text-anchor="middle">SDA</text>
    </g>
    <g>
     <title>text:ADR</title>
     <text x="63" y="47.7504" fill="#ffffff" font-family="OCRA" font-size="3.3408" stroke-width="0" text-anchor="middle">ADR</text>
    </g>
    <g>
     <title>text:A1</title>
     <text x="34.2" y="47.3904" fill="#ffffff" font-family="OCRA" font-size="3.3408" stroke-width="0" text-anchor="middle">A1</text>
    </g>
    <g>
     <title>text:A2</title>
     <text x="41.76" y="56.3904" fill="#ffffff" font-family="OCRA" font-size="3.3408" stroke-width="0" text-anchor="middle">A2</text>
    </g>
    <g>
     <title>text:A3</title>
     <text x="48.6" y="47.7504" fill="#ffffff" font-family="OCRA" font-size="3.3408" stroke-width="0" text-anchor="middle">A3</text>
    </g>
    <g>
     <title>text:A4</title>
     <text x="55.8" y="56.3904" fill="#ffffff" font-family="OCRA" font-size="3.3408" stroke-width="0" text-anchor="middle">A4</text>
    </g>
    <g>
     <title>text:43K</title>
     <text x="60.84" y="36.2304" fill="#ffffff" font-family="OCRA" font-size="3.3408" stroke-width="0">43K</text>
    </g>
    <g>
     <title>text:22K</title>
     <text x="60.84" y="41.9904" fill="#ffffff" font-family="OCRA" font-size="3.3408" stroke-width="0">22K</text>
    </g>
    <g>
     <title>text:Addr</title>
     <text x="42.84" y="31.1904" fill="#ffffff" font-family="OCRA" font-size="3.3408" stroke-width="0">Addr</text>
    </g>
    <g>
     <title>text:</title>
    </g>
    <g>
     <title>element:C1</title>
     <g>
      <title>package:0603-NO</title>
      <line x1="34.2" x2="34.2" y1="24.174" y2="21.906" stroke="#fff" stroke-linecap="round" stroke-width=".864"/>
     </g>
    </g>
    <g>
     <title>element:FB1</title>
     <g>
      <title>package:0805-NO</title>
      <line x1="20.16" x2="17.28" y1="10.8" y2="10.8" stroke="#fff" stroke-linecap="round" stroke-width=".864"/>
     </g>
    </g>
    <g>
     <title>element:FB2</title>
     <g>
      <title>package:0805-NO</title>
      <line x1="50.4" x2="47.52" y1="10.8" y2="10.8" stroke="#fff" stroke-linecap="round" stroke-width=".864"/>
     </g>
    </g>
    <g>
     <title>element:FID1</title>
     <g>
      <title>package:FIDUCIAL_1MM</title>
     </g>
    </g>
    <g>
     <title>element:FID2</title>
     <g>
      <title>package:FIDUCIAL_1MM</title>
     </g>
    </g>
    <g>
     <title>element:JP3</title>
     <g>
      <title>package:1X09_ROUND_70</title>
     </g>
    </g>
    <g>
     <title>element:R1</title>
     <g>
      <title>package:0603-NO</title>
      <line x1="22.266" x2="24.534" y1="37.08" y2="37.08" stroke="#fff" stroke-linecap="round" stroke-width=".864"/>
     </g>
    </g>
    <g>
     <title>element:R2</title>
     <g>
      <title>package:0603-NO</title>
      <line x1="17.586" x2="19.854" y1="37.08" y2="37.08" stroke="#fff" stroke-linecap="round" stroke-width=".864"/>
     </g>
    </g>
    <g>
     <title>element:R3</title>
     <g>
      <title>package:0603-NO</title>
      <line x1="56.52" x2="56.52" y1="29.106" y2="31.374" stroke="#fff" stroke-linecap="round" stroke-width=".864"/>
     </g>
    </g>
    <g>
     <title>element:R4</title>
     <g>
      <title>package:0603-NO</title>
      <line x1="56.52" x2="56.52" y1="39.186" y2="41.454" stroke="#fff" stroke-linecap="round" stroke-width=".864"/>
     </g>
    </g>
    <g>
     <title>element:R5</title>
     <g>
      <title>package:0603-NO</title>
      <line x1="50.094" x2="47.826" y1="20.16" y2="20.16" stroke="#fff" stroke-linecap="round" stroke-width=".864"/>
     </g>
    </g>
    <g>
     <title>element:R6</title>
     <g>
      <title>package:0603-NO</title>
      <line x1="19.854" x2="17.586" y1="20.16" y2="20.16" stroke="#fff" stroke-linecap="round" stroke-width=".864"/>
     </g>
    </g>
    <g>
     <title>element:R7</title>
     <g>
      <title>package:0603-NO</title>
      <line x1="56.52" x2="56.52" y1="33.426" y2="35.694" stroke="#fff" stroke-linecap="round" stroke-width=".864"/>
     </g>
    </g>
    <g>
     <title>element:SJ1</title>
     <g>
      <title>package:SOLDERJUMPER_ARROW_NOPASTE</title>
      <line x1="51.48" x2="43.56" y1="37.44" y2="37.44" stroke="#fff" stroke-linecap="round" stroke-width=".576"/>
      <path d="m52.2 32.4a0.72 0.72 0 0 0-0.72-0.72" fill="none" stroke="#fff" stroke-width=".576"/>
      <path d="m43.56 31.68a0.72 0.72 0 0 0-0.72 0.72" fill="none" stroke="#fff" stroke-width=".576"/>
      <path d="m42.84 36.72a0.72 0.72 0 0 0 0.72 0.72" fill="none" stroke="#fff" stroke-width=".576"/>
      <path d="m51.48 37.44a0.72 0.72 0 0 0 0.72-0.72" fill="none" stroke="#fff" stroke-width=".576"/>
      <line x1="52.2" x2="52.2" y1="36.72" y2="32.4" stroke="#fff" stroke-linecap="round" stroke-width=".576"/>
      <line x1="42.84" x2="42.84" y1="36.72" y2="32.4" stroke="#fff" stroke-linecap="round" stroke-width=".576"/>
      <line x1="43.56" x2="51.48" y1="31.68" y2="31.68" stroke="#fff" stroke-linecap="round" stroke-width=".576"/>
     </g>
    </g>
    <g>
     <title>element:SJ2</title>
     <g>
      <title>package:SOLDERJUMPER_ARROW_NOPASTE</title>
      <line x1="51.48" x2="43.56" y1="43.2" y2="43.2" stroke="#fff" stroke-linecap="round" stroke-width=".576"/>
      <path d="m52.2 38.16a0.72 0.72 0 0 0-0.72-0.72" fill="none" stroke="#fff" stroke-width=".576"/>
      <path d="m43.56 37.44a0.72 0.72 0 0 0-0.72 0.72" fill="none" stroke="#fff" stroke-width=".576"/>
      <path d="m42.84 42.48a0.72 0.72 0 0 0 0.72 0.72" fill="none" stroke="#fff" stroke-width=".576"/>
      <path d="m51.48 43.2a0.72 0.72 0 0 0 0.72-0.72" fill="none" stroke="#fff" stroke-width=".576"/>
      <line x1="52.2" x2="52.2" y1="42.48" y2="38.16" stroke="#fff" stroke-linecap="round" stroke-width=".576"/>
      <line x1="42.84" x2="42.84" y1="42.48" y2="38.16" stroke="#fff" stroke-linecap="round" stroke-width=".576"/>
      <line x1="43.56" x2="51.48" y1="37.44" y2="37.44" stroke="#fff" stroke-linecap="round" stroke-width=".576"/>
     </g>
    </g>
    <g>
     <title>element:U$1</title>
     <g>
      <title>package:MOUNTINGHOLE_2.5_PLATED</title>
      <circle cx="61.2" cy="7.2" r="5.6693" fill="none" stroke="#fff" stroke-width=".576"/>
     </g>
    </g>
    <g>
     <title>element:U$3</title>
     <g>
      <title>package:MOUNTINGHOLE_2.5_PLATED</title>
      <circle cx="7.2" cy="7.2" r="5.6693" fill="none" stroke="#fff" stroke-width=".576"/>
     </g>
    </g>
    <g>
     <title>element:U$16</title>
     <g>
      <title>package:ADAFRUIT_3.5MM</title>
     </g>
    </g>
    <g>
     <title>element:U$17</title>
     <g>
      <title>package:SYMBOL_PLUS</title>
      <line x1="50.085" x2="47.835" y1="3.24" y2="3.24" stroke="#fff" stroke-linecap="round" stroke-width=".864"/>
      <line x1="48.96" x2="48.96" y1="2.1152" y2="4.3648" stroke="#fff" stroke-linecap="round" stroke-width=".864"/>
      <circle cx="48.96" cy="3.24" r="2.2158" fill="none" stroke="#fff" stroke-width=".576"/>
     </g>
    </g>
    <g>
     <title>element:U$18</title>
     <g>
      <title>package:SYMBOL_MINUS</title>
      <line x1="19.845" x2="17.595" y1="3.24" y2="3.24" stroke="#fff" stroke-linecap="round" stroke-width=".864"/>
      <circle cx="18.72" cy="3.24" r="2.2158" fill="none" stroke="#fff" stroke-width=".576"/>
     </g>
    </g>
    <g>
     <title>element:U$19</title>
     <g>
      <title>package:ADAFRUIT_3.5MM</title>
     </g>
    </g>
    <g>
     <title>element:U$20</title>
     <g>
      <title>package:ADAFRUIT_3.5MM</title>
     </g>
    </g>
    <g>
     <title>element:U$21</title>
     <g>
      <title>package:PCBFEAT-REV-040</title>
     </g>
    </g>
    <g>
     <title>element:U1</title>
     <g>
      <title>package:VQFN20_5MM</title>
      <line x1="41.57" x2="41.57" y1="28.681" y2="26.47" stroke="#fff" stroke-linecap="round" stroke-width=".36"/>
      <line x1="41.57" x2="39.359" y1="26.47" y2="26.47" stroke="#fff" stroke-linecap="round" stroke-width=".36"/>
      <line x1="41.57" x2="41.57" y1="38.999" y2="41.21" stroke="#fff" stroke-linecap="round" stroke-width=".36"/>
      <line x1="41.57" x2="39.359" y1="41.21" y2="41.21" stroke="#fff" stroke-linecap="round" stroke-width=".36"/>
      <line x1="26.83" x2="26.83" y1="28.681" y2="26.47" stroke="#fff" stroke-linecap="round" stroke-width=".36"/>
      <line x1="26.83" x2="29.041" y1="26.47" y2="26.47" stroke="#fff" stroke-linecap="round" stroke-width=".36"/>
      <line x1="29.041" x2="26.83" y1="41.21" y2="41.21" stroke="#fff" stroke-linecap="round" stroke-width=".36"/>
      <line x1="26.83" x2="26.83" y1="41.21" y2="38.999" stroke="#fff" stroke-linecap="round" stroke-width=".36"/>
      <circle cx="40.549" cy="27.435" r=".56693" fill="none" stroke="#fff" stroke-width="1.152"/>
     </g>
    </g>
    <g>
     <title>element:X1</title>
     <g>
      <title>package:TERMBLOCK_1X2-3.5MM</title>
      <line x1="43.838" x2="43.838" y1="20.438" y2="4.5638" stroke="#fff" stroke-linecap="round" stroke-width=".576"/>
      <line x1="43.838" x2="43.838" y1="4.5638" y2=".59528" stroke="#fff" stroke-linecap="round" stroke-width=".576"/>
      <line x1="43.838" x2="23.995" y1=".59528" y2=".59528" stroke="#fff" stroke-linecap="round" stroke-width=".576"/>
      <line x1="23.995" x2="23.995" y1=".59528" y2="4.5638" stroke="#fff" stroke-linecap="round" stroke-width=".576"/>
      <line x1="23.995" x2="23.995" y1="4.5638" y2="20.438" stroke="#fff" stroke-linecap="round" stroke-width=".576"/>
      <line x1="23.995" x2="43.838" y1="20.438" y2="20.438" stroke="#fff" stroke-linecap="round" stroke-width=".576"/>
      <line x1="43.838" x2="23.995" y1="4.5638" y2="4.5638" stroke="#fff" stroke-linecap="round" stroke-width=".576"/>
     </g>
    </g>
   </g>
   <g transform="matrix(-1 0 0 -1 73.219 46.08)">
    <rect id="connector5pin" x="35.086" y="21.623" width="3.0472" height="2.8346" fill="#9A916C" stroke-width="0"/>
   </g>
   <g transform="matrix(-1 0 0 -1 63.581 46.08)">
    <rect id="connector6pin" x="30.267" y="21.623" width="3.0472" height="2.8346" fill="#9A916C" stroke-width="0"/>
   </g>
   <g transform="matrix(0 1 -1 0 26.827 -10.613)">
    <rect id="connector7pin" x="16.963" y="5.9811" width="3.515" height="4.252" fill="#9A916C" stroke-width="0"/>
   </g>
   <g transform="matrix(0 1 -1 0 32.213 -5.2271)">
    <rect id="connector8pin" x="16.963" y="11.367" width="3.515" height="4.252" fill="#9A916C" stroke-width="0"/>
   </g>
   <g transform="matrix(0 1 -1 0 57.067 -40.853)">
    <rect id="connector9pin" x="47.203" y="5.9811" width="3.515" height="4.252" fill="#9A916C" stroke-width="0"/>
   </g>
   <g transform="matrix(0 1 -1 0 62.453 -35.467)">
    <rect id="connector10pin" x="47.203" y="11.367" width="3.515" height="4.252" fill="#9A916C" stroke-width="0"/>
   </g>
   <g transform="matrix(-1 0 0 -1 130.32 30.24)">
    <rect id="connector11pin" x="63.743" y="13.703" width="2.8346" height="2.8346" rx="1.4173" ry="1.4173" fill="#9A916C" stroke-width="0"/>
   </g>
   <g transform="matrix(-1 0 0 -1 38.88 59.76)">
    <rect id="connector12pin" x="18.023" y="28.463" width="2.8346" height="2.8346" rx="1.4173" ry="1.4173" fill="#9A916C" stroke-width="0"/>
   </g>
   <circle id="connector13pin" cx="63" cy="50.4" r="1.9687" fill="none" stroke="#9A916C" stroke-width="1.1027" connectorname="ADDR"/>
   <circle id="connector14pin" cx="55.8" cy="50.4" r="1.9687" fill="none" stroke="#9A916C" stroke-width="1.1027" connectorname="ALERT4"/>
   <circle id="connector15pin" cx="48.6" cy="50.4" r="1.9687" fill="none" stroke="#9A916C" stroke-width="1.1027" connectorname="ALERT3"/>
   <circle id="connector16pin" cx="41.4" cy="50.4" r="1.9687" fill="none" stroke="#9A916C" stroke-width="1.1027" connectorname="ALERT2"/>
   <circle id="connector17pin" cx="34.2" cy="50.4" r="1.9687" fill="none" stroke="#9A916C" stroke-width="1.1027" connectorname="ALERT1"/>
   <circle id="connector18pin" cx="27" cy="50.4" r="1.9687" fill="none" stroke="#9A916C" stroke-width="1.1027" connectorname="SDA"/>
   <circle id="connector19pin" cx="19.8" cy="50.4" r="1.9687" fill="none" stroke="#9A916C" stroke-width="1.1027" connectorname="SCL"/>
   <circle id="connector20pin" cx="12.6" cy="50.4" r="1.9687" fill="none" stroke="#9A916C" stroke-width="1.1027" connectorname="GND"/>
   <circle id="connector21pin" cx="5.4" cy="50.4" r="1.9687" fill="none" stroke="#9A916C" stroke-width="1.1027" connectorname="VIN"/>
   <g transform="matrix(0 -1 1 0 -16.09 62.89)">
    <rect id="connector22pin" x="21.876" y="38.072" width="3.0472" height="2.8346" fill="#9A916C" stroke-width="0"/>
   </g>
   <g transform="matrix(0 -1 1 0 -11.27 58.07)">
    <rect id="connector23pin" x="21.876" y="33.253" width="3.0472" height="2.8346" fill="#9A916C" stroke-width="0"/>
   </g>
   <g transform="matrix(0 -1 1 0 -20.77 58.21)">
    <rect id="connector24pin" x="17.196" y="38.072" width="3.0472" height="2.8346" fill="#9A916C" stroke-width="0"/>
   </g>
   <g transform="matrix(0 -1 1 0 -15.95 53.39)">
    <rect id="connector25pin" x="17.196" y="33.253" width="3.0472" height="2.8346" fill="#9A916C" stroke-width="0"/>
   </g>
   <rect id="connector26pin" x="52.587" y="28.823" width="3.0472" height="2.8346" fill="#9A916C" stroke-width="0"/>
   <rect id="connector27pin" x="57.406" y="28.823" width="3.0472" height="2.8346" fill="#9A916C" stroke-width="0"/>
   <rect id="connector28pin" x="52.587" y="38.903" width="3.0472" height="2.8346" fill="#9A916C" stroke-width="0"/>
   <rect id="connector29pin" x="57.406" y="38.903" width="3.0472" height="2.8346" fill="#9A916C" stroke-width="0"/>
   <g transform="matrix(0 1 -1 0 66.71 -31.21)">
    <rect id="connector30pin" x="47.436" y="16.333" width="3.0472" height="2.8346" fill="#9A916C" stroke-width="0"/>
   </g>
   <g transform="matrix(0 1 -1 0 71.53 -26.39)">
    <rect id="connector31pin" x="47.436" y="21.152" width="3.0472" height="2.8346" fill="#9A916C" stroke-width="0"/>
   </g>
   <g transform="matrix(0 1 -1 0 36.47 -.96945)">
    <rect id="connector32pin" x="17.196" y="16.333" width="3.0472" height="2.8346" fill="#9A916C" stroke-width="0"/>
   </g>
   <g transform="matrix(0 1 -1 0 41.29 3.8494)">
    <rect id="connector33pin" x="17.196" y="21.152" width="3.0472" height="2.8346" fill="#9A916C" stroke-width="0"/>
   </g>
   <rect id="connector34pin" x="52.587" y="33.143" width="3.0472" height="2.8346" fill="#9A916C" stroke-width="0"/>
   <rect id="connector35pin" x="57.406" y="33.143" width="3.0472" height="2.8346" fill="#9A916C" stroke-width="0"/>
   <rect id="connector36pin" x="43.56" y="32.4" width="2.16" height="4.32" rx=".54" ry=".54" fill="#9A916C" stroke-width="0"/>
   <rect id="connector37pin" x="49.32" y="32.4" width="2.16" height="4.32" rx=".54" ry=".54" fill="#9A916C" stroke-width="0"/>
   <rect id="connector38pin" x="43.56" y="38.16" width="2.16" height="4.32" rx=".54" ry=".54" fill="#9A916C" stroke-width="0"/>
   <rect id="connector39pin" x="49.32" y="38.16" width="2.16" height="4.32" rx=".54" ry=".54" fill="#9A916C" stroke-width="0"/>
   <circle id="connector40pin" cx="61.2" cy="7.2" r="4.2633" fill="none" stroke="#9A916C" stroke-width="1.44" connectorname="P$1"/>
   <circle id="connector41pin" cx="7.2" cy="7.2" r="4.2633" fill="none" stroke="#9A916C" stroke-width="1.44" connectorname="P$1"/>
   <g transform="matrix(0 1 -1 0 65.064 -10.706)">
    <rect id="connector42pin" x="36.822" y="26.612" width="2.126" height="1.1339" fill="#9A916C" stroke-width="0"/>
   </g>
   <g transform="matrix(0 1 -1 0 63.221 -8.8639)">
    <rect id="connector43pin" x="34.98" y="26.612" width="2.126" height="1.1339" fill="#9A916C" stroke-width="0"/>
   </g>
   <g transform="matrix(0 1 -1 0 61.379 -7.0214)">
    <rect id="connector44pin" x="33.137" y="26.612" width="2.126" height="1.1339" fill="#9A916C" stroke-width="0"/>
   </g>
   <g transform="matrix(0 1 -1 0 59.536 -5.1789)">
    <rect id="connector45pin" x="31.294" y="26.612" width="2.126" height="1.1339" fill="#9A916C" stroke-width="0"/>
   </g>
   <g transform="matrix(0 1 -1 0 57.694 -3.3364)">
    <rect id="connector46pin" x="29.452" y="26.612" width="2.126" height="1.1339" fill="#9A916C" stroke-width="0"/>
   </g>
   <rect id="connector47pin" x="26.476" y="29.588" width="2.126" height="1.1339" fill="#9A916C" stroke-width="0"/>
   <rect id="connector48pin" x="26.476" y="31.43" width="2.126" height="1.1339" fill="#9A916C" stroke-width="0"/>
   <rect id="connector49pin" x="26.476" y="33.273" width="2.126" height="1.1339" fill="#9A916C" stroke-width="0"/>
   <rect id="connector50pin" x="26.476" y="35.116" width="2.126" height="1.1339" fill="#9A916C" stroke-width="0"/>
   <rect id="connector51pin" x="26.476" y="36.958" width="2.126" height="1.1339" fill="#9A916C" stroke-width="0"/>
   <g transform="matrix(0 -1 1 0 -9.9865 71.016)">
    <rect id="connector52pin" x="29.452" y="39.934" width="2.126" height="1.1339" fill="#9A916C" stroke-width="0"/>
   </g>
   <g transform="matrix(0 -1 1 0 -8.1439 72.859)">
    <rect id="connector53pin" x="31.294" y="39.934" width="2.126" height="1.1339" fill="#9A916C" stroke-width="0"/>
   </g>
   <g transform="matrix(0 -1 1 0 -6.3014 74.701)">
    <rect id="connector54pin" x="33.137" y="39.934" width="2.126" height="1.1339" fill="#9A916C" stroke-width="0"/>
   </g>
   <g transform="matrix(0 -1 1 0 -4.4589 76.544)">
    <rect id="connector55pin" x="34.98" y="39.934" width="2.126" height="1.1339" fill="#9A916C" stroke-width="0"/>
   </g>
   <g transform="matrix(0 -1 1 0 -2.6164 78.386)">
    <rect id="connector56pin" x="36.822" y="39.934" width="2.126" height="1.1339" fill="#9A916C" stroke-width="0"/>
   </g>
   <g transform="matrix(-1 0 0 -1 81.723 75.05)">
    <rect id="connector57pin" x="39.798" y="36.958" width="2.126" height="1.1339" fill="#9A916C" stroke-width="0"/>
   </g>
   <g transform="matrix(-1 0 0 -1 81.723 71.365)">
    <rect id="connector58pin" x="39.798" y="35.116" width="2.126" height="1.1339" fill="#9A916C" stroke-width="0"/>
   </g>
   <g transform="matrix(-1 0 0 -1 81.723 67.68)">
    <rect id="connector59pin" x="39.798" y="33.273" width="2.126" height="1.1339" fill="#9A916C" stroke-width="0"/>
   </g>
   <g transform="matrix(-1 0 0 -1 81.723 63.995)">
    <rect id="connector60pin" x="39.798" y="31.43" width="2.126" height="1.1339" fill="#9A916C" stroke-width="0"/>
   </g>
   <g transform="matrix(-1 0 0 -1 81.723 60.31)">
    <rect id="connector61pin" x="39.798" y="29.588" width="2.126" height="1.1339" fill="#9A916C" stroke-width="0"/>
   </g>
   <g transform="matrix(0 1 -1 0 68.04 -.36)">
    <rect id="connector62pin" x="29.452" y="29.092" width="9.4961" height="9.4961" fill="#9A916C" stroke-width="0"/>
   </g>
   <circle id="connector63pin" cx="29.098" cy="10.8" r="2.2567" fill="none" stroke="#9A916C" stroke-width="1.6787" connectorname="-"/>
   <circle id="connector64pin" cx="39.019" cy="10.8" r="2.2567" fill="none" stroke="#9A916C" stroke-width="1.6787" connectorname="+"/>
  </g>
  <g transform="translate(31.932 21.906)">
   <g transform="matrix(-1 0 0 -1 4.535 2.268)">
    <path d="m4.245 2.268h-3.955c-0.16 0-0.29-0.13-0.29-0.291v-1.687c0-0.16 0.13-0.29 0.29-0.29h3.955c0.16 0 0.29 0.13 0.29 0.29v1.687c0 0.161-0.13 0.291-0.29 0.291z" fill="#DCDCDC"/>
    <rect x="1.134" width="2.268" height="2.268" fill="#6E554B"/>
   </g>
  </g>
  <g transform="translate(15.886 9.0285)">
   <g id="0805-no">
    <g transform="matrix(0 1 -1 0 4.606 -1.063)">
     <path d="m5.386 3.543h-5.103c-0.156 0-0.283-0.127-0.283-0.283v-2.977c0-0.156 0.127-0.283 0.283-0.283h5.102c0.157 0 0.283 0.127 0.283 0.283v2.977c1e-3 0.156-0.126 0.283-0.282 0.283z" fill="#DCDCDC"/>
     <rect x="1.063" width="3.543" height="3.543" fill="#333"/>
    </g>
   </g>
  </g>
  <g transform="translate(46.126 9.0285)">
   <g transform="matrix(0 1 -1 0 4.606 -1.063)">
    <path d="m5.386 3.543h-5.103c-0.156 0-0.283-0.127-0.283-0.283v-2.977c0-0.156 0.127-0.283 0.283-0.283h5.102c0.157 0 0.283 0.127 0.283 0.283v2.977c1e-3 0.156-0.126 0.283-0.282 0.283z" fill="#DCDCDC"/>
    <rect x="1.063" width="3.543" height="3.543" fill="#333"/>
   </g>
  </g>
  <g transform="translate(21.132 35.946)">
   <g id="0603-res">
    <g transform="matrix(0 -1 1 0 1.1335 3.4015)">
     <path d="m4.245 2.268h-3.955c-0.16 0-0.29-0.13-0.29-0.291v-1.687c0-0.16 0.13-0.29 0.29-0.29h3.955c0.16 0 0.29 0.13 0.29 0.29v1.687c0 0.161-0.13 0.291-0.29 0.291z" fill="#DCDCDC"/>
     <rect x="1.134" width="2.268" height="2.268" fill="#333"/>
    </g>
   </g>
  </g>
  <g transform="translate(16.452 35.946)">
   <g id="0603-res">
    <g transform="matrix(0 -1 1 0 1.1335 3.4015)">
     <path d="m4.245 2.268h-3.955c-0.16 0-0.29-0.13-0.29-0.291v-1.687c0-0.16 0.13-0.29 0.29-0.29h3.955c0.16 0 0.29 0.13 0.29 0.29v1.687c0 0.161-0.13 0.291-0.29 0.291z" fill="#DCDCDC"/>
     <rect x="1.134" width="2.268" height="2.268" fill="#333"/>
    </g>
   </g>
  </g>
  <g transform="translate(54.252 29.106)">
   <g id="0603-res">
    <path d="m4.245 2.268h-3.955c-0.16 0-0.29-0.13-0.29-0.291v-1.687c0-0.16 0.13-0.29 0.29-0.29h3.955c0.16 0 0.29 0.13 0.29 0.29v1.687c0 0.161-0.13 0.291-0.29 0.291z" fill="#DCDCDC"/>
    <rect x="1.134" width="2.268" height="2.268" fill="#333"/>
   </g>
  </g>
  <g transform="translate(54.252 39.186)">
   <g id="0603-res">
    <path d="m4.245 2.268h-3.955c-0.16 0-0.29-0.13-0.29-0.291v-1.687c0-0.16 0.13-0.29 0.29-0.29h3.955c0.16 0 0.29 0.13 0.29 0.29v1.687c0 0.161-0.13 0.291-0.29 0.291z" fill="#DCDCDC"/>
    <rect x="1.134" width="2.268" height="2.268" fill="#333"/>
   </g>
  </g>
  <g transform="translate(46.692 19.026)">
   <g id="0603-res">
    <g transform="matrix(0 1 -1 0 3.4015 -1.1335)">
     <path d="m4.245 2.268h-3.955c-0.16 0-0.29-0.13-0.29-0.291v-1.687c0-0.16 0.13-0.29 0.29-0.29h3.955c0.16 0 0.29 0.13 0.29 0.29v1.687c0 0.161-0.13 0.291-0.29 0.291z" fill="#DCDCDC"/>
     <rect x="1.134" width="2.268" height="2.268" fill="#333"/>
    </g>
   </g>
  </g>
  <g transform="translate(16.452 19.026)">
   <g id="0603-res">
    <g transform="matrix(0 1 -1 0 3.4015 -1.1335)">
     <path d="m4.245 2.268h-3.955c-0.16 0-0.29-0.13-0.29-0.291v-1.687c0-0.16 0.13-0.29 0.29-0.29h3.955c0.16 0 0.29 0.13 0.29 0.29v1.687c0 0.161-0.13 0.291-0.29 0.291z" fill="#DCDCDC"/>
     <rect x="1.134" width="2.268" height="2.268" fill="#333"/>
    </g>
   </g>
  </g>
  <g transform="translate(54.252 33.426)">
   <path d="m4.245 2.268h-3.955c-0.16 0-0.29-0.13-0.29-0.291v-1.687c0-0.16 0.13-0.29 0.29-0.29h3.955c0.16 0 0.29 0.13 0.29 0.29v1.687c0 0.161-0.13 0.291-0.29 0.291z" fill="#DCDCDC"/>
   <rect x="1.134" width="2.268" height="2.268" fill="#333"/>
  </g>
  <g transform="translate(52.688 16.014)">
   <path d="m9.773 4.306c-0.032-0.2-0.141-0.257-0.403-0.341-0.19899-0.064-1.533-0.489-1.533-0.489s-0.93-0.351-1.619 0.146c-0.09298 0.066-0.18898 0.143-0.28598 0.224 0.082-0.097 0.158-0.193 0.224-0.286 0.495-0.69 0.143-1.619 0.143-1.619s-0.427-1.334-0.492-1.533c-0.085-0.262-0.142-0.37-0.342-0.402s-0.288 0.054-0.449 0.277c-0.122 0.17-0.939 1.307-0.939 1.307s-0.621 0.777-0.361 1.586c0.034 0.109 0.077 0.224 0.125 0.341-0.067-0.108-0.135-0.209-0.203-0.302-0.503-0.684-1.496-0.636-1.496-0.636s-1.4-6e-3 -1.61-6e-3c-0.275-1e-3 -0.396 0.02-0.488 0.201-0.091 0.181-0.037 0.291 0.126 0.513 0.124 0.169 0.953 1.297 0.953 1.297s0.546 0.83 1.395 0.834c0.114 0 0.236-5e-3 0.362-0.014-0.122 0.03-0.24 0.064-0.348 0.1-0.806 0.267-1.067 1.226-1.067 1.226s-0.438 1.33-0.503 1.529c-0.085997 0.261-0.103 0.38304 0.040001 0.52603 0.144 0.143 0.265 0.126 0.526 0.04 0.199-0.06499 1.528-0.50599 1.528-0.50599s0.958-0.263 1.224-1.07c0.036-0.108 0.069-0.225 0.1-0.348-9e-3 0.12598-0.014 0.24798-0.013 0.36198 5e-3 0.849 0.836 1.394 0.836 1.394s1.13 0.827 1.298 0.951c0.223 0.16197 0.333 0.21597 0.514 0.12402 0.181-0.092 0.201-0.213 0.2-0.488-1e-3 -0.21-9e-3 -1.61-9e-3 -1.61s0.047-0.993-0.639-1.495c-0.092-0.06702-0.194-0.13502-0.301-0.20202 0.117 0.047 0.232 0.09 0.34 0.124 0.81 0.258 1.584-0.364 1.584-0.364s1.136-0.819 1.306-0.941c0.22299-0.161 0.30903-0.249 0.27699-0.45zm-4.822-1.031c0.152 0.024 0.228 0.349 0.169 0.726s-0.231 0.662-0.384 0.638-0.229-0.349-0.169-0.725c0.059-0.377 0.231-0.663 0.384-0.639zm-1.956 0.999c0.07-0.138 0.402-0.11 0.742 0.063 0.34 0.173 0.558 0.425 0.488 0.563s-0.402 0.11-0.742-0.063-0.558-0.425-0.488-0.563zm1.031 1.878c-0.269 0.27-0.577 0.4-0.686 0.291s0.02-0.416 0.29-0.686c0.269-0.27 0.576-0.4 0.686-0.291 0.109 0.109-0.021 0.416-0.29 0.686zm1.484 0.633c-0.138 0.07-0.39-0.148-0.563-0.487-0.174-0.34-0.203-0.673-0.065-0.743s0.39 0.148 0.563 0.487c0.173 0.34 0.202 0.672 0.065 0.743zm0.357-1.573c-0.377 0.06-0.701-0.015-0.726-0.168-0.024-0.153 0.262-0.325 0.638-0.385 0.377-0.06 0.701 0.015 0.726 0.168 0.024002 0.153-0.261 0.325-0.638 0.385z" fill="#DCDCDC"/>
  </g>
  <g transform="translate(27.113 26.753)">
   <g transform="matrix(0 1 -1 0 14.173 0)">
    <metadata>
     <rdf:RDF xmlns:rdf="http://www.w3.org/1999/02/22-rdf-syntax-ns#">
      <cc:Work rdf:about="" xmlns:cc="http://creativecommons.org/ns#" xmlns:rdf="http://www.w3.org/1999/02/22-rdf-syntax-ns#">
       <dc:format xmlns:dc="http://purl.org/dc/elements/1.1/">image/svg+xml</dc:format>
       <dc:type rdf:resource="http://purl.org/dc/dcmitype/StillImage" xmlns:dc="http://purl.org/dc/elements/1.1/" xmlns:rdf="http://www.w3.org/1999/02/22-rdf-syntax-ns#"/>
       <dc:title xmlns:dc="http://purl.org/dc/elements/1.1/"/>
      </cc:Work>
     </rdf:RDF>
    </metadata>
    <g transform="scale(1.25)">
     <rect id="rect3" y="-5.2915e-7" width="11.339" height="11.339" rx=".56693" ry=".56693" fill="#333"/>
     <circle cx="1.2684" cy="1.3208" r=".53812" fill="#666"/>
    </g>
   </g>
  </g>
  <g transform="translate(22.861 .59526)">
   <g transform="matrix(-1 0 0 -1 22.11 19.843)">
    <metadata>
     <rdf:RDF xmlns:rdf="http://www.w3.org/1999/02/22-rdf-syntax-ns#">
      <cc:Work rdf:about="" xmlns:cc="http://creativecommons.org/ns#" xmlns:rdf="http://www.w3.org/1999/02/22-rdf-syntax-ns#">
       <dc:format xmlns:dc="http://purl.org/dc/elements/1.1/">image/svg+xml</dc:format>
       <dc:type rdf:resource="http://purl.org/dc/dcmitype/StillImage" xmlns:dc="http://purl.org/dc/elements/1.1/" xmlns:rdf="http://www.w3.org/1999/02/22-rdf-syntax-ns#"/>
       <dc:title xmlns:dc="http://purl.org/dc/elements/1.1/"/>
      </cc:Work>
     </rdf:RDF>
    </metadata>
    <rect x="18.709" y="12.189" width="2.2679" height="5.1019"/>
    <rect x="19.843" y="1.134" width="2.2679" height="2.2679"/>
    <g transform="scale(1.25)">
     <polygon points="16.781 0 0.9072 0 0.9072 10.885 0 10.885 0 12.699 0.9072 12.699 0.9072 14.74 16.781 14.74 16.781 12.699 15.874 12.699 15.874 10.885 16.781 10.885" fill="#333"/>
    </g>
    <circle cx="6.0948" cy="9.9207" r="3.6849" fill="#b4b4b4"/>
    <circle cx="16.016" cy="9.9207" r="3.6849" fill="#b4b4b4"/>
    <rect x="2.5509" y="1.417" width="7.3698" height="2.8349"/>
    <rect x="11.339" y="1.417" width="7.3698" height="2.8349"/>
    <g transform="scale(1.25)">
     <polygon points="0.9072 15.874 3.7416 15.874 3.7416 14.471 6.0096 14.471 6.0096 15.874 11.678 15.874 11.678 14.471 13.946 14.471 13.946 15.874 16.781 15.874 16.781 13.606 0.9072 13.606"/>
    </g>
    <rect x="1.843" y="17.805" width="8.5038" height="1.701" fill="#8c8c8c"/>
    <rect x="11.764" y="17.805" width="8.5038" height="1.701" fill="#8c8c8c"/>
    <path d="m6.1818 6.9628-1.643 0.43999 0.51399 1.917-2.6329 0.70598c0.0080032 0.28199 0.038999 0.56499 0.115 0.84898 0.075998 0.28399 0.191 0.54499 0.32499 0.79298l2.6329-0.70598 0.51399 1.917 1.643-0.43999-0.51399-1.917 2.6329-0.70598c-0.008024-0.28099-0.038992-0.56498-0.115-0.84798-0.076-0.28299-0.191-0.54599-0.32499-0.79398l-2.6329 0.70595-0.51398-1.9169z" fill="#646464" connector-curvature="0"/>
    <path d="m13.498 8.3658-0.43999 1.643 1.917 0.51399-0.70598 2.6329c0.24799 0.134 0.50899 0.24899 0.79298 0.32499 0.28399 0.076 0.56799 0.107 0.84898 0.115l0.70598-2.6329 1.917 0.51399 0.43999-1.643-1.917-0.51399 0.70598-2.6329c-0.24799-0.13402-0.50899-0.24902-0.79299-0.32501-0.284-0.07601-0.568-0.107-0.849-0.115l-0.707 2.6329-1.9159-0.51394z" fill="#646464" connector-curvature="0"/>
   </g>
  </g>
 </g>
</svg>
