<?xml version="1.0" encoding="UTF-8"?>
<!-- Created with Fritzing (http://www.fritzing.org/) -->
<svg width=".4in" height=".75in" baseProfile="tiny" version="1.2" viewBox="0 0 28.8 54" xmlns="http://www.w3.org/2000/svg">
 <desc>
  <referenceFile>Adafruit GUVA-S12SD UV Light Sensor_breadboard.svg</referenceFile>
 </desc>
 <desc>Fritzing breadboard generated by brd2svg</desc>
 <g id="breadboard">
  <g id="icon">
   <path d="m7.2 54a7.2 7.2 0 0 1-7.2-7.2v-39.6a7.2 7.2 0 0 1 7.2-7.2h14.4a7.2 7.2 0 0 1 7.2 7.2v39.6a7.2 7.2 0 0 1-7.2 7.2h-14.4m12.24-7.2a1.44 1.44 0 1 0 2.88 0 1.44 1.44 0 1 0-2.88 0zm-7.2 0a1.44 1.44 0 1 0 2.88 0 1.44 1.44 0 1 0-2.88 0zm-7.2 0a1.44 1.44 0 1 0 2.88 0 1.44 1.44 0 1 0-2.88 0zm5.8167-37.8a3.5433 3.5433 0 1 0 7.0866 0 3.5433 3.5433 0 1 0-7.0866 0z" fill="#014cb1" stroke-width="0"/>
   <g>
    <title>layer 21</title>
    <g>
     <title>text:-</title>
     <text x="6.48" y="53.928" fill="#ffffff" font-family="OCRA" font-size="4.176" stroke-width="0" text-anchor="middle">-</text>
    </g>
    <g>
     <title>text:Out</title>
     <text x="13.68" y="53.208" fill="#ffffff" font-family="OCRA" font-size="4.176" stroke-width="0" text-anchor="middle">Out</text>
    </g>
    <g>
     <title>text:+</title>
     <text x="21.6" y="53.928" fill="#ffffff" font-family="OCRA" font-size="4.176" stroke-width="0" text-anchor="middle">+</text>
    </g>
    <g>
     <title>text:UV</title>
     <g transform="translate(4.5504 9.36)">
      <g transform="rotate(270)">
       <text fill="#ffffff" font-family="OCRA" font-size="3.3408" stroke-width="0" text-anchor="middle">UV</text>
      </g>
     </g>
    </g>
    <g>
     <title>text:Sensor</title>
     <g transform="translate(7.2 16.56)">
      <g transform="rotate(270)">
       <text fill="#ffffff" font-family="OCRA" font-size="3.3408" stroke-width="0">Sensor</text>
      </g>
     </g>
    </g>
    <g>
     <title>element:C1</title>
     <g>
      <title>package:0805-NO</title>
      <line x1="14.4" x2="14.4" y1="37.44" y2="40.32" stroke="#fff" stroke-linecap="round" stroke-width=".864"/>
     </g>
    </g>
    <g>
     <title>element:C2</title>
     <g>
      <title>package:0805-NO</title>
      <line x1="22.32" x2="25.2" y1="22.32" y2="22.32" stroke="#fff" stroke-linecap="round" stroke-width=".864"/>
     </g>
    </g>
    <g>
     <title>element:FID1</title>
     <g>
      <title>package:FIDUCIAL_1MM</title>
     </g>
    </g>
    <g>
     <title>element:FID2</title>
     <g>
      <title>package:FIDUCIAL_1MM</title>
     </g>
    </g>
    <g>
     <title>element:JP2</title>
     <g>
      <title>package:1X03-CLEANBIG</title>
     </g>
    </g>
    <g>
     <title>element:R1</title>
     <g>
      <title>package:0805-NO</title>
      <line x1="5.76" x2="2.88" y1="22.32" y2="22.32" stroke="#fff" stroke-linecap="round" stroke-width=".864"/>
     </g>
    </g>
    <g>
     <title>element:R2</title>
     <g>
      <title>package:0805-NO</title>
      <line x1="22.32" x2="25.2" y1="35.28" y2="35.28" stroke="#fff" stroke-linecap="round" stroke-width=".864"/>
     </g>
    </g>
    <g>
     <title>element:R3</title>
     <g>
      <title>package:0805-NO</title>
      <line x1="2.88" x2="5.76" y1="35.28" y2="35.28" stroke="#fff" stroke-linecap="round" stroke-width=".864"/>
     </g>
    </g>
    <g>
     <title>element:U$6</title>
     <g>
      <title>package:MOUNTINGHOLE_2.5_PLATED</title>
      <circle cx="14.4" cy="9" r="5.6693" fill="none" stroke="#fff" stroke-width=".576"/>
     </g>
    </g>
    <g>
     <title>element:U$7</title>
     <g>
      <title>package:ADAFRUIT_2.5MM</title>
     </g>
    </g>
    <g>
     <title>element:U$8</title>
     <g>
      <title>package:ADAFRUIT_2.5MM</title>
     </g>
    </g>
    <g>
     <title>element:U1</title>
     <g>
      <title>package:SOT23-5</title>
      <line x1="12.132" x2="16.668" y1="35.637" y2="35.637" stroke="#fff" stroke-linecap="round" stroke-width=".576"/>
      <line x1="12.132" x2="16.668" y1="26.283" y2="26.283" stroke="#fff" stroke-linecap="round" stroke-width=".576"/>
      <line x1="11.424" x2="11.424" y1="32.094" y2="29.826" stroke="#fff" stroke-linecap="round" stroke-width=".576"/>
     </g>
    </g>
    <g>
     <title>element:U2</title>
     <g>
      <title>package:GUVA-S12SD</title>
      <line x1="9.1559" x2="9.1559" y1="24.423" y2="25.132" stroke="#fff" stroke-linecap="round" stroke-width=".36"/>
      <line x1="9.1559" x2="19.644" y1="25.132" y2="25.132" stroke="#fff" stroke-linecap="round" stroke-width=".36"/>
      <line x1="19.644" x2="19.644" y1="25.132" y2="24.565" stroke="#fff" stroke-linecap="round" stroke-width=".36"/>
      <line x1="9.1559" x2="9.1559" y1="17.195" y2="16.628" stroke="#fff" stroke-linecap="round" stroke-width=".36"/>
      <line x1="9.1559" x2="19.644" y1="16.628" y2="16.628" stroke="#fff" stroke-linecap="round" stroke-width=".36"/>
      <line x1="19.644" x2="19.644" y1="16.628" y2="17.195" stroke="#fff" stroke-linecap="round" stroke-width=".36"/>
      <g>
       <title>polygon</title>
       <path d="m13.68 20.88 2.0069-1.6469v3.2938l-2.0069-1.6469m1.584 1.2999v-2.5998 2.5998m-0.432-0.3545v-1.8908 1.8908m-0.432-0.3546v-1.1816 1.1816" fill="none" stroke="#fff" stroke-linecap="round" stroke-width=".432"/>
      </g>
     </g>
    </g>
   </g>
   <rect id="connector0pin" x="9.8646" y="36.754" width="3.685" height="4.252" fill="#9A916C" stroke-width="0"/>
   <rect id="connector1pin" x="15.25" y="36.754" width="3.685" height="4.252" fill="#9A916C" stroke-width="0"/>
   <g transform="matrix(0 -1 1 0 -1.2529 48.773)">
    <rect id="connector2pin" x="21.917" y="22.887" width="3.685" height="4.252" fill="#9A916C" stroke-width="0"/>
   </g>
   <g transform="matrix(0 -1 1 0 4.1329 43.387)">
    <rect id="connector3pin" x="21.917" y="17.501" width="3.685" height="4.252" fill="#9A916C" stroke-width="0"/>
   </g>
   <g transform="matrix(0 -1 1 0 -41.04 45.36)">
    <rect id="connector4pin" x=".74268" y="41.783" width="2.8346" height="2.8346" rx="1.4173" ry="1.4173" fill="#9A916C" stroke-width="0"/>
   </g>
   <g transform="matrix(0 -1 1 0 11.52 38.88)">
    <rect id="connector5pin" x="23.783" y="12.263" width="2.8346" height="2.8346" rx="1.4173" ry="1.4173" fill="#9A916C" stroke-width="0"/>
   </g>
   <circle id="connector6pin" cx="20.88" cy="46.8" r="2.16" fill="none" stroke="#9A916C" stroke-width="1.44" connectorname="5.0V"/>
   <circle id="connector7pin" cx="13.68" cy="46.8" r="2.16" fill="none" stroke="#9A916C" stroke-width="1.44" connectorname="AOUT"/>
   <circle id="connector8pin" cx="6.48" cy="46.8" r="2.16" fill="none" stroke="#9A916C" stroke-width="1.44" connectorname="GND"/>
   <g transform="matrix(0 1 -1 0 23.947 15.307)">
    <rect id="connector9pin" x="2.4775" y="17.501" width="3.685" height="4.252" fill="#9A916C" stroke-width="0"/>
   </g>
   <g transform="matrix(0 1 -1 0 29.333 20.693)">
    <rect id="connector10pin" x="2.4775" y="22.887" width="3.685" height="4.252" fill="#9A916C" stroke-width="0"/>
   </g>
   <g transform="matrix(0 -1 1 0 -14.213 61.733)">
    <rect id="connector11pin" x="21.917" y="35.847" width="3.685" height="4.252" fill="#9A916C" stroke-width="0"/>
   </g>
   <g transform="matrix(0 -1 1 0 -8.8271 56.347)">
    <rect id="connector12pin" x="21.917" y="30.461" width="3.685" height="4.252" fill="#9A916C" stroke-width="0"/>
   </g>
   <g transform="matrix(0 -1 1 0 -33.653 42.293)">
    <rect id="connector13pin" x="2.4775" y="35.847" width="3.685" height="4.252" fill="#9A916C" stroke-width="0"/>
   </g>
   <g transform="matrix(0 -1 1 0 -28.267 36.907)">
    <rect id="connector14pin" x="2.4775" y="30.461" width="3.685" height="4.252" fill="#9A916C" stroke-width="0"/>
   </g>
   <circle id="connector15pin" cx="14.4" cy="9" r="4.2633" fill="none" stroke="#9A916C" stroke-width="1.44" connectorname="P$1"/>
   <g transform="matrix(0 -1 1 0 -15.568 51.738)">
    <rect id="connector16pin" x="17.306" y="31.952" width="1.559" height="3.4016" fill="#9A916C" stroke-width="0"/>
   </g>
   <g transform="matrix(0 -1 1 0 -12.875 49.045)">
    <rect id="connector17pin" x="17.306" y="29.259" width="1.559" height="3.4016" fill="#9A916C" stroke-width="0"/>
   </g>
   <g transform="matrix(0 -1 1 0 -10.182 46.352)">
    <rect id="connector18pin" x="17.306" y="26.566" width="1.559" height="3.4016" fill="#9A916C" stroke-width="0"/>
   </g>
   <g transform="matrix(0 -1 1 0 -17.552 38.982)">
    <rect id="connector19pin" x="9.9351" y="26.566" width="1.559" height="3.4016" fill="#9A916C" stroke-width="0"/>
   </g>
   <g transform="matrix(0 -1 1 0 -22.938 44.368)">
    <rect id="connector20pin" x="9.9351" y="31.952" width="1.559" height="3.4016" fill="#9A916C" stroke-width="0"/>
   </g>
   <g transform="matrix(-1 0 0 -1 37.304 41.76)">
    <rect id="connector21pin" x="16.81" y="17.62" width="3.685" height="6.5197" fill="#9A916C" stroke-width="0"/>
   </g>
   <g transform="matrix(-1 0 0 -1 20.296 41.76)">
    <rect id="connector22pin" x="8.3055" y="17.62" width="3.685" height="6.5197" fill="#9A916C" stroke-width="0"/>
   </g>
  </g>
  <g transform="translate(11.566 37.108)">
   <g id="0805-cap">
    <path d="m5.386 3.543h-5.103c-0.156 0-0.283-0.127-0.283-0.283v-2.977c0-0.156 0.127-0.283 0.283-0.283h5.102c0.157 0 0.283 0.127 0.283 0.283v2.977c1e-3 0.156-0.126 0.283-0.282 0.283z" fill="#DCDCDC"/>
    <rect x="1.063" width="3.543" height="3.543" fill="#6E554B"/>
   </g>
  </g>
  <g transform="translate(20.926 20.548)">
   <g transform="matrix(0 -1 1 0 1.063 4.606)">
    <path d="m5.386 3.543h-5.103c-0.156 0-0.283-0.127-0.283-0.283v-2.977c0-0.156 0.127-0.283 0.283-0.283h5.102c0.157 0 0.283 0.127 0.283 0.283v2.977c1e-3 0.156-0.126 0.283-0.282 0.283z" fill="#DCDCDC"/>
    <rect x="1.063" width="3.543" height="3.543" fill="#6E554B"/>
   </g>
  </g>
  <g transform="translate(1.4855 20.548)">
   <g id="0805-res">
    <g transform="matrix(0 1 -1 0 4.606 -1.063)">
     <path d="m5.386 3.543h-5.103c-0.156 0-0.283-0.127-0.283-0.283v-2.977c0-0.156 0.127-0.283 0.283-0.283h5.102c0.157 0 0.283 0.127 0.283 0.283v2.977c1e-3 0.156-0.126 0.283-0.282 0.283z" fill="#DCDCDC"/>
     <rect x="1.063" width="3.543" height="3.543" fill="#333"/>
    </g>
   </g>
  </g>
  <g transform="translate(20.926 33.508)">
   <g id="0805-res">
    <g transform="matrix(0 -1 1 0 1.063 4.606)">
     <path d="m5.386 3.543h-5.103c-0.156 0-0.283-0.127-0.283-0.283v-2.977c0-0.156 0.127-0.283 0.283-0.283h5.102c0.157 0 0.283 0.127 0.283 0.283v2.977c1e-3 0.156-0.126 0.283-0.282 0.283z" fill="#DCDCDC"/>
     <rect x="1.063" width="3.543" height="3.543" fill="#333"/>
    </g>
   </g>
  </g>
  <g transform="translate(1.4855 33.508)">
   <g transform="matrix(0 -1 1 0 1.063 4.606)">
    <path d="m5.386 3.543h-5.103c-0.156 0-0.283-0.127-0.283-0.283v-2.977c0-0.156 0.127-0.283 0.283-0.283h5.102c0.157 0 0.283 0.127 0.283 0.283v2.977c1e-3 0.156-0.126 0.283-0.282 0.283z" fill="#DCDCDC"/>
    <rect x="1.063" width="3.543" height="3.543" fill="#333"/>
   </g>
  </g>
  <g transform="translate(18.005 2.4636)">
   <path d="m9.747 3.082c-0.023-0.142-0.1-0.183-0.286-0.243-0.14197-0.045-1.089-0.347-1.089-0.347s-0.66-0.249-1.15 0.103c-0.066 0.048-0.134 0.102-0.203 0.16 0.058-0.069 0.112-0.137 0.159-0.203 0.352-0.49 0.101-1.15 0.101-1.15s-0.30302-0.947-0.34902-1.089c-0.06-0.186-0.1-0.263-0.243-0.285-0.142-0.023-0.204 0.038-0.318 0.197-0.087 0.12-0.667 0.928-0.667 0.928s-0.441 0.551-0.257 1.126c0.025 0.077 0.055 0.159 0.089 0.242-0.048-0.076-0.096-0.149-0.144-0.214-0.358-0.486-1.062-0.452-1.062-0.452s-0.995-4e-3 -1.143-4e-3c-0.195 0-0.281 0.014-0.347 0.143-0.065 0.128-0.027 0.206 0.089 0.364 0.088 0.12 0.677 0.921 0.677 0.921s0.388 0.59 0.991 0.592c0.081 0 0.168-3e-3 0.257-0.01-0.087001 0.021998-0.171 0.045998-0.248 0.070998-0.573 0.19-0.758 0.871-0.758 0.871s-0.31 0.944-0.357 1.085c-0.060998 0.186-0.072998 0.272 0.029002 0.374s0.188 0.09 0.374 0.028c0.141-0.046 1.085-0.359 1.085-0.359s0.681-0.187 0.869-0.76c0.025-0.077 0.049-0.16 0.07-0.247-0.005997 0.090003-0.008997 0.176-0.008997 0.257 4e-3 0.603 0.594 0.99 0.594 0.99s0.802 0.588 0.922 0.675c0.15802 0.116 0.236 0.154 0.36502 0.089 0.12795-0.066 0.143-0.152 0.14199-0.347-0.00101-0.149-0.00598-1.143-0.00598-1.143s0.03298-0.705-0.45403-1.062c-0.06502-0.048-0.13802-0.096-0.21398-0.143 0.083 0.034 0.165 0.064 0.242 0.088 0.575 0.183 1.125-0.259 1.125-0.259s0.80696-0.581 0.92699-0.668c0.15897-0.115 0.21902-0.177 0.19699-0.319zm-3.425-0.732c0.108 0.017 0.162 0.248 0.12 0.515s-0.164 0.47-0.273 0.453c-0.108-0.017-0.162-0.248-0.12-0.515 0.042-0.268 0.164-0.471 0.273-0.453zm-1.389 0.709c0.05-0.098 0.286-0.078 0.527 0.045 0.241 0.123 0.397 0.302 0.347 0.399-0.05 0.098-0.286 0.078-0.527-0.045-0.242-0.123-0.397-0.301-0.347-0.399zm0.732 1.334c-0.191 0.191-0.409 0.284-0.487 0.206-0.077-0.078 0.015-0.296 0.206-0.487 0.191-0.192 0.409-0.285 0.487-0.207s-0.014 0.296-0.206 0.488zm1.054 0.449c-0.098 0.05-0.277-0.105-0.4-0.346-0.123-0.242-0.144-0.478-0.046-0.528 0.098-0.05 0.277 0.105 0.4 0.346 0.123 0.242 0.144 0.478 0.046 0.528zm0.254-1.117c-0.267 0.042-0.498-0.011-0.516-0.119-0.017-0.109 0.186-0.231 0.453-0.274s0.498 0.011 0.515 0.119c0.018 0.109-0.18497 0.231-0.452 0.274z" fill="#DCDCDC"/>
  </g>
  <g transform="translate(10.29 27.133)">
   <g transform="matrix(0 -1 1 0 .283 7.9371)">
    <rect x=".85" width="1.134" height="7.654" fill="#DCDCDC"/>
    <rect x="6.236" width="1.134" height="7.654" fill="#DCDCDC"/>
    <rect x="3.543" y="4.535" width="1.134" height="3.118" fill="#DCDCDC"/>
    <rect y="1.559" width="8.22" height="4.535" fill="#303030"/>
   </g>
  </g>
  <g transform="translate(10.998 15.92)">
   <g transform="matrix(0 -1 1 0 -1.559 8.362)">
    <g transform="matrix(-1.837e-16 1 -1 -1.837e-16 8.3622 1.5591)">
     <rect x="-1.559" y="1.984" width="9.921" height="5.953" fill="#DCDCDC"/>
    </g>
    <g transform="matrix(-1.837e-16 1 -1 -1.837e-16 7.7953 -2.9764)">
     <rect x="3.969" y=".992" width="2.835" height="2.835" fill="#E6E6E6"/>
    </g>
    <path d="m0 8.929v-7.937h4.677l2.126 2.126v5.811l-6.803 8e-6z" fill="#F0F0F0"/>
    <circle cx="3.402" cy="4.961" r="2.976" fill="#DCDCDC"/>
    <circle cx="3.402" cy="4.961" r="1.984" fill="#F0F0F0"/>
    <g fill="#C8C8C8">
     <path d="m2.79 4.37v1.463h1.222v-1.463l0.801-0.801c-0.36-0.365-0.859-0.592-1.412-0.592s-1.052 0.227-1.412 0.592l0.801 0.801z"/>
     <path d="m2.124 6.467v-1.691l-0.56-0.559c-0.093 0.23-0.147 0.48-0.147 0.744 0 0.606 0.278 1.142 0.707 1.506z"/>
     <path d="m4.679 6.467c0.429-0.364 0.706-0.9 0.706-1.506 0-0.263-0.054-0.514-0.147-0.744l-0.559 0.559v1.691z"/>
    </g>
   </g>
  </g>
 </g>
</svg>
