<?xml version="1.0" encoding="UTF-8"?>
<!-- Created with Inkscape (http://www.inkscape.org/) -->
<svg width="72" height="76.5" version="1.1" xmlns="http://www.w3.org/2000/svg" xmlns:cc="http://creativecommons.org/ns#" xmlns:dc="http://purl.org/dc/elements/1.1/" xmlns:rdf="http://www.w3.org/1999/02/22-rdf-syntax-ns#" xmlns:xlink="http://www.w3.org/1999/xlink">
 <defs>
  <linearGradient id="linearGradient9420">
   <stop stop-color="#868686" offset="0"/>
   <stop stop-color="#a9a9a9" offset=".4"/>
   <stop stop-color="#fff" offset=".5"/>
   <stop stop-color="#b0b0b0" offset=".6"/>
   <stop stop-color="#808080" offset="1"/>
  </linearGradient>
  <linearGradient id="linearGradient4802" x1="40.5" x2="94.5" y1="94.5" y2="40.5" gradientUnits="userSpaceOnUse">
   <stop stop-color="#b3b3b3" stop-opacity=".65179" offset="0"/>
   <stop stop-color="#939393" stop-opacity=".69643" offset=".25"/>
   <stop stop-color="#e9e9e9" offset=".5"/>
   <stop stop-color="#969696" stop-opacity=".69643" offset=".75"/>
   <stop stop-color="#909090" stop-opacity=".65179" offset="1"/>
  </linearGradient>
  <linearGradient id="linearGradient4813" x1="49.5" x2="85.5" y1="49.5" y2="85.5" gradientUnits="userSpaceOnUse" xlink:href="#linearGradient9420"/>
  <linearGradient id="linearGradient4839" x1="54" x2="81" y1="81" y2="54" gradientUnits="userSpaceOnUse" xlink:href="#linearGradient9420"/>
  <radialGradient id="radialGradient4865" cx="67.5" cy="67.5" r="17.775" gradientTransform="matrix(.75949 -.75949 .70711 .70711 -31.496 71.036)" gradientUnits="userSpaceOnUse">
   <stop stop-color="#868686" offset="0"/>
   <stop stop-color="#a9a9a9" offset=".93671"/>
   <stop stop-color="#fff" offset=".96203"/>
   <stop stop-color="#b0b0b0" offset=".98734"/>
   <stop stop-color="#808080" offset="1"/>
  </radialGradient>
 </defs>
 <metadata>
  <rdf:RDF>
   <cc:Work rdf:about="">
    <dc:format>image/svg+xml</dc:format>
    <dc:type rdf:resource="http://purl.org/dc/dcmitype/StillImage"/>
    <dc:title/>
   </cc:Work>
  </rdf:RDF>
 </metadata>
 <g transform="translate(0,-103.5)">
  <g id="icon">
   <path transform="translate(-31.5 74.205)" d="m99 67.5a31.5 31.5 0 1 1-63 0 31.5 31.5 0 1 1 63 0z" fill="#808080" stroke="#000" stroke-width=".45"/>
   <path transform="translate(-31.5 74.205)" d="m94.5 67.5a27 27 0 1 1-54 0 27 27 0 1 1 54 0z" fill="none" stroke="url(#linearGradient4802)" stroke-width="9"/>
   <path transform="translate(-31.5 74.205)" d="m89.1 67.5a21.6 21.6 0 1 1-43.2 0 21.6 21.6 0 1 1 43.2 0z" fill="#808080" stroke="url(#linearGradient4813)" stroke-linecap="round" stroke-linejoin="round" stroke-width="1.8"/>
   <path transform="translate(-31.5 74.205)" d="m88.2 67.5a20.7 20.7 0 1 1-41.4 0 20.7 20.7 0 1 1 41.4 0z" fill="none" stroke="#000" stroke-linecap="round" stroke-linejoin="round" stroke-width=".45"/>
   <path transform="translate(-31.5 74.205)" d="m85.5 67.5a18 18 0 1 1-36 0 18 18 0 1 1 36 0z" fill="none" stroke="#000" stroke-linecap="round" stroke-linejoin="round" stroke-width=".45"/>
   <path transform="translate(-31.5 74.205)" d="m86.85 67.5a19.35 19.35 0 1 1-38.7 0 19.35 19.35 0 1 1 38.7 0z" fill="none" stroke="#fff" stroke-linecap="round" stroke-linejoin="round" stroke-width="2.7"/>
   <path transform="translate(-31.5 74.205)" d="m85.05 67.5a17.55 17.55 0 1 1-35.1 0 17.55 17.55 0 1 1 35.1 0z" fill="url(#radialGradient4865)" stroke="url(#linearGradient4839)" stroke-linecap="round" stroke-linejoin="round" stroke-width=".45"/>
   <path transform="translate(-31.5 74.205)" d="m86.85 67.5a19.35 19.35 0 1 1-38.7 0 19.35 19.35 0 1 1 38.7 0z" fill="none" stroke-width="0"/>
   <path transform="translate(-31.5 74.205)" d="m86.85 67.5a19.35 19.35 0 1 1-38.7 0 19.35 19.35 0 1 1 38.7 0z" fill="none" stroke="#fff" stroke-linecap="round" stroke-linejoin="round" stroke-opacity=".31373" stroke-width="4.5"/>
  </g>
 </g>
</svg>
