<!-- Generator: Adobe Illustrator 16.0.0, SVG Export Plug-In . SVG Version: 6.00 Build 0)  -->
<!DOCTYPE svg  PUBLIC '-//W3C//DTD SVG 1.1//EN'  'http://www.w3.org/Graphics/SVG/1.1/DTD/svg11.dtd'>
<svg width="113.13px" height="28.742px" enable-background="new 0 0 113.129 28.742" version="1.1" viewBox="0 0 113.13 28.742" xmlns="http://www.w3.org/2000/svg">
	<g id="schematic">
		<g fill="none" stroke="#000" stroke-linecap="round" stroke-width=".7">
			<polyline points="3.6 7.2 104.4 7.2 104.4 14.401" stroke-miterlimit="10"/>
			<line x1="90" x2="86.398" y1="21.6" y2="21.6"/>
			<line x1="93.6" x2="90" y1="21.6" y2="21.6"/>
		</g>
		<polygon points="86.398 14.399 90 14.399 93.6 14.399 90 21.6" fill="#fff" stroke="#000" stroke-linecap="round" stroke-width=".7"/>
		<g fill="none" stroke-linecap="round" stroke-width=".7">
			<line id="connector10pin" x1="90" x2="90" y1="21.6" y2="28.8" stroke="#787878"/>
			<line x1="90" x2="90" y1="14.399" y2="7.199" stroke="#000"/>
			<line x1="79.2" x2="72" y1="21.6" y2="21.6" stroke="#000"/>
		</g>
		<polygon points="72 14.399 75.6 14.399 79.2 14.399 75.6 21.6" fill="#fff" stroke="#000" stroke-linecap="round" stroke-width=".7"/>
		<g fill="none" stroke-linecap="round" stroke-width=".7">
			<line id="connector9pin" x1="75.6" x2="75.6" y1="21.6" y2="28.8" stroke="#787878"/>
			<line x1="75.6" x2="75.6" y1="14.399" y2="7.199" stroke="#000"/>
			<line x1="64.8" x2="57.6" y1="21.6" y2="21.6" stroke="#000"/>
		</g>
		<polygon points="57.6 14.399 61.2 14.399 64.8 14.399 61.2 21.6" fill="#fff" stroke="#000" stroke-linecap="round" stroke-width=".7"/>
		<g fill="none" stroke-linecap="round" stroke-width=".7">
			<line id="connector1pin" x1="61.2" x2="61.2" y1="21.6" y2="28.8" stroke="#787878"/>
			<line x1="61.2" x2="61.2" y1="14.399" y2="7.199" stroke="#000"/>
			<line x1="50.4" x2="43.2" y1="21.6" y2="21.6" stroke="#000"/>
		</g>
		<polygon points="43.2 14.399 46.8 14.399 50.4 14.399 46.8 21.6" fill="#fff" stroke="#000" stroke-linecap="round" stroke-width=".7"/>
		<g fill="none" stroke-linecap="round" stroke-width=".7">
			<line id="connector2pin" x1="46.8" x2="46.8" y1="21.464" y2="28.664" stroke="#787878"/>
			<line x1="46.8" x2="46.8" y1="14.399" y2="7.199" stroke="#000"/>
			<line x1="36" x2="28.8" y1="21.6" y2="21.6" stroke="#000"/>
		</g>
		<polygon points="28.8 14.399 32.4 14.399 36 14.399 32.4 21.6" fill="#fff" stroke="#000" stroke-linecap="round" stroke-width=".7"/>
		<g fill="none" stroke-linecap="round" stroke-width=".7">
			<line id="connector4pin" x1="32.4" x2="32.4" y1="21.6" y2="28.8" stroke="#787878"/>
			<line x1="32.4" x2="32.4" y1="14.399" y2="7.199" stroke="#000"/>
			<line x1="21.6" x2="14.4" y1="21.6" y2="21.6" stroke="#000"/>
		</g>
		<g fill="none" stroke-linecap="round" stroke-width=".7">
			<line id="connector5pin" x1="104.4" x2="104.4" y1="21.6" y2="28.801" stroke="#787878"/>
			<line x1="104.4" x2="104.4" y1="14.401" y2="7.2" stroke="#000"/>
		</g>
		<polygon points="14.4 14.399 18 14.399 21.6 14.399 18 21.6" fill="#fff" stroke="#000" stroke-linecap="round" stroke-width=".7"/>
		<g fill="none" stroke-linecap="round" stroke-width=".7">
			<line id="connector6pin" x1="18.136" x2="18.136" y1="21.6" y2="28.8" stroke="#787878"/>
			<line x1="18" x2="18" y1="14.399" y2="7.199" stroke="#000"/>
			<line x1="7.2" y1="21.6" y2="21.6" stroke="#000"/>
		</g>
		<polygon points="0 14.399 3.601 14.399 7.2 14.399 3.601 21.6" fill="#fff" stroke="#000" stroke-linecap="round" stroke-width=".7"/>
		<g fill="none" stroke-linecap="round" stroke-width=".7">
			<line id="connector7pin" x1="3.601" x2="3.601" y1="21.6" y2="28.8" stroke="#787878"/>
			<line x1="3.601" x2="3.601" y1="14.399" y2="7.199" stroke="#000"/>
		</g>
		<g fill="#787878" font-family="Noto Sans" font-size="2">
			<text transform="translate(106.2 27.941)">5</text>
			<text transform="translate(91.8 27.941)">10</text>
			<text transform="translate(55.53 4.6992)">3, 8</text>
			<text transform="translate(77.4 27.941)">9</text>
			<text transform="translate(63 27.941)">1</text>
			<text transform="translate(48.6 27.941)">2</text>
			<text transform="translate(34.2 27.941)">4</text>
			<text transform="translate(19.8 27.941)">6</text>
			<text transform="translate(5.4004 27.941)">7</text>
		</g>
		<g fill="none" stroke-linecap="round">
			<line id="connector3pin" x1="54" x2="54" y1="7.2" stroke="#787878" stroke-miterlimit="10" stroke-width=".7"/><line id="connector8pin" x1="54" x2="54" y1="7.2" stroke="#787878" stroke-miterlimit="10" stroke-width=".7"/>
			<g stroke-width=".5">
				<g stroke="#ccc">
					<line x1="7.075" x2="4.885" y1="12.991" y2="12.991"/>
					<line x1="5.25" x2="7.44" y1="10.802" y2="10.802"/>
					<line x1="7.806" x2="7.806" y1="12.992" y2="12.991"/>
					<line x1="5.25" x2="4.885" y1="10.802" y2="12.991"/>
					<line x1="5.615" x2="5.25" y1="8.61" y2="10.802"/>
					<line x1="7.44" x2="7.075" y1="10.802" y2="12.991"/>
					<line x1="7.806" x2="7.44" y1="8.61" y2="10.802"/>
				</g>
				<line x1="7.806" x2="5.615" y1="8.61" y2="8.61" stroke="#000"/>
				<g stroke="#ccc">
					<line x1="22.179" x2="19.989" y1="8.61" y2="8.61"/>
					<line x1="21.449" x2="19.259" y1="12.991" y2="12.991"/>
					<line x1="19.624" x2="21.815" y1="10.802" y2="10.802"/>
					<line x1="22.179" x2="22.179" y1="12.992" y2="12.991"/>
					<line x1="19.624" x2="19.259" y1="10.802" y2="12.991"/>
					<line x1="19.989" x2="19.624" y1="8.61" y2="10.802"/>
					<line x1="21.815" x2="21.449" y1="10.802" y2="12.991"/>
				</g>
				<line x1="22.18" x2="21.815" y1="8.61" y2="10.802" stroke="#000"/>
				<g stroke="#ccc">
					<line x1="36.554" x2="34.363" y1="8.61" y2="8.61"/>
					<line x1="35.824" x2="33.633" y1="12.991" y2="12.991"/>
					<line x1="33.999" x2="36.189" y1="10.802" y2="10.802"/>
					<line x1="36.554" x2="36.554" y1="12.992" y2="12.991"/>
					<line x1="33.999" x2="33.633" y1="10.802" y2="12.991"/>
					<line x1="34.363" x2="33.999" y1="8.61" y2="10.802"/>
					<line x1="36.554" x2="36.189" y1="8.61" y2="10.802"/>
				</g>
				<line x1="36.189" x2="35.824" y1="10.802" y2="12.991" stroke="#000"/>
				<g stroke="#ccc">
					<line x1="50.927" x2="48.738" y1="8.61" y2="8.61"/>
					<line x1="48.373" x2="50.563" y1="10.802" y2="10.802"/>
					<line x1="50.927" x2="50.927" y1="12.992" y2="12.991"/>
					<line x1="48.373" x2="48.007" y1="10.802" y2="12.991"/>
					<line x1="48.738" x2="48.373" y1="8.61" y2="10.802"/>
					<line x1="50.563" x2="50.198" y1="10.802" y2="12.991"/>
					<line x1="50.928" x2="50.563" y1="8.61" y2="10.802"/>
				</g>
				<line x1="50.198" x2="48.007" y1="12.991" y2="12.991" stroke="#000"/>
				<g stroke="#ccc">
					<line x1="65.302" x2="63.111" y1="8.61" y2="8.61"/>
					<line x1="64.572" x2="62.381" y1="12.991" y2="12.991"/>
					<line x1="62.747" x2="64.938" y1="10.802" y2="10.802"/>
					<line x1="65.302" x2="65.302" y1="12.992" y2="12.991"/>
					<line x1="63.113" x2="62.747" y1="8.61" y2="10.802"/>
					<line x1="64.938" x2="64.572" y1="10.802" y2="12.991"/>
					<line x1="65.302" x2="64.938" y1="8.61" y2="10.802"/>
				</g>
				<line x1="62.747" x2="62.381" y1="10.802" y2="12.991" stroke="#000"/>
				<g stroke="#ccc">
					<line x1="79.675" x2="77.486" y1="8.61" y2="8.61"/>
					<line x1="78.945" x2="76.756" y1="12.991" y2="12.991"/>
					<line x1="77.121" x2="79.311" y1="10.802" y2="10.802"/>
					<line x1="79.675" x2="79.675" y1="12.992" y2="12.991"/>
					<line x1="77.121" x2="76.756" y1="10.802" y2="12.991"/>
				</g>
				<line x1="77.486" x2="77.121" y1="8.61" y2="10.802" stroke="#000"/>
				<g stroke="#ccc">
					<line x1="79.311" x2="78.945" y1="10.802" y2="12.991"/>
					<line x1="79.675" x2="79.311" y1="8.61" y2="10.802"/>
					<line x1="94.05" x2="91.859" y1="8.61" y2="8.61"/>
					<line x1="93.32" x2="91.13" y1="12.991" y2="12.991"/>
					<line x1="94.05" x2="94.05" y1="12.992" y2="12.991"/>
					<line x1="91.496" x2="91.13" y1="10.802" y2="12.991"/>
					<line x1="91.861" x2="91.496" y1="8.61" y2="10.802"/>
					<line x1="93.686" x2="93.32" y1="10.802" y2="12.991"/>
					<line x1="94.05" x2="93.686" y1="8.61" y2="10.802"/>
				</g>
				<line x1="91.496" x2="93.686" y1="10.802" y2="10.802" stroke="#000"/>
				<g stroke="#ccc">
					<line x1="108.42" x2="106.24" y1="8.61" y2="8.61"/>					
					<line x1="107.7" x2="105.51" y1="12.991" y2="12.991"/>
					<line x1="105.87" x2="108.06" y1="10.802" y2="10.802"/>
					<line x1="105.87" x2="105.51" y1="10.802" y2="12.991"/>
					<line x1="106.24" x2="105.87" y1="8.61" y2="10.802"/>
					<line x1="108.06" x2="107.7" y1="10.802" y2="12.991"/>
					<line x1="108.42" x2="108.06" y1="8.61" y2="10.802"/>
				</g>
				<line x1="108.42" x2="108.42" y1="12.992" y2="12.991" stroke="#000"/>
			</g>
			<line x1="104.4" x2="100.8" y1="21.6" y2="21.6" stroke="#000" stroke-width=".7"/>
			<line x1="108" x2="104.4" y1="21.6" y2="21.6" stroke="#000" stroke-width=".7"/>
		</g>
		<polygon points="100.8 14.401 104.4 14.401 108 14.401 104.4 21.6" fill="#fff" stroke="#000" stroke-linecap="round" stroke-width=".7"/>
		<g stroke="#000">
			<g faction-a-off="stroke:#000 fill:#000" faction-a-on="stroke:#EF1818 fill:#EF1818">
				<g stroke-linecap="round">
					<line x1="10.71" x2="8.37" y1="18.898" y2="16.561" stroke-width=".45"/>
					<line x1="10.35" x2="8.01" y1="22.141" y2="19.8" stroke-width=".45"/>
					<line x1="7.806" x2="5.615" y1="8.61" y2="8.61" stroke-width=".5"/>
				</g>
				<path d="M9.81,19.438L11.25,18l1.08,2.521L9.81,19.438z" stroke="none"/>
				<path d="M9.45,22.68l1.439-1.438l1.08,2.521L9.45,22.68z" stroke="none"/>
			</g>
			<g faction-b-off="stroke:#000 fill:#000" faction-b-on="stroke:#EF1818 fill:#EF1818">
				<g stroke-linecap="round">
					<line x1="22.18" x2="21.815" y1="8.61" y2="10.802" stroke-width=".5"/>
					<line x1="25.11" x2="22.77" y1="18.898" y2="16.561" stroke-width=".45"/>
					<line x1="24.75" x2="22.41" y1="22.141" y2="19.8" stroke-width=".45"/>
				</g>
				<path transform="translate(0 -.136)" d="m24.209 19.438 1.44-1.438 1.08 2.521-2.52-1.083z" stroke="none"/>
				<path d="m23.85 22.68 1.439-1.438 1.08 2.521-2.519-1.083z" stroke="none"/>
			</g>
			<g faction-c-off="stroke:#000 fill:#000" faction-c-on="stroke:#EF1818 fill:#EF1818">
				<g stroke-linecap="round">
					<line x1="36.189" x2="35.824" y1="10.802" y2="12.991" stroke-width=".5"/>
					<line x1="39.51" x2="37.17" y1="18.898" y2="16.561" stroke-width=".45"/>
					<line x1="39.149" x2="36.81" y1="22.141" y2="19.8" stroke-width=".45"/>
				</g>
				<path d="m38.609 19.438 1.44-1.438 1.08 2.521-2.52-1.083z" stroke="none"/>
				<path d="m38.25 22.68 1.439-1.438 1.08 2.521-2.519-1.083z" stroke="none"/>
			</g>
			<g faction-d-off="stroke:#000 fill:#000" faction-d-on="stroke:#EF1818 fill:#EF1818">
				<g stroke-linecap="round">
					<line x1="50.198" x2="48.007" y1="12.991" y2="12.991" stroke-width=".5"/>
					<line x1="53.91" x2="51.57" y1="18.898" y2="16.561" stroke-width=".45"/>
					<line x1="53.549" x2="51.209" y1="22.141" y2="19.8" stroke-width=".45"/>
				</g>
				<path transform="translate(0 -.136)" d="m53.009 19.438 1.44-1.438 1.08 2.521-2.52-1.083z" stroke="none"/>
				<path d="m52.65 22.68 1.439-1.438 1.08 2.521-2.519-1.083z" stroke="none"/>
			</g>
			<g faction-e-off="stroke:#000 fill:#000" faction-e-on="stroke:#EF1818 fill:#EF1818">
				<g stroke-linecap="round">
					<line x1="62.747" x2="62.381" y1="10.802" y2="12.991" stroke-width=".5"/>
					<line x1="68.311" x2="65.971" y1="18.898" y2="16.561" stroke-width=".45"/>
					<line x1="67.949" x2="65.609" y1="22.141" y2="19.8" stroke-width=".45"/>
				</g>
				<path d="M67.409,19.438L68.85,18l1.08,2.521L67.409,19.438z" stroke="none"/>
				<path d="m67.05 22.68 1.438-1.438 1.08 2.521-2.518-1.083z" stroke="none"/>
			</g>
			<g faction-f-off="stroke:#000 fill:#000" faction-f-on="stroke:#EF1818 fill:#EF1818">
				<g stroke-linecap="round">
					<line x1="77.486" x2="77.121" y1="8.61" y2="10.802" stroke-width=".5"/>
					<line x1="82.709" x2="80.37" y1="18.898" y2="16.561" stroke-width=".45"/>
					<line x1="82.35" x2="80.009" y1="22.141" y2="19.8" stroke-width=".45"/>
				</g>
				<path d="m81.809 19.438 1.44-1.438 1.08 2.521-2.52-1.083z" stroke="none"/>
				<path d="m81.45 22.68 1.438-1.438 1.076 2.521-2.514-1.083z" stroke="none"/>
			</g>
			<g faction-g-off="stroke:#000 fill:#000" faction-g-on="stroke:#EF1818 fill:#EF1818">
				<g stroke-linecap="round">
					<line x1="91.496" x2="93.686" y1="10.802" y2="10.802" stroke-width=".5"/>
					<line x1="97.109" x2="94.77" y1="18.898" y2="16.561" stroke-width=".45"/>
					<line x1="96.749" x2="94.409" y1="22.141" y2="19.8" stroke-width=".45"/>
				</g>
				<path d="m96.209 19.438 1.439-1.438 1.08 2.521-2.519-1.083z" stroke="none"/>
				<path d="m95.85 22.68 1.439-1.438 1.08 2.521-2.519-1.083z" stroke="none"/>
			</g>
			<g faction-dp-off="stroke:#000 fill:#000" faction-dp-on="stroke:#EF1818 fill:#EF1818">
				<line x1="111.51" x2="109.17" y1="18.9" y2="16.563" stroke-linecap="round" stroke-width=".45"/>
				<line x1="111.15" x2="108.81" y1="22.141" y2="19.801" stroke-linecap="round" stroke-width=".45"/>
				<path d="m110.61 19.439 1.438-1.438 1.08 2.521-2.518-1.083z" stroke="none"/>
				<path d="m110.25 22.68 1.439-1.438 1.08 2.52-2.519-1.082z" stroke="none"/>
			</g>
		</g>		
	</g>
</svg>
