<?xml version="1.0" encoding="UTF-8"?>
<!DOCTYPE svg  PUBLIC '-//W3C//DTD SVG 1.1//EN'  'http://www.w3.org/Graphics/SVG/1.1/DTD/svg11.dtd'>
<svg enable-background="new 0 0 41.226 29.248" version="1.1" viewBox="0 0 41.226 29.248" width="0.573in" height="0.406in" xmlns="http://www.w3.org/2000/svg">
  <g id="schematic">
<g stroke="#787878">
  <line id="connector0pin" x1="4.35" y1="21" x2="4.35" y2="28.2" stroke-width="0.7" stroke-linecap="round"/>
  <line id="connector1pin" x1="18.75" y1="0" x2="18.75" y2="7.2" stroke-width="0.7" stroke-linecap="round"/>
  <line id="connector4pin" x1="33.15" y1="21" x2="33.15" y2="28.2" stroke-width="0.7" stroke-linecap="round"/>
</g>
    <g transform="translate(42.473)">
      <g transform="scale(1 -1) translate(0 -35.6)">
        <path d="m-5.704 14.518c0.123 0 0.236 0.065 0.296 0.173 0.062 0.106 0.059 0.237-4e-3 0.342l-3.587 6.011c-0.061 0.103-0.172 0.167-0.292 0.167-0.119 0-0.231-0.064-0.292-0.166l-3.595-6.01c-0.063-0.106-0.064-0.237-4e-3 -0.343 0.061-0.107 0.173-0.173 0.297-0.173h7.181m-3.586 5.686 2.987-5.005h-5.981l2.994 5.005z"/>
        <path d="m-12.964 21.21c-0.188 0-0.341-0.151-0.341-0.34s0.152-0.341 0.341-0.341h7.173c0.189 0 0.341 0.152 0.341 0.341 0 0.188-0.152 0.34-0.341 0.34h-7.173z"/>
        <path stroke="black" stroke-width="0.6" d="m-9.2 28.5v-7.2z"/>
        <polygon points="-1.91 23.649 -3.585 22.575 -3.086 22.176 -2.586 21.778"/>
        <path d="m-4.17 22.604 0.872-0.694 0.5-0.399 0.372-0.296 1.179 3.264-2.923-1.875z"/>
        <path d="m-2.371 23.618-3.205-4.016c-0.117-0.148-0.092-0.362 0.055-0.479 0.148-0.117 0.362-0.093 0.479 0.054l3.204 4.016c0.117 0.147 0.093 0.362-0.054 0.479-0.064 0.05-0.138 0.074-0.212 0.074-0.101 0-0.2-0.044-0.267-0.128z"/>
        <polygon points="-4.143 25.349 -5.817 24.274 -5.317 23.876 -4.818 23.478"/>
        <path d="m-6.401 24.304 0.872-0.695 0.499-0.398 0.371-0.296 1.182 3.265-2.924-1.876z"/>
        <path d="m-4.603 25.318-2.497-3.13c-0.118-0.147-0.092-0.361 0.053-0.479 0.147-0.118 0.362-0.093 0.479 0.054l2.496 3.129c0.118 0.147 0.093 0.361-0.053 0.479-0.064 0.049-0.138 0.075-0.212 0.075-0.099 0-0.198-0.044-0.266-0.128z"/>
      </g>
    </g>
    <g transform="scale(1 -1) translate(0 -35.6)">
      <path d="m8.051 14.519c0.123 0 0.236 0.065 0.296 0.173 0.061 0.106 0.06 0.237-4e-3 0.342l-3.586 6.011c-0.061 0.103-0.172 0.167-0.292 0.167s-0.232-0.064-0.292-0.166l-3.595-6.011c-0.063-0.106-0.064-0.237-4e-3 -0.343 0.061-0.107 0.173-0.173 0.297-0.173h7.18m-3.587 5.687 2.987-5.006h-5.981l2.994 5.006z"/>
      <path d="m0.79 21.21c-0.189 0-0.341-0.151-0.341-0.34s0.152-0.341 0.341-0.341h7.173c0.188 0 0.341 0.152 0.341 0.341 0 0.188-0.153 0.34-0.341 0.34h-7.173z"/>
      <path stroke="black" stroke-width="0.6" d="m4.35 28.5v-7.2z"/>
      <polygon points="11.168 21.778 11.843 23.649 10.169 22.575 10.669 22.176"/>
      <path d="m9.585 22.604 0.871-0.694 0.499-0.399 0.372-0.296 1.179 3.264-2.921-1.875z"/>
      <path d="m11.382 23.618-3.205-4.016c-0.118-0.148-0.093-0.362 0.054-0.479s0.362-0.093 0.479 0.054l3.205 4.016c0.117 0.147 0.093 0.362-0.054 0.479-0.063 0.05-0.138 0.074-0.212 0.074-0.1 1e-3 -0.199-0.043-0.267-0.128z"/>
      <polygon points="8.936 23.479 9.612 25.349 7.938 24.275 8.437 23.877"/>
      <path d="m7.354 24.305 0.871-0.695 0.499-0.398 0.372-0.296 1.182 3.265-2.924-1.876z"/>
      <path d="m9.151 25.318-2.497-3.13c-0.118-0.147-0.093-0.361 0.054-0.479s0.362-0.093 0.479 0.054l2.496 3.129c0.118 0.147 0.093 0.361-0.054 0.479-0.063 0.049-0.138 0.075-0.212 0.075-0.1 1e-3 -0.199-0.043-0.266-0.128z"/>
    </g>
    <line x1="4.503" x2="33.231" y1="7.20" y2="7.20" fill="none" stroke="#000" stroke-linecap="round" stroke-linejoin="round" stroke-width=".6815"/>
    <text transform="translate(.5 13)" font-family="Noto Sans" font-size="4.7705">R</text>
    <text transform="translate(28 13)" font-family="Noto Sans" font-size="4.7705">W</text>
  </g>
</svg>
