<?xml version="1.0" encoding="UTF-8" standalone="no"?>
<svg xmlns="http://www.w3.org/2000/svg" version="1.1" width="24mm" height="24mm" viewBox="0 0 2400 2400">
 <g id="schematic" transform="translate(-431.400, -420.594)">
  <rect x="740.8332" y="740.8332" width="1778.0000" height="1778.0000" fill="none" stroke="#000000" stroke-width="31.7500"/>
  <line id="connector4pin" x1="490.201" y1="994.833" x2="744.201" y2="994.833" stroke="#787878" stroke-width="24.6944" stroke-linecap="round"/>
  <line id="connector2pin" x1="486.8332" y1="2264.8332" x2="740.8332" y2="2264.8332" stroke="#787878" stroke-width="24.6944" stroke-linecap="round"/>
  <line id="connector3pin" x1="2518.8332" y1="994.8332" x2="2772.8332" y2="994.8332" stroke="#787878" stroke-width="24.6944" stroke-linecap="round"/>
  <line id="connector1pin" x1="2518.8332" y1="2264.8332" x2="2772.8332" y2="2264.8332" stroke="#787878" stroke-width="24.6944" stroke-linecap="round"/>
  <line id="connector6pin" x1="2010.8332" y1="486.8332" x2="2010.8332" y2="740.8332" stroke="#787878" stroke-width="24.6944" stroke-linecap="round"/>
  <line id="connector5pin" x1="2010.8332" y1="2518.8332" x2="2010.8332" y2="2772.8332" stroke="#787878" stroke-width="24.6944" stroke-linecap="round"/>


<g transform="translate(200 200) scale(36.1)  ">
<text font-family="Noto Sans" x="51" y="63" stroke="none" stroke-width="0" fill="#8c8c8c" font-size="3" text-anchor="start">GND</text>
<text font-family="Noto Sans" x="51" y="18" stroke="none" stroke-width="0" fill="#8c8c8c" font-size="3" text-anchor="start">VCC</text>
<text font-family="Noto Sans" x="16" y="21" stroke="none" stroke-width="0" fill="#8c8c8c" font-size="3" text-anchor="start">4</text>
<text font-family="Noto Sans" x="62" y="21" stroke="none" stroke-width="0" fill="#8c8c8c" font-size="3" text-anchor="start">3</text>
<text font-family="Noto Sans" x="16" y="56" stroke="none" stroke-width="0" fill="#8c8c8c" font-size="3" text-anchor="start">2</text>
<text font-family="Noto Sans" x="62" y="56" stroke="none" stroke-width="0" fill="#8c8c8c" font-size="3" text-anchor="start">1</text>

    <path d="M50,63.8V43.3" fill="none" stroke="#787878" stroke-width="0.75" stroke-linecap="round" stroke-opacity="0.5"/>
    <path d="M50,15.4v20.7" fill="none" stroke="#787878" stroke-width="0.75" stroke-linecap="round" stroke-opacity="0.5"/>

    <path fill="none" stroke="#000" stroke-width="0.9" stroke-linecap="round" d="M46.5,44.1h7.2"/>
    <path d="M53.7,36.5l-3.6,7.2l-3.6-7.2h3.6H53.7z" fill="#FFFFFF" stroke="#000000" stroke-width="0.9" stroke-linecap="round" stroke-linejoin="round"/>
    <g transform=" translate(27 28) scale(1 -1) translate(-27 -34)">
        <path d="M55.8,23.4l2.8-2.8" fill="none" stroke="#000000" stroke-width="0.5" stroke-linecap="round"/>
        <path d="M55.4,20.1l2.9-2.9" fill="none" stroke="#000000" stroke-width="0.5" stroke-linecap="round"/>
        <path d="M59.7,19.4l-1.1,2.5l-1.4-1.4L59.7,19.4z" stroke="#000000" stroke-width="0.2" stroke-linecap="round" stroke-linejoin="round"/>
        <path d="M59.4,16.2l-1.1,2.5l-1.4-1.4L59.4,16.2z" stroke="#000000" stroke-width="0.2" stroke-linecap="round" stroke-linejoin="round"/>
    </g>
<path d="M14.4,57.2h50.1" opacity="0.5" fill="none" stroke="#8C8C8C" stroke-width="0.7" stroke-linecap="round" enable-background="new"/>
<path d="M14.7,22h49.7" opacity="0.5" fill="none" stroke="#8C8C8C" stroke-width="0.7" stroke-linecap="round" enable-background="new"/>
<path d="M27.6,41.9v8.4" fill="none" stroke="#000000" stroke-width="0.96" stroke-linecap="round"/>
<path d="M27.6,29l3.6,12.5" fill="none" stroke="#000000" stroke-width="0.96" stroke-linecap="round"/>
<path d="M27.6,21.9V29" fill="none" stroke="#8C8C8C" stroke-width="0.7" stroke-linecap="round"/>
<path d="M27.6,57.5v-7.2" fill="none" stroke="#8C8C8C" stroke-width="0.7" stroke-linecap="round"/>
<circle cx="27.6" cy="21.8" r="1.2"/>
<circle cx="27.6" cy="57.4" r="1.2"/>
</g>

 </g>
</svg>
