<?xml version="1.0" encoding="UTF-8"?>
<!-- Created with Fritzing (http://www.fritzing.org/) -->
<svg width="1.5003in" height="2.6997in" version="1.2" viewBox="0 0 108.02 194.38" xmlns="http://www.w3.org/2000/svg">
  <g transform="translate(-6.1469 -5.9755)">
    <g id="schematic">
      <rect x="13.785" y="13.617" width="92.713" height="179.12" fill="none" stroke="#000" stroke-linecap="round" stroke-linejoin="round" stroke-width=".8783"/>
      <g fill="#555" font-family="OCRA" font-size="3.5">
        <text x="15.800001" y="36.569473">P0.0</text>
        <text x="15.800001" y="43.769474">P0.1</text>
        <text x="15.800001" y="50.969467">P0.10</text>
        <text x="15.800001" y="58.169262">P0.11</text>
        <text x="15.800001" y="65.369263">P0.12</text>
        <text x="15.800001" y="72.56926">P0.13</text>
        <text x="15.800001" y="79.769257">P0.14</text>
        <text x="15.800001" y="86.96946">P0.15</text>
        <text x="15.800001" y="94.169456">P0.2</text>
        <text x="15.800001" y="101.36947">P0.3</text>
        <text x="15.800001" y="108.56946">P0.4</text>
        <text x="15.800001" y="115.76949">P0.5</text>
        <text x="15.800001" y="122.96949">P0.6</text>
        <text x="15.800001" y="130.16949">P0.7</text>
        <text x="15.800001" y="137.36949">P0.8</text>
        <text x="15.800001" y="144.5695">P0.9</text>
        <text x="15.800001" y="151.7695">P1.0</text>
        <text x="15.800001" y="158.9695">P1.1</text>
        <text x="15.800001" y="166.16949">P1.2</text>
        <text x="15.800001" y="173.36949">P1.3</text>
        <g text-anchor="end">
          <text x="104.42117" y="36.209473">SWD_DEV</text>
          <text x="104.42117" y="43.409462">SWCLK_DEV</text>
          <text x="104.42117" y="50.609261">RESET_DEV#</text>
          <text x="104.42117" y="65.009262">PC_TXD_DEV</text>
          <text x="104.42117" y="72.209259">PC_RXD_DEV</text>
          <text x="104.42117" y="86.609467">P2.9</text>
          <text x="104.42117" y="93.809464">P2.8</text>
          <text x="104.42117" y="101.00946">P2.7</text>
          <text x="104.42117" y="108.20947">P2.6</text>
          <text x="104.42117" y="115.40951">P2.5</text>
          <text x="104.42117" y="122.6095">P2.4/RESET</text>
          <text x="104.42117" y="129.80951">P2.3</text>
          <text x="104.42117" y="137.00951">P2.2</text>
          <text x="104.42117" y="144.20952">P2.11</text>
          <text x="104.42117" y="151.40952">P2.10</text>
          <text x="104.42117" y="158.60951">P2.1</text>
          <text x="104.42117" y="165.80951">P2.0</text>
          <text x="104.42117" y="173.00951">P1.4</text>
        </g>
      </g>
      <g transform="translate(43.551 15.437)">
        <g transform="rotate(-90)">
          <text fill="#555555" font-family="OCRA" font-size="3.5" text-anchor="end">+3V3</text>
        </g>
      </g>
      <g transform="translate(50.751 15.437)">
        <g transform="rotate(-90)">
          <text fill="#555555" font-family="OCRA" font-size="3.5" text-anchor="end">VDDP/IOREF</text>
        </g>
      </g>
      <g transform="translate(57.951 15.437)">
        <g transform="rotate(-90)">
          <text fill="#555555" font-family="OCRA" font-size="3.5" text-anchor="end">PWRIN</text>
        </g>
      </g>
      <g transform="translate(65.151 15.437)">
        <g transform="rotate(-90)">
          <text fill="#555555" font-family="OCRA" font-size="3.5" text-anchor="end">+5V</text>
        </g>
      </g>
      <g transform="translate(72.351 15.437)">
        <g transform="rotate(-90)">
          <text fill="#555555" font-family="OCRA" font-size="3.5" text-anchor="end">VIN</text>
        </g>
      </g>
      <g transform="translate(79.551 15.437)">
        <g transform="rotate(-90)">
          <text fill="#555555" font-family="OCRA" font-size="3.5" text-anchor="end">VDD_DEV</text>
        </g>
      </g>
      <g transform="translate(65.037 191.73)">
        <g transform="rotate(-90)">
          <text fill="#555555" font-family="OCRA" font-size="3.5">GND</text>
        </g>
      </g>
      <text x="15.800001" y="180.56947" fill="#555555" font-family="OCRA" font-size="2.8">NC</text>
      <g transform="translate(-.47162 -7.051)">
        <g font-family="OCRA" font-size="3.5" text-align="center" text-anchor="middle" style="font-feature-settings:normal;font-variant-caps:normal;font-variant-ligatures:normal;font-variant-numeric:normal">
          <text x="61.861691" y="103.22443" font-family="OCRA" font-size="4.5" style="font-variant-caps:normal;font-variant-east-asian:normal;font-variant-ligatures:normal;font-variant-numeric:normal">XMC1100</text>
        </g>
      </g>
      <g transform="translate(-.70742 -6.0291)">
        <g font-family="OCRA" font-size="3.5" text-align="center" text-anchor="middle" style="font-feature-settings:normal;font-variant-caps:normal;font-variant-ligatures:normal;font-variant-numeric:normal">
          <text x="61.861691" y="106.72443" font-family="OCRA" font-size="4.5" style="font-variant-caps:normal;font-variant-east-asian:normal;font-variant-ligatures:normal;font-variant-numeric:normal">Boot Kit</text>
        </g>
      </g>
      <g fill="none" stroke="#555" stroke-linecap="round" stroke-width=".72">
        <line id="connector14pin" x1="6.5069" x2="13.361" y1="35.122" y2="35.122"/>
        <line id="connector35pin" x1="42.12" x2="42.12" y1="13.246" y2="6.4057"/>
        <line id="connector52pin" x1="49.343" x2="49.343" y1="13.175" y2="6.3355"/>
        <line id="connector49pin" x1="49.343" x2="49.343" y1="13.175" y2="6.3355"/>
        <line id="connector33pin" x1="49.343" x2="49.343" y1="13.175" y2="6.3355"/>
        <line id="connector24pin" x1="49.343" x2="49.343" y1="13.175" y2="6.3355"/>
        <line id="connector64pin" x1="56.538" x2="56.538" y1="13.175" y2="6.3355"/>
        <line id="connector36pin" x1="63.738" x2="63.738" y1="13.175" y2="6.3355"/>
        <line id="connector39pin" x1="70.938" x2="70.938" y1="13.175" y2="6.3355"/>
        <line id="connector58pin" x1="78.138" x2="78.138" y1="13.175" y2="6.3355"/>
        <line id="connector59pin" x1="78.138" x2="78.138" y1="13.175" y2="6.3355"/>
        <line id="connector13pin" x1="6.5069" x2="13.361" y1="42.317" y2="42.317"/>
        <line id="connector20pin" x1="6.5069" x2="13.361" y1="49.517" y2="49.517"/>
        <line id="connector21pin" x1="6.5069" x2="13.361" y1="56.717" y2="56.717"/>
        <line id="connector9pin" x1="6.5069" x2="13.361" y1="63.917" y2="63.917"/>
        <line id="connector22pin" x1="6.5069" x2="13.361" y1="71.117" y2="71.117"/>
        <line id="connector48pin" x1="6.5069" x2="13.361" y1="78.317" y2="78.317"/>
        <line id="connector47pin" x1="6.5069" x2="13.361" y1="85.517" y2="85.517"/>
        <line id="connector12pin" x1="6.5069" x2="13.361" y1="92.717" y2="92.717"/>
        <line id="connector11pin" x1="6.5069" x2="13.361" y1="99.917" y2="99.917"/>
        <line id="connector10pin" x1="6.5069" x2="13.361" y1="107.12" y2="107.12"/>
        <line id="connector18pin" x1="6.5069" x2="13.361" y1="114.32" y2="114.32"/>
        <line id="connector19pin" x1="6.5069" x2="13.361" y1="121.52" y2="121.52"/>
        <line id="connector25pin" x1="6.5069" x2="13.361" y1="128.72" y2="128.72"/>
        <line id="connector4pin" x1="6.5069" x2="13.361" y1="128.72" y2="128.72"/>
        <line id="connector8pin" x1="6.5069" x2="13.361" y1="135.92" y2="135.92"/>
        <line id="connector7pin" x1="6.5069" x2="13.361" y1="143.12" y2="143.12"/>
        <line id="connector23pin" x1="6.5069" x2="13.361" y1="150.32" y2="150.32"/>
        <line id="connector5pin" x1="6.5069" x2="13.361" y1="150.32" y2="150.32"/>
        <line id="connector26pin" x1="6.5069" x2="13.361" y1="157.52" y2="157.52"/>
        <line id="connector6pin" x1="6.5069" x2="13.361" y1="157.52" y2="157.52"/>
        <line id="connector17pin" x1="6.5069" x2="13.361" y1="164.72" y2="164.72"/>
        <line id="connector16pin" x1="6.5069" x2="13.361" y1="171.92" y2="171.92"/>
        <line id="connector55pin" x1="106.97" x2="113.81" y1="35.157" y2="35.157"/>
        <line id="connector56pin" x1="106.97" x2="113.81" y1="42.358" y2="42.358"/>
        <line id="connector66pin" x1="106.97" x2="113.81" y1="49.558" y2="49.558"/>
        <line id="connector62pin" x1="106.97" x2="113.81" y1="63.958" y2="63.958"/>
        <line id="connector53pin" x1="106.97" x2="113.81" y1="63.958" y2="63.958"/>
        <line id="connector61pin" x1="106.97" x2="113.81" y1="71.158" y2="71.158"/>
        <line id="connector54pin" x1="106.97" x2="113.81" y1="71.158" y2="71.158"/>
        <line id="connector42pin" x1="106.97" x2="113.81" y1="85.558" y2="85.558"/>
        <line id="connector41pin" x1="106.97" x2="113.81" y1="92.758" y2="92.758"/>
        <line id="connector31pin" x1="106.97" x2="113.81" y1="99.958" y2="99.958"/>
        <line id="connector40pin" x1="106.97" x2="113.81" y1="107.16" y2="107.16"/>
        <line id="connector30pin" x1="106.97" x2="113.81" y1="114.36" y2="114.36"/>
        <line id="connector34pin" x1="106.97" x2="113.81" y1="121.56" y2="121.56"/>
        <line id="connector27pin" x1="106.97" x2="113.81" y1="121.56" y2="121.56"/>
        <line id="connector2pin" x1="106.97" x2="113.81" y1="128.76" y2="128.76"/>
        <line id="connector45pin" x1="106.97" x2="113.81" y1="135.96" y2="135.96"/>
        <line id="connector44pin" x1="106.97" x2="113.81" y1="143.16" y2="143.16"/>
        <line id="connector43pin" x1="106.97" x2="113.81" y1="150.36" y2="150.36"/>
        <line id="connector1pin" x1="106.97" x2="113.81" y1="157.56" y2="157.56"/>
        <line id="connector0pin" x1="106.97" x2="113.81" y1="164.76" y2="164.76"/>
        <line id="connector15pin" x1="106.97" x2="113.81" y1="171.96" y2="171.96"/>
        <line id="connector65pin" x1="63.732" x2="63.732" y1="193.16" y2="200"/>
        <line id="connector63pin" x1="63.732" x2="63.732" y1="193.16" y2="200"/>
        <line id="connector60pin" x1="63.732" x2="63.732" y1="193.16" y2="200"/>
        <line id="connector57pin" x1="63.732" x2="63.732" y1="193.16" y2="200"/>
        <line id="connector51pin" x1="63.732" x2="63.732" y1="193.16" y2="200"/>
        <line id="connector50pin" x1="63.732" x2="63.732" y1="193.16" y2="200"/>
        <line id="connector46pin" x1="63.732" x2="63.732" y1="193.16" y2="200"/>
        <line id="connector38pin" x1="63.732" x2="63.732" y1="193.16" y2="200"/>
        <line id="connector37pin" x1="63.732" x2="63.732" y1="193.16" y2="200"/>
        <line id="connector29pin" x1="63.732" x2="63.732" y1="193.16" y2="200"/>
        <line id="connector28pin" x1="63.732" x2="63.732" y1="193.16" y2="200"/>
        <line id="connector3pin" x1="63.732" x2="63.732" y1="193.16" y2="200"/>
        <line id="connector32pin" x1="6.5069" x2="13.361" y1="179.12" y2="179.12"/>
      </g>
    </g>
  </g>
</svg>
