<?xml version="1.0" encoding="UTF-8"?>
<!DOCTYPE svg>
<!-- Creator: CorelDRAW X6 -->
<svg width="1.2in" height="1.7in" clip-rule="evenodd" fill-rule="evenodd" image-rendering="optimizeQuality" shape-rendering="geometricPrecision" text-rendering="geometricPrecision" version="1.1" viewBox="0 0 1200 1700" xmlns="http://www.w3.org/2000/svg" xmlns:xml="http://www.w3.org/XML/1998/namespace">
	<desc>
		<referenceFile>photon_DIP_24_700mil_schematic.svg</referenceFile>
	</desc>
<g id="schematic">
	<path d="m1100 106h-1e3v-11h1e3l5 5-5 6zm0 0v-11h1 1v1h1l1 1v1h1v1 1 1 1 1h-1v1h-1v1h-1-1v1h-1zm-5 1494v-1500h10v1500l-5 6-5-6zm0 0h10v1 1 1h-1v1h-1v1h-1-1v1h-1-1v-1h-1-1v-1h-1v-1h-1v-1-1-1zm-995-5h1e3v11h-1e3l-5-6 5-5zm0 0v11h-1v-1h-1-1v-1h-1v-1h-1v-1-1-1-1-1l1-1v-1h1 1v-1h1 1zm5-1495v1500h-10v-1500l5-5 5 5zm0 0h-10v-1-1l1-1v-1h1 1v-1h1 1 1 1v1h1l1 1v1h1v1 1z" fill-rule="nonzero"/>
	<g fill-rule="nonzero">
		<path d="m388 136h5l-11 34h-4l-12-34h5l7 22c0 1 0 2 1 4 0 1 0 2 1 3 0-1 0-2 1-3 0-2 0-3 1-5l6-21zm19 34h-12v-2l4-1v-27l-4-1v-3h12v3l-4 1v27l4 1v2zm32 0h-6l-15-28h-1c0 1 1 2 1 4v3 3 18h-4v-34h5l16 28v-4-1c0-1-1-1-1-2v-1-1-19h5v34z"/>
		<path d="m174 516h-4v-30h-10v-4h24v4h-10v30zm36 0h-5l-8-15-8 15h-5l11-18-10-16h5l7 13 8-13h4l-9 16 10 18z"/>
		<path d="m169 602v14h-5v-34h9c4 0 7 1 9 3 2 1 3 4 3 7 0 1-1 2-1 3s-1 2-1 3c-1 1-2 1-3 2 0 0-1 1-2 1l9 15h-5l-8-14h-5zm0-3h3c2 0 3-1 4-1s2-1 2-1l2-2v-3-3c-1 0-1-1-2-1 0-1-1-1-2-2h-4-3v13zm44 17h-4l-9-15-8 15h-4l10-18-10-16h5l8 13 7-13h5l-10 16 10 18z"/>
		<path d="m585 144v3c-1 1-1 2-2 3 0 0-1 1-2 1-1 1-2 1-3 1 3 1 5 2 6 3 2 1 2 3 2 5v4c-1 2-2 3-3 4-1 0-2 1-3 2h-6-5c-1 0-3-1-4-1v-4c2 0 3 1 5 1 1 1 3 1 4 1s3 0 4-1c1 0 2 0 2-1l2-2v-3-2c-1-1-1-2-2-2-1-1-2-1-3-1-1-1-2-1-4-1h-3v-3h3c2 0 3 0 4-1 1 0 1 0 2-1l2-2v-3-2c-1 0-1-1-1-1-1-1-2-1-2-1-1-1-2-1-3-1s-3 1-4 1c-1 1-2 1-4 2l-2-3c1 0 2-1 2-1 1 0 2-1 3-1 0 0 1-1 2-1h3 5c1 1 2 1 3 2s1 2 2 3v3zm26-8h5l-11 34h-5l-11-34h5l7 22c0 1 0 2 1 4 0 1 0 2 1 3v-3c1-2 1-3 2-5l6-21zm27 8c0 1 0 2-1 3 0 1 0 2-1 3-1 0-1 1-2 1-1 1-2 1-3 1l6 3c1 1 2 3 2 5s0 3-1 4c0 2-1 3-2 4-1 0-2 1-4 2h-5-5c-2 0-3-1-4-1v-4c1 0 3 1 4 1 2 1 3 1 5 1 1 0 2 0 3-1 1 0 2 0 3-1 0-1 1-1 1-2 1-1 1-2 1-3s0-2-1-2c0-1-1-2-2-2 0-1-1-1-2-1-1-1-3-1-4-1h-3v-3h3c1 0 2 0 3-1 1 0 2 0 3-1 0-1 1-1 1-2 1-1 1-2 1-3 0 0 0-1-1-2 0 0 0-1-1-1 0-1-1-1-2-1 0-1-1-1-2-1-2 0-3 1-4 1-2 1-3 1-4 2l-2-3c1 0 1-1 2-1s1-1 2-1 2-1 3-1h3 4c2 1 3 1 3 2 1 1 2 2 2 3 1 1 1 2 1 3z"/>
		<path d="m169 303v14h-5v-34h9c4 0 7 1 9 3 2 1 3 4 3 7 0 1-1 2-1 3s-1 2-1 3c-1 1-2 1-3 2 0 0-1 0-2 1l9 15h-5l-8-14h-5zm0-4h3 4c1 0 2-1 2-1 1-1 1-2 2-2v-3-3l-2-2s-1-1-2-1h-4-3v12zm41 9c0 1 0 3-1 4 0 1-1 2-2 3s-2 1-4 2h-4-5c-2 0-3-1-4-1v-4h2c0 1 1 1 2 1h2c1 1 2 1 2 1 3 0 5-1 6-2s2-2 2-4c0-1 0-1-1-2 0-1 0-1-1-2 0 0-1-1-2-1-1-1-2-1-4-2-1 0-2-1-3-1l-3-3s-1-1-1-2-1-2-1-4c0-1 1-2 1-3 1-1 1-2 2-3s2-1 3-2h5 4c2 1 3 1 4 2l-1 3c-1 0-2-1-4-1h-3c-2 0-4 0-5 1s-1 2-1 3v3l3 3c1 0 2 1 4 1 1 1 2 1 3 2 1 0 2 1 3 2s1 1 1 2c1 1 1 3 1 4zm16 9h-4v-30h-9v-4h23v4h-10v30z"/>
		<path d="m468 1544h11v16c-1 0-2 1-3 1h-2c-1 1-2 1-3 1h-3c-3 0-5-1-7-1-1-1-3-2-4-4-2-1-3-3-3-5-1-2-1-5-1-7 0-3 0-5 1-8 1-2 2-4 3-5s3-3 5-3c2-1 5-2 7-2s4 1 5 1c2 0 3 1 4 1l-1 4c-1 0-1 0-2-1h-2c-1 0-1-1-2-1h-2c-2 0-4 0-5 1-2 1-3 2-4 3s-1 2-2 4c0 2-1 4-1 6s1 3 1 5 1 3 2 4c1 2 2 2 4 3 1 1 3 1 5 1h2 1 2l1-1v-10h-7v-3zm44 17h-5l-16-27v3 3 3 18h-4v-33h5l16 27v-3-1-2-1-2-18h4v33zm34-17c0 3 0 6-1 8s-2 4-3 5c-2 2-3 3-5 3-2 1-5 1-7 1h-9v-33h10c2 0 4 0 6 1s3 2 5 3c1 1 2 3 3 5s1 5 1 7zm-5 0v-5c-1-2-2-3-3-4 0-1-2-2-3-3-1 0-3-1-5-1h-4v27h3c4 0 7-1 9-4 2-2 3-5 3-10z"/>
		<path d="m1005 700c0 3-1 6-1 8-1 2-2 4-4 5-1 2-3 3-5 3-2 1-4 1-7 1h-8v-33h9c3 0 5 0 7 1s3 2 5 3c1 1 2 3 3 5 0 2 1 5 1 7zm-5 0c0-2 0-4-1-5 0-2-1-3-2-4l-3-3h-5-5v26h4c4 0 7-1 9-4 2-2 3-5 3-10zm14 17 13-29h-17v-4h21v3l-12 30h-5z"/>
		<path d="m1005 800c0 3-1 6-1 8-1 2-2 4-4 5-1 2-3 3-5 3-2 1-4 1-7 1h-8v-33h9c3 0 5 0 7 1s3 2 4 3c2 1 3 3 4 5 0 2 1 5 1 7zm-5 0c0-2 0-4-1-5 0-2-1-3-2-4l-3-3c-2 0-3-1-5-1h-5v27h4c4 0 7-1 9-4 2-2 3-5 3-10zm10 3v-5c1-1 1-3 1-4 1-2 1-3 2-4 1-2 1-3 3-4 1-1 2-1 3-2 2 0 4-1 6-1h1 1c0 1 1 1 1 1h1v3h-2-2-4c-1 1-2 1-2 2-1 0-2 1-2 2-1 1-1 2-2 3v3c0 1 0 2-1 3h1s0-1 1-1c0-1 1-1 1-1 1-1 2-1 2-1 1 0 2-1 3-1s3 1 4 1c1 1 2 1 3 2s1 2 2 3v5 4c-1 2-2 3-2 4-1 1-2 2-4 2-1 1-2 1-4 1-1 0-3 0-4-1-2-1-3-2-4-3s-1-2-2-4-1-4-1-7zm11 11h3l2-2s0-1 1-2v-3-3c0-1-1-2-1-2-1-1-1-2-2-2h-3-3c0 1-1 1-2 2 0 0-1 1-1 2 0 0-1 1-1 2s1 2 1 3 0 2 1 3c1 0 1 1 2 2h3z"/>
		<path d="m1005 900c0 3 0 6-1 8s-2 4-3 5c-2 2-3 3-5 3-2 1-5 1-7 1h-9v-33h10c2 0 4 0 6 1s4 2 5 3 2 3 3 5 1 5 1 7zm-4 0c0-2-1-4-1-5-1-2-1-3-2-4s-3-2-4-3c-1 0-3-1-5-1h-4v27h3c4 0 7-1 10-4 2-2 3-5 3-10zm19-3h5c1 1 2 2 3 2 1 1 2 2 2 3 1 2 1 3 1 5 0 1 0 3-1 4 0 2-1 3-2 4s-2 2-4 2c-1 1-3 1-5 1h-2c-1 0-2 0-2-1h-2c-1 0-2-1-2-1v-4c1 0 1 1 2 1 0 0 1 1 2 1h2 2 4c1 0 1-1 2-1 1-1 1-2 1-3 1-1 1-2 1-3 0-2-1-4-2-5s-3-2-6-2h-1c-1 0-1 1-2 1h-1-1l-2-1 1-16h16v4h-12l-1 9h2 2z"/>
		<path d="m1003 1e3c0 3 0 6-1 8 0 2-1 4-3 5-1 2-3 3-5 3-2 1-4 1-7 1h-8v-33h9c2 0 5 0 6 1 2 1 4 2 5 3 2 1 3 3 3 5 1 2 1 5 1 7zm-4 0c0-2 0-4-1-5 0-2-1-3-2-4s-2-2-4-3c-1 0-3-1-4-1h-5v27h4c4 0 7-1 9-4 2-2 3-5 3-10zm32 10h-5v7h-4v-7h-15v-4l15-22h4v22h5v4zm-9-4v-8-3-3s1-1 1-2v-2h-1v1 1c-1 0-1 1-1 1 0 1 0 1-1 1l-9 14h11z"/>
		<path d="m1005 1100c0 3 0 6-1 8s-2 4-3 5c-1 2-3 3-5 3-2 1-4 1-7 1h-8v-33h9c2 0 4 0 6 1s4 2 5 3 2 3 3 5 1 5 1 7zm-4 0c0-2 0-4-1-5 0-2-1-3-2-4s-2-2-4-3c-1 0-3-1-5-1h-4v27h4c4 0 7-1 9-4 2-2 3-5 3-10zm29-8v3l-2 2c0 1-1 1-2 2-1 0-2 1-3 1 3 0 5 1 6 2 2 2 2 4 2 6v4l-3 3c-1 1-2 2-4 2-1 1-3 1-5 1h-5c-1-1-3-1-4-2v-4c1 1 3 1 4 2h5 4c1 0 1-1 2-1 1-1 1-2 2-2v-3c0-1 0-2-1-3 0-1-1-1-1-2-1 0-2-1-3-1h-4-3v-4h3 4c1 0 1-1 2-1 1-1 1-2 1-2 1-1 1-2 1-3v-2l-2-2s-1 0-1-1h-3c-1 0-3 0-4 1-1 0-3 1-4 2l-2-3 2-2c1 0 2 0 2-1h3c1-1 2-1 3-1 2 0 3 1 5 1 1 0 2 1 3 2 1 0 1 1 2 2v4z"/>
		<path d="m1005 1200c0 3 0 6-1 8s-2 4-3 5c-1 2-3 3-5 3-2 1-5 1-7 1h-8v-33h9c2 0 4 0 6 1s4 2 5 3 2 3 3 5 1 5 1 7zm-4 0c0-2-1-4-1-5-1-2-1-3-2-4s-2-2-4-3c-1 0-3-1-5-1h-4v27h4c4 0 7-1 9-4 2-2 3-5 3-10zm30 17h-21v-3l8-9c2-1 3-2 3-3l3-3c0-1 1-2 1-3 1-1 1-2 1-3s0-2-1-3c0-1 0-1-1-2 0 0-1 0-2-1h-2c-1 0-2 0-4 1-1 0-2 1-3 2l-2-3s1-1 2-1c0-1 1-1 2-1 1-1 2-1 2-1 1-1 2-1 3-1 2 0 3 1 4 1 2 0 3 1 3 2 1 1 2 1 2 3 1 1 1 2 1 3 0 2 0 3-1 4 0 1-1 2-1 4l-3 3c-1 1-2 2-3 4l-7 6v1h16v3z"/>
		<path d="m667 1543h11v17h-2c-1 1-2 1-3 1h-3-3c-2 0-4 0-6-1s-4-2-5-3c-1-2-2-3-3-6-1-2-1-4-1-7 0-2 1-5 1-7 1-2 2-4 3-5 2-2 4-3 6-4s4-1 7-1h4c2 1 3 1 5 2l-2 4c0-1-1-1-2-1 0 0-1-1-2-1h-2-2c-2 0-3 0-5 1-1 0-2 1-3 2s-2 3-3 5v5 6c1 1 1 3 2 4s2 2 4 3c1 0 3 1 5 1h2c1 0 1 0 2-1h1 1v-10h-7v-4zm44 18h-5l-16-28v4c0 1 0 2 1 3v3 18h-5v-34h6l15 28h1c-1-1-1-2-1-3v-2-1-2-1-19h4v34zm34-17c0 3 0 5-1 7l-3 6c-1 1-3 2-5 3s-4 1-7 1h-8v-34h9c2 0 4 1 6 1 2 1 4 2 5 4 1 1 3 3 3 5 1 2 1 4 1 7zm-4 0c0-2 0-4-1-6 0-1-1-3-2-4s-2-2-4-2c-1-1-3-1-5-1h-4v26h4c4 0 7-1 9-3s3-6 3-10z"/>
		<path d="m507 327c0 2-1 5-1 7-1 2-2 4-4 6s-4 3-7 4-6 2-10 2h-6v23h-8v-59h15c4 0 7 0 9 1 3 0 5 2 7 3 2 2 3 3 4 6 0 2 1 4 1 7zm-28 12h5 6c2-1 4-1 5-2s2-3 3-4c1-2 1-3 1-6 0-4-1-6-3-8-3-2-6-3-11-3h-6v23zm67 30v-29c0-3-1-6-2-8-1-1-4-2-7-2-2 0-4 0-5 1-2 0-3 1-4 3-1 1-1 3-2 5v7 23h-8v-63h8v19l-1 5h1c0-1 1-2 2-3s2-1 3-2c1 0 2-1 4-1h4c5 0 8 1 11 3 2 3 4 7 4 13v29h-8zm58-22c0 3-1 7-2 10-1 2-2 5-4 7-1 2-3 3-6 4-2 1-5 2-8 2s-5-1-8-2c-2-1-4-2-6-4-1-2-3-5-4-7-1-3-1-7-1-10 0-4 0-7 1-10s2-5 4-7 4-4 6-5c3-1 5-1 8-1s6 0 8 1 4 3 6 5 3 4 4 7 2 6 2 10zm-32 0c0 5 1 10 3 12 2 3 5 5 9 5s7-2 9-5c2-2 3-7 3-12 0-6-1-10-3-13s-5-4-9-4-7 1-9 4-3 7-3 13zm57 17h2s1 0 1-1h2 1v6h-1-2c-1 1-2 1-2 1h-2c-2 0-4 0-5-1-1 0-3-1-4-2s-2-3-2-4c-1-2-1-4-1-7v-26h-6v-3l6-4 3-9h4v10h12v6h-12v26c0 2 1 4 2 6 0 1 2 2 4 2zm51-17c0 3 0 7-1 10-1 2-3 5-4 7-2 2-4 3-6 4-3 1-6 2-9 2-2 0-5-1-7-2-3-1-5-2-6-4-2-2-4-5-4-7-1-3-2-7-2-10 0-4 1-7 1-10 1-3 3-5 4-7 2-2 4-4 7-5 2-1 5-1 8-1 2 0 5 0 7 1 3 1 5 3 7 5 1 2 3 4 4 7s1 6 1 10zm-31 0c0 5 1 10 3 12 1 3 4 5 9 5 4 0 7-2 9-5 1-2 2-7 2-12 0-6-1-10-2-13-2-3-5-4-9-4-5 0-8 1-10 4-1 3-2 7-2 13zm71 22v-29c0-3-1-6-3-8-1-1-3-2-6-2-2 0-4 0-6 1-1 0-2 1-3 3-1 1-2 3-2 5-1 2-1 4-1 7v23h-7v-45h6l1 6 3-3c1-1 2-1 3-2 1 0 2-1 3-1h4c5 0 9 1 11 3 3 3 4 7 4 13v29h-7z"/>
		<path d="m766 136h5l-11 34h-5l-11-34h4l7 22c1 1 1 3 1 4 1 1 1 3 1 4 1-1 1-3 1-4 1-1 1-3 2-4l6-22zm10 0h9 6c1 1 3 1 4 2 1 0 1 1 2 2 0 2 1 3 1 5 0 1 0 2-1 2 0 1-1 2-1 3-1 0-1 1-2 1-1 1-2 1-3 1 1 1 2 1 3 1 1 1 2 1 2 2 1 0 2 1 2 2s1 2 1 3c0 2-1 3-1 5-1 1-1 2-2 3s-3 1-4 2h-5-11v-34zm4 15h6c1 0 3-1 3-1 1 0 2 0 3-1 0 0 1-1 1-2v-2c0-2 0-3-2-4-1-1-3-1-5-1h-6v11zm0 3v13h7c1 0 2 0 3-1 1 0 2-1 2-1l2-2v-3-2c-1-1-1-2-2-2 0-1-1-1-2-1-1-1-2-1-4-1h-6zm46 16-3-10h-13l-4 10h-5l13-34h4l13 34h-5zm-5-14-3-10c0-1-1-1-1-1v-2s0-1-1-1v-2 2l-1 1v2 1l-4 10h10zm22 14h-5v-30h-10v-4h25v4h-10v30z"/>
		<path d="m179 682h5l5 21c0 1 1 1 1 2v3c1 1 1 2 1 2v2s0-1 1-2v-2-2c0-1 1-2 1-3l5-21h4l-8 35h-5l-6-22c0-1 0-2-1-3v-2c0-1-1-2-1-3v3c0 1-1 1-1 2v3l-6 22h-5l-9-35h5l5 21c0 1 1 2 1 3v2c0 1 0 2 1 2v2-2s0-1 1-2v-3c0-1 0-1 1-2l5-21zm52 35h-5l-11-16-3 2v14h-5v-35h5v18l3-4 10-14h5l-12 16 13 19zm25-24v4c-1 1-1 2-2 3s-3 2-4 3c-2 0-4 1-6 1h-4v13h-4v-35h8c2 0 4 1 6 1 1 1 2 1 3 2l3 3v5zm-16 7h3c2 0 3 0 4-1 1 0 2 0 3-1 0 0 1-1 1-2 1-1 1-2 1-3 0-2-1-4-2-5s-3-2-6-2h-4v14z"/>
		<path d="m190 917-4-11h-13l-4 11h-5l13-35h4l13 35h-4zm-6-15-3-10v-1c-1 0-1 0-1-1v-1c0-1-1-1-1-2v2s0 1-1 1v1 1l-4 10h10zm23-6c2 0 3 0 4 1 2 0 3 1 4 1 1 1 2 2 2 4 1 1 1 2 1 4s0 3-1 5c0 1-1 3-2 4s-2 1-4 2c-2 0-3 1-5 1h-3c-1-1-1-1-2-1h-2c-1-1-1-1-2-1v-4c1 0 1 0 2 1h2c1 1 2 1 3 1h2 3c1-1 2-1 3-2 0 0 1-1 1-2 1-1 1-2 1-3 0-3-1-4-2-6-2-1-4-1-6-1h-2-1-2-1l-2-1 1-17h17v4h-13l-1 10h2 3z"/>
		<path d="m190 799c0 3 0 5-1 7l-3 6-6 3c-2 1-4 1-7 1h-9v-34h10c3 0 5 0 7 1 2 0 3 1 5 3 1 1 2 3 3 5s1 5 1 8zm-5 0v-6c-1-2-2-3-3-4-1-2-2-2-3-3-2 0-3-1-5-1h-5v28h4c4 0 7-2 9-4s3-6 3-10zm33 17-4-11h-13l-4 11h-4l12-35h4l13 35h-4zm-6-14-3-10v-2c-1 0-1 0-1-1v-1c0-1-1-1-1-2v2 1c-1 1-1 1-1 2v1l-4 10h10zm28-17c-1 0-3 0-4 1-2 1-3 2-4 3s-1 2-2 4c0 2-1 4-1 6s1 4 1 6 1 3 2 4 2 2 4 3c1 1 3 1 4 1 2 0 3 0 4-1h4v3c0 1-1 1-2 1h-2c0 1-1 1-2 1h-2c-3 0-5-1-7-2-2 0-3-2-5-3-1-2-2-4-2-6-1-2-1-4-1-7s0-5 1-7c0-3 1-4 3-6 1-2 3-3 5-4 2 0 4-1 6-1s4 0 5 1c2 0 3 0 5 1l-2 4c-1-1-2-1-4-1-1-1-2-1-4-1z"/>
		<path d="m190 1017-4-11h-13l-4 11h-5l13-35h4l13 35h-4zm-6-15-3-10v-1c-1 0-1 0-1-1v-1c0-1-1-1-1-2v2s0 1-1 1v1 1l-4 10h10zm36 7h-5v8h-4v-8h-16v-3l15-24h5v23h5v4zm-9-4v-8-3-3-2-2s-1 0-1 1v1l-1 1v1l-10 14h12z"/>
		<path d="m190 1117-4-11h-13l-4 11h-5l13-35h4l13 35h-4zm-6-15-3-10v-1c-1 0-1 0-1-1v-1c0-1-1-1-1-2v2s0 1-1 1v1 1l-4 10h10zm33-11c0 1 0 2-1 3 0 1-1 2-1 2-1 1-2 2-3 2 0 0-2 1-3 1 3 0 5 1 7 3 1 1 2 3 2 5s0 3-1 4c0 2-1 3-2 4s-3 1-4 2c-2 0-4 1-6 1s-3 0-5-1c-1 0-3-1-4-1v-4c1 0 3 1 4 1 2 1 4 1 5 1h4c1-1 2-1 3-2 0 0 1-1 1-2s1-2 1-3-1-2-1-3c-1 0-1-1-2-1-1-1-2-1-3-2h-4-3v-4h3 4c1 0 2-1 2-1l2-2v-3-2c0-1-1-2-1-2-1 0-1-1-2-1h-2-5c-1 1-2 2-4 3l-2-3 2-2c1 0 2-1 3-1 0 0 1-1 2-1h3c2 0 4 0 5 1 1 0 2 1 3 1 1 1 2 2 2 3 1 1 1 2 1 4z"/>
		<path d="m190 1217-4-11h-13l-4 11h-5l13-35h4l13 35h-4zm-6-15-3-10v-1c-1 0-1 0-1-1v-1c0-1-1-1-1-2v2s0 1-1 1v1 1l-4 10h10zm34 15h-22v-4l12-12c1-1 2-2 2-3 1-1 1-2 2-3v-4-2c0-1-1-1-1-2-1 0-1-1-2-1h-2c-2 0-3 0-4 1-2 0-3 1-4 2l-2-3c0-1 1-1 2-2 0 0 1 0 2-1 1 0 2 0 3-1h3c1 0 3 0 4 1 1 0 2 1 3 1 1 1 1 2 2 3 0 2 1 3 1 4 0 2-1 3-1 4s-1 3-2 4c0 1-1 2-2 3l-4 4-6 7h16v4z"/>
		<path d="m190 1317-4-11h-13l-4 11h-5l13-35h4l13 35h-4zm-6-15-3-10v-1c-1 0-1 0-1-1v-1c0-1-1-1-1-2v2s0 1-1 1v1 1l-4 10h10zm27 15h-4v-22-2-2-2-2s-1 0-1 1c-1 0-1 1-1 1s-1 0-1 1l-3 2-3-2 9-8h4v35z"/>
		<path d="m190 1417-4-11h-13l-4 11h-5l13-35h4l13 35h-4zm-6-15-3-10v-1c-1 0-1 0-1-1v-1c0-1-1-1-1-2v2s0 1-1 1v1 1l-4 10h10zm35-2c0 3-1 5-1 7 0 3-1 4-2 6-1 1-2 3-3 3-2 1-4 2-6 2-1 0-3-1-4-2-2 0-3-2-4-3-1-2-1-3-2-6 0-2-1-4-1-7s1-6 1-8 1-4 2-5c1-2 2-3 3-4 2-1 3-1 5-1s4 0 5 1c2 1 3 2 4 4 1 1 1 3 2 5 0 2 1 5 1 8zm-18 0v6c0 2 1 3 1 4 1 2 1 3 2 3 1 1 2 1 3 1 2 0 3 0 4-1 0 0 1-1 2-3 0-1 1-2 1-4v-6-6c0-2-1-4-1-5-1-1-2-2-2-3h-4-3c-1 1-1 2-2 3 0 1-1 3-1 5v6z"/>
		<path d="m1003 1400c0 3 0 5-1 7-1 3-2 4-3 6-2 1-3 3-5 3-3 1-5 1-8 1h-8v-34h9c3 0 5 0 7 1 2 0 4 2 5 3s2 3 3 5 1 5 1 8zm-4 0c0-2-1-4-1-6-1-2-1-3-2-4s-3-2-4-3c-2 0-3-1-5-1h-5v28h4c4 0 7-2 9-4 3-2 4-6 4-10zm32 0c0 3 0 5-1 8 0 2-1 4-2 5-1 2-2 3-3 4-2 0-3 1-5 1s-4-1-5-1c-2-1-3-2-4-4-1-1-1-3-2-5v-8-8c1-2 1-4 2-5 1-2 2-3 4-4 1 0 3-1 5-1 1 0 3 1 5 1 1 1 2 2 3 4 1 1 2 3 2 5 1 3 1 5 1 8zm-18 0v6c1 2 1 3 1 5l2 2c1 1 2 1 4 1 1 0 2 0 3-1 1 0 1-1 2-2 0-1 1-3 1-5v-6-6c0-2-1-3-1-5-1-1-1-2-2-2-1-1-2-1-3-1-2 0-3 0-4 1l-2 2c0 2 0 3-1 5v6z"/>
		<path d="m1006 1300c0 3 0 5-1 8-1 2-2 4-3 5-1 2-3 3-5 3-2 1-5 2-7 2h-9v-35h9c3 0 5 0 7 1s4 2 5 3c1 2 3 3 3 5 1 3 1 5 1 8zm-4 0c0-2-1-4-1-6-1-2-1-3-2-4s-3-2-4-3h-5-5v27h4c4 0 7-1 10-4 2-2 3-5 3-10zm24 18h-4v-22-2-3-2-2 1c-1 0-1 0-1 1h-1s0 1-1 1l-3 3-2-3 9-7h3v35z"/>
	</g>
	<path id="connector52pin" d="m394 100h12v1h-1v1 1 1h-1v1h-1-1v1h-1-1-1-1l-1-1h-1v-1h-1v-1-1h-1v-1-1zm12-100v100h-12v-100h12zm0 0h-12v-1h1v-1-1h1v-1h1v-1h1 1 1 1 1 1v1h1v1h1v1 1 1h1z" fill-rule="nonzero"/>
	<rect id="connector52terminal" x="399.99" y="-5.111" width=".024" height=".222" fill="none" stroke-width="0"/>
	<path id="connector50pin" d="m0 495v11h-1-1v-1h-1-1v-1h-1v-1-1h-1v-1-1-1h1v-1-1h1v-1h1v-1h1 1 1zm100 11h-100v-11h100v11zm0 0v-11h1 1 1v1h1v1h1v1 1h1v1 1 1h-1v1 1h-1v1h-1-1v1h-1-1z" fill-rule="nonzero"/>
	<rect id="connector50terminal" x="-6.112" y="500.49" width=".224" height=".022" fill="none" stroke-width="0"/>
	<path id="connector49pin" d="m0 595v11h-1-1v-1h-1-1v-1h-1v-1-1h-1v-1-1-1h1v-1-1h1v-1h1v-1h1 1 1zm100 11h-100v-11h100v11zm0 0v-11h1 1 1v1h1v1h1v1 1h1v1 1 1h-1v1 1h-1v1h-1-1v1h-1-1z" fill-rule="nonzero"/>
	<rect id="connector49terminal" x="-6.112" y="600.49" width=".224" height=".022" fill="none" stroke-width="0"/>
	<path id="connector48pin" d="m0 695v11h-1-1v-1h-1-1v-1h-1v-1-1h-1v-1-1-1h1v-1-1h1v-1h1v-1h1 1 1zm100 11h-100v-11h100v11zm0 0v-11h1 1 1v1h1v1h1v1 1h1v1 1 1h-1v1 1h-1v1h-1-1v1h-1-1z" fill-rule="nonzero"/>
	<rect id="connector48terminal" x="-6.112" y="700.49" width=".224" height=".022" fill="none" stroke-width="0"/>
	<path id="connector47pin" d="m0 795v11h-1-1v-1h-1-1v-1h-1v-1-1h-1v-1-1-1h1v-1-1h1v-1h1v-1h1 1 1zm100 11h-100v-11h100v11zm0 0v-11h1 1 1v1h1v1h1v1 1h1v1 1 1h-1v1 1h-1v1h-1-1v1h-1-1z" fill-rule="nonzero"/>
	<rect id="connector47terminal" x="-6.112" y="800.49" width=".224" height=".022" fill="none" stroke-width="0"/>
	<path id="connector46pin" d="m0 895v11h-1-1v-1h-1-1v-1h-1v-1-1h-1v-1-1-1h1v-1-1h1v-1h1v-1h1 1 1zm100 11h-100v-11h100v11zm0 0v-11h1 1 1v1h1v1h1v1 1h1v1 1 1h-1v1 1h-1v1h-1-1v1h-1-1z" fill-rule="nonzero"/>
	<rect id="connector46terminal" x="-6.112" y="900.49" width=".224" height=".022" fill="none" stroke-width="0"/>
	<path id="connector45pin" d="m0 995v11h-1-1v-1h-1-1v-1h-1v-1-1h-1v-1-1-1h1v-1-1h1v-1h1v-1h1 1 1zm100 11h-100v-11h100v11zm0 0v-11h1 1 1v1h1v1h1v1 1h1v1 1 1h-1v1 1h-1v1h-1-1v1h-1-1z" fill-rule="nonzero"/>
	<rect id="connector45terminal" x="-6.112" y="1000.5" width=".224" height=".022" fill="none" stroke-width="0"/>
	<path id="connector44pin" d="m0 1095v11h-1-1v-1h-1-1v-1h-1v-1-1h-1v-1-1-1h1v-1-1h1v-1h1v-1h1 1 1zm100 11h-100v-11h100v11zm0 0v-11h1 1 1v1h1v1h1v1 1h1v1 1 1h-1v1 1h-1v1h-1-1v1h-1-1z" fill-rule="nonzero"/>
	<rect id="connector44terminal" x="-6.112" y="1100.5" width=".224" height=".022" fill="none" stroke-width="0"/>
	<path id="connector43pin" d="m0 1195v11h-1-1v-1h-1-1v-1h-1v-1-1h-1v-1-1-1h1v-1-1h1v-1h1v-1h1 1 1zm100 11h-100v-11h100v11zm0 0v-11h1 1 1v1h1v1h1v1 1h1v1 1 1h-1v1 1h-1v1h-1-1v1h-1-1z" fill-rule="nonzero"/>
	<rect id="connector43terminal" x="-6.112" y="1200.5" width=".224" height=".022" fill="none" stroke-width="0"/>
	<path id="connector42pin" d="m0 1295v11h-1-1v-1h-1-1v-1h-1v-1-1h-1v-1-1-1h1v-1-1h1v-1h1v-1h1 1 1zm100 11h-100v-11h100v11zm0 0v-11h1 1 1v1h1v1h1v1 1h1v1 1 1h-1v1 1h-1v1h-1-1v1h-1-1z" fill-rule="nonzero"/>
	<rect id="connector42terminal" x="-6.112" y="1300.5" width=".224" height=".022" fill="none" stroke-width="0"/>
	<path id="connector64pin" d="m594 100h12v1h-1v1 1 1h-1v1h-1-1v1h-1-1-1-1l-1-1h-1v-1h-1v-1-1h-1v-1-1zm12-100v100h-12v-100h12zm0 0h-12v-1h1v-1-1h1v-1h1v-1h1 1 1 1 1 1v1h1v1h1v1 1 1h1z" fill-rule="nonzero"/>
	<path id="connector63pin" d="m0 294v12h-1v-1h-1-1v-1h-1v-1h-1v-1-1-1-1-1-1h1v-1h1v-1h1 1v-1h1zm100 12h-100v-12h100v12zm0 0v-12h1l1 1h1 1v1h1v1 1h1v1 1 1 1h-1v1 1h-1v1h-1-1l-1 1h-1z" fill-rule="nonzero"/>
	<rect id="connector63terminal" x="-5.111" y="299.99" width=".222" height=".024" fill="none" stroke-width="0"/>
	<path id="connector62pin" d="m794 100h12v1h-1v1 1 1h-1v1h-1-1v1h-1-1-1-1l-1-1h-1v-1h-1v-1-1h-1v-1-1zm12-100v100h-12v-100h12zm0 0h-12v-1l1-1v-1h1v-1h1v-1h1 1 1 1 1 1v1h1v1h1v1 1 1h1z" fill-rule="nonzero"/>
	<rect id="connector62terminal" x="799.99" y="-5.111" width=".024" height=".222" fill="none" stroke-width="0"/>
	<path id="connector61pin" d="m695 1700h11v1 1h-1v1 1h-1v1h-1-1l-1 1h-1-1v-1h-1-1v-1h-1v-1h-1v-1-1-1zm11-100v100h-11v-100h11zm0 0h-11v-1-1-1h1v-1h1v-1h1 1v-1h1 1l1 1h1 1v1h1v1 1h1v1 1z" fill-rule="nonzero"/>
	<rect id="connector61terminal" x="700.49" y="1705.9" width=".022" height=".224" fill="none" stroke-width="0"/>
	<path id="connector60pin" d="m1100 695v11h-1-1v-1h-1-1v-1h-1v-1-1h-1v-1-1-1h1v-1-1h1v-1h1v-1h1 1 1zm100 11h-100v-11h100v11zm0 0v-11h1 1 1v1h1v1h1v1 1h1v1 1 1h-1v1 1h-1v1h-1-1v1h-1-1z" fill-rule="nonzero"/>
	<rect id="connector60terminal" x="1205.9" y="700.49" width=".224" height=".022" fill="none" stroke-width="0"/>
	<path id="connector59pin" d="m1100 795v11h-1-1v-1h-1-1v-1h-1v-1-1h-1v-1-1-1h1v-1-1h1v-1h1v-1h1 1 1zm100 11h-100v-11h100v11zm0 0v-11h1 1 1v1h1v1h1v1 1h1v1 1 1h-1v1 1h-1v1h-1-1v1h-1-1z" fill-rule="nonzero"/>
	<rect id="connector59terminal" x="1205.9" y="800.49" width=".224" height=".022" fill="none" stroke-width="0"/>
	<path id="connector58pin" d="m1100 895v11h-1-1v-1h-1-1v-1h-1v-1-1h-1v-1-1-1h1v-1-1h1v-1h1v-1h1 1 1zm100 11h-100v-11h100v11zm0 0v-11h1 1 1v1h1v1h1v1 1h1v1 1 1h-1v1 1h-1v1h-1-1v1h-1-1z" fill-rule="nonzero"/>
	<rect id="connector58terminal" x="1205.9" y="900.49" width=".224" height=".022" fill="none" stroke-width="0"/>
	<path id="connector57pin" d="m1100 995v11h-1-1v-1h-1-1v-1h-1v-1-1h-1v-1-1-1h1v-1-1h1v-1h1v-1h1 1 1zm100 11h-100v-11h100v11zm0 0v-11h1 1 1v1h1v1h1v1 1h1v1 1 1h-1v1 1h-1v1h-1-1v1h-1-1z" fill-rule="nonzero"/>
	<rect id="connector57terminal" x="1205.9" y="1000.5" width=".224" height=".022" fill="none" stroke-width="0"/>
	<path id="connector56pin" d="m1100 1095v11h-1-1v-1h-1-1v-1h-1v-1-1h-1v-1-1-1h1v-1-1h1v-1h1v-1h1 1 1zm100 11h-100v-11h100v11zm0 0v-11h1 1 1v1h1v1h1v1 1h1v1 1 1h-1v1 1h-1v1h-1-1v1h-1-1z" fill-rule="nonzero"/>
	<rect id="connector56terminal" x="1205.9" y="1100.5" width=".224" height=".022" fill="none" stroke-width="0"/>
	<path id="connector55pin" d="m1100 1195v11h-1-1v-1h-1-1v-1h-1v-1-1h-1v-1-1-1h1v-1-1h1v-1h1v-1h1 1 1zm100 11h-100v-11h100v11zm0 0v-11h1 1 1v1h1v1h1v1 1h1v1 1 1h-1v1 1h-1v1h-1-1v1h-1-1z" fill-rule="nonzero"/>
	<rect id="connector55terminal" x="1205.9" y="1200.5" width=".224" height=".022" fill="none" stroke-width="0"/>
	<path id="connector54pin" d="m1100 1295v11h-1-1v-1h-1-1v-1h-1v-1-1h-1v-1-1-1h1v-1-1h1v-1h1v-1h1 1 1zm100 11h-100v-11h100v11zm0 0v-11h1 1 1v1h1v1h1v1 1h1v1 1 1h-1v1 1h-1v1h-1-1v1h-1-1z" fill-rule="nonzero"/>
	<rect id="connector54terminal" x="1205.9" y="1300.5" width=".224" height=".022" fill="none" stroke-width="0"/>
	<path id="connector41pin" d="m0 1395v11h-1-1v-1h-1-1v-1h-1v-1-1h-1v-1-1-1h1v-1-1h1v-1h1v-1h1 1 1zm100 11h-100v-11h100v11zm0 0v-11h1 1 1v1h1v1h1v1 1h1v1 1 1h-1v1 1h-1v1h-1-1v1h-1-1z" fill-rule="nonzero"/>
	<rect id="connector41terminal" x="-6.112" y="1400.5" width=".224" height=".022" fill="none" stroke-width="0"/>
	<path id="connector53pin" d="m1100 1395v11h-1-1v-1h-1-1v-1h-1v-1-1h-1v-1-1-1h1v-1-1h1v-1h1v-1h1 1 1zm100 11h-100v-11h100v11zm0 0v-11h1 1 1v1h1v1h1v1 1h1v1 1 1h-1v1 1h-1v1h-1-1v1h-1-1z" fill-rule="nonzero"/>
	<rect id="connector53terminal" x="1205.9" y="1400.5" width=".224" height=".022" fill="none" stroke-width="0"/>
	<path id="connector51pin" d="m495 1700h11v1 1h-1v1 1h-1v1h-1-1l-1 1h-1-1v-1h-1-1v-1h-1v-1h-1v-1-1-1zm11-100v100h-11v-100h11zm0 0h-11v-1-1-1h1v-1h1v-1h1 1v-1h1 1l1 1h1 1v1h1v1 1h1v1 1z" fill-rule="nonzero"/>
	<rect id="connector51terminal" x="500.49" y="1705.9" width=".022" height=".224" fill="none" stroke-width="0"/>
</g>
</svg>
