<?xml version="1.0" encoding="UTF-8"?>
<svg width=".25026in" height=".41016in" enable-background="new 0 0 28.8 43.2" version="1.1" viewBox="0 0 250.26 410.16" xml:space="preserve" xmlns="http://www.w3.org/2000/svg" xmlns:cc="http://creativecommons.org/ns#" xmlns:dc="http://purl.org/dc/elements/1.1/" xmlns:rdf="http://www.w3.org/1999/02/22-rdf-syntax-ns#">
  
  
  <g id="schematic">
<g faction="resistance" faction-resistance="transform:translate(245,205) rotate(f{resistance}) translate(-245,-205)"
frange-resistance-start="-40" frange-resistance-end="40"
>
    <line x1="124.81" x2="245" y1="205" y2="205" fill="none" stroke="#000" stroke-linecap="round" stroke-width="10"/>
    <polygon faction="slider" transform="matrix(10.391 0 0 10.417 -9.4161 -20.007)" points="13.6 23.1 13.6 20.1 9.4 21.6" stroke-width="1.0012"/>
    <line id="connector1pin" x1="150.260" x2="245.100" y1="205.602" y2="205.602" stroke="#555" stroke-linecap="round" stroke-width="10"/>
    <line id="connector3pin" x1="150.26" x2="245.1" y1="205" y2="205" stroke-linecap="round" stroke-width="10"/>
</g>
<g fill="#555555" font-family="Noto Sans" font-size="25" stroke-width="10.417">
    <text x="15.771643" y="344.28427">1</text>
    <text x="16.946949" y="86.790543">3</text>
    <text x="174.26567" y="191.2489">2</text>
</g>
<g stroke="#000" stroke-linecap="round" stroke-width="6">
    <line x1="45.121" x2="3" y1="308.39" y2="290"/>
    <line x1="3" x2="83" y1="290" y2="265"/>
    <line x1="83" x2="3" y1="265" y2="240"/>
    <line x1="3" x2="83" y1="240" y2="215"/>
    <line x1="83" x2="3" y1="215" y2="190"/>
    <line x1="3" x2="83" y1="190" y2="165"/>
    <line x1="83" x2="3" y1="165" y2="140"/>
    <line x1="3" x2="83" y1="140" y2="115"/>
    <line x1="83" x2="45.97" y1="115" y2="101.61"/>
</g><g fill="none">
    <line id="connector0pin" x1="45.761" x2="45.761" y1="405.16" y2="309.86" stroke="#555" stroke-linecap="round" stroke-width="10"/>
    <rect id="connector0terminal" x="40.264" y="400" width="10" height="10" stroke-width="0"/>
    <rect id="connector1terminal" x="240.26" y="200" width="10" height="10" stroke-width="0"/>
    <line id="connector2pin" x1="45.761" x2="45.761" y1="5" y2="99.618" stroke="#555" stroke-linecap="round" stroke-width="10"/><g>
    <rect id="connector2terminal" x="40.264" y="1.4211e-14" width="10" height="10" stroke-width="0"/>
    <rect id="connector3terminal" x="240.26" y="200" width="10" height="10" stroke-width="0"/>
  </g></g></g>
</svg>
