<?xml version="1.0" encoding="UTF-8"?>
<!-- Generator: Adobe Illustrator 16.0.0, SVG Export Plug-In . SVG Version: 6.00 Build 0)  -->
<!DOCTYPE svg  PUBLIC '-//W3C//DTD SVG 1.1//EN'  'http://www.w3.org/Graphics/SVG/1.1/DTD/svg11.dtd'>
<svg id="Layer_1" width="43.943px" height="22.752px" enable-background="new 0 0 43.943 22.752" version="1.1" viewBox="0 0 43.943 22.752" xml:space="preserve" xmlns="http://www.w3.org/2000/svg">
<g id="schematic">
	
		<rect x="7.55" y=".576" width="28.8" height="21.601" fill="#fff" stroke="#000" stroke-linecap="round" stroke-linejoin="round" stroke-width=".9"/><g fill="none"><g stroke="#000" stroke-linecap="round" stroke-width=".5"  stroke-linejoin="round">
	<rect faction="switch2" x="12.59" y="6.336" width="18.72" height="2.88"/>
	<line x1="21.989" x2="21.989" y1="6.336" y2="9.216"/>
        <rect faction="switch1" x="12.59" y="13.536" width="18.72" height="2.88"/>
	<line x1="21.95" x2="21.95" y1="13.536" y2="16.416"/>
	</g>
	</g><g transform="translate(12.57 5.4102)">
		<g transform="rotate(270)">
			<text transform="translate(-10.081 21.229)" fill="#505050" font-family="Noto Sans" font-size="2.126">1</text>
		</g>
	</g>
	<g transform="translate(12.57 3.1242)">
		<g transform="rotate(270)">
			<text transform="translate(-5.3729 21.229)" fill="#505050" font-family="Noto Sans" font-size="2.126">2</text>
		</g>
	</g>
	<g transform="translate(4.1875 7.4422)">
		<g transform="rotate(270)">
			<text transform="translate(-5.4045 7.6819)" fill="#505050" font-family="Noto Sans" font-size="2.126">ON</text>
		</g>
	</g>
<g faction-switch2-on="transform:translate(-9.36,0)"
   faction-switch2-off="transform:translate(0,0)">
	<rect x="23.03" y="7.056" width="2.882" height="1.44"/>
	<rect x="27.35" y="7.056" width="2.88" height="1.44"/>
</g>
<g faction-switch1-on="transform:translate(-9.36,0)"
   faction-switch1-off="transform:translate(0,0)">
	<rect x="23.03" y="14.256" width="2.882" height="1.44"/>
	<rect x="27.35" y="14.256" width="2.88" height="1.44"/>
</g>
	
		<line id="connector2pin" x1=".35" x2="7.55" y1="7.776" y2="7.776" fill="none" stroke="#787878" stroke-linecap="round" stroke-width=".75"/>
	<polygon id="connector2terminal" points="0 8.147 1.048 8.147 1.048 7.418 0 7.397" fill="none"/>
	<text transform="translate(3.2625 6.7246)" fill="#8C8C8C" font-family="Noto Sans" font-size="2.5">3</text>
	
		<line id="connector3pin" x1=".35" x2="7.55" y1="14.976" y2="14.976" fill="none" stroke="#787878" stroke-linecap="round" stroke-width=".75"/>
	<polygon id="connector3terminal" points="1.006 15.313 0 15.313 0 14.668 1.027 14.605" fill="none"/>
	<text transform="translate(3.2625 13.927)" fill="#8C8C8C" font-family="Noto Sans" font-size="2.5">4</text>
	
		<line id="connector0pin" x1="43.549" x2="36.35" y1="14.976" y2="14.976" fill="none" stroke="#787878" stroke-linecap="round" stroke-width=".75"/>
	<polygon id="connector0terminal" points="42.85 15.329 43.944 15.376 43.944 14.657 42.819 14.642" fill="none"/>
	<text transform="translate(39.262 13.927)" fill="#8C8C8C" font-family="Noto Sans" font-size="2.5">1</text>
	
		<line id="connector1pin" x1="43.549" x2="36.35" y1="7.776" y2="7.776" fill="none" stroke="#787878" stroke-linecap="round" stroke-width=".75"/>
	<polygon id="connector1terminal" points="42.85 8.11 43.944 8.126 43.944 7.392 42.85 7.407" fill="none"/>
	<text transform="translate(39.262 6.7246)" fill="#8C8C8C" font-family="Noto Sans" font-size="2.5">2</text>
</g>
</svg>
