<?xml version="1.0" encoding="UTF-8"?>
<!-- Generator: Adobe Illustrator 20.0.0, SVG Export Plug-In . SVG Version: 6.00 Build 0)  -->
<svg width="57.6px" height="72px" baseProfile="tiny" version="1.2" viewBox="0 0 57.6 72" xml:space="preserve" xmlns="http://www.w3.org/2000/svg">
<desc>
	<referenceFile>9dof rev a_schematic.svg</referenceFile>
</desc>
<desc>Fritzing schematic generated by brd2svg</desc>
<g id="schematic">
	
		<rect x="14.4" y="14.4" width="28.35" height="43.2" fill="none" stroke="#000" stroke-linecap="round" stroke-linejoin="round" stroke-width=".9"/>
	<text id="label" transform="translate(22.366 33.137)" font-family="Noto Sans" font-size="3.5px">Adafruit</text>
	<text transform="translate(24.802 36.637)" font-family="Noto Sans" font-size="3.5px">F</text>
	<text transform="translate(26.521 36.637)" font-family="Noto Sans" font-size="3.5px">l</text>
	<text transform="translate(27.427 36.637)" font-family="Noto Sans" font-size="3.5px">o</text>
	<text transform="translate(29.447 36.637)" font-family="Noto Sans" font-size="3.5px">r</text>
	<text transform="translate(30.809 36.637)" font-family="Noto Sans" font-size="3.5px">a</text>
	<text transform="translate(21.076 40.137)" font-family="Noto Sans" font-size="3.5px">LSM9DSO</text>
	
		<line x1=".35" x2="14.4" y1="28.8" y2="28.8" fill="none" stroke="#787878" stroke-linecap="round" stroke-linejoin="round" stroke-width=".7"/>
	<rect id="connector17pin" y="28.45" width="14.4" height=".7" fill="none"/>
	<rect id="connector17terminal" y="28.45" width="0" height=".7" fill="none"/>
	<text transform="translate(15.8 29.5)" fill="#8C8C8C" font-family="Noto Sans" font-size="3.5px">SCL</text>
	
		<line x1="42.85" x2="57.25" y1="28.8" y2="28.8" fill="none" stroke="#787878" stroke-linecap="round" stroke-linejoin="round" stroke-width=".7"/>
	<rect id="connector19pin" x="43.2" y="28.45" width="14.4" height=".7" fill="none"/>
	<rect id="connector19terminal" x="57.6" y="28.45" width="0" height=".7" fill="none"/>
	<text transform="translate(35.496 29.5)" fill="#8C8C8C" font-family="Noto Sans" font-size="3.5px">S</text>
	<text transform="translate(37.312 29.5)" fill="#8C8C8C" font-family="Noto Sans" font-size="3.5px">D</text>
	<text transform="translate(39.672 29.5)" fill="#8C8C8C" font-family="Noto Sans" font-size="3.5px">A</text>
	
		<line x1="28.8" x2="28.8" y1=".35" y2="14.4" fill="none" stroke="#787878" stroke-linecap="round" stroke-linejoin="round" stroke-width=".7"/>
	<rect id="connector45pin" x="28.45" width=".7" height="14.4" fill="none"/>
	<polygon id="connector45terminal" points="28.45 0 29.15 0 29.15 0" fill="none"/>
	<g transform="translate(30.2 16)">
		
			
				<g transform="rotate(270)">
					
						
							
								<text transform="translate(-6.7812 1.1207e-5)" fill="#8C8C8C" font-family="Noto Sans" font-size="3.5px">3.3V</text>
						
					
				</g>
			
		
	</g>
	
		<line x1="28.8" x2="28.8" y1="57.6" y2="71.65" fill="none" stroke="#787878" stroke-linecap="round" stroke-linejoin="round" stroke-width=".7"/>
	<rect id="connector8pin" x="28.45" y="57.6" width=".7" height="14.4" fill="none"/>
	<polygon id="connector8terminal" points="28.45 72 29.15 72 29.15 72" fill="none"/>
	<g transform="translate(30.2 56)">
		
			
				<g transform="rotate(270)">
					
						
							<text transform="translate(0 1.1207e-5)" fill="#8C8C8C" font-family="Noto Sans" font-size="3.5px">GND</text>
						
					
				</g>
			
		
	</g>
	<rect id="connector18pin" y="28.45" width="14.4" height=".7" fill="none"/>
	<rect id="connector18terminal" y="28.45" width="0" height=".7" fill="none"/>
	<rect id="connector20pin" x="43.2" y="28.45" width="14.4" height=".7" fill="none"/>
	<rect id="connector20terminal" x="57.6" y="28.45" width="0" height=".7" fill="none"/>
</g>
</svg>
