<?xml version="1.0" encoding="UTF-8"?>
<!-- Created with Fritzing (http://www.fritzing.org/) -->
<svg width="1.4in" height="1.7in" baseProfile="tiny" version="1.2" viewBox="0 0 100.8 122.4" xmlns="http://www.w3.org/2000/svg">
 <desc>
  <referenceFile>Adafruit FPC Breakout - Pi 5 DSI - RP2350 HSTX_schematic.svg</referenceFile>
 </desc>
 <desc>Fritzing schematic generated by brd2svg</desc>
 <g id="schematic">
  <rect x="14.4" y="14.4" width="71.55" height="93.6" fill="none" stroke="#000" stroke-linecap="round" stroke-linejoin="round" stroke-width=".9"/>
  <text id="label" x="50.4" y="43.6" fill="#000000" font-family="Noto Sans" font-size="3.5" text-anchor="middle"><tspan x="50.4" y="43.6">Adafruit</tspan> <tspan x="50.4" y="47.1">FPC</tspan> <tspan x="50.4" y="50.6">Breakout</tspan> <tspan x="50.4" y="54.1">Pi</tspan> <tspan x="50.4" y="57.6">5</tspan> <tspan x="50.4" y="61.1">DSI</tspan> <tspan x="50.4" y="64.6">RP2350</tspan> <tspan x="50.4" y="68.1">HSTX</tspan></text>
  <line x1=".35" x2="14.4" y1="43.2" y2="43.2" fill="none" stroke="#787878" stroke-linecap="round" stroke-linejoin="round" stroke-width=".7"/>
  <rect id="connector32pin" y="42.85" width="14.4" height=".7" fill="none" stroke-width="0" connectorName="D0-"/>
  <rect id="connector32terminal" y="42.85" width="0" height=".7" fill="none" stroke-width="0"/>
  <text x="15.8" y="43.9" fill="#8c8c8c" font-family="Noto Sans" font-size="3.5">D0-</text>
  <line x1=".35" x2="14.4" y1="50.4" y2="50.4" fill="none" stroke="#787878" stroke-linecap="round" stroke-linejoin="round" stroke-width=".7"/>
  <rect id="connector33pin" y="50.05" width="14.4" height=".7" fill="none" stroke-width="0" connectorName="D0+"/>
  <rect id="connector33terminal" y="50.05" width="0" height=".7" fill="none" stroke-width="0"/>
  <text x="15.8" y="51.1" fill="#8c8c8c" font-family="Noto Sans" font-size="3.5">D0+</text>
  <line x1=".35" x2="14.4" y1="57.6" y2="57.6" fill="none" stroke="#787878" stroke-linecap="round" stroke-linejoin="round" stroke-width=".7"/>
  <rect id="connector34pin" y="57.25" width="14.4" height=".7" fill="none" stroke-width="0" connectorName="D1-"/>
  <rect id="connector34terminal" y="57.25" width="0" height=".7" fill="none" stroke-width="0"/>
  <text x="15.8" y="58.3" fill="#8c8c8c" font-family="Noto Sans" font-size="3.5">D1-</text>
  <line x1=".35" x2="14.4" y1="64.8" y2="64.8" fill="none" stroke="#787878" stroke-linecap="round" stroke-linejoin="round" stroke-width=".7"/>
  <rect id="connector35pin" y="64.45" width="14.4" height=".7" fill="none" stroke-width="0" connectorName="D1+"/>
  <rect id="connector35terminal" y="64.45" width="0" height=".7" fill="none" stroke-width="0"/>
  <text x="15.8" y="65.5" fill="#8c8c8c" font-family="Noto Sans" font-size="3.5">D1+</text>
  <line x1=".35" x2="14.4" y1="72" y2="72" fill="none" stroke="#787878" stroke-linecap="round" stroke-linejoin="round" stroke-width=".7"/>
  <rect id="connector36pin" y="71.65" width="14.4" height=".7" fill="none" stroke-width="0" connectorName="CK-"/>
  <rect id="connector36terminal" y="71.65" width="0" height=".7" fill="none" stroke-width="0"/>
  <text x="15.8" y="72.6998" fill="#8c8c8c" font-family="Noto Sans" font-size="3.5">CK-</text>
  <line x1=".35" x2="14.4" y1="79.2" y2="79.2" fill="none" stroke="#787878" stroke-linecap="round" stroke-linejoin="round" stroke-width=".7"/>
  <rect id="connector37pin" y="78.85" width="14.4" height=".7" fill="none" stroke-width="0" connectorName="CK+"/>
  <rect id="connector37terminal" y="78.85" width="0" height=".7" fill="none" stroke-width="0"/>
  <text x="15.8" y="79.8998" fill="#8c8c8c" font-family="Noto Sans" font-size="3.5">CK+</text>
  <line x1=".35" x2="14.4" y1="86.4" y2="86.4" fill="none" stroke="#787878" stroke-linecap="round" stroke-linejoin="round" stroke-width=".7"/>
  <rect id="connector38pin" y="86.05" width="14.4" height=".7" fill="none" stroke-width="0" connectorName="D2-"/>
  <rect id="connector38terminal" y="86.05" width="0" height=".7" fill="none" stroke-width="0"/>
  <text x="15.8" y="87.0998" fill="#8c8c8c" font-family="Noto Sans" font-size="3.5">D2-</text>
  <line x1=".35" x2="14.4" y1="93.6" y2="93.6" fill="none" stroke="#787878" stroke-linecap="round" stroke-linejoin="round" stroke-width=".7"/>
  <rect id="connector39pin" y="93.25" width="14.4" height=".7" fill="none" stroke-width="0" connectorName="D2+"/>
  <rect id="connector39terminal" y="93.25" width="0" height=".7" fill="none" stroke-width="0"/>
  <text x="15.8" y="94.2998" fill="#8c8c8c" font-family="Noto Sans" font-size="3.5">D2+</text>
  <line x1="86.05" x2="100.45" y1="43.2" y2="43.2" fill="none" stroke="#787878" stroke-linecap="round" stroke-linejoin="round" stroke-width=".7"/>
  <rect id="connector40pin" x="86.4" y="42.85" width="14.4" height=".7" fill="none" stroke-width="0" connectorname="D3-"/>
  <rect id="connector40terminal" x="100.8" y="42.85" width="0" height=".7" fill="none" stroke-width="0"/>
  <text x="85.0003" y="43.9" fill="#8c8c8c" font-family="Noto Sans" font-size="3.5" text-anchor="end">D3-</text>
  <line x1="86.05" x2="100.45" y1="50.4" y2="50.4" fill="none" stroke="#787878" stroke-linecap="round" stroke-linejoin="round" stroke-width=".7"/>
  <rect id="connector41pin" x="86.4" y="50.05" width="14.4" height=".7" fill="none" stroke-width="0" connectorname="D3+"/>
  <rect id="connector41terminal" x="100.8" y="50.05" width="0" height=".7" fill="none" stroke-width="0"/>
  <text x="85.0003" y="51.1" fill="#8c8c8c" font-family="Noto Sans" font-size="3.5" text-anchor="end">D3+</text>
  <line x1="86.05" x2="100.45" y1="57.6" y2="57.6" fill="none" stroke="#787878" stroke-linecap="round" stroke-linejoin="round" stroke-width=".7"/>
  <rect id="connector43pin" x="86.4" y="57.25" width="14.4" height=".7" fill="none" stroke-width="0" connectorname="CAM_IO0"/>
  <rect id="connector43terminal" x="100.8" y="57.25" width="0" height=".7" fill="none" stroke-width="0"/>
  <text x="85.0003" y="58.3" fill="#8c8c8c" font-family="Noto Sans" font-size="3.5" text-anchor="end">CAM_IO0</text>
  <line x1="86.05" x2="100.45" y1="64.8" y2="64.8" fill="none" stroke="#787878" stroke-linecap="round" stroke-linejoin="round" stroke-width=".7"/>
  <rect id="connector44pin" x="86.4" y="64.45" width="14.4" height=".7" fill="none" stroke-width="0" connectorname="CAM_IO1"/>
  <rect id="connector44terminal" x="100.8" y="64.45" width="0" height=".7" fill="none" stroke-width="0"/>
  <text x="85.0003" y="65.5" fill="#8c8c8c" font-family="Noto Sans" font-size="3.5" text-anchor="end">CAM_IO1</text>
  <line x1="86.05" x2="100.45" y1="72" y2="72" fill="none" stroke="#787878" stroke-linecap="round" stroke-linejoin="round" stroke-width=".7"/>
  <rect id="connector45pin" x="86.4" y="71.65" width="14.4" height=".7" fill="none" stroke-width="0" connectorname="CAM_SCL"/>
  <rect id="connector45terminal" x="100.8" y="71.65" width="0" height=".7" fill="none" stroke-width="0"/>
  <text x="85.0003" y="72.6998" fill="#8c8c8c" font-family="Noto Sans" font-size="3.5" text-anchor="end">CAM_SCL</text>
  <line x1="86.05" x2="100.45" y1="79.2" y2="79.2" fill="none" stroke="#787878" stroke-linecap="round" stroke-linejoin="round" stroke-width=".7"/>
  <rect id="connector46pin" x="86.4" y="78.85" width="14.4" height=".7" fill="none" stroke-width="0" connectorname="CAM_SDA"/>
  <rect id="connector46terminal" x="100.8" y="78.85" width="0" height=".7" fill="none" stroke-width="0"/>
  <text x="85.0003" y="79.8998" fill="#8c8c8c" font-family="Noto Sans" font-size="3.5" text-anchor="end">CAM_SDA</text>
  <line x1="50.4" x2="50.4" y1=".35" y2="14.4" fill="none" stroke="#787878" stroke-linecap="round" stroke-linejoin="round" stroke-width=".7"/>
  <rect id="connector47pin" x="50.05" width=".7" height="14.4" fill="none" stroke-width="0" connectorname="CAM_3V3"/>
  <rect id="connector47terminal" x="50.05" width=".7" height="0" fill="none" stroke-width="0"/>
  <g transform="translate(51.8 16)">
   <g transform="rotate(270)">
    <text fill="#8c8c8c" font-family="Noto Sans" font-size="3.5" text-anchor="end">CAM_3V3</text>
   </g>
  </g>
  <line x1="50.4" x2="50.4" y1="108" y2="122.05" fill="none" stroke="#787878" stroke-linecap="round" stroke-linejoin="round" stroke-width=".7"/>
  <rect id="connector31pin" x="50.05" y="108" width=".7" height="14.4" fill="none" stroke-width="0" connectorname="GND"/>
  <rect id="connector31terminal" x="50.05" y="122.4" width=".7" height="0" fill="none" stroke-width="0"/>
  <g transform="translate(51.8 106.4)">
   <g transform="rotate(270)">
    <text fill="#8c8c8c" font-family="Noto Sans" font-size="3.5">GND</text>
   </g>
  </g>
  <rect id="connector42pin" x="50.05" y="108" width=".7" height="14.4" fill="none" stroke-width="0" connectorname="GND"/>
  <rect id="connector42terminal" x="50.05" y="122.4" width=".7" height="0" fill="none" stroke-width="0"/>
 </g>
</svg>
