<?xml version="1.0" encoding="UTF-8"?>
<!-- Created with Fritzing (http://www.fritzing.org/) -->
<svg width="1in" height=".9in" baseProfile="tiny" version="1.2" viewBox="0 0 72 64.8" xmlns="http://www.w3.org/2000/svg">
 <desc>
  <referenceFile>Adafruit_BMP183_schematic.svg</referenceFile>
 </desc>
 <desc>Fritzing schematic generated by brd2svg</desc>
 <g id="schematic">
  <rect x="14.4" y="14.4" width="42.75" height="36" fill="none" stroke="#000" stroke-linecap="round" stroke-linejoin="round" stroke-width=".9"/>
  <text id="label" x="36" y="28.8" fill="#000000" font-family="Noto Sans" font-size="3.5" text-anchor="middle"><tspan x="36" y="28.8">Adafruit</tspan> <tspan x="36" y="32.3">BMP183</tspan></text>
  <line x1=".35" x2="14.4" y1="28.8" y2="28.8" fill="none" stroke="#787878" stroke-linecap="round" stroke-linejoin="round" stroke-width=".7"/>
  <rect id="connector16pin" y="28.45" width="14.4" height=".7" fill="none" stroke-width="0" connectorName="CS"/>
  <rect id="connector16terminal" y="28.45" width="0" height=".7" fill="none" stroke-width="0"/>
  <text x="15.8" y="29.5" fill="#8c8c8c" font-family="Noto Sans" font-size="3.5">CS</text>
  <line x1=".35" x2="14.4" y1="36" y2="36" fill="none" stroke="#787878" stroke-linecap="round" stroke-linejoin="round" stroke-width=".7"/>
  <rect id="connector13pin" y="35.65" width="14.4" height=".7" fill="none" stroke-width="0" connectorName="SCK"/>
  <rect id="connector13terminal" y="35.65" width="0" height=".7" fill="none" stroke-width="0"/>
  <text x="15.8" y="36.7" fill="#8c8c8c" font-family="Noto Sans" font-size="3.5">SCK</text>
  <line x1="57.25" x2="71.65" y1="28.8" y2="28.8" fill="none" stroke="#787878" stroke-linecap="round" stroke-linejoin="round" stroke-width=".7"/>
  <rect id="connector14pin" x="57.6" y="28.45" width="14.4" height=".7" fill="none" stroke-width="0" connectorname="SDO"/>
  <rect id="connector14terminal" x="72" y="28.45" width="0" height=".7" fill="none" stroke-width="0"/>
  <text x="56.2" y="29.5" fill="#8c8c8c" font-family="Noto Sans" font-size="3.5" text-anchor="end">SDO</text>
  <line x1="57.25" x2="71.65" y1="36" y2="36" fill="none" stroke="#787878" stroke-linecap="round" stroke-linejoin="round" stroke-width=".7"/>
  <rect id="connector15pin" x="57.6" y="35.65" width="14.4" height=".7" fill="none" stroke-width="0" connectorname="SDI"/>
  <rect id="connector15terminal" x="72" y="35.65" width="0" height=".7" fill="none" stroke-width="0"/>
  <text x="56.2" y="36.7" fill="#8c8c8c" font-family="Noto Sans" font-size="3.5" text-anchor="end">SDI</text>
  <line x1="36" x2="36" y1=".35" y2="14.4" fill="none" stroke="#787878" stroke-linecap="round" stroke-linejoin="round" stroke-width=".7"/>
  <rect id="connector10pin" x="35.65" width=".7" height="14.4" fill="none" stroke-width="0" connectorname="VIN"/>
  <rect id="connector10terminal" x="35.65" width=".7" height="0" fill="none" stroke-width="0"/>
  <g transform="translate(37.4 16)">
   <g transform="rotate(270)">
    <text fill="#8c8c8c" font-family="Noto Sans" font-size="3.5" text-anchor="end">VIN</text>
   </g>
  </g>
  <line x1="43.2" x2="43.2" y1=".35" y2="14.4" fill="none" stroke="#787878" stroke-linecap="round" stroke-linejoin="round" stroke-width=".7"/>
  <rect id="connector11pin" x="42.85" width=".7" height="14.4" fill="none" stroke-width="0" connectorname="+3V3"/>
  <rect id="connector11terminal" x="42.85" width=".7" height="0" fill="none" stroke-width="0"/>
  <g transform="translate(44.6 16)">
   <g transform="rotate(270)">
    <text fill="#8c8c8c" font-family="Noto Sans" font-size="3.5" text-anchor="end">+3V3</text>
   </g>
  </g>
  <line x1="36" x2="36" y1="50.4" y2="64.45" fill="none" stroke="#787878" stroke-linecap="round" stroke-linejoin="round" stroke-width=".7"/>
  <rect id="connector12pin" x="35.65" y="50.4" width=".7" height="14.4" fill="none" stroke-width="0" connectorname="GND"/>
  <rect id="connector12terminal" x="35.65" y="64.8" width=".7" height="0" fill="none" stroke-width="0"/>
  <g transform="translate(37.4 48.8)">
   <g transform="rotate(270)">
    <text fill="#8c8c8c" font-family="Noto Sans" font-size="3.5">GND</text>
   </g>
  </g>
 </g>
</svg>
