<?xml version="1.0" encoding="UTF-8"?>
<!-- Created with Fritzing (http://www.fritzing.org/) -->
<svg width=".8in" height=".9in" baseProfile="tiny" version="1.2" viewBox="0 0 57.6 64.8" xmlns="http://www.w3.org/2000/svg">
 <desc>
  <referenceFile>microB_schematic.svg</referenceFile>
 </desc>
 <desc>Fritzing schematic generated by brd2svg</desc>
 <g id="schematic">
  <rect x="14.4" y="14.4" width="28.35" height="36" fill="none" stroke="#000" stroke-linecap="round" stroke-linejoin="round" stroke-width=".9"/>
  <text id="label" x="28.8" y="28.8" fill="#000000" font-family="Noto Sans" font-size="3.5" text-anchor="middle">microB</text>
  <line x1=".35" x2="14.4" y1="28.8" y2="28.8" fill="none" stroke="#787878" stroke-linecap="round" stroke-linejoin="round" stroke-width=".7"/>
  <rect id="connector4pin" y="28.45" width="14.4" height=".7" fill="none" stroke-width="0" connectorName="D+"/>
  <rect id="connector4terminal" x="-.0144" y="28.799" width=".0288" height=".0014" fill="none" stroke-width="0"/>
  <rect y="28.45" width="0" height=".7" fill="none" stroke-width="0"/>
  <text x="15.8" y="29.5" fill="#8c8c8c" font-family="Noto Sans" font-size="3.5">D+</text>
  <line x1=".35" x2="14.4" y1="36" y2="36" fill="none" stroke="#787878" stroke-linecap="round" stroke-linejoin="round" stroke-width=".7"/>
  <rect id="connector5pin" y="35.65" width="14.4" height=".7" fill="none" stroke-width="0" connectorName="D-"/>
  <rect id="connector5terminal" x="-.0144" y="35.999" width=".0288" height=".0014" fill="none" stroke-width="0"/>
  <rect y="35.65" width="0" height=".7" fill="none" stroke-width="0"/>
  <text x="15.8" y="36.7" fill="#8c8c8c" font-family="Noto Sans" font-size="3.5">D-</text>
  <line x1="42.85" x2="57.25" y1="28.8" y2="28.8" fill="none" stroke="#787878" stroke-linecap="round" stroke-linejoin="round" stroke-width=".7"/>
  <rect id="connector3pin" x="43.2" y="28.45" width="14.4" height=".7" fill="none" stroke-width="0" connectorname="ID"/>
  <rect id="connector3terminal" x="57.586" y="28.799" width=".0288" height=".0014" fill="none" stroke-width="0"/>
  <rect x="57.6" y="28.45" width="0" height=".7" fill="none" stroke-width="0"/>
  <text x="41.8" y="29.5" fill="#8c8c8c" font-family="Noto Sans" font-size="3.5" text-anchor="end">ID</text>
  <line x1="28.8" x2="28.8" y1=".35" y2="14.4" fill="none" stroke="#787878" stroke-linecap="round" stroke-linejoin="round" stroke-width=".7"/>
  <rect id="connector6pin" x="28.45" width=".7" height="14.4" fill="none" stroke-width="0" connectorname="VBUS"/>
  <rect id="connector6terminal" x="28.799" y="-.0144" width=".0014" height=".0288" fill="none" stroke-width="0"/>
  <rect x="28.45" width=".7" height="0" fill="none" stroke-width="0"/>
  <g transform="translate(30.2 16)">
   <g transform="rotate(270)">
    <text fill="#8c8c8c" font-family="Noto Sans" font-size="3.5" text-anchor="end">VBUS</text>
   </g>
  </g>
  <line x1="28.8" x2="28.8" y1="50.4" y2="64.45" fill="none" stroke="#787878" stroke-linecap="round" stroke-linejoin="round" stroke-width=".7"/>
  <rect id="connector2pin" x="28.45" y="50.4" width=".7" height="14.4" fill="none" stroke-width="0" connectorname="GND"/>
  <rect id="connector2terminal" x="28.799" y="64.786" width=".0014" height=".0288" fill="none" stroke-width="0"/>
  <rect x="28.45" y="64.8" width=".7" height="0" fill="none" stroke-width="0"/>
  <g transform="translate(30.2 48.8)">
   <g transform="rotate(270)">
    <text fill="#8c8c8c" font-family="Noto Sans" font-size="3.5">GND</text>
   </g>
  </g>
 </g>
</svg>
