<?xml version="1.0" encoding="UTF-8"?>
<!-- Created with Fritzing (http://www.fritzing.org/) -->
<svg width="1.3in" height="1.2in" baseProfile="tiny" version="1.2" viewBox="0 0 93.6 86.4" xmlns="http://www.w3.org/2000/svg">
 <desc>
  <referenceFile>Adafruit 10-DOF IMU L3GD20H + LSM303 + BMP180_schematic.svg</referenceFile>
 </desc>
 <desc>Fritzing schematic generated by brd2svg</desc>
 <g id="schematic">
  <rect x="14.4" y="14.4" width="64.35" height="57.6" fill="none" stroke="#000" stroke-linecap="round" stroke-linejoin="round" stroke-width=".9"/>
  <text id="label" x="46.8" y="29.2" fill="#000000" font-family="Noto Sans" font-size="3.5" text-anchor="middle"><tspan x="46.8" y="29.2">Adafruit</tspan> <tspan x="46.8" y="32.7">10-DOF</tspan> <tspan x="46.8" y="36.2">IMU</tspan> <tspan x="46.8" y="39.7">L3GD20H</tspan> <tspan x="46.8" y="43.2">+</tspan> <tspan x="46.8" y="46.7">LSM303</tspan> <tspan x="46.8" y="50.2">+</tspan> <tspan x="46.8" y="53.7">BMP180</tspan></text>
  <line x1=".35" x2="14.4" y1="28.8" y2="28.8" fill="none" stroke="#787878" stroke-linecap="round" stroke-linejoin="round" stroke-width=".7"/>
  <rect id="connector45pin" y="28.45" width="14.4" height=".7" fill="none" stroke-width="0" connectorName="SCL"/>
  <rect id="connector45terminal" y="28.45" width="0" height=".7" fill="none" stroke-width="0"/>
  <text x="15.8" y="29.5" fill="#8c8c8c" font-family="Noto Sans" font-size="3.5">SCL</text>
  <line x1=".35" x2="14.4" y1="36" y2="36" fill="none" stroke="#787878" stroke-linecap="round" stroke-linejoin="round" stroke-width=".7"/>
  <rect id="connector46pin" y="35.65" width="14.4" height=".7" fill="none" stroke-width="0" connectorName="SDA"/>
  <rect id="connector46terminal" y="35.65" width="0" height=".7" fill="none" stroke-width="0"/>
  <text x="15.8" y="36.7" fill="#8c8c8c" font-family="Noto Sans" font-size="3.5">SDA</text>
  <line x1=".35" x2="14.4" y1="43.2" y2="43.2" fill="none" stroke="#787878" stroke-linecap="round" stroke-linejoin="round" stroke-width=".7"/>
  <rect id="connector47pin" y="42.85" width="14.4" height=".7" fill="none" stroke-width="0" connectorName="GYR_INT"/>
  <rect id="connector47terminal" y="42.85" width="0" height=".7" fill="none" stroke-width="0"/>
  <text x="15.8" y="43.9" fill="#8c8c8c" font-family="Noto Sans" font-size="3.5">GYR_INT</text>
  <line x1=".35" x2="14.4" y1="50.4" y2="50.4" fill="none" stroke="#787878" stroke-linecap="round" stroke-linejoin="round" stroke-width=".7"/>
  <rect id="connector48pin" y="50.05" width="14.4" height=".7" fill="none" stroke-width="0" connectorName="GYR_RDY"/>
  <rect id="connector48terminal" y="50.05" width="0" height=".7" fill="none" stroke-width="0"/>
  <text x="15.8" y="51.1" fill="#8c8c8c" font-family="Noto Sans" font-size="3.5">GYR_RDY</text>
  <line x1="78.85" x2="93.25" y1="28.8" y2="28.8" fill="none" stroke="#787878" stroke-linecap="round" stroke-linejoin="round" stroke-width=".7"/>
  <rect id="connector49pin" x="79.2" y="28.45" width="14.4" height=".7" fill="none" stroke-width="0" connectorname="LSM_INT1"/>
  <rect id="connector49terminal" x="93.6" y="28.45" width="0" height=".7" fill="none" stroke-width="0"/>
  <text x="77.8003" y="29.5" fill="#8c8c8c" font-family="Noto Sans" font-size="3.5" text-anchor="end">LSM_INT1</text>
  <line x1="78.85" x2="93.25" y1="36" y2="36" fill="none" stroke="#787878" stroke-linecap="round" stroke-linejoin="round" stroke-width=".7"/>
  <rect id="connector50pin" x="79.2" y="35.65" width="14.4" height=".7" fill="none" stroke-width="0" connectorname="LSM_INT2"/>
  <rect id="connector50terminal" x="93.6" y="35.65" width="0" height=".7" fill="none" stroke-width="0"/>
  <text x="77.8003" y="36.7" fill="#8c8c8c" font-family="Noto Sans" font-size="3.5" text-anchor="end">LSM_INT2</text>
  <line x1="78.85" x2="93.25" y1="43.2" y2="43.2" fill="none" stroke="#787878" stroke-linecap="round" stroke-linejoin="round" stroke-width=".7"/>
  <rect id="connector51pin" x="79.2" y="42.85" width="14.4" height=".7" fill="none" stroke-width="0" connectorname="LSM_DRDY"/>
  <rect id="connector51terminal" x="93.6" y="42.85" width="0" height=".7" fill="none" stroke-width="0"/>
  <text x="77.8003" y="43.9" fill="#8c8c8c" font-family="Noto Sans" font-size="3.5" text-anchor="end">LSM_DRDY</text>
  <line x1="43.2" x2="43.2" y1=".35" y2="14.4" fill="none" stroke="#787878" stroke-linecap="round" stroke-linejoin="round" stroke-width=".7"/>
  <rect id="connector42pin" x="42.85" width=".7" height="14.4" fill="none" stroke-width="0" connectorname="VIN"/>
  <rect id="connector42terminal" x="42.85" width=".7" height="0" fill="none" stroke-width="0"/>
  <g transform="translate(44.6 16)">
   <g transform="rotate(270)">
    <text fill="#8c8c8c" font-family="Noto Sans" font-size="3.5" text-anchor="end">VIN</text>
   </g>
  </g>
  <line x1="50.4" x2="50.4" y1=".35" y2="14.4" fill="none" stroke="#787878" stroke-linecap="round" stroke-linejoin="round" stroke-width=".7"/>
  <rect id="connector43pin" x="50.05" width=".7" height="14.4" fill="none" stroke-width="0" connectorname="3.3V"/>
  <rect id="connector43terminal" x="50.05" width=".7" height="0" fill="none" stroke-width="0"/>
  <g transform="translate(51.8 16)">
   <g transform="rotate(270)">
    <text fill="#8c8c8c" font-family="Noto Sans" font-size="3.5" text-anchor="end">3.3V</text>
   </g>
  </g>
  <line x1="43.2" x2="43.2" y1="72" y2="86.05" fill="none" stroke="#787878" stroke-linecap="round" stroke-linejoin="round" stroke-width=".7"/>
  <rect id="connector44pin" x="42.85" y="72" width=".7" height="14.4" fill="none" stroke-width="0" connectorname="GND"/>
  <rect id="connector44terminal" x="42.85" y="86.4" width=".7" height="0" fill="none" stroke-width="0"/>
  <g transform="translate(44.6 70.4)">
   <g transform="rotate(270)">
    <text fill="#8c8c8c" font-family="Noto Sans" font-size="3.5">GND</text>
   </g>
  </g>
 </g>
</svg>
