<?xml version="1.0" encoding="UTF-8"?>
<!-- Created with Fritzing (http://www.fritzing.org/) -->
<svg width=".9in" height="1.5in" baseProfile="tiny" version="1.2" viewBox="0 0 64.8 108" xmlns="http://www.w3.org/2000/svg">
 <desc>
  <referenceFile>Adafruit 12-Channel 16-bit PWM LED Driver - SPI _schematic.svg</referenceFile>
 </desc>
 <desc>Fritzing schematic generated by brd2svg</desc>
 <g id="schematic">
  <rect x="14.4" y="14.4" width="35.55" height="79.2" fill="none" stroke="#000" stroke-linecap="round" stroke-linejoin="round" stroke-width=".9"/>
  <text id="label" x="32.4" y="36.4" fill="#000000" font-family="Noto Sans" font-size="3.5" text-anchor="middle"><tspan x="32.4" y="36.4">Adafruit</tspan> <tspan x="32.4" y="39.9">12-Channel</tspan> <tspan x="32.4" y="43.4">16-bit</tspan> <tspan x="32.4" y="46.9">PWM</tspan> <tspan x="32.4" y="50.4">LED</tspan> <tspan x="32.4" y="53.9">Driver</tspan> <tspan x="32.4" y="57.4">SPI</tspan> <tspan x="32.4" y="60.9">DI</tspan></text>
  <line x1=".35" x2="14.4" y1="36" y2="36" fill="none" stroke="#787878" stroke-linecap="round" stroke-linejoin="round" stroke-width=".7"/>
  <rect id="connector53pin" y="35.65" width="14.4" height=".7" fill="none" stroke-width="0" connectorName="CI"/>
  <rect id="connector53terminal" y="35.65" width="0" height=".7" fill="none" stroke-width="0"/>
  <text x="15.8" y="36.7" fill="#8c8c8c" font-family="Noto Sans" font-size="3.5">CI</text>
  <line x1=".35" x2="14.4" y1="43.2" y2="43.2" fill="none" stroke="#787878" stroke-linecap="round" stroke-linejoin="round" stroke-width=".7"/>
  <rect id="connector41pin" y="42.85" width="14.4" height=".7" fill="none" stroke-width="0" connectorName="R0"/>
  <rect id="connector41terminal" y="42.85" width="0" height=".7" fill="none" stroke-width="0"/>
  <text x="15.8" y="43.9" fill="#8c8c8c" font-family="Noto Sans" font-size="3.5">R0</text>
  <line x1=".35" x2="14.4" y1="50.4" y2="50.4" fill="none" stroke="#787878" stroke-linecap="round" stroke-linejoin="round" stroke-width=".7"/>
  <rect id="connector43pin" y="50.05" width="14.4" height=".7" fill="none" stroke-width="0" connectorName="G0"/>
  <rect id="connector43terminal" y="50.05" width="0" height=".7" fill="none" stroke-width="0"/>
  <text x="15.8" y="51.1" fill="#8c8c8c" font-family="Noto Sans" font-size="3.5">G0</text>
  <line x1=".35" x2="14.4" y1="57.6" y2="57.6" fill="none" stroke="#787878" stroke-linecap="round" stroke-linejoin="round" stroke-width=".7"/>
  <rect id="connector45pin" y="57.25" width="14.4" height=".7" fill="none" stroke-width="0" connectorName="B0"/>
  <rect id="connector45terminal" y="57.25" width="0" height=".7" fill="none" stroke-width="0"/>
  <text x="15.8" y="58.3" fill="#8c8c8c" font-family="Noto Sans" font-size="3.5">B0</text>
  <line x1=".35" x2="14.4" y1="64.8" y2="64.8" fill="none" stroke="#787878" stroke-linecap="round" stroke-linejoin="round" stroke-width=".7"/>
  <rect id="connector47pin" y="64.45" width="14.4" height=".7" fill="none" stroke-width="0" connectorName="R1"/>
  <rect id="connector47terminal" y="64.45" width="0" height=".7" fill="none" stroke-width="0"/>
  <text x="15.8" y="65.5" fill="#8c8c8c" font-family="Noto Sans" font-size="3.5">R1</text>
  <line x1=".35" x2="14.4" y1="72" y2="72" fill="none" stroke="#787878" stroke-linecap="round" stroke-linejoin="round" stroke-width=".7"/>
  <rect id="connector49pin" y="71.65" width="14.4" height=".7" fill="none" stroke-width="0" connectorName="G1"/>
  <rect id="connector49terminal" y="71.65" width="0" height=".7" fill="none" stroke-width="0"/>
  <text x="15.8" y="72.6998" fill="#8c8c8c" font-family="Noto Sans" font-size="3.5">G1</text>
  <line x1=".35" x2="14.4" y1="79.2" y2="79.2" fill="none" stroke="#787878" stroke-linecap="round" stroke-linejoin="round" stroke-width=".7"/>
  <rect id="connector51pin" y="78.85" width="14.4" height=".7" fill="none" stroke-width="0" connectorName="B1"/>
  <rect id="connector51terminal" y="78.85" width="0" height=".7" fill="none" stroke-width="0"/>
  <text x="15.8" y="79.8998" fill="#8c8c8c" font-family="Noto Sans" font-size="3.5">B1</text>
  <line x1="50.05" x2="64.45" y1="28.8" y2="28.8" fill="none" stroke="#787878" stroke-linecap="round" stroke-linejoin="round" stroke-width=".7"/>
  <rect id="connector35pin" x="50.4" y="28.45" width="14.4" height=".7" fill="none" stroke-width="0" connectorname="DO"/>
  <rect id="connector35terminal" x="64.8" y="28.45" width="0" height=".7" fill="none" stroke-width="0"/>
  <text x="49" y="29.5" fill="#8c8c8c" font-family="Noto Sans" font-size="3.5" text-anchor="end">DO</text>
  <line x1="50.05" x2="64.45" y1="36" y2="36" fill="none" stroke="#787878" stroke-linecap="round" stroke-linejoin="round" stroke-width=".7"/>
  <rect id="connector36pin" x="50.4" y="35.65" width="14.4" height=".7" fill="none" stroke-width="0" connectorname="CO"/>
  <rect id="connector36terminal" x="64.8" y="35.65" width="0" height=".7" fill="none" stroke-width="0"/>
  <text x="49" y="36.7" fill="#8c8c8c" font-family="Noto Sans" font-size="3.5" text-anchor="end">CO</text>
  <line x1="50.05" x2="64.45" y1="43.2" y2="43.2" fill="none" stroke="#787878" stroke-linecap="round" stroke-linejoin="round" stroke-width=".7"/>
  <rect id="connector67pin" x="50.4" y="42.85" width="14.4" height=".7" fill="none" stroke-width="0" connectorname="R2"/>
  <rect id="connector67terminal" x="64.8" y="42.85" width="0" height=".7" fill="none" stroke-width="0"/>
  <text x="49" y="43.9" fill="#8c8c8c" font-family="Noto Sans" font-size="3.5" text-anchor="end">R2</text>
  <line x1="50.05" x2="64.45" y1="50.4" y2="50.4" fill="none" stroke="#787878" stroke-linecap="round" stroke-linejoin="round" stroke-width=".7"/>
  <rect id="connector65pin" x="50.4" y="50.05" width="14.4" height=".7" fill="none" stroke-width="0" connectorname="G2"/>
  <rect id="connector65terminal" x="64.8" y="50.05" width="0" height=".7" fill="none" stroke-width="0"/>
  <text x="49" y="51.1" fill="#8c8c8c" font-family="Noto Sans" font-size="3.5" text-anchor="end">G2</text>
  <line x1="50.05" x2="64.45" y1="57.6" y2="57.6" fill="none" stroke="#787878" stroke-linecap="round" stroke-linejoin="round" stroke-width=".7"/>
  <rect id="connector63pin" x="50.4" y="57.25" width="14.4" height=".7" fill="none" stroke-width="0" connectorname="B2"/>
  <rect id="connector63terminal" x="64.8" y="57.25" width="0" height=".7" fill="none" stroke-width="0"/>
  <text x="49" y="58.3" fill="#8c8c8c" font-family="Noto Sans" font-size="3.5" text-anchor="end">B2</text>
  <line x1="50.05" x2="64.45" y1="64.8" y2="64.8" fill="none" stroke="#787878" stroke-linecap="round" stroke-linejoin="round" stroke-width=".7"/>
  <rect id="connector61pin" x="50.4" y="64.45" width="14.4" height=".7" fill="none" stroke-width="0" connectorname="R3"/>
  <rect id="connector61terminal" x="64.8" y="64.45" width="0" height=".7" fill="none" stroke-width="0"/>
  <text x="49" y="65.5" fill="#8c8c8c" font-family="Noto Sans" font-size="3.5" text-anchor="end">R3</text>
  <line x1="50.05" x2="64.45" y1="72" y2="72" fill="none" stroke="#787878" stroke-linecap="round" stroke-linejoin="round" stroke-width=".7"/>
  <rect id="connector59pin" x="50.4" y="71.65" width="14.4" height=".7" fill="none" stroke-width="0" connectorname="G3"/>
  <rect id="connector59terminal" x="64.8" y="71.65" width="0" height=".7" fill="none" stroke-width="0"/>
  <text x="49" y="72.6998" fill="#8c8c8c" font-family="Noto Sans" font-size="3.5" text-anchor="end">G3</text>
  <line x1="50.05" x2="64.45" y1="79.2" y2="79.2" fill="none" stroke="#787878" stroke-linecap="round" stroke-linejoin="round" stroke-width=".7"/>
  <rect id="connector57pin" x="50.4" y="78.85" width="14.4" height=".7" fill="none" stroke-width="0" connectorname="B3"/>
  <rect id="connector57terminal" x="64.8" y="78.85" width="0" height=".7" fill="none" stroke-width="0"/>
  <text x="49" y="79.8998" fill="#8c8c8c" font-family="Noto Sans" font-size="3.5" text-anchor="end">B3</text>
  <line x1="28.8" x2="28.8" y1=".35" y2="14.4" fill="none" stroke="#787878" stroke-linecap="round" stroke-linejoin="round" stroke-width=".7"/>
  <rect id="connector37pin" x="28.45" width=".7" height="14.4" fill="none" stroke-width="0" connectorname="V+"/>
  <rect id="connector37terminal" x="28.45" width=".7" height="0" fill="none" stroke-width="0"/>
  <g transform="translate(30.2 16)">
   <g transform="rotate(270)">
    <text fill="#8c8c8c" font-family="Noto Sans" font-size="3.5" text-anchor="end">V+</text>
   </g>
  </g>
  <line x1="36" x2="36" y1=".35" y2="14.4" fill="none" stroke="#787878" stroke-linecap="round" stroke-linejoin="round" stroke-width=".7"/>
  <rect id="connector38pin" x="35.65" width=".7" height="14.4" fill="none" stroke-width="0" connectorname="VCC"/>
  <rect id="connector38terminal" x="35.65" width=".7" height="0" fill="none" stroke-width="0"/>
  <g transform="translate(37.4 16)">
   <g transform="rotate(270)">
    <text fill="#8c8c8c" font-family="Noto Sans" font-size="3.5" text-anchor="end">VCC</text>
   </g>
  </g>
  <line x1="28.8" x2="28.8" y1="93.6" y2="107.65" fill="none" stroke="#787878" stroke-linecap="round" stroke-linejoin="round" stroke-width=".7"/>
  <rect id="connector39pin" x="28.45" y="93.6" width=".7" height="14.4" fill="none" stroke-width="0" connectorname="GND"/>
  <rect id="connector39terminal" x="28.45" y="108" width=".7" height="0" fill="none" stroke-width="0"/>
  <g transform="translate(30.2 92)">
   <g transform="rotate(270)">
    <text fill="#8c8c8c" font-family="Noto Sans" font-size="3.5">GND</text>
   </g>
  </g>
  <rect id="connector40pin" x="28.45" width=".7" height="14.4" fill="none" stroke-width="0" connectorname="V+"/>
  <rect id="connector40terminal" x="28.45" width=".7" height="0" fill="none" stroke-width="0"/>
  <rect id="connector42pin" x="28.45" width=".7" height="14.4" fill="none" stroke-width="0" connectorname="V+"/>
  <rect id="connector42terminal" x="28.45" width=".7" height="0" fill="none" stroke-width="0"/>
  <rect id="connector44pin" x="28.45" width=".7" height="14.4" fill="none" stroke-width="0" connectorname="V+"/>
  <rect id="connector44terminal" x="28.45" width=".7" height="0" fill="none" stroke-width="0"/>
  <rect id="connector46pin" x="28.45" width=".7" height="14.4" fill="none" stroke-width="0" connectorname="V+"/>
  <rect id="connector46terminal" x="28.45" width=".7" height="0" fill="none" stroke-width="0"/>
  <rect id="connector48pin" x="28.45" width=".7" height="14.4" fill="none" stroke-width="0" connectorname="V+"/>
  <rect id="connector48terminal" x="28.45" width=".7" height="0" fill="none" stroke-width="0"/>
  <rect id="connector50pin" x="28.45" width=".7" height="14.4" fill="none" stroke-width="0" connectorname="V+"/>
  <rect id="connector50terminal" x="28.45" width=".7" height="0" fill="none" stroke-width="0"/>
  <rect id="connector54pin" x="28.45" width=".7" height="14.4" fill="none" stroke-width="0" connectorname="V+"/>
  <rect id="connector54terminal" x="28.45" width=".7" height="0" fill="none" stroke-width="0"/>
  <rect id="connector58pin" x="28.45" width=".7" height="14.4" fill="none" stroke-width="0" connectorname="V+"/>
  <rect id="connector58terminal" x="28.45" width=".7" height="0" fill="none" stroke-width="0"/>
  <rect id="connector60pin" x="28.45" width=".7" height="14.4" fill="none" stroke-width="0" connectorname="V+"/>
  <rect id="connector60terminal" x="28.45" width=".7" height="0" fill="none" stroke-width="0"/>
  <rect id="connector62pin" x="28.45" width=".7" height="14.4" fill="none" stroke-width="0" connectorname="V+"/>
  <rect id="connector62terminal" x="28.45" width=".7" height="0" fill="none" stroke-width="0"/>
  <rect id="connector64pin" x="28.45" width=".7" height="14.4" fill="none" stroke-width="0" connectorname="V+"/>
  <rect id="connector64terminal" x="28.45" width=".7" height="0" fill="none" stroke-width="0"/>
  <rect id="connector66pin" x="28.45" width=".7" height="14.4" fill="none" stroke-width="0" connectorname="V+"/>
  <rect id="connector66terminal" x="28.45" width=".7" height="0" fill="none" stroke-width="0"/>
  <rect id="connector68pin" x="28.45" width=".7" height="14.4" fill="none" stroke-width="0" connectorname="V+"/>
  <rect id="connector68terminal" x="28.45" width=".7" height="0" fill="none" stroke-width="0"/>
  <rect id="connector55pin" x="35.65" width=".7" height="14.4" fill="none" stroke-width="0" connectorname="VCC"/>
  <rect id="connector55terminal" x="35.65" width=".7" height="0" fill="none" stroke-width="0"/>
  <rect id="connector56pin" x="28.45" y="93.6" width=".7" height="14.4" fill="none" stroke-width="0" connectorname="GND"/>
  <rect id="connector56terminal" x="28.45" y="108" width=".7" height="0" fill="none" stroke-width="0"/>
 </g>
</svg>
