<?xml version="1.0" encoding="UTF-8"?>
<!-- Created with Fritzing (http://www.fritzing.org/) -->
<svg width="1.2in" height="1.1in" baseProfile="tiny" version="1.2" viewBox="0 0 86.4 79.2" xmlns="http://www.w3.org/2000/svg">
 <desc>
  <referenceFile>Adafruit Infrared IR Remote Receiver_schematic.svg</referenceFile>
 </desc>
 <desc>Fritzing schematic generated by brd2svg</desc>
 <g id="schematic">
  <rect x="14.4" y="14.4" width="57.15" height="50.4" fill="none" stroke="#000" stroke-linecap="round" stroke-linejoin="round" stroke-width=".9"/>
  <text id="label" x="43.2" y="28.8" fill="#000000" font-family="Noto Sans" font-size="3.5" text-anchor="middle"><tspan x="43.2" y="28.8">Adafruit</tspan> <tspan x="43.2" y="32.3">Infrared</tspan> <tspan x="43.2" y="35.8">IR</tspan> <tspan x="43.2" y="39.3">Remote</tspan> <tspan x="43.2" y="42.8">Receiver</tspan></text>
  <line x1=".35" x2="14.4" y1="28.8" y2="28.8" fill="none" stroke="#787878" stroke-linecap="round" stroke-linejoin="round" stroke-width=".7"/>
  <rect id="connector16pin" y="28.45" width="14.4" height=".7" fill="none" stroke-width="0" connectorName="OUTH"/>
  <rect id="connector16terminal" y="28.45" width="0" height=".7" fill="none" stroke-width="0"/>
  <text x="15.8" y="29.5" fill="#8c8c8c" font-family="Noto Sans" font-size="3.5">OUTH</text>
  <line x1=".35" x2="14.4" y1="36" y2="36" fill="none" stroke="#787878" stroke-linecap="round" stroke-linejoin="round" stroke-width=".7"/>
  <rect id="connector17pin" y="35.65" width="14.4" height=".7" fill="none" stroke-width="0" connectorName="OUTV"/>
  <rect id="connector17terminal" y="35.65" width="0" height=".7" fill="none" stroke-width="0"/>
  <text x="15.8" y="36.7" fill="#8c8c8c" font-family="Noto Sans" font-size="3.5">OUTV</text>
  <line x1="71.65" x2="86.05" y1="28.8" y2="28.8" fill="none" stroke="#787878" stroke-linecap="round" stroke-linejoin="round" stroke-width=".7"/>
  <rect id="connector13pin" x="72" y="28.45" width="14.4" height=".7" fill="none" stroke-width="0" connectorname="SIGNAL"/>
  <rect id="connector13terminal" x="43.186" y="29.149" width=".0288" height=".0014" fill="none" stroke-width="0"/>
  <rect x="86.4" y="28.45" width="0" height=".7" fill="none" stroke-width="0"/>
  <text x="70.6" y="29.5" fill="#8c8c8c" font-family="Noto Sans" font-size="3.5" text-anchor="end">SIGNAL</text>
  <line x1="43.2" x2="43.2" y1=".35" y2="14.4" fill="none" stroke="#787878" stroke-linecap="round" stroke-linejoin="round" stroke-width=".7"/>
  <rect id="connector14pin" x="42.85" width=".7" height="14.4" fill="none" stroke-width="0" connectorname="VIN"/>
  <rect id="connector14terminal" x="42.85" width=".7" height="0" fill="none" stroke-width="0"/>
  <g transform="translate(44.6 16)">
   <g transform="rotate(270)">
    <text fill="#8c8c8c" font-family="Noto Sans" font-size="3.5" text-anchor="end">VIN</text>
   </g>
  </g>
  <line x1="43.2" x2="43.2" y1="64.8" y2="78.85" fill="none" stroke="#787878" stroke-linecap="round" stroke-linejoin="round" stroke-width=".7"/>
  <rect id="connector15pin" x="42.85" y="64.8" width=".7" height="14.4" fill="none" stroke-width="0" connectorname="GND"/>
  <rect id="connector15terminal" x="42.85" y="79.2" width=".7" height="0" fill="none" stroke-width="0"/>
  <g transform="translate(44.6 63.2)">
   <g transform="rotate(270)">
    <text fill="#8c8c8c" font-family="Noto Sans" font-size="3.5">GND</text>
   </g>
  </g>
  <rect id="connector19pin" x="42.85" width=".7" height="14.4" fill="none" stroke-width="0" connectorname="VIN"/>
  <rect id="connector19terminal" x="42.85" width=".7" height="0" fill="none" stroke-width="0"/>
  <rect id="connector45pin" x="42.85" width=".7" height="14.4" fill="none" stroke-width="0" connectorname="VIN"/>
  <rect id="connector45terminal" x="42.85" width=".7" height="0" fill="none" stroke-width="0"/>
  <rect id="connector20pin" x="42.85" y="64.8" width=".7" height="14.4" fill="none" stroke-width="0" connectorname="GND"/>
  <rect id="connector20terminal" x="42.85" y="79.2" width=".7" height="0" fill="none" stroke-width="0"/>
  <rect id="connector44pin" x="42.85" y="64.8" width=".7" height="14.4" fill="none" stroke-width="0" connectorname="GND"/>
  <rect id="connector44terminal" x="42.85" y="79.2" width=".7" height="0" fill="none" stroke-width="0"/>
  <rect id="connector18pin" x="72" y="28.45" width="14.4" height=".7" fill="none" stroke-width="0" connectorname="SIGNAL"/>
  <rect id="connector18terminal" x="86.4" y="28.45" width="0" height=".7" fill="none" stroke-width="0"/>
  <rect id="connector46pin" x="72" y="28.45" width="14.4" height=".7" fill="none" stroke-width="0" connectorname="SIGNAL"/>
  <rect id="connector46terminal" x="86.4" y="28.45" width="0" height=".7" fill="none" stroke-width="0"/>
 </g>
</svg>
