<?xml version="1.0" encoding="UTF-8"?>
<!DOCTYPE svg>
<!-- Generator: Adobe Illustrator 26.2.1, SVG Export Plug-In . SVG Version: 6.00 Build 0)  -->
<svg width="1.3in" height="1in" enable-background="new 0 0 93.6 72" version="1.1" viewBox="0 0 93.6 72" xml:space="preserve" xmlns="http://www.w3.org/2000/svg" xmlns:xml="http://www.w3.org/XML/1998/namespace">
    <desc>
        <referenceFile>IR Stemma Rev B_schematic.svg</referenceFile>
    </desc>
    <metadata>
        <sfw>
            <slices/>
            <sliceSourceBounds x="0" y="0" width="93.6001" height="72" bottomLeftOrigin="true"/>
        </sfw>
    </metadata>
    <desc>Fritzing schematic generated by brd2svg</desc>
    <g id="schematic">
        <rect x="14.4" y="14.4" width="64.35" height="43.2" fill="none" stroke="#000" stroke-linecap="round" stroke-linejoin="round" stroke-width=".9"/>
        <g transform="translate(40.431 30.772)">
            <g id="label" enable-background="new    " font-family="Noto Sans" font-size="2.8">
                <text>Adafruit</text>
                <text x="4.2886" y="4.2002">IR </text>
                <text x="-2.8315" y="8.4004">LED Emitter</text>
            </g>
        </g>
        <line x1=".35" x2="14.4" y1="28.8" y2="28.8" fill="none" stroke="#787878" stroke-linecap="round" stroke-linejoin="round" stroke-width=".7"/>
        <rect id="connector24pin" y="28.45" width="14.4" height=".7" fill="none"/>
        <rect id="connector24terminal" y="28.45" width="0" height=".7" fill="none"/>
        <g transform="translate(15.8 29.5)">
            <text fill="#8C8C8C" font-family="Noto Sans" font-size="2.8">A</text>
        </g>
        <line x1=".35" x2="14.4" y1="36" y2="36" fill="none" stroke="#787878" stroke-linecap="round" stroke-linejoin="round" stroke-width=".7"/>
        <rect id="connector25pin" y="35.65" width="14.4" height=".7" fill="none"/>
        <rect id="connector25terminal" y="35.65" width="0" height=".7" fill="none"/>
        <g transform="translate(15.8 36.7)">
            <text fill="#8C8C8C" font-family="Noto Sans" font-size="2.8">K</text>
        </g>
        <line x1="78.85" x2="93.25" y1="28.8" y2="28.8" fill="none" stroke="#787878" stroke-linecap="round" stroke-linejoin="round" stroke-width=".7"/>
        <rect id="connector18pin" x="79.2" y="28.45" width="14.4" height=".7" fill="none"/>
        <rect id="connector18terminal" x="93.6" y="28.45" width="0" height=".7" fill="none"/>
        <g transform="translate(66.019 29.5)">
            <text fill="#8C8C8C" font-family="Noto Sans" font-size="2.8">SIGNAL</text>
        </g>
        <line x1="43.2" x2="43.2" y1=".35" y2="14.4" fill="none" stroke="#787878" stroke-linecap="round" stroke-linejoin="round" stroke-width=".7"/>
        <rect id="connector19pin" x="42.85" width=".7" height="14.4" fill="none"/>
        <polygon id="connector19terminal" points="42.85 0 43.55 0 43.55 0" fill="none"/>
        <g transform="translate(44.6 16)">
            
                <g transform="rotate(270)">
                    
                        <g transform="translate(-5.7256 -2.2414e-5)">
                            <text fill="#8C8C8C" font-family="Noto Sans" font-size="2.8">VIN</text>
                        </g>
                    
                </g>
            
        </g>
        <line x1="43.2" x2="43.2" y1="57.6" y2="71.65" fill="none" stroke="#787878" stroke-linecap="round" stroke-linejoin="round" stroke-width=".7"/>
        <rect id="connector20pin" x="42.85" y="57.6" width=".7" height="14.4" fill="none"/>
        <polygon id="connector20terminal" points="42.85 72 43.55 72 43.55 72" fill="none"/>
        <g transform="translate(44.6 56)">
            
                <g transform="rotate(270)">
                    
                        <g transform="translate(0 -2.2414e-5)">
                            <text fill="#8C8C8C" font-family="Noto Sans" font-size="2.8">GND</text>
                        </g>
                    
                </g>
            
        </g>
        <rect id="connector22pin" x="42.85" width=".7" height="14.4" fill="none"/>
        <polygon id="connector22terminal" points="42.85 0 43.55 0 43.55 0" fill="none"/>
        <rect id="connector44pin" x="42.85" width=".7" height="14.4" fill="none"/>
        <polygon id="connector44terminal" points="42.85 0 43.55 0 43.55 0" fill="none"/>
        <rect id="connector23pin" x="42.85" y="57.6" width=".7" height="14.4" fill="none"/>
        <polygon id="connector23terminal" points="42.85 72 43.55 72 43.55 72" fill="none"/>
        <rect id="connector43pin" x="42.85" y="57.6" width=".7" height="14.4" fill="none"/>
        <polygon id="connector43terminal" points="42.85 72 43.55 72 43.55 72" fill="none"/>
        <rect id="connector21pin" x="79.2" y="28.45" width="14.4" height=".7" fill="none"/>
        <rect id="connector21terminal" x="93.6" y="28.45" width="0" height=".7" fill="none"/>
        <rect id="connector45pin" x="79.2" y="28.45" width="14.4" height=".7" fill="none"/>
        <rect id="connector45terminal" x="93.6" y="28.45" width="0" height=".7" fill="none"/>
    </g>
</svg>
