<?xml version="1.0" encoding="UTF-8"?>
<!-- Created with Fritzing (http://www.fritzing.org/) -->
<svg width="1.4in" height="1.9in" baseProfile="tiny" version="1.2" viewBox="0 0 100.8 136.8" xmlns="http://www.w3.org/2000/svg">
 <desc>
  <referenceFile>Adafruit I2C Quad Rotary Encoder Breakout_schematic.svg</referenceFile>
 </desc>
 <desc>Fritzing schematic generated by brd2svg</desc>
 <g id="schematic">
  <rect x="14.4" y="14.4" width="71.55" height="108" fill="none" stroke="#000" stroke-linecap="round" stroke-linejoin="round" stroke-width=".9"/>
  <text id="label" x="50.4" y="54.3" fill="#000000" font-family="Noto Sans" font-size="3.5" text-anchor="middle"><tspan x="50.4" y="54.3">Adafruit</tspan> <tspan x="50.4" y="57.8">I2C</tspan> <tspan x="50.4" y="61.3">Quad</tspan> <tspan x="50.4" y="64.8">Rotary</tspan> <tspan x="50.4" y="68.3">Encoder</tspan> <tspan x="50.4" y="71.8">Breakout</tspan></text>
  <line x1=".35" x2="14.4" y1="28.8" y2="28.8" fill="none" stroke="#787878" stroke-linecap="round" stroke-linejoin="round" stroke-width=".7"/>
  <rect id="connector31pin" y="28.45" width="14.4" height=".7" fill="none" stroke-width="0" connectorName="SCL"/>
  <rect id="connector31terminal" y="28.45" width="0" height=".7" fill="none" stroke-width="0"/>
  <text x="15.8" y="29.5" fill="#8c8c8c" font-family="Noto Sans" font-size="3.5">SCL</text>
  <line x1=".35" x2="14.4" y1="36" y2="36" fill="none" stroke="#787878" stroke-linecap="round" stroke-linejoin="round" stroke-width=".7"/>
  <rect id="connector30pin" y="35.65" width="14.4" height=".7" fill="none" stroke-width="0" connectorName="SDA"/>
  <rect id="connector30terminal" y="35.65" width="0" height=".7" fill="none" stroke-width="0"/>
  <text x="15.8" y="36.7" fill="#8c8c8c" font-family="Noto Sans" font-size="3.5">SDA</text>
  <line x1=".35" x2="14.4" y1="43.2" y2="43.2" fill="none" stroke="#787878" stroke-linecap="round" stroke-linejoin="round" stroke-width=".7"/>
  <rect id="connector103pin" y="42.85" width="14.4" height=".7" fill="none" stroke-width="0" connectorName="INT"/>
  <rect id="connector103terminal" y="42.85" width="0" height=".7" fill="none" stroke-width="0"/>
  <text x="15.8" y="43.9" fill="#8c8c8c" font-family="Noto Sans" font-size="3.5">INT</text>
  <line x1=".35" x2="14.4" y1="50.4" y2="50.4" fill="none" stroke="#787878" stroke-linecap="round" stroke-linejoin="round" stroke-width=".7"/>
  <rect id="connector104pin" y="50.05" width="14.4" height=".7" fill="none" stroke-width="0" connectorName="UPDI"/>
  <rect id="connector104terminal" y="50.05" width="0" height=".7" fill="none" stroke-width="0"/>
  <text x="15.8" y="51.1" fill="#8c8c8c" font-family="Noto Sans" font-size="3.5">UPDI</text>
  <line x1="86.05" x2="100.45" y1="28.8" y2="28.8" fill="none" stroke="#787878" stroke-linecap="round" stroke-linejoin="round" stroke-width=".7"/>
  <rect id="connector46pin" x="86.4" y="28.45" width="14.4" height=".7" fill="none" stroke-width="0" connectorname="ROT0_A"/>
  <rect id="connector46terminal" x="100.8" y="28.45" width="0" height=".7" fill="none" stroke-width="0"/>
  <text x="85.0003" y="29.5" fill="#8c8c8c" font-family="Noto Sans" font-size="3.5" text-anchor="end">ROT0_A</text>
  <line x1="86.05" x2="100.45" y1="36" y2="36" fill="none" stroke="#787878" stroke-linecap="round" stroke-linejoin="round" stroke-width=".7"/>
  <rect id="connector47pin" x="86.4" y="35.65" width="14.4" height=".7" fill="none" stroke-width="0" connectorname="ROT0_B"/>
  <rect id="connector47terminal" x="100.8" y="35.65" width="0" height=".7" fill="none" stroke-width="0"/>
  <text x="85.0003" y="36.7" fill="#8c8c8c" font-family="Noto Sans" font-size="3.5" text-anchor="end">ROT0_B</text>
  <line x1="86.05" x2="100.45" y1="43.2" y2="43.2" fill="none" stroke="#787878" stroke-linecap="round" stroke-linejoin="round" stroke-width=".7"/>
  <rect id="connector44pin" x="86.4" y="42.85" width="14.4" height=".7" fill="none" stroke-width="0" connectorname="ROT0_SW"/>
  <rect id="connector44terminal" x="100.8" y="42.85" width="0" height=".7" fill="none" stroke-width="0"/>
  <text x="85.0003" y="43.9" fill="#8c8c8c" font-family="Noto Sans" font-size="3.5" text-anchor="end">ROT0_SW</text>
  <line x1="86.05" x2="100.45" y1="50.4" y2="50.4" fill="none" stroke="#787878" stroke-linecap="round" stroke-linejoin="round" stroke-width=".7"/>
  <rect id="connector53pin" x="86.4" y="50.05" width="14.4" height=".7" fill="none" stroke-width="0" connectorname="ROT1_A"/>
  <rect id="connector53terminal" x="100.8" y="50.05" width="0" height=".7" fill="none" stroke-width="0"/>
  <text x="85.0003" y="51.1" fill="#8c8c8c" font-family="Noto Sans" font-size="3.5" text-anchor="end">ROT1_A</text>
  <line x1="86.05" x2="100.45" y1="57.6" y2="57.6" fill="none" stroke="#787878" stroke-linecap="round" stroke-linejoin="round" stroke-width=".7"/>
  <rect id="connector54pin" x="86.4" y="57.25" width="14.4" height=".7" fill="none" stroke-width="0" connectorname="ROT1_B"/>
  <rect id="connector54terminal" x="100.8" y="57.25" width="0" height=".7" fill="none" stroke-width="0"/>
  <text x="85.0003" y="58.3" fill="#8c8c8c" font-family="Noto Sans" font-size="3.5" text-anchor="end">ROT1_B</text>
  <line x1="86.05" x2="100.45" y1="64.8" y2="64.8" fill="none" stroke="#787878" stroke-linecap="round" stroke-linejoin="round" stroke-width=".7"/>
  <rect id="connector51pin" x="86.4" y="64.45" width="14.4" height=".7" fill="none" stroke-width="0" connectorname="ROT1_SW"/>
  <rect id="connector51terminal" x="100.8" y="64.45" width="0" height=".7" fill="none" stroke-width="0"/>
  <text x="85.0003" y="65.5" fill="#8c8c8c" font-family="Noto Sans" font-size="3.5" text-anchor="end">ROT1_SW</text>
  <line x1="86.05" x2="100.45" y1="72" y2="72" fill="none" stroke="#787878" stroke-linecap="round" stroke-linejoin="round" stroke-width=".7"/>
  <rect id="connector60pin" x="86.4" y="71.65" width="14.4" height=".7" fill="none" stroke-width="0" connectorname="ROT2_A"/>
  <rect id="connector60terminal" x="100.8" y="71.65" width="0" height=".7" fill="none" stroke-width="0"/>
  <text x="85.0003" y="72.6998" fill="#8c8c8c" font-family="Noto Sans" font-size="3.5" text-anchor="end">ROT2_A</text>
  <line x1="86.05" x2="100.45" y1="79.2" y2="79.2" fill="none" stroke="#787878" stroke-linecap="round" stroke-linejoin="round" stroke-width=".7"/>
  <rect id="connector61pin" x="86.4" y="78.85" width="14.4" height=".7" fill="none" stroke-width="0" connectorname="ROT2_B"/>
  <rect id="connector61terminal" x="100.8" y="78.85" width="0" height=".7" fill="none" stroke-width="0"/>
  <text x="85.0003" y="79.8998" fill="#8c8c8c" font-family="Noto Sans" font-size="3.5" text-anchor="end">ROT2_B</text>
  <line x1="86.05" x2="100.45" y1="86.4" y2="86.4" fill="none" stroke="#787878" stroke-linecap="round" stroke-linejoin="round" stroke-width=".7"/>
  <rect id="connector58pin" x="86.4" y="86.05" width="14.4" height=".7" fill="none" stroke-width="0" connectorname="ROT2_SW"/>
  <rect id="connector58terminal" x="100.8" y="86.05" width="0" height=".7" fill="none" stroke-width="0"/>
  <text x="85.0003" y="87.0998" fill="#8c8c8c" font-family="Noto Sans" font-size="3.5" text-anchor="end">ROT2_SW</text>
  <line x1="86.05" x2="100.45" y1="93.6" y2="93.6" fill="none" stroke="#787878" stroke-linecap="round" stroke-linejoin="round" stroke-width=".7"/>
  <rect id="connector67pin" x="86.4" y="93.25" width="14.4" height=".7" fill="none" stroke-width="0" connectorname="ROT3_A"/>
  <rect id="connector67terminal" x="100.8" y="93.25" width="0" height=".7" fill="none" stroke-width="0"/>
  <text x="85.0003" y="94.2998" fill="#8c8c8c" font-family="Noto Sans" font-size="3.5" text-anchor="end">ROT3_A</text>
  <line x1="86.05" x2="100.45" y1="100.8" y2="100.8" fill="none" stroke="#787878" stroke-linecap="round" stroke-linejoin="round" stroke-width=".7"/>
  <rect id="connector68pin" x="86.4" y="100.45" width="14.4" height=".7" fill="none" stroke-width="0" connectorname="ROT3_B"/>
  <rect id="connector68terminal" x="100.8" y="100.45" width="0" height=".7" fill="none" stroke-width="0"/>
  <text x="85.0003" y="101.5" fill="#8c8c8c" font-family="Noto Sans" font-size="3.5" text-anchor="end">ROT3_B</text>
  <line x1="86.05" x2="100.45" y1="108" y2="108" fill="none" stroke="#787878" stroke-linecap="round" stroke-linejoin="round" stroke-width=".7"/>
  <rect id="connector65pin" x="86.4" y="107.65" width="14.4" height=".7" fill="none" stroke-width="0" connectorname="ROT3_SW"/>
  <rect id="connector65terminal" x="100.8" y="107.65" width="0" height=".7" fill="none" stroke-width="0"/>
  <text x="85.0003" y="108.7" fill="#8c8c8c" font-family="Noto Sans" font-size="3.5" text-anchor="end">ROT3_SW</text>
  <line x1="50.4" x2="50.4" y1=".35" y2="14.4" fill="none" stroke="#787878" stroke-linecap="round" stroke-linejoin="round" stroke-width=".7"/>
  <rect id="connector29pin" x="50.05" width=".7" height="14.4" fill="none" stroke-width="0" connectorname="VCC"/>
  <rect id="connector29terminal" x="50.05" width=".7" height="0" fill="none" stroke-width="0"/>
  <g transform="translate(51.8 16)">
   <g transform="rotate(270)">
    <text fill="#8c8c8c" font-family="Noto Sans" font-size="3.5" text-anchor="end">VCC</text>
   </g>
  </g>
  <line x1="50.4" x2="50.4" y1="122.4" y2="136.45" fill="none" stroke="#787878" stroke-linecap="round" stroke-linejoin="round" stroke-width=".7"/>
  <rect id="connector28pin" x="50.05" y="122.4" width=".7" height="14.4" fill="none" stroke-width="0" connectorname="GND"/>
  <rect id="connector28terminal" x="50.05" y="136.8" width=".7" height="0" fill="none" stroke-width="0"/>
  <g transform="translate(51.8 120.8)">
   <g transform="rotate(270)">
    <text fill="#8c8c8c" font-family="Noto Sans" font-size="3.5">GND</text>
   </g>
  </g>
  <rect id="connector99pin" x="50.05" width=".7" height="14.4" fill="none" stroke-width="0" connectorname="VCC"/>
  <rect id="connector99terminal" x="50.05" width=".7" height="0" fill="none" stroke-width="0"/>
  <rect id="connector105pin" x="50.05" width=".7" height="14.4" fill="none" stroke-width="0" connectorname="VCC"/>
  <rect id="connector105terminal" x="50.05" width=".7" height="0" fill="none" stroke-width="0"/>
  <rect id="connector35pin" x="50.05" width=".7" height="14.4" fill="none" stroke-width="0" connectorname="VCC"/>
  <rect id="connector35terminal" x="50.05" width=".7" height="0" fill="none" stroke-width="0"/>
  <rect id="connector45pin" x="50.05" y="122.4" width=".7" height="14.4" fill="none" stroke-width="0" connectorname="GND"/>
  <rect id="connector45terminal" x="50.05" y="136.8" width=".7" height="0" fill="none" stroke-width="0"/>
  <rect id="connector48pin" x="50.05" y="122.4" width=".7" height="14.4" fill="none" stroke-width="0" connectorname="GND"/>
  <rect id="connector48terminal" x="50.05" y="136.8" width=".7" height="0" fill="none" stroke-width="0"/>
  <rect id="connector49pin" x="50.05" y="122.4" width=".7" height="14.4" fill="none" stroke-width="0" connectorname="GND"/>
  <rect id="connector49terminal" x="50.05" y="136.8" width=".7" height="0" fill="none" stroke-width="0"/>
  <rect id="connector50pin" x="50.05" y="122.4" width=".7" height="14.4" fill="none" stroke-width="0" connectorname="GND"/>
  <rect id="connector50terminal" x="50.05" y="136.8" width=".7" height="0" fill="none" stroke-width="0"/>
  <rect id="connector52pin" x="50.05" y="122.4" width=".7" height="14.4" fill="none" stroke-width="0" connectorname="GND"/>
  <rect id="connector52terminal" x="50.05" y="136.8" width=".7" height="0" fill="none" stroke-width="0"/>
  <rect id="connector55pin" x="50.05" y="122.4" width=".7" height="14.4" fill="none" stroke-width="0" connectorname="GND"/>
  <rect id="connector55terminal" x="50.05" y="136.8" width=".7" height="0" fill="none" stroke-width="0"/>
  <rect id="connector56pin" x="50.05" y="122.4" width=".7" height="14.4" fill="none" stroke-width="0" connectorname="GND"/>
  <rect id="connector56terminal" x="50.05" y="136.8" width=".7" height="0" fill="none" stroke-width="0"/>
  <rect id="connector57pin" x="50.05" y="122.4" width=".7" height="14.4" fill="none" stroke-width="0" connectorname="GND"/>
  <rect id="connector57terminal" x="50.05" y="136.8" width=".7" height="0" fill="none" stroke-width="0"/>
  <rect id="connector59pin" x="50.05" y="122.4" width=".7" height="14.4" fill="none" stroke-width="0" connectorname="GND"/>
  <rect id="connector59terminal" x="50.05" y="136.8" width=".7" height="0" fill="none" stroke-width="0"/>
  <rect id="connector62pin" x="50.05" y="122.4" width=".7" height="14.4" fill="none" stroke-width="0" connectorname="GND"/>
  <rect id="connector62terminal" x="50.05" y="136.8" width=".7" height="0" fill="none" stroke-width="0"/>
  <rect id="connector63pin" x="50.05" y="122.4" width=".7" height="14.4" fill="none" stroke-width="0" connectorname="GND"/>
  <rect id="connector63terminal" x="50.05" y="136.8" width=".7" height="0" fill="none" stroke-width="0"/>
  <rect id="connector64pin" x="50.05" y="122.4" width=".7" height="14.4" fill="none" stroke-width="0" connectorname="GND"/>
  <rect id="connector64terminal" x="50.05" y="136.8" width=".7" height="0" fill="none" stroke-width="0"/>
  <rect id="connector66pin" x="50.05" y="122.4" width=".7" height="14.4" fill="none" stroke-width="0" connectorname="GND"/>
  <rect id="connector66terminal" x="50.05" y="136.8" width=".7" height="0" fill="none" stroke-width="0"/>
  <rect id="connector69pin" x="50.05" y="122.4" width=".7" height="14.4" fill="none" stroke-width="0" connectorname="GND"/>
  <rect id="connector69terminal" x="50.05" y="136.8" width=".7" height="0" fill="none" stroke-width="0"/>
  <rect id="connector70pin" x="50.05" y="122.4" width=".7" height="14.4" fill="none" stroke-width="0" connectorname="GND"/>
  <rect id="connector70terminal" x="50.05" y="136.8" width=".7" height="0" fill="none" stroke-width="0"/>
  <rect id="connector71pin" x="50.05" y="122.4" width=".7" height="14.4" fill="none" stroke-width="0" connectorname="GND"/>
  <rect id="connector71terminal" x="50.05" y="136.8" width=".7" height="0" fill="none" stroke-width="0"/>
  <rect id="connector100pin" x="50.05" y="122.4" width=".7" height="14.4" fill="none" stroke-width="0" connectorname="GND"/>
  <rect id="connector100terminal" x="50.05" y="136.8" width=".7" height="0" fill="none" stroke-width="0"/>
  <rect id="connector106pin" x="50.05" y="122.4" width=".7" height="14.4" fill="none" stroke-width="0" connectorname="GND"/>
  <rect id="connector106terminal" x="50.05" y="136.8" width=".7" height="0" fill="none" stroke-width="0"/>
  <rect id="connector34pin" x="50.05" y="122.4" width=".7" height="14.4" fill="none" stroke-width="0" connectorname="GND"/>
  <rect id="connector34terminal" x="50.05" y="136.8" width=".7" height="0" fill="none" stroke-width="0"/>
  <rect id="connector107pin" y="28.45" width="14.4" height=".7" fill="none" stroke-width="0" connectorName="SCL"/>
  <rect id="connector107terminal" y="28.45" width="0" height=".7" fill="none" stroke-width="0"/>
  <rect id="connector101pin" y="28.45" width="14.4" height=".7" fill="none" stroke-width="0" connectorName="SCL"/>
  <rect id="connector101terminal" y="28.45" width="0" height=".7" fill="none" stroke-width="0"/>
  <rect id="connector37pin" y="28.45" width="14.4" height=".7" fill="none" stroke-width="0" connectorName="SCL"/>
  <rect id="connector37terminal" y="28.45" width="0" height=".7" fill="none" stroke-width="0"/>
  <rect id="connector108pin" y="35.65" width="14.4" height=".7" fill="none" stroke-width="0" connectorName="SDA"/>
  <rect id="connector108terminal" y="35.65" width="0" height=".7" fill="none" stroke-width="0"/>
  <rect id="connector102pin" y="35.65" width="14.4" height=".7" fill="none" stroke-width="0" connectorName="SDA"/>
  <rect id="connector102terminal" y="35.65" width="0" height=".7" fill="none" stroke-width="0"/>
  <rect id="connector36pin" y="35.65" width="14.4" height=".7" fill="none" stroke-width="0" connectorName="SDA"/>
  <rect id="connector36terminal" y="35.65" width="0" height=".7" fill="none" stroke-width="0"/>
  <rect id="connector109pin" y="42.85" width="14.4" height=".7" fill="none" stroke-width="0" connectorName="INT"/>
  <rect id="connector109terminal" y="42.85" width="0" height=".7" fill="none" stroke-width="0"/>
  <rect id="connector110pin" y="50.05" width="14.4" height=".7" fill="none" stroke-width="0" connectorName="UPDI"/>
  <rect id="connector110terminal" x="50.386" y="50.749" width=".0288" height=".0014" fill="none" stroke-width="0"/>
  <rect y="50.05" width="0" height=".7" fill="none" stroke-width="0"/>
 </g>
</svg>
