<?xml version="1.0" encoding="UTF-8"?>
<!-- Created with Fritzing (http://www.fritzing.org/) -->
<svg width="1.2in" height="2.8in" baseProfile="tiny" version="1.2" viewBox="0 0 86.4 201.6" xmlns="http://www.w3.org/2000/svg">
 <desc>
  <referenceFile>Arcade Bonnet rev B_schematic.svg</referenceFile>
 </desc>
 <desc>Fritzing schematic generated by brd2svg</desc>
 <g id="schematic">
  <rect x="14.4" y="14.4" width="57.15" height="172.8" fill="none" stroke="#000" stroke-linecap="round" stroke-linejoin="round" stroke-width=".9"/>
  <text id="label" x="43.2" y="93.8002" fill="#000000" font-family="Noto Sans" font-size="3.5" text-anchor="middle"><tspan x="43.2" y="93.8002">Arcade</tspan> <tspan x="43.2" y="97.3001">Bonnet</tspan> <tspan x="43.2" y="100.8">rev</tspan> <tspan x="43.2" y="104.3">B</tspan></text>
  <line x1=".35" x2="14.4" y1="28.8" y2="28.8" fill="none" stroke="#787878" stroke-linecap="round" stroke-linejoin="round" stroke-width=".7"/>
  <rect id="connector130pin" y="28.45" width="14.4" height=".7" fill="none" stroke-width="0" connectorName="B1_0"/>
  <rect id="connector130terminal" y="28.45" width="0" height=".7" fill="none" stroke-width="0"/>
  <text x="15.8" y="29.5" fill="#8c8c8c" font-family="Noto Sans" font-size="3.5">B1_0</text>
  <line x1=".35" x2="14.4" y1="36" y2="36" fill="none" stroke="#787878" stroke-linecap="round" stroke-linejoin="round" stroke-width=".7"/>
  <rect id="connector128pin" y="35.65" width="14.4" height=".7" fill="none" stroke-width="0" connectorName="B1_1"/>
  <rect id="connector128terminal" y="35.65" width="0" height=".7" fill="none" stroke-width="0"/>
  <text x="15.8" y="36.7" fill="#8c8c8c" font-family="Noto Sans" font-size="3.5">B1_1</text>
  <line x1=".35" x2="14.4" y1="43.2" y2="43.2" fill="none" stroke="#787878" stroke-linecap="round" stroke-linejoin="round" stroke-width=".7"/>
  <rect id="connector126pin" y="42.85" width="14.4" height=".7" fill="none" stroke-width="0" connectorName="B1_2"/>
  <rect id="connector126terminal" y="42.85" width="0" height=".7" fill="none" stroke-width="0"/>
  <text x="15.8" y="43.9" fill="#8c8c8c" font-family="Noto Sans" font-size="3.5">B1_2</text>
  <line x1=".35" x2="14.4" y1="50.4" y2="50.4" fill="none" stroke="#787878" stroke-linecap="round" stroke-linejoin="round" stroke-width=".7"/>
  <rect id="connector120pin" y="50.05" width="14.4" height=".7" fill="none" stroke-width="0" connectorName="B1_3"/>
  <rect id="connector120terminal" y="50.05" width="0" height=".7" fill="none" stroke-width="0"/>
  <text x="15.8" y="51.1" fill="#8c8c8c" font-family="Noto Sans" font-size="3.5">B1_3</text>
  <line x1=".35" x2="14.4" y1="57.6" y2="57.6" fill="none" stroke="#787878" stroke-linecap="round" stroke-linejoin="round" stroke-width=".7"/>
  <rect id="connector122pin" y="57.25" width="14.4" height=".7" fill="none" stroke-width="0" connectorName="B1_4"/>
  <rect id="connector122terminal" y="57.25" width="0" height=".7" fill="none" stroke-width="0"/>
  <text x="15.8" y="58.3" fill="#8c8c8c" font-family="Noto Sans" font-size="3.5">B1_4</text>
  <line x1=".35" x2="14.4" y1="64.8" y2="64.8" fill="none" stroke="#787878" stroke-linecap="round" stroke-linejoin="round" stroke-width=".7"/>
  <rect id="connector124pin" y="64.45" width="14.4" height=".7" fill="none" stroke-width="0" connectorName="B1_5"/>
  <rect id="connector124terminal" y="64.45" width="0" height=".7" fill="none" stroke-width="0"/>
  <text x="15.8" y="65.5" fill="#8c8c8c" font-family="Noto Sans" font-size="3.5">B1_5</text>
  <line x1=".35" x2="14.4" y1="72" y2="72" fill="none" stroke="#787878" stroke-linecap="round" stroke-linejoin="round" stroke-width=".7"/>
  <rect id="connector109pin" y="71.65" width="14.4" height=".7" fill="none" stroke-width="0" connectorName="J1_0"/>
  <rect id="connector109terminal" y="71.65" width="0" height=".7" fill="none" stroke-width="0"/>
  <text x="15.8" y="72.6998" fill="#8c8c8c" font-family="Noto Sans" font-size="3.5">J1_0</text>
  <line x1=".35" x2="14.4" y1="79.2" y2="79.2" fill="none" stroke="#787878" stroke-linecap="round" stroke-linejoin="round" stroke-width=".7"/>
  <rect id="connector108pin" y="78.85" width="14.4" height=".7" fill="none" stroke-width="0" connectorName="J1_1"/>
  <rect id="connector108terminal" y="78.85" width="0" height=".7" fill="none" stroke-width="0"/>
  <text x="15.8" y="79.8998" fill="#8c8c8c" font-family="Noto Sans" font-size="3.5">J1_1</text>
  <line x1=".35" x2="14.4" y1="86.4" y2="86.4" fill="none" stroke="#787878" stroke-linecap="round" stroke-linejoin="round" stroke-width=".7"/>
  <rect id="connector107pin" y="86.05" width="14.4" height=".7" fill="none" stroke-width="0" connectorName="J1_2"/>
  <rect id="connector107terminal" y="86.05" width="0" height=".7" fill="none" stroke-width="0"/>
  <text x="15.8" y="87.0998" fill="#8c8c8c" font-family="Noto Sans" font-size="3.5">J1_2</text>
  <line x1=".35" x2="14.4" y1="93.6" y2="93.6" fill="none" stroke="#787878" stroke-linecap="round" stroke-linejoin="round" stroke-width=".7"/>
  <rect id="connector106pin" y="93.25" width="14.4" height=".7" fill="none" stroke-width="0" connectorName="J1_3"/>
  <rect id="connector106terminal" y="93.25" width="0" height=".7" fill="none" stroke-width="0"/>
  <text x="15.8" y="94.2998" fill="#8c8c8c" font-family="Noto Sans" font-size="3.5">J1_3</text>
  <line x1=".35" x2="14.4" y1="100.8" y2="100.8" fill="none" stroke="#787878" stroke-linecap="round" stroke-linejoin="round" stroke-width=".7"/>
  <rect id="connector112pin" y="100.45" width="14.4" height=".7" fill="none" stroke-width="0" connectorName="XOUT"/>
  <rect id="connector112terminal" y="100.45" width="0" height=".7" fill="none" stroke-width="0"/>
  <text x="15.8" y="101.5" fill="#8c8c8c" font-family="Noto Sans" font-size="3.5">XOUT</text>
  <line x1=".35" x2="14.4" y1="108" y2="108" fill="none" stroke="#787878" stroke-linecap="round" stroke-linejoin="round" stroke-width=".7"/>
  <rect id="connector111pin" y="107.65" width="14.4" height=".7" fill="none" stroke-width="0" connectorName="YOUT"/>
  <rect id="connector111terminal" y="107.65" width="0" height=".7" fill="none" stroke-width="0"/>
  <text x="15.8" y="108.7" fill="#8c8c8c" font-family="Noto Sans" font-size="3.5">YOUT</text>
  <line x1=".35" x2="14.4" y1="115.2" y2="115.2" fill="none" stroke="#787878" stroke-linecap="round" stroke-linejoin="round" stroke-width=".7"/>
  <rect id="connector33pin" y="114.85" width="14.4" height=".7" fill="none" stroke-width="0" connectorName="SDA"/>
  <rect id="connector33terminal" y="114.85" width="0" height=".7" fill="none" stroke-width="0"/>
  <text x="15.8" y="115.9" fill="#8c8c8c" font-family="Noto Sans" font-size="3.5">SDA</text>
  <line x1=".35" x2="14.4" y1="122.4" y2="122.4" fill="none" stroke="#787878" stroke-linecap="round" stroke-linejoin="round" stroke-width=".7"/>
  <rect id="connector34pin" y="122.05" width="14.4" height=".7" fill="none" stroke-width="0" connectorName="SCL"/>
  <rect id="connector34terminal" y="122.05" width="0" height=".7" fill="none" stroke-width="0"/>
  <text x="15.8" y="123.1" fill="#8c8c8c" font-family="Noto Sans" font-size="3.5">SCL</text>
  <line x1=".35" x2="14.4" y1="129.6" y2="129.6" fill="none" stroke="#787878" stroke-linecap="round" stroke-linejoin="round" stroke-width=".7"/>
  <rect id="connector35pin" y="129.25" width="14.4" height=".7" fill="none" stroke-width="0" connectorName="TXD"/>
  <rect id="connector35terminal" y="129.25" width="0" height=".7" fill="none" stroke-width="0"/>
  <text x="15.8" y="130.3" fill="#8c8c8c" font-family="Noto Sans" font-size="3.5">TXD</text>
  <line x1=".35" x2="14.4" y1="136.8" y2="136.8" fill="none" stroke="#787878" stroke-linecap="round" stroke-linejoin="round" stroke-width=".7"/>
  <rect id="connector36pin" y="136.45" width="14.4" height=".7" fill="none" stroke-width="0" connectorName="RXD"/>
  <rect id="connector36terminal" y="136.45" width="0" height=".7" fill="none" stroke-width="0"/>
  <text x="15.8" y="137.5" fill="#8c8c8c" font-family="Noto Sans" font-size="3.5">RXD</text>
  <line x1=".35" x2="14.4" y1="144" y2="144" fill="none" stroke="#787878" stroke-linecap="round" stroke-linejoin="round" stroke-width=".7"/>
  <rect id="connector45pin" y="143.65" width="14.4" height=".7" fill="none" stroke-width="0" connectorName="SPI_MOSI"/>
  <rect id="connector45terminal" y="143.65" width="0" height=".7" fill="none" stroke-width="0"/>
  <text x="15.8" y="144.7" fill="#8c8c8c" font-family="Noto Sans" font-size="3.5">SPI_MOSI</text>
  <line x1=".35" x2="14.4" y1="151.2" y2="151.2" fill="none" stroke="#787878" stroke-linecap="round" stroke-linejoin="round" stroke-width=".7"/>
  <rect id="connector46pin" y="150.85" width="14.4" height=".7" fill="none" stroke-width="0" connectorName="SPI_MISO"/>
  <rect id="connector46terminal" y="150.85" width="0" height=".7" fill="none" stroke-width="0"/>
  <text x="15.8" y="151.9" fill="#8c8c8c" font-family="Noto Sans" font-size="3.5">SPI_MISO</text>
  <line x1=".35" x2="14.4" y1="158.4" y2="158.4" fill="none" stroke="#787878" stroke-linecap="round" stroke-linejoin="round" stroke-width=".7"/>
  <rect id="connector47pin" y="158.05" width="14.4" height=".7" fill="none" stroke-width="0" connectorName="SPI_SCLK"/>
  <rect id="connector47terminal" y="158.05" width="0" height=".7" fill="none" stroke-width="0"/>
  <text x="15.8" y="159.1" fill="#8c8c8c" font-family="Noto Sans" font-size="3.5">SPI_SCLK</text>
  <line x1=".35" x2="14.4" y1="165.6" y2="165.6" fill="none" stroke="#787878" stroke-linecap="round" stroke-linejoin="round" stroke-width=".7"/>
  <rect id="connector48pin" y="165.25" width="14.4" height=".7" fill="none" stroke-width="0" connectorName="SPI_CE0"/>
  <rect id="connector48terminal" y="165.25" width="0" height=".7" fill="none" stroke-width="0"/>
  <text x="15.8" y="166.3" fill="#8c8c8c" font-family="Noto Sans" font-size="3.5">SPI_CE0</text>
  <line x1=".35" x2="14.4" y1="172.8" y2="172.8" fill="none" stroke="#787878" stroke-linecap="round" stroke-linejoin="round" stroke-width=".7"/>
  <rect id="connector49pin" y="172.45" width="14.4" height=".7" fill="none" stroke-width="0" connectorName="SPI_CE1"/>
  <rect id="connector49terminal" y="172.45" width="0" height=".7" fill="none" stroke-width="0"/>
  <text x="15.8" y="173.5" fill="#8c8c8c" font-family="Noto Sans" font-size="3.5">SPI_CE1</text>
  <line x1="71.65" x2="86.05" y1="28.8" y2="28.8" fill="none" stroke="#787878" stroke-linecap="round" stroke-linejoin="round" stroke-width=".7"/>
  <rect id="connector37pin" x="72" y="28.45" width="14.4" height=".7" fill="none" stroke-width="0" connectorname="GPIO4"/>
  <rect id="connector37terminal" x="86.4" y="28.45" width="0" height=".7" fill="none" stroke-width="0"/>
  <text x="70.6" y="29.5" fill="#8c8c8c" font-family="Noto Sans" font-size="3.5" text-anchor="end">GPIO4</text>
  <line x1="71.65" x2="86.05" y1="36" y2="36" fill="none" stroke="#787878" stroke-linecap="round" stroke-linejoin="round" stroke-width=".7"/>
  <rect id="connector50pin" x="72" y="35.65" width="14.4" height=".7" fill="none" stroke-width="0" connectorname="GPIO5"/>
  <rect id="connector50terminal" x="86.4" y="35.65" width="0" height=".7" fill="none" stroke-width="0"/>
  <text x="70.6" y="36.7" fill="#8c8c8c" font-family="Noto Sans" font-size="3.5" text-anchor="end">GPIO5</text>
  <line x1="71.65" x2="86.05" y1="43.2" y2="43.2" fill="none" stroke="#787878" stroke-linecap="round" stroke-linejoin="round" stroke-width=".7"/>
  <rect id="connector51pin" x="72" y="42.85" width="14.4" height=".7" fill="none" stroke-width="0" connectorname="GPIO6"/>
  <rect id="connector51terminal" x="86.4" y="42.85" width="0" height=".7" fill="none" stroke-width="0"/>
  <text x="70.6" y="43.9" fill="#8c8c8c" font-family="Noto Sans" font-size="3.5" text-anchor="end">GPIO6</text>
  <line x1="71.65" x2="86.05" y1="50.4" y2="50.4" fill="none" stroke="#787878" stroke-linecap="round" stroke-linejoin="round" stroke-width=".7"/>
  <rect id="connector52pin" x="72" y="50.05" width="14.4" height=".7" fill="none" stroke-width="0" connectorname="GPIO12"/>
  <rect id="connector52terminal" x="86.4" y="50.05" width="0" height=".7" fill="none" stroke-width="0"/>
  <text x="70.6" y="51.1" fill="#8c8c8c" font-family="Noto Sans" font-size="3.5" text-anchor="end">GPIO12</text>
  <line x1="71.65" x2="86.05" y1="57.6" y2="57.6" fill="none" stroke="#787878" stroke-linecap="round" stroke-linejoin="round" stroke-width=".7"/>
  <rect id="connector53pin" x="72" y="57.25" width="14.4" height=".7" fill="none" stroke-width="0" connectorname="GPIO13"/>
  <rect id="connector53terminal" x="86.4" y="57.25" width="0" height=".7" fill="none" stroke-width="0"/>
  <text x="70.6" y="58.3" fill="#8c8c8c" font-family="Noto Sans" font-size="3.5" text-anchor="end">GPIO13</text>
  <line x1="71.65" x2="86.05" y1="64.8" y2="64.8" fill="none" stroke="#787878" stroke-linecap="round" stroke-linejoin="round" stroke-width=".7"/>
  <rect id="connector54pin" x="72" y="64.45" width="14.4" height=".7" fill="none" stroke-width="0" connectorname="GPIO16"/>
  <rect id="connector54terminal" x="86.4" y="64.45" width="0" height=".7" fill="none" stroke-width="0"/>
  <text x="70.6" y="65.5" fill="#8c8c8c" font-family="Noto Sans" font-size="3.5" text-anchor="end">GPIO16</text>
  <line x1="71.65" x2="86.05" y1="72" y2="72" fill="none" stroke="#787878" stroke-linecap="round" stroke-linejoin="round" stroke-width=".7"/>
  <rect id="connector38pin" x="72" y="71.65" width="14.4" height=".7" fill="none" stroke-width="0" connectorname="GPIO17"/>
  <rect id="connector38terminal" x="86.4" y="71.65" width="0" height=".7" fill="none" stroke-width="0"/>
  <text x="70.6" y="72.6998" fill="#8c8c8c" font-family="Noto Sans" font-size="3.5" text-anchor="end">GPIO17</text>
  <line x1="71.65" x2="86.05" y1="79.2" y2="79.2" fill="none" stroke="#787878" stroke-linecap="round" stroke-linejoin="round" stroke-width=".7"/>
  <rect id="connector56pin" x="72" y="78.85" width="14.4" height=".7" fill="none" stroke-width="0" connectorname="GPIO20"/>
  <rect id="connector56terminal" x="86.4" y="78.85" width="0" height=".7" fill="none" stroke-width="0"/>
  <text x="70.6" y="79.8998" fill="#8c8c8c" font-family="Noto Sans" font-size="3.5" text-anchor="end">GPIO20</text>
  <line x1="71.65" x2="86.05" y1="86.4" y2="86.4" fill="none" stroke="#787878" stroke-linecap="round" stroke-linejoin="round" stroke-width=".7"/>
  <rect id="connector41pin" x="72" y="86.05" width="14.4" height=".7" fill="none" stroke-width="0" connectorname="GPIO22"/>
  <rect id="connector41terminal" x="86.4" y="86.05" width="0" height=".7" fill="none" stroke-width="0"/>
  <text x="70.6" y="87.0998" fill="#8c8c8c" font-family="Noto Sans" font-size="3.5" text-anchor="end">GPIO22</text>
  <line x1="71.65" x2="86.05" y1="93.6" y2="93.6" fill="none" stroke="#787878" stroke-linecap="round" stroke-linejoin="round" stroke-width=".7"/>
  <rect id="connector42pin" x="72" y="93.25" width="14.4" height=".7" fill="none" stroke-width="0" connectorname="GPIO23"/>
  <rect id="connector42terminal" x="86.4" y="93.25" width="0" height=".7" fill="none" stroke-width="0"/>
  <text x="70.6" y="94.2998" fill="#8c8c8c" font-family="Noto Sans" font-size="3.5" text-anchor="end">GPIO23</text>
  <line x1="71.65" x2="86.05" y1="100.8" y2="100.8" fill="none" stroke="#787878" stroke-linecap="round" stroke-linejoin="round" stroke-width=".7"/>
  <rect id="connector43pin" x="72" y="100.45" width="14.4" height=".7" fill="none" stroke-width="0" connectorname="GPIO24"/>
  <rect id="connector43terminal" x="86.4" y="100.45" width="0" height=".7" fill="none" stroke-width="0"/>
  <text x="70.6" y="101.5" fill="#8c8c8c" font-family="Noto Sans" font-size="3.5" text-anchor="end">GPIO24</text>
  <line x1="71.65" x2="86.05" y1="108" y2="108" fill="none" stroke="#787878" stroke-linecap="round" stroke-linejoin="round" stroke-width=".7"/>
  <rect id="connector44pin" x="72" y="107.65" width="14.4" height=".7" fill="none" stroke-width="0" connectorname="GPIO25"/>
  <rect id="connector44terminal" x="86.4" y="107.65" width="0" height=".7" fill="none" stroke-width="0"/>
  <text x="70.6" y="108.7" fill="#8c8c8c" font-family="Noto Sans" font-size="3.5" text-anchor="end">GPIO25</text>
  <line x1="71.65" x2="86.05" y1="115.2" y2="115.2" fill="none" stroke="#787878" stroke-linecap="round" stroke-linejoin="round" stroke-width=".7"/>
  <rect id="connector178pin" x="72" y="114.85" width="14.4" height=".7" fill="none" stroke-width="0" connectorname="GPIO26"/>
  <rect id="connector178terminal" x="86.4" y="114.85" width="0" height=".7" fill="none" stroke-width="0"/>
  <text x="70.6" y="115.9" fill="#8c8c8c" font-family="Noto Sans" font-size="3.5" text-anchor="end">GPIO26</text>
  <line x1="71.65" x2="86.05" y1="122.4" y2="122.4" fill="none" stroke="#787878" stroke-linecap="round" stroke-linejoin="round" stroke-width=".7"/>
  <rect id="connector40pin" x="72" y="122.05" width="14.4" height=".7" fill="none" stroke-width="0" connectorname="GPIO27"/>
  <rect id="connector40terminal" x="86.4" y="122.05" width="0" height=".7" fill="none" stroke-width="0"/>
  <text x="70.6" y="123.1" fill="#8c8c8c" font-family="Noto Sans" font-size="3.5" text-anchor="end">GPIO27</text>
  <line x1="71.65" x2="86.05" y1="129.6" y2="129.6" fill="none" stroke="#787878" stroke-linecap="round" stroke-linejoin="round" stroke-width=".7"/>
  <rect id="connector39pin" x="72" y="129.25" width="14.4" height=".7" fill="none" stroke-width="0" connectorname="BCLK"/>
  <rect id="connector39terminal" x="86.4" y="129.25" width="0" height=".7" fill="none" stroke-width="0"/>
  <text x="70.6" y="130.3" fill="#8c8c8c" font-family="Noto Sans" font-size="3.5" text-anchor="end">BCLK</text>
  <line x1="71.65" x2="86.05" y1="136.8" y2="136.8" fill="none" stroke="#787878" stroke-linecap="round" stroke-linejoin="round" stroke-width=".7"/>
  <rect id="connector55pin" x="72" y="136.45" width="14.4" height=".7" fill="none" stroke-width="0" connectorname="LRCLK"/>
  <rect id="connector55terminal" x="86.4" y="136.45" width="0" height=".7" fill="none" stroke-width="0"/>
  <text x="70.6" y="137.5" fill="#8c8c8c" font-family="Noto Sans" font-size="3.5" text-anchor="end">LRCLK</text>
  <line x1="71.65" x2="86.05" y1="144" y2="144" fill="none" stroke="#787878" stroke-linecap="round" stroke-linejoin="round" stroke-width=".7"/>
  <rect id="connector57pin" x="72" y="143.65" width="14.4" height=".7" fill="none" stroke-width="0" connectorname="DIN"/>
  <rect id="connector57terminal" x="86.4" y="143.65" width="0" height=".7" fill="none" stroke-width="0"/>
  <text x="70.6" y="144.7" fill="#8c8c8c" font-family="Noto Sans" font-size="3.5" text-anchor="end">DIN</text>
  <line x1="71.65" x2="86.05" y1="151.2" y2="151.2" fill="none" stroke="#787878" stroke-linecap="round" stroke-linejoin="round" stroke-width=".7"/>
  <rect id="connector169pin" x="72" y="150.85" width="14.4" height=".7" fill="none" stroke-width="0" connectorname="EECLK"/>
  <rect id="connector169terminal" x="86.4" y="150.85" width="0" height=".7" fill="none" stroke-width="0"/>
  <text x="70.6" y="151.9" fill="#8c8c8c" font-family="Noto Sans" font-size="3.5" text-anchor="end">EECLK</text>
  <line x1="71.65" x2="86.05" y1="158.4" y2="158.4" fill="none" stroke="#787878" stroke-linecap="round" stroke-linejoin="round" stroke-width=".7"/>
  <rect id="connector168pin" x="72" y="158.05" width="14.4" height=".7" fill="none" stroke-width="0" connectorname="EEDATA"/>
  <rect id="connector168terminal" x="86.4" y="158.05" width="0" height=".7" fill="none" stroke-width="0"/>
  <text x="70.6" y="159.1" fill="#8c8c8c" font-family="Noto Sans" font-size="3.5" text-anchor="end">EEDATA</text>
  <line x1="28.8" x2="28.8" y1=".35" y2="14.4" fill="none" stroke="#787878" stroke-linecap="round" stroke-linejoin="round" stroke-width=".7"/>
  <rect id="connector113pin" x="28.45" width=".7" height="14.4" fill="none" stroke-width="0" connectorname="3.3V"/>
  <rect id="connector113terminal" x="28.45" width=".7" height="0" fill="none" stroke-width="0"/>
  <g transform="translate(30.2 16)">
   <g transform="rotate(270)">
    <text fill="#8c8c8c" font-family="Noto Sans" font-size="3.5" text-anchor="end">3.3V</text>
   </g>
  </g>
  <line x1="36" x2="36" y1=".35" y2="14.4" fill="none" stroke="#787878" stroke-linecap="round" stroke-linejoin="round" stroke-width=".7"/>
  <rect id="connector143pin" x="35.65" width=".7" height="14.4" fill="none" stroke-width="0" connectorname="+5V"/>
  <rect id="connector143terminal" x="35.65" width=".7" height="0" fill="none" stroke-width="0"/>
  <g transform="translate(37.4 16)">
   <g transform="rotate(270)">
    <text fill="#8c8c8c" font-family="Noto Sans" font-size="3.5" text-anchor="end">+5V</text>
   </g>
  </g>
  <line x1="43.2" x2="43.2" y1=".35" y2="14.4" fill="none" stroke="#787878" stroke-linecap="round" stroke-linejoin="round" stroke-width=".7"/>
  <rect id="connector182pin" x="42.85" width=".7" height="14.4" fill="none" stroke-width="0" connectorname="VO-"/>
  <rect id="connector182terminal" x="42.85" width=".7" height="0" fill="none" stroke-width="0"/>
  <g transform="translate(44.6 16)">
   <g transform="rotate(270)">
    <text fill="#8c8c8c" font-family="Noto Sans" font-size="3.5" text-anchor="end">VO-</text>
   </g>
  </g>
  <line x1="50.4" x2="50.4" y1=".35" y2="14.4" fill="none" stroke="#787878" stroke-linecap="round" stroke-linejoin="round" stroke-width=".7"/>
  <rect id="connector183pin" x="50.05" width=".7" height="14.4" fill="none" stroke-width="0" connectorname="VO+"/>
  <rect id="connector183terminal" x="50.05" width=".7" height="0" fill="none" stroke-width="0"/>
  <g transform="translate(51.8 16)">
   <g transform="rotate(270)">
    <text fill="#8c8c8c" font-family="Noto Sans" font-size="3.5" text-anchor="end">VO+</text>
   </g>
  </g>
  <line x1="43.2" x2="43.2" y1="187.2" y2="201.25" fill="none" stroke="#787878" stroke-linecap="round" stroke-linejoin="round" stroke-width=".7"/>
  <rect id="connector105pin" x="42.85" y="187.2" width=".7" height="14.4" fill="none" stroke-width="0" connectorname="GND"/>
  <rect id="connector105terminal" x="42.85" y="201.6" width=".7" height="0" fill="none" stroke-width="0"/>
  <g transform="translate(44.6 185.6)">
   <g transform="rotate(270)">
    <text fill="#8c8c8c" font-family="Noto Sans" font-size="3.5">GND</text>
   </g>
  </g>
  <rect id="connector142pin" x="28.45" width=".7" height="14.4" fill="none" stroke-width="0" connectorname="3.3V"/>
  <rect id="connector142terminal" x="28.45" width=".7" height="0" fill="none" stroke-width="0"/>
  <rect id="connector145pin" x="35.65" width=".7" height="14.4" fill="none" stroke-width="0" connectorname="+5V"/>
  <rect id="connector145terminal" x="35.65" width=".7" height="0" fill="none" stroke-width="0"/>
  <rect id="connector158pin" x="28.45" width=".7" height="14.4" fill="none" stroke-width="0" connectorname="3.3V"/>
  <rect id="connector158terminal" x="28.45" width=".7" height="0" fill="none" stroke-width="0"/>
  <rect id="connector110pin" x="42.85" y="187.2" width=".7" height="14.4" fill="none" stroke-width="0" connectorname="GND"/>
  <rect id="connector110terminal" x="42.85" y="201.6" width=".7" height="0" fill="none" stroke-width="0"/>
  <rect id="connector114pin" x="42.85" y="187.2" width=".7" height="14.4" fill="none" stroke-width="0" connectorname="GND"/>
  <rect id="connector114terminal" x="42.85" y="201.6" width=".7" height="0" fill="none" stroke-width="0"/>
  <rect id="connector115pin" x="42.85" y="187.2" width=".7" height="14.4" fill="none" stroke-width="0" connectorname="GND"/>
  <rect id="connector115terminal" x="42.85" y="201.6" width=".7" height="0" fill="none" stroke-width="0"/>
  <rect id="connector116pin" x="42.85" y="187.2" width=".7" height="14.4" fill="none" stroke-width="0" connectorname="GND"/>
  <rect id="connector116terminal" x="42.85" y="201.6" width=".7" height="0" fill="none" stroke-width="0"/>
  <rect id="connector117pin" x="42.85" y="187.2" width=".7" height="14.4" fill="none" stroke-width="0" connectorname="GND"/>
  <rect id="connector117terminal" x="42.85" y="201.6" width=".7" height="0" fill="none" stroke-width="0"/>
  <rect id="connector118pin" x="42.85" y="187.2" width=".7" height="14.4" fill="none" stroke-width="0" connectorname="GND"/>
  <rect id="connector118terminal" x="42.85" y="201.6" width=".7" height="0" fill="none" stroke-width="0"/>
  <rect id="connector119pin" x="42.85" y="187.2" width=".7" height="14.4" fill="none" stroke-width="0" connectorname="GND"/>
  <rect id="connector119terminal" x="42.85" y="201.6" width=".7" height="0" fill="none" stroke-width="0"/>
  <rect id="connector121pin" x="42.85" y="187.2" width=".7" height="14.4" fill="none" stroke-width="0" connectorname="GND"/>
  <rect id="connector121terminal" x="42.85" y="201.6" width=".7" height="0" fill="none" stroke-width="0"/>
  <rect id="connector123pin" x="42.85" y="187.2" width=".7" height="14.4" fill="none" stroke-width="0" connectorname="GND"/>
  <rect id="connector123terminal" x="42.85" y="201.6" width=".7" height="0" fill="none" stroke-width="0"/>
  <rect id="connector125pin" x="42.85" y="187.2" width=".7" height="14.4" fill="none" stroke-width="0" connectorname="GND"/>
  <rect id="connector125terminal" x="42.85" y="201.6" width=".7" height="0" fill="none" stroke-width="0"/>
  <rect id="connector127pin" x="42.85" y="187.2" width=".7" height="14.4" fill="none" stroke-width="0" connectorname="GND"/>
  <rect id="connector127terminal" x="42.85" y="201.6" width=".7" height="0" fill="none" stroke-width="0"/>
  <rect id="connector129pin" x="42.85" y="187.2" width=".7" height="14.4" fill="none" stroke-width="0" connectorname="GND"/>
  <rect id="connector129terminal" x="42.85" y="201.6" width=".7" height="0" fill="none" stroke-width="0"/>
  <rect id="connector131pin" x="42.85" y="187.2" width=".7" height="14.4" fill="none" stroke-width="0" connectorname="GND"/>
  <rect id="connector131terminal" x="42.85" y="201.6" width=".7" height="0" fill="none" stroke-width="0"/>
  <rect id="connector147pin" x="42.85" y="187.2" width=".7" height="14.4" fill="none" stroke-width="0" connectorname="GND"/>
  <rect id="connector147terminal" x="42.85" y="201.6" width=".7" height="0" fill="none" stroke-width="0"/>
  <rect id="connector150pin" x="42.85" y="187.2" width=".7" height="14.4" fill="none" stroke-width="0" connectorname="GND"/>
  <rect id="connector150terminal" x="42.85" y="201.6" width=".7" height="0" fill="none" stroke-width="0"/>
  <rect id="connector155pin" x="42.85" y="187.2" width=".7" height="14.4" fill="none" stroke-width="0" connectorname="GND"/>
  <rect id="connector155terminal" x="42.85" y="201.6" width=".7" height="0" fill="none" stroke-width="0"/>
  <rect id="connector161pin" x="42.85" y="187.2" width=".7" height="14.4" fill="none" stroke-width="0" connectorname="GND"/>
  <rect id="connector161terminal" x="42.85" y="201.6" width=".7" height="0" fill="none" stroke-width="0"/>
  <rect id="connector166pin" x="42.85" y="187.2" width=".7" height="14.4" fill="none" stroke-width="0" connectorname="GND"/>
  <rect id="connector166terminal" x="42.85" y="201.6" width=".7" height="0" fill="none" stroke-width="0"/>
  <rect id="connector171pin" x="42.85" y="187.2" width=".7" height="14.4" fill="none" stroke-width="0" connectorname="GND"/>
  <rect id="connector171terminal" x="42.85" y="201.6" width=".7" height="0" fill="none" stroke-width="0"/>
  <rect id="connector175pin" x="42.85" y="187.2" width=".7" height="14.4" fill="none" stroke-width="0" connectorname="GND"/>
  <rect id="connector175terminal" x="42.85" y="201.6" width=".7" height="0" fill="none" stroke-width="0"/>
  <rect id="connector180pin" x="42.85" y="187.2" width=".7" height="14.4" fill="none" stroke-width="0" connectorname="GND"/>
  <rect id="connector180terminal" x="42.85" y="201.6" width=".7" height="0" fill="none" stroke-width="0"/>
  <rect id="connector144pin" y="114.85" width="14.4" height=".7" fill="none" stroke-width="0" connectorName="SDA"/>
  <rect id="connector144terminal" y="114.85" width="0" height=".7" fill="none" stroke-width="0"/>
  <rect id="connector146pin" y="122.05" width="14.4" height=".7" fill="none" stroke-width="0" connectorName="SCL"/>
  <rect id="connector146terminal" y="122.05" width="0" height=".7" fill="none" stroke-width="0"/>
  <rect id="connector149pin" y="129.25" width="14.4" height=".7" fill="none" stroke-width="0" connectorName="TXD"/>
  <rect id="connector149terminal" y="129.25" width="0" height=".7" fill="none" stroke-width="0"/>
  <rect id="connector151pin" y="136.45" width="14.4" height=".7" fill="none" stroke-width="0" connectorName="RXD"/>
  <rect id="connector151terminal" y="136.45" width="0" height=".7" fill="none" stroke-width="0"/>
  <rect id="connector160pin" y="143.65" width="14.4" height=".7" fill="none" stroke-width="0" connectorName="SPI_MOSI"/>
  <rect id="connector160terminal" y="143.65" width="0" height=".7" fill="none" stroke-width="0"/>
  <rect id="connector162pin" y="150.85" width="14.4" height=".7" fill="none" stroke-width="0" connectorName="SPI_MISO"/>
  <rect id="connector162terminal" y="150.85" width="0" height=".7" fill="none" stroke-width="0"/>
  <rect id="connector164pin" y="158.05" width="14.4" height=".7" fill="none" stroke-width="0" connectorName="SPI_SCLK"/>
  <rect id="connector164terminal" y="158.05" width="0" height=".7" fill="none" stroke-width="0"/>
  <rect id="connector165pin" y="165.25" width="14.4" height=".7" fill="none" stroke-width="0" connectorName="SPI_CE0"/>
  <rect id="connector165terminal" y="165.25" width="0" height=".7" fill="none" stroke-width="0"/>
  <rect id="connector167pin" y="172.45" width="14.4" height=".7" fill="none" stroke-width="0" connectorName="SPI_CE1"/>
  <rect id="connector167terminal" y="172.45" width="0" height=".7" fill="none" stroke-width="0"/>
  <rect id="connector148pin" x="72" y="28.45" width="14.4" height=".7" fill="none" stroke-width="0" connectorname="GPIO4"/>
  <rect id="connector148terminal" x="86.4" y="28.45" width="0" height=".7" fill="none" stroke-width="0"/>
  <rect id="connector170pin" x="72" y="35.65" width="14.4" height=".7" fill="none" stroke-width="0" connectorname="GPIO5"/>
  <rect id="connector170terminal" x="86.4" y="35.65" width="0" height=".7" fill="none" stroke-width="0"/>
  <rect id="connector172pin" x="72" y="42.85" width="14.4" height=".7" fill="none" stroke-width="0" connectorname="GPIO6"/>
  <rect id="connector172terminal" x="86.4" y="42.85" width="0" height=".7" fill="none" stroke-width="0"/>
  <rect id="connector173pin" x="72" y="50.05" width="14.4" height=".7" fill="none" stroke-width="0" connectorname="GPIO12"/>
  <rect id="connector173terminal" x="86.4" y="50.05" width="0" height=".7" fill="none" stroke-width="0"/>
  <rect id="connector174pin" x="72" y="57.25" width="14.4" height=".7" fill="none" stroke-width="0" connectorname="GPIO13"/>
  <rect id="connector174terminal" x="86.4" y="57.25" width="0" height=".7" fill="none" stroke-width="0"/>
  <rect id="connector177pin" x="72" y="64.45" width="14.4" height=".7" fill="none" stroke-width="0" connectorname="GPIO16"/>
  <rect id="connector177terminal" x="86.4" y="64.45" width="0" height=".7" fill="none" stroke-width="0"/>
  <rect id="connector152pin" x="72" y="71.65" width="14.4" height=".7" fill="none" stroke-width="0" connectorname="GPIO17"/>
  <rect id="connector152terminal" x="86.4" y="71.65" width="0" height=".7" fill="none" stroke-width="0"/>
  <rect id="connector179pin" x="72" y="78.85" width="14.4" height=".7" fill="none" stroke-width="0" connectorname="GPIO20"/>
  <rect id="connector179terminal" x="86.4" y="78.85" width="0" height=".7" fill="none" stroke-width="0"/>
  <rect id="connector156pin" x="72" y="86.05" width="14.4" height=".7" fill="none" stroke-width="0" connectorname="GPIO22"/>
  <rect id="connector156terminal" x="86.4" y="86.05" width="0" height=".7" fill="none" stroke-width="0"/>
  <rect id="connector157pin" x="72" y="93.25" width="14.4" height=".7" fill="none" stroke-width="0" connectorname="GPIO23"/>
  <rect id="connector157terminal" x="86.4" y="93.25" width="0" height=".7" fill="none" stroke-width="0"/>
  <rect id="connector159pin" x="72" y="100.45" width="14.4" height=".7" fill="none" stroke-width="0" connectorname="GPIO24"/>
  <rect id="connector159terminal" x="86.4" y="100.45" width="0" height=".7" fill="none" stroke-width="0"/>
  <rect id="connector163pin" x="72" y="107.65" width="14.4" height=".7" fill="none" stroke-width="0" connectorname="GPIO25"/>
  <rect id="connector163terminal" x="86.4" y="107.65" width="0" height=".7" fill="none" stroke-width="0"/>
  <rect id="connector154pin" x="72" y="122.05" width="14.4" height=".7" fill="none" stroke-width="0" connectorname="GPIO27"/>
  <rect id="connector154terminal" x="86.4" y="122.05" width="0" height=".7" fill="none" stroke-width="0"/>
  <rect id="connector153pin" x="72" y="129.25" width="14.4" height=".7" fill="none" stroke-width="0" connectorname="BCLK"/>
  <rect id="connector153terminal" x="86.4" y="129.25" width="0" height=".7" fill="none" stroke-width="0"/>
  <rect id="connector176pin" x="72" y="136.45" width="14.4" height=".7" fill="none" stroke-width="0" connectorname="LRCLK"/>
  <rect id="connector176terminal" x="86.4" y="136.45" width="0" height=".7" fill="none" stroke-width="0"/>
  <rect id="connector181pin" x="72" y="143.65" width="14.4" height=".7" fill="none" stroke-width="0" connectorname="DIN"/>
  <rect id="connector181terminal" x="86.4" y="143.65" width="0" height=".7" fill="none" stroke-width="0"/>
 </g>
</svg>
