<?xml version="1.0" encoding="UTF-8"?>
<!-- Generator: Adobe Illustrator 26.2.1, SVG Export Plug-In . SVG Version: 6.00 Build 0)  -->
<svg width="1.3in" height="1.3in" enable-background="new 0 0 93.6 93.6" version="1.1" viewBox="0 0 93.6 93.6" xml:space="preserve" xmlns="http://www.w3.org/2000/svg" xmlns:xml="http://www.w3.org/XML/1998/namespace">
    <desc>
        <referenceFile>Adafruit_LSM6DS3_schematic.svg</referenceFile>
    </desc>
    <desc>Fritzing schematic generated by brd2svg</desc>
    <g id="schematic">
        <rect x="14.4" y="14.4" width="64.35" height="64.8" fill="none" stroke="#000" stroke-linecap="round" stroke-linejoin="round" stroke-width=".9"/>
        <g transform="translate(40.432 39.7)">
            <text id="label" font-family="Noto Sans" font-size="2.8">Adafruit</text>
        </g>
        <g transform="translate(39.476 43.2)">
            <text font-family="Noto Sans" font-size="2.8">LSM6DS3</text>
        </g>
        <line x1=".35" x2="14.4" y1="28.8" y2="28.8" fill="none" stroke="#787878" stroke-linecap="round" stroke-linejoin="round" stroke-width=".7"/>
        <rect id="connector14pin" y="28.45" width="14.4" height=".7" fill="none"/>
        <rect id="connector14terminal" y="28.45" width="0" height=".7" fill="none"/>
        <g transform="translate(15.8 29.5)">
            <text fill="#8C8C8C" font-family="Noto Sans" font-size="2.8">SCL</text>
        </g>
        <line x1=".35" x2="14.4" y1="36" y2="36" fill="none" stroke="#787878" stroke-linecap="round" stroke-linejoin="round" stroke-width=".7"/>
        <rect id="connector13pin" y="35.65" width="14.4" height=".7" fill="none"/>
        <rect id="connector13terminal" y="35.65" width="0" height=".7" fill="none"/>
        <g transform="translate(15.8 36.7)">
            <text fill="#8C8C8C" font-family="Noto Sans" font-size="2.8">SDA</text>
        </g>
        <line x1=".35" x2="14.4" y1="43.2" y2="43.2" fill="none" stroke="#787878" stroke-linecap="round" stroke-linejoin="round" stroke-width=".7"/>
        <rect id="connector34pin" y="42.85" width="14.4" height=".7" fill="none"/>
        <rect id="connector34terminal" y="42.85" width="0" height=".7" fill="none"/>
        <g transform="translate(15.8 43.9)">
            <text fill="#8C8C8C" font-family="Noto Sans" font-size="2.8">SDO</text>
        </g>
        <line x1=".35" x2="14.4" y1="50.4" y2="50.4" fill="none" stroke="#787878" stroke-linecap="round" stroke-linejoin="round" stroke-width=".7"/>
        <rect id="connector35pin" y="50.05" width="14.4" height=".7" fill="none"/>
        <rect id="connector35terminal" y="50.05" width="0" height=".7" fill="none"/>
        <g transform="translate(15.8 51.1)">
            <text fill="#8C8C8C" font-family="Noto Sans" font-size="2.8">CS_5V</text>
        </g>
        <line x1=".35" x2="14.4" y1="57.6" y2="57.6" fill="none" stroke="#787878" stroke-linecap="round" stroke-linejoin="round" stroke-width=".7"/>
        <rect id="connector36pin" y="57.25" width="14.4" height=".7" fill="none"/>
        <rect id="connector36terminal" y="57.25" width="0" height=".7" fill="none"/>
        <g transform="translate(15.8 58.3)">
            <text fill="#8C8C8C" font-family="Noto Sans" font-size="2.8">INT1</text>
        </g>
        <line x1=".35" x2="14.4" y1="64.8" y2="64.8" fill="none" stroke="#787878" stroke-linecap="round" stroke-linejoin="round" stroke-width=".7"/>
        <rect id="connector37pin" y="64.45" width="14.4" height=".7" fill="none"/>
        <rect id="connector37terminal" y="64.45" width="0" height=".7" fill="none"/>
        <g transform="translate(15.8 65.5)">
            <text fill="#8C8C8C" font-family="Noto Sans" font-size="2.8">INT2</text>
        </g>
        <line x1="78.85" x2="93.25" y1="28.8" y2="28.8" fill="none" stroke="#787878" stroke-linecap="round" stroke-linejoin="round" stroke-width=".7"/>
        <rect id="connector42pin" x="79.2" y="28.45" width="14.4" height=".7" fill="none"/>
        <rect id="connector42terminal" x="93.6" y="28.45" width="0" height=".7" fill="none"/>
        <g transform="translate(71.959 29.5)">
            <text fill="#8C8C8C" font-family="Noto Sans" font-size="2.8">SCX</text>
        </g>
        <line x1="78.85" x2="93.25" y1="36" y2="36" fill="none" stroke="#787878" stroke-linecap="round" stroke-linejoin="round" stroke-width=".7"/>
        <rect id="connector41pin" x="79.2" y="35.65" width="14.4" height=".7" fill="none"/>
        <rect id="connector41terminal" x="93.6" y="35.65" width="0" height=".7" fill="none"/>
        <g transform="translate(71.71 36.7)">
            <text fill="#8C8C8C" font-family="Noto Sans" font-size="2.8">SDX</text>
        </g>
        <line x1="43.2" x2="43.2" y1=".35" y2="14.4" fill="none" stroke="#787878" stroke-linecap="round" stroke-linejoin="round" stroke-width=".7"/>
        <rect id="connector12pin" x="42.85" width=".7" height="14.4" fill="none"/>
        <polygon id="connector12terminal" points="42.85 0 43.55 0 43.55 0" fill="none"/>
        <g transform="translate(44.6 16)">
            
                <g transform="rotate(270)">
                    
                        <g transform="translate(-6.0684 -2.2414e-5)">
                            <text fill="#8C8C8C" font-family="Noto Sans" font-size="2.8">VCC</text>
                        </g>
                    
                </g>
            
        </g>
        <line x1="50.4" x2="50.4" y1=".35" y2="14.4" fill="none" stroke="#787878" stroke-linecap="round" stroke-linejoin="round" stroke-width=".7"/>
        <rect id="connector30pin" x="50.05" width=".7" height="14.4" fill="none"/>
        <polygon id="connector30terminal" points="50.05 0 50.75 0 50.75 0" fill="none"/>
        <g transform="translate(51.8 16)">
            
                <g transform="rotate(270)">
                    
                        <g transform="translate(-6.7812 4.9828e-5)">
                            <text fill="#8C8C8C" font-family="Noto Sans" font-size="2.8">3.3V</text>
                        </g>
                    
                </g>
            
        </g>
        <line x1="43.2" x2="43.2" y1="79.2" y2="93.25" fill="none" stroke="#787878" stroke-linecap="round" stroke-linejoin="round" stroke-width=".7"/>
        <rect id="connector11pin" x="42.85" y="79.2" width=".7" height="14.4" fill="none"/>
        <polygon id="connector11terminal" points="42.85 93.6 43.55 93.6 43.55 93.6" fill="none"/>
        <g transform="translate(44.6 77.6)">
            
                <g transform="rotate(270)">
                    
                        <g transform="translate(-4e-4 -2.2414e-5)">
                            <text fill="#8C8C8C" font-family="Noto Sans" font-size="2.8">GND</text>
                        </g>
                    
                </g>
            
        </g>
        <rect id="connector29pin" x="42.85" width=".7" height="14.4" fill="none"/>
        <polygon id="connector29terminal" points="42.85 0 43.55 0 43.55 0" fill="none"/>
        <rect id="connector18pin" x="42.85" width=".7" height="14.4" fill="none"/>
        <polygon id="connector18terminal" points="42.85 0 43.55 0 43.55 0" fill="none"/>
        <rect id="connector31pin" x="42.85" y="79.2" width=".7" height="14.4" fill="none"/>
        <polygon id="connector31terminal" points="42.85 93.6 43.55 93.6 43.55 93.6" fill="none"/>
        <rect id="connector38pin" x="42.85" y="79.2" width=".7" height="14.4" fill="none"/>
        <polygon id="connector38terminal" points="42.85 93.6 43.55 93.6 43.55 93.6" fill="none"/>
        <rect id="connector17pin" x="42.85" y="79.2" width=".7" height="14.4" fill="none"/>
        <polygon id="connector17terminal" points="42.85 93.6 43.55 93.6 43.55 93.6" fill="none"/>
        <rect id="connector32pin" y="28.45" width="14.4" height=".7" fill="none"/>
        <rect id="connector32terminal" y="28.45" width="0" height=".7" fill="none"/>
        <rect id="connector20pin" y="28.45" width="14.4" height=".7" fill="none"/>
        <rect id="connector20terminal" y="28.45" width="0" height=".7" fill="none"/>
        <rect id="connector33pin" y="35.65" width="14.4" height=".7" fill="none"/>
        <rect id="connector33terminal" y="35.65" width="0" height=".7" fill="none"/>
        <rect id="connector19pin" y="35.65" width="14.4" height=".7" fill="none"/>
        <rect id="connector19terminal" y="35.65" width="0" height=".7" fill="none"/>
    </g>
</svg>
