<?xml version="1.0" encoding="UTF-8"?>
<!-- Created with Fritzing (http://www.fritzing.org/) -->
<svg width="1.2in" height="1.2in" baseProfile="tiny" version="1.2" viewBox="0 0 86.4 86.4" xmlns="http://www.w3.org/2000/svg">
 <desc>
  <referenceFile>Adafruit DS2484 I2C to 1-Wire Breakout_schematic.svg</referenceFile>
 </desc>
 <desc>Fritzing schematic generated by brd2svg</desc>
 <g id="schematic">
  <rect x="14.4" y="14.4" width="57.15" height="57.6" fill="none" stroke="#000" stroke-linecap="round" stroke-linejoin="round" stroke-width=".9"/>
  <text id="label" x="43.2" y="36" fill="#000000" font-family="Noto Sans" font-size="3.5" text-anchor="middle"><tspan x="43.2" y="36">Adafruit</tspan> <tspan x="43.2" y="39.5">DS2484</tspan> <tspan x="43.2" y="43">I2C</tspan> <tspan x="43.2" y="46.5">to</tspan> <tspan x="43.2" y="50">1-Wire</tspan> <tspan x="43.2" y="53.5">Breakout</tspan></text>
  <line x1=".35" x2="14.4" y1="36" y2="36" fill="none" stroke="#787878" stroke-linecap="round" stroke-linejoin="round" stroke-width=".7"/>
  <rect id="connector37pin" y="35.65" width="14.4" height=".7" fill="none" stroke-width="0" connectorName="1WIRE"/>
  <rect id="connector37terminal" y="35.65" width="0" height=".7" fill="none" stroke-width="0"/>
  <text x="15.8" y="36.7" fill="#8c8c8c" font-family="Noto Sans" font-size="3.5">1WIRE</text>
  <line x1=".35" x2="14.4" y1="43.2" y2="43.2" fill="none" stroke="#787878" stroke-linecap="round" stroke-linejoin="round" stroke-width=".7"/>
  <rect id="connector38pin" y="42.85" width="14.4" height=".7" fill="none" stroke-width="0" connectorName="SLPZ"/>
  <rect id="connector38terminal" y="42.85" width="0" height=".7" fill="none" stroke-width="0"/>
  <text x="15.8" y="43.9" fill="#8c8c8c" font-family="Noto Sans" font-size="3.5">SLPZ</text>
  <line x1="71.65" x2="86.05" y1="36" y2="36" fill="none" stroke="#787878" stroke-linecap="round" stroke-linejoin="round" stroke-width=".7"/>
  <rect id="connector13pin" x="72" y="35.65" width="14.4" height=".7" fill="none" stroke-width="0" connectorname="SDA"/>
  <rect id="connector13terminal" x="86.4" y="35.65" width="0" height=".7" fill="none" stroke-width="0"/>
  <text x="70.6" y="36.7" fill="#8c8c8c" font-family="Noto Sans" font-size="3.5" text-anchor="end">SDA</text>
  <line x1="71.65" x2="86.05" y1="43.2" y2="43.2" fill="none" stroke="#787878" stroke-linecap="round" stroke-linejoin="round" stroke-width=".7"/>
  <rect id="connector14pin" x="72" y="42.85" width="14.4" height=".7" fill="none" stroke-width="0" connectorname="SCL"/>
  <rect id="connector14terminal" x="86.4" y="42.85" width="0" height=".7" fill="none" stroke-width="0"/>
  <text x="70.6" y="43.9" fill="#8c8c8c" font-family="Noto Sans" font-size="3.5" text-anchor="end">SCL</text>
  <line x1="43.2" x2="43.2" y1=".35" y2="14.4" fill="none" stroke="#787878" stroke-linecap="round" stroke-linejoin="round" stroke-width=".7"/>
  <rect id="connector12pin" x="42.85" width=".7" height="14.4" fill="none" stroke-width="0" connectorname="VCC"/>
  <rect id="connector12terminal" x="42.85" width=".7" height="0" fill="none" stroke-width="0"/>
  <g transform="translate(44.6 16)">
   <g transform="rotate(270)">
    <text fill="#8c8c8c" font-family="Noto Sans" font-size="3.5" text-anchor="end">VCC</text>
   </g>
  </g>
  <line x1="50.4" x2="50.4" y1=".35" y2="14.4" fill="none" stroke="#787878" stroke-linecap="round" stroke-linejoin="round" stroke-width=".7"/>
  <rect id="connector39pin" x="50.05" width=".7" height="14.4" fill="none" stroke-width="0" connectorname="VCCIO"/>
  <rect id="connector39terminal" x="50.05" width=".7" height="0" fill="none" stroke-width="0"/>
  <g transform="translate(51.8 16)">
   <g transform="rotate(270)">
    <text fill="#8c8c8c" font-family="Noto Sans" font-size="3.5" text-anchor="end">VCCIO</text>
   </g>
  </g>
  <line x1="43.2" x2="43.2" y1="72" y2="86.05" fill="none" stroke="#787878" stroke-linecap="round" stroke-linejoin="round" stroke-width=".7"/>
  <rect id="connector11pin" x="42.85" y="72" width=".7" height="14.4" fill="none" stroke-width="0" connectorname="GND"/>
  <rect id="connector11terminal" x="42.85" y="86.4" width=".7" height="0" fill="none" stroke-width="0"/>
  <g transform="translate(44.6 70.4)">
   <g transform="rotate(270)">
    <text fill="#8c8c8c" font-family="Noto Sans" font-size="3.5">GND</text>
   </g>
  </g>
  <rect id="connector33pin" x="42.85" width=".7" height="14.4" fill="none" stroke-width="0" connectorname="VCC"/>
  <rect id="connector33terminal" x="42.85" width=".7" height="0" fill="none" stroke-width="0"/>
  <rect id="connector18pin" x="42.85" width=".7" height="14.4" fill="none" stroke-width="0" connectorname="VCC"/>
  <rect id="connector18terminal" x="42.85" width=".7" height="0" fill="none" stroke-width="0"/>
  <rect id="connector34pin" x="42.85" y="72" width=".7" height="14.4" fill="none" stroke-width="0" connectorname="GND"/>
  <rect id="connector34terminal" x="42.85" y="86.4" width=".7" height="0" fill="none" stroke-width="0"/>
  <rect id="connector41pin" x="42.85" y="72" width=".7" height="14.4" fill="none" stroke-width="0" connectorname="GND"/>
  <rect id="connector41terminal" x="42.85" y="86.4" width=".7" height="0" fill="none" stroke-width="0"/>
  <rect id="connector17pin" x="42.85" y="72" width=".7" height="14.4" fill="none" stroke-width="0" connectorname="GND"/>
  <rect id="connector17terminal" x="42.85" y="86.4" width=".7" height="0" fill="none" stroke-width="0"/>
  <rect id="connector40pin" y="35.65" width="14.4" height=".7" fill="none" stroke-width="0" connectorName="1WIRE"/>
  <rect id="connector40terminal" y="35.65" width="0" height=".7" fill="none" stroke-width="0"/>
  <rect id="connector36pin" x="72" y="35.65" width="14.4" height=".7" fill="none" stroke-width="0" connectorname="SDA"/>
  <rect id="connector36terminal" x="86.4" y="35.65" width="0" height=".7" fill="none" stroke-width="0"/>
  <rect id="connector19pin" x="72" y="35.65" width="14.4" height=".7" fill="none" stroke-width="0" connectorname="SDA"/>
  <rect id="connector19terminal" x="86.4" y="35.65" width="0" height=".7" fill="none" stroke-width="0"/>
  <rect id="connector20pin" x="72" y="42.85" width="14.4" height=".7" fill="none" stroke-width="0" connectorname="SCL"/>
  <rect id="connector20terminal" x="86.4" y="42.85" width="0" height=".7" fill="none" stroke-width="0"/>
  <rect id="connector35pin" x="72" y="42.85" width="14.4" height=".7" fill="none" stroke-width="0" connectorname="SCL"/>
  <rect id="connector35terminal" x="86.4" y="42.85" width="0" height=".7" fill="none" stroke-width="0"/>
 </g>
</svg>
