<?xml version="1.0" encoding="UTF-8"?>
<!-- Created with Fritzing (http://www.fritzing.org/) -->
<svg width="1.1in" height=".4in" baseProfile="tiny" version="1.2" viewBox="0 0 79.2 28.8" xmlns="http://www.w3.org/2000/svg">
 <desc>
  <referenceFile>Adafruit AVR 6-ISP Breakout_schematic.svg</referenceFile>
 </desc>
 <desc>Fritzing schematic generated by brd2svg</desc>
 <g id="schematic">
  <rect x="14.4" y=".45" width="49.95" height="27.9" fill="none" stroke="#000" stroke-linecap="round" stroke-linejoin="round" stroke-width=".9"/>
  <text id="label" x="39.6" y="7.40002" fill="#000000" font-family="Noto Sans" font-size="3.5" text-anchor="middle"><tspan x="39.6" y="7.40002">Adafruit</tspan> <tspan x="39.6" y="10.9">AVR</tspan> <tspan x="39.6" y="14.4">6-ISP</tspan> <tspan x="39.6" y="17.9">Breakout</tspan></text>
  <line x1=".35" x2="14.4" y1="7.2" y2="7.2" fill="none" stroke="#787878" stroke-linecap="round" stroke-linejoin="round" stroke-width=".7"/>
  <rect id="connector0pin" y="6.85" width="14.4" height=".7" fill="none" stroke-width="0" connectorName="MISO"/>
  <rect id="connector0terminal" y="6.85" width="0" height=".7" fill="none" stroke-width="0"/>
  <text x="15.8" y="7.89998" fill="#8c8c8c" font-family="Noto Sans" font-size="3.5">MISO</text>
  <text class="text" x="7.2" y="6.15" fill="#8c8c8c" font-family="Droid Sans" font-size="2.5" stroke-width="0" text-anchor="middle">1</text>
  <line x1=".35" x2="14.4" y1="14.4" y2="14.4" fill="none" stroke="#787878" stroke-linecap="round" stroke-linejoin="round" stroke-width=".7"/>
  <rect id="connector2pin" y="14.05" width="14.4" height=".7" fill="none" stroke-width="0" connectorName="SCK"/>
  <rect id="connector2terminal" y="14.05" width="0" height=".7" fill="none" stroke-width="0"/>
  <text x="15.8" y="15.1" fill="#8c8c8c" font-family="Noto Sans" font-size="3.5">SCK</text>
  <text class="text" x="7.2" y="13.35" fill="#8c8c8c" font-family="Droid Sans" font-size="2.5" stroke-width="0" text-anchor="middle">3</text>
  <line x1=".35" x2="14.4" y1="21.6" y2="21.6" fill="none" stroke="#787878" stroke-linecap="round" stroke-linejoin="round" stroke-width=".7"/>
  <rect id="connector4pin" y="21.25" width="14.4" height=".7" fill="none" stroke-width="0" connectorName="RST"/>
  <rect id="connector4terminal" y="21.25" width="0" height=".7" fill="none" stroke-width="0"/>
  <text x="15.8" y="22.3" fill="#8c8c8c" font-family="Noto Sans" font-size="3.5">RST</text>
  <text class="text" x="7.2" y="20.55" fill="#8c8c8c" font-family="Droid Sans" font-size="2.5" stroke-width="0" text-anchor="middle">5</text>
  <line x1="64.45" x2="78.85" y1="7.2" y2="7.2" fill="none" stroke="#787878" stroke-linecap="round" stroke-linejoin="round" stroke-width=".7"/>
  <rect id="connector1pin" x="64.8" y="6.85" width="14.4" height=".7" fill="none" stroke-width="0" connectorname="VCC"/>
  <rect id="connector1terminal" x="79.2" y="6.85" width="0" height=".7" fill="none" stroke-width="0"/>
  <text x="63.4" y="7.89998" fill="#8c8c8c" font-family="Noto Sans" font-size="3.5" text-anchor="end">VCC</text>
  <text class="text" x="72" y="6.15" fill="#8c8c8c" font-family="Droid Sans" font-size="2.5" stroke-width="0" text-anchor="middle">2</text>
  <line x1="64.45" x2="78.85" y1="14.4" y2="14.4" fill="none" stroke="#787878" stroke-linecap="round" stroke-linejoin="round" stroke-width=".7"/>
  <rect id="connector3pin" x="64.8" y="14.05" width="14.4" height=".7" fill="none" stroke-width="0" connectorname="MOSI"/>
  <rect id="connector3terminal" x="79.2" y="14.05" width="0" height=".7" fill="none" stroke-width="0"/>
  <text x="63.4" y="15.1" fill="#8c8c8c" font-family="Noto Sans" font-size="3.5" text-anchor="end">MOSI</text>
  <text class="text" x="72" y="13.35" fill="#8c8c8c" font-family="Droid Sans" font-size="2.5" stroke-width="0" text-anchor="middle">4</text>
  <line x1="64.45" x2="78.85" y1="21.6" y2="21.6" fill="none" stroke="#787878" stroke-linecap="round" stroke-linejoin="round" stroke-width=".7"/>
  <rect id="connector5pin" x="64.8" y="21.25" width="14.4" height=".7" fill="none" stroke-width="0" connectorname="GND"/>
  <rect id="connector5terminal" x="79.2" y="21.25" width="0" height=".7" fill="none" stroke-width="0"/>
  <text x="63.4" y="22.3" fill="#8c8c8c" font-family="Noto Sans" font-size="3.5" text-anchor="end">GND</text>
  <text class="text" x="72" y="20.55" fill="#8c8c8c" font-family="Droid Sans" font-size="2.5" stroke-width="0" text-anchor="middle">6</text>
  <rect id="connector8pin" y="6.85" width="14.4" height=".7" fill="none" stroke-width="0" connectorName="MISO"/>
  <rect id="connector8terminal" y="6.85" width="0" height=".7" fill="none" stroke-width="0"/>
  <rect id="connector7pin" y="14.05" width="14.4" height=".7" fill="none" stroke-width="0" connectorName="SCK"/>
  <rect id="connector7terminal" y="14.05" width="0" height=".7" fill="none" stroke-width="0"/>
  <rect id="connector6pin" y="21.25" width="14.4" height=".7" fill="none" stroke-width="0" connectorName="RST"/>
  <rect id="connector6terminal" y="21.25" width="0" height=".7" fill="none" stroke-width="0"/>
  <rect id="connector9pin" x="64.8" y="6.85" width="14.4" height=".7" fill="none" stroke-width="0" connectorname="VCC"/>
  <rect id="connector9terminal" x="79.2" y="6.85" width="0" height=".7" fill="none" stroke-width="0"/>
  <rect id="connector10pin" x="64.8" y="14.05" width="14.4" height=".7" fill="none" stroke-width="0" connectorname="MOSI"/>
  <rect id="connector10terminal" x="79.2" y="14.05" width="0" height=".7" fill="none" stroke-width="0"/>
  <rect id="connector11pin" x="64.8" y="21.25" width="14.4" height=".7" fill="none" stroke-width="0" connectorname="GND"/>
  <rect id="connector11terminal" x="79.2" y="21.25" width="0" height=".7" fill="none" stroke-width="0"/>
 </g>
</svg>
