<?xml version="1.0" encoding="UTF-8"?>
<!DOCTYPE svg>
<!-- Generator: Adobe Illustrator 26.2.1, SVG Export Plug-In . SVG Version: 6.00 Build 0)  -->
<svg width="1.1in" height="1.1in" enable-background="new 0 0 79.2 79.2" version="1.1" viewBox="0 0 79.2 79.2" xml:space="preserve" xmlns="http://www.w3.org/2000/svg" xmlns:xml="http://www.w3.org/XML/1998/namespace">
    <desc>
        <referenceFile>I2C EEPROM QT rev A_schematic.svg</referenceFile>
    </desc>
    <metadata>
        <sfw>
            <slices/>
            <sliceSourceBounds x="0" y="-0.0001" width="79.2001" height="79.2001" bottomLeftOrigin="true"/>
        </sfw>
    </metadata>
    <desc>Fritzing schematic generated by brd2svg</desc>
    <g id="schematic">
        <rect x="14.4" y="14.4" width="49.95" height="50.4" fill="none" stroke="#000" stroke-linecap="round" stroke-linejoin="round" stroke-width=".9"/>
        <g transform="translate(33.006 30.507)">
            <g id="label" enable-background="new    " font-family="Noto Sans" font-size="2.8">
                <text>Adafruit</text>
                <text x="0.5981" y="4.2002">24LC32</text>
                <text x="3.7563" y="8.4004">I2C</text>
                <text x="-0.3408" y="12.5996">EEPROM</text>
                <text x="3.7563" y="16.7998">I2C</text>
            </g>
        </g>
        <line x1=".35" x2="14.4" y1="28.8" y2="28.8" fill="none" stroke="#787878" stroke-linecap="round" stroke-linejoin="round" stroke-width=".7"/>
        <rect id="connector35pin" y="28.45" width="14.4" height=".7" fill="none"/>
        <rect id="connector35terminal" y="28.45" width="0" height=".7" fill="none"/>
        <g transform="translate(15.8 29.5)">
            <text fill="#8C8C8C" font-family="Noto Sans" font-size="2.8">A0</text>
        </g>
        <line x1=".35" x2="14.4" y1="36" y2="36" fill="none" stroke="#787878" stroke-linecap="round" stroke-linejoin="round" stroke-width=".7"/>
        <rect id="connector34pin" y="35.65" width="14.4" height=".7" fill="none"/>
        <rect id="connector34terminal" y="35.65" width="0" height=".7" fill="none"/>
        <g transform="translate(15.8 36.7)">
            <text fill="#8C8C8C" font-family="Noto Sans" font-size="2.8">A1</text>
        </g>
        <line x1=".35" x2="14.4" y1="43.2" y2="43.2" fill="none" stroke="#787878" stroke-linecap="round" stroke-linejoin="round" stroke-width=".7"/>
        <rect id="connector33pin" y="42.85" width="14.4" height=".7" fill="none"/>
        <rect id="connector33terminal" y="42.85" width="0" height=".7" fill="none"/>
        <g transform="translate(15.8 43.9)">
            <text fill="#8C8C8C" font-family="Noto Sans" font-size="2.8">A2</text>
        </g>
        <line x1="64.45" x2="78.85" y1="28.8" y2="28.8" fill="none" stroke="#787878" stroke-linecap="round" stroke-linejoin="round" stroke-width=".7"/>
        <rect id="connector32pin" x="64.8" y="28.45" width="14.4" height=".7" fill="none"/>
        <rect id="connector32terminal" x="79.2" y="28.45" width="0" height=".7" fill="none"/>
        <g transform="translate(58.29 29.5)">
            <text fill="#8C8C8C" font-family="Noto Sans" font-size="2.8">WP</text>
        </g>
        <line x1="64.45" x2="78.85" y1="36" y2="36" fill="none" stroke="#787878" stroke-linecap="round" stroke-linejoin="round" stroke-width=".7"/>
        <rect id="connector13pin" x="64.8" y="35.65" width="14.4" height=".7" fill="none"/>
        <rect id="connector13terminal" x="79.2" y="35.65" width="0" height=".7" fill="none"/>
        <g transform="translate(57.096 36.7)">
            <text fill="#8C8C8C" font-family="Noto Sans" font-size="2.8">SDA</text>
        </g>
        <line x1="64.45" x2="78.85" y1="43.2" y2="43.2" fill="none" stroke="#787878" stroke-linecap="round" stroke-linejoin="round" stroke-width=".7"/>
        <rect id="connector14pin" x="64.8" y="42.85" width="14.4" height=".7" fill="none"/>
        <rect id="connector14terminal" x="79.2" y="42.85" width="0" height=".7" fill="none"/>
        <g transform="translate(57.754 43.9)">
            <text fill="#8C8C8C" font-family="Noto Sans" font-size="2.8">SCL</text>
        </g>
        <line x1="36" x2="36" y1=".35" y2="14.4" fill="none" stroke="#787878" stroke-linecap="round" stroke-linejoin="round" stroke-width=".7"/>
        <rect id="connector12pin" x="35.65" width=".7" height="14.4" fill="none"/>
        <polygon id="connector12terminal" points="35.65 0 36.35 0 36.35 0" fill="none"/>
        <g transform="translate(37.4 16)">
            
                <g transform="rotate(270)">
                    
                        <g transform="translate(-6.0684 2.2414e-5)">
                            <text fill="#8C8C8C" font-family="Noto Sans" font-size="2.8">VCC</text>
                        </g>
                    
                </g>
            
        </g>
        <line x1="43.2" x2="43.2" y1=".35" y2="14.4" fill="none" stroke="#787878" stroke-linecap="round" stroke-linejoin="round" stroke-width=".7"/>
        <rect id="connector28pin" x="42.85" width=".7" height="14.4" fill="none"/>
        <polygon id="connector28terminal" points="42.85 0 43.55 0 43.55 0" fill="none"/>
        <g transform="translate(44.6 16)">
            
                <g transform="rotate(270)">
                    
                        <g transform="translate(-6.7812 -2.2414e-5)">
                            <text fill="#8C8C8C" font-family="Noto Sans" font-size="2.8">3.3V</text>
                        </g>
                    
                </g>
            
        </g>
        <line x1="36" x2="36" y1="64.8" y2="78.85" fill="none" stroke="#787878" stroke-linecap="round" stroke-linejoin="round" stroke-width=".7"/>
        <rect id="connector11pin" x="35.65" y="64.8" width=".7" height="14.4" fill="none"/>
        <polygon id="connector11terminal" points="35.65 79.2 36.35 79.2 36.35 79.2" fill="none"/>
        <g transform="translate(37.4 63.2)">
            
                <g transform="rotate(270)">
                    
                        <g transform="translate(-2e-4 2.2414e-5)">
                            <text fill="#8C8C8C" font-family="Noto Sans" font-size="2.8">GND</text>
                        </g>
                    
                </g>
            
        </g>
        <rect id="connector27pin" x="35.65" width=".7" height="14.4" fill="none"/>
        <polygon id="connector27terminal" points="35.65 0 36.35 0 36.35 0" fill="none"/>
        <rect id="connector18pin" x="35.65" width=".7" height="14.4" fill="none"/>
        <polygon id="connector18terminal" points="35.65 0 36.35 0 36.35 0" fill="none"/>
        <rect id="connector36pin" x="42.85" width=".7" height="14.4" fill="none"/>
        <polygon id="connector36terminal" points="42.85 0 43.55 0 43.55 0" fill="none"/>
        <rect id="connector29pin" x="35.65" y="64.8" width=".7" height="14.4" fill="none"/>
        <polygon id="connector29terminal" points="35.65 79.2 36.35 79.2 36.35 79.2" fill="none"/>
        <rect id="connector17pin" x="35.65" y="64.8" width=".7" height="14.4" fill="none"/>
        <polygon id="connector17terminal" points="35.65 79.2 36.35 79.2 36.35 79.2" fill="none"/>
        <rect id="connector31pin" x="64.8" y="35.65" width="14.4" height=".7" fill="none"/>
        <rect id="connector31terminal" x="79.2" y="35.65" width="0" height=".7" fill="none"/>
        <rect id="connector19pin" x="64.8" y="35.65" width="14.4" height=".7" fill="none"/>
        <rect id="connector19terminal" x="79.2" y="35.65" width="0" height=".7" fill="none"/>
        <rect id="connector30pin" x="64.8" y="42.85" width="14.4" height=".7" fill="none"/>
        <rect id="connector30terminal" x="79.2" y="42.85" width="0" height=".7" fill="none"/>
        <rect id="connector20pin" x="64.8" y="42.85" width="14.4" height=".7" fill="none"/>
        <rect id="connector20terminal" x="79.2" y="42.85" width="0" height=".7" fill="none"/>
    </g>
</svg>
