<?xml version="1.0" encoding="UTF-8"?>
<!-- Created with Fritzing (http://www.fritzing.org/) -->
<svg width="1.2in" height="2.2in" baseProfile="tiny" version="1.2" viewBox="0 0 86.4 158.4" xmlns="http://www.w3.org/2000/svg">
 <desc>
  <referenceFile>Adafruit 24-Channel 12-bit PWM LED Driver - SPI_schematic.svg</referenceFile>
 </desc>
 <desc>Fritzing schematic generated by brd2svg</desc>
 <g id="schematic">
  <rect x="14.4" y="14.4" width="57.15" height="129.6" fill="none" stroke="#000" stroke-linecap="round" stroke-linejoin="round" stroke-width=".9"/>
  <text id="label" x="43.2" y="65.2" fill="#000000" font-family="Noto Sans" font-size="3.5" text-anchor="middle"><tspan x="43.2" y="65.2">Adafruit</tspan> <tspan x="43.2" y="68.7">24-Channel</tspan> <tspan x="43.2" y="72.2002">12-bit</tspan> <tspan x="43.2" y="75.7001">PWM</tspan> <tspan x="43.2" y="79.2">LED</tspan> <tspan x="43.2" y="82.6999">Driver</tspan> <tspan x="43.2" y="86.1998">SPI</tspan></text>
  <line x1=".35" x2="14.4" y1="28.8" y2="28.8" fill="none" stroke="#787878" stroke-linecap="round" stroke-linejoin="round" stroke-width=".7"/>
  <rect id="connector54pin" y="28.45" width="14.4" height=".7" fill="none" stroke-width="0" connectorName="CLK"/>
  <rect id="connector54terminal" y="28.45" width="0" height=".7" fill="none" stroke-width="0"/>
  <text x="15.8" y="29.5" fill="#8c8c8c" font-family="Noto Sans" font-size="3.5">CLK</text>
  <line x1=".35" x2="14.4" y1="36" y2="36" fill="none" stroke="#787878" stroke-linecap="round" stroke-linejoin="round" stroke-width=".7"/>
  <rect id="connector55pin" y="35.65" width="14.4" height=".7" fill="none" stroke-width="0" connectorName="DIN"/>
  <rect id="connector55terminal" y="35.65" width="0" height=".7" fill="none" stroke-width="0"/>
  <text x="15.8" y="36.7" fill="#8c8c8c" font-family="Noto Sans" font-size="3.5">DIN</text>
  <line x1=".35" x2="14.4" y1="43.2" y2="43.2" fill="none" stroke="#787878" stroke-linecap="round" stroke-linejoin="round" stroke-width=".7"/>
  <rect id="connector109pin" y="42.85" width="14.4" height=".7" fill="none" stroke-width="0" connectorName="DOUT"/>
  <rect id="connector109terminal" y="42.85" width="0" height=".7" fill="none" stroke-width="0"/>
  <text x="15.8" y="43.9" fill="#8c8c8c" font-family="Noto Sans" font-size="3.5">DOUT</text>
  <line x1=".35" x2="14.4" y1="50.4" y2="50.4" fill="none" stroke="#787878" stroke-linecap="round" stroke-linejoin="round" stroke-width=".7"/>
  <rect id="connector52pin" y="50.05" width="14.4" height=".7" fill="none" stroke-width="0" connectorName="LAT"/>
  <rect id="connector52terminal" y="50.05" width="0" height=".7" fill="none" stroke-width="0"/>
  <text x="15.8" y="51.1" fill="#8c8c8c" font-family="Noto Sans" font-size="3.5">LAT</text>
  <line x1=".35" x2="14.4" y1="57.6" y2="57.6" fill="none" stroke="#787878" stroke-linecap="round" stroke-linejoin="round" stroke-width=".7"/>
  <rect id="connector53pin" y="57.25" width="14.4" height=".7" fill="none" stroke-width="0" connectorName="OE"/>
  <rect id="connector53terminal" y="57.25" width="0" height=".7" fill="none" stroke-width="0"/>
  <text x="15.8" y="58.3" fill="#8c8c8c" font-family="Noto Sans" font-size="3.5">OE</text>
  <line x1=".35" x2="14.4" y1="64.8" y2="64.8" fill="none" stroke="#787878" stroke-linecap="round" stroke-linejoin="round" stroke-width=".7"/>
  <rect id="connector59pin" y="64.45" width="14.4" height=".7" fill="none" stroke-width="0" connectorName="PWM0"/>
  <rect id="connector59terminal" y="64.45" width="0" height=".7" fill="none" stroke-width="0"/>
  <text x="15.8" y="65.5" fill="#8c8c8c" font-family="Noto Sans" font-size="3.5">PWM0</text>
  <line x1=".35" x2="14.4" y1="72" y2="72" fill="none" stroke="#787878" stroke-linecap="round" stroke-linejoin="round" stroke-width=".7"/>
  <rect id="connector61pin" y="71.65" width="14.4" height=".7" fill="none" stroke-width="0" connectorName="PWM1"/>
  <rect id="connector61terminal" y="71.65" width="0" height=".7" fill="none" stroke-width="0"/>
  <text x="15.8" y="72.6998" fill="#8c8c8c" font-family="Noto Sans" font-size="3.5">PWM1</text>
  <line x1=".35" x2="14.4" y1="79.2" y2="79.2" fill="none" stroke="#787878" stroke-linecap="round" stroke-linejoin="round" stroke-width=".7"/>
  <rect id="connector63pin" y="78.85" width="14.4" height=".7" fill="none" stroke-width="0" connectorName="PWM2"/>
  <rect id="connector63terminal" y="78.85" width="0" height=".7" fill="none" stroke-width="0"/>
  <text x="15.8" y="79.8998" fill="#8c8c8c" font-family="Noto Sans" font-size="3.5">PWM2</text>
  <line x1=".35" x2="14.4" y1="86.4" y2="86.4" fill="none" stroke="#787878" stroke-linecap="round" stroke-linejoin="round" stroke-width=".7"/>
  <rect id="connector65pin" y="86.05" width="14.4" height=".7" fill="none" stroke-width="0" connectorName="PWM3"/>
  <rect id="connector65terminal" y="86.05" width="0" height=".7" fill="none" stroke-width="0"/>
  <text x="15.8" y="87.0998" fill="#8c8c8c" font-family="Noto Sans" font-size="3.5">PWM3</text>
  <line x1=".35" x2="14.4" y1="93.6" y2="93.6" fill="none" stroke="#787878" stroke-linecap="round" stroke-linejoin="round" stroke-width=".7"/>
  <rect id="connector67pin" y="93.25" width="14.4" height=".7" fill="none" stroke-width="0" connectorName="PWM4"/>
  <rect id="connector67terminal" y="93.25" width="0" height=".7" fill="none" stroke-width="0"/>
  <text x="15.8" y="94.2998" fill="#8c8c8c" font-family="Noto Sans" font-size="3.5">PWM4</text>
  <line x1=".35" x2="14.4" y1="100.8" y2="100.8" fill="none" stroke="#787878" stroke-linecap="round" stroke-linejoin="round" stroke-width=".7"/>
  <rect id="connector69pin" y="100.45" width="14.4" height=".7" fill="none" stroke-width="0" connectorName="PWM5"/>
  <rect id="connector69terminal" y="100.45" width="0" height=".7" fill="none" stroke-width="0"/>
  <text x="15.8" y="101.5" fill="#8c8c8c" font-family="Noto Sans" font-size="3.5">PWM5</text>
  <line x1=".35" x2="14.4" y1="108" y2="108" fill="none" stroke="#787878" stroke-linecap="round" stroke-linejoin="round" stroke-width=".7"/>
  <rect id="connector71pin" y="107.65" width="14.4" height=".7" fill="none" stroke-width="0" connectorName="PWM6"/>
  <rect id="connector71terminal" y="107.65" width="0" height=".7" fill="none" stroke-width="0"/>
  <text x="15.8" y="108.7" fill="#8c8c8c" font-family="Noto Sans" font-size="3.5">PWM6</text>
  <line x1=".35" x2="14.4" y1="115.2" y2="115.2" fill="none" stroke="#787878" stroke-linecap="round" stroke-linejoin="round" stroke-width=".7"/>
  <rect id="connector73pin" y="114.85" width="14.4" height=".7" fill="none" stroke-width="0" connectorName="PWM7"/>
  <rect id="connector73terminal" y="114.85" width="0" height=".7" fill="none" stroke-width="0"/>
  <text x="15.8" y="115.9" fill="#8c8c8c" font-family="Noto Sans" font-size="3.5">PWM7</text>
  <line x1=".35" x2="14.4" y1="122.4" y2="122.4" fill="none" stroke="#787878" stroke-linecap="round" stroke-linejoin="round" stroke-width=".7"/>
  <rect id="connector75pin" y="122.05" width="14.4" height=".7" fill="none" stroke-width="0" connectorName="PWM8"/>
  <rect id="connector75terminal" y="122.05" width="0" height=".7" fill="none" stroke-width="0"/>
  <text x="15.8" y="123.1" fill="#8c8c8c" font-family="Noto Sans" font-size="3.5">PWM8</text>
  <line x1=".35" x2="14.4" y1="129.6" y2="129.6" fill="none" stroke="#787878" stroke-linecap="round" stroke-linejoin="round" stroke-width=".7"/>
  <rect id="connector77pin" y="129.25" width="14.4" height=".7" fill="none" stroke-width="0" connectorName="PWM9"/>
  <rect id="connector77terminal" y="129.25" width="0" height=".7" fill="none" stroke-width="0"/>
  <text x="15.8" y="130.3" fill="#8c8c8c" font-family="Noto Sans" font-size="3.5">PWM9</text>
  <line x1="71.65" x2="86.05" y1="28.8" y2="28.8" fill="none" stroke="#787878" stroke-linecap="round" stroke-linejoin="round" stroke-width=".7"/>
  <rect id="connector79pin" x="72" y="28.45" width="14.4" height=".7" fill="none" stroke-width="0" connectorname="PWM10"/>
  <rect id="connector79terminal" x="86.4" y="28.45" width="0" height=".7" fill="none" stroke-width="0"/>
  <text x="70.6" y="29.5" fill="#8c8c8c" font-family="Noto Sans" font-size="3.5" text-anchor="end">PWM10</text>
  <line x1="71.65" x2="86.05" y1="36" y2="36" fill="none" stroke="#787878" stroke-linecap="round" stroke-linejoin="round" stroke-width=".7"/>
  <rect id="connector81pin" x="72" y="35.65" width="14.4" height=".7" fill="none" stroke-width="0" connectorname="PWM11"/>
  <rect id="connector81terminal" x="86.4" y="35.65" width="0" height=".7" fill="none" stroke-width="0"/>
  <text x="70.6" y="36.7" fill="#8c8c8c" font-family="Noto Sans" font-size="3.5" text-anchor="end">PWM11</text>
  <line x1="71.65" x2="86.05" y1="43.2" y2="43.2" fill="none" stroke="#787878" stroke-linecap="round" stroke-linejoin="round" stroke-width=".7"/>
  <rect id="connector83pin" x="72" y="42.85" width="14.4" height=".7" fill="none" stroke-width="0" connectorname="PWM12"/>
  <rect id="connector83terminal" x="86.4" y="42.85" width="0" height=".7" fill="none" stroke-width="0"/>
  <text x="70.6" y="43.9" fill="#8c8c8c" font-family="Noto Sans" font-size="3.5" text-anchor="end">PWM12</text>
  <line x1="71.65" x2="86.05" y1="50.4" y2="50.4" fill="none" stroke="#787878" stroke-linecap="round" stroke-linejoin="round" stroke-width=".7"/>
  <rect id="connector85pin" x="72" y="50.05" width="14.4" height=".7" fill="none" stroke-width="0" connectorname="PWM13"/>
  <rect id="connector85terminal" x="86.4" y="50.05" width="0" height=".7" fill="none" stroke-width="0"/>
  <text x="70.6" y="51.1" fill="#8c8c8c" font-family="Noto Sans" font-size="3.5" text-anchor="end">PWM13</text>
  <line x1="71.65" x2="86.05" y1="57.6" y2="57.6" fill="none" stroke="#787878" stroke-linecap="round" stroke-linejoin="round" stroke-width=".7"/>
  <rect id="connector87pin" x="72" y="57.25" width="14.4" height=".7" fill="none" stroke-width="0" connectorname="PWM14"/>
  <rect id="connector87terminal" x="86.4" y="57.25" width="0" height=".7" fill="none" stroke-width="0"/>
  <text x="70.6" y="58.3" fill="#8c8c8c" font-family="Noto Sans" font-size="3.5" text-anchor="end">PWM14</text>
  <line x1="71.65" x2="86.05" y1="64.8" y2="64.8" fill="none" stroke="#787878" stroke-linecap="round" stroke-linejoin="round" stroke-width=".7"/>
  <rect id="connector89pin" x="72" y="64.45" width="14.4" height=".7" fill="none" stroke-width="0" connectorname="PWM15"/>
  <rect id="connector89terminal" x="86.4" y="64.45" width="0" height=".7" fill="none" stroke-width="0"/>
  <text x="70.6" y="65.5" fill="#8c8c8c" font-family="Noto Sans" font-size="3.5" text-anchor="end">PWM15</text>
  <line x1="71.65" x2="86.05" y1="72" y2="72" fill="none" stroke="#787878" stroke-linecap="round" stroke-linejoin="round" stroke-width=".7"/>
  <rect id="connector91pin" x="72" y="71.65" width="14.4" height=".7" fill="none" stroke-width="0" connectorname="PWM16"/>
  <rect id="connector91terminal" x="86.4" y="71.65" width="0" height=".7" fill="none" stroke-width="0"/>
  <text x="70.6" y="72.6998" fill="#8c8c8c" font-family="Noto Sans" font-size="3.5" text-anchor="end">PWM16</text>
  <line x1="71.65" x2="86.05" y1="79.2" y2="79.2" fill="none" stroke="#787878" stroke-linecap="round" stroke-linejoin="round" stroke-width=".7"/>
  <rect id="connector93pin" x="72" y="78.85" width="14.4" height=".7" fill="none" stroke-width="0" connectorname="PWM17"/>
  <rect id="connector93terminal" x="86.4" y="78.85" width="0" height=".7" fill="none" stroke-width="0"/>
  <text x="70.6" y="79.8998" fill="#8c8c8c" font-family="Noto Sans" font-size="3.5" text-anchor="end">PWM17</text>
  <line x1="71.65" x2="86.05" y1="86.4" y2="86.4" fill="none" stroke="#787878" stroke-linecap="round" stroke-linejoin="round" stroke-width=".7"/>
  <rect id="connector95pin" x="72" y="86.05" width="14.4" height=".7" fill="none" stroke-width="0" connectorname="PWM18"/>
  <rect id="connector95terminal" x="86.4" y="86.05" width="0" height=".7" fill="none" stroke-width="0"/>
  <text x="70.6" y="87.0998" fill="#8c8c8c" font-family="Noto Sans" font-size="3.5" text-anchor="end">PWM18</text>
  <line x1="71.65" x2="86.05" y1="93.6" y2="93.6" fill="none" stroke="#787878" stroke-linecap="round" stroke-linejoin="round" stroke-width=".7"/>
  <rect id="connector97pin" x="72" y="93.25" width="14.4" height=".7" fill="none" stroke-width="0" connectorname="PWM19"/>
  <rect id="connector97terminal" x="86.4" y="93.25" width="0" height=".7" fill="none" stroke-width="0"/>
  <text x="70.6" y="94.2998" fill="#8c8c8c" font-family="Noto Sans" font-size="3.5" text-anchor="end">PWM19</text>
  <line x1="71.65" x2="86.05" y1="100.8" y2="100.8" fill="none" stroke="#787878" stroke-linecap="round" stroke-linejoin="round" stroke-width=".7"/>
  <rect id="connector99pin" x="72" y="100.45" width="14.4" height=".7" fill="none" stroke-width="0" connectorname="PWM20"/>
  <rect id="connector99terminal" x="86.4" y="100.45" width="0" height=".7" fill="none" stroke-width="0"/>
  <text x="70.6" y="101.5" fill="#8c8c8c" font-family="Noto Sans" font-size="3.5" text-anchor="end">PWM20</text>
  <line x1="71.65" x2="86.05" y1="108" y2="108" fill="none" stroke="#787878" stroke-linecap="round" stroke-linejoin="round" stroke-width=".7"/>
  <rect id="connector101pin" x="72" y="107.65" width="14.4" height=".7" fill="none" stroke-width="0" connectorname="PWM21"/>
  <rect id="connector101terminal" x="86.4" y="107.65" width="0" height=".7" fill="none" stroke-width="0"/>
  <text x="70.6" y="108.7" fill="#8c8c8c" font-family="Noto Sans" font-size="3.5" text-anchor="end">PWM21</text>
  <line x1="71.65" x2="86.05" y1="115.2" y2="115.2" fill="none" stroke="#787878" stroke-linecap="round" stroke-linejoin="round" stroke-width=".7"/>
  <rect id="connector103pin" x="72" y="114.85" width="14.4" height=".7" fill="none" stroke-width="0" connectorname="PWM22"/>
  <rect id="connector103terminal" x="86.4" y="114.85" width="0" height=".7" fill="none" stroke-width="0"/>
  <text x="70.6" y="115.9" fill="#8c8c8c" font-family="Noto Sans" font-size="3.5" text-anchor="end">PWM22</text>
  <line x1="71.65" x2="86.05" y1="122.4" y2="122.4" fill="none" stroke="#787878" stroke-linecap="round" stroke-linejoin="round" stroke-width=".7"/>
  <rect id="connector105pin" x="72" y="122.05" width="14.4" height=".7" fill="none" stroke-width="0" connectorname="PWM23"/>
  <rect id="connector105terminal" x="86.4" y="122.05" width="0" height=".7" fill="none" stroke-width="0"/>
  <text x="70.6" y="123.1" fill="#8c8c8c" font-family="Noto Sans" font-size="3.5" text-anchor="end">PWM23</text>
  <line x1="43.2" x2="43.2" y1=".35" y2="14.4" fill="none" stroke="#787878" stroke-linecap="round" stroke-linejoin="round" stroke-width=".7"/>
  <rect id="connector11pin" x="42.85" width=".7" height="14.4" fill="none" stroke-width="0" connectorname="V+"/>
  <rect id="connector11terminal" x="42.85" width=".7" height="0" fill="none" stroke-width="0"/>
  <g transform="translate(44.6 16)">
   <g transform="rotate(270)">
    <text fill="#8c8c8c" font-family="Noto Sans" font-size="3.5" text-anchor="end">V+</text>
   </g>
  </g>
  <line x1="50.4" x2="50.4" y1=".35" y2="14.4" fill="none" stroke="#787878" stroke-linecap="round" stroke-linejoin="round" stroke-width=".7"/>
  <rect id="connector112pin" x="50.05" width=".7" height="14.4" fill="none" stroke-width="0" connectorname="VCC"/>
  <rect id="connector112terminal" x="50.05" width=".7" height="0" fill="none" stroke-width="0"/>
  <g transform="translate(51.8 16)">
   <g transform="rotate(270)">
    <text fill="#8c8c8c" font-family="Noto Sans" font-size="3.5" text-anchor="end">VCC</text>
   </g>
  </g>
  <line x1="43.2" x2="43.2" y1="144" y2="158.05" fill="none" stroke="#787878" stroke-linecap="round" stroke-linejoin="round" stroke-width=".7"/>
  <rect id="connector12pin" x="42.85" y="144" width=".7" height="14.4" fill="none" stroke-width="0" connectorname="GND"/>
  <rect id="connector12terminal" x="42.85" y="158.4" width=".7" height="0" fill="none" stroke-width="0"/>
  <g transform="translate(44.6 142.4)">
   <g transform="rotate(270)">
    <text fill="#8c8c8c" font-family="Noto Sans" font-size="3.5">GND</text>
   </g>
  </g>
  <rect id="connector57pin" x="42.85" width=".7" height="14.4" fill="none" stroke-width="0" connectorname="V+"/>
  <rect id="connector57terminal" x="42.85" width=".7" height="0" fill="none" stroke-width="0"/>
  <rect id="connector58pin" x="42.85" width=".7" height="14.4" fill="none" stroke-width="0" connectorname="V+"/>
  <rect id="connector58terminal" x="42.85" width=".7" height="0" fill="none" stroke-width="0"/>
  <rect id="connector60pin" x="42.85" width=".7" height="14.4" fill="none" stroke-width="0" connectorname="V+"/>
  <rect id="connector60terminal" x="42.85" width=".7" height="0" fill="none" stroke-width="0"/>
  <rect id="connector62pin" x="42.85" width=".7" height="14.4" fill="none" stroke-width="0" connectorname="V+"/>
  <rect id="connector62terminal" x="42.85" width=".7" height="0" fill="none" stroke-width="0"/>
  <rect id="connector64pin" x="42.85" width=".7" height="14.4" fill="none" stroke-width="0" connectorname="V+"/>
  <rect id="connector64terminal" x="42.85" width=".7" height="0" fill="none" stroke-width="0"/>
  <rect id="connector66pin" x="42.85" width=".7" height="14.4" fill="none" stroke-width="0" connectorname="V+"/>
  <rect id="connector66terminal" x="42.85" width=".7" height="0" fill="none" stroke-width="0"/>
  <rect id="connector68pin" x="42.85" width=".7" height="14.4" fill="none" stroke-width="0" connectorname="V+"/>
  <rect id="connector68terminal" x="42.85" width=".7" height="0" fill="none" stroke-width="0"/>
  <rect id="connector70pin" x="42.85" width=".7" height="14.4" fill="none" stroke-width="0" connectorname="V+"/>
  <rect id="connector70terminal" x="42.85" width=".7" height="0" fill="none" stroke-width="0"/>
  <rect id="connector72pin" x="42.85" width=".7" height="14.4" fill="none" stroke-width="0" connectorname="V+"/>
  <rect id="connector72terminal" x="42.85" width=".7" height="0" fill="none" stroke-width="0"/>
  <rect id="connector74pin" x="42.85" width=".7" height="14.4" fill="none" stroke-width="0" connectorname="V+"/>
  <rect id="connector74terminal" x="42.85" width=".7" height="0" fill="none" stroke-width="0"/>
  <rect id="connector76pin" x="42.85" width=".7" height="14.4" fill="none" stroke-width="0" connectorname="V+"/>
  <rect id="connector76terminal" x="42.85" width=".7" height="0" fill="none" stroke-width="0"/>
  <rect id="connector78pin" x="42.85" width=".7" height="14.4" fill="none" stroke-width="0" connectorname="V+"/>
  <rect id="connector78terminal" x="42.85" width=".7" height="0" fill="none" stroke-width="0"/>
  <rect id="connector80pin" x="42.85" width=".7" height="14.4" fill="none" stroke-width="0" connectorname="V+"/>
  <rect id="connector80terminal" x="42.85" width=".7" height="0" fill="none" stroke-width="0"/>
  <rect id="connector82pin" x="42.85" width=".7" height="14.4" fill="none" stroke-width="0" connectorname="V+"/>
  <rect id="connector82terminal" x="42.85" width=".7" height="0" fill="none" stroke-width="0"/>
  <rect id="connector84pin" x="42.85" width=".7" height="14.4" fill="none" stroke-width="0" connectorname="V+"/>
  <rect id="connector84terminal" x="42.85" width=".7" height="0" fill="none" stroke-width="0"/>
  <rect id="connector86pin" x="42.85" width=".7" height="14.4" fill="none" stroke-width="0" connectorname="V+"/>
  <rect id="connector86terminal" x="42.85" width=".7" height="0" fill="none" stroke-width="0"/>
  <rect id="connector88pin" x="42.85" width=".7" height="14.4" fill="none" stroke-width="0" connectorname="V+"/>
  <rect id="connector88terminal" x="42.85" width=".7" height="0" fill="none" stroke-width="0"/>
  <rect id="connector90pin" x="42.85" width=".7" height="14.4" fill="none" stroke-width="0" connectorname="V+"/>
  <rect id="connector90terminal" x="42.85" width=".7" height="0" fill="none" stroke-width="0"/>
  <rect id="connector92pin" x="42.85" width=".7" height="14.4" fill="none" stroke-width="0" connectorname="V+"/>
  <rect id="connector92terminal" x="42.85" width=".7" height="0" fill="none" stroke-width="0"/>
  <rect id="connector94pin" x="42.85" width=".7" height="14.4" fill="none" stroke-width="0" connectorname="V+"/>
  <rect id="connector94terminal" x="42.85" width=".7" height="0" fill="none" stroke-width="0"/>
  <rect id="connector96pin" x="42.85" width=".7" height="14.4" fill="none" stroke-width="0" connectorname="V+"/>
  <rect id="connector96terminal" x="42.85" width=".7" height="0" fill="none" stroke-width="0"/>
  <rect id="connector98pin" x="42.85" width=".7" height="14.4" fill="none" stroke-width="0" connectorname="V+"/>
  <rect id="connector98terminal" x="42.85" width=".7" height="0" fill="none" stroke-width="0"/>
  <rect id="connector100pin" x="42.85" width=".7" height="14.4" fill="none" stroke-width="0" connectorname="V+"/>
  <rect id="connector100terminal" x="42.85" width=".7" height="0" fill="none" stroke-width="0"/>
  <rect id="connector102pin" x="42.85" width=".7" height="14.4" fill="none" stroke-width="0" connectorname="V+"/>
  <rect id="connector102terminal" x="42.85" width=".7" height="0" fill="none" stroke-width="0"/>
  <rect id="connector104pin" x="42.85" width=".7" height="14.4" fill="none" stroke-width="0" connectorname="V+"/>
  <rect id="connector104terminal" x="42.85" width=".7" height="0" fill="none" stroke-width="0"/>
  <rect id="connector111pin" x="42.85" width=".7" height="14.4" fill="none" stroke-width="0" connectorname="V+"/>
  <rect id="connector111terminal" x="42.85" width=".7" height="0" fill="none" stroke-width="0"/>
  <rect id="connector56pin" x="42.85" y="144" width=".7" height="14.4" fill="none" stroke-width="0" connectorname="GND"/>
  <rect id="connector56terminal" x="42.85" y="158.4" width=".7" height="0" fill="none" stroke-width="0"/>
  <rect id="connector110pin" x="42.85" y="144" width=".7" height="14.4" fill="none" stroke-width="0" connectorname="GND"/>
  <rect id="connector110terminal" x="42.85" y="158.4" width=".7" height="0" fill="none" stroke-width="0"/>
  <rect id="connector115pin" x="42.85" y="144" width=".7" height="14.4" fill="none" stroke-width="0" connectorname="GND"/>
  <rect id="connector115terminal" x="42.85" y="158.4" width=".7" height="0" fill="none" stroke-width="0"/>
  <rect id="connector108pin" y="28.45" width="14.4" height=".7" fill="none" stroke-width="0" connectorName="CLK"/>
  <rect id="connector108terminal" y="28.45" width="0" height=".7" fill="none" stroke-width="0"/>
  <rect id="connector106pin" y="50.05" width="14.4" height=".7" fill="none" stroke-width="0" connectorName="LAT"/>
  <rect id="connector106terminal" y="50.05" width="0" height=".7" fill="none" stroke-width="0"/>
  <rect id="connector107pin" y="57.25" width="14.4" height=".7" fill="none" stroke-width="0" connectorName="OE"/>
  <rect id="connector107terminal" y="57.25" width="0" height=".7" fill="none" stroke-width="0"/>
 </g>
</svg>
