<?xml version="1.0" encoding="UTF-8"?>
<!-- Created with Fritzing (http://www.fritzing.org/) -->
<svg width="1.7in" height="1in" baseProfile="tiny" version="1.2" viewBox="0 0 122.4 72" xmlns="http://www.w3.org/2000/svg">
 <desc>
  <referenceFile>Adafruit NeoDriver STEMMA QT_schematic.svg</referenceFile>
 </desc>
 <desc>Fritzing schematic generated by brd2svg</desc>
 <g id="schematic">
  <rect x="14.4" y="14.4" width="93.15" height="43.2" fill="none" stroke="#000" stroke-linecap="round" stroke-linejoin="round" stroke-width=".9"/>
  <text id="label" x="61.2" y="29" fill="#000000" font-family="Noto Sans" font-size="3.5" text-anchor="middle"><tspan x="61.2" y="29">Adafruit</tspan> <tspan x="61.2" y="32.5">NeoDriver</tspan> <tspan x="61.2" y="36">STEMMA</tspan> <tspan x="61.2" y="39.5">QT</tspan></text>
  <line x1=".35" x2="14.4" y1="28.8" y2="28.8" fill="none" stroke="#787878" stroke-linecap="round" stroke-linejoin="round" stroke-width=".7"/>
  <rect id="connector41pin" y="28.45" width="14.4" height=".7" fill="none" stroke-width="0" connectorName="NEOPIX_OUT"/>
  <rect id="connector41terminal" y="28.45" width="0" height=".7" fill="none" stroke-width="0"/>
  <text x="15.8" y="29.5" fill="#8c8c8c" font-family="Noto Sans" font-size="3.5">NEOPIX_OUT</text>
  <line x1="107.65" x2="122.05" y1="28.8" y2="28.8" fill="none" stroke="#787878" stroke-linecap="round" stroke-linejoin="round" stroke-width=".7"/>
  <rect id="connector42pin" x="108" y="28.45" width="14.4" height=".7" fill="none" stroke-width="0" connectorname="UPDI"/>
  <rect id="connector42terminal" x="122.4" y="28.45" width="0" height=".7" fill="none" stroke-width="0"/>
  <text x="106.6" y="29.5" fill="#8c8c8c" font-family="Noto Sans" font-size="3.5" text-anchor="end">UPDI</text>
  <line x1="107.65" x2="122.05" y1="36" y2="36" fill="none" stroke="#787878" stroke-linecap="round" stroke-linejoin="round" stroke-width=".7"/>
  <rect id="connector16pin" x="108" y="35.65" width="14.4" height=".7" fill="none" stroke-width="0" connectorname="SCL"/>
  <rect id="connector16terminal" x="122.4" y="35.65" width="0" height=".7" fill="none" stroke-width="0"/>
  <text x="106.6" y="36.7" fill="#8c8c8c" font-family="Noto Sans" font-size="3.5" text-anchor="end">SCL</text>
  <line x1="107.65" x2="122.05" y1="43.2" y2="43.2" fill="none" stroke="#787878" stroke-linecap="round" stroke-linejoin="round" stroke-width=".7"/>
  <rect id="connector15pin" x="108" y="42.85" width="14.4" height=".7" fill="none" stroke-width="0" connectorname="SDA"/>
  <rect id="connector15terminal" x="122.4" y="42.85" width="0" height=".7" fill="none" stroke-width="0"/>
  <text x="106.6" y="43.9" fill="#8c8c8c" font-family="Noto Sans" font-size="3.5" text-anchor="end">SDA</text>
  <line x1="57.6" x2="57.6" y1=".35" y2="14.4" fill="none" stroke="#787878" stroke-linecap="round" stroke-linejoin="round" stroke-width=".7"/>
  <rect id="connector14pin" x="57.25" width=".7" height="14.4" fill="none" stroke-width="0" connectorname="VIN"/>
  <rect id="connector14terminal" x="57.25" width=".7" height="0" fill="none" stroke-width="0"/>
  <g transform="translate(59 16)">
   <g transform="rotate(270)">
    <text fill="#8c8c8c" font-family="Noto Sans" font-size="3.5" text-anchor="end">VIN</text>
   </g>
  </g>
  <line x1="64.8" x2="64.8" y1=".35" y2="14.4" fill="none" stroke="#787878" stroke-linecap="round" stroke-linejoin="round" stroke-width=".7"/>
  <rect id="connector44pin" x="64.45" width=".7" height="14.4" fill="none" stroke-width="0" connectorname="V+"/>
  <rect id="connector44terminal" x="64.45" width=".7" height="0" fill="none" stroke-width="0"/>
  <g transform="translate(66.2 16)">
   <g transform="rotate(270)">
    <text fill="#8c8c8c" font-family="Noto Sans" font-size="3.5" text-anchor="end">V+</text>
   </g>
  </g>
  <line x1="57.6" x2="57.6" y1="57.6" y2="71.65" fill="none" stroke="#787878" stroke-linecap="round" stroke-linejoin="round" stroke-width=".7"/>
  <rect id="connector13pin" x="57.25" y="57.6" width=".7" height="14.4" fill="none" stroke-width="0" connectorname="GND"/>
  <rect id="connector13terminal" x="57.25" y="72" width=".7" height="0" fill="none" stroke-width="0"/>
  <g transform="translate(59 56)">
   <g transform="rotate(270)">
    <text fill="#8c8c8c" font-family="Noto Sans" font-size="3.5">GND</text>
   </g>
  </g>
  <rect id="connector37pin" x="57.25" width=".7" height="14.4" fill="none" stroke-width="0" connectorname="VIN"/>
  <rect id="connector37terminal" x="57.25" width=".7" height="0" fill="none" stroke-width="0"/>
  <rect id="connector20pin" x="57.25" width=".7" height="14.4" fill="none" stroke-width="0" connectorname="VIN"/>
  <rect id="connector20terminal" x="57.25" width=".7" height="0" fill="none" stroke-width="0"/>
  <rect id="connector45pin" x="64.45" width=".7" height="14.4" fill="none" stroke-width="0" connectorname="V+"/>
  <rect id="connector45terminal" x="64.45" width=".7" height="0" fill="none" stroke-width="0"/>
  <rect id="connector87pin" x="64.45" width=".7" height="14.4" fill="none" stroke-width="0" connectorname="V+"/>
  <rect id="connector87terminal" x="64.45" width=".7" height="0" fill="none" stroke-width="0"/>
  <rect id="connector88pin" x="64.45" width=".7" height="14.4" fill="none" stroke-width="0" connectorname="V+"/>
  <rect id="connector88terminal" x="64.45" width=".7" height="0" fill="none" stroke-width="0"/>
  <rect id="connector38pin" x="57.25" y="57.6" width=".7" height="14.4" fill="none" stroke-width="0" connectorname="GND"/>
  <rect id="connector38terminal" x="57.25" y="72" width=".7" height="0" fill="none" stroke-width="0"/>
  <rect id="connector43pin" x="57.25" y="57.6" width=".7" height="14.4" fill="none" stroke-width="0" connectorname="GND"/>
  <rect id="connector43terminal" x="57.25" y="72" width=".7" height="0" fill="none" stroke-width="0"/>
  <rect id="connector47pin" x="57.25" y="57.6" width=".7" height="14.4" fill="none" stroke-width="0" connectorname="GND"/>
  <rect id="connector47terminal" x="57.25" y="72" width=".7" height="0" fill="none" stroke-width="0"/>
  <rect id="connector85pin" x="57.25" y="57.6" width=".7" height="14.4" fill="none" stroke-width="0" connectorname="GND"/>
  <rect id="connector85terminal" x="57.25" y="72" width=".7" height="0" fill="none" stroke-width="0"/>
  <rect id="connector89pin" x="57.25" y="57.6" width=".7" height="14.4" fill="none" stroke-width="0" connectorname="GND"/>
  <rect id="connector89terminal" x="57.949" y="35.986" width=".0014" height=".0288" fill="none" stroke-width="0"/>
  <rect x="57.25" y="72" width=".7" height="0" fill="none" stroke-width="0"/>
  <rect id="connector19pin" x="57.25" y="57.6" width=".7" height="14.4" fill="none" stroke-width="0" connectorname="GND"/>
  <rect id="connector19terminal" x="57.25" y="72" width=".7" height="0" fill="none" stroke-width="0"/>
  <rect id="connector86pin" y="28.45" width="14.4" height=".7" fill="none" stroke-width="0" connectorName="NEOPIX_OUT"/>
  <rect id="connector86terminal" y="28.45" width="0" height=".7" fill="none" stroke-width="0"/>
  <rect id="connector46pin" y="28.45" width="14.4" height=".7" fill="none" stroke-width="0" connectorName="NEOPIX_OUT"/>
  <rect id="connector46terminal" y="28.45" width="0" height=".7" fill="none" stroke-width="0"/>
  <rect id="connector22pin" x="108" y="35.65" width="14.4" height=".7" fill="none" stroke-width="0" connectorname="SCL"/>
  <rect id="connector22terminal" x="122.4" y="35.65" width="0" height=".7" fill="none" stroke-width="0"/>
  <rect id="connector39pin" x="108" y="35.65" width="14.4" height=".7" fill="none" stroke-width="0" connectorname="SCL"/>
  <rect id="connector39terminal" x="122.4" y="35.65" width="0" height=".7" fill="none" stroke-width="0"/>
  <rect id="connector40pin" x="108" y="42.85" width="14.4" height=".7" fill="none" stroke-width="0" connectorname="SDA"/>
  <rect id="connector40terminal" x="122.4" y="42.85" width="0" height=".7" fill="none" stroke-width="0"/>
  <rect id="connector21pin" x="108" y="42.85" width="14.4" height=".7" fill="none" stroke-width="0" connectorname="SDA"/>
  <rect id="connector21terminal" x="122.4" y="42.85" width="0" height=".7" fill="none" stroke-width="0"/>
 </g>
</svg>
