<?xml version="1.0" encoding="UTF-8"?>
<!-- Created with Fritzing (http://www.fritzing.org/) -->
<svg width="1.4in" height="1.2in" baseProfile="tiny" version="1.2" viewBox="0 0 100.8 86.4" xmlns="http://www.w3.org/2000/svg">
 <desc>
  <referenceFile>Adafruit HX711 ADC Breakout_schematic.svg</referenceFile>
 </desc>
 <desc>Fritzing schematic generated by brd2svg</desc>
 <g id="schematic">
  <rect x="14.4" y="14.4" width="71.55" height="57.6" fill="none" stroke="#000" stroke-linecap="round" stroke-linejoin="round" stroke-width=".9"/>
  <text id="label" x="50.4" y="36.2" fill="#000000" font-family="Noto Sans" font-size="3.5" text-anchor="middle"><tspan x="50.4" y="36.2">Adafruit</tspan> <tspan x="50.4" y="39.7">HX711</tspan> <tspan x="50.4" y="43.2">ADC</tspan> <tspan x="50.4" y="46.7">Breakout</tspan></text>
  <line x1=".35" x2="14.4" y1="36" y2="36" fill="none" stroke="#787878" stroke-linecap="round" stroke-linejoin="round" stroke-width=".7"/>
  <rect id="connector32pin" y="35.65" width="14.4" height=".7" fill="none" stroke-width="0" connectorName="A+"/>
  <rect id="connector32terminal" y="35.65" width="0" height=".7" fill="none" stroke-width="0"/>
  <text x="15.8" y="36.7" fill="#8c8c8c" font-family="Noto Sans" font-size="3.5">A+</text>
  <line x1=".35" x2="14.4" y1="43.2" y2="43.2" fill="none" stroke="#787878" stroke-linecap="round" stroke-linejoin="round" stroke-width=".7"/>
  <rect id="connector33pin" y="42.85" width="14.4" height=".7" fill="none" stroke-width="0" connectorName="A-"/>
  <rect id="connector33terminal" y="42.85" width="0" height=".7" fill="none" stroke-width="0"/>
  <text x="15.8" y="43.9" fill="#8c8c8c" font-family="Noto Sans" font-size="3.5">A-</text>
  <line x1=".35" x2="14.4" y1="50.4" y2="50.4" fill="none" stroke="#787878" stroke-linecap="round" stroke-linejoin="round" stroke-width=".7"/>
  <rect id="connector31pin" y="50.05" width="14.4" height=".7" fill="none" stroke-width="0" connectorName="B+"/>
  <rect id="connector31terminal" y="50.05" width="0" height=".7" fill="none" stroke-width="0"/>
  <text x="15.8" y="51.1" fill="#8c8c8c" font-family="Noto Sans" font-size="3.5">B+</text>
  <line x1=".35" x2="14.4" y1="57.6" y2="57.6" fill="none" stroke="#787878" stroke-linecap="round" stroke-linejoin="round" stroke-width=".7"/>
  <rect id="connector30pin" y="57.25" width="14.4" height=".7" fill="none" stroke-width="0" connectorName="B-"/>
  <rect id="connector30terminal" y="57.25" width="0" height=".7" fill="none" stroke-width="0"/>
  <text x="15.8" y="58.3" fill="#8c8c8c" font-family="Noto Sans" font-size="3.5">B-</text>
  <line x1="86.05" x2="100.45" y1="36" y2="36" fill="none" stroke="#787878" stroke-linecap="round" stroke-linejoin="round" stroke-width=".7"/>
  <rect id="connector26pin" x="86.4" y="35.65" width="14.4" height=".7" fill="none" stroke-width="0" connectorname="SCLK"/>
  <rect id="connector26terminal" x="100.8" y="35.65" width="0" height=".7" fill="none" stroke-width="0"/>
  <text x="85.0003" y="36.7" fill="#8c8c8c" font-family="Noto Sans" font-size="3.5" text-anchor="end">SCLK</text>
  <line x1="86.05" x2="100.45" y1="43.2" y2="43.2" fill="none" stroke="#787878" stroke-linecap="round" stroke-linejoin="round" stroke-width=".7"/>
  <rect id="connector28pin" x="86.4" y="42.85" width="14.4" height=".7" fill="none" stroke-width="0" connectorname="RATE"/>
  <rect id="connector28terminal" x="100.8" y="42.85" width="0" height=".7" fill="none" stroke-width="0"/>
  <text x="85.0003" y="43.9" fill="#8c8c8c" font-family="Noto Sans" font-size="3.5" text-anchor="end">RATE</text>
  <line x1="86.05" x2="100.45" y1="50.4" y2="50.4" fill="none" stroke="#787878" stroke-linecap="round" stroke-linejoin="round" stroke-width=".7"/>
  <rect id="connector27pin" x="86.4" y="50.05" width="14.4" height=".7" fill="none" stroke-width="0" connectorname="DATAOUT"/>
  <rect id="connector27terminal" x="100.8" y="50.05" width="0" height=".7" fill="none" stroke-width="0"/>
  <text x="85.0003" y="51.1" fill="#8c8c8c" font-family="Noto Sans" font-size="3.5" text-anchor="end">DATAOUT</text>
  <line x1="36" x2="36" y1=".35" y2="14.4" fill="none" stroke="#787878" stroke-linecap="round" stroke-linejoin="round" stroke-width=".7"/>
  <rect id="connector23pin" x="35.65" width=".7" height="14.4" fill="none" stroke-width="0" connectorname="V+"/>
  <rect id="connector23terminal" x="35.65" width=".7" height="0" fill="none" stroke-width="0"/>
  <g transform="translate(37.4 16)">
   <g transform="rotate(270)">
    <text fill="#8c8c8c" font-family="Noto Sans" font-size="3.5" text-anchor="end">V+</text>
   </g>
  </g>
  <line x1="43.2" x2="43.2" y1=".35" y2="14.4" fill="none" stroke="#787878" stroke-linecap="round" stroke-linejoin="round" stroke-width=".7"/>
  <rect id="connector24pin" x="42.85" width=".7" height="14.4" fill="none" stroke-width="0" connectorname="VDDIO"/>
  <rect id="connector24terminal" x="42.85" width=".7" height="0" fill="none" stroke-width="0"/>
  <g transform="translate(44.6 16)">
   <g transform="rotate(270)">
    <text fill="#8c8c8c" font-family="Noto Sans" font-size="3.5" text-anchor="end">VDDIO</text>
   </g>
  </g>
  <line x1="50.4" x2="50.4" y1=".35" y2="14.4" fill="none" stroke="#787878" stroke-linecap="round" stroke-linejoin="round" stroke-width=".7"/>
  <rect id="connector29pin" x="50.05" width=".7" height="14.4" fill="none" stroke-width="0" connectorname="VPP"/>
  <rect id="connector29terminal" x="50.05" width=".7" height="0" fill="none" stroke-width="0"/>
  <g transform="translate(51.8 16)">
   <g transform="rotate(270)">
    <text fill="#8c8c8c" font-family="Noto Sans" font-size="3.5" text-anchor="end">VPP</text>
   </g>
  </g>
  <line x1="50.4" x2="50.4" y1="72" y2="86.05" fill="none" stroke="#787878" stroke-linecap="round" stroke-linejoin="round" stroke-width=".7"/>
  <rect id="connector25pin" x="50.05" y="72" width=".7" height="14.4" fill="none" stroke-width="0" connectorname="GND"/>
  <rect id="connector25terminal" x="50.05" y="86.4" width=".7" height="0" fill="none" stroke-width="0"/>
  <g transform="translate(51.8 70.4)">
   <g transform="rotate(270)">
    <text fill="#8c8c8c" font-family="Noto Sans" font-size="3.5">GND</text>
   </g>
  </g>
  <rect id="connector34pin" x="50.05" y="72" width=".7" height="14.4" fill="none" stroke-width="0" connectorname="GND"/>
  <rect id="connector34terminal" x="50.05" y="86.4" width=".7" height="0" fill="none" stroke-width="0"/>
 </g>
</svg>
