<?xml version="1.0" encoding="UTF-8"?>
<!-- Created with Fritzing (http://www.fritzing.org/) -->
<svg width="1.4in" height="2.4in" baseProfile="tiny" version="1.2" viewBox="0 0 100.8 172.8" xmlns="http://www.w3.org/2000/svg">
 <desc>
  <referenceFile>Adafruit PiCowbell HSTX DVI_schematic.svg</referenceFile>
 </desc>
 <desc>Fritzing schematic generated by brd2svg</desc>
 <g id="schematic">
  <rect x="14.4" y="14.4" width="71.55" height="144" fill="none" stroke="#000" stroke-linecap="round" stroke-linejoin="round" stroke-width=".9"/>
  <text id="label" x="50.4" y="79.4002" fill="#000000" font-family="Noto Sans" font-size="3.5" text-anchor="middle"><tspan x="50.4" y="79.4002">Adafruit</tspan> <tspan x="50.4" y="82.9001">PiCowbell</tspan> <tspan x="50.4" y="86.4">HSTX</tspan> <tspan x="50.4" y="89.8999">DVI</tspan></text>
  <line x1=".35" x2="14.4" y1="36" y2="36" fill="none" stroke="#787878" stroke-linecap="round" stroke-linejoin="round" stroke-width=".7"/>
  <rect id="connector13pin" y="35.65" width="14.4" height=".7" fill="none" stroke-width="0" connectorName="IO0"/>
  <rect id="connector13terminal" x="-.0144" y="35.999" width=".0288" height=".0014" fill="none" stroke-width="0"/>
  <rect y="35.65" width="0" height=".7" fill="none" stroke-width="0"/>
  <text x="15.8" y="36.7" fill="#8c8c8c" font-family="Noto Sans" font-size="3.5">IO0</text>
  <line x1=".35" x2="14.4" y1="43.2" y2="43.2" fill="none" stroke="#787878" stroke-linecap="round" stroke-linejoin="round" stroke-width=".7"/>
  <rect id="connector14pin" y="42.85" width="14.4" height=".7" fill="none" stroke-width="0" connectorName="IO1"/>
  <rect id="connector14terminal" x="-.0144" y="43.199" width=".0288" height=".0014" fill="none" stroke-width="0"/>
  <rect y="42.85" width="0" height=".7" fill="none" stroke-width="0"/>
  <text x="15.8" y="43.9" fill="#8c8c8c" font-family="Noto Sans" font-size="3.5">IO1</text>
  <line x1=".35" x2="14.4" y1="50.4" y2="50.4" fill="none" stroke="#787878" stroke-linecap="round" stroke-linejoin="round" stroke-width=".7"/>
  <rect id="connector16pin" y="50.05" width="14.4" height=".7" fill="none" stroke-width="0" connectorName="IO2"/>
  <rect id="connector16terminal" x="-.0144" y="50.399" width=".0288" height=".0014" fill="none" stroke-width="0"/>
  <rect y="50.05" width="0" height=".7" fill="none" stroke-width="0"/>
  <text x="15.8" y="51.1" fill="#8c8c8c" font-family="Noto Sans" font-size="3.5">IO2</text>
  <line x1=".35" x2="14.4" y1="57.6" y2="57.6" fill="none" stroke="#787878" stroke-linecap="round" stroke-linejoin="round" stroke-width=".7"/>
  <rect id="connector17pin" y="57.25" width="14.4" height=".7" fill="none" stroke-width="0" connectorName="IO3"/>
  <rect id="connector17terminal" x="-.0144" y="57.599" width=".0288" height=".0014" fill="none" stroke-width="0"/>
  <rect y="57.25" width="0" height=".7" fill="none" stroke-width="0"/>
  <text x="15.8" y="58.3" fill="#8c8c8c" font-family="Noto Sans" font-size="3.5">IO3</text>
  <line x1=".35" x2="14.4" y1="64.8" y2="64.8" fill="none" stroke="#787878" stroke-linecap="round" stroke-linejoin="round" stroke-width=".7"/>
  <rect id="connector18pin" y="64.45" width="14.4" height=".7" fill="none" stroke-width="0" connectorName="SDA"/>
  <rect id="connector18terminal" x="-.0144" y="64.799" width=".0288" height=".0014" fill="none" stroke-width="0"/>
  <rect y="64.45" width="0" height=".7" fill="none" stroke-width="0"/>
  <text x="15.8" y="65.5" fill="#8c8c8c" font-family="Noto Sans" font-size="3.5">SDA</text>
  <line x1=".35" x2="14.4" y1="72" y2="72" fill="none" stroke="#787878" stroke-linecap="round" stroke-linejoin="round" stroke-width=".7"/>
  <rect id="connector19pin" y="71.65" width="14.4" height=".7" fill="none" stroke-width="0" connectorName="SCL"/>
  <rect id="connector19terminal" x="-.0144" y="71.999" width=".0288" height=".0014" fill="none" stroke-width="0"/>
  <rect y="71.65" width="0" height=".7" fill="none" stroke-width="0"/>
  <text x="15.8" y="72.6998" fill="#8c8c8c" font-family="Noto Sans" font-size="3.5">SCL</text>
  <line x1=".35" x2="14.4" y1="79.2" y2="79.2" fill="none" stroke="#787878" stroke-linecap="round" stroke-linejoin="round" stroke-width=".7"/>
  <rect id="connector21pin" y="78.85" width="14.4" height=".7" fill="none" stroke-width="0" connectorName="D+"/>
  <rect id="connector21terminal" x="-.0144" y="79.199" width=".0288" height=".0014" fill="none" stroke-width="0"/>
  <rect y="78.85" width="0" height=".7" fill="none" stroke-width="0"/>
  <text x="15.8" y="79.8998" fill="#8c8c8c" font-family="Noto Sans" font-size="3.5">D+</text>
  <line x1=".35" x2="14.4" y1="86.4" y2="86.4" fill="none" stroke="#787878" stroke-linecap="round" stroke-linejoin="round" stroke-width=".7"/>
  <rect id="connector22pin" y="86.05" width="14.4" height=".7" fill="none" stroke-width="0" connectorName="D-"/>
  <rect id="connector22terminal" x="-.0144" y="86.399" width=".0288" height=".0014" fill="none" stroke-width="0"/>
  <rect y="86.05" width="0" height=".7" fill="none" stroke-width="0"/>
  <text x="15.8" y="87.0998" fill="#8c8c8c" font-family="Noto Sans" font-size="3.5">D-</text>
  <line x1=".35" x2="14.4" y1="93.6" y2="93.6" fill="none" stroke="#787878" stroke-linecap="round" stroke-linejoin="round" stroke-width=".7"/>
  <rect id="connector23pin" y="93.25" width="14.4" height=".7" fill="none" stroke-width="0" connectorName="IO8"/>
  <rect id="connector23terminal" x="-.0144" y="93.599" width=".0288" height=".0014" fill="none" stroke-width="0"/>
  <rect y="93.25" width="0" height=".7" fill="none" stroke-width="0"/>
  <text x="15.8" y="94.2998" fill="#8c8c8c" font-family="Noto Sans" font-size="3.5">IO8</text>
  <line x1=".35" x2="14.4" y1="100.8" y2="100.8" fill="none" stroke="#787878" stroke-linecap="round" stroke-linejoin="round" stroke-width=".7"/>
  <rect id="connector24pin" y="100.45" width="14.4" height=".7" fill="none" stroke-width="0" connectorName="IO9"/>
  <rect id="connector24terminal" x="-.0144" y="100.8" width=".0288" height=".0014" fill="none" stroke-width="0"/>
  <rect y="100.45" width="0" height=".7" fill="none" stroke-width="0"/>
  <text x="15.8" y="101.5" fill="#8c8c8c" font-family="Noto Sans" font-size="3.5">IO9</text>
  <line x1=".35" x2="14.4" y1="108" y2="108" fill="none" stroke="#787878" stroke-linecap="round" stroke-linejoin="round" stroke-width=".7"/>
  <rect id="connector26pin" y="107.65" width="14.4" height=".7" fill="none" stroke-width="0" connectorName="IO10"/>
  <rect id="connector26terminal" x="-.0144" y="108" width=".0288" height=".0014" fill="none" stroke-width="0"/>
  <rect y="107.65" width="0" height=".7" fill="none" stroke-width="0"/>
  <text x="15.8" y="108.7" fill="#8c8c8c" font-family="Noto Sans" font-size="3.5">IO10</text>
  <line x1=".35" x2="14.4" y1="115.2" y2="115.2" fill="none" stroke="#787878" stroke-linecap="round" stroke-linejoin="round" stroke-width=".7"/>
  <rect id="connector27pin" y="114.85" width="14.4" height=".7" fill="none" stroke-width="0" connectorName="IO11"/>
  <rect id="connector27terminal" x="-.0144" y="115.2" width=".0288" height=".0014" fill="none" stroke-width="0"/>
  <rect y="114.85" width="0" height=".7" fill="none" stroke-width="0"/>
  <text x="15.8" y="115.9" fill="#8c8c8c" font-family="Noto Sans" font-size="3.5">IO11</text>
  <line x1=".35" x2="14.4" y1="122.4" y2="122.4" fill="none" stroke="#787878" stroke-linecap="round" stroke-linejoin="round" stroke-width=".7"/>
  <rect id="connector28pin" y="122.05" width="14.4" height=".7" fill="none" stroke-width="0" connectorName="D0P"/>
  <rect id="connector28terminal" x="-.0144" y="122.4" width=".0288" height=".0014" fill="none" stroke-width="0"/>
  <rect y="122.05" width="0" height=".7" fill="none" stroke-width="0"/>
  <text x="15.8" y="123.1" fill="#8c8c8c" font-family="Noto Sans" font-size="3.5">D0P</text>
  <line x1=".35" x2="14.4" y1="129.6" y2="129.6" fill="none" stroke="#787878" stroke-linecap="round" stroke-linejoin="round" stroke-width=".7"/>
  <rect id="connector29pin" y="129.25" width="14.4" height=".7" fill="none" stroke-width="0" connectorName="D0N"/>
  <rect id="connector29terminal" x="-.0144" y="129.6" width=".0288" height=".0014" fill="none" stroke-width="0"/>
  <rect y="129.25" width="0" height=".7" fill="none" stroke-width="0"/>
  <text x="15.8" y="130.3" fill="#8c8c8c" font-family="Noto Sans" font-size="3.5">D0N</text>
  <line x1=".35" x2="14.4" y1="136.8" y2="136.8" fill="none" stroke="#787878" stroke-linecap="round" stroke-linejoin="round" stroke-width=".7"/>
  <rect id="connector31pin" y="136.45" width="14.4" height=".7" fill="none" stroke-width="0" connectorName="CKP"/>
  <rect id="connector31terminal" x="-.0144" y="136.8" width=".0288" height=".0014" fill="none" stroke-width="0"/>
  <rect y="136.45" width="0" height=".7" fill="none" stroke-width="0"/>
  <text x="15.8" y="137.5" fill="#8c8c8c" font-family="Noto Sans" font-size="3.5">CKP</text>
  <line x1=".35" x2="14.4" y1="144" y2="144" fill="none" stroke="#787878" stroke-linecap="round" stroke-linejoin="round" stroke-width=".7"/>
  <rect id="connector32pin" y="143.65" width="14.4" height=".7" fill="none" stroke-width="0" connectorName="CKN"/>
  <rect id="connector32terminal" x="-.0144" y="144" width=".0288" height=".0014" fill="none" stroke-width="0"/>
  <rect y="143.65" width="0" height=".7" fill="none" stroke-width="0"/>
  <text x="15.8" y="144.7" fill="#8c8c8c" font-family="Noto Sans" font-size="3.5">CKN</text>
  <line x1="86.05" x2="100.45" y1="36" y2="36" fill="none" stroke="#787878" stroke-linecap="round" stroke-linejoin="round" stroke-width=".7"/>
  <rect id="connector49pin" x="86.4" y="35.65" width="14.4" height=".7" fill="none" stroke-width="0" connectorname="!EN"/>
  <rect id="connector49terminal" x="100.79" y="35.999" width=".0288" height=".0014" fill="none" stroke-width="0"/>
  <rect x="100.8" y="35.65" width="0" height=".7" fill="none" stroke-width="0"/>
  <text x="85.0003" y="36.7" fill="#8c8c8c" font-family="Noto Sans" font-size="3.5" text-anchor="end">!EN</text>
  <line x1="86.05" x2="100.45" y1="43.2" y2="43.2" fill="none" stroke="#787878" stroke-linecap="round" stroke-linejoin="round" stroke-width=".7"/>
  <rect id="connector46pin" x="86.4" y="42.85" width="14.4" height=".7" fill="none" stroke-width="0" connectorname="AD2"/>
  <rect id="connector46terminal" x="100.79" y="43.199" width=".0288" height=".0014" fill="none" stroke-width="0"/>
  <rect x="100.8" y="42.85" width="0" height=".7" fill="none" stroke-width="0"/>
  <text x="85.0003" y="43.9" fill="#8c8c8c" font-family="Noto Sans" font-size="3.5" text-anchor="end">AD2</text>
  <line x1="86.05" x2="100.45" y1="50.4" y2="50.4" fill="none" stroke="#787878" stroke-linecap="round" stroke-linejoin="round" stroke-width=".7"/>
  <rect id="connector44pin" x="86.4" y="50.05" width="14.4" height=".7" fill="none" stroke-width="0" connectorname="AD1"/>
  <rect id="connector44terminal" x="100.79" y="50.399" width=".0288" height=".0014" fill="none" stroke-width="0"/>
  <rect x="100.8" y="50.05" width="0" height=".7" fill="none" stroke-width="0"/>
  <text x="85.0003" y="51.1" fill="#8c8c8c" font-family="Noto Sans" font-size="3.5" text-anchor="end">AD1</text>
  <line x1="86.05" x2="100.45" y1="57.6" y2="57.6" fill="none" stroke="#787878" stroke-linecap="round" stroke-linejoin="round" stroke-width=".7"/>
  <rect id="connector43pin" x="86.4" y="57.25" width="14.4" height=".7" fill="none" stroke-width="0" connectorname="AD0"/>
  <rect id="connector43terminal" x="100.79" y="57.599" width=".0288" height=".0014" fill="none" stroke-width="0"/>
  <rect x="100.8" y="57.25" width="0" height=".7" fill="none" stroke-width="0"/>
  <text x="85.0003" y="58.3" fill="#8c8c8c" font-family="Noto Sans" font-size="3.5" text-anchor="end">AD0</text>
  <line x1="86.05" x2="100.45" y1="64.8" y2="64.8" fill="none" stroke="#787878" stroke-linecap="round" stroke-linejoin="round" stroke-width=".7"/>
  <rect id="connector42pin" x="86.4" y="64.45" width="14.4" height=".7" fill="none" stroke-width="0" connectorname="!RESET"/>
  <rect id="connector42terminal" x="100.79" y="64.799" width=".0288" height=".0014" fill="none" stroke-width="0"/>
  <rect x="100.8" y="64.45" width="0" height=".7" fill="none" stroke-width="0"/>
  <text x="85.0003" y="65.5" fill="#8c8c8c" font-family="Noto Sans" font-size="3.5" text-anchor="end">!RESET</text>
  <line x1="86.05" x2="100.45" y1="72" y2="72" fill="none" stroke="#787878" stroke-linecap="round" stroke-linejoin="round" stroke-width=".7"/>
  <rect id="connector41pin" x="86.4" y="71.65" width="14.4" height=".7" fill="none" stroke-width="0" connectorname="IO22"/>
  <rect id="connector41terminal" x="100.79" y="71.999" width=".0288" height=".0014" fill="none" stroke-width="0"/>
  <rect x="100.8" y="71.65" width="0" height=".7" fill="none" stroke-width="0"/>
  <text x="85.0003" y="72.6998" fill="#8c8c8c" font-family="Noto Sans" font-size="3.5" text-anchor="end">IO22</text>
  <line x1="86.05" x2="100.45" y1="79.2" y2="79.2" fill="none" stroke="#787878" stroke-linecap="round" stroke-linejoin="round" stroke-width=".7"/>
  <rect id="connector39pin" x="86.4" y="78.85" width="14.4" height=".7" fill="none" stroke-width="0" connectorname="IO21"/>
  <rect id="connector39terminal" x="100.79" y="79.199" width=".0288" height=".0014" fill="none" stroke-width="0"/>
  <rect x="100.8" y="78.85" width="0" height=".7" fill="none" stroke-width="0"/>
  <text x="85.0003" y="79.8998" fill="#8c8c8c" font-family="Noto Sans" font-size="3.5" text-anchor="end">IO21</text>
  <line x1="86.05" x2="100.45" y1="86.4" y2="86.4" fill="none" stroke="#787878" stroke-linecap="round" stroke-linejoin="round" stroke-width=".7"/>
  <rect id="connector38pin" x="86.4" y="86.05" width="14.4" height=".7" fill="none" stroke-width="0" connectorname="IO20"/>
  <rect id="connector38terminal" x="100.79" y="86.399" width=".0288" height=".0014" fill="none" stroke-width="0"/>
  <rect x="100.8" y="86.05" width="0" height=".7" fill="none" stroke-width="0"/>
  <text x="85.0003" y="87.0998" fill="#8c8c8c" font-family="Noto Sans" font-size="3.5" text-anchor="end">IO20</text>
  <line x1="86.05" x2="100.45" y1="93.6" y2="93.6" fill="none" stroke="#787878" stroke-linecap="round" stroke-linejoin="round" stroke-width=".7"/>
  <rect id="connector37pin" x="86.4" y="93.25" width="14.4" height=".7" fill="none" stroke-width="0" connectorname="D1N"/>
  <rect id="connector37terminal" x="100.79" y="93.599" width=".0288" height=".0014" fill="none" stroke-width="0"/>
  <rect x="100.8" y="93.25" width="0" height=".7" fill="none" stroke-width="0"/>
  <text x="85.0003" y="94.2998" fill="#8c8c8c" font-family="Noto Sans" font-size="3.5" text-anchor="end">D1N</text>
  <line x1="86.05" x2="100.45" y1="100.8" y2="100.8" fill="none" stroke="#787878" stroke-linecap="round" stroke-linejoin="round" stroke-width=".7"/>
  <rect id="connector36pin" x="86.4" y="100.45" width="14.4" height=".7" fill="none" stroke-width="0" connectorname="D1P"/>
  <rect id="connector36terminal" x="100.79" y="100.8" width=".0288" height=".0014" fill="none" stroke-width="0"/>
  <rect x="100.8" y="100.45" width="0" height=".7" fill="none" stroke-width="0"/>
  <text x="85.0003" y="101.5" fill="#8c8c8c" font-family="Noto Sans" font-size="3.5" text-anchor="end">D1P</text>
  <line x1="86.05" x2="100.45" y1="108" y2="108" fill="none" stroke="#787878" stroke-linecap="round" stroke-linejoin="round" stroke-width=".7"/>
  <rect id="connector34pin" x="86.4" y="107.65" width="14.4" height=".7" fill="none" stroke-width="0" connectorname="D2N"/>
  <rect id="connector34terminal" x="100.79" y="108" width=".0288" height=".0014" fill="none" stroke-width="0"/>
  <rect x="100.8" y="107.65" width="0" height=".7" fill="none" stroke-width="0"/>
  <text x="85.0003" y="108.7" fill="#8c8c8c" font-family="Noto Sans" font-size="3.5" text-anchor="end">D2N</text>
  <line x1="86.05" x2="100.45" y1="115.2" y2="115.2" fill="none" stroke="#787878" stroke-linecap="round" stroke-linejoin="round" stroke-width=".7"/>
  <rect id="connector33pin" x="86.4" y="114.85" width="14.4" height=".7" fill="none" stroke-width="0" connectorname="D2P"/>
  <rect id="connector33terminal" x="100.79" y="115.2" width=".0288" height=".0014" fill="none" stroke-width="0"/>
  <rect x="100.8" y="114.85" width="0" height=".7" fill="none" stroke-width="0"/>
  <text x="85.0003" y="115.9" fill="#8c8c8c" font-family="Noto Sans" font-size="3.5" text-anchor="end">D2P</text>
  <line x1="86.05" x2="100.45" y1="122.4" y2="122.4" fill="none" stroke="#787878" stroke-linecap="round" stroke-linejoin="round" stroke-width=".7"/>
  <rect id="connector63pin" x="86.4" y="122.05" width="14.4" height=".7" fill="none" stroke-width="0" connectorname="CEC"/>
  <rect id="connector63terminal" x="100.79" y="122.4" width=".0288" height=".0014" fill="none" stroke-width="0"/>
  <rect x="100.8" y="122.05" width="0" height=".7" fill="none" stroke-width="0"/>
  <text x="85.0003" y="123.1" fill="#8c8c8c" font-family="Noto Sans" font-size="3.5" text-anchor="end">CEC</text>
  <line x1="86.05" x2="100.45" y1="129.6" y2="129.6" fill="none" stroke="#787878" stroke-linecap="round" stroke-linejoin="round" stroke-width=".7"/>
  <rect id="connector62pin" x="86.4" y="129.25" width="14.4" height=".7" fill="none" stroke-width="0" connectorname="UTIL"/>
  <rect id="connector62terminal" x="100.79" y="129.6" width=".0288" height=".0014" fill="none" stroke-width="0"/>
  <rect x="100.8" y="129.25" width="0" height=".7" fill="none" stroke-width="0"/>
  <text x="85.0003" y="130.3" fill="#8c8c8c" font-family="Noto Sans" font-size="3.5" text-anchor="end">UTIL</text>
  <line x1="86.05" x2="100.45" y1="136.8" y2="136.8" fill="none" stroke="#787878" stroke-linecap="round" stroke-linejoin="round" stroke-width=".7"/>
  <rect id="connector61pin" x="86.4" y="136.45" width="14.4" height=".7" fill="none" stroke-width="0" connectorname="HPD_3V"/>
  <rect id="connector61terminal" x="100.79" y="136.8" width=".0288" height=".0014" fill="none" stroke-width="0"/>
  <rect x="100.8" y="136.45" width="0" height=".7" fill="none" stroke-width="0"/>
  <text x="85.0003" y="137.5" fill="#8c8c8c" font-family="Noto Sans" font-size="3.5" text-anchor="end">HPD_3V</text>
  <line x1="36" x2="36" y1=".35" y2="14.4" fill="none" stroke="#787878" stroke-linecap="round" stroke-linejoin="round" stroke-width=".7"/>
  <rect id="connector52pin" x="35.65" width=".7" height="14.4" fill="none" stroke-width="0" connectorname="VBUS"/>
  <rect id="connector52terminal" x="35.999" y="-.0144" width=".0014" height=".0288" fill="none" stroke-width="0"/>
  <rect x="35.65" width=".7" height="0" fill="none" stroke-width="0"/>
  <g transform="translate(37.4 16)">
   <g transform="rotate(270)">
    <text fill="#8c8c8c" font-family="Noto Sans" font-size="3.5" text-anchor="end">VBUS</text>
   </g>
  </g>
  <line x1="43.2" x2="43.2" y1=".35" y2="14.4" fill="none" stroke="#787878" stroke-linecap="round" stroke-linejoin="round" stroke-width=".7"/>
  <rect id="connector51pin" x="42.85" width=".7" height="14.4" fill="none" stroke-width="0" connectorname="VSYS"/>
  <rect id="connector51terminal" x="43.199" y="-.0144" width=".0014" height=".0288" fill="none" stroke-width="0"/>
  <rect x="42.85" width=".7" height="0" fill="none" stroke-width="0"/>
  <g transform="translate(44.6 16)">
   <g transform="rotate(270)">
    <text fill="#8c8c8c" font-family="Noto Sans" font-size="3.5" text-anchor="end">VSYS</text>
   </g>
  </g>
  <line x1="50.4" x2="50.4" y1=".35" y2="14.4" fill="none" stroke="#787878" stroke-linecap="round" stroke-linejoin="round" stroke-width=".7"/>
  <rect id="connector48pin" x="50.05" width=".7" height="14.4" fill="none" stroke-width="0" connectorname="3.3V"/>
  <rect id="connector48terminal" x="50.399" y="-.0144" width=".0014" height=".0288" fill="none" stroke-width="0"/>
  <rect x="50.05" width=".7" height="0" fill="none" stroke-width="0"/>
  <g transform="translate(51.8 16)">
   <g transform="rotate(270)">
    <text fill="#8c8c8c" font-family="Noto Sans" font-size="3.5" text-anchor="end">3.3V</text>
   </g>
  </g>
  <line x1="57.6" x2="57.6" y1=".35" y2="14.4" fill="none" stroke="#787878" stroke-linecap="round" stroke-linejoin="round" stroke-width=".7"/>
  <rect id="connector47pin" x="57.25" width=".7" height="14.4" fill="none" stroke-width="0" connectorname="VREF"/>
  <rect id="connector47terminal" x="57.599" y="-.0144" width=".0014" height=".0288" fill="none" stroke-width="0"/>
  <rect x="57.25" width=".7" height="0" fill="none" stroke-width="0"/>
  <g transform="translate(59 16)">
   <g transform="rotate(270)">
    <text fill="#8c8c8c" font-family="Noto Sans" font-size="3.5" text-anchor="end">VREF</text>
   </g>
  </g>
  <line x1="50.4" x2="50.4" y1="158.4" y2="172.45" fill="none" stroke="#787878" stroke-linecap="round" stroke-linejoin="round" stroke-width=".7"/>
  <rect id="connector15pin" x="50.05" y="158.4" width=".7" height="14.4" fill="none" stroke-width="0" connectorname="GND"/>
  <rect id="connector15terminal" x="50.399" y="172.79" width=".0014" height=".0288" fill="none" stroke-width="0"/>
  <rect x="50.05" y="172.8" width=".7" height="0" fill="none" stroke-width="0"/>
  <g transform="translate(51.8 156.8)">
   <g transform="rotate(270)">
    <text fill="#8c8c8c" font-family="Noto Sans" font-size="3.5">GND</text>
   </g>
  </g>
  <rect id="connector68pin" x="35.65" width=".7" height="14.4" fill="none" stroke-width="0" connectorname="VBUS"/>
  <rect id="connector68terminal" x="35.999" y="-.0144" width=".0014" height=".0288" fill="none" stroke-width="0"/>
  <rect x="35.65" width=".7" height="0" fill="none" stroke-width="0"/>
  <rect id="connector64pin" x="42.85" width=".7" height="14.4" fill="none" stroke-width="0" connectorname="VSYS"/>
  <rect id="connector64terminal" x="43.199" y="-.0144" width=".0014" height=".0288" fill="none" stroke-width="0"/>
  <rect x="42.85" width=".7" height="0" fill="none" stroke-width="0"/>
  <rect id="connector69pin" x="42.85" width=".7" height="14.4" fill="none" stroke-width="0" connectorname="VSYS"/>
  <rect id="connector69terminal" x="43.199" y="-.0144" width=".0014" height=".0288" fill="none" stroke-width="0"/>
  <rect x="42.85" width=".7" height="0" fill="none" stroke-width="0"/>
  <rect id="connector72pin" x="50.05" width=".7" height="14.4" fill="none" stroke-width="0" connectorname="3.3V"/>
  <rect id="connector72terminal" x="50.399" y="-.0144" width=".0014" height=".0288" fill="none" stroke-width="0"/>
  <rect x="50.05" width=".7" height="0" fill="none" stroke-width="0"/>
  <rect id="connector54pin" x="50.05" width=".7" height="14.4" fill="none" stroke-width="0" connectorname="3.3V"/>
  <rect id="connector54terminal" x="50.399" y="-.0144" width=".0014" height=".0288" fill="none" stroke-width="0"/>
  <rect x="50.05" width=".7" height="0" fill="none" stroke-width="0"/>
  <rect id="connector73pin" x="57.25" width=".7" height="14.4" fill="none" stroke-width="0" connectorname="VREF"/>
  <rect id="connector73terminal" x="57.599" y="-.0144" width=".0014" height=".0288" fill="none" stroke-width="0"/>
  <rect x="57.25" width=".7" height="0" fill="none" stroke-width="0"/>
  <rect id="connector20pin" x="50.05" y="158.4" width=".7" height="14.4" fill="none" stroke-width="0" connectorname="GND"/>
  <rect id="connector20terminal" x="50.399" y="172.79" width=".0014" height=".0288" fill="none" stroke-width="0"/>
  <rect x="50.05" y="172.8" width=".7" height="0" fill="none" stroke-width="0"/>
  <rect id="connector25pin" x="50.05" y="158.4" width=".7" height="14.4" fill="none" stroke-width="0" connectorname="GND"/>
  <rect id="connector25terminal" x="50.399" y="172.79" width=".0014" height=".0288" fill="none" stroke-width="0"/>
  <rect x="50.05" y="172.8" width=".7" height="0" fill="none" stroke-width="0"/>
  <rect id="connector30pin" x="50.05" y="158.4" width=".7" height="14.4" fill="none" stroke-width="0" connectorname="GND"/>
  <rect id="connector30terminal" x="50.399" y="172.79" width=".0014" height=".0288" fill="none" stroke-width="0"/>
  <rect x="50.05" y="172.8" width=".7" height="0" fill="none" stroke-width="0"/>
  <rect id="connector35pin" x="50.05" y="158.4" width=".7" height="14.4" fill="none" stroke-width="0" connectorname="GND"/>
  <rect id="connector35terminal" x="50.399" y="172.79" width=".0014" height=".0288" fill="none" stroke-width="0"/>
  <rect x="50.05" y="172.8" width=".7" height="0" fill="none" stroke-width="0"/>
  <rect id="connector40pin" x="50.05" y="158.4" width=".7" height="14.4" fill="none" stroke-width="0" connectorname="GND"/>
  <rect id="connector40terminal" x="50.399" y="172.79" width=".0014" height=".0288" fill="none" stroke-width="0"/>
  <rect x="50.05" y="172.8" width=".7" height="0" fill="none" stroke-width="0"/>
  <rect id="connector45pin" x="50.05" y="158.4" width=".7" height="14.4" fill="none" stroke-width="0" connectorname="GND"/>
  <rect id="connector45terminal" x="50.399" y="172.79" width=".0014" height=".0288" fill="none" stroke-width="0"/>
  <rect x="50.05" y="172.8" width=".7" height="0" fill="none" stroke-width="0"/>
  <rect id="connector50pin" x="50.05" y="158.4" width=".7" height="14.4" fill="none" stroke-width="0" connectorname="GND"/>
  <rect id="connector50terminal" x="50.399" y="172.79" width=".0014" height=".0288" fill="none" stroke-width="0"/>
  <rect x="50.05" y="172.8" width=".7" height="0" fill="none" stroke-width="0"/>
  <rect id="connector67pin" x="50.05" y="158.4" width=".7" height="14.4" fill="none" stroke-width="0" connectorname="GND"/>
  <rect id="connector67terminal" x="50.399" y="172.79" width=".0014" height=".0288" fill="none" stroke-width="0"/>
  <rect x="50.05" y="172.8" width=".7" height="0" fill="none" stroke-width="0"/>
  <rect id="connector70pin" x="50.05" y="158.4" width=".7" height="14.4" fill="none" stroke-width="0" connectorname="GND"/>
  <rect id="connector70terminal" x="50.399" y="172.79" width=".0014" height=".0288" fill="none" stroke-width="0"/>
  <rect x="50.05" y="172.8" width=".7" height="0" fill="none" stroke-width="0"/>
  <rect id="connector75pin" x="50.05" y="158.4" width=".7" height="14.4" fill="none" stroke-width="0" connectorname="GND"/>
  <rect id="connector75terminal" x="50.399" y="172.79" width=".0014" height=".0288" fill="none" stroke-width="0"/>
  <rect x="50.05" y="172.8" width=".7" height="0" fill="none" stroke-width="0"/>
  <rect id="connector80pin" x="50.05" y="158.4" width=".7" height="14.4" fill="none" stroke-width="0" connectorname="GND"/>
  <rect id="connector80terminal" x="50.399" y="172.79" width=".0014" height=".0288" fill="none" stroke-width="0"/>
  <rect x="50.05" y="172.8" width=".7" height="0" fill="none" stroke-width="0"/>
  <rect id="connector87pin" x="50.05" y="158.4" width=".7" height="14.4" fill="none" stroke-width="0" connectorname="GND"/>
  <rect id="connector87terminal" x="50.399" y="172.79" width=".0014" height=".0288" fill="none" stroke-width="0"/>
  <rect x="50.05" y="172.8" width=".7" height="0" fill="none" stroke-width="0"/>
  <rect id="connector92pin" x="50.05" y="158.4" width=".7" height="14.4" fill="none" stroke-width="0" connectorname="GND"/>
  <rect id="connector92terminal" x="50.399" y="172.79" width=".0014" height=".0288" fill="none" stroke-width="0"/>
  <rect x="50.05" y="172.8" width=".7" height="0" fill="none" stroke-width="0"/>
  <rect id="connector97pin" x="50.05" y="158.4" width=".7" height="14.4" fill="none" stroke-width="0" connectorname="GND"/>
  <rect id="connector97terminal" x="50.399" y="172.79" width=".0014" height=".0288" fill="none" stroke-width="0"/>
  <rect x="50.05" y="172.8" width=".7" height="0" fill="none" stroke-width="0"/>
  <rect id="connector53pin" x="50.05" y="158.4" width=".7" height="14.4" fill="none" stroke-width="0" connectorname="GND"/>
  <rect id="connector53terminal" x="50.399" y="172.79" width=".0014" height=".0288" fill="none" stroke-width="0"/>
  <rect x="50.05" y="172.8" width=".7" height="0" fill="none" stroke-width="0"/>
  <rect id="connector85pin" y="35.65" width="14.4" height=".7" fill="none" stroke-width="0" connectorName="IO0"/>
  <rect id="connector85terminal" x="-.0144" y="35.999" width=".0288" height=".0014" fill="none" stroke-width="0"/>
  <rect y="35.65" width="0" height=".7" fill="none" stroke-width="0"/>
  <rect id="connector86pin" y="42.85" width="14.4" height=".7" fill="none" stroke-width="0" connectorName="IO1"/>
  <rect id="connector86terminal" x="-.0144" y="43.199" width=".0288" height=".0014" fill="none" stroke-width="0"/>
  <rect y="42.85" width="0" height=".7" fill="none" stroke-width="0"/>
  <rect id="connector88pin" y="50.05" width="14.4" height=".7" fill="none" stroke-width="0" connectorName="IO2"/>
  <rect id="connector88terminal" x="-.0144" y="50.399" width=".0288" height=".0014" fill="none" stroke-width="0"/>
  <rect y="50.05" width="0" height=".7" fill="none" stroke-width="0"/>
  <rect id="connector89pin" y="57.25" width="14.4" height=".7" fill="none" stroke-width="0" connectorName="IO3"/>
  <rect id="connector89terminal" x="-.0144" y="57.599" width=".0288" height=".0014" fill="none" stroke-width="0"/>
  <rect y="57.25" width="0" height=".7" fill="none" stroke-width="0"/>
  <rect id="connector90pin" y="64.45" width="14.4" height=".7" fill="none" stroke-width="0" connectorName="SDA"/>
  <rect id="connector90terminal" x="-.0144" y="64.799" width=".0288" height=".0014" fill="none" stroke-width="0"/>
  <rect y="64.45" width="0" height=".7" fill="none" stroke-width="0"/>
  <rect id="connector55pin" y="64.45" width="14.4" height=".7" fill="none" stroke-width="0" connectorName="SDA"/>
  <rect id="connector55terminal" x="-.0144" y="64.799" width=".0288" height=".0014" fill="none" stroke-width="0"/>
  <rect y="64.45" width="0" height=".7" fill="none" stroke-width="0"/>
  <rect id="connector56pin" y="71.65" width="14.4" height=".7" fill="none" stroke-width="0" connectorName="SCL"/>
  <rect id="connector56terminal" x="-.0144" y="71.999" width=".0288" height=".0014" fill="none" stroke-width="0"/>
  <rect y="71.65" width="0" height=".7" fill="none" stroke-width="0"/>
  <rect id="connector91pin" y="71.65" width="14.4" height=".7" fill="none" stroke-width="0" connectorName="SCL"/>
  <rect id="connector91terminal" x="-.0144" y="71.999" width=".0288" height=".0014" fill="none" stroke-width="0"/>
  <rect y="71.65" width="0" height=".7" fill="none" stroke-width="0"/>
  <rect id="connector93pin" y="78.85" width="14.4" height=".7" fill="none" stroke-width="0" connectorName="D+"/>
  <rect id="connector93terminal" x="-.0144" y="79.199" width=".0288" height=".0014" fill="none" stroke-width="0"/>
  <rect y="78.85" width="0" height=".7" fill="none" stroke-width="0"/>
  <rect id="connector66pin" y="78.85" width="14.4" height=".7" fill="none" stroke-width="0" connectorName="D+"/>
  <rect id="connector66terminal" x="-.0144" y="79.199" width=".0288" height=".0014" fill="none" stroke-width="0"/>
  <rect y="78.85" width="0" height=".7" fill="none" stroke-width="0"/>
  <rect id="connector94pin" y="86.05" width="14.4" height=".7" fill="none" stroke-width="0" connectorName="D-"/>
  <rect id="connector94terminal" x="-.0144" y="86.399" width=".0288" height=".0014" fill="none" stroke-width="0"/>
  <rect y="86.05" width="0" height=".7" fill="none" stroke-width="0"/>
  <rect id="connector65pin" y="86.05" width="14.4" height=".7" fill="none" stroke-width="0" connectorName="D-"/>
  <rect id="connector65terminal" x="-.0144" y="86.399" width=".0288" height=".0014" fill="none" stroke-width="0"/>
  <rect y="86.05" width="0" height=".7" fill="none" stroke-width="0"/>
  <rect id="connector95pin" y="93.25" width="14.4" height=".7" fill="none" stroke-width="0" connectorName="IO8"/>
  <rect id="connector95terminal" x="-.0144" y="93.599" width=".0288" height=".0014" fill="none" stroke-width="0"/>
  <rect y="93.25" width="0" height=".7" fill="none" stroke-width="0"/>
  <rect id="connector96pin" y="100.45" width="14.4" height=".7" fill="none" stroke-width="0" connectorName="IO9"/>
  <rect id="connector96terminal" x="-.0144" y="100.8" width=".0288" height=".0014" fill="none" stroke-width="0"/>
  <rect y="100.45" width="0" height=".7" fill="none" stroke-width="0"/>
  <rect id="connector98pin" y="107.65" width="14.4" height=".7" fill="none" stroke-width="0" connectorName="IO10"/>
  <rect id="connector98terminal" x="-.0144" y="108" width=".0288" height=".0014" fill="none" stroke-width="0"/>
  <rect y="107.65" width="0" height=".7" fill="none" stroke-width="0"/>
  <rect id="connector99pin" y="114.85" width="14.4" height=".7" fill="none" stroke-width="0" connectorName="IO11"/>
  <rect id="connector99terminal" x="-.0144" y="115.2" width=".0288" height=".0014" fill="none" stroke-width="0"/>
  <rect y="114.85" width="0" height=".7" fill="none" stroke-width="0"/>
  <rect id="connector100pin" y="122.05" width="14.4" height=".7" fill="none" stroke-width="0" connectorName="D0P"/>
  <rect id="connector100terminal" x="-.0144" y="122.4" width=".0288" height=".0014" fill="none" stroke-width="0"/>
  <rect y="122.05" width="0" height=".7" fill="none" stroke-width="0"/>
  <rect id="connector101pin" y="129.25" width="14.4" height=".7" fill="none" stroke-width="0" connectorName="D0N"/>
  <rect id="connector101terminal" x="-.0144" y="129.6" width=".0288" height=".0014" fill="none" stroke-width="0"/>
  <rect y="129.25" width="0" height=".7" fill="none" stroke-width="0"/>
  <rect id="connector71pin" x="86.4" y="35.65" width="14.4" height=".7" fill="none" stroke-width="0" connectorname="!EN"/>
  <rect id="connector71terminal" x="100.79" y="35.999" width=".0288" height=".0014" fill="none" stroke-width="0"/>
  <rect x="100.8" y="35.65" width="0" height=".7" fill="none" stroke-width="0"/>
  <rect id="connector74pin" x="86.4" y="42.85" width="14.4" height=".7" fill="none" stroke-width="0" connectorname="AD2"/>
  <rect id="connector74terminal" x="100.79" y="43.199" width=".0288" height=".0014" fill="none" stroke-width="0"/>
  <rect x="100.8" y="42.85" width="0" height=".7" fill="none" stroke-width="0"/>
  <rect id="connector76pin" x="86.4" y="50.05" width="14.4" height=".7" fill="none" stroke-width="0" connectorname="AD1"/>
  <rect id="connector76terminal" x="100.79" y="50.399" width=".0288" height=".0014" fill="none" stroke-width="0"/>
  <rect x="100.8" y="50.05" width="0" height=".7" fill="none" stroke-width="0"/>
  <rect id="connector77pin" x="86.4" y="57.25" width="14.4" height=".7" fill="none" stroke-width="0" connectorname="AD0"/>
  <rect id="connector77terminal" x="100.79" y="57.599" width=".0288" height=".0014" fill="none" stroke-width="0"/>
  <rect x="100.8" y="57.25" width="0" height=".7" fill="none" stroke-width="0"/>
  <rect id="connector78pin" x="86.4" y="64.45" width="14.4" height=".7" fill="none" stroke-width="0" connectorname="!RESET"/>
  <rect id="connector78terminal" x="100.79" y="64.799" width=".0288" height=".0014" fill="none" stroke-width="0"/>
  <rect x="100.8" y="64.45" width="0" height=".7" fill="none" stroke-width="0"/>
  <rect id="connector79pin" x="86.4" y="71.65" width="14.4" height=".7" fill="none" stroke-width="0" connectorname="IO22"/>
  <rect id="connector79terminal" x="100.79" y="71.999" width=".0288" height=".0014" fill="none" stroke-width="0"/>
  <rect x="100.8" y="71.65" width="0" height=".7" fill="none" stroke-width="0"/>
  <rect id="connector81pin" x="86.4" y="78.85" width="14.4" height=".7" fill="none" stroke-width="0" connectorname="IO21"/>
  <rect id="connector81terminal" x="100.79" y="79.199" width=".0288" height=".0014" fill="none" stroke-width="0"/>
  <rect x="100.8" y="78.85" width="0" height=".7" fill="none" stroke-width="0"/>
  <rect id="connector82pin" x="86.4" y="86.05" width="14.4" height=".7" fill="none" stroke-width="0" connectorname="IO20"/>
  <rect id="connector82terminal" x="100.79" y="86.399" width=".0288" height=".0014" fill="none" stroke-width="0"/>
  <rect x="100.8" y="86.05" width="0" height=".7" fill="none" stroke-width="0"/>
  <rect id="connector83pin" x="86.4" y="93.25" width="14.4" height=".7" fill="none" stroke-width="0" connectorname="D1N"/>
  <rect id="connector83terminal" x="100.79" y="93.599" width=".0288" height=".0014" fill="none" stroke-width="0"/>
  <rect x="100.8" y="93.25" width="0" height=".7" fill="none" stroke-width="0"/>
  <rect id="connector84pin" x="86.4" y="100.45" width="14.4" height=".7" fill="none" stroke-width="0" connectorname="D1P"/>
  <rect id="connector84terminal" x="100.79" y="100.8" width=".0288" height=".0014" fill="none" stroke-width="0"/>
  <rect x="100.8" y="100.45" width="0" height=".7" fill="none" stroke-width="0"/>
 </g>
</svg>
