<?xml version="1.0" encoding="UTF-8"?>
<!-- Created with Fritzing (http://www.fritzing.org/) -->
<svg width="1.3in" height="1in" baseProfile="tiny" version="1.2" viewBox="0 0 93.6 72" xmlns="http://www.w3.org/2000/svg">
 <desc>
  <referenceFile>Adafruit RFM9x LoRa Radio_schematic.svg</referenceFile>
 </desc>
 <desc>Fritzing schematic generated by brd2svg</desc>
 <g id="schematic">
  <rect x="14.4" y=".45" width="64.35" height="71.1" fill="none" stroke="#000" stroke-linecap="round" stroke-linejoin="round" stroke-width=".9"/>
  <text id="label" x="46.8" y="29" fill="#000000" font-family="Noto Sans" font-size="3.5" text-anchor="middle"><tspan x="46.8" y="29">Adafruit</tspan> <tspan x="46.8" y="32.5">RFM9x</tspan> <tspan x="46.8" y="36">LoRa</tspan> <tspan x="46.8" y="39.5">Radio</tspan></text>
  <line x1=".35" x2="14.4" y1="7.2" y2="7.2" fill="none" stroke="#787878" stroke-linecap="round" stroke-linejoin="round" stroke-width=".7"/>
  <rect id="connector14pin" y="6.85" width="14.4" height=".7" fill="none" stroke-width="0" connectorName="VIN"/>
  <rect id="connector14terminal" y="6.85" width="0" height=".7" fill="none" stroke-width="0"/>
  <text x="15.8" y="7.89998" fill="#8c8c8c" font-family="Noto Sans" font-size="3.5">VIN</text>
  <line x1=".35" x2="14.4" y1="14.4" y2="14.4" fill="none" stroke="#787878" stroke-linecap="round" stroke-linejoin="round" stroke-width=".7"/>
  <rect id="connector15pin" y="14.05" width="14.4" height=".7" fill="none" stroke-width="0" connectorName="GND"/>
  <rect id="connector15terminal" y="14.05" width="0" height=".7" fill="none" stroke-width="0"/>
  <text x="15.8" y="15.1" fill="#8c8c8c" font-family="Noto Sans" font-size="3.5">GND</text>
  <line x1=".35" x2="14.4" y1="21.6" y2="21.6" fill="none" stroke="#787878" stroke-linecap="round" stroke-linejoin="round" stroke-width=".7"/>
  <rect id="connector16pin" y="21.25" width="14.4" height=".7" fill="none" stroke-width="0" connectorName="EN"/>
  <rect id="connector16terminal" y="21.25" width="0" height=".7" fill="none" stroke-width="0"/>
  <text x="15.8" y="22.3" fill="#8c8c8c" font-family="Noto Sans" font-size="3.5">EN</text>
  <line x1=".35" x2="14.4" y1="28.8" y2="28.8" fill="none" stroke="#787878" stroke-linecap="round" stroke-linejoin="round" stroke-width=".7"/>
  <rect id="connector17pin" y="28.45" width="14.4" height=".7" fill="none" stroke-width="0" connectorName="DIO0"/>
  <rect id="connector17terminal" y="28.45" width="0" height=".7" fill="none" stroke-width="0"/>
  <text x="15.8" y="29.5" fill="#8c8c8c" font-family="Noto Sans" font-size="3.5">DIO0</text>
  <line x1=".35" x2="14.4" y1="36" y2="36" fill="none" stroke="#787878" stroke-linecap="round" stroke-linejoin="round" stroke-width=".7"/>
  <rect id="connector18pin" y="35.65" width="14.4" height=".7" fill="none" stroke-width="0" connectorName="SCK"/>
  <rect id="connector18terminal" y="35.65" width="0" height=".7" fill="none" stroke-width="0"/>
  <text x="15.8" y="36.7" fill="#8c8c8c" font-family="Noto Sans" font-size="3.5">SCK</text>
  <line x1=".35" x2="14.4" y1="43.2" y2="43.2" fill="none" stroke="#787878" stroke-linecap="round" stroke-linejoin="round" stroke-width=".7"/>
  <rect id="connector19pin" y="42.85" width="14.4" height=".7" fill="none" stroke-width="0" connectorName="MISO"/>
  <rect id="connector19terminal" y="42.85" width="0" height=".7" fill="none" stroke-width="0"/>
  <text x="15.8" y="43.9" fill="#8c8c8c" font-family="Noto Sans" font-size="3.5">MISO</text>
  <line x1=".35" x2="14.4" y1="50.4" y2="50.4" fill="none" stroke="#787878" stroke-linecap="round" stroke-linejoin="round" stroke-width=".7"/>
  <rect id="connector20pin" y="50.05" width="14.4" height=".7" fill="none" stroke-width="0" connectorName="MOSI"/>
  <rect id="connector20terminal" y="50.05" width="0" height=".7" fill="none" stroke-width="0"/>
  <text x="15.8" y="51.1" fill="#8c8c8c" font-family="Noto Sans" font-size="3.5">MOSI</text>
  <line x1=".35" x2="14.4" y1="57.6" y2="57.6" fill="none" stroke="#787878" stroke-linecap="round" stroke-linejoin="round" stroke-width=".7"/>
  <rect id="connector21pin" y="57.25" width="14.4" height=".7" fill="none" stroke-width="0" connectorName="CS"/>
  <rect id="connector21terminal" y="57.25" width="0" height=".7" fill="none" stroke-width="0"/>
  <text x="15.8" y="58.3" fill="#8c8c8c" font-family="Noto Sans" font-size="3.5">CS</text>
  <line x1=".35" x2="14.4" y1="64.8" y2="64.8" fill="none" stroke="#787878" stroke-linecap="round" stroke-linejoin="round" stroke-width=".7"/>
  <rect id="connector22pin" y="64.45" width="14.4" height=".7" fill="none" stroke-width="0" connectorName="RST"/>
  <rect id="connector22terminal" y="64.45" width="0" height=".7" fill="none" stroke-width="0"/>
  <text x="15.8" y="65.5" fill="#8c8c8c" font-family="Noto Sans" font-size="3.5">RST</text>
  <line x1="78.85" x2="93.25" y1="7.2" y2="7.2" fill="none" stroke="#787878" stroke-linecap="round" stroke-linejoin="round" stroke-width=".7"/>
  <rect id="connector8pin" x="79.2" y="6.85" width="14.4" height=".7" fill="none" stroke-width="0" connectorname="DIO1"/>
  <rect id="connector8terminal" x="93.6" y="6.85" width="0" height=".7" fill="none" stroke-width="0"/>
  <text x="77.8003" y="7.89998" fill="#8c8c8c" font-family="Noto Sans" font-size="3.5" text-anchor="end">DIO1</text>
  <line x1="78.85" x2="93.25" y1="14.4" y2="14.4" fill="none" stroke="#787878" stroke-linecap="round" stroke-linejoin="round" stroke-width=".7"/>
  <rect id="connector9pin" x="79.2" y="14.05" width="14.4" height=".7" fill="none" stroke-width="0" connectorname="DIO2"/>
  <rect id="connector9terminal" x="93.6" y="14.05" width="0" height=".7" fill="none" stroke-width="0"/>
  <text x="77.8003" y="15.1" fill="#8c8c8c" font-family="Noto Sans" font-size="3.5" text-anchor="end">DIO2</text>
  <line x1="78.85" x2="93.25" y1="21.6" y2="21.6" fill="none" stroke="#787878" stroke-linecap="round" stroke-linejoin="round" stroke-width=".7"/>
  <rect id="connector10pin" x="79.2" y="21.25" width="14.4" height=".7" fill="none" stroke-width="0" connectorname="DIO3"/>
  <rect id="connector10terminal" x="93.6" y="21.25" width="0" height=".7" fill="none" stroke-width="0"/>
  <text x="77.8003" y="22.3" fill="#8c8c8c" font-family="Noto Sans" font-size="3.5" text-anchor="end">DIO3</text>
  <line x1="78.85" x2="93.25" y1="28.8" y2="28.8" fill="none" stroke="#787878" stroke-linecap="round" stroke-linejoin="round" stroke-width=".7"/>
  <rect id="connector12pin" x="79.2" y="28.45" width="14.4" height=".7" fill="none" stroke-width="0" connectorname="DIO5"/>
  <rect id="connector12terminal" x="93.6" y="28.45" width="0" height=".7" fill="none" stroke-width="0"/>
  <text x="77.8003" y="29.5" fill="#8c8c8c" font-family="Noto Sans" font-size="3.5" text-anchor="end">DIO5</text>
  <line x1="78.85" x2="93.25" y1="36" y2="36" fill="none" stroke="#787878" stroke-linecap="round" stroke-linejoin="round" stroke-width=".7"/>
  <rect id="connector11pin" x="79.2" y="35.65" width="14.4" height=".7" fill="none" stroke-width="0" connectorname="DIO4"/>
  <rect id="connector11terminal" x="93.6" y="35.65" width="0" height=".7" fill="none" stroke-width="0"/>
  <text x="77.8003" y="36.7" fill="#8c8c8c" font-family="Noto Sans" font-size="3.5" text-anchor="end">DIO4</text>
  <line x1="78.85" x2="93.25" y1="43.2" y2="43.2" fill="none" stroke="#787878" stroke-linecap="round" stroke-linejoin="round" stroke-width=".7"/>
  <rect id="connector13pin" x="79.2" y="42.85" width="14.4" height=".7" fill="none" stroke-width="0" connectorname="ANTENNA"/>
  <rect id="connector13terminal" x="93.6" y="42.85" width="0" height=".7" fill="none" stroke-width="0"/>
  <text x="77.8003" y="43.9" fill="#8c8c8c" font-family="Noto Sans" font-size="3.5" text-anchor="end">ANTENNA</text>
 </g>
</svg>
