<?xml version="1.0" encoding="UTF-8"?>
<!DOCTYPE svg>
<!-- Generator: Adobe Illustrator 26.2.1, SVG Export Plug-In . SVG Version: 6.00 Build 0)  -->
<svg width="1.3in" height="1in" enable-background="new 0 0 93.6 72" version="1.1" viewBox="0 0 93.6 72" xml:space="preserve" xmlns="http://www.w3.org/2000/svg" xmlns:xml="http://www.w3.org/XML/1998/namespace">
    <desc>
        <referenceFile>Adafruit QT 5-3V Shifter_schematic.svg</referenceFile>
    </desc>
    <metadata>
        <sfw>
            <slices/>
            <sliceSourceBounds x="0" y="0" width="93.6001" height="72" bottomLeftOrigin="true"/>
        </sfw>
    </metadata>
    <desc>Fritzing schematic generated by brd2svg</desc>
    <g id="schematic">
        <rect x="14.4" y="14.4" width="64.35" height="43.2" fill="none" stroke="#000" stroke-linecap="round" stroke-linejoin="round" stroke-width=".9"/>
        <g transform="translate(40.366 29.535)">
            <text id="label" font-family="Noto Sans" font-size="2.8">Adafruit</text>
        </g>
        <g transform="translate(44.581 33.035)">
            <text font-family="Noto Sans" font-size="2.8">QT</text>
        </g>
        <g transform="translate(40.589 36.35)">
            <text font-family="Noto Sans" font-size="2.8">5V to 3V</text>
        </g>
        <g transform="translate(41.539 40.07)">
            <g enable-background="new    " font-family="Noto Sans" font-size="2.8">
                <text>Shifter</text>
                <text x="-1.957" y="4.2002">Breakout</text>
            </g>
        </g>
        <line x1=".35" x2="14.4" y1="28.8" y2="28.8" fill="none" stroke="#787878" stroke-linecap="round" stroke-linejoin="round" stroke-width=".7"/>
        <rect id="connector14pin" y="28.45" width="14.4" height=".7" fill="none"/>
        <rect id="connector14terminal" y="28.45" width="0" height=".7" fill="none"/>
        <g transform="translate(15.8 29.5)">
            <text fill="#8C8C8C" font-family="Noto Sans" font-size="2.8">SCL</text>
        </g>
        <line x1=".35" x2="14.4" y1="36" y2="36" fill="none" stroke="#787878" stroke-linecap="round" stroke-linejoin="round" stroke-width=".7"/>
        <rect id="connector13pin" y="35.65" width="14.4" height=".7" fill="none"/>
        <rect id="connector13terminal" y="35.65" width="0" height=".7" fill="none"/>
        <g transform="translate(15.8 36.7)">
            <text fill="#8C8C8C" font-family="Noto Sans" font-size="2.8">SDA</text>
        </g>
        <line x1="78.85" x2="93.25" y1="28.8" y2="28.8" fill="none" stroke="#787878" stroke-linecap="round" stroke-linejoin="round" stroke-width=".7"/>
        <rect id="connector20pin" x="79.2" y="28.45" width="14.4" height=".7" fill="none"/>
        <rect id="connector20terminal" x="93.6" y="28.45" width="0" height=".7" fill="none"/>
        <g transform="translate(66.8 29.5)">
            <text fill="#8C8C8C" font-family="Noto Sans" font-size="2.8">SCL_3V</text>
        </g>
        <line x1="78.85" x2="93.25" y1="36" y2="36" fill="none" stroke="#787878" stroke-linecap="round" stroke-linejoin="round" stroke-width=".7"/>
        <rect id="connector19pin" x="79.2" y="35.65" width="14.4" height=".7" fill="none"/>
        <rect id="connector19terminal" x="93.6" y="35.65" width="0" height=".7" fill="none"/>
        <g transform="translate(66.142 36.7)">
            <text fill="#8C8C8C" font-family="Noto Sans" font-size="2.8">SDA_3V</text>
        </g>
        <line x1="43.2" x2="43.2" y1=".35" y2="14.4" fill="none" stroke="#787878" stroke-linecap="round" stroke-linejoin="round" stroke-width=".7"/>
        <rect id="connector12pin" x="42.85" width=".7" height="14.4" fill="none"/>
        <polygon id="connector12terminal" points="42.85 0 43.55 0 43.55 0" fill="none"/>
        <g transform="translate(44.6 16)">
            
                <g transform="rotate(270)">
                    
                        <g transform="translate(-6.0684 -2.2414e-5)">
                            <text fill="#8C8C8C" font-family="Noto Sans" font-size="2.8">VCC</text>
                        </g>
                    
                </g>
            
        </g>
        <line x1="50.4" x2="50.4" y1=".35" y2="14.4" fill="none" stroke="#787878" stroke-linecap="round" stroke-linejoin="round" stroke-width=".7"/>
        <rect id="connector18pin" x="50.05" width=".7" height="14.4" fill="none"/>
        <polygon id="connector18terminal" points="50.05 0 50.75 0 50.75 0" fill="none"/>
        <g transform="translate(51.8 16)">
            
                <g transform="rotate(270)">
                    
                        <g transform="translate(-6.7812 -1.1207e-5)">
                            <text fill="#8C8C8C" font-family="Noto Sans" font-size="2.8">3.3V</text>
                        </g>
                    
                </g>
            
        </g>
        <line x1="43.2" x2="43.2" y1="57.6" y2="71.65" fill="none" stroke="#787878" stroke-linecap="round" stroke-linejoin="round" stroke-width=".7"/>
        <rect id="connector11pin" x="42.85" y="57.6" width=".7" height="14.4" fill="none"/>
        <polygon id="connector11terminal" points="42.85 72 43.55 72 43.55 72" fill="none"/>
        <g transform="translate(44.6 56)">
            
                <g transform="rotate(270)">
                    
                        <g transform="translate(0 -2.2414e-5)">
                            <text fill="#8C8C8C" font-family="Noto Sans" font-size="2.8">GND</text>
                        </g>
                    
                </g>
            
        </g>
        <rect id="connector27pin" x="42.85" width=".7" height="14.4" fill="none"/>
        <polygon id="connector27terminal" points="42.85 0 43.55 0 43.55 0" fill="none"/>
        <rect id="connector32pin" x="42.85" width=".7" height="14.4" fill="none"/>
        <polygon id="connector32terminal" points="42.85 0 43.55 0 43.55 0" fill="none"/>
        <rect id="connector33pin" x="50.05" width=".7" height="14.4" fill="none"/>
        <polygon id="connector33terminal" points="50.05 0 50.75 0 50.75 0" fill="none"/>
        <rect id="connector28pin" x="50.05" width=".7" height="14.4" fill="none"/>
        <polygon id="connector28terminal" points="50.05 0 50.75 0 50.75 0" fill="none"/>
        <rect id="connector29pin" x="42.85" y="57.6" width=".7" height="14.4" fill="none"/>
        <polygon id="connector29terminal" points="42.85 72 43.55 72 43.55 72" fill="none"/>
        <rect id="connector34pin" x="42.85" y="57.6" width=".7" height="14.4" fill="none"/>
        <polygon id="connector34terminal" points="42.85 72 43.55 72 43.55 72" fill="none"/>
        <rect id="connector17pin" x="42.85" y="57.6" width=".7" height="14.4" fill="none"/>
        <polygon id="connector17terminal" points="42.85 72 43.55 72 43.55 72" fill="none"/>
        <rect id="connector30pin" y="28.45" width="14.4" height=".7" fill="none"/>
        <rect id="connector30terminal" y="28.45" width="0" height=".7" fill="none"/>
        <rect id="connector31pin" y="35.65" width="14.4" height=".7" fill="none"/>
        <rect id="connector31terminal" y="35.65" width="0" height=".7" fill="none"/>
        <rect id="connector35pin" x="79.2" y="28.45" width="14.4" height=".7" fill="none"/>
        <rect id="connector35terminal" x="93.6" y="28.45" width="0" height=".7" fill="none"/>
        <rect id="connector36pin" x="79.2" y="35.65" width="14.4" height=".7" fill="none"/>
        <rect id="connector36terminal" x="93.6" y="35.65" width="0" height=".7" fill="none"/>
    </g>
</svg>
