<?xml version="1.0" encoding="UTF-8"?>
<!-- Created with Fritzing (http://www.fritzing.org/) -->
<svg width="1.3in" height="1.3in" baseProfile="tiny" version="1.2" viewBox="0 0 93.6 93.6" xmlns="http://www.w3.org/2000/svg">
 <desc>
  <referenceFile>Adafruit Sparkle Motion WLED Friend_schematic.svg</referenceFile>
 </desc>
 <desc>Fritzing schematic generated by brd2svg</desc>
 <g id="schematic">
  <rect x="14.4" y="14.4" width="64.35" height="64.8" fill="none" stroke="#000" stroke-linecap="round" stroke-linejoin="round" stroke-width=".9"/>
  <text id="label" x="46.8" y="32.7" fill="#000000" font-family="Noto Sans" font-size="3.5" text-anchor="middle"><tspan x="46.8" y="32.7">Adafruit</tspan> <tspan x="46.8" y="36.2">Sparkle</tspan> <tspan x="46.8" y="39.7">Motion</tspan> <tspan x="46.8" y="43.2">WLED</tspan> <tspan x="46.8" y="46.7">Friend</tspan></text>
  <line x1=".35" x2="14.4" y1="28.8" y2="28.8" fill="none" stroke="#787878" stroke-linecap="round" stroke-linejoin="round" stroke-width=".7"/>
  <rect id="connector96pin" y="28.45" width="14.4" height=".7" fill="none" stroke-width="0" connectorName="IO10"/>
  <rect id="connector96terminal" y="28.45" width="0" height=".7" fill="none" stroke-width="0"/>
  <text x="15.8" y="29.5" fill="#8c8c8c" font-family="Noto Sans" font-size="3.5">IO10</text>
  <line x1=".35" x2="14.4" y1="36" y2="36" fill="none" stroke="#787878" stroke-linecap="round" stroke-linejoin="round" stroke-width=".7"/>
  <rect id="connector97pin" y="35.65" width="14.4" height=".7" fill="none" stroke-width="0" connectorName="IO18"/>
  <rect id="connector97terminal" y="35.65" width="0" height=".7" fill="none" stroke-width="0"/>
  <text x="15.8" y="36.7" fill="#8c8c8c" font-family="Noto Sans" font-size="3.5">IO18</text>
  <line x1=".35" x2="14.4" y1="43.2" y2="43.2" fill="none" stroke="#787878" stroke-linecap="round" stroke-linejoin="round" stroke-width=".7"/>
  <rect id="connector95pin" y="42.85" width="14.4" height=".7" fill="none" stroke-width="0" connectorName="IO9"/>
  <rect id="connector95terminal" y="42.85" width="0" height=".7" fill="none" stroke-width="0"/>
  <text x="15.8" y="43.9" fill="#8c8c8c" font-family="Noto Sans" font-size="3.5">IO9</text>
  <line x1=".35" x2="14.4" y1="50.4" y2="50.4" fill="none" stroke="#787878" stroke-linecap="round" stroke-linejoin="round" stroke-width=".7"/>
  <rect id="connector37pin" y="50.05" width="14.4" height=".7" fill="none" stroke-width="0" connectorName="SDA"/>
  <rect id="connector37terminal" y="50.05" width="0" height=".7" fill="none" stroke-width="0"/>
  <text x="15.8" y="51.1" fill="#8c8c8c" font-family="Noto Sans" font-size="3.5">SDA</text>
  <line x1=".35" x2="14.4" y1="57.6" y2="57.6" fill="none" stroke="#787878" stroke-linecap="round" stroke-linejoin="round" stroke-width=".7"/>
  <rect id="connector38pin" y="57.25" width="14.4" height=".7" fill="none" stroke-width="0" connectorName="SCL"/>
  <rect id="connector38terminal" y="57.25" width="0" height=".7" fill="none" stroke-width="0"/>
  <text x="15.8" y="58.3" fill="#8c8c8c" font-family="Noto Sans" font-size="3.5">SCL</text>
  <line x1=".35" x2="14.4" y1="64.8" y2="64.8" fill="none" stroke="#787878" stroke-linecap="round" stroke-linejoin="round" stroke-width=".7"/>
  <rect id="connector193pin" y="64.45" width="14.4" height=".7" fill="none" stroke-width="0" connectorName="SENSOR"/>
  <rect id="connector193terminal" y="64.45" width="0" height=".7" fill="none" stroke-width="0"/>
  <text x="15.8" y="65.5" fill="#8c8c8c" font-family="Noto Sans" font-size="3.5">SENSOR</text>
  <line x1="78.85" x2="93.25" y1="28.8" y2="28.8" fill="none" stroke="#787878" stroke-linecap="round" stroke-linejoin="round" stroke-width=".7"/>
  <rect id="connector98pin" x="79.2" y="28.45" width="14.4" height=".7" fill="none" stroke-width="0" connectorname="S4"/>
  <rect id="connector98terminal" x="93.6" y="28.45" width="0" height=".7" fill="none" stroke-width="0"/>
  <text x="77.8003" y="29.5" fill="#8c8c8c" font-family="Noto Sans" font-size="3.5" text-anchor="end">S4</text>
  <line x1="78.85" x2="93.25" y1="36" y2="36" fill="none" stroke="#787878" stroke-linecap="round" stroke-linejoin="round" stroke-width=".7"/>
  <rect id="connector85pin" x="79.2" y="35.65" width="14.4" height=".7" fill="none" stroke-width="0" connectorname="S3"/>
  <rect id="connector85terminal" x="93.6" y="35.65" width="0" height=".7" fill="none" stroke-width="0"/>
  <text x="77.8003" y="36.7" fill="#8c8c8c" font-family="Noto Sans" font-size="3.5" text-anchor="end">S3</text>
  <line x1="78.85" x2="93.25" y1="43.2" y2="43.2" fill="none" stroke="#787878" stroke-linecap="round" stroke-linejoin="round" stroke-width=".7"/>
  <rect id="connector88pin" x="79.2" y="42.85" width="14.4" height=".7" fill="none" stroke-width="0" connectorname="S2"/>
  <rect id="connector88terminal" x="93.6" y="42.85" width="0" height=".7" fill="none" stroke-width="0"/>
  <text x="77.8003" y="43.9" fill="#8c8c8c" font-family="Noto Sans" font-size="3.5" text-anchor="end">S2</text>
  <line x1="78.85" x2="93.25" y1="50.4" y2="50.4" fill="none" stroke="#787878" stroke-linecap="round" stroke-linejoin="round" stroke-width=".7"/>
  <rect id="connector91pin" x="79.2" y="50.05" width="14.4" height=".7" fill="none" stroke-width="0" connectorname="S1"/>
  <rect id="connector91terminal" x="93.6" y="50.05" width="0" height=".7" fill="none" stroke-width="0"/>
  <text x="77.8003" y="51.1" fill="#8c8c8c" font-family="Noto Sans" font-size="3.5" text-anchor="end">S1</text>
  <line x1="43.2" x2="43.2" y1=".35" y2="14.4" fill="none" stroke="#787878" stroke-linecap="round" stroke-linejoin="round" stroke-width=".7"/>
  <rect id="connector86pin" x="42.85" width=".7" height="14.4" fill="none" stroke-width="0" connectorname="+24V"/>
  <rect id="connector86terminal" x="42.85" width=".7" height="0" fill="none" stroke-width="0"/>
  <g transform="translate(44.6 16)">
   <g transform="rotate(270)">
    <text fill="#8c8c8c" font-family="Noto Sans" font-size="3.5" text-anchor="end">+24V</text>
   </g>
  </g>
  <line x1="50.4" x2="50.4" y1=".35" y2="14.4" fill="none" stroke="#787878" stroke-linecap="round" stroke-linejoin="round" stroke-width=".7"/>
  <rect id="connector36pin" x="50.05" width=".7" height="14.4" fill="none" stroke-width="0" connectorname="3.3V"/>
  <rect id="connector36terminal" x="50.05" width=".7" height="0" fill="none" stroke-width="0"/>
  <g transform="translate(51.8 16)">
   <g transform="rotate(270)">
    <text fill="#8c8c8c" font-family="Noto Sans" font-size="3.5" text-anchor="end">3.3V</text>
   </g>
  </g>
  <line x1="43.2" x2="43.2" y1="79.2" y2="93.25" fill="none" stroke="#787878" stroke-linecap="round" stroke-linejoin="round" stroke-width=".7"/>
  <rect id="connector35pin" x="42.85" y="79.2" width=".7" height="14.4" fill="none" stroke-width="0" connectorname="GND"/>
  <rect id="connector35terminal" x="42.85" y="93.6" width=".7" height="0" fill="none" stroke-width="0"/>
  <g transform="translate(44.6 77.6)">
   <g transform="rotate(270)">
    <text fill="#8c8c8c" font-family="Noto Sans" font-size="3.5">GND</text>
   </g>
  </g>
  <rect id="connector89pin" x="42.85" width=".7" height="14.4" fill="none" stroke-width="0" connectorname="+24V"/>
  <rect id="connector89terminal" x="42.85" width=".7" height="0" fill="none" stroke-width="0"/>
  <rect id="connector92pin" x="42.85" width=".7" height="14.4" fill="none" stroke-width="0" connectorname="+24V"/>
  <rect id="connector92terminal" x="42.85" width=".7" height="0" fill="none" stroke-width="0"/>
  <rect id="connector94pin" x="50.05" width=".7" height="14.4" fill="none" stroke-width="0" connectorname="3.3V"/>
  <rect id="connector94terminal" x="50.05" width=".7" height="0" fill="none" stroke-width="0"/>
  <rect id="connector194pin" x="50.05" width=".7" height="14.4" fill="none" stroke-width="0" connectorname="3.3V"/>
  <rect id="connector194terminal" x="50.05" width=".7" height="0" fill="none" stroke-width="0"/>
  <rect id="connector84pin" x="42.85" y="79.2" width=".7" height="14.4" fill="none" stroke-width="0" connectorname="GND"/>
  <rect id="connector84terminal" x="42.85" y="93.6" width=".7" height="0" fill="none" stroke-width="0"/>
  <rect id="connector87pin" x="42.85" y="79.2" width=".7" height="14.4" fill="none" stroke-width="0" connectorname="GND"/>
  <rect id="connector87terminal" x="42.85" y="93.6" width=".7" height="0" fill="none" stroke-width="0"/>
  <rect id="connector90pin" x="42.85" y="79.2" width=".7" height="14.4" fill="none" stroke-width="0" connectorname="GND"/>
  <rect id="connector90terminal" x="42.85" y="93.6" width=".7" height="0" fill="none" stroke-width="0"/>
  <rect id="connector93pin" x="42.85" y="79.2" width=".7" height="14.4" fill="none" stroke-width="0" connectorname="GND"/>
  <rect id="connector93terminal" x="42.85" y="93.6" width=".7" height="0" fill="none" stroke-width="0"/>
  <rect id="connector195pin" x="42.85" y="79.2" width=".7" height="14.4" fill="none" stroke-width="0" connectorname="GND"/>
  <rect id="connector195terminal" x="43.549" y="46.786" width=".0014" height=".0288" fill="none" stroke-width="0"/>
  <rect x="42.85" y="93.6" width=".7" height="0" fill="none" stroke-width="0"/>
 </g>
</svg>
