<?xml version="1.0" encoding="UTF-8"?>
<!DOCTYPE svg>
<!-- Generator: Adobe Illustrator 26.2.1, SVG Export Plug-In . SVG Version: 6.00 Build 0)  -->
<svg width="1.3in" height="2.2in" enable-background="new 0 0 93.6 158.4" version="1.1" viewBox="0 0 93.6 158.4" xml:space="preserve" xmlns="http://www.w3.org/2000/svg" xmlns:xml="http://www.w3.org/XML/1998/namespace">
    <desc>
        <referenceFile>ESP32-S2 reverse TFT Rev D_schematic.svg</referenceFile>
    </desc>
    <metadata>
        <sfw>
            <slices/>
            <sliceSourceBounds x="0" y="0" width="93.6001" height="158.4" bottomLeftOrigin="true"/>
        </sfw>
    </metadata>
    <desc>Fritzing schematic generated by brd2svg</desc>
    <g id="schematic">
        <rect x="14.4" y="14.4" width="64.35" height="129.6" fill="none" stroke="#000" stroke-linecap="round" stroke-linejoin="round" stroke-width=".9"/>
        <g transform="translate(39.597 68.7)">
            <text id="label" font-family="Noto Sans" font-size="2.8">ESP32-S2</text>
        </g>
        <g transform="translate(40.966 72.2)">
            <text font-family="Noto Sans" font-size="2.8">Reverse</text>
        </g>
        <g transform="translate(44.124 75.7)">
            <text font-family="Noto Sans" font-size="2.8">TFT</text>
        </g>
        <g transform="translate(41.306 78.85)">
            <text font-family="Noto Sans" font-size="2.8">Feather</text>
        </g>
        <g transform="translate(40.54 65.535)">
            <text font-family="Noto Sans" font-size="2.8">Adafruit</text>
        </g>
        <line x1=".35" x2="14.4" y1="43.2" y2="43.2" fill="none" stroke="#787878" stroke-linecap="round" stroke-linejoin="round" stroke-width=".7"/>
        <rect id="connector56pin" y="42.85" width="14.4" height=".7" fill="none"/>
        <rect id="connector56terminal" y="42.85" width="0" height=".7" fill="none"/>
        <g transform="translate(15.8 43.9)">
            <text fill="#8C8C8C" font-family="Noto Sans" font-size="2.8">RESET</text>
        </g>
        <line x1=".35" x2="14.4" y1="50.4" y2="50.4" fill="none" stroke="#787878" stroke-linecap="round" stroke-linejoin="round" stroke-width=".7"/>
        <rect id="connector52pin" y="50.05" width="14.4" height=".7" fill="none"/>
        <rect id="connector52terminal" y="50.05" width="0" height=".7" fill="none"/>
        <g transform="translate(15.8 51.1)">
            <text fill="#8C8C8C" font-family="Noto Sans" font-size="2.8">A0</text>
        </g>
        <line x1=".35" x2="14.4" y1="57.6" y2="57.6" fill="none" stroke="#787878" stroke-linecap="round" stroke-linejoin="round" stroke-width=".7"/>
        <rect id="connector51pin" y="57.25" width="14.4" height=".7" fill="none"/>
        <rect id="connector51terminal" y="57.25" width="0" height=".7" fill="none"/>
        <g transform="translate(15.8 58.3)">
            <text fill="#8C8C8C" font-family="Noto Sans" font-size="2.8">A1</text>
        </g>
        <line x1=".35" x2="14.4" y1="64.8" y2="64.8" fill="none" stroke="#787878" stroke-linecap="round" stroke-linejoin="round" stroke-width=".7"/>
        <rect id="connector50pin" y="64.45" width="14.4" height=".7" fill="none"/>
        <rect id="connector50terminal" y="64.45" width="0" height=".7" fill="none"/>
        <g transform="translate(15.8 65.5)">
            <text fill="#8C8C8C" font-family="Noto Sans" font-size="2.8">A2</text>
        </g>
        <line x1=".35" x2="14.4" y1="72" y2="72" fill="none" stroke="#787878" stroke-linecap="round" stroke-linejoin="round" stroke-width=".7"/>
        <rect id="connector49pin" y="71.65" width="14.4" height=".7" fill="none"/>
        <rect id="connector49terminal" y="71.65" width="0" height=".7" fill="none"/>
        <g transform="translate(15.8 72.7)">
            <text fill="#8C8C8C" font-family="Noto Sans" font-size="2.8">A3</text>
        </g>
        <line x1=".35" x2="14.4" y1="79.2" y2="79.2" fill="none" stroke="#787878" stroke-linecap="round" stroke-linejoin="round" stroke-width=".7"/>
        <rect id="connector48pin" y="78.85" width="14.4" height=".7" fill="none"/>
        <rect id="connector48terminal" y="78.85" width="0" height=".7" fill="none"/>
        <g transform="translate(15.8 79.9)">
            <text fill="#8C8C8C" font-family="Noto Sans" font-size="2.8">A4</text>
        </g>
        <line x1=".35" x2="14.4" y1="86.4" y2="86.4" fill="none" stroke="#787878" stroke-linecap="round" stroke-linejoin="round" stroke-width=".7"/>
        <rect id="connector47pin" y="86.05" width="14.4" height=".7" fill="none"/>
        <rect id="connector47terminal" y="86.05" width="0" height=".7" fill="none"/>
        <g transform="translate(15.8 87.1)">
            <text fill="#8C8C8C" font-family="Noto Sans" font-size="2.8">A5</text>
        </g>
        <line x1=".35" x2="14.4" y1="93.6" y2="93.6" fill="none" stroke="#787878" stroke-linecap="round" stroke-linejoin="round" stroke-width=".7"/>
        <rect id="connector46pin" y="93.25" width="14.4" height=".7" fill="none"/>
        <rect id="connector46terminal" y="93.25" width="0" height=".7" fill="none"/>
        <g transform="translate(15.8 94.3)">
            <text fill="#8C8C8C" font-family="Noto Sans" font-size="2.8">SCK</text>
        </g>
        <line x1=".35" x2="14.4" y1="100.8" y2="100.8" fill="none" stroke="#787878" stroke-linecap="round" stroke-linejoin="round" stroke-width=".7"/>
        <rect id="connector45pin" y="100.45" width="14.4" height=".7" fill="none"/>
        <rect id="connector45terminal" y="100.45" width="0" height=".7" fill="none"/>
        <g transform="translate(15.8 101.5)">
            <text fill="#8C8C8C" font-family="Noto Sans" font-size="2.8">MOSI</text>
        </g>
        <line x1=".35" x2="14.4" y1="108" y2="108" fill="none" stroke="#787878" stroke-linecap="round" stroke-linejoin="round" stroke-width=".7"/>
        <rect id="connector44pin" y="107.65" width="14.4" height=".7" fill="none"/>
        <rect id="connector44terminal" y="107.65" width="0" height=".7" fill="none"/>
        <g transform="translate(15.8 108.7)">
            <text fill="#8C8C8C" font-family="Noto Sans" font-size="2.8">MISO</text>
        </g>
        <line x1=".35" x2="14.4" y1="115.2" y2="115.2" fill="none" stroke="#787878" stroke-linecap="round" stroke-linejoin="round" stroke-width=".7"/>
        <rect id="connector43pin" y="114.85" width="14.4" height=".7" fill="none"/>
        <rect id="connector43terminal" y="114.85" width="0" height=".7" fill="none"/>
        <g transform="translate(15.8 115.9)">
            <text fill="#8C8C8C" font-family="Noto Sans" font-size="2.8">RX</text>
        </g>
        <line x1=".35" x2="14.4" y1="122.4" y2="122.4" fill="none" stroke="#787878" stroke-linecap="round" stroke-linejoin="round" stroke-width=".7"/>
        <rect id="connector42pin" y="122.05" width="14.4" height=".7" fill="none"/>
        <rect id="connector42terminal" y="122.05" width="0" height=".7" fill="none"/>
        <g transform="translate(15.8 123.1)">
            <text fill="#8C8C8C" font-family="Noto Sans" font-size="2.8">TX</text>
        </g>
        <line x1=".35" x2="14.4" y1="129.6" y2="129.6" fill="none" stroke="#787878" stroke-linecap="round" stroke-linejoin="round" stroke-width=".7"/>
        <rect id="connector41pin" y="129.25" width="14.4" height=".7" fill="none"/>
        <rect id="connector41terminal" y="129.25" width="0" height=".7" fill="none"/>
        <g transform="translate(15.8 130.3)">
            <text fill="#8C8C8C" font-family="Noto Sans" font-size="2.8">TXD0</text>
        </g>
        <line x1="78.85" x2="93.25" y1="43.2" y2="43.2" fill="none" stroke="#787878" stroke-linecap="round" stroke-linejoin="round" stroke-width=".7"/>
        <rect id="connector58pin" x="79.2" y="42.85" width="14.4" height=".7" fill="none"/>
        <rect id="connector58terminal" x="93.6" y="42.85" width="0" height=".7" fill="none"/>
        <g transform="translate(73.401 43.9)">
            <text fill="#8C8C8C" font-family="Noto Sans" font-size="2.8">EN</text>
        </g>
        <line x1="78.85" x2="93.25" y1="50.4" y2="50.4" fill="none" stroke="#787878" stroke-linecap="round" stroke-linejoin="round" stroke-width=".7"/>
        <rect id="connector60pin" x="79.2" y="50.05" width="14.4" height=".7" fill="none"/>
        <rect id="connector60terminal" x="93.6" y="50.05" width="0" height=".7" fill="none"/>
        <g transform="translate(71.55 51.1)">
            <text fill="#8C8C8C" font-family="Noto Sans" font-size="2.8">D13</text>
        </g>
        <line x1="78.85" x2="93.25" y1="57.6" y2="57.6" fill="none" stroke="#787878" stroke-linecap="round" stroke-linejoin="round" stroke-width=".7"/>
        <rect id="connector61pin" x="79.2" y="57.25" width="14.4" height=".7" fill="none"/>
        <rect id="connector61terminal" x="93.6" y="57.25" width="0" height=".7" fill="none"/>
        <g transform="translate(71.55 58.3)">
            <text fill="#8C8C8C" font-family="Noto Sans" font-size="2.8">D12</text>
        </g>
        <line x1="78.85" x2="93.25" y1="64.8" y2="64.8" fill="none" stroke="#787878" stroke-linecap="round" stroke-linejoin="round" stroke-width=".7"/>
        <rect id="connector62pin" x="79.2" y="64.45" width="14.4" height=".7" fill="none"/>
        <rect id="connector62terminal" x="93.6" y="64.45" width="0" height=".7" fill="none"/>
        <g transform="translate(71.55 65.5)">
            <text fill="#8C8C8C" font-family="Noto Sans" font-size="2.8">D11</text>
        </g>
        <line x1="78.85" x2="93.25" y1="72" y2="72" fill="none" stroke="#787878" stroke-linecap="round" stroke-linejoin="round" stroke-width=".7"/>
        <rect id="connector63pin" x="79.2" y="71.65" width="14.4" height=".7" fill="none"/>
        <rect id="connector63terminal" x="93.6" y="71.65" width="0" height=".7" fill="none"/>
        <g transform="translate(71.55 72.7)">
            <text fill="#8C8C8C" font-family="Noto Sans" font-size="2.8">D10</text>
        </g>
        <line x1="78.85" x2="93.25" y1="79.2" y2="79.2" fill="none" stroke="#787878" stroke-linecap="round" stroke-linejoin="round" stroke-width=".7"/>
        <rect id="connector64pin" x="79.2" y="78.85" width="14.4" height=".7" fill="none"/>
        <rect id="connector64terminal" x="93.6" y="78.85" width="0" height=".7" fill="none"/>
        <g transform="translate(73.478 79.9)">
            <text fill="#8C8C8C" font-family="Noto Sans" font-size="2.8">D9</text>
        </g>
        <line x1="78.85" x2="93.25" y1="86.4" y2="86.4" fill="none" stroke="#787878" stroke-linecap="round" stroke-linejoin="round" stroke-width=".7"/>
        <rect id="connector65pin" x="79.2" y="86.05" width="14.4" height=".7" fill="none"/>
        <rect id="connector65terminal" x="93.6" y="86.05" width="0" height=".7" fill="none"/>
        <g transform="translate(73.478 87.1)">
            <text fill="#8C8C8C" font-family="Noto Sans" font-size="2.8">D6</text>
        </g>
        <line x1="78.85" x2="93.25" y1="93.6" y2="93.6" fill="none" stroke="#787878" stroke-linecap="round" stroke-linejoin="round" stroke-width=".7"/>
        <rect id="connector66pin" x="79.2" y="93.25" width="14.4" height=".7" fill="none"/>
        <rect id="connector66terminal" x="93.6" y="93.25" width="0" height=".7" fill="none"/>
        <g transform="translate(73.478 94.3)">
            <text fill="#8C8C8C" font-family="Noto Sans" font-size="2.8">D5</text>
        </g>
        <line x1="78.85" x2="93.25" y1="100.8" y2="100.8" fill="none" stroke="#787878" stroke-linecap="round" stroke-linejoin="round" stroke-width=".7"/>
        <rect id="connector34pin" x="79.2" y="100.45" width="14.4" height=".7" fill="none"/>
        <rect id="connector34terminal" x="93.6" y="100.45" width="0" height=".7" fill="none"/>
        <g transform="translate(72.154 101.5)">
            <text fill="#8C8C8C" font-family="Noto Sans" font-size="2.8">SCL</text>
        </g>
        <line x1="78.85" x2="93.25" y1="108" y2="108" fill="none" stroke="#787878" stroke-linecap="round" stroke-linejoin="round" stroke-width=".7"/>
        <rect id="connector33pin" x="79.2" y="107.65" width="14.4" height=".7" fill="none"/>
        <rect id="connector33terminal" x="93.6" y="107.65" width="0" height=".7" fill="none"/>
        <g transform="translate(71.496 108.7)">
            <text fill="#8C8C8C" font-family="Noto Sans" font-size="2.8">SDA</text>
        </g>
        <line x1="28.8" x2="28.8" y1=".35" y2="14.4" fill="none" stroke="#787878" stroke-linecap="round" stroke-linejoin="round" stroke-width=".7"/>
        <rect id="connector54pin" x="28.45" width=".7" height="14.4" fill="none"/>
        <polygon id="connector54terminal" points="28.45 0 29.15 0 29.15 0" fill="none"/>
        <g transform="translate(30.2 16)">
            
                <g transform="rotate(270)">
                    
                        <g transform="translate(-6.7812 1.1207e-5)">
                            <text fill="#8C8C8C" font-family="Noto Sans" font-size="2.8">3.3V</text>
                        </g>
                    
                </g>
            
        </g>
        <line x1="36" x2="36" y1=".35" y2="14.4" fill="none" stroke="#787878" stroke-linecap="round" stroke-linejoin="round" stroke-width=".7"/>
        <rect id="connector57pin" x="35.65" width=".7" height="14.4" fill="none"/>
        <polygon id="connector57terminal" points="35.65 0 36.35 0 36.35 0" fill="none"/>
        <g transform="translate(37.4 16)">
            
                <g transform="rotate(270)">
                    
                        <g transform="translate(-7.8955 2.2414e-5)">
                            <text fill="#8C8C8C" font-family="Noto Sans" font-size="2.8">VBAT</text>
                        </g>
                    
                </g>
            
        </g>
        <line x1="43.2" x2="43.2" y1=".35" y2="14.4" fill="none" stroke="#787878" stroke-linecap="round" stroke-linejoin="round" stroke-width=".7"/>
        <rect id="connector59pin" x="42.85" width=".7" height="14.4" fill="none"/>
        <polygon id="connector59terminal" points="42.85 0 43.55 0 43.55 0" fill="none"/>
        <g transform="translate(44.6 16)">
            
                <g transform="rotate(270)">
                    
                        <g transform="translate(-8.4219 -2.2414e-5)">
                            <text fill="#8C8C8C" font-family="Noto Sans" font-size="2.8">VBUS</text>
                        </g>
                    
                </g>
            
        </g>
        <line x1="50.4" x2="50.4" y1=".35" y2="14.4" fill="none" stroke="#787878" stroke-linecap="round" stroke-linejoin="round" stroke-width=".7"/>
        <rect id="connector32pin" x="50.05" width=".7" height="14.4" fill="none"/>
        <polygon id="connector32terminal" points="50.05 0 50.75 0 50.75 0" fill="none"/>
        <g transform="translate(51.8 16)">
            
                <g transform="rotate(270)">
                    
                        <g transform="translate(-14.682 -1.1207e-5)">
                            <text fill="#8C8C8C" font-family="Noto Sans" font-size="2.8">VSENSOR</text>
                        </g>
                    
                </g>
            
        </g>
        <line x1="43.2" x2="43.2" y1="144" y2="158.05" fill="none" stroke="#787878" stroke-linecap="round" stroke-linejoin="round" stroke-width=".7"/>
        <rect id="connector31pin" x="42.85" y="144" width=".7" height="14.4" fill="none"/>
        <polygon id="connector31terminal" points="42.85 158.4 43.55 158.4 43.55 158.4" fill="none"/>
        <g transform="translate(44.6 142.4)">
            
                <g transform="rotate(270)">
                    
                        <g transform="translate(-4e-4 -2.2414e-5)">
                            <text fill="#8C8C8C" font-family="Noto Sans" font-size="2.8">GND</text>
                        </g>
                    
                </g>
            
        </g>
        <rect id="connector55pin" x="28.45" width=".7" height="14.4" fill="none"/>
        <polygon id="connector55terminal" points="28.45 0 29.15 0 29.15 0" fill="none"/>
        <rect id="connector53pin" x="42.85" y="144" width=".7" height="14.4" fill="none"/>
        <polygon id="connector53terminal" points="42.85 158.4 43.55 158.4 43.55 158.4" fill="none"/>
        <rect id="connector67pin" x="79.2" y="100.45" width="14.4" height=".7" fill="none"/>
        <rect id="connector67terminal" x="93.6" y="100.45" width="0" height=".7" fill="none"/>
        <rect id="connector68pin" x="79.2" y="107.65" width="14.4" height=".7" fill="none"/>
        <rect id="connector68terminal" x="93.6" y="107.65" width="0" height=".7" fill="none"/>
    </g>
</svg>
