<?xml version="1.0" encoding="UTF-8"?>
<!-- Created with Fritzing (http://www.fritzing.org/) -->
<svg width="1.5in" height="1.5in" baseProfile="tiny" version="1.2" viewBox="0 0 108 108" xmlns="http://www.w3.org/2000/svg">
 <desc>
  <referenceFile>Adafruit STSPIN220 Stepper Motor Driver_schematic.svg</referenceFile>
 </desc>
 <desc>Fritzing schematic generated by brd2svg</desc>
 <g id="schematic">
  <rect x="14.4" y="14.4" width="78.75" height="79.2" fill="none" stroke="#000" stroke-linecap="round" stroke-linejoin="round" stroke-width=".9"/>
  <text id="label" x="54" y="43.2" fill="#000000" font-family="Noto Sans" font-size="3.5" text-anchor="middle"><tspan x="54" y="43.2">Adafruit</tspan> <tspan x="54" y="46.7">STSPIN220</tspan> <tspan x="54" y="50.2">Stepper</tspan> <tspan x="54" y="53.7">Motor</tspan> <tspan x="54" y="57.2">Driver</tspan></text>
  <line x1=".35" x2="14.4" y1="43.2" y2="43.2" fill="none" stroke="#787878" stroke-linecap="round" stroke-linejoin="round" stroke-width=".7"/>
  <rect id="connector27pin" y="42.85" width="14.4" height=".7" fill="none" stroke-width="0" connectorName="OUTA1"/>
  <rect id="connector27terminal" x="-.0144" y="43.199" width=".0288" height=".0014" fill="none" stroke-width="0"/>
  <rect y="42.85" width="0" height=".7" fill="none" stroke-width="0"/>
  <text x="15.8" y="43.9" fill="#8c8c8c" font-family="Noto Sans" font-size="3.5">OUTA1</text>
  <line x1=".35" x2="14.4" y1="50.4" y2="50.4" fill="none" stroke="#787878" stroke-linecap="round" stroke-linejoin="round" stroke-width=".7"/>
  <rect id="connector28pin" y="50.05" width="14.4" height=".7" fill="none" stroke-width="0" connectorName="OUTA2"/>
  <rect id="connector28terminal" x="-.0144" y="50.399" width=".0288" height=".0014" fill="none" stroke-width="0"/>
  <rect y="50.05" width="0" height=".7" fill="none" stroke-width="0"/>
  <text x="15.8" y="51.1" fill="#8c8c8c" font-family="Noto Sans" font-size="3.5">OUTA2</text>
  <line x1=".35" x2="14.4" y1="57.6" y2="57.6" fill="none" stroke="#787878" stroke-linecap="round" stroke-linejoin="round" stroke-width=".7"/>
  <rect id="connector30pin" y="57.25" width="14.4" height=".7" fill="none" stroke-width="0" connectorName="OUTB1"/>
  <rect id="connector30terminal" x="-.0144" y="57.599" width=".0288" height=".0014" fill="none" stroke-width="0"/>
  <rect y="57.25" width="0" height=".7" fill="none" stroke-width="0"/>
  <text x="15.8" y="58.3" fill="#8c8c8c" font-family="Noto Sans" font-size="3.5">OUTB1</text>
  <line x1=".35" x2="14.4" y1="64.8" y2="64.8" fill="none" stroke="#787878" stroke-linecap="round" stroke-linejoin="round" stroke-width=".7"/>
  <rect id="connector29pin" y="64.45" width="14.4" height=".7" fill="none" stroke-width="0" connectorName="OUTB2"/>
  <rect id="connector29terminal" x="-.0144" y="64.799" width=".0288" height=".0014" fill="none" stroke-width="0"/>
  <rect y="64.45" width="0" height=".7" fill="none" stroke-width="0"/>
  <text x="15.8" y="65.5" fill="#8c8c8c" font-family="Noto Sans" font-size="3.5">OUTB2</text>
  <line x1="93.25" x2="107.65" y1="43.2" y2="43.2" fill="none" stroke="#787878" stroke-linecap="round" stroke-linejoin="round" stroke-width=".7"/>
  <rect id="connector35pin" x="93.6" y="42.85" width="14.4" height=".7" fill="none" stroke-width="0" connectorname="DIR"/>
  <rect id="connector35terminal" x="107.99" y="43.199" width=".0288" height=".0014" fill="none" stroke-width="0"/>
  <rect x="108" y="42.85" width="0" height=".7" fill="none" stroke-width="0"/>
  <text x="92.2003" y="43.9" fill="#8c8c8c" font-family="Noto Sans" font-size="3.5" text-anchor="end">DIR</text>
  <line x1="93.25" x2="107.65" y1="50.4" y2="50.4" fill="none" stroke="#787878" stroke-linecap="round" stroke-linejoin="round" stroke-width=".7"/>
  <rect id="connector36pin" x="93.6" y="50.05" width="14.4" height=".7" fill="none" stroke-width="0" connectorname="STEP"/>
  <rect id="connector36terminal" x="107.99" y="50.399" width=".0288" height=".0014" fill="none" stroke-width="0"/>
  <rect x="108" y="50.05" width="0" height=".7" fill="none" stroke-width="0"/>
  <text x="92.2003" y="51.1" fill="#8c8c8c" font-family="Noto Sans" font-size="3.5" text-anchor="end">STEP</text>
  <line x1="93.25" x2="107.65" y1="57.6" y2="57.6" fill="none" stroke="#787878" stroke-linecap="round" stroke-linejoin="round" stroke-width=".7"/>
  <rect id="connector37pin" x="93.6" y="57.25" width="14.4" height=".7" fill="none" stroke-width="0" connectorname="MS1"/>
  <rect id="connector37terminal" x="107.99" y="57.599" width=".0288" height=".0014" fill="none" stroke-width="0"/>
  <rect x="108" y="57.25" width="0" height=".7" fill="none" stroke-width="0"/>
  <text x="92.2003" y="58.3" fill="#8c8c8c" font-family="Noto Sans" font-size="3.5" text-anchor="end">MS1</text>
  <line x1="93.25" x2="107.65" y1="64.8" y2="64.8" fill="none" stroke="#787878" stroke-linecap="round" stroke-linejoin="round" stroke-width=".7"/>
  <rect id="connector38pin" x="93.6" y="64.45" width="14.4" height=".7" fill="none" stroke-width="0" connectorname="MS2"/>
  <rect id="connector38terminal" x="107.99" y="64.799" width=".0288" height=".0014" fill="none" stroke-width="0"/>
  <rect x="108" y="64.45" width="0" height=".7" fill="none" stroke-width="0"/>
  <text x="92.2003" y="65.5" fill="#8c8c8c" font-family="Noto Sans" font-size="3.5" text-anchor="end">MS2</text>
  <line x1="93.25" x2="107.65" y1="72" y2="72" fill="none" stroke="#787878" stroke-linecap="round" stroke-linejoin="round" stroke-width=".7"/>
  <rect id="connector39pin" x="93.6" y="71.65" width="14.4" height=".7" fill="none" stroke-width="0" connectorname="ENABLE"/>
  <rect id="connector39terminal" x="107.99" y="71.999" width=".0288" height=".0014" fill="none" stroke-width="0"/>
  <rect x="108" y="71.65" width="0" height=".7" fill="none" stroke-width="0"/>
  <text x="92.2003" y="72.6998" fill="#8c8c8c" font-family="Noto Sans" font-size="3.5" text-anchor="end">ENABLE</text>
  <line x1="93.25" x2="107.65" y1="79.2" y2="79.2" fill="none" stroke="#787878" stroke-linecap="round" stroke-linejoin="round" stroke-width=".7"/>
  <rect id="connector40pin" x="93.6" y="78.85" width="14.4" height=".7" fill="none" stroke-width="0" connectorname="RESET"/>
  <rect id="connector40terminal" x="107.99" y="79.199" width=".0288" height=".0014" fill="none" stroke-width="0"/>
  <rect x="108" y="78.85" width="0" height=".7" fill="none" stroke-width="0"/>
  <text x="92.2003" y="79.8998" fill="#8c8c8c" font-family="Noto Sans" font-size="3.5" text-anchor="end">RESET</text>
  <line x1="50.4" x2="50.4" y1=".35" y2="14.4" fill="none" stroke="#787878" stroke-linecap="round" stroke-linejoin="round" stroke-width=".7"/>
  <rect id="connector32pin" x="50.05" width=".7" height="14.4" fill="none" stroke-width="0" connectorname="VMOTOR"/>
  <rect id="connector32terminal" x="50.399" y="-.0144" width=".0014" height=".0288" fill="none" stroke-width="0"/>
  <rect x="50.05" width=".7" height="0" fill="none" stroke-width="0"/>
  <g transform="translate(51.8 16)">
   <g transform="rotate(270)">
    <text fill="#8c8c8c" font-family="Noto Sans" font-size="3.5" text-anchor="end">VMOTOR</text>
   </g>
  </g>
  <line x1="57.6" x2="57.6" y1=".35" y2="14.4" fill="none" stroke="#787878" stroke-linecap="round" stroke-linejoin="round" stroke-width=".7"/>
  <rect id="connector33pin" x="57.25" width=".7" height="14.4" fill="none" stroke-width="0" connectorname="VDD"/>
  <rect id="connector33terminal" x="57.599" y="-.0144" width=".0014" height=".0288" fill="none" stroke-width="0"/>
  <rect x="57.25" width=".7" height="0" fill="none" stroke-width="0"/>
  <g transform="translate(59 16)">
   <g transform="rotate(270)">
    <text fill="#8c8c8c" font-family="Noto Sans" font-size="3.5" text-anchor="end">VDD</text>
   </g>
  </g>
  <line x1="50.4" x2="50.4" y1="93.6" y2="107.65" fill="none" stroke="#787878" stroke-linecap="round" stroke-linejoin="round" stroke-width=".7"/>
  <rect id="connector31pin" x="50.05" y="93.6" width=".7" height="14.4" fill="none" stroke-width="0" connectorname="GND"/>
  <rect id="connector31terminal" x="50.399" y="107.99" width=".0014" height=".0288" fill="none" stroke-width="0"/>
  <rect x="50.05" y="108" width=".7" height="0" fill="none" stroke-width="0"/>
  <g transform="translate(51.8 92)">
   <g transform="rotate(270)">
    <text fill="#8c8c8c" font-family="Noto Sans" font-size="3.5">GND</text>
   </g>
  </g>
  <rect id="connector34pin" x="50.05" y="93.6" width=".7" height="14.4" fill="none" stroke-width="0" connectorname="GND"/>
  <rect id="connector34terminal" x="50.399" y="107.99" width=".0014" height=".0288" fill="none" stroke-width="0"/>
  <rect x="50.05" y="108" width=".7" height="0" fill="none" stroke-width="0"/>
 </g>
</svg>
