<?xml version="1.0" encoding="UTF-8"?>
<!-- Created with Fritzing (http://www.fritzing.org/) -->
<svg width=".9in" height=".9in" baseProfile="tiny" version="1.2" viewBox="0 0 64.8 64.8" xmlns="http://www.w3.org/2000/svg">
 <desc>
  <referenceFile>FET_I2CShifter_v0.2_schematic.svg</referenceFile>
 </desc>
 <desc>Fritzing schematic generated by brd2svg</desc>
 <g id="schematic">
  <rect x="14.4" y=".45" width="35.55" height="49.95" fill="none" stroke="#000" stroke-linecap="round" stroke-linejoin="round" stroke-width=".9"/>
  <text id="label" x="32.4" y="25.3" fill="#000000" font-family="Noto Sans" font-size="3.5" text-anchor="middle"><tspan x="32.4" y="25.3">FET</tspan> <tspan x="32.4" y="28.8">I2CShifter</tspan></text>
  <line x1=".35" x2="14.4" y1="7.2" y2="7.2" fill="none" stroke="#787878" stroke-linecap="round" stroke-linejoin="round" stroke-width=".7"/>
  <rect id="connector10pin" y="6.85" width="14.4" height=".7" fill="none" stroke-width="0" connectorName="LV"/>
  <rect id="connector10terminal" y="6.85" width="0" height=".7" fill="none" stroke-width="0"/>
  <text x="15.8" y="7.89998" fill="#8c8c8c" font-family="Noto Sans" font-size="3.5">LV</text>
  <line x1=".35" x2="14.4" y1="14.4" y2="14.4" fill="none" stroke="#787878" stroke-linecap="round" stroke-linejoin="round" stroke-width=".7"/>
  <rect id="connector9pin" y="14.05" width="14.4" height=".7" fill="none" stroke-width="0" connectorName="A1"/>
  <rect id="connector9terminal" y="14.05" width="0" height=".7" fill="none" stroke-width="0"/>
  <text x="15.8" y="15.1" fill="#8c8c8c" font-family="Noto Sans" font-size="3.5">A1</text>
  <line x1=".35" x2="14.4" y1="21.6" y2="21.6" fill="none" stroke="#787878" stroke-linecap="round" stroke-linejoin="round" stroke-width=".7"/>
  <rect id="connector8pin" y="21.25" width="14.4" height=".7" fill="none" stroke-width="0" connectorName="A2"/>
  <rect id="connector8terminal" y="21.25" width="0" height=".7" fill="none" stroke-width="0"/>
  <text x="15.8" y="22.3" fill="#8c8c8c" font-family="Noto Sans" font-size="3.5">A2</text>
  <line x1=".35" x2="14.4" y1="28.8" y2="28.8" fill="none" stroke="#787878" stroke-linecap="round" stroke-linejoin="round" stroke-width=".7"/>
  <rect id="connector7pin" y="28.45" width="14.4" height=".7" fill="none" stroke-width="0" connectorName="A3"/>
  <rect id="connector7terminal" y="28.45" width="0" height=".7" fill="none" stroke-width="0"/>
  <text x="15.8" y="29.5" fill="#8c8c8c" font-family="Noto Sans" font-size="3.5">A3</text>
  <line x1=".35" x2="14.4" y1="36" y2="36" fill="none" stroke="#787878" stroke-linecap="round" stroke-linejoin="round" stroke-width=".7"/>
  <rect id="connector6pin" y="35.65" width="14.4" height=".7" fill="none" stroke-width="0" connectorName="A4"/>
  <rect id="connector6terminal" y="35.65" width="0" height=".7" fill="none" stroke-width="0"/>
  <text x="15.8" y="36.7" fill="#8c8c8c" font-family="Noto Sans" font-size="3.5">A4</text>
  <line x1="50.05" x2="64.45" y1="7.2" y2="7.2" fill="none" stroke="#787878" stroke-linecap="round" stroke-linejoin="round" stroke-width=".7"/>
  <rect id="connector16pin" x="50.4" y="6.85" width="14.4" height=".7" fill="none" stroke-width="0" connectorname="HV"/>
  <rect id="connector16terminal" x="64.8" y="6.85" width="0" height=".7" fill="none" stroke-width="0"/>
  <text x="49" y="7.89998" fill="#8c8c8c" font-family="Noto Sans" font-size="3.5" text-anchor="end">HV</text>
  <line x1="50.05" x2="64.45" y1="14.4" y2="14.4" fill="none" stroke="#787878" stroke-linecap="round" stroke-linejoin="round" stroke-width=".7"/>
  <rect id="connector15pin" x="50.4" y="14.05" width="14.4" height=".7" fill="none" stroke-width="0" connectorname="B1"/>
  <rect id="connector15terminal" x="64.8" y="14.05" width="0" height=".7" fill="none" stroke-width="0"/>
  <text x="49" y="15.1" fill="#8c8c8c" font-family="Noto Sans" font-size="3.5" text-anchor="end">B1</text>
  <line x1="50.05" x2="64.45" y1="21.6" y2="21.6" fill="none" stroke="#787878" stroke-linecap="round" stroke-linejoin="round" stroke-width=".7"/>
  <rect id="connector14pin" x="50.4" y="21.25" width="14.4" height=".7" fill="none" stroke-width="0" connectorname="B2"/>
  <rect id="connector14terminal" x="64.8" y="21.25" width="0" height=".7" fill="none" stroke-width="0"/>
  <text x="49" y="22.3" fill="#8c8c8c" font-family="Noto Sans" font-size="3.5" text-anchor="end">B2</text>
  <line x1="50.05" x2="64.45" y1="28.8" y2="28.8" fill="none" stroke="#787878" stroke-linecap="round" stroke-linejoin="round" stroke-width=".7"/>
  <rect id="connector13pin" x="50.4" y="28.45" width="14.4" height=".7" fill="none" stroke-width="0" connectorname="B3"/>
  <rect id="connector13terminal" x="64.8" y="28.45" width="0" height=".7" fill="none" stroke-width="0"/>
  <text x="49" y="29.5" fill="#8c8c8c" font-family="Noto Sans" font-size="3.5" text-anchor="end">B3</text>
  <line x1="50.05" x2="64.45" y1="36" y2="36" fill="none" stroke="#787878" stroke-linecap="round" stroke-linejoin="round" stroke-width=".7"/>
  <rect id="connector12pin" x="50.4" y="35.65" width="14.4" height=".7" fill="none" stroke-width="0" connectorname="B4"/>
  <rect id="connector12terminal" x="64.8" y="35.65" width="0" height=".7" fill="none" stroke-width="0"/>
  <text x="49" y="36.7" fill="#8c8c8c" font-family="Noto Sans" font-size="3.5" text-anchor="end">B4</text>
  <line x1="28.8" x2="28.8" y1="50.4" y2="64.45" fill="none" stroke="#787878" stroke-linecap="round" stroke-linejoin="round" stroke-width=".7"/>
  <rect id="connector5pin" x="28.45" y="50.4" width=".7" height="14.4" fill="none" stroke-width="0" connectorname="GND"/>
  <rect id="connector5terminal" x="28.45" y="64.8" width=".7" height="0" fill="none" stroke-width="0"/>
  <g transform="translate(30.2 48.8)">
   <g transform="rotate(270)">
    <text fill="#8c8c8c" font-family="Noto Sans" font-size="3.5">GND</text>
   </g>
  </g>
  <rect id="connector11pin" x="28.45" y="50.4" width=".7" height="14.4" fill="none" stroke-width="0" connectorname="GND"/>
  <rect id="connector11terminal" x="28.45" y="64.8" width=".7" height="0" fill="none" stroke-width="0"/>
 </g>
</svg>
