<?xml version="1.0" encoding="UTF-8"?>
<!-- Created with Fritzing (http://www.fritzing.org/) -->
<svg width="1in" height="1.1in" baseProfile="tiny" version="1.2" viewBox="0 0 72 79.2" xmlns="http://www.w3.org/2000/svg">
 <desc>
  <referenceFile>Adafruit USB Type C Plug Breakout_schematic.svg</referenceFile>
 </desc>
 <desc>Fritzing schematic generated by brd2svg</desc>
 <g id="schematic">
  <rect x="14.4" y="14.4" width="42.75" height="50.4" fill="none" stroke="#000" stroke-linecap="round" stroke-linejoin="round" stroke-width=".9"/>
  <text id="label" x="36" y="28.8" fill="#000000" font-family="Noto Sans" font-size="3.5" text-anchor="middle"><tspan x="36" y="28.8">Adafruit</tspan> <tspan x="36" y="32.3">USB</tspan> <tspan x="36" y="35.8">Type</tspan> <tspan x="36" y="39.3">C</tspan> <tspan x="36" y="42.8">Plug</tspan> <tspan x="36" y="46.3">Breakout</tspan></text>
  <line x1=".35" x2="14.4" y1="28.8" y2="28.8" fill="none" stroke="#787878" stroke-linecap="round" stroke-linejoin="round" stroke-width=".7"/>
  <rect id="connector10pin" y="28.45" width="14.4" height=".7" fill="none" stroke-width="0" connectorName="CC1"/>
  <rect id="connector10terminal" y="28.45" width="0" height=".7" fill="none" stroke-width="0"/>
  <text x="15.8" y="29.5" fill="#8c8c8c" font-family="Noto Sans" font-size="3.5">CC1</text>
  <line x1="57.25" x2="71.65" y1="28.8" y2="28.8" fill="none" stroke="#787878" stroke-linecap="round" stroke-linejoin="round" stroke-width=".7"/>
  <rect id="connector8pin" x="57.6" y="28.45" width="14.4" height=".7" fill="none" stroke-width="0" connectorname="D-"/>
  <rect id="connector8terminal" x="72" y="28.45" width="0" height=".7" fill="none" stroke-width="0"/>
  <text x="56.2" y="29.5" fill="#8c8c8c" font-family="Noto Sans" font-size="3.5" text-anchor="end">D-</text>
  <line x1="57.25" x2="71.65" y1="36" y2="36" fill="none" stroke="#787878" stroke-linecap="round" stroke-linejoin="round" stroke-width=".7"/>
  <rect id="connector9pin" x="57.6" y="35.65" width="14.4" height=".7" fill="none" stroke-width="0" connectorname="D+"/>
  <rect id="connector9terminal" x="72" y="35.65" width="0" height=".7" fill="none" stroke-width="0"/>
  <text x="56.2" y="36.7" fill="#8c8c8c" font-family="Noto Sans" font-size="3.5" text-anchor="end">D+</text>
  <line x1="36" x2="36" y1=".35" y2="14.4" fill="none" stroke="#787878" stroke-linecap="round" stroke-linejoin="round" stroke-width=".7"/>
  <rect id="connector11pin" x="35.65" width=".7" height="14.4" fill="none" stroke-width="0" connectorname="VBUS"/>
  <rect id="connector11terminal" x="35.65" width=".7" height="0" fill="none" stroke-width="0"/>
  <g transform="translate(37.4 16)">
   <g transform="rotate(270)">
    <text fill="#8c8c8c" font-family="Noto Sans" font-size="3.5" text-anchor="end">VBUS</text>
   </g>
  </g>
  <line x1="36" x2="36" y1="64.8" y2="78.85" fill="none" stroke="#787878" stroke-linecap="round" stroke-linejoin="round" stroke-width=".7"/>
  <rect id="connector7pin" x="35.65" y="64.8" width=".7" height="14.4" fill="none" stroke-width="0" connectorname="GND"/>
  <rect id="connector7terminal" x="35.65" y="79.2" width=".7" height="0" fill="none" stroke-width="0"/>
  <g transform="translate(37.4 63.2)">
   <g transform="rotate(270)">
    <text fill="#8c8c8c" font-family="Noto Sans" font-size="3.5">GND</text>
   </g>
  </g>
 </g>
</svg>
