<?xml version="1.0" encoding="UTF-8"?>
<!-- Created with Fritzing (http://www.fritzing.org/) -->
<svg width=".9in" height=".8in" baseProfile="tiny" version="1.2" viewBox="0 0 64.8 57.6" xmlns="http://www.w3.org/2000/svg">
 <desc>
  <referenceFile>FadeCandy USB NeoPixel Driver_schematic.svg</referenceFile>
 </desc>
 <desc>Fritzing schematic generated by brd2svg</desc>
 <g id="schematic">
  <rect x="14.4" y=".45" width="35.55" height="42.75" fill="none" stroke="#000" stroke-linecap="round" stroke-linejoin="round" stroke-width=".9"/>
  <text id="label" x="32.4" y="21.8" fill="#000000" font-family="Noto Sans" font-size="3.5" text-anchor="middle"><tspan x="32.4" y="21.8">FadeCandy</tspan> <tspan x="32.4" y="25.3">USB</tspan> <tspan x="32.4" y="28.8">NeoPixel</tspan> <tspan x="32.4" y="32.3">Driver</tspan></text>
  <line x1=".35" x2="14.4" y1="7.2" y2="7.2" fill="none" stroke="#787878" stroke-linecap="round" stroke-linejoin="round" stroke-width=".7"/>
  <rect id="connector60pin" y="6.85" width="14.4" height=".7" fill="none" stroke-width="0" connectorName="D0"/>
  <rect id="connector60terminal" y="6.85" width="0" height=".7" fill="none" stroke-width="0"/>
  <text x="15.8" y="7.89998" fill="#8c8c8c" font-family="Noto Sans" font-size="3.5">D0</text>
  <line x1=".35" x2="14.4" y1="14.4" y2="14.4" fill="none" stroke="#787878" stroke-linecap="round" stroke-linejoin="round" stroke-width=".7"/>
  <rect id="connector58pin" y="14.05" width="14.4" height=".7" fill="none" stroke-width="0" connectorName="D1"/>
  <rect id="connector58terminal" y="14.05" width="0" height=".7" fill="none" stroke-width="0"/>
  <text x="15.8" y="15.1" fill="#8c8c8c" font-family="Noto Sans" font-size="3.5">D1</text>
  <line x1=".35" x2="14.4" y1="21.6" y2="21.6" fill="none" stroke="#787878" stroke-linecap="round" stroke-linejoin="round" stroke-width=".7"/>
  <rect id="connector56pin" y="21.25" width="14.4" height=".7" fill="none" stroke-width="0" connectorName="D2"/>
  <rect id="connector56terminal" y="21.25" width="0" height=".7" fill="none" stroke-width="0"/>
  <text x="15.8" y="22.3" fill="#8c8c8c" font-family="Noto Sans" font-size="3.5">D2</text>
  <line x1=".35" x2="14.4" y1="28.8" y2="28.8" fill="none" stroke="#787878" stroke-linecap="round" stroke-linejoin="round" stroke-width=".7"/>
  <rect id="connector54pin" y="28.45" width="14.4" height=".7" fill="none" stroke-width="0" connectorName="D3"/>
  <rect id="connector54terminal" y="28.45" width="0" height=".7" fill="none" stroke-width="0"/>
  <text x="15.8" y="29.5" fill="#8c8c8c" font-family="Noto Sans" font-size="3.5">D3</text>
  <line x1="50.05" x2="64.45" y1="7.2" y2="7.2" fill="none" stroke="#787878" stroke-linecap="round" stroke-linejoin="round" stroke-width=".7"/>
  <rect id="connector52pin" x="50.4" y="6.85" width="14.4" height=".7" fill="none" stroke-width="0" connectorname="D4"/>
  <rect id="connector52terminal" x="64.8" y="6.85" width="0" height=".7" fill="none" stroke-width="0"/>
  <text x="49" y="7.89998" fill="#8c8c8c" font-family="Noto Sans" font-size="3.5" text-anchor="end">D4</text>
  <line x1="50.05" x2="64.45" y1="14.4" y2="14.4" fill="none" stroke="#787878" stroke-linecap="round" stroke-linejoin="round" stroke-width=".7"/>
  <rect id="connector50pin" x="50.4" y="14.05" width="14.4" height=".7" fill="none" stroke-width="0" connectorname="D5"/>
  <rect id="connector50terminal" x="64.8" y="14.05" width="0" height=".7" fill="none" stroke-width="0"/>
  <text x="49" y="15.1" fill="#8c8c8c" font-family="Noto Sans" font-size="3.5" text-anchor="end">D5</text>
  <line x1="50.05" x2="64.45" y1="21.6" y2="21.6" fill="none" stroke="#787878" stroke-linecap="round" stroke-linejoin="round" stroke-width=".7"/>
  <rect id="connector48pin" x="50.4" y="21.25" width="14.4" height=".7" fill="none" stroke-width="0" connectorname="D6"/>
  <rect id="connector48terminal" x="64.8" y="21.25" width="0" height=".7" fill="none" stroke-width="0"/>
  <text x="49" y="22.3" fill="#8c8c8c" font-family="Noto Sans" font-size="3.5" text-anchor="end">D6</text>
  <line x1="50.05" x2="64.45" y1="28.8" y2="28.8" fill="none" stroke="#787878" stroke-linecap="round" stroke-linejoin="round" stroke-width=".7"/>
  <rect id="connector46pin" x="50.4" y="28.45" width="14.4" height=".7" fill="none" stroke-width="0" connectorname="D7"/>
  <rect id="connector46terminal" x="64.8" y="28.45" width="0" height=".7" fill="none" stroke-width="0"/>
  <text x="49" y="29.5" fill="#8c8c8c" font-family="Noto Sans" font-size="3.5" text-anchor="end">D7</text>
  <line x1="28.8" x2="28.8" y1="43.2" y2="57.25" fill="none" stroke="#787878" stroke-linecap="round" stroke-linejoin="round" stroke-width=".7"/>
  <rect id="connector45pin" x="28.45" y="43.2" width=".7" height="14.4" fill="none" stroke-width="0" connectorname="GND"/>
  <rect id="connector45terminal" x="28.45" y="57.6" width=".7" height="0" fill="none" stroke-width="0"/>
  <g transform="translate(30.2 41.6)">
   <g transform="rotate(270)">
    <text fill="#8c8c8c" font-family="Noto Sans" font-size="3.5">GND</text>
   </g>
  </g>
  <rect id="connector47pin" x="28.45" y="43.2" width=".7" height="14.4" fill="none" stroke-width="0" connectorname="GND"/>
  <rect id="connector47terminal" x="28.45" y="57.6" width=".7" height="0" fill="none" stroke-width="0"/>
  <rect id="connector49pin" x="28.45" y="43.2" width=".7" height="14.4" fill="none" stroke-width="0" connectorname="GND"/>
  <rect id="connector49terminal" x="28.45" y="57.6" width=".7" height="0" fill="none" stroke-width="0"/>
  <rect id="connector51pin" x="28.45" y="43.2" width=".7" height="14.4" fill="none" stroke-width="0" connectorname="GND"/>
  <rect id="connector51terminal" x="28.45" y="57.6" width=".7" height="0" fill="none" stroke-width="0"/>
  <rect id="connector53pin" x="28.45" y="43.2" width=".7" height="14.4" fill="none" stroke-width="0" connectorname="GND"/>
  <rect id="connector53terminal" x="28.45" y="57.6" width=".7" height="0" fill="none" stroke-width="0"/>
  <rect id="connector55pin" x="28.45" y="43.2" width=".7" height="14.4" fill="none" stroke-width="0" connectorname="GND"/>
  <rect id="connector55terminal" x="28.45" y="57.6" width=".7" height="0" fill="none" stroke-width="0"/>
  <rect id="connector57pin" x="28.45" y="43.2" width=".7" height="14.4" fill="none" stroke-width="0" connectorname="GND"/>
  <rect id="connector57terminal" x="28.45" y="57.6" width=".7" height="0" fill="none" stroke-width="0"/>
  <rect id="connector59pin" x="28.45" y="43.2" width=".7" height="14.4" fill="none" stroke-width="0" connectorname="GND"/>
  <rect id="connector59terminal" x="28.45" y="57.6" width=".7" height="0" fill="none" stroke-width="0"/>
  <rect id="connector61pin" x="28.45" y="43.2" width=".7" height="14.4" fill="none" stroke-width="0" connectorname="GND"/>
  <rect id="connector61terminal" x="28.45" y="57.6" width=".7" height="0" fill="none" stroke-width="0"/>
  <rect id="connector62pin" x="28.45" y="43.2" width=".7" height="14.4" fill="none" stroke-width="0" connectorname="GND"/>
  <rect id="connector62terminal" x="28.45" y="57.6" width=".7" height="0" fill="none" stroke-width="0"/>
 </g>
</svg>
