<?xml version="1.0" encoding="UTF-8"?>
<!-- Created with Fritzing (http://www.fritzing.org/) -->
<svg width="1.4in" height="1in" baseProfile="tiny" version="1.2" viewBox="0 0 100.8 72" xmlns="http://www.w3.org/2000/svg">
 <desc>
  <referenceFile>Adafruit CAN Pal Breakout_schematic.svg</referenceFile>
 </desc>
 <desc>Fritzing schematic generated by brd2svg</desc>
 <g id="schematic">
  <rect x="14.4" y="14.4" width="71.55" height="43.2" fill="none" stroke="#000" stroke-linecap="round" stroke-linejoin="round" stroke-width=".9"/>
  <text id="label" x="50.4" y="29" fill="#000000" font-family="Noto Sans" font-size="3.5" text-anchor="middle"><tspan x="50.4" y="29">Adafruit</tspan> <tspan x="50.4" y="32.5">CAN</tspan> <tspan x="50.4" y="36">Pal</tspan> <tspan x="50.4" y="39.5">Breakout</tspan></text>
  <line x1=".35" x2="14.4" y1="28.8" y2="28.8" fill="none" stroke="#787878" stroke-linecap="round" stroke-linejoin="round" stroke-width=".7"/>
  <rect id="connector31pin" y="28.45" width="14.4" height=".7" fill="none" stroke-width="0" connectorName="CAN1_RX"/>
  <rect id="connector31terminal" y="28.45" width="0" height=".7" fill="none" stroke-width="0"/>
  <text x="15.8" y="29.5" fill="#8c8c8c" font-family="Noto Sans" font-size="3.5">CAN1_RX</text>
  <line x1=".35" x2="14.4" y1="36" y2="36" fill="none" stroke="#787878" stroke-linecap="round" stroke-linejoin="round" stroke-width=".7"/>
  <rect id="connector29pin" y="35.65" width="14.4" height=".7" fill="none" stroke-width="0" connectorName="CAN1_S"/>
  <rect id="connector29terminal" y="35.65" width="0" height=".7" fill="none" stroke-width="0"/>
  <text x="15.8" y="36.7" fill="#8c8c8c" font-family="Noto Sans" font-size="3.5">CAN1_S</text>
  <line x1=".35" x2="14.4" y1="43.2" y2="43.2" fill="none" stroke="#787878" stroke-linecap="round" stroke-linejoin="round" stroke-width=".7"/>
  <rect id="connector30pin" y="42.85" width="14.4" height=".7" fill="none" stroke-width="0" connectorName="CAN1_TX"/>
  <rect id="connector30terminal" y="42.85" width="0" height=".7" fill="none" stroke-width="0"/>
  <text x="15.8" y="43.9" fill="#8c8c8c" font-family="Noto Sans" font-size="3.5">CAN1_TX</text>
  <line x1="86.05" x2="100.45" y1="28.8" y2="28.8" fill="none" stroke="#787878" stroke-linecap="round" stroke-linejoin="round" stroke-width=".7"/>
  <rect id="connector27pin" x="86.4" y="28.45" width="14.4" height=".7" fill="none" stroke-width="0" connectorname="CAN_L"/>
  <rect id="connector27terminal" x="100.8" y="28.45" width="0" height=".7" fill="none" stroke-width="0"/>
  <text x="85.0003" y="29.5" fill="#8c8c8c" font-family="Noto Sans" font-size="3.5" text-anchor="end">CAN_L</text>
  <line x1="86.05" x2="100.45" y1="36" y2="36" fill="none" stroke="#787878" stroke-linecap="round" stroke-linejoin="round" stroke-width=".7"/>
  <rect id="connector28pin" x="86.4" y="35.65" width="14.4" height=".7" fill="none" stroke-width="0" connectorname="CAN_H"/>
  <rect id="connector28terminal" x="100.8" y="35.65" width="0" height=".7" fill="none" stroke-width="0"/>
  <text x="85.0003" y="36.7" fill="#8c8c8c" font-family="Noto Sans" font-size="3.5" text-anchor="end">CAN_H</text>
  <line x1="50.4" x2="50.4" y1=".35" y2="14.4" fill="none" stroke="#787878" stroke-linecap="round" stroke-linejoin="round" stroke-width=".7"/>
  <rect id="connector33pin" x="50.05" width=".7" height="14.4" fill="none" stroke-width="0" connectorname="VCC"/>
  <rect id="connector33terminal" x="50.05" width=".7" height="0" fill="none" stroke-width="0"/>
  <g transform="translate(51.8 16)">
   <g transform="rotate(270)">
    <text fill="#8c8c8c" font-family="Noto Sans" font-size="3.5" text-anchor="end">VCC</text>
   </g>
  </g>
  <line x1="50.4" x2="50.4" y1="57.6" y2="71.65" fill="none" stroke="#787878" stroke-linecap="round" stroke-linejoin="round" stroke-width=".7"/>
  <rect id="connector32pin" x="50.05" y="57.6" width=".7" height="14.4" fill="none" stroke-width="0" connectorname="GND"/>
  <rect id="connector32terminal" x="50.05" y="72" width=".7" height="0" fill="none" stroke-width="0"/>
  <g transform="translate(51.8 56)">
   <g transform="rotate(270)">
    <text fill="#8c8c8c" font-family="Noto Sans" font-size="3.5">GND</text>
   </g>
  </g>
  <rect id="connector47pin" x="50.05" y="57.6" width=".7" height="14.4" fill="none" stroke-width="0" connectorname="GND"/>
  <rect id="connector47terminal" x="50.05" y="72" width=".7" height="0" fill="none" stroke-width="0"/>
  <rect id="connector46pin" x="86.4" y="28.45" width="14.4" height=".7" fill="none" stroke-width="0" connectorname="CAN_L"/>
  <rect id="connector46terminal" x="50.386" y="29.149" width=".0288" height=".0014" fill="none" stroke-width="0"/>
  <rect x="100.8" y="28.45" width="0" height=".7" fill="none" stroke-width="0"/>
  <rect id="connector48pin" x="86.4" y="35.65" width="14.4" height=".7" fill="none" stroke-width="0" connectorname="CAN_H"/>
  <rect id="connector48terminal" x="100.8" y="35.65" width="0" height=".7" fill="none" stroke-width="0"/>
 </g>
</svg>
