<?xml version="1.0" encoding="UTF-8"?>
<!-- Created with Fritzing (http://www.fritzing.org/) -->
<svg width=".8in" height="1.1in" baseProfile="tiny" version="1.2" viewBox="0 0 57.6 79.2" xmlns="http://www.w3.org/2000/svg">
 <desc>
  <referenceFile>Adafruit TPS65131 Split Power Supply_schematic.svg</referenceFile>
 </desc>
 <desc>Fritzing schematic generated by brd2svg</desc>
 <g id="schematic">
  <rect x=".45" y="14.4" width="42.75" height="50.4" fill="none" stroke="#000" stroke-linecap="round" stroke-linejoin="round" stroke-width=".9"/>
  <text id="label" x="22.05" y="28.8" fill="#000000" font-family="Noto Sans" font-size="3.5" text-anchor="middle"><tspan x="22.05" y="28.8">Adafruit</tspan> <tspan x="22.05" y="32.3">TPS65131</tspan> <tspan x="22.05" y="35.8">Split</tspan> <tspan x="22.05" y="39.3">Power</tspan> <tspan x="22.05" y="42.8">Supply</tspan></text>
  <line x1="42.85" x2="57.25" y1="28.8" y2="28.8" fill="none" stroke="#787878" stroke-linecap="round" stroke-linejoin="round" stroke-width=".7"/>
  <rect id="connector39pin" x="43.2" y="28.45" width="14.4" height=".7" fill="none" stroke-width="0" connectorname="ENABLE"/>
  <rect id="connector39terminal" x="57.6" y="28.45" width="0" height=".7" fill="none" stroke-width="0"/>
  <text x="41.8" y="29.5" fill="#8c8c8c" font-family="Noto Sans" font-size="3.5" text-anchor="end">ENABLE</text>
  <line x1="14.4" x2="14.4" y1=".35" y2="14.4" fill="none" stroke="#787878" stroke-linecap="round" stroke-linejoin="round" stroke-width=".7"/>
  <rect id="connector35pin" x="14.05" width=".7" height="14.4" fill="none" stroke-width="0" connectorname="+12V"/>
  <rect id="connector35terminal" x="14.749" y="39.586" width=".0014" height=".0288" fill="none" stroke-width="0"/>
  <rect x="14.05" width=".7" height="0" fill="none" stroke-width="0"/>
  <g transform="translate(15.8 16)">
   <g transform="rotate(270)">
    <text fill="#8c8c8c" font-family="Noto Sans" font-size="3.5" text-anchor="end">+12V</text>
   </g>
  </g>
  <line x1="21.6" x2="21.6" y1=".35" y2="14.4" fill="none" stroke="#787878" stroke-linecap="round" stroke-linejoin="round" stroke-width=".7"/>
  <rect id="connector37pin" x="21.25" width=".7" height="14.4" fill="none" stroke-width="0" connectorname="VDD"/>
  <rect id="connector37terminal" x="21.25" width=".7" height="0" fill="none" stroke-width="0"/>
  <g transform="translate(23 16)">
   <g transform="rotate(270)">
    <text fill="#8c8c8c" font-family="Noto Sans" font-size="3.5" text-anchor="end">VDD</text>
   </g>
  </g>
  <line x1="28.8" x2="28.8" y1=".35" y2="14.4" fill="none" stroke="#787878" stroke-linecap="round" stroke-linejoin="round" stroke-width=".7"/>
  <rect id="connector41pin" x="28.45" width=".7" height="14.4" fill="none" stroke-width="0" connectorname="-12V"/>
  <rect id="connector41terminal" x="28.45" width=".7" height="0" fill="none" stroke-width="0"/>
  <g transform="translate(30.2 16)">
   <g transform="rotate(270)">
    <text fill="#8c8c8c" font-family="Noto Sans" font-size="3.5" text-anchor="end">-12V</text>
   </g>
  </g>
  <line x1="28.8" x2="28.8" y1="64.8" y2="78.85" fill="none" stroke="#787878" stroke-linecap="round" stroke-linejoin="round" stroke-width=".7"/>
  <rect id="connector36pin" x="28.45" y="64.8" width=".7" height="14.4" fill="none" stroke-width="0" connectorname="GND"/>
  <rect id="connector36terminal" x="28.45" y="79.2" width=".7" height="0" fill="none" stroke-width="0"/>
  <g transform="translate(30.2 63.2)">
   <g transform="rotate(270)">
    <text fill="#8c8c8c" font-family="Noto Sans" font-size="3.5">GND</text>
   </g>
  </g>
  <rect id="connector38pin" x="28.45" y="64.8" width=".7" height="14.4" fill="none" stroke-width="0" connectorname="GND"/>
  <rect id="connector38terminal" x="28.45" y="79.2" width=".7" height="0" fill="none" stroke-width="0"/>
  <rect id="connector40pin" x="28.45" y="64.8" width=".7" height="14.4" fill="none" stroke-width="0" connectorname="GND"/>
  <rect id="connector40terminal" x="28.45" y="79.2" width=".7" height="0" fill="none" stroke-width="0"/>
 </g>
</svg>
