<?xml version="1.0" encoding="UTF-8"?>
<!DOCTYPE svg>
<!-- Generator: Adobe Illustrator 26.2.1, SVG Export Plug-In . SVG Version: 6.00 Build 0)  -->
<svg width="1.3in" height="2.4in" enable-background="new 0 0 93.6 172.8" version="1.1" viewBox="0 0 93.6 172.8" xml:space="preserve" xmlns="http://www.w3.org/2000/svg" xmlns:xml="http://www.w3.org/XML/1998/namespace">
    <desc>
        <referenceFile>picowbell proto rev B_schematic.svg</referenceFile>
    </desc>
    <metadata>
        <sfw>
            <slices/>
            <sliceSourceBounds x="0" y="0" width="93.6001" height="172.8" bottomLeftOrigin="true"/>
        </sfw>
    </metadata>
    <desc>Fritzing schematic generated by brd2svg</desc>
    <g id="schematic">
        <rect x="14.4" y="14.4" width="64.35" height="144" fill="none" stroke="#000" stroke-linecap="round" stroke-linejoin="round" stroke-width=".9"/>
        <g transform="translate(40.206 76.722)">
            <g id="label" enable-background="new    " font-family="Noto Sans" font-size="2.8">
                <text>Adafruit</text>
                <text x="-1.3311" y="4.2002">PiCowbell</text>
                <text x="-4.4253" y="8.4004">Proto for Pico</text>
                <text x="-9.5669" y="12.5996">Reset &amp; STEMMA QT</text>
            </g>
        </g>
        <polygon id="connector97pin" points="43.2 158.4 43.2 158.4" fill="none"/>
        <polygon id="connector97terminal" points="43.2 158.4 43.2 158.4" fill="none"/>
        <polygon id="connector98pin" points="43.2 158.4 43.2 158.4" fill="none"/>
        <polygon id="connector98terminal" points="43.2 158.4 43.2 158.4" fill="none"/>
        <polygon id="connector99pin" points="43.2 158.4 43.2 158.4" fill="none"/>
        <polygon id="connector99terminal" points="43.2 158.4 43.2 158.4" fill="none"/>
        <polygon id="connector100pin" points="43.2 158.4 43.2 158.4" fill="none"/>
        <polygon id="connector100terminal" points="43.2 158.4 43.2 158.4" fill="none"/>
        <polygon id="connector101pin" points="43.2 158.4 43.2 158.4" fill="none"/>
        <polygon id="connector101terminal" points="43.2 158.4 43.2 158.4" fill="none"/>
        <polygon id="connector102pin" points="43.2 158.4 43.2 158.4" fill="none"/>
        <polygon id="connector102terminal" points="43.2 158.4 43.2 158.4" fill="none"/>
        <polygon id="connector103pin" points="43.2 158.4 43.2 158.4" fill="none"/>
        <polygon id="connector103terminal" points="43.2 158.4 43.2 158.4" fill="none"/>
        <polygon id="connector104pin" points="43.2 158.4 43.2 158.4" fill="none"/>
        <polygon id="connector104terminal" points="43.2 158.4 43.2 158.4" fill="none"/>
        <polygon id="connector105pin" points="43.2 158.4 43.2 158.4" fill="none"/>
        <polygon id="connector105terminal" points="43.2 158.4 43.2 158.4" fill="none"/>
        <polygon id="connector106pin" points="43.2 158.4 43.2 158.4" fill="none"/>
        <polygon id="connector106terminal" points="43.2 158.4 43.2 158.4" fill="none"/>
        <polygon id="connector107pin" points="43.2 158.4 43.2 158.4" fill="none"/>
        <polygon id="connector107terminal" points="43.2 158.4 43.2 158.4" fill="none"/>
        <polygon id="connector108pin" points="43.2 158.4 43.2 158.4" fill="none"/>
        <polygon id="connector108terminal" points="43.2 158.4 43.2 158.4" fill="none"/>
        <polygon id="connector109pin" points="43.2 158.4 43.2 158.4" fill="none"/>
        <polygon id="connector109terminal" points="43.2 158.4 43.2 158.4" fill="none"/>
        <polygon id="connector110pin" points="43.2 158.4 43.2 158.4" fill="none"/>
        <polygon id="connector110terminal" points="43.2 158.4 43.2 158.4" fill="none"/>
        <polygon id="connector111pin" points="43.2 158.4 43.2 158.4" fill="none"/>
        <polygon id="connector111terminal" points="43.2 158.4 43.2 158.4" fill="none"/>
        <polygon id="connector112pin" points="43.2 158.4 43.2 158.4" fill="none"/>
        <polygon id="connector112terminal" points="43.2 158.4 43.2 158.4" fill="none"/>
        <polygon id="connector113pin" points="43.2 158.4 43.2 158.4" fill="none"/>
        <polygon id="connector113terminal" points="43.2 158.4 43.2 158.4" fill="none"/>
        <polygon id="connector114pin" points="43.2 158.4 43.2 158.4" fill="none"/>
        <polygon id="connector114terminal" points="43.2 158.4 43.2 158.4" fill="none"/>
        <polygon id="connector115pin" points="43.2 158.4 43.2 158.4" fill="none"/>
        <polygon id="connector115terminal" points="43.2 158.4 43.2 158.4" fill="none"/>
        <polygon id="connector116pin" points="43.2 158.4 43.2 158.4" fill="none"/>
        <polygon id="connector116terminal" points="43.2 158.4 43.2 158.4" fill="none"/>
        <polygon id="connector117pin" points="43.2 158.4 43.2 158.4" fill="none"/>
        <polygon id="connector117terminal" points="43.2 158.4 43.2 158.4" fill="none"/>
        <polygon id="connector118pin" points="43.2 158.4 43.2 158.4" fill="none"/>
        <polygon id="connector118terminal" points="43.2 158.4 43.2 158.4" fill="none"/>
        <polygon id="connector119pin" points="43.2 158.4 43.2 158.4" fill="none"/>
        <polygon id="connector119terminal" points="43.2 158.4 43.2 158.4" fill="none"/>
        <polygon id="connector120pin" points="43.2 158.4 43.2 158.4" fill="none"/>
        <polygon id="connector120terminal" points="43.2 158.4 43.2 158.4" fill="none"/>
        <polygon id="connector121pin" points="43.2 158.4 43.2 158.4" fill="none"/>
        <polygon id="connector121terminal" points="43.2 158.4 43.2 158.4" fill="none"/>
        <polygon id="connector122pin" points="43.2 158.4 43.2 158.4" fill="none"/>
        <polygon id="connector122terminal" points="43.2 158.4 43.2 158.4" fill="none"/>
        <polygon id="connector123pin" points="43.2 158.4 43.2 158.4" fill="none"/>
        <polygon id="connector123terminal" points="43.2 158.4 43.2 158.4" fill="none"/>
        <polygon id="connector124pin" points="43.2 158.4 43.2 158.4" fill="none"/>
        <polygon id="connector124terminal" points="43.2 158.4 43.2 158.4" fill="none"/>
        <polygon id="connector125pin" points="43.2 158.4 43.2 158.4" fill="none"/>
        <polygon id="connector125terminal" points="43.2 158.4 43.2 158.4" fill="none"/>
        <polygon id="connector126pin" points="43.2 158.4 43.2 158.4" fill="none"/>
        <polygon id="connector126terminal" points="43.2 158.4 43.2 158.4" fill="none"/>
        <polygon id="connector127pin" points="43.2 158.4 43.2 158.4" fill="none"/>
        <polygon id="connector127terminal" points="43.2 158.4 43.2 158.4" fill="none"/>
        <polygon id="connector128pin" points="43.2 158.4 43.2 158.4" fill="none"/>
        <polygon id="connector128terminal" points="43.2 158.4 43.2 158.4" fill="none"/>
        <polygon id="connector129pin" points="43.2 158.4 43.2 158.4" fill="none"/>
        <polygon id="connector129terminal" points="43.2 158.4 43.2 158.4" fill="none"/>
        <polygon id="connector130pin" points="43.2 158.4 43.2 158.4" fill="none"/>
        <polygon id="connector130terminal" points="43.2 158.4 43.2 158.4" fill="none"/>
        <polygon id="connector131pin" points="43.2 158.4 43.2 158.4" fill="none"/>
        <polygon id="connector131terminal" points="43.2 158.4 43.2 158.4" fill="none"/>
        <polygon id="connector132pin" points="43.2 158.4 43.2 158.4" fill="none"/>
        <polygon id="connector132terminal" points="43.2 158.4 43.2 158.4" fill="none"/>
        <polygon id="connector133pin" points="43.2 158.4 43.2 158.4" fill="none"/>
        <polygon id="connector133terminal" points="43.2 158.4 43.2 158.4" fill="none"/>
        <polygon id="connector134pin" points="43.2 158.4 43.2 158.4" fill="none"/>
        <polygon id="connector134terminal" points="43.2 158.4 43.2 158.4" fill="none"/>
        <polygon id="connector135pin" points="43.2 158.4 43.2 158.4" fill="none"/>
        <polygon id="connector135terminal" points="43.2 158.4 43.2 158.4" fill="none"/>
        <polygon id="connector136pin" points="43.2 158.4 43.2 158.4" fill="none"/>
        <polygon id="connector136terminal" points="43.2 158.4 43.2 158.4" fill="none"/>
        <polygon id="connector137pin" points="43.2 158.4 43.2 158.4" fill="none"/>
        <polygon id="connector137terminal" points="43.2 158.4 43.2 158.4" fill="none"/>
        <polygon id="connector138pin" points="43.2 158.4 43.2 158.4" fill="none"/>
        <polygon id="connector138terminal" points="43.2 158.4 43.2 158.4" fill="none"/>
        <polygon id="connector139pin" points="43.2 158.4 43.2 158.4" fill="none"/>
        <polygon id="connector139terminal" points="43.2 158.4 43.2 158.4" fill="none"/>
        <polygon id="connector140pin" points="43.2 158.4 43.2 158.4" fill="none"/>
        <polygon id="connector140terminal" points="43.2 158.4 43.2 158.4" fill="none"/>
        <polygon id="connector141pin" points="43.2 158.4 43.2 158.4" fill="none"/>
        <polygon id="connector141terminal" points="43.2 158.4 43.2 158.4" fill="none"/>
        <polygon id="connector142pin" points="43.2 158.4 43.2 158.4" fill="none"/>
        <polygon id="connector142terminal" points="43.2 158.4 43.2 158.4" fill="none"/>
        <polygon id="connector143pin" points="43.2 158.4 43.2 158.4" fill="none"/>
        <polygon id="connector143terminal" points="43.2 158.4 43.2 158.4" fill="none"/>
        <polygon id="connector144pin" points="43.2 158.4 43.2 158.4" fill="none"/>
        <polygon id="connector144terminal" points="43.2 158.4 43.2 158.4" fill="none"/>
        <polygon id="connector145pin" points="43.2 158.4 43.2 158.4" fill="none"/>
        <polygon id="connector145terminal" points="43.2 158.4 43.2 158.4" fill="none"/>
        <polygon id="connector146pin" points="43.2 158.4 43.2 158.4" fill="none"/>
        <polygon id="connector146terminal" points="43.2 158.4 43.2 158.4" fill="none"/>
        <polygon id="connector147pin" points="43.2 158.4 43.2 158.4" fill="none"/>
        <polygon id="connector147terminal" points="43.2 158.4 43.2 158.4" fill="none"/>
        <polygon id="connector148pin" points="43.2 158.4 43.2 158.4" fill="none"/>
        <polygon id="connector148terminal" points="43.2 158.4 43.2 158.4" fill="none"/>
        <polygon id="connector149pin" points="43.2 158.4 43.2 158.4" fill="none"/>
        <polygon id="connector149terminal" points="43.2 158.4 43.2 158.4" fill="none"/>
        <polygon id="connector150pin" points="43.2 158.4 43.2 158.4" fill="none"/>
        <polygon id="connector150terminal" points="43.2 158.4 43.2 158.4" fill="none"/>
        <polygon id="connector151pin" points="43.2 158.4 43.2 158.4" fill="none"/>
        <polygon id="connector151terminal" points="43.2 158.4 43.2 158.4" fill="none"/>
        <polygon id="connector152pin" points="43.2 158.4 43.2 158.4" fill="none"/>
        <polygon id="connector152terminal" points="43.2 158.4 43.2 158.4" fill="none"/>
        <polygon id="connector153pin" points="43.2 158.4 43.2 158.4" fill="none"/>
        <polygon id="connector153terminal" points="43.2 158.4 43.2 158.4" fill="none"/>
        <polygon id="connector154pin" points="43.2 158.4 43.2 158.4" fill="none"/>
        <polygon id="connector154terminal" points="43.2 158.4 43.2 158.4" fill="none"/>
        <polygon id="connector155pin" points="43.2 158.4 43.2 158.4" fill="none"/>
        <polygon id="connector155terminal" points="43.2 158.4 43.2 158.4" fill="none"/>
        <polygon id="connector156pin" points="43.2 158.4 43.2 158.4" fill="none"/>
        <polygon id="connector156terminal" points="43.2 158.4 43.2 158.4" fill="none"/>
        <polygon id="connector157pin" points="43.2 158.4 43.2 158.4" fill="none"/>
        <polygon id="connector157terminal" points="43.2 158.4 43.2 158.4" fill="none"/>
        <polygon id="connector158pin" points="43.2 158.4 43.2 158.4" fill="none"/>
        <polygon id="connector158terminal" points="43.2 158.4 43.2 158.4" fill="none"/>
        <polygon id="connector159pin" points="43.2 158.4 43.2 158.4" fill="none"/>
        <polygon id="connector159terminal" points="43.2 158.4 43.2 158.4" fill="none"/>
        <polygon id="connector160pin" points="43.2 158.4 43.2 158.4" fill="none"/>
        <polygon id="connector160terminal" points="43.2 158.4 43.2 158.4" fill="none"/>
        <line x1=".35" x2="14.4" y1="36" y2="36" fill="none" stroke="#787878" stroke-linecap="round" stroke-linejoin="round" stroke-width=".7"/>
        <rect id="connector5pin" y="35.65" width="14.4" height=".7" fill="none"/>
        <rect id="connector5terminal" y="35.65" width="0" height=".7" fill="none"/>
        <g transform="translate(15.8 36.7)">
            <text fill="#8C8C8C" font-family="Noto Sans" font-size="2.8">IO0</text>
        </g>
        <line x1=".35" x2="14.4" y1="43.2" y2="43.2" fill="none" stroke="#787878" stroke-linecap="round" stroke-linejoin="round" stroke-width=".7"/>
        <rect id="connector6pin" y="42.85" width="14.4" height=".7" fill="none"/>
        <rect id="connector6terminal" y="42.85" width="0" height=".7" fill="none"/>
        <g transform="translate(15.8 43.9)">
            <text fill="#8C8C8C" font-family="Noto Sans" font-size="2.8">IO1</text>
        </g>
        <line x1=".35" x2="14.4" y1="50.4" y2="50.4" fill="none" stroke="#787878" stroke-linecap="round" stroke-linejoin="round" stroke-width=".7"/>
        <rect id="connector8pin" y="50.05" width="14.4" height=".7" fill="none"/>
        <rect id="connector8terminal" y="50.05" width="0" height=".7" fill="none"/>
        <g transform="translate(15.8 51.1)">
            <text fill="#8C8C8C" font-family="Noto Sans" font-size="2.8">IO2</text>
        </g>
        <line x1=".35" x2="14.4" y1="57.6" y2="57.6" fill="none" stroke="#787878" stroke-linecap="round" stroke-linejoin="round" stroke-width=".7"/>
        <rect id="connector9pin" y="57.25" width="14.4" height=".7" fill="none"/>
        <rect id="connector9terminal" y="57.25" width="0" height=".7" fill="none"/>
        <g transform="translate(15.8 58.3)">
            <text fill="#8C8C8C" font-family="Noto Sans" font-size="2.8">IO3</text>
        </g>
        <line x1=".35" x2="14.4" y1="64.8" y2="64.8" fill="none" stroke="#787878" stroke-linecap="round" stroke-linejoin="round" stroke-width=".7"/>
        <rect id="connector10pin" y="64.45" width="14.4" height=".7" fill="none"/>
        <rect id="connector10terminal" y="64.45" width="0" height=".7" fill="none"/>
        <g transform="translate(15.8 65.5)">
            <text fill="#8C8C8C" font-family="Noto Sans" font-size="2.8">IO4</text>
        </g>
        <line x1=".35" x2="14.4" y1="72" y2="72" fill="none" stroke="#787878" stroke-linecap="round" stroke-linejoin="round" stroke-width=".7"/>
        <rect id="connector11pin" y="71.65" width="14.4" height=".7" fill="none"/>
        <rect id="connector11terminal" y="71.65" width="0" height=".7" fill="none"/>
        <g transform="translate(15.8 72.7)">
            <text fill="#8C8C8C" font-family="Noto Sans" font-size="2.8">IO5</text>
        </g>
        <line x1=".35" x2="14.4" y1="79.2" y2="79.2" fill="none" stroke="#787878" stroke-linecap="round" stroke-linejoin="round" stroke-width=".7"/>
        <rect id="connector13pin" y="78.85" width="14.4" height=".7" fill="none"/>
        <rect id="connector13terminal" y="78.85" width="0" height=".7" fill="none"/>
        <g transform="translate(15.8 79.9)">
            <text fill="#8C8C8C" font-family="Noto Sans" font-size="2.8">IO6</text>
        </g>
        <line x1=".35" x2="14.4" y1="86.4" y2="86.4" fill="none" stroke="#787878" stroke-linecap="round" stroke-linejoin="round" stroke-width=".7"/>
        <rect id="connector14pin" y="86.05" width="14.4" height=".7" fill="none"/>
        <rect id="connector14terminal" y="86.05" width="0" height=".7" fill="none"/>
        <g transform="translate(15.8 87.1)">
            <text fill="#8C8C8C" font-family="Noto Sans" font-size="2.8">IO7</text>
        </g>
        <line x1=".35" x2="14.4" y1="93.6" y2="93.6" fill="none" stroke="#787878" stroke-linecap="round" stroke-linejoin="round" stroke-width=".7"/>
        <rect id="connector15pin" y="93.25" width="14.4" height=".7" fill="none"/>
        <rect id="connector15terminal" y="93.25" width="0" height=".7" fill="none"/>
        <g transform="translate(15.8 94.3)">
            <text fill="#8C8C8C" font-family="Noto Sans" font-size="2.8">IO8</text>
        </g>
        <line x1=".35" x2="14.4" y1="100.8" y2="100.8" fill="none" stroke="#787878" stroke-linecap="round" stroke-linejoin="round" stroke-width=".7"/>
        <rect id="connector16pin" y="100.45" width="14.4" height=".7" fill="none"/>
        <rect id="connector16terminal" y="100.45" width="0" height=".7" fill="none"/>
        <g transform="translate(15.8 101.5)">
            <text fill="#8C8C8C" font-family="Noto Sans" font-size="2.8">IO9</text>
        </g>
        <line x1=".35" x2="14.4" y1="108" y2="108" fill="none" stroke="#787878" stroke-linecap="round" stroke-linejoin="round" stroke-width=".7"/>
        <rect id="connector18pin" y="107.65" width="14.4" height=".7" fill="none"/>
        <rect id="connector18terminal" y="107.65" width="0" height=".7" fill="none"/>
        <g transform="translate(15.8 108.7)">
            <text fill="#8C8C8C" font-family="Noto Sans" font-size="2.8">IO10</text>
        </g>
        <line x1=".35" x2="14.4" y1="115.2" y2="115.2" fill="none" stroke="#787878" stroke-linecap="round" stroke-linejoin="round" stroke-width=".7"/>
        <rect id="connector19pin" y="114.85" width="14.4" height=".7" fill="none"/>
        <rect id="connector19terminal" y="114.85" width="0" height=".7" fill="none"/>
        <g transform="translate(15.8 115.9)">
            <text fill="#8C8C8C" font-family="Noto Sans" font-size="2.8">IO11</text>
        </g>
        <line x1=".35" x2="14.4" y1="122.4" y2="122.4" fill="none" stroke="#787878" stroke-linecap="round" stroke-linejoin="round" stroke-width=".7"/>
        <rect id="connector20pin" y="122.05" width="14.4" height=".7" fill="none"/>
        <rect id="connector20terminal" y="122.05" width="0" height=".7" fill="none"/>
        <g transform="translate(15.8 123.1)">
            <text fill="#8C8C8C" font-family="Noto Sans" font-size="2.8">IO12</text>
        </g>
        <line x1=".35" x2="14.4" y1="129.6" y2="129.6" fill="none" stroke="#787878" stroke-linecap="round" stroke-linejoin="round" stroke-width=".7"/>
        <rect id="connector21pin" y="129.25" width="14.4" height=".7" fill="none"/>
        <rect id="connector21terminal" y="129.25" width="0" height=".7" fill="none"/>
        <g transform="translate(15.8 130.3)">
            <text fill="#8C8C8C" font-family="Noto Sans" font-size="2.8">IO13</text>
        </g>
        <line x1=".35" x2="14.4" y1="136.8" y2="136.8" fill="none" stroke="#787878" stroke-linecap="round" stroke-linejoin="round" stroke-width=".7"/>
        <rect id="connector23pin" y="136.45" width="14.4" height=".7" fill="none"/>
        <rect id="connector23terminal" y="136.45" width="0" height=".7" fill="none"/>
        <g transform="translate(15.8 137.5)">
            <text fill="#8C8C8C" font-family="Noto Sans" font-size="2.8">IO14</text>
        </g>
        <line x1=".35" x2="14.4" y1="144" y2="144" fill="none" stroke="#787878" stroke-linecap="round" stroke-linejoin="round" stroke-width=".7"/>
        <rect id="connector24pin" y="143.65" width="14.4" height=".7" fill="none"/>
        <rect id="connector24terminal" y="143.65" width="0" height=".7" fill="none"/>
        <g transform="translate(15.8 144.7)">
            <text fill="#8C8C8C" font-family="Noto Sans" font-size="2.8">IO15</text>
        </g>
        <line x1="78.85" x2="93.25" y1="36" y2="36" fill="none" stroke="#787878" stroke-linecap="round" stroke-linejoin="round" stroke-width=".7"/>
        <rect id="connector41pin" x="79.2" y="35.65" width="14.4" height=".7" fill="none"/>
        <rect id="connector41terminal" x="93.6" y="35.65" width="0" height=".7" fill="none"/>
        <g transform="translate(72.46 36.7)">
            <text fill="#8C8C8C" font-family="Noto Sans" font-size="2.8">!EN</text>
        </g>
        <line x1="78.85" x2="93.25" y1="43.2" y2="43.2" fill="none" stroke="#787878" stroke-linecap="round" stroke-linejoin="round" stroke-width=".7"/>
        <rect id="connector38pin" x="79.2" y="42.85" width="14.4" height=".7" fill="none"/>
        <rect id="connector38terminal" x="93.6" y="42.85" width="0" height=".7" fill="none"/>
        <g transform="translate(71.351 43.9)">
            <text fill="#8C8C8C" font-family="Noto Sans" font-size="2.8">AD2</text>
        </g>
        <line x1="78.85" x2="93.25" y1="50.4" y2="50.4" fill="none" stroke="#787878" stroke-linecap="round" stroke-linejoin="round" stroke-width=".7"/>
        <rect id="connector36pin" x="79.2" y="50.05" width="14.4" height=".7" fill="none"/>
        <rect id="connector36terminal" x="93.6" y="50.05" width="0" height=".7" fill="none"/>
        <g transform="translate(71.351 51.1)">
            <text fill="#8C8C8C" font-family="Noto Sans" font-size="2.8">AD1</text>
        </g>
        <line x1="78.85" x2="93.25" y1="57.6" y2="57.6" fill="none" stroke="#787878" stroke-linecap="round" stroke-linejoin="round" stroke-width=".7"/>
        <rect id="connector35pin" x="79.2" y="57.25" width="14.4" height=".7" fill="none"/>
        <rect id="connector35terminal" x="93.6" y="57.25" width="0" height=".7" fill="none"/>
        <g transform="translate(71.351 58.3)">
            <text fill="#8C8C8C" font-family="Noto Sans" font-size="2.8">AD0</text>
        </g>
        <line x1="78.85" x2="93.25" y1="64.8" y2="64.8" fill="none" stroke="#787878" stroke-linecap="round" stroke-linejoin="round" stroke-width=".7"/>
        <rect id="connector34pin" x="79.2" y="64.45" width="14.4" height=".7" fill="none"/>
        <rect id="connector34terminal" x="93.6" y="64.45" width="0" height=".7" fill="none"/>
        <g transform="translate(67.466 65.5)">
            <text fill="#8C8C8C" font-family="Noto Sans" font-size="2.8">!RESET</text>
        </g>
        <line x1="78.85" x2="93.25" y1="72" y2="72" fill="none" stroke="#787878" stroke-linecap="round" stroke-linejoin="round" stroke-width=".7"/>
        <rect id="connector33pin" x="79.2" y="71.65" width="14.4" height=".7" fill="none"/>
        <rect id="connector33terminal" x="93.6" y="71.65" width="0" height=".7" fill="none"/>
        <g transform="translate(70.195 72.7)">
            <text fill="#8C8C8C" font-family="Noto Sans" font-size="2.8">IO22</text>
        </g>
        <line x1="78.85" x2="93.25" y1="79.2" y2="79.2" fill="none" stroke="#787878" stroke-linecap="round" stroke-linejoin="round" stroke-width=".7"/>
        <rect id="connector31pin" x="79.2" y="78.85" width="14.4" height=".7" fill="none"/>
        <rect id="connector31terminal" x="93.6" y="78.85" width="0" height=".7" fill="none"/>
        <g transform="translate(70.195 79.9)">
            <text fill="#8C8C8C" font-family="Noto Sans" font-size="2.8">IO21</text>
        </g>
        <line x1="78.85" x2="93.25" y1="86.4" y2="86.4" fill="none" stroke="#787878" stroke-linecap="round" stroke-linejoin="round" stroke-width=".7"/>
        <rect id="connector30pin" x="79.2" y="86.05" width="14.4" height=".7" fill="none"/>
        <rect id="connector30terminal" x="93.6" y="86.05" width="0" height=".7" fill="none"/>
        <g transform="translate(70.195 87.1)">
            <text fill="#8C8C8C" font-family="Noto Sans" font-size="2.8">IO20</text>
        </g>
        <line x1="78.85" x2="93.25" y1="93.6" y2="93.6" fill="none" stroke="#787878" stroke-linecap="round" stroke-linejoin="round" stroke-width=".7"/>
        <rect id="connector29pin" x="79.2" y="93.25" width="14.4" height=".7" fill="none"/>
        <rect id="connector29terminal" x="93.6" y="93.25" width="0" height=".7" fill="none"/>
        <g transform="translate(70.195 94.3)">
            <text fill="#8C8C8C" font-family="Noto Sans" font-size="2.8">IO19</text>
        </g>
        <line x1="78.85" x2="93.25" y1="100.8" y2="100.8" fill="none" stroke="#787878" stroke-linecap="round" stroke-linejoin="round" stroke-width=".7"/>
        <rect id="connector28pin" x="79.2" y="100.45" width="14.4" height=".7" fill="none"/>
        <rect id="connector28terminal" x="93.6" y="100.45" width="0" height=".7" fill="none"/>
        <g transform="translate(70.195 101.5)">
            <text fill="#8C8C8C" font-family="Noto Sans" font-size="2.8">IO18</text>
        </g>
        <line x1="78.85" x2="93.25" y1="108" y2="108" fill="none" stroke="#787878" stroke-linecap="round" stroke-linejoin="round" stroke-width=".7"/>
        <rect id="connector26pin" x="79.2" y="107.65" width="14.4" height=".7" fill="none"/>
        <rect id="connector26terminal" x="93.6" y="107.65" width="0" height=".7" fill="none"/>
        <g transform="translate(70.195 108.7)">
            <text fill="#8C8C8C" font-family="Noto Sans" font-size="2.8">IO17</text>
        </g>
        <line x1="78.85" x2="93.25" y1="115.2" y2="115.2" fill="none" stroke="#787878" stroke-linecap="round" stroke-linejoin="round" stroke-width=".7"/>
        <rect id="connector25pin" x="79.2" y="114.85" width="14.4" height=".7" fill="none"/>
        <rect id="connector25terminal" x="93.6" y="114.85" width="0" height=".7" fill="none"/>
        <g transform="translate(70.195 115.9)">
            <text fill="#8C8C8C" font-family="Noto Sans" font-size="2.8">IO16</text>
        </g>
        <line x1="28.8" x2="28.8" y1=".35" y2="14.4" fill="none" stroke="#787878" stroke-linecap="round" stroke-linejoin="round" stroke-width=".7"/>
        <rect id="connector39pin" x="28.45" width=".7" height="14.4" fill="none"/>
        <polygon id="connector39terminal" points="28.45 0 29.15 0 29.15 0" fill="none"/>
        <g transform="translate(30.2 16)">
            
                <g transform="rotate(270)">
                    
                        <g transform="translate(-7.6191 1.1207e-5)">
                            <text fill="#8C8C8C" font-family="Noto Sans" font-size="2.8">VREF</text>
                        </g>
                    
                </g>
            
        </g>
        <line x1="36" x2="36" y1=".35" y2="14.4" fill="none" stroke="#787878" stroke-linecap="round" stroke-linejoin="round" stroke-width=".7"/>
        <rect id="connector40pin" x="35.65" width=".7" height="14.4" fill="none"/>
        <polygon id="connector40terminal" points="35.65 0 36.35 0 36.35 0" fill="none"/>
        <g transform="translate(37.4 16)">
            
                <g transform="rotate(270)">
                    
                        <g transform="translate(-6.7812 2.2414e-5)">
                            <text fill="#8C8C8C" font-family="Noto Sans" font-size="2.8">3.3V</text>
                        </g>
                    
                </g>
            
        </g>
        <line x1="43.2" x2="43.2" y1=".35" y2="14.4" fill="none" stroke="#787878" stroke-linecap="round" stroke-linejoin="round" stroke-width=".7"/>
        <rect id="connector43pin" x="42.85" width=".7" height="14.4" fill="none"/>
        <polygon id="connector43terminal" points="42.85 0 43.55 0 43.55 0" fill="none"/>
        <g transform="translate(44.6 16)">
            
                <g transform="rotate(270)">
                    
                        <g transform="translate(-7.4307 -2.2414e-5)">
                            <text fill="#8C8C8C" font-family="Noto Sans" font-size="2.8">VSYS</text>
                        </g>
                    
                </g>
            
        </g>
        <line x1="50.4" x2="50.4" y1=".35" y2="14.4" fill="none" stroke="#787878" stroke-linecap="round" stroke-linejoin="round" stroke-width=".7"/>
        <rect id="connector44pin" x="50.05" width=".7" height="14.4" fill="none"/>
        <polygon id="connector44terminal" points="50.05 0 50.75 0 50.75 0" fill="none"/>
        <g transform="translate(51.8 16)">
            
                <g transform="rotate(270)">
                    
                        <g transform="translate(-8.4219 -1.1207e-5)">
                            <text fill="#8C8C8C" font-family="Noto Sans" font-size="2.8">VBUS</text>
                        </g>
                    
                </g>
            
        </g>
        <line x1="43.2" x2="43.2" y1="158.4" y2="172.45" fill="none" stroke="#787878" stroke-linecap="round" stroke-linejoin="round" stroke-width=".7"/>
        <rect id="connector7pin" x="42.85" y="158.4" width=".7" height="14.4" fill="none"/>
        <polygon id="connector7terminal" points="42.85 172.8 43.55 172.8 43.55 172.8" fill="none"/>
        <g transform="translate(44.6 156.8)">
            
                <g transform="rotate(270)">
                    
                        <g transform="translate(2e-4 -2.2414e-5)">
                            <text fill="#8C8C8C" font-family="Noto Sans" font-size="2.8">GND</text>
                        </g>
                    
                </g>
            
        </g>
        <rect id="connector73pin" x="50.05" width=".7" height="14.4" fill="none"/>
        <polygon id="connector73terminal" points="50.05 0 50.75 0 50.75 0" fill="none"/>
        <rect id="connector74pin" x="42.85" width=".7" height="14.4" fill="none"/>
        <polygon id="connector74terminal" points="42.85 0 43.55 0 43.55 0" fill="none"/>
        <rect id="connector77pin" x="35.65" width=".7" height="14.4" fill="none"/>
        <polygon id="connector77terminal" points="35.65 0 36.35 0 36.35 0" fill="none"/>
        <rect id="connector46pin" x="35.65" width=".7" height="14.4" fill="none"/>
        <polygon id="connector46terminal" points="35.65 0 36.35 0 36.35 0" fill="none"/>
        <rect id="connector78pin" x="28.45" width=".7" height="14.4" fill="none"/>
        <polygon id="connector78terminal" points="28.45 0 29.15 0 29.15 0" fill="none"/>
        <rect id="connector12pin" x="42.85" y="158.4" width=".7" height="14.4" fill="none"/>
        <polygon id="connector12terminal" points="42.85 172.8 43.55 172.8 43.55 172.8" fill="none"/>
        <rect id="connector17pin" x="42.85" y="158.4" width=".7" height="14.4" fill="none"/>
        <polygon id="connector17terminal" points="42.85 172.8 43.55 172.8 43.55 172.8" fill="none"/>
        <rect id="connector22pin" x="42.85" y="158.4" width=".7" height="14.4" fill="none"/>
        <polygon id="connector22terminal" points="42.85 172.8 43.55 172.8 43.55 172.8" fill="none"/>
        <rect id="connector27pin" x="42.85" y="158.4" width=".7" height="14.4" fill="none"/>
        <polygon id="connector27terminal" points="42.85 172.8 43.55 172.8 43.55 172.8" fill="none"/>
        <rect id="connector32pin" x="42.85" y="158.4" width=".7" height="14.4" fill="none"/>
        <polygon id="connector32terminal" points="42.85 172.8 43.55 172.8 43.55 172.8" fill="none"/>
        <rect id="connector37pin" x="42.85" y="158.4" width=".7" height="14.4" fill="none"/>
        <polygon id="connector37terminal" points="42.85 172.8 43.55 172.8 43.55 172.8" fill="none"/>
        <rect id="connector42pin" x="42.85" y="158.4" width=".7" height="14.4" fill="none"/>
        <polygon id="connector42terminal" points="42.85 172.8 43.55 172.8 43.55 172.8" fill="none"/>
        <rect id="connector55pin" x="42.85" y="158.4" width=".7" height="14.4" fill="none"/>
        <polygon id="connector55terminal" points="42.85 172.8 43.55 172.8 43.55 172.8" fill="none"/>
        <rect id="connector60pin" x="42.85" y="158.4" width=".7" height="14.4" fill="none"/>
        <polygon id="connector60terminal" points="42.85 172.8 43.55 172.8 43.55 172.8" fill="none"/>
        <rect id="connector65pin" x="42.85" y="158.4" width=".7" height="14.4" fill="none"/>
        <polygon id="connector65terminal" points="42.85 172.8 43.55 172.8 43.55 172.8" fill="none"/>
        <rect id="connector70pin" x="42.85" y="158.4" width=".7" height="14.4" fill="none"/>
        <polygon id="connector70terminal" points="42.85 172.8 43.55 172.8 43.55 172.8" fill="none"/>
        <rect id="connector75pin" x="42.85" y="158.4" width=".7" height="14.4" fill="none"/>
        <polygon id="connector75terminal" points="42.85 172.8 43.55 172.8 43.55 172.8" fill="none"/>
        <rect id="connector80pin" x="42.85" y="158.4" width=".7" height="14.4" fill="none"/>
        <polygon id="connector80terminal" points="42.85 172.8 43.55 172.8 43.55 172.8" fill="none"/>
        <rect id="connector85pin" x="42.85" y="158.4" width=".7" height="14.4" fill="none"/>
        <polygon id="connector85terminal" points="42.85 172.8 43.55 172.8 43.55 172.8" fill="none"/>
        <rect id="connector90pin" x="42.85" y="158.4" width=".7" height="14.4" fill="none"/>
        <polygon id="connector90terminal" points="42.85 172.8 43.55 172.8 43.55 172.8" fill="none"/>
        <rect id="connector45pin" x="42.85" y="158.4" width=".7" height="14.4" fill="none"/>
        <polygon id="connector45terminal" points="42.85 172.8 43.55 172.8 43.55 172.8" fill="none"/>
        <rect id="connector53pin" y="35.65" width="14.4" height=".7" fill="none"/>
        <rect id="connector53terminal" y="35.65" width="0" height=".7" fill="none"/>
        <rect id="connector54pin" y="42.85" width="14.4" height=".7" fill="none"/>
        <rect id="connector54terminal" y="42.85" width="0" height=".7" fill="none"/>
        <rect id="connector56pin" y="50.05" width="14.4" height=".7" fill="none"/>
        <rect id="connector56terminal" y="50.05" width="0" height=".7" fill="none"/>
        <rect id="connector57pin" y="57.25" width="14.4" height=".7" fill="none"/>
        <rect id="connector57terminal" y="57.25" width="0" height=".7" fill="none"/>
        <rect id="connector58pin" y="64.45" width="14.4" height=".7" fill="none"/>
        <rect id="connector58terminal" y="64.45" width="0" height=".7" fill="none"/>
        <rect id="connector47pin" y="64.45" width="14.4" height=".7" fill="none"/>
        <rect id="connector47terminal" y="64.45" width="0" height=".7" fill="none"/>
        <rect id="connector59pin" y="71.65" width="14.4" height=".7" fill="none"/>
        <rect id="connector59terminal" y="71.65" width="0" height=".7" fill="none"/>
        <rect id="connector48pin" y="71.65" width="14.4" height=".7" fill="none"/>
        <rect id="connector48terminal" y="71.65" width="0" height=".7" fill="none"/>
        <rect id="connector61pin" y="78.85" width="14.4" height=".7" fill="none"/>
        <rect id="connector61terminal" y="78.85" width="0" height=".7" fill="none"/>
        <rect id="connector62pin" y="86.05" width="14.4" height=".7" fill="none"/>
        <rect id="connector62terminal" y="86.05" width="0" height=".7" fill="none"/>
        <rect id="connector63pin" y="93.25" width="14.4" height=".7" fill="none"/>
        <rect id="connector63terminal" y="93.25" width="0" height=".7" fill="none"/>
        <rect id="connector64pin" y="100.45" width="14.4" height=".7" fill="none"/>
        <rect id="connector64terminal" y="100.45" width="0" height=".7" fill="none"/>
        <rect id="connector66pin" y="107.65" width="14.4" height=".7" fill="none"/>
        <rect id="connector66terminal" y="107.65" width="0" height=".7" fill="none"/>
        <rect id="connector67pin" y="114.85" width="14.4" height=".7" fill="none"/>
        <rect id="connector67terminal" y="114.85" width="0" height=".7" fill="none"/>
        <rect id="connector68pin" y="122.05" width="14.4" height=".7" fill="none"/>
        <rect id="connector68terminal" y="122.05" width="0" height=".7" fill="none"/>
        <rect id="connector69pin" y="129.25" width="14.4" height=".7" fill="none"/>
        <rect id="connector69terminal" y="129.25" width="0" height=".7" fill="none"/>
        <rect id="connector71pin" y="136.45" width="14.4" height=".7" fill="none"/>
        <rect id="connector71terminal" y="136.45" width="0" height=".7" fill="none"/>
        <rect id="connector72pin" y="143.65" width="14.4" height=".7" fill="none"/>
        <rect id="connector72terminal" y="143.65" width="0" height=".7" fill="none"/>
        <rect id="connector76pin" x="79.2" y="35.65" width="14.4" height=".7" fill="none"/>
        <rect id="connector76terminal" x="93.6" y="35.65" width="0" height=".7" fill="none"/>
        <rect id="connector79pin" x="79.2" y="42.85" width="14.4" height=".7" fill="none"/>
        <rect id="connector79terminal" x="93.6" y="42.85" width="0" height=".7" fill="none"/>
        <rect id="connector81pin" x="79.2" y="50.05" width="14.4" height=".7" fill="none"/>
        <rect id="connector81terminal" x="93.6" y="50.05" width="0" height=".7" fill="none"/>
        <rect id="connector82pin" x="79.2" y="57.25" width="14.4" height=".7" fill="none"/>
        <rect id="connector82terminal" x="93.6" y="57.25" width="0" height=".7" fill="none"/>
        <rect id="connector83pin" x="79.2" y="64.45" width="14.4" height=".7" fill="none"/>
        <rect id="connector83terminal" x="93.6" y="64.45" width="0" height=".7" fill="none"/>
        <rect id="connector84pin" x="79.2" y="71.65" width="14.4" height=".7" fill="none"/>
        <rect id="connector84terminal" x="93.6" y="71.65" width="0" height=".7" fill="none"/>
        <rect id="connector86pin" x="79.2" y="78.85" width="14.4" height=".7" fill="none"/>
        <rect id="connector86terminal" x="93.6" y="78.85" width="0" height=".7" fill="none"/>
        <rect id="connector87pin" x="79.2" y="86.05" width="14.4" height=".7" fill="none"/>
        <rect id="connector87terminal" x="93.6" y="86.05" width="0" height=".7" fill="none"/>
        <rect id="connector88pin" x="79.2" y="93.25" width="14.4" height=".7" fill="none"/>
        <rect id="connector88terminal" x="93.6" y="93.25" width="0" height=".7" fill="none"/>
        <rect id="connector89pin" x="79.2" y="100.45" width="14.4" height=".7" fill="none"/>
        <rect id="connector89terminal" x="93.6" y="100.45" width="0" height=".7" fill="none"/>
        <rect id="connector91pin" x="79.2" y="107.65" width="14.4" height=".7" fill="none"/>
        <rect id="connector91terminal" x="93.6" y="107.65" width="0" height=".7" fill="none"/>
        <rect id="connector92pin" x="79.2" y="114.85" width="14.4" height=".7" fill="none"/>
        <rect id="connector92terminal" x="93.6" y="114.85" width="0" height=".7" fill="none"/>
    </g>
</svg>
