<?xml version="1.0" encoding="UTF-8"?>
<!-- Created with Fritzing (http://www.fritzing.org/) -->
<svg width="1.4in" height="2.3in" baseProfile="tiny" version="1.2" viewBox="0 0 100.8 165.6" xmlns="http://www.w3.org/2000/svg">
 <desc>
  <referenceFile>Adafruit 1.8 TFT Shield V2_schematic.svg</referenceFile>
 </desc>
 <desc>Fritzing schematic generated by brd2svg</desc>
 <g id="schematic">
  <rect x="14.4" y="14.4" width="71.55" height="136.8" fill="none" stroke="#000" stroke-linecap="round" stroke-linejoin="round" stroke-width=".9"/>
  <text id="label" x="50.4" y="72.2002" fill="#000000" font-family="Noto Sans" font-size="3.5" text-anchor="middle"><tspan x="50.4" y="72.2002">Adafruit</tspan> <tspan x="50.4" y="75.7001">1.8</tspan> <tspan x="50.4" y="79.2">TFT</tspan> <tspan x="50.4" y="82.6999">Shield</tspan></text>
  <line x1=".35" x2="14.4" y1="36" y2="36" fill="none" stroke="#787878" stroke-linecap="round" stroke-linejoin="round" stroke-width=".7"/>
  <rect id="connector44pin" y="35.65" width="14.4" height=".7" fill="none" stroke-width="0" connectorName="!RESET"/>
  <rect id="connector44terminal" y="35.65" width="0" height=".7" fill="none" stroke-width="0"/>
  <text x="15.8" y="36.7" fill="#8c8c8c" font-family="Noto Sans" font-size="3.5">!RESET</text>
  <line x1=".35" x2="14.4" y1="43.2" y2="43.2" fill="none" stroke="#787878" stroke-linecap="round" stroke-linejoin="round" stroke-width=".7"/>
  <rect id="connector7pin" y="42.85" width="14.4" height=".7" fill="none" stroke-width="0" connectorName="3"/>
  <rect id="connector7terminal" y="42.85" width="0" height=".7" fill="none" stroke-width="0"/>
  <text x="15.8" y="43.9" fill="#8c8c8c" font-family="Noto Sans" font-size="3.5">3</text>
  <line x1=".35" x2="14.4" y1="50.4" y2="50.4" fill="none" stroke="#787878" stroke-linecap="round" stroke-linejoin="round" stroke-width=".7"/>
  <rect id="connector83pin" y="50.05" width="14.4" height=".7" fill="none" stroke-width="0" connectorName="5"/>
  <rect id="connector83terminal" y="50.05" width="0" height=".7" fill="none" stroke-width="0"/>
  <text x="15.8" y="51.1" fill="#8c8c8c" font-family="Noto Sans" font-size="3.5">5</text>
  <line x1=".35" x2="14.4" y1="57.6" y2="57.6" fill="none" stroke="#787878" stroke-linecap="round" stroke-linejoin="round" stroke-width=".7"/>
  <rect id="connector84pin" y="57.25" width="14.4" height=".7" fill="none" stroke-width="0" connectorName="6"/>
  <rect id="connector84terminal" y="57.25" width="0" height=".7" fill="none" stroke-width="0"/>
  <text x="15.8" y="58.3" fill="#8c8c8c" font-family="Noto Sans" font-size="3.5">6</text>
  <line x1=".35" x2="14.4" y1="64.8" y2="64.8" fill="none" stroke="#787878" stroke-linecap="round" stroke-linejoin="round" stroke-width=".7"/>
  <rect id="connector85pin" y="64.45" width="14.4" height=".7" fill="none" stroke-width="0" connectorName="7"/>
  <rect id="connector85terminal" y="64.45" width="0" height=".7" fill="none" stroke-width="0"/>
  <text x="15.8" y="65.5" fill="#8c8c8c" font-family="Noto Sans" font-size="3.5">7</text>
  <line x1=".35" x2="14.4" y1="72" y2="72" fill="none" stroke="#787878" stroke-linecap="round" stroke-linejoin="round" stroke-width=".7"/>
  <rect id="connector10pin" y="71.65" width="14.4" height=".7" fill="none" stroke-width="0" connectorName="A0"/>
  <rect id="connector10terminal" y="71.65" width="0" height=".7" fill="none" stroke-width="0"/>
  <text x="15.8" y="72.6998" fill="#8c8c8c" font-family="Noto Sans" font-size="3.5">A0</text>
  <line x1=".35" x2="14.4" y1="79.2" y2="79.2" fill="none" stroke="#787878" stroke-linecap="round" stroke-linejoin="round" stroke-width=".7"/>
  <rect id="connector9pin" y="78.85" width="14.4" height=".7" fill="none" stroke-width="0" connectorName="A1"/>
  <rect id="connector9terminal" y="78.85" width="0" height=".7" fill="none" stroke-width="0"/>
  <text x="15.8" y="79.8998" fill="#8c8c8c" font-family="Noto Sans" font-size="3.5">A1</text>
  <line x1=".35" x2="14.4" y1="86.4" y2="86.4" fill="none" stroke="#787878" stroke-linecap="round" stroke-linejoin="round" stroke-width=".7"/>
  <rect id="connector8pin" y="86.05" width="14.4" height=".7" fill="none" stroke-width="0" connectorName="A2"/>
  <rect id="connector8terminal" y="86.05" width="0" height=".7" fill="none" stroke-width="0"/>
  <text x="15.8" y="87.0998" fill="#8c8c8c" font-family="Noto Sans" font-size="3.5">A2</text>
  <line x1=".35" x2="14.4" y1="93.6" y2="93.6" fill="none" stroke="#787878" stroke-linecap="round" stroke-linejoin="round" stroke-width=".7"/>
  <rect id="connector6pin" y="93.25" width="14.4" height=".7" fill="none" stroke-width="0" connectorName="A4"/>
  <rect id="connector6terminal" y="93.25" width="0" height=".7" fill="none" stroke-width="0"/>
  <text x="15.8" y="94.2998" fill="#8c8c8c" font-family="Noto Sans" font-size="3.5">A4</text>
  <line x1=".35" x2="14.4" y1="100.8" y2="100.8" fill="none" stroke="#787878" stroke-linecap="round" stroke-linejoin="round" stroke-width=".7"/>
  <rect id="connector5pin" y="100.45" width="14.4" height=".7" fill="none" stroke-width="0" connectorName="A5"/>
  <rect id="connector5terminal" y="100.45" width="0" height=".7" fill="none" stroke-width="0"/>
  <text x="15.8" y="101.5" fill="#8c8c8c" font-family="Noto Sans" font-size="3.5">A5</text>
  <line x1=".35" x2="14.4" y1="108" y2="108" fill="none" stroke="#787878" stroke-linecap="round" stroke-linejoin="round" stroke-width=".7"/>
  <rect id="connector81pin" y="107.65" width="14.4" height=".7" fill="none" stroke-width="0" connectorName="AREF"/>
  <rect id="connector81terminal" y="107.65" width="0" height=".7" fill="none" stroke-width="0"/>
  <text x="15.8" y="108.7" fill="#8c8c8c" font-family="Noto Sans" font-size="3.5">AREF</text>
  <line x1=".35" x2="14.4" y1="115.2" y2="115.2" fill="none" stroke="#787878" stroke-linecap="round" stroke-linejoin="round" stroke-width=".7"/>
  <rect id="connector38pin" y="114.85" width="14.4" height=".7" fill="none" stroke-width="0" connectorName="D0"/>
  <rect id="connector38terminal" y="114.85" width="0" height=".7" fill="none" stroke-width="0"/>
  <text x="15.8" y="115.9" fill="#8c8c8c" font-family="Noto Sans" font-size="3.5">D0</text>
  <line x1=".35" x2="14.4" y1="122.4" y2="122.4" fill="none" stroke="#787878" stroke-linecap="round" stroke-linejoin="round" stroke-width=".7"/>
  <rect id="connector37pin" y="122.05" width="14.4" height=".7" fill="none" stroke-width="0" connectorName="D1"/>
  <rect id="connector37terminal" y="122.05" width="0" height=".7" fill="none" stroke-width="0"/>
  <text x="15.8" y="123.1" fill="#8c8c8c" font-family="Noto Sans" font-size="3.5">D1</text>
  <line x1="86.05" x2="100.45" y1="36" y2="36" fill="none" stroke="#787878" stroke-linecap="round" stroke-linejoin="round" stroke-width=".7"/>
  <rect id="connector88pin" x="86.4" y="35.65" width="14.4" height=".7" fill="none" stroke-width="0" connectorname="TFT_DC"/>
  <rect id="connector88terminal" x="100.8" y="35.65" width="0" height=".7" fill="none" stroke-width="0"/>
  <text x="85.0003" y="36.7" fill="#8c8c8c" font-family="Noto Sans" font-size="3.5" text-anchor="end">TFT_DC</text>
  <line x1="86.05" x2="100.45" y1="43.2" y2="43.2" fill="none" stroke="#787878" stroke-linecap="round" stroke-linejoin="round" stroke-width=".7"/>
  <rect id="connector86pin" x="86.4" y="42.85" width="14.4" height=".7" fill="none" stroke-width="0" connectorname="TFT_CS"/>
  <rect id="connector86terminal" x="100.8" y="42.85" width="0" height=".7" fill="none" stroke-width="0"/>
  <text x="85.0003" y="43.9" fill="#8c8c8c" font-family="Noto Sans" font-size="3.5" text-anchor="end">TFT_CS</text>
  <line x1="86.05" x2="100.45" y1="50.4" y2="50.4" fill="none" stroke="#787878" stroke-linecap="round" stroke-linejoin="round" stroke-width=".7"/>
  <rect id="connector80pin" x="86.4" y="50.05" width="14.4" height=".7" fill="none" stroke-width="0" connectorname="SDA"/>
  <rect id="connector80terminal" x="100.8" y="50.05" width="0" height=".7" fill="none" stroke-width="0"/>
  <text x="85.0003" y="51.1" fill="#8c8c8c" font-family="Noto Sans" font-size="3.5" text-anchor="end">SDA</text>
  <line x1="86.05" x2="100.45" y1="57.6" y2="57.6" fill="none" stroke="#787878" stroke-linecap="round" stroke-linejoin="round" stroke-width=".7"/>
  <rect id="connector34pin" x="86.4" y="57.25" width="14.4" height=".7" fill="none" stroke-width="0" connectorname="SD_CS"/>
  <rect id="connector34terminal" x="100.8" y="57.25" width="0" height=".7" fill="none" stroke-width="0"/>
  <text x="85.0003" y="58.3" fill="#8c8c8c" font-family="Noto Sans" font-size="3.5" text-anchor="end">SD_CS</text>
  <line x1="86.05" x2="100.45" y1="64.8" y2="64.8" fill="none" stroke="#787878" stroke-linecap="round" stroke-linejoin="round" stroke-width=".7"/>
  <rect id="connector79pin" x="86.4" y="64.45" width="14.4" height=".7" fill="none" stroke-width="0" connectorname="SCL"/>
  <rect id="connector79terminal" x="100.8" y="64.45" width="0" height=".7" fill="none" stroke-width="0"/>
  <text x="85.0003" y="65.5" fill="#8c8c8c" font-family="Noto Sans" font-size="3.5" text-anchor="end">SCL</text>
  <line x1="86.05" x2="100.45" y1="72" y2="72" fill="none" stroke="#787878" stroke-linecap="round" stroke-linejoin="round" stroke-width=".7"/>
  <rect id="connector123pin" x="86.4" y="71.65" width="14.4" height=".7" fill="none" stroke-width="0" connectorname="SCK"/>
  <rect id="connector123terminal" x="100.8" y="71.65" width="0" height=".7" fill="none" stroke-width="0"/>
  <text x="85.0003" y="72.6998" fill="#8c8c8c" font-family="Noto Sans" font-size="3.5" text-anchor="end">SCK</text>
  <line x1="86.05" x2="100.45" y1="79.2" y2="79.2" fill="none" stroke="#787878" stroke-linecap="round" stroke-linejoin="round" stroke-width=".7"/>
  <rect id="connector46pin" x="86.4" y="78.85" width="14.4" height=".7" fill="none" stroke-width="0" connectorname="N$18"/>
  <rect id="connector46terminal" x="100.8" y="78.85" width="0" height=".7" fill="none" stroke-width="0"/>
  <text x="85.0003" y="79.8998" fill="#8c8c8c" font-family="Noto Sans" font-size="3.5" text-anchor="end">N$18</text>
  <line x1="86.05" x2="100.45" y1="86.4" y2="86.4" fill="none" stroke="#787878" stroke-linecap="round" stroke-linejoin="round" stroke-width=".7"/>
  <rect id="connector119pin" x="86.4" y="86.05" width="14.4" height=".7" fill="none" stroke-width="0" connectorname="MOSI"/>
  <rect id="connector119terminal" x="100.8" y="86.05" width="0" height=".7" fill="none" stroke-width="0"/>
  <text x="85.0003" y="87.0998" fill="#8c8c8c" font-family="Noto Sans" font-size="3.5" text-anchor="end">MOSI</text>
  <line x1="86.05" x2="100.45" y1="93.6" y2="93.6" fill="none" stroke="#787878" stroke-linecap="round" stroke-linejoin="round" stroke-width=".7"/>
  <rect id="connector118pin" x="86.4" y="93.25" width="14.4" height=".7" fill="none" stroke-width="0" connectorname="MISO"/>
  <rect id="connector118terminal" x="100.8" y="93.25" width="0" height=".7" fill="none" stroke-width="0"/>
  <text x="85.0003" y="94.2998" fill="#8c8c8c" font-family="Noto Sans" font-size="3.5" text-anchor="end">MISO</text>
  <line x1="86.05" x2="100.45" y1="100.8" y2="100.8" fill="none" stroke="#787878" stroke-linecap="round" stroke-linejoin="round" stroke-width=".7"/>
  <rect id="connector87pin" x="86.4" y="100.45" width="14.4" height=".7" fill="none" stroke-width="0" connectorname="D9"/>
  <rect id="connector87terminal" x="100.8" y="100.45" width="0" height=".7" fill="none" stroke-width="0"/>
  <text x="85.0003" y="101.5" fill="#8c8c8c" font-family="Noto Sans" font-size="3.5" text-anchor="end">D9</text>
  <line x1="86.05" x2="100.45" y1="108" y2="108" fill="none" stroke="#787878" stroke-linecap="round" stroke-linejoin="round" stroke-width=".7"/>
  <rect id="connector31pin" x="86.4" y="107.65" width="14.4" height=".7" fill="none" stroke-width="0" connectorname="D7"/>
  <rect id="connector31terminal" x="100.8" y="107.65" width="0" height=".7" fill="none" stroke-width="0"/>
  <text x="85.0003" y="108.7" fill="#8c8c8c" font-family="Noto Sans" font-size="3.5" text-anchor="end">D7</text>
  <line x1="86.05" x2="100.45" y1="115.2" y2="115.2" fill="none" stroke="#787878" stroke-linecap="round" stroke-linejoin="round" stroke-width=".7"/>
  <rect id="connector32pin" x="86.4" y="114.85" width="14.4" height=".7" fill="none" stroke-width="0" connectorname="D6"/>
  <rect id="connector32terminal" x="100.8" y="114.85" width="0" height=".7" fill="none" stroke-width="0"/>
  <text x="85.0003" y="115.9" fill="#8c8c8c" font-family="Noto Sans" font-size="3.5" text-anchor="end">D6</text>
  <line x1="86.05" x2="100.45" y1="122.4" y2="122.4" fill="none" stroke="#787878" stroke-linecap="round" stroke-linejoin="round" stroke-width=".7"/>
  <rect id="connector33pin" x="86.4" y="122.05" width="14.4" height=".7" fill="none" stroke-width="0" connectorname="D5"/>
  <rect id="connector33terminal" x="100.8" y="122.05" width="0" height=".7" fill="none" stroke-width="0"/>
  <text x="85.0003" y="123.1" fill="#8c8c8c" font-family="Noto Sans" font-size="3.5" text-anchor="end">D5</text>
  <line x1="86.05" x2="100.45" y1="129.6" y2="129.6" fill="none" stroke="#787878" stroke-linecap="round" stroke-linejoin="round" stroke-width=".7"/>
  <rect id="connector35pin" x="86.4" y="129.25" width="14.4" height=".7" fill="none" stroke-width="0" connectorname="D3"/>
  <rect id="connector35terminal" x="100.8" y="129.25" width="0" height=".7" fill="none" stroke-width="0"/>
  <text x="85.0003" y="130.3" fill="#8c8c8c" font-family="Noto Sans" font-size="3.5" text-anchor="end">D3</text>
  <line x1="86.05" x2="100.45" y1="136.8" y2="136.8" fill="none" stroke="#787878" stroke-linecap="round" stroke-linejoin="round" stroke-width=".7"/>
  <rect id="connector36pin" x="86.4" y="136.45" width="14.4" height=".7" fill="none" stroke-width="0" connectorname="D2"/>
  <rect id="connector36terminal" x="100.8" y="136.45" width="0" height=".7" fill="none" stroke-width="0"/>
  <text x="85.0003" y="137.5" fill="#8c8c8c" font-family="Noto Sans" font-size="3.5" text-anchor="end">D2</text>
  <line x1="36" x2="36" y1=".35" y2="14.4" fill="none" stroke="#787878" stroke-linecap="round" stroke-linejoin="round" stroke-width=".7"/>
  <rect id="connector39pin" x="35.65" width=".7" height="14.4" fill="none" stroke-width="0" connectorname="VIN"/>
  <rect id="connector39terminal" x="35.65" width=".7" height="0" fill="none" stroke-width="0"/>
  <g transform="translate(37.4 16)">
   <g transform="rotate(270)">
    <text fill="#8c8c8c" font-family="Noto Sans" font-size="3.5" text-anchor="end">VIN</text>
   </g>
  </g>
  <line x1="43.2" x2="43.2" y1=".35" y2="14.4" fill="none" stroke="#787878" stroke-linecap="round" stroke-linejoin="round" stroke-width=".7"/>
  <rect id="connector42pin" x="42.85" width=".7" height="14.4" fill="none" stroke-width="0" connectorname="+5V"/>
  <rect id="connector42terminal" x="42.85" width=".7" height="0" fill="none" stroke-width="0"/>
  <g transform="translate(44.6 16)">
   <g transform="rotate(270)">
    <text fill="#8c8c8c" font-family="Noto Sans" font-size="3.5" text-anchor="end">+5V</text>
   </g>
  </g>
  <line x1="50.4" x2="50.4" y1=".35" y2="14.4" fill="none" stroke="#787878" stroke-linecap="round" stroke-linejoin="round" stroke-width=".7"/>
  <rect id="connector43pin" x="50.05" width=".7" height="14.4" fill="none" stroke-width="0" connectorname="+3.3V"/>
  <rect id="connector43terminal" x="50.05" width=".7" height="0" fill="none" stroke-width="0"/>
  <g transform="translate(51.8 16)">
   <g transform="rotate(270)">
    <text fill="#8c8c8c" font-family="Noto Sans" font-size="3.5" text-anchor="end">+3.3V</text>
   </g>
  </g>
  <line x1="57.6" x2="57.6" y1=".35" y2="14.4" fill="none" stroke="#787878" stroke-linecap="round" stroke-linejoin="round" stroke-width=".7"/>
  <rect id="connector45pin" x="57.25" width=".7" height="14.4" fill="none" stroke-width="0" connectorname="VDDIO"/>
  <rect id="connector45terminal" x="57.25" width=".7" height="0" fill="none" stroke-width="0"/>
  <g transform="translate(59 16)">
   <g transform="rotate(270)">
    <text fill="#8c8c8c" font-family="Noto Sans" font-size="3.5" text-anchor="end">VDDIO</text>
   </g>
  </g>
  <line x1="50.4" x2="50.4" y1="151.2" y2="165.25" fill="none" stroke="#787878" stroke-linecap="round" stroke-linejoin="round" stroke-width=".7"/>
  <rect id="connector40pin" x="50.05" y="151.2" width=".7" height="14.4" fill="none" stroke-width="0" connectorname="GND"/>
  <rect id="connector40terminal" x="50.05" y="165.6" width=".7" height="0" fill="none" stroke-width="0"/>
  <g transform="translate(51.8 149.6)">
   <g transform="rotate(270)">
    <text fill="#8c8c8c" font-family="Noto Sans" font-size="3.5">GND</text>
   </g>
  </g>
  <rect id="connector89pin" x="50.05" width=".7" height="14.4" fill="none" stroke-width="0" connectorname="+3.3V"/>
  <rect id="connector89terminal" x="50.05" width=".7" height="0" fill="none" stroke-width="0"/>
  <rect id="connector90pin" x="42.85" width=".7" height="14.4" fill="none" stroke-width="0" connectorname="+5V"/>
  <rect id="connector90terminal" x="42.85" width=".7" height="0" fill="none" stroke-width="0"/>
  <rect id="connector117pin" x="57.25" width=".7" height="14.4" fill="none" stroke-width="0" connectorname="VDDIO"/>
  <rect id="connector117terminal" x="57.25" width=".7" height="0" fill="none" stroke-width="0"/>
  <rect id="connector126pin" x="35.65" width=".7" height="14.4" fill="none" stroke-width="0" connectorname="VIN"/>
  <rect id="connector126terminal" x="36.349" y="82.786" width=".0014" height=".0288" fill="none" stroke-width="0"/>
  <rect x="35.65" width=".7" height="0" fill="none" stroke-width="0"/>
  <rect id="connector41pin" x="50.05" y="151.2" width=".7" height="14.4" fill="none" stroke-width="0" connectorname="GND"/>
  <rect id="connector41terminal" x="50.05" y="165.6" width=".7" height="0" fill="none" stroke-width="0"/>
  <rect id="connector82pin" x="50.05" y="151.2" width=".7" height="14.4" fill="none" stroke-width="0" connectorname="GND"/>
  <rect id="connector82terminal" x="50.05" y="165.6" width=".7" height="0" fill="none" stroke-width="0"/>
  <rect id="connector113pin" x="50.05" y="151.2" width=".7" height="14.4" fill="none" stroke-width="0" connectorname="GND"/>
  <rect id="connector113terminal" x="50.05" y="165.6" width=".7" height="0" fill="none" stroke-width="0"/>
  <rect id="connector114pin" x="50.05" y="151.2" width=".7" height="14.4" fill="none" stroke-width="0" connectorname="GND"/>
  <rect id="connector114terminal" x="50.05" y="165.6" width=".7" height="0" fill="none" stroke-width="0"/>
  <rect id="connector115pin" x="50.05" y="151.2" width=".7" height="14.4" fill="none" stroke-width="0" connectorname="GND"/>
  <rect id="connector115terminal" x="50.05" y="165.6" width=".7" height="0" fill="none" stroke-width="0"/>
  <rect id="connector116pin" x="50.05" y="151.2" width=".7" height="14.4" fill="none" stroke-width="0" connectorname="GND"/>
  <rect id="connector116terminal" x="50.05" y="165.6" width=".7" height="0" fill="none" stroke-width="0"/>
  <rect id="connector121pin" y="35.65" width="14.4" height=".7" fill="none" stroke-width="0" connectorName="!RESET"/>
  <rect id="connector121terminal" y="35.65" width="0" height=".7" fill="none" stroke-width="0"/>
  <rect id="connector92pin" y="71.65" width="14.4" height=".7" fill="none" stroke-width="0" connectorName="A0"/>
  <rect id="connector92terminal" y="71.65" width="0" height=".7" fill="none" stroke-width="0"/>
  <rect id="connector93pin" y="78.85" width="14.4" height=".7" fill="none" stroke-width="0" connectorName="A1"/>
  <rect id="connector93terminal" y="78.85" width="0" height=".7" fill="none" stroke-width="0"/>
  <rect id="connector94pin" y="86.05" width="14.4" height=".7" fill="none" stroke-width="0" connectorName="A2"/>
  <rect id="connector94terminal" y="86.05" width="0" height=".7" fill="none" stroke-width="0"/>
  <rect id="connector95pin" y="42.85" width="14.4" height=".7" fill="none" stroke-width="0" connectorName="3"/>
  <rect id="connector95terminal" y="42.85" width="0" height=".7" fill="none" stroke-width="0"/>
  <rect id="connector96pin" y="93.25" width="14.4" height=".7" fill="none" stroke-width="0" connectorName="A4"/>
  <rect id="connector96terminal" y="93.25" width="0" height=".7" fill="none" stroke-width="0"/>
  <rect id="connector97pin" y="100.45" width="14.4" height=".7" fill="none" stroke-width="0" connectorName="A5"/>
  <rect id="connector97terminal" y="100.45" width="0" height=".7" fill="none" stroke-width="0"/>
  <rect id="connector98pin" y="107.65" width="14.4" height=".7" fill="none" stroke-width="0" connectorName="AREF"/>
  <rect id="connector98terminal" y="107.65" width="0" height=".7" fill="none" stroke-width="0"/>
  <rect id="connector99pin" y="114.85" width="14.4" height=".7" fill="none" stroke-width="0" connectorName="D0"/>
  <rect id="connector99terminal" y="114.85" width="0" height=".7" fill="none" stroke-width="0"/>
  <rect id="connector100pin" y="122.05" width="14.4" height=".7" fill="none" stroke-width="0" connectorName="D1"/>
  <rect id="connector100terminal" y="122.05" width="0" height=".7" fill="none" stroke-width="0"/>
  <rect id="connector110pin" y="64.45" width="14.4" height=".7" fill="none" stroke-width="0" connectorName="7"/>
  <rect id="connector110terminal" y="64.45" width="0" height=".7" fill="none" stroke-width="0"/>
  <rect id="connector111pin" y="57.25" width="14.4" height=".7" fill="none" stroke-width="0" connectorName="6"/>
  <rect id="connector111terminal" y="57.25" width="0" height=".7" fill="none" stroke-width="0"/>
  <rect id="connector112pin" y="50.05" width="14.4" height=".7" fill="none" stroke-width="0" connectorName="5"/>
  <rect id="connector112terminal" y="50.05" width="0" height=".7" fill="none" stroke-width="0"/>
  <rect id="connector107pin" x="86.4" y="35.65" width="14.4" height=".7" fill="none" stroke-width="0" connectorname="TFT_DC"/>
  <rect id="connector107terminal" x="100.8" y="35.65" width="0" height=".7" fill="none" stroke-width="0"/>
  <rect id="connector109pin" x="86.4" y="42.85" width="14.4" height=".7" fill="none" stroke-width="0" connectorname="TFT_CS"/>
  <rect id="connector109terminal" x="100.8" y="42.85" width="0" height=".7" fill="none" stroke-width="0"/>
  <rect id="connector125pin" x="86.4" y="50.05" width="14.4" height=".7" fill="none" stroke-width="0" connectorname="SDA"/>
  <rect id="connector125terminal" x="100.8" y="50.05" width="0" height=".7" fill="none" stroke-width="0"/>
  <rect id="connector103pin" x="86.4" y="57.25" width="14.4" height=".7" fill="none" stroke-width="0" connectorname="SD_CS"/>
  <rect id="connector103terminal" x="100.8" y="57.25" width="0" height=".7" fill="none" stroke-width="0"/>
  <rect id="connector124pin" x="86.4" y="64.45" width="14.4" height=".7" fill="none" stroke-width="0" connectorname="SCL"/>
  <rect id="connector124terminal" x="100.8" y="64.45" width="0" height=".7" fill="none" stroke-width="0"/>
  <rect id="connector120pin" x="86.4" y="78.85" width="14.4" height=".7" fill="none" stroke-width="0" connectorname="N$18"/>
  <rect id="connector120terminal" x="100.8" y="78.85" width="0" height=".7" fill="none" stroke-width="0"/>
  <rect id="connector108pin" x="86.4" y="100.45" width="14.4" height=".7" fill="none" stroke-width="0" connectorname="D9"/>
  <rect id="connector108terminal" x="100.8" y="100.45" width="0" height=".7" fill="none" stroke-width="0"/>
  <rect id="connector106pin" x="86.4" y="107.65" width="14.4" height=".7" fill="none" stroke-width="0" connectorname="D7"/>
  <rect id="connector106terminal" x="100.8" y="107.65" width="0" height=".7" fill="none" stroke-width="0"/>
  <rect id="connector105pin" x="86.4" y="114.85" width="14.4" height=".7" fill="none" stroke-width="0" connectorname="D6"/>
  <rect id="connector105terminal" x="100.8" y="114.85" width="0" height=".7" fill="none" stroke-width="0"/>
  <rect id="connector104pin" x="86.4" y="122.05" width="14.4" height=".7" fill="none" stroke-width="0" connectorname="D5"/>
  <rect id="connector104terminal" x="100.8" y="122.05" width="0" height=".7" fill="none" stroke-width="0"/>
  <rect id="connector102pin" x="86.4" y="129.25" width="14.4" height=".7" fill="none" stroke-width="0" connectorname="D3"/>
  <rect id="connector102terminal" x="100.8" y="129.25" width="0" height=".7" fill="none" stroke-width="0"/>
  <rect id="connector101pin" x="86.4" y="136.45" width="14.4" height=".7" fill="none" stroke-width="0" connectorname="D2"/>
  <rect id="connector101terminal" x="100.8" y="136.45" width="0" height=".7" fill="none" stroke-width="0"/>
 </g>
</svg>
