<?xml version="1.0" encoding="UTF-8"?>
<!-- Generator: Adobe Illustrator 26.2.1, SVG Export Plug-In . SVG Version: 6.00 Build 0)  -->
<svg width="1.2in" height="1in" enable-background="new 0 0 86.4 72" version="1.1" viewBox="0 0 86.4 72" xml:space="preserve" xmlns="http://www.w3.org/2000/svg" xmlns:xml="http://www.w3.org/XML/1998/namespace">
    <desc>
        <referenceFile>MMC56x3 rev A_schematic.svg</referenceFile>
    </desc>
    <desc>Fritzing schematic generated by brd2svg</desc>
    <g id="schematic">
        <rect x="14.4" y="14.4" width="57.15" height="43.2" fill="none" stroke="#000" stroke-linecap="round" stroke-linejoin="round" stroke-width=".9"/>
        <g transform="translate(36.481 31.883)">
            <g id="label" enable-background="new    " font-family="Noto Sans" font-size="2.8">
                <text>Adafruit</text>
                <text x="-1.4985" y="4.2002">MMC56x3</text>
                <text x="-3.1411" y="8.4004">STEMMA QT</text>
            </g>
        </g>
        <line x1=".35" x2="14.4" y1="28.8" y2="28.8" fill="none" stroke="#787878" stroke-linecap="round" stroke-linejoin="round" stroke-width=".7"/>
        <rect id="connector16pin" y="28.45" width="14.4" height=".7" fill="none"/>
        <rect id="connector16terminal" y="28.45" width="0" height=".7" fill="none"/>
        <g transform="translate(15.8 29.5)">
            <text fill="#8C8C8C" font-family="Noto Sans" font-size="2.8">SCL</text>
        </g>
        <line x1="71.65" x2="86.05" y1="28.8" y2="28.8" fill="none" stroke="#787878" stroke-linecap="round" stroke-linejoin="round" stroke-width=".7"/>
        <rect id="connector15pin" x="72" y="28.45" width="14.4" height=".7" fill="none"/>
        <rect id="connector15terminal" x="86.4" y="28.45" width="0" height=".7" fill="none"/>
        <g transform="translate(64.296 29.5)">
            <text fill="#8C8C8C" font-family="Noto Sans" font-size="2.8">SDA</text>
        </g>
        <line x1="43.2" x2="43.2" y1=".35" y2="14.4" fill="none" stroke="#787878" stroke-linecap="round" stroke-linejoin="round" stroke-width=".7"/>
        <rect id="connector30pin" x="42.85" width=".7" height="14.4" fill="none"/>
        <polygon id="connector30terminal" points="42.85 0 43.55 0 43.55 0" fill="none"/>
        <g transform="translate(44.6 16)">
            
                <g transform="rotate(270)">
                    
                        <g transform="translate(-6.7812 -2.2414e-5)">
                            <text fill="#8C8C8C" font-family="Noto Sans" font-size="2.8">3.3V</text>
                        </g>
                    
                </g>
            
        </g>
        <line x1="50.4" x2="50.4" y1=".35" y2="14.4" fill="none" stroke="#787878" stroke-linecap="round" stroke-linejoin="round" stroke-width=".7"/>
        <rect id="connector14pin" x="50.05" width=".7" height="14.4" fill="none"/>
        <polygon id="connector14terminal" points="50.05 0 50.75 0 50.75 0" fill="none"/>
        <g transform="translate(51.8 16)">
            
                <g transform="rotate(270)">
                    
                        <g transform="translate(-6.0684 4.9828e-5)">
                            <text fill="#8C8C8C" font-family="Noto Sans" font-size="2.8">VCC</text>
                        </g>
                    
                </g>
            
        </g>
        <line x1="43.2" x2="43.2" y1="57.6" y2="71.65" fill="none" stroke="#787878" stroke-linecap="round" stroke-linejoin="round" stroke-width=".7"/>
        <rect id="connector13pin" x="42.85" y="57.6" width=".7" height="14.4" fill="none"/>
        <polygon id="connector13terminal" points="42.85 72 43.55 72 43.55 72" fill="none"/>
        <g transform="translate(44.6 56)">
            
                <g transform="rotate(270)">
                    
                        <g transform="translate(0 -2.2414e-5)">
                            <text fill="#8C8C8C" font-family="Noto Sans" font-size="2.8">GND</text>
                        </g>
                    
                </g>
            
        </g>
        <rect id="connector29pin" x="50.05" width=".7" height="14.4" fill="none"/>
        <polygon id="connector29terminal" points="50.05 0 50.75 0 50.75 0" fill="none"/>
        <rect id="connector20pin" x="50.05" width=".7" height="14.4" fill="none"/>
        <polygon id="connector20terminal" points="50.05 0 50.75 0 50.75 0" fill="none"/>
        <rect id="connector31pin" x="42.85" y="57.6" width=".7" height="14.4" fill="none"/>
        <polygon id="connector31terminal" points="42.85 72 43.55 72 43.55 72" fill="none"/>
        <rect id="connector19pin" x="42.85" y="57.6" width=".7" height="14.4" fill="none"/>
        <polygon id="connector19terminal" points="42.85 72 43.55 72 43.55 72" fill="none"/>
        <rect id="connector32pin" y="28.45" width="14.4" height=".7" fill="none"/>
        <rect id="connector32terminal" y="28.45" width="0" height=".7" fill="none"/>
        <rect id="connector22pin" y="28.45" width="14.4" height=".7" fill="none"/>
        <rect id="connector22terminal" y="28.45" width="0" height=".7" fill="none"/>
        <rect id="connector33pin" x="72" y="28.45" width="14.4" height=".7" fill="none"/>
        <rect id="connector33terminal" x="86.4" y="28.45" width="0" height=".7" fill="none"/>
        <rect id="connector21pin" x="72" y="28.45" width="14.4" height=".7" fill="none"/>
        <rect id="connector21terminal" x="86.4" y="28.45" width="0" height=".7" fill="none"/>
    </g>
</svg>
