<?xml version="1.0" encoding="UTF-8"?>
<!-- Created with Fritzing (http://www.fritzing.org/) -->
<svg width=".8in" height="1.1in" baseProfile="tiny" version="1.2" viewBox="0 0 57.6 79.2" xmlns="http://www.w3.org/2000/svg">
 <desc>
  <referenceFile>Adafruit Chainable DS18B20 Extender Breakout_schematic.svg</referenceFile>
 </desc>
 <desc>Fritzing schematic generated by brd2svg</desc>
 <g id="schematic">
  <rect x="14.4" y="14.4" width="42.75" height="50.4" fill="none" stroke="#000" stroke-linecap="round" stroke-linejoin="round" stroke-width=".9"/>
  <text id="label" x="36" y="28.8" fill="#000000" font-family="Noto Sans" font-size="3.5" text-anchor="middle"><tspan x="36" y="28.8">Adafruit</tspan> <tspan x="36" y="32.3">Chainable</tspan> <tspan x="36" y="35.8">DS18B20</tspan> <tspan x="36" y="39.3">Extender</tspan> <tspan x="36" y="42.8">Breakout</tspan></text>
  <line x1=".35" x2="14.4" y1="28.8" y2="28.8" fill="none" stroke="#787878" stroke-linecap="round" stroke-linejoin="round" stroke-width=".7"/>
  <rect id="connector22pin" y="28.45" width="14.4" height=".7" fill="none" stroke-width="0" connectorName="SIGNAL"/>
  <rect id="connector22terminal" y="28.45" width="0" height=".7" fill="none" stroke-width="0"/>
  <text x="15.8" y="29.5" fill="#8c8c8c" font-family="Noto Sans" font-size="3.5">SIGNAL</text>
  <line x1="28.8" x2="28.8" y1=".35" y2="14.4" fill="none" stroke="#787878" stroke-linecap="round" stroke-linejoin="round" stroke-width=".7"/>
  <rect id="connector21pin" x="28.45" width=".7" height="14.4" fill="none" stroke-width="0" connectorname="VIN"/>
  <rect id="connector21terminal" x="28.45" width=".7" height="0" fill="none" stroke-width="0"/>
  <g transform="translate(30.2 16)">
   <g transform="rotate(270)">
    <text fill="#8c8c8c" font-family="Noto Sans" font-size="3.5" text-anchor="end">VIN</text>
   </g>
  </g>
  <line x1="28.8" x2="28.8" y1="64.8" y2="78.85" fill="none" stroke="#787878" stroke-linecap="round" stroke-linejoin="round" stroke-width=".7"/>
  <rect id="connector23pin" x="28.45" y="64.8" width=".7" height="14.4" fill="none" stroke-width="0" connectorname="GND"/>
  <rect id="connector23terminal" x="28.45" y="79.2" width=".7" height="0" fill="none" stroke-width="0"/>
  <g transform="translate(30.2 63.2)">
   <g transform="rotate(270)">
    <text fill="#8c8c8c" font-family="Noto Sans" font-size="3.5">GND</text>
   </g>
  </g>
  <rect id="connector46pin" x="28.45" width=".7" height="14.4" fill="none" stroke-width="0" connectorname="VIN"/>
  <rect id="connector46terminal" x="28.45" width=".7" height="0" fill="none" stroke-width="0"/>
  <rect id="connector41pin" x="28.45" width=".7" height="14.4" fill="none" stroke-width="0" connectorname="VIN"/>
  <rect id="connector41terminal" x="28.45" width=".7" height="0" fill="none" stroke-width="0"/>
  <rect id="connector40pin" x="28.45" y="64.8" width=".7" height="14.4" fill="none" stroke-width="0" connectorname="GND"/>
  <rect id="connector40terminal" x="28.45" y="79.2" width=".7" height="0" fill="none" stroke-width="0"/>
  <rect id="connector45pin" x="28.45" y="64.8" width=".7" height="14.4" fill="none" stroke-width="0" connectorname="GND"/>
  <rect id="connector45terminal" x="28.45" y="79.2" width=".7" height="0" fill="none" stroke-width="0"/>
  <rect id="connector42pin" y="28.45" width="14.4" height=".7" fill="none" stroke-width="0" connectorName="SIGNAL"/>
  <rect id="connector42terminal" x="28.786" y="29.149" width=".0288" height=".0014" fill="none" stroke-width="0"/>
  <rect y="28.45" width="0" height=".7" fill="none" stroke-width="0"/>
  <rect id="connector47pin" y="28.45" width="14.4" height=".7" fill="none" stroke-width="0" connectorName="SIGNAL"/>
  <rect id="connector47terminal" y="28.45" width="0" height=".7" fill="none" stroke-width="0"/>
 </g>
</svg>
