<?xml version="1.0" encoding="UTF-8"?>
<!-- Created with Fritzing (http://www.fritzing.org/) -->
<svg width="1.1in" height="1.1in" baseProfile="tiny" version="1.2" viewBox="0 0 79.2 79.2" xmlns="http://www.w3.org/2000/svg">
 <desc>
  <referenceFile>Adafruit Stemma QT 5 Port Hub_schematic.svg</referenceFile>
 </desc>
 <desc>Fritzing schematic generated by brd2svg</desc>
 <g id="schematic">
  <rect x="14.4" y="14.4" width="49.95" height="50.4" fill="none" stroke="#000" stroke-linecap="round" stroke-linejoin="round" stroke-width=".9"/>
  <text id="label" x="39.6" y="28.8" fill="#000000" font-family="Noto Sans" font-size="3.5" text-anchor="middle"><tspan x="39.6" y="28.8">Adafruit</tspan> <tspan x="39.6" y="32.3">Stemma</tspan> <tspan x="39.6" y="35.8">QT</tspan> <tspan x="39.6" y="39.3">5</tspan> <tspan x="39.6" y="42.8">Port</tspan> <tspan x="39.6" y="46.3">Hub</tspan></text>
  <line x1=".35" x2="14.4" y1="28.8" y2="28.8" fill="none" stroke="#787878" stroke-linecap="round" stroke-linejoin="round" stroke-width=".7"/>
  <rect id="connector8pin" y="28.45" width="14.4" height=".7" fill="none" stroke-width="0" connectorName="SCL"/>
  <rect id="connector8terminal" y="28.45" width="0" height=".7" fill="none" stroke-width="0"/>
  <text x="15.8" y="29.5" fill="#8c8c8c" font-family="Noto Sans" font-size="3.5">SCL</text>
  <line x1="64.45" x2="78.85" y1="28.8" y2="28.8" fill="none" stroke="#787878" stroke-linecap="round" stroke-linejoin="round" stroke-width=".7"/>
  <rect id="connector7pin" x="64.8" y="28.45" width="14.4" height=".7" fill="none" stroke-width="0" connectorname="SDA"/>
  <rect id="connector7terminal" x="79.2" y="28.45" width="0" height=".7" fill="none" stroke-width="0"/>
  <text x="63.4" y="29.5" fill="#8c8c8c" font-family="Noto Sans" font-size="3.5" text-anchor="end">SDA</text>
  <line x1="36" x2="36" y1=".35" y2="14.4" fill="none" stroke="#787878" stroke-linecap="round" stroke-linejoin="round" stroke-width=".7"/>
  <rect id="connector6pin" x="35.65" width=".7" height="14.4" fill="none" stroke-width="0" connectorname="VCC"/>
  <rect id="connector6terminal" x="35.65" width=".7" height="0" fill="none" stroke-width="0"/>
  <g transform="translate(37.4 16)">
   <g transform="rotate(270)">
    <text fill="#8c8c8c" font-family="Noto Sans" font-size="3.5" text-anchor="end">VCC</text>
   </g>
  </g>
  <line x1="36" x2="36" y1="64.8" y2="78.85" fill="none" stroke="#787878" stroke-linecap="round" stroke-linejoin="round" stroke-width=".7"/>
  <rect id="connector5pin" x="35.65" y="64.8" width=".7" height="14.4" fill="none" stroke-width="0" connectorname="GND"/>
  <rect id="connector5terminal" x="35.65" y="79.2" width=".7" height="0" fill="none" stroke-width="0"/>
  <g transform="translate(37.4 63.2)">
   <g transform="rotate(270)">
    <text fill="#8c8c8c" font-family="Noto Sans" font-size="3.5">GND</text>
   </g>
  </g>
  <rect id="connector39pin" x="35.65" width=".7" height="14.4" fill="none" stroke-width="0" connectorname="VCC"/>
  <rect id="connector39terminal" x="35.65" width=".7" height="0" fill="none" stroke-width="0"/>
  <rect id="connector43pin" x="35.65" width=".7" height="14.4" fill="none" stroke-width="0" connectorname="VCC"/>
  <rect id="connector43terminal" x="35.65" width=".7" height="0" fill="none" stroke-width="0"/>
  <rect id="connector12pin" x="35.65" width=".7" height="14.4" fill="none" stroke-width="0" connectorname="VCC"/>
  <rect id="connector12terminal" x="35.65" width=".7" height="0" fill="none" stroke-width="0"/>
  <rect id="connector18pin" x="35.65" width=".7" height="14.4" fill="none" stroke-width="0" connectorname="VCC"/>
  <rect id="connector18terminal" x="35.65" width=".7" height="0" fill="none" stroke-width="0"/>
  <rect id="connector24pin" x="35.65" width=".7" height="14.4" fill="none" stroke-width="0" connectorname="VCC"/>
  <rect id="connector24terminal" x="35.65" width=".7" height="0" fill="none" stroke-width="0"/>
  <rect id="connector30pin" x="35.65" width=".7" height="14.4" fill="none" stroke-width="0" connectorname="VCC"/>
  <rect id="connector30terminal" x="35.65" width=".7" height="0" fill="none" stroke-width="0"/>
  <rect id="connector40pin" x="35.65" y="64.8" width=".7" height="14.4" fill="none" stroke-width="0" connectorname="GND"/>
  <rect id="connector40terminal" x="35.65" y="79.2" width=".7" height="0" fill="none" stroke-width="0"/>
  <rect id="connector44pin" x="35.65" y="64.8" width=".7" height="14.4" fill="none" stroke-width="0" connectorname="GND"/>
  <rect id="connector44terminal" x="35.65" y="79.2" width=".7" height="0" fill="none" stroke-width="0"/>
  <rect id="connector11pin" x="35.65" y="64.8" width=".7" height="14.4" fill="none" stroke-width="0" connectorname="GND"/>
  <rect id="connector11terminal" x="35.65" y="79.2" width=".7" height="0" fill="none" stroke-width="0"/>
  <rect id="connector17pin" x="35.65" y="64.8" width=".7" height="14.4" fill="none" stroke-width="0" connectorname="GND"/>
  <rect id="connector17terminal" x="35.65" y="79.2" width=".7" height="0" fill="none" stroke-width="0"/>
  <rect id="connector23pin" x="35.65" y="64.8" width=".7" height="14.4" fill="none" stroke-width="0" connectorname="GND"/>
  <rect id="connector23terminal" x="35.65" y="79.2" width=".7" height="0" fill="none" stroke-width="0"/>
  <rect id="connector29pin" x="35.65" y="64.8" width=".7" height="14.4" fill="none" stroke-width="0" connectorname="GND"/>
  <rect id="connector29terminal" x="35.65" y="79.2" width=".7" height="0" fill="none" stroke-width="0"/>
  <rect id="connector45pin" y="28.45" width="14.4" height=".7" fill="none" stroke-width="0" connectorName="SCL"/>
  <rect id="connector45terminal" y="28.45" width="0" height=".7" fill="none" stroke-width="0"/>
  <rect id="connector41pin" y="28.45" width="14.4" height=".7" fill="none" stroke-width="0" connectorName="SCL"/>
  <rect id="connector41terminal" y="28.45" width="0" height=".7" fill="none" stroke-width="0"/>
  <rect id="connector14pin" y="28.45" width="14.4" height=".7" fill="none" stroke-width="0" connectorName="SCL"/>
  <rect id="connector14terminal" y="28.45" width="0" height=".7" fill="none" stroke-width="0"/>
  <rect id="connector20pin" y="28.45" width="14.4" height=".7" fill="none" stroke-width="0" connectorName="SCL"/>
  <rect id="connector20terminal" y="28.45" width="0" height=".7" fill="none" stroke-width="0"/>
  <rect id="connector26pin" y="28.45" width="14.4" height=".7" fill="none" stroke-width="0" connectorName="SCL"/>
  <rect id="connector26terminal" y="28.45" width="0" height=".7" fill="none" stroke-width="0"/>
  <rect id="connector32pin" y="28.45" width="14.4" height=".7" fill="none" stroke-width="0" connectorName="SCL"/>
  <rect id="connector32terminal" y="28.45" width="0" height=".7" fill="none" stroke-width="0"/>
  <rect id="connector42pin" x="64.8" y="28.45" width="14.4" height=".7" fill="none" stroke-width="0" connectorname="SDA"/>
  <rect id="connector42terminal" x="79.2" y="28.45" width="0" height=".7" fill="none" stroke-width="0"/>
  <rect id="connector46pin" x="64.8" y="28.45" width="14.4" height=".7" fill="none" stroke-width="0" connectorname="SDA"/>
  <rect id="connector46terminal" x="79.2" y="28.45" width="0" height=".7" fill="none" stroke-width="0"/>
  <rect id="connector13pin" x="64.8" y="28.45" width="14.4" height=".7" fill="none" stroke-width="0" connectorname="SDA"/>
  <rect id="connector13terminal" x="79.2" y="28.45" width="0" height=".7" fill="none" stroke-width="0"/>
  <rect id="connector19pin" x="64.8" y="28.45" width="14.4" height=".7" fill="none" stroke-width="0" connectorname="SDA"/>
  <rect id="connector19terminal" x="79.2" y="28.45" width="0" height=".7" fill="none" stroke-width="0"/>
  <rect id="connector25pin" x="64.8" y="28.45" width="14.4" height=".7" fill="none" stroke-width="0" connectorname="SDA"/>
  <rect id="connector25terminal" x="79.2" y="28.45" width="0" height=".7" fill="none" stroke-width="0"/>
  <rect id="connector31pin" x="64.8" y="28.45" width="14.4" height=".7" fill="none" stroke-width="0" connectorname="SDA"/>
  <rect id="connector31terminal" x="79.2" y="28.45" width="0" height=".7" fill="none" stroke-width="0"/>
 </g>
</svg>
