<?xml version="1.0" encoding="UTF-8"?>
<!-- Created with Fritzing (http://www.fritzing.org/) -->
<svg width="1.3in" height="1in" baseProfile="tiny" version="1.2" viewBox="0 0 93.6 72" xmlns="http://www.w3.org/2000/svg">
 <desc>
  <referenceFile>Adafruit SEN6x Breakout_schematic.svg</referenceFile>
 </desc>
 <desc>Fritzing schematic generated by brd2svg</desc>
 <g id="schematic">
  <rect x="14.4" y="14.4" width="64.35" height="43.2" fill="none" stroke="#000" stroke-linecap="round" stroke-linejoin="round" stroke-width=".9"/>
  <text id="label" x="46.8" y="29" fill="#000000" font-family="Noto Sans" font-size="3.5" text-anchor="middle"><tspan x="46.8" y="29">Adafruit</tspan> <tspan x="46.8" y="32.5">SEN6x</tspan> <tspan x="46.8" y="36">Breakout</tspan></text>
  <line x1=".35" x2="14.4" y1="28.8" y2="28.8" fill="none" stroke="#787878" stroke-linecap="round" stroke-linejoin="round" stroke-width=".7"/>
  <rect id="connector14pin" y="28.45" width="14.4" height=".7" fill="none" stroke-width="0" connectorName="SCL"/>
  <rect id="connector14terminal" y="28.45" width="0" height=".7" fill="none" stroke-width="0"/>
  <text x="15.8" y="29.5" fill="#8c8c8c" font-family="Noto Sans" font-size="3.5">SCL</text>
  <line x1=".35" x2="14.4" y1="36" y2="36" fill="none" stroke="#787878" stroke-linecap="round" stroke-linejoin="round" stroke-width=".7"/>
  <rect id="connector60pin" y="35.65" width="14.4" height=".7" fill="none" stroke-width="0" connectorName="SCL_3V"/>
  <rect id="connector60terminal" y="35.65" width="0" height=".7" fill="none" stroke-width="0"/>
  <text x="15.8" y="36.7" fill="#8c8c8c" font-family="Noto Sans" font-size="3.5">SCL_3V</text>
  <line x1="78.85" x2="93.25" y1="28.8" y2="28.8" fill="none" stroke="#787878" stroke-linecap="round" stroke-linejoin="round" stroke-width=".7"/>
  <rect id="connector13pin" x="79.2" y="28.45" width="14.4" height=".7" fill="none" stroke-width="0" connectorname="SDA"/>
  <rect id="connector13terminal" x="93.6" y="28.45" width="0" height=".7" fill="none" stroke-width="0"/>
  <text x="77.8003" y="29.5" fill="#8c8c8c" font-family="Noto Sans" font-size="3.5" text-anchor="end">SDA</text>
  <line x1="78.85" x2="93.25" y1="36" y2="36" fill="none" stroke="#787878" stroke-linecap="round" stroke-linejoin="round" stroke-width=".7"/>
  <rect id="connector59pin" x="79.2" y="35.65" width="14.4" height=".7" fill="none" stroke-width="0" connectorname="SDA_3V"/>
  <rect id="connector59terminal" x="93.6" y="35.65" width="0" height=".7" fill="none" stroke-width="0"/>
  <text x="77.8003" y="36.7" fill="#8c8c8c" font-family="Noto Sans" font-size="3.5" text-anchor="end">SDA_3V</text>
  <line x1="43.2" x2="43.2" y1=".35" y2="14.4" fill="none" stroke="#787878" stroke-linecap="round" stroke-linejoin="round" stroke-width=".7"/>
  <rect id="connector12pin" x="42.85" width=".7" height="14.4" fill="none" stroke-width="0" connectorname="VCC"/>
  <rect id="connector12terminal" x="42.85" width=".7" height="0" fill="none" stroke-width="0"/>
  <g transform="translate(44.6 16)">
   <g transform="rotate(270)">
    <text fill="#8c8c8c" font-family="Noto Sans" font-size="3.5" text-anchor="end">VCC</text>
   </g>
  </g>
  <line x1="50.4" x2="50.4" y1=".35" y2="14.4" fill="none" stroke="#787878" stroke-linecap="round" stroke-linejoin="round" stroke-width=".7"/>
  <rect id="connector28pin" x="50.05" width=".7" height="14.4" fill="none" stroke-width="0" connectorname="3.3V"/>
  <rect id="connector28terminal" x="50.05" width=".7" height="0" fill="none" stroke-width="0"/>
  <g transform="translate(51.8 16)">
   <g transform="rotate(270)">
    <text fill="#8c8c8c" font-family="Noto Sans" font-size="3.5" text-anchor="end">3.3V</text>
   </g>
  </g>
  <line x1="43.2" x2="43.2" y1="57.6" y2="71.65" fill="none" stroke="#787878" stroke-linecap="round" stroke-linejoin="round" stroke-width=".7"/>
  <rect id="connector11pin" x="42.85" y="57.6" width=".7" height="14.4" fill="none" stroke-width="0" connectorname="GND"/>
  <rect id="connector11terminal" x="42.85" y="72" width=".7" height="0" fill="none" stroke-width="0"/>
  <g transform="translate(44.6 56)">
   <g transform="rotate(270)">
    <text fill="#8c8c8c" font-family="Noto Sans" font-size="3.5">GND</text>
   </g>
  </g>
  <rect id="connector27pin" x="42.85" width=".7" height="14.4" fill="none" stroke-width="0" connectorname="VCC"/>
  <rect id="connector27terminal" x="42.85" width=".7" height="0" fill="none" stroke-width="0"/>
  <rect id="connector18pin" x="42.85" width=".7" height="14.4" fill="none" stroke-width="0" connectorname="VCC"/>
  <rect id="connector18terminal" x="43.549" y="35.986" width=".0014" height=".0288" fill="none" stroke-width="0"/>
  <rect x="42.85" width=".7" height="0" fill="none" stroke-width="0"/>
  <rect id="connector57pin" x="50.05" width=".7" height="14.4" fill="none" stroke-width="0" connectorname="3.3V"/>
  <rect id="connector57terminal" x="50.05" width=".7" height="0" fill="none" stroke-width="0"/>
  <rect id="connector62pin" x="50.05" width=".7" height="14.4" fill="none" stroke-width="0" connectorname="3.3V"/>
  <rect id="connector62terminal" x="50.05" width=".7" height="0" fill="none" stroke-width="0"/>
  <rect id="connector29pin" x="42.85" y="57.6" width=".7" height="14.4" fill="none" stroke-width="0" connectorname="GND"/>
  <rect id="connector29terminal" x="42.85" y="72" width=".7" height="0" fill="none" stroke-width="0"/>
  <rect id="connector17pin" x="42.85" y="57.6" width=".7" height="14.4" fill="none" stroke-width="0" connectorname="GND"/>
  <rect id="connector17terminal" x="42.85" y="72" width=".7" height="0" fill="none" stroke-width="0"/>
  <rect id="connector58pin" x="42.85" y="57.6" width=".7" height="14.4" fill="none" stroke-width="0" connectorname="GND"/>
  <rect id="connector58terminal" x="42.85" y="72" width=".7" height="0" fill="none" stroke-width="0"/>
  <rect id="connector61pin" x="42.85" y="57.6" width=".7" height="14.4" fill="none" stroke-width="0" connectorname="GND"/>
  <rect id="connector61terminal" x="42.85" y="72" width=".7" height="0" fill="none" stroke-width="0"/>
  <rect id="connector30pin" y="28.45" width="14.4" height=".7" fill="none" stroke-width="0" connectorName="SCL"/>
  <rect id="connector30terminal" y="28.45" width="0" height=".7" fill="none" stroke-width="0"/>
  <rect id="connector20pin" y="28.45" width="14.4" height=".7" fill="none" stroke-width="0" connectorName="SCL"/>
  <rect id="connector20terminal" y="28.45" width="0" height=".7" fill="none" stroke-width="0"/>
  <rect id="connector31pin" x="79.2" y="28.45" width="14.4" height=".7" fill="none" stroke-width="0" connectorname="SDA"/>
  <rect id="connector31terminal" x="93.6" y="28.45" width="0" height=".7" fill="none" stroke-width="0"/>
  <rect id="connector19pin" x="79.2" y="28.45" width="14.4" height=".7" fill="none" stroke-width="0" connectorname="SDA"/>
  <rect id="connector19terminal" x="93.6" y="28.45" width="0" height=".7" fill="none" stroke-width="0"/>
 </g>
</svg>
