<?xml version="1.0" encoding="UTF-8"?>
<!-- Generator: Adobe Illustrator 26.3.1, SVG Export Plug-In . SVG Version: 6.00 Build 0)  -->
<svg width="1in" height="1.5in" enable-background="new 0 0 72 108" version="1.1" viewBox="0 0 72 108" xml:space="preserve" xmlns="http://www.w3.org/2000/svg" xmlns:xml="http://www.w3.org/XML/1998/namespace">
    <desc>
        <referenceFile>PCF8574 QT rev B_schematic.svg</referenceFile>
    </desc>
    <g id="schematic">
        <rect x="14.4" y="14.4" width="42.75" height="79.2" fill="none" stroke="#000" stroke-linecap="round" stroke-linejoin="round" stroke-width=".9"/>
        <g transform="translate(29.238 43.4)">
            <text id="label" font-family="Noto Sans" font-size="2.8">PCF8574</text>
        </g>
        <g transform="translate(29.578 38.995)">
            <text font-family="Noto Sans" font-size="2.8">Adafruit</text>
        </g>
        <g transform="translate(32.177 47.863)">
            <text font-family="Noto Sans" font-size="2.8">GPIO</text>
        </g>
        <g transform="translate(29.577 52.024)">
            <text font-family="Noto Sans" font-size="2.8">Expander</text>
        </g>
        <line x1=".35" x2="14.4" y1="28.8" y2="28.8" fill="none" stroke="#787878" stroke-linecap="round" stroke-linejoin="round" stroke-width=".7"/>
        <rect id="connector12pin" y="28.45" width="14.4" height=".7" fill="none"/>
        <rect id="connector12terminal" y="28.45" width="0" height=".7" fill="none"/>
        <g transform="translate(15.8 29.5)">
            <text fill="#8C8C8C" font-family="Noto Sans" font-size="2.8">SCL</text>
        </g>
        <line x1=".35" x2="14.4" y1="36" y2="36" fill="none" stroke="#787878" stroke-linecap="round" stroke-linejoin="round" stroke-width=".7"/>
        <rect id="connector11pin" y="35.65" width="14.4" height=".7" fill="none"/>
        <rect id="connector11terminal" y="35.65" width="0" height=".7" fill="none"/>
        <g transform="translate(15.8 36.7)">
            <text fill="#8C8C8C" font-family="Noto Sans" font-size="2.8">SDA</text>
        </g>
        <line x1=".35" x2="14.4" y1="43.2" y2="43.2" fill="none" stroke="#787878" stroke-linecap="round" stroke-linejoin="round" stroke-width=".7"/>
        <rect id="connector50pin" y="42.85" width="14.4" height=".7" fill="none"/>
        <rect id="connector50terminal" y="42.85" width="0" height=".7" fill="none"/>
        <g transform="translate(15.8 43.9)">
            <text fill="#8C8C8C" font-family="Noto Sans" font-size="2.8">INT</text>
        </g>
        <line x1=".35" x2="14.4" y1="50.4" y2="50.4" fill="none" stroke="#787878" stroke-linecap="round" stroke-linejoin="round" stroke-width=".7"/>
        <rect id="connector51pin" y="50.05" width="14.4" height=".7" fill="none"/>
        <rect id="connector51terminal" y="50.05" width="0" height=".7" fill="none"/>
        <g transform="translate(15.8 51.1)">
            <text fill="#8C8C8C" font-family="Noto Sans" font-size="2.8">A0</text>
        </g>
        <line x1="57.25" x2="71.65" y1="28.8" y2="28.8" fill="none" stroke="#787878" stroke-linecap="round" stroke-linejoin="round" stroke-width=".7"/>
        <rect id="connector60pin" x="57.6" y="28.45" width="14.4" height=".7" fill="none"/>
        <rect id="connector60terminal" x="72" y="28.45" width="0" height=".7" fill="none"/>
        <g transform="translate(52.256 29.5)">
            <text fill="#8C8C8C" font-family="Noto Sans" font-size="2.8">P7</text>
        </g>
        <line x1="57.25" x2="71.65" y1="36" y2="36" fill="none" stroke="#787878" stroke-linecap="round" stroke-linejoin="round" stroke-width=".7"/>
        <rect id="connector59pin" x="57.6" y="35.65" width="14.4" height=".7" fill="none"/>
        <rect id="connector59terminal" x="72" y="35.65" width="0" height=".7" fill="none"/>
        <g transform="translate(52.256 36.7)">
            <text fill="#8C8C8C" font-family="Noto Sans" font-size="2.8">P6</text>
        </g>
        <line x1="57.25" x2="71.65" y1="43.2" y2="43.2" fill="none" stroke="#787878" stroke-linecap="round" stroke-linejoin="round" stroke-width=".7"/>
        <rect id="connector58pin" x="57.6" y="42.85" width="14.4" height=".7" fill="none"/>
        <rect id="connector58terminal" x="72" y="42.85" width="0" height=".7" fill="none"/>
        <g transform="translate(52.256 43.9)">
            <text fill="#8C8C8C" font-family="Noto Sans" font-size="2.8">P5</text>
        </g>
        <line x1="57.25" x2="71.65" y1="50.4" y2="50.4" fill="none" stroke="#787878" stroke-linecap="round" stroke-linejoin="round" stroke-width=".7"/>
        <rect id="connector57pin" x="57.6" y="50.05" width="14.4" height=".7" fill="none"/>
        <rect id="connector57terminal" x="72" y="50.05" width="0" height=".7" fill="none"/>
        <g transform="translate(52.256 51.1)">
            <text fill="#8C8C8C" font-family="Noto Sans" font-size="2.8">P4</text>
        </g>
        <line x1="57.25" x2="71.65" y1="57.6" y2="57.6" fill="none" stroke="#787878" stroke-linecap="round" stroke-linejoin="round" stroke-width=".7"/>
        <rect id="connector56pin" x="57.6" y="57.25" width="14.4" height=".7" fill="none"/>
        <rect id="connector56terminal" x="72" y="57.25" width="0" height=".7" fill="none"/>
        <g transform="translate(52.256 58.3)">
            <text fill="#8C8C8C" font-family="Noto Sans" font-size="2.8">P3</text>
        </g>
        <line x1="57.25" x2="71.65" y1="64.8" y2="64.8" fill="none" stroke="#787878" stroke-linecap="round" stroke-linejoin="round" stroke-width=".7"/>
        <rect id="connector55pin" x="57.6" y="64.45" width="14.4" height=".7" fill="none"/>
        <rect id="connector55terminal" x="72" y="64.45" width="0" height=".7" fill="none"/>
        <g transform="translate(52.256 65.5)">
            <text fill="#8C8C8C" font-family="Noto Sans" font-size="2.8">P2</text>
        </g>
        <line x1="57.25" x2="71.65" y1="72" y2="72" fill="none" stroke="#787878" stroke-linecap="round" stroke-linejoin="round" stroke-width=".7"/>
        <rect id="connector54pin" x="57.6" y="71.65" width="14.4" height=".7" fill="none"/>
        <rect id="connector54terminal" x="72" y="71.65" width="0" height=".7" fill="none"/>
        <g transform="translate(52.256 72.7)">
            <text fill="#8C8C8C" font-family="Noto Sans" font-size="2.8">P1</text>
        </g>
        <line x1="57.25" x2="71.65" y1="79.2" y2="79.2" fill="none" stroke="#787878" stroke-linecap="round" stroke-linejoin="round" stroke-width=".7"/>
        <rect id="connector53pin" x="57.6" y="78.85" width="14.4" height=".7" fill="none"/>
        <rect id="connector53terminal" x="72" y="78.85" width="0" height=".7" fill="none"/>
        <g transform="translate(52.256 79.9)">
            <text fill="#8C8C8C" font-family="Noto Sans" font-size="2.8">P0</text>
        </g>
        <line x1="36" x2="36" y1=".35" y2="14.4" fill="none" stroke="#787878" stroke-linecap="round" stroke-linejoin="round" stroke-width=".7"/>
        <rect id="connector10pin" x="35.65" width=".7" height="14.4" fill="none"/>
        <polygon id="connector10terminal" points="35.65 0 36.35 0 36.35 0" fill="none"/>
        <g transform="translate(37.4 16)">
            
                <g transform="rotate(270)">
                    
                        <g transform="translate(-6.0684 2.2414e-5)">
                            <text fill="#8C8C8C" font-family="Noto Sans" font-size="2.8">VCC</text>
                        </g>
                    
                </g>
            
        </g>
        <line x1="36" x2="36" y1="93.6" y2="107.65" fill="none" stroke="#787878" stroke-linecap="round" stroke-linejoin="round" stroke-width=".7"/>
        <rect id="connector9pin" x="35.65" y="93.6" width=".7" height="14.4" fill="none"/>
        <polygon id="connector9terminal" points="35.65 108 36.35 108 36.35 108" fill="none"/>
        <g transform="translate(37.4 92)">
            
                <g transform="rotate(270)">
                    
                        <g transform="translate(2e-4 2.2414e-5)">
                            <text fill="#8C8C8C" font-family="Noto Sans" font-size="2.8">GND</text>
                        </g>
                    
                </g>
            
        </g>
        <rect id="connector46pin" x="35.65" width=".7" height="14.4" fill="none"/>
        <polygon id="connector46terminal" points="35.65 0 36.35 0 36.35 0" fill="none"/>
        <rect id="connector61pin" x="35.65" width=".7" height="14.4" fill="none"/>
        <polygon id="connector61terminal" points="35.65 0 36.35 0 36.35 0" fill="none"/>
        <rect id="connector16pin" x="35.65" width=".7" height="14.4" fill="none"/>
        <polygon id="connector16terminal" points="35.65 0 36.35 0 36.35 0" fill="none"/>
        <rect id="connector47pin" x="35.65" y="93.6" width=".7" height="14.4" fill="none"/>
        <polygon id="connector47terminal" points="35.65 108 36.35 108 36.35 108" fill="none"/>
        <rect id="connector52pin" x="35.65" y="93.6" width=".7" height="14.4" fill="none"/>
        <polygon id="connector52terminal" points="35.65 108 36.35 108 36.35 108" fill="none"/>
        <rect id="connector15pin" x="35.65" y="93.6" width=".7" height="14.4" fill="none"/>
        <polygon id="connector15terminal" points="35.65 108 36.35 108 36.35 108" fill="none"/>
        <rect id="connector18pin" y="28.45" width="14.4" height=".7" fill="none"/>
        <rect id="connector18terminal" x="35.986" y="29.149" width=".0288" height=".0014" fill="none" stroke-width="0"/>
        <rect id="" y="28.45" width="0" height=".7" fill="none"/>
        <rect id="connector48pin" y="28.45" width="14.4" height=".7" fill="none"/>
        <rect id="connector48terminal" y="28.45" width="0" height=".7" fill="none"/>
        <rect id="connector49pin" y="35.65" width="14.4" height=".7" fill="none"/>
        <rect id="connector49terminal" y="35.65" width="0" height=".7" fill="none"/>
        <rect id="connector17pin" y="35.65" width="14.4" height=".7" fill="none"/>
        <rect id="connector17terminal" y="35.65" width="0" height=".7" fill="none"/>
    </g>
</svg>
