<?xml version="1.0" encoding="UTF-8"?>
<!-- Created with Fritzing (http://www.fritzing.org/) -->
<svg width=".6in" height="1.2in" baseProfile="tiny" version="1.2" viewBox="0 0 43.2 86.4" xmlns="http://www.w3.org/2000/svg">
 <desc>
  <referenceFile>Adafruit Bi-Color 24-Bar Bargraph w I2C Backpack_schematic.svg</referenceFile>
 </desc>
 <desc>Fritzing schematic generated by brd2svg</desc>
 <g id="schematic">
  <rect x=".45" y="14.4" width="28.35" height="57.6" fill="none" stroke="#000" stroke-linecap="round" stroke-linejoin="round" stroke-width=".9"/>
  <text id="label" x="14.85" y="29.2" fill="#000000" font-family="Noto Sans" font-size="3.5" text-anchor="middle"><tspan x="14.85" y="29.2">Adafruit</tspan> <tspan x="14.85" y="32.7">Bi-Color</tspan> <tspan x="14.85" y="36.2">24-Bar</tspan> <tspan x="14.85" y="39.7">Bargraph</tspan> <tspan x="14.85" y="43.2">w</tspan> <tspan x="14.85" y="46.7">I2C</tspan> <tspan x="14.85" y="50.2">Backpack</tspan></text>
  <line x1="28.45" x2="42.85" y1="28.8" y2="28.8" fill="none" stroke="#787878" stroke-linecap="round" stroke-linejoin="round" stroke-width=".7"/>
  <rect id="connector8pin" x="28.8" y="28.45" width="14.4" height=".7" fill="none" stroke-width="0" connectorname="SDA"/>
  <rect id="connector8terminal" x="43.2" y="28.45" width="0" height=".7" fill="none" stroke-width="0"/>
  <text x="27.4" y="29.5" fill="#8c8c8c" font-family="Noto Sans" font-size="3.5" text-anchor="end">SDA</text>
  <line x1="28.45" x2="42.85" y1="36" y2="36" fill="none" stroke="#787878" stroke-linecap="round" stroke-linejoin="round" stroke-width=".7"/>
  <rect id="connector7pin" x="28.8" y="35.65" width="14.4" height=".7" fill="none" stroke-width="0" connectorname="SCL"/>
  <rect id="connector7terminal" x="43.2" y="35.65" width="0" height=".7" fill="none" stroke-width="0"/>
  <text x="27.4" y="36.7" fill="#8c8c8c" font-family="Noto Sans" font-size="3.5" text-anchor="end">SCL</text>
  <line x1="21.6" x2="21.6" y1=".35" y2="14.4" fill="none" stroke="#787878" stroke-linecap="round" stroke-linejoin="round" stroke-width=".7"/>
  <rect id="connector10pin" x="21.25" width=".7" height="14.4" fill="none" stroke-width="0" connectorname="VDD"/>
  <rect id="connector10terminal" x="21.25" width=".7" height="0" fill="none" stroke-width="0"/>
  <g transform="translate(23 16)">
   <g transform="rotate(270)">
    <text fill="#8c8c8c" font-family="Noto Sans" font-size="3.5" text-anchor="end">VDD</text>
   </g>
  </g>
  <line x1="21.6" x2="21.6" y1="72" y2="86.05" fill="none" stroke="#787878" stroke-linecap="round" stroke-linejoin="round" stroke-width=".7"/>
  <rect id="connector9pin" x="21.25" y="72" width=".7" height="14.4" fill="none" stroke-width="0" connectorname="GND"/>
  <rect id="connector9terminal" x="21.25" y="86.4" width=".7" height="0" fill="none" stroke-width="0"/>
  <g transform="translate(23 70.4)">
   <g transform="rotate(270)">
    <text fill="#8c8c8c" font-family="Noto Sans" font-size="3.5">GND</text>
   </g>
  </g>
 </g>
</svg>
