<?xml version="1.0" encoding="UTF-8"?>
<!-- Created with Fritzing (http://www.fritzing.org/) -->
<svg width=".7in" height="1.1in" baseProfile="tiny" version="1.2" viewBox="0 0 50.4 79.2" xmlns="http://www.w3.org/2000/svg">
 <desc>
  <referenceFile>Adafruit UPDI Friend_schematic.svg</referenceFile>
 </desc>
 <desc>Fritzing schematic generated by brd2svg</desc>
 <g id="schematic">
  <rect x=".45" y="14.4" width="35.55" height="50.4" fill="none" stroke="#000" stroke-linecap="round" stroke-linejoin="round" stroke-width=".9"/>
  <text id="label" x="18.45" y="36" fill="#000000" font-family="Noto Sans" font-size="3.5" text-anchor="middle"><tspan x="18.45" y="36">Adafruit</tspan> <tspan x="18.45" y="39.5">UPDI</tspan> <tspan x="18.45" y="43">Friend</tspan></text>
  <line x1="35.65" x2="50.05" y1="36" y2="36" fill="none" stroke="#787878" stroke-linecap="round" stroke-linejoin="round" stroke-width=".7"/>
  <rect id="connector21pin" x="36" y="35.65" width="14.4" height=".7" fill="none" stroke-width="0" connectorname="RXD"/>
  <rect id="connector21terminal" x="50.4" y="35.65" width="0" height=".7" fill="none" stroke-width="0"/>
  <text x="34.6" y="36.7" fill="#8c8c8c" font-family="Noto Sans" font-size="3.5" text-anchor="end">RXD</text>
  <line x1="21.6" x2="21.6" y1=".35" y2="14.4" fill="none" stroke="#787878" stroke-linecap="round" stroke-linejoin="round" stroke-width=".7"/>
  <rect id="connector22pin" x="21.25" width=".7" height="14.4" fill="none" stroke-width="0" connectorname="VDDIO"/>
  <rect id="connector22terminal" x="21.25" width=".7" height="0" fill="none" stroke-width="0"/>
  <g transform="translate(23 16)">
   <g transform="rotate(270)">
    <text fill="#8c8c8c" font-family="Noto Sans" font-size="3.5" text-anchor="end">VDDIO</text>
   </g>
  </g>
  <line x1="21.6" x2="21.6" y1="64.8" y2="78.85" fill="none" stroke="#787878" stroke-linecap="round" stroke-linejoin="round" stroke-width=".7"/>
  <rect id="connector23pin" x="21.25" y="64.8" width=".7" height="14.4" fill="none" stroke-width="0" connectorname="GND"/>
  <rect id="connector23terminal" x="21.25" y="79.2" width=".7" height="0" fill="none" stroke-width="0"/>
  <g transform="translate(23 63.2)">
   <g transform="rotate(270)">
    <text fill="#8c8c8c" font-family="Noto Sans" font-size="3.5">GND</text>
   </g>
  </g>
  <rect id="connector59pin" x="21.25" width=".7" height="14.4" fill="none" stroke-width="0" connectorname="VDDIO"/>
  <rect id="connector59terminal" x="21.25" width=".7" height="0" fill="none" stroke-width="0"/>
  <rect id="connector60pin" x="21.25" y="64.8" width=".7" height="14.4" fill="none" stroke-width="0" connectorname="GND"/>
  <rect id="connector60terminal" x="21.949" y="39.586" width=".0014" height=".0288" fill="none" stroke-width="0"/>
  <rect x="21.25" y="79.2" width=".7" height="0" fill="none" stroke-width="0"/>
  <rect id="connector58pin" x="36" y="35.65" width="14.4" height=".7" fill="none" stroke-width="0" connectorname="RXD"/>
  <rect id="connector58terminal" x="50.4" y="35.65" width="0" height=".7" fill="none" stroke-width="0"/>
 </g>
</svg>
