<?xml version="1.0" encoding="UTF-8"?>
<!DOCTYPE svg>
<!-- Generator: Adobe Illustrator 26.2.1, SVG Export Plug-In . SVG Version: 6.00 Build 0)  -->
<svg width="1.1in" height="1.9in" enable-background="new 0 0 79.2 136.8" version="1.1" viewBox="0 0 79.2 136.8" xml:space="preserve" xmlns="http://www.w3.org/2000/svg" xmlns:xml="http://www.w3.org/XML/1998/namespace">
    <desc>
        <referenceFile>TCA8418 rev B_schematic.svg</referenceFile>
    </desc>
    <metadata>
        <sfw>
            <slices/>
            <sliceSourceBounds x="0" y="0" width="79.2001" height="136.8" bottomLeftOrigin="true"/>
        </sfw>
    </metadata>
    <desc>Fritzing schematic generated by brd2svg</desc>
    <g id="schematic">
        <rect x="14.4" y="14.4" width="49.95" height="108" fill="none" stroke="#000" stroke-linecap="round" stroke-linejoin="round" stroke-width=".9"/>
        <g transform="translate(33.088 58.335)">
            <g id="label" enable-background="new    " font-family="Noto Sans" font-size="2.8">
                <text>Adafruit</text>
                <text x="-0.5142" y="4.2002">TCA8418</text>
            </g>
        </g>
        <line x1=".35" x2="14.4" y1="28.8" y2="28.8" fill="none" stroke="#787878" stroke-linecap="round" stroke-linejoin="round" stroke-width=".7"/>
        <rect id="connector54pin" y="28.45" width="14.4" height=".7" fill="none"/>
        <rect id="connector54terminal" y="28.45" width="0" height=".7" fill="none"/>
        <g transform="translate(15.8 29.5)">
            <text fill="#8C8C8C" font-family="Noto Sans" font-size="2.8">R1</text>
        </g>
        <line x1=".35" x2="14.4" y1="36" y2="36" fill="none" stroke="#787878" stroke-linecap="round" stroke-linejoin="round" stroke-width=".7"/>
        <rect id="connector55pin" y="35.65" width="14.4" height=".7" fill="none"/>
        <rect id="connector55terminal" y="35.65" width="0" height=".7" fill="none"/>
        <g transform="translate(15.8 36.7)">
            <text fill="#8C8C8C" font-family="Noto Sans" font-size="2.8">R0</text>
        </g>
        <line x1=".35" x2="14.4" y1="43.2" y2="43.2" fill="none" stroke="#787878" stroke-linecap="round" stroke-linejoin="round" stroke-width=".7"/>
        <rect id="connector56pin" y="42.85" width="14.4" height=".7" fill="none"/>
        <rect id="connector56terminal" y="42.85" width="0" height=".7" fill="none"/>
        <g transform="translate(15.8 43.9)">
            <text fill="#8C8C8C" font-family="Noto Sans" font-size="2.8">C0</text>
        </g>
        <line x1=".35" x2="14.4" y1="50.4" y2="50.4" fill="none" stroke="#787878" stroke-linecap="round" stroke-linejoin="round" stroke-width=".7"/>
        <rect id="connector57pin" y="50.05" width="14.4" height=".7" fill="none"/>
        <rect id="connector57terminal" y="50.05" width="0" height=".7" fill="none"/>
        <g transform="translate(15.8 51.1)">
            <text fill="#8C8C8C" font-family="Noto Sans" font-size="2.8">C1</text>
        </g>
        <line x1=".35" x2="14.4" y1="57.6" y2="57.6" fill="none" stroke="#787878" stroke-linecap="round" stroke-linejoin="round" stroke-width=".7"/>
        <rect id="connector58pin" y="57.25" width="14.4" height=".7" fill="none"/>
        <rect id="connector58terminal" y="57.25" width="0" height=".7" fill="none"/>
        <g transform="translate(15.8 58.3)">
            <text fill="#8C8C8C" font-family="Noto Sans" font-size="2.8">C2</text>
        </g>
        <line x1=".35" x2="14.4" y1="64.8" y2="64.8" fill="none" stroke="#787878" stroke-linecap="round" stroke-linejoin="round" stroke-width=".7"/>
        <rect id="connector59pin" y="64.45" width="14.4" height=".7" fill="none"/>
        <rect id="connector59terminal" y="64.45" width="0" height=".7" fill="none"/>
        <g transform="translate(15.8 65.5)">
            <text fill="#8C8C8C" font-family="Noto Sans" font-size="2.8">C3</text>
        </g>
        <line x1=".35" x2="14.4" y1="72" y2="72" fill="none" stroke="#787878" stroke-linecap="round" stroke-linejoin="round" stroke-width=".7"/>
        <rect id="connector60pin" y="71.65" width="14.4" height=".7" fill="none"/>
        <rect id="connector60terminal" y="71.65" width="0" height=".7" fill="none"/>
        <g transform="translate(15.8 72.7)">
            <text fill="#8C8C8C" font-family="Noto Sans" font-size="2.8">C4</text>
        </g>
        <line x1=".35" x2="14.4" y1="79.2" y2="79.2" fill="none" stroke="#787878" stroke-linecap="round" stroke-linejoin="round" stroke-width=".7"/>
        <rect id="connector61pin" y="78.85" width="14.4" height=".7" fill="none"/>
        <rect id="connector61terminal" y="78.85" width="0" height=".7" fill="none"/>
        <g transform="translate(15.8 79.9)">
            <text fill="#8C8C8C" font-family="Noto Sans" font-size="2.8">C5</text>
        </g>
        <line x1=".35" x2="14.4" y1="86.4" y2="86.4" fill="none" stroke="#787878" stroke-linecap="round" stroke-linejoin="round" stroke-width=".7"/>
        <rect id="connector62pin" y="86.05" width="14.4" height=".7" fill="none"/>
        <rect id="connector62terminal" y="86.05" width="0" height=".7" fill="none"/>
        <g transform="translate(15.8 87.1)">
            <text fill="#8C8C8C" font-family="Noto Sans" font-size="2.8">C6</text>
        </g>
        <line x1=".35" x2="14.4" y1="93.6" y2="93.6" fill="none" stroke="#787878" stroke-linecap="round" stroke-linejoin="round" stroke-width=".7"/>
        <rect id="connector63pin" y="93.25" width="14.4" height=".7" fill="none"/>
        <rect id="connector63terminal" y="93.25" width="0" height=".7" fill="none"/>
        <g transform="translate(15.8 94.3)">
            <text fill="#8C8C8C" font-family="Noto Sans" font-size="2.8">C7</text>
        </g>
        <line x1=".35" x2="14.4" y1="100.8" y2="100.8" fill="none" stroke="#787878" stroke-linecap="round" stroke-linejoin="round" stroke-width=".7"/>
        <rect id="connector64pin" y="100.45" width="14.4" height=".7" fill="none"/>
        <rect id="connector64terminal" y="100.45" width="0" height=".7" fill="none"/>
        <g transform="translate(15.8 101.5)">
            <text fill="#8C8C8C" font-family="Noto Sans" font-size="2.8">C8</text>
        </g>
        <line x1=".35" x2="14.4" y1="108" y2="108" fill="none" stroke="#787878" stroke-linecap="round" stroke-linejoin="round" stroke-width=".7"/>
        <rect id="connector65pin" y="107.65" width="14.4" height=".7" fill="none"/>
        <rect id="connector65terminal" y="107.65" width="0" height=".7" fill="none"/>
        <g transform="translate(15.8 108.7)">
            <text fill="#8C8C8C" font-family="Noto Sans" font-size="2.8">C9</text>
        </g>
        <line x1="64.45" x2="78.85" y1="28.8" y2="28.8" fill="none" stroke="#787878" stroke-linecap="round" stroke-linejoin="round" stroke-width=".7"/>
        <rect id="connector79pin" x="64.8" y="28.45" width="14.4" height=".7" fill="none"/>
        <rect id="connector79terminal" x="79.2" y="28.45" width="0" height=".7" fill="none"/>
        <g transform="translate(59.408 29.5)">
            <text fill="#8C8C8C" font-family="Noto Sans" font-size="2.8">R2</text>
        </g>
        <line x1="64.45" x2="78.85" y1="36" y2="36" fill="none" stroke="#787878" stroke-linecap="round" stroke-linejoin="round" stroke-width=".7"/>
        <rect id="connector78pin" x="64.8" y="35.65" width="14.4" height=".7" fill="none"/>
        <rect id="connector78terminal" x="79.2" y="35.65" width="0" height=".7" fill="none"/>
        <g transform="translate(59.408 36.7)">
            <text fill="#8C8C8C" font-family="Noto Sans" font-size="2.8">R3</text>
        </g>
        <line x1="64.45" x2="78.85" y1="43.2" y2="43.2" fill="none" stroke="#787878" stroke-linecap="round" stroke-linejoin="round" stroke-width=".7"/>
        <rect id="connector77pin" x="64.8" y="42.85" width="14.4" height=".7" fill="none"/>
        <rect id="connector77terminal" x="79.2" y="42.85" width="0" height=".7" fill="none"/>
        <g transform="translate(59.408 43.9)">
            <text fill="#8C8C8C" font-family="Noto Sans" font-size="2.8">R4</text>
        </g>
        <line x1="64.45" x2="78.85" y1="50.4" y2="50.4" fill="none" stroke="#787878" stroke-linecap="round" stroke-linejoin="round" stroke-width=".7"/>
        <rect id="connector76pin" x="64.8" y="50.05" width="14.4" height=".7" fill="none"/>
        <rect id="connector76terminal" x="79.2" y="50.05" width="0" height=".7" fill="none"/>
        <g transform="translate(59.408 51.1)">
            <text fill="#8C8C8C" font-family="Noto Sans" font-size="2.8">R5</text>
        </g>
        <line x1="64.45" x2="78.85" y1="57.6" y2="57.6" fill="none" stroke="#787878" stroke-linecap="round" stroke-linejoin="round" stroke-width=".7"/>
        <rect id="connector75pin" x="64.8" y="57.25" width="14.4" height=".7" fill="none"/>
        <rect id="connector75terminal" x="79.2" y="57.25" width="0" height=".7" fill="none"/>
        <g transform="translate(59.408 58.3)">
            <text fill="#8C8C8C" font-family="Noto Sans" font-size="2.8">R6</text>
        </g>
        <line x1="64.45" x2="78.85" y1="64.8" y2="64.8" fill="none" stroke="#787878" stroke-linecap="round" stroke-linejoin="round" stroke-width=".7"/>
        <rect id="connector74pin" x="64.8" y="64.45" width="14.4" height=".7" fill="none"/>
        <rect id="connector74terminal" x="79.2" y="64.45" width="0" height=".7" fill="none"/>
        <g transform="translate(59.408 65.5)">
            <text fill="#8C8C8C" font-family="Noto Sans" font-size="2.8">R7</text>
        </g>
        <line x1="64.45" x2="78.85" y1="72" y2="72" fill="none" stroke="#787878" stroke-linecap="round" stroke-linejoin="round" stroke-width=".7"/>
        <rect id="connector73pin" x="64.8" y="71.65" width="14.4" height=".7" fill="none"/>
        <rect id="connector73terminal" x="79.2" y="71.65" width="0" height=".7" fill="none"/>
        <g transform="translate(57.702 72.7)">
            <text fill="#8C8C8C" font-family="Noto Sans" font-size="2.8">RST</text>
        </g>
        <line x1="64.45" x2="78.85" y1="79.2" y2="79.2" fill="none" stroke="#787878" stroke-linecap="round" stroke-linejoin="round" stroke-width=".7"/>
        <rect id="connector72pin" x="64.8" y="78.85" width="14.4" height=".7" fill="none"/>
        <rect id="connector72terminal" x="79.2" y="78.85" width="0" height=".7" fill="none"/>
        <g transform="translate(57.846 79.9)">
            <text fill="#8C8C8C" font-family="Noto Sans" font-size="2.8">INT</text>
        </g>
        <line x1="64.45" x2="78.85" y1="86.4" y2="86.4" fill="none" stroke="#787878" stroke-linecap="round" stroke-linejoin="round" stroke-width=".7"/>
        <rect id="connector13pin" x="64.8" y="86.05" width="14.4" height=".7" fill="none"/>
        <rect id="connector13terminal" x="79.2" y="86.05" width="0" height=".7" fill="none"/>
        <g transform="translate(57.096 87.1)">
            <text fill="#8C8C8C" font-family="Noto Sans" font-size="2.8">SDA</text>
        </g>
        <line x1="64.45" x2="78.85" y1="93.6" y2="93.6" fill="none" stroke="#787878" stroke-linecap="round" stroke-linejoin="round" stroke-width=".7"/>
        <rect id="connector14pin" x="64.8" y="93.25" width="14.4" height=".7" fill="none"/>
        <rect id="connector14terminal" x="79.2" y="93.25" width="0" height=".7" fill="none"/>
        <g transform="translate(57.754 94.3)">
            <text fill="#8C8C8C" font-family="Noto Sans" font-size="2.8">SCL</text>
        </g>
        <line x1="36" x2="36" y1=".35" y2="14.4" fill="none" stroke="#787878" stroke-linecap="round" stroke-linejoin="round" stroke-width=".7"/>
        <rect id="connector12pin" x="35.65" width=".7" height="14.4" fill="none"/>
        <polygon id="connector12terminal" points="35.65 0 36.35 0 36.35 0" fill="none"/>
        <g transform="translate(37.4 16)">
            
                <g transform="rotate(270)">
                    
                        <g transform="translate(-6.0684 2.2414e-5)">
                            <text fill="#8C8C8C" font-family="Noto Sans" font-size="2.8">VCC</text>
                        </g>
                    
                </g>
            
        </g>
        <line x1="43.2" x2="43.2" y1=".35" y2="14.4" fill="none" stroke="#787878" stroke-linecap="round" stroke-linejoin="round" stroke-width=".7"/>
        <rect id="connector68pin" x="42.85" width=".7" height="14.4" fill="none"/>
        <polygon id="connector68terminal" points="42.85 0 43.55 0 43.55 0" fill="none"/>
        <g transform="translate(44.6 16)">
            
                <g transform="rotate(270)">
                    
                        <g transform="translate(-6.7812 -2.2414e-5)">
                            <text fill="#8C8C8C" font-family="Noto Sans" font-size="2.8">3.3V</text>
                        </g>
                    
                </g>
            
        </g>
        <line x1="36" x2="36" y1="122.4" y2="136.45" fill="none" stroke="#787878" stroke-linecap="round" stroke-linejoin="round" stroke-width=".7"/>
        <rect id="connector11pin" x="35.65" y="122.4" width=".7" height="14.4" fill="none"/>
        <polygon id="connector11terminal" points="35.65 136.8 36.35 136.8 36.35 136.8" fill="none"/>
        <g transform="translate(37.4 120.8)">
            
                <g transform="rotate(270)">
                    
                        <g transform="translate(2e-4 2.2414e-5)">
                            <text fill="#8C8C8C" font-family="Noto Sans" font-size="2.8">GND</text>
                        </g>
                    
                </g>
            
        </g>
        <rect id="connector67pin" x="35.65" width=".7" height="14.4" fill="none"/>
        <polygon id="connector67terminal" points="35.65 0 36.35 0 36.35 0" fill="none"/>
        <rect id="connector18pin" x="35.65" width=".7" height="14.4" fill="none"/>
        <polygon id="connector18terminal" points="35.65 0 36.35 0 36.35 0" fill="none"/>
        <rect id="connector66pin" x="35.65" y="122.4" width=".7" height="14.4" fill="none"/>
        <polygon id="connector66terminal" points="35.65 136.8 36.35 136.8 36.35 136.8" fill="none"/>
        <rect id="connector69pin" x="35.65" y="122.4" width=".7" height="14.4" fill="none"/>
        <polygon id="connector69terminal" points="35.65 136.8 36.35 136.8 36.35 136.8" fill="none"/>
        <rect id="connector17pin" x="35.65" y="122.4" width=".7" height="14.4" fill="none"/>
        <polygon id="connector17terminal" points="35.65 136.8 36.35 136.8 36.35 136.8" fill="none"/>
        <rect id="connector71pin" x="64.8" y="86.05" width="14.4" height=".7" fill="none"/>
        <rect id="connector71terminal" x="79.2" y="86.05" width="0" height=".7" fill="none"/>
        <rect id="connector19pin" x="64.8" y="86.05" width="14.4" height=".7" fill="none"/>
        <rect id="connector19terminal" x="79.2" y="86.05" width="0" height=".7" fill="none"/>
        <rect id="connector70pin" x="64.8" y="93.25" width="14.4" height=".7" fill="none"/>
        <rect id="connector70terminal" x="79.2" y="93.25" width="0" height=".7" fill="none"/>
        <rect id="connector20pin" x="64.8" y="93.25" width="14.4" height=".7" fill="none"/>
        <rect id="connector20terminal" x="79.2" y="93.25" width="0" height=".7" fill="none"/>
    </g>
</svg>
