<?xml version="1.0" encoding="UTF-8"?>
<!-- Created with Fritzing (http://www.fritzing.org/) -->
<svg width=".7in" height="1in" baseProfile="tiny" version="1.2" viewBox="0 0 50.4 72" xmlns="http://www.w3.org/2000/svg">
 <desc>
  <referenceFile>Adafruit TPS61040 Boost Converter_schematic.svg</referenceFile>
 </desc>
 <desc>Fritzing schematic generated by brd2svg</desc>
 <g id="schematic">
  <rect x=".45" y="14.4" width="35.55" height="43.2" fill="none" stroke="#000" stroke-linecap="round" stroke-linejoin="round" stroke-width=".9"/>
  <text id="label" x="18.45" y="29" fill="#000000" font-family="Noto Sans" font-size="3.5" text-anchor="middle"><tspan x="18.45" y="29">Adafruit</tspan> <tspan x="18.45" y="32.5">TPS61040</tspan> <tspan x="18.45" y="36">Boost</tspan> <tspan x="18.45" y="39.5">Converter</tspan></text>
  <line x1="35.65" x2="50.05" y1="28.8" y2="28.8" fill="none" stroke="#787878" stroke-linecap="round" stroke-linejoin="round" stroke-width=".7"/>
  <rect id="connector14pin" x="36" y="28.45" width="14.4" height=".7" fill="none" stroke-width="0" connectorname="EN"/>
  <rect id="connector14terminal" x="25.186" y="29.149" width=".0288" height=".0014" fill="none" stroke-width="0"/>
  <rect x="50.4" y="28.45" width="0" height=".7" fill="none" stroke-width="0"/>
  <text x="34.6" y="29.5" fill="#8c8c8c" font-family="Noto Sans" font-size="3.5" text-anchor="end">EN</text>
  <line x1="21.6" x2="21.6" y1=".35" y2="14.4" fill="none" stroke="#787878" stroke-linecap="round" stroke-linejoin="round" stroke-width=".7"/>
  <rect id="connector15pin" x="21.25" width=".7" height="14.4" fill="none" stroke-width="0" connectorname="VIN"/>
  <rect id="connector15terminal" x="21.25" width=".7" height="0" fill="none" stroke-width="0"/>
  <g transform="translate(23 16)">
   <g transform="rotate(270)">
    <text fill="#8c8c8c" font-family="Noto Sans" font-size="3.5" text-anchor="end">VIN</text>
   </g>
  </g>
  <line x1="28.8" x2="28.8" y1=".35" y2="14.4" fill="none" stroke="#787878" stroke-linecap="round" stroke-linejoin="round" stroke-width=".7"/>
  <rect id="connector16pin" x="28.45" width=".7" height="14.4" fill="none" stroke-width="0" connectorname="V+"/>
  <rect id="connector16terminal" x="28.45" width=".7" height="0" fill="none" stroke-width="0"/>
  <g transform="translate(30.2 16)">
   <g transform="rotate(270)">
    <text fill="#8c8c8c" font-family="Noto Sans" font-size="3.5" text-anchor="end">V+</text>
   </g>
  </g>
  <line x1="21.6" x2="21.6" y1="57.6" y2="71.65" fill="none" stroke="#787878" stroke-linecap="round" stroke-linejoin="round" stroke-width=".7"/>
  <rect id="connector17pin" x="21.25" y="57.6" width=".7" height="14.4" fill="none" stroke-width="0" connectorname="GND"/>
  <rect id="connector17terminal" x="21.25" y="72" width=".7" height="0" fill="none" stroke-width="0"/>
  <g transform="translate(23 56)">
   <g transform="rotate(270)">
    <text fill="#8c8c8c" font-family="Noto Sans" font-size="3.5">GND</text>
   </g>
  </g>
 </g>
</svg>
