<?xml version="1.0" encoding="UTF-8"?>
<!DOCTYPE svg>
<!-- Generator: Adobe Illustrator 26.2.1, SVG Export Plug-In . SVG Version: 6.00 Build 0)  -->
<svg width="1.6in" height="1.5in" enable-background="new 0 0 115.2 108" version="1.1" viewBox="0 0 115.2 108" xml:space="preserve" xmlns="http://www.w3.org/2000/svg" xmlns:xml="http://www.w3.org/XML/1998/namespace">
    <desc>
        <referenceFile>OV5640 Breakout rev B_schematic.svg</referenceFile>
    </desc>
    <metadata>
        <sfw>
            <slices/>
            <sliceSourceBounds x="0" y="0" width="115.2" height="108" bottomLeftOrigin="true"/>
        </sfw>
    </metadata>
    <desc>Fritzing schematic generated by brd2svg</desc>
    <g id="schematic">
        <rect x="14.4" y="14.4" width="85.95" height="79.2" fill="none" stroke="#000" stroke-linecap="round" stroke-linejoin="round" stroke-width=".9"/>
        <g transform="translate(51.17 42.976)">
            <g id="label" enable-background="new    " font-family="Noto Sans" font-size="2.8">
                <text>Adafruit</text>
                <text y="4.2002">OV5640</text>
            </g>
        </g>
        <g transform="translate(51.17 51.135)">
            <text font-family="Noto Sans" font-size="2.8">Breakout</text>
        </g>
        <line x1=".35" x2="14.4" y1="28.8" y2="28.8" fill="none" stroke="#787878" stroke-linecap="round" stroke-linejoin="round" stroke-width=".7"/>
        <rect id="connector48pin" y="28.45" width="14.4" height=".7" fill="none"/>
        <rect id="connector48terminal" y="28.45" width="0" height=".7" fill="none"/>
        <g transform="translate(15.8 29.5)">
            <text fill="#8C8C8C" font-family="Noto Sans" font-size="2.8">SCL</text>
        </g>
        <line x1=".35" x2="14.4" y1="36" y2="36" fill="none" stroke="#787878" stroke-linecap="round" stroke-linejoin="round" stroke-width=".7"/>
        <rect id="connector50pin" y="35.65" width="14.4" height=".7" fill="none"/>
        <rect id="connector50terminal" y="35.65" width="0" height=".7" fill="none"/>
        <g transform="translate(15.8 36.7)">
            <text fill="#8C8C8C" font-family="Noto Sans" font-size="2.8">VSYNC</text>
        </g>
        <line x1=".35" x2="14.4" y1="43.2" y2="43.2" fill="none" stroke="#787878" stroke-linecap="round" stroke-linejoin="round" stroke-width=".7"/>
        <rect id="connector52pin" y="42.85" width="14.4" height=".7" fill="none"/>
        <rect id="connector52terminal" y="42.85" width="0" height=".7" fill="none"/>
        <g transform="translate(15.8 43.9)">
            <text fill="#8C8C8C" font-family="Noto Sans" font-size="2.8">PCLK</text>
        </g>
        <line x1=".35" x2="14.4" y1="50.4" y2="50.4" fill="none" stroke="#787878" stroke-linecap="round" stroke-linejoin="round" stroke-width=".7"/>
        <rect id="connector54pin" y="50.05" width="14.4" height=".7" fill="none"/>
        <rect id="connector54terminal" y="50.05" width="0" height=".7" fill="none"/>
        <g transform="translate(15.8 51.1)">
            <text fill="#8C8C8C" font-family="Noto Sans" font-size="2.8">DATA9</text>
        </g>
        <line x1=".35" x2="14.4" y1="57.6" y2="57.6" fill="none" stroke="#787878" stroke-linecap="round" stroke-linejoin="round" stroke-width=".7"/>
        <rect id="connector56pin" y="57.25" width="14.4" height=".7" fill="none"/>
        <rect id="connector56terminal" y="57.25" width="0" height=".7" fill="none"/>
        <g transform="translate(15.8 58.3)">
            <text fill="#8C8C8C" font-family="Noto Sans" font-size="2.8">DATA7</text>
        </g>
        <line x1=".35" x2="14.4" y1="64.8" y2="64.8" fill="none" stroke="#787878" stroke-linecap="round" stroke-linejoin="round" stroke-width=".7"/>
        <rect id="connector58pin" y="64.45" width="14.4" height=".7" fill="none"/>
        <rect id="connector58terminal" y="64.45" width="0" height=".7" fill="none"/>
        <g transform="translate(15.8 65.5)">
            <text fill="#8C8C8C" font-family="Noto Sans" font-size="2.8">DATA5</text>
        </g>
        <line x1=".35" x2="14.4" y1="72" y2="72" fill="none" stroke="#787878" stroke-linecap="round" stroke-linejoin="round" stroke-width=".7"/>
        <rect id="connector60pin" y="71.65" width="14.4" height=".7" fill="none"/>
        <rect id="connector60terminal" y="71.65" width="0" height=".7" fill="none"/>
        <g transform="translate(15.8 72.7)">
            <text fill="#8C8C8C" font-family="Noto Sans" font-size="2.8">DATA3</text>
        </g>
        <line x1=".35" x2="14.4" y1="79.2" y2="79.2" fill="none" stroke="#787878" stroke-linecap="round" stroke-linejoin="round" stroke-width=".7"/>
        <rect id="connector62pin" y="78.85" width="14.4" height=".7" fill="none"/>
        <rect id="connector62terminal" y="78.85" width="0" height=".7" fill="none"/>
        <g transform="translate(15.8 79.9)">
            <text fill="#8C8C8C" font-family="Noto Sans" font-size="2.8">!RESET</text>
        </g>
        <line x1="100.45" x2="114.85" y1="28.8" y2="28.8" fill="none" stroke="#787878" stroke-linecap="round" stroke-linejoin="round" stroke-width=".7"/>
        <rect id="connector38pin" x="100.8" y="28.45" width="14.4" height=".7" fill="none"/>
        <rect id="connector38terminal" x="115.2" y="28.45" width="0" height=".7" fill="none"/>
        <g transform="translate(93.096 29.5)">
            <text fill="#8C8C8C" font-family="Noto Sans" font-size="2.8">SDA</text>
        </g>
        <line x1="100.45" x2="114.85" y1="36" y2="36" fill="none" stroke="#787878" stroke-linecap="round" stroke-linejoin="round" stroke-width=".7"/>
        <rect id="connector39pin" x="100.8" y="35.65" width="14.4" height=".7" fill="none"/>
        <rect id="connector39terminal" x="115.2" y="35.65" width="0" height=".7" fill="none"/>
        <g transform="translate(88.623 36.7)">
            <text fill="#8C8C8C" font-family="Noto Sans" font-size="2.8">HSYNC</text>
        </g>
        <line x1="100.45" x2="114.85" y1="43.2" y2="43.2" fill="none" stroke="#787878" stroke-linecap="round" stroke-linejoin="round" stroke-width=".7"/>
        <rect id="connector40pin" x="100.8" y="42.85" width="14.4" height=".7" fill="none"/>
        <rect id="connector40terminal" x="115.2" y="42.85" width="0" height=".7" fill="none"/>
        <g transform="translate(84.682 43.9)">
            <text fill="#8C8C8C" font-family="Noto Sans" font-size="2.8">EXT_XCLK</text>
        </g>
        <line x1="100.45" x2="114.85" y1="50.4" y2="50.4" fill="none" stroke="#787878" stroke-linecap="round" stroke-linejoin="round" stroke-width=".7"/>
        <rect id="connector41pin" x="100.8" y="50.05" width="14.4" height=".7" fill="none"/>
        <rect id="connector41terminal" x="115.2" y="50.05" width="0" height=".7" fill="none"/>
        <g transform="translate(89.461 51.1)">
            <text fill="#8C8C8C" font-family="Noto Sans" font-size="2.8">DATA8</text>
        </g>
        <line x1="100.45" x2="114.85" y1="57.6" y2="57.6" fill="none" stroke="#787878" stroke-linecap="round" stroke-linejoin="round" stroke-width=".7"/>
        <rect id="connector42pin" x="100.8" y="57.25" width="14.4" height=".7" fill="none"/>
        <rect id="connector42terminal" x="115.2" y="57.25" width="0" height=".7" fill="none"/>
        <g transform="translate(89.461 58.3)">
            <text fill="#8C8C8C" font-family="Noto Sans" font-size="2.8">DATA6</text>
        </g>
        <line x1="100.45" x2="114.85" y1="64.8" y2="64.8" fill="none" stroke="#787878" stroke-linecap="round" stroke-linejoin="round" stroke-width=".7"/>
        <rect id="connector43pin" x="100.8" y="64.45" width="14.4" height=".7" fill="none"/>
        <rect id="connector43terminal" x="115.2" y="64.45" width="0" height=".7" fill="none"/>
        <g transform="translate(89.461 65.5)">
            <text fill="#8C8C8C" font-family="Noto Sans" font-size="2.8">DATA4</text>
        </g>
        <line x1="100.45" x2="114.85" y1="72" y2="72" fill="none" stroke="#787878" stroke-linecap="round" stroke-linejoin="round" stroke-width=".7"/>
        <rect id="connector44pin" x="100.8" y="71.65" width="14.4" height=".7" fill="none"/>
        <rect id="connector44terminal" x="115.2" y="71.65" width="0" height=".7" fill="none"/>
        <g transform="translate(89.461 72.7)">
            <text fill="#8C8C8C" font-family="Noto Sans" font-size="2.8">DATA2</text>
        </g>
        <line x1="100.45" x2="114.85" y1="79.2" y2="79.2" fill="none" stroke="#787878" stroke-linecap="round" stroke-linejoin="round" stroke-width=".7"/>
        <rect id="connector45pin" x="100.8" y="78.85" width="14.4" height=".7" fill="none"/>
        <rect id="connector45terminal" x="115.2" y="78.85" width="0" height=".7" fill="none"/>
        <g transform="translate(89.345 79.9)">
            <text fill="#8C8C8C" font-family="Noto Sans" font-size="2.8">PWDN</text>
        </g>
        <line x1="57.6" x2="57.6" y1=".35" y2="14.4" fill="none" stroke="#787878" stroke-linecap="round" stroke-linejoin="round" stroke-width=".7"/>
        <rect id="connector46pin" x="57.25" width=".7" height="14.4" fill="none"/>
        <polygon id="connector46terminal" points="57.25 0 57.95 0 57.95 0" fill="none"/>
        <g transform="translate(59 16)">
            
                <g transform="rotate(270)">
                    
                        <g transform="translate(-6.7812)">
                            <text fill="#8C8C8C" font-family="Noto Sans" font-size="2.8">3.3V</text>
                        </g>
                    
                </g>
            
        </g>
        <line x1="57.6" x2="57.6" y1="93.6" y2="107.65" fill="none" stroke="#787878" stroke-linecap="round" stroke-linejoin="round" stroke-width=".7"/>
        <rect id="connector37pin" x="57.25" y="93.6" width=".7" height="14.4" fill="none"/>
        <polygon id="connector37terminal" points="57.25 108 57.95 108 57.95 108" fill="none"/>
        <g transform="translate(59 92)">
            
                <g transform="rotate(270)">
                    
                        <g transform="translate(2e-4)">
                            <text fill="#8C8C8C" font-family="Noto Sans" font-size="2.8">GND</text>
                        </g>
                    
                </g>
            
        </g>
        <rect id="connector47pin" x="57.25" y="93.6" width=".7" height="14.4" fill="none"/>
        <polygon id="connector47terminal" points="57.25 108 57.95 108 57.95 108" fill="none"/>
        <rect id="connector49pin" x="100.8" y="28.45" width="14.4" height=".7" fill="none"/>
        <rect id="connector49terminal" x="115.2" y="28.45" width="0" height=".7" fill="none"/>
        <rect id="connector51pin" x="100.8" y="35.65" width="14.4" height=".7" fill="none"/>
        <rect id="connector51terminal" x="115.2" y="35.65" width="0" height=".7" fill="none"/>
        <rect id="connector53pin" x="100.8" y="42.85" width="14.4" height=".7" fill="none"/>
        <rect id="connector53terminal" x="115.2" y="42.85" width="0" height=".7" fill="none"/>
        <rect id="connector55pin" x="100.8" y="50.05" width="14.4" height=".7" fill="none"/>
        <rect id="connector55terminal" x="115.2" y="50.05" width="0" height=".7" fill="none"/>
        <rect id="connector57pin" x="100.8" y="57.25" width="14.4" height=".7" fill="none"/>
        <rect id="connector57terminal" x="115.2" y="57.25" width="0" height=".7" fill="none"/>
        <rect id="connector59pin" x="100.8" y="64.45" width="14.4" height=".7" fill="none"/>
        <rect id="connector59terminal" x="115.2" y="64.45" width="0" height=".7" fill="none"/>
        <rect id="connector61pin" x="100.8" y="71.65" width="14.4" height=".7" fill="none"/>
        <rect id="connector61terminal" x="115.2" y="71.65" width="0" height=".7" fill="none"/>
        <rect id="connector63pin" x="100.8" y="78.85" width="14.4" height=".7" fill="none"/>
        <rect id="connector63terminal" x="115.2" y="78.85" width="0" height=".7" fill="none"/>
    </g>
</svg>
