<?xml version="1.0" encoding="UTF-8"?>
<!-- Created with Fritzing (http://www.fritzing.org/) -->
<svg width=".8in" height="1.1in" baseProfile="tiny" version="1.2" viewBox="0 0 57.6 79.2" xmlns="http://www.w3.org/2000/svg">
 <desc>
  <referenceFile>Adafruit STEMMA Reflective Photo Interrupt Sensor_schematic.svg</referenceFile>
 </desc>
 <desc>Fritzing schematic generated by brd2svg</desc>
 <g id="schematic">
  <rect x="14.4" y="14.4" width="42.75" height="50.4" fill="none" stroke="#000" stroke-linecap="round" stroke-linejoin="round" stroke-width=".9"/>
  <text id="label" x="36" y="28.8" fill="#000000" font-family="Noto Sans" font-size="3.5" text-anchor="middle"><tspan x="36" y="28.8">Adafruit</tspan> <tspan x="36" y="32.3">STEMMA</tspan> <tspan x="36" y="35.8">Reflective</tspan> <tspan x="36" y="39.3">Photo</tspan> <tspan x="36" y="42.8">Interrupt</tspan> <tspan x="36" y="46.3">Sensor</tspan></text>
  <line x1=".35" x2="14.4" y1="28.8" y2="28.8" fill="none" stroke="#787878" stroke-linecap="round" stroke-linejoin="round" stroke-width=".7"/>
  <rect id="connector21pin" y="28.45" width="14.4" height=".7" fill="none" stroke-width="0" connectorName="LEDA"/>
  <rect id="connector21terminal" y="28.45" width="0" height=".7" fill="none" stroke-width="0"/>
  <text x="15.8" y="29.5" fill="#8c8c8c" font-family="Noto Sans" font-size="3.5">LEDA</text>
  <line x1=".35" x2="14.4" y1="36" y2="36" fill="none" stroke="#787878" stroke-linecap="round" stroke-linejoin="round" stroke-width=".7"/>
  <rect id="connector13pin" y="35.65" width="14.4" height=".7" fill="none" stroke-width="0" connectorName="SIGNAL"/>
  <rect id="connector13terminal" x="28.786" y="36.349" width=".0288" height=".0014" fill="none" stroke-width="0"/>
  <rect y="35.65" width="0" height=".7" fill="none" stroke-width="0"/>
  <text x="15.8" y="36.7" fill="#8c8c8c" font-family="Noto Sans" font-size="3.5">SIGNAL</text>
  <line x1="28.8" x2="28.8" y1=".35" y2="14.4" fill="none" stroke="#787878" stroke-linecap="round" stroke-linejoin="round" stroke-width=".7"/>
  <rect id="connector14pin" x="28.45" width=".7" height="14.4" fill="none" stroke-width="0" connectorname="VIN"/>
  <rect id="connector14terminal" x="28.45" width=".7" height="0" fill="none" stroke-width="0"/>
  <g transform="translate(30.2 16)">
   <g transform="rotate(270)">
    <text fill="#8c8c8c" font-family="Noto Sans" font-size="3.5" text-anchor="end">VIN</text>
   </g>
  </g>
  <line x1="28.8" x2="28.8" y1="64.8" y2="78.85" fill="none" stroke="#787878" stroke-linecap="round" stroke-linejoin="round" stroke-width=".7"/>
  <rect id="connector15pin" x="28.45" y="64.8" width=".7" height="14.4" fill="none" stroke-width="0" connectorname="GND"/>
  <rect id="connector15terminal" x="28.45" y="79.2" width=".7" height="0" fill="none" stroke-width="0"/>
  <g transform="translate(30.2 63.2)">
   <g transform="rotate(270)">
    <text fill="#8c8c8c" font-family="Noto Sans" font-size="3.5">GND</text>
   </g>
  </g>
  <rect id="connector17pin" x="28.45" width=".7" height="14.4" fill="none" stroke-width="0" connectorname="VIN"/>
  <rect id="connector17terminal" x="28.45" width=".7" height="0" fill="none" stroke-width="0"/>
  <rect id="connector37pin" x="28.45" width=".7" height="14.4" fill="none" stroke-width="0" connectorname="VIN"/>
  <rect id="connector37terminal" x="28.45" width=".7" height="0" fill="none" stroke-width="0"/>
  <rect id="connector18pin" x="28.45" y="64.8" width=".7" height="14.4" fill="none" stroke-width="0" connectorname="GND"/>
  <rect id="connector18terminal" x="28.45" y="79.2" width=".7" height="0" fill="none" stroke-width="0"/>
  <rect id="connector20pin" x="28.45" y="64.8" width=".7" height="14.4" fill="none" stroke-width="0" connectorname="GND"/>
  <rect id="connector20terminal" x="28.45" y="79.2" width=".7" height="0" fill="none" stroke-width="0"/>
  <rect id="connector22pin" x="28.45" y="64.8" width=".7" height="14.4" fill="none" stroke-width="0" connectorname="GND"/>
  <rect id="connector22terminal" x="28.45" y="79.2" width=".7" height="0" fill="none" stroke-width="0"/>
  <rect id="connector36pin" x="28.45" y="64.8" width=".7" height="14.4" fill="none" stroke-width="0" connectorname="GND"/>
  <rect id="connector36terminal" x="28.45" y="79.2" width=".7" height="0" fill="none" stroke-width="0"/>
  <rect id="connector38pin" y="35.65" width="14.4" height=".7" fill="none" stroke-width="0" connectorName="SIGNAL"/>
  <rect id="connector38terminal" y="35.65" width="0" height=".7" fill="none" stroke-width="0"/>
  <rect id="connector16pin" y="35.65" width="14.4" height=".7" fill="none" stroke-width="0" connectorName="SIGNAL"/>
  <rect id="connector16terminal" y="35.65" width="0" height=".7" fill="none" stroke-width="0"/>
  <rect id="connector19pin" y="35.65" width="14.4" height=".7" fill="none" stroke-width="0" connectorName="SIGNAL"/>
  <rect id="connector19terminal" y="35.65" width="0" height=".7" fill="none" stroke-width="0"/>
 </g>
</svg>
