<?xml version="1.0" encoding="UTF-8"?>
<!-- Created with Fritzing (http://www.fritzing.org/) -->
<svg width="1.1in" height=".4in" baseProfile="tiny" version="1.2" viewBox="0 0 79.2 28.8" xmlns="http://www.w3.org/2000/svg">
 <desc>
  <referenceFile>Adafruit INA169_schematic.svg</referenceFile>
 </desc>
 <desc>Fritzing schematic generated by brd2svg</desc>
 <g id="schematic">
  <rect x="14.4" y=".45" width="49.95" height="27.9" fill="none" stroke="#000" stroke-linecap="round" stroke-linejoin="round" stroke-width=".9"/>
  <text id="label" x="39.6" y="10.9" fill="#000000" font-family="Noto Sans" font-size="3.5" text-anchor="middle"><tspan x="39.6" y="10.9">Adafruit</tspan> <tspan x="39.6" y="14.4">INA169</tspan></text>
  <line x1=".35" x2="14.4" y1="7.2" y2="7.2" fill="none" stroke="#787878" stroke-linecap="round" stroke-linejoin="round" stroke-width=".7"/>
  <rect id="connector6pin" y="6.85" width="14.4" height=".7" fill="none" stroke-width="0" connectorName="VCC"/>
  <rect id="connector6terminal" y="6.85" width="0" height=".7" fill="none" stroke-width="0"/>
  <text x="15.8" y="7.89998" fill="#8c8c8c" font-family="Noto Sans" font-size="3.5">VCC</text>
  <line x1=".35" x2="14.4" y1="14.4" y2="14.4" fill="none" stroke="#787878" stroke-linecap="round" stroke-linejoin="round" stroke-width=".7"/>
  <rect id="connector7pin" y="14.05" width="14.4" height=".7" fill="none" stroke-width="0" connectorName="GND"/>
  <rect id="connector7terminal" y="14.05" width="0" height=".7" fill="none" stroke-width="0"/>
  <text x="15.8" y="15.1" fill="#8c8c8c" font-family="Noto Sans" font-size="3.5">GND</text>
  <line x1=".35" x2="14.4" y1="21.6" y2="21.6" fill="none" stroke="#787878" stroke-linecap="round" stroke-linejoin="round" stroke-width=".7"/>
  <rect id="connector10pin" y="21.25" width="14.4" height=".7" fill="none" stroke-width="0" connectorName="OUT"/>
  <rect id="connector10terminal" y="21.25" width="0" height=".7" fill="none" stroke-width="0"/>
  <text x="15.8" y="22.3" fill="#8c8c8c" font-family="Noto Sans" font-size="3.5">OUT</text>
  <line x1="64.45" x2="78.85" y1="7.2" y2="7.2" fill="none" stroke="#787878" stroke-linecap="round" stroke-linejoin="round" stroke-width=".7"/>
  <rect id="connector5pin" x="64.8" y="6.85" width="14.4" height=".7" fill="none" stroke-width="0" connectorname="VIN+"/>
  <rect id="connector5terminal" x="79.2" y="6.85" width="0" height=".7" fill="none" stroke-width="0"/>
  <text x="63.4" y="7.89998" fill="#8c8c8c" font-family="Noto Sans" font-size="3.5" text-anchor="end">VIN+</text>
  <line x1="64.45" x2="78.85" y1="14.4" y2="14.4" fill="none" stroke="#787878" stroke-linecap="round" stroke-linejoin="round" stroke-width=".7"/>
  <rect id="connector4pin" x="64.8" y="14.05" width="14.4" height=".7" fill="none" stroke-width="0" connectorname="VIN-"/>
  <rect id="connector4terminal" x="79.2" y="14.05" width="0" height=".7" fill="none" stroke-width="0"/>
  <text x="63.4" y="15.1" fill="#8c8c8c" font-family="Noto Sans" font-size="3.5" text-anchor="end">VIN-</text>
  <rect id="connector12pin" y="14.05" width="14.4" height=".7" fill="none" stroke-width="0" connectorName="GND"/>
  <rect id="connector12terminal" y="14.05" width="0" height=".7" fill="none" stroke-width="0"/>
  <rect id="connector11pin" y="21.25" width="14.4" height=".7" fill="none" stroke-width="0" connectorName="OUT"/>
  <rect id="connector11terminal" y="21.25" width="0" height=".7" fill="none" stroke-width="0"/>
  <rect id="connector9pin" x="64.8" y="6.85" width="14.4" height=".7" fill="none" stroke-width="0" connectorname="VIN+"/>
  <rect id="connector9terminal" x="79.2" y="6.85" width="0" height=".7" fill="none" stroke-width="0"/>
  <rect id="connector8pin" x="64.8" y="14.05" width="14.4" height=".7" fill="none" stroke-width="0" connectorname="VIN-"/>
  <rect id="connector8terminal" x="79.2" y="14.05" width="0" height=".7" fill="none" stroke-width="0"/>
 </g>
</svg>
