<?xml version="1.0" encoding="UTF-8"?>
<!-- Created with Fritzing (http://www.fritzing.org/) -->
<svg width="1.4in" height="1.1in" baseProfile="tiny" version="1.2" viewBox="0 0 100.8 79.2" xmlns="http://www.w3.org/2000/svg">
 <desc>
  <referenceFile>Adafruit MOSFET Driver STEMMA Breakout_schematic.svg</referenceFile>
 </desc>
 <desc>Fritzing schematic generated by brd2svg</desc>
 <g id="schematic">
  <rect x="14.4" y="14.4" width="71.55" height="50.4" fill="none" stroke="#000" stroke-linecap="round" stroke-linejoin="round" stroke-width=".9"/>
  <text id="label" x="50.4" y="28.8" fill="#000000" font-family="Noto Sans" font-size="3.5" text-anchor="middle"><tspan x="50.4" y="28.8">Adafruit</tspan> <tspan x="50.4" y="32.3">MOSFET</tspan> <tspan x="50.4" y="35.8">Driver</tspan> <tspan x="50.4" y="39.3">STEMMA</tspan> <tspan x="50.4" y="42.8">Breakout</tspan></text>
  <line x1=".35" x2="14.4" y1="28.8" y2="28.8" fill="none" stroke="#787878" stroke-linecap="round" stroke-linejoin="round" stroke-width=".7"/>
  <rect id="connector21pin" y="28.45" width="14.4" height=".7" fill="none" stroke-width="0" connectorName="OUT"/>
  <rect id="connector21terminal" y="28.45" width="0" height=".7" fill="none" stroke-width="0"/>
  <text x="15.8" y="29.5" fill="#8c8c8c" font-family="Noto Sans" font-size="3.5">OUT</text>
  <line x1="86.05" x2="100.45" y1="28.8" y2="28.8" fill="none" stroke="#787878" stroke-linecap="round" stroke-linejoin="round" stroke-width=".7"/>
  <rect id="connector20pin" x="86.4" y="28.45" width="14.4" height=".7" fill="none" stroke-width="0" connectorname="SIGNAL"/>
  <rect id="connector20terminal" x="100.8" y="28.45" width="0" height=".7" fill="none" stroke-width="0"/>
  <text x="85.0003" y="29.5" fill="#8c8c8c" font-family="Noto Sans" font-size="3.5" text-anchor="end">SIGNAL</text>
  <line x1="50.4" x2="50.4" y1=".35" y2="14.4" fill="none" stroke="#787878" stroke-linecap="round" stroke-linejoin="round" stroke-width=".7"/>
  <rect id="connector19pin" x="50.05" width=".7" height="14.4" fill="none" stroke-width="0" connectorname="VIN"/>
  <rect id="connector19terminal" x="50.05" width=".7" height="0" fill="none" stroke-width="0"/>
  <g transform="translate(51.8 16)">
   <g transform="rotate(270)">
    <text fill="#8c8c8c" font-family="Noto Sans" font-size="3.5" text-anchor="end">VIN</text>
   </g>
  </g>
  <line x1="50.4" x2="50.4" y1="64.8" y2="78.85" fill="none" stroke="#787878" stroke-linecap="round" stroke-linejoin="round" stroke-width=".7"/>
  <rect id="connector18pin" x="50.05" y="64.8" width=".7" height="14.4" fill="none" stroke-width="0" connectorname="GND"/>
  <rect id="connector18terminal" x="50.05" y="79.2" width=".7" height="0" fill="none" stroke-width="0"/>
  <g transform="translate(51.8 63.2)">
   <g transform="rotate(270)">
    <text fill="#8c8c8c" font-family="Noto Sans" font-size="3.5">GND</text>
   </g>
  </g>
  <rect id="connector38pin" x="50.05" width=".7" height="14.4" fill="none" stroke-width="0" connectorname="VIN"/>
  <rect id="connector38terminal" x="50.05" width=".7" height="0" fill="none" stroke-width="0"/>
  <rect id="connector35pin" x="50.05" width=".7" height="14.4" fill="none" stroke-width="0" connectorname="VIN"/>
  <rect id="connector35terminal" x="50.05" width=".7" height="0" fill="none" stroke-width="0"/>
  <rect id="connector37pin" x="50.05" y="64.8" width=".7" height="14.4" fill="none" stroke-width="0" connectorname="GND"/>
  <rect id="connector37terminal" x="50.05" y="79.2" width=".7" height="0" fill="none" stroke-width="0"/>
  <rect id="connector33pin" y="28.45" width="14.4" height=".7" fill="none" stroke-width="0" connectorName="OUT"/>
  <rect id="connector33terminal" y="28.45" width="0" height=".7" fill="none" stroke-width="0"/>
  <rect id="connector39pin" x="86.4" y="28.45" width="14.4" height=".7" fill="none" stroke-width="0" connectorname="SIGNAL"/>
  <rect id="connector39terminal" x="100.8" y="28.45" width="0" height=".7" fill="none" stroke-width="0"/>
 </g>
</svg>
