<?xml version="1.0" encoding="UTF-8"?>
<!-- Created with Fritzing (http://www.fritzing.org/) -->
<svg width="1.1in" height="1.1in" baseProfile="tiny" version="1.2" viewBox="0 0 79.2 79.2" xmlns="http://www.w3.org/2000/svg">
 <desc>
  <referenceFile>Adafruit ADS1015 12Bit I2C ADC_schematic.svg</referenceFile>
 </desc>
 <desc>Fritzing schematic generated by brd2svg</desc>
 <g id="schematic">
  <rect x="14.4" y="14.4" width="49.95" height="50.4" fill="none" stroke="#000" stroke-linecap="round" stroke-linejoin="round" stroke-width=".9"/>
  <text id="label" x="39.6" y="28.8" fill="#000000" font-family="Noto Sans" font-size="3.5" text-anchor="middle"><tspan x="39.6" y="28.8">Adafruit</tspan> <tspan x="39.6" y="32.3">ADS1015</tspan> <tspan x="39.6" y="35.8">12Bit</tspan> <tspan x="39.6" y="39.3">I2C</tspan> <tspan x="39.6" y="42.8">ADC</tspan></text>
  <line x1=".35" x2="14.4" y1="28.8" y2="28.8" fill="none" stroke="#787878" stroke-linecap="round" stroke-linejoin="round" stroke-width=".7"/>
  <rect id="connector15pin" y="28.45" width="14.4" height=".7" fill="none" stroke-width="0" connectorName="ADDR"/>
  <rect id="connector15terminal" y="28.45" width="0" height=".7" fill="none" stroke-width="0"/>
  <text x="15.8" y="29.5" fill="#8c8c8c" font-family="Noto Sans" font-size="3.5">ADDR</text>
  <line x1=".35" x2="14.4" y1="36" y2="36" fill="none" stroke="#787878" stroke-linecap="round" stroke-linejoin="round" stroke-width=".7"/>
  <rect id="connector13pin" y="35.65" width="14.4" height=".7" fill="none" stroke-width="0" connectorName="AIN0"/>
  <rect id="connector13terminal" y="35.65" width="0" height=".7" fill="none" stroke-width="0"/>
  <text x="15.8" y="36.7" fill="#8c8c8c" font-family="Noto Sans" font-size="3.5">AIN0</text>
  <line x1=".35" x2="14.4" y1="43.2" y2="43.2" fill="none" stroke="#787878" stroke-linecap="round" stroke-linejoin="round" stroke-width=".7"/>
  <rect id="connector12pin" y="42.85" width="14.4" height=".7" fill="none" stroke-width="0" connectorName="AIN1"/>
  <rect id="connector12terminal" y="42.85" width="0" height=".7" fill="none" stroke-width="0"/>
  <text x="15.8" y="43.9" fill="#8c8c8c" font-family="Noto Sans" font-size="3.5">AIN1</text>
  <line x1=".35" x2="14.4" y1="50.4" y2="50.4" fill="none" stroke="#787878" stroke-linecap="round" stroke-linejoin="round" stroke-width=".7"/>
  <rect id="connector11pin" y="50.05" width="14.4" height=".7" fill="none" stroke-width="0" connectorName="AIN2"/>
  <rect id="connector11terminal" y="50.05" width="0" height=".7" fill="none" stroke-width="0"/>
  <text x="15.8" y="51.1" fill="#8c8c8c" font-family="Noto Sans" font-size="3.5">AIN2</text>
  <line x1="64.45" x2="78.85" y1="28.8" y2="28.8" fill="none" stroke="#787878" stroke-linecap="round" stroke-linejoin="round" stroke-width=".7"/>
  <rect id="connector16pin" x="64.8" y="28.45" width="14.4" height=".7" fill="none" stroke-width="0" connectorname="SDA"/>
  <rect id="connector16terminal" x="79.2" y="28.45" width="0" height=".7" fill="none" stroke-width="0"/>
  <text x="63.4" y="29.5" fill="#8c8c8c" font-family="Noto Sans" font-size="3.5" text-anchor="end">SDA</text>
  <line x1="64.45" x2="78.85" y1="36" y2="36" fill="none" stroke="#787878" stroke-linecap="round" stroke-linejoin="round" stroke-width=".7"/>
  <rect id="connector17pin" x="64.8" y="35.65" width="14.4" height=".7" fill="none" stroke-width="0" connectorname="SCL"/>
  <rect id="connector17terminal" x="79.2" y="35.65" width="0" height=".7" fill="none" stroke-width="0"/>
  <text x="63.4" y="36.7" fill="#8c8c8c" font-family="Noto Sans" font-size="3.5" text-anchor="end">SCL</text>
  <line x1="64.45" x2="78.85" y1="43.2" y2="43.2" fill="none" stroke="#787878" stroke-linecap="round" stroke-linejoin="round" stroke-width=".7"/>
  <rect id="connector14pin" x="64.8" y="42.85" width="14.4" height=".7" fill="none" stroke-width="0" connectorname="ALERT"/>
  <rect id="connector14terminal" x="79.2" y="42.85" width="0" height=".7" fill="none" stroke-width="0"/>
  <text x="63.4" y="43.9" fill="#8c8c8c" font-family="Noto Sans" font-size="3.5" text-anchor="end">ALERT</text>
  <line x1="64.45" x2="78.85" y1="50.4" y2="50.4" fill="none" stroke="#787878" stroke-linecap="round" stroke-linejoin="round" stroke-width=".7"/>
  <rect id="connector10pin" x="64.8" y="50.05" width="14.4" height=".7" fill="none" stroke-width="0" connectorname="AIN3"/>
  <rect id="connector10terminal" x="79.2" y="50.05" width="0" height=".7" fill="none" stroke-width="0"/>
  <text x="63.4" y="51.1" fill="#8c8c8c" font-family="Noto Sans" font-size="3.5" text-anchor="end">AIN3</text>
  <line x1="36" x2="36" y1=".35" y2="14.4" fill="none" stroke="#787878" stroke-linecap="round" stroke-linejoin="round" stroke-width=".7"/>
  <rect id="connector19pin" x="35.65" width=".7" height="14.4" fill="none" stroke-width="0" connectorname="VDD"/>
  <rect id="connector19terminal" x="35.65" width=".7" height="0" fill="none" stroke-width="0"/>
  <g transform="translate(37.4 16)">
   <g transform="rotate(270)">
    <text fill="#8c8c8c" font-family="Noto Sans" font-size="3.5" text-anchor="end">VDD</text>
   </g>
  </g>
  <line x1="36" x2="36" y1="64.8" y2="78.85" fill="none" stroke="#787878" stroke-linecap="round" stroke-linejoin="round" stroke-width=".7"/>
  <rect id="connector18pin" x="35.65" y="64.8" width=".7" height="14.4" fill="none" stroke-width="0" connectorname="GND"/>
  <rect id="connector18terminal" x="35.65" y="79.2" width=".7" height="0" fill="none" stroke-width="0"/>
  <g transform="translate(37.4 63.2)">
   <g transform="rotate(270)">
    <text fill="#8c8c8c" font-family="Noto Sans" font-size="3.5">GND</text>
   </g>
  </g>
 </g>
</svg>
