<?xml version="1.0" encoding="UTF-8"?>
<!-- Created with Fritzing (http://www.fritzing.org/) -->
<svg width="1.2in" height="2.2in" baseProfile="tiny" version="1.2" viewBox="0 0 86.4 158.4" xmlns="http://www.w3.org/2000/svg">
 <desc>
  <referenceFile>Adafruit RGB LCD Shield_schematic.svg</referenceFile>
 </desc>
 <desc>Fritzing schematic generated by brd2svg</desc>
 <g id="schematic">
  <rect x="14.4" y="14.4" width="57.15" height="129.6" fill="none" stroke="#000" stroke-linecap="round" stroke-linejoin="round" stroke-width=".9"/>
  <text id="label" x="43.2" y="72.2002" fill="#000000" font-family="Noto Sans" font-size="3.5" text-anchor="middle"><tspan x="43.2" y="72.2002">Adafruit</tspan> <tspan x="43.2" y="75.7001">RGB</tspan> <tspan x="43.2" y="79.2">LCD</tspan> <tspan x="43.2" y="82.6999">Shield</tspan></text>
  <line x1=".35" x2="14.4" y1="28.8" y2="28.8" fill="none" stroke="#787878" stroke-linecap="round" stroke-linejoin="round" stroke-width=".7"/>
  <rect id="connector105pin" y="28.45" width="14.4" height=".7" fill="none" stroke-width="0" connectorName="RESET"/>
  <rect id="connector105terminal" y="28.45" width="0" height=".7" fill="none" stroke-width="0"/>
  <text x="15.8" y="29.5" fill="#8c8c8c" font-family="Noto Sans" font-size="3.5">RESET</text>
  <line x1=".35" x2="14.4" y1="36" y2="36" fill="none" stroke="#787878" stroke-linecap="round" stroke-linejoin="round" stroke-width=".7"/>
  <rect id="connector81pin" y="35.65" width="14.4" height=".7" fill="none" stroke-width="0" connectorName="A0"/>
  <rect id="connector81terminal" y="35.65" width="0" height=".7" fill="none" stroke-width="0"/>
  <text x="15.8" y="36.7" fill="#8c8c8c" font-family="Noto Sans" font-size="3.5">A0</text>
  <line x1=".35" x2="14.4" y1="43.2" y2="43.2" fill="none" stroke="#787878" stroke-linecap="round" stroke-linejoin="round" stroke-width=".7"/>
  <rect id="connector82pin" y="42.85" width="14.4" height=".7" fill="none" stroke-width="0" connectorName="A1"/>
  <rect id="connector82terminal" y="42.85" width="0" height=".7" fill="none" stroke-width="0"/>
  <text x="15.8" y="43.9" fill="#8c8c8c" font-family="Noto Sans" font-size="3.5">A1</text>
  <line x1=".35" x2="14.4" y1="50.4" y2="50.4" fill="none" stroke="#787878" stroke-linecap="round" stroke-linejoin="round" stroke-width=".7"/>
  <rect id="connector83pin" y="50.05" width="14.4" height=".7" fill="none" stroke-width="0" connectorName="A2"/>
  <rect id="connector83terminal" y="50.05" width="0" height=".7" fill="none" stroke-width="0"/>
  <text x="15.8" y="51.1" fill="#8c8c8c" font-family="Noto Sans" font-size="3.5">A2</text>
  <line x1=".35" x2="14.4" y1="57.6" y2="57.6" fill="none" stroke="#787878" stroke-linecap="round" stroke-linejoin="round" stroke-width=".7"/>
  <rect id="connector84pin" y="57.25" width="14.4" height=".7" fill="none" stroke-width="0" connectorName="A3"/>
  <rect id="connector84terminal" y="57.25" width="0" height=".7" fill="none" stroke-width="0"/>
  <text x="15.8" y="58.3" fill="#8c8c8c" font-family="Noto Sans" font-size="3.5">A3</text>
  <line x1=".35" x2="14.4" y1="64.8" y2="64.8" fill="none" stroke="#787878" stroke-linecap="round" stroke-linejoin="round" stroke-width=".7"/>
  <rect id="connector85pin" y="64.45" width="14.4" height=".7" fill="none" stroke-width="0" connectorName="SDA"/>
  <rect id="connector85terminal" y="64.45" width="0" height=".7" fill="none" stroke-width="0"/>
  <text x="15.8" y="65.5" fill="#8c8c8c" font-family="Noto Sans" font-size="3.5">SDA</text>
  <line x1=".35" x2="14.4" y1="72" y2="72" fill="none" stroke="#787878" stroke-linecap="round" stroke-linejoin="round" stroke-width=".7"/>
  <rect id="connector86pin" y="71.65" width="14.4" height=".7" fill="none" stroke-width="0" connectorName="SCL"/>
  <rect id="connector86terminal" y="71.65" width="0" height=".7" fill="none" stroke-width="0"/>
  <text x="15.8" y="72.6998" fill="#8c8c8c" font-family="Noto Sans" font-size="3.5">SCL</text>
  <line x1="71.65" x2="86.05" y1="28.8" y2="28.8" fill="none" stroke="#787878" stroke-linecap="round" stroke-linejoin="round" stroke-width=".7"/>
  <rect id="connector87pin" x="72" y="28.45" width="14.4" height=".7" fill="none" stroke-width="0" connectorname="AREF"/>
  <rect id="connector87terminal" x="86.4" y="28.45" width="0" height=".7" fill="none" stroke-width="0"/>
  <text x="70.6" y="29.5" fill="#8c8c8c" font-family="Noto Sans" font-size="3.5" text-anchor="end">AREF</text>
  <line x1="71.65" x2="86.05" y1="36" y2="36" fill="none" stroke="#787878" stroke-linecap="round" stroke-linejoin="round" stroke-width=".7"/>
  <rect id="connector101pin" x="72" y="35.65" width="14.4" height=".7" fill="none" stroke-width="0" connectorname="D13"/>
  <rect id="connector101terminal" x="86.4" y="35.65" width="0" height=".7" fill="none" stroke-width="0"/>
  <text x="70.6" y="36.7" fill="#8c8c8c" font-family="Noto Sans" font-size="3.5" text-anchor="end">D13</text>
  <line x1="71.65" x2="86.05" y1="43.2" y2="43.2" fill="none" stroke="#787878" stroke-linecap="round" stroke-linejoin="round" stroke-width=".7"/>
  <rect id="connector100pin" x="72" y="42.85" width="14.4" height=".7" fill="none" stroke-width="0" connectorname="D12"/>
  <rect id="connector100terminal" x="86.4" y="42.85" width="0" height=".7" fill="none" stroke-width="0"/>
  <text x="70.6" y="43.9" fill="#8c8c8c" font-family="Noto Sans" font-size="3.5" text-anchor="end">D12</text>
  <line x1="71.65" x2="86.05" y1="50.4" y2="50.4" fill="none" stroke="#787878" stroke-linecap="round" stroke-linejoin="round" stroke-width=".7"/>
  <rect id="connector99pin" x="72" y="50.05" width="14.4" height=".7" fill="none" stroke-width="0" connectorname="D11"/>
  <rect id="connector99terminal" x="86.4" y="50.05" width="0" height=".7" fill="none" stroke-width="0"/>
  <text x="70.6" y="51.1" fill="#8c8c8c" font-family="Noto Sans" font-size="3.5" text-anchor="end">D11</text>
  <line x1="71.65" x2="86.05" y1="57.6" y2="57.6" fill="none" stroke="#787878" stroke-linecap="round" stroke-linejoin="round" stroke-width=".7"/>
  <rect id="connector98pin" x="72" y="57.25" width="14.4" height=".7" fill="none" stroke-width="0" connectorname="D10"/>
  <rect id="connector98terminal" x="86.4" y="57.25" width="0" height=".7" fill="none" stroke-width="0"/>
  <text x="70.6" y="58.3" fill="#8c8c8c" font-family="Noto Sans" font-size="3.5" text-anchor="end">D10</text>
  <line x1="71.65" x2="86.05" y1="64.8" y2="64.8" fill="none" stroke="#787878" stroke-linecap="round" stroke-linejoin="round" stroke-width=".7"/>
  <rect id="connector97pin" x="72" y="64.45" width="14.4" height=".7" fill="none" stroke-width="0" connectorname="D9"/>
  <rect id="connector97terminal" x="86.4" y="64.45" width="0" height=".7" fill="none" stroke-width="0"/>
  <text x="70.6" y="65.5" fill="#8c8c8c" font-family="Noto Sans" font-size="3.5" text-anchor="end">D9</text>
  <line x1="71.65" x2="86.05" y1="72" y2="72" fill="none" stroke="#787878" stroke-linecap="round" stroke-linejoin="round" stroke-width=".7"/>
  <rect id="connector96pin" x="72" y="71.65" width="14.4" height=".7" fill="none" stroke-width="0" connectorname="D8"/>
  <rect id="connector96terminal" x="86.4" y="71.65" width="0" height=".7" fill="none" stroke-width="0"/>
  <text x="70.6" y="72.6998" fill="#8c8c8c" font-family="Noto Sans" font-size="3.5" text-anchor="end">D8</text>
  <line x1="71.65" x2="86.05" y1="79.2" y2="79.2" fill="none" stroke="#787878" stroke-linecap="round" stroke-linejoin="round" stroke-width=".7"/>
  <rect id="connector95pin" x="72" y="78.85" width="14.4" height=".7" fill="none" stroke-width="0" connectorname="D7"/>
  <rect id="connector95terminal" x="86.4" y="78.85" width="0" height=".7" fill="none" stroke-width="0"/>
  <text x="70.6" y="79.8998" fill="#8c8c8c" font-family="Noto Sans" font-size="3.5" text-anchor="end">D7</text>
  <line x1="71.65" x2="86.05" y1="86.4" y2="86.4" fill="none" stroke="#787878" stroke-linecap="round" stroke-linejoin="round" stroke-width=".7"/>
  <rect id="connector94pin" x="72" y="86.05" width="14.4" height=".7" fill="none" stroke-width="0" connectorname="D6"/>
  <rect id="connector94terminal" x="86.4" y="86.05" width="0" height=".7" fill="none" stroke-width="0"/>
  <text x="70.6" y="87.0998" fill="#8c8c8c" font-family="Noto Sans" font-size="3.5" text-anchor="end">D6</text>
  <line x1="71.65" x2="86.05" y1="93.6" y2="93.6" fill="none" stroke="#787878" stroke-linecap="round" stroke-linejoin="round" stroke-width=".7"/>
  <rect id="connector93pin" x="72" y="93.25" width="14.4" height=".7" fill="none" stroke-width="0" connectorname="D5"/>
  <rect id="connector93terminal" x="86.4" y="93.25" width="0" height=".7" fill="none" stroke-width="0"/>
  <text x="70.6" y="94.2998" fill="#8c8c8c" font-family="Noto Sans" font-size="3.5" text-anchor="end">D5</text>
  <line x1="71.65" x2="86.05" y1="100.8" y2="100.8" fill="none" stroke="#787878" stroke-linecap="round" stroke-linejoin="round" stroke-width=".7"/>
  <rect id="connector92pin" x="72" y="100.45" width="14.4" height=".7" fill="none" stroke-width="0" connectorname="D4"/>
  <rect id="connector92terminal" x="86.4" y="100.45" width="0" height=".7" fill="none" stroke-width="0"/>
  <text x="70.6" y="101.5" fill="#8c8c8c" font-family="Noto Sans" font-size="3.5" text-anchor="end">D4</text>
  <line x1="71.65" x2="86.05" y1="108" y2="108" fill="none" stroke="#787878" stroke-linecap="round" stroke-linejoin="round" stroke-width=".7"/>
  <rect id="connector91pin" x="72" y="107.65" width="14.4" height=".7" fill="none" stroke-width="0" connectorname="D3"/>
  <rect id="connector91terminal" x="86.4" y="107.65" width="0" height=".7" fill="none" stroke-width="0"/>
  <text x="70.6" y="108.7" fill="#8c8c8c" font-family="Noto Sans" font-size="3.5" text-anchor="end">D3</text>
  <line x1="71.65" x2="86.05" y1="115.2" y2="115.2" fill="none" stroke="#787878" stroke-linecap="round" stroke-linejoin="round" stroke-width=".7"/>
  <rect id="connector90pin" x="72" y="114.85" width="14.4" height=".7" fill="none" stroke-width="0" connectorname="D2"/>
  <rect id="connector90terminal" x="86.4" y="114.85" width="0" height=".7" fill="none" stroke-width="0"/>
  <text x="70.6" y="115.9" fill="#8c8c8c" font-family="Noto Sans" font-size="3.5" text-anchor="end">D2</text>
  <line x1="71.65" x2="86.05" y1="122.4" y2="122.4" fill="none" stroke="#787878" stroke-linecap="round" stroke-linejoin="round" stroke-width=".7"/>
  <rect id="connector89pin" x="72" y="122.05" width="14.4" height=".7" fill="none" stroke-width="0" connectorname="D1"/>
  <rect id="connector89terminal" x="86.4" y="122.05" width="0" height=".7" fill="none" stroke-width="0"/>
  <text x="70.6" y="123.1" fill="#8c8c8c" font-family="Noto Sans" font-size="3.5" text-anchor="end">D1</text>
  <line x1="71.65" x2="86.05" y1="129.6" y2="129.6" fill="none" stroke="#787878" stroke-linecap="round" stroke-linejoin="round" stroke-width=".7"/>
  <rect id="connector88pin" x="72" y="129.25" width="14.4" height=".7" fill="none" stroke-width="0" connectorname="D0"/>
  <rect id="connector88terminal" x="86.4" y="129.25" width="0" height=".7" fill="none" stroke-width="0"/>
  <text x="70.6" y="130.3" fill="#8c8c8c" font-family="Noto Sans" font-size="3.5" text-anchor="end">D0</text>
  <line x1="28.8" x2="28.8" y1=".35" y2="14.4" fill="none" stroke="#787878" stroke-linecap="round" stroke-linejoin="round" stroke-width=".7"/>
  <rect id="connector79pin" x="28.45" width=".7" height="14.4" fill="none" stroke-width="0" connectorname="3.3V"/>
  <rect id="connector79terminal" x="28.45" width=".7" height="0" fill="none" stroke-width="0"/>
  <g transform="translate(30.2 16)">
   <g transform="rotate(270)">
    <text fill="#8c8c8c" font-family="Noto Sans" font-size="3.5" text-anchor="end">3.3V</text>
   </g>
  </g>
  <line x1="36" x2="36" y1=".35" y2="14.4" fill="none" stroke="#787878" stroke-linecap="round" stroke-linejoin="round" stroke-width=".7"/>
  <rect id="connector80pin" x="35.65" width=".7" height="14.4" fill="none" stroke-width="0" connectorname="+5V"/>
  <rect id="connector80terminal" x="35.65" width=".7" height="0" fill="none" stroke-width="0"/>
  <g transform="translate(37.4 16)">
   <g transform="rotate(270)">
    <text fill="#8c8c8c" font-family="Noto Sans" font-size="3.5" text-anchor="end">+5V</text>
   </g>
  </g>
  <line x1="43.2" x2="43.2" y1=".35" y2="14.4" fill="none" stroke="#787878" stroke-linecap="round" stroke-linejoin="round" stroke-width=".7"/>
  <rect id="connector108pin" x="42.85" width=".7" height="14.4" fill="none" stroke-width="0" connectorname="VIN"/>
  <rect id="connector108terminal" x="42.85" width=".7" height="0" fill="none" stroke-width="0"/>
  <g transform="translate(44.6 16)">
   <g transform="rotate(270)">
    <text fill="#8c8c8c" font-family="Noto Sans" font-size="3.5" text-anchor="end">VIN</text>
   </g>
  </g>
  <line x1="43.2" x2="43.2" y1="144" y2="158.05" fill="none" stroke="#787878" stroke-linecap="round" stroke-linejoin="round" stroke-width=".7"/>
  <rect id="connector102pin" x="42.85" y="144" width=".7" height="14.4" fill="none" stroke-width="0" connectorname="GND"/>
  <rect id="connector102terminal" x="42.85" y="158.4" width=".7" height="0" fill="none" stroke-width="0"/>
  <g transform="translate(44.6 142.4)">
   <g transform="rotate(270)">
    <text fill="#8c8c8c" font-family="Noto Sans" font-size="3.5">GND</text>
   </g>
  </g>
  <rect id="connector103pin" x="42.85" y="144" width=".7" height="14.4" fill="none" stroke-width="0" connectorname="GND"/>
  <rect id="connector103terminal" x="42.85" y="158.4" width=".7" height="0" fill="none" stroke-width="0"/>
  <rect id="connector104pin" x="42.85" y="144" width=".7" height="14.4" fill="none" stroke-width="0" connectorname="GND"/>
  <rect id="connector104terminal" x="42.85" y="158.4" width=".7" height="0" fill="none" stroke-width="0"/>
  <rect id="connector107pin" y="64.45" width="14.4" height=".7" fill="none" stroke-width="0" connectorName="SDA"/>
  <rect id="connector107terminal" y="64.45" width="0" height=".7" fill="none" stroke-width="0"/>
  <rect id="connector106pin" y="71.65" width="14.4" height=".7" fill="none" stroke-width="0" connectorName="SCL"/>
  <rect id="connector106terminal" y="71.65" width="0" height=".7" fill="none" stroke-width="0"/>
 </g>
</svg>
