<?xml version="1.0" encoding="UTF-8"?>
<!-- Created with Fritzing (http://www.fritzing.org/) -->
<svg width="1.3in" height="1.5in" baseProfile="tiny" version="1.2" viewBox="0 0 93.6 108" xmlns="http://www.w3.org/2000/svg">
 <desc>
  <referenceFile>Adafruit DS2482S-800 Breakout_schematic.svg</referenceFile>
 </desc>
 <desc>Fritzing schematic generated by brd2svg</desc>
 <g id="schematic">
  <rect x="14.4" y="14.4" width="64.35" height="79.2" fill="none" stroke="#000" stroke-linecap="round" stroke-linejoin="round" stroke-width=".9"/>
  <text id="label" x="46.8" y="43.4" fill="#000000" font-family="Noto Sans" font-size="3.5" text-anchor="middle"><tspan x="46.8" y="43.4">Adafruit</tspan> <tspan x="46.8" y="46.9">DS2482S-800</tspan> <tspan x="46.8" y="50.4">Breakout</tspan></text>
  <line x1=".35" x2="14.4" y1="28.8" y2="28.8" fill="none" stroke="#787878" stroke-linecap="round" stroke-linejoin="round" stroke-width=".7"/>
  <rect id="connector34pin" y="28.45" width="14.4" height=".7" fill="none" stroke-width="0" connectorName="OW0"/>
  <rect id="connector34terminal" y="28.45" width="0" height=".7" fill="none" stroke-width="0"/>
  <text x="15.8" y="29.5" fill="#8c8c8c" font-family="Noto Sans" font-size="3.5">OW0</text>
  <line x1=".35" x2="14.4" y1="36" y2="36" fill="none" stroke="#787878" stroke-linecap="round" stroke-linejoin="round" stroke-width=".7"/>
  <rect id="connector37pin" y="35.65" width="14.4" height=".7" fill="none" stroke-width="0" connectorName="OW1"/>
  <rect id="connector37terminal" y="35.65" width="0" height=".7" fill="none" stroke-width="0"/>
  <text x="15.8" y="36.7" fill="#8c8c8c" font-family="Noto Sans" font-size="3.5">OW1</text>
  <line x1=".35" x2="14.4" y1="43.2" y2="43.2" fill="none" stroke="#787878" stroke-linecap="round" stroke-linejoin="round" stroke-width=".7"/>
  <rect id="connector40pin" y="42.85" width="14.4" height=".7" fill="none" stroke-width="0" connectorName="OW2"/>
  <rect id="connector40terminal" y="42.85" width="0" height=".7" fill="none" stroke-width="0"/>
  <text x="15.8" y="43.9" fill="#8c8c8c" font-family="Noto Sans" font-size="3.5">OW2</text>
  <line x1=".35" x2="14.4" y1="50.4" y2="50.4" fill="none" stroke="#787878" stroke-linecap="round" stroke-linejoin="round" stroke-width=".7"/>
  <rect id="connector43pin" y="50.05" width="14.4" height=".7" fill="none" stroke-width="0" connectorName="OW3"/>
  <rect id="connector43terminal" y="50.05" width="0" height=".7" fill="none" stroke-width="0"/>
  <text x="15.8" y="51.1" fill="#8c8c8c" font-family="Noto Sans" font-size="3.5">OW3</text>
  <line x1=".35" x2="14.4" y1="57.6" y2="57.6" fill="none" stroke="#787878" stroke-linecap="round" stroke-linejoin="round" stroke-width=".7"/>
  <rect id="connector46pin" y="57.25" width="14.4" height=".7" fill="none" stroke-width="0" connectorName="OW4"/>
  <rect id="connector46terminal" y="57.25" width="0" height=".7" fill="none" stroke-width="0"/>
  <text x="15.8" y="58.3" fill="#8c8c8c" font-family="Noto Sans" font-size="3.5">OW4</text>
  <line x1=".35" x2="14.4" y1="64.8" y2="64.8" fill="none" stroke="#787878" stroke-linecap="round" stroke-linejoin="round" stroke-width=".7"/>
  <rect id="connector49pin" y="64.45" width="14.4" height=".7" fill="none" stroke-width="0" connectorName="OW5"/>
  <rect id="connector49terminal" y="64.45" width="0" height=".7" fill="none" stroke-width="0"/>
  <text x="15.8" y="65.5" fill="#8c8c8c" font-family="Noto Sans" font-size="3.5">OW5</text>
  <line x1=".35" x2="14.4" y1="72" y2="72" fill="none" stroke="#787878" stroke-linecap="round" stroke-linejoin="round" stroke-width=".7"/>
  <rect id="connector52pin" y="71.65" width="14.4" height=".7" fill="none" stroke-width="0" connectorName="OW6"/>
  <rect id="connector52terminal" y="71.65" width="0" height=".7" fill="none" stroke-width="0"/>
  <text x="15.8" y="72.6998" fill="#8c8c8c" font-family="Noto Sans" font-size="3.5">OW6</text>
  <line x1=".35" x2="14.4" y1="79.2" y2="79.2" fill="none" stroke="#787878" stroke-linecap="round" stroke-linejoin="round" stroke-width=".7"/>
  <rect id="connector55pin" y="78.85" width="14.4" height=".7" fill="none" stroke-width="0" connectorName="OW7"/>
  <rect id="connector55terminal" y="78.85" width="0" height=".7" fill="none" stroke-width="0"/>
  <text x="15.8" y="79.8998" fill="#8c8c8c" font-family="Noto Sans" font-size="3.5">OW7</text>
  <line x1="78.85" x2="93.25" y1="28.8" y2="28.8" fill="none" stroke="#787878" stroke-linecap="round" stroke-linejoin="round" stroke-width=".7"/>
  <rect id="connector14pin" x="79.2" y="28.45" width="14.4" height=".7" fill="none" stroke-width="0" connectorname="SCL"/>
  <rect id="connector14terminal" x="93.6" y="28.45" width="0" height=".7" fill="none" stroke-width="0"/>
  <text x="77.8003" y="29.5" fill="#8c8c8c" font-family="Noto Sans" font-size="3.5" text-anchor="end">SCL</text>
  <line x1="78.85" x2="93.25" y1="36" y2="36" fill="none" stroke="#787878" stroke-linecap="round" stroke-linejoin="round" stroke-width=".7"/>
  <rect id="connector13pin" x="79.2" y="35.65" width="14.4" height=".7" fill="none" stroke-width="0" connectorname="SDA"/>
  <rect id="connector13terminal" x="93.6" y="35.65" width="0" height=".7" fill="none" stroke-width="0"/>
  <text x="77.8003" y="36.7" fill="#8c8c8c" font-family="Noto Sans" font-size="3.5" text-anchor="end">SDA</text>
  <line x1="78.85" x2="93.25" y1="43.2" y2="43.2" fill="none" stroke="#787878" stroke-linecap="round" stroke-linejoin="round" stroke-width=".7"/>
  <rect id="connector31pin" x="79.2" y="42.85" width="14.4" height=".7" fill="none" stroke-width="0" connectorname="A0"/>
  <rect id="connector31terminal" x="93.6" y="42.85" width="0" height=".7" fill="none" stroke-width="0"/>
  <text x="77.8003" y="43.9" fill="#8c8c8c" font-family="Noto Sans" font-size="3.5" text-anchor="end">A0</text>
  <line x1="78.85" x2="93.25" y1="50.4" y2="50.4" fill="none" stroke="#787878" stroke-linecap="round" stroke-linejoin="round" stroke-width=".7"/>
  <rect id="connector32pin" x="79.2" y="50.05" width="14.4" height=".7" fill="none" stroke-width="0" connectorname="A1"/>
  <rect id="connector32terminal" x="93.6" y="50.05" width="0" height=".7" fill="none" stroke-width="0"/>
  <text x="77.8003" y="51.1" fill="#8c8c8c" font-family="Noto Sans" font-size="3.5" text-anchor="end">A1</text>
  <line x1="43.2" x2="43.2" y1=".35" y2="14.4" fill="none" stroke="#787878" stroke-linecap="round" stroke-linejoin="round" stroke-width=".7"/>
  <rect id="connector12pin" x="42.85" width=".7" height="14.4" fill="none" stroke-width="0" connectorname="VCC"/>
  <rect id="connector12terminal" x="42.85" width=".7" height="0" fill="none" stroke-width="0"/>
  <g transform="translate(44.6 16)">
   <g transform="rotate(270)">
    <text fill="#8c8c8c" font-family="Noto Sans" font-size="3.5" text-anchor="end">VCC</text>
   </g>
  </g>
  <line x1="43.2" x2="43.2" y1="93.6" y2="107.65" fill="none" stroke="#787878" stroke-linecap="round" stroke-linejoin="round" stroke-width=".7"/>
  <rect id="connector11pin" x="42.85" y="93.6" width=".7" height="14.4" fill="none" stroke-width="0" connectorname="GND"/>
  <rect id="connector11terminal" x="42.85" y="108" width=".7" height="0" fill="none" stroke-width="0"/>
  <g transform="translate(44.6 92)">
   <g transform="rotate(270)">
    <text fill="#8c8c8c" font-family="Noto Sans" font-size="3.5">GND</text>
   </g>
  </g>
  <rect id="connector27pin" x="42.85" width=".7" height="14.4" fill="none" stroke-width="0" connectorname="VCC"/>
  <rect id="connector27terminal" x="42.85" width=".7" height="0" fill="none" stroke-width="0"/>
  <rect id="connector33pin" x="42.85" width=".7" height="14.4" fill="none" stroke-width="0" connectorname="VCC"/>
  <rect id="connector33terminal" x="42.85" width=".7" height="0" fill="none" stroke-width="0"/>
  <rect id="connector36pin" x="42.85" width=".7" height="14.4" fill="none" stroke-width="0" connectorname="VCC"/>
  <rect id="connector36terminal" x="42.85" width=".7" height="0" fill="none" stroke-width="0"/>
  <rect id="connector39pin" x="42.85" width=".7" height="14.4" fill="none" stroke-width="0" connectorname="VCC"/>
  <rect id="connector39terminal" x="42.85" width=".7" height="0" fill="none" stroke-width="0"/>
  <rect id="connector42pin" x="42.85" width=".7" height="14.4" fill="none" stroke-width="0" connectorname="VCC"/>
  <rect id="connector42terminal" x="42.85" width=".7" height="0" fill="none" stroke-width="0"/>
  <rect id="connector45pin" x="42.85" width=".7" height="14.4" fill="none" stroke-width="0" connectorname="VCC"/>
  <rect id="connector45terminal" x="43.549" y="53.986" width=".0014" height=".0288" fill="none" stroke-width="0"/>
  <rect x="42.85" width=".7" height="0" fill="none" stroke-width="0"/>
  <rect id="connector48pin" x="42.85" width=".7" height="14.4" fill="none" stroke-width="0" connectorname="VCC"/>
  <rect id="connector48terminal" x="42.85" width=".7" height="0" fill="none" stroke-width="0"/>
  <rect id="connector51pin" x="42.85" width=".7" height="14.4" fill="none" stroke-width="0" connectorname="VCC"/>
  <rect id="connector51terminal" x="42.85" width=".7" height="0" fill="none" stroke-width="0"/>
  <rect id="connector54pin" x="42.85" width=".7" height="14.4" fill="none" stroke-width="0" connectorname="VCC"/>
  <rect id="connector54terminal" x="42.85" width=".7" height="0" fill="none" stroke-width="0"/>
  <rect id="connector18pin" x="42.85" width=".7" height="14.4" fill="none" stroke-width="0" connectorname="VCC"/>
  <rect id="connector18terminal" x="42.85" width=".7" height="0" fill="none" stroke-width="0"/>
  <rect id="connector28pin" x="42.85" y="93.6" width=".7" height="14.4" fill="none" stroke-width="0" connectorname="GND"/>
  <rect id="connector28terminal" x="42.85" y="108" width=".7" height="0" fill="none" stroke-width="0"/>
  <rect id="connector35pin" x="42.85" y="93.6" width=".7" height="14.4" fill="none" stroke-width="0" connectorname="GND"/>
  <rect id="connector35terminal" x="42.85" y="108" width=".7" height="0" fill="none" stroke-width="0"/>
  <rect id="connector38pin" x="42.85" y="93.6" width=".7" height="14.4" fill="none" stroke-width="0" connectorname="GND"/>
  <rect id="connector38terminal" x="42.85" y="108" width=".7" height="0" fill="none" stroke-width="0"/>
  <rect id="connector41pin" x="42.85" y="93.6" width=".7" height="14.4" fill="none" stroke-width="0" connectorname="GND"/>
  <rect id="connector41terminal" x="42.85" y="108" width=".7" height="0" fill="none" stroke-width="0"/>
  <rect id="connector44pin" x="42.85" y="93.6" width=".7" height="14.4" fill="none" stroke-width="0" connectorname="GND"/>
  <rect id="connector44terminal" x="42.85" y="108" width=".7" height="0" fill="none" stroke-width="0"/>
  <rect id="connector47pin" x="42.85" y="93.6" width=".7" height="14.4" fill="none" stroke-width="0" connectorname="GND"/>
  <rect id="connector47terminal" x="42.85" y="108" width=".7" height="0" fill="none" stroke-width="0"/>
  <rect id="connector50pin" x="42.85" y="93.6" width=".7" height="14.4" fill="none" stroke-width="0" connectorname="GND"/>
  <rect id="connector50terminal" x="42.85" y="108" width=".7" height="0" fill="none" stroke-width="0"/>
  <rect id="connector53pin" x="42.85" y="93.6" width=".7" height="14.4" fill="none" stroke-width="0" connectorname="GND"/>
  <rect id="connector53terminal" x="42.85" y="108" width=".7" height="0" fill="none" stroke-width="0"/>
  <rect id="connector56pin" x="42.85" y="93.6" width=".7" height="14.4" fill="none" stroke-width="0" connectorname="GND"/>
  <rect id="connector56terminal" x="42.85" y="108" width=".7" height="0" fill="none" stroke-width="0"/>
  <rect id="connector17pin" x="42.85" y="93.6" width=".7" height="14.4" fill="none" stroke-width="0" connectorname="GND"/>
  <rect id="connector17terminal" x="42.85" y="108" width=".7" height="0" fill="none" stroke-width="0"/>
  <rect id="connector29pin" x="79.2" y="28.45" width="14.4" height=".7" fill="none" stroke-width="0" connectorname="SCL"/>
  <rect id="connector29terminal" x="93.6" y="28.45" width="0" height=".7" fill="none" stroke-width="0"/>
  <rect id="connector20pin" x="79.2" y="28.45" width="14.4" height=".7" fill="none" stroke-width="0" connectorname="SCL"/>
  <rect id="connector20terminal" x="93.6" y="28.45" width="0" height=".7" fill="none" stroke-width="0"/>
  <rect id="connector30pin" x="79.2" y="35.65" width="14.4" height=".7" fill="none" stroke-width="0" connectorname="SDA"/>
  <rect id="connector30terminal" x="93.6" y="35.65" width="0" height=".7" fill="none" stroke-width="0"/>
  <rect id="connector19pin" x="79.2" y="35.65" width="14.4" height=".7" fill="none" stroke-width="0" connectorname="SDA"/>
  <rect id="connector19terminal" x="93.6" y="35.65" width="0" height=".7" fill="none" stroke-width="0"/>
 </g>
</svg>
