<?xml version="1.0" encoding="UTF-8"?>
<!-- Created with Fritzing (http://www.fritzing.org/) -->
<svg width="2.4in" height="2.3in" baseProfile="tiny" version="1.2" viewBox="0 0 172.8 165.6" xmlns="http://www.w3.org/2000/svg">
 <desc>
  <referenceFile>Adafruit CAN Bus FeatherWing_schematic.svg</referenceFile>
 </desc>
 <desc>Fritzing schematic generated by brd2svg</desc>
 <g id="schematic">
  <rect x="14.4" y="14.4" width="143.55" height="136.8" fill="none" stroke="#000" stroke-linecap="round" stroke-linejoin="round" stroke-width=".9"/>
  <text id="label" x="86.4" y="72.2002" fill="#000000" font-family="Noto Sans" font-size="3.5" text-anchor="middle"><tspan x="86.4" y="72.2002">Adafruit</tspan> <tspan x="86.4" y="75.7001">CAN</tspan> <tspan x="86.4" y="79.2">Bus</tspan> <tspan x="86.4" y="82.6999">FeatherWing</tspan></text>
  <line x1=".35" x2="14.4" y1="36" y2="36" fill="none" stroke="#787878" stroke-linecap="round" stroke-linejoin="round" stroke-width=".7"/>
  <rect id="connector122pin" y="35.65" width="14.4" height=".7" fill="none" stroke-width="0" connectorName="CAN_L"/>
  <rect id="connector122terminal" y="35.65" width="0" height=".7" fill="none" stroke-width="0"/>
  <text x="15.8" y="36.7" fill="#8c8c8c" font-family="Noto Sans" font-size="3.5">CAN_L</text>
  <line x1=".35" x2="14.4" y1="43.2" y2="43.2" fill="none" stroke="#787878" stroke-linecap="round" stroke-linejoin="round" stroke-width=".7"/>
  <rect id="connector124pin" y="42.85" width="14.4" height=".7" fill="none" stroke-width="0" connectorName="CAN_H"/>
  <rect id="connector124terminal" y="42.85" width="0" height=".7" fill="none" stroke-width="0"/>
  <text x="15.8" y="43.9" fill="#8c8c8c" font-family="Noto Sans" font-size="3.5">CAN_H</text>
  <line x1=".35" x2="14.4" y1="50.4" y2="50.4" fill="none" stroke="#787878" stroke-linecap="round" stroke-linejoin="round" stroke-width=".7"/>
  <rect id="connector75pin" y="50.05" width="14.4" height=".7" fill="none" stroke-width="0" connectorName="RESET"/>
  <rect id="connector75terminal" y="50.05" width="0" height=".7" fill="none" stroke-width="0"/>
  <text x="15.8" y="51.1" fill="#8c8c8c" font-family="Noto Sans" font-size="3.5">RESET</text>
  <line x1=".35" x2="14.4" y1="57.6" y2="57.6" fill="none" stroke="#787878" stroke-linecap="round" stroke-linejoin="round" stroke-width=".7"/>
  <rect id="connector73pin" y="57.25" width="14.4" height=".7" fill="none" stroke-width="0" connectorName="AREF"/>
  <rect id="connector73terminal" y="57.25" width="0" height=".7" fill="none" stroke-width="0"/>
  <text x="15.8" y="58.3" fill="#8c8c8c" font-family="Noto Sans" font-size="3.5">AREF</text>
  <line x1=".35" x2="14.4" y1="64.8" y2="64.8" fill="none" stroke="#787878" stroke-linecap="round" stroke-linejoin="round" stroke-width=".7"/>
  <rect id="connector71pin" y="64.45" width="14.4" height=".7" fill="none" stroke-width="0" connectorName="A"/>
  <rect id="connector71terminal" y="64.45" width="0" height=".7" fill="none" stroke-width="0"/>
  <text x="15.8" y="65.5" fill="#8c8c8c" font-family="Noto Sans" font-size="3.5">A</text>
  <line x1=".35" x2="14.4" y1="72" y2="72" fill="none" stroke="#787878" stroke-linecap="round" stroke-linejoin="round" stroke-width=".7"/>
  <rect id="connector70pin" y="71.65" width="14.4" height=".7" fill="none" stroke-width="0" connectorName="B"/>
  <rect id="connector70terminal" y="71.65" width="0" height=".7" fill="none" stroke-width="0"/>
  <text x="15.8" y="72.6998" fill="#8c8c8c" font-family="Noto Sans" font-size="3.5">B</text>
  <line x1=".35" x2="14.4" y1="79.2" y2="79.2" fill="none" stroke="#787878" stroke-linecap="round" stroke-linejoin="round" stroke-width=".7"/>
  <rect id="connector69pin" y="78.85" width="14.4" height=".7" fill="none" stroke-width="0" connectorName="C"/>
  <rect id="connector69terminal" y="78.85" width="0" height=".7" fill="none" stroke-width="0"/>
  <text x="15.8" y="79.8998" fill="#8c8c8c" font-family="Noto Sans" font-size="3.5">C</text>
  <line x1=".35" x2="14.4" y1="86.4" y2="86.4" fill="none" stroke="#787878" stroke-linecap="round" stroke-linejoin="round" stroke-width=".7"/>
  <rect id="connector68pin" y="86.05" width="14.4" height=".7" fill="none" stroke-width="0" connectorName="D"/>
  <rect id="connector68terminal" y="86.05" width="0" height=".7" fill="none" stroke-width="0"/>
  <text x="15.8" y="87.0998" fill="#8c8c8c" font-family="Noto Sans" font-size="3.5">D</text>
  <line x1=".35" x2="14.4" y1="93.6" y2="93.6" fill="none" stroke="#787878" stroke-linecap="round" stroke-linejoin="round" stroke-width=".7"/>
  <rect id="connector67pin" y="93.25" width="14.4" height=".7" fill="none" stroke-width="0" connectorName="E"/>
  <rect id="connector67terminal" y="93.25" width="0" height=".7" fill="none" stroke-width="0"/>
  <text x="15.8" y="94.2998" fill="#8c8c8c" font-family="Noto Sans" font-size="3.5">E</text>
  <line x1=".35" x2="14.4" y1="100.8" y2="100.8" fill="none" stroke="#787878" stroke-linecap="round" stroke-linejoin="round" stroke-width=".7"/>
  <rect id="connector66pin" y="100.45" width="14.4" height=".7" fill="none" stroke-width="0" connectorName="F"/>
  <rect id="connector66terminal" y="100.45" width="0" height=".7" fill="none" stroke-width="0"/>
  <text x="15.8" y="101.5" fill="#8c8c8c" font-family="Noto Sans" font-size="3.5">F</text>
  <line x1=".35" x2="14.4" y1="108" y2="108" fill="none" stroke="#787878" stroke-linecap="round" stroke-linejoin="round" stroke-width=".7"/>
  <rect id="connector65pin" y="107.65" width="14.4" height=".7" fill="none" stroke-width="0" connectorName="SCK"/>
  <rect id="connector65terminal" y="107.65" width="0" height=".7" fill="none" stroke-width="0"/>
  <text x="15.8" y="108.7" fill="#8c8c8c" font-family="Noto Sans" font-size="3.5">SCK</text>
  <line x1=".35" x2="14.4" y1="115.2" y2="115.2" fill="none" stroke="#787878" stroke-linecap="round" stroke-linejoin="round" stroke-width=".7"/>
  <rect id="connector64pin" y="114.85" width="14.4" height=".7" fill="none" stroke-width="0" connectorName="MOSI"/>
  <rect id="connector64terminal" y="114.85" width="0" height=".7" fill="none" stroke-width="0"/>
  <text x="15.8" y="115.9" fill="#8c8c8c" font-family="Noto Sans" font-size="3.5">MOSI</text>
  <line x1=".35" x2="14.4" y1="122.4" y2="122.4" fill="none" stroke="#787878" stroke-linecap="round" stroke-linejoin="round" stroke-width=".7"/>
  <rect id="connector63pin" y="122.05" width="14.4" height=".7" fill="none" stroke-width="0" connectorName="MISO"/>
  <rect id="connector63terminal" y="122.05" width="0" height=".7" fill="none" stroke-width="0"/>
  <text x="15.8" y="123.1" fill="#8c8c8c" font-family="Noto Sans" font-size="3.5">MISO</text>
  <line x1=".35" x2="14.4" y1="129.6" y2="129.6" fill="none" stroke="#787878" stroke-linecap="round" stroke-linejoin="round" stroke-width=".7"/>
  <rect id="connector62pin" y="129.25" width="14.4" height=".7" fill="none" stroke-width="0" connectorName="RX"/>
  <rect id="connector62terminal" y="129.25" width="0" height=".7" fill="none" stroke-width="0"/>
  <text x="15.8" y="130.3" fill="#8c8c8c" font-family="Noto Sans" font-size="3.5">RX</text>
  <line x1=".35" x2="14.4" y1="136.8" y2="136.8" fill="none" stroke="#787878" stroke-linecap="round" stroke-linejoin="round" stroke-width=".7"/>
  <rect id="connector61pin" y="136.45" width="14.4" height=".7" fill="none" stroke-width="0" connectorName="TX"/>
  <rect id="connector61terminal" y="136.45" width="0" height=".7" fill="none" stroke-width="0"/>
  <text x="15.8" y="137.5" fill="#8c8c8c" font-family="Noto Sans" font-size="3.5">TX</text>
  <line x1="158.05" x2="172.45" y1="36" y2="36" fill="none" stroke="#787878" stroke-linecap="round" stroke-linejoin="round" stroke-width=".7"/>
  <rect id="connector77pin" x="158.4" y="35.65" width="14.4" height=".7" fill="none" stroke-width="0" connectorname="EN"/>
  <rect id="connector77terminal" x="172.8" y="35.65" width="0" height=".7" fill="none" stroke-width="0"/>
  <text x="157" y="36.7" fill="#8c8c8c" font-family="Noto Sans" font-size="3.5" text-anchor="end">EN</text>
  <line x1="158.05" x2="172.45" y1="43.2" y2="43.2" fill="none" stroke="#787878" stroke-linecap="round" stroke-linejoin="round" stroke-width=".7"/>
  <rect id="connector79pin" x="158.4" y="42.85" width="14.4" height=".7" fill="none" stroke-width="0" connectorname="N"/>
  <rect id="connector79terminal" x="172.8" y="42.85" width="0" height=".7" fill="none" stroke-width="0"/>
  <text x="157" y="43.9" fill="#8c8c8c" font-family="Noto Sans" font-size="3.5" text-anchor="end">N</text>
  <line x1="158.05" x2="172.45" y1="50.4" y2="50.4" fill="none" stroke="#787878" stroke-linecap="round" stroke-linejoin="round" stroke-width=".7"/>
  <rect id="connector80pin" x="158.4" y="50.05" width="14.4" height=".7" fill="none" stroke-width="0" connectorname="M"/>
  <rect id="connector80terminal" x="172.8" y="50.05" width="0" height=".7" fill="none" stroke-width="0"/>
  <text x="157" y="51.1" fill="#8c8c8c" font-family="Noto Sans" font-size="3.5" text-anchor="end">M</text>
  <line x1="158.05" x2="172.45" y1="57.6" y2="57.6" fill="none" stroke="#787878" stroke-linecap="round" stroke-linejoin="round" stroke-width=".7"/>
  <rect id="connector81pin" x="158.4" y="57.25" width="14.4" height=".7" fill="none" stroke-width="0" connectorname="L"/>
  <rect id="connector81terminal" x="172.8" y="57.25" width="0" height=".7" fill="none" stroke-width="0"/>
  <text x="157" y="58.3" fill="#8c8c8c" font-family="Noto Sans" font-size="3.5" text-anchor="end">L</text>
  <line x1="158.05" x2="172.45" y1="64.8" y2="64.8" fill="none" stroke="#787878" stroke-linecap="round" stroke-linejoin="round" stroke-width=".7"/>
  <rect id="connector82pin" x="158.4" y="64.45" width="14.4" height=".7" fill="none" stroke-width="0" connectorname="K"/>
  <rect id="connector82terminal" x="172.8" y="64.45" width="0" height=".7" fill="none" stroke-width="0"/>
  <text x="157" y="65.5" fill="#8c8c8c" font-family="Noto Sans" font-size="3.5" text-anchor="end">K</text>
  <line x1="158.05" x2="172.45" y1="72" y2="72" fill="none" stroke="#787878" stroke-linecap="round" stroke-linejoin="round" stroke-width=".7"/>
  <rect id="connector83pin" x="158.4" y="71.65" width="14.4" height=".7" fill="none" stroke-width="0" connectorname="J"/>
  <rect id="connector83terminal" x="172.8" y="71.65" width="0" height=".7" fill="none" stroke-width="0"/>
  <text x="157" y="72.6998" fill="#8c8c8c" font-family="Noto Sans" font-size="3.5" text-anchor="end">J</text>
  <line x1="158.05" x2="172.45" y1="79.2" y2="79.2" fill="none" stroke="#787878" stroke-linecap="round" stroke-linejoin="round" stroke-width=".7"/>
  <rect id="connector84pin" x="158.4" y="78.85" width="14.4" height=".7" fill="none" stroke-width="0" connectorname="CAN_INT_DEFAULT"/>
  <rect id="connector84terminal" x="172.8" y="78.85" width="0" height=".7" fill="none" stroke-width="0"/>
  <text x="157" y="79.8998" fill="#8c8c8c" font-family="Noto Sans" font-size="3.5" text-anchor="end">CAN_INT_DEFAULT</text>
  <line x1="158.05" x2="172.45" y1="86.4" y2="86.4" fill="none" stroke="#787878" stroke-linecap="round" stroke-linejoin="round" stroke-width=".7"/>
  <rect id="connector85pin" x="158.4" y="86.05" width="14.4" height=".7" fill="none" stroke-width="0" connectorname="CAN_CS_DEFAULT"/>
  <rect id="connector85terminal" x="172.8" y="86.05" width="0" height=".7" fill="none" stroke-width="0"/>
  <text x="157" y="87.0998" fill="#8c8c8c" font-family="Noto Sans" font-size="3.5" text-anchor="end">CAN_CS_DEFAULT</text>
  <line x1="158.05" x2="172.45" y1="93.6" y2="93.6" fill="none" stroke="#787878" stroke-linecap="round" stroke-linejoin="round" stroke-width=".7"/>
  <rect id="connector86pin" x="158.4" y="93.25" width="14.4" height=".7" fill="none" stroke-width="0" connectorname="SCL"/>
  <rect id="connector86terminal" x="172.8" y="93.25" width="0" height=".7" fill="none" stroke-width="0"/>
  <text x="157" y="94.2998" fill="#8c8c8c" font-family="Noto Sans" font-size="3.5" text-anchor="end">SCL</text>
  <line x1="158.05" x2="172.45" y1="100.8" y2="100.8" fill="none" stroke="#787878" stroke-linecap="round" stroke-linejoin="round" stroke-width=".7"/>
  <rect id="connector87pin" x="158.4" y="100.45" width="14.4" height=".7" fill="none" stroke-width="0" connectorname="SDA"/>
  <rect id="connector87terminal" x="172.8" y="100.45" width="0" height=".7" fill="none" stroke-width="0"/>
  <text x="157" y="101.5" fill="#8c8c8c" font-family="Noto Sans" font-size="3.5" text-anchor="end">SDA</text>
  <line x1="158.05" x2="172.45" y1="108" y2="108" fill="none" stroke="#787878" stroke-linecap="round" stroke-linejoin="round" stroke-width=".7"/>
  <rect id="connector91pin" x="158.4" y="107.65" width="14.4" height=".7" fill="none" stroke-width="0" connectorname="SILENT"/>
  <rect id="connector91terminal" x="172.8" y="107.65" width="0" height=".7" fill="none" stroke-width="0"/>
  <text x="157" y="108.7" fill="#8c8c8c" font-family="Noto Sans" font-size="3.5" text-anchor="end">SILENT</text>
  <line x1="158.05" x2="172.45" y1="115.2" y2="115.2" fill="none" stroke="#787878" stroke-linecap="round" stroke-linejoin="round" stroke-width=".7"/>
  <rect id="connector90pin" x="158.4" y="114.85" width="14.4" height=".7" fill="none" stroke-width="0" connectorname="CAN_RESET"/>
  <rect id="connector90terminal" x="172.8" y="114.85" width="0" height=".7" fill="none" stroke-width="0"/>
  <text x="157" y="115.9" fill="#8c8c8c" font-family="Noto Sans" font-size="3.5" text-anchor="end">CAN_RESET</text>
  <line x1="158.05" x2="172.45" y1="122.4" y2="122.4" fill="none" stroke="#787878" stroke-linecap="round" stroke-linejoin="round" stroke-width=".7"/>
  <rect id="connector89pin" x="158.4" y="122.05" width="14.4" height=".7" fill="none" stroke-width="0" connectorname="CAN_CS"/>
  <rect id="connector89terminal" x="172.8" y="122.05" width="0" height=".7" fill="none" stroke-width="0"/>
  <text x="157" y="123.1" fill="#8c8c8c" font-family="Noto Sans" font-size="3.5" text-anchor="end">CAN_CS</text>
  <line x1="158.05" x2="172.45" y1="129.6" y2="129.6" fill="none" stroke="#787878" stroke-linecap="round" stroke-linejoin="round" stroke-width=".7"/>
  <rect id="connector88pin" x="158.4" y="129.25" width="14.4" height=".7" fill="none" stroke-width="0" connectorname="!CAN_INT"/>
  <rect id="connector88terminal" x="172.8" y="129.25" width="0" height=".7" fill="none" stroke-width="0"/>
  <text x="157" y="130.3" fill="#8c8c8c" font-family="Noto Sans" font-size="3.5" text-anchor="end">!CAN_INT</text>
  <line x1="72" x2="72" y1=".35" y2="14.4" fill="none" stroke="#787878" stroke-linecap="round" stroke-linejoin="round" stroke-width=".7"/>
  <rect id="connector78pin" x="71.65" width=".7" height="14.4" fill="none" stroke-width="0" connectorname="USB"/>
  <rect id="connector78terminal" x="71.65" width=".7" height="0" fill="none" stroke-width="0"/>
  <g transform="translate(73.4 16)">
   <g transform="rotate(270)">
    <text fill="#8c8c8c" font-family="Noto Sans" font-size="3.5" text-anchor="end">USB</text>
   </g>
  </g>
  <line x1="79.2" x2="79.2" y1=".35" y2="14.4" fill="none" stroke="#787878" stroke-linecap="round" stroke-linejoin="round" stroke-width=".7"/>
  <rect id="connector76pin" x="78.85" width=".7" height="14.4" fill="none" stroke-width="0" connectorname="VBAT"/>
  <rect id="connector76terminal" x="78.85" width=".7" height="0" fill="none" stroke-width="0"/>
  <g transform="translate(80.6 16)">
   <g transform="rotate(270)">
    <text fill="#8c8c8c" font-family="Noto Sans" font-size="3.5" text-anchor="end">VBAT</text>
   </g>
  </g>
  <line x1="86.4" x2="86.4" y1=".35" y2="14.4" fill="none" stroke="#787878" stroke-linecap="round" stroke-linejoin="round" stroke-width=".7"/>
  <rect id="connector74pin" x="86.05" width=".7" height="14.4" fill="none" stroke-width="0" connectorname="3.3V"/>
  <rect id="connector74terminal" x="86.05" width=".7" height="0" fill="none" stroke-width="0"/>
  <g transform="translate(87.8 16)">
   <g transform="rotate(270)">
    <text fill="#8c8c8c" font-family="Noto Sans" font-size="3.5" text-anchor="end">3.3V</text>
   </g>
  </g>
  <line x1="86.4" x2="86.4" y1="151.2" y2="165.25" fill="none" stroke="#787878" stroke-linecap="round" stroke-linejoin="round" stroke-width=".7"/>
  <rect id="connector72pin" x="86.05" y="151.2" width=".7" height="14.4" fill="none" stroke-width="0" connectorname="GND"/>
  <rect id="connector72terminal" x="86.05" y="165.6" width=".7" height="0" fill="none" stroke-width="0"/>
  <g transform="translate(87.8 149.6)">
   <g transform="rotate(270)">
    <text fill="#8c8c8c" font-family="Noto Sans" font-size="3.5">GND</text>
   </g>
  </g>
  <line x1="93.6" x2="93.6" y1="151.2" y2="165.25" fill="none" stroke="#787878" stroke-linecap="round" stroke-linejoin="round" stroke-width=".7"/>
  <rect id="connector60pin" x="93.25" y="151.2" width=".7" height="14.4" fill="none" stroke-width="0" connectorname="G"/>
  <rect id="connector60terminal" x="93.25" y="165.6" width=".7" height="0" fill="none" stroke-width="0"/>
  <g transform="translate(95 149.6)">
   <g transform="rotate(270)">
    <text fill="#8c8c8c" font-family="Noto Sans" font-size="3.5">G</text>
   </g>
  </g>
  <rect id="connector117pin" x="71.65" width=".7" height="14.4" fill="none" stroke-width="0" connectorname="USB"/>
  <rect id="connector117terminal" x="71.65" width=".7" height="0" fill="none" stroke-width="0"/>
  <rect id="connector119pin" x="78.85" width=".7" height="14.4" fill="none" stroke-width="0" connectorname="VBAT"/>
  <rect id="connector119terminal" x="78.85" width=".7" height="0" fill="none" stroke-width="0"/>
  <rect id="connector93pin" x="86.05" width=".7" height="14.4" fill="none" stroke-width="0" connectorname="3.3V"/>
  <rect id="connector93terminal" x="86.05" width=".7" height="0" fill="none" stroke-width="0"/>
  <rect id="connector95pin" x="86.05" y="151.2" width=".7" height="14.4" fill="none" stroke-width="0" connectorname="GND"/>
  <rect id="connector95terminal" x="86.05" y="165.6" width=".7" height="0" fill="none" stroke-width="0"/>
  <rect id="connector123pin" x="86.05" y="151.2" width=".7" height="14.4" fill="none" stroke-width="0" connectorname="GND"/>
  <rect id="connector123terminal" x="86.05" y="165.6" width=".7" height="0" fill="none" stroke-width="0"/>
  <rect id="connector107pin" x="93.25" y="151.2" width=".7" height="14.4" fill="none" stroke-width="0" connectorname="G"/>
  <rect id="connector107terminal" x="93.25" y="165.6" width=".7" height="0" fill="none" stroke-width="0"/>
  <rect id="connector92pin" y="50.05" width="14.4" height=".7" fill="none" stroke-width="0" connectorName="RESET"/>
  <rect id="connector92terminal" y="50.05" width="0" height=".7" fill="none" stroke-width="0"/>
  <rect id="connector94pin" y="57.25" width="14.4" height=".7" fill="none" stroke-width="0" connectorName="AREF"/>
  <rect id="connector94terminal" y="57.25" width="0" height=".7" fill="none" stroke-width="0"/>
  <rect id="connector96pin" y="64.45" width="14.4" height=".7" fill="none" stroke-width="0" connectorName="A"/>
  <rect id="connector96terminal" y="64.45" width="0" height=".7" fill="none" stroke-width="0"/>
  <rect id="connector97pin" y="71.65" width="14.4" height=".7" fill="none" stroke-width="0" connectorName="B"/>
  <rect id="connector97terminal" y="71.65" width="0" height=".7" fill="none" stroke-width="0"/>
  <rect id="connector98pin" y="78.85" width="14.4" height=".7" fill="none" stroke-width="0" connectorName="C"/>
  <rect id="connector98terminal" y="78.85" width="0" height=".7" fill="none" stroke-width="0"/>
  <rect id="connector99pin" y="86.05" width="14.4" height=".7" fill="none" stroke-width="0" connectorName="D"/>
  <rect id="connector99terminal" y="86.05" width="0" height=".7" fill="none" stroke-width="0"/>
  <rect id="connector100pin" y="93.25" width="14.4" height=".7" fill="none" stroke-width="0" connectorName="E"/>
  <rect id="connector100terminal" y="93.25" width="0" height=".7" fill="none" stroke-width="0"/>
  <rect id="connector101pin" y="100.45" width="14.4" height=".7" fill="none" stroke-width="0" connectorName="F"/>
  <rect id="connector101terminal" y="100.45" width="0" height=".7" fill="none" stroke-width="0"/>
  <rect id="connector102pin" y="107.65" width="14.4" height=".7" fill="none" stroke-width="0" connectorName="SCK"/>
  <rect id="connector102terminal" y="107.65" width="0" height=".7" fill="none" stroke-width="0"/>
  <rect id="connector103pin" y="114.85" width="14.4" height=".7" fill="none" stroke-width="0" connectorName="MOSI"/>
  <rect id="connector103terminal" y="114.85" width="0" height=".7" fill="none" stroke-width="0"/>
  <rect id="connector104pin" y="122.05" width="14.4" height=".7" fill="none" stroke-width="0" connectorName="MISO"/>
  <rect id="connector104terminal" y="122.05" width="0" height=".7" fill="none" stroke-width="0"/>
  <rect id="connector105pin" y="129.25" width="14.4" height=".7" fill="none" stroke-width="0" connectorName="RX"/>
  <rect id="connector105terminal" y="129.25" width="0" height=".7" fill="none" stroke-width="0"/>
  <rect id="connector106pin" y="136.45" width="14.4" height=".7" fill="none" stroke-width="0" connectorName="TX"/>
  <rect id="connector106terminal" y="136.45" width="0" height=".7" fill="none" stroke-width="0"/>
  <rect id="connector118pin" x="158.4" y="35.65" width="14.4" height=".7" fill="none" stroke-width="0" connectorname="EN"/>
  <rect id="connector118terminal" x="172.8" y="35.65" width="0" height=".7" fill="none" stroke-width="0"/>
  <rect id="connector116pin" x="158.4" y="42.85" width="14.4" height=".7" fill="none" stroke-width="0" connectorname="N"/>
  <rect id="connector116terminal" x="172.8" y="42.85" width="0" height=".7" fill="none" stroke-width="0"/>
  <rect id="connector115pin" x="158.4" y="50.05" width="14.4" height=".7" fill="none" stroke-width="0" connectorname="M"/>
  <rect id="connector115terminal" x="172.8" y="50.05" width="0" height=".7" fill="none" stroke-width="0"/>
  <rect id="connector114pin" x="158.4" y="57.25" width="14.4" height=".7" fill="none" stroke-width="0" connectorname="L"/>
  <rect id="connector114terminal" x="172.8" y="57.25" width="0" height=".7" fill="none" stroke-width="0"/>
  <rect id="connector113pin" x="158.4" y="64.45" width="14.4" height=".7" fill="none" stroke-width="0" connectorname="K"/>
  <rect id="connector113terminal" x="172.8" y="64.45" width="0" height=".7" fill="none" stroke-width="0"/>
  <rect id="connector112pin" x="158.4" y="71.65" width="14.4" height=".7" fill="none" stroke-width="0" connectorname="J"/>
  <rect id="connector112terminal" x="172.8" y="71.65" width="0" height=".7" fill="none" stroke-width="0"/>
  <rect id="connector111pin" x="158.4" y="78.85" width="14.4" height=".7" fill="none" stroke-width="0" connectorname="CAN_INT_DEFAULT"/>
  <rect id="connector111terminal" x="172.8" y="78.85" width="0" height=".7" fill="none" stroke-width="0"/>
  <rect id="connector110pin" x="158.4" y="86.05" width="14.4" height=".7" fill="none" stroke-width="0" connectorname="CAN_CS_DEFAULT"/>
  <rect id="connector110terminal" x="172.8" y="86.05" width="0" height=".7" fill="none" stroke-width="0"/>
  <rect id="connector109pin" x="158.4" y="93.25" width="14.4" height=".7" fill="none" stroke-width="0" connectorname="SCL"/>
  <rect id="connector109terminal" x="172.8" y="93.25" width="0" height=".7" fill="none" stroke-width="0"/>
  <rect id="connector108pin" x="158.4" y="100.45" width="14.4" height=".7" fill="none" stroke-width="0" connectorname="SDA"/>
  <rect id="connector108terminal" x="172.8" y="100.45" width="0" height=".7" fill="none" stroke-width="0"/>
 </g>
</svg>
