<?xml version="1.0" encoding="UTF-8"?>
<!-- Created with Fritzing (http://www.fritzing.org/) -->
<svg width="1.3in" height="1.6in" baseProfile="tiny" version="1.2" viewBox="0 0 93.6 115.2" xmlns="http://www.w3.org/2000/svg">
 <desc>
  <referenceFile>Adafruit A4988 Stepper Motor Driver Breakout_schematic.svg</referenceFile>
 </desc>
 <desc>Fritzing schematic generated by brd2svg</desc>
 <g id="schematic">
  <rect x="14.4" y="14.4" width="64.35" height="86.4" fill="none" stroke="#000" stroke-linecap="round" stroke-linejoin="round" stroke-width=".9"/>
  <text id="label" x="46.8" y="47.1" fill="#000000" font-family="Noto Sans" font-size="3.5" text-anchor="middle"><tspan x="46.8" y="47.1">Adafruit</tspan> <tspan x="46.8" y="50.6">A4988</tspan> <tspan x="46.8" y="54.1">Stepper</tspan> <tspan x="46.8" y="57.6">Motor</tspan> <tspan x="46.8" y="61.1">Driver</tspan> <tspan x="46.8" y="64.6">Breakout</tspan></text>
  <line x1=".35" x2="14.4" y1="36" y2="36" fill="none" stroke="#787878" stroke-linecap="round" stroke-linejoin="round" stroke-width=".7"/>
  <rect id="connector27pin" y="35.65" width="14.4" height=".7" fill="none" stroke-width="0" connectorName="OUT2A"/>
  <rect id="connector27terminal" y="35.65" width="0" height=".7" fill="none" stroke-width="0"/>
  <text x="15.8" y="36.7" fill="#8c8c8c" font-family="Noto Sans" font-size="3.5">OUT2A</text>
  <line x1=".35" x2="14.4" y1="43.2" y2="43.2" fill="none" stroke="#787878" stroke-linecap="round" stroke-linejoin="round" stroke-width=".7"/>
  <rect id="connector28pin" y="42.85" width="14.4" height=".7" fill="none" stroke-width="0" connectorName="OUT2B"/>
  <rect id="connector28terminal" y="42.85" width="0" height=".7" fill="none" stroke-width="0"/>
  <text x="15.8" y="43.9" fill="#8c8c8c" font-family="Noto Sans" font-size="3.5">OUT2B</text>
  <line x1=".35" x2="14.4" y1="50.4" y2="50.4" fill="none" stroke="#787878" stroke-linecap="round" stroke-linejoin="round" stroke-width=".7"/>
  <rect id="connector26pin" y="50.05" width="14.4" height=".7" fill="none" stroke-width="0" connectorName="OUT1A"/>
  <rect id="connector26terminal" y="50.05" width="0" height=".7" fill="none" stroke-width="0"/>
  <text x="15.8" y="51.1" fill="#8c8c8c" font-family="Noto Sans" font-size="3.5">OUT1A</text>
  <line x1=".35" x2="14.4" y1="57.6" y2="57.6" fill="none" stroke="#787878" stroke-linecap="round" stroke-linejoin="round" stroke-width=".7"/>
  <rect id="connector25pin" y="57.25" width="14.4" height=".7" fill="none" stroke-width="0" connectorName="OUT1B"/>
  <rect id="connector25terminal" y="57.25" width="0" height=".7" fill="none" stroke-width="0"/>
  <text x="15.8" y="58.3" fill="#8c8c8c" font-family="Noto Sans" font-size="3.5">OUT1B</text>
  <line x1="78.85" x2="93.25" y1="36" y2="36" fill="none" stroke="#787878" stroke-linecap="round" stroke-linejoin="round" stroke-width=".7"/>
  <rect id="connector33pin" x="79.2" y="35.65" width="14.4" height=".7" fill="none" stroke-width="0" connectorname="DIR"/>
  <rect id="connector33terminal" x="93.6" y="35.65" width="0" height=".7" fill="none" stroke-width="0"/>
  <text x="77.8003" y="36.7" fill="#8c8c8c" font-family="Noto Sans" font-size="3.5" text-anchor="end">DIR</text>
  <line x1="78.85" x2="93.25" y1="43.2" y2="43.2" fill="none" stroke="#787878" stroke-linecap="round" stroke-linejoin="round" stroke-width=".7"/>
  <rect id="connector34pin" x="79.2" y="42.85" width="14.4" height=".7" fill="none" stroke-width="0" connectorname="STEP"/>
  <rect id="connector34terminal" x="93.6" y="42.85" width="0" height=".7" fill="none" stroke-width="0"/>
  <text x="77.8003" y="43.9" fill="#8c8c8c" font-family="Noto Sans" font-size="3.5" text-anchor="end">STEP</text>
  <line x1="78.85" x2="93.25" y1="50.4" y2="50.4" fill="none" stroke="#787878" stroke-linecap="round" stroke-linejoin="round" stroke-width=".7"/>
  <rect id="connector35pin" x="79.2" y="50.05" width="14.4" height=".7" fill="none" stroke-width="0" connectorname="MS1"/>
  <rect id="connector35terminal" x="93.6" y="50.05" width="0" height=".7" fill="none" stroke-width="0"/>
  <text x="77.8003" y="51.1" fill="#8c8c8c" font-family="Noto Sans" font-size="3.5" text-anchor="end">MS1</text>
  <line x1="78.85" x2="93.25" y1="57.6" y2="57.6" fill="none" stroke="#787878" stroke-linecap="round" stroke-linejoin="round" stroke-width=".7"/>
  <rect id="connector36pin" x="79.2" y="57.25" width="14.4" height=".7" fill="none" stroke-width="0" connectorname="MS2"/>
  <rect id="connector36terminal" x="93.6" y="57.25" width="0" height=".7" fill="none" stroke-width="0"/>
  <text x="77.8003" y="58.3" fill="#8c8c8c" font-family="Noto Sans" font-size="3.5" text-anchor="end">MS2</text>
  <line x1="78.85" x2="93.25" y1="64.8" y2="64.8" fill="none" stroke="#787878" stroke-linecap="round" stroke-linejoin="round" stroke-width=".7"/>
  <rect id="connector37pin" x="79.2" y="64.45" width="14.4" height=".7" fill="none" stroke-width="0" connectorname="MS3"/>
  <rect id="connector37terminal" x="93.6" y="64.45" width="0" height=".7" fill="none" stroke-width="0"/>
  <text x="77.8003" y="65.5" fill="#8c8c8c" font-family="Noto Sans" font-size="3.5" text-anchor="end">MS3</text>
  <line x1="78.85" x2="93.25" y1="72" y2="72" fill="none" stroke="#787878" stroke-linecap="round" stroke-linejoin="round" stroke-width=".7"/>
  <rect id="connector38pin" x="79.2" y="71.65" width="14.4" height=".7" fill="none" stroke-width="0" connectorname="RESET"/>
  <rect id="connector38terminal" x="93.6" y="71.65" width="0" height=".7" fill="none" stroke-width="0"/>
  <text x="77.8003" y="72.6998" fill="#8c8c8c" font-family="Noto Sans" font-size="3.5" text-anchor="end">RESET</text>
  <line x1="78.85" x2="93.25" y1="79.2" y2="79.2" fill="none" stroke="#787878" stroke-linecap="round" stroke-linejoin="round" stroke-width=".7"/>
  <rect id="connector39pin" x="79.2" y="78.85" width="14.4" height=".7" fill="none" stroke-width="0" connectorname="SLEEP"/>
  <rect id="connector39terminal" x="93.6" y="78.85" width="0" height=".7" fill="none" stroke-width="0"/>
  <text x="77.8003" y="79.8998" fill="#8c8c8c" font-family="Noto Sans" font-size="3.5" text-anchor="end">SLEEP</text>
  <line x1="78.85" x2="93.25" y1="86.4" y2="86.4" fill="none" stroke="#787878" stroke-linecap="round" stroke-linejoin="round" stroke-width=".7"/>
  <rect id="connector40pin" x="79.2" y="86.05" width="14.4" height=".7" fill="none" stroke-width="0" connectorname="ENABLE"/>
  <rect id="connector40terminal" x="93.6" y="86.05" width="0" height=".7" fill="none" stroke-width="0"/>
  <text x="77.8003" y="87.0998" fill="#8c8c8c" font-family="Noto Sans" font-size="3.5" text-anchor="end">ENABLE</text>
  <line x1="43.2" x2="43.2" y1=".35" y2="14.4" fill="none" stroke="#787878" stroke-linecap="round" stroke-linejoin="round" stroke-width=".7"/>
  <rect id="connector30pin" x="42.85" width=".7" height="14.4" fill="none" stroke-width="0" connectorname="VMOTOR"/>
  <rect id="connector30terminal" x="42.85" width=".7" height="0" fill="none" stroke-width="0"/>
  <g transform="translate(44.6 16)">
   <g transform="rotate(270)">
    <text fill="#8c8c8c" font-family="Noto Sans" font-size="3.5" text-anchor="end">VMOTOR</text>
   </g>
  </g>
  <line x1="50.4" x2="50.4" y1=".35" y2="14.4" fill="none" stroke="#787878" stroke-linecap="round" stroke-linejoin="round" stroke-width=".7"/>
  <rect id="connector31pin" x="50.05" width=".7" height="14.4" fill="none" stroke-width="0" connectorname="VDD"/>
  <rect id="connector31terminal" x="50.05" width=".7" height="0" fill="none" stroke-width="0"/>
  <g transform="translate(51.8 16)">
   <g transform="rotate(270)">
    <text fill="#8c8c8c" font-family="Noto Sans" font-size="3.5" text-anchor="end">VDD</text>
   </g>
  </g>
  <line x1="43.2" x2="43.2" y1="100.8" y2="114.85" fill="none" stroke="#787878" stroke-linecap="round" stroke-linejoin="round" stroke-width=".7"/>
  <rect id="connector29pin" x="42.85" y="100.8" width=".7" height="14.4" fill="none" stroke-width="0" connectorname="GND"/>
  <rect id="connector29terminal" x="42.85" y="115.2" width=".7" height="0" fill="none" stroke-width="0"/>
  <g transform="translate(44.6 99.2)">
   <g transform="rotate(270)">
    <text fill="#8c8c8c" font-family="Noto Sans" font-size="3.5">GND</text>
   </g>
  </g>
  <rect id="connector32pin" x="42.85" y="100.8" width=".7" height="14.4" fill="none" stroke-width="0" connectorname="GND"/>
  <rect id="connector32terminal" x="42.85" y="115.2" width=".7" height="0" fill="none" stroke-width="0"/>
 </g>
</svg>
