<?xml version="1.0" encoding="UTF-8"?>
<!-- Created with Fritzing (http://www.fritzing.org/) -->
<svg width="1in" height="1in" baseProfile="tiny" version="1.2" viewBox="0 0 72 72" xmlns="http://www.w3.org/2000/svg">
 <desc>
  <referenceFile>Adafruit LPS28 Pressure Sensor_schematic.svg</referenceFile>
 </desc>
 <desc>Fritzing schematic generated by brd2svg</desc>
 <g id="schematic">
  <rect x="14.4" y="14.4" width="42.75" height="43.2" fill="none" stroke="#000" stroke-linecap="round" stroke-linejoin="round" stroke-width=".9"/>
  <text id="label" x="36" y="29" fill="#000000" font-family="Noto Sans" font-size="3.5" text-anchor="middle"><tspan x="36" y="29">Adafruit</tspan> <tspan x="36" y="32.5">LPS28</tspan> <tspan x="36" y="36">Pressure</tspan> <tspan x="36" y="39.5">Sensor</tspan></text>
  <line x1=".35" x2="14.4" y1="28.8" y2="28.8" fill="none" stroke="#787878" stroke-linecap="round" stroke-linejoin="round" stroke-width=".7"/>
  <rect id="connector13pin" y="28.45" width="14.4" height=".7" fill="none" stroke-width="0" connectorName="SDA"/>
  <rect id="connector13terminal" y="28.45" width="0" height=".7" fill="none" stroke-width="0"/>
  <text x="15.8" y="29.5" fill="#8c8c8c" font-family="Noto Sans" font-size="3.5">SDA</text>
  <line x1=".35" x2="14.4" y1="36" y2="36" fill="none" stroke="#787878" stroke-linecap="round" stroke-linejoin="round" stroke-width=".7"/>
  <rect id="connector14pin" y="35.65" width="14.4" height=".7" fill="none" stroke-width="0" connectorName="SCL"/>
  <rect id="connector14terminal" y="35.65" width="0" height=".7" fill="none" stroke-width="0"/>
  <text x="15.8" y="36.7" fill="#8c8c8c" font-family="Noto Sans" font-size="3.5">SCL</text>
  <line x1="57.25" x2="71.65" y1="28.8" y2="28.8" fill="none" stroke="#787878" stroke-linecap="round" stroke-linejoin="round" stroke-width=".7"/>
  <rect id="connector32pin" x="57.6" y="28.45" width="14.4" height=".7" fill="none" stroke-width="0" connectorname="INT"/>
  <rect id="connector32terminal" x="35.986" y="29.149" width=".0288" height=".0014" fill="none" stroke-width="0"/>
  <rect x="72" y="28.45" width="0" height=".7" fill="none" stroke-width="0"/>
  <text x="56.2" y="29.5" fill="#8c8c8c" font-family="Noto Sans" font-size="3.5" text-anchor="end">INT</text>
  <line x1="36" x2="36" y1=".35" y2="14.4" fill="none" stroke="#787878" stroke-linecap="round" stroke-linejoin="round" stroke-width=".7"/>
  <rect id="connector12pin" x="35.65" width=".7" height="14.4" fill="none" stroke-width="0" connectorname="VCC"/>
  <rect id="connector12terminal" x="35.65" width=".7" height="0" fill="none" stroke-width="0"/>
  <g transform="translate(37.4 16)">
   <g transform="rotate(270)">
    <text fill="#8c8c8c" font-family="Noto Sans" font-size="3.5" text-anchor="end">VCC</text>
   </g>
  </g>
  <line x1="43.2" x2="43.2" y1=".35" y2="14.4" fill="none" stroke="#787878" stroke-linecap="round" stroke-linejoin="round" stroke-width=".7"/>
  <rect id="connector28pin" x="42.85" width=".7" height="14.4" fill="none" stroke-width="0" connectorname="3.3V"/>
  <rect id="connector28terminal" x="42.85" width=".7" height="0" fill="none" stroke-width="0"/>
  <g transform="translate(44.6 16)">
   <g transform="rotate(270)">
    <text fill="#8c8c8c" font-family="Noto Sans" font-size="3.5" text-anchor="end">3.3V</text>
   </g>
  </g>
  <line x1="36" x2="36" y1="57.6" y2="71.65" fill="none" stroke="#787878" stroke-linecap="round" stroke-linejoin="round" stroke-width=".7"/>
  <rect id="connector11pin" x="35.65" y="57.6" width=".7" height="14.4" fill="none" stroke-width="0" connectorname="GND"/>
  <rect id="connector11terminal" x="35.65" y="72" width=".7" height="0" fill="none" stroke-width="0"/>
  <g transform="translate(37.4 56)">
   <g transform="rotate(270)">
    <text fill="#8c8c8c" font-family="Noto Sans" font-size="3.5">GND</text>
   </g>
  </g>
  <rect id="connector27pin" x="35.65" width=".7" height="14.4" fill="none" stroke-width="0" connectorname="VCC"/>
  <rect id="connector27terminal" x="35.65" width=".7" height="0" fill="none" stroke-width="0"/>
  <rect id="connector18pin" x="35.65" width=".7" height="14.4" fill="none" stroke-width="0" connectorname="VCC"/>
  <rect id="connector18terminal" x="35.65" width=".7" height="0" fill="none" stroke-width="0"/>
  <rect id="connector29pin" x="35.65" y="57.6" width=".7" height="14.4" fill="none" stroke-width="0" connectorname="GND"/>
  <rect id="connector29terminal" x="35.65" y="72" width=".7" height="0" fill="none" stroke-width="0"/>
  <rect id="connector17pin" x="35.65" y="57.6" width=".7" height="14.4" fill="none" stroke-width="0" connectorname="GND"/>
  <rect id="connector17terminal" x="35.65" y="72" width=".7" height="0" fill="none" stroke-width="0"/>
  <rect id="connector31pin" y="28.45" width="14.4" height=".7" fill="none" stroke-width="0" connectorName="SDA"/>
  <rect id="connector31terminal" y="28.45" width="0" height=".7" fill="none" stroke-width="0"/>
  <rect id="connector19pin" y="28.45" width="14.4" height=".7" fill="none" stroke-width="0" connectorName="SDA"/>
  <rect id="connector19terminal" y="28.45" width="0" height=".7" fill="none" stroke-width="0"/>
  <rect id="connector20pin" y="35.65" width="14.4" height=".7" fill="none" stroke-width="0" connectorName="SCL"/>
  <rect id="connector20terminal" y="35.65" width="0" height=".7" fill="none" stroke-width="0"/>
  <rect id="connector30pin" y="35.65" width="14.4" height=".7" fill="none" stroke-width="0" connectorName="SCL"/>
  <rect id="connector30terminal" y="35.65" width="0" height=".7" fill="none" stroke-width="0"/>
 </g>
</svg>
