<?xml version="1.0" encoding="UTF-8"?>
<!-- Created with Fritzing (http://www.fritzing.org/) -->
<svg width=".6in" height="1.1in" baseProfile="tiny" version="1.2" viewBox="0 0 43.2 79.2" xmlns="http://www.w3.org/2000/svg">
 <desc>
  <referenceFile>Adafruit Bicolor 8x8 LED Matrix Backpack_schematic.svg</referenceFile>
 </desc>
 <desc>Fritzing schematic generated by brd2svg</desc>
 <g id="schematic">
  <rect x=".45" y="14.4" width="28.35" height="50.4" fill="none" stroke="#000" stroke-linecap="round" stroke-linejoin="round" stroke-width=".9"/>
  <text id="label" x="14.85" y="28.8" fill="#000000" font-family="Noto Sans" font-size="3.5" text-anchor="middle"><tspan x="14.85" y="28.8">Adafruit</tspan> <tspan x="14.85" y="32.3">Bicolor</tspan> <tspan x="14.85" y="35.8">8x8</tspan> <tspan x="14.85" y="39.3">LED</tspan> <tspan x="14.85" y="42.8">Matrix</tspan> <tspan x="14.85" y="46.3">Backpack</tspan></text>
  <line x1="28.45" x2="42.85" y1="28.8" y2="28.8" fill="none" stroke="#787878" stroke-linecap="round" stroke-linejoin="round" stroke-width=".7"/>
  <rect id="connector6pin" x="28.8" y="28.45" width="14.4" height=".7" fill="none" stroke-width="0" connectorname="SDA"/>
  <rect id="connector6terminal" x="43.2" y="28.45" width="0" height=".7" fill="none" stroke-width="0"/>
  <text x="27.4" y="29.5" fill="#8c8c8c" font-family="Noto Sans" font-size="3.5" text-anchor="end">SDA</text>
  <line x1="28.45" x2="42.85" y1="36" y2="36" fill="none" stroke="#787878" stroke-linecap="round" stroke-linejoin="round" stroke-width=".7"/>
  <rect id="connector5pin" x="28.8" y="35.65" width="14.4" height=".7" fill="none" stroke-width="0" connectorname="SCL"/>
  <rect id="connector5terminal" x="43.2" y="35.65" width="0" height=".7" fill="none" stroke-width="0"/>
  <text x="27.4" y="36.7" fill="#8c8c8c" font-family="Noto Sans" font-size="3.5" text-anchor="end">SCL</text>
  <line x1="21.6" x2="21.6" y1=".35" y2="14.4" fill="none" stroke="#787878" stroke-linecap="round" stroke-linejoin="round" stroke-width=".7"/>
  <rect id="connector8pin" x="21.25" width=".7" height="14.4" fill="none" stroke-width="0" connectorname="VDD"/>
  <rect id="connector8terminal" x="21.25" width=".7" height="0" fill="none" stroke-width="0"/>
  <g transform="translate(23 16)">
   <g transform="rotate(270)">
    <text fill="#8c8c8c" font-family="Noto Sans" font-size="3.5" text-anchor="end">VDD</text>
   </g>
  </g>
  <line x1="21.6" x2="21.6" y1="64.8" y2="78.85" fill="none" stroke="#787878" stroke-linecap="round" stroke-linejoin="round" stroke-width=".7"/>
  <rect id="connector7pin" x="21.25" y="64.8" width=".7" height="14.4" fill="none" stroke-width="0" connectorname="GND"/>
  <rect id="connector7terminal" x="21.25" y="79.2" width=".7" height="0" fill="none" stroke-width="0"/>
  <g transform="translate(23 63.2)">
   <g transform="rotate(270)">
    <text fill="#8c8c8c" font-family="Noto Sans" font-size="3.5">GND</text>
   </g>
  </g>
 </g>
</svg>
