<?xml version="1.0" encoding="UTF-8"?>
<!-- Created with Fritzing (http://www.fritzing.org/) -->
<svg width="1.8in" height="2in" baseProfile="tiny" version="1.2" viewBox="0 0 129.6 144" xmlns="http://www.w3.org/2000/svg">
 <desc>
  <referenceFile>Adafruit IS31FL3731 STEMMA QT_schematic.svg</referenceFile>
 </desc>
 <desc>Fritzing schematic generated by brd2svg</desc>
 <g id="schematic">
  <rect x="14.4" y="14.4" width="100.35" height="115.2" fill="none" stroke="#000" stroke-linecap="round" stroke-linejoin="round" stroke-width=".9"/>
  <text id="label" x="64.8" y="65" fill="#000000" font-family="Noto Sans" font-size="3.5" text-anchor="middle"><tspan x="64.8" y="65">Adafruit</tspan> <tspan x="64.8" y="68.5">IS31FL3731</tspan> <tspan x="64.8" y="72">STEMMA</tspan> <tspan x="64.8" y="75.4999">QT</tspan></text>
  <line x1=".35" x2="14.4" y1="28.8" y2="28.8" fill="none" stroke="#787878" stroke-linecap="round" stroke-linejoin="round" stroke-width=".7"/>
  <rect id="connector42pin" y="28.45" width="14.4" height=".7" fill="none" stroke-width="0" connectorName="CA1"/>
  <rect id="connector42terminal" y="28.45" width="0" height=".7" fill="none" stroke-width="0"/>
  <text x="15.8" y="29.5" fill="#8c8c8c" font-family="Noto Sans" font-size="3.5">CA1</text>
  <line x1=".35" x2="14.4" y1="36" y2="36" fill="none" stroke="#787878" stroke-linecap="round" stroke-linejoin="round" stroke-width=".7"/>
  <rect id="connector43pin" y="35.65" width="14.4" height=".7" fill="none" stroke-width="0" connectorName="CA2"/>
  <rect id="connector43terminal" y="35.65" width="0" height=".7" fill="none" stroke-width="0"/>
  <text x="15.8" y="36.7" fill="#8c8c8c" font-family="Noto Sans" font-size="3.5">CA2</text>
  <line x1=".35" x2="14.4" y1="43.2" y2="43.2" fill="none" stroke="#787878" stroke-linecap="round" stroke-linejoin="round" stroke-width=".7"/>
  <rect id="connector44pin" y="42.85" width="14.4" height=".7" fill="none" stroke-width="0" connectorName="CA3"/>
  <rect id="connector44terminal" y="42.85" width="0" height=".7" fill="none" stroke-width="0"/>
  <text x="15.8" y="43.9" fill="#8c8c8c" font-family="Noto Sans" font-size="3.5">CA3</text>
  <line x1=".35" x2="14.4" y1="50.4" y2="50.4" fill="none" stroke="#787878" stroke-linecap="round" stroke-linejoin="round" stroke-width=".7"/>
  <rect id="connector45pin" y="50.05" width="14.4" height=".7" fill="none" stroke-width="0" connectorName="CA4"/>
  <rect id="connector45terminal" y="50.05" width="0" height=".7" fill="none" stroke-width="0"/>
  <text x="15.8" y="51.1" fill="#8c8c8c" font-family="Noto Sans" font-size="3.5">CA4</text>
  <line x1=".35" x2="14.4" y1="57.6" y2="57.6" fill="none" stroke="#787878" stroke-linecap="round" stroke-linejoin="round" stroke-width=".7"/>
  <rect id="connector46pin" y="57.25" width="14.4" height=".7" fill="none" stroke-width="0" connectorName="CA5"/>
  <rect id="connector46terminal" y="57.25" width="0" height=".7" fill="none" stroke-width="0"/>
  <text x="15.8" y="58.3" fill="#8c8c8c" font-family="Noto Sans" font-size="3.5">CA5</text>
  <line x1=".35" x2="14.4" y1="64.8" y2="64.8" fill="none" stroke="#787878" stroke-linecap="round" stroke-linejoin="round" stroke-width=".7"/>
  <rect id="connector47pin" y="64.45" width="14.4" height=".7" fill="none" stroke-width="0" connectorName="CA6"/>
  <rect id="connector47terminal" y="64.45" width="0" height=".7" fill="none" stroke-width="0"/>
  <text x="15.8" y="65.5" fill="#8c8c8c" font-family="Noto Sans" font-size="3.5">CA6</text>
  <line x1=".35" x2="14.4" y1="72" y2="72" fill="none" stroke="#787878" stroke-linecap="round" stroke-linejoin="round" stroke-width=".7"/>
  <rect id="connector48pin" y="71.65" width="14.4" height=".7" fill="none" stroke-width="0" connectorName="CA7"/>
  <rect id="connector48terminal" y="71.65" width="0" height=".7" fill="none" stroke-width="0"/>
  <text x="15.8" y="72.6998" fill="#8c8c8c" font-family="Noto Sans" font-size="3.5">CA7</text>
  <line x1=".35" x2="14.4" y1="79.2" y2="79.2" fill="none" stroke="#787878" stroke-linecap="round" stroke-linejoin="round" stroke-width=".7"/>
  <rect id="connector49pin" y="78.85" width="14.4" height=".7" fill="none" stroke-width="0" connectorName="CA8"/>
  <rect id="connector49terminal" y="78.85" width="0" height=".7" fill="none" stroke-width="0"/>
  <text x="15.8" y="79.8998" fill="#8c8c8c" font-family="Noto Sans" font-size="3.5">CA8</text>
  <line x1=".35" x2="14.4" y1="86.4" y2="86.4" fill="none" stroke="#787878" stroke-linecap="round" stroke-linejoin="round" stroke-width=".7"/>
  <rect id="connector50pin" y="86.05" width="14.4" height=".7" fill="none" stroke-width="0" connectorName="CA9"/>
  <rect id="connector50terminal" y="86.05" width="0" height=".7" fill="none" stroke-width="0"/>
  <text x="15.8" y="87.0998" fill="#8c8c8c" font-family="Noto Sans" font-size="3.5">CA9</text>
  <line x1=".35" x2="14.4" y1="93.6" y2="93.6" fill="none" stroke="#787878" stroke-linecap="round" stroke-linejoin="round" stroke-width=".7"/>
  <rect id="connector51pin" y="93.25" width="14.4" height=".7" fill="none" stroke-width="0" connectorName="SHUTDOWN"/>
  <rect id="connector51terminal" y="93.25" width="0" height=".7" fill="none" stroke-width="0"/>
  <text x="15.8" y="94.2998" fill="#8c8c8c" font-family="Noto Sans" font-size="3.5">SHUTDOWN</text>
  <line x1=".35" x2="14.4" y1="100.8" y2="100.8" fill="none" stroke="#787878" stroke-linecap="round" stroke-linejoin="round" stroke-width=".7"/>
  <rect id="connector52pin" y="100.45" width="14.4" height=".7" fill="none" stroke-width="0" connectorName="INTB"/>
  <rect id="connector52terminal" y="100.45" width="0" height=".7" fill="none" stroke-width="0"/>
  <text x="15.8" y="101.5" fill="#8c8c8c" font-family="Noto Sans" font-size="3.5">INTB</text>
  <line x1=".35" x2="14.4" y1="108" y2="108" fill="none" stroke="#787878" stroke-linecap="round" stroke-linejoin="round" stroke-width=".7"/>
  <rect id="connector53pin" y="107.65" width="14.4" height=".7" fill="none" stroke-width="0" connectorName="ADDR"/>
  <rect id="connector53terminal" y="107.65" width="0" height=".7" fill="none" stroke-width="0"/>
  <text x="15.8" y="108.7" fill="#8c8c8c" font-family="Noto Sans" font-size="3.5">ADDR</text>
  <line x1=".35" x2="14.4" y1="115.2" y2="115.2" fill="none" stroke="#787878" stroke-linecap="round" stroke-linejoin="round" stroke-width=".7"/>
  <rect id="connector54pin" y="114.85" width="14.4" height=".7" fill="none" stroke-width="0" connectorName="AUDIOIN"/>
  <rect id="connector54terminal" y="114.85" width="0" height=".7" fill="none" stroke-width="0"/>
  <text x="15.8" y="115.9" fill="#8c8c8c" font-family="Noto Sans" font-size="3.5">AUDIOIN</text>
  <line x1="114.85" x2="129.25" y1="28.8" y2="28.8" fill="none" stroke="#787878" stroke-linecap="round" stroke-linejoin="round" stroke-width=".7"/>
  <rect id="connector17pin" x="115.2" y="28.45" width="14.4" height=".7" fill="none" stroke-width="0" connectorname="SDA"/>
  <rect id="connector17terminal" x="129.6" y="28.45" width="0" height=".7" fill="none" stroke-width="0"/>
  <text x="113.8" y="29.5" fill="#8c8c8c" font-family="Noto Sans" font-size="3.5" text-anchor="end">SDA</text>
  <line x1="114.85" x2="129.25" y1="36" y2="36" fill="none" stroke="#787878" stroke-linecap="round" stroke-linejoin="round" stroke-width=".7"/>
  <rect id="connector18pin" x="115.2" y="35.65" width="14.4" height=".7" fill="none" stroke-width="0" connectorname="SCL"/>
  <rect id="connector18terminal" x="129.6" y="35.65" width="0" height=".7" fill="none" stroke-width="0"/>
  <text x="113.8" y="36.7" fill="#8c8c8c" font-family="Noto Sans" font-size="3.5" text-anchor="end">SCL</text>
  <line x1="114.85" x2="129.25" y1="43.2" y2="43.2" fill="none" stroke="#787878" stroke-linecap="round" stroke-linejoin="round" stroke-width=".7"/>
  <rect id="connector33pin" x="115.2" y="42.85" width="14.4" height=".7" fill="none" stroke-width="0" connectorname="CB1"/>
  <rect id="connector33terminal" x="129.6" y="42.85" width="0" height=".7" fill="none" stroke-width="0"/>
  <text x="113.8" y="43.9" fill="#8c8c8c" font-family="Noto Sans" font-size="3.5" text-anchor="end">CB1</text>
  <line x1="114.85" x2="129.25" y1="50.4" y2="50.4" fill="none" stroke="#787878" stroke-linecap="round" stroke-linejoin="round" stroke-width=".7"/>
  <rect id="connector34pin" x="115.2" y="50.05" width="14.4" height=".7" fill="none" stroke-width="0" connectorname="CB2"/>
  <rect id="connector34terminal" x="129.6" y="50.05" width="0" height=".7" fill="none" stroke-width="0"/>
  <text x="113.8" y="51.1" fill="#8c8c8c" font-family="Noto Sans" font-size="3.5" text-anchor="end">CB2</text>
  <line x1="114.85" x2="129.25" y1="57.6" y2="57.6" fill="none" stroke="#787878" stroke-linecap="round" stroke-linejoin="round" stroke-width=".7"/>
  <rect id="connector35pin" x="115.2" y="57.25" width="14.4" height=".7" fill="none" stroke-width="0" connectorname="CB3"/>
  <rect id="connector35terminal" x="129.6" y="57.25" width="0" height=".7" fill="none" stroke-width="0"/>
  <text x="113.8" y="58.3" fill="#8c8c8c" font-family="Noto Sans" font-size="3.5" text-anchor="end">CB3</text>
  <line x1="114.85" x2="129.25" y1="64.8" y2="64.8" fill="none" stroke="#787878" stroke-linecap="round" stroke-linejoin="round" stroke-width=".7"/>
  <rect id="connector36pin" x="115.2" y="64.45" width="14.4" height=".7" fill="none" stroke-width="0" connectorname="CB4"/>
  <rect id="connector36terminal" x="129.6" y="64.45" width="0" height=".7" fill="none" stroke-width="0"/>
  <text x="113.8" y="65.5" fill="#8c8c8c" font-family="Noto Sans" font-size="3.5" text-anchor="end">CB4</text>
  <line x1="114.85" x2="129.25" y1="72" y2="72" fill="none" stroke="#787878" stroke-linecap="round" stroke-linejoin="round" stroke-width=".7"/>
  <rect id="connector37pin" x="115.2" y="71.65" width="14.4" height=".7" fill="none" stroke-width="0" connectorname="CB5"/>
  <rect id="connector37terminal" x="129.6" y="71.65" width="0" height=".7" fill="none" stroke-width="0"/>
  <text x="113.8" y="72.6998" fill="#8c8c8c" font-family="Noto Sans" font-size="3.5" text-anchor="end">CB5</text>
  <line x1="114.85" x2="129.25" y1="79.2" y2="79.2" fill="none" stroke="#787878" stroke-linecap="round" stroke-linejoin="round" stroke-width=".7"/>
  <rect id="connector38pin" x="115.2" y="78.85" width="14.4" height=".7" fill="none" stroke-width="0" connectorname="CB6"/>
  <rect id="connector38terminal" x="129.6" y="78.85" width="0" height=".7" fill="none" stroke-width="0"/>
  <text x="113.8" y="79.8998" fill="#8c8c8c" font-family="Noto Sans" font-size="3.5" text-anchor="end">CB6</text>
  <line x1="114.85" x2="129.25" y1="86.4" y2="86.4" fill="none" stroke="#787878" stroke-linecap="round" stroke-linejoin="round" stroke-width=".7"/>
  <rect id="connector39pin" x="115.2" y="86.05" width="14.4" height=".7" fill="none" stroke-width="0" connectorname="CB7"/>
  <rect id="connector39terminal" x="129.6" y="86.05" width="0" height=".7" fill="none" stroke-width="0"/>
  <text x="113.8" y="87.0998" fill="#8c8c8c" font-family="Noto Sans" font-size="3.5" text-anchor="end">CB7</text>
  <line x1="114.85" x2="129.25" y1="93.6" y2="93.6" fill="none" stroke="#787878" stroke-linecap="round" stroke-linejoin="round" stroke-width=".7"/>
  <rect id="connector40pin" x="115.2" y="93.25" width="14.4" height=".7" fill="none" stroke-width="0" connectorname="CB8"/>
  <rect id="connector40terminal" x="129.6" y="93.25" width="0" height=".7" fill="none" stroke-width="0"/>
  <text x="113.8" y="94.2998" fill="#8c8c8c" font-family="Noto Sans" font-size="3.5" text-anchor="end">CB8</text>
  <line x1="114.85" x2="129.25" y1="100.8" y2="100.8" fill="none" stroke="#787878" stroke-linecap="round" stroke-linejoin="round" stroke-width=".7"/>
  <rect id="connector41pin" x="115.2" y="100.45" width="14.4" height=".7" fill="none" stroke-width="0" connectorname="CB9"/>
  <rect id="connector41terminal" x="129.6" y="100.45" width="0" height=".7" fill="none" stroke-width="0"/>
  <text x="113.8" y="101.5" fill="#8c8c8c" font-family="Noto Sans" font-size="3.5" text-anchor="end">CB9</text>
  <line x1="114.85" x2="129.25" y1="108" y2="108" fill="none" stroke="#787878" stroke-linecap="round" stroke-linejoin="round" stroke-width=".7"/>
  <rect id="connector63pin" x="115.2" y="107.65" width="14.4" height=".7" fill="none" stroke-width="0" connectorname="REXT"/>
  <rect id="connector63terminal" x="129.6" y="107.65" width="0" height=".7" fill="none" stroke-width="0"/>
  <text x="113.8" y="108.7" fill="#8c8c8c" font-family="Noto Sans" font-size="3.5" text-anchor="end">REXT</text>
  <line x1="64.8" x2="64.8" y1=".35" y2="14.4" fill="none" stroke="#787878" stroke-linecap="round" stroke-linejoin="round" stroke-width=".7"/>
  <rect id="connector16pin" x="64.45" width=".7" height="14.4" fill="none" stroke-width="0" connectorname="VCC"/>
  <rect id="connector16terminal" x="64.45" width=".7" height="0" fill="none" stroke-width="0"/>
  <g transform="translate(66.2 16)">
   <g transform="rotate(270)">
    <text fill="#8c8c8c" font-family="Noto Sans" font-size="3.5" text-anchor="end">VCC</text>
   </g>
  </g>
  <line x1="64.8" x2="64.8" y1="129.6" y2="143.65" fill="none" stroke="#787878" stroke-linecap="round" stroke-linejoin="round" stroke-width=".7"/>
  <rect id="connector15pin" x="64.45" y="129.6" width=".7" height="14.4" fill="none" stroke-width="0" connectorname="GND"/>
  <rect id="connector15terminal" x="64.45" y="144" width=".7" height="0" fill="none" stroke-width="0"/>
  <g transform="translate(66.2 128)">
   <g transform="rotate(270)">
    <text fill="#8c8c8c" font-family="Noto Sans" font-size="3.5">GND</text>
   </g>
  </g>
  <rect id="connector29pin" x="64.45" width=".7" height="14.4" fill="none" stroke-width="0" connectorname="VCC"/>
  <rect id="connector29terminal" x="64.45" width=".7" height="0" fill="none" stroke-width="0"/>
  <rect id="connector55pin" x="64.45" width=".7" height="14.4" fill="none" stroke-width="0" connectorname="VCC"/>
  <rect id="connector55terminal" x="64.45" width=".7" height="0" fill="none" stroke-width="0"/>
  <rect id="connector22pin" x="64.45" width=".7" height="14.4" fill="none" stroke-width="0" connectorname="VCC"/>
  <rect id="connector22terminal" x="64.45" width=".7" height="0" fill="none" stroke-width="0"/>
  <rect id="connector30pin" x="64.45" y="129.6" width=".7" height="14.4" fill="none" stroke-width="0" connectorname="GND"/>
  <rect id="connector30terminal" x="64.45" y="144" width=".7" height="0" fill="none" stroke-width="0"/>
  <rect id="connector56pin" x="64.45" y="129.6" width=".7" height="14.4" fill="none" stroke-width="0" connectorname="GND"/>
  <rect id="connector56terminal" x="64.45" y="144" width=".7" height="0" fill="none" stroke-width="0"/>
  <rect id="connector62pin" x="64.45" y="129.6" width=".7" height="14.4" fill="none" stroke-width="0" connectorname="GND"/>
  <rect id="connector62terminal" x="64.45" y="144" width=".7" height="0" fill="none" stroke-width="0"/>
  <rect id="connector21pin" x="64.45" y="129.6" width=".7" height="14.4" fill="none" stroke-width="0" connectorname="GND"/>
  <rect id="connector21terminal" x="64.45" y="144" width=".7" height="0" fill="none" stroke-width="0"/>
  <rect id="connector61pin" y="93.25" width="14.4" height=".7" fill="none" stroke-width="0" connectorName="SHUTDOWN"/>
  <rect id="connector61terminal" y="93.25" width="0" height=".7" fill="none" stroke-width="0"/>
  <rect id="connector60pin" y="100.45" width="14.4" height=".7" fill="none" stroke-width="0" connectorName="INTB"/>
  <rect id="connector60terminal" y="100.45" width="0" height=".7" fill="none" stroke-width="0"/>
  <rect id="connector59pin" y="114.85" width="14.4" height=".7" fill="none" stroke-width="0" connectorName="AUDIOIN"/>
  <rect id="connector59terminal" y="114.85" width="0" height=".7" fill="none" stroke-width="0"/>
  <rect id="connector58pin" x="115.2" y="28.45" width="14.4" height=".7" fill="none" stroke-width="0" connectorname="SDA"/>
  <rect id="connector58terminal" x="129.6" y="28.45" width="0" height=".7" fill="none" stroke-width="0"/>
  <rect id="connector32pin" x="115.2" y="28.45" width="14.4" height=".7" fill="none" stroke-width="0" connectorname="SDA"/>
  <rect id="connector32terminal" x="129.6" y="28.45" width="0" height=".7" fill="none" stroke-width="0"/>
  <rect id="connector23pin" x="115.2" y="28.45" width="14.4" height=".7" fill="none" stroke-width="0" connectorname="SDA"/>
  <rect id="connector23terminal" x="129.6" y="28.45" width="0" height=".7" fill="none" stroke-width="0"/>
  <rect id="connector24pin" x="115.2" y="35.65" width="14.4" height=".7" fill="none" stroke-width="0" connectorname="SCL"/>
  <rect id="connector24terminal" x="129.6" y="35.65" width="0" height=".7" fill="none" stroke-width="0"/>
  <rect id="connector31pin" x="115.2" y="35.65" width="14.4" height=".7" fill="none" stroke-width="0" connectorname="SCL"/>
  <rect id="connector31terminal" x="129.6" y="35.65" width="0" height=".7" fill="none" stroke-width="0"/>
  <rect id="connector57pin" x="115.2" y="35.65" width="14.4" height=".7" fill="none" stroke-width="0" connectorname="SCL"/>
  <rect id="connector57terminal" x="129.6" y="35.65" width="0" height=".7" fill="none" stroke-width="0"/>
 </g>
</svg>
