<?xml version="1.0" encoding="UTF-8"?>
<!-- Created with Fritzing (http://www.fritzing.org/) -->
<svg width="1.1in" height="2.1in" baseProfile="tiny" version="1.2" viewBox="0 0 79.2 151.2" xmlns="http://www.w3.org/2000/svg">
 <desc>
  <referenceFile>INA219 FeatherWing rev A_schematic.svg</referenceFile>
 </desc>
 <desc>Fritzing schematic generated by brd2svg</desc>
 <g id="schematic">
  <rect x="14.4" y="14.4" width="49.95" height="122.4" fill="none" stroke="#000" stroke-linecap="round" stroke-linejoin="round" stroke-width=".9"/>
  <text id="label" x="39.6" y="65" fill="#000000" font-family="Noto Sans" font-size="3.5" text-anchor="middle"><tspan x="39.6" y="65">INA219</tspan> <tspan x="39.6" y="68.5">FeatherWing</tspan> <tspan x="39.6" y="72">rev</tspan> <tspan x="39.6" y="75.4999">A</tspan></text>
  <rect id="connector97pin" x="36" y="136.8" width="0" height="0" fill="none" stroke-width="0" connectorName="3.3V"/>
  <rect id="connector97terminal" x="36" y="136.8" width="0" height="0" fill="none" stroke-width="0"/>
  <rect id="connector98pin" x="36" y="136.8" width="0" height="0" fill="none" stroke-width="0" connectorName="3.3V"/>
  <rect id="connector98terminal" x="36" y="136.8" width="0" height="0" fill="none" stroke-width="0"/>
  <rect id="connector99pin" x="36" y="136.8" width="0" height="0" fill="none" stroke-width="0" connectorName="3.3V"/>
  <rect id="connector99terminal" x="36" y="136.8" width="0" height="0" fill="none" stroke-width="0"/>
  <rect id="connector100pin" x="36" y="136.8" width="0" height="0" fill="none" stroke-width="0" connectorName="3.3V"/>
  <rect id="connector100terminal" x="36" y="136.8" width="0" height="0" fill="none" stroke-width="0"/>
  <rect id="connector101pin" x="36" y="136.8" width="0" height="0" fill="none" stroke-width="0" connectorName="3.3V"/>
  <rect id="connector101terminal" x="36" y="136.8" width="0" height="0" fill="none" stroke-width="0"/>
  <rect id="connector102pin" x="36" y="136.8" width="0" height="0" fill="none" stroke-width="0" connectorName="GND"/>
  <rect id="connector102terminal" x="36" y="136.8" width="0" height="0" fill="none" stroke-width="0"/>
  <rect id="connector103pin" x="36" y="136.8" width="0" height="0" fill="none" stroke-width="0" connectorName="GND"/>
  <rect id="connector103terminal" x="36" y="136.8" width="0" height="0" fill="none" stroke-width="0"/>
  <rect id="connector104pin" x="36" y="136.8" width="0" height="0" fill="none" stroke-width="0" connectorName="GND"/>
  <rect id="connector104terminal" x="36" y="136.8" width="0" height="0" fill="none" stroke-width="0"/>
  <rect id="connector105pin" x="36" y="136.8" width="0" height="0" fill="none" stroke-width="0" connectorName="GND"/>
  <rect id="connector105terminal" x="36" y="136.8" width="0" height="0" fill="none" stroke-width="0"/>
  <rect id="connector106pin" x="36" y="136.8" width="0" height="0" fill="none" stroke-width="0" connectorName="GND"/>
  <rect id="connector106terminal" x="36" y="136.8" width="0" height="0" fill="none" stroke-width="0"/>
  <rect id="connector107pin" x="36" y="136.8" width="0" height="0" fill="none" stroke-width="0" connectorName="N$34"/>
  <rect id="connector107terminal" x="36" y="136.8" width="0" height="0" fill="none" stroke-width="0"/>
  <rect id="connector108pin" x="36" y="136.8" width="0" height="0" fill="none" stroke-width="0" connectorName="N$35"/>
  <rect id="connector108terminal" x="36" y="136.8" width="0" height="0" fill="none" stroke-width="0"/>
  <rect id="connector109pin" x="36" y="136.8" width="0" height="0" fill="none" stroke-width="0" connectorName="N$36"/>
  <rect id="connector109terminal" x="36" y="136.8" width="0" height="0" fill="none" stroke-width="0"/>
  <rect id="connector110pin" x="36" y="136.8" width="0" height="0" fill="none" stroke-width="0" connectorName="N$37"/>
  <rect id="connector110terminal" x="36" y="136.8" width="0" height="0" fill="none" stroke-width="0"/>
  <rect id="connector111pin" x="36" y="136.8" width="0" height="0" fill="none" stroke-width="0" connectorName="N$38"/>
  <rect id="connector111terminal" x="36" y="136.8" width="0" height="0" fill="none" stroke-width="0"/>
  <rect id="connector112pin" x="36" y="136.8" width="0" height="0" fill="none" stroke-width="0" connectorName="N$39"/>
  <rect id="connector112terminal" x="36" y="136.8" width="0" height="0" fill="none" stroke-width="0"/>
  <rect id="connector113pin" x="36" y="136.8" width="0" height="0" fill="none" stroke-width="0" connectorName="N$40"/>
  <rect id="connector113terminal" x="36" y="136.8" width="0" height="0" fill="none" stroke-width="0"/>
  <rect id="connector114pin" x="36" y="136.8" width="0" height="0" fill="none" stroke-width="0" connectorName="N$41"/>
  <rect id="connector114terminal" x="36" y="136.8" width="0" height="0" fill="none" stroke-width="0"/>
  <rect id="connector115pin" x="36" y="136.8" width="0" height="0" fill="none" stroke-width="0" connectorName="N$42"/>
  <rect id="connector115terminal" x="36" y="136.8" width="0" height="0" fill="none" stroke-width="0"/>
  <rect id="connector116pin" x="36" y="136.8" width="0" height="0" fill="none" stroke-width="0" connectorName="N$43"/>
  <rect id="connector116terminal" x="36" y="136.8" width="0" height="0" fill="none" stroke-width="0"/>
  <rect id="connector117pin" x="36" y="136.8" width="0" height="0" fill="none" stroke-width="0" connectorName="N$44"/>
  <rect id="connector117terminal" x="36" y="136.8" width="0" height="0" fill="none" stroke-width="0"/>
  <rect id="connector118pin" x="36" y="136.8" width="0" height="0" fill="none" stroke-width="0" connectorName="N$45"/>
  <rect id="connector118terminal" x="36" y="136.8" width="0" height="0" fill="none" stroke-width="0"/>
  <rect id="connector119pin" x="36" y="136.8" width="0" height="0" fill="none" stroke-width="0" connectorName="N$46"/>
  <rect id="connector119terminal" x="36" y="136.8" width="0" height="0" fill="none" stroke-width="0"/>
  <rect id="connector120pin" x="36" y="136.8" width="0" height="0" fill="none" stroke-width="0" connectorName="N$47"/>
  <rect id="connector120terminal" x="36" y="136.8" width="0" height="0" fill="none" stroke-width="0"/>
  <rect id="connector121pin" x="36" y="136.8" width="0" height="0" fill="none" stroke-width="0" connectorName="N$48"/>
  <rect id="connector121terminal" x="36" y="136.8" width="0" height="0" fill="none" stroke-width="0"/>
  <rect id="connector122pin" x="36" y="136.8" width="0" height="0" fill="none" stroke-width="0" connectorName="N$49"/>
  <rect id="connector122terminal" x="36" y="136.8" width="0" height="0" fill="none" stroke-width="0"/>
  <rect id="connector123pin" x="36" y="136.8" width="0" height="0" fill="none" stroke-width="0" connectorName="N$50"/>
  <rect id="connector123terminal" x="36" y="136.8" width="0" height="0" fill="none" stroke-width="0"/>
  <rect id="connector124pin" x="36" y="136.8" width="0" height="0" fill="none" stroke-width="0" connectorName="N$51"/>
  <rect id="connector124terminal" x="36" y="136.8" width="0" height="0" fill="none" stroke-width="0"/>
  <rect id="connector125pin" x="36" y="136.8" width="0" height="0" fill="none" stroke-width="0" connectorName="N$52"/>
  <rect id="connector125terminal" x="36" y="136.8" width="0" height="0" fill="none" stroke-width="0"/>
  <rect id="connector126pin" x="36" y="136.8" width="0" height="0" fill="none" stroke-width="0" connectorName="N$53"/>
  <rect id="connector126terminal" x="36" y="136.8" width="0" height="0" fill="none" stroke-width="0"/>
  <rect id="connector127pin" x="36" y="136.8" width="0" height="0" fill="none" stroke-width="0" connectorName="N$64"/>
  <rect id="connector127terminal" x="36" y="136.8" width="0" height="0" fill="none" stroke-width="0"/>
  <rect id="connector128pin" x="36" y="136.8" width="0" height="0" fill="none" stroke-width="0" connectorName="N$65"/>
  <rect id="connector128terminal" x="36" y="136.8" width="0" height="0" fill="none" stroke-width="0"/>
  <rect id="connector129pin" x="36" y="136.8" width="0" height="0" fill="none" stroke-width="0" connectorName="N$66"/>
  <rect id="connector129terminal" x="36" y="136.8" width="0" height="0" fill="none" stroke-width="0"/>
  <rect id="connector130pin" x="36" y="136.8" width="0" height="0" fill="none" stroke-width="0" connectorName="N$67"/>
  <rect id="connector130terminal" x="36" y="136.8" width="0" height="0" fill="none" stroke-width="0"/>
  <rect id="connector131pin" x="36" y="136.8" width="0" height="0" fill="none" stroke-width="0" connectorName="N$68"/>
  <rect id="connector131terminal" x="36" y="136.8" width="0" height="0" fill="none" stroke-width="0"/>
  <rect id="connector132pin" x="36" y="136.8" width="0" height="0" fill="none" stroke-width="0" connectorName="N$69"/>
  <rect id="connector132terminal" x="36" y="136.8" width="0" height="0" fill="none" stroke-width="0"/>
  <rect id="connector133pin" x="36" y="136.8" width="0" height="0" fill="none" stroke-width="0" connectorName="N$70"/>
  <rect id="connector133terminal" x="36" y="136.8" width="0" height="0" fill="none" stroke-width="0"/>
  <rect id="connector134pin" x="36" y="136.8" width="0" height="0" fill="none" stroke-width="0" connectorName="N$71"/>
  <rect id="connector134terminal" x="36" y="136.8" width="0" height="0" fill="none" stroke-width="0"/>
  <rect id="connector135pin" x="36" y="136.8" width="0" height="0" fill="none" stroke-width="0" connectorName="N$72"/>
  <rect id="connector135terminal" x="36" y="136.8" width="0" height="0" fill="none" stroke-width="0"/>
  <rect id="connector136pin" x="36" y="136.8" width="0" height="0" fill="none" stroke-width="0" connectorName="N$73"/>
  <rect id="connector136terminal" x="36" y="136.8" width="0" height="0" fill="none" stroke-width="0"/>
  <rect id="connector137pin" x="36" y="136.8" width="0" height="0" fill="none" stroke-width="0" connectorName="N$74"/>
  <rect id="connector137terminal" x="36" y="136.8" width="0" height="0" fill="none" stroke-width="0"/>
  <rect id="connector138pin" x="36" y="136.8" width="0" height="0" fill="none" stroke-width="0" connectorName="N$75"/>
  <rect id="connector138terminal" x="36" y="136.8" width="0" height="0" fill="none" stroke-width="0"/>
  <rect id="connector139pin" x="36" y="136.8" width="0" height="0" fill="none" stroke-width="0" connectorName="N$76"/>
  <rect id="connector139terminal" x="36" y="136.8" width="0" height="0" fill="none" stroke-width="0"/>
  <rect id="connector140pin" x="36" y="136.8" width="0" height="0" fill="none" stroke-width="0" connectorName="N$77"/>
  <rect id="connector140terminal" x="36" y="136.8" width="0" height="0" fill="none" stroke-width="0"/>
  <rect id="connector141pin" x="36" y="136.8" width="0" height="0" fill="none" stroke-width="0" connectorName="N$78"/>
  <rect id="connector141terminal" x="36" y="136.8" width="0" height="0" fill="none" stroke-width="0"/>
  <rect id="connector142pin" x="36" y="136.8" width="0" height="0" fill="none" stroke-width="0" connectorName="N$79"/>
  <rect id="connector142terminal" x="36" y="136.8" width="0" height="0" fill="none" stroke-width="0"/>
  <rect id="connector143pin" x="36" y="136.8" width="0" height="0" fill="none" stroke-width="0" connectorName="N$80"/>
  <rect id="connector143terminal" x="36" y="136.8" width="0" height="0" fill="none" stroke-width="0"/>
  <rect id="connector144pin" x="36" y="136.8" width="0" height="0" fill="none" stroke-width="0" connectorName="N$81"/>
  <rect id="connector144terminal" x="36" y="136.8" width="0" height="0" fill="none" stroke-width="0"/>
  <rect id="connector145pin" x="36" y="136.8" width="0" height="0" fill="none" stroke-width="0" connectorName="N$82"/>
  <rect id="connector145terminal" x="36" y="136.8" width="0" height="0" fill="none" stroke-width="0"/>
  <rect id="connector146pin" x="36" y="136.8" width="0" height="0" fill="none" stroke-width="0" connectorName="N$83"/>
  <rect id="connector146terminal" x="36" y="136.8" width="0" height="0" fill="none" stroke-width="0"/>
  <rect id="connector147pin" x="36" y="136.8" width="0" height="0" fill="none" stroke-width="0" connectorName="N$84"/>
  <rect id="connector147terminal" x="36" y="136.8" width="0" height="0" fill="none" stroke-width="0"/>
  <rect id="connector148pin" x="36" y="136.8" width="0" height="0" fill="none" stroke-width="0" connectorName="N$85"/>
  <rect id="connector148terminal" x="36" y="136.8" width="0" height="0" fill="none" stroke-width="0"/>
  <rect id="connector149pin" x="36" y="136.8" width="0" height="0" fill="none" stroke-width="0" connectorName="N$86"/>
  <rect id="connector149terminal" x="36" y="136.8" width="0" height="0" fill="none" stroke-width="0"/>
  <rect id="connector150pin" x="36" y="136.8" width="0" height="0" fill="none" stroke-width="0" connectorName="N$87"/>
  <rect id="connector150terminal" x="36" y="136.8" width="0" height="0" fill="none" stroke-width="0"/>
  <rect id="connector151pin" x="36" y="136.8" width="0" height="0" fill="none" stroke-width="0" connectorName="N$88"/>
  <rect id="connector151terminal" x="36" y="136.8" width="0" height="0" fill="none" stroke-width="0"/>
  <rect id="connector152pin" x="36" y="136.8" width="0" height="0" fill="none" stroke-width="0" connectorName="N$89"/>
  <rect id="connector152terminal" x="36" y="136.8" width="0" height="0" fill="none" stroke-width="0"/>
  <rect id="connector153pin" x="36" y="136.8" width="0" height="0" fill="none" stroke-width="0" connectorName="N$90"/>
  <rect id="connector153terminal" x="36" y="136.8" width="0" height="0" fill="none" stroke-width="0"/>
  <rect id="connector154pin" x="36" y="136.8" width="0" height="0" fill="none" stroke-width="0" connectorName="N$91"/>
  <rect id="connector154terminal" x="36" y="136.8" width="0" height="0" fill="none" stroke-width="0"/>
  <rect id="connector155pin" x="36" y="136.8" width="0" height="0" fill="none" stroke-width="0" connectorName="N$92"/>
  <rect id="connector155terminal" x="36" y="136.8" width="0" height="0" fill="none" stroke-width="0"/>
  <rect id="connector156pin" x="36" y="136.8" width="0" height="0" fill="none" stroke-width="0" connectorName="N$93"/>
  <rect id="connector156terminal" x="36" y="136.8" width="0" height="0" fill="none" stroke-width="0"/>
  <line x1=".35" x2="14.4" y1="28.8" y2="28.8" fill="none" stroke="#787878" stroke-linecap="round" stroke-linejoin="round" stroke-width=".7"/>
  <rect id="connector44pin" y="28.45" width="14.4" height=".7" fill="none" stroke-width="0" connectorName="RESET"/>
  <rect id="connector44terminal" y="28.45" width="0" height=".7" fill="none" stroke-width="0"/>
  <text x="15.8" y="29.5" fill="#8c8c8c" font-family="Noto Sans" font-size="3.5">RESET</text>
  <line x1=".35" x2="14.4" y1="36" y2="36" fill="none" stroke="#787878" stroke-linecap="round" stroke-linejoin="round" stroke-width=".7"/>
  <rect id="connector42pin" y="35.65" width="14.4" height=".7" fill="none" stroke-width="0" connectorName="AREF"/>
  <rect id="connector42terminal" y="35.65" width="0" height=".7" fill="none" stroke-width="0"/>
  <text x="15.8" y="36.7" fill="#8c8c8c" font-family="Noto Sans" font-size="3.5">AREF</text>
  <line x1=".35" x2="14.4" y1="43.2" y2="43.2" fill="none" stroke="#787878" stroke-linecap="round" stroke-linejoin="round" stroke-width=".7"/>
  <rect id="connector40pin" y="42.85" width="14.4" height=".7" fill="none" stroke-width="0" connectorName="A0"/>
  <rect id="connector40terminal" y="42.85" width="0" height=".7" fill="none" stroke-width="0"/>
  <text x="15.8" y="43.9" fill="#8c8c8c" font-family="Noto Sans" font-size="3.5">A0</text>
  <line x1=".35" x2="14.4" y1="50.4" y2="50.4" fill="none" stroke="#787878" stroke-linecap="round" stroke-linejoin="round" stroke-width=".7"/>
  <rect id="connector39pin" y="50.05" width="14.4" height=".7" fill="none" stroke-width="0" connectorName="A1"/>
  <rect id="connector39terminal" y="50.05" width="0" height=".7" fill="none" stroke-width="0"/>
  <text x="15.8" y="51.1" fill="#8c8c8c" font-family="Noto Sans" font-size="3.5">A1</text>
  <line x1=".35" x2="14.4" y1="57.6" y2="57.6" fill="none" stroke="#787878" stroke-linecap="round" stroke-linejoin="round" stroke-width=".7"/>
  <rect id="connector38pin" y="57.25" width="14.4" height=".7" fill="none" stroke-width="0" connectorName="A2"/>
  <rect id="connector38terminal" y="57.25" width="0" height=".7" fill="none" stroke-width="0"/>
  <text x="15.8" y="58.3" fill="#8c8c8c" font-family="Noto Sans" font-size="3.5">A2</text>
  <line x1=".35" x2="14.4" y1="64.8" y2="64.8" fill="none" stroke="#787878" stroke-linecap="round" stroke-linejoin="round" stroke-width=".7"/>
  <rect id="connector37pin" y="64.45" width="14.4" height=".7" fill="none" stroke-width="0" connectorName="A3"/>
  <rect id="connector37terminal" y="64.45" width="0" height=".7" fill="none" stroke-width="0"/>
  <text x="15.8" y="65.5" fill="#8c8c8c" font-family="Noto Sans" font-size="3.5">A3</text>
  <line x1=".35" x2="14.4" y1="72" y2="72" fill="none" stroke="#787878" stroke-linecap="round" stroke-linejoin="round" stroke-width=".7"/>
  <rect id="connector36pin" y="71.65" width="14.4" height=".7" fill="none" stroke-width="0" connectorName="A4"/>
  <rect id="connector36terminal" y="71.65" width="0" height=".7" fill="none" stroke-width="0"/>
  <text x="15.8" y="72.6998" fill="#8c8c8c" font-family="Noto Sans" font-size="3.5">A4</text>
  <line x1=".35" x2="14.4" y1="79.2" y2="79.2" fill="none" stroke="#787878" stroke-linecap="round" stroke-linejoin="round" stroke-width=".7"/>
  <rect id="connector35pin" y="78.85" width="14.4" height=".7" fill="none" stroke-width="0" connectorName="A5"/>
  <rect id="connector35terminal" y="78.85" width="0" height=".7" fill="none" stroke-width="0"/>
  <text x="15.8" y="79.8998" fill="#8c8c8c" font-family="Noto Sans" font-size="3.5">A5</text>
  <line x1=".35" x2="14.4" y1="86.4" y2="86.4" fill="none" stroke="#787878" stroke-linecap="round" stroke-linejoin="round" stroke-width=".7"/>
  <rect id="connector34pin" y="86.05" width="14.4" height=".7" fill="none" stroke-width="0" connectorName="SCK"/>
  <rect id="connector34terminal" y="86.05" width="0" height=".7" fill="none" stroke-width="0"/>
  <text x="15.8" y="87.0998" fill="#8c8c8c" font-family="Noto Sans" font-size="3.5">SCK</text>
  <line x1=".35" x2="14.4" y1="93.6" y2="93.6" fill="none" stroke="#787878" stroke-linecap="round" stroke-linejoin="round" stroke-width=".7"/>
  <rect id="connector33pin" y="93.25" width="14.4" height=".7" fill="none" stroke-width="0" connectorName="MOSI"/>
  <rect id="connector33terminal" y="93.25" width="0" height=".7" fill="none" stroke-width="0"/>
  <text x="15.8" y="94.2998" fill="#8c8c8c" font-family="Noto Sans" font-size="3.5">MOSI</text>
  <line x1=".35" x2="14.4" y1="100.8" y2="100.8" fill="none" stroke="#787878" stroke-linecap="round" stroke-linejoin="round" stroke-width=".7"/>
  <rect id="connector32pin" y="100.45" width="14.4" height=".7" fill="none" stroke-width="0" connectorName="MISO"/>
  <rect id="connector32terminal" y="100.45" width="0" height=".7" fill="none" stroke-width="0"/>
  <text x="15.8" y="101.5" fill="#8c8c8c" font-family="Noto Sans" font-size="3.5">MISO</text>
  <line x1=".35" x2="14.4" y1="108" y2="108" fill="none" stroke="#787878" stroke-linecap="round" stroke-linejoin="round" stroke-width=".7"/>
  <rect id="connector31pin" y="107.65" width="14.4" height=".7" fill="none" stroke-width="0" connectorName="RX"/>
  <rect id="connector31terminal" y="107.65" width="0" height=".7" fill="none" stroke-width="0"/>
  <text x="15.8" y="108.7" fill="#8c8c8c" font-family="Noto Sans" font-size="3.5">RX</text>
  <line x1=".35" x2="14.4" y1="115.2" y2="115.2" fill="none" stroke="#787878" stroke-linecap="round" stroke-linejoin="round" stroke-width=".7"/>
  <rect id="connector30pin" y="114.85" width="14.4" height=".7" fill="none" stroke-width="0" connectorName="TX"/>
  <rect id="connector30terminal" y="114.85" width="0" height=".7" fill="none" stroke-width="0"/>
  <text x="15.8" y="115.9" fill="#8c8c8c" font-family="Noto Sans" font-size="3.5">TX</text>
  <line x1=".35" x2="14.4" y1="122.4" y2="122.4" fill="none" stroke="#787878" stroke-linecap="round" stroke-linejoin="round" stroke-width=".7"/>
  <rect id="connector29pin" y="122.05" width="14.4" height=".7" fill="none" stroke-width="0" connectorName="D4"/>
  <rect id="connector29terminal" y="122.05" width="0" height=".7" fill="none" stroke-width="0"/>
  <text x="15.8" y="123.1" fill="#8c8c8c" font-family="Noto Sans" font-size="3.5">D4</text>
  <line x1="64.45" x2="78.85" y1="28.8" y2="28.8" fill="none" stroke="#787878" stroke-linecap="round" stroke-linejoin="round" stroke-width=".7"/>
  <rect id="connector16pin" x="64.8" y="28.45" width="14.4" height=".7" fill="none" stroke-width="0" connectorname="EN"/>
  <rect id="connector16terminal" x="79.2" y="28.45" width="0" height=".7" fill="none" stroke-width="0"/>
  <text x="63.4" y="29.5" fill="#8c8c8c" font-family="Noto Sans" font-size="3.5" text-anchor="end">EN</text>
  <line x1="64.45" x2="78.85" y1="36" y2="36" fill="none" stroke="#787878" stroke-linecap="round" stroke-linejoin="round" stroke-width=".7"/>
  <rect id="connector17pin" x="64.8" y="35.65" width="14.4" height=".7" fill="none" stroke-width="0" connectorname="USB"/>
  <rect id="connector17terminal" x="79.2" y="35.65" width="0" height=".7" fill="none" stroke-width="0"/>
  <text x="63.4" y="36.7" fill="#8c8c8c" font-family="Noto Sans" font-size="3.5" text-anchor="end">USB</text>
  <line x1="64.45" x2="78.85" y1="43.2" y2="43.2" fill="none" stroke="#787878" stroke-linecap="round" stroke-linejoin="round" stroke-width=".7"/>
  <rect id="connector18pin" x="64.8" y="42.85" width="14.4" height=".7" fill="none" stroke-width="0" connectorname="D13"/>
  <rect id="connector18terminal" x="79.2" y="42.85" width="0" height=".7" fill="none" stroke-width="0"/>
  <text x="63.4" y="43.9" fill="#8c8c8c" font-family="Noto Sans" font-size="3.5" text-anchor="end">D13</text>
  <line x1="64.45" x2="78.85" y1="50.4" y2="50.4" fill="none" stroke="#787878" stroke-linecap="round" stroke-linejoin="round" stroke-width=".7"/>
  <rect id="connector19pin" x="64.8" y="50.05" width="14.4" height=".7" fill="none" stroke-width="0" connectorname="D12"/>
  <rect id="connector19terminal" x="79.2" y="50.05" width="0" height=".7" fill="none" stroke-width="0"/>
  <text x="63.4" y="51.1" fill="#8c8c8c" font-family="Noto Sans" font-size="3.5" text-anchor="end">D12</text>
  <line x1="64.45" x2="78.85" y1="57.6" y2="57.6" fill="none" stroke="#787878" stroke-linecap="round" stroke-linejoin="round" stroke-width=".7"/>
  <rect id="connector20pin" x="64.8" y="57.25" width="14.4" height=".7" fill="none" stroke-width="0" connectorname="D11"/>
  <rect id="connector20terminal" x="79.2" y="57.25" width="0" height=".7" fill="none" stroke-width="0"/>
  <text x="63.4" y="58.3" fill="#8c8c8c" font-family="Noto Sans" font-size="3.5" text-anchor="end">D11</text>
  <line x1="64.45" x2="78.85" y1="64.8" y2="64.8" fill="none" stroke="#787878" stroke-linecap="round" stroke-linejoin="round" stroke-width=".7"/>
  <rect id="connector21pin" x="64.8" y="64.45" width="14.4" height=".7" fill="none" stroke-width="0" connectorname="D10"/>
  <rect id="connector21terminal" x="79.2" y="64.45" width="0" height=".7" fill="none" stroke-width="0"/>
  <text x="63.4" y="65.5" fill="#8c8c8c" font-family="Noto Sans" font-size="3.5" text-anchor="end">D10</text>
  <line x1="64.45" x2="78.85" y1="72" y2="72" fill="none" stroke="#787878" stroke-linecap="round" stroke-linejoin="round" stroke-width=".7"/>
  <rect id="connector22pin" x="64.8" y="71.65" width="14.4" height=".7" fill="none" stroke-width="0" connectorname="D9"/>
  <rect id="connector22terminal" x="79.2" y="71.65" width="0" height=".7" fill="none" stroke-width="0"/>
  <text x="63.4" y="72.6998" fill="#8c8c8c" font-family="Noto Sans" font-size="3.5" text-anchor="end">D9</text>
  <line x1="64.45" x2="78.85" y1="79.2" y2="79.2" fill="none" stroke="#787878" stroke-linecap="round" stroke-linejoin="round" stroke-width=".7"/>
  <rect id="connector23pin" x="64.8" y="78.85" width="14.4" height=".7" fill="none" stroke-width="0" connectorname="D6"/>
  <rect id="connector23terminal" x="79.2" y="78.85" width="0" height=".7" fill="none" stroke-width="0"/>
  <text x="63.4" y="79.8998" fill="#8c8c8c" font-family="Noto Sans" font-size="3.5" text-anchor="end">D6</text>
  <line x1="64.45" x2="78.85" y1="86.4" y2="86.4" fill="none" stroke="#787878" stroke-linecap="round" stroke-linejoin="round" stroke-width=".7"/>
  <rect id="connector24pin" x="64.8" y="86.05" width="14.4" height=".7" fill="none" stroke-width="0" connectorname="D5"/>
  <rect id="connector24terminal" x="79.2" y="86.05" width="0" height=".7" fill="none" stroke-width="0"/>
  <text x="63.4" y="87.0998" fill="#8c8c8c" font-family="Noto Sans" font-size="3.5" text-anchor="end">D5</text>
  <line x1="64.45" x2="78.85" y1="93.6" y2="93.6" fill="none" stroke="#787878" stroke-linecap="round" stroke-linejoin="round" stroke-width=".7"/>
  <rect id="connector25pin" x="64.8" y="93.25" width="14.4" height=".7" fill="none" stroke-width="0" connectorname="SCL"/>
  <rect id="connector25terminal" x="79.2" y="93.25" width="0" height=".7" fill="none" stroke-width="0"/>
  <text x="63.4" y="94.2998" fill="#8c8c8c" font-family="Noto Sans" font-size="3.5" text-anchor="end">SCL</text>
  <line x1="64.45" x2="78.85" y1="100.8" y2="100.8" fill="none" stroke="#787878" stroke-linecap="round" stroke-linejoin="round" stroke-width=".7"/>
  <rect id="connector26pin" x="64.8" y="100.45" width="14.4" height=".7" fill="none" stroke-width="0" connectorname="SDA"/>
  <rect id="connector26terminal" x="79.2" y="100.45" width="0" height=".7" fill="none" stroke-width="0"/>
  <text x="63.4" y="101.5" fill="#8c8c8c" font-family="Noto Sans" font-size="3.5" text-anchor="end">SDA</text>
  <line x1="21.6" x2="21.6" y1=".35" y2="14.4" fill="none" stroke="#787878" stroke-linecap="round" stroke-linejoin="round" stroke-width=".7"/>
  <rect id="connector13pin" x="21.25" width=".7" height="14.4" fill="none" stroke-width="0" connectorname="VIN-"/>
  <rect id="connector13terminal" x="21.25" width=".7" height="0" fill="none" stroke-width="0"/>
  <g transform="translate(23 16)">
   <g transform="rotate(270)">
    <text fill="#8c8c8c" font-family="Noto Sans" font-size="3.5" text-anchor="end">VIN-</text>
   </g>
  </g>
  <line x1="28.8" x2="28.8" y1=".35" y2="14.4" fill="none" stroke="#787878" stroke-linecap="round" stroke-linejoin="round" stroke-width=".7"/>
  <rect id="connector14pin" x="28.45" width=".7" height="14.4" fill="none" stroke-width="0" connectorname="VIN+"/>
  <rect id="connector14terminal" x="28.45" width=".7" height="0" fill="none" stroke-width="0"/>
  <g transform="translate(30.2 16)">
   <g transform="rotate(270)">
    <text fill="#8c8c8c" font-family="Noto Sans" font-size="3.5" text-anchor="end">VIN+</text>
   </g>
  </g>
  <line x1="36" x2="36" y1=".35" y2="14.4" fill="none" stroke="#787878" stroke-linecap="round" stroke-linejoin="round" stroke-width=".7"/>
  <rect id="connector15pin" x="35.65" width=".7" height="14.4" fill="none" stroke-width="0" connectorname="VBAT"/>
  <rect id="connector15terminal" x="35.65" width=".7" height="0" fill="none" stroke-width="0"/>
  <g transform="translate(37.4 16)">
   <g transform="rotate(270)">
    <text fill="#8c8c8c" font-family="Noto Sans" font-size="3.5" text-anchor="end">VBAT</text>
   </g>
  </g>
  <line x1="43.2" x2="43.2" y1=".35" y2="14.4" fill="none" stroke="#787878" stroke-linecap="round" stroke-linejoin="round" stroke-width=".7"/>
  <rect id="connector43pin" x="42.85" width=".7" height="14.4" fill="none" stroke-width="0" connectorname="3.3V"/>
  <rect id="connector43terminal" x="42.85" width=".7" height="0" fill="none" stroke-width="0"/>
  <g transform="translate(44.6 16)">
   <g transform="rotate(270)">
    <text fill="#8c8c8c" font-family="Noto Sans" font-size="3.5" text-anchor="end">3.3V</text>
   </g>
  </g>
  <line x1="36" x2="36" y1="136.8" y2="150.85" fill="none" stroke="#787878" stroke-linecap="round" stroke-linejoin="round" stroke-width=".7"/>
  <rect id="connector41pin" x="35.65" y="136.8" width=".7" height="14.4" fill="none" stroke-width="0" connectorname="GND"/>
  <rect id="connector41terminal" x="35.65" y="151.2" width=".7" height="0" fill="none" stroke-width="0"/>
  <g transform="translate(37.4 135.2)">
   <g transform="rotate(270)">
    <text fill="#8c8c8c" font-family="Noto Sans" font-size="3.5">GND</text>
   </g>
  </g>
  <rect id="connector27pin" x="21.25" width=".7" height="14.4" fill="none" stroke-width="0" connectorname="VIN-"/>
  <rect id="connector27terminal" x="21.25" width=".7" height="0" fill="none" stroke-width="0"/>
  <rect id="connector28pin" x="28.45" width=".7" height="14.4" fill="none" stroke-width="0" connectorname="VIN+"/>
  <rect id="connector28terminal" x="28.45" width=".7" height="0" fill="none" stroke-width="0"/>
  <rect id="connector46pin" x="42.85" width=".7" height="14.4" fill="none" stroke-width="0" connectorname="3.3V"/>
  <rect id="connector46terminal" x="42.85" width=".7" height="0" fill="none" stroke-width="0"/>
  <rect id="connector72pin" x="35.65" width=".7" height="14.4" fill="none" stroke-width="0" connectorname="VBAT"/>
  <rect id="connector72terminal" x="35.65" width=".7" height="0" fill="none" stroke-width="0"/>
  <rect id="connector48pin" x="35.65" y="136.8" width=".7" height="14.4" fill="none" stroke-width="0" connectorname="GND"/>
  <rect id="connector48terminal" x="35.65" y="151.2" width=".7" height="0" fill="none" stroke-width="0"/>
  <rect id="connector45pin" y="28.45" width="14.4" height=".7" fill="none" stroke-width="0" connectorName="RESET"/>
  <rect id="connector45terminal" y="28.45" width="0" height=".7" fill="none" stroke-width="0"/>
  <rect id="connector47pin" y="35.65" width="14.4" height=".7" fill="none" stroke-width="0" connectorName="AREF"/>
  <rect id="connector47terminal" y="35.65" width="0" height=".7" fill="none" stroke-width="0"/>
  <rect id="connector49pin" y="42.85" width="14.4" height=".7" fill="none" stroke-width="0" connectorName="A0"/>
  <rect id="connector49terminal" y="42.85" width="0" height=".7" fill="none" stroke-width="0"/>
  <rect id="connector50pin" y="50.05" width="14.4" height=".7" fill="none" stroke-width="0" connectorName="A1"/>
  <rect id="connector50terminal" y="50.05" width="0" height=".7" fill="none" stroke-width="0"/>
  <rect id="connector51pin" y="57.25" width="14.4" height=".7" fill="none" stroke-width="0" connectorName="A2"/>
  <rect id="connector51terminal" y="57.25" width="0" height=".7" fill="none" stroke-width="0"/>
  <rect id="connector52pin" y="64.45" width="14.4" height=".7" fill="none" stroke-width="0" connectorName="A3"/>
  <rect id="connector52terminal" y="64.45" width="0" height=".7" fill="none" stroke-width="0"/>
  <rect id="connector53pin" y="71.65" width="14.4" height=".7" fill="none" stroke-width="0" connectorName="A4"/>
  <rect id="connector53terminal" y="71.65" width="0" height=".7" fill="none" stroke-width="0"/>
  <rect id="connector54pin" y="78.85" width="14.4" height=".7" fill="none" stroke-width="0" connectorName="A5"/>
  <rect id="connector54terminal" y="78.85" width="0" height=".7" fill="none" stroke-width="0"/>
  <rect id="connector55pin" y="86.05" width="14.4" height=".7" fill="none" stroke-width="0" connectorName="SCK"/>
  <rect id="connector55terminal" y="86.05" width="0" height=".7" fill="none" stroke-width="0"/>
  <rect id="connector56pin" y="93.25" width="14.4" height=".7" fill="none" stroke-width="0" connectorName="MOSI"/>
  <rect id="connector56terminal" y="93.25" width="0" height=".7" fill="none" stroke-width="0"/>
  <rect id="connector57pin" y="100.45" width="14.4" height=".7" fill="none" stroke-width="0" connectorName="MISO"/>
  <rect id="connector57terminal" y="100.45" width="0" height=".7" fill="none" stroke-width="0"/>
  <rect id="connector58pin" y="107.65" width="14.4" height=".7" fill="none" stroke-width="0" connectorName="RX"/>
  <rect id="connector58terminal" y="107.65" width="0" height=".7" fill="none" stroke-width="0"/>
  <rect id="connector59pin" y="114.85" width="14.4" height=".7" fill="none" stroke-width="0" connectorName="TX"/>
  <rect id="connector59terminal" y="114.85" width="0" height=".7" fill="none" stroke-width="0"/>
  <rect id="connector60pin" y="122.05" width="14.4" height=".7" fill="none" stroke-width="0" connectorName="D4"/>
  <rect id="connector60terminal" y="122.05" width="0" height=".7" fill="none" stroke-width="0"/>
  <rect id="connector71pin" x="64.8" y="28.45" width="14.4" height=".7" fill="none" stroke-width="0" connectorname="EN"/>
  <rect id="connector71terminal" x="79.2" y="28.45" width="0" height=".7" fill="none" stroke-width="0"/>
  <rect id="connector70pin" x="64.8" y="35.65" width="14.4" height=".7" fill="none" stroke-width="0" connectorname="USB"/>
  <rect id="connector70terminal" x="79.2" y="35.65" width="0" height=".7" fill="none" stroke-width="0"/>
  <rect id="connector69pin" x="64.8" y="42.85" width="14.4" height=".7" fill="none" stroke-width="0" connectorname="D13"/>
  <rect id="connector69terminal" x="79.2" y="42.85" width="0" height=".7" fill="none" stroke-width="0"/>
  <rect id="connector68pin" x="64.8" y="50.05" width="14.4" height=".7" fill="none" stroke-width="0" connectorname="D12"/>
  <rect id="connector68terminal" x="79.2" y="50.05" width="0" height=".7" fill="none" stroke-width="0"/>
  <rect id="connector67pin" x="64.8" y="57.25" width="14.4" height=".7" fill="none" stroke-width="0" connectorname="D11"/>
  <rect id="connector67terminal" x="79.2" y="57.25" width="0" height=".7" fill="none" stroke-width="0"/>
  <rect id="connector66pin" x="64.8" y="64.45" width="14.4" height=".7" fill="none" stroke-width="0" connectorname="D10"/>
  <rect id="connector66terminal" x="79.2" y="64.45" width="0" height=".7" fill="none" stroke-width="0"/>
  <rect id="connector65pin" x="64.8" y="71.65" width="14.4" height=".7" fill="none" stroke-width="0" connectorname="D9"/>
  <rect id="connector65terminal" x="79.2" y="71.65" width="0" height=".7" fill="none" stroke-width="0"/>
  <rect id="connector64pin" x="64.8" y="78.85" width="14.4" height=".7" fill="none" stroke-width="0" connectorname="D6"/>
  <rect id="connector64terminal" x="79.2" y="78.85" width="0" height=".7" fill="none" stroke-width="0"/>
  <rect id="connector63pin" x="64.8" y="86.05" width="14.4" height=".7" fill="none" stroke-width="0" connectorname="D5"/>
  <rect id="connector63terminal" x="79.2" y="86.05" width="0" height=".7" fill="none" stroke-width="0"/>
  <rect id="connector62pin" x="64.8" y="93.25" width="14.4" height=".7" fill="none" stroke-width="0" connectorname="SCL"/>
  <rect id="connector62terminal" x="79.2" y="93.25" width="0" height=".7" fill="none" stroke-width="0"/>
  <rect id="connector61pin" x="64.8" y="100.45" width="14.4" height=".7" fill="none" stroke-width="0" connectorname="SDA"/>
  <rect id="connector61terminal" x="79.2" y="100.45" width="0" height=".7" fill="none" stroke-width="0"/>
 </g>
</svg>
