<?xml version="1.0" encoding="UTF-8"?>
<!-- Created with Fritzing (http://www.fritzing.org/) -->
<svg width="1.2in" height="2.1in" baseProfile="tiny" version="1.2" viewBox="0 0 86.4 151.2" xmlns="http://www.w3.org/2000/svg">
 <desc>
  <referenceFile>Adafruit Bicolor 8x8 HT16K33 STEMMA_schematic.svg</referenceFile>
 </desc>
 <desc>Fritzing schematic generated by brd2svg</desc>
 <g id="schematic">
  <rect x="14.4" y="14.4" width="57.15" height="122.4" fill="none" stroke="#000" stroke-linecap="round" stroke-linejoin="round" stroke-width=".9"/>
  <text id="label" x="43.2" y="61.5" fill="#000000" font-family="Noto Sans" font-size="3.5" text-anchor="middle"><tspan x="43.2" y="61.5">Adafruit</tspan> <tspan x="43.2" y="65">Bicolor</tspan> <tspan x="43.2" y="68.5">8x8</tspan> <tspan x="43.2" y="72">HT16K33</tspan> <tspan x="43.2" y="75.4999">STEMMA</tspan></text>
  <line x1=".35" x2="14.4" y1="28.8" y2="28.8" fill="none" stroke="#787878" stroke-linecap="round" stroke-linejoin="round" stroke-width=".7"/>
  <rect id="connector18pin" y="28.45" width="14.4" height=".7" fill="none" stroke-width="0" connectorName="SDA"/>
  <rect id="connector18terminal" y="28.45" width="0" height=".7" fill="none" stroke-width="0"/>
  <text x="15.8" y="29.5" fill="#8c8c8c" font-family="Noto Sans" font-size="3.5">SDA</text>
  <line x1=".35" x2="14.4" y1="36" y2="36" fill="none" stroke="#787878" stroke-linecap="round" stroke-linejoin="round" stroke-width=".7"/>
  <rect id="connector17pin" y="35.65" width="14.4" height=".7" fill="none" stroke-width="0" connectorName="SCL"/>
  <rect id="connector17terminal" y="35.65" width="0" height=".7" fill="none" stroke-width="0"/>
  <text x="15.8" y="36.7" fill="#8c8c8c" font-family="Noto Sans" font-size="3.5">SCL</text>
  <line x1=".35" x2="14.4" y1="43.2" y2="43.2" fill="none" stroke="#787878" stroke-linecap="round" stroke-linejoin="round" stroke-width=".7"/>
  <rect id="connector58pin" y="42.85" width="14.4" height=".7" fill="none" stroke-width="0" connectorName="A2"/>
  <rect id="connector58terminal" y="42.85" width="0" height=".7" fill="none" stroke-width="0"/>
  <text x="15.8" y="43.9" fill="#8c8c8c" font-family="Noto Sans" font-size="3.5">A2</text>
  <line x1=".35" x2="14.4" y1="50.4" y2="50.4" fill="none" stroke="#787878" stroke-linecap="round" stroke-linejoin="round" stroke-width=".7"/>
  <rect id="connector57pin" y="50.05" width="14.4" height=".7" fill="none" stroke-width="0" connectorName="23"/>
  <rect id="connector57terminal" y="50.05" width="0" height=".7" fill="none" stroke-width="0"/>
  <text x="15.8" y="51.1" fill="#8c8c8c" font-family="Noto Sans" font-size="3.5">23</text>
  <line x1=".35" x2="14.4" y1="57.6" y2="57.6" fill="none" stroke="#787878" stroke-linecap="round" stroke-linejoin="round" stroke-width=".7"/>
  <rect id="connector56pin" y="57.25" width="14.4" height=".7" fill="none" stroke-width="0" connectorName="22"/>
  <rect id="connector56terminal" y="57.25" width="0" height=".7" fill="none" stroke-width="0"/>
  <text x="15.8" y="58.3" fill="#8c8c8c" font-family="Noto Sans" font-size="3.5">22</text>
  <line x1=".35" x2="14.4" y1="64.8" y2="64.8" fill="none" stroke="#787878" stroke-linecap="round" stroke-linejoin="round" stroke-width=".7"/>
  <rect id="connector55pin" y="64.45" width="14.4" height=".7" fill="none" stroke-width="0" connectorName="A1"/>
  <rect id="connector55terminal" y="64.45" width="0" height=".7" fill="none" stroke-width="0"/>
  <text x="15.8" y="65.5" fill="#8c8c8c" font-family="Noto Sans" font-size="3.5">A1</text>
  <line x1=".35" x2="14.4" y1="72" y2="72" fill="none" stroke="#787878" stroke-linecap="round" stroke-linejoin="round" stroke-width=".7"/>
  <rect id="connector54pin" y="71.65" width="14.4" height=".7" fill="none" stroke-width="0" connectorName="20"/>
  <rect id="connector54terminal" y="71.65" width="0" height=".7" fill="none" stroke-width="0"/>
  <text x="15.8" y="72.6998" fill="#8c8c8c" font-family="Noto Sans" font-size="3.5">20</text>
  <line x1=".35" x2="14.4" y1="79.2" y2="79.2" fill="none" stroke="#787878" stroke-linecap="round" stroke-linejoin="round" stroke-width=".7"/>
  <rect id="connector53pin" y="78.85" width="14.4" height=".7" fill="none" stroke-width="0" connectorName="19"/>
  <rect id="connector53terminal" y="78.85" width="0" height=".7" fill="none" stroke-width="0"/>
  <text x="15.8" y="79.8998" fill="#8c8c8c" font-family="Noto Sans" font-size="3.5">19</text>
  <line x1=".35" x2="14.4" y1="86.4" y2="86.4" fill="none" stroke="#787878" stroke-linecap="round" stroke-linejoin="round" stroke-width=".7"/>
  <rect id="connector52pin" y="86.05" width="14.4" height=".7" fill="none" stroke-width="0" connectorName="A0"/>
  <rect id="connector52terminal" y="86.05" width="0" height=".7" fill="none" stroke-width="0"/>
  <text x="15.8" y="87.0998" fill="#8c8c8c" font-family="Noto Sans" font-size="3.5">A0</text>
  <line x1=".35" x2="14.4" y1="93.6" y2="93.6" fill="none" stroke="#787878" stroke-linecap="round" stroke-linejoin="round" stroke-width=".7"/>
  <rect id="connector51pin" y="93.25" width="14.4" height=".7" fill="none" stroke-width="0" connectorName="17"/>
  <rect id="connector51terminal" y="93.25" width="0" height=".7" fill="none" stroke-width="0"/>
  <text x="15.8" y="94.2998" fill="#8c8c8c" font-family="Noto Sans" font-size="3.5">17</text>
  <line x1=".35" x2="14.4" y1="100.8" y2="100.8" fill="none" stroke="#787878" stroke-linecap="round" stroke-linejoin="round" stroke-width=".7"/>
  <rect id="connector50pin" y="100.45" width="14.4" height=".7" fill="none" stroke-width="0" connectorName="16"/>
  <rect id="connector50terminal" y="100.45" width="0" height=".7" fill="none" stroke-width="0"/>
  <text x="15.8" y="101.5" fill="#8c8c8c" font-family="Noto Sans" font-size="3.5">16</text>
  <line x1=".35" x2="14.4" y1="108" y2="108" fill="none" stroke="#787878" stroke-linecap="round" stroke-linejoin="round" stroke-width=".7"/>
  <rect id="connector49pin" y="107.65" width="14.4" height=".7" fill="none" stroke-width="0" connectorName="15"/>
  <rect id="connector49terminal" y="107.65" width="0" height=".7" fill="none" stroke-width="0"/>
  <text x="15.8" y="108.7" fill="#8c8c8c" font-family="Noto Sans" font-size="3.5">15</text>
  <line x1=".35" x2="14.4" y1="115.2" y2="115.2" fill="none" stroke="#787878" stroke-linecap="round" stroke-linejoin="round" stroke-width=".7"/>
  <rect id="connector48pin" y="114.85" width="14.4" height=".7" fill="none" stroke-width="0" connectorName="14"/>
  <rect id="connector48terminal" y="114.85" width="0" height=".7" fill="none" stroke-width="0"/>
  <text x="15.8" y="115.9" fill="#8c8c8c" font-family="Noto Sans" font-size="3.5">14</text>
  <line x1=".35" x2="14.4" y1="122.4" y2="122.4" fill="none" stroke="#787878" stroke-linecap="round" stroke-linejoin="round" stroke-width=".7"/>
  <rect id="connector47pin" y="122.05" width="14.4" height=".7" fill="none" stroke-width="0" connectorName="13"/>
  <rect id="connector47terminal" y="122.05" width="0" height=".7" fill="none" stroke-width="0"/>
  <text x="15.8" y="123.1" fill="#8c8c8c" font-family="Noto Sans" font-size="3.5">13</text>
  <line x1="71.65" x2="86.05" y1="28.8" y2="28.8" fill="none" stroke="#787878" stroke-linecap="round" stroke-linejoin="round" stroke-width=".7"/>
  <rect id="connector35pin" x="72" y="28.45" width="14.4" height=".7" fill="none" stroke-width="0" connectorname="1"/>
  <rect id="connector35terminal" x="86.4" y="28.45" width="0" height=".7" fill="none" stroke-width="0"/>
  <text x="70.6" y="29.5" fill="#8c8c8c" font-family="Noto Sans" font-size="3.5" text-anchor="end">1</text>
  <line x1="71.65" x2="86.05" y1="36" y2="36" fill="none" stroke="#787878" stroke-linecap="round" stroke-linejoin="round" stroke-width=".7"/>
  <rect id="connector36pin" x="72" y="35.65" width="14.4" height=".7" fill="none" stroke-width="0" connectorname="N$42"/>
  <rect id="connector36terminal" x="86.4" y="35.65" width="0" height=".7" fill="none" stroke-width="0"/>
  <text x="70.6" y="36.7" fill="#8c8c8c" font-family="Noto Sans" font-size="3.5" text-anchor="end">N$42</text>
  <line x1="71.65" x2="86.05" y1="43.2" y2="43.2" fill="none" stroke="#787878" stroke-linecap="round" stroke-linejoin="round" stroke-width=".7"/>
  <rect id="connector37pin" x="72" y="42.85" width="14.4" height=".7" fill="none" stroke-width="0" connectorname="3"/>
  <rect id="connector37terminal" x="86.4" y="42.85" width="0" height=".7" fill="none" stroke-width="0"/>
  <text x="70.6" y="43.9" fill="#8c8c8c" font-family="Noto Sans" font-size="3.5" text-anchor="end">3</text>
  <line x1="71.65" x2="86.05" y1="50.4" y2="50.4" fill="none" stroke="#787878" stroke-linecap="round" stroke-linejoin="round" stroke-width=".7"/>
  <rect id="connector38pin" x="72" y="50.05" width="14.4" height=".7" fill="none" stroke-width="0" connectorname="4"/>
  <rect id="connector38terminal" x="86.4" y="50.05" width="0" height=".7" fill="none" stroke-width="0"/>
  <text x="70.6" y="51.1" fill="#8c8c8c" font-family="Noto Sans" font-size="3.5" text-anchor="end">4</text>
  <line x1="71.65" x2="86.05" y1="57.6" y2="57.6" fill="none" stroke="#787878" stroke-linecap="round" stroke-linejoin="round" stroke-width=".7"/>
  <rect id="connector39pin" x="72" y="57.25" width="14.4" height=".7" fill="none" stroke-width="0" connectorname="5"/>
  <rect id="connector39terminal" x="86.4" y="57.25" width="0" height=".7" fill="none" stroke-width="0"/>
  <text x="70.6" y="58.3" fill="#8c8c8c" font-family="Noto Sans" font-size="3.5" text-anchor="end">5</text>
  <line x1="71.65" x2="86.05" y1="64.8" y2="64.8" fill="none" stroke="#787878" stroke-linecap="round" stroke-linejoin="round" stroke-width=".7"/>
  <rect id="connector40pin" x="72" y="64.45" width="14.4" height=".7" fill="none" stroke-width="0" connectorname="6"/>
  <rect id="connector40terminal" x="86.4" y="64.45" width="0" height=".7" fill="none" stroke-width="0"/>
  <text x="70.6" y="65.5" fill="#8c8c8c" font-family="Noto Sans" font-size="3.5" text-anchor="end">6</text>
  <line x1="71.65" x2="86.05" y1="72" y2="72" fill="none" stroke="#787878" stroke-linecap="round" stroke-linejoin="round" stroke-width=".7"/>
  <rect id="connector41pin" x="72" y="71.65" width="14.4" height=".7" fill="none" stroke-width="0" connectorname="7"/>
  <rect id="connector41terminal" x="86.4" y="71.65" width="0" height=".7" fill="none" stroke-width="0"/>
  <text x="70.6" y="72.6998" fill="#8c8c8c" font-family="Noto Sans" font-size="3.5" text-anchor="end">7</text>
  <line x1="71.65" x2="86.05" y1="79.2" y2="79.2" fill="none" stroke="#787878" stroke-linecap="round" stroke-linejoin="round" stroke-width=".7"/>
  <rect id="connector42pin" x="72" y="78.85" width="14.4" height=".7" fill="none" stroke-width="0" connectorname="8"/>
  <rect id="connector42terminal" x="86.4" y="78.85" width="0" height=".7" fill="none" stroke-width="0"/>
  <text x="70.6" y="79.8998" fill="#8c8c8c" font-family="Noto Sans" font-size="3.5" text-anchor="end">8</text>
  <line x1="71.65" x2="86.05" y1="86.4" y2="86.4" fill="none" stroke="#787878" stroke-linecap="round" stroke-linejoin="round" stroke-width=".7"/>
  <rect id="connector43pin" x="72" y="86.05" width="14.4" height=".7" fill="none" stroke-width="0" connectorname="9"/>
  <rect id="connector43terminal" x="86.4" y="86.05" width="0" height=".7" fill="none" stroke-width="0"/>
  <text x="70.6" y="87.0998" fill="#8c8c8c" font-family="Noto Sans" font-size="3.5" text-anchor="end">9</text>
  <line x1="71.65" x2="86.05" y1="93.6" y2="93.6" fill="none" stroke="#787878" stroke-linecap="round" stroke-linejoin="round" stroke-width=".7"/>
  <rect id="connector44pin" x="72" y="93.25" width="14.4" height=".7" fill="none" stroke-width="0" connectorname="10"/>
  <rect id="connector44terminal" x="86.4" y="93.25" width="0" height=".7" fill="none" stroke-width="0"/>
  <text x="70.6" y="94.2998" fill="#8c8c8c" font-family="Noto Sans" font-size="3.5" text-anchor="end">10</text>
  <line x1="71.65" x2="86.05" y1="100.8" y2="100.8" fill="none" stroke="#787878" stroke-linecap="round" stroke-linejoin="round" stroke-width=".7"/>
  <rect id="connector45pin" x="72" y="100.45" width="14.4" height=".7" fill="none" stroke-width="0" connectorname="11"/>
  <rect id="connector45terminal" x="86.4" y="100.45" width="0" height=".7" fill="none" stroke-width="0"/>
  <text x="70.6" y="101.5" fill="#8c8c8c" font-family="Noto Sans" font-size="3.5" text-anchor="end">11</text>
  <line x1="71.65" x2="86.05" y1="108" y2="108" fill="none" stroke="#787878" stroke-linecap="round" stroke-linejoin="round" stroke-width=".7"/>
  <rect id="connector46pin" x="72" y="107.65" width="14.4" height=".7" fill="none" stroke-width="0" connectorname="12"/>
  <rect id="connector46terminal" x="86.4" y="107.65" width="0" height=".7" fill="none" stroke-width="0"/>
  <text x="70.6" y="108.7" fill="#8c8c8c" font-family="Noto Sans" font-size="3.5" text-anchor="end">12</text>
  <line x1="43.2" x2="43.2" y1=".35" y2="14.4" fill="none" stroke="#787878" stroke-linecap="round" stroke-linejoin="round" stroke-width=".7"/>
  <rect id="connector20pin" x="42.85" width=".7" height="14.4" fill="none" stroke-width="0" connectorname="VDD"/>
  <rect id="connector20terminal" x="42.85" width=".7" height="0" fill="none" stroke-width="0"/>
  <g transform="translate(44.6 16)">
   <g transform="rotate(270)">
    <text fill="#8c8c8c" font-family="Noto Sans" font-size="3.5" text-anchor="end">VDD</text>
   </g>
  </g>
  <line x1="43.2" x2="43.2" y1="136.8" y2="150.85" fill="none" stroke="#787878" stroke-linecap="round" stroke-linejoin="round" stroke-width=".7"/>
  <rect id="connector19pin" x="42.85" y="136.8" width=".7" height="14.4" fill="none" stroke-width="0" connectorname="GND"/>
  <rect id="connector19terminal" x="42.85" y="151.2" width=".7" height="0" fill="none" stroke-width="0"/>
  <g transform="translate(44.6 135.2)">
   <g transform="rotate(270)">
    <text fill="#8c8c8c" font-family="Noto Sans" font-size="3.5">GND</text>
   </g>
  </g>
  <rect id="connector22pin" x="42.85" width=".7" height="14.4" fill="none" stroke-width="0" connectorname="VDD"/>
  <rect id="connector22terminal" x="42.85" width=".7" height="0" fill="none" stroke-width="0"/>
  <rect id="connector28pin" x="42.85" width=".7" height="14.4" fill="none" stroke-width="0" connectorname="VDD"/>
  <rect id="connector28terminal" x="42.85" width=".7" height="0" fill="none" stroke-width="0"/>
  <rect id="connector21pin" x="42.85" y="136.8" width=".7" height="14.4" fill="none" stroke-width="0" connectorname="GND"/>
  <rect id="connector21terminal" x="42.85" y="151.2" width=".7" height="0" fill="none" stroke-width="0"/>
  <rect id="connector27pin" x="42.85" y="136.8" width=".7" height="14.4" fill="none" stroke-width="0" connectorname="GND"/>
  <rect id="connector27terminal" x="42.85" y="151.2" width=".7" height="0" fill="none" stroke-width="0"/>
  <rect id="connector23pin" y="28.45" width="14.4" height=".7" fill="none" stroke-width="0" connectorName="SDA"/>
  <rect id="connector23terminal" y="28.45" width="0" height=".7" fill="none" stroke-width="0"/>
  <rect id="connector29pin" y="28.45" width="14.4" height=".7" fill="none" stroke-width="0" connectorName="SDA"/>
  <rect id="connector29terminal" y="28.45" width="0" height=".7" fill="none" stroke-width="0"/>
  <rect id="connector30pin" y="35.65" width="14.4" height=".7" fill="none" stroke-width="0" connectorName="SCL"/>
  <rect id="connector30terminal" y="35.65" width="0" height=".7" fill="none" stroke-width="0"/>
  <rect id="connector24pin" y="35.65" width="14.4" height=".7" fill="none" stroke-width="0" connectorName="SCL"/>
  <rect id="connector24terminal" y="35.65" width="0" height=".7" fill="none" stroke-width="0"/>
 </g>
</svg>
