<?xml version="1.0" encoding="UTF-8"?>
<!-- Created with Fritzing (http://www.fritzing.org/) -->
<svg width=".8in" height=".8in" baseProfile="tiny" version="1.2" viewBox="0 0 57.6 57.6" xmlns="http://www.w3.org/2000/svg">
 <desc>
  <referenceFile>Pixie_schematic.svg</referenceFile>
 </desc>
 <desc>Fritzing schematic generated by brd2svg</desc>
 <g id="schematic">
  <rect x="14.4" y="14.4" width="28.35" height="28.8" fill="none" stroke="#000" stroke-linecap="round" stroke-linejoin="round" stroke-width=".9"/>
  <text id="label" x="28.8" y="25.3" fill="#000000" font-family="Noto Sans" font-size="3.5" text-anchor="middle">Pixie</text>
  <line x1=".35" x2="14.4" y1="21.6" y2="21.6" fill="none" stroke="#787878" stroke-linecap="round" stroke-linejoin="round" stroke-width=".7"/>
  <rect id="connector14pin" y="21.25" width="14.4" height=".7" fill="none" stroke-width="0" connectorName="IN"/>
  <rect id="connector14terminal" x="-.0144" y="21.599" width=".0288" height=".0014" fill="none" stroke-width="0"/>
  <rect y="21.25" width="0" height=".7" fill="none" stroke-width="0"/>
  <text x="15.8" y="22.3" fill="#8c8c8c" font-family="Noto Sans" font-size="3.5">IN</text>
  <line x1="42.85" x2="57.25" y1="21.6" y2="21.6" fill="none" stroke="#787878" stroke-linecap="round" stroke-linejoin="round" stroke-width=".7"/>
  <rect id="connector17pin" x="43.2" y="21.25" width="14.4" height=".7" fill="none" stroke-width="0" connectorname="OUT"/>
  <rect id="connector17terminal" x="57.586" y="21.599" width=".0288" height=".0014" fill="none" stroke-width="0"/>
  <rect x="57.6" y="21.25" width="0" height=".7" fill="none" stroke-width="0"/>
  <text x="41.8" y="22.3" fill="#8c8c8c" font-family="Noto Sans" font-size="3.5" text-anchor="end">OUT</text>
  <line x1="28.8" x2="28.8" y1=".35" y2="14.4" fill="none" stroke="#787878" stroke-linecap="round" stroke-linejoin="round" stroke-width=".7"/>
  <rect id="connector13pin" x="28.45" width=".7" height="14.4" fill="none" stroke-width="0" connectorname="5V"/>
  <rect id="connector13terminal" x="28.799" y="-.0144" width=".0014" height=".0288" fill="none" stroke-width="0"/>
  <rect x="28.45" width=".7" height="0" fill="none" stroke-width="0"/>
  <g transform="translate(30.2 16)">
   <g transform="rotate(270)">
    <text fill="#8c8c8c" font-family="Noto Sans" font-size="3.5" text-anchor="end">5V</text>
   </g>
  </g>
  <line x1="28.8" x2="28.8" y1="43.2" y2="57.25" fill="none" stroke="#787878" stroke-linecap="round" stroke-linejoin="round" stroke-width=".7"/>
  <rect id="connector15pin" x="28.45" y="43.2" width=".7" height="14.4" fill="none" stroke-width="0" connectorname="GND"/>
  <rect id="connector15terminal" x="28.799" y="57.586" width=".0014" height=".0288" fill="none" stroke-width="0"/>
  <rect x="28.45" y="57.6" width=".7" height="0" fill="none" stroke-width="0"/>
  <g transform="translate(30.2 41.6)">
   <g transform="rotate(270)">
    <text fill="#8c8c8c" font-family="Noto Sans" font-size="3.5">GND</text>
   </g>
  </g>
  <rect id="connector16pin" x="28.45" width=".7" height="14.4" fill="none" stroke-width="0" connectorname="5V"/>
  <rect id="connector16terminal" x="28.799" y="-.0144" width=".0014" height=".0288" fill="none" stroke-width="0"/>
  <rect x="28.45" width=".7" height="0" fill="none" stroke-width="0"/>
  <rect id="connector18pin" x="28.45" y="43.2" width=".7" height="14.4" fill="none" stroke-width="0" connectorname="GND"/>
  <rect id="connector18terminal" x="28.799" y="57.586" width=".0014" height=".0288" fill="none" stroke-width="0"/>
  <rect x="28.45" y="57.6" width=".7" height="0" fill="none" stroke-width="0"/>
 </g>
</svg>
