<?xml version="1.0" encoding="UTF-8"?>
<!-- Created with Fritzing (http://www.fritzing.org/) -->
<svg width="1.5in" height="1.5in" baseProfile="tiny" version="1.2" viewBox="0 0 108 108" xmlns="http://www.w3.org/2000/svg">
 <desc>
  <referenceFile>Adafruit PCA9546 4-Channel I2C Multiplexer_schematic.svg</referenceFile>
 </desc>
 <desc>Fritzing schematic generated by brd2svg</desc>
 <g id="schematic">
  <rect x="14.4" y="14.4" width="78.75" height="79.2" fill="none" stroke="#000" stroke-linecap="round" stroke-linejoin="round" stroke-width=".9"/>
  <text id="label" x="54" y="39.9" fill="#000000" font-family="Noto Sans" font-size="3.5" text-anchor="middle"><tspan x="54" y="39.9">Adafruit</tspan> <tspan x="54" y="43.4">PCA9546</tspan> <tspan x="54" y="46.9">4-Channel</tspan> <tspan x="54" y="50.4">I2C</tspan> <tspan x="54" y="53.9">Multiplexer</tspan></text>
  <line x1=".35" x2="14.4" y1="28.8" y2="28.8" fill="none" stroke="#787878" stroke-linecap="round" stroke-linejoin="round" stroke-width=".7"/>
  <rect id="connector18pin" y="28.45" width="14.4" height=".7" fill="none" stroke-width="0" connectorName="3SDA"/>
  <rect id="connector18terminal" y="28.45" width="0" height=".7" fill="none" stroke-width="0"/>
  <text x="15.8" y="29.5" fill="#8c8c8c" font-family="Noto Sans" font-size="3.5">3SDA</text>
  <line x1=".35" x2="14.4" y1="36" y2="36" fill="none" stroke="#787878" stroke-linecap="round" stroke-linejoin="round" stroke-width=".7"/>
  <rect id="connector17pin" y="35.65" width="14.4" height=".7" fill="none" stroke-width="0" connectorName="3SCL"/>
  <rect id="connector17terminal" y="35.65" width="0" height=".7" fill="none" stroke-width="0"/>
  <text x="15.8" y="36.7" fill="#8c8c8c" font-family="Noto Sans" font-size="3.5">3SCL</text>
  <line x1=".35" x2="14.4" y1="43.2" y2="43.2" fill="none" stroke="#787878" stroke-linecap="round" stroke-linejoin="round" stroke-width=".7"/>
  <rect id="connector20pin" y="42.85" width="14.4" height=".7" fill="none" stroke-width="0" connectorName="2SDA"/>
  <rect id="connector20terminal" y="42.85" width="0" height=".7" fill="none" stroke-width="0"/>
  <text x="15.8" y="43.9" fill="#8c8c8c" font-family="Noto Sans" font-size="3.5">2SDA</text>
  <line x1=".35" x2="14.4" y1="50.4" y2="50.4" fill="none" stroke="#787878" stroke-linecap="round" stroke-linejoin="round" stroke-width=".7"/>
  <rect id="connector19pin" y="50.05" width="14.4" height=".7" fill="none" stroke-width="0" connectorName="2SCL"/>
  <rect id="connector19terminal" y="50.05" width="0" height=".7" fill="none" stroke-width="0"/>
  <text x="15.8" y="51.1" fill="#8c8c8c" font-family="Noto Sans" font-size="3.5">2SCL</text>
  <line x1=".35" x2="14.4" y1="57.6" y2="57.6" fill="none" stroke="#787878" stroke-linecap="round" stroke-linejoin="round" stroke-width=".7"/>
  <rect id="connector22pin" y="57.25" width="14.4" height=".7" fill="none" stroke-width="0" connectorName="1SDA"/>
  <rect id="connector22terminal" y="57.25" width="0" height=".7" fill="none" stroke-width="0"/>
  <text x="15.8" y="58.3" fill="#8c8c8c" font-family="Noto Sans" font-size="3.5">1SDA</text>
  <line x1=".35" x2="14.4" y1="64.8" y2="64.8" fill="none" stroke="#787878" stroke-linecap="round" stroke-linejoin="round" stroke-width=".7"/>
  <rect id="connector21pin" y="64.45" width="14.4" height=".7" fill="none" stroke-width="0" connectorName="1SCL"/>
  <rect id="connector21terminal" y="64.45" width="0" height=".7" fill="none" stroke-width="0"/>
  <text x="15.8" y="65.5" fill="#8c8c8c" font-family="Noto Sans" font-size="3.5">1SCL</text>
  <line x1=".35" x2="14.4" y1="72" y2="72" fill="none" stroke="#787878" stroke-linecap="round" stroke-linejoin="round" stroke-width=".7"/>
  <rect id="connector24pin" y="71.65" width="14.4" height=".7" fill="none" stroke-width="0" connectorName="0SDA"/>
  <rect id="connector24terminal" y="71.65" width="0" height=".7" fill="none" stroke-width="0"/>
  <text x="15.8" y="72.6998" fill="#8c8c8c" font-family="Noto Sans" font-size="3.5">0SDA</text>
  <line x1=".35" x2="14.4" y1="79.2" y2="79.2" fill="none" stroke="#787878" stroke-linecap="round" stroke-linejoin="round" stroke-width=".7"/>
  <rect id="connector23pin" y="78.85" width="14.4" height=".7" fill="none" stroke-width="0" connectorName="0SCL"/>
  <rect id="connector23terminal" y="78.85" width="0" height=".7" fill="none" stroke-width="0"/>
  <text x="15.8" y="79.8998" fill="#8c8c8c" font-family="Noto Sans" font-size="3.5">0SCL</text>
  <line x1="93.25" x2="107.65" y1="28.8" y2="28.8" fill="none" stroke="#787878" stroke-linecap="round" stroke-linejoin="round" stroke-width=".7"/>
  <rect id="connector11pin" x="93.6" y="28.45" width="14.4" height=".7" fill="none" stroke-width="0" connectorname="INPUTSDA"/>
  <rect id="connector11terminal" x="108" y="28.45" width="0" height=".7" fill="none" stroke-width="0"/>
  <text x="92.2003" y="29.5" fill="#8c8c8c" font-family="Noto Sans" font-size="3.5" text-anchor="end">INPUTSDA</text>
  <line x1="93.25" x2="107.65" y1="36" y2="36" fill="none" stroke="#787878" stroke-linecap="round" stroke-linejoin="round" stroke-width=".7"/>
  <rect id="connector12pin" x="93.6" y="35.65" width="14.4" height=".7" fill="none" stroke-width="0" connectorname="INPUTSCL"/>
  <rect id="connector12terminal" x="108" y="35.65" width="0" height=".7" fill="none" stroke-width="0"/>
  <text x="92.2003" y="36.7" fill="#8c8c8c" font-family="Noto Sans" font-size="3.5" text-anchor="end">INPUTSCL</text>
  <line x1="93.25" x2="107.65" y1="43.2" y2="43.2" fill="none" stroke="#787878" stroke-linecap="round" stroke-linejoin="round" stroke-width=".7"/>
  <rect id="connector13pin" x="93.6" y="42.85" width="14.4" height=".7" fill="none" stroke-width="0" connectorname="RESET"/>
  <rect id="connector13terminal" x="108" y="42.85" width="0" height=".7" fill="none" stroke-width="0"/>
  <text x="92.2003" y="43.9" fill="#8c8c8c" font-family="Noto Sans" font-size="3.5" text-anchor="end">RESET</text>
  <line x1="93.25" x2="107.65" y1="50.4" y2="50.4" fill="none" stroke="#787878" stroke-linecap="round" stroke-linejoin="round" stroke-width=".7"/>
  <rect id="connector14pin" x="93.6" y="50.05" width="14.4" height=".7" fill="none" stroke-width="0" connectorname="A0"/>
  <rect id="connector14terminal" x="108" y="50.05" width="0" height=".7" fill="none" stroke-width="0"/>
  <text x="92.2003" y="51.1" fill="#8c8c8c" font-family="Noto Sans" font-size="3.5" text-anchor="end">A0</text>
  <line x1="93.25" x2="107.65" y1="57.6" y2="57.6" fill="none" stroke="#787878" stroke-linecap="round" stroke-linejoin="round" stroke-width=".7"/>
  <rect id="connector15pin" x="93.6" y="57.25" width="14.4" height=".7" fill="none" stroke-width="0" connectorname="A1"/>
  <rect id="connector15terminal" x="108" y="57.25" width="0" height=".7" fill="none" stroke-width="0"/>
  <text x="92.2003" y="58.3" fill="#8c8c8c" font-family="Noto Sans" font-size="3.5" text-anchor="end">A1</text>
  <line x1="93.25" x2="107.65" y1="64.8" y2="64.8" fill="none" stroke="#787878" stroke-linecap="round" stroke-linejoin="round" stroke-width=".7"/>
  <rect id="connector16pin" x="93.6" y="64.45" width="14.4" height=".7" fill="none" stroke-width="0" connectorname="A2"/>
  <rect id="connector16terminal" x="108" y="64.45" width="0" height=".7" fill="none" stroke-width="0"/>
  <text x="92.2003" y="65.5" fill="#8c8c8c" font-family="Noto Sans" font-size="3.5" text-anchor="end">A2</text>
  <line x1="50.4" x2="50.4" y1=".35" y2="14.4" fill="none" stroke="#787878" stroke-linecap="round" stroke-linejoin="round" stroke-width=".7"/>
  <rect id="connector9pin" x="50.05" width=".7" height="14.4" fill="none" stroke-width="0" connectorname="VCC"/>
  <rect id="connector9terminal" x="50.05" width=".7" height="0" fill="none" stroke-width="0"/>
  <g transform="translate(51.8 16)">
   <g transform="rotate(270)">
    <text fill="#8c8c8c" font-family="Noto Sans" font-size="3.5" text-anchor="end">VCC</text>
   </g>
  </g>
  <line x1="50.4" x2="50.4" y1="93.6" y2="107.65" fill="none" stroke="#787878" stroke-linecap="round" stroke-linejoin="round" stroke-width=".7"/>
  <rect id="connector10pin" x="50.05" y="93.6" width=".7" height="14.4" fill="none" stroke-width="0" connectorname="GND"/>
  <rect id="connector10terminal" x="50.05" y="108" width=".7" height="0" fill="none" stroke-width="0"/>
  <g transform="translate(51.8 92)">
   <g transform="rotate(270)">
    <text fill="#8c8c8c" font-family="Noto Sans" font-size="3.5">GND</text>
   </g>
  </g>
 </g>
</svg>
