<?xml version="1.0" encoding="UTF-8"?>
<!-- Created with Fritzing (http://www.fritzing.org/) -->
<svg width="1.2in" height="3.2in" baseProfile="tiny" version="1.2" viewBox="0 0 86.4 230.4" xmlns="http://www.w3.org/2000/svg">
 <desc>
  <referenceFile>Servo Bonnet rev B_schematic.svg</referenceFile>
 </desc>
 <desc>Fritzing schematic generated by brd2svg</desc>
 <g id="schematic">
  <rect x="14.4" y="14.4" width="57.15" height="201.6" fill="none" stroke="#000" stroke-linecap="round" stroke-linejoin="round" stroke-width=".9"/>
  <text id="label" x="43.2" y="108.2" fill="#000000" font-family="Noto Sans" font-size="3.5" text-anchor="middle"><tspan x="43.2" y="108.2">Servo</tspan> <tspan x="43.2" y="111.7">Bonnet</tspan> <tspan x="43.2" y="115.2">rev</tspan> <tspan x="43.2" y="118.7">B</tspan></text>
  <line x1=".35" x2="14.4" y1="28.8" y2="28.8" fill="none" stroke="#787878" stroke-linecap="round" stroke-linejoin="round" stroke-width=".7"/>
  <rect id="connector60pin" y="28.45" width="14.4" height=".7" fill="none" stroke-width="0" connectorName="SERVO00"/>
  <rect id="connector60terminal" y="28.45" width="0" height=".7" fill="none" stroke-width="0"/>
  <text x="15.8" y="29.5" fill="#8c8c8c" font-family="Noto Sans" font-size="3.5">SERVO00</text>
  <line x1=".35" x2="14.4" y1="36" y2="36" fill="none" stroke="#787878" stroke-linecap="round" stroke-linejoin="round" stroke-width=".7"/>
  <rect id="connector57pin" y="35.65" width="14.4" height=".7" fill="none" stroke-width="0" connectorName="SERVO01"/>
  <rect id="connector57terminal" y="35.65" width="0" height=".7" fill="none" stroke-width="0"/>
  <text x="15.8" y="36.7" fill="#8c8c8c" font-family="Noto Sans" font-size="3.5">SERVO01</text>
  <line x1=".35" x2="14.4" y1="43.2" y2="43.2" fill="none" stroke="#787878" stroke-linecap="round" stroke-linejoin="round" stroke-width=".7"/>
  <rect id="connector54pin" y="42.85" width="14.4" height=".7" fill="none" stroke-width="0" connectorName="SERVO02"/>
  <rect id="connector54terminal" y="42.85" width="0" height=".7" fill="none" stroke-width="0"/>
  <text x="15.8" y="43.9" fill="#8c8c8c" font-family="Noto Sans" font-size="3.5">SERVO02</text>
  <line x1=".35" x2="14.4" y1="50.4" y2="50.4" fill="none" stroke="#787878" stroke-linecap="round" stroke-linejoin="round" stroke-width=".7"/>
  <rect id="connector51pin" y="50.05" width="14.4" height=".7" fill="none" stroke-width="0" connectorName="SERVO03"/>
  <rect id="connector51terminal" y="50.05" width="0" height=".7" fill="none" stroke-width="0"/>
  <text x="15.8" y="51.1" fill="#8c8c8c" font-family="Noto Sans" font-size="3.5">SERVO03</text>
  <line x1=".35" x2="14.4" y1="57.6" y2="57.6" fill="none" stroke="#787878" stroke-linecap="round" stroke-linejoin="round" stroke-width=".7"/>
  <rect id="connector48pin" y="57.25" width="14.4" height=".7" fill="none" stroke-width="0" connectorName="SERVO04"/>
  <rect id="connector48terminal" y="57.25" width="0" height=".7" fill="none" stroke-width="0"/>
  <text x="15.8" y="58.3" fill="#8c8c8c" font-family="Noto Sans" font-size="3.5">SERVO04</text>
  <line x1=".35" x2="14.4" y1="64.8" y2="64.8" fill="none" stroke="#787878" stroke-linecap="round" stroke-linejoin="round" stroke-width=".7"/>
  <rect id="connector45pin" y="64.45" width="14.4" height=".7" fill="none" stroke-width="0" connectorName="SERVO05"/>
  <rect id="connector45terminal" y="64.45" width="0" height=".7" fill="none" stroke-width="0"/>
  <text x="15.8" y="65.5" fill="#8c8c8c" font-family="Noto Sans" font-size="3.5">SERVO05</text>
  <line x1=".35" x2="14.4" y1="72" y2="72" fill="none" stroke="#787878" stroke-linecap="round" stroke-linejoin="round" stroke-width=".7"/>
  <rect id="connector42pin" y="71.65" width="14.4" height=".7" fill="none" stroke-width="0" connectorName="SERVO06"/>
  <rect id="connector42terminal" y="71.65" width="0" height=".7" fill="none" stroke-width="0"/>
  <text x="15.8" y="72.6998" fill="#8c8c8c" font-family="Noto Sans" font-size="3.5">SERVO06</text>
  <line x1=".35" x2="14.4" y1="79.2" y2="79.2" fill="none" stroke="#787878" stroke-linecap="round" stroke-linejoin="round" stroke-width=".7"/>
  <rect id="connector39pin" y="78.85" width="14.4" height=".7" fill="none" stroke-width="0" connectorName="SERVO07"/>
  <rect id="connector39terminal" y="78.85" width="0" height=".7" fill="none" stroke-width="0"/>
  <text x="15.8" y="79.8998" fill="#8c8c8c" font-family="Noto Sans" font-size="3.5">SERVO07</text>
  <line x1=".35" x2="14.4" y1="86.4" y2="86.4" fill="none" stroke="#787878" stroke-linecap="round" stroke-linejoin="round" stroke-width=".7"/>
  <rect id="connector87pin" y="86.05" width="14.4" height=".7" fill="none" stroke-width="0" connectorName="SERVO08"/>
  <rect id="connector87terminal" y="86.05" width="0" height=".7" fill="none" stroke-width="0"/>
  <text x="15.8" y="87.0998" fill="#8c8c8c" font-family="Noto Sans" font-size="3.5">SERVO08</text>
  <line x1=".35" x2="14.4" y1="93.6" y2="93.6" fill="none" stroke="#787878" stroke-linecap="round" stroke-linejoin="round" stroke-width=".7"/>
  <rect id="connector84pin" y="93.25" width="14.4" height=".7" fill="none" stroke-width="0" connectorName="SERVO09"/>
  <rect id="connector84terminal" y="93.25" width="0" height=".7" fill="none" stroke-width="0"/>
  <text x="15.8" y="94.2998" fill="#8c8c8c" font-family="Noto Sans" font-size="3.5">SERVO09</text>
  <line x1=".35" x2="14.4" y1="100.8" y2="100.8" fill="none" stroke="#787878" stroke-linecap="round" stroke-linejoin="round" stroke-width=".7"/>
  <rect id="connector81pin" y="100.45" width="14.4" height=".7" fill="none" stroke-width="0" connectorName="SERVO10"/>
  <rect id="connector81terminal" y="100.45" width="0" height=".7" fill="none" stroke-width="0"/>
  <text x="15.8" y="101.5" fill="#8c8c8c" font-family="Noto Sans" font-size="3.5">SERVO10</text>
  <line x1=".35" x2="14.4" y1="108" y2="108" fill="none" stroke="#787878" stroke-linecap="round" stroke-linejoin="round" stroke-width=".7"/>
  <rect id="connector78pin" y="107.65" width="14.4" height=".7" fill="none" stroke-width="0" connectorName="SERVO11"/>
  <rect id="connector78terminal" y="107.65" width="0" height=".7" fill="none" stroke-width="0"/>
  <text x="15.8" y="108.7" fill="#8c8c8c" font-family="Noto Sans" font-size="3.5">SERVO11</text>
  <line x1=".35" x2="14.4" y1="115.2" y2="115.2" fill="none" stroke="#787878" stroke-linecap="round" stroke-linejoin="round" stroke-width=".7"/>
  <rect id="connector75pin" y="114.85" width="14.4" height=".7" fill="none" stroke-width="0" connectorName="SERVO12"/>
  <rect id="connector75terminal" y="114.85" width="0" height=".7" fill="none" stroke-width="0"/>
  <text x="15.8" y="115.9" fill="#8c8c8c" font-family="Noto Sans" font-size="3.5">SERVO12</text>
  <line x1=".35" x2="14.4" y1="122.4" y2="122.4" fill="none" stroke="#787878" stroke-linecap="round" stroke-linejoin="round" stroke-width=".7"/>
  <rect id="connector72pin" y="122.05" width="14.4" height=".7" fill="none" stroke-width="0" connectorName="SERVO13"/>
  <rect id="connector72terminal" y="122.05" width="0" height=".7" fill="none" stroke-width="0"/>
  <text x="15.8" y="123.1" fill="#8c8c8c" font-family="Noto Sans" font-size="3.5">SERVO13</text>
  <line x1=".35" x2="14.4" y1="129.6" y2="129.6" fill="none" stroke="#787878" stroke-linecap="round" stroke-linejoin="round" stroke-width=".7"/>
  <rect id="connector69pin" y="129.25" width="14.4" height=".7" fill="none" stroke-width="0" connectorName="SERVO14"/>
  <rect id="connector69terminal" y="129.25" width="0" height=".7" fill="none" stroke-width="0"/>
  <text x="15.8" y="130.3" fill="#8c8c8c" font-family="Noto Sans" font-size="3.5">SERVO14</text>
  <line x1=".35" x2="14.4" y1="136.8" y2="136.8" fill="none" stroke="#787878" stroke-linecap="round" stroke-linejoin="round" stroke-width=".7"/>
  <rect id="connector66pin" y="136.45" width="14.4" height=".7" fill="none" stroke-width="0" connectorName="SERVO15"/>
  <rect id="connector66terminal" y="136.45" width="0" height=".7" fill="none" stroke-width="0"/>
  <text x="15.8" y="137.5" fill="#8c8c8c" font-family="Noto Sans" font-size="3.5">SERVO15</text>
  <line x1=".35" x2="14.4" y1="144" y2="144" fill="none" stroke="#787878" stroke-linecap="round" stroke-linejoin="round" stroke-width=".7"/>
  <rect id="connector11pin" y="143.65" width="14.4" height=".7" fill="none" stroke-width="0" connectorName="SDA"/>
  <rect id="connector11terminal" y="143.65" width="0" height=".7" fill="none" stroke-width="0"/>
  <text x="15.8" y="144.7" fill="#8c8c8c" font-family="Noto Sans" font-size="3.5">SDA</text>
  <line x1=".35" x2="14.4" y1="151.2" y2="151.2" fill="none" stroke="#787878" stroke-linecap="round" stroke-linejoin="round" stroke-width=".7"/>
  <rect id="connector12pin" y="150.85" width="14.4" height=".7" fill="none" stroke-width="0" connectorName="SCL"/>
  <rect id="connector12terminal" y="150.85" width="0" height=".7" fill="none" stroke-width="0"/>
  <text x="15.8" y="151.9" fill="#8c8c8c" font-family="Noto Sans" font-size="3.5">SCL</text>
  <line x1=".35" x2="14.4" y1="158.4" y2="158.4" fill="none" stroke="#787878" stroke-linecap="round" stroke-linejoin="round" stroke-width=".7"/>
  <rect id="connector13pin" y="158.05" width="14.4" height=".7" fill="none" stroke-width="0" connectorName="TXD"/>
  <rect id="connector13terminal" y="158.05" width="0" height=".7" fill="none" stroke-width="0"/>
  <text x="15.8" y="159.1" fill="#8c8c8c" font-family="Noto Sans" font-size="3.5">TXD</text>
  <line x1=".35" x2="14.4" y1="165.6" y2="165.6" fill="none" stroke="#787878" stroke-linecap="round" stroke-linejoin="round" stroke-width=".7"/>
  <rect id="connector14pin" y="165.25" width="14.4" height=".7" fill="none" stroke-width="0" connectorName="RXD"/>
  <rect id="connector14terminal" y="165.25" width="0" height=".7" fill="none" stroke-width="0"/>
  <text x="15.8" y="166.3" fill="#8c8c8c" font-family="Noto Sans" font-size="3.5">RXD</text>
  <line x1=".35" x2="14.4" y1="172.8" y2="172.8" fill="none" stroke="#787878" stroke-linecap="round" stroke-linejoin="round" stroke-width=".7"/>
  <rect id="connector23pin" y="172.45" width="14.4" height=".7" fill="none" stroke-width="0" connectorName="SPI_MOSI"/>
  <rect id="connector23terminal" y="172.45" width="0" height=".7" fill="none" stroke-width="0"/>
  <text x="15.8" y="173.5" fill="#8c8c8c" font-family="Noto Sans" font-size="3.5">SPI_MOSI</text>
  <line x1=".35" x2="14.4" y1="180" y2="180" fill="none" stroke="#787878" stroke-linecap="round" stroke-linejoin="round" stroke-width=".7"/>
  <rect id="connector24pin" y="179.65" width="14.4" height=".7" fill="none" stroke-width="0" connectorName="SPI_MISO"/>
  <rect id="connector24terminal" y="179.65" width="0" height=".7" fill="none" stroke-width="0"/>
  <text x="15.8" y="180.7" fill="#8c8c8c" font-family="Noto Sans" font-size="3.5">SPI_MISO</text>
  <line x1=".35" x2="14.4" y1="187.2" y2="187.2" fill="none" stroke="#787878" stroke-linecap="round" stroke-linejoin="round" stroke-width=".7"/>
  <rect id="connector25pin" y="186.85" width="14.4" height=".7" fill="none" stroke-width="0" connectorName="SPI_SCLK"/>
  <rect id="connector25terminal" y="186.85" width="0" height=".7" fill="none" stroke-width="0"/>
  <text x="15.8" y="187.9" fill="#8c8c8c" font-family="Noto Sans" font-size="3.5">SPI_SCLK</text>
  <line x1=".35" x2="14.4" y1="194.4" y2="194.4" fill="none" stroke="#787878" stroke-linecap="round" stroke-linejoin="round" stroke-width=".7"/>
  <rect id="connector26pin" y="194.05" width="14.4" height=".7" fill="none" stroke-width="0" connectorName="SPI_CE0"/>
  <rect id="connector26terminal" y="194.05" width="0" height=".7" fill="none" stroke-width="0"/>
  <text x="15.8" y="195.1" fill="#8c8c8c" font-family="Noto Sans" font-size="3.5">SPI_CE0</text>
  <line x1=".35" x2="14.4" y1="201.6" y2="201.6" fill="none" stroke="#787878" stroke-linecap="round" stroke-linejoin="round" stroke-width=".7"/>
  <rect id="connector27pin" y="201.25" width="14.4" height=".7" fill="none" stroke-width="0" connectorName="SPI_CE1"/>
  <rect id="connector27terminal" y="201.25" width="0" height=".7" fill="none" stroke-width="0"/>
  <text x="15.8" y="202.3" fill="#8c8c8c" font-family="Noto Sans" font-size="3.5">SPI_CE1</text>
  <line x1="71.65" x2="86.05" y1="28.8" y2="28.8" fill="none" stroke="#787878" stroke-linecap="round" stroke-linejoin="round" stroke-width=".7"/>
  <rect id="connector15pin" x="72" y="28.45" width="14.4" height=".7" fill="none" stroke-width="0" connectorname="GPIO4"/>
  <rect id="connector15terminal" x="86.4" y="28.45" width="0" height=".7" fill="none" stroke-width="0"/>
  <text x="70.6" y="29.5" fill="#8c8c8c" font-family="Noto Sans" font-size="3.5" text-anchor="end">GPIO4</text>
  <line x1="71.65" x2="86.05" y1="36" y2="36" fill="none" stroke="#787878" stroke-linecap="round" stroke-linejoin="round" stroke-width=".7"/>
  <rect id="connector28pin" x="72" y="35.65" width="14.4" height=".7" fill="none" stroke-width="0" connectorname="GPIO5"/>
  <rect id="connector28terminal" x="86.4" y="35.65" width="0" height=".7" fill="none" stroke-width="0"/>
  <text x="70.6" y="36.7" fill="#8c8c8c" font-family="Noto Sans" font-size="3.5" text-anchor="end">GPIO5</text>
  <line x1="71.65" x2="86.05" y1="43.2" y2="43.2" fill="none" stroke="#787878" stroke-linecap="round" stroke-linejoin="round" stroke-width=".7"/>
  <rect id="connector29pin" x="72" y="42.85" width="14.4" height=".7" fill="none" stroke-width="0" connectorname="GPIO6"/>
  <rect id="connector29terminal" x="86.4" y="42.85" width="0" height=".7" fill="none" stroke-width="0"/>
  <text x="70.6" y="43.9" fill="#8c8c8c" font-family="Noto Sans" font-size="3.5" text-anchor="end">GPIO6</text>
  <line x1="71.65" x2="86.05" y1="50.4" y2="50.4" fill="none" stroke="#787878" stroke-linecap="round" stroke-linejoin="round" stroke-width=".7"/>
  <rect id="connector30pin" x="72" y="50.05" width="14.4" height=".7" fill="none" stroke-width="0" connectorname="GPIO12"/>
  <rect id="connector30terminal" x="86.4" y="50.05" width="0" height=".7" fill="none" stroke-width="0"/>
  <text x="70.6" y="51.1" fill="#8c8c8c" font-family="Noto Sans" font-size="3.5" text-anchor="end">GPIO12</text>
  <line x1="71.65" x2="86.05" y1="57.6" y2="57.6" fill="none" stroke="#787878" stroke-linecap="round" stroke-linejoin="round" stroke-width=".7"/>
  <rect id="connector31pin" x="72" y="57.25" width="14.4" height=".7" fill="none" stroke-width="0" connectorname="GPIO13"/>
  <rect id="connector31terminal" x="86.4" y="57.25" width="0" height=".7" fill="none" stroke-width="0"/>
  <text x="70.6" y="58.3" fill="#8c8c8c" font-family="Noto Sans" font-size="3.5" text-anchor="end">GPIO13</text>
  <line x1="71.65" x2="86.05" y1="64.8" y2="64.8" fill="none" stroke="#787878" stroke-linecap="round" stroke-linejoin="round" stroke-width=".7"/>
  <rect id="connector32pin" x="72" y="64.45" width="14.4" height=".7" fill="none" stroke-width="0" connectorname="GPIO16"/>
  <rect id="connector32terminal" x="86.4" y="64.45" width="0" height=".7" fill="none" stroke-width="0"/>
  <text x="70.6" y="65.5" fill="#8c8c8c" font-family="Noto Sans" font-size="3.5" text-anchor="end">GPIO16</text>
  <line x1="71.65" x2="86.05" y1="72" y2="72" fill="none" stroke="#787878" stroke-linecap="round" stroke-linejoin="round" stroke-width=".7"/>
  <rect id="connector16pin" x="72" y="71.65" width="14.4" height=".7" fill="none" stroke-width="0" connectorname="GPIO17"/>
  <rect id="connector16terminal" x="86.4" y="71.65" width="0" height=".7" fill="none" stroke-width="0"/>
  <text x="70.6" y="72.6998" fill="#8c8c8c" font-family="Noto Sans" font-size="3.5" text-anchor="end">GPIO17</text>
  <line x1="71.65" x2="86.05" y1="79.2" y2="79.2" fill="none" stroke="#787878" stroke-linecap="round" stroke-linejoin="round" stroke-width=".7"/>
  <rect id="connector17pin" x="72" y="78.85" width="14.4" height=".7" fill="none" stroke-width="0" connectorname="GPIO18"/>
  <rect id="connector17terminal" x="86.4" y="78.85" width="0" height=".7" fill="none" stroke-width="0"/>
  <text x="70.6" y="79.8998" fill="#8c8c8c" font-family="Noto Sans" font-size="3.5" text-anchor="end">GPIO18</text>
  <line x1="71.65" x2="86.05" y1="86.4" y2="86.4" fill="none" stroke="#787878" stroke-linecap="round" stroke-linejoin="round" stroke-width=".7"/>
  <rect id="connector33pin" x="72" y="86.05" width="14.4" height=".7" fill="none" stroke-width="0" connectorname="GPIO19"/>
  <rect id="connector33terminal" x="86.4" y="86.05" width="0" height=".7" fill="none" stroke-width="0"/>
  <text x="70.6" y="87.0998" fill="#8c8c8c" font-family="Noto Sans" font-size="3.5" text-anchor="end">GPIO19</text>
  <line x1="71.65" x2="86.05" y1="93.6" y2="93.6" fill="none" stroke="#787878" stroke-linecap="round" stroke-linejoin="round" stroke-width=".7"/>
  <rect id="connector34pin" x="72" y="93.25" width="14.4" height=".7" fill="none" stroke-width="0" connectorname="GPIO20"/>
  <rect id="connector34terminal" x="86.4" y="93.25" width="0" height=".7" fill="none" stroke-width="0"/>
  <text x="70.6" y="94.2998" fill="#8c8c8c" font-family="Noto Sans" font-size="3.5" text-anchor="end">GPIO20</text>
  <line x1="71.65" x2="86.05" y1="100.8" y2="100.8" fill="none" stroke="#787878" stroke-linecap="round" stroke-linejoin="round" stroke-width=".7"/>
  <rect id="connector35pin" x="72" y="100.45" width="14.4" height=".7" fill="none" stroke-width="0" connectorname="GPIO21"/>
  <rect id="connector35terminal" x="86.4" y="100.45" width="0" height=".7" fill="none" stroke-width="0"/>
  <text x="70.6" y="101.5" fill="#8c8c8c" font-family="Noto Sans" font-size="3.5" text-anchor="end">GPIO21</text>
  <line x1="71.65" x2="86.05" y1="108" y2="108" fill="none" stroke="#787878" stroke-linecap="round" stroke-linejoin="round" stroke-width=".7"/>
  <rect id="connector19pin" x="72" y="107.65" width="14.4" height=".7" fill="none" stroke-width="0" connectorname="GPIO22"/>
  <rect id="connector19terminal" x="86.4" y="107.65" width="0" height=".7" fill="none" stroke-width="0"/>
  <text x="70.6" y="108.7" fill="#8c8c8c" font-family="Noto Sans" font-size="3.5" text-anchor="end">GPIO22</text>
  <line x1="71.65" x2="86.05" y1="115.2" y2="115.2" fill="none" stroke="#787878" stroke-linecap="round" stroke-linejoin="round" stroke-width=".7"/>
  <rect id="connector20pin" x="72" y="114.85" width="14.4" height=".7" fill="none" stroke-width="0" connectorname="GPIO23"/>
  <rect id="connector20terminal" x="86.4" y="114.85" width="0" height=".7" fill="none" stroke-width="0"/>
  <text x="70.6" y="115.9" fill="#8c8c8c" font-family="Noto Sans" font-size="3.5" text-anchor="end">GPIO23</text>
  <line x1="71.65" x2="86.05" y1="122.4" y2="122.4" fill="none" stroke="#787878" stroke-linecap="round" stroke-linejoin="round" stroke-width=".7"/>
  <rect id="connector21pin" x="72" y="122.05" width="14.4" height=".7" fill="none" stroke-width="0" connectorname="GPIO24"/>
  <rect id="connector21terminal" x="86.4" y="122.05" width="0" height=".7" fill="none" stroke-width="0"/>
  <text x="70.6" y="123.1" fill="#8c8c8c" font-family="Noto Sans" font-size="3.5" text-anchor="end">GPIO24</text>
  <line x1="71.65" x2="86.05" y1="129.6" y2="129.6" fill="none" stroke="#787878" stroke-linecap="round" stroke-linejoin="round" stroke-width=".7"/>
  <rect id="connector22pin" x="72" y="129.25" width="14.4" height=".7" fill="none" stroke-width="0" connectorname="GPIO25"/>
  <rect id="connector22terminal" x="86.4" y="129.25" width="0" height=".7" fill="none" stroke-width="0"/>
  <text x="70.6" y="130.3" fill="#8c8c8c" font-family="Noto Sans" font-size="3.5" text-anchor="end">GPIO25</text>
  <line x1="71.65" x2="86.05" y1="136.8" y2="136.8" fill="none" stroke="#787878" stroke-linecap="round" stroke-linejoin="round" stroke-width=".7"/>
  <rect id="connector181pin" x="72" y="136.45" width="14.4" height=".7" fill="none" stroke-width="0" connectorname="GPIO26"/>
  <rect id="connector181terminal" x="86.4" y="136.45" width="0" height=".7" fill="none" stroke-width="0"/>
  <text x="70.6" y="137.5" fill="#8c8c8c" font-family="Noto Sans" font-size="3.5" text-anchor="end">GPIO26</text>
  <line x1="71.65" x2="86.05" y1="144" y2="144" fill="none" stroke="#787878" stroke-linecap="round" stroke-linejoin="round" stroke-width=".7"/>
  <rect id="connector18pin" x="72" y="143.65" width="14.4" height=".7" fill="none" stroke-width="0" connectorname="GPIO27"/>
  <rect id="connector18terminal" x="86.4" y="143.65" width="0" height=".7" fill="none" stroke-width="0"/>
  <text x="70.6" y="144.7" fill="#8c8c8c" font-family="Noto Sans" font-size="3.5" text-anchor="end">GPIO27</text>
  <line x1="71.65" x2="86.05" y1="151.2" y2="151.2" fill="none" stroke="#787878" stroke-linecap="round" stroke-linejoin="round" stroke-width=".7"/>
  <rect id="connector5pin" x="72" y="150.85" width="14.4" height=".7" fill="none" stroke-width="0" connectorname="PWR"/>
  <rect id="connector5terminal" x="86.4" y="150.85" width="0" height=".7" fill="none" stroke-width="0"/>
  <text x="70.6" y="151.9" fill="#8c8c8c" font-family="Noto Sans" font-size="3.5" text-anchor="end">PWR</text>
  <line x1="71.65" x2="86.05" y1="158.4" y2="158.4" fill="none" stroke="#787878" stroke-linecap="round" stroke-linejoin="round" stroke-width=".7"/>
  <rect id="connector172pin" x="72" y="158.05" width="14.4" height=".7" fill="none" stroke-width="0" connectorname="EECLK"/>
  <rect id="connector172terminal" x="86.4" y="158.05" width="0" height=".7" fill="none" stroke-width="0"/>
  <text x="70.6" y="159.1" fill="#8c8c8c" font-family="Noto Sans" font-size="3.5" text-anchor="end">EECLK</text>
  <line x1="71.65" x2="86.05" y1="165.6" y2="165.6" fill="none" stroke="#787878" stroke-linecap="round" stroke-linejoin="round" stroke-width=".7"/>
  <rect id="connector171pin" x="72" y="165.25" width="14.4" height=".7" fill="none" stroke-width="0" connectorname="EEDATA"/>
  <rect id="connector171terminal" x="86.4" y="165.25" width="0" height=".7" fill="none" stroke-width="0"/>
  <text x="70.6" y="166.3" fill="#8c8c8c" font-family="Noto Sans" font-size="3.5" text-anchor="end">EEDATA</text>
  <line x1="28.8" x2="28.8" y1=".35" y2="14.4" fill="none" stroke="#787878" stroke-linecap="round" stroke-linejoin="round" stroke-width=".7"/>
  <rect id="connector63pin" x="28.45" width=".7" height="14.4" fill="none" stroke-width="0" connectorname="5.0V"/>
  <rect id="connector63terminal" x="28.45" width=".7" height="0" fill="none" stroke-width="0"/>
  <g transform="translate(30.2 16)">
   <g transform="rotate(270)">
    <text fill="#8c8c8c" font-family="Noto Sans" font-size="3.5" text-anchor="end">5.0V</text>
   </g>
  </g>
  <line x1="36" x2="36" y1=".35" y2="14.4" fill="none" stroke="#787878" stroke-linecap="round" stroke-linejoin="round" stroke-width=".7"/>
  <rect id="connector9pin" x="35.65" width=".7" height="14.4" fill="none" stroke-width="0" connectorname="+5V"/>
  <rect id="connector9terminal" x="35.65" width=".7" height="0" fill="none" stroke-width="0"/>
  <g transform="translate(37.4 16)">
   <g transform="rotate(270)">
    <text fill="#8c8c8c" font-family="Noto Sans" font-size="3.5" text-anchor="end">+5V</text>
   </g>
  </g>
  <line x1="43.2" x2="43.2" y1=".35" y2="14.4" fill="none" stroke="#787878" stroke-linecap="round" stroke-linejoin="round" stroke-width=".7"/>
  <rect id="connector64pin" x="42.85" width=".7" height="14.4" fill="none" stroke-width="0" connectorname="3.3V"/>
  <rect id="connector64terminal" x="42.85" width=".7" height="0" fill="none" stroke-width="0"/>
  <g transform="translate(44.6 16)">
   <g transform="rotate(270)">
    <text fill="#8c8c8c" font-family="Noto Sans" font-size="3.5" text-anchor="end">3.3V</text>
   </g>
  </g>
  <line x1="43.2" x2="43.2" y1="216" y2="230.05" fill="none" stroke="#787878" stroke-linecap="round" stroke-linejoin="round" stroke-width=".7"/>
  <rect id="connector6pin" x="42.85" y="216" width=".7" height="14.4" fill="none" stroke-width="0" connectorname="GND"/>
  <rect id="connector6terminal" x="42.85" y="230.4" width=".7" height="0" fill="none" stroke-width="0"/>
  <g transform="translate(44.6 214.4)">
   <g transform="rotate(270)">
    <text fill="#8c8c8c" font-family="Noto Sans" font-size="3.5">GND</text>
   </g>
  </g>
  <rect id="connector148pin" x="28.45" width=".7" height="14.4" fill="none" stroke-width="0" connectorname="5.0V"/>
  <rect id="connector148terminal" x="28.45" width=".7" height="0" fill="none" stroke-width="0"/>
  <rect id="connector146pin" x="28.45" width=".7" height="14.4" fill="none" stroke-width="0" connectorname="5.0V"/>
  <rect id="connector146terminal" x="28.45" width=".7" height="0" fill="none" stroke-width="0"/>
  <rect id="connector40pin" x="35.65" width=".7" height="14.4" fill="none" stroke-width="0" connectorname="+5V"/>
  <rect id="connector40terminal" x="35.65" width=".7" height="0" fill="none" stroke-width="0"/>
  <rect id="connector43pin" x="35.65" width=".7" height="14.4" fill="none" stroke-width="0" connectorname="+5V"/>
  <rect id="connector43terminal" x="35.65" width=".7" height="0" fill="none" stroke-width="0"/>
  <rect id="connector46pin" x="35.65" width=".7" height="14.4" fill="none" stroke-width="0" connectorname="+5V"/>
  <rect id="connector46terminal" x="35.65" width=".7" height="0" fill="none" stroke-width="0"/>
  <rect id="connector49pin" x="35.65" width=".7" height="14.4" fill="none" stroke-width="0" connectorname="+5V"/>
  <rect id="connector49terminal" x="35.65" width=".7" height="0" fill="none" stroke-width="0"/>
  <rect id="connector52pin" x="35.65" width=".7" height="14.4" fill="none" stroke-width="0" connectorname="+5V"/>
  <rect id="connector52terminal" x="35.65" width=".7" height="0" fill="none" stroke-width="0"/>
  <rect id="connector55pin" x="35.65" width=".7" height="14.4" fill="none" stroke-width="0" connectorname="+5V"/>
  <rect id="connector55terminal" x="35.65" width=".7" height="0" fill="none" stroke-width="0"/>
  <rect id="connector58pin" x="35.65" width=".7" height="14.4" fill="none" stroke-width="0" connectorname="+5V"/>
  <rect id="connector58terminal" x="35.65" width=".7" height="0" fill="none" stroke-width="0"/>
  <rect id="connector61pin" x="35.65" width=".7" height="14.4" fill="none" stroke-width="0" connectorname="+5V"/>
  <rect id="connector61terminal" x="35.65" width=".7" height="0" fill="none" stroke-width="0"/>
  <rect id="connector67pin" x="35.65" width=".7" height="14.4" fill="none" stroke-width="0" connectorname="+5V"/>
  <rect id="connector67terminal" x="35.65" width=".7" height="0" fill="none" stroke-width="0"/>
  <rect id="connector70pin" x="35.65" width=".7" height="14.4" fill="none" stroke-width="0" connectorname="+5V"/>
  <rect id="connector70terminal" x="35.65" width=".7" height="0" fill="none" stroke-width="0"/>
  <rect id="connector73pin" x="35.65" width=".7" height="14.4" fill="none" stroke-width="0" connectorname="+5V"/>
  <rect id="connector73terminal" x="35.65" width=".7" height="0" fill="none" stroke-width="0"/>
  <rect id="connector76pin" x="35.65" width=".7" height="14.4" fill="none" stroke-width="0" connectorname="+5V"/>
  <rect id="connector76terminal" x="35.65" width=".7" height="0" fill="none" stroke-width="0"/>
  <rect id="connector79pin" x="35.65" width=".7" height="14.4" fill="none" stroke-width="0" connectorname="+5V"/>
  <rect id="connector79terminal" x="35.65" width=".7" height="0" fill="none" stroke-width="0"/>
  <rect id="connector82pin" x="35.65" width=".7" height="14.4" fill="none" stroke-width="0" connectorname="+5V"/>
  <rect id="connector82terminal" x="35.65" width=".7" height="0" fill="none" stroke-width="0"/>
  <rect id="connector85pin" x="35.65" width=".7" height="14.4" fill="none" stroke-width="0" connectorname="+5V"/>
  <rect id="connector85terminal" x="35.65" width=".7" height="0" fill="none" stroke-width="0"/>
  <rect id="connector88pin" x="35.65" width=".7" height="14.4" fill="none" stroke-width="0" connectorname="+5V"/>
  <rect id="connector88terminal" x="35.65" width=".7" height="0" fill="none" stroke-width="0"/>
  <rect id="connector145pin" x="42.85" width=".7" height="14.4" fill="none" stroke-width="0" connectorname="3.3V"/>
  <rect id="connector145terminal" x="42.85" width=".7" height="0" fill="none" stroke-width="0"/>
  <rect id="connector161pin" x="42.85" width=".7" height="14.4" fill="none" stroke-width="0" connectorname="3.3V"/>
  <rect id="connector161terminal" x="42.85" width=".7" height="0" fill="none" stroke-width="0"/>
  <rect id="connector10pin" x="42.85" y="216" width=".7" height="14.4" fill="none" stroke-width="0" connectorname="GND"/>
  <rect id="connector10terminal" x="42.85" y="230.4" width=".7" height="0" fill="none" stroke-width="0"/>
  <rect id="connector41pin" x="42.85" y="216" width=".7" height="14.4" fill="none" stroke-width="0" connectorname="GND"/>
  <rect id="connector41terminal" x="42.85" y="230.4" width=".7" height="0" fill="none" stroke-width="0"/>
  <rect id="connector44pin" x="42.85" y="216" width=".7" height="14.4" fill="none" stroke-width="0" connectorname="GND"/>
  <rect id="connector44terminal" x="42.85" y="230.4" width=".7" height="0" fill="none" stroke-width="0"/>
  <rect id="connector47pin" x="42.85" y="216" width=".7" height="14.4" fill="none" stroke-width="0" connectorname="GND"/>
  <rect id="connector47terminal" x="42.85" y="230.4" width=".7" height="0" fill="none" stroke-width="0"/>
  <rect id="connector50pin" x="42.85" y="216" width=".7" height="14.4" fill="none" stroke-width="0" connectorname="GND"/>
  <rect id="connector50terminal" x="42.85" y="230.4" width=".7" height="0" fill="none" stroke-width="0"/>
  <rect id="connector53pin" x="42.85" y="216" width=".7" height="14.4" fill="none" stroke-width="0" connectorname="GND"/>
  <rect id="connector53terminal" x="42.85" y="230.4" width=".7" height="0" fill="none" stroke-width="0"/>
  <rect id="connector56pin" x="42.85" y="216" width=".7" height="14.4" fill="none" stroke-width="0" connectorname="GND"/>
  <rect id="connector56terminal" x="42.85" y="230.4" width=".7" height="0" fill="none" stroke-width="0"/>
  <rect id="connector59pin" x="42.85" y="216" width=".7" height="14.4" fill="none" stroke-width="0" connectorname="GND"/>
  <rect id="connector59terminal" x="42.85" y="230.4" width=".7" height="0" fill="none" stroke-width="0"/>
  <rect id="connector62pin" x="42.85" y="216" width=".7" height="14.4" fill="none" stroke-width="0" connectorname="GND"/>
  <rect id="connector62terminal" x="42.85" y="230.4" width=".7" height="0" fill="none" stroke-width="0"/>
  <rect id="connector65pin" x="42.85" y="216" width=".7" height="14.4" fill="none" stroke-width="0" connectorname="GND"/>
  <rect id="connector65terminal" x="42.85" y="230.4" width=".7" height="0" fill="none" stroke-width="0"/>
  <rect id="connector68pin" x="42.85" y="216" width=".7" height="14.4" fill="none" stroke-width="0" connectorname="GND"/>
  <rect id="connector68terminal" x="42.85" y="230.4" width=".7" height="0" fill="none" stroke-width="0"/>
  <rect id="connector71pin" x="42.85" y="216" width=".7" height="14.4" fill="none" stroke-width="0" connectorname="GND"/>
  <rect id="connector71terminal" x="42.85" y="230.4" width=".7" height="0" fill="none" stroke-width="0"/>
  <rect id="connector74pin" x="42.85" y="216" width=".7" height="14.4" fill="none" stroke-width="0" connectorname="GND"/>
  <rect id="connector74terminal" x="42.85" y="230.4" width=".7" height="0" fill="none" stroke-width="0"/>
  <rect id="connector77pin" x="42.85" y="216" width=".7" height="14.4" fill="none" stroke-width="0" connectorname="GND"/>
  <rect id="connector77terminal" x="42.85" y="230.4" width=".7" height="0" fill="none" stroke-width="0"/>
  <rect id="connector80pin" x="42.85" y="216" width=".7" height="14.4" fill="none" stroke-width="0" connectorname="GND"/>
  <rect id="connector80terminal" x="42.85" y="230.4" width=".7" height="0" fill="none" stroke-width="0"/>
  <rect id="connector83pin" x="42.85" y="216" width=".7" height="14.4" fill="none" stroke-width="0" connectorname="GND"/>
  <rect id="connector83terminal" x="42.85" y="230.4" width=".7" height="0" fill="none" stroke-width="0"/>
  <rect id="connector86pin" x="42.85" y="216" width=".7" height="14.4" fill="none" stroke-width="0" connectorname="GND"/>
  <rect id="connector86terminal" x="42.85" y="230.4" width=".7" height="0" fill="none" stroke-width="0"/>
  <rect id="connector89pin" x="42.85" y="216" width=".7" height="14.4" fill="none" stroke-width="0" connectorname="GND"/>
  <rect id="connector89terminal" x="42.85" y="230.4" width=".7" height="0" fill="none" stroke-width="0"/>
  <rect id="connector150pin" x="42.85" y="216" width=".7" height="14.4" fill="none" stroke-width="0" connectorname="GND"/>
  <rect id="connector150terminal" x="42.85" y="230.4" width=".7" height="0" fill="none" stroke-width="0"/>
  <rect id="connector153pin" x="42.85" y="216" width=".7" height="14.4" fill="none" stroke-width="0" connectorname="GND"/>
  <rect id="connector153terminal" x="42.85" y="230.4" width=".7" height="0" fill="none" stroke-width="0"/>
  <rect id="connector158pin" x="42.85" y="216" width=".7" height="14.4" fill="none" stroke-width="0" connectorname="GND"/>
  <rect id="connector158terminal" x="42.85" y="230.4" width=".7" height="0" fill="none" stroke-width="0"/>
  <rect id="connector164pin" x="42.85" y="216" width=".7" height="14.4" fill="none" stroke-width="0" connectorname="GND"/>
  <rect id="connector164terminal" x="42.85" y="230.4" width=".7" height="0" fill="none" stroke-width="0"/>
  <rect id="connector169pin" x="42.85" y="216" width=".7" height="14.4" fill="none" stroke-width="0" connectorname="GND"/>
  <rect id="connector169terminal" x="42.85" y="230.4" width=".7" height="0" fill="none" stroke-width="0"/>
  <rect id="connector174pin" x="42.85" y="216" width=".7" height="14.4" fill="none" stroke-width="0" connectorname="GND"/>
  <rect id="connector174terminal" x="42.85" y="230.4" width=".7" height="0" fill="none" stroke-width="0"/>
  <rect id="connector178pin" x="42.85" y="216" width=".7" height="14.4" fill="none" stroke-width="0" connectorname="GND"/>
  <rect id="connector178terminal" x="42.85" y="230.4" width=".7" height="0" fill="none" stroke-width="0"/>
  <rect id="connector183pin" x="42.85" y="216" width=".7" height="14.4" fill="none" stroke-width="0" connectorname="GND"/>
  <rect id="connector183terminal" x="42.85" y="230.4" width=".7" height="0" fill="none" stroke-width="0"/>
  <rect id="connector225pin" x="42.85" y="216" width=".7" height="14.4" fill="none" stroke-width="0" connectorname="GND"/>
  <rect id="connector225terminal" x="42.85" y="230.4" width=".7" height="0" fill="none" stroke-width="0"/>
  <rect id="connector226pin" x="42.85" y="216" width=".7" height="14.4" fill="none" stroke-width="0" connectorname="GND"/>
  <rect id="connector226terminal" x="42.85" y="230.4" width=".7" height="0" fill="none" stroke-width="0"/>
  <rect id="connector147pin" y="143.65" width="14.4" height=".7" fill="none" stroke-width="0" connectorName="SDA"/>
  <rect id="connector147terminal" y="143.65" width="0" height=".7" fill="none" stroke-width="0"/>
  <rect id="connector149pin" y="150.85" width="14.4" height=".7" fill="none" stroke-width="0" connectorName="SCL"/>
  <rect id="connector149terminal" y="150.85" width="0" height=".7" fill="none" stroke-width="0"/>
  <rect id="connector152pin" y="158.05" width="14.4" height=".7" fill="none" stroke-width="0" connectorName="TXD"/>
  <rect id="connector152terminal" y="158.05" width="0" height=".7" fill="none" stroke-width="0"/>
  <rect id="connector154pin" y="165.25" width="14.4" height=".7" fill="none" stroke-width="0" connectorName="RXD"/>
  <rect id="connector154terminal" y="165.25" width="0" height=".7" fill="none" stroke-width="0"/>
  <rect id="connector163pin" y="172.45" width="14.4" height=".7" fill="none" stroke-width="0" connectorName="SPI_MOSI"/>
  <rect id="connector163terminal" y="172.45" width="0" height=".7" fill="none" stroke-width="0"/>
  <rect id="connector165pin" y="179.65" width="14.4" height=".7" fill="none" stroke-width="0" connectorName="SPI_MISO"/>
  <rect id="connector165terminal" y="179.65" width="0" height=".7" fill="none" stroke-width="0"/>
  <rect id="connector167pin" y="186.85" width="14.4" height=".7" fill="none" stroke-width="0" connectorName="SPI_SCLK"/>
  <rect id="connector167terminal" y="186.85" width="0" height=".7" fill="none" stroke-width="0"/>
  <rect id="connector168pin" y="194.05" width="14.4" height=".7" fill="none" stroke-width="0" connectorName="SPI_CE0"/>
  <rect id="connector168terminal" y="194.05" width="0" height=".7" fill="none" stroke-width="0"/>
  <rect id="connector170pin" y="201.25" width="14.4" height=".7" fill="none" stroke-width="0" connectorName="SPI_CE1"/>
  <rect id="connector170terminal" y="201.25" width="0" height=".7" fill="none" stroke-width="0"/>
  <rect id="connector151pin" x="72" y="28.45" width="14.4" height=".7" fill="none" stroke-width="0" connectorname="GPIO4"/>
  <rect id="connector151terminal" x="86.4" y="28.45" width="0" height=".7" fill="none" stroke-width="0"/>
  <rect id="connector173pin" x="72" y="35.65" width="14.4" height=".7" fill="none" stroke-width="0" connectorname="GPIO5"/>
  <rect id="connector173terminal" x="86.4" y="35.65" width="0" height=".7" fill="none" stroke-width="0"/>
  <rect id="connector175pin" x="72" y="42.85" width="14.4" height=".7" fill="none" stroke-width="0" connectorname="GPIO6"/>
  <rect id="connector175terminal" x="86.4" y="42.85" width="0" height=".7" fill="none" stroke-width="0"/>
  <rect id="connector176pin" x="72" y="50.05" width="14.4" height=".7" fill="none" stroke-width="0" connectorname="GPIO12"/>
  <rect id="connector176terminal" x="86.4" y="50.05" width="0" height=".7" fill="none" stroke-width="0"/>
  <rect id="connector177pin" x="72" y="57.25" width="14.4" height=".7" fill="none" stroke-width="0" connectorname="GPIO13"/>
  <rect id="connector177terminal" x="86.4" y="57.25" width="0" height=".7" fill="none" stroke-width="0"/>
  <rect id="connector180pin" x="72" y="64.45" width="14.4" height=".7" fill="none" stroke-width="0" connectorname="GPIO16"/>
  <rect id="connector180terminal" x="86.4" y="64.45" width="0" height=".7" fill="none" stroke-width="0"/>
  <rect id="connector155pin" x="72" y="71.65" width="14.4" height=".7" fill="none" stroke-width="0" connectorname="GPIO17"/>
  <rect id="connector155terminal" x="86.4" y="71.65" width="0" height=".7" fill="none" stroke-width="0"/>
  <rect id="connector156pin" x="72" y="78.85" width="14.4" height=".7" fill="none" stroke-width="0" connectorname="GPIO18"/>
  <rect id="connector156terminal" x="86.4" y="78.85" width="0" height=".7" fill="none" stroke-width="0"/>
  <rect id="connector179pin" x="72" y="86.05" width="14.4" height=".7" fill="none" stroke-width="0" connectorname="GPIO19"/>
  <rect id="connector179terminal" x="86.4" y="86.05" width="0" height=".7" fill="none" stroke-width="0"/>
  <rect id="connector182pin" x="72" y="93.25" width="14.4" height=".7" fill="none" stroke-width="0" connectorname="GPIO20"/>
  <rect id="connector182terminal" x="86.4" y="93.25" width="0" height=".7" fill="none" stroke-width="0"/>
  <rect id="connector184pin" x="72" y="100.45" width="14.4" height=".7" fill="none" stroke-width="0" connectorname="GPIO21"/>
  <rect id="connector184terminal" x="86.4" y="100.45" width="0" height=".7" fill="none" stroke-width="0"/>
  <rect id="connector159pin" x="72" y="107.65" width="14.4" height=".7" fill="none" stroke-width="0" connectorname="GPIO22"/>
  <rect id="connector159terminal" x="86.4" y="107.65" width="0" height=".7" fill="none" stroke-width="0"/>
  <rect id="connector160pin" x="72" y="114.85" width="14.4" height=".7" fill="none" stroke-width="0" connectorname="GPIO23"/>
  <rect id="connector160terminal" x="86.4" y="114.85" width="0" height=".7" fill="none" stroke-width="0"/>
  <rect id="connector162pin" x="72" y="122.05" width="14.4" height=".7" fill="none" stroke-width="0" connectorname="GPIO24"/>
  <rect id="connector162terminal" x="86.4" y="122.05" width="0" height=".7" fill="none" stroke-width="0"/>
  <rect id="connector166pin" x="72" y="129.25" width="14.4" height=".7" fill="none" stroke-width="0" connectorname="GPIO25"/>
  <rect id="connector166terminal" x="86.4" y="129.25" width="0" height=".7" fill="none" stroke-width="0"/>
  <rect id="connector157pin" x="72" y="143.65" width="14.4" height=".7" fill="none" stroke-width="0" connectorname="GPIO27"/>
  <rect id="connector157terminal" x="86.4" y="143.65" width="0" height=".7" fill="none" stroke-width="0"/>
  <rect id="connector227pin" x="72" y="150.85" width="14.4" height=".7" fill="none" stroke-width="0" connectorname="PWR"/>
  <rect id="connector227terminal" x="86.4" y="150.85" width="0" height=".7" fill="none" stroke-width="0"/>
 </g>
</svg>
