<?xml version="1.0" encoding="UTF-8"?>
<!-- Created with Fritzing (http://www.fritzing.org/) -->
<svg width="1.4in" height="1.2in" baseProfile="tiny" version="1.2" viewBox="0 0 100.8 86.4" xmlns="http://www.w3.org/2000/svg">
 <desc>
  <referenceFile>Adafruit 2.13in eInk Breakout Rev D_schematic.svg</referenceFile>
 </desc>
 <desc>Fritzing schematic generated by brd2svg</desc>
 <g id="schematic">
  <rect x="14.4" y="14.4" width="71.55" height="57.6" fill="none" stroke="#000" stroke-linecap="round" stroke-linejoin="round" stroke-width=".9"/>
  <text id="label" x="50.4" y="32.7" fill="#000000" font-family="Noto Sans" font-size="3.5" text-anchor="middle"><tspan x="50.4" y="32.7">Adafruit</tspan> <tspan x="50.4" y="36.2">2.13in</tspan> <tspan x="50.4" y="39.7">eInk</tspan> <tspan x="50.4" y="43.2">Breakout</tspan> <tspan x="50.4" y="46.7">Rev</tspan> <tspan x="50.4" y="50.2">D</tspan></text>
  <line x1=".35" x2="14.4" y1="28.8" y2="28.8" fill="none" stroke="#787878" stroke-linecap="round" stroke-linejoin="round" stroke-width=".7"/>
  <rect id="connector8pin" y="28.45" width="14.4" height=".7" fill="none" stroke-width="0" connectorName="SCLK"/>
  <rect id="connector8terminal" x="-.0144" y="28.799" width=".0288" height=".0014" fill="none" stroke-width="0"/>
  <rect y="28.45" width="0" height=".7" fill="none" stroke-width="0"/>
  <text x="15.8" y="29.5" fill="#8c8c8c" font-family="Noto Sans" font-size="3.5">SCLK</text>
  <line x1=".35" x2="14.4" y1="36" y2="36" fill="none" stroke="#787878" stroke-linecap="round" stroke-linejoin="round" stroke-width=".7"/>
  <rect id="connector9pin" y="35.65" width="14.4" height=".7" fill="none" stroke-width="0" connectorName="MISO"/>
  <rect id="connector9terminal" x="-.0144" y="35.999" width=".0288" height=".0014" fill="none" stroke-width="0"/>
  <rect y="35.65" width="0" height=".7" fill="none" stroke-width="0"/>
  <text x="15.8" y="36.7" fill="#8c8c8c" font-family="Noto Sans" font-size="3.5">MISO</text>
  <line x1=".35" x2="14.4" y1="43.2" y2="43.2" fill="none" stroke="#787878" stroke-linecap="round" stroke-linejoin="round" stroke-width=".7"/>
  <rect id="connector10pin" y="42.85" width="14.4" height=".7" fill="none" stroke-width="0" connectorName="MOSI"/>
  <rect id="connector10terminal" x="-.0144" y="43.199" width=".0288" height=".0014" fill="none" stroke-width="0"/>
  <rect y="42.85" width="0" height=".7" fill="none" stroke-width="0"/>
  <text x="15.8" y="43.9" fill="#8c8c8c" font-family="Noto Sans" font-size="3.5">MOSI</text>
  <line x1=".35" x2="14.4" y1="50.4" y2="50.4" fill="none" stroke="#787878" stroke-linecap="round" stroke-linejoin="round" stroke-width=".7"/>
  <rect id="connector11pin" y="50.05" width="14.4" height=".7" fill="none" stroke-width="0" connectorName="DISPCS"/>
  <rect id="connector11terminal" x="-.0144" y="50.399" width=".0288" height=".0014" fill="none" stroke-width="0"/>
  <rect y="50.05" width="0" height=".7" fill="none" stroke-width="0"/>
  <text x="15.8" y="51.1" fill="#8c8c8c" font-family="Noto Sans" font-size="3.5">DISPCS</text>
  <line x1=".35" x2="14.4" y1="57.6" y2="57.6" fill="none" stroke="#787878" stroke-linecap="round" stroke-linejoin="round" stroke-width=".7"/>
  <rect id="connector12pin" y="57.25" width="14.4" height=".7" fill="none" stroke-width="0" connectorName="DC"/>
  <rect id="connector12terminal" x="-.0144" y="57.599" width=".0288" height=".0014" fill="none" stroke-width="0"/>
  <rect y="57.25" width="0" height=".7" fill="none" stroke-width="0"/>
  <text x="15.8" y="58.3" fill="#8c8c8c" font-family="Noto Sans" font-size="3.5">DC</text>
  <line x1="86.05" x2="100.45" y1="28.8" y2="28.8" fill="none" stroke="#787878" stroke-linecap="round" stroke-linejoin="round" stroke-width=".7"/>
  <rect id="connector13pin" x="86.4" y="28.45" width="14.4" height=".7" fill="none" stroke-width="0" connectorname="SRAMCS"/>
  <rect id="connector13terminal" x="100.79" y="28.799" width=".0288" height=".0014" fill="none" stroke-width="0"/>
  <rect x="100.8" y="28.45" width="0" height=".7" fill="none" stroke-width="0"/>
  <text x="85.0003" y="29.5" fill="#8c8c8c" font-family="Noto Sans" font-size="3.5" text-anchor="end">SRAMCS</text>
  <line x1="86.05" x2="100.45" y1="36" y2="36" fill="none" stroke="#787878" stroke-linecap="round" stroke-linejoin="round" stroke-width=".7"/>
  <rect id="connector14pin" x="86.4" y="35.65" width="14.4" height=".7" fill="none" stroke-width="0" connectorname="SDCS"/>
  <rect id="connector14terminal" x="100.79" y="35.999" width=".0288" height=".0014" fill="none" stroke-width="0"/>
  <rect x="100.8" y="35.65" width="0" height=".7" fill="none" stroke-width="0"/>
  <text x="85.0003" y="36.7" fill="#8c8c8c" font-family="Noto Sans" font-size="3.5" text-anchor="end">SDCS</text>
  <line x1="86.05" x2="100.45" y1="43.2" y2="43.2" fill="none" stroke="#787878" stroke-linecap="round" stroke-linejoin="round" stroke-width=".7"/>
  <rect id="connector15pin" x="86.4" y="42.85" width="14.4" height=".7" fill="none" stroke-width="0" connectorname="RESET"/>
  <rect id="connector15terminal" x="100.79" y="43.199" width=".0288" height=".0014" fill="none" stroke-width="0"/>
  <rect x="100.8" y="42.85" width="0" height=".7" fill="none" stroke-width="0"/>
  <text x="85.0003" y="43.9" fill="#8c8c8c" font-family="Noto Sans" font-size="3.5" text-anchor="end">RESET</text>
  <line x1="86.05" x2="100.45" y1="50.4" y2="50.4" fill="none" stroke="#787878" stroke-linecap="round" stroke-linejoin="round" stroke-width=".7"/>
  <rect id="connector16pin" x="86.4" y="50.05" width="14.4" height=".7" fill="none" stroke-width="0" connectorname="BUSY"/>
  <rect id="connector16terminal" x="100.79" y="50.399" width=".0288" height=".0014" fill="none" stroke-width="0"/>
  <rect x="100.8" y="50.05" width="0" height=".7" fill="none" stroke-width="0"/>
  <text x="85.0003" y="51.1" fill="#8c8c8c" font-family="Noto Sans" font-size="3.5" text-anchor="end">BUSY</text>
  <line x1="86.05" x2="100.45" y1="57.6" y2="57.6" fill="none" stroke="#787878" stroke-linecap="round" stroke-linejoin="round" stroke-width=".7"/>
  <rect id="connector17pin" x="86.4" y="57.25" width="14.4" height=".7" fill="none" stroke-width="0" connectorname="ENABLE"/>
  <rect id="connector17terminal" x="100.79" y="57.599" width=".0288" height=".0014" fill="none" stroke-width="0"/>
  <rect x="100.8" y="57.25" width="0" height=".7" fill="none" stroke-width="0"/>
  <text x="85.0003" y="58.3" fill="#8c8c8c" font-family="Noto Sans" font-size="3.5" text-anchor="end">ENABLE</text>
  <line x1="50.4" x2="50.4" y1=".35" y2="14.4" fill="none" stroke="#787878" stroke-linecap="round" stroke-linejoin="round" stroke-width=".7"/>
  <rect id="connector5pin" x="50.05" width=".7" height="14.4" fill="none" stroke-width="0" connectorname="VIN"/>
  <rect id="connector5terminal" x="50.399" y="-.0144" width=".0014" height=".0288" fill="none" stroke-width="0"/>
  <rect x="50.05" width=".7" height="0" fill="none" stroke-width="0"/>
  <g transform="translate(51.8 16)">
   <g transform="rotate(270)">
    <text fill="#8c8c8c" font-family="Noto Sans" font-size="3.5" text-anchor="end">VIN</text>
   </g>
  </g>
  <line x1="57.6" x2="57.6" y1=".35" y2="14.4" fill="none" stroke="#787878" stroke-linecap="round" stroke-linejoin="round" stroke-width=".7"/>
  <rect id="connector6pin" x="57.25" width=".7" height="14.4" fill="none" stroke-width="0" connectorname="3.3V"/>
  <rect id="connector6terminal" x="57.599" y="-.0144" width=".0014" height=".0288" fill="none" stroke-width="0"/>
  <rect x="57.25" width=".7" height="0" fill="none" stroke-width="0"/>
  <g transform="translate(59 16)">
   <g transform="rotate(270)">
    <text fill="#8c8c8c" font-family="Noto Sans" font-size="3.5" text-anchor="end">3.3V</text>
   </g>
  </g>
  <line x1="50.4" x2="50.4" y1="72" y2="86.05" fill="none" stroke="#787878" stroke-linecap="round" stroke-linejoin="round" stroke-width=".7"/>
  <rect id="connector7pin" x="50.05" y="72" width=".7" height="14.4" fill="none" stroke-width="0" connectorname="GND"/>
  <rect id="connector7terminal" x="50.399" y="86.386" width=".0014" height=".0288" fill="none" stroke-width="0"/>
  <rect x="50.05" y="86.4" width=".7" height="0" fill="none" stroke-width="0"/>
  <g transform="translate(51.8 70.4)">
   <g transform="rotate(270)">
    <text fill="#8c8c8c" font-family="Noto Sans" font-size="3.5">GND</text>
   </g>
  </g>
 </g>
</svg>
