<?xml version="1.0" encoding="UTF-8"?>
<!-- Created with Fritzing (http://www.fritzing.org/) -->
<svg width="1.2in" height="1.4in" baseProfile="tiny" version="1.2" viewBox="0 0 86.4 100.8" xmlns="http://www.w3.org/2000/svg">
 <desc>
  <referenceFile>Adafruit Audio BFF PCB_schematic.svg</referenceFile>
 </desc>
 <desc>Fritzing schematic generated by brd2svg</desc>
 <g id="schematic">
  <rect x="14.4" y="14.4" width="57.15" height="72" fill="none" stroke="#000" stroke-linecap="round" stroke-linejoin="round" stroke-width=".9"/>
  <text id="label" x="43.2" y="43.4" fill="#000000" font-family="Noto Sans" font-size="3.5" text-anchor="middle"><tspan x="43.2" y="43.4">Adafruit</tspan> <tspan x="43.2" y="46.9">Audio</tspan> <tspan x="43.2" y="50.4">BFF</tspan> <tspan x="43.2" y="53.9">PCB</tspan></text>
  <line x1=".35" x2="14.4" y1="28.8" y2="28.8" fill="none" stroke="#787878" stroke-linecap="round" stroke-linejoin="round" stroke-width=".7"/>
  <rect id="connector39pin" y="28.45" width="14.4" height=".7" fill="none" stroke-width="0" connectorName="MOSI"/>
  <rect id="connector39terminal" y="28.45" width="0" height=".7" fill="none" stroke-width="0"/>
  <text x="15.8" y="29.5" fill="#8c8c8c" font-family="Noto Sans" font-size="3.5">MOSI</text>
  <line x1=".35" x2="14.4" y1="36" y2="36" fill="none" stroke="#787878" stroke-linecap="round" stroke-linejoin="round" stroke-width=".7"/>
  <rect id="connector37pin" y="35.65" width="14.4" height=".7" fill="none" stroke-width="0" connectorName="MISO"/>
  <rect id="connector37terminal" y="35.65" width="0" height=".7" fill="none" stroke-width="0"/>
  <text x="15.8" y="36.7" fill="#8c8c8c" font-family="Noto Sans" font-size="3.5">MISO</text>
  <line x1=".35" x2="14.4" y1="43.2" y2="43.2" fill="none" stroke="#787878" stroke-linecap="round" stroke-linejoin="round" stroke-width=".7"/>
  <rect id="connector35pin" y="42.85" width="14.4" height=".7" fill="none" stroke-width="0" connectorName="SCK"/>
  <rect id="connector35terminal" y="42.85" width="0" height=".7" fill="none" stroke-width="0"/>
  <text x="15.8" y="43.9" fill="#8c8c8c" font-family="Noto Sans" font-size="3.5">SCK</text>
  <line x1=".35" x2="14.4" y1="50.4" y2="50.4" fill="none" stroke="#787878" stroke-linecap="round" stroke-linejoin="round" stroke-width=".7"/>
  <rect id="connector33pin" y="50.05" width="14.4" height=".7" fill="none" stroke-width="0" connectorName="RX"/>
  <rect id="connector33terminal" y="50.05" width="0" height=".7" fill="none" stroke-width="0"/>
  <text x="15.8" y="51.1" fill="#8c8c8c" font-family="Noto Sans" font-size="3.5">RX</text>
  <line x1=".35" x2="14.4" y1="57.6" y2="57.6" fill="none" stroke="#787878" stroke-linecap="round" stroke-linejoin="round" stroke-width=".7"/>
  <rect id="connector16pin" y="57.25" width="14.4" height=".7" fill="none" stroke-width="0" connectorName="VO+"/>
  <rect id="connector16terminal" y="57.25" width="0" height=".7" fill="none" stroke-width="0"/>
  <text x="15.8" y="58.3" fill="#8c8c8c" font-family="Noto Sans" font-size="3.5">VO+</text>
  <line x1=".35" x2="14.4" y1="64.8" y2="64.8" fill="none" stroke="#787878" stroke-linecap="round" stroke-linejoin="round" stroke-width=".7"/>
  <rect id="connector18pin" y="64.45" width="14.4" height=".7" fill="none" stroke-width="0" connectorName="VO-"/>
  <rect id="connector18terminal" y="64.45" width="0" height=".7" fill="none" stroke-width="0"/>
  <text x="15.8" y="65.5" fill="#8c8c8c" font-family="Noto Sans" font-size="3.5">VO-</text>
  <line x1="71.65" x2="86.05" y1="28.8" y2="28.8" fill="none" stroke="#787878" stroke-linecap="round" stroke-linejoin="round" stroke-width=".7"/>
  <rect id="connector19pin" x="72" y="28.45" width="14.4" height=".7" fill="none" stroke-width="0" connectorname="SD_CS"/>
  <rect id="connector19terminal" x="86.4" y="28.45" width="0" height=".7" fill="none" stroke-width="0"/>
  <text x="70.6" y="29.5" fill="#8c8c8c" font-family="Noto Sans" font-size="3.5" text-anchor="end">SD_CS</text>
  <line x1="71.65" x2="86.05" y1="36" y2="36" fill="none" stroke="#787878" stroke-linecap="round" stroke-linejoin="round" stroke-width=".7"/>
  <rect id="connector21pin" x="72" y="35.65" width="14.4" height=".7" fill="none" stroke-width="0" connectorname="DIN"/>
  <rect id="connector21terminal" x="86.4" y="35.65" width="0" height=".7" fill="none" stroke-width="0"/>
  <text x="70.6" y="36.7" fill="#8c8c8c" font-family="Noto Sans" font-size="3.5" text-anchor="end">DIN</text>
  <line x1="71.65" x2="86.05" y1="43.2" y2="43.2" fill="none" stroke="#787878" stroke-linecap="round" stroke-linejoin="round" stroke-width=".7"/>
  <rect id="connector23pin" x="72" y="42.85" width="14.4" height=".7" fill="none" stroke-width="0" connectorname="LRCLK"/>
  <rect id="connector23terminal" x="86.4" y="42.85" width="0" height=".7" fill="none" stroke-width="0"/>
  <text x="70.6" y="43.9" fill="#8c8c8c" font-family="Noto Sans" font-size="3.5" text-anchor="end">LRCLK</text>
  <line x1="71.65" x2="86.05" y1="50.4" y2="50.4" fill="none" stroke="#787878" stroke-linecap="round" stroke-linejoin="round" stroke-width=".7"/>
  <rect id="connector25pin" x="72" y="50.05" width="14.4" height=".7" fill="none" stroke-width="0" connectorname="BCLK"/>
  <rect id="connector25terminal" x="86.4" y="50.05" width="0" height=".7" fill="none" stroke-width="0"/>
  <text x="70.6" y="51.1" fill="#8c8c8c" font-family="Noto Sans" font-size="3.5" text-anchor="end">BCLK</text>
  <line x1="71.65" x2="86.05" y1="57.6" y2="57.6" fill="none" stroke="#787878" stroke-linecap="round" stroke-linejoin="round" stroke-width=".7"/>
  <rect id="connector27pin" x="72" y="57.25" width="14.4" height=".7" fill="none" stroke-width="0" connectorname="SDA"/>
  <rect id="connector27terminal" x="86.4" y="57.25" width="0" height=".7" fill="none" stroke-width="0"/>
  <text x="70.6" y="58.3" fill="#8c8c8c" font-family="Noto Sans" font-size="3.5" text-anchor="end">SDA</text>
  <line x1="71.65" x2="86.05" y1="64.8" y2="64.8" fill="none" stroke="#787878" stroke-linecap="round" stroke-linejoin="round" stroke-width=".7"/>
  <rect id="connector29pin" x="72" y="64.45" width="14.4" height=".7" fill="none" stroke-width="0" connectorname="SCL"/>
  <rect id="connector29terminal" x="86.4" y="64.45" width="0" height=".7" fill="none" stroke-width="0"/>
  <text x="70.6" y="65.5" fill="#8c8c8c" font-family="Noto Sans" font-size="3.5" text-anchor="end">SCL</text>
  <line x1="71.65" x2="86.05" y1="72" y2="72" fill="none" stroke="#787878" stroke-linecap="round" stroke-linejoin="round" stroke-width=".7"/>
  <rect id="connector31pin" x="72" y="71.65" width="14.4" height=".7" fill="none" stroke-width="0" connectorname="TX"/>
  <rect id="connector31terminal" x="86.4" y="71.65" width="0" height=".7" fill="none" stroke-width="0"/>
  <text x="70.6" y="72.6998" fill="#8c8c8c" font-family="Noto Sans" font-size="3.5" text-anchor="end">TX</text>
  <line x1="43.2" x2="43.2" y1=".35" y2="14.4" fill="none" stroke="#787878" stroke-linecap="round" stroke-linejoin="round" stroke-width=".7"/>
  <rect id="connector41pin" x="42.85" width=".7" height="14.4" fill="none" stroke-width="0" connectorname="3.3V"/>
  <rect id="connector41terminal" x="42.85" width=".7" height="0" fill="none" stroke-width="0"/>
  <g transform="translate(44.6 16)">
   <g transform="rotate(270)">
    <text fill="#8c8c8c" font-family="Noto Sans" font-size="3.5" text-anchor="end">3.3V</text>
   </g>
  </g>
  <line x1="50.4" x2="50.4" y1=".35" y2="14.4" fill="none" stroke="#787878" stroke-linecap="round" stroke-linejoin="round" stroke-width=".7"/>
  <rect id="connector45pin" x="50.05" width=".7" height="14.4" fill="none" stroke-width="0" connectorname="+5V"/>
  <rect id="connector45terminal" x="50.05" width=".7" height="0" fill="none" stroke-width="0"/>
  <g transform="translate(51.8 16)">
   <g transform="rotate(270)">
    <text fill="#8c8c8c" font-family="Noto Sans" font-size="3.5" text-anchor="end">+5V</text>
   </g>
  </g>
  <line x1="43.2" x2="43.2" y1="86.4" y2="100.45" fill="none" stroke="#787878" stroke-linecap="round" stroke-linejoin="round" stroke-width=".7"/>
  <rect id="connector43pin" x="42.85" y="86.4" width=".7" height="14.4" fill="none" stroke-width="0" connectorname="GND"/>
  <rect id="connector43terminal" x="42.85" y="100.8" width=".7" height="0" fill="none" stroke-width="0"/>
  <g transform="translate(44.6 84.8)">
   <g transform="rotate(270)">
    <text fill="#8c8c8c" font-family="Noto Sans" font-size="3.5">GND</text>
   </g>
  </g>
  <rect id="connector42pin" x="42.85" width=".7" height="14.4" fill="none" stroke-width="0" connectorname="3.3V"/>
  <rect id="connector42terminal" x="42.85" width=".7" height="0" fill="none" stroke-width="0"/>
  <rect id="connector46pin" x="50.05" width=".7" height="14.4" fill="none" stroke-width="0" connectorname="+5V"/>
  <rect id="connector46terminal" x="50.05" width=".7" height="0" fill="none" stroke-width="0"/>
  <rect id="connector44pin" x="42.85" y="86.4" width=".7" height="14.4" fill="none" stroke-width="0" connectorname="GND"/>
  <rect id="connector44terminal" x="42.85" y="100.8" width=".7" height="0" fill="none" stroke-width="0"/>
  <rect id="connector40pin" y="28.45" width="14.4" height=".7" fill="none" stroke-width="0" connectorName="MOSI"/>
  <rect id="connector40terminal" y="28.45" width="0" height=".7" fill="none" stroke-width="0"/>
  <rect id="connector38pin" y="35.65" width="14.4" height=".7" fill="none" stroke-width="0" connectorName="MISO"/>
  <rect id="connector38terminal" y="35.65" width="0" height=".7" fill="none" stroke-width="0"/>
  <rect id="connector36pin" y="42.85" width="14.4" height=".7" fill="none" stroke-width="0" connectorName="SCK"/>
  <rect id="connector36terminal" y="42.85" width="0" height=".7" fill="none" stroke-width="0"/>
  <rect id="connector34pin" y="50.05" width="14.4" height=".7" fill="none" stroke-width="0" connectorName="RX"/>
  <rect id="connector34terminal" y="50.05" width="0" height=".7" fill="none" stroke-width="0"/>
  <rect id="connector20pin" x="72" y="28.45" width="14.4" height=".7" fill="none" stroke-width="0" connectorname="SD_CS"/>
  <rect id="connector20terminal" x="43.186" y="29.149" width=".0288" height=".0014" fill="none" stroke-width="0"/>
  <rect x="86.4" y="28.45" width="0" height=".7" fill="none" stroke-width="0"/>
  <rect id="connector22pin" x="72" y="35.65" width="14.4" height=".7" fill="none" stroke-width="0" connectorname="DIN"/>
  <rect id="connector22terminal" x="86.4" y="35.65" width="0" height=".7" fill="none" stroke-width="0"/>
  <rect id="connector24pin" x="72" y="42.85" width="14.4" height=".7" fill="none" stroke-width="0" connectorname="LRCLK"/>
  <rect id="connector24terminal" x="86.4" y="42.85" width="0" height=".7" fill="none" stroke-width="0"/>
  <rect id="connector26pin" x="72" y="50.05" width="14.4" height=".7" fill="none" stroke-width="0" connectorname="BCLK"/>
  <rect id="connector26terminal" x="86.4" y="50.05" width="0" height=".7" fill="none" stroke-width="0"/>
  <rect id="connector28pin" x="72" y="57.25" width="14.4" height=".7" fill="none" stroke-width="0" connectorname="SDA"/>
  <rect id="connector28terminal" x="86.4" y="57.25" width="0" height=".7" fill="none" stroke-width="0"/>
  <rect id="connector30pin" x="72" y="64.45" width="14.4" height=".7" fill="none" stroke-width="0" connectorname="SCL"/>
  <rect id="connector30terminal" x="86.4" y="64.45" width="0" height=".7" fill="none" stroke-width="0"/>
  <rect id="connector32pin" x="72" y="71.65" width="14.4" height=".7" fill="none" stroke-width="0" connectorname="TX"/>
  <rect id="connector32terminal" x="86.4" y="71.65" width="0" height=".7" fill="none" stroke-width="0"/>
 </g>
</svg>
