<?xml version="1.0" encoding="UTF-8"?>
<!-- Created with Fritzing (http://www.fritzing.org/) -->
<svg width="1.1in" height="1in" baseProfile="tiny" version="1.2" viewBox="0 0 79.2 72" xmlns="http://www.w3.org/2000/svg">
 <desc>
  <referenceFile>Adafruit Si5351A Clock Generator_schematic.svg</referenceFile>
 </desc>
 <desc>Fritzing schematic generated by brd2svg</desc>
 <g id="schematic">
  <rect x="14.4" y="14.4" width="49.95" height="43.2" fill="none" stroke="#000" stroke-linecap="round" stroke-linejoin="round" stroke-width=".9"/>
  <text id="label" x="39.6" y="29" fill="#000000" font-family="Noto Sans" font-size="3.5" text-anchor="middle"><tspan x="39.6" y="29">Adafruit</tspan> <tspan x="39.6" y="32.5">Si5351A</tspan> <tspan x="39.6" y="36">Clock</tspan> <tspan x="39.6" y="39.5">Generator</tspan></text>
  <line x1=".35" x2="14.4" y1="28.8" y2="28.8" fill="none" stroke="#787878" stroke-linecap="round" stroke-linejoin="round" stroke-width=".7"/>
  <rect id="connector16pin" y="28.45" width="14.4" height=".7" fill="none" stroke-width="0" connectorName="CLK0"/>
  <rect id="connector16terminal" y="28.45" width="0" height=".7" fill="none" stroke-width="0"/>
  <text x="15.8" y="29.5" fill="#8c8c8c" font-family="Noto Sans" font-size="3.5">CLK0</text>
  <line x1=".35" x2="14.4" y1="36" y2="36" fill="none" stroke="#787878" stroke-linecap="round" stroke-linejoin="round" stroke-width=".7"/>
  <rect id="connector15pin" y="35.65" width="14.4" height=".7" fill="none" stroke-width="0" connectorName="CLK1"/>
  <rect id="connector15terminal" y="35.65" width="0" height=".7" fill="none" stroke-width="0"/>
  <text x="15.8" y="36.7" fill="#8c8c8c" font-family="Noto Sans" font-size="3.5">CLK1</text>
  <line x1=".35" x2="14.4" y1="43.2" y2="43.2" fill="none" stroke="#787878" stroke-linecap="round" stroke-linejoin="round" stroke-width=".7"/>
  <rect id="connector14pin" y="42.85" width="14.4" height=".7" fill="none" stroke-width="0" connectorName="CLK2"/>
  <rect id="connector14terminal" y="42.85" width="0" height=".7" fill="none" stroke-width="0"/>
  <text x="15.8" y="43.9" fill="#8c8c8c" font-family="Noto Sans" font-size="3.5">CLK2</text>
  <line x1="64.45" x2="78.85" y1="28.8" y2="28.8" fill="none" stroke="#787878" stroke-linecap="round" stroke-linejoin="round" stroke-width=".7"/>
  <rect id="connector12pin" x="64.8" y="28.45" width="14.4" height=".7" fill="none" stroke-width="0" connectorname="SDA"/>
  <rect id="connector12terminal" x="79.2" y="28.45" width="0" height=".7" fill="none" stroke-width="0"/>
  <text x="63.4" y="29.5" fill="#8c8c8c" font-family="Noto Sans" font-size="3.5" text-anchor="end">SDA</text>
  <line x1="64.45" x2="78.85" y1="36" y2="36" fill="none" stroke="#787878" stroke-linecap="round" stroke-linejoin="round" stroke-width=".7"/>
  <rect id="connector13pin" x="64.8" y="35.65" width="14.4" height=".7" fill="none" stroke-width="0" connectorname="SCL"/>
  <rect id="connector13terminal" x="79.2" y="35.65" width="0" height=".7" fill="none" stroke-width="0"/>
  <text x="63.4" y="36.7" fill="#8c8c8c" font-family="Noto Sans" font-size="3.5" text-anchor="end">SCL</text>
  <line x1="36" x2="36" y1=".35" y2="14.4" fill="none" stroke="#787878" stroke-linecap="round" stroke-linejoin="round" stroke-width=".7"/>
  <rect id="connector10pin" x="35.65" width=".7" height="14.4" fill="none" stroke-width="0" connectorname="VIN"/>
  <rect id="connector10terminal" x="35.65" width=".7" height="0" fill="none" stroke-width="0"/>
  <g transform="translate(37.4 16)">
   <g transform="rotate(270)">
    <text fill="#8c8c8c" font-family="Noto Sans" font-size="3.5" text-anchor="end">VIN</text>
   </g>
  </g>
  <line x1="36" x2="36" y1="57.6" y2="71.65" fill="none" stroke="#787878" stroke-linecap="round" stroke-linejoin="round" stroke-width=".7"/>
  <rect id="connector11pin" x="35.65" y="57.6" width=".7" height="14.4" fill="none" stroke-width="0" connectorname="GND"/>
  <rect id="connector11terminal" x="35.65" y="72" width=".7" height="0" fill="none" stroke-width="0"/>
  <g transform="translate(37.4 56)">
   <g transform="rotate(270)">
    <text fill="#8c8c8c" font-family="Noto Sans" font-size="3.5">GND</text>
   </g>
  </g>
  <rect id="connector48pin" x="35.65" y="57.6" width=".7" height="14.4" fill="none" stroke-width="0" connectorname="GND"/>
  <rect id="connector48terminal" x="35.65" y="72" width=".7" height="0" fill="none" stroke-width="0"/>
  <rect id="connector49pin" x="35.65" y="57.6" width=".7" height="14.4" fill="none" stroke-width="0" connectorname="GND"/>
  <rect id="connector49terminal" x="35.65" y="72" width=".7" height="0" fill="none" stroke-width="0"/>
  <rect id="connector51pin" x="35.65" y="57.6" width=".7" height="14.4" fill="none" stroke-width="0" connectorname="GND"/>
  <rect id="connector51terminal" x="35.65" y="72" width=".7" height="0" fill="none" stroke-width="0"/>
  <rect id="connector52pin" x="35.65" y="57.6" width=".7" height="14.4" fill="none" stroke-width="0" connectorname="GND"/>
  <rect id="connector52terminal" x="35.65" y="72" width=".7" height="0" fill="none" stroke-width="0"/>
  <rect id="connector54pin" x="35.65" y="57.6" width=".7" height="14.4" fill="none" stroke-width="0" connectorname="GND"/>
  <rect id="connector54terminal" x="35.65" y="72" width=".7" height="0" fill="none" stroke-width="0"/>
  <rect id="connector55pin" x="35.65" y="57.6" width=".7" height="14.4" fill="none" stroke-width="0" connectorname="GND"/>
  <rect id="connector55terminal" x="35.65" y="72" width=".7" height="0" fill="none" stroke-width="0"/>
  <rect id="connector56pin" y="42.85" width="14.4" height=".7" fill="none" stroke-width="0" connectorName="CLK2"/>
  <rect id="connector56terminal" y="42.85" width="0" height=".7" fill="none" stroke-width="0"/>
  <rect id="connector50pin" y="28.45" width="14.4" height=".7" fill="none" stroke-width="0" connectorName="CLK0"/>
  <rect id="connector50terminal" y="28.45" width="0" height=".7" fill="none" stroke-width="0"/>
  <rect id="connector53pin" y="35.65" width="14.4" height=".7" fill="none" stroke-width="0" connectorName="CLK1"/>
  <rect id="connector53terminal" y="35.65" width="0" height=".7" fill="none" stroke-width="0"/>
 </g>
</svg>
