<?xml version="1.0" encoding="UTF-8"?>
<!-- Created with Fritzing (http://www.fritzing.org/) -->
<svg width="1.3in" height="1in" baseProfile="tiny" version="1.2" viewBox="0 0 93.6 72" xmlns="http://www.w3.org/2000/svg">
 <desc>
  <referenceFile>Adafruit Pixel Trinkey_schematic.svg</referenceFile>
 </desc>
 <desc>Fritzing schematic generated by brd2svg</desc>
 <g id="schematic">
  <rect x="14.4" y="14.4" width="64.35" height="43.2" fill="none" stroke="#000" stroke-linecap="round" stroke-linejoin="round" stroke-width=".9"/>
  <text id="label" x="46.8" y="29" fill="#000000" font-family="Noto Sans" font-size="3.5" text-anchor="middle"><tspan x="46.8" y="29">Adafruit</tspan> <tspan x="46.8" y="32.5">Pixel</tspan> <tspan x="46.8" y="36">Trinkey</tspan></text>
  <line x1=".35" x2="14.4" y1="28.8" y2="28.8" fill="none" stroke="#787878" stroke-linecap="round" stroke-linejoin="round" stroke-width=".7"/>
  <rect id="connector62pin" y="28.45" width="14.4" height=".7" fill="none" stroke-width="0" connectorName="DAT_5V"/>
  <rect id="connector62terminal" y="28.45" width="0" height=".7" fill="none" stroke-width="0"/>
  <text x="15.8" y="29.5" fill="#8c8c8c" font-family="Noto Sans" font-size="3.5">DAT_5V</text>
  <line x1=".35" x2="14.4" y1="36" y2="36" fill="none" stroke="#787878" stroke-linecap="round" stroke-linejoin="round" stroke-width=".7"/>
  <rect id="connector61pin" y="35.65" width="14.4" height=".7" fill="none" stroke-width="0" connectorName="CLK_5V"/>
  <rect id="connector61terminal" y="35.65" width="0" height=".7" fill="none" stroke-width="0"/>
  <text x="15.8" y="36.7" fill="#8c8c8c" font-family="Noto Sans" font-size="3.5">CLK_5V</text>
  <line x1="78.85" x2="93.25" y1="28.8" y2="28.8" fill="none" stroke="#787878" stroke-linecap="round" stroke-linejoin="round" stroke-width=".7"/>
  <rect id="connector85pin" x="79.2" y="28.45" width="14.4" height=".7" fill="none" stroke-width="0" connectorname="N$1"/>
  <rect id="connector85terminal" x="46.786" y="29.149" width=".0288" height=".0014" fill="none" stroke-width="0"/>
  <rect x="93.6" y="28.45" width="0" height=".7" fill="none" stroke-width="0"/>
  <text x="77.8003" y="29.5" fill="#8c8c8c" font-family="Noto Sans" font-size="3.5" text-anchor="end">N$1</text>
  <line x1="43.2" x2="43.2" y1=".35" y2="14.4" fill="none" stroke="#787878" stroke-linecap="round" stroke-linejoin="round" stroke-width=".7"/>
  <rect id="connector60pin" x="42.85" width=".7" height="14.4" fill="none" stroke-width="0" connectorname="VBUS"/>
  <rect id="connector60terminal" x="42.85" width=".7" height="0" fill="none" stroke-width="0"/>
  <g transform="translate(44.6 16)">
   <g transform="rotate(270)">
    <text fill="#8c8c8c" font-family="Noto Sans" font-size="3.5" text-anchor="end">VBUS</text>
   </g>
  </g>
  <line x1="50.4" x2="50.4" y1=".35" y2="14.4" fill="none" stroke="#787878" stroke-linecap="round" stroke-linejoin="round" stroke-width=".7"/>
  <rect id="connector86pin" x="50.05" width=".7" height="14.4" fill="none" stroke-width="0" connectorname="3.3V"/>
  <rect id="connector86terminal" x="50.05" width=".7" height="0" fill="none" stroke-width="0"/>
  <g transform="translate(51.8 16)">
   <g transform="rotate(270)">
    <text fill="#8c8c8c" font-family="Noto Sans" font-size="3.5" text-anchor="end">3.3V</text>
   </g>
  </g>
  <line x1="43.2" x2="43.2" y1="57.6" y2="71.65" fill="none" stroke="#787878" stroke-linecap="round" stroke-linejoin="round" stroke-width=".7"/>
  <rect id="connector63pin" x="42.85" y="57.6" width=".7" height="14.4" fill="none" stroke-width="0" connectorname="GND"/>
  <rect id="connector63terminal" x="42.85" y="72" width=".7" height="0" fill="none" stroke-width="0"/>
  <g transform="translate(44.6 56)">
   <g transform="rotate(270)">
    <text fill="#8c8c8c" font-family="Noto Sans" font-size="3.5">GND</text>
   </g>
  </g>
  <rect id="connector87pin" x="42.85" y="57.6" width=".7" height="14.4" fill="none" stroke-width="0" connectorname="GND"/>
  <rect id="connector87terminal" x="42.85" y="72" width=".7" height="0" fill="none" stroke-width="0"/>
 </g>
</svg>
