<?xml version="1.0" encoding="UTF-8"?>
<!-- Created with Fritzing (http://www.fritzing.org/) -->
<svg width="1.2in" height="1.5in" baseProfile="tiny" version="1.2" viewBox="0 0 86.4 108" xmlns="http://www.w3.org/2000/svg">
 <desc>
  <referenceFile>Adafruit RGB LCD Shield Rev B_schematic.svg</referenceFile>
 </desc>
 <desc>Fritzing schematic generated by brd2svg</desc>
 <g id="schematic">
  <rect x="14.4" y="14.4" width="57.15" height="79.2" fill="none" stroke="#000" stroke-linecap="round" stroke-linejoin="round" stroke-width=".9"/>
  <text id="label" x="43.2" y="39.9" fill="#000000" font-family="Noto Sans" font-size="3.5" text-anchor="middle"><tspan x="43.2" y="39.9">Adafruit</tspan> <tspan x="43.2" y="43.4">RGB</tspan> <tspan x="43.2" y="46.9">LCD</tspan> <tspan x="43.2" y="50.4">Shield</tspan> <tspan x="43.2" y="53.9">Rev</tspan> <tspan x="43.2" y="57.4">B</tspan></text>
  <line x1=".35" x2="14.4" y1="28.8" y2="28.8" fill="none" stroke="#787878" stroke-linecap="round" stroke-linejoin="round" stroke-width=".7"/>
  <rect id="connector78pin" y="28.45" width="14.4" height=".7" fill="none" stroke-width="0" connectorName="3"/>
  <rect id="connector78terminal" y="28.45" width="0" height=".7" fill="none" stroke-width="0"/>
  <text x="15.8" y="29.5" fill="#8c8c8c" font-family="Noto Sans" font-size="3.5">3</text>
  <line x1=".35" x2="14.4" y1="36" y2="36" fill="none" stroke="#787878" stroke-linecap="round" stroke-linejoin="round" stroke-width=".7"/>
  <rect id="connector91pin" y="35.65" width="14.4" height=".7" fill="none" stroke-width="0" connectorName="16"/>
  <rect id="connector91terminal" y="35.65" width="0" height=".7" fill="none" stroke-width="0"/>
  <text x="15.8" y="36.7" fill="#8c8c8c" font-family="Noto Sans" font-size="3.5">16</text>
  <line x1=".35" x2="14.4" y1="43.2" y2="43.2" fill="none" stroke="#787878" stroke-linecap="round" stroke-linejoin="round" stroke-width=".7"/>
  <rect id="connector92pin" y="42.85" width="14.4" height=".7" fill="none" stroke-width="0" connectorName="17"/>
  <rect id="connector92terminal" y="42.85" width="0" height=".7" fill="none" stroke-width="0"/>
  <text x="15.8" y="43.9" fill="#8c8c8c" font-family="Noto Sans" font-size="3.5">17</text>
  <line x1=".35" x2="14.4" y1="50.4" y2="50.4" fill="none" stroke="#787878" stroke-linecap="round" stroke-linejoin="round" stroke-width=".7"/>
  <rect id="connector93pin" y="50.05" width="14.4" height=".7" fill="none" stroke-width="0" connectorName="18"/>
  <rect id="connector93terminal" y="50.05" width="0" height=".7" fill="none" stroke-width="0"/>
  <text x="15.8" y="51.1" fill="#8c8c8c" font-family="Noto Sans" font-size="3.5">18</text>
  <line x1=".35" x2="14.4" y1="57.6" y2="57.6" fill="none" stroke="#787878" stroke-linecap="round" stroke-linejoin="round" stroke-width=".7"/>
  <rect id="connector100pin" y="57.25" width="14.4" height=".7" fill="none" stroke-width="0" connectorName="A4"/>
  <rect id="connector100terminal" y="57.25" width="0" height=".7" fill="none" stroke-width="0"/>
  <text x="15.8" y="58.3" fill="#8c8c8c" font-family="Noto Sans" font-size="3.5">A4</text>
  <line x1=".35" x2="14.4" y1="64.8" y2="64.8" fill="none" stroke="#787878" stroke-linecap="round" stroke-linejoin="round" stroke-width=".7"/>
  <rect id="connector101pin" y="64.45" width="14.4" height=".7" fill="none" stroke-width="0" connectorName="A5"/>
  <rect id="connector101terminal" y="64.45" width="0" height=".7" fill="none" stroke-width="0"/>
  <text x="15.8" y="65.5" fill="#8c8c8c" font-family="Noto Sans" font-size="3.5">A5</text>
  <line x1=".35" x2="14.4" y1="72" y2="72" fill="none" stroke="#787878" stroke-linecap="round" stroke-linejoin="round" stroke-width=".7"/>
  <rect id="connector89pin" y="71.65" width="14.4" height=".7" fill="none" stroke-width="0" connectorName="GPB1"/>
  <rect id="connector89terminal" y="71.65" width="0" height=".7" fill="none" stroke-width="0"/>
  <text x="15.8" y="72.6998" fill="#8c8c8c" font-family="Noto Sans" font-size="3.5">GPB1</text>
  <line x1=".35" x2="14.4" y1="79.2" y2="79.2" fill="none" stroke="#787878" stroke-linecap="round" stroke-linejoin="round" stroke-width=".7"/>
  <rect id="connector88pin" y="78.85" width="14.4" height=".7" fill="none" stroke-width="0" connectorName="GPB2"/>
  <rect id="connector88terminal" y="78.85" width="0" height=".7" fill="none" stroke-width="0"/>
  <text x="15.8" y="79.8998" fill="#8c8c8c" font-family="Noto Sans" font-size="3.5">GPB2</text>
  <line x1="71.65" x2="86.05" y1="28.8" y2="28.8" fill="none" stroke="#787878" stroke-linecap="round" stroke-linejoin="round" stroke-width=".7"/>
  <rect id="connector122pin" x="72" y="28.45" width="14.4" height=".7" fill="none" stroke-width="0" connectorname="SDA"/>
  <rect id="connector122terminal" x="86.4" y="28.45" width="0" height=".7" fill="none" stroke-width="0"/>
  <text x="70.6" y="29.5" fill="#8c8c8c" font-family="Noto Sans" font-size="3.5" text-anchor="end">SDA</text>
  <line x1="71.65" x2="86.05" y1="36" y2="36" fill="none" stroke="#787878" stroke-linecap="round" stroke-linejoin="round" stroke-width=".7"/>
  <rect id="connector121pin" x="72" y="35.65" width="14.4" height=".7" fill="none" stroke-width="0" connectorname="SCL"/>
  <rect id="connector121terminal" x="86.4" y="35.65" width="0" height=".7" fill="none" stroke-width="0"/>
  <text x="70.6" y="36.7" fill="#8c8c8c" font-family="Noto Sans" font-size="3.5" text-anchor="end">SCL</text>
  <line x1="71.65" x2="86.05" y1="43.2" y2="43.2" fill="none" stroke="#787878" stroke-linecap="round" stroke-linejoin="round" stroke-width=".7"/>
  <rect id="connector120pin" x="72" y="42.85" width="14.4" height=".7" fill="none" stroke-width="0" connectorname="RESET"/>
  <rect id="connector120terminal" x="86.4" y="42.85" width="0" height=".7" fill="none" stroke-width="0"/>
  <text x="70.6" y="43.9" fill="#8c8c8c" font-family="Noto Sans" font-size="3.5" text-anchor="end">RESET</text>
  <line x1="71.65" x2="86.05" y1="50.4" y2="50.4" fill="none" stroke="#787878" stroke-linecap="round" stroke-linejoin="round" stroke-width=".7"/>
  <rect id="connector79pin" x="72" y="50.05" width="14.4" height=".7" fill="none" stroke-width="0" connectorname="GPB7"/>
  <rect id="connector79terminal" x="86.4" y="50.05" width="0" height=".7" fill="none" stroke-width="0"/>
  <text x="70.6" y="51.1" fill="#8c8c8c" font-family="Noto Sans" font-size="3.5" text-anchor="end">GPB7</text>
  <line x1="71.65" x2="86.05" y1="57.6" y2="57.6" fill="none" stroke="#787878" stroke-linecap="round" stroke-linejoin="round" stroke-width=".7"/>
  <rect id="connector80pin" x="72" y="57.25" width="14.4" height=".7" fill="none" stroke-width="0" connectorname="GPB6"/>
  <rect id="connector80terminal" x="86.4" y="57.25" width="0" height=".7" fill="none" stroke-width="0"/>
  <text x="70.6" y="58.3" fill="#8c8c8c" font-family="Noto Sans" font-size="3.5" text-anchor="end">GPB6</text>
  <line x1="71.65" x2="86.05" y1="64.8" y2="64.8" fill="none" stroke="#787878" stroke-linecap="round" stroke-linejoin="round" stroke-width=".7"/>
  <rect id="connector81pin" x="72" y="64.45" width="14.4" height=".7" fill="none" stroke-width="0" connectorname="GPB5"/>
  <rect id="connector81terminal" x="86.4" y="64.45" width="0" height=".7" fill="none" stroke-width="0"/>
  <text x="70.6" y="65.5" fill="#8c8c8c" font-family="Noto Sans" font-size="3.5" text-anchor="end">GPB5</text>
  <line x1="71.65" x2="86.05" y1="72" y2="72" fill="none" stroke="#787878" stroke-linecap="round" stroke-linejoin="round" stroke-width=".7"/>
  <rect id="connector86pin" x="72" y="71.65" width="14.4" height=".7" fill="none" stroke-width="0" connectorname="GPB4"/>
  <rect id="connector86terminal" x="86.4" y="71.65" width="0" height=".7" fill="none" stroke-width="0"/>
  <text x="70.6" y="72.6998" fill="#8c8c8c" font-family="Noto Sans" font-size="3.5" text-anchor="end">GPB4</text>
  <line x1="71.65" x2="86.05" y1="79.2" y2="79.2" fill="none" stroke="#787878" stroke-linecap="round" stroke-linejoin="round" stroke-width=".7"/>
  <rect id="connector87pin" x="72" y="78.85" width="14.4" height=".7" fill="none" stroke-width="0" connectorname="GPB3"/>
  <rect id="connector87terminal" x="86.4" y="78.85" width="0" height=".7" fill="none" stroke-width="0"/>
  <text x="70.6" y="79.8998" fill="#8c8c8c" font-family="Noto Sans" font-size="3.5" text-anchor="end">GPB3</text>
  <line x1="28.8" x2="28.8" y1=".35" y2="14.4" fill="none" stroke="#787878" stroke-linecap="round" stroke-linejoin="round" stroke-width=".7"/>
  <rect id="connector77pin" x="28.45" width=".7" height="14.4" fill="none" stroke-width="0" connectorname="+5V"/>
  <rect id="connector77terminal" x="28.45" width=".7" height="0" fill="none" stroke-width="0"/>
  <g transform="translate(30.2 16)">
   <g transform="rotate(270)">
    <text fill="#8c8c8c" font-family="Noto Sans" font-size="3.5" text-anchor="end">+5V</text>
   </g>
  </g>
  <line x1="36" x2="36" y1=".35" y2="14.4" fill="none" stroke="#787878" stroke-linecap="round" stroke-linejoin="round" stroke-width=".7"/>
  <rect id="connector94pin" x="35.65" width=".7" height="14.4" fill="none" stroke-width="0" connectorname="3.3V"/>
  <rect id="connector94terminal" x="35.65" width=".7" height="0" fill="none" stroke-width="0"/>
  <g transform="translate(37.4 16)">
   <g transform="rotate(270)">
    <text fill="#8c8c8c" font-family="Noto Sans" font-size="3.5" text-anchor="end">3.3V</text>
   </g>
  </g>
  <line x1="43.2" x2="43.2" y1=".35" y2="14.4" fill="none" stroke="#787878" stroke-linecap="round" stroke-linejoin="round" stroke-width=".7"/>
  <rect id="connector123pin" x="42.85" width=".7" height="14.4" fill="none" stroke-width="0" connectorname="VIN"/>
  <rect id="connector123terminal" x="42.85" width=".7" height="0" fill="none" stroke-width="0"/>
  <g transform="translate(44.6 16)">
   <g transform="rotate(270)">
    <text fill="#8c8c8c" font-family="Noto Sans" font-size="3.5" text-anchor="end">VIN</text>
   </g>
  </g>
  <line x1="43.2" x2="43.2" y1="93.6" y2="107.65" fill="none" stroke="#787878" stroke-linecap="round" stroke-linejoin="round" stroke-width=".7"/>
  <rect id="connector76pin" x="42.85" y="93.6" width=".7" height="14.4" fill="none" stroke-width="0" connectorname="GND"/>
  <rect id="connector76terminal" x="42.85" y="108" width=".7" height="0" fill="none" stroke-width="0"/>
  <g transform="translate(44.6 92)">
   <g transform="rotate(270)">
    <text fill="#8c8c8c" font-family="Noto Sans" font-size="3.5">GND</text>
   </g>
  </g>
  <rect id="connector90pin" x="28.45" width=".7" height="14.4" fill="none" stroke-width="0" connectorname="+5V"/>
  <rect id="connector90terminal" x="28.45" width=".7" height="0" fill="none" stroke-width="0"/>
  <rect id="connector95pin" x="28.45" width=".7" height="14.4" fill="none" stroke-width="0" connectorname="+5V"/>
  <rect id="connector95terminal" x="28.45" width=".7" height="0" fill="none" stroke-width="0"/>
  <rect id="connector117pin" x="42.85" y="93.6" width=".7" height="14.4" fill="none" stroke-width="0" connectorname="GND"/>
  <rect id="connector117terminal" x="42.85" y="108" width=".7" height="0" fill="none" stroke-width="0"/>
  <rect id="connector118pin" x="42.85" y="93.6" width=".7" height="14.4" fill="none" stroke-width="0" connectorname="GND"/>
  <rect id="connector118terminal" x="42.85" y="108" width=".7" height="0" fill="none" stroke-width="0"/>
  <rect id="connector119pin" x="42.85" y="93.6" width=".7" height="14.4" fill="none" stroke-width="0" connectorname="GND"/>
  <rect id="connector119terminal" x="42.85" y="108" width=".7" height="0" fill="none" stroke-width="0"/>
 </g>
</svg>
