<?xml version="1.0" encoding="UTF-8"?>
<!-- Created with Fritzing (http://www.fritzing.org/) -->
<svg width="1.3in" height="1.1in" baseProfile="tiny" version="1.2" viewBox="0 0 93.6 79.2" xmlns="http://www.w3.org/2000/svg">
 <desc>
  <referenceFile>Adafruit USB DC Solar LiPo Charger_schematic.svg</referenceFile>
 </desc>
 <desc>Fritzing schematic generated by brd2svg</desc>
 <g id="schematic">
  <rect x="14.4" y="14.4" width="64.35" height="50.4" fill="none" stroke="#000" stroke-linecap="round" stroke-linejoin="round" stroke-width=".9"/>
  <text id="label" x="46.8" y="28.8" fill="#000000" font-family="Noto Sans" font-size="3.5" text-anchor="middle"><tspan x="46.8" y="28.8">Adafruit</tspan> <tspan x="46.8" y="32.3">USB</tspan> <tspan x="46.8" y="35.8">DC</tspan> <tspan x="46.8" y="39.3">Solar</tspan> <tspan x="46.8" y="42.8">LiPo</tspan> <tspan x="46.8" y="46.3">Charger</tspan></text>
  <line x1=".35" x2="14.4" y1="28.8" y2="28.8" fill="none" stroke="#787878" stroke-linecap="round" stroke-linejoin="round" stroke-width=".7"/>
  <rect id="connector56pin" y="28.45" width="14.4" height=".7" fill="none" stroke-width="0" connectorName="BATT"/>
  <rect id="connector56terminal" y="28.45" width="0" height=".7" fill="none" stroke-width="0"/>
  <text x="15.8" y="29.5" fill="#8c8c8c" font-family="Noto Sans" font-size="3.5">BATT</text>
  <line x1=".35" x2="14.4" y1="36" y2="36" fill="none" stroke="#787878" stroke-linecap="round" stroke-linejoin="round" stroke-width=".7"/>
  <rect id="connector54pin" y="35.65" width="14.4" height=".7" fill="none" stroke-width="0" connectorName="LOAD"/>
  <rect id="connector54terminal" y="35.65" width="0" height=".7" fill="none" stroke-width="0"/>
  <text x="15.8" y="36.7" fill="#8c8c8c" font-family="Noto Sans" font-size="3.5">LOAD</text>
  <line x1="78.85" x2="93.25" y1="28.8" y2="28.8" fill="none" stroke="#787878" stroke-linecap="round" stroke-linejoin="round" stroke-width=".7"/>
  <rect id="connector58pin" x="79.2" y="28.45" width="14.4" height=".7" fill="none" stroke-width="0" connectorname="CHARGE"/>
  <rect id="connector58terminal" x="93.6" y="28.45" width="0" height=".7" fill="none" stroke-width="0"/>
  <text x="77.8003" y="29.5" fill="#8c8c8c" font-family="Noto Sans" font-size="3.5" text-anchor="end">CHARGE</text>
  <line x1="78.85" x2="93.25" y1="36" y2="36" fill="none" stroke="#787878" stroke-linecap="round" stroke-linejoin="round" stroke-width=".7"/>
  <rect id="connector60pin" x="79.2" y="35.65" width="14.4" height=".7" fill="none" stroke-width="0" connectorname="DONE"/>
  <rect id="connector60terminal" x="93.6" y="35.65" width="0" height=".7" fill="none" stroke-width="0"/>
  <text x="77.8003" y="36.7" fill="#8c8c8c" font-family="Noto Sans" font-size="3.5" text-anchor="end">DONE</text>
  <line x1="43.2" x2="43.2" y1=".35" y2="14.4" fill="none" stroke="#787878" stroke-linecap="round" stroke-linejoin="round" stroke-width=".7"/>
  <rect id="connector10pin" x="42.85" width=".7" height="14.4" fill="none" stroke-width="0" connectorname="DCIN"/>
  <rect id="connector10terminal" x="42.85" width=".7" height="0" fill="none" stroke-width="0"/>
  <g transform="translate(44.6 16)">
   <g transform="rotate(270)">
    <text fill="#8c8c8c" font-family="Noto Sans" font-size="3.5" text-anchor="end">DCIN</text>
   </g>
  </g>
  <line x1="43.2" x2="43.2" y1="64.8" y2="78.85" fill="none" stroke="#787878" stroke-linecap="round" stroke-linejoin="round" stroke-width=".7"/>
  <rect id="connector11pin" x="42.85" y="64.8" width=".7" height="14.4" fill="none" stroke-width="0" connectorname="GND"/>
  <rect id="connector11terminal" x="42.85" y="79.2" width=".7" height="0" fill="none" stroke-width="0"/>
  <g transform="translate(44.6 63.2)">
   <g transform="rotate(270)">
    <text fill="#8c8c8c" font-family="Noto Sans" font-size="3.5">GND</text>
   </g>
  </g>
  <rect id="connector53pin" x="42.85" width=".7" height="14.4" fill="none" stroke-width="0" connectorname="DCIN"/>
  <rect id="connector53terminal" x="42.85" width=".7" height="0" fill="none" stroke-width="0"/>
  <rect id="connector59pin" x="42.85" width=".7" height="14.4" fill="none" stroke-width="0" connectorname="DCIN"/>
  <rect id="connector59terminal" x="42.85" width=".7" height="0" fill="none" stroke-width="0"/>
  <rect id="connector52pin" x="42.85" y="64.8" width=".7" height="14.4" fill="none" stroke-width="0" connectorname="GND"/>
  <rect id="connector52terminal" x="42.85" y="79.2" width=".7" height="0" fill="none" stroke-width="0"/>
  <rect id="connector55pin" x="42.85" y="64.8" width=".7" height="14.4" fill="none" stroke-width="0" connectorname="GND"/>
  <rect id="connector55terminal" x="42.85" y="79.2" width=".7" height="0" fill="none" stroke-width="0"/>
  <rect id="connector57pin" x="42.85" y="64.8" width=".7" height="14.4" fill="none" stroke-width="0" connectorname="GND"/>
  <rect id="connector57terminal" x="42.85" y="79.2" width=".7" height="0" fill="none" stroke-width="0"/>
  <rect id="connector81pin" x="42.85" y="64.8" width=".7" height="14.4" fill="none" stroke-width="0" connectorname="GND"/>
  <rect id="connector81terminal" x="42.85" y="79.2" width=".7" height="0" fill="none" stroke-width="0"/>
  <rect id="connector87pin" x="42.85" y="64.8" width=".7" height="14.4" fill="none" stroke-width="0" connectorname="GND"/>
  <rect id="connector87terminal" x="42.85" y="79.2" width=".7" height="0" fill="none" stroke-width="0"/>
 </g>
</svg>
