<?xml version="1.0" encoding="UTF-8"?>
<!-- Created with Fritzing (http://www.fritzing.org/) -->
<svg width="1.2in" height="1.1in" baseProfile="tiny" version="1.2" viewBox="0 0 86.4 79.2" xmlns="http://www.w3.org/2000/svg">
 <desc>
  <referenceFile>Adafruit OLED Color 0.96 inch 96x64 w microSD_schematic.svg</referenceFile>
 </desc>
 <desc>Fritzing schematic generated by brd2svg</desc>
 <g id="schematic">
  <rect x="14.4" y="14.4" width="57.15" height="50.4" fill="none" stroke="#000" stroke-linecap="round" stroke-linejoin="round" stroke-width=".9"/>
  <text id="label" x="43.2" y="22" fill="#000000" font-family="Noto Sans" font-size="3.5" text-anchor="middle"><tspan x="43.2" y="22">Adafruit</tspan> <tspan x="43.2" y="25.5">OLED</tspan> <tspan x="43.2" y="29">Color</tspan> <tspan x="43.2" y="32.5">0.96</tspan> <tspan x="43.2" y="36">inch</tspan> <tspan x="43.2" y="39.5">96x64</tspan> <tspan x="43.2" y="43">w</tspan> <tspan x="43.2" y="46.5">microSD</tspan></text>
  <line x1=".35" x2="14.4" y1="21.6" y2="21.6" fill="none" stroke="#787878" stroke-linecap="round" stroke-linejoin="round" stroke-width=".7"/>
  <rect id="connector12pin" y="21.25" width="14.4" height=".7" fill="none" stroke-width="0" connectorName="SD_CS"/>
  <rect id="connector12terminal" y="21.25" width="0" height=".7" fill="none" stroke-width="0"/>
  <text x="15.8" y="22.3" fill="#8c8c8c" font-family="Noto Sans" font-size="3.5">SD_CS</text>
  <line x1=".35" x2="14.4" y1="28.8" y2="28.8" fill="none" stroke="#787878" stroke-linecap="round" stroke-linejoin="round" stroke-width=".7"/>
  <rect id="connector11pin" y="28.45" width="14.4" height=".7" fill="none" stroke-width="0" connectorName="OLED_CS"/>
  <rect id="connector11terminal" y="28.45" width="0" height=".7" fill="none" stroke-width="0"/>
  <text x="15.8" y="29.5" fill="#8c8c8c" font-family="Noto Sans" font-size="3.5">OLED_CS</text>
  <line x1=".35" x2="14.4" y1="36" y2="36" fill="none" stroke="#787878" stroke-linecap="round" stroke-linejoin="round" stroke-width=".7"/>
  <rect id="connector10pin" y="35.65" width="14.4" height=".7" fill="none" stroke-width="0" connectorName="RESET"/>
  <rect id="connector10terminal" y="35.65" width="0" height=".7" fill="none" stroke-width="0"/>
  <text x="15.8" y="36.7" fill="#8c8c8c" font-family="Noto Sans" font-size="3.5">RESET</text>
  <line x1=".35" x2="14.4" y1="43.2" y2="43.2" fill="none" stroke="#787878" stroke-linecap="round" stroke-linejoin="round" stroke-width=".7"/>
  <rect id="connector9pin" y="42.85" width="14.4" height=".7" fill="none" stroke-width="0" connectorName="DC"/>
  <rect id="connector9terminal" y="42.85" width="0" height=".7" fill="none" stroke-width="0"/>
  <text x="15.8" y="43.9" fill="#8c8c8c" font-family="Noto Sans" font-size="3.5">DC</text>
  <line x1="71.65" x2="86.05" y1="21.6" y2="21.6" fill="none" stroke="#787878" stroke-linecap="round" stroke-linejoin="round" stroke-width=".7"/>
  <rect id="connector8pin" x="72" y="21.25" width="14.4" height=".7" fill="none" stroke-width="0" connectorname="SCK"/>
  <rect id="connector8terminal" x="86.4" y="21.25" width="0" height=".7" fill="none" stroke-width="0"/>
  <text x="70.6" y="22.3" fill="#8c8c8c" font-family="Noto Sans" font-size="3.5" text-anchor="end">SCK</text>
  <line x1="71.65" x2="86.05" y1="28.8" y2="28.8" fill="none" stroke="#787878" stroke-linecap="round" stroke-linejoin="round" stroke-width=".7"/>
  <rect id="connector7pin" x="72" y="28.45" width="14.4" height=".7" fill="none" stroke-width="0" connectorname="MOSI"/>
  <rect id="connector7terminal" x="86.4" y="28.45" width="0" height=".7" fill="none" stroke-width="0"/>
  <text x="70.6" y="29.5" fill="#8c8c8c" font-family="Noto Sans" font-size="3.5" text-anchor="end">MOSI</text>
  <line x1="71.65" x2="86.05" y1="36" y2="36" fill="none" stroke="#787878" stroke-linecap="round" stroke-linejoin="round" stroke-width=".7"/>
  <rect id="connector6pin" x="72" y="35.65" width="14.4" height=".7" fill="none" stroke-width="0" connectorname="SD_MISO"/>
  <rect id="connector6terminal" x="86.4" y="35.65" width="0" height=".7" fill="none" stroke-width="0"/>
  <text x="70.6" y="36.7" fill="#8c8c8c" font-family="Noto Sans" font-size="3.5" text-anchor="end">SD_MISO</text>
  <line x1="71.65" x2="86.05" y1="43.2" y2="43.2" fill="none" stroke="#787878" stroke-linecap="round" stroke-linejoin="round" stroke-width=".7"/>
  <rect id="connector5pin" x="72" y="42.85" width="14.4" height=".7" fill="none" stroke-width="0" connectorname="SD_CD"/>
  <rect id="connector5terminal" x="86.4" y="42.85" width="0" height=".7" fill="none" stroke-width="0"/>
  <text x="70.6" y="43.9" fill="#8c8c8c" font-family="Noto Sans" font-size="3.5" text-anchor="end">SD_CD</text>
  <line x1="43.2" x2="43.2" y1=".35" y2="14.4" fill="none" stroke="#787878" stroke-linecap="round" stroke-linejoin="round" stroke-width=".7"/>
  <rect id="connector13pin" x="42.85" width=".7" height="14.4" fill="none" stroke-width="0" connectorname="V+"/>
  <rect id="connector13terminal" x="42.85" width=".7" height="0" fill="none" stroke-width="0"/>
  <g transform="translate(44.6 16)">
   <g transform="rotate(270)">
    <text fill="#8c8c8c" font-family="Noto Sans" font-size="3.5" text-anchor="end">V+</text>
   </g>
  </g>
  <line x1="43.2" x2="43.2" y1="64.8" y2="78.85" fill="none" stroke="#787878" stroke-linecap="round" stroke-linejoin="round" stroke-width=".7"/>
  <rect id="connector14pin" x="42.85" y="64.8" width=".7" height="14.4" fill="none" stroke-width="0" connectorname="GND"/>
  <rect id="connector14terminal" x="42.85" y="79.2" width=".7" height="0" fill="none" stroke-width="0"/>
  <g transform="translate(44.6 63.2)">
   <g transform="rotate(270)">
    <text fill="#8c8c8c" font-family="Noto Sans" font-size="3.5">GND</text>
   </g>
  </g>
 </g>
</svg>
