<?xml version="1.0" encoding="UTF-8"?>
<!-- Created with Fritzing (http://www.fritzing.org/) -->
<svg width="1.1in" height="1.4in" baseProfile="tiny" version="1.2" viewBox="0 0 79.2 100.8" xmlns="http://www.w3.org/2000/svg">
 <desc>
  <referenceFile>Adafruit BNO055 and BMP280 BFF_schematic.svg</referenceFile>
 </desc>
 <desc>Fritzing schematic generated by brd2svg</desc>
 <g id="schematic">
  <rect x="14.4" y="14.4" width="49.95" height="72" fill="none" stroke="#000" stroke-linecap="round" stroke-linejoin="round" stroke-width=".9"/>
  <text id="label" x="39.6" y="39.9" fill="#000000" font-family="Noto Sans" font-size="3.5" text-anchor="middle"><tspan x="39.6" y="39.9">Adafruit</tspan> <tspan x="39.6" y="43.4">BNO055</tspan> <tspan x="39.6" y="46.9">and</tspan> <tspan x="39.6" y="50.4">BMP280</tspan> <tspan x="39.6" y="53.9">BFF</tspan></text>
  <line x1=".35" x2="14.4" y1="28.8" y2="28.8" fill="none" stroke="#787878" stroke-linecap="round" stroke-linejoin="round" stroke-width=".7"/>
  <rect id="connector15pin" y="28.45" width="14.4" height=".7" fill="none" stroke-width="0" connectorName="A0"/>
  <rect id="connector15terminal" y="28.45" width="0" height=".7" fill="none" stroke-width="0"/>
  <text x="15.8" y="29.5" fill="#8c8c8c" font-family="Noto Sans" font-size="3.5">A0</text>
  <line x1=".35" x2="14.4" y1="36" y2="36" fill="none" stroke="#787878" stroke-linecap="round" stroke-linejoin="round" stroke-width=".7"/>
  <rect id="connector17pin" y="35.65" width="14.4" height=".7" fill="none" stroke-width="0" connectorName="A1"/>
  <rect id="connector17terminal" y="35.65" width="0" height=".7" fill="none" stroke-width="0"/>
  <text x="15.8" y="36.7" fill="#8c8c8c" font-family="Noto Sans" font-size="3.5">A1</text>
  <line x1=".35" x2="14.4" y1="43.2" y2="43.2" fill="none" stroke="#787878" stroke-linecap="round" stroke-linejoin="round" stroke-width=".7"/>
  <rect id="connector19pin" y="42.85" width="14.4" height=".7" fill="none" stroke-width="0" connectorName="A2"/>
  <rect id="connector19terminal" y="42.85" width="0" height=".7" fill="none" stroke-width="0"/>
  <text x="15.8" y="43.9" fill="#8c8c8c" font-family="Noto Sans" font-size="3.5">A2</text>
  <line x1=".35" x2="14.4" y1="50.4" y2="50.4" fill="none" stroke="#787878" stroke-linecap="round" stroke-linejoin="round" stroke-width=".7"/>
  <rect id="connector21pin" y="50.05" width="14.4" height=".7" fill="none" stroke-width="0" connectorName="A3"/>
  <rect id="connector21terminal" y="50.05" width="0" height=".7" fill="none" stroke-width="0"/>
  <text x="15.8" y="51.1" fill="#8c8c8c" font-family="Noto Sans" font-size="3.5">A3</text>
  <line x1=".35" x2="14.4" y1="57.6" y2="57.6" fill="none" stroke="#787878" stroke-linecap="round" stroke-linejoin="round" stroke-width=".7"/>
  <rect id="connector23pin" y="57.25" width="14.4" height=".7" fill="none" stroke-width="0" connectorName="SDA"/>
  <rect id="connector23terminal" y="57.25" width="0" height=".7" fill="none" stroke-width="0"/>
  <text x="15.8" y="58.3" fill="#8c8c8c" font-family="Noto Sans" font-size="3.5">SDA</text>
  <line x1=".35" x2="14.4" y1="64.8" y2="64.8" fill="none" stroke="#787878" stroke-linecap="round" stroke-linejoin="round" stroke-width=".7"/>
  <rect id="connector25pin" y="64.45" width="14.4" height=".7" fill="none" stroke-width="0" connectorName="SCL"/>
  <rect id="connector25terminal" y="64.45" width="0" height=".7" fill="none" stroke-width="0"/>
  <text x="15.8" y="65.5" fill="#8c8c8c" font-family="Noto Sans" font-size="3.5">SCL</text>
  <line x1=".35" x2="14.4" y1="72" y2="72" fill="none" stroke="#787878" stroke-linecap="round" stroke-linejoin="round" stroke-width=".7"/>
  <rect id="connector27pin" y="71.65" width="14.4" height=".7" fill="none" stroke-width="0" connectorName="TX"/>
  <rect id="connector27terminal" y="71.65" width="0" height=".7" fill="none" stroke-width="0"/>
  <text x="15.8" y="72.6998" fill="#8c8c8c" font-family="Noto Sans" font-size="3.5">TX</text>
  <line x1="64.45" x2="78.85" y1="28.8" y2="28.8" fill="none" stroke="#787878" stroke-linecap="round" stroke-linejoin="round" stroke-width=".7"/>
  <rect id="connector35pin" x="64.8" y="28.45" width="14.4" height=".7" fill="none" stroke-width="0" connectorname="MOSI"/>
  <rect id="connector35terminal" x="79.2" y="28.45" width="0" height=".7" fill="none" stroke-width="0"/>
  <text x="63.4" y="29.5" fill="#8c8c8c" font-family="Noto Sans" font-size="3.5" text-anchor="end">MOSI</text>
  <line x1="64.45" x2="78.85" y1="36" y2="36" fill="none" stroke="#787878" stroke-linecap="round" stroke-linejoin="round" stroke-width=".7"/>
  <rect id="connector33pin" x="64.8" y="35.65" width="14.4" height=".7" fill="none" stroke-width="0" connectorname="MISO"/>
  <rect id="connector33terminal" x="79.2" y="35.65" width="0" height=".7" fill="none" stroke-width="0"/>
  <text x="63.4" y="36.7" fill="#8c8c8c" font-family="Noto Sans" font-size="3.5" text-anchor="end">MISO</text>
  <line x1="64.45" x2="78.85" y1="43.2" y2="43.2" fill="none" stroke="#787878" stroke-linecap="round" stroke-linejoin="round" stroke-width=".7"/>
  <rect id="connector31pin" x="64.8" y="42.85" width="14.4" height=".7" fill="none" stroke-width="0" connectorname="SCK"/>
  <rect id="connector31terminal" x="79.2" y="42.85" width="0" height=".7" fill="none" stroke-width="0"/>
  <text x="63.4" y="43.9" fill="#8c8c8c" font-family="Noto Sans" font-size="3.5" text-anchor="end">SCK</text>
  <line x1="64.45" x2="78.85" y1="50.4" y2="50.4" fill="none" stroke="#787878" stroke-linecap="round" stroke-linejoin="round" stroke-width=".7"/>
  <rect id="connector29pin" x="64.8" y="50.05" width="14.4" height=".7" fill="none" stroke-width="0" connectorname="RX"/>
  <rect id="connector29terminal" x="79.2" y="50.05" width="0" height=".7" fill="none" stroke-width="0"/>
  <text x="63.4" y="51.1" fill="#8c8c8c" font-family="Noto Sans" font-size="3.5" text-anchor="end">RX</text>
  <line x1="36" x2="36" y1=".35" y2="14.4" fill="none" stroke="#787878" stroke-linecap="round" stroke-linejoin="round" stroke-width=".7"/>
  <rect id="connector37pin" x="35.65" width=".7" height="14.4" fill="none" stroke-width="0" connectorname="3.3V"/>
  <rect id="connector37terminal" x="35.65" width=".7" height="0" fill="none" stroke-width="0"/>
  <g transform="translate(37.4 16)">
   <g transform="rotate(270)">
    <text fill="#8c8c8c" font-family="Noto Sans" font-size="3.5" text-anchor="end">3.3V</text>
   </g>
  </g>
  <line x1="43.2" x2="43.2" y1=".35" y2="14.4" fill="none" stroke="#787878" stroke-linecap="round" stroke-linejoin="round" stroke-width=".7"/>
  <rect id="connector41pin" x="42.85" width=".7" height="14.4" fill="none" stroke-width="0" connectorname="+5V"/>
  <rect id="connector41terminal" x="42.85" width=".7" height="0" fill="none" stroke-width="0"/>
  <g transform="translate(44.6 16)">
   <g transform="rotate(270)">
    <text fill="#8c8c8c" font-family="Noto Sans" font-size="3.5" text-anchor="end">+5V</text>
   </g>
  </g>
  <line x1="36" x2="36" y1="86.4" y2="100.45" fill="none" stroke="#787878" stroke-linecap="round" stroke-linejoin="round" stroke-width=".7"/>
  <rect id="connector39pin" x="35.65" y="86.4" width=".7" height="14.4" fill="none" stroke-width="0" connectorname="GND"/>
  <rect id="connector39terminal" x="35.65" y="100.8" width=".7" height="0" fill="none" stroke-width="0"/>
  <g transform="translate(37.4 84.8)">
   <g transform="rotate(270)">
    <text fill="#8c8c8c" font-family="Noto Sans" font-size="3.5">GND</text>
   </g>
  </g>
  <rect id="connector38pin" x="35.65" width=".7" height="14.4" fill="none" stroke-width="0" connectorname="3.3V"/>
  <rect id="connector38terminal" x="35.65" width=".7" height="0" fill="none" stroke-width="0"/>
  <rect id="connector42pin" x="42.85" width=".7" height="14.4" fill="none" stroke-width="0" connectorname="+5V"/>
  <rect id="connector42terminal" x="42.85" width=".7" height="0" fill="none" stroke-width="0"/>
  <rect id="connector40pin" x="35.65" y="86.4" width=".7" height="14.4" fill="none" stroke-width="0" connectorname="GND"/>
  <rect id="connector40terminal" x="35.65" y="100.8" width=".7" height="0" fill="none" stroke-width="0"/>
  <rect id="connector16pin" y="28.45" width="14.4" height=".7" fill="none" stroke-width="0" connectorName="A0"/>
  <rect id="connector16terminal" y="28.45" width="0" height=".7" fill="none" stroke-width="0"/>
  <rect id="connector18pin" y="35.65" width="14.4" height=".7" fill="none" stroke-width="0" connectorName="A1"/>
  <rect id="connector18terminal" x="39.586" y="36.349" width=".0288" height=".0014" fill="none" stroke-width="0"/>
  <rect y="35.65" width="0" height=".7" fill="none" stroke-width="0"/>
  <rect id="connector20pin" y="42.85" width="14.4" height=".7" fill="none" stroke-width="0" connectorName="A2"/>
  <rect id="connector20terminal" y="42.85" width="0" height=".7" fill="none" stroke-width="0"/>
  <rect id="connector22pin" y="50.05" width="14.4" height=".7" fill="none" stroke-width="0" connectorName="A3"/>
  <rect id="connector22terminal" y="50.05" width="0" height=".7" fill="none" stroke-width="0"/>
  <rect id="connector24pin" y="57.25" width="14.4" height=".7" fill="none" stroke-width="0" connectorName="SDA"/>
  <rect id="connector24terminal" y="57.25" width="0" height=".7" fill="none" stroke-width="0"/>
  <rect id="connector26pin" y="64.45" width="14.4" height=".7" fill="none" stroke-width="0" connectorName="SCL"/>
  <rect id="connector26terminal" y="64.45" width="0" height=".7" fill="none" stroke-width="0"/>
  <rect id="connector28pin" y="71.65" width="14.4" height=".7" fill="none" stroke-width="0" connectorName="TX"/>
  <rect id="connector28terminal" y="71.65" width="0" height=".7" fill="none" stroke-width="0"/>
  <rect id="connector36pin" x="64.8" y="28.45" width="14.4" height=".7" fill="none" stroke-width="0" connectorname="MOSI"/>
  <rect id="connector36terminal" x="79.2" y="28.45" width="0" height=".7" fill="none" stroke-width="0"/>
  <rect id="connector34pin" x="64.8" y="35.65" width="14.4" height=".7" fill="none" stroke-width="0" connectorname="MISO"/>
  <rect id="connector34terminal" x="79.2" y="35.65" width="0" height=".7" fill="none" stroke-width="0"/>
  <rect id="connector32pin" x="64.8" y="42.85" width="14.4" height=".7" fill="none" stroke-width="0" connectorname="SCK"/>
  <rect id="connector32terminal" x="79.2" y="42.85" width="0" height=".7" fill="none" stroke-width="0"/>
  <rect id="connector30pin" x="64.8" y="50.05" width="14.4" height=".7" fill="none" stroke-width="0" connectorname="RX"/>
  <rect id="connector30terminal" x="79.2" y="50.05" width="0" height=".7" fill="none" stroke-width="0"/>
 </g>
</svg>
