<?xml version="1.0" encoding="UTF-8"?>
<!-- Created with Fritzing (http://www.fritzing.org/) -->
<svg width="1.4in" height="2.2in" baseProfile="tiny" version="1.2" viewBox="0 0 100.8 158.4" xmlns="http://www.w3.org/2000/svg">
 <desc>
  <referenceFile>Adafruit 2.2in PiTFT HAT_schematic.svg</referenceFile>
 </desc>
 <desc>Fritzing schematic generated by brd2svg</desc>
 <g id="schematic">
  <rect x="14.4" y="14.4" width="71.55" height="129.6" fill="none" stroke="#000" stroke-linecap="round" stroke-linejoin="round" stroke-width=".9"/>
  <text id="label" x="50.4" y="72.2002" fill="#000000" font-family="Noto Sans" font-size="3.5" text-anchor="middle"><tspan x="50.4" y="72.2002">Adafruit</tspan> <tspan x="50.4" y="75.7001">2.2in</tspan> <tspan x="50.4" y="79.2">PiTFT</tspan> <tspan x="50.4" y="82.6999">HAT</tspan></text>
  <line x1=".35" x2="14.4" y1="28.8" y2="28.8" fill="none" stroke="#787878" stroke-linecap="round" stroke-linejoin="round" stroke-width=".7"/>
  <rect id="connector0pin" y="28.45" width="14.4" height=".7" fill="none" stroke-width="0" connectorName="SDA"/>
  <rect id="connector0terminal" y="28.45" width="0" height=".7" fill="none" stroke-width="0"/>
  <text x="15.8" y="29.5" fill="#8c8c8c" font-family="Noto Sans" font-size="3.5">SDA</text>
  <text class="text" x="7.2" y="27.75" fill="#8c8c8c" font-family="Droid Sans" font-size="2.5" stroke-width="0" text-anchor="middle">1</text>
  <line x1=".35" x2="14.4" y1="36" y2="36" fill="none" stroke="#787878" stroke-linecap="round" stroke-linejoin="round" stroke-width=".7"/>
  <rect id="connector1pin" y="35.65" width="14.4" height=".7" fill="none" stroke-width="0" connectorName="SCL"/>
  <rect id="connector1terminal" y="35.65" width="0" height=".7" fill="none" stroke-width="0"/>
  <text x="15.8" y="36.7" fill="#8c8c8c" font-family="Noto Sans" font-size="3.5">SCL</text>
  <text class="text" x="7.2" y="34.95" fill="#8c8c8c" font-family="Droid Sans" font-size="2.5" stroke-width="0" text-anchor="middle">2</text>
  <line x1=".35" x2="14.4" y1="43.2" y2="43.2" fill="none" stroke="#787878" stroke-linecap="round" stroke-linejoin="round" stroke-width=".7"/>
  <rect id="connector4pin" y="42.85" width="14.4" height=".7" fill="none" stroke-width="0" connectorName="GPIO4"/>
  <rect id="connector4terminal" y="42.85" width="0" height=".7" fill="none" stroke-width="0"/>
  <text x="15.8" y="43.9" fill="#8c8c8c" font-family="Noto Sans" font-size="3.5">GPIO4</text>
  <text class="text" x="7.2" y="42.15" fill="#8c8c8c" font-family="Droid Sans" font-size="2.5" stroke-width="0" text-anchor="middle">5</text>
  <line x1=".35" x2="14.4" y1="50.4" y2="50.4" fill="none" stroke="#787878" stroke-linecap="round" stroke-linejoin="round" stroke-width=".7"/>
  <rect id="connector5pin" y="50.05" width="14.4" height=".7" fill="none" stroke-width="0" connectorName="GPIO17"/>
  <rect id="connector5terminal" y="50.05" width="0" height=".7" fill="none" stroke-width="0"/>
  <text x="15.8" y="51.1" fill="#8c8c8c" font-family="Noto Sans" font-size="3.5">GPIO17</text>
  <text class="text" x="7.2" y="49.35" fill="#8c8c8c" font-family="Droid Sans" font-size="2.5" stroke-width="0" text-anchor="middle">6</text>
  <line x1=".35" x2="14.4" y1="57.6" y2="57.6" fill="none" stroke="#787878" stroke-linecap="round" stroke-linejoin="round" stroke-width=".7"/>
  <rect id="connector7pin" y="57.25" width="14.4" height=".7" fill="none" stroke-width="0" connectorName="GPIO27"/>
  <rect id="connector7terminal" y="57.25" width="0" height=".7" fill="none" stroke-width="0"/>
  <text x="15.8" y="58.3" fill="#8c8c8c" font-family="Noto Sans" font-size="3.5">GPIO27</text>
  <text class="text" x="7.2" y="56.55" fill="#8c8c8c" font-family="Droid Sans" font-size="2.5" stroke-width="0" text-anchor="middle">8</text>
  <line x1=".35" x2="14.4" y1="64.8" y2="64.8" fill="none" stroke="#787878" stroke-linecap="round" stroke-linejoin="round" stroke-width=".7"/>
  <rect id="connector8pin" y="64.45" width="14.4" height=".7" fill="none" stroke-width="0" connectorName="GPIO22"/>
  <rect id="connector8terminal" y="64.45" width="0" height=".7" fill="none" stroke-width="0"/>
  <text x="15.8" y="65.5" fill="#8c8c8c" font-family="Noto Sans" font-size="3.5">GPIO22</text>
  <text class="text" x="7.2" y="63.75" fill="#8c8c8c" font-family="Droid Sans" font-size="2.5" stroke-width="0" text-anchor="middle">9</text>
  <line x1=".35" x2="14.4" y1="72" y2="72" fill="none" stroke="#787878" stroke-linecap="round" stroke-linejoin="round" stroke-width=".7"/>
  <rect id="connector12pin" y="71.65" width="14.4" height=".7" fill="none" stroke-width="0" connectorName="SPI_MOSI"/>
  <rect id="connector12terminal" y="71.65" width="0" height=".7" fill="none" stroke-width="0"/>
  <text x="15.8" y="72.6998" fill="#8c8c8c" font-family="Noto Sans" font-size="3.5">SPI_MOSI</text>
  <text class="text" x="7.2" y="70.95" fill="#8c8c8c" font-family="Droid Sans" font-size="2.5" stroke-width="0" text-anchor="middle">13</text>
  <line x1=".35" x2="14.4" y1="79.2" y2="79.2" fill="none" stroke="#787878" stroke-linecap="round" stroke-linejoin="round" stroke-width=".7"/>
  <rect id="connector13pin" y="78.85" width="14.4" height=".7" fill="none" stroke-width="0" connectorName="SPI_MISO"/>
  <rect id="connector13terminal" y="78.85" width="0" height=".7" fill="none" stroke-width="0"/>
  <text x="15.8" y="79.8998" fill="#8c8c8c" font-family="Noto Sans" font-size="3.5">SPI_MISO</text>
  <text class="text" x="7.2" y="78.1502" fill="#8c8c8c" font-family="Droid Sans" font-size="2.5" stroke-width="0" text-anchor="middle">14</text>
  <line x1=".35" x2="14.4" y1="86.4" y2="86.4" fill="none" stroke="#787878" stroke-linecap="round" stroke-linejoin="round" stroke-width=".7"/>
  <rect id="connector14pin" y="86.05" width="14.4" height=".7" fill="none" stroke-width="0" connectorName="SPI_SCLK"/>
  <rect id="connector14terminal" y="86.05" width="0" height=".7" fill="none" stroke-width="0"/>
  <text x="15.8" y="87.0998" fill="#8c8c8c" font-family="Noto Sans" font-size="3.5">SPI_SCLK</text>
  <text class="text" x="7.2" y="85.3502" fill="#8c8c8c" font-family="Droid Sans" font-size="2.5" stroke-width="0" text-anchor="middle">15</text>
  <line x1=".35" x2="14.4" y1="93.6" y2="93.6" fill="none" stroke="#787878" stroke-linecap="round" stroke-linejoin="round" stroke-width=".7"/>
  <rect id="connector84pin" y="93.25" width="14.4" height=".7" fill="none" stroke-width="0" connectorName="EEDATA"/>
  <rect id="connector84terminal" y="93.25" width="0" height=".7" fill="none" stroke-width="0"/>
  <text x="15.8" y="94.2998" fill="#8c8c8c" font-family="Noto Sans" font-size="3.5">EEDATA</text>
  <text class="text" x="7.2" y="92.5502" fill="#8c8c8c" font-family="Droid Sans" font-size="2.5" stroke-width="0" text-anchor="middle">85</text>
  <line x1=".35" x2="14.4" y1="100.8" y2="100.8" fill="none" stroke="#787878" stroke-linecap="round" stroke-linejoin="round" stroke-width=".7"/>
  <rect id="connector17pin" y="100.45" width="14.4" height=".7" fill="none" stroke-width="0" connectorName="GPIO5"/>
  <rect id="connector17terminal" y="100.45" width="0" height=".7" fill="none" stroke-width="0"/>
  <text x="15.8" y="101.5" fill="#8c8c8c" font-family="Noto Sans" font-size="3.5">GPIO5</text>
  <text class="text" x="7.2" y="99.7502" fill="#8c8c8c" font-family="Droid Sans" font-size="2.5" stroke-width="0" text-anchor="middle">18</text>
  <line x1=".35" x2="14.4" y1="108" y2="108" fill="none" stroke="#787878" stroke-linecap="round" stroke-linejoin="round" stroke-width=".7"/>
  <rect id="connector18pin" y="107.65" width="14.4" height=".7" fill="none" stroke-width="0" connectorName="GPIO6"/>
  <rect id="connector18terminal" y="107.65" width="0" height=".7" fill="none" stroke-width="0"/>
  <text x="15.8" y="108.7" fill="#8c8c8c" font-family="Noto Sans" font-size="3.5">GPIO6</text>
  <text class="text" x="7.2" y="106.95" fill="#8c8c8c" font-family="Droid Sans" font-size="2.5" stroke-width="0" text-anchor="middle">19</text>
  <line x1=".35" x2="14.4" y1="115.2" y2="115.2" fill="none" stroke="#787878" stroke-linecap="round" stroke-linejoin="round" stroke-width=".7"/>
  <rect id="connector20pin" y="114.85" width="14.4" height=".7" fill="none" stroke-width="0" connectorName="GPIO13"/>
  <rect id="connector20terminal" y="114.85" width="0" height=".7" fill="none" stroke-width="0"/>
  <text x="15.8" y="115.9" fill="#8c8c8c" font-family="Noto Sans" font-size="3.5">GPIO13</text>
  <text class="text" x="7.2" y="114.15" fill="#8c8c8c" font-family="Droid Sans" font-size="2.5" stroke-width="0" text-anchor="middle">21</text>
  <line x1=".35" x2="14.4" y1="122.4" y2="122.4" fill="none" stroke="#787878" stroke-linecap="round" stroke-linejoin="round" stroke-width=".7"/>
  <rect id="connector22pin" y="122.05" width="14.4" height=".7" fill="none" stroke-width="0" connectorName="GPIO19"/>
  <rect id="connector22terminal" y="122.05" width="0" height=".7" fill="none" stroke-width="0"/>
  <text x="15.8" y="123.1" fill="#8c8c8c" font-family="Noto Sans" font-size="3.5">GPIO19</text>
  <text class="text" x="7.2" y="121.35" fill="#8c8c8c" font-family="Droid Sans" font-size="2.5" stroke-width="0" text-anchor="middle">23</text>
  <line x1=".35" x2="14.4" y1="129.6" y2="129.6" fill="none" stroke="#787878" stroke-linecap="round" stroke-linejoin="round" stroke-width=".7"/>
  <rect id="connector94pin" y="129.25" width="14.4" height=".7" fill="none" stroke-width="0" connectorName="GPIO26"/>
  <rect id="connector94terminal" y="129.25" width="0" height=".7" fill="none" stroke-width="0"/>
  <text x="15.8" y="130.3" fill="#8c8c8c" font-family="Noto Sans" font-size="3.5">GPIO26</text>
  <text class="text" x="7.2" y="128.55" fill="#8c8c8c" font-family="Droid Sans" font-size="2.5" stroke-width="0" text-anchor="middle">95</text>
  <line x1="86.05" x2="100.45" y1="28.8" y2="28.8" fill="none" stroke="#787878" stroke-linecap="round" stroke-linejoin="round" stroke-width=".7"/>
  <rect id="connector2pin" x="86.4" y="28.45" width="14.4" height=".7" fill="none" stroke-width="0" connectorname="TXD"/>
  <rect id="connector2terminal" x="100.8" y="28.45" width="0" height=".7" fill="none" stroke-width="0"/>
  <text x="85.0003" y="29.5" fill="#8c8c8c" font-family="Noto Sans" font-size="3.5" text-anchor="end">TXD</text>
  <text class="text" x="93.6" y="27.75" fill="#8c8c8c" font-family="Droid Sans" font-size="2.5" stroke-width="0" text-anchor="middle">3</text>
  <line x1="86.05" x2="100.45" y1="36" y2="36" fill="none" stroke="#787878" stroke-linecap="round" stroke-linejoin="round" stroke-width=".7"/>
  <rect id="connector3pin" x="86.4" y="35.65" width="14.4" height=".7" fill="none" stroke-width="0" connectorname="RXD"/>
  <rect id="connector3terminal" x="100.8" y="35.65" width="0" height=".7" fill="none" stroke-width="0"/>
  <text x="85.0003" y="36.7" fill="#8c8c8c" font-family="Noto Sans" font-size="3.5" text-anchor="end">RXD</text>
  <text class="text" x="93.6" y="34.95" fill="#8c8c8c" font-family="Droid Sans" font-size="2.5" stroke-width="0" text-anchor="middle">4</text>
  <line x1="86.05" x2="100.45" y1="43.2" y2="43.2" fill="none" stroke="#787878" stroke-linecap="round" stroke-linejoin="round" stroke-width=".7"/>
  <rect id="connector6pin" x="86.4" y="42.85" width="14.4" height=".7" fill="none" stroke-width="0" connectorname="GPIO18"/>
  <rect id="connector6terminal" x="100.8" y="42.85" width="0" height=".7" fill="none" stroke-width="0"/>
  <text x="85.0003" y="43.9" fill="#8c8c8c" font-family="Noto Sans" font-size="3.5" text-anchor="end">GPIO18</text>
  <text class="text" x="93.6" y="42.15" fill="#8c8c8c" font-family="Droid Sans" font-size="2.5" stroke-width="0" text-anchor="middle">7</text>
  <line x1="86.05" x2="100.45" y1="50.4" y2="50.4" fill="none" stroke="#787878" stroke-linecap="round" stroke-linejoin="round" stroke-width=".7"/>
  <rect id="connector9pin" x="86.4" y="50.05" width="14.4" height=".7" fill="none" stroke-width="0" connectorname="GPIO23"/>
  <rect id="connector9terminal" x="100.8" y="50.05" width="0" height=".7" fill="none" stroke-width="0"/>
  <text x="85.0003" y="51.1" fill="#8c8c8c" font-family="Noto Sans" font-size="3.5" text-anchor="end">GPIO23</text>
  <text class="text" x="93.6" y="49.35" fill="#8c8c8c" font-family="Droid Sans" font-size="2.5" stroke-width="0" text-anchor="middle">10</text>
  <line x1="86.05" x2="100.45" y1="57.6" y2="57.6" fill="none" stroke="#787878" stroke-linecap="round" stroke-linejoin="round" stroke-width=".7"/>
  <rect id="connector10pin" x="86.4" y="57.25" width="14.4" height=".7" fill="none" stroke-width="0" connectorname="GPIO24"/>
  <rect id="connector10terminal" x="100.8" y="57.25" width="0" height=".7" fill="none" stroke-width="0"/>
  <text x="85.0003" y="58.3" fill="#8c8c8c" font-family="Noto Sans" font-size="3.5" text-anchor="end">GPIO24</text>
  <text class="text" x="93.6" y="56.55" fill="#8c8c8c" font-family="Droid Sans" font-size="2.5" stroke-width="0" text-anchor="middle">11</text>
  <line x1="86.05" x2="100.45" y1="64.8" y2="64.8" fill="none" stroke="#787878" stroke-linecap="round" stroke-linejoin="round" stroke-width=".7"/>
  <rect id="connector11pin" x="86.4" y="64.45" width="14.4" height=".7" fill="none" stroke-width="0" connectorname="TFT_DC"/>
  <rect id="connector11terminal" x="100.8" y="64.45" width="0" height=".7" fill="none" stroke-width="0"/>
  <text x="85.0003" y="65.5" fill="#8c8c8c" font-family="Noto Sans" font-size="3.5" text-anchor="end">TFT_DC</text>
  <text class="text" x="93.6" y="63.75" fill="#8c8c8c" font-family="Droid Sans" font-size="2.5" stroke-width="0" text-anchor="middle">12</text>
  <line x1="86.05" x2="100.45" y1="72" y2="72" fill="none" stroke="#787878" stroke-linecap="round" stroke-linejoin="round" stroke-width=".7"/>
  <rect id="connector15pin" x="86.4" y="71.65" width="14.4" height=".7" fill="none" stroke-width="0" connectorname="SPI_CE0"/>
  <rect id="connector15terminal" x="100.8" y="71.65" width="0" height=".7" fill="none" stroke-width="0"/>
  <text x="85.0003" y="72.6998" fill="#8c8c8c" font-family="Noto Sans" font-size="3.5" text-anchor="end">SPI_CE0</text>
  <text class="text" x="93.6" y="70.95" fill="#8c8c8c" font-family="Droid Sans" font-size="2.5" stroke-width="0" text-anchor="middle">16</text>
  <line x1="86.05" x2="100.45" y1="79.2" y2="79.2" fill="none" stroke="#787878" stroke-linecap="round" stroke-linejoin="round" stroke-width=".7"/>
  <rect id="connector16pin" x="86.4" y="78.85" width="14.4" height=".7" fill="none" stroke-width="0" connectorname="SPI_CE1"/>
  <rect id="connector16terminal" x="100.8" y="78.85" width="0" height=".7" fill="none" stroke-width="0"/>
  <text x="85.0003" y="79.8998" fill="#8c8c8c" font-family="Noto Sans" font-size="3.5" text-anchor="end">SPI_CE1</text>
  <text class="text" x="93.6" y="78.1502" fill="#8c8c8c" font-family="Droid Sans" font-size="2.5" stroke-width="0" text-anchor="middle">17</text>
  <line x1="86.05" x2="100.45" y1="86.4" y2="86.4" fill="none" stroke="#787878" stroke-linecap="round" stroke-linejoin="round" stroke-width=".7"/>
  <rect id="connector85pin" x="86.4" y="86.05" width="14.4" height=".7" fill="none" stroke-width="0" connectorname="EECLK"/>
  <rect id="connector85terminal" x="100.8" y="86.05" width="0" height=".7" fill="none" stroke-width="0"/>
  <text x="85.0003" y="87.0998" fill="#8c8c8c" font-family="Noto Sans" font-size="3.5" text-anchor="end">EECLK</text>
  <text class="text" x="93.6" y="85.3502" fill="#8c8c8c" font-family="Droid Sans" font-size="2.5" stroke-width="0" text-anchor="middle">86</text>
  <line x1="86.05" x2="100.45" y1="93.6" y2="93.6" fill="none" stroke="#787878" stroke-linecap="round" stroke-linejoin="round" stroke-width=".7"/>
  <rect id="connector19pin" x="86.4" y="93.25" width="14.4" height=".7" fill="none" stroke-width="0" connectorname="GPIO12"/>
  <rect id="connector19terminal" x="100.8" y="93.25" width="0" height=".7" fill="none" stroke-width="0"/>
  <text x="85.0003" y="94.2998" fill="#8c8c8c" font-family="Noto Sans" font-size="3.5" text-anchor="end">GPIO12</text>
  <text class="text" x="93.6" y="92.5502" fill="#8c8c8c" font-family="Droid Sans" font-size="2.5" stroke-width="0" text-anchor="middle">20</text>
  <line x1="86.05" x2="100.45" y1="100.8" y2="100.8" fill="none" stroke="#787878" stroke-linecap="round" stroke-linejoin="round" stroke-width=".7"/>
  <rect id="connector21pin" x="86.4" y="100.45" width="14.4" height=".7" fill="none" stroke-width="0" connectorname="GPIO16"/>
  <rect id="connector21terminal" x="100.8" y="100.45" width="0" height=".7" fill="none" stroke-width="0"/>
  <text x="85.0003" y="101.5" fill="#8c8c8c" font-family="Noto Sans" font-size="3.5" text-anchor="end">GPIO16</text>
  <text class="text" x="93.6" y="99.7502" fill="#8c8c8c" font-family="Droid Sans" font-size="2.5" stroke-width="0" text-anchor="middle">22</text>
  <line x1="86.05" x2="100.45" y1="108" y2="108" fill="none" stroke="#787878" stroke-linecap="round" stroke-linejoin="round" stroke-width=".7"/>
  <rect id="connector23pin" x="86.4" y="107.65" width="14.4" height=".7" fill="none" stroke-width="0" connectorname="GPIO20"/>
  <rect id="connector23terminal" x="100.8" y="107.65" width="0" height=".7" fill="none" stroke-width="0"/>
  <text x="85.0003" y="108.7" fill="#8c8c8c" font-family="Noto Sans" font-size="3.5" text-anchor="end">GPIO20</text>
  <text class="text" x="93.6" y="106.95" fill="#8c8c8c" font-family="Droid Sans" font-size="2.5" stroke-width="0" text-anchor="middle">24</text>
  <line x1="86.05" x2="100.45" y1="115.2" y2="115.2" fill="none" stroke="#787878" stroke-linecap="round" stroke-linejoin="round" stroke-width=".7"/>
  <rect id="connector24pin" x="86.4" y="114.85" width="14.4" height=".7" fill="none" stroke-width="0" connectorname="GPIO21"/>
  <rect id="connector24terminal" x="100.8" y="114.85" width="0" height=".7" fill="none" stroke-width="0"/>
  <text x="85.0003" y="115.9" fill="#8c8c8c" font-family="Noto Sans" font-size="3.5" text-anchor="end">GPIO21</text>
  <text class="text" x="93.6" y="114.15" fill="#8c8c8c" font-family="Droid Sans" font-size="2.5" stroke-width="0" text-anchor="middle">25</text>
  <line x1="50.4" x2="50.4" y1=".35" y2="14.4" fill="none" stroke="#787878" stroke-linecap="round" stroke-linejoin="round" stroke-width=".7"/>
  <rect id="connector32pin" x="50.05" width=".7" height="14.4" fill="none" stroke-width="0" connectorname="5.0V"/>
  <rect id="connector32terminal" x="50.05" width=".7" height="0" fill="none" stroke-width="0"/>
  <g transform="translate(51.8 16)">
   <g transform="rotate(270)">
    <text fill="#8c8c8c" font-family="Noto Sans" font-size="3.5" text-anchor="end">5.0V</text>
   </g>
  </g>
  <g transform="translate(49.35 7.2)">
   <g transform="rotate(270)">
    <text class="text" fill="#8c8c8c" font-family="Droid Sans" font-size="2.5" stroke-width="0" text-anchor="middle">33</text>
   </g>
  </g>
  <line x1="57.6" x2="57.6" y1=".35" y2="14.4" fill="none" stroke="#787878" stroke-linecap="round" stroke-linejoin="round" stroke-width=".7"/>
  <rect id="connector34pin" x="57.25" width=".7" height="14.4" fill="none" stroke-width="0" connectorname="3.3V"/>
  <rect id="connector34terminal" x="57.25" width=".7" height="0" fill="none" stroke-width="0"/>
  <g transform="translate(59 16)">
   <g transform="rotate(270)">
    <text fill="#8c8c8c" font-family="Noto Sans" font-size="3.5" text-anchor="end">3.3V</text>
   </g>
  </g>
  <g transform="translate(56.55 7.2)">
   <g transform="rotate(270)">
    <text class="text" fill="#8c8c8c" font-family="Droid Sans" font-size="2.5" stroke-width="0" text-anchor="middle">35</text>
   </g>
  </g>
  <line x1="50.4" x2="50.4" y1="144" y2="158.05" fill="none" stroke="#787878" stroke-linecap="round" stroke-linejoin="round" stroke-width=".7"/>
  <rect id="connector31pin" x="50.05" y="144" width=".7" height="14.4" fill="none" stroke-width="0" connectorname="GND"/>
  <rect id="connector31terminal" x="50.05" y="158.4" width=".7" height="0" fill="none" stroke-width="0"/>
  <g transform="translate(51.8 142.4)">
   <g transform="rotate(270)">
    <text fill="#8c8c8c" font-family="Noto Sans" font-size="3.5">GND</text>
   </g>
  </g>
  <g transform="translate(49.35 151.2)">
   <g transform="rotate(270)">
    <text class="text" fill="#8c8c8c" font-family="Droid Sans" font-size="2.5" stroke-width="0" text-anchor="middle">32</text>
   </g>
  </g>
  <rect id="connector59pin" x="50.05" width=".7" height="14.4" fill="none" stroke-width="0" connectorname="5.0V"/>
  <rect id="connector59terminal" x="50.05" width=".7" height="0" fill="none" stroke-width="0"/>
  <rect id="connector61pin" x="50.05" width=".7" height="14.4" fill="none" stroke-width="0" connectorname="5.0V"/>
  <rect id="connector61terminal" x="50.05" width=".7" height="0" fill="none" stroke-width="0"/>
  <rect id="connector58pin" x="57.25" width=".7" height="14.4" fill="none" stroke-width="0" connectorname="3.3V"/>
  <rect id="connector58terminal" x="57.25" width=".7" height="0" fill="none" stroke-width="0"/>
  <rect id="connector74pin" x="57.25" width=".7" height="14.4" fill="none" stroke-width="0" connectorname="3.3V"/>
  <rect id="connector74terminal" x="57.25" width=".7" height="0" fill="none" stroke-width="0"/>
  <rect id="connector33pin" x="50.05" y="144" width=".7" height="14.4" fill="none" stroke-width="0" connectorname="GND"/>
  <rect id="connector33terminal" x="50.05" y="158.4" width=".7" height="0" fill="none" stroke-width="0"/>
  <rect id="connector63pin" x="50.05" y="144" width=".7" height="14.4" fill="none" stroke-width="0" connectorname="GND"/>
  <rect id="connector63terminal" x="50.05" y="158.4" width=".7" height="0" fill="none" stroke-width="0"/>
  <rect id="connector66pin" x="50.05" y="144" width=".7" height="14.4" fill="none" stroke-width="0" connectorname="GND"/>
  <rect id="connector66terminal" x="50.05" y="158.4" width=".7" height="0" fill="none" stroke-width="0"/>
  <rect id="connector71pin" x="50.05" y="144" width=".7" height="14.4" fill="none" stroke-width="0" connectorname="GND"/>
  <rect id="connector71terminal" x="50.05" y="158.4" width=".7" height="0" fill="none" stroke-width="0"/>
  <rect id="connector77pin" x="50.05" y="144" width=".7" height="14.4" fill="none" stroke-width="0" connectorname="GND"/>
  <rect id="connector77terminal" x="50.05" y="158.4" width=".7" height="0" fill="none" stroke-width="0"/>
  <rect id="connector82pin" x="50.05" y="144" width=".7" height="14.4" fill="none" stroke-width="0" connectorname="GND"/>
  <rect id="connector82terminal" x="50.05" y="158.4" width=".7" height="0" fill="none" stroke-width="0"/>
  <rect id="connector87pin" x="50.05" y="144" width=".7" height="14.4" fill="none" stroke-width="0" connectorname="GND"/>
  <rect id="connector87terminal" x="50.05" y="158.4" width=".7" height="0" fill="none" stroke-width="0"/>
  <rect id="connector91pin" x="50.05" y="144" width=".7" height="14.4" fill="none" stroke-width="0" connectorname="GND"/>
  <rect id="connector91terminal" x="50.05" y="158.4" width=".7" height="0" fill="none" stroke-width="0"/>
  <rect id="connector96pin" x="50.05" y="144" width=".7" height="14.4" fill="none" stroke-width="0" connectorname="GND"/>
  <rect id="connector96terminal" x="50.05" y="158.4" width=".7" height="0" fill="none" stroke-width="0"/>
  <rect id="connector60pin" y="28.45" width="14.4" height=".7" fill="none" stroke-width="0" connectorName="SDA"/>
  <rect id="connector60terminal" y="28.45" width="0" height=".7" fill="none" stroke-width="0"/>
  <rect id="connector62pin" y="35.65" width="14.4" height=".7" fill="none" stroke-width="0" connectorName="SCL"/>
  <rect id="connector62terminal" y="35.65" width="0" height=".7" fill="none" stroke-width="0"/>
  <rect id="connector64pin" y="42.85" width="14.4" height=".7" fill="none" stroke-width="0" connectorName="GPIO4"/>
  <rect id="connector64terminal" y="42.85" width="0" height=".7" fill="none" stroke-width="0"/>
  <rect id="connector68pin" y="50.05" width="14.4" height=".7" fill="none" stroke-width="0" connectorName="GPIO17"/>
  <rect id="connector68terminal" y="50.05" width="0" height=".7" fill="none" stroke-width="0"/>
  <rect id="connector70pin" y="57.25" width="14.4" height=".7" fill="none" stroke-width="0" connectorName="GPIO27"/>
  <rect id="connector70terminal" y="57.25" width="0" height=".7" fill="none" stroke-width="0"/>
  <rect id="connector72pin" y="64.45" width="14.4" height=".7" fill="none" stroke-width="0" connectorName="GPIO22"/>
  <rect id="connector72terminal" y="64.45" width="0" height=".7" fill="none" stroke-width="0"/>
  <rect id="connector76pin" y="71.65" width="14.4" height=".7" fill="none" stroke-width="0" connectorName="SPI_MOSI"/>
  <rect id="connector76terminal" y="71.65" width="0" height=".7" fill="none" stroke-width="0"/>
  <rect id="connector78pin" y="78.85" width="14.4" height=".7" fill="none" stroke-width="0" connectorName="SPI_MISO"/>
  <rect id="connector78terminal" y="78.85" width="0" height=".7" fill="none" stroke-width="0"/>
  <rect id="connector80pin" y="86.05" width="14.4" height=".7" fill="none" stroke-width="0" connectorName="SPI_SCLK"/>
  <rect id="connector80terminal" y="86.05" width="0" height=".7" fill="none" stroke-width="0"/>
  <rect id="connector86pin" y="100.45" width="14.4" height=".7" fill="none" stroke-width="0" connectorName="GPIO5"/>
  <rect id="connector86terminal" y="100.45" width="0" height=".7" fill="none" stroke-width="0"/>
  <rect id="connector88pin" y="107.65" width="14.4" height=".7" fill="none" stroke-width="0" connectorName="GPIO6"/>
  <rect id="connector88terminal" y="107.65" width="0" height=".7" fill="none" stroke-width="0"/>
  <rect id="connector90pin" y="114.85" width="14.4" height=".7" fill="none" stroke-width="0" connectorName="GPIO13"/>
  <rect id="connector90terminal" y="114.85" width="0" height=".7" fill="none" stroke-width="0"/>
  <rect id="connector92pin" y="122.05" width="14.4" height=".7" fill="none" stroke-width="0" connectorName="GPIO19"/>
  <rect id="connector92terminal" y="122.05" width="0" height=".7" fill="none" stroke-width="0"/>
  <rect id="connector65pin" x="86.4" y="28.45" width="14.4" height=".7" fill="none" stroke-width="0" connectorname="TXD"/>
  <rect id="connector65terminal" x="100.8" y="28.45" width="0" height=".7" fill="none" stroke-width="0"/>
  <rect id="connector67pin" x="86.4" y="35.65" width="14.4" height=".7" fill="none" stroke-width="0" connectorname="RXD"/>
  <rect id="connector67terminal" x="100.8" y="35.65" width="0" height=".7" fill="none" stroke-width="0"/>
  <rect id="connector69pin" x="86.4" y="42.85" width="14.4" height=".7" fill="none" stroke-width="0" connectorname="GPIO18"/>
  <rect id="connector69terminal" x="100.8" y="42.85" width="0" height=".7" fill="none" stroke-width="0"/>
  <rect id="connector73pin" x="86.4" y="50.05" width="14.4" height=".7" fill="none" stroke-width="0" connectorname="GPIO23"/>
  <rect id="connector73terminal" x="100.8" y="50.05" width="0" height=".7" fill="none" stroke-width="0"/>
  <rect id="connector75pin" x="86.4" y="57.25" width="14.4" height=".7" fill="none" stroke-width="0" connectorname="GPIO24"/>
  <rect id="connector75terminal" x="100.8" y="57.25" width="0" height=".7" fill="none" stroke-width="0"/>
  <rect id="connector79pin" x="86.4" y="64.45" width="14.4" height=".7" fill="none" stroke-width="0" connectorname="TFT_DC"/>
  <rect id="connector79terminal" x="100.8" y="64.45" width="0" height=".7" fill="none" stroke-width="0"/>
  <rect id="connector81pin" x="86.4" y="71.65" width="14.4" height=".7" fill="none" stroke-width="0" connectorname="SPI_CE0"/>
  <rect id="connector81terminal" x="100.8" y="71.65" width="0" height=".7" fill="none" stroke-width="0"/>
  <rect id="connector83pin" x="86.4" y="78.85" width="14.4" height=".7" fill="none" stroke-width="0" connectorname="SPI_CE1"/>
  <rect id="connector83terminal" x="100.8" y="78.85" width="0" height=".7" fill="none" stroke-width="0"/>
  <rect id="connector89pin" x="86.4" y="93.25" width="14.4" height=".7" fill="none" stroke-width="0" connectorname="GPIO12"/>
  <rect id="connector89terminal" x="100.8" y="93.25" width="0" height=".7" fill="none" stroke-width="0"/>
  <rect id="connector93pin" x="86.4" y="100.45" width="14.4" height=".7" fill="none" stroke-width="0" connectorname="GPIO16"/>
  <rect id="connector93terminal" x="100.8" y="100.45" width="0" height=".7" fill="none" stroke-width="0"/>
  <rect id="connector95pin" x="86.4" y="107.65" width="14.4" height=".7" fill="none" stroke-width="0" connectorname="GPIO20"/>
  <rect id="connector95terminal" x="100.8" y="107.65" width="0" height=".7" fill="none" stroke-width="0"/>
  <rect id="connector97pin" x="86.4" y="114.85" width="14.4" height=".7" fill="none" stroke-width="0" connectorname="GPIO21"/>
  <rect id="connector97terminal" x="100.8" y="114.85" width="0" height=".7" fill="none" stroke-width="0"/>
 </g>
</svg>
