<?xml version="1.0" encoding="UTF-8"?>
<!-- Created with Fritzing (http://www.fritzing.org/) -->
<svg width=".8in" height=".4in" baseProfile="tiny" version="1.2" viewBox="0 0 57.6 28.8" xmlns="http://www.w3.org/2000/svg">
 <desc>
  <referenceFile>Adafruit Touch Screen Breakout_schematic.svg</referenceFile>
 </desc>
 <desc>Fritzing schematic generated by brd2svg</desc>
 <g id="schematic">
  <rect x="14.4" y=".45" width="28.35" height="27.9" fill="none" stroke="#000" stroke-linecap="round" stroke-linejoin="round" stroke-width=".9"/>
  <text id="label" x="28.8" y="7.40002" fill="#000000" font-family="Noto Sans" font-size="3.5" text-anchor="middle"><tspan x="28.8" y="7.40002">Adafruit</tspan> <tspan x="28.8" y="10.9">Touch</tspan> <tspan x="28.8" y="14.4">Screen</tspan> <tspan x="28.8" y="17.9">Breakout</tspan></text>
  <line x1=".35" x2="14.4" y1="7.2" y2="7.2" fill="none" stroke="#787878" stroke-linecap="round" stroke-linejoin="round" stroke-width=".7"/>
  <rect id="connector13pin" y="6.85" width="14.4" height=".7" fill="none" stroke-width="0" connectorName="X+"/>
  <rect id="connector13terminal" y="6.85" width="0" height=".7" fill="none" stroke-width="0"/>
  <text x="15.8" y="7.89998" fill="#8c8c8c" font-family="Noto Sans" font-size="3.5">X+</text>
  <line x1=".35" x2="14.4" y1="14.4" y2="14.4" fill="none" stroke="#787878" stroke-linecap="round" stroke-linejoin="round" stroke-width=".7"/>
  <rect id="connector11pin" y="14.05" width="14.4" height=".7" fill="none" stroke-width="0" connectorName="X-"/>
  <rect id="connector11terminal" y="14.05" width="0" height=".7" fill="none" stroke-width="0"/>
  <text x="15.8" y="15.1" fill="#8c8c8c" font-family="Noto Sans" font-size="3.5">X-</text>
  <line x1="42.85" x2="57.25" y1="7.2" y2="7.2" fill="none" stroke="#787878" stroke-linecap="round" stroke-linejoin="round" stroke-width=".7"/>
  <rect id="connector12pin" x="43.2" y="6.85" width="14.4" height=".7" fill="none" stroke-width="0" connectorname="Y+"/>
  <rect id="connector12terminal" x="57.6" y="6.85" width="0" height=".7" fill="none" stroke-width="0"/>
  <text x="41.8" y="7.89998" fill="#8c8c8c" font-family="Noto Sans" font-size="3.5" text-anchor="end">Y+</text>
  <line x1="42.85" x2="57.25" y1="14.4" y2="14.4" fill="none" stroke="#787878" stroke-linecap="round" stroke-linejoin="round" stroke-width=".7"/>
  <rect id="connector14pin" x="43.2" y="14.05" width="14.4" height=".7" fill="none" stroke-width="0" connectorname="Y-"/>
  <rect id="connector14terminal" x="57.6" y="14.05" width="0" height=".7" fill="none" stroke-width="0"/>
  <text x="41.8" y="15.1" fill="#8c8c8c" font-family="Noto Sans" font-size="3.5" text-anchor="end">Y-</text>
 </g>
</svg>
