<?xml version="1.0" encoding="UTF-8"?>
<!DOCTYPE svg>
<!-- Generator: Adobe Illustrator 26.2.1, SVG Export Plug-In . SVG Version: 6.00 Build 0)  -->
<svg width="1.3in" height="2.5in" enable-background="new 0 0 93.6 180" version="1.1" viewBox="0 0 93.6 180" xml:space="preserve" xmlns="http://www.w3.org/2000/svg" xmlns:xml="http://www.w3.org/XML/1998/namespace">
    <desc>
        <referenceFile>Feather RP2040 Scorpio rev A_schematic.svg</referenceFile>
    </desc>
    <metadata>
        <sfw>
            <slices/>
            <sliceSourceBounds x="0" y="0" width="93.6001" height="180" bottomLeftOrigin="true"/>
        </sfw>
    </metadata>
    <desc>Fritzing schematic generated by brd2svg</desc>
    <g id="schematic">
        <rect x="14.4" y="14.4" width="64.35" height="151.2" fill="none" stroke="#000" stroke-linecap="round" stroke-linejoin="round" stroke-width=".9"/>
        <g transform="translate(40.817 75.9)">
            <text id="label" font-family="Noto Sans" font-size="2.8">Feather</text>
        </g>
        <g transform="translate(40.904 79.4)">
            <text font-family="Noto Sans" font-size="2.8">RP2040</text>
        </g>
        <g transform="translate(40.885 82.9)">
            <text font-family="Noto Sans" font-size="2.8">Scorpio</text>
        </g>
        <line x1=".35" x2="14.4" y1="36" y2="36" fill="none" stroke="#787878" stroke-linecap="round" stroke-linejoin="round" stroke-width=".7"/>
        <rect id="connector129pin" y="35.65" width="14.4" height=".7" fill="none"/>
        <rect id="connector129terminal" y="35.65" width="0" height=".7" fill="none"/>
        <g transform="translate(15.8 36.7)">
            <text fill="#8C8C8C" font-family="Noto Sans" font-size="2.8">!RESET</text>
        </g>
        <line x1=".35" x2="14.4" y1="43.2" y2="43.2" fill="none" stroke="#787878" stroke-linecap="round" stroke-linejoin="round" stroke-width=".7"/>
        <rect id="connector125pin" y="42.85" width="14.4" height=".7" fill="none"/>
        <rect id="connector125terminal" y="42.85" width="0" height=".7" fill="none"/>
        <g transform="translate(15.8 43.9)">
            <text fill="#8C8C8C" font-family="Noto Sans" font-size="2.8">A0</text>
        </g>
        <line x1=".35" x2="14.4" y1="50.4" y2="50.4" fill="none" stroke="#787878" stroke-linecap="round" stroke-linejoin="round" stroke-width=".7"/>
        <rect id="connector124pin" y="50.05" width="14.4" height=".7" fill="none"/>
        <rect id="connector124terminal" y="50.05" width="0" height=".7" fill="none"/>
        <g transform="translate(15.8 51.1)">
            <text fill="#8C8C8C" font-family="Noto Sans" font-size="2.8">A1</text>
        </g>
        <line x1=".35" x2="14.4" y1="57.6" y2="57.6" fill="none" stroke="#787878" stroke-linecap="round" stroke-linejoin="round" stroke-width=".7"/>
        <rect id="connector123pin" y="57.25" width="14.4" height=".7" fill="none"/>
        <rect id="connector123terminal" y="57.25" width="0" height=".7" fill="none"/>
        <g transform="translate(15.8 58.3)">
            <text fill="#8C8C8C" font-family="Noto Sans" font-size="2.8">A2</text>
        </g>
        <line x1=".35" x2="14.4" y1="64.8" y2="64.8" fill="none" stroke="#787878" stroke-linecap="round" stroke-linejoin="round" stroke-width=".7"/>
        <rect id="connector122pin" y="64.45" width="14.4" height=".7" fill="none"/>
        <rect id="connector122terminal" y="64.45" width="0" height=".7" fill="none"/>
        <g transform="translate(15.8 65.5)">
            <text fill="#8C8C8C" font-family="Noto Sans" font-size="2.8">A3</text>
        </g>
        <line x1=".35" x2="14.4" y1="72" y2="72" fill="none" stroke="#787878" stroke-linecap="round" stroke-linejoin="round" stroke-width=".7"/>
        <rect id="connector121pin" y="71.65" width="14.4" height=".7" fill="none"/>
        <rect id="connector121terminal" y="71.65" width="0" height=".7" fill="none"/>
        <g transform="translate(15.8 72.7)">
            <text fill="#8C8C8C" font-family="Noto Sans" font-size="2.8">D24</text>
        </g>
        <line x1=".35" x2="14.4" y1="79.2" y2="79.2" fill="none" stroke="#787878" stroke-linecap="round" stroke-linejoin="round" stroke-width=".7"/>
        <rect id="connector120pin" y="78.85" width="14.4" height=".7" fill="none"/>
        <rect id="connector120terminal" y="78.85" width="0" height=".7" fill="none"/>
        <g transform="translate(15.8 79.9)">
            <text fill="#8C8C8C" font-family="Noto Sans" font-size="2.8">D25</text>
        </g>
        <line x1=".35" x2="14.4" y1="86.4" y2="86.4" fill="none" stroke="#787878" stroke-linecap="round" stroke-linejoin="round" stroke-width=".7"/>
        <rect id="connector119pin" y="86.05" width="14.4" height=".7" fill="none"/>
        <rect id="connector119terminal" y="86.05" width="0" height=".7" fill="none"/>
        <g transform="translate(15.8 87.1)">
            <text fill="#8C8C8C" font-family="Noto Sans" font-size="2.8">SCK</text>
        </g>
        <line x1=".35" x2="14.4" y1="93.6" y2="93.6" fill="none" stroke="#787878" stroke-linecap="round" stroke-linejoin="round" stroke-width=".7"/>
        <rect id="connector118pin" y="93.25" width="14.4" height=".7" fill="none"/>
        <rect id="connector118terminal" y="93.25" width="0" height=".7" fill="none"/>
        <g transform="translate(15.8 94.3)">
            <text fill="#8C8C8C" font-family="Noto Sans" font-size="2.8">MOSI</text>
        </g>
        <line x1=".35" x2="14.4" y1="100.8" y2="100.8" fill="none" stroke="#787878" stroke-linecap="round" stroke-linejoin="round" stroke-width=".7"/>
        <rect id="connector117pin" y="100.45" width="14.4" height=".7" fill="none"/>
        <rect id="connector117terminal" y="100.45" width="0" height=".7" fill="none"/>
        <g transform="translate(15.8 101.5)">
            <text fill="#8C8C8C" font-family="Noto Sans" font-size="2.8">MISO</text>
        </g>
        <line x1=".35" x2="14.4" y1="108" y2="108" fill="none" stroke="#787878" stroke-linecap="round" stroke-linejoin="round" stroke-width=".7"/>
        <rect id="connector116pin" y="107.65" width="14.4" height=".7" fill="none"/>
        <rect id="connector116terminal" y="107.65" width="0" height=".7" fill="none"/>
        <g transform="translate(15.8 108.7)">
            <text fill="#8C8C8C" font-family="Noto Sans" font-size="2.8">RX</text>
        </g>
        <line x1=".35" x2="14.4" y1="115.2" y2="115.2" fill="none" stroke="#787878" stroke-linecap="round" stroke-linejoin="round" stroke-width=".7"/>
        <rect id="connector115pin" y="114.85" width="14.4" height=".7" fill="none"/>
        <rect id="connector115terminal" y="114.85" width="0" height=".7" fill="none"/>
        <g transform="translate(15.8 115.9)">
            <text fill="#8C8C8C" font-family="Noto Sans" font-size="2.8">TX</text>
        </g>
        <line x1=".35" x2="14.4" y1="122.4" y2="122.4" fill="none" stroke="#787878" stroke-linecap="round" stroke-linejoin="round" stroke-width=".7"/>
        <rect id="connector114pin" y="122.05" width="14.4" height=".7" fill="none"/>
        <rect id="connector114terminal" y="122.05" width="0" height=".7" fill="none"/>
        <g transform="translate(15.8 123.1)">
            <text fill="#8C8C8C" font-family="Noto Sans" font-size="2.8">D4</text>
        </g>
        <line x1=".35" x2="14.4" y1="129.6" y2="129.6" fill="none" stroke="#787878" stroke-linecap="round" stroke-linejoin="round" stroke-width=".7"/>
        <rect id="connector131pin" y="129.25" width="14.4" height=".7" fill="none"/>
        <rect id="connector131terminal" y="129.25" width="0" height=".7" fill="none"/>
        <g transform="translate(15.8 130.3)">
            <text fill="#8C8C8C" font-family="Noto Sans" font-size="2.8">NEO7</text>
        </g>
        <line x1=".35" x2="14.4" y1="136.8" y2="136.8" fill="none" stroke="#787878" stroke-linecap="round" stroke-linejoin="round" stroke-width=".7"/>
        <rect id="connector133pin" y="136.45" width="14.4" height=".7" fill="none"/>
        <rect id="connector133terminal" y="136.45" width="0" height=".7" fill="none"/>
        <g transform="translate(15.8 137.5)">
            <text fill="#8C8C8C" font-family="Noto Sans" font-size="2.8">NEO6</text>
        </g>
        <line x1=".35" x2="14.4" y1="144" y2="144" fill="none" stroke="#787878" stroke-linecap="round" stroke-linejoin="round" stroke-width=".7"/>
        <rect id="connector135pin" y="143.65" width="14.4" height=".7" fill="none"/>
        <rect id="connector135terminal" y="143.65" width="0" height=".7" fill="none"/>
        <g transform="translate(15.8 144.7)">
            <text fill="#8C8C8C" font-family="Noto Sans" font-size="2.8">NEO5</text>
        </g>
        <line x1=".35" x2="14.4" y1="151.2" y2="151.2" fill="none" stroke="#787878" stroke-linecap="round" stroke-linejoin="round" stroke-width=".7"/>
        <rect id="connector137pin" y="150.85" width="14.4" height=".7" fill="none"/>
        <rect id="connector137terminal" y="150.85" width="0" height=".7" fill="none"/>
        <g transform="translate(15.8 151.9)">
            <text fill="#8C8C8C" font-family="Noto Sans" font-size="2.8">NEO4</text>
        </g>
        <line x1="78.85" x2="93.25" y1="36" y2="36" fill="none" stroke="#787878" stroke-linecap="round" stroke-linejoin="round" stroke-width=".7"/>
        <rect id="connector147pin" x="79.2" y="35.65" width="14.4" height=".7" fill="none"/>
        <rect id="connector147terminal" x="93.6" y="35.65" width="0" height=".7" fill="none"/>
        <g transform="translate(73.401 36.7)">
            <text fill="#8C8C8C" font-family="Noto Sans" font-size="2.8">EN</text>
        </g>
        <line x1="78.85" x2="93.25" y1="43.2" y2="43.2" fill="none" stroke="#787878" stroke-linecap="round" stroke-linejoin="round" stroke-width=".7"/>
        <rect id="connector149pin" x="79.2" y="42.85" width="14.4" height=".7" fill="none"/>
        <rect id="connector149terminal" x="93.6" y="42.85" width="0" height=".7" fill="none"/>
        <g transform="translate(71.55 43.9)">
            <text fill="#8C8C8C" font-family="Noto Sans" font-size="2.8">D13</text>
        </g>
        <line x1="78.85" x2="93.25" y1="50.4" y2="50.4" fill="none" stroke="#787878" stroke-linecap="round" stroke-linejoin="round" stroke-width=".7"/>
        <rect id="connector150pin" x="79.2" y="50.05" width="14.4" height=".7" fill="none"/>
        <rect id="connector150terminal" x="93.6" y="50.05" width="0" height=".7" fill="none"/>
        <g transform="translate(71.55 51.1)">
            <text fill="#8C8C8C" font-family="Noto Sans" font-size="2.8">D12</text>
        </g>
        <line x1="78.85" x2="93.25" y1="57.6" y2="57.6" fill="none" stroke="#787878" stroke-linecap="round" stroke-linejoin="round" stroke-width=".7"/>
        <rect id="connector151pin" x="79.2" y="57.25" width="14.4" height=".7" fill="none"/>
        <rect id="connector151terminal" x="93.6" y="57.25" width="0" height=".7" fill="none"/>
        <g transform="translate(71.55 58.3)">
            <text fill="#8C8C8C" font-family="Noto Sans" font-size="2.8">D11</text>
        </g>
        <line x1="78.85" x2="93.25" y1="64.8" y2="64.8" fill="none" stroke="#787878" stroke-linecap="round" stroke-linejoin="round" stroke-width=".7"/>
        <rect id="connector152pin" x="79.2" y="64.45" width="14.4" height=".7" fill="none"/>
        <rect id="connector152terminal" x="93.6" y="64.45" width="0" height=".7" fill="none"/>
        <g transform="translate(71.55 65.5)">
            <text fill="#8C8C8C" font-family="Noto Sans" font-size="2.8">D10</text>
        </g>
        <line x1="78.85" x2="93.25" y1="72" y2="72" fill="none" stroke="#787878" stroke-linecap="round" stroke-linejoin="round" stroke-width=".7"/>
        <rect id="connector153pin" x="79.2" y="71.65" width="14.4" height=".7" fill="none"/>
        <rect id="connector153terminal" x="93.6" y="71.65" width="0" height=".7" fill="none"/>
        <g transform="translate(73.478 72.7)">
            <text fill="#8C8C8C" font-family="Noto Sans" font-size="2.8">D9</text>
        </g>
        <line x1="78.85" x2="93.25" y1="79.2" y2="79.2" fill="none" stroke="#787878" stroke-linecap="round" stroke-linejoin="round" stroke-width=".7"/>
        <rect id="connector154pin" x="79.2" y="78.85" width="14.4" height=".7" fill="none"/>
        <rect id="connector154terminal" x="93.6" y="78.85" width="0" height=".7" fill="none"/>
        <g transform="translate(73.478 79.9)">
            <text fill="#8C8C8C" font-family="Noto Sans" font-size="2.8">D6</text>
        </g>
        <line x1="78.85" x2="93.25" y1="86.4" y2="86.4" fill="none" stroke="#787878" stroke-linecap="round" stroke-linejoin="round" stroke-width=".7"/>
        <rect id="connector155pin" x="79.2" y="86.05" width="14.4" height=".7" fill="none"/>
        <rect id="connector155terminal" x="93.6" y="86.05" width="0" height=".7" fill="none"/>
        <g transform="translate(73.478 87.1)">
            <text fill="#8C8C8C" font-family="Noto Sans" font-size="2.8">D5</text>
        </g>
        <line x1="78.85" x2="93.25" y1="93.6" y2="93.6" fill="none" stroke="#787878" stroke-linecap="round" stroke-linejoin="round" stroke-width=".7"/>
        <rect id="connector50pin" x="79.2" y="93.25" width="14.4" height=".7" fill="none"/>
        <rect id="connector50terminal" x="93.6" y="93.25" width="0" height=".7" fill="none"/>
        <g transform="translate(72.154 94.3)">
            <text fill="#8C8C8C" font-family="Noto Sans" font-size="2.8">SCL</text>
        </g>
        <line x1="78.85" x2="93.25" y1="100.8" y2="100.8" fill="none" stroke="#787878" stroke-linecap="round" stroke-linejoin="round" stroke-width=".7"/>
        <rect id="connector49pin" x="79.2" y="100.45" width="14.4" height=".7" fill="none"/>
        <rect id="connector49terminal" x="93.6" y="100.45" width="0" height=".7" fill="none"/>
        <g transform="translate(71.496 101.5)">
            <text fill="#8C8C8C" font-family="Noto Sans" font-size="2.8">SDA</text>
        </g>
        <line x1="78.85" x2="93.25" y1="108" y2="108" fill="none" stroke="#787878" stroke-linecap="round" stroke-linejoin="round" stroke-width=".7"/>
        <rect id="connector145pin" x="79.2" y="107.65" width="14.4" height=".7" fill="none"/>
        <rect id="connector145terminal" x="93.6" y="107.65" width="0" height=".7" fill="none"/>
        <g transform="translate(68.876 108.7)">
            <text fill="#8C8C8C" font-family="Noto Sans" font-size="2.8">NEO0</text>
        </g>
        <line x1="78.85" x2="93.25" y1="115.2" y2="115.2" fill="none" stroke="#787878" stroke-linecap="round" stroke-linejoin="round" stroke-width=".7"/>
        <rect id="connector143pin" x="79.2" y="114.85" width="14.4" height=".7" fill="none"/>
        <rect id="connector143terminal" x="93.6" y="114.85" width="0" height=".7" fill="none"/>
        <g transform="translate(68.876 115.9)">
            <text fill="#8C8C8C" font-family="Noto Sans" font-size="2.8">NEO1</text>
        </g>
        <line x1="78.85" x2="93.25" y1="122.4" y2="122.4" fill="none" stroke="#787878" stroke-linecap="round" stroke-linejoin="round" stroke-width=".7"/>
        <rect id="connector141pin" x="79.2" y="122.05" width="14.4" height=".7" fill="none"/>
        <rect id="connector141terminal" x="93.6" y="122.05" width="0" height=".7" fill="none"/>
        <g transform="translate(68.876 123.1)">
            <text fill="#8C8C8C" font-family="Noto Sans" font-size="2.8">NEO2</text>
        </g>
        <line x1="78.85" x2="93.25" y1="129.6" y2="129.6" fill="none" stroke="#787878" stroke-linecap="round" stroke-linejoin="round" stroke-width=".7"/>
        <rect id="connector139pin" x="79.2" y="129.25" width="14.4" height=".7" fill="none"/>
        <rect id="connector139terminal" x="93.6" y="129.25" width="0" height=".7" fill="none"/>
        <g transform="translate(68.876 130.3)">
            <text fill="#8C8C8C" font-family="Noto Sans" font-size="2.8">NEO3</text>
        </g>
        <line x1="36" x2="36" y1=".35" y2="14.4" fill="none" stroke="#787878" stroke-linecap="round" stroke-linejoin="round" stroke-width=".7"/>
        <rect id="connector48pin" x="35.65" width=".7" height="14.4" fill="none"/>
        <polygon id="connector48terminal" points="35.65 0 36.35 0 36.35 0" fill="none"/>
        <g transform="translate(37.4 16)">
            
                <g transform="rotate(270)">
                    
                        <g transform="translate(-7.7705 2.2414e-5)">
                            <text fill="#8C8C8C" font-family="Noto Sans" font-size="2.8">+3V3</text>
                        </g>
                    
                </g>
            
        </g>
        <line x1="43.2" x2="43.2" y1=".35" y2="14.4" fill="none" stroke="#787878" stroke-linecap="round" stroke-linejoin="round" stroke-width=".7"/>
        <rect id="connector146pin" x="42.85" width=".7" height="14.4" fill="none"/>
        <polygon id="connector146terminal" points="42.85 0 43.55 0 43.55 0" fill="none"/>
        <g transform="translate(44.6 16)">
            
                <g transform="rotate(270)">
                    
                        <g transform="translate(-7.8955 -2.2414e-5)">
                            <text fill="#8C8C8C" font-family="Noto Sans" font-size="2.8">VBAT</text>
                        </g>
                    
                </g>
            
        </g>
        <line x1="50.4" x2="50.4" y1=".35" y2="14.4" fill="none" stroke="#787878" stroke-linecap="round" stroke-linejoin="round" stroke-width=".7"/>
        <rect id="connector148pin" x="50.05" width=".7" height="14.4" fill="none"/>
        <polygon id="connector148terminal" points="50.05 0 50.75 0 50.75 0" fill="none"/>
        <g transform="translate(51.8 16)">
            
                <g transform="rotate(270)">
                    
                        <g transform="translate(-8.4219 -1.1207e-5)">
                            <text fill="#8C8C8C" font-family="Noto Sans" font-size="2.8">VBUS</text>
                        </g>
                    
                </g>
            
        </g>
        <line x1="43.2" x2="43.2" y1="165.6" y2="179.65" fill="none" stroke="#787878" stroke-linecap="round" stroke-linejoin="round" stroke-width=".7"/>
        <rect id="connector47pin" x="42.85" y="165.6" width=".7" height="14.4" fill="none"/>
        <polygon id="connector47terminal" points="42.85 180 43.55 180 43.55 180" fill="none"/>
        <g transform="translate(44.6 164)">
            
                <g transform="rotate(270)">
                    
                        <g transform="translate(0 -2.2414e-5)">
                            <text fill="#8C8C8C" font-family="Noto Sans" font-size="2.8">GND</text>
                        </g>
                    
                </g>
            
        </g>
        <rect id="connector127pin" x="35.65" width=".7" height="14.4" fill="none"/>
        <polygon id="connector127terminal" points="35.65 0 36.35 0 36.35 0" fill="none"/>
        <rect id="connector128pin" x="35.65" width=".7" height="14.4" fill="none"/>
        <polygon id="connector128terminal" points="35.65 0 36.35 0 36.35 0" fill="none"/>
        <rect id="connector262pin" x="42.85" width=".7" height="14.4" fill="none"/>
        <polygon id="connector262terminal" points="42.85 0 43.55 0 43.55 0" fill="none"/>
        <rect id="connector126pin" x="42.85" y="165.6" width=".7" height="14.4" fill="none"/>
        <polygon id="connector126terminal" points="42.85 180 43.55 180 43.55 180" fill="none"/>
        <rect id="connector130pin" x="42.85" y="165.6" width=".7" height="14.4" fill="none"/>
        <polygon id="connector130terminal" points="42.85 180 43.55 180 43.55 180" fill="none"/>
        <rect id="connector132pin" x="42.85" y="165.6" width=".7" height="14.4" fill="none"/>
        <polygon id="connector132terminal" points="42.85 180 43.55 180 43.55 180" fill="none"/>
        <rect id="connector134pin" x="42.85" y="165.6" width=".7" height="14.4" fill="none"/>
        <polygon id="connector134terminal" points="42.85 180 43.55 180 43.55 180" fill="none"/>
        <rect id="connector136pin" x="42.85" y="165.6" width=".7" height="14.4" fill="none"/>
        <polygon id="connector136terminal" points="42.85 180 43.55 180 43.55 180" fill="none"/>
        <rect id="connector138pin" x="42.85" y="165.6" width=".7" height="14.4" fill="none"/>
        <polygon id="connector138terminal" points="42.85 180 43.55 180 43.55 180" fill="none"/>
        <rect id="connector140pin" x="42.85" y="165.6" width=".7" height="14.4" fill="none"/>
        <polygon id="connector140terminal" points="42.85 180 43.55 180 43.55 180" fill="none"/>
        <rect id="connector142pin" x="42.85" y="165.6" width=".7" height="14.4" fill="none"/>
        <polygon id="connector142terminal" points="42.85 180 43.55 180 43.55 180" fill="none"/>
        <rect id="connector144pin" x="42.85" y="165.6" width=".7" height="14.4" fill="none"/>
        <polygon id="connector144terminal" points="42.85 180 43.55 180 43.55 180" fill="none"/>
        <rect id="connector261pin" x="42.85" y="165.6" width=".7" height="14.4" fill="none"/>
        <polygon id="connector261terminal" points="42.85 180 43.55 180 43.55 180" fill="none"/>
        <rect id="connector156pin" x="79.2" y="93.25" width="14.4" height=".7" fill="none"/>
        <rect id="connector156terminal" x="93.6" y="93.25" width="0" height=".7" fill="none"/>
        <rect id="connector157pin" x="79.2" y="100.45" width="14.4" height=".7" fill="none"/>
        <rect id="connector157terminal" x="93.6" y="100.45" width="0" height=".7" fill="none"/>
    </g>
    <g transform="translate(40.602 72.35)">
        <text font-family="Noto Sans" font-size="2.8">Adafruit</text>
    </g>
</svg>
