<?xml version="1.0" encoding="UTF-8"?>
<!-- Created with Fritzing (http://www.fritzing.org/) -->
<svg width="1.1in" height="2.1in" baseProfile="tiny" version="1.2" viewBox="0 0 79.2 151.2" xmlns="http://www.w3.org/2000/svg">
 <desc>
  <referenceFile>Adafruit I2C to 8 Channel Solenoid Driver_schematic.svg</referenceFile>
 </desc>
 <desc>Fritzing schematic generated by brd2svg</desc>
 <g id="schematic">
  <rect x="14.4" y="14.4" width="49.95" height="122.4" fill="none" stroke="#000" stroke-linecap="round" stroke-linejoin="round" stroke-width=".9"/>
  <text id="label" x="39.6" y="58" fill="#000000" font-family="Noto Sans" font-size="3.5" text-anchor="middle"><tspan x="39.6" y="58">Adafruit</tspan> <tspan x="39.6" y="61.5">I2C</tspan> <tspan x="39.6" y="65">to</tspan> <tspan x="39.6" y="68.5">8</tspan> <tspan x="39.6" y="72">Channel</tspan> <tspan x="39.6" y="75.4999">Solenoid</tspan> <tspan x="39.6" y="78.9998">Driver</tspan></text>
  <line x1=".35" x2="14.4" y1="28.8" y2="28.8" fill="none" stroke="#787878" stroke-linecap="round" stroke-linejoin="round" stroke-width=".7"/>
  <rect id="connector90pin" y="28.45" width="14.4" height=".7" fill="none" stroke-width="0" connectorName="OUT0"/>
  <rect id="connector90terminal" y="28.45" width="0" height=".7" fill="none" stroke-width="0"/>
  <text x="15.8" y="29.5" fill="#8c8c8c" font-family="Noto Sans" font-size="3.5">OUT0</text>
  <line x1=".35" x2="14.4" y1="36" y2="36" fill="none" stroke="#787878" stroke-linecap="round" stroke-linejoin="round" stroke-width=".7"/>
  <rect id="connector92pin" y="35.65" width="14.4" height=".7" fill="none" stroke-width="0" connectorName="OUT1"/>
  <rect id="connector92terminal" y="35.65" width="0" height=".7" fill="none" stroke-width="0"/>
  <text x="15.8" y="36.7" fill="#8c8c8c" font-family="Noto Sans" font-size="3.5">OUT1</text>
  <line x1=".35" x2="14.4" y1="43.2" y2="43.2" fill="none" stroke="#787878" stroke-linecap="round" stroke-linejoin="round" stroke-width=".7"/>
  <rect id="connector94pin" y="42.85" width="14.4" height=".7" fill="none" stroke-width="0" connectorName="OUT2"/>
  <rect id="connector94terminal" y="42.85" width="0" height=".7" fill="none" stroke-width="0"/>
  <text x="15.8" y="43.9" fill="#8c8c8c" font-family="Noto Sans" font-size="3.5">OUT2</text>
  <line x1=".35" x2="14.4" y1="50.4" y2="50.4" fill="none" stroke="#787878" stroke-linecap="round" stroke-linejoin="round" stroke-width=".7"/>
  <rect id="connector96pin" y="50.05" width="14.4" height=".7" fill="none" stroke-width="0" connectorName="OUT3"/>
  <rect id="connector96terminal" y="50.05" width="0" height=".7" fill="none" stroke-width="0"/>
  <text x="15.8" y="51.1" fill="#8c8c8c" font-family="Noto Sans" font-size="3.5">OUT3</text>
  <line x1=".35" x2="14.4" y1="57.6" y2="57.6" fill="none" stroke="#787878" stroke-linecap="round" stroke-linejoin="round" stroke-width=".7"/>
  <rect id="connector122pin" y="57.25" width="14.4" height=".7" fill="none" stroke-width="0" connectorName="OUT4"/>
  <rect id="connector122terminal" y="57.25" width="0" height=".7" fill="none" stroke-width="0"/>
  <text x="15.8" y="58.3" fill="#8c8c8c" font-family="Noto Sans" font-size="3.5">OUT4</text>
  <line x1=".35" x2="14.4" y1="64.8" y2="64.8" fill="none" stroke="#787878" stroke-linecap="round" stroke-linejoin="round" stroke-width=".7"/>
  <rect id="connector124pin" y="64.45" width="14.4" height=".7" fill="none" stroke-width="0" connectorName="OUT5"/>
  <rect id="connector124terminal" y="64.45" width="0" height=".7" fill="none" stroke-width="0"/>
  <text x="15.8" y="65.5" fill="#8c8c8c" font-family="Noto Sans" font-size="3.5">OUT5</text>
  <line x1=".35" x2="14.4" y1="72" y2="72" fill="none" stroke="#787878" stroke-linecap="round" stroke-linejoin="round" stroke-width=".7"/>
  <rect id="connector126pin" y="71.65" width="14.4" height=".7" fill="none" stroke-width="0" connectorName="OUT6"/>
  <rect id="connector126terminal" y="71.65" width="0" height=".7" fill="none" stroke-width="0"/>
  <text x="15.8" y="72.6998" fill="#8c8c8c" font-family="Noto Sans" font-size="3.5">OUT6</text>
  <line x1=".35" x2="14.4" y1="79.2" y2="79.2" fill="none" stroke="#787878" stroke-linecap="round" stroke-linejoin="round" stroke-width=".7"/>
  <rect id="connector128pin" y="78.85" width="14.4" height=".7" fill="none" stroke-width="0" connectorName="OUT7"/>
  <rect id="connector128terminal" y="78.85" width="0" height=".7" fill="none" stroke-width="0"/>
  <text x="15.8" y="79.8998" fill="#8c8c8c" font-family="Noto Sans" font-size="3.5">OUT7</text>
  <line x1="64.45" x2="78.85" y1="28.8" y2="28.8" fill="none" stroke="#787878" stroke-linecap="round" stroke-linejoin="round" stroke-width=".7"/>
  <rect id="connector105pin" x="64.8" y="28.45" width="14.4" height=".7" fill="none" stroke-width="0" connectorname="A0"/>
  <rect id="connector105terminal" x="79.2" y="28.45" width="0" height=".7" fill="none" stroke-width="0"/>
  <text x="63.4" y="29.5" fill="#8c8c8c" font-family="Noto Sans" font-size="3.5" text-anchor="end">A0</text>
  <line x1="64.45" x2="78.85" y1="36" y2="36" fill="none" stroke="#787878" stroke-linecap="round" stroke-linejoin="round" stroke-width=".7"/>
  <rect id="connector104pin" x="64.8" y="35.65" width="14.4" height=".7" fill="none" stroke-width="0" connectorname="A1"/>
  <rect id="connector104terminal" x="79.2" y="35.65" width="0" height=".7" fill="none" stroke-width="0"/>
  <text x="63.4" y="36.7" fill="#8c8c8c" font-family="Noto Sans" font-size="3.5" text-anchor="end">A1</text>
  <line x1="64.45" x2="78.85" y1="43.2" y2="43.2" fill="none" stroke="#787878" stroke-linecap="round" stroke-linejoin="round" stroke-width=".7"/>
  <rect id="connector103pin" x="64.8" y="42.85" width="14.4" height=".7" fill="none" stroke-width="0" connectorname="A2"/>
  <rect id="connector103terminal" x="79.2" y="42.85" width="0" height=".7" fill="none" stroke-width="0"/>
  <text x="63.4" y="43.9" fill="#8c8c8c" font-family="Noto Sans" font-size="3.5" text-anchor="end">A2</text>
  <line x1="64.45" x2="78.85" y1="50.4" y2="50.4" fill="none" stroke="#787878" stroke-linecap="round" stroke-linejoin="round" stroke-width=".7"/>
  <rect id="connector102pin" x="64.8" y="50.05" width="14.4" height=".7" fill="none" stroke-width="0" connectorname="INTB"/>
  <rect id="connector102terminal" x="79.2" y="50.05" width="0" height=".7" fill="none" stroke-width="0"/>
  <text x="63.4" y="51.1" fill="#8c8c8c" font-family="Noto Sans" font-size="3.5" text-anchor="end">INTB</text>
  <line x1="64.45" x2="78.85" y1="57.6" y2="57.6" fill="none" stroke="#787878" stroke-linecap="round" stroke-linejoin="round" stroke-width=".7"/>
  <rect id="connector113pin" x="64.8" y="57.25" width="14.4" height=".7" fill="none" stroke-width="0" connectorname="GPB7"/>
  <rect id="connector113terminal" x="79.2" y="57.25" width="0" height=".7" fill="none" stroke-width="0"/>
  <text x="63.4" y="58.3" fill="#8c8c8c" font-family="Noto Sans" font-size="3.5" text-anchor="end">GPB7</text>
  <line x1="64.45" x2="78.85" y1="64.8" y2="64.8" fill="none" stroke="#787878" stroke-linecap="round" stroke-linejoin="round" stroke-width=".7"/>
  <rect id="connector112pin" x="64.8" y="64.45" width="14.4" height=".7" fill="none" stroke-width="0" connectorname="GPB6"/>
  <rect id="connector112terminal" x="79.2" y="64.45" width="0" height=".7" fill="none" stroke-width="0"/>
  <text x="63.4" y="65.5" fill="#8c8c8c" font-family="Noto Sans" font-size="3.5" text-anchor="end">GPB6</text>
  <line x1="64.45" x2="78.85" y1="72" y2="72" fill="none" stroke="#787878" stroke-linecap="round" stroke-linejoin="round" stroke-width=".7"/>
  <rect id="connector111pin" x="64.8" y="71.65" width="14.4" height=".7" fill="none" stroke-width="0" connectorname="GPB5"/>
  <rect id="connector111terminal" x="79.2" y="71.65" width="0" height=".7" fill="none" stroke-width="0"/>
  <text x="63.4" y="72.6998" fill="#8c8c8c" font-family="Noto Sans" font-size="3.5" text-anchor="end">GPB5</text>
  <line x1="64.45" x2="78.85" y1="79.2" y2="79.2" fill="none" stroke="#787878" stroke-linecap="round" stroke-linejoin="round" stroke-width=".7"/>
  <rect id="connector110pin" x="64.8" y="78.85" width="14.4" height=".7" fill="none" stroke-width="0" connectorname="GPB4"/>
  <rect id="connector110terminal" x="79.2" y="78.85" width="0" height=".7" fill="none" stroke-width="0"/>
  <text x="63.4" y="79.8998" fill="#8c8c8c" font-family="Noto Sans" font-size="3.5" text-anchor="end">GPB4</text>
  <line x1="64.45" x2="78.85" y1="86.4" y2="86.4" fill="none" stroke="#787878" stroke-linecap="round" stroke-linejoin="round" stroke-width=".7"/>
  <rect id="connector109pin" x="64.8" y="86.05" width="14.4" height=".7" fill="none" stroke-width="0" connectorname="GPB3"/>
  <rect id="connector109terminal" x="79.2" y="86.05" width="0" height=".7" fill="none" stroke-width="0"/>
  <text x="63.4" y="87.0998" fill="#8c8c8c" font-family="Noto Sans" font-size="3.5" text-anchor="end">GPB3</text>
  <line x1="64.45" x2="78.85" y1="93.6" y2="93.6" fill="none" stroke="#787878" stroke-linecap="round" stroke-linejoin="round" stroke-width=".7"/>
  <rect id="connector108pin" x="64.8" y="93.25" width="14.4" height=".7" fill="none" stroke-width="0" connectorname="GPB2"/>
  <rect id="connector108terminal" x="79.2" y="93.25" width="0" height=".7" fill="none" stroke-width="0"/>
  <text x="63.4" y="94.2998" fill="#8c8c8c" font-family="Noto Sans" font-size="3.5" text-anchor="end">GPB2</text>
  <line x1="64.45" x2="78.85" y1="100.8" y2="100.8" fill="none" stroke="#787878" stroke-linecap="round" stroke-linejoin="round" stroke-width=".7"/>
  <rect id="connector107pin" x="64.8" y="100.45" width="14.4" height=".7" fill="none" stroke-width="0" connectorname="GPB1"/>
  <rect id="connector107terminal" x="79.2" y="100.45" width="0" height=".7" fill="none" stroke-width="0"/>
  <text x="63.4" y="101.5" fill="#8c8c8c" font-family="Noto Sans" font-size="3.5" text-anchor="end">GPB1</text>
  <line x1="64.45" x2="78.85" y1="108" y2="108" fill="none" stroke="#787878" stroke-linecap="round" stroke-linejoin="round" stroke-width=".7"/>
  <rect id="connector106pin" x="64.8" y="107.65" width="14.4" height=".7" fill="none" stroke-width="0" connectorname="GPB0"/>
  <rect id="connector106terminal" x="79.2" y="107.65" width="0" height=".7" fill="none" stroke-width="0"/>
  <text x="63.4" y="108.7" fill="#8c8c8c" font-family="Noto Sans" font-size="3.5" text-anchor="end">GPB0</text>
  <line x1="64.45" x2="78.85" y1="115.2" y2="115.2" fill="none" stroke="#787878" stroke-linecap="round" stroke-linejoin="round" stroke-width=".7"/>
  <rect id="connector15pin" x="64.8" y="114.85" width="14.4" height=".7" fill="none" stroke-width="0" connectorname="SDA"/>
  <rect id="connector15terminal" x="79.2" y="114.85" width="0" height=".7" fill="none" stroke-width="0"/>
  <text x="63.4" y="115.9" fill="#8c8c8c" font-family="Noto Sans" font-size="3.5" text-anchor="end">SDA</text>
  <line x1="64.45" x2="78.85" y1="122.4" y2="122.4" fill="none" stroke="#787878" stroke-linecap="round" stroke-linejoin="round" stroke-width=".7"/>
  <rect id="connector16pin" x="64.8" y="122.05" width="14.4" height=".7" fill="none" stroke-width="0" connectorname="SCL"/>
  <rect id="connector16terminal" x="79.2" y="122.05" width="0" height=".7" fill="none" stroke-width="0"/>
  <text x="63.4" y="123.1" fill="#8c8c8c" font-family="Noto Sans" font-size="3.5" text-anchor="end">SCL</text>
  <line x1="36" x2="36" y1=".35" y2="14.4" fill="none" stroke="#787878" stroke-linecap="round" stroke-linejoin="round" stroke-width=".7"/>
  <rect id="connector91pin" x="35.65" width=".7" height="14.4" fill="none" stroke-width="0" connectorname="V+"/>
  <rect id="connector91terminal" x="35.65" width=".7" height="0" fill="none" stroke-width="0"/>
  <g transform="translate(37.4 16)">
   <g transform="rotate(270)">
    <text fill="#8c8c8c" font-family="Noto Sans" font-size="3.5" text-anchor="end">V+</text>
   </g>
  </g>
  <line x1="43.2" x2="43.2" y1=".35" y2="14.4" fill="none" stroke="#787878" stroke-linecap="round" stroke-linejoin="round" stroke-width=".7"/>
  <rect id="connector14pin" x="42.85" width=".7" height="14.4" fill="none" stroke-width="0" connectorname="VCC"/>
  <rect id="connector14terminal" x="42.85" width=".7" height="0" fill="none" stroke-width="0"/>
  <g transform="translate(44.6 16)">
   <g transform="rotate(270)">
    <text fill="#8c8c8c" font-family="Noto Sans" font-size="3.5" text-anchor="end">VCC</text>
   </g>
  </g>
  <line x1="36" x2="36" y1="136.8" y2="150.85" fill="none" stroke="#787878" stroke-linecap="round" stroke-linejoin="round" stroke-width=".7"/>
  <rect id="connector13pin" x="35.65" y="136.8" width=".7" height="14.4" fill="none" stroke-width="0" connectorname="GND"/>
  <rect id="connector13terminal" x="35.65" y="151.2" width=".7" height="0" fill="none" stroke-width="0"/>
  <g transform="translate(37.4 135.2)">
   <g transform="rotate(270)">
    <text fill="#8c8c8c" font-family="Noto Sans" font-size="3.5">GND</text>
   </g>
  </g>
  <rect id="connector93pin" x="35.65" width=".7" height="14.4" fill="none" stroke-width="0" connectorname="V+"/>
  <rect id="connector93terminal" x="35.65" width=".7" height="0" fill="none" stroke-width="0"/>
  <rect id="connector95pin" x="35.65" width=".7" height="14.4" fill="none" stroke-width="0" connectorname="V+"/>
  <rect id="connector95terminal" x="35.65" width=".7" height="0" fill="none" stroke-width="0"/>
  <rect id="connector97pin" x="35.65" width=".7" height="14.4" fill="none" stroke-width="0" connectorname="V+"/>
  <rect id="connector97terminal" x="36.349" y="75.586" width=".0014" height=".0288" fill="none" stroke-width="0"/>
  <rect x="35.65" width=".7" height="0" fill="none" stroke-width="0"/>
  <rect id="connector123pin" x="35.65" width=".7" height="14.4" fill="none" stroke-width="0" connectorname="V+"/>
  <rect id="connector123terminal" x="35.65" width=".7" height="0" fill="none" stroke-width="0"/>
  <rect id="connector125pin" x="35.65" width=".7" height="14.4" fill="none" stroke-width="0" connectorname="V+"/>
  <rect id="connector125terminal" x="35.65" width=".7" height="0" fill="none" stroke-width="0"/>
  <rect id="connector127pin" x="35.65" width=".7" height="14.4" fill="none" stroke-width="0" connectorname="V+"/>
  <rect id="connector127terminal" x="35.65" width=".7" height="0" fill="none" stroke-width="0"/>
  <rect id="connector129pin" x="35.65" width=".7" height="14.4" fill="none" stroke-width="0" connectorname="V+"/>
  <rect id="connector129terminal" x="35.65" width=".7" height="0" fill="none" stroke-width="0"/>
  <rect id="connector206pin" x="35.65" width=".7" height="14.4" fill="none" stroke-width="0" connectorname="V+"/>
  <rect id="connector206terminal" x="35.65" width=".7" height="0" fill="none" stroke-width="0"/>
  <rect id="connector98pin" x="42.85" width=".7" height="14.4" fill="none" stroke-width="0" connectorname="VCC"/>
  <rect id="connector98terminal" x="42.85" width=".7" height="0" fill="none" stroke-width="0"/>
  <rect id="connector20pin" x="42.85" width=".7" height="14.4" fill="none" stroke-width="0" connectorname="VCC"/>
  <rect id="connector20terminal" x="42.85" width=".7" height="0" fill="none" stroke-width="0"/>
  <rect id="connector99pin" x="35.65" y="136.8" width=".7" height="14.4" fill="none" stroke-width="0" connectorname="GND"/>
  <rect id="connector99terminal" x="35.65" y="151.2" width=".7" height="0" fill="none" stroke-width="0"/>
  <rect id="connector114pin" x="35.65" y="136.8" width=".7" height="14.4" fill="none" stroke-width="0" connectorname="GND"/>
  <rect id="connector114terminal" x="35.65" y="151.2" width=".7" height="0" fill="none" stroke-width="0"/>
  <rect id="connector115pin" x="35.65" y="136.8" width=".7" height="14.4" fill="none" stroke-width="0" connectorname="GND"/>
  <rect id="connector115terminal" x="35.65" y="151.2" width=".7" height="0" fill="none" stroke-width="0"/>
  <rect id="connector116pin" x="35.65" y="136.8" width=".7" height="14.4" fill="none" stroke-width="0" connectorname="GND"/>
  <rect id="connector116terminal" x="35.65" y="151.2" width=".7" height="0" fill="none" stroke-width="0"/>
  <rect id="connector117pin" x="35.65" y="136.8" width=".7" height="14.4" fill="none" stroke-width="0" connectorname="GND"/>
  <rect id="connector117terminal" x="35.65" y="151.2" width=".7" height="0" fill="none" stroke-width="0"/>
  <rect id="connector118pin" x="35.65" y="136.8" width=".7" height="14.4" fill="none" stroke-width="0" connectorname="GND"/>
  <rect id="connector118terminal" x="35.65" y="151.2" width=".7" height="0" fill="none" stroke-width="0"/>
  <rect id="connector119pin" x="35.65" y="136.8" width=".7" height="14.4" fill="none" stroke-width="0" connectorname="GND"/>
  <rect id="connector119terminal" x="35.65" y="151.2" width=".7" height="0" fill="none" stroke-width="0"/>
  <rect id="connector120pin" x="35.65" y="136.8" width=".7" height="14.4" fill="none" stroke-width="0" connectorname="GND"/>
  <rect id="connector120terminal" x="35.65" y="151.2" width=".7" height="0" fill="none" stroke-width="0"/>
  <rect id="connector121pin" x="35.65" y="136.8" width=".7" height="14.4" fill="none" stroke-width="0" connectorname="GND"/>
  <rect id="connector121terminal" x="36.349" y="75.586" width=".0014" height=".0288" fill="none" stroke-width="0"/>
  <rect x="35.65" y="151.2" width=".7" height="0" fill="none" stroke-width="0"/>
  <rect id="connector207pin" x="35.65" y="136.8" width=".7" height="14.4" fill="none" stroke-width="0" connectorname="GND"/>
  <rect id="connector207terminal" x="35.65" y="151.2" width=".7" height="0" fill="none" stroke-width="0"/>
  <rect id="connector19pin" x="35.65" y="136.8" width=".7" height="14.4" fill="none" stroke-width="0" connectorname="GND"/>
  <rect id="connector19terminal" x="35.65" y="151.2" width=".7" height="0" fill="none" stroke-width="0"/>
  <rect id="connector101pin" x="64.8" y="114.85" width="14.4" height=".7" fill="none" stroke-width="0" connectorname="SDA"/>
  <rect id="connector101terminal" x="79.2" y="114.85" width="0" height=".7" fill="none" stroke-width="0"/>
  <rect id="connector21pin" x="64.8" y="114.85" width="14.4" height=".7" fill="none" stroke-width="0" connectorname="SDA"/>
  <rect id="connector21terminal" x="79.2" y="114.85" width="0" height=".7" fill="none" stroke-width="0"/>
  <rect id="connector22pin" x="64.8" y="122.05" width="14.4" height=".7" fill="none" stroke-width="0" connectorname="SCL"/>
  <rect id="connector22terminal" x="79.2" y="122.05" width="0" height=".7" fill="none" stroke-width="0"/>
  <rect id="connector100pin" x="64.8" y="122.05" width="14.4" height=".7" fill="none" stroke-width="0" connectorname="SCL"/>
  <rect id="connector100terminal" x="79.2" y="122.05" width="0" height=".7" fill="none" stroke-width="0"/>
 </g>
</svg>
