<?xml version="1.0" encoding="UTF-8"?>
<!-- Created with Fritzing (http://www.fritzing.org/) -->
<svg width="1.3in" height="2.1in" baseProfile="tiny" version="1.2" viewBox="0 0 93.6 151.2" xmlns="http://www.w3.org/2000/svg">
 <desc>
  <referenceFile>Adafruit USB Host FeatherWing_schematic.svg</referenceFile>
 </desc>
 <desc>Fritzing schematic generated by brd2svg</desc>
 <g id="schematic">
  <rect x="14.4" y="14.4" width="64.35" height="122.4" fill="none" stroke="#000" stroke-linecap="round" stroke-linejoin="round" stroke-width=".9"/>
  <text id="label" x="46.8" y="65" fill="#000000" font-family="Noto Sans" font-size="3.5" text-anchor="middle"><tspan x="46.8" y="65">Adafruit</tspan> <tspan x="46.8" y="68.5">USB</tspan> <tspan x="46.8" y="72">Host</tspan> <tspan x="46.8" y="75.4999">FeatherWing</tspan></text>
  <line x1=".35" x2="14.4" y1="36" y2="36" fill="none" stroke="#787878" stroke-linecap="round" stroke-linejoin="round" stroke-width=".7"/>
  <rect id="connector68pin" y="35.65" width="14.4" height=".7" fill="none" stroke-width="0" connectorName="A"/>
  <rect id="connector68terminal" y="35.65" width="0" height=".7" fill="none" stroke-width="0"/>
  <text x="15.8" y="36.7" fill="#8c8c8c" font-family="Noto Sans" font-size="3.5">A</text>
  <line x1=".35" x2="14.4" y1="43.2" y2="43.2" fill="none" stroke="#787878" stroke-linecap="round" stroke-linejoin="round" stroke-width=".7"/>
  <rect id="connector77pin" y="42.85" width="14.4" height=".7" fill="none" stroke-width="0" connectorName="AREF"/>
  <rect id="connector77terminal" y="42.85" width="0" height=".7" fill="none" stroke-width="0"/>
  <text x="15.8" y="43.9" fill="#8c8c8c" font-family="Noto Sans" font-size="3.5">AREF</text>
  <line x1=".35" x2="14.4" y1="50.4" y2="50.4" fill="none" stroke="#787878" stroke-linecap="round" stroke-linejoin="round" stroke-width=".7"/>
  <rect id="connector67pin" y="50.05" width="14.4" height=".7" fill="none" stroke-width="0" connectorName="B"/>
  <rect id="connector67terminal" y="50.05" width="0" height=".7" fill="none" stroke-width="0"/>
  <text x="15.8" y="51.1" fill="#8c8c8c" font-family="Noto Sans" font-size="3.5">B</text>
  <line x1=".35" x2="14.4" y1="57.6" y2="57.6" fill="none" stroke="#787878" stroke-linecap="round" stroke-linejoin="round" stroke-width=".7"/>
  <rect id="connector66pin" y="57.25" width="14.4" height=".7" fill="none" stroke-width="0" connectorName="C"/>
  <rect id="connector66terminal" y="57.25" width="0" height=".7" fill="none" stroke-width="0"/>
  <text x="15.8" y="58.3" fill="#8c8c8c" font-family="Noto Sans" font-size="3.5">C</text>
  <line x1=".35" x2="14.4" y1="64.8" y2="64.8" fill="none" stroke="#787878" stroke-linecap="round" stroke-linejoin="round" stroke-width=".7"/>
  <rect id="connector51pin" y="64.45" width="14.4" height=".7" fill="none" stroke-width="0" connectorName="CS"/>
  <rect id="connector51terminal" y="64.45" width="0" height=".7" fill="none" stroke-width="0"/>
  <text x="15.8" y="65.5" fill="#8c8c8c" font-family="Noto Sans" font-size="3.5">CS</text>
  <line x1=".35" x2="14.4" y1="72" y2="72" fill="none" stroke="#787878" stroke-linecap="round" stroke-linejoin="round" stroke-width=".7"/>
  <rect id="connector65pin" y="71.65" width="14.4" height=".7" fill="none" stroke-width="0" connectorName="D"/>
  <rect id="connector65terminal" y="71.65" width="0" height=".7" fill="none" stroke-width="0"/>
  <text x="15.8" y="72.6998" fill="#8c8c8c" font-family="Noto Sans" font-size="3.5">D</text>
  <line x1=".35" x2="14.4" y1="79.2" y2="79.2" fill="none" stroke="#787878" stroke-linecap="round" stroke-linejoin="round" stroke-width=".7"/>
  <rect id="connector64pin" y="78.85" width="14.4" height=".7" fill="none" stroke-width="0" connectorName="E"/>
  <rect id="connector64terminal" y="78.85" width="0" height=".7" fill="none" stroke-width="0"/>
  <text x="15.8" y="79.8998" fill="#8c8c8c" font-family="Noto Sans" font-size="3.5">E</text>
  <line x1=".35" x2="14.4" y1="86.4" y2="86.4" fill="none" stroke="#787878" stroke-linecap="round" stroke-linejoin="round" stroke-width=".7"/>
  <rect id="connector46pin" y="86.05" width="14.4" height=".7" fill="none" stroke-width="0" connectorName="EN"/>
  <rect id="connector46terminal" y="86.05" width="0" height=".7" fill="none" stroke-width="0"/>
  <text x="15.8" y="87.0998" fill="#8c8c8c" font-family="Noto Sans" font-size="3.5">EN</text>
  <line x1=".35" x2="14.4" y1="93.6" y2="93.6" fill="none" stroke="#787878" stroke-linecap="round" stroke-linejoin="round" stroke-width=".7"/>
  <rect id="connector63pin" y="93.25" width="14.4" height=".7" fill="none" stroke-width="0" connectorName="F"/>
  <rect id="connector63terminal" y="93.25" width="0" height=".7" fill="none" stroke-width="0"/>
  <text x="15.8" y="94.2998" fill="#8c8c8c" font-family="Noto Sans" font-size="3.5">F</text>
  <line x1=".35" x2="14.4" y1="100.8" y2="100.8" fill="none" stroke="#787878" stroke-linecap="round" stroke-linejoin="round" stroke-width=".7"/>
  <rect id="connector57pin" y="100.45" width="14.4" height=".7" fill="none" stroke-width="0" connectorName="G"/>
  <rect id="connector57terminal" y="100.45" width="0" height=".7" fill="none" stroke-width="0"/>
  <text x="15.8" y="101.5" fill="#8c8c8c" font-family="Noto Sans" font-size="3.5">G</text>
  <line x1=".35" x2="14.4" y1="108" y2="108" fill="none" stroke="#787878" stroke-linecap="round" stroke-linejoin="round" stroke-width=".7"/>
  <rect id="connector69pin" y="107.65" width="14.4" height=".7" fill="none" stroke-width="0" connectorName="GPX"/>
  <rect id="connector69terminal" y="107.65" width="0" height=".7" fill="none" stroke-width="0"/>
  <text x="15.8" y="108.7" fill="#8c8c8c" font-family="Noto Sans" font-size="3.5">GPX</text>
  <line x1=".35" x2="14.4" y1="115.2" y2="115.2" fill="none" stroke="#787878" stroke-linecap="round" stroke-linejoin="round" stroke-width=".7"/>
  <rect id="connector54pin" y="114.85" width="14.4" height=".7" fill="none" stroke-width="0" connectorName="H"/>
  <rect id="connector54terminal" y="114.85" width="0" height=".7" fill="none" stroke-width="0"/>
  <text x="15.8" y="115.9" fill="#8c8c8c" font-family="Noto Sans" font-size="3.5">H</text>
  <line x1=".35" x2="14.4" y1="122.4" y2="122.4" fill="none" stroke="#787878" stroke-linecap="round" stroke-linejoin="round" stroke-width=".7"/>
  <rect id="connector53pin" y="122.05" width="14.4" height=".7" fill="none" stroke-width="0" connectorName="I"/>
  <rect id="connector53terminal" y="122.05" width="0" height=".7" fill="none" stroke-width="0"/>
  <text x="15.8" y="123.1" fill="#8c8c8c" font-family="Noto Sans" font-size="3.5">I</text>
  <line x1="78.85" x2="93.25" y1="36" y2="36" fill="none" stroke="#787878" stroke-linecap="round" stroke-linejoin="round" stroke-width=".7"/>
  <rect id="connector58pin" x="79.2" y="35.65" width="14.4" height=".7" fill="none" stroke-width="0" connectorname="TX"/>
  <rect id="connector58terminal" x="93.6" y="35.65" width="0" height=".7" fill="none" stroke-width="0"/>
  <text x="77.8003" y="36.7" fill="#8c8c8c" font-family="Noto Sans" font-size="3.5" text-anchor="end">TX</text>
  <line x1="78.85" x2="93.25" y1="43.2" y2="43.2" fill="none" stroke="#787878" stroke-linecap="round" stroke-linejoin="round" stroke-width=".7"/>
  <rect id="connector56pin" x="79.2" y="42.85" width="14.4" height=".7" fill="none" stroke-width="0" connectorname="SDA"/>
  <rect id="connector56terminal" x="93.6" y="42.85" width="0" height=".7" fill="none" stroke-width="0"/>
  <text x="77.8003" y="43.9" fill="#8c8c8c" font-family="Noto Sans" font-size="3.5" text-anchor="end">SDA</text>
  <line x1="78.85" x2="93.25" y1="50.4" y2="50.4" fill="none" stroke="#787878" stroke-linecap="round" stroke-linejoin="round" stroke-width=".7"/>
  <rect id="connector55pin" x="79.2" y="50.05" width="14.4" height=".7" fill="none" stroke-width="0" connectorname="SCL"/>
  <rect id="connector55terminal" x="93.6" y="50.05" width="0" height=".7" fill="none" stroke-width="0"/>
  <text x="77.8003" y="51.1" fill="#8c8c8c" font-family="Noto Sans" font-size="3.5" text-anchor="end">SCL</text>
  <line x1="78.85" x2="93.25" y1="57.6" y2="57.6" fill="none" stroke="#787878" stroke-linecap="round" stroke-linejoin="round" stroke-width=".7"/>
  <rect id="connector62pin" x="79.2" y="57.25" width="14.4" height=".7" fill="none" stroke-width="0" connectorname="SCK"/>
  <rect id="connector62terminal" x="93.6" y="57.25" width="0" height=".7" fill="none" stroke-width="0"/>
  <text x="77.8003" y="58.3" fill="#8c8c8c" font-family="Noto Sans" font-size="3.5" text-anchor="end">SCK</text>
  <line x1="78.85" x2="93.25" y1="64.8" y2="64.8" fill="none" stroke="#787878" stroke-linecap="round" stroke-linejoin="round" stroke-width=".7"/>
  <rect id="connector59pin" x="79.2" y="64.45" width="14.4" height=".7" fill="none" stroke-width="0" connectorname="RX"/>
  <rect id="connector59terminal" x="93.6" y="64.45" width="0" height=".7" fill="none" stroke-width="0"/>
  <text x="77.8003" y="65.5" fill="#8c8c8c" font-family="Noto Sans" font-size="3.5" text-anchor="end">RX</text>
  <line x1="78.85" x2="93.25" y1="72" y2="72" fill="none" stroke="#787878" stroke-linecap="round" stroke-linejoin="round" stroke-width=".7"/>
  <rect id="connector75pin" x="79.2" y="71.65" width="14.4" height=".7" fill="none" stroke-width="0" connectorname="RESET"/>
  <rect id="connector75terminal" x="93.6" y="71.65" width="0" height=".7" fill="none" stroke-width="0"/>
  <text x="77.8003" y="72.6998" fill="#8c8c8c" font-family="Noto Sans" font-size="3.5" text-anchor="end">RESET</text>
  <line x1="78.85" x2="93.25" y1="79.2" y2="79.2" fill="none" stroke="#787878" stroke-linecap="round" stroke-linejoin="round" stroke-width=".7"/>
  <rect id="connector48pin" x="79.2" y="78.85" width="14.4" height=".7" fill="none" stroke-width="0" connectorname="N"/>
  <rect id="connector48terminal" x="93.6" y="78.85" width="0" height=".7" fill="none" stroke-width="0"/>
  <text x="77.8003" y="79.8998" fill="#8c8c8c" font-family="Noto Sans" font-size="3.5" text-anchor="end">N</text>
  <line x1="78.85" x2="93.25" y1="86.4" y2="86.4" fill="none" stroke="#787878" stroke-linecap="round" stroke-linejoin="round" stroke-width=".7"/>
  <rect id="connector61pin" x="79.2" y="86.05" width="14.4" height=".7" fill="none" stroke-width="0" connectorname="MOSI"/>
  <rect id="connector61terminal" x="93.6" y="86.05" width="0" height=".7" fill="none" stroke-width="0"/>
  <text x="77.8003" y="87.0998" fill="#8c8c8c" font-family="Noto Sans" font-size="3.5" text-anchor="end">MOSI</text>
  <line x1="78.85" x2="93.25" y1="93.6" y2="93.6" fill="none" stroke="#787878" stroke-linecap="round" stroke-linejoin="round" stroke-width=".7"/>
  <rect id="connector60pin" x="79.2" y="93.25" width="14.4" height=".7" fill="none" stroke-width="0" connectorname="MISO"/>
  <rect id="connector60terminal" x="93.6" y="93.25" width="0" height=".7" fill="none" stroke-width="0"/>
  <text x="77.8003" y="94.2998" fill="#8c8c8c" font-family="Noto Sans" font-size="3.5" text-anchor="end">MISO</text>
  <line x1="78.85" x2="93.25" y1="100.8" y2="100.8" fill="none" stroke="#787878" stroke-linecap="round" stroke-linejoin="round" stroke-width=".7"/>
  <rect id="connector49pin" x="79.2" y="100.45" width="14.4" height=".7" fill="none" stroke-width="0" connectorname="M"/>
  <rect id="connector49terminal" x="93.6" y="100.45" width="0" height=".7" fill="none" stroke-width="0"/>
  <text x="77.8003" y="101.5" fill="#8c8c8c" font-family="Noto Sans" font-size="3.5" text-anchor="end">M</text>
  <line x1="78.85" x2="93.25" y1="108" y2="108" fill="none" stroke="#787878" stroke-linecap="round" stroke-linejoin="round" stroke-width=".7"/>
  <rect id="connector50pin" x="79.2" y="107.65" width="14.4" height=".7" fill="none" stroke-width="0" connectorname="L"/>
  <rect id="connector50terminal" x="93.6" y="107.65" width="0" height=".7" fill="none" stroke-width="0"/>
  <text x="77.8003" y="108.7" fill="#8c8c8c" font-family="Noto Sans" font-size="3.5" text-anchor="end">L</text>
  <line x1="78.85" x2="93.25" y1="115.2" y2="115.2" fill="none" stroke="#787878" stroke-linecap="round" stroke-linejoin="round" stroke-width=".7"/>
  <rect id="connector52pin" x="79.2" y="114.85" width="14.4" height=".7" fill="none" stroke-width="0" connectorname="IRQ"/>
  <rect id="connector52terminal" x="93.6" y="114.85" width="0" height=".7" fill="none" stroke-width="0"/>
  <text x="77.8003" y="115.9" fill="#8c8c8c" font-family="Noto Sans" font-size="3.5" text-anchor="end">IRQ</text>
  <line x1="28.8" x2="28.8" y1=".35" y2="14.4" fill="none" stroke="#787878" stroke-linecap="round" stroke-linejoin="round" stroke-width=".7"/>
  <rect id="connector45pin" x="28.45" width=".7" height="14.4" fill="none" stroke-width="0" connectorname="VBAT"/>
  <rect id="connector45terminal" x="28.45" width=".7" height="0" fill="none" stroke-width="0"/>
  <g transform="translate(30.2 16)">
   <g transform="rotate(270)">
    <text fill="#8c8c8c" font-family="Noto Sans" font-size="3.5" text-anchor="end">VBAT</text>
   </g>
  </g>
  <line x1="36" x2="36" y1=".35" y2="14.4" fill="none" stroke="#787878" stroke-linecap="round" stroke-linejoin="round" stroke-width=".7"/>
  <rect id="connector47pin" x="35.65" width=".7" height="14.4" fill="none" stroke-width="0" connectorname="VBUS"/>
  <rect id="connector47terminal" x="36.349" y="75.586" width=".0014" height=".0288" fill="none" stroke-width="0"/>
  <rect x="35.65" width=".7" height="0" fill="none" stroke-width="0"/>
  <g transform="translate(37.4 16)">
   <g transform="rotate(270)">
    <text fill="#8c8c8c" font-family="Noto Sans" font-size="3.5" text-anchor="end">VBUS</text>
   </g>
  </g>
  <line x1="43.2" x2="43.2" y1=".35" y2="14.4" fill="none" stroke="#787878" stroke-linecap="round" stroke-linejoin="round" stroke-width=".7"/>
  <rect id="connector72pin" x="42.85" width=".7" height="14.4" fill="none" stroke-width="0" connectorname="5V_EN"/>
  <rect id="connector72terminal" x="42.85" width=".7" height="0" fill="none" stroke-width="0"/>
  <g transform="translate(44.6 16)">
   <g transform="rotate(270)">
    <text fill="#8c8c8c" font-family="Noto Sans" font-size="3.5" text-anchor="end">5V_EN</text>
   </g>
  </g>
  <line x1="50.4" x2="50.4" y1=".35" y2="14.4" fill="none" stroke="#787878" stroke-linecap="round" stroke-linejoin="round" stroke-width=".7"/>
  <rect id="connector76pin" x="50.05" width=".7" height="14.4" fill="none" stroke-width="0" connectorname="3.3V"/>
  <rect id="connector76terminal" x="50.05" width=".7" height="0" fill="none" stroke-width="0"/>
  <g transform="translate(51.8 16)">
   <g transform="rotate(270)">
    <text fill="#8c8c8c" font-family="Noto Sans" font-size="3.5" text-anchor="end">3.3V</text>
   </g>
  </g>
  <line x1="43.2" x2="43.2" y1="136.8" y2="150.85" fill="none" stroke="#787878" stroke-linecap="round" stroke-linejoin="round" stroke-width=".7"/>
  <rect id="connector78pin" x="42.85" y="136.8" width=".7" height="14.4" fill="none" stroke-width="0" connectorname="GND"/>
  <rect id="connector78terminal" x="42.85" y="151.2" width=".7" height="0" fill="none" stroke-width="0"/>
  <g transform="translate(44.6 135.2)">
   <g transform="rotate(270)">
    <text fill="#8c8c8c" font-family="Noto Sans" font-size="3.5">GND</text>
   </g>
  </g>
  <rect id="connector100pin" x="35.65" width=".7" height="14.4" fill="none" stroke-width="0" connectorname="VBUS"/>
  <rect id="connector100terminal" x="35.65" width=".7" height="0" fill="none" stroke-width="0"/>
  <rect id="connector102pin" x="28.45" width=".7" height="14.4" fill="none" stroke-width="0" connectorname="VBAT"/>
  <rect id="connector102terminal" x="28.45" width=".7" height="0" fill="none" stroke-width="0"/>
  <rect id="connector79pin" y="35.65" width="14.4" height=".7" fill="none" stroke-width="0" connectorName="A"/>
  <rect id="connector79terminal" y="35.65" width="0" height=".7" fill="none" stroke-width="0"/>
  <rect id="connector80pin" y="50.05" width="14.4" height=".7" fill="none" stroke-width="0" connectorName="B"/>
  <rect id="connector80terminal" y="50.05" width="0" height=".7" fill="none" stroke-width="0"/>
  <rect id="connector81pin" y="57.25" width="14.4" height=".7" fill="none" stroke-width="0" connectorName="C"/>
  <rect id="connector81terminal" y="57.25" width="0" height=".7" fill="none" stroke-width="0"/>
  <rect id="connector70pin" y="64.45" width="14.4" height=".7" fill="none" stroke-width="0" connectorName="CS"/>
  <rect id="connector70terminal" y="64.45" width="0" height=".7" fill="none" stroke-width="0"/>
  <rect id="connector96pin" y="64.45" width="14.4" height=".7" fill="none" stroke-width="0" connectorName="CS"/>
  <rect id="connector96terminal" y="64.45" width="0" height=".7" fill="none" stroke-width="0"/>
  <rect id="connector82pin" y="71.65" width="14.4" height=".7" fill="none" stroke-width="0" connectorName="D"/>
  <rect id="connector82terminal" y="71.65" width="0" height=".7" fill="none" stroke-width="0"/>
  <rect id="connector83pin" y="78.85" width="14.4" height=".7" fill="none" stroke-width="0" connectorName="E"/>
  <rect id="connector83terminal" y="78.85" width="0" height=".7" fill="none" stroke-width="0"/>
  <rect id="connector101pin" y="86.05" width="14.4" height=".7" fill="none" stroke-width="0" connectorName="EN"/>
  <rect id="connector101terminal" y="86.05" width="0" height=".7" fill="none" stroke-width="0"/>
  <rect id="connector84pin" y="93.25" width="14.4" height=".7" fill="none" stroke-width="0" connectorName="F"/>
  <rect id="connector84terminal" y="93.25" width="0" height=".7" fill="none" stroke-width="0"/>
  <rect id="connector90pin" y="100.45" width="14.4" height=".7" fill="none" stroke-width="0" connectorName="G"/>
  <rect id="connector90terminal" y="100.45" width="0" height=".7" fill="none" stroke-width="0"/>
  <rect id="connector93pin" y="114.85" width="14.4" height=".7" fill="none" stroke-width="0" connectorName="H"/>
  <rect id="connector93terminal" y="114.85" width="0" height=".7" fill="none" stroke-width="0"/>
  <rect id="connector89pin" x="79.2" y="35.65" width="14.4" height=".7" fill="none" stroke-width="0" connectorname="TX"/>
  <rect id="connector89terminal" x="93.6" y="35.65" width="0" height=".7" fill="none" stroke-width="0"/>
  <rect id="connector91pin" x="79.2" y="42.85" width="14.4" height=".7" fill="none" stroke-width="0" connectorname="SDA"/>
  <rect id="connector91terminal" x="93.6" y="42.85" width="0" height=".7" fill="none" stroke-width="0"/>
  <rect id="connector92pin" x="79.2" y="50.05" width="14.4" height=".7" fill="none" stroke-width="0" connectorname="SCL"/>
  <rect id="connector92terminal" x="93.6" y="50.05" width="0" height=".7" fill="none" stroke-width="0"/>
  <rect id="connector85pin" x="79.2" y="57.25" width="14.4" height=".7" fill="none" stroke-width="0" connectorname="SCK"/>
  <rect id="connector85terminal" x="93.6" y="57.25" width="0" height=".7" fill="none" stroke-width="0"/>
  <rect id="connector88pin" x="79.2" y="64.45" width="14.4" height=".7" fill="none" stroke-width="0" connectorname="RX"/>
  <rect id="connector88terminal" x="93.6" y="64.45" width="0" height=".7" fill="none" stroke-width="0"/>
  <rect id="connector99pin" x="79.2" y="78.85" width="14.4" height=".7" fill="none" stroke-width="0" connectorname="N"/>
  <rect id="connector99terminal" x="93.6" y="78.85" width="0" height=".7" fill="none" stroke-width="0"/>
  <rect id="connector86pin" x="79.2" y="86.05" width="14.4" height=".7" fill="none" stroke-width="0" connectorname="MOSI"/>
  <rect id="connector86terminal" x="93.6" y="86.05" width="0" height=".7" fill="none" stroke-width="0"/>
  <rect id="connector87pin" x="79.2" y="93.25" width="14.4" height=".7" fill="none" stroke-width="0" connectorname="MISO"/>
  <rect id="connector87terminal" x="93.6" y="93.25" width="0" height=".7" fill="none" stroke-width="0"/>
  <rect id="connector98pin" x="79.2" y="100.45" width="14.4" height=".7" fill="none" stroke-width="0" connectorname="M"/>
  <rect id="connector98terminal" x="93.6" y="100.45" width="0" height=".7" fill="none" stroke-width="0"/>
  <rect id="connector97pin" x="79.2" y="107.65" width="14.4" height=".7" fill="none" stroke-width="0" connectorname="L"/>
  <rect id="connector97terminal" x="93.6" y="107.65" width="0" height=".7" fill="none" stroke-width="0"/>
  <rect id="connector95pin" x="79.2" y="114.85" width="14.4" height=".7" fill="none" stroke-width="0" connectorname="IRQ"/>
  <rect id="connector95terminal" x="93.6" y="114.85" width="0" height=".7" fill="none" stroke-width="0"/>
  <rect id="connector71pin" x="79.2" y="114.85" width="14.4" height=".7" fill="none" stroke-width="0" connectorname="IRQ"/>
  <rect id="connector71terminal" x="93.6" y="114.85" width="0" height=".7" fill="none" stroke-width="0"/>
  <rect id="connector94pin" y="122.05" width="14.4" height=".7" fill="none" stroke-width="0" connectorName="I"/>
  <rect id="connector94terminal" y="122.05" width="0" height=".7" fill="none" stroke-width="0"/>
 </g>
</svg>
