<?xml version="1.0" encoding="UTF-8"?>
<!-- Created with Fritzing (http://www.fritzing.org/) -->
<svg width=".9in" height=".9in" baseProfile="tiny" version="1.2" viewBox="0 0 64.8 64.8" xmlns="http://www.w3.org/2000/svg">
 <desc>
  <referenceFile>Adafruit USB Mini-B Breakout_schematic.svg</referenceFile>
 </desc>
 <desc>Fritzing schematic generated by brd2svg</desc>
 <g id="schematic">
  <rect x="14.4" y="14.4" width="35.55" height="36" fill="none" stroke="#000" stroke-linecap="round" stroke-linejoin="round" stroke-width=".9"/>
  <text id="label" x="32.4" y="21.8" fill="#000000" font-family="Noto Sans" font-size="3.5" text-anchor="middle"><tspan x="32.4" y="21.8">Adafruit</tspan> <tspan x="32.4" y="25.3">USB</tspan> <tspan x="32.4" y="28.8">Mini-B</tspan> <tspan x="32.4" y="32.3">Breakout</tspan></text>
  <line x1=".35" x2="14.4" y1="21.6" y2="21.6" fill="none" stroke="#787878" stroke-linecap="round" stroke-linejoin="round" stroke-width=".7"/>
  <rect id="connector8pin" y="21.25" width="14.4" height=".7" fill="none" stroke-width="0" connectorName="ID"/>
  <rect id="connector8terminal" y="21.25" width="0" height=".7" fill="none" stroke-width="0"/>
  <text x="15.8" y="22.3" fill="#8c8c8c" font-family="Noto Sans" font-size="3.5">ID</text>
  <line x1="50.05" x2="64.45" y1="21.6" y2="21.6" fill="none" stroke="#787878" stroke-linecap="round" stroke-linejoin="round" stroke-width=".7"/>
  <rect id="connector9pin" x="50.4" y="21.25" width="14.4" height=".7" fill="none" stroke-width="0" connectorname="D+"/>
  <rect id="connector9terminal" x="64.8" y="21.25" width="0" height=".7" fill="none" stroke-width="0"/>
  <text x="49" y="22.3" fill="#8c8c8c" font-family="Noto Sans" font-size="3.5" text-anchor="end">D+</text>
  <line x1="50.05" x2="64.45" y1="28.8" y2="28.8" fill="none" stroke="#787878" stroke-linecap="round" stroke-linejoin="round" stroke-width=".7"/>
  <rect id="connector10pin" x="50.4" y="28.45" width="14.4" height=".7" fill="none" stroke-width="0" connectorname="D-"/>
  <rect id="connector10terminal" x="64.8" y="28.45" width="0" height=".7" fill="none" stroke-width="0"/>
  <text x="49" y="29.5" fill="#8c8c8c" font-family="Noto Sans" font-size="3.5" text-anchor="end">D-</text>
  <line x1="28.8" x2="28.8" y1=".35" y2="14.4" fill="none" stroke="#787878" stroke-linecap="round" stroke-linejoin="round" stroke-width=".7"/>
  <rect id="connector11pin" x="28.45" width=".7" height="14.4" fill="none" stroke-width="0" connectorname="5V"/>
  <rect id="connector11terminal" x="28.45" width=".7" height="0" fill="none" stroke-width="0"/>
  <g transform="translate(30.2 16)">
   <g transform="rotate(270)">
    <text fill="#8c8c8c" font-family="Noto Sans" font-size="3.5" text-anchor="end">5V</text>
   </g>
  </g>
  <line x1="28.8" x2="28.8" y1="50.4" y2="64.45" fill="none" stroke="#787878" stroke-linecap="round" stroke-linejoin="round" stroke-width=".7"/>
  <rect id="connector7pin" x="28.45" y="50.4" width=".7" height="14.4" fill="none" stroke-width="0" connectorname="GND"/>
  <rect id="connector7terminal" x="28.45" y="64.8" width=".7" height="0" fill="none" stroke-width="0"/>
  <g transform="translate(30.2 48.8)">
   <g transform="rotate(270)">
    <text fill="#8c8c8c" font-family="Noto Sans" font-size="3.5">GND</text>
   </g>
  </g>
 </g>
</svg>
