<?xml version="1.0" encoding="UTF-8"?>
<!-- Created with Fritzing (http://www.fritzing.org/) -->
<svg width="1.3in" height="1.5in" baseProfile="tiny" version="1.2" viewBox="0 0 93.6 108" xmlns="http://www.w3.org/2000/svg">
 <desc>
  <referenceFile>Adafruit ADG728 1-to-8 Analog Matrix Switch_schematic.svg</referenceFile>
 </desc>
 <desc>Fritzing schematic generated by brd2svg</desc>
 <g id="schematic">
  <rect x="14.4" y="14.4" width="64.35" height="79.2" fill="none" stroke="#000" stroke-linecap="round" stroke-linejoin="round" stroke-width=".9"/>
  <text id="label" x="46.8" y="39.9" fill="#000000" font-family="Noto Sans" font-size="3.5" text-anchor="middle"><tspan x="46.8" y="39.9">Adafruit</tspan> <tspan x="46.8" y="43.4">ADG728</tspan> <tspan x="46.8" y="46.9">1-to-8</tspan> <tspan x="46.8" y="50.4">Analog</tspan> <tspan x="46.8" y="53.9">Matrix</tspan> <tspan x="46.8" y="57.4">Switch</tspan></text>
  <line x1=".35" x2="14.4" y1="28.8" y2="28.8" fill="none" stroke="#787878" stroke-linecap="round" stroke-linejoin="round" stroke-width=".7"/>
  <rect id="connector25pin" y="28.45" width="14.4" height=".7" fill="none" stroke-width="0" connectorName="S1"/>
  <rect id="connector25terminal" y="28.45" width="0" height=".7" fill="none" stroke-width="0"/>
  <text x="15.8" y="29.5" fill="#8c8c8c" font-family="Noto Sans" font-size="3.5">S1</text>
  <line x1=".35" x2="14.4" y1="36" y2="36" fill="none" stroke="#787878" stroke-linecap="round" stroke-linejoin="round" stroke-width=".7"/>
  <rect id="connector26pin" y="35.65" width="14.4" height=".7" fill="none" stroke-width="0" connectorName="S2"/>
  <rect id="connector26terminal" y="35.65" width="0" height=".7" fill="none" stroke-width="0"/>
  <text x="15.8" y="36.7" fill="#8c8c8c" font-family="Noto Sans" font-size="3.5">S2</text>
  <line x1=".35" x2="14.4" y1="43.2" y2="43.2" fill="none" stroke="#787878" stroke-linecap="round" stroke-linejoin="round" stroke-width=".7"/>
  <rect id="connector27pin" y="42.85" width="14.4" height=".7" fill="none" stroke-width="0" connectorName="S3"/>
  <rect id="connector27terminal" y="42.85" width="0" height=".7" fill="none" stroke-width="0"/>
  <text x="15.8" y="43.9" fill="#8c8c8c" font-family="Noto Sans" font-size="3.5">S3</text>
  <line x1=".35" x2="14.4" y1="50.4" y2="50.4" fill="none" stroke="#787878" stroke-linecap="round" stroke-linejoin="round" stroke-width=".7"/>
  <rect id="connector28pin" y="50.05" width="14.4" height=".7" fill="none" stroke-width="0" connectorName="S4"/>
  <rect id="connector28terminal" y="50.05" width="0" height=".7" fill="none" stroke-width="0"/>
  <text x="15.8" y="51.1" fill="#8c8c8c" font-family="Noto Sans" font-size="3.5">S4</text>
  <line x1=".35" x2="14.4" y1="57.6" y2="57.6" fill="none" stroke="#787878" stroke-linecap="round" stroke-linejoin="round" stroke-width=".7"/>
  <rect id="connector29pin" y="57.25" width="14.4" height=".7" fill="none" stroke-width="0" connectorName="S5"/>
  <rect id="connector29terminal" y="57.25" width="0" height=".7" fill="none" stroke-width="0"/>
  <text x="15.8" y="58.3" fill="#8c8c8c" font-family="Noto Sans" font-size="3.5">S5</text>
  <line x1=".35" x2="14.4" y1="64.8" y2="64.8" fill="none" stroke="#787878" stroke-linecap="round" stroke-linejoin="round" stroke-width=".7"/>
  <rect id="connector30pin" y="64.45" width="14.4" height=".7" fill="none" stroke-width="0" connectorName="S6"/>
  <rect id="connector30terminal" y="64.45" width="0" height=".7" fill="none" stroke-width="0"/>
  <text x="15.8" y="65.5" fill="#8c8c8c" font-family="Noto Sans" font-size="3.5">S6</text>
  <line x1=".35" x2="14.4" y1="72" y2="72" fill="none" stroke="#787878" stroke-linecap="round" stroke-linejoin="round" stroke-width=".7"/>
  <rect id="connector31pin" y="71.65" width="14.4" height=".7" fill="none" stroke-width="0" connectorName="S7"/>
  <rect id="connector31terminal" y="71.65" width="0" height=".7" fill="none" stroke-width="0"/>
  <text x="15.8" y="72.6998" fill="#8c8c8c" font-family="Noto Sans" font-size="3.5">S7</text>
  <line x1=".35" x2="14.4" y1="79.2" y2="79.2" fill="none" stroke="#787878" stroke-linecap="round" stroke-linejoin="round" stroke-width=".7"/>
  <rect id="connector32pin" y="78.85" width="14.4" height=".7" fill="none" stroke-width="0" connectorName="S8"/>
  <rect id="connector32terminal" y="78.85" width="0" height=".7" fill="none" stroke-width="0"/>
  <text x="15.8" y="79.8998" fill="#8c8c8c" font-family="Noto Sans" font-size="3.5">S8</text>
  <line x1="78.85" x2="93.25" y1="28.8" y2="28.8" fill="none" stroke="#787878" stroke-linecap="round" stroke-linejoin="round" stroke-width=".7"/>
  <rect id="connector11pin" x="79.2" y="28.45" width="14.4" height=".7" fill="none" stroke-width="0" connectorname="SDA"/>
  <rect id="connector11terminal" x="93.6" y="28.45" width="0" height=".7" fill="none" stroke-width="0"/>
  <text x="77.8003" y="29.5" fill="#8c8c8c" font-family="Noto Sans" font-size="3.5" text-anchor="end">SDA</text>
  <line x1="78.85" x2="93.25" y1="36" y2="36" fill="none" stroke="#787878" stroke-linecap="round" stroke-linejoin="round" stroke-width=".7"/>
  <rect id="connector12pin" x="79.2" y="35.65" width="14.4" height=".7" fill="none" stroke-width="0" connectorname="SCL"/>
  <rect id="connector12terminal" x="93.6" y="35.65" width="0" height=".7" fill="none" stroke-width="0"/>
  <text x="77.8003" y="36.7" fill="#8c8c8c" font-family="Noto Sans" font-size="3.5" text-anchor="end">SCL</text>
  <line x1="78.85" x2="93.25" y1="43.2" y2="43.2" fill="none" stroke="#787878" stroke-linecap="round" stroke-linejoin="round" stroke-width=".7"/>
  <rect id="connector37pin" x="79.2" y="42.85" width="14.4" height=".7" fill="none" stroke-width="0" connectorname="A0"/>
  <rect id="connector37terminal" x="93.6" y="42.85" width="0" height=".7" fill="none" stroke-width="0"/>
  <text x="77.8003" y="43.9" fill="#8c8c8c" font-family="Noto Sans" font-size="3.5" text-anchor="end">A0</text>
  <line x1="78.85" x2="93.25" y1="50.4" y2="50.4" fill="none" stroke="#787878" stroke-linecap="round" stroke-linejoin="round" stroke-width=".7"/>
  <rect id="connector38pin" x="79.2" y="50.05" width="14.4" height=".7" fill="none" stroke-width="0" connectorname="A1"/>
  <rect id="connector38terminal" x="93.6" y="50.05" width="0" height=".7" fill="none" stroke-width="0"/>
  <text x="77.8003" y="51.1" fill="#8c8c8c" font-family="Noto Sans" font-size="3.5" text-anchor="end">A1</text>
  <line x1="78.85" x2="93.25" y1="57.6" y2="57.6" fill="none" stroke="#787878" stroke-linecap="round" stroke-linejoin="round" stroke-width=".7"/>
  <rect id="connector39pin" x="79.2" y="57.25" width="14.4" height=".7" fill="none" stroke-width="0" connectorname="!RESET"/>
  <rect id="connector39terminal" x="93.6" y="57.25" width="0" height=".7" fill="none" stroke-width="0"/>
  <text x="77.8003" y="58.3" fill="#8c8c8c" font-family="Noto Sans" font-size="3.5" text-anchor="end">!RESET</text>
  <line x1="78.85" x2="93.25" y1="64.8" y2="64.8" fill="none" stroke="#787878" stroke-linecap="round" stroke-linejoin="round" stroke-width=".7"/>
  <rect id="connector40pin" x="79.2" y="64.45" width="14.4" height=".7" fill="none" stroke-width="0" connectorname="D"/>
  <rect id="connector40terminal" x="93.6" y="64.45" width="0" height=".7" fill="none" stroke-width="0"/>
  <text x="77.8003" y="65.5" fill="#8c8c8c" font-family="Noto Sans" font-size="3.5" text-anchor="end">D</text>
  <line x1="43.2" x2="43.2" y1=".35" y2="14.4" fill="none" stroke="#787878" stroke-linecap="round" stroke-linejoin="round" stroke-width=".7"/>
  <rect id="connector10pin" x="42.85" width=".7" height="14.4" fill="none" stroke-width="0" connectorname="VCC"/>
  <rect id="connector10terminal" x="42.85" width=".7" height="0" fill="none" stroke-width="0"/>
  <g transform="translate(44.6 16)">
   <g transform="rotate(270)">
    <text fill="#8c8c8c" font-family="Noto Sans" font-size="3.5" text-anchor="end">VCC</text>
   </g>
  </g>
  <line x1="43.2" x2="43.2" y1="93.6" y2="107.65" fill="none" stroke="#787878" stroke-linecap="round" stroke-linejoin="round" stroke-width=".7"/>
  <rect id="connector9pin" x="42.85" y="93.6" width=".7" height="14.4" fill="none" stroke-width="0" connectorname="GND"/>
  <rect id="connector9terminal" x="42.85" y="108" width=".7" height="0" fill="none" stroke-width="0"/>
  <g transform="translate(44.6 92)">
   <g transform="rotate(270)">
    <text fill="#8c8c8c" font-family="Noto Sans" font-size="3.5">GND</text>
   </g>
  </g>
  <rect id="connector33pin" x="42.85" width=".7" height="14.4" fill="none" stroke-width="0" connectorname="VCC"/>
  <rect id="connector33terminal" x="42.85" width=".7" height="0" fill="none" stroke-width="0"/>
  <rect id="connector16pin" x="42.85" width=".7" height="14.4" fill="none" stroke-width="0" connectorname="VCC"/>
  <rect id="connector16terminal" x="42.85" width=".7" height="0" fill="none" stroke-width="0"/>
  <rect id="connector34pin" x="42.85" y="93.6" width=".7" height="14.4" fill="none" stroke-width="0" connectorname="GND"/>
  <rect id="connector34terminal" x="42.85" y="108" width=".7" height="0" fill="none" stroke-width="0"/>
  <rect id="connector15pin" x="42.85" y="93.6" width=".7" height="14.4" fill="none" stroke-width="0" connectorname="GND"/>
  <rect id="connector15terminal" x="42.85" y="108" width=".7" height="0" fill="none" stroke-width="0"/>
  <rect id="connector36pin" x="79.2" y="28.45" width="14.4" height=".7" fill="none" stroke-width="0" connectorname="SDA"/>
  <rect id="connector36terminal" x="93.6" y="28.45" width="0" height=".7" fill="none" stroke-width="0"/>
  <rect id="connector17pin" x="79.2" y="28.45" width="14.4" height=".7" fill="none" stroke-width="0" connectorname="SDA"/>
  <rect id="connector17terminal" x="93.6" y="28.45" width="0" height=".7" fill="none" stroke-width="0"/>
  <rect id="connector18pin" x="79.2" y="35.65" width="14.4" height=".7" fill="none" stroke-width="0" connectorname="SCL"/>
  <rect id="connector18terminal" x="93.6" y="35.65" width="0" height=".7" fill="none" stroke-width="0"/>
  <rect id="connector35pin" x="79.2" y="35.65" width="14.4" height=".7" fill="none" stroke-width="0" connectorname="SCL"/>
  <rect id="connector35terminal" x="93.6" y="35.65" width="0" height=".7" fill="none" stroke-width="0"/>
 </g>
</svg>
