<?xml version="1.0" encoding="UTF-8"?>
<!-- Created with Fritzing (http://www.fritzing.org/) -->
<svg width="1in" height="2in" baseProfile="tiny" version="1.2" viewBox="0 0 72 144" xmlns="http://www.w3.org/2000/svg">
 <desc>
  <referenceFile>Adafruit HT16K33 Breakout 16x8 LED Matrix Driver_schematic.svg</referenceFile>
 </desc>
 <desc>Fritzing schematic generated by brd2svg</desc>
 <g id="schematic">
  <rect x="14.4" y="14.4" width="42.75" height="115.2" fill="none" stroke="#000" stroke-linecap="round" stroke-linejoin="round" stroke-width=".9"/>
  <text id="label" x="36" y="58" fill="#000000" font-family="Noto Sans" font-size="3.5" text-anchor="middle"><tspan x="36" y="58">Adafruit</tspan> <tspan x="36" y="61.5">HT16K33</tspan> <tspan x="36" y="65">Breakout</tspan> <tspan x="36" y="68.5">16x8</tspan> <tspan x="36" y="72">LED</tspan> <tspan x="36" y="75.4999">Matrix</tspan> <tspan x="36" y="78.9998">Driver</tspan></text>
  <line x1=".35" x2="14.4" y1="28.8" y2="28.8" fill="none" stroke="#787878" stroke-linecap="round" stroke-linejoin="round" stroke-width=".7"/>
  <rect id="connector30pin" y="28.45" width="14.4" height=".7" fill="none" stroke-width="0" connectorName="C0"/>
  <rect id="connector30terminal" y="28.45" width="0" height=".7" fill="none" stroke-width="0"/>
  <text x="15.8" y="29.5" fill="#8c8c8c" font-family="Noto Sans" font-size="3.5">C0</text>
  <line x1=".35" x2="14.4" y1="36" y2="36" fill="none" stroke="#787878" stroke-linecap="round" stroke-linejoin="round" stroke-width=".7"/>
  <rect id="connector31pin" y="35.65" width="14.4" height=".7" fill="none" stroke-width="0" connectorName="C1"/>
  <rect id="connector31terminal" y="35.65" width="0" height=".7" fill="none" stroke-width="0"/>
  <text x="15.8" y="36.7" fill="#8c8c8c" font-family="Noto Sans" font-size="3.5">C1</text>
  <line x1=".35" x2="14.4" y1="43.2" y2="43.2" fill="none" stroke="#787878" stroke-linecap="round" stroke-linejoin="round" stroke-width=".7"/>
  <rect id="connector32pin" y="42.85" width="14.4" height=".7" fill="none" stroke-width="0" connectorName="C2"/>
  <rect id="connector32terminal" y="42.85" width="0" height=".7" fill="none" stroke-width="0"/>
  <text x="15.8" y="43.9" fill="#8c8c8c" font-family="Noto Sans" font-size="3.5">C2</text>
  <line x1=".35" x2="14.4" y1="50.4" y2="50.4" fill="none" stroke="#787878" stroke-linecap="round" stroke-linejoin="round" stroke-width=".7"/>
  <rect id="connector33pin" y="50.05" width="14.4" height=".7" fill="none" stroke-width="0" connectorName="C3"/>
  <rect id="connector33terminal" y="50.05" width="0" height=".7" fill="none" stroke-width="0"/>
  <text x="15.8" y="51.1" fill="#8c8c8c" font-family="Noto Sans" font-size="3.5">C3</text>
  <line x1=".35" x2="14.4" y1="57.6" y2="57.6" fill="none" stroke="#787878" stroke-linecap="round" stroke-linejoin="round" stroke-width=".7"/>
  <rect id="connector34pin" y="57.25" width="14.4" height=".7" fill="none" stroke-width="0" connectorName="C4"/>
  <rect id="connector34terminal" y="57.25" width="0" height=".7" fill="none" stroke-width="0"/>
  <text x="15.8" y="58.3" fill="#8c8c8c" font-family="Noto Sans" font-size="3.5">C4</text>
  <line x1=".35" x2="14.4" y1="64.8" y2="64.8" fill="none" stroke="#787878" stroke-linecap="round" stroke-linejoin="round" stroke-width=".7"/>
  <rect id="connector35pin" y="64.45" width="14.4" height=".7" fill="none" stroke-width="0" connectorName="C5"/>
  <rect id="connector35terminal" y="64.45" width="0" height=".7" fill="none" stroke-width="0"/>
  <text x="15.8" y="65.5" fill="#8c8c8c" font-family="Noto Sans" font-size="3.5">C5</text>
  <line x1=".35" x2="14.4" y1="72" y2="72" fill="none" stroke="#787878" stroke-linecap="round" stroke-linejoin="round" stroke-width=".7"/>
  <rect id="connector36pin" y="71.65" width="14.4" height=".7" fill="none" stroke-width="0" connectorName="C6"/>
  <rect id="connector36terminal" y="71.65" width="0" height=".7" fill="none" stroke-width="0"/>
  <text x="15.8" y="72.6998" fill="#8c8c8c" font-family="Noto Sans" font-size="3.5">C6</text>
  <line x1=".35" x2="14.4" y1="79.2" y2="79.2" fill="none" stroke="#787878" stroke-linecap="round" stroke-linejoin="round" stroke-width=".7"/>
  <rect id="connector37pin" y="78.85" width="14.4" height=".7" fill="none" stroke-width="0" connectorName="C7"/>
  <rect id="connector37terminal" y="78.85" width="0" height=".7" fill="none" stroke-width="0"/>
  <text x="15.8" y="79.8998" fill="#8c8c8c" font-family="Noto Sans" font-size="3.5">C7</text>
  <line x1=".35" x2="14.4" y1="86.4" y2="86.4" fill="none" stroke="#787878" stroke-linecap="round" stroke-linejoin="round" stroke-width=".7"/>
  <rect id="connector38pin" y="86.05" width="14.4" height=".7" fill="none" stroke-width="0" connectorName="A15"/>
  <rect id="connector38terminal" y="86.05" width="0" height=".7" fill="none" stroke-width="0"/>
  <text x="15.8" y="87.0998" fill="#8c8c8c" font-family="Noto Sans" font-size="3.5">A15</text>
  <line x1=".35" x2="14.4" y1="93.6" y2="93.6" fill="none" stroke="#787878" stroke-linecap="round" stroke-linejoin="round" stroke-width=".7"/>
  <rect id="connector39pin" y="93.25" width="14.4" height=".7" fill="none" stroke-width="0" connectorName="A14"/>
  <rect id="connector39terminal" y="93.25" width="0" height=".7" fill="none" stroke-width="0"/>
  <text x="15.8" y="94.2998" fill="#8c8c8c" font-family="Noto Sans" font-size="3.5">A14</text>
  <line x1=".35" x2="14.4" y1="100.8" y2="100.8" fill="none" stroke="#787878" stroke-linecap="round" stroke-linejoin="round" stroke-width=".7"/>
  <rect id="connector40pin" y="100.45" width="14.4" height=".7" fill="none" stroke-width="0" connectorName="A13"/>
  <rect id="connector40terminal" y="100.45" width="0" height=".7" fill="none" stroke-width="0"/>
  <text x="15.8" y="101.5" fill="#8c8c8c" font-family="Noto Sans" font-size="3.5">A13</text>
  <line x1=".35" x2="14.4" y1="108" y2="108" fill="none" stroke="#787878" stroke-linecap="round" stroke-linejoin="round" stroke-width=".7"/>
  <rect id="connector41pin" y="107.65" width="14.4" height=".7" fill="none" stroke-width="0" connectorName="A12"/>
  <rect id="connector41terminal" y="107.65" width="0" height=".7" fill="none" stroke-width="0"/>
  <text x="15.8" y="108.7" fill="#8c8c8c" font-family="Noto Sans" font-size="3.5">A12</text>
  <line x1=".35" x2="14.4" y1="115.2" y2="115.2" fill="none" stroke="#787878" stroke-linecap="round" stroke-linejoin="round" stroke-width=".7"/>
  <rect id="connector42pin" y="114.85" width="14.4" height=".7" fill="none" stroke-width="0" connectorName="A11"/>
  <rect id="connector42terminal" y="114.85" width="0" height=".7" fill="none" stroke-width="0"/>
  <text x="15.8" y="115.9" fill="#8c8c8c" font-family="Noto Sans" font-size="3.5">A11</text>
  <line x1="57.25" x2="71.65" y1="28.8" y2="28.8" fill="none" stroke="#787878" stroke-linecap="round" stroke-linejoin="round" stroke-width=".7"/>
  <rect id="connector27pin" x="57.6" y="28.45" width="14.4" height=".7" fill="none" stroke-width="0" connectorname="SDA"/>
  <rect id="connector27terminal" x="72" y="28.45" width="0" height=".7" fill="none" stroke-width="0"/>
  <text x="56.2" y="29.5" fill="#8c8c8c" font-family="Noto Sans" font-size="3.5" text-anchor="end">SDA</text>
  <line x1="57.25" x2="71.65" y1="36" y2="36" fill="none" stroke="#787878" stroke-linecap="round" stroke-linejoin="round" stroke-width=".7"/>
  <rect id="connector26pin" x="57.6" y="35.65" width="14.4" height=".7" fill="none" stroke-width="0" connectorname="SCL"/>
  <rect id="connector26terminal" x="72" y="35.65" width="0" height=".7" fill="none" stroke-width="0"/>
  <text x="56.2" y="36.7" fill="#8c8c8c" font-family="Noto Sans" font-size="3.5" text-anchor="end">SCL</text>
  <line x1="57.25" x2="71.65" y1="43.2" y2="43.2" fill="none" stroke="#787878" stroke-linecap="round" stroke-linejoin="round" stroke-width=".7"/>
  <rect id="connector25pin" x="57.6" y="42.85" width="14.4" height=".7" fill="none" stroke-width="0" connectorname="A0"/>
  <rect id="connector25terminal" x="72" y="42.85" width="0" height=".7" fill="none" stroke-width="0"/>
  <text x="56.2" y="43.9" fill="#8c8c8c" font-family="Noto Sans" font-size="3.5" text-anchor="end">A0</text>
  <line x1="57.25" x2="71.65" y1="50.4" y2="50.4" fill="none" stroke="#787878" stroke-linecap="round" stroke-linejoin="round" stroke-width=".7"/>
  <rect id="connector24pin" x="57.6" y="50.05" width="14.4" height=".7" fill="none" stroke-width="0" connectorname="A1"/>
  <rect id="connector24terminal" x="72" y="50.05" width="0" height=".7" fill="none" stroke-width="0"/>
  <text x="56.2" y="51.1" fill="#8c8c8c" font-family="Noto Sans" font-size="3.5" text-anchor="end">A1</text>
  <line x1="57.25" x2="71.65" y1="57.6" y2="57.6" fill="none" stroke="#787878" stroke-linecap="round" stroke-linejoin="round" stroke-width=".7"/>
  <rect id="connector23pin" x="57.6" y="57.25" width="14.4" height=".7" fill="none" stroke-width="0" connectorname="A2"/>
  <rect id="connector23terminal" x="72" y="57.25" width="0" height=".7" fill="none" stroke-width="0"/>
  <text x="56.2" y="58.3" fill="#8c8c8c" font-family="Noto Sans" font-size="3.5" text-anchor="end">A2</text>
  <line x1="57.25" x2="71.65" y1="64.8" y2="64.8" fill="none" stroke="#787878" stroke-linecap="round" stroke-linejoin="round" stroke-width=".7"/>
  <rect id="connector22pin" x="57.6" y="64.45" width="14.4" height=".7" fill="none" stroke-width="0" connectorname="A3"/>
  <rect id="connector22terminal" x="72" y="64.45" width="0" height=".7" fill="none" stroke-width="0"/>
  <text x="56.2" y="65.5" fill="#8c8c8c" font-family="Noto Sans" font-size="3.5" text-anchor="end">A3</text>
  <line x1="57.25" x2="71.65" y1="72" y2="72" fill="none" stroke="#787878" stroke-linecap="round" stroke-linejoin="round" stroke-width=".7"/>
  <rect id="connector21pin" x="57.6" y="71.65" width="14.4" height=".7" fill="none" stroke-width="0" connectorname="A4"/>
  <rect id="connector21terminal" x="72" y="71.65" width="0" height=".7" fill="none" stroke-width="0"/>
  <text x="56.2" y="72.6998" fill="#8c8c8c" font-family="Noto Sans" font-size="3.5" text-anchor="end">A4</text>
  <line x1="57.25" x2="71.65" y1="79.2" y2="79.2" fill="none" stroke="#787878" stroke-linecap="round" stroke-linejoin="round" stroke-width=".7"/>
  <rect id="connector20pin" x="57.6" y="78.85" width="14.4" height=".7" fill="none" stroke-width="0" connectorname="A5"/>
  <rect id="connector20terminal" x="72" y="78.85" width="0" height=".7" fill="none" stroke-width="0"/>
  <text x="56.2" y="79.8998" fill="#8c8c8c" font-family="Noto Sans" font-size="3.5" text-anchor="end">A5</text>
  <line x1="57.25" x2="71.65" y1="86.4" y2="86.4" fill="none" stroke="#787878" stroke-linecap="round" stroke-linejoin="round" stroke-width=".7"/>
  <rect id="connector19pin" x="57.6" y="86.05" width="14.4" height=".7" fill="none" stroke-width="0" connectorname="A6"/>
  <rect id="connector19terminal" x="72" y="86.05" width="0" height=".7" fill="none" stroke-width="0"/>
  <text x="56.2" y="87.0998" fill="#8c8c8c" font-family="Noto Sans" font-size="3.5" text-anchor="end">A6</text>
  <line x1="57.25" x2="71.65" y1="93.6" y2="93.6" fill="none" stroke="#787878" stroke-linecap="round" stroke-linejoin="round" stroke-width=".7"/>
  <rect id="connector18pin" x="57.6" y="93.25" width="14.4" height=".7" fill="none" stroke-width="0" connectorname="A7"/>
  <rect id="connector18terminal" x="72" y="93.25" width="0" height=".7" fill="none" stroke-width="0"/>
  <text x="56.2" y="94.2998" fill="#8c8c8c" font-family="Noto Sans" font-size="3.5" text-anchor="end">A7</text>
  <line x1="57.25" x2="71.65" y1="100.8" y2="100.8" fill="none" stroke="#787878" stroke-linecap="round" stroke-linejoin="round" stroke-width=".7"/>
  <rect id="connector17pin" x="57.6" y="100.45" width="14.4" height=".7" fill="none" stroke-width="0" connectorname="A8"/>
  <rect id="connector17terminal" x="72" y="100.45" width="0" height=".7" fill="none" stroke-width="0"/>
  <text x="56.2" y="101.5" fill="#8c8c8c" font-family="Noto Sans" font-size="3.5" text-anchor="end">A8</text>
  <line x1="57.25" x2="71.65" y1="108" y2="108" fill="none" stroke="#787878" stroke-linecap="round" stroke-linejoin="round" stroke-width=".7"/>
  <rect id="connector16pin" x="57.6" y="107.65" width="14.4" height=".7" fill="none" stroke-width="0" connectorname="A9"/>
  <rect id="connector16terminal" x="72" y="107.65" width="0" height=".7" fill="none" stroke-width="0"/>
  <text x="56.2" y="108.7" fill="#8c8c8c" font-family="Noto Sans" font-size="3.5" text-anchor="end">A9</text>
  <line x1="57.25" x2="71.65" y1="115.2" y2="115.2" fill="none" stroke="#787878" stroke-linecap="round" stroke-linejoin="round" stroke-width=".7"/>
  <rect id="connector15pin" x="57.6" y="114.85" width="14.4" height=".7" fill="none" stroke-width="0" connectorname="A10"/>
  <rect id="connector15terminal" x="72" y="114.85" width="0" height=".7" fill="none" stroke-width="0"/>
  <text x="56.2" y="115.9" fill="#8c8c8c" font-family="Noto Sans" font-size="3.5" text-anchor="end">A10</text>
  <line x1="36" x2="36" y1=".35" y2="14.4" fill="none" stroke="#787878" stroke-linecap="round" stroke-linejoin="round" stroke-width=".7"/>
  <rect id="connector28pin" x="35.65" width=".7" height="14.4" fill="none" stroke-width="0" connectorname="VDD"/>
  <rect id="connector28terminal" x="35.65" width=".7" height="0" fill="none" stroke-width="0"/>
  <g transform="translate(37.4 16)">
   <g transform="rotate(270)">
    <text fill="#8c8c8c" font-family="Noto Sans" font-size="3.5" text-anchor="end">VDD</text>
   </g>
  </g>
  <line x1="36" x2="36" y1="129.6" y2="143.65" fill="none" stroke="#787878" stroke-linecap="round" stroke-linejoin="round" stroke-width=".7"/>
  <rect id="connector29pin" x="35.65" y="129.6" width=".7" height="14.4" fill="none" stroke-width="0" connectorname="GND"/>
  <rect id="connector29terminal" x="35.65" y="144" width=".7" height="0" fill="none" stroke-width="0"/>
  <g transform="translate(37.4 128)">
   <g transform="rotate(270)">
    <text fill="#8c8c8c" font-family="Noto Sans" font-size="3.5">GND</text>
   </g>
  </g>
 </g>
</svg>
