<?xml version="1.0" encoding="UTF-8"?>
<!-- Created with Fritzing (http://www.fritzing.org/) -->
<svg width="1.7in" height="2.3in" baseProfile="tiny" version="1.2" viewBox="0 0 122.4 165.6" xmlns="http://www.w3.org/2000/svg">
 <desc>
  <referenceFile>Adafruit Metro RP2350_schematic.svg</referenceFile>
 </desc>
 <desc>Fritzing schematic generated by brd2svg</desc>
 <g id="schematic">
  <rect x="14.4" y="14.4" width="93.15" height="136.8" fill="none" stroke="#000" stroke-linecap="round" stroke-linejoin="round" stroke-width=".9"/>
  <text id="label" x="61.2" y="72.2002" fill="#000000" font-family="Noto Sans" font-size="3.5" text-anchor="middle"><tspan x="61.2" y="72.2002">Adafruit</tspan> <tspan x="61.2" y="75.7001">Metro</tspan> <tspan x="61.2" y="79.2">RP2350</tspan></text>
  <line x1=".35" x2="14.4" y1="28.8" y2="28.8" fill="none" stroke="#787878" stroke-linecap="round" stroke-linejoin="round" stroke-width=".7"/>
  <rect id="connector153pin" y="28.45" width="14.4" height=".7" fill="none" stroke-width="0" connectorName="USBH_D-"/>
  <rect id="connector153terminal" y="28.45" width="0" height=".7" fill="none" stroke-width="0"/>
  <text x="15.8" y="29.5" fill="#8c8c8c" font-family="Noto Sans" font-size="3.5">USBH_D-</text>
  <line x1=".35" x2="14.4" y1="36" y2="36" fill="none" stroke="#787878" stroke-linecap="round" stroke-linejoin="round" stroke-width=".7"/>
  <rect id="connector154pin" y="35.65" width="14.4" height=".7" fill="none" stroke-width="0" connectorName="USBH_D+"/>
  <rect id="connector154terminal" y="35.65" width="0" height=".7" fill="none" stroke-width="0"/>
  <text x="15.8" y="36.7" fill="#8c8c8c" font-family="Noto Sans" font-size="3.5">USBH_D+</text>
  <line x1=".35" x2="14.4" y1="43.2" y2="43.2" fill="none" stroke="#787878" stroke-linecap="round" stroke-linejoin="round" stroke-width=".7"/>
  <rect id="connector151pin" y="42.85" width="14.4" height=".7" fill="none" stroke-width="0" connectorName="PWR_SWITCH"/>
  <rect id="connector151terminal" y="42.85" width="0" height=".7" fill="none" stroke-width="0"/>
  <text x="15.8" y="43.9" fill="#8c8c8c" font-family="Noto Sans" font-size="3.5">PWR_SWITCH</text>
  <line x1=".35" x2="14.4" y1="50.4" y2="50.4" fill="none" stroke="#787878" stroke-linecap="round" stroke-linejoin="round" stroke-width=".7"/>
  <rect id="connector131pin" y="50.05" width="14.4" height=".7" fill="none" stroke-width="0" connectorName="!RESET"/>
  <rect id="connector131terminal" y="50.05" width="0" height=".7" fill="none" stroke-width="0"/>
  <text x="15.8" y="51.1" fill="#8c8c8c" font-family="Noto Sans" font-size="3.5">!RESET</text>
  <line x1=".35" x2="14.4" y1="57.6" y2="57.6" fill="none" stroke="#787878" stroke-linecap="round" stroke-linejoin="round" stroke-width=".7"/>
  <rect id="connector5pin" y="57.25" width="14.4" height=".7" fill="none" stroke-width="0" connectorName="A0"/>
  <rect id="connector5terminal" y="57.25" width="0" height=".7" fill="none" stroke-width="0"/>
  <text x="15.8" y="58.3" fill="#8c8c8c" font-family="Noto Sans" font-size="3.5">A0</text>
  <line x1=".35" x2="14.4" y1="64.8" y2="64.8" fill="none" stroke="#787878" stroke-linecap="round" stroke-linejoin="round" stroke-width=".7"/>
  <rect id="connector6pin" y="64.45" width="14.4" height=".7" fill="none" stroke-width="0" connectorName="A1"/>
  <rect id="connector6terminal" y="64.45" width="0" height=".7" fill="none" stroke-width="0"/>
  <text x="15.8" y="65.5" fill="#8c8c8c" font-family="Noto Sans" font-size="3.5">A1</text>
  <line x1=".35" x2="14.4" y1="72" y2="72" fill="none" stroke="#787878" stroke-linecap="round" stroke-linejoin="round" stroke-width=".7"/>
  <rect id="connector7pin" y="71.65" width="14.4" height=".7" fill="none" stroke-width="0" connectorName="A2"/>
  <rect id="connector7terminal" y="71.65" width="0" height=".7" fill="none" stroke-width="0"/>
  <text x="15.8" y="72.6998" fill="#8c8c8c" font-family="Noto Sans" font-size="3.5">A2</text>
  <line x1=".35" x2="14.4" y1="79.2" y2="79.2" fill="none" stroke="#787878" stroke-linecap="round" stroke-linejoin="round" stroke-width=".7"/>
  <rect id="connector8pin" y="78.85" width="14.4" height=".7" fill="none" stroke-width="0" connectorName="A3"/>
  <rect id="connector8terminal" y="78.85" width="0" height=".7" fill="none" stroke-width="0"/>
  <text x="15.8" y="79.8998" fill="#8c8c8c" font-family="Noto Sans" font-size="3.5">A3</text>
  <line x1=".35" x2="14.4" y1="86.4" y2="86.4" fill="none" stroke="#787878" stroke-linecap="round" stroke-linejoin="round" stroke-width=".7"/>
  <rect id="connector9pin" y="86.05" width="14.4" height=".7" fill="none" stroke-width="0" connectorName="A4"/>
  <rect id="connector9terminal" y="86.05" width="0" height=".7" fill="none" stroke-width="0"/>
  <text x="15.8" y="87.0998" fill="#8c8c8c" font-family="Noto Sans" font-size="3.5">A4</text>
  <line x1=".35" x2="14.4" y1="93.6" y2="93.6" fill="none" stroke="#787878" stroke-linecap="round" stroke-linejoin="round" stroke-width=".7"/>
  <rect id="connector10pin" y="93.25" width="14.4" height=".7" fill="none" stroke-width="0" connectorName="A5"/>
  <rect id="connector10terminal" y="93.25" width="0" height=".7" fill="none" stroke-width="0"/>
  <text x="15.8" y="94.2998" fill="#8c8c8c" font-family="Noto Sans" font-size="3.5">A5</text>
  <line x1=".35" x2="14.4" y1="100.8" y2="100.8" fill="none" stroke="#787878" stroke-linecap="round" stroke-linejoin="round" stroke-width=".7"/>
  <rect id="connector129pin" y="100.45" width="14.4" height=".7" fill="none" stroke-width="0" connectorName="SCK"/>
  <rect id="connector129terminal" y="100.45" width="0" height=".7" fill="none" stroke-width="0"/>
  <text x="15.8" y="101.5" fill="#8c8c8c" font-family="Noto Sans" font-size="3.5">SCK</text>
  <line x1=".35" x2="14.4" y1="108" y2="108" fill="none" stroke="#787878" stroke-linecap="round" stroke-linejoin="round" stroke-width=".7"/>
  <rect id="connector127pin" y="107.65" width="14.4" height=".7" fill="none" stroke-width="0" connectorName="MISO"/>
  <rect id="connector127terminal" y="107.65" width="0" height=".7" fill="none" stroke-width="0"/>
  <text x="15.8" y="108.7" fill="#8c8c8c" font-family="Noto Sans" font-size="3.5">MISO</text>
  <line x1=".35" x2="14.4" y1="115.2" y2="115.2" fill="none" stroke="#787878" stroke-linecap="round" stroke-linejoin="round" stroke-width=".7"/>
  <rect id="connector130pin" y="114.85" width="14.4" height=".7" fill="none" stroke-width="0" connectorName="MOSI"/>
  <rect id="connector130terminal" y="114.85" width="0" height=".7" fill="none" stroke-width="0"/>
  <text x="15.8" y="115.9" fill="#8c8c8c" font-family="Noto Sans" font-size="3.5">MOSI</text>
  <line x1=".35" x2="14.4" y1="122.4" y2="122.4" fill="none" stroke="#787878" stroke-linecap="round" stroke-linejoin="round" stroke-width=".7"/>
  <rect id="connector113pin" y="122.05" width="14.4" height=".7" fill="none" stroke-width="0" connectorName="SWCLK"/>
  <rect id="connector113terminal" y="122.05" width="0" height=".7" fill="none" stroke-width="0"/>
  <text x="15.8" y="123.1" fill="#8c8c8c" font-family="Noto Sans" font-size="3.5">SWCLK</text>
  <line x1=".35" x2="14.4" y1="129.6" y2="129.6" fill="none" stroke="#787878" stroke-linecap="round" stroke-linejoin="round" stroke-width=".7"/>
  <rect id="connector115pin" y="129.25" width="14.4" height=".7" fill="none" stroke-width="0" connectorName="SWDIO"/>
  <rect id="connector115terminal" y="129.25" width="0" height=".7" fill="none" stroke-width="0"/>
  <text x="15.8" y="130.3" fill="#8c8c8c" font-family="Noto Sans" font-size="3.5">SWDIO</text>
  <line x1="107.65" x2="122.05" y1="28.8" y2="28.8" fill="none" stroke="#787878" stroke-linecap="round" stroke-linejoin="round" stroke-width=".7"/>
  <rect id="connector103pin" x="108" y="28.45" width="14.4" height=".7" fill="none" stroke-width="0" connectorname="SDA"/>
  <rect id="connector103terminal" x="122.4" y="28.45" width="0" height=".7" fill="none" stroke-width="0"/>
  <text x="106.6" y="29.5" fill="#8c8c8c" font-family="Noto Sans" font-size="3.5" text-anchor="end">SDA</text>
  <line x1="107.65" x2="122.05" y1="36" y2="36" fill="none" stroke="#787878" stroke-linecap="round" stroke-linejoin="round" stroke-width=".7"/>
  <rect id="connector104pin" x="108" y="35.65" width="14.4" height=".7" fill="none" stroke-width="0" connectorname="SCL"/>
  <rect id="connector104terminal" x="122.4" y="35.65" width="0" height=".7" fill="none" stroke-width="0"/>
  <text x="106.6" y="36.7" fill="#8c8c8c" font-family="Noto Sans" font-size="3.5" text-anchor="end">SCL</text>
  <line x1="107.65" x2="122.05" y1="43.2" y2="43.2" fill="none" stroke="#787878" stroke-linecap="round" stroke-linejoin="round" stroke-width=".7"/>
  <rect id="connector137pin" x="108" y="42.85" width="14.4" height=".7" fill="none" stroke-width="0" connectorname="D23"/>
  <rect id="connector137terminal" x="122.4" y="42.85" width="0" height=".7" fill="none" stroke-width="0"/>
  <text x="106.6" y="43.9" fill="#8c8c8c" font-family="Noto Sans" font-size="3.5" text-anchor="end">D23</text>
  <line x1="107.65" x2="122.05" y1="50.4" y2="50.4" fill="none" stroke="#787878" stroke-linecap="round" stroke-linejoin="round" stroke-width=".7"/>
  <rect id="connector138pin" x="108" y="50.05" width="14.4" height=".7" fill="none" stroke-width="0" connectorname="D22"/>
  <rect id="connector138terminal" x="122.4" y="50.05" width="0" height=".7" fill="none" stroke-width="0"/>
  <text x="106.6" y="51.1" fill="#8c8c8c" font-family="Noto Sans" font-size="3.5" text-anchor="end">D22</text>
  <line x1="107.65" x2="122.05" y1="57.6" y2="57.6" fill="none" stroke="#787878" stroke-linecap="round" stroke-linejoin="round" stroke-width=".7"/>
  <rect id="connector139pin" x="108" y="57.25" width="14.4" height=".7" fill="none" stroke-width="0" connectorname="D11"/>
  <rect id="connector139terminal" x="122.4" y="57.25" width="0" height=".7" fill="none" stroke-width="0"/>
  <text x="106.6" y="58.3" fill="#8c8c8c" font-family="Noto Sans" font-size="3.5" text-anchor="end">D11</text>
  <line x1="107.65" x2="122.05" y1="64.8" y2="64.8" fill="none" stroke="#787878" stroke-linecap="round" stroke-linejoin="round" stroke-width=".7"/>
  <rect id="connector140pin" x="108" y="64.45" width="14.4" height=".7" fill="none" stroke-width="0" connectorname="D10"/>
  <rect id="connector140terminal" x="122.4" y="64.45" width="0" height=".7" fill="none" stroke-width="0"/>
  <text x="106.6" y="65.5" fill="#8c8c8c" font-family="Noto Sans" font-size="3.5" text-anchor="end">D10</text>
  <line x1="107.65" x2="122.05" y1="72" y2="72" fill="none" stroke="#787878" stroke-linecap="round" stroke-linejoin="round" stroke-width=".7"/>
  <rect id="connector141pin" x="108" y="71.65" width="14.4" height=".7" fill="none" stroke-width="0" connectorname="D9"/>
  <rect id="connector141terminal" x="122.4" y="71.65" width="0" height=".7" fill="none" stroke-width="0"/>
  <text x="106.6" y="72.6998" fill="#8c8c8c" font-family="Noto Sans" font-size="3.5" text-anchor="end">D9</text>
  <line x1="107.65" x2="122.05" y1="79.2" y2="79.2" fill="none" stroke="#787878" stroke-linecap="round" stroke-linejoin="round" stroke-width=".7"/>
  <rect id="connector142pin" x="108" y="78.85" width="14.4" height=".7" fill="none" stroke-width="0" connectorname="D8"/>
  <rect id="connector142terminal" x="122.4" y="78.85" width="0" height=".7" fill="none" stroke-width="0"/>
  <text x="106.6" y="79.8998" fill="#8c8c8c" font-family="Noto Sans" font-size="3.5" text-anchor="end">D8</text>
  <line x1="107.65" x2="122.05" y1="86.4" y2="86.4" fill="none" stroke="#787878" stroke-linecap="round" stroke-linejoin="round" stroke-width=".7"/>
  <rect id="connector143pin" x="108" y="86.05" width="14.4" height=".7" fill="none" stroke-width="0" connectorname="D7"/>
  <rect id="connector143terminal" x="122.4" y="86.05" width="0" height=".7" fill="none" stroke-width="0"/>
  <text x="106.6" y="87.0998" fill="#8c8c8c" font-family="Noto Sans" font-size="3.5" text-anchor="end">D7</text>
  <line x1="107.65" x2="122.05" y1="93.6" y2="93.6" fill="none" stroke="#787878" stroke-linecap="round" stroke-linejoin="round" stroke-width=".7"/>
  <rect id="connector144pin" x="108" y="93.25" width="14.4" height=".7" fill="none" stroke-width="0" connectorname="D6"/>
  <rect id="connector144terminal" x="122.4" y="93.25" width="0" height=".7" fill="none" stroke-width="0"/>
  <text x="106.6" y="94.2998" fill="#8c8c8c" font-family="Noto Sans" font-size="3.5" text-anchor="end">D6</text>
  <line x1="107.65" x2="122.05" y1="100.8" y2="100.8" fill="none" stroke="#787878" stroke-linecap="round" stroke-linejoin="round" stroke-width=".7"/>
  <rect id="connector145pin" x="108" y="100.45" width="14.4" height=".7" fill="none" stroke-width="0" connectorname="D5"/>
  <rect id="connector145terminal" x="122.4" y="100.45" width="0" height=".7" fill="none" stroke-width="0"/>
  <text x="106.6" y="101.5" fill="#8c8c8c" font-family="Noto Sans" font-size="3.5" text-anchor="end">D5</text>
  <line x1="107.65" x2="122.05" y1="108" y2="108" fill="none" stroke="#787878" stroke-linecap="round" stroke-linejoin="round" stroke-width=".7"/>
  <rect id="connector146pin" x="108" y="107.65" width="14.4" height=".7" fill="none" stroke-width="0" connectorname="D4"/>
  <rect id="connector146terminal" x="122.4" y="107.65" width="0" height=".7" fill="none" stroke-width="0"/>
  <text x="106.6" y="108.7" fill="#8c8c8c" font-family="Noto Sans" font-size="3.5" text-anchor="end">D4</text>
  <line x1="107.65" x2="122.05" y1="115.2" y2="115.2" fill="none" stroke="#787878" stroke-linecap="round" stroke-linejoin="round" stroke-width=".7"/>
  <rect id="connector147pin" x="108" y="114.85" width="14.4" height=".7" fill="none" stroke-width="0" connectorname="D3"/>
  <rect id="connector147terminal" x="122.4" y="114.85" width="0" height=".7" fill="none" stroke-width="0"/>
  <text x="106.6" y="115.9" fill="#8c8c8c" font-family="Noto Sans" font-size="3.5" text-anchor="end">D3</text>
  <line x1="107.65" x2="122.05" y1="122.4" y2="122.4" fill="none" stroke="#787878" stroke-linecap="round" stroke-linejoin="round" stroke-width=".7"/>
  <rect id="connector148pin" x="108" y="122.05" width="14.4" height=".7" fill="none" stroke-width="0" connectorname="D2"/>
  <rect id="connector148terminal" x="122.4" y="122.05" width="0" height=".7" fill="none" stroke-width="0"/>
  <text x="106.6" y="123.1" fill="#8c8c8c" font-family="Noto Sans" font-size="3.5" text-anchor="end">D2</text>
  <line x1="107.65" x2="122.05" y1="129.6" y2="129.6" fill="none" stroke="#787878" stroke-linecap="round" stroke-linejoin="round" stroke-width=".7"/>
  <rect id="connector149pin" x="108" y="129.25" width="14.4" height=".7" fill="none" stroke-width="0" connectorname="TXD"/>
  <rect id="connector149terminal" x="122.4" y="129.25" width="0" height=".7" fill="none" stroke-width="0"/>
  <text x="106.6" y="130.3" fill="#8c8c8c" font-family="Noto Sans" font-size="3.5" text-anchor="end">TXD</text>
  <line x1="107.65" x2="122.05" y1="136.8" y2="136.8" fill="none" stroke="#787878" stroke-linecap="round" stroke-linejoin="round" stroke-width=".7"/>
  <rect id="connector150pin" x="108" y="136.45" width="14.4" height=".7" fill="none" stroke-width="0" connectorname="RXD"/>
  <rect id="connector150terminal" x="122.4" y="136.45" width="0" height=".7" fill="none" stroke-width="0"/>
  <text x="106.6" y="137.5" fill="#8c8c8c" font-family="Noto Sans" font-size="3.5" text-anchor="end">RXD</text>
  <line x1="43.2" x2="43.2" y1=".35" y2="14.4" fill="none" stroke="#787878" stroke-linecap="round" stroke-linejoin="round" stroke-width=".7"/>
  <rect id="connector102pin" x="42.85" width=".7" height="14.4" fill="none" stroke-width="0" connectorname="3.3V"/>
  <rect id="connector102terminal" x="42.85" width=".7" height="0" fill="none" stroke-width="0"/>
  <g transform="translate(44.6 16)">
   <g transform="rotate(270)">
    <text fill="#8c8c8c" font-family="Noto Sans" font-size="3.5" text-anchor="end">3.3V</text>
   </g>
  </g>
  <line x1="50.4" x2="50.4" y1=".35" y2="14.4" fill="none" stroke="#787878" stroke-linecap="round" stroke-linejoin="round" stroke-width=".7"/>
  <rect id="connector128pin" x="50.05" width=".7" height="14.4" fill="none" stroke-width="0" connectorname="+5V"/>
  <rect id="connector128terminal" x="50.05" width=".7" height="0" fill="none" stroke-width="0"/>
  <g transform="translate(51.8 16)">
   <g transform="rotate(270)">
    <text fill="#8c8c8c" font-family="Noto Sans" font-size="3.5" text-anchor="end">+5V</text>
   </g>
  </g>
  <line x1="57.6" x2="57.6" y1=".35" y2="14.4" fill="none" stroke="#787878" stroke-linecap="round" stroke-linejoin="round" stroke-width=".7"/>
  <rect id="connector152pin" x="57.25" width=".7" height="14.4" fill="none" stroke-width="0" connectorname="1"/>
  <rect id="connector152terminal" x="57.25" width=".7" height="0" fill="none" stroke-width="0"/>
  <g transform="translate(59 16)">
   <g transform="rotate(270)">
    <text fill="#8c8c8c" font-family="Noto Sans" font-size="3.5" text-anchor="end">1</text>
   </g>
  </g>
  <line x1="64.8" x2="64.8" y1=".35" y2="14.4" fill="none" stroke="#787878" stroke-linecap="round" stroke-linejoin="round" stroke-width=".7"/>
  <rect id="connector179pin" x="64.45" width=".7" height="14.4" fill="none" stroke-width="0" connectorname="VIN"/>
  <rect id="connector179terminal" x="64.45" width=".7" height="0" fill="none" stroke-width="0"/>
  <g transform="translate(66.2 16)">
   <g transform="rotate(270)">
    <text fill="#8c8c8c" font-family="Noto Sans" font-size="3.5" text-anchor="end">VIN</text>
   </g>
  </g>
  <line x1="57.6" x2="57.6" y1="151.2" y2="165.25" fill="none" stroke="#787878" stroke-linecap="round" stroke-linejoin="round" stroke-width=".7"/>
  <rect id="connector101pin" x="57.25" y="151.2" width=".7" height="14.4" fill="none" stroke-width="0" connectorname="GND"/>
  <rect id="connector101terminal" x="57.25" y="165.6" width=".7" height="0" fill="none" stroke-width="0"/>
  <g transform="translate(59 149.6)">
   <g transform="rotate(270)">
    <text fill="#8c8c8c" font-family="Noto Sans" font-size="3.5">GND</text>
   </g>
  </g>
  <rect id="connector135pin" x="42.85" width=".7" height="14.4" fill="none" stroke-width="0" connectorname="3.3V"/>
  <rect id="connector135terminal" x="42.85" width=".7" height="0" fill="none" stroke-width="0"/>
  <rect id="connector173pin" x="42.85" width=".7" height="14.4" fill="none" stroke-width="0" connectorname="3.3V"/>
  <rect id="connector173terminal" x="42.85" width=".7" height="0" fill="none" stroke-width="0"/>
  <rect id="connector175pin" x="42.85" width=".7" height="14.4" fill="none" stroke-width="0" connectorname="3.3V"/>
  <rect id="connector175terminal" x="42.85" width=".7" height="0" fill="none" stroke-width="0"/>
  <rect id="connector176pin" x="50.05" width=".7" height="14.4" fill="none" stroke-width="0" connectorname="+5V"/>
  <rect id="connector176terminal" x="50.05" width=".7" height="0" fill="none" stroke-width="0"/>
  <rect id="connector132pin" x="57.25" y="151.2" width=".7" height="14.4" fill="none" stroke-width="0" connectorname="GND"/>
  <rect id="connector132terminal" x="57.25" y="165.6" width=".7" height="0" fill="none" stroke-width="0"/>
  <rect id="connector136pin" x="57.25" y="151.2" width=".7" height="14.4" fill="none" stroke-width="0" connectorname="GND"/>
  <rect id="connector136terminal" x="57.25" y="165.6" width=".7" height="0" fill="none" stroke-width="0"/>
  <rect id="connector155pin" x="57.25" y="151.2" width=".7" height="14.4" fill="none" stroke-width="0" connectorname="GND"/>
  <rect id="connector155terminal" x="57.25" y="165.6" width=".7" height="0" fill="none" stroke-width="0"/>
  <rect id="connector177pin" x="57.25" y="151.2" width=".7" height="14.4" fill="none" stroke-width="0" connectorname="GND"/>
  <rect id="connector177terminal" x="57.25" y="165.6" width=".7" height="0" fill="none" stroke-width="0"/>
  <rect id="connector178pin" x="57.25" y="151.2" width=".7" height="14.4" fill="none" stroke-width="0" connectorname="GND"/>
  <rect id="connector178terminal" x="57.25" y="165.6" width=".7" height="0" fill="none" stroke-width="0"/>
  <rect id="connector390pin" x="57.25" y="151.2" width=".7" height="14.4" fill="none" stroke-width="0" connectorname="GND"/>
  <rect id="connector390terminal" x="57.25" y="165.6" width=".7" height="0" fill="none" stroke-width="0"/>
  <rect id="connector391pin" x="57.25" y="151.2" width=".7" height="14.4" fill="none" stroke-width="0" connectorname="GND"/>
  <rect id="connector391terminal" x="57.25" y="165.6" width=".7" height="0" fill="none" stroke-width="0"/>
  <rect id="connector114pin" x="57.25" y="151.2" width=".7" height="14.4" fill="none" stroke-width="0" connectorname="GND"/>
  <rect id="connector114terminal" x="57.25" y="165.6" width=".7" height="0" fill="none" stroke-width="0"/>
  <rect id="connector174pin" y="50.05" width="14.4" height=".7" fill="none" stroke-width="0" connectorName="!RESET"/>
  <rect id="connector174terminal" y="50.05" width="0" height=".7" fill="none" stroke-width="0"/>
  <rect id="connector134pin" x="108" y="28.45" width="14.4" height=".7" fill="none" stroke-width="0" connectorname="SDA"/>
  <rect id="connector134terminal" x="122.4" y="28.45" width="0" height=".7" fill="none" stroke-width="0"/>
  <rect id="connector133pin" x="108" y="35.65" width="14.4" height=".7" fill="none" stroke-width="0" connectorname="SCL"/>
  <rect id="connector133terminal" x="122.4" y="35.65" width="0" height=".7" fill="none" stroke-width="0"/>
 </g>
</svg>
