<?xml version="1.0" encoding="UTF-8"?>
<!-- Created with Fritzing (http://www.fritzing.org/) -->
<svg width="1.3in" height="1.1in" baseProfile="tiny" version="1.2" viewBox="0 0 93.6 79.2" xmlns="http://www.w3.org/2000/svg">
 <desc>
  <referenceFile>Adafruit LM73100 Ideal Diode Breakout_schematic.svg</referenceFile>
 </desc>
 <desc>Fritzing schematic generated by brd2svg</desc>
 <g id="schematic">
  <rect x="14.4" y="14.4" width="64.35" height="50.4" fill="none" stroke="#000" stroke-linecap="round" stroke-linejoin="round" stroke-width=".9"/>
  <text id="label" x="46.8" y="28.8" fill="#000000" font-family="Noto Sans" font-size="3.5" text-anchor="middle"><tspan x="46.8" y="28.8">Adafruit</tspan> <tspan x="46.8" y="32.3">LM73100</tspan> <tspan x="46.8" y="35.8">Ideal</tspan> <tspan x="46.8" y="39.3">Diode</tspan> <tspan x="46.8" y="42.8">Breakout</tspan></text>
  <line x1=".35" x2="14.4" y1="28.8" y2="28.8" fill="none" stroke="#787878" stroke-linecap="round" stroke-linejoin="round" stroke-width=".7"/>
  <rect id="connector18pin" y="28.45" width="14.4" height=".7" fill="none" stroke-width="0" connectorName="PGTH"/>
  <rect id="connector18terminal" x="-.0144" y="28.799" width=".0288" height=".0014" fill="none" stroke-width="0"/>
  <rect y="28.45" width="0" height=".7" fill="none" stroke-width="0"/>
  <text x="15.8" y="29.5" fill="#8c8c8c" font-family="Noto Sans" font-size="3.5">PGTH</text>
  <line x1=".35" x2="14.4" y1="36" y2="36" fill="none" stroke="#787878" stroke-linecap="round" stroke-linejoin="round" stroke-width=".7"/>
  <rect id="connector17pin" y="35.65" width="14.4" height=".7" fill="none" stroke-width="0" connectorName="DVDT"/>
  <rect id="connector17terminal" x="-.0144" y="35.999" width=".0288" height=".0014" fill="none" stroke-width="0"/>
  <rect y="35.65" width="0" height=".7" fill="none" stroke-width="0"/>
  <text x="15.8" y="36.7" fill="#8c8c8c" font-family="Noto Sans" font-size="3.5">DVDT</text>
  <line x1=".35" x2="14.4" y1="43.2" y2="43.2" fill="none" stroke="#787878" stroke-linecap="round" stroke-linejoin="round" stroke-width=".7"/>
  <rect id="connector16pin" y="42.85" width="14.4" height=".7" fill="none" stroke-width="0" connectorName="IMON"/>
  <rect id="connector16terminal" x="-.0144" y="43.199" width=".0288" height=".0014" fill="none" stroke-width="0"/>
  <rect y="42.85" width="0" height=".7" fill="none" stroke-width="0"/>
  <text x="15.8" y="43.9" fill="#8c8c8c" font-family="Noto Sans" font-size="3.5">IMON</text>
  <line x1="78.85" x2="93.25" y1="28.8" y2="28.8" fill="none" stroke="#787878" stroke-linecap="round" stroke-linejoin="round" stroke-width=".7"/>
  <rect id="connector21pin" x="79.2" y="28.45" width="14.4" height=".7" fill="none" stroke-width="0" connectorname="EN"/>
  <rect id="connector21terminal" x="93.586" y="28.799" width=".0288" height=".0014" fill="none" stroke-width="0"/>
  <rect x="93.6" y="28.45" width="0" height=".7" fill="none" stroke-width="0"/>
  <text x="77.8003" y="29.5" fill="#8c8c8c" font-family="Noto Sans" font-size="3.5" text-anchor="end">EN</text>
  <line x1="78.85" x2="93.25" y1="36" y2="36" fill="none" stroke="#787878" stroke-linecap="round" stroke-linejoin="round" stroke-width=".7"/>
  <rect id="connector20pin" x="79.2" y="35.65" width="14.4" height=".7" fill="none" stroke-width="0" connectorname="OVLO"/>
  <rect id="connector20terminal" x="93.586" y="35.999" width=".0288" height=".0014" fill="none" stroke-width="0"/>
  <rect x="93.6" y="35.65" width="0" height=".7" fill="none" stroke-width="0"/>
  <text x="77.8003" y="36.7" fill="#8c8c8c" font-family="Noto Sans" font-size="3.5" text-anchor="end">OVLO</text>
  <line x1="78.85" x2="93.25" y1="43.2" y2="43.2" fill="none" stroke="#787878" stroke-linecap="round" stroke-linejoin="round" stroke-width=".7"/>
  <rect id="connector19pin" x="79.2" y="42.85" width="14.4" height=".7" fill="none" stroke-width="0" connectorname="PGOOD"/>
  <rect id="connector19terminal" x="93.586" y="43.199" width=".0288" height=".0014" fill="none" stroke-width="0"/>
  <rect x="93.6" y="42.85" width="0" height=".7" fill="none" stroke-width="0"/>
  <text x="77.8003" y="43.9" fill="#8c8c8c" font-family="Noto Sans" font-size="3.5" text-anchor="end">PGOOD</text>
  <line x1="43.2" x2="43.2" y1=".35" y2="14.4" fill="none" stroke="#787878" stroke-linecap="round" stroke-linejoin="round" stroke-width=".7"/>
  <rect id="connector23pin" x="42.85" width=".7" height="14.4" fill="none" stroke-width="0" connectorname="VIN"/>
  <rect id="connector23terminal" x="43.199" y="-.0144" width=".0014" height=".0288" fill="none" stroke-width="0"/>
  <rect x="42.85" width=".7" height="0" fill="none" stroke-width="0"/>
  <g transform="translate(44.6 16)">
   <g transform="rotate(270)">
    <text fill="#8c8c8c" font-family="Noto Sans" font-size="3.5" text-anchor="end">VIN</text>
   </g>
  </g>
  <line x1="50.4" x2="50.4" y1=".35" y2="14.4" fill="none" stroke="#787878" stroke-linecap="round" stroke-linejoin="round" stroke-width=".7"/>
  <rect id="connector15pin" x="50.05" width=".7" height="14.4" fill="none" stroke-width="0" connectorname="VOUT"/>
  <rect id="connector15terminal" x="50.399" y="-.0144" width=".0014" height=".0288" fill="none" stroke-width="0"/>
  <rect x="50.05" width=".7" height="0" fill="none" stroke-width="0"/>
  <g transform="translate(51.8 16)">
   <g transform="rotate(270)">
    <text fill="#8c8c8c" font-family="Noto Sans" font-size="3.5" text-anchor="end">VOUT</text>
   </g>
  </g>
  <line x1="43.2" x2="43.2" y1="64.8" y2="78.85" fill="none" stroke="#787878" stroke-linecap="round" stroke-linejoin="round" stroke-width=".7"/>
  <rect id="connector22pin" x="42.85" y="64.8" width=".7" height="14.4" fill="none" stroke-width="0" connectorname="GND"/>
  <rect id="connector22terminal" x="43.199" y="79.186" width=".0014" height=".0288" fill="none" stroke-width="0"/>
  <rect x="42.85" y="79.2" width=".7" height="0" fill="none" stroke-width="0"/>
  <g transform="translate(44.6 63.2)">
   <g transform="rotate(270)">
    <text fill="#8c8c8c" font-family="Noto Sans" font-size="3.5">GND</text>
   </g>
  </g>
  <rect id="connector49pin" x="42.85" width=".7" height="14.4" fill="none" stroke-width="0" connectorname="VIN"/>
  <rect id="connector49terminal" x="43.199" y="-.0144" width=".0014" height=".0288" fill="none" stroke-width="0"/>
  <rect x="42.85" width=".7" height="0" fill="none" stroke-width="0"/>
  <rect id="connector50pin" x="50.05" width=".7" height="14.4" fill="none" stroke-width="0" connectorname="VOUT"/>
  <rect id="connector50terminal" x="50.399" y="-.0144" width=".0014" height=".0288" fill="none" stroke-width="0"/>
  <rect x="50.05" width=".7" height="0" fill="none" stroke-width="0"/>
  <rect id="connector48pin" x="42.85" y="64.8" width=".7" height="14.4" fill="none" stroke-width="0" connectorname="GND"/>
  <rect id="connector48terminal" x="43.199" y="79.186" width=".0014" height=".0288" fill="none" stroke-width="0"/>
  <rect x="42.85" y="79.2" width=".7" height="0" fill="none" stroke-width="0"/>
  <rect id="connector51pin" x="42.85" y="64.8" width=".7" height="14.4" fill="none" stroke-width="0" connectorname="GND"/>
  <rect id="connector51terminal" x="43.199" y="79.186" width=".0014" height=".0288" fill="none" stroke-width="0"/>
  <rect x="42.85" y="79.2" width=".7" height="0" fill="none" stroke-width="0"/>
 </g>
</svg>
