<?xml version="1.0" encoding="UTF-8"?>
<!-- Created with Fritzing (http://www.fritzing.org/) -->
<svg width="1.3in" height="1.6in" baseProfile="tiny" version="1.2" viewBox="0 0 93.6 115.2" xmlns="http://www.w3.org/2000/svg">
 <desc>
  <referenceFile>Adafruit RGB LCD Pi Plate_schematic.svg</referenceFile>
 </desc>
 <desc>Fritzing schematic generated by brd2svg</desc>
 <g id="schematic">
  <rect x="14.4" y="14.4" width="64.35" height="86.4" fill="none" stroke="#000" stroke-linecap="round" stroke-linejoin="round" stroke-width=".9"/>
  <text id="label" x="46.8" y="47.1" fill="#000000" font-family="Noto Sans" font-size="3.5" text-anchor="middle"><tspan x="46.8" y="47.1">Adafruit</tspan> <tspan x="46.8" y="50.6">RGB</tspan> <tspan x="46.8" y="54.1">LCD</tspan> <tspan x="46.8" y="57.6">Pi</tspan> <tspan x="46.8" y="61.1">Plate</tspan></text>
  <line x1=".35" x2="14.4" y1="28.8" y2="28.8" fill="none" stroke="#787878" stroke-linecap="round" stroke-linejoin="round" stroke-width=".7"/>
  <rect id="connector73pin" y="28.45" width="14.4" height=".7" fill="none" stroke-width="0" connectorName="SDA"/>
  <rect id="connector73terminal" y="28.45" width="0" height=".7" fill="none" stroke-width="0"/>
  <text x="15.8" y="29.5" fill="#8c8c8c" font-family="Noto Sans" font-size="3.5">SDA</text>
  <line x1=".35" x2="14.4" y1="36" y2="36" fill="none" stroke="#787878" stroke-linecap="round" stroke-linejoin="round" stroke-width=".7"/>
  <rect id="connector75pin" y="35.65" width="14.4" height=".7" fill="none" stroke-width="0" connectorName="SCL"/>
  <rect id="connector75terminal" y="35.65" width="0" height=".7" fill="none" stroke-width="0"/>
  <text x="15.8" y="36.7" fill="#8c8c8c" font-family="Noto Sans" font-size="3.5">SCL</text>
  <line x1=".35" x2="14.4" y1="43.2" y2="43.2" fill="none" stroke="#787878" stroke-linecap="round" stroke-linejoin="round" stroke-width=".7"/>
  <rect id="connector77pin" y="42.85" width="14.4" height=".7" fill="none" stroke-width="0" connectorName="GPIO4"/>
  <rect id="connector77terminal" y="42.85" width="0" height=".7" fill="none" stroke-width="0"/>
  <text x="15.8" y="43.9" fill="#8c8c8c" font-family="Noto Sans" font-size="3.5">GPIO4</text>
  <line x1=".35" x2="14.4" y1="50.4" y2="50.4" fill="none" stroke="#787878" stroke-linecap="round" stroke-linejoin="round" stroke-width=".7"/>
  <rect id="connector81pin" y="50.05" width="14.4" height=".7" fill="none" stroke-width="0" connectorName="GPIO17"/>
  <rect id="connector81terminal" y="50.05" width="0" height=".7" fill="none" stroke-width="0"/>
  <text x="15.8" y="51.1" fill="#8c8c8c" font-family="Noto Sans" font-size="3.5">GPIO17</text>
  <line x1=".35" x2="14.4" y1="57.6" y2="57.6" fill="none" stroke="#787878" stroke-linecap="round" stroke-linejoin="round" stroke-width=".7"/>
  <rect id="connector83pin" y="57.25" width="14.4" height=".7" fill="none" stroke-width="0" connectorName="GPIO27"/>
  <rect id="connector83terminal" y="57.25" width="0" height=".7" fill="none" stroke-width="0"/>
  <text x="15.8" y="58.3" fill="#8c8c8c" font-family="Noto Sans" font-size="3.5">GPIO27</text>
  <line x1=".35" x2="14.4" y1="64.8" y2="64.8" fill="none" stroke="#787878" stroke-linecap="round" stroke-linejoin="round" stroke-width=".7"/>
  <rect id="connector85pin" y="64.45" width="14.4" height=".7" fill="none" stroke-width="0" connectorName="GPIO22"/>
  <rect id="connector85terminal" y="64.45" width="0" height=".7" fill="none" stroke-width="0"/>
  <text x="15.8" y="65.5" fill="#8c8c8c" font-family="Noto Sans" font-size="3.5">GPIO22</text>
  <line x1=".35" x2="14.4" y1="72" y2="72" fill="none" stroke="#787878" stroke-linecap="round" stroke-linejoin="round" stroke-width=".7"/>
  <rect id="connector89pin" y="71.65" width="14.4" height=".7" fill="none" stroke-width="0" connectorName="MOSI"/>
  <rect id="connector89terminal" y="71.65" width="0" height=".7" fill="none" stroke-width="0"/>
  <text x="15.8" y="72.6998" fill="#8c8c8c" font-family="Noto Sans" font-size="3.5">MOSI</text>
  <line x1=".35" x2="14.4" y1="79.2" y2="79.2" fill="none" stroke="#787878" stroke-linecap="round" stroke-linejoin="round" stroke-width=".7"/>
  <rect id="connector91pin" y="78.85" width="14.4" height=".7" fill="none" stroke-width="0" connectorName="MISO"/>
  <rect id="connector91terminal" y="78.85" width="0" height=".7" fill="none" stroke-width="0"/>
  <text x="15.8" y="79.8998" fill="#8c8c8c" font-family="Noto Sans" font-size="3.5">MISO</text>
  <line x1=".35" x2="14.4" y1="86.4" y2="86.4" fill="none" stroke="#787878" stroke-linecap="round" stroke-linejoin="round" stroke-width=".7"/>
  <rect id="connector93pin" y="86.05" width="14.4" height=".7" fill="none" stroke-width="0" connectorName="SCK"/>
  <rect id="connector93terminal" y="86.05" width="0" height=".7" fill="none" stroke-width="0"/>
  <text x="15.8" y="87.0998" fill="#8c8c8c" font-family="Noto Sans" font-size="3.5">SCK</text>
  <line x1="78.85" x2="93.25" y1="28.8" y2="28.8" fill="none" stroke="#787878" stroke-linecap="round" stroke-linejoin="round" stroke-width=".7"/>
  <rect id="connector78pin" x="79.2" y="28.45" width="14.4" height=".7" fill="none" stroke-width="0" connectorname="TXD"/>
  <rect id="connector78terminal" x="93.6" y="28.45" width="0" height=".7" fill="none" stroke-width="0"/>
  <text x="77.8003" y="29.5" fill="#8c8c8c" font-family="Noto Sans" font-size="3.5" text-anchor="end">TXD</text>
  <line x1="78.85" x2="93.25" y1="36" y2="36" fill="none" stroke="#787878" stroke-linecap="round" stroke-linejoin="round" stroke-width=".7"/>
  <rect id="connector80pin" x="79.2" y="35.65" width="14.4" height=".7" fill="none" stroke-width="0" connectorname="RXD"/>
  <rect id="connector80terminal" x="93.6" y="35.65" width="0" height=".7" fill="none" stroke-width="0"/>
  <text x="77.8003" y="36.7" fill="#8c8c8c" font-family="Noto Sans" font-size="3.5" text-anchor="end">RXD</text>
  <line x1="78.85" x2="93.25" y1="43.2" y2="43.2" fill="none" stroke="#787878" stroke-linecap="round" stroke-linejoin="round" stroke-width=".7"/>
  <rect id="connector82pin" x="79.2" y="42.85" width="14.4" height=".7" fill="none" stroke-width="0" connectorname="GPIO18"/>
  <rect id="connector82terminal" x="93.6" y="42.85" width="0" height=".7" fill="none" stroke-width="0"/>
  <text x="77.8003" y="43.9" fill="#8c8c8c" font-family="Noto Sans" font-size="3.5" text-anchor="end">GPIO18</text>
  <line x1="78.85" x2="93.25" y1="50.4" y2="50.4" fill="none" stroke="#787878" stroke-linecap="round" stroke-linejoin="round" stroke-width=".7"/>
  <rect id="connector86pin" x="79.2" y="50.05" width="14.4" height=".7" fill="none" stroke-width="0" connectorname="GPIO23"/>
  <rect id="connector86terminal" x="93.6" y="50.05" width="0" height=".7" fill="none" stroke-width="0"/>
  <text x="77.8003" y="51.1" fill="#8c8c8c" font-family="Noto Sans" font-size="3.5" text-anchor="end">GPIO23</text>
  <line x1="78.85" x2="93.25" y1="57.6" y2="57.6" fill="none" stroke="#787878" stroke-linecap="round" stroke-linejoin="round" stroke-width=".7"/>
  <rect id="connector88pin" x="79.2" y="57.25" width="14.4" height=".7" fill="none" stroke-width="0" connectorname="GPIO24"/>
  <rect id="connector88terminal" x="93.6" y="57.25" width="0" height=".7" fill="none" stroke-width="0"/>
  <text x="77.8003" y="58.3" fill="#8c8c8c" font-family="Noto Sans" font-size="3.5" text-anchor="end">GPIO24</text>
  <line x1="78.85" x2="93.25" y1="64.8" y2="64.8" fill="none" stroke="#787878" stroke-linecap="round" stroke-linejoin="round" stroke-width=".7"/>
  <rect id="connector92pin" x="79.2" y="64.45" width="14.4" height=".7" fill="none" stroke-width="0" connectorname="GPIO25"/>
  <rect id="connector92terminal" x="93.6" y="64.45" width="0" height=".7" fill="none" stroke-width="0"/>
  <text x="77.8003" y="65.5" fill="#8c8c8c" font-family="Noto Sans" font-size="3.5" text-anchor="end">GPIO25</text>
  <line x1="78.85" x2="93.25" y1="72" y2="72" fill="none" stroke="#787878" stroke-linecap="round" stroke-linejoin="round" stroke-width=".7"/>
  <rect id="connector94pin" x="79.2" y="71.65" width="14.4" height=".7" fill="none" stroke-width="0" connectorname="SPI_CE0"/>
  <rect id="connector94terminal" x="93.6" y="71.65" width="0" height=".7" fill="none" stroke-width="0"/>
  <text x="77.8003" y="72.6998" fill="#8c8c8c" font-family="Noto Sans" font-size="3.5" text-anchor="end">SPI_CE0</text>
  <line x1="78.85" x2="93.25" y1="79.2" y2="79.2" fill="none" stroke="#787878" stroke-linecap="round" stroke-linejoin="round" stroke-width=".7"/>
  <rect id="connector96pin" x="79.2" y="78.85" width="14.4" height=".7" fill="none" stroke-width="0" connectorname="SPI_CE1"/>
  <rect id="connector96terminal" x="93.6" y="78.85" width="0" height=".7" fill="none" stroke-width="0"/>
  <text x="77.8003" y="79.8998" fill="#8c8c8c" font-family="Noto Sans" font-size="3.5" text-anchor="end">SPI_CE1</text>
  <line x1="43.2" x2="43.2" y1=".35" y2="14.4" fill="none" stroke="#787878" stroke-linecap="round" stroke-linejoin="round" stroke-width=".7"/>
  <rect id="connector71pin" x="42.85" width=".7" height="14.4" fill="none" stroke-width="0" connectorname="3.3V"/>
  <rect id="connector71terminal" x="42.85" width=".7" height="0" fill="none" stroke-width="0"/>
  <g transform="translate(44.6 16)">
   <g transform="rotate(270)">
    <text fill="#8c8c8c" font-family="Noto Sans" font-size="3.5" text-anchor="end">3.3V</text>
   </g>
  </g>
  <line x1="50.4" x2="50.4" y1=".35" y2="14.4" fill="none" stroke="#787878" stroke-linecap="round" stroke-linejoin="round" stroke-width=".7"/>
  <rect id="connector72pin" x="50.05" width=".7" height="14.4" fill="none" stroke-width="0" connectorname="+5V"/>
  <rect id="connector72terminal" x="50.05" width=".7" height="0" fill="none" stroke-width="0"/>
  <g transform="translate(51.8 16)">
   <g transform="rotate(270)">
    <text fill="#8c8c8c" font-family="Noto Sans" font-size="3.5" text-anchor="end">+5V</text>
   </g>
  </g>
  <line x1="43.2" x2="43.2" y1="100.8" y2="114.85" fill="none" stroke="#787878" stroke-linecap="round" stroke-linejoin="round" stroke-width=".7"/>
  <rect id="connector76pin" x="42.85" y="100.8" width=".7" height="14.4" fill="none" stroke-width="0" connectorname="GND"/>
  <rect id="connector76terminal" x="42.85" y="115.2" width=".7" height="0" fill="none" stroke-width="0"/>
  <g transform="translate(44.6 99.2)">
   <g transform="rotate(270)">
    <text fill="#8c8c8c" font-family="Noto Sans" font-size="3.5">GND</text>
   </g>
  </g>
  <rect id="connector74pin" x="50.05" width=".7" height="14.4" fill="none" stroke-width="0" connectorname="+5V"/>
  <rect id="connector74terminal" x="50.05" width=".7" height="0" fill="none" stroke-width="0"/>
  <rect id="connector87pin" x="42.85" width=".7" height="14.4" fill="none" stroke-width="0" connectorname="3.3V"/>
  <rect id="connector87terminal" x="42.85" width=".7" height="0" fill="none" stroke-width="0"/>
  <rect id="connector79pin" x="42.85" y="100.8" width=".7" height="14.4" fill="none" stroke-width="0" connectorname="GND"/>
  <rect id="connector79terminal" x="42.85" y="115.2" width=".7" height="0" fill="none" stroke-width="0"/>
  <rect id="connector84pin" x="42.85" y="100.8" width=".7" height="14.4" fill="none" stroke-width="0" connectorname="GND"/>
  <rect id="connector84terminal" x="42.85" y="115.2" width=".7" height="0" fill="none" stroke-width="0"/>
  <rect id="connector90pin" x="42.85" y="100.8" width=".7" height="14.4" fill="none" stroke-width="0" connectorname="GND"/>
  <rect id="connector90terminal" x="42.85" y="115.2" width=".7" height="0" fill="none" stroke-width="0"/>
  <rect id="connector95pin" x="42.85" y="100.8" width=".7" height="14.4" fill="none" stroke-width="0" connectorname="GND"/>
  <rect id="connector95terminal" x="42.85" y="115.2" width=".7" height="0" fill="none" stroke-width="0"/>
 </g>
</svg>
