<?xml version="1.0" encoding="UTF-8"?>
<!-- Created with Fritzing (http://www.fritzing.org/) -->
<svg width="1.2in" height="1.3in" baseProfile="tiny" version="1.2" viewBox="0 0 86.4 93.6" xmlns="http://www.w3.org/2000/svg">
 <desc>
  <referenceFile>Adafruit ANO Rotary Encoder to I2C_schematic.svg</referenceFile>
 </desc>
 <desc>Fritzing schematic generated by brd2svg</desc>
 <g id="schematic">
  <rect x="14.4" y="14.4" width="57.15" height="64.8" fill="none" stroke="#000" stroke-linecap="round" stroke-linejoin="round" stroke-width=".9"/>
  <text id="label" x="43.2" y="32.7" fill="#000000" font-family="Noto Sans" font-size="3.5" text-anchor="middle"><tspan x="43.2" y="32.7">Adafruit</tspan> <tspan x="43.2" y="36.2">ANO</tspan> <tspan x="43.2" y="39.7">Rotary</tspan> <tspan x="43.2" y="43.2">Encoder</tspan> <tspan x="43.2" y="46.7">to</tspan> <tspan x="43.2" y="50.2">I2C</tspan></text>
  <line x1=".35" x2="14.4" y1="28.8" y2="28.8" fill="none" stroke="#787878" stroke-linecap="round" stroke-linejoin="round" stroke-width=".7"/>
  <rect id="connector69pin" y="28.45" width="14.4" height=".7" fill="none" stroke-width="0" connectorName="ENC_A"/>
  <rect id="connector69terminal" y="28.45" width="0" height=".7" fill="none" stroke-width="0"/>
  <text x="15.8" y="29.5" fill="#8c8c8c" font-family="Noto Sans" font-size="3.5">ENC_A</text>
  <line x1=".35" x2="14.4" y1="36" y2="36" fill="none" stroke="#787878" stroke-linecap="round" stroke-linejoin="round" stroke-width=".7"/>
  <rect id="connector70pin" y="35.65" width="14.4" height=".7" fill="none" stroke-width="0" connectorName="ENC_B"/>
  <rect id="connector70terminal" y="35.65" width="0" height=".7" fill="none" stroke-width="0"/>
  <text x="15.8" y="36.7" fill="#8c8c8c" font-family="Noto Sans" font-size="3.5">ENC_B</text>
  <line x1=".35" x2="14.4" y1="43.2" y2="43.2" fill="none" stroke="#787878" stroke-linecap="round" stroke-linejoin="round" stroke-width=".7"/>
  <rect id="connector33pin" y="42.85" width="14.4" height=".7" fill="none" stroke-width="0" connectorName="INT"/>
  <rect id="connector33terminal" y="42.85" width="0" height=".7" fill="none" stroke-width="0"/>
  <text x="15.8" y="43.9" fill="#8c8c8c" font-family="Noto Sans" font-size="3.5">INT</text>
  <line x1=".35" x2="14.4" y1="50.4" y2="50.4" fill="none" stroke="#787878" stroke-linecap="round" stroke-linejoin="round" stroke-width=".7"/>
  <rect id="connector14pin" y="50.05" width="14.4" height=".7" fill="none" stroke-width="0" connectorName="SCL"/>
  <rect id="connector14terminal" y="50.05" width="0" height=".7" fill="none" stroke-width="0"/>
  <text x="15.8" y="51.1" fill="#8c8c8c" font-family="Noto Sans" font-size="3.5">SCL</text>
  <line x1=".35" x2="14.4" y1="57.6" y2="57.6" fill="none" stroke="#787878" stroke-linecap="round" stroke-linejoin="round" stroke-width=".7"/>
  <rect id="connector13pin" y="57.25" width="14.4" height=".7" fill="none" stroke-width="0" connectorName="SDA"/>
  <rect id="connector13terminal" y="57.25" width="0" height=".7" fill="none" stroke-width="0"/>
  <text x="15.8" y="58.3" fill="#8c8c8c" font-family="Noto Sans" font-size="3.5">SDA</text>
  <line x1="71.65" x2="86.05" y1="28.8" y2="28.8" fill="none" stroke="#787878" stroke-linecap="round" stroke-linejoin="round" stroke-width=".7"/>
  <rect id="connector73pin" x="72" y="28.45" width="14.4" height=".7" fill="none" stroke-width="0" connectorname="SW1"/>
  <rect id="connector73terminal" x="86.4" y="28.45" width="0" height=".7" fill="none" stroke-width="0"/>
  <text x="70.6" y="29.5" fill="#8c8c8c" font-family="Noto Sans" font-size="3.5" text-anchor="end">SW1</text>
  <line x1="71.65" x2="86.05" y1="36" y2="36" fill="none" stroke="#787878" stroke-linecap="round" stroke-linejoin="round" stroke-width=".7"/>
  <rect id="connector75pin" x="72" y="35.65" width="14.4" height=".7" fill="none" stroke-width="0" connectorname="SW3"/>
  <rect id="connector75terminal" x="86.4" y="35.65" width="0" height=".7" fill="none" stroke-width="0"/>
  <text x="70.6" y="36.7" fill="#8c8c8c" font-family="Noto Sans" font-size="3.5" text-anchor="end">SW3</text>
  <line x1="71.65" x2="86.05" y1="43.2" y2="43.2" fill="none" stroke="#787878" stroke-linecap="round" stroke-linejoin="round" stroke-width=".7"/>
  <rect id="connector74pin" x="72" y="42.85" width="14.4" height=".7" fill="none" stroke-width="0" connectorname="SW2"/>
  <rect id="connector74terminal" x="86.4" y="42.85" width="0" height=".7" fill="none" stroke-width="0"/>
  <text x="70.6" y="43.9" fill="#8c8c8c" font-family="Noto Sans" font-size="3.5" text-anchor="end">SW2</text>
  <line x1="71.65" x2="86.05" y1="50.4" y2="50.4" fill="none" stroke="#787878" stroke-linecap="round" stroke-linejoin="round" stroke-width=".7"/>
  <rect id="connector76pin" x="72" y="50.05" width="14.4" height=".7" fill="none" stroke-width="0" connectorname="SW4"/>
  <rect id="connector76terminal" x="86.4" y="50.05" width="0" height=".7" fill="none" stroke-width="0"/>
  <text x="70.6" y="51.1" fill="#8c8c8c" font-family="Noto Sans" font-size="3.5" text-anchor="end">SW4</text>
  <line x1="71.65" x2="86.05" y1="57.6" y2="57.6" fill="none" stroke="#787878" stroke-linecap="round" stroke-linejoin="round" stroke-width=".7"/>
  <rect id="connector77pin" x="72" y="57.25" width="14.4" height=".7" fill="none" stroke-width="0" connectorname="SW5"/>
  <rect id="connector77terminal" x="86.4" y="57.25" width="0" height=".7" fill="none" stroke-width="0"/>
  <text x="70.6" y="58.3" fill="#8c8c8c" font-family="Noto Sans" font-size="3.5" text-anchor="end">SW5</text>
  <line x1="71.65" x2="86.05" y1="64.8" y2="64.8" fill="none" stroke="#787878" stroke-linecap="round" stroke-linejoin="round" stroke-width=".7"/>
  <rect id="connector34pin" x="72" y="64.45" width="14.4" height=".7" fill="none" stroke-width="0" connectorname="UPDI"/>
  <rect id="connector34terminal" x="86.4" y="64.45" width="0" height=".7" fill="none" stroke-width="0"/>
  <text x="70.6" y="65.5" fill="#8c8c8c" font-family="Noto Sans" font-size="3.5" text-anchor="end">UPDI</text>
  <line x1="43.2" x2="43.2" y1=".35" y2="14.4" fill="none" stroke="#787878" stroke-linecap="round" stroke-linejoin="round" stroke-width=".7"/>
  <rect id="connector12pin" x="42.85" width=".7" height="14.4" fill="none" stroke-width="0" connectorname="VCC"/>
  <rect id="connector12terminal" x="42.85" width=".7" height="0" fill="none" stroke-width="0"/>
  <g transform="translate(44.6 16)">
   <g transform="rotate(270)">
    <text fill="#8c8c8c" font-family="Noto Sans" font-size="3.5" text-anchor="end">VCC</text>
   </g>
  </g>
  <line x1="43.2" x2="43.2" y1="79.2" y2="93.25" fill="none" stroke="#787878" stroke-linecap="round" stroke-linejoin="round" stroke-width=".7"/>
  <rect id="connector11pin" x="42.85" y="79.2" width=".7" height="14.4" fill="none" stroke-width="0" connectorname="GND"/>
  <rect id="connector11terminal" x="42.85" y="93.6" width=".7" height="0" fill="none" stroke-width="0"/>
  <g transform="translate(44.6 77.6)">
   <g transform="rotate(270)">
    <text fill="#8c8c8c" font-family="Noto Sans" font-size="3.5">GND</text>
   </g>
  </g>
  <rect id="connector29pin" x="42.85" width=".7" height="14.4" fill="none" stroke-width="0" connectorname="VCC"/>
  <rect id="connector29terminal" x="42.85" width=".7" height="0" fill="none" stroke-width="0"/>
  <rect id="connector18pin" x="42.85" width=".7" height="14.4" fill="none" stroke-width="0" connectorname="VCC"/>
  <rect id="connector18terminal" x="42.85" width=".7" height="0" fill="none" stroke-width="0"/>
  <rect id="connector30pin" x="42.85" y="79.2" width=".7" height="14.4" fill="none" stroke-width="0" connectorname="GND"/>
  <rect id="connector30terminal" x="42.85" y="93.6" width=".7" height="0" fill="none" stroke-width="0"/>
  <rect id="connector71pin" x="42.85" y="79.2" width=".7" height="14.4" fill="none" stroke-width="0" connectorname="GND"/>
  <rect id="connector71terminal" x="42.85" y="93.6" width=".7" height="0" fill="none" stroke-width="0"/>
  <rect id="connector72pin" x="42.85" y="79.2" width=".7" height="14.4" fill="none" stroke-width="0" connectorname="GND"/>
  <rect id="connector72terminal" x="42.85" y="93.6" width=".7" height="0" fill="none" stroke-width="0"/>
  <rect id="connector17pin" x="42.85" y="79.2" width=".7" height="14.4" fill="none" stroke-width="0" connectorname="GND"/>
  <rect id="connector17terminal" x="42.85" y="93.6" width=".7" height="0" fill="none" stroke-width="0"/>
  <rect id="connector31pin" y="50.05" width="14.4" height=".7" fill="none" stroke-width="0" connectorName="SCL"/>
  <rect id="connector31terminal" y="50.05" width="0" height=".7" fill="none" stroke-width="0"/>
  <rect id="connector20pin" y="50.05" width="14.4" height=".7" fill="none" stroke-width="0" connectorName="SCL"/>
  <rect id="connector20terminal" y="50.05" width="0" height=".7" fill="none" stroke-width="0"/>
  <rect id="connector32pin" y="57.25" width="14.4" height=".7" fill="none" stroke-width="0" connectorName="SDA"/>
  <rect id="connector32terminal" y="57.25" width="0" height=".7" fill="none" stroke-width="0"/>
  <rect id="connector19pin" y="57.25" width="14.4" height=".7" fill="none" stroke-width="0" connectorName="SDA"/>
  <rect id="connector19terminal" y="57.25" width="0" height=".7" fill="none" stroke-width="0"/>
 </g>
</svg>
