<?xml version="1.0" encoding="UTF-8"?>
<!-- Created with Fritzing (http://www.fritzing.org/) -->
<svg width="1.3in" height="1.5in" baseProfile="tiny" version="1.2" viewBox="0 0 93.6 108" xmlns="http://www.w3.org/2000/svg">
 <desc>
  <referenceFile>Adafruit microSD BFF_schematic.svg</referenceFile>
 </desc>
 <desc>Fritzing schematic generated by brd2svg</desc>
 <g id="schematic">
  <rect x="14.4" y="14.4" width="64.35" height="79.2" fill="none" stroke="#000" stroke-linecap="round" stroke-linejoin="round" stroke-width=".9"/>
  <text id="label" x="46.8" y="43.4" fill="#000000" font-family="Noto Sans" font-size="3.5" text-anchor="middle"><tspan x="46.8" y="43.4">Adafruit</tspan> <tspan x="46.8" y="46.9">microSD</tspan> <tspan x="46.8" y="50.4">BFF</tspan></text>
  <line x1=".35" x2="14.4" y1="28.8" y2="28.8" fill="none" stroke="#787878" stroke-linecap="round" stroke-linejoin="round" stroke-width=".7"/>
  <rect id="connector25pin" y="28.45" width="14.4" height=".7" fill="none" stroke-width="0" connectorName="MOSI"/>
  <rect id="connector25terminal" y="28.45" width="0" height=".7" fill="none" stroke-width="0"/>
  <text x="15.8" y="29.5" fill="#8c8c8c" font-family="Noto Sans" font-size="3.5">MOSI</text>
  <line x1=".35" x2="14.4" y1="36" y2="36" fill="none" stroke="#787878" stroke-linecap="round" stroke-linejoin="round" stroke-width=".7"/>
  <rect id="connector23pin" y="35.65" width="14.4" height=".7" fill="none" stroke-width="0" connectorName="MISO"/>
  <rect id="connector23terminal" y="35.65" width="0" height=".7" fill="none" stroke-width="0"/>
  <text x="15.8" y="36.7" fill="#8c8c8c" font-family="Noto Sans" font-size="3.5">MISO</text>
  <line x1=".35" x2="14.4" y1="43.2" y2="43.2" fill="none" stroke="#787878" stroke-linecap="round" stroke-linejoin="round" stroke-width=".7"/>
  <rect id="connector21pin" y="42.85" width="14.4" height=".7" fill="none" stroke-width="0" connectorName="SCK"/>
  <rect id="connector21terminal" y="42.85" width="0" height=".7" fill="none" stroke-width="0"/>
  <text x="15.8" y="43.9" fill="#8c8c8c" font-family="Noto Sans" font-size="3.5">SCK</text>
  <line x1=".35" x2="14.4" y1="50.4" y2="50.4" fill="none" stroke="#787878" stroke-linecap="round" stroke-linejoin="round" stroke-width=".7"/>
  <rect id="connector19pin" y="50.05" width="14.4" height=".7" fill="none" stroke-width="0" connectorName="RX"/>
  <rect id="connector19terminal" y="50.05" width="0" height=".7" fill="none" stroke-width="0"/>
  <text x="15.8" y="51.1" fill="#8c8c8c" font-family="Noto Sans" font-size="3.5">RX</text>
  <line x1="78.85" x2="93.25" y1="28.8" y2="28.8" fill="none" stroke="#787878" stroke-linecap="round" stroke-linejoin="round" stroke-width=".7"/>
  <rect id="connector5pin" x="79.2" y="28.45" width="14.4" height=".7" fill="none" stroke-width="0" connectorname="A0"/>
  <rect id="connector5terminal" x="93.6" y="28.45" width="0" height=".7" fill="none" stroke-width="0"/>
  <text x="77.8003" y="29.5" fill="#8c8c8c" font-family="Noto Sans" font-size="3.5" text-anchor="end">A0</text>
  <line x1="78.85" x2="93.25" y1="36" y2="36" fill="none" stroke="#787878" stroke-linecap="round" stroke-linejoin="round" stroke-width=".7"/>
  <rect id="connector7pin" x="79.2" y="35.65" width="14.4" height=".7" fill="none" stroke-width="0" connectorname="A1"/>
  <rect id="connector7terminal" x="93.6" y="35.65" width="0" height=".7" fill="none" stroke-width="0"/>
  <text x="77.8003" y="36.7" fill="#8c8c8c" font-family="Noto Sans" font-size="3.5" text-anchor="end">A1</text>
  <line x1="78.85" x2="93.25" y1="43.2" y2="43.2" fill="none" stroke="#787878" stroke-linecap="round" stroke-linejoin="round" stroke-width=".7"/>
  <rect id="connector9pin" x="79.2" y="42.85" width="14.4" height=".7" fill="none" stroke-width="0" connectorname="A2"/>
  <rect id="connector9terminal" x="93.6" y="42.85" width="0" height=".7" fill="none" stroke-width="0"/>
  <text x="77.8003" y="43.9" fill="#8c8c8c" font-family="Noto Sans" font-size="3.5" text-anchor="end">A2</text>
  <line x1="78.85" x2="93.25" y1="50.4" y2="50.4" fill="none" stroke="#787878" stroke-linecap="round" stroke-linejoin="round" stroke-width=".7"/>
  <rect id="connector11pin" x="79.2" y="50.05" width="14.4" height=".7" fill="none" stroke-width="0" connectorname="A3"/>
  <rect id="connector11terminal" x="93.6" y="50.05" width="0" height=".7" fill="none" stroke-width="0"/>
  <text x="77.8003" y="51.1" fill="#8c8c8c" font-family="Noto Sans" font-size="3.5" text-anchor="end">A3</text>
  <line x1="78.85" x2="93.25" y1="57.6" y2="57.6" fill="none" stroke="#787878" stroke-linecap="round" stroke-linejoin="round" stroke-width=".7"/>
  <rect id="connector13pin" x="79.2" y="57.25" width="14.4" height=".7" fill="none" stroke-width="0" connectorname="SDA"/>
  <rect id="connector13terminal" x="93.6" y="57.25" width="0" height=".7" fill="none" stroke-width="0"/>
  <text x="77.8003" y="58.3" fill="#8c8c8c" font-family="Noto Sans" font-size="3.5" text-anchor="end">SDA</text>
  <line x1="78.85" x2="93.25" y1="64.8" y2="64.8" fill="none" stroke="#787878" stroke-linecap="round" stroke-linejoin="round" stroke-width=".7"/>
  <rect id="connector15pin" x="79.2" y="64.45" width="14.4" height=".7" fill="none" stroke-width="0" connectorname="SCL"/>
  <rect id="connector15terminal" x="93.6" y="64.45" width="0" height=".7" fill="none" stroke-width="0"/>
  <text x="77.8003" y="65.5" fill="#8c8c8c" font-family="Noto Sans" font-size="3.5" text-anchor="end">SCL</text>
  <line x1="78.85" x2="93.25" y1="72" y2="72" fill="none" stroke="#787878" stroke-linecap="round" stroke-linejoin="round" stroke-width=".7"/>
  <rect id="connector17pin" x="79.2" y="71.65" width="14.4" height=".7" fill="none" stroke-width="0" connectorname="TX"/>
  <rect id="connector17terminal" x="93.6" y="71.65" width="0" height=".7" fill="none" stroke-width="0"/>
  <text x="77.8003" y="72.6998" fill="#8c8c8c" font-family="Noto Sans" font-size="3.5" text-anchor="end">TX</text>
  <line x1="78.85" x2="93.25" y1="79.2" y2="79.2" fill="none" stroke="#787878" stroke-linecap="round" stroke-linejoin="round" stroke-width=".7"/>
  <rect id="connector34pin" x="79.2" y="78.85" width="14.4" height=".7" fill="none" stroke-width="0" connectorname="SD_CS"/>
  <rect id="connector34terminal" x="93.6" y="78.85" width="0" height=".7" fill="none" stroke-width="0"/>
  <text x="77.8003" y="79.8998" fill="#8c8c8c" font-family="Noto Sans" font-size="3.5" text-anchor="end">SD_CS</text>
  <line x1="43.2" x2="43.2" y1=".35" y2="14.4" fill="none" stroke="#787878" stroke-linecap="round" stroke-linejoin="round" stroke-width=".7"/>
  <rect id="connector27pin" x="42.85" width=".7" height="14.4" fill="none" stroke-width="0" connectorname="3.3V"/>
  <rect id="connector27terminal" x="42.85" width=".7" height="0" fill="none" stroke-width="0"/>
  <g transform="translate(44.6 16)">
   <g transform="rotate(270)">
    <text fill="#8c8c8c" font-family="Noto Sans" font-size="3.5" text-anchor="end">3.3V</text>
   </g>
  </g>
  <line x1="50.4" x2="50.4" y1=".35" y2="14.4" fill="none" stroke="#787878" stroke-linecap="round" stroke-linejoin="round" stroke-width=".7"/>
  <rect id="connector31pin" x="50.05" width=".7" height="14.4" fill="none" stroke-width="0" connectorname="+5V"/>
  <rect id="connector31terminal" x="50.05" width=".7" height="0" fill="none" stroke-width="0"/>
  <g transform="translate(51.8 16)">
   <g transform="rotate(270)">
    <text fill="#8c8c8c" font-family="Noto Sans" font-size="3.5" text-anchor="end">+5V</text>
   </g>
  </g>
  <line x1="43.2" x2="43.2" y1="93.6" y2="107.65" fill="none" stroke="#787878" stroke-linecap="round" stroke-linejoin="round" stroke-width=".7"/>
  <rect id="connector29pin" x="42.85" y="93.6" width=".7" height="14.4" fill="none" stroke-width="0" connectorname="GND"/>
  <rect id="connector29terminal" x="42.85" y="108" width=".7" height="0" fill="none" stroke-width="0"/>
  <g transform="translate(44.6 92)">
   <g transform="rotate(270)">
    <text fill="#8c8c8c" font-family="Noto Sans" font-size="3.5">GND</text>
   </g>
  </g>
  <rect id="connector28pin" x="42.85" width=".7" height="14.4" fill="none" stroke-width="0" connectorname="3.3V"/>
  <rect id="connector28terminal" x="42.85" width=".7" height="0" fill="none" stroke-width="0"/>
  <rect id="connector32pin" x="50.05" width=".7" height="14.4" fill="none" stroke-width="0" connectorname="+5V"/>
  <rect id="connector32terminal" x="50.05" width=".7" height="0" fill="none" stroke-width="0"/>
  <rect id="connector30pin" x="42.85" y="93.6" width=".7" height="14.4" fill="none" stroke-width="0" connectorname="GND"/>
  <rect id="connector30terminal" x="42.85" y="108" width=".7" height="0" fill="none" stroke-width="0"/>
  <rect id="connector26pin" y="28.45" width="14.4" height=".7" fill="none" stroke-width="0" connectorName="MOSI"/>
  <rect id="connector26terminal" y="28.45" width="0" height=".7" fill="none" stroke-width="0"/>
  <rect id="connector24pin" y="35.65" width="14.4" height=".7" fill="none" stroke-width="0" connectorName="MISO"/>
  <rect id="connector24terminal" y="35.65" width="0" height=".7" fill="none" stroke-width="0"/>
  <rect id="connector22pin" y="42.85" width="14.4" height=".7" fill="none" stroke-width="0" connectorName="SCK"/>
  <rect id="connector22terminal" y="42.85" width="0" height=".7" fill="none" stroke-width="0"/>
  <rect id="connector20pin" y="50.05" width="14.4" height=".7" fill="none" stroke-width="0" connectorName="RX"/>
  <rect id="connector20terminal" y="50.05" width="0" height=".7" fill="none" stroke-width="0"/>
  <rect id="connector33pin" y="50.05" width="14.4" height=".7" fill="none" stroke-width="0" connectorName="RX"/>
  <rect id="connector33terminal" y="50.05" width="0" height=".7" fill="none" stroke-width="0"/>
  <rect id="connector38pin" x="79.2" y="28.45" width="14.4" height=".7" fill="none" stroke-width="0" connectorname="A0"/>
  <rect id="connector38terminal" x="93.6" y="28.45" width="0" height=".7" fill="none" stroke-width="0"/>
  <rect id="connector6pin" x="79.2" y="28.45" width="14.4" height=".7" fill="none" stroke-width="0" connectorname="A0"/>
  <rect id="connector6terminal" x="93.6" y="28.45" width="0" height=".7" fill="none" stroke-width="0"/>
  <rect id="connector8pin" x="79.2" y="35.65" width="14.4" height=".7" fill="none" stroke-width="0" connectorname="A1"/>
  <rect id="connector8terminal" x="93.6" y="35.65" width="0" height=".7" fill="none" stroke-width="0"/>
  <rect id="connector40pin" x="79.2" y="35.65" width="14.4" height=".7" fill="none" stroke-width="0" connectorname="A1"/>
  <rect id="connector40terminal" x="93.6" y="35.65" width="0" height=".7" fill="none" stroke-width="0"/>
  <rect id="connector10pin" x="79.2" y="42.85" width="14.4" height=".7" fill="none" stroke-width="0" connectorname="A2"/>
  <rect id="connector10terminal" x="93.6" y="42.85" width="0" height=".7" fill="none" stroke-width="0"/>
  <rect id="connector12pin" x="79.2" y="50.05" width="14.4" height=".7" fill="none" stroke-width="0" connectorname="A3"/>
  <rect id="connector12terminal" x="93.6" y="50.05" width="0" height=".7" fill="none" stroke-width="0"/>
  <rect id="connector14pin" x="79.2" y="57.25" width="14.4" height=".7" fill="none" stroke-width="0" connectorname="SDA"/>
  <rect id="connector14terminal" x="93.6" y="57.25" width="0" height=".7" fill="none" stroke-width="0"/>
  <rect id="connector16pin" x="79.2" y="64.45" width="14.4" height=".7" fill="none" stroke-width="0" connectorname="SCL"/>
  <rect id="connector16terminal" x="93.6" y="64.45" width="0" height=".7" fill="none" stroke-width="0"/>
  <rect id="connector18pin" x="79.2" y="71.65" width="14.4" height=".7" fill="none" stroke-width="0" connectorname="TX"/>
  <rect id="connector18terminal" x="93.6" y="71.65" width="0" height=".7" fill="none" stroke-width="0"/>
  <rect id="connector35pin" x="79.2" y="71.65" width="14.4" height=".7" fill="none" stroke-width="0" connectorname="TX"/>
  <rect id="connector35terminal" x="93.6" y="71.65" width="0" height=".7" fill="none" stroke-width="0"/>
  <rect id="connector36pin" x="79.2" y="78.85" width="14.4" height=".7" fill="none" stroke-width="0" connectorname="SD_CS"/>
  <rect id="connector36terminal" x="93.6" y="78.85" width="0" height=".7" fill="none" stroke-width="0"/>
  <rect id="connector39pin" x="79.2" y="78.85" width="14.4" height=".7" fill="none" stroke-width="0" connectorname="SD_CS"/>
  <rect id="connector39terminal" x="93.6" y="78.85" width="0" height=".7" fill="none" stroke-width="0"/>
  <rect id="connector41pin" x="79.2" y="78.85" width="14.4" height=".7" fill="none" stroke-width="0" connectorname="SD_CS"/>
  <rect id="connector41terminal" x="93.6" y="78.85" width="0" height=".7" fill="none" stroke-width="0"/>
  <rect id="connector42pin" x="79.2" y="78.85" width="14.4" height=".7" fill="none" stroke-width="0" connectorname="SD_CS"/>
  <rect id="connector42terminal" x="93.6" y="78.85" width="0" height=".7" fill="none" stroke-width="0"/>
 </g>
</svg>
