<?xml version="1.0" encoding="UTF-8"?>
<!-- Created with Fritzing (http://www.fritzing.org/) -->
<svg width="1.1in" height="1.2in" baseProfile="tiny" version="1.2" viewBox="0 0 79.2 86.4" xmlns="http://www.w3.org/2000/svg">
 <desc>
  <referenceFile>Adafruit CH334F Mini 2-Port USB Hub Breakout_schematic.svg</referenceFile>
 </desc>
 <desc>Fritzing schematic generated by brd2svg</desc>
 <g id="schematic">
  <rect x="14.4" y="14.4" width="49.95" height="57.6" fill="none" stroke="#000" stroke-linecap="round" stroke-linejoin="round" stroke-width=".9"/>
  <text id="label" x="39.6" y="29.2" fill="#000000" font-family="Noto Sans" font-size="3.5" text-anchor="middle"><tspan x="39.6" y="29.2">Adafruit</tspan> <tspan x="39.6" y="32.7">CH334F</tspan> <tspan x="39.6" y="36.2">Mini</tspan> <tspan x="39.6" y="39.7">2-Port</tspan> <tspan x="39.6" y="43.2">USB</tspan> <tspan x="39.6" y="46.7">Hub</tspan> <tspan x="39.6" y="50.2">Breakout</tspan></text>
  <line x1=".35" x2="14.4" y1="28.8" y2="28.8" fill="none" stroke="#787878" stroke-linecap="round" stroke-linejoin="round" stroke-width=".7"/>
  <rect id="connector24pin" y="28.45" width="14.4" height=".7" fill="none" stroke-width="0" connectorName="D+1"/>
  <rect id="connector24terminal" y="28.45" width="0" height=".7" fill="none" stroke-width="0"/>
  <text x="15.8" y="29.5" fill="#8c8c8c" font-family="Noto Sans" font-size="3.5">D+1</text>
  <line x1=".35" x2="14.4" y1="36" y2="36" fill="none" stroke="#787878" stroke-linecap="round" stroke-linejoin="round" stroke-width=".7"/>
  <rect id="connector20pin" y="35.65" width="14.4" height=".7" fill="none" stroke-width="0" connectorName="D+2"/>
  <rect id="connector20terminal" y="35.65" width="0" height=".7" fill="none" stroke-width="0"/>
  <text x="15.8" y="36.7" fill="#8c8c8c" font-family="Noto Sans" font-size="3.5">D+2</text>
  <line x1=".35" x2="14.4" y1="43.2" y2="43.2" fill="none" stroke="#787878" stroke-linecap="round" stroke-linejoin="round" stroke-width=".7"/>
  <rect id="connector25pin" y="42.85" width="14.4" height=".7" fill="none" stroke-width="0" connectorName="D-1"/>
  <rect id="connector25terminal" y="42.85" width="0" height=".7" fill="none" stroke-width="0"/>
  <text x="15.8" y="43.9" fill="#8c8c8c" font-family="Noto Sans" font-size="3.5">D-1</text>
  <line x1=".35" x2="14.4" y1="50.4" y2="50.4" fill="none" stroke="#787878" stroke-linecap="round" stroke-linejoin="round" stroke-width=".7"/>
  <rect id="connector21pin" y="50.05" width="14.4" height=".7" fill="none" stroke-width="0" connectorName="D-2"/>
  <rect id="connector21terminal" y="50.05" width="0" height=".7" fill="none" stroke-width="0"/>
  <text x="15.8" y="51.1" fill="#8c8c8c" font-family="Noto Sans" font-size="3.5">D-2</text>
  <line x1="64.45" x2="78.85" y1="28.8" y2="28.8" fill="none" stroke="#787878" stroke-linecap="round" stroke-linejoin="round" stroke-width=".7"/>
  <rect id="connector28pin" x="64.8" y="28.45" width="14.4" height=".7" fill="none" stroke-width="0" connectorname="DPH"/>
  <rect id="connector28terminal" x="79.2" y="28.45" width="0" height=".7" fill="none" stroke-width="0"/>
  <text x="63.4" y="29.5" fill="#8c8c8c" font-family="Noto Sans" font-size="3.5" text-anchor="end">DPH</text>
  <line x1="64.45" x2="78.85" y1="36" y2="36" fill="none" stroke="#787878" stroke-linecap="round" stroke-linejoin="round" stroke-width=".7"/>
  <rect id="connector29pin" x="64.8" y="35.65" width="14.4" height=".7" fill="none" stroke-width="0" connectorname="DMH"/>
  <rect id="connector29terminal" x="79.2" y="35.65" width="0" height=".7" fill="none" stroke-width="0"/>
  <text x="63.4" y="36.7" fill="#8c8c8c" font-family="Noto Sans" font-size="3.5" text-anchor="end">DMH</text>
  <line x1="36" x2="36" y1=".35" y2="14.4" fill="none" stroke="#787878" stroke-linecap="round" stroke-linejoin="round" stroke-width=".7"/>
  <rect id="connector19pin" x="35.65" width=".7" height="14.4" fill="none" stroke-width="0" connectorname="VBUS"/>
  <rect id="connector19terminal" x="35.65" width=".7" height="0" fill="none" stroke-width="0"/>
  <g transform="translate(37.4 16)">
   <g transform="rotate(270)">
    <text fill="#8c8c8c" font-family="Noto Sans" font-size="3.5" text-anchor="end">VBUS</text>
   </g>
  </g>
  <line x1="36" x2="36" y1="72" y2="86.05" fill="none" stroke="#787878" stroke-linecap="round" stroke-linejoin="round" stroke-width=".7"/>
  <rect id="connector22pin" x="35.65" y="72" width=".7" height="14.4" fill="none" stroke-width="0" connectorname="GND"/>
  <rect id="connector22terminal" x="35.65" y="86.4" width=".7" height="0" fill="none" stroke-width="0"/>
  <g transform="translate(37.4 70.4)">
   <g transform="rotate(270)">
    <text fill="#8c8c8c" font-family="Noto Sans" font-size="3.5">GND</text>
   </g>
  </g>
  <rect id="connector23pin" x="35.65" width=".7" height="14.4" fill="none" stroke-width="0" connectorname="VBUS"/>
  <rect id="connector23terminal" x="35.65" width=".7" height="0" fill="none" stroke-width="0"/>
  <rect id="connector27pin" x="35.65" width=".7" height="14.4" fill="none" stroke-width="0" connectorname="VBUS"/>
  <rect id="connector27terminal" x="35.65" width=".7" height="0" fill="none" stroke-width="0"/>
  <rect id="connector26pin" x="35.65" y="72" width=".7" height="14.4" fill="none" stroke-width="0" connectorname="GND"/>
  <rect id="connector26terminal" x="35.65" y="86.4" width=".7" height="0" fill="none" stroke-width="0"/>
  <rect id="connector30pin" x="35.65" y="72" width=".7" height="14.4" fill="none" stroke-width="0" connectorname="GND"/>
  <rect id="connector30terminal" x="36.349" y="43.186" width=".0014" height=".0288" fill="none" stroke-width="0"/>
  <rect x="35.65" y="86.4" width=".7" height="0" fill="none" stroke-width="0"/>
 </g>
</svg>
