<?xml version="1.0" encoding="UTF-8"?>
<!-- Created with Fritzing (http://www.fritzing.org/) -->
<svg width="1.2in" height="1in" baseProfile="tiny" version="1.2" viewBox="0 0 86.4 72" xmlns="http://www.w3.org/2000/svg">
 <desc>
  <referenceFile>Adafruit QSPI DIP Breakout_schematic.svg</referenceFile>
 </desc>
 <desc>Fritzing schematic generated by brd2svg</desc>
 <g id="schematic">
  <rect x="14.4" y="14.4" width="57.15" height="43.2" fill="none" stroke="#000" stroke-linecap="round" stroke-linejoin="round" stroke-width=".9"/>
  <text id="label" x="43.2" y="29" fill="#000000" font-family="Noto Sans" font-size="3.5" text-anchor="middle"><tspan x="43.2" y="29">Adafruit</tspan> <tspan x="43.2" y="32.5">QSPI</tspan> <tspan x="43.2" y="36">DIP</tspan> <tspan x="43.2" y="39.5">Breakout</tspan></text>
  <line x1=".35" x2="14.4" y1="28.8" y2="28.8" fill="none" stroke="#787878" stroke-linecap="round" stroke-linejoin="round" stroke-width=".7"/>
  <rect id="connector7pin" y="28.45" width="14.4" height=".7" fill="none" stroke-width="0" connectorName="IO3"/>
  <rect id="connector7terminal" y="28.45" width="0" height=".7" fill="none" stroke-width="0"/>
  <text x="15.8" y="29.5" fill="#8c8c8c" font-family="Noto Sans" font-size="3.5">IO3</text>
  <line x1=".35" x2="14.4" y1="36" y2="36" fill="none" stroke="#787878" stroke-linecap="round" stroke-linejoin="round" stroke-width=".7"/>
  <rect id="connector8pin" y="35.65" width="14.4" height=".7" fill="none" stroke-width="0" connectorName="SCK"/>
  <rect id="connector8terminal" y="35.65" width="0" height=".7" fill="none" stroke-width="0"/>
  <text x="15.8" y="36.7" fill="#8c8c8c" font-family="Noto Sans" font-size="3.5">SCK</text>
  <line x1=".35" x2="14.4" y1="43.2" y2="43.2" fill="none" stroke="#787878" stroke-linecap="round" stroke-linejoin="round" stroke-width=".7"/>
  <rect id="connector9pin" y="42.85" width="14.4" height=".7" fill="none" stroke-width="0" connectorName="MOSI"/>
  <rect id="connector9terminal" y="42.85" width="0" height=".7" fill="none" stroke-width="0"/>
  <text x="15.8" y="43.9" fill="#8c8c8c" font-family="Noto Sans" font-size="3.5">MOSI</text>
  <line x1="71.65" x2="86.05" y1="28.8" y2="28.8" fill="none" stroke="#787878" stroke-linecap="round" stroke-linejoin="round" stroke-width=".7"/>
  <rect id="connector10pin" x="72" y="28.45" width="14.4" height=".7" fill="none" stroke-width="0" connectorname="SS"/>
  <rect id="connector10terminal" x="86.4" y="28.45" width="0" height=".7" fill="none" stroke-width="0"/>
  <text x="70.6" y="29.5" fill="#8c8c8c" font-family="Noto Sans" font-size="3.5" text-anchor="end">SS</text>
  <line x1="71.65" x2="86.05" y1="36" y2="36" fill="none" stroke="#787878" stroke-linecap="round" stroke-linejoin="round" stroke-width=".7"/>
  <rect id="connector11pin" x="72" y="35.65" width="14.4" height=".7" fill="none" stroke-width="0" connectorname="MISO"/>
  <rect id="connector11terminal" x="86.4" y="35.65" width="0" height=".7" fill="none" stroke-width="0"/>
  <text x="70.6" y="36.7" fill="#8c8c8c" font-family="Noto Sans" font-size="3.5" text-anchor="end">MISO</text>
  <line x1="71.65" x2="86.05" y1="43.2" y2="43.2" fill="none" stroke="#787878" stroke-linecap="round" stroke-linejoin="round" stroke-width=".7"/>
  <rect id="connector12pin" x="72" y="42.85" width="14.4" height=".7" fill="none" stroke-width="0" connectorname="IO2"/>
  <rect id="connector12terminal" x="86.4" y="42.85" width="0" height=".7" fill="none" stroke-width="0"/>
  <text x="70.6" y="43.9" fill="#8c8c8c" font-family="Noto Sans" font-size="3.5" text-anchor="end">IO2</text>
  <line x1="43.2" x2="43.2" y1=".35" y2="14.4" fill="none" stroke="#787878" stroke-linecap="round" stroke-linejoin="round" stroke-width=".7"/>
  <rect id="connector6pin" x="42.85" width=".7" height="14.4" fill="none" stroke-width="0" connectorname="3.3V"/>
  <rect id="connector6terminal" x="42.85" width=".7" height="0" fill="none" stroke-width="0"/>
  <g transform="translate(44.6 16)">
   <g transform="rotate(270)">
    <text fill="#8c8c8c" font-family="Noto Sans" font-size="3.5" text-anchor="end">3.3V</text>
   </g>
  </g>
  <line x1="43.2" x2="43.2" y1="57.6" y2="71.65" fill="none" stroke="#787878" stroke-linecap="round" stroke-linejoin="round" stroke-width=".7"/>
  <rect id="connector13pin" x="42.85" y="57.6" width=".7" height="14.4" fill="none" stroke-width="0" connectorname="GND"/>
  <rect id="connector13terminal" x="42.85" y="72" width=".7" height="0" fill="none" stroke-width="0"/>
  <g transform="translate(44.6 56)">
   <g transform="rotate(270)">
    <text fill="#8c8c8c" font-family="Noto Sans" font-size="3.5">GND</text>
   </g>
  </g>
 </g>
</svg>
