<?xml version="1.0" encoding="UTF-8"?>
<!-- Created with Fritzing (http://www.fritzing.org/) -->
<svg width="1.2in" height="1.2in" baseProfile="tiny" version="1.2" viewBox="0 0 86.4 86.4" xmlns="http://www.w3.org/2000/svg">
 <desc>
  <referenceFile>Adafruit SHARP Memory Display 1.3 inch 96x96_schematic.svg</referenceFile>
 </desc>
 <desc>Fritzing schematic generated by brd2svg</desc>
 <g id="schematic">
  <rect x="14.4" y="14.4" width="57.15" height="57.6" fill="none" stroke="#000" stroke-linecap="round" stroke-linejoin="round" stroke-width=".9"/>
  <text id="label" x="43.2" y="29.2" fill="#000000" font-family="Noto Sans" font-size="3.5" text-anchor="middle"><tspan x="43.2" y="29.2">Adafruit</tspan> <tspan x="43.2" y="32.7">SHARP</tspan> <tspan x="43.2" y="36.2">Memory</tspan> <tspan x="43.2" y="39.7">Display</tspan> <tspan x="43.2" y="43.2">1.3</tspan> <tspan x="43.2" y="46.7">inch</tspan> <tspan x="43.2" y="50.2">96x96</tspan></text>
  <line x1=".35" x2="14.4" y1="28.8" y2="28.8" fill="none" stroke="#787878" stroke-linecap="round" stroke-linejoin="round" stroke-width=".7"/>
  <rect id="connector13pin" y="28.45" width="14.4" height=".7" fill="none" stroke-width="0" connectorName="EXTIN"/>
  <rect id="connector13terminal" y="28.45" width="0" height=".7" fill="none" stroke-width="0"/>
  <text x="15.8" y="29.5" fill="#8c8c8c" font-family="Noto Sans" font-size="3.5">EXTIN</text>
  <line x1=".35" x2="14.4" y1="36" y2="36" fill="none" stroke="#787878" stroke-linecap="round" stroke-linejoin="round" stroke-width=".7"/>
  <rect id="connector12pin" y="35.65" width="14.4" height=".7" fill="none" stroke-width="0" connectorName="DISP"/>
  <rect id="connector12terminal" y="35.65" width="0" height=".7" fill="none" stroke-width="0"/>
  <text x="15.8" y="36.7" fill="#8c8c8c" font-family="Noto Sans" font-size="3.5">DISP</text>
  <line x1=".35" x2="14.4" y1="43.2" y2="43.2" fill="none" stroke="#787878" stroke-linecap="round" stroke-linejoin="round" stroke-width=".7"/>
  <rect id="connector11pin" y="42.85" width="14.4" height=".7" fill="none" stroke-width="0" connectorName="EXTMODE"/>
  <rect id="connector11terminal" y="42.85" width="0" height=".7" fill="none" stroke-width="0"/>
  <text x="15.8" y="43.9" fill="#8c8c8c" font-family="Noto Sans" font-size="3.5">EXTMODE</text>
  <line x1="71.65" x2="86.05" y1="28.8" y2="28.8" fill="none" stroke="#787878" stroke-linecap="round" stroke-linejoin="round" stroke-width=".7"/>
  <rect id="connector10pin" x="72" y="28.45" width="14.4" height=".7" fill="none" stroke-width="0" connectorname="CS"/>
  <rect id="connector10terminal" x="86.4" y="28.45" width="0" height=".7" fill="none" stroke-width="0"/>
  <text x="70.6" y="29.5" fill="#8c8c8c" font-family="Noto Sans" font-size="3.5" text-anchor="end">CS</text>
  <line x1="71.65" x2="86.05" y1="36" y2="36" fill="none" stroke="#787878" stroke-linecap="round" stroke-linejoin="round" stroke-width=".7"/>
  <rect id="connector9pin" x="72" y="35.65" width="14.4" height=".7" fill="none" stroke-width="0" connectorname="MOSI"/>
  <rect id="connector9terminal" x="86.4" y="35.65" width="0" height=".7" fill="none" stroke-width="0"/>
  <text x="70.6" y="36.7" fill="#8c8c8c" font-family="Noto Sans" font-size="3.5" text-anchor="end">MOSI</text>
  <line x1="71.65" x2="86.05" y1="43.2" y2="43.2" fill="none" stroke="#787878" stroke-linecap="round" stroke-linejoin="round" stroke-width=".7"/>
  <rect id="connector8pin" x="72" y="42.85" width="14.4" height=".7" fill="none" stroke-width="0" connectorname="SCLK"/>
  <rect id="connector8terminal" x="86.4" y="42.85" width="0" height=".7" fill="none" stroke-width="0"/>
  <text x="70.6" y="43.9" fill="#8c8c8c" font-family="Noto Sans" font-size="3.5" text-anchor="end">SCLK</text>
  <line x1="43.2" x2="43.2" y1=".35" y2="14.4" fill="none" stroke="#787878" stroke-linecap="round" stroke-linejoin="round" stroke-width=".7"/>
  <rect id="connector5pin" x="42.85" width=".7" height="14.4" fill="none" stroke-width="0" connectorname="VIN"/>
  <rect id="connector5terminal" x="42.85" width=".7" height="0" fill="none" stroke-width="0"/>
  <g transform="translate(44.6 16)">
   <g transform="rotate(270)">
    <text fill="#8c8c8c" font-family="Noto Sans" font-size="3.5" text-anchor="end">VIN</text>
   </g>
  </g>
  <line x1="50.4" x2="50.4" y1=".35" y2="14.4" fill="none" stroke="#787878" stroke-linecap="round" stroke-linejoin="round" stroke-width=".7"/>
  <rect id="connector6pin" x="50.05" width=".7" height="14.4" fill="none" stroke-width="0" connectorname="3.3V"/>
  <rect id="connector6terminal" x="50.05" width=".7" height="0" fill="none" stroke-width="0"/>
  <g transform="translate(51.8 16)">
   <g transform="rotate(270)">
    <text fill="#8c8c8c" font-family="Noto Sans" font-size="3.5" text-anchor="end">3.3V</text>
   </g>
  </g>
  <line x1="43.2" x2="43.2" y1="72" y2="86.05" fill="none" stroke="#787878" stroke-linecap="round" stroke-linejoin="round" stroke-width=".7"/>
  <rect id="connector7pin" x="42.85" y="72" width=".7" height="14.4" fill="none" stroke-width="0" connectorname="GND"/>
  <rect id="connector7terminal" x="42.85" y="86.4" width=".7" height="0" fill="none" stroke-width="0"/>
  <g transform="translate(44.6 70.4)">
   <g transform="rotate(270)">
    <text fill="#8c8c8c" font-family="Noto Sans" font-size="3.5">GND</text>
   </g>
  </g>
 </g>
</svg>
