<?xml version="1.0" encoding="UTF-8"?>
<!-- Created with Fritzing (http://www.fritzing.org/) -->
<svg width=".9in" height="1.2in" baseProfile="tiny" version="1.2" viewBox="0 0 64.8 86.4" xmlns="http://www.w3.org/2000/svg">
 <desc>
  <referenceFile>Adafruit DS3502_schematic.svg</referenceFile>
 </desc>
 <desc>Fritzing schematic generated by brd2svg</desc>
 <g id="schematic">
  <rect x="14.4" y="14.4" width="35.55" height="57.6" fill="none" stroke="#000" stroke-linecap="round" stroke-linejoin="round" stroke-width=".9"/>
  <text id="label" x="32.4" y="39.7" fill="#000000" font-family="Noto Sans" font-size="3.5" text-anchor="middle"><tspan x="32.4" y="39.7">Adafruit</tspan> <tspan x="32.4" y="43.2">DS3502</tspan></text>
  <line x1=".35" x2="14.4" y1="28.8" y2="28.8" fill="none" stroke="#787878" stroke-linecap="round" stroke-linejoin="round" stroke-width=".7"/>
  <rect id="connector31pin" y="28.45" width="14.4" height=".7" fill="none" stroke-width="0" connectorName="SCL"/>
  <rect id="connector31terminal" x="-.0144" y="28.799" width=".0288" height=".0014" fill="none" stroke-width="0"/>
  <rect y="28.45" width="0" height=".7" fill="none" stroke-width="0"/>
  <text x="15.8" y="29.5" fill="#8c8c8c" font-family="Noto Sans" font-size="3.5">SCL</text>
  <line x1=".35" x2="14.4" y1="36" y2="36" fill="none" stroke="#787878" stroke-linecap="round" stroke-linejoin="round" stroke-width=".7"/>
  <rect id="connector32pin" y="35.65" width="14.4" height=".7" fill="none" stroke-width="0" connectorName="SDA"/>
  <rect id="connector32terminal" x="-.0144" y="35.999" width=".0288" height=".0014" fill="none" stroke-width="0"/>
  <rect y="35.65" width="0" height=".7" fill="none" stroke-width="0"/>
  <text x="15.8" y="36.7" fill="#8c8c8c" font-family="Noto Sans" font-size="3.5">SDA</text>
  <line x1="50.05" x2="64.45" y1="28.8" y2="28.8" fill="none" stroke="#787878" stroke-linecap="round" stroke-linejoin="round" stroke-width=".7"/>
  <rect id="connector25pin" x="50.4" y="28.45" width="14.4" height=".7" fill="none" stroke-width="0" connectorname="RL"/>
  <rect id="connector25terminal" x="64.786" y="28.799" width=".0288" height=".0014" fill="none" stroke-width="0"/>
  <rect x="64.8" y="28.45" width="0" height=".7" fill="none" stroke-width="0"/>
  <text x="49" y="29.5" fill="#8c8c8c" font-family="Noto Sans" font-size="3.5" text-anchor="end">RL</text>
  <line x1="50.05" x2="64.45" y1="36" y2="36" fill="none" stroke="#787878" stroke-linecap="round" stroke-linejoin="round" stroke-width=".7"/>
  <rect id="connector26pin" x="50.4" y="35.65" width="14.4" height=".7" fill="none" stroke-width="0" connectorname="RW"/>
  <rect id="connector26terminal" x="64.786" y="35.999" width=".0288" height=".0014" fill="none" stroke-width="0"/>
  <rect x="64.8" y="35.65" width="0" height=".7" fill="none" stroke-width="0"/>
  <text x="49" y="36.7" fill="#8c8c8c" font-family="Noto Sans" font-size="3.5" text-anchor="end">RW</text>
  <line x1="50.05" x2="64.45" y1="43.2" y2="43.2" fill="none" stroke="#787878" stroke-linecap="round" stroke-linejoin="round" stroke-width=".7"/>
  <rect id="connector27pin" x="50.4" y="42.85" width="14.4" height=".7" fill="none" stroke-width="0" connectorname="RH"/>
  <rect id="connector27terminal" x="64.786" y="43.199" width=".0288" height=".0014" fill="none" stroke-width="0"/>
  <rect x="64.8" y="42.85" width="0" height=".7" fill="none" stroke-width="0"/>
  <text x="49" y="43.9" fill="#8c8c8c" font-family="Noto Sans" font-size="3.5" text-anchor="end">RH</text>
  <line x1="50.05" x2="64.45" y1="50.4" y2="50.4" fill="none" stroke="#787878" stroke-linecap="round" stroke-linejoin="round" stroke-width=".7"/>
  <rect id="connector33pin" x="50.4" y="50.05" width="14.4" height=".7" fill="none" stroke-width="0" connectorname="A0"/>
  <rect id="connector33terminal" x="64.786" y="50.399" width=".0288" height=".0014" fill="none" stroke-width="0"/>
  <rect x="64.8" y="50.05" width="0" height=".7" fill="none" stroke-width="0"/>
  <text x="49" y="51.1" fill="#8c8c8c" font-family="Noto Sans" font-size="3.5" text-anchor="end">A0</text>
  <line x1="50.05" x2="64.45" y1="57.6" y2="57.6" fill="none" stroke="#787878" stroke-linecap="round" stroke-linejoin="round" stroke-width=".7"/>
  <rect id="connector34pin" x="50.4" y="57.25" width="14.4" height=".7" fill="none" stroke-width="0" connectorname="A1"/>
  <rect id="connector34terminal" x="64.786" y="57.599" width=".0288" height=".0014" fill="none" stroke-width="0"/>
  <rect x="64.8" y="57.25" width="0" height=".7" fill="none" stroke-width="0"/>
  <text x="49" y="58.3" fill="#8c8c8c" font-family="Noto Sans" font-size="3.5" text-anchor="end">A1</text>
  <line x1="28.8" x2="28.8" y1=".35" y2="14.4" fill="none" stroke="#787878" stroke-linecap="round" stroke-linejoin="round" stroke-width=".7"/>
  <rect id="connector28pin" x="28.45" width=".7" height="14.4" fill="none" stroke-width="0" connectorname="V+"/>
  <rect id="connector28terminal" x="28.799" y="-.0144" width=".0014" height=".0288" fill="none" stroke-width="0"/>
  <rect x="28.45" width=".7" height="0" fill="none" stroke-width="0"/>
  <g transform="translate(30.2 16)">
   <g transform="rotate(270)">
    <text fill="#8c8c8c" font-family="Noto Sans" font-size="3.5" text-anchor="end">V+</text>
   </g>
  </g>
  <line x1="36" x2="36" y1=".35" y2="14.4" fill="none" stroke="#787878" stroke-linecap="round" stroke-linejoin="round" stroke-width=".7"/>
  <rect id="connector29pin" x="35.65" width=".7" height="14.4" fill="none" stroke-width="0" connectorname="VCC"/>
  <rect id="connector29terminal" x="35.999" y="-.0144" width=".0014" height=".0288" fill="none" stroke-width="0"/>
  <rect x="35.65" width=".7" height="0" fill="none" stroke-width="0"/>
  <g transform="translate(37.4 16)">
   <g transform="rotate(270)">
    <text fill="#8c8c8c" font-family="Noto Sans" font-size="3.5" text-anchor="end">VCC</text>
   </g>
  </g>
  <line x1="28.8" x2="28.8" y1="72" y2="86.05" fill="none" stroke="#787878" stroke-linecap="round" stroke-linejoin="round" stroke-width=".7"/>
  <rect id="connector30pin" x="28.45" y="72" width=".7" height="14.4" fill="none" stroke-width="0" connectorname="GND"/>
  <rect id="connector30terminal" x="28.799" y="86.386" width=".0014" height=".0288" fill="none" stroke-width="0"/>
  <rect x="28.45" y="86.4" width=".7" height="0" fill="none" stroke-width="0"/>
  <g transform="translate(30.2 70.4)">
   <g transform="rotate(270)">
    <text fill="#8c8c8c" font-family="Noto Sans" font-size="3.5">GND</text>
   </g>
  </g>
 </g>
</svg>
