<?xml version="1.0" encoding="UTF-8"?>
<!-- Generator: Adobe Illustrator 20.0.0, SVG Export Plug-In . SVG Version: 6.00 Build 0)  -->
<svg width="72px" height="79.2px" baseProfile="tiny" version="1.2" viewBox="0 0 72 79.2" xml:space="preserve" xmlns="http://www.w3.org/2000/svg">
<desc>
	<referenceFile>Flora BLE Friend rev B_schematic.svg</referenceFile>
</desc>
<desc>Fritzing schematic generated by brd2svg</desc>
<g id="schematic">
	
		<rect x="14.4" y="14.4" width="42.75" height="50.4" fill="none" stroke="#000" stroke-linecap="round" stroke-linejoin="round" stroke-width=".9"/>
	<text transform="translate(29.162 40.764)" font-family="Noto Sans" font-size="3.5px">Bluefruit</text>
	<text transform="translate(32.087 37.264)" font-family="Noto Sans" font-size="3.5px">F</text>
	<text transform="translate(33.806 37.264)" font-family="Noto Sans" font-size="3.5px">l</text>
	<text transform="translate(34.712 37.264)" font-family="Noto Sans" font-size="3.5px">o</text>
	<text transform="translate(36.732 37.264)" font-family="Noto Sans" font-size="3.5px">r</text>
	<text transform="translate(38.094 37.264)" font-family="Noto Sans" font-size="3.5px">a</text>
	<text transform="translate(29.651 33.764)" font-family="Noto Sans" font-size="3.5px">Adafruit</text>
	<text transform="translate(34.236 44.264)" font-family="Noto Sans" font-size="3.5px">LE</text>
	
		<line x1=".35" x2="14.4" y1="28.8" y2="28.8" fill="none" stroke="#787878" stroke-linecap="round" stroke-linejoin="round" stroke-width=".7"/>
	<rect id="connector31pin" y="28.45" width="14.4" height=".7" fill="none"/>
	<rect id="connector31terminal" y="28.45" width="0" height=".7" fill="none"/>
	<text transform="translate(15.8 29.5)" fill="#8C8C8C" font-family="Noto Sans" font-size="3.5px">MODE</text>
	
		<line x1="57.25" x2="71.65" y1="28.8" y2="28.8" fill="none" stroke="#787878" stroke-linecap="round" stroke-linejoin="round" stroke-width=".7"/>
	<rect id="connector32pin" x="57.6" y="28.45" width="14.4" height=".7" fill="none"/>
	<rect id="connector32terminal" x="72" y="28.45" width="0" height=".7" fill="none"/>
	<text transform="translate(49.942 29.5)" fill="#8C8C8C" font-family="Noto Sans" font-size="3.5px">T</text>
	<text transform="translate(51.758 29.5)" fill="#8C8C8C" font-family="Noto Sans" font-size="3.5px">X</text>
	<text transform="translate(53.602 29.5)" fill="#8C8C8C" font-family="Noto Sans" font-size="3.5px">O</text>
	
		<line x1="57.25" x2="71.65" y1="36" y2="36" fill="none" stroke="#787878" stroke-linecap="round" stroke-linejoin="round" stroke-width=".7"/>
	<rect id="connector24pin" x="57.6" y="35.65" width="14.4" height=".7" fill="none"/>
	<rect id="connector24terminal" x="72" y="35.65" width="0" height=".7" fill="none"/>
	<text transform="translate(51.036 36.7)" fill="#8C8C8C" font-family="Noto Sans" font-size="3.5px">RXI</text>
	
		<line x1="36" x2="36" y1=".35" y2="14.4" fill="none" stroke="#787878" stroke-linecap="round" stroke-linejoin="round" stroke-width=".7"/>
	<rect id="connector0pin" x="35.65" width=".7" height="14.4" fill="none"/>
	<polygon id="connector0terminal" points="35.65 0 36.35 0 36.35 0" fill="none"/>
	<g transform="translate(37.4 16)">
		
			
				<g transform="rotate(270)">
					
						
							
								<text transform="translate(-6.7812 2.2414e-5)" fill="#8C8C8C" font-family="Noto Sans" font-size="3.5px">3.3V</text>
						
					
				</g>
			
		
	</g>
	
		<line x1="36" x2="36" y1="64.8" y2="78.85" fill="none" stroke="#787878" stroke-linecap="round" stroke-linejoin="round" stroke-width=".7"/>
	<rect id="connector15pin" x="35.65" y="64.8" width=".7" height="14.4" fill="none"/>
	<polygon id="connector15terminal" points="35.65 79.2 36.35 79.2 36.35 79.2" fill="none"/>
	<g transform="translate(37.4 63.2)">
		
			
				<g transform="rotate(270)">
					
						
							
								<text transform="translate(-.00019431 2.2414e-5)" fill="#8C8C8C" font-family="Noto Sans" font-size="3.5px">GND</text>
						
					
				</g>
			
		
	</g>
</g>
</svg>
