<?xml version="1.0" encoding="UTF-8"?>
<!-- Created with Fritzing (http://www.fritzing.org/) -->
<svg width="1.4in" height="3in" baseProfile="tiny" version="1.2" viewBox="0 0 100.8 216" xmlns="http://www.w3.org/2000/svg">
 <desc>
  <referenceFile>Adafruit FONA 800 Shield_schematic.svg</referenceFile>
 </desc>
 <desc>Fritzing schematic generated by brd2svg</desc>
 <g id="schematic">
  <rect x="14.4" y="14.4" width="71.55" height="187.2" fill="none" stroke="#000" stroke-linecap="round" stroke-linejoin="round" stroke-width=".9"/>
  <text id="label" x="50.4" y="101" fill="#000000" font-family="Noto Sans" font-size="3.5" text-anchor="middle"><tspan x="50.4" y="101">Adafruit</tspan> <tspan x="50.4" y="104.5">FONA</tspan> <tspan x="50.4" y="108">800</tspan> <tspan x="50.4" y="111.5">Shield</tspan></text>
  <line x1=".35" x2="14.4" y1="28.8" y2="28.8" fill="none" stroke="#787878" stroke-linecap="round" stroke-linejoin="round" stroke-width=".7"/>
  <rect id="connector129pin" y="28.45" width="14.4" height=".7" fill="none" stroke-width="0" connectorName="IOREF"/>
  <rect id="connector129terminal" y="28.45" width="0" height=".7" fill="none" stroke-width="0"/>
  <text x="15.8" y="29.5" fill="#8c8c8c" font-family="Noto Sans" font-size="3.5">IOREF</text>
  <line x1=".35" x2="14.4" y1="36" y2="36" fill="none" stroke="#787878" stroke-linecap="round" stroke-linejoin="round" stroke-width=".7"/>
  <rect id="connector128pin" y="35.65" width="14.4" height=".7" fill="none" stroke-width="0" connectorName="RST"/>
  <rect id="connector128terminal" y="35.65" width="0" height=".7" fill="none" stroke-width="0"/>
  <text x="15.8" y="36.7" fill="#8c8c8c" font-family="Noto Sans" font-size="3.5">RST</text>
  <line x1=".35" x2="14.4" y1="43.2" y2="43.2" fill="none" stroke="#787878" stroke-linecap="round" stroke-linejoin="round" stroke-width=".7"/>
  <rect id="connector136pin" y="42.85" width="14.4" height=".7" fill="none" stroke-width="0" connectorName="A0"/>
  <rect id="connector136terminal" y="42.85" width="0" height=".7" fill="none" stroke-width="0"/>
  <text x="15.8" y="43.9" fill="#8c8c8c" font-family="Noto Sans" font-size="3.5">A0</text>
  <line x1=".35" x2="14.4" y1="50.4" y2="50.4" fill="none" stroke="#787878" stroke-linecap="round" stroke-linejoin="round" stroke-width=".7"/>
  <rect id="connector135pin" y="50.05" width="14.4" height=".7" fill="none" stroke-width="0" connectorName="A1"/>
  <rect id="connector135terminal" y="50.05" width="0" height=".7" fill="none" stroke-width="0"/>
  <text x="15.8" y="51.1" fill="#8c8c8c" font-family="Noto Sans" font-size="3.5">A1</text>
  <line x1=".35" x2="14.4" y1="57.6" y2="57.6" fill="none" stroke="#787878" stroke-linecap="round" stroke-linejoin="round" stroke-width=".7"/>
  <rect id="connector134pin" y="57.25" width="14.4" height=".7" fill="none" stroke-width="0" connectorName="A2"/>
  <rect id="connector134terminal" y="57.25" width="0" height=".7" fill="none" stroke-width="0"/>
  <text x="15.8" y="58.3" fill="#8c8c8c" font-family="Noto Sans" font-size="3.5">A2</text>
  <line x1=".35" x2="14.4" y1="64.8" y2="64.8" fill="none" stroke="#787878" stroke-linecap="round" stroke-linejoin="round" stroke-width=".7"/>
  <rect id="connector133pin" y="64.45" width="14.4" height=".7" fill="none" stroke-width="0" connectorName="A3"/>
  <rect id="connector133terminal" y="64.45" width="0" height=".7" fill="none" stroke-width="0"/>
  <text x="15.8" y="65.5" fill="#8c8c8c" font-family="Noto Sans" font-size="3.5">A3</text>
  <line x1=".35" x2="14.4" y1="72" y2="72" fill="none" stroke="#787878" stroke-linecap="round" stroke-linejoin="round" stroke-width=".7"/>
  <rect id="connector132pin" y="71.65" width="14.4" height=".7" fill="none" stroke-width="0" connectorName="A4"/>
  <rect id="connector132terminal" y="71.65" width="0" height=".7" fill="none" stroke-width="0"/>
  <text x="15.8" y="72.6998" fill="#8c8c8c" font-family="Noto Sans" font-size="3.5">A4</text>
  <line x1=".35" x2="14.4" y1="79.2" y2="79.2" fill="none" stroke="#787878" stroke-linecap="round" stroke-linejoin="round" stroke-width=".7"/>
  <rect id="connector131pin" y="78.85" width="14.4" height=".7" fill="none" stroke-width="0" connectorName="A5"/>
  <rect id="connector131terminal" y="78.85" width="0" height=".7" fill="none" stroke-width="0"/>
  <text x="15.8" y="79.8998" fill="#8c8c8c" font-family="Noto Sans" font-size="3.5">A5</text>
  <line x1=".35" x2="14.4" y1="86.4" y2="86.4" fill="none" stroke="#787878" stroke-linecap="round" stroke-linejoin="round" stroke-width=".7"/>
  <rect id="connector146pin" y="86.05" width="14.4" height=".7" fill="none" stroke-width="0" connectorName="Key"/>
  <rect id="connector146terminal" y="86.05" width="0" height=".7" fill="none" stroke-width="0"/>
  <text x="15.8" y="87.0998" fill="#8c8c8c" font-family="Noto Sans" font-size="3.5">Key</text>
  <line x1=".35" x2="14.4" y1="93.6" y2="93.6" fill="none" stroke="#787878" stroke-linecap="round" stroke-linejoin="round" stroke-width=".7"/>
  <rect id="connector145pin" y="93.25" width="14.4" height=".7" fill="none" stroke-width="0" connectorName="Pwr"/>
  <rect id="connector145terminal" y="93.25" width="0" height=".7" fill="none" stroke-width="0"/>
  <text x="15.8" y="94.2998" fill="#8c8c8c" font-family="Noto Sans" font-size="3.5">Pwr</text>
  <line x1=".35" x2="14.4" y1="100.8" y2="100.8" fill="none" stroke="#787878" stroke-linecap="round" stroke-linejoin="round" stroke-width=".7"/>
  <rect id="connector144pin" y="100.45" width="14.4" height=".7" fill="none" stroke-width="0" connectorName="Net"/>
  <rect id="connector144terminal" y="100.45" width="0" height=".7" fill="none" stroke-width="0"/>
  <text x="15.8" y="101.5" fill="#8c8c8c" font-family="Noto Sans" font-size="3.5">Net</text>
  <line x1=".35" x2="14.4" y1="108" y2="108" fill="none" stroke="#787878" stroke-linecap="round" stroke-linejoin="round" stroke-width=".7"/>
  <rect id="connector143pin" y="107.65" width="14.4" height=".7" fill="none" stroke-width="0" connectorName="RI"/>
  <rect id="connector143terminal" y="107.65" width="0" height=".7" fill="none" stroke-width="0"/>
  <text x="15.8" y="108.7" fill="#8c8c8c" font-family="Noto Sans" font-size="3.5">RI</text>
  <line x1=".35" x2="14.4" y1="115.2" y2="115.2" fill="none" stroke="#787878" stroke-linecap="round" stroke-linejoin="round" stroke-width=".7"/>
  <rect id="connector142pin" y="114.85" width="14.4" height=".7" fill="none" stroke-width="0" connectorName="RTS"/>
  <rect id="connector142terminal" y="114.85" width="0" height=".7" fill="none" stroke-width="0"/>
  <text x="15.8" y="115.9" fill="#8c8c8c" font-family="Noto Sans" font-size="3.5">RTS</text>
  <line x1=".35" x2="14.4" y1="122.4" y2="122.4" fill="none" stroke="#787878" stroke-linecap="round" stroke-linejoin="round" stroke-width=".7"/>
  <rect id="connector141pin" y="122.05" width="14.4" height=".7" fill="none" stroke-width="0" connectorName="RST"/>
  <rect id="connector141terminal" y="122.05" width="0" height=".7" fill="none" stroke-width="0"/>
  <text x="15.8" y="123.1" fill="#8c8c8c" font-family="Noto Sans" font-size="3.5">RST</text>
  <line x1=".35" x2="14.4" y1="129.6" y2="129.6" fill="none" stroke="#787878" stroke-linecap="round" stroke-linejoin="round" stroke-width=".7"/>
  <rect id="connector140pin" y="129.25" width="14.4" height=".7" fill="none" stroke-width="0" connectorName="TX"/>
  <rect id="connector140terminal" y="129.25" width="0" height=".7" fill="none" stroke-width="0"/>
  <text x="15.8" y="130.3" fill="#8c8c8c" font-family="Noto Sans" font-size="3.5">TX</text>
  <line x1=".35" x2="14.4" y1="136.8" y2="136.8" fill="none" stroke="#787878" stroke-linecap="round" stroke-linejoin="round" stroke-width=".7"/>
  <rect id="connector139pin" y="136.45" width="14.4" height=".7" fill="none" stroke-width="0" connectorName="RX"/>
  <rect id="connector139terminal" y="136.45" width="0" height=".7" fill="none" stroke-width="0"/>
  <text x="15.8" y="137.5" fill="#8c8c8c" font-family="Noto Sans" font-size="3.5">RX</text>
  <line x1=".35" x2="14.4" y1="144" y2="144" fill="none" stroke="#787878" stroke-linecap="round" stroke-linejoin="round" stroke-width=".7"/>
  <rect id="connector100pin" y="143.65" width="14.4" height=".7" fill="none" stroke-width="0" connectorName="SPKR+"/>
  <rect id="connector100terminal" y="143.65" width="0" height=".7" fill="none" stroke-width="0"/>
  <text x="15.8" y="144.7" fill="#8c8c8c" font-family="Noto Sans" font-size="3.5">SPKR+</text>
  <line x1=".35" x2="14.4" y1="151.2" y2="151.2" fill="none" stroke="#787878" stroke-linecap="round" stroke-linejoin="round" stroke-width=".7"/>
  <rect id="connector99pin" y="150.85" width="14.4" height=".7" fill="none" stroke-width="0" connectorName="SPKR-"/>
  <rect id="connector99terminal" y="150.85" width="0" height=".7" fill="none" stroke-width="0"/>
  <text x="15.8" y="151.9" fill="#8c8c8c" font-family="Noto Sans" font-size="3.5">SPKR-</text>
  <line x1=".35" x2="14.4" y1="158.4" y2="158.4" fill="none" stroke="#787878" stroke-linecap="round" stroke-linejoin="round" stroke-width=".7"/>
  <rect id="connector101pin" y="158.05" width="14.4" height=".7" fill="none" stroke-width="0" connectorName="MIC+"/>
  <rect id="connector101terminal" y="158.05" width="0" height=".7" fill="none" stroke-width="0"/>
  <text x="15.8" y="159.1" fill="#8c8c8c" font-family="Noto Sans" font-size="3.5">MIC+</text>
  <line x1=".35" x2="14.4" y1="165.6" y2="165.6" fill="none" stroke="#787878" stroke-linecap="round" stroke-linejoin="round" stroke-width=".7"/>
  <rect id="connector102pin" y="165.25" width="14.4" height=".7" fill="none" stroke-width="0" connectorName="MIC-"/>
  <rect id="connector102terminal" y="165.25" width="0" height=".7" fill="none" stroke-width="0"/>
  <text x="15.8" y="166.3" fill="#8c8c8c" font-family="Noto Sans" font-size="3.5">MIC-</text>
  <line x1=".35" x2="14.4" y1="172.8" y2="172.8" fill="none" stroke="#787878" stroke-linecap="round" stroke-linejoin="round" stroke-width=".7"/>
  <rect id="connector104pin" y="172.45" width="14.4" height=".7" fill="none" stroke-width="0" connectorName="BUZZER+"/>
  <rect id="connector104terminal" y="172.45" width="0" height=".7" fill="none" stroke-width="0"/>
  <text x="15.8" y="173.5" fill="#8c8c8c" font-family="Noto Sans" font-size="3.5">BUZZER+</text>
  <line x1=".35" x2="14.4" y1="180" y2="180" fill="none" stroke="#787878" stroke-linecap="round" stroke-linejoin="round" stroke-width=".7"/>
  <rect id="connector103pin" y="179.65" width="14.4" height=".7" fill="none" stroke-width="0" connectorName="BUZZER-"/>
  <rect id="connector103terminal" y="179.65" width="0" height=".7" fill="none" stroke-width="0"/>
  <text x="15.8" y="180.7" fill="#8c8c8c" font-family="Noto Sans" font-size="3.5">BUZZER-</text>
  <line x1=".35" x2="14.4" y1="187.2" y2="187.2" fill="none" stroke="#787878" stroke-linecap="round" stroke-linejoin="round" stroke-width=".7"/>
  <rect id="connector187pin" y="186.85" width="14.4" height=".7" fill="none" stroke-width="0" connectorName="PWM"/>
  <rect id="connector187terminal" y="186.85" width="0" height=".7" fill="none" stroke-width="0"/>
  <text x="15.8" y="187.9" fill="#8c8c8c" font-family="Noto Sans" font-size="3.5">PWM</text>
  <line x1="86.05" x2="100.45" y1="28.8" y2="28.8" fill="none" stroke="#787878" stroke-linecap="round" stroke-linejoin="round" stroke-width=".7"/>
  <rect id="connector105pin" x="86.4" y="28.45" width="14.4" height=".7" fill="none" stroke-width="0" connectorname="SCL"/>
  <rect id="connector105terminal" x="100.8" y="28.45" width="0" height=".7" fill="none" stroke-width="0"/>
  <text x="85.0003" y="29.5" fill="#8c8c8c" font-family="Noto Sans" font-size="3.5" text-anchor="end">SCL</text>
  <line x1="86.05" x2="100.45" y1="36" y2="36" fill="none" stroke="#787878" stroke-linecap="round" stroke-linejoin="round" stroke-width=".7"/>
  <rect id="connector106pin" x="86.4" y="35.65" width="14.4" height=".7" fill="none" stroke-width="0" connectorname="SDA"/>
  <rect id="connector106terminal" x="100.8" y="35.65" width="0" height=".7" fill="none" stroke-width="0"/>
  <text x="85.0003" y="36.7" fill="#8c8c8c" font-family="Noto Sans" font-size="3.5" text-anchor="end">SDA</text>
  <line x1="86.05" x2="100.45" y1="43.2" y2="43.2" fill="none" stroke="#787878" stroke-linecap="round" stroke-linejoin="round" stroke-width=".7"/>
  <rect id="connector107pin" x="86.4" y="42.85" width="14.4" height=".7" fill="none" stroke-width="0" connectorname="AREF"/>
  <rect id="connector107terminal" x="100.8" y="42.85" width="0" height=".7" fill="none" stroke-width="0"/>
  <text x="85.0003" y="43.9" fill="#8c8c8c" font-family="Noto Sans" font-size="3.5" text-anchor="end">AREF</text>
  <line x1="86.05" x2="100.45" y1="50.4" y2="50.4" fill="none" stroke="#787878" stroke-linecap="round" stroke-linejoin="round" stroke-width=".7"/>
  <rect id="connector109pin" x="86.4" y="50.05" width="14.4" height=".7" fill="none" stroke-width="0" connectorname="D13"/>
  <rect id="connector109terminal" x="100.8" y="50.05" width="0" height=".7" fill="none" stroke-width="0"/>
  <text x="85.0003" y="51.1" fill="#8c8c8c" font-family="Noto Sans" font-size="3.5" text-anchor="end">D13</text>
  <line x1="86.05" x2="100.45" y1="57.6" y2="57.6" fill="none" stroke="#787878" stroke-linecap="round" stroke-linejoin="round" stroke-width=".7"/>
  <rect id="connector110pin" x="86.4" y="57.25" width="14.4" height=".7" fill="none" stroke-width="0" connectorname="D12"/>
  <rect id="connector110terminal" x="100.8" y="57.25" width="0" height=".7" fill="none" stroke-width="0"/>
  <text x="85.0003" y="58.3" fill="#8c8c8c" font-family="Noto Sans" font-size="3.5" text-anchor="end">D12</text>
  <line x1="86.05" x2="100.45" y1="64.8" y2="64.8" fill="none" stroke="#787878" stroke-linecap="round" stroke-linejoin="round" stroke-width=".7"/>
  <rect id="connector111pin" x="86.4" y="64.45" width="14.4" height=".7" fill="none" stroke-width="0" connectorname="D11"/>
  <rect id="connector111terminal" x="100.8" y="64.45" width="0" height=".7" fill="none" stroke-width="0"/>
  <text x="85.0003" y="65.5" fill="#8c8c8c" font-family="Noto Sans" font-size="3.5" text-anchor="end">D11</text>
  <line x1="86.05" x2="100.45" y1="72" y2="72" fill="none" stroke="#787878" stroke-linecap="round" stroke-linejoin="round" stroke-width=".7"/>
  <rect id="connector112pin" x="86.4" y="71.65" width="14.4" height=".7" fill="none" stroke-width="0" connectorname="D10"/>
  <rect id="connector112terminal" x="100.8" y="71.65" width="0" height=".7" fill="none" stroke-width="0"/>
  <text x="85.0003" y="72.6998" fill="#8c8c8c" font-family="Noto Sans" font-size="3.5" text-anchor="end">D10</text>
  <line x1="86.05" x2="100.45" y1="79.2" y2="79.2" fill="none" stroke="#787878" stroke-linecap="round" stroke-linejoin="round" stroke-width=".7"/>
  <rect id="connector113pin" x="86.4" y="78.85" width="14.4" height=".7" fill="none" stroke-width="0" connectorname="D9"/>
  <rect id="connector113terminal" x="100.8" y="78.85" width="0" height=".7" fill="none" stroke-width="0"/>
  <text x="85.0003" y="79.8998" fill="#8c8c8c" font-family="Noto Sans" font-size="3.5" text-anchor="end">D9</text>
  <line x1="86.05" x2="100.45" y1="86.4" y2="86.4" fill="none" stroke="#787878" stroke-linecap="round" stroke-linejoin="round" stroke-width=".7"/>
  <rect id="connector114pin" x="86.4" y="86.05" width="14.4" height=".7" fill="none" stroke-width="0" connectorname="D8"/>
  <rect id="connector114terminal" x="100.8" y="86.05" width="0" height=".7" fill="none" stroke-width="0"/>
  <text x="85.0003" y="87.0998" fill="#8c8c8c" font-family="Noto Sans" font-size="3.5" text-anchor="end">D8</text>
  <line x1="86.05" x2="100.45" y1="93.6" y2="93.6" fill="none" stroke="#787878" stroke-linecap="round" stroke-linejoin="round" stroke-width=".7"/>
  <rect id="connector115pin" x="86.4" y="93.25" width="14.4" height=".7" fill="none" stroke-width="0" connectorname="D7"/>
  <rect id="connector115terminal" x="100.8" y="93.25" width="0" height=".7" fill="none" stroke-width="0"/>
  <text x="85.0003" y="94.2998" fill="#8c8c8c" font-family="Noto Sans" font-size="3.5" text-anchor="end">D7</text>
  <line x1="86.05" x2="100.45" y1="100.8" y2="100.8" fill="none" stroke="#787878" stroke-linecap="round" stroke-linejoin="round" stroke-width=".7"/>
  <rect id="connector116pin" x="86.4" y="100.45" width="14.4" height=".7" fill="none" stroke-width="0" connectorname="D6"/>
  <rect id="connector116terminal" x="100.8" y="100.45" width="0" height=".7" fill="none" stroke-width="0"/>
  <text x="85.0003" y="101.5" fill="#8c8c8c" font-family="Noto Sans" font-size="3.5" text-anchor="end">D6</text>
  <line x1="86.05" x2="100.45" y1="108" y2="108" fill="none" stroke="#787878" stroke-linecap="round" stroke-linejoin="round" stroke-width=".7"/>
  <rect id="connector117pin" x="86.4" y="107.65" width="14.4" height=".7" fill="none" stroke-width="0" connectorname="D5"/>
  <rect id="connector117terminal" x="100.8" y="107.65" width="0" height=".7" fill="none" stroke-width="0"/>
  <text x="85.0003" y="108.7" fill="#8c8c8c" font-family="Noto Sans" font-size="3.5" text-anchor="end">D5</text>
  <line x1="86.05" x2="100.45" y1="115.2" y2="115.2" fill="none" stroke="#787878" stroke-linecap="round" stroke-linejoin="round" stroke-width=".7"/>
  <rect id="connector118pin" x="86.4" y="114.85" width="14.4" height=".7" fill="none" stroke-width="0" connectorname="D4"/>
  <rect id="connector118terminal" x="100.8" y="114.85" width="0" height=".7" fill="none" stroke-width="0"/>
  <text x="85.0003" y="115.9" fill="#8c8c8c" font-family="Noto Sans" font-size="3.5" text-anchor="end">D4</text>
  <line x1="86.05" x2="100.45" y1="122.4" y2="122.4" fill="none" stroke="#787878" stroke-linecap="round" stroke-linejoin="round" stroke-width=".7"/>
  <rect id="connector119pin" x="86.4" y="122.05" width="14.4" height=".7" fill="none" stroke-width="0" connectorname="D3"/>
  <rect id="connector119terminal" x="100.8" y="122.05" width="0" height=".7" fill="none" stroke-width="0"/>
  <text x="85.0003" y="123.1" fill="#8c8c8c" font-family="Noto Sans" font-size="3.5" text-anchor="end">D3</text>
  <line x1="86.05" x2="100.45" y1="129.6" y2="129.6" fill="none" stroke="#787878" stroke-linecap="round" stroke-linejoin="round" stroke-width=".7"/>
  <rect id="connector120pin" x="86.4" y="129.25" width="14.4" height=".7" fill="none" stroke-width="0" connectorname="D2"/>
  <rect id="connector120terminal" x="100.8" y="129.25" width="0" height=".7" fill="none" stroke-width="0"/>
  <text x="85.0003" y="130.3" fill="#8c8c8c" font-family="Noto Sans" font-size="3.5" text-anchor="end">D2</text>
  <line x1="86.05" x2="100.45" y1="136.8" y2="136.8" fill="none" stroke="#787878" stroke-linecap="round" stroke-linejoin="round" stroke-width=".7"/>
  <rect id="connector121pin" x="86.4" y="136.45" width="14.4" height=".7" fill="none" stroke-width="0" connectorname="D1"/>
  <rect id="connector121terminal" x="100.8" y="136.45" width="0" height=".7" fill="none" stroke-width="0"/>
  <text x="85.0003" y="137.5" fill="#8c8c8c" font-family="Noto Sans" font-size="3.5" text-anchor="end">D1</text>
  <line x1="86.05" x2="100.45" y1="144" y2="144" fill="none" stroke="#787878" stroke-linecap="round" stroke-linejoin="round" stroke-width=".7"/>
  <rect id="connector122pin" x="86.4" y="143.65" width="14.4" height=".7" fill="none" stroke-width="0" connectorname="D0"/>
  <rect id="connector122terminal" x="100.8" y="143.65" width="0" height=".7" fill="none" stroke-width="0"/>
  <text x="85.0003" y="144.7" fill="#8c8c8c" font-family="Noto Sans" font-size="3.5" text-anchor="end">D0</text>
  <line x1="86.05" x2="100.45" y1="151.2" y2="151.2" fill="none" stroke="#787878" stroke-linecap="round" stroke-linejoin="round" stroke-width=".7"/>
  <rect id="connector176pin" x="86.4" y="150.85" width="14.4" height=".7" fill="none" stroke-width="0" connectorname="MISO"/>
  <rect id="connector176terminal" x="100.8" y="150.85" width="0" height=".7" fill="none" stroke-width="0"/>
  <text x="85.0003" y="151.9" fill="#8c8c8c" font-family="Noto Sans" font-size="3.5" text-anchor="end">MISO</text>
  <line x1="86.05" x2="100.45" y1="158.4" y2="158.4" fill="none" stroke="#787878" stroke-linecap="round" stroke-linejoin="round" stroke-width=".7"/>
  <rect id="connector177pin" x="86.4" y="158.05" width="14.4" height=".7" fill="none" stroke-width="0" connectorname="MOSI"/>
  <rect id="connector177terminal" x="100.8" y="158.05" width="0" height=".7" fill="none" stroke-width="0"/>
  <text x="85.0003" y="159.1" fill="#8c8c8c" font-family="Noto Sans" font-size="3.5" text-anchor="end">MOSI</text>
  <line x1="86.05" x2="100.45" y1="165.6" y2="165.6" fill="none" stroke="#787878" stroke-linecap="round" stroke-linejoin="round" stroke-width=".7"/>
  <rect id="connector178pin" x="86.4" y="165.25" width="14.4" height=".7" fill="none" stroke-width="0" connectorname="NC"/>
  <rect id="connector178terminal" x="100.8" y="165.25" width="0" height=".7" fill="none" stroke-width="0"/>
  <text x="85.0003" y="166.3" fill="#8c8c8c" font-family="Noto Sans" font-size="3.5" text-anchor="end">NC</text>
  <line x1="86.05" x2="100.45" y1="172.8" y2="172.8" fill="none" stroke="#787878" stroke-linecap="round" stroke-linejoin="round" stroke-width=".7"/>
  <rect id="connector180pin" x="86.4" y="172.45" width="14.4" height=".7" fill="none" stroke-width="0" connectorname="RESET_ICSP"/>
  <rect id="connector180terminal" x="100.8" y="172.45" width="0" height=".7" fill="none" stroke-width="0"/>
  <text x="85.0003" y="173.5" fill="#8c8c8c" font-family="Noto Sans" font-size="3.5" text-anchor="end">RESET_ICSP</text>
  <line x1="86.05" x2="100.45" y1="180" y2="180" fill="none" stroke="#787878" stroke-linecap="round" stroke-linejoin="round" stroke-width=".7"/>
  <rect id="connector181pin" x="86.4" y="179.65" width="14.4" height=".7" fill="none" stroke-width="0" connectorname="SCK"/>
  <rect id="connector181terminal" x="100.8" y="179.65" width="0" height=".7" fill="none" stroke-width="0"/>
  <text x="85.0003" y="180.7" fill="#8c8c8c" font-family="Noto Sans" font-size="3.5" text-anchor="end">SCK</text>
  <line x1="36" x2="36" y1=".35" y2="14.4" fill="none" stroke="#787878" stroke-linecap="round" stroke-linejoin="round" stroke-width=".7"/>
  <rect id="connector123pin" x="35.65" width=".7" height="14.4" fill="none" stroke-width="0" connectorname="VIN"/>
  <rect id="connector123terminal" x="35.65" width=".7" height="0" fill="none" stroke-width="0"/>
  <g transform="translate(37.4 16)">
   <g transform="rotate(270)">
    <text fill="#8c8c8c" font-family="Noto Sans" font-size="3.5" text-anchor="end">VIN</text>
   </g>
  </g>
  <line x1="43.2" x2="43.2" y1=".35" y2="14.4" fill="none" stroke="#787878" stroke-linecap="round" stroke-linejoin="round" stroke-width=".7"/>
  <rect id="connector126pin" x="42.85" width=".7" height="14.4" fill="none" stroke-width="0" connectorname="5V"/>
  <rect id="connector126terminal" x="42.85" width=".7" height="0" fill="none" stroke-width="0"/>
  <g transform="translate(44.6 16)">
   <g transform="rotate(270)">
    <text fill="#8c8c8c" font-family="Noto Sans" font-size="3.5" text-anchor="end">5V</text>
   </g>
  </g>
  <line x1="50.4" x2="50.4" y1=".35" y2="14.4" fill="none" stroke="#787878" stroke-linecap="round" stroke-linejoin="round" stroke-width=".7"/>
  <rect id="connector127pin" x="50.05" width=".7" height="14.4" fill="none" stroke-width="0" connectorname="3V"/>
  <rect id="connector127terminal" x="50.05" width=".7" height="0" fill="none" stroke-width="0"/>
  <g transform="translate(51.8 16)">
   <g transform="rotate(270)">
    <text fill="#8c8c8c" font-family="Noto Sans" font-size="3.5" text-anchor="end">3V</text>
   </g>
  </g>
  <line x1="50.4" x2="50.4" y1="201.6" y2="215.65" fill="none" stroke="#787878" stroke-linecap="round" stroke-linejoin="round" stroke-width=".7"/>
  <rect id="connector108pin" x="50.05" y="201.6" width=".7" height="14.4" fill="none" stroke-width="0" connectorname="GND"/>
  <rect id="connector108terminal" x="50.05" y="216" width=".7" height="0" fill="none" stroke-width="0"/>
  <g transform="translate(51.8 200)">
   <g transform="rotate(270)">
    <text fill="#8c8c8c" font-family="Noto Sans" font-size="3.5">GND</text>
   </g>
  </g>
  <rect id="connector184pin" x="35.65" width=".7" height="14.4" fill="none" stroke-width="0" connectorname="VIN"/>
  <rect id="connector184terminal" x="35.65" width=".7" height="0" fill="none" stroke-width="0"/>
  <rect id="connector148pin" x="42.85" width=".7" height="14.4" fill="none" stroke-width="0" connectorname="5V"/>
  <rect id="connector148terminal" x="42.85" width=".7" height="0" fill="none" stroke-width="0"/>
  <rect id="connector147pin" x="50.05" width=".7" height="14.4" fill="none" stroke-width="0" connectorname="3V"/>
  <rect id="connector147terminal" x="50.05" width=".7" height="0" fill="none" stroke-width="0"/>
  <rect id="connector138pin" y="172.45" width="14.4" height=".7" fill="none" stroke-width="0" connectorName="BUZZER+"/>
  <rect id="connector138terminal" y="172.45" width="0" height=".7" fill="none" stroke-width="0"/>
  <rect id="connector124pin" x="50.05" y="201.6" width=".7" height="14.4" fill="none" stroke-width="0" connectorname="GND"/>
  <rect id="connector124terminal" x="50.05" y="216" width=".7" height="0" fill="none" stroke-width="0"/>
  <rect id="connector125pin" x="50.05" y="201.6" width=".7" height="14.4" fill="none" stroke-width="0" connectorname="GND"/>
  <rect id="connector125terminal" x="50.05" y="216" width=".7" height="0" fill="none" stroke-width="0"/>
  <rect id="connector137pin" x="50.05" y="201.6" width=".7" height="14.4" fill="none" stroke-width="0" connectorname="GND"/>
  <rect id="connector137terminal" x="50.05" y="216" width=".7" height="0" fill="none" stroke-width="0"/>
  <rect id="connector171pin" x="50.05" y="201.6" width=".7" height="14.4" fill="none" stroke-width="0" connectorname="GND"/>
  <rect id="connector171terminal" x="50.05" y="216" width=".7" height="0" fill="none" stroke-width="0"/>
  <rect id="connector172pin" x="50.05" y="201.6" width=".7" height="14.4" fill="none" stroke-width="0" connectorname="GND"/>
  <rect id="connector172terminal" x="50.05" y="216" width=".7" height="0" fill="none" stroke-width="0"/>
  <rect id="connector174pin" x="50.05" y="201.6" width=".7" height="14.4" fill="none" stroke-width="0" connectorname="GND"/>
  <rect id="connector174terminal" x="50.05" y="216" width=".7" height="0" fill="none" stroke-width="0"/>
  <rect id="connector175pin" y="28.45" width="14.4" height=".7" fill="none" stroke-width="0" connectorName="IOREF"/>
  <rect id="connector175terminal" y="28.45" width="0" height=".7" fill="none" stroke-width="0"/>
  <rect id="connector150pin" y="42.85" width="14.4" height=".7" fill="none" stroke-width="0" connectorName="A0"/>
  <rect id="connector150terminal" y="42.85" width="0" height=".7" fill="none" stroke-width="0"/>
  <rect id="connector151pin" y="50.05" width="14.4" height=".7" fill="none" stroke-width="0" connectorName="A1"/>
  <rect id="connector151terminal" y="50.05" width="0" height=".7" fill="none" stroke-width="0"/>
  <rect id="connector152pin" y="57.25" width="14.4" height=".7" fill="none" stroke-width="0" connectorName="A2"/>
  <rect id="connector152terminal" y="57.25" width="0" height=".7" fill="none" stroke-width="0"/>
  <rect id="connector153pin" y="64.45" width="14.4" height=".7" fill="none" stroke-width="0" connectorName="A3"/>
  <rect id="connector153terminal" y="64.45" width="0" height=".7" fill="none" stroke-width="0"/>
  <rect id="connector154pin" y="71.65" width="14.4" height=".7" fill="none" stroke-width="0" connectorName="A4"/>
  <rect id="connector154terminal" y="71.65" width="0" height=".7" fill="none" stroke-width="0"/>
  <rect id="connector155pin" y="78.85" width="14.4" height=".7" fill="none" stroke-width="0" connectorName="A5"/>
  <rect id="connector155terminal" y="78.85" width="0" height=".7" fill="none" stroke-width="0"/>
  <rect id="connector182pin" x="86.4" y="28.45" width="14.4" height=".7" fill="none" stroke-width="0" connectorname="SCL"/>
  <rect id="connector182terminal" x="100.8" y="28.45" width="0" height=".7" fill="none" stroke-width="0"/>
  <rect id="connector183pin" x="86.4" y="35.65" width="14.4" height=".7" fill="none" stroke-width="0" connectorname="SDA"/>
  <rect id="connector183terminal" x="100.8" y="35.65" width="0" height=".7" fill="none" stroke-width="0"/>
  <rect id="connector156pin" x="86.4" y="42.85" width="14.4" height=".7" fill="none" stroke-width="0" connectorname="AREF"/>
  <rect id="connector156terminal" x="100.8" y="42.85" width="0" height=".7" fill="none" stroke-width="0"/>
  <rect id="connector170pin" x="86.4" y="50.05" width="14.4" height=".7" fill="none" stroke-width="0" connectorname="D13"/>
  <rect id="connector170terminal" x="100.8" y="50.05" width="0" height=".7" fill="none" stroke-width="0"/>
  <rect id="connector169pin" x="86.4" y="57.25" width="14.4" height=".7" fill="none" stroke-width="0" connectorname="D12"/>
  <rect id="connector169terminal" x="100.8" y="57.25" width="0" height=".7" fill="none" stroke-width="0"/>
  <rect id="connector168pin" x="86.4" y="64.45" width="14.4" height=".7" fill="none" stroke-width="0" connectorname="D11"/>
  <rect id="connector168terminal" x="100.8" y="64.45" width="0" height=".7" fill="none" stroke-width="0"/>
  <rect id="connector167pin" x="86.4" y="71.65" width="14.4" height=".7" fill="none" stroke-width="0" connectorname="D10"/>
  <rect id="connector167terminal" x="100.8" y="71.65" width="0" height=".7" fill="none" stroke-width="0"/>
  <rect id="connector166pin" x="86.4" y="78.85" width="14.4" height=".7" fill="none" stroke-width="0" connectorname="D9"/>
  <rect id="connector166terminal" x="100.8" y="78.85" width="0" height=".7" fill="none" stroke-width="0"/>
  <rect id="connector165pin" x="86.4" y="86.05" width="14.4" height=".7" fill="none" stroke-width="0" connectorname="D8"/>
  <rect id="connector165terminal" x="100.8" y="86.05" width="0" height=".7" fill="none" stroke-width="0"/>
  <rect id="connector164pin" x="86.4" y="93.25" width="14.4" height=".7" fill="none" stroke-width="0" connectorname="D7"/>
  <rect id="connector164terminal" x="100.8" y="93.25" width="0" height=".7" fill="none" stroke-width="0"/>
  <rect id="connector163pin" x="86.4" y="100.45" width="14.4" height=".7" fill="none" stroke-width="0" connectorname="D6"/>
  <rect id="connector163terminal" x="100.8" y="100.45" width="0" height=".7" fill="none" stroke-width="0"/>
  <rect id="connector162pin" x="86.4" y="107.65" width="14.4" height=".7" fill="none" stroke-width="0" connectorname="D5"/>
  <rect id="connector162terminal" x="100.8" y="107.65" width="0" height=".7" fill="none" stroke-width="0"/>
  <rect id="connector161pin" x="86.4" y="114.85" width="14.4" height=".7" fill="none" stroke-width="0" connectorname="D4"/>
  <rect id="connector161terminal" x="100.8" y="114.85" width="0" height=".7" fill="none" stroke-width="0"/>
  <rect id="connector160pin" x="86.4" y="122.05" width="14.4" height=".7" fill="none" stroke-width="0" connectorname="D3"/>
  <rect id="connector160terminal" x="100.8" y="122.05" width="0" height=".7" fill="none" stroke-width="0"/>
  <rect id="connector159pin" x="86.4" y="129.25" width="14.4" height=".7" fill="none" stroke-width="0" connectorname="D2"/>
  <rect id="connector159terminal" x="100.8" y="129.25" width="0" height=".7" fill="none" stroke-width="0"/>
  <rect id="connector158pin" x="86.4" y="136.45" width="14.4" height=".7" fill="none" stroke-width="0" connectorname="D1"/>
  <rect id="connector158terminal" x="100.8" y="136.45" width="0" height=".7" fill="none" stroke-width="0"/>
  <rect id="connector157pin" x="86.4" y="143.65" width="14.4" height=".7" fill="none" stroke-width="0" connectorname="D0"/>
  <rect id="connector157terminal" x="100.8" y="143.65" width="0" height=".7" fill="none" stroke-width="0"/>
  <rect id="connector179pin" y="35.65" width="14.4" height=".7" fill="none" stroke-width="0" connectorName="RST"/>
  <rect id="connector179terminal" y="35.65" width="0" height=".7" fill="none" stroke-width="0"/>
 </g>
</svg>
