<?xml version="1.0" encoding="UTF-8"?>
<!-- Created with Fritzing (http://www.fritzing.org/) -->
<svg width="1in" height="1.2in" baseProfile="tiny" version="1.2" viewBox="0 0 72 86.4" xmlns="http://www.w3.org/2000/svg">
 <desc>
  <referenceFile>Adafruit MPL3115A2 I2C Barometric Pressure, Altitude, Temperature Sensor_schematic.svg</referenceFile>
 </desc>
 <desc>Fritzing schematic generated by brd2svg</desc>
 <g id="schematic">
  <rect x="14.4" y="14.4" width="42.75" height="57.6" fill="none" stroke="#000" stroke-linecap="round" stroke-linejoin="round" stroke-width=".9"/>
  <text id="label" x="36" y="29.2" fill="#000000" font-family="Noto Sans" font-size="3.5" text-anchor="middle"><tspan x="36" y="29.2">Adafruit</tspan> <tspan x="36" y="32.7">MPL3115A2</tspan> <tspan x="36" y="36.2">I2C</tspan> <tspan x="36" y="39.7">Barometric</tspan> <tspan x="36" y="43.2">Pressure,</tspan> <tspan x="36" y="46.7">Altitude,</tspan> <tspan x="36" y="50.2">Temperature</tspan> <tspan x="36" y="53.7">Sensor</tspan></text>
  <line x1=".35" x2="14.4" y1="28.8" y2="28.8" fill="none" stroke="#787878" stroke-linecap="round" stroke-linejoin="round" stroke-width=".7"/>
  <rect id="connector27pin" y="28.45" width="14.4" height=".7" fill="none" stroke-width="0" connectorName="INT1"/>
  <rect id="connector27terminal" y="28.45" width="0" height=".7" fill="none" stroke-width="0"/>
  <text x="15.8" y="29.5" fill="#8c8c8c" font-family="Noto Sans" font-size="3.5">INT1</text>
  <line x1=".35" x2="14.4" y1="36" y2="36" fill="none" stroke="#787878" stroke-linecap="round" stroke-linejoin="round" stroke-width=".7"/>
  <rect id="connector26pin" y="35.65" width="14.4" height=".7" fill="none" stroke-width="0" connectorName="INT2"/>
  <rect id="connector26terminal" y="35.65" width="0" height=".7" fill="none" stroke-width="0"/>
  <text x="15.8" y="36.7" fill="#8c8c8c" font-family="Noto Sans" font-size="3.5">INT2</text>
  <line x1="57.25" x2="71.65" y1="28.8" y2="28.8" fill="none" stroke="#787878" stroke-linecap="round" stroke-linejoin="round" stroke-width=".7"/>
  <rect id="connector29pin" x="57.6" y="28.45" width="14.4" height=".7" fill="none" stroke-width="0" connectorname="SDA"/>
  <rect id="connector29terminal" x="72" y="28.45" width="0" height=".7" fill="none" stroke-width="0"/>
  <text x="56.2" y="29.5" fill="#8c8c8c" font-family="Noto Sans" font-size="3.5" text-anchor="end">SDA</text>
  <line x1="57.25" x2="71.65" y1="36" y2="36" fill="none" stroke="#787878" stroke-linecap="round" stroke-linejoin="round" stroke-width=".7"/>
  <rect id="connector28pin" x="57.6" y="35.65" width="14.4" height=".7" fill="none" stroke-width="0" connectorname="SCL"/>
  <rect id="connector28terminal" x="72" y="35.65" width="0" height=".7" fill="none" stroke-width="0"/>
  <text x="56.2" y="36.7" fill="#8c8c8c" font-family="Noto Sans" font-size="3.5" text-anchor="end">SCL</text>
  <line x1="36" x2="36" y1=".35" y2="14.4" fill="none" stroke="#787878" stroke-linecap="round" stroke-linejoin="round" stroke-width=".7"/>
  <rect id="connector23pin" x="35.65" width=".7" height="14.4" fill="none" stroke-width="0" connectorname="VIN"/>
  <rect id="connector23terminal" x="35.65" width=".7" height="0" fill="none" stroke-width="0"/>
  <g transform="translate(37.4 16)">
   <g transform="rotate(270)">
    <text fill="#8c8c8c" font-family="Noto Sans" font-size="3.5" text-anchor="end">VIN</text>
   </g>
  </g>
  <line x1="43.2" x2="43.2" y1=".35" y2="14.4" fill="none" stroke="#787878" stroke-linecap="round" stroke-linejoin="round" stroke-width=".7"/>
  <rect id="connector25pin" x="42.85" width=".7" height="14.4" fill="none" stroke-width="0" connectorname="+3V3"/>
  <rect id="connector25terminal" x="42.85" width=".7" height="0" fill="none" stroke-width="0"/>
  <g transform="translate(44.6 16)">
   <g transform="rotate(270)">
    <text fill="#8c8c8c" font-family="Noto Sans" font-size="3.5" text-anchor="end">+3V3</text>
   </g>
  </g>
  <line x1="36" x2="36" y1="72" y2="86.05" fill="none" stroke="#787878" stroke-linecap="round" stroke-linejoin="round" stroke-width=".7"/>
  <rect id="connector24pin" x="35.65" y="72" width=".7" height="14.4" fill="none" stroke-width="0" connectorname="GND"/>
  <rect id="connector24terminal" x="35.65" y="86.4" width=".7" height="0" fill="none" stroke-width="0"/>
  <g transform="translate(37.4 70.4)">
   <g transform="rotate(270)">
    <text fill="#8c8c8c" font-family="Noto Sans" font-size="3.5">GND</text>
   </g>
  </g>
 </g>
</svg>
