<?xml version="1.0" encoding="UTF-8"?>
<!-- Created with Fritzing (http://www.fritzing.org/) -->
<svg width=".9in" height="1in" baseProfile="tiny" version="1.2" viewBox="0 0 64.8 72" xmlns="http://www.w3.org/2000/svg">
 <desc>
  <referenceFile>Adafruit DS1841_schematic.svg</referenceFile>
 </desc>
 <desc>Fritzing schematic generated by brd2svg</desc>
 <g id="schematic">
  <rect x="14.4" y="14.4" width="35.55" height="43.2" fill="none" stroke="#000" stroke-linecap="round" stroke-linejoin="round" stroke-width=".9"/>
  <text id="label" x="32.4" y="32.5" fill="#000000" font-family="Noto Sans" font-size="3.5" text-anchor="middle"><tspan x="32.4" y="32.5">Adafruit</tspan> <tspan x="32.4" y="36">DS1841</tspan></text>
  <line x1=".35" x2="14.4" y1="28.8" y2="28.8" fill="none" stroke="#787878" stroke-linecap="round" stroke-linejoin="round" stroke-width=".7"/>
  <rect id="connector44pin" y="28.45" width="14.4" height=".7" fill="none" stroke-width="0" connectorName="A0"/>
  <rect id="connector44terminal" x="-.0144" y="28.799" width=".0288" height=".0014" fill="none" stroke-width="0"/>
  <rect y="28.45" width="0" height=".7" fill="none" stroke-width="0"/>
  <text x="15.8" y="29.5" fill="#8c8c8c" font-family="Noto Sans" font-size="3.5">A0</text>
  <line x1=".35" x2="14.4" y1="36" y2="36" fill="none" stroke="#787878" stroke-linecap="round" stroke-linejoin="round" stroke-width=".7"/>
  <rect id="connector45pin" y="35.65" width="14.4" height=".7" fill="none" stroke-width="0" connectorName="A1"/>
  <rect id="connector45terminal" x="-.0144" y="35.999" width=".0288" height=".0014" fill="none" stroke-width="0"/>
  <rect y="35.65" width="0" height=".7" fill="none" stroke-width="0"/>
  <text x="15.8" y="36.7" fill="#8c8c8c" font-family="Noto Sans" font-size="3.5">A1</text>
  <line x1=".35" x2="14.4" y1="43.2" y2="43.2" fill="none" stroke="#787878" stroke-linecap="round" stroke-linejoin="round" stroke-width=".7"/>
  <rect id="connector38pin" y="42.85" width="14.4" height=".7" fill="none" stroke-width="0" connectorName="RH"/>
  <rect id="connector38terminal" x="-.0144" y="43.199" width=".0288" height=".0014" fill="none" stroke-width="0"/>
  <rect y="42.85" width="0" height=".7" fill="none" stroke-width="0"/>
  <text x="15.8" y="43.9" fill="#8c8c8c" font-family="Noto Sans" font-size="3.5">RH</text>
  <line x1="50.05" x2="64.45" y1="28.8" y2="28.8" fill="none" stroke="#787878" stroke-linecap="round" stroke-linejoin="round" stroke-width=".7"/>
  <rect id="connector12pin" x="50.4" y="28.45" width="14.4" height=".7" fill="none" stroke-width="0" connectorname="SCL"/>
  <rect id="connector12terminal" x="64.8" y="28.45" width="0" height=".7" fill="none" stroke-width="0"/>
  <text x="49" y="29.5" fill="#8c8c8c" font-family="Noto Sans" font-size="3.5" text-anchor="end">SCL</text>
  <line x1="50.05" x2="64.45" y1="36" y2="36" fill="none" stroke="#787878" stroke-linecap="round" stroke-linejoin="round" stroke-width=".7"/>
  <rect id="connector11pin" x="50.4" y="35.65" width="14.4" height=".7" fill="none" stroke-width="0" connectorname="SDA"/>
  <rect id="connector11terminal" x="64.8" y="35.65" width="0" height=".7" fill="none" stroke-width="0"/>
  <text x="49" y="36.7" fill="#8c8c8c" font-family="Noto Sans" font-size="3.5" text-anchor="end">SDA</text>
  <line x1="50.05" x2="64.45" y1="43.2" y2="43.2" fill="none" stroke="#787878" stroke-linecap="round" stroke-linejoin="round" stroke-width=".7"/>
  <rect id="connector37pin" x="50.4" y="42.85" width="14.4" height=".7" fill="none" stroke-width="0" connectorname="RW"/>
  <rect id="connector37terminal" x="64.786" y="43.199" width=".0288" height=".0014" fill="none" stroke-width="0"/>
  <rect x="64.8" y="42.85" width="0" height=".7" fill="none" stroke-width="0"/>
  <text x="49" y="43.9" fill="#8c8c8c" font-family="Noto Sans" font-size="3.5" text-anchor="end">RW</text>
  <line x1="28.8" x2="28.8" y1=".35" y2="14.4" fill="none" stroke="#787878" stroke-linecap="round" stroke-linejoin="round" stroke-width=".7"/>
  <rect id="connector10pin" x="28.45" width=".7" height="14.4" fill="none" stroke-width="0" connectorname="VCC"/>
  <rect id="connector10terminal" x="28.45" width=".7" height="0" fill="none" stroke-width="0"/>
  <g transform="translate(30.2 16)">
   <g transform="rotate(270)">
    <text fill="#8c8c8c" font-family="Noto Sans" font-size="3.5" text-anchor="end">VCC</text>
   </g>
  </g>
  <line x1="28.8" x2="28.8" y1="57.6" y2="71.65" fill="none" stroke="#787878" stroke-linecap="round" stroke-linejoin="round" stroke-width=".7"/>
  <rect id="connector9pin" x="28.45" y="57.6" width=".7" height="14.4" fill="none" stroke-width="0" connectorname="GND"/>
  <rect id="connector9terminal" x="28.45" y="72" width=".7" height="0" fill="none" stroke-width="0"/>
  <g transform="translate(30.2 56)">
   <g transform="rotate(270)">
    <text fill="#8c8c8c" font-family="Noto Sans" font-size="3.5">GND</text>
   </g>
  </g>
  <rect id="connector39pin" x="28.45" width=".7" height="14.4" fill="none" stroke-width="0" connectorname="VCC"/>
  <rect id="connector39terminal" x="28.45" width=".7" height="0" fill="none" stroke-width="0"/>
  <rect id="connector40pin" x="28.45" width=".7" height="14.4" fill="none" stroke-width="0" connectorname="VCC"/>
  <rect id="connector40terminal" x="28.45" width=".7" height="0" fill="none" stroke-width="0"/>
  <rect id="connector16pin" x="28.45" width=".7" height="14.4" fill="none" stroke-width="0" connectorname="VCC"/>
  <rect id="connector16terminal" x="28.799" y="-.0144" width=".0014" height=".0288" fill="none" stroke-width="0"/>
  <rect x="28.45" width=".7" height="0" fill="none" stroke-width="0"/>
  <rect id="connector36pin" x="28.45" y="57.6" width=".7" height="14.4" fill="none" stroke-width="0" connectorname="GND"/>
  <rect id="connector36terminal" x="28.45" y="72" width=".7" height="0" fill="none" stroke-width="0"/>
  <rect id="connector41pin" x="28.45" y="57.6" width=".7" height="14.4" fill="none" stroke-width="0" connectorname="GND"/>
  <rect id="connector41terminal" x="28.45" y="72" width=".7" height="0" fill="none" stroke-width="0"/>
  <rect id="connector15pin" x="28.45" y="57.6" width=".7" height="14.4" fill="none" stroke-width="0" connectorname="GND"/>
  <rect id="connector15terminal" x="28.799" y="71.986" width=".0014" height=".0288" fill="none" stroke-width="0"/>
  <rect x="28.45" y="72" width=".7" height="0" fill="none" stroke-width="0"/>
  <rect id="connector18pin" x="50.4" y="28.45" width="14.4" height=".7" fill="none" stroke-width="0" connectorname="SCL"/>
  <rect id="connector18terminal" x="64.8" y="28.45" width="0" height=".7" fill="none" stroke-width="0"/>
  <rect id="connector42pin" x="50.4" y="28.45" width="14.4" height=".7" fill="none" stroke-width="0" connectorname="SCL"/>
  <rect id="connector42terminal" x="64.786" y="28.799" width=".0288" height=".0014" fill="none" stroke-width="0"/>
  <rect x="64.8" y="28.45" width="0" height=".7" fill="none" stroke-width="0"/>
  <rect id="connector17pin" x="50.4" y="35.65" width="14.4" height=".7" fill="none" stroke-width="0" connectorname="SDA"/>
  <rect id="connector17terminal" x="64.8" y="35.65" width="0" height=".7" fill="none" stroke-width="0"/>
  <rect id="connector43pin" x="50.4" y="35.65" width="14.4" height=".7" fill="none" stroke-width="0" connectorname="SDA"/>
  <rect id="connector43terminal" x="64.786" y="35.999" width=".0288" height=".0014" fill="none" stroke-width="0"/>
  <rect x="64.8" y="35.65" width="0" height=".7" fill="none" stroke-width="0"/>
 </g>
</svg>
