<?xml version="1.0" encoding="UTF-8"?>
<!-- Created with Inkscape (http://www.inkscape.org/) -->
<svg width="186.02" height="239.17" version="1.1" xmlns="http://www.w3.org/2000/svg" xmlns:cc="http://creativecommons.org/ns#" xmlns:dc="http://purl.org/dc/elements/1.1/" xmlns:rdf="http://www.w3.org/1999/02/22-rdf-syntax-ns#">
 <metadata>
  <rdf:RDF>
   <cc:Work rdf:about="">
    <dc:format>image/svg+xml</dc:format>
    <dc:type rdf:resource="http://purl.org/dc/dcmitype/StillImage"/>
    <dc:title/>
   </cc:Work>
  </rdf:RDF>
 </metadata>
 <rect y="-79.724" width="0" height="0" fill="none"/>
 <g id="schematic" fill="none">
  <path d="m53.15 106.3h-26.575" color="#000000" stroke="#000" stroke-width="3"/>
  <rect id="connector1pin" x="23.031" y="102.76" width="7.0866" height="7.0866"/>
  <path d="m159.45 26.575v26.575" color="#000000" stroke="#000" stroke-width="3"/>
  <rect id="connector2pin" transform="rotate(90)" x="23.031" y="-162.99" width="7.0866" height="7.0866"/>
  <path d="m159.45 212.6v-26.575" color="#000000" stroke="#000" stroke-width="3"/>
  <rect id="connector3pin" transform="rotate(-90)" x="-216.14" y="155.91" width="7.0866" height="7.0866"/>
  <path d="m79.724 79.724v53.15" color="#000000" stroke="#000" stroke-dashoffset=".288" stroke-linecap="round" stroke-width="3"/>
  <path d="m53.15 106.3h26.575" color="#000000" stroke="#000" stroke-dashoffset=".288" stroke-linecap="round" stroke-width="3"/>
  <path d="m106.3 79.724-26.575 12.402" color="#000000" stroke="#000" stroke-dashoffset=".288" stroke-linecap="round" stroke-width="3"/>
  <g transform="translate(-1.1024e-6 26.575)" stroke="#000" stroke-dashoffset=".288" stroke-linecap="round" stroke-width="3">
   <path d="m79.724 95.669 26.575 10.63-5.315-5.315" color="#000000"/>
   <path d="m100.98 100.98-3.5433 5.786 8.8583-0.47104" color="#000000" stroke-linejoin="round"/>
  </g>
  <path d="m106.3 132.87h26.575" color="#000000" stroke="#000" stroke-dashoffset=".288" stroke-linecap="round" stroke-width="3"/>
  <path d="m132.87 106.3v53.15" color="#000000" stroke="#000" stroke-dashoffset=".288" stroke-linecap="round" stroke-width="3"/>
  <path d="m159.45 106.3-26.575 12.402" color="#000000" stroke="#000" stroke-dashoffset=".288" stroke-linecap="round" stroke-width="3"/>
  <path d="m106.3 79.724h53.15v26.575" color="#000000" stroke="#000" stroke-dashoffset=".288" stroke-linecap="round" stroke-width="3"/>
  <g transform="translate(53.15 53.15)" stroke="#000" stroke-dashoffset=".288" stroke-linecap="round" stroke-width="3">
   <path d="m79.724 95.669 26.575 10.63-5.315-5.315" color="#000000"/>
   <path d="m100.98 100.98-3.5433 5.786 8.8583-0.47104" color="#000000" stroke-linejoin="round"/>
  </g>
  <path d="m159.45 53.15v26.575" color="#000000" stroke="#000" stroke-dashoffset=".288" stroke-linecap="round" stroke-width="3"/>
  <path d="m159.45 159.45v26.575" color="#000000" stroke="#000" stroke-dashoffset=".288" stroke-linecap="round" stroke-width="3"/>
 </g>
</svg>
