<?xml version="1.0" encoding="UTF-8"?>
<!DOCTYPE svg>
<!-- Generator: Adobe Illustrator 12.0.0, SVG Export Plug-In . SVG Version: 6.00 Build 51448)  -->
<svg width="59.527" height="76.535" enable-background="new -9.723 -10.436 59.527 76.535" overflow="visible" version="1.1" viewBox="0 0 59.527 76.535" xmlns="http://www.w3.org/2000/svg" xmlns:xml="http://www.w3.org/XML/1998/namespace">
	<g id="breadboard">
		<desc>
			<referenceFile>DRV8825_bb.svg</referenceFile>
		</desc>
		<g transform="translate(9.723,10.436)">
			<rect x="-8.367" y="-9.439" width="56.422" height="74.055" fill="#442365"/>
			<g fill="#808080">
				<rect x="33.742" y="26.892" width="1.101" height="4.359"/>
				<rect x="31.462" y="26.892" width="1.1" height="4.359"/>
				<rect x="29.076" y="26.892" width="1.102" height="4.359"/>
				<rect x="26.848" y="26.892" width="1.101" height="4.359"/>
				<rect x="24.566" y="26.892" width="1.101" height="4.359"/>
				<rect x="22.285" y="26.892" width="1.102" height="4.359"/>
				<rect x="19.902" y="26.892" width="1.101" height="4.359"/>
				<rect x="17.62" y="26.892" width="1.101" height="4.359"/>
				<rect x="15.34" y="26.892" width="1.101" height="4.359"/>
				<rect x="13.059" y="26.892" width="1.101" height="4.359"/>
				<rect x="10.778" y="26.892" width="1.101" height="4.359"/>
				<rect x="8.445" y="26.892" width="1.101" height="4.359"/>
				<rect x="6.165" y="26.892" width="1.101" height="4.359"/>
				<rect x="3.832" y="26.892" width="1.101" height="4.359"/>
			</g>
			<g fill="#808080">
				<rect x="33.742" y="48.352" width="1.101" height="4.359"/>
				<rect x="31.462" y="48.352" width="1.1" height="4.359"/>
				<rect x="29.076" y="48.352" width="1.102" height="4.359"/>
				<rect x="26.848" y="48.352" width="1.101" height="4.359"/>
				<rect x="24.566" y="48.352" width="1.101" height="4.359"/>
				<rect x="22.285" y="48.352" width="1.102" height="4.359"/>
				<rect x="19.902" y="48.352" width="1.101" height="4.359"/>
				<rect x="17.62" y="48.352" width="1.101" height="4.359"/>
				<rect x="15.34" y="48.352" width="1.101" height="4.359"/>
				<rect x="13.059" y="48.352" width="1.101" height="4.359"/>
				<rect x="10.778" y="48.352" width="1.101" height="4.359"/>
				<rect x="8.445" y="48.352" width="1.101" height="4.359"/>
				<rect x="6.165" y="48.352" width="1.101" height="4.359"/>
				<rect x="3.832" y="48.352" width="1.101" height="4.359"/>
			</g>
			<rect x="3.308" y="31.678" width="32.644" height="16.309"/>
			<path d="m4.262 31.678v16.309h-0.954v-0.453h32.644v0.453h-0.956v-16.309h0.956v0.448h-32.644v-0.448h0.954zm-0.954-0.453h33.595v17.21h-34.548v-17.21h0.953z"/>
			<ellipse cx="33.971" cy="33.983" rx="1.141" ry="1.088" fill="#494949"/>
			<rect x="9.707" y="-3.957" width="3.743" height="1.654" fill="none" stroke="#000" stroke-linecap="square" stroke-linejoin="bevel" stroke-miterlimit="10" stroke-opacity="0" stroke-width=".8"/>
			<rect x="9.479" y="-4.53" width="4.097" height="2.437" fill="#808080"/>
			<rect x="2.501" y="-3.906" width="3.743" height="1.653" fill="none" stroke="#000" stroke-linecap="square" stroke-linejoin="bevel" stroke-miterlimit="10" stroke-opacity="0" stroke-width=".8"/>
			<rect x="2.275" y="-4.479" width="4.097" height="2.437" fill="#808080"/>
			<rect x="6.236" y="9.157" width="3.743" height="1.653" fill="none" stroke="#000" stroke-linecap="square" stroke-linejoin="bevel" stroke-miterlimit="10" stroke-opacity="0" stroke-width=".8"/>
			<rect x="6.111" y="8.946" width="4.097" height="2.438" fill="#808080"/>
			<rect x="2.661" y="-2.093" width="10.479" height="10.884"/>
			<path d="m3.097-2.093v10.884h-0.436v-0.479h10.479v0.479h-0.437v-10.884h0.437v0.48h-10.479v-0.48h0.436zm-0.436-0.479h10.915v11.842h-11.351v-11.842h0.436z"/>
			<ellipse cx="7.9" cy="3.349" rx="4.162" ry="4.251" fill="#B3B3B3"/>
			<path d="m11.869 3.348c0-2.267-1.751-4.055-3.969-4.055-2.217 0-3.968 1.789-3.968 4.055 0 2.267 1.751 4.054 3.968 4.054 2.218 1e-3 3.969-1.786 3.969-4.054zm0.384 0c0 2.43-1.976 4.447-4.354 4.447-2.376 0-4.351-2.018-4.351-4.447s1.976-4.448 4.352-4.448c2.377 1e-3 4.353 2.02 4.353 4.448z" fill="#B3B3B3"/>
			<g fill="none" stroke="#000" stroke-linecap="round">
				<line x1="5.922" x2="9.857" y1="5.477" y2="1.201"/>
				<line x1="9.992" x2="5.715" y1="5.203" y2="1.27"/>
			</g>
			<rect x="27.695" y="14.404" width="2.331" height="6.603" fill="#BDA073"/>
			<path d="m27.695 20.732h2.331v0.275h-0.197v-6.603h0.197v0.274h-2.331v-0.274h0.199v6.603h-0.199v-0.275zm-0.198 0.275v-6.877h2.73v7.152h-2.73v-0.275z" fill="#BC9D72"/>
			<rect x="27.689" y="20.965" width="2.349" height=".914" fill="#808080"/>
			<path d="m27.689 21.605h2.349v0.275h-0.198v-0.915h0.198v0.275h-2.349v-0.275h0.198v0.914h-0.198v-0.274zm-0.202 0.275v-1.189h2.749v1.463h-2.749v-0.274z" fill="#808080"/>
			<rect x="27.684" y="14.045" width="2.351" height=".913" fill="#808080"/>
			<path d="m27.684 14.683h2.351v0.275h-0.2v-0.913h0.2v0.273h-2.351v-0.273h0.198v0.913h-0.198v-0.275zm-0.2 0.275v-1.189h2.749v1.463h-2.748l-1e-3 -0.274z" fill="#808080"/>
			<rect x="27.695" y="14.404" width="2.331" height="6.603" fill="#00f" fill-opacity="0"/>
			<rect x="27.695" y="14.404" width="2.331" height="6.603" fill="none" stroke="#000" stroke-linecap="square" stroke-linejoin="bevel" stroke-miterlimit="10" stroke-opacity="0" stroke-width=".8"/>
			<rect x="27.684" y="14.045" width="2.351" height=".913" fill="#00f" fill-opacity="0"/>
			<rect x="27.684" y="14.045" width="2.351" height=".913" fill="none" stroke="#000" stroke-linecap="square" stroke-linejoin="bevel" stroke-miterlimit="10" stroke-opacity="0" stroke-width=".8"/>
			<rect x="3.217" y="58.795" width="7.093" height="2.507" fill="#BDA073"/>
			<path d="m10.012 61.301v-2.506h0.297v0.214h-7.092v-0.214h0.294v2.507h-0.294v-0.214h7.093v0.214l-0.298-1e-3zm0.297 0.214h-7.387v-2.933h7.684v2.934l-0.297-1e-3z" fill="#BC9D72"/>
			<rect x="10.266" y="58.783" width=".981" height="2.523" fill="#808080"/>
			<path d="m10.951 61.307v-2.523h0.295v0.216h-0.981v-0.217h0.295v2.523h-0.295v-0.213h0.981v0.213h-0.295zm0.296 0.218h-1.278v-2.955h1.574v2.955h-0.296z" fill="#808080"/>
			<rect x="2.831" y="58.791" width=".982" height="2.521" fill="#808080"/>
			<path d="m3.516 61.313v-2.521h0.295v0.213h-0.98v-0.213h0.292v2.521h-0.292v-0.214h0.982v0.214h-0.297zm0.297 0.214h-1.279v-2.952h1.573v2.952h-0.294z" fill="#808080"/>
			<rect x="3.217" y="58.795" width="7.093" height="2.507" fill="#00f" fill-opacity="0"/>
			<rect x="3.217" y="58.795" width="7.093" height="2.507" fill="none" stroke="#000" stroke-linecap="square" stroke-linejoin="bevel" stroke-miterlimit="10" stroke-opacity="0" stroke-width=".8"/>
			<rect x="2.831" y="58.791" width=".982" height="2.521" fill="#00f" fill-opacity="0"/>
			<rect x="2.831" y="58.791" width=".982" height="2.521" fill="none" stroke="#000" stroke-linecap="square" stroke-linejoin="bevel" stroke-miterlimit="10" stroke-opacity="0" stroke-width=".8"/>
			<rect x="3.372" y="18.624" width="7.092" height="2.504" fill="#BDA073"/>
			<path d="m10.168 21.128v-2.504h0.297v0.213h-7.093v-0.213h0.293v2.504h-0.293v-0.214h7.092v0.214h-0.296zm0.297 0.214h-7.389v-2.933h7.683v2.933h-0.294z" fill="#BC9D72"/>
			<rect x="10.421" y="18.612" width=".981" height="2.522" fill="#808080"/>
			<path d="m11.107 21.134v-2.522h0.295v0.214h-0.981v-0.214h0.295v2.522h-0.295v-0.212h0.981v0.212h-0.295zm0.295 0.219h-1.277v-2.953h1.574v2.953h-0.297z" fill="#808080"/>
			<rect x="2.986" y="18.618" width=".982" height="2.524" fill="#808080"/>
			<path d="m3.672 21.142v-2.524h0.295v0.215h-0.981v-0.215h0.293v2.524h-0.293v-0.214h0.982v0.214h-0.296zm0.295 0.213h-1.278v-2.953h1.573v2.953h-0.295z" fill="#808080"/>
			<rect x="3.372" y="18.624" width="7.092" height="2.504" fill="#00f" fill-opacity="0"/>
			<rect x="3.372" y="18.624" width="7.092" height="2.504" fill="none" stroke="#000" stroke-linecap="square" stroke-linejoin="bevel" stroke-miterlimit="10" stroke-opacity="0" stroke-width=".8"/>
			<rect x="2.986" y="18.618" width=".982" height="2.524" fill="#00f" fill-opacity="0"/>
			<rect x="2.986" y="18.618" width=".982" height="2.524" fill="none" stroke="#000" stroke-linecap="square" stroke-linejoin="bevel" stroke-miterlimit="10" stroke-opacity="0" stroke-width=".8"/>
			<rect x="3.424" y="13.7" width="7.093" height="2.504" fill="#BDA073"/>
			<path d="m10.22 16.204v-2.504h0.297v0.213h-7.093v-0.213h0.294v2.504h-0.294v-0.213h7.093v0.213h-0.297zm0.297 0.214h-7.389v-2.933h7.684v2.933h-0.295z" fill="#BC9D72"/>
			<rect x="10.473" y="13.688" width=".981" height="2.523" fill="#808080"/>
			<path d="m11.159 16.211v-2.523h0.295v0.214h-0.981v-0.214h0.295v2.523h-0.295v-0.213h0.981v0.213h-0.295zm0.295 0.218h-1.277v-2.955h1.573v2.953h-0.296v2e-3z" fill="#808080"/>
			<rect x="3.039" y="13.694" width=".982" height="2.524" fill="#808080"/>
			<path d="m3.724 16.218v-2.524h0.295v0.215h-0.98v-0.215h0.293v2.524h-0.293v-0.214h0.982v0.214h-0.297zm0.295 0.213h-1.278v-2.954h1.573v2.954h-0.295z" fill="#808080"/>
			<rect x="3.424" y="13.7" width="7.093" height="2.504" fill="#00f" fill-opacity="0"/>
			<rect x="3.424" y="13.7" width="7.093" height="2.504" fill="none" stroke="#000" stroke-linecap="square" stroke-linejoin="bevel" stroke-miterlimit="10" stroke-opacity="0" stroke-width=".8"/>
			<rect x="3.039" y="13.694" width=".982" height="2.524" fill="#00f" fill-opacity="0"/>
			<rect x="3.039" y="13.694" width=".982" height="2.524" fill="none" stroke="#000" stroke-linecap="square" stroke-linejoin="bevel" stroke-miterlimit="10" stroke-opacity="0" stroke-width=".8"/>
			<rect x="33.188" y="14.455" width="2.332" height="6.602" fill="#BA9E70"/>
			<path d="m33.188 20.783h2.332v0.274h-0.196v-6.602h0.196v0.274h-2.332v-0.274h0.2v6.602h-0.2v-0.274zm-0.197 0.274v-6.877h2.73v7.152h-2.73v-0.275z" fill="#B79A6E"/>
			<rect x="33.182" y="21.017" width="2.351" height=".914" fill="#808080"/>
			<path d="m33.182 21.656h2.351v0.276h-0.2v-0.914h0.2v0.275h-2.351v-0.275h0.198v0.914h-0.198v-0.276zm-0.201 0.275v-1.188h2.75v1.463h-2.75v-0.275z" fill="#808080"/>
			<rect x="33.177" y="14.096" width="2.351" height=".913" fill="#808080"/>
			<path d="m33.177 14.734h2.351v0.275h-0.2v-0.913h0.2v0.273h-2.351v-0.273h0.2v0.913h-0.2v-0.275zm-0.2 0.275v-1.189h2.75v1.463h-2.75v-0.274z" fill="#808080"/>
			<rect x="33.188" y="14.455" width="2.332" height="6.602" fill="#00f" fill-opacity="0"/>
			<rect x="33.188" y="14.455" width="2.332" height="6.602" fill="none" stroke="#000" stroke-linecap="square" stroke-linejoin="bevel" stroke-miterlimit="10" stroke-opacity="0" stroke-width=".8"/>
			<rect x="33.177" y="14.096" width="2.351" height=".913" fill="#00f" fill-opacity="0"/>
			<rect x="33.177" y="14.096" width="2.351" height=".913" fill="none" stroke="#000" stroke-linecap="square" stroke-linejoin="bevel" stroke-miterlimit="10" stroke-opacity="0" stroke-width=".8"/>
			<rect x="30.196" y="-3.393" width="5.092" height="11.094" fill="#803300"/>
			<path d="m30.196 7.238h5.092v0.463h-0.436v-11.094h0.436v0.461h-5.092v-0.461h0.437v11.094h-0.437v-0.463zm-0.434 0.463v-11.557h5.963v12.018h-5.963v-0.461z" fill="#803300"/>
			<rect x="30.18" y="7.634" width="5.129" height="1.537" fill="#808080"/>
			<path d="m30.18 8.708h5.129v0.462h-0.434v-1.536h0.434v0.463h-5.129v-0.463h0.437v1.537h-0.437v-0.463zm-0.434 0.463v-1.998h6.003v2.46h-6.004v-0.462z" fill="#808080"/>
			<rect x="30.171" y="-3.998" width="5.129" height="1.536" fill="#808080"/>
			<path d="m30.171-2.924h5.129v0.461h-0.436v-1.536h0.436v0.46h-5.129v-0.46h0.436v1.536h-0.436v-0.461zm-0.435 0.462v-1.998h6v2.46h-6v-0.462z" fill="#808080"/>
			<rect x="30.196" y="-3.393" width="5.092" height="11.094" fill="#00f" fill-opacity="0"/>
			<rect x="30.196" y="-3.393" width="5.092" height="11.094" fill="none" stroke="#000" stroke-linecap="square" stroke-linejoin="bevel" stroke-miterlimit="10" stroke-opacity="0" stroke-width=".8"/>
			<rect x="30.171" y="-3.998" width="5.129" height="1.536" fill="#00f" fill-opacity="0"/>
			<rect x="30.171" y="-3.998" width="5.129" height="1.536" fill="none" stroke="#000" stroke-linecap="square" stroke-linejoin="bevel" stroke-miterlimit="10" stroke-opacity="0" stroke-width=".8"/>
			<rect x="14.414" y="58.795" width="7.091" height="2.507" fill="#BDA073"/>
			<path d="m21.21 61.301v-2.506h0.294v0.214h-7.091v-0.214h0.294v2.507h-0.294v-0.214h7.091v0.214l-0.294-1e-3zm0.296 0.214h-7.387v-2.933h7.681v2.934l-0.294-1e-3z" fill="#BC9D72"/>
			<rect x="21.463" y="58.783" width=".98" height="2.523" fill="#808080"/>
			<path d="m22.147 61.307v-2.523h0.295v0.216h-0.98v-0.217h0.295v2.523h-0.295v-0.213h0.98v0.213h-0.295zm0.296 0.218h-1.275v-2.955h1.572v2.955h-0.297z" fill="#808080"/>
			<rect x="14.027" y="58.791" width=".981" height="2.521" fill="#808080"/>
			<path d="m14.713 61.313v-2.521h0.295v0.213h-0.981v-0.213h0.292v2.521h-0.292v-0.214h0.981v0.214h-0.295zm0.296 0.214h-1.279v-2.952h1.572v2.952h-0.293z" fill="#808080"/>
			<rect x="14.414" y="58.795" width="7.091" height="2.507" fill="#00f" fill-opacity="0"/>
			<rect x="14.414" y="58.795" width="7.091" height="2.507" fill="none" stroke="#000" stroke-linecap="square" stroke-linejoin="bevel" stroke-miterlimit="10" stroke-opacity="0" stroke-width=".8"/>
			<rect x="14.027" y="58.791" width=".981" height="2.521" fill="#00f" fill-opacity="0"/>
			<rect x="14.027" y="58.791" width=".981" height="2.521" fill="none" stroke="#000" stroke-linecap="square" stroke-linejoin="bevel" stroke-miterlimit="10" stroke-opacity="0" stroke-width=".8"/>
			<rect x="22.58" y="-3.668" width="5.823" height="11.948" fill="#020202"/>
			<path d="m22.58 7.781h5.823v0.498h-0.496v-11.947h0.496v0.497h-5.823v-0.497h0.496v11.948h-0.496v-0.499zm-0.498 0.498v-12.444h6.82v12.941h-6.82v-0.497z"/>
			<rect x="22.559" y="8.206" width="5.87" height="1.655" fill="#808080"/>
			<path d="m22.559 9.362h5.87v0.498h-0.498v-1.655h0.498v0.498h-5.87v-0.498h0.499v1.655h-0.499v-0.498zm-0.496 0.499v-2.151h6.862v2.649h-6.862v-0.498z" fill="#808080"/>
			<rect x="22.548" y="-4.32" width="5.869" height="1.654" fill="#808080"/>
			<path d="m22.548-3.162h5.869v0.497h-0.497v-1.655h0.497v0.497h-5.869v-0.497h0.498v1.654h-0.498v-0.496zm-0.499 0.496v-2.152h6.863v2.649h-6.863v-0.497z" fill="#808080"/>
			<rect x="22.58" y="-3.668" width="5.823" height="11.948" fill="#00f" fill-opacity="0"/>
			<rect x="22.58" y="-3.668" width="5.823" height="11.948" fill="none" stroke="#000" stroke-linecap="square" stroke-linejoin="bevel" stroke-miterlimit="10" stroke-opacity="0" stroke-width=".8"/>
			<rect x="22.548" y="-4.32" width="5.869" height="1.654" fill="#00f" fill-opacity="0"/>
			<rect x="22.548" y="-4.32" width="5.869" height="1.654" fill="none" stroke="#000" stroke-linecap="square" stroke-linejoin="bevel" stroke-miterlimit="10" stroke-opacity="0" stroke-width=".8"/>
			<rect x="14.921" y="-3.668" width="5.824" height="11.948"/>
			<path d="m14.921 7.781h5.824v0.498h-0.496v-11.947h0.496v0.497h-5.824v-0.497h0.498v11.948h-0.498v-0.499zm-0.498 0.498v-12.444h6.819v12.941h-6.819v-0.497z"/>
			<rect x="14.902" y="8.206" width="5.868" height="1.655" fill="#808080"/>
			<path d="m14.902 9.362h5.868v0.498h-0.496v-1.655h0.496v0.498h-5.868v-0.498h0.497v1.655h-0.497v-0.498zm-0.498 0.499v-2.151h6.863v2.649h-6.863v-0.498z" fill="#808080"/>
			<rect x="14.888" y="-4.32" width="5.871" height="1.654" fill="#808080"/>
			<path d="m14.888-3.162h5.871v0.497h-0.499v-1.655h0.498v0.497h-5.871v-0.497h0.498v1.654h-0.498v-0.496zm-0.496 0.496v-2.152h6.862v2.649h-6.862v-0.497z" fill="#808080"/>
			<rect x="14.921" y="-3.668" width="5.824" height="11.948" fill="#00f" fill-opacity="0"/>
			<rect x="14.921" y="-3.668" width="5.824" height="11.948" fill="none" stroke="#000" stroke-linecap="square" stroke-linejoin="bevel" stroke-miterlimit="10" stroke-opacity="0" stroke-width=".8"/>
			<rect x="14.888" y="-4.32" width="5.871" height="1.654" fill="#00f" fill-opacity="0"/>
			<rect x="14.888" y="-4.32" width="5.871" height="1.654" fill="none" stroke="#000" stroke-linecap="square" stroke-linejoin="bevel" stroke-miterlimit="10" stroke-opacity="0" stroke-width=".8"/>
			<rect x="27.269" y="58.795" width="7.093" height="2.507" fill="#BDA073"/>
			<path d="m34.063 61.301v-2.506h0.297v0.214h-7.093v-0.214h0.294v2.507h-0.294v-0.214h7.093v0.214l-0.297-1e-3zm0.299 0.214h-7.389v-2.933h7.682v2.934l-0.293-1e-3z" fill="#BC9D72"/>
			<rect x="34.318" y="58.783" width=".98" height="2.523" fill="#808080"/>
			<path d="m35.004 61.307v-2.523h0.294v0.216h-0.981v-0.217h0.296v2.523h-0.296v-0.213h0.981v0.213h-0.294zm0.294 0.218h-1.276v-2.955h1.573v2.955h-0.297z" fill="#808080"/>
			<rect x="26.882" y="58.791" width=".982" height="2.521" fill="#808080"/>
			<path d="m27.569 61.313v-2.521h0.295v0.213h-0.982v-0.213h0.294v2.521h-0.294v-0.214h0.982v0.214h-0.295zm0.295 0.214h-1.277v-2.952h1.571v2.952h-0.294z" fill="#808080"/>
			<rect x="27.269" y="58.795" width="7.093" height="2.507" fill="#00f" fill-opacity="0"/>
			<rect x="27.269" y="58.795" width="7.093" height="2.507" fill="none" stroke="#000" stroke-linecap="square" stroke-linejoin="bevel" stroke-miterlimit="10" stroke-opacity="0" stroke-width=".8"/>
			<rect x="26.882" y="58.791" width=".982" height="2.521" fill="#00f" fill-opacity="0"/>
			<rect x="26.882" y="58.791" width=".982" height="2.521" fill="none" stroke="#000" stroke-linecap="square" stroke-linejoin="bevel" stroke-miterlimit="10" stroke-opacity="0" stroke-width=".8"/>
			<g fill="#8C8C8C">
				<path d="m-4.795-6.151c0 0.107-0.095 0.161-0.279 0.161h-1.781v-2.482h1.781c0.185 0 0.279 0.052 0.279 0.156 0 0.107-0.095 0.161-0.279 0.161h-1.372v0.77h0.556c0.183 0 0.276 0.052 0.276 0.156 0 0.108-0.095 0.161-0.276 0.161h-0.556v0.763h1.372c0.184-3e-3 0.279 0.049 0.279 0.154"/>
				<path d="m-1.783-5.992h-0.55l-1.099-1.912v1.701c0 0.139-0.065 0.212-0.203 0.212-0.141 0-0.208-0.071-0.208-0.212v-2.271h0.548l1.099 1.936v-1.725c0-0.139 0.07-0.213 0.205-0.213 0.141 0 0.207 0.072 0.207 0.213l1e-3 2.271"/>
				<path d="m1.224-6.144c0 0.042-0.021 0.08-0.063 0.111-0.037 0.03-0.086 0.045-0.14 0.045-0.102 0-0.172-0.056-0.216-0.167l-0.146-0.372h-0.926l-0.14 0.373c-0.043 0.111-0.114 0.167-0.218 0.167-0.055 0-0.104-0.016-0.146-0.045-0.039-0.032-0.057-0.069-0.057-0.111 0-0.022 8e-3 -0.058 0.023-0.098l0.807-2.105c0.032-0.083 0.098-0.123 0.2-0.123 0.101 0 0.167 0.042 0.2 0.122l0.798 2.105c0.016 0.04 0.024 0.071 0.024 0.098m-0.68-0.7-0.345-0.896-0.34 0.896h0.685"/>
			</g>
			<g fill="#8C8C8C">
				<path d="m-5.01 2.872c0 0.139-0.07 0.212-0.209 0.212-0.137 0-0.204-0.07-0.204-0.212v-1.834l-0.414 0.451v0.031c0 0.138-0.068 0.212-0.204 0.212-0.14 0-0.21-0.071-0.21-0.212v-0.032l-0.409-0.45v1.834c0 0.139-0.068 0.212-0.204 0.212-0.14 0-0.211-0.07-0.211-0.212v-2.269h0.526l0.507 0.562 0.504-0.562h0.529l-1e-3 2.269"/>
				<path d="m-1.995 2.728c0 0.096-0.05 0.184-0.142 0.251-0.093 0.07-0.205 0.104-0.337 0.104h-1.021c-0.148 0-0.278-0.04-0.393-0.119-0.113-0.079-0.166-0.17-0.166-0.275 0-0.121 0.072-0.182 0.214-0.182 0.115 0 0.178 0.06 0.201 0.179 0.01 0.054 0.053 0.081 0.132 0.081h1.008c0.058 0 0.085-0.012 0.085-0.038 0-0.011-0.013-0.034-0.042-0.063l-1.492-1.472c-0.072-0.07-0.108-0.145-0.108-0.232 0-0.104 0.046-0.193 0.141-0.257 0.096-0.067 0.221-0.102 0.373-0.102h0.986c0.146 0 0.275 0.042 0.385 0.127 0.115 0.083 0.17 0.175 0.17 0.286 0 0.121-0.067 0.179-0.204 0.179-0.125 0-0.194-0.058-0.209-0.175-9e-3 -0.065-0.06-0.097-0.151-0.097h-0.987c-0.062 0-0.089 0.018-0.089 0.045 0 0.018 0.011 0.033 0.034 0.058l1.494 1.474c0.076 0.069 0.118 0.146 0.118 0.228"/>
				<path d="M1.022,2.914c0,0.115-0.067,0.17-0.195,0.17h-1.591c-0.186,0-0.276-0.053-0.276-0.161c0-0.104,0.091-0.155,0.276-0.155h0.543V0.918h-0.543c-0.186,0-0.276-0.054-0.276-0.16c0-0.104,0.091-0.155,0.276-0.155h0.957v2.166h0.415V2.167c0-0.135,0.07-0.208,0.208-0.208s0.208,0.07,0.208,0.208L1.022,2.914"/>
			</g>
			<g fill="#8C8C8C">
				<path d="m-4.967 11.253c0 0.137-0.069 0.211-0.208 0.211-0.138 0-0.205-0.071-0.205-0.211v-1.835l-0.413 0.451v0.03c0 0.139-0.068 0.212-0.204 0.212-0.14 0-0.21-0.072-0.21-0.212v-0.03l-0.408-0.451v1.834c0 0.137-0.07 0.211-0.206 0.211-0.141 0-0.21-0.071-0.21-0.211v-2.27h0.528l0.506 0.562 0.506-0.562h0.525l-1e-3 2.271"/>
				<path d="m-1.956 11.107c0 0.096-0.046 0.184-0.142 0.252-0.091 0.07-0.202 0.104-0.335 0.104h-1.02c-0.15 0-0.282-0.039-0.396-0.12-0.11-0.079-0.164-0.17-0.164-0.275 0-0.121 0.072-0.183 0.214-0.183 0.114 0 0.178 0.061 0.202 0.179 9e-3 0.054 0.051 0.082 0.13 0.082h1.008c0.06 0 0.087-0.011 0.087-0.037 0-0.011-0.015-0.033-0.044-0.063l-1.494-1.474c-0.07-0.067-0.106-0.143-0.106-0.23 0-0.104 0.047-0.194 0.141-0.257 0.097-0.066 0.22-0.101 0.373-0.101h0.986c0.146 0 0.277 0.042 0.385 0.126 0.114 0.084 0.171 0.177 0.171 0.286 0 0.12-0.07 0.179-0.208 0.179-0.123 0-0.194-0.058-0.21-0.176-9e-3 -0.064-0.057-0.097-0.148-0.097h-0.989c-0.058 0-0.087 0.019-0.087 0.046 0 0.018 0.01 0.033 0.034 0.058l1.492 1.473c0.081 0.07 0.12 0.149 0.12 0.228"/>
				<path d="m1.055 11.304c0 0.107-0.093 0.159-0.275 0.159h-1.786v-1.079c0-0.092 0.038-0.167 0.116-0.227 0.082-0.06 0.183-0.094 0.301-0.094h1.228v-0.766h-1.369c-0.186 0-0.276-0.054-0.276-0.161 0-0.104 0.091-0.156 0.276-0.156h1.369c0.119 0 0.218 0.032 0.298 0.097 0.079 0.06 0.12 0.139 0.12 0.235v0.75c0 0.092-0.041 0.168-0.12 0.23-0.08 0.059-0.179 0.089-0.298 0.089h-1.228v0.764h1.368c0.185 4e-3 0.276 0.054 0.276 0.159"/>
			</g>
			<g fill="#8C8C8C">
				<path d="m-4.752 20.432c0 0.139-0.071 0.212-0.208 0.212-0.138 0-0.207-0.071-0.207-0.212v-1.833l-0.415 0.45v0.029c0 0.139-0.067 0.212-0.204 0.212-0.141 0-0.208-0.071-0.208-0.212v-0.029l-0.411-0.451v1.834c0 0.139-0.07 0.212-0.204 0.212-0.141 0-0.207-0.071-0.207-0.212v-2.271h0.524l0.505 0.563 0.507-0.563h0.528v2.271"/>
				<path d="m-1.74 20.288c0 0.096-0.048 0.184-0.139 0.252-0.094 0.071-0.205 0.105-0.335 0.105h-1.022c-0.151 0-0.282-0.039-0.395-0.119-0.11-0.08-0.164-0.171-0.164-0.276 0-0.121 0.07-0.183 0.214-0.183 0.115 0 0.18 0.061 0.2 0.179 8e-3 0.054 0.053 0.082 0.133 0.082h1.005c0.062 0 0.09-0.011 0.09-0.038 0-0.012-0.015-0.034-0.044-0.063l-1.494-1.473c-0.072-0.068-0.106-0.144-0.106-0.231 0-0.103 0.048-0.193 0.141-0.256 0.098-0.068 0.221-0.101 0.375-0.101h0.985c0.146 0 0.274 0.042 0.386 0.126 0.113 0.083 0.168 0.175 0.168 0.286 0 0.12-0.069 0.179-0.204 0.179-0.124 0-0.194-0.058-0.211-0.175-9e-3 -0.064-0.06-0.097-0.148-0.097h-0.99c-0.059 0-0.088 0.017-0.088 0.044 0 0.018 9e-3 0.033 0.034 0.058l1.494 1.474c0.076 0.069 0.115 0.148 0.115 0.227"/>
				<path d="m1.268 20.328c0 0.089-0.042 0.166-0.123 0.228-0.079 0.058-0.177 0.088-0.296 0.088h-1.368c-0.183 0-0.277-0.052-0.277-0.16 0-0.104 0.095-0.156 0.277-0.156h1.368v-0.574c0-0.125-0.073-0.19-0.223-0.19h-0.729c-0.186 0-0.276-0.052-0.276-0.155 0-0.105 0.09-0.161 0.276-0.161h0.735c0.139 0 0.208-0.066 0.208-0.196v-0.574h-1.358c-0.184 0-0.277-0.053-0.277-0.16 0-0.104 0.095-0.156 0.277-0.156h1.368c0.109 0 0.205 0.028 0.289 0.083 0.082 0.057 0.122 0.118 0.122 0.192v0.692c0 0.107-0.053 0.199-0.157 0.275 0.109 0.095 0.167 0.2 0.167 0.325v0.602"/>
			</g>
			<g fill="#8C8C8C">
				<path d="m-5.014 29.138c0 0.038-0.021 0.074-0.063 0.107-0.043 0.03-0.092 0.045-0.146 0.045-0.074 0-0.146-0.036-0.208-0.107l-1.133-1.239h-0.098v1.138c0 0.138-0.068 0.216-0.205 0.216-0.14 0-0.21-0.059-0.21-0.175v-2.307h1.45c0.172 0 0.316 0.052 0.433 0.145 0.121 0.096 0.178 0.213 0.178 0.355v0.14c0 0.144-0.059 0.265-0.183 0.358-0.121 0.092-0.275 0.135-0.467 0.135h-0.396l0.969 1.065c0.055 0.048 0.079 0.091 0.079 0.124m-0.413-1.693v-0.123c0-0.136-0.087-0.201-0.258-0.201h-0.979v0.501h0.979c0.169 6e-3 0.258-0.054 0.258-0.177"/>
				<path d="m-2.006 29.129c0 0.109-0.094 0.161-0.277 0.161h-1.788v-2.48h1.788c0.184 0 0.277 0.052 0.277 0.155 0 0.108-0.094 0.161-0.277 0.161h-1.373v0.771h0.556c0.185 0 0.276 0.053 0.276 0.156 0 0.106-0.092 0.161-0.276 0.161h-0.556v0.762h1.373c0.184-2e-3 0.277 0.05 0.277 0.153"/>
				<path d="m1.006 28.933c0 0.095-0.046 0.183-0.142 0.25-0.089 0.071-0.204 0.107-0.335 0.107h-1.022c-0.149 0-0.278-0.041-0.392-0.12-0.108-0.079-0.165-0.172-0.165-0.275 0-0.122 0.07-0.181 0.213-0.181 0.114 0 0.18 0.059 0.201 0.176 0.01 0.057 0.053 0.081 0.132 0.081h1.009c0.059 0 0.087-0.015 0.087-0.033 0-0.014-0.015-0.034-0.043-0.063l-1.494-1.476c-0.073-0.068-0.11-0.145-0.11-0.229 0-0.104 0.05-0.195 0.142-0.257 0.096-0.068 0.224-0.101 0.374-0.101h0.99c0.144 0 0.275 0.043 0.382 0.127 0.114 0.084 0.172 0.174 0.172 0.288 0 0.119-0.068 0.177-0.205 0.177-0.125 0-0.194-0.059-0.211-0.174-0.011-0.064-0.06-0.098-0.152-0.098h-0.988c-0.06 0-0.089 0.021-0.089 0.047 0 0.018 0.01 0.03 0.035 0.06l1.493 1.473c0.079 0.063 0.118 0.142 0.118 0.221"/>
			</g>
			<g fill="#8C8C8C">
				<path d="m-4.827 38.171c0 0.098-0.048 0.183-0.141 0.253-0.093 0.069-0.206 0.104-0.337 0.104h-1.02c-0.151 0-0.281-0.038-0.394-0.122-0.111-0.077-0.165-0.173-0.165-0.273 0-0.121 0.073-0.18 0.214-0.18 0.114 0 0.18 0.059 0.201 0.178 0.011 0.055 0.055 0.08 0.133 0.08h1.005c0.061 0 0.089-0.014 0.089-0.039 0-0.011-0.017-0.03-0.043-0.061l-1.494-1.473c-0.073-0.069-0.108-0.146-0.108-0.229 0-0.104 0.046-0.195 0.142-0.26 0.096-0.067 0.222-0.099 0.375-0.099h0.986c0.147 0 0.274 0.04 0.386 0.126 0.114 0.083 0.17 0.176 0.17 0.289 0 0.119-0.07 0.177-0.204 0.177-0.125 0-0.195-0.058-0.209-0.175-0.013-0.063-0.061-0.097-0.15-0.097h-0.989c-0.06 0-0.089 0.02-0.089 0.045 0 0.021 0.013 0.031 0.035 0.059l1.493 1.475c0.073 0.067 0.114 0.145 0.114 0.222"/>
				<path d="m-1.819 38.369c0 0.107-0.091 0.16-0.276 0.16h-1.778v-2.266c0-0.142 0.067-0.214 0.205-0.214s0.209 0.068 0.209 0.214v1.948h1.363c0.184 3e-3 0.277 0.053 0.277 0.158"/>
				<path d="m1.052 37.065c0 0.169-0.061 0.292-0.18 0.383-0.119 0.095-0.286 0.138-0.501 0.138h-0.973v0.729c0 0.135-0.069 0.209-0.207 0.209-0.061 0-0.113-0.016-0.151-0.045s-0.058-0.072-0.058-0.121v-2.31h1.441c0.185 0 0.336 0.046 0.451 0.136 0.116 0.092 0.176 0.212 0.176 0.366l2e-3 0.515m-0.414 0v-0.515c0-0.126-0.084-0.188-0.252-0.188h-0.987v0.909h1.001c0.158 1e-3 0.238-0.067 0.238-0.206"/>
			</g>
			<g fill="#8C8C8C">
				<path d="m-4.836 47.389c0 0.097-0.047 0.184-0.142 0.252-0.091 0.071-0.206 0.104-0.334 0.104h-1.024c-0.15 0-0.277-0.04-0.393-0.121-0.111-0.08-0.167-0.174-0.167-0.275 0-0.121 0.072-0.18 0.217-0.18 0.115 0 0.178 0.061 0.201 0.177 0.01 0.056 0.053 0.08 0.13 0.08h1.007c0.059 0 0.087-0.014 0.087-0.035 0-0.015-0.015-0.032-0.044-0.062l-1.492-1.475c-0.071-0.07-0.108-0.144-0.108-0.23 0-0.104 0.048-0.193 0.142-0.256 0.097-0.068 0.222-0.103 0.373-0.103h0.989c0.144 0 0.275 0.043 0.383 0.126 0.115 0.085 0.172 0.178 0.172 0.291 0 0.12-0.071 0.175-0.207 0.175-0.124 0-0.192-0.058-0.209-0.175-8e-3 -0.061-0.06-0.097-0.151-0.097h-0.989c-0.058 0-0.088 0.022-0.088 0.05 0 0.016 0.011 0.029 0.034 0.057l1.494 1.474c0.08 0.066 0.119 0.145 0.119 0.223"/>
				<path d="m-1.824 45.679c0 0.114-0.07 0.173-0.204 0.173-0.141 0-0.211-0.071-0.211-0.214v-0.058h-0.413v1.99c0 0.117-0.069 0.174-0.208 0.174-0.138 0-0.208-0.072-0.208-0.213v-1.953h-0.408v0.064c0 0.135-0.07 0.209-0.206 0.209-0.139 0-0.21-0.071-0.21-0.209v-0.381h2.063v0.414"/>
				<path d="m1.057 46.282c0 0.167-0.06 0.291-0.183 0.384-0.12 0.095-0.287 0.135-0.501 0.135h-0.973v0.729c0 0.136-0.066 0.21-0.205 0.21-0.061 0-0.112-0.016-0.15-0.045-0.04-0.029-0.06-0.072-0.06-0.122v-2.309h1.442c0.185 0 0.337 0.045 0.45 0.135 0.115 0.093 0.177 0.215 0.177 0.368l3e-3 0.515m-0.415 0v-0.515c0-0.128-0.084-0.188-0.251-0.188h-0.988v0.91h1.002c0.156 0 0.237-0.069 0.237-0.207"/>
			</g>
			<g fill="#8C8C8C">
				<path d="m-4.896 55.443c0 0.124-0.032 0.237-0.098 0.331l-0.425 0.653c-0.111 0.173-0.307 0.265-0.587 0.265h-0.678c-0.184 0-0.277-0.057-0.277-0.162 0-0.103 0.094-0.158 0.277-0.158h0.139v-1.847h-0.139c-0.184 0-0.277-0.054-0.277-0.159 0-0.104 0.094-0.157 0.277-0.157h0.718c0.252 0 0.438 0.093 0.561 0.28l0.407 0.639c0.067 0.103 0.102 0.213 0.102 0.315m-0.413 0.011c0-0.059-0.027-0.131-0.083-0.215l-0.394-0.606c-0.042-0.067-0.114-0.099-0.214-0.099h-0.132v1.849h0.141c0.101 0 0.171-0.031 0.215-0.097l0.411-0.641c0.037-0.07 0.056-0.131 0.056-0.191"/>
				<path d="m-1.878 56.534c0 0.107-0.094 0.159-0.277 0.159h-1.5c-0.184 0-0.276-0.052-0.276-0.159 0-0.105 0.094-0.157 0.276-0.157h0.54v-1.85h-0.549c-0.184 0-0.277-0.055-0.277-0.16s0.094-0.158 0.277-0.158h1.511c0.182 0 0.276 0.053 0.276 0.158s-0.094 0.16-0.276 0.16h-0.548v1.85h0.547c0.183 0 0.276 0.051 0.276 0.157"/>
				<path d="m1.14 56.54c0 0.041-0.023 0.077-0.065 0.108-0.043 0.032-0.091 0.045-0.146 0.045-0.072 0-0.142-0.035-0.208-0.107l-1.133-1.238h-0.098v1.139c0 0.136-0.07 0.212-0.207 0.212s-0.208-0.057-0.208-0.174v-2.307h1.45c0.171 0 0.316 0.053 0.434 0.144 0.119 0.097 0.181 0.213 0.181 0.355v0.14c0 0.145-0.062 0.266-0.185 0.359-0.121 0.093-0.276 0.134-0.469 0.134h-0.39l0.968 1.066c0.049 0.048 0.076 0.089 0.076 0.124m-0.415-1.69v-0.124c0-0.136-0.086-0.201-0.256-0.201h-0.979v0.502h0.979c0.168 3e-3 0.256-0.055 0.256-0.177"/>
			</g>
			<g fill="#8C8C8C">
				<path d="m40.222-7.885c0 0.06-0.017 0.109-0.038 0.163l-0.804 1.57c-0.03 0.07-0.099 0.104-0.191 0.104-0.1 0-0.17-0.036-0.203-0.104l-0.809-1.57c-0.01-0.017-0.015-0.025-0.015-0.032-0.021-0.03-0.023-0.073-0.023-0.131v-0.434c0-0.139 0.066-0.212 0.211-0.212 0.136 0 0.207 0.069 0.207 0.212v0.458l0.623 1.217 0.627-1.217v-0.461c0-0.137 0.07-0.209 0.213-0.209 0.136 0 0.207 0.068 0.207 0.209l-5e-3 0.437"/>
				<path d="m43.072-6.26c0 0.142-0.071 0.214-0.213 0.214-0.135 0-0.206-0.071-0.206-0.214v-1.831l-0.417 0.45v0.026c0 0.142-0.07 0.214-0.209 0.214-0.138 0-0.208-0.07-0.208-0.214v-0.025l-0.415-0.452v1.831c0 0.142-0.07 0.213-0.206 0.213-0.145 0-0.215-0.07-0.215-0.213v-2.267h0.532l0.51 0.561 0.511-0.561h0.533l3e-3 2.268"/>
				<path d="m45.882-8.118c0 0.116-0.068 0.174-0.209 0.174-0.139 0-0.209-0.07-0.209-0.214v-0.057h-0.416v1.986c0 0.117-0.071 0.176-0.207 0.176-0.143 0-0.211-0.072-0.211-0.214v-1.95h-0.412v0.061c0 0.139-0.073 0.211-0.209 0.211-0.142 0-0.211-0.07-0.211-0.211v-0.377h2.081v0.41"/>
			</g>
			<g fill="#8C8C8C">
				<path d="m40.31 2.341c0 0.124-0.061 0.233-0.183 0.323-0.122 0.094-0.272 0.139-0.438 0.139h-0.83c-0.175 0-0.332-0.047-0.454-0.139-0.118-0.092-0.177-0.207-0.177-0.343v-0.875c0-0.142 0.067-0.274 0.192-0.401l0.556-0.544c0.126-0.124 0.297-0.182 0.508-0.182h0.54c0.188 0 0.279 0.052 0.279 0.156 0 0.103-0.092 0.161-0.279 0.161h-0.487c-0.079 0-0.129 3e-3 -0.161 0.014-0.023 7e-3 -0.062 0.037-0.108 0.085l-0.525 0.514c-0.07 0.063-0.103 0.143-0.103 0.241v0.808c0 0.126 0.082 0.189 0.251 0.189h0.769c0.156 0 0.231-0.063 0.231-0.189v-0.302h-0.351c-0.183 0-0.276-0.052-0.276-0.156 0-0.108 0.09-0.161 0.276-0.161h0.768v0.661"/>
				<path d="M43.345,2.802h-0.553l-1.109-1.915v1.7c0,0.142-0.073,0.214-0.209,0.214c-0.14,0-0.212-0.07-0.212-0.214V0.32h0.557l1.108,1.934V0.53c0-0.142,0.069-0.212,0.21-0.212c0.137,0,0.208,0.067,0.208,0.212V2.802"/>
				<path d="m46.385 1.549c0 0.127-0.033 0.237-0.102 0.336l-0.428 0.651c-0.116 0.174-0.313 0.264-0.593 0.264h-0.682c-0.184 0-0.283-0.057-0.283-0.16 0-0.104 0.098-0.158 0.283-0.158h0.138v-1.847h-0.138c-0.184 0-0.283-0.057-0.283-0.161s0.098-0.156 0.283-0.156h0.723c0.256 0 0.443 0.092 0.566 0.279l0.411 0.636c0.07 0.108 0.105 0.213 0.105 0.316m-0.419 0.014c0-0.06-0.024-0.136-0.084-0.217l-0.395-0.61c-0.042-0.063-0.115-0.097-0.218-0.097h-0.13v1.848h0.141c0.098 0 0.172-0.033 0.217-0.099l0.414-0.64c0.038-0.066 0.055-0.127 0.055-0.185"/>
			</g>
			<g fill="#8C8C8C">
				<path d="m42.834 11.452c0 0.103-0.091 0.16-0.277 0.16h-1.804v-1.079c0-0.096 0.034-0.168 0.117-0.228 0.08-0.062 0.185-0.092 0.303-0.092h1.24v-0.766h-1.38c-0.182 0-0.279-0.056-0.279-0.159 0-0.105 0.094-0.158 0.279-0.158h1.381c0.121 0 0.22 0.029 0.299 0.096 0.082 0.063 0.122 0.14 0.122 0.234v0.755c0 0.092-0.039 0.168-0.122 0.23-0.078 0.057-0.178 0.09-0.299 0.09h-1.239v0.763h1.383c0.185-4e-3 0.276 0.05 0.276 0.154"/>
				<path d="m45.877 10.95c0 0.193-0.078 0.352-0.239 0.476-0.159 0.125-0.36 0.187-0.612 0.187h-1.227v-2.482h1.249c0.253 0 0.45 0.062 0.602 0.194 0.155 0.128 0.228 0.294 0.228 0.509 0 0.236-0.086 0.417-0.278 0.544 0.112 0.08 0.179 0.16 0.222 0.239 0.038 0.077 0.055 0.188 0.055 0.333m-0.417-1.13c0-0.252-0.147-0.374-0.451-0.374h-0.794v0.77h0.796c0.303 1e-3 0.449-0.131 0.449-0.396m0 1.093c0-0.254-0.153-0.38-0.456-0.38h-0.789v0.761h0.796c0.303 0 0.449-0.125 0.449-0.381"/>
			</g>
			<g fill="#8C8C8C">
				<path d="m42.721 20.67c0 0.106-0.097 0.161-0.284 0.161h-1.803v-1.077c0-0.095 0.04-0.169 0.121-0.226 0.077-0.062 0.178-0.096 0.303-0.096h1.237v-0.766h-1.379c-0.188 0-0.284-0.054-0.284-0.162 0-0.101 0.096-0.156 0.284-0.156h1.379c0.119 0 0.217 0.032 0.298 0.096 0.083 0.059 0.123 0.136 0.123 0.234v0.751c0 0.096-0.04 0.172-0.123 0.23-0.078 0.059-0.178 0.092-0.298 0.092h-1.237v0.761h1.377c0.193 0 0.286 0.052 0.286 0.158"/>
				<path d="m45.757 20.675c0 0.043-0.022 0.081-0.064 0.112-0.038 0.03-0.089 0.047-0.145 0.047-0.097 0-0.171-0.058-0.214-0.168l-0.148-0.371h-0.936l-0.14 0.371c-0.043 0.111-0.115 0.168-0.219 0.168-0.059 0-0.109-0.018-0.149-0.047-0.036-0.031-0.062-0.068-0.062-0.112 0-0.022 0.013-0.059 0.025-0.097l0.812-2.102c0.028-0.083 0.1-0.125 0.204-0.125 0.103 0 0.169 0.042 0.2 0.125l0.811 2.102c0.014 0.04 0.025 0.074 0.025 0.097m-0.689-0.699-0.348-0.897-0.343 0.897h0.691"/>
			</g>
			<g fill="#8C8C8C">
				<path d="m42.601 29.379c0 0.112-0.062 0.171-0.194 0.171h-1.603c-0.186 0-0.279-0.052-0.279-0.161 0-0.1 0.094-0.155 0.279-0.155h0.548v-1.849h-0.548c-0.186 0-0.279-0.054-0.279-0.161 0-0.102 0.094-0.158 0.279-0.158h0.967v2.166h0.415v-0.6c0-0.137 0.072-0.213 0.213-0.213 0.137 0 0.206 0.071 0.206 0.213l-4e-3 0.747"/>
				<path d="m45.634 29.397c0 0.043-0.021 0.081-0.064 0.11-0.039 0.031-0.089 0.048-0.142 0.048-0.103 0-0.174-0.059-0.218-0.168l-0.146-0.371h-0.934l-0.143 0.371c-0.042 0.111-0.113 0.168-0.217 0.168-0.062 0-0.109-0.017-0.148-0.048-0.039-0.028-0.062-0.067-0.062-0.11 0-0.022 0.01-0.059 0.024-0.097l0.816-2.104c0.027-0.085 0.097-0.124 0.201-0.124 0.102 0 0.168 0.039 0.201 0.124l0.808 2.104c0.016 0.04 0.024 0.072 0.024 0.097m-0.687-0.7-0.345-0.898-0.346 0.898h0.691"/>
			</g>
			<g fill="#8C8C8C">
				<path d="m42.532 38.44c0 0.113-0.07 0.172-0.202 0.172h-1.604c-0.186 0-0.28-0.054-0.28-0.163 0-0.099 0.095-0.155 0.28-0.155h0.551v-1.849h-0.551c-0.186 0-0.28-0.055-0.28-0.162 0-0.1 0.095-0.156 0.28-0.156h0.971v2.167h0.415v-0.601c0-0.139 0.071-0.214 0.209-0.214 0.14 0 0.211 0.072 0.211 0.214v0.747"/>
				<path d="m45.571 37.947c0 0.193-0.078 0.353-0.242 0.478-0.162 0.128-0.366 0.187-0.613 0.187h-1.228v-2.482h1.247c0.256 0 0.455 0.063 0.607 0.193 0.153 0.133 0.23 0.298 0.23 0.511 0 0.238-0.097 0.414-0.283 0.545 0.109 0.08 0.184 0.16 0.221 0.238 0.04 0.077 0.061 0.185 0.061 0.33m-0.416-1.127c0-0.25-0.154-0.374-0.458-0.374h-0.791v0.771h0.796c0.301-4e-3 0.453-0.135 0.453-0.397m0 1.09c0-0.254-0.156-0.379-0.463-0.379h-0.786v0.762h0.796c0.301 2e-3 0.453-0.129 0.453-0.383"/>
			</g>
			<g fill="#8C8C8C">
				<path d="m40.334 46.111c0 0.056-0.013 0.108-0.037 0.161l-0.799 1.568c-0.033 0.068-0.103 0.102-0.199 0.102s-0.163-0.033-0.2-0.102l-0.808-1.568c-9e-3 -0.017-0.018-0.025-0.018-0.034-0.018-0.024-0.025-0.072-0.025-0.126v-0.435c0-0.142 0.072-0.215 0.215-0.215 0.136 0 0.208 0.07 0.208 0.215v0.457l0.626 1.219 0.623-1.219v-0.461c0-0.139 0.072-0.211 0.211-0.211 0.136 0 0.208 0.068 0.208 0.211v0.439"/>
				<path d="m43.371 46.695c0 0.124-0.034 0.236-0.1 0.334l-0.428 0.648c-0.116 0.176-0.313 0.266-0.595 0.266h-0.685c-0.187 0-0.281-0.057-0.281-0.16 0-0.105 0.095-0.157 0.281-0.157h0.137v-1.849h-0.137c-0.187 0-0.281-0.054-0.281-0.162 0-0.102 0.095-0.156 0.281-0.156h0.722c0.256 0 0.445 0.095 0.566 0.28l0.413 0.64c0.072 0.107 0.107 0.209 0.107 0.316m-0.416 0.011c0-0.06-0.032-0.135-0.085-0.215l-0.398-0.61c-0.04-0.065-0.114-0.097-0.217-0.097h-0.133v1.847h0.142c0.099 0 0.175-0.03 0.216-0.095l0.414-0.643c0.042-0.069 0.061-0.125 0.061-0.187"/>
				<path d="m46.41 46.695c0 0.124-0.029 0.236-0.097 0.334l-0.43 0.648c-0.114 0.176-0.312 0.266-0.592 0.266h-0.683c-0.188 0-0.279-0.057-0.279-0.16 0-0.105 0.092-0.157 0.279-0.157h0.137v-1.849h-0.137c-0.188 0-0.279-0.054-0.279-0.162 0-0.102 0.092-0.156 0.279-0.156h0.72c0.257 0 0.443 0.095 0.565 0.28l0.414 0.64c0.073 0.107 0.103 0.209 0.103 0.316m-0.416 0.011c0-0.06-0.026-0.135-0.082-0.215l-0.398-0.61c-0.038-0.065-0.113-0.097-0.215-0.097h-0.133v1.847h0.141c0.102 0 0.176-0.03 0.218-0.095l0.409-0.643c0.043-0.069 0.06-0.125 0.06-0.187"/>
			</g>
			<g fill="#8C8C8C">
				<path d="m40.165 56.317c0 0.123-0.062 0.229-0.188 0.322-0.12 0.097-0.266 0.139-0.433 0.139h-0.833c-0.178 0-0.331-0.046-0.451-0.139-0.119-0.093-0.178-0.205-0.178-0.342v-0.872c0-0.139 0.067-0.274 0.192-0.402l0.556-0.546c0.124-0.124 0.299-0.181 0.51-0.181h0.538c0.184 0 0.281 0.055 0.281 0.155 0 0.104-0.096 0.162-0.281 0.162h-0.484c-0.084 0-0.137 4e-3 -0.165 0.017-0.022 0.011-0.062 0.035-0.112 0.088l-0.521 0.51c-0.068 0.066-0.103 0.148-0.103 0.243v0.808c0 0.125 0.084 0.188 0.247 0.188h0.77c0.157 0 0.233-0.063 0.233-0.188v-0.303h-0.351c-0.18 0-0.278-0.053-0.278-0.155 0-0.107 0.094-0.16 0.278-0.16h0.768l5e-3 0.656"/>
				<path d="m43.201 56.778h-0.555l-1.109-1.918v1.702c0 0.141-0.068 0.212-0.206 0.212-0.139 0-0.209-0.071-0.209-0.212v-2.268h0.55l1.108 1.935v-1.728c0-0.136 0.072-0.212 0.21-0.212 0.144 0 0.211 0.068 0.211 0.212v2.277"/>
				<path d="m46.238 55.525c0 0.127-0.033 0.237-0.099 0.333l-0.428 0.648c-0.116 0.175-0.312 0.266-0.594 0.266h-0.681c-0.189 0-0.286-0.059-0.286-0.164 0-0.102 0.093-0.158 0.286-0.158h0.132v-1.845h-0.132c-0.189 0-0.286-0.059-0.286-0.159 0-0.104 0.093-0.158 0.286-0.158h0.721c0.252 0 0.439 0.095 0.564 0.278l0.41 0.64c0.07 0.112 0.107 0.215 0.107 0.319m-0.417 0.012c0-0.06-0.027-0.137-0.087-0.218l-0.396-0.606c-0.04-0.065-0.114-0.098-0.216-0.098h-0.131v1.85h0.14c0.102 0 0.174-0.033 0.218-0.099l0.411-0.641c0.04-0.067 0.061-0.128 0.061-0.188"/>
			</g>
			<g fill="#8E8E8E">
				<path d="m10.183 43.021c0 0.172-0.018 0.346-0.051 0.521-0.034 0.175-0.084 0.333-0.15 0.478-0.064 0.143-0.144 0.262-0.235 0.356-0.092 0.095-0.197 0.146-0.314 0.156h-2.556c-0.058 0-0.106-0.032-0.146-0.097-0.041-0.066-0.06-0.145-0.06-0.235v-2.355c0-0.091 0.02-0.17 0.06-0.235 0.041-0.065 0.089-0.097 0.146-0.097h2.513c0.124 0 0.234 0.046 0.333 0.139s0.182 0.211 0.25 0.357c0.07 0.145 0.122 0.307 0.157 0.484 0.035 0.179 0.053 0.352 0.053 0.528zm-3.099-0.845v1.69h2.215c0.097 0 0.178-0.029 0.241-0.085 0.064-0.06 0.114-0.129 0.148-0.213 0.036-0.083 0.061-0.173 0.073-0.272 0.013-0.099 0.02-0.191 0.02-0.275 0-0.082-6e-3 -0.172-0.02-0.272-0.012-0.1-0.038-0.19-0.073-0.272-0.035-0.084-0.084-0.153-0.148-0.212-0.063-0.059-0.145-0.087-0.241-0.087l-2.215-2e-3z"/>
				<path d="m13.985 44.199c0 0.091-0.021 0.17-0.061 0.235s-0.09 0.097-0.146 0.097c-0.028 0-0.055-0.011-0.077-0.026-0.025-0.02-0.045-0.043-0.066-0.07-0.017-0.027-0.028-0.052-0.037-0.07-0.12-0.236-0.239-0.421-0.364-0.554-0.125-0.134-0.257-0.235-0.395-0.305s-0.284-0.113-0.438-0.129c-0.156-0.016-0.319-0.024-0.495-0.024h-0.879v0.846c0 0.091-0.021 0.169-0.062 0.235-0.042 0.064-0.09 0.097-0.145 0.097-0.058 0-0.106-0.032-0.146-0.097-0.041-0.066-0.06-0.145-0.06-0.235v-1.78c0-0.139 0.016-0.265 0.048-0.373 0.03-0.112 0.071-0.207 0.12-0.284 0.048-0.079 0.104-0.14 0.169-0.185 0.063-0.043 0.125-0.065 0.188-0.065h2.25c0.081 0 0.158 0.024 0.229 0.071 0.071 0.05 0.135 0.116 0.189 0.199 0.055 0.083 0.098 0.18 0.13 0.29 0.03 0.112 0.047 0.23 0.047 0.361 0 0.093-0.021 0.17-0.061 0.236-0.04 0.063-0.09 0.098-0.146 0.098-0.059 0-0.107-0.034-0.146-0.098-0.041-0.066-0.061-0.144-0.061-0.236 0-0.07-0.015-0.126-0.045-0.174-0.031-0.045-0.065-0.072-0.106-0.082h-2.259c-0.039 0-0.069 0.017-0.091 0.045-0.023 0.03-0.037 0.066-0.043 0.109v0.358h0.879c0.254 0 0.481 0.024 0.687 0.071 0.204 0.046 0.389 0.12 0.552 0.224 0.167 0.104 0.313 0.24 0.444 0.408 0.131 0.17 0.249 0.376 0.353 0.62 0.027 0.059 0.044 0.123 0.044 0.187z"/>
				<path d="m17.134 41.635c0.043-0.082 0.096-0.123 0.16-0.123 0.059 0 0.107 0.031 0.146 0.098 0.04 0.063 0.062 0.143 0.062 0.234 0 0.083-0.016 0.151-0.043 0.201l-5e-3 7e-3 -1.042 2.259c-0.052 0.106-0.118 0.191-0.196 0.26-0.079 0.067-0.165 0.1-0.257 0.1-0.085 0-0.168-0.028-0.243-0.09-0.076-0.06-0.14-0.143-0.192-0.249l-1.047-2.251c-0.019-0.031-0.031-0.069-0.042-0.107-0.013-0.04-0.018-0.081-0.018-0.128 0-0.091 0.02-0.17 0.061-0.235 0.04-0.065 0.089-0.097 0.147-0.097 0.068 0 0.122 0.044 0.163 0.131l1.004 2.153c0.021 0.038 0.045 0.078 0.076 0.121 0.029 0.044 0.061 0.065 0.092 0.065s0.063-0.021 0.093-0.065c0.029-0.043 0.054-0.083 0.071-0.121l1.01-2.163z"/>
				<path d="m18.511 44.531c-0.08 0-0.156-0.024-0.226-0.072-0.07-0.049-0.133-0.114-0.186-0.198-0.053-0.083-0.095-0.18-0.124-0.293-0.029-0.115-0.045-0.234-0.045-0.365 0-0.115 0.013-0.221 0.036-0.321 0.024-0.099 0.057-0.188 0.097-0.265-0.04-0.079-0.072-0.168-0.097-0.268-0.023-0.099-0.036-0.204-0.036-0.314 0-0.128 0.016-0.248 0.045-0.36 0.029-0.11 0.072-0.208 0.124-0.291 0.053-0.082 0.116-0.148 0.186-0.198 0.071-0.048 0.146-0.072 0.226-0.072h2.208c0.08 0 0.156 0.024 0.226 0.072 0.069 0.05 0.132 0.116 0.185 0.198 0.054 0.083 0.096 0.181 0.125 0.294 0.029 0.114 0.046 0.234 0.046 0.364 0 0.115-0.014 0.223-0.037 0.322-0.024 0.1-0.056 0.188-0.097 0.264 0.041 0.079 0.072 0.17 0.097 0.269 0.023 0.097 0.037 0.203 0.037 0.313 0 0.129-0.017 0.25-0.046 0.36-0.029 0.111-0.072 0.208-0.125 0.291-0.053 0.084-0.115 0.149-0.185 0.198-0.069 0.048-0.146 0.072-0.226 0.072h-2.208zm-0.017-2.355c-0.043 0-0.08 0.024-0.114 0.076-0.033 0.05-0.049 0.11-0.049 0.181 0 0.072 0.016 0.134 0.049 0.183s0.071 0.072 0.114 0.072h2.245c0.044 0 0.082-0.022 0.113-0.068 0.032-0.047 0.047-0.106 0.047-0.18 0-0.07-0.017-0.131-0.049-0.186-0.032-0.052-0.071-0.078-0.114-0.078h-2.242zm2.243 1.69c0.043 0 0.081-0.024 0.114-0.076 0.033-0.05 0.05-0.11 0.05-0.18 0-0.073-0.018-0.134-0.05-0.183-0.032-0.048-0.071-0.073-0.114-0.073h-2.247c-0.042 0-0.078 0.025-0.111 0.07-0.031 0.046-0.047 0.106-0.047 0.18 0 0.07 0.016 0.131 0.049 0.183 0.033 0.055 0.072 0.08 0.114 0.08l2.242-1e-3z"/>
				<path d="m22.313 44.531c-0.08 0-0.155-0.024-0.226-0.072-0.071-0.049-0.133-0.114-0.186-0.198-0.054-0.083-0.095-0.18-0.124-0.293-0.029-0.115-0.046-0.234-0.046-0.365 0-0.115 0.013-0.221 0.036-0.321 0.025-0.099 0.058-0.188 0.098-0.265-0.04-0.079-0.072-0.168-0.098-0.268-0.023-0.099-0.036-0.204-0.036-0.314 0-0.128 0.017-0.248 0.046-0.36 0.029-0.11 0.072-0.208 0.124-0.291 0.053-0.082 0.116-0.148 0.186-0.198 0.071-0.048 0.146-0.072 0.226-0.072h2.207c0.08 0 0.157 0.024 0.226 0.072 0.07 0.05 0.132 0.116 0.185 0.198 0.055 0.083 0.097 0.181 0.126 0.294 0.029 0.114 0.046 0.234 0.046 0.364 0 0.115-0.014 0.223-0.037 0.322-0.025 0.1-0.057 0.188-0.097 0.264 0.04 0.079 0.071 0.17 0.097 0.269 0.023 0.097 0.037 0.203 0.037 0.313 0 0.129-0.017 0.25-0.046 0.36-0.029 0.111-0.072 0.208-0.126 0.291-0.053 0.084-0.114 0.149-0.185 0.198-0.068 0.048-0.146 0.072-0.226 0.072h-2.207zm-0.018-2.355c-0.041 0-0.079 0.024-0.113 0.076-0.034 0.05-0.05 0.11-0.05 0.181 0 0.072 0.016 0.134 0.05 0.183 0.032 0.049 0.072 0.072 0.113 0.072h2.246c0.044 0 0.081-0.022 0.112-0.068 0.033-0.047 0.048-0.106 0.048-0.18 0-0.07-0.017-0.131-0.05-0.186-0.031-0.052-0.071-0.078-0.113-0.078h-2.243zm2.244 1.69c0.043 0 0.081-0.024 0.113-0.076 0.034-0.05 0.05-0.11 0.05-0.18 0-0.073-0.017-0.134-0.05-0.183-0.031-0.048-0.07-0.073-0.113-0.073h-2.247c-0.043 0-0.079 0.025-0.111 0.07-0.032 0.046-0.048 0.106-0.048 0.18 0 0.07 0.016 0.131 0.05 0.183 0.033 0.055 0.072 0.08 0.114 0.08l2.242-1e-3z"/>
				<path d="m28.696 43.866c0.059 0 0.107 0.032 0.147 0.098 0.04 0.064 0.062 0.143 0.062 0.235 0 0.091-0.021 0.17-0.062 0.235s-0.089 0.097-0.147 0.097h-2.957c-0.058 0-0.107-0.031-0.146-0.097-0.041-0.065-0.061-0.145-0.061-0.235v-0.664c0-0.117 0.014-0.226 0.038-0.329 0.026-0.104 0.063-0.194 0.11-0.271 0.048-0.074 0.103-0.137 0.163-0.18 0.063-0.044 0.131-0.066 0.206-0.066h2.289c0.043 0 0.081-0.024 0.114-0.073s0.05-0.11 0.05-0.184c0-0.07-0.018-0.129-0.05-0.181-0.032-0.05-0.071-0.075-0.114-0.075h-2.6c-0.058 0-0.107-0.03-0.146-0.097-0.041-0.064-0.061-0.143-0.061-0.235 0-0.091 0.02-0.17 0.061-0.235 0.039-0.065 0.089-0.097 0.146-0.097h2.582c0.08 0 0.156 0.024 0.226 0.072 0.069 0.05 0.132 0.116 0.185 0.198 0.054 0.083 0.096 0.181 0.125 0.291 0.029 0.112 0.046 0.229 0.046 0.36s-0.017 0.25-0.046 0.361c-0.029 0.112-0.072 0.209-0.125 0.29-0.053 0.084-0.115 0.15-0.185 0.197-0.07 0.05-0.146 0.073-0.226 0.073h-2.246c-0.037 0.01-0.068 0.036-0.095 0.084-0.025 0.045-0.039 0.104-0.039 0.171v0.258h2.755v-1e-3z"/>
				<path d="m29.752 42.176v0.34c0 0.047 0.013 0.086 0.037 0.12 0.024 0.036 0.056 0.052 0.097 0.052h2.267c0.081 0 0.157 0.024 0.227 0.073 0.071 0.048 0.132 0.113 0.183 0.197 0.053 0.083 0.094 0.182 0.122 0.295 0.03 0.113 0.045 0.234 0.045 0.362 0 0.13-0.015 0.25-0.045 0.361-0.028 0.111-0.071 0.208-0.122 0.291-0.051 0.084-0.113 0.146-0.183 0.194-0.07 0.045-0.146 0.069-0.227 0.069h-2.611c-0.058 0-0.107-0.031-0.146-0.097-0.041-0.065-0.062-0.145-0.062-0.235 0-0.093 0.021-0.171 0.062-0.235 0.039-0.065 0.089-0.098 0.146-0.098h2.633c0.043 0 0.08-0.024 0.113-0.072 0.032-0.049 0.047-0.107 0.047-0.177 0-0.073-0.016-0.135-0.047-0.186-0.032-0.051-0.07-0.077-0.113-0.077h-2.31c-0.065 0-0.127-0.021-0.19-0.065-0.064-0.043-0.119-0.105-0.169-0.183-0.049-0.079-0.089-0.174-0.12-0.284-0.031-0.111-0.047-0.236-0.047-0.374v-0.624c0-0.123 0.022-0.208 0.066-0.248 0.045-0.043 0.116-0.063 0.211-0.063h2.778c0.059 0 0.108 0.031 0.146 0.097 0.041 0.065 0.063 0.145 0.063 0.235 0 0.093-0.021 0.171-0.063 0.235-0.038 0.066-0.088 0.097-0.146 0.097h-2.642z"/>
			</g>
			<ellipse cx="-2.923" cy="-3.011" rx="2.107" ry="2.118" fill="#8E8E8E"/>
			<path id="connector130" d="m-1.051-3.012c0-1.071-0.806-1.88-1.872-1.88-1.068 0-1.874 0.809-1.874 1.88 0 1.073 0.806 1.881 1.874 1.881 1.066 1e-3 1.872-0.809 1.872-1.881zm0.471 0c0 1.268-1.083 2.355-2.343 2.355-1.264 0-2.347-1.087-2.347-2.355s1.083-2.355 2.347-2.355c1.26 0 2.343 1.088 2.343 2.355z"/>
			<ellipse cx="-2.923" cy="5.986" rx="2.107" ry="2.117" fill="#8E8E8E"/>
			<path id="connector131" d="m-1.051 5.986c0-1.071-0.806-1.881-1.872-1.881-1.068 0-1.874 0.81-1.874 1.881s0.806 1.881 1.874 1.881c1.066 0 1.872-0.809 1.872-1.881zm0.471 0c0 1.269-1.083 2.355-2.343 2.355-1.264 0-2.347-1.086-2.347-2.355 0-1.268 1.083-2.354 2.347-2.354 1.26-1e-3 2.343 1.086 2.343 2.354z"/>
			<ellipse cx="-2.923" cy="14.984" rx="2.107" ry="2.117" fill="#8E8E8E"/>
			<path id="connector132" d="m-1.051 14.984c0-1.071-0.806-1.881-1.872-1.881-1.068 0-1.874 0.81-1.874 1.881s0.806 1.88 1.874 1.88c1.066 0 1.872-0.808 1.872-1.88zm0.471 0c0 1.268-1.083 2.355-2.343 2.355-1.264 0-2.347-1.087-2.347-2.355s1.083-2.355 2.347-2.355c1.26 0 2.343 1.087 2.343 2.355z"/>
			<ellipse cx="-2.923" cy="23.982" rx="2.107" ry="2.117" fill="#8E8E8E"/>
			<path id="connector133" d="m-1.051 23.982c0-1.071-0.806-1.881-1.872-1.881-1.068 0-1.874 0.811-1.874 1.881 0 1.071 0.806 1.881 1.874 1.881 1.066 0 1.872-0.809 1.872-1.881zm0.471 0c0 1.268-1.083 2.355-2.343 2.355-1.264 0-2.347-1.087-2.347-2.355s1.083-2.355 2.347-2.355c1.26 0 2.343 1.088 2.343 2.355z"/>
			<ellipse cx="-2.923" cy="32.98" rx="2.107" ry="2.119" fill="#8E8E8E"/>
			<path id="connector134" d="m-1.051 32.979c0-1.069-0.806-1.88-1.872-1.88-1.068 0-1.874 0.81-1.874 1.88 0 1.075 0.806 1.884 1.874 1.884 1.066-1e-3 1.872-0.812 1.872-1.884zm0.471 0c0 1.271-1.083 2.356-2.343 2.356-1.264 0-2.347-1.086-2.347-2.356 0-1.267 1.083-2.354 2.347-2.354 1.26 0 2.343 1.087 2.343 2.354z"/>
			<ellipse cx="-2.923" cy="41.978" rx="2.107" ry="2.118" fill="#8E8E8E"/>
			<path id="connector135" d="m-1.051 41.979c0-1.071-0.806-1.882-1.872-1.882-1.068 0-1.874 0.811-1.874 1.882s0.806 1.881 1.874 1.881c1.066 0 1.872-0.81 1.872-1.881zm0.471 0c0 1.267-1.083 2.354-2.343 2.354-1.264 0-2.347-1.088-2.347-2.354 0-1.271 1.083-2.355 2.347-2.355 1.26-1e-3 2.343 1.087 2.343 2.355z"/>
			<ellipse cx="-2.923" cy="50.977" rx="2.107" ry="2.119" fill="#8E8E8E"/>
			<path id="connector136" d="m-1.051 50.977c0-1.071-0.806-1.881-1.872-1.881-1.068 0-1.874 0.808-1.874 1.881 0 1.071 0.806 1.882 1.874 1.882 1.066 0 1.872-0.811 1.872-1.882zm0.471 0c0 1.269-1.083 2.355-2.343 2.355-1.264 0-2.347-1.087-2.347-2.355s1.083-2.354 2.347-2.354c1.26-1e-3 2.343 1.086 2.343 2.354z"/>
			<ellipse cx="-2.923" cy="59.975" rx="2.107" ry="2.117" fill="#8E8E8E"/>
			<path id="connector137" d="m-1.051 59.975c0-1.072-0.806-1.883-1.872-1.883-1.068 0-1.874 0.811-1.874 1.883 0 1.071 0.806 1.881 1.874 1.881 1.066 0 1.872-0.81 1.872-1.881zm0.471 0c0 1.268-1.083 2.354-2.343 2.354-1.264 0-2.347-1.087-2.347-2.354 0-1.269 1.083-2.354 2.347-2.354 1.26-1e-3 2.343 1.085 2.343 2.354z"/>
			<ellipse cx="41.862" cy="59.975" rx="2.107" ry="2.117" fill="#8E8E8E"/>
			<path id="connector147" d="m43.734 59.975c0-1.072-0.805-1.883-1.872-1.883-1.068 0-1.873 0.811-1.873 1.883s0.805 1.881 1.873 1.881c1.067 0 1.872-0.81 1.872-1.881zm0.472 0c0 1.268-1.083 2.354-2.344 2.354-1.264 0-2.346-1.087-2.346-2.354 0-1.269 1.082-2.354 2.346-2.354 1.261-1e-3 2.344 1.085 2.344 2.354z"/>
			<ellipse cx="41.862" cy="50.977" rx="2.107" ry="2.119" fill="#8E8E8E"/>
			<path id="connector146" d="m43.734 50.977c0-1.071-0.805-1.881-1.872-1.881-1.068 0-1.873 0.808-1.873 1.881 0 1.071 0.805 1.882 1.873 1.882 1.067 0 1.872-0.811 1.872-1.882zm0.472 0c0 1.269-1.083 2.355-2.344 2.355-1.264 0-2.346-1.087-2.346-2.355s1.082-2.354 2.346-2.354c1.261-1e-3 2.344 1.086 2.344 2.354z"/>
			<ellipse cx="41.862" cy="41.978" rx="2.107" ry="2.118" fill="#8E8E8E"/>
			<path id="connector145" d="m43.734 41.979c0-1.071-0.805-1.882-1.872-1.882-1.068 0-1.873 0.809-1.873 1.882 0 1.072 0.805 1.881 1.873 1.881 1.067 0 1.872-0.81 1.872-1.881zm0.472 0c0 1.267-1.083 2.354-2.344 2.354-1.264 0-2.346-1.088-2.346-2.354 0-1.271 1.082-2.355 2.346-2.355 1.261-1e-3 2.344 1.087 2.344 2.355z"/>
			<ellipse cx="41.862" cy="32.98" rx="2.107" ry="2.119" fill="#8E8E8E"/>
			<path id="connector144" d="m43.734 32.979c0-1.069-0.805-1.88-1.872-1.88-1.068 0-1.873 0.81-1.873 1.88 0 1.075 0.805 1.884 1.873 1.884 1.067-1e-3 1.872-0.812 1.872-1.884zm0.472 0c0 1.271-1.083 2.356-2.344 2.356-1.264 0-2.346-1.086-2.346-2.356 0-1.267 1.082-2.354 2.346-2.354 1.261 0 2.344 1.087 2.344 2.354z"/>
			<ellipse cx="41.862" cy="23.982" rx="2.107" ry="2.117" fill="#8E8E8E"/>
			<path id="connector143" d="m43.734 23.982c0-1.071-0.805-1.881-1.872-1.881-1.068 0-1.873 0.811-1.873 1.881 0 1.071 0.805 1.881 1.873 1.881 1.067 0 1.872-0.809 1.872-1.881zm0.472 0c0 1.268-1.083 2.355-2.344 2.355-1.264 0-2.346-1.087-2.346-2.355s1.082-2.355 2.346-2.355c1.261 0 2.344 1.088 2.344 2.355z"/>
			<ellipse cx="41.862" cy="14.984" rx="2.107" ry="2.117" fill="#8E8E8E"/>
			<path id="connector142" d="m43.734 14.984c0-1.071-0.805-1.881-1.872-1.881-1.068 0-1.873 0.81-1.873 1.881s0.805 1.88 1.873 1.88c1.067 0 1.872-0.808 1.872-1.88zm0.472 0c0 1.268-1.083 2.355-2.344 2.355-1.264 0-2.346-1.087-2.346-2.355s1.082-2.355 2.346-2.355c1.261 0 2.344 1.087 2.344 2.355z"/>
			<ellipse cx="41.862" cy="5.986" rx="2.107" ry="2.117" fill="#8E8E8E"/>
			<path id="connector141" d="m43.734 5.986c0-1.071-0.805-1.881-1.872-1.881-1.068 0-1.873 0.81-1.873 1.881s0.805 1.881 1.873 1.881c1.067 0 1.872-0.809 1.872-1.881zm0.472 0c0 1.269-1.083 2.355-2.344 2.355-1.264 0-2.346-1.086-2.346-2.355 0-1.268 1.082-2.354 2.346-2.354 1.261-1e-3 2.344 1.086 2.344 2.354z"/>
			<ellipse cx="41.862" cy="-3.011" rx="2.107" ry="2.118" fill="#8E8E8E"/>
			<path id="connector140" d="m43.734-3.012c0-1.071-0.805-1.88-1.872-1.88-1.068 0-1.873 0.809-1.873 1.88 0 1.073 0.805 1.881 1.873 1.881 1.067 1e-3 1.872-0.809 1.872-1.881zm0.472 0c0 1.268-1.083 2.355-2.344 2.355-1.264 0-2.346-1.087-2.346-2.355s1.082-2.355 2.346-2.355c1.261 0 2.344 1.088 2.344 2.355z"/>
		</g>
	</g>
</svg>
