<?xml version="1.0" encoding="UTF-8"?>
<svg width="13.2mm" height="18.08mm" version="1.1" viewBox="0 0 38 52.08" xmlns="http://www.w3.org/2000/svg">
  <g id="breadboard">
    <g transform="translate(7.5)" fill="none">
      <g  stroke="#8C8C8C" stroke-linecap="round" stroke-width="2.16">
        <line id="connector1leg" x1="11.81" x2="11.81" y1="39" y2="68"/>
        <line id="connector0leg" x1="4.631" x2="4.631" y1="39" y2="68"/>
        <line id="connector4leg" x1="18.972" x2="18.972" y1="39" y2="68"/>
      </g>
      <rect id="connector1pin" x="10.646" y="38" width="2.296" height="2.08"/>
      <rect id="connector4pin" x="17.892" y="38" width="2.16" height="1.813"/>
      <rect id="connector0pin" x="3.512" y="38" width="2.16" height="2.07"/>
    </g>
    <g transform="translate(0) scale(1.6)">
      <g fill="#8C8C8C" stroke-width=".47635">
        <rect x="6.2" y="18" width="2.6879" height="7"/>
        <rect x="10.7" y="18" width="2.6879" height="7"/>
        <rect x="15.3" y="18" width="2.6879" height="7"/>
      </g>
      <g transform="translate(0 .029412)">
        <path d="m19.133 13.177v-8.177c0 2.2-2.6 5-7.2 5-4.4 0-7.2-2.6-7.2-5v16.016c1.431 1.674 4.084 2.789 7.115 2.789 4.687 0 8.479-2.658 8.479-5.938v-1.547c5e-3 -1.156-0.478-2.234-1.295-3.146z" fill="#ccc" opacity=".8"/>
        <path d="m19.133 13.177v3.146c0 2.777-3.217 5.029-7.185 5.029-3.966 0-7.184-2.252-7.184-5.029v4.695c1.5 1.672 4.153 2.789 7.184 2.789 4.687 0 8.481-2.658 8.481-5.938v-1.546c4e-3 -1.156-0.479-2.234-1.296-3.146z" fill="#d1d1d1" opacity=".9"/>
        <path d="m19.133 13.177v3.146c0 2.777-3.217 5.029-7.185 5.029-3.966 0-7.184-2.252-7.184-5.029v3.148c1.5 1.674 4.153 2.789 7.184 2.789 4.687 0 8.481-2.658 8.481-5.938 4e-3 -1.155-0.479-2.233-1.296-3.145z" opacity=".24"/>
        <ellipse cx="11.95" cy="16.323" rx="7.2" ry="5" fill="#ccc" opacity=".5"/>
        <g fill="#999">
          <polygon points="16.133 9.154 12.981 12.519 15.978 12.519 15.978 13.269 15.978 16.325 16.903 16.325 16.903 8.638 15.692 8.638"/>
          <polygon transform="matrix(-1,0,0,1,24,0)" points="16.133 9.154 12.981 12.519 15.978 12.519 15.978 13.269 15.978 16.325 16.903 16.325 16.903 8.638 15.692 8.638"/>
          <path d="m12.956 9.1338-0.46711 0.52502-1.1114-0.037916-0.44663-0.49145-2.2584-0.0284 2.7885 3.078-0.02284 2.9827-0.01023 1.3176 1.0722-0.03027 0.03257-4.2339 2.8616-3.1204z"/>
        </g>
        <path d="m15.295 3.802 1.459-0.277c-0.849-1.149-2.108-1.986-3.588-2.271l0.252 1.098c0.776 0.273 1.429 0.79 1.877 1.45z" fill="#fff" opacity=".6"/>
        <path d="m15.987 20.482c-0.264 0.125-0.537 0.232-0.821 0.334-0.06 0.021-0.119 0.041-0.181 0.062-0.569 0.188-1.185 0.321-1.821 0.397-0.076 0.011-0.154 0.019-0.229 0.025-0.322 0.029-0.647 0.053-0.983 0.053-0.148 0-0.312-0.01-0.478-0.024-1.223-0.058-2.362-0.316-3.344-0.75v-13.394l-2.056 0.012v12.053c-8e-3 -0.049-0.272-0.312-0.444-0.533l-0.312 0.698c1.426 1.503 3.861 2.497 6.632 2.497 1.703 0 3.277-0.379 4.572-1.019l-0.531-0.412z" fill="#fff" opacity=".6"/>
      </g>
      <ellipse cx="11.93" cy="5" rx="7.2" ry="5" fill="#ccc" opacity=".5"/>
      <path d="m16 7 .503.415c-1.843 1.132-3.509 1.22-5.423.941-1.923-.391-3.255-.981-4.818-2.736l.774-1.052c.566.638 1.1 1.148 1.794 1.507 1.069.622 1.986.989 3.462 1.116 1.18-.007 1.698-.095 3.237-.574z" fill="#fff" opacity=".6"/>
    </g>
  </g>
</svg>
