<svg width="14mm" height="13.5mm" viewBox="0 0 40 39.2" fill="none" xmlns="http://www.w3.org/2000/svg">
<g id="breadboard">
<path id="connector1pin" d="M12.7199 34.56H12.5899C11.6676 34.56 10.9199 35.3077 10.9199 36.23V37.44C10.9199 38.3623 11.6676 39.11 12.5899 39.11H12.7199C13.6422 39.11 14.3899 38.3623 14.3899 37.44V36.23C14.3899 35.3077 13.6422 34.56 12.7199 34.56Z" fill="#CCCCCC"/>
<rect id="connector1terminal" x="12.72" y="39" width="0.1" height="0.1"/>
<rect id="connector2terminal" x="12.72" y="0.2" width="0.1" height="0.1"/>
<rect id="connector3terminal" x="27.12" y="39" width="0.1" height="0.1"/>
<rect id="connector4terminal" x="27.12" y="0.2" width="0.1" height="0.1"/>
<path id="connector2pin" d="M12.7199 0H12.5899C11.6676 0 10.9199 0.747684 10.9199 1.67V2.88C10.9199 3.80232 11.6676 4.55 12.5899 4.55H12.7199C13.6422 4.55 14.3899 3.80232 14.3899 2.88V1.67C14.3899 0.747684 13.6422 0 12.7199 0Z" fill="#CCCCCC"/>
<path id="connector3pin" d="M27.1201 34.56H26.9901C26.0678 34.56 25.3201 35.3077 25.3201 36.23V37.44C25.3201 38.3623 26.0678 39.11 26.9901 39.11H27.1201C28.0424 39.11 28.7901 38.3623 28.7901 37.44V36.23C28.7901 35.3077 28.0424 34.56 27.1201 34.56Z" fill="#CCCCCC"/>
<path id="connector4pin" d="M27.1201 0H26.9901C26.0678 0 25.3201 0.747684 25.3201 1.67V2.88C25.3201 3.80232 26.0678 4.55 26.9901 4.55H27.1201C28.0424 4.55 28.7901 3.80232 28.7901 2.88V1.67C28.7901 0.747684 28.0424 0 27.1201 0Z" fill="#CCCCCC"/>
<path d="M37.02 5.63L34.03 2.64H5.98L3 5.63V33.67L5.98 36.66H34.03L37.02 33.67V5.63Z" fill="black"/>
<path d="M32.38 4.87C33.71 4.87 34.79 5.95 34.79 7.28V32.03C34.79 33.36 33.71 34.44 32.38 34.44H7.62997C6.29997 34.44 5.21997 33.36 5.21997 32.03V7.27C5.21997 5.94 6.29997 4.86 7.62997 4.86H32.38V4.87Z" fill="#B6B6B6"/>
<path d="M9.52997 32.69C10.9438 32.69 12.09 31.5439 12.09 30.13C12.09 28.7162 10.9438 27.57 9.52997 27.57C8.11612 27.57 6.96997 28.7162 6.96997 30.13C6.96997 31.5439 8.11612 32.69 9.52997 32.69Z" fill="black"/>
<path d="M9.58002 11.66C10.9939 11.66 12.14 10.5138 12.14 9.09999C12.14 7.68614 10.9939 6.53999 9.58002 6.53999C8.16617 6.53999 7.02002 7.68614 7.02002 9.09999C7.02002 10.5138 8.16617 11.66 9.58002 11.66Z" fill="black"/>
<path d="M30.6 11.7C32.0139 11.7 33.16 10.5539 33.16 9.14C33.16 7.72615 32.0139 6.58 30.6 6.58C29.1862 6.58 28.04 7.72615 28.04 9.14C28.04 10.5539 29.1862 11.7 30.6 11.7Z" fill="black"/>
<path d="M30.56 32.73C31.9738 32.73 33.12 31.5838 33.12 30.17C33.12 28.7562 31.9738 27.61 30.56 27.61C29.1462 27.61 28 28.7562 28 30.17C28 31.5838 29.1462 32.73 30.56 32.73Z" fill="black"/>
<path opacity="0.5" d="M9.40005 30.46C9.28005 30.41 9.19005 30.32 9.17005 30.18L7.55005 30.43C7.57005 30.53 7.55005 30.63 7.58005 30.72C7.76005 31.32 8.21005 31.76 8.78005 32L9.41005 30.45L9.40005 30.46Z" fill="white"/>
<path opacity="0.5" d="M9.44009 9.43C9.32009 9.38 9.22009 9.29 9.20009 9.16L7.59009 9.41C7.61009 9.51 7.59009 9.61 7.62009 9.71C7.80009 10.3 8.25009 10.75 8.82009 10.98L9.45009 9.44L9.44009 9.43Z" fill="white"/>
<path opacity="0.5" d="M30.4701 9.48001C30.3501 9.43001 30.2501 9.34001 30.2301 9.21001L28.6201 9.46001C28.6401 9.56001 28.6201 9.66001 28.6501 9.75001H28.6401C28.8201 10.35 29.2701 10.8 29.8401 11.02L30.4701 9.48001Z" fill="white"/>
<path opacity="0.5" d="M30.4201 30.51C30.3001 30.46 30.2101 30.37 30.1801 30.23L28.5701 30.48C28.5901 30.58 28.5701 30.68 28.6001 30.77C28.7801 31.37 29.2301 31.81 29.8001 32.04L30.4301 30.49L30.4201 30.51Z" fill="white"/>
<g transform="translate(0 -1.2)">
<rect id="connector5terminal" x="1" y="20.4" width="0.1" height="0.1"/>
<rect id="connector6terminal" x="39" y="20.4" width="0.1" height="0.1"/>
<path id="connector5pin" d="M0.399902 22.82L0.399902 18H5.2199V22.82H0.399902Z" fill="#B6B6B6"/>
<path  d="M1.8999 20.49C1.8999 20.4348 1.94467 20.39 1.9999 20.39L3.9999 20.39C4.05513 20.39 4.0999 20.4348 4.0999 20.49C4.0999 20.5452 4.05513 20.59 3.9999 20.59L1.9999 20.59C1.94467 20.59 1.8999 20.5452 1.8999 20.49Z" fill="#807F7F"/>
<path id="connector6pin" d="M39.6101 22.82V18H34.7901V22.82H39.6101Z" fill="#B6B6B6"/>
<path  d="M37.9001 19.5C37.9001 19.4448 37.8553 19.4 37.8 19.4C37.7448 19.4 37.7 19.4448 37.7 19.5V20.4H36.8C36.7447 20.4 36.7 20.4448 36.7 20.5C36.7 20.5552 36.7447 20.6 36.8 20.6H37.7V21.5C37.7 21.5552 37.7448 21.6 37.8 21.6C37.8553 21.6 37.9001 21.5552 37.9001 21.5V20.6H38.8001C38.8554 20.6 38.9001 20.5552 38.9001 20.5C38.9001 20.4448 38.8554 20.4 38.8001 20.4H37.9001V19.5Z" fill="#807F7F"/>
</g>
<path fill-rule="evenodd" clip-rule="evenodd" d="M8.6679 21.7008V22.2H7V18.7083H8.6679V19.0854H11.9266L18.3116 17.2H21V18.7083H19.3197L18.3116 21.3478L8.6679 21.7008ZM16.9674 19.5756C16.9674 19.9921 16.6665 20.3297 16.2953 20.3297C15.9241 20.3297 15.6232 19.9921 15.6232 19.5756C15.6232 19.1591 15.9241 18.8214 16.2953 18.8214C16.6665 18.8214 16.9674 19.1591 16.9674 19.5756Z" fill="#A5A1A1"/>
<path fill-rule="evenodd" clip-rule="evenodd" d="M31.3321 19.2992V18.8H33V22.2917H31.3321V21.9146H28.0734L21.6884 23.8H19V23.5L21.6884 19.6522H27.0499L31.3321 19.2992ZM23.0326 21.4244C23.0326 21.0079 23.3335 20.6703 23.7047 20.6703C24.0759 20.6703 24.3768 21.0079 24.3768 21.4244C24.3768 21.8409 24.0759 22.1786 23.7047 22.1786C23.3335 22.1786 23.0326 21.8409 23.0326 21.4244Z" fill="#A5A1A1"/>
<path opacity="0.45" d="M20.0101 28.3C24.7874 28.3 28.6601 24.4273 28.6601 19.65C28.6601 14.8727 24.7874 11 20.0101 11C15.2328 11 11.3601 14.8727 11.3601 19.65C11.3601 24.4273 15.2328 28.3 20.0101 28.3Z" fill="#FFF500" stroke="white" stroke-width="0.5"/>
<path opacity="0.6" d="M14.6706 21.4549C14.5838 21.0996 14.5405 20.7227 14.5405 20.3351C14.5405 20.0121 14.573 19.6891 14.638 19.3876L12.7302 19C12.6435 19.4307 12.6001 19.8829 12.6001 20.3459C12.6001 20.8304 12.6868 21.6057 12.7952 22.0579L14.6922 21.4657L14.6706 21.4549ZM13.3155 23.3715C14.4212 25.5249 16.6868 27 19.2884 27C19.7329 27 20.1773 26.9569 20.6001 26.8708L20.1773 24.9758C19.8955 25.0296 19.592 25.0619 19.2993 25.0619C17.5107 25.0619 15.9497 24.0821 15.1367 22.6285L13.3155 23.3607L13.3155 23.3715Z" fill="white"/>

</g>
</svg>