<?xml version="1.0" encoding="UTF-8"?>
<!-- Generator: Adobe Illustrator 14.0.0, SVG Export Plug-In . SVG Version: 6.00 Build 43363)  -->
<svg width="3.2817in" height=".5536in" version="1.1" viewBox="0 0 3281.7 553.6" xml:space="preserve" xmlns="http://www.w3.org/2000/svg">
  
  <g id="breadboard">
    <polyline transform="matrix(13.58 0 0 13.889 -67.572 0)" points="13.588 20.53 13.588 15.149 246.61 15.149 246.61 20.53" fill="#727272" stroke-width="1.0113"/>
    <line x1="117.21" x2="117.21" y1="247.76" y2="236.89" stroke-width="13.889"/>
    <rect x=".23626" y="202" width="116.97" height="63.33" fill="#808080" stroke-width="0"/>
    <path d="m20.056 226.06c-2.3889 9.5972 14.111 18.333 37.194 18.333 23.069 0 39.722-8.7361 37.472-18.333-2-8.5139-18.569-14.806-37.222-14.806-18.625 0-35.305 6.2917-37.444 14.806z" stroke-width="13.889"/>
    <polygon transform="matrix(13.889 0 0 13.889 -71.764 0)" points="13.588 19.065 5.167 19.065 5.167 37.843 241.45 37.843 241.45 19.065 233.03 19.065 233.03 20.481 13.588 20.481" fill="#3f3f3f"/>
    <rect x="3164.4" y="201.54" width="116.97" height="63.33" fill="#808080" stroke-width="0"/><g stroke-width="13.889">
    <path d="m3261.6 226.06c2.3889 9.5972-14.111 18.333-37.194 18.333-23.056 0-39.736-8.7361-37.458-18.333 1.9861-8.5139 18.556-14.806 37.222-14.806 18.611 0 35.292 6.2917 37.43 14.806z"/>
    <rect x="117.21" y="239.89" width="3047.2" height="15.764"/>
<g faction="resistance" faction-resistance="transform:translate(f{resistance}, 0)"
frange-resistance-start="-1810" frange-resistance-end="975"
>
    <rect x="1937.4" y="216.53" width="246.25" height="56.805" fill="#212121"/>
    <rect x="1937.4" y="210.56" width="246.25" height="54.417" fill="#333"/>
    <path d="m2107.9 159.61 1.0555-77.569-11.875-16.444 12.403-29.375-10.972-36.222h-21.889l-8.9027 148.71h-14.264l-9-148.71h-21.889l-11 36.222 12.431 29.375-11.875 16.5 0.9722 77.514c1.6806 34.125 2.1667 86.222-9.5972 86.222 0 0 17.528 7.5416 57.042 7.5416s56.917-7.5416 56.917-7.5416c-11.722 0-11.264-52.097-9.5555-86.222z" fill="#333" transform="translate(5.752, 0)"/>

    <path d="m2013.1 87.416c-0.2222 35.86 2.1667 158.42-9.5972 158.42 14.375 0 16.486-131.15 9.5972-158.42z" fill="#212121" transform="translate(14.000, 0.000)"/>
    <path d="m2107.9 87.416c0.25 34.889-2.1667 158.42 9.5555 158.42-14.361 0-16.5-131.15-9.5555-158.42z" fill="#212121"/>
</g>
</g><g fill="#8c8c8c" stroke-width="13.889">
    <rect x="2897" y="508.97" width="47.25" height="44.625"/>
    <rect x="2700.2" y="508.98" width="47.222" height="44.625"/>
    <rect x="2690.6" y="508.98" width="66.486" height="16.625"/>
    <rect x="327.56" y="508.98" width="66.486" height="16.625"/>
    <rect x="2887.4" y="508.97" width="66.486" height="16.625"/>
    <rect x="337.18" y="508.98" width="47.236" height="44.625"/>
    <rect x="524.41" y="508.98" width="66.486" height="16.625"/>
    <rect x="534.03" y="508.98" width="47.236" height="44.625"/></g><g fill="none" stroke-width="0">
    <rect id="connector0pin" x="534.03" y="508.98" width="47.236" height="44.625"/>
    <rect id="connector1pin" x="337.18" y="508.98" width="47.236" height="44.625"/>
    <rect id="connector2pin" x="2700.2" y="508.98" width="47.222" height="44.625"/>
    <rect id="connector3pin" x="2897" y="508.97" width="47.25" height="44.625"/>
  </g></g>
</svg>
