<?xml version="1.0" encoding="UTF-8"?>
<svg width="1.8902in" height=".90539in" version="1.2" viewBox="0 0 1890.2 905.39" xml:space="preserve" xmlns="http://www.w3.org/2000/svg" xmlns:cc="http://creativecommons.org/ns#" xmlns:dc="http://purl.org/dc/elements/1.1/" xmlns:rdf="http://www.w3.org/1999/02/22-rdf-syntax-ns#">
  <metadata>
    <rdf:RDF>
      <cc:Work rdf:about="">
        <dc:format>image/svg+xml</dc:format>
        <dc:type rdf:resource="http://purl.org/dc/dcmitype/StillImage"/>
        <dc:title/>
      </cc:Work>
    </rdf:RDF>
  </metadata>
  
  <desc>
    <referenceFile>RioRand_LM2596_94ce9810d0922bc731e2f315085d46ab_1_breadboard.svg</referenceFile>
  </desc>
  <g id="breadboard">
    <path d="m0 0v905.39h1889.8v-905.39z" color="#000000" fill="#1b5bb3" stroke-width="6.1416"/>
    <rect id="connector1pin" x="1.4445" y="781.83" width="120" height="120" fill="#e6e6e5" stroke-width="1.0523"/><g fill="none">  
    </g><rect id="connector2pin" x="1769.8" y=".51963" width="120" height="120" fill="#e6e6e5" stroke-width="1.0523"/>
    <circle cx="1831.5" cy="58.453" r="20" fill="#fff" stroke-width="0"/>
    <rect id="connector3pin" x="1770.2" y="784.54" width="120" height="120" fill="#e6e6e5" stroke-width="1.0523"/>
    <circle cx="1831.5" cy="845.37" r="20" fill="#fff" stroke-width="0"/>
    <path d="m264.88 15.683c-44.216 0-80.163 35.85-80.163 80 0.0313 44.117 35.947 80 80.163 80 44.25 0 79.837-35.85 79.837-80 0-44.117-35.587-80-79.837-80zm-5.5624 28.409c1.7423-0.17658 3.7734 0 5.5624 0 28.624 0 51.698 23.027 51.698 51.592 0 28.566-22.182 49.895-50.806 49.895-28.624 0-52.917-21.329-52.917-49.895 0-26.781 20.327-48.943 46.462-51.592z" fill="#e6e6e5" stroke-width="10.46"/><g fill="#383938"><g stroke-width="4.0897">
    <path d="m268.48 27.059c0 2.7014-2.1899 4.8913-4.8913 4.8913s-4.8913-2.1899-4.8913-4.8913c0-2.7013 2.1899-4.8912 4.8913-4.8912s4.8913 2.1899 4.8913 4.8912z"/>
    <path d="m268.48 162.28c0 2.7014-2.1899 4.8913-4.8913 4.8913s-4.8913-2.1899-4.8913-4.8913c0-2.7013 2.1899-4.8912 4.8913-4.8912s4.8913 2.1899 4.8913 4.8912z"/>
    <path d="m330.94 99.079c-2.7014 0-4.8913-2.1899-4.8913-4.8913 0-2.7013 2.1899-4.8912 4.8913-4.8912 2.7014 0 4.8912 2.1899 4.8912 4.8912 0 2.7014-2.1899 4.8913-4.8912 4.8913z"/>
    <path d="m195.72 99.079c-2.7014 0-4.8913-2.1899-4.8913-4.8913 0-2.7013 2.1899-4.8912 4.8913-4.8912 2.7014 0 4.8913 2.1899 4.8913 4.8912 0 2.7014-2.1899 4.8913-4.8913 4.8913z"/></g><g stroke-width="4.0897">
    <path d="m307.99 145.36c-1.9152-1.9051-1.9234-5.0021-0.0185-6.9173 1.9051-1.9152 5.002-1.9234 6.9173-0.0217 1.9152 1.9051 1.9234 5.0021 0.0185 6.9173-1.9051 1.9152-5.002 1.9234-6.9173 0.0217z"/>
    <path d="m212.13 50.002c-1.9152-1.9051-1.9234-5.0021-0.0185-6.9173 1.9051-1.9152 5.002-1.9235 6.9172-0.0217 1.9152 1.9051 1.9234 5.0021 0.0185 6.9173-1.9051 1.9152-5.0021 1.9234-6.9173 0.0218z"/>
    <path d="m212.39 138.81c1.9051-1.9152 5.0021-1.9234 6.9173-0.0217 1.9152 1.9051 1.9234 5.0021 0.0185 6.9173-1.9051 1.9152-5.0021 1.9235-6.9173 0.0217-1.9152-1.9051-1.9234-5.0021-0.0185-6.9173z"/>
    <path d="m307.75 42.941c1.9051-1.9152 5.002-1.9234 6.9173-0.0218 1.9152 1.9051 1.9234 5.0021 0.0185 6.9173-1.9051 1.9152-5.002 1.9235-6.9173 0.0217-1.9152-1.9051-1.9234-5.0021-0.0185-6.9173z"/>
    
   
    </g></g><g stroke-width="22.517"><path d="m397.77 741.39s-8.2777-18.45-7.551-24.8c0.72675-6.2642-2.6233-15.475 0-19.336l7.5156 0.51431z" fill="#22b573" fill-opacity=".7"/>
    <path d="m354.72 786.33-3e-5 -24.428 17.034-2e-4 4e-5 24.428z" fill="#fff"/>
    <path d="m371.35 786.33-4e-5 -24.428h0.86858l4e-5 24.428z" fill="#b3b3b3"/></g><g fill="#d1c690" stroke-width="22.517">
    <path d="m390.22 724.8 1.8434-27.546h-12.957l1.8434 27.546z"/>
    <path d="m386.73 723.06v0.2288c-0.62033 7.6087-1.8434 12.786-2.8715 17.105-1.418 5.9782-13.861 15.99-12.337 23.684 0.21274 0.7721-0.19497 1.7162-0.76214 1.8878-0.62044 0.2289-1.2053-0.2867-1.3826-1.1153-1.6839-8.7242 10.937-19.279 12.426-25.543 1.0636-4.2333 2.1802-9.096 2.7474-16.361 0.0708-0.8299 0.58492-1.5732 1.2053-1.4017 0.51402 0.088 0.97488 0.7432 0.97488 1.516z"/>
    <path d="m339.07 822.63-1.8257 27.631h12.94l-1.8257-27.631z"/>
    <path d="m366.03 775.35c0 0.7155-0.35456 1.4016-0.83306 1.5732-5.1758 1.8021-20.42 31.121-20.42 53.918 0 0.9444-0.46087 1.6305-1.1167 1.6305-0.60268-0.063-1.1167-0.7155-1.1167-1.6305v-0.063c0-21.424 13.649-54.09 22.068-57.008 0.62032-0.2289 1.2053 0.3433 1.3826 1.1732 0.036 0.1434 0.036 0.2578 0.036 0.3999z"/>
    <path d="m366.28 761.9s-0.0359 10.183 5.5126 10.955v-10.955z"/>
    <path d="m360.62 774.35s5.424-4.5195 6.2216-1.516c0.85082 3.0606 0.92173 5.0914-0.49625 6.8648-1.4535 1.7449-5.7253-5.3488-5.7253-5.3488z"/></g><g fill="#9d956c" stroke-width="22.517">
    <path d="m372.46 764.08c-1.4889-7.7231 10.954-17.706 12.372-23.684 1.0636-4.1476 2.2511-9.4393 2.8715-17.105h-1.0458c-0.62044 7.6087-1.8434 12.786-2.8715 17.105-1.418 5.9782-13.861 15.99-12.337 23.684z"/>
    <path d="m349.29 822.63 1.8434 27.631h-0.95712l-1.8257-27.631z"/>
    <path d="m366.17 776.98c-5.1581 1.7734-21.483 30.606-20.366 53.918h-1.0635c-1.0636-25.086 15.244-52.231 20.42-53.976z"/>
    <path d="m372.78 772.86v-10.898h-1.0104v10.898z"/>
    <path d="m367.27 779.72c1.418-1.8021 1.3471-3.7471 0.54952-6.8077l-1.0635-0.063c0.86857 3.0606 0.92173 5.1201-0.49625 6.8649z"/>
    </g><g stroke-width="22.517"><path d="m329.8 834.9-2e-4 -120.79h0.90397l1.9e-4 120.79z" fill="#fff" opacity=".5"/>
    <path d="m329.83 849.78h67.906v-152.09l-67.906-0.11313z" fill="#f2f2f2" opacity=".5"/>
    <path d="m341.37 848.32h-4.8036c-2.6765-0.5143-4.8036 0.3433-4.8036-2.8032v-138.84c0-4.8055 1.1521-5.0343 1.1521 0.34329v124.31c0 13.072 1.8612 14.817 3.4919 14.817l4.8213-0.063c3.2083 0.025 3.2083 2.231 0.14182 2.231z" fill="#fff" opacity=".55"/>
    <path d="m393.8 701.66c1.2053 0 2.4461-0.34328 2.4461 2.8032v137.79c0 4.8055-1.1521 5.0343-1.1521-0.2288 0-3.8615-0.0359-89.759-0.0359-102.66-0.018-17.019-1.2585-37.7-1.2585-37.7z" opacity=".03"/>
    <path d="m397.77 877.18v-22.054h-9.2349c-2.2157 0-3.7755-2.2883-4.7504-5.3775h-54.009v28.89h67.959" fill="#d1c690"/>
    <path d="m329.78 878.61-5e-5 -28.776h0.92173l5e-5 28.776z" fill="#fff" opacity=".5"/>
    <path d="m397.77 667.02h-67.941v30.663h61.401c0.99263-3.0034 2.5879-5.4634 4.8036-5.4634h1.7725v-23.741" fill="#d1c690"/>
    <path d="m329.8 697.69-5e-5 -30.663h0.92173l5e-5 30.663z" fill="#fff" opacity=".5"/></g><g stroke-width="31.802">


    <path d="m520.52 772.44s-23.534 12.944-31.634 11.808c-7.9907-1.1368-19.74 4.1023-24.665 0l0.65679-11.752z" fill="#22b573" fill-opacity=".7"/>
    <path d="m577.85 839.76-31.16 2e-4 -8e-5 -26.637h31.16z" fill="#fff"/>
    <path d="m577.85 813.76h-31.16v-1.3581l31.16-1e-4z" fill="#b3b3b3"/></g><g fill="#d1c690" stroke-width="31.802">
    <path d="m464.22 801.63 35.137-2.8826v-14.496l-35.137-2.8825z"/>
    <path d="m497.13 789.71h0.29192c9.7056 0.9695 16.31 2.8827 21.819 4.4904 7.6258 2.2173 20.396 21.675 30.211 19.291 0.98519-0.3332 2.1892 0.3043 2.4082 1.1921 0.29192 0.9695-0.36486 1.8849-1.423 2.162-11.129 2.6332-24.592-17.102-32.583-19.43-5.4001-1.663-11.603-3.4092-20.871-4.2961-1.0582-0.1132-2.0068-0.9142-1.7879-1.8849 0.10921-0.8035 0.94872-1.5244 1.9338-1.5244z"/>
    <path d="m659.39 846.86-35.247 2.855v14.524l35.247 2.855z"/>
    <path d="m563.83 822.08c0.91212 0 1.7879 0.5546 2.0068 1.3028 2.2987 8.0935 39.698 31.93 68.779 31.93 1.2041 0 2.0798 0.7206 2.0798 1.7462-0.0731 0.9418-0.91224 1.7462-2.0798 1.7462h-0.0732c-27.329 0-68.997-21.342-72.719-34.508-0.29192-0.9696 0.43783-1.8849 1.496-2.162 0.18237-0.05 0.3284-0.05 0.51078-0.05z"/>
    <path d="m546.68 821.69s12.989 0.05 13.975-8.6202h-13.975z"/>
    <path d="m562.55 830.54s-5.765-8.4814-1.9338-9.7287c3.9042-1.3306 6.4948-1.4414 8.757 0.7758 2.2257 2.2728-6.8231 8.9528-6.8231 8.9528z"/></g><g fill="#9d956c" stroke-width="31.802">
    <path d="m549.46 812.02c-9.8516 2.3284-22.586-17.129-30.211-19.347-5.2906-1.663-12.041-3.5201-21.819-4.4902v1.6353c9.7056 0.9696 16.31 2.8827 21.819 4.4902 7.6258 2.2175 20.396 21.675 30.211 19.291z"/>
    <path d="m659.39 846.86-35.247 2.855v-1.4691l35.247-2.8825z"/>
    <path d="m565.91 821.86c2.2622 8.0658 39.041 33.594 68.779 31.847v1.6631c-31.999 1.663-66.626-23.837-68.852-31.931z"/>
    <path d="m560.66 811.52h-13.902v1.5799h13.902z"/>
    <path d="m569.41 820.14c-2.2987-2.2175-4.7798-2.1066-8.684-0.8589l-0.0732 1.663c3.9041-1.3582 6.5312-1.4413 8.757 0.7759z"/>
    </g><g stroke-width="31.802"><path d="m639.8 878.73-154.09 2e-4v-1.4135l154.09-3e-4z" fill="#fff" opacity=".5"/>
    <path d="m658.77 878.68v-106.19h-194l-0.14591 106.19z" fill="#f2f2f2" opacity=".5"/>
    <path d="m656.91 860.64v7.5116c-0.6568 4.1852 0.43782 7.5114-3.5758 7.5114h-177.11c-6.1299 0-6.4218-1.8017 0.43782-1.8017h158.57c16.675 0 18.9-2.9103 18.9-5.4604l-0.0731-7.5391c0.0359-5.0168 2.846-5.0168 2.846-0.2213z" fill="#fff" opacity=".55"/>
    <path d="m469.84 778.65c0-1.8847-0.43784-3.825 3.5758-3.825h175.76c6.1299 0 6.4218 1.8017-0.29192 1.8017-4.9258 0-114.5 0.05-130.95 0.05-21.71 0.025-48.09 1.9679-48.09 1.9679z" opacity=".03"/>
    <path d="m693.73 772.44h-28.132v14.441c0 3.4648-2.919 5.9039-6.8596 7.4283v84.455h36.852v-106.27" fill="#d1c690"/>
    <path d="m695.55 878.76-36.706 1e-4v-1.4413l36.706-2e-4z" fill="#fff" opacity=".5"/>
    <path d="m425.65 772.44v106.24h39.114v-96.013c-3.8312-1.5521-6.9691-4.0467-6.9691-7.5115v-2.7717h-30.284" fill="#d1c690"/>
    <path d="m464.77 878.73-39.114 1e-4 -1e-5 -1.4413 39.114-1e-4z" fill="#fff" opacity=".5"/>
    </g><path d="m459.9 878.76v-106.38h201.04v106.38z" fill="#303030" stroke-width="34.883"/><g fill="#e6e6e5">
    <path d="m410.35 62.874h336.92v45.281h-336.92z" stroke-width="12.283"/>
    <path d="m145.42 210.46h72.23v68.689h-72.23z" color="#000000" stroke-width="6.1416"/>
    <path d="m145.42 581.29h72.23v68.689h-72.23z" color="#000000" stroke-width="6.1416"/>
    </g><path d="m181.89 255.22c-93.406 0-169.35 79.37-169.35 177.12 0.07199 97.672 75.939 177.12 169.35 177.12 93.477 0 168.65-79.37 168.65-177.12 0-97.672-75.177-177.12-168.65-177.12zm-11.75 62.894c3.6805-0.39107 7.9712 0 11.75 0 60.468 0 109.21 50.98 109.21 114.22s-48.743 114.22-109.21 114.22c-60.468 0-109.9-50.98-109.9-114.22 0-59.29 42.941-108.36 98.15-114.22z" fill="#303030" stroke-width="12.283"/>
    <path d="m294.79 432.15c0 65.628-50.763 118.83-113.38 118.83-62.62 0-113.38-53.201-113.38-118.83 0-65.628 50.763-118.83 113.38-118.83 62.62 0 113.38 53.201 113.38 118.83z" color="#000000" fill="#e6e6e5" stroke-width="7.3626"/>
    <path d="m181.53 324.89v214.7" fill="none" stroke="#8c8c8c" stroke-width="11.818"/>
    <path d="m284 432.28h-204.86" fill="none" stroke="#8c8c8c" stroke-width="11.818"/>
    <path d="m1679.7 210.5h72.23v68.689h-72.23z" color="#000000" fill="#e6e6e5" stroke-width="6.1416"/>
    <path d="m1679.7 581.33h72.23v68.689h-72.23z" color="#000000" fill="#e6e6e5" stroke-width="6.1416"/>
    <path d="m1716 255.14c-93.406 0-169.35 79.37-169.35 177.12 0.071 97.672 75.938 177.12 169.35 177.12 93.477 0 168.65-79.37 168.65-177.12 0-97.672-75.176-177.12-168.65-177.12zm-11.75 62.894c3.6806-0.39107 7.9713 0 11.75 0 60.468 0 109.21 50.98 109.21 114.22 0 63.242-48.743 114.22-109.21 114.22-60.468 0-109.9-50.98-109.9-114.22 0-59.29 42.941-108.36 98.15-114.22z" fill="#303030" stroke-width="12.283"/>
    <path d="m1829 432.19c0 65.628-50.763 118.83-113.38 118.83-62.62 0-113.38-53.201-113.38-118.83 0-65.628 50.763-118.83 113.38-118.83 62.62 0 113.38 53.201 113.38 118.83z" color="#000000" fill="#e6e6e5" stroke-width="7.3626"/>
    <path d="m1715.8 324.93v214.7" fill="none" stroke="#8c8c8c" stroke-width="11.818"/>
    <path d="m1818.1 432.32h-204.86" fill="none" stroke="#8c8c8c" stroke-width="11.818"/><g stroke-width="22.517">
    
    <path d="m903.46 311.44-3.4e-4 -210.18 67.941-2.5e-4 3.3e-4 210.18z" fill="#f2f2f2"/>
    <path d="m971.42 175.65s-8.2778-18.45-7.551-24.8c0.72675-6.2643-2.6234-15.475 0-19.336l7.5156 0.51432z" fill="#22b573" fill-opacity=".7"/>
    <path d="m928.37 220.59-3e-5 -24.428 17.034-1.2e-4 4e-5 24.428z" fill="#fff"/>
    <path d="m944.99 220.59-3e-5 -24.428h0.86857l5e-5 24.428z" fill="#b3b3b3"/></g><g fill="#d1c690" stroke-width="22.517">
    <path d="m963.87 159.06 1.8434-27.546h-12.957l1.8434 27.546z"/>
    <path d="m960.38 157.32v0.22886c-0.62032 7.6086-1.8434 12.786-2.8715 17.105-1.418 5.9782-13.861 15.99-12.337 23.684 0.21274 0.77209-0.19497 1.7162-0.76214 1.8878-0.62032 0.22887-1.2053-0.28544-1.3826-1.1154-1.6839-8.7242 10.937-19.279 12.426-25.543 1.0635-4.2333 2.1802-9.096 2.7474-16.361 0.0708-0.82993 0.58493-1.5732 1.2053-1.4017 0.51402 0.088 0.97489 0.74316 0.97489 1.516z"/>
    <path d="m912.72 256.89-1.8257 27.631h12.94l-1.8257-27.631z"/>
    <path d="m939.68 209.61c0 0.71551-0.35456 1.4016-0.83306 1.5732-5.1758 1.8021-20.42 31.121-20.42 53.918 0 0.94437-0.46086 1.6304-1.1167 1.6304-0.60268-0.0629-1.1167-0.71551-1.1167-1.6304v-0.0629c0-21.424 13.649-54.09 22.068-57.008 0.62044-0.22887 1.2053 0.34328 1.3826 1.1732 0.0359 0.14334 0.0359 0.25778 0.0359 0.39987z"/>
    <path d="m939.92 196.16s-0.0359 10.183 5.5126 10.955v-10.955z"/>
    <path d="m934.27 208.61s5.424-4.5195 6.2216-1.516c0.85081 3.0606 0.92172 5.0914-0.49627 6.8648-1.4535 1.7449-5.7253-5.3488-5.7253-5.3488z"/></g><g fill="#9d956c" stroke-width="22.517">
    <path d="m946.11 198.34c-1.4889-7.7231 10.954-17.706 12.372-23.684 1.0636-4.1476 2.2511-9.4393 2.8715-17.105h-1.0458c-0.62032 7.6086-1.8434 12.786-2.8715 17.105-1.418 5.9782-13.861 15.99-12.337 23.684z"/>
    <path d="m922.94 256.89 1.8434 27.631h-0.95712l-1.8257-27.631z"/>
    <path d="m939.82 211.24c-5.1581 1.7734-21.483 30.606-20.366 53.918h-1.0635c-1.0635-25.086 15.244-52.231 20.42-53.976z"/>
    <path d="m946.43 207.12v-10.898h-1.0104v10.898z"/>
    <path d="m940.92 213.98c1.418-1.8021 1.3471-3.7472 0.54953-6.8078l-1.0636-0.0629c0.86857 3.0606 0.92173 5.1201-0.49626 6.865z"/>
    </g><g stroke-width="22.517"><path d="m903.45 269.16-1.9e-4 -120.79h0.90396l2e-4 120.79z" fill="#fff" opacity=".5"/>
    <path d="m903.48 284.03h67.906v-152.09l-67.906-0.11312z" fill="#f2f2f2" opacity=".5"/>
    <path d="m915.02 282.58h-4.8036c-2.6765-0.51557-4.8036 0.34329-4.8036-2.8032v-138.84c0-4.8055 1.1522-5.0343 1.1522 0.34328v124.31c0 13.072 1.8612 14.817 3.4919 14.817l4.8213-0.0629c3.2083 0.0251 3.2083 2.231 0.14182 2.231z" fill="#fff" opacity=".55"/>
    <path d="m967.45 135.92c1.2053 0 2.4461-0.3433 2.4461 2.8032v137.79c0 4.8054-1.1521 5.0343-1.1521-0.22886 0-3.8615-0.0359-89.759-0.0359-102.66-0.018-17.019-1.2585-37.7-1.2585-37.7z" opacity=".03"/>
    <path d="m971.42 311.44v-22.054h-9.2349c-2.2157 0-3.7755-2.2884-4.7504-5.3775h-54.009v28.89h67.959" fill="#d1c690"/>
    <path d="m903.43 312.87-5e-5 -28.776h0.92173l5e-5 28.776z" fill="#fff" opacity=".5"/>
    <path d="m971.42 101.28h-67.941v30.663h61.401c0.99263-3.0034 2.5879-5.4634 4.8036-5.4634h1.7725v-23.741" fill="#d1c690"/>
    <path d="m903.45 131.95-5e-5 -30.663h0.92173l4e-5 30.663z" fill="#fff" opacity=".5"/></g><g stroke-width="22.517">
    
    <path d="m973.29 91.894-200.55 2.5e-4 -2.6e-4 -71.205 200.55-3.7e-4z" fill="#f2f2f2"/>
    <path d="m843.72 20.672s-17.604 8.6754-23.663 7.9137c-5.9771-0.76203-14.765 2.7494-18.45 0l0.4912-7.8766z" fill="#22b573" fill-opacity=".7"/>
    <path d="m886.6 65.794-23.308 1.3e-4 -8e-5 -17.852h23.308z" fill="#fff"/>
    <path d="m886.6 48.368-23.308 1.2e-4 -1e-5 -0.91041 23.308-1.3e-4z" fill="#b3b3b3"/></g><g fill="#d1c690" stroke-width="22.517">
    <path d="m801.61 40.233 26.283-1.9319v-9.7157l-26.283-1.932z"/>
    <path d="m826.23 32.245h0.21837c7.2599 0.65011 12.2 1.932 16.321 3.0094 5.7042 1.4861 15.257 14.527 22.598 12.929 0.73695-0.22257 1.6376 0.20497 1.8013 0.7985 0.21837 0.65012-0.27297 1.2633-1.0644 1.449-8.3243 1.7649-18.395-11.462-24.372-13.022-4.0393-1.1141-8.6791-2.285-15.611-2.8795-0.79154-0.0755-1.5011-0.61365-1.3373-1.2631 0.0816-0.5382 0.7096-1.0211 1.4465-1.0211z"/>
    <path d="m947.6 70.55-26.365 1.9134v9.7342l26.365 1.9135z"/>
    <path d="m876.12 53.943c0.68235 0 1.3373 0.37222 1.5011 0.87269 1.7194 5.4245 29.695 21.4 51.447 21.4 0.90061 0 1.5557 0.48287 1.5557 1.1707-0.054 0.63126-0.68236 1.1707-1.5557 1.1707h-0.0552c-20.442 0-51.611-14.304-54.394-23.128-0.21837-0.65012 0.32757-1.2633 1.119-1.449 0.13643-0.0377 0.24561-0.0377 0.38216-0.0377z"/>
    <path d="m863.29 53.682s9.7162 0.0377 10.453-5.7774h-10.453z"/>
    <path d="m875.17 59.608s-4.3123-5.6846-1.4465-6.5204c2.9203-0.89155 4.8581-0.96574 6.5503 0.5206 1.6648 1.5233-5.1037 6.0003-5.1037 6.0003z"/></g><g fill="#9d956c" stroke-width="22.517">
    <path d="m865.37 47.199c-7.369 1.5604-16.894-11.48-22.598-12.967-3.9574-1.1141-9.0066-2.3593-16.321-3.0095v1.0965c7.2599 0.65012 12.2 1.9319 16.321 3.0094 5.7042 1.4861 15.257 14.527 22.598 12.929z"/>
    <path d="m947.6 70.55-26.365 1.9134v-0.98461l26.365-1.932z"/>
    <path d="m877.68 53.794c1.6922 5.4059 29.203 22.515 51.447 21.345v1.1141c-23.936 1.1141-49.837-15.976-51.501-21.4z"/>
    <path d="m873.75 46.865h-10.399v1.0588h10.399z"/>
    <path d="m880.3 52.642c-1.7194-1.4861-3.5754-1.4118-6.4957-0.57592l-0.054 1.1141c2.9203-0.91041 4.8854-0.96574 6.5503 0.5206z"/>
    </g><g stroke-width="22.517"><path d="m932.95 91.912-115.26 2.5e-4v-0.94688l115.26-2.5e-4z" fill="#fff" opacity=".5"/>
    <path d="m947.14 91.876v-71.168h-145.12l-0.10921 71.168z" fill="#f2f2f2" opacity=".5"/>
    <path d="m945.74 79.783v5.0343c-0.49122 2.8051 0.32757 5.0343-2.6747 5.0343h-132.48c-4.5852 0-4.8035-1.2072 0.32756-1.2072h118.61c12.473 0 14.138-1.9506 14.138-3.6596l-0.0552-5.0528c0.0276-3.3624 2.1288-3.3624 2.1288-0.14839z" fill="#fff" opacity=".55"/>
    <path d="m805.81 24.833c0-1.2631-0.32756-2.5635 2.6747-2.5635h131.47c4.5852 0 4.8035 1.2072-0.21837 1.2072-3.6845 0-85.645 0.0377-97.954 0.0377-16.239 0.0126-35.972 1.319-35.972 1.319z" opacity=".03"/>
    <path d="m973.28 20.672h-21.043v9.6784c0 2.3221-2.1834 3.9569-5.131 4.9786v56.603h27.566v-71.223" fill="#d1c690"/>
    <path d="m974.65 91.931h-27.456l-1e-5 -0.96575h27.456z" fill="#fff" opacity=".5"/>
    <path d="m772.76 20.672v71.205h29.258v-64.35c-2.8657-1.0399-5.2129-2.7121-5.2129-5.0343v-1.8577h-22.653" fill="#d1c690"/>
    <path d="m802.02 91.913h-29.258v-0.96575h29.258z" fill="#fff" opacity=".5"/>
    </g><path d="m798.38 91.931v-71.301h150.38v71.301z" fill="#303030" stroke-width="24.698"/><g stroke-width="18.974">
    <path d="m410.39 108.94h336.92v353.11h-336.92z" fill="#303030"/>
    <path d="m410.39 108.94h336.92v32.172h-336.92z" fill="#3d3d3d"/>
    <path d="m410.39 429.69h336.92v32.172h-336.92z"/>
    <path d="m410.39 108.94 3.6098 32.172v288.76l-3.6098 32.172z" fill="#1f1f1f"/>
    <path d="m743.62 429.69 3.6099 32.172v-353.11l-3.6099 32.172z" fill="#141414"/></g><g fill="#e6e6e5" stroke-width="15.081">
    <path d="m410.35 427.49h32.396v99.953h-32.396z"/>
    <path d="m486.42 427.49h32.396v99.953h-32.396z"/>
    <path d="m714.87 427.49h32.396v99.953h-32.396z"/>
    <path d="m562.61 427.49h32.396v99.953h-32.396z"/>
    <path d="m638.68 427.49h32.396v99.953h-32.396z"/>
    </g><path d="m453.18 402.39c0 5.9905-4.6209 10.847-10.321 10.847-5.7 0-10.321-4.8561-10.321-10.847s4.6209-10.847 10.321-10.847c5.7001 0 10.321 4.8563 10.321 10.847z" fill="#212121" stroke-width="12.283"/><g fill="#8c8c8c" stroke-width="12.283">
    <path d="m410.35 523.49h32.396v66.308h-32.396z"/>
    <path d="m486.42 523.49h32.396v66.308h-32.396z"/>
    <path d="m714.87 523.49h32.396v66.308h-32.396z"/>
    <path d="m562.61 523.49h32.396v66.308h-32.396z"/>
    <path d="m638.68 523.49h32.396v66.308h-32.396z"/></g><g fill="#e6e6e5" stroke-width="12.283">
    <path d="m410.31 587.81h32.396v66.308h-32.396z"/>
    <path d="m486.5 587.81h32.396v66.308h-32.396z"/>
    <path d="m714.83 587.81h32.396v66.308h-32.396z"/>
    <path d="m562.57 587.81h32.396v66.308h-32.396z"/>
    <path d="m638.76 587.81h32.396v66.308h-32.396z"/>
    </g><path d="m410.35 50.173h336.92v13.039h-336.92z" fill="#8c8c8c" stroke-width="12.283"/>
    <path d="m1600.2 9.5568h72.23v75.826h-72.23z" color="#000000" fill="#e6e6e5" stroke-width="6.1416"/>
    <path d="m1600.2 98.461h72.23v75.826h-72.23z" color="#000000" fill="#e6e6e5" stroke-width="6.1416"/>
    <path d="m904.21 325.94h539.93v565.87h-539.93z" fill="#3d3d3d" stroke-width="12.283"/>
    <path d="m985.68 350.96c-32.801 0-59.618 27.711-59.618 62.088 0 28.345 18.388 51.816 43.12 59.338-23.996 39.477-38.245 86.082-38.245 136.36 0 49.472 13.827 95.708 37.121 134.79-24.151 7.8976-41.995 31.032-41.995 58.944 0 34.377 26.815 62.088 59.618 62.088 26.093 0 47.894-17.529 55.867-42.048 38.106 26.029 83.481 40.868 132.36 40.868 48.384 0 93.364-14.928 131.24-40.476 8.0815 24.315 29.914 41.654 55.867 41.654 32.802 0 59.243-27.711 59.243-62.088 0-27.478-17.3-50.298-40.869-58.551 23.551-39.226 37.495-85.411 37.495-135.18 0-50.395-14.145-97.216-38.245-136.75 23.974-8.0075 41.62-31.164 41.62-58.944 0-34.377-26.441-62.088-59.242-62.088-26.529 0-48.995 18.069-56.618 43.226-37.723-25.258-82.399-40.082-130.48-40.082-48.57 0-93.649 15.14-131.61 40.868-7.3966-25.551-29.822-44.012-56.618-44.012zm188.23 31.437c119.28 0 215.97 101.34 215.97 226.35 0 125.01-96.695 226.35-215.97 226.35s-215.97-101.34-215.97-226.35c0-125.01 96.695-226.35 215.97-226.35z" color="#000000" fill="#303030" stroke-width="6.1416"/>
    <path d="m1055.5 34.706v212.59h24.747v-27.507h355.83v27.507h24.371v-212.59h-404.95z" color="#000000" fill="#418dd9" stroke-width="6.1416"/>
    <path d="m1157.6 100.7c0 21.877-16.922 39.611-37.795 39.611s-37.795-17.734-37.795-39.611 16.922-39.611 37.795-39.611 37.795 17.734 37.795 39.611z" color="#000000" fill="#9a916c" stroke="#7d7d7d" stroke-width="4.7675"/>
    <path d="m1099.5 121.98 40.67-42.624" fill="none" stroke="#847c5c" stroke-width="12.283"/><g fill="#ffffff" font-family="OCRA"><g>
    <text x="1037.51" y="505.59726" font-size="48.611">RioRand</text>
    <text x="-4.0474706" y="225.93681" font-size="70">IN+</text>
    <text x="-4.0460911" y="725.42657" font-size="69.992">IN-</text>
    <text x="1686.0146" y="201.2719" font-size="65">OUT+</text>
    </g><text transform="rotate(-90)" x="-875.44403" y="1745.3064" font-size="65">OUT-</text><g font-size="48.611">
    <text x="1055.896" y="570.96979">LM2596</text>
    <text x="1025.2526" y="644.51385">Adj Buck</text>
    <text x="1025.2526" y="724.18665">Converter</text>
    </g></g><circle cx="264.46" cy="94.497" r="50.5" fill="#fff" stroke-width="1.01"/>
    <circle cx="60.089" cy="845.88" r="20" fill="#fff" stroke-width="0"/>
    <rect id="connector0pin" x=".72227" y=".33372" width="120" height="120" fill="#e6e6e5" stroke-width="1.0523"/>
    <circle cx="60.089" cy="58.241" r="20" fill="#fff" stroke-width="0"/>
    <path d="m1578.5 728.65c-44.216 0-80.163 35.85-80.163 80 0.031 44.117 35.947 80 80.163 80 44.25 0 79.837-35.85 79.837-80 0-44.117-35.587-80-79.837-80zm-5.5624 28.409c1.7423-0.1765 3.7734 0 5.5624 0 28.624 0 51.698 23.027 51.698 51.592s-22.182 49.895-50.806 49.895c-28.624 0-52.917-21.329-52.917-49.895 0-26.781 20.327-48.943 46.462-51.592z" fill="#e6e6e5" stroke-width="10.46"/><g fill="#383938"><g stroke-width="4.0897">
    <path d="m1582.1 740.03c0 2.7015-2.1899 4.8914-4.8913 4.8914-2.7013 0-4.8912-2.1899-4.8912-4.8914 0-2.7013 2.1899-4.8912 4.8912-4.8912 2.7014 0 4.8913 2.1899 4.8913 4.8912z"/>
    <path d="m1582.1 875.25c0 2.7014-2.1899 4.8913-4.8913 4.8913-2.7013 0-4.8912-2.1899-4.8912-4.8913s2.1899-4.8913 4.8912-4.8913c2.7014 0 4.8913 2.1899 4.8913 4.8913z"/>
    <path d="m1644.5 812.05c-2.7014 0-4.8913-2.1899-4.8913-4.8913 0-2.7013 2.1899-4.8912 4.8913-4.8912 2.7013 0 4.8912 2.1899 4.8912 4.8912 0 2.7014-2.1899 4.8913-4.8912 4.8913z"/>
    <path d="m1509.3 812.05c-2.7014 0-4.8913-2.1899-4.8913-4.8913 0-2.7013 2.1899-4.8912 4.8913-4.8912s4.8913 2.1899 4.8913 4.8912c0 2.7014-2.1899 4.8913-4.8913 4.8913z"/></g><g stroke-width="4.0897">
    <path d="m1621.6 858.33c-1.9152-1.9051-1.9234-5.002-0.018-6.9172 1.905-1.9153 5.002-1.9234 6.9173-0.022 1.9151 1.9051 1.9234 5.002 0.019 6.9172-1.9051 1.9153-5.0021 1.9234-6.9173 0.022z"/>
    <path d="m1525.7 762.97c-1.9152-1.9051-1.9234-5.002-0.018-6.9173 1.9051-1.9152 5.002-1.9234 6.9172-0.022 1.9152 1.9052 1.9235 5.0021 0.019 6.9173-1.905 1.9152-5.002 1.9234-6.9172 0.022z"/>
    <path d="m1526 851.78c1.9051-1.9152 5.0021-1.9233 6.9173-0.022 1.9152 1.9051 1.9234 5.0021 0.018 6.9173-1.9051 1.9153-5.0021 1.9235-6.9173 0.022-1.9152-1.9051-1.9234-5.0021-0.019-6.9173z"/>
    <path d="m1621.3 755.91c1.9051-1.9153 5.002-1.9234 6.9172-0.022 1.9152 1.9051 1.9235 5.002 0.018 6.9172-1.9051 1.9153-5.002 1.9235-6.9172 0.022-1.9153-1.9051-1.9235-5.002-0.019-6.9172z"/>
    </g></g><circle cx="1578" cy="807.47" r="50.5" fill="#fff" stroke-width="1.01"/>
  </g>
</svg>
