<?xml version="1.0" encoding="UTF-8" standalone="no"?>
<!-- Generator: Adobe Illustrator 15.0.0, SVG Export Plug-In . SVG Version: 6.00 Build 0)  -->

<svg
   xmlns:dc="http://purl.org/dc/elements/1.1/"
   xmlns:cc="http://creativecommons.org/ns#"
   xmlns:rdf="http://www.w3.org/1999/02/22-rdf-syntax-ns#"
   xmlns:svg="http://www.w3.org/2000/svg"
   xmlns="http://www.w3.org/2000/svg"
   xmlns:sodipodi="http://sodipodi.sourceforge.net/DTD/sodipodi-0.dtd"
   xmlns:inkscape="http://www.inkscape.org/namespaces/inkscape"
   version="1.1"
   id="Layer_1"
   x="0px"
   y="0px"
   width="1.2746309in"
   height="0.79235065in"
   viewBox="0 0 91.773569 57.049204"
   enable-background="new 0 0 82 82"
   xml:space="preserve"
   sodipodi:docname="MH-Z19_CO2_BB.svg"
   inkscape:version="0.92.1 r15371"><metadata
     id="metadata65"><rdf:RDF><cc:Work
         rdf:about=""><dc:format>image/svg+xml</dc:format><dc:type
           rdf:resource="http://purl.org/dc/dcmitype/StillImage" /><dc:title></dc:title></cc:Work></rdf:RDF></metadata><defs
     id="defs63" /><sodipodi:namedview
     pagecolor="#ffffff"
     bordercolor="#666666"
     borderopacity="1"
     objecttolerance="10"
     gridtolerance="10"
     guidetolerance="10"
     inkscape:pageopacity="0"
     inkscape:pageshadow="2"
     inkscape:window-width="1920"
     inkscape:window-height="1017"
     id="namedview61"
     showgrid="false"
     inkscape:zoom="5.0753662"
     inkscape:cx="24.399963"
     inkscape:cy="4.0931965"
     inkscape:window-x="-8"
     inkscape:window-y="-8"
     inkscape:window-maximized="1"
     inkscape:current-layer="Layer_1"
     fit-margin-top="0"
     fit-margin-left="0"
     fit-margin-right="0"
     fit-margin-bottom="0" /><g
     id="g4679"
     transform="matrix(0.74565194,0,0,0.74565194,2.7961947e-6,-8.232458e-5)"><rect
       style="fill:#008000;fill-opacity:1;stroke:none;stroke-width:0.56142676;stroke-miterlimit:4;stroke-dasharray:none;stroke-opacity:1"
       id="rect5158"
       width="11.302933"
       height="49.453926"
       x="111.77536"
       y="12.641161" /><rect
       y="22.075163"
       x="-3.7499999e-006"
       height="40.019909"
       width="11.635372"
       id="rect5156"
       style="fill:#008000;fill-opacity:1;stroke:none;stroke-width:0.51241916;stroke-miterlimit:4;stroke-dasharray:none;stroke-opacity:1" /><path
       id="rect5140"
       d="m 15.28711,0.240019 c -2.02919,0 -3.66211,1.632909 -3.66211,3.662109 V 70.5701 c 0,2.0292 1.63292,3.66211 3.66211,3.66211 h 13.38671 l 1.43165,2.03711 h 34.56445 c 0.54919,0 1.64648,-2.03711 1.64648,-2.03711 h 41.79492 c 2.02921,0 3.66211,-1.63291 3.66211,-3.66211 V 3.902128 c 0,-2.0292 -1.6329,-3.662109 -3.66211,-3.662109 z m 58.89453,2.878906 h 37.07422 V 34.781034 H 74.18164 Z m 15.96289,41.675781 a 9.4699869,9.4699869 0 0 1 9.4707,9.468754 9.4699869,9.4699869 0 0 1 -9.4707,9.4707 9.4699869,9.4699869 0 0 1 -9.46875,-9.4707 9.4699869,9.4699869 0 0 1 9.46875,-9.468754 z"
       style="fill:#ffd42a;fill-opacity:1;stroke:#ffd42a;stroke-width:0.48003784;stroke-miterlimit:4;stroke-dasharray:none;stroke-opacity:1"
       inkscape:connector-curvature="0" /><circle
       style="fill:#ffd42a;fill-opacity:1;stroke:#ffd42a;stroke-width:0.36756802;stroke-miterlimit:4;stroke-dasharray:none;stroke-opacity:1"
       id="circle5144"
       cx="90.145447"
       cy="54.263988"
       r="7.5458875" /><rect
       style="fill:#ffd42a;fill-opacity:1;stroke:#ffd42a;stroke-width:0.43674877;stroke-miterlimit:4;stroke-dasharray:none;stroke-opacity:1"
       id="rect5152"
       width="33.210709"
       height="28.362501"
       x="76.114075"
       y="4.7689571" /><rect
       y="6.5159168"
       x="78.159637"
       height="24.868576"
       width="29.119539"
       id="rect5154"
       style="fill:#ffffff;fill-opacity:1;stroke:#000000;stroke-width:0.38294643;stroke-miterlimit:4;stroke-dasharray:none;stroke-opacity:1" /><g
       transform="matrix(0,-1.0186405,1.0186405,0,-0.47171,65.07373)"
       id="g5238"><rect
         style="fill:#454545;stroke-width:1.31305206"
         id="rect5206"
         height="9.752037"
         width="4.8753619"
         y="1.1631045"
         x="5.918344" /><polygon
         transform="matrix(1.313052,0,0,1.313052,-30.874674,-0.77102107)"
         style="fill:#454545"
         id="polygon5208"
         points="28.021,8.899 26.163,7.041 26.163,3.328 28.021,1.473 " /><polygon
         transform="matrix(1.313052,0,0,1.313052,-30.874674,-0.77102107)"
         style="fill:#454545"
         id="polygon5210"
         points="33.593,7.041 31.732,8.899 31.732,1.473 33.593,3.328 " /><rect
         style="fill:#b68b2d;stroke-width:1.31305206"
         id="rect5212"
         height="2.1901708"
         width="1.7227243"
         y="4.9394422"
         x="7.4966369" /><rect
         style="fill:#454545;stroke-width:1.31305206"
         id="rect5214"
         height="9.752037"
         width="4.8753619"
         y="1.1631045"
         x="15.374956" /><polygon
         transform="matrix(1.313052,0,0,1.313052,-30.874674,-0.77102107)"
         style="fill:#454545"
         id="polygon5216"
         points="35.223,8.899 33.363,7.041 33.363,3.328 35.223,1.473 " /><polygon
         transform="matrix(1.313052,0,0,1.313052,-30.874674,-0.77102107)"
         style="fill:#454545"
         id="polygon5218"
         points="40.792,7.041 38.934,8.899 38.934,1.473 40.792,3.328 " /><rect
         style="fill:#b68b2d;stroke-width:1.31305206"
         id="rect5220"
         height="2.1901708"
         width="1.7227243"
         y="4.9394422"
         x="16.948" /><rect
         style="fill:#454545;stroke-width:1.31305206"
         id="rect5222"
         height="9.752037"
         width="4.8753619"
         y="1.1631045"
         x="24.826303" /><polygon
         transform="matrix(1.313052,0,0,1.313052,-30.874674,-0.77102107)"
         style="fill:#454545"
         id="polygon5224"
         points="42.421,8.899 40.564,7.041 40.564,3.328 42.421,1.473 " /><polygon
         transform="matrix(1.313052,0,0,1.313052,-30.874674,-0.77102107)"
         style="fill:#454545"
         id="polygon5226"
         points="47.992,7.041 46.134,8.899 46.134,1.473 47.992,3.328 " /><rect
         style="fill:#b68b2d;stroke-width:1.31305206"
         id="rect5228"
         height="2.1901708"
         width="1.7227243"
         y="4.9394422"
         x="26.403276" /><rect
         style="fill:#454545;stroke-width:1.31305206"
         id="rect5230"
         height="9.752037"
         width="4.8753619"
         y="1.1631045"
         x="34.281601" /><polygon
         transform="matrix(1.313052,0,0,1.313052,-30.874674,-0.77102107)"
         style="fill:#454545"
         id="polygon5232"
         points="49.622,8.899 47.764,7.041 47.764,3.328 49.622,1.473 " /><polygon
         transform="matrix(1.313052,0,0,1.313052,-30.874674,-0.77102107)"
         style="fill:#454545"
         id="polygon5234"
         points="55.191,7.041 53.333,8.899 53.333,1.473 55.191,3.328 " /><rect
         style="fill:#b68b2d;stroke-width:1.31305206"
         id="rect5236"
         height="2.1901708"
         width="1.7227243"
         y="4.9394422"
         x="35.85463" /></g><rect
       transform="rotate(-90)"
       style="fill:#454545;stroke-width:1.33752799"
       id="rect5240"
       height="9.9338198"
       width="4.9662409"
       y="112.32143"
       x="-59.045071" /><polygon
       transform="matrix(0,-1.3375279,1.3375279,0,110.35126,96.52393)"
       style="fill:#454545"
       id="polygon5242"
       points="26.163,7.041 26.163,3.328 28.021,1.473 28.021,8.899 " /><polygon
       transform="matrix(0,-1.3375279,1.3375279,0,110.35126,96.52393)"
       style="fill:#454545"
       id="polygon5244"
       points="31.732,8.899 31.732,1.473 33.593,3.328 33.593,7.041 " /><rect
       transform="rotate(-90)"
       style="fill:#b68b2d;stroke-width:1.33752799"
       id="rect5246"
       height="2.2309966"
       width="1.7548368"
       y="116.16817"
       x="-57.437359" /><rect
       transform="rotate(-90)"
       style="fill:#454545;stroke-width:1.33752799"
       id="rect5248"
       height="9.9338198"
       width="4.9662409"
       y="112.32143"
       x="-49.412182" /><polygon
       transform="matrix(0,-1.3375279,1.3375279,0,110.35126,96.52393)"
       style="fill:#454545"
       id="polygon5250"
       points="33.363,7.041 33.363,3.328 35.223,1.473 35.223,8.899 " /><polygon
       transform="matrix(0,-1.3375279,1.3375279,0,110.35126,96.52393)"
       style="fill:#454545"
       id="polygon5252"
       points="38.934,8.899 38.934,1.473 40.792,3.328 40.792,7.041 " /><rect
       transform="rotate(-90)"
       style="fill:#b68b2d;stroke-width:1.33752799"
       id="rect5254"
       height="2.2309966"
       width="1.7548368"
       y="116.16817"
       x="-47.809818" /><rect
       transform="rotate(-90)"
       style="fill:#454545;stroke-width:1.33752799"
       id="rect5256"
       height="9.9338198"
       width="4.9662409"
       y="112.32143"
       x="-39.784657" /><polygon
       transform="matrix(0,-1.3375279,1.3375279,0,110.35126,96.52393)"
       style="fill:#454545"
       id="polygon5258"
       points="40.564,7.041 40.564,3.328 42.421,1.473 42.421,8.899 " /><polygon
       transform="matrix(0,-1.3375279,1.3375279,0,110.35126,96.52393)"
       style="fill:#454545"
       id="polygon5260"
       points="46.134,8.899 46.134,1.473 47.992,3.328 47.992,7.041 " /><rect
       transform="rotate(-90)"
       style="fill:#b68b2d;stroke-width:1.33752799"
       id="rect5262"
       height="2.2309966"
       width="1.7548368"
       y="116.16817"
       x="-38.178295" /><g
       transform="translate(-272.94141,-50.9592)"
       id="g5650"><rect
         x="-81.112312"
         y="385.26285"
         width="4.9662409"
         height="9.9338198"
         id="rect5264"
         style="fill:#454545;stroke-width:1.33752799"
         transform="rotate(-90)" /><polygon
         points="47.764,7.041 47.764,3.328 49.622,1.473 49.622,8.899 "
         id="polygon5266"
         style="fill:#454545"
         transform="matrix(0,-1.3375279,1.3375279,0,383.29267,147.48313)" /><polygon
         points="53.333,8.899 53.333,1.473 55.191,3.328 55.191,7.041 "
         id="polygon5268"
         style="fill:#454545"
         transform="matrix(0,-1.3375279,1.3375279,0,383.29267,147.48313)" /><rect
         x="-79.509964"
         y="389.10959"
         width="1.7548368"
         height="2.2309966"
         id="rect5270"
         style="fill:#b68b2d;stroke-width:1.33752799"
         transform="rotate(-90)" /></g><g
       transform="translate(-272.94141,-60.593136)"
       id="g5660"><rect
         transform="rotate(-90)"
         style="fill:#454545;stroke-width:1.33752799"
         id="rect5652"
         height="9.9338198"
         width="4.9662409"
         y="385.26285"
         x="-81.112312" /><polygon
         transform="matrix(0,-1.3375279,1.3375279,0,383.29267,147.48313)"
         style="fill:#454545"
         id="polygon5654"
         points="49.622,1.473 49.622,8.899 47.764,7.041 47.764,3.328 " /><polygon
         transform="matrix(0,-1.3375279,1.3375279,0,383.29267,147.48313)"
         style="fill:#454545"
         id="polygon5656"
         points="55.191,3.328 55.191,7.041 53.333,8.899 53.333,1.473 " /><rect
         transform="rotate(-90)"
         style="fill:#b68b2d;stroke-width:1.33752799"
         id="rect5658"
         height="2.2309966"
         width="1.7548368"
         y="389.10959"
         x="-79.509964" /></g></g></svg>