<?xml version="1.0" encoding="UTF-8" standalone="no"?>
<!-- Generator: Adobe Illustrator 15.0.0, SVG Export Plug-In . SVG Version: 6.00 Build 0)  -->

<svg
   xmlns:dc="http://purl.org/dc/elements/1.1/"
   xmlns:cc="http://creativecommons.org/ns#"
   xmlns:rdf="http://www.w3.org/1999/02/22-rdf-syntax-ns#"
   xmlns:svg="http://www.w3.org/2000/svg"
   xmlns="http://www.w3.org/2000/svg"
   xmlns:sodipodi="http://sodipodi.sourceforge.net/DTD/sodipodi-0.dtd"
   xmlns:inkscape="http://www.inkscape.org/namespaces/inkscape"
   version="1.1"
   id="Layer_1"
   x="0px"
   y="0px"
   width="123.82829"
   height="76.779305"
   viewBox="0 0 123.82829 76.779304"
   enable-background="new 0 0 82 82"
   xml:space="preserve"
   sodipodi:docname="MH-Z19_CO2_PCB.svg"
   inkscape:version="0.92.2 (5c3e80d, 2017-08-06)"><metadata
     id="metadata65"><rdf:RDF><cc:Work
         rdf:about=""><dc:format>image/svg+xml</dc:format><dc:type
           rdf:resource="http://purl.org/dc/dcmitype/StillImage" /><dc:title /></cc:Work></rdf:RDF></metadata><defs
     id="defs63" /><sodipodi:namedview
     pagecolor="#ffffff"
     bordercolor="#666666"
     borderopacity="1"
     objecttolerance="10"
     gridtolerance="10"
     guidetolerance="10"
     inkscape:pageopacity="0"
     inkscape:pageshadow="2"
     inkscape:window-width="1920"
     inkscape:window-height="1017"
     id="namedview61"
     showgrid="false"
     inkscape:zoom="8.2524996"
     inkscape:cx="72.466306"
     inkscape:cy="30.466468"
     inkscape:window-x="2552"
     inkscape:window-y="355"
     inkscape:window-maximized="1"
     inkscape:current-layer="Layer_1"
     fit-margin-top="0"
     fit-margin-left="0"
     fit-margin-right="0"
     fit-margin-bottom="0" /><g
     id="g1055"><g
       inkscape:label="#silkscreen"
       id="g1009"><g
         id="silkscreen"
         transform="translate(0.37500375,0.134981)"><rect
           style="fill:none;fill-opacity:1;stroke:#373737;stroke-width:0.75;stroke-miterlimit:4;stroke-dasharray:none;stroke-opacity:1"
           id="rect5158"
           width="11.302933"
           height="49.453926"
           x="111.77536"
           y="12.641161" /><rect
           y="22.075163"
           x="-3.7499999e-006"
           height="40.019909"
           width="11.635372"
           id="rect5156"
           style="fill:none;fill-opacity:1;stroke:#373737;stroke-width:0.75;stroke-miterlimit:4;stroke-dasharray:none;stroke-opacity:1" /><path
           id="rect5140"
           d="m 15.28711,0.240019 c -2.02919,0 -3.66211,1.632909 -3.66211,3.662109 V 70.5701 c 0,2.0292 1.63292,3.66211 3.66211,3.66211 h 13.38671 l 1.43165,2.03711 h 34.56445 c 0.54919,0 1.64648,-2.03711 1.64648,-2.03711 h 41.79492 c 2.02921,0 3.66211,-1.63291 3.66211,-3.66211 V 3.902128 c 0,-2.0292 -1.6329,-3.662109 -3.66211,-3.662109 z m 58.89453,2.878906 h 37.07422 V 34.781034 H 74.18164 Z m 15.96289,41.675781 a 9.4699869,9.4699869 0 0 1 9.4707,9.468754 9.4699869,9.4699869 0 0 1 -9.4707,9.4707 9.4699869,9.4699869 0 0 1 -9.46875,-9.4707 9.4699869,9.4699869 0 0 1 9.46875,-9.468754 z"
           style="fill:none;fill-opacity:1;stroke:#373737;stroke-width:0.75;stroke-miterlimit:4;stroke-dasharray:none;stroke-opacity:1"
           inkscape:connector-curvature="0" /></g><text
         xml:space="preserve"
         style="font-style:normal;font-variant:normal;font-weight:normal;font-stretch:normal;font-size:4.4000001px;line-height:6.36978388px;font-family:OCRA;-inkscape-font-specification:OCRA;letter-spacing:0px;word-spacing:0px;fill:#000000;fill-opacity:1;stroke:none;stroke-width:0.25479135"
         x="-55.232056"
         y="26.482775"
         id="text5675"
         transform="rotate(-60)"><tspan
           sodipodi:role="line"
           id="tspan5673"
           x="-55.232056"
           y="26.482775"
           style="font-style:normal;font-variant:normal;font-weight:normal;font-stretch:normal;font-size:4.4000001px;font-family:OCRA;-inkscape-font-specification:OCRA;stroke-width:0.25479135">Vin</tspan></text>
<text
         id="text5679"
         y="21.786221"
         x="-47.191841"
         style="font-style:normal;font-variant:normal;font-weight:normal;font-stretch:normal;font-size:4.4000001px;line-height:6.36978388px;font-family:OCRA;-inkscape-font-specification:OCRA;letter-spacing:0px;word-spacing:0px;fill:#000000;fill-opacity:1;stroke:none;stroke-width:0.25479135"
         xml:space="preserve"
         transform="rotate(-60)"><tspan
           style="font-style:normal;font-variant:normal;font-weight:normal;font-stretch:normal;font-size:4.4000001px;font-family:OCRA;-inkscape-font-specification:OCRA;stroke-width:0.25479135"
           y="21.786221"
           x="-47.191841"
           id="tspan5677"
           sodipodi:role="line">GND</tspan></text>
<text
         xml:space="preserve"
         style="font-style:normal;font-variant:normal;font-weight:normal;font-stretch:normal;font-size:4.4000001px;line-height:6.36978388px;font-family:OCRA;-inkscape-font-specification:OCRA;letter-spacing:0px;word-spacing:0px;fill:#000000;fill-opacity:1;stroke:none;stroke-width:0.25479135"
         x="-38.874699"
         y="16.980507"
         id="text5683"
         transform="rotate(-60)"><tspan
           sodipodi:role="line"
           id="tspan5681"
           x="-38.874699"
           y="16.980507"
           style="font-style:normal;font-variant:normal;font-weight:normal;font-stretch:normal;font-size:4.4000001px;font-family:OCRA;-inkscape-font-specification:OCRA;stroke-width:0.25479135">AOT</tspan></text>
<text
         id="text5687"
         y="12.186211"
         x="-30.564131"
         style="font-style:normal;font-variant:normal;font-weight:normal;font-stretch:normal;font-size:4.4000001px;line-height:6.36978388px;font-family:OCRA;-inkscape-font-specification:OCRA;letter-spacing:0px;word-spacing:0px;fill:#000000;fill-opacity:1;stroke:none;stroke-width:0.25479135"
         xml:space="preserve"
         transform="rotate(-60)"><tspan
           style="font-style:normal;font-variant:normal;font-weight:normal;font-stretch:normal;font-size:4.4000001px;font-family:OCRA;-inkscape-font-specification:OCRA;stroke-width:0.25479135"
           y="12.186211"
           x="-30.564131"
           id="tspan5685"
           sodipodi:role="line">PWM</tspan></text>
<text
         id="text5691"
         y="128.13101"
         x="-60.293652"
         style="font-style:normal;font-variant:normal;font-weight:normal;font-stretch:normal;font-size:4.66666651px;line-height:6.36978388px;font-family:OCRA;-inkscape-font-specification:OCRA;letter-spacing:0px;word-spacing:0px;fill:#000000;fill-opacity:1;stroke:none;stroke-width:0.25479135"
         xml:space="preserve"
         transform="rotate(-90)"><tspan
           style="font-style:normal;font-variant:normal;font-weight:normal;font-stretch:normal;font-size:4.66666651px;font-family:OCRA;-inkscape-font-specification:OCRA;stroke-width:0.25479135"
           y="128.13101"
           x="-60.293652"
           id="tspan5689"
           sodipodi:role="line">Vo</tspan></text>
<text
         xml:space="preserve"
         style="font-style:normal;font-variant:normal;font-weight:normal;font-stretch:normal;font-size:4.66666651px;line-height:6.36978388px;font-family:OCRA;-inkscape-font-specification:OCRA;letter-spacing:0px;word-spacing:0px;fill:#000000;fill-opacity:1;stroke:none;stroke-width:0.25479135"
         x="-50.664669"
         y="128.13101"
         id="text5695"
         transform="rotate(-90)"><tspan
           sodipodi:role="line"
           id="tspan5693"
           x="-50.664669"
           y="128.13101"
           style="font-style:normal;font-variant:normal;font-weight:normal;font-stretch:normal;font-size:4.66666651px;font-family:OCRA;-inkscape-font-specification:OCRA;stroke-width:0.25479135">Rx</tspan></text>
<text
         id="text5699"
         y="128.13101"
         x="-41.064671"
         style="font-style:normal;font-variant:normal;font-weight:normal;font-stretch:normal;font-size:4.66666651px;line-height:6.36978388px;font-family:OCRA;-inkscape-font-specification:OCRA;letter-spacing:0px;word-spacing:0px;fill:#000000;fill-opacity:1;stroke:none;stroke-width:0.25479135"
         xml:space="preserve"
         transform="rotate(-90)"><tspan
           style="font-style:normal;font-variant:normal;font-weight:normal;font-stretch:normal;font-size:4.66666651px;font-family:OCRA;-inkscape-font-specification:OCRA;stroke-width:0.25479135"
           y="128.13101"
           x="-41.064671"
           id="tspan5697"
           sodipodi:role="line">Tx</tspan></text>
<text
         xml:space="preserve"
         style="font-style:normal;font-variant:normal;font-weight:normal;font-stretch:normal;font-size:4.66666651px;line-height:6.36978388px;font-family:OCRA;-inkscape-font-specification:OCRA;letter-spacing:0px;word-spacing:0px;fill:#000000;fill-opacity:1;stroke:none;stroke-width:0.25479135"
         x="-31.464672"
         y="128.13101"
         id="text5703"
         transform="rotate(-90)"><tspan
           sodipodi:role="line"
           id="tspan5701"
           x="-31.464672"
           y="128.13101"
           style="font-style:normal;font-variant:normal;font-weight:normal;font-stretch:normal;font-size:4.66666651px;font-family:OCRA;-inkscape-font-specification:OCRA;stroke-width:0.25479135">SR</tspan></text>
<text
         id="text5707"
         y="128.13101"
         x="-21.864666"
         style="font-style:normal;font-variant:normal;font-weight:normal;font-stretch:normal;font-size:4.66666651px;line-height:6.36978388px;font-family:OCRA;-inkscape-font-specification:OCRA;letter-spacing:0px;word-spacing:0px;fill:#000000;fill-opacity:1;stroke:none;stroke-width:0.25479135"
         xml:space="preserve"
         transform="rotate(-90)"><tspan
           style="font-style:normal;font-variant:normal;font-weight:normal;font-stretch:normal;font-size:4.66666651px;font-family:OCRA;-inkscape-font-specification:OCRA;stroke-width:0.25479135"
           y="128.13101"
           x="-21.864666"
           id="tspan5705"
           sodipodi:role="line">Hd</tspan></text>
<path
         style="fill:none;stroke:#000000;stroke-width:0.75;stroke-miterlimit:4;stroke-dasharray:none;stroke-opacity:1"
         d="M 20.998848,22.783192 H 48.53899 l 31.677456,21.423293 v 23.350903 c 0,2.77 -2.23,5 -5,5 H 20.998848 c -2.77,0 -5,-2.23 -5,-5 V 27.783192 c 0,-2.77 2.23,-5 5,-5 z"
         id="rect927"
         inkscape:connector-curvature="0"
         sodipodi:nodetypes="sccssssss" /></g><g
       id="copper1"><g
         id="copper0"
         transform="translate(0,-0.00998896)"><path
           inkscape:connector-curvature="0"
           id="path3278"
           style="fill:none;stroke:#ffbf00;stroke-width:1.87200093;stroke-linecap:butt;stroke-linejoin:miter;stroke-miterlimit:4;stroke-dasharray:none;stroke-opacity:1"
           d="m 6.038179,30.403114 c -1.444779,0 -2.616005,-1.171223 -2.616005,-2.615994 0,-1.444779 1.171226,-2.616 2.616005,-2.616 1.444781,0 2.616006,1.171221 2.616006,2.616 0,1.444771 -1.171225,2.615994 -2.616006,2.615994 z" /><path
           d="m 6.03818,40.003115 c -1.44478,0 -2.616005,-1.171224 -2.616005,-2.615994 0,-1.44478 1.171225,-2.616 2.616005,-2.616 1.44478,0 2.616006,1.17122 2.616006,2.616 0,1.44477 -1.171226,2.615994 -2.616006,2.615994 z"
           style="fill:none;stroke:#ffbf00;stroke-width:1.87200093;stroke-linecap:butt;stroke-linejoin:miter;stroke-miterlimit:4;stroke-dasharray:none;stroke-opacity:1"
           id="path3280"
           inkscape:connector-curvature="0" /><path
           inkscape:connector-curvature="0"
           id="path3282"
           style="fill:none;stroke:#ffbf00;stroke-width:1.87200093;stroke-linecap:butt;stroke-linejoin:miter;stroke-miterlimit:4;stroke-dasharray:none;stroke-opacity:1"
           d="m 6.03818,49.603114 c -1.44478,0 -2.616005,-1.171223 -2.616005,-2.615994 0,-1.444779 1.171225,-2.616 2.616005,-2.616 1.44478,0 2.616006,1.171221 2.616006,2.616 0,1.444771 -1.171226,2.615994 -2.616006,2.615994 z" /><path
           d="m 6.03818,59.203114 c -1.44478,0 -2.616005,-1.171224 -2.616005,-2.615994 0,-1.44478 1.171225,-2.616 2.616005,-2.616 1.44478,0 2.616006,1.17122 2.616006,2.616 0,1.44477 -1.171226,2.615994 -2.616006,2.615994 z"
           style="fill:none;stroke:#ffbf00;stroke-width:1.87200093;stroke-linecap:butt;stroke-linejoin:miter;stroke-miterlimit:4;stroke-dasharray:none;stroke-opacity:1"
           id="path3284"
           inkscape:connector-curvature="0" /><path
           inkscape:connector-curvature="0"
           id="path3286"
           style="fill:none;stroke:#ffbf00;stroke-width:1.87200093;stroke-linecap:butt;stroke-linejoin:miter;stroke-miterlimit:4;stroke-dasharray:none;stroke-opacity:1"
           d="m 120.19639,18.229291 c 0,1.44478 -1.17123,2.616005 -2.616,2.616005 -1.44478,0 -2.616,-1.171225 -2.616,-2.616005 0,-1.44478 1.17122,-2.616006 2.616,-2.616006 1.44477,0 2.616,1.171226 2.616,2.616006 z" /><path
           d="m 120.19639,27.829291 c 0,1.44478 -1.17123,2.616005 -2.616,2.616005 -1.44478,0 -2.616,-1.171225 -2.616,-2.616005 0,-1.44478 1.17122,-2.616006 2.616,-2.616006 1.44477,0 2.616,1.171226 2.616,2.616006 z"
           style="fill:none;stroke:#ffbf00;stroke-width:1.87200093;stroke-linecap:butt;stroke-linejoin:miter;stroke-miterlimit:4;stroke-dasharray:none;stroke-opacity:1"
           id="path3288"
           inkscape:connector-curvature="0" /><path
           inkscape:connector-curvature="0"
           id="path3290"
           style="fill:none;stroke:#ffbf00;stroke-width:1.87200093;stroke-linecap:butt;stroke-linejoin:miter;stroke-miterlimit:4;stroke-dasharray:none;stroke-opacity:1"
           d="m 120.19639,37.429291 c 0,1.44478 -1.17123,2.616005 -2.616,2.616005 -1.44478,0 -2.616,-1.171225 -2.616,-2.616005 0,-1.44478 1.17122,-2.616006 2.616,-2.616006 1.44477,0 2.616,1.171226 2.616,2.616006 z" /><path
           d="m 120.19639,47.029291 c 0,1.44478 -1.17123,2.616005 -2.616,2.616005 -1.44478,0 -2.616,-1.171225 -2.616,-2.616005 0,-1.44478 1.17122,-2.616006 2.616,-2.616006 1.44477,0 2.616,1.171226 2.616,2.616006 z"
           style="fill:none;stroke:#ffbf00;stroke-width:1.87200093;stroke-linecap:butt;stroke-linejoin:miter;stroke-miterlimit:4;stroke-dasharray:none;stroke-opacity:1"
           id="path3292"
           inkscape:connector-curvature="0" /><path
           inkscape:connector-curvature="0"
           id="path3294"
           style="fill:none;stroke:#ffbf00;stroke-width:1.87200093;stroke-linecap:butt;stroke-linejoin:miter;stroke-miterlimit:4;stroke-dasharray:none;stroke-opacity:1"
           d="m 120.19639,56.629293 c 0,1.44478 -1.17123,2.616 -2.616,2.616 -1.44478,0 -2.616,-1.17122 -2.616,-2.616 0,-1.444782 1.17122,-2.616008 2.616,-2.616008 1.44477,0 2.616,1.171226 2.616,2.616008 z" /></g></g></g></svg>