<?xml version="1.0" encoding="UTF-8"?>
<svg width="2.39in" height="2.39in" baseProfile="tiny" version="1.2" viewBox="0 0 239 239" xmlns="http://www.w3.org/2000/svg">
	<desc>60.2mm (2.4 inch) 8x8 LED matrix footprint with standard connection pads</desc>
	<g id="silkscreen" fill="none" stroke="#000" stroke-width="2">
		<path d="m1 3v46h2v49h-2v45h2v49h-2v46h46v-2h49v2h45v-2h49v2h46v-48h2v-45h-2v-49h2v-45h-2v-48h-48v-2h-45v2h-49v-2h-45v2z" stroke-miterlimit="10"/>
	</g>
	<!-- offset origin to the center of the top, left pin (16) -->
	<!-- (237-70)/2 = 83.5 , (237-180)/2 + 2 = 30.5 -->
	<g id="copper1" transform="translate(83.5,30.5)">
		<g id="copper0">
			<!-- standard (recommended minimum) through hole connection pads -->
			<g fill="none" stroke="#f7bd13" stroke-width="2">
				<circle id="connector15pad" r="3"/>
				<circle id="connector14pad" cx="10" r="3"/>
				<circle id="connector13pad" cx="20" r="3"/>
				<circle id="connector12pad" cx="30" r="3"/>
				<circle id="connector11pad" cx="40" r="3"/>
				<circle id="connector10pad" cx="50" r="3"/>
				<circle id="connector9pad" cx="60" r="3"/>
				<circle id="connector8pad" cx="70" r="3"/>
				<!-- 1800 mils -->
				<g transform="translate(0,180)">
					<circle id="connector0pad" r="3"/>
					<!-- pin 1 special marker pad -->
					<rect x="-3" y="-3" width="6" height="6"/>
					<circle id="connector1pad" cx="10" r="3"/>
					<circle id="connector2pad" cx="20" r="3"/>
					<circle id="connector3pad" cx="30" r="3"/>
					<circle id="connector4pad" cx="40" r="3"/>
					<circle id="connector5pad" cx="50" r="3"/>
					<circle id="connector6pad" cx="60" r="3"/>
					<circle id="connector7pad" cx="70" r="3"/>
				</g>
			</g>
		</g>
	</g>
  <g id="keepout"/>
  <g id="soldermask"/>
  <g id="outline"/>
</svg>