<?xml version='1.0' encoding='UTF-8' standalone='no'?>
<svg
  xmlns="http://www.w3.org/2000/svg"
  xmlns:svg="http://www.w3.org/2000/svg"
  data-name="Ebene 1" height="2.9699342in"
  id="Ebene_1"
  version="1.1"
  viewBox="0 0 3364.6961 2969.9342"
  width="3.364696in">
  <desc
    id="desc1">
    <referenceFile>calliope-mini-3_2_1_pcb.svg</referenceFile>
  </desc>
  <defs
    id="defs53">
    <style
      id="style2">
      .cls-1
        {
        fill:
          #b7b084;
      }
      .cls-1,
        .cls-2,
        .cls-3,
        .cls-4,
        .cls-5,
        .cls-6,
        .cls-7,
        .cls-8,
        .cls-9,
        .cls-10,
        .cls-11,
        .cls-12,
        .cls-13,
        .cls-14,
        .cls-15,
        .cls-16,
        .cls-17,
        .cls-18,
        .cls-19,
        .cls-20,
        .cls-21,
        .cls-22,
        .cls-23,
        .cls-24,
        .cls-25,
        .cls-26,
        .cls-27,
        .cls-28,
        .cls-29
        {
        stroke-width:
          0px;
      }
      .cls-2
        {
        fill:
          #f2ea9f;
      }
      .cls-3
        {
        fill:
          #e6e1c1;
      }
      .cls-4
        {
        fill:
          #b4b5b5;
      }
      .cls-30
        {
        mask:
          url(#mask);
      }
      .cls-5
        {
        fill:
          #ffd800;
      }
      .cls-31
        {
        filter:
          url(#luminosity-noclip);
      }
      .cls-6
        {
        fill:
          #e9e7e6;
      }
      .cls-7
        {
        fill:
          #e5dfbf;
      }
      .cls-8
        {
        fill:
          #c67c11;
      }
      .cls-9
        {
        fill:
          #6c6e6e;
      }
      .cls-10
        {
        fill:
          #c53c3a;
      }
      .cls-11
        {
        fill:
          #4e4f51;
      }
      .cls-11,
        .cls-32,
        .cls-24
        {
        fill-rule:
          evenodd;
      }
      .cls-12
        {
        fill:
          #d3cba5;
      }
      .cls-33
        {
        stroke:
          #010101;
      }
      .cls-33,
        .cls-32,
        .cls-34
        {
        stroke-miterlimit:
          10;
      }
      .cls-33,
        .cls-23,
        .cls-24,
        .cls-25
        {
        fill:
          #fff;
      }
      .cls-32,
        .cls-34
        {
        stroke:
          #000100;
      }
      .cls-32,
        .cls-34,
        .cls-22
        {
        fill:
          #000100;
      }
      .cls-13
        {
        fill:
          #faf1a9;
      }
      .cls-14
        {
        fill:
          #c3c6c7;
      }
      .cls-15
        {
        fill:
          #010101;
      }
      .cls-16
        {
        fill:
          #ebe6e6;
      }
      .cls-17
        {
        fill:
          #181717;
      }
      .cls-18
        {
        fill:
          #d8d7d6;
      }
      .cls-19
        {
        fill:
          #d5d1d0;
      }
      .cls-20
        {
        fill:
          #3ba6c7;
      }
      .cls-21
        {
        fill:
          #d1c9a3;
      }
      .cls-35,
        .cls-23
        {
        opacity:
          .9;
      }
      .cls-36
        {
        display:
          none;
      }
      .cls-26
        {
        fill:
          #5a5a5a;
      }
      .cls-27
        {
        fill:
          #c7cace;
      }
      .cls-28
        {
        fill:
          #f6c546;
      }
      .cls-29
        {
        fill:
          #1e1e22;
      }
    </style>
    <symbol
      data-name="Calliope_3_LED 2"
      id="Calliope_3_LED_2"
      viewBox="0 0 2.3 4.8">
      <g id="g16">
        <polygon
          class="cls-13" id="polygon4"
          points="2.3,4 0,4 0,0.8 2.3,0.8 "
        />
        <polygon
          class="cls-16" id="polygon6"
          points="2.3,4 0,4 0,4.4 2.3,4.4 "
        />
        <polygon
          class="cls-18" id="polygon8"
          points="2.3,4.4 0,4.4 0,4.8 2.3,4.8 "
        />
        <polygon
          class="cls-18" id="polygon10"
          points="2.3,0 0,0 0,0.4 2.3,0.4 "
        />
        <polygon
          class="cls-16" id="polygon12"
          points="2.3,0.4 0,0.4 0,0.8 2.3,0.8 "
        />
        <circle
          class="cls-2"
          cx="1.1"
          cy="2.4000001" id="circle14"
          r="0.1"
        />
      </g>
    </symbol>
    <symbol
      data-name="Calliope_3_Small_LED 2"
      id="Calliope_3_Small_LED_2"
      viewBox="0 0 1.4 2.8">
      <g id="g31">
        <polygon
          class="cls-13" id="polygon19"
          points="1.4,2.3 0,2.3 0,0.5 1.4,0.5 "
        />
        <polygon
          class="cls-16" id="polygon21"
          points="1.4,2.3 0,2.3 0,2.6 1.4,2.6 "
        />
        <polygon
          class="cls-18" id="polygon23"
          points="1.4,2.6 0,2.6 0,2.8 1.4,2.8 "
        />
        <polygon
          class="cls-18" id="polygon25"
          points="1.4,0 0,0 0,0.2 1.4,0.2 "
        />
        <polygon
          class="cls-16" id="polygon27"
          points="1.4,0.2 0,0.2 0,0.5 1.4,0.5 "
        />
        <circle
          class="cls-2"
          cx="0.69999999"
          cy="1.4" id="circle29"
          r="0.1"
        />
      </g>
    </symbol>
    <filter
      color-interpolation-filters="sRGB"
      filterUnits="userSpaceOnUse"
      height="158.89999"
      id="luminosity-noclip"
      width="211"
      x="569.40002"
      y="364.70001">
      <feFlood
        flood-color="#fff"
        id="feFlood34"
        result="bg"
      />
      <feBlend
        id="feBlend36"
        in="SourceGraphic"
        in2="bg"
        mode="normal"
      />
    </filter>
    <mask
      id="mask1"
      maskUnits="userSpaceOnUse">
      <g id="g6">
        <g
          class="cls-31" id="g5">
          <g id="g4">
            <path
              class="cls-32"
              d="m 689.8,431.7 -9.6,-9.6 11.5,-11.5 9.6,9.6 z" id="path1"
            />
            <path
              class="cls-32"
              d="m 663.5,449.9 v 0.9 c -0.1,0 -0.7,1.1 -0.7,1.1 l -0.9,0.9 -1.1,0.5 h -0.9 c 0,0.1 -16.9,0.1 -16.9,0.1 h -0.9 c 0,-0.1 -1.1,-0.7 -1.1,-0.7 l -0.9,-0.9 -0.5,-1.1 v -0.9 c -0.1,0 -0.1,-16.9 -0.1,-16.9 V 432 c 0.1,0 0.7,-1.1 0.7,-1.1 l 0.9,-0.9 1.1,-0.5 h 0.9 c 0,-0.1 16.9,-0.1 16.9,-0.1 h 0.9 c 0,0.1 1.1,0.7 1.1,0.7 l 0.9,0.9 0.5,1.1 v 0.9 c 0.1,0 0.1,16.9 0.1,16.9 z" id="path2"
            />
            <path
              class="cls-34"
              d="m 586.4,523 h 55.8 c 0.6,0 1.1,-0.2 1.5,-0.6 l 14.5,-14.5 c 0.4,-0.4 0.6,-0.9 0.6,-1.5 v -55.8 c 0,-0.6 -0.2,-1.1 -0.6,-1.5 l -14.5,-14.5 c -0.4,-0.4 -0.9,-0.6 -1.5,-0.6 h -55.8 c -0.6,0 -1.1,0.2 -1.5,0.6 l -14.5,14.5 c -0.4,0.4 -0.6,0.9 -0.6,1.5 v 55.8 c 0,0.6 0.2,1.1 0.6,1.5 l 14.5,14.5 c 0.4,0.4 0.9,0.6 1.5,0.6 z" id="path3"
            />
            <polygon
              class="cls-34" id="polygon3"
              points="689.5,417.1 688.7,417.9 688.1,418.4 684.1,422.5 689.3,427.7 693.1,423.9 693.3,423.6 695.4,421.5 696.1,420.8 697,419.9 700.4,416.6 695.2,411.4 690.9,415.6 690.3,416.3 690,416.6 "
            />
            <path
              class="cls-34"
              d="m 694.1,410.3 1.1,1.1 5.2,5.2 28.1,28.1 5.2,5.2 1.1,1.1 c 1,1 2.7,1 3.7,0 l 40.6,-40.6 c 1,-1 1,-2.7 0,-3.7 l -1.1,-1.1 -5.2,-5.2 -28.1,-28.1 -5.2,-5.2 -1.1,-1.1 c -1,-1 -2.7,-1 -3.7,0 L 694,406.7 c -1,1 -1,2.7 0,3.7 z m 46.2,-30.2 c -2,2.1 -5.3,2.1 -7.4,0 -2.1,-2 -2.1,-5.3 0,-7.4 2,-2 5.3,-2 7.4,0 2,2 2,5.3 0,7.4 z m 24.6,24.6 c 2,-2.1 5.3,-2.1 7.4,0 2,2 2,5.3 0,7.4 -2,2.1 -5.3,2.1 -7.4,0 -2.1,-2 -2.1,-5.3 0,-7.4 z m -32,32.1 c 2,-2.1 5.3,-2.1 7.4,0 2,2 2,5.3 0,7.4 -2,2 -5.3,2 -7.4,0 -2.1,-2 -2.1,-5.3 0,-7.4 z m -9.3,-41.3 c 7.2,-7.2 18.7,-7.2 25.9,0 7.1,7.2 7.1,18.7 0,25.9 -7.2,7.1 -18.7,7.1 -25.9,0 -7.2,-7.2 -7.2,-18.7 0,-25.9 z m -22.7,9.2 c 2,-2.1 5.3,-2.1 7.4,0 2.1,2 2.1,5.3 0,7.4 -2,2.1 -5.3,2.1 -7.4,0 -2.1,-2 -2.1,-5.3 0,-7.4 z" id="path4"
            />
          </g>
        </g>
      </g>
    </mask>
  </defs>
  <g
    id="silkscreen">
    <path
      class="cls-29"
      d="m 3245.7785,1652.8068 c -2.6342,1.129 -5.6448,1.8816 -8.2791,2.6342 -3.7633,1.129 -7.1501,2.2579 -10.9133,3.0107 -1.129,0 -2.6343,0.3762 -3.7633,0.7527 -3.7632,1.1288 -7.5264,1.5052 -11.666,2.2578 -3.7632,0.3765 -7.5264,1.1289 -11.666,1.1289 -1.1289,0 -2.6342,0.3765 -3.7632,0.3765 -3.7632,0 -7.9027,0.3762 -12.0423,0.3762 -99.7253,0 -180.6346,-80.9092 -180.6346,-180.6346 0,-99.7253 7.5264,-58.3299 20.3213,-83.1672 8.6556,-16.5581 19.5689,-31.2347 32.3638,-44.406 1.129,-1.1289 2.2579,-2.2578 3.0106,-3.0105 1.8815,-2.258 4.1395,-4.1395 6.3974,-5.6449 1.5053,-1.5053 3.3869,-2.6342 4.8922,-4.1395 3.0106,-2.6343 6.3974,-4.8922 9.408,-7.1501 3.0106,-2.2579 6.3975,-4.516 10.1608,-6.3975 3.0106,-1.8817 6.3975,-3.7632 9.408,-5.2686 3.0106,-1.5053 6.3975,-3.3868 9.7844,-4.8921 3.3869,-1.5053 6.7738,-3.0106 10.1607,-4.1395 5.6448,-2.258 11.2897,-4.1396 16.9345,-5.2686 2.258,-0.3763 4.1395,-1.129 6.3975,-1.5053 4.1395,-1.129 8.6554,-1.8815 13.1712,-2.6342 5.2686,-0.7527 10.1606,-1.5053 15.4293,-1.5053 h 5.2684 6.7739 c 8.2791,0 16.5581,0.3763 24.4609,1.5053 1.8817,0 3.7632,0.3763 5.2685,0.7527 9.408,1.5053 19.1924,3.7632 27.8479,6.7737 -437.6627,-176.1188 -698.454,-629.21059 -630.3396,-1096.22637 -0.7527,4.13954 -1.5053,8.65542 -2.6343,12.79495 -2.2579,9.03174 -5.2685,18.06347 -9.0317,26.71887 -1.5054,3.01058 -3.0106,6.39749 -4.5159,9.40805 -1.5053,2.63426 -3.0106,5.26852 -4.5158,7.90277 -1.8817,3.3869 -3.7632,6.7738 -6.0212,10.16069 -1.8816,2.63427 -3.7632,5.26853 -5.2686,7.90278 -2.2578,3.01058 -4.1395,5.64483 -6.3974,8.27908 -2.2579,2.63425 -4.1395,4.89219 -6.3974,7.52645 -2.258,2.63425 -4.8922,4.89218 -7.1502,7.15012 -2.2579,2.25793 -4.8922,4.51587 -7.5264,6.77379 -2.6344,2.25794 -5.2686,4.13955 -7.9028,6.39748 -2.6343,2.25794 -5.2685,4.13955 -7.9027,6.02116 -2.6344,1.88161 -5.6449,3.7632 -8.6555,5.2685 -3.7632,2.25794 -7.5265,4.13953 -11.2896,6.39746 -3.7632,1.88163 -7.5265,3.76323 -11.666,5.26855 -1.5054,0.75262 -3.0106,1.50525 -4.8922,1.88159 -15.4293,6.02116 -31.6111,10.16069 -48.9218,11.66599 -5.6449,0.37634 -11.6661,0.75264 -17.3109,0.75264 -36.5033,0 -70.3723,-10.91333 -98.9728,-29.35312 -19.945,-13.17127 -36.8795,-29.72945 -50.4272,-49.2982 -19.945,-28.9768 -31.611,-63.97477 -31.611,-101.98329 v -10.16071 c 0,-1.88161 0,-3.76322 0.3764,-5.26851 0,-3.01058 0.7526,-6.39748 1.129,-9.40805 0,-1.88162 0.3762,-3.76323 0.7526,-5.64483 0,-1.88162 0.7526,-4.13955 1.1289,-6.02116 0.7527,-3.3869 1.5053,-6.77379 2.6342,-10.53702 1.1291,-4.51587 2.6343,-9.03173 4.1397,-13.17128 0.3763,-1.50528 1.129,-3.01058 1.5052,-4.13954 0.3764,-1.88161 1.129,-3.3869 2.2579,-5.26851 1.5053,-3.76322 3.0106,-7.15012 4.8922,-10.53703 1.8816,-3.38689 3.7632,-6.773789 5.6449,-10.160689 5.6448,-10.160697 12.4186,-19.568749 19.945,-28.224159 2.6343,-2.634253 5.2686,-5.644832 7.9028,-8.279085 2.6343,-2.634256 2.6343,-2.634256 4.1395,-4.139546 1.5053,-1.505287 2.6343,-2.634253 4.1397,-3.763219 3.0105,-2.634256 5.6447,-4.89219 8.6553,-7.150122 v 0 c 3.0105,-2.257932 6.0212,-4.515865 9.0317,-6.773798 2.6342,-1.881613 5.2686,-3.763222 8.2791,-5.268512 -2.6342,1.50529 -4.8921,3.010579 -7.5264,4.515865 -4.1396,2.634257 -8.2791,5.268513 -12.0423,8.655412 C 2184.1737,150.15254 2028.7527,226.54593 1862.4183,267.18872 v 263.42549 c 0,4.13956 -2.258,7.90277 -6.0212,10.1607 -5.6449,3.38689 -12.795,1.5053 -16.1817,-4.13953 -2.2581,-3.76324 -6.0213,-5.64484 -10.1609,-5.64484 h -299.1761 c -4.1395,0 -8.279,2.25794 -10.1606,5.64484 -2.2579,3.76323 -6.0212,6.02117 -10.1607,6.02117 -6.3976,0 -12.0423,-5.26854 -12.0423,-11.66601 V 267.56504 C 1340.0832,228.80386 1191.4359,157.67898 1061.981,58.706253 c 3.0107,3.01058 5.6449,6.021155 8.2791,9.408055 l 0.3764,0.376323 c 2.6342,3.3869 5.2685,6.773798 7.9028,10.537017 1.5052,1.881613 2.6341,3.763223 3.7632,6.021156 1.5053,2.634255 3.0106,4.892188 4.5158,7.526441 1.5054,2.634256 3.0107,4.892189 4.1395,7.526445 7.9028,15.05289 13.924,31.61106 16.9345,48.92187 0.3765,1.88161 0.7527,3.76323 1.129,5.64484 0.3764,3.38689 1.129,6.7738 1.129,10.16069 0,2.25794 0.3764,4.89219 0.3764,7.15013 v 0.75265 0 c 0,3.76321 0.3762,7.15011 0.3762,10.91333 0,100.47801 -81.2855,181.38728 -181.38722,181.38728 h -9.40806 c -7.52643,0 -14.67657,-1.12897 -21.82666,-2.25793 -4.51586,-0.75264 -8.65544,-1.5053 -13.1713,-2.63427 -5.64483,-1.50527 -10.91334,-3.01056 -16.18183,-4.8922 -4.8922,-1.50526 -9.40806,-3.3869 -13.92393,-5.64483 -4.13953,-1.8816 -8.6554,-3.7632 -12.41864,-6.02114 -0.75262,0 -1.50529,-0.75266 -2.25791,-1.12896 -3.76325,-2.25793 -7.52644,-4.51586 -11.28967,-6.7738 -4.13953,-2.63425 -7.90276,-5.64484 -12.04231,-8.65541 -2.63427,-2.25794 -5.64483,-4.51587 -8.27909,-6.7738 -2.63426,-2.63426 -5.64484,-4.89219 -8.2791,-7.52644 -8.27907,-8.27909 -15.4292,-17.31082 -22.20299,-27.0952 -1.12898,-1.50529 -2.25794,-3.3869 -3.3869,-5.26851 -1.50531,-2.25793 -3.01057,-4.51586 -4.13954,-6.77379 -1.12897,-2.25794 -2.63426,-4.51587 -3.76323,-6.7738 -1.12897,-2.63426 -2.63427,-4.89219 -3.76323,-7.52644 -2.63424,-5.64484 -4.89218,-11.66599 -6.7738,-17.68714 -0.75263,-1.88162 -1.12896,-3.76322 -1.88161,-5.64484 -0.75262,-2.63426 -1.50529,-5.26851 -2.25791,-7.90276 -1.12898,-3.76323 -1.88161,-7.90277 -2.63428,-11.66599 l -0.75264,-4.89219 v -1.12897 2.63426 C 819.25331,679.26148 561.47264,1133.106 126.44423,1311.859 c 10.53703,-3.0106 21.82669,-5.2686 33.11636,-6.3975 3.01058,-0.3763 5.64484,-0.3763 8.65541,-0.7526 h 9.40805 c 49.67452,0 94.45686,19.945 127.19688,51.9324 33.49268,32.74 54.56671,78.6514 54.56671,129.4548 0,100.478 -81.28558,181.3872 -181.38726,181.3872 -100.101699,0 -12.41864,0 -18.43979,-1.1289 -3.01058,0 -6.02115,-0.7526 -9.03174,-1.1289 -3.01057,-0.3763 -6.02114,-1.1289 -9.03173,-1.5054 -5.64483,-1.129 -11.66598,-2.6342 -17.3108,-4.5157 -5.64484,-1.8817 -11.28967,-3.7634 -16.5582,-6.0212 1.50531,0.7526 2.63427,1.1289 4.13956,1.8816 435.78102,170.8503 698.4539,614.9103 641.62924,1077.0339 0.75264,-2.6342 1.5053,-5.2684 2.63428,-7.9028 0.37629,-1.5053 0.75262,-2.6342 1.50525,-4.1394 0.37634,-1.5054 1.12897,-3.0106 1.88164,-4.516 1.12896,-2.6343 2.25794,-5.6448 3.7632,-8.2791 0,-0.3763 0.37633,-1.1289 0.75266,-1.5052 1.12898,-2.258 2.25794,-4.1395 3.38691,-6.3975 0,0 0,-0.7527 0.37628,-1.1289 1.88164,-3.7632 4.13958,-7.5265 6.39752,-11.2897 0.75263,-1.129 1.50526,-2.2579 2.25793,-3.0106 0,-0.3763 0.75262,-1.129 1.12897,-1.5052 1.50525,-1.8817 2.63422,-3.7633 4.13953,-5.6449 3.01056,-4.516 6.39745,-8.6554 10.53702,-12.7949 0,0 0.3763,-0.7527 1.12898,-1.129 0,-0.3763 0.37629,-0.7527 0.75262,-1.1289 1.5053,-1.8817 3.3869,-3.7633 5.2685,-5.2686 v 0 c 2.25793,-2.258 4.13957,-4.1396 6.39751,-6.0212 2.25792,-2.2579 4.13953,-4.1395 6.77379,-5.6447 2.25793,-1.8817 4.51586,-3.7633 7.1501,-5.2687 0.37633,-0.3762 1.12896,-1.1289 1.50531,-1.5052 1.88159,-1.5053 3.76323,-2.6343 5.64482,-3.7632 9.03173,-6.3974 18.81609,-11.6661 28.97679,-15.8055 6.39751,-2.6343 12.79497,-5.2686 19.19243,-7.1502 8.65543,-2.6342 17.68717,-4.8921 26.7189,-6.3974 3.01056,-0.3764 6.39746,-0.7526 9.40803,-1.129 6.39749,-0.7526 12.41863,-1.129 18.81613,-1.129 6.39746,0 12.04229,0 18.06346,1.129 2.63424,0 4.89215,0.3764 7.15009,0.7526 2.63428,0 4.8922,0.7527 7.15013,1.1289 2.25794,0.3764 4.89221,1.129 7.15014,1.5054 11.66596,2.6343 22.95562,6.3975 33.86906,10.9133 4.1395,1.8817 8.6553,3.7633 12.7949,6.0212 4.1396,2.2579 8.279,4.5158 12.0423,6.7738 4.1395,2.6342 7.9028,5.2684 11.666,7.9028 4.1395,3.0105 8.2791,6.3974 12.4185,9.7844 3.0107,2.6342 5.6449,5.2685 8.6555,7.9027 l 0.3763,0.3764 c 2.6343,2.6342 5.2686,5.2684 7.5265,7.9027 1.129,1.1289 2.2579,2.6343 3.3869,3.7632 2.6342,3.0106 4.8922,6.0211 7.5264,9.408 2.6343,3.0107 4.8922,6.3975 6.7739,10.1607 2.6342,4.1397 5.2684,9.0318 7.9027,13.5477 1.8817,3.3869 3.7631,7.1501 5.2686,10.9133 0.3762,1.129 1.1289,2.2579 1.5052,3.0105 1.5053,3.7633 3.0106,7.5266 4.1395,11.2898 0,0.3763 0.3764,0.7525 0.3764,1.5052 1.5053,4.1395 2.6343,8.6554 3.7632,13.1713 l -25.5899,-144.1314 c -3.0106,-18.0634 6.3974,-35.7505 22.9556,-43.2771 l 27.0952,-4.8922 c 21.4504,-3.7632 41.7718,10.5371 45.5351,31.9875 l 27.8478,158.808 c 3.0105,16.9344 19.1924,28.6004 36.5031,25.5899 v 0 l 185.9032,-32.74 7.9028,-1.5055 c 16.9345,-3.0105 28.6004,-19.1924 25.5899,-36.5032 l -26.7189,-151.2814 -1.5053,-7.9028 c -3.7632,-21.4504 10.537,-41.7718 31.6111,-45.535 l 25.2136,-4.5159 c 19.1924,0 35.3743,13.5477 38.7612,32.3637 l 27.8478,157.3028 c 3.3868,19.945 21.8267,33.8689 41.7717,32.3636 52.3088,-4.1396 105.3703,-4.1396 157.679,0 20.3214,1.5053 38.3849,-12.4186 41.7718,-32.3636 l 27.8478,-157.3028 c 3.0106,-18.0634 18.4397,-31.611 36.8797,-32.74 l 27.0951,4.8922 c 21.4504,3.7632 35.7506,24.0846 31.9874,45.535 l -28.2242,158.808 c -3.0105,16.9345 8.279,33.4927 25.5899,36.5032 v 0 l 185.9031,32.74 7.9028,1.5052 c 17.3108,3.0106 33.4927,-8.6553 36.5032,-25.5899 l 26.7188,-151.2814 1.5055,-7.9028 c 3.7632,-21.4504 24.0845,-35.7505 45.5349,-31.9874 l 25.59,4.5159 c 17.687,6.7738 28.224,24.8372 24.8372,43.6534 l -24.461,137.7339 c 0.7527,-2.258 1.5053,-4.8922 2.2579,-7.1501 2.258,-6.3975 4.516,-12.795 7.5265,-18.8162 3.0106,-7.5264 7.1501,-14.3003 11.2896,-21.0739 2.6343,-4.1397 5.2686,-8.2792 8.2791,-12.0423 17.6872,-23.7084 41.0191,-43.2771 67.738,-56.0721 2.6344,-1.5053 5.2685,-2.6343 7.9028,-3.7632 2.6343,-1.129 5.6449,-2.258 8.2791,-3.3869 3.0105,-1.1289 5.6449,-2.2579 8.6554,-3.0106 7.9028,-2.6342 15.8055,-4.5159 23.7083,-5.6449 2.6343,-0.3762 4.8922,-0.7526 7.5265,-1.1289 4.5158,-0.7526 9.0317,-1.129 13.9239,-1.129 h 9.408 9.4081 c 3.0106,0 6.3974,0.3764 9.408,0.7526 2.6343,0 5.2685,0.3764 7.9027,1.1291 3.7633,0.3762 7.1501,1.129 10.9134,1.8816 2.6343,0.3763 4.8922,1.1289 7.15,1.8815 6.0212,1.5053 12.0425,3.0107 17.6873,5.2686 2.6342,0.7526 4.8921,1.8816 7.15,2.6342 4.8922,1.8816 9.4082,4.1396 13.924,6.3975 2.2579,1.129 4.5158,2.258 6.7738,3.3869 3.0106,1.8816 6.0211,3.387 8.6554,5.2686 1.5054,0.7525 3.0106,1.8815 4.5159,2.6341 2.258,1.5054 4.5159,3.0106 6.7738,4.8922 2.6342,1.8817 5.2685,4.1396 7.9027,6.3976 1.8817,1.5052 3.7632,3.0105 5.6449,4.8922 10.5371,9.408 19.945,20.3213 27.8478,31.9873 1.129,1.5053 1.8817,2.6342 2.6343,4.1396 5.2685,7.9027 9.7843,15.8055 13.5476,24.8372 0.7526,1.5054 1.5053,3.0106 2.2579,4.8922 3.0106,7.1501 5.2685,14.3002 7.5265,22.203 0.7525,2.258 1.1289,4.5158 1.8815,6.7737 -63.222,-465.134 199.4508,-915.2153 636.3609,-1089.0762 z" id="Platine"
      fill="none"
      stroke="#000000"
      stroke-width="10"
    />
  </g>
  <g
    id="copper1">
    <g
      id="copper0">
      <circle
        id="connector0pin"
        cx="934.00006"
        cy="182"
        fill="none"
        stroke="#f7bd13"
        stroke-width="100"
        r="132"
      />
      <circle
        id="connector5pin"
        cx="182"
        cy="1484"
        r="132"
        fill="none"
        stroke="#f7bd13"
        stroke-width="100"
      />
      <circle
        id="connector6pin"
        cx="930.00006"
        cy="2782"
        r="132"
        fill="none"
        stroke="#f7bd13"
        stroke-width="100"
      />
      <circle
        id="connector7pin"
        cx="1002"
        cy="2165.2542"
        r="29"
        fill="none"
        stroke="#f7bd13"
        stroke-width="20"
      />
      <circle
        id="connector8pin"
        cx="1102"
        cy="2165.2542"
        r="29"
        fill="none"
        stroke="#f7bd13"
        stroke-width="20"
      />
      <circle
        id="connector9pin"
        cx="1202"
        cy="2165.2542"
        r="29"
        fill="none"
        stroke="#f7bd13"
        stroke-width="20"
      />
      <circle
        id="connector10pin"
        cx="1302"
        cy="2165.2542"
        r="29"
        fill="none"
        stroke="#f7bd13"
        stroke-width="20"
      />
      <circle
        id="connector11pin"
        cx="1402"
        cy="2165.2542"
        r="29"
        fill="none"
        stroke="#f7bd13"
        stroke-width="20"
      />
      <circle
        id="connector12pin"
        cx="1502"
        cy="2165.2542"
        r="29"
        fill="none"
        stroke="#f7bd13"
        stroke-width="20"
      />
      <circle
        id="connector13pin"
        cx="1602"
        cy="2165.2542"
        r="29"
        fill="none"
        stroke="#f7bd13"
        stroke-width="20"
      />
      <circle
        id="connector14pin"
        cx="1702"
        cy="2165.2542"
        r="29"
        fill="none"
        stroke="#f7bd13"
        stroke-width="20"
      />
      <circle
        id="connector15pin"
        cx="1802"
        cy="2165.2542"
        r="29"
        fill="none"
        stroke="#f7bd13"
        stroke-width="20"
      />
      <circle
        id="connector16pin"
        cx="1902"
        cy="2165.2542"
        r="29"
        fill="none"
        stroke="#f7bd13"
        stroke-width="20"
      />
      <circle
        id="connector17pin"
        cx="2002"
        cy="2165.2542"
        r="29"
        fill="none"
        stroke="#f7bd13"
        stroke-width="20"
      />
      <circle
        id="connector18pin"
        cx="2102"
        cy="2165.2542"
        r="29"
        fill="none"
        stroke="#f7bd13"
        stroke-width="20"
      />
      <circle
        id="connector19pin"
        cx="2202"
        cy="2165.2542"
        r="29"
        fill="none"
        stroke="#f7bd13"
        stroke-width="20"
      />
      <circle
        id="connector20pin"
        cx="2302"
        cy="2165.2542"
        r="29"
        fill="none"
        stroke="#f7bd13"
        stroke-width="20"
      />
      <circle
        id="connector21pin"
        cx="2402"
        cy="2165.2542"
        r="29"
        fill="none"
        stroke="#f7bd13"
        stroke-width="20"
      />
      <circle
        id="connector22pin"
        cx="1002"
        cy="2265"
        r="29"
        fill="none"
        stroke="#f7bd13"
        stroke-width="20"
      />
      <circle
        id="connector23pin"
        cx="1102"
        cy="2265"
        r="29"
        fill="none"
        stroke="#f7bd13"
        stroke-width="20"
      />
      <circle
        id="connector24pin"
        cx="1202"
        cy="2265"
        r="29"
        fill="none"
        stroke="#f7bd13"
        stroke-width="20"
      />
      <circle
        id="connector25pin"
        cx="1302"
        cy="2265"
        r="29"
        fill="none"
        stroke="#f7bd13"
        stroke-width="20"
      />
      <circle
        id="connector26pin"
        cx="1402"
        cy="2265"
        r="29"
        fill="none"
        stroke="#f7bd13"
        stroke-width="20"
      />
      <circle
        id="connector27pin"
        cx="1502"
        cy="2265"
        r="29"
        fill="none"
        stroke="#f7bd13"
        stroke-width="20"
      />
      <circle
        id="connector28pin"
        cx="1602"
        cy="2265"
        r="29"
        fill="none"
        stroke="#f7bd13"
        stroke-width="20"
      />
      <circle
        id="connector29pin"
        cx="1702"
        cy="2265"
        r="29"
        fill="none"
        stroke="#f7bd13"
        stroke-width="20"
      />
      <circle
        id="connector30pin"
        cx="1802"
        cy="2265"
        r="29"
        fill="none"
        stroke="#f7bd13"
        stroke-width="20"
      />
      <circle
        id="connector31pin"
        cx="1902"
        cy="2265"
        r="29"
        fill="none"
        stroke="#f7bd13"
        stroke-width="20"
      />
      <circle
        id="connector32pin"
        cx="2002"
        cy="2265"
        r="29"
        fill="none"
        stroke="#f7bd13"
        stroke-width="20"
      />
      <circle
        id="connector33pin"
        cx="2102"
        cy="2265"
        r="29"
        fill="none"
        stroke="#f7bd13"
        stroke-width="20"
      />
      <circle
        id="connector34pin"
        cx="2202"
        cy="2265"
        r="29"
        fill="none"
        stroke="#f7bd13"
        stroke-width="20"
      />
      <circle
        id="connector35pin"
        cx="2302"
        cy="2265"
        r="29"
        fill="none"
        stroke="#f7bd13"
        stroke-width="20"
      />
      <circle
        id="connector36pin"
        cx="2402"
        cy="2265"
        r="29"
        fill="none"
        stroke="#f7bd13"
        stroke-width="20"
      />
      <circle
        id="connector43pin"
        cx="2428"
        cy="2781"
        r="132"
        fill="none"
        stroke="#f7bd13"
        stroke-width="100"
      />
      <circle
        id="connector46pin"
        cx="3185.0002"
        cy="1485"
        r="132"
        fill="none"
        stroke="#f7bd13"
        stroke-width="100"
      />
      <circle
        id="connector51pin"
        cx="2435"
        cy="184"
        r="132"
        fill="none"
        stroke="#f7bd13"
        stroke-width="100"
      />
    </g>
  </g>
</svg>
