<?xml version="1.0" encoding="UTF-8" standalone="no"?>
<!-- Creator: CorelDRAW X6 -->

<svg
   clip-rule="evenodd"
   fill-rule="evenodd"
   height="0.15175289in"
   image-rendering="optimizeQuality"
   shape-rendering="geometricPrecision"
   text-rendering="geometricPrecision"
   version="1.1"
   viewBox="0 0 210.00001 151.75288"
   width="0.21000001in"
   xml:space="preserve"
   id="svg23"
   sodipodi:docname="generic_small_6V_solar_panel.svg"
   inkscape:version="1.4 (86a8ad7, 2024-10-11)"
   xmlns:inkscape="http://www.inkscape.org/namespaces/inkscape"
   xmlns:sodipodi="http://sodipodi.sourceforge.net/DTD/sodipodi-0.dtd"
   xmlns="http://www.w3.org/2000/svg"
   xmlns:svg="http://www.w3.org/2000/svg"><defs
     id="defs23">
</defs><sodipodi:namedview
     id="namedview23"
     pagecolor="#ffffff"
     bordercolor="#000000"
     borderopacity="0.25"
     inkscape:showpageshadow="2"
     inkscape:pageopacity="0.0"
     inkscape:pagecheckerboard="0"
     inkscape:deskcolor="#d1d1d1"
     inkscape:document-units="in"
     inkscape:zoom="155.27193"
     inkscape:cx="6.0184737"
     inkscape:cy="12.645557"
     inkscape:window-width="1920"
     inkscape:window-height="974"
     inkscape:window-x="-11"
     inkscape:window-y="-11"
     inkscape:window-maximized="1"
     inkscape:current-layer="silkscreen" /><desc
     id="desc1">
        <referenceFile>Solar-Panel_pcb.svg</referenceFile>
    </desc><g
     id="silkscreen"><line
       fill="none"
       stroke="#000000"
       stroke-width="9.99926"
       x1="4.9996281"
       x2="205.00038"
       y1="104.98698"
       y2="104.98698"
       id="line1" /><line
       fill="none"
       stroke="#000000"
       stroke-width="9.99926"
       x1="205.00038"
       x2="205.00038"
       y1="104.98698"
       y2="4.9996281"
       id="line2" /><line
       fill="none"
       stroke="#000000"
       stroke-width="9.99926"
       x1="205.00038"
       x2="4.9996281"
       y1="4.9996281"
       y2="4.9996281"
       id="line3" /><line
       fill="none"
       stroke="#000000"
       stroke-width="9.99926"
       x1="4.9996281"
       x2="4.9996281"
       y1="4.9996281"
       y2="104.98698"
       id="line4" /><path
       style="font-size:69.4444px;font-family:OCRA;-inkscape-font-specification:OCRA;stroke-width:27.0828"
       d="m 38.337545,136.96124 q -0.972222,-1.04167 -0.972222,-2.5 0,-1.45833 0.972222,-2.5 1.041666,-1.04166 2.499998,-1.04166 h 10.277771 v -10.27777 q 0,-1.38889 1.041666,-2.43056 1.041666,-1.04166 2.499998,-1.04166 1.388888,0 2.430554,1.04166 1.041666,1.04167 1.041666,2.43056 v 10.27777 h 10.277771 q 1.458332,0 2.499998,1.04166 1.041666,1.04167 1.041666,2.5 0,1.45833 -1.041666,2.5 -1.041666,0.97222 -2.499998,0.97222 H 58.129198 v 10.27777 q 0,1.45833 -1.041666,2.5 -1.041666,1.04167 -2.430554,1.04167 -1.458332,0 -2.499998,-1.04167 -1.041666,-1.04167 -1.041666,-2.5 V 137.93346 H 40.837543 q -1.458332,0 -2.499998,-0.97222 z"
       id="text23"
       aria-label="+" /></g><g
     id="copper1"><g
       id="copper0"><circle
         cx="55.006332"
         cy="54.98027"
         fill="none"
         id="connector0pin"
         r="29"
         stroke="#ffbf00"
         stroke-width="20" /><circle
         cx="154.99368"
         cy="54.98027"
         fill="none"
         id="connector1pin"
         r="29"
         stroke="#ffbf00"
         stroke-width="20" /></g></g></svg>
