<?xml version="1.0" encoding="UTF-8" standalone="no"?>
<!-- Created with Fritzing (http://www.fritzing.org/) -->

<svg height="1.946061in"
   id="svg221"
   version="1.2"
   viewBox="0 0 551.62728 1946.061"
   width="0.55162728in"
   x="0in"
   y="0in"
   sodipodi:docname="svg.pcb.Infineon_TLE493D-P2B6_MS2GO_pcb.svg"
   inkscape:version="1.4.2 (f4327f4, 2025-05-13)"
   xmlns:inkscape="http://www.inkscape.org/namespaces/inkscape"
   xmlns:sodipodi="http://sodipodi.sourceforge.net/DTD/sodipodi-0.dtd"
   xmlns="http://www.w3.org/2000/svg"
   xmlns:svg="http://www.w3.org/2000/svg">
  <sodipodi:namedview
     id="namedview15"
     pagecolor="#000000"
     bordercolor="#000000"
     borderopacity="0.25"
     inkscape:showpageshadow="2"
     inkscape:pageopacity="0.0"
     inkscape:pagecheckerboard="0"
     inkscape:deskcolor="#d1d1d1"
     inkscape:document-units="in"
     inkscape:zoom="2.1598115"
     inkscape:cx="72.460027"
     inkscape:cy="109.9633"
     inkscape:window-width="1920"
     inkscape:window-height="1009"
     inkscape:window-x="-8"
     inkscape:window-y="-8"
     inkscape:window-maximized="1"
     inkscape:current-layer="svg221" />
  <desc
     id="desc1">
    <referenceFile>prefix0000_8d2d597cffb6b7e0add0c6b65a04dda4_13_pcb.svg</referenceFile>
  </desc>
  <defs
     id="defs225" />
  <desc
     id="desc2">Fritzing footprint generated by brd2svg</desc>
  <g id="silkscreen"
     transform="matrix(13.900198,0,0,13.900198,0.19080477,-169.03637)"
     stroke="#fff">
    <path
       d="M 24.354,151.989 H 15.3171 L 0.288,136.796 V 15.8478 a 3.11358,3.11358 0 0 1 3.3522,-3.3887 h 32.4047 a 3.11358,3.11358 0 0 1 3.3521,3.3887 V 136.782 l -15.043,15.207 m -4.7904,-19.441 a 0.278929,0.278929 0 1 0 0.557858,0 0.278929,0.278929 0 1 0 -0.557858,0 z m 1.7008,0 a 0.278929,0.278929 0 1 0 0.557858,0 0.278929,0.278929 0 1 0 -0.557858,0 z m 0,1.701 a 0.278929,0.278929 0 1 0 0.557858,0 0.278929,0.278929 0 1 0 -0.557858,0 z m -1.7008,0 a 0.278929,0.278929 0 1 0 0.557858,0 0.278929,0.278929 0 1 0 -0.557858,0 z m -1.7008,-1.701 a 0.278929,0.278929 0 1 0 0.557858,0 0.278929,0.278929 0 1 0 -0.557858,0 z m 0,1.701 a 0.278929,0.278929 0 1 0 0.557858,0 0.278929,0.278929 0 1 0 -0.557858,0 z m -5.1024,0 a 0.278929,0.278929 0 1 0 0.557858,0 0.278929,0.278929 0 1 0 -0.557858,0 z m 0,-1.701 a 0.278929,0.278929 0 1 0 0.557858,0 0.278929,0.278929 0 1 0 -0.557858,0 z m 13.6064,0 a 0.278929,0.278929 0 1 0 0.557858,0 0.278929,0.278929 0 1 0 -0.557858,0 z m 0,1.701 a 0.278929,0.278929 0 1 0 0.557858,0 0.278929,0.278929 0 1 0 -0.557858,0 z m 1.7007,0 a 0.278929,0.278929 0 1 0 0.557858,0 0.278929,0.278929 0 1 0 -0.557858,0 z m 0,-1.701 a 0.278929,0.278929 0 1 0 0.557858,0 0.278929,0.278929 0 1 0 -0.557858,0 z m 5.1024,0 a 0.278929,0.278929 0 1 0 0.557858,0 0.278929,0.278929 0 1 0 -0.557858,0 z m 1.7008,0 a 0.278929,0.278929 0 1 0 0.557858,0 0.278929,0.278929 0 1 0 -0.557858,0 z m 1.7008,0 a 0.278929,0.278929 0 1 0 0.557858,0 0.278929,0.278929 0 1 0 -0.557858,0 z m 1.7007,0 a 0.278929,0.278929 0 1 0 0.557858,0 0.278929,0.278929 0 1 0 -0.557858,0 z m -5.1023,1.701 a 0.278929,0.278929 0 1 0 0.557858,0 0.278929,0.278929 0 1 0 -0.557858,0 z m 1.7008,0 a 0.278929,0.278929 0 1 0 0.557858,0 0.278929,0.278929 0 1 0 -0.557858,0 z m 1.7008,0 a 0.278929,0.278929 0 1 0 0.557858,0 0.278929,0.278929 0 1 0 -0.557858,0 z m 1.7007,0 a 0.278929,0.278929 0 1 0 0.557858,0 0.278929,0.278929 0 1 0 -0.557858,0 z m -27.2126,-1.701 a 0.278929,0.278929 0 1 0 0.557858,0 0.278929,0.278929 0 1 0 -0.557858,0 z m -5.10231,0 a 0.278929,0.278929 0 1 0 0.557858,0 0.278929,0.278929 0 1 0 -0.557858,0 z m -1.70079,0 a 0.278929,0.278929 0 1 0 0.557858,0 0.278929,0.278929 0 1 0 -0.557858,0 z m -1.70078,0 a 0.278929,0.278929 0 1 0 0.557858,0 0.278929,0.278929 0 1 0 -0.557858,0 z m -1.700792,0 a 0.278929,0.278929 0 1 0 0.557858,0 0.278929,0.278929 0 1 0 -0.557858,0 z m 10.204672,1.701 a 0.278929,0.278929 0 1 0 0.557858,0 0.278929,0.278929 0 1 0 -0.557858,0 z m -5.10231,0 a 0.278929,0.278929 0 1 0 0.557858,0 0.278929,0.278929 0 1 0 -0.557858,0 z m -1.70079,0 a 0.278929,0.278929 0 1 0 0.557858,0 0.278929,0.278929 0 1 0 -0.557858,0 z m -1.70078,0 a 0.278929,0.278929 0 1 0 0.557858,0 0.278929,0.278929 0 1 0 -0.557858,0 z m -1.700792,0 a 0.278929,0.278929 0 1 0 0.557858,0 0.278929,0.278929 0 1 0 -0.557858,0 z"
       fill="none" id="path4"
       stroke="#ffffff"
       stroke-width="0.576" />
    <g id="g28">
      <title
         id="title6">element:IC101</title>
      <g id="g26">
        <title
           id="title8">package:QFN-48-7X7</title>
        <line id="line10"
           stroke-linecap="round"
           stroke-width="0.36"
           x1="29.7638"
           x2="29.7638"
           y1="43.398399"
           y2="41.981098" />
        <line id="line12"
           stroke-linecap="round"
           stroke-width="0.36"
           x1="29.7638"
           x2="28.3465"
           y1="41.981098"
           y2="41.981098" />
        <line id="line14"
           stroke-linecap="round"
           stroke-width="0.36"
           x1="11.3386"
           x2="9.9212399"
           y1="41.981098"
           y2="41.981098" />
        <line id="line16"
           stroke-linecap="round"
           stroke-width="0.36"
           x1="9.9212399"
           x2="9.9212399"
           y1="41.981098"
           y2="43.398399" />
        <line id="line18"
           stroke-linecap="round"
           stroke-width="0.36"
           x1="9.9212399"
           x2="9.9212399"
           y1="60.4063"
           y2="61.823601" />
        <line id="line20"
           stroke-linecap="round"
           stroke-width="0.36"
           x1="9.9212399"
           x2="11.3386"
           y1="61.823601"
           y2="61.823601" />
        <line id="line22"
           stroke-linecap="round"
           stroke-width="0.36"
           x1="28.3465"
           x2="29.7638"
           y1="61.823601"
           y2="61.823601" />
        <line id="line24"
           stroke-linecap="round"
           stroke-width="0.36"
           x1="29.7638"
           x2="29.7638"
           y1="61.823601"
           y2="60.4063" />
      </g>
    </g>
    <g id="g36">
      <title
         id="title30">element:U$2</title>
      <g id="g34">
        <title
           id="title32">package:INFINEON_LOGO_INFINEON_LOGO_5_SILK</title>
      </g>
    </g>
    <g id="g168">
      <title
         id="title38">element:X101</title>
      <g id="g166">
        <title
           id="title40">package:ZX62-AB-5PA_MICRO-USB</title>
        <line id="line54"
           stroke-linecap="round"
           stroke-width="0.283465"
           x1="28.126801"
           x2="19.622801"
           y1="26.4473"
           y2="26.4473" />
        <line id="line56"
           stroke-linecap="round"
           stroke-width="0.283465"
           x1="19.622801"
           x2="19.622801"
           y1="26.4473"
           y2="25.0299" />
        <line id="line58"
           stroke-linecap="round"
           stroke-width="0.283465"
           x1="19.622801"
           x2="18.489"
           y1="25.0299"
           y2="25.0299" />
        <line id="line60"
           stroke-linecap="round"
           stroke-width="0.283465"
           x1="18.489"
           x2="18.489"
           y1="25.0299"
           y2="26.4473" />
        <line id="line62"
           stroke-linecap="round"
           stroke-width="0.283465"
           x1="18.489"
           x2="14.3788"
           y1="26.4473"
           y2="26.4473" />
        <line id="line64"
           stroke-linecap="round"
           stroke-width="0.283465"
           x1="14.3788"
           x2="14.3788"
           y1="26.4473"
           y2="21.9118" />
        <line id="line66"
           stroke-linecap="round"
           stroke-width="0.283465"
           x1="28.126801"
           x2="28.126801"
           y1="26.4473"
           y2="25.0299" />
        <line id="line68"
           stroke-linecap="round"
           stroke-width="0.283465"
           x1="28.126801"
           x2="29.2607"
           y1="25.0299"
           y2="25.0299" />
        <line id="line70"
           stroke-linecap="round"
           stroke-width="0.283465"
           x1="29.2607"
           x2="29.2607"
           y1="25.0299"
           y2="26.4473" />
        <line id="line72"
           stroke-linecap="round"
           stroke-width="0.283465"
           x1="29.2607"
           x2="33.3708"
           y1="26.4473"
           y2="26.4473" />
        <line id="line74"
           stroke-linecap="round"
           stroke-width="0.283465"
           x1="33.3708"
           x2="33.3708"
           y1="26.447989"
           y2="12.343636" />
        <line id="line76"
           stroke-linecap="round"
           stroke-width="0.283465"
           x1="14.3788"
           x2="14.3788"
           y1="26.448112"
           y2="12.356067" />
        <line id="line110"
           stroke-linecap="round"
           stroke-width="0.283465"
           x1="19.9063"
           x2="18.2055"
           y1="15.9591"
           y2="15.9591" />
        <path
           d="M 18.2055,15.9591 A 0.283465,0.283465 0 0 0 17.922,16.2426"
           fill="none" id="path112"
           stroke-width="0.283465" />
        <line id="line114"
           stroke-linecap="round"
           stroke-width="0.283465"
           x1="17.922001"
           x2="17.922001"
           y1="16.242599"
           y2="16.8095" />
        <path
           d="M 18.489,17.3764 A 0.566929,0.566929 0 0 0 17.922,16.8095"
           fill="none" id="path116"
           stroke-width="0.283465" />
        <line id="line118"
           stroke-linecap="round"
           stroke-width="0.283465"
           x1="18.489"
           x2="18.489"
           y1="17.3764"
           y2="19.927601" />
        <path
           d="m 18.489,19.9276 a 0.283465,0.283465 0 0 0 0.2834,0.2834"
           fill="none" id="path120"
           stroke-width="0.283465" />
        <path
           d="M 20.1897,16.2426 A 0.283465,0.283465 0 0 0 19.9063,15.9591"
           fill="none" id="path122"
           stroke-width="0.283465" />
        <line id="line124"
           stroke-linecap="round"
           stroke-width="0.283465"
           x1="20.189699"
           x2="20.189699"
           y1="16.242599"
           y2="16.8095" />
        <path
           d="m 20.1897,16.8095 a 0.566929,0.566929 0 0 0 -0.5669,0.5669"
           fill="none" id="path126"
           stroke-width="0.283465" />
        <line id="line128"
           stroke-linecap="round"
           stroke-width="0.283465"
           x1="19.622801"
           x2="19.622801"
           y1="17.3764"
           y2="19.927601" />
        <line id="line130"
           stroke-linecap="round"
           stroke-width="0.283465"
           x1="18.7724"
           x2="19.3393"
           y1="20.211"
           y2="20.211" />
        <path
           d="m 19.3393,20.211 a 0.283465,0.283465 0 0 0 0.2835,-0.2834"
           fill="none" id="path132"
           stroke-width="0.283465" />
        <line id="line134"
           stroke-linecap="round"
           stroke-width="0.283465"
           x1="29.5441"
           x2="27.8433"
           y1="15.9591"
           y2="15.9591" />
        <path
           d="m 27.8433,15.9591 a 0.283465,0.283465 0 0 0 -0.2834,0.2835"
           fill="none" id="path136"
           stroke-width="0.283465" />
        <line id="line138"
           stroke-linecap="round"
           stroke-width="0.283465"
           x1="27.5599"
           x2="27.5599"
           y1="16.242599"
           y2="16.8095" />
        <path
           d="M 28.1268,17.3764 A 0.566929,0.566929 0 0 0 27.5599,16.8095"
           fill="none" id="path140"
           stroke-width="0.283465" />
        <line id="line142"
           stroke-linecap="round"
           stroke-width="0.283465"
           x1="28.126801"
           x2="28.126801"
           y1="17.3764"
           y2="19.927601" />
        <path
           d="m 28.1268,19.9276 a 0.283465,0.283465 0 0 0 0.2835,0.2834"
           fill="none" id="path144"
           stroke-width="0.283465" />
        <path
           d="M 29.8276,16.2426 A 0.283465,0.283465 0 0 0 29.5441,15.9591"
           fill="none" id="path146"
           stroke-width="0.283465" />
        <line id="line148"
           stroke-linecap="round"
           stroke-width="0.283465"
           x1="29.8276"
           x2="29.8276"
           y1="16.242599"
           y2="16.8095" />
        <path
           d="m 29.8276,16.8095 a 0.566929,0.566929 0 0 0 -0.5669,0.5669"
           fill="none" id="path150"
           stroke-width="0.283465" />
        <line id="line152"
           stroke-linecap="round"
           stroke-width="0.283465"
           x1="29.2607"
           x2="29.2607"
           y1="17.3764"
           y2="19.927601" />
        <line id="line154"
           stroke-linecap="round"
           stroke-width="0.283465"
           x1="28.410299"
           x2="28.9772"
           y1="20.211"
           y2="20.211" />
        <path
           d="m 28.9772,20.211 a 0.283465,0.283465 0 0 0 0.2835,-0.2834"
           fill="none" id="path156"
           stroke-width="0.283465" />
        <g
           transform="rotate(180,17.21695,9.1488)"
           id="g3">
          <g
             id="g2">
            <g
               id="g1">
              <g id="g160">
                <rect
                   fill="#ffffff" height="1.84252"
                   id="rect158"
                   stroke="none"
                   stroke-width="0"
                   width="1.84252"
                   x="-0.92126203"
                   y="-0.92126203" />
              </g>
            </g>
          </g>
        </g>
        <g
           transform="rotate(180,6.6579,9.1488)"
           id="g6">
          <g
             id="g5">
            <g
               id="g4">
              <g id="g164">
                <rect
                   fill="#ffffff" height="1.84252"
                   id="rect162"
                   stroke="none"
                   stroke-width="0"
                   width="1.84252"
                   x="-0.92126203"
                   y="-0.92126203" />
              </g>
            </g>
          </g>
        </g>
      </g>
    </g>
  </g>
  <g id="copper1"
     transform="matrix(13.900198,0,0,13.900198,0.19080477,-169.03637)">
    <g id="copper0"
       stroke="#f7bd13">
      <circle
         connectorname="SDA"
         cx="8.968255"
         cy="136.94427"
         fill="none" id="connector24pin"
         r="1.5944901"
         stroke-width="0.637795" />
      <circle
         connectorname="SCL"
         cx="16.168255"
         cy="136.94427"
         fill="none" id="connector23pin"
         r="1.5944901"
         stroke-width="0.637795" />
      <circle
         connectorname="GND"
         cx="23.368254"
         cy="136.94427"
         fill="none" id="connector22pin"
         r="1.5944901"
         stroke-width="0.637795" />
      <circle
         connectorname="P1.0/VDDSENS"
         cx="30.568254"
         cy="136.94427"
         fill="none" id="connector21pin"
         r="1.5944901"
         stroke-width="0.637795" />
      <circle
         connectorname="P1.0/VDDSENS"
         cx="30.568254"
         cy="129.74428"
         fill="none" id="connector20pin"
         r="1.5944901"
         stroke-width="0.637795" />
      <circle
         connectorname="GND"
         cx="23.368254"
         cy="129.74428"
         fill="none" id="connector19pin"
         r="1.5944901"
         stroke-width="0.637795" />
      <circle
         connectorname="SCL"
         cx="16.168255"
         cy="129.74428"
         fill="none" id="connector18pin"
         r="1.5944901"
         stroke-width="0.637795" />
      <circle
         connectorname="SDA"
         cx="8.968255"
         cy="129.74428"
         fill="none" id="connector17pin"
         r="1.5944901"
         stroke-width="0.637795" />
      <circle
         connectorname="P0.6"
         cx="34.3559"
         cy="118.063"
         fill="none" id="connector16pin"
         r="1.5944901"
         stroke-width="0.637795" />
      <circle
         connectorname="P0.7"
         cx="34.3559"
         cy="110.863"
         fill="none" id="connector15pin"
         r="1.5944901"
         stroke-width="0.637795" />
      <circle
         connectorname="P0.8"
         cx="34.3559"
         cy="103.663"
         fill="none" id="connector14pin"
         r="1.5944901"
         stroke-width="0.637795" />
      <circle
         connectorname="P0.9"
         cx="34.3559"
         cy="96.4627"
         fill="none" id="connector13pin"
         r="1.5944901"
         stroke-width="0.637795" />
      <circle
         connectorname="P0.14"
         cx="34.3559"
         cy="89.262703"
         fill="none" id="connector12pin"
         r="1.5944901"
         stroke-width="0.637795" />
      <circle
         connectorname="P0.15"
         cx="34.3559"
         cy="82.062698"
         fill="none" id="connector11pin"
         r="1.5944901"
         stroke-width="0.637795" />
      <circle
         connectorname="P2.0"
         cx="34.3559"
         cy="74.862701"
         fill="none" id="connector10pin"
         r="1.5944901"
         stroke-width="0.637795" />
      <circle
         connectorname="P2.6"
         cx="34.3559"
         cy="67.663002"
         fill="none" id="connector9pin"
         r="1.5944901"
         stroke-width="0.637795"
         inkscape:label="connector9pin" />
      <circle
         connectorname="P0.5"
         cx="5.3291302"
         cy="118.063"
         fill="none" id="connector8pin"
         r="1.5944901"
         stroke-width="0.637795"
         inkscape:label="connector8pin" />
      <circle
         connectorname="P0.0"
         cx="5.3291302"
         cy="110.863"
         fill="none" id="connector7pin"
         r="1.5944901"
         stroke-width="0.637795"
         inkscape:label="connector7pin" />
      <circle
         connectorname="+3V3"
         cx="5.3291302"
         cy="103.663"
         fill="none" id="connector6pin"
         r="1.5944901"
         stroke-width="0.637795"
         inkscape:label="connector6pin" />
      <circle
         connectorname="GND"
         cx="5.3291302"
         cy="96.4627"
         fill="none" id="connector5pin"
         r="1.5944901"
         stroke-width="0.637795"
         inkscape:label="connector5pin" />
      <circle
         connectorname="P2.11"
         cx="5.3291302"
         cy="89.262703"
         fill="none" id="connector4pin"
         r="1.5944901"
         stroke-width="0.637795"
         inkscape:label="connector4pin" />
      <circle
         connectorname="P2.10"
         cx="5.3291302"
         cy="82.062698"
         fill="none" id="connector3pin"
         r="1.5944901"
         stroke-width="0.637795"
         inkscape:label="connector3pin" />
      <circle
         connectorname="P2.9"
         cx="5.3291302"
         cy="74.862701"
         fill="none" id="connector2pin"
         r="1.5944901"
         stroke-width="0.637795"
         inkscape:label="connector2pin" />
      <circle
         connectorname="P2.7/P2.8"
         cx="5.3291302"
         cy="67.663002"
         fill="none" id="connector1pin"
         r="1.5944901"
         stroke-width="0.637795"
         inkscape:label="connector1pin" />
      <circle
         connectorname="N$5"
         cx="19.8426"
         cy="112.67699"
         fill="none" id="connector0pin"
         r="4.6771598"
         stroke-width="0.850392"
         inkscape:label="connector0pin" />
    </g>
  </g>
</svg>
