<?xml version="1.0" encoding="UTF-8"?>
<!-- Created with Fritzing (http://www.fritzing.org/) -->
<svg id="svg2377" width=".5521in" height="2.0359in" version="1.2" viewBox="0 0 552.1 2035.9" xmlns="http://www.w3.org/2000/svg">
 <desc id="desc1">
  <referenceFile>KIT_XMC14_2GO_pcb4.svg</referenceFile>
 </desc>
 <desc id="desc2">Fritzing footprint generated by brd2svg</desc>
 <g id="g1" >
  <g transform="matrix(13.886 0 0 13.886 .064988 -41.989)">
   <g id="silkscreen" stroke="#fff" >
    <path id="path1" d="m39.446 145.72c0.0063 2.7768-2.0741 3.5972-3.5515 3.586h-32.047c-2.0362 0.15512-3.7263-1.5514-3.5514-3.586v-139.01c-0.1774-1.9267 1.427-3.5469 3.3554-3.3883h32.286c2.0126-0.15591 3.684 1.5318 3.5086 3.5428v138.86" fill="none" stroke-width=".576" />
    <line id="line3" x1="29.077" x2="32.195" y1="26.844" y2="26.844" stroke-linecap="round" stroke-width=".36" />
    <circle id="circle21" cx="29.148" cy="65.891" r=".35433" fill="none" stroke-width=".72" />
    <line id="line22" x1="19.864" x2="19.363" y1="105.02" y2="105.53" stroke-linecap="round" stroke-width=".56693" />
    <line id="line23" x1="29.385" x2="29.485" y1="114.55" y2="114.65" stroke-linecap="round" stroke-width=".56693" />
    <line id="line24" x1="10.343" x2="9.8423" y1="114.55" y2="115.05" stroke-linecap="round" stroke-width=".56693" />
    <line id="line25" x1="19.363" x2="19.864" y1="124.57" y2="125.07" stroke-linecap="round" stroke-width=".56693" />
    <line id="line26" x1="20.365" x2="19.864" y1="124.57" y2="125.07" stroke-linecap="round" stroke-width=".56693" />
    <line id="line27" x1="9.8423" x2="10.343" y1="115.05" y2="115.55" stroke-linecap="round" stroke-width=".56693" />
    <line id="line28" x1="29.485" x2="29.485" y1="114.65" y2="115.45" stroke-linecap="round" stroke-width=".56693" />
    <line id="line29" x1="29.485" x2="29.385" y1="115.45" y2="115.55" stroke-linecap="round" stroke-width=".56693" />
    <circle id="circle29" cx="30.487" cy="111.64" r=".35433" fill="none" stroke-width=".70866" />
    <line id="line33" x1="9.9426" x2="9.9426" y1="85.237" y2="86.655" stroke-linecap="round" stroke-width=".36" />
    <line id="line34" x1="28.368" x2="29.786" y1="66.812" y2="66.812" stroke-linecap="round" stroke-width=".36" />
    <line id="line35" x1="9.9426" x2="9.9426" y1="66.812" y2="68.23" stroke-linecap="round" stroke-width=".36" />
    <line id="line36" x1="28.368" x2="29.786" y1="86.655" y2="86.655" stroke-linecap="round" stroke-width=".36" />
    <line id="line37" x1="29.786" x2="29.786" y1="85.237" y2="86.655" stroke-linecap="round" stroke-width=".36" />
    <line id="line38" x1="9.9426" x2="11.36" y1="86.655" y2="86.655" stroke-linecap="round" stroke-width=".36" />
    <line id="line39" x1="29.786" x2="29.786" y1="66.812" y2="68.23" stroke-linecap="round" stroke-width=".36" />
    <line id="line41" x1="8.4404" x2="17.228" y1="31.655" y2="31.655" stroke-linecap="round" stroke-width=".56693" />
    <line id="line42" x1="8.4404" x2="17.228" y1="45.544" y2="45.544" stroke-linecap="round" stroke-width=".56693" />
    <circle id="circle42" cx="1.9352" cy="33.292" r=".35433" fill="none" stroke-width=".70866" />
    <line id="line44" x1="35.526" x2="35.526" y1="14.229" y2="23.938" stroke-linecap="round" stroke-width=".56693" />
    <line id="line46" x1="6.0853" x2="6.0853" y1="3.3224" y2="11.233" stroke-linecap="round" stroke-width=".55761" />
    <line id="line47" x1="36.15" x2="35.526" y1="13.605" y2="14.229" stroke-linecap="round" stroke-width=".56693" />
    <line id="line48" x1="6.1871" x2="6.1871" y1="15.363" y2="18.547" stroke-linecap="round" stroke-width=".56693" />
    <line id="line49" x1="36.15" x2="36.15" y1="3.3224" y2="13.605" stroke-linecap="round" stroke-width=".55761" />
    <line id="line50" x1="25.817" x2="6.1032" y1="26.781" y2="26.781" stroke-linecap="round" stroke-width=".56693" />
    <line id="line51" x1="35.408" x2="35.383" y1="26.305" y2="26.781" stroke-linecap="round" stroke-width=".56693" />
    <line id="line52" x1="36.15" x2="35.383" y1="26.781" y2="26.781" stroke-linecap="round" stroke-width=".56693" />
    <line id="line53" x1="36.15" x2="35.383" y1="26.143" y2="26.781" stroke-linecap="round" stroke-width=".56693" />
    <line id="line54" x1="6.1032" x2="6.1032" y1="22.477" y2="26.781" stroke-linecap="round" stroke-width=".56693" />
    <line id="line55" x1="36.15" x2="35.408" y1="25.639" y2="26.305" stroke-linecap="round" stroke-width=".56693" />
    <line id="line56" x1="36.15" x2="36.15" y1="24.563" y2="26.781" stroke-linecap="round" stroke-width=".56693" />
    <line id="line57" x1="36.15" x2="35.526" y1="24.563" y2="23.938" stroke-linecap="round" stroke-width=".56693" />
    <circle id="circle57" cx="36.164" cy="29.253" r=".35433" fill="none" stroke-width=".70866" />
    <circle id="circle59" cx="30.509" cy="88.852" r=".35433" fill="none" stroke-width=".70866" />
   </g>
   <g id="copper1" >
    <g id="copper0" fill="none" stroke="#f7bd13" >
     <circle id="connector21pin" cx="19.858" cy="137.5" r="4.972" stroke-width="1.44" connectorname="S$1" />
     <circle id="connector20pin" cx="3.9339" cy="56.494" r="1.9843" stroke-width=".85039" connectorname="1" />
     <circle id="connector19pin" cx="3.9338" cy="49.294" r="1.9843" stroke-width=".85039" connectorname="1" />
     <circle id="connector18pin" cx="3.9339" cy="20.494" r="1.9843" stroke-width=".85039" connectorname="1" />
     <circle id="connector17pin" cx="3.9338" cy="13.294" r="1.9843" stroke-width=".85039" connectorname="1" />
     <circle id="connector16pin" cx="34.151" cy="142.89" r="1.9843" stroke-width=".85039" connectorname="34" />
     <circle id="connector15pin" cx="34.151" cy="135.69" r="1.9843" stroke-width=".85039" connectorname="32" />
     <circle id="connector14pin" cx="34.151" cy="128.49" r="1.9843" stroke-width=".85039" connectorname="30" />
     <circle id="connector13pin" cx="34.151" cy="121.29" r="1.9843" stroke-width=".85039" connectorname="28" />
     <circle id="connector12pin" cx="34.151" cy="114.09" r="1.9843" stroke-width=".85039" connectorname="26" />
     <circle id="connector11pin" cx="34.151" cy="106.89" r="1.9843" stroke-width=".85039" connectorname="24" />
     <circle id="connector10pin" cx="34.151" cy="99.694" r="1.9843" stroke-width=".85039" connectorname="22" />
     <circle id="connector9pin" cx="34.151" cy="92.494" r="1.9843" stroke-width=".85039" connectorname="20" />
     <circle id="connector8pin" cx="5.3512" cy="142.89" r="1.9843" stroke-width=".85039" connectorname="18" />
     <circle id="connector7pin" cx="5.3512" cy="135.69" r="1.9843" stroke-width=".85039" connectorname="16" />
     <circle id="connector6pin" cx="5.3512" cy="128.49" r="1.9843" stroke-width=".85039" connectorname="14" />
     <circle id="connector5pin" cx="5.3512" cy="121.29" r="1.9843" stroke-width=".85039" connectorname="12" />
     <circle id="connector4pin" cx="5.3512" cy="114.09" r="1.9843" stroke-width=".85039" connectorname="10" />
     <circle id="connector3pin" cx="5.3512" cy="106.89" r="1.9843" stroke-width=".85039" connectorname="8" />
     <circle id="connector2pin" cx="5.3512" cy="99.694" r="1.9843" stroke-width=".85039" connectorname="5" />
     <circle id="connector1pin" cx="5.3512" cy="92.494" r="1.9843" stroke-width=".85039" connectorname="4" />
     <circle id="connector0pin" cx="5.3512" cy="85.294" r="1.9843" stroke-width=".85039" connectorname="2" />
    </g>
   </g>
  </g>
 </g>
</svg>
